<?xml version="1.0" encoding="utf-8" ?>
<svg baseProfile="full" height="98mm" version="1.1" viewBox="0,0,200,98" width="200mm" xmlns="http://www.w3.org/2000/svg" xmlns:ev="http://www.w3.org/2001/xml-events" xmlns:xlink="http://www.w3.org/1999/xlink"><defs /><rect fill="#222222" height="98" width="200" x="0" y="0" /><text fill="#FFFFFF" style="font-size:12px; font-family:Arial; font-weight:bold;" x="10" y="20">2021 Running</text><text fill="#FFFFFF" style="font-size:4px; font-family:Arial" x="10" y="78">ATHLETE</text><text fill="#FFFFFF" style="font-size:9px; font-family:Arial" x="10" y="88">yihong0618</text><text fill="#FFFFFF" style="font-size:4px; font-family:Arial" x="120" y="78">STATISTICS</text><text fill="#FFFFFF" style="font-size:3px; font-family:Arial" x="120" y="83">Number: 335</text><text fill="#FFFFFF" style="font-size:3px; font-family:Arial" x="120" y="88">Weekly: 6.3</text><text fill="#FFFFFF" style="font-size:3px; font-family:Arial" x="141" y="83">Total: 1240.9 km</text><text fill="#FFFFFF" style="font-size:3px; font-family:Arial" x="141" y="88">Avg: 3.7 km</text><text fill="#FFFFFF" style="font-size:3px; font-family:Arial" x="167" y="83">Min: 0.5 km</text><text fill="#FFFFFF" style="font-size:3px; font-family:Arial" x="167" y="88">Max: 19.2 km</text><text alignment-baseline="hanging" fill="#FFFFFF" style="font-size:10.0px; font-family:Arial;" x="10" y="30">2021</text><text alignment-baseline="hanging" fill="#FFFFFF" style="font-size:4.125px; font-family:Arial;" x="175" y="35">1240.9 km</text><text fill="#FFFFFF" style="font-size:2.5px; font-family:Arial" x="10.0" y="44">Jan</text><text fill="#FFFFFF" style="font-size:2.5px; font-family:Arial" x="25.5" y="44">Feb</text><text fill="#FFFFFF" style="font-size:2.5px; font-family:Arial" x="41.0" y="44">Mar</text><text fill="#FFFFFF" style="font-size:2.5px; font-family:Arial" x="56.5" y="44">Apr</text><text fill="#FFFFFF" style="font-size:2.5px; font-family:Arial" x="72.0" y="44">May</text><text fill="#FFFFFF" style="font-size:2.5px; font-family:Arial" x="87.5" y="44">Jun</text><text fill="#FFFFFF" style="font-size:2.5px; font-family:Arial" x="103.0" y="44">Jul</text><text fill="#FFFFFF" style="font-size:2.5px; font-family:Arial" x="118.5" y="44">Aug</text><text fill="#FFFFFF" style="font-size:2.5px; font-family:Arial" x="134.0" y="44">Sep</text><text fill="#FFFFFF" style="font-size:2.5px; font-family:Arial" x="149.5" y="44">Oct</text><text fill="#FFFFFF" style="font-size:2.5px; font-family:Arial" x="165.0" y="44">Nov</text><text fill="#FFFFFF" style="font-size:2.5px; font-family:Arial" x="180.5" y="44">Dec</text><rect fill="#444444" height="2.6" width="2.6" x="10.0" y="45.5"><title>2020-12-28</title></rect><rect fill="#444444" height="2.6" width="2.6" x="10.0" y="49.0"><title>2020-12-29</title></rect><rect fill="#444444" height="2.6" width="2.6" x="10.0" y="52.5"><title>2020-12-30</title></rect><rect fill="#444444" height="2.6" width="2.6" x="10.0" y="56.0"><title>2020-12-31</title></rect><rect fill="#4dd2ff" height="2.6" width="2.6" x="10.0" y="59.5"><title>2021-01-01 5.1 km</title></rect><rect fill="#4dd2ff" height="2.6" width="2.6" x="10.0" y="63.0"><title>2021-01-02 5.5 km</title></rect><rect fill="#ff7900" height="2.6" width="2.6" x="10.0" y="66.5"><title>2021-01-03 10.3 km</title></rect><rect fill="#4dd2ff" height="2.6" width="2.6" x="13.5" y="45.5"><title>2021-01-04 2.6 km</title></rect><rect fill="#4dd2ff" height="2.6" width="2.6" x="13.5" y="49.0"><title>2021-01-05 4.2 km</title></rect><rect fill="#4dd2ff" height="2.6" width="2.6" x="13.5" y="52.5"><title>2021-01-06 3.1 km</title></rect><rect fill="#4dd2ff" height="2.6" width="2.6" x="13.5" y="56.0"><title>2021-01-07 3.1 km</title></rect><rect fill="#4dd2ff" height="2.6" width="2.6" x="13.5" y="59.5"><title>2021-01-08 2.1 km</title></rect><rect fill="#4dd2ff" height="2.6" width="2.6" x="13.5" y="63.0"><title>2021-01-09 1.6 km</title></rect><rect fill="#ff6b00" height="2.6" width="2.6" x="13.5" y="66.5"><title>2021-01-10 11.4 km</title></rect><rect fill="#4dd2ff" height="2.6" width="2.6" x="17.0" y="45.5"><title>2021-01-11 1.6 km</title></rect><rect fill="#4dd2ff" height="2.6" width="2.6" x="17.0" y="49.0"><title>2021-01-12 4.1 km</title></rect><rect fill="#4dd2ff" height="2.6" width="2.6" x="17.0" y="52.5"><title>2021-01-13 5.6 km</title></rect><rect fill="#4dd2ff" height="2.6" width="2.6" x="17.0" y="56.0"><title>2021-01-14 2.0 km</title></rect><rect fill="#4dd2ff" height="2.6" width="2.6" x="17.0" y="59.5"><title>2021-01-15 1.6 km</title></rect><rect fill="#ff6d00" height="2.6" width="2.6" x="17.0" y="63.0"><title>2021-01-16 11.2 km</title></rect><rect fill="#4dd2ff" height="2.6" width="2.6" x="17.0" y="66.5"><title>2021-01-17 3.4 km</title></rect><rect fill="#4dd2ff" height="2.6" width="2.6" x="20.5" y="45.5"><title>2021-01-18 2.0 km</title></rect><rect fill="#4dd2ff" height="2.6" width="2.6" x="20.5" y="49.0"><title>2021-01-19 5.9 km</title></rect><rect fill="#4dd2ff" height="2.6" width="2.6" x="20.5" y="52.5"><title>2021-01-20 3.2 km</title></rect><rect fill="#4dd2ff" height="2.6" width="2.6" x="20.5" y="56.0"><title>2021-01-21 5.1 km</title></rect><rect fill="#ff7300" height="2.6" width="2.6" x="20.5" y="59.5"><title>2021-01-22 10.8 km</title></rect><rect fill="#4dd2ff" height="2.6" width="2.6" x="20.5" y="63.0"><title>2021-01-23 5.2 km</title></rect><rect fill="#ff7a00" height="2.6" width="2.6" x="20.5" y="66.5"><title>2021-01-24 10.2 km</title></rect><rect fill="#4dd2ff" height="2.6" width="2.6" x="24.0" y="45.5"><title>2021-01-25 1.1 km</title></rect><rect fill="#4dd2ff" height="2.6" width="2.6" x="24.0" y="49.0"><title>2021-01-26 4.1 km</title></rect><rect fill="#4dd2ff" height="2.6" width="2.6" x="24.0" y="52.5"><title>2021-01-27 1.5 km</title></rect><rect fill="#4dd2ff" height="2.6" width="2.6" x="24.0" y="56.0"><title>2021-01-28 4.6 km</title></rect><rect fill="#ff7b00" height="2.6" width="2.6" x="24.0" y="59.5"><title>2021-01-29 10.1 km</title></rect><rect fill="#4dd2ff" height="2.6" width="2.6" x="24.0" y="63.0"><title>2021-01-30 2.7 km</title></rect><rect fill="#4dd2ff" height="2.6" width="2.6" x="24.0" y="66.5"><title>2021-01-31 3.1 km</title></rect><rect fill="#4dd2ff" height="2.6" width="2.6" x="27.5" y="45.5"><title>2021-02-01 4.1 km</title></rect><rect fill="#4dd2ff" height="2.6" width="2.6" x="27.5" y="49.0"><title>2021-02-02 1.6 km</title></rect><rect fill="#4dd2ff" height="2.6" width="2.6" x="27.5" y="52.5"><title>2021-02-03 5.1 km</title></rect><rect fill="#4dd2ff" height="2.6" width="2.6" x="27.5" y="56.0"><title>2021-02-04 3.1 km</title></rect><rect fill="#4dd2ff" height="2.6" width="2.6" x="27.5" y="59.5"><title>2021-02-05 1.0 km</title></rect><rect fill="#4dd2ff" height="2.6" width="2.6" x="27.5" y="63.0"><title>2021-02-06 1.7 km</title></rect><rect fill="#4dd2ff" height="2.6" width="2.6" x="27.5" y="66.5"><title>2021-02-07 6.6 km</title></rect><rect fill="#ff5c00" height="2.6" width="2.6" x="31.0" y="45.5"><title>2021-02-08 12.4 km</title></rect><rect fill="#4dd2ff" height="2.6" width="2.6" x="31.0" y="49.0"><title>2021-02-09 3.4 km</title></rect><rect fill="#4dd2ff" height="2.6" width="2.6" x="31.0" y="52.5"><title>2021-02-10 1.2 km</title></rect><rect fill="#4dd2ff" height="2.6" width="2.6" x="31.0" y="56.0"><title>2021-02-11 1.7 km</title></rect><rect fill="#4dd2ff" height="2.6" width="2.6" x="31.0" y="59.5"><title>2021-02-12 5.1 km</title></rect><rect fill="#ff0000" height="2.6" width="2.6" x="31.0" y="63.0"><title>2021-02-13 19.2 km</title></rect><rect fill="#4dd2ff" height="2.6" width="2.6" x="31.0" y="66.5"><title>2021-02-14 0.5 km</title></rect><rect fill="#4dd2ff" height="2.6" width="2.6" x="34.5" y="45.5"><title>2021-02-15 4.2 km</title></rect><rect fill="#4dd2ff" height="2.6" width="2.6" x="34.5" y="49.0"><title>2021-02-16 2.0 km</title></rect><rect fill="#4dd2ff" height="2.6" width="2.6" x="34.5" y="52.5"><title>2021-02-17 5.2 km</title></rect><rect fill="#4dd2ff" height="2.6" width="2.6" x="34.5" y="56.0"><title>2021-02-18 4.2 km</title></rect><rect fill="#4dd2ff" height="2.6" width="2.6" x="34.5" y="59.5"><title>2021-02-19 5.2 km</title></rect><rect fill="#4dd2ff" height="2.6" width="2.6" x="34.5" y="63.0"><title>2021-02-20 3.1 km</title></rect><rect fill="#4dd2ff" height="2.6" width="2.6" x="34.5" y="66.5"><title>2021-02-21 5.1 km</title></rect><rect fill="#4dd2ff" height="2.6" width="2.6" x="38.0" y="45.5"><title>2021-02-22 6.2 km</title></rect><rect fill="#4dd2ff" height="2.6" width="2.6" x="38.0" y="49.0"><title>2021-02-23 3.1 km</title></rect><rect fill="#4dd2ff" height="2.6" width="2.6" x="38.0" y="52.5"><title>2021-02-24 1.1 km</title></rect><rect fill="#4dd2ff" height="2.6" width="2.6" x="38.0" y="56.0"><title>2021-02-25 7.1 km</title></rect><rect fill="#4dd2ff" height="2.6" width="2.6" x="38.0" y="59.5"><title>2021-02-26 2.0 km</title></rect><rect fill="#4dd2ff" height="2.6" width="2.6" x="38.0" y="63.0"><title>2021-02-27 7.6 km</title></rect><rect fill="#4dd2ff" height="2.6" width="2.6" x="38.0" y="66.5"><title>2021-02-28 1.6 km</title></rect><rect fill="#4dd2ff" height="2.6" width="2.6" x="41.5" y="45.5"><title>2021-03-01 2.3 km</title></rect><rect fill="#4dd2ff" height="2.6" width="2.6" x="41.5" y="49.0"><title>2021-03-02 5.1 km</title></rect><rect fill="#4dd2ff" height="2.6" width="2.6" x="41.5" y="52.5"><title>2021-03-03 6.1 km</title></rect><rect fill="#4dd2ff" height="2.6" width="2.6" x="41.5" y="56.0"><title>2021-03-04 2.6 km</title></rect><rect fill="#4dd2ff" height="2.6" width="2.6" x="41.5" y="59.5"><title>2021-03-05 6.1 km</title></rect><rect fill="#4dd2ff" height="2.6" width="2.6" x="41.5" y="63.0"><title>2021-03-06 3.3 km</title></rect><rect fill="#ff7b00" height="2.6" width="2.6" x="41.5" y="66.5"><title>2021-03-07 10.2 km</title></rect><rect fill="#4dd2ff" height="2.6" width="2.6" x="45.0" y="45.5"><title>2021-03-08 3.1 km</title></rect><rect fill="#4dd2ff" height="2.6" width="2.6" x="45.0" y="49.0"><title>2021-03-09 4.5 km</title></rect><rect fill="#4dd2ff" height="2.6" width="2.6" x="45.0" y="52.5"><title>2021-03-10 6.1 km</title></rect><rect fill="#4dd2ff" height="2.6" width="2.6" x="45.0" y="56.0"><title>2021-03-11 2.6 km</title></rect><rect fill="#4dd2ff" height="2.6" width="2.6" x="45.0" y="59.5"><title>2021-03-12 5.0 km</title></rect><rect fill="#4dd2ff" height="2.6" width="2.6" x="45.0" y="63.0"><title>2021-03-13 4.9 km</title></rect><rect fill="#4dd2ff" height="2.6" width="2.6" x="45.0" y="66.5"><title>2021-03-14 4.2 km</title></rect><rect fill="#4dd2ff" height="2.6" width="2.6" x="48.5" y="45.5"><title>2021-03-15 6.2 km</title></rect><rect fill="#4dd2ff" height="2.6" width="2.6" x="48.5" y="49.0"><title>2021-03-16 3.3 km</title></rect><rect fill="#4dd2ff" height="2.6" width="2.6" x="48.5" y="52.5"><title>2021-03-17 4.3 km</title></rect><rect fill="#4dd2ff" height="2.6" width="2.6" x="48.5" y="56.0"><title>2021-03-18 3.1 km</title></rect><rect fill="#4dd2ff" height="2.6" width="2.6" x="48.5" y="59.5"><title>2021-03-19 5.2 km</title></rect><rect fill="#4dd2ff" height="2.6" width="2.6" x="48.5" y="63.0"><title>2021-03-20 1.6 km</title></rect><rect fill="#4dd2ff" height="2.6" width="2.6" x="48.5" y="66.5"><title>2021-03-21 5.1 km</title></rect><rect fill="#4dd2ff" height="2.6" width="2.6" x="52.0" y="45.5"><title>2021-03-22 3.1 km</title></rect><rect fill="#4dd2ff" height="2.6" width="2.6" x="52.0" y="49.0"><title>2021-03-23 2.7 km</title></rect><rect fill="#4dd2ff" height="2.6" width="2.6" x="52.0" y="52.5"><title>2021-03-24 6.4 km</title></rect><rect fill="#4dd2ff" height="2.6" width="2.6" x="52.0" y="56.0"><title>2021-03-25 2.1 km</title></rect><rect fill="#4dd2ff" height="2.6" width="2.6" x="52.0" y="59.5"><title>2021-03-26 4.1 km</title></rect><rect fill="#4dd2ff" height="2.6" width="2.6" x="52.0" y="63.0"><title>2021-03-27 3.1 km</title></rect><rect fill="#4dd2ff" height="2.6" width="2.6" x="52.0" y="66.5"><title>2021-03-28 7.2 km</title></rect><rect fill="#4dd2ff" height="2.6" width="2.6" x="55.5" y="45.5"><title>2021-03-29 1.1 km</title></rect><rect fill="#4dd2ff" height="2.6" width="2.6" x="55.5" y="49.0"><title>2021-03-30 4.6 km</title></rect><rect fill="#ff7b00" height="2.6" width="2.6" x="55.5" y="52.5"><title>2021-03-31 10.2 km</title></rect><rect fill="#4dd2ff" height="2.6" width="2.6" x="55.5" y="56.0"><title>2021-04-01 4.0 km</title></rect><rect fill="#4dd2ff" height="2.6" width="2.6" x="55.5" y="59.5"><title>2021-04-02 3.1 km</title></rect><rect fill="#4dd2ff" height="2.6" width="2.6" x="55.5" y="63.0"><title>2021-04-03 1.4 km</title></rect><rect fill="#4dd2ff" height="2.6" width="2.6" x="55.5" y="66.5"><title>2021-04-04 6.4 km</title></rect><rect fill="#4dd2ff" height="2.6" width="2.6" x="59.0" y="45.5"><title>2021-04-05 4.1 km</title></rect><rect fill="#4dd2ff" height="2.6" width="2.6" x="59.0" y="49.0"><title>2021-04-06 3.1 km</title></rect><rect fill="#4dd2ff" height="2.6" width="2.6" x="59.0" y="52.5"><title>2021-04-07 5.1 km</title></rect><rect fill="#ff7900" height="2.6" width="2.6" x="59.0" y="56.0"><title>2021-04-08 10.3 km</title></rect><rect fill="#4dd2ff" height="2.6" width="2.6" x="59.0" y="59.5"><title>2021-04-09 3.1 km</title></rect><rect fill="#4dd2ff" height="2.6" width="2.6" x="59.0" y="63.0"><title>2021-04-10 4.1 km</title></rect><rect fill="#4dd2ff" height="2.6" width="2.6" x="59.0" y="66.5"><title>2021-04-11 1.1 km</title></rect><rect fill="#4dd2ff" height="2.6" width="2.6" x="62.5" y="45.5"><title>2021-04-12 4.3 km</title></rect><rect fill="#4dd2ff" height="2.6" width="2.6" x="62.5" y="49.0"><title>2021-04-13 4.5 km</title></rect><rect fill="#4dd2ff" height="2.6" width="2.6" x="62.5" y="52.5"><title>2021-04-14 6.1 km</title></rect><rect fill="#4dd2ff" height="2.6" width="2.6" x="62.5" y="56.0"><title>2021-04-15 5.2 km</title></rect><rect fill="#4dd2ff" height="2.6" width="2.6" x="62.5" y="59.5"><title>2021-04-16 5.1 km</title></rect><rect fill="#4dd2ff" height="2.6" width="2.6" x="62.5" y="63.0"><title>2021-04-17 5.9 km</title></rect><rect fill="#ff1300" height="2.6" width="2.6" x="62.5" y="66.5"><title>2021-04-18 17.8 km</title></rect><rect fill="#4dd2ff" height="2.6" width="2.6" x="66.0" y="45.5"><title>2021-04-19 2.5 km</title></rect><rect fill="#4dd2ff" height="2.6" width="2.6" x="66.0" y="49.0"><title>2021-04-20 6.1 km</title></rect><rect fill="#4dd2ff" height="2.6" width="2.6" x="66.0" y="52.5"><title>2021-04-21 7.8 km</title></rect><rect fill="#4dd2ff" height="2.6" width="2.6" x="66.0" y="56.0"><title>2021-04-22 6.1 km</title></rect><rect fill="#4dd2ff" height="2.6" width="2.6" x="66.0" y="59.5"><title>2021-04-23 3.2 km</title></rect><rect fill="#4dd2ff" height="2.6" width="2.6" x="66.0" y="63.0"><title>2021-04-24 3.2 km</title></rect><rect fill="#4dd2ff" height="2.6" width="2.6" x="66.0" y="66.5"><title>2021-04-25 4.1 km</title></rect><rect fill="#4dd2ff" height="2.6" width="2.6" x="69.5" y="45.5"><title>2021-04-26 4.2 km</title></rect><rect fill="#4dd2ff" height="2.6" width="2.6" x="69.5" y="49.0"><title>2021-04-27 5.0 km</title></rect><rect fill="#4dd2ff" height="2.6" width="2.6" x="69.5" y="52.5"><title>2021-04-28 1.7 km</title></rect><rect fill="#4dd2ff" height="2.6" width="2.6" x="69.5" y="56.0"><title>2021-04-29 5.5 km</title></rect><rect fill="#ff7500" height="2.6" width="2.6" x="69.5" y="59.5"><title>2021-04-30 10.6 km</title></rect><rect fill="#4dd2ff" height="2.6" width="2.6" x="69.5" y="63.0"><title>2021-05-01 4.0 km</title></rect><rect fill="#4dd2ff" height="2.6" width="2.6" x="69.5" y="66.5"><title>2021-05-02 5.7 km</title></rect><rect fill="#4dd2ff" height="2.6" width="2.6" x="73.0" y="45.5"><title>2021-05-03 9.4 km</title></rect><rect fill="#4dd2ff" height="2.6" width="2.6" x="73.0" y="49.0"><title>2021-05-04 2.1 km</title></rect><rect fill="#4dd2ff" height="2.6" width="2.6" x="73.0" y="52.5"><title>2021-05-05 2.4 km</title></rect><rect fill="#4dd2ff" height="2.6" width="2.6" x="73.0" y="56.0"><title>2021-05-06 6.3 km</title></rect><rect fill="#4dd2ff" height="2.6" width="2.6" x="73.0" y="59.5"><title>2021-05-07 3.3 km</title></rect><rect fill="#4dd2ff" height="2.6" width="2.6" x="73.0" y="63.0"><title>2021-05-08 3.0 km</title></rect><rect fill="#4dd2ff" height="2.6" width="2.6" x="73.0" y="66.5"><title>2021-05-09 1.5 km</title></rect><rect fill="#444444" height="2.6" width="2.6" x="76.5" y="45.5"><title>2021-05-10</title></rect><rect fill="#4dd2ff" height="2.6" width="2.6" x="76.5" y="49.0"><title>2021-05-11 5.1 km</title></rect><rect fill="#4dd2ff" height="2.6" width="2.6" x="76.5" y="52.5"><title>2021-05-12 2.2 km</title></rect><rect fill="#4dd2ff" height="2.6" width="2.6" x="76.5" y="56.0"><title>2021-05-13 5.5 km</title></rect><rect fill="#4dd2ff" height="2.6" width="2.6" x="76.5" y="59.5"><title>2021-05-14 3.1 km</title></rect><rect fill="#4dd2ff" height="2.6" width="2.6" x="76.5" y="63.0"><title>2021-05-15 2.6 km</title></rect><rect fill="#4dd2ff" height="2.6" width="2.6" x="76.5" y="66.5"><title>2021-05-16 2.2 km</title></rect><rect fill="#4dd2ff" height="2.6" width="2.6" x="80.0" y="45.5"><title>2021-05-17 4.2 km</title></rect><rect fill="#4dd2ff" height="2.6" width="2.6" x="80.0" y="49.0"><title>2021-05-18 5.7 km</title></rect><rect fill="#4dd2ff" height="2.6" width="2.6" x="80.0" y="52.5"><title>2021-05-19 3.7 km</title></rect><rect fill="#4dd2ff" height="2.6" width="2.6" x="80.0" y="56.0"><title>2021-05-20 1.0 km</title></rect><rect fill="#4dd2ff" height="2.6" width="2.6" x="80.0" y="59.5"><title>2021-05-21 2.3 km</title></rect><rect fill="#4dd2ff" height="2.6" width="2.6" x="80.0" y="63.0"><title>2021-05-22 6.4 km</title></rect><rect fill="#4dd2ff" height="2.6" width="2.6" x="80.0" y="66.5"><title>2021-05-23 2.5 km</title></rect><rect fill="#4dd2ff" height="2.6" width="2.6" x="83.5" y="45.5"><title>2021-05-24 1.5 km</title></rect><rect fill="#4dd2ff" height="2.6" width="2.6" x="83.5" y="49.0"><title>2021-05-25 1.2 km</title></rect><rect fill="#4dd2ff" height="2.6" width="2.6" x="83.5" y="52.5"><title>2021-05-26 4.3 km</title></rect><rect fill="#4dd2ff" height="2.6" width="2.6" x="83.5" y="56.0"><title>2021-05-27 2.1 km</title></rect><rect fill="#4dd2ff" height="2.6" width="2.6" x="83.5" y="59.5"><title>2021-05-28 6.9 km</title></rect><rect fill="#ff7a00" height="2.6" width="2.6" x="83.5" y="63.0"><title>2021-05-29 10.3 km</title></rect><rect fill="#4dd2ff" height="2.6" width="2.6" x="83.5" y="66.5"><title>2021-05-30 5.2 km</title></rect><rect fill="#4dd2ff" height="2.6" width="2.6" x="87.0" y="45.5"><title>2021-05-31 1.1 km</title></rect><rect fill="#4dd2ff" height="2.6" width="2.6" x="87.0" y="49.0"><title>2021-06-01 3.2 km</title></rect><rect fill="#4dd2ff" height="2.6" width="2.6" x="87.0" y="52.5"><title>2021-06-02 4.3 km</title></rect><rect fill="#4dd2ff" height="2.6" width="2.6" x="87.0" y="56.0"><title>2021-06-03 4.1 km</title></rect><rect fill="#4dd2ff" height="2.6" width="2.6" x="87.0" y="59.5"><title>2021-06-04 3.3 km</title></rect><rect fill="#4dd2ff" height="2.6" width="2.6" x="87.0" y="63.0"><title>2021-06-05 4.3 km</title></rect><rect fill="#4dd2ff" height="2.6" width="2.6" x="87.0" y="66.5"><title>2021-06-06 1.5 km</title></rect><rect fill="#4dd2ff" height="2.6" width="2.6" x="90.5" y="45.5"><title>2021-06-07 5.4 km</title></rect><rect fill="#4dd2ff" height="2.6" width="2.6" x="90.5" y="49.0"><title>2021-06-08 3.4 km</title></rect><rect fill="#4dd2ff" height="2.6" width="2.6" x="90.5" y="52.5"><title>2021-06-09 3.2 km</title></rect><rect fill="#4dd2ff" height="2.6" width="2.6" x="90.5" y="56.0"><title>2021-06-10 2.2 km</title></rect><rect fill="#444444" height="2.6" width="2.6" x="90.5" y="59.5"><title>2021-06-11</title></rect><rect fill="#4dd2ff" height="2.6" width="2.6" x="90.5" y="63.0"><title>2021-06-12 1.1 km</title></rect><rect fill="#4dd2ff" height="2.6" width="2.6" x="90.5" y="66.5"><title>2021-06-13 5.7 km</title></rect><rect fill="#4dd2ff" height="2.6" width="2.6" x="94.0" y="45.5"><title>2021-06-14 2.2 km</title></rect><rect fill="#4dd2ff" height="2.6" width="2.6" x="94.0" y="49.0"><title>2021-06-15 4.0 km</title></rect><rect fill="#4dd2ff" height="2.6" width="2.6" x="94.0" y="52.5"><title>2021-06-16 4.3 km</title></rect><rect fill="#4dd2ff" height="2.6" width="2.6" x="94.0" y="56.0"><title>2021-06-17 4.2 km</title></rect><rect fill="#4dd2ff" height="2.6" width="2.6" x="94.0" y="59.5"><title>2021-06-18 1.6 km</title></rect><rect fill="#4dd2ff" height="2.6" width="2.6" x="94.0" y="63.0"><title>2021-06-19 0.6 km</title></rect><rect fill="#4dd2ff" height="2.6" width="2.6" x="94.0" y="66.5"><title>2021-06-20 6.2 km</title></rect><rect fill="#4dd2ff" height="2.6" width="2.6" x="97.5" y="45.5"><title>2021-06-21 1.0 km</title></rect><rect fill="#4dd2ff" height="2.6" width="2.6" x="97.5" y="49.0"><title>2021-06-22 1.6 km</title></rect><rect fill="#4dd2ff" height="2.6" width="2.6" x="97.5" y="52.5"><title>2021-06-23 4.2 km</title></rect><rect fill="#4dd2ff" height="2.6" width="2.6" x="97.5" y="56.0"><title>2021-06-24 5.7 km</title></rect><rect fill="#4dd2ff" height="2.6" width="2.6" x="97.5" y="59.5"><title>2021-06-25 1.5 km</title></rect><rect fill="#4dd2ff" height="2.6" width="2.6" x="97.5" y="63.0"><title>2021-06-26 2.5 km</title></rect><rect fill="#ff7100" height="2.6" width="2.6" x="97.5" y="66.5"><title>2021-06-27 10.9 km</title></rect><rect fill="#444444" height="2.6" width="2.6" x="101.0" y="45.5"><title>2021-06-28</title></rect><rect fill="#4dd2ff" height="2.6" width="2.6" x="101.0" y="49.0"><title>2021-06-29 3.1 km</title></rect><rect fill="#4dd2ff" height="2.6" width="2.6" x="101.0" y="52.5"><title>2021-06-30 1.2 km</title></rect><rect fill="#4dd2ff" height="2.6" width="2.6" x="101.0" y="56.0"><title>2021-07-01 4.3 km</title></rect><rect fill="#4dd2ff" height="2.6" width="2.6" x="101.0" y="59.5"><title>2021-07-02 1.8 km</title></rect><rect fill="#4dd2ff" height="2.6" width="2.6" x="101.0" y="63.0"><title>2021-07-03 5.1 km</title></rect><rect fill="#4dd2ff" height="2.6" width="2.6" x="101.0" y="66.5"><title>2021-07-04 3.2 km</title></rect><rect fill="#4dd2ff" height="2.6" width="2.6" x="104.5" y="45.5"><title>2021-07-05 1.0 km</title></rect><rect fill="#4dd2ff" height="2.6" width="2.6" x="104.5" y="49.0"><title>2021-07-06 2.6 km</title></rect><rect fill="#444444" height="2.6" width="2.6" x="104.5" y="52.5"><title>2021-07-07</title></rect><rect fill="#4dd2ff" height="2.6" width="2.6" x="104.5" y="56.0"><title>2021-07-08 2.5 km</title></rect><rect fill="#4dd2ff" height="2.6" width="2.6" x="104.5" y="59.5"><title>2021-07-09 4.4 km</title></rect><rect fill="#444444" height="2.6" width="2.6" x="104.5" y="63.0"><title>2021-07-10</title></rect><rect fill="#4dd2ff" height="2.6" width="2.6" x="104.5" y="66.5"><title>2021-07-11 5.2 km</title></rect><rect fill="#4dd2ff" height="2.6" width="2.6" x="108.0" y="45.5"><title>2021-07-12 1.1 km</title></rect><rect fill="#4dd2ff" height="2.6" width="2.6" x="108.0" y="49.0"><title>2021-07-13 2.7 km</title></rect><rect fill="#4dd2ff" height="2.6" width="2.6" x="108.0" y="52.5"><title>2021-07-14 3.1 km</title></rect><rect fill="#444444" height="2.6" width="2.6" x="108.0" y="56.0"><title>2021-07-15</title></rect><rect fill="#4dd2ff" height="2.6" width="2.6" x="108.0" y="59.5"><title>2021-07-16 3.0 km</title></rect><rect fill="#444444" height="2.6" width="2.6" x="108.0" y="63.0"><title>2021-07-17</title></rect><rect fill="#4dd2ff" height="2.6" width="2.6" x="108.0" y="66.5"><title>2021-07-18 5.2 km</title></rect><rect fill="#444444" height="2.6" width="2.6" x="111.5" y="45.5"><title>2021-07-19</title></rect><rect fill="#4dd2ff" height="2.6" width="2.6" x="111.5" y="49.0"><title>2021-07-20 2.1 km</title></rect><rect fill="#4dd2ff" height="2.6" width="2.6" x="111.5" y="52.5"><title>2021-07-21 1.3 km</title></rect><rect fill="#444444" height="2.6" width="2.6" x="111.5" y="56.0"><title>2021-07-22</title></rect><rect fill="#444444" height="2.6" width="2.6" x="111.5" y="59.5"><title>2021-07-23</title></rect><rect fill="#4dd2ff" height="2.6" width="2.6" x="111.5" y="63.0"><title>2021-07-24 2.6 km</title></rect><rect fill="#4dd2ff" height="2.6" width="2.6" x="111.5" y="66.5"><title>2021-07-25 1.1 km</title></rect><rect fill="#4dd2ff" height="2.6" width="2.6" x="115.0" y="45.5"><title>2021-07-26 1.7 km</title></rect><rect fill="#4dd2ff" height="2.6" width="2.6" x="115.0" y="49.0"><title>2021-07-27 1.5 km</title></rect><rect fill="#4dd2ff" height="2.6" width="2.6" x="115.0" y="52.5"><title>2021-07-28 1.8 km</title></rect><rect fill="#444444" height="2.6" width="2.6" x="115.0" y="56.0"><title>2021-07-29</title></rect><rect fill="#4dd2ff" height="2.6" width="2.6" x="115.0" y="59.5"><title>2021-07-30 3.1 km</title></rect><rect fill="#4dd2ff" height="2.6" width="2.6" x="115.0" y="63.0"><title>2021-07-31 2.1 km</title></rect><rect fill="#4dd2ff" height="2.6" width="2.6" x="115.0" y="66.5"><title>2021-08-01 6.5 km</title></rect><rect fill="#4dd2ff" height="2.6" width="2.6" x="118.5" y="45.5"><title>2021-08-02 1.1 km</title></rect><rect fill="#444444" height="2.6" width="2.6" x="118.5" y="49.0"><title>2021-08-03</title></rect><rect fill="#4dd2ff" height="2.6" width="2.6" x="118.5" y="52.5"><title>2021-08-04 2.3 km</title></rect><rect fill="#444444" height="2.6" width="2.6" x="118.5" y="56.0"><title>2021-08-05</title></rect><rect fill="#444444" height="2.6" width="2.6" x="118.5" y="59.5"><title>2021-08-06</title></rect><rect fill="#4dd2ff" height="2.6" width="2.6" x="118.5" y="63.0"><title>2021-08-07 2.2 km</title></rect><rect fill="#4dd2ff" height="2.6" width="2.6" x="118.5" y="66.5"><title>2021-08-08 3.1 km</title></rect><rect fill="#444444" height="2.6" width="2.6" x="122.0" y="45.5"><title>2021-08-09</title></rect><rect fill="#4dd2ff" height="2.6" width="2.6" x="122.0" y="49.0"><title>2021-08-10 1.2 km</title></rect><rect fill="#444444" height="2.6" width="2.6" x="122.0" y="52.5"><title>2021-08-11</title></rect><rect fill="#4dd2ff" height="2.6" width="2.6" x="122.0" y="56.0"><title>2021-08-12 2.1 km</title></rect><rect fill="#444444" height="2.6" width="2.6" x="122.0" y="59.5"><title>2021-08-13</title></rect><rect fill="#4dd2ff" height="2.6" width="2.6" x="122.0" y="63.0"><title>2021-08-14 3.1 km</title></rect><rect fill="#4dd2ff" height="2.6" width="2.6" x="122.0" y="66.5"><title>2021-08-15 3.9 km</title></rect><rect fill="#4dd2ff" height="2.6" width="2.6" x="125.5" y="45.5"><title>2021-08-16 3.2 km</title></rect><rect fill="#4dd2ff" height="2.6" width="2.6" x="125.5" y="49.0"><title>2021-08-17 3.3 km</title></rect><rect fill="#4dd2ff" height="2.6" width="2.6" x="125.5" y="52.5"><title>2021-08-18 3.3 km</title></rect><rect fill="#4dd2ff" height="2.6" width="2.6" x="125.5" y="56.0"><title>2021-08-19 2.2 km</title></rect><rect fill="#4dd2ff" height="2.6" width="2.6" x="125.5" y="59.5"><title>2021-08-20 3.2 km</title></rect><rect fill="#4dd2ff" height="2.6" width="2.6" x="125.5" y="63.0"><title>2021-08-21 5.3 km</title></rect><rect fill="#4dd2ff" height="2.6" width="2.6" x="125.5" y="66.5"><title>2021-08-22 2.1 km</title></rect><rect fill="#4dd2ff" height="2.6" width="2.6" x="129.0" y="45.5"><title>2021-08-23 3.6 km</title></rect><rect fill="#4dd2ff" height="2.6" width="2.6" x="129.0" y="49.0"><title>2021-08-24 1.1 km</title></rect><rect fill="#4dd2ff" height="2.6" width="2.6" x="129.0" y="52.5"><title>2021-08-25 3.2 km</title></rect><rect fill="#4dd2ff" height="2.6" width="2.6" x="129.0" y="56.0"><title>2021-08-26 5.3 km</title></rect><rect fill="#4dd2ff" height="2.6" width="2.6" x="129.0" y="59.5"><title>2021-08-27 4.2 km</title></rect><rect fill="#4dd2ff" height="2.6" width="2.6" x="129.0" y="63.0"><title>2021-08-28 6.4 km</title></rect><rect fill="#4dd2ff" height="2.6" width="2.6" x="129.0" y="66.5"><title>2021-08-29 3.0 km</title></rect><rect fill="#4dd2ff" height="2.6" width="2.6" x="132.5" y="45.5"><title>2021-08-30 5.1 km</title></rect><rect fill="#4dd2ff" height="2.6" width="2.6" x="132.5" y="49.0"><title>2021-08-31 3.1 km</title></rect><rect fill="#4dd2ff" height="2.6" width="2.6" x="132.5" y="52.5"><title>2021-09-01 4.4 km</title></rect><rect fill="#444444" height="2.6" width="2.6" x="132.5" y="56.0"><title>2021-09-02</title></rect><rect fill="#4dd2ff" height="2.6" width="2.6" x="132.5" y="59.5"><title>2021-09-03 1.5 km</title></rect><rect fill="#4dd2ff" height="2.6" width="2.6" x="132.5" y="63.0"><title>2021-09-04 3.1 km</title></rect><rect fill="#ff6c00" height="2.6" width="2.6" x="132.5" y="66.5"><title>2021-09-05 11.3 km</title></rect><rect fill="#444444" height="2.6" width="2.6" x="136.0" y="45.5"><title>2021-09-06</title></rect><rect fill="#4dd2ff" height="2.6" width="2.6" x="136.0" y="49.0"><title>2021-09-07 1.9 km</title></rect><rect fill="#4dd2ff" height="2.6" width="2.6" x="136.0" y="52.5"><title>2021-09-08 2.0 km</title></rect><rect fill="#4dd2ff" height="2.6" width="2.6" x="136.0" y="56.0"><title>2021-09-09 2.6 km</title></rect><rect fill="#4dd2ff" height="2.6" width="2.6" x="136.0" y="59.5"><title>2021-09-10 4.3 km</title></rect><rect fill="#4dd2ff" height="2.6" width="2.6" x="136.0" y="63.0"><title>2021-09-11 4.2 km</title></rect><rect fill="#ff3600" height="2.6" width="2.6" x="136.0" y="66.5"><title>2021-09-12 15.2 km</title></rect><rect fill="#444444" height="2.6" width="2.6" x="139.5" y="45.5"><title>2021-09-13</title></rect><rect fill="#4dd2ff" height="2.6" width="2.6" x="139.5" y="49.0"><title>2021-09-14 2.2 km</title></rect><rect fill="#4dd2ff" height="2.6" width="2.6" x="139.5" y="52.5"><title>2021-09-15 2.1 km</title></rect><rect fill="#4dd2ff" height="2.6" width="2.6" x="139.5" y="56.0"><title>2021-09-16 3.2 km</title></rect><rect fill="#4dd2ff" height="2.6" width="2.6" x="139.5" y="59.5"><title>2021-09-17 5.4 km</title></rect><rect fill="#4dd2ff" height="2.6" width="2.6" x="139.5" y="63.0"><title>2021-09-18 2.2 km</title></rect><rect fill="#4dd2ff" height="2.6" width="2.6" x="139.5" y="66.5"><title>2021-09-19 2.2 km</title></rect><rect fill="#444444" height="2.6" width="2.6" x="143.0" y="45.5"><title>2021-09-20</title></rect><rect fill="#4dd2ff" height="2.6" width="2.6" x="143.0" y="49.0"><title>2021-09-21 4.5 km</title></rect><rect fill="#4dd2ff" height="2.6" width="2.6" x="143.0" y="52.5"><title>2021-09-22 3.1 km</title></rect><rect fill="#444444" height="2.6" width="2.6" x="143.0" y="56.0"><title>2021-09-23</title></rect><rect fill="#444444" height="2.6" width="2.6" x="143.0" y="59.5"><title>2021-09-24</title></rect><rect fill="#4dd2ff" height="2.6" width="2.6" x="143.0" y="63.0"><title>2021-09-25 8.5 km</title></rect><rect fill="#444444" height="2.6" width="2.6" x="143.0" y="66.5"><title>2021-09-26</title></rect><rect fill="#444444" height="2.6" width="2.6" x="146.5" y="45.5"><title>2021-09-27</title></rect><rect fill="#4dd2ff" height="2.6" width="2.6" x="146.5" y="49.0"><title>2021-09-28 3.2 km</title></rect><rect fill="#444444" height="2.6" width="2.6" x="146.5" y="52.5"><title>2021-09-29</title></rect><rect fill="#ff7800" height="2.6" width="2.6" x="146.5" y="56.0"><title>2021-09-30 10.4 km</title></rect><rect fill="#4dd2ff" height="2.6" width="2.6" x="146.5" y="59.5"><title>2021-10-01 4.1 km</title></rect><rect fill="#4dd2ff" height="2.6" width="2.6" x="146.5" y="63.0"><title>2021-10-02 1.1 km</title></rect><rect fill="#4dd2ff" height="2.6" width="2.6" x="146.5" y="66.5"><title>2021-10-03 2.1 km</title></rect><rect fill="#4dd2ff" height="2.6" width="2.6" x="150.0" y="45.5"><title>2021-10-04 3.2 km</title></rect><rect fill="#4dd2ff" height="2.6" width="2.6" x="150.0" y="49.0"><title>2021-10-05 5.2 km</title></rect><rect fill="#4dd2ff" height="2.6" width="2.6" x="150.0" y="52.5"><title>2021-10-06 5.6 km</title></rect><rect fill="#4dd2ff" height="2.6" width="2.6" x="150.0" y="56.0"><title>2021-10-07 3.2 km</title></rect><rect fill="#4dd2ff" height="2.6" width="2.6" x="150.0" y="59.5"><title>2021-10-08 3.1 km</title></rect><rect fill="#4dd2ff" height="2.6" width="2.6" x="150.0" y="63.0"><title>2021-10-09 4.1 km</title></rect><rect fill="#4dd2ff" height="2.6" width="2.6" x="150.0" y="66.5"><title>2021-10-10 6.8 km</title></rect><rect fill="#444444" height="2.6" width="2.6" x="153.5" y="45.5"><title>2021-10-11</title></rect><rect fill="#4dd2ff" height="2.6" width="2.6" x="153.5" y="49.0"><title>2021-10-12 3.1 km</title></rect><rect fill="#4dd2ff" height="2.6" width="2.6" x="153.5" y="52.5"><title>2021-10-13 3.1 km</title></rect><rect fill="#4dd2ff" height="2.6" width="2.6" x="153.5" y="56.0"><title>2021-10-14 3.1 km</title></rect><rect fill="#4dd2ff" height="2.6" width="2.6" x="153.5" y="59.5"><title>2021-10-15 0.6 km</title></rect><rect fill="#444444" height="2.6" width="2.6" x="153.5" y="63.0"><title>2021-10-16</title></rect><rect fill="#4dd2ff" height="2.6" width="2.6" x="153.5" y="66.5"><title>2021-10-17 8.1 km</title></rect><rect fill="#4dd2ff" height="2.6" width="2.6" x="157.0" y="45.5"><title>2021-10-18 1.1 km</title></rect><rect fill="#4dd2ff" height="2.6" width="2.6" x="157.0" y="49.0"><title>2021-10-19 2.0 km</title></rect><rect fill="#4dd2ff" height="2.6" width="2.6" x="157.0" y="52.5"><title>2021-10-20 3.1 km</title></rect><rect fill="#444444" height="2.6" width="2.6" x="157.0" y="56.0"><title>2021-10-21</title></rect><rect fill="#444444" height="2.6" width="2.6" x="157.0" y="59.5"><title>2021-10-22</title></rect><rect fill="#4dd2ff" height="2.6" width="2.6" x="157.0" y="63.0"><title>2021-10-23 1.6 km</title></rect><rect fill="#4dd2ff" height="2.6" width="2.6" x="157.0" y="66.5"><title>2021-10-24 3.4 km</title></rect><rect fill="#444444" height="2.6" width="2.6" x="160.5" y="45.5"><title>2021-10-25</title></rect><rect fill="#4dd2ff" height="2.6" width="2.6" x="160.5" y="49.0"><title>2021-10-26 2.8 km</title></rect><rect fill="#4dd2ff" height="2.6" width="2.6" x="160.5" y="52.5"><title>2021-10-27 3.2 km</title></rect><rect fill="#444444" height="2.6" width="2.6" x="160.5" y="56.0"><title>2021-10-28</title></rect><rect fill="#4dd2ff" height="2.6" width="2.6" x="160.5" y="59.5"><title>2021-10-29 3.1 km</title></rect><rect fill="#4dd2ff" height="2.6" width="2.6" x="160.5" y="63.0"><title>2021-10-30 4.8 km</title></rect><rect fill="#4dd2ff" height="2.6" width="2.6" x="160.5" y="66.5"><title>2021-10-31 3.1 km</title></rect><rect fill="#4dd2ff" height="2.6" width="2.6" x="164.0" y="45.5"><title>2021-11-01 5.4 km</title></rect><rect fill="#4dd2ff" height="2.6" width="2.6" x="164.0" y="49.0"><title>2021-11-02 3.1 km</title></rect><rect fill="#4dd2ff" height="2.6" width="2.6" x="164.0" y="52.5"><title>2021-11-03 4.4 km</title></rect><rect fill="#4dd2ff" height="2.6" width="2.6" x="164.0" y="56.0"><title>2021-11-04 1.6 km</title></rect><rect fill="#444444" height="2.6" width="2.6" x="164.0" y="59.5"><title>2021-11-05</title></rect><rect fill="#444444" height="2.6" width="2.6" x="164.0" y="63.0"><title>2021-11-06</title></rect><rect fill="#444444" height="2.6" width="2.6" x="164.0" y="66.5"><title>2021-11-07</title></rect><rect fill="#4dd2ff" height="2.6" width="2.6" x="167.5" y="45.5"><title>2021-11-08 1.7 km</title></rect><rect fill="#4dd2ff" height="2.6" width="2.6" x="167.5" y="49.0"><title>2021-11-09 3.1 km</title></rect><rect fill="#4dd2ff" height="2.6" width="2.6" x="167.5" y="52.5"><title>2021-11-10 5.1 km</title></rect><rect fill="#4dd2ff" height="2.6" width="2.6" x="167.5" y="56.0"><title>2021-11-11 1.0 km</title></rect><rect fill="#4dd2ff" height="2.6" width="2.6" x="167.5" y="59.5"><title>2021-11-12 2.1 km</title></rect><rect fill="#4dd2ff" height="2.6" width="2.6" x="167.5" y="63.0"><title>2021-11-13 1.1 km</title></rect><rect fill="#4dd2ff" height="2.6" width="2.6" x="167.5" y="66.5"><title>2021-11-14 5.2 km</title></rect><rect fill="#444444" height="2.6" width="2.6" x="171.0" y="45.5"><title>2021-11-15</title></rect><rect fill="#4dd2ff" height="2.6" width="2.6" x="171.0" y="49.0"><title>2021-11-16 2.1 km</title></rect><rect fill="#4dd2ff" height="2.6" width="2.6" x="171.0" y="52.5"><title>2021-11-17 2.4 km</title></rect><rect fill="#4dd2ff" height="2.6" width="2.6" x="171.0" y="56.0"><title>2021-11-18 1.0 km</title></rect><rect fill="#4dd2ff" height="2.6" width="2.6" x="171.0" y="59.5"><title>2021-11-19 4.2 km</title></rect><rect fill="#4dd2ff" height="2.6" width="2.6" x="171.0" y="63.0"><title>2021-11-20 1.5 km</title></rect><rect fill="#4dd2ff" height="2.6" width="2.6" x="171.0" y="66.5"><title>2021-11-21 5.8 km</title></rect><rect fill="#4dd2ff" height="2.6" width="2.6" x="174.5" y="45.5"><title>2021-11-22 3.1 km</title></rect><rect fill="#4dd2ff" height="2.6" width="2.6" x="174.5" y="49.0"><title>2021-11-23 3.4 km</title></rect><rect fill="#444444" height="2.6" width="2.6" x="174.5" y="52.5"><title>2021-11-24</title></rect><rect fill="#444444" height="2.6" width="2.6" x="174.5" y="56.0"><title>2021-11-25</title></rect><rect fill="#4dd2ff" height="2.6" width="2.6" x="174.5" y="59.5"><title>2021-11-26 2.6 km</title></rect><rect fill="#4dd2ff" height="2.6" width="2.6" x="174.5" y="63.0"><title>2021-11-27 5.2 km</title></rect><rect fill="#4dd2ff" height="2.6" width="2.6" x="174.5" y="66.5"><title>2021-11-28 5.0 km</title></rect><rect fill="#444444" height="2.6" width="2.6" x="178.0" y="45.5"><title>2021-11-29</title></rect><rect fill="#4dd2ff" height="2.6" width="2.6" x="178.0" y="49.0"><title>2021-11-30 1.6 km</title></rect><rect fill="#4dd2ff" height="2.6" width="2.6" x="178.0" y="52.5"><title>2021-12-01 3.6 km</title></rect><rect fill="#4dd2ff" height="2.6" width="2.6" x="178.0" y="56.0"><title>2021-12-02 5.1 km</title></rect><rect fill="#444444" height="2.6" width="2.6" x="178.0" y="59.5"><title>2021-12-03</title></rect><rect fill="#4dd2ff" height="2.6" width="2.6" x="178.0" y="63.0"><title>2021-12-04 1.2 km</title></rect><rect fill="#4dd2ff" height="2.6" width="2.6" x="178.0" y="66.5"><title>2021-12-05 3.1 km</title></rect><rect fill="#4dd2ff" height="2.6" width="2.6" x="181.5" y="45.5"><title>2021-12-06 1.8 km</title></rect><rect fill="#4dd2ff" height="2.6" width="2.6" x="181.5" y="49.0"><title>2021-12-07 2.4 km</title></rect><rect fill="#4dd2ff" height="2.6" width="2.6" x="181.5" y="52.5"><title>2021-12-08 3.2 km</title></rect><rect fill="#444444" height="2.6" width="2.6" x="181.5" y="56.0"><title>2021-12-09</title></rect><rect fill="#4dd2ff" height="2.6" width="2.6" x="181.5" y="59.5"><title>2021-12-10 1.2 km</title></rect><rect fill="#4dd2ff" height="2.6" width="2.6" x="181.5" y="63.0"><title>2021-12-11 5.1 km</title></rect><rect fill="#4dd2ff" height="2.6" width="2.6" x="181.5" y="66.5"><title>2021-12-12 2.1 km</title></rect><rect fill="#444444" height="2.6" width="2.6" x="185.0" y="45.5"><title>2021-12-13</title></rect><rect fill="#4dd2ff" height="2.6" width="2.6" x="185.0" y="49.0"><title>2021-12-14 2.1 km</title></rect><rect fill="#4dd2ff" height="2.6" width="2.6" x="185.0" y="52.5"><title>2021-12-15 2.1 km</title></rect><rect fill="#4dd2ff" height="2.6" width="2.6" x="185.0" y="56.0"><title>2021-12-16 2.6 km</title></rect><rect fill="#444444" height="2.6" width="2.6" x="185.0" y="59.5"><title>2021-12-17</title></rect><rect fill="#4dd2ff" height="2.6" width="2.6" x="185.0" y="63.0"><title>2021-12-18 2.4 km</title></rect><rect fill="#4dd2ff" height="2.6" width="2.6" x="185.0" y="66.5"><title>2021-12-19 4.1 km</title></rect><rect fill="#4dd2ff" height="2.6" width="2.6" x="188.5" y="45.5"><title>2021-12-20 1.5 km</title></rect><rect fill="#4dd2ff" height="2.6" width="2.6" x="188.5" y="49.0"><title>2021-12-21 3.1 km</title></rect><rect fill="#4dd2ff" height="2.6" width="2.6" x="188.5" y="52.5"><title>2021-12-22 2.1 km</title></rect><rect fill="#444444" height="2.6" width="2.6" x="188.5" y="56.0"><title>2021-12-23</title></rect><rect fill="#4dd2ff" height="2.6" width="2.6" x="188.5" y="59.5"><title>2021-12-24 1.0 km</title></rect><rect fill="#4dd2ff" height="2.6" width="2.6" x="188.5" y="63.0"><title>2021-12-25 2.0 km</title></rect><rect fill="#4dd2ff" height="2.6" width="2.6" x="188.5" y="66.5"><title>2021-12-26 3.1 km</title></rect><rect fill="#444444" height="2.6" width="2.6" x="192.0" y="45.5"><title>2021-12-27</title></rect><rect fill="#444444" height="2.6" width="2.6" x="192.0" y="49.0"><title>2021-12-28</title></rect><rect fill="#4dd2ff" height="2.6" width="2.6" x="192.0" y="52.5"><title>2021-12-29 1.4 km</title></rect><rect fill="#4dd2ff" height="2.6" width="2.6" x="192.0" y="56.0"><title>2021-12-30 5.4 km</title></rect><rect fill="#444444" height="2.6" width="2.6" x="192.0" y="59.5"><title>2021-12-31</title></rect></svg>