<?xml version="1.0" encoding="utf-8" ?>
<svg baseProfile="full" height="200mm" version="1.1" viewBox="0,0,200,200" width="200mm" xmlns="http://www.w3.org/2000/svg" xmlns:ev="http://www.w3.org/2001/xml-events" xmlns:xlink="http://www.w3.org/1999/xlink"><defs /><rect fill="#1a1a1a" height="200" width="200" x="0" y="0" /><text alignment-baseline="middle" fill="#e1ed5e" style="dominant-baseline: central; font-size:9.0px; font-family:Arial;" text-anchor="middle" x="100.0" y="100.0">2021</text><line stroke="#e1ed5e" stroke-width="0.3" x1="100.0" x2="100.0" y1="15.0" y2="10.0" /><path d="M 100.0 14.0 a86.0,86.0 0 0,1 42.46469731375804,11.215312516191453" fill="none" id="id109" stroke="none" /><text fill="#e1ed5e" style="font-size:6.75px; font-family:Arial;" text-anchor="middle"><textPath startOffset="22.20632615414155" xlink:href="#id109">January</textPath></text><path d="M 100.0 79.0 l 0.0 -16.7583728686176 a37.7583728686176,37.7583728686176 0 0,0 0.6499483200523201,0.005594310386698126 l -0.2884678407797917 16.75588993483946" fill="#ffbf11" stroke="none" /><path d="M 100.36148047927253 79.00311137660856 l 0.3129129249387166 -18.175802596533728 a39.17849593686881,39.17849593686881 0 0,0 0.6741935668909754,0.017412430768024515 l -0.6257331270245597 18.167723373623346" fill="#ffd213" stroke="none" /><path d="M 100.72285384407766 79.0124445844662 l 1.1710397518489868 -34.00031954880644 a55.02048006012495,55.02048006012495 0 0,0 0.9462452752406719,0.04074731203167391 l -1.7561258594789904 33.975124510250566" fill="#6eff28" stroke="none" /><path d="M 101.08401301168833 79.027996857942 l 0.43294665323478326 -8.37606050303937 a29.38724223777538,29.38724223777538 0 0,0 0.5049539180634708,0.03046019930692412 l -0.5770626201378659 8.367367034352142" fill="#ff4b07" stroke="none" /><path d="M 101.44485096284872 79.0497635885617 l 0.9463799822889819 -13.72244257284198 a34.75503781295505,34.75503781295505 0 0,0 0.5964788855653239,0.04629824144987709 l -1.182449057216647 13.704119069203639" fill="#ff970d" stroke="none" /><path d="M 101.80526077348638 79.07773832637324 l 0.8796360447632738 -10.194635465628021 a31.2325144440791,31.2325144440791 0 0,0 0.5352284364864324,0.05082638926420165 l -1.0549896083399504 10.177983531848641" fill="#ff6609" stroke="none" /><path d="M 102.16513564639614 79.11191278185805 l 1.0514978368213446 -10.14429676116161 a31.198647188688994,31.198647188688994 0 0,0 0.5336948988395138,0.059966840322788165 l -1.2259594391705837 10.124693967368222" fill="#ff6509" stroke="none" /><path d="M 102.52436894288641 79.15227682838746 l 0.8394009933154621 -6.9322670079311015 a27.982901968152568,27.982901968152568 0 0,0 0.47768848615197623,0.062017675253876185 l -0.9586042079752845 6.916791009513088" fill="#ff3705" stroke="none" /><path d="M 102.88285421437855 79.19881850522331 l 0.740991979946427 -5.346613985599042 a26.397717130912678,26.397717130912678 0 0,0 0.44955440437544003,0.06625263325512283 l -0.8329153647505227 5.33306686818295" fill="#ff1f03" stroke="none" /><path d="M 103.2404852339499 79.25152402106235 l 5.7746464673703235 -36.974435883802755 a58.42265958945934,58.42265958945934 0 0,0 0.9922693512024153,0.16373294504027885 l -6.410245024711614 36.86955667582285" fill="#4aff2c" stroke="none" /><path d="M 103.59715602781102 79.31037775812273 l 0.8901225024429757 -5.1196829334496465 a26.196486448400584,26.196486448400584 0 0,0 0.4435999233815709,0.0810650505786292 l -0.9781175469274475 5.103602401520279" fill="#ff1c02" stroke="none" /><path d="M 103.95276090670814 79.375362276772 l 2.54530892400267 -13.280862589529418 a34.52257034149091,34.52257034149091 0 0,0 0.5826646933599215,0.11687705606315729 l -2.773540026829717 13.235081577389051" fill="#ff940d" stroke="none" /><path d="M 104.307194497241 79.44645832069477 l 3.768078634417564 -17.98092965456058 a39.37150641176194,39.37150641176194 0 0,0 0.6621111404928455,0.14471185021999564 l -4.077032499063938 17.913404306244715" fill="#ffd513" stroke="none" /><path d="M 104.66035177308747 79.52364482259891 l 1.4788026529098088 -6.497468395653631 a27.663629104232232,27.663629104232232 0 0,0 0.46340045007252584,0.1096719146641035 l -1.5904267899448583 6.471050568848659" fill="#ff3204" stroke="none" /><path d="M 105.01212808612495 79.60689891045804 l 1.2856198397748284 -5.23086698997724 a26.386537648550895,26.386537648550895 0 0,0 0.44014140936501517,0.11220184540442676 l -1.3754701378248686 5.207962148403946" fill="#ff1f03" stroke="none" /><path d="M 105.36241919743992 79.69619591428918 l 9.379174867903957 -35.512503217663266 a57.73018929963832,57.73018929963832 0 0,0 0.9586018506808869,0.2620220971857818 l -9.989074607808554 35.34579457965119" fill="#51ff2b" stroke="none" /><path d="M 105.71112130821622 79.79150937346287 l 3.0445542640305248 -10.772988873153732 a32.19493635210672,32.19493635210672 0 0,0 0.5319979930453654,0.1553048025154472 l -3.229542474799317 10.718985741719582" fill="#ff730a" stroke="none" /><path d="M 106.0581310904928 79.89281104454417 l 1.9053608156752104 -6.323971762384975 a27.604772417680493,27.604772417680493 0 0,0 0.4537891057892865,0.14099448410091076 l -2.0139352941752153 6.290237143401544" fill="#ff3104" stroke="none" /><path d="M 106.40334571778207 80.00007090966166 l 5.872265155565407 -18.341175361628334 a40.25830240969515,40.25830240969515 0 0,0 0.658160322124182,0.2169851103523243 l -6.187108299932007 18.237376527016774" fill="#ffe015" stroke="none" /><path d="M 106.74666289553966 80.11325718540242 l 3.3730673574377485 -9.942592963704502 a31.499177979238105,31.499177979238105 0 0,0 0.5119636334060863,0.17861405902592684 l -3.5437129949071084 9.883058051506367" fill="#ff6909" stroke="none" /><path d="M 107.08798089147638 80.2323363322302 l 5.6308091266356195 -15.70375861574265 a37.68274695852318,37.68274695852318 0 0,0 0.6086977991319406,0.22418853643233538 l -5.900289251540136 15.60450681150399" fill="#ffbe11" stroke="none" /><path d="M 107.4271985657038 80.35727306442388 l 12.556009036576631 -33.20690226931206 a56.50143266475645,56.50143266475645 0 0,0 0.9067587623647928,0.35180831245494715 l -13.12575096394109 32.98585125296656" fill="#5eff2a" stroke="none" /><path d="M 107.76421540070413 80.48803036053334 l 6.285577733070391 -15.79605865688046 a38.00070458922448,38.00070458922448 0 0,0 0.6056880377628583,0.24707535852439533 l -6.556549640421637 15.685522412172483" fill="#ffc312" stroke="none" /><path d="M 108.09893153111575 80.62456947434976 l 12.959025943903919 -31.00244839600693 a54.60190708816759,54.60190708816759 0 0,0 0.864052408620105,0.36994214831601535 l -13.49076211031434 30.774786719728123" fill="#73ff27" stroke="none" /><path d="M 108.43124777332544 80.76684994638697 l 1.436560951184922 -3.277046657638798 a24.578091972380104,24.578091972380104 0 0,0 0.38601401078376385,0.1731932346003383 l -1.492757080435466 3.2518330925219283" fill="#ff0400" stroke="none" /><path d="M 108.76106565485865 80.91482961587045 l 5.647839966521686 -12.303296460697739 a34.5376955235098,34.5376955235098 0 0,0 0.5381660241329878,0.2526761643489867 l -5.858784201954272 12.20425531370875" fill="#ff940d" stroke="none" /><path d="M 109.08828744355905 81.06846463323043 l 2.195692223748043 -4.573779740856068 a26.07351214242097,26.07351214242097 0 0,0 0.4029335171508571,0.19771772694487338 l -2.274097007909332 4.535306853776362" fill="#ff1a02" stroke="none" /><path d="M 109.41281617654863 81.2277094730956 l 6.7599486365377395 -13.481589077262502 a36.08145051435014,36.08145051435014 0 0,0 0.5528013474084503,0.28316632106342976 l -6.9910104715349455 13.363230230886572" fill="#ffa90f" stroke="none" /><path d="M 109.73455568895987 81.39251694778311 l 15.465669228981787 -29.56243584859699 a54.36352106721781,54.36352106721781 0 0,0 0.825432284783091,0.4409173400008217 l -15.97224656029319 29.291839782094414" fill="#75ff27" stroke="none" /><path d="M 110.05341064243156 81.56283822128135 l 4.286634390447277 -7.8613492031576 a29.954107755178732,29.954107755178732 0 0,0 0.4505610034857857,0.2507367106277917 l -4.421319483005097 7.786397094969628" fill="#ff5307" stroke="none" /><path d="M 110.36928655335952 81.73862282372117 l 4.963918253282823 -8.741969182638124 a31.052985109681057,31.052985109681057 0 0,0 0.4625464385244638,0.2679367525001383 l -5.113661424272615 8.655228272747935" fill="#ff6309" stroke="none" /><line stroke="#e1ed5e" stroke-width="0.3" x1="143.23703022742887" x2="145.7803849466894" y1="26.81831364943548" y2="22.513508569990506" /><path d="M 143.74570117128098 25.957352633546492 a86.0,86.0 0 0,1 28.547481713284135,27.462654790039103" fill="none" id="id110" stroke="none" /><text fill="#e1ed5e" style="font-size:6.75px; font-family:Arial;" text-anchor="middle"><textPath startOffset="19.985693538727396" xlink:href="#id110">February</textPath></text><path d="M 110.68208982089419 81.91981866633111 l 6.789224325703996 -11.491235234100353 a34.346986706749966,34.346986706749966 0 0,0 0.5064347616918252,0.3051212773821 l -6.986021153613459 11.37266734725964" fill="#ff910d" stroke="none" /><path d="M 110.99172775467656 82.1063720568725 l 2.7438444829537683 -4.466752944357518 a26.24219080276199,26.24219080276199 0 0,0 0.38286212675042935,0.23974822864727985 l -2.8203257620764606 4.418860374387294" fill="#ff1d02" stroke="none" /><path d="M 111.2981086023043 82.29822771554956 l 9.00193922441102 -14.10415529520456 a37.73206820423693,37.73206820423693 0 0,0 0.5444790881543006,0.3541443446067221 l -9.2433853383496 13.94711202643831" fill="#ffbf11" stroke="none" /><path d="M 111.60114157652 82.49532879139004 l 5.568337248159784 -8.401924247262881 a31.07961858236648,31.07961858236648 0 0,0 0.4433956108053431,0.29938269569112536 l -5.712137553371669 8.304829639273086" fill="#ff6309" stroke="none" /><path d="M 111.90073688211348 82.69761687909136 l 1.8853501146636622 -2.7410949695046525 a24.326882427544742,24.326882427544742 0 0,0 0.34297296941931804,0.2402744830367831 l -1.9322542236666314 2.708235643703934" fill="#ff0000" stroke="none" /><path d="M 112.19680574252982 82.90503203632743 l 3.1561934724785927 -4.423701372158025 a26.43421485274085,26.43421485274085 0 0,0 0.3681338067711574,0.26746486661575214 l -3.231872595603539 4.368717270725598" fill="#ff2003" stroke="none" /><path d="M 112.48926042617603 83.11751280151076 l 12.99358664533629 -17.564215391216386 a42.84799661797173,42.84799661797173 0 0,0 0.5891678012946255,0.4437489732056386 l -13.294000600389298 17.3379498285049" fill="#fdff18" stroke="none" /><path d="M 112.77801427241765 83.33499621200491 l 24.88618665803845 -32.45640410812404 a61.89914979566913,61.89914979566913 0 0,0 0.8399639311940716,0.6556051715840794 l -25.441183144391953 32.02322054731674" fill="#30ff3a" stroke="none" /><path d="M 113.06298171725822 83.55741782278167 l 6.9283893511579535 -8.72087351325557 a32.138052515383535,32.138052515383535 0 0,0 0.43018558756334374,0.34784682774056563 l -7.077478337285788 8.600320588250876" fill="#ff720a" stroke="none" /><path d="M 113.34407831869373 83.78471172551755 l 2.4802723428564546 -3.0139459675009177 a24.903283385786086,24.903283385786086 0 0,0 0.3286551093019927,0.27523920242546085 l -2.5317849891175648 2.9708056076816374" fill="#ff0901" stroke="none" /><path d="M 113.6212207817346 84.01681056812373 l 3.5847226094758686 -4.206326396589417 a26.52660998637794,26.52660998637794 0 0,0 0.34498008038849953,0.2991633262227445 l -3.6565964885111324 4.1439980769470015" fill="#ff2103" stroke="none" /><path d="M 113.89432698308785 84.25364557470407 l 11.126208603755641 -12.609263068140201 a37.81624313025506,37.81624313025506 0 0,0 0.4843882805922493,0.4348885809798973 l -11.341607871943882 12.415875478391007" fill="#ffc011" stroke="none" /><path d="M 114.16331599549186 84.49514656593476 l 42.48994798647556 -46.51456030219571 a84.0,84.0 0 0,0 1.0591684648206128,0.984381655701438 l -43.28432433509102 45.77627406041963" fill="#4dd2ff" stroke="none" /><path d="M 114.68862486808459 84.99185889309783 l 9.73192981184335 -9.943624891392513 a34.91352341584856,34.91352341584856 0 0,0 0.4258854661504902,0.42405657861288454 l -9.901651078161164 9.77463246212951" fill="#ff990e" stroke="none" /><path d="M 114.94478906791727 85.2469230424477 l 4.682312136925555 -4.6222473252324585 a27.5794541782141,27.5794541782141 0 0,0 0.3306063906770996,0.3407189467149398 l -4.761182791305764 4.540964182967405" fill="#ff3104" stroke="none" /><path d="M 115.19652480421416 85.50635884689758 l 12.393589607733304 -11.82034989496368 a38.12663816994692,38.12663816994692 0 0,0 0.44886432661995934,0.4788171674780721 l -12.595221256323725 11.605263310607555" fill="#ffc412" stroke="none" /><path d="M 115.4437574822437 85.77008943001954 l 10.057170642804541 -9.266698146398888 a34.675466203203534,34.675466203203534 0 0,0 0.40067725661005077,0.4424378342513019 l -10.215191540030627 9.092207524878036" fill="#ff960d" stroke="none" /><path d="M 115.68641384162765 86.03803664274999 l 12.827997377900495 -11.417780452906994 a38.1733289492226,38.1733289492226 0 0,0 0.43264585163020236,0.4945889988110068 l -13.022635093108546 11.19527589789304" fill="#ffc512" stroke="none" /><path d="M 115.9244219780498 86.31012108654704 l 7.7745847103758 -6.6836412294358105 a31.25257175066936,31.25257175066936 0 0,0 0.3471853947935003,0.41095799952483564 l -7.888480718656417 6.548824280281869" fill="#ff6609" stroke="none" /><path d="M 116.15771136456269 86.58626213691792 l 12.778271146487185 -10.608209023852886 a37.60777866503828,37.60777866503828 0 0,0 0.4092111492675194,0.501644483331045 l -12.958980787831115 10.38668037091374" fill="#ffbd11" stroke="none" /><path d="M 116.38621287248628 86.86637796730983 l 15.984171198833444 -12.811383854519512 a41.484757386443704,41.484757386443704 0 0,0 0.4418046050965497,0.5610469825125183 l -16.20232988452396 12.534344478053956" fill="#fff016" stroke="none" /><path d="M 116.60985879189232 87.15038557335679 l 8.011701034071347 -6.197961733401767 a31.129268636384985,31.129268636384985 0 0,0 0.32422476257163324,0.42664178234479316 l -8.117201736867093 6.05913517517594" fill="#ff6409" stroke="none" /><path d="M 116.82858285166822 87.43820079747576 l 2.813590863671585 -2.1002222099762613 a24.511015078209404,24.511015078209404 0 0,0 0.24947239654550427,0.3402800685253496 l -2.8493258727307156 2.051479697779418" fill="#ff0300" stroke="none" /><path d="M 117.04232023915458 87.72973835380427 l 18.938223996951145 -13.635289109458776 a44.3361830053079,44.3361830053079 0 0,0 0.4405905656796817,0.6231841095050862 l -19.170127182434708 13.307278499621898" fill="#eaff1a" stroke="none" /><path d="M 117.2510076193507 88.02491185347247 l 5.536139980995067 -3.843008230404251 a27.73925501432665,27.73925501432665 0 0,0 0.2689063648329912,0.394586909089807 l -5.6014708114967915 3.7471432980440373" fill="#ff3304" stroke="none" /><path d="M 117.45458315368197 88.32363383020206 l 20.770207855334924 -13.89437663485796 a45.98910235332801,45.98910235332801 0 0,0 0.4344948877985262,0.6617655230979794 l -21.006299378491374 13.534793047782307" fill="#d6ff1c" stroke="none" /><path d="M 117.65298651832404 88.62581576622439 l 4.558703346747434 -2.9372668289987183 a26.42303537037907,26.42303537037907 0 0,0 0.24305720271305997,0.3844581243785741 l -4.60858814570645 2.8583610569059377" fill="#ff2003" stroke="none" /><line stroke="#e1ed5e" stroke-width="0.3" x1="172.23445277983987" x2="176.4835382374775" y1="55.19839476539836" y2="52.563006222186495" /><path d="M 173.08426987136738 54.67131705675599 a86.0,86.0 0 0,1 12.851231095245387,41.99856678651699" fill="none" id="id111" stroke="none" /><text fill="#e1ed5e" style="font-size:6.75px; font-family:Arial;" text-anchor="middle"><textPath startOffset="22.20632615414155" xlink:href="#id111">March</textPath></text><path d="M 117.84615892207809 88.93136811851018 l 6.493602129271339 -4.027493639813078 a28.641176194278735,28.641176194278735 0 0,0 0.2562487869240794,0.4212056296213062 l -6.561966714481642 3.91512023698469" fill="#ff4006" stroke="none" /><path d="M 118.03404312379186 89.2402003453031 l 14.396569255899418 -8.589543667225977 a37.76429141810325,37.76429141810325 0 0,0 0.32826219280276153,0.5611064952531106 l -14.542291123172507 8.340457759618971" fill="#ffbf11" stroke="none" /><path d="M 118.21658344932153 89.55222093294921 l 17.33095406935781 -9.939842981072236 a40.9790502137254,40.9790502137254 0 0,0 0.34567264821214977,0.6149130699788087 l -17.49948435886239 9.640046401158632" fill="#ffe915" stroke="none" /><path d="M 118.3937258080291 89.86733742301442 l 7.366187937306592 -4.057856337882792 a29.4099300108037,29.4099300108037 0 0,0 0.24044984692413346,0.4455170483475278 l -7.43494588344919 3.9304583062028056" fill="#ff4b07" stroke="none" /><path d="M 118.56541770881063 90.18545643968196 l 17.740152378118523 -9.378269910894357 a41.066513222791116,41.066513222791116 0 0,0 0.32499367193491585,0.6277843307701041 l -17.898955483213555 9.071512857863906" fill="#ffeb16" stroke="none" /><path d="M 118.73160827565052 90.50648371742162 l 9.556589851625981 -4.843451775588869 a31.71388980224529,31.71388980224529 0 0,0 0.2425961355728441,0.48905900589800344 l -9.638546000152232 4.678233181191915" fill="#ff6c0a" stroke="none" /><path d="M 118.89224826269711 90.83032412892265 l 30.084367906134375 -14.601962595960023 a54.440791018836016,54.440791018836016 0 0,0 0.4019332651544683,0.8465739621775836 l -30.3312593651306 14.0819462181419" fill="#74ff27" stroke="none" /><path d="M 119.04729006885535 91.15688171328212 l 9.346046881453477 -4.339105341869275 a31.30419465451642,31.30419465451642 0 0,0 0.2227035309863396,0.49069771005670243 l -9.419352729403164 4.17758562297051" fill="#ff6709" stroke="none" /><path d="M 119.196687751892 91.48605970444005 l 13.442821222471984 -5.962037762516213 a35.70562262201137,35.70562262201137 0 0,0 0.24434427055401783,0.563980265085196 l -13.543456202868683 5.7297583528444145" fill="#ffa40f" stroke="none" /><path d="M 119.34039704204932 91.81776055985345 l 18.548212053526292 -7.8470939287647195 a41.13983747475223,41.13983747475223 0 0,0 0.2703050179305863,0.6545650413206135 l -18.680538758343076 7.526654316990803" fill="#ffec16" stroke="none" /><path d="M 119.47837535516314 92.15188598940014 l 7.986905503640566 -3.2180376361750023 a29.610831885011038,29.610831885011038 0 0,0 0.18641633183652695,0.47440923112264766 l -8.041115385358793 3.08007940015657" fill="#ff4e07" stroke="none" /><path d="M 119.61058180528143 92.48833698450437 l 15.432812753303745 -5.911404869836163 a37.52623420545822,37.52623420545822 0 0,0 0.22586399116110847,0.6052032038003391 l -15.532281332966479 5.6448785290064905" fill="#ffbc11" stroke="none" /><path d="M 119.7369772167798 92.82701384747503 l 15.150626223712512 -5.506174066633617 a37.12015594908169,37.12015594908169 0 0,0 0.21308192569148657,0.6024112978505364 l -15.24316123021381 5.244565142356466" fill="#ffb711" stroke="none" /><path d="M 119.85752413597 93.16781622104841 l 12.907841522300942 -4.441074570328572 a34.6504767720419,34.6504767720419 0 0,0 0.18919606851336881,0.5656721635248361 l -12.982374884586081 4.218229303881422" fill="#ff950d" stroke="none" /><path d="M 119.97218684219823 93.5106431181261 l 19.46183550384716 -6.323533680044811 a41.46338484663441,41.46338484663441 0 0,0 0.21471027268952142,0.680690239298788 l -19.567801260304886 5.987593274319604" fill="#fff016" stroke="none" /><path d="M 120.08093135843002 93.85539295169968 l 10.361958035423926 -3.170677656438932 a31.836206491615393,31.836206491615393 0 0,0 0.15583687074629543,0.5254044574982502 l -10.415000803281925 2.991843812194152" fill="#ff6e0a" stroke="none" /><path d="M 120.18372546131832 94.20196356495316 l 13.584756175806431 -3.902397078255183 a35.1341537883414,35.1341537883414 0 0,0 0.16197385198416092,0.5827061251628343 l -13.649916798356955 3.6679796496733967" fill="#ff9c0e" stroke="none" /><path d="M 120.28053869075195 94.5502522615342 l 9.95434773635355 -2.6749133684911746 a31.307482737564,31.307482737564 0 0,0 0.13537306059418996,0.5216476246162527 l -9.998917128818045 2.5031693183260715" fill="#ff6709" stroke="none" /><path d="M 120.37134235888165 94.90015583598534 l 16.611063105607567 -4.158480660960352 a38.123678895204094,38.123678895204094 0 0,0 0.15388750017629277,0.6379630374880636 l -16.68018340604468 3.8719323918128823" fill="#ffc412" stroke="none" /><path d="M 120.45610955862082 95.25157060432595 l 5.12147418607962 -1.18883595654764 a26.257644793085632,26.257644793085632 0 0,0 0.09841066806297907,0.44115572853349205 l -5.141179241144637 1.1005020584641843" fill="#ff1d02" stroke="none" /><path d="M 120.53481517161879 95.60439243477599 l 16.2437471195665 -3.477077204231962 a37.61172436469539,37.61172436469539 0 0,0 0.13006618596263073,0.6342489148195415 l -16.301192601444125 3.196952633249009" fill="#ffbd11" stroke="none" /><path d="M 120.6074358757038 95.95851677861258 l 9.869253935994362 -1.9355355237067233 a31.057259617642913,31.057259617642913 0 0,0 0.0983691019433847,0.5254916760040568 l -9.901108761847606 1.7653657702401038" fill="#ff6309" stroke="none" /><path d="M 120.67395015179393 96.31383870115 l 8.759083989499933 -1.5617429750196807 a29.89722391845554,29.89722391845554 0 0,0 0.0859732237213616,0.507418833068629 l -8.784669074741517 1.410738353635214" fill="#ff5207" stroke="none" /><path d="M 120.73433829027371 96.67025291283417 l 20.857055497496905 -3.34945436007592 a42.12428953919865,42.12428953919865 0 0,0 0.10880925955038459,0.7169170700553584 l -20.91162065048659 2.9899381776284795" fill="#fff817" stroke="none" /><path d="M 120.78858239683441 97.02765380044208 l 6.923993999177379 -0.989990892902374 a27.99441025881911,27.99441025881911 0 0,0 0.0640992023457323,0.477613510497699 l -6.940009200580947 0.8706590403400105" fill="#ff3705" stroke="none" /><path d="M 120.83666639777658 97.38593545837742 l 13.33648439739319 -1.673129007663546 a34.441025881910846,34.441025881910846 0 0,0 0.06873386842405435,0.5888698095912334 l -13.363308618820835 1.44331545974746" fill="#ff920d" stroke="none" /><path d="M 120.87857604477298 97.74499172005257 l 10.099141180127017 -1.0907662923327535 a31.157874958898965,31.157874958898965 0 0,0 0.0530023262459801,0.5337261920936908 l -10.116420632055226 0.9167645695346277" fill="#ff6409" stroke="none" /><path d="M 120.91429891909075 98.10471618934814 l 23.43382568382817 -2.123606945277813 a44.52985109681056,44.52985109681056 0 0,0 0.06260794471782713,0.7639755056662485 l -23.466908112365495 1.7199175224037957" fill="#e8ff1a" stroke="none" /><path d="M 120.94382443527127 98.46500227214037 l 3.4937527288487016 -0.256061280357877 a24.503123678895204,24.503123678895204 0 0,0 0.027209445844645148,0.4209180840308698 l -3.4976427656977624 0.19588413207397198" fill="#ff0300" stroke="none" /><path d="M 120.96714384426684 98.82574320788733 l 15.043409466169383 -0.8425003364018792 a36.06698294894077,36.06698294894077 0 0,0 0.02937980667430397,0.6201612838323886 l -15.055682881077184 0.5834279459464908" fill="#ffa90f" stroke="none" /><path d="M 120.98425023603335 99.18683210126433 l 33.46170943974736 -1.2966862121429947 a54.48682418150218,54.48682418150218 0 0,0 0.028250913801416325,0.9375102927991513 l -33.47907204800442 0.7205057719188445" fill="#74ff27" stroke="none" /><line stroke="#e1ed5e" stroke-width="0.3" x1="184.98032266829074" x2="189.97916517819016" y1="98.17113171792111" y2="98.06355123074" /><path d="M 185.9800911702706 98.14961562048488 a86.0,86.0 0 0,1 -9.607161424134198,41.387399972396054" fill="none" id="id112" stroke="none" /><text fill="#e1ed5e" style="font-size:6.75px; font-family:Arial;" text-anchor="middle"><textPath startOffset="21.466115282336823" xlink:href="#id112">April</textPath></text><path d="M 120.99513854157772 99.54816195383933 l 13.300504257163075 -0.2862412098213569 a34.30358401052187,34.30358401052187 0 0,0 0.007623551543521532,0.5904524684943101 l -13.303460815824312 0.05725248326658403" fill="#ff910d" stroke="none" /><path d="M 120.99980553446 99.90962569577887 l 10.191976641327392 -0.043861967963774236 a31.19207102259383,31.19207102259383 0 0,0 -0.0023107423540887494,0.5369351442792938 l -10.1912216016838 -0.13158265451920426" fill="#ff6509" stroke="none" /><path d="M 120.99824983174949 100.27111621757518 l 4.623645816836443 0.0596976117206042 a25.624031189816336,25.624031189816336 0 0,0 -0.009490576588181204,0.4409898015481602 l -4.621933177563253 -0.13927722905887926" fill="#ff1402" stroke="none" /><path d="M 120.9904718944345 100.63252640178507 l 20.898776000490106 0.6297632398063017 a41.90826248297243,41.90826248297243 0 0,0 -0.02793458527016921,0.7208675212837592 l -20.884839282368734 -0.989408008104067" fill="#fff517" stroke="none" /><path d="M 120.9764740272857 100.99374915477107 l 13.496254258525127 0.6393777736210027 a34.51139085912913,34.51139085912913 0 0,0 -0.03321910215284595,0.5931493842696589 l -13.483248805484752 -0.8715988742260848" fill="#ff930d" stroke="none" /><path d="M 120.95626037817324 101.35467743843564 l 10.274857711840493 0.6641985580530425 a31.29630325520222,31.29630325520222 0 0,0 -0.03937885871842541,0.5372932405639989 l -10.26190229445773 -0.8409649351138115" fill="#ff6609" stroke="none" /><path d="M 120.92983693683757 101.71520430193887 l 16.634217875850414 1.3631774650776634 a37.68998074122786,37.68998074122786 0 0,0 -0.05855480180913401,0.6461473586708558 l -16.608288477764205 -1.6493062122970898" fill="#ffbe11" stroke="none" /><path d="M 120.89721153311464 102.0752229133903 l 33.863449161847285 3.362850852886923 a55.03001550096294,55.03001550096294 0 0,0 -0.10172088333851527,0.9418090465610963 l -33.800545977007715 -3.945256221332811" fill="#6eff28" stroke="none" /><path d="M 120.8583938346157 102.4346265915055 l 10.237324645589489 1.1949176434987034 a31.306825120954485,31.306825120954485 0 0,0 -0.06708380384361015,0.5347239209769407 l -10.21523933249903 -1.370959318763039" fill="#ff6709" stroke="none" /><path d="M 120.81339534386255 102.79330883721812 l 13.239466379190505 1.7768325554797173 a34.35816618911175,34.35816618911175 0 0,0 -0.0837127703997726,0.5854869212011068 l -13.206919557774132 -2.004464948661233" fill="#ff910d" stroke="none" /><path d="M 120.76222939487914 103.15116336523771 l 3.4611842793191827 0.5253172428591577 a24.500822020761895,24.500822020761895 0 0,0 -0.0668735302350659,0.4164215366095249 l -3.4516289947228285 -0.5848180091618875" fill="#ff0300" stroke="none" /><path d="M 120.70491114924044 103.5080841355445 l 13.886914587954086 2.3528941711710933 a35.08483254262765,35.08483254262765 0 0,0 -0.1060122592744539,0.5945730493136269 l -13.844355886340445 -2.5915859712179388" fill="#ff9b0e" stroke="none" /><path d="M 120.64145759157962 103.86396538481128 l 14.629395116145304 2.73854092322299 a35.88350791488563,35.88350791488563 0 0,0 -0.11887705003366096,0.6061515170216393 l -14.580088133135979 -2.9899561673125743" fill="#ffa60f" stroke="none" /><path d="M 120.5718875245553 104.21870165774334 l 19.798191032877558 4.060038789878876 a41.2102024519705,41.2102024519705 0 0,0 -0.14848617061374575,0.69367795551588 l -19.72537082353937 -4.400230564810925" fill="#ffec16" stroke="none" /><path d="M 120.49622156327973 104.57218783832717 l 16.57778378966197 3.698083629487317 a37.98525059890084,37.98525059890084 0 0,0 -0.1478520422352516,0.6369427283020087 l -16.51167118149617 -3.9828950151378906" fill="#ffc212" stroke="none" /><path d="M 120.41448212921028 104.9243191809786 l 16.148559532306724 3.8953063294380526 a37.61172436469539,37.61172436469539 0 0,0 -0.15723256424157359,0.628065935569397 l -16.07911565377009 -4.1727001044048455" fill="#ffbd11" stroke="none" /><path d="M 120.32669344350535 105.2749913415812 l 18.735681801748523 4.86210703956977 a40.35628728451313,40.35628728451313 0 0,0 -0.18028099723162153,0.6708926568759936 l -18.649212728175122 -5.183890629621311" fill="#ffe115" stroke="none" /><path d="M 120.23288151984713 105.62410040840565 l 56.36200881455278 15.666853803376824 a79.49894311616329,79.49894311616329 0 0,0 -0.37783713727458274,1.315300642428448 l -56.0839790403921 -16.634711921309854" fill="#47feff" stroke="none" /><path d="M 120.13307415673323 105.97154293290107 l 7.737112626283688 2.294855711793634 a29.07027103198835,29.07027103198835 0 0,0 -0.14642173291308974,0.47851469506474514 l -7.696464120864466 -2.427697379410436" fill="#ff4606" stroke="none" /><path d="M 120.02730092923936 106.31721596034902 l 19.04862326784684 6.0085114492204355 a40.97378928084927,40.97378928084927 0 0,0 -0.21795665561420477,0.670801610801619 l -18.942374361216388 -6.33551195999985" fill="#ffe915" stroke="none" /><path d="M 119.9155931802556 106.66101706037122 l 24.462062382944428 8.18164005409588 a46.7940250833764,46.7940250833764 0 0,0 -0.2620669717560721,0.76168929075343 l -24.317604580245124 -8.60150204793861" fill="#ccff1d" stroke="none" /><path d="M 119.79798401119884 107.00284435728193 l 18.81687296174537 6.655810640482993 a40.9593217154399,40.9593217154399 0 0,0 -0.2408325008351717,0.6626676088550152 l -18.699516199904973 -6.978726046344139" fill="#ffe915" stroke="none" /><path d="M 119.67450827220406 107.3425965602758 l 9.927360038518296 3.70492612384248 a31.59617642914181,31.59617642914181 0 0,0 -0.1945507788219449,0.5079106924123993 l -9.862114980102845 -3.875260383088023" fill="#ff6b09" stroke="none" /><path d="M 119.54520255179757 107.68017299344265 l 9.679721244357136 3.803589831722032 a31.40020667950585,31.40020667950585 0 0,0 -0.2020040873418478,0.501357578547839 l -9.612814542757896 -3.9696467781126845" fill="#ff6809" stroke="none" /><path d="M 119.41010516605496 108.01547362559984 l 12.490884530741372 5.158156262422743 a34.5140213255672,34.5140213255672 0 0,0 -0.23148885899113644,0.5471712819515528 l -12.400244690557926 -5.37240207004046" fill="#ff930d" stroke="none" /><path d="M 119.26925614724726 108.34839909993367 l 12.647947875252525 5.479719396062435 a34.78397294377378,34.78397294377378 0 0,0 -0.2427572068274399,0.5473534153649233 l -12.551749583693812 -5.6966211479200455" fill="#ff970d" stroke="none" /><path d="M 119.12269723197855 108.67885076344098 l 15.079106236349032 6.843663897606197 a37.559443844238814,37.559443844238814 0 0,0 -0.2722619395462901,0.586427996223503 l -14.959069679962912 -7.10221196110853" fill="#ffbd11" stroke="none" /><path d="M 118.97047184881838 109.00673069616215 l 4.9785347465521275 2.3636903752857314 a26.5111559960543,26.5111559960543 0 0,0 -0.19927141130268863,0.41055812952591747 l -4.937110078634724 -2.4490374607769243" fill="#ff2103" stroke="none" /><path d="M 118.81262510543309 109.33194174019688 l 16.159528602941418 8.015881814821439 a39.038423599041764,39.038423599041764 0 0,0 -0.3037957673334529,0.5994178700608173 l -16.019154165821696 -8.292853896584951" fill="#ffd013" stroke="none" /><path d="M 118.64920377521936 109.65438752849418 l 31.083466295146177 16.091401700537148 a56.0016440415238,56.0016440415238 0 0,0 -0.45053987124275274,0.8522516460077171 l -30.80187391567853 -16.624068361630997" fill="#63ff29" stroke="none" /><line stroke="#e1ed5e" stroke-width="0.3" x1="174.80103733775053" x2="179.2010983576182" y1="140.37084112569926" y2="142.7455964860345" /><path d="M 175.68104954172406 140.8457921977663 a86.0,86.0 0 0,1 -30.038265399797805,32.042727171017184" fill="none" id="id113" stroke="none" /><text fill="#e1ed5e" style="font-size:6.75px; font-family:Arial;" text-anchor="middle"><textPath startOffset="22.206326154141568" xlink:href="#id113">May</textPath></text><path d="M 118.48025628344425 109.97397251340804 l 11.627164861941852 6.275292991784108 a34.21250411010381,34.21250411010381 0 0,0 -0.2841651337399663,0.5158422590807206 l -11.517423318750376 -6.474505769262633" fill="#ff8f0d" stroke="none" /><path d="M 118.30583269289576 110.29060199501025 l 16.432169794787825 9.237324633596966 a39.85058011179483,39.85058011179483 0 0,0 -0.341287965965523,0.5950643359091516 l -16.270729832669925 -9.518808815364432" fill="#ffdb14" stroke="none" /><path d="M 118.12598468904814 110.60418214915192 l 26.65555933392974 15.594209711282799 a51.88200479120673,51.88200479120673 0 0,0 -0.4575971187832234,0.7669590920177777 l -26.38318133944829 -16.050730897186682" fill="#91ff24" stroke="none" /><path d="M 117.94076556474637 110.91462005526583 l 5.983626086941025 3.640257438070011 a28.003945699657102,28.003945699657102 0 0,0 -0.2540829468858556,0.4096626121515397 l -5.920078500387207 -3.7427163815868245" fill="#ff3705" stroke="none" /><path d="M 117.75023020441432 111.22182372390056 l 6.705216370139508 4.239086212955432 a28.93282916059937,28.93282916059937 0 0,0 -0.26975748754228646,0.4186696111937556 l -6.631254019220172 -4.3538774240706415" fill="#ff4406" stroke="none" /><path d="M 117.55443506779139 111.5257021239791 l 17.213609610449385 11.301926611840843 a41.59227770209968,41.59227770209968 0 0,0 -0.39809136461985456,0.595092576361042 l -17.01651514041881 -11.59655610240769" fill="#fff116" stroke="none" /><path d="M 117.35343817320211 111.8261652097733 l 9.073282930429453 6.18333622762866 a31.97989572079478,31.97989572079478 0 0,0 -0.3139193663301961,0.452224260411331 l -8.96550265693712 -6.33860175022701" fill="#ff700a" stroke="none" /><path d="M 117.14729908036423 112.12312394758627 l 8.085947459616543 5.716757072188388 a30.9027197144065,30.9027197144065 0 0,0 -0.3108228035350235,0.43170568877950877 l -7.9863448637059165 -5.855096366419028" fill="#ff6108" stroke="none" /><path d="M 116.93607887273984 112.41649034213515 l 3.972621190795175 2.9124812785245346 a25.925877213584478,25.925877213584478 0 0,0 -0.26696089754686114,0.3576377483903977 l -3.9218990265532216 -2.9804319064242475" fill="#ff1802" stroke="none" /><path d="M 116.498646956653 112.99209946851258 l 13.169313153948256 10.370367150567622 a37.762318568274694,37.762318568274694 0 0,0 -0.40654208702691913,0.5072237622695956 l -12.988853154866483 -10.595518746415468" fill="#ffbf11" stroke="none" /><path d="M 116.27256486870786 113.27417163493432 l 5.662924934189811 4.6194707557588455 a28.30809338155855,28.30809338155855 0 0,0 -0.3112596189137609,0.3749322622215566 l -5.582569315382507 -4.716264275094172" fill="#ff3b05" stroke="none" /><path d="M 116.0416608686014 113.55231037782055 l 13.731121179399397 11.600321038011712 a38.97529240452816,38.97529240452816 0 0,0 -0.43737236175219973,0.5087628673789012 l -13.52940630807642 -11.834961004552142" fill="#ffcf13" stroke="none" /><path d="M 115.80600337817218 113.82643327865902 l 7.658364641168962 6.699218341367272 a31.174972990746397,31.174972990746397 0 0,0 -0.3567918509894273,0.4008594269110647 l -7.541913940531197 -6.830051938019204" fill="#ff6509" stroke="none" /><path d="M 115.56566222782051 114.09645910891815 l 6.349879651206972 5.750530722027865 a29.566771572173423,29.566771572173423 0 0,0 -0.34488032859875495,0.3742994820018033 l -6.2499529146124955 -5.858981458831003" fill="#ff4e07" stroke="none" /><path d="M 115.32070863581623 114.36230785411682 l 5.169272870076945 4.845904331632354 a28.085490159237168,28.085490159237168 0 0,0 -0.33367360933524937,0.34985544537849866 l -5.085092709362731 -4.93416689359336" fill="#ff3805" stroke="none" /><path d="M 115.07121518719521 114.62390073753431 l 9.977391287046528 9.6812617953511 a34.90234393348678,34.90234393348678 0 0,0 -0.422084640449763,0.427569512345036 l -9.809266021541228 -9.8515718016768" fill="#ff990e" stroke="none" /><path d="M 114.81725581225074 114.88116024355365 l 13.322700534211704 13.380159189973988 a39.88181690074687,39.88181690074687 0 0,0 -0.490641395030848,0.48019587136260355 l -13.09040918680506 -13.607505164259162" fill="#ffdb14" stroke="none" /><path d="M 114.55890576462653 115.13401014063108 l 8.38401670842844 8.715201261406838 a33.09324064070647,33.09324064070647 0 0,0 -0.4139242114378752,0.3913911777611284 l -8.232756662599758 -8.858227075913888" fill="#ff800b" stroke="none" /><path d="M 114.29624159901734 115.38237550388516 l 2.2932812748670304 2.4675096221413786 a24.36864108224905,24.36864108224905 0 0,0 -0.3097143468444076,0.28291671258607987 l -2.2504673785557587 -2.5066191013140418" fill="#ff0100" stroke="none" /><path d="M 114.0293411484842 115.62618273729858 l 5.133350138552419 5.71763609356836 a28.68392127389732,28.68392127389732 0 0,0 -0.3702379147578705,0.326691912949608 l -5.034169870887961 -5.805151148290257" fill="#ff4106" stroke="none" /><path d="M 113.75828350139079 115.86535959552629 l 13.820755548228806 15.937399213524671 a42.09535440837992,42.09535440837992 0 0,0 -0.5515183463557096,0.4700158996993355 l -13.544371725296049 -16.17293950344695" fill="#fff817" stroke="none" /><path d="M 113.48314897796784 116.09983520530334 l 5.213855830223302 6.225713280181886 a29.120578702616374,29.120578702616374 0 0,0 -0.38706778047454826,0.3185304318902227 l -5.105917921204063 -6.314538830929288" fill="#ff4706" stroke="none" /><path d="M 113.20401910651253 116.32954008644616 l 3.068471222679302 3.794808492069988 a25.880172859223073,25.880172859223073 0 0,0 -0.3488185245229933,0.2771225321773457 l -3.0026952054389575 -3.8470649382524598" fill="#ff1702" stroke="none" /><path d="M 112.92097659922987 116.55440617244103 l 2.496513868421826 3.1985434131542494 a25.057494480717743,25.057494480717743 0 0,0 -0.34229882392622674,0.26246014181598487 l -2.4410863160021057 -3.2410428967976057" fill="#ff0b01" stroke="none" /><path d="M 112.63410532772338 116.77436683061366 l 8.486632418379768 11.267745649555435 a35.106205082436944,35.106205082436944 0 0,0 -0.4858281346916362,0.35940403953453803 l -8.291419313269568 -11.412159637829742" fill="#ff9c0e" stroke="none" /><path d="M 112.34349029814194 116.9893568818739 l 4.073330538832878 5.606458509752676 a27.929963831086475,27.929963831086475 0 0,0 -0.39138214712656294,0.2792407701342866 l -3.9762210638574307 -5.6757435417311815" fill="#ff3605" stroke="none" /><path d="M 112.04921762599082 117.19931262002967 l 12.945735110117345 18.47902097599412 a43.56249706421157,43.56249706421157 0 0,0 -0.6178471352005369,0.4249608934218946 l -12.625731090293925 -18.69912265878111" fill="#f4ff19" stroke="none" /><path d="M 111.7513745106137 117.40417183066458 l 18.882017374445162 27.9648882432967 a54.742637042604166,54.742637042604166 0 0,0 -0.7854924570776904,0.5205815689565594 l -18.39785021862751 -28.285767833344575" fill="#71ff27" stroke="none" /><path d="M 111.45004920935366 117.60387380957326 l 9.31482936055222 14.321080863732412 a38.08389309032834,38.08389309032834 0 0,0 -0.5526121558820098,0.35270322382311936 l -9.06693540262328 -14.479298516379341" fill="#ffc412" stroke="none" /><path d="M 111.1453310114006 117.79835938074945 l 1.881724588534497 3.0049902015535634 a24.54553995020903,24.54553995020903 0 0,0 -0.36002556445508876,0.2211571069763974 l -1.8297198241470995 -3.036935775358339" fill="#ff0300" stroke="none" /><line stroke="#e1ed5e" stroke-width="0.3" x1="143.8653032363475" x2="146.44561519142675" y1="172.8068346515853" y2="177.08958963109032" /><path d="M 144.38136562736335 173.6633856474863 a86.0,86.0 0 0,1 -40.68145358897372,12.25698825130547" fill="none" id="id114" stroke="none" /><text fill="#e1ed5e" style="font-size:6.75px; font-family:Arial;" text-anchor="middle"><textPath startOffset="21.466115282336833" xlink:href="#id114">June</textPath></text><path d="M 110.8373102113329 117.98757091392108 l 5.354089734889495 8.88662102567761 a31.37488844003946,31.37488844003946 0 0,0 -0.4649939678781183,0.2747266324037519 l -5.200327895982994 -8.97746623037511" fill="#ff6809" stroke="none" /><path d="M 110.5260780823613 118.17145234162733 l 7.037162884755235 12.148443986453158 a35.039456996571005,35.039456996571005 0 0,0 -0.524509357775415,0.2978301021982467 l -6.827004760058621 -12.267777254446033" fill="#ff9b0e" stroke="none" /><path d="M 110.21172684928248 118.3499491758327 l 6.499229225885585 11.678781437976536 a34.36539997181643,34.36539997181643 0 0,0 -0.5193711434316342,0.28320255814939777 l -6.297235270585302 -11.788924647885704" fill="#ff910d" stroke="none" /><path d="M 109.89434966115114 118.52300852407294 l 5.187535008747019 9.711477608601967 a32.01014608483254,32.01014608483254 0 0,0 -0.48824480963941624,0.2554266085285661 l -5.019599296581108 -9.799333636075252" fill="#ff710a" stroke="none" /><path d="M 109.57404056367764 118.69057910512821 l 6.485079443613421 12.660264967306308 a35.224576072149944,35.224576072149944 0 0,0 -0.5420325767260281,0.2717863863821424 l -6.266192959204632 -12.77001919459775" fill="#ff9d0e" stroke="none" /><path d="M 109.2508944713604 118.85261126421891 l 2.1960137642334057 4.475307112856762 a25.985062708440978,25.985062708440978 0 0,0 -0.4032477503762132,0.19358342550601668 l -2.11865334585696 -4.512444814862339" fill="#ff1902" stroke="none" /><path d="M 108.92500713936063 119.00905698771935 l 7.511639951180608 15.998776210889476 a38.67443280567429,38.67443280567429 0 0,0 -0.6050375677241161,0.2777430721234154 l -7.235134387689072 -16.125706353346967" fill="#ffcb13" stroke="none" /><path d="M 108.59647513512805 119.15986991738527 l 4.532912037917975 10.102978677686192 a32.073277279346144,32.073277279346144 0 0,0 -0.5056570953886055,0.2216652107261297 l -4.358334267871616 -10.179508441706776" fill="#ff710a" stroke="none" /><path d="M 108.2653958097858 119.30500536409082 l 4.191129116756904 9.788977072918426 a31.648456949598383,31.648456949598383 0 0,0 -0.5026506502646182,0.2101080125767852 l -4.022007006994825 -9.859670128515186" fill="#ff6b09" stroke="none" /><path d="M 107.93186726928326 119.44442032107085 l 2.7748557220097387 6.802365591521224 a28.346563953215277,28.346563953215277 0 0,0 -0.4533815904055414,0.18040989155201906 l -2.657353055562331 -6.849122327479312" fill="#ff3c05" stroke="none" /><path d="M 107.2578585660854 119.70592522655815 l 1.253792311516437 3.4041911006406456 a24.62774202639861,24.62774202639861 0 0,0 -0.39906375606859357,0.14309006491782902 l -1.1950089948181086 -3.4252687065984344" fill="#ff0500" stroke="none" /><path d="M 106.91757812671514 119.82793768551818 l 6.209432671433639 17.798171819140908 a39.85025130349007,39.85025130349007 0 0,0 -0.6496165319639225,0.22038519798792933 l -5.90214640653249 -17.902420004026958" fill="#ffdb14" stroke="none" /><path d="M 106.57524785965236 119.94407469862006 l 2.24950546813541 6.823211238430622 a28.184461458969423,28.184461458969423 0 0,0 -0.4620623085919155,0.147937759764353 l -2.131721814452554 -6.860921844854682" fill="#ff3a05" stroke="none" /><path d="M 106.2309692047433 120.05430185196036 l 3.928221836939021 12.64293625451848 a34.23913758278923,34.23913758278923 0 0,0 -0.564334398618422,0.17002932499806928 l -3.710012463880353 -12.708680948622275" fill="#ff900d" stroke="none" /><path d="M 105.88484417918355 120.15858648285463 l 3.9675498381239853 13.590877532453968 a35.158156794588756,35.158156794588756 0 0,0 -0.582401282653748,0.1645924199271222 l -3.7330173873656314 -13.65715874571961" fill="#ff9c0e" stroke="none" /><path d="M 105.53697534728816 120.25689768951611 l 3.6236944833161178 13.257203401230601 a34.74352952228851,34.74352952228851 0 0,0 -0.5782474104047964,0.15272039669683563 l -3.394956630099824 -13.31761514723102" fill="#ff970d" stroke="none" /><path d="M 105.18746579009965 120.34920634021253 l 1.2715451946077023 4.987972274508388 a26.147494010991593,26.147494010991593 0 0,0 -0.43709485165500755,0.10742728007189489 l -1.1854970582094835 -5.009120812894313" fill="#ff1b02" stroke="none" /><path d="M 104.48393922423573 120.51570834832081 l 4.380944894739215 20.044470554984873 a41.517638216919536,41.517638216919536 0 0,0 -0.6994902334491478,0.14658497943541773 l -4.0352631998606885 -20.116911515146832" fill="#fff016" stroke="none" /><path d="M 104.13013068566511 120.58985236759428 l 0.6687284735538366 3.3337977881111134 a24.40020667950585,24.40020667950585 0 0,0 -0.41251731344611403,0.07905992492142855 l -0.6112435455360182 -3.3448149113810097" fill="#ff0100" stroke="none" /><path d="M 103.7750983002368 120.6578951692458 l 0.9507641843097231 5.2027219659185295 a26.28888158203767,26.28888158203767 0 0,0 -0.4458482006805809,0.07751642460251013 l -0.8610670121570922 -5.2183169690420455" fill="#ff1e03" stroke="none" /><path d="M 103.41894727170886 120.7198165907248 l 2.2278001105333893 13.501117748439782 a34.683686410822496,34.683686410822496 0 0,0 -0.5898937573235441,0.0921292731160888 l -1.9950704896013283 -13.537465328902975" fill="#ff960d" stroke="none" /><path d="M 103.06178313531738 120.77559828337769 l 2.7132594314678573 18.41070562331607 a39.609563624406974,39.609563624406974 0 0,0 -0.6753834404507751,0.09360199073855237 l -2.3959473998302516 -18.454682179547223" fill="#ffd814" stroke="none" /><path d="M 102.70371172650421 120.8252237178851 l 0.6394893973503151 4.9256396806233615 a25.966978251679272,25.966978251679272 0 0,0 -0.44375411432137635,0.0537324433584302 l -0.5546078599775585 -4.9359176527071424" fill="#ff1902" stroke="none" /><path d="M 102.34483914955558 120.86867818915974 l 0.9295721174878723 8.273037140797838 a29.325097468176054,29.325097468176054 0 0,0 -0.5021118643295085,0.05204594774930294 l -0.7870276565527611 -8.287812457002898" fill="#ff4a06" stroke="none" /><path d="M 101.98527174616119 120.90594882070398 l 3.398993371028665 35.793176220857696 a56.95420170040867,56.95420170040867 0 0,0 -0.9767799700426919,0.08428068589104853 l -2.7823690832444314 -35.84638115902741" fill="#59ff2a" stroke="none" /><path d="M 101.26447882468166 120.96189622390904 l 0.6098966632896271 10.110561215925557 a31.128939828080227,31.128939828080227 0 0,0 -0.5351389855036099,0.02766057297522699 l -0.43576960937253756 -10.119561595662987" fill="#ff6409" stroke="none" /><path d="M 100.90346689309514 120.98055641714683 l 0.17214349542134103 3.9975635467496478 a25.001268260604068,25.001268260604068 0 0,0 -0.43011663832755787,0.014814086693809526 l -0.10330650541913088 -3.9999344318695513" fill="#ff0a01" stroke="none" /><line stroke="#e1ed5e" stroke-width="0.3" x1="102.19456741930631" x2="102.32365962044197" y1="184.97166512339345" y2="189.96999836594603" /><path d="M 102.22038585953345 185.97133177190398 a86.0,86.0 0 0,1 -42.740103519485714,-10.115201625700543" fill="none" id="id115" stroke="none" /><text fill="#e1ed5e" style="font-size:6.75px; font-family:Arial;" text-anchor="middle"><textPath startOffset="22.20632615414155" xlink:href="#id115">July</textPath></text><path d="M 100.54218724476979 120.99299961872073 l 0.36438697773895595 14.10873412927412 a35.113438865141624,35.113438865141624 0 0,0 -0.604352963445316,0.010404484340246762 l -0.12147432440097211 -14.112916090893528" fill="#ff9c0e" stroke="none" /><path d="M 100.18074693466247 120.99922214144158 l 0.04981740634229463 5.787798195559462 a26.788012588660813,26.788012588660813 0 0,0 -0.46112868200949614,0.0 l 0.04981740634229064 -5.787798195559462" fill="#ff2503" stroke="none" /><path d="M 99.81925306533755 120.99922214144158 l -0.14322893455566257 16.640371906905884 a37.64098830381887,37.64098830381887 0 0,0 -0.6478557373942263,-0.011153424045495164 l 0.4296443618425568 -16.635441005581228" fill="#ffbe11" stroke="none" /><path d="M 99.45781275523022 120.99299961872073 l -0.2713100999827362 10.504881626108887 a31.50838461177134,31.50838461177134 0 0,0 -0.5420637196114685,-0.01866977052344931 l 0.4520941712688477 -10.498655057159343" fill="#ff6909" stroke="none" /><path d="M 99.09653310690486 120.98055641714683 l -0.14779811325188266 3.4322083931662672 a24.435389168114988,24.435389168114988 0 0,0 -0.42006985917377626,-0.02171281351037259 l 0.20685604083914785 -3.4291557728936928" fill="#ff0200" stroke="none" /><path d="M 98.73552117531835 120.96189622390904 l -0.5108045418884014 8.467861690338564 a29.48325426276481,29.48325426276481 0 0,0 -0.5063218771703021,-0.03491892107439301 l 0.6564891798376334 -8.457814424747886" fill="#ff4c07" stroke="none" /><path d="M 98.01472825383883 120.90594882070398 l -0.7645535858671973 8.05114874965217 a29.087369063835784,29.087369063835784 0 0,0 -0.4980414174218203,-0.051624029284263205 l 0.903027599894611 -8.036795351912145" fill="#ff4706" stroke="none" /><path d="M 97.65516085044442 120.86867818915974 l -1.622519869984654 14.440156813589748 a35.5310254121847,35.5310254121847 0 0,0 -0.6071957452998711,-0.07352294872060425 l 1.8708430383359143 -14.410088336143795" fill="#ffa10e" stroke="none" /><path d="M 96.93821686468263 120.77559828337769 l -2.5042890291184556 16.992745911457938 a38.17628822396543,38.17628822396543 0 0,0 -0.6492952863878547,-0.10140657030178786 l 2.7964201791148273 -16.947121033809044" fill="#ffc512" stroke="none" /><path d="M 96.58105272829116 120.7198165907248 l -0.5820566753611452 3.5274330372641685 a24.575132697637276,24.575132697637276 0 0,0 -0.4167837517368748,-0.07246319760345715 l 0.64268939857007 -3.516891261139705" fill="#ff0400" stroke="none" /><path d="M 96.22490169976321 120.6578951692458 l -1.6067530507983283 8.792389878741899 a29.937996148245574,29.937996148245574 0 0,0 -0.5061408660692872,-0.09700310160759042 l 1.7578615314393105 -8.76342957878584" fill="#ff5307" stroke="none" /><path d="M 95.86986931433489 120.58985236759428 l -1.9959679273028847 9.950456312740497 a31.14866832636573,31.14866832636573 0 0,0 -0.5247935628082003,-0.10997559355869699 l 2.166952951540472 -9.91462473845526" fill="#ff6409" stroke="none" /><path d="M 95.16358092515715 120.4354850818985 l -2.295646331499226 9.69987208194769 a30.96782375874865,30.96782375874865 0 0,0 -0.5176739432933275,-0.12723166031703434 l 2.4622735595357637 -9.658919163316627" fill="#ff6209" stroke="none" /><path d="M 94.46302465271185 120.25689768951611 l -4.479031336093681 16.386433717430922 a37.98755225703415,37.98755225703415 0 0,0 -0.6292707347723527,-0.17783819526214303 l 4.760433238970648 -16.30690672883026" fill="#ffc212" stroke="none" /><path d="M 93.76903079525671 120.05430185196036 l -2.0285016002790566 6.528708787103821 a27.83658227253511,27.83658227253511 0 0,0 -0.4563591000977982,-0.14611177250592483 l 2.140582045467795 -6.49282416793819" fill="#ff3405" stroke="none" /><path d="M 93.42475214034765 119.94407469862007 l -1.3523800379600306 4.102045896019434 a25.31922589130537,25.31922589130537 0 0,0 -0.41273987434253684,-0.14002377471751973 l 1.4227896452397932 -4.078159134403791" fill="#ff0f01" stroke="none" /><path d="M 92.40401165467489 119.57807347666478 l -3.0990757091163905 7.987628361774533 a29.567757997087696,29.567757997087696 0 0,0 -0.472913654281741,-0.18818210286421577 l 3.2361104394399893 -7.933099414504251" fill="#ff4e07" stroke="none" /><path d="M 92.06813273071674 119.44442032107085 l -1.339302873658551 3.2832077401855115 a24.545868758513787,24.545868758513787 0 0,0 -0.38984513249494956,-0.1629552970002659 l 1.3956194656509628 -3.259667400165273" fill="#ff0300" stroke="none" /><path d="M 91.7346041902142 119.30500536409082 l -2.243033807368554 5.2389239039006394 a26.698905538071305,26.698905538071305 0 0,0 -0.4209264587105376,-0.184521789610343 l 2.3328809407368345 -5.199537560995844" fill="#ff2403" stroke="none" /><path d="M 91.40352486487194 119.15986991738527 l -1.953982957343447 4.355047702110355 a25.773310160176617,25.773310160176617 0 0,0 -0.4032074877443217,-0.1850927815449906 l 2.0286584408551884 -4.32076785023129" fill="#ff1602" stroke="none" /><path d="M 91.07499286063937 119.00905698771935 l -2.50965605423423 5.345227651877366 a26.905068345154774,26.905068345154774 0 0,0 -0.41752480667969677,-0.20043728014697432 l 2.601293528914169 -5.301236095230829" fill="#ff2703" stroke="none" /><path d="M 90.42595943632237 118.69057910512821 l -4.652629636194946 9.082930209433107 a31.20522335478416,31.20522335478416 0 0,0 -0.47596747282047785,-0.2490036861676703 l 4.808288011541919 -9.00149710432072" fill="#ff6509" stroke="none" /><path d="M 90.10565033884886 118.52300852407294 l -3.2315004553517714 6.049625546896478 a27.858612428953922,27.858612428953922 0 0,0 -0.42103276561632086,-0.22958063380152632 l 3.335156032836733 -5.993104261335186" fill="#ff3505" stroke="none" /><line stroke="#e1ed5e" stroke-width="0.3" x1="58.666819895761336" x2="56.23545636021788" y1="174.27360380694188" y2="178.64263932499728" /><path d="M 58.180547188652646 175.14741091055294 a86.0,86.0 0 0,1 -31.652253787137756,-30.449443065178592" fill="none" id="id116" stroke="none" /><text fill="#e1ed5e" style="font-size:6.75px; font-family:Arial;" text-anchor="middle"><textPath startOffset="22.20632615414155" xlink:href="#id116">August</textPath></text><path d="M 89.7882731507175 118.34994917583269 l -10.35914589440812 18.61485363572775 a42.303161256987174,42.303161256987174 0 0,0 -0.633240519250711,-0.3595704933929209 l 10.67803518058004 -18.433779976540198" fill="#fffa17" stroke="none" /><path d="M 89.4739219176387 118.17145234162733 l -1.8388127384236763 3.1743919986148748 a24.668514256188644,24.668514256188644 0 0,0 -0.3656016290723952,-0.21600388670571247 l 1.8931822385244534 -3.1422695396154126" fill="#ff0500" stroke="none" /><path d="M 88.8546689885994 117.79835938074946 l -4.079134958452548 6.514109798879209 a28.685894123725866,28.685894123725866 0 0,0 -0.416243522097833,-0.2656663096834621 l 4.190660282597304 -6.4429290603719425" fill="#ff4106" stroke="none" /><path d="M 87.95078237400918 117.19931262002967 l -4.074702151128906 5.8163175656818265 a28.101601766170326,28.101601766170326 0 0,0 -0.39378730683130386,-0.2809567877226706 l 4.174216785809097 -5.745316516114936" fill="#ff3805" stroke="none" /><path d="M 87.65650970185807 116.9893568818739 l -6.040998892213856 8.31472165682954 a31.27756118183099,31.27756118183099 0 0,0 -0.43284425562347517,-0.320207832465568 l 6.183228118255895 -8.209503875624206" fill="#ff6609" stroke="none" /><path d="M 87.07902340077011 116.55440617244103 l -2.4196358076438442 3.100046938519028 a24.932547324909578,24.932547324909578 0 0,0 -0.3360462241802635,-0.2669754443254413 l 2.472639524541466 -3.057937580188456" fill="#ff0901" stroke="none" /><path d="M 86.51685102203217 116.09983520530335 l -4.419649018331168 5.277374074608571 a27.883601860115554,27.883601860115554 0 0,0 -0.3653210242427615,-0.31133450233004945 l 4.509835519150986 -5.20051518205557" fill="#ff3505" stroke="none" /><path d="M 85.97065885151581 115.62618273729859 l -6.805659377492872 7.580290190035305 a31.187138898022454,31.187138898022454 0 0,0 -0.39637435346295125,-0.3620785739431922 l 6.9351332804226775 -7.462018849505536" fill="#ff6509" stroke="none" /><path d="M 85.70375840098266 115.38237550388516 l -8.742225494380857 9.406401980744908 a33.84160834233642,33.84160834233642 0 0,0 -0.4232846580053602,-0.4002420642403012 l 8.902845986777034 -9.254525279758676" fill="#ff8a0c" stroke="none" /><path d="M 85.44109423537348 115.13401014063109 l -7.198186345524474 7.482528351272299 a31.382779839353656,31.382779839353656 0 0,0 -0.3860829840989039,-0.3778634596373442 l 7.325919281999172 -7.357514788712385" fill="#ff6809" stroke="none" /><path d="M 85.18274418774928 114.88116024355367 l -7.569521120239003 7.602167242338378 a31.728028559349898,31.728028559349898 0 0,0 -0.38369668100727095,-0.3886827121021771 l 7.699258426301807 -7.470744036255537" fill="#ff6d0a" stroke="none" /><path d="M 84.9287848128048 114.62390073753433 l -7.709405485863855 7.480589930562674 a31.742167316454506,31.742167316454506 0 0,0 -0.3771172757375417,-0.3954059559158123 l 7.837029312980355 -7.346776858064362" fill="#ff6d0a" stroke="none" /><path d="M 84.67929136418377 114.36230785411682 l -5.184385598779657 4.860071669926139 a28.106205082436936,28.106205082436936 0 0,0 -0.3278436139310298,-0.3558094930219973 l 5.267275620706416 -4.7701109221027975" fill="#ff3805" stroke="none" /><path d="M 84.43433777217949 114.09645910891817 l -7.738839662423233 7.00839034376875 a31.440650100991125,31.440650100991125 0 0,0 -0.35983247681315694,-0.4042756022574815 l 7.858330988884728 -6.874140571770404" fill="#ff6909" stroke="none" /><path d="M 84.19399662182784 113.82643327865904 l -13.104972785387616 11.463684240763333 a38.41138616186763,38.41138616186763 0 0,0 -0.43104432699111633,-0.5014019333294194 l 13.30035962194951 -11.236405208272384" fill="#ffc812" stroke="none" /><path d="M 83.95833913139862 113.55231037782056 l -5.308790832805032 4.484970832286087 a27.949692329371977,27.949692329371977 0 0,0 -0.30731884574271107,-0.3701853470737464 l 5.38520567844128 -4.392924228098579" fill="#ff3605" stroke="none" /><path d="M 83.72743513129214 113.27417163493432 l -9.183334986187502 7.491207794916591 a32.85123772840434,32.85123772840434 0 0,0 -0.35367030558189433,-0.44125808550888695 l 9.310923203824258 -7.3320218758294455" fill="#ff7c0b" stroke="none" /><path d="M 83.50135304334701 112.99209946851258 l -2.86434304813704 2.255568586388393 a24.645826483160317,24.645826483160317 0 0,0 -0.2595947048619738,-0.33556114975247225 l 2.902744570217082 -2.205929442522668" fill="#ff0500" stroke="none" /><path d="M 83.28015986056508 112.70617746262583 l -8.399319696144019 6.383030324124937 a31.549485649866128,31.549485649866128 0 0,0 -0.3248676577785068,-0.4352133167081965 l 8.507948620617611 -6.237504127907433" fill="#ff6a09" stroke="none" /><path d="M 83.06392112726016 112.41649034213515 l -14.03159186234136 10.287099283882739 a38.39856263798205,38.39856263798205 0 0,0 -0.38621677966061,-0.5364213274744489 l 14.206588434377577 -10.044044350957153" fill="#ffc812" stroke="none" /><path d="M 82.85270091963577 112.12312394758628 l -11.16465913473102 7.893403263601358 a34.67316454507022,34.67316454507022 0 0,0 -0.34035688976851614,-0.49030948472790853 l 11.29887693166167 -7.700052516686437" fill="#ff960d" stroke="none" /><path d="M 82.6465618267979 111.8261652097733 l -17.48603368932972 11.916527503639761 a42.16045845272207,42.16045845272207 0 0,0 -0.4035295820693837,-0.603221973581055 l 17.688566376809835 -11.613768615852885" fill="#fff917" stroke="none" /><path d="M 82.44556493220864 111.52570212397912 l -8.364241526108305 5.491703717644614 a31.005965522100617,31.005965522100617 0 0,0 -0.28908653597744294,-0.44866872360698434 l 8.457532925462793 -5.346913394116181" fill="#ff6209" stroke="none" /><path d="M 82.24976979558568 111.22182372390057 l -14.06883685123237 8.894420259720526 a37.64460519517122,37.64460519517122 0 0,0 -0.3415537340675947,-0.5506933723934683 l 14.21985522496792 -8.650930555961793" fill="#ffbe11" stroke="none" /><path d="M 82.05923443525364 110.91462005526583 l -8.752257546163158 5.324609220128037 a31.244680351355157,31.244680351355157 0 0,0 -0.2755767777984125,-0.46188253073678387 l 8.842615199659802 -5.173164595505142" fill="#ff6609" stroke="none" /><line stroke="#e1ed5e" stroke-width="0.3" x1="26.63291911575756" x2="22.317208475507996" y1="142.92168965132927" y2="145.44649492493687" /><path d="M 25.769776987707644 143.4266507060508 a86.0,86.0 0 0,1 -11.730757126820373,-40.83630448921669" fill="none" id="id117" stroke="none" /><text fill="#e1ed5e" style="font-size:6.75px; font-family:Arial;" text-anchor="middle"><textPath startOffset="21.46611528233685" xlink:href="#id117">September</textPath></text><path d="M 81.87401531095188 110.60418214915194 l -12.58264097560476 7.361178943470828 a35.57771619146038,35.57771619146038 0 0,0 -0.30469434469006657,-0.5312602727298836 l 12.707487316447203 -7.143498824882638" fill="#ffa20f" stroke="none" /><path d="M 81.51974371655577 109.97397251340807 l -4.334832063229492 2.3395506634626053 a25.925877213584478,25.925877213584478 0 0,0 -0.20857675844307985,-0.39454862277058766 l 4.374461329897459 -2.2645870256058918" fill="#ff1802" stroke="none" /><path d="M 81.35079622478065 109.6543875284942 l -9.073335351705747 4.697117191552761 a31.21706045375546,31.21706045375546 0 0,0 -0.2429301687959641,-0.47932426982552945 l 9.15284419028798 -4.540238710024546" fill="#ff6509" stroke="none" /><path d="M 81.18737489456691 109.33194174019688 l -33.288157627021675 16.512482754155506 a58.158626520738416,58.158626520738416 0 0,0 -0.43714999028854273,-0.9006584595444961 l 33.56746087392494 -15.937035338645725" fill="#4dff2c" stroke="none" /><path d="M 80.87730276802145 108.67885076344099 l -5.569706012639782 2.527815333451225 a27.11649208511438,27.11649208511438 0 0,0 -0.18924588885177135,-0.4266995199051759 l 5.612392986222833 -2.4315674770533535" fill="#ff2a04" stroke="none" /><path d="M 80.73074385275274 108.34839909993369 l -6.038406258803556 2.616137591965692 a27.580769411433135,27.580769411433135 0 0,0 -0.18498687188388574,-0.4372543208949369 l 6.082544111879748 -2.5118087454045965" fill="#ff3104" stroke="none" /><path d="M 80.58989483394504 108.01547362559985 l -7.831267946183539 3.2339506221437815 a29.472732397012543,29.472732397012543 0 0,0 -0.18960424273942797,-0.47058218114848266 l 7.885774803180355 -3.0986690731524935" fill="#ff4c07" stroke="none" /><path d="M 80.45479744820244 107.68017299344265 l -13.165706217309147 5.173387232074411 a35.14566207900794,35.14566207900794 0 0,0 -0.21640643591853384,-0.5649689164723164 l 13.252806932821189 -4.945994748768937" fill="#ff9c0e" stroke="none" /><path d="M 80.32549172779594 107.34259656027581 l -12.789185110132362 4.772969433297486 a34.650805580346656,34.650805580346656 0 0,0 -0.20373970599036179,-0.5606041681635956 l 12.869449077127948 -4.552117468127773" fill="#ff950d" stroke="none" /><path d="M 80.20201598880116 107.00284435728193 l -47.18384678022449 16.689635419083363 a71.04856968387432,71.04856968387432 0 0,0 -0.39790301158059943,-1.156492405924309 l 47.464140622748324 -15.874970310069758" fill="#3cffa7" stroke="none" /><path d="M 79.97269907076064 106.31721596034903 l -6.9272567183025116 2.1850661183407762 a28.263704260416176,28.263704260416176 0 0,0 -0.1423592009788787,-0.4652381056472212 l 6.963842691787521 -2.0655010401415073" fill="#ff3b05" stroke="none" /><path d="M 79.86692584326677 105.97154293290107 l -6.775963001220986 2.009775241403364 a28.067734510780216,28.067734510780216 0 0,0 -0.13339840810008902,-0.46437735882344056 l 6.809554046207179 -1.8928404070753275" fill="#ff3805" stroke="none" /><path d="M 79.76711848015287 105.62410040840567 l -10.012689703857829 2.7832106957907783 a31.392315280191646,31.392315280191646 0 0,0 -0.14023683259620343,-0.5218734234727131 l 10.059114612795806 -2.610446339142526" fill="#ff6809" stroke="none" /><path d="M 79.67330655649465 105.27499134158121 l -17.162174788976813 4.453765373407632 a38.730659025787965,38.730659025787965 0 0,0 -0.16191017392191212,-0.6467506610540938 l 17.236296277193784 -4.157686872956146" fill="#ffcc13" stroke="none" /><path d="M 79.58551787078972 104.9243191809786 l -7.037206046263228 1.6974934017321137 a28.239043637559302,28.239043637559302 0 0,0 -0.1099163545522121,-0.4735167786326647 l 7.065382966745996 -1.5761079657508748" fill="#ff3a05" stroke="none" /><path d="M 79.50377843672027 104.57218783832718 l -7.035537371910087 1.5694501695656082 a28.208464465216778,28.208464465216778 0 0,0 -0.10163907523181342,-0.47482392209258784 l 7.061510485866341 -1.4481124280568565" fill="#ff3a05" stroke="none" /><path d="M 79.35854240842038 103.8639653848113 l -14.471029853648641 2.708895832040424 a35.72239184555404,35.72239184555404 0 0,0 -0.10793870717875992,-0.6053775922282587 l 14.51551500316659 -2.459399489078952" fill="#ffa40f" stroke="none" /><path d="M 79.29508885075956 103.50808413554451 l -10.1610225961865 1.7216071063361609 a31.30583869604021,31.30583869604021 0 0,0 -0.08544741677644961,-0.5320811458328891 l 10.18915176732424 -1.5464467308100582" fill="#ff6709" stroke="none" /><path d="M 79.1416061653843 102.43462659150553 l -27.79453563334694 3.2442246554570957 a48.983230776457326,48.983230776457326 0 0,0 -0.09054363256118651,-0.838321586048824 l 27.84626156740918 -2.7653067475234896" fill="#b2ff20" stroke="none" /><path d="M 79.04373962182676 101.35467743843564 l -10.62004358119146 0.6865124394821733 a31.642209591807976,31.642209591807976 0 0,0 -0.03045735818247559,-0.5438365904440765 l 10.630287290261467 -0.5036041327026592" fill="#ff6b09" stroke="none" /><path d="M 79.0095281055655 100.63252640178507 l -34.17627571181613 1.0298671135707747 a55.19178918690404,55.19178918690404 0 0,0 -0.02044182269514395,-0.9498511760433983 l 34.18893959719628 -0.4414261217372474" fill="#6cff28" stroke="none" /><line stroke="#e1ed5e" stroke-width="0.3" x1="15.007084014347285" x2="10.007500721073583" y1="101.09737516637583" y2="101.16192664675087" /><path d="M 14.007167355692545 101.11028546245083 a86.0,86.0 0 0,1 10.666146001902534,-42.60595125391555" fill="none" id="id118" stroke="none" /><text fill="#e1ed5e" style="font-size:6.75px; font-family:Arial;" text-anchor="middle"><textPath startOffset="22.20632615414155" xlink:href="#id118">October</textPath></text><path d="M 79.00175016825051 100.2711162175752 l -13.387629525404481 0.1728526666892879 a34.388745361454276,34.388745361454276 0 0,0 -0.0025475554461621476,-0.5919621668872878 l 13.388621378140146 0.0576189784016753" fill="#ff920d" stroke="none" /><path d="M 79.00019446554 99.90962569577889 l -3.679988468875574 -0.015837117961432008 a24.680022546855184,24.680022546855184 0 0,0 0.005484832836228231,-0.4248063476637236 l 3.6791706289216304 0.07917972368562758" fill="#ff0500" stroke="none" /><path d="M 79.00486145842228 99.54816195383935 l -6.792264433057427 -0.1461768630086166 a27.79383719291653,27.79383719291653 0 0,0 0.014410847219358643,-0.4782258616862018 l 6.788741891382423 0.2630728721198128" fill="#ff3404" stroke="none" /><path d="M 79.01574976396665 99.18683210126434 l -10.592172156344331 -0.4104609065627008 a31.600122128798912,31.600122128798912 0 0,0 0.025741146143072283,-0.5433549109555125 l 10.583537401967758 0.5927269241412223" fill="#ff6b09" stroke="none" /><path d="M 79.03285615573316 98.82574320788736 l -17.23050314976977 -0.9649876733529392 a38.25750387524074,38.25750387524074 0 0,0 0.04248297047699936,-0.657192749871351 l 17.211339588288357 1.261439487477302" fill="#ffc612" stroke="none" /><path d="M 79.05617556472873 98.46500227214037 l -18.268581825739847 -1.3389260247284558 a39.317581849781575,39.317581849781575 0 0,0 0.05527961424209399,-0.6745513118819216 l 18.242827727678257 1.6531912538181557" fill="#ffd413" stroke="none" /><path d="M 79.08570108090925 98.10471618934814 l -10.412777757359013 -0.9436208779355172 a31.455446474705248,31.455446474705248 0 0,0 0.0535085219535847,-0.5388235137889783 l 10.3949921097232 1.1227199224289257" fill="#ff6909" stroke="none" /><path d="M 79.12142395522702 97.74499172005258 l -10.153734666582888 -1.0966627080521556 a31.212785945793605,31.212785945793605 0 0,0 0.06229127813155958,-0.5336736303887117 l 10.133353035447739 1.271280076765729" fill="#ff6509" stroke="none" /><path d="M 79.16333360222342 97.38593545837743 l -13.430118406445784 -1.68487586477982 a34.535393865376484,34.535393865376484 0 0,0 0.07907618624575435,-0.5892094367398608 l 13.399126221142195 1.9158036435843404" fill="#ff940d" stroke="none" /><path d="M 79.21141760316559 97.0276538004421 l -22.105221910122893 -3.160598980762778 a43.33002959274743,43.33002959274743 0 0,0 0.11192374964319904,-0.7374376684059452 l 22.04754226704039 3.540635761560815" fill="#f7ff19" stroke="none" /><path d="M 79.32604984820605 96.31383870115002 l -10.003398962545418 -1.7836040931680062 a31.161163041946548,31.161163041946548 0 0,0 0.09869820008865948,-0.5272497314555559 l 9.971215038546898 1.9555319020861348" fill="#ff6509" stroke="none" /><path d="M 79.3925641242962 95.95851677861259 l -9.893130903047808 -1.9402182199094904 a31.081591432195033,31.081591432195033 0 0,0 0.10748414542326074,-0.5241308653011084 l 9.858267461709554 2.1102247413740014" fill="#ff6309" stroke="none" /><path d="M 79.46518482838121 95.60439243477599 l -10.035749071535184 -2.148215806806911 a31.263093616421628,31.263093616421628 0 0,0 0.1171705212996738,-0.5252524721560411 l 9.997284163233472 2.3206464485129112" fill="#ff6609" stroke="none" /><path d="M 79.71946130924805 94.55025226153421 l -23.00315504559104 -6.1813640208902925 a44.819202404997895,44.819202404997895 0 0,0 0.20662341549846555,-0.7433343613066339 l 22.893344859526213 6.576409685615869" fill="#e4ff1a" stroke="none" /><path d="M 79.81627453868168 94.20196356495316 l -3.4007714420474797 -0.9769156227400552 a24.538306167504345,24.538306167504345 0 0,0 0.12011396042318465,-0.4049645626987219 l 3.383451584512588 1.0353095721853163" fill="#ff0300" stroke="none" /><path d="M 79.91906864156998 93.8553929516997 l -6.393060223761216 -1.956226143596695 a27.68565926065104,27.68565926065104 0 0,0 0.14336493442180212,-0.45450602011830676 l 6.35843980557121 2.065982330141416" fill="#ff3204" stroke="none" /><path d="M 80.02781315780177 93.51064311812611 l -9.715125630240536 -3.1566356686422754 a31.21508760392691,31.21508760392691 0 0,0 0.1704384009436886,-0.5095891250124832 l 9.659349935525075 3.323397896577081" fill="#ff6509" stroke="none" /><path d="M 80.38941819471856 92.48833698450439 l -4.82749412282767 -1.8491296902879755 a26.1695241674104,26.1695241674104 0 0,0 0.16475142340279153,-0.4192744022633142 l 4.7949491495431875 1.931953097447053" fill="#ff1c02" stroke="none" /><path d="M 80.52162464483688 92.15188598940014 l -10.498748856626046 -4.230094989601664 a32.318897083000614,32.318897083000614 0 0,0 0.21234794767671167,-0.5142173985872764 l 10.424379222063134 4.410186958642251" fill="#ff750a" stroke="none" /><path d="M 80.803312248108 91.48605970444005 l -8.503507181937097 -3.7713981383450967 a30.302315749917796,30.302315749917796 0 0,0 0.21557598874679315,-0.4749931155233912 l 8.437328876226953 3.917213262710559" fill="#ff5808" stroke="none" /><path d="M 80.95270993114464 91.15688171328213 l -9.600738439203214 -4.457351431663015 a31.584996946780027,31.584996946780027 0 0,0 0.23319023686340662,-0.49115810975912627 l 9.522590008498057 4.621951957062673" fill="#ff6b09" stroke="none" /><path d="M 81.26839172434947 90.50648371742162 l -9.029546150319455 -4.576336539867858 a31.123021278594578,31.123021278594578 0 0,0 0.246302502288546,-0.47577803790956524 l 8.949434214870795 4.731087300037759" fill="#ff6409" stroke="none" /><path d="M 81.43458229118936 90.18545643968196 l -13.872248013839092 -7.333515708981128 a36.69138991967683,36.69138991967683 0 0,0 0.2999816417916913,-0.5558204229244008 l 13.74395827282893 7.571217115238001" fill="#ffb110" stroke="none" /><path d="M 81.6062741919709 89.86733742301443 l -9.020462618148334 -4.969156600024504 a31.298604913335524,31.298604913335524 0 0,0 0.2640146999335511,-0.4696526916299141 l 8.933590276922352 5.123692801589202" fill="#ff6609" stroke="none" /><line stroke="#e1ed5e" stroke-width="0.3" x1="26.266209847984243" x2="21.928928074336255" y1="57.711370442889674" y2="55.22380399835377" /><path d="M 25.398753493254645 57.213857153982495 a86.0,86.0 0 0,1 29.58750427330803,-30.492523968695096" fill="none" id="id119" stroke="none" /><text fill="#e1ed5e" style="font-size:6.75px; font-family:Arial;" text-anchor="middle"><textPath startOffset="21.46611528233685" xlink:href="#id119">November</textPath></text><path d="M 81.78341655067845 89.55222093294921 l -15.318108164557804 -8.785413042666205 a38.65865000704589,38.65865000704589 0 0,0 0.33603631222971103,-0.5743949853716039 l 15.16461217785777 9.0477874403917" fill="#ffcb12" stroke="none" /><path d="M 81.96595687620814 89.24020034530311 l -8.640482872031425 -5.15524244811444 a31.061534125604773,31.061534125604773 0 0,0 0.27790340681879444,-0.45680013102928424 l 8.550463666926415 5.303210352350799" fill="#ff6309" stroke="none" /><path d="M 82.15384107792192 88.93136811851018 l -12.390627790278366 -7.6849757076565846 a35.580346657898446,35.580346657898446 0 0,0 0.3272924328718177,-0.5176980293554534 l 12.256507761160586 7.897121384726253" fill="#ffa20f" stroke="none" /><path d="M 82.34701348167596 88.62581576622439 l -4.35637685370074 -2.8069036859181935 a26.182347691295973,26.182347691295973 0 0,0 0.2473650417229481,-0.3767539292840799 l 4.307415176619872 2.8814756791799403" fill="#ff1c02" stroke="none" /><path d="M 83.17141714833178 87.43820079747576 l -4.464908895384437 -3.332858713995852 a26.57165672412983,26.57165672412983 0 0,0 0.27675526827014446,-0.3641774921556121 l 4.4068776868901836 3.409220982032491" fill="#ff2203" stroke="none" /><path d="M 83.39014120810768 87.1503855733568 l -8.156299676379463 -6.309825225051816 a31.31208605383062,31.31208605383062 0 0,0 0.3334676320966498,-0.42347002859450456 l 8.046477963688844 6.449287647599369" fill="#ff6709" stroke="none" /><path d="M 83.6137871275137 86.86637796730984 l -13.106250679775433 -10.504717840135148 a37.796514631969565,37.796514631969565 0 0,0 0.4112647898886542,-0.5041620039073536 l 12.923487397810387 10.728764013650585" fill="#ffc011" stroke="none" /><path d="M 83.84228863543731 86.58626213691792 l -2.6359026525025238 -2.188262088331254 a24.425853727276998,24.425853727276998 0 0,0 0.27134725862331865,-0.32118956687884975 l 2.5978447803920806 2.2333106048392195" fill="#ff0200" stroke="none" /><path d="M 84.07557802195018 86.31012108654704 l -5.11241092016117 -4.3950283752397885 a27.741885480764715,27.741885480764715 0 0,0 0.3144187840054138,-0.3594350229007388 l 5.036000272577912 4.482378954343471" fill="#ff3304" stroke="none" /><path d="M 84.31358615837235 86.03803664274999 l -2.6074024041010087 -2.320763508550051 a24.490628963314386,24.490628963314386 0 0,0 0.28299080301243396,-0.312485512796932 l 2.5670679604725297 2.365301808616539" fill="#ff0200" stroke="none" /><path d="M 84.5562425177563 85.77008943001954 l -12.67139179207626 -11.675447002178219 a38.230212785945795,38.230212785945795 0 0,0 0.4500837089861284,-0.4801179195673194 l 12.468540761119677 11.891834338623589" fill="#ffc612" stroke="none" /><path d="M 85.05521093208273 85.24692304244772 l -4.817095334870044 -4.7553015211012175 a27.7688477617549,27.7688477617549 0 0,0 0.3387326031983638,-0.3372779777513632 l 4.734526931504368 4.837515349502691" fill="#ff3304" stroke="none" /><path d="M 85.31137513191541 84.99185889309783 l -5.554893081542065 -5.67572662180795 a28.941706984827846,28.941706984827846 0 0,0 0.3590380775241381,-0.34539434611272113 l 5.4563717604055 5.770504054682985" fill="#ff4506" stroke="none" /><path d="M 85.57189188830299 84.74124197986013 l -2.3684263460477486 -2.504780545244749 a24.44722626708629,24.44722626708629 0 0,0 0.3082587037432266,-0.28649286988215955 l 2.324959758509666 2.545178001201556" fill="#ff0200" stroke="none" /><path d="M 85.83668400450813 84.49514656593479 l -9.31536242044611 -10.197705753383495 a34.81192164967824,34.81192164967824 0 0,0 0.44590592497301773,-0.40033874214492854 l 9.13844550787712 10.356543504297703" fill="#ff980e" stroke="none" /><path d="M 86.10567301691215 84.25364557470407 l -3.311778221359173 -3.7532176776156723 a26.005448823335996,26.005448823335996 0 0,0 0.33820234964890605,-0.29328574491423526 l 3.2466820730634933 3.809668415949588" fill="#ff1902" stroke="none" /><path d="M 86.37877921826538 84.01681056812374 l -12.298703831391933 -14.431343288060758 a39.96105970219362,39.96105970219362 0 0,0 0.5273765005519038,-0.44166265267599547 l 12.048469793880919 14.640907098130565" fill="#ffdc14" stroke="none" /><path d="M 86.65592168130627 83.78471172551755 l -6.5572291473512765 -7.96813075933357 a31.3193198365353,31.3193198365353 0 0,0 0.4192263983486427,-0.33898525888947256 l 6.419099350438133 8.079822115487177" fill="#ff6709" stroke="none" /><path d="M 86.93701828274178 83.55741782278169 l -6.992613070124235 -8.801712926468127 a32.24129832307765,32.24129832307765 0 0,0 0.43751049530810154,-0.3414838812644557 l 6.840070019656708 8.920775196955805" fill="#ff740a" stroke="none" /><path d="M 87.80319425747018 82.90503203632743 l -5.057892183614425 -7.089110597301705 a29.708487951524262,29.708487951524262 0 0,0 0.4188456272619213,-0.2934281285576629 l 4.935115416768843 7.17512356862331" fill="#ff5007" stroke="none" /><path d="M 88.09926311788651 82.69761687909137 l -9.600788625017854 -13.958507334330656 a37.94151909436798,37.94151909436798 0 0,0 0.5412905241789187,-0.3654817781944462 l 9.359093406432395 14.121701024823768" fill="#ffc212" stroke="none" /><path d="M 88.39885842347998 82.49532879139004 l -9.108967802429262 -13.74429278184608 a37.488750058715766,37.488750058715766 0 0,0 0.5409679728534342,-0.3518606175470082 l 8.87103280379154 13.899052323552622" fill="#ffbc11" stroke="none" /><path d="M 89.00827224532344 82.1063720568725 l -2.824560976869928 -4.5981527518532035 a26.396401897693647,26.396401897693647 0 0,0 0.3892060639471612,-0.2344922986717946 l 2.7449928467051175 4.646091659983617" fill="#ff1f03" stroke="none" /><line stroke="#e1ed5e" stroke-width="0.3" x1="56.762969772571076" x2="54.21961505331055" y1="26.818313649435495" y2="22.513508569990535" /><path d="M 56.25429882871897 25.957352633546506 a86.0,86.0 0 0,1 42.265352541879196,-11.944610805530505" fill="none" id="id120" stroke="none" /><text fill="#e1ed5e" style="font-size:6.75px; font-family:Arial;" text-anchor="middle"><textPath startOffset="22.20632615414155" xlink:href="#id120">December</textPath></text><path d="M 89.3179101791058 81.91981866633112 l -6.092271779261144 -10.31159448665021 a32.97684250082202,32.97684250082202 0 0,0 0.4912030517730301,-0.28453651255010237 l 5.913871995022794 10.41493515659036" fill="#ff7e0b" stroke="none" /><path d="M 89.63071344664047 81.73862282372117 l -8.305397993284585 -14.626657733298003 a37.82018882991216,37.82018882991216 0 0,0 0.5688803141959882,-0.3165812789364218 l 8.05239359001655 14.76745440979461" fill="#ffc011" stroke="none" /><path d="M 90.26544431104013 81.39251694778311 l -1.8134833887178754 -3.4664511148993458 a24.91216121001456,24.91216121001456 0 0,0 0.3816774571819142,-0.19551001800144116 l 1.7535454439471976 3.4971536582132923" fill="#ff0901" stroke="none" /><path d="M 90.58718382345135 81.22770947309562 l -4.635149118519028 -9.244031143957647 a31.34102118464935,31.34102118464935 0 0,0 0.48433628074541196,-0.23766170951239987 l 4.475341570763189 9.322448013604877" fill="#ff6709" stroke="none" /><path d="M 90.91171255644093 81.06846463323043 l -2.510033385268423 -5.228574261112128 a26.79984968763211,26.79984968763211 0 0,0 0.41759498817564805,-0.19606644628593078 l 2.4196601857931666 5.271005690038067" fill="#ff2503" stroke="none" /><path d="M 91.23893434514133 80.91482961587045 l -3.2834619993846155 -7.152717965686897 a28.87035558269529,28.87035558269529 0 0,0 0.4534266436854997,-0.20343931795226347 l 3.1598532372323413 7.208177614155689" fill="#ff4406" stroke="none" /><path d="M 91.56875222667455 80.76684994638697 l -4.267570838904156 -9.735075105815964 a31.6293860679224,31.6293860679224 0 0,0 0.50052184388055,-0.21429733238053686 l 4.099365237233298 9.807091966159287" fill="#ff6b09" stroke="none" /><path d="M 92.23578459929587 80.48803036053334 l -1.3992534370191902 -3.5164133363123566 a24.78458358776833,24.78458358776833 0 0,0 0.397753424645269,-0.15432214929215246 l 1.3385168473742448 3.5399781894950606" fill="#ff0701" stroke="none" /><path d="M 92.57280143429618 80.3572730644239 l -5.975995113194413 -15.804726255584029 a37.89680116492085,37.89680116492085 0 0,0 0.6121554643725634,-0.22546202372089366 l 5.70305732304928 15.905251547111245" fill="#ffc112" stroke="none" /><path d="M 92.91201910852362 80.23233633223022 l -2.29185484506676 -6.3917519595896755 a27.790220301564187,27.790220301564187 0 0,0 0.45168106190331864,-0.1575826535079332 l 2.181491779100156 6.430255466269818" fill="#ff3404" stroke="none" /><path d="M 93.59665428221793 80.00007090966166 l -2.0783026192541483 -6.4912792226599585 a27.81586734933534,27.81586734933534 0 0,0 0.45725925141564805,-0.1420726752388228 l 1.9662579951277717 6.526092032781307" fill="#ff3405" stroke="none" /><path d="M 93.94186890950719 79.89281104454417 l -1.9547804893430996 -6.487997713905983 a27.77608154445958,27.77608154445958 0 0,0 0.45897961948759114,-0.13398873697829733 l 1.842810652132087 6.52068477980298" fill="#ff3404" stroke="none" /><path d="M 94.28887869178378 79.79150937346287 l -2.3087892191090043 -8.169524472521989 a29.489501620555217,29.489501620555217 0 0,0 0.48966911718228856,-0.13384506708398422 l 2.167822212702993 8.20805608043227" fill="#ff4d07" stroke="none" /><path d="M 94.98787191387505 79.60689891045804 l -1.8524634548824812 -7.537212507533436 a28.761520033820283,28.761520033820283 0 0,0 0.48179149880240535,-0.11402448170751302 l 1.7224482691175418 7.56798290138182" fill="#ff4206" stroke="none" /><path d="M 95.33964822691252 79.52364482259891 l -2.977015229123385 -13.080218869331736 a34.414721217530186,34.414721217530186 0 0,0 0.5787528187713802,-0.12649294975176467 l 2.751419686198484 13.129525317179368" fill="#ff920d" stroke="none" /><path d="M 95.692805502759 79.44645832069477 l -1.023268074383293 -4.882942488297528 a25.98900840809808,25.98900840809808 0 0,0 0.4386370268795706,-0.08798646110913727 l 0.9390646380365859 4.899832905483875" fill="#ff1902" stroke="none" /><path d="M 96.04723909329186 79.375362276772 l -1.8965726466745627 -9.895899265514261 a31.07600169101414,31.07600169101414 0 0,0 0.5262275151399699,-0.09616471483020295 l 1.7259500104316996 9.9270794616952" fill="#ff6309" stroke="none" /><path d="M 96.40284397218896 79.31037775812273 l -1.1751712233278098 -6.759186560771123 a27.86058527878247,27.86058527878247 0 0,0 0.47319319375326757,-0.07808093144502677 l 1.0586488234356566 6.778413755155777" fill="#ff3505" stroke="none" /><path d="M 97.11714578562143 79.19881850522333 l -0.46957477871483316 -3.3882081683837 a24.420592794400864,24.420592794400864 0 0,0 0.4168772779952308,-0.054122635141772235 l 0.4111827722117446 3.395789126689609" fill="#ff0100" stroke="none" /><path d="M 97.47563105711357 79.15227682838746 l -0.8052115193211248 -6.6499102267538905 a27.698482784536615,27.698482784536615 0 0,0 0.47381987040325785,-0.053239183233755365 l 0.690624945408149 6.662785363458244" fill="#ff3204" stroke="none" /><path d="M 97.83486435360386 79.11191278185805 l -1.0513283333495735 -10.14266148103117 a31.1970031471652,31.1970031471652 0 0,0 0.5346198829881702,-0.050768599776789027 l 0.8765833232711671 10.15925562532314" fill="#ff6509" stroke="none" /><path d="M 98.91598698831166 79.02799685794201 l -0.2316811124609863 -4.482249720342143 a25.48823335995115,25.48823335995115 0 0,0 0.43834805448317227,-0.01887618931567437 l 0.15449222558848993 4.48557363618201" fill="#ff1201" stroke="none" /><path d="M 99.27714615592234 79.0124445844662 l -0.6157165981127795 -17.87690046754121 a38.88750058715769,38.88750058715769 0 0,0 0.6691860445734424,-0.017283101240193055 l 0.307903918344458 17.88485036092376" fill="#ffce13" stroke="none" /><path d="M 99.63851952072746 79.00311137660856 l -0.1469478397819372 -8.535585189990327 a29.536850016440418,29.536850016440418 0 0,0 0.5084283190544708,-0.004376203058650684 l 2.0909252094869575e-15 8.536850016440418" fill="#ff4d07" stroke="none" /></svg>