<?xml version="1.0" encoding="utf-8" ?>
<svg baseProfile="full" height="200mm" version="1.1" viewBox="0,0,200,200" width="200mm" xmlns="http://www.w3.org/2000/svg" xmlns:ev="http://www.w3.org/2001/xml-events" xmlns:xlink="http://www.w3.org/1999/xlink"><defs /><rect fill="#1a1a1a" height="200" width="200" x="0" y="0" /><text alignment-baseline="middle" fill="#e1ed5e" style="dominant-baseline: central; font-size:9.0px; font-family:Arial;" text-anchor="middle" x="100.0" y="100.0">2020</text><line stroke="#e1ed5e" stroke-width="0.3" x1="100.0" x2="100.0" y1="15.0" y2="10.0" /><path d="M 100.0 14.0 a86.0,86.0 0 0,1 42.35913384403234,11.155469271406648" fill="none" id="id1" stroke="none" /><text fill="#e1ed5e" style="font-size:6.75px; font-family:Arial;" text-anchor="middle"><textPath startOffset="22.145653131862478" xlink:href="#id1">January</textPath></text><line stroke="#e1ed5e" stroke-width="0.3" x1="143.13028292997686" x2="145.6673583964461" y1="26.7553504044142" y2="22.446841604673864" /><path d="M 143.63769802327073 25.89364864446614 a86.0,86.0 0 0,1 29.32050498858742,28.57503671076993" fill="none" id="id2" stroke="none" /><text fill="#e1ed5e" style="font-size:6.75px; font-family:Arial;" text-anchor="middle"><textPath startOffset="20.669276256404974" xlink:href="#id2">February</textPath></text><line stroke="#e1ed5e" stroke-width="0.3" x1="172.87174338648825" x2="177.1583165268699" y1="56.24261187166439" y2="53.66864786411523" /><path d="M 173.72905801456457 55.72781907015455 a86.0,86.0 0 0,1 12.242430191666344,42.057860355516425" fill="none" id="id3" stroke="none" /><text fill="#e1ed5e" style="font-size:6.75px; font-family:Arial;" text-anchor="middle"><textPath startOffset="22.145653131862474" xlink:href="#id3">March</textPath></text><line stroke="#e1ed5e" stroke-width="0.3" x1="184.99686870605535" x2="189.99668451229388" y1="99.2704041080226" y2="99.22748670261217" /><path d="M 185.99683186730306 99.26182062694052 a86.0,86.0 0 0,1 -10.086455211305974,41.156179273409016" fill="none" id="id4" stroke="none" /><text fill="#e1ed5e" style="font-size:6.75px; font-family:Arial;" text-anchor="middle"><textPath startOffset="21.40746469413373" xlink:href="#id4">April</textPath></text><line stroke="#e1ed5e" stroke-width="0.3" x1="174.33088141563837" x2="178.70328620479359" y1="141.23008692659167" y2="143.65538615756765" /><path d="M 175.20536237346943 141.71514677278685 a86.0,86.0 0 0,1 -30.301960400862466,31.631185727798858" fill="none" id="id5" stroke="none" /><text fill="#e1ed5e" style="font-size:6.75px; font-family:Arial;" text-anchor="middle"><textPath startOffset="22.145653131862474" xlink:href="#id5">May</textPath></text><line stroke="#e1ed5e" stroke-width="0.3" x1="143.1302829299769" x2="145.66735839644613" y1="173.24464959558577" y2="177.55315839532614" /><path d="M 143.63769802327073 174.10635135553383 a86.0,86.0 0 0,1 -40.68552437913181,11.842963189579606" fill="none" id="id6" stroke="none" /><text fill="#e1ed5e" style="font-size:6.75px; font-family:Arial;" text-anchor="middle"><textPath startOffset="21.407464694133747" xlink:href="#id6">June</textPath></text><line stroke="#e1ed5e" stroke-width="0.3" x1="101.45913802915013" x2="101.54496967792366" y1="184.9874750549273" y2="189.98673829345242" /><path d="M 101.47630435890484 185.9873277026323 a86.0,86.0 0 0,1 -42.54439059252881,-10.42667462771756" fill="none" id="id7" stroke="none" /><text fill="#e1ed5e" style="font-size:6.75px; font-family:Arial;" text-anchor="middle"><textPath startOffset="22.145653131862474" xlink:href="#id7">July</textPath></text><line stroke="#e1ed5e" stroke-width="0.3" x1="58.13341422392154" x2="55.67067388415222" y1="173.97424548756322" y2="178.32567169271397" /><path d="M 57.64086615596768 174.84453072859336 a86.0,86.0 0 0,1 -31.369924170532247,-30.572349798747897" fill="none" id="id8" stroke="none" /><text fill="#e1ed5e" style="font-size:6.75px; font-family:Arial;" text-anchor="middle"><textPath startOffset="22.145653131862474" xlink:href="#id8">August</textPath></text><line stroke="#e1ed5e" stroke-width="0.3" x1="26.387840678322732" x2="22.057713659400548" y1="142.50000000000003" y2="145.00000000000006" /><path d="M 25.521815274538298 143.00000000000003 a86.0,86.0 0 0,1 -11.493303480769221,-40.785679425670985" fill="none" id="id9" stroke="none" /><text fill="#e1ed5e" style="font-size:6.75px; font-family:Arial;" text-anchor="middle"><textPath startOffset="21.40746469413373" xlink:href="#id9">September</textPath></text><line stroke="#e1ed5e" stroke-width="0.3" x1="15.003131293944662" x2="10.003315487706104" y1="100.72959589197737" y2="100.7725132973878" /><path d="M 14.003168132696942 100.73817937305945 a86.0,86.0 0 0,1 10.791469493833604,-42.45332614584628" fill="none" id="id10" stroke="none" /><text fill="#e1ed5e" style="font-size:6.75px; font-family:Arial;" text-anchor="middle"><textPath startOffset="22.145653131862435" xlink:href="#id10">October</textPath></text><line stroke="#e1ed5e" stroke-width="0.3" x1="26.387840678322718" x2="22.05771365940052" y1="57.49999999999999" y2="54.99999999999999" /><path d="M 25.521815274538284 56.99999999999999 a86.0,86.0 0 0,1 29.574782752854787,-30.34633250058573" fill="none" id="id11" stroke="none" /><text fill="#e1ed5e" style="font-size:6.75px; font-family:Arial;" text-anchor="middle"><textPath startOffset="21.40746469413373" xlink:href="#id11">November</textPath></text><line stroke="#e1ed5e" stroke-width="0.3" x1="56.869717070023135" x2="54.33264160355391" y1="26.7553504044142" y2="22.446841604673864" /><path d="M 56.362301976729285 25.89364864446614 a86.0,86.0 0 0,1 42.16139366436587,-11.88097634709845" fill="none" id="id12" stroke="none" /><text fill="#e1ed5e" style="font-size:6.75px; font-family:Arial;" text-anchor="middle"><textPath startOffset="22.145653131862474" xlink:href="#id12">December</textPath></text><path d="M 94.6519064749342 79.69241777938228 l -8.009681554812046 -30.414065493237487 a52.451079129919144,52.451079129919144 0 0,0 0.8726728291719328,-0.22183002061495447 l 7.4864034324147335 30.547080745687705" fill="#ff910d" stroke="none" /><path d="M 95.00130118170881 79.60360301121753 l -9.973731649123431 -40.696228672694424 a62.900576979189225,62.900576979189225 0 0,0 1.0509423796764465,-0.2480195400359001 l 9.27365711570708 40.86144435637655" fill="#9dff22" stroke="none" /><path d="M 95.35216902796891 79.52079915486377 l -9.579581101168834 -42.20940188308454 a64.28281392656457,64.28281392656457 0 0,0 1.078229668115047,-0.2349951377240066 l 8.853589016434668 42.367628478942265" fill="#85ff25" stroke="none" /><path d="M 95.70440661134978 79.44403061299748 l -9.405725376622232 -45.0098008380521 a66.98205999454082,66.98205999454082 0 0,0 1.1275425530688163,-0.2255400892846704 l 8.631686338022439 45.16463032399964" fill="#56ff2a" stroke="none" /><path d="M 96.05791012581881 79.37332000966035 l -11.826269622543562 -61.88003997101895 a84.0,84.0 0 0,0 1.4186610657958458,-0.25852730427455484 l 10.762273823196677 62.07393544922487" fill="#4dd2ff" stroke="none" /><path d="M 96.41257539226777 79.30868818359171 l -10.737759546818813 -61.93254361749279 a83.85649878109618,83.85649878109618 0 0,0 1.4204591967446898,-0.23373602027622226 l 9.67302284702105 62.10774563626468" fill="#4dd4ff" stroke="none" /><path d="M 96.76829788921471 79.25015418208739 l -6.417807603778676 -41.2069286407945 a62.703707538379,62.703707538379 0 0,0 1.0649922982979971,-0.15651719282583126 l 5.709490199872993 41.31102690691922" fill="#a1ff22" stroke="none" /><path d="M 97.12497278360702 79.19773525538626 l -4.94272066045397 -35.763064485501985 a57.10300913942565,57.10300913942565 0 0,0 0.9721710573389216,-0.1258670069151565 l 4.328071781224255 35.842643088617535" fill="#fff216" stroke="none" /><path d="M 97.84075906011542 79.11130261209362 l -2.7373459306605983 -26.481338759093152 a47.62244100787817,47.62244100787817 0 0,0 0.8138911843047055,-0.07707634135312996 l 2.2823551829708775 26.524426855951468" fill="#ff2403" stroke="none" /><path d="M 98.1996594967304 79.07731436759882 l -3.512852492392877 -40.82467079858122 a61.97552779947856,61.97552779947856 0 0,0 1.0607583931572881,-0.08210940833531535 l 2.811525104460371 40.87895797391158" fill="#aeff20" stroke="none" /><path d="M 98.5590905019552 79.04949213459386 l -1.7212306336969287 -25.02631565575541 a46.08543621697429,46.08543621697429 0 0,0 0.789719262243637,-0.04750754977065268 l 1.291367019320808 25.05217518335076" fill="#ff0000" stroke="none" /></svg>