<?xml version="1.0" encoding="utf-8" ?>
<svg baseProfile="full" height="200mm" version="1.1" viewBox="0,0,200,200" width="200mm" xmlns="http://www.w3.org/2000/svg" xmlns:ev="http://www.w3.org/2001/xml-events" xmlns:xlink="http://www.w3.org/1999/xlink"><defs /><rect fill="#1a1a1a" height="200" width="200" x="0" y="0" /><text alignment-baseline="middle" fill="#e1ed5e" style="dominant-baseline: central; font-size:9.0px; font-family:Arial;" text-anchor="middle" x="100.0" y="100.0">2022</text><line stroke="#e1ed5e" stroke-width="0.3" x1="100.0" x2="100.0" y1="15.0" y2="10.0" /><path d="M 100.0 14.0 a86.0,86.0 0 0,1 42.46469731375804,11.215312516191453" fill="none" id="id25" stroke="none" /><text fill="#e1ed5e" style="font-size:6.75px; font-family:Arial;" text-anchor="middle"><textPath startOffset="22.20632615414155" xlink:href="#id25">January</textPath></text><path d="M 100.0 79.0 l 0.0 -19.129850796602575 a40.129850796602575,40.129850796602575 0 0,0 0.6907694142424263,0.00594567043207175 l -0.329288934969898 19.127016502779064" fill="#ff750a" stroke="none" /><path d="M 100.36148047927253 79.00311137660856 l 0.3855253076299218 -22.393552100226447 a43.3968704382639,43.3968704382639 0 0,0 0.7467844329660857,0.01928723867482882 l -0.7709363757908753 22.38359806940926" fill="#ffaa0f" stroke="none" /><path d="M 100.72285384407766 79.0124445844662 l 0.7660992180774215 -22.243154580872066 a43.25634367366996,43.25634367366996 0 0,0 0.7439250035744595,0.03203497554173013 l -1.1488650540412124 22.226671878806144" fill="#ffa80f" stroke="none" /><path d="M 101.44485096284872 79.0497635885617 l 1.5424416941194707 -22.365295088255962 a43.41841989892518,43.41841989892518 0 0,0 0.7451630711408562,0.05783899585064698 l -1.927194954622668 22.33543083021685" fill="#ffaa0f" stroke="none" /><path d="M 102.52436894288641 79.15227682838746 l 2.684768145020294 -22.172394104701777 a43.33434665099317,43.33434665099317 0 0,0 0.7397488106722093,0.09604062655827615 l -3.0660316842003494 22.122895154979364" fill="#ffa90f" stroke="none" /><path d="M 102.88285421437855 79.19881850522331 l 3.0574484954559504 -22.060963314657474 a43.27182286372242,43.27182286372242 0 0,0 0.7369212442601739,0.1086030354917937 l -3.43673872014478 22.00506579500471" fill="#ffa80f" stroke="none" /><path d="M 103.59715602781102 79.31037775812273 l 3.813502861158943 -21.933975898095674 a43.26302097133966,43.26302097133966 0 0,0 0.7325972063445666,0.133877456815972 l -4.190495188606411 21.865082959928962" fill="#ffa80f" stroke="none" /><path d="M 103.95276090670814 79.375362276772 l 4.747220735810531 -24.76995451511577 a46.22076032548213,46.22076032548213 0 0,0 0.78010428758667,0.1564815812497764 l -5.1728914328643265 24.684568977788786" fill="#ffd614" stroke="none" /><path d="M 104.307194497241 79.44645832069477 l 4.764829632748488 -22.73733505979748 a44.231229133444785,44.231229133444785 0 0,0 0.7438371613384986,0.16257399293955344 l -5.155509518240515 22.651947568762058" fill="#ffb711" stroke="none" /><path d="M 105.01212808612495 79.60689891045804 l 7.641087291250803 -31.08968144606336 a53.01491070439227,53.01491070439227 0 0,0 0.8843167612812253,0.22543203258463074 l -8.175112941217053 30.953546417309862" fill="#c4ff1e" stroke="none" /><path d="M 105.36241919743992 79.69619591428918 l 5.723299838426964 -21.670211590074654 a43.41326016890769,43.41326016890769 0 0,0 0.7208712122180149,0.19704133336698457 l -6.09546893986869 21.568483715881374" fill="#ffaa0f" stroke="none" /><path d="M 105.71112130821622 79.79150937346287 l 5.299341892702514 -18.751431669194 a40.48587216780926,40.48587216780926 0 0,0 0.6689996993442215,0.19529935741823004 l -5.621331809770163 18.657433982857068" fill="#ff7b0b" stroke="none" /><path d="M 106.0581310904928 79.89281104454417 l 6.397974123015459 -21.235142109333946 a43.17803718281632,43.17803718281632 0 0,0 0.7097947625308898,0.22053668782220903 l -6.762554258257067 21.121865286629216" fill="#ffa70f" stroke="none" /><path d="M 108.09893153111575 80.62456947434976 l 8.456570708517994 -20.231026477830525 a42.92733500667248,42.92733500667248 0 0,0 0.6793071741663643,0.29084388038327497 l -8.803561640474674 20.08246306948446" fill="#ffa30f" stroke="none" /><path d="M 108.43124777332544 80.76684994638697 l 6.752463993129255 -15.403550779560415 a37.81859526229832,37.81859526229832 0 0,0 0.5939642367606425,0.26649443939257056 l -7.016610348356678 15.285036009651314" fill="#ff4e07" stroke="none" /><path d="M 108.76106565485865 80.91482961587045 l 7.993767009397743 -17.41368132548838 a40.1608091767075,40.1608091767075 0 0,0 0.6257853244979881,0.29381460071690413 l -8.292330545195329 17.273501742131472" fill="#ff760a" stroke="none" /><path d="M 109.08828744355905 81.06846463323043 l 8.169515258330803 -17.017668950607746 a39.877024025745655,39.877024025745655 0 0,0 0.6162495277366575,0.30239096691806305 l -8.461236053077892 16.87452282355485" fill="#ff710a" stroke="none" /><path d="M 109.41281617654863 81.2277094730956 l 10.013086196296149 -19.96942887465687 a43.33920286748021,43.33920286748021 0 0,0 0.66399685708929,0.3401249799789833 l -10.355343540974193 19.794111369365385" fill="#ffa90f" stroke="none" /><line stroke="#e1ed5e" stroke-width="0.3" x1="143.23703022742887" x2="145.7803849466894" y1="26.81831364943548" y2="22.513508569990506" /><path d="M 143.74570117128098 25.957352633546492 a86.0,86.0 0 0,1 28.547481713284135,27.462654790039103" fill="none" id="id26" stroke="none" /><text fill="#e1ed5e" style="font-size:6.75px; font-family:Arial;" text-anchor="middle"><textPath startOffset="19.985693538727396" xlink:href="#id26">February</textPath></text><path d="M 113.6212207817346 84.01681056812373 l 12.441063655483989 -14.598388817416199 a40.18053755618614,40.18053755618614 0 0,0 0.522550189538144,0.4531503750724043 l -12.690507643668898 14.382073448924123" fill="#ff760a" stroke="none" /><path d="M 113.89432698308785 84.25364557470407 l 14.772357358708305 -16.74142079357158 a43.32706232626259,43.32706232626259 0 0,0 0.5549763669289696,0.4982632618527069 l -15.058344713233264 16.484658522949577" fill="#ffa90f" stroke="none" /><path d="M 114.42810811169701 84.74124197986012 l 11.124648356105372 -11.765112654467991 a37.19183982193873,37.19183982193873 0 0,0 0.46138559402371304,0.4438525758954849 l -11.325517193741502 11.571876991810205" fill="#ff4406" stroke="none" /><path d="M 114.68862486808459 84.99185889309783 l 15.345111977919009 -15.678908538689834 a42.93856500729878,42.93856500729878 0 0,0 0.5237772927170522,0.5215280265662496 l -15.612725070803384 15.412444661473465" fill="#ffa30f" stroke="none" /><path d="M 114.94478906791727 85.2469230424477 l 13.641100676814652 -13.466112312203522 a40.16809350143807,40.16809350143807 0 0,0 0.4815116472965178,0.49624007860780056 l -13.87087658781428 13.229308038045607" fill="#ff760a" stroke="none" /><path d="M 115.4437574822437 85.77008943001954 l 16.317695186748868 -15.035158605838376 a43.18835664285129,43.18835664285129 0 0,0 0.4990442567014546,0.5510571326124124 l -16.574083084066356 14.752048685956414" fill="#ffa70f" stroke="none" /><path d="M 117.2510076193507 88.02491185347247 l 18.22546943367214 -12.651527829322337 a43.18623204813821,43.18623204813821 0 0,0 0.41865048880732414,0.6143179335677509 l -18.440544388148194 12.33593187248418" fill="#ffa70f" stroke="none" /><path d="M 117.45458315368197 88.32363383020206 l 18.329544914417244 -12.261677993802234 a43.0526860947444,43.0526860947444 0 0,0 0.40675227514649376,0.6195116207176827 l -18.537893824921664 11.944348309106877" fill="#ffa50f" stroke="none" /><line stroke="#e1ed5e" stroke-width="0.3" x1="172.23445277983987" x2="176.4835382374775" y1="55.19839476539836" y2="52.563006222186495" /><path d="M 173.08426987136738 54.67131705675599 a86.0,86.0 0 0,1 12.851231095245387,41.99856678651699" fill="none" id="id27" stroke="none" /><text fill="#e1ed5e" style="font-size:6.75px; font-family:Arial;" text-anchor="middle"><textPath startOffset="22.20632615414155" xlink:href="#id27">March</textPath></text><path d="M 120.83666639777658 97.38593545837742 l 13.362453806720824 -1.676387000607057 a34.467198859174545,34.467198859174545 0 0,0 0.06878610176871944,0.5893173129899577 l -13.389330261493132 1.4461259492922465" fill="#ff1402" stroke="none" /><path d="M 120.94382443527127 98.46500227214037 l 19.894761508468537 -1.4581106619848803 a40.94812327467011,40.94812327467011 0 0,0 0.04547076353541166,0.7034125860565029 l -19.916912863008363 1.115439011675342" fill="#ff830c" stroke="none" /><path d="M 120.98425023603335 99.18683210126433 l 18.925343365031157 -0.7333824903863936 a39.9395478130164,39.9395478130164 0 0,0 0.020708285709118836,0.6872071868185435 l -18.93516334519592 0.4075051561428509" fill="#ff720a" stroke="none" /><line stroke="#e1ed5e" stroke-width="0.3" x1="184.98032266829074" x2="189.97916517819016" y1="98.17113171792111" y2="98.06355123074" /><path d="M 185.9800911702706 98.14961562048488 a86.0,86.0 0 0,1 -9.607161424134198,41.387399972396054" fill="none" id="id28" stroke="none" /><text fill="#e1ed5e" style="font-size:6.75px; font-family:Arial;" text-anchor="middle"><textPath startOffset="21.466115282336823" xlink:href="#id28">April</textPath></text><path d="M 120.99824983174949 100.27111621757518 l 22.019285417756304 0.28429918798014137 a43.02112068757859,43.02112068757859 0 0,0 -0.015934075234700723,0.7403938644101656 l -22.0111292798366 -0.6632828681804218" fill="#ffa40f" stroke="none" /><path d="M 120.9904718944345 100.63252640178507 l 18.922460051427183 0.5702089800289089 a39.93104943416406,39.93104943416406 0 0,0 -0.02661664405197459,0.686857314582312 l -18.90984127452401 -0.8958435416252271" fill="#ff720a" stroke="none" /><path d="M 120.9764740272857 100.99374915477107 l 22.028587161222237 1.0435924476053582 a43.05329312180528,43.05329312180528 0 0,0 -0.04144115049050096,0.7399595805981478 l -22.00735965984421 -1.4226237445389294" fill="#ffa50f" stroke="none" /><path d="M 120.8583938346157 102.4346265915055 l 18.75214514250105 2.188781723736451 a39.879452133989176,39.879452133989176 0 0,0 -0.08545310276628927,0.6811453071051228 l -18.711690530487914 -2.5112447851289685" fill="#ff710a" stroke="none" /><path d="M 120.81339534386255 102.79330883721812 l 18.59557535043601 2.495661284541219 a39.76229591123915,39.76229591123915 0 0,0 -0.09687979066939349,0.6775770302996088 l -18.549861508750016 -2.8153837868212372" fill="#ff6f0a" stroke="none" /><path d="M 120.70491114924044 103.5080841355445 l 18.65815044859986 3.1612964245797714 a39.92406862296393,39.92406862296393 0 0,0 -0.12063448525816325,0.6765822579691964 l -18.600969521002504 -3.4819974332821864" fill="#ff720a" stroke="none" /><path d="M 120.5718875245553 104.21870165774334 l 18.599823208768242 3.8142880623327637 a39.986895923765104,39.986895923765104 0 0,0 -0.1440784246903493,0.6730864339759469 l -18.531410745353448 -4.13388831572488" fill="#ff730a" stroke="none" /><path d="M 120.49622156327973 104.57218783832717 l 18.790614102326842 4.191710018751869 a40.25247026290053,40.25247026290053 0 0,0 -0.15667686377079718,0.6749598285101014 l -18.71567667262549 -4.514538504610535" fill="#ff770b" stroke="none" /><path d="M 120.32669344350535 105.2749913415812 l 18.550584106442212 4.814072235345407 a40.165058366133664,40.165058366133664 0 0,0 -0.17942673281770444,0.6677136211976458 l -18.46496929728273 -5.132676789718601" fill="#ff760a" stroke="none" /><path d="M 120.23288151984713 105.62410040840565 l 15.185700234509891 4.221143825067893 a36.76145763577413,36.76145763577413 0 0,0 -0.17471734051666582,0.608213983100225 l -15.110790257107126 -4.4819152836727" fill="#ff3c05" stroke="none" /><path d="M 119.79798401119884 107.00284435728193 l 20.756937088241138 7.342040466373901 a43.017175011682866,43.017175011682866 0 0,0 -0.2529322606683351,0.6959609512758125 l -20.627480566567577 -7.698249214655845" fill="#ffa40f" stroke="none" /><path d="M 119.67450827220406 107.3425965602758 l 17.176534147909656 6.410343720258698 a39.3337348062572,39.3337348062572 0 0,0 -0.24219413882862117,0.6322924713822536 l -17.06364572948753 -6.705059758474096" fill="#ff6809" stroke="none" /><path d="M 119.54520255179757 107.68017299344265 l 20.466770306975082 8.042297651203791 a42.99016230747365,42.99016230747365 0 0,0 -0.2765646923995274,0.6864108856302841 l -20.325303000318165 -8.39340790467689" fill="#ffa40f" stroke="none" /><path d="M 119.26925614724726 108.34839909993367 l 14.4646834417817 6.266819502705437 a36.76388574401765,36.76388574401765 0 0,0 -0.2565750102717451,0.578508914338257 l -14.354667346778681 -6.514876753536382" fill="#ff3c05" stroke="none" /><path d="M 119.12269723197855 108.67885076344098 l 17.43133870309468 7.911226401585345 a40.142598364881074,40.142598364881074 0 0,0 -0.2909867817685134,0.6267596405300062 l -17.292577304486336 -8.210106109394182" fill="#ff750a" stroke="none" /><path d="M 118.81262510543309 109.33194174019688 l 17.225639256890517 8.54472255105569 a40.22849269399573,40.22849269399573 0 0,0 -0.3130568470736257,0.6176908589870408 l -17.07600374003062 -8.839967621745425" fill="#ff770a" stroke="none" /><path d="M 118.64920377521936 109.65438752849418 l 16.843123415004392 8.719409289461426 a39.966257003695155,39.966257003695155 0 0,0 -0.3215332798292189,0.6082197924566474 l -16.69053762695028 -9.008044097004209" fill="#ff720a" stroke="none" /><line stroke="#e1ed5e" stroke-width="0.3" x1="174.80103733775053" x2="179.2010983576182" y1="140.37084112569926" y2="142.7455964860345" /><path d="M 175.68104954172406 140.8457921977663 a86.0,86.0 0 0,1 -30.038265399797805,32.042727171017184" fill="none" id="id29" stroke="none" /><text fill="#e1ed5e" style="font-size:6.75px; font-family:Arial;" text-anchor="middle"><textPath startOffset="22.206326154141568" xlink:href="#id29">May</textPath></text><path d="M 118.12598468904814 110.60418214915192 l 19.113718950030385 11.182032908605688 a43.14434718093742,43.14434718093742 0 0,0 -0.3805313430202328,0.6377924190238657 l -18.918406731311926 -11.509387421515658" fill="#ffa60f" stroke="none" /><path d="M 117.75023020441432 111.22182372390056 l 18.67490218915353 11.8064080304518 a43.0939639348843,43.0939639348843 0 0,0 -0.40178993125024465,0.6235868958845356 l -18.468907394526237 -12.126116526257789" fill="#ffa50f" stroke="none" /><path d="M 117.55443506779139 111.5257021239791 l 15.846512323094212 10.404332582314604 a39.956848084251504,39.956848084251504 0 0,0 -0.3824382086909587,0.5716932320954287 l -15.665071008992532 -10.675562728615839" fill="#ff720a" stroke="none" /><path d="M 117.14729908036423 112.12312394758627 l 15.561763132079898 11.002151558038584 a40.058221603418616,40.058221603418616 0 0,0 -0.4029098040065806,0.5596064782778346 l -15.370073535697715 -11.268391641767549" fill="#ff740a" stroke="none" /><path d="M 116.93607887273984 112.41649034213515 l 15.563203042954468 11.40998230626868 a40.297693778936164,40.297693778936164 0 0,0 -0.41494867894601073,0.5558915653921623 l -15.364493097313364 -11.676186751170157" fill="#ff780b" stroke="none" /><path d="M 115.07121518719521 114.62390073753431 l 11.353892253911168 11.016908142014053 a36.820339260679575,36.820339260679575 0 0,0 -0.44527954018501464,0.4510658233174651 l -11.162572088670617 -11.210714459312182" fill="#ff3d05" stroke="none" /><path d="M 114.81725581225074 114.88116024355365 l 13.515912290543111 13.574204237406382 a40.15564944669002,40.15564944669002 0 0,0 -0.49401018794920376,0.4834929442701357 l -13.280252150218113 -13.80484728459909" fill="#ff750a" stroke="none" /><path d="M 114.55890576462653 115.13401014063108 l 15.42674894460872 16.036134771332325 a43.251790970713344,43.251790970713344 0 0,0 -0.5409855041155057,0.5115355607538425 l -15.148427606102405 -16.29930496883209" fill="#ffa80f" stroke="none" /><path d="M 114.0293411484842 115.62618273729858 l 14.683330448200115 16.354610123691053 a42.978932306847355,42.978932306847355 0 0,0 -0.5547508697943374,0.4895031428158679 l -14.399637225499191 -16.604936408279208" fill="#ffa30f" stroke="none" /><path d="M 113.75828350139079 115.86535959552629 l 14.371798390843809 16.572834066262242 a42.936440412585696,42.936440412585696 0 0,0 -0.5625379557330845,0.47940704987605426 l -14.084394958533677 -16.817765506361244" fill="#ffa30f" stroke="none" /><path d="M 113.20401910651253 116.32954008644616 l 12.00008564048506 14.840623746934579 a40.08523430762783,40.08523430762783 0 0,0 -0.5402773915925446,0.42922903547351016 l -11.742850756175164 -15.044986696413215" fill="#ff740a" stroke="none" /><path d="M 112.92097659922987 116.55440617244103 l 13.316009178751452 17.060523471123936 a42.64203228805843,42.64203228805843 0 0,0 -0.582513048671277,0.44664616609046714 l -13.02036740158668 -17.287208979041775" fill="#ff9e0e" stroke="none" /><path d="M 112.63410532772338 116.77436683061366 l 9.614310138536453 12.764969176979276 a36.98059440475215,36.98059440475215 0 0,0 -0.5117674541369582,0.3785933279386417 l -9.393157713980932 -12.928572453657688" fill="#ff4006" stroke="none" /><path d="M 112.04921762599082 117.19931262002967 l 10.834421691823819 15.465286752971673 a39.88279078282402,39.88279078282402 0 0,0 -0.5656578407947648,0.38906462084221083 l -10.566606966406171 -15.649492163178978" fill="#ff710a" stroke="none" /><path d="M 111.45004920935366 117.60387380957326 l 11.969901710203741 18.40312083962793 a42.95343717029036,42.95343717029036 0 0,0 -0.623271141448632,0.3978011315259314 l -11.65134876670818 -18.60643639997767" fill="#ffa30f" stroke="none" /><line stroke="#e1ed5e" stroke-width="0.3" x1="143.8653032363475" x2="146.44561519142675" y1="172.8068346515853" y2="177.08958963109032" /><path d="M 144.38136562736335 173.6633856474863 a86.0,86.0 0 0,1 -40.68145358897372,12.25698825130547" fill="none" id="id30" stroke="none" /><text fill="#e1ed5e" style="font-size:6.75px; font-family:Arial;" text-anchor="middle"><textPath startOffset="21.466115282336833" xlink:href="#id30">June</textPath></text><path d="M 110.8373102113329 117.98757091392108 l 11.38306802506744 18.893409833813816 a43.057542311231444,43.057542311231444 0 0,0 -0.6381376458004799,0.3770229692243584 l -11.056162508238577 -19.086551375331926" fill="#ffa50f" stroke="none" /><path d="M 110.5260780823613 118.17145234162733 l 7.273358743930127 12.556195265201364 a35.510678376828906,35.510678376828906 0 0,0 -0.5315631207248038,0.30183541289281435 l -7.0561468562841245 -12.679533843888807" fill="#ff2603" stroke="none" /><path d="M 109.89434966115114 118.52300852407294 l 8.950861650691172 16.756724022451895 a39.99751889733052,39.99751889733052 0 0,0 -0.610074722818256,0.3191622610664451 l -8.66109602534642 -16.908315702463057" fill="#ff730a" stroke="none" /><path d="M 109.57404056367764 118.69057910512821 l 9.958350870017032 19.440835189148117 a42.84295824521003,42.84295824521003 0 0,0 -0.6592635495357275,0.3305684298239999 l -9.622233412798543 -19.60937145988142" fill="#ffa10e" stroke="none" /><path d="M 107.59598834532513 119.57807347666477 l 6.662303418179816 17.171572666410714 a39.41871859478053,39.41871859478053 0 0,0 -0.6346972674459995,0.23998819766176088 l -6.365735929973542 -17.283709114179107" fill="#ff6909" stroke="none" /><path d="M 107.2578585660854 119.70592522655815 l 6.4105273816024235 17.40532308454665 a39.548318872278614,39.548318872278614 0 0,0 -0.6408342534387771,0.2297803634924983 l -6.1099735675339115 -17.51309098907911" fill="#ff6b09" stroke="none" /><path d="M 106.91757812671514 119.82793768551818 l 6.126170316420226 17.559515925920167 a39.59748806420997,39.59748806420997 0 0,0 -0.6454961268588555,0.21898733286259855 l -5.823004456624143 -17.66236624568089" fill="#ff6c0a" stroke="none" /><path d="M 106.2309692047433 120.05430185196036 l 5.542338274513784 17.837951219235954 a39.67913320389846,39.67913320389846 0 0,0 -0.653997190208964,0.19704398858920472 l -5.234466109864574 -17.930710576930885" fill="#ff6e0a" stroke="none" /><path d="M 105.88484417918355 120.15858648285463 l 12.310857346473496 42.170952185075976 a64.93115542301597,64.93115542301597 0 0,0 -1.0755964376487075,0.30397429712194585 l -11.583129740720183 -42.376615275536444" fill="#30ff36" stroke="none" /><path d="M 105.18746579009965 120.34920634021253 l 4.5715746554349606 17.933210497633926 a39.50673751860827,39.50673751860827 0 0,0 -0.6604147826866464,0.16231388577254402 l -4.262206588005102 -18.0092456417205" fill="#ff6b09" stroke="none" /><path d="M 104.83641907484287 120.43548508189849 l 5.079977065628254 21.46459889735786 a43.057542311231444,43.057542311231444 0 0,0 -0.7227102895892086,0.16448650896781172 l -4.709746626646184 -21.548862139903356" fill="#ffa50f" stroke="none" /><path d="M 103.7750983002368 120.6578951692458 l 3.896516027606412 21.32231089678645 a42.67541877640688,42.67541877640688 0 0,0 -0.7237568709561096,0.12583440918316463 l -3.5289101851782525 -21.386223884490622" fill="#ff9f0e" stroke="none" /><path d="M 103.41894727170886 120.7198165907248 l 3.519175601316597 21.32722947007846 a42.615626610910105,42.615626610910105 0 0,0 -0.724798736917505,0.11319865646763277 l -3.151541000790575 -21.3846464338932" fill="#ff9e0e" stroke="none" /><path d="M 102.70371172650421 120.8252237178851 l 2.776173165035698 21.383354843161957 a42.56281525661346,42.56281525661346 0 0,0 -0.7273631996823285,0.0880735539493669 l -2.407682542301989 -21.427973925836675" fill="#ff9d0e" stroke="none" /><path d="M 102.34483914955558 120.86867818915974 l 2.4053780209789144 21.407464069593267 a42.54217633654351,42.54217633654351 0 0,0 -0.7284180895275012,0.07550351330140319 l -2.0365273348458106 -21.44569695135043" fill="#ff9c0e" stroke="none" /><path d="M 101.98527174616119 120.90594882070398 l 1.751661417065868 18.44590999050441 a39.528894006330425,39.528894006330425 0 0,0 -0.6779312280843913,0.05849475894496087 l -1.433885871239935 -18.473329001728032" fill="#ff6b09" stroke="none" /><path d="M 101.62511606390274 120.93702456842531 l 1.4501629467996466 18.683033119769537 a39.73922888292568,39.73922888292568 0 0,0 -0.6824497996720242,0.04706573380783893 l -1.1283503863486921 -18.70522719809366" fill="#ff6f0a" stroke="none" /><path d="M 100.90346689309514 120.98055641714683 l 0.8022077753995065 18.629089365282123 a39.646353742610884,39.646353742610884 0 0,0 -0.6820676541672759,0.023491789109033254 l -0.4814197695575783 -18.640137952817252" fill="#ff6d0a" stroke="none" /><line stroke="#e1ed5e" stroke-width="0.3" x1="102.19456741930631" x2="102.32365962044197" y1="184.97166512339345" y2="189.96999836594603" /><path d="M 102.22038585953345 185.97133177190398 a86.0,86.0 0 0,1 -42.740103519485714,-10.115201625700543" fill="none" id="id31" stroke="none" /><text fill="#e1ed5e" style="font-size:6.75px; font-family:Arial;" text-anchor="middle"><textPath startOffset="22.20632615414155" xlink:href="#id31">July</textPath></text><path d="M 99.81925306533755 120.99922214144158 l -0.18399755641759905 21.37688015518159 a42.377672003044765,42.377672003044765 0 0,0 -0.7293809004955859,-0.012556953661679315 l 0.5519381468058528 -21.37054572424075" fill="#ff9a0e" stroke="none" /><path d="M 99.09653310690486 120.98055641714683 l -0.7992697636885084 18.560862050116693 a39.57806319826178,39.57806319826178 0 0,0 -0.6803882401741663,-0.03516830034558812 l 1.1186460722761637 -18.544353943008904" fill="#ff6c09" stroke="none" /><path d="M 98.73552117531835 120.96189622390904 l -1.3232042406634714 21.935416738044008 a42.975290144482074,42.975290144482074 0 0,0 -0.7380233329728796,-0.05089841003744018 l 1.700590334415281 -21.909389983490282" fill="#ffa30f" stroke="none" /><path d="M 98.01472825383883 120.90594882070398 l -1.45158811245842 15.285981300282042 a36.354749504983886,36.354749504983886 0 0,0 -0.6224753752648166,-0.06452211779444615 l 1.71449608432883 -15.258729814031836" fill="#ff3505" stroke="none" /><path d="M 97.65516085044442 120.86867818915974 l -2.393109833935481 21.298279246650402 a42.432304438524056,42.432304438524056 0 0,0 -0.725132878081957,-0.08780349306386225 l 2.7593701350688273 -21.253930224861193" fill="#ff9b0e" stroke="none" /><path d="M 97.2962882734958 120.8252237178851 l -2.760073517718602 21.259347999580754 a42.43776768207198,42.43776768207198 0 0,0 -0.7236072028954993,-0.10028536479746243 l 3.125609311800932 -21.208688069290687" fill="#ff9b0e" stroke="none" /><path d="M 96.58105272829116 120.7198165907248 l -2.9921738912427065 18.133445562942814 a39.37865480876239,39.37865480876239 0 0,0 -0.6678451624851348,-0.11611344198519918 l 3.303868025199891 -18.07925354243661" fill="#ff6909" stroke="none" /><path d="M 95.51606077576429 120.51570834832081 l -4.575791618289982 20.935967596556633 a42.430179843810976,42.430179843810976 0 0,0 -0.7121801644085934,-0.1620898867598435 l 4.935491932091438 -20.854100976219105" fill="#ff9b0e" stroke="none" /><path d="M 94.81253420990036 120.34920634021253 l -5.630290616228665 22.086303821735427 a43.79265208195829,43.79265208195829 0 0,0 -0.7288547827274169,-0.192497172576346 l 6.0096358417675715 -21.9861152998555" fill="#ffb010" stroke="none" /><path d="M 93.76903079525671 120.05430185196036 l -4.56711800291977 14.699216127461003 a36.3923851827585,36.3923851827585 0 0,0 -0.5966248295072614,-0.19102042961709256 l 4.819464177517972 -14.618422851184203" fill="#ff3605" stroke="none" /><path d="M 93.42475214034765 119.94407469862007 l -5.180871723108949 15.714646026304555 a37.54664713902365,37.54664713902365 0 0,0 -0.6120644639244625,-0.20764549765315907 l 5.450605919970638 -15.623137541753273" fill="#ff4a06" stroke="none" /><path d="M 93.08242187328487 119.8279376855182 l -5.117772728350003 14.669133747037929 a36.536250596187294,36.536250596187294 0 0,0 -0.5920272098006202,-0.2122798941152914 l 5.36951949878035 -14.57886631188268" fill="#ff3805" stroke="none" /><path d="M 92.40401165467489 119.57807347666478 l -7.912974268305936 20.39508021878364 a42.876344733558476,42.876344733558476 0 0,0 -0.6857743110650459,-0.27288375114159136 l 8.26286965541284 -20.255849623235985" fill="#ffa20f" stroke="none" /><path d="M 91.7346041902142 119.30500536409082 l -8.738377668486445 20.40972164501268 a43.20171123819067,43.20171123819067 0 0,0 -0.6811044481129122,-0.2985761742380422 l 9.088402791257101 -20.256280917480186" fill="#ffa70f" stroke="none" /><path d="M 91.07499286063937 119.00905698771935 l -7.8400870398257885 16.698324046316074 a39.44724886664193,39.44724886664193 0 0,0 -0.6121599375181149,-0.29387397090683876 l 8.126359645344145 -16.560895798909673" fill="#ff6a09" stroke="none" /><path d="M 90.42595943632237 118.69057910512821 l -27.707702995962993 54.091374610649886 a81.77494230834083,81.77494230834083 0 0,0 -1.2472979984158352,-0.6525273618271874 l 28.634691896905323 -53.606417829877984" fill="#4aebff" stroke="none" /><line stroke="#e1ed5e" stroke-width="0.3" x1="58.666819895761336" x2="56.23545636021788" y1="174.27360380694188" y2="178.64263932499728" /><path d="M 58.180547188652646 175.14741091055294 a86.0,86.0 0 0,1 -31.652253787137756,-30.449443065178592" fill="none" id="id32" stroke="none" /><text fill="#e1ed5e" style="font-size:6.75px; font-family:Arial;" text-anchor="middle"><textPath startOffset="22.20632615414155" xlink:href="#id32">August</textPath></text><path d="M 89.7882731507175 118.34994917583269 l -7.479288378528194 13.439897447612566 a36.380851668601764,36.380851668601764 0 0,0 -0.5445888372610295,-0.3092317546924026 l 7.709525982710431 -13.30916252712553" fill="#ff3605" stroke="none" /><path d="M 87.95078237400918 117.19931262002967 l -10.556656195336547 15.068798303892857 a39.39868670177145,39.39868670177145 0 0,0 -0.5520931816654672,-0.3939038261351794 l 10.814476704850902 -14.884850215913458" fill="#ff6909" stroke="none" /><path d="M 87.65650970185807 116.9893568818739 l -10.84016641674814 14.92020907091093 a39.442392650154886,39.442392650154886 0 0,0 -0.5458358146089222,-0.4037962865563356 l 11.095387201775626 -14.731402835614828" fill="#ff6a09" stroke="none" /><path d="M 86.79598089348748 116.32954008644616 l -11.646844462378187 14.403766913303182 a39.523430762782496,39.523430762782496 0 0,0 -0.5253414356327796,-0.43232023646292383 l 11.893056026555657 -14.201151557983076" fill="#ff6b09" stroke="none" /><path d="M 86.24171649860922 115.8653595955263 l -12.125204434154023 13.982175065492537 a39.50734454566915,39.50734454566915 0 0,0 -0.509941326450373,-0.44996393073108804 l 12.364088113510983 -13.77138799298916" fill="#ff6b09" stroke="none" /><path d="M 85.97065885151581 115.62618273729859 l -14.198313166806825 15.814387415469442 a42.252927942033736,42.252927942033736 0 0,0 -0.5370155001939682,-0.4905509269125717 l 14.468428216467649 -15.567643721970295" fill="#ff980e" stroke="none" /><path d="M 85.70375840098266 115.38237550388516 l -12.487937742554186 13.436688677555098 a39.343750752761736,39.343750752761736 0 0,0 -0.4921044506385633,-0.465315473689868 l 12.717378027583566 -13.2197385671193" fill="#ff6809" stroke="none" /><path d="M 85.44109423537348 115.13401014063109 l -12.754832829014948 13.258672904207675 a39.39777616118014,39.39777616118014 0 0,0 -0.48468654035850894,-0.4743677927349541 l 12.98116932174925 -13.037155008550151" fill="#ff6909" stroke="none" /><path d="M 84.67929136418377 114.36230785411682 l -11.282109935059761 10.576347346787427 a36.4643178894729,36.4643178894729 0 0,0 -0.42533645938152315,-0.46161872168767953 l 11.462492802437012 -10.380577370298404" fill="#ff3705" stroke="none" /><path d="M 84.43433777217949 114.09645910891817 l -15.83007803661322 14.335917384566486 a42.356729569444376,42.356729569444376 0 0,0 -0.48476500523116695,-0.5446386223357574 l 16.074501891492726 -14.061304592489863" fill="#ff990e" stroke="none" /><path d="M 84.19399662182784 113.82643327865904 l -16.213167743097017 14.182603702667384 a42.540962282421745,42.540962282421745 0 0,0 -0.47738554342474593,-0.5553072373960655 l 16.45489579609254 -13.901419366109788" fill="#ff9c0e" stroke="none" /><path d="M 83.72743513129214 113.27417163493432 l -14.339164434191744 11.697020803833578 a39.50491643742562,39.50491643742562 0 0,0 -0.42530257106054425,-0.5306303506578317 l 14.53838491730715 -11.448462619597485" fill="#ff6b09" stroke="none" /><path d="M 83.50135304334701 112.99209946851258 l -14.456833183775046 11.384243521106413 a39.40111481001498,39.40111481001498 0 0,0 -0.4150122852373102,-0.5364593228882624 l 14.650652286230423 -11.133706204104898" fill="#ff6909" stroke="none" /><path d="M 83.06392112726016 112.41649034213515 l -19.973360625013733 14.643238329483836 a45.76609705688229,45.76609705688229 0 0,0 -0.46032021535775125,-0.6393445183881349 l 20.22246063274709 -14.297260205644564" fill="#ffcf13" stroke="none" /><path d="M 82.85270091963577 112.12312394758628 l -15.116411999000084 10.687288735548545 a39.51280778921708,39.51280778921708 0 0,0 -0.38786354062600853,-0.5587463585015753 l 15.298136446788225 -10.425501114859957" fill="#ff6b09" stroke="none" /><path d="M 82.6465618267979 111.8261652097733 l -32.6180497260637 22.228819501412445 a60.47223814731486,60.47223814731486 0 0,0 -0.5787967655463359,-0.8652226323153666 l 32.995849597020765 -21.664059954891258" fill="#60ff29" stroke="none" /><path d="M 82.44556493220864 111.52570212397912 l -15.351261241492482 10.0791659551303 a39.364389672831685,39.364389672831685 0 0,0 -0.36701695495577585,-0.5696184644689883 l 15.522483059825305 -9.813425890739863" fill="#ff6809" stroke="none" /><path d="M 82.05923443525364 110.91462005526583 l -13.199841187831204 8.030384814688546 a36.450659780603075,36.450659780603075 0 0,0 -0.32149329927547526,-0.538841261845722 l 13.336115362804911 -7.801981458956713" fill="#ff3705" stroke="none" /><line stroke="#e1ed5e" stroke-width="0.3" x1="26.63291911575756" x2="22.317208475507996" y1="142.92168965132927" y2="145.44649492493687" /><path d="M 25.769776987707644 143.4266507060508 a86.0,86.0 0 0,1 -11.730757126820373,-40.83630448921669" fill="none" id="id33" stroke="none" /><text fill="#e1ed5e" style="font-size:6.75px; font-family:Arial;" text-anchor="middle"><textPath startOffset="21.46611528233685" xlink:href="#id33">September</textPath></text><path d="M 81.18737489456691 109.33194174019688 l -16.536646314536387 8.202949833988223 a39.45938940785955,39.45938940785955 0 0,0 -0.2965969578096325,-0.6110775822048756 l 16.675396528960736 -7.917083295818063" fill="#ff6a09" stroke="none" /><path d="M 80.87730276802145 108.67885076344099 l -33.85333462921612 15.364361811913534 a58.17676531659351,58.17676531659351 0 0,0 -0.40601541041156397,-0.9154575655401125 l 34.112791124358964 -14.779355909880726" fill="#7eff26" stroke="none" /><path d="M 80.58989483394504 108.01547362559985 l -14.48344756943116 5.980992426746803 a36.66979654958111,36.66979654958111 0 0,0 -0.23590445950294614,-0.5854955221023933 l 14.584254643191494 -5.730797536801604" fill="#ff3b05" stroke="none" /><path d="M 80.45479744820244 107.68017299344265 l -17.2924604474891 6.79497116323139 a39.57958076591399,39.57958076591399 0 0,0 -0.24370791449159046,-0.6362444619617236 l 17.406862641574197 -6.496303134436508" fill="#ff6c09" stroke="none" /><path d="M 80.32549172779594 107.34259656027581 l -17.441838449871405 6.5093562306635055 a39.616912930158165,39.616912930158165 0 0,0 -0.23293940955918857,-0.6409492116113371 l 17.551302120435817 -6.208159222046051" fill="#ff6d0a" stroke="none" /><path d="M 80.20201598880116 107.00284435728193 l -20.43760399674147 7.229087554772558 a42.67845391171129,42.67845391171129 0 0,0 -0.23901797624686122,-0.694698120808014 l 20.55901280393156 -6.876216730875248" fill="#ff9f0e" stroke="none" /><path d="M 79.76711848015287 105.62410040840567 l -23.587694055768083 6.556632066582462 a45.48200839239,45.48200839239 0 0,0 -0.20317879519664972,-0.7561038812937896 l 23.69706092730651 -6.149637252113133" fill="#ffcb12" stroke="none" /><path d="M 79.67330655649465 105.27499134158121 l -14.98641828895588 3.8891336131610306 a36.48283221482976,36.48283221482976 0 0,0 -0.15251332813970495,-0.6092149332227043 l 15.051142931390643 -3.6305908405409344" fill="#ff3705" stroke="none" /><path d="M 79.58551787078972 104.9243191809786 l -18.0606633952067 4.356538197506307 a39.57867022532266,39.57867022532266 0 0,0 -0.15405419549709815,-0.6636614422286131 l 18.132978156634355 -4.045008097929119" fill="#ff6c09" stroke="none" /><path d="M 79.35854240842038 103.8639653848113 l -18.087540995811718 3.3858864856851074 a39.40172183707586,39.40172183707586 0 0,0 -0.11905616326305431,-0.6677301900305225 l 18.14314360141396 -3.0740375449213713" fill="#ff6909" stroke="none" /><path d="M 79.23777060512086 103.15116336523772 l -15.85336935420309 2.4061268072140956 a37.034923326701005,37.034923326701005 0 0,0 -0.09023461893038813,-0.631100714634221 l 15.892438024150078 -2.1328806205994737" fill="#ff4106" stroke="none" /><path d="M 79.18660465613746 102.79330883721812 l -30.467901285949832 4.089013661993849 a51.74106441713357,51.74106441713357 0 0,0 -0.11086999089202955,-0.8837429133665392 l 30.53377278608871 -3.5639529943399006" fill="#d6ff1c" stroke="none" /><path d="M 79.1416061653843 102.43462659150553 l -18.285775859099143 2.13434632147902 a39.40991670239776,39.40991670239776 0 0,0 -0.07284772687725409,-0.6744794770026721 l 18.319805887477447 -1.819270522591566" fill="#ff6909" stroke="none" /><path d="M 79.07016306316243 101.71520430193888 l -12.294183131203877 1.0075107541020092 a33.33539690416199,33.33539690416199 0 0,0 -0.04194456688086769,-0.5723002899758627 l 12.30970425674908 -0.7957373276293858" fill="#ff0000" stroke="none" /><path d="M 79.04373962182676 101.35467743843564 l -14.114877165814196 0.9124292835535809 a35.14433754558725,35.14433754558725 0 0,0 -0.03382834797317374,-0.6040278776598498 l 14.128491864674903 -0.6693296895582935" fill="#ff2003" stroke="none" /><line stroke="#e1ed5e" stroke-width="0.3" x1="15.007084014347285" x2="10.007500721073583" y1="101.09737516637583" y2="101.16192664675087" /><path d="M 14.007167355692545 101.11028546245083 a86.0,86.0 0 0,1 10.666146001902534,-42.60595125391555" fill="none" id="id34" stroke="none" /><text fill="#e1ed5e" style="font-size:6.75px; font-family:Arial;" text-anchor="middle"><textPath startOffset="22.20632615414155" xlink:href="#id34">October</textPath></text><path d="M 79.00175016825051 100.2711162175752 l -21.43021475320487 0.27669347742155 a42.432000924993616,42.432000924993616 0 0,0 -0.0031434085167058676,-0.7304174359637177 l 21.431802459011077 0.09223343674584303" fill="#ff9b0e" stroke="none" /><path d="M 79.00019446554 99.90962569577889 l -15.677542721846654 -0.0674695302801152 a36.67768790137255,36.67768790137255 0 0,0 0.00815116706544553,-0.6313168721200132 l 15.674058547663494 0.33732266046060033" fill="#ff3b05" stroke="none" /><path d="M 79.00486145842228 99.54816195383935 l -16.3856330103241 -0.3526365110584264 a37.38942713025548,37.38942713025548 0 0,0 0.01938607174869598,-0.6433293425161488 l 16.37713524411976 0.6346360009995697" fill="#ff4706" stroke="none" /><path d="M 79.01574976396665 99.18683210126434 l -15.37750492199123 -0.5958989825493286 a36.38904653392366,36.38904653392366 0 0,0 0.029642156477082883,-0.6256990735227772 l 15.36496915728065 0.8605091626951149" fill="#ff3605" stroke="none" /><path d="M 79.03285615573316 98.82574320788736 l -21.49028958360875 -1.2035553671713068 a42.523965524717084,42.523965524717084 0 0,0 0.04722065448500531,-0.7304826245266242 l 21.466388338119334 1.5732970559509427" fill="#ff9c0e" stroke="none" /><path d="M 79.05617556472873 98.46500227214037 l -21.4161398686043 -1.569614286036003 a42.47358227866396,42.47358227866396 0 0,0 0.05971687813393404,-0.7286971705396648 l 21.38594850665087 1.938025373783446" fill="#ff9b0e" stroke="none" /><path d="M 79.32604984820605 96.31383870115002 l -15.618035937217751 -2.7846927758421014 a36.86434872259345,36.86434872259345 0 0,0 0.11676216518179622,-0.623748155295336 l 15.567788048126094 3.05311900860001" fill="#ff3e05" stroke="none" /><path d="M 79.3925641242962 95.95851677861259 l -18.807391457402485 -3.688462624443863 a40.16566539319455,40.16566539319455 0 0,0 0.1388980428998345,-0.677316185815493 l 18.741114118587657 4.011654466422758" fill="#ff760a" stroke="none" /><path d="M 79.46518482838121 95.60439243477599 l -14.952883975591222 -3.2007597524358062 a36.291618690652264,36.291618690652264 0 0,0 0.1360168617017189,-0.6097369207824211 l 14.895572726887465 3.4576748427681867" fill="#ff3404" stroke="none" /><path d="M 79.54389044137918 95.25157060432595 l -17.96947351767482 -4.171212323222729 a39.44724886664193,39.44724886664193 0 0,0 0.15923013446857068,-0.6601117058164331 l 17.89501058294544 4.479909260698559" fill="#ff6a09" stroke="none" /><path d="M 79.62865764111835 94.90015583598534 l -18.00424319497053 -4.5072549941874165 a39.55985238643535,39.55985238643535 0 0,0 0.1710561765408336,-0.6591492264177637 l 17.92399068655939 4.816500646154044" fill="#ff6c09" stroke="none" /><path d="M 80.02781315780177 93.51064311812611 l -17.610190385105486 -5.721897710532118 a39.51644995158236,39.51644995158236 0 0,0 0.21576490914194033,-0.6451096152583968 l 17.50908818219177 6.024180428712837" fill="#ff6b09" stroke="none" /><path d="M 80.2630227832202 92.82701384747504 l -20.141569608020305 -7.320026684006026 a42.430483357341416,42.430483357341416 0 0,0 0.25538182876314336,-0.6842963332282442 l 20.01258319075553 7.665646154263612" fill="#ff9b0e" stroke="none" /><path d="M 80.38941819471856 92.48833698450439 l -17.231262676778588 -6.600285490998984 a39.452105083128984,39.452105083128984 0 0,0 0.2483725125111892,-0.6320809530559837 l 17.11509661438571 6.895915448950731" fill="#ff6a09" stroke="none" /><path d="M 80.803312248108 91.48605970444005 l -19.493651963172717 -8.645647160694155 a42.32486064874813,42.32486064874813 0 0,0 0.3011064817034278,-0.6634482192568663 l 19.34194316450594 8.979917388793092" fill="#ff990e" stroke="none" /><path d="M 80.95270993114464 91.15688171328213 l -19.500510760047575 -9.053535840486017 a42.49968444228185,42.49968444228185 0 0,0 0.31377275414699957,-0.6608854422624388 l 19.341779812058824 9.387863698388987" fill="#ff9c0e" stroke="none" /><path d="M 81.10775173730289 90.83032412892265 l -19.64431936866508 -9.534706447525227 a42.83597743400989,42.83597743400989 0 0,0 0.32767480286320244,-0.6605724075847125 l 19.477284552848463 9.871438443608902" fill="#ffa10e" stroke="none" /><path d="M 81.26839172434947 90.50648371742162 l -18.978332097731997 -9.618560357158733 a42.27660199740809,42.27660199740809 0 0,0 0.33457011666730985,-0.6462829738719611 l 18.809952547904572 9.943816053291028" fill="#ff980e" stroke="none" /><path d="M 81.43458229118936 90.18545643968196 l -27.083262014382097 -14.317472354501025 a51.634834681479404,51.634834681479404 0 0,0 0.42215632919062723,-0.7821915635553601 l 26.832797585972997 14.781544901388859" fill="#d7ff1c" stroke="none" /><line stroke="#e1ed5e" stroke-width="0.3" x1="26.266209847984243" x2="21.928928074336255" y1="57.711370442889674" y2="55.22380399835377" /><path d="M 25.398753493254645 57.213857153982495 a86.0,86.0 0 0,1 29.58750427330803,-30.492523968695096" fill="none" id="id35" stroke="none" /><text fill="#e1ed5e" style="font-size:6.75px; font-family:Arial;" text-anchor="middle"><textPath startOffset="21.46611528233685" xlink:href="#id35">November</textPath></text><path d="M 82.34701348167596 88.62581576622439 l -12.923303669519285 -8.326751776168916 a36.373567343871194,36.373567343871194 0 0,0 0.3436494354790153,-0.5234016666671288 l 12.778057598682349 8.547971506813711" fill="#ff3505" stroke="none" /><path d="M 82.54541684631803 88.32363383020206 l -52.36374946104589 -35.02909850939381 a84.0,84.0 0 0,0 0.8143021373250385,-1.194887906918337 l 51.75302285805211 35.92526443958256" fill="#4dd2ff" stroke="none" /><path d="M 82.95767976084542 87.72973835380427 l -12.379941959639666 -8.913406442187087 a36.25489355346897,36.25489355346897 0 0,0 0.36900124912927484,-0.5033172891203908 l 12.224678097996756 9.125186174978978" fill="#ff3304" stroke="none" /><path d="M 83.17141714833178 87.43820079747576 l -17.176474150544774 -12.82148480286933 a42.4341255197067,42.4341255197067 0 0,0 0.44196972412904745,-0.5815803498450968 l 16.953228486191616 13.115249928595453" fill="#ff9b0e" stroke="none" /><path d="M 83.6137871275137 86.86637796730984 l -14.327288765672101 -11.483385262100175 a39.361354537527276,39.361354537527276 0 0,0 0.42829185074955767,-0.5250351672204826 l 14.127498422846152 11.72830459892874" fill="#ff6809" stroke="none" /><path d="M 84.07557802195018 86.31012108654704 l -16.24924891586357 -13.969125560686221 a42.428358762628335,42.428358762628335 0 0,0 0.48087117145446867,-0.5497188759596054 l 16.006385880831257 14.24675999284877" fill="#ff9b0e" stroke="none" /><path d="M 84.31358615837235 86.03803664274999 l -15.985527996367342 -14.228195072814458 a42.4004355178278,42.4004355178278 0 0,0 0.4899397770976302,-0.5410037388361371 l 15.738244578653665 14.50125159892015" fill="#ff9a0e" stroke="none" /><path d="M 85.05521093208273 85.24692304244772 l -10.909813378174489 -10.769862032129195 a36.3301649090182,36.3301649090182 0 0,0 0.4431660773194383,-0.44126298134571307 l 10.722811500687737 10.956060864125018" fill="#ff3505" stroke="none" /><path d="M 85.31137513191541 84.99185889309783 l -14.976992333059822 -15.302781322977921 a42.41227254551498,42.41227254551498 0 0,0 0.5261479845039644,-0.5061539442263066 l 14.71136110494343 15.558318353966541" fill="#ff9a0e" stroke="none" /><path d="M 85.83668400450813 84.49514656593479 l -14.363788235540985 -15.724314236927315 a42.297240917478035,42.297240917478035 0 0,0 0.541785383895604,-0.48642026704264596 l 14.090991864049409 15.969233512739239" fill="#ff990e" stroke="none" /><path d="M 86.10567301691215 84.25364557470407 l -14.10183587722701 -15.981522965484588 a42.31363064812183,42.31363064812183 0 0,0 0.5502911872272389,-0.4772070949040542 l 13.824650891352997 16.22189505380832" fill="#ff990e" stroke="none" /><path d="M 86.65592168130627 83.78471172551755 l -11.659490406900296 -14.16823204766371 a39.34891048277922,39.34891048277922 0 0,0 0.5267069050904256,-0.42589368723976695 l 11.41388010324537 14.36683183216761" fill="#ff6809" stroke="none" /><path d="M 87.22198572758235 83.33499621200491 l -11.146973567169255 -14.537811021431061 a39.3194696703265,39.3194696703265 0 0,0 0.5406499094993861,-0.4072063029868442 l 10.895077503911478 14.727533913923759" fill="#ff6809" stroke="none" /><path d="M 87.80319425747018 82.90503203632743 l -12.499185974409627 -17.51878223815989 a42.520626875882236,42.520626875882236 0 0,0 0.5994777877776591,-0.4199725004398496 l 12.195777047048308 17.731339581363684" fill="#ff9c0e" stroke="none" /><path d="M 88.09926311788651 82.69761687909137 l -12.156904673976832 -17.674823359018454 a42.452032818002685,42.452032818002685 0 0,0 0.6056395116749108,-0.4089305017994314 l 11.850860467895382 17.881465773116552" fill="#ff9b0e" stroke="none" /><path d="M 88.70189139769569 82.29822771554957 l -11.45508649981813 -17.947723805478876 a42.29177767393011,42.29177767393011 0 0,0 0.6170186043534948,-0.38637699344076454 l 11.144448743092394 18.142245140242572" fill="#ff980e" stroke="none" /><path d="M 89.00827224532344 82.1063720568725 l -11.0635871101829 -18.010609058413614 a42.13728928693591,42.13728928693591 0 0,0 0.6213001519045724,-0.37432638974766164 l 10.751924892060677 18.19838205761989" fill="#ff960d" stroke="none" /><line stroke="#e1ed5e" stroke-width="0.3" x1="56.762969772571076" x2="54.21961505331055" y1="26.818313649435495" y2="22.513508569990535" /><path d="M 56.25429882871897 25.957352633546506 a86.0,86.0 0 0,1 42.265352541879196,-11.944610805530505" fill="none" id="id36" stroke="none" /><text fill="#e1ed5e" style="font-size:6.75px; font-family:Arial;" text-anchor="middle"><textPath startOffset="22.20632615414155" xlink:href="#id36">December</textPath></text><path d="M 89.94658935756843 81.56283822128135 l -8.759543003709426 -16.06431063159798 a39.29731318260434,39.29731318260434 0 0,0 0.5966734745905676,-0.3187223060152743 l 8.481724482590554 16.212711664115" fill="#ff6709" stroke="none" /><path d="M 90.26544431104013 81.39251694778311 l -11.30122781892819 -21.602157492245784 a45.379724332631554,45.379724332631554 0 0,0 0.6952595419112948,-0.35613894139407937 l 10.927707789428132 21.79348895895237" fill="#ffc912" stroke="none" /><path d="M 91.23893434514133 80.91482961587045 l -12.730260732723165 -27.73169437255344 a51.5140362963641,51.5140362963641 0 0,0 0.8090595390710713,-0.3630014316616901 l 12.251019075185319 27.94671613473166" fill="#d9ff1c" stroke="none" /><path d="M 91.56875222667455 80.76684994638697 l -7.355778183481404 -16.779815914268937 a39.32129075150913,39.32129075150913 0 0,0 0.622243027684582,-0.26641199091605955 l 7.065851398006514 16.90394743314778" fill="#ff6809" stroke="none" /><path d="M 92.23578459929587 80.48803036053334 l -7.948848786315071 -19.97596514043457 a42.49938092875141,42.49938092875141 0 0,0 0.6820479452419483,-0.2646240065032856 l 7.603817676073446 20.109831850828407" fill="#ff9c0e" stroke="none" /><path d="M 92.57280143429618 80.3572730644239 l -7.539195692011946 -19.938925960037142 a42.31666578342623,42.31666578342623 0 0,0 0.6835505213387303,-0.251757425729204 l 7.194862844900646 20.06574665357267" fill="#ff990e" stroke="none" /><path d="M 93.59665428221793 80.00007090966166 l -7.476744993445722 -23.352537296276232 a45.5202510972255,45.5202510972255 0 0,0 0.74829792936394,-0.23249980918104712 l 7.073661691371053 23.477777240339805" fill="#ffcc13" stroke="none" /><path d="M 94.98787191387505 79.60689891045804 l -7.291417413691167 -29.66696178716604 a51.54985089295607,51.54985089295607 0 0,0 0.8635245945121529,-0.2043683721603412 l 6.77966913221648 29.788076071467255" fill="#d8ff1c" stroke="none" /><path d="M 95.33964822691252 79.52364482259891 l -3.658518375677771 -16.074563752039815 a37.485640919405114,37.485640919405114 0 0,0 0.6303965157360197,-0.13778026162872684 l 3.3812791357882306 16.13515751176441" fill="#ff4906" stroke="none" /><path d="M 96.04723909329186 79.375362276772 l -5.740243153614756 -29.951327257266303 a51.49643251159854,51.49643251159854 0 0,0 0.8720182212819061,-0.15935575613907285 l 5.223829811229956 30.045698494756113" fill="#d9ff1c" stroke="none" /><path d="M 97.47563105711357 79.15227682838746 l -2.6198982273478486 -21.63666017816466 a42.79469959386999,42.79469959386999 0 0,0 0.7320610003532024,-0.08225558312470134 l 2.247070523484928 21.678551714759962" fill="#ffa10e" stroke="none" /></svg>