<?xml version="1.0" encoding="utf-8" ?>
<svg baseProfile="full" height="200mm" version="1.1" viewBox="0,0,200,200" width="200mm" xmlns="http://www.w3.org/2000/svg" xmlns:ev="http://www.w3.org/2001/xml-events" xmlns:xlink="http://www.w3.org/1999/xlink"><defs /><rect fill="#1a1a1a" height="200" width="200" x="0" y="0" /><text alignment-baseline="middle" fill="#e1ed5e" style="dominant-baseline: central; font-size:9.0px; font-family:Arial;" text-anchor="middle" x="100.0" y="100.0">2019</text><line stroke="#e1ed5e" stroke-width="0.3" x1="100.0" x2="100.0" y1="15.0" y2="10.0" /><path d="M 100.0 14.0 a86.0,86.0 0 0,1 42.46469731375804,11.215312516191453" fill="none" id="id85" stroke="none" /><text fill="#e1ed5e" style="font-size:6.75px; font-family:Arial;" text-anchor="middle"><textPath startOffset="22.20632615414155" xlink:href="#id85">January</textPath></text><path d="M 100.0 79.0 l 0.0 -1.4229683107878799 a22.42296831078788,22.42296831078788 0 0,0 0.3859745396045866,0.0033222047188877233 l -0.024494060332058233 1.422757482677551" fill="#ff0000" stroke="none" /><path d="M 100.36148047927253 79.00311137660856 l 0.024678214587697974 -1.4334542328948041 a22.43366664607895,22.43366664607895 0 0,0 0.38604426670524833,0.009970384467469928 l -0.04934911648781412 1.4328170562849747" fill="#ff0000" stroke="none" /><path d="M 100.72285384407766 79.0124445844662 l 0.09850002794999814 -2.8598793683804695 a23.861575135689158,23.861575135689158 0 0,0 0.4103726958992819,0.017671511527319626 l -0.14771355623861157 2.857760130328955" fill="#ff1502" stroke="none" /><path d="M 101.44485096284872 79.0497635885617 l 0.09863884408682588 -1.4302562382597646 a22.433653559491887,22.433653559491887 0 0,0 0.38501470625177675,0.029884551261028815 l -0.12324373970094382 1.4283464248102713" fill="#ff0000" stroke="none" /><path d="M 101.80526077348638 79.07773832637324 l 0.3054101320487974 -3.539583197258269 a24.55273479999157,24.55273479999157 0 0,0 0.42075772932066213,0.039956016307283175 l -0.3662929884597037 3.5338016364358076" fill="#ff1f03" stroke="none" /><path d="M 102.16513564639614 79.11191278185805 l 0.25293603597552217 -2.4401935226838702 a23.45326742660545,23.45326742660545 0 0,0 0.4011997414822599,0.04507946560352117 l -0.2949024809675074 2.435478103609748" fill="#ff0f01" stroke="none" /><path d="M 102.52436894288641 79.15227682838746 l 0.17104319476503224 -1.4125752833784802 a22.42289307598541,22.42289307598541 0 0,0 0.38277509104686513,0.049695192536553794 l -0.19533301431974345 1.4094217676777896" fill="#ff0000" stroke="none" /><path d="M 102.88285421437855 79.19881850522331 l 0.3999768367424804 -2.886025499759962 a23.913610244215114,23.913610244215114 0 0,0 0.40724994348906635,0.0600180554045188 l -0.4495957606602025 2.878712960194474" fill="#ff1602" stroke="none" /><path d="M 103.2404852339499 79.25152402106235 l 0.22105787453880352 -1.4154096280922237 a22.432567973672377,22.432567973672377 0 0,0 0.381001991786351,0.06286859319578622 l -0.2453890724640297 1.4113947719568127" fill="#ff0000" stroke="none" /><path d="M 103.95276090670814 79.375362276772 l 0.31980426129955175 -1.6686683529110404 a22.699037620993778,22.699037620993778 0 0,0 0.3831095907452203,0.07684817979558449 l -0.34848026151189737 1.6629162170382477" fill="#ff0400" stroke="none" /><path d="M 106.0581310904928 79.89281104454417 l 0.7256969747700212 -2.4086184300307925 a23.515567299969206,23.515567299969206 0 0,0 0.3865675143311853,0.12010840841693841 l -0.7670498618119247 2.3957698867313337" fill="#ff1001" stroke="none" /><line stroke="#e1ed5e" stroke-width="0.3" x1="143.23703022742887" x2="145.7803849466894" y1="26.81831364943548" y2="22.513508569990506" /><path d="M 143.74570117128098 25.957352633546492 a86.0,86.0 0 0,1 28.547481713284135,27.462654790039103" fill="none" id="id86" stroke="none" /><text fill="#e1ed5e" style="font-size:6.75px; font-family:Arial;" text-anchor="middle"><textPath startOffset="19.985693538727396" xlink:href="#id86">February</textPath></text><path d="M 117.2510076193507 88.02491185347247 l 1.172874338739067 -0.814171200959052 a22.427763621522733,22.427763621522733 0 0,0 0.2174163791955635,0.31903170869739705 l -1.1867151836033638 0.7938614689912485" fill="#ff0000" stroke="none" /><path d="M 117.45458315368197 88.32363383020206 l 1.201613483757103 -0.8038277916682768 a22.44568810018108,22.44568810018108 0 0,0 0.21206190670392916,0.3229848326412383 l -1.215272025818957 0.7830248950493646" fill="#ff0000" stroke="none" /><path d="M 117.65298651832404 88.62581576622439 l 1.1984039981850092 -0.7721564760557972 a22.42562188759177,22.42562188759177 0 0,0 0.20628625170025766,0.3262953104393071 l -1.2115178461312224 0.7514135179022838" fill="#ff0000" stroke="none" /><line stroke="#e1ed5e" stroke-width="0.3" x1="172.23445277983987" x2="176.4835382374775" y1="55.19839476539836" y2="52.563006222186495" /><path d="M 173.08426987136738 54.67131705675599 a86.0,86.0 0 0,1 12.851231095245387,41.99856678651699" fill="none" id="id87" stroke="none" /><text fill="#e1ed5e" style="font-size:6.75px; font-family:Arial;" text-anchor="middle"><textPath startOffset="22.20632615414155" xlink:href="#id87">March</textPath></text><path d="M 120.53481517161879 95.60439243477599 l 1.3951118534971256 -0.2986325499555126 a22.426715978624028,22.426715978624028 0 0,0 0.07755447165152696,0.3781831466828458 l -1.4000456210636496 0.274573747109255" fill="#ff0000" stroke="none" /><line stroke="#e1ed5e" stroke-width="0.3" x1="184.98032266829074" x2="189.97916517819016" y1="98.17113171792111" y2="98.06355123074" /><path d="M 185.9800911702706 98.14961562048488 a86.0,86.0 0 0,1 -9.607161424134198,41.387399972396054" fill="none" id="id88" stroke="none" /><text fill="#e1ed5e" style="font-size:6.75px; font-family:Arial;" text-anchor="middle"><textPath startOffset="21.466115282336823" xlink:href="#id88">April</textPath></text><line stroke="#e1ed5e" stroke-width="0.3" x1="174.80103733775053" x2="179.2010983576182" y1="140.37084112569926" y2="142.7455964860345" /><path d="M 175.68104954172406 140.8457921977663 a86.0,86.0 0 0,1 -30.038265399797805,32.042727171017184" fill="none" id="id89" stroke="none" /><text fill="#e1ed5e" style="font-size:6.75px; font-family:Arial;" text-anchor="middle"><textPath startOffset="22.206326154141568" xlink:href="#id89">May</textPath></text><path d="M 117.55443506779139 111.5257021239791 l 1.2052066522667697 0.7913016179798107 a22.441763269502154,22.441763269502154 0 0,0 -0.21479641553703221,0.32109149726749514 l -1.1914071313190164 -0.8119300294531127" fill="#ff0000" stroke="none" /><path d="M 117.35343817320211 111.8261652097733 l 1.8213985846255878 1.2412618386996443 a23.204137871433662,23.204137871433662 0 0,0 -0.22777523480485976,0.328127214016158 l -1.7997624426585916 -1.272430314902822" fill="#ff0b01" stroke="none" /><path d="M 117.14729908036423 112.12312394758627 l 2.357988237628335 1.667095414720649 a23.887787327795486,23.887787327795486 0 0,0 -0.24026587614592412,0.33370828771931044 l -2.3289425691068084 -1.7074373078910905" fill="#ff1502" stroke="none" /><path d="M 116.93607887273984 112.41649034213515 l 2.3065551691005557 1.6910242445101344 a23.860027927070917,23.860027927070917 0 0,0 -0.24568867693188304,0.3291401326200239 l -2.277105225473581 -1.7304772566394733" fill="#ff1502" stroke="none" /><path d="M 116.71984013943494 112.70617746262583 l 2.4802214349216545 1.8848346297519127 a24.115140437886687,24.115140437886687 0 0,0 -0.2540049841280676,0.32833568220196074 l -2.447409633575518 -1.9272483060671264" fill="#ff1902" stroke="none" /><path d="M 116.498646956653 112.99209946851258 l 3.362722623771766 2.648024830632736 a25.28017977987771,25.28017977987771 0 0,0 -0.2721617061077817,0.3395635751448294 l -3.31664300560913 -2.7055162393558154" fill="#ff2a04" stroke="none" /><path d="M 116.27256486870786 113.27417163493432 l 2.2159023792888433 1.807598786439812 a23.859656749904897,23.859656749904897 0 0,0 -0.2623471516533361,0.31601404448168996 l -2.1844592277419634 -1.8454740880352725" fill="#ff1502" stroke="none" /><path d="M 116.0416608686014 113.55231037782055 l 3.2783826009422694 2.769642053222752 a25.291702410598962,25.291702410598962 0 0,0 -0.283818053274497,0.3301445158065125 l -3.2302220380969935 -2.8256636681907925" fill="#ff2a04" stroke="none" /><path d="M 115.80600337817218 113.82643327865902 l 3.758749717803163 3.2879976639859323 a25.99390909803756,25.99390909803756 0 0,0 -0.29749552451232725,0.3342393755180017 l -3.7015953436424973 -3.3522112092448" fill="#ff3404" stroke="none" /><path d="M 115.56566222782051 114.09645910891815 l 4.485840171959925 4.062433170376555 a27.051952190173445,27.051952190173445 0 0,0 -0.3155463266529039,0.34246321642532823 l -4.415247437311299 -4.139047641603218" fill="#ff4306" stroke="none" /><path d="M 115.32070863581623 114.36230785411682 l 3.156007794258499 2.958580873026168 a25.325920246566813,25.325920246566813 0 0,0 -0.3008881515151076,0.3154800239286131 l -3.1046130913644268 -3.012468013537288" fill="#ff2a04" stroke="none" /><path d="M 115.07121518719521 114.62390073753431 l 5.3243021059286 5.166276542842936 a28.418800862155884,28.418800862155884 0 0,0 -0.3436771858868721,0.3481431748314326 l -5.234584294986193 -5.257160211655033" fill="#ff5607" stroke="none" /><path d="M 114.81725581225074 114.88116024355365 l 5.346996382379643 5.3700571142266424 a28.578118745654304,28.578118745654304 0 0,0 -0.35157896852142845,0.3440940182621527 l -5.253767461482421 -5.4613012354113675" fill="#ff5808" stroke="none" /><path d="M 114.55890576462653 115.13401014063108 l 3.55107667946618 3.6913509398333764 a26.122130156922733,26.122130156922733 0 0,0 -0.3267308343620396,0.30894439739973495 l -3.4870100107133326 -3.7519299739790326" fill="#ff3605" stroke="none" /><path d="M 114.29624159901734 115.38237550388516 l 4.104259107120485 4.416073575261013 a27.02881817941958,27.02881817941958 0 0,0 -0.3435239880697764,0.31380101822659806 l -4.027635569583845 -4.486067360074194" fill="#ff4206" stroke="none" /><path d="M 114.0293411484842 115.62618273729858 l 2.869253283179968 3.1958361870335095 a25.294878733723678,25.294878733723678 0 0,0 -0.3264938244322063,0.28809283927537976 l -2.813817105841174 -3.244752168081178" fill="#ff2a04" stroke="none" /><path d="M 113.75828350139079 115.86535959552629 l 3.9119341909622896 4.511045483789966 a26.9709932566736,26.9709932566736 0 0,0 -0.35336435123421733,0.3011447661976825 l -3.833704363151025 -4.577714640210594" fill="#ff4206" stroke="none" /><path d="M 113.48314897796784 116.09983520530334 l 5.506329254195936 6.574947271112684 a29.576105962120927,29.576105962120927 0 0,0 -0.3931226026359719,0.32351313831888023 l -5.392336523015273 -6.6687555282887425" fill="#ff6609" stroke="none" /><path d="M 113.20401910651253 116.32954008644616 l 1.394815185068213 1.724981635820355 a23.218348720200307,23.218348720200307 0 0,0 -0.3129418874632561,0.24861996190359692 l -1.3649158048876058 -1.748735511729078" fill="#ff0c01" stroke="none" /><path d="M 112.92097659922987 116.55440617244103 l 5.265602554890517 6.746310758081268 a29.557995040351017,29.557995040351017 0 0,0 -0.4037780771623096,0.30959981158756666 l -5.148695749234714 -6.835949911496207" fill="#ff6609" stroke="none" /><path d="M 112.63410532772338 116.77436683061366 l 2.285912192643769 3.0350174125775307 a24.799569087031614,24.799569087031614 0 0,0 -0.34319654780164527,0.2538886013929793 l -2.2333306744235593 -3.073915962710279" fill="#ff2303" stroke="none" /><path d="M 112.34349029814194 116.9893568818739 l 3.369715760149064 4.638015849395948 a26.73290287057482,26.73290287057482 0 0,0 -0.3746077505752512,0.2672726835827774 l -3.289380681724928 -4.695332794822944" fill="#ff3e05" stroke="none" /><path d="M 112.04921762599082 117.19931262002967 l 3.274429275845704 4.673990836215522 a26.706844786705005,26.706844786705005 0 0,0 -0.37878332634120604,0.2605306257882542 l -3.1934890648816148 -4.72966225136887" fill="#ff3e05" stroke="none" /><path d="M 111.7513745106137 117.40417183066458 l 3.2155667625602073 4.7623600471608984 a26.746298184333657,26.746298184333657 0 0,0 -0.3837779218088138,0.2543470798044337 l -3.1331141420114297 -4.8170051480566505" fill="#ff3e05" stroke="none" /><path d="M 111.45004920935366 117.60387380957326 l 5.451125103693298 8.380830220993484 a30.997653729212317,30.997653729212317 0 0,0 -0.44978805643518205,0.287076018602269 l -5.306055245211185 -8.473420668419562" fill="#ff790b" stroke="none" /><path d="M 111.1453310114006 117.79835938074945 l 6.2590895948358325 9.995353739717968 a32.793358255317955,32.793358255317955 0 0,0 -0.48100173555759357,0.29547055206357015 l -6.08610865934593 -10.101612758609916" fill="#ff920d" stroke="none" /><line stroke="#e1ed5e" stroke-width="0.3" x1="143.8653032363475" x2="146.44561519142675" y1="172.8068346515853" y2="177.08958963109032" /><path d="M 144.38136562736335 173.6633856474863 a86.0,86.0 0 0,1 -40.68145358897372,12.25698825130547" fill="none" id="id90" stroke="none" /><text fill="#e1ed5e" style="font-size:6.75px; font-family:Arial;" text-anchor="middle"><textPath startOffset="21.466115282336833" xlink:href="#id90">June</textPath></text><path d="M 110.8373102113329 117.98757091392108 l 2.2069499459039634 3.663055488981828 a25.27651769306353,25.27651769306353 0 0,0 -0.37461259117147283,0.2213277219448963 l -2.1435694837041086 -3.7005017832204734" fill="#ff2904" stroke="none" /><path d="M 110.5260780823613 118.17145234162733 l 5.739491746827079 9.908239320150987 a32.45054461313008,32.45054461313008 0 0,0 -0.48575565301028956,0.27582473722304246 l -5.568087326895591 -10.005567223168656" fill="#ff8d0d" stroke="none" /><path d="M 110.21172684928248 118.3499491758327 l 2.775094704892898 4.986702792239798 a26.706869138087608,26.706869138087608 0 0,0 -0.40362623956372434,0.22008920793212103 l -2.688845653460525 -5.03373265193169" fill="#ff3e05" stroke="none" /><path d="M 109.89434966115114 118.52300852407294 l 2.69249589021357 5.040566185090217 a26.714616486265015,26.714616486265015 0 0,0 -0.4074730807650642,0.21317065748916558 l -2.60533190692201 -5.0861662615241" fill="#ff3e05" stroke="none" /><path d="M 109.57404056367764 118.69057910512821 l 1.954744140460429 3.816079506302755 a25.287596932209027,25.287596932209027 0 0,0 -0.38912324441603624,0.19511447281624464 l -1.8887669883616325 -3.8491618200283018" fill="#ff2a04" stroke="none" /><path d="M 109.2508944713604 118.85261126421891 l 5.032375244462348 10.255593609163242 a32.42374723448429,32.42374723448429 0 0,0 -0.5031661180800436,0.24155031403306113 l -4.8550964583820715 -10.340698199695863" fill="#ff8d0d" stroke="none" /><path d="M 108.92500713936063 119.00905698771935 l 2.4314388676459515 5.178635633063345 a26.721028053342582,26.721028053342582 0 0,0 -0.41803394769141183,0.19189888211476097 l -2.34193692418712 -5.21972158551218" fill="#ff3e05" stroke="none" /><path d="M 108.59647513512805 119.15986991738527 l 2.3447367127126366 5.225961769203967 a26.727867549544413,26.727867549544413 0 0,0 -0.42138306457809904,0.18472195220427529 l -2.2544329734767836 -5.265548274702697" fill="#ff3e05" stroke="none" /><path d="M 108.2653958097858 119.30500536409082 l 4.726266642215724 11.038866737884943 a33.00808790899299,33.00808790899299 0 0,0 -0.5242447326221873,0.21913434075358101 l -4.535550450096076 -11.118586121658497" fill="#ff940d" stroke="none" /><path d="M 107.93186726928326 119.44442032107085 l 2.704606933263137 6.630155577275932 a28.160576907089133,28.160576907089133 0 0,0 -0.45040686998063656,0.17922618890371653 l -2.5900789872406342 -6.675728610585717" fill="#ff5207" stroke="none" /><path d="M 107.59598834532513 119.57807347666477 l 2.589041972779339 6.673055785879226 a28.15770995907695,28.15770995907695 0 0,0 -0.4533790596361381,0.17142916625037785 l -2.473792692382926 -6.716633202236236" fill="#ff5207" stroke="none" /><path d="M 107.2578585660854 119.70592522655815 l 2.4768043803305932 6.7248102832529115 a28.166424023470068,28.166424023470068 0 0,0 -0.45640395915217086,0.16365022167689156 l -2.3606808605486873 -6.766448045969763" fill="#ff5207" stroke="none" /><path d="M 106.91757812671514 119.82793768551818 l 4.699883981223294 13.471334186884288 a35.26764711547341,35.26764711547341 0 0,0 -0.5749134788436023,0.19504186643438612 l -4.467300769442465 -13.550239040216796" fill="#ffb210" stroke="none" /><path d="M 106.57524785965236 119.94407469862006 l 2.236084741013316 6.782503421790689 a28.14159839500899,28.14159839500899 0 0,0 -0.46135960202022125,0.14771277531083865 l -2.1190037939021544 -6.819989043761234" fill="#ff5207" stroke="none" /><path d="M 106.2309692047433 120.05430185196036 l 4.230449407951437 13.615652173649309 a35.25772374213492,35.25772374213492 0 0,0 -0.581122882448819,0.17508755745813506 l -3.9954515510623723 -13.68645510021317" fill="#ffb210" stroke="none" /><path d="M 105.88484417918355 120.15858648285463 l 1.2023566014797527 4.118683315336901 a25.29059595501097,25.29059595501097 0 0,0 -0.4189433368003833,0.11839757169167134 l -1.1312820965747636 -4.1387696803670915" fill="#ff2a04" stroke="none" /><path d="M 105.53697534728816 120.25689768951611 l 1.8821521160702657 6.885810475933374 a28.13840896128133,28.13840896128133 0 0,0 -0.46831632647840143,0.12368659828380099 l -1.7633453467803668 -6.917188423520758" fill="#ff5207" stroke="none" /><path d="M 105.18746579009965 120.34920634021253 l 1.8515922973813088 7.2633604233632125 a28.495651984677572,28.495651984677572 0 0,0 -0.47634785849150757,0.11707471413139504 l -1.7262911541465902 -7.2941563958086375" fill="#ff5708" stroke="none" /><path d="M 104.83641907484287 120.43548508189849 l 1.649758014482247 6.970778332477277 a28.163340845365596,28.163340845365596 0 0,0 -0.4727147701796367,0.10758834266572605 l -1.5295230949097482 -6.998143408720687" fill="#ff5207" stroke="none" /><path d="M 104.48393922423573 120.51570834832081 l 3.6559440193159385 16.727318879050546 a38.12218220770392,38.12218220770392 0 0,0 -0.6422835035252711,0.13459675296925278 l -3.3674690543612895 -16.78777161274634" fill="#ffd714" stroke="none" /><path d="M 104.13013068566511 120.58985236759428 l 1.403735308914821 6.998011678916423 a28.137411314737637,28.137411314737637 0 0,0 -0.4756996313737342,0.09116896652744103 l -1.2830680629693825 -7.021137843792332" fill="#ff5207" stroke="none" /><path d="M 103.7750983002368 120.6578951692458 l 1.284757690519093 7.030383735162843 a28.14681032258379,28.14681032258379 0 0,0 -0.4773578783890161,0.08299478596542881 l -1.163550840658027 -7.051457099649278" fill="#ff5207" stroke="none" /><path d="M 103.41894727170886 120.7198165907248 l 2.6702224259117187 16.18232588117035 a37.401151140338825,37.401151140338825 0 0,0 -0.6361118974803067,0.09934759608451547 l -2.3912746648228946 -16.22589178460197" fill="#ffce13" stroke="none" /><path d="M 103.06178313531738 120.77559828337769 l 1.0401854591779793 7.0581338667711915 a28.134370292516905,28.134370292516905 0 0,0 -0.4797196955577578,0.06648477858848408 l -0.9185371724333911 -7.074993210852278" fill="#ff5207" stroke="none" /><path d="M 102.70371172650421 120.8252237178851 l 0.9227637424580332 7.107548185356267 a28.16719848556996,28.16719848556996 0 0,0 -0.48135405266379755,0.058285272260882794 l -0.8002822667428553 -7.1223789863425" fill="#ff5207" stroke="none" /><path d="M 102.34483914955558 120.86867818915974 l 0.6889660939984174 6.1316835748074 a27.17026885477791,27.17026885477791 0 0,0 -0.4652163343638171,0.04822157521163859 l -0.5833171630289976 -6.142634518474797" fill="#ff4406" stroke="none" /><path d="M 101.98527174616119 120.90594882070398 l 1.6188239814507905 17.047062383967784 a38.12375329785528,38.12375329785528 0 0,0 -0.6538326847258199,0.05641543522260117 l -1.325146978983429 -17.07240207146905" fill="#ffd714" stroke="none" /><path d="M 101.62511606390274 120.93702456842531 l 0.55156425965238 7.10602443229457 a28.127398288638936,28.127398288638936 0 0,0 -0.4830374888231517,0.033313093328012286 l -0.429164010050298 -7.114465870138867" fill="#ff5207" stroke="none" /><path d="M 101.26447882468166 120.96189622390904 l 0.4310478301841829 7.14569489618519 a28.15868408167825,28.15868408167825 0 0,0 -0.4840771872029176,0.02502126125172503 l -0.3079825745677857 -7.152055964199117" fill="#ff5207" stroke="none" /><path d="M 100.90346689309514 120.98055641714683 l 0.6136248413309182 14.249764657563766 a35.26297052657166,35.26297052657166 0 0,0 -0.6066568376546148,0.02089448811223071 l -0.36824765200165116 -14.258215944102089" fill="#ffb210" stroke="none" /><line stroke="#e1ed5e" stroke-width="0.3" x1="102.19456741930631" x2="102.32365962044197" y1="184.97166512339345" y2="189.96999836594603" /><path d="M 102.22038585953345 185.97133177190398 a86.0,86.0 0 0,1 -42.740103519485714,-10.115201625700543" fill="none" id="id91" stroke="none" /><text fill="#e1ed5e" style="font-size:6.75px; font-family:Arial;" text-anchor="middle"><textPath startOffset="22.20632615414155" xlink:href="#id91">July</textPath></text><path d="M 100.54218724476979 120.99299961872073 l 0.1849980642284948 7.162957685332152 a28.16534626418202,28.16534626418202 0 0,0 -0.48476626133363504,0.008345690812819438 l -0.06167211300219183 -7.165080853424131" fill="#ff5207" stroke="none" /><path d="M 100.18074693466247 120.99922214144158 l 0.061711310071776215 7.169634778352558 a28.1699003577981,28.1699003577981 0 0,0 -0.4849164894684584,0.0 l 0.06171131007177128 -7.169634778352558" fill="#ff5207" stroke="none" /><path d="M 99.81925306533755 120.99922214144158 l -0.0613833672258493 7.131534300001027 a28.1317984681189,28.1317984681189 0 0,0 -0.484188855342565,-0.008335750245046254 l 0.1841319124610822 -7.129421072476821" fill="#ff5207" stroke="none" /><path d="M 99.45781275523022 120.99299961872073 l -0.2956319962951309 11.446603448114256 a32.45042046283081,32.45042046283081 0 0,0 -0.5582703091819754,-0.019227958237000707 l 0.4926226571517494 -11.439818691451162" fill="#ff8d0d" stroke="none" /><path d="M 99.09653310690486 120.98055641714683 l -0.30741251093558924 7.138817789908468 a28.14543363900284,28.14543363900284 0 0,0 -0.48384939825506573,-0.025009487165019814 l 0.4302499776041439 -7.1324684959812465" fill="#ff5207" stroke="none" /><path d="M 98.73552117531835 120.96189622390904 l -0.9634459359687053 15.971523866528543 a37.00055632441027,37.00055632441027 0 0,0 -0.6354180229751913,-0.04382214712411992 l 1.2382267197228267 -15.952573374888138" fill="#ffc912" stroke="none" /><path d="M 98.37488393609728 120.93702456842531 l -0.5536471509507428 7.132859159521716 a28.154313730703226,28.154313730703226 0 0,0 -0.4828540985809572,-0.0416626833696522 l 0.6763455672732417 -7.1222722238734" fill="#ff5207" stroke="none" /><path d="M 98.01472825383883 120.90594882070398 l -0.6801897492606791 7.162753468842628 a28.194977091722837,28.194977091722837 0 0,0 -0.4827616524588362,-0.050040219170660406 l 0.8033839983251085 -7.149983881216207" fill="#ff5307" stroke="none" /><path d="M 97.65516085044442 120.86867818915974 l -0.7983999167808915 7.1056263849527594 a28.150340463897685,28.150340463897685 0 0,0 -0.4810659630599862,-0.05825038862190948 l 0.920593302892267 -7.090830467605501" fill="#ff5207" stroke="none" /><path d="M 97.2962882734958 120.8252237178851 l -0.9203176733208273 7.088707442642363 a28.148199621387185,28.148199621387185 0 0,0 -0.47995549971354373,-0.06651745889582063 l 1.042201764221202 -7.071815418253937" fill="#ff5207" stroke="none" /><path d="M 96.93821686468263 120.77559828337769 l -3.1268491241800205 21.217100763069546 a42.44627124317026,42.44627124317026 0 0,0 -0.7219183719812161,-0.11274880270228124 l 3.4916033597697536 -21.160133653020157" fill="#f2ff19" stroke="none" /><path d="M 96.58105272829116 120.7198165907248 l -1.1612509823621824 7.037519288303439 a28.13268403739294,28.13268403739294 0 0,0 -0.47711830262711136,-0.08295313264832238 l 1.2822182564613438 -7.016487577134111" fill="#ff5207" stroke="none" /><path d="M 96.22490169976321 120.6578951692458 l -1.2811224509178687 7.010491167440205 a28.126588324226603,28.126588324226603 0 0,0 -0.47551665460524195,-0.09113389859426871 l 1.4016067200948057 -6.987400070497468" fill="#ff5207" stroke="none" /><path d="M 95.86986931433489 120.58985236759428 l -4.044530130767746 20.16310974803553 a41.56475671361112,41.56475671361112 0 0,0 -0.7002840870898016,-0.14675133918431474 l 4.391005679286934 -20.090502428124672" fill="#fcff18" stroke="none" /><path d="M 95.51606077576429 120.51570834832081 l -1.5484981975891574 7.08496163996392 a28.252208498636612,28.252208498636612 0 0,0 -0.4742063919486252,-0.10792783092404132 l 1.6702247389306453 -7.057257075462192" fill="#ff5407" stroke="none" /><path d="M 95.16358092515715 120.4354850818985 l -1.6561009691678352 6.997579433425464 a28.190882306586424,28.190882306586424 0 0,0 -0.47125317304370995,-0.11582256440140731 l 1.7763074269547559 -6.968035610710028" fill="#ff5307" stroke="none" /><path d="M 94.81253420990036 120.34920634021253 l -1.764483252511754 6.921652159661054 a28.143015453415664,28.143015453415664 0 0,0 -0.4683929937653678,-0.12370684681110716 l 1.883366689088611 -6.890253963546365" fill="#ff5207" stroke="none" /><path d="M 94.46302465271185 120.25689768951611 l -3.783729730707025 13.842688694153539 a35.35049270785789,35.35049270785789 0 0,0 -0.5855873621528042,-0.16549283781844334 l 4.021448260964442 -13.775507062996574" fill="#ffb310" stroke="none" /><path d="M 94.11515582081647 120.15858648285463 l -1.998515798423759 6.845933780606248 a28.13168105883845,28.13168105883845 0 0,0 -0.46367042026330046,-0.13970009407887707 l 2.116061193127305 -6.810518317421645" fill="#ff5207" stroke="none" /><path d="M 93.76903079525671 120.05430185196036 l -4.2602282007018 13.711494871467226 a35.35808608179819,35.35808608179819 0 0,0 -0.579668300780963,-0.1855914845884602 l 4.495617846573704 -13.63613054021906" fill="#ffb310" stroke="none" /><path d="M 93.42475214034765 119.94407469862007 l -2.243349584046693 6.804539180019762 a28.164800821283624,28.164800821283624 0 0,0 -0.45912684699618406,-0.1557607543806272 l 2.360146163980103 -6.764915438741012" fill="#ff5207" stroke="none" /><path d="M 93.08242187328487 119.8279376855182 l -2.3526831495906793 6.7435241105118235 a28.14214501612941,28.14214501612941 0 0,0 -0.45601054623383164,-0.16350915780133551 l 2.468413256454238 -6.70202741167053" fill="#ff5207" stroke="none" /><path d="M 92.7421414339146 119.70592522655815 l -2.4745221596968627 6.718613790341226 a28.15982061106241,28.15982061106241 0 0,0 -0.4534130441261222,-0.17144201627655364 l 2.589805424583268 -6.675023523958039" fill="#ff5207" stroke="none" /><path d="M 92.40401165467489 119.57807347666478 l -2.5846564570342854 6.6617524576503895 a28.145585686834917,28.145585686834917 0 0,0 -0.4501670968888472,-0.17913077824213966 l 2.6989446299649904 -6.616274835002183" fill="#ff5207" stroke="none" /><path d="M 92.06813273071674 119.44442032107085 l -5.396011431860334 13.227946305243293 a35.286199733559904,35.286199733559904 0 0,0 -0.5604264141435843,-0.23425828656394704 l 5.62290930550138 -13.133102975659373" fill="#ffb210" stroke="none" /><path d="M 91.7346041902142 119.30500536409082 l -2.8204256253708095 6.587504468006083 a28.165892535075336,28.165892535075336 0 0,0 -0.4440545094369165,-0.19466044737802918 l 2.933400809465469 -6.537979467333602" fill="#ff5207" stroke="none" /><path d="M 91.40352486487194 119.15986991738527 l -3.7524271958316366 8.36342987287917 a30.166660738708757,30.166660738708757 0 0,0 -0.47193873873772796,-0.21664392782108208 l 3.895833930336784 -8.297598874724013" fill="#ff6e0a" stroke="none" /><path d="M 91.07499286063937 119.00905698771935 l -6.059922133099766 12.906813784071376 a35.25862890729425,35.25862890729425 0 0,0 -0.5471590716460792,-0.2626696051921473 l 6.281193872746088 -12.800589902379667" fill="#ffb210" stroke="none" /><path d="M 90.7491055286396 118.85261126421891 l -3.140281331227637 6.3996517721828985 a28.1285980139478,28.1285980139478 0 0,0 -0.4328403109795093,-0.21703511754258473 l 3.249975549889907 -6.344648813731012" fill="#ff5207" stroke="none" /><path d="M 90.42595943632237 118.69057910512821 l -3.255932002046691 6.356277084938118 a28.141663082396228,28.141663082396228 0 0,0 -0.4292395573012273,-0.22455784926567374 l 3.3648624618744134 -6.299289816727728" fill="#ff5207" stroke="none" /><path d="M 90.10565033884886 118.52300852407294 l -3.3650660256715423 6.299670904326058 a28.142095130978106,28.142095130978106 0 0,0 -0.42531709622833586,-0.23191679245151137 l 3.473005933768519 -6.240813460114781" fill="#ff5207" stroke="none" /><line stroke="#e1ed5e" stroke-width="0.3" x1="58.666819895761336" x2="56.23545636021788" y1="174.27360380694188" y2="178.64263932499728" /><path d="M 58.180547188652646 175.14741091055294 a86.0,86.0 0 0,1 -31.652253787137756,-30.449443065178592" fill="none" id="id92" stroke="none" /><text fill="#e1ed5e" style="font-size:6.75px; font-family:Arial;" text-anchor="middle"><textPath startOffset="22.20632615414155" xlink:href="#id92">August</textPath></text><path d="M 89.7882731507175 118.34994917583269 l -6.943635602875763 12.477356894561398 a35.279303570545125,35.279303570545125 0 0,0 -0.5280996466458056,-0.2998687619196381 l 7.157384016442776 -12.355984966847128" fill="#ffb210" stroke="none" /><path d="M 89.4739219176387 118.17145234162733 l -3.5833616301682203 6.186053777667852 a28.148967891434438,28.148967891434438 0 0,0 -0.4171839621526121,-0.24647963830163658 l 3.6893134633492144 -6.123455567072466" fill="#ff5207" stroke="none" /><path d="M 89.1626897886671 117.98757091392108 l -11.303824216772643 18.761882398186746 a42.903987606074956,42.903987606074956 0 0,0 -0.6293009804055961,-0.38656806067246213 l 11.625104397110547 -18.564525870685905" fill="#ecff1a" stroke="none" /><path d="M 88.8546689885994 117.79835938074946 l -4.7878627035955175 7.645901317521382 a30.02127686227156,30.02127686227156 0 0,0 -0.43562044693913243,-0.2780335799046474 l 4.918764952581574 -7.562353308792931" fill="#ff6c0a" stroke="none" /><path d="M 88.54995079064634 117.60387380957326 l -3.928010957103684 6.039118954614308 a28.20418127389285,28.20418127389285 0 0,0 -0.40469682948326147,-0.2682109911378848 l 4.031382485326907 -5.970609942385105" fill="#ff5307" stroke="none" /><path d="M 88.24862548938628 117.40417183066458 l -5.743967395488368 8.507004474287118 a31.264613317898267,31.264613317898267 0 0,0 -0.4434261824601664,-0.3049925716719041 l 5.889550462571425 -8.406871113250114" fill="#ff7d0b" stroke="none" /><path d="M 87.95078237400918 117.19931262002967 l -4.909052292040559 7.007286917679507 a29.555750367599035,29.555750367599035 0 0,0 -0.41416426848117194,-0.29549520881796393 l 5.028943888370618 -6.921747447017324" fill="#ff6609" stroke="none" /><path d="M 87.65650970185807 116.9893568818739 l -8.59983551386019 11.836658120303094 a35.630914063119505,35.630914063119505 0 0,0 -0.4930894830698604,-0.36477581147043 l 8.802309967348615 -11.686872360092897" fill="#ffb711" stroke="none" /><path d="M 87.07902340077011 116.55440617244103 l -4.390108372306083 5.6246241588674115 a28.1350857352317,28.1350857352317 0 0,0 -0.37921072424343205,-0.3012679337338873 l 4.486276589266874 -5.548222311128393" fill="#ff5207" stroke="none" /><path d="M 86.51685102203217 116.09983520530335 l -4.739433029257749 5.659218841407613 a28.381665349618757,28.381665349618757 0 0,0 -0.37184647475794397,-0.31689563282571365 l 4.836144980592749 -5.576798818358948" fill="#ff5507" stroke="none" /><path d="M 86.24171649860922 115.8653595955263 l -4.678044507566198 5.394485315621816 a28.140348187254574,28.140348187254574 0 0,0 -0.3632217413345997,-0.3205009556600674 l 4.7702086018073855 -5.31316121818946" fill="#ff5207" stroke="none" /><path d="M 85.97065885151581 115.62618273729859 l -1.9190791876223587 2.1375117873139433 a23.87259840027654,23.87259840027654 0 0,0 -0.30340986992526925,-0.2771577223981503 l 1.9555886070144828 -2.1041612983292173" fill="#ff1502" stroke="none" /><path d="M 85.70375840098266 115.38237550388516 l -8.886905986371437 9.562074339838148 a34.05413205430356,34.05413205430356 0 0,0 -0.4259428657899323,-0.40275556561757836 l 9.050184686552186 -9.40768413747464" fill="#ffa20f" stroke="none" /><path d="M 84.9287848128048 114.62390073753433 l -10.257898094870018 9.953443146546906 a35.293197815614235,35.293197815614235 0 0,0 -0.4193057921848686,-0.4396404467433684 l 10.427710438433845 -9.775395583221037" fill="#ffb310" stroke="none" /><path d="M 84.67929136418377 114.36230785411682 l -10.689928479913911 10.021210338018745 a35.652618453521825,35.652618453521825 0 0,0 -0.41586842640704424,-0.4513430418531057 l 10.860843314316686 -9.835716041364295" fill="#ffb711" stroke="none" /><path d="M 84.43433777217949 114.09645910891817 l -5.348555021979686 4.843718568194346 a28.21586102908134,28.21586102908134 0 0,0 -0.3229253570424776,-0.3628100619454325 l 5.431139228670501 -4.75093433650805" fill="#ff5307" stroke="none" /><path d="M 84.19399662182784 113.82643327865904 l -10.419677708008745 9.11469997620448 a34.84367867277323,34.84367867277323 0 0,0 -0.39100827968323415,-0.454830965412577 l 10.575028497262759 -8.933991911630374" fill="#ffad10" stroke="none" /><path d="M 83.95833913139862 113.55231037782056 l -5.49033240779574 4.638340722779661 a28.18734684071169,28.18734684071169 0 0,0 -0.3099319589480295,-0.373333010265426 l 5.569360366637306 -4.543146455400474" fill="#ff5307" stroke="none" /><path d="M 83.72743513129214 113.27417163493432 l -5.562558244821723 4.537597696910938 a28.17856859590027,28.17856859590027 0 0,0 -0.30336522016506945,-0.37849475669091465 l 5.639841377041654 -4.441175106641763" fill="#ff5307" stroke="none" /><path d="M 83.50135304334701 112.99209946851258 l -11.598305494024391 9.13325432324603 a35.76269029905487,35.76269029905487 0 0,0 -0.37668872819487875,-0.48692095934344226 l 11.753801039437338 -8.932255369789335" fill="#ffb911" stroke="none" /><path d="M 83.28015986056508 112.70617746262583 l -5.686781116656992 4.3216471842293185 a28.142556534863672,28.142556534863672 0 0,0 -0.2897862274790894,-0.3882160078967221 l 5.760328610831167 -4.223118296823288" fill="#ff5207" stroke="none" /><path d="M 83.06392112726016 112.41649034213515 l -1.2067717881229663 0.884730778888133 a22.496344445547717,22.496344445547717 0 0,0 -0.226270597360878,-0.31427006954855463 l 1.2218221778594518 -0.8638271038884401" fill="#ff0100" stroke="none" /><path d="M 82.85270091963577 112.12312394758628 l -5.893434434736411 4.166652473630559 a28.21758701177537,28.21758701177537 0 0,0 -0.2769879899371871,-0.3990218582449982 l 5.964283331835733 -4.0645893531985475" fill="#ff5307" stroke="none" /><path d="M 82.6465618267979 111.8261652097733 l -9.445160677742747 6.4367665642380825 a32.42991793631394,32.42991793631394 0 0,0 -0.31039584747542653,-0.46399967691413735 l 9.554559630628903 -6.273229973118124" fill="#ff8d0d" stroke="none" /><path d="M 82.44556493220864 111.52570212397912 l -6.113805997248757 4.014136968575886 a28.313817018115948,28.313817018115948 0 0,0 -0.26398607958949244,-0.4097122578848545 l 6.181996940215295 -3.9083031107695825" fill="#ff5407" stroke="none" /><path d="M 82.24976979558568 111.22182372390057 l -6.031467884710648 3.8131375547883257 a28.135728614236463,28.135728614236463 0 0,0 -0.25527862808181656,-0.4115904309526073 l 6.096211152460421 -3.7087507924704544" fill="#ff5207" stroke="none" /><path d="M 82.05923443525364 110.91462005526583 l -19.578882769272848 11.91120110019815 a43.91744667589064,43.91744667589064 0 0,0 -0.38735004832752673,-0.6492209613300886 l 19.781013693298608 -11.572418044981951" fill="#e0ff1b" stroke="none" /><line stroke="#e1ed5e" stroke-width="0.3" x1="26.63291911575756" x2="22.317208475507996" y1="142.92168965132927" y2="145.44649492493687" /><path d="M 25.769776987707644 143.4266507060508 a86.0,86.0 0 0,1 -11.730757126820373,-40.83630448921669" fill="none" id="id93" stroke="none" /><text fill="#e1ed5e" style="font-size:6.75px; font-family:Arial;" text-anchor="middle"><textPath startOffset="21.46611528233685" xlink:href="#id93">September</textPath></text><path d="M 81.87401531095188 110.60418214915194 l -6.2379506117499615 3.6493666776833233 a28.22702601232465,28.22702601232465 0 0,0 -0.24174163251769104,-0.4214969127574449 l 6.29984424042003 -3.5414499190675715" fill="#ff5307" stroke="none" /><path d="M 81.69416730710424 110.29060199501025 l -6.223851117372356 3.4987304756660733 a28.13984857490491,28.13984857490491 0 0,0 -0.23372635361550187,-0.4242812222207578 l 6.283153880439374 -3.391078735047493" fill="#ff5207" stroke="none" /><path d="M 81.51974371655577 109.97397251340807 l -6.41636758624924 3.462975456596054 a28.291225686731728,28.291225686731728 0 0,0 -0.22760626757223812,-0.43054528258519803 l 6.475026362046365 -3.35201515892473" fill="#ff5407" stroke="none" /><path d="M 81.18737489456691 109.33194174019688 l -3.2331930967829408 1.603814961755203 a24.60912178135273,24.60912178135273 0 0,0 -0.18497474908372927,-0.38110277082338917 l 3.260321102481389 -1.547923234966529" fill="#ff2003" stroke="none" /><path d="M 81.02952815118164 109.00673069616217 l -6.4431499202480245 3.0590549686452513 a28.132460879386954,28.132460879386954 0 0,0 -0.20392736364777453,-0.4392413990673535 l 6.494851900735625 -2.947693502299071" fill="#ff5207" stroke="none" /><path d="M 80.87730276802145 108.67885076344099 l -15.801251803222886 7.171410215416321 a38.3524834829667,38.3524834829667 0 0,0 -0.2676618274821478,-0.6035067603134644 l 15.922354715436313 -6.89835511861016" fill="#ffda14" stroke="none" /><path d="M 80.73074385275274 108.34839909993369 l -8.788847429031975 3.8077653545784034 a30.578252248000652,30.578252248000652 0 0,0 -0.2050912774278589,-0.4847751968554982 l 8.85308968765214 -3.6559156320567467" fill="#ff740a" stroke="none" /><path d="M 80.58989483394504 108.01547362559985 l -7.479557945824103 3.0887106964647106 a29.092213592793755,29.092213592793755 0 0,0 -0.1871562858024821,-0.4645065527864703 l 7.531616845883973 -2.959504775835435" fill="#ff5f08" stroke="none" /><path d="M 80.45479744820244 107.68017299344265 l -6.657124488250095 2.6158781201242607 a28.152630620366462,28.152630620366462 0 0,0 -0.17334743731925337,-0.4525554585279492 l 6.701166205162857 -2.5008990947631538" fill="#ff5207" stroke="none" /><path d="M 80.32549172779594 107.34259656027581 l -8.159964260124047 3.045327724556559 a29.709709391044836,29.709709391044836 0 0,0 -0.17468706297044218,-0.48066377218645395 l 8.211175584099713 -2.904416155363988" fill="#ff6809" stroke="none" /><path d="M 80.20201598880116 107.00284435728193 l -6.757662529433151 2.3902867527263405 a28.16794765759097,28.16794765759097 0 0,0 -0.1577528056211385,-0.4585034955864997 l 6.797806165997518 -2.273610554050544" fill="#ff5207" stroke="none" /><path d="M 80.0844068197444 106.66101706037122 l -16.25265771079684 5.435902878118655 a38.13761718456398,38.13761718456398 0 0,0 -0.20286987463293568,-0.6243692733465964 l 16.343819836446023 -5.155334704794255" fill="#ffd714" stroke="none" /><path d="M 79.97269907076064 106.31721596034903 l -6.888135355274327 2.1727260581506664 a28.222682825401314,28.222682825401314 0 0,0 -0.14215258337992862,-0.46456286737903796 l 6.924514711160386 -2.0538362182195806" fill="#ff5307" stroke="none" /><path d="M 79.86692584326677 105.97154293290107 l -20.511237208453263 6.083707467805343 a42.39444667139742,42.39444667139742 0 0,0 -0.20148942537832662,-0.7014111226712427 l 20.612919270717693 -5.729738869629505" fill="#f2ff19" stroke="none" /><path d="M 79.76711848015287 105.62410040840567 l -6.892284150826189 1.9158367565927605 a28.15360128142754,28.15360128142754 0 0,0 -0.12576873781511375,-0.4680322605289105 l 6.924240964983078 -1.796913562888311" fill="#ff5207" stroke="none" /><path d="M 79.67330655649465 105.27499134158121 l -6.156729485880351 1.5977362388398364 a27.360666557147184,27.360666557147184 0 0,0 -0.11437890271729034,-0.45688685986296795 l 6.1833197028927005 -1.4915215395794765" fill="#ff4706" stroke="none" /><path d="M 79.58551787078972 104.9243191809786 l -7.1837988431792645 1.73285406956968 a28.389840935073497,28.389840935073497 0 0,0 -0.11050331101687935,-0.4760453717203733 l 7.212562720126699 -1.6089400405007324" fill="#ff5507" stroke="none" /><path d="M 79.50377843672027 104.57218783832718 l -8.506900158599233 1.8976739359948198 a29.715992007553112,29.715992007553112 0 0,0 -0.10707090954801628,-0.5001996436671311 l 8.53830510687169 -1.750960472911525" fill="#ff6809" stroke="none" /><path d="M 79.4281124754447 104.21870165774334 l -6.026612506907558 1.2358846577942912 a27.152029680990324,27.152029680990324 0 0,0 -0.08995088213110432,-0.4586576100749893 l 6.046993322014329 -1.1319633206513473" fill="#ff4406" stroke="none" /><path d="M 79.35854240842038 103.8639653848113 l -7.238645170889277 1.3550338801973707 a28.364380539225373,28.364380539225373 0 0,0 -0.08570575505042527,-0.48068338957038326 l 7.260897368278891 -1.2302317398937737" fill="#ff5507" stroke="none" /><path d="M 79.29508885075956 103.50808413554451 l -20.872429283193263 3.536467145927893 a42.16990562227737,42.16990562227737 0 0,0 -0.11510023852470858,-0.7167292951651294 l 20.930211276079262 -3.1766586210695498" fill="#f5ff19" stroke="none" /><path d="M 79.23777060512086 103.15116336523772 l -5.760786468637395 0.8743367067991602 a26.826759426481594,26.826759426481594 0 0,0 -0.065362695438349,-0.4571465396599481 l 5.774983215092344 -0.7750446951588116" fill="#ff4006" stroke="none" /><path d="M 79.18660465613746 102.79330883721812 l -11.317918845455802 1.5189469189250613 a32.419390821529646,32.419390821529646 0 0,0 -0.06946779324311517,-0.553726662119068 l 11.342388147945766 -1.3239025025185849" fill="#ff8d0d" stroke="none" /><path d="M 79.1416061653843 102.43462659150553 l -7.204854243682443 0.8409626296575266 a28.253767491255108,28.253767491255108 0 0,0 -0.05222601085404393,-0.4835479979509171 l 7.21826255603754 -0.7168183098218274" fill="#ff5407" stroke="none" /><path d="M 79.10278846688536 102.07522291339032 l -11.411862586517124 1.1332688424230284 a32.46799485362442,32.46799485362442 0 0,0 -0.05044197334158747,-0.5566229725625792 l 11.429679156135787 -0.9366644813118831" fill="#ff8d0d" stroke="none" /><path d="M 79.07016306316243 101.71520430193888 l -4.304804373487931 0.35277957504849283 a25.31923536318319,25.31923536318319 0 0,0 -0.031858158584902714,-0.4346792624661303 l 4.310239090737169 -0.27862717608560184" fill="#ff2a04" stroke="none" /><path d="M 79.04373962182676 101.35467743843564 l -28.621378543129822 1.85017436649562 a49.68111669540727,49.68111669540727 0 0,0 -0.04782079335221698,-0.8538723894958181 l 28.64898568736957 -1.3572302606643643" fill="#9eff22" stroke="none" /><path d="M 79.0235259727143 100.99374915477108 l -4.431806762461733 0.20995445748300418 a25.436777214828183,25.436777214828183 0 0,0 -0.01695526800698885,-0.43754012822056554 l 4.434764163319922 -0.1336370822484419" fill="#ff2c04" stroke="none" /><path d="M 79.0095281055655 100.63252640178507 l -13.088206709676616 0.39439972276593094 a34.09414777740582,34.09414777740582 0 0,0 -0.01262772115336928,-0.5867605823195623 l 13.093056493514993 -0.16904932465623979" fill="#ffa30f" stroke="none" /><line stroke="#e1ed5e" stroke-width="0.3" x1="15.007084014347285" x2="10.007500721073583" y1="101.09737516637583" y2="101.16192664675087" /><path d="M 14.007167355692545 101.11028546245083 a86.0,86.0 0 0,1 10.666146001902534,-42.60595125391555" fill="none" id="id94" stroke="none" /><text fill="#e1ed5e" style="font-size:6.75px; font-family:Arial;" text-anchor="middle"><textPath startOffset="22.20632615414155" xlink:href="#id94">October</textPath></text><path d="M 79.00175016825051 100.2711162175752 l -7.142686544003766 0.09222188394994764 a28.143281874724792,28.143281874724792 0 0,0 -0.0020848847568947656,-0.4844537928550148 l 7.143215726050164 0.0307413871087425" fill="#ff5207" stroke="none" /><path d="M 79.00019446554 99.90962569577889 l -2.88377069366432 -0.012410532542575374 a23.883797398389003,23.883797398389003 0 0,0 0.005307881545724063,-0.41110127520701206 l 2.88312980500088 0.062048065810059415" fill="#ff1502" stroke="none" /><path d="M 79.00486145842228 99.54816195383935 l -14.352096208564323 -0.3088726038337464 a35.35541945974709,35.35541945974709 0 0,0 0.018331457606026603,-0.6083318333865666 l 14.34465305650265 0.5558745846453075" fill="#ffb310" stroke="none" /><path d="M 79.01574976396665 99.18683210126434 l -8.649949809103676 -0.3351971803290559 a29.656442043340512,29.656442043340512 0 0,0 0.024157843618758095,-0.5099338970918424 l 8.642898357251418 0.4840421840439075" fill="#ff6709" stroke="none" /><path d="M 79.03285615573316 98.82574320788736 l -2.8501096955113616 -0.15961929259790142 a23.854575904581505,23.854575904581505 0 0,0 0.02648926723500984,-0.40977723969839475 l 2.8469398372719383 0.20865559654930796" fill="#ff1502" stroke="none" /><path d="M 79.05617556472873 98.46500227214037 l -26.592214885729817 -1.9489749617843226 a47.66354057379651,47.66354057379651 0 0,0 0.0670138399253184,-0.8177385869210125 l 26.554726561985003 2.4064274659131137" fill="#b5ff20" stroke="none" /><path d="M 79.08570108090925 98.10471618934814 l -1.439536759651572 -0.13045288900004243 a22.44543558785461,22.44543558785461 0 0,0 0.038181689262502955,-0.3844844002356616 l 1.4370779447068405 0.1552128199401343" fill="#ff0000" stroke="none" /><path d="M 79.12142395522702 97.74499172005258 l -4.25703810530182 -0.45978500425131247 a25.281795847553465,25.281795847553465 0 0,0 0.05045481616220464,-0.43226605264078954 l 4.248492936136027 0.5329947952169638" fill="#ff2a04" stroke="none" /><path d="M 79.16333360222342 97.38593545837743 l -7.36847464222004 -0.924412183809199 a28.426234337712124,28.426234337712124 0 0,0 0.06508795612746596,-0.4849808746368576 l 7.351470687034739 1.0511114005107158" fill="#ff5608" stroke="none" /><path d="M 79.21141760316559 97.0276538004421 l -2.8945141624155846 -0.4138568953856416 a23.923951054016232,23.923951054016232 0 0,0 0.0617968262060464,-0.4071638734187403 l 2.886961442770236 0.4636198811964739" fill="#ff1602" stroke="none" /><path d="M 79.26566170972629 96.67025291283419 l -7.111811835043386 -1.1420926200145665 a28.202932953301378,28.202932953301378 0 0,0 0.08110107717713472,-0.4786631483682128 l 7.091098896346028 1.2643415566986071" fill="#ff5307" stroke="none" /><path d="M 79.32604984820605 96.31383870115002 l -2.8091725590967584 -0.5008749219720499 a23.8534761527377,23.8534761527377 0 0,0 0.07555222373965367,-0.40360300027578255 l 2.8001346114472434 0.5491559997104052" fill="#ff1502" stroke="none" /><path d="M 79.3925641242962 95.95851677861259 l -30.0465320559157 -5.892657189244561 a51.6189075137753,51.6189075137753 0 0,0 0.1785048289404352,-0.8704529406132234 l 29.940647931060273 6.408985786021186" fill="#89ff25" stroke="none" /><path d="M 79.46518482838121 95.60439243477599 l -1.4439421922877493 -0.3090849940026913 a22.476652494050782,22.476652494050782 0 0,0 0.08423993869935464,-0.3776311273971653 l 1.4384078665863569 0.3338942909498158" fill="#ff0100" stroke="none" /><path d="M 79.54389044137918 95.25157060432595 l -7.039521179492445 -1.6340677685745455 a28.226689138797717,28.226689138797717 0 0,0 0.1139379712478265,-0.47234644879680093 l 7.010350407983803 1.7549994490307432" fill="#ff5307" stroke="none" /><path d="M 79.62865764111835 94.90015583598534 l -11.322415164918807 -2.834499164763541 a32.671823794156104,32.671823794156104 0 0,0 0.14127244976173078,-0.5443803775910906 l 11.27194638328677 3.0289759679034955" fill="#ff900d" stroke="none" /><path d="M 79.71946130924805 94.55025226153421 l -4.340865569749798 -1.1664691299603165 a25.494859744840724,25.494859744840724 0 0,0 0.11753522408836753,-0.422836736668926 l 4.32014357509507 1.2410171700481851" fill="#ff2d04" stroke="none" /><path d="M 79.81627453868168 94.20196356495316 l -6.857091679951562 -1.9697883562185026 a28.134407647138964,28.134407647138964 0 0,0 0.13771672354196102,-0.46431232913294324 l 6.822169059297894 2.087530072097985" fill="#ff5207" stroke="none" /><path d="M 79.91906864156998 93.8553929516997 l -32.79430304787738 -10.034798787731027 a55.295240181492645,55.295240181492645 0 0,0 0.2863359115932092,-0.9077630880943347 l 32.61671165251597 10.597812042251777" fill="#61ff29" stroke="none" /><path d="M 80.02781315780177 93.51064311812611 l -2.754974206569066 -0.8951453823279125 a23.896751306958166,23.896751306958166 0 0,0 0.130479341662798,-0.3901166238476862 l 2.7391575711344958 0.9424351090979208" fill="#ff1602" stroke="none" /><path d="M 80.14247586403 93.16781622104843 l -6.867448427645472 -2.3628156979124797 a28.262557808972808,28.262557808972808 0 0,0 0.1622363939193491,-0.45866413259776434 l 6.825758952916314 2.480677456936855" fill="#ff5407" stroke="none" /><path d="M 80.2630227832202 92.82701384747504 l -4.551768518352522 -1.654243818242025 a25.84304854971092,25.84304854971092 0 0,0 0.1555448931339585,-0.4167829815435487 l 4.522619036716936 1.7323499368149151" fill="#ff3204" stroke="none" /><path d="M 80.38941819471856 92.48833698450439 l -8.045673119354666 -3.08182520057346 a29.615712536429932,29.615712536429932 0 0,0 0.18644705819836663,-0.4744874263620412 l 7.991432511274609 3.2198616318312645" fill="#ff6609" stroke="none" /><path d="M 80.52162464483688 92.15188598940014 l -4.149313952210845 -1.671817508850479 a25.47345281152161,25.47345281152161 0 0,0 0.16737066895798783,-0.40530135060414113 l 4.119921596366657 1.7429934299079315" fill="#ff2c04" stroke="none" /><path d="M 80.65960295795068 91.81776055985345 l -5.494961077397999 -2.32472410735948 a26.966484678389556,26.966484678389556 0 0,0 0.18453973196045662,-0.42594314453877047 l 5.454130635594862 2.4189663964848496" fill="#ff4206" stroke="none" /><path d="M 80.803312248108 91.48605970444005 l -26.656140903128296 -11.822289089267484 a50.160184621460175,50.160184621460175 0 0,0 0.35684835062555575,-0.7862680385620527 l 26.448690235539388 12.279379136671608" fill="#99ff23" stroke="none" /><path d="M 80.95270993114464 91.15688171328213 l -4.0324746813202506 -1.8721639911085202 a25.445880122663254,25.445880122663254 0 0,0 0.18786548635733258,-0.3956926259408338 l 3.999651001121166 1.9412990326898862" fill="#ff2c04" stroke="none" /><path d="M 81.10775173730289 90.83032412892265 l -2.577497018147879 -1.2510322692377231 a23.865060665541883,23.865060665541883 0 0,0 0.18255633505612695,-0.36802243173458715 l 2.5555806701383394 1.295214289471272" fill="#ff1502" stroke="none" /><path d="M 81.26839172434947 90.50648371742162 l -6.3850067087774995 -3.236036343603617 a28.158228963106527,28.158228963106527 0 0,0 0.22283962059933182,-0.4304552185712507 l 6.328357655018054 3.345464284435203" fill="#ff5207" stroke="none" /><path d="M 81.43458229118936 90.18545643968196 l -2.518077422509678 -1.3311728795493856 a23.8482863516509,23.8482863516509 0 0,0 0.1949789340046247,-0.3612663525425141 l 2.4947903892865813 1.3743202154243725" fill="#ff1502" stroke="none" /><path d="M 81.6062741919709 89.86733742301443 l -3.7511323900360565 -2.0664089041299816 a25.282644039217512,25.282644039217512 0 0,0 0.21326796187956468,-0.3793799071050697 l 3.7150067868640613 2.1306723211698357" fill="#ff2a04" stroke="none" /><line stroke="#e1ed5e" stroke-width="0.3" x1="26.266209847984243" x2="21.928928074336255" y1="57.711370442889674" y2="55.22380399835377" /><path d="M 25.398753493254645 57.213857153982495 a86.0,86.0 0 0,1 29.58750427330803,-30.492523968695096" fill="none" id="id95" stroke="none" /><text fill="#e1ed5e" style="font-size:6.75px; font-family:Arial;" text-anchor="middle"><textPath startOffset="21.46611528233685" xlink:href="#id95">November</textPath></text><path d="M 81.78341655067845 89.55222093294921 l -5.140085606808719 -2.9479994948045687 a26.925468847837287,26.925468847837287 0 0,0 0.23404684992968297,-0.4000619339309128 l 5.088579082408711 3.0360408410893736" fill="#ff4106" stroke="none" /><path d="M 81.96595687620814 89.24020034530311 l -1.343795368565182 -0.8017596965594239 a22.564801777735536,22.564801777735536 0 0,0 0.20188427470664733,-0.3318446657218586 l 1.3297952955723178 0.8247721354883569" fill="#ff0200" stroke="none" /><path d="M 82.15384107792192 88.93136811851018 l -53.53847676623425 -33.20589564446946 a84.0,84.0 0 0,0 0.7726896150161493,-1.222209409143138 l 52.95895955497213 34.12255270132681" fill="#4dd2ff" stroke="none" /><path d="M 82.34701348167596 88.62581576622439 l -6.0039103877168705 -3.868443608795898 a28.14225425885752,28.14225425885752 0 0,0 0.26588180636048714,-0.4049562321892529 l 5.936431945998463 3.9712179049628182" fill="#ff5207" stroke="none" /><path d="M 82.54541684631803 88.32363383020206 l -1.5628444135133357 -1.0454757628947104 a22.880293123863968,22.880293123863968 0 0,0 0.221803233254593,-0.32546887571966465 l 1.5446167145900025 1.0722226618847908" fill="#ff0701" stroke="none" /><path d="M 82.7489923806493 88.02491185347247 l -5.867382163845514 -4.072945775213678 a28.14248281373105,28.14248281373105 0 0,0 0.27966576241009117,-0.39556738768959787 l 5.796403781631545 4.173339663235062" fill="#ff5207" stroke="none" /><path d="M 82.95767976084542 87.72973835380427 l -2.686608974076683 -1.9343255255349965 a24.310510990515755,24.310510990515755 0 0,0 0.2474316717891162,-0.33749652225105187 l 2.6529146897739335 1.980284491457549" fill="#ff1c02" stroke="none" /><path d="M 83.17141714833178 87.43820079747576 l -3.4367725190437493 -2.565399990570289 a25.288669077845988,25.288669077845988 0 0,0 0.2633923984302627,-0.3465935218243236 l 3.392104180389378 2.6241782882756395" fill="#ff2a04" stroke="none" /><path d="M 83.39014120810768 87.1503855733568 l -1.4094169488688006 -1.090344270005483 a22.781939045784796,22.781939045784796 0 0,0 0.24262322398793576,-0.30810685569052043 l 1.3904396442868938 1.1144435196490512" fill="#ff0500" stroke="none" /><path d="M 83.6137871275137 86.86637796730984 l -4.986669762638537 -3.996837852284167 a27.3907423777731,27.3907423777731 0 0,0 0.29803933030801005,-0.36536097839052406 l 4.9171319402541345 4.082083000282773" fill="#ff4806" stroke="none" /><path d="M 83.84228863543731 86.58626213691792 l -5.491492027953867 -4.558902735552847 a28.137231875546156,28.137231875546156 0 0,0 0.3125770267817474,-0.36999260784011606 l 5.412204387684995 4.652754293022079" fill="#ff5207" stroke="none" /><path d="M 84.07557802195018 86.31012108654704 l -10.837853587955413 -9.317066798741749 a35.292193817821456,35.292193817821456 0 0,0 0.3999918705156779,-0.4572598535857086 l 10.675869853861892 9.5022422085304" fill="#ffb310" stroke="none" /><path d="M 84.31358615837235 86.03803664274999 l -1.1610320097516256 -1.0333965774719436 a22.55431779697674,22.55431779697674 0 0,0 0.26061660214300575,-0.28777936136840787 l 1.143071766992575 1.0532287261099076" fill="#ff0200" stroke="none" /><path d="M 84.5562425177563 85.77008943001954 l -2.1929343200399942 -2.020574286787911 a23.98189224829432,23.98189224829432 0 0,0 0.2823384497505604,-0.3011789727147824 l 2.157828548318978 2.0580226763807437" fill="#ff1702" stroke="none" /><path d="M 84.80347519578584 85.50635884689758 l -4.693200508152303 -4.476126278940714 a27.48550980839168,27.48550980839168 0 0,0 0.32948024043384005,-0.3395583498978601 l 4.6154560040153445 4.556248824388698" fill="#ff4906" stroke="none" /><path d="M 85.05521093208273 85.24692304244772 l -5.085849615840481 -5.020608215749739 a28.14649376764568,28.14649376764568 0 0,0 0.34333924067069815,-0.34186483285840685 l 4.99867457500247 5.107408899258255" fill="#ff5207" stroke="none" /><path d="M 85.57189188830299 84.74124197986013 l -1.0122454868180386 -1.0705221239514564 a22.473315493522357,22.473315493522357 0 0,0 0.2833693698893158,-0.2633609466025439 l 0.9936682331338665 1.0877876566286477" fill="#ff0100" stroke="none" /><path d="M 85.83668400450813 84.49514656593479 l -4.815631800351936 -5.271764414537256 a28.140154737744986,28.140154737744986 0 0,0 0.3604472586572653,-0.32361310774053764 l 4.724173554098699 5.353876531047073" fill="#ff5207" stroke="none" /><path d="M 86.10567301691215 84.25364557470407 l -4.237472364198642 -4.802301097079823 a27.40455055912289,27.40455055912289 0 0,0 0.35639774776164246,-0.3090646148571698 l 4.154180817790227 4.8745307053566735" fill="#ff4806" stroke="none" /><path d="M 86.37877921826538 84.01681056812374 l -1.8465574497534791 -2.1667571496843245 a23.846859842167895,23.846859842167895 0 0,0 0.31471321297377575,-0.2635632651980544 l 1.808986699820593 2.198221572276191" fill="#ff1502" stroke="none" /><path d="M 86.65592168130627 83.78471172551755 l -4.55509589303043 -5.535203800469747 a28.168499125161237,28.168499125161237 0 0,0 0.3770509224581745,-0.304882290493796 l 4.459141572007755 5.612792188227677" fill="#ff5207" stroke="none" /><path d="M 86.93701828274178 83.55741782278169 l -3.6403074783318776 -4.582112733399536 a26.852144533278477,26.852144533278477 0 0,0 0.36438033410181736,-0.2844046304715552 l 3.5608945890706347 4.644095753094313" fill="#ff4006" stroke="none" /><path d="M 87.22198572758235 83.33499621200491 l -5.500827844844388 -7.174144191505587 a30.04032365898084,30.04032365898084 0 0,0 0.4130599523273121,-0.31110819246205357 l 5.376521738758686 7.267768973473494" fill="#ff6c0a" stroke="none" /><path d="M 87.51073957382395 83.11751280151077 l -3.391434282926965 -4.584406434990368 a26.702508996625383,26.702508996625383 0 0,0 0.3718701819603988,-0.27017950209132247 l 3.312018784612784 4.642105171898359" fill="#ff3e05" stroke="none" /><path d="M 88.09926311788651 82.69761687909137 l -3.3172348399339846 -4.822900352399915 a26.85358136463918,26.85358136463918 0 0,0 0.38310509120085384,-0.25867426772309776 l 3.2337250543265914 4.879286532421679" fill="#ff4006" stroke="none" /><path d="M 88.39885842347998 82.49532879139004 l -1.9805938802656669 -2.988468371251038 a24.585205060315747,24.585205060315747 0 0,0 0.35476799100622264,-0.23075096986412752 l 1.9288588634751571 3.0221182652747007" fill="#ff2003" stroke="none" /><path d="M 88.70189139769569 82.29822771554957 l -1.5735724795297177 -2.465458837953806 a23.92482779492705,23.92482779492705 0 0,0 0.34905281043608993,-0.2185768378729141 l 1.5309005167213854 2.49218001714965" fill="#ff1602" stroke="none" /><path d="M 89.00827224532344 82.1063720568725 l -3.7566317800948488 -6.115487291226491 a28.177148956261902,28.177148956261902 0 0,0 0.41546258012830756,-0.2503115558847708 l 3.650807133748892 6.179245456569881" fill="#ff5307" stroke="none" /><line stroke="#e1ed5e" stroke-width="0.3" x1="56.762969772571076" x2="54.21961505331055" y1="26.818313649435495" y2="22.513508569990535" /><path d="M 56.25429882871897 25.957352633546506 a86.0,86.0 0 0,1 42.265352541879196,-11.944610805530505" fill="none" id="id96" stroke="none" /><text fill="#e1ed5e" style="font-size:6.75px; font-family:Arial;" text-anchor="middle"><textPath startOffset="22.20632615414155" xlink:href="#id96">December</textPath></text><path d="M 89.3179101791058 81.91981866633112 l -8.442538534730193 -14.289584733301858 a37.5972494335844,37.5972494335844 0 0,0 0.5600258320543615,-0.32440310909213793 l 8.19531597021051 14.432791999784044" fill="#ffd013" stroke="none" /><path d="M 89.63071344664047 81.73862282372117 l -2.820442727418273 -4.967088929834869 a26.71199348875108,26.71199348875108 0 0,0 0.40179406076003976,-0.22359795979976413 l 2.7345245775861877 5.014902287194818" fill="#ff3e05" stroke="none" /><path d="M 89.94658935756843 81.56283822128135 l -3.4111382434924757 -6.255758357208973 a28.125333447636457,28.125333447636457 0 0,0 0.42704294703914386,-0.22811155287449442 l 3.3029502499250265 6.3135486365852165" fill="#ff5207" stroke="none" /><path d="M 90.26544431104013 81.39251694778311 l -1.8798937024261553 -3.5933936098938206 a25.055425744363625,25.055425744363625 0 0,0 0.38387240296416614,-0.1966343544832673 l 1.8177608118732254 3.625220489689593" fill="#ff2603" stroke="none" /><path d="M 90.58718382345135 81.22770947309562 l -1.9168115381803879 -3.82276062818412 a25.27640798957444,25.27640798957444 0 0,0 0.39061526949448283,-0.1916732163174521 l 1.850725001675479 3.8551890046364017" fill="#ff2904" stroke="none" /><path d="M 90.91171255644093 81.06846463323043 l -2.137331748593263 -4.452210808724935 a25.938660556150005,25.938660556150005 0 0,0 0.40417594779408084,-0.18976602689709793 l 2.0603775894995735 4.4883418182620405" fill="#ff3304" stroke="none" /><path d="M 91.23893434514133 80.91482961587045 l -1.978120053786534 -4.309151392541244 a25.741491819146436,25.741491819146436 0 0,0 0.4042859190140826,-0.18139130720994115 l 1.903652016305677 4.342563030267714" fill="#ff3004" stroke="none" /><path d="M 91.56875222667455 80.76684994638697 l -2.888571953193288 -6.589337582058992 a28.19466591990969,28.19466591990969 0 0,0 0.44616882994581186,-0.1910262083817284 l 2.774719365457168 6.638083318403506" fill="#ff5307" stroke="none" /><path d="M 91.90106846888425 80.62456947434976 l -1.108069468569654 -2.650883381762306 a23.873151692981036,23.873151692981036 0 0,0 0.380510902638296,-0.15521995124593665 l 1.0622746963429774 2.6695642191918196" fill="#ff1502" stroke="none" /><path d="M 92.23578459929587 80.48803036053334 l -1.5871096927594965 -3.9885081159415154 a25.292681465911777,25.292681465911777 0 0,0 0.4059075931577587,-0.15748583999238985 l 1.5182189346020614 4.015236659824457" fill="#ff2a04" stroke="none" /><path d="M 92.57280143429618 80.3572730644239 l -2.025700155269468 -5.357373261440695 a26.727557016866655,26.727557016866655 0 0,0 0.43173617757345467,-0.15901207777178658 l 1.933181651923444 5.391448607018804" fill="#ff3e05" stroke="none" /><path d="M 92.91201910852362 80.23233633223022 l -1.185993011254776 -3.307614864905006 a24.513814952055064,24.513814952055064 0 0,0 0.39842886629518603,-0.1390040080945259 l 1.1288821408963048 3.3275397261717417" fill="#ff1e03" stroke="none" /><path d="M 93.59665428221793 80.00007090966166 l -2.30881539197357 -7.211252704023472 a28.57184218506302,28.57184218506302 0 0,0 0.46968656432782896,-0.1459339018536969 l 2.1843434549350125 7.249926740759695" fill="#ff5808" stroke="none" /><path d="M 94.28887869178378 79.79150937346287 l -0.6467756865365352 -2.2885804194076886 a23.378217636128173,23.378217636128173 0 0,0 0.3881920874240519,-0.10610756153405097 l 0.6072857098887607 2.2993745217680353" fill="#ff0e01" stroke="none" /><path d="M 94.98787191387505 79.60689891045804 l -1.0211339867660125 -4.154739914914289 a25.27838502001756,25.27838502001756 0 0,0 0.4234446229468232,-0.10021566130444919 l 0.9494656768566553 4.17170148835961" fill="#ff2904" stroke="none" /><path d="M 95.33964822691252 79.52364482259891 l -1.3096676923256187 -5.754334037033477 a26.901490462085277,26.901490462085277 0 0,0 0.45240271846667024,-0.09887771165598706 l 1.2104222497054276 5.776025246785332" fill="#ff4106" stroke="none" /><path d="M 96.40284397218896 79.31037775812273 l -0.7333172225251415 -4.217792111380956 a25.281065806978376,25.281065806978376 0 0,0 0.4293818005252405,-0.07085167617189961 l 0.6606062158610154 4.229790050492483" fill="#ff2a04" stroke="none" /><path d="M 96.75951476605007 79.25152402106235 l -1.1026505369075228 -7.060151960730092 a28.145738864186363,28.145738864186363 0 0,0 0.47932329936133206,-0.07063979454798124 l 0.980958257117542 7.078086239439043" fill="#ff5207" stroke="none" /><path d="M 97.47563105711357 79.15227682838746 l -0.8705599176976626 -7.189595728313164 a28.242110279944697,28.242110279944697 0 0,0 0.4831193512241245,-0.05428408825848459 l 0.7466738629638201 7.203515770042247" fill="#ff5307" stroke="none" /><path d="M 97.83486435360386 79.11191278185805 l -0.44591784302670434 -4.301980253648885 a25.325029112678262,25.325029112678262 0 0,0 0.43399245873148357,-0.04121281333633238 l 0.37180025720498444 4.309018611500398" fill="#ff2a04" stroke="none" /><path d="M 98.19473922651362 79.07773832637324 l -0.4888219649622558 -5.665254135559317 a26.68630383763491,26.68630383763491 0 0,0 0.4580002720352958,-0.03554963585794628 l 0.39123150356462577 5.6728290336057245" fill="#ff3e05" stroke="none" /><path d="M 98.55514903715128 79.0497635885617 l -0.19772466075102677 -2.8669935471671066 a23.873803584270668,23.873803584270668 0 0,0 0.4102178272263568,-0.02474545959458547 l 0.14834478468504697 2.869972276141999" fill="#ff1502" stroke="none" /><path d="M 98.91598698831166 79.02799685794201 l -0.550838937903742 -10.656879402667643 a31.671105947300532,31.671105947300532 0 0,0 0.544681441011266,-0.023455128617794918 l 0.36731666450315187 10.66478225780963" fill="#ff820c" stroke="none" /><path d="M 99.63851952072746 79.00311137660856 l -0.10164205353198942 -5.903961624038076 a26.904836489282367,26.904836489282367 0 0,0 0.4631225328045237,-0.003986241852850203 l 1.446267821217629e-15 5.904836489282367" fill="#ff4106" stroke="none" /></svg>