<?xml version="1.0" encoding="utf-8" ?>
<svg baseProfile="full" height="200mm" version="1.1" viewBox="0,0,200,200" width="200mm" xmlns="http://www.w3.org/2000/svg" xmlns:ev="http://www.w3.org/2001/xml-events" xmlns:xlink="http://www.w3.org/1999/xlink"><defs /><rect fill="#1a1a1a" height="200" width="200" x="0" y="0" /><text alignment-baseline="middle" fill="#e1ed5e" style="dominant-baseline: central; font-size:9.0px; font-family:Arial;" text-anchor="middle" x="100.0" y="100.0">2018</text><line stroke="#e1ed5e" stroke-width="0.3" x1="100.0" x2="100.0" y1="15.0" y2="10.0" /><path d="M 100.0 14.0 a86.0,86.0 0 0,1 42.46469731375804,11.215312516191453" fill="none" id="id73" stroke="none" /><text fill="#e1ed5e" style="font-size:6.75px; font-family:Arial;" text-anchor="middle"><textPath startOffset="22.20632615414155" xlink:href="#id73">January</textPath></text><path d="M 100.0 79.0 l 0.0 -25.536691853038192 a46.53669185303819,46.53669185303819 0 0,0 0.8010526511806768,0.006894913070059768 l -0.4395721719081484 25.53290831657669" fill="#ddff1b" stroke="none" /><path d="M 100.36148047927253 79.00311137660856 l 0.27822741925283423 -16.161066693786932 a37.16346148502397,37.16346148502397 0 0,0 0.6395183392690023,0.016516871940435263 l -0.5563723937167043 16.153883029704136" fill="#ffa40f" stroke="none" /><path d="M 100.72285384407766 79.0124445844662 l 0.5269638770214004 -15.300027331365992 a36.309099492400975,36.309099492400975 0 0,0 0.6244459118746896,0.026889954522192425 l -0.7902506212854215 15.288689650319606" fill="#ff980e" stroke="none" /><path d="M 101.08401301168833 79.027996857942 l 0.792401324594145 -15.330298520380985 a36.35076390878363,36.35076390878363 0 0,0 0.6246064367600221,0.03767796599155514 l -1.056169810193779 15.314387285009126" fill="#ff990e" stroke="none" /><path d="M 101.44485096284872 79.0497635885617 l 1.065076399122909 -15.443532192326678 a36.48021557703248,36.48021557703248 0 0,0 0.6260870280066309,0.04859640314646553 l -1.3307536164918812 15.422910526991748" fill="#ff9a0e" stroke="none" /><path d="M 101.80526077348638 79.07773832637324 l 1.316421725471892 -15.256809552217327 a36.313497440882806,36.313497440882806 0 0,0 0.6223007274498306,0.05909495246626854 l -1.5788475800119668 15.23188905523588" fill="#ff980e" stroke="none" /><path d="M 102.16513564639614 79.11191278185805 l 3.1821254897854048 -30.699469051903066 a51.863948592192415,51.863948592192415 0 0,0 0.8872027248464488,0.09968756353207722 l -3.710094918141579 30.640145534900388" fill="#9cff22" stroke="none" /><path d="M 102.52436894288641 79.15227682838746 l 1.8522300640373317 -15.296805062510263 a36.40853663819389,36.40853663819389 0 0,0 0.6215201972083317,0.08069115934673851 l -2.1152649897535096 15.262655579999388" fill="#ff990e" stroke="none" /><path d="M 102.88285421437855 79.19881850522331 l 2.101876048699561 -15.166047922388064 a36.31100560081761,36.31100560081761 0 0,0 0.618378188318152,0.09113287051547798 l -2.362623217446369 15.127620567711617" fill="#ff980e" stroke="none" /><path d="M 103.2404852339499 79.25152402106235 l 2.5102481871814053 -16.072847259797246 a37.267690831768945,37.267690831768945 0 0,0 0.6329665178256187,0.10444489890763285 l -2.786543911145899 16.02725609794999" fill="#ffa50f" stroke="none" /><path d="M 103.59715602781102 79.31037775812273 l 2.639905364484697 -15.18384087963254 a36.41162302262274,36.41162302262274 0 0,0 0.6165786093050756,0.11267579977921456 l -2.900879094892673 15.136149598502586" fill="#ff990e" stroke="none" /><path d="M 103.95276090670814 79.375362276772 l 2.886128200406208 -15.059182672837894 a36.333255321786076,36.333255321786076 0 0,0 0.6132250542594436,0.12300717696265273 l -3.144919664132777 15.007271539798033" fill="#ff980e" stroke="none" /><path d="M 104.307194497241 79.44645832069477 l 8.655239242612957 -41.30201703948026 a63.199167976115184,63.199167976115184 0 0,0 1.0628212380099253,0.2322915571108482 l -9.36490320477641 41.146911984273544" fill="#31ff43" stroke="none" /><path d="M 104.66035177308747 79.52364482259891 l 3.451109907376473 -15.163265706200592 a36.551038115496695,36.551038115496695 0 0,0 0.6122756869505571,0.14490587326714385 l -3.7116092812895536 15.10161392079258" fill="#ff9b0e" stroke="none" /><path d="M 105.01212808612495 79.60689891045804 l 3.777353012330378 -15.369108791251037 a36.82649363621239,36.82649363621239 0 0,0 0.6142853991267948,0.15659502587238197 l -4.041347300142198 15.301810769209787" fill="#ff9f0e" stroke="none" /><path d="M 105.36241919743992 79.69619591428918 l 5.225566088370326 -19.785635212155373 a41.46406366517678,41.46406366517678 0 0,0 0.6885050724480752,0.1881944447298471 l -5.565369050042111 19.69275422659923" fill="#ffdf14" stroke="none" /><path d="M 105.71112130821622 79.79150937346287 l 5.752483662601897 -20.35484905700716 a42.152090875893265,42.152090875893265 0 0,0 0.6965327560640969,0.20333701168088852 l -6.1020066363894205 20.25281371640757" fill="#ffe815" stroke="none" /><path d="M 106.0581310904928 79.89281104454417 l 6.121839641258604 -20.31864028412331 a42.22084031297733,42.22084031297733 0 0,0 0.6940596024992739,0.21564769700555173 l -6.4706846164685965 20.21025245223524" fill="#ffe915" stroke="none" /><path d="M 106.40334571778207 80.00007090966166 l 6.23620892286333 -19.477901357636284 a41.451868937273424,41.451868937273424 0 0,0 0.6776732693486626,0.22341822226210623 l -6.570565014454409 19.36766941111494" fill="#ffdf14" stroke="none" /><path d="M 106.74666289553966 80.11325718540242 l 16.962254316273118 -49.99864293894579 a73.79756023933416,73.79756023933416 0 0,0 1.1994493031385416,0.418464310060597 l -17.820385623474934 49.69925777571299" fill="#3fffc2" stroke="none" /><path d="M 107.08798089147638 80.2323363322302 l 8.793594017198634 -24.524446612424185 a47.05332564923249,47.05332564923249 0 0,0 0.7600628424475343,0.27993755930761677 l -9.214439185418746 24.36944578531024" fill="#d7ff1c" stroke="none" /><path d="M 107.4271985657038 80.35727306442388 l 7.344491396458926 -19.42399111927609 a41.766149977171395,41.766149977171395 0 0,0 0.6702807464502635,0.2600585161865158 l -7.677755307908856 19.294689899199025" fill="#ffe315" stroke="none" /><path d="M 107.76421540070413 80.48803036053334 l 7.567835862480018 -19.01845530609384 a41.46884906073929,41.46884906073929 0 0,0 0.660966318582566,0.2696247572257263 l -7.894086050650971 18.885369662684536" fill="#ffdf14" stroke="none" /><path d="M 108.09893153111575 80.62456947434976 l 7.880673447269505 -18.853282101012077 a41.43407105700773,41.43407105700773 0 0,0 0.6556768949101842,0.2807266280197298 l -8.204034099970004 18.714835945029556" fill="#ffde14" stroke="none" /><path d="M 108.43124777332544 80.76684994638697 l 8.379070162449777 -19.114123801937033 a41.8700394226516,41.8700394226516 0 0,0 0.6575946524805404,0.29504355214399003 l -8.706846933397097 18.96705991927651" fill="#ffe415" stroke="none" /><path d="M 108.76106565485865 80.91482961587045 l 6.3863173776437785 -13.912001128751434 a36.30780275070123,36.30780275070123 0 0,0 0.5657478171364683,0.2656261859955873 l -6.624843406079845 13.800009960115844" fill="#ff980e" stroke="none" /><path d="M 109.08828744355905 81.06846463323043 l 9.211552051939554 -19.188304126287647 a42.284823383070375,42.284823383070375 0 0,0 0.6534590551045474,0.32064952039828354 l -9.540482374054534 19.026899445754534" fill="#ffea16" stroke="none" /><path d="M 109.41281617654863 81.2277094730956 l 23.187192124121925 -46.24298391608113 a72.73064314372942,72.73064314372942 0 0,0 1.1143010315437962,0.5707882680436068 l -23.979753643254476 45.83700312272502" fill="#3effb6" stroke="none" /><path d="M 109.73455568895987 81.39251694778311 l 9.563824778065008 -18.281133023260917 a41.63168846700849,41.63168846700849 0 0,0 0.632117623290278,0.3376553427420534 l -9.877087447883596 18.11379895401711" fill="#ffe115" stroke="none" /><path d="M 110.05341064243156 81.56283822128135 l 7.353947551514479 -13.486559491286336 a36.361244464639945,36.361244464639945 0 0,0 0.5469352960829793,0.30436890011589723 l -7.585006936669494 13.357975193610258" fill="#ff990e" stroke="none" /><path d="M 110.36928655335952 81.73862282372117 l 10.437485960673907 -18.381483327628576 a42.13811823467624,42.13811823467624 0 0,0 0.6276638605509076,0.3635834209299943 l -10.752346553690144 18.199095749308533" fill="#ffe815" stroke="none" /><line stroke="#e1ed5e" stroke-width="0.3" x1="143.23703022742887" x2="145.7803849466894" y1="26.81831364943548" y2="22.513508569990506" /><path d="M 143.74570117128098 25.957352633546492 a86.0,86.0 0 0,1 28.547481713284135,27.462654790039103" fill="none" id="id74" stroke="none" /><text fill="#e1ed5e" style="font-size:6.75px; font-family:Arial;" text-anchor="middle"><textPath startOffset="19.985693538727396" xlink:href="#id74">February</textPath></text><path d="M 110.68208982089419 81.91981866633111 l 13.00392650083594 -22.010051696526066 a46.56451603537398,46.56451603537398 0 0,0 0.686578120608042,0.4136556354913203 l -13.38086668766162 21.78294945157613" fill="#ddff1b" stroke="none" /><path d="M 110.99172775467656 82.1063720568725 l 14.47314050429847 -23.561081308836165 a48.65133538364384,48.65133538364384 0 0,0 0.7098017796696239,0.44447780931177805 l -14.876561436340358 23.30845915820144" fill="#c3ff1e" stroke="none" /><path d="M 111.2981086023043 82.29822771554956 l 33.894325806912875 -53.10531685335132 a84.0,84.0 0 0,0 1.2121318968628794,0.7884043033618879 l -34.803424729560035 52.514013625829904" fill="#4dd2ff" stroke="none" /><path d="M 111.60114157652 82.49532879139004 l 14.625113625017228 -22.067466697642264 a47.47389346122355,47.47389346122355 0 0,0 0.6772836009155496,0.4573049106670276 l -15.00280192033932 21.812449874676563" fill="#d2ff1c" stroke="none" /><path d="M 111.90073688211348 82.69761687909136 l 14.992310636071744 -21.79719668307792 a47.45538057653401,47.45538057653401 0 0,0 0.669050497519932,0.4687126297132895 l -15.365292273175328 21.535899210600693" fill="#d2ff1c" stroke="none" /><path d="M 112.19680574252982 82.90503203632743 l 14.853833251384449 -20.81904138923206 a46.57476972773151,46.57476972773151 0 0,0 0.6486195022199456,0.4712496528564552 l -15.209998069958184 20.56027250155893" fill="#ddff1b" stroke="none" /><path d="M 112.48926042617603 83.11751280151076 l 9.111706329127593 -12.316843448590756 a36.320829767520976,36.320829767520976 0 0,0 0.4994180616218428,0.3761513299913335 l -9.322370544507818 12.158175529093576" fill="#ff980e" stroke="none" /><path d="M 112.77801427241765 83.33499621200491 l 15.54240757276567 -20.270307698263125 a46.54313620799586,46.54313620799586 0 0,0 0.6315846952409134,0.49296187266596764 l -15.889024823166013 19.999767436373933" fill="#ddff1b" stroke="none" /><path d="M 113.06298171725822 83.55741782278167 l 16.056789707265214 -20.21093575559528 a46.812834401129564,46.812834401129564 0 0,0 0.6266156501771807,0.5066796109124166 l -16.402308756006885 19.931550047418735" fill="#daff1c" stroke="none" /><path d="M 113.34407831869373 83.78471172551755 l 16.23179539689153 -19.724347780864854 a46.54449211057165,46.54449211057165 0 0,0 0.6142597706909885,0.5144248927883899 l -16.568912704541635 19.442021730682647" fill="#ddff1b" stroke="none" /><path d="M 113.6212207817346 84.01681056812373 l 36.8684496611609 -43.261571369881814 a77.8405325257332,77.8405325257332 0 0,0 1.0123205785436187,0.8778744301403959 l -37.60766403835129 42.62053194632175" fill="#45ffee" stroke="none" /><path d="M 113.89432698308785 84.25364557470407 l 17.020717333615153 -19.289473180968667 a46.72525207165397,46.72525207165397 0 0,0 0.5985037813848868,0.537342604324232 l -17.35023210259603 18.993631567875138" fill="#dbff1b" stroke="none" /><path d="M 114.16331599549186 84.49514656593476 l 17.869609683804054 -19.56220415893594 a47.49533509520863,47.49533509520863 0 0,0 0.5988757280825321,0.5565897214180486 l -18.203693295681433 19.251709851443252" fill="#d1ff1c" stroke="none" /><path d="M 114.42810811169701 84.74124197986012 l 19.420143939204603 -20.538193558750343 a49.26586961825373,49.26586961825373 0 0,0 0.611170693026713,0.5879457224617924 l -19.770797875843733 20.20086474952625" fill="#bbff1f" stroke="none" /><path d="M 114.68862486808459 84.99185889309783 l 10.995871399978888 -11.235060534686587 a36.72055256862639,36.72055256862639 0 0,0 0.4479281412455213,0.44600459545591853 l -11.187635341391731 11.04412008858055" fill="#ff9e0e" stroke="none" /><path d="M 114.94478906791727 85.2469230424477 l 11.42433620456193 -11.277784547436353 a37.05315800748434,37.05315800748434 0 0,0 0.444171619673291,0.45775789786097254 l -11.61677208793833 11.079462454025267" fill="#ffa20f" stroke="none" /><path d="M 115.19652480421416 85.50635884689758 l 13.496824355308162 -12.872556813650075 a39.65119263207285,39.65119263207285 0 0,0 0.46681288292821044,0.49796343592081665 l -13.716404560206835 12.638323960851203" fill="#ffc612" stroke="none" /><path d="M 115.4437574822437 85.77008943001954 l 6.008076191849033 -5.535854017776234 a29.169618059199124,29.169618059199124 0 0,0 0.3370568248983809,0.37218656454163007 l -6.102476657363449 5.431614665965055" fill="#ff2f04" stroke="none" /><path d="M 115.68641384162765 86.03803664274999 l 7.957590814363794 -7.082791037126446 a31.65313007732684,31.65313007732684 0 0,0 0.3587477381729773,0.4101106805488199 l -8.07833041611462 6.944764800374678" fill="#ff5507" stroke="none" /><path d="M 115.9244219780498 86.31012108654704 l 20.8845220747351 -17.95396898942718 a48.54102875281551,48.54102875281551 0 0,0 0.5392431818308825,0.6382938412326769 l -21.190475870053096 17.591816198565397" fill="#c4ff1e" stroke="none" /><path d="M 116.15771136456269 86.58626213691792 l 16.994894166472935 -14.108746605033842 a43.08807729284443,43.08807729284443 0 0,0 0.4688424111877714,0.5747453595654977 l -17.235235069737115 13.814117075860244" fill="#fff417" stroke="none" /><path d="M 116.38621287248628 86.86637796730983 l 6.551097334345613 -5.250733464663246 a29.395658294678547,29.395658294678547 0 0,0 0.313058048850431,0.3975519304974364 l -6.640509463790008 5.137189140212771" fill="#ff3304" stroke="none" /><path d="M 116.60985879189232 87.15038557335679 l 28.429470234095884 -21.993427845405755 a56.9436454214429,56.9436454214429 0 0,0 0.5930926335722173,0.7804403842439783 l -28.803838807892216 21.500802685280743" fill="#62ff29" stroke="none" /><path d="M 116.82858285166822 87.43820079747576 l 9.995455869978116 -7.461169528241683 a33.47309860370879,33.47309860370879 0 0,0 0.34068822126811893,0.46469835093659034 l -10.12240670375986 7.2880087336336" fill="#ff6f0a" stroke="none" /><path d="M 117.04232023915458 87.72973835380427 l 23.31294193415592 -16.785032393503013 a49.726826731754954,49.726826731754954 0 0,0 0.4941600569579136,0.6989543558955548 l -23.598414610917715 16.381251537275663" fill="#b6ff1f" stroke="none" /><path d="M 117.2510076193507 88.02491185347247 l 7.836263309235386 -5.439678999517204 a30.539241598232913,30.539241598232913 0 0,0 0.2960496393539005,0.43441631514508416 l -7.92873741425802 5.303984661101714" fill="#ff4406" stroke="none" /><path d="M 117.45458315368197 88.32363383020206 l 6.406258894777858 -4.285511946939404 a28.70751358573443,28.70751358573443 0 0,0 0.27122225171037107,0.4130900968440217 l -6.479077781846154 4.174603786117708" fill="#ff2803" stroke="none" /><line stroke="#e1ed5e" stroke-width="0.3" x1="172.23445277983987" x2="176.4835382374775" y1="55.19839476539836" y2="52.563006222186495" /><path d="M 173.08426987136738 54.67131705675599 a86.0,86.0 0 0,1 12.851231095245387,41.99856678651699" fill="none" id="id75" stroke="none" /><text fill="#e1ed5e" style="font-size:6.75px; font-family:Arial;" text-anchor="middle"><textPath startOffset="22.20632615414155" xlink:href="#id75">March</textPath></text><path d="M 117.84615892207809 88.93136811851018 l 36.74137388899008 -22.787914428706543 a64.2344492188881,64.2344492188881 0 0,0 0.5746970578102323,0.9446508566231362 l -37.12818674508654 22.152095798876324" fill="#33ff50" stroke="none" /><path d="M 118.03404312379186 89.2402003453031 l 20.704104942755166 -12.352860625023562 a45.109191755466966,45.109191755466966 0 0,0 0.3921069784487318,0.6702379295134107 l -20.913671595674224 11.994643283156256" fill="#efff19" stroke="none" /><path d="M 118.21658344932153 89.55222093294921 l 10.562859885779062 -6.058129764554904 a33.176819995827586,33.176819995827586 0 0,0 0.2798581023084415,0.4978363366004921 l -10.665575629379937 5.875409918019618" fill="#ff6b09" stroke="none" /><path d="M 118.89224826269711 90.83032412892265 l 24.195037911611355 -11.743475538375689 a47.894406058969565,47.894406058969565 0 0,0 0.3536016771551894,0.7447753117594366 l -24.3935977826083 11.325257810975712" fill="#ccff1d" stroke="none" /><path d="M 119.04729006885535 91.15688171328212 l 4.792254556110394 -2.2249083069848816 a26.28355190237128,26.28355190237128 0 0,0 0.1869857979137087,0.4119984197960932 l -4.82984267098745 2.1420878783467256" fill="#ff0300" stroke="none" /><path d="M 119.196687751892 91.48605970444005 l 14.973970476490425 -6.6411191488881585 a37.380606074884284,37.380606074884284 0 0,0 0.25580668403199985,0.5904370957576357 l -15.086067870365106 6.38238290854392" fill="#ffa70f" stroke="none" /><path d="M 119.34039704204932 91.81776055985345 l 17.46846367097067 -7.39029049386249 a39.96743568877186,39.96743568877186 0 0,0 0.2626018740867206,0.6359112674948038 l -17.59308723194359 7.088504655914383" fill="#ffcb12" stroke="none" /><path d="M 119.47837535516314 92.15188598940014 l 9.520694663420706 -3.8360230674387013 a31.264438603645566,31.264438603645566 0 0,0 0.19682668774902415,0.5009024514081526 l -9.585314901051431 3.6715716111347643" fill="#ff4f07" stroke="none" /><path d="M 119.7369772167798 92.82701384747503 l 9.624128590710088 -3.497685605706259 a31.240002721039097,31.240002721039097 0 0,0 0.17932790873878238,0.5069841465604354 l -9.68290958025868 3.331503832719209" fill="#ff4e07" stroke="none" /><path d="M 120.28053869075195 94.5502522615342 l 5.0368090958414635 -1.3534817490653264 a26.21549218319846,26.21549218319846 0 0,0 0.11335537390761082,0.43680449623320533 l -5.059360801619378 1.2665808272832706" fill="#ff0200" stroke="none" /><path d="M 120.37134235888165 94.90015583598534 l 5.032892161585433 -1.2599545609809095 a26.188206723510994,26.188206723510994 0 0,0 0.10570956905441942,0.4382344094761047 l -5.053834530900672 1.1731349198453989" fill="#ff0100" stroke="none" /><path d="M 120.53481517161879 95.60439243477599 l 10.040940448886728 -2.1493270540896243 a31.268402596486524,31.268402596486524 0 0,0 0.10813016248429477,0.5272810739190029 l -10.076449907286019 1.9761703240072097" fill="#ff4f07" stroke="none" /><path d="M 120.6074358757038 95.95851677861258 l 15.354645084519907 -3.011317897759894 a36.64714546340451,36.64714546340451 0 0,0 0.11607420720325883,0.6200730562650482 l -15.404205015633027 2.7465667640322833" fill="#ff9d0e" stroke="none" /><path d="M 120.67395015179393 96.31383870115 l 5.036455115490803 -0.8979989694183484 a26.11588528794674,26.11588528794674 0 0,0 0.07509950939478562,0.4432415555875021 l -5.051166486405811 0.8111716255150085" fill="#ff0000" stroke="none" /><path d="M 120.91429891909075 98.10471618934814 l 5.154011830770712 -0.46706395564860664 a26.175131562616606,26.175131562616606 0 0,0 0.036801631927566206,0.4490731246317348 l -5.161287946517773 0.37827691380910305" fill="#ff0100" stroke="none" /><line stroke="#e1ed5e" stroke-width="0.3" x1="184.98032266829074" x2="189.97916517819016" y1="98.17113171792111" y2="98.06355123074" /><path d="M 185.9800911702706 98.14961562048488 a86.0,86.0 0 0,1 -9.607161424134198,41.387399972396054" fill="none" id="id76" stroke="none" /><text fill="#e1ed5e" style="font-size:6.75px; font-family:Arial;" text-anchor="middle"><textPath startOffset="21.466115282336823" xlink:href="#id76">April</textPath></text><path d="M 120.99980553446 99.90962569577887 l 5.148835758593206 -0.02215841706096547 a26.148883438612174,26.148883438612174 0 0,0 -0.0019371375639008917,0.4501225485054734 l -5.148454323739802 -0.06647360964819267" fill="#ff0100" stroke="none" /><path d="M 120.76222939487914 103.15116336523771 l 5.100085800934878 0.774059626729624 a26.158492365277898,26.158492365277898 0 0,0 -0.07139804242530284,0.4445956783371145 l -5.086006004148286 -0.8617345347599435" fill="#ff0100" stroke="none" /><path d="M 120.23288151984713 105.62410040840565 l 4.992900071688003 1.3878681247040339 a26.182203108469558,26.182203108469558 0 0,0 -0.12443698346518657,0.4331814640408783 l -4.968270451336716 -1.4736070642494943" fill="#ff0100" stroke="none" /><path d="M 119.67450827220406 107.3425965602758 l 4.884619995488815 1.8229575794685218 a26.213701836207253,26.213701836207253 0 0,0 -0.1614086476405616,0.4213870459983958 l -4.8525170682547465 -1.9067681923000614" fill="#ff0200" stroke="none" /><line stroke="#e1ed5e" stroke-width="0.3" x1="174.80103733775053" x2="179.2010983576182" y1="140.37084112569926" y2="142.7455964860345" /><path d="M 175.68104954172406 140.8457921977663 a86.0,86.0 0 0,1 -30.038265399797805,32.042727171017184" fill="none" id="id77" stroke="none" /><text fill="#e1ed5e" style="font-size:6.75px; font-family:Arial;" text-anchor="middle"><textPath startOffset="22.206326154141568" xlink:href="#id77">May</textPath></text><path d="M 118.48025628344425 109.97397251340804 l 4.530797159647858 2.4453149156074754 a26.148561734928066,26.148561734928066 0 0,0 -0.21718695359452464,0.3942574069892031 l -4.488033796601824 -2.522942840994484" fill="#ff0100" stroke="none" /><path d="M 118.30583269289576 110.29060199501025 l 6.719325250220813 3.7772606679552783 a28.70824428595364,28.70824428595364 0 0,0 -0.24586287756183894,0.42868265087268986 l -6.653310376506595 -3.8923631646862833" fill="#ff2803" stroke="none" /><path d="M 117.35343817320211 111.8261652097733 l 4.266695399019633 2.907703026049678 a26.16327672275211,26.16327672275211 0 0,0 -0.2568225775854342,0.3699720777447713 l -4.2160119142720625 -2.9807163659814693" fill="#ff0100" stroke="none" /><path d="M 116.71984013943494 112.70617746262583 l 4.159947876431176 3.161336203720088 a26.224864871704874,26.224864871704874 0 0,0 -0.27622672995230824,0.357060284201274 l -4.104914329260799 -3.2324744820346143" fill="#ff0200" stroke="none" /><path d="M 116.27256486870786 113.27417163493432 l 4.014424020868626 3.2747236774509 a26.1806771162643,26.1806771162643 0 0,0 -0.287867765316238,0.34675526766800135 l -3.9574602556588445 -3.343340202232672" fill="#ff0100" stroke="none" /><path d="M 113.48314897796784 116.09983520530334 l 3.402665665863808 4.063023895135199 a26.299650630568774,26.299650630568774 0 0,0 -0.3495722904681045,0.28767419629488256 l -3.3322232468510125 -4.12099321028726" fill="#ff0300" stroke="none" /><line stroke="#e1ed5e" stroke-width="0.3" x1="143.8653032363475" x2="146.44561519142675" y1="172.8068346515853" y2="177.08958963109032" /><path d="M 144.38136562736335 173.6633856474863 a86.0,86.0 0 0,1 -40.68145358897372,12.25698825130547" fill="none" id="id78" stroke="none" /><text fill="#e1ed5e" style="font-size:6.75px; font-family:Arial;" text-anchor="middle"><textPath startOffset="21.466115282336833" xlink:href="#id78">June</textPath></text><path d="M 107.59598834532513 119.57807347666477 l 1.8714119032205125 4.823419689539826 a26.173737528417526,26.173737528417526 0 0,0 -0.42143429011249184,0.15935038782180602 l -1.788107392347746 -4.854918327468263" fill="#ff0100" stroke="none" /><path d="M 107.2578585660854 119.70592522655815 l 2.617124829732736 7.105796528506664 a28.5724293776133,28.5724293776133 0 0,0 -0.4629828010709584,0.16600916032498478 l -2.4944224680320426 -7.149793229871609" fill="#ff2603" stroke="none" /><path d="M 106.57524785965236 119.94407469862006 l 2.004315316498616 6.079499243995062 a27.401374145110367,27.401374145110367 0 0,0 -0.4492242015875467,0.14382740331561106 l -1.8993697698201286 -6.113099493970379" fill="#ff1402" stroke="none" /><path d="M 106.2309692047433 120.05430185196036 l 1.6244842355148406 5.228383601698087 a26.474937818637002,26.474937818637002 0 0,0 -0.4363637394842207,0.1314728151602584 l -1.534245521590374 -5.255571785964071" fill="#ff0600" stroke="none" /><path d="M 104.83641907484287 120.43548508189849 l 2.397794363413085 10.131481615782109 a31.411356181600283,31.411356181600283 0 0,0 -0.527231911155146,0.11999626645917948 l -2.2230423028650774 -10.171254615818972" fill="#ff5107" stroke="none" /><path d="M 104.48393922423573 120.51570834832081 l 2.475392377748732 11.325851116593892 a32.5932079658336,32.5932079658336 0 0,0 -0.5491312037009496,0.1150757828382199 l -2.2800697126184044 -11.366782880158652" fill="#ff6209" stroke="none" /><path d="M 104.13013068566511 120.58985236759428 l 1.0197385571602258 5.083680867132526 a26.184947240214555,26.184947240214555 0 0,0 -0.44269068004797335,0.08484272244389265 l -0.932080262540548 -5.100480787924886" fill="#ff0100" stroke="none" /><path d="M 103.7750983002368 120.6578951692458 l 1.844041623694736 10.090867977562876 a31.257977678398536,31.257977678398536 0 0,0 -0.5301219476126354,0.09216849573357602 l -1.6700707046100507 -10.121115051817458" fill="#ff4f07" stroke="none" /><path d="M 103.41894727170886 120.7198165907248 l 0.8712525134120955 5.280044074234511 a26.351443391084864,26.351443391084864 0 0,0 -0.4481805010212321,0.0699965769619827 l -0.7802361487823463 -5.294258958543599" fill="#ff0400" stroke="none" /><path d="M 102.70371172650421 120.8252237178851 l 0.7419333004209776 5.714709454248342 a26.76267031581271,26.76267031581271 0 0,0 -0.45735183153628745,0.055378937546256515 l -0.6434540458333098 -5.72663392051995" fill="#ff0a01" stroke="none" /><line stroke="#e1ed5e" stroke-width="0.3" x1="102.19456741930631" x2="102.32365962044197" y1="184.97166512339345" y2="189.96999836594603" /><path d="M 102.22038585953345 185.97133177190398 a86.0,86.0 0 0,1 -42.740103519485714,-10.115201625700543" fill="none" id="id79" stroke="none" /><text fill="#e1ed5e" style="font-size:6.75px; font-family:Arial;" text-anchor="middle"><textPath startOffset="22.20632615414155" xlink:href="#id79">July</textPath></text><path d="M 92.06813273071674 119.44442032107085 l -1.9383899453509466 4.7518279824855405 a26.131980587976756,26.131980587976756 0 0,0 -0.41503625456897786,-0.17348518807027025 l 2.0198976594173867 -4.717757751395297" fill="#ff0000" stroke="none" /><path d="M 91.7346041902142 119.30500536409082 l -2.061926908995568 4.815923030739194 a26.238764855960248,26.238764855960248 0 0,0 -0.4136720269678778,-0.18134165992245804 l 2.144519610621189 -4.779716817522283" fill="#ff0200" stroke="none" /><path d="M 91.40352486487194 119.15986991738527 l -3.033542478675242 6.761175757116215 a28.410524784962476,28.410524784962476 0 0,0 -0.44446507851919653,-0.20403211791269443 l 3.149475552961858 -6.707956568869446" fill="#ff2403" stroke="none" /><line stroke="#e1ed5e" stroke-width="0.3" x1="58.666819895761336" x2="56.23545636021788" y1="174.27360380694188" y2="178.64263932499728" /><path d="M 58.180547188652646 175.14741091055294 a86.0,86.0 0 0,1 -31.652253787137756,-30.449443065178592" fill="none" id="id80" stroke="none" /><text fill="#e1ed5e" style="font-size:6.75px; font-family:Arial;" text-anchor="middle"><textPath startOffset="22.20632615414155" xlink:href="#id80">August</textPath></text><path d="M 83.95833913139862 113.55231037782056 l -3.930565324476903 3.320618835788556 a26.14546919362792,26.14546919362792 0 0,0 -0.28748063911757155,-0.3462889492231693 l 3.987141963488011 -3.252468629451626" fill="#ff0100" stroke="none" /><path d="M 83.72743513129214 113.27417163493432 l -5.764739285858596 4.702524729723943 a28.439486398104826,28.439486398104826 0 0,0 -0.3061742126176629,-0.38199940667785937 l 5.844831410531119 -4.602597489467825" fill="#ff2403" stroke="none" /><path d="M 83.50135304334701 112.99209946851258 l -8.142595085677439 6.412004909425861 a31.36415272406769,31.36415272406769 0 0,0 -0.330358893633101,-0.4270334028477964 l 8.251760796528608 -6.270893512464813" fill="#ff5007" stroke="none" /><path d="M 83.06392112726016 112.41649034213515 l -4.128485077142746 3.0267510840718685 a26.119141642611638,26.119141642611638 0 0,0 -0.2627090724153975,-0.36487992440019107 l 4.179973941933751 -2.9552375542205396" fill="#ff0000" stroke="none" /><path d="M 82.44556493220864 111.52570212397912 l -4.290147441258157 2.8167788530328335 a26.132212795142742,26.132212795142742 0 0,0 -0.24364572259452802,-0.3781435721285826 l 4.33799802722973 -2.7425136809828023" fill="#ff0000" stroke="none" /><path d="M 82.05923443525364 110.91462005526583 l -8.766923667353629 5.333531645422587 a31.261847319168677,31.261847319168677 0 0,0 -0.27572818973866664,-0.4621363058578483 l 8.857432732790526 -5.181833245678628" fill="#ff4f07" stroke="none" /><line stroke="#e1ed5e" stroke-width="0.3" x1="26.63291911575756" x2="22.317208475507996" y1="142.92168965132927" y2="145.44649492493687" /><path d="M 25.769776987707644 143.4266507060508 a86.0,86.0 0 0,1 -11.730757126820373,-40.83630448921669" fill="none" id="id81" stroke="none" /><text fill="#e1ed5e" style="font-size:6.75px; font-family:Arial;" text-anchor="middle"><textPath startOffset="21.46611528233685" xlink:href="#id81">September</textPath></text><path d="M 81.69416730710424 110.29060199501025 l -13.367804726468622 7.51469546864654 a36.335216046456395,36.335216046456395 0 0,0 -0.30179613553227597,-0.5478476486044099 l 13.495177271452414 -7.283477301644307" fill="#ff980e" stroke="none" /><path d="M 81.18737489456691 109.33194174019688 l -4.602387070327309 2.282999196838623 a26.137514192474974,26.137514192474974 0 0,0 -0.1964629283556542,-0.40477182280985585 l 4.641003255297682 -2.2034384180634823" fill="#ff0000" stroke="none" /><path d="M 80.87730276802145 108.67885076344099 l -4.7128361002434875 2.138924268390904 a26.17550201755055,26.17550201755055 0 0,0 -0.18267872296697157,-0.4118922945161131 l 4.748955907941739 -2.057483637382095" fill="#ff0100" stroke="none" /><path d="M 80.45479744820244 107.68017299344265 l -4.768563611987243 1.8737791728297815 a26.123499517917367,26.123499517917367 0 0,0 -0.160853234509663,-0.4199370375759174 l 4.800111126090416 -1.7914185684207062" fill="#ff0000" stroke="none" /><path d="M 79.58551787078972 104.9243191809786 l -4.999201920722049 1.2058922558986789 a26.142586506514736,26.142586506514736 0 0,0 -0.1017562012454295,-0.43836305175809903 l 5.019218687898034 -1.1196605467920056" fill="#ff0100" stroke="none" /><path d="M 79.4281124754447 104.21870165774334 l -5.0312547591894425 1.0317654501944107 a26.135957982312675,26.135957982312675 0 0,0 -0.08658477850355516,-0.44149392019781586 l 5.0482694706686635 -0.9450078029286401" fill="#ff0000" stroke="none" /><path d="M 79.35854240842038 103.8639653848113 l -5.0261867078667075 0.9408740332716674 a26.11349164161054,26.11349164161054 0 0,0 -0.0789044736955261,-0.44253819181591153 l 5.041637623901422 -0.8542170907225423" fill="#ff0000" stroke="none" /><line stroke="#e1ed5e" stroke-width="0.3" x1="15.007084014347285" x2="10.007500721073583" y1="101.09737516637583" y2="101.16192664675087" /><path d="M 14.007167355692545 101.11028546245083 a86.0,86.0 0 0,1 10.666146001902534,-42.60595125391555" fill="none" id="id82" stroke="none" /><text fill="#e1ed5e" style="font-size:6.75px; font-family:Arial;" text-anchor="middle"><textPath startOffset="22.20632615414155" xlink:href="#id82">October</textPath></text><path d="M 79.00019446554 99.90962569577889 l -5.119532158509017 -0.022032306727967986 a26.119579567166404,26.119579567166404 0 0,0 0.005804756758487044,-0.4495848080112003 l 5.118394394632814 0.11015337279964026" fill="#ff0000" stroke="none" /><path d="M 79.46518482838121 95.60439243477599 l -5.0072234874052315 -1.0718279788768463 a26.120654476639274,26.120654476639274 0 0,0 0.09789724392818405,-0.43885414880956763 l 4.98803185647501 1.1578602972363734" fill="#ff0000" stroke="none" /><path d="M 79.81627453868168 94.20196356495316 l -5.22540692229211 -1.501065785969959 a26.436733945793918,26.436733945793918 0 0,0 0.12940668329782712,-0.4362950045720182 l 5.198794341882575 1.5907901772885165" fill="#ff0500" stroke="none" /><path d="M 79.91906864156998 93.8553929516997 l -7.123725468430674 -2.1798039613884606 a28.449765758710313,28.449765758710313 0 0,0 0.1473217149685177,-0.4670500957391844 l 7.085148269693953 2.302104223554059" fill="#ff2403" stroke="none" /><path d="M 80.02781315780177 93.51064311812611 l -9.754803793677931 -3.1695278854534337 a31.256807693908485,31.256807693908485 0 0,0 0.170666198011373,-0.5102702092503015 l 9.698800301894787 3.3369711976260574" fill="#ff4f07" stroke="none" /><path d="M 80.14247586403 93.16781622104843 l -9.652048757469377 -3.320885851775432 a31.207366362440823,31.207366362440823 0 0,0 0.1791405652872296,-0.5064545013949604 l 9.593455111372338 3.4865379795970037" fill="#ff4e07" stroke="none" /><path d="M 80.95270993114464 91.15688171328213 l -4.663207217116089 -2.1649952758299227 a26.141274753806634,26.141274753806634 0 0,0 0.19299954538615252,-0.40650626360382075 l 4.625249477888186 2.2449439550742754" fill="#ff0100" stroke="none" /><line stroke="#e1ed5e" stroke-width="0.3" x1="26.266209847984243" x2="21.928928074336255" y1="57.711370442889674" y2="55.22380399835377" /><path d="M 25.398753493254645 57.213857153982495 a86.0,86.0 0 0,1 29.58750427330803,-30.492523968695096" fill="none" id="id83" stroke="none" /><text fill="#e1ed5e" style="font-size:6.75px; font-family:Arial;" text-anchor="middle"><textPath startOffset="21.46611528233685" xlink:href="#id83">November</textPath></text><path d="M 82.54541684631803 88.32363383020206 l -4.261157030735348 -2.8505309671276393 a26.126693479733202,26.126693479733202 0 0,0 0.25327407549741543,-0.3716484534130401 l 4.211458489569193 2.923457443811095" fill="#ff0000" stroke="none" /><path d="M 82.7489923806493 88.02491185347247 l -4.22117022263827 -2.930199012890648 a26.138515768549645,26.138515768549645 0 0,0 0.25975135133112587,-0.3673998655016948 l 4.170106251503266 3.002425378724129" fill="#ff0000" stroke="none" /><path d="M 82.95767976084542 87.72973835380427 l -8.302359099323336 -5.977596770850543 a31.230387566900866,31.230387566900866 0 0,0 0.31786197374933794,-0.4335633749736298 l 8.198234513060365 6.119622589495673" fill="#ff4e07" stroke="none" /><path d="M 83.17141714833178 87.43820079747576 l -8.198807728928921 -6.1200504700073 a31.231102869748753,31.231102869748753 0 0,0 0.32528541004523487,-0.4280374700923548 l 8.092246378659578 6.260272715980681" fill="#ff4e07" stroke="none" /><path d="M 83.39014120810768 87.1503855733568 l -12.106448494255858 -9.365714493800343 a36.30629619220312,36.30629619220312 0 0,0 0.38665499962537503,-0.4910125840942471 l 11.943439414036513 9.572719471847638" fill="#ff980e" stroke="none" /><path d="M 83.6137871275137 86.86637796730984 l -9.077419496992867 -7.2755918425699955 a32.633304835000985,32.633304835000985 0 0,0 0.3550837792061179,-0.4352907277280422 l 8.950837225710357 7.43076673990612" fill="#ff6309" stroke="none" /><path d="M 83.84228863543731 86.58626213691792 l -8.043768028848083 -6.67774001750333 a31.454396962201308,31.454396962201308 0 0,0 0.349427474783067,-0.4136119150440483 l 7.927629940577891 6.815210882176495" fill="#ff5207" stroke="none" /><path d="M 84.07557802195018 86.31012108654704 l -7.822203424456016 -6.724578001311803 a31.315367938629144,31.315367938629144 0 0,0 0.35491963640225094,-0.40573449847057613 l 7.705291924475922 6.858228055985323" fill="#ff5007" stroke="none" /><path d="M 84.31358615837235 86.03803664274999 l -7.675372440753897 -6.831597703145453 a31.27531358557522,31.27531358557522 0 0,0 0.3613882730127253,-0.3990539572631175 l 7.5566405271251265 6.962704447678127" fill="#ff4f07" stroke="none" /><path d="M 85.05521093208273 85.24692304244772 l -3.655440156240846 -3.6085480827909584 a26.13652236456461,26.13652236456461 0 0,0 0.31882101609180075,-0.31745189732771734 l 3.592783339981732 3.6709358307687854" fill="#ff0000" stroke="none" /><path d="M 85.83668400450813 84.49514656593479 l -3.4689272730564658 -3.7975011614011613 a26.143391050328386,26.143391050328386 0 0,0 0.33487071140572156,-0.3006502310850796 l 3.4030455740547727 3.8566504012555196" fill="#ff0100" stroke="none" /><path d="M 87.80319425747018 82.90503203632743 l -2.9739035019899296 -4.1682048699274175 a26.12035485848731,26.12035485848731 0 0,0 0.36825827126774957,-0.2579884528587982 l 2.90171409113852 4.218778165550158" fill="#ff0000" stroke="none" /><path d="M 88.70189139769569 82.29822771554957 l -2.7536131345957995 -4.3143356453614725 a26.118190828393868,26.118190828393868 0 0,0 0.38105302116699247,-0.23861536689690038 l 2.678940961056565 4.3610953535813035" fill="#ff0000" stroke="none" /><path d="M 89.00827224532344 82.1063720568725 l -2.6758056318476915 -4.3559912957302585 a26.112200695190438,26.112200695190438 0 0,0 0.38501561284613484,-0.2319675987707036 l 2.6004279527839076 4.401405503959581" fill="#ff0000" stroke="none" /><line stroke="#e1ed5e" stroke-width="0.3" x1="56.762969772571076" x2="54.21961505331055" y1="26.818313649435495" y2="22.513508569990535" /><path d="M 56.25429882871897 25.957352633546506 a86.0,86.0 0 0,1 42.265352541879196,-11.944610805530505" fill="none" id="id84" stroke="none" /><text fill="#e1ed5e" style="font-size:6.75px; font-family:Arial;" text-anchor="middle"><textPath startOffset="22.20632615414155" xlink:href="#id84">December</textPath></text><path d="M 89.3179101791058 81.91981866633112 l -2.6316521836702775 -4.454254690391779 a26.173584643426036,26.173584643426036 0 0,0 0.3898658475980563,-0.2258354630280239 l 2.5545896036069013 4.498894310809851" fill="#ff0100" stroke="none" /><path d="M 90.58718382345135 81.22770947309562 l -2.3161851110043963 -4.619244549382829 a26.167410732217967,26.167410732217967 0 0,0 0.4043846024068799,-0.19842976817800906 l 2.2363292415870903 4.658429477695668" fill="#ff0100" stroke="none" /><path d="M 91.56875222667455 80.76684994638697 l -2.1525781049925197 -4.9104069538112745 a26.36150062483735,26.36150062483735 0 0,0 0.417159753650209,-0.17860603583386503 l 2.0677345935520024 4.946732517607925" fill="#ff0400" stroke="none" /><path d="M 91.90106846888425 80.62456947434976 l -1.987234771555153 -4.754149248761314 a26.152769849001178,26.152769849001178 0 0,0 0.41684542492396903,-0.17004171519178515 l 1.9051054770428038 4.787651850136676" fill="#ff0100" stroke="none" /><path d="M 92.23578459929587 80.48803036053334 l -4.231572621393091 -10.63421250630584 a32.44520347042354,32.44520347042354 0 0,0 0.52069427545446,-0.20202128940540373 l 4.047895180938955 10.705476499601795" fill="#ff6008" stroke="none" /><path d="M 92.57280143429618 80.3572730644239 l -2.173958238221763 -5.74947171062871 a27.146748683072385,27.146748683072385 0 0,0 0.4385074738623037,-0.16150600334028978 l 2.07466843858689 5.786040981775322" fill="#ff1001" stroke="none" /><path d="M 93.59665428221793 80.00007090966166 l -1.5641897170450187 -4.885521538820253 a26.129815803436415,26.129815803436415 0 0,0 0.42954260112955295,-0.13346097707719287 l 1.4798617432047372 4.911722650779971" fill="#ff0000" stroke="none" /><path d="M 93.94186890950719 79.89281104454417 l -2.9330696974375554 -9.734980267833903 a31.167238497504712,31.167238497504712 0 0,0 0.5150160307229196,-0.1503473020374614 l 2.7650634489912145 9.784025898790063" fill="#ff4d07" stroke="none" /><path d="M 94.28887869178378 79.79150937346287 l -1.571244012580639 -5.559761067333337 a26.77752117026896,26.77752117026896 0 0,0 0.44463705492520206,-0.12153610337311554 l 1.4753090684317145 5.585983711532749" fill="#ff0a01" stroke="none" /><path d="M 94.63758080256005 79.69619591428918 l -2.646326186601838 -10.019822483348783 a31.363391572439806,31.363391572439806 0 0,0 0.5231579661198792,-0.133364614161981 l 2.4734593317969598 10.063890093679627" fill="#ff5007" stroke="none" /><path d="M 94.98787191387505 79.60689891045804 l -2.7105955649204483 -11.028738375882911 a32.356953750026406,32.356953750026406 0 0,0 0.542019518633719,-0.12827850811230823 l 2.5203523593241957 11.07376279613609" fill="#ff5f08" stroke="none" /><path d="M 95.33964822691252 79.52364482259891 l -2.664879275973236 -11.708775907182812 a33.008206144138946,33.008206144138946 0 0,0 0.5550994363068154,-0.12132323649507407 l 2.4629371155128994 11.752912641773754" fill="#ff6809" stroke="none" /><path d="M 95.692805502759 79.44645832069477 l -1.0506183813748962 -5.013455673865022 a26.122356564813913,26.122356564813913 0 0,0 0.4408876490688912,-0.08843791474756069 l 0.9641643228388685 5.0307975446897935" fill="#ff0000" stroke="none" /><path d="M 96.04723909329186 79.375362276772 l -0.9613250435482669 -5.015982809332453 a26.107272205676114,26.107272205676114 0 0,0 0.4420892081444407,-0.08078897702529361 l 0.8748407143009329 5.0317872677084825" fill="#ff0000" stroke="none" /><path d="M 96.40284397218896 79.31037775812273 l -2.7454728556064802 -15.791029307225289 a37.027920257554314,37.027920257554314 0 0,0 0.628894176823235,-0.10377292774907432 l 2.4732494726443592 15.83594849791399" fill="#ffa20f" stroke="none" /><path d="M 97.47563105711357 79.15227682838746 l -0.6446097290219286 -5.323566201464696 a26.36245082067211,26.36245082067211 0 0,0 0.450965243422523,-0.05067119959784133 l 0.5528777820896876 5.333873354533136" fill="#ff0400" stroke="none" /></svg>