<?xml version="1.0" encoding="utf-8" ?>
<svg baseProfile="full" height="200mm" version="1.1" viewBox="0,0,200,200" width="200mm" xmlns="http://www.w3.org/2000/svg" xmlns:ev="http://www.w3.org/2001/xml-events" xmlns:xlink="http://www.w3.org/1999/xlink"><defs /><rect fill="#1a1a1a" height="200" width="200" x="0" y="0" /><text alignment-baseline="middle" fill="#e1ed5e" style="dominant-baseline: central; font-size:9.0px; font-family:Arial;" text-anchor="middle" x="100.0" y="100.0">2018</text><line stroke="#e1ed5e" stroke-width="0.3" x1="100.0" x2="100.0" y1="15.0" y2="10.0" /><path d="M 100.0 14.0 a86.0,86.0 0 0,1 42.46469731375804,11.215312516191453" fill="none" id="id73" stroke="none" /><text fill="#e1ed5e" style="font-size:6.75px; font-family:Arial;" text-anchor="middle"><textPath startOffset="22.20632615414155" xlink:href="#id73">January</textPath></text><path d="M 100.0 79.0 l 0.0 -26.280599500416315 a47.280599500416315,47.280599500416315 0 0,0 0.8138577984620455,0.007005131015439784 l -0.4523773191895171 26.276705746009434" fill="#d5ff1c" stroke="none" /><path d="M 100.36148047927253 79.00311137660856 l 0.2709749171432617 -15.739799190374118 a36.742131557035805,36.742131557035805 0 0,0 0.6322679862323266,0.016329616712122966 l -0.5418695385704562 15.732802781519636" fill="#ff9c0e" stroke="none" /><path d="M 100.72285384407766 79.0124445844662 l 0.5422306645541752 -15.743287821693922 a36.7526228143214,36.7526228143214 0 0,0 0.632073650625199,0.027218420998164048 l -0.8131451475687057 15.731621674171564" fill="#ff9d0e" stroke="none" /><path d="M 101.08401301168833 79.027996857942 l 0.8134159251736237 -15.736860309427698 a36.757868442964195,36.757868442964195 0 0,0 0.6316016160943945,0.03809993431201062 l -1.08417959010763 15.720527105735382" fill="#ff9d0e" stroke="none" /><path d="M 101.44485096284872 79.0497635885617 l 1.0874277979341842 -15.767625888675335 a36.805079100749374,36.805079100749374 0 0,0 0.631662456628816,0.049029163713156555 l -1.3586804439253415 15.746571462773714" fill="#ff9d0e" stroke="none" /><path d="M 101.80526077348638 79.07773832637324 l 1.3541710498200468 -15.694309360341675 a36.7526228143214,36.7526228143214 0 0,0 0.6298259744954335,0.059809565348498676 l -1.6241221514057245 15.668674250477999" fill="#ff9d0e" stroke="none" /><path d="M 102.16513564639614 79.11191278185805 l 3.254193468201214 -31.394742912129914 a52.56294754371358,52.56294754371358 0 0,0 0.899160043779696,0.10103110763699158 l -3.7941202154906355 31.33407585102232" fill="#95ff23" stroke="none" /><path d="M 102.52436894288641 79.15227682838746 l 1.906203325814889 -15.742547996948721 a36.85753538717735,36.85753538717735 0 0,0 0.6291849323716163,0.08168626195030494 l -2.1769029866943512 15.707403411834278" fill="#ff9e0e" stroke="none" /><path d="M 102.88285421437855 79.19881850522331 l 2.162500717513443 -15.603484103783773 a36.7526228143214,36.7526228143214 0 0,0 0.6258989509050861,0.09224123542219763 l -2.430768648847185 15.563948384200605" fill="#ff9d0e" stroke="none" /><path d="M 103.2404852339499 79.25152402106235 l 2.581325747976581 -16.527949183222024 a37.728309741881766,37.728309741881766 0 0,0 0.6407898184131133,0.10573581053719555 l -2.8654447725285697 16.481067109745204" fill="#ffaa0f" stroke="none" /><path d="M 103.59715602781102 79.31037775812273 l 2.6956206702996894 -15.504296434379308 a36.73688592839301,36.73688592839301 0 0,0 0.6220864700772734,0.11368232612997366 l -2.9621022614798638 15.455598626898595" fill="#ff9c0e" stroke="none" /><path d="M 103.95276090670814 79.375362276772 l 2.9709885682643034 -15.501965422779291 a36.78409658617819,36.78409658617819 0 0,0 0.6208342584546281,0.12453351174053028 l -3.237389236186057 15.448527954961552" fill="#ff9d0e" stroke="none" /><path d="M 104.307194497241 79.44645832069477 l 8.623354844809318 -41.149867583588176 a63.043713572023314,63.043713572023314 0 0,0 1.060206959254334,0.23172017703192235 l -9.330404528217182 40.99533390846039" fill="#31ff40" stroke="none" /><path d="M 104.66035177308747 79.52364482259891 l 3.498174124428275 -15.370053449148278 a36.76311407160699,36.76311407160699 0 0,0 0.6158282249469561,0.14574664423299222 l -3.7622260363377547 15.307560892774417" fill="#ff9d0e" stroke="none" /><path d="M 105.01212808612495 79.60689891045804 l 3.8874249060994117 -15.816963917492373 a37.287676935886765,37.287676935886765 0 0,0 0.6219781805821684,0.15855608715228087 l -4.1591119753666055 15.747704834171223" fill="#ffa40f" stroke="none" /><path d="M 105.36241919743992 79.69619591428918 l 5.379386052519255 -20.36804593044497 a42.06644462947544,42.06644462947544 0 0,0 0.6985075254834275,0.1909284929892613 l -5.729191467226393 20.272430896629416" fill="#ffe515" stroke="none" /><path d="M 105.71112130821622 79.79150937346287 l 5.724911692723982 -20.25728714844966 a42.05070774354704,42.05070774354704 0 0,0 0.6948574732697169,0.20284795069393002 l -6.072759383717126 20.155740868837025" fill="#ffe515" stroke="none" /><path d="M 106.0581310904928 79.89281104454417 l 6.2543519892606225 -20.758454276327786 a42.68018318068276,42.68018318068276 0 0,0 0.7016106442551272,0.21799384243568318 l -6.610748006226467 20.647720299009585" fill="#ffee16" stroke="none" /><path d="M 106.40334571778207 80.00007090966166 l 6.418807585043992 -20.048222008208437 a42.05070774354704,42.05070774354704 0 0,0 0.6874633478677854,0.22664585722644698 l -6.762953755154195 19.934762426722752" fill="#ffe515" stroke="none" /><path d="M 106.74666289553966 80.11325718540242 l 16.867780746408755 -49.7201687338819 a73.50349708576186,73.50349708576186 0 0,0 1.1946698247453926,0.4167968438967456 l -17.72113257521742 49.422451036812944" fill="#3fffbe" stroke="none" /><path d="M 107.08798089147638 80.2323363322302 l 8.8826977849801 -24.77294803194031 a47.31731890091591,47.31731890091591 0 0,0 0.7643271842021906,0.2815081523641172 l -9.307807294954866 24.61637661176987" fill="#d5ff1c" stroke="none" /><path d="M 107.4271985657038 80.35727306442388 l 6.495242842263701 -17.177981765558364 a39.36494587843464,39.36494587843464 0 0,0 0.6317452128528307,0.24510732783614653 l -6.789971220116199 17.06363173383167" fill="#ffc111" stroke="none" /><path d="M 107.76421540070413 80.48803036053334 l 7.786842173312351 -19.568832165476767 a42.061199000832644,42.061199000832644 0 0,0 0.6704077033348327,0.273476135125229 l -8.122533746235572 19.43189514416796" fill="#ffe515" stroke="none" /><path d="M 108.09893153111575 80.62456947434976 l 8.110395464173946 -19.4028561975017 a42.02972522897585,42.02972522897585 0 0,0 0.6651028737713731,0.2847623402463278 l -8.443182095735635 19.260374329292578" fill="#ffe515" stroke="none" /><path d="M 108.43124777332544 80.76684994638697 l 8.620090874992755 -19.663934180542416 a42.47035803497086,42.47035803497086 0 0,0 0.6670230245262594,0.29927378785045566 l -8.957296017985795 19.51264006217543" fill="#ffeb16" stroke="none" /><path d="M 108.76106565485865 80.91482961587045 l 6.571893462499717 -14.316261448011925 a36.7526228143214,36.7526228143214 0 0,0 0.5726789988920691,0.2688804687668425 l -6.817350672691384 14.20101599660508" fill="#ff9d0e" stroke="none" /><path d="M 109.08828744355905 81.06846463323043 l 9.478001684477698 -19.743337258017384 a42.900499583680265,42.900499583680265 0 0,0 0.6629735606910121,0.3253182469685177 l -9.816446512179143 19.577263850914033" fill="#fff116" stroke="none" /><path d="M 109.41281617654863 81.2277094730956 l 23.538310427167758 -46.94323075724561 a73.51398834304746,73.51398834304746 0 0,0 1.1263026078522855,0.5769359415725678 l -24.3428735226088 46.531102290360536" fill="#3fffbe" stroke="none" /><path d="M 109.73455568895987 81.39251694778311 l 9.760492889796396 -18.65706169149008 a42.05595337218984,42.05595337218984 0 0,0 0.6385594788427194,0.341096358882582 l -10.080197415167426 18.486286606105743" fill="#ffe515" stroke="none" /><path d="M 110.05341064243156 81.56283822128135 l 7.56642621123554 -13.876228585998158 a36.805079100749374,36.805079100749374 0 0,0 0.5536113279869054,0.3080841046424457 l -7.80416162829448 13.743929083795532" fill="#ff9d0e" stroke="none" /><path d="M 110.36928655335952 81.73862282372117 l 10.386554307819734 -18.291787463000357 a42.034970857618646,42.034970857618646 0 0,0 0.6261274397613245,0.3626934268395678 l -10.699878480046387 18.11028987877074" fill="#ffe515" stroke="none" /><line stroke="#e1ed5e" stroke-width="0.3" x1="143.23703022742887" x2="145.7803849466894" y1="26.81831364943548" y2="22.513508569990506" /><path d="M 143.74570117128098 25.957352633546492 a86.0,86.0 0 0,1 28.547481713284135,27.462654790039103" fill="none" id="id74" stroke="none" /><text fill="#e1ed5e" style="font-size:6.75px; font-family:Arial;" text-anchor="middle"><textPath startOffset="19.985693538727396" xlink:href="#id74">February</textPath></text><path d="M 110.68208982089419 81.91981866633111 l 13.362840755130254 -22.61753908051967 a47.27010824313072,47.27010824313072 0 0,0 0.6969818402891247,0.41992376019115846 l -13.750184661637014 22.384168710869897" fill="#d5ff1c" stroke="none" /><path d="M 110.99172775467656 82.1063720568725 l 14.518964954220557 -23.63567974103036 a48.73888426311407,48.73888426311407 0 0,0 0.7110790796649071,0.44527765445164474 l -14.923663186257727 23.38225774525577" fill="#c3ff1e" stroke="none" /><path d="M 111.2981086023043 82.29822771554956 l 33.894325806912875 -53.10531685335132 a84.0,84.0 0 0,0 1.2121318968628794,0.7884043033618879 l -34.803424729560035 52.514013625829904" fill="#4dd2ff" stroke="none" /><path d="M 111.60114157652 82.49532879139004 l 14.518331215245276 -21.906345400949856 a47.280599500416315,47.280599500416315 0 0,0 0.6745259836175777,0.45544295515769856 l -14.893261893269395 21.653190533493486" fill="#d5ff1c" stroke="none" /><path d="M 111.90073688211348 82.69761687909136 l 14.896234600234122 -21.657512527611953 a47.28584512905912,47.28584512905912 0 0,0 0.6666602991040239,0.46703814297542795 l -15.266826038921797 21.39788954187259" fill="#d5ff1c" stroke="none" /><path d="M 112.19680574252982 82.90503203632743 l 15.285106014222842 -21.423510642900577 a47.31731890091591,47.31731890091591 0 0,0 0.6589605490549646,0.4787628631661917 l -15.651611879631595 21.15722854491771" fill="#d5ff1c" stroke="none" /><path d="M 112.48926042617603 83.11751280151076 l 9.377864323335173 -12.676625275268611 a36.76835970024979,36.76835970024979 0 0,0 0.5055716801639236,0.38078610789933737 l -9.594682157257479 12.513322577863425" fill="#ff9d0e" stroke="none" /><path d="M 112.77801427241765 83.33499621200491 l 16.000712459857535 -20.868025975658473 a47.29633638634471,47.29633638634471 0 0,0 0.6418055300160341,0.5009393963281442 l -16.357550545033 20.589508190107104" fill="#d5ff1c" stroke="none" /><path d="M 113.06298171725822 83.55741782278167 l 16.455441332256417 -20.712724875864772 a47.45370524562864,47.45370524562864 0 0,0 0.6351940604794567,0.5136160887884085 l -16.809538791300362 20.426402689812235" fill="#d3ff1c" stroke="none" /><path d="M 113.34407831869373 83.78471172551755 l 16.70620829307901 -20.300838842224657 a47.291090757701916,47.291090757701916 0 0,0 0.6241128272609252,0.5226765443069743 l -17.05317865729905 20.010261140523863" fill="#d5ff1c" stroke="none" /><path d="M 113.6212207817346 84.01681056812373 l 35.994728055779454 -42.23634329720709 a76.49350541215654,76.49350541215654 0 0,0 0.9948024138717741,0.8626828503638336 l -36.716424268298 41.61049545342358" fill="#43ffdf" stroke="none" /><path d="M 113.89432698308785 84.25364557470407 l 17.38815441763616 -19.705887344895746 a47.280599500416315,47.280599500416315 0 0,0 0.6056172269279291,0.5437291259682095 l -17.72478263216008 19.403659210158242" fill="#d5ff1c" stroke="none" /><path d="M 114.16331599549186 84.49514656593476 l 17.70709322833557 -19.384294280806788 a47.25437135720233,47.25437135720233 0 0,0 0.5958373805532278,0.5537659085206361 l -18.038138492683643 19.076623786211513" fill="#d5ff1c" stroke="none" /><path d="M 114.42810811169701 84.74124197986012 l 19.13015766616679 -20.231512299143 a48.843796835970025,48.843796835970025 0 0,0 0.6059346438743305,0.5829086473257168 l -19.475575553653538 19.89922056505498" fill="#c2ff1e" stroke="none" /><path d="M 114.68862486808459 84.99185889309783 l 11.040317792189809 -11.280473752873105 a36.78409658617819,36.78409658617819 0 0,0 0.44870326993172654,0.44677639549321013 l -11.232856862288859 11.088761506729776" fill="#ff9d0e" stroke="none" /><path d="M 114.94478906791727 85.2469230424477 l 11.247789207735568 -11.10350229969319 a36.805079100749374,36.805079100749374 0 0,0 0.4411977946139265,0.4546931097306947 l -11.437251266052604 10.908244994412382" fill="#ff9d0e" stroke="none" /><path d="M 115.19652480421416 85.50635884689758 l 11.391699651318907 -10.864800274886015 a36.742131557035805,36.742131557035805 0 0,0 0.4325645514933108,0.46142970384191795 l -11.577031524782681 10.667101154166042" fill="#ff9c0e" stroke="none" /><path d="M 115.4437574822437 85.77008943001954 l 5.956326782493989 -5.488172003343009 a29.099250624479602,29.099250624479602 0 0,0 0.33624372463513197,0.3712887189225783 l -6.049914147745157 5.384830497150881" fill="#ff2c04" stroke="none" /><path d="M 115.68641384162765 86.03803664274999 l 7.891533091683124 -7.0239952210245304 a31.564696086594505,31.564696086594505 0 0,0 0.35774545201437835,0.40896489420685983 l -8.011270407275351 6.887114770614723" fill="#ff5107" stroke="none" /><path d="M 115.9244219780498 86.31012108654704 l 19.908842298119726 -17.11519832518703 a47.25437135720233,47.25437135720233 0 0,0 0.5249496811416035,0.6213748448187673 l -20.200502592748446 16.76996453073916" fill="#d5ff1c" stroke="none" /><path d="M 116.15771136456269 86.58626213691792 l 16.398529876990395 -13.613659518160476 a42.31298917568692,42.31298917568692 0 0,0 0.4604086586380501,0.5644065761576658 l -16.630437027704854 13.32936877239471" fill="#ffe915" stroke="none" /><path d="M 116.38621287248628 86.86637796730983 l 6.45488535384951 -5.173619137107178 a29.272356369691924,29.272356369691924 0 0,0 0.3117449073086135,0.3958843740909396 l -6.542984341752088 5.061742369063199" fill="#ff2f04" stroke="none" /><path d="M 116.60985879189232 87.15038557335679 l 27.05152689170806 -20.927431988771126 a55.2014987510408,55.2014987510408 0 0,0 0.5749474244067224,0.7565634159396978 l -27.407750256338897 20.458683796950393" fill="#77ff27" stroke="none" /><path d="M 116.82858285166822 87.43820079747576 l 9.937411289261522 -7.417841793863606 a33.400666111573685,33.400666111573685 0 0,0 0.3399510054758292,0.4636927894244069 l -10.06362490725098 7.245686560767705" fill="#ff6c0a" stroke="none" /><path d="M 117.04232023915458 87.72973835380427 l 21.4213877044361 -15.423136537133292 a47.39600333055787,47.39600333055787 0 0,0 0.47099751270574103,0.666192579684131 l -21.683697836945722 15.052117457117369" fill="#d4ff1c" stroke="none" /><path d="M 117.2510076193507 88.02491185347247 l 7.941783607609492 -5.5129277570483515 a30.6676935886761,30.6676935886761 0 0,0 0.2972948623343951,0.43624352621651463 l -8.03550293561262 5.375406207561431" fill="#ff4406" stroke="none" /><path d="M 117.45458315368197 88.32363383020206 l 6.051697273266587 -4.048325456372908 a28.280932556203165,28.280932556203165 0 0,0 0.2671920083031576,0.40695175963572866 l -6.12048591692767 3.9435556327595047" fill="#ff2003" stroke="none" /><line stroke="#e1ed5e" stroke-width="0.3" x1="172.23445277983987" x2="176.4835382374775" y1="55.19839476539836" y2="52.563006222186495" /><path d="M 173.08426987136738 54.67131705675599 a86.0,86.0 0 0,1 12.851231095245387,41.99856678651699" fill="none" id="id75" stroke="none" /><text fill="#e1ed5e" style="font-size:6.75px; font-family:Arial;" text-anchor="middle"><textPath startOffset="22.20632615414155" xlink:href="#id75">March</textPath></text><path d="M 117.84615892207809 88.93136811851018 l 37.32982551544093 -23.15288677158927 a64.92689425478767,64.92689425478767 0 0,0 0.5808922712769302,0.954834158640687 l -37.72283358500408 22.506884839741502" fill="#34ff58" stroke="none" /><path d="M 118.03404312379186 89.2402003453031 l 17.045999795277705 -10.170295227320501 a40.84945878434638,40.84945878434638 0 0,0 0.3550796906764541,0.6069462921389092 l -17.218539160424488 9.875369522827697" fill="#ffd513" stroke="none" /><path d="M 118.21658344932153 89.55222093294921 l 10.333853708595138 -5.926787575671694 a32.912822647793504,32.912822647793504 0 0,0 0.27763119216923676,0.4938749119481577 l -10.434342542056807 5.748029153788743" fill="#ff6509" stroke="none" /><path d="M 118.89224826269711 90.83032412892265 l 23.70418726649315 -11.505232781121103 a47.34879267277269,47.34879267277269 0 0,0 0.34957344454280465,0.7362908265503586 l -23.89871890487771 11.095499538930204" fill="#d4ff1c" stroke="none" /><path d="M 119.04729006885535 91.15688171328212 l 4.933898368377103 -2.2906695245611433 a26.439716902581182,26.439716902581182 0 0,0 0.18809678311384098,0.4144463284179158 l -4.972597468454291 2.2054011873011645" fill="#ff0300" stroke="none" /><path d="M 119.196687751892 91.48605970444005 l 14.975334516858972 -6.641724115662043 a37.38209825145712,37.38209825145712 0 0,0 0.2558168954432414,0.5904606651026661 l -15.087442122144894 6.3829643059727745" fill="#ffa50f" stroke="none" /><path d="M 119.34039704204932 91.81776055985345 l 17.087506495685712 -7.229120957485014 a39.553788509575355,39.553788509575355 0 0,0 0.25988404837196744,0.6293298369505271 l -17.20941223094388 6.933916550081184" fill="#ffc412" stroke="none" /><path d="M 119.47837535516314 92.15188598940014 l 9.755406141657469 -3.930591654767534 a31.517485428809323,31.517485428809323 0 0,0 0.19841975548562443,0.5049566350335958 l -9.821619447024792 3.7620860148381543" fill="#ff5107" stroke="none" /><path d="M 119.7369772167798 92.82701384747503 l 9.899712802155001 -3.597840847860984 a31.53322231473772,31.53322231473772 0 0,0 0.18101108581814276,0.5117427148228504 l -9.960176968782953 3.426900506611519" fill="#ff5107" stroke="none" /><path d="M 120.28053869075195 94.5502522615342 l 5.182429079260428 -1.392612473717863 a26.366278101582015,26.366278101582015 0 0,0 0.114007369835779,0.43931690251031513 l -5.20563278096651 1.3031991456586973" fill="#ff0200" stroke="none" /><path d="M 120.37134235888165 94.90015583598534 l 5.175101210403658 -1.2955557489099663 a26.33480432972523,26.33480432972523 0 0,0 0.10630131517666933,0.44068757918215523 l -5.196635325841147 1.2062829380684048" fill="#ff0100" stroke="none" /><path d="M 120.53481517161879 95.60439243477599 l 10.33067054678774 -2.2113456210727325 a31.564696086594505,31.564696086594505 0 0,0 0.10915478352560166,0.5322774900031716 l -10.367204626228338 2.033192474906149" fill="#ff5107" stroke="none" /><path d="M 120.6074358757038 95.95851677861258 l 15.514773954047769 -3.0427220056440576 a36.81032472939217,36.81032472939217 0 0,0 0.11659105247707262,0.6228340643845236 l -15.564850730434701 2.7752098637969715" fill="#ff9d0e" stroke="none" /><path d="M 120.67395015179393 96.31383870115 l 5.179676603392834 -0.923535332909211 a26.26136552872606,26.26136552872606 0 0,0 0.07551785610555956,0.4457106615557394 l -5.194806321018617 0.8342388830376336" fill="#ff0000" stroke="none" /><path d="M 120.91429891909075 98.10471618934814 l 5.2973603090652865 -0.480054400666359 a26.319067443796836,26.319067443796836 0 0,0 0.03700400246036345,0.451542557717624 l -5.304838795345145 0.3887979257409662" fill="#ff0100" stroke="none" /><line stroke="#e1ed5e" stroke-width="0.3" x1="184.98032266829074" x2="189.97916517819016" y1="98.17113171792111" y2="98.06355123074" /><path d="M 185.9800911702706 98.14961562048488 a86.0,86.0 0 0,1 -9.607161424134198,41.387399972396054" fill="none" id="id76" stroke="none" /><text fill="#e1ed5e" style="font-size:6.75px; font-family:Arial;" text-anchor="middle"><textPath startOffset="21.466115282336823" xlink:href="#id76">April</textPath></text><path d="M 120.99980553446 99.90962569577887 l 5.298035867561514 -0.022800511389677276 a26.298084929225645,26.298084929225645 0 0,0 -0.0019481905716798235,0.45269087825283777 l -5.297643379700331 -0.06839984506684522" fill="#ff0100" stroke="none" /><path d="M 120.76222939487914 103.15116336523771 l 5.243284076158905 0.7957933794143177 a26.303330557868442,26.303330557868442 0 0,0 -0.0717933696205777,0.44705738115946025 l -5.228808952177039 -0.8859299902669829" fill="#ff0100" stroke="none" /><path d="M 120.23288151984713 105.62410040840565 l 5.139926854042764 1.428736914741521 a26.33480432972523,26.33480432972523 0 0,0 -0.12516225610811466,0.43570623325774277 l -5.11457196104855 -1.5170006235038458" fill="#ff0100" stroke="none" /><path d="M 119.67450827220406 107.3425965602758 l 4.94893334640537 1.8469595510901897 a26.282348043297254,26.282348043297254 0 0,0 -0.1618313308434638,0.4224905384621994 l -4.9164077359683995 -1.931873656385533" fill="#ff0000" stroke="none" /><line stroke="#e1ed5e" stroke-width="0.3" x1="174.80103733775053" x2="179.2010983576182" y1="140.37084112569926" y2="142.7455964860345" /><path d="M 175.68104954172406 140.8457921977663 a86.0,86.0 0 0,1 -30.038265399797805,32.042727171017184" fill="none" id="id77" stroke="none" /><text fill="#e1ed5e" style="font-size:6.75px; font-family:Arial;" text-anchor="middle"><textPath startOffset="22.206326154141568" xlink:href="#id77">May</textPath></text><path d="M 118.48025628344425 109.97397251340804 l 4.662379395406834 2.5163311170380007 a26.298084929225645,26.298084929225645 0 0,0 -0.2184288760906991,0.3965118570605339 l -4.618374109864625 -2.5962134924963394" fill="#ff0100" stroke="none" /><path d="M 118.30583269289576 110.29060199501025 l 6.909270574262821 3.88403820511086 a28.926144879267277,28.926144879267277 0 0,0 -0.24772901978777562,0.4319364271412067 l -6.841389558322665 -4.002394478110382" fill="#ff2904" stroke="none" /><path d="M 117.35343817320211 111.8261652097733 l 4.386764220969322 2.98952852430239 a26.30857618651124,26.30857618651124 0 0,0 -0.2582488585211073,0.3720267418096672 l -4.334654455286079 -3.0645965282990764" fill="#ff0100" stroke="none" /><path d="M 116.71984013943494 112.70617746262583 l 4.27671514640667 3.250073036235348 a26.371523730224812,26.371523730224812 0 0,0 -0.277771488985603,0.3590570934874207 l -4.220136840202999 -3.3232081238360216" fill="#ff0200" stroke="none" /><path d="M 116.27256486870786 113.27417163493432 l 4.113530969308662 3.355569116041681 a26.30857618651124,26.30857618651124 0 0,0 -0.28927407040813874,0.3484492527448967 l -4.05516089900698 -3.425879625900348" fill="#ff0100" stroke="none" /><path d="M 113.48314897796784 116.09983520530334 l 3.502699817756841 4.182471760245331 a26.455453788509576,26.455453788509576 0 0,0 -0.35164321025135914,0.28937842228900007 l -3.4301864789607905 -4.24214530139151" fill="#ff0300" stroke="none" /><line stroke="#e1ed5e" stroke-width="0.3" x1="143.8653032363475" x2="146.44561519142675" y1="172.8068346515853" y2="177.08958963109032" /><path d="M 144.38136562736335 173.6633856474863 a86.0,86.0 0 0,1 -40.68145358897372,12.25698825130547" fill="none" id="id78" stroke="none" /><text fill="#e1ed5e" style="font-size:6.75px; font-family:Arial;" text-anchor="middle"><textPath startOffset="21.466115282336833" xlink:href="#id78">June</textPath></text><path d="M 107.59598834532513 119.57807347666477 l 1.9220823131925955 4.954018758999522 a26.31382181515404,26.31382181515404 0 0,0 -0.4236898457767381,0.16020324597379781 l -1.8365222466555824 -4.986370255079952" fill="#ff0100" stroke="none" /><path d="M 107.2578585660854 119.70592522655815 l 2.6904235084273282 7.304810916622553 a28.78451290591174,28.78451290591174 0 0,0 -0.46641936660393885,0.16724139045796638 l -2.5642845811936548 -7.350039848120479" fill="#ff2703" stroke="none" /><path d="M 106.57524785965236 119.94407469862006 l 1.6490130352433745 5.001794587197638 a26.26661115736886,26.26661115736886 0 0,0 -0.43062064563229757,0.13787113217967426 l -1.5626710445201366 -5.02943856603702" fill="#ff0000" stroke="none" /><path d="M 106.2309692047433 120.05430185196036 l 1.5704532708374679 5.054485570847961 a26.29283930058285,26.29283930058285 0 0,0 -0.43336236547394036,0.13056852579160738 l -1.4832159309232817 -5.080769465745293" fill="#ff0100" stroke="none" /><path d="M 104.83641907484287 120.43548508189849 l 2.423444628842995 10.239862549780613 a31.522731057452123,31.522731057452123 0 0,0 -0.5291013111361768,0.12042173580861827 l -2.246823168313956 -10.280061019166915" fill="#ff5107" stroke="none" /><path d="M 104.48393922423573 120.51570834832081 l 2.541396694369076 11.627845689177335 a32.90233139050791,32.90233139050791 0 0,0 -0.5543393230877097,0.11616719489331179 l -2.340865909851988 -11.669868864797188" fill="#ff6509" stroke="none" /><path d="M 104.13013068566511 120.58985236759428 l 1.048179711066382 5.225467944748323 a26.329558701082433,26.329558701082433 0 0,0 -0.4451355253771254,0.08531128287000558 l -0.9580765711175523 -5.242736425966798" fill="#ff0100" stroke="none" /><path d="M 103.7750983002368 120.6578951692458 l 1.887863479702105 10.330667642505437 a31.501748542880932,31.501748542880932 0 0,0 -0.5342561973321855,0.09288728804042903 l -1.7097583108978696 -10.361633509066872" fill="#ff5007" stroke="none" /><path d="M 103.41894727170886 120.7198165907248 l 0.8702516077946699 5.273978294574996 a26.345295587010824,26.345295587010824 0 0,0 -0.4480759403006222,0.06998024672782327 l -0.7793398038855306 -5.288176848649925" fill="#ff0100" stroke="none" /><path d="M 102.70371172650421 120.8252237178851 l 0.7489799262347625 5.768985787627284 a26.817402164862614,26.817402164862614 0 0,0 -0.45828715342722565,0.0554921920016064 l -0.6495653497561565 -5.781023508354242" fill="#ff0901" stroke="none" /><line stroke="#e1ed5e" stroke-width="0.3" x1="102.19456741930631" x2="102.32365962044197" y1="184.97166512339345" y2="189.96999836594603" /><path d="M 102.22038585953345 185.97133177190398 a86.0,86.0 0 0,1 -42.740103519485714,-10.115201625700543" fill="none" id="id79" stroke="none" /><text fill="#e1ed5e" style="font-size:6.75px; font-family:Arial;" text-anchor="middle"><textPath startOffset="22.20632615414155" xlink:href="#id79">July</textPath></text><path d="M 92.06813273071674 119.44442032107085 l -1.9971662466538367 4.895913992582702 a26.28759367194005,26.28759367194005 0 0,0 -0.4175077500345672,-0.17451827337533082 l 2.081145456185866 -4.860810676187398" fill="#ff0100" stroke="none" /><path d="M 91.7346041902142 119.30500536409082 l -2.0935332267584004 4.8897440730694655 a26.319067443796836,26.319067443796836 0 0,0 -0.4149380520442671,-0.1818966481108997 l 2.177391953460411 -4.852982871664113" fill="#ff0100" stroke="none" /><path d="M 91.40352486487194 119.15986991738527 l -3.1200695348895233 6.9540277243865445 a28.62189841798501,28.62189841798501 0 0,0 -0.4477718882000925,-0.20555011204842102 l 3.2393094188570353 -6.899290542004049" fill="#ff2503" stroke="none" /><line stroke="#e1ed5e" stroke-width="0.3" x1="58.666819895761336" x2="56.23545636021788" y1="174.27360380694188" y2="178.64263932499728" /><path d="M 58.180547188652646 175.14741091055294 a86.0,86.0 0 0,1 -31.652253787137756,-30.449443065178592" fill="none" id="id80" stroke="none" /><text fill="#e1ed5e" style="font-size:6.75px; font-family:Arial;" text-anchor="middle"><textPath startOffset="22.20632615414155" xlink:href="#id80">August</textPath></text><path d="M 83.95833913139862 113.55231037782056 l -4.0431396710454965 3.4157238562583556 a26.29283930058285,26.29283930058285 0 0,0 -0.28910103660290537,-0.3482408223797147 l 4.101336707541938 -3.34562177676488" fill="#ff0100" stroke="none" /><path d="M 83.72743513129214 113.27417163493432 l -5.926411218628488 4.8344068885264555 a28.648126561199,28.648126561199 0 0,0 -0.3084203937463079,-0.3848018630019812 l 6.008749524429656 -4.731677191946215" fill="#ff2503" stroke="none" /><path d="M 83.50135304334701 112.99209946851258 l -8.271303357702552 6.513358109901271 a31.52797668609492,31.52797668609492 0 0,0 -0.33208445285104143,-0.4292639207447078 l 8.382194627771662 -6.370016195043311" fill="#ff5107" stroke="none" /><path d="M 83.06392112726016 112.41649034213515 l -4.247416283488127 3.113944122440555 a26.26661115736886,26.26661115736886 0 0,0 -0.2641923362975541,-0.36694004820258136 l 4.300388412161288 -3.0403704687868354" fill="#ff0000" stroke="none" /><path d="M 82.44556493220864 111.52570212397912 l -4.4112643659112685 2.896300500430389 a26.277102414654454,26.277102414654454 0 0,0 -0.24499661225393488,-0.38024018287930683 l 4.460465841542249 -2.819938717629634" fill="#ff0000" stroke="none" /><path d="M 82.05923443525364 110.91462005526583 l -9.021172626603104 5.488209035283125 a31.559450457951705,31.559450457951705 0 0,0 -0.27835303701270714,-0.4665357008700733 l 9.114306539314043 -5.332111240526941" fill="#ff5107" stroke="none" /><line stroke="#e1ed5e" stroke-width="0.3" x1="26.63291911575756" x2="22.317208475507996" y1="142.92168965132927" y2="145.44649492493687" /><path d="M 25.769776987707644 143.4266507060508 a86.0,86.0 0 0,1 -11.730757126820373,-40.83630448921669" fill="none" id="id81" stroke="none" /><text fill="#e1ed5e" style="font-size:6.75px; font-family:Arial;" text-anchor="middle"><textPath startOffset="21.46611528233685" xlink:href="#id81">September</textPath></text><path d="M 81.69416730710424 110.29060199501025 l -13.749951434022696 7.729518784095538 a36.773605328892586,36.773605328892586 0 0,0 -0.3054373466132519,-0.5544575043776347 l 13.880965190087464 -7.491690761320082" fill="#ff9d0e" stroke="none" /><path d="M 81.18737489456691 109.33194174019688 l -4.732134924522346 2.3473601995949034 a26.282348043297254,26.282348043297254 0 0,0 -0.19755157367395168,-0.4070147546116407 l 4.771839754811017 -2.265556489017978" fill="#ff0000" stroke="none" /><path d="M 80.87730276802145 108.67885076344099 l -4.848344135834692 2.20042469397817 a26.324313072439633,26.324313072439633 0 0,0 -0.18371727471861626,-0.41423395454641665 l 4.885502495284588 -2.1166424029390574" fill="#ff0100" stroke="none" /><path d="M 80.45479744820244 107.68017299344265 l -4.9017610396348275 1.926118322751813 a26.26661115736886,26.26661115736886 0 0,0 -0.1617344323019406,-0.42223756694690284 l 4.934189751530277 -1.8414571889717524" fill="#ff0000" stroke="none" /><path d="M 79.58551787078972 104.9243191809786 l -5.1452653959300205 1.2411252423665473 a26.29283930058285,26.29283930058285 0 0,0 -0.10234103830992856,-0.440882514525353 l 5.165867000170504 -1.15237407049262" fill="#ff0100" stroke="none" /><path d="M 79.4281124754447 104.21870165774334 l -5.16952177761098 1.0601200335611491 a26.277102414654454,26.277102414654454 0 0,0 -0.08705237029489463,-0.4438781606680079 l 5.1870040808815405 -0.9709781458251865" fill="#ff0000" stroke="none" /><path d="M 79.35854240842038 103.8639653848113 l -5.16637981018221 0.967117397730454 a26.256119900083263,26.256119900083263 0 0,0 -0.07933543895376705,-0.44495527385429334 l 5.182261691475166 -0.878043373142947" fill="#ff0000" stroke="none" /><line stroke="#e1ed5e" stroke-width="0.3" x1="15.007084014347285" x2="10.007500721073583" y1="101.09737516637583" y2="101.16192664675087" /><path d="M 14.007167355692545 101.11028546245083 a86.0,86.0 0 0,1 10.666146001902534,-42.60595125391555" fill="none" id="id82" stroke="none" /><text fill="#e1ed5e" style="font-size:6.75px; font-family:Arial;" text-anchor="middle"><textPath startOffset="22.20632615414155" xlink:href="#id82">October</textPath></text><path d="M 79.00019446554 99.90962569577889 l -5.2665623871601595 -0.022665062807161886 a26.26661115736886,26.26661115736886 0 0,0 0.00583743272919875,-0.452115597953005 l 5.265391947313245 0.11331691882063887" fill="#ff0000" stroke="none" /><path d="M 79.46518482838121 95.60439243477599 l -5.1550764148568415 -1.103476836731922 a26.271856786011657,26.271856786011657 0 0,0 0.09846393299703458,-0.4413945047886647 l 5.1353180948577695 1.192049511070546" fill="#ff0000" stroke="none" /><path d="M 79.81627453868168 94.20196356495316 l -5.3744840986924185 -1.5438901348276275 a26.591840133222313,26.591840133222313 0 0,0 0.13016592145921405,-0.43885477821470703 l 5.347112280121498 1.6361742997888735" fill="#ff0500" stroke="none" /><path d="M 79.91906864156998 93.8553929516997 l -7.333469187183519 -2.2439838895791127 a28.66910907577019,28.66910907577019 0 0,0 0.14845754272577266,-0.4706509801226068 l 7.293756160689543 2.369885036128134" fill="#ff2603" stroke="none" /><path d="M 80.02781315780177 93.51064311812611 l -10.042634166530814 -3.263049642767396 a31.559450457951705,31.559450457951705 0 0,0 0.17231866650401997,-0.5152108797131563 l 9.98497820625502 3.4354336254028746" fill="#ff5107" stroke="none" /><path d="M 80.14247586403 93.16781622104843 l -9.935375731310884 -3.418367387820148 a31.50699417152373,31.50699417152373 0 0,0 0.1808605276343082,-0.5113170665627723 l 9.875062122866765 3.5888820808095314" fill="#ff5007" stroke="none" /><path d="M 80.95270993114464 91.15688171328213 l -4.791162639301588 -2.2244013608804916 a26.282348043297254,26.282348043297254 0 0,0 0.19404108146250068,-0.40870000420542557 l 4.752163363997335 2.3065437807264493" fill="#ff0000" stroke="none" /><line stroke="#e1ed5e" stroke-width="0.3" x1="26.266209847984243" x2="21.928928074336255" y1="57.711370442889674" y2="55.22380399835377" /><path d="M 25.398753493254645 57.213857153982495 a86.0,86.0 0 0,1 29.58750427330803,-30.492523968695096" fill="none" id="id83" stroke="none" /><text fill="#e1ed5e" style="font-size:6.75px; font-family:Arial;" text-anchor="middle"><textPath startOffset="21.46611528233685" xlink:href="#id83">November</textPath></text><path d="M 82.54541684631803 88.32363383020206 l -4.381812506940144 -2.9312442965812475 a26.271856786011657,26.271856786011657 0 0,0 0.2546812991946025,-0.37371338054637826 l 4.330706742076801 3.0062357003980416" fill="#ff0000" stroke="none" /><path d="M 82.7489923806493 88.02491185347247 l -4.339325063951582 -3.0122182590057998 a26.282348043297254,26.282348043297254 0 0,0 0.26118068374087483,-0.36942155483038486 l 4.286831760406829 3.086466314167971" fill="#ff0000" stroke="none" /><path d="M 82.95767976084542 87.72973835380427 l -8.53960726055223 -6.148412538451785 a31.522731057452123,31.522731057452123 0 0,0 0.3208374372692937,-0.43762190387095634 l 8.432507210769304 6.294496885994242" fill="#ff5107" stroke="none" /><path d="M 83.17141714833178 87.43820079747576 l -8.428303568091948 -6.291359051056057 a31.517485428809323,31.517485428809323 0 0,0 0.3282682079484128,-0.4319624824932969 l 8.318759419919427 6.435506309430381" fill="#ff5107" stroke="none" /><path d="M 83.39014120810768 87.1503855733568 l -12.455319590323255 -9.635605955566088 a36.7473771856786,36.7473771856786 0 0,0 0.3913524264976773,-0.4969778391909034 l 12.287613083231607 9.848576188710041" fill="#ff9c0e" stroke="none" /><path d="M 83.6137871275137 86.86637796730984 l -8.968074705316605 -7.187951508815355 a32.49317235636969,32.49317235636969 0 0,0 0.3535589943167691,-0.43342152174629545 l 8.843017218923443 7.341257200169733" fill="#ff5f08" stroke="none" /><path d="M 83.84228863543731 86.58626213691792 l -8.282004259804157 -6.875517925489866 a31.76402997502082,31.76402997502082 0 0,0 0.3528671936213907,-0.4176834572054522 l 8.162426452695643 7.0170603323244345" fill="#ff5407" stroke="none" /><path d="M 84.07557802195018 86.31012108654704 l -8.047070523295947 -6.917891351019653 a31.611906744379684,31.611906744379684 0 0,0 0.3582805244276575,-0.4095765744718561 l 7.926798135290446 7.055383481694452" fill="#ff5207" stroke="none" /><path d="M 84.31358615837235 86.03803664274999 l -7.895451429861714 -7.027482805543411 a31.569941715237302,31.569941715237302 0 0,0 0.3647927201230065,-0.4028132327933527 l 7.7733150691226625 7.16234882560632" fill="#ff5107" stroke="none" /><path d="M 85.05521093208273 85.24692304244772 l -3.762951052571345 -3.7146798267808605 a26.28759367194005,26.28759367194005 0 0,0 0.32066382849996783,-0.3192867961137599 l 3.6984514239040642 3.7789024735447296" fill="#ff0100" stroke="none" /><path d="M 87.80319425747018 82.90503203632743 l -3.0588492003746746 -4.287264238682913 a26.26661115736886,26.26661115736886 0 0,0 0.37032026820768155,-0.2594330134887639 l 2.984597792583333 4.339282094935619" fill="#ff0000" stroke="none" /><path d="M 88.70189139769569 82.29822771554957 l -2.8334640391457615 -4.439445305642356 a26.26661115736886,26.26661115736886 0 0,0 0.3832184090811138,-0.23997133261007014 l 2.7566264776924054 4.487560979575356" fill="#ff0000" stroke="none" /><path d="M 89.00827224532344 82.1063720568725 l -2.7511351898882364 -4.478621615074208 a26.256119900083263,26.256119900083263 0 0,0 0.38713765309540216,-0.23324610427721676 l 2.673635470575185 4.525314328810044" fill="#ff0000" stroke="none" /><line stroke="#e1ed5e" stroke-width="0.3" x1="56.762969772571076" x2="54.21961505331055" y1="26.818313649435495" y2="22.513508569990535" /><path d="M 56.25429882871897 25.957352633546506 a86.0,86.0 0 0,1 42.265352541879196,-11.944610805530505" fill="none" id="id84" stroke="none" /><text fill="#e1ed5e" style="font-size:6.75px; font-family:Arial;" text-anchor="middle"><textPath startOffset="22.20632615414155" xlink:href="#id84">December</textPath></text><path d="M 89.3179101791058 81.91981866633112 l -2.673635470575185 -4.525314328810044 a26.256119900083263,26.256119900083263 0 0,0 0.3910952427394465,-0.2265476080458827 l 2.5953434953704186 4.570666094245974" fill="#ff0000" stroke="none" /><path d="M 90.58718382345135 81.22770947309562 l -2.381810854332333 -4.750124139155908 a26.31382181515404,26.31382181515404 0 0,0 0.4066472025612073,-0.19954001624737291 l 2.2996923847607 4.79041931553811" fill="#ff0100" stroke="none" /><path d="M 91.56875222667455 80.76684994638697 l -2.2155718545058387 -5.054106708509802 a26.51840133222315,26.51840133222315 0 0,0 0.4196426419110895,-0.17966907901052334 l 2.128245454804441 5.091495315483112" fill="#ff0400" stroke="none" /><path d="M 91.90106846888425 80.62456947434976 l -2.0331622453217326 -4.864023566597457 a26.271856786011657,26.271856786011657 0 0,0 0.4187435353400985,-0.17081600208923864 l 1.9491348403932536 4.898300454870274" fill="#ff0000" stroke="none" /><path d="M 92.23578459929587 80.48803036053334 l -4.355976966689798 -10.946848578744907 a32.78168193172356,32.78168193172356 0 0,0 0.5260942233627034,-0.20411638530057793 l 4.166899578327418 11.020207667936036" fill="#ff6309" stroke="none" /><path d="M 92.57280143429618 80.3572730644239 l -2.235580584098192 -5.912444452298722 a27.32098251457119,27.32098251457119 0 0,0 0.44132191172386365,-0.1625425845567205 l 2.133476346601759 5.950050304661764" fill="#ff1101" stroke="none" /><path d="M 93.59665428221793 80.00007090966166 l -1.6075010274032444 -5.0207981854596255 a26.271856786011657,26.271856786011657 0 0,0 0.4318775832657203,-0.13418646739301068 l 1.5208380714267953 5.047724787735162" fill="#ff0000" stroke="none" /><path d="M 93.94186890950719 79.89281104454417 l -3.0189770671606526 -10.020110399533976 a31.465029142381347,31.465029142381347 0 0,0 0.5199368053344741,-0.15178381108309863 l 2.8460500441027574 10.070592539535774" fill="#ff5007" stroke="none" /><path d="M 94.28887869178378 79.79150937346287 l -1.6063420299046143 -5.6839534834673096 a26.906577851790175,26.906577851790175 0 0,0 0.4467800233659749,-0.12212185759908058 l 1.5082641173149167 5.710761881892686" fill="#ff0a01" stroke="none" /><path d="M 94.63758080256005 79.69619591428918 l -2.7218407516731005 -10.30574435524506 a31.659117402164863,31.659117402164863 0 0,0 0.5280908294312574,-0.13462211085483458 l 2.544041033556844 10.35106946226876" fill="#ff5307" stroke="none" /><path d="M 94.98787191387505 79.60689891045804 l -2.7794149087087554 -11.308747148738503 a32.64529558701082,32.64529558701082 0 0,0 0.546849605696044,-0.12942163366610646 l 2.5843416160501773 11.35491469454548" fill="#ff6109" stroke="none" /><path d="M 95.33964822691252 79.52364482259891 l -2.740333407289244 -12.040301437369404 a33.348209825145716,33.348209825145716 0 0,0 0.5608172826764404,-0.12257293624609505 l 2.5326734004592826 12.085687871711366" fill="#ff6c09" stroke="none" /><path d="M 95.692805502759 79.44645832069477 l -1.0802056474346302 -5.154643425317847 a26.26661115736886,26.26661115736886 0 0,0 0.44332234779222957,-0.08892629240700596 l 0.9913168901752641 5.172473673802063" fill="#ff0000" stroke="none" /><path d="M 96.04723909329186 79.375362276772 l -0.9883547879137841 -5.157018075175164 a26.250874271440466,26.250874271440466 0 0,0 0.4445209031542267,-0.08123335374532868 l 0.8994387636566641 5.173266910271228" fill="#ff0000" stroke="none" /><path d="M 96.40284397218896 79.31037775812273 l -2.7010119116402915 -15.53530502724806 a36.76835970024979,36.76835970024979 0 0,0 0.6244857163456713,-0.10304549399712934 l 2.4331969891557343 15.579496784184817" fill="#ff9d0e" stroke="none" /></svg>