<?xml version="1.0" encoding="utf-8" ?>
<svg baseProfile="full" height="200mm" version="1.1" viewBox="0,0,200,200" width="200mm" xmlns="http://www.w3.org/2000/svg" xmlns:ev="http://www.w3.org/2001/xml-events" xmlns:xlink="http://www.w3.org/1999/xlink"><defs /><rect fill="#1a1a1a" height="200" width="200" x="0" y="0" /><text alignment-baseline="middle" fill="#e1ed5e" style="dominant-baseline: central; font-size:9.0px; font-family:Arial;" text-anchor="middle" x="100.0" y="100.0">2022</text><line stroke="#e1ed5e" stroke-width="0.3" x1="100.0" x2="100.0" y1="15.0" y2="10.0" /><path d="M 100.0 14.0 a86.0,86.0 0 0,1 42.46469731375804,11.215312516191453" fill="none" id="id25" stroke="none" /><text fill="#e1ed5e" style="font-size:6.75px; font-family:Arial;" text-anchor="middle"><textPath startOffset="22.20632615414155" xlink:href="#id25">January</textPath></text><path d="M 100.0 79.0 l 0.0 -27.43339182821849 a48.43339182821849,48.43339182821849 0 0,0 0.833701223374218,0.007175929638451681 l -0.4722207441016897 27.429327275188598" fill="#ffa00e" stroke="none" /><path d="M 100.36148047927253 79.00311137660856 l 0.5528671883726578 -32.11374180190894 a53.11850050434566,53.11850050434566 0 0,0 0.914076726698024,0.023607905061582488 l -1.1055705502655495 32.09946710470499" fill="#fff417" stroke="none" /><path d="M 100.72285384407766 79.0124445844662 l 1.0986337662676509 -31.89806243659086 a52.91697641320418,52.91697641320418 0 0,0 0.9100691025650571,0.03918948993766127 l -1.6475437012220393 31.874425220129" fill="#fff116" stroke="none" /><path d="M 101.44485096284872 79.0497635885617 l 2.2119569993967496 -32.073219495199744 a53.14940376670213,53.14940376670213 0 0,0 0.9121698355743612,0.07080193501013944 l -2.763717024333452 32.03039229800114" fill="#fff517" stroke="none" /><path d="M 102.52436894288641 79.15227682838746 l 3.850123938412606 -31.796587527592838 a53.02883751779028,53.02883751779028 0 0,0 0.9052408197370649,0.11752623898735708 l -4.396879486657517 31.725602965441343" fill="#fff316" stroke="none" /><path d="M 102.88285421437855 79.19881850522331 l 4.3845706619591835 -31.636788867503128 a52.93917453123488,52.93917453123488 0 0,0 0.9015567125176605,0.13286602389339186 l -4.9284963549055005 31.556628359448766" fill="#fff116" stroke="none" /><path d="M 103.59715602781102 79.31037775812273 l 5.468799487280131 -31.454681040691856 a52.92655207196253,52.92655207196253 0 0,0 0.896235244761488,0.1637812623886456 l -6.009429853144519 31.35588429695247" fill="#fff116" stroke="none" /><path d="M 103.95276090670814 79.375362276772 l 6.807808797111107 -35.52165016890788 a57.168133644691935,57.168133644691935 0 0,0 0.9648717557976856,0.19354419717081153 l -7.418246962375918 35.39920201565986" fill="#c6ff1e" stroke="none" /><path d="M 104.307194497241 79.44645832069477 l 6.8330610468279485 -32.6067478757175 a54.31502259192218,54.31502259192218 0 0,0 0.9134164483858487,0.19963745689115409 l -7.393320219367325 32.48429692073048" fill="#f5ff19" stroke="none" /><path d="M 105.01212808612495 79.60689891045804 l 10.957792817272377 -44.58453032345779 a66.91136643130537,66.91136643130537 0 0,0 1.1161169955631174,0.2845230735505982 l -11.72361870152052 44.389304253738324" fill="#33ff2f" stroke="none" /><path d="M 105.36241919743992 79.69619591428918 l 8.207566733653305 -31.07642667325452 a53.142004394025236,53.142004394025236 0 0,0 0.8824156715752111,0.24119753648661185 l -8.741280294452226 30.930542595941617" fill="#fff517" stroke="none" /><path d="M 105.71112130821622 79.79150937346287 l 7.599584759961643 -26.89071534276803 a48.94394854292466,48.94394854292466 0 0,0 0.8087632822683843,0.23610017984358359 l -8.061338259953454 26.755916834005742" fill="#ffa90f" stroke="none" /><path d="M 106.0581310904928 79.89281104454417 l 9.175091478217764 -30.452510069588214 a52.8046800514018,52.8046800514018 0 0,0 0.8680451401464021,0.26970585047071494 l -9.697921991074885 30.29006408423498" fill="#ffef16" stroke="none" /><path d="M 108.09893153111575 80.62456947434976 l 12.127246586314763 -29.012546012745464 a52.44515759074767,52.44515759074767 0 0,0 0.8299227472691424,0.35532960847987627 l -12.62485309137422 28.799496876302797" fill="#ffe815" stroke="none" /><path d="M 108.43124777332544 80.76684994638697 l 9.683451925424873 -22.089646624770815 a45.11890812618314,45.11890812618314 0 0,0 0.7086201283461762,0.3179371958079797 l -10.062254172237829 21.9196890984463" fill="#ff6108" stroke="none" /><path d="M 108.76106565485865 80.91482961587045 l 11.463557394354646 -24.972298427894444 a48.47778806427989,48.47778806427989 0 0,0 0.7553804058396508,0.3546612290871381 l -11.891716011493896 24.771272216167304" fill="#ffa10e" stroke="none" /><path d="M 109.08828744355905 81.06846463323043 l 11.715591277282794 -24.40439213503129 a48.070822567050335,48.070822567050335 0 0,0 0.7428744353071994,0.3645252591369922 l -12.133936979600424 24.199111715759464" fill="#ff990e" stroke="none" /><path d="M 109.41281617654863 81.2277094730956 l 14.359386278198416 -28.63739883436495 a53.035801633250884,53.035801633250884 0 0,0 0.8125577598962677,0.4162236445334875 l -14.850204525683438 28.385982664518963" fill="#fff316" stroke="none" /><line stroke="#e1ed5e" stroke-width="0.3" x1="143.23703022742887" x2="145.7803849466894" y1="26.81831364943548" y2="22.513508569990506" /><path d="M 143.74570117128098 25.957352633546492 a86.0,86.0 0 0,1 28.547481713284135,27.462654790039103" fill="none" id="id26" stroke="none" /><text fill="#e1ed5e" style="font-size:6.75px; font-family:Arial;" text-anchor="middle"><textPath startOffset="19.985693538727396" xlink:href="#id26">February</textPath></text><path d="M 113.6212207817346 84.01681056812373 l 17.84125645566011 -20.934994462162066 a48.50607978333863,48.50607978333863 0 0,0 0.6308243424840286,0.547044653555855 l -18.1989745967909 20.62478481518654" fill="#ffa10e" stroke="none" /><path d="M 113.89432698308785 84.25364557470407 l 21.18447613401586 -24.008235154280438 a53.01839134459935,53.01839134459935 0 0,0 0.6791126060491948,0.6097140030084783 l -21.594599727661045 23.640022142502662" fill="#fff216" stroke="none" /><path d="M 114.42810811169701 84.74124197986012 l 15.953435316828813 -16.871900820599873 a44.220101974547816,44.220101974547816 0 0,0 0.5485751206446332,0.5277288314246387 l -16.241493681085863 16.59478890241293" fill="#ff4f07" stroke="none" /><path d="M 114.68862486808459 84.99185889309783 l 22.00584176082043 -22.48452671973104 a52.46126210775034,52.46126210775034 0 0,0 0.6399379633354395,0.637189866349262 l -22.389615524323194 22.10240100273166" fill="#ffe915" stroke="none" /><path d="M 114.94478906791727 85.2469230424477 l 19.562183929928707 -19.31123976822051 a48.488234237470806,48.488234237470806 0 0,0 0.5812486355955157,0.5990278121787013 l -19.89169682922733 18.971647760491695" fill="#ffa10e" stroke="none" /><path d="M 115.4437574822437 85.77008943001954 l 23.400586368975667 -21.56134941243914 a52.819478796755604,52.819478796755604 0 0,0 0.6103324966371053,0.6739443867364675 l -23.768262506228805 21.155352238433125" fill="#ffef16" stroke="none" /><path d="M 117.2510076193507 88.02491185347247 l 26.136452894653193 -18.14307512680914 a52.81643199624159,52.81643199624159 0 0,0 0.5120063507193281,0.7513061414153067 l -26.444883711041253 17.690490962123427" fill="#ffef16" stroke="none" /><path d="M 117.45458315368197 88.32363383020206 l 26.28570358528052 -17.584006297381105 a52.62491882107474,52.62491882107474 0 0,0 0.4971886170532044,0.7572523739223861 l -26.584488837691648 17.128935859481043" fill="#ffec16" stroke="none" /><line stroke="#e1ed5e" stroke-width="0.3" x1="172.23445277983987" x2="176.4835382374775" y1="55.19839476539836" y2="52.563006222186495" /><path d="M 173.08426987136738 54.67131705675599 a86.0,86.0 0 0,1 12.851231095245387,41.99856678651699" fill="none" id="id27" stroke="none" /><text fill="#e1ed5e" style="font-size:6.75px; font-family:Arial;" text-anchor="middle"><textPath startOffset="22.20632615414155" xlink:href="#id27">March</textPath></text><path d="M 120.83666639777658 97.38593545837742 l 19.16258704596616 -2.4040428716544344 a40.31279794392782,40.31279794392782 0 0,0 0.08045214910798389,0.6892648822577279 l -19.201129548077734 2.0738342510718537" fill="#ff0000" stroke="none" /><path d="M 120.94382443527127 98.46500227214037 l 28.530321202907967 -2.091021071959345 a49.606845283331715,49.606845283331715 0 0,0 0.05508582448298541,0.8521533231887614 l -28.562087618395367 1.5996086845175486" fill="#ffb610" stroke="none" /><path d="M 120.98425023603335 99.18683210126433 l 27.140115494715783 -1.0517159507745732 a48.160485553605724,48.160485553605724 0 0,0 0.024970765803435765,0.8286581497630866 l -27.15419795497486 0.5843876535864877" fill="#ff9b0e" stroke="none" /><line stroke="#e1ed5e" stroke-width="0.3" x1="184.98032266829074" x2="189.97916517819016" y1="98.17113171792111" y2="98.06355123074" /><path d="M 185.9800911702706 98.14961562048488 a86.0,86.0 0 0,1 -9.607161424134198,41.387399972396054" fill="none" id="id28" stroke="none" /><text fill="#e1ed5e" style="font-size:6.75px; font-family:Arial;" text-anchor="middle"><textPath startOffset="21.466115282336823" xlink:href="#id28">April</textPath></text><path d="M 120.99824983174949 100.27111621757518 l 31.577020179894276 0.40770265817696283 a52.57965207058075,52.57965207058075 0 0,0 -0.019474344659480714,0.9048962733581075 l -31.56532377254979 -0.9511887473251852" fill="#ffeb16" stroke="none" /><path d="M 120.9904718944345 100.63252640178507 l 27.13598064428217 0.8177150224234886 a48.148298351549656,48.148298351549656 0 0,0 -0.03209397541741068,0.8282028991494169 l -27.11788453601356 -1.2846951685869117" fill="#ff9b0e" stroke="none" /><path d="M 120.9764740272857 100.99374915477107 l 31.590359456603736 1.4965762581489586 a52.625789335507314,52.625789335507314 0 0,0 -0.050655201899749876,0.9044826581599161 l -31.559917903816455 -2.040130632644298" fill="#ffec16" stroke="none" /><path d="M 120.8583938346157 102.4346265915055 l 26.891738507715807 3.1388486660005492 a48.074304624780645,48.074304624780645 0 0,0 -0.10301291200582849,0.8211142639946761 l -26.833724086463132 -3.60128068428262" fill="#ff990e" stroke="none" /><path d="M 120.81339534386255 102.79330883721812 l 26.667207720735195 3.5789329784785098 a47.906295339293365,47.906295339293365 0 0,0 -0.11672243158637682,0.8163564146576163 l -26.601651238132217 -4.037434865116535" fill="#ff960d" stroke="none" /><path d="M 120.70491114924044 103.5080841355445 l 26.75694429029186 4.533495029456541 a48.13828743557502,48.13828743557502 0 0,0 -0.14545455226123655,0.8157863747683742 l -26.67494329569143 -4.993400154958134" fill="#ff9a0e" stroke="none" /><path d="M 120.5718875245553 104.21870165774334 l 26.673299412892018 5.469925514434992 a48.2283856793467,48.2283856793467 0 0,0 -0.17377367443790814,0.8118127547388665 l -26.575191699729665 -5.928252088590028" fill="#ff9c0e" stroke="none" /><path d="M 120.49622156327973 104.57218783832717 l 26.946905380648875 6.011171994875754 a48.60923574359895,48.60923574359895 0 0,0 -0.18920435334429148,0.8150874022692204 l -26.839440461374032 -6.47412805449354" fill="#ffa30f" stroke="none" /><path d="M 120.32669344350535 105.2749913415812 l 26.602687488013874 6.903677991311511 a48.48388166530792,48.48388166530792 0 0,0 -0.21658886692572255,0.8060077468667997 l -26.479910544746375 -7.36057667135386" fill="#ffa10e" stroke="none" /><path d="M 120.23288151984713 105.62410040840565 l 21.77723543945077 6.053381897621405 a43.602907241851014,43.602907241851014 0 0,0 -0.2072329140909119,0.721404960354679 l -21.669809888473758 -6.427344333480666" fill="#ff4306" stroke="none" /><path d="M 119.79798401119884 107.00284435728193 l 29.766734427250725 10.528941133636152 a52.57399372676901,52.57399372676901 0 0,0 -0.309124415586637,0.8505776280407435 l -29.58108575065886 -11.039766558683027" fill="#ffeb16" stroke="none" /><path d="M 119.67450827220406 107.3425965602758 l 24.63221467540492 9.192830247408338 a47.291712149894295,47.291712149894295 0 0,0 -0.29119470994279006,0.7602175002816662 l -24.470325685868623 -9.615471314523148" fill="#ff8a0c" stroke="none" /><path d="M 119.54520255179757 107.68017299344265 l 29.350617276592224 11.53315334293239 a52.53525583451935,52.53525583451935 0 0,0 -0.33797027250298256,0.8388144996120884 l -29.14774438983185 -12.036667210387293" fill="#ffea16" stroke="none" /><path d="M 119.26925614724726 108.34839909993367 l 20.743252665620112 8.987007622922615 a43.60638929958132,43.60638929958132 0 0,0 -0.30432881497773656,0.6861811373140053 l -20.585482765911102 -9.342737096729307" fill="#ff4306" stroke="none" /><path d="M 119.12269723197855 108.67885076344098 l 24.99762020189482 11.345189046376785 a48.45167263130259,48.45167263130259 0 0,0 -0.3512178300500521,0.7564919601228389 l -24.798627755004937 -11.773801073778454" fill="#ffa00e" stroke="none" /><path d="M 118.81262510543309 109.33194174019688 l 24.702634445520356 12.253661792707565 a48.57485042351218,48.57485042351218 0 0,0 -0.378007936721113,0.7458455207730047 l -24.488047839012975 -12.677061525183264" fill="#ffa20f" stroke="none" /><path d="M 118.64920377521936 109.65438752849418 l 24.154083017569516 12.504173403740579 a48.19878818863909,48.19878818863909 0 0,0 -0.38776497005096305,0.7335051902920395 l -23.93526553929366 -12.918093609118753" fill="#ff9b0e" stroke="none" /><line stroke="#e1ed5e" stroke-width="0.3" x1="174.80103733775053" x2="179.2010983576182" y1="140.37084112569926" y2="142.7455964860345" /><path d="M 175.68104954172406 140.8457921977663 a86.0,86.0 0 0,1 -30.038265399797805,32.042727171017184" fill="none" id="id29" stroke="none" /><text fill="#e1ed5e" style="font-size:6.75px; font-family:Arial;" text-anchor="middle"><textPath startOffset="22.206326154141568" xlink:href="#id29">May</textPath></text><path d="M 118.12598468904814 110.60418214915192 l 27.410257760282825 16.03572832216201 a52.7563665003938,52.7563665003938 0 0,0 -0.46530895259744387,0.7798845690742635 l -27.130167931987152 -16.50517498512238" fill="#ffee16" stroke="none" /><path d="M 117.75023020441432 111.22182372390056 l 26.78096732462181 16.93112094950222 a52.68411380248995,52.68411380248995 0 0,0 -0.49120444094369276,0.7623602005646068 l -26.485558020301067 -17.389602749988278" fill="#ffed16" stroke="none" /><path d="M 117.55443506779139 111.5257021239791 l 22.724880935681018 14.920457847607878 a48.18529521493416,48.18529521493416 0 0,0 -0.461194985860448,0.6894239281039659 l -22.46468284440985 -15.309418689917651" fill="#ff9b0e" stroke="none" /><path d="M 117.14729908036423 112.12312394758627 l 22.316532945259105 15.77776731529557 a48.33067112517445,48.33067112517445 0 0,0 -0.4861149709374193,0.6751711778152166 l -22.041638181946084 -16.159572098561917" fill="#ff9e0e" stroke="none" /><path d="M 116.93607887273984 112.41649034213515 l 22.31859786670777 16.362621888117364 a48.674089068825914,48.674089068825914 0 0,0 -0.5012011126196754,0.6714407954693004 l -22.033635487393 -16.74437556309598" fill="#ffa40f" stroke="none" /><path d="M 115.07121518719521 114.62390073753431 l 16.282185276230038 15.798929171420292 a43.687347141810946,43.687347141810946 0 0,0 -0.5283243511007687,0.5351897783332146 l -16.007820300073732 -16.076859443734172" fill="#ff4506" stroke="none" /><path d="M 114.81725581225074 114.88116024355365 l 19.382656024068634 19.4662502891642 a48.47038869160299,48.47038869160299 0 0,0 -0.5963012965161618,0.5836063234273688 l -19.04470477517668 -19.797006715514144" fill="#ffa10e" stroke="none" /><path d="M 114.55890576462653 115.13401014063108 l 22.122914231415127 22.996811280420893 a52.91044755495986,52.91044755495986 0 0,0 -0.661794217096784,0.6257677393773085 l -21.723784179927538 -23.37421365654412" fill="#fff116" stroke="none" /><path d="M 114.0293411484842 115.62618273729858 l 21.056806025911282 23.453524676765756 a52.51915131751669,52.51915131751669 0 0,0 -0.6778913134985218,0.5981602670909237 l -20.649972359506172 -23.81250808562897" fill="#ffea16" stroke="none" /><path d="M 113.75828350139079 115.86535959552629 l 20.610049744988036 23.76647133727589 a52.45821530723632,52.45821530723632 0 0,0 -0.6872888603892909,0.5857224772371515 l -20.197895408021697 -24.117718204735986" fill="#ffe915" stroke="none" /><path d="M 113.20401910651253 116.32954008644616 l 17.208866647620198 21.282374366303234 a48.369409017424104,48.369409017424104 0 0,0 -0.6519332763843659,0.5179352232206345 l -16.83997587851848 -21.575443503528994" fill="#ff9f0e" stroke="none" /><path d="M 112.92097659922987 116.55440617244103 l 19.095982570534193 24.465848173838445 a52.036015807436684,52.036015807436684 0 0,0 -0.7108399056577153,0.5450417278897656 l -18.672013936382985 -24.79092924355558" fill="#ffe115" stroke="none" /><path d="M 112.63410532772338 116.77436683061366 l 13.787516692776615 18.30575705114211 a43.91716295201116,43.91716295201116 0 0,0 -0.6077613147824502,0.4496072911550855 l -13.4703704075756 -18.540374291036965" fill="#ff4906" stroke="none" /><path d="M 112.04921762599082 117.19931262002967 l 15.537232290214163 22.178179837418146 a48.079092454159806,48.079092454159806 0 0,0 -0.6819060324310181,0.46902118705723034 l -15.153169373160262 -22.44234181384047" fill="#ff990e" stroke="none" /><path d="M 111.45004920935366 117.60387380957326 l 17.165581020611025 26.39121602272133 a52.48258971134847,52.48258971134847 0 0,0 -0.7615428647977339,0.4860526874674904 l -16.70875635376636 -26.682783139012628" fill="#ffe915" stroke="none" /><line stroke="#e1ed5e" stroke-width="0.3" x1="143.8653032363475" x2="146.44561519142675" y1="172.8068346515853" y2="177.08958963109032" /><path d="M 144.38136562736335 173.6633856474863 a86.0,86.0 0 0,1 -40.68145358897372,12.25698825130547" fill="none" id="id30" stroke="none" /><text fill="#e1ed5e" style="font-size:6.75px; font-family:Arial;" text-anchor="middle"><textPath startOffset="21.466115282336833" xlink:href="#id30">June</textPath></text><path d="M 110.8373102113329 117.98757091392108 l 16.32402514056199 27.094320831513315 a52.63188293653535,52.63188293653535 0 0,0 -0.7800349037201364,0.46085837034468397 l -15.85522236581347 -27.37129777415175" fill="#ffec16" stroke="none" /><path d="M 110.5260780823613 118.17145234162733 l 10.430447286335914 18.0063623205606 a41.809212253526965,41.809212253526965 0 0,0 -0.625846544092834,0.35537200132738056 l -10.118951975321881 -18.18323748768261" fill="#ff1f03" stroke="none" /><path d="M 109.89434966115114 118.52300852407294 l 12.836090436585897 24.03018093308312 a48.24361968191678,48.24361968191678 0 0,0 -0.7358509656747504,0.38496244677661395 l -12.420548568384651 -24.247572798804452" fill="#ff9c0e" stroke="none" /><path d="M 109.57404056367764 118.69057910512821 l 14.280892427481762 27.87936272385545 a52.32415608461953,52.32415608461953 0 0,0 -0.8051593605972435,0.40372361823759906 l -13.798879159201757 -28.121054183002354" fill="#ffe615" stroke="none" /><path d="M 107.59598834532513 119.57807347666477 l 9.554156072240026 24.62509960339228 a47.41358417045501,47.41358417045501 0 0,0 -0.7634259404057182,0.288662366900439 l -9.128859911074034 -24.785910220399348" fill="#ff8d0d" stroke="none" /><path d="M 107.2578585660854 119.70592522655815 l 9.1930936291597 24.960312192288786 a47.59943900181011,47.59943900181011 0 0,0 -0.7712932389197182,0.27655831417758464 l -8.762080829610246 -25.11485804750633" fill="#ff900d" stroke="none" /><path d="M 106.91757812671514 119.82793768551818 l 8.785307971487406 25.18143428463973 a47.66995067084882,47.66995067084882 0 0,0 -0.777088902096233,0.26363074693458083 l -8.350549336453946 -25.328928018472435" fill="#ff920d" stroke="none" /><path d="M 106.2309692047433 120.05430185196036 l 7.948056633890313 25.580727754387723 a47.78703486203037,47.78703486203037 0 0,0 -0.7876327934783393,0.23730729962469813 l -7.506548865971728 -25.71375042311815" fill="#ff940d" stroke="none" /><path d="M 105.88484417918355 120.15858648285463 l 17.654532537550654 60.47575944856389 a84.0,84.0 0 0,0 -1.391475327581577,0.39324482664592386 l -16.61092604186447 -60.77069306854833" fill="#4dd2ff" stroke="none" /><path d="M 105.18746579009965 120.34920634021253 l 6.555921430227434 25.71733546436678 a47.53980876317862,47.53980876317862 0 0,0 -0.7946997004880839,0.19531785143231922 l -6.112268444996139 -25.826374574113128" fill="#ff8f0d" stroke="none" /><path d="M 104.83641907484287 120.43548508189849 l 7.285002000355053 30.781565326758464 a52.63188293653535,52.63188293653535 0 0,0 -0.8834132492686834,0.2010619793869429 l -6.754068601693508 -30.90240403972309" fill="#ffec16" stroke="none" /><path d="M 103.7750983002368 120.6578951692458 l 5.587845513632778 30.577515514053058 a52.083894101228395,52.083894101228395 0 0,0 -0.8833205930425392,0.15357660756711636 l -5.060675949118188 -30.66917070014118" fill="#ffe215" stroke="none" /><path d="M 103.41894727170886 120.7198165907248 l 5.046715952451154 30.584569053037242 a51.998148429619604,51.998148429619604 0 0,0 -0.8843749418010108,0.1381211778200293 l -4.5195051470416265 -30.66690853820438" fill="#ffe115" stroke="none" /><path d="M 102.70371172650421 120.8252237178851 l 3.9812044029604037 30.66505631703503 a51.92241367398543,51.92241367398543 0 0,0 -0.8873109712654953,0.10744100159555459 l -3.452766008643528 -30.729042847355934" fill="#ffdf14" stroke="none" /><path d="M 102.34483914955558 120.86867818915974 l 3.449461182217824 30.699630442175764 a51.89281618327783,51.89281618327783 0 0,0 -0.8885221509449509,0.09209895389333358 l -2.9205064346672702 -30.754458764524855" fill="#ffdf14" stroke="none" /><path d="M 101.98527174616119 120.90594882070398 l 2.5119910508279912 26.452578317413117 a47.571582539967665,47.571582539967665 0 0,0 -0.8158655126569818,0.07039630941508455 l -2.056281220429468 -26.491898879106866" fill="#ff900d" stroke="none" /><path d="M 101.62511606390274 120.93702456842531 l 2.079623555735418 26.792627583130276 a47.873215790855454,47.873215790855454 0 0,0 -0.8221363988308871,0.05669933952608066 l -1.6181243961256002 -26.82445526717264" fill="#ff950d" stroke="none" /><path d="M 100.90346689309514 120.98055641714683 l 1.15041567569814 26.715268895429425 a47.74002708267123,47.74002708267123 0 0,0 -0.8213095331176209,0.028287560958734286 l -0.690385790905867 -26.731113254814254" fill="#ff930d" stroke="none" /><line stroke="#e1ed5e" stroke-width="0.3" x1="102.19456741930631" x2="102.32365962044197" y1="184.97166512339345" y2="189.96999836594603" /><path d="M 102.22038585953345 185.97133177190398 a86.0,86.0 0 0,1 -42.740103519485714,-10.115201625700543" fill="none" id="id31" stroke="none" /><text fill="#e1ed5e" style="font-size:6.75px; font-family:Arial;" text-anchor="middle"><textPath startOffset="22.20632615414155" xlink:href="#id31">July</textPath></text><path d="M 99.81925306533755 120.99922214144158 l -0.263863901203829 30.655771213130173 a51.656906772049574,51.656906772049574 0 0,0 -0.8890899239464352,-0.015306489337019509 l 0.7915135150429321 -30.64668724651399" fill="#ffda14" stroke="none" /><path d="M 99.09653310690486 120.98055641714683 l -1.1462023847885208 26.61742669633329 a47.64209420900637,47.64209420900637 0 0,0 -0.8190173550104726,-0.04233384210444957 l 1.6042078082124822 -26.593753047466638" fill="#ff910d" stroke="none" /><path d="M 98.73552117531835 120.96189622390904 l -1.897556901454147 31.456747294489897 a52.51392823092122,52.51392823092122 0 0,0 -0.9018322903739445,-0.062195634812190446 l 2.4387519526070216 -31.41942331516142" fill="#ffea16" stroke="none" /><path d="M 98.01472825383883 120.90594882070398 l -2.081667331630637 21.921044703805684 a43.0196625720247,43.0196625720247 0 0,0 -0.736593731710784,-0.07635095204187776 l 2.4586936599470146 -21.881964383308045" fill="#ff3705" stroke="none" /><path d="M 97.65516085044442 120.86867818915974 l -3.4318678415398 30.543052638128373 a51.735253070981464,51.735253070981464 0 0,0 -0.8841125518415067,-0.10705371754570404 l 3.9571078164326963 -30.47945339185732" fill="#ffdc14" stroke="none" /><path d="M 97.2962882734958 120.8252237178851 l -3.95811651075246 30.4872228166322 a51.74308770087465,51.74308770087465 0 0,0 -0.882272395685502,-0.12227491475762646 l 4.482317497624793 -30.41457333638197" fill="#ffdc14" stroke="none" /><path d="M 96.58105272829116 120.7198165907248 l -4.290962833395678 26.00448495982145 a47.35613021790496,47.35613021790496 0 0,0 -0.8031397373433518,-0.13963613803985755 l 4.737951542211079 -25.926770243260588" fill="#ff8c0c" stroke="none" /><path d="M 95.51606077576429 120.51570834832081 l -6.561968816354846 30.023475273587923 a51.73220627046745,51.73220627046745 0 0,0 -0.8683123970377133,-0.1976250745833226 l 7.077801362785422 -29.906073465426914" fill="#ffdc14" stroke="none" /><line stroke="#e1ed5e" stroke-width="0.3" x1="58.666819895761336" x2="56.23545636021788" y1="174.27360380694188" y2="178.64263932499728" /><path d="M 58.180547188652646 175.14741091055294 a86.0,86.0 0 0,1 -31.652253787137756,-30.449443065178592" fill="none" id="id32" stroke="none" /><text fill="#e1ed5e" style="font-size:6.75px; font-family:Arial;" text-anchor="middle"><textPath startOffset="22.20632615414155" xlink:href="#id32">August</textPath></text><line stroke="#e1ed5e" stroke-width="0.3" x1="26.63291911575756" x2="22.317208475507996" y1="142.92168965132927" y2="145.44649492493687" /><path d="M 25.769776987707644 143.4266507060508 a86.0,86.0 0 0,1 -11.730757126820373,-40.83630448921669" fill="none" id="id33" stroke="none" /><text fill="#e1ed5e" style="font-size:6.75px; font-family:Arial;" text-anchor="middle"><textPath startOffset="21.46611528233685" xlink:href="#id33">September</textPath></text><line stroke="#e1ed5e" stroke-width="0.3" x1="15.007084014347285" x2="10.007500721073583" y1="101.09737516637583" y2="101.16192664675087" /><path d="M 14.007167355692545 101.11028546245083 a86.0,86.0 0 0,1 10.666146001902534,-42.60595125391555" fill="none" id="id34" stroke="none" /><text fill="#e1ed5e" style="font-size:6.75px; font-family:Arial;" text-anchor="middle"><textPath startOffset="22.20632615414155" xlink:href="#id34">October</textPath></text><line stroke="#e1ed5e" stroke-width="0.3" x1="26.266209847984243" x2="21.928928074336255" y1="57.711370442889674" y2="55.22380399835377" /><path d="M 25.398753493254645 57.213857153982495 a86.0,86.0 0 0,1 29.58750427330803,-30.492523968695096" fill="none" id="id35" stroke="none" /><text fill="#e1ed5e" style="font-size:6.75px; font-family:Arial;" text-anchor="middle"><textPath startOffset="21.46611528233685" xlink:href="#id35">November</textPath></text><line stroke="#e1ed5e" stroke-width="0.3" x1="56.762969772571076" x2="54.21961505331055" y1="26.818313649435495" y2="22.513508569990535" /><path d="M 56.25429882871897 25.957352633546506 a86.0,86.0 0 0,1 42.265352541879196,-11.944610805530505" fill="none" id="id36" stroke="none" /><text fill="#e1ed5e" style="font-size:6.75px; font-family:Arial;" text-anchor="middle"><textPath startOffset="22.20632615414155" xlink:href="#id36">December</textPath></text></svg>