<?xml version="1.0" encoding="utf-8" ?>
<svg baseProfile="full" height="200mm" version="1.1" viewBox="0,0,200,200" width="200mm" xmlns="http://www.w3.org/2000/svg" xmlns:ev="http://www.w3.org/2001/xml-events" xmlns:xlink="http://www.w3.org/1999/xlink"><defs /><rect fill="#1a1a1a" height="200" width="200" x="0" y="0" /><text alignment-baseline="middle" fill="#e1ed5e" style="dominant-baseline: central; font-size:9.0px; font-family:Arial;" text-anchor="middle" x="100.0" y="100.0">2021</text><line stroke="#e1ed5e" stroke-width="0.3" x1="100.0" x2="100.0" y1="15.0" y2="10.0" /><path d="M 100.0 14.0 a86.0,86.0 0 0,1 42.46469731375804,11.215312516191453" fill="none" id="id13" stroke="none" /><text fill="#e1ed5e" style="font-size:6.75px; font-family:Arial;" text-anchor="middle"><textPath startOffset="22.20632615414155" xlink:href="#id13">January</textPath></text><path d="M 100.72285384407766 79.0124445844662 l 0.6684748329506707 -19.408698888975696 a40.420207289450204,40.420207289450204 0 0,0 0.6951489723480243,0.029934577034012654 l -1.0024646376880264 19.39431658541749" fill="#ffbc11" stroke="none" /><path d="M 101.44485096284872 79.0497635885617 l 2.2553420393729224 -32.70229949555386 a53.779978035554954,53.779978035554954 0 0,0 0.9229919857091339,0.07164194214546603 l -2.817924214444398 32.65863229121993" fill="#92ff23" stroke="none" /><path d="M 102.16513564639614 79.11191278185805 l 1.1277460259919725 -10.879899090868978 a31.93819067883863,31.93819067883863 0 0,0 0.5463457867378174,0.06138831498216503 l -1.3148585162395152 10.858874822416212" fill="#ff3e05" stroke="none" /><line stroke="#e1ed5e" stroke-width="0.3" x1="143.23703022742887" x2="145.7803849466894" y1="26.81831364943548" y2="22.513508569990506" /><path d="M 143.74570117128098 25.957352633546492 a86.0,86.0 0 0,1 28.547481713284135,27.462654790039103" fill="none" id="id14" stroke="none" /><text fill="#e1ed5e" style="font-size:6.75px; font-family:Arial;" text-anchor="middle"><textPath startOffset="19.985693538727396" xlink:href="#id14">February</textPath></text><line stroke="#e1ed5e" stroke-width="0.3" x1="172.23445277983987" x2="176.4835382374775" y1="55.19839476539836" y2="52.563006222186495" /><path d="M 173.08426987136738 54.67131705675599 a86.0,86.0 0 0,1 12.851231095245387,41.99856678651699" fill="none" id="id15" stroke="none" /><text fill="#e1ed5e" style="font-size:6.75px; font-family:Arial;" text-anchor="middle"><textPath startOffset="22.20632615414155" xlink:href="#id15">March</textPath></text><path d="M 119.47837535516314 92.15188598940014 l 18.225057654364168 -7.3431345126682706 a40.6487747957993,40.6487747957993 0 0,0 0.25590620082908727,0.651253368086373 l -18.348757405074956 7.028332139686113" fill="#ffc011" stroke="none" /><path d="M 119.61058180528143 92.48833698450437 l 18.422597784483564 -7.056616055612792 a40.727846797995745,40.727846797995745 0 0,0 0.24513395026073506,0.6568371137664339 l -18.541336323245925 6.738455804817025" fill="#ffc111" stroke="none" /><path d="M 119.85752413597 93.16781622104841 l 36.65725864983363 -12.61230384076741 a59.76628457684124,59.76628457684124 0 0,0 0.3263316157517684,0.9756899948257354 l -36.86892755935717 11.97944074301936" fill="#4cff2c" stroke="none" /><path d="M 120.18372546131832 94.20196356495316 l 6.747831693553318 -1.9384020106578763 a28.02072894502025,28.02072894502025 0 0,0 0.12917986953580932,0.4647287219767595 l -6.78019833365549 1.821961985262165" fill="#ff0000" stroke="none" /><path d="M 120.28053869075195 94.5502522615342 l 13.970251155231903 -3.7540592880672334 a35.465852151829225,35.465852151829225 0 0,0 0.15335378422531487,0.5909346875657638 l -14.032801271327521 3.5130281749526193" fill="#ff740a" stroke="none" /><path d="M 120.37134235888165 94.90015583598534 l 12.235929143724691 -3.063191945606614 a33.6135287253758,33.6135287253758 0 0,0 0.1356821287334578,0.562490019530373 l -12.286844072718969 2.852116694416835" fill="#ff5808" stroke="none" /><path d="M 120.67395015179393 96.31383870115 l 7.061330865315183 -1.2590339225443632 a28.17269544924154,28.17269544924154 0 0,0 0.08101412543511337,0.4781499542647336 l -7.081956852270519 1.1372981799637918" fill="#ff0200" stroke="none" /><path d="M 120.73433829027371 96.67025291283417 l 17.384981152378487 -2.791870641935058 a38.60772873910358,38.60772873910358 0 0,0 0.09972579770431136,0.6570684057086351 l -17.430462843522097 2.4922031238343405" fill="#ffa20f" stroke="none" /><path d="M 120.78858239683441 97.02765380044208 l 16.549552703323048 -2.3662508170637073 a37.717859839385,37.717859839385 0 0,0 0.0863631241930186,0.6435055884298795 l -16.587831826573904 2.0810268865691635" fill="#ff960d" stroke="none" /><path d="M 120.87857604477298 97.74499172005257 l 16.137223251572948 -1.7429144578452904 a37.23107282586314,37.23107282586314 0 0,0 0.06333337787019525,0.6377584720756262 l -16.164833755125372 1.4648804550652292" fill="#ff8e0d" stroke="none" /><path d="M 120.91429891909075 98.10471618934814 l 25.646742748026934 -2.3241446684076448 a46.75183609032878,46.75183609032878 0 0,0 0.06573200442634913,0.8020969470632866 l -25.68294923627278 1.8823338041365894" fill="#ebff1a" stroke="none" /><path d="M 120.94382443527127 98.46500227214037 l 18.302409004400836 -1.341405258764484 a39.35149975976388,39.35149975976388 0 0,0 0.04369779607083708,0.6759855641135086 l -18.322787391476087 1.0261606303979403" fill="#ffad10" stroke="none" /><path d="M 120.96714384426684 98.82574320788733 l 17.969987230304497 -1.006402193646076 a38.99814674994852,38.99814674994852 0 0,0 0.03176750364153407,0.670561793032989 l -17.98464834217953 0.6969292939900873" fill="#ffa80f" stroke="none" /><path d="M 120.98425023603335 99.18683210126433 l 16.654704122058526 -0.6453921680624528 a37.66720433797791,37.66720433797791 0 0,0 0.019530096658740722,0.6481088281120949 l -16.66334591317291 0.3586131925253589" fill="#ff950d" stroke="none" /><line stroke="#e1ed5e" stroke-width="0.3" x1="184.98032266829074" x2="189.97916517819016" y1="98.17113171792111" y2="98.06355123074" /><path d="M 185.9800911702706 98.14961562048488 a86.0,86.0 0 0,1 -9.607161424134198,41.387399972396054" fill="none" id="id16" stroke="none" /><text fill="#e1ed5e" style="font-size:6.75px; font-family:Arial;" text-anchor="middle"><textPath startOffset="21.466115282336823" xlink:href="#id16">April</textPath></text><path d="M 120.99513854157772 99.54816195383933 l 16.986971986021906 -0.3655779749750274 a37.99090534696959,37.99090534696959 0 0,0 0.00844301356408806,0.6539207050660192 l -16.990748006703708 0.07312101184854548" fill="#ff9a0e" stroke="none" /><path d="M 120.99980553446 99.90962569577887 l 19.570448189437258 -0.08422295318467327 a40.5706294186286,40.5706294186286 0 0,0 -0.0030055161025299665,0.6983760951497615 l -19.568998376045226 -0.25266262016877294" fill="#ffbf11" stroke="none" /><path d="M 120.99824983174949 100.27111621757518 l 16.55771802746422 0.21378285901213814 a37.55909808497495,37.55909808497495 0 0,0 -0.013911062405361508,0.6463924075070449 l -16.55158490237385 -0.4987650823092978" fill="#ff930d" stroke="none" /><path d="M 120.9904718944345 100.63252640178507 l 15.27558370109965 0.4603140911846344 a36.28251767451438,36.28251767451438 0 0,0 -0.024184660106272585,0.6240986152214792 l -15.265396908142174 -0.7231899534201198" fill="#ff800b" stroke="none" /><path d="M 120.9764740272857 100.99374915477107 l 35.785967944914965 1.6953409496593694 a56.82610337016954,56.82610337016954 0 0,0 -0.05469823399779027,0.976673712225767 l -35.751483360029646 -2.3110863782205597" fill="#6eff28" stroke="none" /><path d="M 120.95626037817324 101.35467743843564 l 17.669072344190734 1.1421834445086632 a38.70595099183197,38.70595099183197 0 0,0 -0.04870211549398538,0.6645016719045193 l -17.64679367003241 -1.4461582529099526" fill="#ffa40f" stroke="none" /><path d="M 120.92983693683757 101.71520430193887 l 16.47791369715695 1.350368306529744 a37.53315258425424,37.53315258425424 0 0,0 -0.05831115505025846,0.643458736989421 l -16.452227945829616 -1.6338084320677357" fill="#ff930d" stroke="none" /><path d="M 120.8583938346157 102.4346265915055 l 17.718170956883416 2.068094528586397 a38.83845837051274,38.83845837051274 0 0,0 -0.08322247665962818,0.6633650223024302 l -17.679946970976943 -2.372777305176222" fill="#ffa60f" stroke="none" /><path d="M 120.81339534386255 102.79330883721812 l 17.54188217635309 2.3542480068777 a38.69915574164321,38.69915574164321 0 0,0 -0.09428947754178646,0.6594603863182078 l -17.498758647794702 -2.655853865176317" fill="#ffa40f" stroke="none" /><path d="M 120.76222939487914 103.15116336523771 l 35.9173152266766 5.451308998055527 a57.328643009128974,57.328643009128974 0 0,0 -0.1564751067681552,0.9743706392124559 l -35.818158365547156 -6.068758866961188" fill="#68ff28" stroke="none" /><path d="M 120.70491114924044 103.5080841355445 l 17.57226375670658 2.97731196556076 a38.822705745075154,38.822705745075154 0 0,0 -0.11730660940684934,0.6579177628797146 l -17.51841070496054 -3.279348479173693" fill="#ffa60f" stroke="none" /><path d="M 120.64145759157962 103.86396538481128 l 17.63347565344033 3.3008879938110876 a38.93976937332693,38.93976937332693 0 0,0 -0.1290020173911684,0.6577785074441801 l -17.574043703073496 -3.6039302283232124" fill="#ffa70f" stroke="none" /><path d="M 120.5718875245553 104.21870165774334 l 17.208226674492444 3.5289116913482497 a38.566339487953876,38.566339487953876 0 0,0 -0.13895995953502377,0.6491746687950569 l -17.144932676232976 -3.8246001795594755" fill="#ffa20f" stroke="none" /><path d="M 120.49622156327973 104.57218783832717 l 19.965743181429062 4.453851548952814 a41.456482943235635,41.456482943235635 0 0,0 -0.16136330734713192,0.6951489047813277 l -19.88611930815138 -4.796869111082707" fill="#ffcb12" stroke="none" /><path d="M 120.41448212921028 104.9243191809786 l 17.174143744709028 4.142694628434637 a38.66672386574233,38.66672386574233 0 0,0 -0.16164289850901536,0.6456830286392446 l -17.100289531904952 -4.437705496471278" fill="#ffa30f" stroke="none" /><path d="M 120.32669344350535 105.2749913415812 l 16.820152963703915 4.365007102321348 a38.377307982703,38.377307982703 0 0,0 -0.17144043269911607,0.6379936274798108 l -16.742524454663023 -4.653891662976707" fill="#ff9f0e" stroke="none" /><path d="M 120.23288151984713 105.62410040840565 l 19.49644058163514 5.419393146254104 a41.235637312101034,41.235637312101034 0 0,0 -0.19598191554485597,0.682238758423516 l -19.400266029204186 -5.754189380182202" fill="#ffc812" stroke="none" /><path d="M 120.13307415673323 105.97154293290107 l 18.561642934984537 5.505450723945735 a40.36090328780287,40.36090328780287 0 0,0 -0.20329061930089284,0.6643655061918309 l -18.464125543177513 -5.824143202689623" fill="#ffbc11" stroke="none" /><path d="M 120.02730092923936 106.31721596034902 l 18.5274577117711 5.844120082632482 a40.42731141464754,40.42731141464754 0 0,0 -0.2150497121712124,0.6618549588236219 l -18.424115748583638 -6.162173941433899" fill="#ffbd11" stroke="none" /><path d="M 119.9155931802556 106.66101706037122 l 16.701129774162457 5.585899920041555 a38.610508614180794,38.610508614180794 0 0,0 -0.2162357064272873,0.628482180568224 l -16.60250323679194 -5.87255480369908" fill="#ffa30f" stroke="none" /><path d="M 119.79798401119884 107.00284435728193 l 17.079772425691385 6.041372085524262 a39.116754753243185,39.116754753243185 0 0,0 -0.22999858096352438,0.6328573143516792 l -16.973249583722634 -6.334477196882072" fill="#ffaa0f" stroke="none" /><path d="M 119.67450827220406 107.3425965602758 l 17.77627695772663 6.634169872937377 a39.9738829020523,39.9738829020523 0 0,0 -0.24613579648069883,0.642582895709733 l -17.659446881652425 -6.939176335480253" fill="#ffb610" stroke="none" /><path d="M 119.54520255179757 107.68017299344265 l 17.94002478714483 7.049427781921327 a40.27534491042625,40.27534491042625 0 0,0 -0.2590997051085914,0.643064219467364 l -17.816022467778843 -7.357191369231505" fill="#ffba11" stroke="none" /><path d="M 119.41010516605496 108.01547362559984 l 19.4690113322679 8.039799141490947 a42.06373121010365,42.06373121010365 0 0,0 -0.28212548896826434,0.6668613173987981 l -19.327734862107327 -8.373734984555908" fill="#ffd413" stroke="none" /><path d="M 119.26925614724726 108.34839909993367 l 17.118486482458863 7.416578826412152 a39.65605051822362,39.65605051822362 0 0,0 -0.276759416561557,0.6240194219941434 l -16.988285981166033 -7.710146584898983" fill="#ffb210" stroke="none" /><path d="M 119.12269723197855 108.67885076344098 l 17.353084108940408 7.87571049418067 a40.0566614043517,40.0566614043517 0 0,0 -0.2903638395425989,0.6254178783949285 l -17.21494565255798 -8.17324843985443" fill="#ffb711" stroke="none" /><path d="M 118.81262510543309 109.33194174019688 l 16.851450950834657 8.359107654016798 a39.81079689752214,39.81079689752214 0 0,0 -0.30980635170770193,0.611277323255498 l -16.705065929340687 -8.647939188974991" fill="#ffb410" stroke="none" /><path d="M 118.64920377521936 109.65438752849418 l 16.70863181261159 8.649785188374945 a39.814812272633674,39.814812272633674 0 0,0 -0.3203148889980097,0.6059150561665727 l -16.557264415388687 -8.936115259627652" fill="#ffb410" stroke="none" /><line stroke="#e1ed5e" stroke-width="0.3" x1="174.80103733775053" x2="179.2010983576182" y1="140.37084112569926" y2="142.7455964860345" /><path d="M 175.68104954172406 140.8457921977663 a86.0,86.0 0 0,1 -30.038265399797805,32.042727171017184" fill="none" id="id17" stroke="none" /><text fill="#e1ed5e" style="font-size:6.75px; font-family:Arial;" text-anchor="middle"><textPath startOffset="22.206326154141568" xlink:href="#id17">May</textPath></text><path d="M 118.12598468904814 110.60418214915192 l 16.22226130373496 9.490453439469277 a39.79442652206741,39.79442652206741 0 0,0 -0.350985182500408,0.5882713545006615 l -16.056495245536325 -9.768286887856043" fill="#ffb410" stroke="none" /><path d="M 117.75023020441432 111.22182372390056 l 16.059587047313848 10.152986910489414 a39.99982840277301,39.99982840277301 0 0,0 -0.37294151747692783,0.5788135170690993 l -15.88244066645987 -10.427922027479967" fill="#ffb710" stroke="none" /><path d="M 117.55443506779139 111.5257021239791 l 15.88760459625242 10.43131250494895 a40.00600590294461,40.00600590294461 0 0,0 -0.3829087119720109,0.5723965706618782 l -15.705692778869688 -10.703245989816635" fill="#ffb710" stroke="none" /><path d="M 117.35343817320211 111.8261652097733 l 15.451984059610163 10.530346464133219 a39.69898414441623,39.69898414441623 0 0,0 -0.3896910751483191,0.5613790582849222 l -15.268432077299709 -10.79476678460516" fill="#ffb210" stroke="none" /><path d="M 117.14729908036423 112.12312394758627 l 15.31080305450426 10.824723024711766 a39.75087514585765,39.75087514585765 0 0,0 -0.3998184810266449,0.5553129010334523 l -15.122204781102013 -11.08666953119635" fill="#ffb310" stroke="none" /><path d="M 116.93607887273984 112.41649034213515 l 14.876341600267056 10.906417783831287 a39.44601551238932,39.44601551238932 0 0,0 -0.406178877539277,0.5441429832673789 l -14.686401456032687 -11.16087364660798" fill="#ffaf10" stroke="none" /><path d="M 116.71984013943494 112.70617746262583 l 13.1169337049878 9.968162735478506 a37.474775207632646,37.474775207632646 0 0,0 -0.3947221334387469,0.5102315665486321 l -12.943404754330984 -10.19247229614039" fill="#ff920d" stroke="none" /><path d="M 116.498646956653 112.99209946851258 l 14.624363259210256 11.516167515221804 a39.61435239206534,39.61435239206534 0 0,0 -0.4264807381615678,0.532100295267833 l -14.423964608993833 -11.766195644067887" fill="#ffb110" stroke="none" /><path d="M 116.0416608686014 113.55231037782055 l 14.291019441725355 12.073334094028606 a39.70825039467362,39.70825039467362 0 0,0 -0.445597458921139,0.518330513590873 l -14.081079473233437 -12.317541706781007" fill="#ffb210" stroke="none" /><path d="M 115.56566222782051 114.09645910891815 l 13.877956334837123 12.56805146649871 a39.72307639508546,39.72307639508546 0 0,0 -0.4633481070684062,0.5028728578601993 l -13.659561819772994 -12.805075579160246" fill="#ffb310" stroke="none" /><path d="M 115.32070863581623 114.36230785411682 l 13.607282453552509 12.756066595964688 a39.65141739309493,39.65141739309493 0 0,0 -0.47108423181501735,0.4939299336881063 l -13.385691670358527 -12.988403646235302" fill="#ffb210" stroke="none" /><path d="M 115.07121518719521 114.62390073753431 l 13.380593203712529 12.983456502344207 a39.64431326789759,39.64431326789759 0 0,0 -0.47943071512465757,0.48566078322738643 l -13.155121863532337 -13.211857779552258" fill="#ffb110" stroke="none" /><path d="M 114.81725581225074 114.88116024355365 l 11.5099143663022 11.559554768090743 a37.312615828128216,37.312615828128216 0 0,0 -0.45903409886574376,0.4492614796110395 l -11.309230315060661 -11.755966350624355" fill="#ff900d" stroke="none" /><path d="M 114.55890576462653 115.13401014063108 l 12.910762769689988 13.420762373124868 a39.622692017297,39.622692017297 0 0,0 -0.4955933970434916,0.4686144902847832 l -12.677833538255689 -13.641011500155573" fill="#ffb110" stroke="none" /><path d="M 114.29624159901734 115.38237550388516 l 13.022892996165158 14.012286294021349 a40.12955590637655,40.12955590637655 0 0,0 -0.5100284071955511,0.4658988573163198 l -12.779765039502742 -14.23437791792425" fill="#ffb811" stroke="none" /><path d="M 113.48314897796784 116.09983520530334 l 12.02837877333502 14.362736505700907 a39.734195895394336,39.734195895394336 0 0,0 -0.5281429044124516,0.4346256545455784 l -11.779365740377877 -14.567657279103663" fill="#ffb310" stroke="none" /><path d="M 113.20401910651253 116.32954008644616 l 11.327246909592922 14.008517481471996 a39.015134875420415,39.015134875420415 0 0,0 -0.5258543617671292,0.4177705082856141 l -11.084435055108441 -14.201421903762737" fill="#ffa80f" stroke="none" /><path d="M 112.92097659922987 116.55440617244103 l 11.416635526198531 14.62703845734657 a39.55504839041801,39.55504839041801 0 0,0 -0.5403431917266951,0.4143121180003103 l -11.163163605978342 -14.821389917174251" fill="#ffb010" stroke="none" /><path d="M 112.63410532772338 116.77436683061366 l 11.146810861861585 14.799678294436731 a39.52786738966299,39.52786738966299 0 0,0 -0.547018683368475,0.40467134458625037 l -10.890407208074546 -14.98935958776275" fill="#ffb010" stroke="none" /><path d="M 112.34349029814194 116.9893568818739 l 11.142038522409651 15.335700379437986 a39.95596815155467,39.95596815155467 0 0,0 -0.5599023579210884,0.3994754660470727 l -10.876408836639678 -15.525220107329279" fill="#ffb610" stroke="none" /><path d="M 112.04921762599082 117.19931262002967 l 11.034847015909296 15.751378175080369 a40.232102409225064,40.232102409225064 0 0,0 -0.5706121295111808,0.39247222579697816 l -10.762078001775231 -15.938991190242442" fill="#ffba11" stroke="none" /><path d="M 111.7513745106137 117.40417183066458 l 10.338785156254517 15.31208057553268 a39.47566751321299,39.47566751321299 0 0,0 -0.5664294002790435,0.37539852005379937 l -10.07368105723551 -15.487777116677796" fill="#ffaf10" stroke="none" /><path d="M 111.45004920935366 117.60387380957326 l 10.196115959746713 15.67601461105764 a39.70021964445055,39.70021964445055 0 0,0 -0.5760656851618106,0.3676723758748195 l -9.924768472537972 -15.849201415756268" fill="#ffb210" stroke="none" /><line stroke="#e1ed5e" stroke-width="0.3" x1="143.8653032363475" x2="146.44561519142675" y1="172.8068346515853" y2="177.08958963109032" /><path d="M 144.38136562736335 173.6633856474863 a86.0,86.0 0 0,1 -40.68145358897372,12.25698825130547" fill="none" id="id18" stroke="none" /><text fill="#e1ed5e" style="font-size:6.75px; font-family:Arial;" text-anchor="middle"><textPath startOffset="21.466115282336833" xlink:href="#id18">June</textPath></text><path d="M 110.5260780823613 118.17145234162733 l 11.261684590239948 19.441349685682493 a43.46756812409912,43.46756812409912 0 0,0 -0.650670649464159,0.36946777622657206 l -10.92536517385459 -19.632320627703695" fill="#ffe715" stroke="none" /><path d="M 110.21172684928248 118.3499491758327 l 10.717191457454224 19.258243140901417 a43.039467362207425,43.039467362207425 0 0,0 -0.6504640538137362,0.3546848652528689 l -10.38410459177184 -19.439868657914058" fill="#ffe115" stroke="none" /><path d="M 109.89434966115114 118.52300852407294 l 10.369115063883392 19.411807071012625 a43.007653236323705,43.007653236323705 0 0,0 -0.6559877425038232,0.34318178298261404 l -10.033436418853073 -19.587418272939956" fill="#ffe115" stroke="none" /><path d="M 109.57404056367764 118.69057910512821 l 15.017132764162321 29.31666165335031 a53.93904866497358,53.93904866497358 0 0,0 -0.8300091809236013,0.41618383402304265 l -14.510269675555959 -29.570813328282654" fill="#90ff24" stroke="none" /><path d="M 109.2508944713604 118.85261126421891 l 9.717099349973074 19.802700941836285 a43.0583087377308,43.0583087377308 0 0,0 -0.6681979692838741,0.3207756315799814 l -9.374788712688966 -19.967030849915826" fill="#ffe115" stroke="none" /><path d="M 108.92500713936063 119.00905698771935 l 8.091473800482186 17.233743815136343 a40.038746653854076,40.038746653854076 0 0,0 -0.626381413578629,0.28754098490569097 l -7.793624391136137 -17.370471870376107" fill="#ffb711" stroke="none" /><path d="M 108.59647513512805 119.15986991738527 l 7.864304253474025 17.528003526884813 a40.211407783650216,40.211407783650216 0 0,0 -0.6339602742891839,0.277909553873282 l -7.561423304527087 -17.66077763405255" fill="#ffba11" stroke="none" /><path d="M 108.2653958097858 119.30500536409082 l 7.440704095848426 17.37882078350086 a39.904694900130416,39.904694900130416 0 0,0 -0.6337787928209335,0.2649195868001323 l -7.1404538435300315 -17.504325413320963" fill="#ffb510" stroke="none" /><path d="M 107.59598834532513 119.57807347666477 l 6.85372912706976 17.664957651167366 a39.9479374013316,39.9479374013316 0 0,0 -0.6432184406949817,0.24321017625671493 l -6.548640465614502 -17.780316077530713" fill="#ffb610" stroke="none" /><path d="M 107.2578585660854 119.70592522655815 l 7.606863188503676 20.653513131513296 a43.00981536138376,43.00981536138376 0 0,0 -0.6969237556383642,0.249892063412368 l -7.2502198722355775 -20.781392735965625" fill="#ffe115" stroke="none" /><path d="M 106.91757812671514 119.82793768551818 l 7.25540892067202 20.796266168135123 a43.02556798682133,43.02556798682133 0 0,0 -0.7013787704502877,0.2379457596667222 l -6.896360417284505 -20.918074914699968" fill="#ffe115" stroke="none" /><path d="M 106.57524785965236 119.94407469862006 l 7.051001210273301 21.387132141538174 a43.519459125540536,43.519459125540536 0 0,0 -0.7134676595290903,0.22842981401512327 l -6.681812205653271 -21.505334802213007" fill="#ffe815" stroke="none" /><path d="M 106.2309692047433 120.05430185196036 l 5.664070331732992 18.22974442833667 a40.08940215526117,40.08940215526117 0 0,0 -0.6607593021745255,0.19908135745397812 l -5.349436055118221 -18.324541154896373" fill="#ffb811" stroke="none" /><path d="M 105.88484417918355 120.15858648285463 l 5.388905706124382 18.45974479819253 a40.23024915917358,40.23024915917358 0 0,0 -0.6664214181839229,0.18833734948239927 l -5.070353119835854 -18.549770941013453" fill="#ffba11" stroke="none" /><path d="M 105.18746579009965 120.34920634021253 l 5.499630342562727 21.57375434634967 a43.263710618436406,43.263710618436406 0 0,0 -0.7232182620201123,0.17774945299164924 l -5.127458795799404 -21.66522505765535" fill="#ffe415" stroke="none" /><path d="M 104.83641907484287 120.43548508189849 l 5.042665082084187 21.306943311418873 a42.89553160820921,42.89553160820921 0 0,0 -0.7199909796654926,0.163867602882487 l -4.6751539530258315 -21.390587647879045" fill="#ffdf14" stroke="none" /><path d="M 104.48393922423573 120.51570834832081 l 4.952545013944841 22.659756077612982 a44.19465989429611,44.19465989429611 0 0,0 -0.7445927633250755,0.1560366530946023 l -4.561760789190386 -22.741648711434127" fill="#fff116" stroke="none" /><path d="M 104.13013068566511 120.58985236759428 l 4.360201113337008 21.73681756081573 a43.169812615828135,43.169812615828135 0 0,0 -0.7298419786423807,0.13987595224536153 l -3.9853915201229233 -21.80865071140956" fill="#ffe315" stroke="none" /><path d="M 103.06178313531738 120.77559828337769 l 3.2195512964431807 21.846127381160162 a43.08209211339145,43.08209211339145 0 0,0 -0.7345935913171817,0.10180797812451288 l -2.8430291139391684 -21.898309924777276" fill="#ffe215" stroke="none" /><path d="M 102.70371172650421 120.8252237178851 l 2.445676306541415 18.837716952579342 a39.99581302766147,39.99581302766147 0 0,0 -0.6834952613520022,0.08276175753889288 l -2.1210536221380325 -18.877024238843585" fill="#ffb610" stroke="none" /><path d="M 101.98527174616119 120.90594882070398 l 2.114783654295002 22.269776885225948 a43.36996362138788,43.36996362138788 0 0,0 -0.7438066113135938,0.0641787641991331 l -1.7311327252398663 -22.302879901703747" fill="#ffe615" stroke="none" /><path d="M 101.26447882468166 120.96189622390904 l 1.333540796318866 22.10677097722256 a43.14695586519322,43.14695586519322 0 0,0 -0.7417412323319881,0.038339549241297705 l -0.9528114955733982 -22.12645033322606" fill="#ffe315" stroke="none" /><path d="M 100.90346689309514 120.98055641714683 l 0.9427786836691565 21.893465618691096 a42.91375523371542,42.91375523371542 0 0,0 -0.7382793523407979,0.025427833650780655 l -0.5657789796537063 -21.906450250767968" fill="#ffdf14" stroke="none" /><line stroke="#e1ed5e" stroke-width="0.3" x1="102.19456741930631" x2="102.32365962044197" y1="184.97166512339345" y2="189.96999836594603" /><path d="M 102.22038585953345 185.97133177190398 a86.0,86.0 0 0,1 -42.740103519485714,-10.115201625700543" fill="none" id="id19" stroke="none" /><text fill="#e1ed5e" style="font-size:6.75px; font-family:Arial;" text-anchor="middle"><textPath startOffset="22.20632615414155" xlink:href="#id19">July</textPath></text><path d="M 100.54218724476979 120.99299961872073 l 0.5696865684175768 22.05774855263946 a43.06510398791956,43.06510398791956 0 0,0 -0.7412125971522927,0.012760647049532446 l -0.1899142813726162 -22.064286676968152" fill="#ffe215" stroke="none" /><path d="M 100.18074693466247 120.99922214144158 l 0.18908483366640996 21.96792124388426 a42.96873498524264,42.96873498524264 0 0,0 -0.7396635366577157,0.0 l 0.18908483366639484 -21.96792124388426" fill="#ffe015" stroke="none" /><path d="M 99.45781275523022 120.99299961872073 l -0.5810106011618389 22.496204856022132 a43.50370650010296,43.50370650010296 0 0,0 -0.7484287516765116,-0.025777399485373102 l 0.9681597045129934 -22.482870658110663" fill="#ffe815" stroke="none" /><path d="M 99.09653310690486 120.98055641714683 l -0.9656747563989629 22.425164510272207 a43.44594687349853,43.44594687349853 0 0,0 -0.7468812000193641,-0.038605226859933 l 1.351544024831816 -22.40521947665007" fill="#ffe715" stroke="none" /><path d="M 98.37488393609728 120.93702456842531 l -1.5723467607285246 20.25717638923526 a41.31810693939187,41.31810693939187 0 0,0 -0.7086167140183152,-0.06114243178913087 l 1.9208077924883815 -20.227109705167464" fill="#ffc912" stroke="none" /><path d="M 98.01472825383883 120.90594882070398 l -2.0860800155540726 21.96751257121158 a43.06633948795388,43.06633948795388 0 0,0 -0.7373929458755037,-0.07643379385784052 l 2.4639055580351696 -21.928349408897976" fill="#ffe215" stroke="none" /><path d="M 97.65516085044442 120.86867818915974 l -2.324467837802583 20.687376904871233 a41.8175578282655,41.8175578282655 0 0,0 -0.7146273685489136,-0.08653142216306844 l 2.6802226294028864 -20.644299953982813" fill="#ffd013" stroke="none" /><path d="M 96.93821686468263 120.77559828337769 l -3.284174696409539 22.28462669285889 a43.52532775070355,43.52532775070355 0 0,0 -0.7402707665350609,-0.11561506929553494 l 3.6672813265531174 -22.22479331621625" fill="#ffe815" stroke="none" /><path d="M 96.58105272829116 120.7198165907248 l -3.5637906445005663 21.59760963054738 a42.88966298304619,42.88966298304619 0 0,0 -0.7273903611728119,-0.12646613803167633 l 3.9350299771454282 -21.5330649139947" fill="#ffdf14" stroke="none" /><path d="M 95.86986931433489 120.58985236759428 l -4.3510890122586385 21.691391197767874 a43.12348136454115,43.12348136454115 0 0,0 -0.7265455199840656,-0.1522546777824372 l 4.723825993672091 -21.6132805392589" fill="#ffe215" stroke="none" /><path d="M 95.51606077576429 120.51570834832081 l -4.7252109704384475 21.619617328851003 a43.12996773972132,43.12996773972132 0 0,0 -0.7239259326470298,-0.1647631853699733 l 5.09665705247834 -21.535077409903344" fill="#ffe215" stroke="none" /><path d="M 95.16358092515715 120.4354850818985 l -5.089187807562151 21.50351735675332 a43.09753586382044,43.09753586382044 0 0,0 -0.7204404000312308,-0.17706672209982827 l 5.4585814923365925 -21.412729376339463" fill="#ffe215" stroke="none" /><path d="M 94.46302465271185 120.25689768951611 l -5.93605693235862 21.71692854237187 a43.51359050037752,43.51359050037752 0 0,0 -0.7208105666162141,-0.20370826610788417 l 6.3089986670794485 -21.611531482925464" fill="#ffe815" stroke="none" /><path d="M 93.76903079525671 120.05430185196036 l -6.51428117048655 20.966138115725304 a42.954835609856545,42.954835609856545 0 0,0 -0.7042110964571994,-0.22546615483213114 l 6.874213612034689 -20.850899114233467" fill="#ffe015" stroke="none" /><path d="M 93.08242187328487 119.8279376855182 l -6.505031818343325 18.645451222055446 a40.74761479854486,40.74761479854486 0 0,0 -0.6602674412828332,-0.23674841325366966 l 6.8250188202558855 -18.530715267761817" fill="#ffc112" stroke="none" /><path d="M 92.7421414339146 119.70592522655815 l -7.164273517455703 19.451830998373804 a41.729219575811655,41.729219575811655 0 0,0 -0.6718996096673749,-0.2540549402120027 l 7.49804334788336 -19.325627808055167" fill="#ffcf13" stroke="none" /><path d="M 92.40401165467489 119.57807347666478 l -8.109063717855559 20.900485635004955 a43.41845699773492,43.41845699773492 0 0,0 -0.694444981729622,-0.2763339899412749 l 8.46762977562704 -20.757804800657613" fill="#ffe615" stroke="none" /><path d="M 91.7346041902142 119.30500536409082 l -8.759983907108072 20.4601860827828 a43.25660649323907,43.25660649323907 0 0,0 -0.681969909256051,-0.29895556696963577 l 9.110874491021868 -20.306365962518715" fill="#ffe415" stroke="none" /><path d="M 91.07499286063937 119.00905698771935 l -9.424015706559425 20.071877682776133 a43.17413686594825,43.17413686594825 0 0,0 -0.669995441649346,-0.3216385275476281 l 9.768123816209012 -19.906684878728942" fill="#ffe315" stroke="none" /><path d="M 90.7491055286396 118.85261126421891 l -9.717507545702956 19.80353281333143 a43.05923536275654,43.05923536275654 0 0,0 -0.6625916021734795,-0.3322371845058082 l 10.056953055559196 -19.633327787916322" fill="#ffe115" stroke="none" /><line stroke="#e1ed5e" stroke-width="0.3" x1="58.666819895761336" x2="56.23545636021788" y1="174.27360380694188" y2="178.64263932499728" /><path d="M 58.180547188652646 175.14741091055294 a86.0,86.0 0 0,1 -31.652253787137756,-30.449443065178592" fill="none" id="id20" stroke="none" /><text fill="#e1ed5e" style="font-size:6.75px; font-family:Arial;" text-anchor="middle"><textPath startOffset="22.20632615414155" xlink:href="#id20">August</textPath></text><path d="M 89.7882731507175 118.34994917583269 l -9.354900254170461 16.810275748912517 a40.23797103438808,40.23797103438808 0 0,0 -0.6023264672023162,-0.342016687832644 l 9.642875488293985 -16.64675589528524" fill="#ffba11" stroke="none" /><path d="M 89.1626897886671 117.98757091392108 l -11.243989620438061 18.66257002051312 a42.78804310522342,42.78804310522342 0 0,0 -0.6276003462191324,-0.38552339225489374 l 11.563569166589502 -18.46625816142985" fill="#ffde14" stroke="none" /><path d="M 87.95078237400918 117.19931262002967 l -13.065655848404353 18.650198419330696 a43.7715011325417,43.7715011325417 0 0,0 -0.6133693620161199,-0.4376227538318755 l 13.384752538269359 -18.422531403654602" fill="#ffeb16" stroke="none" /><path d="M 87.65650970185807 116.9893568818739 l -13.561402804393499 18.665669636194288 a44.072036515889906,44.072036515889906 0 0,0 -0.6099045807514029,-0.4511928280806688 l 13.880692355563466 -18.429466859373854" fill="#ffef16" stroke="none" /><path d="M 87.07902340077011 116.55440617244103 l -13.722654128147713 17.581518583883337 a43.30293774452605,43.30293774452605 0 0,0 -0.5836462891388001,-0.46368391060433656 l 14.02325791000387 -17.34270075927387" fill="#ffe515" stroke="none" /><path d="M 86.79598089348748 116.32954008644616 l -12.606890799645342 15.591065645816942 a41.05031230695312,41.05031230695312 0 0,0 -0.5456365903542953,-0.4490217671116323 l 12.873397518544326 -15.371748759848128" fill="#ffc512" stroke="none" /><path d="M 86.51685102203217 116.09983520530335 l -14.360162487526782 17.147051475018692 a43.365948246276346,43.365948246276346 0 0,0 -0.5681652144534891,-0.48420272183836066 l 14.653193178557327 -16.897324362957377" fill="#ffe615" stroke="none" /><path d="M 85.97065885151581 115.62618273729859 l -14.673835459110945 16.3440344000683 a42.9647196101311,42.9647196101311 0 0,0 -0.5460620486178217,-0.498814734406169 l 14.952997057195622 -16.089026899075552" fill="#ffe015" stroke="none" /><path d="M 85.44109423537348 115.13401014063109 l -15.388330693217368 15.996198926184242 a43.196375866566,43.196375866566 0 0,0 -0.5314183696343057,-0.5201047234275814 l 15.661399015227467 -15.72894409983409" fill="#ffe315" stroke="none" /><path d="M 85.18274418774928 114.88116024355367 l -14.371429062107165 14.433410714638606 a41.368144690781804,41.368144690781804 0 0,0 -0.5002775318230098,-0.5067784984803294 l 14.617747218985707 -14.183891722177613" fill="#ffca12" stroke="none" /><path d="M 84.43433777217949 114.09645910891817 l -16.70382391391385 15.127192619162061 a43.535520625986685,43.535520625986685 0 0,0 -0.4982560527813398,-0.55979595727599 l 16.96173881634353 -14.837422492145206" fill="#ffe815" stroke="none" /><path d="M 83.95833913139862 113.55231037782056 l -17.216751104414087 14.545049703762224 a43.5383005010639,43.5383005010639 0 0,0 -0.4787222735015669,-0.5766518175604389 l 17.46456937780919 -14.246536629088025" fill="#ffe815" stroke="none" /><path d="M 83.72743513129214 113.27417163493432 l -14.825820355753986 12.094005193331808 a40.13295353147093,40.13295353147093 0 0,0 -0.4320639014190567,-0.5390661498821449 l 15.031802169227904 -11.837011209871404" fill="#ffb811" stroke="none" /><path d="M 82.85270091963577 112.12312394758628 l -18.22153786353836 12.882609733463624 a43.315601619877825,43.315601619877825 0 0,0 -0.42519232493562,-0.6125212564118625 l 18.440591095636112 -12.567047214864749" fill="#ffe515" stroke="none" /><path d="M 82.6465618267979 111.8261652097733 l -18.255797219636218 12.441112349075219 a43.09197611366601,43.09197611366601 0 0,0 -0.41244539907437383,-0.6165499102895784 l 18.467245724121323 -12.12502552457982" fill="#ffe215" stroke="none" /><path d="M 82.44556493220864 111.52570212397912 l -18.404245780652197 12.083661699458215 a43.01661061157252,43.01661061157252 0 0,0 -0.4010687215118699,-0.6224675623546051 l 18.60951936554111 -11.765072537182162" fill="#ffe115" stroke="none" /><path d="M 82.05923443525364 110.91462005526583 l -16.28633365203878 9.908113634492292 a40.06345665454046,40.06345665454046 0 0,0 -0.35335801705027753,-0.5922483616914328 l 16.45447254478729 -9.626303178914748" fill="#ffb711" stroke="none" /><line stroke="#e1ed5e" stroke-width="0.3" x1="26.63291911575756" x2="22.317208475507996" y1="142.92168965132927" y2="145.44649492493687" /><path d="M 25.769776987707644 143.4266507060508 a86.0,86.0 0 0,1 -11.730757126820373,-40.83630448921669" fill="none" id="id21" stroke="none" /><text fill="#e1ed5e" style="font-size:6.75px; font-family:Arial;" text-anchor="middle"><textPath startOffset="21.46611528233685" xlink:href="#id21">September</textPath></text><path d="M 81.69416730710424 110.29060199501025 l -19.314257313358855 10.857486691557392 a43.156839865467774,43.156839865467774 0 0,0 -0.35845576028861037,-0.6507013254376784 l 19.498289483098983 -10.523414847721892" fill="#ffe315" stroke="none" /><path d="M 81.35079622478065 109.6543875284942 l -19.676543888857726 10.1862246889531 a43.156839865467774,43.156839865467774 0 0,0 -0.3358451513636104,-0.6626543452781785 l 19.848967710007603 -9.846016131972236" fill="#ffe315" stroke="none" /><path d="M 81.18737489456691 109.33194174019688 l -19.946920348496224 9.894605220977704 a43.266181618505044,43.266181618505044 0 0,0 -0.3252107555808157,-0.6700304807404586 l 20.11428436069176 -9.54978578427196" fill="#ffe415" stroke="none" /><path d="M 80.87730276802145 108.67885076344099 l -20.212966424445323 9.17367027026103 a43.19730249159174,43.19730249159174 0 0,0 -0.30147379979535555,-0.6797438317797478 l 20.367881308971956 -8.824378101988588" fill="#ffe315" stroke="none" /><path d="M 80.58989483394504 108.01547362559985 l -19.697974556675533 8.134350338961093 a42.3114489669847,42.3114489669847 0 0,0 -0.27219838773436106,-0.6755740755293738 l 19.835075558667285 -7.794076895588915" fill="#ffd714" stroke="none" /><path d="M 80.32549172779594 107.34259656027581 l -17.950193877285688 6.699076286742523 a40.1595167822088,40.1595167822088 0 0,0 -0.2361298101122059,-0.6497278237107261 l 18.062847948403117 -6.38910066602568" fill="#ffb911" stroke="none" /><path d="M 80.20201598880116 107.00284435728193 l -21.20135149810309 7.49923651929708 a43.48857162468255,43.48857162468255 0 0,0 -0.24355498915451468,-0.707884804046321 l 21.32729731820083 -7.133179012161461" fill="#ffe715" stroke="none" /><path d="M 79.86692584326677 105.97154293290107 l -21.429603622667212 6.356098282438037 a43.35235774589883,43.35235774589883 0 0,0 -0.20604211958992588,-0.7172596484791891 l 21.53583837914324 -5.9862811584542515" fill="#ffe515" stroke="none" /><path d="M 79.67330655649465 105.27499134158121 l -21.096944434478615 5.474879597854715 a42.79576498043792,42.79576498043792 0 0,0 -0.17890399816048597,-0.714632541444362 l 21.18805974693416 -5.110919217012961" fill="#ffde14" stroke="none" /><path d="M 79.50377843672027 104.57218783832718 l -21.3708727918511 4.767300371518003 a42.896149358226374,42.896149358226374 0 0,0 -0.15456087505762678,-0.722056952304439 l 21.449767705633167 -4.3987295997974" fill="#ffdf14" stroke="none" /><path d="M 79.4281124754447 104.21870165774334 l -22.211054425161638 4.5548475807974045 a43.67327887981331,43.67327887981331 0 0,0 -0.14468347327814393,-0.7377379131688941 l 22.286167831415447 -4.171845940560555" fill="#ffea16" stroke="none" /><path d="M 79.35854240842038 103.8639653848113 l -18.727048066168965 3.505598631605001 a40.052337154231594,40.052337154231594 0 0,0 -0.1210220611936328,-0.6787559896429743 l 18.784616569701786 -3.182723891228813" fill="#ffb711" stroke="none" /><path d="M 79.18660465613746 102.79330883721812 l -22.394966853008807 3.005567221792238 a43.59575125265976,43.59575125265976 0 0,0 -0.0934163337914057,-0.7446200934681677 l 22.44338469604706 -2.6196293740366614" fill="#ffe915" stroke="none" /><path d="M 79.1416061653843 102.43462659150553 l -22.668263391723393 2.6458775912626726 a43.822156633948794,43.822156633948794 0 0,0 -0.08100358399001445,-0.749992584627733 l 22.71044927721446 -2.255288684750157" fill="#ffec16" stroke="none" /><path d="M 79.0235259727143 100.99374915477108 l -16.3538871521279 0.7747565922427633 a37.372228704784135,37.372228704784135 0 0,0 -0.024911023450671713,-0.6428428256173647 l 16.36480030842977 -0.49313651961140176" fill="#ff900d" stroke="none" /><path d="M 79.0095281055655 100.63252640178507 l -19.488888417719295 0.5872777195123142 a40.49773491660375,40.49773491660375 0 0,0 -0.014999468741929941,-0.6969663731567758 l 19.496109949146234 -0.2517215305654095" fill="#ffbe11" stroke="none" /><line stroke="#e1ed5e" stroke-width="0.3" x1="15.007084014347285" x2="10.007500721073583" y1="101.09737516637583" y2="101.16192664675087" /><path d="M 14.007167355692545 101.11028546245083 a86.0,86.0 0 0,1 10.666146001902534,-42.60595125391555" fill="none" id="id22" stroke="none" /><text fill="#e1ed5e" style="font-size:6.75px; font-family:Arial;" text-anchor="middle"><textPath startOffset="22.20632615414155" xlink:href="#id22">October</textPath></text><path d="M 79.00175016825051 100.2711162175752 l -19.442370176771565 0.2510276763663066 a40.44399066511086,40.44399066511086 0 0,0 -0.002996134566715609,-0.6961961566217432 l 19.443810608627786 0.08367795845911195" fill="#ffbd11" stroke="none" /><path d="M 79.00486145842228 99.54816195383935 l -19.800480716677722 -0.4261277201075782 a40.80506555014071,40.80506555014071 0 0,0 0.021157048641303036,-0.7020994437878944 l 19.790211973580774 0.766897311320467" fill="#ffc212" stroke="none" /><path d="M 79.03285615573316 98.82574320788736 l -16.149550734329086 -0.9044493508608719 a37.1748575743016,37.1748575743016 0 0,0 0.041280748006087026,-0.6385949003625986 l 16.131589395318585 1.1823033154764822" fill="#ff8e0d" stroke="none" /><path d="M 79.05617556472873 98.46500227214037 l -22.668692123335386 -1.6614153260504396 a43.729494131374835,43.729494131374835 0 0,0 0.06148266126386263,-0.7502441972894516 l 22.636734978252026 2.05137344054767" fill="#ffeb16" stroke="none" /><path d="M 79.26566170972629 96.67025291283419 l -22.269951648445545 -3.5763526954472247 a43.5552886265358,43.5552886265358 0 0,0 0.12524870481456662,-0.7392249457382544 l 22.205091082110755 3.959163429501307" fill="#ffe815" stroke="none" /><path d="M 79.32604984820605 96.31383870115002 l -19.26768447807386 -3.435424402209147 a40.57155604365433,40.57155604365433 0 0,0 0.1285041752425784,-0.6864744425602969 l 19.20569457892142 3.7665769222320167" fill="#ffbf11" stroke="none" /><path d="M 79.62865764111835 94.90015583598534 l -21.88007174355001 -5.4775455747478405 a43.5552886265358,43.5552886265358 0 0,0 0.18833237970175873,-0.7257214846036092 l 21.78254303197794 5.8533634849003136" fill="#ffe815" stroke="none" /><path d="M 79.71946130924805 94.55025226153421 l -19.15219596175471 -5.146541628937193 a40.83162880087858,40.83162880087858 0 0,0 0.18824008796422143,-0.677199751159027 l 19.06076910322413 5.4754526835151625" fill="#ffc212" stroke="none" /><path d="M 79.91906864156998 93.8553929516997 l -21.483680395009216 -6.573837220114154 a43.46695037408196,43.46695037408196 0 0,0 0.2250853566905254,-0.713582090829336 l 21.367339554550487 6.942669477369904" fill="#ffe715" stroke="none" /><path d="M 80.38941819471856 92.48833698450439 l -21.43563139113326 -8.21073240627711 a43.95435513762098,43.95435513762098 0 0,0 0.2767166314278249,-0.7042136440579806 l 21.291121209823743 8.578495055230855" fill="#ffee16" stroke="none" /><path d="M 80.52162464483688 92.15188598940014 l -20.966236508656557 -8.447594395983424 a43.60409087789141,43.60409087789141 0 0,0 0.2864961382948716,-0.6937731235508723 l 20.817718683475483 8.807242089987607" fill="#ffe915" stroke="none" /><path d="M 80.65960295795068 91.81776055985345 l -15.35826612720125 -6.497540384772638 a37.67616171322672,37.67616171322672 0 0,0 0.257829259793342,-0.5951054794748057 l 15.244146157565229 6.760945008834043" fill="#ff950d" stroke="none" /><path d="M 80.803312248108 91.48605970444005 l -18.18201133203209 -8.063920241597852 a40.89000617750017,40.89000617750017 0 0,0 0.2908986753463221,-0.6409566710449912 l 18.040510339722413 8.375698921484913" fill="#ffc312" stroke="none" /><path d="M 80.95270993114464 91.15688171328213 l -15.015408536036995 -6.9712296776896805 a37.55477383485483,37.55477383485483 0 0,0 0.2772647602485916,-0.583990296413159 l 14.893185581946653 7.228662389743372" fill="#ff930d" stroke="none" /><path d="M 81.10775173730289 90.83032412892265 l -15.49644893434336 -7.521466577442924 a38.22534147848171,38.22534147848171 0 0,0 0.29240563618831783,-0.5894719197218682 l 15.364683285201629 7.787098085663754" fill="#ff9d0e" stroke="none" /><path d="M 81.43458229118936 90.18545643968196 l -14.445210429131564 -7.636410298885469 a37.33948795387467,37.33948795387467 0 0,0 0.3052803648099865,-0.5656381519407424 l 14.311621965103106 7.883929434158684" fill="#ff900d" stroke="none" /><path d="M 81.6062741919709 89.86733742301443 l -17.265389235707943 -9.511089010002626 a40.711785297549596,40.711785297549596 0 0,0 0.3434181749906704,-0.610902613678689 l 17.09911341942484 9.806875133616101" fill="#ffc111" stroke="none" /><line stroke="#e1ed5e" stroke-width="0.3" x1="26.266209847984243" x2="21.928928074336255" y1="57.711370442889674" y2="55.22380399835377" /><path d="M 25.398753493254645 57.213857153982495 a86.0,86.0 0 0,1 29.58750427330803,-30.492523968695096" fill="none" id="id23" stroke="none" /><text fill="#e1ed5e" style="font-size:6.75px; font-family:Arial;" text-anchor="middle"><textPath startOffset="21.46611528233685" xlink:href="#id23">November</textPath></text><path d="M 81.96595687620814 89.24020034530311 l -9.521174773175561 -5.680696909367418 a32.08706843297412,32.08706843297412 0 0,0 0.2870787256126129,-0.47188194263868505 l 9.421980249276732 5.843746625213178" fill="#ff4106" stroke="none" /><path d="M 82.15384107792192 88.93136811851018 l -13.960122512258918 -8.658415392543189 a37.42720845631135,37.42720845631135 0 0,0 0.3442811344432903,-0.5445700753960161 l 13.809013781569664 8.897433115653419" fill="#ff910d" stroke="none" /><path d="M 82.34701348167596 88.62581576622439 l -19.106311825560045 -12.310591780393963 a43.72887638135768,43.72887638135768 0 0,0 0.4131407717180446,-0.6292417392857113 l 18.89157441848408 12.637651583657341" fill="#ffeb16" stroke="none" /><path d="M 82.54541684631803 88.32363383020206 l -18.855632521675073 -12.613607998984824 a43.6856338801565,43.6856338801565 0 0,0 0.42349172665488755,-0.6214218527316784 l 18.635716329351443 12.936307874986918" fill="#ffea16" stroke="none" /><path d="M 83.39014120810768 87.1503855733568 l -15.426534815813046 -11.934178779361053 a40.50391241677535,40.50391241677535 0 0,0 0.431358796761476,-0.5477818667154187 l 15.218821938457598 12.19795304002952" fill="#ffbe11" stroke="none" /><path d="M 83.6137871275137 86.86637796730984 l -15.082649091910309 -12.088809901734853 a40.32939803692773,40.32939803692773 0 0,0 0.4388251554804457,-0.5379477533485805 l 14.872325444353471 12.346641824691517" fill="#ffbb11" stroke="none" /><path d="M 83.84228863543731 86.58626213691792 l -17.5385545776261 -14.560080217647954 a43.79466675818519,43.79466675818519 0 0,0 0.48651575907394556,-0.575881203773719 l 17.28532820506503 14.85982037105079" fill="#ffec16" stroke="none" /><path d="M 84.31358615837235 86.03803664274999 l -17.017981697319005 -15.147148307523235 a43.78262063285057,43.78262063285057 0 0,0 0.505911015574112,-0.5586395792669875 l 16.75472704112885 15.437840674059778" fill="#ffeb16" stroke="none" /><path d="M 84.5562425177563 85.77008943001954 l -9.477687514425975 -8.732761175223294 a33.88750085798613,33.88750085798613 0 0,0 0.39895702804039923,-0.4255795410391552 l 9.32596316441512 8.894610133140498" fill="#ff5c08" stroke="none" /><path d="M 84.80347519578584 85.50635884689758 l -10.434153303643628 -9.951543242145165 a35.41890315052509,35.41890315052509 0 0,0 0.42458112682977966,-0.437568172932797 l 10.26130791311073 10.129675610628086" fill="#ff730a" stroke="none" /><path d="M 85.05521093208273 85.24692304244772 l -11.2867353029968 -11.141948793516136 a36.85980506555014,36.85980506555014 0 0,0 0.44962678431454606,-0.4476959440117779 l 11.09327271851494 11.334580588178023" fill="#ff890c" stroke="none" /><path d="M 86.37877921826538 84.01681056812374 l -14.58274543199699 -17.11144591305525 a43.48239412451095,43.48239412451095 0 0,0 0.5738484669800796,-0.48058158809738494 l 14.2860394280578 17.359928658546448" fill="#ffe715" stroke="none" /><path d="M 86.65592168130627 83.78471172551755 l -14.508216114222574 -17.629910513268033 a43.832040634223354,43.832040634223354 0 0,0 0.586716078869662,-0.47441693241093696 l 14.202596636788412 17.877033542943106" fill="#ffec16" stroke="none" /><path d="M 86.93701828274178 83.55741782278169 l -12.793865054795274 -16.10384076782326 a41.56736907131581,41.56736907131581 0 0,0 0.5640641406189516,-0.4402610087902331 l 12.514768359016898 16.321680165836717" fill="#ffcd13" stroke="none" /><path d="M 87.22198572758235 83.33499621200491 l -13.5552224593881 -17.678633691968635 a43.277301118813924,43.277301118813924 0 0,0 0.5950708168101835,-0.4481950021096075 l 13.248905488819526 17.909345283584095" fill="#ffe415" stroke="none" /><path d="M 87.51073957382395 83.11751280151077 l -13.470994207359583 -18.209556010219522 a43.65073100418698,43.65073100418698 0 0,0 0.6078981298455084,-0.4416638440276881 l 13.155550761160292 18.438739089063876" fill="#ffea15" stroke="none" /><path d="M 88.09926311788651 82.69761687909137 l -12.69722727354015 -18.460393926550367 a43.40548424737456,43.40548424737456 0 0,0 0.6192418722630627,-0.41811487638818096 l 12.377580706870548 18.676220715237214" fill="#ffe615" stroke="none" /><path d="M 88.39885842347998 82.49532879139004 l -10.758439785056153 -16.233139636550085 a40.47456929096026,40.47456929096026 0 0,0 0.5840537672542687,-0.379884816734653 l 10.477418992017597 16.415923377444273" fill="#ffbd11" stroke="none" /><path d="M 88.70189139769569 82.29822771554957 l -33.89432580691294 -53.105316853351276 a84.0,84.0 0 0,0 1.225523390511031,-0.7674226347082791 l 32.97518326402967 53.68088382938249" fill="#4dd2ff" stroke="none" /><line stroke="#e1ed5e" stroke-width="0.3" x1="56.762969772571076" x2="54.21961505331055" y1="26.818313649435495" y2="22.513508569990535" /><path d="M 56.25429882871897 25.957352633546506 a86.0,86.0 0 0,1 42.265352541879196,-11.944610805530505" fill="none" id="id24" stroke="none" /><text fill="#e1ed5e" style="font-size:6.75px; font-family:Arial;" text-anchor="middle"><textPath startOffset="22.20632615414155" xlink:href="#id24">December</textPath></text><path d="M 89.3179101791058 81.91981866633112 l -9.775898592106408 -16.546389536916127 a40.21851190884756,40.21851190884756 0 0,0 0.5990705685938071,-0.3470203406591455 l 9.489631291047282 16.71221403496532" fill="#ffba11" stroke="none" /><path d="M 89.94658935756843 81.56283822128135 l -9.246095634477369 -16.956609761354805 a40.31364541149015,40.31364541149015 0 0,0 0.6121050253311947,-0.32696530599247176 l 8.952845562617869 17.113253793849026" fill="#ffbb11" stroke="none" /><path d="M 90.58718382345135 81.22770947309562 l -8.959448918680103 -17.868125214370394 a40.988537305237145,40.988537305237145 0 0,0 0.6334265751792618,-0.31081966949905 l 8.650551076490414 18.019700044004274" fill="#ffc512" stroke="none" /><path d="M 90.91171255644093 81.06846463323043 l -8.324922272486171 -17.34139257873873 a40.23611778433661,40.23611778433661 0 0,0 0.626958782464298,-0.2943655549664407 l 8.025185278722265 17.482123116345182" fill="#ffba11" stroke="none" /><path d="M 91.23893434514133 80.91482961587045 l -9.513912686877287 -20.72517794089215 a43.80455075845975,43.80455075845975 0 0,0 0.687977339650945,-0.30867537824327645 l 9.155753228759567 20.885873649651952" fill="#ffec16" stroke="none" /><path d="M 91.56875222667455 80.76684994638697 l -10.37154340706893 -23.659303580997694 a46.8327613425767,46.8327613425767 0 0,0 0.7411089172223051,-0.3173041614584759 l 9.962750732056318 23.834327270418953" fill="#eaff1a" stroke="none" /><path d="M 92.23578459929587 80.48803036053334 l -7.217698625810726 -18.138538047368844 a40.521827167272974,40.521827167272974 0 0,0 0.6503113304925937,-0.25231069303842896 l 6.904404130318456 18.260091444297824" fill="#ffbe11" stroke="none" /><path d="M 92.57280143429618 80.3572730644239 l -11.361029146543505 -30.046536558636923 a53.122692017297,53.122692017297 0 0,0 0.8581026683241704,-0.3160464545701072 l 10.842144152446766 30.237646281013355" fill="#9aff23" stroke="none" /><path d="M 92.91201910852362 80.23233633223022 l -10.837452794963905 -30.224562558259816 a53.10879264191091,53.10879264191091 0 0,0 0.8631898414835986,-0.3011499865167987 l 10.315580949417022 30.406633397948823" fill="#9aff23" stroke="none" /><path d="M 93.59665428221793 80.00007090966166 l -7.046926447975014 -22.010060908150802 a44.110645891962385,44.110645891962385 0 0,0 0.7251257229087057,-0.22530009183888464 l 6.6670153523555795 22.12810113487221" fill="#fff016" stroke="none" /><path d="M 93.94186890950719 79.89281104454417 l -6.587711889956868 -21.86488964613847 a43.83574713432631,43.83574713432631 0 0,0 0.7243539556673205,-0.2114587827526007 l 6.210367716566126 21.975046757809768" fill="#ffec16" stroke="none" /><path d="M 94.63758080256005 79.69619591428918 l -5.846405621675715 -22.13632876832386 a43.89536001098222,43.89536001098222 0 0,0 0.7321978304675714,-0.1866535300509433 l 5.464498902523144 22.233685294543665" fill="#ffed16" stroke="none" /><path d="M 94.98787191387505 79.60689891045804 l -5.392990451454714 -21.942735213792137 a43.59575125265976,43.59575125265976 0 0,0 0.7302834590361494,-0.17283450024160332 l 5.0144833054560305 22.03231562617461" fill="#ffe915" stroke="none" /><path d="M 95.33964822691252 79.52364482259891 l -5.075077977618193 -22.298552616312506 a43.86879676024435,43.86879676024435 0 0,0 0.7377421313576543,-0.16124185546031292 l 4.690493122107018 22.382607969868687" fill="#ffed16" stroke="none" /><path d="M 96.40284397218896 79.31037775812273 l -3.845736253005412 -22.119371442720848 a43.45119774864438,43.45119774864438 0 0,0 0.7379891997726312,-0.1217745412979518 l 3.4644178470938956 22.182292246958426" fill="#ffe715" stroke="none" /><path d="M 97.11714578562143 79.19881850522333 l -3.1375346517499323 -22.638823500573636 a43.85520625986685,43.85520625986685 0 0,0 0.7486402629720125,-0.09719499225318343 l 2.747379660270062 22.689476815990954" fill="#ffec16" stroke="none" /><path d="M 97.47563105711357 79.15227682838746 l -2.721017885031305 -22.471765774172532 a43.635905003775136,43.635905003775136 0 0,0 0.746450952373473,-0.08387246190118684 l 2.333800229148114 22.515274189544318" fill="#ffe915" stroke="none" /><path d="M 98.55514903715128 79.0497635885617 l -1.5665432776991215 -22.714766339524836 a43.76872125746448,43.76872125746448 0 0,0 0.7520674144501487,-0.0453667602466517 l 1.1753138144093498 22.73836636915179" fill="#ffeb16" stroke="none" /><path d="M 98.91598698831166 79.02799685794201 l -1.1765255603212417 -22.761809573981957 a43.79219575811655,43.79219575811655 0 0,0 0.7531406175164355,-0.03243181926363469 l 0.7845441104154822 22.778689119769787" fill="#ffec16" stroke="none" /><path d="M 99.27714615592234 79.0124445844662 l -0.782566562956615 -22.721272413446833 a43.7347450065207,43.7347450065207 0 0,0 0.7525986648523975,-0.019437403130797924 l 0.39134126290933846 22.73137660871999" fill="#ffeb16" stroke="none" /></svg>