<?xml version="1.0" encoding="utf-8" ?>
<svg baseProfile="full" height="200mm" version="1.1" viewBox="0,0,200,200" width="200mm" xmlns="http://www.w3.org/2000/svg" xmlns:ev="http://www.w3.org/2001/xml-events" xmlns:xlink="http://www.w3.org/1999/xlink"><defs /><rect fill="#1a1a1a" height="200" width="200" x="0" y="0" /><text alignment-baseline="middle" fill="#e1ed5e" style="dominant-baseline: central; font-size:9.0px; font-family:Arial;" text-anchor="middle" x="100.0" y="100.0">2017</text><line stroke="#e1ed5e" stroke-width="0.3" x1="100.0" x2="100.0" y1="15.0" y2="10.0" /><path d="M 100.0 14.0 a86.0,86.0 0 0,1 42.46469731375804,11.215312516191453" fill="none" id="id61" stroke="none" /><text fill="#e1ed5e" style="font-size:6.75px; font-family:Arial;" text-anchor="middle"><textPath startOffset="22.20632615414155" xlink:href="#id61">January</textPath></text><path d="M 100.0 79.0 l 0.0 -5.225456897139406 a26.225456897139406,26.225456897139406 0 0,0 0.4514281299199518,0.0038855844351680193 l -0.0899476506474234 5.224682689312797" fill="#ff3605" stroke="none" /><path d="M 100.36148047927253 79.00311137660856 l 0.12797716275383822 -7.433657933860649 a28.434759473704304,28.434759473704304 0 0,0 0.4893126051636731,0.012637500978575744 l -0.25591640311237907 7.430353640739714" fill="#ff5507" stroke="none" /><path d="M 100.72285384407766 79.0124445844662 l 0.2091652878678167 -6.072967732132933 a27.07656870225102,27.07656870225102 0 0,0 0.4656643340122884,0.02005248577351603 l -0.3136704542694366 6.068467519835222" fill="#ff4206" stroke="none" /><path d="M 101.08401301168833 79.027996857942 l 0.49036068669549576 -9.486828803007414 a30.499493372839815,30.499493372839815 0 0,0 0.5240654619088263,0.03161305982303834 l -0.653588197443934 9.476982473804073" fill="#ff720a" stroke="none" /><path d="M 101.44485096284872 79.0497635885617 l 0.7089830191409078 -10.280203456702491 a31.304622265402454,31.304622265402454 0 0,0 0.5372615706074827,0.04170183810303759 l -0.8858347791107317 10.266476356410989" fill="#ff7d0b" stroke="none" /><path d="M 101.80526077348638 79.07773832637324 l 0.29890914103533434 -3.4642392707080383 a24.4771109270931,24.4771109270931 0 0,0 0.419461770670744,0.039832949417856575 l -0.3584960387963225 3.4585807767750034" fill="#ff1d03" stroke="none" /><path d="M 102.16513564639614 79.11191278185805 l 2.8092221338118177 -27.101894074797446 a48.247098771036875,48.247098771036875 0 0,0 0.8253316351243551,0.09273562570012621 l -3.275320472445898 27.049522495626718" fill="#aeff20" stroke="none" /><path d="M 102.52436894288641 79.15227682838746 l 0.18851474482514838 -1.5568656178237261 a22.568237342043016,22.568237342043016 0 0,0 0.3852562233648408,0.05001731472040136 l -0.21528569669783526 1.5533899799391881" fill="#ff0100" stroke="none" /><path d="M 102.88285421437855 79.19881850522331 l 1.0197650963255747 -7.358096273099024 a28.428425244685286,28.428425244685286 0 0,0 0.48413746214593045,0.07134927700059383 l -1.1462715389001608 7.339452511937461" fill="#ff5507" stroke="none" /><path d="M 103.2404852339499 79.25152402106235 l 0.7637547604578565 -4.890239009619907 a25.949521078380243,25.949521078380243 0 0,0 0.4407350611115178,0.07272506144712658 l -0.8478190277082495 4.876367685233156" fill="#ff3204" stroke="none" /><path d="M 103.59715602781102 79.31037775812273 l 1.3417004796417047 -7.717006399198291 a28.832773962162968,28.832773962162968 0 0,0 0.48824167109916167,0.08922304463114857 l -1.4743372718437673 7.692767873216404" fill="#ff5b08" stroke="none" /><path d="M 103.95276090670814 79.375362276772 l 1.4271012954510018 -7.446300929326526 a28.581821393146043,28.581821393146043 0 0,0 0.4823979800162896,0.09676449662669037 l -1.5550656849344169 7.420632476622627" fill="#ff5708" stroke="none" /><path d="M 104.307194497241 79.44645832069477 l 1.2123811768193442 -5.785373069389676 a26.91104133549455,26.91104133549455 0 0,0 0.4525633356302409,0.09891281634686935 l -1.3117872366031131 5.763646754946936" fill="#ff4006" stroke="none" /><path d="M 104.66035177308747 79.52364482259891 l 4.532195889991806 -19.91327206520033 a41.42251708110307,41.42251708110307 0 0,0 0.6938790635963014,0.16421875601983446 l -4.874298640550631 19.83230739703963" fill="#ffff18" stroke="none" /><path d="M 105.01212808612495 79.60689891045804 l 2.3726095385544683 -9.653557398043427 a30.940847371313907,30.940847371313907 0 0,0 0.5161097052725986,0.13156785553593778 l -2.5384281325120917 9.611286546338622" fill="#ff780b" stroke="none" /><path d="M 105.36241919743992 79.69619591428918 l 2.8773097905260197 -10.894398988543907 a32.26795637869811,32.26795637869811 0 0,0 0.5358049761756788,0.1464557401390467 l -3.0644126559254095 10.843256707578567" fill="#ff8a0c" stroke="none" /><path d="M 105.71112130821622 79.79150937346287 l 2.925217609193782 -10.350722641967016 a31.75613114795771,31.75613114795771 0 0,0 0.5247470550285285,0.15318805487452034 l -3.1029548819457378 10.298836258173793" fill="#ff830c" stroke="none" /><path d="M 106.0581310904928 79.89281104454417 l 2.4957526452789414 -8.283506790312847 a29.651315854341227,29.651315854341227 0 0,0 0.4874318072044371,0.1514474351948771 l -2.6379698251940966 8.23931922023545" fill="#ff6609" stroke="none" /><path d="M 106.40334571778207 80.00007090966166 l 2.088703453676868 -6.523764732595355 a27.8499772557036,27.8499772557036 0 0,0 0.4553035996210011,0.1501064383351461 l -2.200689875540286 6.486844570000972" fill="#ff4d07" stroke="none" /><path d="M 106.74666289553966 80.11325718540242 l 3.6657776176326076 -10.805397842771086 a32.41028255927513,32.41028255927513 0 0,0 0.526772032898801,0.1837804188383889 l -3.8512316545946823 10.740696570760491" fill="#ff8c0c" stroke="none" /><path d="M 107.08798089147638 80.2323363322302 l 7.994357669569795 -22.295457066193507 a44.68537861929776,44.68537861929776 0 0,0 0.7218128670100011,0.2658497705491518 l -8.376952862352372 22.154544027838032" fill="#d7ff1c" stroke="none" /><path d="M 107.4271985657038 80.35727306442388 l 1.873629379538326 -4.955191376017393 a26.297585169190423,26.297585169190423 0 0,0 0.42203471056534536,0.1637429109967332 l -1.9586472551033385 4.9222057611301135" fill="#ff3705" stroke="none" /><path d="M 107.76421540070413 80.48803036053334 l 5.2558642763348145 -13.208322914341332 a35.2156218119633,35.2156218119633 0 0,0 0.5612969839494826,0.22896713308093736 l -5.482445129872684 13.115894895076817" fill="#ffb110" stroke="none" /><path d="M 108.09893153111575 80.62456947434976 l 4.119266794960846 -9.854703339044827 a31.680989506063952,31.680989506063952 0 0,0 0.5013384467685538,0.21464695912041187 l -4.288288999519715 9.782336851961624" fill="#ff820c" stroke="none" /><path d="M 108.43124777332544 80.76684994638697 l 3.1943135306886026 -7.2867875675996885 a28.956187025684205,28.956187025684205 0 0,0 0.4547746791471842,0.20404414216963118 l -3.319270328302567 7.230723094913526" fill="#ff5d08" stroke="none" /><path d="M 108.76106565485865 80.91482961587045 l 3.7877642240685923 -8.251293671240692 a30.07915222177658,30.07915222177658 0 0,0 0.46869304726673355,0.22005767017936378 l -3.929235482634924 8.184871018421324" fill="#ff6c0a" stroke="none" /><path d="M 109.08828744355905 81.06846463323043 l 5.186875458269764 -10.804622630070433 a32.98513859735595,32.98513859735595 0 0,0 0.509744058880249,0.2501291958983962 l -5.372090784160445 10.713738274037206" fill="#ff930d" stroke="none" /><path d="M 109.41281617654863 81.2277094730956 l 3.0168963426345248 -6.016696126988055 a27.730698019278137,27.730698019278137 0 0,0 0.4248600599783814,0.2176298243751844 l -3.120016890201662 5.96387377730037" fill="#ff4c07" stroke="none" /><path d="M 109.73455568895987 81.39251694778311 l 2.061546563442982 -3.940620811705484 a25.447298799821073,25.447298799821073 0 0,0 0.3863808226093863,0.20639125422266236 l -2.1290724325806796 3.904550830981068" fill="#ff2b04" stroke="none" /><path d="M 110.05341064243156 81.56283822128135 l 3.5495652092044048 -6.5096224887103995 a28.414485694902815,28.414485694902815 0 0,0 0.4274024548774788,0.23784900340049744 l -3.6610917531539187 6.447558087749722" fill="#ff5507" stroke="none" /><path d="M 110.36928655335952 81.73862282372117 l 7.426019575645988 -13.077982143850166 a36.03926140781991,36.03926140781991 0 0,0 0.5368189870429647,0.3109602065633428 l -7.650035295154281 12.948217779896774" fill="#ffbc11" stroke="none" /><line stroke="#e1ed5e" stroke-width="0.3" x1="143.23703022742887" x2="145.7803849466894" y1="26.81831364943548" y2="22.513508569990506" /><path d="M 143.74570117128098 25.957352633546492 a86.0,86.0 0 0,1 28.547481713284135,27.462654790039103" fill="none" id="id62" stroke="none" /><text fill="#e1ed5e" style="font-size:6.75px; font-family:Arial;" text-anchor="middle"><textPath startOffset="19.985693538727396" xlink:href="#id62">February</textPath></text><path d="M 110.68208982089419 81.91981866633111 l 3.1172166428446553 -5.276106370938946 a27.12815943296927,27.12815943296927 0 0,0 0.39999558257824336,0.2409928629222707 l -3.2075742916405363 5.221666898558061" fill="#ff4306" stroke="none" /><path d="M 110.99172775467656 82.1063720568725 l 4.72468679154081 -7.691401159355567 a30.026644840265753,30.026644840265753 0 0,0 0.43807566178941093,0.2743229392233907 l -4.856381605702484 7.608933878809232" fill="#ff6b09" stroke="none" /><path d="M 111.2981086023043 82.29822771554956 l 6.50591471316942 -10.193407127551614 a33.09266203625382,33.09266203625382 0 0,0 0.4775318000743636,0.3105999661795606 l -6.680413539028064 10.079908237212525" fill="#ff950d" stroke="none" /><path d="M 111.60114157652 82.49532879139004 l 4.4394765553781115 -6.698614694739143 a29.036192563293085,29.036192563293085 0 0,0 0.4142431897271566,0.2796988508455302 l -4.55412443951181 6.621203931594942" fill="#ff5e08" stroke="none" /><path d="M 111.90073688211348 82.69761687909136 l 6.195506973058254 -9.007596448689622 a31.932570623401404,31.932570623401404 0 0,0 0.45020189498262086,0.315395197943073 l -6.349640007624526 8.899616407982613" fill="#ff850c" stroke="none" /><path d="M 112.19680574252982 82.90503203632743 l 2.2316395394411463 -3.1278522621856983 a24.84235276986084,24.84235276986084 0 0,0 0.3459648771589159,0.2513581964521014 l -2.285149732953851 3.0889748309169223" fill="#ff2203" stroke="none" /><path d="M 112.48926042617603 83.11751280151076 l 2.673319208844393 -3.613686942278735 a25.495038254472618,25.495038254472618 0 0,0 0.35056144552648244,0.2640356128695997 l -2.7351268081292583 3.5671347399032878" fill="#ff2c04" stroke="none" /><path d="M 112.77801427241765 83.33499621200491 l 4.510834057705976 -5.88300068039166 a28.413320504446634,28.413320504446634 0 0,0 0.38556530207563444,0.30093983400551505 l -4.611431914941041 5.804482457162922" fill="#ff5507" stroke="none" /><path d="M 113.06298171725822 83.55741782278167 l 2.2848491828647672 -2.8759758885806175 a24.673114904292387,24.673114904292387 0 0,0 0.33026327363925667,0.26704993234510416 l -2.334015855068515 2.836219858971384" fill="#ff2003" stroke="none" /><path d="M 113.34407831869373 83.78471172551755 l 4.782587350605861 -5.811643991876608 a28.52650965949627,28.52650965949627 0 0,0 0.3764717689996346,0.3152842797887198 l -4.881916656564613 5.728458554694068" fill="#ff5708" stroke="none" /><path d="M 113.6212207817346 84.01681056812373 l 7.824207748949851 -9.180953499668208 a33.06267524481186,33.06267524481186 0 0,0 0.4299819829850587,0.3728761385318233 l -7.981083530581674 9.044912367716712" fill="#ff950d" stroke="none" /><path d="M 113.89432698308785 84.25364557470407 l 8.791793964503283 -9.963685464416795 a34.28798965788681,34.28798965788681 0 0,0 0.439194879780661,0.3943134995089401 l -8.961999831879934 9.810872956138557" fill="#ffa50f" stroke="none" /><path d="M 114.16331599549186 84.49514656593476 l 2.159981337335555 -2.3645729620354334 a24.202612163598165,24.202612163598165 0 0,0 0.30517432821389234,0.28362627897503007 l -2.2003635493442943 2.327042096985763" fill="#ff1902" stroke="none" /><path d="M 114.42810811169701 84.74124197986012 l 5.980429597526887 -6.324732763207176 a29.704469122063784,29.704469122063784 0 0,0 0.3685005688521493,0.35449725527314957 l -6.088413409991454 6.220852421171724" fill="#ff6709" stroke="none" /><path d="M 114.68862486808459 84.99185889309783 l 5.507329691440521 -5.627128602825408 a28.87370666477728,28.87370666477728 0 0,0 0.3522099982850533,0.35069749662044836 l -5.603375489892897 5.531495255554841" fill="#ff5c08" stroke="none" /><path d="M 114.94478906791727 85.2469230424477 l 10.21697408593415 -10.085910498843214 a35.356606495384824,35.356606495384824 0 0,0 0.42383435090833976,0.43679855470229595 l -10.389072700545599 9.908547748590804" fill="#ffb310" stroke="none" /><path d="M 115.19652480421416 85.50635884689758 l 5.279196893572206 -5.035018620230211 a28.295295220014566,28.295295220014566 0 0,0 0.3331200768038362,0.3553492718086681 l -5.365084292346506 4.943399931543488" fill="#ff5307" stroke="none" /><path d="M 115.4437574822437 85.77008943001954 l 19.4222755876106 -17.895725505595102 a47.40988035513796,47.40988035513796 0 0,0 0.5478242364670051,0.6049212046211133 l -19.727443464693643 17.55875151370444" fill="#b8ff1f" stroke="none" /><path d="M 115.68641384162765 86.03803664274999 l 6.914376286188334 -6.154259942435826 a30.256539032817493,30.256539032817493 0 0,0 0.3429191652278565,0.39201588542704513 l -7.019287314994039 6.034328500805833" fill="#ff6f0a" stroke="none" /><path d="M 115.9244219780498 86.31012108654704 l 1.23087219512628 -1.0581540311128093 a22.62318708542647,22.62318708542647 0 0,0 0.251321401720253,0.2974852687860427 l -1.2489042103336503 1.0368098126976601" fill="#ff0200" stroke="none" /><path d="M 116.15771136456269 86.58626213691792 l 6.078909788281587 -5.046562632141673 a28.90069228702108,28.90069228702108 0 0,0 0.3144691317914294,0.3855019723276031 l -6.164877412149425 4.94117649020597" fill="#ff5c08" stroke="none" /><path d="M 116.38621287248628 86.86637796730983 l 5.774049076794182 -4.627925852235806 a28.399820297481572,28.399820297481572 0 0,0 0.30245256768554607,0.3840840464215072 l -5.852855725073693 4.5278494118612596" fill="#ff5507" stroke="none" /><path d="M 116.60985879189232 87.15038557335679 l 15.47742312661496 -11.973546674104812 a40.5682509846241,40.5682509846241 0 0,0 0.42253583587448035,0.5560076309168602 l -15.681234902713555 11.705354267306918" fill="#fff517" stroke="none" /><path d="M 116.82858285166822 87.43820079747576 l 4.778435291731845 -3.5668924214281343 a26.962899075391924,26.962899075391924 0 0,0 0.27442760035395375,0.37431893847485254 l -4.839125504599425 3.484111039281788" fill="#ff4106" stroke="none" /><path d="M 117.04232023915458 87.72973835380427 l 19.750144945598915 -14.219862238946563 a45.33665357987381,45.33665357987381 0 0,0 0.450532736306799,0.6372466047817377 l -19.9919903017096 13.877789133833032" fill="#d0ff1d" stroke="none" /><path d="M 117.2510076193507 88.02491185347247 l 2.5376908121708937 -1.7615823860799669 a24.08918228033306,24.08918228033306 0 0,0 0.2335222930629563,0.34266514993240904 l -2.5676375709025834 1.7176392128771514" fill="#ff1802" stroke="none" /><path d="M 117.45458315368197 88.32363383020206 l 6.220734872111762 -4.16140434706892 a28.4843054780595,28.4843054780595 0 0,0 0.26911343077808075,0.40987821788625556 l -6.291444938247768 4.053708065204991" fill="#ff5608" stroke="none" /><path d="M 117.65298651832404 88.62581576622439 l 6.491261478350725 -4.182453993704256 a28.722007316091634,28.722007316091634 0 0,0 0.26420472351860325,0.41790842370483705 l -6.562293798115284 4.070097922285213" fill="#ff5908" stroke="none" /><line stroke="#e1ed5e" stroke-width="0.3" x1="172.23445277983987" x2="176.4835382374775" y1="55.19839476539836" y2="52.563006222186495" /><path d="M 173.08426987136738 54.67131705675599 a86.0,86.0 0 0,1 12.851231095245387,41.99856678651699" fill="none" id="id63" stroke="none" /><text fill="#e1ed5e" style="font-size:6.75px; font-family:Arial;" text-anchor="middle"><textPath startOffset="22.20632615414155" xlink:href="#id63">March</textPath></text><path d="M 117.84615892207809 88.93136811851018 l 10.921663916668766 -6.773887756731919 a33.85178190172348,33.85178190172348 0 0,0 0.30286738186638895,0.49783434217226097 l -11.036647096821378 6.584885641352577" fill="#ff9f0e" stroke="none" /><path d="M 118.03404312379186 89.2402003453031 l 5.509703337078898 -3.2872996730041586 a27.41585302222172,27.41585302222172 0 0,0 0.2383094635880959,0.40734812241965984 l -5.565472475137321 3.1919721382306037" fill="#ff4706" stroke="none" /><path d="M 118.21658344932153 89.55222093294921 l 6.965059689781505 -3.994679080745449 a29.029291216562303,29.029291216562303 0 0,0 0.2448722437005097,0.43560039796399186 l -7.032789574774448 3.8741951728466635" fill="#ff5e08" stroke="none" /><path d="M 118.3937258080291 89.86733742301442 l 13.080708823563203 -7.2058488943609 a35.93416223345677,35.93416223345677 0 0,0 0.2937906960406785,0.544349540689484 l -13.202807618822346 6.979618370338957" fill="#ffba11" stroke="none" /><path d="M 118.56541770881063 90.18545643968196 l 5.7365814682570155 -3.0326238596184343 a27.488850007195175,27.488850007195175 0 0,0 0.2175422649748717,0.4202224136192175 l -5.787933166392004 2.9334287237388716" fill="#ff4806" stroke="none" /><path d="M 118.73160827565052 90.50648371742162 l 5.391082386241339 -2.732297604206989 a27.043940725486713,27.043940725486713 0 0,0 0.20687325180147545,0.41704385205483935 l -5.437315650996223 2.6390941636532" fill="#ff4206" stroke="none" /><path d="M 118.89224826269711 90.83032412892265 l 5.489406604517067 -2.664377399028877 a27.10184331117831,27.10184331117831 0 0,0 0.2000913684372764,0.42144345158985563 l -5.5344561667961 2.569491531798481" fill="#ff4306" stroke="none" /><path d="M 119.04729006885535 91.15688171328212 l 12.567318830797213 -5.83465083830245 a34.85570831822804,34.85570831822804 0 0,0 0.24796962206403156,0.54636819259911 l -12.66589076982459 5.617460636861277" fill="#ffac0f" stroke="none" /><path d="M 119.196687751892 91.48605970444005 l 11.034423661171664 -4.8938871883182165 a33.07098328000707,33.07098328000707 0 0,0 0.22631464437973284,0.5223654020638334 l -11.117029015394078 4.70322264166778" fill="#ff950d" stroke="none" /><path d="M 119.34039704204932 91.81776055985345 l 5.683849608170646 -2.4046361786018156 a27.17158176805123,27.17158176805123 0 0,0 0.17852804842806966,0.4323198299863483 l -5.7243993434849125 2.3064417781621644" fill="#ff4406" stroke="none" /><path d="M 119.47837535516314 92.15188598940014 l 10.162850594771744 -4.094756810368139 a31.956758897945534,31.956758897945534 0 0,0 0.20118522148494106,0.5119944443580605 l -10.231829366138385 3.919213361114294" fill="#ff860c" stroke="none" /><path d="M 119.61058180528143 92.48833698450437 l 13.06758180068395 -5.005423698736245 a34.993425617819135,34.993425617819135 0 0,0 0.2106194490810485,0.5643554101352548 l -13.151805838266624 4.779745151571657" fill="#ffae10" stroke="none" /><path d="M 119.7369772167798 92.82701384747503 l 4.200971393908794 -1.5267540365827983 a25.469802964411503,25.469802964411503 0 0,0 0.14620506094004698,0.4133413954627566 l -4.22662953565865 1.4542150146934272" fill="#ff2b04" stroke="none" /><path d="M 119.85752413597 93.16781622104841 l 7.2708531074023215 -2.5016111937918235 a28.689171832800106,28.689171832800106 0 0,0 0.15664657532359846,0.46835332186511475 l -7.31283697649769 2.376084769004395" fill="#ff5908" stroke="none" /><path d="M 119.97218684219823 93.5106431181261 l 12.49114992201932 -4.05862063826221 a34.13397228030009,34.13397228030009 0 0,0 0.17675630012812826,0.5603657744208895 l -12.559161705915654 3.8430046974149006" fill="#ffa30f" stroke="none" /><path d="M 120.08093135843002 93.85539295169968 l 9.8583115290513 -3.0165657869409115 a31.30950897719034,31.30950897719034 0 0,0 0.1532587089134945,0.5167121774709469 l -9.908776135076495 2.8464242227234346" fill="#ff7d0b" stroke="none" /><path d="M 120.18372546131832 94.20196356495316 l 8.504485532179187 -2.4430235672499583 a29.848425753611984,29.848425753611984 0 0,0 0.13760583289130066,0.4950413952724622 l -8.54527813563685 2.2962708685585445" fill="#ff6909" stroke="none" /><path d="M 120.28053869075195 94.5502522615342 l 9.62777923678341 -2.5871585031434354 a30.969329072341083,30.969329072341083 0 0,0 0.13391088948972601,0.5160132828936214 l -9.670886458143437 2.4210487947009636" fill="#ff780b" stroke="none" /><path d="M 120.37134235888165 94.90015583598534 l 26.385646766816627 -6.605489432503406 a48.199905256197766,48.199905256197766 0 0,0 0.1945605236315093,0.8065789780783481 l -26.495440090708957 6.150325222765652" fill="#afff20" stroke="none" /><path d="M 120.45610955862082 95.25157060432595 l 10.213356099864225 -2.3708027273760814 a31.484910509621322,31.484910509621322 0 0,0 0.11800186580217788,0.5289792265504845 l -10.252652352668441 2.194645331275633" fill="#ff7f0b" stroke="none" /><path d="M 120.6074358757038 95.95851677861258 l 4.906515327124874 -0.9622545711004524 a25.999982651461405,25.999982651461405 0 0,0 0.0823509535437225,0.4399220867455848 l -4.922352004578455 0.8776544068923048" fill="#ff3304" stroke="none" /><path d="M 120.67395015179393 96.31383870115 l 3.133926286423359 -0.5587784485133843 a24.183351586497842,24.183351586497842 0 0,0 0.06954226592907457,0.41044239007536 l -3.1430804138726565 0.5047502701221864" fill="#ff1902" stroke="none" /><path d="M 120.73433829027371 96.67025291283417 l 8.100450696510768 -1.300859074151871 a29.20423889324324,29.20423889324324 0 0,0 0.07543608793091566,0.49702956677899096 l -8.121642677880985 1.1612303949807978" fill="#ff6008" stroke="none" /><path d="M 120.78858239683441 97.02765380044208 l 2.428188084353821 -0.34718171189200087 a23.45288249088091,23.45288249088091 0 0,0 0.0537004011327607,0.4001303629616865 l -2.4338044845444173 0.30533300686565" fill="#ff0e01" stroke="none" /><path d="M 120.83666639777658 97.38593545837742 l 19.390128464657796 -2.4325890864374173 a40.54212300491906,40.54212300491906 0 0,0 0.08090981255339215,0.6931858631676299 l -19.429128630214777 2.0984594849449345" fill="#fff517" stroke="none" /><path d="M 120.87857604477298 97.74499172005257 l 13.537616148323924 -1.4621416920270818 a34.61634713522406,34.61634713522406 0 0,0 0.05888549609771203,0.5929689096271203 l -13.560778770103864 1.2288972516955265" fill="#ffa90f" stroke="none" /><path d="M 120.91429891909075 98.10471618934814 l 14.733133769423112 -1.3351377457777038 a35.79350612491562,35.79350612491562 0 0,0 0.05032484496420048,0.6140905767212184 l -14.753933098206808 1.0813332518487166" fill="#ffb811" stroke="none" /><path d="M 120.94382443527127 98.46500227214037 l 15.428221186661473 -1.1307526254163083 a36.469602790131226,36.469602790131226 0 0,0 0.040497599208075205,0.6264799350872408 l -15.445399376873963 0.8650136260760324" fill="#ffc112" stroke="none" /><path d="M 120.96714384426684 98.82574320788733 l 14.703630022493527 -0.823471119903909 a35.726671060483724,35.726671060483724 0 0,0 0.02910259198445898,0.6143097198701984 l -14.715626222711483 0.5702502934107108" fill="#ffb811" stroke="none" /><path d="M 120.98425023603335 99.18683210126433 l 6.393086575708583 -0.24774069689071995 a27.397884917486497,27.397884917486497 0 0,0 0.014205549630984131,0.47141303419534464 l -6.396403819795212 0.13765751527037626" fill="#ff4706" stroke="none" /><line stroke="#e1ed5e" stroke-width="0.3" x1="184.98032266829074" x2="189.97916517819016" y1="98.17113171792111" y2="98.06355123074" /><path d="M 185.9800911702706 98.14961562048488 a86.0,86.0 0 0,1 -9.607161424134198,41.387399972396054" fill="none" id="id64" stroke="none" /><text fill="#e1ed5e" style="font-size:6.75px; font-family:Arial;" text-anchor="middle"><textPath startOffset="21.466115282336823" xlink:href="#id64">April</textPath></text><path d="M 120.99513854157772 99.54816195383933 l 9.39621446274892 -0.2022166786728923 a30.398390171465827,30.398390171465827 0 0,0 0.006755670026816027,0.5232340885864805 l -9.398303139893452 0.04044633202594911" fill="#ff710a" stroke="none" /><path d="M 120.99980553446 99.90962569577887 l 31.867871996479302 -0.13714587756366628 a52.86816710411382,52.86816710411382 0 0,0 -0.003916530993470358,0.9100638720419475 l -31.865511168196328 -0.4114274726819659" fill="#7bff26" stroke="none" /><path d="M 120.99824983174949 100.27111621757518 l 15.55967004786246 0.20089669014776665 a36.56096691977913,36.56096691977913 0 0,0 -0.013541376613217054,0.6292145613985187 l -15.553906608564235 -0.46870106733640027" fill="#ffc212" stroke="none" /><path d="M 120.9904718944345 100.63252640178507 l 14.71610625391126 0.443454810539124 a35.722786266376225,35.722786266376225 0 0,0 -0.02381156268293321,0.6144706285462225 l -14.706292558377124 -0.6967026860993527" fill="#ffb811" stroke="none" /><path d="M 120.9764740272857 100.99374915477107 l 8.105882767875444 0.38401182862150823 a29.114973846603654,29.114973846603654 0 0,0 -0.028024755488286077,0.5004008352092235 l -8.09807166149963 -0.5234843801661551" fill="#ff5f08" stroke="none" /><path d="M 120.95626037817324 101.35467743843564 l 7.377211000070003 0.4768857191134605 a28.39260861459933,28.39260861459933 0 0,0 -0.03572525848068029,0.48744276811887033 l -7.3679091829249845 -0.6038016237291011" fill="#ff5507" stroke="none" /><path d="M 120.92983693683757 101.71520430193887 l 3.172580550801772 0.2599936074707423 a24.183215988155897,24.183215988155897 0 0,0 -0.03757081833010822,0.41459084954694736 l -3.1676351361945887 -0.3145658455662602" fill="#ff1902" stroke="none" /><path d="M 120.89721153311464 102.0752229133903 l 13.66935283114352 1.3574516466684594 a34.736589161627215,34.736589161627215 0 0,0 -0.0642092592837083,0.594497995707891 l -13.64396127035876 -1.592545964261142" fill="#ffab0f" stroke="none" /><path d="M 120.8583938346157 102.4346265915055 l 4.5451761595432325 0.5305205582385973 a25.57603304008985,25.57603304008985 0 0,0 -0.054803946964609045,0.4368413793923435 l -4.535370703331775 -0.6086796919183357" fill="#ff2d04" stroke="none" /><path d="M 120.81339534386255 102.79330883721812 l 5.595412578845343 0.7509450114288527 a26.64557883105803,26.64557883105803 0 0,0 -0.06492125367157345,0.454059096971289 l -5.581657274157169 -0.8471495803805511" fill="#ff3c05" stroke="none" /><path d="M 120.70491114924044 103.5080841355445 l 7.605344494106244 1.2885922655168498 a28.713736766365702,28.713736766365702 0 0,0 -0.08676136912199729,0.4866038338824641 l -7.582036682645057 -1.4193148501325323" fill="#ff5908" stroke="none" /><path d="M 120.64145759157962 103.86396538481128 l 16.3426897908644 3.059260101494425 a37.62656254217988,37.62656254217988 0 0,0 -0.12465154656927716,0.6355955504503696 l -16.28760831131946 -3.3401193790127395" fill="#ffd013" stroke="none" /><path d="M 120.5718875245553 104.21870165774334 l 3.9148187857870016 0.8028165855783035 a24.996288352412826,24.996288352412826 0 0,0 -0.09006515173839634,0.4207544046888815 l -3.9004195953241623 -0.870084809683354" fill="#ff2503" stroke="none" /><path d="M 120.49622156327973 104.57218783832717 l 11.761717069201488 2.6237411405618567 a33.05080934994088,33.05080934994088 0 0,0 -0.12864545008577907,0.5542012320052994 l -11.714811053185157 -2.8258110299157213" fill="#ff940d" stroke="none" /><path d="M 120.41448212921028 104.9243191809786 l 7.158601423313481 1.7267760247203956 a28.363920815531287,28.363920815531287 0 0,0 -0.11857292046830749,0.4736398759782634 l -7.127817188550113 -1.849743740096055" fill="#ff5407" stroke="none" /><path d="M 120.32669344350535 105.2749913415812 l 8.370198437623817 2.1721547780753077 a29.647455016657535,29.647455016657535 0 0,0 -0.13244213269920335,0.49286644545643915 l -8.331568228582835 -2.315912156707295" fill="#ff6609" stroke="none" /><path d="M 120.23288151984713 105.62410040840565 l 11.399121224617645 3.168594758583952 a32.83131258304226,32.83131258304226 0 0,0 -0.1560384160229368,0.5431901964928756 l -11.342890171708609 -3.3643424305814094" fill="#ff910d" stroke="none" /><path d="M 120.02730092923936 106.31721596034902 l 6.619069103772588 2.0878544309461966 a27.940548387940144,27.940548387940144 0 0,0 -0.1486274174184963,0.45742815576178386 l -6.582149435337845 -2.201481486685776" fill="#ff4e07" stroke="none" /><path d="M 119.9155931802556 106.66101706037122 l 4.205931841609231 1.406726051197541 a25.434945415603245,25.434945415603245 0 0,0 -0.14244679977777996,0.41401707802318327 l -4.18109421088822 -1.4789158323100247" fill="#ff2b04" stroke="none" /><path d="M 119.79798401119884 107.00284435728193 l 7.053503336033096 2.494930090249001 a28.481750160668284,28.481750160668284 0 0,0 -0.16746691185490564,0.4607970172480014 l -7.009512163172963 -2.6159749045031333" fill="#ff5608" stroke="none" /><path d="M 119.67450827220406 107.3425965602758 l 40.57559992243414 15.14295840585273 a64.3092195536565,64.3092195536565 0 0,0 -0.39597856967451883,1.0337750931746479 l -40.30892707316611 -15.83915706586052" fill="#34ff5f" stroke="none" /><path d="M 119.41010516605496 108.01547362559984 l 11.257489197255232 4.648821167073262 a33.179597746631316,33.179597746631316 0 0,0 -0.22253875176413804,0.526015872285863 l -11.175799464298786 -4.841911565025288" fill="#ff960d" stroke="none" /><path d="M 119.26925614724726 108.34839909993367 l 14.8086548360551 6.415844999922942 a37.138752278799444,37.138752278799444 0 0,0 -0.2591912023054673,0.5844077367197744 l -14.696022549018359 -6.669801073135403" fill="#ffca12" stroke="none" /><path d="M 118.97047184881838 109.00673069616215 l 4.292905559958191 2.0381698774144605 a25.752175774939268,25.752175774939268 0 0,0 -0.19356652767426713,0.39880437952065434 l -4.25718577566921 -2.11176321290039" fill="#ff3004" stroke="none" /><path d="M 118.64920377521936 109.65438752849418 l 1.3483843705043663 0.6980365171145605 a22.518352854196245,22.518352854196245 0 0,0 -0.1811628206487274,0.3426917836758767 l -1.3361690416307457 -0.7211433158765715" fill="#ff0100" stroke="none" /><line stroke="#e1ed5e" stroke-width="0.3" x1="174.80103733775053" x2="179.2010983576182" y1="140.37084112569926" y2="142.7455964860345" /><path d="M 175.68104954172406 140.8457921977663 a86.0,86.0 0 0,1 -30.038265399797805,32.042727171017184" fill="none" id="id65" stroke="none" /><text fill="#e1ed5e" style="font-size:6.75px; font-family:Arial;" text-anchor="middle"><textPath startOffset="22.206326154141568" xlink:href="#id65">May</textPath></text><path d="M 118.48025628344425 109.97397251340804 l 13.542332516624608 7.308927442161647 a36.388800809212256,36.388800809212256 0 0,0 -0.3022412044236484,0.5486555779212575 l -13.41451490274945 -7.54095353848071" fill="#ffc011" stroke="none" /><path d="M 118.12598468904814 110.60418214915192 l 6.695464497184377 3.917024444151813 a28.75708226907123,28.75708226907123 0 0,0 -0.25363626644530524,0.42510897169311973 l -6.627047355040844 -4.031695509731037" fill="#ff5a08" stroke="none" /><path d="M 117.94076556474637 110.91462005526583 l 10.448726518641097 6.35668971877345 a33.2304288576531,33.2304288576531 0 0,0 -0.3015034160181456,0.48611950739887216 l -10.337758462954987 -6.535605557537595" fill="#ff970d" stroke="none" /><path d="M 117.55443506779139 111.5257021239791 l 4.279109277612953 2.8095315342966183 a26.119008073050907,26.119008073050907 0 0,0 -0.24999235773502565,0.3737046554053484 l -4.230113814467207 -2.8827731039077737" fill="#ff3505" stroke="none" /><path d="M 117.35343817320211 111.8261652097733 l 27.50206730123393 18.7423372975709 a54.28120961169407,54.28120961169407 0 0,0 -0.5328323479760261,0.767584737773833 l -27.175374046095765 -19.21296329753175" fill="#6cff28" stroke="none" /><path d="M 116.498646956653 112.99209946851258 l 5.786403661872784 4.556587709133422 a28.365117710475545,28.365117710475545 0 0,0 -0.30537357318067393,0.3810004858762751 l -5.707112176637256 -4.6555160285879476" fill="#ff5407" stroke="none" /><path d="M 116.27256486870786 113.27417163493432 l 2.529321937414702 2.063267455876696 a24.26412960183372,24.26412960183372 0 0,0 -0.26679450400785193,0.3213711668896467 l -2.4934314335133068 -2.1064998798801136" fill="#ff1a02" stroke="none" /><path d="M 116.0416608686014 113.55231037782055 l 48.12498260580419 40.656931133461654 a84.0,84.0 0 0,0 -0.942629961716885,1.096491603353888 l -47.41801013451653 -41.47929983597707" fill="#4dd2ff" stroke="none" /><path d="M 115.56566222782051 114.09645910891815 l 7.924003010318917 7.176076595974365 a31.69045831659402,31.69045831659402 0 0,0 -0.369651980805312,0.4011842180112916 l -7.799304621517883 -7.311412068786992" fill="#ff820c" stroke="none" /><path d="M 115.32070863581623 114.36230785411682 l 8.877225317481994 8.321902460959091 a33.16795750761237,33.16795750761237 0 0,0 -0.39405657629953217,0.4131667448326286 l -8.732662189803497 -8.473476322374227" fill="#ff960d" stroke="none" /><path d="M 115.07121518719521 114.62390073753431 l 2.966927570207531 2.8788690058006834 a25.13407135393396,25.13407135393396 0 0,0 -0.3039539548026018,0.30790375146513227 l -2.9169329903493937 -2.92951325124648" fill="#ff2703" stroke="none" /><path d="M 114.81725581225074 114.88116024355365 l 2.5042289286784483 2.515029263610048 a24.54915972084167,24.54915972084167 0 0,0 -0.302013170619699,0.29558345279772175 l -2.4605658056829554 -2.557762819330342" fill="#ff1e03" stroke="none" /><path d="M 114.29624159901734 115.38237550388516 l 1.5505223084557191 1.6683207408481482 a23.277589410618816,23.277589410618816 0 0,0 -0.2958475762390247,0.2702497464160203 l -1.5215751827498305 -1.6947632538507513" fill="#ff0c01" stroke="none" /><path d="M 114.0293411484842 115.62618273729858 l 2.959619077021425 3.2964875571030317 a25.430143936172307,25.430143936172307 0 0,0 -0.3282397609802701,0.2896334252824844 l -2.902436963134567 -3.3469441241578046" fill="#ff2b04" stroke="none" /><path d="M 113.48314897796784 116.09983520530334 l 4.771663489324822 5.697704294362176 a28.43186428033698,28.43186428033698 0 0,0 -0.37791345818120237,0.3109970478658877 l -4.672879902598928 -5.778996461085242" fill="#ff5507" stroke="none" /><path d="M 112.92097659922987 116.55440617244103 l 2.5265141235344966 3.236979858309765 a25.106252819727786,25.106252819727786 0 0,0 -0.34296488900757705,0.2629708521178922 l -2.470420506033426 -3.2799900522550285" fill="#ff2603" stroke="none" /><path d="M 112.63410532772338 116.77436683061366 l 2.675433269227603 3.552186555732853 a25.447018383683513,25.447018383683513 0 0,0 -0.3521564762063582,0.26051694222515037 l -2.6138918226026804 -3.5977134466977723" fill="#ff2b04" stroke="none" /><path d="M 112.04921762599082 117.19931262002967 l 5.070846186328148 7.238235005284938 a29.83773313905387,29.83773313905387 0 0,0 -0.4231887330441353,0.29107306942864514 l -4.945500568661129 -7.324448864078678" fill="#ff6909" stroke="none" /><path d="M 111.1453310114006 117.79835938074945 l 1.7159958243064242 2.740332283144368 a24.23327429876902,24.23327429876902 0 0,0 -0.3554453589412693,0.21834357065897841 l -1.6685712654328462 -2.7694643206317244" fill="#ff1a02" stroke="none" /><line stroke="#e1ed5e" stroke-width="0.3" x1="143.8653032363475" x2="146.44561519142675" y1="172.8068346515853" y2="177.08958963109032" /><path d="M 144.38136562736335 173.6633856474863 a86.0,86.0 0 0,1 -40.68145358897372,12.25698825130547" fill="none" id="id66" stroke="none" /><text fill="#e1ed5e" style="font-size:6.75px; font-family:Arial;" text-anchor="middle"><textPath startOffset="21.466115282336833" xlink:href="#id66">June</textPath></text><path d="M 110.8373102113329 117.98757091392108 l 1.68774695860006 2.8012917883282893 a24.27043200198678,24.27043200198678 0 0,0 -0.35970182014472535,0.21251817559870478 l -1.6392772674269527 -2.8299285362207436" fill="#ff1a02" stroke="none" /><path d="M 108.92500713936063 119.00905698771935 l 1.888123083007557 4.021446562931287 a25.442638994460143,25.442638994460143 0 0,0 -0.39803434199123805,0.1827180440565264 l -1.8186207452488996 -4.0533516773218885" fill="#ff2b04" stroke="none" /><path d="M 108.2653958097858 119.30500536409082 l 1.2781327824336792 2.985260571754995 a24.247368795010296,24.247368795010296 0 0,0 -0.385104263106028,0.16097361321120024 l -1.22655705983019 -3.0068192279861683" fill="#ff1a02" stroke="none" /><path d="M 107.59598834532513 119.57807347666477 l 3.2746011053777253 8.440031518388105 a30.053018525924138,30.053018525924138 0 0,0 -0.4838962152218143,0.18296814324367816 l -3.128834669395636 -8.495147911738414" fill="#ff6c09" stroke="none" /><path d="M 106.57524785965236 119.94407469862006 l 0.9696563256044611 2.9411664172409284 a24.096884447907378,24.096884447907378 0 0,0 -0.3950496650106948,0.12648242747918184 l -0.918885315502826 -2.957421691379817" fill="#ff1802" stroke="none" /><path d="M 105.53697534728816 120.25689768951611 l 0.7776854039670742 2.845144266446231 a23.949515296525057,23.949515296525057 0 0,0 -0.3985992612460829,0.10527368770740018 l -0.7285956999094939 -2.858109303457215" fill="#ff1602" stroke="none" /><path d="M 104.83641907484287 120.43548508189849 l 1.018076572850531 4.301713374040756 a25.42054497325705,25.42054497325705 0 0,0 -0.42667761402503224,0.09711043580905027 l -0.9438788094326367 -4.318600543427491" fill="#ff2b04" stroke="none" /><path d="M 103.7750983002368 120.6578951692458 l 0.5293729393564485 2.8968068688370407 a23.94477940502584,23.94477940502584 0 0,0 -0.4060932291892776,0.07060451322667315 l -0.47943073869512093 -2.90548996058472" fill="#ff1502" stroke="none" /><path d="M 101.98527174616119 120.90594882070398 l 0.41673568277319323 4.388444490112705 a25.40818711854397,25.40818711854397 0 0,0 -0.4357572841252274,0.03759897204535174 l -0.3411340809064241 -4.39496771443672" fill="#ff2b04" stroke="none" /><line stroke="#e1ed5e" stroke-width="0.3" x1="102.19456741930631" x2="102.32365962044197" y1="184.97166512339345" y2="189.96999836594603" /><path d="M 102.22038585953345 185.97133177190398 a86.0,86.0 0 0,1 -42.740103519485714,-10.115201625700543" fill="none" id="id67" stroke="none" /><text fill="#e1ed5e" style="font-size:6.75px; font-family:Arial;" text-anchor="middle"><textPath startOffset="22.20632615414155" xlink:href="#id67">July</textPath></text><path d="M 99.45781275523022 120.99299961872073 l -0.03937339167096597 1.5245021057020651 a22.525010470213797,22.525010470213797 0 0,0 -0.3875156124382773,-0.013346821225486586 l 0.06560935578388634 -1.5235984860504848" fill="#ff0100" stroke="none" /><path d="M 91.7346041902142 119.30500536409082 l -0.585808992581902 1.3682400703347977 a22.48837262332374,22.48837262332374 0 0,0 -0.35454453505596667,-0.1554219050650906 l 0.6092742022956119 -1.3579536119752549" fill="#ff0000" stroke="none" /><path d="M 91.07499286063937 119.00905698771935 l -1.2516491686819862 2.6658432878084932 a23.945054511654394,23.945054511654394 0 0,0 -0.3715899966377056,-0.17838577987300902 l 1.2973518333199339 -2.643903231435922" fill="#ff1502" stroke="none" /><line stroke="#e1ed5e" stroke-width="0.3" x1="58.666819895761336" x2="56.23545636021788" y1="174.27360380694188" y2="178.64263932499728" /><path d="M 58.180547188652646 175.14741091055294 a86.0,86.0 0 0,1 -31.652253787137756,-30.449443065178592" fill="none" id="id68" stroke="none" /><text fill="#e1ed5e" style="font-size:6.75px; font-family:Arial;" text-anchor="middle"><textPath startOffset="22.20632615414155" xlink:href="#id68">August</textPath></text><path d="M 84.43433777217949 114.09645910891817 l -2.1859493766834914 1.979623195697378 a23.949115574942095,23.949115574942095 0 0,0 -0.27409323748507053,-0.30794665795694004 l 2.2197014638169 -1.9417023679995737" fill="#ff1602" stroke="none" /><path d="M 84.19399662182784 113.82643327865904 l -3.362153941788878 2.9410722012701593 a25.466988339068124,25.466988339068124 0 0,0 -0.28578507432262074,-0.3324326056726112 l 3.4122815256822774 -2.8827624964360177" fill="#ff2b04" stroke="none" /><line stroke="#e1ed5e" stroke-width="0.3" x1="26.63291911575756" x2="22.317208475507996" y1="142.92168965132927" y2="145.44649492493687" /><path d="M 25.769776987707644 143.4266507060508 a86.0,86.0 0 0,1 -11.730757126820373,-40.83630448921669" fill="none" id="id69" stroke="none" /><text fill="#e1ed5e" style="font-size:6.75px; font-family:Arial;" text-anchor="middle"><textPath startOffset="21.46611528233685" xlink:href="#id69">September</textPath></text><line stroke="#e1ed5e" stroke-width="0.3" x1="15.007084014347285" x2="10.007500721073583" y1="101.09737516637583" y2="101.16192664675087" /><path d="M 14.007167355692545 101.11028546245083 a86.0,86.0 0 0,1 10.666146001902534,-42.60595125391555" fill="none" id="id70" stroke="none" /><text fill="#e1ed5e" style="font-size:6.75px; font-family:Arial;" text-anchor="middle"><textPath startOffset="22.20632615414155" xlink:href="#id70">October</textPath></text><path d="M 79.3925641242962 95.95851677861259 l -1.4596485814528573 -0.2862629434658952 a22.487454353632103,22.487454353632103 0 0,0 0.07776451277334209,-0.3792073817874003 l 1.4545047727645206 0.311345981416698" fill="#ff0000" stroke="none" /><path d="M 79.54389044137918 95.25157060432595 l -2.0591668795035805 -0.4779896447666675 a23.11391635079269,23.11391635079269 0 0,0 0.09330009352678396,-0.3867891218979949 l 2.0506339857159817 0.5133639983240592" fill="#ff0901" stroke="none" /><path d="M 79.62865764111835 94.90015583598534 l -2.8662270859137498 -0.7175428707310982 a23.954678574627476,23.954678574627476 0 0,0 0.1035796515925682,-0.3991346503852477 l 2.853451102450874 0.7667739466652097" fill="#ff1602" stroke="none" /><path d="M 79.81627453868168 94.20196356495316 l -1.4954945466467262 -0.42960016903169046 a22.555975656712583,22.555975656712583 0 0,0 0.11041053725723556,-0.37224944361319107 l 1.4878781122777838 0.45527899939142075" fill="#ff0100" stroke="none" /><line stroke="#e1ed5e" stroke-width="0.3" x1="26.266209847984243" x2="21.928928074336255" y1="57.711370442889674" y2="55.22380399835377" /><path d="M 25.398753493254645 57.213857153982495 a86.0,86.0 0 0,1 29.58750427330803,-30.492523968695096" fill="none" id="id71" stroke="none" /><text fill="#e1ed5e" style="font-size:6.75px; font-family:Arial;" text-anchor="middle"><textPath startOffset="21.46611528233685" xlink:href="#id71">November</textPath></text><path d="M 82.34701348167596 88.62581576622439 l -1.762457774314812 -1.1355879872506678 a23.0966204909403,23.0966204909403 0 0,0 0.21821177225065522,-0.33235149978692513 l 1.7426493667062364 1.1657575510152598" fill="#ff0901" stroke="none" /><line stroke="#e1ed5e" stroke-width="0.3" x1="56.762969772571076" x2="54.21961505331055" y1="26.818313649435495" y2="22.513508569990535" /><path d="M 56.25429882871897 25.957352633546506 a86.0,86.0 0 0,1 42.265352541879196,-11.944610805530505" fill="none" id="id72" stroke="none" /><text fill="#e1ed5e" style="font-size:6.75px; font-family:Arial;" text-anchor="middle"><textPath startOffset="22.20632615414155" xlink:href="#id72">December</textPath></text><path d="M 96.40284397218896 79.31037775812273 l -0.25345707287901204 -1.4577991757532378 a22.479668518492982,22.479668518492982 0 0,0 0.3818019626774091,-0.06300059524722527 l 0.22832590406271724 1.4619460339400903" fill="#ff0000" stroke="none" /><path d="M 97.47563105711357 79.15227682838746 l -0.2660917704136079 -2.197542313875932 a23.213593696132385,23.213593696132385 0 0,0 0.39709979937369844,-0.044618789336443296 l 0.2282252675301915 2.201797056682974" fill="#ff0b01" stroke="none" /><path d="M 97.83486435360386 79.11191278185805 l -0.15821377982118484 -1.526363134576629 a22.534540979811194,22.534540979811194 0 0,0 0.386172146247115,-0.036671698456447493 l 0.13191650648383352 1.528860377548257" fill="#ff0100" stroke="none" /><path d="M 98.19473922651362 79.07773832637324 l -0.25342691860665906 -2.937118218100712 a23.9480313143136,23.9480313143136 0 0,0 0.41100502053031696,-0.03190189986287715 l 0.2028317087140079 2.9410453801520515" fill="#ff1502" stroke="none" /><path d="M 98.55514903715128 79.0497635885617 l -0.3043782077633336 -4.413462408994093 a25.423945809903774,25.423945809903774 0 0,0 0.4368535484027681,-0.026352199034945855 l 0.2283626105209425 4.418047877409345" fill="#ff2b04" stroke="none" /><path d="M 98.91598698831166 79.02799685794201 l -0.0797976512590678 -1.54381596428214 a22.54587690218816,22.54587690218816 0 0,0 0.38774524452604947,-0.016697125873082065 l 0.0532115743436942 1.5449608166794144" fill="#ff0100" stroke="none" /><path d="M 99.27714615592234 79.0124445844662 l -0.10540323673955182 -3.0603092038206037 a24.062123816128974,24.062123816128974 0 0,0 0.4140671737043793,-0.010694133479629053 l 0.0527094278402935 3.061670129442592" fill="#ff1702" stroke="none" /></svg>