<?xml version="1.0" encoding="utf-8" ?>
<svg baseProfile="full" height="98mm" version="1.1" viewBox="0,0,200,98" width="200mm" xmlns="http://www.w3.org/2000/svg" xmlns:ev="http://www.w3.org/2001/xml-events" xmlns:xlink="http://www.w3.org/1999/xlink"><defs /><rect fill="#222222" height="98" width="200" x="0" y="0" /><text fill="#FFFFFF" style="font-size:12px; font-family:Arial; font-weight:bold;" x="10" y="20">Daniel Running 2019</text><text fill="#FFFFFF" style="font-size:4px; font-family:Arial" x="10" y="78">ATHLETE</text><text fill="#FFFFFF" style="font-size:9px; font-family:Arial" x="10" y="88">Daniel Yu</text><text fill="#FFFFFF" style="font-size:4px; font-family:Arial" x="65" y="78">SPECIAL TRACKS</text><rect fill="yellow" height="2.6" width="2.6" x="65" y="81" /><text fill="#FFFFFF" style="font-size:3px; font-family:Arial" x="70" y="83.5">Over 10.0 km</text><rect fill="red" height="2.6" width="2.6" x="65" y="85" /><text fill="#FFFFFF" style="font-size:3px; font-family:Arial" x="70" y="87.5">Over 20.0 km</text><text fill="#FFFFFF" style="font-size:4px; font-family:Arial" x="120" y="78">STATISTICS</text><text fill="#FFFFFF" style="font-size:3px; font-family:Arial" x="120" y="83">Number: 177</text><text fill="#FFFFFF" style="font-size:3px; font-family:Arial" x="120" y="88">Weekly: 5.1</text><text fill="#FFFFFF" style="font-size:3px; font-family:Arial" x="141" y="83">Total: 1371.0 km</text><text fill="#FFFFFF" style="font-size:3px; font-family:Arial" x="141" y="88">Avg: 7.7 km</text><text fill="#FFFFFF" style="font-size:3px; font-family:Arial" x="167" y="83">Min: 0.8 km</text><text fill="#FFFFFF" style="font-size:3px; font-family:Arial" x="167" y="88">Max: 70.0 km</text><text dominant-baseline="hanging" fill="#FFFFFF" style="font-size:10.0px; font-family:Arial;" x="10" y="30">2019</text><text dominant-baseline="hanging" fill="#FFFFFF" style="font-size:4.125px; font-family:Arial;" x="175" y="35">1371.0 km</text><text fill="#FFFFFF" style="font-size:2.5px; font-family:Arial" x="10.0" y="44">Jan</text><text fill="#FFFFFF" style="font-size:2.5px; font-family:Arial" x="25.5" y="44">Feb</text><text fill="#FFFFFF" style="font-size:2.5px; font-family:Arial" x="41.0" y="44">Mar</text><text fill="#FFFFFF" style="font-size:2.5px; font-family:Arial" x="56.5" y="44">Apr</text><text fill="#FFFFFF" style="font-size:2.5px; font-family:Arial" x="72.0" y="44">May</text><text fill="#FFFFFF" style="font-size:2.5px; font-family:Arial" x="87.5" y="44">Jun</text><text fill="#FFFFFF" style="font-size:2.5px; font-family:Arial" x="103.0" y="44">Jul</text><text fill="#FFFFFF" style="font-size:2.5px; font-family:Arial" x="118.5" y="44">Aug</text><text fill="#FFFFFF" style="font-size:2.5px; font-family:Arial" x="134.0" y="44">Sep</text><text fill="#FFFFFF" style="font-size:2.5px; font-family:Arial" x="149.5" y="44">Oct</text><text fill="#FFFFFF" style="font-size:2.5px; font-family:Arial" x="165.0" y="44">Nov</text><text fill="#FFFFFF" style="font-size:2.5px; font-family:Arial" x="180.5" y="44">Dec</text><rect fill="#444444" height="2.6" width="2.6" x="10.0" y="45.5"><title>2018-12-31</title></rect><rect fill="#444444" height="2.6" width="2.6" x="10.0" y="49.0"><title>2019-01-01</title></rect><rect fill="#444444" height="2.6" width="2.6" x="10.0" y="52.5"><title>2019-01-02</title></rect><rect fill="#444444" height="2.6" width="2.6" x="10.0" y="56.0"><title>2019-01-03</title></rect><rect fill="#444444" height="2.6" width="2.6" x="10.0" y="59.5"><title>2019-01-04</title></rect><rect fill="#444444" height="2.6" width="2.6" x="10.0" y="63.0"><title>2019-01-05</title></rect><rect fill="#444444" height="2.6" width="2.6" x="10.0" y="66.5"><title>2019-01-06</title></rect><rect fill="#444444" height="2.6" width="2.6" x="13.5" y="45.5"><title>2019-01-07</title></rect><rect fill="#444444" height="2.6" width="2.6" x="13.5" y="49.0"><title>2019-01-08</title></rect><rect fill="#444444" height="2.6" width="2.6" x="13.5" y="52.5"><title>2019-01-09</title></rect><rect fill="#444444" height="2.6" width="2.6" x="13.5" y="56.0"><title>2019-01-10</title></rect><rect fill="#444444" height="2.6" width="2.6" x="13.5" y="59.5"><title>2019-01-11</title></rect><rect fill="#444444" height="2.6" width="2.6" x="13.5" y="63.0"><title>2019-01-12</title></rect><rect fill="#444444" height="2.6" width="2.6" x="13.5" y="66.5"><title>2019-01-13</title></rect><rect fill="#444444" height="2.6" width="2.6" x="17.0" y="45.5"><title>2019-01-14</title></rect><rect fill="#444444" height="2.6" width="2.6" x="17.0" y="49.0"><title>2019-01-15</title></rect><rect fill="#444444" height="2.6" width="2.6" x="17.0" y="52.5"><title>2019-01-16</title></rect><rect fill="#444444" height="2.6" width="2.6" x="17.0" y="56.0"><title>2019-01-17</title></rect><rect fill="#444444" height="2.6" width="2.6" x="17.0" y="59.5"><title>2019-01-18</title></rect><rect fill="#444444" height="2.6" width="2.6" x="17.0" y="63.0"><title>2019-01-19</title></rect><rect fill="#444444" height="2.6" width="2.6" x="17.0" y="66.5"><title>2019-01-20</title></rect><rect fill="#444444" height="2.6" width="2.6" x="20.5" y="45.5"><title>2019-01-21</title></rect><rect fill="#444444" height="2.6" width="2.6" x="20.5" y="49.0"><title>2019-01-22</title></rect><rect fill="#444444" height="2.6" width="2.6" x="20.5" y="52.5"><title>2019-01-23</title></rect><rect fill="#444444" height="2.6" width="2.6" x="20.5" y="56.0"><title>2019-01-24</title></rect><rect fill="#444444" height="2.6" width="2.6" x="20.5" y="59.5"><title>2019-01-25</title></rect><rect fill="#444444" height="2.6" width="2.6" x="20.5" y="63.0"><title>2019-01-26</title></rect><rect fill="#444444" height="2.6" width="2.6" x="20.5" y="66.5"><title>2019-01-27</title></rect><rect fill="#444444" height="2.6" width="2.6" x="24.0" y="45.5"><title>2019-01-28</title></rect><rect fill="#444444" height="2.6" width="2.6" x="24.0" y="49.0"><title>2019-01-29</title></rect><rect fill="#444444" height="2.6" width="2.6" x="24.0" y="52.5"><title>2019-01-30</title></rect><rect fill="#444444" height="2.6" width="2.6" x="24.0" y="56.0"><title>2019-01-31</title></rect><rect fill="#444444" height="2.6" width="2.6" x="24.0" y="59.5"><title>2019-02-01</title></rect><rect fill="#444444" height="2.6" width="2.6" x="24.0" y="63.0"><title>2019-02-02</title></rect><rect fill="#444444" height="2.6" width="2.6" x="24.0" y="66.5"><title>2019-02-03</title></rect><rect fill="#444444" height="2.6" width="2.6" x="27.5" y="45.5"><title>2019-02-04</title></rect><rect fill="#444444" height="2.6" width="2.6" x="27.5" y="49.0"><title>2019-02-05</title></rect><rect fill="#444444" height="2.6" width="2.6" x="27.5" y="52.5"><title>2019-02-06</title></rect><rect fill="#444444" height="2.6" width="2.6" x="27.5" y="56.0"><title>2019-02-07</title></rect><rect fill="#444444" height="2.6" width="2.6" x="27.5" y="59.5"><title>2019-02-08</title></rect><rect fill="#444444" height="2.6" width="2.6" x="27.5" y="63.0"><title>2019-02-09</title></rect><rect fill="#444444" height="2.6" width="2.6" x="27.5" y="66.5"><title>2019-02-10</title></rect><rect fill="#444444" height="2.6" width="2.6" x="31.0" y="45.5"><title>2019-02-11</title></rect><rect fill="#444444" height="2.6" width="2.6" x="31.0" y="49.0"><title>2019-02-12</title></rect><rect fill="#444444" height="2.6" width="2.6" x="31.0" y="52.5"><title>2019-02-13</title></rect><rect fill="#444444" height="2.6" width="2.6" x="31.0" y="56.0"><title>2019-02-14</title></rect><rect fill="#444444" height="2.6" width="2.6" x="31.0" y="59.5"><title>2019-02-15</title></rect><rect fill="#444444" height="2.6" width="2.6" x="31.0" y="63.0"><title>2019-02-16</title></rect><rect fill="#444444" height="2.6" width="2.6" x="31.0" y="66.5"><title>2019-02-17</title></rect><rect fill="#444444" height="2.6" width="2.6" x="34.5" y="45.5"><title>2019-02-18</title></rect><rect fill="#444444" height="2.6" width="2.6" x="34.5" y="49.0"><title>2019-02-19</title></rect><rect fill="#444444" height="2.6" width="2.6" x="34.5" y="52.5"><title>2019-02-20</title></rect><rect fill="#444444" height="2.6" width="2.6" x="34.5" y="56.0"><title>2019-02-21</title></rect><rect fill="#444444" height="2.6" width="2.6" x="34.5" y="59.5"><title>2019-02-22</title></rect><rect fill="#444444" height="2.6" width="2.6" x="34.5" y="63.0"><title>2019-02-23</title></rect><rect fill="#444444" height="2.6" width="2.6" x="34.5" y="66.5"><title>2019-02-24</title></rect><rect fill="#444444" height="2.6" width="2.6" x="38.0" y="45.5"><title>2019-02-25</title></rect><rect fill="#444444" height="2.6" width="2.6" x="38.0" y="49.0"><title>2019-02-26</title></rect><rect fill="#444444" height="2.6" width="2.6" x="38.0" y="52.5"><title>2019-02-27</title></rect><rect fill="#444444" height="2.6" width="2.6" x="38.0" y="56.0"><title>2019-02-28</title></rect><rect fill="#444444" height="2.6" width="2.6" x="38.0" y="59.5"><title>2019-03-01</title></rect><rect fill="#444444" height="2.6" width="2.6" x="38.0" y="63.0"><title>2019-03-02</title></rect><rect fill="#444444" height="2.6" width="2.6" x="38.0" y="66.5"><title>2019-03-03</title></rect><rect fill="#444444" height="2.6" width="2.6" x="41.5" y="45.5"><title>2019-03-04</title></rect><rect fill="#444444" height="2.6" width="2.6" x="41.5" y="49.0"><title>2019-03-05</title></rect><rect fill="#444444" height="2.6" width="2.6" x="41.5" y="52.5"><title>2019-03-06</title></rect><rect fill="#444444" height="2.6" width="2.6" x="41.5" y="56.0"><title>2019-03-07</title></rect><rect fill="#444444" height="2.6" width="2.6" x="41.5" y="59.5"><title>2019-03-08</title></rect><rect fill="#444444" height="2.6" width="2.6" x="41.5" y="63.0"><title>2019-03-09</title></rect><rect fill="#444444" height="2.6" width="2.6" x="41.5" y="66.5"><title>2019-03-10</title></rect><rect fill="#444444" height="2.6" width="2.6" x="45.0" y="45.5"><title>2019-03-11</title></rect><rect fill="#444444" height="2.6" width="2.6" x="45.0" y="49.0"><title>2019-03-12</title></rect><rect fill="#444444" height="2.6" width="2.6" x="45.0" y="52.5"><title>2019-03-13</title></rect><rect fill="#444444" height="2.6" width="2.6" x="45.0" y="56.0"><title>2019-03-14</title></rect><rect fill="#444444" height="2.6" width="2.6" x="45.0" y="59.5"><title>2019-03-15</title></rect><rect fill="#444444" height="2.6" width="2.6" x="45.0" y="63.0"><title>2019-03-16</title></rect><rect fill="#444444" height="2.6" width="2.6" x="45.0" y="66.5"><title>2019-03-17</title></rect><rect fill="#444444" height="2.6" width="2.6" x="48.5" y="45.5"><title>2019-03-18</title></rect><rect fill="#444444" height="2.6" width="2.6" x="48.5" y="49.0"><title>2019-03-19</title></rect><rect fill="#444444" height="2.6" width="2.6" x="48.5" y="52.5"><title>2019-03-20</title></rect><rect fill="#444444" height="2.6" width="2.6" x="48.5" y="56.0"><title>2019-03-21</title></rect><rect fill="#444444" height="2.6" width="2.6" x="48.5" y="59.5"><title>2019-03-22</title></rect><rect fill="#444444" height="2.6" width="2.6" x="48.5" y="63.0"><title>2019-03-23</title></rect><rect fill="#444444" height="2.6" width="2.6" x="48.5" y="66.5"><title>2019-03-24</title></rect><rect fill="#444444" height="2.6" width="2.6" x="52.0" y="45.5"><title>2019-03-25</title></rect><rect fill="#444444" height="2.6" width="2.6" x="52.0" y="49.0"><title>2019-03-26</title></rect><rect fill="#444444" height="2.6" width="2.6" x="52.0" y="52.5"><title>2019-03-27</title></rect><rect fill="#444444" height="2.6" width="2.6" x="52.0" y="56.0"><title>2019-03-28</title></rect><rect fill="#444444" height="2.6" width="2.6" x="52.0" y="59.5"><title>2019-03-29</title></rect><rect fill="#444444" height="2.6" width="2.6" x="52.0" y="63.0"><title>2019-03-30</title></rect><rect fill="#444444" height="2.6" width="2.6" x="52.0" y="66.5"><title>2019-03-31</title></rect><rect fill="#444444" height="2.6" width="2.6" x="55.5" y="45.5"><title>2019-04-01</title></rect><rect fill="#444444" height="2.6" width="2.6" x="55.5" y="49.0"><title>2019-04-02</title></rect><rect fill="#444444" height="2.6" width="2.6" x="55.5" y="52.5"><title>2019-04-03</title></rect><rect fill="#444444" height="2.6" width="2.6" x="55.5" y="56.0"><title>2019-04-04</title></rect><rect fill="#444444" height="2.6" width="2.6" x="55.5" y="59.5"><title>2019-04-05</title></rect><rect fill="#444444" height="2.6" width="2.6" x="55.5" y="63.0"><title>2019-04-06</title></rect><rect fill="#444444" height="2.6" width="2.6" x="55.5" y="66.5"><title>2019-04-07</title></rect><rect fill="#444444" height="2.6" width="2.6" x="59.0" y="45.5"><title>2019-04-08</title></rect><rect fill="#444444" height="2.6" width="2.6" x="59.0" y="49.0"><title>2019-04-09</title></rect><rect fill="#444444" height="2.6" width="2.6" x="59.0" y="52.5"><title>2019-04-10</title></rect><rect fill="#444444" height="2.6" width="2.6" x="59.0" y="56.0"><title>2019-04-11</title></rect><rect fill="#444444" height="2.6" width="2.6" x="59.0" y="59.5"><title>2019-04-12</title></rect><rect fill="#444444" height="2.6" width="2.6" x="59.0" y="63.0"><title>2019-04-13</title></rect><rect fill="#444444" height="2.6" width="2.6" x="59.0" y="66.5"><title>2019-04-14</title></rect><rect fill="#444444" height="2.6" width="2.6" x="62.5" y="45.5"><title>2019-04-15</title></rect><rect fill="#444444" height="2.6" width="2.6" x="62.5" y="49.0"><title>2019-04-16</title></rect><rect fill="#444444" height="2.6" width="2.6" x="62.5" y="52.5"><title>2019-04-17</title></rect><rect fill="#444444" height="2.6" width="2.6" x="62.5" y="56.0"><title>2019-04-18</title></rect><rect fill="#444444" height="2.6" width="2.6" x="62.5" y="59.5"><title>2019-04-19</title></rect><rect fill="#444444" height="2.6" width="2.6" x="62.5" y="63.0"><title>2019-04-20</title></rect><rect fill="#444444" height="2.6" width="2.6" x="62.5" y="66.5"><title>2019-04-21</title></rect><rect fill="#4dd2ff" height="2.6" width="2.6" x="66.0" y="45.5"><title>2019-04-22 7.3 km</title></rect><rect fill="#4dd2ff" height="2.6" width="2.6" x="66.0" y="49.0"><title>2019-04-23 9.7 km</title></rect><rect fill="#ffde00" height="2.6" width="2.6" x="66.0" y="52.5"><title>2019-04-24 10.1 km</title></rect><rect fill="#4dd2ff" height="2.6" width="2.6" x="66.0" y="56.0"><title>2019-04-25 8.6 km</title></rect><rect fill="#4dd2ff" height="2.6" width="2.6" x="66.0" y="59.5"><title>2019-04-26 3.7 km</title></rect><rect fill="#ffde00" height="2.6" width="2.6" x="66.0" y="63.0"><title>2019-04-27 10.0 km</title></rect><rect fill="#4dd2ff" height="2.6" width="2.6" x="66.0" y="66.5"><title>2019-04-28 3.6 km</title></rect><rect fill="#ffd100" height="2.6" width="2.6" x="69.5" y="45.5"><title>2019-04-29 13.5 km</title></rect><rect fill="#444444" height="2.6" width="2.6" x="69.5" y="49.0"><title>2019-04-30</title></rect><rect fill="red" height="2.6" width="2.6" x="69.5" y="52.5"><title>2019-05-01 39.0 km</title></rect><rect fill="#4dd2ff" height="2.6" width="2.6" x="69.5" y="56.0"><title>2019-05-02 1.6 km</title></rect><rect fill="#444444" height="2.6" width="2.6" x="69.5" y="59.5"><title>2019-05-03</title></rect><rect fill="#444444" height="2.6" width="2.6" x="69.5" y="63.0"><title>2019-05-04</title></rect><rect fill="#444444" height="2.6" width="2.6" x="69.5" y="66.5"><title>2019-05-05</title></rect><rect fill="#444444" height="2.6" width="2.6" x="73.0" y="45.5"><title>2019-05-06</title></rect><rect fill="#4dd2ff" height="2.6" width="2.6" x="73.0" y="49.0"><title>2019-05-07 3.7 km</title></rect><rect fill="#4dd2ff" height="2.6" width="2.6" x="73.0" y="52.5"><title>2019-05-08 9.9 km</title></rect><rect fill="#ffde00" height="2.6" width="2.6" x="73.0" y="56.0"><title>2019-05-09 10.1 km</title></rect><rect fill="#4dd2ff" height="2.6" width="2.6" x="73.0" y="59.5"><title>2019-05-10 7.3 km</title></rect><rect fill="red" height="2.6" width="2.6" x="73.0" y="63.0"><title>2019-05-11 30.2 km</title></rect><rect fill="#ffc100" height="2.6" width="2.6" x="73.0" y="66.5"><title>2019-05-12 17.9 km</title></rect><rect fill="#4dd2ff" height="2.6" width="2.6" x="76.5" y="45.5"><title>2019-05-13 9.9 km</title></rect><rect fill="#4dd2ff" height="2.6" width="2.6" x="76.5" y="49.0"><title>2019-05-14 9.0 km</title></rect><rect fill="#444444" height="2.6" width="2.6" x="76.5" y="52.5"><title>2019-05-15</title></rect><rect fill="#444444" height="2.6" width="2.6" x="76.5" y="56.0"><title>2019-05-16</title></rect><rect fill="#4dd2ff" height="2.6" width="2.6" x="76.5" y="59.5"><title>2019-05-17 7.0 km</title></rect><rect fill="red" height="2.6" width="2.6" x="76.5" y="63.0"><title>2019-05-18 22.4 km</title></rect><rect fill="#444444" height="2.6" width="2.6" x="76.5" y="66.5"><title>2019-05-19</title></rect><rect fill="#4dd2ff" height="2.6" width="2.6" x="80.0" y="45.5"><title>2019-05-20 3.7 km</title></rect><rect fill="#ffc600" height="2.6" width="2.6" x="80.0" y="49.0"><title>2019-05-21 16.7 km</title></rect><rect fill="#444444" height="2.6" width="2.6" x="80.0" y="52.5"><title>2019-05-22</title></rect><rect fill="#4dd2ff" height="2.6" width="2.6" x="80.0" y="56.0"><title>2019-05-23 6.0 km</title></rect><rect fill="#4dd2ff" height="2.6" width="2.6" x="80.0" y="59.5"><title>2019-05-24 5.1 km</title></rect><rect fill="#4dd2ff" height="2.6" width="2.6" x="80.0" y="63.0"><title>2019-05-25 3.8 km</title></rect><rect fill="#444444" height="2.6" width="2.6" x="80.0" y="66.5"><title>2019-05-26</title></rect><rect fill="#444444" height="2.6" width="2.6" x="83.5" y="45.5"><title>2019-05-27</title></rect><rect fill="#4dd2ff" height="2.6" width="2.6" x="83.5" y="49.0"><title>2019-05-28 5.5 km</title></rect><rect fill="#444444" height="2.6" width="2.6" x="83.5" y="52.5"><title>2019-05-29</title></rect><rect fill="#ffdd00" height="2.6" width="2.6" x="83.5" y="56.0"><title>2019-05-30 10.4 km</title></rect><rect fill="#444444" height="2.6" width="2.6" x="83.5" y="59.5"><title>2019-05-31</title></rect><rect fill="red" height="2.6" width="2.6" x="83.5" y="63.0"><title>2019-06-01 21.3 km</title></rect><rect fill="#444444" height="2.6" width="2.6" x="83.5" y="66.5"><title>2019-06-02</title></rect><rect fill="#444444" height="2.6" width="2.6" x="87.0" y="45.5"><title>2019-06-03</title></rect><rect fill="#4dd2ff" height="2.6" width="2.6" x="87.0" y="49.0"><title>2019-06-04 9.6 km</title></rect><rect fill="#4dd2ff" height="2.6" width="2.6" x="87.0" y="52.5"><title>2019-06-05 6.8 km</title></rect><rect fill="#444444" height="2.6" width="2.6" x="87.0" y="56.0"><title>2019-06-06</title></rect><rect fill="#444444" height="2.6" width="2.6" x="87.0" y="59.5"><title>2019-06-07</title></rect><rect fill="#444444" height="2.6" width="2.6" x="87.0" y="63.0"><title>2019-06-08</title></rect><rect fill="#ffde00" height="2.6" width="2.6" x="87.0" y="66.5"><title>2019-06-09 10.1 km</title></rect><rect fill="#444444" height="2.6" width="2.6" x="90.5" y="45.5"><title>2019-06-10</title></rect><rect fill="#4dd2ff" height="2.6" width="2.6" x="90.5" y="49.0"><title>2019-06-11 3.8 km</title></rect><rect fill="#ffde00" height="2.6" width="2.6" x="90.5" y="52.5"><title>2019-06-12 10.0 km</title></rect><rect fill="#444444" height="2.6" width="2.6" x="90.5" y="56.0"><title>2019-06-13</title></rect><rect fill="#444444" height="2.6" width="2.6" x="90.5" y="59.5"><title>2019-06-14</title></rect><rect fill="red" height="2.6" width="2.6" x="90.5" y="63.0"><title>2019-06-15 21.6 km</title></rect><rect fill="#4dd2ff" height="2.6" width="2.6" x="90.5" y="66.5"><title>2019-06-16 6.0 km</title></rect><rect fill="#444444" height="2.6" width="2.6" x="94.0" y="45.5"><title>2019-06-17</title></rect><rect fill="#444444" height="2.6" width="2.6" x="94.0" y="49.0"><title>2019-06-18</title></rect><rect fill="#4dd2ff" height="2.6" width="2.6" x="94.0" y="52.5"><title>2019-06-19 6.1 km</title></rect><rect fill="#444444" height="2.6" width="2.6" x="94.0" y="56.0"><title>2019-06-20</title></rect><rect fill="#444444" height="2.6" width="2.6" x="94.0" y="59.5"><title>2019-06-21</title></rect><rect fill="#4dd2ff" height="2.6" width="2.6" x="94.0" y="63.0"><title>2019-06-22 8.4 km</title></rect><rect fill="#ffde00" height="2.6" width="2.6" x="94.0" y="66.5"><title>2019-06-23 10.1 km</title></rect><rect fill="red" height="2.6" width="2.6" x="97.5" y="45.5"><title>2019-06-24 23.0 km</title></rect><rect fill="red" height="2.6" width="2.6" x="97.5" y="49.0"><title>2019-06-25 29.9 km</title></rect><rect fill="#4dd2ff" height="2.6" width="2.6" x="97.5" y="52.5"><title>2019-06-26 3.8 km</title></rect><rect fill="red" height="2.6" width="2.6" x="97.5" y="56.0"><title>2019-06-27 21.1 km</title></rect><rect fill="#4dd2ff" height="2.6" width="2.6" x="97.5" y="59.5"><title>2019-06-28 7.4 km</title></rect><rect fill="red" height="2.6" width="2.6" x="97.5" y="63.0"><title>2019-06-29 70.0 km</title></rect><rect fill="#444444" height="2.6" width="2.6" x="97.5" y="66.5"><title>2019-06-30</title></rect><rect fill="#444444" height="2.6" width="2.6" x="101.0" y="45.5"><title>2019-07-01</title></rect><rect fill="#4dd2ff" height="2.6" width="2.6" x="101.0" y="49.0"><title>2019-07-02 3.7 km</title></rect><rect fill="#444444" height="2.6" width="2.6" x="101.0" y="52.5"><title>2019-07-03</title></rect><rect fill="#444444" height="2.6" width="2.6" x="101.0" y="56.0"><title>2019-07-04</title></rect><rect fill="red" height="2.6" width="2.6" x="101.0" y="59.5"><title>2019-07-05 21.1 km</title></rect><rect fill="#4dd2ff" height="2.6" width="2.6" x="101.0" y="63.0"><title>2019-07-06 3.8 km</title></rect><rect fill="#4dd2ff" height="2.6" width="2.6" x="101.0" y="66.5"><title>2019-07-07 2.0 km</title></rect><rect fill="#4dd2ff" height="2.6" width="2.6" x="104.5" y="45.5"><title>2019-07-08 4.2 km</title></rect><rect fill="#444444" height="2.6" width="2.6" x="104.5" y="49.0"><title>2019-07-09</title></rect><rect fill="#444444" height="2.6" width="2.6" x="104.5" y="52.5"><title>2019-07-10</title></rect><rect fill="#444444" height="2.6" width="2.6" x="104.5" y="56.0"><title>2019-07-11</title></rect><rect fill="#444444" height="2.6" width="2.6" x="104.5" y="59.5"><title>2019-07-12</title></rect><rect fill="#4dd2ff" height="2.6" width="2.6" x="104.5" y="63.0"><title>2019-07-13 1.1 km</title></rect><rect fill="red" height="2.6" width="2.6" x="104.5" y="66.5"><title>2019-07-14 22.2 km</title></rect><rect fill="#444444" height="2.6" width="2.6" x="108.0" y="45.5"><title>2019-07-15</title></rect><rect fill="#444444" height="2.6" width="2.6" x="108.0" y="49.0"><title>2019-07-16</title></rect><rect fill="#4dd2ff" height="2.6" width="2.6" x="108.0" y="52.5"><title>2019-07-17 3.8 km</title></rect><rect fill="#444444" height="2.6" width="2.6" x="108.0" y="56.0"><title>2019-07-18</title></rect><rect fill="#444444" height="2.6" width="2.6" x="108.0" y="59.5"><title>2019-07-19</title></rect><rect fill="#444444" height="2.6" width="2.6" x="108.0" y="63.0"><title>2019-07-20</title></rect><rect fill="#4dd2ff" height="2.6" width="2.6" x="108.0" y="66.5"><title>2019-07-21 6.3 km</title></rect><rect fill="#444444" height="2.6" width="2.6" x="111.5" y="45.5"><title>2019-07-22</title></rect><rect fill="#444444" height="2.6" width="2.6" x="111.5" y="49.0"><title>2019-07-23</title></rect><rect fill="#444444" height="2.6" width="2.6" x="111.5" y="52.5"><title>2019-07-24</title></rect><rect fill="#444444" height="2.6" width="2.6" x="111.5" y="56.0"><title>2019-07-25</title></rect><rect fill="#444444" height="2.6" width="2.6" x="111.5" y="59.5"><title>2019-07-26</title></rect><rect fill="#4dd2ff" height="2.6" width="2.6" x="111.5" y="63.0"><title>2019-07-27 5.1 km</title></rect><rect fill="#444444" height="2.6" width="2.6" x="111.5" y="66.5"><title>2019-07-28</title></rect><rect fill="#444444" height="2.6" width="2.6" x="115.0" y="45.5"><title>2019-07-29</title></rect><rect fill="#444444" height="2.6" width="2.6" x="115.0" y="49.0"><title>2019-07-30</title></rect><rect fill="#444444" height="2.6" width="2.6" x="115.0" y="52.5"><title>2019-07-31</title></rect><rect fill="#444444" height="2.6" width="2.6" x="115.0" y="56.0"><title>2019-08-01</title></rect><rect fill="#444444" height="2.6" width="2.6" x="115.0" y="59.5"><title>2019-08-02</title></rect><rect fill="#ffde00" height="2.6" width="2.6" x="115.0" y="63.0"><title>2019-08-03 10.0 km</title></rect><rect fill="#444444" height="2.6" width="2.6" x="115.0" y="66.5"><title>2019-08-04</title></rect><rect fill="#4dd2ff" height="2.6" width="2.6" x="118.5" y="45.5"><title>2019-08-05 7.2 km</title></rect><rect fill="#4dd2ff" height="2.6" width="2.6" x="118.5" y="49.0"><title>2019-08-06 7.4 km</title></rect><rect fill="#4dd2ff" height="2.6" width="2.6" x="118.5" y="52.5"><title>2019-08-07 8.7 km</title></rect><rect fill="red" height="2.6" width="2.6" x="118.5" y="56.0"><title>2019-08-08 40.4 km</title></rect><rect fill="#4dd2ff" height="2.6" width="2.6" x="118.5" y="59.5"><title>2019-08-09 3.7 km</title></rect><rect fill="#444444" height="2.6" width="2.6" x="118.5" y="63.0"><title>2019-08-10</title></rect><rect fill="#ffde00" height="2.6" width="2.6" x="118.5" y="66.5"><title>2019-08-11 10.0 km</title></rect><rect fill="#4dd2ff" height="2.6" width="2.6" x="122.0" y="45.5"><title>2019-08-12 8.8 km</title></rect><rect fill="#4dd2ff" height="2.6" width="2.6" x="122.0" y="49.0"><title>2019-08-13 4.4 km</title></rect><rect fill="#ffd200" height="2.6" width="2.6" x="122.0" y="52.5"><title>2019-08-14 13.4 km</title></rect><rect fill="#4dd2ff" height="2.6" width="2.6" x="122.0" y="56.0"><title>2019-08-15 4.4 km</title></rect><rect fill="#444444" height="2.6" width="2.6" x="122.0" y="59.5"><title>2019-08-16</title></rect><rect fill="red" height="2.6" width="2.6" x="122.0" y="63.0"><title>2019-08-17 21.2 km</title></rect><rect fill="#444444" height="2.6" width="2.6" x="122.0" y="66.5"><title>2019-08-18</title></rect><rect fill="#4dd2ff" height="2.6" width="2.6" x="125.5" y="45.5"><title>2019-08-19 9.5 km</title></rect><rect fill="#4dd2ff" height="2.6" width="2.6" x="125.5" y="49.0"><title>2019-08-20 8.5 km</title></rect><rect fill="#444444" height="2.6" width="2.6" x="125.5" y="52.5"><title>2019-08-21</title></rect><rect fill="#444444" height="2.6" width="2.6" x="125.5" y="56.0"><title>2019-08-22</title></rect><rect fill="#444444" height="2.6" width="2.6" x="125.5" y="59.5"><title>2019-08-23</title></rect><rect fill="#444444" height="2.6" width="2.6" x="125.5" y="63.0"><title>2019-08-24</title></rect><rect fill="#4dd2ff" height="2.6" width="2.6" x="125.5" y="66.5"><title>2019-08-25 6.2 km</title></rect><rect fill="#444444" height="2.6" width="2.6" x="129.0" y="45.5"><title>2019-08-26</title></rect><rect fill="#444444" height="2.6" width="2.6" x="129.0" y="49.0"><title>2019-08-27</title></rect><rect fill="#444444" height="2.6" width="2.6" x="129.0" y="52.5"><title>2019-08-28</title></rect><rect fill="#444444" height="2.6" width="2.6" x="129.0" y="56.0"><title>2019-08-29</title></rect><rect fill="#444444" height="2.6" width="2.6" x="129.0" y="59.5"><title>2019-08-30</title></rect><rect fill="#444444" height="2.6" width="2.6" x="129.0" y="63.0"><title>2019-08-31</title></rect><rect fill="#444444" height="2.6" width="2.6" x="129.0" y="66.5"><title>2019-09-01</title></rect><rect fill="#444444" height="2.6" width="2.6" x="132.5" y="45.5"><title>2019-09-02</title></rect><rect fill="#444444" height="2.6" width="2.6" x="132.5" y="49.0"><title>2019-09-03</title></rect><rect fill="#444444" height="2.6" width="2.6" x="132.5" y="52.5"><title>2019-09-04</title></rect><rect fill="#444444" height="2.6" width="2.6" x="132.5" y="56.0"><title>2019-09-05</title></rect><rect fill="#444444" height="2.6" width="2.6" x="132.5" y="59.5"><title>2019-09-06</title></rect><rect fill="red" height="2.6" width="2.6" x="132.5" y="63.0"><title>2019-09-07 22.7 km</title></rect><rect fill="#ffde00" height="2.6" width="2.6" x="132.5" y="66.5"><title>2019-09-08 10.0 km</title></rect><rect fill="#4dd2ff" height="2.6" width="2.6" x="136.0" y="45.5"><title>2019-09-09 7.6 km</title></rect><rect fill="#444444" height="2.6" width="2.6" x="136.0" y="49.0"><title>2019-09-10</title></rect><rect fill="#444444" height="2.6" width="2.6" x="136.0" y="52.5"><title>2019-09-11</title></rect><rect fill="#444444" height="2.6" width="2.6" x="136.0" y="56.0"><title>2019-09-12</title></rect><rect fill="#444444" height="2.6" width="2.6" x="136.0" y="59.5"><title>2019-09-13</title></rect><rect fill="#444444" height="2.6" width="2.6" x="136.0" y="63.0"><title>2019-09-14</title></rect><rect fill="red" height="2.6" width="2.6" x="136.0" y="66.5"><title>2019-09-15 21.2 km</title></rect><rect fill="#444444" height="2.6" width="2.6" x="139.5" y="45.5"><title>2019-09-16</title></rect><rect fill="#444444" height="2.6" width="2.6" x="139.5" y="49.0"><title>2019-09-17</title></rect><rect fill="#ffde00" height="2.6" width="2.6" x="139.5" y="52.5"><title>2019-09-18 10.0 km</title></rect><rect fill="#444444" height="2.6" width="2.6" x="139.5" y="56.0"><title>2019-09-19</title></rect><rect fill="#444444" height="2.6" width="2.6" x="139.5" y="59.5"><title>2019-09-20</title></rect><rect fill="#444444" height="2.6" width="2.6" x="139.5" y="63.0"><title>2019-09-21</title></rect><rect fill="#444444" height="2.6" width="2.6" x="139.5" y="66.5"><title>2019-09-22</title></rect><rect fill="#ffde00" height="2.6" width="2.6" x="143.0" y="45.5"><title>2019-09-23 10.0 km</title></rect><rect fill="#444444" height="2.6" width="2.6" x="143.0" y="49.0"><title>2019-09-24</title></rect><rect fill="#444444" height="2.6" width="2.6" x="143.0" y="52.5"><title>2019-09-25</title></rect><rect fill="#444444" height="2.6" width="2.6" x="143.0" y="56.0"><title>2019-09-26</title></rect><rect fill="#ffd300" height="2.6" width="2.6" x="143.0" y="59.5"><title>2019-09-27 13.0 km</title></rect><rect fill="#4dd2ff" height="2.6" width="2.6" x="143.0" y="63.0"><title>2019-09-28 5.0 km</title></rect><rect fill="#444444" height="2.6" width="2.6" x="143.0" y="66.5"><title>2019-09-29</title></rect><rect fill="#444444" height="2.6" width="2.6" x="146.5" y="45.5"><title>2019-09-30</title></rect><rect fill="#444444" height="2.6" width="2.6" x="146.5" y="49.0"><title>2019-10-01</title></rect><rect fill="#444444" height="2.6" width="2.6" x="146.5" y="52.5"><title>2019-10-02</title></rect><rect fill="#444444" height="2.6" width="2.6" x="146.5" y="56.0"><title>2019-10-03</title></rect><rect fill="#ffde00" height="2.6" width="2.6" x="146.5" y="59.5"><title>2019-10-04 10.0 km</title></rect><rect fill="#444444" height="2.6" width="2.6" x="146.5" y="63.0"><title>2019-10-05</title></rect><rect fill="#ffde00" height="2.6" width="2.6" x="146.5" y="66.5"><title>2019-10-06 10.0 km</title></rect><rect fill="#4dd2ff" height="2.6" width="2.6" x="150.0" y="45.5"><title>2019-10-07 8.1 km</title></rect><rect fill="#444444" height="2.6" width="2.6" x="150.0" y="49.0"><title>2019-10-08</title></rect><rect fill="#444444" height="2.6" width="2.6" x="150.0" y="52.5"><title>2019-10-09</title></rect><rect fill="#444444" height="2.6" width="2.6" x="150.0" y="56.0"><title>2019-10-10</title></rect><rect fill="#444444" height="2.6" width="2.6" x="150.0" y="59.5"><title>2019-10-11</title></rect><rect fill="#ffde00" height="2.6" width="2.6" x="150.0" y="63.0"><title>2019-10-12 10.0 km</title></rect><rect fill="#ffde00" height="2.6" width="2.6" x="150.0" y="66.5"><title>2019-10-13 10.0 km</title></rect><rect fill="#444444" height="2.6" width="2.6" x="153.5" y="45.5"><title>2019-10-14</title></rect><rect fill="#444444" height="2.6" width="2.6" x="153.5" y="49.0"><title>2019-10-15</title></rect><rect fill="#444444" height="2.6" width="2.6" x="153.5" y="52.5"><title>2019-10-16</title></rect><rect fill="#444444" height="2.6" width="2.6" x="153.5" y="56.0"><title>2019-10-17</title></rect><rect fill="#444444" height="2.6" width="2.6" x="153.5" y="59.5"><title>2019-10-18</title></rect><rect fill="#444444" height="2.6" width="2.6" x="153.5" y="63.0"><title>2019-10-19</title></rect><rect fill="red" height="2.6" width="2.6" x="153.5" y="66.5"><title>2019-10-20 21.1 km</title></rect><rect fill="#444444" height="2.6" width="2.6" x="157.0" y="45.5"><title>2019-10-21</title></rect><rect fill="#444444" height="2.6" width="2.6" x="157.0" y="49.0"><title>2019-10-22</title></rect><rect fill="#444444" height="2.6" width="2.6" x="157.0" y="52.5"><title>2019-10-23</title></rect><rect fill="#444444" height="2.6" width="2.6" x="157.0" y="56.0"><title>2019-10-24</title></rect><rect fill="#444444" height="2.6" width="2.6" x="157.0" y="59.5"><title>2019-10-25</title></rect><rect fill="red" height="2.6" width="2.6" x="157.0" y="63.0"><title>2019-10-26 42.3 km</title></rect><rect fill="#444444" height="2.6" width="2.6" x="157.0" y="66.5"><title>2019-10-27</title></rect><rect fill="#444444" height="2.6" width="2.6" x="160.5" y="45.5"><title>2019-10-28</title></rect><rect fill="#444444" height="2.6" width="2.6" x="160.5" y="49.0"><title>2019-10-29</title></rect><rect fill="#4dd2ff" height="2.6" width="2.6" x="160.5" y="52.5"><title>2019-10-30 8.6 km</title></rect><rect fill="#444444" height="2.6" width="2.6" x="160.5" y="56.0"><title>2019-10-31</title></rect><rect fill="#444444" height="2.6" width="2.6" x="160.5" y="59.5"><title>2019-11-01</title></rect><rect fill="#444444" height="2.6" width="2.6" x="160.5" y="63.0"><title>2019-11-02</title></rect><rect fill="#444444" height="2.6" width="2.6" x="160.5" y="66.5"><title>2019-11-03</title></rect><rect fill="#444444" height="2.6" width="2.6" x="164.0" y="45.5"><title>2019-11-04</title></rect><rect fill="#444444" height="2.6" width="2.6" x="164.0" y="49.0"><title>2019-11-05</title></rect><rect fill="#444444" height="2.6" width="2.6" x="164.0" y="52.5"><title>2019-11-06</title></rect><rect fill="#4dd2ff" height="2.6" width="2.6" x="164.0" y="56.0"><title>2019-11-07 1.2 km</title></rect><rect fill="#444444" height="2.6" width="2.6" x="164.0" y="59.5"><title>2019-11-08</title></rect><rect fill="#444444" height="2.6" width="2.6" x="164.0" y="63.0"><title>2019-11-09</title></rect><rect fill="#444444" height="2.6" width="2.6" x="164.0" y="66.5"><title>2019-11-10</title></rect><rect fill="#444444" height="2.6" width="2.6" x="167.5" y="45.5"><title>2019-11-11</title></rect><rect fill="#4dd2ff" height="2.6" width="2.6" x="167.5" y="49.0"><title>2019-11-12 3.5 km</title></rect><rect fill="#4dd2ff" height="2.6" width="2.6" x="167.5" y="52.5"><title>2019-11-13 6.5 km</title></rect><rect fill="#444444" height="2.6" width="2.6" x="167.5" y="56.0"><title>2019-11-14</title></rect><rect fill="#444444" height="2.6" width="2.6" x="167.5" y="59.5"><title>2019-11-15</title></rect><rect fill="red" height="2.6" width="2.6" x="167.5" y="63.0"><title>2019-11-16 20.1 km</title></rect><rect fill="#4dd2ff" height="2.6" width="2.6" x="167.5" y="66.5"><title>2019-11-17 4.2 km</title></rect><rect fill="#ffdd00" height="2.6" width="2.6" x="171.0" y="45.5"><title>2019-11-18 10.3 km</title></rect><rect fill="#444444" height="2.6" width="2.6" x="171.0" y="49.0"><title>2019-11-19</title></rect><rect fill="#ffdd00" height="2.6" width="2.6" x="171.0" y="52.5"><title>2019-11-20 10.2 km</title></rect><rect fill="#4dd2ff" height="2.6" width="2.6" x="171.0" y="56.0"><title>2019-11-21 9.7 km</title></rect><rect fill="#ffdc00" height="2.6" width="2.6" x="171.0" y="59.5"><title>2019-11-22 10.7 km</title></rect><rect fill="#ffba00" height="2.6" width="2.6" x="171.0" y="63.0"><title>2019-11-23 19.8 km</title></rect><rect fill="#ffde00" height="2.6" width="2.6" x="171.0" y="66.5"><title>2019-11-24 10.0 km</title></rect><rect fill="#ffdd00" height="2.6" width="2.6" x="174.5" y="45.5"><title>2019-11-25 10.3 km</title></rect><rect fill="#ffc700" height="2.6" width="2.6" x="174.5" y="49.0"><title>2019-11-26 16.2 km</title></rect><rect fill="#4dd2ff" height="2.6" width="2.6" x="174.5" y="52.5"><title>2019-11-27 6.7 km</title></rect><rect fill="#4dd2ff" height="2.6" width="2.6" x="174.5" y="56.0"><title>2019-11-28 9.7 km</title></rect><rect fill="#444444" height="2.6" width="2.6" x="174.5" y="59.5"><title>2019-11-29</title></rect><rect fill="#ffda00" height="2.6" width="2.6" x="174.5" y="63.0"><title>2019-11-30 11.1 km</title></rect><rect fill="#444444" height="2.6" width="2.6" x="174.5" y="66.5"><title>2019-12-01</title></rect><rect fill="#444444" height="2.6" width="2.6" x="178.0" y="45.5"><title>2019-12-02</title></rect><rect fill="#444444" height="2.6" width="2.6" x="178.0" y="49.0"><title>2019-12-03</title></rect><rect fill="#ffc200" height="2.6" width="2.6" x="178.0" y="52.5"><title>2019-12-04 17.8 km</title></rect><rect fill="#4dd2ff" height="2.6" width="2.6" x="178.0" y="56.0"><title>2019-12-05 3.4 km</title></rect><rect fill="#4dd2ff" height="2.6" width="2.6" x="178.0" y="59.5"><title>2019-12-06 9.5 km</title></rect><rect fill="#ffd600" height="2.6" width="2.6" x="178.0" y="63.0"><title>2019-12-07 12.2 km</title></rect><rect fill="#ffc800" height="2.6" width="2.6" x="178.0" y="66.5"><title>2019-12-08 15.9 km</title></rect><rect fill="#4dd2ff" height="2.6" width="2.6" x="181.5" y="45.5"><title>2019-12-09 1.5 km</title></rect><rect fill="red" height="2.6" width="2.6" x="181.5" y="49.0"><title>2019-12-10 21.9 km</title></rect><rect fill="#4dd2ff" height="2.6" width="2.6" x="181.5" y="52.5"><title>2019-12-11 3.6 km</title></rect><rect fill="#4dd2ff" height="2.6" width="2.6" x="181.5" y="56.0"><title>2019-12-12 3.6 km</title></rect><rect fill="#444444" height="2.6" width="2.6" x="181.5" y="59.5"><title>2019-12-13</title></rect><rect fill="red" height="2.6" width="2.6" x="181.5" y="63.0"><title>2019-12-14 23.0 km</title></rect><rect fill="#ffd700" height="2.6" width="2.6" x="181.5" y="66.5"><title>2019-12-15 12.0 km</title></rect><rect fill="#4dd2ff" height="2.6" width="2.6" x="185.0" y="45.5"><title>2019-12-16 3.4 km</title></rect><rect fill="#4dd2ff" height="2.6" width="2.6" x="185.0" y="49.0"><title>2019-12-17 6.0 km</title></rect><rect fill="#444444" height="2.6" width="2.6" x="185.0" y="52.5"><title>2019-12-18</title></rect><rect fill="#444444" height="2.6" width="2.6" x="185.0" y="56.0"><title>2019-12-19</title></rect><rect fill="#4dd2ff" height="2.6" width="2.6" x="185.0" y="59.5"><title>2019-12-20 9.9 km</title></rect><rect fill="#444444" height="2.6" width="2.6" x="185.0" y="63.0"><title>2019-12-21</title></rect><rect fill="#ffcc00" height="2.6" width="2.6" x="185.0" y="66.5"><title>2019-12-22 15.0 km</title></rect><rect fill="#444444" height="2.6" width="2.6" x="188.5" y="45.5"><title>2019-12-23</title></rect><rect fill="#ffde00" height="2.6" width="2.6" x="188.5" y="49.0"><title>2019-12-24 10.0 km</title></rect><rect fill="#444444" height="2.6" width="2.6" x="188.5" y="52.5"><title>2019-12-25</title></rect><rect fill="#4dd2ff" height="2.6" width="2.6" x="188.5" y="56.0"><title>2019-12-26 4.1 km</title></rect><rect fill="#4dd2ff" height="2.6" width="2.6" x="188.5" y="59.5"><title>2019-12-27 3.8 km</title></rect><rect fill="#ffcb00" height="2.6" width="2.6" x="188.5" y="63.0"><title>2019-12-28 15.3 km</title></rect><rect fill="#4dd2ff" height="2.6" width="2.6" x="188.5" y="66.5"><title>2019-12-29 7.6 km</title></rect><rect fill="#444444" height="2.6" width="2.6" x="192.0" y="45.5"><title>2019-12-30</title></rect><rect fill="#444444" height="2.6" width="2.6" x="192.0" y="49.0"><title>2019-12-31</title></rect></svg>