<?xml version="1.0" encoding="utf-8" ?>
<svg baseProfile="full" height="98mm" version="1.1" viewBox="0,0,200,98" width="200mm" xmlns="http://www.w3.org/2000/svg" xmlns:ev="http://www.w3.org/2001/xml-events" xmlns:xlink="http://www.w3.org/1999/xlink"><defs /><rect fill="#222222" height="98" width="200" x="0" y="0" /><text fill="#FFFFFF" style="font-size:12px; font-family:Arial; font-weight:bold;" x="10" y="20">2026 Running</text><text fill="#FFFFFF" style="font-size:4px; font-family:Arial" x="10" y="78">Runner</text><text fill="#FFFFFF" style="font-size:9px; font-family:Arial" x="10" y="88">yihong0618</text><text fill="#FFFFFF" style="font-size:4px; font-family:Arial" x="65" y="78">SPECIAL TRACKS</text><rect fill="yellow" height="2.6" width="2.6" x="65" y="81" /><text fill="#FFFFFF" style="font-size:3px; font-family:Arial" x="70" y="83.5">Over 10.0 km</text><rect fill="red" height="2.6" width="2.6" x="65" y="85" /><text fill="#FFFFFF" style="font-size:3px; font-family:Arial" x="70" y="87.5">Over 20.0 km</text><text fill="#FFFFFF" style="font-size:4px; font-family:Arial" x="120" y="78">STATISTICS</text><text fill="#FFFFFF" style="font-size:3px; font-family:Arial" x="120" y="83">Number: 24</text><text fill="#FFFFFF" style="font-size:3px; font-family:Arial" x="120" y="88">Weekly: 4.8</text><text fill="#FFFFFF" style="font-size:3px; font-family:Arial" x="141" y="83">Total: 69.8 km</text><text fill="#FFFFFF" style="font-size:3px; font-family:Arial" x="141" y="88">Avg: 2.9 km</text><text fill="#FFFFFF" style="font-size:3px; font-family:Arial" x="167" y="83">Min: 1.0 km</text><text fill="#FFFFFF" style="font-size:3px; font-family:Arial" x="167" y="88">Max: 5.6 km</text><text dominant-baseline="hanging" fill="#FFFFFF" style="font-size:10.0px; font-family:Arial;" x="10" y="30">2026</text><text dominant-baseline="hanging" fill="#FFFFFF" style="font-size:4.125px; font-family:Arial;" x="175" y="35">69.8 km</text><text fill="#FFFFFF" style="font-size:2.5px; font-family:Arial" x="10.0" y="44">Jan</text><text fill="#FFFFFF" style="font-size:2.5px; font-family:Arial" x="25.5" y="44">Feb</text><text fill="#FFFFFF" style="font-size:2.5px; font-family:Arial" x="41.0" y="44">Mar</text><text fill="#FFFFFF" style="font-size:2.5px; font-family:Arial" x="56.5" y="44">Apr</text><text fill="#FFFFFF" style="font-size:2.5px; font-family:Arial" x="72.0" y="44">May</text><text fill="#FFFFFF" style="font-size:2.5px; font-family:Arial" x="87.5" y="44">Jun</text><text fill="#FFFFFF" style="font-size:2.5px; font-family:Arial" x="103.0" y="44">Jul</text><text fill="#FFFFFF" style="font-size:2.5px; font-family:Arial" x="118.5" y="44">Aug</text><text fill="#FFFFFF" style="font-size:2.5px; font-family:Arial" x="134.0" y="44">Sep</text><text fill="#FFFFFF" style="font-size:2.5px; font-family:Arial" x="149.5" y="44">Oct</text><text fill="#FFFFFF" style="font-size:2.5px; font-family:Arial" x="165.0" y="44">Nov</text><text fill="#FFFFFF" style="font-size:2.5px; font-family:Arial" x="180.5" y="44">Dec</text><rect fill="#4DD2FF" height="2.6" width="2.6" x="10.0" y="56.0"><title>2026-01-01 5.6 km</title></rect><rect fill="#4DD2FF" height="2.6" width="2.6" x="10.0" y="59.5"><title>2026-01-02 3.4 km</title></rect><rect fill="#4DD2FF" height="2.6" width="2.6" x="10.0" y="63.0"><title>2026-01-03 3.0 km</title></rect><rect fill="#4DD2FF" height="2.6" width="2.6" x="10.0" y="66.5"><title>2026-01-04 3.0 km</title></rect><rect fill="#4DD2FF" height="2.6" width="2.6" x="13.5" y="45.5"><title>2026-01-05 3.0 km</title></rect><rect fill="#4DD2FF" height="2.6" width="2.6" x="13.5" y="49.0"><title>2026-01-06 4.0 km</title></rect><rect fill="#4DD2FF" height="2.6" width="2.6" x="13.5" y="52.5"><title>2026-01-07 3.0 km</title></rect><rect fill="#4DD2FF" height="2.6" width="2.6" x="13.5" y="56.0"><title>2026-01-08 3.3 km</title></rect><rect fill="#4DD2FF" height="2.6" width="2.6" x="13.5" y="59.5"><title>2026-01-09 1.7 km</title></rect><rect fill="#444444" height="2.6" width="2.6" x="13.5" y="63.0"><title>2026-01-10</title></rect><rect fill="#4DD2FF" height="2.6" width="2.6" x="13.5" y="66.5"><title>2026-01-11 3.0 km</title></rect><rect fill="#4DD2FF" height="2.6" width="2.6" x="17.0" y="45.5"><title>2026-01-12 2.2 km</title></rect><rect fill="#4DD2FF" height="2.6" width="2.6" x="17.0" y="49.0"><title>2026-01-13 3.0 km</title></rect><rect fill="#4DD2FF" height="2.6" width="2.6" x="17.0" y="52.5"><title>2026-01-14 4.2 km</title></rect><rect fill="#4DD2FF" height="2.6" width="2.6" x="17.0" y="56.0"><title>2026-01-15 2.1 km</title></rect><rect fill="#444444" height="2.6" width="2.6" x="17.0" y="59.5"><title>2026-01-16</title></rect><rect fill="#4DD2FF" height="2.6" width="2.6" x="17.0" y="63.0"><title>2026-01-17 2.0 km</title></rect><rect fill="#4DD2FF" height="2.6" width="2.6" x="17.0" y="66.5"><title>2026-01-18 3.3 km</title></rect><rect fill="#4DD2FF" height="2.6" width="2.6" x="20.5" y="45.5"><title>2026-01-19 2.4 km</title></rect><rect fill="#4DD2FF" height="2.6" width="2.6" x="20.5" y="49.0"><title>2026-01-20 3.0 km</title></rect><rect fill="#444444" height="2.6" width="2.6" x="20.5" y="52.5"><title>2026-01-21</title></rect><rect fill="#4DD2FF" height="2.6" width="2.6" x="20.5" y="56.0"><title>2026-01-22 3.0 km</title></rect><rect fill="#4DD2FF" height="2.6" width="2.6" x="20.5" y="59.5"><title>2026-01-23 2.0 km</title></rect><rect fill="#4DD2FF" height="2.6" width="2.6" x="20.5" y="63.0"><title>2026-01-24 4.0 km</title></rect><rect fill="#4DD2FF" height="2.6" width="2.6" x="20.5" y="66.5"><title>2026-01-25 1.6 km</title></rect><rect fill="#4DD2FF" height="2.6" width="2.6" x="24.0" y="45.5"><title>2026-01-26 4.0 km</title></rect><rect fill="#444444" height="2.6" width="2.6" x="24.0" y="49.0"><title>2026-01-27</title></rect><rect fill="#444444" height="2.6" width="2.6" x="24.0" y="52.5"><title>2026-01-28</title></rect><rect fill="#444444" height="2.6" width="2.6" x="24.0" y="56.0"><title>2026-01-29</title></rect><rect fill="#444444" height="2.6" width="2.6" x="24.0" y="59.5"><title>2026-01-30</title></rect><rect fill="#444444" height="2.6" width="2.6" x="24.0" y="63.0"><title>2026-01-31</title></rect><rect fill="#444444" height="2.6" width="2.6" x="24.0" y="66.5"><title>2026-02-01</title></rect><rect fill="#444444" height="2.6" width="2.6" x="27.5" y="45.5"><title>2026-02-02</title></rect><rect fill="#444444" height="2.6" width="2.6" x="27.5" y="49.0"><title>2026-02-03</title></rect><rect fill="#444444" height="2.6" width="2.6" x="27.5" y="52.5"><title>2026-02-04</title></rect><rect fill="#444444" height="2.6" width="2.6" x="27.5" y="56.0"><title>2026-02-05</title></rect><rect fill="#444444" height="2.6" width="2.6" x="27.5" y="59.5"><title>2026-02-06</title></rect><rect fill="#444444" height="2.6" width="2.6" x="27.5" y="63.0"><title>2026-02-07</title></rect><rect fill="#444444" height="2.6" width="2.6" x="27.5" y="66.5"><title>2026-02-08</title></rect><rect fill="#444444" height="2.6" width="2.6" x="31.0" y="45.5"><title>2026-02-09</title></rect><rect fill="#444444" height="2.6" width="2.6" x="31.0" y="49.0"><title>2026-02-10</title></rect><rect fill="#444444" height="2.6" width="2.6" x="31.0" y="52.5"><title>2026-02-11</title></rect><rect fill="#444444" height="2.6" width="2.6" x="31.0" y="56.0"><title>2026-02-12</title></rect><rect fill="#444444" height="2.6" width="2.6" x="31.0" y="59.5"><title>2026-02-13</title></rect><rect fill="#444444" height="2.6" width="2.6" x="31.0" y="63.0"><title>2026-02-14</title></rect><rect fill="#444444" height="2.6" width="2.6" x="31.0" y="66.5"><title>2026-02-15</title></rect><rect fill="#444444" height="2.6" width="2.6" x="34.5" y="45.5"><title>2026-02-16</title></rect><rect fill="#444444" height="2.6" width="2.6" x="34.5" y="49.0"><title>2026-02-17</title></rect><rect fill="#444444" height="2.6" width="2.6" x="34.5" y="52.5"><title>2026-02-18</title></rect><rect fill="#444444" height="2.6" width="2.6" x="34.5" y="56.0"><title>2026-02-19</title></rect><rect fill="#444444" height="2.6" width="2.6" x="34.5" y="59.5"><title>2026-02-20</title></rect><rect fill="#444444" height="2.6" width="2.6" x="34.5" y="63.0"><title>2026-02-21</title></rect><rect fill="#444444" height="2.6" width="2.6" x="34.5" y="66.5"><title>2026-02-22</title></rect><rect fill="#444444" height="2.6" width="2.6" x="38.0" y="45.5"><title>2026-02-23</title></rect><rect fill="#444444" height="2.6" width="2.6" x="38.0" y="49.0"><title>2026-02-24</title></rect><rect fill="#444444" height="2.6" width="2.6" x="38.0" y="52.5"><title>2026-02-25</title></rect><rect fill="#444444" height="2.6" width="2.6" x="38.0" y="56.0"><title>2026-02-26</title></rect><rect fill="#444444" height="2.6" width="2.6" x="38.0" y="59.5"><title>2026-02-27</title></rect><rect fill="#444444" height="2.6" width="2.6" x="38.0" y="63.0"><title>2026-02-28</title></rect><rect fill="#444444" height="2.6" width="2.6" x="38.0" y="66.5"><title>2026-03-01</title></rect><rect fill="#444444" height="2.6" width="2.6" x="41.5" y="45.5"><title>2026-03-02</title></rect><rect fill="#444444" height="2.6" width="2.6" x="41.5" y="49.0"><title>2026-03-03</title></rect><rect fill="#444444" height="2.6" width="2.6" x="41.5" y="52.5"><title>2026-03-04</title></rect><rect fill="#444444" height="2.6" width="2.6" x="41.5" y="56.0"><title>2026-03-05</title></rect><rect fill="#444444" height="2.6" width="2.6" x="41.5" y="59.5"><title>2026-03-06</title></rect><rect fill="#444444" height="2.6" width="2.6" x="41.5" y="63.0"><title>2026-03-07</title></rect><rect fill="#444444" height="2.6" width="2.6" x="41.5" y="66.5"><title>2026-03-08</title></rect><rect fill="#444444" height="2.6" width="2.6" x="45.0" y="45.5"><title>2026-03-09</title></rect><rect fill="#444444" height="2.6" width="2.6" x="45.0" y="49.0"><title>2026-03-10</title></rect><rect fill="#444444" height="2.6" width="2.6" x="45.0" y="52.5"><title>2026-03-11</title></rect><rect fill="#444444" height="2.6" width="2.6" x="45.0" y="56.0"><title>2026-03-12</title></rect><rect fill="#444444" height="2.6" width="2.6" x="45.0" y="59.5"><title>2026-03-13</title></rect><rect fill="#444444" height="2.6" width="2.6" x="45.0" y="63.0"><title>2026-03-14</title></rect><rect fill="#444444" height="2.6" width="2.6" x="45.0" y="66.5"><title>2026-03-15</title></rect><rect fill="#444444" height="2.6" width="2.6" x="48.5" y="45.5"><title>2026-03-16</title></rect><rect fill="#444444" height="2.6" width="2.6" x="48.5" y="49.0"><title>2026-03-17</title></rect><rect fill="#444444" height="2.6" width="2.6" x="48.5" y="52.5"><title>2026-03-18</title></rect><rect fill="#444444" height="2.6" width="2.6" x="48.5" y="56.0"><title>2026-03-19</title></rect><rect fill="#444444" height="2.6" width="2.6" x="48.5" y="59.5"><title>2026-03-20</title></rect><rect fill="#444444" height="2.6" width="2.6" x="48.5" y="63.0"><title>2026-03-21</title></rect><rect fill="#444444" height="2.6" width="2.6" x="48.5" y="66.5"><title>2026-03-22</title></rect><rect fill="#444444" height="2.6" width="2.6" x="52.0" y="45.5"><title>2026-03-23</title></rect><rect fill="#444444" height="2.6" width="2.6" x="52.0" y="49.0"><title>2026-03-24</title></rect><rect fill="#444444" height="2.6" width="2.6" x="52.0" y="52.5"><title>2026-03-25</title></rect><rect fill="#444444" height="2.6" width="2.6" x="52.0" y="56.0"><title>2026-03-26</title></rect><rect fill="#444444" height="2.6" width="2.6" x="52.0" y="59.5"><title>2026-03-27</title></rect><rect fill="#444444" height="2.6" width="2.6" x="52.0" y="63.0"><title>2026-03-28</title></rect><rect fill="#444444" height="2.6" width="2.6" x="52.0" y="66.5"><title>2026-03-29</title></rect><rect fill="#444444" height="2.6" width="2.6" x="55.5" y="45.5"><title>2026-03-30</title></rect><rect fill="#444444" height="2.6" width="2.6" x="55.5" y="49.0"><title>2026-03-31</title></rect><rect fill="#444444" height="2.6" width="2.6" x="55.5" y="52.5"><title>2026-04-01</title></rect><rect fill="#444444" height="2.6" width="2.6" x="55.5" y="56.0"><title>2026-04-02</title></rect><rect fill="#444444" height="2.6" width="2.6" x="55.5" y="59.5"><title>2026-04-03</title></rect><rect fill="#444444" height="2.6" width="2.6" x="55.5" y="63.0"><title>2026-04-04</title></rect><rect fill="#444444" height="2.6" width="2.6" x="55.5" y="66.5"><title>2026-04-05</title></rect><rect fill="#444444" height="2.6" width="2.6" x="59.0" y="45.5"><title>2026-04-06</title></rect><rect fill="#444444" height="2.6" width="2.6" x="59.0" y="49.0"><title>2026-04-07</title></rect><rect fill="#444444" height="2.6" width="2.6" x="59.0" y="52.5"><title>2026-04-08</title></rect><rect fill="#444444" height="2.6" width="2.6" x="59.0" y="56.0"><title>2026-04-09</title></rect><rect fill="#444444" height="2.6" width="2.6" x="59.0" y="59.5"><title>2026-04-10</title></rect><rect fill="#444444" height="2.6" width="2.6" x="59.0" y="63.0"><title>2026-04-11</title></rect><rect fill="#444444" height="2.6" width="2.6" x="59.0" y="66.5"><title>2026-04-12</title></rect><rect fill="#444444" height="2.6" width="2.6" x="62.5" y="45.5"><title>2026-04-13</title></rect><rect fill="#444444" height="2.6" width="2.6" x="62.5" y="49.0"><title>2026-04-14</title></rect><rect fill="#444444" height="2.6" width="2.6" x="62.5" y="52.5"><title>2026-04-15</title></rect><rect fill="#444444" height="2.6" width="2.6" x="62.5" y="56.0"><title>2026-04-16</title></rect><rect fill="#444444" height="2.6" width="2.6" x="62.5" y="59.5"><title>2026-04-17</title></rect><rect fill="#444444" height="2.6" width="2.6" x="62.5" y="63.0"><title>2026-04-18</title></rect><rect fill="#444444" height="2.6" width="2.6" x="62.5" y="66.5"><title>2026-04-19</title></rect><rect fill="#444444" height="2.6" width="2.6" x="66.0" y="45.5"><title>2026-04-20</title></rect><rect fill="#444444" height="2.6" width="2.6" x="66.0" y="49.0"><title>2026-04-21</title></rect><rect fill="#444444" height="2.6" width="2.6" x="66.0" y="52.5"><title>2026-04-22</title></rect><rect fill="#444444" height="2.6" width="2.6" x="66.0" y="56.0"><title>2026-04-23</title></rect><rect fill="#444444" height="2.6" width="2.6" x="66.0" y="59.5"><title>2026-04-24</title></rect><rect fill="#444444" height="2.6" width="2.6" x="66.0" y="63.0"><title>2026-04-25</title></rect><rect fill="#444444" height="2.6" width="2.6" x="66.0" y="66.5"><title>2026-04-26</title></rect><rect fill="#444444" height="2.6" width="2.6" x="69.5" y="45.5"><title>2026-04-27</title></rect><rect fill="#444444" height="2.6" width="2.6" x="69.5" y="49.0"><title>2026-04-28</title></rect><rect fill="#444444" height="2.6" width="2.6" x="69.5" y="52.5"><title>2026-04-29</title></rect><rect fill="#444444" height="2.6" width="2.6" x="69.5" y="56.0"><title>2026-04-30</title></rect><rect fill="#444444" height="2.6" width="2.6" x="69.5" y="59.5"><title>2026-05-01</title></rect><rect fill="#444444" height="2.6" width="2.6" x="69.5" y="63.0"><title>2026-05-02</title></rect><rect fill="#444444" height="2.6" width="2.6" x="69.5" y="66.5"><title>2026-05-03</title></rect><rect fill="#444444" height="2.6" width="2.6" x="73.0" y="45.5"><title>2026-05-04</title></rect><rect fill="#444444" height="2.6" width="2.6" x="73.0" y="49.0"><title>2026-05-05</title></rect><rect fill="#444444" height="2.6" width="2.6" x="73.0" y="52.5"><title>2026-05-06</title></rect><rect fill="#444444" height="2.6" width="2.6" x="73.0" y="56.0"><title>2026-05-07</title></rect><rect fill="#444444" height="2.6" width="2.6" x="73.0" y="59.5"><title>2026-05-08</title></rect><rect fill="#444444" height="2.6" width="2.6" x="73.0" y="63.0"><title>2026-05-09</title></rect><rect fill="#444444" height="2.6" width="2.6" x="73.0" y="66.5"><title>2026-05-10</title></rect><rect fill="#444444" height="2.6" width="2.6" x="76.5" y="45.5"><title>2026-05-11</title></rect><rect fill="#444444" height="2.6" width="2.6" x="76.5" y="49.0"><title>2026-05-12</title></rect><rect fill="#444444" height="2.6" width="2.6" x="76.5" y="52.5"><title>2026-05-13</title></rect><rect fill="#444444" height="2.6" width="2.6" x="76.5" y="56.0"><title>2026-05-14</title></rect><rect fill="#444444" height="2.6" width="2.6" x="76.5" y="59.5"><title>2026-05-15</title></rect><rect fill="#444444" height="2.6" width="2.6" x="76.5" y="63.0"><title>2026-05-16</title></rect><rect fill="#444444" height="2.6" width="2.6" x="76.5" y="66.5"><title>2026-05-17</title></rect><rect fill="#444444" height="2.6" width="2.6" x="80.0" y="45.5"><title>2026-05-18</title></rect><rect fill="#444444" height="2.6" width="2.6" x="80.0" y="49.0"><title>2026-05-19</title></rect><rect fill="#444444" height="2.6" width="2.6" x="80.0" y="52.5"><title>2026-05-20</title></rect><rect fill="#444444" height="2.6" width="2.6" x="80.0" y="56.0"><title>2026-05-21</title></rect><rect fill="#444444" height="2.6" width="2.6" x="80.0" y="59.5"><title>2026-05-22</title></rect><rect fill="#444444" height="2.6" width="2.6" x="80.0" y="63.0"><title>2026-05-23</title></rect><rect fill="#444444" height="2.6" width="2.6" x="80.0" y="66.5"><title>2026-05-24</title></rect><rect fill="#444444" height="2.6" width="2.6" x="83.5" y="45.5"><title>2026-05-25</title></rect><rect fill="#444444" height="2.6" width="2.6" x="83.5" y="49.0"><title>2026-05-26</title></rect><rect fill="#444444" height="2.6" width="2.6" x="83.5" y="52.5"><title>2026-05-27</title></rect><rect fill="#444444" height="2.6" width="2.6" x="83.5" y="56.0"><title>2026-05-28</title></rect><rect fill="#444444" height="2.6" width="2.6" x="83.5" y="59.5"><title>2026-05-29</title></rect><rect fill="#444444" height="2.6" width="2.6" x="83.5" y="63.0"><title>2026-05-30</title></rect><rect fill="#444444" height="2.6" width="2.6" x="83.5" y="66.5"><title>2026-05-31</title></rect><rect fill="#444444" height="2.6" width="2.6" x="87.0" y="45.5"><title>2026-06-01</title></rect><rect fill="#444444" height="2.6" width="2.6" x="87.0" y="49.0"><title>2026-06-02</title></rect><rect fill="#444444" height="2.6" width="2.6" x="87.0" y="52.5"><title>2026-06-03</title></rect><rect fill="#444444" height="2.6" width="2.6" x="87.0" y="56.0"><title>2026-06-04</title></rect><rect fill="#444444" height="2.6" width="2.6" x="87.0" y="59.5"><title>2026-06-05</title></rect><rect fill="#444444" height="2.6" width="2.6" x="87.0" y="63.0"><title>2026-06-06</title></rect><rect fill="#444444" height="2.6" width="2.6" x="87.0" y="66.5"><title>2026-06-07</title></rect><rect fill="#444444" height="2.6" width="2.6" x="90.5" y="45.5"><title>2026-06-08</title></rect><rect fill="#444444" height="2.6" width="2.6" x="90.5" y="49.0"><title>2026-06-09</title></rect><rect fill="#444444" height="2.6" width="2.6" x="90.5" y="52.5"><title>2026-06-10</title></rect><rect fill="#444444" height="2.6" width="2.6" x="90.5" y="56.0"><title>2026-06-11</title></rect><rect fill="#444444" height="2.6" width="2.6" x="90.5" y="59.5"><title>2026-06-12</title></rect><rect fill="#444444" height="2.6" width="2.6" x="90.5" y="63.0"><title>2026-06-13</title></rect><rect fill="#444444" height="2.6" width="2.6" x="90.5" y="66.5"><title>2026-06-14</title></rect><rect fill="#444444" height="2.6" width="2.6" x="94.0" y="45.5"><title>2026-06-15</title></rect><rect fill="#444444" height="2.6" width="2.6" x="94.0" y="49.0"><title>2026-06-16</title></rect><rect fill="#444444" height="2.6" width="2.6" x="94.0" y="52.5"><title>2026-06-17</title></rect><rect fill="#444444" height="2.6" width="2.6" x="94.0" y="56.0"><title>2026-06-18</title></rect><rect fill="#444444" height="2.6" width="2.6" x="94.0" y="59.5"><title>2026-06-19</title></rect><rect fill="#444444" height="2.6" width="2.6" x="94.0" y="63.0"><title>2026-06-20</title></rect><rect fill="#444444" height="2.6" width="2.6" x="94.0" y="66.5"><title>2026-06-21</title></rect><rect fill="#444444" height="2.6" width="2.6" x="97.5" y="45.5"><title>2026-06-22</title></rect><rect fill="#444444" height="2.6" width="2.6" x="97.5" y="49.0"><title>2026-06-23</title></rect><rect fill="#444444" height="2.6" width="2.6" x="97.5" y="52.5"><title>2026-06-24</title></rect><rect fill="#444444" height="2.6" width="2.6" x="97.5" y="56.0"><title>2026-06-25</title></rect><rect fill="#444444" height="2.6" width="2.6" x="97.5" y="59.5"><title>2026-06-26</title></rect><rect fill="#444444" height="2.6" width="2.6" x="97.5" y="63.0"><title>2026-06-27</title></rect><rect fill="#444444" height="2.6" width="2.6" x="97.5" y="66.5"><title>2026-06-28</title></rect><rect fill="#444444" height="2.6" width="2.6" x="101.0" y="45.5"><title>2026-06-29</title></rect><rect fill="#444444" height="2.6" width="2.6" x="101.0" y="49.0"><title>2026-06-30</title></rect><rect fill="#444444" height="2.6" width="2.6" x="101.0" y="52.5"><title>2026-07-01</title></rect><rect fill="#444444" height="2.6" width="2.6" x="101.0" y="56.0"><title>2026-07-02</title></rect><rect fill="#444444" height="2.6" width="2.6" x="101.0" y="59.5"><title>2026-07-03</title></rect><rect fill="#444444" height="2.6" width="2.6" x="101.0" y="63.0"><title>2026-07-04</title></rect><rect fill="#444444" height="2.6" width="2.6" x="101.0" y="66.5"><title>2026-07-05</title></rect><rect fill="#444444" height="2.6" width="2.6" x="104.5" y="45.5"><title>2026-07-06</title></rect><rect fill="#444444" height="2.6" width="2.6" x="104.5" y="49.0"><title>2026-07-07</title></rect><rect fill="#444444" height="2.6" width="2.6" x="104.5" y="52.5"><title>2026-07-08</title></rect><rect fill="#444444" height="2.6" width="2.6" x="104.5" y="56.0"><title>2026-07-09</title></rect><rect fill="#444444" height="2.6" width="2.6" x="104.5" y="59.5"><title>2026-07-10</title></rect><rect fill="#444444" height="2.6" width="2.6" x="104.5" y="63.0"><title>2026-07-11</title></rect><rect fill="#444444" height="2.6" width="2.6" x="104.5" y="66.5"><title>2026-07-12</title></rect><rect fill="#444444" height="2.6" width="2.6" x="108.0" y="45.5"><title>2026-07-13</title></rect><rect fill="#444444" height="2.6" width="2.6" x="108.0" y="49.0"><title>2026-07-14</title></rect><rect fill="#444444" height="2.6" width="2.6" x="108.0" y="52.5"><title>2026-07-15</title></rect><rect fill="#444444" height="2.6" width="2.6" x="108.0" y="56.0"><title>2026-07-16</title></rect><rect fill="#444444" height="2.6" width="2.6" x="108.0" y="59.5"><title>2026-07-17</title></rect><rect fill="#444444" height="2.6" width="2.6" x="108.0" y="63.0"><title>2026-07-18</title></rect><rect fill="#444444" height="2.6" width="2.6" x="108.0" y="66.5"><title>2026-07-19</title></rect><rect fill="#444444" height="2.6" width="2.6" x="111.5" y="45.5"><title>2026-07-20</title></rect><rect fill="#444444" height="2.6" width="2.6" x="111.5" y="49.0"><title>2026-07-21</title></rect><rect fill="#444444" height="2.6" width="2.6" x="111.5" y="52.5"><title>2026-07-22</title></rect><rect fill="#444444" height="2.6" width="2.6" x="111.5" y="56.0"><title>2026-07-23</title></rect><rect fill="#444444" height="2.6" width="2.6" x="111.5" y="59.5"><title>2026-07-24</title></rect><rect fill="#444444" height="2.6" width="2.6" x="111.5" y="63.0"><title>2026-07-25</title></rect><rect fill="#444444" height="2.6" width="2.6" x="111.5" y="66.5"><title>2026-07-26</title></rect><rect fill="#444444" height="2.6" width="2.6" x="115.0" y="45.5"><title>2026-07-27</title></rect><rect fill="#444444" height="2.6" width="2.6" x="115.0" y="49.0"><title>2026-07-28</title></rect><rect fill="#444444" height="2.6" width="2.6" x="115.0" y="52.5"><title>2026-07-29</title></rect><rect fill="#444444" height="2.6" width="2.6" x="115.0" y="56.0"><title>2026-07-30</title></rect><rect fill="#444444" height="2.6" width="2.6" x="115.0" y="59.5"><title>2026-07-31</title></rect><rect fill="#444444" height="2.6" width="2.6" x="115.0" y="63.0"><title>2026-08-01</title></rect><rect fill="#444444" height="2.6" width="2.6" x="115.0" y="66.5"><title>2026-08-02</title></rect><rect fill="#444444" height="2.6" width="2.6" x="118.5" y="45.5"><title>2026-08-03</title></rect><rect fill="#444444" height="2.6" width="2.6" x="118.5" y="49.0"><title>2026-08-04</title></rect><rect fill="#444444" height="2.6" width="2.6" x="118.5" y="52.5"><title>2026-08-05</title></rect><rect fill="#444444" height="2.6" width="2.6" x="118.5" y="56.0"><title>2026-08-06</title></rect><rect fill="#444444" height="2.6" width="2.6" x="118.5" y="59.5"><title>2026-08-07</title></rect><rect fill="#444444" height="2.6" width="2.6" x="118.5" y="63.0"><title>2026-08-08</title></rect><rect fill="#444444" height="2.6" width="2.6" x="118.5" y="66.5"><title>2026-08-09</title></rect><rect fill="#444444" height="2.6" width="2.6" x="122.0" y="45.5"><title>2026-08-10</title></rect><rect fill="#444444" height="2.6" width="2.6" x="122.0" y="49.0"><title>2026-08-11</title></rect><rect fill="#444444" height="2.6" width="2.6" x="122.0" y="52.5"><title>2026-08-12</title></rect><rect fill="#444444" height="2.6" width="2.6" x="122.0" y="56.0"><title>2026-08-13</title></rect><rect fill="#444444" height="2.6" width="2.6" x="122.0" y="59.5"><title>2026-08-14</title></rect><rect fill="#444444" height="2.6" width="2.6" x="122.0" y="63.0"><title>2026-08-15</title></rect><rect fill="#444444" height="2.6" width="2.6" x="122.0" y="66.5"><title>2026-08-16</title></rect><rect fill="#444444" height="2.6" width="2.6" x="125.5" y="45.5"><title>2026-08-17</title></rect><rect fill="#444444" height="2.6" width="2.6" x="125.5" y="49.0"><title>2026-08-18</title></rect><rect fill="#444444" height="2.6" width="2.6" x="125.5" y="52.5"><title>2026-08-19</title></rect><rect fill="#444444" height="2.6" width="2.6" x="125.5" y="56.0"><title>2026-08-20</title></rect><rect fill="#444444" height="2.6" width="2.6" x="125.5" y="59.5"><title>2026-08-21</title></rect><rect fill="#444444" height="2.6" width="2.6" x="125.5" y="63.0"><title>2026-08-22</title></rect><rect fill="#444444" height="2.6" width="2.6" x="125.5" y="66.5"><title>2026-08-23</title></rect><rect fill="#444444" height="2.6" width="2.6" x="129.0" y="45.5"><title>2026-08-24</title></rect><rect fill="#444444" height="2.6" width="2.6" x="129.0" y="49.0"><title>2026-08-25</title></rect><rect fill="#444444" height="2.6" width="2.6" x="129.0" y="52.5"><title>2026-08-26</title></rect><rect fill="#444444" height="2.6" width="2.6" x="129.0" y="56.0"><title>2026-08-27</title></rect><rect fill="#444444" height="2.6" width="2.6" x="129.0" y="59.5"><title>2026-08-28</title></rect><rect fill="#444444" height="2.6" width="2.6" x="129.0" y="63.0"><title>2026-08-29</title></rect><rect fill="#444444" height="2.6" width="2.6" x="129.0" y="66.5"><title>2026-08-30</title></rect><rect fill="#444444" height="2.6" width="2.6" x="132.5" y="45.5"><title>2026-08-31</title></rect><rect fill="#444444" height="2.6" width="2.6" x="132.5" y="49.0"><title>2026-09-01</title></rect><rect fill="#444444" height="2.6" width="2.6" x="132.5" y="52.5"><title>2026-09-02</title></rect><rect fill="#444444" height="2.6" width="2.6" x="132.5" y="56.0"><title>2026-09-03</title></rect><rect fill="#444444" height="2.6" width="2.6" x="132.5" y="59.5"><title>2026-09-04</title></rect><rect fill="#444444" height="2.6" width="2.6" x="132.5" y="63.0"><title>2026-09-05</title></rect><rect fill="#444444" height="2.6" width="2.6" x="132.5" y="66.5"><title>2026-09-06</title></rect><rect fill="#444444" height="2.6" width="2.6" x="136.0" y="45.5"><title>2026-09-07</title></rect><rect fill="#444444" height="2.6" width="2.6" x="136.0" y="49.0"><title>2026-09-08</title></rect><rect fill="#444444" height="2.6" width="2.6" x="136.0" y="52.5"><title>2026-09-09</title></rect><rect fill="#444444" height="2.6" width="2.6" x="136.0" y="56.0"><title>2026-09-10</title></rect><rect fill="#444444" height="2.6" width="2.6" x="136.0" y="59.5"><title>2026-09-11</title></rect><rect fill="#444444" height="2.6" width="2.6" x="136.0" y="63.0"><title>2026-09-12</title></rect><rect fill="#444444" height="2.6" width="2.6" x="136.0" y="66.5"><title>2026-09-13</title></rect><rect fill="#444444" height="2.6" width="2.6" x="139.5" y="45.5"><title>2026-09-14</title></rect><rect fill="#444444" height="2.6" width="2.6" x="139.5" y="49.0"><title>2026-09-15</title></rect><rect fill="#444444" height="2.6" width="2.6" x="139.5" y="52.5"><title>2026-09-16</title></rect><rect fill="#444444" height="2.6" width="2.6" x="139.5" y="56.0"><title>2026-09-17</title></rect><rect fill="#444444" height="2.6" width="2.6" x="139.5" y="59.5"><title>2026-09-18</title></rect><rect fill="#444444" height="2.6" width="2.6" x="139.5" y="63.0"><title>2026-09-19</title></rect><rect fill="#444444" height="2.6" width="2.6" x="139.5" y="66.5"><title>2026-09-20</title></rect><rect fill="#444444" height="2.6" width="2.6" x="143.0" y="45.5"><title>2026-09-21</title></rect><rect fill="#444444" height="2.6" width="2.6" x="143.0" y="49.0"><title>2026-09-22</title></rect><rect fill="#444444" height="2.6" width="2.6" x="143.0" y="52.5"><title>2026-09-23</title></rect><rect fill="#444444" height="2.6" width="2.6" x="143.0" y="56.0"><title>2026-09-24</title></rect><rect fill="#444444" height="2.6" width="2.6" x="143.0" y="59.5"><title>2026-09-25</title></rect><rect fill="#444444" height="2.6" width="2.6" x="143.0" y="63.0"><title>2026-09-26</title></rect><rect fill="#444444" height="2.6" width="2.6" x="143.0" y="66.5"><title>2026-09-27</title></rect><rect fill="#444444" height="2.6" width="2.6" x="146.5" y="45.5"><title>2026-09-28</title></rect><rect fill="#444444" height="2.6" width="2.6" x="146.5" y="49.0"><title>2026-09-29</title></rect><rect fill="#444444" height="2.6" width="2.6" x="146.5" y="52.5"><title>2026-09-30</title></rect><rect fill="#444444" height="2.6" width="2.6" x="146.5" y="56.0"><title>2026-10-01</title></rect><rect fill="#444444" height="2.6" width="2.6" x="146.5" y="59.5"><title>2026-10-02</title></rect><rect fill="#444444" height="2.6" width="2.6" x="146.5" y="63.0"><title>2026-10-03</title></rect><rect fill="#444444" height="2.6" width="2.6" x="146.5" y="66.5"><title>2026-10-04</title></rect><rect fill="#444444" height="2.6" width="2.6" x="150.0" y="45.5"><title>2026-10-05</title></rect><rect fill="#444444" height="2.6" width="2.6" x="150.0" y="49.0"><title>2026-10-06</title></rect><rect fill="#444444" height="2.6" width="2.6" x="150.0" y="52.5"><title>2026-10-07</title></rect><rect fill="#444444" height="2.6" width="2.6" x="150.0" y="56.0"><title>2026-10-08</title></rect><rect fill="#444444" height="2.6" width="2.6" x="150.0" y="59.5"><title>2026-10-09</title></rect><rect fill="#444444" height="2.6" width="2.6" x="150.0" y="63.0"><title>2026-10-10</title></rect><rect fill="#444444" height="2.6" width="2.6" x="150.0" y="66.5"><title>2026-10-11</title></rect><rect fill="#444444" height="2.6" width="2.6" x="153.5" y="45.5"><title>2026-10-12</title></rect><rect fill="#444444" height="2.6" width="2.6" x="153.5" y="49.0"><title>2026-10-13</title></rect><rect fill="#444444" height="2.6" width="2.6" x="153.5" y="52.5"><title>2026-10-14</title></rect><rect fill="#444444" height="2.6" width="2.6" x="153.5" y="56.0"><title>2026-10-15</title></rect><rect fill="#444444" height="2.6" width="2.6" x="153.5" y="59.5"><title>2026-10-16</title></rect><rect fill="#444444" height="2.6" width="2.6" x="153.5" y="63.0"><title>2026-10-17</title></rect><rect fill="#444444" height="2.6" width="2.6" x="153.5" y="66.5"><title>2026-10-18</title></rect><rect fill="#444444" height="2.6" width="2.6" x="157.0" y="45.5"><title>2026-10-19</title></rect><rect fill="#444444" height="2.6" width="2.6" x="157.0" y="49.0"><title>2026-10-20</title></rect><rect fill="#444444" height="2.6" width="2.6" x="157.0" y="52.5"><title>2026-10-21</title></rect><rect fill="#444444" height="2.6" width="2.6" x="157.0" y="56.0"><title>2026-10-22</title></rect><rect fill="#444444" height="2.6" width="2.6" x="157.0" y="59.5"><title>2026-10-23</title></rect><rect fill="#444444" height="2.6" width="2.6" x="157.0" y="63.0"><title>2026-10-24</title></rect><rect fill="#444444" height="2.6" width="2.6" x="157.0" y="66.5"><title>2026-10-25</title></rect><rect fill="#444444" height="2.6" width="2.6" x="160.5" y="45.5"><title>2026-10-26</title></rect><rect fill="#444444" height="2.6" width="2.6" x="160.5" y="49.0"><title>2026-10-27</title></rect><rect fill="#444444" height="2.6" width="2.6" x="160.5" y="52.5"><title>2026-10-28</title></rect><rect fill="#444444" height="2.6" width="2.6" x="160.5" y="56.0"><title>2026-10-29</title></rect><rect fill="#444444" height="2.6" width="2.6" x="160.5" y="59.5"><title>2026-10-30</title></rect><rect fill="#444444" height="2.6" width="2.6" x="160.5" y="63.0"><title>2026-10-31</title></rect><rect fill="#444444" height="2.6" width="2.6" x="160.5" y="66.5"><title>2026-11-01</title></rect><rect fill="#444444" height="2.6" width="2.6" x="164.0" y="45.5"><title>2026-11-02</title></rect><rect fill="#444444" height="2.6" width="2.6" x="164.0" y="49.0"><title>2026-11-03</title></rect><rect fill="#444444" height="2.6" width="2.6" x="164.0" y="52.5"><title>2026-11-04</title></rect><rect fill="#444444" height="2.6" width="2.6" x="164.0" y="56.0"><title>2026-11-05</title></rect><rect fill="#444444" height="2.6" width="2.6" x="164.0" y="59.5"><title>2026-11-06</title></rect><rect fill="#444444" height="2.6" width="2.6" x="164.0" y="63.0"><title>2026-11-07</title></rect><rect fill="#444444" height="2.6" width="2.6" x="164.0" y="66.5"><title>2026-11-08</title></rect><rect fill="#444444" height="2.6" width="2.6" x="167.5" y="45.5"><title>2026-11-09</title></rect><rect fill="#444444" height="2.6" width="2.6" x="167.5" y="49.0"><title>2026-11-10</title></rect><rect fill="#444444" height="2.6" width="2.6" x="167.5" y="52.5"><title>2026-11-11</title></rect><rect fill="#444444" height="2.6" width="2.6" x="167.5" y="56.0"><title>2026-11-12</title></rect><rect fill="#444444" height="2.6" width="2.6" x="167.5" y="59.5"><title>2026-11-13</title></rect><rect fill="#444444" height="2.6" width="2.6" x="167.5" y="63.0"><title>2026-11-14</title></rect><rect fill="#444444" height="2.6" width="2.6" x="167.5" y="66.5"><title>2026-11-15</title></rect><rect fill="#444444" height="2.6" width="2.6" x="171.0" y="45.5"><title>2026-11-16</title></rect><rect fill="#444444" height="2.6" width="2.6" x="171.0" y="49.0"><title>2026-11-17</title></rect><rect fill="#444444" height="2.6" width="2.6" x="171.0" y="52.5"><title>2026-11-18</title></rect><rect fill="#444444" height="2.6" width="2.6" x="171.0" y="56.0"><title>2026-11-19</title></rect><rect fill="#444444" height="2.6" width="2.6" x="171.0" y="59.5"><title>2026-11-20</title></rect><rect fill="#444444" height="2.6" width="2.6" x="171.0" y="63.0"><title>2026-11-21</title></rect><rect fill="#444444" height="2.6" width="2.6" x="171.0" y="66.5"><title>2026-11-22</title></rect><rect fill="#444444" height="2.6" width="2.6" x="174.5" y="45.5"><title>2026-11-23</title></rect><rect fill="#444444" height="2.6" width="2.6" x="174.5" y="49.0"><title>2026-11-24</title></rect><rect fill="#444444" height="2.6" width="2.6" x="174.5" y="52.5"><title>2026-11-25</title></rect><rect fill="#444444" height="2.6" width="2.6" x="174.5" y="56.0"><title>2026-11-26</title></rect><rect fill="#444444" height="2.6" width="2.6" x="174.5" y="59.5"><title>2026-11-27</title></rect><rect fill="#444444" height="2.6" width="2.6" x="174.5" y="63.0"><title>2026-11-28</title></rect><rect fill="#444444" height="2.6" width="2.6" x="174.5" y="66.5"><title>2026-11-29</title></rect><rect fill="#444444" height="2.6" width="2.6" x="178.0" y="45.5"><title>2026-11-30</title></rect><rect fill="#444444" height="2.6" width="2.6" x="178.0" y="49.0"><title>2026-12-01</title></rect><rect fill="#444444" height="2.6" width="2.6" x="178.0" y="52.5"><title>2026-12-02</title></rect><rect fill="#444444" height="2.6" width="2.6" x="178.0" y="56.0"><title>2026-12-03</title></rect><rect fill="#444444" height="2.6" width="2.6" x="178.0" y="59.5"><title>2026-12-04</title></rect><rect fill="#444444" height="2.6" width="2.6" x="178.0" y="63.0"><title>2026-12-05</title></rect><rect fill="#444444" height="2.6" width="2.6" x="178.0" y="66.5"><title>2026-12-06</title></rect><rect fill="#444444" height="2.6" width="2.6" x="181.5" y="45.5"><title>2026-12-07</title></rect><rect fill="#444444" height="2.6" width="2.6" x="181.5" y="49.0"><title>2026-12-08</title></rect><rect fill="#444444" height="2.6" width="2.6" x="181.5" y="52.5"><title>2026-12-09</title></rect><rect fill="#444444" height="2.6" width="2.6" x="181.5" y="56.0"><title>2026-12-10</title></rect><rect fill="#444444" height="2.6" width="2.6" x="181.5" y="59.5"><title>2026-12-11</title></rect><rect fill="#444444" height="2.6" width="2.6" x="181.5" y="63.0"><title>2026-12-12</title></rect><rect fill="#444444" height="2.6" width="2.6" x="181.5" y="66.5"><title>2026-12-13</title></rect><rect fill="#444444" height="2.6" width="2.6" x="185.0" y="45.5"><title>2026-12-14</title></rect><rect fill="#444444" height="2.6" width="2.6" x="185.0" y="49.0"><title>2026-12-15</title></rect><rect fill="#444444" height="2.6" width="2.6" x="185.0" y="52.5"><title>2026-12-16</title></rect><rect fill="#444444" height="2.6" width="2.6" x="185.0" y="56.0"><title>2026-12-17</title></rect><rect fill="#444444" height="2.6" width="2.6" x="185.0" y="59.5"><title>2026-12-18</title></rect><rect fill="#444444" height="2.6" width="2.6" x="185.0" y="63.0"><title>2026-12-19</title></rect><rect fill="#444444" height="2.6" width="2.6" x="185.0" y="66.5"><title>2026-12-20</title></rect><rect fill="#444444" height="2.6" width="2.6" x="188.5" y="45.5"><title>2026-12-21</title></rect><rect fill="#444444" height="2.6" width="2.6" x="188.5" y="49.0"><title>2026-12-22</title></rect><rect fill="#444444" height="2.6" width="2.6" x="188.5" y="52.5"><title>2026-12-23</title></rect><rect fill="#444444" height="2.6" width="2.6" x="188.5" y="56.0"><title>2026-12-24</title></rect><rect fill="#444444" height="2.6" width="2.6" x="188.5" y="59.5"><title>2026-12-25</title></rect><rect fill="#444444" height="2.6" width="2.6" x="188.5" y="63.0"><title>2026-12-26</title></rect><rect fill="#444444" height="2.6" width="2.6" x="188.5" y="66.5"><title>2026-12-27</title></rect><rect fill="#444444" height="2.6" width="2.6" x="192.0" y="45.5"><title>2026-12-28</title></rect><rect fill="#444444" height="2.6" width="2.6" x="192.0" y="49.0"><title>2026-12-29</title></rect><rect fill="#444444" height="2.6" width="2.6" x="192.0" y="52.5"><title>2026-12-30</title></rect><rect fill="#444444" height="2.6" width="2.6" x="192.0" y="56.0"><title>2026-12-31</title></rect></svg>