<?xml version="1.0" encoding="utf-8" ?>
<svg baseProfile="full" height="98mm" version="1.1" viewBox="0,0,200,98" width="200mm" xmlns="http://www.w3.org/2000/svg" xmlns:ev="http://www.w3.org/2001/xml-events" xmlns:xlink="http://www.w3.org/1999/xlink"><defs /><rect fill="#222222" height="98" width="200" x="0" y="0" /><text fill="#FFFFFF" style="font-size:12px; font-family:Arial; font-weight:bold;" x="10" y="20">Daniel Running 2023</text><text fill="#FFFFFF" style="font-size:4px; font-family:Arial" x="10" y="78">ATHLETE</text><text fill="#FFFFFF" style="font-size:9px; font-family:Arial" x="10" y="88">Daniel Yu</text><text fill="#FFFFFF" style="font-size:4px; font-family:Arial" x="65" y="78">SPECIAL TRACKS</text><rect fill="yellow" height="2.6" width="2.6" x="65" y="81" /><text fill="#FFFFFF" style="font-size:3px; font-family:Arial" x="70" y="83.5">Over 10.0 km</text><rect fill="red" height="2.6" width="2.6" x="65" y="85" /><text fill="#FFFFFF" style="font-size:3px; font-family:Arial" x="70" y="87.5">Over 20.0 km</text><text fill="#FFFFFF" style="font-size:4px; font-family:Arial" x="120" y="78">STATISTICS</text><text fill="#FFFFFF" style="font-size:3px; font-family:Arial" x="120" y="83">Number: 235</text><text fill="#FFFFFF" style="font-size:3px; font-family:Arial" x="120" y="88">Weekly: 4.6</text><text fill="#FFFFFF" style="font-size:3px; font-family:Arial" x="141" y="83">Total: 1717.7 km</text><text fill="#FFFFFF" style="font-size:3px; font-family:Arial" x="141" y="88">Avg: 7.3 km</text><text fill="#FFFFFF" style="font-size:3px; font-family:Arial" x="167" y="83">Min: 0.5 km</text><text fill="#FFFFFF" style="font-size:3px; font-family:Arial" x="167" y="88">Max: 43.1 km</text><text dominant-baseline="hanging" fill="#FFFFFF" style="font-size:10.0px; font-family:Arial;" x="10" y="30">2023</text><text dominant-baseline="hanging" fill="#FFFFFF" style="font-size:4.125px; font-family:Arial;" x="175" y="35">1717.7 km</text><text fill="#FFFFFF" style="font-size:2.5px; font-family:Arial" x="10.0" y="44">Jan</text><text fill="#FFFFFF" style="font-size:2.5px; font-family:Arial" x="25.5" y="44">Feb</text><text fill="#FFFFFF" style="font-size:2.5px; font-family:Arial" x="41.0" y="44">Mar</text><text fill="#FFFFFF" style="font-size:2.5px; font-family:Arial" x="56.5" y="44">Apr</text><text fill="#FFFFFF" style="font-size:2.5px; font-family:Arial" x="72.0" y="44">May</text><text fill="#FFFFFF" style="font-size:2.5px; font-family:Arial" x="87.5" y="44">Jun</text><text fill="#FFFFFF" style="font-size:2.5px; font-family:Arial" x="103.0" y="44">Jul</text><text fill="#FFFFFF" style="font-size:2.5px; font-family:Arial" x="118.5" y="44">Aug</text><text fill="#FFFFFF" style="font-size:2.5px; font-family:Arial" x="134.0" y="44">Sep</text><text fill="#FFFFFF" style="font-size:2.5px; font-family:Arial" x="149.5" y="44">Oct</text><text fill="#FFFFFF" style="font-size:2.5px; font-family:Arial" x="165.0" y="44">Nov</text><text fill="#FFFFFF" style="font-size:2.5px; font-family:Arial" x="180.5" y="44">Dec</text><rect fill="#444444" height="2.6" width="2.6" x="10.0" y="45.5"><title>2022-12-26</title></rect><rect fill="#444444" height="2.6" width="2.6" x="10.0" y="49.0"><title>2022-12-27</title></rect><rect fill="#444444" height="2.6" width="2.6" x="10.0" y="52.5"><title>2022-12-28</title></rect><rect fill="#444444" height="2.6" width="2.6" x="10.0" y="56.0"><title>2022-12-29</title></rect><rect fill="#444444" height="2.6" width="2.6" x="10.0" y="59.5"><title>2022-12-30</title></rect><rect fill="#444444" height="2.6" width="2.6" x="10.0" y="63.0"><title>2022-12-31</title></rect><rect fill="#4dd2ff" height="2.6" width="2.6" x="10.0" y="66.5"><title>2023-01-01 3.6 km</title></rect><rect fill="#444444" height="2.6" width="2.6" x="13.5" y="45.5"><title>2023-01-02</title></rect><rect fill="#444444" height="2.6" width="2.6" x="13.5" y="49.0"><title>2023-01-03</title></rect><rect fill="#444444" height="2.6" width="2.6" x="13.5" y="52.5"><title>2023-01-04</title></rect><rect fill="#444444" height="2.6" width="2.6" x="13.5" y="56.0"><title>2023-01-05</title></rect><rect fill="#4dd2ff" height="2.6" width="2.6" x="13.5" y="59.5"><title>2023-01-06 7.2 km</title></rect><rect fill="#4dd2ff" height="2.6" width="2.6" x="13.5" y="63.0"><title>2023-01-07 1.9 km</title></rect><rect fill="#4dd2ff" height="2.6" width="2.6" x="13.5" y="66.5"><title>2023-01-08 4.3 km</title></rect><rect fill="#4dd2ff" height="2.6" width="2.6" x="17.0" y="45.5"><title>2023-01-09 7.5 km</title></rect><rect fill="#4dd2ff" height="2.6" width="2.6" x="17.0" y="49.0"><title>2023-01-10 6.9 km</title></rect><rect fill="#4dd2ff" height="2.6" width="2.6" x="17.0" y="52.5"><title>2023-01-11 6.0 km</title></rect><rect fill="#4dd2ff" height="2.6" width="2.6" x="17.0" y="56.0"><title>2023-01-12 7.3 km</title></rect><rect fill="#444444" height="2.6" width="2.6" x="17.0" y="59.5"><title>2023-01-13</title></rect><rect fill="#444444" height="2.6" width="2.6" x="17.0" y="63.0"><title>2023-01-14</title></rect><rect fill="#444444" height="2.6" width="2.6" x="17.0" y="66.5"><title>2023-01-15</title></rect><rect fill="#4dd2ff" height="2.6" width="2.6" x="20.5" y="45.5"><title>2023-01-16 8.7 km</title></rect><rect fill="#444444" height="2.6" width="2.6" x="20.5" y="49.0"><title>2023-01-17</title></rect><rect fill="#444444" height="2.6" width="2.6" x="20.5" y="52.5"><title>2023-01-18</title></rect><rect fill="#4dd2ff" height="2.6" width="2.6" x="20.5" y="56.0"><title>2023-01-19 6.6 km</title></rect><rect fill="#444444" height="2.6" width="2.6" x="20.5" y="59.5"><title>2023-01-20</title></rect><rect fill="#ff9500" height="2.6" width="2.6" x="20.5" y="63.0"><title>2023-01-21 19.0 km</title></rect><rect fill="#444444" height="2.6" width="2.6" x="20.5" y="66.5"><title>2023-01-22</title></rect><rect fill="#444444" height="2.6" width="2.6" x="24.0" y="45.5"><title>2023-01-23</title></rect><rect fill="#444444" height="2.6" width="2.6" x="24.0" y="49.0"><title>2023-01-24</title></rect><rect fill="#444444" height="2.6" width="2.6" x="24.0" y="52.5"><title>2023-01-25</title></rect><rect fill="#444444" height="2.6" width="2.6" x="24.0" y="56.0"><title>2023-01-26</title></rect><rect fill="#444444" height="2.6" width="2.6" x="24.0" y="59.5"><title>2023-01-27</title></rect><rect fill="#444444" height="2.6" width="2.6" x="24.0" y="63.0"><title>2023-01-28</title></rect><rect fill="#444444" height="2.6" width="2.6" x="24.0" y="66.5"><title>2023-01-29</title></rect><rect fill="#4dd2ff" height="2.6" width="2.6" x="27.5" y="45.5"><title>2023-01-30 3.4 km</title></rect><rect fill="#4dd2ff" height="2.6" width="2.6" x="27.5" y="49.0"><title>2023-01-31 3.7 km</title></rect><rect fill="#444444" height="2.6" width="2.6" x="27.5" y="52.5"><title>2023-02-01</title></rect><rect fill="#4dd2ff" height="2.6" width="2.6" x="27.5" y="56.0"><title>2023-02-02 3.1 km</title></rect><rect fill="#444444" height="2.6" width="2.6" x="27.5" y="59.5"><title>2023-02-03</title></rect><rect fill="#ffc400" height="2.6" width="2.6" x="27.5" y="63.0"><title>2023-02-04 11.0 km</title></rect><rect fill="#4dd2ff" height="2.6" width="2.6" x="27.5" y="66.5"><title>2023-02-05 3.1 km</title></rect><rect fill="#444444" height="2.6" width="2.6" x="31.0" y="45.5"><title>2023-02-06</title></rect><rect fill="#444444" height="2.6" width="2.6" x="31.0" y="49.0"><title>2023-02-07</title></rect><rect fill="#4dd2ff" height="2.6" width="2.6" x="31.0" y="52.5"><title>2023-02-08 3.7 km</title></rect><rect fill="#444444" height="2.6" width="2.6" x="31.0" y="56.0"><title>2023-02-09</title></rect><rect fill="#4dd2ff" height="2.6" width="2.6" x="31.0" y="59.5"><title>2023-02-10 3.5 km</title></rect><rect fill="#444444" height="2.6" width="2.6" x="31.0" y="63.0"><title>2023-02-11</title></rect><rect fill="#4dd2ff" height="2.6" width="2.6" x="31.0" y="66.5"><title>2023-02-12 5.0 km</title></rect><rect fill="#444444" height="2.6" width="2.6" x="34.5" y="45.5"><title>2023-02-13</title></rect><rect fill="#4dd2ff" height="2.6" width="2.6" x="34.5" y="49.0"><title>2023-02-14 4.0 km</title></rect><rect fill="#444444" height="2.6" width="2.6" x="34.5" y="52.5"><title>2023-02-15</title></rect><rect fill="#ffb600" height="2.6" width="2.6" x="34.5" y="56.0"><title>2023-02-16 13.4 km</title></rect><rect fill="#4dd2ff" height="2.6" width="2.6" x="34.5" y="59.5"><title>2023-02-17 4.9 km</title></rect><rect fill="#ff9e00" height="2.6" width="2.6" x="34.5" y="63.0"><title>2023-02-18 17.5 km</title></rect><rect fill="#4dd2ff" height="2.6" width="2.6" x="34.5" y="66.5"><title>2023-02-19 3.1 km</title></rect><rect fill="#4dd2ff" height="2.6" width="2.6" x="38.0" y="45.5"><title>2023-02-20 3.7 km</title></rect><rect fill="#4dd2ff" height="2.6" width="2.6" x="38.0" y="49.0"><title>2023-02-21 3.7 km</title></rect><rect fill="#444444" height="2.6" width="2.6" x="38.0" y="52.5"><title>2023-02-22</title></rect><rect fill="#4dd2ff" height="2.6" width="2.6" x="38.0" y="56.0"><title>2023-02-23 3.7 km</title></rect><rect fill="#444444" height="2.6" width="2.6" x="38.0" y="59.5"><title>2023-02-24</title></rect><rect fill="#ff9a00" height="2.6" width="2.6" x="38.0" y="63.0"><title>2023-02-25 18.2 km</title></rect><rect fill="#4dd2ff" height="2.6" width="2.6" x="38.0" y="66.5"><title>2023-02-26 3.6 km</title></rect><rect fill="#444444" height="2.6" width="2.6" x="41.5" y="45.5"><title>2023-02-27</title></rect><rect fill="#ffb800" height="2.6" width="2.6" x="41.5" y="49.0"><title>2023-02-28 13.1 km</title></rect><rect fill="#444444" height="2.6" width="2.6" x="41.5" y="52.5"><title>2023-03-01</title></rect><rect fill="#444444" height="2.6" width="2.6" x="41.5" y="56.0"><title>2023-03-02</title></rect><rect fill="#444444" height="2.6" width="2.6" x="41.5" y="59.5"><title>2023-03-03</title></rect><rect fill="red" height="2.6" width="2.6" x="41.5" y="63.0"><title>2023-03-04 22.7 km</title></rect><rect fill="#4dd2ff" height="2.6" width="2.6" x="41.5" y="66.5"><title>2023-03-05 4.0 km</title></rect><rect fill="#444444" height="2.6" width="2.6" x="45.0" y="45.5"><title>2023-03-06</title></rect><rect fill="#ffc700" height="2.6" width="2.6" x="45.0" y="49.0"><title>2023-03-07 10.6 km</title></rect><rect fill="#4dd2ff" height="2.6" width="2.6" x="45.0" y="52.5"><title>2023-03-08 3.8 km</title></rect><rect fill="#4dd2ff" height="2.6" width="2.6" x="45.0" y="56.0"><title>2023-03-09 8.0 km</title></rect><rect fill="#4dd2ff" height="2.6" width="2.6" x="45.0" y="59.5"><title>2023-03-10 3.1 km</title></rect><rect fill="#ff9d00" height="2.6" width="2.6" x="45.0" y="63.0"><title>2023-03-11 17.8 km</title></rect><rect fill="#ffc600" height="2.6" width="2.6" x="45.0" y="66.5"><title>2023-03-12 10.7 km</title></rect><rect fill="#444444" height="2.6" width="2.6" x="48.5" y="45.5"><title>2023-03-13</title></rect><rect fill="#444444" height="2.6" width="2.6" x="48.5" y="49.0"><title>2023-03-14</title></rect><rect fill="#444444" height="2.6" width="2.6" x="48.5" y="52.5"><title>2023-03-15</title></rect><rect fill="#444444" height="2.6" width="2.6" x="48.5" y="56.0"><title>2023-03-16</title></rect><rect fill="#444444" height="2.6" width="2.6" x="48.5" y="59.5"><title>2023-03-17</title></rect><rect fill="#ffb600" height="2.6" width="2.6" x="48.5" y="63.0"><title>2023-03-18 13.5 km</title></rect><rect fill="#ffc400" height="2.6" width="2.6" x="48.5" y="66.5"><title>2023-03-19 11.0 km</title></rect><rect fill="#4dd2ff" height="2.6" width="2.6" x="52.0" y="45.5"><title>2023-03-20 3.7 km</title></rect><rect fill="#444444" height="2.6" width="2.6" x="52.0" y="49.0"><title>2023-03-21</title></rect><rect fill="#444444" height="2.6" width="2.6" x="52.0" y="52.5"><title>2023-03-22</title></rect><rect fill="#444444" height="2.6" width="2.6" x="52.0" y="56.0"><title>2023-03-23</title></rect><rect fill="#444444" height="2.6" width="2.6" x="52.0" y="59.5"><title>2023-03-24</title></rect><rect fill="#ffae00" height="2.6" width="2.6" x="52.0" y="63.0"><title>2023-03-25 14.7 km</title></rect><rect fill="#ffb900" height="2.6" width="2.6" x="52.0" y="66.5"><title>2023-03-26 12.9 km</title></rect><rect fill="#4dd2ff" height="2.6" width="2.6" x="55.5" y="45.5"><title>2023-03-27 3.5 km</title></rect><rect fill="#ffc500" height="2.6" width="2.6" x="55.5" y="49.0"><title>2023-03-28 10.9 km</title></rect><rect fill="#ffca00" height="2.6" width="2.6" x="55.5" y="52.5"><title>2023-03-29 10.0 km</title></rect><rect fill="#444444" height="2.6" width="2.6" x="55.5" y="56.0"><title>2023-03-30</title></rect><rect fill="#ff9e00" height="2.6" width="2.6" x="55.5" y="59.5"><title>2023-03-31 17.5 km</title></rect><rect fill="#ffa800" height="2.6" width="2.6" x="55.5" y="63.0"><title>2023-04-01 15.9 km</title></rect><rect fill="#4dd2ff" height="2.6" width="2.6" x="55.5" y="66.5"><title>2023-04-02 3.1 km</title></rect><rect fill="#444444" height="2.6" width="2.6" x="59.0" y="45.5"><title>2023-04-03</title></rect><rect fill="#444444" height="2.6" width="2.6" x="59.0" y="49.0"><title>2023-04-04</title></rect><rect fill="#4dd2ff" height="2.6" width="2.6" x="59.0" y="52.5"><title>2023-04-05 3.1 km</title></rect><rect fill="#444444" height="2.6" width="2.6" x="59.0" y="56.0"><title>2023-04-06</title></rect><rect fill="#444444" height="2.6" width="2.6" x="59.0" y="59.5"><title>2023-04-07</title></rect><rect fill="red" height="2.6" width="2.6" x="59.0" y="63.0"><title>2023-04-08 31.2 km</title></rect><rect fill="red" height="2.6" width="2.6" x="59.0" y="66.5"><title>2023-04-09 26.3 km</title></rect><rect fill="#444444" height="2.6" width="2.6" x="62.5" y="45.5"><title>2023-04-10</title></rect><rect fill="#4dd2ff" height="2.6" width="2.6" x="62.5" y="49.0"><title>2023-04-11 6.7 km</title></rect><rect fill="#444444" height="2.6" width="2.6" x="62.5" y="52.5"><title>2023-04-12</title></rect><rect fill="#444444" height="2.6" width="2.6" x="62.5" y="56.0"><title>2023-04-13</title></rect><rect fill="#4dd2ff" height="2.6" width="2.6" x="62.5" y="59.5"><title>2023-04-14 6.3 km</title></rect><rect fill="#ff9500" height="2.6" width="2.6" x="62.5" y="63.0"><title>2023-04-15 19.0 km</title></rect><rect fill="red" height="2.6" width="2.6" x="62.5" y="66.5"><title>2023-04-16 27.2 km</title></rect><rect fill="#ffca00" height="2.6" width="2.6" x="66.0" y="45.5"><title>2023-04-17 10.0 km</title></rect><rect fill="#4dd2ff" height="2.6" width="2.6" x="66.0" y="49.0"><title>2023-04-18 3.8 km</title></rect><rect fill="#ffb600" height="2.6" width="2.6" x="66.0" y="52.5"><title>2023-04-19 13.4 km</title></rect><rect fill="#444444" height="2.6" width="2.6" x="66.0" y="56.0"><title>2023-04-20</title></rect><rect fill="#444444" height="2.6" width="2.6" x="66.0" y="59.5"><title>2023-04-21</title></rect><rect fill="red" height="2.6" width="2.6" x="66.0" y="63.0"><title>2023-04-22 21.3 km</title></rect><rect fill="#4dd2ff" height="2.6" width="2.6" x="66.0" y="66.5"><title>2023-04-23 3.5 km</title></rect><rect fill="#444444" height="2.6" width="2.6" x="69.5" y="45.5"><title>2023-04-24</title></rect><rect fill="#444444" height="2.6" width="2.6" x="69.5" y="49.0"><title>2023-04-25</title></rect><rect fill="#ffc800" height="2.6" width="2.6" x="69.5" y="52.5"><title>2023-04-26 10.4 km</title></rect><rect fill="#4dd2ff" height="2.6" width="2.6" x="69.5" y="56.0"><title>2023-04-27 3.7 km</title></rect><rect fill="#444444" height="2.6" width="2.6" x="69.5" y="59.5"><title>2023-04-28</title></rect><rect fill="#444444" height="2.6" width="2.6" x="69.5" y="63.0"><title>2023-04-29</title></rect><rect fill="red" height="2.6" width="2.6" x="69.5" y="66.5"><title>2023-04-30 42.4 km</title></rect><rect fill="#444444" height="2.6" width="2.6" x="73.0" y="45.5"><title>2023-05-01</title></rect><rect fill="#444444" height="2.6" width="2.6" x="73.0" y="49.0"><title>2023-05-02</title></rect><rect fill="#444444" height="2.6" width="2.6" x="73.0" y="52.5"><title>2023-05-03</title></rect><rect fill="#444444" height="2.6" width="2.6" x="73.0" y="56.0"><title>2023-05-04</title></rect><rect fill="#444444" height="2.6" width="2.6" x="73.0" y="59.5"><title>2023-05-05</title></rect><rect fill="#4dd2ff" height="2.6" width="2.6" x="73.0" y="63.0"><title>2023-05-06 6.8 km</title></rect><rect fill="#ffa100" height="2.6" width="2.6" x="73.0" y="66.5"><title>2023-05-07 17.0 km</title></rect><rect fill="#4dd2ff" height="2.6" width="2.6" x="76.5" y="45.5"><title>2023-05-08 3.7 km</title></rect><rect fill="#4dd2ff" height="2.6" width="2.6" x="76.5" y="49.0"><title>2023-05-09 8.6 km</title></rect><rect fill="#4dd2ff" height="2.6" width="2.6" x="76.5" y="52.5"><title>2023-05-10 3.5 km</title></rect><rect fill="#444444" height="2.6" width="2.6" x="76.5" y="56.0"><title>2023-05-11</title></rect><rect fill="#ffca00" height="2.6" width="2.6" x="76.5" y="59.5"><title>2023-05-12 10.0 km</title></rect><rect fill="#4dd2ff" height="2.6" width="2.6" x="76.5" y="63.0"><title>2023-05-13 5.4 km</title></rect><rect fill="red" height="2.6" width="2.6" x="76.5" y="66.5"><title>2023-05-14 26.4 km</title></rect><rect fill="#444444" height="2.6" width="2.6" x="80.0" y="45.5"><title>2023-05-15</title></rect><rect fill="#444444" height="2.6" width="2.6" x="80.0" y="49.0"><title>2023-05-16</title></rect><rect fill="#444444" height="2.6" width="2.6" x="80.0" y="52.5"><title>2023-05-17</title></rect><rect fill="#4dd2ff" height="2.6" width="2.6" x="80.0" y="56.0"><title>2023-05-18 10.0 km</title></rect><rect fill="#4dd2ff" height="2.6" width="2.6" x="80.0" y="59.5"><title>2023-05-19 6.5 km</title></rect><rect fill="#ffa600" height="2.6" width="2.6" x="80.0" y="63.0"><title>2023-05-20 16.1 km</title></rect><rect fill="#ffb700" height="2.6" width="2.6" x="80.0" y="66.5"><title>2023-05-21 13.3 km</title></rect><rect fill="#444444" height="2.6" width="2.6" x="83.5" y="45.5"><title>2023-05-22</title></rect><rect fill="#444444" height="2.6" width="2.6" x="83.5" y="49.0"><title>2023-05-23</title></rect><rect fill="#4dd2ff" height="2.6" width="2.6" x="83.5" y="52.5"><title>2023-05-24 5.0 km</title></rect><rect fill="#444444" height="2.6" width="2.6" x="83.5" y="56.0"><title>2023-05-25</title></rect><rect fill="#4dd2ff" height="2.6" width="2.6" x="83.5" y="59.5"><title>2023-05-26 8.8 km</title></rect><rect fill="#4dd2ff" height="2.6" width="2.6" x="83.5" y="63.0"><title>2023-05-27 3.1 km</title></rect><rect fill="#ffb200" height="2.6" width="2.6" x="83.5" y="66.5"><title>2023-05-28 14.2 km</title></rect><rect fill="#4dd2ff" height="2.6" width="2.6" x="87.0" y="45.5"><title>2023-05-29 3.9 km</title></rect><rect fill="#444444" height="2.6" width="2.6" x="87.0" y="49.0"><title>2023-05-30</title></rect><rect fill="#444444" height="2.6" width="2.6" x="87.0" y="52.5"><title>2023-05-31</title></rect><rect fill="#444444" height="2.6" width="2.6" x="87.0" y="56.0"><title>2023-06-01</title></rect><rect fill="#444444" height="2.6" width="2.6" x="87.0" y="59.5"><title>2023-06-02</title></rect><rect fill="red" height="2.6" width="2.6" x="87.0" y="63.0"><title>2023-06-03 24.2 km</title></rect><rect fill="red" height="2.6" width="2.6" x="87.0" y="66.5"><title>2023-06-04 24.3 km</title></rect><rect fill="#4dd2ff" height="2.6" width="2.6" x="90.5" y="45.5"><title>2023-06-05 3.8 km</title></rect><rect fill="#444444" height="2.6" width="2.6" x="90.5" y="49.0"><title>2023-06-06</title></rect><rect fill="#ffb500" height="2.6" width="2.6" x="90.5" y="52.5"><title>2023-06-07 13.7 km</title></rect><rect fill="#4dd2ff" height="2.6" width="2.6" x="90.5" y="56.0"><title>2023-06-08 2.0 km</title></rect><rect fill="#4dd2ff" height="2.6" width="2.6" x="90.5" y="59.5"><title>2023-06-09 4.0 km</title></rect><rect fill="#444444" height="2.6" width="2.6" x="90.5" y="63.0"><title>2023-06-10</title></rect><rect fill="#ff9800" height="2.6" width="2.6" x="90.5" y="66.5"><title>2023-06-11 18.5 km</title></rect><rect fill="#4dd2ff" height="2.6" width="2.6" x="94.0" y="45.5"><title>2023-06-12 3.6 km</title></rect><rect fill="#444444" height="2.6" width="2.6" x="94.0" y="49.0"><title>2023-06-13</title></rect><rect fill="#ffb400" height="2.6" width="2.6" x="94.0" y="52.5"><title>2023-06-14 13.7 km</title></rect><rect fill="#4dd2ff" height="2.6" width="2.6" x="94.0" y="56.0"><title>2023-06-15 3.6 km</title></rect><rect fill="#4dd2ff" height="2.6" width="2.6" x="94.0" y="59.5"><title>2023-06-16 3.8 km</title></rect><rect fill="#ffa300" height="2.6" width="2.6" x="94.0" y="63.0"><title>2023-06-17 16.6 km</title></rect><rect fill="#444444" height="2.6" width="2.6" x="94.0" y="66.5"><title>2023-06-18</title></rect><rect fill="#444444" height="2.6" width="2.6" x="97.5" y="45.5"><title>2023-06-19</title></rect><rect fill="#444444" height="2.6" width="2.6" x="97.5" y="49.0"><title>2023-06-20</title></rect><rect fill="#444444" height="2.6" width="2.6" x="97.5" y="52.5"><title>2023-06-21</title></rect><rect fill="#444444" height="2.6" width="2.6" x="97.5" y="56.0"><title>2023-06-22</title></rect><rect fill="#ff9f00" height="2.6" width="2.6" x="97.5" y="59.5"><title>2023-06-23 17.3 km</title></rect><rect fill="#444444" height="2.6" width="2.6" x="97.5" y="63.0"><title>2023-06-24</title></rect><rect fill="#444444" height="2.6" width="2.6" x="97.5" y="66.5"><title>2023-06-25</title></rect><rect fill="#4dd2ff" height="2.6" width="2.6" x="101.0" y="45.5"><title>2023-06-26 2.3 km</title></rect><rect fill="#444444" height="2.6" width="2.6" x="101.0" y="49.0"><title>2023-06-27</title></rect><rect fill="#444444" height="2.6" width="2.6" x="101.0" y="52.5"><title>2023-06-28</title></rect><rect fill="#4dd2ff" height="2.6" width="2.6" x="101.0" y="56.0"><title>2023-06-29 9.1 km</title></rect><rect fill="#444444" height="2.6" width="2.6" x="101.0" y="59.5"><title>2023-06-30</title></rect><rect fill="#444444" height="2.6" width="2.6" x="101.0" y="63.0"><title>2023-07-01</title></rect><rect fill="#ffba00" height="2.6" width="2.6" x="101.0" y="66.5"><title>2023-07-02 12.8 km</title></rect><rect fill="#444444" height="2.6" width="2.6" x="104.5" y="45.5"><title>2023-07-03</title></rect><rect fill="#444444" height="2.6" width="2.6" x="104.5" y="49.0"><title>2023-07-04</title></rect><rect fill="#444444" height="2.6" width="2.6" x="104.5" y="52.5"><title>2023-07-05</title></rect><rect fill="#4dd2ff" height="2.6" width="2.6" x="104.5" y="56.0"><title>2023-07-06 4.8 km</title></rect><rect fill="#4dd2ff" height="2.6" width="2.6" x="104.5" y="59.5"><title>2023-07-07 2.1 km</title></rect><rect fill="#444444" height="2.6" width="2.6" x="104.5" y="63.0"><title>2023-07-08</title></rect><rect fill="#444444" height="2.6" width="2.6" x="104.5" y="66.5"><title>2023-07-09</title></rect><rect fill="#444444" height="2.6" width="2.6" x="108.0" y="45.5"><title>2023-07-10</title></rect><rect fill="#444444" height="2.6" width="2.6" x="108.0" y="49.0"><title>2023-07-11</title></rect><rect fill="#4dd2ff" height="2.6" width="2.6" x="108.0" y="52.5"><title>2023-07-12 10.0 km</title></rect><rect fill="#444444" height="2.6" width="2.6" x="108.0" y="56.0"><title>2023-07-13</title></rect><rect fill="#444444" height="2.6" width="2.6" x="108.0" y="59.5"><title>2023-07-14</title></rect><rect fill="#444444" height="2.6" width="2.6" x="108.0" y="63.0"><title>2023-07-15</title></rect><rect fill="#4dd2ff" height="2.6" width="2.6" x="108.0" y="66.5"><title>2023-07-16 2.6 km</title></rect><rect fill="#444444" height="2.6" width="2.6" x="111.5" y="45.5"><title>2023-07-17</title></rect><rect fill="#4dd2ff" height="2.6" width="2.6" x="111.5" y="49.0"><title>2023-07-18 6.1 km</title></rect><rect fill="#444444" height="2.6" width="2.6" x="111.5" y="52.5"><title>2023-07-19</title></rect><rect fill="#ffca00" height="2.6" width="2.6" x="111.5" y="56.0"><title>2023-07-20 10.0 km</title></rect><rect fill="#444444" height="2.6" width="2.6" x="111.5" y="59.5"><title>2023-07-21</title></rect><rect fill="#ffca00" height="2.6" width="2.6" x="111.5" y="63.0"><title>2023-07-22 10.0 km</title></rect><rect fill="#4dd2ff" height="2.6" width="2.6" x="111.5" y="66.5"><title>2023-07-23 1.9 km</title></rect><rect fill="#444444" height="2.6" width="2.6" x="115.0" y="45.5"><title>2023-07-24</title></rect><rect fill="#444444" height="2.6" width="2.6" x="115.0" y="49.0"><title>2023-07-25</title></rect><rect fill="#444444" height="2.6" width="2.6" x="115.0" y="52.5"><title>2023-07-26</title></rect><rect fill="#ffca00" height="2.6" width="2.6" x="115.0" y="56.0"><title>2023-07-27 10.0 km</title></rect><rect fill="#444444" height="2.6" width="2.6" x="115.0" y="59.5"><title>2023-07-28</title></rect><rect fill="#444444" height="2.6" width="2.6" x="115.0" y="63.0"><title>2023-07-29</title></rect><rect fill="#4dd2ff" height="2.6" width="2.6" x="115.0" y="66.5"><title>2023-07-30 6.1 km</title></rect><rect fill="#444444" height="2.6" width="2.6" x="118.5" y="45.5"><title>2023-07-31</title></rect><rect fill="#4dd2ff" height="2.6" width="2.6" x="118.5" y="49.0"><title>2023-08-01 5.1 km</title></rect><rect fill="#4dd2ff" height="2.6" width="2.6" x="118.5" y="52.5"><title>2023-08-02 5.0 km</title></rect><rect fill="#444444" height="2.6" width="2.6" x="118.5" y="56.0"><title>2023-08-03</title></rect><rect fill="#4dd2ff" height="2.6" width="2.6" x="118.5" y="59.5"><title>2023-08-04 9.3 km</title></rect><rect fill="#444444" height="2.6" width="2.6" x="118.5" y="63.0"><title>2023-08-05</title></rect><rect fill="#444444" height="2.6" width="2.6" x="118.5" y="66.5"><title>2023-08-06</title></rect><rect fill="#444444" height="2.6" width="2.6" x="122.0" y="45.5"><title>2023-08-07</title></rect><rect fill="#444444" height="2.6" width="2.6" x="122.0" y="49.0"><title>2023-08-08</title></rect><rect fill="red" height="2.6" width="2.6" x="122.0" y="52.5"><title>2023-08-09 22.2 km</title></rect><rect fill="#444444" height="2.6" width="2.6" x="122.0" y="56.0"><title>2023-08-10</title></rect><rect fill="#444444" height="2.6" width="2.6" x="122.0" y="59.5"><title>2023-08-11</title></rect><rect fill="#444444" height="2.6" width="2.6" x="122.0" y="63.0"><title>2023-08-12</title></rect><rect fill="#4dd2ff" height="2.6" width="2.6" x="122.0" y="66.5"><title>2023-08-13 1.0 km</title></rect><rect fill="#444444" height="2.6" width="2.6" x="125.5" y="45.5"><title>2023-08-14</title></rect><rect fill="#4dd2ff" height="2.6" width="2.6" x="125.5" y="49.0"><title>2023-08-15 2.8 km</title></rect><rect fill="#444444" height="2.6" width="2.6" x="125.5" y="52.5"><title>2023-08-16</title></rect><rect fill="#4dd2ff" height="2.6" width="2.6" x="125.5" y="56.0"><title>2023-08-17 3.0 km</title></rect><rect fill="#ffb900" height="2.6" width="2.6" x="125.5" y="59.5"><title>2023-08-18 13.0 km</title></rect><rect fill="#4dd2ff" height="2.6" width="2.6" x="125.5" y="63.0"><title>2023-08-19 3.6 km</title></rect><rect fill="#ffbb00" height="2.6" width="2.6" x="125.5" y="66.5"><title>2023-08-20 12.6 km</title></rect><rect fill="#4dd2ff" height="2.6" width="2.6" x="129.0" y="45.5"><title>2023-08-21 2.7 km</title></rect><rect fill="#444444" height="2.6" width="2.6" x="129.0" y="49.0"><title>2023-08-22</title></rect><rect fill="#4dd2ff" height="2.6" width="2.6" x="129.0" y="52.5"><title>2023-08-23 3.7 km</title></rect><rect fill="#444444" height="2.6" width="2.6" x="129.0" y="56.0"><title>2023-08-24</title></rect><rect fill="#4dd2ff" height="2.6" width="2.6" x="129.0" y="59.5"><title>2023-08-25 2.7 km</title></rect><rect fill="#444444" height="2.6" width="2.6" x="129.0" y="63.0"><title>2023-08-26</title></rect><rect fill="#ffaa00" height="2.6" width="2.6" x="129.0" y="66.5"><title>2023-08-27 15.4 km</title></rect><rect fill="#444444" height="2.6" width="2.6" x="132.5" y="45.5"><title>2023-08-28</title></rect><rect fill="#444444" height="2.6" width="2.6" x="132.5" y="49.0"><title>2023-08-29</title></rect><rect fill="#444444" height="2.6" width="2.6" x="132.5" y="52.5"><title>2023-08-30</title></rect><rect fill="#444444" height="2.6" width="2.6" x="132.5" y="56.0"><title>2023-08-31</title></rect><rect fill="#444444" height="2.6" width="2.6" x="132.5" y="59.5"><title>2023-09-01</title></rect><rect fill="#444444" height="2.6" width="2.6" x="132.5" y="63.0"><title>2023-09-02</title></rect><rect fill="#4dd2ff" height="2.6" width="2.6" x="132.5" y="66.5"><title>2023-09-03 4.6 km</title></rect><rect fill="#4dd2ff" height="2.6" width="2.6" x="136.0" y="45.5"><title>2023-09-04 8.1 km</title></rect><rect fill="#444444" height="2.6" width="2.6" x="136.0" y="49.0"><title>2023-09-05</title></rect><rect fill="#444444" height="2.6" width="2.6" x="136.0" y="52.5"><title>2023-09-06</title></rect><rect fill="#444444" height="2.6" width="2.6" x="136.0" y="56.0"><title>2023-09-07</title></rect><rect fill="#444444" height="2.6" width="2.6" x="136.0" y="59.5"><title>2023-09-08</title></rect><rect fill="#4dd2ff" height="2.6" width="2.6" x="136.0" y="63.0"><title>2023-09-09 3.4 km</title></rect><rect fill="#ffb700" height="2.6" width="2.6" x="136.0" y="66.5"><title>2023-09-10 13.2 km</title></rect><rect fill="#444444" height="2.6" width="2.6" x="139.5" y="45.5"><title>2023-09-11</title></rect><rect fill="#444444" height="2.6" width="2.6" x="139.5" y="49.0"><title>2023-09-12</title></rect><rect fill="#444444" height="2.6" width="2.6" x="139.5" y="52.5"><title>2023-09-13</title></rect><rect fill="#444444" height="2.6" width="2.6" x="139.5" y="56.0"><title>2023-09-14</title></rect><rect fill="#444444" height="2.6" width="2.6" x="139.5" y="59.5"><title>2023-09-15</title></rect><rect fill="#4dd2ff" height="2.6" width="2.6" x="139.5" y="63.0"><title>2023-09-16 4.6 km</title></rect><rect fill="#444444" height="2.6" width="2.6" x="139.5" y="66.5"><title>2023-09-17</title></rect><rect fill="#444444" height="2.6" width="2.6" x="143.0" y="45.5"><title>2023-09-18</title></rect><rect fill="#444444" height="2.6" width="2.6" x="143.0" y="49.0"><title>2023-09-19</title></rect><rect fill="#444444" height="2.6" width="2.6" x="143.0" y="52.5"><title>2023-09-20</title></rect><rect fill="#444444" height="2.6" width="2.6" x="143.0" y="56.0"><title>2023-09-21</title></rect><rect fill="#444444" height="2.6" width="2.6" x="143.0" y="59.5"><title>2023-09-22</title></rect><rect fill="#444444" height="2.6" width="2.6" x="143.0" y="63.0"><title>2023-09-23</title></rect><rect fill="#4dd2ff" height="2.6" width="2.6" x="143.0" y="66.5"><title>2023-09-24 2.7 km</title></rect><rect fill="#444444" height="2.6" width="2.6" x="146.5" y="45.5"><title>2023-09-25</title></rect><rect fill="#444444" height="2.6" width="2.6" x="146.5" y="49.0"><title>2023-09-26</title></rect><rect fill="#444444" height="2.6" width="2.6" x="146.5" y="52.5"><title>2023-09-27</title></rect><rect fill="#4dd2ff" height="2.6" width="2.6" x="146.5" y="56.0"><title>2023-09-28 8.5 km</title></rect><rect fill="#4dd2ff" height="2.6" width="2.6" x="146.5" y="59.5"><title>2023-09-29 5.3 km</title></rect><rect fill="#4dd2ff" height="2.6" width="2.6" x="146.5" y="63.0"><title>2023-09-30 9.0 km</title></rect><rect fill="#ffb300" height="2.6" width="2.6" x="146.5" y="66.5"><title>2023-10-01 14.0 km</title></rect><rect fill="#444444" height="2.6" width="2.6" x="150.0" y="45.5"><title>2023-10-02</title></rect><rect fill="#444444" height="2.6" width="2.6" x="150.0" y="49.0"><title>2023-10-03</title></rect><rect fill="#4dd2ff" height="2.6" width="2.6" x="150.0" y="52.5"><title>2023-10-04 6.9 km</title></rect><rect fill="#444444" height="2.6" width="2.6" x="150.0" y="56.0"><title>2023-10-05</title></rect><rect fill="#444444" height="2.6" width="2.6" x="150.0" y="59.5"><title>2023-10-06</title></rect><rect fill="#444444" height="2.6" width="2.6" x="150.0" y="63.0"><title>2023-10-07</title></rect><rect fill="#ffa500" height="2.6" width="2.6" x="150.0" y="66.5"><title>2023-10-08 16.3 km</title></rect><rect fill="#444444" height="2.6" width="2.6" x="153.5" y="45.5"><title>2023-10-09</title></rect><rect fill="#444444" height="2.6" width="2.6" x="153.5" y="49.0"><title>2023-10-10</title></rect><rect fill="#444444" height="2.6" width="2.6" x="153.5" y="52.5"><title>2023-10-11</title></rect><rect fill="#444444" height="2.6" width="2.6" x="153.5" y="56.0"><title>2023-10-12</title></rect><rect fill="#444444" height="2.6" width="2.6" x="153.5" y="59.5"><title>2023-10-13</title></rect><rect fill="#4dd2ff" height="2.6" width="2.6" x="153.5" y="63.0"><title>2023-10-14 8.0 km</title></rect><rect fill="red" height="2.6" width="2.6" x="153.5" y="66.5"><title>2023-10-15 21.7 km</title></rect><rect fill="#444444" height="2.6" width="2.6" x="157.0" y="45.5"><title>2023-10-16</title></rect><rect fill="#444444" height="2.6" width="2.6" x="157.0" y="49.0"><title>2023-10-17</title></rect><rect fill="#444444" height="2.6" width="2.6" x="157.0" y="52.5"><title>2023-10-18</title></rect><rect fill="#ffc900" height="2.6" width="2.6" x="157.0" y="56.0"><title>2023-10-19 10.1 km</title></rect><rect fill="#444444" height="2.6" width="2.6" x="157.0" y="59.5"><title>2023-10-20</title></rect><rect fill="#4dd2ff" height="2.6" width="2.6" x="157.0" y="63.0"><title>2023-10-21 7.6 km</title></rect><rect fill="red" height="2.6" width="2.6" x="157.0" y="66.5"><title>2023-10-22 42.2 km</title></rect><rect fill="#444444" height="2.6" width="2.6" x="160.5" y="45.5"><title>2023-10-23</title></rect><rect fill="#444444" height="2.6" width="2.6" x="160.5" y="49.0"><title>2023-10-24</title></rect><rect fill="#444444" height="2.6" width="2.6" x="160.5" y="52.5"><title>2023-10-25</title></rect><rect fill="#444444" height="2.6" width="2.6" x="160.5" y="56.0"><title>2023-10-26</title></rect><rect fill="#4dd2ff" height="2.6" width="2.6" x="160.5" y="59.5"><title>2023-10-27 0.9 km</title></rect><rect fill="#444444" height="2.6" width="2.6" x="160.5" y="63.0"><title>2023-10-28</title></rect><rect fill="#444444" height="2.6" width="2.6" x="160.5" y="66.5"><title>2023-10-29</title></rect><rect fill="#4dd2ff" height="2.6" width="2.6" x="164.0" y="45.5"><title>2023-10-30 3.7 km</title></rect><rect fill="#4dd2ff" height="2.6" width="2.6" x="164.0" y="49.0"><title>2023-10-31 9.5 km</title></rect><rect fill="#444444" height="2.6" width="2.6" x="164.0" y="52.5"><title>2023-11-01</title></rect><rect fill="#4dd2ff" height="2.6" width="2.6" x="164.0" y="56.0"><title>2023-11-02 8.3 km</title></rect><rect fill="#444444" height="2.6" width="2.6" x="164.0" y="59.5"><title>2023-11-03</title></rect><rect fill="#ffc900" height="2.6" width="2.6" x="164.0" y="63.0"><title>2023-11-04 10.2 km</title></rect><rect fill="red" height="2.6" width="2.6" x="164.0" y="66.5"><title>2023-11-05 21.2 km</title></rect><rect fill="#444444" height="2.6" width="2.6" x="167.5" y="45.5"><title>2023-11-06</title></rect><rect fill="#4dd2ff" height="2.6" width="2.6" x="167.5" y="49.0"><title>2023-11-07 10.0 km</title></rect><rect fill="#444444" height="2.6" width="2.6" x="167.5" y="52.5"><title>2023-11-08</title></rect><rect fill="#444444" height="2.6" width="2.6" x="167.5" y="56.0"><title>2023-11-09</title></rect><rect fill="#4dd2ff" height="2.6" width="2.6" x="167.5" y="59.5"><title>2023-11-10 9.1 km</title></rect><rect fill="red" height="2.6" width="2.6" x="167.5" y="63.0"><title>2023-11-11 31.4 km</title></rect><rect fill="#ffc700" height="2.6" width="2.6" x="167.5" y="66.5"><title>2023-11-12 10.5 km</title></rect><rect fill="#444444" height="2.6" width="2.6" x="171.0" y="45.5"><title>2023-11-13</title></rect><rect fill="#444444" height="2.6" width="2.6" x="171.0" y="49.0"><title>2023-11-14</title></rect><rect fill="#444444" height="2.6" width="2.6" x="171.0" y="52.5"><title>2023-11-15</title></rect><rect fill="#ffca00" height="2.6" width="2.6" x="171.0" y="56.0"><title>2023-11-16 10.0 km</title></rect><rect fill="#444444" height="2.6" width="2.6" x="171.0" y="59.5"><title>2023-11-17</title></rect><rect fill="red" height="2.6" width="2.6" x="171.0" y="63.0"><title>2023-11-18 44.6 km</title></rect><rect fill="#4dd2ff" height="2.6" width="2.6" x="171.0" y="66.5"><title>2023-11-19 7.7 km</title></rect><rect fill="#444444" height="2.6" width="2.6" x="174.5" y="45.5"><title>2023-11-20</title></rect><rect fill="#ffa700" height="2.6" width="2.6" x="174.5" y="49.0"><title>2023-11-21 16.0 km</title></rect><rect fill="#4dd2ff" height="2.6" width="2.6" x="174.5" y="52.5"><title>2023-11-22 3.5 km</title></rect><rect fill="#4dd2ff" height="2.6" width="2.6" x="174.5" y="56.0"><title>2023-11-23 6.8 km</title></rect><rect fill="#444444" height="2.6" width="2.6" x="174.5" y="59.5"><title>2023-11-24</title></rect><rect fill="#444444" height="2.6" width="2.6" x="174.5" y="63.0"><title>2023-11-25</title></rect><rect fill="red" height="2.6" width="2.6" x="174.5" y="66.5"><title>2023-11-26 43.1 km</title></rect><rect fill="#444444" height="2.6" width="2.6" x="178.0" y="45.5"><title>2023-11-27</title></rect><rect fill="#4dd2ff" height="2.6" width="2.6" x="178.0" y="49.0"><title>2023-11-28 3.4 km</title></rect><rect fill="#444444" height="2.6" width="2.6" x="178.0" y="52.5"><title>2023-11-29</title></rect><rect fill="#444444" height="2.6" width="2.6" x="178.0" y="56.0"><title>2023-11-30</title></rect><rect fill="#444444" height="2.6" width="2.6" x="178.0" y="59.5"><title>2023-12-01</title></rect><rect fill="#4dd2ff" height="2.6" width="2.6" x="178.0" y="63.0"><title>2023-12-02 7.4 km</title></rect><rect fill="#444444" height="2.6" width="2.6" x="178.0" y="66.5"><title>2023-12-03</title></rect><rect fill="#444444" height="2.6" width="2.6" x="181.5" y="45.5"><title>2023-12-04</title></rect><rect fill="#ffbe00" height="2.6" width="2.6" x="181.5" y="49.0"><title>2023-12-05 12.0 km</title></rect><rect fill="#ffc800" height="2.6" width="2.6" x="181.5" y="52.5"><title>2023-12-06 10.4 km</title></rect><rect fill="#ffaa00" height="2.6" width="2.6" x="181.5" y="56.0"><title>2023-12-07 15.5 km</title></rect><rect fill="#444444" height="2.6" width="2.6" x="181.5" y="59.5"><title>2023-12-08</title></rect><rect fill="#4dd2ff" height="2.6" width="2.6" x="181.5" y="63.0"><title>2023-12-09 7.2 km</title></rect><rect fill="#444444" height="2.6" width="2.6" x="181.5" y="66.5"><title>2023-12-10</title></rect><rect fill="#ffb500" height="2.6" width="2.6" x="185.0" y="45.5"><title>2023-12-11 13.7 km</title></rect><rect fill="#444444" height="2.6" width="2.6" x="185.0" y="49.0"><title>2023-12-12</title></rect><rect fill="red" height="2.6" width="2.6" x="185.0" y="52.5"><title>2023-12-13 22.4 km</title></rect><rect fill="#444444" height="2.6" width="2.6" x="185.0" y="56.0"><title>2023-12-14</title></rect><rect fill="#444444" height="2.6" width="2.6" x="185.0" y="59.5"><title>2023-12-15</title></rect><rect fill="#444444" height="2.6" width="2.6" x="185.0" y="63.0"><title>2023-12-16</title></rect><rect fill="#ffc300" height="2.6" width="2.6" x="185.0" y="66.5"><title>2023-12-17 11.2 km</title></rect><rect fill="#444444" height="2.6" width="2.6" x="188.5" y="45.5"><title>2023-12-18</title></rect><rect fill="#444444" height="2.6" width="2.6" x="188.5" y="49.0"><title>2023-12-19</title></rect><rect fill="#444444" height="2.6" width="2.6" x="188.5" y="52.5"><title>2023-12-20</title></rect><rect fill="#444444" height="2.6" width="2.6" x="188.5" y="56.0"><title>2023-12-21</title></rect><rect fill="#444444" height="2.6" width="2.6" x="188.5" y="59.5"><title>2023-12-22</title></rect><rect fill="#ffb300" height="2.6" width="2.6" x="188.5" y="63.0"><title>2023-12-23 14.0 km</title></rect><rect fill="#444444" height="2.6" width="2.6" x="188.5" y="66.5"><title>2023-12-24</title></rect><rect fill="#444444" height="2.6" width="2.6" x="192.0" y="45.5"><title>2023-12-25</title></rect><rect fill="#444444" height="2.6" width="2.6" x="192.0" y="49.0"><title>2023-12-26</title></rect><rect fill="#ffbe00" height="2.6" width="2.6" x="192.0" y="52.5"><title>2023-12-27 12.0 km</title></rect><rect fill="#444444" height="2.6" width="2.6" x="192.0" y="56.0"><title>2023-12-28</title></rect><rect fill="#ffbe00" height="2.6" width="2.6" x="192.0" y="59.5"><title>2023-12-29 12.0 km</title></rect><rect fill="#ffbe00" height="2.6" width="2.6" x="192.0" y="63.0"><title>2023-12-30 12.0 km</title></rect><rect fill="#444444" height="2.6" width="2.6" x="192.0" y="66.5"><title>2023-12-31</title></rect></svg>