<?xml version="1.0" encoding="utf-8" ?>
<svg baseProfile="full" height="98mm" version="1.1" viewBox="0,0,200,98" width="200mm" xmlns="http://www.w3.org/2000/svg" xmlns:ev="http://www.w3.org/2001/xml-events" xmlns:xlink="http://www.w3.org/1999/xlink"><defs /><rect fill="#222222" height="98" width="200" x="0" y="0" /><text fill="#FFFFFF" style="font-size:12px; font-family:Arial; font-weight:bold;" x="10" y="20">2024 Running</text><text fill="#FFFFFF" style="font-size:4px; font-family:Arial" x="10" y="78">ATHLETE</text><text fill="#FFFFFF" style="font-size:9px; font-family:Arial" x="10" y="88">yihong0618</text><text fill="#FFFFFF" style="font-size:4px; font-family:Arial" x="120" y="78">STATISTICS</text><text fill="#FFFFFF" style="font-size:3px; font-family:Arial" x="120" y="83">Number: 489</text><text fill="#FFFFFF" style="font-size:3px; font-family:Arial" x="120" y="88">Weekly: 9.6</text><text fill="#FFFFFF" style="font-size:3px; font-family:Arial" x="141" y="83">Total: 1848.1 km</text><text fill="#FFFFFF" style="font-size:3px; font-family:Arial" x="141" y="88">Avg: 3.8 km</text><text fill="#FFFFFF" style="font-size:3px; font-family:Arial" x="167" y="83">Min: 0.5 km</text><text fill="#FFFFFF" style="font-size:3px; font-family:Arial" x="167" y="88">Max: 21.3 km</text><text dominant-baseline="hanging" fill="#FFFFFF" style="font-size:10.0px; font-family:Arial;" x="10" y="30">2024</text><text dominant-baseline="hanging" fill="#FFFFFF" style="font-size:4.125px; font-family:Arial;" x="175" y="35">1848.1 km</text><text fill="#FFFFFF" style="font-size:2.5px; font-family:Arial" x="10.0" y="44">Jan</text><text fill="#FFFFFF" style="font-size:2.5px; font-family:Arial" x="25.5" y="44">Feb</text><text fill="#FFFFFF" style="font-size:2.5px; font-family:Arial" x="41.0" y="44">Mar</text><text fill="#FFFFFF" style="font-size:2.5px; font-family:Arial" x="56.5" y="44">Apr</text><text fill="#FFFFFF" style="font-size:2.5px; font-family:Arial" x="72.0" y="44">May</text><text fill="#FFFFFF" style="font-size:2.5px; font-family:Arial" x="87.5" y="44">Jun</text><text fill="#FFFFFF" style="font-size:2.5px; font-family:Arial" x="103.0" y="44">Jul</text><text fill="#FFFFFF" style="font-size:2.5px; font-family:Arial" x="118.5" y="44">Aug</text><text fill="#FFFFFF" style="font-size:2.5px; font-family:Arial" x="134.0" y="44">Sep</text><text fill="#FFFFFF" style="font-size:2.5px; font-family:Arial" x="149.5" y="44">Oct</text><text fill="#FFFFFF" style="font-size:2.5px; font-family:Arial" x="165.0" y="44">Nov</text><text fill="#FFFFFF" style="font-size:2.5px; font-family:Arial" x="180.5" y="44">Dec</text><rect fill="#4dd2ff" height="2.6" width="2.6" x="10.0" y="45.5"><title>2024-01-01 2.4 km</title></rect><rect fill="#4dd2ff" height="2.6" width="2.6" x="10.0" y="49.0"><title>2024-01-02 3.8 km</title></rect><rect fill="#4dd2ff" height="2.6" width="2.6" x="10.0" y="52.5"><title>2024-01-03 3.3 km</title></rect><rect fill="#4dd2ff" height="2.6" width="2.6" x="10.0" y="56.0"><title>2024-01-04 4.7 km</title></rect><rect fill="#4dd2ff" height="2.6" width="2.6" x="10.0" y="59.5"><title>2024-01-05 2.9 km</title></rect><rect fill="#4dd2ff" height="2.6" width="2.6" x="10.0" y="63.0"><title>2024-01-06 3.1 km</title></rect><rect fill="#4dd2ff" height="2.6" width="2.6" x="10.0" y="66.5"><title>2024-01-07 2.8 km</title></rect><rect fill="#4dd2ff" height="2.6" width="2.6" x="13.5" y="45.5"><title>2024-01-08 3.3 km</title></rect><rect fill="#4dd2ff" height="2.6" width="2.6" x="13.5" y="49.0"><title>2024-01-09 3.7 km</title></rect><rect fill="#4dd2ff" height="2.6" width="2.6" x="13.5" y="52.5"><title>2024-01-10 3.9 km</title></rect><rect fill="#4dd2ff" height="2.6" width="2.6" x="13.5" y="56.0"><title>2024-01-11 2.5 km</title></rect><rect fill="#4dd2ff" height="2.6" width="2.6" x="13.5" y="59.5"><title>2024-01-12 3.3 km</title></rect><rect fill="#4dd2ff" height="2.6" width="2.6" x="13.5" y="63.0"><title>2024-01-13 5.3 km</title></rect><rect fill="#4dd2ff" height="2.6" width="2.6" x="13.5" y="66.5"><title>2024-01-14 3.2 km</title></rect><rect fill="#4dd2ff" height="2.6" width="2.6" x="17.0" y="45.5"><title>2024-01-15 1.7 km</title></rect><rect fill="#4dd2ff" height="2.6" width="2.6" x="17.0" y="49.0"><title>2024-01-16 3.8 km</title></rect><rect fill="#4dd2ff" height="2.6" width="2.6" x="17.0" y="52.5"><title>2024-01-17 3.2 km</title></rect><rect fill="#4dd2ff" height="2.6" width="2.6" x="17.0" y="56.0"><title>2024-01-18 2.5 km</title></rect><rect fill="#4dd2ff" height="2.6" width="2.6" x="17.0" y="59.5"><title>2024-01-19 4.7 km</title></rect><rect fill="#4dd2ff" height="2.6" width="2.6" x="17.0" y="63.0"><title>2024-01-20 3.3 km</title></rect><rect fill="#4dd2ff" height="2.6" width="2.6" x="17.0" y="66.5"><title>2024-01-21 1.5 km</title></rect><rect fill="#4dd2ff" height="2.6" width="2.6" x="20.5" y="45.5"><title>2024-01-22 1.5 km</title></rect><rect fill="#4dd2ff" height="2.6" width="2.6" x="20.5" y="49.0"><title>2024-01-23 3.2 km</title></rect><rect fill="#4dd2ff" height="2.6" width="2.6" x="20.5" y="52.5"><title>2024-01-24 3.3 km</title></rect><rect fill="#4dd2ff" height="2.6" width="2.6" x="20.5" y="56.0"><title>2024-01-25 1.4 km</title></rect><rect fill="#4dd2ff" height="2.6" width="2.6" x="20.5" y="59.5"><title>2024-01-26 3.0 km</title></rect><rect fill="#4dd2ff" height="2.6" width="2.6" x="20.5" y="63.0"><title>2024-01-27 1.1 km</title></rect><rect fill="#4dd2ff" height="2.6" width="2.6" x="20.5" y="66.5"><title>2024-01-28 3.3 km</title></rect><rect fill="#4dd2ff" height="2.6" width="2.6" x="24.0" y="45.5"><title>2024-01-29 2.2 km</title></rect><rect fill="#444444" height="2.6" width="2.6" x="24.0" y="49.0"><title>2024-01-30</title></rect><rect fill="#444444" height="2.6" width="2.6" x="24.0" y="52.5"><title>2024-01-31</title></rect><rect fill="#4dd2ff" height="2.6" width="2.6" x="24.0" y="56.0"><title>2024-02-01 1.5 km</title></rect><rect fill="#4dd2ff" height="2.6" width="2.6" x="24.0" y="59.5"><title>2024-02-02 2.1 km</title></rect><rect fill="#4dd2ff" height="2.6" width="2.6" x="24.0" y="63.0"><title>2024-02-03 1.3 km</title></rect><rect fill="#4dd2ff" height="2.6" width="2.6" x="24.0" y="66.5"><title>2024-02-04 1.1 km</title></rect><rect fill="#4dd2ff" height="2.6" width="2.6" x="27.5" y="45.5"><title>2024-02-05 2.7 km</title></rect><rect fill="#4dd2ff" height="2.6" width="2.6" x="27.5" y="49.0"><title>2024-02-06 1.6 km</title></rect><rect fill="#4dd2ff" height="2.6" width="2.6" x="27.5" y="52.5"><title>2024-02-07 2.7 km</title></rect><rect fill="#444444" height="2.6" width="2.6" x="27.5" y="56.0"><title>2024-02-08</title></rect><rect fill="#444444" height="2.6" width="2.6" x="27.5" y="59.5"><title>2024-02-09</title></rect><rect fill="#444444" height="2.6" width="2.6" x="27.5" y="63.0"><title>2024-02-10</title></rect><rect fill="#444444" height="2.6" width="2.6" x="27.5" y="66.5"><title>2024-02-11</title></rect><rect fill="#4dd2ff" height="2.6" width="2.6" x="31.0" y="45.5"><title>2024-02-12 0.7 km</title></rect><rect fill="#4dd2ff" height="2.6" width="2.6" x="31.0" y="49.0"><title>2024-02-13 1.9 km</title></rect><rect fill="#444444" height="2.6" width="2.6" x="31.0" y="52.5"><title>2024-02-14</title></rect><rect fill="#444444" height="2.6" width="2.6" x="31.0" y="56.0"><title>2024-02-15</title></rect><rect fill="#444444" height="2.6" width="2.6" x="31.0" y="59.5"><title>2024-02-16</title></rect><rect fill="#444444" height="2.6" width="2.6" x="31.0" y="63.0"><title>2024-02-17</title></rect><rect fill="#444444" height="2.6" width="2.6" x="31.0" y="66.5"><title>2024-02-18</title></rect><rect fill="#444444" height="2.6" width="2.6" x="34.5" y="45.5"><title>2024-02-19</title></rect><rect fill="#444444" height="2.6" width="2.6" x="34.5" y="49.0"><title>2024-02-20</title></rect><rect fill="#444444" height="2.6" width="2.6" x="34.5" y="52.5"><title>2024-02-21</title></rect><rect fill="#444444" height="2.6" width="2.6" x="34.5" y="56.0"><title>2024-02-22</title></rect><rect fill="#444444" height="2.6" width="2.6" x="34.5" y="59.5"><title>2024-02-23</title></rect><rect fill="#444444" height="2.6" width="2.6" x="34.5" y="63.0"><title>2024-02-24</title></rect><rect fill="#444444" height="2.6" width="2.6" x="34.5" y="66.5"><title>2024-02-25</title></rect><rect fill="#444444" height="2.6" width="2.6" x="38.0" y="45.5"><title>2024-02-26</title></rect><rect fill="#444444" height="2.6" width="2.6" x="38.0" y="49.0"><title>2024-02-27</title></rect><rect fill="#444444" height="2.6" width="2.6" x="38.0" y="52.5"><title>2024-02-28</title></rect><rect fill="#4dd2ff" height="2.6" width="2.6" x="38.0" y="56.0"><title>2024-02-29 1.7 km</title></rect><rect fill="#4dd2ff" height="2.6" width="2.6" x="38.0" y="59.5"><title>2024-03-01 1.5 km</title></rect><rect fill="#4dd2ff" height="2.6" width="2.6" x="38.0" y="63.0"><title>2024-03-02 1.2 km</title></rect><rect fill="#4dd2ff" height="2.6" width="2.6" x="38.0" y="66.5"><title>2024-03-03 2.1 km</title></rect><rect fill="#4dd2ff" height="2.6" width="2.6" x="41.5" y="45.5"><title>2024-03-04 1.1 km</title></rect><rect fill="#4dd2ff" height="2.6" width="2.6" x="41.5" y="49.0"><title>2024-03-05 2.1 km</title></rect><rect fill="#4dd2ff" height="2.6" width="2.6" x="41.5" y="52.5"><title>2024-03-06 1.2 km</title></rect><rect fill="#4dd2ff" height="2.6" width="2.6" x="41.5" y="56.0"><title>2024-03-07 2.2 km</title></rect><rect fill="#4dd2ff" height="2.6" width="2.6" x="41.5" y="59.5"><title>2024-03-08 1.4 km</title></rect><rect fill="#444444" height="2.6" width="2.6" x="41.5" y="63.0"><title>2024-03-09</title></rect><rect fill="#4dd2ff" height="2.6" width="2.6" x="41.5" y="66.5"><title>2024-03-10 1.0 km</title></rect><rect fill="#4dd2ff" height="2.6" width="2.6" x="45.0" y="45.5"><title>2024-03-11 2.1 km</title></rect><rect fill="#444444" height="2.6" width="2.6" x="45.0" y="49.0"><title>2024-03-12</title></rect><rect fill="#4dd2ff" height="2.6" width="2.6" x="45.0" y="52.5"><title>2024-03-13 2.8 km</title></rect><rect fill="#4dd2ff" height="2.6" width="2.6" x="45.0" y="56.0"><title>2024-03-14 2.5 km</title></rect><rect fill="#4dd2ff" height="2.6" width="2.6" x="45.0" y="59.5"><title>2024-03-15 1.3 km</title></rect><rect fill="#4dd2ff" height="2.6" width="2.6" x="45.0" y="63.0"><title>2024-03-16 1.1 km</title></rect><rect fill="#4dd2ff" height="2.6" width="2.6" x="45.0" y="66.5"><title>2024-03-17 2.0 km</title></rect><rect fill="#4dd2ff" height="2.6" width="2.6" x="48.5" y="45.5"><title>2024-03-18 1.2 km</title></rect><rect fill="#4dd2ff" height="2.6" width="2.6" x="48.5" y="49.0"><title>2024-03-19 2.5 km</title></rect><rect fill="#4dd2ff" height="2.6" width="2.6" x="48.5" y="52.5"><title>2024-03-20 2.1 km</title></rect><rect fill="#4dd2ff" height="2.6" width="2.6" x="48.5" y="56.0"><title>2024-03-21 2.7 km</title></rect><rect fill="#4dd2ff" height="2.6" width="2.6" x="48.5" y="59.5"><title>2024-03-22 1.0 km</title></rect><rect fill="#4dd2ff" height="2.6" width="2.6" x="48.5" y="63.0"><title>2024-03-23 2.0 km</title></rect><rect fill="#4dd2ff" height="2.6" width="2.6" x="48.5" y="66.5"><title>2024-03-24 2.6 km</title></rect><rect fill="#4dd2ff" height="2.6" width="2.6" x="52.0" y="45.5"><title>2024-03-25 1.1 km</title></rect><rect fill="#4dd2ff" height="2.6" width="2.6" x="52.0" y="49.0"><title>2024-03-26 2.1 km</title></rect><rect fill="#4dd2ff" height="2.6" width="2.6" x="52.0" y="52.5"><title>2024-03-27 2.3 km</title></rect><rect fill="#4dd2ff" height="2.6" width="2.6" x="52.0" y="56.0"><title>2024-03-28 2.1 km</title></rect><rect fill="#4dd2ff" height="2.6" width="2.6" x="52.0" y="59.5"><title>2024-03-29 2.1 km</title></rect><rect fill="#4dd2ff" height="2.6" width="2.6" x="52.0" y="63.0"><title>2024-03-30 2.0 km</title></rect><rect fill="#4dd2ff" height="2.6" width="2.6" x="52.0" y="66.5"><title>2024-03-31 3.5 km</title></rect><rect fill="#4dd2ff" height="2.6" width="2.6" x="55.5" y="45.5"><title>2024-04-01 2.6 km</title></rect><rect fill="#4dd2ff" height="2.6" width="2.6" x="55.5" y="49.0"><title>2024-04-02 3.1 km</title></rect><rect fill="#4dd2ff" height="2.6" width="2.6" x="55.5" y="52.5"><title>2024-04-03 2.1 km</title></rect><rect fill="#4dd2ff" height="2.6" width="2.6" x="55.5" y="56.0"><title>2024-04-04 3.1 km</title></rect><rect fill="#4dd2ff" height="2.6" width="2.6" x="55.5" y="59.5"><title>2024-04-05 2.0 km</title></rect><rect fill="#4dd2ff" height="2.6" width="2.6" x="55.5" y="63.0"><title>2024-04-06 2.2 km</title></rect><rect fill="#4dd2ff" height="2.6" width="2.6" x="55.5" y="66.5"><title>2024-04-07 4.1 km</title></rect><rect fill="#4dd2ff" height="2.6" width="2.6" x="59.0" y="45.5"><title>2024-04-08 3.1 km</title></rect><rect fill="#4dd2ff" height="2.6" width="2.6" x="59.0" y="49.0"><title>2024-04-09 2.1 km</title></rect><rect fill="#4dd2ff" height="2.6" width="2.6" x="59.0" y="52.5"><title>2024-04-10 3.0 km</title></rect><rect fill="#4dd2ff" height="2.6" width="2.6" x="59.0" y="56.0"><title>2024-04-11 3.1 km</title></rect><rect fill="#4dd2ff" height="2.6" width="2.6" x="59.0" y="59.5"><title>2024-04-12 3.6 km</title></rect><rect fill="#4dd2ff" height="2.6" width="2.6" x="59.0" y="63.0"><title>2024-04-13 5.8 km</title></rect><rect fill="#4dd2ff" height="2.6" width="2.6" x="59.0" y="66.5"><title>2024-04-14 1.5 km</title></rect><rect fill="#4dd2ff" height="2.6" width="2.6" x="62.5" y="45.5"><title>2024-04-15 3.1 km</title></rect><rect fill="#4dd2ff" height="2.6" width="2.6" x="62.5" y="49.0"><title>2024-04-16 3.1 km</title></rect><rect fill="#4dd2ff" height="2.6" width="2.6" x="62.5" y="52.5"><title>2024-04-17 3.6 km</title></rect><rect fill="#4dd2ff" height="2.6" width="2.6" x="62.5" y="56.0"><title>2024-04-18 3.7 km</title></rect><rect fill="#4dd2ff" height="2.6" width="2.6" x="62.5" y="59.5"><title>2024-04-19 3.2 km</title></rect><rect fill="#4dd2ff" height="2.6" width="2.6" x="62.5" y="63.0"><title>2024-04-20 6.7 km</title></rect><rect fill="#4dd2ff" height="2.6" width="2.6" x="62.5" y="66.5"><title>2024-04-21 3.3 km</title></rect><rect fill="#4dd2ff" height="2.6" width="2.6" x="66.0" y="45.5"><title>2024-04-22 2.7 km</title></rect><rect fill="#4dd2ff" height="2.6" width="2.6" x="66.0" y="49.0"><title>2024-04-23 2.6 km</title></rect><rect fill="#4dd2ff" height="2.6" width="2.6" x="66.0" y="52.5"><title>2024-04-24 4.1 km</title></rect><rect fill="#4dd2ff" height="2.6" width="2.6" x="66.0" y="56.0"><title>2024-04-25 2.9 km</title></rect><rect fill="#4dd2ff" height="2.6" width="2.6" x="66.0" y="59.5"><title>2024-04-26 3.7 km</title></rect><rect fill="#4dd2ff" height="2.6" width="2.6" x="66.0" y="63.0"><title>2024-04-27 6.2 km</title></rect><rect fill="#4dd2ff" height="2.6" width="2.6" x="66.0" y="66.5"><title>2024-04-28 6.1 km</title></rect><rect fill="#4dd2ff" height="2.6" width="2.6" x="69.5" y="45.5"><title>2024-04-29 4.7 km</title></rect><rect fill="#4dd2ff" height="2.6" width="2.6" x="69.5" y="49.0"><title>2024-04-30 5.8 km</title></rect><rect fill="#4dd2ff" height="2.6" width="2.6" x="69.5" y="52.5"><title>2024-05-01 3.3 km</title></rect><rect fill="#4dd2ff" height="2.6" width="2.6" x="69.5" y="56.0"><title>2024-05-02 1.0 km</title></rect><rect fill="#4dd2ff" height="2.6" width="2.6" x="69.5" y="59.5"><title>2024-05-03 5.2 km</title></rect><rect fill="#4dd2ff" height="2.6" width="2.6" x="69.5" y="63.0"><title>2024-05-04 6.1 km</title></rect><rect fill="#4dd2ff" height="2.6" width="2.6" x="69.5" y="66.5"><title>2024-05-05 2.4 km</title></rect><rect fill="#4dd2ff" height="2.6" width="2.6" x="73.0" y="45.5"><title>2024-05-06 4.2 km</title></rect><rect fill="#4dd2ff" height="2.6" width="2.6" x="73.0" y="49.0"><title>2024-05-07 4.0 km</title></rect><rect fill="#4dd2ff" height="2.6" width="2.6" x="73.0" y="52.5"><title>2024-05-08 5.3 km</title></rect><rect fill="#4dd2ff" height="2.6" width="2.6" x="73.0" y="56.0"><title>2024-05-09 3.4 km</title></rect><rect fill="#4dd2ff" height="2.6" width="2.6" x="73.0" y="59.5"><title>2024-05-10 4.2 km</title></rect><rect fill="#4dd2ff" height="2.6" width="2.6" x="73.0" y="63.0"><title>2024-05-11 4.1 km</title></rect><rect fill="#4dd2ff" height="2.6" width="2.6" x="73.0" y="66.5"><title>2024-05-12 7.0 km</title></rect><rect fill="#4dd2ff" height="2.6" width="2.6" x="76.5" y="45.5"><title>2024-05-13 4.5 km</title></rect><rect fill="#4dd2ff" height="2.6" width="2.6" x="76.5" y="49.0"><title>2024-05-14 3.1 km</title></rect><rect fill="#4dd2ff" height="2.6" width="2.6" x="76.5" y="52.5"><title>2024-05-15 4.2 km</title></rect><rect fill="#4dd2ff" height="2.6" width="2.6" x="76.5" y="56.0"><title>2024-05-16 5.8 km</title></rect><rect fill="#4dd2ff" height="2.6" width="2.6" x="76.5" y="59.5"><title>2024-05-17 4.4 km</title></rect><rect fill="#4dd2ff" height="2.6" width="2.6" x="76.5" y="63.0"><title>2024-05-18 5.4 km</title></rect><rect fill="#4dd2ff" height="2.6" width="2.6" x="76.5" y="66.5"><title>2024-05-19 8.2 km</title></rect><rect fill="#4dd2ff" height="2.6" width="2.6" x="80.0" y="45.5"><title>2024-05-20 5.7 km</title></rect><rect fill="#4dd2ff" height="2.6" width="2.6" x="80.0" y="49.0"><title>2024-05-21 6.2 km</title></rect><rect fill="#4dd2ff" height="2.6" width="2.6" x="80.0" y="52.5"><title>2024-05-22 6.8 km</title></rect><rect fill="#4dd2ff" height="2.6" width="2.6" x="80.0" y="56.0"><title>2024-05-23 5.7 km</title></rect><rect fill="#4dd2ff" height="2.6" width="2.6" x="80.0" y="59.5"><title>2024-05-24 5.2 km</title></rect><rect fill="#ff7200" height="2.6" width="2.6" x="80.0" y="63.0"><title>2024-05-25 12.0 km</title></rect><rect fill="#4dd2ff" height="2.6" width="2.6" x="80.0" y="66.5"><title>2024-05-26 5.1 km</title></rect><rect fill="#4dd2ff" height="2.6" width="2.6" x="83.5" y="45.5"><title>2024-05-27 5.2 km</title></rect><rect fill="#4dd2ff" height="2.6" width="2.6" x="83.5" y="49.0"><title>2024-05-28 6.2 km</title></rect><rect fill="#4dd2ff" height="2.6" width="2.6" x="83.5" y="52.5"><title>2024-05-29 5.8 km</title></rect><rect fill="#4dd2ff" height="2.6" width="2.6" x="83.5" y="56.0"><title>2024-05-30 3.7 km</title></rect><rect fill="#4dd2ff" height="2.6" width="2.6" x="83.5" y="59.5"><title>2024-05-31 6.3 km</title></rect><rect fill="#4dd2ff" height="2.6" width="2.6" x="83.5" y="63.0"><title>2024-06-01 5.6 km</title></rect><rect fill="#4dd2ff" height="2.6" width="2.6" x="83.5" y="66.5"><title>2024-06-02 7.7 km</title></rect><rect fill="#4dd2ff" height="2.6" width="2.6" x="87.0" y="45.5"><title>2024-06-03 4.3 km</title></rect><rect fill="#4dd2ff" height="2.6" width="2.6" x="87.0" y="49.0"><title>2024-06-04 6.2 km</title></rect><rect fill="#4dd2ff" height="2.6" width="2.6" x="87.0" y="52.5"><title>2024-06-05 8.3 km</title></rect><rect fill="#4dd2ff" height="2.6" width="2.6" x="87.0" y="56.0"><title>2024-06-06 4.7 km</title></rect><rect fill="#4dd2ff" height="2.6" width="2.6" x="87.0" y="59.5"><title>2024-06-07 5.6 km</title></rect><rect fill="#4dd2ff" height="2.6" width="2.6" x="87.0" y="63.0"><title>2024-06-08 3.1 km</title></rect><rect fill="#4dd2ff" height="2.6" width="2.6" x="87.0" y="66.5"><title>2024-06-09 3.6 km</title></rect><rect fill="#ff8a00" height="2.6" width="2.6" x="90.5" y="45.5"><title>2024-06-10 10.0 km</title></rect><rect fill="#4dd2ff" height="2.6" width="2.6" x="90.5" y="49.0"><title>2024-06-11 6.3 km</title></rect><rect fill="#4dd2ff" height="2.6" width="2.6" x="90.5" y="52.5"><title>2024-06-12 4.7 km</title></rect><rect fill="#4dd2ff" height="2.6" width="2.6" x="90.5" y="56.0"><title>2024-06-13 6.2 km</title></rect><rect fill="#ff8600" height="2.6" width="2.6" x="90.5" y="59.5"><title>2024-06-14 10.4 km</title></rect><rect fill="#4dd2ff" height="2.6" width="2.6" x="90.5" y="63.0"><title>2024-06-15 7.0 km</title></rect><rect fill="#ff8500" height="2.6" width="2.6" x="90.5" y="66.5"><title>2024-06-16 10.5 km</title></rect><rect fill="#4dd2ff" height="2.6" width="2.6" x="94.0" y="45.5"><title>2024-06-17 5.2 km</title></rect><rect fill="#4dd2ff" height="2.6" width="2.6" x="94.0" y="49.0"><title>2024-06-18 3.1 km</title></rect><rect fill="#4dd2ff" height="2.6" width="2.6" x="94.0" y="52.5"><title>2024-06-19 7.2 km</title></rect><rect fill="#4dd2ff" height="2.6" width="2.6" x="94.0" y="56.0"><title>2024-06-20 6.7 km</title></rect><rect fill="#4dd2ff" height="2.6" width="2.6" x="94.0" y="59.5"><title>2024-06-21 3.1 km</title></rect><rect fill="#ff8900" height="2.6" width="2.6" x="94.0" y="63.0"><title>2024-06-22 10.1 km</title></rect><rect fill="#4dd2ff" height="2.6" width="2.6" x="94.0" y="66.5"><title>2024-06-23 6.3 km</title></rect><rect fill="#4dd2ff" height="2.6" width="2.6" x="97.5" y="45.5"><title>2024-06-24 7.3 km</title></rect><rect fill="#4dd2ff" height="2.6" width="2.6" x="97.5" y="49.0"><title>2024-06-25 8.3 km</title></rect><rect fill="#4dd2ff" height="2.6" width="2.6" x="97.5" y="52.5"><title>2024-06-26 7.3 km</title></rect><rect fill="#4dd2ff" height="2.6" width="2.6" x="97.5" y="56.0"><title>2024-06-27 3.1 km</title></rect><rect fill="#4dd2ff" height="2.6" width="2.6" x="97.5" y="59.5"><title>2024-06-28 5.1 km</title></rect><rect fill="#4dd2ff" height="2.6" width="2.6" x="97.5" y="63.0"><title>2024-06-29 8.6 km</title></rect><rect fill="#4dd2ff" height="2.6" width="2.6" x="97.5" y="66.5"><title>2024-06-30 8.4 km</title></rect><rect fill="#4dd2ff" height="2.6" width="2.6" x="101.0" y="45.5"><title>2024-07-01 6.2 km</title></rect><rect fill="#4dd2ff" height="2.6" width="2.6" x="101.0" y="49.0"><title>2024-07-02 3.1 km</title></rect><rect fill="#4dd2ff" height="2.6" width="2.6" x="101.0" y="52.5"><title>2024-07-03 7.4 km</title></rect><rect fill="#4dd2ff" height="2.6" width="2.6" x="101.0" y="56.0"><title>2024-07-04 5.7 km</title></rect><rect fill="#4dd2ff" height="2.6" width="2.6" x="101.0" y="59.5"><title>2024-07-05 6.3 km</title></rect><rect fill="#4dd2ff" height="2.6" width="2.6" x="101.0" y="63.0"><title>2024-07-06 6.6 km</title></rect><rect fill="#ff8800" height="2.6" width="2.6" x="101.0" y="66.5"><title>2024-07-07 10.2 km</title></rect><rect fill="#4dd2ff" height="2.6" width="2.6" x="104.5" y="45.5"><title>2024-07-08 6.2 km</title></rect><rect fill="#4dd2ff" height="2.6" width="2.6" x="104.5" y="49.0"><title>2024-07-09 4.1 km</title></rect><rect fill="#4dd2ff" height="2.6" width="2.6" x="104.5" y="52.5"><title>2024-07-10 7.3 km</title></rect><rect fill="#4dd2ff" height="2.6" width="2.6" x="104.5" y="56.0"><title>2024-07-11 8.1 km</title></rect><rect fill="#4dd2ff" height="2.6" width="2.6" x="104.5" y="59.5"><title>2024-07-12 7.5 km</title></rect><rect fill="#4dd2ff" height="2.6" width="2.6" x="104.5" y="63.0"><title>2024-07-13 5.3 km</title></rect><rect fill="#4dd2ff" height="2.6" width="2.6" x="104.5" y="66.5"><title>2024-07-14 7.3 km</title></rect><rect fill="#ff8a00" height="2.6" width="2.6" x="108.0" y="45.5"><title>2024-07-15 10.0 km</title></rect><rect fill="#4dd2ff" height="2.6" width="2.6" x="108.0" y="49.0"><title>2024-07-16 9.2 km</title></rect><rect fill="#ff8800" height="2.6" width="2.6" x="108.0" y="52.5"><title>2024-07-17 10.2 km</title></rect><rect fill="#4dd2ff" height="2.6" width="2.6" x="108.0" y="56.0"><title>2024-07-18 6.2 km</title></rect><rect fill="#4dd2ff" height="2.6" width="2.6" x="108.0" y="59.5"><title>2024-07-19 7.2 km</title></rect><rect fill="#4dd2ff" height="2.6" width="2.6" x="108.0" y="63.0"><title>2024-07-20 3.1 km</title></rect><rect fill="#4dd2ff" height="2.6" width="2.6" x="108.0" y="66.5"><title>2024-07-21 8.9 km</title></rect><rect fill="#4dd2ff" height="2.6" width="2.6" x="111.5" y="45.5"><title>2024-07-22 8.5 km</title></rect><rect fill="#4dd2ff" height="2.6" width="2.6" x="111.5" y="49.0"><title>2024-07-23 7.2 km</title></rect><rect fill="#4dd2ff" height="2.6" width="2.6" x="111.5" y="52.5"><title>2024-07-24 6.7 km</title></rect><rect fill="#4dd2ff" height="2.6" width="2.6" x="111.5" y="56.0"><title>2024-07-25 8.3 km</title></rect><rect fill="#4dd2ff" height="2.6" width="2.6" x="111.5" y="59.5"><title>2024-07-26 6.8 km</title></rect><rect fill="#4dd2ff" height="2.6" width="2.6" x="111.5" y="63.0"><title>2024-07-27 1.2 km</title></rect><rect fill="#ff7c00" height="2.6" width="2.6" x="111.5" y="66.5"><title>2024-07-28 11.2 km</title></rect><rect fill="#4dd2ff" height="2.6" width="2.6" x="115.0" y="45.5"><title>2024-07-29 6.3 km</title></rect><rect fill="#4dd2ff" height="2.6" width="2.6" x="115.0" y="49.0"><title>2024-07-30 6.3 km</title></rect><rect fill="#4dd2ff" height="2.6" width="2.6" x="115.0" y="52.5"><title>2024-07-31 7.2 km</title></rect><rect fill="#4dd2ff" height="2.6" width="2.6" x="115.0" y="56.0"><title>2024-08-01 6.8 km</title></rect><rect fill="#4dd2ff" height="2.6" width="2.6" x="115.0" y="59.5"><title>2024-08-02 7.4 km</title></rect><rect fill="#4dd2ff" height="2.6" width="2.6" x="115.0" y="63.0"><title>2024-08-03 3.2 km</title></rect><rect fill="#4dd2ff" height="2.6" width="2.6" x="115.0" y="66.5"><title>2024-08-04 6.1 km</title></rect><rect fill="#ff8700" height="2.6" width="2.6" x="118.5" y="45.5"><title>2024-08-05 10.2 km</title></rect><rect fill="#4dd2ff" height="2.6" width="2.6" x="118.5" y="49.0"><title>2024-08-06 7.9 km</title></rect><rect fill="#4dd2ff" height="2.6" width="2.6" x="118.5" y="52.5"><title>2024-08-07 8.2 km</title></rect><rect fill="#ff6300" height="2.6" width="2.6" x="118.5" y="56.0"><title>2024-08-08 13.2 km</title></rect><rect fill="#4dd2ff" height="2.6" width="2.6" x="118.5" y="59.5"><title>2024-08-09 8.2 km</title></rect><rect fill="#4dd2ff" height="2.6" width="2.6" x="118.5" y="63.0"><title>2024-08-10 6.3 km</title></rect><rect fill="#ff8100" height="2.6" width="2.6" x="118.5" y="66.5"><title>2024-08-11 10.8 km</title></rect><rect fill="#4dd2ff" height="2.6" width="2.6" x="122.0" y="45.5"><title>2024-08-12 7.4 km</title></rect><rect fill="#4dd2ff" height="2.6" width="2.6" x="122.0" y="49.0"><title>2024-08-13 7.4 km</title></rect><rect fill="#4dd2ff" height="2.6" width="2.6" x="122.0" y="52.5"><title>2024-08-14 3.1 km</title></rect><rect fill="#4dd2ff" height="2.6" width="2.6" x="122.0" y="56.0"><title>2024-08-15 8.4 km</title></rect><rect fill="#4dd2ff" height="2.6" width="2.6" x="122.0" y="59.5"><title>2024-08-16 5.1 km</title></rect><rect fill="#4dd2ff" height="2.6" width="2.6" x="122.0" y="63.0"><title>2024-08-17 6.4 km</title></rect><rect fill="#ff6c00" height="2.6" width="2.6" x="122.0" y="66.5"><title>2024-08-18 12.5 km</title></rect><rect fill="#4dd2ff" height="2.6" width="2.6" x="125.5" y="45.5"><title>2024-08-19 6.2 km</title></rect><rect fill="#4dd2ff" height="2.6" width="2.6" x="125.5" y="49.0"><title>2024-08-20 5.1 km</title></rect><rect fill="#4dd2ff" height="2.6" width="2.6" x="125.5" y="52.5"><title>2024-08-21 6.8 km</title></rect><rect fill="#4dd2ff" height="2.6" width="2.6" x="125.5" y="56.0"><title>2024-08-22 7.3 km</title></rect><rect fill="#4dd2ff" height="2.6" width="2.6" x="125.5" y="59.5"><title>2024-08-23 7.5 km</title></rect><rect fill="#4dd2ff" height="2.6" width="2.6" x="125.5" y="63.0"><title>2024-08-24 3.7 km</title></rect><rect fill="#4dd2ff" height="2.6" width="2.6" x="125.5" y="66.5"><title>2024-08-25 5.9 km</title></rect><rect fill="#4dd2ff" height="2.6" width="2.6" x="129.0" y="45.5"><title>2024-08-26 6.0 km</title></rect><rect fill="#4dd2ff" height="2.6" width="2.6" x="129.0" y="49.0"><title>2024-08-27 9.7 km</title></rect><rect fill="#4dd2ff" height="2.6" width="2.6" x="129.0" y="52.5"><title>2024-08-28 6.9 km</title></rect><rect fill="#4dd2ff" height="2.6" width="2.6" x="129.0" y="56.0"><title>2024-08-29 4.9 km</title></rect><rect fill="#4dd2ff" height="2.6" width="2.6" x="129.0" y="59.5"><title>2024-08-30 0.5 km</title></rect><rect fill="#4dd2ff" height="2.6" width="2.6" x="129.0" y="63.0"><title>2024-08-31 3.9 km</title></rect><rect fill="#4dd2ff" height="2.6" width="2.6" x="129.0" y="66.5"><title>2024-09-01 7.1 km</title></rect><rect fill="#4dd2ff" height="2.6" width="2.6" x="132.5" y="45.5"><title>2024-09-02 7.9 km</title></rect><rect fill="#4dd2ff" height="2.6" width="2.6" x="132.5" y="49.0"><title>2024-09-03 7.9 km</title></rect><rect fill="#4dd2ff" height="2.6" width="2.6" x="132.5" y="52.5"><title>2024-09-04 7.1 km</title></rect><rect fill="#4dd2ff" height="2.6" width="2.6" x="132.5" y="56.0"><title>2024-09-05 10.0 km</title></rect><rect fill="#4dd2ff" height="2.6" width="2.6" x="132.5" y="59.5"><title>2024-09-06 6.8 km</title></rect><rect fill="#4dd2ff" height="2.6" width="2.6" x="132.5" y="63.0"><title>2024-09-07 5.0 km</title></rect><rect fill="#4dd2ff" height="2.6" width="2.6" x="132.5" y="66.5"><title>2024-09-08 3.9 km</title></rect><rect fill="#4dd2ff" height="2.6" width="2.6" x="136.0" y="45.5"><title>2024-09-09 6.7 km</title></rect><rect fill="#4dd2ff" height="2.6" width="2.6" x="136.0" y="49.0"><title>2024-09-10 7.0 km</title></rect><rect fill="#4dd2ff" height="2.6" width="2.6" x="136.0" y="52.5"><title>2024-09-11 9.8 km</title></rect><rect fill="#4dd2ff" height="2.6" width="2.6" x="136.0" y="56.0"><title>2024-09-12 6.0 km</title></rect><rect fill="#4dd2ff" height="2.6" width="2.6" x="136.0" y="59.5"><title>2024-09-13 8.0 km</title></rect><rect fill="#4dd2ff" height="2.6" width="2.6" x="136.0" y="63.0"><title>2024-09-14 8.2 km</title></rect><rect fill="#ff8900" height="2.6" width="2.6" x="136.0" y="66.5"><title>2024-09-15 10.1 km</title></rect><rect fill="#4dd2ff" height="2.6" width="2.6" x="139.5" y="45.5"><title>2024-09-16 8.8 km</title></rect><rect fill="#4dd2ff" height="2.6" width="2.6" x="139.5" y="49.0"><title>2024-09-17 8.3 km</title></rect><rect fill="#4dd2ff" height="2.6" width="2.6" x="139.5" y="52.5"><title>2024-09-18 8.9 km</title></rect><rect fill="#ff6200" height="2.6" width="2.6" x="139.5" y="56.0"><title>2024-09-19 13.3 km</title></rect><rect fill="#4dd2ff" height="2.6" width="2.6" x="139.5" y="59.5"><title>2024-09-20 2.0 km</title></rect><rect fill="#4dd2ff" height="2.6" width="2.6" x="139.5" y="63.0"><title>2024-09-21 5.0 km</title></rect><rect fill="#4dd2ff" height="2.6" width="2.6" x="139.5" y="66.5"><title>2024-09-22 9.3 km</title></rect><rect fill="#4dd2ff" height="2.6" width="2.6" x="143.0" y="45.5"><title>2024-09-23 9.9 km</title></rect><rect fill="#4dd2ff" height="2.6" width="2.6" x="143.0" y="49.0"><title>2024-09-24 8.0 km</title></rect><rect fill="#ff5b00" height="2.6" width="2.6" x="143.0" y="52.5"><title>2024-09-25 13.8 km</title></rect><rect fill="#4dd2ff" height="2.6" width="2.6" x="143.0" y="56.0"><title>2024-09-26 7.0 km</title></rect><rect fill="#4dd2ff" height="2.6" width="2.6" x="143.0" y="59.5"><title>2024-09-27 8.7 km</title></rect><rect fill="#ff4a00" height="2.6" width="2.6" x="143.0" y="63.0"><title>2024-09-28 15.2 km</title></rect><rect fill="#4dd2ff" height="2.6" width="2.6" x="143.0" y="66.5"><title>2024-09-29 8.3 km</title></rect><rect fill="#ff7c00" height="2.6" width="2.6" x="146.5" y="45.5"><title>2024-09-30 11.1 km</title></rect><rect fill="#4dd2ff" height="2.6" width="2.6" x="146.5" y="49.0"><title>2024-10-01 1.5 km</title></rect><rect fill="#4dd2ff" height="2.6" width="2.6" x="146.5" y="52.5"><title>2024-10-02 8.9 km</title></rect><rect fill="#4dd2ff" height="2.6" width="2.6" x="146.5" y="56.0"><title>2024-10-03 6.2 km</title></rect><rect fill="#4dd2ff" height="2.6" width="2.6" x="146.5" y="59.5"><title>2024-10-04 8.4 km</title></rect><rect fill="#4dd2ff" height="2.6" width="2.6" x="146.5" y="63.0"><title>2024-10-05 6.9 km</title></rect><rect fill="#4dd2ff" height="2.6" width="2.6" x="146.5" y="66.5"><title>2024-10-06 6.1 km</title></rect><rect fill="#4dd2ff" height="2.6" width="2.6" x="150.0" y="45.5"><title>2024-10-07 5.5 km</title></rect><rect fill="#4dd2ff" height="2.6" width="2.6" x="150.0" y="49.0"><title>2024-10-08 8.0 km</title></rect><rect fill="#4dd2ff" height="2.6" width="2.6" x="150.0" y="52.5"><title>2024-10-09 4.0 km</title></rect><rect fill="#4dd2ff" height="2.6" width="2.6" x="150.0" y="56.0"><title>2024-10-10 8.0 km</title></rect><rect fill="#ff3d00" height="2.6" width="2.6" x="150.0" y="59.5"><title>2024-10-11 16.3 km</title></rect><rect fill="#4dd2ff" height="2.6" width="2.6" x="150.0" y="63.0"><title>2024-10-12 4.0 km</title></rect><rect fill="#ff8a00" height="2.6" width="2.6" x="150.0" y="66.5"><title>2024-10-13 10.0 km</title></rect><rect fill="#4dd2ff" height="2.6" width="2.6" x="153.5" y="45.5"><title>2024-10-14 6.0 km</title></rect><rect fill="#4dd2ff" height="2.6" width="2.6" x="153.5" y="49.0"><title>2024-10-15 6.0 km</title></rect><rect fill="#4dd2ff" height="2.6" width="2.6" x="153.5" y="52.5"><title>2024-10-16 5.0 km</title></rect><rect fill="#4dd2ff" height="2.6" width="2.6" x="153.5" y="56.0"><title>2024-10-17 6.4 km</title></rect><rect fill="#4dd2ff" height="2.6" width="2.6" x="153.5" y="59.5"><title>2024-10-18 1.0 km</title></rect><rect fill="#4dd2ff" height="2.6" width="2.6" x="153.5" y="63.0"><title>2024-10-19 2.0 km</title></rect><rect fill="red" height="2.6" width="2.6" x="153.5" y="66.5"><title>2024-10-20 21.3 km</title></rect><rect fill="#4dd2ff" height="2.6" width="2.6" x="157.0" y="45.5"><title>2024-10-21 3.0 km</title></rect><rect fill="#4dd2ff" height="2.6" width="2.6" x="157.0" y="49.0"><title>2024-10-22 4.0 km</title></rect><rect fill="#4dd2ff" height="2.6" width="2.6" x="157.0" y="52.5"><title>2024-10-23 6.0 km</title></rect><rect fill="#4dd2ff" height="2.6" width="2.6" x="157.0" y="56.0"><title>2024-10-24 7.3 km</title></rect><rect fill="#4dd2ff" height="2.6" width="2.6" x="157.0" y="59.5"><title>2024-10-25 6.1 km</title></rect><rect fill="#4dd2ff" height="2.6" width="2.6" x="157.0" y="63.0"><title>2024-10-26 5.6 km</title></rect><rect fill="#4dd2ff" height="2.6" width="2.6" x="157.0" y="66.5"><title>2024-10-27 5.0 km</title></rect><rect fill="#4dd2ff" height="2.6" width="2.6" x="160.5" y="45.5"><title>2024-10-28 8.0 km</title></rect><rect fill="#4dd2ff" height="2.6" width="2.6" x="160.5" y="49.0"><title>2024-10-29 6.0 km</title></rect><rect fill="#4dd2ff" height="2.6" width="2.6" x="160.5" y="52.5"><title>2024-10-30 4.2 km</title></rect><rect fill="#4dd2ff" height="2.6" width="2.6" x="160.5" y="56.0"><title>2024-10-31 4.0 km</title></rect><rect fill="#4dd2ff" height="2.6" width="2.6" x="160.5" y="59.5"><title>2024-11-01 5.0 km</title></rect><rect fill="#4dd2ff" height="2.6" width="2.6" x="160.5" y="63.0"><title>2024-11-02 5.3 km</title></rect><rect fill="#4dd2ff" height="2.6" width="2.6" x="160.5" y="66.5"><title>2024-11-03 8.3 km</title></rect><rect fill="#4dd2ff" height="2.6" width="2.6" x="164.0" y="45.5"><title>2024-11-04 5.6 km</title></rect><rect fill="#4dd2ff" height="2.6" width="2.6" x="164.0" y="49.0"><title>2024-11-05 5.0 km</title></rect><rect fill="#ff8a00" height="2.6" width="2.6" x="164.0" y="52.5"><title>2024-11-06 10.0 km</title></rect><rect fill="#4dd2ff" height="2.6" width="2.6" x="164.0" y="56.0"><title>2024-11-07 5.0 km</title></rect><rect fill="#4dd2ff" height="2.6" width="2.6" x="164.0" y="59.5"><title>2024-11-08 9.8 km</title></rect><rect fill="#4dd2ff" height="2.6" width="2.6" x="164.0" y="63.0"><title>2024-11-09 5.0 km</title></rect><rect fill="#4dd2ff" height="2.6" width="2.6" x="164.0" y="66.5"><title>2024-11-10 6.0 km</title></rect><rect fill="#4dd2ff" height="2.6" width="2.6" x="167.5" y="45.5"><title>2024-11-11 6.1 km</title></rect><rect fill="#4dd2ff" height="2.6" width="2.6" x="167.5" y="49.0"><title>2024-11-12 3.5 km</title></rect><rect fill="#4dd2ff" height="2.6" width="2.6" x="167.5" y="52.5"><title>2024-11-13 5.0 km</title></rect><rect fill="#4dd2ff" height="2.6" width="2.6" x="167.5" y="56.0"><title>2024-11-14 6.0 km</title></rect><rect fill="#4dd2ff" height="2.6" width="2.6" x="167.5" y="59.5"><title>2024-11-15 5.0 km</title></rect><rect fill="#4dd2ff" height="2.6" width="2.6" x="167.5" y="63.0"><title>2024-11-16 5.2 km</title></rect><rect fill="#4dd2ff" height="2.6" width="2.6" x="167.5" y="66.5"><title>2024-11-17 6.0 km</title></rect><rect fill="#4dd2ff" height="2.6" width="2.6" x="171.0" y="45.5"><title>2024-11-18 4.0 km</title></rect><rect fill="#4dd2ff" height="2.6" width="2.6" x="171.0" y="49.0"><title>2024-11-19 5.0 km</title></rect><rect fill="#4dd2ff" height="2.6" width="2.6" x="171.0" y="52.5"><title>2024-11-20 5.0 km</title></rect><rect fill="#4dd2ff" height="2.6" width="2.6" x="171.0" y="56.0"><title>2024-11-21 6.2 km</title></rect><rect fill="#4dd2ff" height="2.6" width="2.6" x="171.0" y="59.5"><title>2024-11-22 5.5 km</title></rect><rect fill="#4dd2ff" height="2.6" width="2.6" x="171.0" y="63.0"><title>2024-11-23 8.4 km</title></rect><rect fill="#ff7700" height="2.6" width="2.6" x="171.0" y="66.5"><title>2024-11-24 11.6 km</title></rect><rect fill="#4dd2ff" height="2.6" width="2.6" x="174.5" y="45.5"><title>2024-11-25 7.0 km</title></rect><rect fill="#4dd2ff" height="2.6" width="2.6" x="174.5" y="49.0"><title>2024-11-26 5.0 km</title></rect><rect fill="#4dd2ff" height="2.6" width="2.6" x="174.5" y="52.5"><title>2024-11-27 5.9 km</title></rect><rect fill="#4dd2ff" height="2.6" width="2.6" x="174.5" y="56.0"><title>2024-11-28 5.0 km</title></rect><rect fill="#4dd2ff" height="2.6" width="2.6" x="174.5" y="59.5"><title>2024-11-29 8.0 km</title></rect><rect fill="#4dd2ff" height="2.6" width="2.6" x="174.5" y="63.0"><title>2024-11-30 5.1 km</title></rect><rect fill="#4dd2ff" height="2.6" width="2.6" x="174.5" y="66.5"><title>2024-12-01 3.2 km</title></rect><rect fill="#4dd2ff" height="2.6" width="2.6" x="178.0" y="45.5"><title>2024-12-02 7.0 km</title></rect><rect fill="#4dd2ff" height="2.6" width="2.6" x="178.0" y="49.0"><title>2024-12-03 5.1 km</title></rect><rect fill="#4dd2ff" height="2.6" width="2.6" x="178.0" y="52.5"><title>2024-12-04 6.2 km</title></rect><rect fill="#4dd2ff" height="2.6" width="2.6" x="178.0" y="56.0"><title>2024-12-05 5.0 km</title></rect><rect fill="#4dd2ff" height="2.6" width="2.6" x="178.0" y="59.5"><title>2024-12-06 7.0 km</title></rect><rect fill="#4dd2ff" height="2.6" width="2.6" x="178.0" y="63.0"><title>2024-12-07 5.2 km</title></rect><rect fill="#4dd2ff" height="2.6" width="2.6" x="178.0" y="66.5"><title>2024-12-08 6.7 km</title></rect><rect fill="#4dd2ff" height="2.6" width="2.6" x="181.5" y="45.5"><title>2024-12-09 5.0 km</title></rect><rect fill="#4dd2ff" height="2.6" width="2.6" x="181.5" y="49.0"><title>2024-12-10 5.1 km</title></rect><rect fill="#4dd2ff" height="2.6" width="2.6" x="181.5" y="52.5"><title>2024-12-11 4.6 km</title></rect><rect fill="#4dd2ff" height="2.6" width="2.6" x="181.5" y="56.0"><title>2024-12-12 5.0 km</title></rect><rect fill="#4dd2ff" height="2.6" width="2.6" x="181.5" y="59.5"><title>2024-12-13 5.3 km</title></rect><rect fill="#4dd2ff" height="2.6" width="2.6" x="181.5" y="63.0"><title>2024-12-14 7.1 km</title></rect><rect fill="#4dd2ff" height="2.6" width="2.6" x="181.5" y="66.5"><title>2024-12-15 5.0 km</title></rect><rect fill="#4dd2ff" height="2.6" width="2.6" x="185.0" y="45.5"><title>2024-12-16 6.4 km</title></rect><rect fill="#4dd2ff" height="2.6" width="2.6" x="185.0" y="49.0"><title>2024-12-17 5.0 km</title></rect><rect fill="#4dd2ff" height="2.6" width="2.6" x="185.0" y="52.5"><title>2024-12-18 6.0 km</title></rect><rect fill="#4dd2ff" height="2.6" width="2.6" x="185.0" y="56.0"><title>2024-12-19 4.1 km</title></rect><rect fill="#ff8a00" height="2.6" width="2.6" x="185.0" y="59.5"><title>2024-12-20 10.0 km</title></rect><rect fill="#4dd2ff" height="2.6" width="2.6" x="185.0" y="63.0"><title>2024-12-21 5.1 km</title></rect><rect fill="#4dd2ff" height="2.6" width="2.6" x="185.0" y="66.5"><title>2024-12-22 5.0 km</title></rect><rect fill="#4dd2ff" height="2.6" width="2.6" x="188.5" y="45.5"><title>2024-12-23 5.0 km</title></rect><rect fill="#4dd2ff" height="2.6" width="2.6" x="188.5" y="49.0"><title>2024-12-24 6.0 km</title></rect><rect fill="#4dd2ff" height="2.6" width="2.6" x="188.5" y="52.5"><title>2024-12-25 5.0 km</title></rect><rect fill="#4dd2ff" height="2.6" width="2.6" x="188.5" y="56.0"><title>2024-12-26 1.0 km</title></rect><rect fill="#4dd2ff" height="2.6" width="2.6" x="188.5" y="59.5"><title>2024-12-27 3.0 km</title></rect><rect fill="#4dd2ff" height="2.6" width="2.6" x="188.5" y="63.0"><title>2024-12-28 5.4 km</title></rect><rect fill="#4dd2ff" height="2.6" width="2.6" x="188.5" y="66.5"><title>2024-12-29 7.6 km</title></rect><rect fill="#4dd2ff" height="2.6" width="2.6" x="192.0" y="45.5"><title>2024-12-30 5.0 km</title></rect><rect fill="#4dd2ff" height="2.6" width="2.6" x="192.0" y="49.0"><title>2024-12-31 3.0 km</title></rect></svg>