<?xml version="1.0" encoding="utf-8" ?>
<svg baseProfile="full" height="98mm" version="1.1" viewBox="0,0,200,98" width="200mm" xmlns="http://www.w3.org/2000/svg" xmlns:ev="http://www.w3.org/2001/xml-events" xmlns:xlink="http://www.w3.org/1999/xlink"><defs /><rect fill="#222222" height="98" width="200" x="0" y="0" /><text fill="#FFFFFF" style="font-size:12px; font-family:Arial; font-weight:bold;" x="10" y="20">Daniel Running 2020</text><text fill="#FFFFFF" style="font-size:4px; font-family:Arial" x="10" y="78">ATHLETE</text><text fill="#FFFFFF" style="font-size:9px; font-family:Arial" x="10" y="88">Daniel Yu</text><text fill="#FFFFFF" style="font-size:4px; font-family:Arial" x="65" y="78">SPECIAL TRACKS</text><rect fill="yellow" height="2.6" width="2.6" x="65" y="81" /><text fill="#FFFFFF" style="font-size:3px; font-family:Arial" x="70" y="83.5">Over 10.0 km</text><rect fill="red" height="2.6" width="2.6" x="65" y="85" /><text fill="#FFFFFF" style="font-size:3px; font-family:Arial" x="70" y="87.5">Over 20.0 km</text><text fill="#FFFFFF" style="font-size:4px; font-family:Arial" x="120" y="78">STATISTICS</text><text fill="#FFFFFF" style="font-size:3px; font-family:Arial" x="120" y="83">Number: 158</text><text fill="#FFFFFF" style="font-size:3px; font-family:Arial" x="120" y="88">Weekly: 3.4</text><text fill="#FFFFFF" style="font-size:3px; font-family:Arial" x="141" y="83">Total: 1940.1 km</text><text fill="#FFFFFF" style="font-size:3px; font-family:Arial" x="141" y="88">Avg: 12.3 km</text><text fill="#FFFFFF" style="font-size:3px; font-family:Arial" x="167" y="83">Min: 0.7 km</text><text fill="#FFFFFF" style="font-size:3px; font-family:Arial" x="167" y="88">Max: 51.0 km</text><text dominant-baseline="hanging" fill="#FFFFFF" style="font-size:10.0px; font-family:Arial;" x="10" y="30">2020</text><text dominant-baseline="hanging" fill="#FFFFFF" style="font-size:4.125px; font-family:Arial;" x="175" y="35">1940.1 km</text><text fill="#FFFFFF" style="font-size:2.5px; font-family:Arial" x="10.0" y="44">Jan</text><text fill="#FFFFFF" style="font-size:2.5px; font-family:Arial" x="25.5" y="44">Feb</text><text fill="#FFFFFF" style="font-size:2.5px; font-family:Arial" x="41.0" y="44">Mar</text><text fill="#FFFFFF" style="font-size:2.5px; font-family:Arial" x="56.5" y="44">Apr</text><text fill="#FFFFFF" style="font-size:2.5px; font-family:Arial" x="72.0" y="44">May</text><text fill="#FFFFFF" style="font-size:2.5px; font-family:Arial" x="87.5" y="44">Jun</text><text fill="#FFFFFF" style="font-size:2.5px; font-family:Arial" x="103.0" y="44">Jul</text><text fill="#FFFFFF" style="font-size:2.5px; font-family:Arial" x="118.5" y="44">Aug</text><text fill="#FFFFFF" style="font-size:2.5px; font-family:Arial" x="134.0" y="44">Sep</text><text fill="#FFFFFF" style="font-size:2.5px; font-family:Arial" x="149.5" y="44">Oct</text><text fill="#FFFFFF" style="font-size:2.5px; font-family:Arial" x="165.0" y="44">Nov</text><text fill="#FFFFFF" style="font-size:2.5px; font-family:Arial" x="180.5" y="44">Dec</text><rect fill="#444444" height="2.6" width="2.6" x="10.0" y="45.5"><title>2019-12-30</title></rect><rect fill="#444444" height="2.6" width="2.6" x="10.0" y="49.0"><title>2019-12-31</title></rect><rect fill="red" height="2.6" width="2.6" x="10.0" y="52.5"><title>2020-01-01 21.4 km</title></rect><rect fill="#4dd2ff" height="2.6" width="2.6" x="10.0" y="56.0"><title>2020-01-02 7.0 km</title></rect><rect fill="#444444" height="2.6" width="2.6" x="10.0" y="59.5"><title>2020-01-03</title></rect><rect fill="#4dd2ff" height="2.6" width="2.6" x="10.0" y="63.0"><title>2020-01-04 9.6 km</title></rect><rect fill="#ffd600" height="2.6" width="2.6" x="10.0" y="66.5"><title>2020-01-05 14.2 km</title></rect><rect fill="#4dd2ff" height="2.6" width="2.6" x="13.5" y="45.5"><title>2020-01-06 9.0 km</title></rect><rect fill="#444444" height="2.6" width="2.6" x="13.5" y="49.0"><title>2020-01-07</title></rect><rect fill="#444444" height="2.6" width="2.6" x="13.5" y="52.5"><title>2020-01-08</title></rect><rect fill="#4dd2ff" height="2.6" width="2.6" x="13.5" y="56.0"><title>2020-01-09 2.5 km</title></rect><rect fill="#444444" height="2.6" width="2.6" x="13.5" y="59.5"><title>2020-01-10</title></rect><rect fill="#444444" height="2.6" width="2.6" x="13.5" y="63.0"><title>2020-01-11</title></rect><rect fill="#ffd000" height="2.6" width="2.6" x="13.5" y="66.5"><title>2020-01-12 16.1 km</title></rect><rect fill="#444444" height="2.6" width="2.6" x="17.0" y="45.5"><title>2020-01-13</title></rect><rect fill="#444444" height="2.6" width="2.6" x="17.0" y="49.0"><title>2020-01-14</title></rect><rect fill="#444444" height="2.6" width="2.6" x="17.0" y="52.5"><title>2020-01-15</title></rect><rect fill="#444444" height="2.6" width="2.6" x="17.0" y="56.0"><title>2020-01-16</title></rect><rect fill="red" height="2.6" width="2.6" x="17.0" y="59.5"><title>2020-01-17 21.3 km</title></rect><rect fill="#444444" height="2.6" width="2.6" x="17.0" y="63.0"><title>2020-01-18</title></rect><rect fill="#ffd700" height="2.6" width="2.6" x="17.0" y="66.5"><title>2020-01-19 14.0 km</title></rect><rect fill="#444444" height="2.6" width="2.6" x="20.5" y="45.5"><title>2020-01-20</title></rect><rect fill="#444444" height="2.6" width="2.6" x="20.5" y="49.0"><title>2020-01-21</title></rect><rect fill="#444444" height="2.6" width="2.6" x="20.5" y="52.5"><title>2020-01-22</title></rect><rect fill="#444444" height="2.6" width="2.6" x="20.5" y="56.0"><title>2020-01-23</title></rect><rect fill="#ffce00" height="2.6" width="2.6" x="20.5" y="59.5"><title>2020-01-24 17.1 km</title></rect><rect fill="#444444" height="2.6" width="2.6" x="20.5" y="63.0"><title>2020-01-25</title></rect><rect fill="#444444" height="2.6" width="2.6" x="20.5" y="66.5"><title>2020-01-26</title></rect><rect fill="#ffc700" height="2.6" width="2.6" x="24.0" y="45.5"><title>2020-01-27 19.3 km</title></rect><rect fill="#ffcc00" height="2.6" width="2.6" x="24.0" y="49.0"><title>2020-01-28 17.5 km</title></rect><rect fill="#444444" height="2.6" width="2.6" x="24.0" y="52.5"><title>2020-01-29</title></rect><rect fill="#ffda00" height="2.6" width="2.6" x="24.0" y="56.0"><title>2020-01-30 13.1 km</title></rect><rect fill="#444444" height="2.6" width="2.6" x="24.0" y="59.5"><title>2020-01-31</title></rect><rect fill="#444444" height="2.6" width="2.6" x="24.0" y="63.0"><title>2020-02-01</title></rect><rect fill="#444444" height="2.6" width="2.6" x="24.0" y="66.5"><title>2020-02-02</title></rect><rect fill="red" height="2.6" width="2.6" x="27.5" y="45.5"><title>2020-02-03 21.6 km</title></rect><rect fill="#444444" height="2.6" width="2.6" x="27.5" y="49.0"><title>2020-02-04</title></rect><rect fill="#444444" height="2.6" width="2.6" x="27.5" y="52.5"><title>2020-02-05</title></rect><rect fill="#444444" height="2.6" width="2.6" x="27.5" y="56.0"><title>2020-02-06</title></rect><rect fill="#444444" height="2.6" width="2.6" x="27.5" y="59.5"><title>2020-02-07</title></rect><rect fill="#444444" height="2.6" width="2.6" x="27.5" y="63.0"><title>2020-02-08</title></rect><rect fill="#444444" height="2.6" width="2.6" x="27.5" y="66.5"><title>2020-02-09</title></rect><rect fill="#444444" height="2.6" width="2.6" x="31.0" y="45.5"><title>2020-02-10</title></rect><rect fill="#444444" height="2.6" width="2.6" x="31.0" y="49.0"><title>2020-02-11</title></rect><rect fill="#444444" height="2.6" width="2.6" x="31.0" y="52.5"><title>2020-02-12</title></rect><rect fill="red" height="2.6" width="2.6" x="31.0" y="56.0"><title>2020-02-13 20.4 km</title></rect><rect fill="red" height="2.6" width="2.6" x="31.0" y="59.5"><title>2020-02-14 21.0 km</title></rect><rect fill="#444444" height="2.6" width="2.6" x="31.0" y="63.0"><title>2020-02-15</title></rect><rect fill="#444444" height="2.6" width="2.6" x="31.0" y="66.5"><title>2020-02-16</title></rect><rect fill="#444444" height="2.6" width="2.6" x="34.5" y="45.5"><title>2020-02-17</title></rect><rect fill="#444444" height="2.6" width="2.6" x="34.5" y="49.0"><title>2020-02-18</title></rect><rect fill="#444444" height="2.6" width="2.6" x="34.5" y="52.5"><title>2020-02-19</title></rect><rect fill="#444444" height="2.6" width="2.6" x="34.5" y="56.0"><title>2020-02-20</title></rect><rect fill="#444444" height="2.6" width="2.6" x="34.5" y="59.5"><title>2020-02-21</title></rect><rect fill="#444444" height="2.6" width="2.6" x="34.5" y="63.0"><title>2020-02-22</title></rect><rect fill="#444444" height="2.6" width="2.6" x="34.5" y="66.5"><title>2020-02-23</title></rect><rect fill="#4dd2ff" height="2.6" width="2.6" x="38.0" y="45.5"><title>2020-02-24 4.2 km</title></rect><rect fill="#444444" height="2.6" width="2.6" x="38.0" y="49.0"><title>2020-02-25</title></rect><rect fill="#444444" height="2.6" width="2.6" x="38.0" y="52.5"><title>2020-02-26</title></rect><rect fill="#444444" height="2.6" width="2.6" x="38.0" y="56.0"><title>2020-02-27</title></rect><rect fill="#444444" height="2.6" width="2.6" x="38.0" y="59.5"><title>2020-02-28</title></rect><rect fill="#444444" height="2.6" width="2.6" x="38.0" y="63.0"><title>2020-02-29</title></rect><rect fill="#ffd900" height="2.6" width="2.6" x="38.0" y="66.5"><title>2020-03-01 13.2 km</title></rect><rect fill="#ffe300" height="2.6" width="2.6" x="41.5" y="45.5"><title>2020-03-02 10.0 km</title></rect><rect fill="#ffe300" height="2.6" width="2.6" x="41.5" y="49.0"><title>2020-03-03 10.1 km</title></rect><rect fill="#444444" height="2.6" width="2.6" x="41.5" y="52.5"><title>2020-03-04</title></rect><rect fill="#ffdc00" height="2.6" width="2.6" x="41.5" y="56.0"><title>2020-03-05 12.3 km</title></rect><rect fill="#4dd2ff" height="2.6" width="2.6" x="41.5" y="59.5"><title>2020-03-06 7.0 km</title></rect><rect fill="#ffe300" height="2.6" width="2.6" x="41.5" y="63.0"><title>2020-03-07 10.0 km</title></rect><rect fill="#ffd700" height="2.6" width="2.6" x="41.5" y="66.5"><title>2020-03-08 14.1 km</title></rect><rect fill="#4dd2ff" height="2.6" width="2.6" x="45.0" y="45.5"><title>2020-03-09 7.0 km</title></rect><rect fill="#444444" height="2.6" width="2.6" x="45.0" y="49.0"><title>2020-03-10</title></rect><rect fill="#ffe200" height="2.6" width="2.6" x="45.0" y="52.5"><title>2020-03-11 10.4 km</title></rect><rect fill="#444444" height="2.6" width="2.6" x="45.0" y="56.0"><title>2020-03-12</title></rect><rect fill="#444444" height="2.6" width="2.6" x="45.0" y="59.5"><title>2020-03-13</title></rect><rect fill="red" height="2.6" width="2.6" x="45.0" y="63.0"><title>2020-03-14 23.4 km</title></rect><rect fill="red" height="2.6" width="2.6" x="45.0" y="66.5"><title>2020-03-15 21.8 km</title></rect><rect fill="#444444" height="2.6" width="2.6" x="48.5" y="45.5"><title>2020-03-16</title></rect><rect fill="#ffd800" height="2.6" width="2.6" x="48.5" y="49.0"><title>2020-03-17 13.5 km</title></rect><rect fill="#4dd2ff" height="2.6" width="2.6" x="48.5" y="52.5"><title>2020-03-18 7.7 km</title></rect><rect fill="#444444" height="2.6" width="2.6" x="48.5" y="56.0"><title>2020-03-19</title></rect><rect fill="#444444" height="2.6" width="2.6" x="48.5" y="59.5"><title>2020-03-20</title></rect><rect fill="#ffd300" height="2.6" width="2.6" x="48.5" y="63.0"><title>2020-03-21 15.3 km</title></rect><rect fill="red" height="2.6" width="2.6" x="48.5" y="66.5"><title>2020-03-22 27.8 km</title></rect><rect fill="#ffe000" height="2.6" width="2.6" x="52.0" y="45.5"><title>2020-03-23 11.0 km</title></rect><rect fill="#444444" height="2.6" width="2.6" x="52.0" y="49.0"><title>2020-03-24</title></rect><rect fill="#444444" height="2.6" width="2.6" x="52.0" y="52.5"><title>2020-03-25</title></rect><rect fill="#444444" height="2.6" width="2.6" x="52.0" y="56.0"><title>2020-03-26</title></rect><rect fill="#444444" height="2.6" width="2.6" x="52.0" y="59.5"><title>2020-03-27</title></rect><rect fill="red" height="2.6" width="2.6" x="52.0" y="63.0"><title>2020-03-28 22.0 km</title></rect><rect fill="#444444" height="2.6" width="2.6" x="52.0" y="66.5"><title>2020-03-29</title></rect><rect fill="#444444" height="2.6" width="2.6" x="55.5" y="45.5"><title>2020-03-30</title></rect><rect fill="#444444" height="2.6" width="2.6" x="55.5" y="49.0"><title>2020-03-31</title></rect><rect fill="#444444" height="2.6" width="2.6" x="55.5" y="52.5"><title>2020-04-01</title></rect><rect fill="#ffe000" height="2.6" width="2.6" x="55.5" y="56.0"><title>2020-04-02 11.1 km</title></rect><rect fill="#444444" height="2.6" width="2.6" x="55.5" y="59.5"><title>2020-04-03</title></rect><rect fill="red" height="2.6" width="2.6" x="55.5" y="63.0"><title>2020-04-04 49.1 km</title></rect><rect fill="#4dd2ff" height="2.6" width="2.6" x="55.5" y="66.5"><title>2020-04-05 7.5 km</title></rect><rect fill="red" height="2.6" width="2.6" x="59.0" y="45.5"><title>2020-04-06 21.2 km</title></rect><rect fill="#444444" height="2.6" width="2.6" x="59.0" y="49.0"><title>2020-04-07</title></rect><rect fill="#444444" height="2.6" width="2.6" x="59.0" y="52.5"><title>2020-04-08</title></rect><rect fill="#ffde00" height="2.6" width="2.6" x="59.0" y="56.0"><title>2020-04-09 11.6 km</title></rect><rect fill="red" height="2.6" width="2.6" x="59.0" y="59.5"><title>2020-04-10 54.5 km</title></rect><rect fill="#ffe300" height="2.6" width="2.6" x="59.0" y="63.0"><title>2020-04-11 10.0 km</title></rect><rect fill="red" height="2.6" width="2.6" x="59.0" y="66.5"><title>2020-04-12 52.4 km</title></rect><rect fill="#444444" height="2.6" width="2.6" x="62.5" y="45.5"><title>2020-04-13</title></rect><rect fill="#ffd900" height="2.6" width="2.6" x="62.5" y="49.0"><title>2020-04-14 13.2 km</title></rect><rect fill="#ffe300" height="2.6" width="2.6" x="62.5" y="52.5"><title>2020-04-15 10.0 km</title></rect><rect fill="#4dd2ff" height="2.6" width="2.6" x="62.5" y="56.0"><title>2020-04-16 6.2 km</title></rect><rect fill="#ffd400" height="2.6" width="2.6" x="62.5" y="59.5"><title>2020-04-17 15.1 km</title></rect><rect fill="red" height="2.6" width="2.6" x="62.5" y="63.0"><title>2020-04-18 21.6 km</title></rect><rect fill="#444444" height="2.6" width="2.6" x="62.5" y="66.5"><title>2020-04-19</title></rect><rect fill="#444444" height="2.6" width="2.6" x="66.0" y="45.5"><title>2020-04-20</title></rect><rect fill="#444444" height="2.6" width="2.6" x="66.0" y="49.0"><title>2020-04-21</title></rect><rect fill="#444444" height="2.6" width="2.6" x="66.0" y="52.5"><title>2020-04-22</title></rect><rect fill="#444444" height="2.6" width="2.6" x="66.0" y="56.0"><title>2020-04-23</title></rect><rect fill="#444444" height="2.6" width="2.6" x="66.0" y="59.5"><title>2020-04-24</title></rect><rect fill="#444444" height="2.6" width="2.6" x="66.0" y="63.0"><title>2020-04-25</title></rect><rect fill="#444444" height="2.6" width="2.6" x="66.0" y="66.5"><title>2020-04-26</title></rect><rect fill="#444444" height="2.6" width="2.6" x="69.5" y="45.5"><title>2020-04-27</title></rect><rect fill="#444444" height="2.6" width="2.6" x="69.5" y="49.0"><title>2020-04-28</title></rect><rect fill="#444444" height="2.6" width="2.6" x="69.5" y="52.5"><title>2020-04-29</title></rect><rect fill="#444444" height="2.6" width="2.6" x="69.5" y="56.0"><title>2020-04-30</title></rect><rect fill="#444444" height="2.6" width="2.6" x="69.5" y="59.5"><title>2020-05-01</title></rect><rect fill="#444444" height="2.6" width="2.6" x="69.5" y="63.0"><title>2020-05-02</title></rect><rect fill="#444444" height="2.6" width="2.6" x="69.5" y="66.5"><title>2020-05-03</title></rect><rect fill="#444444" height="2.6" width="2.6" x="73.0" y="45.5"><title>2020-05-04</title></rect><rect fill="#444444" height="2.6" width="2.6" x="73.0" y="49.0"><title>2020-05-05</title></rect><rect fill="#ffe300" height="2.6" width="2.6" x="73.0" y="52.5"><title>2020-05-06 10.0 km</title></rect><rect fill="#444444" height="2.6" width="2.6" x="73.0" y="56.0"><title>2020-05-07</title></rect><rect fill="#ffd600" height="2.6" width="2.6" x="73.0" y="59.5"><title>2020-05-08 14.2 km</title></rect><rect fill="#4dd2ff" height="2.6" width="2.6" x="73.0" y="63.0"><title>2020-05-09 6.9 km</title></rect><rect fill="#ffcc00" height="2.6" width="2.6" x="73.0" y="66.5"><title>2020-05-10 17.6 km</title></rect><rect fill="#444444" height="2.6" width="2.6" x="76.5" y="45.5"><title>2020-05-11</title></rect><rect fill="#444444" height="2.6" width="2.6" x="76.5" y="49.0"><title>2020-05-12</title></rect><rect fill="#ffd400" height="2.6" width="2.6" x="76.5" y="52.5"><title>2020-05-13 15.0 km</title></rect><rect fill="#444444" height="2.6" width="2.6" x="76.5" y="56.0"><title>2020-05-14</title></rect><rect fill="#444444" height="2.6" width="2.6" x="76.5" y="59.5"><title>2020-05-15</title></rect><rect fill="#4dd2ff" height="2.6" width="2.6" x="76.5" y="63.0"><title>2020-05-16 3.4 km</title></rect><rect fill="red" height="2.6" width="2.6" x="76.5" y="66.5"><title>2020-05-17 20.0 km</title></rect><rect fill="#444444" height="2.6" width="2.6" x="80.0" y="45.5"><title>2020-05-18</title></rect><rect fill="#444444" height="2.6" width="2.6" x="80.0" y="49.0"><title>2020-05-19</title></rect><rect fill="#444444" height="2.6" width="2.6" x="80.0" y="52.5"><title>2020-05-20</title></rect><rect fill="#ffd200" height="2.6" width="2.6" x="80.0" y="56.0"><title>2020-05-21 15.5 km</title></rect><rect fill="#444444" height="2.6" width="2.6" x="80.0" y="59.5"><title>2020-05-22</title></rect><rect fill="#ffd300" height="2.6" width="2.6" x="80.0" y="63.0"><title>2020-05-23 15.4 km</title></rect><rect fill="#444444" height="2.6" width="2.6" x="80.0" y="66.5"><title>2020-05-24</title></rect><rect fill="#444444" height="2.6" width="2.6" x="83.5" y="45.5"><title>2020-05-25</title></rect><rect fill="#444444" height="2.6" width="2.6" x="83.5" y="49.0"><title>2020-05-26</title></rect><rect fill="#ffda00" height="2.6" width="2.6" x="83.5" y="52.5"><title>2020-05-27 13.1 km</title></rect><rect fill="#444444" height="2.6" width="2.6" x="83.5" y="56.0"><title>2020-05-28</title></rect><rect fill="#444444" height="2.6" width="2.6" x="83.5" y="59.5"><title>2020-05-29</title></rect><rect fill="#444444" height="2.6" width="2.6" x="83.5" y="63.0"><title>2020-05-30</title></rect><rect fill="red" height="2.6" width="2.6" x="83.5" y="66.5"><title>2020-05-31 30.5 km</title></rect><rect fill="#4dd2ff" height="2.6" width="2.6" x="87.0" y="45.5"><title>2020-06-01 3.3 km</title></rect><rect fill="#444444" height="2.6" width="2.6" x="87.0" y="49.0"><title>2020-06-02</title></rect><rect fill="#444444" height="2.6" width="2.6" x="87.0" y="52.5"><title>2020-06-03</title></rect><rect fill="#4dd2ff" height="2.6" width="2.6" x="87.0" y="56.0"><title>2020-06-04 6.0 km</title></rect><rect fill="#444444" height="2.6" width="2.6" x="87.0" y="59.5"><title>2020-06-05</title></rect><rect fill="#444444" height="2.6" width="2.6" x="87.0" y="63.0"><title>2020-06-06</title></rect><rect fill="#ffcc00" height="2.6" width="2.6" x="87.0" y="66.5"><title>2020-06-07 17.7 km</title></rect><rect fill="#4dd2ff" height="2.6" width="2.6" x="90.5" y="45.5"><title>2020-06-08 7.0 km</title></rect><rect fill="#444444" height="2.6" width="2.6" x="90.5" y="49.0"><title>2020-06-09</title></rect><rect fill="#4dd2ff" height="2.6" width="2.6" x="90.5" y="52.5"><title>2020-06-10 3.8 km</title></rect><rect fill="#ffe300" height="2.6" width="2.6" x="90.5" y="56.0"><title>2020-06-11 10.1 km</title></rect><rect fill="#444444" height="2.6" width="2.6" x="90.5" y="59.5"><title>2020-06-12</title></rect><rect fill="#444444" height="2.6" width="2.6" x="90.5" y="63.0"><title>2020-06-13</title></rect><rect fill="#4dd2ff" height="2.6" width="2.6" x="90.5" y="66.5"><title>2020-06-14 3.4 km</title></rect><rect fill="#444444" height="2.6" width="2.6" x="94.0" y="45.5"><title>2020-06-15</title></rect><rect fill="#ffe300" height="2.6" width="2.6" x="94.0" y="49.0"><title>2020-06-16 10.0 km</title></rect><rect fill="#4dd2ff" height="2.6" width="2.6" x="94.0" y="52.5"><title>2020-06-17 7.0 km</title></rect><rect fill="#444444" height="2.6" width="2.6" x="94.0" y="56.0"><title>2020-06-18</title></rect><rect fill="#444444" height="2.6" width="2.6" x="94.0" y="59.5"><title>2020-06-19</title></rect><rect fill="#444444" height="2.6" width="2.6" x="94.0" y="63.0"><title>2020-06-20</title></rect><rect fill="#444444" height="2.6" width="2.6" x="94.0" y="66.5"><title>2020-06-21</title></rect><rect fill="#444444" height="2.6" width="2.6" x="97.5" y="45.5"><title>2020-06-22</title></rect><rect fill="#444444" height="2.6" width="2.6" x="97.5" y="49.0"><title>2020-06-23</title></rect><rect fill="#4dd2ff" height="2.6" width="2.6" x="97.5" y="52.5"><title>2020-06-24 7.0 km</title></rect><rect fill="red" height="2.6" width="2.6" x="97.5" y="56.0"><title>2020-06-25 22.0 km</title></rect><rect fill="#444444" height="2.6" width="2.6" x="97.5" y="59.5"><title>2020-06-26</title></rect><rect fill="#444444" height="2.6" width="2.6" x="97.5" y="63.0"><title>2020-06-27</title></rect><rect fill="#444444" height="2.6" width="2.6" x="97.5" y="66.5"><title>2020-06-28</title></rect><rect fill="#444444" height="2.6" width="2.6" x="101.0" y="45.5"><title>2020-06-29</title></rect><rect fill="#444444" height="2.6" width="2.6" x="101.0" y="49.0"><title>2020-06-30</title></rect><rect fill="#4dd2ff" height="2.6" width="2.6" x="101.0" y="52.5"><title>2020-07-01 7.0 km</title></rect><rect fill="#444444" height="2.6" width="2.6" x="101.0" y="56.0"><title>2020-07-02</title></rect><rect fill="#ffe100" height="2.6" width="2.6" x="101.0" y="59.5"><title>2020-07-03 10.5 km</title></rect><rect fill="#4dd2ff" height="2.6" width="2.6" x="101.0" y="63.0"><title>2020-07-04 6.2 km</title></rect><rect fill="#4dd2ff" height="2.6" width="2.6" x="101.0" y="66.5"><title>2020-07-05 3.2 km</title></rect><rect fill="#444444" height="2.6" width="2.6" x="104.5" y="45.5"><title>2020-07-06</title></rect><rect fill="#4dd2ff" height="2.6" width="2.6" x="104.5" y="49.0"><title>2020-07-07 3.7 km</title></rect><rect fill="#ffd700" height="2.6" width="2.6" x="104.5" y="52.5"><title>2020-07-08 14.0 km</title></rect><rect fill="#444444" height="2.6" width="2.6" x="104.5" y="56.0"><title>2020-07-09</title></rect><rect fill="#ffd700" height="2.6" width="2.6" x="104.5" y="59.5"><title>2020-07-10 14.0 km</title></rect><rect fill="#444444" height="2.6" width="2.6" x="104.5" y="63.0"><title>2020-07-11</title></rect><rect fill="red" height="2.6" width="2.6" x="104.5" y="66.5"><title>2020-07-12 21.1 km</title></rect><rect fill="#444444" height="2.6" width="2.6" x="108.0" y="45.5"><title>2020-07-13</title></rect><rect fill="#ffe200" height="2.6" width="2.6" x="108.0" y="49.0"><title>2020-07-14 10.4 km</title></rect><rect fill="#444444" height="2.6" width="2.6" x="108.0" y="52.5"><title>2020-07-15</title></rect><rect fill="#4dd2ff" height="2.6" width="2.6" x="108.0" y="56.0"><title>2020-07-16 6.5 km</title></rect><rect fill="#444444" height="2.6" width="2.6" x="108.0" y="59.5"><title>2020-07-17</title></rect><rect fill="#444444" height="2.6" width="2.6" x="108.0" y="63.0"><title>2020-07-18</title></rect><rect fill="#4dd2ff" height="2.6" width="2.6" x="108.0" y="66.5"><title>2020-07-19 3.1 km</title></rect><rect fill="#4dd2ff" height="2.6" width="2.6" x="111.5" y="45.5"><title>2020-07-20 6.9 km</title></rect><rect fill="#ffe300" height="2.6" width="2.6" x="111.5" y="49.0"><title>2020-07-21 10.1 km</title></rect><rect fill="#444444" height="2.6" width="2.6" x="111.5" y="52.5"><title>2020-07-22</title></rect><rect fill="#444444" height="2.6" width="2.6" x="111.5" y="56.0"><title>2020-07-23</title></rect><rect fill="#444444" height="2.6" width="2.6" x="111.5" y="59.5"><title>2020-07-24</title></rect><rect fill="#444444" height="2.6" width="2.6" x="111.5" y="63.0"><title>2020-07-25</title></rect><rect fill="#ffd700" height="2.6" width="2.6" x="111.5" y="66.5"><title>2020-07-26 14.1 km</title></rect><rect fill="#4dd2ff" height="2.6" width="2.6" x="115.0" y="45.5"><title>2020-07-27 6.8 km</title></rect><rect fill="#444444" height="2.6" width="2.6" x="115.0" y="49.0"><title>2020-07-28</title></rect><rect fill="#ffe300" height="2.6" width="2.6" x="115.0" y="52.5"><title>2020-07-29 10.1 km</title></rect><rect fill="#4dd2ff" height="2.6" width="2.6" x="115.0" y="56.0"><title>2020-07-30 7.0 km</title></rect><rect fill="#ffe300" height="2.6" width="2.6" x="115.0" y="59.5"><title>2020-07-31 10.0 km</title></rect><rect fill="#ffe300" height="2.6" width="2.6" x="115.0" y="63.0"><title>2020-08-01 10.0 km</title></rect><rect fill="#444444" height="2.6" width="2.6" x="115.0" y="66.5"><title>2020-08-02</title></rect><rect fill="#444444" height="2.6" width="2.6" x="118.5" y="45.5"><title>2020-08-03</title></rect><rect fill="#ffe300" height="2.6" width="2.6" x="118.5" y="49.0"><title>2020-08-04 10.1 km</title></rect><rect fill="#444444" height="2.6" width="2.6" x="118.5" y="52.5"><title>2020-08-05</title></rect><rect fill="#444444" height="2.6" width="2.6" x="118.5" y="56.0"><title>2020-08-06</title></rect><rect fill="#4dd2ff" height="2.6" width="2.6" x="118.5" y="59.5"><title>2020-08-07 6.9 km</title></rect><rect fill="#ffd400" height="2.6" width="2.6" x="118.5" y="63.0"><title>2020-08-08 15.1 km</title></rect><rect fill="#4dd2ff" height="2.6" width="2.6" x="118.5" y="66.5"><title>2020-08-09 5.1 km</title></rect><rect fill="#444444" height="2.6" width="2.6" x="122.0" y="45.5"><title>2020-08-10</title></rect><rect fill="#ffcd00" height="2.6" width="2.6" x="122.0" y="49.0"><title>2020-08-11 17.4 km</title></rect><rect fill="#444444" height="2.6" width="2.6" x="122.0" y="52.5"><title>2020-08-12</title></rect><rect fill="#444444" height="2.6" width="2.6" x="122.0" y="56.0"><title>2020-08-13</title></rect><rect fill="#4dd2ff" height="2.6" width="2.6" x="122.0" y="59.5"><title>2020-08-14 8.0 km</title></rect><rect fill="#4dd2ff" height="2.6" width="2.6" x="122.0" y="63.0"><title>2020-08-15 9.1 km</title></rect><rect fill="#444444" height="2.6" width="2.6" x="122.0" y="66.5"><title>2020-08-16</title></rect><rect fill="#444444" height="2.6" width="2.6" x="125.5" y="45.5"><title>2020-08-17</title></rect><rect fill="#444444" height="2.6" width="2.6" x="125.5" y="49.0"><title>2020-08-18</title></rect><rect fill="#444444" height="2.6" width="2.6" x="125.5" y="52.5"><title>2020-08-19</title></rect><rect fill="#4dd2ff" height="2.6" width="2.6" x="125.5" y="56.0"><title>2020-08-20 7.0 km</title></rect><rect fill="red" height="2.6" width="2.6" x="125.5" y="59.5"><title>2020-08-21 21.1 km</title></rect><rect fill="#444444" height="2.6" width="2.6" x="125.5" y="63.0"><title>2020-08-22</title></rect><rect fill="#ffd900" height="2.6" width="2.6" x="125.5" y="66.5"><title>2020-08-23 13.2 km</title></rect><rect fill="#444444" height="2.6" width="2.6" x="129.0" y="45.5"><title>2020-08-24</title></rect><rect fill="#444444" height="2.6" width="2.6" x="129.0" y="49.0"><title>2020-08-25</title></rect><rect fill="#444444" height="2.6" width="2.6" x="129.0" y="52.5"><title>2020-08-26</title></rect><rect fill="#4dd2ff" height="2.6" width="2.6" x="129.0" y="56.0"><title>2020-08-27 6.6 km</title></rect><rect fill="#444444" height="2.6" width="2.6" x="129.0" y="59.5"><title>2020-08-28</title></rect><rect fill="#4dd2ff" height="2.6" width="2.6" x="129.0" y="63.0"><title>2020-08-29 3.9 km</title></rect><rect fill="#444444" height="2.6" width="2.6" x="129.0" y="66.5"><title>2020-08-30</title></rect><rect fill="#444444" height="2.6" width="2.6" x="132.5" y="45.5"><title>2020-08-31</title></rect><rect fill="#444444" height="2.6" width="2.6" x="132.5" y="49.0"><title>2020-09-01</title></rect><rect fill="#444444" height="2.6" width="2.6" x="132.5" y="52.5"><title>2020-09-02</title></rect><rect fill="#444444" height="2.6" width="2.6" x="132.5" y="56.0"><title>2020-09-03</title></rect><rect fill="#ffe000" height="2.6" width="2.6" x="132.5" y="59.5"><title>2020-09-04 11.1 km</title></rect><rect fill="#ffdc00" height="2.6" width="2.6" x="132.5" y="63.0"><title>2020-09-05 12.2 km</title></rect><rect fill="#ffdf00" height="2.6" width="2.6" x="132.5" y="66.5"><title>2020-09-06 11.3 km</title></rect><rect fill="#444444" height="2.6" width="2.6" x="136.0" y="45.5"><title>2020-09-07</title></rect><rect fill="#ffdf00" height="2.6" width="2.6" x="136.0" y="49.0"><title>2020-09-08 11.3 km</title></rect><rect fill="#444444" height="2.6" width="2.6" x="136.0" y="52.5"><title>2020-09-09</title></rect><rect fill="#ffe300" height="2.6" width="2.6" x="136.0" y="56.0"><title>2020-09-10 10.0 km</title></rect><rect fill="#444444" height="2.6" width="2.6" x="136.0" y="59.5"><title>2020-09-11</title></rect><rect fill="#444444" height="2.6" width="2.6" x="136.0" y="63.0"><title>2020-09-12</title></rect><rect fill="#444444" height="2.6" width="2.6" x="136.0" y="66.5"><title>2020-09-13</title></rect><rect fill="#4dd2ff" height="2.6" width="2.6" x="139.5" y="45.5"><title>2020-09-14 6.0 km</title></rect><rect fill="#444444" height="2.6" width="2.6" x="139.5" y="49.0"><title>2020-09-15</title></rect><rect fill="#4dd2ff" height="2.6" width="2.6" x="139.5" y="52.5"><title>2020-09-16 7.0 km</title></rect><rect fill="#444444" height="2.6" width="2.6" x="139.5" y="56.0"><title>2020-09-17</title></rect><rect fill="#ffdf00" height="2.6" width="2.6" x="139.5" y="59.5"><title>2020-09-18 11.4 km</title></rect><rect fill="red" height="2.6" width="2.6" x="139.5" y="63.0"><title>2020-09-19 22.6 km</title></rect><rect fill="#444444" height="2.6" width="2.6" x="139.5" y="66.5"><title>2020-09-20</title></rect><rect fill="#ffd800" height="2.6" width="2.6" x="143.0" y="45.5"><title>2020-09-21 13.8 km</title></rect><rect fill="#4dd2ff" height="2.6" width="2.6" x="143.0" y="49.0"><title>2020-09-22 3.2 km</title></rect><rect fill="#444444" height="2.6" width="2.6" x="143.0" y="52.5"><title>2020-09-23</title></rect><rect fill="#444444" height="2.6" width="2.6" x="143.0" y="56.0"><title>2020-09-24</title></rect><rect fill="#ffcd00" height="2.6" width="2.6" x="143.0" y="59.5"><title>2020-09-25 17.3 km</title></rect><rect fill="red" height="2.6" width="2.6" x="143.0" y="63.0"><title>2020-09-26 22.0 km</title></rect><rect fill="#444444" height="2.6" width="2.6" x="143.0" y="66.5"><title>2020-09-27</title></rect><rect fill="#444444" height="2.6" width="2.6" x="146.5" y="45.5"><title>2020-09-28</title></rect><rect fill="#ffe300" height="2.6" width="2.6" x="146.5" y="49.0"><title>2020-09-29 10.0 km</title></rect><rect fill="#4dd2ff" height="2.6" width="2.6" x="146.5" y="52.5"><title>2020-09-30 0.7 km</title></rect><rect fill="red" height="2.6" width="2.6" x="146.5" y="56.0"><title>2020-10-01 33.9 km</title></rect><rect fill="#444444" height="2.6" width="2.6" x="146.5" y="59.5"><title>2020-10-02</title></rect><rect fill="#444444" height="2.6" width="2.6" x="146.5" y="63.0"><title>2020-10-03</title></rect><rect fill="#ffe300" height="2.6" width="2.6" x="146.5" y="66.5"><title>2020-10-04 10.0 km</title></rect><rect fill="#444444" height="2.6" width="2.6" x="150.0" y="45.5"><title>2020-10-05</title></rect><rect fill="red" height="2.6" width="2.6" x="150.0" y="49.0"><title>2020-10-06 22.1 km</title></rect><rect fill="#444444" height="2.6" width="2.6" x="150.0" y="52.5"><title>2020-10-07</title></rect><rect fill="#4dd2ff" height="2.6" width="2.6" x="150.0" y="56.0"><title>2020-10-08 6.3 km</title></rect><rect fill="#444444" height="2.6" width="2.6" x="150.0" y="59.5"><title>2020-10-09</title></rect><rect fill="#444444" height="2.6" width="2.6" x="150.0" y="63.0"><title>2020-10-10</title></rect><rect fill="#ffe300" height="2.6" width="2.6" x="150.0" y="66.5"><title>2020-10-11 10.1 km</title></rect><rect fill="#444444" height="2.6" width="2.6" x="153.5" y="45.5"><title>2020-10-12</title></rect><rect fill="#444444" height="2.6" width="2.6" x="153.5" y="49.0"><title>2020-10-13</title></rect><rect fill="#444444" height="2.6" width="2.6" x="153.5" y="52.5"><title>2020-10-14</title></rect><rect fill="#444444" height="2.6" width="2.6" x="153.5" y="56.0"><title>2020-10-15</title></rect><rect fill="#444444" height="2.6" width="2.6" x="153.5" y="59.5"><title>2020-10-16</title></rect><rect fill="#ffd700" height="2.6" width="2.6" x="153.5" y="63.0"><title>2020-10-17 14.0 km</title></rect><rect fill="#444444" height="2.6" width="2.6" x="153.5" y="66.5"><title>2020-10-18</title></rect><rect fill="#444444" height="2.6" width="2.6" x="157.0" y="45.5"><title>2020-10-19</title></rect><rect fill="#4dd2ff" height="2.6" width="2.6" x="157.0" y="49.0"><title>2020-10-20 3.6 km</title></rect><rect fill="#444444" height="2.6" width="2.6" x="157.0" y="52.5"><title>2020-10-21</title></rect><rect fill="#444444" height="2.6" width="2.6" x="157.0" y="56.0"><title>2020-10-22</title></rect><rect fill="#444444" height="2.6" width="2.6" x="157.0" y="59.5"><title>2020-10-23</title></rect><rect fill="red" height="2.6" width="2.6" x="157.0" y="63.0"><title>2020-10-24 42.3 km</title></rect><rect fill="#444444" height="2.6" width="2.6" x="157.0" y="66.5"><title>2020-10-25</title></rect><rect fill="#444444" height="2.6" width="2.6" x="160.5" y="45.5"><title>2020-10-26</title></rect><rect fill="#444444" height="2.6" width="2.6" x="160.5" y="49.0"><title>2020-10-27</title></rect><rect fill="#444444" height="2.6" width="2.6" x="160.5" y="52.5"><title>2020-10-28</title></rect><rect fill="#444444" height="2.6" width="2.6" x="160.5" y="56.0"><title>2020-10-29</title></rect><rect fill="#444444" height="2.6" width="2.6" x="160.5" y="59.5"><title>2020-10-30</title></rect><rect fill="#444444" height="2.6" width="2.6" x="160.5" y="63.0"><title>2020-10-31</title></rect><rect fill="#444444" height="2.6" width="2.6" x="160.5" y="66.5"><title>2020-11-01</title></rect><rect fill="#444444" height="2.6" width="2.6" x="164.0" y="45.5"><title>2020-11-02</title></rect><rect fill="#444444" height="2.6" width="2.6" x="164.0" y="49.0"><title>2020-11-03</title></rect><rect fill="#444444" height="2.6" width="2.6" x="164.0" y="52.5"><title>2020-11-04</title></rect><rect fill="#4dd2ff" height="2.6" width="2.6" x="164.0" y="56.0"><title>2020-11-05 6.8 km</title></rect><rect fill="#444444" height="2.6" width="2.6" x="164.0" y="59.5"><title>2020-11-06</title></rect><rect fill="#444444" height="2.6" width="2.6" x="164.0" y="63.0"><title>2020-11-07</title></rect><rect fill="red" height="2.6" width="2.6" x="164.0" y="66.5"><title>2020-11-08 85.1 km</title></rect><rect fill="#444444" height="2.6" width="2.6" x="167.5" y="45.5"><title>2020-11-09</title></rect><rect fill="#444444" height="2.6" width="2.6" x="167.5" y="49.0"><title>2020-11-10</title></rect><rect fill="#444444" height="2.6" width="2.6" x="167.5" y="52.5"><title>2020-11-11</title></rect><rect fill="#444444" height="2.6" width="2.6" x="167.5" y="56.0"><title>2020-11-12</title></rect><rect fill="#444444" height="2.6" width="2.6" x="167.5" y="59.5"><title>2020-11-13</title></rect><rect fill="#ffe000" height="2.6" width="2.6" x="167.5" y="63.0"><title>2020-11-14 11.0 km</title></rect><rect fill="#ffe100" height="2.6" width="2.6" x="167.5" y="66.5"><title>2020-11-15 10.8 km</title></rect><rect fill="#4dd2ff" height="2.6" width="2.6" x="171.0" y="45.5"><title>2020-11-16 3.0 km</title></rect><rect fill="#ffe000" height="2.6" width="2.6" x="171.0" y="49.0"><title>2020-11-17 11.1 km</title></rect><rect fill="#444444" height="2.6" width="2.6" x="171.0" y="52.5"><title>2020-11-18</title></rect><rect fill="#444444" height="2.6" width="2.6" x="171.0" y="56.0"><title>2020-11-19</title></rect><rect fill="#ffde00" height="2.6" width="2.6" x="171.0" y="59.5"><title>2020-11-20 11.7 km</title></rect><rect fill="#444444" height="2.6" width="2.6" x="171.0" y="63.0"><title>2020-11-21</title></rect><rect fill="red" height="2.6" width="2.6" x="171.0" y="66.5"><title>2020-11-22 84.5 km</title></rect><rect fill="#444444" height="2.6" width="2.6" x="174.5" y="45.5"><title>2020-11-23</title></rect><rect fill="#444444" height="2.6" width="2.6" x="174.5" y="49.0"><title>2020-11-24</title></rect><rect fill="#444444" height="2.6" width="2.6" x="174.5" y="52.5"><title>2020-11-25</title></rect><rect fill="#444444" height="2.6" width="2.6" x="174.5" y="56.0"><title>2020-11-26</title></rect><rect fill="#444444" height="2.6" width="2.6" x="174.5" y="59.5"><title>2020-11-27</title></rect><rect fill="#444444" height="2.6" width="2.6" x="174.5" y="63.0"><title>2020-11-28</title></rect><rect fill="#444444" height="2.6" width="2.6" x="174.5" y="66.5"><title>2020-11-29</title></rect><rect fill="#444444" height="2.6" width="2.6" x="178.0" y="45.5"><title>2020-11-30</title></rect><rect fill="#444444" height="2.6" width="2.6" x="178.0" y="49.0"><title>2020-12-01</title></rect><rect fill="#444444" height="2.6" width="2.6" x="178.0" y="52.5"><title>2020-12-02</title></rect><rect fill="#444444" height="2.6" width="2.6" x="178.0" y="56.0"><title>2020-12-03</title></rect><rect fill="#444444" height="2.6" width="2.6" x="178.0" y="59.5"><title>2020-12-04</title></rect><rect fill="#ffd200" height="2.6" width="2.6" x="178.0" y="63.0"><title>2020-12-05 15.5 km</title></rect><rect fill="#ffd200" height="2.6" width="2.6" x="178.0" y="66.5"><title>2020-12-06 15.6 km</title></rect><rect fill="#444444" height="2.6" width="2.6" x="181.5" y="45.5"><title>2020-12-07</title></rect><rect fill="#444444" height="2.6" width="2.6" x="181.5" y="49.0"><title>2020-12-08</title></rect><rect fill="#444444" height="2.6" width="2.6" x="181.5" y="52.5"><title>2020-12-09</title></rect><rect fill="#444444" height="2.6" width="2.6" x="181.5" y="56.0"><title>2020-12-10</title></rect><rect fill="#444444" height="2.6" width="2.6" x="181.5" y="59.5"><title>2020-12-11</title></rect><rect fill="#ffd300" height="2.6" width="2.6" x="181.5" y="63.0"><title>2020-12-12 15.3 km</title></rect><rect fill="#444444" height="2.6" width="2.6" x="181.5" y="66.5"><title>2020-12-13</title></rect><rect fill="#444444" height="2.6" width="2.6" x="185.0" y="45.5"><title>2020-12-14</title></rect><rect fill="#444444" height="2.6" width="2.6" x="185.0" y="49.0"><title>2020-12-15</title></rect><rect fill="#444444" height="2.6" width="2.6" x="185.0" y="52.5"><title>2020-12-16</title></rect><rect fill="#444444" height="2.6" width="2.6" x="185.0" y="56.0"><title>2020-12-17</title></rect><rect fill="#444444" height="2.6" width="2.6" x="185.0" y="59.5"><title>2020-12-18</title></rect><rect fill="#ffd300" height="2.6" width="2.6" x="185.0" y="63.0"><title>2020-12-19 15.3 km</title></rect><rect fill="#444444" height="2.6" width="2.6" x="185.0" y="66.5"><title>2020-12-20</title></rect><rect fill="#444444" height="2.6" width="2.6" x="188.5" y="45.5"><title>2020-12-21</title></rect><rect fill="#444444" height="2.6" width="2.6" x="188.5" y="49.0"><title>2020-12-22</title></rect><rect fill="#444444" height="2.6" width="2.6" x="188.5" y="52.5"><title>2020-12-23</title></rect><rect fill="#444444" height="2.6" width="2.6" x="188.5" y="56.0"><title>2020-12-24</title></rect><rect fill="#444444" height="2.6" width="2.6" x="188.5" y="59.5"><title>2020-12-25</title></rect><rect fill="#ffd200" height="2.6" width="2.6" x="188.5" y="63.0"><title>2020-12-26 15.5 km</title></rect><rect fill="#444444" height="2.6" width="2.6" x="188.5" y="66.5"><title>2020-12-27</title></rect><rect fill="#444444" height="2.6" width="2.6" x="192.0" y="45.5"><title>2020-12-28</title></rect><rect fill="#444444" height="2.6" width="2.6" x="192.0" y="49.0"><title>2020-12-29</title></rect><rect fill="#444444" height="2.6" width="2.6" x="192.0" y="52.5"><title>2020-12-30</title></rect><rect fill="#444444" height="2.6" width="2.6" x="192.0" y="56.0"><title>2020-12-31</title></rect></svg>