<?xml version="1.0" encoding="utf-8" ?>
<svg baseProfile="full" height="300mm" version="1.1" viewBox="0,0,200,300" width="200mm" xmlns="http://www.w3.org/2000/svg" xmlns:ev="http://www.w3.org/2001/xml-events" xmlns:xlink="http://www.w3.org/1999/xlink"><defs /><rect fill="#222222" height="300" width="200" x="0" y="0" /><text fill="#FFFFFF" style="font-size:12px; font-family:Arial; font-weight:bold;" x="10" y="20">Over 4 km Runs</text><text fill="#FFFFFF" style="font-size:4px; font-family:Arial" x="10" y="280">ATHLETE</text><text fill="#FFFFFF" style="font-size:9px; font-family:Arial" x="10" y="290">lizhimiao</text><text fill="#FFFFFF" style="font-size:4px; font-family:Arial" x="120" y="280">STATISTICS</text><text fill="#FFFFFF" style="font-size:3px; font-family:Arial" x="120" y="285">Number: 23</text><text fill="#FFFFFF" style="font-size:3px; font-family:Arial" x="120" y="290">Weekly: 1.8</text><text fill="#FFFFFF" style="font-size:3px; font-family:Arial" x="141" y="285">Total: 148.3 km</text><text fill="#FFFFFF" style="font-size:3px; font-family:Arial" x="141" y="290">Avg: 6.4 km</text><text fill="#FFFFFF" style="font-size:3px; font-family:Arial" x="167" y="285">Min: 4.1 km</text><text fill="#FFFFFF" style="font-size:3px; font-family:Arial" x="167" y="290">Max: 13.4 km</text><polyline fill="none" points="29.781376517843455,38.029341568180826 20.52631578920409,34.18584574700799 12.0,52.76260640582768 21.61943319812417,59.969016191142146 29.198380566667765,61.090008637169376 43.263157894369215,66.53481135179754 44.57489878498018,65.89424785342999 48.0,50.92096008156659 43.55465587042272,48.67895131802652 40.56680161925033,44.35506318701664 30.947368420660496,40.0311565019656 21.910931173712015,33.465188648260664 20.599190283566713,34.345991698734 12.291497975587845,52.842677908658516 22.858299595303833,59.64873240602901 26.72064777323976,59.969016191142146 44.28340080939233,66.45474093680969 47.781376517843455,51.72167628823081 47.27125506056473,49.399597536132205 22.63967611314729,34.5061376253725 21.109311740845442,34.5061376253725 19.724696356337517,36.5079595586285 12.218623481690884,52.76260640582768 20.672064776998013,59.00816453056177 44.50202429108322,66.13445921312086 47.34412955446169,56.12560405221302 47.48987854225561,50.280386658152565 41.004048582632095,46.03657744266093 40.56680161925033,44.51520752260694 23.87854251032695,35.30686687590787 23.004048583097756,33.945626771310344 20.817813764791936,34.10577276133699 12.145748987793922,52.36224879528163 22.493927125353366,59.728803361882456 31.74898785445839,61.970787541300524" stroke="#ffe400" stroke-linecap="round" stroke-linejoin="round" stroke-width="0.5"><title>2022-03-12 5.1km</title></polyline><polyline fill="none" points="74.94555112859234,37.747330531536136 72.57901726430282,35.61981921683764 68.70650730421767,33.88628810411319 67.34395750332624,34.3590696171741 59.02523240353912,52.088213638286106 65.55112881818786,57.367497499042656 73.0810092962347,60.04652632045327 72.29216467496008,63.74987777363276 75.08897742349654,65.40456225076923 76.30810092948377,65.0893844680977 77.527224435471,62.33157459576614 73.79814077029005,60.59809017932275 71.93359893746674,63.74987777363276 74.15670650685206,64.93179553898517 76.16467463504523,65.0893844680977 77.45551128825173,62.09519053553231 73.58300132770091,60.59809017932275 72.14873837959021,63.51349405158544 75.51925630820915,65.56215110467747 77.59893758315593,62.33157459576614 73.79814077029005,60.59809017932275 72.22045152727515,63.98626143950969 75.66268260264769,65.64094552217284 76.95351925631985,63.67108320584521 77.59893758315593,62.252779915288556 73.86985391750932,60.59809017932275 72.07702523237094,63.11952105606906 75.8061088975519,65.79853433830431 77.3837981405668,62.252779915288556 73.94156706519425,60.67688499111682 72.14873837959021,63.04072643822292 75.73439575033262,65.79853433830431 77.3837981405668,62.33157459576614 73.94156706519425,60.67688499111682 72.43559096939862,62.725547904206906 72.65073041198775,63.98626143950969 75.51925630820915,65.56215110467747 77.6706507303752,62.48916393792024 74.08499335963279,60.755679796857294 72.50730411708355,62.410369270073716 72.43559096939862,63.82867233507568 75.16069057118148,65.40456225076923 77.45551128825173,62.17398522864096 73.86985391750932,60.755679796857294 72.65073041198775,62.725547904206906 72.72244355874136,63.98626143950969 75.66268260264769,65.56215110467747 77.527224435471,62.01639583625365 73.58300132770091,60.913269389478955 72.79415670642629,62.09519053553231 72.07702523237094,63.59228863182943 75.66268260264769,65.64094552217284 77.6706507303752,62.33157459576614 73.86985391750932,60.834474596369546 72.36387782171369,62.88313718367135 72.65073041198775,64.22264504875056 75.30411686608568,65.56215110467747 77.59893758315593,62.646753254928626 77.09694555122405,62.01639583625365 73.58300132770091,61.07085895718774 72.36387782171369,62.961931814206764 72.14873837959021,63.74987777363276 75.66268260264769,65.79853433830431 77.6706507303752,62.33157459576614 73.94156706519425,60.59809017932275 72.65073041198775,61.46483276627259 72.36387782171369,63.59228863182943 75.9495351924561,65.79853433830431 77.45551128825173,62.88313718367135 76.2363877822645,61.62242224626243 73.29614873835817,61.07085895718774 72.07702523237094,63.1983156678034 75.8061088975519,65.64094552217284 77.02523240353912,61.937601130863186 73.29614873835817,60.44050053646788 72.14873837959021,63.74987777363276 76.45152722438797,65.64094552217284 77.59893758315593,62.961931814206764 73.51128818048164,60.834474596369546 72.07702523237094,63.59228863182943 75.59096945542842,65.79853433830431 77.59893758315593,62.33157459576614 74.01328021241352,60.755679796857294 72.22045152727515,63.74987777363276 75.87782204523683,65.64094552217284 78.74634794145823,61.78001170104835 90.07702523237094,65.9561231295811 94.3798140771687,50.906280565075576 89.50332005275413,45.942146274319384 72.57901726430282,36.013803138106596 67.63081009266898,34.67425716755679 58.88180610863492,52.16700912633678 65.69455511309206,57.6038826861768 89.79017264256254,65.9561231295811 94.66666666651145,50.748689382278826 89.64674634765834,46.099738221091684 72.79415670642629,36.013803138106596 67.63081009266898,34.516663404763676 58.88180610863492,51.77303162321914 65.62284196540713,57.367497499042656 90.22045152727515,66.11371189588681 94.5232403720729,50.748689382278826 88.0690571051091,45.31177823699545 83.33598937559873,43.4206717206398 72.57901726430282,35.85620958841173 68.70650730421767,34.516663404763676 67.2722443556413,34.989444617473055 58.666666666511446,52.403395553235896 66.9853917658329,58.23424290976254 72.86586985411122,59.810141715512145 71.79017264256254,63.27711027301848 74.30013280222192,65.1681789230206 75.87782204523683,65.71973993326537 77.02523240353912,62.33157459576614 73.43957503279671,60.755679796857294 71.79017264256254,63.434699464880396 72.9375830013305,64.53782310715178 75.8061088975519,65.32576781447278 77.45551128825173,62.410369270073716 73.86985391750932,60.834474596369546 71.93359893746674,63.1983156678034 75.73439575033262,65.87732873717323 77.2403718456626,62.48916393792024 72.9375830013305,61.30724326131167 71.79017264256254,63.434699464880396 75.16069057118148,65.64094552217284 76.45152722438797,65.32576781447278 77.45551128825173,62.961931814206764 73.43957503279671,60.67688499111682 71.79017264256254,63.434699464880396 74.5152722443454,65.32576781447278 75.87782204523683,65.64094552217284 77.6706507303752,62.88313718367135 73.43957503279671,60.755679796857294 71.79017264256254,63.59228863182943 75.37583001283929,65.71973993326537 77.16865869890898,63.59228863182943 76.88180610863492,62.33157459576614 73.51128818048164,60.755679796857294 72.07702523237094,62.725547904206906 72.22045152727515,63.98626143950969 75.66268260264769,66.03491751581896 77.45551128825173,62.48916393792024 73.72642762260512,60.913269389478955 71.79017264256254,63.434699464880396 76.0929614873603,65.64094552217284 77.59893758315593,62.88313718367135 73.36786188557744,60.992064176360145 72.07702523237094,63.1983156678034 75.51925630820915,65.64094552217284 77.59893758315593,62.725547904206906 73.36786188557744,60.834474596369546 71.646746348124,63.67108320584521 74.30013280222192,65.40456225076923 75.87782204523683,65.48335668077925 77.45551128825173,62.646753254928626 73.65471447538584,60.913269389478955 74.15670650685206,59.73134683462558 86.13280212506652,64.93179553898517 90.36387782171369,65.64094552217284 94.45152722438797,51.93062264320906 90.14873837959021,46.80890167149482 71.28818061109632,35.147038304887246 67.77423638757318,34.28027271392057 59.02523240353912,51.694236103619915 68.70650730421767,59.4949621547712 72.72244355874136,59.57375705422601 71.86188579024747,63.1983156678034 72.9375830013305,64.38023409049492 75.9495351924561,65.87732873717323 77.45551128825173,62.88313718367135 73.0810092962347,61.62242224626243 71.86188579024747,63.67108320584521 75.08897742349654,65.71973993326537 75.8061088975519,66.03491751581896 77.31208499334753,63.35590487217996 73.43957503279671,61.07085895718774 71.79017264256254,63.51349405158544 75.8061088975519,65.87732873717323 78.17264276230708,61.85880641895346 84.55511288158596,63.434699464880396 84.12483399733901,64.06505598209333 84.41168658668175,63.1983156678034 90.29216467449442,66.03491751581896 93.44754316052422,56.57954646856524 94.02124833967537,50.6698937813635 88.49933598935604,45.31177823699545 80.39575033215806,40.97798713220982" stroke="red" stroke-linecap="round" stroke-linejoin="round" stroke-width="0.5"><title>2022-03-11 13.4km</title></polyline><polyline fill="none" points="122.87360838241875,38.11011868604692 117.49836280290037,34.846169482392725 113.89129011146724,34.22446363710333 105.96987557318062,51.942925348063 113.04256712505594,57.14960526366485 136.87753765564412,65.38698254415067 140.6967910937965,49.92241522896802 135.10936476755887,45.41510838182876 115.87164374627173,34.22446363710333 114.45710543589666,34.22446363710333 113.67910936521366,35.623301233223174 106.2527832351625,52.64233172457898 116.15455140825361,59.01467789360322 124.07596594654024,60.80203582637478 136.52390307793394,65.77553636283847 140.55533726280555,53.80800790723879 140.48461034707725,50.000127233797684 136.73608382465318,46.3476563305594 116.29600523924455,34.37989013566403 114.81074001314119,34.37989013566403 105.33333333348855,52.33148450800218 114.03274394245818,58.08214202331146 119.47871643770486,59.17010045214556 118.9129011137411,63.36650019866647 122.16633922746405,65.3092717617983 124.14669286180288,61.96770228387322 119.90307793067768,60.56890236824984 118.70072036702186,63.36650019866647 122.16633922746405,65.3092717617983 124.14669286180288,62.123124373087194 120.53962017036974,60.41348003200255 118.70072036702186,62.74481248355005 119.40798952197656,63.9881875187275 122.09561231173575,65.38698254415067 123.9345121155493,62.82252346951282 124.07596594654024,61.88999122980749 120.46889325464144,60.25805767084239 118.8421741980128,62.82252346951282 121.88343156501651,65.07613937812857 122.66142763569951,65.3092717617983 124.641781270504,61.42372477648314 137.01899148663506,65.69782561139436 141.33333333348855,51.398942265077494 132.35101506207138,43.93857231142465 124.07596594654024,39.04267360054655" stroke="#ffe400" stroke-linecap="round" stroke-linejoin="round" stroke-width="0.5"><title>2022-03-06 5.1km</title></polyline><polyline fill="none" points="168.19277108460665,37.72834666707786 162.12048192787915,33.59800228790846 160.53012048173696,33.915721692261286 152.21686746971682,51.390133406734094 152.6506024096161,52.89927281520795 159.37349397595972,58.22095675673336 184.45783132547513,65.92543405591277 187.78313253028318,50.35756302502705 183.22891566250473,48.530705121404026 179.97590361442417,44.63869236706523 170.6506024096161,40.11122989130672 163.9277108432725,34.7100197612308 160.45783132547513,34.55116019793786 152.0,52.422702721785754 163.06024096393958,60.04779695090838 167.18072289181873,60.127224709664006 184.09638554230332,66.24314318533288 184.60240963846445,65.60772482579341 187.78313253028318,50.198705948423594 162.77108433749527,34.15401117922738 161.10843373462558,33.99515152751701 159.73493975913152,35.822035997523926 152.57831325288862,50.51642007625196 152.5060240966268,52.66098779690219 157.7108433735557,57.42667737021111 162.69879518123344,59.73008585255593 169.06024096393958,60.60379112983355 184.31325301202014,66.32257045200095 187.9277108432725,50.59584859240567 182.8674698797986,45.90955534076784 163.78313252981752,35.0277388120885 160.24096385529265,34.8688792992034 152.3614457831718,52.978701141953934 155.68674698797986,56.15582903882023 163.06024096393958,59.49180246255128 167.03614457836375,59.88894141430501 183.80722891539335,66.32257045200095 184.31325301202014,65.6871521428111 188.0,51.787275577080436 187.4939759033732,50.198705948423594 184.67469879519194,48.68956246285234 182.0,45.194695116835646 177.01204819278792,43.20896959019592 166.02409638557583,34.78944953344762 162.33734939759597,33.83629185066093 160.89156626490876,34.630589982902166 152.14457831345499,52.74041614262387 158.93975903652608,57.664961252361536 166.2409638557583,60.04779695090838 165.4457831326872,63.5426123678335 168.62650602404028,65.8460067580454 170.4337349398993,62.58948210225208 166.45783132547513,61.556923288910184 165.37349397595972,63.70146732375724 169.3493975903839,66.00486134772655 170.6506024096161,62.351199393800925 166.89156626490876,60.92150195053546 165.30120481923223,64.41631431289716 168.048192770686,65.76657945360057 168.84337349422276,66.00486134772655 170.7951807230711,62.58948210225208 166.45783132547513,61.159784999792464 165.22891566250473,63.86032225436065 168.5542168673128,65.6871521428111 170.8674698797986,62.90719229175011 166.60240963846445,60.92150195053546 165.73493975913152,64.09860460308846 169.42168674711138,66.0842886333703 171.22891566250473,61.79520618665265 183.0843373495154,66.16371591249481 184.38554216874763,65.76657945360057 187.7108433735557,51.94613240117906 186.9156626504846,49.32499157672282 162.33734939759597,33.99515152751701 160.74698795191944,34.392300609499216 152.2891566264443,53.05812946235528 157.49397590383887,57.823817142343614 166.02409638557583,60.127224709664006 165.5903614461422,64.33688689494738 168.48192771105096,65.76657945360057 170.93975903606042,62.66890965902712 170.2891566264443,62.19234422320733 167.18072289181873,61.08035732305143 165.37349397595972,63.5426123678335 169.20481927739456,65.29001549462555 170.57831325288862,62.98661982320482 168.5542168673128,60.76264655299019 181.42168674711138,65.6871521428111 184.16867469856516,64.81345130834961 186.98795180721208,55.599832385836635 187.2771084336564,50.67527710221475 183.15662650577724,46.14784196857363 162.40963855432346,34.47173040674534 160.74698795191944,34.55116019793786 159.1566265062429,37.33119891077513 152.21686746971682,52.50213108648313 159.59036144567654,58.85637981171021 167.03614457836375,60.127224709664006 183.73493975913152,66.40199771209154 184.89156626490876,64.33688689494738" stroke="red" stroke-linecap="round" stroke-linejoin="round" stroke-width="0.5"><title>2022-03-05 10.9km</title></polyline><polyline fill="none" points="21.115353216067888,72.0 25.744112756103277,72.02792995722848 26.54128801031038,107.55316300259437 28.495653149439022,107.86036349507049 29.549981711432338,107.4693810067547 30.0900036576204,105.84959210100351 29.627127703628503,104.20186867369921 29.549981711432338,96.85684460427728 29.678558365325443,95.99107190038194 30.450018288684078,95.51629247821984 36.544551683124155,95.54422069599968 36.750274329446256,96.66134771562065 36.33882903691847,98.36496005865047 36.80170499102678,100.68297762711882 38.88464678393211,104.56492699543014 38.21604818373453,106.4081407841295 36.85313565249089,107.41352633255883 30.527164280996658,107.60901765618473 30.475733619416133,107.05047074877075 29.704273696173914,106.5198504216387 30.192864980897866,105.51446249469882 29.678558365325443,104.22979624933214 29.575697042164393,96.85684460427728 29.704273696173914,96.07485644231201 30.2957263039425,95.54422069599968 36.570267013972625,95.65593354665907 36.77598966017831,97.30369425562094 36.26168304460589,98.89559184195241 38.75607013003901,104.92798496814794 38.164617522154,106.49192301539006 36.67312833701726,107.6648723014805 31.94150747382082,107.94414540420985 29.807135019102134,107.60901765618473 30.244295642361976,105.48653501403169 29.755704357638024,104.81627485988429 29.627127703628503,96.27035363463801 30.06428832700476,95.62800533711561 31.067186227301136,95.32079489558237 35.97881440597121,95.43250781233655 36.46740569069516,95.82350276067154 36.698843667749316,97.33162234124029 36.36454436776694,98.89559184195241 37.08457362954505,101.29738953718334 38.65320880699437,104.03430317679886 38.80750079185236,105.1514050856349 38.267478845315054,106.46399560701684 36.67312833701726,107.60901765618473 29.729989026789553,107.4693810067547 30.270010973210447,105.43068004664383 29.755704357638024,104.39736165953218 29.575697042164393,97.1361256983073 29.704273696173914,96.10278461882262 30.552879611728713,95.46043603634462 36.46740569069516,95.57214891174226 36.724558998597786,96.99648517710739 36.33882903691847,98.70009600851336 36.85313565249089,100.71090546282358 36.26168304460589,99.09108757416834 36.28739837545436,96.18656913601444 33.02155136654619,95.68386175416526 30.86146358109545,96.01900008309167 29.98714233469218,98.95144777573296 30.192864980897866,105.26311509485822 29.729989026789553,106.3243585343298 30.398587626987137,107.07839811372105 30.11571898846887,107.55316300259437 29.601412372896448,107.49730834082584 29.96142700384371,106.82705175448791 30.2957263039425,107.41352633255883 29.575697042164393,107.4414536706463 29.96142700384371,106.74326959758764 30.450018288684078,107.32974430572358 27.90420054155402,108.0 26.54128801031038,107.74865425401367 26.361280694720335,106.38021336964448 26.4641420179978,88.1990282512561 25.89840474096127,85.74128937456408 25.92412007157691,72.13964976515854" stroke="#ff5e00" stroke-linecap="round" stroke-linejoin="round" stroke-width="0.5"><title>2022-02-26 10.0km</title></polyline><polyline fill="none" points="73.88911155657843,77.15841062739491 70.78690714808181,74.30467365507502 67.4682698729448,74.14613247284433 58.666666666511446,92.06112662469968 65.59251837059855,97.13434085110202 73.02338009374216,100.4636236668448 71.86907147662714,103.47582235519076 75.3319973279722,105.6160632648971 77.6406145626679,102.20752927899593 73.96125584514812,100.62216066679684 72.01336005330086,103.39655408507679 75.54843019368127,105.45752705872292 78.43420173693448,101.25630841398379 90.62658650660887,105.85386752709746 94.37808951269835,89.8415872878395 84.71075484296307,83.50001911452273 84.63861055485904,82.23170064238366 68.91115564480424,74.2254030671902 67.39612558484077,74.46321481216 58.95524382125586,92.2989341179491 66.60253841010854,97.84775953262579 72.87909151660278,99.67093828989891 71.94121576519683,103.47582235519076 75.54843019368127,105.77459944592556 77.49632598552853,102.20752927899593 73.60053440229967,100.62216066679684 72.37408149661496,102.7624076983193 72.08550434233621,103.47582235519076 75.90915163652971,105.69533135870006 77.20774883124977,102.20752927899593 73.81696726800874,100.54289216990583 72.1576486309059,103.23801752616419 76.26987307984382,105.77459944592556 77.20774883124977,102.12826090829913 73.4562458251603,100.7014291571104 72.1576486309059,103.39655408507679 75.90915163652971,105.85386752709746 77.42418169695884,102.84167601866648 76.63059452269226,102.3660660017049 73.88911155657843,100.62216066679684 72.01336005330086,103.23801752616419 75.11556446226314,105.45752705872292 77.35203740792349,102.60387103853282 73.16766867088154,100.85996611911105 72.08550434233621,103.31728580885101 75.40414161700755,105.45752705872292 77.6406145626679,102.52460269932635 73.96125584514812,100.85996611911105 72.08550434233621,103.15874923730735 76.05344021366909,105.6160632648971 77.6406145626679,102.52460269932635 76.91917167697102,102.04899253125768 73.88911155657843,100.7014291571104 72.1576486309059,103.39655408507679 75.69271877128631,105.53679516492411 76.19772879127413,104.82338198181242 77.35203740792349,102.60387103853282 73.96125584514812,100.78069764119573 74.46626586513594,99.75020685599884 90.55444221803918,105.69533135870006 91.63660654658452,103.47582235519076 94.66666666651145,91.34770380496047 94.0895123584196,89.6830485748942 70.06546426238492,74.2254030671902 67.82899131625891,74.54248538130196 63.50033400161192,82.7073202583706 71.43620574474335,86.51226902345661" stroke="#ffe000" stroke-linecap="round" stroke-linejoin="round" stroke-width="0.5"><title>2022-02-14 5.2km</title></polyline><polyline fill="none" points="118.24169986741617,79.20507334667491 122.11420982750133,80.62340886919992 123.11819389136508,78.25951520429226 115.44488711841404,74.55607046553632 114.08233731752262,75.18644501484232 105.54847277561203,91.18206510489108 105.33333333348855,92.67917890340323 112.0743691897951,96.93412156909471 137.24568393127993,105.75912963825976 141.33333333348855,90.31531397812068 123.6201859228313,78.33831175061641 115.08632138092071,74.24088304053294 113.22177954856306,75.50163213937776 105.4767596279271,92.12761092494475 108.84727755654603,95.98858033231227 135.88313412992284,105.83792399929371 138.24966799467802,103.15891220711637 140.90305444877595,91.65483812760795 140.40106241684407,89.44856209366117 134.73572377162054,85.03599529917119 125.55644090333953,80.30822337284917 121.32536520529538,76.6047862857813 116.52058432949707,74.0832892904873 114.15405046520755,74.31967990624253 105.6201859228313,92.52158808358945 116.30544488690794,99.45556045952253 122.83134130155668,101.74060891655972 123.40504648070782,103.0013230528566 123.97875165985897,102.37096618494252 120.32138114189729,100.79507226258283 118.45683930953965,103.23770677490393 122.40106241684407,105.75912963825976 124.91102257650346,101.58301953680348 136.95883134100586,105.68033527076477 141.11819389136508,91.10326957929647 134.8074369188398,85.74515914398944 117.30942895123735,74.0832892904873 114.29747675964609,73.84689861844527 113.43691899068654,75.26524180546403 105.6201859228313,92.0488154743216 113.29349269578233,97.87966190424049 116.59229747671634,99.37676559132524 119.60424966784194,98.90399625012651 137.0305444886908,106.15310138155473 140.68791500665247,90.07892717560753 132.94289508648217,84.79960723826662" stroke="#ffcd00" stroke-linecap="round" stroke-linejoin="round" stroke-width="0.5"><title>2022-02-11 5.9km</title></polyline><polyline fill="none" points="165.3919999995269,103.96309121063678 168.9199999999255,105.78261262306478 170.07199999969453,105.07062637933996 170.35999999986961,102.6973352234927 167.1199999996461,100.87780817295425 165.24799999967217,104.04220090637682 168.99200000008568,106.17816031601978 170.86399999959394,102.53911561192945 173.02399999974295,101.90623691445217 184.11199999973178,105.86172217415879 187.8560000001453,89.88146522559691 162.36799999978393,73.82183968398022 159.8479999997653,75.72052812861511 152.0,92.8876717631938 157.6159999994561,96.68497231014771 166.2559999995865,98.82094750320539 183.53599999984726,105.86172217415879 188.0,91.46368032431928 181.66399999987334,85.29302721988643 162.58399999979883,73.90095177484909 159.1999999997206,76.90720656764461 152.21599999954924,93.20411402877653 171.65599999995902,102.22267631354043 182.81599999964237,106.01994125760393 184.04000000003725,105.38706477254163 187.42400000011548,93.36233512364561 187.1359999999404,89.64413274393883 182.38400000007823,85.45124957204098 175.39999999990687,82.20768632541876 165.8239999995567,75.56230422988301 162.87199999997392,73.98006385954795 160.7839999999851,74.21740007546032 152.21599999954924,93.28322457935428 166.11199999973178,100.00759840820683 165.03199999965727,104.20042027911404 168.8479999997653,105.94083171914099 170.71999999973923,102.6973352234927 167.0479999994859,101.19424789887853 165.10399999981746,103.88398150849389 169.2799999997951,106.09905079007149 170.43199999956414,102.53911561192945 166.831999999471,101.03602804854745 165.31999999983236,103.80487180018099 168.4879999998957,105.78261262306478 170.43199999956414,103.01377437124029 166.831999999471,101.19424789887853 165.03199999965727,103.72576208558166 169.0639999997802,105.94083171914099 171.51199999963865,101.66890729911393 183.67999999970198,105.86172217415879 186.34400000004098,98.97916770545999 187.9279999998398,90.59346233122051 166.0399999995716,75.72052812861511 162.79999999981374,74.53384827513946 160.13599999947473,75.79964006866794 155.74399999948218,84.81836001254851" stroke="#ffbf00" stroke-linecap="round" stroke-linejoin="round" stroke-width="0.5"><title>2022-01-18 6.4km</title></polyline><polyline fill="none" points="29.569721115753055,118.18071549304295 22.82868525898084,114.24087925552158 20.67729083634913,114.63486358372029 12.286852589342743,132.28520089021185 15.155378485564142,134.80665200197836 24.478087649215013,139.92832983564585 26.701195219065994,139.53435555670876 43.984063745010644,146.0743083198322 48.0,131.3396550701582 47.569721116218716,129.6849477160722 42.98007968161255,125.50876925798366 25.410358565859497,115.26523818314308 21.035856573376805,114.16208237106912 12.573705179151148,131.26085954456357 12.358565737027675,132.75797346199397 16.876494023483247,136.30376056628302 23.832669322844595,140.16471432766411 28.207171314395964,140.47989356302423 43.266932271420956,145.8379252362647 47.8565737050958,130.78808625903912 39.25099601596594,123.46007150853984 32.22310756985098,120.15062774153193 23.61752988025546,113.92569168022601 21.32270916318521,114.08328548056306 12.0,132.75797346199397 19.81673306785524,138.43122674326878 25.912350597325712,140.00712467258563 25.12350597558543,143.5528858571779 28.49402390420437,145.6015420964104 30.78884462127462,142.76494002284016 27.05976095609367,140.87386746611446 25.6972111556679,142.76494002284016 25.840637450106442,144.02565305720782 28.5657370518893,145.36515890003648 29.92828685278073,144.57721450575627 30.430278884246945,142.29217222164152 26.34262948203832,141.03145698370645 25.05179282883182,143.78926948533626 25.6972111556679,144.34083106543403 28.63745019910857,145.68033648259006 30.57370517961681,142.92252923978958 27.13147410331294,141.03145698370645 26.988047808408737,139.69194528716616 44.055776892695576,145.52274770394433 47.78486055787653,130.78808625903912 43.8406374505721,126.06034100579564 25.410358565859497,115.58042533270782" stroke="#ffe500" stroke-linecap="round" stroke-linejoin="round" stroke-width="0.5"><title>2022-01-15 5.1km</title></polyline><polyline fill="none" points="76.38320209924132,118.32030865480192 68.1627296586521,114.42700560681988 58.80839894991368,132.80326018849155 61.92650918615982,135.13920006662374 70.92650918615982,139.18814933125395 90.27296587917954,145.18367809290066 94.31233595777303,131.4016935887048 89.28083989443257,125.40608050493756 84.0367454062216,123.38157949061133 70.28871391061693,114.42700560681988 67.73753280797973,114.3491393882432 58.950131233781576,133.11471916071605 70.71391076082364,138.79882801353233 89.91863517044112,145.4172693801229 91.61942257219926,142.76989819738083 94.24146981630474,131.16809896053746 88.92650918615982,125.63967650668928 73.6194225717336,116.52939117403002 67.52493438310921,114.50487181940116 58.80839894991368,132.41393633408006 72.76902887132019,139.6553347085137 71.5643044617027,143.3149457902182 72.91076115425676,144.24931238690624 75.81627296563238,145.4172693801229 77.44619422545657,142.4584422937478 73.97375328047201,140.66756892821286 72.20209973724559,143.93785695364932 75.88713910756633,145.26154186128406 76.87926509184763,143.85999307985185 77.37532808352262,142.38057830248727 73.97375328047201,140.90116129175294 72.34383202064782,142.22485030122334 72.27296587917954,144.17144853784703 75.88713910756633,145.49513313011266 77.37532808352262,142.69203423068393 73.54855643026531,140.58970479445998 71.91863517044112,143.2370818668278 74.96587926475331,145.26154186128406 76.1706036743708,144.9500867498573 77.16272965818644,142.06912227539578 73.40682414686307,140.82329717668472 72.13123359531164,142.92562611197354 71.84776902897283,143.70426531368867 75.24934383202344,145.6508606117568 77.94225721759722,141.6019380489015 90.556430445984,145.49513313011266 94.66666666651145,131.16809896053746 94.24146981630474,129.68866502249148 86.44619422545657,124.16023422195576 68.51706036739051,114.3491393882432 63.41469816211611,122.52505857148208 58.666666666511446,132.64753066527192 59.1627296586521,133.50404273648746 88.9973753276281,145.26154186128406 91.33595800492913,143.54853752296185 93.32020997349173,137.00794795976253 94.02887139096856,129.92226000333903 86.09186351671815,123.69304145727074 69.36745406826958,114.3491393882432 67.87926509138197,114.58273802592885 58.80839894991368,132.88112494081724 72.48556430451572,139.34387781500118 71.63517060363665,143.70426531368867 75.81627296563238,144.7943591569201 77.30446194205433,142.14698629139457 73.76115485513583,140.7454330555047 71.84776902897283,143.2370818668278 75.81627296563238,145.02795053704176 77.44619422545657,142.22485030122334 74.96587926475331,140.82329717668472 76.09973753243685,139.96679150272394 90.556430445984,145.4172693801229 94.09973753290251,130.4673147420399 86.44619422545657,124.00450332520995 70.35958005208522,114.58273802592885 68.09186351671815,114.50487181940116 64.61942257219926,119.72189396509202 59.09186351718381,132.02461232506903 59.446194225456566,133.19258388812887 66.24934383155778,135.76211642695125 70.07611548528075,138.48737084801542 90.13123359531164,145.6508606117568 94.24146981630474,131.24596384295728 88.50131233548746,125.25034980627242 74.82414698135108,117.4637833115994" stroke="red" stroke-linecap="round" stroke-linejoin="round" stroke-width="0.5"><title>2022-01-14 10.0km</title></polyline><polyline fill="none" points="123.65668662684038,117.9597399495542 114.67465069890022,114.1699480759562 105.98003992019221,131.0659920728067 105.7644710582681,133.27666816249257 130.33932135719806,143.30360153788934 138.0279441117309,145.27739540144103 141.11776447156444,129.72379347588867 115.17764471052215,114.1699480759562 113.81237524980679,114.88053515326465 105.33333333348855,132.64504692453193 117.7644710582681,139.19809774303576 137.3093812377192,145.98796023253817 137.95608782442287,145.35634707455756 141.33333333348855,131.8555198124377 140.97405189601704,129.56588763929904 115.46506986021996,114.01203976752004 112.01596806431189,118.19660146156093 105.40518962126225,132.4081888567307 119.27345309406519,139.35600204893854 119.99201596807688,140.6192355917301 118.62674650689587,143.61940881959163 122.29141716565937,145.67215370375197 123.80039920192212,142.19827526190784 120.20758483046666,141.0139957444626 118.69860279466957,143.69836062425748 119.99201596807688,144.48787832655944 119.34530938137323,144.88263694249326 122.21956087835133,145.67215370375197 124.08782435161993,142.98779415606987 120.78243512986228,141.0139957444626 118.98602794436738,144.01416778058046 122.57884231535718,145.83005698065972 124.15968063892797,143.14569785952335 120.2794411177747,140.69818763475632 118.69860279466957,143.54045700863935 122.07584830373526,145.5142504016403 125.0219560880214,141.80351557955146 137.95608782442287,145.5142504016403 140.75848303409293,134.69781448016874 140.83033932140097,130.0396050735144 134.00399201596156,125.61823357117828 132.78243512986228,123.4075404421892 125.0219560880214,119.30195443815319" stroke="#ffe500" stroke-linecap="round" stroke-linejoin="round" stroke-width="0.5"><title>2022-01-09 5.1km</title></polyline><polyline fill="none" points="170.14457831345499,118.56235911033582 160.81927710864693,114.03487145004328 152.07228915626183,133.2566953151254 164.4337349398993,139.76979146071244 169.92771084373817,140.72292392270174 184.2409638557583,145.9651362184668 188.0,130.31784535513725 163.13253012066707,114.19373101333622 160.31325301202014,114.51145006419392 152.0,132.70069733675336 160.60240963846445,138.4989467645646 166.67469879519194,139.45208043814637 183.01204819278792,146.20341794227716 184.3132530124858,145.64742716483306 186.84337349422276,137.22810045274673 187.49397590430453,129.5235600991291 162.12048192787915,113.79658205772284 160.60240963846445,113.79658205772284 159.73493975913152,115.14688786293846 152.0,132.54184071463533 160.38554216874763,138.02237958693877 165.73493975913152,139.9286469342187 165.44578313315287,144.21773517428664 169.13253012066707,146.12399070733227 170.2891566264443,142.39090354408836 166.67469879519194,140.64349625213072 164.93975903652608,143.5028884120984 168.84337349422276,146.12399070733227 170.4337349398993,142.62918612000067 166.96385542163625,140.88177924446063 165.2289156629704,143.1851785761537 165.01204819325358,143.9000255652354 169.13253012066707,145.885708964488 170.4337349398993,142.232048461854 166.81927710864693,140.8023515866953 165.01204819325358,143.5028884120984 168.48192771105096,145.64742716483306 170.7228915663436,142.54975860082777 166.45783132547513,140.8023515866953 165.01204819325358,143.5823158554267 169.2048192769289,145.885708964488 170.57831325335428,142.94689613266382 167.90361445769668,141.2789174389909 168.48192771105096,140.8023515866953 183.0843373495154,145.885708964488 184.53012048220262,145.56799988570856 187.56626506056637,130.0001313284738 182.4337349398993,125.0755510010058 180.55421686777845,125.23440880968701 168.69879518123344,117.29148745164275" stroke="#ffda00" stroke-linecap="round" stroke-linejoin="round" stroke-width="0.5"><title>2022-01-08 5.5km</title></polyline><polyline fill="none" points="44.05929304449819,182.47093222365947 48.0,175.25459225242957 47.34321550745517,173.72110819024965 43.19726339797489,172.27782528853277 34.41277080983855,167.72243956004968 33.63283922453411,168.17346948076738 32.93500570137985,172.54844111209968 30.22576966928318,171.7365932544344 31.53933865460567,171.28556616499554 32.27822120883502,166.91058479994535 29.77423033071682,164.56522008113097 17.82896237168461,157.6192754091462 16.59749144827947,157.79969063185854 12.082098061451688,168.17346948076738 17.459521094569936,172.1876199854305 20.168757126666605,172.36803057749057 29.77423033071682,175.70561618823558 29.527936145896092,176.15663976565702 26.120866590645164,174.5329532098258 24.889395667240024,177.6450150287128 25.258836944354698,178.36665011523291 27.352337514283136,179.44910102477297 29.445838084444404,177.6901172483922 30.96465222351253,173.81131324969465 32.48346636258066,167.13610012759455 29.856328392401338,164.20439387951046 26.40820980630815,162.89639697625535 17.007981756003574,157.5741715945187 12.0,167.99305755546084 15.694412770913914,171.42087432951666 19.019384264480323,172.68374897557078 24.848346636397764,173.540698028286 28.583808437921107,175.43500186974416 30.34891676180996,175.66051381081343 32.606613455107436,167.63223353301873 32.27822120883502,166.82037864380982 30.22576966928318,165.64769730943954 30.3078677309677,165.01625251042424 28.37856328394264,164.56522008113097 17.705815279390663,157.5741715945187 16.925883694551885,157.7545868314919 16.269099201774225,158.97238818067126 12.164196123369038,168.44408726098482 16.51539338659495,171.87190131132957 30.22576966928318,175.52520665695192 31.867730900878087,169.97758557915222 31.58038768544793,167.85774857387878 28.091220068512484,163.52784413349582 19.92246294184588,158.65666215587407 17.500570125412196,157.52906777639873 16.802736602025107,157.9801057970035 12.205245153978467,168.5342931592022 18.649942987365648,172.41313321655616 22.960091220214963,173.0896723723272 30.143671607831493,175.66051381081343 30.759407069766894,173.0896723723272 32.647662485716864,172.90926200972172 32.93500570137985,172.36803057749057 33.63283922453411,168.7147049123305 36.17787913349457,168.7147049123305" stroke="#ffab00" stroke-linecap="round" stroke-linejoin="round" stroke-width="0.5"><title>2022-01-07 7.2km</title></polyline><polyline fill="none" points="69.47294065821916,152.0 71.09979035612196,152.2760868309415 71.2014684623573,163.89915712852962 71.70985899295192,169.53110851871315 71.81153709907085,183.9694977295003 71.5319223072147,185.3498116247647 71.83695662557147,187.47548504374572 73.74342111533042,188.0 74.81104122987017,187.1718181533215 75.4211098664673,185.15656798661803 74.91271933587268,184.54923018696718 74.81104122987017,183.1413069429691 74.81104122987017,176.32246630481677 75.85324181744363,175.549472462415 81.9539281851612,175.6322933078045 81.52179623406846,178.7794718183868 82.2843820300186,181.54013288006536 83.8095536219189,183.8866787335137 83.86039267503656,184.7700804102351 83.30116309132427,186.37124062213115 81.59805481368676,187.66872748179594 75.80240276444238,187.64112142528757 75.59904655232094,186.70251429147902 75.03981696849223,186.67490816360805 74.8364607563708,187.19942424452165 75.3194317604648,187.3650607484742 75.70072465843987,186.97857545810984 75.11607554811053,186.53687749351957 75.06523649499286,187.2270303335681 75.62446607882157,186.8129387826193 75.11607554811053,186.64730203372892 75.14149507461116,187.3650607484742 75.70072465843987,187.1442120601132 75.21775365422945,186.64730203372892 74.15013353992254,187.69633353617974 72.26908857666422,187.77915168719483 71.65901993983425,187.3374546696141 71.6844394664513,168.23355862384778 71.25230751535855,164.78260610302095 71.12520988262258,152.3036955028365 71.07437082962133,166.2734215062228 71.4556637275964,167.37772537360433 71.2014684623573,156.77627337924787" stroke="#ffc900" stroke-linecap="round" stroke-linejoin="round" stroke-width="0.5"><title>2022-01-01 6.1km</title></polyline><polyline fill="none" points="137.1223241589032,182.1115104992059 137.9480122323148,182.3383128644782 139.35168195702136,180.43317019677488 141.08562691113912,176.71358761878219 141.33333333325572,174.49089865735732 128.24617736972868,167.45988679717993 127.37920489255339,168.0495878929505 126.42966360831633,172.40428481868003 124.73700305796228,172.4496460701921 125.64525993843563,166.64337658212753 111.85626911302097,157.97922402067343 110.03975535160862,157.97922402067343 105.49847094761208,167.23307852132712 105.4571865440812,168.5485652673524 112.02140672761016,172.40428481868003 113.46636085608043,172.54036856227322 113.01223241561092,175.08059249055805 115.20030581019819,175.98781258281088 115.98470947984606,174.26409317471553 113.7966360852588,172.76717472978635 113.30122324125841,174.71770404983545 115.28287461749278,175.80636867973953 115.90214067255147,174.26409317471553 113.67278287443332,172.90325838705758 113.30122324125841,174.98987040197244 115.07645259913988,175.76100769487675 115.98470947984606,174.12800984201021 114.0443425073754,172.9939808070194 113.05351681937464,174.49089865735732 114.95259938808158,175.7156467065215 115.4480122323148,175.7156467065215 116.10856269090436,173.94656534772366 113.63149847066961,172.85789717145963 113.01223241561092,174.62698190368246 115.1177370029036,175.80636867973953 115.77828746149316,173.76512079586973 113.83792048902251,172.81253595242742 113.30122324125841,173.5383150249836 113.13608562690206,174.53625974309398 115.07645259913988,175.7156467065215 115.98470947984606,173.85584307904355 113.63149847066961,173.3115091639338 113.09480122313835,174.62698190368246 114.66360856243409,175.6702857144992 115.48929663584568,175.48884171049576 116.76911314972676,173.35687034326838 123.53975535137579,175.80636867973953 126.01681957161054,167.95886468706885 125.52140672761016,166.7340999969747 115.3654434250202,159.83907937229378 113.5902140669059,159.38545667455764 111.11314984690398,157.6616871355218 110.16360856243409,157.79777439363534 105.33333333325572,168.00422629184322 112.68195718619972,171.90531081421068 123.20948012219742,175.80636867973953 123.95259938808158,175.44348070042906 125.85168195702136,167.95886468706885 125.64525993843563,166.59801486920333 111.15443425066769,157.79777439363534 110.32874617702328,157.75241197785363 105.4571865440812,167.64133335306542 105.62232415890321,168.45784214086598 107.02599388337694,169.4557957398938 112.39296636055224,172.31356230488745 115.69571865419857,172.81253595242742 123.66360856243409,176.12389547238126 124.69571865419857,172.40428481868003 124.98470947984606,171.90531081421068 125.43883792031556,174.12800984201021 127.2966360852588,168.45784214086598 128.03975535160862,167.95886468706885 140.5902140669059,173.76512079586973" stroke="#ffae00" stroke-linecap="round" stroke-linejoin="round" stroke-width="0.5"><title>2021-12-24 7.1km</title></polyline><polyline fill="none" points="186.1938426452689,180.5991955579375 188.0,176.90080986294197 187.26111744577065,175.36732580076205 184.34663625992835,174.32996658608317 179.87229190394282,170.99236320744967 174.45381984044798,169.54906918189954 173.05815279344097,171.89442010986386 172.97605473198928,175.05160797963617 171.25199543894269,174.19465872261208 172.72976054716855,175.90855594276218 172.93500570114702,174.1495560943731 171.90877993148752,173.15729736495996 172.64766248571686,169.68437815271318 171.90877993148752,167.6096370560117 170.67730900784954,166.21143769164337 166.6134549600538,164.90344161982648 158.9372862027958,159.71653096860973 156.76168757118285,159.4008044420043 152.0,170.1805107697146 156.51539338636212,173.06709194002906 162.42645381973125,175.32222326571355 160.33295324956998,174.46527441730723 159.59407069534063,175.6379409363144 159.67616875702515,176.49488801433472 161.441277080914,177.39693617261946 162.63169897370972,175.50263338466175 160.5792474343907,174.5554796202341 159.84036488016136,175.0967105361633 159.71721778810024,176.4497855688096 161.64652223489247,177.48714090959402 162.5496009120252,175.45753086020704 160.16875712643377,174.46527441730723 159.47092360327952,176.13406834966736 161.48232611152343,177.39693617261946 162.63169897370972,175.59283842262812 160.2508551881183,174.82609514263459 159.88141391100362,176.35958066693274 161.40022805007175,177.26162904023658 162.50855188141577,175.59283842262812 160.4971493727062,174.46527441730723 159.6351197261829,175.6379409363144 159.6351197261829,176.4497855688096 161.56442417320795,177.44203854294028 162.67274800455198,175.6830434463336 160.33295324956998,174.5554796202341 159.42987457243726,176.13406834966736 160.8255416189786,177.17142426746432 161.64652223489247,177.48714090959402 162.59064994286746,175.90855594276218 160.45610034186393,174.46527441730723 159.51197263388894,175.99876091629267 161.23603192693554,177.21652665559668 161.97491448093206,177.12632187572308 162.71379703539424,175.50263338466175 160.4971493727062,174.82609514263459 159.75826681847684,176.63019532948965 161.40022805007175,177.35183379874798 162.50855188141577,175.95365843136096 160.20980615727603,174.78099256451242 159.51197263388894,175.95365843136096 161.27708095754497,177.26162904023658 161.72862029634416,177.44203854294028 162.59064994286746,175.8183509549708 160.20980615727603,174.5103770205169 159.79931584955193,176.35958066693274 161.3591790192295,177.21652665559668 162.5496009120252,175.77324845572002 160.33295324956998,174.37506920006126 159.51197263388894,176.35958066693274 161.15393386525102,177.21652665559668 161.93386545055546,176.94591227266937 162.71379703539424,175.32222326571355 160.20980615727603,174.78099256451242 159.59407069534063,176.35958066693274 161.23603192693554,177.30673142132582 162.67274800455198,175.59283842262812 160.20980615727603,174.73588998283958 159.67616875702515,175.45753086020704 159.38882554136217,176.31447821069742 161.31812998862006,177.48714090959402 162.63169897370972,175.6830434463336 160.33295324956998,174.28486396861263 159.38882554136217,176.4497855688096 161.6054732040502,177.44203854294028 162.71379703539424,175.54773590539116 160.00456100329757,174.69078739749966 159.30672747991048,176.4046831196756 161.27708095754497,177.35183379874798 161.93386545055546,177.03611708129756 162.34435575804673,175.36732580076205 160.53819840354845,174.64568480860908 159.47092360327952,175.99876091629267 161.441277080914,177.5322432727553 163.2474344354123,175.05160797963617 170.30786773073487,177.35183379874798 170.882554161828,174.73588998283958 172.81185860885307,173.60832427523565 173.75598631682806,170.13540782243945 174.4948688710574,169.68437815271318 176.9988597491756,170.22561371332267 178.76396807283163,171.6238031896646" stroke="#ffcc00" stroke-linecap="round" stroke-linejoin="round" stroke-width="0.5"><title>2021-12-19 6.0km</title></polyline><polyline fill="none" points="43.09839816973545,222.26482406491414 44.00457665929571,222.49110732373083 45.40503432508558,220.99763615475968 48.0,215.83834198850673 47.958810068899766,214.07330957206432 34.36613272340037,207.6919928950956 33.37757437094115,209.68333343282575 33.08924485137686,213.25867738126544 31.52402746025473,212.21775677549886 32.59496567538008,206.78683580365032 30.00000000023283,205.02177533798385 29.711670480668545,204.20713020121912 27.07551487442106,203.43774205766385 22.21510297502391,199.77181957039284 17.313501144293696,197.50889267621096 12.0,208.23508645949187 17.27231121296063,211.6294095045887 20.320366133004427,212.03672691062093 19.62013729987666,214.0280522587127 21.061784897232428,215.6120560869458 22.70938215125352,213.75650830299128 20.237986270105466,212.80610343866283 19.661327231442556,214.39011066488456 21.55606407346204,215.70257045840845 22.70938215125352,213.71125096437754 20.237986270105466,212.80610343866283 19.908466819440946,215.11422678706003 21.514874142128974,215.38577009551227 22.70938215125352,213.93753762118286 20.44393592677079,212.2630142326234 20.155606407672167,214.66165431862464 21.88558352412656,215.2952556737 22.54462242568843,213.75650830299128 20.608695652335882,212.62507376080612 19.661327231442556,214.25433878955664 20.320366133004427,214.84268334909575 21.96796338679269,215.24999845743878 22.750572082586586,213.1681626215577 20.526315789669752,212.8513608490466 19.990846682107076,213.57547892734874 19.743707093875855,214.34485337673686 21.844393592793494,215.2952556737 22.503432494355366,213.71125096437754 20.567505721002817,212.62507376080612 19.53775743721053,214.70691158162663 21.844393592793494,215.88359915808542 22.4622425630223,213.5302215743577 20.526315789669752,212.62507376080612 19.578947368776426,214.25433878955664 19.496567505877465,214.75216884101974 21.47368421079591,215.65731327445246 22.832951945252717,213.8470229692175 22.4622425630223,213.57547892734874 20.608695652335882,212.71558860689402 19.661327231442556,214.16382418794092 21.762013730127364,215.70257045840845 22.750572082586586,213.66599362232955 20.320366133004427,212.76084602455376 19.53775743721053,214.39011066488456 21.39130434789695,215.5667988958885 22.503432494355366,214.34485337673686 22.338672769023106,213.5302215743577 20.814645309001207,212.76084602455376 19.62013729987666,214.16382418794092 21.47368421079591,215.5215417011059 22.79176201391965,213.71125096437754 20.649885583668947,212.71558860689402 19.70251716254279,214.20908149064053" stroke="#fff800" stroke-linecap="round" stroke-linejoin="round" stroke-width="0.5"><title>2021-12-18 4.4km</title></polyline><polyline fill="none" points="90.69397042086348,222.1725499118911 94.50284414109774,215.82762472506147 92.45506257098168,213.4876343747601 84.79635949945077,209.21262703824323 81.60182025004178,208.13262007880257 80.57792946510017,208.89762522111414 79.55403868039139,212.94763522868743 78.44823663239367,212.58763551188167 76.76905574509874,213.80263363884296 78.03868031851016,211.0126340604038 78.57110352651216,206.37760437699035 76.40045506251045,204.62258323648712 72.91922639356926,203.13756110036047 70.17519908980466,200.79751831607427 64.56427758792415,198.05245580227347 63.70420932886191,197.96245352725964 62.72127417498268,199.447489234386 58.91240045498125,208.4026220117812 70.13424345827661,213.39763455290813 77.54721274157055,215.73762527492363 78.24345847545192,214.0276330060442 78.03868031851016,212.0926355276606 79.06257110345177,206.51260577794164 64.3594994309824,197.87245123810135 63.54038680298254,198.09745693427976 62.02502844133414,200.79751831607427 58.8714448234532,208.35762169858208 66.16154721286148,211.8226353538921 76.76905574509874,215.91762416082202 77.54721274157055,215.73762527492363 78.65301478956826,205.9275994747877 75.04891922650859,204.3525795013993 69.39704209333286,200.437510875694 66.44823663239367,199.447489234386 65.71103526721708,198.32246254116762 63.62229806580581,197.82745008805068 58.66666666674428,208.17762040987145 66.73492605239153,212.0926355276606 66.32536973827519,214.38763180741807 68.53697383380495,215.37762733158888 69.1922639363911,213.7126338670496 67.14448236627504,212.81263536168262 66.24345847545192,214.29763212858234 66.93970420933329,214.83762998745078 68.61888509686105,215.15262850077124 69.51990898745134,213.082635063387 77.05574516486377,215.55762633186532 77.8339021615684,212.94763522868743 79.92263936297968,211.91263542615343 80.29124004556797,208.08761974412482 81.60182025004178,207.72761693800567 92.49601820250973,212.94763522868743 94.3390216154512,212.99263517715735 94.66666666674428,213.80263363884296 93.68373151286505,217.1326151441317" stroke="#ffc800" stroke-linecap="round" stroke-linejoin="round" stroke-width="0.5"><title>2021-12-15 6.1km</title></polyline><polyline fill="none" points="138.79984865663573,221.4265725017176 141.21074536489323,216.35316433315165 140.92470677243546,215.096029603621 138.47294740797952,214.198074513115 137.6148316306062,213.07562864321517 127.97124479734339,208.90011043293634 126.94967839564197,209.70827765582362 126.13242527400143,213.07562864321517 124.90654559177347,212.9409349891357 125.92811199370772,208.22663686412852 125.56034808908589,207.4184675219003 111.70790768042207,198.66322555486113 110.11426409333944,198.79792261269176 105.496783957351,208.54092462942936 105.33333333325572,209.43888871005038 110.84979190281592,213.16542439494515 115.14037079038098,213.56950510072056 123.190314036794,216.71234517078847 123.92584184603766,216.35316433315165 125.4377601207234,210.33685136359418 125.56034808908589,207.5082641725894 122.94513810030185,204.9490540365805 110.80892924685031,198.5734274983406 105.53764661331661,209.21439782361267 110.07340143760666,212.53685383382253 124.00756715820171,216.80214034451637 124.21188043849543,214.1082789255306 125.27430949639529,214.91643869969994 127.03140370757319,211.1450165316346 127.03140370757319,209.43888871005038 128.1346954216715,208.98990684811724 130.4230041615665,209.66337950713933 138.88157396879978,214.33276786765782 140.88384411623701,214.73684773861896 141.33333333325572,215.94908561796183" stroke="#fffd00" stroke-linecap="round" stroke-linejoin="round" stroke-width="0.5"><title>2021-12-13 4.2km</title></polyline><polyline fill="none" points="185.1516483516898,221.4318978912779 188.0,215.91163926769514 187.80219780211337,214.60763303458225 175.49890109873377,208.56569692178164 174.62857142859139,208.869968681538 174.0351648349315,210.56519395837677 171.978021977935,219.73670628733817 174.66813186812215,208.56569692178164 160.2285714284517,199.13318842672743 157.97362637333572,199.13318842672743 154.2945054944139,206.60966014044243 153.58241758239456,209.43504435755312 157.81538461521268,212.1734797495301 161.89010988990776,212.8254861557216 169.4461538461037,216.21590694153565 171.02857142849825,216.2593737382267 173.00659340643324,208.6960991252563 172.76923076924868,207.43554319019313 168.10109890112653,203.74079354217974 162.44395604380406,200.95884792634752 159.75384615384974,198.5681021087221 158.0131868130993,199.17665658090846 154.33406593394466,206.3053871235752 153.46373626380228,208.95690343886963 155.1648351647891,210.30439041150385 153.22637362638488,209.39157701851218 152.0,211.78227553277975 153.46373626380228,213.39055774587905 165.45054945070297,219.30204092737404 169.09010989009403,220.60603597117006 170.1978021976538,219.9540388378373 172.45274725253694,211.99961124331458 172.9670329671353,207.60941314703086 169.0109890110325,204.4362777355127 167.27032967004925,203.91466467347345 159.16043956018984,198.87237942949287 157.8945054942742,199.08972026919946 157.06373626366258,200.52416764578084 153.26593406591564,209.5654463536339 157.30109890107997,211.73880838032346 158.5670329669956,211.521472566179 160.3076923075132,212.86895322188502 162.91868131863885,213.34709072115947 167.586813186761,215.56390457609086" stroke="#ffd700" stroke-linecap="round" stroke-linejoin="round" stroke-width="0.5"><title>2021-12-12 5.6km</title></polyline><polyline fill="none" points="44.11363636376336,259.04595021146815 47.74431818211451,251.62946661538444 47.590909091057256,249.4944038882968 43.295454545877874,246.62891483365092 37.05681818211451,245.44900420081103 35.471590909175575,245.84230796381598 32.71022727293894,242.80824469786603 30.767045454820618,242.02163357794052 29.94886363646947,242.86443117301678 26.676136363763362,255.73101639916422 26.778409091290087,258.4279128826456 25.397727272938937,258.98976502218284 26.420454545645043,259.04595021146815 26.93181818211451,257.86606029671384 27.392045454820618,251.9665811934392 30.613636363763362,242.41493924724637 33.93750000023283,242.86443117301678 44.21590909129009,248.1459398972802 48.0,248.3144980367506 29.079545454820618,239.54942150402348 25.80681818211451,252.35988133162027 21.971590909408405,250.33719257696066 16.857954545645043,249.04491617699387 15.477272727526724,249.4944038882968 13.482954545645043,248.3144980367506 12.5113636367023,248.65161419525975 12.306818181881681,250.89905114477733 15.221590909175575,252.02276694087777 15.988636363996193,249.3258460300276 12.971590909408405,248.3144980367506 12.357954545645043,250.50575019419193 14.761363636469468,251.79802392458078 16.090909091057256,249.83151948434534 13.431818182114512,248.08975384186488 12.409090909408405,249.04491617699387 12.460227272938937,250.8428653080482 14.914772727526724,251.74183815921424 16.24431818211451,249.4944038882968 12.767045454820618,248.48305613611592 12.357954545645043,250.7304936212604 14.914772727526724,251.79802392458078 16.19318181835115,249.4944038882968 13.789772727526724,248.42687010747613 12.920454545645043,249.04491617699387 12.460227272938937,250.00007722206647 14.710227273171768,251.68565238954034 15.784090909408405,251.34853767743334 16.295454545645043,249.77533356280765 13.38068181835115,248.3144980367506 12.409090909408405,248.76398621231783 12.0,250.39337845379487 15.017045455053449,251.79802392458078 16.19318181835115,249.88770540134283 15.37500000023283,249.26966006838484 16.857954545645043,248.98873019305756 25.039772727526724,252.02276694087777 26.778409091290087,247.4155208283919 28.977272727526724,248.53924216027372 30.5113636367023,242.07782011543168 32.71022727293894,242.3025662212749 47.846590909408405,249.71914763690438 46.77272727317177,253.9330796963768 43.44886363646947,260.4505784959765" stroke="#ffe600" stroke-linecap="round" stroke-linejoin="round" stroke-width="0.5"><title>2021-12-11 5.0km</title></polyline><polyline fill="none" points="69.636631190544,232.05542991033872 70.68284336675424,232.0 70.96353443828411,235.15949179939344 70.83594758750405,243.16896127499058 71.29526025021914,249.23830681751133 71.44836447108537,267.7505892633926 73.36216723232064,268.0 74.07665359647945,267.7228769491194 75.1994178830646,265.53359764436027 74.6380357396556,263.12260437433724 74.58700099948328,256.22208964364836 75.42907421442214,255.55697307692026 81.2980693486752,255.52925986101036 81.85945149196777,260.6561699240119 83.69670214271173,264.64679732520017 82.98221577843651,266.53124549565837 81.09393038740382,267.473466028081 79.74150976957753,267.7228769491194 74.40837940841448,267.27947964149644 74.0256188561907,267.63973999390146 72.08629872486927,267.8060138859146 71.4228471009992,267.5011783608643 71.57595132186543,251.70481641148217 70.98905180848669,245.9680780545459 71.04008654877543,234.24490480817622 70.78491284721531,232.74830309732351 70.81043021741789,234.9932034216472 70.88698232790921,232.13857476046542 69.76421804120764,232.0831448623794" stroke="#ffe800" stroke-linecap="round" stroke-linejoin="round" stroke-width="0.5"><title>2021-12-05 4.9km</title></polyline><polyline fill="none" points="121.72056245501153,232.08544702254585 124.13316279335413,232.11392935921322 124.5789693776751,268.0 124.94610421173275,266.3766547268897 124.78876071143895,248.29155611034366 124.42162587726489,246.95294025263865 124.23805846017785,232.0 124.1856106268242,246.6396465076541 124.5789693776751,247.8643387889897 124.15938671003096,232.91143392943195" stroke="#ffff00" stroke-linecap="round" stroke-linejoin="round" stroke-width="0.5"><title>2021-12-04 4.1km</title></polyline></svg>