<?xml version="1.0" encoding="utf-8" ?>
<svg baseProfile="full" height="300mm" version="1.1" viewBox="0,0,200,300" width="200mm" xmlns="http://www.w3.org/2000/svg" xmlns:ev="http://www.w3.org/2001/xml-events" xmlns:xlink="http://www.w3.org/1999/xlink"><defs /><rect fill="#222222" height="300" width="200" x="0" y="0" /><text fill="#FFFFFF" style="font-size:12px; font-family:Arial; font-weight:bold;" x="10" y="20">Over 1km Runs</text><text fill="#FFFFFF" style="font-size:4px; font-family:Arial" x="10" y="280">ATHLETE</text><text fill="#FFFFFF" style="font-size:9px; font-family:Arial" x="10" y="290">zhangzili</text><text fill="#FFFFFF" style="font-size:4px; font-family:Arial" x="120" y="280">STATISTICS</text><text fill="#FFFFFF" style="font-size:3px; font-family:Arial" x="120" y="285">Number: 16</text><text fill="#FFFFFF" style="font-size:3px; font-family:Arial" x="120" y="290">Weekly: 2.3</text><text fill="#FFFFFF" style="font-size:3px; font-family:Arial" x="141" y="285">Total: 98.9 km</text><text fill="#FFFFFF" style="font-size:3px; font-family:Arial" x="141" y="290">Avg: 6.2 km</text><text fill="#FFFFFF" style="font-size:3px; font-family:Arial" x="167" y="285">Min: 1.5 km</text><text fill="#FFFFFF" style="font-size:3px; font-family:Arial" x="167" y="290">Max: 20.7 km</text><polyline fill="none" points="40.62824826888391,71.8646441943165 40.0871756466513,72.70170824540037 39.9351889549871,72.75 39.38195739744697,72.67756235165143 39.53394408908207,72.34756737105636 39.23605017346563,72.14634991397543 38.67673914821353,72.09000888949231 37.886408351711,72.09805761092139 37.58243496844079,72.23488568894027 37.102157022833126,72.1383011998405 36.46989238561946,72.4843948067537 35.42422394713503,71.99342413715203 35.32087299681734,71.78415657162259 35.39382660880801,71.19659323339874 35.2600783201633,71.4058631122789 35.13848896682612,71.20464209014244 34.75548250391148,71.25293520491687 33.67333725944627,71.05976248247316 32.72494030362577,71.35757013643888 32.06835779576795,71.30927711671757 31.545523576496635,71.54269297220162 31.35706007888075,71.42196076113032 30.73695437697461,71.57488818216734 30.47553726733895,71.41391193731033 30.62144449132029,71.14830006741249 30.53025247633923,70.95512696467631 29.84935209780815,70.81829559214748 29.3325973462197,70.9309802774842 28.4693129377265,70.47219113626488 28.742888982669683,70.2951135663825 28.566584420390427,69.77192639057102 28.32340571374516,69.56265007822367 26.858254006307106,68.83822571072233 26.067923209804576,68.85432413725721 25.52685058757197,68.33112277825785 25.59980419956264,67.58253341562522 25.119526253984077,67.67107679328183 24.99185743299313,67.79181752507793 23.09506352135213,67.9930514685293 22.59654717275407,67.93670604119689 22.499275690119248,67.79181752507793 22.322971127810888,67.92865668954255 22.231779112829827,67.76766940066591 22.055474550521467,67.72742250226656 21.52656086362549,68.10574214406734 21.563037669635378,68.41966490877167 21.392812575009884,68.67724117700345 20.888216758758062,68.75773350480449 21.015885579690803,69.11189829896466 21.222587480355287,69.24873406461847 20.997647176729515,69.32117638620184 21.161792803701246,69.36142207770172 21.12531599769136,69.45801161304917 20.645038052112795,69.45801161304917 20.14652170354384,69.73973008849862 19.994535011879634,69.69143559875374 19.988455544254975,69.8524170605524 19.611528548964998,69.69948468340954 19.368349842348834,70.35950547821994 18.29228406556649,69.99729995928283 17.872800796612864,70.2951135663825 16.36509281556937,69.28093066415386 15.495728939364199,68.74163504899116 15.06408673513215,68.27477770931 14.924258978804573,68.26672840887841 14.425742630235618,67.48594047174993 13.945464684657054,67.2525067992392 13.757001187012065,67.34105072676175 13.459107271424728,67.08346798255661 13.42263046541484,66.80978494892406 13.574617157049943,66.43950566008789 13.459107271424728,66.2221666150981 13.507743012713036,66.01287632426829 13.78739852536819,65.90018121092362 14.085292440955527,65.40109997908439 14.346709550562082,65.2320552734127 14.492616774543421,64.76516710240321 14.875623237487162,64.32242453036451 15.051927799795521,63.654278756363055 14.991133123112377,63.46107841254707 15.179596620757366,63.19542679296137 15.319424377055839,62.60776849197646 15.216073426738149,62.213309274971834 15.465331601066282,61.55318730028375 15.477490536373807,60.0477565118199 15.872655934625072,59.701581903435 15.982086352625629,59.41175956657753 16.407649089203915,58.95287096688844 16.66298673118581,58.32491172394657 16.960880646744044,57.94652244298413 17.100708403100725,57.45541744302318 16.942642243782757,57.0206649666834 16.97911904976354,56.8274405019838 16.620430457493057,56.54565356468811 16.359013347886503,56.11089364409054 16.109755173587473,55.434593362999294 15.90913274063496,54.31545851217015 16.535317910194863,52.962803629747214 16.99735745275393,52.375032143390854 16.881847567128716,50.21713037621157 17.16758254740853,49.91920421615214 17.520191671996145,48.88047561701387 18.16461524454644,48.39733911548319 18.468588627845747,47.38273815896173 18.438191289489623,46.24732839658827 18.243648324219976,45.41790025128648 18.511144901509397,44.9830492524452 18.541542239807313,44.58845915410711 18.249727791873738,44.11333657446448 18.322681403864408,43.59794456384043 17.653939960640855,42.8812192359801 17.179741482716054,42.599358311381366 16.94872171143652,42.14837772073952 16.778496616811026,42.09200487765702 16.74201981080114,41.79403314170122 16.875768099474953,41.56853990598756 17.0703110647446,41.64101997901162 17.289171900687506,41.52021980234349 17.55666847800603,40.682664354269946 17.1554236120719,39.70013055080199 17.18582095039892,39.26523273600105 17.903198134939885,38.55650274036816 18.93062817043392,37.89608673154362 18.948866573395208,37.29204050801127 19.258919424377382,36.800744512918754 19.87902512625442,36.26111908382518 20.72407113178633,35.8503557532531 21.30162055999972,35.24628625985861 21.38065363964415,34.432795151013124 21.532640331308357,34.215325119796034 22.079792421194725,33.86898212027518 21.939964664867148,33.73205519509065 22.16490496849292,33.925363692742394 22.54791143143666,33.86898212027518 22.712057058379287,33.71594612185072 23.28960648662178,33.78843691293514 23.885394317883765,33.61929157981285 24.05561941250926,33.78843691293514 24.906744885694934,33.474309436875046 25.338387089926982,33.442091129134496 25.788267697178526,33.62734613169596 26.311101916449843,33.442091129134496 27.223022066260455,33.941472702463216 27.87960457414738,34.02201767768929 28.153180619119667,33.78843691293514 28.226134231110336,33.917309186061175 29.86151103314478,33.76427332688763 30.487696202704683,33.86898212027518 31.630636123823933,33.554855120706634 32.47568212932674,33.64345523179145 32.87084752757801,33.87703663431239 33.25385399052175,33.925363692742394 33.75844980677357,33.71594612185072 35.05337641952792,32.74939278439342 36.001773375377525,32.53191585882087 36.34222356462851,32.701064655699156 36.94409086354426,32.378876006907376 37.205507973150816,32.41109495974524 37.58851443606545,32.25 37.77697793371044,32.50775170100678 37.813454739691224,33.62734613169596 38.11134865533677,33.70789158338812 38.196461202634964,33.474309436875046 38.451798844587756,33.35349068203868 39.83183800466941,33.00714206129487 40.45802317420021,33.474309436875046 41.455055871396326,33.73205519509065 41.62528096602182,34.2475429583792 42.13595624995651,34.78718884918635 42.683108339842875,34.72275380726569 43.12690947941155,34.91605869849445 43.70445890765404,34.81135196975083 44.531266510195564,35.10936288607263 45.89914673494059,35.06103690514283 46.567888178135036,35.254340564984886 47.0481661237136,34.98049350586007 47.34606003933004,34.54555703880396 48.014801482553594,34.35225079884185 48.385649010160705,35.254340564984886 48.865926955710165,35.40737212997192 50.519542160764104,35.117417211964494 50.95726383270812,34.8516238129414 51.054535315342946,34.55361145018469 51.26731668363209,34.5375026261936 51.285555086651584,35.29461207220811 51.510495390277356,36.0356023545246 51.30379348961287,36.51885131610834 51.41930337526719,37.09069024002747 51.30379348961287,37.56587564734218 51.109250524343224,37.67863088254671 51.20652200697805,38.306834239112504 51.407144439959666,38.532341323807486 51.230839877651306,39.17664200379659 51.57736953458516,40.73098521990323 51.413223907584324,42.0597917976047 51.44362124596955,43.21139727386981 51.04845584766008,43.7912171538992 51.17612466865103,44.10528361276738 51.04845584766008,44.77367527959359 51.29771402195911,44.66093510619612 51.49225698725786,46.207065193466406 51.1639657333435,45.74000980709752 51.024137977015926,46.762694700879365 51.127488927333616,47.39079062378369 51.309872957266634,47.62431157300671 51.054535315342946,47.9141982197325 51.255157748266356,48.4295483522983 51.273396151314955,48.81605767070505 50.805277141043916,49.92725629649067 50.50130375777371,50.120505858707475 50.59857524043764,50.22518241138823 50.43442961346591,51.02232785409069 49.911595394223696,51.449077569188375 50.08182048884919,51.577906998205435 49.984549006214365,51.76309875506922 50.13653569784947,52.189842519666854 49.984549006214365,53.03526815723308 50.59249577275477,53.67939294637472 50.519542160764104,54.7019250102785 50.78095927039976,55.064234799148835 50.48306535478332,55.15279903841292 50.22772771283053,55.603669240321324 50.008866876829416,56.288018485629436 50.15477410083986,56.086740210841526 50.25204558347468,56.17530274570527 49.95415166785824,57.70499596105947 49.37052277199109,58.42152132131014 49.03615205036476,59.5566709326049 49.08478779171128,59.74988547256362 48.84768855274888,60.039705965162284 48.67746345809428,60.69984674177249 48.90848322940292,61.60953949630493 49.22461554800975,61.641740724346164 49.364443304308224,62.052304671415186 49.674496155261295,62.47896580430461 49.90551592654083,63.283977480390604 50.15477410083986,63.46107841254707 50.13653569784947,63.91992808215582 50.3857938721485,65.15155760554262 50.15477410083986,65.57819385590119 50.0453436828393,66.57634830649476 49.34012543363497,66.1497200692138 48.33093380116043,65.77943618139761 48.37956954247784,65.706989032009" stroke="#ff0600" stroke-linecap="round" stroke-linejoin="round" stroke-width="0.5"><title>2023-10-14 20.3km</title><desc>1697251365000</desc></polyline><polyline fill="none" points="60.440859185066074,32.25 61.450702615547925,43.67333617131226 64.98515462409705,48.11044487863546 66.57205144362524,48.676882075786125 71.11634688312188,46.883162566286046 76.5262224059552,51.03703167347703 77.82459253119305,72.75 94.55914081446826,72.65559738251613 91.24108382733539,38.57534354540985 78.83443596214056,40.27467892866116 70.03437177836895,39.14178917411482 61.73922931030393,39.897049232793506 61.09004424791783,32.910859710129444" stroke="#4dd2ff" stroke-linecap="round" stroke-linejoin="round" stroke-width="0.5"><title>2023-10-10 1.7km</title><desc>1696937836000</desc></polyline><polyline fill="none" points="142.23407643308747,59.695115897971846 141.57146871488658,59.40435216093101 141.05554514797404,59.034286507685465 140.78746721617063,59.00785313036613 140.7014799550234,58.91533618757603 140.58008617456653,58.9615946827289 140.5193892843672,58.86246927778484 140.54973772948142,58.92855290533407 140.36258898462984,59.001244783623406 140.22602098161587,58.92855290533407 139.6139940052235,59.1268032060907 138.6984825777472,58.91533618757603 138.51133383289562,58.9615946827289 138.35959160732455,59.15984483804641 137.73239040837507,59.2061030820405 137.48960284751956,59.08715321577256 137.48960284751956,59.18627812613704 137.3530348444765,59.19949476438342 137.02931809664005,58.06284969862827 136.6752529036894,57.79850952490233 136.4375234170002,57.34251907813814 135.88619333083625,56.97243648044241 135.5422442862473,56.89313267092439 135.28428250277648,56.84026338699914 135.19829524162924,56.939393243457744 134.57109404267976,56.95261054114235 134.08046084674424,56.675046474636474 133.69098913448397,56.97243648044241 133.48360809290898,56.95921918855311 133.43808542523766,57.058348783131805 132.98791682277806,57.150869541183056 132.92216185835423,57.36895343301876 132.47705133009003,57.302867516715196 132.13310228547198,57.46147355289213 131.5059010865516,57.17069539317163 131.24288122891448,57.33591048698145 130.91916448107804,57.131043680463335 130.65108654924552,56.78739404100634 130.352660172357,56.70808990560545 130.02388535029604,56.47678537961838 129.77603971521603,56.529655090300366 129.7102847508504,56.423915606843366 129.39162607718026,56.430524331826746 128.68349569127895,56.15295704708842 128.49128887223196,55.928258468175045 128.354720869218,56.027390332390496 128.354720869218,56.19921838002847 128.1119333083334,56.33800209369656 127.25206069689011,56.470176661408914 127.236886474333,56.39087196734545 127.17618958410458,56.46356794222447 127.09526039712364,56.3578283036004 126.80189209440141,56.503220242713724 126.53887223676429,56.25869716684974 126.19492319217534,56.54287250828202 125.82062570250127,56.69487253612169 124.5156425627356,55.967911240048124 124.35378418883192,55.83573519800848 124.13628699886613,55.17484916784815 123.86820906706271,54.97658146725371 123.48885350319324,53.925748078479955 123.24100786811323,53.86626620988318 123.1600786811614,53.707647509439994 122.85153615585295,53.54902825018871 122.74531659798231,53.2714432018729 122.54805170473992,53.119431616891234 122.4974709629023,52.92115486516923 122.58345822404954,52.6369566650028 122.48735481451149,52.253616716025135 122.56322592729703,51.95619554158111 122.45194829523098,51.90992984895274 122.52276133382111,51.81739832110179 122.43677407267387,51.711647770687705 122.48229674034519,51.76452307694126 122.44689022103557,51.665381826776866 122.59357437241124,51.407613554601994 122.54805170473992,50.872243965950474 122.0574185087753,50.40957376105871 122.01695391532849,49.88080199032993 121.80451479949988,49.464389849668805 121.53643686772557,49.31236540995815 121.28353315847926,48.84306933595508 120.56528662415803,48.43986739333195 120.04936305730371,47.79870276872316 119.1287935556029,47.5343023260466 119.03269014612306,47.3426110340115 118.78484451104305,47.197189509359305 118.55217309852014,46.62871904174972 118.34479205694515,46.62871904174972 118.18799175720778,46.496515578550316 118.04130760583212,46.582447873806814 117.51526789058698,46.2585483663388 117.46468714872026,46.11973357824536 117.115680029965,45.86193355040086 116.98417010114645,45.022420663150115 116.6402210565575,44.69850993016007 116.50365305357263,44.32171287942765 116.6503372049192,44.242386782625545 116.51376920193434,44.28204984849435 116.34179467963986,44.189502640409046 116.24063319593552,43.521835001007275 115.72976770324749,42.61617098843635 115.47686399400118,41.769986684561445 114.91035968528013,41.41960883881984 114.59170101160998,41.38655418427879 114.21234544771141,41.00972940659267 113.34235668784822,41.11550510129018 112.97817534656497,41.320444802342536 112.5887036343047,41.80304105750474 111.9362120644364,41.82948453838617 111.41523042335757,41.941869158807094 111.08139752713032,42.120361802717525 110.77285500188009,42.00136678542185 110.88413263391703,42.18647000972851 110.75262270509847,42.29885373876823 110.60088047958561,42.2724105336456 110.565473960276,41.862538867644616 110.48454477332416,41.822873669618275 109.80676283250796,41.83609540619727 109.08345822404954,41.551827214254445 108.90136755339336,41.61793625633072 108.85584488572204,41.97492340553799 108.53718621205189,42.2063024528652 108.0971337579249,42.933486001038546 107.641907081299,43.257409435649606 107.55591982015176,43.73998492299506 107.27266766579123,44.05729201306167 105.91710378418793,44.91665414947056 105.52763207192766,44.99597905802875 105.1786249531724,45.300056579115335 104.69810790556949,45.45209456934754 104.35921693517594,45.99413887732226 104.33392656422802,46.33787091017439 104.41991382540436,46.37092192885393 104.34910078678513,46.50312576092256 104.02538403894869,46.727871384380705 103.47405395278474,47.42193166764628 103.06940801796736,47.527692295087036 102.96824653426302,47.65328271743056 102.97330460845842,47.838362701197184 103.41335706255632,48.519186093599274 103.35771824652329,48.724092089145415 103.11998875983409,48.94882662471355 102.57371674783644,49.041364048574906 102.52313600596972,49.41812159627807 102.2651742225571,49.57675540991477 102.25,49.68912068973441 102.61923941547866,49.9138504079674 102.72040089921211,50.13196935579617 103.12504683400039,50.02621484640258 103.35771824652329,50.112140404216916 103.33242787560448,50.627690307177545 103.22620831770473,50.90529165578482 103.33242787560448,51.38778516484672 104.01526789058698,51.67860067273432 104.24793930310989,51.665381826776866 104.85490820530686,52.18091394370276 105.01170850504423,52.19413263831302 104.9510116148449,52.34614734736533 105.15333458225359,52.47833363368409 105.28990258520935,52.42545916573363 105.20391532409121,52.716267971100024 105.33542525288067,52.66339378255725 105.44164481078042,53.00046567064783 106.03849756461568,53.6415562193215 106.05367178717279,53.80017515260988 106.21047208691016,53.76052047167468 106.50384038963239,54.104193212817336 106.37233046084293,54.1901109882383 106.42291120270966,54.5205624427108 106.60500187336584,54.36855507488508 106.94389284373028,54.593261437254114 107.23220307231531,54.355337018627324 107.59132633943227,54.36194604722186 107.76330086172675,54.4809083962391 107.93021730985492,54.40160019848554 108.16288872237783,54.56682545280273 108.49672161857598,54.45447234584208 108.63834769575624,54.70561419789374 108.89630947919795,54.79153082571793 108.90136755339336,54.90388309163973 109.27060696890112,54.62630639593772 109.42740726860939,55.10215111233265 109.86745972273638,55.14841352487565 110.01414387408295,55.247547105973354 110.16588609965402,55.247547105973354 110.19117647057283,55.16163134830276 110.19117647057283,55.59120849738247 110.09001498686848,55.703558767974755 110.1456538029015,55.782864672564756 110.51995129260467,55.9414760626787 110.71215811165166,55.928258468175045 110.81837766955141,56.29834964773909 110.98023604342598,56.245479665438324 111.33935931060114,56.456959222094156 111.45569501683349,56.661829095461144 111.50627575870021,57.302867516715196 112.00702510302654,57.50773354152261 111.94127013863181,57.95711381532601 112.3610902960063,58.12232602385484 112.57858748594299,58.47918232567099 112.91242038217024,58.55848334205439 113.31706631695852,58.214844595881004 113.87851255151327,58.386664296751405 114.32868115397287,58.65100101798453 114.54112026974326,58.55848334205439 114.83954664669,58.617959012692154 115.2897152491496,58.809602305937005 115.73988385160919,59.26557789734943 116.16982015734538,59.338269231611775 116.38731734731118,59.47043499330539 116.53905957285315,59.708332386857364 117.07015736229368,59.86692995105841 117.42928062943975,60.329502989752655 117.96037841885118,60.137866164466686 118.65333458222449,60.46166584239836 118.9112963656662,60.329502989752655 119.19454852005583,60.322894836928754 119.48791682277806,59.87353817077383 119.69023979015765,59.80084770052417 119.96843387035187,60.10482525010593 120.29720869238372,59.98587775766646 120.77266766576213,60.659909394136776 121.17225552641321,60.336111141587025 121.48079805169255,60.56739584526076 121.42010116146412,60.71938228948056 121.48079805169255,60.75903084275342 121.8298051704769,60.67973370130858 122.42665792431217,61.06300192483832 123.03868490070454,60.963881145235064 123.41804046460311,61.24141877834336 124.15651929558953,61.41322693219263 124.66232671411126,61.783273037446634 124.65221056574956,61.869176162763324 124.79889471712522,61.855960307988425 124.93546272011008,61.98151077171133 125.11755339076626,61.80970478577001 125.52219932555454,61.82292065410729 125.61830273509258,61.69076179619151 125.75487073807744,61.743625385905034 125.68405769951642,61.869176162763324 126.03306481827167,61.77666509795745 126.20503934056615,61.82292065410729 126.25562008240377,61.68415384312175 126.14940052450402,61.47930681685466 126.28596852754708,61.36036295467056 126.31125889843679,61.47930681685466 126.67038216558285,61.44626688664721 126.76142750092549,61.571818492484454 126.95869239413878,61.571818492484454 126.83224053951562,61.69736974830448 126.90811165230116,61.869176162763324 127.09526039712364,61.855960307988425 127.20653802921879,62.021158213836316 127.26723491944722,61.94847120993654 127.64659048331669,62.08062931161476 127.63141626073048,62.15331610223075 127.85397152489168,62.0145503092499 127.8944361183676,62.08062931161476 128.42047583364183,61.83613651858832 128.69866991380695,61.80309685015163 128.7846571749542,61.66432997808079 129.37139378042775,61.55199457798153 129.6748782315408,61.737017440573254 130.04917572124396,61.783273037446634 130.68143499435973,62.33172863639993 131.35921693517594,62.54317961355264 131.76892094415962,62.90660866102917 132.09769576619146,62.87356977790478 132.31519295612816,63.21717297780924 132.6540839265508,63.42861979790541 133.14471712248633,63.46826596615938 133.25599475458148,63.34932735670009 133.63029224425554,63.57398891088451 133.92366054700688,63.5211274695539 134.4497002622811,63.61363495117985 134.70766204572283,63.48148134782605 136.2503746721486,63.50130441306828 136.6803109778848,63.46826596615938 136.79664668414625,63.3757581859536 137.23164106404874,63.48808903720783 137.6059385537519,63.41540440074823 138.2736043461773,63.554165877660125 138.60743724240456,63.79204170062076 138.9260959160456,63.79864934444777 139.20428999623982,63.65988862074664 139.8517234919418,63.93080201716293 140.2664855750918,63.99027059340733 140.79252529033693,63.745788166779676 141.3944361183967,63.87133336241459 141.8395466466609,63.66649628396044 142.19361183964065,63.745788166779676 142.25936680403538,63.47487365748748 142.70447733232868,63.46165827388904 142.75,63.15109564295926" stroke="#4dd2ff" stroke-linecap="round" stroke-linejoin="round" stroke-width="0.5"><title>2023-10-05 18.8km</title><desc>1696467788000</desc></polyline><polyline fill="none" points="147.25,51.938778465089854 153.2535294117406,58.798473248723894 159.3523529409431,56.55348834925098 165.92764705838636,59.422079108248 169.64411764685065,53.93433177337283 179.45941176451743,57.800702917331364 186.89235294098035,57.052374397346284 186.70176470605657,45.95209030795377 148.393529411871,47.57348919875221 147.63117647031322,51.81405622710008 153.63470588205382,58.798473248723894 160.30529411742464,57.052374397346284 165.83235294092447,59.297357973176986 169.93000000016764,53.68488786718808 179.0782352942042,57.675981543492526 187.75,56.05460200732341 186.70176470605657,45.577920891752 159.63823529426008,47.698212061834056" stroke="#4dd2ff" stroke-linecap="round" stroke-linejoin="round" stroke-width="0.5"><title>2023-10-03 1.9km</title><desc>1696334828000</desc></polyline><polyline fill="none" points="12.727594339288771,107.62367501790868 12.536556603386998,119.87537283386337 18.554245283361524,126.62623275181977 23.521226414479315,124.37595208146377 31.64033018797636,127.37632498203311 35.556603773497045,121.87563322519418 45.77712264098227,125.62610874633538 52.65448113204911,125.00103064446012 52.27240566071123,114.37463243753882 49.78891509445384,113.2494765985175 14.542452830355614,115.12473550107097 12.345518868416548,116.62493963848101 12.25,119.5003234851174 17.885613207239658,126.25118638807908 23.42570754699409,123.87588890001643 31.353773584589362,127.12629431224195 35.46108490601182,121.87563322519418 45.968160377349705,125.62610874633538 52.75,124.750999274489 51.60377358458936,113.2494765985175 27.341981132049114,115.37476970814168 13.491745282895863,114.74968405195978" stroke="#4dd2ff" stroke-linecap="round" stroke-linejoin="round" stroke-width="0.5"><title>2023-10-02 2.0km</title><desc>1696244277000</desc></polyline><polyline fill="none" points="57.25,106.14130650949664 58.743087557610124,108.7062039669836 58.55645161261782,121.53057218110189 62.475806451402605,126.78239903156646 65.18202765006572,128.61442382383393 69.00806451588869,126.17172320047393 76.56682027643546,128.85869349044515 80.95276497676969,123.60687979747308 86.92511520721018,124.46182848047465 90.56451612897217,127.39307441218989 97.75,125.92745274247136 96.91013824846596,115.42375492467545 59.02304147463292,117.74435078306124 58.92972350213677,121.65270806715125 64.52880184305832,128.4922889637528 70.22119815694168,125.92745274247136 77.03341013845056,128.4922889637528 81.13940092176199,123.85115093976492 86.7384792631492,124.58396393468138 90.47119815601036,127.27093937218888 97.4700460829772,126.41599358717212 97.00345622096211,115.9123019609251 58.836405529640615,117.25580482621444 58.08986175060272,107.36268724128604" stroke="#4dd2ff" stroke-linecap="round" stroke-linejoin="round" stroke-width="0.5"><title>2023-10-01 2.1km</title><desc>1696158328000</desc></polyline><polyline fill="none" points="102.25,108.30710699170595 107.58975659264252,106.26420692139072 107.67190669337288,119.3816762350616 113.25811359006912,126.04784074850613 116.6262677484192,124.00499035447137 124.34837728179991,126.26287729945034 127.96298174420372,121.4245395748876 133.2205882347189,122.82228488015244 135.4386409735307,128.73579307866748 136.09584178496152,125.08017548534553 142.75,123.78995313774794 141.43559837713838,114.43577288114466 108.24695740360767,115.94105136417784 107.91835699789226,119.91927240561927 113.01166328554973,125.83280413423199 117.20131845865399,123.68243450595764 124.10192697774619,125.72528580349172 127.55223123682663,121.53205853962572 136.50659229187295,124.97265704360325 142.09279918810353,124.22002750745742 141.8463488840498,114.758332817466 108.32910750526935,115.7260117715341 107.42545638931915,107.87702324194834" stroke="#4dd2ff" stroke-linecap="round" stroke-linejoin="round" stroke-width="0.5"><title>2023-09-29 2.2km</title><desc>1695985278000</desc></polyline><polyline fill="none" points="153.93930917140096,97.25 154.34714949713089,98.25086738113896 156.79419145104475,97.38344911203603 157.04909165459685,105.05670689488761 160.0569140566513,109.12681693345075 158.57849287590943,112.79655691221706 158.52751283510588,119.53545650272281 158.57849287590943,112.06261129601626 159.75103381206281,109.79404459646321 162.8098362549208,107.79235865740338 166.9901995928958,109.8607673086517 168.2647006106563,114.13100043905433 168.36666069203056,126.07409488479607 167.14313971507363,129.20993897420703 177.0332676123362,137.75 181.06069082859904,136.34890728324535 178.10384846734814,102.18759094644338 163.88041710969992,102.85482883598888 162.8608162952587,102.58793379817507 162.8098362549208,100.38604373240378" stroke="#4dd2ff" stroke-linecap="round" stroke-linejoin="round" stroke-width="0.5"><title>2023-09-27 2.3km</title><desc>1695814613000</desc></polyline><polyline fill="none" points="49.66089795445441,193.11716343149965 49.40815324164578,193.00099121731546 49.10860395236523,193.03767721466647 48.6452386455494,192.84201818893052 48.34568935626885,192.97653386779712 48.08358372817747,192.9643051876701 47.79339535420877,192.7258452077731 47.12877036863938,192.60355750934468 44.45154859582544,192.67081578787838 44.20816479832865,192.8053320193394 43.84308910203981,192.7258452077731 43.55290072807111,192.7747601866613 43.103576794150285,192.53629912226097 43.03336992947152,192.66470140340243 42.62148965673987,192.621900686976 42.0504738240852,192.11440312741252 41.75092453483376,192.14497544447295 41.36244655030896,191.8025642122302 40.697821564768674,191.59467030579253 40.15020802032086,191.09938946798502 40.0144747486338,191.12996252964513 39.934906968672294,191.0321286533217 39.52302669594064,190.8976066983596 39.083063677331666,190.95263845968293 38.89584537153132,191.11773330766664 38.43248006471549,191.27671291351726 38.451201895280974,191.20333778618442 37.950392927305074,191.44180647768007 37.9457124696346,191.36231706545732 37.81465965558891,191.38066078943302 37.59467814626987,191.2400253659871 37.52915173929068,191.28894208884958 37.40745984049863,191.1483063559026 37.34193343349034,191.21556698303175 37.187478331208695,191.013784775947 37.281087484094314,190.89149205372087 37.089188720681705,190.88537740817992 37.03770368656842,190.79365761755616 36.71475210908102,190.82423090352677 36.69134982084506,190.72028163970026 36.63518432911951,190.86703346620925 36.57433837975259,190.82423090352677 36.667947532609105,191.0076701483522 36.61646249855403,191.14219174805476 36.115653530549025,191.1849939841668 36.19054085286916,191.05047252262375 36.0875707846717,191.0198994026432 36.00800300471019,191.1483063559026 35.614844562573126,191.11773330766664 35.45570900265011,191.26448373460516 35.12339650985086,191.12384791911245 35.081272391049424,191.0321286533217 35.23572749333107,190.6897082774849 35.22636657804833,190.43900586109885 35.52591586732888,189.91313735633958 35.67101005432778,189.00813881127033 35.979920258861966,188.39664218125108 36.17649947994505,187.10023964766515 36.120333988190396,186.47036914109776 35.764619207184296,186.127911277792 34.91745637348504,185.62645004262595 34.69279440655373,185.00878827520137 34.44941060902784,184.82532262010136 34.41196694786777,184.58070048997251 34.271553218510235,184.45227329672707 34.079654455097625,183.82236275927426 33.85031203049584,183.78566864802997 33.62565006353543,183.61442903485295 33.24185253668111,183.11905333378672 33.162284756748704,182.250602705426 33.24185253668111,182.0120814063448 33.13420201087138,181.99373355753414 33.15760429907823,181.8163706025298 33.23717207903974,181.79802266754632 33.148243383766385,181.79190668740557 33.25121345196385,181.79802266754632 33.003149196796585,181.74909480138376 33.06867560383398,181.81025462509206 33.24653299432248,181.56561479154698 33.218450248474255,181.0579825537643 33.12016063791816,180.86838338440066 32.76444585691206,180.5870410912903 32.74104356870521,180.13444298072864 32.53978388995165,179.70018881994474 32.282358719501644,179.5472813477063 32.00153126081568,179.1069046918201 31.23393620707793,178.6175918363042 30.90630417194916,178.1649723277078 30.063821795891272,177.92031108618903 29.73150930312113,177.57166633415545 29.558332370274,177.1006854565676 29.19793713162653,176.9600018238707 29.07156477519311,177.03951871811296 28.56607534957584,176.72756695491262 28.21972148385248,176.36667866707285 28.06058592395857,175.58372383467577 27.74231480411254,175.2472934094876 27.639344735915074,174.91697725735867 27.475528718350688,174.7640522257352 27.311712700786302,174.0177700156928 26.89515197041328,173.36323280819124 26.651768172887387,172.57410418061772 26.413064833002863,172.5129307943389 26.155639662552858,172.24988420941008 25.86545128855505,172.2254146751984 25.486334219342098,171.87672225039933 24.709378250292502,171.96236627431426 24.36770484223962,172.15812338194155 23.988587772997562,172.60469084006036 23.043135328771314,172.68421604950709 22.612533225445077,172.9044389139308 22.364468970277812,172.83103142185064 22.406593089108355,172.96561172517977 22.270859817392193,173.08183981900947 22.14448746095877,173.02678444656704 22.12108517275192,172.67809873109945 22.04151739279041,172.6230428249437 21.419016526051564,172.65974677046324 20.745030625199433,172.38446639067115 20.585895065276418,172.43952261217783 20.50164682767354,172.81267952859343 20.04764243614045,173.2041848305089 19.81830001156777,173.64462389623077 19.406419738807017,173.95048161826344 19.2800473824027,174.48878575388517 18.278429446421796,175.228942580874 17.824425054888707,175.48585344578896 17.445307985675754,175.57760694210083 17.122356408188352,175.85286621831256 16.705795677786227,175.96908625545984 16.364122269733343,176.48289727058 16.420287761458894,176.8621346687105 15.985005200491287,177.25971855618263 15.825869640568271,177.5533165295201 15.619929504202446,177.58389953273218 15.36718479139381,177.7673970805008 15.011470010387711,177.79797992655222 14.716601178777637,177.9998261473047 14.360886397771537,177.98759307085857 14.28131861781003,177.8897283299484 13.916242921521189,177.85914555128693 13.831994683889206,177.7735136515148 13.443516699422617,177.7612805086028 13.186091528943507,177.9998261473047 12.858459493785631,177.96312690717969 12.774211256211856,178.03040882269488 12.25,178.77050272106862 12.502744712808635,179.03350812990175 12.975470934936311,179.22923200764853 13.284381139470497,179.49223452032675 13.429475326469401,179.9509558594109 14.02857390497229,180.50753096843255 14.201750837848522,180.49529862835334 14.253235871932702,180.67266720771295 14.337484109564684,180.6176218673536 14.716601178777637,180.87449950011433 14.941263145708945,181.04575037532413 14.974026349227643,181.19865234762256 15.334421587875113,181.4555263977527 16.059892522811424,181.76132677331407 16.331359066214645,181.77355874165005 16.373483185016084,181.89587822746034 16.63090835546609,182.03654519216434 16.560701490816427,182.11605239690107 16.682393389579374,182.07935678279318 16.963220848265337,182.21390720982527 16.911735814152053,182.37292079063627 17.127036865829723,182.4830067602561 17.234687391639454,182.446311469379 17.159800069319317,182.70317782690472 17.272131052828627,182.62978760063197 17.272131052828627,182.78268375946573 17.590402172645554,183.241368869305 17.98356061478262,183.7245117241073 18.095891598291928,183.68781752666837 18.367358141666045,183.9874858600051 18.2456662429031,184.0486423979237 18.287790361704538,184.38500175179433 18.451606379268924,184.2443427159742 18.774557956756325,184.45838888632716 19.074107246036874,184.22599585018907 19.387697908241535,184.2443427159742 19.523431179928593,184.3421925302937 19.705969028058462,184.29326765185033 19.921270079736132,184.42781092931546 20.211458453704836,184.32384570762224 20.35187218306237,184.56235377232224 20.520368658239022,184.56235377232224 20.59993643820053,184.73970503792225 20.95097076156526,184.4767356497723 21.091384490893688,184.92317107001873 21.503264763683546,184.95986417949462 21.648358950624242,185.0577123134608 21.774731307057664,184.9904417460384 21.798133595264517,185.3940635213694 21.695163527096156,185.51637237831164 22.317664393835003,185.74875821744354 22.369149427948287,186.03006565703618 22.523604530200828,185.98114276049455 22.860597480641445,186.18906467410125 22.96824800648028,186.3847549391321 22.949526175885694,186.81282418981937 23.02441349820583,186.97793543983062 23.46905697445618,187.1430460355914 23.41289148273063,187.55887722990155 23.75924534839578,187.67506461598896 24.002629145950777,188.04808508695714 24.33962209636229,188.10923566525162 24.70001733500976,187.7973667776787 25.154021726571955,187.92578366112866 25.631428406311898,188.19484632411695 25.85609037327231,188.11535071813705 26.099474170798203,188.16427110900622 26.693892291688826,188.482252249647 26.92791517393198,188.76354123606143 27.34915636194637,188.83692065937066 27.672107939433772,189.16712646524684 28.15887553448556,189.30776888429318 28.52863168841577,189.778611789181 28.987316537619336,189.57070778579146 29.63790015023551,189.85810422225768 29.857881659525447,189.75415254851032 30.129348202928668,189.76026736004133 30.400814746302785,189.3505730045872 30.5927135097445,189.27107960335707 30.836097307270393,189.5217890460226 31.107563850702718,189.4361811132403 31.28074078352074,189.54013358016527 31.594331445725402,190.05989202519413 31.954726684372872,189.75415254851032 32.244915058341576,189.98039997704473 32.25427597365342,190.133269165839 32.56786663582898,190.072121557605 33.007829654437955,190.39620285878118 33.6958569282142,190.3411703626407 34.21538772681379,190.6591348928123 34.71619669476058,190.75085497950568 35.18892291691736,191.07493100247302 35.18424245924689,191.16053556889165 35.42294579913141,191.24613995949767 35.52591586732888,191.24613995949767 35.53059632497025,191.1360771392865 35.63356639313861,191.10550408210838 35.97523980119149,191.1360771392865 36.08289032705943,191.0076701483522 36.18586039522779,191.05047252262375 36.13905581878498,191.17276477832274 36.45264648098964,191.08104562019798 36.5883797526767,191.12996252964513 36.67262799027958,191.00155551987336 36.56497746446985,190.83034555802078 36.63518432911951,190.8609188170958 36.71943256672239,190.70193762505733 36.71475210908102,190.80588693462414 37.03770368656842,190.77531363520757 37.10323009357671,190.8731481144241 37.30448977233027,190.87926276175858 37.196839246491436,191.0076701483522 37.26236565349973,191.16053556889165 37.950392927305074,191.36843164101447 37.93635155438096,191.4479210415593 38.02528024959611,191.33785875426838 38.053362995473435,191.3928899342427 38.12825031779357,191.30117126058758 38.89116491388995,191.10550408210838 39.040939558530226,190.95875309535404 39.532387611223385,190.8731481144241 39.82725644283346,191.0321286533217 40.17361030855682,191.09327485293034 40.744626141211484,191.58855576344286 41.568386686674785,191.88205278473833 41.76964636539924,192.11440312741252 42.01771062059561,192.07771631732612 42.635531029693084,192.60355750934468 43.06145267537795,192.64635824460856 43.12697908238624,192.54241352556346 43.57162255863659,192.7686458174503 43.85245001732255,192.7013876967867 44.25496937477146,192.8053320193394 44.488992257014615,192.66470140340243 46.27224661965738,192.66470140340243 46.3986189760617,192.5913287197509 46.82922107935883,192.67081578787838 47.16621402979945,192.59744311500617 47.79807581185014,192.74418833157688 48.12102738933754,192.9520765039233 48.70608459491632,192.8236751081604 49.20689356292132,193.08047750410333 49.52048422509688,193.1232777496043 50.09150005778065,192.90927608263155 50.65783543276484,193.01321988669224 51.05099387496011,192.82978946930598 51.36926499477704,192.9276191257195 51.45351323240902,192.6891589359111 51.874754420423415,192.64635824460856 51.91219808155438,192.39566759852823 52.642349474161165,192.23669226113634 52.74531954235863,192.02268604162236 52.75,191.75976261038886 52.63298855884932,191.58855576344286" stroke="#ff0000" stroke-linecap="round" stroke-linejoin="round" stroke-width="0.5"><title>2023-09-23 20.7km</title><desc>1695430086000</desc></polyline><polyline fill="none" points="57.25,169.63951811470906 57.799418604467064,164.85398997343145 68.55232558120042,165.7282731233281 68.8662790695671,168.16705358150648 63.88226744183339,182.79944631102262 63.88226744183339,183.48964123713085 64.82412790693343,183.99578348000068 97.75,184.0417963815853 91.90261627896689,193.29028982354794 89.97965116263367,194.44058606689214 86.05523255793378,198.8576950931747 83.15116279060021,199.17977418773808 80.83575581386685,198.67364978801925 78.71656976733357,200.14601002656855 63.37209302303381,200.05398765896098 61.72383720916696,199.4098305364023 61.84156976733357,196.32706525543472" stroke="#4dd2ff" stroke-linecap="round" stroke-linejoin="round" stroke-width="0.5"><title>2023-07-28 3.3km</title><desc>1690494902000</desc></polyline><polyline fill="none" points="102.28397651016712,167.24250114528695 112.00125838932581,168.23846086038975 114.37961409403943,167.84007729357108 127.9362416107906,169.43360900657717 142.75,174.05481245956616 142.4442114093108,175.7279926899355 132.48909395979717,190.90578466444276 129.0234899329953,193.53494569283794 126.3733221476432,196.92095910166972 121.92239932890516,196.64211210032227 121.20889261760749,197.71766367091914 111.2537751677446,197.31931159907253 107.95805369142909,197.75749885474215 105.57969798671547,197.19980589448824 106.59899328870233,189.39201687538298 109.21518456377089,178.03856256903964 108.73951342282817,177.1621411969536 109.89471476525068,173.33773291955004 102.45385906042065,172.93935480137588 102.25,171.86373175610788" stroke="#4dd2ff" stroke-linecap="round" stroke-linejoin="round" stroke-width="0.5"><title>2023-07-25 3.7km</title><desc>1690275373000</desc></polyline><polyline fill="none" points="150.14749065670185,183.4007190514676 150.4718366258312,182.69082328901277 150.45021356118377,180.58647694221872 147.46623064600863,180.38364739262033 147.25,179.2680817701621 150.42859049653634,164.7398959624261 161.888814735692,164.63847443531267 163.09970635350328,165.17093696887605 164.05112119601108,164.7398959624261 173.73825413780287,164.81596207927214 176.63574479450472,168.34033208302571 178.04124399356078,169.45594908800558 179.27375867590308,171.6111034462374 183.12266417522915,176.25095756113296 183.3605178857688,177.06228885089513 184.39842498663347,177.72149348101811 186.73371596366633,181.72738992847735 187.49052322481293,186.06280924550083 187.75,199.8798452430783 187.4472770956345,200.36152556467277 171.31647090229671,200.1840645072807 168.24599572876468,200.00660331720428 168.02976508275606,199.72773546472308 166.71075814205687,199.80379036610248 163.8997597437119,199.2207021661452 163.18619861186016,199.2207021661452 162.7537373198429,200.08265812916216 153.10985050734598,199.7530871011695 152.8719967965735,197.37002143346763 154.3639882542193,191.81789263944665 155.09917245060205,187.33046074572485 154.81807261088397,186.8487539734051 155.55325680726673,184.59232502107625 150.79618259472772,184.21202589372115 150.45021356118377,183.55283929570578" stroke="#4dd2ff" stroke-linecap="round" stroke-linejoin="round" stroke-width="0.5"><title>2023-07-22 6.4km</title><desc>1690017215000</desc></polyline><polyline fill="none" points="12.25,242.0681813681149 16.46143847494386,241.40977358818054 52.75,245.03100941347657 52.679809358436614,253.59022641181946" stroke="#4dd2ff" stroke-linecap="round" stroke-linejoin="round" stroke-width="0.5"><title>2023-07-19 1.5km</title><desc>1689754868000</desc></polyline><polyline fill="none" points="57.25,241.4947220539325 57.72487437177915,237.59711397378123 58.33542713569477,237.27894008366275 67.15452261315659,237.9948309538304 67.56155778898392,238.67094884469407 70.10552763822488,237.8755159044522 81.0276381908916,238.47209076903528 84.04648241214454,239.82432358860387 88.86306532670278,241.1765514955914 89.03266331669874,240.8186092923861 91.20351758797187,241.97197738141404 94.1884422111325,242.40946089412319 94.79899497504812,243.04579963098513 97.68216080404818,243.20488414523425 97.30904522608034,243.80145046798862 97.75,244.0003056965361 97.37688442214858,244.1196187825699 97.7160804021405,246.46610170358326 94.39195979910437,250.8806311750959 94.32412060303614,252.7100604774314 94.05276381911244,252.31235921994084 89.94849246239755,255.77234592768946 85.94597989949398,254.18155143535114 83.19849246239755,254.97694953129394 82.31658291467465,254.73833028093213 81.36683417099994,255.61326678431942 78.9924623115221,254.38040111862938 78.14447236189153,255.3746479418769 76.58417085430119,254.45994096223149 75.56658291455824,255.61326678431942 74.37939698493574,254.1020115322317 75.02386934682727,255.97119476122316 74.92211055266671,257.72105991633725 73.56532663328107,255.53372718719766 71.73366834165063,254.30086125800153 70.88567839202005,254.26109132138663 70.4786432160763,255.01671939139487 69.39321608026512,254.45994096223149 68.54522613075096,255.2553384633502 67.76507537695579,254.69856039102888 67.08668341697194,255.17579878971446 64.78015075379517,254.0622415742837 64.03391959809233,254.53948078880785 63.52512562822085,253.54523173483904 64.67839195975102,253.02822117734468 64.16959799011238,247.50014032924082 63.55904522619676,246.54564323832165 64.6105527637992,247.6194522935548 64.47487437189557,246.5058724731207 65.83165829139762,244.87526743969647 64.23743718594778,244.71618363942252 61.89698492467869,242.40946089412319 62.50753768859431,243.00602849168354 61.625628140755,243.60259513329947 58.87814070342574,243.28442637674743" stroke="#4dd2ff" stroke-linecap="round" stroke-linejoin="round" stroke-width="0.5"><title>2023-07-17 3.6km</title><desc>1689586843000</desc></polyline><polyline fill="none" points="102.25,234.59999037222588 102.45250000001397,231.15717191179283 102.89125000010245,230.68229788832832 109.27000000001863,230.7614436012227 112.13875000015832,231.27589032257674 112.30750000011176,231.75076358488877 115.14250000019092,231.43418147761258 120.20499999995809,232.30478162143845 121.92625000013504,232.10691813204903 123.44500000006519,232.85879882916925 124.69375000009313,232.50264500506455 128.33874999999534,235.4310107229685 129.92500000016298,233.01708930765744 130.53250000008848,233.72939562390093 133.50250000006054,234.32298317432287 139.64500000025146,238.20106509144534 142.04125000024214,237.13261800372857 142.75,237.4096231002477 142.41250000020955,239.46736875968054 137.18125000002328,246.66938853720785 137.6537500001723,246.59024622369907 137.18125000002328,248.01480527891545 135.9662500001723,248.7666536825418 134.8862500000978,250.70562410124694 133.60375000012573,251.25961378513603 134.00875000003725,251.89274383781594 133.36750000016764,252.7237253896892 133.77250000019558,253.0007188260206 132.8275000002468,254.58353448854177 131.68000000005122,254.02954977590707 131.78125000023283,255.77064179675654 130.26250000018626,256.7994650530745 130.02625000022817,258.936242685857 126.92125000013039,260.5190329855541 125.70625000016298,263.64502395884483 124.39000000013039,264.3177021116426 123.51249999995343,263.88243991695344 121.96000000007916,259.9650571500242 121.35250000015367,260.7960205927666 120.64375000004657,260.7564509472286 114.40000000002328,258.61968381438055 112.51000000012573,260.4794633104466 109.4725000000326,260.71688129747054 107.04249999998137,260.20247546661994 105.65875000006054,256.7994650530745 107.98750000004657,250.3494874383323 108.15625,247.3420975189365 109.06750000000466,246.0362495559093 109.06750000000466,242.27696456367266 109.84375000011642,241.0502422565187 109.50624999997672,240.1005189701682 110.28250000008848,238.95293341667275 110.45125000015832,236.22245694237063 108.56125000002794,236.45989047834883 106.73874999990221,235.94545095789363 105.45625000004657,237.0534736525151 105.38875000004191,236.26202920894139 103.09375000011642,235.7475894136296 102.31750000000466,234.99571458128048" stroke="#4dd2ff" stroke-linecap="round" stroke-linejoin="round" stroke-width="0.5"><title>2023-07-14 4.3km</title><desc>1689326523000</desc></polyline><polyline fill="none" points="147.25,235.20379874133505 147.92443796840962,231.28936786446138 154.7699833472725,231.487067386508 157.80495420470834,232.3964838272368 159.15383014152758,231.9220059631043 163.47023313911632,232.11970514708082 171.93442964181304,230.77534861306776 172.33909242297523,233.6222154936404 176.7566611156799,234.057151560497 177.53226477932185,234.6107058156049 177.16132389672566,234.7688640221313 177.73459616978653,234.45254754149937 180.66840133222286,235.3619566942216 181.44400499586482,236.1527454452007 186.53601165686268,237.4575431898411 187.5813905078685,238.36694495781558 187.75,239.8694299388444 186.97439633635804,241.49052531368216 182.55682764365338,246.59099858722766 182.08472106570844,248.6074453757028 181.2753955036169,248.3702169120079 180.7695670274552,247.3817633430881 180.53351373854093,248.64698343814234 180.0614071607124,248.88421172447852 179.65674437966663,248.13298829630367 179.04975020803977,250.42619187867967 179.21835970005486,252.2449294437538 177.9706494587008,253.74735808215337 176.72293921746314,253.62874551682035 176.65549542044755,255.21024326453335 174.76706910913344,259.12442112888675 172.710033305455,260.78496892904514 171.29371357196942,261.10126290336484 169.4052872606553,263.86882364950725 168.83201498747803,262.682728720858 167.55058284767438,264.22465138693224 167.51686094910838,261.77338670159224 166.03309741872363,260.8640424479963 164.38072439632379,261.1407996312191 162.05391340551432,260.350064272905 158.04100749385543,262.72226527976454 156.11885928397533,261.33848320681136 154.97231473773718,261.2989465002029 153.0501665279735,263.27577666030265 151.90362198173534,262.6431921578478 151.4652373023564,263.1967036566057 151.39779350545723,255.84284047121764 150.79079933383036,255.24978062155424 152.94900083274115,252.95660692756064 152.1733971690992,253.07521970843663 151.90362198173534,252.52169307231088 152.6792256453773,252.16585408328683 152.44317235634662,250.74249470600626 153.58971690258477,248.0934501788288 153.185054121539,247.65853060851805 153.6908825978171,247.26314873746014 154.3990424646763,241.17421457869932 154.97231473773718,241.17421457869932 154.97231473773718,240.02758589782752 155.91652789339423,238.88095366407651 155.3095337220002,236.86445387630374" stroke="#4dd2ff" stroke-linecap="round" stroke-linejoin="round" stroke-width="0.5"><title>2023-07-13 4.2km</title><desc>1689241498000</desc></polyline></svg>