<?xml version="1.0" encoding="utf-8" ?>
<svg baseProfile="full" height="300mm" version="1.1" viewBox="0,0,200,300" width="200mm" xmlns="http://www.w3.org/2000/svg" xmlns:ev="http://www.w3.org/2001/xml-events" xmlns:xlink="http://www.w3.org/1999/xlink"><defs /><rect fill="#222222" height="300" width="200" x="0" y="0" /><text fill="#FFFFFF" style="font-size:12px; font-family:Arial; font-weight:bold;" x="10" y="20">Over 1km Runs</text><text fill="#FFFFFF" style="font-size:4px; font-family:Arial" x="10" y="280">ATHLETE</text><text fill="#FFFFFF" style="font-size:9px; font-family:Arial" x="10" y="290">zhangzili</text><text fill="#FFFFFF" style="font-size:4px; font-family:Arial" x="120" y="280">STATISTICS</text><text fill="#FFFFFF" style="font-size:3px; font-family:Arial" x="120" y="285">Number: 15</text><text fill="#FFFFFF" style="font-size:3px; font-family:Arial" x="120" y="290">Weekly: 2.1</text><text fill="#FFFFFF" style="font-size:3px; font-family:Arial" x="141" y="285">Total: 78.6 km</text><text fill="#FFFFFF" style="font-size:3px; font-family:Arial" x="141" y="290">Avg: 5.2 km</text><text fill="#FFFFFF" style="font-size:3px; font-family:Arial" x="167" y="285">Min: 1.5 km</text><text fill="#FFFFFF" style="font-size:3px; font-family:Arial" x="167" y="290">Max: 20.7 km</text><polyline fill="none" points="15.803583130706102,32.399999999965075 16.880749457050115,44.58489191601984 20.65083159925416,49.317807870567776 22.34352154051885,49.92200754751684 27.19077000860125,48.0087067373679 32.96130389953032,52.43950045167003 34.34623203333467,75.59999999997672 52.19641686882824,75.49930387461791 48.65715608233586,39.1470331150922 35.423398359678686,40.95965752389748 26.036663230508566,39.75124178570695 17.188511264510453,40.55685251497198 16.496047197841108,33.10491702408763" stroke="#4dd2ff" stroke-linecap="round" stroke-linejoin="round" stroke-width="0.5"><title>2023-10-10 1.7km</title><desc>1696937836000</desc></polyline><polyline fill="none" points="121.04968152864603,61.67479029117385 120.3428999625321,61.36464230499405 119.79258149117231,60.96990560819904 119.50663169723703,60.94171000572533 119.41491195201525,60.843025266749464 119.2854252528632,60.892367661581375 119.22068190330174,60.7866338963031 119.25305357811158,60.8571230990201 119.05342825027765,60.93466110253212 118.90775571373524,60.8571230990201 118.25492693888373,61.06859008649917 117.27838141625398,60.843025266749464 117.07875608842005,60.892367661581375 116.91689771445817,61.1038344939152 116.2478831022745,61.153176620842714 115.98890970399952,61.0262967634917 115.98890970399952,61.132030001212115 115.84323716745712,61.14612774867419 115.49793930308078,59.93370634520397 115.12026976392372,59.65174349323206 114.86669164479827,59.16535368334735 114.27860621953732,58.77059891247336 113.9117272386502,58.68600818231789 113.63656800298486,58.629614279467205 113.54484825776308,58.735352793020866 112.8758336455503,58.74945124388614 112.35249156985083,58.45338290628206 111.9370550767926,58.77059891247336 111.71584863244789,58.75650046779265 111.66729112027679,58.862238702007744 111.18711127762799,58.960927510597685 111.116972648917,59.1935503285531 110.64218808541773,59.123058684497664 110.2753091045015,59.292238456419 109.60629449231783,58.98207508604901 109.32573997750296,59.1583045194493 108.98044211312663,58.93977992582586 108.69449231919134,58.57322031040894 108.37617085050442,58.4886292326446 108.02547770697856,58.24190440492748 107.76110902958317,58.29829876298754 107.69097040090128,58.18550998063438 107.35106781564537,58.192559287283075 106.59572873736033,57.8964875168931 106.39070813037688,57.656809032723686 106.24503559383447,57.76254968788635 106.24503559383447,57.945832938698004 105.9860621955595,58.0938688999413 105.06886474334169,58.23485510550381 105.05267890595132,58.1502634318349 104.98793555636075,58.22780580503968 104.9016110902594,58.11501685717303 104.5886849006929,58.27010159222846 104.30813038587803,58.0092769779767 103.94125140499091,58.31239734216797 103.54200074932305,58.47453070519623 102.15001873357687,57.699105322717514 101.97736980140326,57.55811754454044 101.7453727987886,56.85317244570251 101.4594230048533,56.64168689840517 101.05477707006503,55.52079795037935 100.79040839264053,55.457350623873936 100.70408392656827,55.28815734340242 100.3749718995823,55.1189634668699 100.26167103782063,54.82287274866758 100.05125515171676,54.66072705801707 99.99730236042524,54.44923185618245 100.08902210564702,54.146087109336804 99.98651180215529,53.737191163760144 100.06744098910713,53.41994191102276 99.94874484825414,53.37059183888414 100.02427875608555,53.271891542510275 99.93255901086377,53.15909095539973 99.98111652303487,53.215491282069706 99.94334956910461,53.109740615229384 100.09981266391696,52.83478779157667 100.05125515171676,52.26372689701748 99.52791307604639,51.77021201179741 99.48475084299571,51.206188789688895 99.25814911947236,50.762015839645755 98.97219932556618,50.59985643728942 98.70243536905036,50.09927395835257 97.93630573243718,49.669191886223416 97.3859872611065,48.985282953304704 96.40404645932722,48.70325581445286 96.3015361558646,48.49878510294366 96.0371674784401,48.34366880998641 95.78898463840596,47.73730031120067 95.56777819409035,47.73730031120067 95.40052454100805,47.59628328378676 95.2440614462248,47.687944398730906 94.68295241662418,47.3424515907609 94.62899962530355,47.194382483463414 94.256725365296,46.91939578709571 94.11644810790312,46.02391537402946 93.749569127016,45.67841059217244 93.6038965904736,45.27649373805616 93.76035968525684,45.19187923480058 93.61468714871444,45.23418650505846 93.43124765827088,45.135469483106135 93.32334207565873,44.42329066773891 92.77841888344847,43.45724905433235 92.50865492693265,42.554652463531966 91.90438366428134,42.180916094741406 91.56448107905453,42.1456577965655 91.15983514423715,41.74371136703485 90.2318471337203,41.856538774711225 89.84338703632238,42.07514112249919 89.42795054326416,42.58991046133815 88.73195953539107,42.61811684094937 88.17624578491086,42.73799376939496 87.82015736226458,42.928385922899906 87.49104533533682,42.80145790445022 87.60974147618981,42.99890134371162 87.46946421879693,43.118777321353264 87.30760584489326,43.09057123589082 87.2698388909339,42.653374792153045 87.18351442486164,42.611065247590886 86.46054702135734,42.625168433278304 85.68902210565284,42.321949028540985 85.49479205693933,42.392465340086346 85.44623454476823,42.7732516325741 85.10633195951232,43.02005594972434 84.63694267513347,43.79571840111021 84.15136755336425,44.14123673136055 84.05964780814247,44.65598391786261 83.75751217681682,44.994444813932205 82.31157736980822,45.911097759435506 81.89614087672089,45.99571099523382 81.52386661671335,46.32006035105587 81.01131509925472,46.48223420730574 80.64983139751712,47.0604148024795 80.6228550018277,47.42706230418844 80.71457474707859,47.46231672411159 80.63904083924717,47.60333414498382 80.29374297489994,47.84306281000681 79.705657549639,48.58339377882294 79.2740352191613,48.69620511476023 79.16612963654916,48.8301682319252 79.17152491569868,49.027586881278694 79.64091420004843,49.75379849984165 79.58156612960738,49.97236489508941 79.32798801048193,50.212081733028754 78.74529786434141,50.31078831848208 78.69134507304989,50.71266303602897 78.41618583738455,50.881872437243146 78.39999999999418,51.00172873571864 78.79385537651251,51.241440435165714 78.90176095915376,51.474100646184525 79.33338328960235,51.36129583616275 79.58156612960738,51.452949764498044 79.55458973397617,52.002869660987926 79.4412888722145,52.29897776616781 79.55458973397617,52.8136375091708 80.28295241663,53.123840717584244 80.53113525663503,53.109740615229384 81.17856875230791,53.659641539950826 81.3458224053611,53.67374148086674 81.28107905582874,53.8358905038549 81.49689022105304,53.97688920926521 81.64256275756634,53.92048977678496 81.55084301234456,54.23068583584245 81.69112026973744,54.17428670139634 81.80442113149911,54.533830048691016 82.44106406893115,55.21765996727845 82.45724990632152,55.38685349611842 82.62450355934561,55.344555169784144 82.93742974894121,55.711139427006856 82.79715249154833,55.80278505412207 82.85110528289806,56.15526660556134 83.04533533158246,55.99312541320978 83.40681903332006,56.2328121997416 83.71434994379524,55.97902615320345 84.09741476207273,55.98607578370502 84.28085425251629,56.112968955989345 84.45889846383943,56.02837354505027 84.70708130384446,56.20461381632413 85.06316972646164,56.08477050223155 85.21423754215357,56.3526551444229 85.48939677781891,56.444299547431 85.49479205693933,56.564141964416194 85.88864743348677,56.26806015566763 86.05590108653996,56.77562785315604 86.52529037091881,56.82497442653403 86.68175346567295,56.93071691303703 86.84361183963483,56.93071691303703 86.87058823526604,56.8390734381901 86.87058823526604,57.29728906387754 86.7626826526539,57.41712935250689 86.82203072309494,57.50172231740362 87.2212813787919,57.670907800191344 87.42630198574625,57.656809032723686 87.53960284750792,58.05157295758909 87.71225177965243,57.995178309800394 88.09531659795903,58.22075650356783 88.21940801796154,58.43928436849092 88.27336080928217,59.123058684497664 88.80749344322248,59.341582444292726 88.7373548145406,59.82092140301393 89.18516298237955,59.99714775877874 89.41715998499421,60.377794480718876 89.7732484076405,60.462382231526135 90.20487073805998,60.0958342356098 90.80374672161997,60.2791085832032 91.28392656423966,60.561067752514646 91.5105282877048,60.462382231526135 91.82884975644993,60.52582294687454 92.30902959909872,60.73024245966735 92.78920944171841,61.21661642383697 93.24780816782732,61.294153847054986 93.47980517047108,61.435130659523566 93.64166354437475,61.68888787931428 94.2081678531249,61.858058614463516 94.5912326714024,62.35146985573738 95.15773698012345,62.147057242098526 95.89689022101811,62.492443565224676 96.17204945668345,62.35146985573738 96.47418508803821,62.34442115938873 96.78711127763381,61.865107382156566 97.002922442829,61.78757088056227 97.29966279503424,62.11181360011324 97.65035593853099,61.98493627484277 98.157512176811,62.70390335374759 98.58373922816827,62.35851855102737 98.91285125512513,62.60522223494627 98.84810790556367,62.767341108778055 98.91285125512513,62.80963289893771 99.28512551516178,62.72504928139824 99.92176845259382,63.13386871982948 100.57459722741623,63.028139888250735 100.97924316223362,63.32418003023122 101.76695391529938,63.50744206100717 102.30648182838922,63.90215790661023 102.29569127011928,63.993787906947546 102.45215436490253,63.97969099518741 102.59782690144493,64.11361148982542 102.79205695015844,63.93035177149068 103.22367928060703,63.944448697715416 103.32618958409876,63.80347924927264 103.47186212061206,63.85986707829943 103.39632821280975,63.993787906947546 103.76860247281729,63.89510943782079 103.95204196326085,63.944448697715416 104.00599475458148,63.796430765996774 103.8926938928198,63.57792727131164 104.03836642936221,63.451053818313085 104.06534282502253,63.57792727131164 104.44840764330002,63.5426846790906 104.54552266764222,63.676606391982205 104.75593855374609,63.676606391982205 104.62105657547363,63.810527731526236 104.70198576245457,63.993787906947546 104.9016110902594,63.97969099518741 105.02030723117059,64.15590209475704 105.08505058073206,64.07836929059704 105.48969651554944,64.21933793239077 105.47351067812997,64.29687050904613 105.71090295989416,64.14885366319868 105.75406519291573,64.21933793239077 106.31517422254547,63.95854561982924 106.6119145747216,63.92330330683035 106.70363431994338,63.77528530995187 107.32948669913458,63.65546088318297 107.65320344697102,63.85281860327814 108.05245410263888,63.90215790661023 108.72686399400118,64.48717721216235 109.44983139750548,64.71272492112257 109.88684900710359,65.10038257176711 110.23754215060035,65.06514109643103 110.4695391531859,65.4316511763318 110.83102285498171,65.6571944510979 111.35436493065208,65.69948369723716 111.47306107156328,65.57261584714797 111.87231172720203,65.81225483827802 112.18523791679763,65.75586930085774 112.74634694642737,65.8545439479276 113.02150618209271,65.71358010434778 114.66706631696434,65.73472470727211 115.12566504307324,65.69948369723716 115.24975646307576,65.60080873168772 115.71375046830508,65.72062830635696 116.11300112400204,65.64309802746357 116.82517796923639,65.79111026950704 117.18126639188267,66.04484448066069 117.52116897710948,66.05189263407738 117.81790932931472,65.90388119546333 118.50850505806739,66.19285548497646 118.95091794678592,66.25628863296879 119.51202697638655,65.99550737790196 120.15406519293902,66.12942225324514 120.62884975643829,65.91092936956193 121.00651929559535,65.99550737790196 121.07665792430635,65.70653190131998 121.55144248780562,65.69243549214661 121.59999999997672,65.36116868582394" stroke="#4dd2ff" stroke-linecap="round" stroke-linejoin="round" stroke-width="0.5"><title>2023-10-05 18.8km</title><desc>1696467788000</desc></polyline><polyline fill="none" points="144.39999999990687,53.40136369608808 150.8037647055462,60.71837146533653 157.3091764706187,58.323720905871596 164.3228235291317,61.38355104881339 168.2870588232763,55.52995389158605 178.75670588202775,59.654083111847285 186.68517647031695,58.8558660238632 186.4818823528476,47.01556299516233 145.61976470565423,48.745055145351216 144.80658823484555,53.268326642224565 151.21035294048488,60.71837146533653 158.32564705843106,58.8558660238632 164.2211764701642,61.250515171384905 168.5920000001788,55.263880391663406 178.35011764708906,59.52104697970208 187.59999999962747,57.791575474489946 186.4818823528476,46.61644895118661 157.61411764705554,48.87809286598349" stroke="#4dd2ff" stroke-linecap="round" stroke-linejoin="round" stroke-width="0.5"><title>2023-10-03 1.9km</title><desc>1696334828000</desc></polyline><polyline fill="none" points="12.909433962311596,91.46525335247861 12.70566037716344,104.53373102279147 19.124528302345425,111.73464826861164 24.422641509212554,109.33434888691409 33.08301886729896,112.53474664752139 37.2603773586452,106.66734210686991 48.16226415056735,110.66784932941664 55.498113207984716,110.00109935406363 55.090566038154066,98.66627460008021 52.44150943402201,97.46610837173648 14.845283018890768,99.46638453449123 12.501886792946607,101.06660228100372 12.399999999906868,104.13367838412523 18.41132075479254,111.33459881396266 24.320754716638476,108.80094816006022 32.77735849050805,112.26804726640694 37.158490566536784,106.66734210686991 48.36603773618117,110.66784932941664 55.60000000009313,109.73439922614489 54.37735849060118,97.46610837173648 28.498113207519054,99.73308768868446 13.724528301507235,99.06632965541212" stroke="#4dd2ff" stroke-linecap="round" stroke-linejoin="round" stroke-width="0.5"><title>2023-10-02 2.0km</title><desc>1696244277000</desc></polyline><polyline fill="none" points="78.39999999990687,89.88406027678866 79.99262672802433,92.61995089810807 79.79354838700965,106.29927699320251 83.974193548318,111.90122563368641 86.86082949349657,113.85538541211281 90.94193548383191,111.24983808049001 99.00460829492658,114.11593972315313 103.68294930830598,108.51400511729298 110.0534562212415,109.42595037922729 113.93548387102783,112.55261270637857 121.60000000009313,110.98928292532219 120.7041474650614,99.78533858637093 80.29124423954636,102.26064083527308 80.19170506903902,106.42955527163576 86.16405529947951,113.72510822804179 92.23594470042735,110.98928292532219 99.50230414792895,113.72510822804179 103.88202765025198,108.77456100244308 109.85437788069248,109.55622819700511 113.83594470005482,112.42233533033868 121.30138248857111,111.51039315969683 120.8036866360344,100.30645542504499 80.09216589806601,101.73952514794655 79.29585253400728,91.18686639069347" stroke="#4dd2ff" stroke-linecap="round" stroke-linejoin="round" stroke-width="0.5"><title>2023-10-01 2.1km</title><desc>1696158328000</desc></polyline><polyline fill="none" points="144.39999999990687,92.19424745783908 150.09574036486447,90.01515404949896 150.18336713965982,104.00712131737964 156.14198782946914,111.11769679840654 159.73468559794128,108.93865637807176 167.9716024333611,111.34706911939429 171.82718052668497,106.18617554655066 177.43529411684722,107.67710387211991 179.8012170381844,113.98484595055925 180.5022312370129,110.0855205177213 187.59999999962747,108.70928334689233 186.1979716019705,98.73149107320933 150.79675456369296,100.33712145511527 150.44624746404588,104.58055723260622 155.87910750415176,110.8883244098397 160.34807302197441,108.59459680633154 167.7087221094407,110.77363819041057 171.38904665224254,106.3008624422364 180.94036511098966,109.97083417983958 186.89898580033332,109.16802934132284 186.63610547641292,99.07555500528542 150.8843813384883,100.10774588957429 149.9204868148081,91.73549145809375" stroke="#4dd2ff" stroke-linecap="round" stroke-linejoin="round" stroke-width="0.5"><title>2023-09-29 2.2km</title><desc>1695985278000</desc></polyline><polyline fill="none" points="19.53526311623864,128.39999999999418 19.97029279707931,129.4675918732246 22.580470881192014,128.54234571949928 22.852364431601018,136.72715402120957 26.06070832721889,141.0686047290219 24.483725734520704,144.9829940396885 24.429347024299204,152.1711536028888 24.483725734520704,144.20011871572933 25.734436066355556,141.78031423620996 28.997158671962097,139.64518256788142 33.45621289918199,141.85148512921296 34.81568065145984,146.40640046828776 34.92443807167001,159.14570121042198 33.61934902961366,162.49060157247004 44.1688187867403,171.60000000000582 48.46473688399419,170.10550110210897 45.31077169883065,133.66676367621403 30.139111583819613,134.37848409169237 29.051537381950766,134.09379605136928 28.997158671962097,131.74511331453687" stroke="#4dd2ff" stroke-linecap="round" stroke-linejoin="round" stroke-width="0.5"><title>2023-09-27 2.3km</title><desc>1695814613000</desc></polyline><polyline fill="none" points="118.30495781809441,161.32497432693344 118.03536345774774,161.20105729847273 117.7158442158543,161.24018902898024 117.22158788857632,161.03148606819377 116.90206864668289,161.1749694589853 116.62248931004433,161.1619255335172 116.31295504447189,160.9075682216244 115.60402172655449,160.7771280099696 112.7483185022138,160.84887017373694 112.48870911818813,160.99235415396106 112.09929504216416,160.9075682216244 111.78976077659172,160.95974419911 111.31048191376613,160.7053857304163 111.23559459144599,160.84234816363096 110.79625563387526,160.79669406610992 110.18717207902228,160.2553633359057 109.86765283715795,160.28797380744072 109.4532763203315,159.92273515971465 108.7443430024141,159.7009816595164 108.16022188833449,159.1726820991862 108.01543973185471,159.20529336495383 107.93056743324269,159.10093723021055 107.49122847567196,158.95744714491593 107.02193458913825,159.0161476903304 106.82223506298033,159.19224886151278 106.32797873570235,159.36182710775392 106.34794868828612,159.2835603052663 105.81375245578238,159.53792690952469 105.80875996762188,159.4531382031564 105.6689702993026,159.47270484206456 105.4343233560212,159.32269372371957 105.36442852189066,159.37487156144198 105.23462382986327,159.22486011296496 105.16472899570363,159.29660478190272 104.99997688661097,159.08137042767703 105.09982664970448,158.95092485730493 104.89513463538606,158.94440256872986 104.8402172656788,158.8465681253947 104.49573558301199,158.87917963042855 104.47077314223861,158.76830041568246 104.41086328439997,158.92483569728938 104.34596093840082,158.87917963042855 104.44581070146523,159.074848158245 104.39089333178708,159.21833786459683 103.85669709925423,159.26399358311392 103.93657690973487,159.12050402413297 103.82674217032036,159.0878926961559 103.74186987167923,159.22486011296496 103.32250086675049,159.19224886151278 103.15275626949733,159.34878265024963 102.79828961050953,159.19877111372261 102.75335721712327,159.10093723021055 102.91810932621593,158.73568882931795 102.90812434992404,158.46827291850786 103.22764359181747,157.90734651343155 103.38241072461824,156.94201473202338 103.71191494277446,156.289751660006 103.92159944528248,154.9069222908438 103.86168958741473,154.23506041717337 103.48226048768265,153.86977202964772 102.57862013173872,153.33488004546962 102.33898070032592,152.67604082688194 102.07937131627114,152.4803441281074 102.03943141104537,152.2194138559753 101.8896567664051,152.08242484984657 101.68496475208667,151.41052027656042 101.44033283251338,151.37137989123585 101.20069340110058,151.18872430384363 100.79130937246373,150.66032355603966 100.7064370738517,149.7339762191259 100.79130937246373,149.47955350010307 100.67648214491783,149.45998246137242 100.7014445856912,149.27079530937044 100.78631688430323,149.25122417871535 100.69145960937021,149.24470046656643 100.80129434875562,149.25122417871535 100.53669247656944,149.19903445481395 100.60658731075819,149.26427160009916 100.79630186059512,149.00332244432138 100.76634693169035,148.46184805735174 100.66150468046544,148.25960894336458 100.28207558070426,147.95951049737778 100.25711313995998,147.4767391794485 100.04243614929146,147.0135347412761 99.7678493008134,146.85043343755387 99.46830001153285,146.3806983379436 98.64953195420094,145.8587646253909 98.30005778340274,145.37597048288808 97.4014099156193,145.11499849193933 97.0469432566606,144.74311075643345 96.86222119495505,144.24073115367355 96.47779960706248,144.09066861213068 96.34300242687459,144.17548663265552 95.80381370621035,143.84273808524085 95.43436958279926,143.45779057820982 95.2646249855461,142.62263875698773 94.92513579103979,142.26377963678897 94.81530105165439,141.9114424078507 94.64056396624073,141.74832237412193 94.46582688082708,140.9522880167424 94.02149543509586,140.25411499540496 93.76188605107018,139.41237779265794 93.507269155205,139.34712618062986 93.23268230669782,139.06654315670676 92.92314804112539,139.04044232021624 92.51875650061993,138.66850373375928 91.69000346699613,138.75985735926952 91.32555183171644,138.9686649407413 90.92116029121098,139.44500356273056 89.91267768401303,139.52983045281144 89.45336877380032,139.76473484152666 89.18876690164325,139.68643351664286 89.23369929502951,139.82998584019515 89.08891713854973,139.9539624736135 88.95411995836184,139.89523674300654 88.92915751758846,139.5233053131742 88.84428521897644,139.4645790132745 88.1802842944453,139.5037298884963 87.46136600020691,139.21009748338474 87.29162140295375,139.26882411965926 87.20175661618123,139.66685816383688 86.71748526522424,140.08446381921385 86.47285334565095,140.55426548931428 86.03351438808022,140.88051372615155 85.89871720789233,141.45470480414588 84.83032474285574,142.2442054195999 84.34605339186965,142.51824367550944 83.94166185139329,142.61611407157397 83.59718016872648,142.90972396620418 83.15284872296616,143.0336920058253 82.78839708771557,143.5817570886211 82.84830694555421,143.98627697995835 82.384005547181,144.4103664599279 82.21426094995695,144.7235376314893 81.99459147115704,144.75615950158317 81.72499711081036,144.95189021920305 81.34556801107829,144.98451192165885 81.03104125734535,145.19981455712696 80.65161215761327,145.18676594224962 80.56673985900125,145.0823768852788 80.17732578294817,145.04975525470945 80.08746099614655,144.95841456161725 79.6730844793783,144.94536587584662 79.39849763087113,145.19981455712696 79.04902346004383,145.1606687009953 78.95915867330041,145.23243607754193 78.39999999999418,146.0218695691401 78.66959436031175,146.30240867189787 79.17383566393983,146.51118080816013 79.50333988209604,146.79171682168453 79.65810701489681,147.28101958337356 80.29714549865457,147.87469969966332 80.48186756036012,147.8616518702438 80.53678493006737,148.05084502156024 80.626649716869,147.992129991846 81.03104125734535,148.26613280012316 81.27068068875815,148.44880040034695 81.30562810585252,148.61189583746454 81.69004969371599,148.8858948242705 82.46388535766164,149.2120818915355 82.7534496706212,149.22512932442623 82.79838206400746,149.35560344262558 83.07296891248552,149.50564820497675 82.99808159019449,149.5904558900329 83.12788628219278,149.55131390164752 83.42743557147332,149.69483435714938 83.37251820176607,149.86444884334924 83.60217265688698,149.98187387760845 83.71699988443288,149.94273223400523 83.63712007395225,150.21672301536455 83.75693978965865,150.138440107341 83.75693978965865,150.30152934342914 84.09642898416496,150.7907934605937 84.5157979891228,151.30614583905117 84.6356177048292,151.26700536178396 84.92518201778876,151.58665158400618 84.79537732576136,151.65188522445533 84.84030971914763,152.01066853525117 85.01504680456128,151.8606322303749 85.35952848722809,152.08894814541782 85.67904772909242,151.84106224020434 86.01354443543823,151.8606322303749 86.15832659191801,151.9650053656478 86.35303362994455,151.91281882864132 86.58268808503635,152.05633165793915 86.89222235060879,151.94543542146494 87.04199699524906,152.19984402381306 87.22172656879411,152.19984402381306 87.30659886743524,152.38901870711925 87.68103547900682,152.1085180264272 87.830810123618,152.58471580802143 88.27014908124693,152.62385512479523 88.4249162140186,152.72822646769418 88.55971339417738,152.65647119577625 88.58467583495076,153.0870010894614 88.47484109556535,153.21746387020175 89.13884202009649,153.46534209860692 89.19375938980374,153.76540336750622 89.3585114988964,153.71321894452922 89.7179706460156,153.93500231904545 89.8327978735615,154.14373860174237 89.81282792091952,154.6003458024752 89.89270773140015,154.77646446915242 90.36699410606525,154.95258243796707 90.3070842482266,155.39613571189693 90.67652837163769,155.52006892372447 90.93613775566337,155.91795742608883 91.29559690281167,155.98318470960294 91.68001849067514,155.6505245628614 92.16428984166123,155.7875025718713 92.6735236333916,156.07450274572693 92.9131630648044,155.98970743268364 93.17277244885918,156.04188918293949 93.80681844445644,156.381069066294 94.05644285219023,156.68111065180346 94.50576678608195,156.75938203666374 94.85024846871966,157.11160156293045 95.36946723680012,157.26162014325018 95.76387380098458,157.7638525751281 96.25313764013117,157.5420883048464 96.94709349356708,157.84864450374153 97.18174043681938,157.73776271841416 97.47130474977894,157.74428518404602 97.7608690627385,157.30727787156138 97.96556107705692,157.22248491024584 98.2251704611117,157.48990831575793 98.51473477407126,157.39859318745584 98.6994568357477,157.5094758188461 99.03395354209351,158.06388482687544 99.41837512998609,157.73776271841416 99.72790939555853,157.97909330884795 99.73789437187952,158.14215377689834 100.07239107822534,158.07692966144896 100.54168496472994,158.42261638270065 101.27558072342072,158.3639150534873 101.82974690859555,158.703077219001 102.3639431410993,158.8009119781418 102.86818444469827,159.1465930693048 102.86319195653778,159.23790460681994 103.11780885240296,159.3292159568009 103.22764359181747,159.3292159568009 103.23263607994886,159.21181561523917 103.34247081936337,159.17920435425185 103.70692245461396,159.21181561523917 103.82174968218897,159.074848158245 103.93158442157437,159.12050402413297 103.88165954002761,159.25094909687687 104.21615624637343,159.1531153282158 104.36093840285321,159.20529336495383 104.45080318962573,159.0683258878671 104.33597596210893,158.88570192855695 104.41086328439997,158.91831340490535 104.50072807117249,158.7487334667312 104.49573558301199,158.85961273026624 104.8402172656788,158.82700121089147 104.91011209983844,158.93135798872026 105.12478909047786,158.9378802792089 105.00996186290286,159.074848158245 105.0798566970625,159.23790460681994 105.81375245578238,159.4596604170838 105.79877499132999,159.54444911099927 105.89363226623391,159.42704933788627 105.92358719516778,159.48574926319634 106.00346700564842,159.3879160112956 106.81724257479073,159.17920435425185 106.977002195752,159.0226699683808 107.50121345196385,158.93135798872026 107.81574020569678,159.10093723021055 108.18518432910787,159.1661598431274 108.79426788393175,159.69445948100838 109.67294579910231,160.0075229703907 109.88762278977083,160.2553633359057 110.152224661957,160.21623073848605 110.81123309832765,160.7771280099696 111.26554952040897,160.82278212758683 111.3354443545395,160.7119077606003 111.8097307292046,160.95322220528396 112.10928001845605,160.88148020990775 112.53863399973488,160.99235415396106 112.78825840746867,160.84234816363096 114.69039639428956,160.84234816363096 114.82519357447745,160.76408396773695 115.28450248466106,160.84887017373694 115.64396163178026,160.77060598934258 116.31794753263239,160.92713422035013 116.6624292152992,161.1488816041856 117.28649023457547,161.01192011537205 117.82068646710832,161.28584267104452 118.15518317342503,161.33149626624436 118.76426672830712,161.1032278214734 119.3683577949705,161.2141012124739 119.78772679995745,161.01844210059426 120.12721599443466,161.12279373410274 120.21708078123629,160.86843619830688 120.6664047150989,160.82278212758683 120.70634462032467,160.5553787717654 121.48517277243081,160.38580507854567 121.59500751184532,160.1575317777315 121.59999999997672,159.87708011774885 121.47518779610982,159.69445948100838" stroke="#ff0000" stroke-linecap="round" stroke-linejoin="round" stroke-width="0.5"><title>2023-09-23 20.7km</title><desc>1695430086000</desc></polyline><polyline fill="none" points="144.39999999990687,136.28215265570907 144.98604651144706,131.17758930500713 156.45581395342015,132.11015799822053 156.790697674267,134.71152382029686 151.47441860451363,150.31940939844935 151.47441860451363,151.0556173196237 152.479069767287,151.59550237868098 187.5999999998603,151.6445828070282 181.36279069748707,161.50964247845695 179.31162790674716,162.73662513802992 175.12558139511384,167.44820809940575 172.02790697664022,167.79175913360086 169.55813953466713,167.25189310725546 167.29767441842705,168.82241069502197 150.93023255793378,168.72425350290723 149.17209302308038,168.03715257215663 149.29767441842705,164.74886960579897" stroke="#4dd2ff" stroke-linecap="round" stroke-linejoin="round" stroke-width="0.5"><title>2023-07-28 3.3km</title><desc>1690494902000</desc></polyline><polyline fill="none" points="12.436241610674188,181.72533455496887 22.801342281745747,182.7876915844099 25.338255033595487,182.3627491131192 39.798657718114555,184.06251627369784 55.5999999998603,188.991799956857 55.273825503187254,190.7765255359118 44.65503355697729,206.96617030873313 40.958389261737466,209.7706087390252 38.131543623982,213.3823563751066 33.383892617421225,213.08491957368096 32.622818792006,214.23217458231375 22.004026845563203,213.80726570566185 18.48859060415998,214.27466544506024 15.95167785231024,213.67979295409168 17.038926174631342,205.35148466707324 19.82953020115383,193.24113340696204 19.322147650877014,192.3062839433842 20.554362416034564,188.22691511415178 12.617449664277956,187.8019784548087 12.399999999906868,186.65464720650925" stroke="#4dd2ff" stroke-linecap="round" stroke-linejoin="round" stroke-width="0.5"><title>2023-07-25 3.7km</title><desc>1690275373000</desc></polyline><polyline fill="none" points="81.49065670045093,198.9607669882389 81.83662573422771,198.20354484162817 81.81356113194488,195.95890873837925 78.63064602250233,195.74255721880763 78.40000000002328,194.55262055485218 81.79049652966205,179.05588902659656 94.01473571814131,178.94770606435486 95.30635344376788,179.51566610015288 96.32119594234973,179.05588902659656 106.65413774701301,179.13702621789707 109.74479444744065,182.89635422189895 111.24399359314702,184.08634569388232 112.55867592105642,186.38517700933153 116.66417512018234,191.33435473188 116.9178857448278,192.19977477430075 118.02498665242456,192.90292637975654 120.51596369466279,197.17588259038166 121.32322477316484,201.80032986188598 121.59999999997672,216.53850159262947 121.2770955687156,217.0522939356597 104.07090229575988,216.8630021411227 100.79572877741884,216.6737102050247 100.5650827549398,216.37625116237905 99.15814201824833,216.45737639052095 96.15974372671917,215.8354156439018 95.39861185266636,215.8354156439018 94.93731980782468,216.7548353377788 84.65050720784348,216.4032929079258 84.39679658296518,213.86135619571724 85.98825413780287,207.93908548208128 86.77245061402209,203.1524914621259 86.47261078492738,202.63867090498388 87.2568072611466,200.23181335582922 82.18259476777166,199.82616095332196 81.81356113194488,199.12302858209296" stroke="#4dd2ff" stroke-linecap="round" stroke-linejoin="round" stroke-width="0.5"><title>2023-07-22 6.4km</title><desc>1690017215000</desc></polyline><polyline fill="none" points="144.39999999990687,192.20606012601638 148.89220103994012,191.50375849404372 187.60000000009313,195.3664100410533 187.5251299822703,204.49624150595628" stroke="#4dd2ff" stroke-linecap="round" stroke-linejoin="round" stroke-width="0.5"><title>2023-07-19 1.5km</title><desc>1689754868000</desc></polyline><polyline fill="none" points="12.399999999906868,239.59437019083998 12.906532663153484,235.43692157199257 13.557788944803178,235.09753608921892 22.964824120746925,235.86115301738027 23.398994974792004,236.582345434319 26.112562814028934,235.73388363138656 37.76281407033093,236.37023015361046 40.98291457281448,237.81261182780145 46.12060301518068,239.25498826193507 46.30150753771886,238.87318324518856 48.61708542727865,240.10344254015945 51.80100502516143,240.57009162037866 52.45226130657829,241.2488529396942 55.527638191124424,241.41854308822076 55.129648241214454,242.0548804991704 55.60000000009313,242.26699274295243 55.20201005018316,242.3942600347218 55.563819095725194,244.89717515045777 52.018090452300385,249.60600658672047 51.945728643098846,251.55739784255275 51.656281406991184,251.1331831679272 47.27839195984416,254.8238356561924 43.00904522603378,253.12698819767684 40.07839195989072,253.97541283332976 39.1376884423662,253.7208856329671 38.124623115640134,254.65415123658022 35.59195979894139,253.33909452651278 34.68743718601763,254.39962447129074 33.023115577874705,253.4239370263531 31.937688442179933,254.65415123658022 30.671356783946976,253.04214563436108 31.35879396996461,255.03594107858953 31.2502512561623,256.902463910752 29.80301507539116,254.5693089996348 27.84924623114057,253.25425200851168 26.944723617983982,253.2118307428027 26.510552763706073,254.0178340174607 25.352763819042593,253.4239370263531 24.448241206118837,254.2723610275425 23.61608040216379,253.67846441705478 22.892462311545387,254.18751870898996 20.43216080404818,252.9997243458638 19.63618090446107,253.5087795080326 19.093467336846516,252.44824718378368 20.323618090478703,251.89676925577805 19.780904522864148,246.0001496844925 19.129648241214454,244.9820194541535 20.251256281509995,246.1274157797743 20.10653266333975,244.9395973046485 21.55376884411089,243.2002852689766 19.853266331832856,243.03059588200995 17.35678391950205,240.57009162037866 18.008040201151744,241.20643039111746 17.067336683394387,241.84276814214536 14.136683417018503,241.5033881351701" stroke="#4dd2ff" stroke-linecap="round" stroke-linejoin="round" stroke-width="0.5"><title>2023-07-17 3.6km</title><desc>1689586843000</desc></polyline><polyline fill="none" points="78.39999999990687,232.23998973041307 78.61599999992177,228.56765003927285 79.08400000003166,228.06111774759484 85.88799999980256,228.14553984132363 88.94800000009127,228.69428301075823 89.12800000002608,229.2008144905849 92.15200000000186,228.8631269094767 97.55199999990873,229.79176706291037 99.38800000003539,229.58071267421474 101.00799999991432,230.3827187511488 102.33999999985099,230.00282133877045 106.22799999988638,233.12641143787187 107.9199999999255,230.55156192817958 108.5679999999702,231.31135533220368 111.73600000003353,231.94451538595604 118.28800000017509,236.08113609754946 120.84400000004098,234.94145920401206 121.5999999998603,235.23693130695028 121.23999999999069,237.43186001037247 115.65999999991618,245.11401443972136 116.16400000010617,245.0295959719806 115.65999999991618,246.5491256308742 114.3640000000596,247.35109726141673 113.21199999982491,249.4193323747022 111.84400000004098,250.01025470418972 112.27599999983795,250.68559342704248 111.59199999994598,251.5719737490581 112.02399999997579,251.86743341447436 111.01600000006147,253.55577012113645 109.79199999989942,252.96485309433774 109.9000000001397,254.82201791656553 108.28000000002794,255.91942938999273 108.02799999993294,258.1986588649452 104.7160000000149,259.88696851796703 103.42000000015832,263.22135888948105 102.01600000006147,263.93888225243427 101.07999999984168,263.47460257812054 99.42399999988265,259.29606096007046 98.77600000007078,260.18242196564097 98.0199999997858,260.1402143437299 91.35999999986961,257.8609960687172 89.34400000004098,259.8447608645074 86.10399999981746,260.09800671733683 83.51199999987148,259.54930716444505 82.03599999984726,255.91942938999273 84.52000000001863,249.0394532675855 84.69999999995343,245.83157068691798 85.67199999978766,244.43866619301843 85.67199999978766,240.4287622013071 86.5,239.1202584069688 86.13999999989755,238.10722023487324 86.96799999987707,236.88312897781725 87.1480000000447,233.97062073857524 85.13199999998324,234.22388317695004 83.18799999984913,233.67514768845285 81.81999999983236,234.85703856270993 81.747999999905,234.01283115622937 79.30000000004657,233.4640953745693 78.47199999983422,232.6620955533872" stroke="#4dd2ff" stroke-linecap="round" stroke-linejoin="round" stroke-width="0.5"><title>2023-07-14 4.3km</title><desc>1689326523000</desc></polyline><polyline fill="none" points="144.39999999990687,232.8840519907244 145.11940049938858,228.70865905538085 152.42131557012908,228.91953854559688 155.65861781826243,229.8895827490196 157.09741881745867,229.3834730272938 161.70158201479353,229.59435215685517 170.7300582844764,228.16037185391178 171.161698584212,231.19702985987533 175.87377185653895,231.66096166451462 176.70108243101276,232.25141953662387 176.30541215627454,232.4201216235815 176.91690258099698,232.08271737757605 180.04629475413822,233.05275380716193 180.87360532861203,233.8962618082005 186.3050791004207,235.2880460691522 187.42014987487346,236.25807462164084 187.5999999998603,237.8607252680813 186.7726894253865,239.58989366790047 182.06061615305953,245.0303984930215 181.55703580309637,247.1812750674144 180.6937552036252,246.928231372789 180.15420482913032,245.87388089927845 179.90241465414874,247.22344900068128 179.39883430465125,247.47649250610266 178.96719400468282,246.6751875160262 178.31973355496302,249.12127133723698 178.49958367994986,251.0612580733141 177.16869275574572,252.66384862092673 175.8378018317744,252.53732855126145 175.76586178154685,254.22425948214368 173.75154038285837,258.3993825374346 171.5573688589502,260.17063352427795 170.04662780999206,260.5080137635814 168.03230641130358,263.46007855946664 167.42081598634832,262.1949106355605 166.05395503737964,263.8396281460591 166.01798501214944,261.22494581498904 164.43530391319655,260.2549786111922 162.67277268925682,260.55018627326353 160.19084096560255,259.70673522440484 155.910407993244,262.23708296506084 153.86011656932533,260.7610487539205 152.6371357201133,260.718876266852 150.58684429642744,262.82749510431313 149.36386344698258,262.1527383016655 148.89625312224962,262.7431505670247 148.82431307225488,254.8990298359422 148.17685262253508,254.26643266298925 150.47893422143534,251.82038072269643 149.6516236467287,251.94690102231107 149.36386344698258,251.35647261046688 150.19117402168922,250.97691102215322 149.93938384670764,249.45866101971478 151.16236469591968,246.63301352408598 150.73072439595126,246.1690993157099 151.27027477091178,245.74735865325783 152.02564529539086,239.25249555060873 152.6371357201133,239.25249555060873 152.6371357201133,238.0294249576691 153.64429641957395,236.8063505750033 152.99683596985415,234.65541746804956" stroke="#4dd2ff" stroke-linecap="round" stroke-linejoin="round" stroke-width="0.5"><title>2023-07-13 4.2km</title><desc>1689241498000</desc></polyline></svg>