<?xml version="1.0" encoding="utf-8" ?>
<svg baseProfile="full" height="300mm" version="1.1" viewBox="0,0,200,300" width="200mm" xmlns="http://www.w3.org/2000/svg" xmlns:ev="http://www.w3.org/2001/xml-events" xmlns:xlink="http://www.w3.org/1999/xlink"><defs /><rect fill="#222222" height="300" width="200" x="0" y="0" /><text fill="#FFFFFF" style="font-size:12px; font-family:Arial; font-weight:bold;" x="10" y="20">Over 2km Runs</text><text fill="#FFFFFF" style="font-size:4px; font-family:Arial" x="10" y="280">ATHLETE</text><text fill="#FFFFFF" style="font-size:9px; font-family:Arial" x="10" y="290">JiuGoe</text><text fill="#FFFFFF" style="font-size:4px; font-family:Arial" x="120" y="280">STATISTICS</text><text fill="#FFFFFF" style="font-size:3px; font-family:Arial" x="120" y="285">Number: 10</text><text fill="#FFFFFF" style="font-size:3px; font-family:Arial" x="120" y="290">Weekly: 2.0</text><text fill="#FFFFFF" style="font-size:3px; font-family:Arial" x="141" y="285">Total: 28.5 km</text><text fill="#FFFFFF" style="font-size:3px; font-family:Arial" x="141" y="290">Avg: 2.8 km</text><text fill="#FFFFFF" style="font-size:3px; font-family:Arial" x="167" y="285">Min: 2.1 km</text><text fill="#FFFFFF" style="font-size:3px; font-family:Arial" x="167" y="290">Max: 3.8 km</text><polyline fill="none" points="42.7739744912833,77.11904814455193 41.960275306832045,74.95215668645687 41.36849408224225,73.21863936260343 40.332876939326525,70.7050326790195 39.66712306113914,68.71147702587768 38.92739653075114,67.15129962749779 38.335615306161344,65.07105843984755 38.039724693633616,64.55099731165683 37.965752040967345,64.03093585075112 37.15205285651609,61.51730076695094 36.70821693819016,60.47717363201082 35.74657244840637,57.96352756291162 35.89451775420457,57.18342892715009 35.74657244840637,56.66336275404319 35.228763876482844,55.796585060073994 35.00684591755271,55.18984012439614 34.858900611288846,54.2363828822854 34.48903734609485,53.80299285706133 33.675338162109256,51.289326156605966 33.08355693751946,49.12236586760264 32.491775712929666,48.168901510711294 32.417803059797734,47.64882957242662 31.752049182076007,45.56853849196341 31.45615856954828,45.13514384703012 31.012322651222348,43.48824208928272 30.27259612036869,42.18805413512746 30.27259612036869,41.58129904506495 29.82876020204276,40.97454350203043 29.606842242646962,39.32763331732713 29.310951630119234,38.98091495857807 30.050678161438555,37.940758995653596 29.384924283716828,35.860443077923264 29.015061018057168,35.42704325821251 27.979443875141442,33.086680240987334 27.239717344287783,33.0 26.943826731760055,33.260040695546195 25.53834632318467,33.52008130814647 24.058893261943012,34.38688274897868 24.280811220873147,34.820283122884575 23.689029996283352,35.25368326593889 23.17122142529115,35.167003255628515 22.875330812763423,36.293842666142154 22.579440200235695,36.81392186740413 22.949303465895355,36.293842666142154 22.579440200235695,36.72724202374229 23.467112037353218,37.42068051506067 24.576701833400875,36.55388230847893 25.390401017386466,36.900601701869164 25.98218224197626,36.900601701869164 26.27807285450399,37.24732094758656 26.426018160302192,38.46083714358974 27.313689997419715,40.627825845440384 28.053416528273374,42.44809189229272 28.941088364925236,43.6616003261297 30.050678161438555,45.91525404172717 30.346568773966283,46.52200589777203 30.198623467236757,47.21543603623286 31.234240610618144,49.20904438995058 32.047939794603735,51.549361003155354 33.00958428438753,54.06302689999575 33.74931081524119,56.57668502628803 34.56300999922678,59.00365791306831 35.00684591755271,61.083914622315206 35.89451775420457,62.90413487754995 35.9684904073365,63.597551045706496 36.782189591322094,64.89770476758713 37.66986142843962,67.15129962749779 37.66986142843962,67.67135909292847 37.965752040967345,68.10474172671093 38.85342387761921,70.7050326790195 38.92739653075114,71.39844219532097 39.593150408472866,72.61190742620965 40.25890428619459,75.1255082153366 41.07260346971452,76.85902147437446 41.516439388506114,78.15915399353253 41.886302654165775,79.19925851217704 42.03424795996398,80.58606246800628 42.99589245021343,83.09963860944845 43.2917830622755,83.87971238401951 44.77123612398282,85.61320698191412 45.36301734857261,85.61320698191412 46.398634491954,84.65978541062213 46.99041571607813,84.5731106668245 47.434251634869725,84.9198095863685 47.95206020632759,85.09315899061039 48.83973204344511,84.9198095863685 50.83699367614463,85.09315899061039 51.872610819060355,85.00648429302964 52.68631000351161,85.43985768849961 54.239735717885196,85.09315899061039 54.75754428980872,85.17983367899433 55.12740755500272,85.52653233992169 53.8698724526912,86.47995289537357 53.13014592183754,86.56662743579363 51.72466551326215,86.21992921817582 52.31644673785195,85.95990545826498 52.83425530977547,85.43985768849961 52.83425530977547,86.04658005404053 52.39041939098388,85.69988161500078 52.02055612578988,85.8732308530598 52.39041939098388,86.6533019670751 52.02055612578988,85.8732308530598 53.352063881233335,86.73997648915974 53.20411857496947,86.21992921817582 53.8698724526912,85.69988161500078 52.09452877892181,86.21992921817582 52.39041939098388,86.30660378659377 52.39041939098388,85.69988161500078 52.83425530977547,86.73997648915974 52.09452877892181,86.3932783457567 52.68631000351161,86.6533019670751 51.65069286013022,86.13325464091031 51.872610819060355,85.52653233992169 52.31644673785195,86.04658005404053 51.872610819060355,86.04658005404053 52.31644673785195,86.30660378659377 51.94658347265795,85.8732308530598 52.24247408518568,86.30660378659377 52.02055612578988,85.95990545826498 52.31644673785195,87.0 51.94658347265795,85.8732308530598 51.94658347265795,84.65978541062213 51.72466551326215,85.26650835818145 52.24247408518568,86.30660378659377 51.65069286013022,86.73997648915974 51.72466551326215,85.69988161500078 52.02055612578988,86.3932783457567 51.72466551326215,86.04658005404053 51.72466551326215,86.3932783457567 52.09452877892181,86.13325464091031 51.72466551326215,86.30660378659377 51.65069286013022,85.8732308530598 53.13014592183754,86.13325464091031 52.538364697247744,86.21992921817582 52.02055612578988,86.13325464091031 52.46439204411581,86.30660378659377 52.09452877892181,85.95990545826498 52.24247408518568,86.3932783457567 52.09452877892181,85.95990545826498 52.612337350379676,86.3932783457567 52.612337350379676,85.95990545826498 52.31644673785195,86.6533019670751 52.31644673785195,85.78655623877421 52.538364697247744,85.43985768849961 54.165763064753264,84.13973680953495 55.20138020813465,83.01296369958436 54.609598983544856,82.31956408650149 55.12740755500272,82.14621409092797 55.349325514398515,83.53301302122418 54.83151694247499,84.3130863799015 55.12740755500272,83.70636272104457 55.57124347332865,81.53948881541146 55.12740755500272,81.36613865371328 55.57124347332865,81.45281373913167 54.979462249204516,81.19278845487861 55.27535286080092,79.54595972306561 55.27535286080092,80.3260369062773 55.793161432724446,79.11258318647742 54.979462249204516,80.75941279594554 55.94110673898831,79.37260913598584 56.089052045252174,78.76588179107057 55.57124347332865,79.28593382856343 55.49727082019672,78.76588179107057 55.12740755500272,78.41918024793267 54.31370837101713,79.37260913598584 54.979462249204516,79.0259078516392 55.349325514398515,78.67920641909586 55.793161432724446,78.50585564767243 55.20138020813465,79.19925851217704 55.05343490187079,78.59253103798255 54.979462249204516,79.45928443409503 54.239735717885196,79.89266078546643 54.979462249204516,78.93923250731314 54.979462249204516,78.50585564767243 54.535626330412924,79.63263500254834 55.05343490187079,78.0724785568309 54.83151694247499,78.93923250731314 54.239735717885196,80.0660112616606 55.20138020813465,78.93923250731314 55.57124347332865,79.37260913598584 55.793161432724446,78.93923250731314 55.349325514398515,78.85255715390667 55.05343490187079,78.59253103798255 55.49727082019672,78.41918024793267 55.20138020813465,79.0259078516392 55.64521612646058,78.76588179107057 56.68083326984197,80.58606246800628 55.94110673898831,80.15268648584606 55.05343490187079,79.11258318647742 55.57124347332865,78.85255715390667 55.12740755500272,79.28593382856343 55.64521612646058,79.0259078516392 55.27535286080092,78.85255715390667 55.719188779592514,79.11258318647742 55.349325514398515,78.93923250731314 55.719188779592514,78.76588179107057 55.49727082019672,79.11258318647742 55.57124347332865,78.67920641909586 55.05343490187079,78.3325048389961 55.12740755500272,78.85255715390667 55.86713408539072,78.76588179107057 55.49727082019672,78.93923250731314 54.609598983544856,79.19925851217704 54.90548959560692,78.85255715390667 53.5000091874972,79.97933602845296 53.2780912281014,80.3260369062773 52.09452877892181,81.53948881541146 51.72466551326215,82.57958901085658 51.65069286013022,83.44633815716952 51.13288428867236,82.92628878034884 51.428774901200086,81.97286405833438 50.984938982874155,82.49291404517135 51.65069286013022,82.49291404517135 51.28082959493622,82.83961385162547 51.28082959493622,82.14621409092797 50.984938982874155,82.40623907058034 51.28082959493622,82.92628878034884 51.72466551326215,82.83961385162547 51.20685694180429,82.83961385162547 51.872610819060355,82.23288909345865 51.50274755386636,83.18631351034855 51.50274755386636,82.40623907058034 51.354802248068154,82.75293891382171 52.168501432053745,82.0595390793751 53.352063881233335,81.01943821884925 51.50274755386636,82.75293891382171 51.872610819060355,82.92628878034884 51.428774901200086,82.92628878034884 51.872610819060355,83.96638720179908 51.57672020746395,83.18631351034855 52.168501432053745,84.05306201038184 52.908227962907404,81.01943821884925 54.01781775895506,79.19925851217704 54.75754428980872,78.76588179107057 55.05343490187079,79.19925851217704 55.64521612646058,78.41918024793267 55.20138020813465,79.28593382856343 55.86713408539072,81.19278845487861 55.94110673898831,80.67273763654521 56.45891531044617,81.01943821884925 55.94110673898831,81.97286405833438 56.45891531044617,81.97286405833438 56.68083326984197,80.0660112616606 57.42055980022997,79.89266078546643 54.165763064753264,81.19278845487861 53.795899799559265,81.62616388261085 54.31370837101713,81.10611334146233 53.94384510582313,81.36613865371328 54.46165367728099,80.84608794603264 54.535626330412924,81.62616388261085 53.8698724526912,81.36613865371328 54.09179041208699,81.79951398906996 54.46165367728099,81.10611334146233 53.8698724526912,81.36613865371328 54.38768102414906,81.10611334146233 54.239735717885196,82.66626396693755 53.5000091874972,84.48643591365544 52.68631000351161,85.43985768849961 51.872610819060355,85.78655623877421 51.94658347265795,84.74646014504833 51.354802248068154,81.62616388261085 53.20411857496947,81.36613865371328 53.6479544932954,80.93276308715576 54.01781775895506,81.19278845487861" stroke="#4dd2ff" stroke-linecap="round" stroke-linejoin="round" stroke-width="0.5"><title>2023-12-30 3.8km</title><desc>9223370332924685707</desc></polyline><polyline fill="none" points="93.40526139596477,33.0 92.67251266166568,34.80957633146318 91.85834740195423,35.76198346383171 90.39284993475303,36.047705407079775 89.74151772679761,35.95246476930333 89.25301857106388,36.14294603432063 88.52026983723044,38.04775646526832 87.78752110339701,38.42871806694893 87.706104577519,38.9049198423163 86.24060710985214,39.57160190423019 85.42644184967503,40.23828347149538 84.61227659042925,40.33352365496103 84.36802701232955,40.809724421589635 83.79811133025214,41.28592493571341 83.06536259641871,41.38116500823526 82.9839460705407,42.80976488610031 81.92553123272955,44.90504060056992 81.84411470685154,45.95267662673723 81.19278249936178,47.00031143199885 80.37861723918468,47.857466273824684 78.75028671976179,48.33366305503296 78.2617875635624,48.80985958420206 76.8777066222392,49.38129508588463 76.22637441428378,50.52416499995161 76.06354136252776,52.33370605966775 76.3892074660398,53.000378163473215 75.98212483664975,53.85752728494117 75.90070831077173,54.428959578683134 75.65645873220637,55.00039150897646 75.33079262869433,54.714675588940736 76.06354136252776,54.428959578683134 77.04053967446089,53.667049773037434 77.77328840782866,53.76228853408247 78.75028671976179,54.238482187793124 78.58745366800576,54.905152879306115 78.66887019388378,55.66706163570052 79.32020240137354,56.42896974622272 81.84411470685154,55.85753872373607 82.49544691480696,55.57182307634503 83.06536259641871,55.66706163570052 83.79811133025214,55.19086873845663 84.20519396010786,55.28610733797541 84.69369311630726,55.66706163570052 85.18219227157533,55.57182307634503 85.7521079541184,55.66706163570052 88.03177068103105,55.381345927598886 89.98576730443165,55.47658450715244 91.45126477209851,55.00039150897646 93.8937605516985,54.714675588940736 94.46367623377591,55.095630128867924 94.95217538904399,54.714675588940736 97.31325464276597,54.33372088818578 98.77875211043283,54.048004756332375 99.10441821394488,53.667049773037434 100.08141652587801,53.952766025904566 103.17524451296777,53.667049773037434 105.53632376622409,53.667049773037434 106.02482292242348,53.85752728494117 107.08323776023462,53.47657222073758 108.1416525975801,53.667049773037434 110.0956492209807,53.47657222073758 110.42131532495841,53.952766025904566 110.58414837671444,56.42896974622272 110.50273185083643,57.76230738637969 110.58414837671444,58.80992843070999 110.3398987990804,59.190881235175766 110.99123100703582,61.762308442848735 111.47973016276956,63.476589162193704 111.56114668911323,64.04801534250146 111.88681279262528,64.90515393140959 111.80539626674727,65.47657920379424 112.0496458443813,66.04800411290489 112.21247889660299,68.61941170936916 111.96822931850329,69.19083462108392 112.21247889660299,70.33367935480783 113.18947720853612,72.23841734975576 113.35231026029214,74.42886105552316 113.35231026029214,75.85740842355881 114.08505899412557,78.71449635049794 114.2478920458816,79.76209298265167 114.08505899412557,80.14303690963425 114.41072509810328,80.61921659146901 114.00364246824756,81.09539602149744 111.47973016276956,81.95251835940871 108.71156827965751,82.71440419642022 105.6177402921021,83.38105377409374 102.76816188311204,84.04770285752602 102.11682967515662,84.04770285752602 101.30266441544518,85.00005783361848 98.45308600645512,85.47623494343134 95.6035075969994,86.14288247347577 92.99817876610905,86.52382369735278 91.85834740195423,86.80952950945357 91.12559866858646,86.80952950945357 90.63709951238707,87.0 93.73092749994248,86.42858840653207 96.82475548656657,85.85717644979013 99.99999999953434,85.19052870792802 101.22124788956717,84.90482238156255 102.1982462015003,84.04770285752602 105.12924113683403,83.57152499112999 108.30448564980179,82.90487555478467 109.44431701349095,82.52393279760145 110.42131532495841,82.52393279760145 113.10806068219244,81.57157519907923 114.98064077971503,80.71445249777753 117.91163571504876,79.95256496616639 119.86563233844936,79.47638493106933 120.19129844242707,79.19067678920692 119.94704886432737,77.47642603004351 120.27271496830508,77.09548097330844 121.33112980658188,76.90500838437583 123.28512642951682,76.04788123443723 123.61079253349453,75.76217200286919 124.42495779320598,75.38122621987714 124.66920737130567,74.61933416931424 124.66920737130567,73.85744147282094 124.42495779320598,73.38125820999267 123.85504211159423,73.00031141773798 123.44795948173851,71.85747007350437 123.36654295539483,71.00033811206231 123.04087685141712,70.33367935480783 122.6337942215614,68.42893732473021 121.81962896184996,67.09561550285434 121.08688022801653,66.42895385052543 120.02846539020538,66.42895385052543 118.88863402651623,65.00039150216617 119.2143001309596,63.381351430434734 119.13288360461593,62.90516261890298 117.99305224092677,62.238497859449126" stroke="#4dd2ff" stroke-linecap="round" stroke-linejoin="round" stroke-width="0.5"><title>2023-12-25 2.1km</title><desc>9223370333374765407</desc></polyline><polyline fill="none" points="175.86172650847584,46.8502703893173 175.20168067212217,46.029893783066655 174.417876241263,45.74034874577774 174.0466004582122,46.07815127138747 173.5515660806559,46.271181173447985 173.34530175686814,46.31943863630295 173.01527883834206,46.89852779073408 172.68525592028163,47.13981472112937 172.23147440771572,47.38110152367153 172.02521008392796,47.6706455181411 171.4889228416141,47.911932039569365 171.2001527880784,48.39450469907024 170.7463712755125,48.44276193671976 170.41634835721925,48.87707684718771 170.16883116867393,48.92533403390553 169.8388082506135,49.359648484154604 169.42627960257232,49.6974483258673 169.09625668427907,50.0835049811576 168.72498090122826,50.27653318611556 168.6012223069556,50.46956130929175 168.35370511817746,50.614332347904565 168.43621084769256,51.72424211585894 168.394957982935,52.01378334983019 168.18869365914725,52.303324399515986 167.81741787609644,52.59286526538199 167.44614209304564,52.68937884646584 166.12605041987263,53.36497334114392 165.91978609608486,53.654513532237615 165.3422459892463,53.944053539278684 165.17723452998325,54.667902751563815 165.63101604254916,55.87431554970681 165.50725744804367,56.501648942095926 165.38349885400385,56.694674427388236 165.50725744804367,57.27375039277831 165.17723452998325,57.51503182790475 164.88846447668038,57.37026298214914 164.5584415581543,57.32200669005397 164.31092436960898,57.41851926909294 164.1046600455884,57.37026298214914 163.85714285704307,57.51503182790475 163.23834988521412,57.56328809951083 162.16577540081926,57.804569381143665 161.83575248275883,57.804569381143665 161.62948815873824,57.70805688385735 161.1757066459395,57.65980062755989 160.3506493505556,58.1423629609053 160.02062643226236,57.997594314510934 158.70053475908935,58.1423629609053 158.32925897603855,58.09410675053368 157.00916730309837,58.2871315611992 156.7203972497955,58.2871315611992 156.18411000748165,58.38364393572556 155.8540870891884,58.38364393572556 154.94652406382374,58.81794936876395 153.8739495796617,59.01097387258778 153.54392666136846,59.155742197006475 153.2139037430752,59.10748609399889 151.85255920537747,59.493534774694126 151.39877769281156,59.348766557726776 150.82123758574016,59.44527870757156 150.28495034365915,59.348766557726776 149.5836516423151,59.638302945619216 149.00611153547652,59.541790836898144 148.79984721145593,59.73481503405492 148.30481283389963,59.83132710203063 146.69595110765658,59.83132710203063 146.44843391887844,59.83132710203063 146.15966386534274,59.87958312834962 145.78838808229193,59.78307107067667 144.8808250571601,60.02435117660207 144.63330786838196,59.97609516553348 144.46829640911892,59.83132710203063 143.93200916727073,59.927839149488136 143.43697478971444,60.072607182577485 142.57066462910734,60.21737516942085 142.19938884628937,60.169119178841356 140.8380443083588,60.36214311028016 139.31168831139803,60.410399080457864 138.94041252858005,60.50691100527183 138.4866310157813,60.50691100527183 137.78533231443726,60.69993479351979 136.83651642454788,60.6034229095676 136.54774637101218,60.651678854075726 136.21772345295176,60.50691100527183 135.10389610379934,60.651678854075726 134.23758594319224,60.941214413847774 134.07257448416203,61.18249390658457 133.41252864780836,61.423773271380924 133.0,61.66505250838236 133.1650114590302,62.19586638009059 133.45378151233308,62.63016817867174 133.45378151233308,63.064469563250896 133.78380443085916,63.78830428418587 134.11382734891959,64.36737123283092 134.23758594319224,64.65690443120548 134.9388846445363,65.42899206047878 135.76394194015302,65.47724749380723 137.2077922075987,65.38073662188253 137.62032085540704,65.71852458399371 137.8678380441852,65.47724749380723 138.6103896102868,65.57375834535924 139.06417112261988,65.52550292215892 139.43544690590352,65.38073662188253 140.46676852554083,65.52550292215892 140.9618029028643,66.4423550881329 141.3330786859151,68.0347781489836 141.37433155067265,69.57894064998254 141.37433155067265,70.83356882835506 141.2093200914096,71.36437201756053 140.54927425505593,71.84691983470111 140.46676852554083,72.08819355175365 140.46676852554083,73.19805100379745 140.9618029028643,73.63234231434762 141.4980901449453,73.72885143809253 142.90068754763342,73.68059687878122 143.1894576009363,73.82536054169759 143.47822765470482,73.82536054169759 144.17952635581605,73.82536054169759 144.798319327645,73.82536054169759 145.41711229924113,73.82536054169759 146.98472116095945,73.8736150857003 148.05729564535432,73.8736150857003 148.717341481708,73.7771059924562 149.3773873182945,74.0666332107503 150.2436974789016,73.9701241585135 150.57372039719485,74.0666332107503 151.11000763927586,73.9701241585135 151.44003055756912,74.16314224278904 151.89381207013503,74.21139675099403 152.22383498842828,74.21139675099403 153.54392666136846,74.25965125425137 154.12146676843986,74.25965125425137 154.36898395698518,74.21139675099403 156.1428571427241,74.16314224278904 157.05042016785592,74.16314224278904 157.33919022139162,74.16314224278904 158.90679908310995,74.11488772931625 160.47440794482827,74.0666332107503 160.96944232215174,74.0666332107503 161.6707410234958,74.01837868720759 163.11459129094146,73.92186962472624 163.3621084797196,73.92186962472624 164.22841864009388,73.82536054169759 165.17723452998325,73.72885143809253 166.62108479742892,73.63234231434762 168.0649350648746,73.43932400504127 169.55003819684498,73.24630561424419 170.9526355995331,73.1015417673625 171.73644003039226,73.00503251081682 172.02521008392796,73.00503251081682 173.3040488921106,72.76375927918707 174.62414056505077,72.52248592016986 174.91291061858647,72.4742312329472 175.1604278073646,72.42597654063138 175.4491978609003,72.3777218433097 176.7692895338405,72.08819355175365 177.0168067223858,72.03993881848874 178.04812834202312,71.75041031223373 179.4919786094688,71.31611720769433 179.7394957980141,71.26786239279318 180.31703590531833,71.12309791738517 181.59587471350096,70.83356882835506 182.58594346791506,70.59229444694938 183.82352941157296,70.10974530110252 184.73109243670478,69.72370561608113 184.1948051948566,68.32430901666521 183.90603514108807,66.78014226310188 183.7822765468154,65.47724749380723 183.65851795230992,64.12609342689393 183.57601222302765,63.88481549327844 183.45225362852216,62.678423908597324 183.53475935803726,62.19586638009059 184.40106951864436,62.05109902191907 185.1848739492707,62.244122155883815 185.4736440028064,61.76156416739104 185.84491978562437,61.568540828855475 186.09243697463535,61.520284981495934 186.2987012984231,61.423773271380924 186.25744843366556,60.941214413847774 186.54621848720126,60.98947032255819 187.0,60.84470258120564" stroke="#4dd2ff" stroke-linecap="round" stroke-linejoin="round" stroke-width="0.5"><title>2023-12-13 3.0km</title><desc>9223370334411793607</desc></polyline><polyline fill="none" points="23.610701107187197,105.08224014326697 23.21217712201178,105.37361046450678 22.215867158956826,106.48081627831561 21.418819188373163,106.77218585886294 21.3191881920211,107.00528141227551 20.2730627306737,107.58801986358594 20.223247232846916,107.99593641213141 19.32656826591119,109.10313694755314 18.4298892992083,109.21968424273655 18.130996309919283,109.80242034822004 17.732472324743867,109.80242034822004 17.383763837860897,109.97724105941597 17.084870849037543,110.8513437822694 17.13468634732999,112.54127177456394 16.835793358040974,113.24055080447579 16.18819188210182,113.70673633069964 14.843173431931064,114.17292146163527 14.394833948696032,114.17292146163527 13.797047970583662,114.63910619769013 13.298892989056185,115.51320151268737 13.099630996584892,116.15420386107871 13.0,115.80456630908884 13.0,116.67865977238398 13.149446494877338,117.08656957995845 13.59778597811237,117.31966076273238 13.398523985408247,117.6692973516765 13.398523985408247,117.96066100621829 13.298892989056185,118.71820578549523 13.498154981760308,119.24265925219515 13.896678966935724,119.41747696348466 15.042435424402356,119.30093182885321 15.690036900574341,119.00956888432847 17.533210332505405,119.00956888432847 19.1273062734399,118.77647841756698 20.920664206845686,118.77647841756698 21.518450184725225,118.77647841756698 22.16605166066438,118.48511519527528 23.311808118363842,118.42684253223706 23.90959409624338,118.135479124845 25.005535055417567,118.01893371861661 25.304428044473752,118.07720642461209 25.603321033529937,118.01893371861661 26.0516605169978,118.07720642461209 27.09778597787954,117.7275700949831 27.44649446522817,117.78584283211967 28.094095940934494,117.6692973516765 28.39298892999068,117.43620631715748 28.84132841345854,117.55275184678612 29.488929889397696,117.37793354311725 31.381918819388375,117.26138797641033 31.730627306504175,117.20311518386006 32.47785977879539,117.49447908508591 32.72693726979196,117.37793354311725 33.0756457564421,117.43620631715748 33.3247232476715,117.31966076273238 33.77306273090653,117.49447908508591 33.972324723377824,117.7275700949831 34.27121771243401,119.06784148549195 34.420664206845686,119.41747696348466 34.37084870855324,120.23329221457243 34.669741697609425,120.93256146664498 34.71955719590187,122.38936955382815 34.96863468666561,122.6807307083509 34.91881918837316,123.03036389005138 35.367158671841025,124.48716642183717 35.267527675488964,126.23532436788082 35.41697416990064,127.98347675887635 35.267527675488964,128.39137818402378 35.5166051662527,129.20718012721045 35.56642066454515,130.1395237237448 35.76568265701644,130.8387803841615 36.01476014801301,131.1301370637957 35.91512915142812,132.4121046208893 36.36346863489598,134.16023738437798 35.66605166066438,134.56813423003769 35.41697416990064,134.91775985679124 36.16420664219186,134.21850838081446 36.662361623719335,134.50986327050487 37.011070110835135,134.56813423003769 37.50922509236261,134.742947071034 37.85793357947841,134.56813423003769 38.20664206659421,134.50986327050487 39.05350553523749,134.56813423003769 39.3025830257684,134.39332133316202 39.701107010943815,134.39332133316202 40.59778597787954,134.27677937108092 41.29520295234397,133.8688823094708 41.64391143945977,133.5775270801969 42.39114391175099,133.16962950030575 43.586715867277235,133.11135839275084 44.68265682668425,132.87827390083112 45.03136531380005,132.5869181471644 45.7785977863241,132.47037580236793 45.828413284383714,132.23729103902588 46.37638376397081,131.71284996002214 46.774907749379054,131.77112121577375 48.070110701490194,131.188408381131 48.36900369031355,131.24667969252914 49.31549815530889,130.8970517325215 49.76383763877675,130.54742355033522 50.11254612565972,130.48915216512978 51.557195572182536,129.78989506018115 52.154981550062075,129.20718012721045 52.60332103329711,129.20718012721045 53.798892989289016,128.56619298795704 54.34686346887611,128.3331065705279 54.59594095987268,128.1000200539711 55.39298892999068,127.86693343892694 55.691881919046864,127.69211841281503 55.5922509226948,127.34248819370987 55.89114391175099,127.28421646915376 55.99077490810305,126.99285775265889 55.34317343193106,125.82742134400178 55.34317343193106,125.47778993996326 56.53874538769014,125.71087756752968 56.987084871158004,125.3612460893346 57.435424354393035,125.30297415464884 58.78044280479662,124.60371045779902 60.025830258382484,124.83679845556617 61.47047970513813,124.13753416604595 62.616236162604764,123.37999684957322 62.81549815530889,123.03036389005138 63.313653136603534,122.6807307083509 63.562730627600104,122.44764179718914 64.8081180814188,122.0980082451133 65.60516605176963,121.80664678197354 65.90405904082581,121.45701282244409 66.202952029882,121.45701282244409 66.80073800776154,120.99083386413986 67.0,120.40810961072566 66.90036900388077,120.05847476253984 66.60147601505741,119.70883969194256 66.15313653158955,119.06784148549195 65.75461254641414,118.5433878522017 65.65498155006208,118.3102971878252 65.20664206659421,118.19375181867508 63.413284132955596,118.71820578549523 62.66605166089721,118.65993314725347 60.57380073843524,119.00956888432847 59.328413284150884,118.95129627699498 58.83025830285624,119.12611408066005 57.5350553507451,119.30093182885321 56.43911439133808,119.88365725509357 56.040590406162664,120.23329221457243 55.34317343193106,120.23329221457243 54.99446494481526,120.52465451095486 54.047970479819924,120.99083386413986 53.84870848734863,121.34046811994631 53.201107011409476,121.51528516446706 52.60332103329711,121.51528516446706 50.959409594303,122.15628051909152 50.46125461277552,122.44764179718914 50.11254612565972,122.33109730429715 48.518450184958056,122.97209170850692 47.821033210493624,122.73900292062899 47.37269372702576,122.73900292062899" stroke="#4dd2ff" stroke-linecap="round" stroke-linejoin="round" stroke-width="0.5"><title>2023-12-12 2.4km</title><desc>9223370334498230007</desc></polyline><polyline fill="none" points="88.52650707471184,147.0 88.5592417193111,146.80866056878585 88.91932280967012,146.7321247679647 89.27940390002914,146.61732103634859 89.6067503457889,146.54078519516042 90.26144323742483,146.34944552119123 90.42511646042112,146.42598140300834 91.70176759897731,146.0433018328331 92.22552191221621,145.89022989134537 92.71654158097226,145.8136938965181 93.92772343032993,145.31620953511447 94.5496816773666,145.08660113776568 95.79359817132354,144.8187244902656 96.08820997260045,144.8187244902656 96.74290286423638,144.62738390630693 97.07024931022897,144.39777507225517 97.23392253299244,144.05336154816905 97.26665717770811,143.44107002962846 96.77563750895206,142.13994711523992 96.18641390639823,140.8005509962386 95.62992494856007,139.5376872603083 95.10617063532118,137.96866860429873 95.23710921348538,137.5477112227818 95.4662517256802,137.43290457926923 95.59719030396082,137.05021550448146 95.26984385820106,136.4761811340286 95.17163992440328,136.09349104814464 94.87702812324278,135.55772424844326 94.778824189445,135.1367640638491 94.58241632208228,134.7923417306447 94.4842123882845,134.44791906973114 94.05866200872697,133.68253420604742 93.56764233997092,132.2665679428319 93.30576518340968,131.65425649218378 92.74927622557152,130.12347333543585 92.22552191221621,128.93711193735362 91.96364475553855,128.32479485610384 91.66903295437805,127.4063172925089 91.01434006285854,126.10513675559196 90.71972826158162,125.68416558069293 90.49058574950323,125.18665356110432 90.09777001442853,124.15335718201823 89.90136214706581,123.7323837376025 89.70495427958667,122.8904353803955 89.50854641222395,122.46946046751691 89.34487318922766,121.43615633333684 89.18119996634778,121.01517972943839 88.69018029747531,120.09668362190132 88.42830314091407,119.71397622258519 88.16642598435283,118.87201852025464 87.90454882779159,118.52758071391145 87.70814096031245,118.03005885964376 87.577202381799,116.92019995179726 87.5117330927169,116.15477803276735 87.24985593615565,115.1979983583442 86.7588362673996,113.7819597996131 86.49695911083836,112.74863086914411 86.16961266484577,111.86838537963922 85.87500086380169,111.44739764992846 85.64585835172329,110.64369244268164 85.58038906252477,110.18443152299733 85.08936939388514,108.95973288902314 84.76202294800896,107.84984617304872 84.50014579144772,107.27576550192316 84.33647256845143,106.6251396407315 84.10733005648945,106.24241799971787 83.84545289969537,104.82634440957918 83.48537180933636,103.67817256707349 83.22349465277512,102.37690674306941 83.12529071909375,102.0707258694456 82.9288828514982,101.61145407319418 82.79794427321758,101.03736350868712 82.5688017612556,100.50154482683865 82.40512853837572,99.8509067898849 82.17598602618091,99.27681343309814 82.0450474480167,98.7792651206837 82.17598602618091,98.28171612444567 82.50333247194067,97.8989856619155 82.79794427321758,97.82243952085264 83.05982143001165,97.47798168574809 83.387167875655,97.32488920932519 83.68177967693191,97.01870406241505 84.59834972512908,96.55942585624871 85.1221040384844,96.06187380867777 85.67859299632255,95.94705400828389 86.95524413487874,95.29640778471367 87.577202381799,95.14331438564113 88.69018029747531,94.5309401419072 89.54128105659038,93.99511182881542 90.62152432790026,93.6506503514247 91.3416865086183,93.45928272244055 92.58560300269164,93.4210091845016 93.1420919605298,93.3444620964874 93.96045807504561,93.3444620964874 94.68062025564723,93.15309430545312 95.92453674983699,93.0 96.48102570767514,93.11482073517982 97.75767684623133,93.07654716086108 98.93612405110616,93.15309430545312 99.52534765342716,93.07654716086108 100.60559092473704,93.3444620964874 101.65309955121484,93.45928272244055 102.86428140057251,93.53582978621125 104.07546325016301,93.61237683377112 105.31937974411994,93.80374438181752 106.75970410578884,93.84201787927304 107.47986628639046,93.80374438181752 108.69104813586455,93.99511182881542 109.3130063827848,93.95683834748343 109.83676069625653,94.03338530601468 110.81880003353581,94.30129953339929 111.4407582806889,94.41611985579948 111.86630866013002,94.7223072044726 112.39006297336891,95.75568759333692 112.71740941924509,96.21496681924327 113.20842908800114,97.36316233445541 113.8303873349214,98.51135420767241 114.19046842528041,98.81753809211659 114.45234558184166,99.27681343309814 114.81242667220067,100.31018081970979 115.20524240727536,101.07563624123577 115.3361809856724,101.49663603317458 115.4016502747545,102.0707258694456 115.6307927868329,102.37690674306941 115.76173136511352,102.79790502155083 116.38368961226661,103.94607965601608 116.94017856998835,105.13252295256825 117.10385179286823,106.20414581341902 117.39846359414514,106.85477243119385 117.7258100399049,108.15602215877152 117.95495255186688,108.57701371613075 117.95495255186688,109.03627667494584" stroke="#4dd2ff" stroke-linecap="round" stroke-linejoin="round" stroke-width="0.5"><title>2023-12-08 3.1km</title><desc>9223370334822430907</desc></polyline><polyline fill="none" points="156.26963328343118,93.0 156.1516770235612,93.12074886698247 155.98211490007816,93.34499628751655 155.8199250428588,93.54336849060928 155.74620238045463,93.6209922645503 155.569267990737,93.724490514629 155.32598320484976,93.91423696462152 155.09744295146083,94.06948373102932 154.8836472305702,94.23335499652603 154.64036244471208,94.39722593209444 154.40444992505945,94.56972129727365 154.14642060673214,94.73359155554499 153.9768584832782,94.83708839078463 153.9473694182816,94.86296257901995 153.9105080871086,94.91471093083965 153.71145689865807,95.04408166641952 153.46079984653625,95.1993262777105 153.20277052820893,95.36319526834995 152.9373689436179,95.52706392907567 152.6645950927923,95.69955689972267 152.50240523557295,95.82030176166154 152.3623321769992,95.95829567024339 152.11167512490647,96.12216313284443 151.88313487151754,96.29465484231332 151.6840836831252,96.47577074384753 151.61773328695563,96.51889351814316 151.34495943613,96.562016269585 151.0574410528061,96.67413531642524 150.7699226695113,96.78625420881144 150.48240428621648,96.89837294677272 150.20225816915627,96.97599352106772 149.95897338332725,97.07948750494688 149.84101712345728,97.11398547032877 149.87787845471757,97.32959742270032 149.85576165598468,97.3899686670411 149.67145500003244,97.61420432534214 149.487148344022,97.80394170758518 149.28809715560055,98.01955183235259 149.09641823341371,98.2092882697325 148.90473931122688,98.38177555628499 148.8088998501189,98.46801906251494 148.72780492148013,98.51976512236433 148.63196546040126,98.53701380168786 148.56561506423168,98.61463281336182 148.56561506423168,98.69225175104657 148.60984866166837,98.75262198472046 148.7941553176206,98.94235671335628 148.96371744110365,99.14933954930893 149.1332795646158,99.35632185894792 149.31758622053894,99.53743094817764 149.37656435044482,99.58917632821249 149.4724038115819,99.76166069082683 149.64196593506495,99.9858898158418 149.67882726623793,100.06350744598603 149.65671046753414,100.14974917042855 149.52400967522408,100.27911158581264 149.29546942186425,100.43434621293272 149.08904596717912,100.62407702179917 148.87525024623028,100.7965591916145 148.74992172018392,100.89142422922305 148.71306038901093,100.93454466431285 148.69831585651264,101.0466576886829 148.71306038901093,101.1156502422964 148.8236443826172,101.2450111227663 148.99320650610025,101.46923616192362 149.1775131620525,101.66758856642264 149.31021395433345,101.79694856980495 149.4576592790836,102.03842002616875 149.59773233762826,102.27989076630183 149.752549928613,102.50411295509548 149.8336448572809,102.63347162926948 149.86313392219017,102.73695842059533 150.1137909742829,102.73695842059533 150.16539683798328,102.74558231394622 150.18751363671618,102.8059495417474 150.20225816915627,103.00429868935316 150.24649176659295,103.27163808021578 150.27598083158955,103.41824317991268 150.32021442902624,103.4527384591056 150.34233122770092,103.51310516254307 150.34970349393552,103.66833362302714 150.3718202926393,103.73732395489787 150.4455429550435,103.76319531428453 150.65196640972863,103.74594774225989 150.84364533191547,103.79769044731074 150.82890079941717,103.83218556575594 150.7846672020096,103.86668066954735 150.97634612419643,103.81493800835597 151.01320745542762,103.83218556575594 150.98371839046013,103.86668066954735 150.94685705925804,103.82356178753253 150.99846292290022,103.83218556575594 150.94685705925804,103.85805689497647 150.97634612419643,103.82356178753253 151.33021490366082,104.34961058840418 151.28598130622413,104.36685803253204 151.01320745542762,103.8925519878394 150.96160159172723,103.82356178753253 150.99846292290022,103.84943311948882 151.27123677372583,104.34098686499055 151.3375871698663,104.4186003429786 151.3744485010684,104.51346116001514 151.3965652998013,104.53070856943668 151.42605436473968,104.50483745395468 151.0721855853335,103.99603717873106 151.01320745542762,103.84080934309168 150.96897385799093,103.7890666654348 151.00583518916392,103.82356178753253 150.93948479302344,103.82356178753253 150.99846292290022,103.7890666654348 150.98371839046013,103.8925519878394 150.97634612419643,103.81493800835597 151.00583518916392,103.86668066954735 151.0279519878968,103.83218556575594 151.21963091008365,104.67731140190881 151.16802504638326,104.65144033299293 151.1164191827702,104.61694556169095 151.0721855853335,104.56520337729307 151.19014184511616,104.54795597519114 151.3744485010684,104.59107447358838 151.47028796217637,104.86703232264699 151.42605436473968,104.82391397037281 150.99109065666562,103.86668066954735 151.0279519878968,103.81493800835597 151.00583518916392,103.86668066954735 150.99109065666562,103.83218556575594 151.0279519878968,103.87530444323784 151.0205797216331,103.81493800835597 151.0279519878968,103.85805689497647 150.99846292290022,103.83218556575594 151.24174770881655,104.02190845589212 150.99846292290022,103.83218556575594 150.99109065666562,103.78044288262754 151.1016746502719,103.82356178753253 150.96160159172723,103.83218556575594 151.0279519878968,103.86668066954735 151.22700317628914,103.34062874823576 151.13116371521028,103.34925257763825 151.53663835831685,103.09916115433589 151.60298875445733,103.07328958395374 151.6619668843923,102.9353077363121 151.54401062458055,102.73695842059533 151.381820767303,102.48686511634878 151.30072583869332,102.34025833942724 151.27123677372583,102.38337800710724 151.27123677372583,102.45236942790507 151.27860903998953,102.58172818429011 151.30809810489882,102.50411295509548 151.0205797216331,101.80557256272004 150.92474026055424,101.77970058122446 151.0205797216331,101.86594048755069 150.91736799429054,101.77970058122446 170.76350870812894,147.0 170.80774230553652,146.96552315385634 170.94781536405208,146.93966550965706 171.03628255892545,146.9051886380039 171.2279614811123,146.8879501966876 171.28693961104727,146.8534733031629 171.25007827984518,146.8362348508963 171.1542388187372,146.8534733031629 171.43438493579742,146.55179986279109 171.39015133836074,146.51732282710145 171.34591774092405,146.53456134677253 171.28693961104727,146.12945517099433 171.26482281231438,146.08635865087126" stroke="#4dd2ff" stroke-linecap="round" stroke-linejoin="round" stroke-width="0.5"><title>2023-12-07 3.4km</title><desc>9223370334912122537</desc></polyline><polyline fill="none" points="32.93503655807581,207.0 33.54642762511503,206.8808032644156 33.41056294355076,206.60267740051495 33.47849528421648,206.24508670091745 33.58039379538968,206.08615739189554 33.784190817852505,206.00669271187508 34.05592018098105,205.3709746672248 34.531446566456,204.9339178863156 34.667311248136684,204.3379305464332 34.6333450776292,204.09953534524539 34.259717203327455,203.900872561906 33.920055499416776,203.78167484141886 33.614359965897165,203.66247708306764 33.206765921087936,202.90755706682103 32.93503655807581,202.78835903067375 31.91605144611094,202.82809171354165 31.6443220829824,202.70889365216135 31.270694208680652,201.95397171674995 31.03293101582676,201.87450616134447 30.387573778396472,201.75530779690598 29.776182711240835,201.079849682661 29.606351859285496,200.84145241082297 28.927028451347724,200.12625968590146 28.7571975995088,199.88786180788884 28.689265258726664,199.49053167452803 28.043908021063544,198.6958701449912 27.908043339732103,198.41773821192328 27.364584613242187,197.74227408712613 27.092855250113644,197.34494168075616 26.787159716477618,197.0668087459344 25.971971626975574,196.03374175349018 25.156783537589945,195.35827333547059 24.681257152114995,194.7225372424873 24.613324811449274,194.92120488730143 24.57935864094179,195.00067191573908 24.613324811449274,195.0801389273547 24.74918949289713,194.96093840355752 24.715223322622478,194.84173784207087 24.57935864094179,194.68280370085267 23.86606906261295,194.12653367657913 23.798136721830815,193.92786561089451 23.798136721830815,193.3715944669675 23.050880973227322,192.49745243100915 22.26965905423276,191.74250994215254 22.03189586137887,191.26570337693556 21.216707771993242,190.70942828449188 21.08084309042897,190.55049239224172 20.163756489753723,189.7558119208261 20.027891808073036,189.59687562458566 19.993925637798384,189.43793926085345 20.061857978464104,189.27900282980409 19.688230104162358,188.88166145747527 19.65426393377129,188.56378805660643 19.82409478572663,188.24591438632342 20.673249045503326,187.3320260833425 22.982948632445186,184.7890208248864 24.001933744293638,183.7559200131218 25.05488502641674,182.60361190419644 25.428512900834903,182.16652859188616 26.209734819829464,181.41156530714943 27.33061844285112,180.29898506458267 28.383569725207053,179.10693114201422 29.164791644201614,178.47116750077112 29.979979733587243,177.47778465336887 30.2517090968322,177.3188431537128 30.523438459960744,177.35857853491325 30.897066334378906,177.04069536691532 31.23672803817317,176.28572176321177 31.576389742083848,176.00757321028505 32.93503655807581,175.53074663956068 33.376596773043275,175.3718043146073 37.826165094738826,173.66317006657482 38.87911637686193,172.86845381028252 39.96603382949252,172.11347180686425 41.290714474976994,171.1995441899926 42.44556426838972,170.40482271267683 43.63438023207709,169.64983574926737 44.721297684824094,168.89484726567753 45.23079024080653,168.6166932307242 45.23079024080653,168.6166932307242 47.16686195321381,167.424602172483 48.08394855377264,166.8682917150727 49.13689983612858,166.153034199815 50.359681970323436,165.3185653745022 54.129926884081215,162.73567390770768 55.31874284776859,161.94093449242064 56.50755881157238,161.06671919021755 57.45861158252228,160.4309249628277 57.45861158252228,160.39118778787088 57.934137968113646,159.47723160061287 58.17190116085112,158.76195998702315 58.37569818331394,158.56327318560216 58.30776584241539,158.20563667765236 58.036036479403265,157.96721214952413 57.79827328666579,157.8877372732095 57.934137968113646,157.5301001208718 58.443630523979664,157.21220014369464 59.25881861359812,156.89429989692871 59.42864946543705,156.2982362077746 59.56451414723415,156.13928573054727 59.36071712477133,156.099548100814 59.0550215911353,156.02007282854174 58.88519073929638,155.9008598885266 60.34573606622871,153.0 60.27780372533016,153.87423410994234" stroke="#4dd2ff" stroke-linecap="round" stroke-linejoin="round" stroke-width="0.5"><title>2023-12-07 2.1km</title><desc>9223370334931320746</desc></polyline><polyline fill="none" points="110.75542416074313,207.0 110.3631290551275,206.6175779409823 110.16698150173761,206.15867120266194 109.64392135990784,205.7762486980646 109.18624373641796,205.24085685116006 108.27088848873973,204.70546460704645 107.42091575823724,203.25225508661242 107.09400317003019,202.56389166112058 106.24403043976054,202.33443704020465 104.93638008600101,200.34582727018278 104.41331994440407,199.96340168645838 104.08640735596418,199.5044907182455 102.45184441353194,197.89830003347015 101.99416678957641,197.43938775279094 101.66725420113653,195.9861636062269 101.53648916585371,195.14482197380858 100.55575140030123,193.07970653730445 99.83654370578006,190.4791823994019 99.05195349315181,188.18459449824877 98.20198076334782,185.88999930367572 97.61353810410947,184.36026512208628 97.61353810410947,183.36593616585014 97.74430313939229,182.6010668060626 96.76356537383981,180.53591548651457 95.65206257323734,178.62373307126109 94.86747236107476,176.55857037357055 94.14826466632076,175.7936938009807 93.95211711339653,175.33476746856468 93.82135207741521,174.64637742261402 92.97137934761122,172.58120334672276 92.84061431209557,171.8928106748499 91.99064158205874,169.90411704714643 91.85987654700875,169.5981636950164 90.87913878122345,168.52732594159897 90.15993108670227,166.76808904082282 89.63687094533816,165.77373585256282 89.30995835666545,164.39693686913233 88.72151569765992,163.40258041449124 88.0676905203145,161.2608849373064 87.93692548503168,160.80194936535554 88.13307303818874,160.41950283263577 89.89840101567097,159.42514089908218 91.00990381650627,158.27779850462684 91.33681640541181,157.5893921922543 92.38293668837287,156.44204687973252 93.36367445392534,156.51853662385838 93.75596956000663,156.44204687973252 94.67132480768487,156.595026360068 95.19438494928181,157.13045428623445 96.50203530327417,156.82449552003527 97.28662551543675,156.05959803704172 97.61353810410947,155.52416931674816 99.24810104630888,154.37682072154712 100.42498636501841,153.76490072516026 100.62113391817547,153.1529802099103 100.94804650661536,153.0 100.81728147133254,153.38245046377415 101.34034161269665,153.84139075299026 101.47110664797947,154.14735078363447 101.14419405953959,154.37682072154712 101.53648916585371,154.22384077124298 101.60187168372795,153.9178807727294 101.0134290244896,153.9943707846105 100.62113391817547,153.84139075299026 100.81728147133254,153.30596038728254 99.83654370578006,153.68841068900656 99.57501363474876,153.9943707846105 97.61353810410947,154.9122502928949 97.22124299779534,154.98874019930372 96.69818285643123,154.9122502928949 96.37127026799135,154.75927045597928 95.06361991376616,155.4476794670336 94.54055977240205,155.90661844308488 93.82135207741521,156.82449552003527 92.31755417049862,157.28343362052692 91.14066885202192,158.12481938058045 90.6176087106578,158.27779850462684 90.02916605141945,158.73673568107188 89.1791933211498,158.88971467525698 88.59075066214427,159.65460915898439 88.00230800267309,160.49599215533817 88.00230800267309,160.87843864766182 88.59075066214427,162.17875520564849 88.72151569765992,162.7906680695014 89.63687094533816,164.24395904218545 89.76763598038815,165.2383143377374 90.42146115726791,166.30915697023738 90.81375626358204,166.69160038256086 90.87913878122345,167.99190646910574 91.00990381650627,168.3743489899207 91.00990381650627,168.75679130805656 91.46758144069463,169.827628721192 92.51370172388852,170.8984645458986 92.77523179468699,171.8928106748499 94.14826466632076,173.4990592211252 94.14826466632076,174.72286523785442 94.4097947368864,175.7172060990706 95.32514998456463,177.17047104798257 95.91359264403582,178.92968259810004 96.50203530327417,179.77104312810116 96.69818285643123,180.45942828722764 97.02509544463828,180.68888986099046 97.48277306882665,181.83619663573336 97.87506817490794,182.67755377863068 98.07121572829783,183.28944926633267 97.94045069254935,183.671883682895 98.13659824547358,184.97215918381698 98.85580594022758,187.1902708093403 99.50963111710735,189.3318893603282 100.22883881186135,190.9380991042126 100.22883881186135,191.32052946917247 100.88266398897395,193.5386215893668 101.92878427216783,195.5272501099971 102.58260944881476,196.36859129701043 102.84413951984607,196.9039897234179 104.54408497968689,198.73963845690014 105.06714512151666,199.3515203309944 105.3286751920823,199.73394623881904 105.85173533391207,199.96340168645838 106.30941295740195,200.422312362527 106.70170806371607,201.4166178270243 107.94397590006702,202.41092192212818 108.40165352378972,203.02280068438267 110.03621646622196,204.47601066698553 110.95157171413302,205.54679509811103 111.47463185549714,205.92921772424597 112.06307451496832,206.31164014787646" stroke="#4dd2ff" stroke-linecap="round" stroke-linejoin="round" stroke-width="0.5"><title>2023-12-06 2.1km</title><desc>9223370335016772765</desc></polyline><polyline fill="none" points="148.17521435557865,207.0 148.50186589278746,207.0 148.92651289096102,206.88543994369684 149.74314173392486,206.69450643582968 150.10245842474978,206.50357282703044 150.52710542292334,206.3508258673246 151.2457388046896,206.38901261333376 152.55234495340846,206.1217053066939 153.7282904869644,205.73983738286188 154.61024963727687,205.3961559063464 155.68819970986806,205.0906609861704 157.15813162690029,204.63241812147317 157.84409985493403,204.32692255551228 158.23608169949148,203.98323973509832 158.79138931259513,203.6777436202974 158.9220499274088,203.02856351874652 158.46473777550273,202.07388477996574 158.04009077732917,201.0046415978868 157.41945285652764,199.70627062299172 156.96214070462156,198.75158310605912 156.3741679377854,197.37682865009992 156.30883763032034,197.03313921880908 155.94952093949541,196.53669835207984 155.52487394132186,195.5438145720109 155.06756178918295,194.51274006639142 154.6755799447419,193.40528639403055 154.21826779271942,192.37420578557067 153.76095564069692,191.26674555812497 153.00965710519813,189.51007754483726 152.29102372343186,187.60064610361587 152.12769795500208,187.02781470335322 151.50706003443338,185.6912045708159 151.2457388046896,185.4238819508755 150.6251008841209,184.0490767811425 150.33111450076103,183.24710468263947 150.20045388594735,182.48332007665886 150.26578419329599,182.17780578212114 149.71047658019233,181.18488254066324 149.3511598893674,180.00100895520882 148.92651289096102,178.93170044673025 148.59986135386862,177.74781947751762 148.20787950942758,176.52574473019922 147.88122797233518,175.49461594645982 147.52191128139384,174.42529409902636 147.16259459056892,173.2795886072272 146.803277899744,172.2102602031373 146.41129605507012,171.1027381620952 146.0519793642452,170.0334033141262 145.7253278271528,168.9258745989937 145.36601113632787,167.74196083797142 144.974029291654,166.36708837535116 144.51671713974793,164.99221067951294 144.15740044880658,163.73190152805182 143.8634140654467,162.62435349210864 143.50409737462178,161.4404190776695 143.11211553006433,160.2946724013309 142.72013368539046,159.11073035097797 142.5894730706932,158.69062094876426 142.5894730706932,158.3087028863083 142.72013368539046,157.92678442006581 142.98145491501782,157.62124935627799 144.05940498772543,157.08656237271498 145.1373550602002,156.62825861410238 146.31330059410539,156.05537809801172 147.68523704994004,155.44430454616668 148.63252650760114,155.0241908794851 150.00446296366863,154.451307819254 151.3437342660036,153.9166161432513 152.22569341608323,153.64927000834723 153.53229956468567,153.42011602109415 154.8062405595556,153.19096188843832 156.04751640069298,153.07638476745342 157.28879224183038,153.0 158.53006808285136,153.11457714511198 159.64068330917507,153.22915425393148 160.7839636891149,153.3437313262839 161.95990922267083,153.49650069972267 163.135854756576,153.61107768726652 164.31180029024836,153.68746232546982 165.45508067018818,153.7256546386052 166.63102620386053,153.9166161432513 167.74164143030066,154.0311929975869 168.10095812100917,154.0311929975869 169.17890819360036,154.14576981554274 170.22419311245903,154.2603465972643 171.46546895359643,154.41311558283633 171.82478564430494,154.48950005156803 172.2167674889788,154.75684556446504 172.6740796410013,155.40611241478473 173.39271302276757,156.8574105661537 173.71936455974355,157.46848172746832 173.8173600208247,157.85040067826048 174.01335094321985,158.2323192252952 174.24200701911468,159.07253860734636 174.60132371005602,159.7981810461788 175.1892964768922,160.71477993801818 175.6792737825308,161.78414237205288 176.16925108828582,162.8153102923534 176.59389808645938,163.88466650785995 177.01854508486576,164.99221067951294 177.4105269294232,165.9851784291386" stroke="#4dd2ff" stroke-linecap="round" stroke-linejoin="round" stroke-width="0.5"><title>2023-12-01 3.0km</title><desc>9223370335427680657</desc></polyline><polyline fill="none" points="48.86494657804724,266.95853109988093 49.05958612356335,267.0 49.236531165079214,266.97926555106824 49.53733773564454,266.83412434649654 49.53733773564454,266.70971751345496 49.484254223061725,266.62677958056156 49.43117071071174,266.4816381129349 49.077280627796426,266.2950274953764 48.95341909874696,266.1291512405296 48.79416856134776,265.7351945683622 48.67030703241471,265.13389074064617 48.61722351994831,264.926544162081 48.44027847843245,264.366707295776 48.21024992445018,263.8483383900457 47.89174884988461,263.22629387940106 47.62633128766902,262.72865683826967 47.57324777520262,262.54204261963605 47.36091372545343,262.0236688502773 47.130885171471164,261.50529369924334 46.88316211348865,260.9661820763722 46.70621707197279,260.38559865725983 46.61774455115665,260.1989821902389 46.47618851810694,259.61839648065506 46.24615996412467,259.03780903771985 46.051520418492146,258.5194259276177 45.803797360509634,257.93883520366217 45.59146331064403,257.27530082516023 45.36143475677818,256.7154419322178 45.166795211145654,256.1763170303748 44.97215566551313,255.63719063384633 44.75982161576394,255.09806274266157 44.54748756589834,254.55893335673318 44.51209855766501,254.3930470910709 44.246680995449424,253.87465159887506 44.19359748298302,253.68802888331993 43.9989579373505,253.35625472466927 43.91048541665077,253.00374406077026 43.62737335031852,252.3194568300969 43.60967884620186,252.15356865391368 43.397344796336256,251.697375439835 43.36195578810293,251.51075063468306 43.149621738353744,250.9716113024624 42.91959318437148,250.4324704754108 42.67187012627255,249.8933281534264 42.565703101456165,249.72743790745153 42.37106355582364,249.12608457928582 42.15872950607445,248.566202222617 41.928700952092186,248.0063182537706 41.68097789399326,247.42569613878732 41.52172735671047,246.88654547944316 41.362476819427684,246.53402308622026 41.16783727379516,245.87044978851918 40.93780871992931,245.3105580570409 40.725474670063704,244.75066471322498 40.513140620314516,244.21150663604203 40.44236260373145,243.85897939259303 40.30080657056533,243.71382093009015 40.01769450411666,243.02950100429007 39.84074946271721,242.67697161762044 39.593026404618286,242.1170706897101 39.3806923548691,241.57790530922648 39.16835830511991,241.0180012161436 38.938329751137644,240.43735823125462 38.708301197271794,239.85671351225756 38.60213417233899,239.48344099141832 38.42518913093954,238.96500574577658 38.283633097657,238.44656911763013 38.07129904802423,237.94886865391163 37.841270494041964,237.24379081588995 37.575852931826375,236.60092349961633 37.46968590700999,236.24838245587307 37.239657353027724,235.70920079945063 36.9919342949288,235.19075548878754 36.95654528669547,235.04559055402933 36.76190574106295,234.56861929086153 36.56726619543042,234.02943297554157 36.40801565814763,233.69762526887644 36.40801565814763,233.51098318508593 36.071820079232566,232.86810352456814 36.03643107099924,232.68146064433677 36.054125575115904,232.49481758481124 36.018736566766165,232.3081743461662 35.96565305441618,232.14226909464924 35.8417915252503,231.9971018834476 35.80640251701698,231.81045816691767 35.66484648385085,231.2920024584455 35.61176297138445,230.93945178683498 35.417123425751925,230.25508689315757 35.187094871886075,229.59145802864805 35.01014983037021,228.92782689855085 34.85089929308742,228.47157918234007 34.67395425157156,227.80794422894542 34.49700921017211,227.1235683102277 34.28467516042292,226.4184512070933 34.21389714372344,226.04515288175025 34.10773011890706,225.69259269390022 34.09003561467398,225.56815953373734 33.96617408574093,225.07042609655764 33.87770156504121,224.88377572901663 33.718451027642004,224.32382355100708 33.6653675151756,224.03347734220733 33.47072796954308,223.4942618036439 33.29378292802721,222.93430562273716 33.081448878278024,222.24991254413908 32.904503836878575,221.5447777608788 32.69216978701297,220.8603797895339 32.55061375384685,220.3211554480804 32.40905772068072,219.7404506381572 32.23211267928127,219.13900454157556 32.05516763776541,218.53755658390583 31.895917100366205,218.0605448113056 31.71897205885034,217.7494495461433 31.71897205885034,217.3553948289191 31.54202701745089,216.79542096158548 31.38277648005169,216.21470561719616 31.2235259427689,215.63398853776744 31.046580901369452,215.05326972305193 30.88733036397025,214.5140292700089 30.834246851620264,214.34810882950842 30.745774330804124,214.24440848236554 30.7103853225708,214.119967992694 30.7103853225708,213.85034665837884 30.586523793521337,213.53924465402088 30.604218297638,213.43554387518088 30.462662264471874,213.0 30.586523793521337,213.5599848030979 30.781163339037448,214.09922790336714 30.958108380553313,214.76290966496163 31.081969909602776,215.34362934729143 31.25891495111864,215.8621275973128 31.329692967701703,216.02804674522486 31.38277648005169,216.31840491313778 31.595110529917292,216.89911994758586" stroke="#4dd2ff" stroke-linecap="round" stroke-linejoin="round" stroke-width="0.5"><title>2021-03-03 3.4km</title><desc>9223370422090161307</desc></polyline></svg>