<?xml version="1.0" encoding="utf-8" ?>
<svg baseProfile="full" height="300mm" version="1.1" viewBox="0,0,200,300" width="200mm" xmlns="http://www.w3.org/2000/svg" xmlns:ev="http://www.w3.org/2001/xml-events" xmlns:xlink="http://www.w3.org/1999/xlink"><defs /><rect fill="#222222" height="300" width="200" x="0" y="0" /><text fill="#FFFFFF" style="font-size:12px; font-family:Arial; font-weight:bold;" x="10" y="20">Daniel Running 2025 over 5km</text><text fill="#FFFFFF" style="font-size:4px; font-family:Arial" x="10" y="280">ATHLETE</text><text fill="#FFFFFF" style="font-size:9px; font-family:Arial" x="10" y="290">Daniel Yu</text><text fill="#FFFFFF" style="font-size:4px; font-family:Arial" x="65" y="280">SPECIAL TRACKS</text><rect fill="yellow" height="2.6" width="2.6" x="65" y="283" /><text fill="#FFFFFF" style="font-size:3px; font-family:Arial" x="70" y="285.5">Over 10.0 km</text><rect fill="red" height="2.6" width="2.6" x="65" y="287" /><text fill="#FFFFFF" style="font-size:3px; font-family:Arial" x="70" y="289.5">Over 20.0 km</text><text fill="#FFFFFF" style="font-size:4px; font-family:Arial" x="120" y="280">STATISTICS</text><text fill="#FFFFFF" style="font-size:3px; font-family:Arial" x="120" y="285">Number: 4</text><text fill="#FFFFFF" style="font-size:3px; font-family:Arial" x="120" y="290">Weekly: 2.0</text><text fill="#FFFFFF" style="font-size:3px; font-family:Arial" x="141" y="285">Total: 57.5 km</text><text fill="#FFFFFF" style="font-size:3px; font-family:Arial" x="141" y="290">Avg: 14.4 km</text><text fill="#FFFFFF" style="font-size:3px; font-family:Arial" x="167" y="285">Min: 11.3 km</text><text fill="#FFFFFF" style="font-size:3px; font-family:Arial" x="167" y="290">Max: 21.2 km</text><polyline fill="none" points="91.55788934417069,101.41184051257733 91.55788934417069,100.92661840793153 91.57863729505334,100.44139527679363 91.43340163922403,99.88338740689505 91.39190573769156,99.15554901461292 91.37115778680891,98.40344691596692 91.22592213109601,97.69986530054302 91.018442622968,97.04480461491039 91.18442622944713,96.41400366779999 91.39190573769156,95.80746265932976 91.72387295076624,95.22518178206519 91.97284836054314,94.64289942644245 92.18032786867116,94.01209187282075 92.34631147538312,93.38128258414508 92.61603483592626,92.7262095631886 92.90650614746846,92.09539673750987 93.23847336054314,91.46458217670443 93.549692622968,91.07638773828512 94.10988729505334,90.63966820972564 94.64933401637245,90.17868558282498 95.12653688527644,89.64491506766353 95.29252049175557,89.08688092799275 95.18878073757514,88.45605809144035 94.75307377043646,87.82523351958662 94.31736680318136,87.41277036134852 93.81941598362755,87.02456906402949 93.84016393439379,86.56357917003334 94.29661885241512,86.05406294582644 94.71157786878757,85.54454558950965 95.04354508186225,84.98650147164881 95.41700819670223,84.45271887078707 95.0642930327449,83.94319795636693 94.56634221307468,83.67630559696408 93.88165983604267,83.48220186779508 93.25922131142579,82.97267879682477 92.74052254087292,82.56020691021695 92.18032786867116,82.2933129411249 91.59938524581958,81.92936611900222 91.10143442626577,81.3713132032135 90.5827356557129,80.98310167815362 89.98104508186225,80.64341605460504 90.02254098351113,79.794199794007 90.33376024593599,79.01777074644633 89.83580942614935,78.58102825177775 89.25486680318136,78.24133906966017 88.69467213109601,77.85312224534573 88.17597336054314,77.44064114938374 87.57428278692532,77.05242296932556 86.8896004097769,76.73699521414528 86.26716188527644,76.37303957273252 85.9144467212027,75.7907093448739 85.47873975406401,75.30543302520528 84.91854508186225,75.01426674042887 84.75256147538312,74.94147511148185 84.46209016384091,74.99000286664523 83.75665983604267,74.60178053734126 83.0927254097769,74.16502963115636 82.47028688527644,73.72827789306757 81.86859631142579,73.31578937644372 81.24615778680891,72.83050781859492 80.62371926230844,72.41801768681034 79.98053278680891,72.02979100254015 79.37884221307468,71.64156366090174 78.73565573769156,71.32612846177653 78.27920081955381,70.88937131575949 77.63601434417069,70.54967073810985 77.07581967208534,70.16144089019508 76.515625,69.77321038489754 75.89318647538312,69.33645028053434 75.56121926219203,68.97248289144773 75.16700819658581,68.29307555239939 74.60681352461688,67.85631262836978 73.96362704911735,67.61366619997716 73.63165983604267,66.86146063983324 73.29969262285158,66.08498779557704 73.02996926230844,65.40557189959509 72.76024590164889,64.7746839075262 72.46977459010668,64.1437941793265 72.137807377032,63.561432889298885 71.82658811472356,62.88200951446197 71.55686475406401,62.178318896418205 71.2663934425218,61.5959526134684 70.89293032779824,60.98931949562393 70.66470286878757,60.33415392525785 70.4364754097769,59.6304554863309 70.16675204911735,58.951020461143344 69.85553278680891,58.271583422174444 69.56506147538312,57.61641008457809 69.29533811472356,56.96123487445584 68.96337090153247,56.35458949173335 68.83888319658581,55.723676590729156 68.69364754098933,55.141293909968226 68.27868852461688,54.55890974974318 67.92597336054314,53.87945969264547 67.59400614746846,53.20000762163545 67.32428278680891,52.44775476522045 67.05455942614935,51.768298450435395 66.72259221307468,51.06457371542638 66.43212090164889,50.36084681992361 66.14164959010668,49.65711776391254 65.83043032779824,49.02618642849848 65.64369877043646,48.32245327485725 65.33247950812802,47.6672514998063 65.00051229505334,46.98778101420612 64.62704918021336,46.38110923563363 64.48181352461688,45.65310098172631 64.31582991790492,44.973624525242485 63.83862704911735,44.31841317730141 63.11244877043646,44.4154816432856 62.44851434417069,44.43974875341519 61.743084016256034,44.60961845210113 61.05840163922403,44.77948802486935 60.35297131142579,44.99789157618943 59.68903688516002,45.11922679266718 59.02510245889425,45.28909598772589 58.29892418032978,45.531766047963174 57.59349385241512,45.75016888258688 56.90881147538312,45.968571508987225 56.286372950766236,46.16270700226596 55.580942622967996,46.40537613759807 54.91700819670223,46.64804501604522 54.25307377043646,46.86644678696757 53.734374999883585,46.96351417383994 53.215676229447126,47.06058151970501 52.55174180329777,47.327516508768895 52.09528688527644,47.44885049194272 51.638831967138685,47.64298473144299 50.95414959010668,47.93418578238925 50.29021516395733,48.07978616912442 49.667776639340445,47.98271925489826 49.39805327868089,47.327516508768895 48.796362704830244,46.89071363750554 48.44364754087292,46.25977468719066 48.19467213109601,45.62883400013379 47.92494877043646,44.99789157618943 47.48924180318136,44.43974875341519 47.19877049175557,44.00294037879212 46.82530737691559,43.71173433326476 46.24436475406401,43.978673222489306 45.66342213109601,44.31841317730141 45.020235655712895,44.536817168060225 44.4392930327449,44.68241971288808 44.19031762285158,44.90082335678744 43.630122950766236,45.09495975448226 43.152920081978664,45.580300029178034 43.27740778692532,46.3568423310935 43.54713114746846,46.98778101420612 43.81685450812802,47.59445118700387 44.065829918021336,48.17685304225597 43.920594262192026,48.78352006786736 43.52638319670223,49.1960527280753 43.29815573769156,49.89978319971124 42.75870901637245,50.409379778648145 42.240010245819576,50.87044237389637 41.61757172131911,51.23443850444164 40.99513319670223,51.62270040663134 40.538678278564475,51.84109743767476 40.248206967138685,51.74403211619938 39.60502049175557,51.9866953426972 39.21080942614935,51.64696675367304 38.941086065606214,51.0160408954398 38.671362704830244,50.3851133006101 38.46388319670223,49.826983595921774 38.17341188527644,49.171786121602054 37.75845286890399,48.468053414922906 37.50947745901067,47.885652299562935 36.90778688516002,47.74005178948573 36.264600409776904,47.78858530319121 35.621413934393786,47.57018441085529 35.22720286878757,47.109115177212516 34.79149590164889,46.69657876089332 34.16905737714842,46.57524437943357 33.75409836054314,47.0120478519093 33.50512295088265,47.61871796051855 33.173155737575144,48.20111975407053 32.654456967138685,48.68645345164987 32.633709016256034,49.46298523027508 33.027920081978664,49.996849302056944 33.54661885241512,50.4336462541396 34.14830942626577,50.48217919742456 34.85373975406401,50.45791272704082 35.455430327914655,50.6035115106788 35.95338114746846,50.99177448156115 36.596567622967996,51.16163932457857 37.07377049175557,50.797643078360124 37.15676229505334,50.1667148823326 36.97003073769156,49.46298523027508 36.78329918021336,48.75925341770926 36.72105532779824,48.05551944440231 36.92853483604267,47.424583700456424 36.824795081978664,46.8421799337666 36.36834016395733,46.28404160197533 35.97412909835111,45.67736796080135 35.559170081978664,45.07069271377986 35.06121926230844,44.633885541625204 34.41803278680891,44.29414605439524 33.8785860654898,44.77948802486935 33.380635245819576,45.21629491948988 32.86193647549953,45.70163493727159 32.343237704830244,46.18697392735339 31.720799180329777,46.38110923563363 31.20210040989332,45.92003761001979 30.76639344263822,45.38616404260392 30.28919057373423,44.8037550963636 29.749743852415122,44.852289231756004 29.355532786925323,45.19202789165138 28.878329918021336,45.7259019112098 28.338883196702227,46.18697392735339 27.86168032779824,46.623778139735805 27.405225409776904,47.084848349695676 26.824282786925323,47.59445118700387 26.61680327868089,48.05551944440231 25.99436475406401,48.516586774392636 25.392674180329777,48.44378673135361 24.87397540989332,48.17685304225597 23.77433401637245,48.20111975407053 23.11039959010668,48.12831961082702 22.425717213074677,48.39525335638609 22.114497950766236,48.977653176989406 21.92776639352087,49.43871865203255 21.82402663922403,49.51151837907673 21.699538934393786,49.56005151763384 21.40906762285158,49.826983595921774 20.828125,50.28804736257007 20.16419057373423,50.700577315088594 19.479508196702227,51.088840121548856 18.774077868903987,51.5013686328457 18.068647540872917,51.8168311110785 17.363217213074677,52.0837605613051 16.803022540989332,52.39922223809117 16.1598360654898,52.73894971214759 15.516649590106681,53.10294287565921 14.977202868787572,53.51546776221949 14.728227459010668,54.097854573541554 14.541495901648887,54.5346437109838 15.184682377032004,54.82583600687212 15.682633196702227,55.11702793286531 16.222079918021336,55.23835779291403 16.699282786925323,55.77220841392409 17.176485655712895,56.30605779176403 17.653688524616882,56.81564012906165 18.13089139352087,57.34948707684816 18.649590163957328,57.85906709458504 19.168288934393786,58.41717724291084 19.707735655712895,58.926754887303105 20.28867827868089,59.50912795095064 20.3924180327449,60.01870316801069 20.413165983511135,60.55254265682015 20.890368852415122,61.01358485117089 21.40906762285158,61.52315672417171 21.84477459010668,61.95993171367445 22.363473360659555,62.44523628166644 22.9236680327449,62.97907011989446 23.52535860647913,63.51290271495236 24.08555327868089,64.02246903257037 24.687243852415122,64.55629919806961 25.16444672131911,65.01733334064193 25.558657786808908,65.47836655611172 25.828381147468463,65.69675038727291 26.243340163957328,65.74528009926144 26.637551229447126,66.01219333161134 26.720543032628484,66.64307791825559 27.34298155736178,66.40043020574376 27.923924180329777,66.59454839624232 28.40112704911735,67.20116668226547 28.899077868787572,67.7592540877813 29.41777663922403,68.29307555239939 29.915727459010668,68.82689577396377 30.226946721202694,69.50630153113161 30.80788934417069,70.04011892793642 31.181352459010668,70.74378541549959 31.61705942626577,71.32612846177653 32.115010245819576,71.83567741393927 32.69595286878757,72.3937535383302 33.11091188527644,73.00035648068297 33.54661885241512,73.50990171195008 33.940829918021336,74.14076566754375 34.54252049175557,74.65030836446385 35.08196721307468,75.20837763806048 35.53842213109601,75.81497313392174 36.140112704830244,76.44583074720867 36.4098360654898,77.12521392820054 36.762551229447126,77.70754076683079 37.26050204911735,78.12002138273965 37.841444672085345,78.84792654181365 37.96593237691559,79.55156599913607 38.31864754098933,80.2794666137197 38.795850409776904,80.9588384359813 39.27305327868089,81.44410279103613 39.58427254098933,82.0992080411961 40.12371926230844,82.535943834926 40.74615778680891,83.04546787630534 41.38934426230844,83.48220186779508 41.84579918032978,84.13730129541364 41.908043032861315,84.86518735338177 42.11552254087292,85.54454558950965 42.69646516384091,86.00553753213899 43.090676229447126,86.73341765992518 43.36039959010668,87.43703292067221 43.67161885241512,88.09212105028564 44.02433401637245,88.74720730858098 44.33555327868089,89.42655404427205 44.356301229447126,90.13016104184499 44.27330942626577,90.80950368082267 44.39779713121243,91.5131064352463 44.93724385241512,92.04687260212086 45.47669057373423,92.77473355490656 45.829405737575144,93.4783302799915 46.18212090164889,94.20618668958195 46.389600409776904,94.93404078902677 46.78381147538312,95.63763088951237 46.99129098362755,96.36548044609663 47.28176229505334,97.09332769282628 47.530737704830244,97.86969554326788 47.73821721307468,98.62179939223279 47.92494877043646,99.34963947841607 48.153176229447126,100.10173847420083 48.31915983604267,100.853835003727 48.568135245819576,101.58166800664912 48.796362704830244,102.30949869992037 49.00384221307468,103.13437069360225 48.692622950766236,103.83793563803192 48.87935450824443,104.51723767454678 49.14907786878757,105.19653769912838 49.85450819670223,105.0994949616288 50.68442622956354,105.17227701863158 51.514344262192026,105.36636239092331 52.32351434417069,105.51192631242156 52.738473360659555,105.43914436320483 52.717725409776904,105.17227701863158 53.319415983511135,105.26931972529565 53.67213114758488,105.87583571189316 54.64728483604267,106.04565990073024 55.560194672085345,106.23974453404662 55.95440573769156,105.92435692159052 56.6598360654898,105.87583571189316 57.34451844263822,105.85157510323916 58.13294057373423,105.77879326185212 58.83837090164889,105.80305387818953 59.647540983511135,106.09418107451347 60.311475409776904,106.16696281576878 61.92981557373423,106.14270223793574 62.57300204911735,105.87583571189316 63.11244877043646,105.31784106322448 63.65189549175557,104.73558433038124 64.48181352461688,104.444455409699 65.24948770483024,104.42019464960322 65.99641393439379,104.46871616720455 66.76408811460715,104.51723767454678 67.44877049175557,104.444455409699 68.02971311472356,104.83262722182553 68.77663934417069,105.0994949616288 69.50281762285158,104.85688793830923 69.83478483592626,104.42019464960322 69.91777663934045,104.371673121801 70.10450819670223,104.32315158366691 70.41572745901067,103.81367481383495 71.10040983604267,103.83793563803192 71.82658811472356,104.05628294061171 72.57351434417069,104.12906532856869 73.23744877043646,103.91071809528512 73.92213114746846,103.74089232571714 74.64830942614935,103.86219645966776 75.29149590153247,104.17758690776827 75.97617827868089,104.3474123539927 76.61936475406401,104.29889081079455 77.28329918032978,104.05628294061171 77.76050204911735,103.49828386536683 78.2169569672551,102.86750066734385 78.69415983592626,102.2367157346016 79.1921106557129,101.67871223256225 79.66931352450047,101.04792403039755 80.22950819670223,100.58696232392685 80.7067110654898,99.98043235138175 81.24615778680891,99.5437297779572 81.84784836054314,99.10702637299255 82.17981557373423,98.4762310977967 82.30430327868089,97.79691116894537 82.38729508186225,97.09332769282628 82.4080430327449,96.65661962199374 82.76075819670223,96.00155595659453 83.07197745901067,95.63763088951237 84.109375,95.83172433049185 84.64882172131911,95.9045093284949 85.06378073769156,95.97729430337495 85.74846311460715,95.83172433049185 86.41239754087292,95.56484580681717 87.0348360654898,95.32222869759426 87.7195184425218,95.0796113317192 88.38345286878757,94.95830255262263 89.06813524581958,94.95830255262263" stroke="#ffda00" stroke-linecap="round" stroke-linejoin="round" stroke-width="0.5"><title>2025-01-09 12.7km</title><desc>400977980</desc></polyline><polyline fill="none" points="144.3005453837104,96.15213943979325 144.77386053762166,95.89386112441571 144.5950525905937,95.48799404107558 144.40572652901756,95.0206301901635 144.37417218543123,94.63935828876856 144.56349824700737,94.36877747127437 144.53194390336284,93.91370831265522 144.5529801324592,93.36024342208111 144.48987144528655,92.88057171904802 144.63712504867,92.48699345906061 144.9947409426677,92.33940126804373 145.08940397348488,92.16721014177165 144.5529801324592,91.95812057412695 144.09018309315434,91.72443178884714 143.75360342813656,91.71213236609765 143.19614335801452,91.62603637029679 142.91215426567942,91.68753351664782 142.41780288267182,91.76133004933217 141.84982469811803,91.92122237610602 141.32391897158232,92.11801263027155 140.91371250484372,92.08111448299314 140.36677054926986,92.01961754481454 140.0196727697039,92.2287070018574 139.819828593696,92.67148343430017 139.67257499025436,93.18805380759295 139.55687573045725,93.68002345798595 139.09407869103597,93.98750343235588 138.69439033890376,94.36877747127437 138.33677444484783,94.81154575390246 137.98967666534008,95.21741519843636 137.6530970003805,95.63558223531436 137.30599922087276,96.10294361442357 136.83268406701973,96.33662359954906 136.28574211138766,96.33662359954906 135.77035449940013,96.17673734467098 135.20237631472992,96.275128912137 134.63439813011792,96.32432466468163 134.08745617454406,96.22593313883408 133.624659135181,96.17673734467098 133.4142968445667,96.44731395490817 133.0040903778863,96.77938438871206 132.53077522397507,96.73018882871838 132.1100506427465,96.48421071661869 131.59466303075897,96.50880855121795 131.01616673154058,96.54570529342163 130.41663420334226,96.6071998376865 129.9853915075655,96.90237319761945 129.5436306972988,97.23444233183545 128.47078301518923,97.3451318324951 128.0290222048643,97.19754580823064 127.42948967660777,97.11145387418219 126.81943903386127,97.19754580823064 126.21990650560474,97.22214349192654 125.67296455003088,97.14835042515915 125.19964939617785,97.12375272581994 125.04187767824624,96.85317768967798 124.71581612777663,96.95156868474442 124.13731982855825,96.86547656860057 123.57985975849442,96.80398216089816 123.08550837548682,96.80398216089816 122.78048305411357,96.43501503172592 122.73841059597908,95.88156214271294 122.8120373976999,95.36500373610761 122.60167510714382,94.82384484878276 122.45442150364397,94.28268344274693 122.23354109859793,93.77841713827365 122.05473315156996,93.261849387869 121.85488897544565,92.7083813942445 121.707635372004,92.16721014177165 121.48675496689975,91.65063523274148 121.27639267622726,91.17095647636597 121.04499415663304,90.64207760478894 120.8135956369224,90.06399794661411 120.487534086511,89.74420796467894 120.38235294114565,89.1292247577876 120.35079859755933,88.612636349877 120.14043630694505,88.07144603189226 119.8774834437063,87.56715278619959 119.5934943514294,87.05055743693083 119.21484222827712,86.69385930839053 119.08862485393183,86.10346000090067 118.7730814180104,85.63605842257675 118.31028437864734,85.25475574308075 118.02629528631223,84.89805210414488 117.63712504866999,84.5659477322406 117.34261784184491,84.06163927909074 117.1427736657788,83.55732863802405 116.77463965723291,83.10221715692023 116.45909622125328,82.61020274044131 116.15407089988003,81.99518179112783 115.76490066223778,81.58926618195255 115.32313985197106,81.1833491552461 114.98656018701149,80.71592779277125 114.56583560578292,80.24850455056003 114.18718348263064,79.8425828415202 113.77697701595025,79.36285535766365 113.4298792364425,78.90772745295544 113.08278145693475,78.47719941625837 112.76723802101333,78.04666978483874 112.35703155433293,77.59153672603861 111.96786131669069,77.18560573751893 111.57869107904844,76.73046930678538 111.1053759251954,76.55825505741086 111.41040124662686,76.6320611955307 111.04226723802276,76.11541724433482 110.64257888589054,75.67257774395694 110.19029996107565,75.27894121588179 109.83268406696152,74.82379731830588 109.33833268407034,74.46706166602962 108.97019867546624,74.03651717911998 108.51791975065134,73.88890155925765 108.46532917802688,73.87660024916113 108.05512271134648,73.48295763786882 107.59232567198342,73.07701229846862 107.17160109075485,72.65876410205965 106.75087650952628,72.21591142981197 106.35118815733586,71.7484540004516 105.98305414884817,71.33020102235605 105.50973899493692,71.19488356008515 105.08901441370836,70.76432695006224 104.99435138294939,70.17384671930631 104.83657966495957,69.59566525266564 104.59466303075897,69.00517908341862 104.52103622903815,68.3777842407726 104.57362680172082,67.76268796928343 104.72088040516246,67.15989046417963 105.00486949749757,66.61860024381895 105.48870276584057,66.17572455153277 105.95149980526185,65.72054499769001 106.38274250098038,65.30227032200492 106.85605765483342,64.90859866351093 107.32937280874467,64.55183257090539 107.8447604207322,64.29348402684991 108.30755746003706,63.91211131669115 108.8650175301591,63.66606374262483 109.4329957148293,63.39541080928029 110.01149201404769,63.173967031238135 110.51636151142884,62.977127763100725 111.01071289443644,62.57114571933198 111.59972730808659,62.30049023535685 112.14666926371865,62.054439248247945 112.72516556293704,61.79608515097061 113.34573432023171,61.53773047920549 113.95578496303642,61.46391475316341 114.54479937668657,61.303980519202014 115.1443319049431,61.16865138002322 115.74386443319963,61.03332208323263 116.32236073235981,60.98411139076052 116.87982080248185,60.639635959872976 117.47935333073838,60.565819663213915 118.08940397354309,60.467397861408244 118.67841838719323,60.23364574791049 119.27795091544976,60.209040234920394 119.93007401638897,60.209040234920394 120.56116088817362,60.196737476449925 121.21328398911282,60.147526429653226 121.82333463185932,60.25825125569099 122.42286716005765,60.33206774776045 123.03291780286236,60.35667323466623 123.68504090380156,60.36897597617644 124.31612777564442,60.36897597617644 124.95773276197724,60.34437049187545 125.56778340472374,60.45509513030265 126.05161667312495,60.76266301672149 126.61959485779516,60.97180871439923 127.24016361508984,60.94720335773309 127.8712504869327,60.861084568387014 128.41819244250655,60.467397861408244 129.01772497076308,60.41818692923698 129.6593299571541,60.45509513030265 130.29041682899697,60.44279239790194 130.83735878457082,60.627333247015486 131.47896377090365,60.60272781740059 132.13108687184285,60.57812238261249 132.78320997272385,60.565819663213915 133.36170627188403,60.75036031691707 133.9086482274579,61.00871673959773 134.5186988702626,60.71345220960211 135.13926762755727,60.67654409060924 135.7388001558138,60.52891149729112 136.41195948573295,60.41818692923698 137.03252824308584,60.651938671420794 137.67413322941866,60.77496571526717 138.32625633035786,60.66424138168077 138.93630697310437,60.52891149729112 139.38858589786105,60.08601259180432 140.00915465527214,59.91377367253881 140.640241527115,59.82765411717264 141.26081028435146,59.68002044515015 141.88137904164614,59.520083755400265 142.52298402803717,59.36014684547263 143.13303467078367,59.187906850078434 143.74308531358838,59.01566659932723 144.37417218543123,58.929546378189116 144.97370471362956,58.70809408779314 145.6047915854724,58.363611908200255 146.1832878846908,58.117552583062206 146.751266069361,57.90840174690675 147.35079859755933,57.67464448441751 147.92929489677772,57.52700807630026 148.48675496689975,57.342462302294734 149.01266069343546,57.1087039010672 149.29664978571236,56.73961073083774 149.75944682507543,56.35821322296397 150.3379431242356,56.050633675491554 150.86384885082953,55.743053313599376 151.3582002337207,55.5338982023095 151.94721464742906,55.1524967358273 152.51519283209927,54.78339735008194 153.09368913125945,54.365083295189834 153.63011297228513,54.00828482260113 154.14550058433088,53.63918180116889 154.6714063108666,53.40541594761453 155.1552395792678,53.12243560078059 155.6075185040827,53.011703973017575 156.0913517724839,52.654901343346864 156.42793143744348,52.66720490052103 156.64881184260594,53.18395312609937 156.8696922477684,53.77451971187838 157.16419945459347,54.303566395326925 157.54285157768754,54.74648734701623 158.0477210751851,55.23861975707405 158.52103622903815,55.718446849459724 158.96279703936307,56.1490592193004 159.28885858977446,56.59197313441109 159.58336579665774,57.096400814254594 159.82528243085835,57.686947509973834 160.1303077522316,58.215976375635364 160.46688741719117,58.74500283219095 160.81398519675713,59.21251257934637 161.28730035061017,59.55699224182172 161.7185430463287,60.07370982031716 162.1287495130673,60.50430604685971 162.54947409423767,60.94720335773309 162.52843786519952,61.303980519202014 162.4968835216132,61.513125242367096 163.04382547718706,61.6484539802841 163.56973120372277,61.98062385049707 163.78009349433705,62.57114571933198 163.9273470977787,63.112454795736994 164.10615504480666,63.72757568499219 164.52687962603522,64.19506538275891 165.0633034670609,64.58873945886444 165.5576548500103,65.00701670318085 165.98889754578704,65.42529244173784 166.52532138681272,65.72054499769001 167.11433580052108,65.90507746413641 167.65075964160496,66.18802667690761 168.06096610828536,66.70471476572129 168.41858200228307,67.20909854098863 168.92345149978064,67.62736635259353 169.57557460066164,67.72578208945924 170.11199844174553,67.92261331310874 170.52220490842592,68.1194442033011 170.93241137516452,68.63612370388728 171.4267627580557,69.09129183665209 171.66867939231452,69.63257053863344 171.1427736657206,69.97701930894982 170.74308531358838,70.37067379630025 170.90085703152,70.9980578791583 170.99552006227896,71.6008354741789 170.59583171014674,72.10519799801841 170.84826645889552,72.65876410205965 171.24795481108595,73.13851925924246 171.57401636149734,73.6551764443575 171.64764316321816,74.25794025729556 171.66867939231452,74.82379731830588 171.67919750680448,75.35274816645688 171.98422282817774,75.78328777721617 172.23665757692652,76.2630300361925 172.55220101284795,76.90268330102117 172.99396182317287,77.37011999898823 173.63556680944748,77.40702281608537 174.28768991032848,77.39472187835054 174.88722243864322,77.37011999898823 175.48675496689975,77.34551811434358 176.12835995323258,77.37011999898823 176.69633813790279,77.54233304538502 177.32742500974564,77.40702281608537 177.93747565255035,77.37011999898823 178.54752629523864,77.34551811434358 179.04187767824624,77.01339216250926 179.39949357224395,76.5459540298034 179.82021815347252,76.14001938936417 180.40923256718088,76.12771831749706 180.90358395013027,75.99240644126257 181.29275418777252,75.66027662261331 181.8712504869327,75.37735047288879 182.41819244250655,75.11902599551104 182.92306194000412,74.88530335456744 183.51207635371247,74.67618269842933 183.9538371639792,74.79919489464373 184.12212699651718,75.35274816645688 184.3114530580351,75.95550317496964 184.49026100506308,76.5459540298034 184.61647837940836,77.08719801161351 184.8478768990608,77.6776431170947 184.94253992987797,78.00976717076992 185.1739384495304,78.47719941625837 185.23704713676125,79.09223898049095 185.2580833657412,79.73187667484308 185.44740942731733,80.3100077161289 185.5,80.88813588186167 185.39481885469286,81.46626117205597 185.39481885469286,82.14278711571387 185.35274639650015,82.80700875689945 185.26860148028936,83.4466260092886 185.14238410594407,84.00013809854136 185.1318659914541,84.09853997179016 185.07927541877143,84.36914469376643 184.8058044409263,84.87345181284036 184.33248928707326,85.23015552725701 183.88021036225837,85.54995792685804 183.32275029213633,85.90665956540761 182.78632645111065,86.25106010887248 182.2393844954786,86.52165982013685 181.7450331125874,86.84145866673498 181.22964550059987,87.1612566335898 180.6827035449678,87.45645397603948 180.21990650566295,87.77625025110319 179.65192832099274,88.07144603189226 179.15757693804335,88.37894083983701 178.62115309701767,88.68643483438791 178.04265679779928,88.93242944446683 177.47467861312907,89.09232566189894 176.9382547721034,89.36291875962343 176.359758472885,89.54741369243129 175.78126217378303,89.69500942786544 175.27639267622726,89.92870229240361 174.6873782625189,90.15009509917581 174.10888196335873,90.30998964184982 173.5934943513712,90.51908217358141 173.0991429684218,90.65437714077416 172.86774444876937,90.28539049577375 172.74152707436588,89.70730906401877 172.62582781456877,89.15382414848864 172.51012855471345,88.58803684463783 172.4049474094063,88.0345466002982 172.33132060768548,87.59175250747649 171.91059602651512,87.72705088144721 171.37417218543123,87.91154841038224 170.83774834434735,88.14524485998118 170.2908063887735,88.39124061523034 169.7964550058241,88.62493610057572 169.2600311647402,88.89553028615774 168.74464355275268,89.1292247577876 168.22925594070693,89.3752184309269 167.69283209973946,89.65811051156197 167.16692637320375,89.85490459644643 166.6199844175717,90.07629754375375 166.09407869109418,90.26079134446627 165.53661862091394,90.45758440916688 165.00019477988826,90.64207760478894 164.4953252823907,90.77737242887815 163.90631086874055,90.99876361951465 163.2752239968977,91.20785491248535 162.67569146864116,91.44154473609524 162.11823139846092,91.62603637029679 161.58180755743524,91.76133004933217 161.00331125827506,92.00731815328618 160.4563693027012,92.24100636998628 159.9304635761073,92.49929279983917 159.40455784962978,92.78217727894662 158.89968835219042,93.06506106979214 158.40533696918283,93.39714116337564 158.03720296057872,93.88910992901219 157.58492403582204,94.28268344274693 157.10109076742083,94.65165740188968 156.68036618625047,95.0698264734383 156.38585897936719,95.51259208645206 156.01772497076308,95.96765498736204 155.6495909622172,96.31202572849725 155.7652902220143,95.80776822512416 155.13420335017145,95.80776822512416 154.5872613945976,95.9430570382101 153.99824698088923,95.83236620286334 153.4828593688435,95.66018024947698 152.97798987140413,95.48799404107558 152.44156603037845,95.3404056595391 151.88410596025642,95.15591991913243 151.33716400468256,94.97143388601398 150.80074016359868,94.78694756021287 150.25379820802482,94.63935828876856 149.87514608493075,94.40567489254317 149.46493961825036,94.29498259357206 148.93903389171464,94.14739269766869 148.41312816517893,93.96290506432706 147.86618620960508,93.80301554529433 147.403389170242,93.48323584762693 146.8774834437063,93.22495160363906 146.17276977014262,93.01586393821344 145.74152707436588,92.74527934243815 145.25769380596466,92.52389147750364 144.77386053762166,92.33940126804373 144.4267627580557,92.49929279983917" stroke="red" stroke-linecap="round" stroke-linejoin="round" stroke-width="0.5"><title>2025-01-07 21.2km</title><desc>400906802</desc></polyline><polyline fill="none" points="77.78010333818384,184.5 78.44571844837628,184.66084618281457 79.13428580365144,184.9021152664791 79.61628295236733,185.06296119527542 79.73104417836294,185.81357418530388 79.70809193316381,186.376532475173 79.68513968796469,186.99310441178386 79.68513968796469,187.60967485466972 79.822853159043,188.14582185185282 80.05237561080139,188.62835318382713 80.6720862305956,188.95004023023648 81.36065358587075,188.92323299191776 82.09512543154415,189.0036546983756 82.7836927868193,188.81600401023752 83.44930789689533,188.92323299191776 84.02311402640771,189.24491966556525 84.50511117500719,189.7542560675647 84.68872913648374,190.34401273340336 84.91825158824213,190.96057505940553 85.19367853039876,191.63074980684905 85.44615322735626,192.27411590429256 85.72158016951289,192.89067355523002 85.95110262115486,193.50722971264622 86.22652956331149,194.15059106741683 86.479004260269,194.79395079612732 86.63966997654643,195.4909220006084 86.82328793802299,196.16108482060372 87.00690589938313,196.83124587644124 87.02985814458225,197.47459883015836 86.84624018310569,198.14475642784964 86.34129078919068,198.654075022263 85.67567567911465,198.84171845801757 84.9871083238395,199.02936175549985 84.32149321364705,199.29742336916388 83.65587810357101,199.51187245675828 82.96731074829586,199.72632136379252 82.57712258026004,200.15521863580216 82.48531359946355,200.82536917668767 83.05911972885951,201.22745865446632 83.60997361317277,201.62954749714117 84.18377974256873,202.08524741770816 84.66577689140104,202.6481697228446 84.57396791060455,203.42553657398093 84.11492300708778,203.72039924139972 83.4034034066135,203.85442761378363 82.82959727721754,204.14928978437092 82.20988665742334,204.4173460068414 81.52131930214819,204.65859636568348 80.83275194675662,204.84623537561856 80.51142051431816,204.92665205188678 80.60322949499823,205.27512402186403 80.87865643715486,206.02567741426174 81.15408337919507,206.82983930769842 81.40655807615258,207.58038811653387 81.59017603762913,208.30412951522158 81.8196984892711,209.00106373243034 82.14102992182598,209.75160614040215 82.37055237358436,210.4753413668659 82.60007482534274,211.199074536009 82.82959727721754,211.86919600638794 83.08207197405864,212.53931571295834 83.28864218073431,213.2094336557493 83.5181646324927,213.9331590529473 83.74768708425108,214.60327332725865 83.97720953589305,215.24658137117513 83.56406912277453,215.83627898362465 82.92140625801403,216.1311272776802 82.23283890250605,216.42597523028962 81.52131930214819,216.7208228414529 80.83275194675662,217.04247439146275 80.09828010119963,217.31051703938283 79.40971274580806,217.57855940519948 78.69819314533379,217.92701405889238 78.00962578994222,218.24866408514208 77.34401067986619,218.51670546334935 76.67839556979015,218.78474655933678 76.17344617575873,219.24041577498429 76.17344617575873,219.96412402953138 76.03573270479683,220.20535965735326 75.85211474332027,220.2857714824786 75.46192657528445,220.76824189993204 75.66849678184371,221.38473054749193 75.89801923371851,222.08162896041176 76.1275416854769,222.75172178947832 76.33411189215258,223.4218128551438 76.58658658899367,224.11870569275925 76.81610904086847,224.84240008232882 77.06858373770956,225.53928903199267 77.34401067986619,226.34338929640944 77.55058088642545,227.01347091037314 77.82600782846566,227.7103539184318 78.14733926113695,228.40723501928733 78.37686171277892,229.07731120235985 78.60638416465372,229.8009914997092 78.85885886161122,230.5514725986577 79.11133355856873,231.22154313948704 79.3408560102107,231.99882275797427 79.52447397180367,232.7224947528448 79.79990091372747,233.5265723351913 80.09828010119963,234.33064737875247 80.39665928843897,235.08111512876349 80.74094296607655,235.80477836469072 80.99341766303405,236.50163731505745 81.13113113411237,237.17169219985954 81.38360583095346,237.94895365746925 81.61312828282826,238.64580674064928 81.95741196046583,239.36945984727936 82.1639821670251,240.09311089769471 82.09512543154415,240.6291473871388 82.60007482534274,240.46833655875525 82.96731074829586,241.05797576645273 83.150928709656,241.70121698142611 83.4034034066135,242.39805979767698 83.63292585837189,243.0949007072777 83.81654381984845,243.8453426315973 84.00016178120859,244.64938509673811 83.70178259396926,245.1854119966447 83.05911972885951,245.34621984657133 82.37055237358436,245.64103397453437 81.72788950870745,246.04305268995813 81.10817888879683,246.4718719536031 80.46551602391992,246.79348592757015 79.79990091372747,247.0882983803167 79.15723804885056,247.38311049176264 78.49162293877453,247.7315243652847 77.82600782846566,248.02633573231287 77.13744047330692,248.3211467579822 76.47182536323089,248.61595744238002 75.7603057626402,248.91076778565184 75.00288167176768,249.12517509362078 74.2913620712934,249.33958222111687 73.57984247081913,249.63439172675135 72.9371796058258,249.68799341839622 72.2945167409489,249.50038744835183 71.58299714047462,249.7951967678673 70.84852529480122,250.06320494398824 70.13700569432694,250.30441206149408 69.42548609385267,250.62602119607618 68.7139664933784,250.94762992454343 67.979494647705,251.29603892221348 67.24502280191518,251.59084616333712 66.5105509563582,251.88565306327655 65.79903135576751,252.23406077784603 65.08751175529324,252.55566747594276 64.35303990973625,252.8504732591391 63.6644725544611,253.14527870118036 62.93000070867129,253.4400838020083 62.24143335351255,253.73488856159383 61.55286599812098,254.05649336471106 60.864298642845824,254.3512974109035 60.12982679717243,254.6193007932161 59.41830719669815,254.88730389342527 58.66088310582563,255.2089072415256 57.97231575055048,255.5037099539477 57.2607961500762,255.8253125238407 56.52632430428639,256.14691468761885 55.81480470392853,256.46851644539856 55.17214183881879,256.7633176999807 54.43766999326181,257.0849186794658 53.72615039278753,257.3797192206839 52.991678547114134,257.72811942044063 52.28015894663986,258.022919217241 51.47683036548551,258.31771867288626 50.78826301009394,258.63931768990005 50.12264790001791,258.90731656065327 49.45703278982546,259.202114992775 48.791417679633014,259.49691308365436 48.125802569440566,259.68451169115724 47.43723521428183,260.05970849178266 46.77162010408938,260.3545055902505 46.08305274893064,260.5957029625133 45.394485393422656,260.8369001063693 44.70591803826392,261.0780970219057 43.94849394727498,261.39969255393953 43.259926592116244,261.748087255517 42.54840699164197,262.1232810166548 41.790982900653034,262.47167472864385 41.07946330017876,262.7664690358215 40.36794369970448,263.0880624364072 39.58756736374926,263.3828560302791 38.83014327287674,263.67764928305405 38.07271918200422,263.99924153339816 37.33824733644724,264.3476326796517 36.64967998105567,264.7228226121515 36.00701711617876,264.99081508268137 35.29549751558807,265.25880727134063 34.60693016031291,265.5 34.12493301159702,264.99081508268137 33.780649333959445,264.18683682521805 33.482270146603696,263.46325422401424 33.18389095936436,262.7664690358215 32.908464017207734,262.01608285555267 32.65598932025023,261.292494088324 32.3805623780936,260.56890326572466 32.10513543593697,259.81851061200723 31.829708494013175,259.06811574776657 31.53132930654101,258.37131853727624 31.255902364384383,257.64771941668005 30.842761951265857,256.9241182405094 30.475526028429158,256.28091546933865 30.13124235079158,255.61091085567023 29.809910918353125,254.96770476858364 29.419722750317305,254.2172956140421 29.00658233719878,253.49368469277397 28.61639416916296,252.79687223301153 28.295062736608088,252.1000578670937 27.973731304169632,251.4032415948459 27.629447626532055,250.70642341623898 27.262211703695357,249.98280252076802 26.91792802605778,249.28598045621766 26.55069210322108,248.56235552520957 26.22936067066621,247.86552957445383 25.885076993028633,247.1419006077922 25.494888824992813,246.3914683967305 25.173557392670773,245.66783524194034 24.82927371491678,244.9442000312265 24.484990037279204,244.24736418144312 24.163658604840748,243.57732791246963 23.865279417485,242.96089298813604 23.4980434946483,242.2908533347363 23.153759817010723,241.56720852892613 23.10785532661248,240.81675989189534 23.88823166268412,240.44153474419727 24.622703508357517,240.1467145975039 25.31127086363267,239.93229973089183 26.091647199587896,239.66428089389228 26.84907129057683,239.36945984727936 27.652399871731177,239.07463845951133 28.363919472321868,238.77981673038448 29.144295808277093,238.4849946598697 29.901719899033196,238.21697429969208 30.705048480303958,237.92215157771716 31.43952032586094,237.60052640084177 32.21989666193258,237.30570296518272 32.9773207528051,237.01087918831035 33.780649333959445,236.66245064820396 34.53807342471555,236.3944283698802 35.34140200598631,236.09960353799397 36.052921606460586,235.80477836469072 36.833297942532226,235.50995285014505 37.61367427848745,235.18832462682622 38.394050614442676,234.97390558558982 39.17442695063073,234.67907910919166 40.000707776867785,234.38425229140557 40.781084112939425,234.11622761542094 41.58441269409377,233.8750051657844 42.31888453976717,233.58017741714139 43.053356385440566,233.2317441831692 43.833732721512206,232.91011308250017 44.5682045671856,232.61528421670664 45.34858090314083,232.4008630090393 46.10600499389693,232.18644162078272 46.88638132996857,231.83800647986936 47.64380542084109,231.51637361888424 48.37827726639807,231.24834592442494 49.135701357387006,230.9803179478913 49.91607769334223,230.71228968928335 50.65054953901563,230.41745827894192 51.362069139489904,230.09582362370566 52.07358873996418,229.82779443415347 52.80806058575399,229.53296199970646 53.58843692170922,229.21132622737787 54.254052031901665,228.91649307927582 55.01147612265777,228.62165958972764 55.76890021353029,228.30002266640076 56.48041981400456,227.9515822076355 57.16898716927972,227.6567476009077 57.97231575055048,227.36191265279194 58.72973984130658,227.01347091037314 59.44125944178086,226.71863521746127 60.22163577796891,226.42379918316146 60.97905986872502,226.0753561570309 61.69057946919929,225.7269126541214 62.42505131487269,225.43207547161728 63.15952316054609,225.11043451941805 64.0317084772978,224.70838275796268 64.81208481325302,224.44034789758734 65.54655665892642,224.14550922528724 66.34988524008077,223.79706308161258 67.08435708575416,223.50222366451635 67.81882893142756,223.2341875344864 68.62215751258191,222.8857401436544 69.37958160357084,222.51048857418937 70.13700569432694,222.18884393159533 70.84852529480122,221.8940026522905 71.58299714047462,221.57235723087797 72.34042123123072,221.25071140323416 73.07489307690412,220.92906516933 73.83231716777664,220.55381071619922 74.54383676836733,220.2857714824786 75.30126085912343,220.12494780679117 75.89801923371851,219.77649616103736 75.7603057626402,219.05278737322078 75.25535636872519,218.35588067030767 74.97992942668498,217.6053636263532 74.72745472972747,216.8816486672731 74.45202778757084,216.1311272776802 74.19955309061334,215.3537992204947 73.92412614845671,214.54966425022576 73.69460369681474,213.74552674015285 73.41917675465811,213.02180080956896 73.14374981250148,212.2980728217808 72.86832287034485,211.5475379207346 72.59289592830464,210.8238057421695 72.34042123123072,210.0732664950192 72.01908979879227,209.13508932464174 71.72071061155293,208.25051911183982 71.4452836693963,207.47316699367366 71.1928089724388,206.74942323268624 70.89442978519946,205.94526108520222 70.59605059784371,205.27512402186403 69.93043548765127,205.08748532805475 69.26482037757523,205.3823460705753 68.62215751258191,205.73081741688657 67.84178117662668,206.02567741426174 67.10730933083687,206.2401208342635 66.32693299488164,206.50817485517473 65.52360441361088,206.1060937179136 65.1563684908906,205.4091515756445 64.88094154873397,204.65859636568348 64.58256236149464,203.8812332797097 64.44484889041632,203.07706207217416 64.1694219482597,202.35330581344897 63.93989949661773,201.62954749714117 63.71037704474293,200.85217516167904 63.52675908326637,200.1820246913412 63.32018887670711,199.37784179815208 63.0677141797496,198.60046258661896 62.86114397319034,197.8230810011737 62.63162152143195,196.9920842673164 62.42505131487269,196.18789129675133 62.17257661791518,195.5177285472746 61.94305416604038,194.76714417318 61.713531714282,193.98975088112638 61.5758182433201,193.45361619300093 62.21848110819701,193.2659687853884 63.15952316054609,193.07832123944536 63.893995006219484,193.2391620016133 64.65141909697559,193.18554842550657 65.17932073608972,193.15874163326225 65.75312686548568,193.29277556634042 66.32693299488164,193.3731958924327 67.15321382123511,193.40000266215065 68.04835138318595,193.3463891199208 68.80577547394205,193.3463891199208 69.63205630041193,193.3463891199208 70.32062365568709,193.15874163326225 70.9403342755977,192.99790082027903 71.60594938567374,193.02470762946177 72.47813470230903,193.02470762946177 73.23555879318155,192.83705990569433 73.76346043229569,192.4885709087539 74.36021880689077,192.00604689464672 75.0258339169668,191.63074980684905 75.48487882048357,191.25545216567116 75.92097147903405,190.96057505940553" stroke="#ffff00" stroke-linecap="round" stroke-linejoin="round" stroke-width="0.5"><title>2025-01-04 11.3km</title><desc>400791017</desc></polyline><polyline fill="none" points="106.41091549303383,228.3189306789136 105.64084507047664,227.21837675228016 105.69788732391316,227.0182756255963 105.09894366201479,226.28457040793728 104.78521126764826,225.5842138347507 104.81373239448294,224.717103541072 105.12746478884947,223.88334139442304 105.21302816912066,223.21633008948993 105.27007042255718,222.5493173734285 105.09894366201479,221.84895250276895 104.92781690135598,221.01518277113792 104.64260563382413,220.18141083442606 104.5,219.41433870527544 104.78521126764826,218.91407326768967 105.12746478884947,218.2804025739315 105.44119718309958,217.7801353370014 106.15422535210382,217.74678415968083 106.83873239438981,217.7801353370014 107.4376760564046,217.68008179438766 108.17922535224352,217.9802423270594 109.0348591550719,218.2804025739315 109.80492957739625,218.48050924637937 110.54647887323517,218.74731794552645 111.17394366196822,219.04747746209614 111.6302816902753,219.58109367481666 112.17218309862074,220.14805991121102 113.1989436619915,220.18141083442606 114.19718309864402,220.54827075829962 114.51091549289413,221.41539251757786 114.85316901409533,222.01570618452388 115.39507042255718,222.3492132834217 116.07957746484317,222.81612262915587 116.792605633731,223.14962888127775 117.6482394366758,223.28303128344123 118.90316901402548,223.04957704272238 119.90140845067799,223.38308304792736 120.414788732538,223.7832897885528 121.27042253524996,224.08344451067387 121.72676056344062,224.2835474999738 121.92640845070127,224.38359894699533 122.55387323931791,224.85050527993008 123.55211267608684,225.11730858829105 124.66443661961239,225.15065898600733 125.52007042255718,225.41746204043739 126.09049295785371,225.68426486910903 126.6038732395973,225.91771715888171 127.00316901423503,226.08446868872852 127.83028169034515,226.3179206822242 128.37218309869058,226.45132174377795 128.7714788733283,226.55137250284315 129.65563380287495,226.78482415067265 130.31161971832626,227.18502657327917 130.93908450717572,227.75197913582087 131.7091549296165,228.3522807379195 132.82147887325846,228.2522305502789 133.9623239437351,227.6852788872784 134.6183098591864,227.28507709954283 135.24577464791946,227.55187834781827 135.78767605638131,227.88537959064706 135.67359154927544,228.55238101797295 136.27253521140665,228.11883025072166 136.8144366197521,227.51852820406202 137.32781690149568,226.85152458961238 137.84119718312286,226.21786984897335 138.32605633803178,225.55086348290206 138.8964788733283,224.98390696238494 139.46690140850842,224.38359894699533 140.12288732395973,223.81664032733534 140.77887323941104,223.28303128344123 141.4063380282605,222.7827719845809 142.00528169015888,222.11575835128315 142.575704225339,221.41539251757786 143.37429577473085,221.11523525533266 144.05880281701684,220.54827075829962 144.68626760563347,220.14805991121102 145.37077464803588,219.58109367481666 146.0838028169237,219.0808285018138 146.8538732394809,218.68061579184723 147.62394366203807,218.31375369484886 148.42253521131352,217.8801888479211 149.1926056338707,217.51332581945462 149.99119718314614,217.213164842251 150.78978873242158,216.87965231016278 151.55985915509518,216.6128420305031 152.32992957741953,216.24597752722912 153.1855633802479,215.97916671124403 154.0411971830763,215.67900427343557 154.83978873235174,215.37884154968197 155.83802816900425,215.07867854027427 156.83626760565676,214.74516375016537 157.8915492958622,214.3449455361988 158.88978873251472,214.04478154232493 159.77394366194494,213.77796886349097 160.68661971844267,213.4111010612687 161.77042253524996,213.11093617824372 162.62605633807834,212.81077100950642 163.42464788735379,212.5439572861651 164.4228873240063,212.24379157749354 165.25,211.9436255831679 166.1056338029448,211.61010747629916 166.90422535222024,211.27658901672112 167.78838028176688,210.9430702041427 168.67253521131352,210.60955103882588 169.49964788742363,210.24267954941024 170.32676056353375,209.8758076329541 171.4390845070593,209.24211877182825 172.23767605633475,208.80854144858313 173.09330985927954,208.47502002492547 173.891901408555,208.14149824847118 174.74753521126695,207.87468057317892 175.60316901421174,207.60786267204094 176.43028169032186,207.2076353970042 177.2288732394809,206.80740761384368 178.02746478875633,206.47388407291146 178.82605633803178,206.10700777050806 179.59612676070537,205.87354081013473 180.25211267604027,206.40717932247208 180.45176056353375,207.2743399781175 180.62288732395973,208.14149824847118 180.79401408450212,209.0086541333876 180.93661971832626,209.8758076329541 181.0792253522668,210.74295874722884 181.22183098597452,211.61010747629916 181.3359154930804,212.5106055548822 181.4785211267881,213.3777494217502 181.62112676061224,214.3449455361988 181.7352112677181,215.2454358030518 181.84929577470757,216.17927484441316 182.19154929590877,216.97970610688208 182.4767605633242,217.8801888479211 182.647887323983,218.7806690169964 182.8190140845254,219.6811466140789 182.96161971834954,220.5816216392559 183.0757042254554,221.4820940924983 183.332394366269,222.41591466081445 183.56056338036433,223.34973246330628 183.70316901407205,224.21684651769465 183.81725352117792,225.11730858829105 184.01690140843857,226.05111838976154 184.21654929581564,226.98492542549502 184.41619718330912,227.98542989467387 184.58732394361869,228.9525811970234 184.7584507042775,229.91972953273216 184.9295774648199,230.75347571689053 185.10070422536228,231.68726882577175 185.44295774656348,232.5543599507364 185.4144366197288,233.48814772619517 184.72992957744282,234.08843840737245 183.81725352117792,234.08843840737245 182.99014084518421,234.1884867430781 182.07746478868648,234.38858331934898 181.22183098597452,234.6887279456132 180.3091549295932,234.8888242043613 179.42500000004657,235.02222163966508 178.51232394366525,235.22231768688653 177.6566901409533,235.45576291473117 176.74401408457197,235.68920796975726 175.8883802817436,235.95600210665725 174.97570422536228,236.25614524103003 174.00598591554444,236.62298646158888 173.15035211271606,236.98982725528185 172.23767605633475,237.32331851567142 171.2964788733516,237.6234603484627 170.41232394368853,237.92360189542524 169.41408450715244,238.12369610142196 168.5014084506547,238.39048817858566 167.73133802821394,238.65728003002005 166.6760563380085,238.72397795761935 165.8204225351801,239.02411845701863 164.96478873235174,239.29090977238957 164.05211267608684,239.65774746233365 163.19647887325846,240.15797998808557 162.3123239435954,240.5248166694364 161.42816901404876,240.824955454882 160.57253521122038,241.15844265909982 159.8309859156143,241.49192951066652 159.00387323950417,241.82541600969853 158.11971830995753,242.05885634908918 157.3781690141186,242.29229651554488 156.49401408457197,242.7258277949877 155.55281690135598,243.05931298903306 154.6401408452075,243.2927524149418 153.6989436619915,243.4928432138986 152.7862676057266,243.6929338859336 151.81654929579236,243.9263728427468 150.87535211269278,244.02641805718304 149.99119718314614,244.09311484900536 148.99295774649363,244.1264632397215 148.08028169011232,244.05976645482588 146.99647887330502,243.99306965596043 145.82711267611012,243.6929338859336 144.62922535219695,243.35944936206215 143.7450704225339,242.89257043614634 142.51866197190247,242.42569081886904 141.4063380282605,242.0922049547371 140.4936619718792,241.72537009691587 139.58098591549788,241.45858084139763 138.61126760568004,241.15844265909982 137.7271126761334,240.824955454882 136.8714788731886,240.5248166694364 135.9588028169237,240.2246775983367 134.9605633803876,239.95788707304746 134.0478873240063,239.62439859914593 133.19225352129433,239.35760756596574 132.05140845070127,238.9574205930403 131.33838028169703,238.49053514937987 131.30985915497877,237.6234603484627 130.96760563389398,236.85643065243494 131.30985915497877,235.8893035936635 131.6806338027818,235.05557098967256 132.13697183097247,234.15513730133534 132.56478873232845,233.22135150115355 133.04964788723737,232.35426221042871 133.62007042265031,231.3871213424136 134.190492957714,230.65342629113002 134.73239436629228,229.91972953273216 135.35985915502533,229.11933112170664 136.01584507047664,228.3522807379195 136.70035211264621,227.65192875772482 137.3848591549322,226.88487480388721 137.983802816947,226.05111838976154 138.63978873251472,225.25071015793947 139.3242957746843,224.58370174578158 140.03732394357212,223.9166919225827 140.77887323941104,223.28303128344123 141.46338028181344,222.6827200294647 142.11936619726475,222.04905691029853 142.86091549310368,221.34869092836743 143.60246478882618,220.84842856012983 144.42957746470347,220.28146358329104 145.2566901408136,219.81455048374482 146.05528169020545,219.21423262555618 146.91091549303383,218.71396687044762 147.88063380285166,218.21370032150298 148.8503521127859,217.74678415968083 149.79154929576907,217.31321853303234 150.84683098597452,216.87965231016278 151.7880281690741,216.54613942527794 152.72922535205726,216.14592349773739 153.78450704237912,215.7790584510658 154.92535211273935,215.37884154968197 155.98063380282838,215.04532707715407 156.9788732394809,214.71181225168402 158.00563380285166,214.3449455361988 159.00387323950417,214.01142996989074 160.00211267615668,213.74461726276786 161.00035211257637,213.4111010612687 161.97007042262703,213.04423283220967 162.8542253522901,212.7440675998223 163.88098591554444,212.44390208169352 164.7651408452075,212.11038450422348 165.64929577463772,211.77686657378217 166.64753521129023,211.40999644281692 167.64577464794274,211.0097739948833 168.58697183104232,210.64290297121624 169.58521126769483,210.14262361457804 170.58345070423093,209.67569549861946 171.55316901404876,209.20876669115387 172.46584507043008,208.74183719209395 173.40704225364607,208.2749070013524 174.43380281701684,207.97473722789437 175.4605633803876,207.60786267204094 176.3732394366525,207.2076353970042 177.3144366198685,206.74070293383556 178.28415492968634,206.30712217019754 179.25387323950417,205.87354081013473 180.19507042260375,206.173712584452 180.45176056353375,207.14093080171733 180.6514084507944,208.20820263199857 180.85105633805506,209.24211877182825 181.05070422543213,210.276031520596 181.19330985913984,211.30994087850559 181.3359154930804,212.3104950929992 181.4785211267881,213.31104613206116 181.5640845070593,214.24489090335555 181.70669014099985,215.21208435751032 181.8207746478729,216.21262618756737 182.22007042262703,217.14646236406406 182.50528169015888,218.24705144946347 182.6764084508177,219.21423262555618 182.9045774647966,220.31481449256535 183.10422535217367,221.31534012855263 183.36091549298726,222.41591466081445 183.56056338036433,223.41643362905597 183.73169014090672,224.6504026504408 183.95985915500205,225.81766619870905 184.18802816898096,226.8181743719033 184.35915492963977,227.71862901328132 184.53028169018216,228.71913115429925 184.7584507042775,229.78632993862266 184.95809859165456,230.78682551847305 185.1862676057499,231.787317923503 185.44295774656348,232.75445756403496 185.1577464787988,233.75494372559479 184.18802816898096,234.12178785612923 183.18978873244487,234.1884867430781 182.19154929590877,234.32188447471708 181.19330985913984,234.62202916442766 180.28063380275853,234.8888242043613 179.16830985923298,235.0889203362167 178.22711267624982,235.28901634106296 177.25739436631557,235.55581081658602 176.34471830981784,235.78925579751376 175.14683098590467,236.18944679145352 174.1200704225339,236.5896372772113 173.15035211271606,236.9564781098743 172.2091549297329,237.2899694055668 171.2964788733516,237.6234603484627 170.4408450704068,237.95695093867835 169.41408450715244,238.15704512342927 168.5014084506547,238.4571861626173 167.67429577477742,238.72397795761935 166.6760563380085,239.25756087026093 165.73485915490892,239.59104973229114 164.65105633821804,239.92453824152471 163.62429577473085,240.05793354651541 162.71161971834954,240.42477034410695 161.85598591552116,240.75825797163998 160.91478873242158,241.05839653487783 159.973591549322,241.45858084139763 159.0609154929407,241.8587646401429 158.0626760564046,242.05885634908918 157.15000000002328,242.32564509668737 156.26584507047664,242.75917633023346 155.23908450698946,243.09266148897586 154.24084507056978,243.39279783028178 153.38521126762498,243.52619166809018 152.41549295780715,243.75963074836181 151.41725352103822,243.99306965596043 150.50457746477332,244.09311484900536 149.53485915495548,244.15981162685785 148.5936619718559,244.09311484900536 147.65246478887275,244.02641805718304 146.65422535222024,243.9263728427468 145.77007042255718,243.72628231885028 144.9144366197288,243.42614629495074 144.05880281701684,243.02596448548138 143.23169014090672,242.6924792562495 142.29049295792356,242.39234224837855 141.46338028181344,242.0922049547371 140.60774647898506,241.79206737564527 139.6665492958855,241.49192951066652 138.7253521126695,241.15844265909982 137.86971830984112,240.8583041911188 136.90000000002328,240.5248166694364 135.98732394364197,240.25802639810718 135.13169014093,239.95788707304746 134.2190140845487,239.62439859914593 133.2778169014491,239.35760756596574 132.42218309862074,239.09081630711444 131.5380281690741,238.72397795761935 131.4524647888029,237.89025284879608 130.91056338034105,237.2899694055668 131.08169014088344,236.4562405050674 131.48098591563758,235.62250940030208 131.85176056344062,234.855474836746 132.2225352114765,233.9883900398272 132.65035211271606,233.15465240957565 133.13521126762498,232.38761184268515 133.59154929593205,231.5538699796307 134.10492957744282,230.78682551847305 134.6468309860211,230.11982881801669 135.18873239436653,229.3194309149112 135.78767605638131,228.68578113411786 136.15845070430078,227.9187296954624 135.84471830993425,227.51852820406202 134.6183098591864,227.55187834781827 133.8767605633475,227.6852788872784 133.16373239445966,227.8186793702771 132.07992957741953,227.65192875772482 131.13873239431996,227.45182790618856 130.31161971832626,227.08497601526324 129.5130281690508,226.78482415067265 128.6859154929407,226.5180222533818 127.83028169034515,226.2512201302743 126.66091549303383,225.91771715888171 126.03345070430078,225.61756418304867 125.03521126764826,225.51751312764827 124.20809859153815,225.31741092144512 123.3239436619915,225.08395818714052 122.52535211271606,224.6504026504408 121.69823943672236,224.38359894699533 120.72852112678811,224.11679501773324 119.95845070434734,223.88334139442304 119.13133802835364,223.58318648173008 118.36126760568004,223.34973246330628 117.5626760564046,223.01622642282746 116.73556338029448,222.6827200294647" stroke="#ffe500" stroke-linecap="round" stroke-linejoin="round" stroke-width="0.5"><title>2025-01-02 12.3km</title><desc>400714083</desc></polyline></svg>