<?xml version="1.0" encoding="utf-8" ?>
<svg baseProfile="full" height="300mm" version="1.1" viewBox="0,0,200,300" width="200mm" xmlns="http://www.w3.org/2000/svg" xmlns:ev="http://www.w3.org/2001/xml-events" xmlns:xlink="http://www.w3.org/1999/xlink"><defs /><rect fill="#222222" height="300" width="200" x="0" y="0" /><text fill="#FFFFFF" style="font-size:12px; font-family:Arial; font-weight:bold;" x="10" y="20">Over 4 km Runs</text><text fill="#FFFFFF" style="font-size:4px; font-family:Arial" x="10" y="280">ATHLETE</text><text fill="#FFFFFF" style="font-size:9px; font-family:Arial" x="10" y="290">lizhimiao</text><text fill="#FFFFFF" style="font-size:4px; font-family:Arial" x="120" y="280">STATISTICS</text><text fill="#FFFFFF" style="font-size:3px; font-family:Arial" x="120" y="285">Number: 6</text><text fill="#FFFFFF" style="font-size:3px; font-family:Arial" x="120" y="290">Weekly: 2.0</text><text fill="#FFFFFF" style="font-size:3px; font-family:Arial" x="141" y="285">Total: 29.9 km</text><text fill="#FFFFFF" style="font-size:3px; font-family:Arial" x="141" y="290">Avg: 5.0 km</text><text fill="#FFFFFF" style="font-size:3px; font-family:Arial" x="167" y="285">Min: 4.1 km</text><text fill="#FFFFFF" style="font-size:3px; font-family:Arial" x="167" y="290">Max: 6.1 km</text><polyline fill="none" points="78.0546075082384,94.34509982378222 85.67235494870692,81.65524945012294 81.57679180847481,76.97526874952018 66.25938566541299,68.42525407648645 59.87030716659501,66.26524015760515 57.822525596711785,67.79525044222828 55.77474402729422,75.89527045737486 53.56313993129879,75.17527102376334 50.204778156708926,77.60526727768593 52.744027303531766,72.0252681208076 53.80887371953577,62.755208753980696 49.46757679153234,59.24516647297423 42.50511945364997,56.27512220072094 37.017064846120775,51.59503663214855 25.79522184235975,46.10491160454694 24.07508532423526,45.92490705451928 22.10921501647681,48.894978468772024 14.491467576473951,66.80524402356241 36.935153583064675,76.79526910581626 51.76109214965254,81.47525054984726 53.15358361741528,78.0552660120884 52.744027303531766,74.18527105532121 54.79180887341499,63.02521155588329 25.38566552847624,45.7449024762027 23.747440272476524,46.194913868559524 20.716723549179733,51.59503663214855 14.409556313417852,66.71524339716416 28.989761092234403,73.64527070778422 50.204778156708926,81.83524832164403 51.76109214965254,81.47525054984726 53.97269624564797,61.855198949575424 46.76450511952862,58.70515900279861 35.46075085317716,50.875021751387976 29.563139931298792,48.894978468772024 28.088737200945616,46.64492508233525 23.91126279812306,45.654900176101364 14.0,66.3552408197429 30.136518771294504,74.18527105532121 29.317406143061817,78.77526361483615 33.74061433412135,80.75525466317777 35.05119453929365,77.42526773409918 30.95563139906153,75.62527072336525 29.15358361741528,78.59526425716467 30.546075085178018,79.67525997490156 33.904436860233545,80.30525700154249 35.706484641414136,76.16527012677398 50.77815699623898,81.11525266373064 52.33447098964825,75.89527045737486 56.51194539247081,73.82527085230686 57.249146757647395,66.17523948824964 59.87030716659501,65.45523387601133 81.65870307153091,75.89527045737486 85.34470989741385,75.98527035431471 86.0,77.60526727768593 84.03412969224155,84.26523028826341" stroke="#ff0000" stroke-linecap="round" stroke-linejoin="round" stroke-width="0.5"><title>2021-12-15 6.1km</title></polyline><polyline fill="none" points="180.93303064676002,92.8531450034352 185.754824063275,82.7063286663033 185.18274687835947,80.19205920724198 180.2792281494476,78.39614902622998 178.56299659470096,76.15125728643034 159.27582292817533,67.80022086587269 157.2326901247725,69.41655531164724 155.59818388149142,76.15125728643034 153.14642451703548,75.88186997827142 155.189557320904,66.45327372825705 154.45402951166034,64.83693504380062 126.74914869433269,47.32645110972226 123.56186152016744,47.59584522538353 114.32690124819055,67.08184925885871 114.0,68.87777742010076 125.0329171391204,76.3308487898903 133.61407491425052,77.13901020144112 149.71396140707657,83.42469034157693 151.18501702556387,82.7063286663033 154.20885357493535,70.67370272718836 154.45402951166034,65.01652834517881 149.22360953409225,59.898108073160984 124.95119182718918,47.14685499668121 114.40862656012177,68.42879564722534 123.48013620870188,75.07370766764507 151.34846764989197,83.60428068903275 151.7570942104794,78.21655785106122 153.88195232627913,79.83287739939988 157.39614074863493,72.29003306326922 157.39614074863493,68.87777742010076 159.60272417683154,67.97981369623449 164.17934165662155,69.32675901427865 181.09648127108812,78.66553573531564 185.10102156596258,79.47369547723792 186.0,81.89817123592366" stroke="#fff800" stroke-linecap="round" stroke-linejoin="round" stroke-width="0.5"><title>2021-12-13 4.2km</title></polyline><polyline fill="none" points="80.3032967033796,172.86379578255583 86.0,161.82327853539027 85.60439560422674,159.2152660691645 60.997802197467536,147.13139384356327 59.25714285718277,147.73993736307602 58.070329669862986,151.13038791675353 53.95604395586997,169.47341257467633 59.33626373624429,147.13139384356327 30.457142856903374,128.26637685345486 25.947252746671438,128.26637685345486 18.589010988827795,143.21932028088486 17.16483516478911,148.87008871510625 25.630769230425358,154.34695949906018 33.780219779815525,155.65097231144318 48.892307692207396,162.4318138830713 52.05714285699651,162.51874747645343 56.01318681286648,147.3921982505126 55.53846153849736,144.87108638038626 46.20219780225307,137.4815870843595 34.88791208760813,131.91769585269503 29.50769230769947,127.13620421744417 26.02637362619862,128.3533131618169 18.668131867889315,142.6107742471504 16.92747252760455,147.91380687773926 20.32967032957822,150.6087808230077 16.45274725276977,148.78315403702436 14.0,153.5645510655595 16.92747252760455,156.7811154917581 40.90109890140593,168.60408185474807 48.180219780188054,171.21207194234012 50.3956043953076,169.90807767567458 54.905494505073875,153.99922248662915 55.93406593427062,145.21882629406173 48.021978022065014,138.8725554710254 44.5406593400985,137.8293293469469 28.320879120379686,127.74475885898573 25.789010988548398,128.17944053839892 24.127472527325153,131.04833529156167 16.53186813183129,149.13089270726778 24.602197802159935,153.47761676064692 27.134065933991224,153.042945132358 30.615384615026414,155.73790644377004 35.83736263727769,156.69418144231895 45.173626373521984,161.12780915218173" stroke="#ff4300" stroke-linecap="round" stroke-linejoin="round" stroke-width="0.5"><title>2021-12-12 5.6km</title></polyline><polyline fill="none" points="178.22727272752672,168.0919004229363 185.48863636422902,153.2589332307689 185.1818181821145,148.9888077765936 176.59090909175575,143.25782966730185 164.11363636422902,140.89800840162206 160.94318181835115,141.68461592763197 155.42045454587787,135.61648939573206 151.53409090964124,134.04326715588104 149.89772727293894,135.72886234603357 143.35227272752672,161.46203279832844 143.55681818258017,166.85582576529123 140.79545454587787,167.97953004436567 142.8409090912901,168.0919004229363 143.86363636422902,165.73212059342768 144.78409090964124,153.9331623868784 151.22727272752672,134.82987849449273 157.87500000046566,135.72886234603357 178.43181818258017,146.29187979456037 186.0,146.62899607350118 148.15909090964124,129.09884300804697 141.61363636422902,154.71976266324054 133.9431818188168,150.67438515392132 123.71590909129009,148.08983235398773 120.95454545505345,148.9888077765936 116.96590909129009,146.62899607350118 115.0227272734046,147.3032283905195 114.61363636376336,151.79810228955466 120.44318181835115,154.04553388175555 121.97727272799239,148.6516920600552 115.94318181881681,146.62899607350118 114.71590909129009,151.01150038838387 119.52272727293894,153.59604784916155 122.18181818211451,149.66303896869067 116.86363636422902,146.17950768372975 114.81818181881681,148.08983235398773 114.92045454587787,151.6857306160964 119.82954545505345,153.48367631842848 122.48863636422902,148.9888077765936 115.53409090964124,146.96611227223184 114.71590909129009,151.4609872425208 119.82954545505345,153.59604784916155 122.3863636367023,148.9888077765936 117.57954545505345,146.85374021495227 115.84090909129009,148.08983235398773 114.92045454587787,150.00015444413293 119.42045454634354,153.37130477908067 121.56818181881681,152.69707535486668 122.59090909129009,149.5506671256153 116.7613636367023,146.62899607350118 114.81818181881681,147.52797242463566 114.0,150.78675690758973 120.0340909101069,153.59604784916155 122.3863636367023,149.77541080268566 120.75000000046566,148.53932013676967 123.71590909129009,147.97746038611513 140.07954545505345,154.04553388175555 143.55681818258017,144.83104165678378 147.95454545505345,147.07848432054743 151.0227272734046,134.15564023086336 155.42045454587787,134.6051324425498 185.6931818188168,149.43829527380876 183.54545454634354,157.86615939275362 176.89772727293894,170.90115699195303" stroke="#ff8c00" stroke-linecap="round" stroke-linejoin="round" stroke-width="0.5"><title>2021-12-11 5.0km</title></polyline><polyline fill="none" points="35.939929047832265,194.11085982067743 38.03235340025276,194.0 38.593735543312505,200.31898359878687 38.33856184175238,216.33792254998116 39.257187167182565,228.47661363502266 39.563395608915016,265.5011785267852 43.391001131385565,266.0 44.81997385970317,265.44575389823876 47.06550243287347,261.06719528872054 45.94273814605549,256.2452087486745 45.84066866571084,242.44417928729672 47.524815095588565,241.11394615384052 59.262805364094675,241.05851972202072 60.38556965067983,251.31233984802384 64.06007095216773,259.29359465040034 62.6310982236173,263.06249099131674 58.85452744155191,264.94693205616204 56.14968620589934,265.44575389823876 45.48342548357323,264.5589592829929 44.717904379125684,265.2794799878029 40.83926411648281,265.61202777182916 39.51236086874269,265.0023567217286 39.81856931047514,233.40963282296434 38.64477028371766,221.93615610909183 38.746839764295146,198.48980961635243 38.236492361174896,195.49660619464703 38.287527101580054,199.9864068432944 38.440631322562695,194.27714952093083 36.19510274915956,194.16628972475883" stroke="#ff9500" stroke-linecap="round" stroke-linejoin="round" stroke-width="0.5"><title>2021-12-05 4.9km</title></polyline><polyline fill="none" points="146.7744582432788,194.1708940450917 151.59965891996399,194.22785871842643 152.4912720886059,266.0 153.2255417567212,262.75330945377937 152.91085475613363,226.58311222068733 152.1765850877855,223.9058805052773 151.80945025361143,194.0 151.70455458690412,223.2792930153082 152.4912720886059,225.7286775779794 151.65210675331764,195.8228678588639" stroke="#ffff00" stroke-linecap="round" stroke-linejoin="round" stroke-width="0.5"><title>2021-12-04 4.1km</title></polyline></svg>