<?xml version="1.0" encoding="utf-8" ?>
<svg baseProfile="full" height="300mm" version="1.1" viewBox="0,0,200,300" width="200mm" xmlns="http://www.w3.org/2000/svg" xmlns:ev="http://www.w3.org/2001/xml-events" xmlns:xlink="http://www.w3.org/1999/xlink"><defs /><rect fill="#222222" height="300" width="200" x="0" y="0" /><text fill="#FFFFFF" style="font-size:12px; font-family:Arial; font-weight:bold;" x="10" y="20">Over 4 km Runs</text><text fill="#FFFFFF" style="font-size:4px; font-family:Arial" x="10" y="280">ATHLETE</text><text fill="#FFFFFF" style="font-size:9px; font-family:Arial" x="10" y="290">lizhimiao</text><text fill="#FFFFFF" style="font-size:4px; font-family:Arial" x="120" y="280">STATISTICS</text><text fill="#FFFFFF" style="font-size:3px; font-family:Arial" x="120" y="285">Number: 11</text><text fill="#FFFFFF" style="font-size:3px; font-family:Arial" x="120" y="290">Weekly: 1.8</text><text fill="#FFFFFF" style="font-size:3px; font-family:Arial" x="141" y="285">Total: 60.6 km</text><text fill="#FFFFFF" style="font-size:3px; font-family:Arial" x="141" y="290">Avg: 5.5 km</text><text fill="#FFFFFF" style="font-size:3px; font-family:Arial" x="167" y="285">Min: 4.1 km</text><text fill="#FFFFFF" style="font-size:3px; font-family:Arial" x="167" y="290">Max: 7.2 km</text><polyline fill="none" points="61.08893956663087,78.70639833546011 67.0,67.88188837858615 66.01482326094992,65.58166228537448 59.795895096845925,63.416737932828255 46.61915621440858,56.58365933998721 45.44925883668475,57.26020422112197 44.40250855195336,63.822661668178625 40.33865450369194,62.60488988162251 42.30900798155926,61.928349247493315 43.417331813136116,55.36587719991803 39.6613454958424,51.84783012169646 21.743443557526916,41.42891311371932 19.896237172186375,41.699535947758704 13.123147092061117,57.26020422112197 21.18928164173849,63.281429978087544 25.253135689999908,63.552045866206754 39.6613454958424,68.55842428235337 39.29190421872772,69.23495964845642 34.181299885967746,66.79942981473869 32.334093500627205,71.4675225430401 32.8882554161828,72.54997517279116 36.02850627130829,74.17365153710125 39.168757126433775,71.5351758725592 41.446978335268795,65.71696987451287 43.725199543870986,55.70415019139182 39.784492588369176,51.30659081926569 34.612314709229395,49.34459546441212 20.511972633888945,41.36125739180716 13.0,56.98958633322036 18.541619156254455,62.13131149421679 23.529076396720484,64.02562346326886 32.27251995448023,65.31104704237077 37.87571265664883,68.15250280464534 40.523375142598525,68.49077071622014 43.90992018231191,56.448350299499 43.417331813136116,55.23056796571473 40.33865450369194,53.47154596407199 40.46180159621872,52.52437876566546 37.56784492568113,51.84783012169646 21.558722919085994,41.36125739180716 20.388825541594997,41.631880247208755 19.40364880254492,43.45858227100689 13.246294184820727,57.66613089147722 19.773090079892427,62.80785196699435 40.33865450369194,68.28780998545699 42.801596350967884,59.96637836872833 42.370581527939066,56.78662286075996 37.13683010241948,50.291766200214624 24.883694412652403,42.98499323381111 21.250855188118294,41.29360166453989 20.204104902921245,41.97015869547613 13.3078677309677,57.80143973877421 22.974914480932057,63.619699824776035 29.440136830089614,64.63450855849078 40.215507411630824,68.49077071622014 41.139110604301095,64.63450855849078 43.97149372845888,64.36389301455347 44.40250855195336,63.552045866206754 45.44925883668475,58.07205736846663 49.26681870012544,58.07205736846663" stroke="#ff0000" stroke-linecap="round" stroke-linejoin="round" stroke-width="0.5"><title>2022-01-07 7.2km</title></polyline><polyline fill="none" points="89.20941098732874,33.0 91.64968553441577,33.41413024638314 91.80220269365236,50.84873569276533 92.5647884896025,59.29666277806973 92.71730564860627,80.95424659422133 92.29788346099667,83.02471743710339 92.75543493847363,86.21322756560403 95.61513167317025,87.0 97.21656184480526,85.75772722996771 98.13166479975916,82.73485197991249 97.36907900380902,81.82384528042166 97.21656184480526,79.71196041445364 97.21656184480526,69.48369945722516 98.77986272634007,68.32420869357884 107.9308922777418,68.44843996167765 107.2826943511609,73.16920772756566 108.42657304508612,77.31019932008348 110.71433043293655,80.83001810021233 110.79058901267126,82.15512061535264 109.9517446369864,84.55686093319673 107.39708222076297,86.50309122269391 98.70360414683819,86.4616821379168 98.39856982859783,85.05377143720398 97.55972545291297,85.01236224538297 97.25469113467261,85.79913636675337 97.9791476407554,86.0475911226822 98.5510869876016,85.46786318716477 97.67411332228221,84.8053162402648 97.59785474278033,85.84054550033761 98.43669911823235,85.21940817389986 97.67411332228221,84.97095305056428 97.71224261214957,86.0475911226822 98.5510869876016,85.71631809012615 97.8266304815188,84.97095305056428 96.22520031011663,86.5445003042114 93.40363286505453,86.66872753074858 92.4885299098678,86.00618200437748 92.52665919973515,57.35033793572802 91.87846127315424,52.17390915451688 91.68781482405029,33.45554325424018 91.61155624454841,54.4101322593051 92.1834955913946,56.066588060348295 91.80220269365236,40.16441006885725" stroke="#ff5b00" stroke-linecap="round" stroke-linejoin="round" stroke-width="0.5"><title>2022-01-01 6.1km</title></polyline><polyline fill="none" points="180.68348623882048,78.16726574877976 181.92201834870502,78.50746929674642 184.0275229359977,75.64975529519143 186.62844036705792,70.07038142823149 187.0,66.73634798603598 167.3692660550587,56.18983019585721 166.06880733929574,57.074381839483976 164.64449541294016,63.60642722802004 162.10550458729267,63.67446910531726 163.46788990823552,54.9650648732204 142.7844036698807,41.96883603098104 140.05963302752934,41.96883603098104 133.24770642188378,55.84961778199067 133.18577981670387,57.82284790102858 143.03211009176448,63.60642722802004 145.1995412844699,63.81055284343893 144.51834862376563,67.62088873580797 147.8004587155301,68.98171887430362 148.97706422000192,66.3961397621315 145.69495412823744,64.15076209470863 144.95183486235328,67.07655607478227 147.92431192635559,68.70955301966751 148.85321100917645,66.3961397621315 145.50917431199923,64.35488758055726 144.95183486235328,67.48480560298776 147.61467889905907,68.64151154237334 148.97706422000192,66.19201476301532 146.06651376164518,64.4909712105291 144.58027522917837,66.73634798603598 147.42889908258803,68.57347005978227 148.17201834870502,68.57347005978227 149.1628440367058,65.9198480215855 145.4472477065865,64.28684575727675 144.51834862376563,66.9404728555819 147.67660550470464,68.70955301966751 148.6674311927054,65.6476811938337 145.756880733883,64.21880392864114 144.95183486235328,65.3074725374463 144.70412844070233,66.80438961467007 147.61467889905907,68.57347005978227 148.97706422000192,65.78376461856533 145.4472477065865,64.96726374590071 144.64220183482394,66.9404728555819 146.99541284400038,68.50542857183609 148.23394495411776,68.23326256580185 150.1536697249394,65.03530551493168 160.30963302752934,68.70955301966751 164.02522935788147,56.938297030632384 163.28211009153165,55.101149995520245 148.04816513787955,44.758619058469776 145.38532110094093,44.07818501180736 141.66972477082163,41.49253070325358 140.24541284400038,41.69666159048211 133.0,57.00633943773573 144.02293577953242,62.85796622134512 159.81422018352896,68.70955301966751 160.92889908258803,68.1652210506727 163.77752293576486,56.938297030632384 163.46788990823552,54.89702230383409 141.73165137623437,41.69666159048211 140.49311926588416,41.62861796678044 133.18577981670387,56.462000029627234 133.43348623858765,57.68676321132807 135.53899082541466,59.18369360989891 143.5894495411776,63.470343457360286 148.54357798187993,64.21880392864114 160.49541284400038,69.1858432085719 162.04357798141427,63.60642722802004 162.47706422023475,62.85796622134512 163.15825688070618,66.19201476301532 165.94495412847027,57.68676321132807 167.05963302752934,56.938297030632384 185.88532110094093,65.6476811938337" stroke="#ff0900" stroke-linecap="round" stroke-linejoin="round" stroke-width="0.5"><title>2021-12-24 7.1km</title></polyline><polyline fill="none" points="64.29076396790333,135.89879333693534 67.0,130.35121479444206 65.89167616865598,128.05098870123038 61.51995438989252,126.49494987912476 54.808437856147066,121.48854481120361 46.68072976055555,119.32360377290752 44.58722919039428,122.8416301648831 44.464082098100334,127.57741196948336 41.877993158530444,126.29198808403453 44.09464082098566,128.86283391423058 44.40250855172053,126.22433414164698 42.86316989711486,124.73594604752725 43.97149372845888,119.52656722912798 42.86316989711486,116.41445558407577 41.015963511774316,114.31715653755236 34.920182439964265,112.35516242979793 23.405929304193705,104.57479645300191 20.14253135677427,104.10120666306466 13.0,120.27076615463011 19.773090079659596,124.60063791007269 28.63968072948046,127.98333489859942 25.499429874354973,126.69791162596084 24.39110604324378,128.45691140455892 24.51425313577056,129.7423320215894 27.161915621487424,131.0954042589874 28.94754846044816,128.25395007710904 25.868871151469648,126.83321943040937 24.760547320358455,127.64506580436137 24.575826682150364,129.67467835330172 27.469783352222294,131.23071136447834 28.824401368154213,128.18629629036877 25.253135689767078,126.69791162596084 24.20638540503569,129.20110252453014 27.223489167401567,131.0954042589874 28.94754846044816,128.3892576340004 25.376282782293856,127.23914271401009 24.82212086650543,129.53937100048643 27.10034207510762,130.89244356041308 28.76282782224007,128.3892576340004 25.74572405940853,126.69791162596084 24.452679589390755,128.45691140455892 24.452679589390755,129.67467835330172 27.346636260161176,131.16305781452684 29.009122006827965,128.52456516952952 25.499429874354973,126.83321943040937 24.144811858655885,129.20110252453014 26.238312428584322,130.7571364013129 27.469783352222294,131.23071136447834 28.885974914534017,128.86283391423058 25.684150513028726,126.69791162596084 24.267958950717002,128.99814137455542 26.854047890519723,130.82478998345323 27.962371721630916,130.68948281364283 29.07069555297494,128.25395007710904 25.74572405940853,127.23914271401009 24.637400227831677,129.9452929943218 27.10034207510762,131.02775069820927 28.76282782224007,128.93048764712876 25.314709236146882,127.17148884688504 24.267958950717002,128.93048764712876 26.915621436666697,130.89244356041308 27.59293044451624,131.16305781452684 28.885974914534017,128.72752643248532 25.314709236146882,126.76556553080445 24.69897377421148,129.53937100048643 27.038768528960645,130.82478998345323 28.824401368154213,128.65987268363824 25.499429874354973,126.5626038001501 24.267958950717002,129.53937100048643 26.730900797992945,130.82478998345323 27.900798175716773,130.41886840906227 29.07069555297494,127.98333489859942 25.314709236146882,127.17148884688504 24.39110604324378,129.53937100048643 26.854047890519723,130.96009713207604 29.009122006827965,128.3892576340004 25.314709236146882,127.10383497434668 24.51425313577056,128.18629629036877 24.08323831227608,129.47171731607523 26.97719498281367,131.23071136447834 28.94754846044816,128.52456516952952 25.499429874354973,126.42729595297715 24.08323831227608,129.67467835330172 27.40820980607532,131.16305781452684 29.07069555297494,128.32160385820316 25.00684150494635,127.0361810963368 23.960091219982132,129.60702467960073 26.915621436666697,131.02775069820927 27.900798175716773,130.55417562206276 28.516533637419343,128.05098870123038 25.807297605322674,126.96852721297182 24.20638540503569,128.99814137455542 27.161915621487424,131.29836490919115 29.87115165311843,127.57741196948336 40.46180159621872,131.02775069820927 41.32383124274202,127.10383497434668 44.21778791327961,125.41248641291168 45.6339794753585,120.20311173371738 46.742303306469694,119.52656722912798 50.49828962376341,120.33842057001311 53.14595210948028,122.43570478458423" stroke="#ff6300" stroke-linecap="round" stroke-linejoin="round" stroke-width="0.5"><title>2021-12-19 6.0km</title></polyline><polyline fill="none" points="119.64759725425392,138.39723609748762 121.00686498871073,138.73666098562535 123.10755148762837,136.49645423219772 127.0,128.7575129827601 126.93821510323323,126.10996435815468 106.54919908475131,116.53798934270162 105.0663615562953,119.52500014932593 104.63386727706529,124.88801607198548 102.28604119014926,123.3266351633356 103.89244851283729,115.1802537055919 100.00000000023283,112.5326630070922 99.56750572076999,111.31069530185778 95.61327231139876,110.15661308658309 88.32265446241945,104.65772935567657 80.97025171644054,101.26333901437465 73.0,117.35262968932511 80.90846681920812,122.44411425694125 85.48054919927381,123.0550903659896 84.43020594958216,126.04207838815637 86.59267734573223,128.41808413044782 89.06407322664745,125.63476245460333 85.35697940527461,124.20915515808156 84.49199084681459,126.58516599738505 87.33409611019306,128.55385568772908 89.06407322664745,125.56687644665362 85.35697940527461,124.20915515808156 84.862700229045,127.67134018067736 87.27231121296063,128.0786551433266 89.06407322664745,125.90630643180339 85.6659038902726,123.3945213490515 85.23340961127542,126.99248147796607 87.82837528618984,127.94288351060823 88.81693363841623,125.63476245460333 85.91304347850382,123.93761064123828 84.49199084681459,126.38150818442227 85.48054919927381,127.26402502373094 87.95194508018903,127.87499768618727 89.12585812364705,124.75224393239478 85.7894736842718,124.27704127365723 84.9862700230442,125.36321839108132 84.61556064081378,126.51728006522171 87.76659038895741,127.94288351060823 88.75514874141663,125.56687644665362 85.8512585812714,123.93761064123828 84.3066361558158,127.06036737246905 87.76659038895741,128.82539873715723 88.69336384441704,125.29533236159477 85.7894736842718,123.93761064123828 84.36842105304822,126.38150818442227 84.24485125858337,127.12825326155871 87.21052631596103,128.4859699117369 89.24942791787907,125.77053445391357 88.69336384441704,125.36321839108132 85.91304347850382,124.07338291039923 84.49199084681459,126.24573628202779 87.64302059519105,128.55385568772908 89.12585812364705,125.49899043352343 85.48054919927381,124.14126903685974 84.3066361558158,126.58516599738505 87.08695652172901,128.35019834386185 88.75514874141663,126.51728006522171 88.50800915341824,125.29533236159477 86.22196796350181,124.14126903685974 84.43020594958216,126.24573628202779 87.21052631596103,128.28231255168794 89.18764302087948,125.56687644665362 85.97482837550342,124.07338291039923 84.55377574381419,126.313622236019" stroke="#ffeb00" stroke-linecap="round" stroke-linejoin="round" stroke-width="0.5"><title>2021-12-18 4.4km</title></polyline><polyline fill="none" points="181.04095563152805,138.25882486789487 186.75426621176302,128.7414370876504 183.68259385670535,125.23145156214014 172.19453924917616,118.81894055736484 167.4027303752955,117.19893011823297 165.86689419788308,118.34643783175852 164.33105802047066,124.42145284306025 162.67235494870692,123.88145326788072 160.15358361788094,125.70395045832265 162.05802047788166,121.5189510906348 162.85665528988466,114.56640656548552 159.60068259388208,111.93387485475978 154.3788395903539,109.70634165056981 150.2627986348234,106.19627747416962 141.84641638211906,102.07868370343931 140.55631399340928,101.94368029094767 139.08191126282327,104.17123385163723 133.36860068282112,117.60393301770091 150.20136518776417,125.0964518293622 161.32081911270507,128.60643791238545 162.36518771317787,126.0414495090954 162.05802047788166,123.13895329157822 163.59385665529408,114.76890866691247 141.53924914682284,101.80867685715202 140.31058020470664,102.14618540141964 138.03754266211763,106.19627747416962 133.30716723552905,117.53643254790222 144.24232081929222,122.73395303089637 160.15358361788094,128.87643624126213 161.32081911270507,128.60643791238545 162.9795221844688,113.89139921218157 157.57337883976288,111.52886925212806 149.09556313999929,105.6562663136283 144.67235494870692,104.17123385163723 143.56655290094204,102.48369381180964 140.43344709882513,101.74117513216333 133.0,117.26643061486538 145.1023890785873,123.13895329157822 144.48805460729636,126.58144771121442 147.80546075082384,128.06644099747064 148.78839590470307,125.56895080063259 145.71672354941256,124.21895304258214 144.3651877134107,126.44644819293171 145.40955631411634,127.25644498126348 147.92832764517516,127.72894275118597 149.27986348140985,124.6239525951678 160.58361774752848,128.3364394978271 161.75085324258544,124.42145284306025 164.88395904446952,122.86895313928835 165.43686006846838,117.13142961624544 167.4027303752955,116.59142540709581 183.7440273037646,124.42145284306025 186.5085324230604,124.48895276576513 187.0,125.70395045832265 185.525597269414,130.69892271625577" stroke="#ff5a00" stroke-linecap="round" stroke-linejoin="round" stroke-width="0.5"><title>2021-12-15 6.1km</title></polyline><polyline fill="none" points="63.19977298541926,197.1398587525473 66.8161180478055,189.52974649966927 66.38706015911885,187.64404440537328 62.70942111243494,186.29711176961428 61.42224744614214,184.61344296479365 46.95686719636433,178.3501656493754 45.42451759357937,179.56241648370633 44.19863791158423,184.61344296479365 42.359818388242275,184.41140248364536 43.892167991027236,177.33995529613458 43.340522133978084,176.12770128279226 22.561861521098763,162.99483833223348 20.171396140474826,163.19688391895033 13.24517593625933,177.81138694414403 13.0,179.15833306498826 21.27468785457313,184.7481365923304 27.710556186037138,185.35425765108084 39.78547105542384,190.0685177561827 40.888762769522145,189.52974649966927 43.156640181550756,180.50527704536216 43.340522133978084,176.2623962588841 39.417707150802016,172.42358105478343 21.2133938705083,162.8601412474527 13.306469920556992,178.8215967353899 20.110102156642824,183.8052807506756 41.01135073765181,190.20321051671635 41.3178206582088,186.1624183882377 42.911464245058596,187.3746580495499 45.54710556170903,181.7175247974228 45.54710556170903,179.15833306498826 47.20204313285649,178.48486027214676 50.634506242815405,179.495069260709 63.32236095354892,186.49915180145763 66.32576617482118,187.10527160787024 67.0,188.92362842697185" stroke="#fffa00" stroke-linecap="round" stroke-linejoin="round" stroke-width="0.5"><title>2021-12-13 4.2km</title></polyline><polyline fill="none" points="122.72747252741829,197.14784683688777 127.0,188.8674589015427 126.70329670305364,186.91144955187337 108.24835164798424,177.84854538267246 106.94285714277066,178.30495302233612 106.05274725239724,180.8477909375797 102.96703296690248,194.6050594309927 107.0021978020668,177.84854538267246 85.34285714267753,163.69978264009114 81.96043956000358,163.69978264009114 76.44175824150443,174.9144902107073 75.37362637347542,179.1525665363297 81.72307692281902,183.26021962426603 87.83516483497806,184.23822923359694 99.16923076915555,189.32386041234713 101.54285714263096,189.38906060735462 104.50989010976627,178.04414868785534 104.1538461537566,176.15331478533335 97.15164835145697,170.61119031329872 88.66593406558968,166.43827188952127 84.63076923065819,162.85215316311223 82.01978021953255,163.76498487137724 76.50109890080057,174.45808068534825 75.195604395587,178.4353551582899 77.74725274718367,180.45658561727032 74.8395604393445,179.08736552775372 73.0,182.67341329919873 75.195604395587,185.08583661878947 93.17582417582162,193.9530613910756 98.6351648347918,195.90905395674054 100.29670329624787,194.93105825677048 103.67912087868899,182.99941686500097 104.45054945047013,176.4141197205754 98.51648351643234,171.65441660326906 95.90549450507388,170.87199701025384 83.74065934028476,163.30856914422475 81.8417582414113,163.6345804037992 80.59560439549387,165.78625146870036 74.89890109887347,179.34816953045083 80.95164835150354,182.6082125704852 82.850549450377,182.2822088493267 85.46153846126981,184.30342983285664 89.37802197784185,185.02063608175376 96.38021978014149,188.34585686417995" stroke="#ff8500" stroke-linecap="round" stroke-linejoin="round" stroke-width="0.5"><title>2021-12-12 5.6km</title></polyline><polyline fill="none" points="181.1704545454122,193.56892531720223 186.61647727293894,182.44419992307667 186.38636363623664,179.2416058324743 179.94318181835115,174.9433722504764 170.58522727293894,173.17350630124565 168.20738636376336,173.76346194575308 164.06534090917557,169.21236704679905 161.1505681821145,168.03245036693988 159.9232954545878,169.29664675955428 155.0142045454122,188.59652459877543 155.1676136367023,192.64186932402663 153.09659090917557,193.48464753327426 154.6306818178855,193.56892531720223 155.39772727293894,191.79909044509986 156.0880681821145,182.9498717901879 160.9204545454122,168.62240887089865 165.90625000046566,169.29664675955428 181.3238636367023,177.2189098459785 187.0,177.4717470551841 158.6193181821145,164.32413225603523 153.71022727293894,183.5398219974595 147.95738636376336,180.5057888654992 140.28693181835115,178.5673742655781 138.21590909082443,179.2416058324743 135.22443181835115,177.4717470551841 133.7670454545878,177.97742129297694 133.46022727293894,181.3485767171369 137.83238636376336,183.03415041137487 138.9829545454122,178.9887690450414 134.45738636376336,177.4717470551841 133.53693181835115,180.7586252912879 137.1420454545878,182.69703588692937 139.13636363623664,179.74727922660531 135.14772727293894,177.13463076285552 133.61363636376336,178.5673742655781 133.69034090917557,181.2642979621305 137.3721590912901,182.61275723885046 139.36647727293894,179.2416058324743 134.1505681821145,177.72458420420298 133.53693181835115,181.0957404319197 137.3721590912901,182.69703588692937 139.28977272752672,179.2416058324743 135.68465909082443,177.6403051613015 134.38068181835115,178.5673742655781 133.69034090917557,180.0001158331288 137.06534090917557,182.5284785843105 138.67613636376336,182.02280651620822 139.44318181835115,179.66300034424057 135.07102272706106,177.4717470551841 133.61363636376336,178.14597931853496 133.0,180.5900676807505 137.5255681821145,182.69703588692937 139.28977272752672,179.83155810204335 138.0625,178.90449010260636 140.28693181835115,178.48309528961545 152.5596590912901,183.03415041137487 155.1676136367023,176.12328124267515 158.4659090912901,177.80886324041057 160.7670454545878,168.11673017323483 164.06534090917557,168.45384933194146 186.76988636376336,179.57872145541478 185.15909090917557,185.8996195445652 180.1732954545878,195.67586774396477" stroke="#ffb500" stroke-linecap="round" stroke-linejoin="round" stroke-width="0.5"><title>2021-12-11 5.0km</title></polyline><polyline fill="none" points="29.454946785932407,213.08314486552263 31.02426505018957,213.0 31.445301657775417,217.7392376990756 31.2539213814307,229.75344191250042 31.942890375386924,238.85746022628155 32.172546706860885,266.6258838950889 35.043250848772004,267.0 36.114980394952,266.5843154237082 37.7991268245969,263.3003964665404 36.95705360965803,259.6839065615204 36.88050149939954,249.33313446547254 38.143611321691424,248.33545961536583 46.94710402330384,248.2938897915301 47.78917723800987,255.98425488601788 50.545053214300424,261.9701959878148 49.4733236678876,264.79686824348755 46.640895581338555,266.2101990421361 44.61226465459913,266.5843154237082 36.612569112796336,265.9192194622592 36.03842828446068,266.4596099908522 33.129448087420315,266.7090208288573 32.13427065173164,266.2517675412819 32.36392698297277,242.55722461722326 31.483577712904662,233.95211708181887 31.560129823395982,216.36735721226432 31.17736927093938,214.12245464598527 31.215645326301455,217.4898051324708 31.33047349192202,213.20786214069813 29.646327062044293,213.12471729359822" stroke="#ffba00" stroke-linecap="round" stroke-linejoin="round" stroke-width="0.5"><title>2021-12-05 4.9km</title></polyline><polyline fill="none" points="97.58084368240088,213.12817053380422 101.19974418985657,213.17089403880527 101.86845406633802,267.0 102.41915631759912,264.5649820903491 102.1831410669256,237.43733416550094 101.63243881589733,235.42941037897253 101.35708769015037,213.0 101.27841594000347,234.9594697614957 101.86845406633802,236.79650818347 101.23908006493002,214.36715089413337" stroke="#ffff00" stroke-linecap="round" stroke-linejoin="round" stroke-width="0.5"><title>2021-12-04 4.1km</title></polyline></svg>