<?xml version="1.0" encoding="utf-8" ?>
<svg baseProfile="full" height="300mm" version="1.1" viewBox="0,0,200,300" width="200mm" xmlns="http://www.w3.org/2000/svg" xmlns:ev="http://www.w3.org/2001/xml-events" xmlns:xlink="http://www.w3.org/1999/xlink"><defs /><rect fill="#222222" height="300" width="200" x="0" y="0" /><text fill="#FFFFFF" style="font-size:12px; font-family:Arial; font-weight:bold;" x="10" y="20">Over 4 km Runs</text><text fill="#FFFFFF" style="font-size:4px; font-family:Arial" x="10" y="280">ATHLETE</text><text fill="#FFFFFF" style="font-size:9px; font-family:Arial" x="10" y="290">lizhimiao</text><text fill="#FFFFFF" style="font-size:4px; font-family:Arial" x="120" y="280">STATISTICS</text><text fill="#FFFFFF" style="font-size:3px; font-family:Arial" x="120" y="285">Number: 13</text><text fill="#FFFFFF" style="font-size:3px; font-family:Arial" x="120" y="290">Weekly: 2.2</text><text fill="#FFFFFF" style="font-size:3px; font-family:Arial" x="141" y="285">Total: 71.1 km</text><text fill="#FFFFFF" style="font-size:3px; font-family:Arial" x="141" y="290">Avg: 5.5 km</text><text fill="#FFFFFF" style="font-size:3px; font-family:Arial" x="167" y="285">Min: 4.1 km</text><text fill="#FFFFFF" style="font-size:3px; font-family:Arial" x="167" y="290">Max: 7.2 km</text><polyline fill="none" points="34.388023952022195,39.55168793944176 23.609580838121474,35.00393769110087 13.176047903951257,55.27919048734475 12.917365269269794,57.932001794921234 42.40718562854454,69.96432184544392 51.63353293389082,72.33287448168267 55.34131736541167,53.66855217097327 24.213173652533442,35.00393769110087 22.57485029939562,35.856642183847725 12.399999999906868,57.174056309391744 27.317365269176662,65.03771729161963 50.77125748479739,73.18555227899924 51.54730538884178,72.42761648946907 55.59999999962747,56.2266237748554 55.168862274847925,53.47906516713556 24.558083831798285,34.81444772100076 20.419161676894873,39.835921753779985 12.48622754495591,56.88982662803028 29.128143712412566,65.2272024586564 29.990419161505997,66.74308271007612 28.352095807902515,70.34329058346339 32.74970059841871,72.80658444447909 34.56047904165462,68.6379303142894 30.24910179618746,67.21679489326198 28.438323352951556,70.43803274910897 29.990419161505997,71.38545399182476 29.214371257461607,71.8591643308755 32.66347305383533,72.80658444447909 34.90538922185078,69.58535298728384 30.93892215564847,67.21679489326198 28.78323353268206,70.81700133671984 33.09461077814922,72.99606837669853 34.9916167659685,69.77483743138146 30.33532934077084,66.83782516163774 28.438323352951556,70.2485484102508 32.49101796373725,72.61710048199166 36.026347305160016,68.16421869548503 51.54730538884178,72.61710048199166 54.91017964016646,59.637377376202494 54.9964071852155,54.04752608819399 46.804790418595076,48.7418802853208 45.33892215555534,46.08904853055719 36.026347305160016,41.16234532580711" stroke="#ffb100" stroke-linecap="round" stroke-linejoin="round" stroke-width="0.5"><title>2022-01-09 5.1km</title></polyline><polyline fill="none" points="100.17349397577345,40.274830932496116 88.98313253000379,34.841845740098506 78.48674698732793,57.908034378197044 93.32048192759976,65.72374975285493 99.91325301211327,66.8675087072188 117.0891566267237,73.15816346218344 121.60000000009313,54.381414426257834 91.75903614470735,35.03247721598018 88.37590361433104,35.41374007705599 78.39999999990687,57.240836804150604 88.72289156587794,64.19873611745425 96.00963855395094,65.34249652572908 115.61445783125237,73.4441015307093 117.17590361461043,72.77691259782296 120.21204819297418,62.67372054327279 120.99277108442038,53.42827211890835 90.54457831289619,34.555898469290696 88.72289156587794,34.555898469290696 87.6819277103059,36.17626543552615 78.39999999990687,57.05020885763224 88.46265060221776,63.626855504349805 94.88192771049216,65.91437632101588 94.53493975894526,71.06128220912069 98.95903614442796,73.34878884884529 100.34698795154691,68.86908425285947 96.00963855395094,66.77219550253358 93.92771084327251,70.20346609456465 98.61204819241539,73.34878884884529 100.52048192732036,69.15502334397752 96.35662650549784,67.05813509330619 94.27469879481941,69.8222142913146 94.01445783115923,70.68003067828249 98.95903614442796,73.0628507573856 100.52048192732036,68.67845815420151 96.18313253019005,66.96282190398779 94.01445783115923,70.20346609456465 98.17831325298175,72.77691259782296 100.86746987933293,69.05971032101661 95.74939759029076,66.96282190398779 94.01445783115923,70.29877902660519 99.04578313231468,73.0628507573856 100.69397590355948,69.53627535921987 97.48433734895661,67.53470092685893 98.17831325298175,66.96282190398779 115.7012048191391,73.0628507573856 117.43614457827061,72.68159986287355 121.07951807230711,54.000157594215125 114.92048192769289,48.090661201276816 112.66506024077535,48.28129057167098 98.43855421664193,38.74978494201787" stroke="#ff8e00" stroke-linecap="round" stroke-linejoin="round" stroke-width="0.5"><title>2022-01-08 5.5km</title></polyline><polyline fill="none" points="182.87115165311843,68.96511866839137 187.5999999998603,60.30551070289221 186.81185860862024,58.46532982838107 181.83671607729048,56.73339034628589 171.29532497143373,51.2669274720829 170.35940706939436,51.8081633769325 169.52200684137642,57.05812933458947 166.27092360286042,56.08391190529801 167.8472063851077,55.54267939802958 168.7338654503692,50.29270175995771 165.72907639667392,47.47826409741538 151.39475484588183,39.14313049102202 149.91698973765597,39.359628758218605 144.49851767369546,51.8081633769325 150.9514253132511,56.62514398252824 154.2025085517671,56.841636692988686 165.72907639667392,60.84673942590598 165.43352337484248,61.38796771882335 161.3450399087742,59.439543851825874 159.8672748003155,63.17401803447865 160.31060433294624,64.03998013830278 162.82280501700006,65.33892122976249 165.3350057010539,63.22814069810556 167.1575826681219,58.57357589964522 168.9801596349571,50.56332015316002 165.8275940704625,47.045272655494045 161.68985176715069,45.47567637154134 150.40957810683176,39.08900591346901 144.39999999990687,51.59166906657629 148.8332953248173,55.70504919544328 152.82326111732982,57.22049877070822 159.81801596353762,58.248837633931544 164.30057012522593,60.52200224372791 166.41870011389256,60.792616572987754 169.1279361457564,51.15868023963412 168.7338654503692,50.18445437261835 166.27092360286042,48.77723677130416 166.36944127688184,48.01950301253237 164.0542759404052,47.47826409741538 151.24697833508253,39.08900591346901 150.311060433276,39.305504197836854 149.52291904203594,40.766865816840436 144.59703534771688,52.1329047132167 149.81847206363454,56.24628157366533 166.27092360286042,60.630247988388874 168.24127708072774,53.97310269501759 167.89646522235125,51.429298288654536 163.70946408202872,46.23341296019498 153.90695552993566,40.38799458707217 151.0006841502618,39.03488133166684 150.16328392224386,39.57612695643911 144.6462941847276,52.24115179106593 152.37993158469908,56.895759859879036 157.5521094640717,57.70760684681591 166.17240592907183,60.792616572987754 166.91128848330118,57.70760684681591 169.1771949827671,57.4911144116777 169.52200684137642,56.841636692988686 170.35940706939436,52.457645894843154 173.41345495986752,52.457645894843154" stroke="#ff0000" stroke-linecap="round" stroke-linejoin="round" stroke-width="0.5"><title>2022-01-07 7.2km</title></polyline><polyline fill="none" points="25.367528789909557,80.39999999999418 27.319748427486047,80.73130419713561 27.44176215492189,94.6789885542239 28.051830791519023,101.43733022245578 28.17384451883845,118.76339727538289 27.838306768680923,120.41977394968853 28.204347950872034,122.97058205248322 30.492105338489637,123.60000000000582 31.773249475867487,122.60618178397999 32.50533183978405,120.1878815839591 31.8952632030705,119.45907622436062 31.773249475867487,117.76956833156873 31.773249475867487,109.58695956578595 33.02389018109534,108.65936695487471 40.34471382224001,108.75875196934794 39.82615548092872,112.53536618206999 40.74125843611546,115.84815945607261 42.57146434637252,118.66401448019315 42.63247121009044,119.72409649228211 41.96139570965897,121.64548874655156 39.91766577644739,123.20247297815513 32.962883317493834,123.16934571033926 32.71885586285498,122.04301714978646 32.047780362307094,122.00988979631802 31.80375290766824,122.63930909341434 32.38331811258104,122.8380728981574 32.84086959017441,122.37429054974928 32.13929065782577,121.84425299221766 32.07828379410785,122.67243640028755 32.74935929465573,122.17552653912571 32.13929065782577,121.97676244046306 32.16979408962652,122.8380728981574 32.84086959017441,122.57305447210092 32.261304385145195,121.97676244046306 30.980160248000175,123.23560024338076 28.72290629206691,123.33498202462215 27.990823927801102,122.8049456035078 28.02132735971827,99.88027034859988 27.502769018523395,95.7391273236135 27.3502518592868,80.76443460339215 27.28924499556888,97.52810580746154 27.74679647316225,98.85327044830774 27.44176215492189,86.13152805509162" stroke="#ff5b00" stroke-linecap="round" stroke-linejoin="round" stroke-width="0.5"><title>2022-01-01 6.1km</title></polyline><polyline fill="none" points="116.54678899073042,116.5338125990238 117.53761467896402,116.80597543739714 119.22201834851876,114.51980423612986 121.3027522934135,110.05630514252698 121.5999999998603,107.3890783888055 105.89541284390725,98.9518641566392 104.85504587111063,99.65950547152897 103.7155963301193,104.88514178240439 101.68440366955474,104.9395752842538 102.77431192644872,97.9720518985414 86.2275229357183,87.5750688247499 84.04770642193034,87.5750688247499 78.59816513722762,98.67969422554597 78.54862385313027,100.2582783207763 86.42568807327189,104.88514178240439 88.15963302738965,105.0484422747395 87.61467889882624,108.09671098861145 90.24036697228439,109.18537509941962 91.18165137572214,107.11691180965863 88.55596330249682,105.32060967572033 87.96146788960323,107.66124485980254 90.33944954094477,108.96764241572237 91.08256880706176,107.11691180965863 88.40733944927342,105.48391006444581 87.96146788960323,107.98784448235529 90.091743119061,108.91320923384046 91.18165137572214,106.95361181040062 88.85321100894362,105.59277696837671 87.66422018315643,107.3890783888055 89.9431192658376,108.8587760477676 90.53761467873119,108.8587760477676 91.33027522917837,106.73587841721019 88.35779816494323,105.42947660578648 87.61467889882624,107.55237828445388 90.14128440362401,108.96764241572237 90.93394495383836,106.51814495504368 88.60550458682701,105.37504314287798 87.96146788960323,106.24597802996868 87.76330275228247,107.44351169175934 90.091743119061,108.8587760477676 91.18165137572214,106.62701169482898 88.35779816494323,105.97381099668564 87.71376146771945,107.55237828445388 89.59633027506061,108.80434285744559 90.58715596306138,108.5866100526182 92.12293577985838,106.02824441192206 100.24770642188378,108.96764241572237 103.22018348611891,99.55063762445934 102.62568807299249,98.08091999636963 90.43853211007081,89.80689524672925 88.30825688038021,89.26254800945753 85.33577981637791,87.19402456260286 84.19633027492091,87.35732927237405 78.39999999990687,99.60507155017694 87.21834862348624,104.28637297701789 99.85137614654377,108.96764241572237 100.74311926588416,108.53217684052652 103.02201834856533,99.55063762445934 102.77431192644872,97.91761784302071 85.3853211007081,87.35732927237405 84.3944954124745,87.30289437342435 78.54862385313027,99.16960002371343 78.74678899068385,100.14941056899261 80.4311926602386,101.34695488784928 86.87155963270925,104.77627476589987 90.83486238517798,105.37504314287798 100.39633027510718,109.34867456683423 101.63486238499172,104.88514178240439 101.98165137600154,104.28637297701789 102.52660550433211,106.95361181040062 104.75596330245025,100.14941056899261 105.64770642179064,99.55063762445934 120.70825688051991,106.51814495504368" stroke="#ff0900" stroke-linecap="round" stroke-linejoin="round" stroke-width="0.5"><title>2021-12-24 7.1km</title></polyline><polyline fill="none" points="185.43261117418297,114.71903466957156 187.5999999998603,110.280971835542 186.71334093483165,108.44079096103087 183.21596351196058,107.19595990335802 177.84675028477795,103.19083584897453 171.34458380844444,101.4588830183493 169.66978335217573,104.27330413192976 169.57126567838714,108.06192957557505 167.50239452673122,107.03359046723926 169.27571265678853,109.0902671313961 169.52200684137642,106.97946731332922 168.29053591773845,105.78875683801016 169.1771949827671,101.62125378329074 168.29053591773845,99.13156446727226 166.81277080927975,97.45372523006517 161.9361459519714,95.88412994384998 152.72474344354123,89.65983716241317 150.11402508546598,89.28096533048665 144.39999999990687,102.21661292371573 149.81847206363454,105.68051032809308 156.91174458363093,108.38666791887954 154.3995438995771,107.35832930082688 153.51288483454846,108.76552912365878 153.61140250856988,109.79386561724823 155.7295324972365,110.87632340716664 157.15803876845166,108.60316006169887 154.69509692117572,107.4665755443275 153.8084378563799,108.11605264351238 153.6606613455806,109.73974268266466 155.9758266818244,110.98456909158267 157.05952109443024,108.54903703229502 154.2025085517671,107.35832930082688 153.36510832398199,109.36088201962411 155.77879133378156,110.87632340716664 157.15803876845166,108.71140610717703 154.30102622578852,107.79131417121971 153.85769669315778,109.63149680040078 155.68027365999296,110.71395484829554 157.0102622578852,108.71140610717703 154.59657924738713,107.35832930082688 153.56214367155917,108.76552912365878 153.56214367155917,109.73974268266466 155.8773090080358,110.93044625164475 157.20729760546237,108.81965213565854 154.3995438995771,107.4665755443275 153.31584948673844,109.36088201962411 154.99064994300716,110.60570912103867 155.9758266818244,110.98456909158267 157.10877993144095,109.0902671313961 154.54732041037641,107.35832930082688 153.41436716052704,109.19851309963269 155.48323831241578,110.65983198676258 156.3698973772116,110.55158625089098 157.25655644247308,108.60316006169887 154.59657924738713,107.79131417121971 153.70992018235847,109.95623439544579 155.68027365999296,110.82220055855578 157.0102622578852,109.14439011772629 154.2517673887778,107.73719107749639 153.41436716052704,109.14439011772629 155.53249714919366,110.71395484829554 156.074344355613,110.93044625164475 157.10877993144095,108.98202114598826 154.2517673887778,107.41245242464356 153.75917901936918,109.63149680040078 155.63101482321508,110.65983198676258 157.05952109443024,108.9278981469106 154.3995438995771,107.250083040155 153.41436716052704,109.63149680040078 155.38472063839436,110.65983198676258 156.32063854066655,110.33509472728474 157.25655644247308,108.38666791887954 154.2517673887778,107.73719107749639 153.51288483454846,109.63149680040078 155.48323831241578,110.76807770563755 157.20729760546237,108.71140610717703 154.2517673887778,107.6830679794657 153.61140250856988,108.54903703229502 153.26659064972773,109.57737385289511 155.5817559864372,110.98456909158267 157.15803876845166,108.81965213565854 154.3995438995771,107.14183676237008 153.26659064972773,109.73974268266466 155.9265678448137,110.93044625164475 157.25655644247308,108.65728308656253 154.00547320395708,107.62894487706944 153.16807297593914,109.6856197437155 155.53249714919366,110.82220055855578 156.32063854066655,110.44334049767349 156.81322690984234,108.44079096103087 154.64583808439784,107.57482177042402 153.36510832398199,109.19851309963269 155.7295324972365,111.03869192738784 157.89692132244818,108.06192957557505 166.36944127711467,110.82220055855578 167.05906499410048,107.6830679794657 169.37423033057712,106.3299891303177 170.50718358019367,102.1624893869739 171.39384264522232,101.62125378329074 174.3986316989176,102.27073645603377 176.51676168758422,103.94856382766739" stroke="#ff6300" stroke-linecap="round" stroke-linejoin="round" stroke-width="0.5"><title>2021-12-19 6.0km</title></polyline><polyline fill="none" points="49.71807780349627,164.71778887795517 50.80549199087545,164.989328788477 52.486041190102696,163.19716338574653 55.5999999998603,157.0060103862197 55.55057208263315,154.88797148648882 39.23935926775448,147.23039147414966 38.05308924498968,149.62000011943746 37.70709382160567,153.91041285760002 35.828832952072844,152.66130813065683 37.11395881022327,146.1442029644386 34.00000000023283,144.02613040566212 33.65400457661599,143.04855624149786 30.490617849165574,142.12529046926647 24.658123569795862,137.72618348454125 18.77620137296617,135.010671211523 12.399999999906868,147.88210375147173 18.72677345527336,151.955291405553 22.384439359419048,152.4440722927684 21.544164759572595,154.83366271056002 23.27414187649265,156.7344673043699 25.251258581411093,154.50780996365938 22.285583524033427,153.3673241264769 21.593592677498236,155.26813279790804 23.86727688810788,156.84308455017162 25.251258581411093,154.45350115734618 22.285583524033427,153.3673241264769 21.890160183189437,156.1370721445419 23.81784897018224,156.4629241146613 25.251258581411093,154.72504514543107 22.532723112031817,152.71561707922956 22.186727688880637,155.59398518234957 24.26270022895187,156.35430680849822 25.053546910639852,154.50780996365938 22.73043478280306,153.15008851297898 21.593592677498236,155.10520654753782 22.384439359419048,155.81122001894983 24.36155606410466,156.29999814898474 25.300686498871073,153.80179514590418 22.631578947417438,153.42163301887922 21.989016018342227,154.2905747128534 21.692448512651026,155.213824052189 24.21327231125906,156.35430680849822 25.004118993179873,154.45350115734618 22.681006864877418,153.15008851297898 21.445308924652636,155.64829389797524 24.21327231125906,157.06031898973742 24.954691075487062,154.23626588925254 22.631578947417438,153.15008851297898 21.494736842345446,155.10520654753782 21.395881006726995,155.70260260929354 23.76842105272226,156.78877592936624 25.399542334256694,154.61642756313086 24.954691075487062,154.2905747128534 22.73043478280306,153.25870632834267 21.593592677498236,154.99658902559895 24.11441647610627,156.84308455017162 25.300686498871073,154.39919234684203 22.384439359419048,153.31301522947615 21.445308924652636,155.26813279790804 23.66956521733664,156.6801586750662 25.004118993179873,155.213824052189 24.806407322641462,154.23626588925254 22.97757437080145,153.31301522947615 21.544164759572595,154.99658902559895 23.76842105272226,156.6258500413387 25.350114416563883,154.45350115734618 22.77986270026304,153.25870632834267 21.643020594958216,155.05089778878028" stroke="#ffeb00" stroke-linecap="round" stroke-linejoin="round" stroke-width="0.5"><title>2021-12-18 4.4km</title></polyline><polyline fill="none" points="116.83276450494304,164.60705989430426 121.40341296931729,156.99314967013197 118.94607508531772,154.1851612497121 109.7556313991081,149.05515244591516 105.92218430014327,147.759144094598 104.6935153582599,148.6771502653719 103.46484641637653,153.53716227447148 102.13788395887241,153.1051626143162 100.12286689411849,154.56316036666976 101.64641638216563,151.2151608725544 102.28532423195429,145.65312525240006 99.68054607510567,143.54709988378454 95.50307167205028,141.76507332047913 92.21023890771903,138.95702197932405 85.47713310550898,135.66294696275145 84.44505119463429,135.5549442327465 83.26552900997922,137.33698708133306 78.69488054607064,148.08314641413745 92.16109215002507,154.0771614635014 101.05665529007092,156.88515032990836 101.8921501704026,154.83315960725304 101.64641638216563,152.51116263325093 102.875085324049,145.8151269335649 85.23139931727201,135.4469414857449 84.24846416362561,135.71694832114736 82.43003412964754,138.95702197932405 78.64573378814384,148.02914603834506 87.39385665534064,152.18716242472874 100.12286689411849,157.1011489930097 101.05665529007092,156.88515032990836 102.38361774757504,145.11311936978018 98.0587030716706,143.2230954017141 91.2764505117666,138.52501305087935 87.73788395896554,137.33698708133306 86.85324232070707,135.98695504944772 84.34675767901354,135.39294010569574 78.39999999990687,147.81314449186902 88.08191126282327,152.51116263325093 87.59044368588366,155.26515816897154 90.24436860042624,156.45315279794158 91.03071672352962,154.45516064052936 88.57337883929722,153.37516243406571 87.49215017049573,155.157158554357 88.32764505106024,155.80515598499915 90.342662116047,156.18315420096042 91.42389078484848,153.69916207611095 100.46689419797622,156.6691515982384 101.40068259392865,153.53716227447148 103.90716723538935,152.2951625114074 104.349488054635,147.70514369301964 105.92218430014327,147.27314032567665 118.99522184301168,153.53716227447148 121.20682593830861,153.59116221265867 121.5999999998603,154.56316036666976 120.42047781543806,158.5591381730046" stroke="#ff5a00" stroke-linecap="round" stroke-linejoin="round" stroke-width="0.5"><title>2021-12-15 6.1km</title></polyline><polyline fill="none" points="184.5598183881957,163.71188700204948 187.45289443805814,157.62379719974706 187.10964812687598,156.11523552431026 184.16753688966855,155.03768941567978 183.13779795682058,153.69075437181164 171.56549375667237,148.68013251945376 170.33961407467723,149.64993318694178 169.35891032894142,153.69075437181164 167.8878547102213,153.52912198688136 169.1137343926821,147.87196423689602 168.67241770704277,146.90216102619888 152.04948921664618,136.39587066572858 150.1371169120539,136.55750713514863 144.5961407488212,148.24910955526866 144.39999999990687,149.3266664519906 151.01975028333254,153.7985092738527 156.16844494850375,154.2834061208414 165.82837684405968,158.05481420492288 166.71101021533832,157.62379719974706 168.52531214500777,150.40422163624316 168.67241770704277,147.00991700706072 165.53416572045535,143.93886484380346 150.97071509622037,136.28811299795052 144.6451759361662,149.05727738828864 150.08808172494173,153.04422460048227 166.80908058979549,158.16256841336144 167.05425652628765,154.92993471055524 168.3291713958606,155.89972643961664 170.4376844491344,151.37401983793825 170.4376844491344,149.3266664519906 171.76163450605236,148.7878882176592 174.50760499411263,149.59605540853227 184.65788876265287,155.19932144111954 187.06061293953098,155.68421728623798 187.5999999998603,157.13890274154255" stroke="#fffa00" stroke-linecap="round" stroke-linejoin="round" stroke-width="0.5"><title>2021-12-13 4.2km</title></polyline><polyline fill="none" points="52.181978021981195,211.7182774695102 55.5999999998603,205.09396712121088 55.36263736244291,203.52915964147542 40.59868131834082,196.27883630612632 39.554285714169964,196.6439624177874 38.84219780191779,198.67823274998227 36.37362637347542,209.68404754478252 39.60175824165344,196.27883630612632 22.274285714142025,184.95982611202635 19.56835164804943,184.95982611202635 15.15340659325011,193.93159216851927 14.298901098780334,197.32205322902882 19.378461538348347,200.60817569936626 24.268131867982447,201.39058338681934 33.335384615231305,205.45908832980786 35.23428571410477,205.5112484858255 37.60791208781302,196.43531895027263 37.32307692291215,194.92265182820847 31.72131868125871,190.48895225056913 24.93274725251831,187.15061751159374 21.704615384573117,184.28172253043158 19.615824175765738,185.01198789704358 15.200879120733589,193.56646454823203 14.1564835163299,196.7482841265737 16.1978021976538,198.3652684937697 13.87164835142903,197.26989242219133 12.399999999906868,200.13873063930077 14.1564835163299,202.06866929499665 28.540659340796992,209.16244911280228 32.90813186788,210.72724316536915 34.23736263718456,209.94484660535818 36.943296703044325,200.39953349193092 37.56043956032954,195.1312957764021 32.813186813145876,191.32353328255704 30.724395604105666,190.69759760814486 20.992527472320944,184.64685531536816 19.473406593082473,184.9076643229928 18.476483516395092,186.6290011748788 13.91912087914534,197.47853562433738 18.76131868129596,200.08657005632995 20.280439560301602,199.82576707936823 22.36923076910898,201.44274386623874 25.50241758232005,202.0165088653448 31.104175823973492,204.67668549128575" stroke="#ff8500" stroke-linecap="round" stroke-linejoin="round" stroke-width="0.5"><title>2021-12-12 5.6km</title></polyline><polyline fill="none" points="116.93636363651603,208.85514025378507 121.29318181821145,199.95535993849626 121.10909090912901,197.39328466600273 115.95454545482062,193.95469780045096 108.46818181825802,192.53880504099652 106.56590909091756,193.01076955662575 103.25227272720076,189.3698936374858 100.92045454541221,188.42596029356355 99.9386363637168,189.43731740769 96.01136363646947,204.8772196790669 96.1340909092687,208.11349545919802 94.47727272752672,208.78771802666597 95.70454545435496,208.85514025378507 96.31818181835115,207.43927235610317 96.87045454559848,200.35989743215032 100.73636363632977,188.89792709675385 104.72500000009313,189.43731740769 117.05909090931527,195.7751278767828 121.5999999998603,195.97739764413564 98.89545454573818,185.4593058048631 94.96818181825802,200.83185759803746 90.36590909096412,198.40463109238772 84.22954545472749,196.8538994124974 82.57272727275267,197.39328466600273 80.17954545468092,195.97739764413564 79.01363636390306,196.3819370343699 78.76818181807175,199.07886137376772 82.26590909087099,200.42732032912318 83.18636363651603,197.1910152360797 79.56590909115039,195.97739764413564 78.82954545482062,198.60690023307689 81.71363636362366,200.15762870956678 83.30909090908244,197.79782338126097 80.11818181816489,195.7077046103077 78.89090909110382,196.8538994124974 78.95227272738703,199.01143836975098 81.89772727293894,200.0902057911153 83.49318181839772,197.39328466600273 79.32045454555191,196.17966736335075 78.82954545482062,198.87659234553576 81.89772727293894,200.15762870956678 83.43181818188168,197.39328466600273 80.5477272728458,196.1122441290645 79.50454545463435,196.8538994124974 78.95227272738703,198.00009266653797 81.65227272757329,200.02278286748333 82.94090909115039,199.6182452130015 83.55454545468092,197.73040027543902 80.05681818164885,195.97739764413564 78.89090909110382,196.5167834548629 78.39999999990687,198.4720541446004 82.02045454573818,200.15762870956678 83.43181818188168,197.8652464816114 82.44999999995343,197.12359208212 84.22954545472749,196.7864762317622 94.0477272728458,200.42732032912318 96.1340909092687,194.89862499415176 98.77272727293894,196.2470905923401 100.61363636376336,188.4933841386228 103.25227272720076,188.76307946554152 121.41590909101069,197.66297716432018 120.12727272743359,202.7196956356638 116.13863636367023,210.5406941951951" stroke="#ffb500" stroke-linecap="round" stroke-linejoin="round" stroke-width="0.5"><title>2021-12-11 5.0km</title></polyline><polyline fill="none" points="157.56395742867608,176.4665158924181 158.81941204005852,176.40000000002328 159.1562413260108,180.19139015927794 159.00313710502815,189.80275353000616 159.55431230016984,197.08596818102524 159.73803736525588,219.30070711608278 162.03460067883134,219.60000000000582 162.89198431570549,219.26745233897236 164.23930145963095,216.64031717323815 163.56564288761,213.7471252492105 163.5044011992868,205.46650757238967 164.51488905726,204.6683676922985 171.55768321838696,204.63511183322407 172.23134179029148,210.78740390882012 174.4360425712075,215.57615679025184 173.57865893410053,217.83749459477258 171.3127164648613,218.9681592337147 169.6898117235396,219.26745233897236 163.29005529009737,218.7353755698132 162.8307426274987,219.16768799268175 160.50355846981984,219.36721666308586 159.70741652115248,219.00141403303132 159.89114158623852,200.04577969378443 159.18686217011418,193.16169366546092 159.2481038585538,179.09388576980564 158.94189541658852,177.29796371678822 158.97251626092475,179.9918441059708 159.06437879346777,176.5662897125585 157.7170616494259,176.49977383489022" stroke="#ffba00" stroke-linecap="round" stroke-linejoin="round" stroke-width="0.5"><title>2021-12-05 4.9km</title></polyline><polyline fill="none" points="32.06467494601384,224.50253642705502 34.95979535183869,224.53671523105004 35.49476325314026,267.6000000000058 35.93532505398616,265.65198567227344 35.74651285354048,243.9498673324124 35.30595105269458,242.3435283031722 35.08567015209701,224.39999999999418 35.02273275202606,241.96757580921985 35.49476325314026,243.437206546776 34.99126405187417,225.49372071531252" stroke="#ffff00" stroke-linecap="round" stroke-linejoin="round" stroke-width="0.5"><title>2021-12-04 4.1km</title></polyline></svg>