<?xml version="1.0" encoding="utf-8" ?>
<svg baseProfile="full" height="300mm" version="1.1" viewBox="0,0,200,300" width="200mm" xmlns="http://www.w3.org/2000/svg" xmlns:ev="http://www.w3.org/2001/xml-events" xmlns:xlink="http://www.w3.org/1999/xlink"><defs /><rect fill="#222222" height="300" width="200" x="0" y="0" /><text fill="#FFFFFF" style="font-size:12px; font-family:Arial; font-weight:bold;" x="10" y="20">Over 4 km Runs</text><text fill="#FFFFFF" style="font-size:4px; font-family:Arial" x="10" y="280">ATHLETE</text><text fill="#FFFFFF" style="font-size:9px; font-family:Arial" x="10" y="290">lizhimiao</text><text fill="#FFFFFF" style="font-size:4px; font-family:Arial" x="120" y="280">STATISTICS</text><text fill="#FFFFFF" style="font-size:3px; font-family:Arial" x="120" y="285">Number: 12</text><text fill="#FFFFFF" style="font-size:3px; font-family:Arial" x="120" y="290">Weekly: 2.0</text><text fill="#FFFFFF" style="font-size:3px; font-family:Arial" x="141" y="285">Total: 66.0 km</text><text fill="#FFFFFF" style="font-size:3px; font-family:Arial" x="141" y="290">Avg: 5.5 km</text><text fill="#FFFFFF" style="font-size:3px; font-family:Arial" x="167" y="285">Min: 4.1 km</text><text fill="#FFFFFF" style="font-size:3px; font-family:Arial" x="167" y="290">Max: 7.2 km</text><polyline fill="none" points="40.21686746971682,42.84353866544552 26.228915662504733,36.05230717500672 13.108433734625578,64.88504297262989 31.650602409616113,74.65468719101045 39.89156626537442,76.0843858839944 61.361445783637464,83.94770432764199 67.0,60.47676803264767 29.698795180767775,36.29059651994612 25.469879518263042,36.76717509620357 13.0,64.05104600498453 25.903614457696676,72.7484201467596 35.012048192787915,74.17812065710314 59.51807228894904,84.30512691335753 61.46987951826304,83.47114074719138 65.26506024133414,70.84215067909099 66.24096385622397,59.28534014860634 28.18072289135307,35.69487308652606 25.903614457696676,35.69487308652606 24.60240963846445,37.72033179434948 13.0,63.812761071836576 25.57831325288862,72.03356938029174 33.60240963846445,74.89297040121164 33.16867469903082,81.32660276140086 38.698795180767775,84.1859860609984 40.433734939899296,78.58635531598702 35.012048192787915,75.96524437807966 32.409638554323465,80.25433261808939 38.26506024086848,84.1859860609984 40.65060240961611,78.9437791799428 35.44578313222155,76.32266886660364 32.8433734937571,79.77776786417235 32.518072289414704,80.8500383477658 38.698795180767775,83.8285634466447 40.65060240961611,78.34807269275188 35.228915662970394,76.20352737989742 32.518072289414704,80.25433261808939 37.722891566343606,83.47114074719138 41.08433734951541,78.82463790115435 34.68674698797986,76.20352737989742 32.518072289414704,80.37347378314007 38.80722891539335,83.8285634466447 40.86746987933293,79.42034419893753 36.85542168607935,76.91837615845725 37.722891566343606,76.20352737989742 59.62650602450594,83.8285634466447 61.7951807230711,83.35199982847553 66.34939759038389,60.00019699265249 58.65060240961611,52.6133265014505 55.83132530096918,52.85161321447231 38.04819277115166,40.93723117734771" stroke="#ff8e00" stroke-linecap="round" stroke-linejoin="round" stroke-width="0.5"><title>2022-01-08 5.5km</title></polyline><polyline fill="none" points="121.08893956663087,78.70639833546011 127.0,67.88188837858615 126.01482326094992,65.58166228537448 119.79589509684592,63.416737932828255 106.61915621440858,56.58365933998721 105.44925883668475,57.26020422112197 104.40250855195336,63.822661668178625 100.33865450369194,62.60488988162251 102.30900798155926,61.928349247493315 103.41733181313612,55.36587719991803 99.6613454958424,51.84783012169646 81.74344355752692,41.42891311371932 79.89623717218637,41.699535947758704 73.12314709206112,57.26020422112197 81.18928164173849,63.281429978087544 85.25313568999991,63.552045866206754 99.6613454958424,68.55842428235337 99.29190421872772,69.23495964845642 94.18129988596775,66.79942981473869 92.3340935006272,71.4675225430401 92.8882554161828,72.54997517279116 96.02850627130829,74.17365153710125 99.16875712643377,71.5351758725592 101.4469783352688,65.71696987451287 103.72519954387099,55.70415019139182 99.78449258836918,51.30659081926569 94.6123147092294,49.34459546441212 80.51197263388894,41.36125739180716 73.0,56.98958633322036 78.54161915625446,62.13131149421679 83.52907639672048,64.02562346326886 92.27251995448023,65.31104704237077 97.87571265664883,68.15250280464534 100.52337514259852,68.49077071622014 103.90992018231191,56.448350299499 103.41733181313612,55.23056796571473 100.33865450369194,53.47154596407199 100.46180159621872,52.52437876566546 97.56784492568113,51.84783012169646 81.558722919086,41.36125739180716 80.388825541595,41.631880247208755 79.40364880254492,43.45858227100689 73.24629418482073,57.66613089147722 79.77309007989243,62.80785196699435 100.33865450369194,68.28780998545699 102.80159635096788,59.96637836872833 102.37058152793907,56.78662286075996 97.13683010241948,50.291766200214624 84.8836944126524,42.98499323381111 81.2508551881183,41.29360166453989 80.20410490292124,41.97015869547613 73.3078677309677,57.80143973877421 82.97491448093206,63.619699824776035 89.44013683008961,64.63450855849078 100.21550741163082,68.49077071622014 101.1391106043011,64.63450855849078 103.97149372845888,64.36389301455347 104.40250855195336,63.552045866206754 105.44925883668475,58.07205736846663 109.26681870012544,58.07205736846663" stroke="#ff0000" stroke-linecap="round" stroke-linejoin="round" stroke-width="0.5"><title>2022-01-07 7.2km</title></polyline><polyline fill="none" points="149.20941098732874,33.0 151.64968553441577,33.41413024638314 151.80220269365236,50.84873569276533 152.5647884896025,59.29666277806973 152.71730564860627,80.95424659422133 152.29788346099667,83.02471743710339 152.75543493847363,86.21322756560403 155.61513167317025,87.0 157.21656184480526,85.75772722996771 158.13166479975916,82.73485197991249 157.36907900380902,81.82384528042166 157.21656184480526,79.71196041445364 157.21656184480526,69.48369945722516 158.77986272634007,68.32420869357884 167.9308922777418,68.44843996167765 167.2826943511609,73.16920772756566 168.42657304508612,77.31019932008348 170.71433043293655,80.83001810021233 170.79058901267126,82.15512061535264 169.9517446369864,84.55686093319673 167.39708222076297,86.50309122269391 158.7036041468382,86.4616821379168 158.39856982859783,85.05377143720398 157.55972545291297,85.01236224538297 157.2546911346726,85.79913636675337 157.9791476407554,86.0475911226822 158.5510869876016,85.46786318716477 157.6741133222822,84.8053162402648 157.59785474278033,85.84054550033761 158.43669911823235,85.21940817389986 157.6741133222822,84.97095305056428 157.71224261214957,86.0475911226822 158.5510869876016,85.71631809012615 157.8266304815188,84.97095305056428 156.22520031011663,86.5445003042114 153.40363286505453,86.66872753074858 152.4885299098678,86.00618200437748 152.52665919973515,57.35033793572802 151.87846127315424,52.17390915451688 151.6878148240503,33.45554325424018 151.6115562445484,54.4101322593051 152.1834955913946,56.066588060348295 151.80220269365236,40.16441006885725" stroke="#ff5b00" stroke-linecap="round" stroke-linejoin="round" stroke-width="0.5"><title>2022-01-01 6.1km</title></polyline><polyline fill="none" points="60.68348623882048,138.16726574877976 61.92201834870502,138.50746929674642 64.0275229359977,135.64975529519143 66.62844036705792,130.07038142823149 67.0,126.73634798603598 47.36926605505869,116.18983019585721 46.068807339295745,117.07438183948398 44.64449541294016,123.60642722802004 42.10550458729267,123.67446910531726 43.46788990823552,114.9650648732204 22.784403669880703,101.96883603098104 20.059633027529344,101.96883603098104 13.247706421883777,115.84961778199067 13.185779816703871,117.82284790102858 23.03211009176448,123.60642722802004 25.199541284469888,123.81055284343893 24.518348623765633,127.62088873580797 27.800458715530112,128.98171887430362 28.97706422000192,126.3961397621315 25.69495412823744,124.15076209470863 24.95183486235328,127.07655607478227 27.924311926355585,128.7095530196675 28.853211009176448,126.3961397621315 25.50917431199923,124.35488758055726 24.95183486235328,127.48480560298776 27.614678899059072,128.64151154237334 28.97706422000192,126.19201476301532 26.066513761645183,124.4909712105291 24.58027522917837,126.73634798603598 27.428899082588032,128.57347005978227 28.172018348705024,128.57347005978227 29.162844036705792,125.9198480215855 25.447247706586495,124.28684575727675 24.518348623765633,126.9404728555819 27.67660550470464,128.7095530196675 28.667431192705408,125.6476811938337 25.75688073388301,124.21880392864114 24.95183486235328,125.3074725374463 24.704128440702334,126.80438961467007 27.614678899059072,128.57347005978227 28.97706422000192,125.78376461856533 25.447247706586495,124.96726374590071 24.642201834823936,126.9404728555819 26.995412844000384,128.5054285718361 28.23394495411776,128.23326256580185 30.15366972493939,125.03530551493168 40.309633027529344,128.7095530196675 44.02522935788147,116.93829703063238 43.28211009153165,115.10114999552025 28.04816513787955,104.75861905846978 25.385321100940928,104.07818501180736 21.66972477082163,101.49253070325358 20.245412844000384,101.69666159048211 13.0,117.00633943773573 24.022935779532418,122.85796622134512 39.81422018352896,128.7095530196675 40.92889908258803,128.1652210506727 43.777522935764864,116.93829703063238 43.46788990823552,114.89702230383409 21.731651376234367,101.69666159048211 20.49311926588416,101.62861796678044 13.185779816703871,116.46200002962723 13.433486238587648,117.68676321132807 15.538990825414658,119.18369360989891 23.5894495411776,123.47034345736029 28.543577981879935,124.21880392864114 40.495412844000384,129.1858432085719 42.04357798141427,123.60642722802004 42.47706422023475,122.85796622134512 43.158256880706176,126.19201476301532 45.94495412847027,117.68676321132807 47.059633027529344,116.93829703063238 65.88532110094093,125.6476811938337" stroke="#ff0900" stroke-linecap="round" stroke-linejoin="round" stroke-width="0.5"><title>2021-12-24 7.1km</title></polyline><polyline fill="none" points="124.29076396790333,135.89879333693534 127.0,130.35121479444206 125.89167616865598,128.05098870123038 121.51995438989252,126.49494987912476 114.80843785614707,121.48854481120361 106.68072976055555,119.32360377290752 104.58722919039428,122.8416301648831 104.46408209810033,127.57741196948336 101.87799315853044,126.29198808403453 104.09464082098566,128.86283391423058 104.40250855172053,126.22433414164698 102.86316989711486,124.73594604752725 103.97149372845888,119.52656722912798 102.86316989711486,116.41445558407577 101.01596351177432,114.31715653755236 94.92018243996426,112.35516242979793 83.4059293041937,104.57479645300191 80.14253135677427,104.10120666306466 73.0,120.27076615463011 79.7730900796596,124.60063791007269 88.63968072948046,127.98333489859942 85.49942987435497,126.69791162596084 84.39110604324378,128.45691140455892 84.51425313577056,129.7423320215894 87.16191562148742,131.0954042589874 88.94754846044816,128.25395007710904 85.86887115146965,126.83321943040937 84.76054732035846,127.64506580436137 84.57582668215036,129.67467835330172 87.4697833522223,131.23071136447834 88.82440136815421,128.18629629036877 85.25313568976708,126.69791162596084 84.20638540503569,129.20110252453014 87.22348916740157,131.0954042589874 88.94754846044816,128.3892576340004 85.37628278229386,127.23914271401009 84.82212086650543,129.53937100048643 87.10034207510762,130.89244356041308 88.76282782224007,128.3892576340004 85.74572405940853,126.69791162596084 84.45267958939075,128.45691140455892 84.45267958939075,129.67467835330172 87.34663626016118,131.16305781452684 89.00912200682797,128.52456516952952 85.49942987435497,126.83321943040937 84.14481185865588,129.20110252453014 86.23831242858432,130.7571364013129 87.4697833522223,131.23071136447834 88.88597491453402,128.86283391423058 85.68415051302873,126.69791162596084 84.267958950717,128.99814137455542 86.85404789051972,130.82478998345323 87.96237172163092,130.68948281364283 89.07069555297494,128.25395007710904 85.74572405940853,127.23914271401009 84.63740022783168,129.9452929943218 87.10034207510762,131.02775069820927 88.76282782224007,128.93048764712876 85.31470923614688,127.17148884688504 84.267958950717,128.93048764712876 86.9156214366667,130.89244356041308 87.59293044451624,131.16305781452684 88.88597491453402,128.72752643248532 85.31470923614688,126.76556553080445 84.69897377421148,129.53937100048643 87.03876852896065,130.82478998345323 88.82440136815421,128.65987268363824 85.49942987435497,126.5626038001501 84.267958950717,129.53937100048643 86.73090079799294,130.82478998345323 87.90079817571677,130.41886840906227 89.07069555297494,127.98333489859942 85.31470923614688,127.17148884688504 84.39110604324378,129.53937100048643 86.85404789051972,130.96009713207604 89.00912200682797,128.3892576340004 85.31470923614688,127.10383497434668 84.51425313577056,128.18629629036877 84.08323831227608,129.47171731607523 86.97719498281367,131.23071136447834 88.94754846044816,128.52456516952952 85.49942987435497,126.42729595297715 84.08323831227608,129.67467835330172 87.40820980607532,131.16305781452684 89.07069555297494,128.32160385820316 85.00684150494635,127.0361810963368 83.96009121998213,129.60702467960073 86.9156214366667,131.02775069820927 87.90079817571677,130.55417562206276 88.51653363741934,128.05098870123038 85.80729760532267,126.96852721297182 84.20638540503569,128.99814137455542 87.16191562148742,131.29836490919115 89.87115165311843,127.57741196948336 100.46180159621872,131.02775069820927 101.32383124274202,127.10383497434668 104.21778791327961,125.41248641291168 105.6339794753585,120.20311173371738 106.7423033064697,119.52656722912798 110.49828962376341,120.33842057001311 113.14595210948028,122.43570478458423" stroke="#ff6300" stroke-linecap="round" stroke-linejoin="round" stroke-width="0.5"><title>2021-12-19 6.0km</title></polyline><polyline fill="none" points="179.64759725425392,138.39723609748762 181.00686498871073,138.73666098562535 183.10755148762837,136.49645423219772 187.0,128.7575129827601 186.93821510323323,126.10996435815468 166.5491990847513,116.53798934270162 165.0663615562953,119.52500014932593 164.6338672770653,124.88801607198548 162.28604119014926,123.3266351633356 163.8924485128373,115.1802537055919 160.00000000023283,112.5326630070922 159.56750572077,111.31069530185778 155.61327231139876,110.15661308658309 148.32265446241945,104.65772935567657 140.97025171644054,101.26333901437465 133.0,117.35262968932511 140.90846681920812,122.44411425694125 145.4805491992738,123.0550903659896 144.43020594958216,126.04207838815637 146.59267734573223,128.41808413044782 149.06407322664745,125.63476245460333 145.35697940527461,124.20915515808156 144.4919908468146,126.58516599738505 147.33409611019306,128.55385568772908 149.06407322664745,125.56687644665362 145.35697940527461,124.20915515808156 144.862700229045,127.67134018067736 147.27231121296063,128.0786551433266 149.06407322664745,125.90630643180339 145.6659038902726,123.3945213490515 145.23340961127542,126.99248147796607 147.82837528618984,127.94288351060823 148.81693363841623,125.63476245460333 145.91304347850382,123.93761064123828 144.4919908468146,126.38150818442227 145.4805491992738,127.26402502373094 147.95194508018903,127.87499768618727 149.12585812364705,124.75224393239478 145.7894736842718,124.27704127365723 144.9862700230442,125.36321839108132 144.61556064081378,126.51728006522171 147.7665903889574,127.94288351060823 148.75514874141663,125.56687644665362 145.8512585812714,123.93761064123828 144.3066361558158,127.06036737246905 147.7665903889574,128.82539873715723 148.69336384441704,125.29533236159477 145.7894736842718,123.93761064123828 144.36842105304822,126.38150818442227 144.24485125858337,127.12825326155871 147.21052631596103,128.4859699117369 149.24942791787907,125.77053445391357 148.69336384441704,125.36321839108132 145.91304347850382,124.07338291039923 144.4919908468146,126.24573628202779 147.64302059519105,128.55385568772908 149.12585812364705,125.49899043352343 145.4805491992738,124.14126903685974 144.3066361558158,126.58516599738505 147.086956521729,128.35019834386185 148.75514874141663,126.51728006522171 148.50800915341824,125.29533236159477 146.2219679635018,124.14126903685974 144.43020594958216,126.24573628202779 147.21052631596103,128.28231255168794 149.18764302087948,125.56687644665362 145.97482837550342,124.07338291039923 144.55377574381419,126.313622236019" stroke="#ffeb00" stroke-linecap="round" stroke-linejoin="round" stroke-width="0.5"><title>2021-12-18 4.4km</title></polyline><polyline fill="none" points="61.04095563152805,198.25882486789487 66.75426621176302,188.7414370876504 63.68259385670535,185.23145156214014 52.19453924917616,178.81894055736484 47.402730375295505,177.19893011823297 45.866894197883084,178.34643783175852 44.331058020470664,184.42145284306025 42.672354948706925,183.88145326788072 40.15358361788094,185.70395045832265 42.058020477881655,181.5189510906348 42.85665528988466,174.56640656548552 39.600682593882084,171.93387485475978 34.37883959035389,169.7063416505698 30.26279863482341,166.19627747416962 21.84641638211906,162.0786837034393 20.556313993409276,161.94368029094767 19.08191126282327,164.17123385163723 13.368600682821125,177.6039330177009 30.201365187764168,185.0964518293622 41.32081911270507,188.60643791238545 42.365187713177875,186.0414495090954 42.058020477881655,183.13895329157822 43.593856655294076,174.76890866691247 21.53924914682284,161.80867685715202 20.31058020470664,162.14618540141964 18.03754266211763,166.19627747416962 13.30716723552905,177.53643254790222 24.242320819292217,182.73395303089637 40.15358361788094,188.87643624126213 41.32081911270507,188.60643791238545 42.979522184468806,173.89139921218157 37.57337883976288,171.52886925212806 29.095563139999285,165.6562663136283 24.672354948706925,164.17123385163723 23.566552900942042,162.48369381180964 20.433447098825127,161.74117513216333 13.0,177.26643061486538 25.102389078587294,183.13895329157822 24.488054607296363,186.58144771121442 27.80546075082384,188.06644099747064 28.788395904703066,185.5689508006326 25.716723549412563,184.21895304258214 24.365187713410705,186.4464481929317 25.409556314116344,187.25644498126348 27.92832764517516,187.72894275118597 29.279863481409848,184.6239525951678 40.58361774752848,188.3364394978271 41.750853242585436,184.42145284306025 44.88395904446952,182.86895313928835 45.43686006846838,177.13142961624544 47.402730375295505,176.5914254070958 63.7440273037646,184.42145284306025 66.50853242306039,184.48895276576513 67.0,185.70395045832265 65.52559726941399,190.69892271625577" stroke="#ff5a00" stroke-linecap="round" stroke-linejoin="round" stroke-width="0.5"><title>2021-12-15 6.1km</title></polyline><polyline fill="none" points="123.19977298541926,197.1398587525473 126.8161180478055,189.52974649966927 126.38706015911885,187.64404440537328 122.70942111243494,186.29711176961428 121.42224744614214,184.61344296479365 106.95686719636433,178.3501656493754 105.42451759357937,179.56241648370633 104.19863791158423,184.61344296479365 102.35981838824227,184.41140248364536 103.89216799102724,177.33995529613458 103.34052213397808,176.12770128279226 82.56186152109876,162.99483833223348 80.17139614047483,163.19688391895033 73.24517593625933,177.81138694414403 73.0,179.15833306498826 81.27468785457313,184.7481365923304 87.71055618603714,185.35425765108084 99.78547105542384,190.0685177561827 100.88876276952215,189.52974649966927 103.15664018155076,180.50527704536216 103.34052213397808,176.2623962588841 99.41770715080202,172.42358105478343 81.2133938705083,162.8601412474527 73.30646992055699,178.8215967353899 80.11010215664282,183.8052807506756 101.01135073765181,190.20321051671635 101.3178206582088,186.1624183882377 102.9114642450586,187.3746580495499 105.54710556170903,181.7175247974228 105.54710556170903,179.15833306498826 107.20204313285649,178.48486027214676 110.6345062428154,179.495069260709 123.32236095354892,186.49915180145763 126.32576617482118,187.10527160787024 127.0,188.92362842697185" stroke="#fffa00" stroke-linecap="round" stroke-linejoin="round" stroke-width="0.5"><title>2021-12-13 4.2km</title></polyline><polyline fill="none" points="182.72747252741829,197.14784683688777 187.0,188.8674589015427 186.70329670305364,186.91144955187337 168.24835164798424,177.84854538267246 166.94285714277066,178.30495302233612 166.05274725239724,180.8477909375797 162.96703296690248,194.6050594309927 167.0021978020668,177.84854538267246 145.34285714267753,163.69978264009114 141.96043956000358,163.69978264009114 136.44175824150443,174.9144902107073 135.37362637347542,179.1525665363297 141.72307692281902,183.26021962426603 147.83516483497806,184.23822923359694 159.16923076915555,189.32386041234713 161.54285714263096,189.38906060735462 164.50989010976627,178.04414868785534 164.1538461537566,176.15331478533335 157.15164835145697,170.61119031329872 148.66593406558968,166.43827188952127 144.6307692306582,162.85215316311223 142.01978021953255,163.76498487137724 136.50109890080057,174.45808068534825 135.195604395587,178.4353551582899 137.74725274718367,180.45658561727032 134.8395604393445,179.08736552775372 133.0,182.67341329919873 135.195604395587,185.08583661878947 153.17582417582162,193.9530613910756 158.6351648347918,195.90905395674054 160.29670329624787,194.93105825677048 163.679120878689,182.99941686500097 164.45054945047013,176.4141197205754 158.51648351643234,171.65441660326906 155.90549450507388,170.87199701025384 143.74065934028476,163.30856914422475 141.8417582414113,163.6345804037992 140.59560439549387,165.78625146870036 134.89890109887347,179.34816953045083 140.95164835150354,182.6082125704852 142.850549450377,182.2822088493267 145.4615384612698,184.30342983285664 149.37802197784185,185.02063608175376 156.3802197801415,188.34585686417995" stroke="#ff8500" stroke-linecap="round" stroke-linejoin="round" stroke-width="0.5"><title>2021-12-12 5.6km</title></polyline><polyline fill="none" points="61.17045454541221,253.56892531720223 66.61647727293894,242.44419992307667 66.38636363623664,239.2416058324743 59.94318181835115,234.9433722504764 50.58522727293894,233.17350630124565 48.20738636376336,233.76346194575308 44.065340909175575,229.21236704679905 41.15056818211451,228.03245036693988 39.92329545458779,229.29664675955428 35.01420454541221,248.59652459877543 35.1676136367023,252.64186932402663 33.096590909175575,253.48464753327426 34.63068181788549,253.56892531720223 35.39772727293894,251.79909044509986 36.08806818211451,242.9498717901879 40.92045454541221,228.62240887089865 45.90625000046566,229.29664675955428 61.3238636367023,237.2189098459785 67.0,237.4717470551841 38.61931818211451,224.32413225603523 33.71022727293894,243.5398219974595 27.957386363763362,240.5057888654992 20.28693181835115,238.5673742655781 18.215909090824425,239.2416058324743 15.22443181835115,237.4717470551841 13.767045454587787,237.97742129297694 13.460227272938937,241.3485767171369 17.832386363763362,243.03415041137487 18.982954545412213,238.9887690450414 14.457386363763362,237.4717470551841 13.53693181835115,240.7586252912879 17.142045454587787,242.69703588692937 19.136363636236638,239.74727922660531 15.147727272938937,237.13463076285552 13.613636363763362,238.5673742655781 13.690340909175575,241.2642979621305 17.372159091290087,242.61275723885046 19.366477272938937,239.2416058324743 14.150568182114512,237.72458420420298 13.53693181835115,241.0957404319197 17.372159091290087,242.69703588692937 19.289772727526724,239.2416058324743 15.684659090824425,237.6403051613015 14.38068181835115,238.5673742655781 13.690340909175575,240.0001158331288 17.065340909175575,242.5284785843105 18.676136363763362,242.02280651620822 19.44318181835115,239.66300034424057 15.071022727061063,237.4717470551841 13.613636363763362,238.14597931853496 13.0,240.5900676807505 17.52556818211451,242.69703588692937 19.289772727526724,239.83155810204335 18.0625,238.90449010260636 20.28693181835115,238.48309528961545 32.55965909129009,243.03415041137487 35.1676136367023,236.12328124267515 38.46590909129009,237.80886324041057 40.76704545458779,228.11673017323483 44.065340909175575,228.45384933194146 66.76988636376336,239.57872145541478 65.15909090917557,245.8996195445652 60.17329545458779,255.67586774396477" stroke="#ffb500" stroke-linecap="round" stroke-linejoin="round" stroke-width="0.5"><title>2021-12-11 5.0km</title></polyline><polyline fill="none" points="89.4549467859324,213.08314486552263 91.02426505018957,213.0 91.44530165777542,217.7392376990756 91.2539213814307,229.75344191250042 91.94289037538692,238.85746022628155 92.17254670686089,266.6258838950889 95.043250848772,267.0 96.114980394952,266.5843154237082 97.7991268245969,263.3003964665404 96.95705360965803,259.6839065615204 96.88050149939954,249.33313446547254 98.14361132169142,248.33545961536583 106.94710402330384,248.2938897915301 107.78917723800987,255.98425488601788 110.54505321430042,261.9701959878148 109.4733236678876,264.79686824348755 106.64089558133855,266.2101990421361 104.61226465459913,266.5843154237082 96.61256911279634,265.9192194622592 96.03842828446068,266.4596099908522 93.12944808742031,266.7090208288573 92.13427065173164,266.2517675412819 92.36392698297277,242.55722461722326 91.48357771290466,233.95211708181887 91.56012982339598,216.36735721226432 91.17736927093938,214.12245464598527 91.21564532630146,217.4898051324708 91.33047349192202,213.20786214069813 89.64632706204429,213.12471729359822" stroke="#ffba00" stroke-linecap="round" stroke-linejoin="round" stroke-width="0.5"><title>2021-12-05 4.9km</title></polyline><polyline fill="none" points="157.58084368240088,213.12817053380422 161.19974418985657,213.17089403880527 161.86845406633802,267.0 162.41915631759912,264.5649820903491 162.1831410669256,237.43733416550094 161.63243881589733,235.42941037897253 161.35708769015037,213.0 161.27841594000347,234.9594697614957 161.86845406633802,236.79650818347 161.23908006493002,214.36715089413337" stroke="#ffff00" stroke-linecap="round" stroke-linejoin="round" stroke-width="0.5"><title>2021-12-04 4.1km</title></polyline></svg>