<?xml version="1.0" encoding="utf-8" ?>
<svg baseProfile="full" height="300mm" version="1.1" viewBox="0,0,200,300" width="200mm" xmlns="http://www.w3.org/2000/svg" xmlns:ev="http://www.w3.org/2001/xml-events" xmlns:xlink="http://www.w3.org/1999/xlink"><defs /><rect fill="#222222" height="300" width="200" x="0" y="0" /><text fill="#FFFFFF" style="font-size:12px; font-family:Arial; font-weight:bold;" x="10" y="20">Over 6km Runs</text><text fill="#FFFFFF" style="font-size:4px; font-family:Arial" x="10" y="280">ATHLETE</text><text fill="#FFFFFF" style="font-size:9px; font-family:Arial" x="10" y="290">jerryu</text><text fill="#FFFFFF" style="font-size:4px; font-family:Arial" x="120" y="280">STATISTICS</text><text fill="#FFFFFF" style="font-size:3px; font-family:Arial" x="120" y="285">Number: 3</text><text fill="#FFFFFF" style="font-size:3px; font-family:Arial" x="120" y="290">Weekly: 1.0</text><text fill="#FFFFFF" style="font-size:3px; font-family:Arial" x="141" y="285">Total: 22.4 km</text><text fill="#FFFFFF" style="font-size:3px; font-family:Arial" x="141" y="290">Avg: 7.5 km</text><text fill="#FFFFFF" style="font-size:3px; font-family:Arial" x="167" y="285">Min: 6.0 km</text><text fill="#FFFFFF" style="font-size:3px; font-family:Arial" x="167" y="290">Max: 8.4 km</text><polyline fill="none" points="61.73401752195787,115.5 61.898663427098654,115.19408425793517 62.09623851336073,113.51154316961765 62.16209687537048,111.63779525255086 62.35967196163256,110.720037719002 62.35967196163256,109.49635747689172 62.42553032375872,109.22867688609404 62.721892952919006,108.8845158428885 62.91946803918108,108.50211430920172 62.35967196163256,108.57859464749345 62.09623851336073,108.54035448038485 61.86573424609378,108.34915358547005 61.536442435812205,107.85203079786152 61.27300898754038,107.73731005992158 60.81200045289006,107.66082954825833 60.252204375341535,107.43138791876845 58.47402859933209,107.35490734421182 54.88474786642473,107.43138791876845 53.86394325422589,107.35490734421182 53.50172226293944,107.24018645257456 53.30414717667736,107.01074456310016 53.17243045254145,106.7048218230193 53.435863900813274,104.6780773003411 53.30414717667736,103.49261782603571 53.50172226293944,102.84252553878468 53.5675806250656,102.26891375132254 53.633438986958936,100.77751895409892 53.86394325422589,99.32435928366613 53.962730797356926,97.45053972949972 54.324951788876206,94.04704735745327 54.35788096988108,92.97627925654524 54.48959769401699,91.40836324813426 54.88474786642473,88.42548035492655 54.88474786642473,87.69887704370194 55.21403967670631,87.04875708546024 55.312827219837345,86.43687843703083 55.21403967670631,85.40433092979947 55.47747312509455,83.95111105171964 55.51040230609942,83.37747005929123 55.44454394408967,82.23018541367492 55.57626066810917,81.46532701238175 55.60918984923046,80.47100873332238 55.80676493549254,79.17074234780739 56.267773469910026,77.83222807318089 56.79464036645368,76.76141317668953 57.222719719982706,76.2260045693256 57.78251579764765,75.5758645075257 58.70453286659904,74.88747967078234 58.7703912287252,74.61977411163389 58.73746204772033,74.16084984631743 58.83624959073495,73.93138750092476 59.16554140113294,73.70192501347628 59.98877092695329,73.3194872190943 60.7461420907639,72.7075859279721 61.60230079770554,72.82231749698985 62.39260114275385,73.16651199091575 64.8622897202149,73.85490002084407 66.01481105654966,74.23733726327191 67.6612701084232,74.58153044458595 67.89177437569015,74.58153044458595 68.08934946195222,74.5050430984993 68.51742881536484,74.16084984631743 68.61621635849588,73.96963123499881 68.68207472062204,72.74582978826948 68.583287177491,70.45119119470473 68.45157045323867,69.34211078679073 68.15520782396197,68.23302706331015 67.89177437569015,67.65936176726245 67.496624203166,66.93271778547205 66.5746071342146,65.74713770716335 66.01481105654966,65.13522392610321 65.75137760839425,64.75277730051312 64.96107726346236,62.15212978972704 64.82936053944286,62.03739492074237 64.4342103669187,61.96090498837293 64.23663528065663,61.80792507642764 64.10491855652072,61.57845509023173 64.10491855652072,61.15775974676944 64.00613101338968,60.81355411093682 63.8085559271276,60.62232861967641 63.413405754836276,60.39285790003487 63.841485108132474,60.737063926208066 64.00613101338968,60.966534432867775 64.07198937551584,61.15775974676944 64.10491855652072,61.69319010106847 64.20370609965175,61.88441504034563 64.33542282378767,62.03739492074237 64.53299791004974,62.07563988096081 64.8622897202149,62.03739492074237 64.96107726346236,61.96090498837293 64.99400644446723,61.54021007864503 65.05986480647698,59.05427587302984 64.96107726346236,58.71006828540703 64.82936053944286,58.4805963828112 64.46713954792358,58.21287898378796 62.227955237496644,57.371480186178815 62.03038015135098,57.25674383860314 61.9645217891084,57.142007455579005 62.06330933223944,56.33885178065975 62.590176229015924,54.73253521390143 62.78775131504517,53.77639109786833 63.05118476343341,53.27919518350973 63.512193297967315,52.1318174530752 63.742697565001436,50.71671336441068 64.07198937551584,49.49283520443714 64.20370609965175,48.53667758216034 64.4342103669187,48.4219385018514 65.65259006526321,48.26895300616161 66.04774023778737,48.115967447462026 66.54167795320973,47.73350327461958 66.93682812561747,47.045066769671394 67.10147403087467,46.127149442269 67.00268648786005,44.2148143806553 67.13440321176313,43.10565552744083 67.26611993601546,42.64669227306149 67.6612701084232,42.07298740648548 67.92470355681144,41.49928165253368 68.12227864307351,40.96382214836194 68.18813700508326,40.50485624364228 68.12227864307351,39.51042816854897 67.8259160136804,38.592492194409715 67.56248256540857,38.17177078028908 66.40996122907382,36.94785122567555 65.3562274358701,36.106404189165914 64.82936053944286,35.80042297524051 64.23663528065663,35.60918458836386 62.95239722030237,35.41794610294164 62.590176229015924,35.45619380788412 61.898663427098654,35.68567995497142 61.10836308228318,35.83867064068909 60.28513355634641,35.83867064068909 59.3631164872786,35.57093689910835 57.914232521667145,34.84423005481949 57.321507263113745,34.65299117498216 56.597065280308016,34.53824779961724 55.80676493549254,34.5 54.753031142172404,34.61474338709377 54.09444752149284,34.84423005481949 53.30414717667736,35.26495524353231 52.349200926721096,35.99166126357159 51.36132549541071,37.06259385557496 50.53809596959036,37.63630647206446 49.451432995381765,38.13352335529635 47.903761486755684,38.51599742731196 47.245177865959704,38.4777500378259 45.598718814319,38.248265618341975 45.10478109866381,38.248265618341975 44.54498502111528,38.363007845851826 43.45832204667386,38.783729043003405 42.83266760711558,39.089707795734284 42.536304977722466,39.35743899730733 42.272871529567055,39.73991180717712 42.00943808129523,40.23712587036425 41.81186299503315,40.61959777312586 41.746004633023404,41.00206928141415 41.647217089892365,41.38454039528733 41.5813587277662,42.570198342145886 41.31792527937796,44.10007396346191 41.35085446049925,44.597282181784976 41.54842954676133,44.903256138641154 42.997313512372784,45.4769566275354 44.215693210600875,45.89766975538805 45.40114372805692,46.43312213718309 46.05972734873649,46.58610838992172 47.57446967647411,47.1598062760022 48.36477002117317,47.31279222900048 49.451432995381765,47.65701039278065 50.735671055852436,47.65701039278065 51.690617305925116,47.88648899109103 52.777280280017294,48.345445761835435 53.66636816819664,48.957387239614036 54.42373933189083,49.339850150456186 55.60918984923046,49.798805122991325 57.255648901103996,50.296005702373805 57.38736562512349,50.48723651707405 57.38736562512349,50.71671336441068 57.288578081992455,51.213912713486934 57.02514463372063,52.1318174530752 57.02514463372063,52.4760311449063 57.255648901103996,52.74375268435688 57.914232521667145,53.087965808139415 58.342311875196174,53.39393276133342 58.935037133982405,54.15884903998813 59.3631164872786,55.03850081056589 59.42897484928835,54.962009435053915 59.33018730627373,54.57955232093809 59.49483321153093,55.07674649232649 59.593620754545555,55.1914835141215 60.68028372875415,55.1914835141215 61.766946702846326,55.42095745136612 62.42553032375872,55.68867686536396 62.590176229015924,55.57393999732449 62.129167694365606,56.91253458301071 62.09623851336073,57.142007455579005 62.129167694365606,57.33323474088684 62.32674278062768,57.52446192773641 63.14997230656445,57.94516139157349 63.8085559271276,58.09814289654605 64.59885627205949,58.44235105198459 64.9281480825739,58.82480418350315 65.0269356254721,59.13076640467625 64.9281480825739,60.08689671976026 64.82936053944286,62.15212978972704 64.99400644446723,62.95527287849109 65.85016515152529,64.98224532324821 66.37703204806894,65.74713770716335 67.00268648786005,66.47378401114838 67.56248256540857,67.3534065799322 68.02349109994248,68.38600432567182 68.35278291034047,69.41859919726267 68.45157045323867,70.37470299715642 68.45157045323867,71.98095183400437 68.55035799636971,72.74582978826948 68.51742881536484,73.93138750092476 68.45157045323867,74.23733726327191 67.99056191882119,74.58153044458595 67.69419928942807,74.61977411163389 66.31117368594278,74.12260613197577 64.9281480825739,73.85490002084407 62.68896377191413,73.20475580383209 61.60230079770554,72.93704903041362 61.371796530555,72.93704903041362 59.72533747868147,73.54894994298229 58.309382694074884,74.19909355684649 57.848374159657396,74.5050430984993 56.86049872869626,75.308159445005 55.938481659512036,76.60843936770107 55.7079773923615,77.29682101125945 55.246968857827596,78.29114779707743 55.01646459044423,79.1324991498841 54.68717278027907,81.15938321032445 54.292022607754916,84.90717740147375 54.19323506462388,85.09839037587517 53.89687243523076,85.40433092979947 53.765155711211264,85.7867562675965 53.732226530089974,86.24566615259391 53.79808489209972,86.85754511627601 54.02858915948309,87.8900885792973 53.86394325422589,89.38153517554747 53.633438986958936,90.37582957581617 53.1065720905317,96.11209139748826" stroke="#4dd2ff" stroke-linecap="round" stroke-linejoin="round" stroke-width="0.5"><title>2023-05-12 8.4km</title></polyline><polyline fill="none" points="178.17575279122684,34.70011961727869 177.41744987037964,34.660095701983664 176.72808357863687,34.5 175.45275593886618,34.5 173.21231549070217,34.740143528353656 172.31613931129687,34.620071782701416 170.2135721213417,34.620071782701416 169.04164942540228,34.660095701983664 168.3178148190491,34.90023913150071 167.49057526898105,34.90023913150071 166.42205751675647,34.78016743538319 165.69822291028686,34.90023913150071 165.31907144980505,35.46057322307024 165.28460313519463,35.66069234567112 165.52588133735117,36.30107284520636 165.52588133735117,39.462936091644224 165.49141302274074,41.10389295118512 165.52588133735117,42.1044730010326 165.42247639363632,42.664796703640604 165.0433249331545,43.02500437141862 164.80204673099797,43.14507351978682 163.83693392248824,43.1850965609774 162.6650112265488,43.34518868470332 159.45945796987507,43.54530374641763 158.56328179046977,43.78544168456574 157.83944718411658,43.86548763100291 157.56370066746604,43.98555651967763 157.32242246542592,44.3457629631157 157.21901752147824,44.946106293587945 157.42582740902435,46.74713071950828 157.42582740902435,48.14792172421585 157.35689077991992,48.74825918031274 157.35689077991992,49.708797181083355 157.1500808923738,51.4697773490625 157.04667594854254,51.99006541701965 156.66752448817715,52.550374864949845 156.52965122985188,53.070661486155586 156.0470948254224,53.43085950810928 155.8402849381091,53.51090346762794 154.97857707331423,53.59094741058652 151.56621392909437,53.63096937598311 145.67213213455398,53.43085950810928 144.01765303430147,53.51090346762794 143.01807191118132,53.51090346762794 141.36359281104524,53.67099133715965 140.70869483379647,53.99116687857895 140.4329483170295,54.19127645806293 140.2261384294834,54.55147344112629 139.91592359822243,55.471975325839594 139.3299622501945,56.472518379741814 138.60612764395773,58.193446406367 137.53760989173315,60.47466483450262 137.4686732625123,60.67477107531158 137.4342049479019,61.675300733943004 137.36526831879746,61.91542746865889 137.12399011664093,62.2355962175352 136.71037034143228,62.51574365643319 136.26228225196246,63.23612185768434 133.88396854524035,68.11865002577542 133.5737537139794,69.03911977561074 133.09119730978273,69.99960762495175 131.19544000725728,72.84103694799705 128.74818967154715,76.16268151026452 127.92095012147911,77.48332748524263 125.47369978576899,80.84495153662283 125.23242158361245,81.2451429394714 124.64646023558453,83.0059802166943 124.47411866264883,83.16605593738495 123.81922068551648,83.44618828967214 123.54347416874953,83.72632044012425 122.75070293317549,85.08695944186184 121.85452675400302,87.12790901379776 121.54431192262564,87.88826003609574 121.33750203519594,88.5685728477838 121.06175551831257,89.08881125337211 120.47579417028464,90.5694859813375 119.99323776608799,92.13019107517903 119.23493484524079,94.17110366601264 118.82131507014856,95.57172375341179 117.75279731792398,98.65307018195745 117.54598743037786,99.09326053489349 117.13236765540205,100.4938628875243 116.1327865322819,103.09496815409511 115.54682518425398,104.25545565836364 115.16767372388858,105.3759230649448 114.16809260076843,107.09663458008436 113.47872630914208,108.65727332129609 113.2029797922587,109.09745234623551 112.6514867588412,109.69769566808827 112.06552541081328,110.45800254525966 111.82424720865674,110.89817953138845 111.82424720865674,111.05824376645614 113.3753213651944,112.09865968770464 114.4783074320294,113.05904114374425 115.85704001551494,113.41918357810937 116.51193799288012,113.859357211506 116.92555776785593,113.97940447961446 117.8217339470284,114.05943597096484 119.0970615867991,113.97940447961446 119.92430113698356,113.61926256414154 120.44132585590705,113.69929412973579 121.02728720393497,113.49921518491465 121.57878023723606,113.73930990640656 121.88899506849702,114.13946744598798 122.50942473125178,114.53962457377929 124.02603057294618,114.73970298320637 126.50774922338314,114.77971865280415 127.23158382985275,114.85974997942685 128.85159461537842,114.77971865280415 130.6784152885666,114.85974997942685 133.33247551182285,114.85974997942685 138.29591281258035,115.05982822412625 139.39889887941536,114.939781289635 140.15720180037897,115.09984386072028 146.60277662833687,115.3399375937006 147.49895280762576,115.5 149.42917842464522,115.5 150.11854471627157,115.21989074564772 150.7045060642995,115.05982822412625 151.29046741244383,115.05982822412625 154.70283055666368,113.97940447961446 157.08114426326938,113.01902529704967 157.77051055501215,112.85896186938044 160.52797572209965,111.93859588110354 161.9067083057016,111.45840406563366 162.56160628271755,111.17829189941403 163.7335289787734,110.89817953138845 164.87098336021882,110.53803476173198 166.35312088753562,109.89777656938531 166.83567729173228,109.6176632787101 167.11142380849924,109.01741983328247 166.80120897712186,108.17707745276857 166.07737437065225,106.69646979108802 165.45694470824674,105.7360726170009 164.97438830393367,104.57558953258558 164.00927549542394,102.61476541485172 162.9752260579262,100.6939485258772 162.59607459732797,100.09369130173582 159.42498965526465,93.77092557115247 158.976901565562,92.9705681456835 158.63221841969062,92.17020907218102 157.63263729657046,90.44943148375023 157.21901752147824,89.32892105192877 157.21901752147824,89.1288295633567 157.39135909464676,88.76866462468752 157.42582740902435,88.60859121137764 157.08114426326938,87.56811241849209 155.4956017921213,84.1665276970889 155.25432359008119,83.44618828967214 154.9096404442098,82.96596127632074 154.59942561283242,82.04552450895426 153.73771774815395,80.24466365989065 152.80707325413823,78.00358072819654 151.3938723562751,75.24222863157047 150.46322786225937,73.96159491303843 149.9806714579463,73.1211767422501 148.8776853911113,71.60041543238913 148.4985339306295,70.8400325459952 148.01597752643283,70.15968870249344 147.7402310097823,69.47934366783011 147.32661123469006,68.9990993970132 146.60277662833687,67.9585681075987 146.1202202240238,66.9580546253419 145.53425887599587,66.03757994659827 144.29339955095202,63.91647782159271 143.56956494459882,62.87593292395468 142.01849078806117,60.15449463491677 140.1916701149894,57.19290778337745 139.70911371079274,56.31243166423519 139.50230382324662,55.71210589376278 139.64017708145548,55.15180100459838 139.98486022744328,54.43140781723196 140.67422651918605,53.75103524734732 141.36359281104524,53.43085950810928 141.43252944014966,53.350815532088745 141.53593438386451,52.75048518634867 141.7082759568002,52.63041900593089 141.8806175297359,52.550374864949845 145.08617078652605,52.35026444066898 145.94787865120452,52.07010967345559 146.43043505540118,51.950043282762635 148.1193824702641,51.829976855020504 149.6015199975809,51.86999900167575 151.08365752489772,52.23019813653082 152.97941482719034,52.03008754728944 153.91005932108965,51.99006541701965 155.70241167978384,52.15015391330235 156.08156314014923,52.07010967345559 156.28837302769534,51.829976855020504 156.32284134230576,51.58984388818499 156.0470948254224,49.9889536506671 156.0470948254224,48.86832656033221 156.35730965679977,47.74769623807515 156.52965122985188,44.82603770165588 156.66752448817715,44.065602424845565 156.87433437572327,43.78544168456574 157.1156125777634,43.665372734103585 158.32200358831324,43.50528074236354 159.7007361719152,43.4652577341767" stroke="#4dd2ff" stroke-linecap="round" stroke-linejoin="round" stroke-width="0.5"><title>2023-05-03 8.0km</title></polyline><polyline fill="none" points="36.5951693567913,184.5 36.63335365289822,186.67261269505252 36.556985060917214,186.93864614889026 36.060589213855565,187.33769602145185 35.33508759108372,187.47071256337222 34.151374416658655,187.51505140165682 33.54042568174191,187.69240670881118 31.05844644550234,187.73674552410375 29.64562749583274,188.31314970814856 28.23280854616314,188.49050468642963 27.965518474578857,188.66785959151457 27.583675515139475,189.1555852040765 27.35456973942928,189.73198748804862 27.469122627284378,190.30838900021627 27.545491219265386,194.03281093394617 27.469122627284378,197.6685250720475 27.545491219265386,198.73263071809197 27.469122627284378,199.84107130218763 27.507306923391297,200.81649665525765 27.507306923391297,206.04828582890332 27.507306923391297,206.75767607596936 27.81278129084967,207.3783915831009 27.88914988259785,207.99910619526054 27.85096558672376,208.6198199125065 27.507306923391297,209.59522537403973 27.469122627284378,210.6593015389808 27.507306923391297,211.98939304647502 27.660044107120484,213.45248895831173 27.621859811013564,214.29487525793957 27.507306923391297,214.82690786122112 27.469122627284378,216.68901679466944 27.736412698868662,223.78269133003778 27.77459699474275,225.3344170547789 27.85096558672376,225.6890964350605 28.34736143378541,226.93047196543193 28.652835801476613,227.3294847686775 29.034678760915995,227.59549309877912 29.68381179193966,227.72849720224622 32.35671250754967,227.8615012645314 35.984220621874556,227.90583594277268 36.63335365289822,228.08317461036495 37.12974949995987,228.5265209596546 37.32067097979598,228.7481939632271 37.473408163525164,229.19153962784912 37.54977675550617,229.67921933156322 37.74069823534228,231.58559832788887 37.893435418838635,232.47228335717227 38.00798830669373,234.20131391237373 38.351646970259026,236.41800959524699 38.351646970259026,236.6840123103757 38.809858521446586,238.50169313175138 39.19170148088597,239.0336958230182 39.344438664615154,239.3883639187552 39.764465919928625,241.339033222961 39.99357169563882,243.1566943937505 40.299046063097194,246.57033000254887 40.56633613468148,248.1219736058847 40.60452043055557,248.91995956777828 40.98636338999495,250.91491800252697 41.7882336047478,255.96877134038368 42.055523676332086,257.2100595784141 42.093707972439006,258.7616648445837 42.590103819500655,261.59887144496315 42.74284100346267,263.4607781181694 43.27742114639841,265.1896842495771 43.58289551385678,265.455669192248 43.92655417742208,265.5 46.17942763771862,264.7907065276231 47.36314081191085,264.2587356567092 48.01227384293452,264.0814118869894 49.195987017126754,264.1700737809588 50.79972744663246,264.1700737809588 51.487044773530215,264.30306658762856 52.21254639630206,264.3473975141533 53.778102529933676,264.2587356567092 56.90921479696408,264.30306658762856 57.90200649155304,264.1700737809588 58.62750811432488,264.2587356567092 62.216831932775676,264.2144047211332 64.7369954646565,264.30306658762856 65.38612849568017,264.1700737809588 66.30255159805529,264.30306658762856 68.40268787485547,264.0814118869894 69.89187541650608,264.39172843602137 71.76290591759607,264.48039026604965 72.33567035687156,264.3473975141533 77.9487618599087,264.2587356567092 78.52152629895136,264.2144047211332 78.94155355426483,264.03708093307796 79.70523947314359,263.37211607809877 80.58347827987745,260.5792524746503 80.85076835146174,259.82561951034586 81.99629722954705,256.1460984504665 82.11085011740215,255.2151303072751 82.45450878096744,253.61918023627368 82.56906166882254,252.59954237216152 82.56906166882254,251.35824084395426 82.64543026057072,250.78192106098868 82.64543026057072,249.23028704244643 82.45450878096744,248.25497136893682 82.49269307684153,245.4176768490579 82.22540300525725,243.1566943937505 82.41632448486052,241.56069963026675 82.37814018898644,239.65436479871278 82.45450878096744,238.14702430568286 82.37814018898644,237.17168352784938 82.53087737271562,236.50667718524346 82.45450878096744,236.06333905280917 82.53087737271562,231.76293547984096 82.33995589311235,228.88119771055062 82.30177159700543,228.61519017486717 81.53808567812666,227.90583594277268 81.11805842281319,227.6398278044362 80.73621546360664,227.6398278044362 79.74342376925051,227.6841625056113 78.55971059505828,227.46248895433382 74.16851656185463,227.3738195018086 70.54100844752975,227.50682367369882 68.74634653842077,227.46248895433382 66.60802596574649,227.8615012645314 65.88252434297465,227.6841625056113 64.27878391346894,227.72849720224622 63.01870214752853,227.55115838855272 60.30761713557877,227.55115838855272 59.69666840066202,227.3738195018086 59.35300973709673,227.06347627437208 59.12390396138653,226.57579360780073 58.62750811432488,225.99944065322052 58.2456651548855,225.73343133705202 58.1311122670304,225.4674218566215 57.78745360369794,222.3196305243182 57.634716419968754,221.6989365592308 57.558347827987745,220.1028622542799 57.558347827987745,219.61517170307343 57.36742634815164,218.90580264251912 57.32924205227755,217.88608257018495 57.138320572674274,217.22104643899365 56.94739909283817,216.82202426734148 56.680109021253884,215.62495553318877 56.26008176594041,214.2505391780578 56.183713174192235,213.40815279152594 55.80187021475285,212.16673827031627 55.45821155142039,210.3932827442768 55.1145528878551,209.19619613414397 54.69452563254163,208.75282987829996 54.350866968976334,208.66415657228208 52.21254639630206,208.66415657228208 50.87609603838064,208.84150316601153 49.46327708871104,208.8858398029697 49.00506553729065,208.97451306320727 48.47048539435491,208.9301764353586 48.3941168023739,208.8858398029697 48.35593250649981,208.70849322751747 48.31774821062572,207.6887490010995" stroke="#4dd2ff" stroke-linecap="round" stroke-linejoin="round" stroke-width="0.5"><title>2023-04-26 6.0km</title></polyline></svg>