<?xml version="1.0" encoding="utf-8" ?>
<svg baseProfile="full" height="300mm" version="1.1" viewBox="0,0,200,300" width="200mm" xmlns="http://www.w3.org/2000/svg" xmlns:ev="http://www.w3.org/2001/xml-events" xmlns:xlink="http://www.w3.org/1999/xlink"><defs /><rect fill="#222222" height="300" width="200" x="0" y="0" /><text fill="#FFFFFF" style="font-size:12px; font-family:Arial; font-weight:bold;" x="10" y="20">Over 6km Runs</text><text fill="#FFFFFF" style="font-size:4px; font-family:Arial" x="10" y="280">ATHLETE</text><text fill="#FFFFFF" style="font-size:9px; font-family:Arial" x="10" y="290">jerryu</text><text fill="#FFFFFF" style="font-size:4px; font-family:Arial" x="120" y="280">STATISTICS</text><text fill="#FFFFFF" style="font-size:3px; font-family:Arial" x="120" y="285">Number: 11</text><text fill="#FFFFFF" style="font-size:3px; font-family:Arial" x="120" y="290">Weekly: 1.4</text><text fill="#FFFFFF" style="font-size:3px; font-family:Arial" x="141" y="285">Total: 82.1 km</text><text fill="#FFFFFF" style="font-size:3px; font-family:Arial" x="141" y="290">Avg: 7.5 km</text><text fill="#FFFFFF" style="font-size:3px; font-family:Arial" x="167" y="285">Min: 6.0 km</text><text fill="#FFFFFF" style="font-size:3px; font-family:Arial" x="167" y="290">Max: 10.0 km</text><polyline fill="none" points="56.93547034380026,33.0 57.62390409759246,33.22382044652477 58.119576400262304,33.31974344566697 60.29502706241328,33.47961504512932 60.9283861159347,33.67146085581044 62.05741747212596,33.6075122654147 62.828463276382536,33.703435145987896 64.86622718768194,34.21502334202523 65.16913803934585,34.4708171239763 65.3343621402746,34.79055905493442 65.3618994904682,35.11030065669911 65.3343621402746,35.909653220296605 65.44451154081617,37.02874335175147 65.41697419062257,37.54032606823603 65.30682479008101,38.11585561692482 65.41697419062257,38.72335787178599 65.47204889100976,39.458753747836454 65.41697419062257,40.769672511232784 65.47204889100976,42.08058573954622 65.41697419062257,42.9438670380041 65.47204889100976,43.7112261771108 65.44451154081617,44.318717483984074 65.49958624120336,46.077238250814844 65.3618994904682,46.33302225996158 64.92130188795272,46.68472492846195 64.75607778702397,46.78064376898692 64.42562958516646,46.87656257976778 64.83868983748835,47.228264632605715 64.94883923814632,47.42010194808245 65.0314512886107,47.80377622329979 65.44451154081617,48.31534118630225 65.52712359128054,48.60309610754484 65.58219829166774,52.47177526689484 65.66481034213211,53.974472356261685 65.58219829166774,55.31730190030066 65.47204889100976,56.02068648688146 65.44451154081617,57.39547903294442 65.49958624120336,57.970971779781394 65.49958624120336,59.12195407404215 65.3618994904682,60.24096054784604 65.41697419062257,61.29602010123199 65.60973564174492,62.57487536029657 65.63727299193852,64.14146587555297 65.55466094147414,65.5162224699452 65.41697419062257,66.47535137372324 65.3618994904682,67.21068152712542 65.27928743988741,67.78615608497057 65.08652598888148,68.68133661075262 64.59085368609522,70.31183736672392 64.48070428555366,70.8553357165365 64.06764403323177,71.94232956253109 63.70965848129708,73.06128984189127 63.59950908063911,73.73266407442861 62.58062712510582,76.57799590274226 62.27771627344191,77.05754364401218 62.19510422286112,77.66496971997549 62.19510422286112,78.08057635067962 61.69943192007486,80.19057066593086 61.42405841872096,80.8299600527389 61.17622226732783,81.75707232556306 60.54286321380641,83.67522686292068 60.37763911287766,83.9309799062321 60.18487766163889,84.12279455046519 59.57905595842749,84.60233064289787 59.33121980703436,84.76217584253754 58.560174002777785,84.7941448726342 56.68763419240713,85.0818659949582 55.06293053342961,85.27367992853397 52.419344918685965,85.40155581841827 50.271431606845,85.65730744029861 49.00471349991858,85.68927637816523 48.288742395932786,85.81715209697722 47.15971103962511,85.88108993667993 44.984260377590545,86.20077893752023 42.560973564279266,86.32865444564959 41.92761451075785,86.32865444564959 40.93626990518533,86.45652990124654 38.099922839552164,86.61637414662982 36.53029388084542,86.8401559519989 35.42879987473134,86.80818713258486 33.19827451230958,87.0 32.84028896037489,86.93606239065412 32.31707930751145,86.71228065446485 31.904019055189565,86.48849875686574 31.54603350313846,86.16881005212781 31.050361200468615,85.43352478271117 28.737223787698895,80.86192948755343 28.214014134719037,79.93481454270659 27.96617798344232,79.35936249539373 26.699459876399487,77.2173927265394 25.76318997121416,75.29919830602012 25.350129718892276,74.24418632488232 24.634158614906482,73.15720053535188 24.41385981370695,72.58173593008542 23.780500760185532,71.27095145982457 23.009454956045374,70.05607310839696 22.29348385205958,68.55345383644453 21.054303095210344,66.31549676216673 20.723854893352836,65.4842514556367 20.255719940760173,64.78088830443448 19.649898237315938,63.59795577573823 19.044076533988118,62.57487536029657 18.74116568232421,61.8715056196379 18.4382548306603,61.07221988943638 16.64832707075402,57.17167600998073 15.877281266497448,55.41321807418717 15.629445115104318,54.67785998460022 15.05116076185368,53.49488896888215 14.55548845930025,52.215996314625954 14.527951108990237,51.76838264125399 14.335189657984301,51.06498842223664 14.390264358371496,50.84118083657813 14.50041375879664,50.68131817659014 15.60190776491072,50.00989410604234 17.336760824546218,49.33846858367906 18.575941581395455,48.60309610754484 19.264375335304067,48.25139561202377 19.457136786310002,48.09153161870199 19.622360887238756,47.61193914490286 19.319450035574846,46.3010492704052 19.126688584452495,45.757507943111705 18.658553631976247,43.93503890209831 18.217956029460765,41.824798227171414 18.217956029460765,41.53703702383791 18.273030729731545,41.02546089282259 18.217956029460765,39.842437861225335 18.273030729731545,39.33085893795942 18.328105430002324,38.21177710453048 18.273030729731545,37.54032606823603 18.08026927872561,36.709003725787625" stroke="#4dd2ff" stroke-linecap="round" stroke-linejoin="round" stroke-width="0.5"><title>2023-07-01 7.2km</title></polyline><polyline fill="none" points="73.11881188093685,50.17091055167839 73.26732673263177,50.7572238103603 73.68316831672564,51.136602430720814 73.71287128690165,51.34353604255011 73.62376237602439,51.6539362204785 73.29702970280778,52.27473571317387 73.20792079193052,52.61962382288766 73.14851485134568,53.24042152531911 73.14851485134568,54.171615921193734 73.0,55.206273324234644 73.02970297005959,59.17243042230257 73.0,59.86219207930844 73.05940594046842,60.03463227156317 73.32673267321661,60.31053639459424 73.3564356432762,60.551952315698145 73.29702970280778,60.827856012416305 73.11881188093685,61.20722322433721 73.05940594046842,61.862492850923445 73.14851485134568,63.58688047871692 73.11881188093685,65.24228424829198 73.20792079193052,65.62164645979647 73.65346534643322,66.06998306480818 74.00990098994225,66.62178113937262 74.3960396037437,66.79421785115846 76.74257425731048,67.03562909865286 77.54455445532221,67.00114178826334 78.34653465333395,66.86319251108216 80.30693069286644,66.9321671568614 81.34653465333395,67.00114178826334 82.26732673251536,67.13909100857563 83.48514851473738,67.20806559745688 83.63366336619947,67.31152745409054 84.04950495029334,67.69088732171804 84.2871287126327,68.0012723483378 84.40594059391879,69.38075787539128 84.37623762350995,69.82908944832161 84.34653465345036,68.69101582208532 84.46534653450362,68.17370834993199 84.55445544538088,68.0012723483378 85.05940594046842,67.75986179694883 86.30693069298286,67.48396381080966 86.9603960395325,67.00114178826334 87.28712871274911,66.9321671568614 90.43564356432762,67.00114178826334 97.50495049485471,67.00114178826334 98.54455445532221,67.03562909865286 101.45544554444496,67.00114178826334 103.05940594046842,66.9321671568614 103.20792079204693,66.96665447432315 103.44554455438629,67.1735783048498 103.59405940573197,67.20806559745688 104.39603960386012,67.00114178826334 104.96039603941608,66.9321671568614 106.920792079065,66.96665447432315 108.19801980187185,66.86319251108216 109.50495049497113,66.86319251108216 111.04950495029334,66.72524317717762 114.85148514830507,66.62178113937262 114.99999999988358,66.48383170602028 115.08910891076084,66.0010082416411 115.29702970280778,65.58715900385869 115.47524752467871,65.4836966144212 115.80198019789532,65.4836966144212 116.30693069298286,65.38023419314413 116.84158415836282,65.44920914425165 117.61386138596572,65.31125922795036 118.38613861368503,65.27677173991106 119.63366336631589,65.1388217524509 120.70297029684298,65.10433424680377 121.56435643555596,65.0353592246538 122.03960396035109,65.10433424680377 122.51485148514621,65.20779675329686 123.46534653462004,65.17330925457645 124.1782178216381,65.06984673746047 125.03960396035109,65.27677173991106 125.66336633649189,64.86292160721496 125.87128712853882,64.587021234649 125.9603960395325,64.24214544924325 126.1089108909946,63.37995443213731 126.52475247508846,62.034932013222715 126.85148514842149,61.24171113141347 126.97029702959117,60.79336806276115 127.0,60.48297635599738 126.91089108900633,60.31053639459424 126.31683168304153,59.72423986156355 125.69306930678431,59.31038286734838 125.42574257415254,59.34487096971134 124.71287128701806,59.65526373134344 122.9900990097085,60.44848837083555 122.06930693052709,60.31053639459424 121.29702970280778,60.58644029017887 120.19801980187185,60.86234395846259 119.84158415836282,60.896831901103724 118.86138613848016,60.72439215279883 117.49504950479604,60.620928261079825 117.07920792070217,60.551952315698145 116.93069306924008,60.44848837083555 116.69306930678431,59.68975179817062 116.66336633649189,58.931013506720774 116.72277227707673,58.37920276034856 116.57425742561463,57.379043465305585 116.51485148514621,56.51683477888582 116.72277227707673,55.3097388886963 116.69306930678431,54.44752487458754 116.75247524748556,52.964511577476515 117.01980198011734,52.27473571317387 117.07920792070217,51.51598062127596 117.01980198011734,50.584778840711806 116.87128712865524,50.30886670484324 116.75247524748556,50.23988863528939 116.30693069298286,50.23988863528939 115.44554455426987,50.37784476016532 114.4059405940352,50.79171279355069 113.39603960386012,50.82620177330682 112.41584158397745,50.96415765659185 110.6930693066679,51.03313557684305 109.920792079065,50.99864661850734 109.1782178216381,51.06762453171541 104.96039603941608,51.136602430720814 104.42574257415254,51.06762453171541 102.61386138608214,51.03313557684305 98.84158415836282,51.102113483066205 98.18811881169677,51.03313557684305 94.95049504935741,50.99864661850734 91.83168316818774,51.20558031555265 90.31683168304153,51.102113483066205 89.78217821766157,51.17109137499938 89.00990098994225,50.96415765659185 88.11881188105326,50.89517972205067 86.99009900982492,50.89517972205067 86.57425742549822,50.96415765659185 85.80198019789532,50.89517972205067 84.82178217812907,50.89517972205067 84.10891089087818,50.92966869106749 83.60396039579064,50.82620177330682 83.30693069298286,50.86069074948318" stroke="#4dd2ff" stroke-linecap="round" stroke-linejoin="round" stroke-width="0.5"><title>2023-06-23 6.2km</title></polyline><polyline fill="none" points="166.034115399234,86.54016893787775 165.80483985715546,86.51596727805736 164.78352153406013,86.58857224996609 164.59593245422002,86.63697555201361 164.42918660561554,86.78218539850786 164.19991106365342,86.87899191300676 163.84557613520883,86.92739515528956 163.13690627831966,86.87899191300676 162.6783551943954,86.97579838754609 160.88583732105326,86.87899191300676 159.59355699375737,86.87899191300676 157.3424880366074,86.92739515528956 154.54949507117271,86.90319353535597 151.56891302601434,87.0 151.38132394617423,86.95159677267657 151.19373486645054,86.85479028811096 150.7351837825263,86.44336228381144 150.50590824068058,86.15294208230625 148.98435237142257,82.83728600777977 148.6508606740972,81.8207981329906 148.40074190101586,81.38515912625007 148.02556374156848,80.51387868971506 147.58785588876344,79.73940447838686 147.35858034680132,79.15854714463057 146.87918603187427,77.14973779518914 146.71244018315338,76.56887405940506 146.52485110342968,75.7701840778609 146.3997917168308,75.33453385271423 146.04545678838622,74.41482516906399 145.94124063302297,74.02757833048236 145.8370244775433,73.05945844163944 145.64943539781962,72.47858459340932 145.64943539781962,71.99452195619233 145.56606247345917,71.60727112837776 145.48268954921514,71.31683258863632 145.17004108289257,70.61493796861032 144.96160877204966,69.67100741472677 144.6698035367299,68.89649746095529 144.52390091924462,68.36402038672531 144.23209568404127,67.56530251237564 144.00282014207914,66.66976712115866 143.64848521363456,65.6532092968846 143.29415028507356,64.32199597035651 142.52295073505957,62.14363061901531 142.14777257561218,61.538525547715835 141.98102672677487,61.3690958484367 141.41825948748738,60.86080601732829 140.93886517256033,60.57035419152817 140.56368701311294,60.449332491407404 139.87586038722657,60.35251508648798 139.31309314782266,60.158880156843225 138.9796014506137,60.08626701710455 138.27093159372453,59.67479213453771 137.68732112331782,59.60217884508893 137.0828674217919,59.65058770713222 136.87443511094898,59.57797441033472 136.58262987574562,59.19070311450923 135.87396001885645,57.907862387015484 135.33203601068817,57.10910896099813 134.85264169576112,56.261943268444156 134.37324738071766,55.26954528571514 134.2481879942352,54.95488163520349 134.2481879942352,54.494987849277095 134.4149338429561,53.599402629595716 134.53999322943855,53.09109598584473 134.8109552335227,52.36494172955281 134.95685785112437,51.59037471511692 135.12360369984526,51.08206372379209 135.29034954844974,50.210670893560746 135.45709539717063,49.75076781869575 135.62384124589153,49.00039771082811 135.64468447689433,48.56469783841749 135.93648971209768,47.499650303216185 136.1240787919378,46.57983263627102 136.18660848517902,46.047304972147685 136.45757048926316,45.10327569098445 136.9161215731874,43.79615196050145 137.270456501632,42.61005190950527 137.52057527459692,42.17434018230415 137.8957534340443,41.085057327800314 138.395990980207,40.04418232415628 138.52105036668945,39.60846583667444 138.77116913965438,39.051715815177886 138.89622852613684,38.85806332436914 139.06297437485773,38.71282385151426 139.52152545878198,38.39813801879063 140.4803140887525,37.59931824194791 140.98055163479876,37.139390471129445 142.08524288225453,36.29215274611488 142.43957781069912,35.97746366971114 143.25246382295154,35.42070503998548 143.46089613391086,35.32387731752533 144.6698035367299,34.40401196248422 144.85739261657,34.210355639166664 145.71196509106085,33.629385710839415 146.5665375655517,33.26627877584542 147.42111004004255,33.048414345335914 148.29652574565262,33.0 149.4220602242276,33.1694501650054 150.40169208531734,33.38731448323233 151.21457809756976,33.84724960234598 151.98577764770016,34.13773447666608 152.90287981554866,34.597668126094504 153.4031173614785,34.79132413007028 153.81998198316433,34.984979974338785 154.1534736806061,35.17863565887092 154.65371122653596,35.42070503998548 155.0705758483382,35.68698107110686 155.23732169694267,35.856429297229624 155.38322431466077,36.12270483432803 155.4665972389048,36.195325382825104 156.92562341492157,36.84890930968686 157.48839065420907,37.139390471129445 157.94694173813332,37.33304437909101 159.57271376275457,38.18027834912937 160.4064430060098,38.543377686233725 161.7404097955441,39.29378120409092 163.34533858916257,40.09259521734202 164.554245992098,40.649342771372176 165.95074247475713,41.47235847711272 168.41024374275003,42.63425809283217 168.57698959158733,42.80370130651863 168.97301098215394,43.02155668743944 169.26481621724088,43.142587367241504 169.80674022552557,43.48147293890361 171.1615502460627,44.110830560472095 171.9535930273123,44.280272708900156 172.41214411123656,44.256066695132176 173.49599212757312,44.59495066017553 174.68405629950576,44.909628189969226 175.3718829252757,45.22430529803387 176.4765741728479,45.6358054955781 177.2686169539811,45.85365824938344 177.9772868109867,45.99889330637234 178.60258374351542,46.337774756757426 178.7693295921199,46.313568955112714 178.9360754408408,46.11992245196598 179.01944836520124,46.095716627838556 179.3320968315238,46.023099140511476 179.58221560448874,46.047304972147685 179.8740208396921,46.168334092682926 180.10329638165422,46.38618635268358 180.4367880789796,46.55562685956829 181.10377147374675,46.67665571824182 182.1459330279613,46.99133045891358 182.7087002672488,47.1123590930365 183.75086182157975,47.427033249958185 185.06398537987843,47.71750132831221 185.7518120057648,47.91114651427779" stroke="#4dd2ff" stroke-linecap="round" stroke-linejoin="round" stroke-width="0.5"><title>2023-06-17 7.6km</title></polyline><polyline fill="none" points="16.245355613995343,134.60126799886348 18.519736459478736,129.8690937049687 19.6253382593859,127.08111661096336 21.457478384836577,122.8257410528895 21.583832876291126,122.60563403693959 22.089250841876492,121.94531217237818 22.499902938958257,120.95482707861811 23.85821372177452,118.2768350627448 24.17409995023627,117.87330027259304 24.616340670268983,117.61650516776717 25.53241073305253,117.79993026150623 25.690353847225197,117.72656023531454 25.690353847225197,117.5431351037987 25.59558797860518,117.35970987778273 25.153347258688882,117.02954423267511 24.963815521565266,116.6993782815407 24.837461030343547,116.36921202391386 24.9006382758962,116.0757306489686 25.563999355887063,114.3882080471376 27.459316727123223,110.31610969180474 28.470152658293955,107.93152596306754 28.722861641203053,107.01437412094674 29.00715924683027,105.84041631457512 29.670520326821133,103.45580259899725 30.04958380118478,101.73153349763015 30.681356258224696,99.6403874210082 31.281540092430077,97.25573216320481 31.502660452388227,96.08174216671614 31.502660452388227,95.16455978731392 31.597426320891827,94.39412476192228 32.197610155213624,93.44025051483186 32.481907760957256,93.25681286651525 33.08209159504622,93.03668756372645 33.71386405208614,93.0 34.061338903498836,93.0733751237276 34.66152273770422,93.25681286651525 35.70394729194231,93.77043804351706 36.746371846063994,94.13731271607685 39.68411377153825,94.8710609266418 42.305969468317926,95.64149491960416 44.3908185766777,96.30186558607966 45.46483175375033,96.70542483459576 47.92874433635734,97.21904503446422 49.69770721613895,97.84272570916801 51.403492850251496,98.31965725240298 51.972088061622344,98.5397792874428 52.351151535869576,98.94333599827951 52.50909465004224,99.05339683996863 53.36198746727314,98.86996208498022 55.06777310138568,99.236831500486 55.28889346134383,99.20014457599609 55.60477968980558,99.01670989659033 55.92066591838375,98.98002294928301 57.81598328950349,99.53032676075236 57.50009706104174,99.38357916098903 56.489261129754595,99.09008377970895 57.91074915812351,100.00725604241597 58.700464729452506,100.44749788893387 62.58586534054484,101.5481001228618 62.80698570050299,101.69484683024348 63.15446055191569,102.20845982947503 63.24922642041929,102.46526605120744 63.28081504337024,102.90550485718995 63.40716953459196,107.60135157220066 63.501935403211974,109.36227811739082 63.47034678037744,110.53622430737596 63.53352402616292,114.42489340610337 63.40716953459196,115.8923046667478 63.15446055191569,116.62600802845554 63.501935403211974,117.5431351037987 63.501935403211974,118.97384862281615 63.565112648997456,119.81760005376418 63.501935403211974,120.4412411301746 63.565112648997456,120.84477300933213 63.565112648997456,122.56894952108269 63.59670127183199,123.2659546766663 63.53352402616292,124.073011572822 63.59670127183199,124.99011946097016 63.47034678037744,125.79717244804488 63.501935403211974,127.77811293158447 63.59670127183199,128.54847569807316 63.53352402616292,130.8228703297791 63.62828989478294,133.42740117263747 63.565112648997456,134.71131781552685 63.62828989478294,135.51834876378416 63.501935403211974,136.61884256312624 63.62828989478294,138.3796255660127 63.62828989478294,139.07659976542345 63.565112648997456,140.32381334839738 63.659878517501056,141.16751417689375 63.62828989478294,141.9378479697043 63.72305576328654,143.11168673459906 63.69146714033559,144.13879247914883 63.75464438600466,145.12921306927456 63.72305576328654,145.82617405513884 63.75464438600466,147.0" stroke="#4dd2ff" stroke-linecap="round" stroke-linejoin="round" stroke-width="0.5"><title>2023-06-15 6.4km</title></polyline><polyline fill="none" points="107.12300002481788,93.03910487826215 106.4831087696366,93.23462920886232 105.84321751445532,93.27373406296829 105.50643264327664,93.23462920886232 104.86654138821177,93.0 104.52975651691668,93.0 101.70076359936502,93.19552435082733 98.90544916864019,93.23462920886232 97.6593451454537,93.15641948877601 96.9184184288606,93.19552435082733 91.93400233564898,93.0 86.91590775561053,93.11731462262105 82.60506140463986,93.11731462262105 81.93149166239891,93.23462920886232 81.05585099745076,93.86030639032833 80.75274461344816,94.36866834113607 80.31492428074125,95.38539020068129 80.24756730662193,95.7373317485617 80.41595974226948,96.24569118625368 86.37705196160823,106.0999088982935 86.88222926843446,107.03839248607983 87.69051295926329,108.25059702101862 88.39776118856389,109.50190086918883 89.00397395668551,110.36216987294029 90.5868628511671,113.06027365277987 90.75525528658181,113.56860990004498 90.21639949269593,114.93720410659444 91.02468318364117,115.5237429709232 91.63089595164638,115.79746079759207 91.83296687435359,115.99297341023339 92.0350377970608,116.26669089865754 94.15678248531185,120.9589600218751 94.3251749209594,121.70189731672872 94.49356735660695,122.09291636172566 95.06610163755249,122.95315684386878 96.68266901897732,126.58960644429317 97.25520329992287,127.56714072145405 97.49095270980615,128.34916633178364 98.90544916864019,131.20354614430107 99.10752009146381,131.75095899938606 100.3536241146503,133.86240119230933 102.44169031572528,137.96794963310822 103.35100946784951,139.29735580726992 103.51940190349706,139.37555602547945 104.05825769726653,139.33645591838285 104.32768559409305,139.53195641376078 104.90021987515502,140.62675732851494 105.77586054010317,141.91705435540644 106.07896692422219,142.46445176986163 106.4831087696366,143.52014455577591 107.99864068976603,146.37441036044038 108.33542556094471,146.80450334842317 108.8742813548306,147.0 109.34578017448075,147.0 111.60223881120328,146.21801278955536 112.5115579633275,146.10071456915466 113.99341139639728,145.51422292381176 115.40790785523131,145.0841284748749 116.38458398170769,144.61493397530285 116.95711826265324,144.5367348357977 117.42861708218697,144.41943609612645 119.3819693349069,143.6374435730686 119.61771874467377,143.36374580962 119.75243269326165,143.0118483954866 119.71875420608558,141.6433553523966 118.84311354102101,135.62192738667363 118.84311354102101,135.23092227004236 118.9778274896089,134.4489108293492 118.9778274896089,134.09700515586883 116.72136885265354,118.14360550505808 116.62033339135814,116.85322770962375 116.01412062335294,113.09937646528124 115.60997877793852,110.01024187976145 115.6436572651146,109.50190086918883 115.60997877793852,108.87624946044525 115.37422936817165,107.62494355082163 115.44158634229098,105.66976981205516 115.40790785523131,103.87100108125014" stroke="#4dd2ff" stroke-linecap="round" stroke-linejoin="round" stroke-width="0.5"><title>2023-06-13 6.2km</title></polyline><polyline fill="none" points="180.28509771090467,101.67779908426746 179.99235860985937,101.65780460133101 179.42410035483772,101.69779356509389 178.95916178246262,101.65780460133101 178.13260432053357,101.69779356509389 177.68488569534384,101.65780460133101 177.1166274403222,101.63781011638639 176.66890881513245,101.69779356509389 175.84235135326162,101.67779908426746 172.4328018228407,101.73778252066404 170.52138769219164,101.69779356509389 169.07491213391768,101.7577769953059 168.78217303281417,101.83775487341336 168.50665387877962,102.0177049785998 168.40333419601666,102.09768274966336 168.2655746190576,102.29762703304004 168.0072754121502,102.79748684060178 167.835075940995,103.05741343194677 167.76619615254458,103.1373907745874 167.64565652265446,103.15738510515075 167.28403763304232,103.11739644203044 167.06017832050566,103.17737943363318 167.00851847912418,103.21736808436981 165.92366181034595,105.49670756272099 164.8904649830074,107.8959833678673 164.27054688654607,109.09561015218787 163.70228863146622,110.05530624312814 163.2545700063347,110.69510100178013 162.51411227998324,111.73476298822789 162.2385931260069,112.13463150073949 161.0504167745239,113.71410407469375 160.22385931265308,115.0136604822037 159.89668031735346,115.41352224245202 159.4489616921055,116.19325030660548 158.43298481183592,118.19253872877744 158.1402457106742,118.69235761802702 157.69252708554268,119.93190291205246 157.1759286718443,121.73122877633432 156.9176294649369,122.43096211011289 156.48713078693254,123.77044460203615 155.98775232030312,125.1698940533388 155.17841480561765,127.02914701140253 154.55849670915632,128.18867210253666 154.00745840126183,128.98834054575127 153.86969882424455,129.26822372300376 153.4736400403781,129.82798886756063 152.85372194397496,130.82756547012832 152.3715634245309,131.46729179604154 151.4933461212786,132.52683388837613 150.2190700341598,134.14612290043442 148.85869421140524,135.7254164639453 144.89810637308983,140.44322962230945 143.6927100745379,141.96250099396275 143.15889171377057,142.6621614453179 141.64353636687156,144.42129659009515 141.17859779455466,144.8610778872826 141.00639832334127,145.04098813098972 140.74809911649209,145.40080811854568 140.54145975102438,145.72064754800522 140.24872064992087,146.0804662766459 140.07652117870748,146.400304587165 139.71490228909533,146.74013221502537 139.71490228909533,146.94003054202767 139.8182219718583,146.98001018274226 140.05930123158032,147.0 140.21428075572476,147.0 140.38648022687994,146.9200407185417 141.0752781117917,146.12044609431177 141.454116948531,145.76062743968214 142.02237520361086,144.9810180682689 144.3642880123225,142.20238486115704 147.39499870600412,138.52413301041815 148.72093463444617,136.98484390007798 149.633591832011,135.86535324898432 152.61264268425293,132.32692072847567 153.4736400403781,131.1674203431612 153.8524788771174,130.58766755470424 154.07633818965405,130.36776087190083 154.54127676202916,129.62807292969956 155.00621533428784,129.008332214682 155.26451454119524,128.3885895220301 155.8672126905294,127.28904116823105 156.60767041676445,125.62971095769899 157.10704888333566,124.19028049628832 157.39978798443917,123.19066973209556 157.60642734990688,122.65087778000452 157.86472655675607,121.79120601800969 158.24356539343717,120.77159039011167 158.63962417724542,119.59202837682096 158.93236327840714,118.8722921032022 159.69004095182754,117.2728686111368 159.9139002643642,116.85301776151755 160.12053962989012,116.53313079057261 160.24107925972203,116.4731519248744 160.6371380435885,116.35319413786056 160.91265719756484,116.01331333893177 160.96431703894632,115.85336922768329 160.94709709176095,115.43351530887594 161.0159768803278,115.21359146528994 161.29149603424594,114.85371554759331 161.42925561126322,114.61379789862258 161.75643460662104,114.29390723879624 162.4452324915328,113.33423209746252 163.04793064080877,112.35455883163377 163.92614794406109,111.11496516641637 164.40830646356335,110.33521670942719 165.20042403117986,108.85568538830557 166.18196101719514,106.65636123727018 167.02573842625134,104.85689567384543 167.68009641690878,103.37732260505436 167.99005546513945,102.77749247303291 168.2139147776761,102.21764934438397 168.3516743546934,101.99771053073346 168.7305131914327,101.6178156293754 168.97159245115472,101.29790355691512 169.1437919223099,101.2379199845891 170.2803084324696,101.2379199845891 171.91620340920053,101.13794732290262 172.74276087107137,101.17793639378215 174.2064563765307,101.17793639378215 174.98135399702005,101.13794732290262 175.8079114589491,101.13794732290262 176.25563008413883,101.09795824385947 176.42782955541043,100.9579964022414 176.4794893967919,100.8580235963891 176.54836918530054,100.63808324249112 176.6000290265656,100.25818568050454 176.53114923817338,99.81830336427083 176.4794893967919,99.05850428850681 176.51392929098802,98.91854097649048 176.61724897375097,98.75858278211672 176.6861287622014,98.4986504350818 176.6861287622014,97.9587898330501 176.6516888679471,97.5988819309714 176.75500855071004,96.35919404959714 176.75500855071004,95.97928811411839 176.6861287622014,94.85956103175704 176.6516888679471,93.2799350577261 176.6861287622014,93.0" stroke="#4dd2ff" stroke-linecap="round" stroke-linejoin="round" stroke-width="0.5"><title>2023-05-25 10.0km</title></polyline><polyline fill="none" points="52.76264790794812,206.7609838667995 52.001006016740575,206.78488549115718 51.40404345327988,206.97609839779034 51.2393641253002,207.0 50.93059038580395,206.9521967930923 50.41596748610027,206.8087871131429 49.880759670748375,206.78488549115718 48.85151387169026,206.88049196416978 48.29572114022449,206.85659034963464 47.34881500515621,206.90439357630385 45.99021055037156,206.88049196416978 44.81687033956405,206.8087871131429 41.152755294926465,206.83268873264024 40.61754747945815,206.8087871131429 38.373791637597606,206.88049196416978 36.80933802307118,206.88049196416978 35.26546932454221,207.0 35.018450332805514,206.97609839779034 34.64792184520047,207.0 34.50382743333466,206.92829518587678 34.44207268534228,206.7609838667995 34.3803179373499,206.37855754158227 34.25680844159797,206.04393399010587 33.70101571001578,204.9922568299662 33.08346823067404,203.58204588528315 32.733524658950046,203.03230031416751 32.38358108734246,201.9089031409676 32.11597717949189,201.4308601412049 31.95129785174504,200.73769604228437 31.848373271874152,200.45086891304527 31.642524112015963,200.04452987291734 31.10731629654765,199.136240034175 30.90146713668946,198.6342888611689 30.201579993474297,195.95719760096108 29.995730833499692,195.0249889302213 29.563447598018683,193.7820382101345 29.398768270155415,193.2083664013917 29.1105794464238,191.08098772868107 28.904730286682025,190.2921794438007 28.61654146295041,189.40775484446203 28.24601297522895,188.0930633990938 27.854899571626447,187.11301583889872 27.29910684004426,185.2246198424109 26.9903331004316,184.48359949298901 26.228691209107637,182.06929096960812 26.084596797358245,181.7346323599777 25.919917469494976,181.44778173897066 25.59055881376844,181.0175051423721 24.952426418312825,180.51551477117755 24.623067762702703,180.37208875130455 23.367387887788936,180.08523644560773 22.81159515643958,179.8940013780957 22.399896836839616,179.67886173876468 22.111708013108,179.43981746101053 22.07053818111308,179.34419968094153 22.111708013108,179.20077293700888 21.823519189376384,179.27248631998373 21.288311373908073,179.27248631998373 20.71193372644484,179.29639077618776 20.50608456658665,179.22467740045977 19.785612507374026,178.36411516317457 19.518008599523455,177.74259600650112 19.065140448044986,177.02545644906058 18.59168738045264,176.1170764938579 17.974139900994487,174.8501195636054 17.912385153002106,174.53935548628215 17.93297006911598,174.15687605038693 18.159404144855216,173.1050543499441 18.468177884584293,172.12494347298343 18.632857212331146,171.5034076004813 18.715196876320988,171.0013966417173 18.9004611200653,170.33204700665374 19.08572536392603,169.85393894196022 19.31215943978168,168.51523111830465 19.765027591376565,166.3159086357482 19.909122003125958,165.45529850963794 20.42374490282964,164.020941203853 20.85602813831065,162.4909503011295 21.18538679392077,161.79766985072638 21.535330365644768,160.86532390887442 21.84410410525743,160.21985144593054 22.194047676981427,159.21577959999559 22.379311920842156,158.92890113135218 23.902595703373663,157.68575700021756 25.034766082302667,156.82511485237046 25.42587948590517,156.51432662528532 25.59055881376844,156.2752584748523 25.755238141631708,156.1079106228717 26.249276125105098,155.86884205357637 26.928578352439217,155.4146110929869 27.54612583189737,154.8886583429412 27.896069403504953,154.67349551050575 28.369522471097298,154.12363403193012 28.657711294828914,154.02800581560587 28.94590011856053,153.81284218473593 29.234088942292146,153.64549255603924 30.18099507736042,153.2151643849793 31.210240876534954,153.0 31.78661852388177,153.0 32.77469449094497,153.14344294546754 34.112714029615745,153.59767835425737 34.42148776934482,153.7411209300917 35.080205080797896,153.9084704897832 35.718337476137094,154.19535516825272 38.27086705772672,155.4863318301068 38.764905041316524,155.94056265022664 39.01192403305322,156.1079106228717 40.8439815553138,157.04027568870515 43.273001640918665,158.13998351295595 43.972888784250244,158.42686295736348 45.14622899517417,159.12015348319255 45.70202172675636,159.35921870128368 46.56658819783479,159.83734839815588 47.67817366076633,160.33938351908 48.439815552090295,160.79360483505297 49.20145744329784,161.1761063058657 49.819004922755994,161.74985732948699 50.127778662368655,161.96501359743706 51.56872278114315,162.5626688501652 51.87749652075581,162.65829354766174 53.894818286877126,163.68625655627693 54.01832778274547,163.85359894038993 54.14183727861382,164.30781337460212 54.12125236261636,164.4273433410126 53.97715795086697,164.78593287075637 53.97715795086697,164.90546259080293 54.05949761462398,164.85765071016795 54.16242219461128,164.61859115921834 54.12125236261636,164.3317193728144 54.18300711060874,164.1404713181255 54.347686438355595,164.020941203853 54.388856270350516,164.04484723163478 54.388856270350516,164.11656530016626 54.36827135446947,164.11656530016626 54.388856270350516,164.04484723163478 54.347686438355595,164.04484723163478 54.347686438355595,163.94922310570837 55.54161156527698,164.11656530016626 56.34442328847945,164.4273433410126 56.92080093594268,164.5229672697751 57.86770707112737,164.83374476610334 58.69110371021088,165.02499224923667 60.15263274498284,165.5987337524275 61.69650144339539,166.10075640355353 61.9435204352485,166.22028544613568 62.04644501511939,166.3159086357482 62.08761484711431,166.50715489682625 61.9435204352485,167.4394781615556" stroke="#4dd2ff" stroke-linecap="round" stroke-linejoin="round" stroke-width="0.5"><title>2023-05-23 7.6km</title></polyline><polyline fill="none" points="79.98648435890209,174.44408484431915 79.26642136229202,174.5178570409771 78.71578495309222,174.86212699081807 78.86403321719263,175.37853098470077 79.09699477488175,175.87034327385481 79.1605297451606,176.19002071859722 79.18170806858689,176.4359261540667 79.11817309830803,176.8785552996851 79.1393514216179,177.66544953263656 79.22406471543945,179.58349336107494 79.24524303886574,180.61627981018682 79.26642136229202,181.13267135956266 79.35113465599716,181.50152178258577 79.41466962627601,181.59988179917855 79.66880950750783,181.7966017107392 79.7111661543604,181.9195515732281 79.75352280121297,184.3293560970924 79.81705777149182,184.96868790936423 80.05001932918094,185.28835317354242 80.32533753383905,185.46048044633062 80.45240747439675,185.90309286362026 80.62183406180702,186.02604061170132 81.21482711785939,186.0998092301743 83.43855107796844,186.05063015372434 84.4339322791202,186.07521969324443 84.73042880708817,186.12439876461576 84.92103371804114,186.24734639876988 85.06928198202513,186.4194729802548 85.21753024600912,186.86208362004254 85.40813515696209,187.1571569242078 85.49284845066722,187.45222986374574 85.8105233021779,190.08328078806517 86.04348485986702,191.28814489903743 86.25526809401345,192.00122487681801 86.38233803468756,192.93560231443553 86.70001288608182,194.68140299375227 86.82708282675594,195.81247831137443 87.20829264842905,198.2959074987739 87.54714582336601,200.90225095310598 87.80128570448142,202.3037635043147 87.8224640279077,202.69716905792302 88.11896055587567,204.615011852904 88.16131720284466,205.13135151272581 88.43663540738635,206.5820141077129 88.54252702463418,206.87706304877065 88.7754885823233,207.0 88.88138019945472,207.0 90.04618798801675,206.5820141077129 90.7874293080531,206.26237734356255 91.16863912984263,206.18861495265446 91.97341542015783,206.23778988244885 92.5452301526675,206.23778988244885 93.28647147282027,206.3361397116969 96.03965351858642,206.3361397116969 96.44204166391864,206.286964802086 97.37388789467514,206.286964802086 98.1151292148279,206.360727162697 100.16942658752669,206.3115522581793 100.57181473262608,206.26237734356255 100.84713293728419,206.18861495265446 101.31305605266243,206.164027483901 101.80015749158338,206.18861495265446 102.52022048819344,206.21320241877402 103.15557019109838,206.3115522581793 104.12977306882385,206.3115522581793 104.53216121403966,206.38531461110688 105.08279762323946,206.38531461110688 105.63343403232284,206.3115522581793 107.56066146446392,206.3115522581793 107.94187128613703,206.286964802086 108.15365452051628,206.23778988244885 108.61957763601094,205.86897766201582 108.70429092971608,205.7460401286953 109.00078745768405,204.98382600955665 109.02196578111034,204.78712519686087 109.10667907481547,204.56583658898307 109.38199727935717,203.5823291845736 109.57260219031014,203.04139838581614 109.78438542457297,202.3037635043147 109.99616865883581,201.32024678518064 110.12323859950993,201.07436697251978 110.27148686349392,199.64825906780607 110.27148686349392,199.2056721245026 110.33502183377277,198.88602548874042 110.31384351034649,198.5417901718174 110.33502183377277,197.0910787419125 110.16559524624608,195.51741570149898 110.20795189321507,194.82893486072135 110.1444169228198,194.2879842363036 110.16559524624608,193.8207986200723 110.1444169228198,193.27984571203706 110.22913021652494,191.9766359475325 110.18677356978878,191.14061084472633 110.22913021652494,189.4439626687381 110.18677356978878,186.54242046247236 110.12323859950993,186.34570446054568 110.08088195265736,186.32111494893616 109.57260219031014,185.97686152005917 108.49250769533683,185.90309286362026 108.87371751712635,186.00145106718992 109.59378051373642,186.02604061170132 109.72085045441054,186.07521969324443 110.1444169228198,186.54242046247236 110.16559524624608,187.05879919664585 110.1444169228198,186.49324147721927 109.84792039485183,185.9522719704255 109.76320710114669,185.50965964433271 109.78438542457297,185.3129427915701 109.84792039485183,185.06704649774474 110.16559524624608,184.6244325308071 110.18677356978878,183.64084300033574 110.10206027608365,182.26381085129105 110.12323859950993,181.7966017107392 110.03852530568838,181.13267135956266 110.03852530568838,180.8375906108995 110.1444169228198,180.56709960439184 110.1444169228198,180.12447729631094 110.16559524624608,179.41136185194773 110.10206027608365,179.04250820017478 110.1444169228198,178.3047991873609 110.08088195265736,177.51790706148313 110.12323859950993,176.19002071859722 110.03852530568838,175.59984664012154 109.93263368855696,175.2309871003672 109.82674207142554,174.3703126248729 109.84792039485183,174.24735887505813 110.03852530568838,174.0014511855261 110.08088195265736,173.8539064503275 109.99616865883581,172.57518159212486 110.05970362923108,171.27185882386402 110.03852530568838,170.01771132992872 109.99616865883581,169.5258869849349 109.89027704182081,169.32915696324199 109.84792039485183,168.86192251209286 109.86909871827811,168.56682659809303 109.95381201209966,168.32091305784706 109.99616865883581,167.8290852173959 110.08088195265736,167.41103075642604 110.05970362923108,167.11593304907728 109.97499033552594,166.7962434545334 109.93263368855696,166.3044124731532 109.86909871827811,166.03390500151727 109.80556374799926,165.34533914522035 109.84792039485183,164.70595478606992 109.97499033552594,164.2633030727884 109.80556374799926,163.47636466717813 109.86909871827811,163.20585399102129 109.99616865883581,163.03371067388798 109.76320710114669,163.1074863964459 109.80556374799926,163.13207829893508 110.10206027608365,163.1074863964459 110.82212327269372,162.95993492865819 110.9703715366777,162.9107510857575 111.18215477094054,162.71401561288803 111.35158135846723,162.32054418078042 111.58454291615635,162.14840022532735 112.11400100181345,162.14840022532735 113.08820387965534,162.2467682150309 114.04122843395453,162.09921621526883 114.27418999164365,162.02544018116896 114.50715154933278,161.75492786102404 114.6342214900069,161.33686276328808 114.57068651972804,160.86961267008155 114.31654663861264,160.6728755151562 114.16829837451223,160.4269538433873 114.14712005108595,160.05807086081768 114.16829837451223,159.76296406431356 114.2318333449075,159.54163372764015 114.3589032854652,159.44326462320169 115.48135442717467,159.8367407976766 115.90492089581676,159.91051750816405 116.18023910047486,159.86133303707174 116.75205383298453,159.88592527390574 117.00619371409994,160.03347864176612 117.34504688892048,160.52532254249672 117.45093850616831,160.6236912010063 117.55683012329973,160.6728755151562 117.98039659194183,160.45154602195544 118.38278473704122,160.32858510376536 119.99233731778804,160.57450687678647 120.24647719890345,160.57450687678647 120.67004366742913,160.40236166225804 120.9665401953971,159.9842941959214 121.24185840017162,159.7383718148485 121.28421504690778,159.64000279147876 121.07243181264494,159.17274937701586 120.9877185189398,158.9022338242794 120.9665401953971,158.33660940524715 121.0088968424825,157.86935343957157 120.77593528467696,157.03320890253235 120.5853303738404,156.565950385615 120.20412055205088,156.172468819801 119.9076240240829,156.02491306538286 119.20873935089912,155.7789866054518 118.84870785253588,155.53305989202636 118.78517288225703,155.53305989202636 118.6792812650092,155.60683793270437 118.50985467759892,155.828171917703 118.34042809018865,155.97572779371694 117.45093850616831,156.46758005497395 116.90030209708493,156.8364685858105 116.77323215641081,156.8856536802632 116.6673405392794,156.86106113425922 116.60380556900054,156.81187603482977 116.49791395175271,156.61513553574332 116.43437898159027,156.02491306538286 116.32848736434244,155.68061595047766 115.86256424896419,154.7706854706048 115.79902927868534,154.52475771850732 115.77785095514264,154.0574942913663 115.9896341895219,153.34430098134908 115.9896341895219,153.14755762425193 115.92609921924304,153.07377882348374 115.79902927868534,153.04918588489818 115.18485789920669,153.12296469317516 114.2106550213648,153.0 113.74473190598655,153.0" stroke="#4dd2ff" stroke-linecap="round" stroke-linejoin="round" stroke-width="0.5"><title>2023-05-17 8.5km</title></polyline><polyline fill="none" points="164.48934501467738,207.0 164.5991089513991,206.79605617196648 164.73082567553502,205.67436211308814 164.774731250247,204.4251968350436 164.9064479743829,203.8133584793395 164.9064479743829,202.9975716512563 164.95035354909487,202.81911792406754 165.14792863524053,202.58967722859234 165.27964535949286,202.3347428728157 164.9064479743829,202.38572976499563 164.73082567553502,202.36023632026627 164.57715616410132,202.23276905698003 164.35762829054147,201.90135386523616 164.1820059916936,201.82487337329076 163.87466696859337,201.77388636549585 163.5014695834834,201.62092527917412 162.3160190662602,201.56993822948425 159.92316524428315,201.62092527917412 159.2426288361894,201.56993822948425 159.00114817521535,201.4934576350497 158.86943145107944,201.34049637541466 158.7816203016555,201.13654788202257 158.95724260050338,199.78538486688922 158.86943145107944,198.99507855069533 159.00114817521535,198.56168369251827 159.04505375004373,198.17927583421988 159.0889593246393,197.1850126360805 159.2426288361894,196.21623952244408 159.30848719819915,194.967026486338 159.5499678591732,192.69803157165006 159.5719206465874,191.9841861710447 159.65973179601133,190.93890883210406 159.92316524428315,188.95032023663225 159.92316524428315,188.46591802913463 160.142693117843,188.0325047236547 160.20855147985276,187.62458562469692 160.142693117843,186.93622061987116 160.3183154166909,185.96740736781794 160.34026820398867,185.58498003952263 160.29636262939312,184.8201236091263 160.38417377870064,184.31021800824965 160.40612656611484,183.6473391555628 160.53784329025075,182.78049489852856 160.84518231323455,181.8881520487921 161.1964269109303,181.1742754511215 161.48181314661633,180.81733637956495 161.8550105317263,180.38390967169835 162.4696885776939,179.92498644719308 162.51359415252227,179.74651607441774 162.49164136510808,179.44056656421162 162.55749972711783,179.28759166729287 162.77702760067768,179.13461667564115 163.32584728463553,178.87965814606287 163.8307613938814,178.4717239519814 164.40153386513703,178.5482116646599 164.9284007617971,178.7776746606105 166.5748598134378,179.2366000139009 167.3432073710719,179.49155817551946 168.4408467389876,179.72102029639063 168.5945162504213,179.72102029639063 168.7262329745572,179.67002873233287 169.01161921024323,179.44056656421162 169.0774775723694,179.31308748999436 169.12138314708136,178.49721985885117 169.0555247849552,176.96746079648437 168.96771363553125,176.22807385785563 168.77013854926918,175.48868470887828 168.5945162504213,175.10624117817497 168.33108280214947,174.62181185698137 167.71640475618187,173.8314251381089 167.3432073710719,173.423482617407 167.16758507222403,173.16851820034208 166.64071817568038,171.43475319314166 166.55290702625643,171.35826328049006 166.2894735778682,171.30726999224862 166.15775685373228,171.2052833842754 166.06994570430834,171.05230339348782 166.06994570430834,170.77183983118448 166.0040873422986,170.54236940729606 165.87237061804626,170.41488574646064 165.60893716989085,170.26190526668506 165.89432340546045,170.49137595081993 166.0040873422986,170.64435628858337 166.04799291701056,170.77183983118448 166.06994570430834,171.1287934007123 166.1358040664345,171.25627669357345 166.22361521585844,171.35826328049006 166.35533193999436,171.3837599206454 166.5748598134378,171.35826328049006 166.64071817568038,171.30726999224862 166.66267096297815,171.02680671909184 166.70657653769013,169.3695172486914 166.64071817568038,169.14004552359984 166.55290702625643,168.98706425521232 166.3114263652824,168.80858598920167 164.81863682495896,168.2476534574671 164.68692010093946,168.1711625590833 164.64301452611107,168.09467163705267 164.70887288812082,167.55923452043498 165.060117485933,166.48835680926277 165.19183421006892,165.85092739858374 165.3674565089168,165.51946345568285 165.6747955319006,164.7545449687168 165.8284650433343,163.8111422429356 166.04799291701056,162.99522346962476 166.1358040664345,162.35778505477356 166.2894735778682,162.2812923345773 167.10172671009786,162.17930200410774 167.3651601584861,162.0773116316559 167.69445196876768,161.8223355164082 167.9578854170395,161.3633778464573 168.06764935387764,160.75143296150782 168.0017909918679,159.47654292044172 168.08960214117542,158.7371036849654 168.17741329071578,158.431128182041 168.4408467389876,158.04865827098547 168.6164690378355,157.6661877683655 168.7481857619714,157.30921476556978 168.79209133668337,157.00323749576637 168.7481857619714,156.34028544569446 168.55061067570932,155.72832812961133 168.37498837697785,155.44784718686424 167.60664081934374,154.63190081711218 166.9041516239522,154.07093612612516 166.55290702625643,153.86694865016034 166.15775685373228,153.73945639225713 165.30159814690705,153.6119640686229 165.060117485933,153.6374625385797 164.5991089513991,153.79045330331428 164.07224205485545,153.89244709380728 163.5234223708976,153.89244709380728 162.9087443248136,153.7139579327486 161.94282168103382,153.2294867032033 161.5476715087425,153.10199411665963 161.0647101867944,153.025498533083 160.53784329025075,153.0 159.8353540947428,153.07649559140555 159.3962983476231,153.2294867032033 158.86943145107944,153.50997016235488 158.23280061781406,153.9944408423762 157.57421699690167,154.70839590372634 157.02539731306024,155.09087098138116 156.3009553302545,155.42234890353575 155.26917432446498,155.67733161820797 154.83011857734527,155.65183335855545 153.732479209546,155.49884374556132 153.403187399148,155.49884374556132 153.02999001403805,155.57533856391092 152.3055480311159,155.85581936199742 151.8884450714104,156.05980519716104 151.6908699851483,156.2382926648861 151.51524768630043,156.49327453812293 151.33962538745254,156.82475058024283 151.20790866331663,157.07973184874572 151.16400308872107,157.33471285428095 151.0981447265949,157.58969359686307 151.05423915188294,158.3801322280924 150.87861685291864,159.40004930896976 150.90056964033283,159.73152145452332 151.03228636446875,159.935504092442 151.99820900824852,160.3179710850236 152.81046214036178,160.59844650360174 153.60076248529367,160.9554147581366 154.0398182325298,161.05740559328115 155.04964645090513,161.43987085066328 155.57651334744878,161.54186148599547 156.3009553302545,161.77134026185377 157.15711403719615,161.77134026185377 157.79374487057794,161.9243259940704 158.51818685338367,162.23029717456666 159.11091211205348,162.6382581597427 159.61582622118294,162.89323343362776 160.40612656611484,163.1992034153227 161.50376593403053,163.5306704682589 161.59157708345447,163.65815767805907 161.59157708345447,163.8111422429356 161.5257187213283,164.14260847566766 161.35009642248042,164.7545449687168 161.35009642248042,164.98402076326602 161.50376593403053,165.16250178957125 161.94282168103382,165.39197720543598 162.22820791683625,165.59595517422713 162.623358089244,166.10589936000179 162.9087443248136,166.6923338737106 162.95264989952557,166.64133962336928 162.88679153751582,166.38636821396358 162.99655547435395,166.71783099489403 163.0624138363637,166.79432234275737 163.78685581916943,166.79432234275737 164.51129780185875,166.94730496757256 164.95035354909487,167.1257845768996 165.060117485933,167.0492933315545 164.7527784628328,167.94168972200714 164.73082567553502,168.09467163705267 164.7527784628328,168.22215649392456 164.88449518708512,168.3496412851673 165.43331487104297,168.63010759437748 165.87237061804626,168.73209526436403 166.39923751470633,168.96156736799458 166.6187653883826,169.21653612233058 166.68462375027593,169.42051093645568 166.6187653883826,170.0579311465117 166.55290702625643,171.43475319314166 166.66267096297815,171.97018191899406 167.2334434343502,173.32149688217032 167.58468803204596,173.8314251381089 168.0017909918679,174.31585600745166 168.37498837697785,174.90227105330268 168.68232739996165,175.59066955043818 168.9018552735215,176.27906613150844 168.96771363553125,176.91646866477095 168.96771363553125,177.98730122267443 169.033571997541,178.49721985885117 169.01161921024323,179.28759166729287 168.96771363553125,179.49155817551946 168.66037461254746,179.72102029639063 168.46279952628538,179.74651607441774 167.540782457334,179.41507075465051 166.6187653883826,179.2366000139009 165.12597584794275,178.80317053588806 164.40153386513703,178.62469935360423 164.24786435370333,178.62469935360423 163.15022498578764,179.03263329532638 162.20625512942206,179.4660623712407 161.89891610643826,179.67002873233287 161.2403324857587,180.2054396300082 160.6256544396747,181.07229291180556 160.471984928241,181.53121400751115 160.1646459052572,182.19409853138495 160.01097639359068,182.75499943325121 159.79144852014724,184.10625547353993 159.528015071759,186.60478493431583 159.46215670974925,186.7322602505883 159.26458162348717,186.93622061987116 159.17677047417965,187.19117084506433 159.15481768676545,187.4971107684105 159.198723261361,187.90503007752704 159.35239277302753,188.5933923861885 159.2426288361894,189.58769011704135 159.0889593246393,190.2505530505441 158.73771472705994,194.07472759833036" stroke="#4dd2ff" stroke-linecap="round" stroke-linejoin="round" stroke-width="0.5"><title>2023-05-12 8.4km</title></polyline><polyline fill="none" points="62.117168527445756,213.1334130781761 61.611633246880956,213.1067304679891 61.15205571905244,213.0 60.30183729249984,213.0 58.80821032705717,213.1600956855691 58.21075954090338,213.08004785515368 56.809048080816865,213.08004785515368 56.02776628360152,213.1067304679891 55.54520987928845,213.26682608766714 54.993716845987365,213.26682608766714 54.281371677760035,213.18677829025546 53.79881527344696,213.26682608766714 53.54604763316456,213.6403821487329 53.52306875679642,213.77379489713348 53.68392089160625,214.20071523013758 53.68392089160625,216.30862406108645 53.66094201512169,217.40259530080948 53.68392089160625,218.06964866735507 53.614984262385406,218.44319780243677 53.362216622103006,218.6833362476027 53.201364487293176,218.76338234651485 52.55795594828669,218.79006437398493 51.77667415095493,218.89679245647858 49.63963864662219,219.03020249761175 49.04218786023557,219.19029445637716 48.559631456038915,219.2436584206589 48.37580044497736,219.32370434643235 48.214948310283944,219.56384197541047 48.146011680946685,219.96407086239196 48.28388493938837,221.16475381300552 48.28388493938837,222.09861448282027 48.23792718665209,222.49883945356123 48.23792718665209,223.13919812071254 48.1000539282104,224.3131848993653 48.03111729898956,224.66004361133673 47.77834965870716,225.0335832432902 47.686434153234586,225.3804409907898 47.36472988361493,225.6205730054062 47.22685662540607,225.6739356450853 46.65238471550401,225.72729827373405 44.37747595272958,225.75397958399844 40.44808808970265,225.6205730054062 39.34510202286765,225.6739356450853 38.67871460749302,225.6739356450853 37.57572854065802,225.78066089143977 37.13912988919765,225.99411125236657 36.955298878019676,226.12751763869892 36.81742561957799,226.36764896073146 36.61061573214829,226.98131688390276 36.2199748334242,227.64834558649454 35.737418429227546,228.7956309375877 35.02507326111663,230.31644322301145 34.97911550826393,230.44984738354106 34.95613663189579,231.1168671559717 34.9101788791595,231.2769516457629 34.74932674434967,231.4903974783665 34.473580227582715,231.67716243764153 34.17485483456403,232.15741457178956 32.58931236353237,235.41243335051695 32.38250247598626,236.02607985041686 32.060798206483014,236.66640508332057 30.796960004838184,238.5606912986841 29.16545978107024,240.77512100685271 28.61396674765274,241.65555165681872 26.98246652376838,243.89663435774855 26.821614389074966,244.16342862631427 26.43097349035088,245.33732014446286 26.31607910839375,245.44403729157057 25.879480457049794,245.63079219311476 25.695649445755407,245.81754696008284 25.167135288822465,246.7246396279079 24.56968450266868,248.08527267587488 24.362874615122564,248.59217335740686 24.225001356797293,249.04571523185587 24.041170345502906,249.3925408356008 23.650529446895234,250.37965732088196 23.32882517739199,251.4201273834624 22.82328989682719,252.78073577734176 22.547543380060233,253.71448250228423 21.83519821194932,255.7687134546286 21.697324953507632,256.0621736899193 21.42157843685709,256.99590859166346 20.75519102148246,258.72997876940644 20.36455012287479,259.50363710557576 20.11178248259239,260.25061537662987 19.445395067101344,261.3977563867229 18.985817539389245,262.4381822142168 18.801986528211273,262.73163489747094 18.43432450585533,263.13179711205885 18.043683607247658,263.63866836350644 17.88283147243783,263.9321196875826 17.88283147243783,264.03882917764713 18.916880910051987,264.7324397918128 19.65220495464746,265.3726940958295 20.57136001030449,265.6127890520729 21.007958661881275,265.906238141004 21.283705178531818,265.9862696530763 21.881155964685604,266.0396239806432 22.73137439112179,265.9862696530763 23.282867424655706,265.746175042761 23.627550570643507,265.79952941983356 24.018191469251178,265.66614345661947 24.385853491490707,265.82620660428074 24.59266337903682,266.0929782973253 25.00628315412905,266.35974971586256 26.01735371525865,266.4931353221182 27.671832815511152,266.51981243520277 28.154389219824225,266.57316665293183 29.234396410174668,266.51981243520277 30.452276858966798,266.57316665293183 32.22165034117643,266.57316665293183 35.53060854168143,266.7065521494369 36.265932586276904,266.62652085974696 36.771467866841704,266.7332292404608 41.06851775222458,266.89329172912403 41.665968538378365,267.0 42.95278561639134,267.0 43.41236314421985,266.8132604970888 43.803004042827524,266.7065521494369 44.193644941668026,266.7065521494369 46.468553704442456,265.9862696530763 48.054096175474115,265.3460168646998 48.51367370330263,265.2393079129106 50.3519838147331,264.62573058740236 51.27113887039013,264.30560271043214 51.707737521850504,264.1188612662954 52.48901931918226,263.9321196875826 53.24732224014588,263.692023174488 54.23541392502375,263.2651843795902 54.55711819441058,263.07844218579703 54.740949205704965,262.6782798888744 54.534139318042435,262.11805163518875 54.05158291384578,261.13097986072535 53.637963138869964,260.4907150779909 53.316258869250305,259.7170596883807 52.67285033024382,258.40984360990115 51.98348403861746,257.12929901725147 51.73071639821865,256.72912753449054 49.61665977013763,252.51395038075862 49.31793437700253,251.9803787637793 49.08814561308827,251.44680604813038 48.42175819771364,250.29962098915712 48.146011680946685,249.55261403461918 48.146011680946685,249.41921970888507 48.26090606302023,249.17910974979168 48.28388493938837,249.07239414090873 48.054096175474115,248.37874161233776 46.9970678613754,246.11101846472593 46.836215726681985,245.63079219311476 46.60642696276773,245.3106408508902 46.39961707522161,244.69701633928344 45.82514516543597,243.4964424399368 45.204715502797626,242.00238715214073 44.262581570772454,240.16148575439001 43.64215190813411,239.30772994202562 43.32044763863087,238.74745116150007 42.585123594035394,237.73361028824002 42.332355953752995,237.2266883639968 42.01065168424975,236.773125801672 41.826820673188195,236.31956244522007 41.55107415642124,235.9993995979894 41.06851775222458,235.30571207174216 40.746813482721336,234.63870308356127 40.35617258399725,234.02505329775158 39.528933033929206,232.61098521438544 39.04637662973255,231.9172886159795 38.012327192001976,230.10299642328755 36.79444674332626,228.1286051889183 36.47274247382302,227.54162110949983 36.33486921549775,227.1414039291849 36.42678472097032,226.76786733639892 36.65657348500099,226.28760521148797 37.116151012829505,225.83402349823155 37.57572854065802,225.6205730054062 37.621686293394305,225.56721035472583 37.69062292261515,225.16699012424215 37.80551730445586,225.08694600395393 37.920411686529405,225.0335832432902 40.057447190978564,224.90017629376962 40.63191910076421,224.7134064489801 40.95362337026745,224.63336218849872 42.079588313470595,224.5533179033373 43.06767999834847,224.5799993344408 44.05577168322634,224.82013209103025 45.319609884754755,224.6867250315263 45.9400395473931,224.66004361133673 47.134941119817086,224.7667692755349 47.387708760099486,224.7134064489801 47.52558201842476,224.5533179033373 47.5485608947929,224.3932292587706 47.36472988361493,223.32596910046414 47.36472988361493,222.5788843735645 47.57153977116104,221.8317974920501 47.686434153234586,219.88402513443725 47.77834965870716,219.37706828324008 47.91622291714884,219.19029445637716 48.07707505184226,219.1102484893927 48.88133572554216,219.00352049490903 49.80049078119919,218.97683848944143" stroke="#4dd2ff" stroke-linecap="round" stroke-linejoin="round" stroke-width="0.5"><title>2023-05-03 8.0km</title></polyline><polyline fill="none" points="87.73011290456634,213.0 87.75556910200976,214.44840846335865 87.70465670735575,214.62576409924077 87.37372614245396,214.89179734763457 86.8900583939394,214.98047504224814 86.10091627785005,215.0100342677615 85.69361712108366,215.12827113919775 84.03896429704037,215.1578303494025 83.09708499722183,215.54209980543237 82.15520569740329,215.66033645760035 81.9770123163471,215.77857306101942 81.72245034342632,216.10372346936492 81.56971315958072,216.48799165870878 81.64608175156172,216.8722593334678 81.69699414609931,219.35520728927804 81.64608175156172,221.77901671468862 81.69699414609931,222.48842047870858 81.64608175156172,223.22738086810568 81.67153794888873,223.87766443681903 81.67153794888873,227.36552388593554 81.67153794888873,227.8384507173032 81.8751875271555,228.2522610554006 81.9260999216931,228.66607079684036 81.9006437244825,229.0798799416807 81.67153794888873,229.73015024935012 81.64608175156172,230.43953435929143 81.67153794888873,231.32626203098334 81.77336273808032,232.30165930555086 81.7479065406369,232.8632501719403 81.67153794888873,233.2179385741474 81.64608175156172,234.45934452977963 81.82427513261791,239.18846088668215 81.8497313298285,240.22294470318593 81.9006437244825,240.45939762337366 82.23157428926788,241.28698131028796 82.43522386753466,241.5529898457753 82.68978584057186,241.7303287325194 83.12254119454883,241.8189981348405 84.90447500499431,241.9076675096876 87.32281374803279,241.93722396183875 87.75556910200976,242.0554497402336 88.08649966667872,242.35101397309336 88.21378065319732,242.49879597549443 88.31560544238891,242.79435975188971 88.3665178369265,243.11947955435608 88.4937988234451,244.39039888523985 88.59562361252028,244.98152223811485 88.67199220438488,246.13420927489642 88.90109798009507,247.61200639684102 88.90109798009507,247.78934154025046 89.20657234766986,249.00112875449122 89.46113432059065,249.35579721533577 89.56295910978224,249.59224261247437 89.84297727991361,250.89268881530734 89.99571446375921,252.1044629291573 90.19936404202599,254.38022000170895 90.3775574231986,255.4146490705898 90.40301362040918,255.94663971185219 90.65757559344638,257.27661200167495 91.19215573649853,260.6458475602558 91.37034911755472,261.47337305225665 91.39580531488173,262.5077765630558 91.7267358796671,264.39924762997543 91.8285606688587,265.64051874543657 92.18494743097108,266.7931228330417 92.38859700935427,266.97044612816535 92.61770278494805,267.0 94.11961842526216,266.5271376850724 94.90876054135151,266.1724904378061 95.34151589532848,266.05427459132625 96.13065801141784,266.1133825206198 97.19981829775497,266.1133825206198 97.65802984905895,266.2020443917427 98.14169759757351,266.23159834276885 99.18540168658365,266.1724904378061 101.27280986472033,266.2020443917427 101.93467099429108,266.1133825206198 102.41833874292206,266.1724904378061 104.81122128851712,266.14293648075545 106.491330309771,266.2020443917427 106.92408566386439,266.1133825206198 107.53503439878114,266.2020443917427 108.93512525002006,266.05427459132625 109.9279169443762,266.2611522906809 111.17527061176952,266.32026017733733 111.5571135712089,266.23159834276885 115.29917457327247,266.1724904378061 115.68101753271185,266.14293648075545 115.96103570295963,266.024720622052 116.4701596488012,265.5814107187325 117.05565218650736,263.71950164975715 117.23384556756355,263.2170796735445 117.99753148644231,260.76406563364435 118.0739000783069,260.14342020484037 118.30300585390069,259.0794534908491 118.3793744458817,258.39969491475495 118.3793744458817,257.5721605626459 118.43028684041928,257.18794737398275 118.43028684041928,256.1535246949643 118.30300585390069,255.50331424595788 118.32846205122769,253.6117845660483 118.1502686701715,252.1044629291573 118.27754965657368,251.04046642017784 118.2520934593631,249.76957653247518 118.30300585390069,248.76468287044554 118.2520934593631,248.11445568522322 118.35391824843828,247.67111812348594 118.30300585390069,247.37555936852004 118.35391824843828,244.5086236532079 118.22663726203609,242.58746514035738 118.20118106470909,242.41012678324478 117.69205711886752,241.93722396183875 117.41203894861974,241.75988520294777 117.15747697581537,241.75988520294777 116.4956158461282,241.78944167040754 115.70647372992244,241.64165930289892 112.77901104127523,241.58254633453907 110.36067229835317,241.67121578246588 109.16423102561384,241.64165930289892 107.73868397716433,241.9076675096876 107.25501622853335,241.78944167040754 106.18585594231263,241.8189981348405 105.34580143168569,241.70077225903515 103.53841142368037,241.70077225903515 103.13111226714682,241.58254633453907 102.90200649143662,241.37565084957168 102.74926930770744,241.05052907185745 102.41833874292206,240.66629376879428 102.16377676988486,240.48895422471105 102.08740817802027,240.311614571081 101.85830240242649,238.21308701619273 101.75647761323489,237.7992910394678 101.7055652186973,236.73524150284356 101.7055652186973,236.41011446871562 101.5782842321787,235.9372017616697 101.5528280348517,235.2573883801233 101.42554704844952,234.8140309593291 101.29826606193092,234.54801617821795 101.12007268087473,233.74997035544948 100.84005451074336,232.83369278535247 100.78914211608935,232.2721018610173 100.53458014328498,231.44449218019145 100.30547436757479,230.26218849618454 100.0763685918646,229.46413075609598 99.79635042173322,229.16855325220968 99.56724464602303,229.10943771485472 98.14169759757351,229.10943771485472 97.25073069229256,229.22766877734102 96.30885139247403,229.25722653532284 96.00337702489924,229.31634204214788 95.64699026278686,229.28678429024876 95.59607786836568,229.25722653532284 95.57062167092226,229.13899548500194 95.54516547371168,228.4591660007136" stroke="#4dd2ff" stroke-linecap="round" stroke-linejoin="round" stroke-width="0.5"><title>2023-04-26 6.0km</title></polyline></svg>