<?xml version="1.0" encoding="utf-8" ?>
<svg baseProfile="full" height="300mm" version="1.1" viewBox="0,0,200,300" width="200mm" xmlns="http://www.w3.org/2000/svg" xmlns:ev="http://www.w3.org/2001/xml-events" xmlns:xlink="http://www.w3.org/1999/xlink"><defs /><rect fill="#222222" height="300" width="200" x="0" y="0" /><text fill="#FFFFFF" style="font-size:12px; font-family:Arial; font-weight:bold;" x="10" y="20">Over 10km Runs</text><text fill="#FFFFFF" style="font-size:4px; font-family:Arial" x="10" y="280">ATHLETE</text><text fill="#FFFFFF" style="font-size:9px; font-family:Arial" x="10" y="290">xuandao</text><text fill="#FFFFFF" style="font-size:4px; font-family:Arial" x="120" y="280">STATISTICS</text><text fill="#FFFFFF" style="font-size:3px; font-family:Arial" x="120" y="285">Number: 19</text><text fill="#FFFFFF" style="font-size:3px; font-family:Arial" x="120" y="290">Weekly: 1.4</text><text fill="#FFFFFF" style="font-size:3px; font-family:Arial" x="141" y="285">Total: 350.3 km</text><text fill="#FFFFFF" style="font-size:3px; font-family:Arial" x="141" y="290">Avg: 18.4 km</text><text fill="#FFFFFF" style="font-size:3px; font-family:Arial" x="167" y="285">Min: 10.1 km</text><text fill="#FFFFFF" style="font-size:3px; font-family:Arial" x="167" y="290">Max: 32.2 km</text><polyline fill="none" points="46.573042998905294,45.49435620185977 47.12375964719104,45.597769494321255 48.56008820285206,45.14102649859706 50.026185226015514,45.52882731342834 52.19928335174336,45.132408682511596 52.72767364940955,47.183424143215234 52.75,48.631169815293106 51.13506063949899,48.95001523450628 51.13506063949899,50.25985407482949 50.993660418957006,50.51837250173412 47.704244762979215,51.11296188502456 45.970231532497564,51.216368307650555 45.79906284454046,51.38009488489479 43.20920617421507,51.68169564497657 41.60915104742162,51.99191244770191 41.371003307634965,52.155637523770565 38.014608599827625,53.215534297596605 37.59040793823078,53.155215325401514 37.158765159896575,53.44819278745126 26.695148842351045,55.12848510401818 26.449558985681506,53.62053199701768 26.553748621838167,53.49989458719938 29.843164277845062,53.051811273006024 32.901874310919084,52.45723551860283 34.13726571112056,52.08670068826905 34.382855567819206,51.854038453609974 34.516813671420095,51.423180773621425 34.114939360530116,49.889309618316474 27.05237045206013,51.19913391265436 24.23925027565565,51.62137557899405 22.423373759665992,51.724781380049535 22.244762954767793,51.966061090941366 22.334068357245997,54.878597590141 22.04382579930825,55.24050340510439 16.99062844546279,54.999233033842756 16.826901874301257,55.300820890421164 16.551543550158385,59.083502980240155 14.869625137827825,58.2907909009009 14.430540242552524,58.25632498983032 13.128169790521497,57.54977071876783 12.971885336271953,57.63593618970481 12.25,59.86759131748113" stroke="#4dd2ff" stroke-linecap="round" stroke-linejoin="round" stroke-width="0.5"><title>2021-12-14 10.4km</title></polyline><polyline fill="none" points="66.16534653466078,48.0563614300263 67.01410891089472,46.70231021194195 67.84950495045632,44.056037601068965 68.15024752475438,43.4524888347878 71.2111386138422,45.06194155720732 72.0933168316842,45.25538309894182 74.125,45.44882414816675 74.19851485145045,45.13158056895918 73.77079207921633,44.26495721079118 74.11163366335677,44.07925091940706 74.75321782179526,43.150712653645314 76.10990099009359,43.18166411200218 76.33044554456137,43.05785820291203 76.22351485147374,41.935857952448714 76.29034653466078,41.48705321246962 79.9059405940352,41.58764760885242 82.66608910891227,41.19300729000679 90.13787128712283,39.96264490145404 94.32153465345618,38.62392608043592 97.67648514852044,38.182840145454975 97.75,38.29891563983256 97.71658415842103,39.289419310414814 97.55618811878958,40.75193627225963 95.14356435643276,50.90365899329481 94.70247524752631,53.603850791128934 94.77599009900587,56.45867704545526 95.15693069304689,57.44894403244689 95.47103960395907,58.96526535617886 91.62821782179526,59.32113230511459 91.58811881186557,59.55321854824433 92.24306930691819,63.5217836661177 91.85544554455555,63.73838554717804 87.59826732674264,64.08649442048045 85.60000000000582,64.4346017000571 82.56584158414626,65.17722523675911 79.32450495049125,66.12096551626018 77.84084158414043,66.39170851631934 72.46757425740361,66.8171598545523 71.50519801978953,66.72433431103855 71.29133663367247,66.80942439691717 70.17524752474856,66.64697960491321 69.0391089108889,66.19058523693093 68.1636138613685,65.63362568693265 67.45519801980117,64.97609874504997 63.59900990099413,60.42740370347747 62.75693069305271,59.61510809342144 61.801237623760244,58.80280380389013 60.5314356435847,57.975018122226174 57.48391089111101,56.50509609866276 57.25,56.11053324289969 59.00099009901169,52.396900125233515 59.56905940591241,50.36206169483921 60.96584158416954,47.2052463381915 61.6876237623801,46.42375954036834 62.04851485148538,45.696427972536185 62.74356435640948,45.51846280533209 64.29405940591823,45.549413299137086 65.33663366336259,45.711903184768744 66.86039603958488,46.19163320066582 66.98737623763736,46.013669193329406 67.22128712869016,45.99819404257141 69.09257425743272,40.929912605141 69.04579207921051,40.635864526171645 69.23960396039183,40.047764953596925 70.69653465345618,40.04002677099197 70.97054455446778,39.88526295309566 71.16435643562,39.60668728631572 71.21782178219291,39.30489582777227 71.01732673266088,38.616187752784754 72.02648514852626,38.56975777023763 72.62128712871345,39.66859307834238 73.22277227722225,40.04002677099197 76.09653465347947,40.047764953596925 76.21683168318123,40.6203882799673 76.17673267325154,41.43288694383227 71.82599009902333,41.14657888241345 71.57202970294748,41.32455429073161 71.45173267327482,42.2376389592464 70.22871287126327,42.191211190067406 69.81435643564328,42.30728055979125 68.63811881185393,42.22990099967137 68.26386138613452,43.150712653645314 67.96980198018719,43.49891583317367 67.4217821782222,45.09289223700034" stroke="#ff7600" stroke-linecap="round" stroke-linejoin="round" stroke-width="0.5"><title>2021-12-11 22.0km</title></polyline><polyline fill="none" points="140.88592859447817,41.600841262872564 141.09933863856713,41.81762602650997 140.87721798042185,42.08986601399374 140.7378481557098,41.95878768822877 140.80317776104494,41.76721104984608 140.72913754166802,41.80754303526919 140.58541240994236,42.24110980510159 140.3197386815882,42.69987981387021 138.02013657381758,45.7599183557395 136.17784170340747,47.57971987757264 132.61084525218757,50.81083715659042 131.85737713731942,51.41066258248975 126.66149585976382,54.429841706351 124.4315786643856,55.9519624710083 119.73220238734211,58.809592802685074 116.70961931391503,60.447490094702516 115.58595010214776,60.9514476105287 115.45093558446388,60.92624985633665 115.31156575973728,60.99176399058342 115.26801268954296,60.94640806071038 114.96314119797898,61.022001254128554 114.97620711903437,61.09255479737476 114.92829874178278,61.01696171148069 114.90652220668562,61.22862206165155 112.89437036239542,61.93415003917107 110.1592375524051,62.79084909254743 106.8187170663441,63.68784753966247 104.97206688890583,64.48908524700892 104.14891386170348,64.94764943319024 103.10364017635584,65.5674602233994 102.25,66.30819954773688 103.07315302720235,65.60777285211952 104.44507473922567,64.76623993219255 106.7969405312324,63.71304389105353 111.50067211526039,62.402816648522275 113.68703624044429,61.69225586309767 116.51363049790962,60.54828200750853 119.80188729970541,58.76927464874825 124.92808366489771,55.639477913780865 126.41759866653592,54.59112823910618 126.45244112270302,54.500404628997785 127.32785783415602,54.071985338330705 132.0098128831014,51.319933152019075 135.71182385201973,48.008195281392545 136.00798472952738,47.635169844390475 136.09073556297517,47.67549705402416 138.10724271426443,45.68934298945169 140.40684482203505,42.52847173624468 140.86850736639462,41.49496928937879 141.74392407784762,40.320279354127706 142.75,38.691800452263124" stroke="#ff7a00" stroke-linecap="round" stroke-linejoin="round" stroke-width="0.5"><title>2021-12-05 21.7km</title></polyline><polyline fill="none" points="186.69165170559427,55.708750595062156 187.37028725317214,54.67051943899423 187.72576301614754,53.74451958832651 187.75,53.28619297617843 186.8532315978664,52.95881542447023 185.13240574506926,52.62208301106148 184.83348294437747,52.762388333321724 182.68447037701844,52.74368096942635 182.03007181332214,52.977522744571615 181.0282764811418,52.65014409265859 179.49326750449836,52.74368096942635 179.20242369838525,52.53789971479273 178.70960502696107,52.50048489171604 174.4842908438004,52.63143670588033 170.469030520675,52.63143670588033 170.040843806084,52.50048489171604 166.66382405746845,52.72497360166744 166.0255834829295,52.59402192087873 164.37746858171886,52.790449372070725 163.60996409336803,52.3414717235064 162.97980251346598,52.72497360166744 155.92684021542664,52.83721775092272 155.3532315978373,52.71561991638009 155.15933572710492,52.977522744571615 154.73922800720902,52.88398610591685 155.00583482944057,52.74368096942635 155.67639138241066,50.42393831305526 155.54712746856967,48.07607459330029 155.22396768405451,46.60745999823121 155.36131059247418,44.99850494648126 155.00583482944057,43.614032685196435 154.72307001796435,43.10888220296329 154.54533213644754,43.06210886960616 154.3837522441463,43.389521702818456 153.93132854579017,43.44564949987398 153.7212746858131,43.763706368416024 153.75359066427336,44.06305300301028 154.01211849189713,44.34368958668347 153.8586175942619,44.699161361393635 154.19793536802172,44.661743344659044 154.44030520648812,44.904960180982016 154.42414721724344,45.279138671277906 154.0848294434254,45.372683055604284 153.89093357275124,45.57848036571522 154.48070017952705,46.03684544429416 155.19973070020205,46.214578226536105 155.5228904847463,47.89834541372693 155.6440754039213,50.62037040533323 153.6081687612168,57.223985816701315 153.26077199282008,59.86155788109318 152.78411131058238,60.44143945712858 152.6548473967414,60.974553160660435 151.9358168761537,61.1803155171001 147.94479353682254,61.93789113040111 147.25,61.41413581730012 147.9690305206459,61.92853838314477 151.71768402153975,61.245785261140554 152.75179533212213,60.91843607440387 152.79219030519016,60.45079235576122 153.23653500896762,59.805440114985686 153.60008976663812,57.28945838026266 154.29488330340246,54.90435630882712 154.88464991020737,53.03364468200016 155.118940754066,53.024291028159496 155.24820466784877,52.70626623012504 159.5462298025086,52.74368096942635 159.89362657093443,52.61272931529675 160.40260323160328,52.71561991638009 160.47531418316066,52.547253418197215 160.34605026929057,52.83721775092272 160.40260323160328,52.65014409265859 160.52378815080738,52.7810956934336 162.63240574506926,52.762388333321724 163.07675044884672,52.7343272860453 163.6261220826127,52.35082544693432 164.2885996409459,52.75303465185425 164.67639138238155,52.77174201384332 165.82360861756024,52.57531452265539 167.31014362658607,52.687558854799136 178.2733393177914,52.50048489171604 179.040843806084,52.52854601045692 179.29937163373688,52.762388333321724 181.2060143626877,52.65949778461072 181.94120287254918,52.96816908498295 183.04802513468894,52.71561991638009 184.70421903053648,52.762388333321724 185.90798922799877,52.996230060845846" stroke="#4dd2ff" stroke-linecap="round" stroke-linejoin="round" stroke-width="0.5"><title>2021-12-04 14.3km</title></polyline><polyline fill="none" points="41.36263458314352,85.24531574307184 42.69886630499968,87.49019318386127 42.748586555127986,88.46151228320377 42.54970555467298,88.7565028485551 42.139513491187245,88.94356939840509 41.85983708431013,89.20977863499138 41.406139801983954,89.95084231050714 41.30669930175645,90.71348225278052 41.47450514588854,91.51208695779496 41.449645020853495,91.87181585951475 41.04566798862652,92.58407368430926 40.32472436196986,94.3323124660601 39.659716016671155,95.32512018160196 39.871027079672785,97.9869271438074 39.491910172539065,98.87896976134653 38.795826670888346,99.54799433940934 38.56587051411043,100.60547189180215 38.09352813803707,101.17376962183334 37.95058241894003,101.74206278491329 38.11838826307212,103.03689091013803 38.05002291913843,103.17356582898356 36.148223352240166,103.54042877882603 35.48321500691236,103.339014061552 34.64418578625191,103.3462074541967 33.04692275126581,103.73464957006945 32.00901253009215,103.83535643703362 28.78341130379704,105.59770339704846 28.105972896009916,105.8566568011156 27.559050144715002,106.66947660563892 27.44096455068211,107.57579563919717 27.123997956194216,108.79139579269395 25.607530327659333,112.92715704392322 25.327853920782218,112.90557978651486 24.96116707616602,112.63226729002781 24.078632636606926,111.91301883297274 23.220958322111983,111.01394797887042 24.65041551293689,112.57472768252046 25.31542385823559,113.06381285456155 25.750476046756376,113.12135206429957 25.868561640789267,115.66022310966218 25.58267020259518,116.8972604139708 25.302993795718066,119.06202366294019 25.439724483527243,119.57983097137912 26.073657672503032,120.95344033698348 26.247678547922987,121.11165541032824 26.359549110668013,121.5 26.483849735959666,121.43527604972041 26.446559548348887,121.21952912121196 25.80641132814344,120.05448434260325 25.50808982743183,119.1986676262095 25.663465609046398,117.01233255213447 25.84370151569601,116.50889056596498 25.868561640789267,115.81845001752663 26.01772239114507,115.39411342124367 26.720020924025448,115.32938388627372 27.08670776861254,115.18554026316997 28.11840295852744,114.50947131761495 27.994102333235787,114.48070228302095 26.85053658054676,115.20711682527326 26.04258251618012,115.27903865145345 25.849916546983877,112.52438048757904 27.329093987937085,108.71227452477615 27.658490644942503,106.80614450502617 27.938167051848723,106.25227822671877 28.267563708883245,105.87823620867857 28.06868270842824,105.69121445788915 25.905851828370942,102.0873526030191 22.77969110230333,99.4328937875689 22.25141344484291,98.50488874349685 22.288703632424586,98.05886648176966 22.506229726714082,97.67758715654782 24.10970779292984,96.15964341851213 24.190503199381055,95.95101353275822 23.320398822339484,92.75674116715527 22.903991727594985,89.18099930640165 22.891561665106565,88.02262160254759 22.97857210278744,87.59092319231422 23.15259297817829,87.36068296202575 23.488204666471574,87.46141315506975 24.028912386507727,87.41104807647207 24.470179606287275,87.61250817545078 25.01088732626522,87.56933820257836 25.632390452723484,87.77079785035312 27.310448894131696,87.39665804744436 27.770361207716633,87.78518780322338 27.74550108265248,88.56224090735486 28.192983333719894,88.85003618536575 29.560290211898973,88.9075951003615 30.99596243398264,88.58382559385063 31.44344468502095,88.15932554941537 31.648540716734715,88.15932554941537 31.493164935149252,88.01542665064335 31.766626310767606,87.86433249162656 32.00279749883339,87.5117781977533 32.91640709468629,86.64117740796792 35.955557383043924,82.5110738212461 36.08607303959434,82.23044826923433 36.01770769568975,82.10812396187248 35.769106445106445,81.957017172208 35.035732755903155,82.06495062636532 34.55717534851283,82.30959917878499 34.01646762850578,82.30240364522615 33.17743840784533,82.97878059802315 32.61187056271592,83.25940317816276 31.095402934210142,84.73445226274634 30.24394365097396,85.23092527302651 29.367624242673628,85.42519637109945 29.112807960860664,85.56910054388572 28.124617989815306,86.74190862649266 27.472039707034128,87.28153770961217 27.45339461322874,87.41824308990908 27.76414617645787,87.70604302619904 27.76414617645787,88.55504601039866 28.14326308359159,88.82125671029644 29.52921505557606,88.8932053759927 30.94002715262468,88.57663069909177 33.09664300136501,86.41093408361485 33.668425877724076,85.52592932283005 36.142008320981404,82.33118577510322 39.46705004747491,81.0 39.585135641507804,81.06476096940605 39.67214607918868,81.35978241229168 39.93317739231861,82.892434964524 40.299864236905705,83.31696664661285 42.02764292844222,86.31020239334612" stroke="#ff6e00" stroke-linecap="round" stroke-linejoin="round" stroke-width="0.5"><title>2021-11-27 22.7km</title></polyline><polyline fill="none" points="91.21750274623628,94.0768509231566 92.32231783232419,94.21423038499779 93.86461003296426,93.87078131046292 95.35499816914671,94.19705796449853 97.260618820932,93.73340128862765 97.75,95.84559437145799 97.74258513367386,97.20217826564476 96.30410106186173,97.4597550190374 96.17063346761279,97.6915734239301 96.0000915415585,99.05671331749181 94.2650128158275,99.26277024840238 92.64115708533791,99.6491256359077 91.15076894909726,99.7521534401094 90.85417429512017,98.19813734861236 88.948553643364,98.30116692675801 88.60005492495839,97.15066282050248 86.27920175762847,97.82036115107621 85.81948004392325,96.6698504803353 85.12248260708293,96.76429597794049 82.90543756863917,97.4855126510738 82.96475649945205,100.05265048288857 82.81645917246351,101.6152178337943 82.34932259249035,101.958635346331 78.69379348226357,102.53385654493468 78.54549615527503,102.45658825396094 78.23407176855835,101.03140485097538 76.10600512634846,101.30614087607682 75.79458073968999,99.96679429432697 75.5128158183943,99.23701315959624 75.37193335776101,99.15974184592051 72.99176125958911,99.6405399798823 73.31060051263194,101.67531599950598 71.59776638593758,101.84702480823762 71.34566093006288,100.00113678023627 70.94525814719964,99.89810928042425 69.52160380812711,100.00972239952534 69.25466861954192,97.70015927852364 68.83202123764204,97.59712896559358 67.60856829001568,97.65722999677382 67.4380263639614,97.71733098509867 67.40095203221426,97.89763369291177 67.36387770046713,99.0395418838234 67.54183449284756,103.52975262138352 67.10435737826629,103.80448050269479 62.188300988666015,103.51258209907246 61.89912120101508,104.83470208247309 61.7285792749899,107.56472837430192 61.587696814356605,107.59906776458229 60.1047235445003,106.75774867553264 59.51894910293049,106.67189931674511 58.2435920908174,106.04519634894677 57.25,108.76659871136508" stroke="#4dd2ff" stroke-linecap="round" stroke-linejoin="round" stroke-width="0.5"><title>2021-11-25 10.3km</title></polyline><polyline fill="none" points="141.28267198620597,92.69436178282194 141.47482208325528,92.73481745155732 141.6233017037157,93.23039805524604 141.94646323056077,93.42256129701855 141.771781324147,93.78665905052912 142.02507008842076,95.84985442482139 142.2434224714234,96.05212617270445 142.41810437783715,96.7701875486382 142.74126590465312,98.72207461453945 142.75,99.84464512795239 140.8022967436118,100.02668239333434 140.217112357117,100.24917193110741 137.81523614402977,100.53233971243026 137.70169290486956,100.36041651292908 138.19953633812838,98.14561455269723 137.9637157644902,97.08370567514794 137.34359499678249,97.03313830234401 135.14260297606234,97.77141938736168 134.99412335563102,97.65005849023146 134.63602544745663,96.48700903481222 134.12944791893824,96.44655489545403 131.21226008195663,97.41744968937564 131.11618503343198,102.20099059124186 130.7144166486978,102.35268473488395 130.53973474228405,102.58528197160194 117.53466681041755,104.6786325796711 103.49897563079139,103.95051563537709 103.21075048527564,104.34491297639033 102.4858205736673,106.2258633564852 102.29367047661799,107.16632518376719 103.19328229458188,107.76295763875532 106.53844080225099,109.4213747827016 109.39448997194995,109.77530168433441 109.7263855941419,109.80563821717806 109.85739702393766,109.66406765117426 108.25032348500099,106.61013915789954 107.81361871902482,106.21575081531773 102.68670476603438,105.84158606773417 102.25,106.98430100916448 102.30240457193577,107.17643762812077 103.00113219756167,107.66183374616958 106.17160879878793,109.24946697532141 106.45109984901501,106.21575081531773 106.32008841927745,106.06406257404888 104.5470670692448,105.94271181421209 104.3549169721664,106.1753006402796 104.25010782835307,108.07644105123472 104.10162820792175,108.19778920324461 103.4553051541734,107.9348680197727" stroke="#4dd2ff" stroke-linecap="round" stroke-linejoin="round" stroke-width="0.5"><title>2021-11-23 10.1km</title></polyline><polyline fill="none" points="149.57468879668158,91.51557649262395 150.25809128631954,91.54800936296306 150.05643153528217,91.69071379612797 149.17136929460685,91.95666211331991 149.0873443983437,92.19666329942993 149.51307053942583,93.7015149770923 149.78755186725175,95.43334766583575 149.81556016599643,96.6332790160559 149.7091286307259,97.82021588672433 147.45165975103737,107.63267706019542 147.25,109.27982903471275 147.30601659751846,111.21226013052365 147.63651452283375,113.11869511781333 147.75975103734527,113.51424080991274 148.09024896266055,113.5207251450629 149.3898340249143,113.30674173663283 149.76514522821526,113.35861656830457 153.35020746887312,113.01494502156856 153.93278008300695,112.98252308185329 154.18485477179638,113.07978885153716 163.74128630707855,110.53137666723342 164.1053941908758,110.19417454355062 164.68236514524324,109.9996340449361 165.2201244813332,110.05799625690997 165.62344398340792,109.9347870800666 166.2900414937758,109.90884827560876 166.82780082989484,109.9736952669191 167.85290456432267,108.43031896473622 168.76597510374268,107.6845565121439 172.34543568466324,105.83632497641884 172.80477178422734,105.53800889502236 173.23609958507586,105.09701734584087 173.6226141079096,104.88300564070232 174.91099585065967,104.24096621062199 175.38153526972746,104.10477519644701 177.66141078839428,102.86607212589297 179.81804979254957,102.12673001597796 181.10643153527053,101.87379521840921 182.18195020747953,101.53654725896195 184.25456431537168,101.30955243450444 185.53734439835534,100.92690218453208 187.75,100.5442496352589 187.1338174273842,94.79769919265527 186.92095435684314,94.03880443842718 185.84543568466324,91.38584484602688 185.1452282157843,89.32307613900048 182.51244813279482,88.9792748549371 172.19419087137794,89.44632520370214 171.09626556016156,89.59552112060919 168.19460580914165,90.4647425520161 167.30954356846632,90.64636941150457 164.3014522821759,90.63339608157912 162.87863070541061,90.85394233057741 160.66037344399956,91.68422723792537 160.71639004148892,92.72206814267338 160.48672199170687,93.46800584162338 159.70809128630208,94.48635884940086 158.9294605809264,95.3036240030815 154.86825726143434,95.18038627862188 154.79543568464578,95.0636345301391 154.7730290456675,94.01285915869084 154.53215767635265,93.92853692654535 153.50705394192482,94.06474970757336 153.12614107885747,92.8323377443703 151.33921161829494,93.00098500105742" stroke="#ff8b00" stroke-linecap="round" stroke-linejoin="round" stroke-width="0.5"><title>2021-11-20 20.1km</title></polyline><polyline fill="none" points="22.787769931950606,142.92788106475928 25.55223127087811,144.90334835811518 25.890923554077744,144.63639555732516 26.595769657054916,145.58674434016575 28.710307965928223,146.72928675741423 31.71276928758016,148.65129181951488 34.35823063499993,150.70139058406494 37.909922686289065,153.84052436942875 39.667461020930205,155.54885585761076 41.15038399078185,157.31054270634922 43.960614557086956,160.23594328148465 45.99276825651759,162.92638354385417 49.69092183565954,166.8551528459284 51.28369095141534,168.88353423892113 52.72084469383117,170.25 51.26538326044101,168.8728586530633 50.27676794718718,167.52772588638618 45.91038364707492,162.88367869762442 43.9239991750801,160.1932373078089 38.349307269905694,154.25693280962878 34.2666921801283,150.62664812456205 31.84092312451685,148.72603572827938 29.02153871266637,146.90013312029623 27.822384953091387,146.35555933968863 26.458461974631064,145.46928598205704 24.02353907347424,142.0842914656605 21.945616146665998,140.30098412670486 18.0369241212029,136.49933849979425 15.748462747957092,134.0111059554838 12.279155306110624,129.75 17.36869340017438,135.79452343571757 20.874616223969497,139.3826220593328 23.977769846038427,142.0842914656605 25.87261586310342,144.60436117422796" stroke="#4dd2ff" stroke-linecap="round" stroke-linejoin="round" stroke-width="0.5"><title>2021-11-19 12.4km</title></polyline><polyline fill="none" points="85.24475547394832,146.2730887613361 85.24475547394832,145.6153446206372 84.98456142650684,145.24651299570178 84.91553035267862,144.79776481439694 84.40045234037098,144.41048630592923 84.03936672347481,144.2875402283098 83.5933197849663,143.8510796310875 83.481808050361,143.37158407079914 83.2163039202569,142.81831523147048 83.375606398331,142.20356613097465 83.38091648090631,141.26913551101097 82.87645863380749,139.3387527761297 82.90300904680043,137.98621854557496 86.30677199421916,138.15221301422207 92.96561557622044,139.13587457326503 96.18352563260123,139.44326552364146 96.21538612822769,140.54985998640768 96.47027009309386,142.57241634232923 96.77825488394592,143.0334759380421 97.48449586992501,143.50682679381862 97.5322866133356,143.62362708359433 97.21899173987913,144.478106541952 97.14465058344649,144.93915158749223 97.75,148.17251527273038 97.51104628294706,148.90399369333682 97.4207748787303,148.9716088983696 94.39933787856717,148.48600710915343 93.66654647962423,149.26050937640684 93.08774747606367,149.68463736209742 91.52658319126931,150.05958860840474 90.66103972730343,149.99197462124357 89.74770551986876,150.07802877357972 89.54061229844228,150.3177504086525 89.62026353742112,150.74801762389689 89.30165858136024,150.92012365185656 89.03084436868085,151.41799904316213 89.13704602071084,151.55322374948446 89.29634849875583,151.20901481073452 89.21138717711437,151.67615503798515 89.01491412086762,151.59624972892198 89.01491412086762,151.6638619204059 89.07332502948702,151.78679298376665 89.31758882917347,151.8359653390835 89.3388291595329,151.60854286027825 89.3866199029726,151.84211188069094 88.97243346006144,151.95274952252657 88.86092172542703,152.21704973561282 88.87685197324026,152.51822763856035 88.79720073423232,152.59813172814393 88.8449914776429,152.86857555483584 88.97774354266585,153.00379701416387 88.94057296446408,153.3111173870675 89.3335190769576,153.47092336313654 89.3919299855479,153.5754116574135 89.14766618591966,153.86429011874134 89.2804182509717,153.65531434874356 89.2804182509717,153.59999711216005 89.21669725974789,153.63687527550064 88.86623180803144,154.0363872689377 88.65382850400056,154.42360406451553 88.68568899959791,154.73091721521632 88.5104562737688,155.01364393333643 88.5157663563441,155.14271438653304 88.13875049166381,155.35783119580083 88.37239412611234,155.73274723275972 88.26619247408235,156.04619983871817 87.61836239675176,156.070784288062 87.24665661464678,156.1998524830051 86.74750885012327,156.52559479667252 86.58289628950297,156.91279563991338 86.44483414184651,157.02342399653207 85.09076307856594,157.21395013590882 84.83056903106626,157.37374578961317 84.58630523140891,157.39218372246978 84.39514225776657,157.16478215745883 84.45886324896128,156.99269391778944 84.31018093612511,156.78987500611038 84.37390192734892,156.43954982787545 83.91723482363159,156.3903812192766 83.72076176738483,156.22443686983388 83.35967615051777,156.10766094331484 83.33312573749572,156.28589779312824 83.80041300642188,156.97425586303507 83.84820374983246,157.52124909487975 83.78979284124216,157.6195844316826 83.4287072243169,157.8039627568869 82.99859053362161,157.77323307507686 82.73308640357573,157.91458948194486 81.78258161793929,158.13584232452195 80.89048774092225,158.24646844201925 80.41258030678728,158.4246989830972 80.16831650715903,158.3755319897864 80.32761898517492,158.52917871105456 79.72226956862141,160.11479005650835 79.45676543857553,160.2561409862319 79.2762226301129,160.16395563478363 79.21250163891818,159.91198162335422 79.32401337352348,159.75833841785789 79.61606791659142,159.84437866107692 79.63730824700906,160.02875019830026 79.5470368427923,160.12708145482975 78.91513701324584,160.04718732109177 78.52750098332763,160.15166424396375 78.28323718367028,160.70477435587236 77.95932214500499,160.7785219883226 77.75222892354941,160.99976434570272 77.3114920676453,161.06736601558805 77.24777107645059,161.41151879899553 77.43893405006384,161.8048338661065 77.32742231542943,162.01378145442504 76.57339058606885,161.9830539131981 75.95211092170211,161.68806872271307 74.93788514487096,160.72321127241594 74.94319522747537,160.41592859563025 74.60866002360126,160.21926686252482 74.77327258422156,159.42646776084803 75.26180018356536,158.97167908563642 75.2883505965583,158.73199178495634 75.76094794808887,158.07438328284115 75.47951357020065,157.3614538312686 74.53431886716862,157.3614538312686 73.63160482494277,157.7056277201118 72.8828831781575,158.45542833360741 72.78199160876102,158.76272097918627 72.53241772647016,158.4369907251712 71.9483086403634,158.22188487785024 70.39776452077786,156.89435756077364 70.43493509897962,156.23672905949934 70.82257112886873,156.1383914721846 71.01904418511549,155.82493934448212 71.81555657528224,155.75733180962925 72.13947161397664,155.548362587273 72.14478169661015,155.47460857152691 72.79792185654514,155.2041764101923 72.94660416938132,154.85384203784997 73.19086796903866,154.88457320441012 73.41389143830747,154.76779468826498 73.50947292512865,154.66945471014697 73.56257375114365,154.3314098144583 73.84931821160717,154.15316719880502 74.51838861935539,154.43589662054364 74.80513307984802,154.18389872178523 74.88478431885596,153.6245825568767 75.0653271273186,153.56311892628946 75.24586993575213,153.72292423579347 75.35738167035743,153.64916799162165 75.42641274418565,153.39716681132995 75.84059918709681,153.28653181475966 75.92025042610476,152.80096471164507 75.38924216598389,152.60427819218967 75.29366067916271,152.05724044265662 74.60334994099685,151.43029221079632 74.4652877933695,151.02461635816871 74.24226432410069,150.926270286629 73.85993837681599,150.53903107355654 73.39796119049424,150.38536403116814 73.13245706041926,150.3915107203611 72.76075127834338,150.63123111135792 72.27222367899958,150.7726042293325 70.64733840301051,150.6988443829796 69.80834535200847,150.92012365185656 69.2773370918876,150.79104417685812 67.50376950306236,150.99388322801315 67.06834272976266,151.53478403463305 66.08066736592446,151.424145627283 65.59744984918507,151.6208359891316 65.27353481054888,151.65156880031282 64.65756522875745,151.36267975787996 64.25930903368862,151.38111952526015 63.876983086403925,151.41799904316213 63.74954110395629,151.54093060687592 63.51058738690335,151.47946485629654 62.89992788777454,151.57781002720003 62.74062540970044,151.965042581327 62.05562475413899,151.9220168645479 61.9494231021381,152.02036131500427 61.944113019504584,152.4260304808049 60.95112757306197,153.01608985909843 61.402484594204,153.9749240573001 61.556476989615476,154.54652951238677 61.15822079451755,154.87228073966253 60.462599973747274,154.9890590538489 60.101514356880216,155.26563837132198 59.336862462281715,157.2569720842439 58.933296184579376,157.69948177501283 58.604071063309675,157.77937901270343 58.481939163495554,157.44135151589217 58.58283073292114,157.27541005273815 58.73151304575731,156.17526808619004 58.68372230231762,155.38856210602535 58.34918709847261,154.66330845617995 57.51019404744147,153.75980232410075 57.25,153.02223628063075 57.52081421265029,149.7030776417414 57.28717057817266,148.46756645794085 58.296086272457615,148.3077472448822 59.48554477511789,147.80984621628522 65.9957060443121,141.4843017379826 67.0895830601803,140.6297799122949 67.70555264191353,140.29165642591397 70.76947030288284,140.1687019613746 71.05090468071285,140.99863973781612 70.7535400550405,141.84700878487638 70.97656352430931,143.5621532750447 71.17834666316048,144.09082598343593 71.61377343646018,144.18918318597935 72.07044054017751,144.53343213325206 72.93067392159719,144.37360250893107 73.41389143830747,144.6994086030827 74.03517110264511,144.88382636787355 74.23695424152538,144.66867225419992 74.2475744067051,144.41663360324674 74.6352104365942,143.33469963923562 75.00160613609478,143.3224048236989 75.3467615051486,143.06421311924714 75.66536646123859,143.33469963923562 75.23524977057241,143.51912157180777 75.00691621869919,143.74657451294115 74.70424151039333,144.69326133456343 74.77327258422156,144.79776481439694 74.95381539265509,144.79776481439694 75.15028844893095,144.6563777102674 75.75032778285095,144.49040112216244 75.86183951748535,144.25680366977758 76.0530024911568,144.26295098274568 76.17513439097092,144.06008932480108 76.36629736461327,144.02935265049382 76.47249901664327,143.86952169198048 76.46718893403886,143.54985850580852 76.51497967744945,143.52526895986375 76.78579389009974,143.83878492069198 77.34866264584707,143.75272187784867 77.44424413266825,143.5990375676738 77.4176937196462,143.4084684798545 77.51858528907178,143.353141857835 77.75222892354941,143.5375637340985 78.00180280581117,143.44535286637256 78.2354464402597,143.24248846172122 78.44784974431968,142.7814304619351 78.62839255275321,142.7814304619351 78.61777238754439,143.64821658947403 78.27792710106587,143.90640579687897 77.99118264060235,144.44737008041557 78.22482627505087,144.80391207228604 78.68149337876821,145.13586306896104 79.18064114329172,145.36330992065632 79.13285039988114,145.78131811694038 78.90451684803702,146.22391187709945 78.9523075914476,146.41447208045065 79.72757965122582,146.80788479179682 79.98246361609199,147.29964707722684 80.79490625407198,147.7975523117857 81.0232398059452,148.09260532871485 81.36839517502813,148.05572378041688 81.95781434379751,148.4491258011003 82.41979153009015,149.22362854127277 82.8870787989872,149.22977534868187 83.00390061622602,149.6354632555085 83.37029631569749,149.5432616977596 83.73138193259365,149.88748012857832 83.975645732251,149.94894749908417 84.09777763209422,149.93665402999977 84.3579716795648,149.65390355015552 84.89960010486539,149.6784906009525 85.31378654780565,149.47564713263273 85.47308902582154,149.2051881152547 85.43591844761977,148.43683202673856 85.22882522613509,148.1971029265551 85.2872361347836,147.9635198111573 85.10138324374566,147.52708578004604 84.56506490102038,146.74026716443404 84.53851448799833,146.3468540126123 84.88897993968567,146.08867523894878 85.41998819980654,146.86320824882205 85.60584109084448,146.9123846124894 85.77045365152298,146.82632594977622" stroke="#ff0000" stroke-linecap="round" stroke-linejoin="round" stroke-width="0.5"><title>2021-11-14 32.2km</title></polyline><polyline fill="none" points="142.66333808843046,148.40645999916887 142.75,148.08316163657582 141.58969329524552,147.68182308167525 140.71344507843605,147.54804290944594 139.80349500713055,147.56476544884572 139.3220399429265,147.72641639974972 138.77318116973038,147.5090236309552 138.49875178316142,147.57591380561644 132.9620185449021,147.65952640899195 132.30242510695825,147.64280389853593 132.30723965761717,147.48115270070775 129.21148359484505,147.5313203649166 128.68669757485623,147.45885594630454 128.37375178316142,147.31392682126534 128.0319186875713,147.54804290944594 127.49750356632285,147.58148798315597 123.76622681881418,147.60935886230072 123.40513552064658,147.54804290944594 123.34254636231344,147.71526807362898 123.18848074178095,147.71526807362898 122.43741084163776,150.2681754825644 122.23038516403176,151.78425628892 121.94151212551515,152.16326993069742 121.89336661912967,152.4531021217117 119.1009272467636,153.0327619009695 118.69169044221053,152.74850642988895 119.00463623393443,153.0327619009695 121.82114835947868,152.49769155337344 121.90781027104822,152.43080739224752 121.98965763192973,152.07966420586308 122.24482881595031,151.7508137827972 122.4229671897192,150.28489719102072 123.65549215403735,146.3049865084431 123.59290299570421,144.7943283960958 123.39550641938695,143.85223635960938 123.45809557772009,142.86553086239292 123.27514265335049,142.146395308504 123.09218972892268,141.78403660367258 122.92368045647163,141.71156457477264 122.69258202565834,141.7450132154263 120.99786019971361,142.45857934544983 120.05420827388298,142.9380013630289 116.4529243936995,144.51560463075657 115.57186162623111,144.70513694562032 114.2430456490547,144.6828390603041 113.72307417972479,144.53232809672045 113.30420827388298,144.58249846390027 112.16315977173508,145.35734607234917 111.63837375177536,145.4576852481332 111.3639443651773,145.76985039645297 110.6369472182414,145.99282441230025 110.16030670466716,146.37187815454308 109.48626961480477,146.55025547785044 109.29850213980535,146.6896123571969 108.67261055632844,146.84011738833578 108.50410128384829,146.8178203727948 102.28370185446693,148.4287563675971 102.25,149.5993029556339 102.50517118399148,154.76613097417794 104.0939728958474,154.8664529063317 105.3650142653205,155.10611011134097 112.59165477886563,157.8760254113804 116.89586305274861,158.28843542522736 118.55688302422641,158.160254267048 119.30313837371068,157.91503730243858 127.03049215403735,153.3671782128913 127.89229671892826,153.0160410317585 128.6241084165231,152.90456843985157 129.29814550641458,152.9268629763792 130.03958630526904,153.14980784247746 132.9138730384875,154.39828231715 133.59272467900882,154.6267946524058 134.94079885876272,155.26216540188761 136.97253922966775,156.04800849941967 138.33024251068127,156.80597413625947 139.08131241082447,157.3410023872857 139.51462196861394,157.71997756925703 139.39425820254837,157.83701349253533 138.83577032809262,157.51934397606965 138.5709700427542,157.25740456760832 137.73323823107057,155.34576626747003 136.46219686159748,154.39828231715 136.8329172610247,154.52647228119895 137.6369472182414,155.16184419472847 138.31579885876272,156.48272536827062 138.60948644790915,156.65549649887907 139.1968616262311,155.31232593655295 139.269079885853,154.2589450593332 139.41833095575566,153.80191636486052 140.29939372322406,152.71506451274763 141.17564194009174,151.82884626531086 141.70524251068127,150.73638138889146" stroke="#ff5000" stroke-linecap="round" stroke-linejoin="round" stroke-width="0.5"><title>2021-10-31 25.3km</title></polyline><polyline fill="none" points="182.9409444678313,148.78494691691594 183.09428901977662,148.34110629237694 183.05169331090292,148.26220086660032 181.99531973073317,147.9416462523368 181.2541543963016,147.82328708918067 180.44909549853764,147.83808200038038 180.0146192679822,147.97123599793485 179.59292175009614,147.80356053384457 176.00636306269735,147.91205648866162 171.21860538494366,147.93178299978536 170.7117164493102,147.98603086394724 170.52855490114598,148.138910881451 170.06852124528086,147.9416462523368 167.10385990745272,147.98603086394724 166.90366007570992,147.97616762043253 166.82698779976636,147.84301363645136 166.36695414390124,147.8824667069166 165.97081405132485,147.82328708918067 165.9282183424657,147.97123599793485 165.7791333613859,147.9465778778649 165.68542280186375,148.22274810549425 165.09760201936297,150.22493515922906 164.92721918383904,151.5366680074876 164.65886621792743,151.91144229667043 164.61627050905372,152.16293394389868 164.0199305847782,152.34045667346072 162.1499789650843,152.67084446580702 161.77939629786124,152.41935545554225 162.069047118217,152.6757756098159 164.5779343710601,152.20238349558713 164.6460875052726,152.133346759063 164.6886832141463,151.87692373337632 164.91870004207885,151.59584308802368 165.11038073203235,150.21507237169135 166.19657130837732,146.63967954655163 166.12841817416484,145.42151990774437 165.95377576778992,144.55350081829238 166.0261884728825,143.71999056946515 165.75783550695633,142.83714453881475 165.52355910811457,142.65958696800226 163.78565418596554,143.34515288059265 162.96781657551765,143.76437905095736 159.79443626420107,145.14533370357822 158.99363693733176,145.31301837255523 157.85207193942915,145.2883588988334 157.31536600759136,145.1502656138946 156.96608119479788,145.20944849852822 155.94378418174165,145.9147056397669 155.6030185107229,145.95416028132968 155.31762726127636,146.2451372699834 154.6616533445631,146.45227236600476 154.23995582666248,146.7876320714895 153.60953933530254,146.95531105329792 153.44767564158246,147.0687406235229 152.9237484223995,147.20189673647474 152.77040387041052,147.18216992802627 147.27981699623342,148.58768491930095 147.25,149.6479587095855 147.48001682793256,154.24878493046344 149.07735591083474,154.32274962868178 150.08261464031239,154.55450495182595 156.13120530081505,156.92130435376748 156.89792806057085,157.05936408345588 160.3481804796029,157.34041303199774 161.0510096760845,157.30589833663907 161.8688472865033,157.15797793525417 162.52908077409666,156.87692792855523 169.05900294489402,153.0258855516804 170.00888725285768,152.64125759118542 170.7159760202194,152.57222148013898 171.3591712242487,152.64125759118542 171.87457930164237,152.8039851779431 175.07351703829772,154.1501651571889 176.2363798906299,154.70736423905691 177.9955826672376,155.39769049665847 178.43005889776396,155.63437152067854 178.36616533447523,155.85132811032963 178.40024190155964,155.97952927484948 178.34486748001655,155.97459846710262 178.34486748001655,155.7822965735504 178.3491270509112,155.91542873499202 178.51099074466038,155.68861075917812 178.94120740429207,155.89077465862647 180.08703197308932,156.71914475412996 180.21481909971044,156.871997212118 180.1168489692791,156.91637364187045 179.74200673117593,156.73393694855622 179.42679848549596,156.46274599985918 179.17122423222463,155.98939088883708 179.12862852336548,155.76750408859152 179.3330879259738,155.89570547489348 179.42679848549596,155.87598220678046 179.8697938578116,154.8898085634246 179.9677639882284,154.53971209198062 180.00610012620746,153.77047715571462 180.18926167437166,153.25271599422558 180.96876314682595,152.35031902824994 181.64603491795424,151.684605573304 181.93142616744444,151.25558538766563 182.56184265881893,149.54932956874836 183.1539230121998,148.60247959699336 183.8695309213217,146.54104427878337 184.32530500630673,146.71365586553293 185.9354228018492,147.6013628785331 187.2260727808316,147.75424411040876 187.74148085822526,147.744380819684 187.75,147.55697791437342 187.19199621373264,146.4867947958628 186.91938367691182,146.00841036096608 186.68084770718997,145.83086441971318 185.8502313841018,145.73222750438072 185.1261043331906,145.75195490352417 185.03239377366845,145.92456930317348 185.00257677746413,146.97010622969538 185.83319310053776,147.39916437895954 185.91838451832882,147.35971091475585 186.09728649558383,145.73715935492874 186.09302692470374,145.3327459424945 186.0376525031752,145.0861507405789 185.96098022718797,145.03683154949613 184.45735170383705,145.0023080858482 184.23585401767923,145.6335903881154 184.26567101388355,145.7223638018113 185.58613798907027,145.76675044760123 185.96949936896272,145.8407281001928 186.01635464873107,146.34377314050653 185.90560580564488,147.39423269769395 185.64577198149345,147.32518910721046 184.00157761886658,146.4177499115358 183.80563735800388,146.67420184281582" stroke="#ff1900" stroke-linecap="round" stroke-linejoin="round" stroke-width="0.5"><title>2021-10-23 30.1km</title></polyline><polyline fill="none" points="46.466030113835586,191.64631765765807 47.06096217408776,191.55159120068856 46.86017260377412,190.7076598968415 47.046088872564724,190.29430271370074 47.99798016893328,189.94983684978797 48.34006610358483,190.02734179160325 48.934998163807904,189.88955517922295 49.552240176300984,189.56231107436906 49.73071979431552,189.7173215977964 49.909199412417365,190.23402128890302 50.57106132945046,190.2426329236332 50.69748439223622,190.50959316558146 50.96520381930168,190.41486543432984 51.06188027909957,190.1220699572732 51.180866691167466,190.1737398210753 51.329599706223235,190.29430271370074 51.49320602277294,190.88850302864012 52.09557473377208,190.89711459668615 52.5863936834503,190.74210623747786 52.75,191.39658404204965 52.65332354026032,191.508533685148 50.84621740729199,191.94771931430296 49.477873668743996,191.68076361569547 48.964744766795775,191.70659807498305 46.03470437019132,192.69691306087043 45.766984943067655,192.25773132537142 45.01588321707095,189.81205011100974 44.688670583913336,189.96706017632823 46.228057289758,195.02195481147646 46.56270657366258,197.32971077749244 46.570143224380445,197.79469875527866 46.466030113835586,197.92386162844923 43.93756885791663,198.2166300769386 42.323815644544084,198.56967303370038 41.55040396624827,194.7291752964884 41.43885420495644,194.64306348140963 41.416544252686435,195.06501053695683 41.80325009181979,196.69250087536784 42.07096951894346,198.67300240062468 39.27478883584263,199.5857396558713 38.51625045906985,199.7235104609208 38.53112376059289,196.13278551161784 38.42701065004803,195.6075107986544 38.263404333469225,195.6333440575836 38.122107969160425,195.73667701437807 38.15929122289526,199.01743271142914 37.94362835108768,199.95599818523624 34.09144326110254,200.498467055324 33.228791773784906,196.73555574981583 33.12467866326915,196.95944074341242 33.793977230991004,200.5931834851799 27.294344472989906,201.64366768223408 26.833272126328666,197.97552672249003 26.62504590523895,198.18218678268022 27.048934998194454,201.54895242944622 26.929948586126557,201.74699329154828 23.04801689312444,201.5059000067049 22.93646713186172,198.55245146025845 22.869537275080802,198.40606794439373 22.68362100626109,198.41467874645605 22.57950789568713,198.724667036724 22.668747704738053,201.3853531064451 22.527451340429252,201.4886790314995 14.830517811264144,201.10120616137283 12.25,207.9376889256382" stroke="#4dd2ff" stroke-linecap="round" stroke-linejoin="round" stroke-width="0.5"><title>2021-10-07 13.5km</title></polyline><polyline fill="none" points="96.90170556548401,202.31886416998168 96.82091561937705,202.26274407269375 96.71588868941762,202.42175092601974 96.65933572707581,202.17856386244966 97.39452423696639,201.01873977892683 97.75,199.93372979765263 95.98070017949794,199.3070371588401 94.55879712742171,199.04513449068327 92.82181328543811,199.04513449068327 92.02199281865614,199.2789761943859 91.25448833033442,198.95159764253913 91.06059245957294,199.11996390065178 90.0668761220295,199.03578081016167 84.89631956908852,199.09190287904494 80.7679533213377,199.16673225094564 80.21858168757171,199.29768350499944 79.35412926389836,199.1760859181304 75.97710951522458,199.29768350499944 75.51660682223155,199.21350057736709 74.5228904846881,199.2789761943859 73.93312387788319,199.60635357946012 72.76166965885204,199.19479324966233 69.82899461395573,199.34445176476584 68.47172351879999,199.25091522141156 66.90439856372541,199.400573645049 65.19165170553606,199.3257444637129 64.95736086173565,199.18543958436203 65.73294434466516,197.01536349067464 65.60368043085327,194.30269626677182 65.28052064630901,192.8621438573973 65.44210053858114,191.3280242369001 65.15933572707581,190.13064477340959 64.82809694786556,189.40098400648276 64.37567324950942,189.232599929157 64.75538599636639,189.36356534931838 64.9250448832463,189.62549562925415 65.39362657090533,191.19706161854992 65.25628366242745,192.81537229652895 65.5875224416377,194.33075875163922 65.7087073608127,196.87505508196045 63.67280071810819,203.5254379693506 63.31732495507458,206.1630092281339 62.864901256689336,206.70547903434635 62.65484739674139,207.33212120264943 58.025583482929505,208.21128360724106 57.831687612168025,208.15516710936208 57.59739676836762,207.81846740233595 57.25,207.68752829414007 57.94479353673523,208.26740007085027 62.7679533213377,207.30406268948718 62.864901256689336,206.75224352284567 63.34964093353483,206.11624443971232 63.68895870732376,203.6283233739814 64.14138240570901,202.15050377524312 64.69075403944589,202.3656308915888 65.01391382399015,200.61653929804015 65.54712746854057,199.34445176476584 69.64317773786024,199.2789761943859 69.82899461395573,199.37251270920387 69.85323159780819,199.8308402548064 69.99057450622786,200.01791206516646 69.8451526032004,199.4473418524576 69.93402154397336,199.28832985017652 70.39452423693729,199.1760859181304 70.99236983837909,199.26026888002525 72.94748653500574,199.12931757262413 73.48877917410573,199.51281730279152 73.90888689403073,199.60635357946012 74.17549371632049,199.3257444637129 74.72486535008647,199.19479324966233 75.88016157987295,199.33509811470867 76.97082585273893,199.11996390065178 77.7060143626295,199.21350057736709 77.88375224414631,199.00771976288524 78.49775583477458,199.1760859181304 79.85502692995942,199.10125655387674 80.99416517050122,199.23220790131018 81.68895870735287,199.1760859181304 82.00403949728934,199.0170734462663 82.48877917413483,199.11996390065178 82.6261220825254,198.98901239322004 83.17549371632049,199.12931757262413 89.170107719925,199.12931757262413 91.10906642724876,198.94224395247147" stroke="#4dd2ff" stroke-linecap="round" stroke-linejoin="round" stroke-width="0.5"><title>2021-10-03 13.5km</title></polyline><polyline fill="none" points="142.6059573206876,197.05240610763212 142.67317723768065,196.89675653197264 142.6155601659848,196.80225478736975 141.49202726734802,196.42424617293 140.6085655008792,196.30750768946382 139.28817427388276,196.30750768946382 138.7840248962748,196.168532978867 132.35491997629288,196.2407998725248 131.99001185537782,196.38533337283297 129.0803497332672,196.41868720318234 128.68183165384107,196.49095376567857 128.4609662122093,196.65216344497094 127.94241256671376,196.42424617293 126.19469472437049,196.44092307877145 126.05545346770668,196.50207168989436 124.4949911084841,196.46315894528016 124.27892708950094,196.52430753148656 123.28023117961129,196.47427687513482 123.17940130407806,196.42424617293 123.62113218731247,194.9733358614758 123.55391227029031,193.5557425613515 123.35705394193064,192.59398182966834 123.44828097213758,191.74339318687998 123.20340841732104,190.79827914594352 123.05456431536004,190.55921829478393 122.78568464730051,190.4869438778187 120.77388855957543,191.30975465903612 119.90963248373009,191.7545120781906 116.49101956136292,193.2555416090363 115.56434499111492,193.46123503224226 114.26315945465467,193.45011648864238 113.71579727326753,193.28889735194025 113.27406639003311,193.33893092809376 112.11212211023667,194.111665890734 111.63678126852028,194.1783763097592 111.38230586843565,194.506368017348 110.65729104919592,194.73429329749706 110.18195020747953,195.1067545117403 109.49054534677998,195.29576370803989 109.23126852401765,195.45697691708847 108.47264374629594,195.57927627532263 102.32682276229025,197.15246631479022 102.2548014226195,197.30811516135873 102.25,198.253116489057 102.52368109070812,203.53926342984778 104.42024303498329,203.66154468474997 105.41893894487293,203.87831532731434 112.51064018969191,206.58509679607596 115.86203319500783,206.9408034842163 117.5953467694344,207.01305612217766 118.59884410197265,206.86299284413326 119.24703615886392,206.64623404795566 127.21259632482543,202.01072463930905 128.21129223474418,201.69389488188608 128.97471843511448,201.67721958057882 129.68052756373072,201.7828297362248 131.74033787788358,202.67772864600556 132.20607587433187,202.80557015017257 133.2383817427617,203.328049708256 134.55877296978724,203.83384962461787 136.1480438648432,204.5730872293134 136.70020746887894,204.74538929316623 137.43962655603536,205.16780495612693 137.31959098990774,205.3456632051748 137.28598103142576,205.5902173518698 137.33879668050213,205.28452449739416 137.33879668050213,205.40124378920882 137.48764078243403,205.17892111364563 137.63648488439503,205.23450186739137 138.83684054535115,205.9792785101963 139.29297569650225,206.34610506384706 139.40820983995218,206.4683800342391 139.3601956134953,206.54619123651355 139.2017486662662,206.51284359197234 138.64958506223047,206.14046017812143 138.18384706581128,205.3289890189335 138.27507409604732,205.27340836135045 138.4479253111931,205.41791795340396 138.54395376407774,205.37901156238877 139.10091879073298,204.13955059940054 139.2017486662662,202.9834360928835 139.3794013040897,202.5054200581144 141.2327504445566,200.42655746782475 141.6552756372257,199.55385626868156 142.02498518078937,198.4198797311692 142.75,197.1802607842219" stroke="#ff7c00" stroke-linecap="round" stroke-linejoin="round" stroke-width="0.5"><title>2021-10-01 21.5km</title></polyline><polyline fill="none" points="187.45101755787618,200.83208479957102 187.75,200.0368752265349 187.66919393459102,199.88718794890883 185.8510574621323,199.28843639946717 184.11372705508256,199.05454801557062 182.6834596967674,199.08261465309624 182.08549481246155,199.28843639946717 181.00269353552721,198.96099249529652 177.67348363925703,199.10132574001182 176.33210295293247,199.06390356235352 176.0007980846276,198.9235702605074 165.12430167599814,198.99841471482796 164.1465482841304,198.8674368797292 163.5970670391107,198.65225860237115 162.95061851557693,199.03583691915992 156.8255187549803,199.04519246784912 156.550778132485,199.13874790237605 155.2659616919118,199.02648136952484 155.14475259376923,199.26972535069217 154.97505985631142,199.26972535069217 155.20939744613133,198.14705544865137 155.67807262568385,196.90274694378604 155.55686352754128,194.45150344006834 155.21747805268387,192.86096693741274 155.3710095770075,191.3358972488786 154.87001197127393,189.6143157615661 154.53870710293995,189.25876773816708 154.2720470869972,189.2400546461722 154.09427374301595,189.27748082637117 154.5710295291501,189.39911580657645 154.83768954506377,190.3066948043779 154.58719074219698,190.877435766306 154.74880287310225,191.40139155960787 153.77913008775795,191.76628757854633 153.6821628092148,191.9159880900188 153.5124700718443,191.83178158233204 153.03571428571013,191.93470063679706 152.36502394251875,191.55109266580257 152.19533120509004,191.09263225740142 152.34886272944277,190.76515913598269 152.70440941740526,190.606100341407 152.79329608936678,190.33476411496667 153.6821628092148,190.2037739255975 153.88417797285365,189.80144574733276 154.22356344774016,189.67981129994587 154.4013367916923,189.72659379879042 154.36901436551125,189.81080223659956 154.4821428571595,189.55817669148382 154.65991620111163,189.60495925227588 154.85385075816885,190.3721898490112 154.6114325618546,190.86807938566926 154.7568834796548,191.40139155960787 154.13467677572044,191.6446557333038 153.8760973663302,191.93470063679706 154.74880287310225,192.4867190516743 155.17707501995028,192.54285633176187 155.5164604948368,194.39536732648412 155.58918595369323,197.1740637689145 155.19323623302625,198.05349900418514 153.6013567438058,203.49832549438725 153.25389066239586,206.10835986454913 152.78521548284334,206.7257765067625 152.68824820432928,207.2683513434822 151.96099361529923,207.5209281919233 148.00149640860036,208.24123613190022 147.25,207.7547950251901 147.8398842777242,208.24123613190022 148.04189944130485,208.2599453538205 151.50039904227015,207.6518936918801 152.66400638467167,207.32447959200363 152.80945730244275,206.7538408010223 153.28621308857691,206.11771469310042 153.62559856346343,203.5451009563185 154.91041500397841,199.2977919224213 156.77703511572327,199.41005812376534 163.0071827614156,199.26036982484948 163.41121308857691,199.52232418793574 163.90413008781616,199.6345901148743 164.2515961692261,199.33521400480822 164.9465283320169,199.24165877032647 169.64136073424015,199.18552558394003 169.96458499602159,199.30714744446595 170.29588986432645,199.17617004949716 179.33808858742123,199.11068128199986 181.0592577813659,198.99841471482796 181.78651237030863,199.30714744446595 182.3683160415385,199.25101429808274 182.7319433359953,199.05454801557062 184.00867917004507,199.05454801557062 185.4308659218077,199.18552558394003 186.4005387071229,199.43812465266092" stroke="#4dd2ff" stroke-linecap="round" stroke-linejoin="round" stroke-width="0.5"><title>2021-09-25 15.0km</title></polyline><polyline fill="none" points="51.02146921880194,246.0483066461311 50.98480341437971,245.8845707556502 51.115752715966664,245.4721968887061 51.05813502325327,245.38123168070524 49.947684945655055,244.99311189868604 49.03103983445908,244.84150192179004 47.84202017588541,244.8475663282843 47.36012674597441,244.99311189868604 46.74204604240367,244.75053575038328 46.49062338331714,244.83543751468096 41.82882824621629,244.87182394804404 40.4931453698664,244.97491872183673 39.70744956025737,244.9445967480642 39.6393559233984,244.69595598084925 37.575594930152874,244.82330869863654 36.355147439200664,244.78692223561666 35.485644076543394,244.5504096841687 35.129461976204766,244.78692223561666 34.71566218312364,244.84150192179004 30.36290739782271,244.86575954401997 30.05910501809558,244.80511546989874 29.933393688552314,244.987047507002 29.870538023795234,244.8475663282843 30.326241593342274,243.53157564661888 30.25290998443961,241.78496245296992 30.043391101877205,240.85705335412422 30.13767459904193,239.7896367660942 29.77625452663051,238.62516047943063 29.655781169130933,238.49779450369897 29.46721417485969,238.46746923120736 29.236743404035224,238.49779450369897 27.319645628565922,239.31657102164536 26.198719606822124,239.88667542852636 22.505949301616056,241.4999200202692 21.79882307292428,241.69399161205365 21.358833419537405,241.71825051657652 20.138385928614298,241.70005633911205 19.446973616140895,241.5181142588699 19.038411795103457,241.57876168072107 17.85463010863168,242.4035604851706 17.241787377133733,242.55517666930973 16.969412829785142,242.88873091548885 16.152289187797578,243.1434438089018 15.544684428343317,243.5800919484427 16.099909467127873,243.20408957531617 16.22562079670024,244.0046079033309 16.078957578894915,244.2411226225595 16.435139679262647,245.15078586520758 15.916580444929423,245.4721968887061 15.188502328004688,246.31513454012747 13.789963786868611,247.62499958991248 13.59092084839358,248.09193525824958 12.716179513721727,248.6680196749512 12.25,249.1228192260096 12.270951888262061,249.48665636654187 12.669037765124813,249.947513554147 12.993792033084901,250.11730214550334 13.564730988087831,249.81410789284928 14.842796171753434,250.79645167126728 15.329927573737223,251.0329394206965 15.523732540081255,251.25729872535885 16.042291774443584,251.60293167624332 16.215144852583762,251.8454799180072 16.31990429383586,252.17898213798253 16.26752457319526,252.40333712638312 15.796107087429846,252.6883273798012 15.329927573737223,253.13096911275716 14.528517847909825,254.30728869370796 14.449948266963474,254.59833325327418 17.299405069847126,255.75643397906606 18.341761510586366,256.08385104499393 22.966890843235888,256.53253076879264 23.836394205893157,256.51434111597337 25.088269529223908,256.2900016079184 25.82682359026512,255.98683876858922 26.64918520435458,255.42901511391028 30.032915157760726,253.56148052004573 30.3681453698955,253.2886215384351 34.207578892906895,251.07538584044596 34.98803673047223,250.79645167126728 36.16134247282753,250.66304791124276 36.88942058975226,250.80251547144871 39.93792033108184,252.09409084095387 40.50885928605567,252.2153640853976 41.60359544746461,252.7914086250894 42.242628039297415,253.01576130708418 42.5202405587188,253.2886215384351 42.97594412829494,253.34925697567814 43.23784273149795,253.5372264389589 44.144011898577446,253.9010366186085 44.426862390042515,253.92529055158593 45.39064924986451,254.50738198112595 45.249224004131975,254.65290394990734 45.22827211584081,254.81055234831365 45.291127780626994,254.7862987757071 45.27017589236493,254.57407959427655 45.27017589236493,254.77417198571493 45.43255302638863,254.48919171005036 46.1920589756628,254.8590594639063 47.4701241592993,255.81706690479405 47.59583548887167,255.95652239982883 47.464886187255615,255.98683876858922 47.003944645577576,255.76249727441245 46.61633471286041,255.44114177063238 46.249676668376196,254.85299607661 46.25491464044899,254.58620642501046 46.5691929642926,254.7014111938588 47.18727366783423,253.43414648414182 47.3129849974066,252.1607911559331 47.55393171234755,251.53623073661947 48.54914640451898,250.35379259121328 49.37674599068123,249.54729567388858 49.879591308825184,248.64982762068394 50.513385928585194,246.89730034111562 51.21003621313139,245.75722030737234 52.75,241.39681922982345 51.23622607343714,245.68444850037486" stroke="#ff7300" stroke-linecap="round" stroke-linejoin="round" stroke-width="0.5"><title>2021-09-19 22.2km</title></polyline><polyline fill="none" points="97.10660535120405,244.16819395589118 96.53093645483023,243.46237330223812 96.70025083608925,243.48197950141184 97.03887959863641,244.14858789653226 96.7087165551784,243.49178259952896 97.08967391302576,244.12898183317884 96.80183946486795,243.56040425824904 97.10660535120405,244.11917880002875 96.81877090304624,243.5506011671314 97.13200250835507,244.09957273071632 96.8526337792573,243.5506011671314 97.17433110368438,244.0603605800352 96.8526337792573,243.56040425824904 97.22512541804463,244.02114841341972 96.87803093646653,243.54079807503877 96.99655100333621,243.5015856966129 97.17433110368438,243.8054812112241 97.04734531772556,243.48197950141184 97.18279682274442,243.8348904036684 97.07274247490568,243.48197950141184 97.17433110368438,243.48197950141184 97.75,243.62902586802375 97.72460284281988,243.8152842763957 96.18384197325213,244.3838603448894 95.92987040136359,244.22701210991363 95.54891304345801,244.27602721082803 95.4219272575283,244.0113453692611 94.43990384615608,241.20763374066883 94.75313545149402,240.72726935273386 94.6261496655643,240.1586716708116 94.47376672242535,240.02142345091852 94.16900083608925,240.09985102911014 93.84730351169128,239.41360755162896 93.41555183945457,237.63915529071528 93.22084030098631,237.42347377900296 93.24623745819554,237.13916559283098 92.78062290971866,235.68820038094418 91.62081939799828,232.52149082227697 89.50438963211491,233.08032949794142 88.92872073579929,233.46269093124283 87.37102842811146,233.75681407624506 83.8492892976792,235.03133731004345 83.03658026756602,235.47251449416945 81.5212165551493,235.8842780401319 81.40269648830872,236.0509437360961 81.44502508360893,236.40388190359954 81.40269648830872,236.29603982318804 81.23338210702059,236.38427426160342 81.51275083614746,237.1587730809406 81.25031354516977,237.8744436609195 81.06406772573246,238.02149860002828 80.69157608697424,237.982283971578 80.05664715718012,238.1783569539184 79.84500418062089,238.3842331552005 79.30319816054543,238.54109091750433 78.8883779264288,238.4822692866219 79.07462374583702,239.1195017053251 79.05769230768783,240.20768884476274 79.2947324415145,239.94299580878578 79.16774665552657,239.74692642362788 79.0322951504786,240.17827854338248 79.11695234113722,240.6096287288019 78.9476379598782,240.75667948625778 79.80267558532069,241.63897931015526 79.18467809364665,241.04097697986435 79.81114130438073,242.158552087094 79.83653846153175,242.43304223252926 79.45558110368438,242.38402619255794 79.3370610368147,242.4820582475004 79.77727842808235,243.74666279945086 79.87040133780101,244.39366335108207 77.16137123745284,244.98184189473977 75.14653010037728,245.30533856093098 73.9274665551784,245.30533856093098 72.40363712373073,245.68765140032338 69.6607441471715,245.7072571460085 63.192934782622615,246.33463889825362 60.704013377951924,246.90320007732225 60.24686454850598,247.1580712392897 59.07012959869462,247.47175789639005 59.0870610368147,247.9814965328187 59.30716973246308,248.24616745193634 60.619356187293306,247.76583820853557 61.07650501676835,247.93248331976065 62.00773411372211,247.72662755220517 62.38869147156947,247.26590114301507 62.97282608697424,247.2462957149619 63.84479515053681,250.392915782606 65.08079013382667,252.70625306134025 65.90196488297079,253.03952588255925 69.32211538462434,252.9807131156267 69.44910117061227,253.11794284923235 69.38137541807373,254.60785307435435 69.26285535120405,254.7156746297769 61.73683110368438,254.19616966068133 60.602424749173224,254.22557567721378 60.23839882944594,254.35300164500222 59.874372909689555,254.9215154455378 58.55372073579929,258.7833996078116 57.9441889632144,259.98898145167914 57.25,261.9492448932215 57.36852006689878,262.331491612822 57.57169732445618,262.40990100869385 57.72408026759513,262.2628833390336 58.64684364548884,262.0962630419308 58.60451505018864,262.47850917771575" stroke="#4dd2ff" stroke-linecap="round" stroke-linejoin="round" stroke-width="0.5"><title>2021-09-09 12.4km</title></polyline><polyline fill="none" points="114.5279860739247,231.04961244110018 114.41952329940978,231.11658453586278 114.8678361007187,231.29238602501573 114.69429566152394,231.85327397740912 114.70875736477319,232.43927222849743 115.01245313338586,234.3395521103448 115.21491697910824,234.64928519717796 116.71893411892233,235.20177915791282 118.95326727369684,235.3273454494556 119.23527048737742,235.6119616670112 120.13912694164901,236.03051313848118 121.27437064811238,236.12259417631867 122.25776647028397,234.92553264158778 123.07485270485631,233.57777117637306 123.70393679701374,233.67822620903462 124.52825388323981,233.4270883972713 125.01272094267188,232.43090085431322 125.1501071237144,231.65235932981886 125.77919121584273,231.06635546993493 126.11181039101211,230.5054621488598 127.33382431711652,229.99479475236149 127.21813069091877,229.49249585796497 127.5869041242695,229.08228281758056 128.60645420462242,229.10739796051348 128.9390733797627,229.308318827716 129.0692287091515,229.65992916377581 130.3635511515895,228.9901938944895 130.59493840386858,229.04879594837257 131.07940546330065,228.72229825903196 131.83864488481777,228.56323481242725 132.35926620246028,228.72229825903196 132.66296197107295,228.67206773020735 132.94496518475353,228.9567069878176 133.0172737011162,229.35017727992818 134.28267273699748,228.90647660221293 135.584226031031,229.10739796051348 135.95299946435262,228.84787444686663 136.34346545254812,229.10739796051348 136.56762185323169,229.51761087559134 137.55101767540327,229.08228281758056 138.29579539367114,228.90647660221293 138.5994911622838,228.64695245426265 138.99718800213304,228.67206773020735 139.4021156936069,230.7733519735848 139.7130423138442,231.0579839559432 140.60243706480833,232.70715575217037 142.5981521156791,235.9300609796337 142.75,236.3988366710837 142.75,237.16059146993211 142.6198446705821,237.44520134222694 142.31614890196943,237.69632688208367 141.7376807712717,238.00604732509237 141.60029459022917,237.9307100274018 141.38336904122843,238.16509250465606 141.00736475625308,240.03175767407083 141.18090519550606,241.17852199211484 140.14689341187477,243.80681200640538 139.14903588642483,245.28832700665225 139.48888591321884,248.29312577063683 139.38042313870392,248.40193258030922 139.33703802889795,248.33497456059558 139.3731922871084,248.42704182364105 139.33703802889795,248.34334431605384 138.90318693086738,249.37281774172152 138.18733261915622,250.0089087038359 137.9704070701555,251.14716446652164 137.2473219067906,252.21844962235627 137.12439742902643,252.7206097374219 137.34132297802716,254.2689174659099 136.5748527048563,254.62042110836046 135.9457686127571,254.64552845394064 135.4540707016713,254.8547560358129 134.79606320298626,254.86312512800941 134.73821638993104,254.9970304876042 134.44898232456762,254.95518508613168 134.75990894480492,254.88823239954945 134.8322174611385,255.1141974984639 134.47790573109523,255.1895190602154 134.45621317619225,255.6330779697164 133.71143545795348,256.31096526866895 133.37158543115947,257.04742909148626 132.9883502945886,257.2315440173261 132.74973219068488,257.5495597371264 132.21464916979312,257.7587799352041 131.9760310658603,258.26927498615987 131.31079271560884,258.696079893205 130.66001606854843,259.7003180019092 129.26446170327836,261.089493851905 128.62091590787168,261.46607362689247 128.70045527582988,261.5079157177606 127.73875200856128,261.8259149131045 127.08074450990534,262.27780639296543 126.87828066418297,262.2443330350943 126.5239689341106,262.92216587855364 126.35765934654046,262.7966416990894 126.23473486877629,262.8803245066956 126.22750401715166,262.5790660011553 125.93103910016362,262.85521967333625 126.0828869844845,262.2443330350943 125.88765399035765,261.9765456820678 126.09011783610913,261.64181026553706 126.05396357795689,261.1480730411786 126.22027316549793,260.6878068593578 125.85873058380093,261.3070734876237 125.69965184788452,261.3070734876237 125.57672737012035,261.02254615593847 125.902115693636,260.0936412547744 126.14796464916435,259.7421609905068 126.16965720406733,259.4325223711421 126.45166041777702,259.32373014721816 126.28535083020688,258.93877189238265 126.2925816818315,258.5789179822823 126.11181039101211,258.4450184512607 125.79365291912109,258.5538118368204 125.43934118907782,258.7713981764391 125.30195500803529,258.9889839407988 125.06333690413157,259.0391959585759 125.10672201390844,259.26514965938986 124.94764327799203,259.2567810148612 124.91148901981069,259.6501063875039 124.72348687733756,259.9932184752979 124.47040707015549,261.33217879318545 124.07271023033536,262.01001914884546 124.00040171400178,262.503751202501 123.47978039635927,263.60836134277633 122.84346545260632,265.9012168888512 122.53976968396455,265.91795282590465 122.42407605785411,266.2777746500433 122.25053561865934,266.2359349838807 122.25053561865934,266.0602081536781 122.30115158006083,266.2610387861059 122.43130690944963,266.3530859955863 122.44576861275709,266.2777746500433 122.2649973219086,266.3781897621084 122.33730583824217,266.43676518757275 122.48915372253396,266.3949256022097 122.50361542581231,265.87611297683907 121.50575790039147,265.1732003326615 120.40666845208034,263.89287973554747 120.10297268346767,263.6250977460586 119.74143010177067,263.6250977460586 119.11957686126698,263.2485278493332 118.96049812535057,263.26526432576793 119.26419389396324,263.2485278493332 119.49558114624233,263.46610177757975 119.97281735407887,263.47446999409294 119.59681306910352,262.4786462542834 112.67688805575017,256.22727578084596 112.35873058383004,256.1854310050112 112.04780396359274,255.75024407490127 110.49317086237716,254.48651513591176 109.84239421531674,253.7500283920599 109.9074718800257,253.71655156523775 109.69777718264959,253.29809008089796 109.45915907877497,253.27298232413887 109.16992501341156,253.423628749646 109.5676218532899,253.19765900795028 109.55316014998243,253.0219043353427 109.22777182646678,252.929842214151 108.98192287093843,252.6285472790987 107.9334493840579,252.2519270587145 107.5429833958624,251.67443937237113 107.26821103374823,251.7832417101381 106.92836100698332,251.60748401609453 106.92836100698332,251.69117820294196 106.2486609534244,251.01325284125778 105.71357793253264,251.14716446652164 105.39542046067072,251.08020868113817 104.99772362079239,250.72032040100748 104.8458757365297,250.71195088739478 104.80249062672374,250.48597369786876 104.65787359402748,250.4022782849861 104.70848955545807,250.1344523915177 104.90372254958493,250.0089087038359 104.73741296201479,250.35206099636707 104.65787359402748,250.31858278693107 104.36140867703944,249.87499522577855 103.97817354046856,249.73271191653475 103.05985538297682,248.78694013599306 102.41630958759924,248.6613943919001 102.25,248.21779789498396 102.36569362616865,248.00855343409785 102.3006159614597,247.74908956341096 102.37292447779328,247.79093863018352 102.30784681311343,247.7407197475186 102.74892876273952,247.01254250382044 103.42139796470292,246.560567179411 103.4937064810074,246.4015382338912 103.16108730586711,245.56453871644044 103.19724156401935,245.19625623059983 103.46478307450889,245.03722464739258 103.99986609537154,244.2755428018354 104.245715050929,244.1248796231739 105.58342260314384,243.81518222258455 109.1554633101623,242.40060359246127 112.14180503485841,240.45028665044083 112.4527316550666,240.31635760972858 113.45058918051654,240.20754010356904 113.91336368507473,239.75552738286933 114.20259775043814,238.5250357226323 114.49183181577246,237.93908084167197 114.70875736477319,236.8424969175394 114.97629887520452,236.4574334446006 114.84614354578662,236.1811911466939 115.07753079806571,235.58684851097496 115.13537761112093,234.5237178701791 114.78106588107767,232.38067259133095 114.9979914301075,231.29238602501573 114.39783074450679,231.04961244110018 114.60029459022917,230.9324111440219" stroke="#ff8700" stroke-linecap="round" stroke-linejoin="round" stroke-width="0.5"><title>2021-09-04 20.5km</title></polyline></svg>