<?xml version="1.0" encoding="utf-8" ?>
<svg baseProfile="full" height="300mm" version="1.1" viewBox="0,0,200,300" width="200mm" xmlns="http://www.w3.org/2000/svg" xmlns:ev="http://www.w3.org/2001/xml-events" xmlns:xlink="http://www.w3.org/1999/xlink"><defs /><rect fill="#222222" height="300" width="200" x="0" y="0" /><text fill="#FFFFFF" style="font-size:12px; font-family:Arial; font-weight:bold;" x="10" y="20">Over 4 km Runs</text><text fill="#FFFFFF" style="font-size:4px; font-family:Arial" x="10" y="280">ATHLETE</text><text fill="#FFFFFF" style="font-size:9px; font-family:Arial" x="10" y="290">lizhimiao</text><text fill="#FFFFFF" style="font-size:4px; font-family:Arial" x="120" y="280">STATISTICS</text><text fill="#FFFFFF" style="font-size:3px; font-family:Arial" x="120" y="285">Number: 17</text><text fill="#FFFFFF" style="font-size:3px; font-family:Arial" x="120" y="290">Weekly: 1.9</text><text fill="#FFFFFF" style="font-size:3px; font-family:Arial" x="141" y="285">Total: 98.6 km</text><text fill="#FFFFFF" style="font-size:3px; font-family:Arial" x="141" y="290">Avg: 5.8 km</text><text fill="#FFFFFF" style="font-size:3px; font-family:Arial" x="167" y="285">Min: 4.1 km</text><text fill="#FFFFFF" style="font-size:3px; font-family:Arial" x="167" y="290">Max: 10.0 km</text><polyline fill="none" points="26.771912350319326,40.35570751497289 31.128486055415124,41.95133497787174 32.25796812726185,39.29195460479241 23.625498007517308,35.12557927367743 22.092629481572658,35.83475064171944 12.492031872272491,53.829823242966086 12.25,55.514076266321354 19.833665338344872,60.30088676523883 48.15139442216605,70.2290208429913 52.75,52.85472822538577 32.82270916271955,39.380600719421636 23.22211155341938,34.77099342056317 21.12450199155137,36.1893361567636 12.411354581359774,54.89356229052646 16.20318725053221,59.23715287382947 46.61852589575574,70.31766449916176 49.28087649354711,67.30377623293316 52.265936254523695,54.36169289355166 51.70119521860033,51.87963235535426 45.32768924254924,46.91549471154576 35.00099601550028,41.59675129444804 30.24103585584089,37.43038457148941 24.83565737027675,34.593700451776385 22.173306772951037,34.85963989450829 12.572709162719548,55.336786594067235 24.593625497538596,63.13750551693374 31.935258963610977,65.70818503107876 32.580677290447056,67.12648843444185 33.226095617283136,66.41733695805306 29.11155378445983,64.64445629541297 27.01394422305748,67.39242012175964 31.451195218600333,70.2290208429913 34.27490039821714,65.53089697886026 47.82868525851518,70.14037717960309 52.50796812726185,53.7411782767158 45.40836653346196,47.713304036995396 25.72310756938532,34.593700451776385 22.33466135431081,34.327760945714545 21.366533864289522,35.92339703114703 12.572709162719548,54.804917408619076 21.205179282464087,61.36461964220507 24.916334661189467,63.04886129021179 28.304780876263976,62.516995781392325 47.9093625494279,70.67223905422725 52.0239043822512,52.588793072558474 43.31075697205961,46.649558143049944" stroke="#ffb000" stroke-linecap="round" stroke-linejoin="round" stroke-width="0.5"><title>2022-02-11 5.9km</title></polyline><polyline fill="none" points="72.31599999964237,68.20847761188634 76.28499999968335,70.25543920090422 77.5809999993071,69.4544546767138 77.90499999979511,66.78450212639291 74.25999999977648,64.73753419448622 72.1539999996312,68.29747601959389 76.36599999992177,70.70043035550043 78.4719999996014,66.60650506336242 80.90199999976903,65.89451652870048 93.37599999969825,70.34443744586315 97.58799999998882,52.366648378781974 68.91399999987334,34.299569644383155 66.0789999999106,36.43559414462652 57.25,55.748630733578466 63.567999999504536,60.02059384889435 73.28799999970943,62.423565941047855 92.72800000011921,70.34443744586315 97.75,54.14664036477916 90.62199999997392,47.20465562224854 69.15699999965727,34.38857074663974 65.34999999962747,37.770607388578355 57.49299999978393,56.104628282249905 79.36299999989569,66.2505108526675 91.91799999959767,70.52243391470984 93.2949999999255,69.81044786912389 97.1019999999553,56.28262701397762 96.77799999993294,52.09964933688752 91.4320000000298,47.38265576842241 83.5749999997206,43.733647115994245 72.8019999996759,36.257592258625664 69.48100000014529,34.47757184191141 67.1319999997504,34.74457508476917 57.49299999978393,56.19362765166443 73.12599999969825,63.75854820921086 71.91099999984726,68.47547281393781 76.20399999944493,70.43343568395358 78.30999999959022,66.78450212639291 74.17899999953806,65.09352888609283 71.99200000008568,68.11947919696104 76.68999999947846,70.61143213871401 77.98599999956787,66.60650506336242 73.93599999975413,64.9155315546086 72.23499999986961,68.03048077516723 75.79899999964982,70.25543920090422 77.98599999956787,67.14049616758712 73.93599999975413,65.09352888609283 71.91099999984726,67.9414823462721 76.44699999969453,70.43343568395358 79.20099999988452,65.62752071151044 92.88999999966472,70.34443744586315 95.88699999963865,62.601563668577 97.66899999976158,53.167645122506656 73.04499999945983,36.43559414462652 69.39999999990687,35.10057930951007 66.40299999946728,36.52459507714957 61.46199999935925,46.67065501399338" stroke="#ff9b00" stroke-linecap="round" stroke-linejoin="round" stroke-width="0.5"><title>2022-01-18 6.4km</title></polyline><polyline fill="none" points="122.01593625545502,39.20330492960056 114.43227091664448,34.77098916238174 112.0119521911256,35.21422153164167 102.57270916318521,55.07085100142285 105.79980079643428,57.90748350211652 116.28784860577434,63.66937106504338 118.78884462127462,63.226150001282804 138.23207171354443,70.58359685976757 142.75,54.007111953920685 142.26593625545502,52.14556618052302 137.1025896416977,47.44736541516613 117.33665338670835,35.923392955970485 112.41533864522353,34.68234266736545 102.89541832683608,53.91846698761219 102.65338645409793,55.602720144728664 107.73605577647686,59.59173063701019 115.56175298849121,63.93530361860758 120.4830677290447,64.28988025838044 137.42529880534858,70.31766589073231 142.58864541864023,53.3865970413317 132.90737051796168,45.14258044702001 125.00099601596594,41.41945620911429 115.3197211152874,34.416403140174225 112.7380478088744,34.59369616553886 102.25,55.602720144728664 111.04382470110431,61.98513008613372 117.90139442216605,63.7580152565497 117.01394422305748,67.74699658923782 120.80577689269558,70.05173485836713 123.38745019910857,66.86055752559332 119.19223107583821,64.73310089932056 117.65936254989356,66.86055752559332 117.820717131719,68.27885968930786 120.88645418314263,69.78580376249738 122.41932270955294,68.8993663188885 122.98406374501064,66.32869374932488 118.38545816764235,64.91038910660427 116.93326693261042,68.01292817090871 117.65936254989356,68.63343494851142 120.96713147405535,70.14037854282651 123.14541832683608,67.03784539469052 119.27290836675093,64.91038910660427 119.11155378492549,63.40343844797462 138.31274900445715,69.96309116692282 142.5079681277275,53.3865970413317 138.070717131719,48.06788363144733 117.33665338670835,36.277978499245364" stroke="#ffd600" stroke-linecap="round" stroke-linejoin="round" stroke-width="0.5"><title>2022-01-15 5.1km</title></polyline><polyline fill="none" points="167.18110236199573,39.360347236623056 157.93307086639106,34.98038130765781 147.4094488187693,55.65366771206027 150.91732283495367,58.28160007490078 161.04232283495367,62.836667997646146 182.80708661442623,69.58163785445504 187.3513779528439,54.07690528727835 181.6909448816441,47.33184056804748 175.79133858252317,45.05427692696685 160.3248031497933,34.98038130765781 157.45472440961748,34.892781811766326 147.56889763846993,56.0040590557619 160.80314960610121,62.3986815152457 182.40846456680447,69.84442805260187 184.32185039389879,66.86613547202433 187.27165354322642,53.814111330604646 181.292322834488,47.59463607001817 164.07185039343312,37.3455650707474 157.2155511812307,35.0679807967972 147.4094488187693,55.215678375796415 163.11515748035163,63.3622515470488 161.75984251964837,67.47931401396636 163.27460629912093,68.53047643526224 166.5433070869185,69.84442805260187 168.37696850392967,66.51574758050265 164.47047244105488,64.50101504422491 162.47736220480874,68.1800890728482 166.623031496536,69.66923459392274 167.7391732283868,68.09249221486971 168.2972440943122,66.42815059027635 164.47047244105488,64.76380645326572 162.63681102357805,66.25295658881078 162.55708661442623,68.44287960510701 166.623031496536,69.93202477134764 168.2972440943122,66.77853850950487 163.9921259842813,64.41341789375292 162.15846456680447,67.39171710016672 165.58661417337134,69.66923459392274 166.94192913360894,69.31884759356035 168.0580708659254,66.07776255975477 163.832677165512,64.67620932374848 162.39763779519126,67.04132937593386 162.07874015765265,67.91729847789975 165.90551181137562,70.10721818823367 168.93503937032074,65.55218030500691 183.12598425196484,69.93202477134764 187.75,53.814111330604646 187.27165354322642,52.149748150317464 178.50196850392967,45.93026349967113 158.33169291354716,34.892781811766326 152.59153543272987,44.09069089288823 147.25,55.47847199841635 147.80807086639106,56.44204807851929 181.3720472441055,69.66923459392274 184.0029527558945,67.74210471333936 186.23523622006178,60.38394145475468 187.03248031483963,52.412542503734585 178.10334645677358,45.404671639436856 159.28838582709432,34.892781811766326 157.6141732283868,35.155580279184505 147.4094488187693,55.74126555840485 162.79625984281301,63.011862541839946 161.83956692926586,67.91729847789975 166.5433070869185,69.14365405152785 168.21751968516037,66.16535957780434 164.2312992126681,64.58861218742095 162.07874015765265,67.39171710016672 166.5433070869185,69.40644435415743 168.37696850392967,66.25295658881078 165.58661417337134,64.67620932374848 166.86220472445711,63.71264044055715 183.12598425196484,69.84442805260187 187.11220472492278,53.02572908473667 178.50196850392967,45.755066240846645 160.40452755894512,35.155580279184505 157.85334645677358,35.0679807967972 153.94685039389879,40.937130710692145 147.72834645677358,54.77768886566628 148.12696850392967,56.0916568741668 155.78051181090996,58.98238098033471 160.08562992094085,62.048292203980964 182.64763779519126,70.10721818823367 187.27165354322642,53.901709323283285 180.81397637771443,47.156643532041926 165.42716535460204,38.3967562255566" stroke="red" stroke-linecap="round" stroke-linejoin="round" stroke-width="0.5"><title>2022-01-14 10.0km</title></polyline><polyline fill="none" points="32.863772455602884,87.70470744319027 22.75898203626275,83.44119158538524 12.977544910274446,102.44924108189298 12.735029940493405,104.93625168275321 40.38173652719706,116.21655173011823 49.031437125988305,118.43706982658478 52.50748503021896,100.93926766031655 23.32485029939562,83.44119158538524 21.788922156207263,84.24060204741545 12.25,104.22567779006204 26.235029940493405,111.5978599609225 48.22305389214307,119.23645526159089 48.95059880241752,118.52589045884088 52.75,103.33745978894876 52.34580838307738,100.7616235941532 23.64820359274745,83.26354473840911 19.7679640725255,87.97117664420512 12.330838323570788,103.95921246375656 27.932634730823338,111.77550230495399 28.74101796420291,113.19664004066726 27.205089820548892,116.57183492201148 31.327844311483204,118.88117291667731 33.02544910181314,114.97305966960266 28.983532934449613,113.64074521244038 27.28592814411968,116.66065570223145 28.74101796420291,117.54886311729206 28.013473054394126,117.99296656023944 31.247005988378078,118.88117291667731 33.34880239563063,115.86126842553494 29.63023952115327,113.64074521244038 27.60928143747151,117.01593875314575 31.651197604835033,119.05881410319125 33.429640718735754,116.03891009191284 29.06437125755474,113.28546108904993 27.28592814411968,116.48301413463196 31.085329341702163,118.70353170181625 34.39970059879124,114.52895502699539 48.95059880241752,118.70353170181625 52.10329341329634,106.53504129016073 52.18413173686713,101.29455570766004 44.504491018131375,96.3205127674737 43.13023952115327,93.83348299743375 34.39970059879124,89.21469874290051" stroke="#ffd700" stroke-linecap="round" stroke-linejoin="round" stroke-width="0.5"><title>2022-01-09 5.1km</title></polyline><polyline fill="none" points="77.66265060193837,88.38265399914235 67.17168674664572,83.28923038125504 57.33132530050352,104.91378222953063 71.23795180721208,112.24101539328694 77.41867469856516,113.3132894129958 93.52108433749527,119.21077824570239 97.75,101.60757602448575 69.77409638557583,83.46794738993049 66.60240963846445,83.82538132218178 57.25,104.28828450385481 66.92771084327251,110.8113151100697 73.75903614424169,111.88359049288556 92.13855421636254,119.47884518501814 93.60240963846445,118.85335556045175 96.44879518076777,109.38161300937645 97.18072289181873,100.71400511148386 68.63554216828197,83.02115481486544 66.92771084327251,83.02115481486544 65.95180722838268,84.54024884582032 57.25,104.10957080393564 66.68373493943363,110.2751770352479 72.70180722884834,112.41972780087963 72.37650602404028,117.24495207110886 76.52409638511017,119.3894895457197 77.82530120480806,115.18976648699027 73.75903614424169,113.22393328358885 71.80722891539335,116.44074946350884 76.19879518030211,119.3894895457197 77.98795180674642,115.4578343849862 74.08433734904975,113.49200164992362 72.13253012020141,116.08332589815836 71.8885542168282,116.88752876082435 76.52409638511017,119.12142258498352 77.98795180674642,115.01105451956391 73.92168674664572,113.40264553495217 71.8885542168282,116.44074946350884 75.79216867452487,118.85335556045175 78.31325301202014,115.36847842589486 73.51506024086848,113.40264553495217 71.8885542168282,116.53010533738416 76.60542168654501,119.12142258498352 78.15060240915045,115.81525814929046 75.1415662644431,113.93878211884294 75.79216867452487,113.40264553495217 92.21987951779738,119.12142258498352 93.84638554230332,118.76399987144396 97.26204819278792,101.25014774454758 91.48795180721208,95.70999487617519 89.37349397549406,95.88870991091244 76.03614457836375,86.9529233830981" stroke="#ffc500" stroke-linecap="round" stroke-linejoin="round" stroke-width="0.5"><title>2022-01-08 5.5km</title></polyline><polyline fill="none" points="138.31670467485674,115.27979875158053 142.75,107.16141628392506 142.01111744577065,105.43624671403086 137.34692132263444,103.81255344959209 127.46436716080643,98.68774450494675 126.58694412768818,99.19515316584148 125.80188141390681,104.11699625110487 122.75399087788537,103.20366741117323 124.23175598634407,102.69626193557633 125.0629988599103,97.77440789988032 122.2460091218818,95.13587259122869 108.80758266802877,87.32168483524583 107.42217787913978,87.52465196076082 102.34236031910405,99.19515316584148 108.39196123136207,103.71107248356566 111.43985176738352,103.91403439961141 122.2460091218818,107.66881821170682 121.968928164104,108.17621973634232 118.13597491453402,106.34957236098126 116.7505701254122,109.85064190725097 117.16619156231172,110.66248137957882 119.52137970365584,111.88023865281139 121.87656784499995,109.90138190437574 123.5852337514516,105.537727405841 125.29389965790324,98.02811264351476 122.33836944121867,94.72994311444927 118.45923603186384,93.25844659825088 107.8839794753585,87.27094304381171 102.25,98.99218974984251 106.40621436713263,102.84848362061894 110.14680729759857,104.26921759743709 116.70438996586017,105.23328528174898 120.90678449254483,107.3643771034549 122.8925313570071,107.6180780371069 125.43244013679214,98.58626272459514 125.0629988599103,97.67292597424239 122.75399087788537,96.35365947306855 122.84635119722225,95.64328407420544 120.67588369431905,95.13587259122869 108.6690421893727,87.27094304381171 107.79161915625446,87.47391018539201 107.0527366020251,88.84393670322606 102.43472063867375,99.49959816859337 107.3298175598029,103.3558889752021 122.75399087788537,107.46585748903453 124.60119726322591,101.22478377650259 124.27793614612892,98.83996714552632 120.35262257698923,93.96882465010276 111.16277080937289,88.48874492530013 108.43814139114693,87.22020124836126 107.65307867736556,87.7276190216071 102.48090079822578,99.6010798040079 109.73118586069904,103.96477486856747 114.580102622509,104.72588141885353 122.66163055878133,107.6180780371069 123.35433295322582,104.72588141885353 125.47862029634416,104.52291976090055 125.80188141390681,103.91403439961141 126.58694412768818,99.80404302634997 129.45011402503587,99.80404302634997" stroke="#ff7b00" stroke-linecap="round" stroke-linejoin="round" stroke-width="0.5"><title>2022-01-07 7.2km</title></polyline><polyline fill="none" points="159.40705824049655,81.0 161.23726415075362,81.31059768478735 161.35165202023927,94.38655176959583 161.92359136708546,100.72249708353775 162.0379792364547,116.965684945666 161.7234125956893,118.51853807782754 162.06657620391343,120.90992067419575 164.21134875481948,121.5 165.41242138366215,120.56829542247579 166.09874859987758,118.30113898494164 165.52680925291497,117.61788396030897 165.41242138366215,116.03397031084751 165.41242138366215,108.36277459291159 166.58489704481326,107.49315652018413 173.44816920836456,107.58632997126551 172.96202076342888,111.12690579568152 173.8199297838146,114.23264949006261 175.5357478247024,116.87251357515925 175.59294175950345,117.8663404615072 174.9638084777398,119.66764569989755 173.0478116654558,121.12731841701316 166.52770311012864,121.0962616034376 166.29892737139016,120.04032857791753 165.66979408962652,120.0092716840445 165.44101835088804,120.59935227505048 165.98436073062476,120.78569334201165 166.4133152407594,120.3508973903663 165.75558499176987,119.85398718022043 165.69839105696883,120.63040912523866 166.32752433873247,120.16455613041762 165.75558499176987,119.97821478793048 165.78418195911217,120.78569334201165 166.4133152407594,120.53723856760189 165.8699728611391,119.97821478793048 164.66890023252927,121.1583752281731 162.5527246488491,121.25154564806144 161.86639743240084,120.75463650329039 161.89499439974315,99.26275345179602 161.4088459549239,95.38043186589493 161.26586111809593,81.34165744067286 161.2086671832949,97.05759919449338 161.63762169366237,98.29994104526122 161.35165202023927,86.37330755163566" stroke="#ffaa00" stroke-linecap="round" stroke-linejoin="round" stroke-width="0.5"><title>2022-01-01 6.1km</title></polyline><polyline fill="none" points="48.01261467882432,163.62544931162847 48.94151376141235,163.88060197257437 50.520642201881856,161.73731647140812 52.47133027506061,157.55278607120272 52.75,155.0522609895561 38.0269495411776,147.1423726468929 37.05160550423898,147.80578637961298 35.9833715595305,152.70482042105868 34.07912844023667,152.75585182901705 35.100917431060225,146.2237986549153 19.588302752235904,136.47662702325033 17.5447247705888,136.47662702325033 12.43577981623821,146.88721333647845 12.38933486235328,148.36713592580054 19.774082568706945,152.70482042105868 21.399655963294208,152.85791463259375 20.888761467766017,155.71566655189963 23.35034403647296,156.73628915572772 24.232798164943233,154.79710482159862 21.771215596003458,153.11307157104602 21.213876146590337,155.3074170561158 23.44323394470848,156.53216476476518 24.139908256707713,154.79710482159862 21.63188073388301,153.2661656854325 21.213876146590337,155.61360420222627 23.21100917411968,156.4811336567509 24.232798164943233,154.6440110722906 22.04988532094285,153.36822840792593 20.935206421883777,155.0522609895561 23.0716743117664,156.4301025448367 23.629013761412352,156.4301025448367 24.372133027529344,154.43988601618912 21.58543577976525,153.21513431792846 20.888761467766017,155.20535464165732 23.257454128470272,156.53216476476518 24.000573394354433,154.23576089536073 21.81766055035405,153.1641029465245 21.213876146590337,153.98060440312838 21.028096330352128,155.1032922110171 23.21100917411968,156.4301025448367 24.232798164943233,154.3378234639531 21.58543577976525,153.72544780944008 20.981651376001537,155.20535464165732 22.74655963294208,156.37907142884796 23.675458715530112,156.17494692432228 25.115252293646336,153.77647913619876 32.73222477035597,156.53216476476518 35.518922018120065,147.70372277294518 34.961582568474114,146.32586249662563 23.536123853176832,138.56896429386688 21.538990825414658,138.05863875889918 18.752293577883393,136.11939802748384 17.68405963270925,136.27249619289069 12.25,147.75475457834546 20.517201834591106,152.1434746659943 32.36066513741389,156.53216476476518 33.1966743117664,156.12391578801908 35.333142201649025,147.70372277294518 35.100917431060225,146.17276672786102 18.798738532001153,136.27249619289069 17.86983944918029,136.22146347508533 12.38933486235328,147.34650002222043 12.57511467882432,148.2650724084815 14.154243119060993,149.38777020742418 20.192087155766785,152.60275759303477 23.907683486118913,153.1641029465245 32.87155963294208,156.88938240642892 34.03268348611891,152.70482042105868 34.357798165176064,152.1434746659943 34.868692660471424,154.6440110722906 36.95871559623629,148.2650724084815 37.7947247705888,147.70372277294518 51.91399082541466,154.23576089536073" stroke="#ff8000" stroke-linecap="round" stroke-linejoin="round" stroke-width="0.5"><title>2021-12-24 7.1km</title></polyline><polyline fill="none" points="95.71807297575288,161.9240950027015 97.75,157.76341109583154 96.91875712643377,156.03824152593734 93.63996579241939,154.87121240934357 88.60632839193568,151.11640860838816 82.51054732035846,149.49270282965153 80.94042189279571,152.13122262363322 80.84806157345884,155.68305897706887 78.90849486878142,154.71899106301134 80.57098061568104,156.64712543564383 80.80188141367398,154.66825060622068 79.64737742277794,153.55195953563089 80.47862029634416,149.64492542180233 79.64737742277794,147.31084168801317 78.26197263365611,145.73786740313517 73.69013683008961,144.2663718223339 65.0544469782617,138.43109733972233 62.6068985175807,138.0759049972985 57.25,150.20307461591437 62.329817559570074,153.45047843252541 68.97976054716855,155.98750117392046 66.62457240582444,155.02343371947063 65.79332953249104,156.34268355340464 65.88568985182792,157.30674901616294 67.87143671605736,158.3215531941969 69.21066134539433,156.19046255777357 66.90165336360224,155.12491457280703 66.07041049026884,155.73379935324192 65.93187001161277,157.25600876496173 68.1023375140503,158.4230335233151 69.11830102605745,156.13972221774748 66.43985176715069,155.02343371947063 65.65478905360214,156.9008268933976 67.91761687537655,158.3215531941969 69.21066134539433,156.29194322548574 66.53221208648756,155.429357035493 66.11659064982086,157.15452825033572 67.8252565562725,158.1693326702807 69.07212086673826,156.29194322548574 66.80929304449819,155.02343371947063 65.83950969204307,156.34268355340464 65.83950969204307,157.25600876496173 68.00997719494626,158.37229336088058 69.25684150517918,156.3934238771326 66.62457240582444,155.12491457280703 65.60860889381729,156.9008268933976 67.17873432138003,158.067852300941 68.1023375140503,158.4230335233151 69.1644811858423,156.64712543564383 66.76311288471334,155.02343371947063 65.70096921315417,156.74860603088746 67.64053591783158,158.1185924875317 68.47177879116498,158.01711211021757 69.3030216647312,156.19046255777357 66.80929304449819,155.429357035493 65.97805017093197,157.4589697457268 67.8252565562725,158.2708130236133 69.07212086673826,156.69786573533202 66.48603192693554,155.37861663510557 65.70096921315417,156.69786573533202 67.68671607738361,158.1693326702807 68.19469783338718,158.37229336088058 69.1644811858423,156.5456448243349 66.48603192693554,155.0741741480888 66.02423033071682,157.15452825033572 67.77907639672048,158.1185924875317 69.11830102605745,156.49490451271413 66.62457240582444,154.92195285012713 65.70096921315417,157.15452825033572 67.54817559849471,158.1185924875317 68.42559863184579,157.81415130675305 69.3030216647312,155.98750117392046 66.48603192693554,155.37861663510557 65.79332953249104,157.15452825033572 67.64053591783158,158.22007284901338 69.25684150517918,156.29194322548574 66.48603192693554,155.32787623076 65.88568985182792,156.13972221774748 65.56242873403244,157.10378798702732 67.73289623716846,158.4230335233151 69.21066134539433,156.3934238771326 66.62457240582444,154.8204719647183 65.56242873403244,157.25600876496173 68.05615735449828,158.37229336088058 69.3030216647312,156.24120289360872 66.25513112870976,155.2771358222235 65.47006841492839,157.205268509686 67.68671607738361,158.2708130236133 68.42559863184579,157.91563171654707 68.88740022783168,156.03824152593734 66.85547320405021,155.22639540972887 65.65478905360214,156.74860603088746 67.87143671605736,158.47377368190791 69.90336373983882,155.68305897706887 77.84635119722225,158.2708130236133 78.49287343211472,155.32787623076 80.66334093478508,154.05936480965465 81.72548460657708,150.15233380027348 82.55672747991048,149.64492542180233 85.37371721770614,150.25381542748073 87.35946408216842,151.82677858840907" stroke="#ffaf00" stroke-linecap="round" stroke-linejoin="round" stroke-width="0.5"><title>2021-12-19 6.0km</title></polyline><polyline fill="none" points="137.23569794069044,163.79792707314482 138.25514874141663,164.05249573924812 139.83066361560486,162.37234067416284 142.75,156.56813473714283 142.70366132748313,154.58247326867422 127.41189931356348,147.40349200705532 126.29977116710506,149.6437501120381 125.97540045762435,153.6660120540182 124.21453089267015,152.49497637251625 125.41933638462797,146.38519027922302 122.5,144.3994972553337 122.17562929051928,143.48302147642244 119.20995423360728,142.61745981499553 113.74199084658176,138.49329701677198 108.2276887872722,135.9475042608101 102.25,148.0144722670084 108.18135011428967,151.8330856927205 111.61041189939715,152.29131777456496 110.82265446218662,154.53155879117548 112.44450800912455,156.31356309790863 114.2980549200438,154.22607184096705 111.51773455389775,153.15686636860482 110.86899313516915,154.9388744980679 113.00057208258659,156.41539176582592 114.2980549200438,154.17515733506298 111.51773455389775,153.15686636860482 111.14702517166734,155.75350513553713 112.95423340960406,156.05899135756772 114.2980549200438,154.4297298238962 111.74942791764624,152.54589101183228 111.42505720839836,155.2443611085182 113.37128146458417,155.95716263301438 114.11270022881217,154.22607184096705 111.93478260887787,152.9532079809578 110.86899313516915,154.78613113838946 111.61041189939715,155.44801876781275 113.46395881008357,155.9062482647132 114.34439359256066,153.56418294931063 111.84210526314564,153.20778095524292 111.23970251716673,154.0224137933692 110.96167048043571,154.8879600489745 113.32494279160164,155.95716263301438 114.06636155606247,154.17515733506298 111.88844393589534,152.9532079809578 110.72997711668722,155.2952755294391 113.32494279160164,156.61904905294068 114.02002288331278,153.97149927122518 111.84210526314564,152.9532079809578 110.77631578966975,154.78613113838946 110.68363844393753,155.34618994622724 112.90789473685436,156.36447743384633 114.43707093829289,154.32790084049338 114.02002288331278,154.0224137933692 111.93478260887787,153.05503718287218 110.86899313516915,154.6843022115645 113.23226544633508,156.41539176582592 114.34439359256066,154.12424282520078 111.61041189939715,153.10595177771756 110.72997711668722,154.9388744980679 112.81521739135496,156.2626487579546 114.06636155606247,154.8879600489745 113.88100686506368,153.97149927122518 112.16647597262636,153.10595177771756 110.82265446218662,154.6843022115645 112.90789473685436,156.2117344138096 114.39073226554319,154.17515733506298 111.98112128139473,153.05503718287218 110.91533180768602,154.73521667707246" stroke="#fff500" stroke-linecap="round" stroke-linejoin="round" stroke-width="0.5"><title>2021-12-18 4.4km</title></polyline><polyline fill="none" points="183.28071672352962,163.69411865092115 187.56569965882227,156.5560778157087 185.2619453924708,153.9235886716051 176.64590443694033,149.11420541803818 173.05204778141342,147.89919758873293 171.90017064847052,148.759828373848 170.7482935152948,153.31608963233884 169.5042662115302,152.91108995093964 167.6151877134107,154.2779628437711 169.04351535835303,151.1392133180052 169.6424914675299,145.92480492411414 167.20051194541156,143.95040614105528 163.2841296927072,142.27975623792736 160.19709897600114,139.6472081055981 153.8848122865893,136.55901277757948 152.91723549505696,136.45776021823986 151.81143344705924,138.12842538871337 147.52645051199943,148.20294976327568 160.15102389082313,153.8223388720653 168.49061433435418,156.45482843427453 169.2738907849416,154.53108713182155 169.04351535835303,152.35421496868366 170.19539249129593,146.07668150018435 153.65443686000071,136.35650764289312 152.73293515341356,136.60963905107928 151.0281569964718,139.6472081055981 147.48037542658858,148.15232441097032 155.68174061435275,152.05046477314318 167.6151877134107,156.65732718096115 168.49061433435418,156.45482843427453 169.7346416383516,145.41854940919438 165.68003412988037,143.6466519391397 159.32167235505767,139.24219973525032 156.0042662115302,138.12842538871337 155.17491467576474,136.86277035885723 152.82508532400243,136.30588134913705 147.25,147.94982296117814 156.32679180894047,152.35421496868366 155.86604095553048,154.93608578341082 158.35409556305967,156.04983074811753 159.0912969284691,154.1767131004599 156.78754266211763,153.16421478195116 155.7738907849416,154.83483614469878 156.55716723552905,155.44233373593306 158.44624573388137,155.79670706338948 159.4598976110574,153.46796444634674 167.93771331058815,156.25232962338487 168.81313993176445,153.31608963233884 171.16296928329393,152.15171485446626 171.57764505129308,147.84857221221318 173.05204778141342,147.44356905535096 185.30802047788166,153.31608963233884 187.3813993174117,153.3667145743384 187.75,154.2779628437711 186.6441979520023,158.02419203717727" stroke="#ffaa00" stroke-linecap="round" stroke-linejoin="round" stroke-width="0.5"><title>2021-12-15 6.1km</title></polyline><polyline fill="none" points="49.899829739006236,211.60489406442503 52.612088535912335,205.8973098747665 52.29029511939734,204.4830333040445 49.53206583438441,203.47283382725436 48.5666855846066,202.2100822236389 37.71765039721504,197.5126242370461 36.56838819524273,198.4218123627943 35.648978433571756,202.2100822236389 34.26986379106529,202.05855186277768 35.41912599327043,196.75496647215914 35.00539160054177,195.84577596210875 19.421396140707657,185.99612874916056 17.628547105239704,186.14766293927096 12.433881952194497,197.10854020813713 12.25,198.1187497987994 18.456015890929848,202.31110244430602 23.28291713935323,202.7656932383543 32.339103291742504,206.30138831713703 33.16657207719982,205.8973098747665 34.867480136221275,199.12895778403617 35.00539160054177,195.9467971941922 32.06328036310151,193.06768579111667 18.410045402823016,185.89510593563318 12.47985244053416,197.86619755154243 17.582576617598534,201.60396056302125 33.25851305318065,206.40240788756637 33.48836549371481,203.37181379122194 34.68359818379395,204.28099353716243 36.660329171223566,200.03814359812532 36.660329171223566,198.1187497987994 37.901532349642366,197.61364520411007 40.47587968222797,198.37130194553174 49.9917707152199,203.62436385109322 52.24432463105768,204.07895370590268 52.75,205.442721320258" stroke="#fffd00" stroke-linecap="round" stroke-linejoin="round" stroke-width="0.5"><title>2021-12-13 4.2km</title></polyline><polyline fill="none" points="94.54560439568013,211.61088512768038 97.75,205.40059417614248 97.52747252746485,203.93358716391958 83.68626373610459,197.136409037048 82.7071428571362,197.47871476673754 82.03956043953076,199.38584320317023 79.72527472535148,209.70379457325907 82.75164835178293,197.136409037048 66.50714285718277,186.52483698009746 63.970329670235515,186.52483698009746 59.831318681361154,194.93586765800137 59.030219780281186,198.11442490224726 63.792307692347094,201.19516471819952 68.37637362629175,201.92867192521226 76.87692307704128,205.74289530923124 78.65714285708964,205.79179545555962 80.88241758244112,197.2831115159206 80.61538461549208,195.864986089 75.36373626370914,191.70839273493038 68.9994505494833,188.5787039171555 65.97307692305185,185.88911487231962 64.01483516488224,186.57373865356203 59.87582417577505,194.5935605140403 58.89670329680666,197.57651636871742 60.81043956056237,199.09243921295274 58.62967032962479,198.0655241458444 57.25,200.7550599743845 58.89670329680666,202.5643774641212 72.38186813215725,209.21479604329215 76.47637362638488,210.6817904675845 77.72252747253515,209.94829369260697 80.25934065924957,200.99956264876528 80.83791208802722,196.06058979040245 76.38736263755709,192.4908124524518 74.42912087915465,191.90399775770493 65.3054945054464,186.23142685816856 63.88131868117489,186.4759353028494 62.94670329685323,188.08968860149616 58.674175824271515,198.26112714782357 63.213736263802275,200.70615942787845 64.63791208784096,200.46165663696593 66.5961538462434,201.97757237462793 69.53351648361422,202.51547706132988 74.78516483516432,205.0093926481204" stroke="#ffc000" stroke-linecap="round" stroke-linejoin="round" stroke-width="0.5"><title>2021-12-12 5.6km</title></polyline><polyline fill="none" points="138.3778409094084,208.92669398791622 142.46235795482062,200.5831499423366 142.28977272752672,198.18120437435573 137.4573863639962,194.95752918790095 130.43892045482062,193.63012972590514 128.6555397727061,194.07259645930026 125.54900568188168,190.65927528508473 123.36292613646947,189.77433777519036 122.44247159105726,190.72248506965116 118.76065340917557,205.19739344908157 118.87571022752672,208.23140199301997 117.32244318211451,208.8634856499266 118.47301136376336,208.92669398791622 119.04829545482062,207.59931783383945 119.5660511367023,200.96240384265548 123.19034090917557,190.21680665318854 126.92968750023283,190.72248506965116 138.49289772752672,196.66418238449842 142.75,196.85381029138807 121.4644886367023,186.99309919204097 117.78267045482062,201.4048664981383 113.46803977293894,199.1293416491244 107.71519886376336,197.67553069913993 106.16193181835115,198.18120437435573 103.91832386376336,196.85381029138807 102.82528409129009,197.23306596971815 102.59517045458779,199.76143253786722 105.87428977293894,201.02561280853115 106.7372159094084,197.9915767837665 103.34303977317177,196.85381029138807 102.65269886399619,199.31896896846592 105.35653409105726,200.77277691516792 106.8522727272939,198.56045941991033 103.86079545482062,196.60097307211254 102.71022727293894,197.67553069913993 102.76775568188168,199.69822347158333 105.52911931858398,200.7095679291524 107.02485795482062,198.18120437435573 103.11292613646947,197.04343815310858 102.65269886399619,199.57180532393977 105.52911931858398,200.77277691516792 106.96732954564504,198.18120437435573 104.26349431835115,196.98022887093248 103.28551136376336,197.67553069913993 102.76775568188168,198.7500868748175 105.29900568211451,200.64635893824743 106.50710227293894,200.26710488717072 107.08238636399619,198.49725025816588 103.80326704541221,196.85381029138807 102.71022727293894,197.35948448890122 102.25,199.19255076057743 105.6441761367023,200.77277691516792 106.96732954564504,198.6236685765325 106.04687500023283,197.92836757696932 107.71519886376336,197.61232146725524 116.91974431835115,201.02561280853115 118.87571022752672,195.84246093197726 121.34943181835115,197.10664743033703 123.07528409129009,189.83754762989702 125.54900568188168,190.0903869989561 142.57741477293894,198.43404109153198 141.3693181821145,203.17471465840936 137.62997159105726,210.50690080795903" stroke="#ffd900" stroke-linecap="round" stroke-linejoin="round" stroke-width="0.5"><title>2021-12-11 5.0km</title></polyline><polyline fill="none" points="159.5912100893911,178.56235864912742 160.76819878758397,178.5 161.08397624315694,182.0544282742776 160.94044103601482,191.0650814343535 161.4571677815402,197.89309516968206 161.62941003008746,218.71941292128759 163.78243813640438,219.0 164.58623529609758,218.68823656774475 165.84934511850588,216.22529734988348 165.21779020724352,213.51292992112576 165.16037612443324,205.74985084909713 166.10770849126857,205.00159471150255 172.71032801736146,204.97041734363302 173.3418829285074,210.73819116447703 175.4087899106089,215.22764699082472 174.60499275079928,217.34765118258656 172.4806716858875,218.40764928158023 170.95919849083293,218.68823656774475 164.95942683448084,218.18941459667985 164.5288212132873,218.5947074931173 162.34708606556524,218.78176562162116 161.60070298868231,218.4388256559323 161.77294523722958,200.66791846288834 161.11268328456208,194.21408781132777 161.17009736748878,181.02551790917641 160.88302695320453,179.3418409844744 160.91173399460968,181.86735384931671 160.99785511894152,178.65589660551632 159.7347452964168,178.59353797018412" stroke="#ffdc00" stroke-linecap="round" stroke-linejoin="round" stroke-width="0.5"><title>2021-12-05 4.9km</title></polyline><polyline fill="none" points="30.685632761917077,227.34612790035317 33.39980814245064,227.3781705291185 33.90134054981172,267.75 34.31436723819934,265.92373656775453 34.13735580025241,245.57800062414026 33.724329111981206,244.07205778421485 33.51781576767098,227.25 33.45881195506081,243.71960232112906 33.90134054981172,245.0973811376025 33.429310048697516,228.27536317060003" stroke="#ffff00" stroke-linecap="round" stroke-linejoin="round" stroke-width="0.5"><title>2021-12-04 4.1km</title></polyline></svg>