<?xml version="1.0" encoding="utf-8" ?>
<svg baseProfile="full" height="300mm" version="1.1" viewBox="0,0,200,300" width="200mm" xmlns="http://www.w3.org/2000/svg" xmlns:ev="http://www.w3.org/2001/xml-events" xmlns:xlink="http://www.w3.org/1999/xlink"><defs /><rect fill="#222222" height="300" width="200" x="0" y="0" /><text fill="#FFFFFF" style="font-size:12px; font-family:Arial; font-weight:bold;" x="10" y="20">Over 4 km Runs</text><text fill="#FFFFFF" style="font-size:4px; font-family:Arial" x="10" y="280">ATHLETE</text><text fill="#FFFFFF" style="font-size:9px; font-family:Arial" x="10" y="290">lizhimiao</text><text fill="#FFFFFF" style="font-size:4px; font-family:Arial" x="120" y="280">STATISTICS</text><text fill="#FFFFFF" style="font-size:3px; font-family:Arial" x="120" y="285">Number: 54</text><text fill="#FFFFFF" style="font-size:3px; font-family:Arial" x="120" y="290">Weekly: 1.9</text><text fill="#FFFFFF" style="font-size:3px; font-family:Arial" x="141" y="285">Total: 307.8 km</text><text fill="#FFFFFF" style="font-size:3px; font-family:Arial" x="141" y="290">Avg: 5.7 km</text><text fill="#FFFFFF" style="font-size:3px; font-family:Arial" x="167" y="285">Min: 4.0 km</text><text fill="#FFFFFF" style="font-size:3px; font-family:Arial" x="167" y="290">Max: 13.4 km</text><polyline fill="none" points="19.133856406842824,31.333333333328483 18.06705380056519,31.443683461780893 17.69451955705881,33.15410418958345 17.81305317999795,40.786483390285866 18.35492117051035,41.30143065885932 18.60892179107759,41.98189505682967 18.21945417288225,42.77270269341534 17.44051893654978,43.12212852243101 17.28811856417451,43.6554617358488 17.30505193886347,54.45061573886778 21.030394373636227,54.45061573886778 22.48666459816741,55.02070454355271 25.246804674854502,55.16782402295212 27.075609142833855,54.98392466007499 27.617477133346256,55.039094483232475 27.820677629846614,55.33333333332848 29.327747978444677,54.72646532363433 29.92041609302396,53.990865751125966 30.15748333890224,52.88746231343248 29.78494909539586,54.08281581665506 28.768946613185108,54.89197492769745 24.65413656021701,55.09426429413725 23.84133457444841,54.83680507190002 22.283464101725258,55.039094483232475 21.843196359463036,54.74485528506921 21.826262984774075,52.942632601596415 18.03318705112906,52.9242425069242 17.81305317999795,51.87600486226438 17.30505193886347,51.72888343577506 17.35585206298856,43.12212852243101 16.881717571232002,42.901438582266564 16.50918332778383,42.07384956236638 17.32198531355243,40.71291940769879 17.30505193886347,36.20708398427814" stroke="#fff500" stroke-linecap="round" stroke-linejoin="round" stroke-width="0.5"><title>2022-09-02 4.4km</title></polyline><polyline fill="none" points="48.229765770433005,31.44376808204106 50.46668476687046,31.333333333328483 50.97507544787368,31.55420278175734 50.9581290918868,38.180195066321176 51.330948924587574,46.425627966440516 51.24621714442037,54.48674694483634 51.43262706079986,54.83642428036546 52.77138918754645,55.33333333332848 53.36451164865866,55.02046478600823 53.55092156503815,54.52355510853522 54.11015131423483,54.32111014072143 53.94068775384221,53.41930782943382 53.85595597367501,54.17387733348005 54.95746911590686,54.48674694483634 58.51620388304582,54.100260897161206 59.075433632184286,53.4009036666248 58.75345286750235,52.186225911951624 58.90597007184988,53.640157677116804 58.21116947446717,54.32111014072143 55.78784056159202,54.229089646425564 54.686327419418376,54.43153468905075 55.14387903222814,55.16769709259097 56.56737293914193,54.762808040031814 57.2113344684476,54.983656695796526 58.71956015541218,54.78121210219979 59.4990925330203,53.73217838919663 59.61771702533588,52.793565530198975 59.770234229566995,53.25367031508358 59.39741439680802,54.13706911803456 58.499257527058944,54.983656695796526 57.651939725270495,55.13088902410527 53.55092156503815,54.85482833707647 51.619036977237556,55.25971723994007 51.38178799266461,54.96525264866068 51.19537807634333,46.84893522952916 51.3987343487679,42.11889575586247 51.00896815996384,40.31519943913736 50.99202180391876,31.683043202778208 49.7210451013525,31.351739128207555" stroke="#ffe200" stroke-linecap="round" stroke-linejoin="round" stroke-width="0.5"><title>2022-08-28 5.1km</title></polyline><polyline fill="none" points="80.49883108353242,31.407239874941297 81.6896412501228,31.573529513683752 81.70665282395203,40.49757773189049 82.02987272641622,43.9710341150203 82.18297689064639,54.04008956096368 81.87676856206963,54.85298642773705 82.08090744778747,55.16705950899632 82.65930095728254,55.33333333332848 89.2427800213336,55.314858469428145 90.31450917135226,54.243314025588916 90.48462490935344,53.17176498679328 90.1954281546059,52.76531414935016 89.85519667842891,52.83921435076627 89.70209251419874,53.910764815620496 88.6473749380093,54.3911135323724 85.24506017618114,54.61281262872217 84.66666666668607,53.85533990424301 84.63264351914404,54.465013253022335 84.03723843576154,55.01926046109293 82.1999884644174,55.148584632755956 81.96182643109933,51.71223390407977 82.06389587395824,42.12345694472606 81.6896412501228,40.0911062752275 81.63860652869334,31.628959368623327 81.17929403588641,31.333333333328483 78.8487084240187,31.4441931375477 81.57056023349287,31.702865822808235 81.77469911921071,35.08406271367858 81.65561810252257,31.573529513683752" stroke="#ffe800" stroke-linecap="round" stroke-linejoin="round" stroke-width="0.5"><title>2022-08-27 4.9km</title></polyline><polyline fill="none" points="110.49938598979497,31.333333333328483 111.17310687387362,31.424801168846898 111.4089091833448,33.693192666440154 111.37522313912632,40.69946405828523 111.7289266033331,45.967756726342486 111.49312429392012,53.760233912369586 111.67839753703447,54.308990660327254 111.49312429392012,53.90656916417356 111.45943824964343,54.27240691501356 112.08263006748166,54.93091350333998 112.40264748746995,54.821162526961416 113.26164161472116,55.15041530990857 115.99021119537065,55.16870711832598 117.11869367625332,54.93091350333998 117.67451340571279,55.33333333332848 119.05564121808857,54.85774619113363 119.72936210222542,54.180947528016986 120.1672806769493,53.248059849473066 120.06622254429385,52.88222058393876 119.84726325701922,53.90656916417356 119.27460050553782,54.583368577907095 118.28086220135447,55.040664430940524 112.35211842117133,55.040664430940524 111.82998473598855,54.821162526961416 111.67839753703447,54.107779994054 111.74576962541323,43.90069693746045 111.6447114928742,43.370209781467565 111.54365336016053,43.73606311423646 111.71208358119475,41.870205459490535 111.35838011710439,40.47994942862715 111.34153709496604,31.443094731876045" stroke="#fffb00" stroke-linecap="round" stroke-linejoin="round" stroke-width="0.5"><title>2022-08-21 4.2km</title></polyline><polyline fill="none" points="140.97538744844496,31.333333333328483 142.35971947805956,31.426145178542356 142.20590480807004,39.18509404959332 142.51353414793266,41.802293030399596 142.4622625913471,44.196727765520336 142.63316778012086,43.28721648690407 142.41099103470333,51.39845581090776 142.71862037456594,54.071209525936865 142.5818962234771,54.77651478875487 142.80407296901103,55.11060606369574 143.94913773413282,55.33333333332848 145.7265516979387,54.943560481769964 146.3589008966228,54.51666571191163 149.6231900032144,54.34961973482859 150.44353490957292,53.53294891337282 150.32390127738472,52.75339701445773 150.37517283397028,53.068930217501475 151.02461255155504,53.12461250628985 150.71698321163421,54.386741072667064 149.57191844657063,55.14772728904791 145.64109910349362,55.29621213545033 144.6669395272038,54.943560481769964 143.47060320538003,55.29621213545033 142.8895255633979,55.20340911670064 142.65025829902152,54.90643922628078 142.70152985566529,42.210647856714786 142.27426688361447,40.29879907952272 142.3426289591007,36.32656185008818 142.24008584581316,38.572554176455014 142.41099103470333,38.6468015134451 142.35971947805956,31.333333333328483" stroke="#fff200" stroke-linecap="round" stroke-linejoin="round" stroke-width="0.5"><title>2022-08-20 4.5km</title></polyline><polyline fill="none" points="171.80509748571785,31.333333333328483 172.79101011680905,31.573344756267034 172.89300107874442,32.699549119584844 172.9269980659592,41.06284220400266 173.23297095147427,44.69977186030883 173.02898902783636,45.41976687971328 173.181975470623,55.093344753506244 179.87938196462346,55.25949071793002 181.15426898765145,54.52106336316501 181.5282358476543,53.653408430851414 180.88229308946757,54.631827605568105 180.0153699137736,55.13026608846849 174.52485646813875,55.33333333332848 173.24996944511076,55.07488408399513 173.23297095147427,42.07823398793698 172.9099995722645,40.56437563490181 173.01199053414166,32.18260348547483 172.89300107874442,31.73950637532107 172.80800861044554,33.05033304724202 172.84200559771853,36.90892371247173" stroke="#fff800" stroke-linecap="round" stroke-linejoin="round" stroke-width="0.5"><title>2022-08-19 4.3km</title></polyline><polyline fill="none" points="19.214914301468525,58.56026783611742 19.930437608039938,58.61448723594367 20.113478453888092,60.566377615657984 20.296519299736246,81.53014310151048 20.546120453160256,81.74700024379126 22.359888834878802,82.0 27.318631749833003,81.89157156512374 28.500077209435403,80.66271260821668 28.533357363252435,79.56034858121711 28.034155056404416,78.80134095126414 27.43511228816351,79.1447018377512 27.784553902980406,79.75913590435812 27.20215121161891,80.89764200409991 24.489818677539006,81.09642823963077 26.869349673739634,81.02414235452306 27.68471344158752,80.57235508816666 27.86775428749388,79.86756528518163 27.485032518859953,78.81941258886945 27.351911903650034,78.90977075700357 27.85111421055626,79.8494937250507 27.651433287770487,80.5542835801316 27.085670673288405,80.95185644799494 26.203746597864665,81.02414235452306 26.90262982749846,81.1506426394626 27.551592826435808,80.80728457089572 27.86775428749388,80.40971146784432 27.85111421055626,79.5422769983852 27.28535159607418,78.38569291702879 27.71799359540455,78.09654604150273 28.61655774776591,79.65070647542598 28.300396286707837,81.02414235452306 26.852709596802015,81.81928591514588 20.928842221794184,82.0 20.49620022252202,81.6566431245592 19.963717761798762,58.86751094266947 19.930437608039938,58.65063349583943 18.399550533562433,58.54219470017415 18.283069995290134,58.0 18.05010891886195,58.41568271110009 19.996997915615793,58.75907224333787 20.08019830012927,64.41589349390415" stroke="#ffc900" stroke-linecap="round" stroke-linejoin="round" stroke-width="0.5"><title>2022-08-07 6.0km</title></polyline><polyline fill="none" points="48.82449600176187,58.147926933466806 50.237544790667016,58.0 50.44184100115672,59.27586692239856 50.714235948515125,81.64870690563112 50.93555684312014,81.94453270213853 57.813529261853546,81.94453270213853 59.00525715621188,80.90914088349382 59.1584793140064,79.44849156425335 58.56261536688544,78.6904296939465 58.20509699854301,77.65502440197452 58.37534384056926,78.50553620624123 59.17550399823813,79.55942725496425 58.732862208853476,80.76122741658764 53.94892594742123,81.27892416795657 53.47223478968954,80.76122741658764 54.08512342098402,81.16798924007162 57.983776103938,80.89065170491813 58.25617105117999,80.61331386223901 58.37534384056926,79.85525552293984 57.94972673553275,78.81985505396733 58.42641789326444,80.16957267423277 57.6432824198273,81.02007592626614 54.408592420921195,81.16798924007162 51.31009989569429,82.0 50.93555684312014,81.79661984764971 50.714235948515125,80.87216252497456 50.61208784324117,75.06649241523701 50.83340873790439,73.95711336062232 50.61208784324117,71.18364418947021 50.81638405373087,68.52108484061318 50.407791632809676,66.70904906830401 50.407791632809676,58.36981716955779" stroke="#ffdf00" stroke-linecap="round" stroke-linejoin="round" stroke-width="0.5"><title>2022-08-06 5.2km</title></polyline><polyline fill="none" points="79.682779265102,58.128446546630585 81.60875609144568,58.23854353369097 81.98043582990067,73.26632373718894 81.89596316206735,81.4128717372223 82.90963517595083,81.79817481632927 87.35289750341326,81.61469723422488 87.97799524531001,82.0 89.53229233319871,81.59634946857113 90.02223380660871,80.93582900091133 89.2619797962252,81.4862628460105 87.28531936911168,81.74313155595155 84.04156892478932,81.43121951645298 83.04479144443758,81.87156581120507 81.99733036343241,81.50461061984242 81.98043582990067,68.73423192481278 81.60875609144568,66.51402718135796 81.67633422574727,59.321161303363624 81.59186155791394,58.22019403925515 81.01744741672883,58.128446546630585 79.31109952676343,58.03669902012916 81.2708654201706,58.0 81.52428342367057,58.27524251853174 81.7270178264589,67.83514314153581 81.65943969215732,60.789110054131015" stroke="#ffe000" stroke-linecap="round" stroke-linejoin="round" stroke-width="0.5"><title>2022-07-30 5.2km</title></polyline><polyline fill="none" points="110.3659526790725,58.0 111.30158944608411,58.073906541612814 111.48871679947479,58.40648570828489 111.86297150643077,81.77830154295953 114.38068498874782,82.0 118.93978778104065,81.90762566681951 120.04554032388842,80.96540551747603 120.30071398761356,79.87538169666368 120.07956347905565,79.83843165333383 119.90944770321948,80.76218109791807 118.80369516031351,81.75982666261552 114.58482391969301,81.9445754041808 118.8887530482607,81.90762566681951 117.88506997085642,81.68592712773534 114.26160394557519,81.7413517809473 113.98941870429553,81.51965309439402 113.24090929055819,81.88915079605067 111.99906412704149,81.85220105049666 111.84595992881805,68.6423168470501 111.60779784264741,66.85015287609713" stroke="#fffe00" stroke-linecap="round" stroke-linejoin="round" stroke-width="0.5"><title>2022-07-17 4.1km</title></polyline><polyline fill="none" points="141.03090610913932,58.0368398384162 141.9975899035344,58.0 142.1502241868875,58.34997824471793 142.5572489424958,81.30010948196286 142.7098832258489,81.61321864099591 145.33858477213653,82.0 149.49362915189704,81.77898215409368 150.64686595927924,80.8764905815915 150.96909389080247,79.366191248424 150.7316627834225,79.45828293329396 150.4433535815333,80.71072646795074 149.54450724628987,81.59480046608951 148.66262027592165,81.48429138786742 148.0351237777504,81.85265479121881 144.52453526103636,81.48429138786742 143.54089210176608,81.96316370595014 142.7268425905495,81.63163681454898 142.50637084804475,79.34777290734928 142.5742083073128,68.75700126054289 142.23502101097256,67.20978996342456 142.20110228133854,59.381490209678304" stroke="#ffff00" stroke-linecap="round" stroke-linejoin="round" stroke-width="0.5"><title>2022-07-17 4.0km</title></polyline><polyline fill="none" points="171.71513140766183,58.0 172.6729413368157,58.03715347517573 172.80977132666158,58.98456523446657 172.70714883424807,66.2665127768123 173.0150163115468,69.42443459635251 173.1176388039603,81.72137538480456 174.10965623060474,81.96285006914695 180.0617607907625,81.92570013285149 181.25902320229216,81.10840014378482 181.6182019257103,79.86387005384313 180.7801182375988,81.47990046838822 179.15526210772805,82.0 175.40954113460612,81.907125162601 175.18719240103383,81.66565042467846 175.28981489338912,81.29415037474246 175.64899361686548,81.20127527644217 175.78582360671135,81.55420046742074 175.28981489338912,81.60992545227055 175.44374863203848,81.14555020096304 175.75161610927898,81.29415037474246 175.54637112445198,81.72137538480456 175.2042961497209,81.5727754637046 174.40041995915817,81.98142503525014 173.25446879380615,81.907125162601 172.9979125627433,80.8854996853479 173.1005350551568,68.73712558067928 172.80977132666158,67.65971847390756 172.7755638292292,60.74934231482621" stroke="#fffd00" stroke-linecap="round" stroke-linejoin="round" stroke-width="0.5"><title>2022-07-16 4.1km</title></polyline><polyline fill="none" points="18.43766237323871,84.66666666667152 19.062282461265568,84.75834412037511 19.14669058128493,85.1067181351682 19.754429045249708,85.27173723446322 19.788192293257453,85.49176252928737 19.70378417323809,92.14743538346374 20.159588021284435,100.50802739628125 20.108943149272818,108.09832071946585 20.54786537331529,108.40999446471687 21.898395293275826,108.39166072581429 22.320435893372633,108.07998695749848 22.658068373333663,106.83328796697606 22.337317517318297,106.33827339409618 22.2191461493494,105.23823747191636 22.252909397298936,101.14972785217105 22.404844013333786,100.45302442280808 22.961937605403364,100.28801542910514 26.84471112547908,100.28801542910514 26.659013261494692,102.54312883793318 27.216106853447855,104.48654345177056 28.22900429344736,106.46661060044426 27.655029077490326,107.65831005922519 26.523960269463714,108.31832575674343 22.91129273333354,108.40999446471687 22.100974781322293,108.1533219970297 21.17248546134215,108.66666666667152 20.277759389253333,108.37332698557293 20.05829827731941,104.7432197148446 20.159588021284435,96.71279359816981 19.805073917261325,91.61572153077577" stroke="#fff700" stroke-linecap="round" stroke-linejoin="round" stroke-width="0.5"><title>2022-07-16 4.3km</title></polyline><polyline fill="none" points="50.20190188696142,85.25598095146415 50.728045348485466,85.29169692250434 50.77737129799789,89.95258580094378 50.77737129799789,85.45241872667975 49.06740504800109,85.16669100080617 49.034521081717685,85.34527086913295 48.90298521623481,84.8273888870317 49.166056947025936,84.72024075202353 48.853659266780596,85.13097501125594 49.166056947025936,84.72024075202353 48.96875314891804,84.66666666667152 49.18249893019674,85.29169692250434 50.793813281168696,85.34527086913295 50.77737129799789,94.29195317998528 51.10621096153045,97.91696161379514 51.155536910984665,108.02384061295015 52.81617721146904,108.23811615425802 53.145016874943394,108.0416969152866 53.5889504206134,106.8631781268341 53.26011075725546,106.29177300787705 53.17790084134322,101.89905100995384 53.210784807626624,100.82764327975747 53.72048628603807,100.41693572283839 57.6501202644431,100.47050631334423 57.79809811303858,101.34549094288377 57.55146836536005,102.70260368811432 58.11049579328392,104.48826673359144 59.146340733219404,106.34534229520068 58.75173313706182,107.30958743544761 57.60079431493068,108.23811615425802 53.70404430286726,108.32739757375384 53.671160336525645,107.77385224105092 53.34232067305129,107.64885795810551 53.062806959147565,108.13097840733826 53.22722679079743,108.39882268554356 57.107534819690045,108.4702477762039 58.011843894200865,108.07740951604501 57.53502638224745,108.36311013226805 56.64715929090744,108.23811615425802 55.62775633408455,108.45239150553243 53.062806959147565,108.16669099494175 51.977636069699656,108.66666666667152 51.204862860555295,108.1845472867426 51.12265294464305,95.75624885276193 50.76092931488529,93.91694920128793 50.826697247626726,89.48828672984382" stroke="#ffc600" stroke-linecap="round" stroke-linejoin="round" stroke-width="0.5"><title>2022-07-09 6.1km</title></polyline><polyline fill="none" points="72.66666666668607,99.35315293741587 74.49834465933964,100.76159439168987 74.98762850672938,101.47306984463648 77.30859034677269,103.18640434656118 77.93587733060122,104.82712065913074 78.23697508277837,105.03039393402287 80.16901899286313,103.69459283034666 90.13033629558049,94.69212905518361 96.66666666668607,88.30293939930561 92.67712144978577,92.2090915915469 83.35563687060494,100.77611433435231 80.34465934836771,103.46227831930446 78.17424638441298,105.00135491249966" stroke="#fff400" stroke-linecap="round" stroke-linejoin="round" stroke-width="0.5"><title>2022-06-13 4.4km</title></polyline><polyline fill="none" points="126.49294577597175,90.22745855562607 127.21502634709759,90.92151117104004 127.33333333332848,91.3322721177683 122.65000849905482,94.06114339458145 120.28794832566928,95.67100782051784 115.8657147713675,98.3476970006086 113.53629100798571,99.59865404901939 111.26806051335006,100.56163200111769 108.4001359850372,101.52931032752167 106.07479177290224,102.23263461022725 104.23083460819907,102.70937857349418 103.33333333332848,103.10587477770605 104.22675505695224,102.70465836019866 108.88560258373036,101.37825942840209 111.21502634709759,100.58051372223053 113.07938126804947,99.81107737195998 116.20431752508739,98.15414969345511 119.9003909569874,95.92121634268187 121.34047254802135,95.00535217032302 122.68672446030541,94.03753792923817 124.88968213496264,92.78643109552286" stroke="red" stroke-linecap="round" stroke-linejoin="round" stroke-width="0.5"><title>2022-06-11 12.4km</title></polyline><polyline fill="none" points="134.0,105.53391488415218 135.35629139072262,106.8092934324377 135.96026490064105,108.09692155358789 137.89933774829842,106.84608299811953 147.25562913907925,98.3719232597432 151.8119205297553,93.87093345080211 154.79999999998836,89.63960451076127 156.95099337748252,86.97808384237578 158.0,85.23641177974059 157.0039735098835,86.91675778874924 154.25960264902096,90.3387038817018 151.4834437086247,94.22660360993905 144.17218543041963,101.10677505922649" stroke="#ffe100" stroke-linecap="round" stroke-linejoin="round" stroke-width="0.5"><title>2022-06-07 5.1km</title></polyline><polyline fill="none" points="184.1521292217658,86.99447605878231 184.12041116016917,87.22697139171214 184.9767988253152,87.31262745375716 185.09309838479385,86.70079710141727 184.8393538914388,86.43159076075972 184.02525697514648,86.15014712425909 183.7820851689321,86.23580395291356 183.65521292225458,86.57843065758789 184.07812041119905,86.97000283974194 184.14155653456692,87.42275658679137 184.91336270194734,87.31262745375716 185.09309838479385,86.97000283974194 185.0190895742271,86.60290395634365 184.18384728342062,86.1868572011299 183.81380323064514,86.29698736456339 183.71864904556423,86.66408718130697 184.06754772394197,86.8354000458421 184.13098384730984,87.08013228633354 183.88781204115367,87.55735872360674 187.17591776803602,90.32278748170938 188.34948604996316,91.7177141567372 188.66666666668607,92.50082379954983 188.53979442006676,92.6966004139831 176.68781204114202,99.4996399432057 170.74596182093956,103.58617306024826 164.66666666668607,107.18318620906939 171.15829662262695,103.36594427359523 176.63494860503124,99.57305194161017 184.8922173275496,94.78894308907184" stroke="#ffc500" stroke-linecap="round" stroke-linejoin="round" stroke-width="0.5"><title>2022-06-06 6.2km</title></polyline><polyline fill="none" points="11.33333333331393,131.8372808289132 12.610576110775582,133.30140820142697 13.036323703301605,134.37133764360624 14.836627808748744,133.20286165270954 25.200540631834883,123.84061963680142 30.431153911049478,118.81431270352914 31.246156445355155,117.95545768587908 35.33333333331393,112.29532902306528 33.3870586247067,114.67486405154341 31.063693191390485,118.13849280864815 29.518837641517166,119.43381137501274 25.29785436729435,123.6575920542382 20.115897955722176,128.17689465379226 17.537083966832142,130.78141013364075 14.155431660765316,133.5829693825508" stroke="#ffe100" stroke-linecap="round" stroke-linejoin="round" stroke-width="0.5"><title>2022-05-18 5.1km</title></polyline><polyline fill="none" points="65.82963620236842,116.06941789737903 53.46761313226307,123.2657790641315 48.708074534195475,126.56807576047868 42.0,130.5972487692925 46.961845607846044,127.77560955292574 51.06122448988026,125.1017685556435 53.66992014204152,123.14255729709112 54.14906832302222,123.00701320861117 66.0,116.06941789737903" stroke="#ffe300" stroke-linecap="round" stroke-linejoin="round" stroke-width="0.5"><title>2022-05-10 5.1km</title></polyline><polyline fill="none" points="74.10896605014568,135.2430750772619 77.22850824525813,132.6932490083782 87.9909288182971,122.67389584743069 91.29569383122725,118.02496967382467 93.33314482739661,115.47474779288314 93.95705326646566,114.3914499556704 93.88881328090793,114.16576157429517 94.20076750044245,113.62410758501937 93.93755612766836,114.12062384289311 94.31775033270242,114.49300957740343 95.4388358090655,113.36456411088147 95.55581864138367,113.04859732249315 95.34135011548642,112.8116216404087 93.68409332429292,111.79600583828142 93.28440198063618,111.33333333333576 93.07968202402117,111.33333333333576 89.75541987241013,120.08992938224401 88.14690592803527,122.34667198199895 85.51479220093461,124.98700253858988 80.6210103823687,129.5002425794737 79.36344493500656,130.48184797826252 77.84266811487032,132.03885941777844 75.42502291372512,134.2163822469447 73.77751469193026,135.33333333333576" stroke="#ffb700" stroke-linecap="round" stroke-linejoin="round" stroke-width="0.5"><title>2022-05-08 6.7km</title></polyline><polyline fill="none" points="127.25914477068,116.12144509765494 113.2869654817041,124.20639362825023 108.5883565171971,127.55471419697278 103.33333333331393,130.7312523995206 107.56208140129456,128.35600987295038 113.2869654817041,124.23501209019742 114.56053580628941,123.73418816550111 127.33333333331393,115.93541426715092" stroke="#fff600" stroke-linecap="round" stroke-linejoin="round" stroke-width="0.5"><title>2022-05-05 4.4km</title></polyline><polyline fill="none" points="142.07145910244435,111.33333333332848 143.0874610587489,111.370116714912 143.4769284753129,112.12417483837635 143.91719598969212,134.81841511730454 145.10253160534194,135.24138373002643 145.9830666341004,134.91036487692327 146.3556006847648,133.51272486268135 146.08466682967264,132.86907221506408 145.94919990218477,127.92208626837237 146.4064007825218,127.03934237088833 150.53814207128016,127.05773290072102 150.47040860750712,129.17263475974323 150.84294265817152,130.57029916196188 152.01134490786353,132.59322057041572 152.09601173753617,133.16331363207428 151.63881085719913,134.21154585145996 150.6058755350532,134.91036487692327 146.13546692748787,135.00231460253417 145.94919990218477,134.6712954312825 146.1693336594035,134.3586658094573 146.52493434405187,134.70807536091888 146.25400048913434,134.9655347163789 145.88146643846994,134.8735849771474 144.72999755467754,135.33333333332848 143.98492945346516,135.07587435853202 143.91719598969212,122.18419492513931 143.62932876875857,120.9152203083504 143.59546203690115,118.50598981141229 142.86732730158838,118.19333986776473 139.90398826246383,118.1013839271618 139.90398826246383,117.9358631484356 139.92092162847985,117.73355982473004 140.6151896319352,117.62321248790249 143.40919501159806,117.4944738663471 143.66319550061598,116.29904062609421 143.57852867094334,114.27598666412814" stroke="#ffe300" stroke-linecap="round" stroke-linejoin="round" stroke-width="0.5"><title>2022-05-03 5.1km</title></polyline><polyline fill="none" points="172.86856546340277,111.33333333332848 173.94651879824232,111.47968185396167 174.23285015282454,111.73579155662446 174.21600713190855,120.38848494221747 174.65392567421077,134.9857889731793 176.28769869741518,135.11383168898465 176.70877421885962,134.7479951823334 177.14669276110362,133.5590227998473 176.75930328137474,132.4249207413959 176.70877421885962,127.88846051742439 176.82667536486406,127.15676559363783 177.1635357820196,126.9555491101346 180.0773783902987,127.01042634915211 180.7510992246098,126.80920974665787 181.22270380856935,127.0470111684117 181.4079770380631,128.07138391021 181.15533172525465,129.07746015276643 181.69430839264533,130.906679202104 182.58698849810753,132.53467278067546 182.70488964405376,133.24805984951672 182.4522443312453,133.94315296359127 181.4921921424102,134.71141150195035 179.87526214006357,135.07724806269107 177.82041359541472,134.8394543597242 177.33196599059738,135.09553987650725 176.7256172397174,134.78457885736134 176.82667536486406,134.38215813475836 177.14669276110362,134.34557440028584 177.19722182367695,134.8394543597242 176.74246026051696,134.85774619111908 176.99510557344183,134.25411504031217 177.3151229697396,134.49190930584155 177.0119485942996,134.87603802118974 176.65824515628628,134.7479951823334 175.27711744594853,135.33333333332848 174.73814077855786,135.05895624746336 174.67076869512675,122.19947548027267 174.38443734054454,120.79092842996761 174.1823210902512,120.49824232200626 173.2896409848472,120.37019204086391 170.62844368931837,120.37019204086391 170.6958157728077,119.98604079968936 171.03267618990503,119.87628319261421 174.1823210902512,119.65676783234812 174.38443734054454,117.66282772098202" stroke="#ffe400" stroke-linecap="round" stroke-linejoin="round" stroke-width="0.5"><title>2022-05-02 5.0km</title></polyline><polyline fill="none" points="18.568919566925615,138.1475858423364 19.60503093857551,138.0 19.89378328807652,138.23982694950246 19.80885612644488,143.6635440668615 20.26746279920917,161.77864237163158 21.779166275868192,161.94466061130515 24.072199639398605,161.74174941450474 24.700660635367967,162.0 26.025524356518872,162.0 27.52024240087485,161.6679634838365 28.42047031392576,160.74563750930247 26.738912514061667,161.64951699772791 23.953301613219082,161.6126240214944 22.900204809149727,161.87087474066357 22.22078751627123,161.5203915569873 21.014821821299847,161.92621414571477 20.26746279920917,161.72330293383857 19.927754152740818,138.29517159737588 19.723928964871448,138.05534470113344 18.246196352760307,138.03689646875137" stroke="#fffe00" stroke-linecap="round" stroke-linejoin="round" stroke-width="0.5"><title>2022-04-30 4.1km</title></polyline><polyline fill="none" points="49.51905636006268,138.0 51.42729091405636,138.07402050150267 51.47840433951933,138.27757676773763 51.325064062839374,140.57219958388305 51.597668999107555,141.46043502326938 51.359139679931104,145.69801485222706 51.597668999107555,146.60473658512637 51.42729091405636,147.54846387836733 51.83619831834221,152.06350206721982 51.64878242468694,161.48190557396447 51.8873117439216,161.8149663995864 55.38006248988677,162.0 59.24764502327889,161.66693942066922 56.11268825613661,161.77795966304257 53.81258410634473,161.5559191290813 52.330294765357394,161.98149664611265 51.853236126946285,161.7964630319766 51.69989585026633,159.87210533536563 51.83619831834221,151.82294880862173 51.75100927578751,148.3996658346441 51.42729091405636,147.36341959163838 51.56359338213224,143.03334420990723 51.34210187132703,140.072565763272 51.51247995661106,139.1473153121915 51.325064062839374,138.1110307440249 48.752354976779316,138.0" stroke="#ffff00" stroke-linecap="round" stroke-linejoin="round" stroke-width="0.5"><title>2022-04-17 4.0km</title></polyline><polyline fill="none" points="78.85048910335172,138.0 81.83578378183302,138.0745377006824 81.92156811169116,147.54064643262245 82.28186229703715,152.62760124748456 82.14460736932233,161.45965248307039 82.4877446886967,161.9441020347149 84.16911755356705,161.83230606702273 84.49509800696978,161.47828517534072 84.78676472842926,160.192626175849 84.42647054308327,159.13055509893456 84.39215681114001,153.8946655914333 84.8725490582292,153.6337999238458 88.7156870351755,153.59653337784403 89.09313808649313,154.04373156593647 88.90441256086342,155.79525016118714 89.16176555037964,157.11819762541563 90.46568736399058,159.50321212690324 90.48284423002042,160.3044228709623 90.10539317858638,161.01246745492972 88.99019689066336,161.72051004966488 85.67892175877932,161.5714486160723 85.19852951169014,161.7577753942751 84.34068621322513,161.44101978935942 83.17401932744542,162.0 82.60784275043989,161.86957139507285 82.29901916306699,161.40375439792115 82.14460736932233,159.93176702778146 82.09313677140744,150.37295629127766" stroke="#fffd00" stroke-linecap="round" stroke-linejoin="round" stroke-width="0.5"><title>2022-04-08 4.1km</title></polyline><polyline fill="none" points="103.45085237576859,141.45728865708224 103.33333333331393,141.68683030360262 103.7642364889034,141.600752220329 103.97315923095448,140.4530405235273 104.69133115699515,139.11881650851865 106.49328980775317,139.87918194010854 107.407326804474,139.92222139713704 109.23540079791564,140.62519774300745 109.95357272395631,138.83188532500935 109.50961189699592,139.8935284269537 109.11788175546099,139.90787491262017 109.18317011237377,140.62519774300745 109.37903518311214,140.82604762498522 114.23648893728387,143.15015144234349 114.14508523751283,143.42272956030502 117.14834965544287,144.8286522678245 117.40950308303582,145.47422535521036 118.2190787087311,145.4455332669604 119.34203844756121,145.91895213985117 119.407326804474,146.17718009297096 120.19078708742745,146.26325599534903 121.67936162499245,146.9231698840449 122.73703300685156,147.42527666261594 123.25933986209566,147.94172789315053 123.71635836054338,147.9560737395659 124.85237577080261,148.5012150600087 124.96989481319906,148.84551399375778 125.80558578163618,149.36196116395877 122.04497642366914,154.9710561689135 120.12549873051466,157.36670352278452 117.44867609720677,159.89142324465502 115.55531374679413,161.16811467499065 115.47696771851042,161.0677010690706 118.32354007981485,158.87293260173465 120.25607544428203,156.8933146476047 121.96663039532723,154.71284078535973 126.88937250635354,147.38223899343575 127.33333333331393,147.69784832940786 127.0852375770919,147.55438960868923 126.05368153791642,148.68771039725107" stroke="#ffdc00" stroke-linecap="round" stroke-linejoin="round" stroke-width="0.5"><title>2022-03-19 5.3km</title></polyline><polyline fill="none" points="138.19880715711042,143.55165815458167 138.38966202782467,144.4429080101545 142.9701789263636,147.01179791631876 144.44930417486466,146.64481425646227 145.7375745526515,144.4429080101545 146.07157057640143,142.2934210145031 143.2087475147564,140.09150024520932 139.7733598407358,139.35752502235118 134.0,151.36316003877437 140.4413518884685,156.2387485653162 143.82902584481053,156.44845048966818 154.37375745526515,160.6424749775906 155.28031809115782,160.3803492281586 157.61829025833867,150.15736377082067 153.70576540753245,146.48753548256354 150.79522862797603,145.543862052029 142.25447316095233,140.0390734706889 139.82107355864719,139.7769395354553 134.33399602374993,151.78256691969 139.05765407555737,155.19023794459645 143.44731610338204,156.3960250147502 142.5884691849351,158.91244310658658 145.16500994050875,160.4327743863687 147.3121272365097,157.86393673467683 155.18489065603353,160.27549889910733 157.85685884673148,150.62919735553442 154.80318091460504,147.32635517668677 150.36580516886897,145.49143571068998 142.39761431398802,139.9342199091334 140.20278330007568,139.6196591242333 138.5328031810932,141.5594482413726 134.19085487048142,151.46801178401802 136.57654075557366,153.61746888939524 143.63817097409628,156.9202795753372 142.73161033797078,158.96486838138662 145.54671968193725,160.48519954050425 146.50099403574131,158.33576480817283 144.06759443343617,157.0251304374542 142.8270377733279,158.6503166698385 145.35586481099017,160.32792406575754 146.97813121252693,157.65423526027007 155.2326043737121,160.32792406575754 157.76143141137436,152.0446960849804 158.0,150.31464166991645 157.37972166994587,149.42339974618517 146.78727634204552,142.92253988457378 145.02186878724024,144.49533443484688 139.20079522859305,142.03128797508543" stroke="#ffdf00" stroke-linecap="round" stroke-linejoin="round" stroke-width="0.5"><title>2022-03-18 5.2km</title></polyline><polyline fill="none" points="173.89743589772843,145.44898297137115 175.6015779094305,144.56476572674 176.4063116372563,142.22418490162818 171.38856015796773,139.62352972390363 170.3944773178082,139.72755612933543 168.59566074959002,142.27619789988967 164.66666666674428,151.9505436771433 169.40039447764866,155.1752938289428 173.32938856026158,156.47559181501856 173.94477317575365,157.3077811706462 173.28205128223635,159.02416837541386 175.17554240650497,160.16842401167378 176.83234714041464,158.45203980716178 173.9921104540117,157.51582834421424 173.04536489164457,158.86813336098567 175.83826430002227,160.27244715223787 176.87968441843987,158.40002809435828 174.03944773203693,157.15174574707635 173.18737672595307,158.92014503653627 175.5069033531472,160.16842401167378 176.26429980271496,159.5442848217208 176.73767258413136,158.0359459889587 174.4181459567044,157.0477221106412 174.65483234729618,156.4235799451708 185.11637080879882,160.37647027609637 186.11045364895836,158.29600465629483 188.38264299812727,150.54621203267016 184.50098619353957,147.11338866193546 181.32938856026158,145.91709749953588 172.571992110461,140.1436615861021 170.6785009864252,139.83158251846908 168.9270216964651,141.60002860141685 164.7613412232604,151.5864579845802 169.8737672585994,155.27931776281912 173.89743589772843,156.37156807113206 173.14003944816068,158.60807492083404 174.4181459567044,159.59629644354573 175.79092702199705,159.90836608823156 176.45364891528152,158.0359459889587 173.9921104540117,157.3077811706462 173.09270216990262,158.55606322042877 174.70216962555423,159.80434288980905 176.027613412356,159.90836608823156 176.5483234715648,158.08795773069141 174.22879684437066,156.94369845779147 173.04536489164457,158.55606322042877 174.22879684437066,159.59629644354573 175.743589743739,160.2204355840804 176.87968441843987,158.29600465629483 174.1814595661126,156.83967478823615 173.28205128223635,158.66008661716478 175.69625246571377,160.27244715223787 176.64299802784808,157.93192249303684 174.1814595661126,156.94369845779147 173.04536489164457,158.71209830924636 175.0808678502217,160.32445871614618 176.64299802784808,158.55606322042877 174.22879684437066,156.89168662508018 173.32938856026158,158.66008661716478 174.22879684437066,159.44026156549808 175.743589743739,160.16842401167378 176.78500986215658,158.45203980716178 174.03944773203693,157.09973393095424 172.90335305733606,158.86813336098567 175.27021696278825,160.01238926994847 177.63708086800762,157.77588721824577 185.06903353054076,160.32445871614618 188.66666666674428,150.39017499721376 186.77317554247566,149.60998926247703 183.743589743739,146.64527498936513 175.27021696278825,141.86009379883762" stroke="#ffe400" stroke-linecap="round" stroke-linejoin="round" stroke-width="0.5"><title>2022-03-14 5.0km</title></polyline><polyline fill="none" points="22.87824351293966,168.45559499622323 17.177644710522145,166.03433696046704 11.381237524794415,177.8773626885377 16.075848303269595,181.82499087805627 20.09980039903894,182.71978333045263 21.105788423214108,183.9830176763353 20.147704590810463,185.8778646782739 21.536926147760823,186.66738266282482 22.83033932116814,186.8779206330073 23.740518962033093,184.93044185475446 20.91417165659368,183.82511351484573 20.09980039903894,185.82523011253215 22.54291417147033,187.0884585364256 23.740518962033093,185.08834575279616 21.44111776421778,183.9303829599521 20.435129740508273,185.03571112436475 20.38722554873675,185.98313379718456 22.59081836324185,187.19372746313456 23.740518962033093,184.7199032655335 21.297405189601704,183.7198440528009 20.09980039903894,185.5620572210173 22.686626746319234,187.14109300193377 23.40518962056376,184.7725379190524 21.105788423214108,183.82511351484573 20.147704590810463,185.08834575279616 20.243512973887846,185.98313379718456 22.399201596854255,187.2989963728469 23.596806387184188,184.8778072137502 20.91417165659368,183.82511351484573 20.09980039903894,185.66732639016118 22.30339321354404,187.0358240669011 23.6926147704944,185.03571112436475 20.962075848132372,183.9303829599521 20.09980039903894,185.71996096841758 22.351297405315563,187.14109300193377 23.6926147704944,184.8778072137502 21.297405189601704,183.7198440528009 20.33932135719806,184.98307649162598 20.38722554873675,185.98313379718456 22.49500998016447,187.2463619199698 23.64471057895571,184.82517256849678 20.770459081744775,183.9830176763353 20.09980039903894,185.98313379718456 22.447105788392946,187.14109300193377 23.93213572842069,184.2461911950959 32.315369261428714,187.0884585364256 34.806387225631624,176.98256369499722 20.435129740508273,167.13969498767983 17.129740518983454,166.2975176104228 11.429141716565937,177.7720922814915 15.596806387184188,181.87762576172827 21.72854291391559,183.4566703250166 29.584830339299515,186.72001716162777 32.554890219355,187.0358240669011 35.33333333325572,176.87729314574972 22.447105788392946,168.2976871332503 17.225548902060837,166.1922453629668 11.333333333255723,178.35107931355014 16.98602794413455,182.509244038607 32.17165668657981,187.19372746313456 35.18962075840682,177.4562809598865 34.806387225631624,176.508846091514 30.638722554780543,173.66653335560113" stroke="#ffca00" stroke-linecap="round" stroke-linejoin="round" stroke-width="0.5"><title>2022-03-13 6.0km</title></polyline><polyline fill="none" points="53.85425101197325,168.68622771208175 47.68421052605845,166.12389716459438 42.0,178.50840427045478 48.412955465493724,183.31267746072263 53.46558704436757,184.0600057580741 62.84210526291281,187.6898742344929 63.716599190142006,187.26283190224785 66.0,177.28064005431952 63.03643724694848,175.7859675452928 61.04453441267833,172.90337545791408 54.63157894718461,170.0207710012328 48.607287449296564,165.64345909876283 47.7327935223002,166.23066113243112 42.19433198357001,178.5617852723808 49.23886639694683,183.09915493731387 51.81376518215984,183.31267746072263 63.522267206339166,187.63649395783432 65.85425101197325,177.81445085874293 65.51417004037648,176.26639835734386 49.09311740868725,166.33742508350406 48.07287449389696,166.33742508350406 47.14979757065885,167.67197303904686 42.14574898779392,178.50840427045478 47.781376518076286,182.67210968694417 63.66801619413309,187.42297280870844 65.5627530363854,180.75040270137833 65.6599190281704,176.85359110537684 61.33603238849901,174.02438496169634 61.04453441267833,173.01013834832702 49.91902834014036,166.87124458386097 49.33603238873184,165.96375118085416 47.87854250986129,166.07051517418586 42.097165991785005,178.2414991967962 48.995951416902244,183.1525355745107 55.16599190281704,184.64719169412274" stroke="#ffe200" stroke-linecap="round" stroke-linejoin="round" stroke-width="0.5"><title>2022-03-12 5.1km</title></polyline><polyline fill="none" points="83.51925630820915,168.49822035431862 81.94156706519425,167.07987947785296 79.35989375854842,165.9241920693894 78.4515272246208,166.23937974474393 72.90571049135178,178.05880909221014 77.25630810135044,181.57833166600903 82.27622841973789,183.36435088032158 81.75033200555481,185.8332518491079 83.61487383814529,186.93637483380735 84.42762284213677,186.72625631204573 85.24037184612826,184.88771639711922 82.75431606918573,183.7320601195679 81.51128818071447,185.8332518491079 82.99335989379324,186.6211970259901 84.33200531243347,186.72625631204573 85.19256308116019,184.7301270236494 82.61088977428153,183.7320601195679 81.65471447561868,185.67566270101815 83.90172642795369,187.04143406980438 85.28818061109632,184.88771639711922 82.75431606918573,183.7320601195679 81.70252324058674,185.99084095965372 83.997343957657,187.09396368142916 84.85790172638372,185.78072213719133 85.28818061109632,184.83518661017297 82.8021248341538,183.7320601195679 81.60690571065061,185.41301403735997 84.0929614873603,187.19902289216407 85.14475431619212,184.83518661017297 82.84993359912187,183.78458999405848 81.65471447561868,185.3604842921486 84.04515272262506,187.19902289216407 85.14475431619212,184.88771639711922 82.84993359912187,183.78458999405848 81.84594953549094,185.15036526945187 81.98937583016232,185.99084095965372 83.90172642795369,187.04143406980438 85.33598937583156,184.9927759586135 82.94555112882517,183.83711986453272 81.89375830022618,184.94024618004914 81.84594953549094,185.8857815566589 83.66268260311335,186.93637483380735 85.19256308116019,184.78265681903576 82.8021248341538,183.83711986453272 81.98937583016232,185.15036526945187 82.03718459489755,185.99084095965372 83.997343957657,187.04143406980438 85.24037184612826,184.6775972241303 82.61088977428153,183.94217959296657 82.08499336009845,184.7301270236494 81.60690571065061,185.72819242120022 83.997343957657,187.09396368142916 85.33598937583156,184.88771639711922 82.8021248341538,183.88964973087423 81.79814077029005,185.25542478909483 81.98937583016232,186.14843003248097 83.75830013304949,187.04143406980438 85.28818061109632,185.09783550328575 84.95351925655268,184.6775972241303 82.61088977428153,184.04723930475302 81.79814077029005,185.3079545428045 81.65471447561868,185.8332518491079 83.997343957657,187.19902289216407 85.33598937583156,184.88771639711922 82.84993359912187,183.7320601195679 81.98937583016232,184.3098885107902 81.79814077029005,185.72819242120022 84.18857901729643,187.19902289216407 85.19256308116019,185.25542478909483 84.3798140771687,184.41494816413615 82.41965471464209,184.04723930475302 81.60690571065061,185.4655437784968 84.0929614873603,187.09396368142916 84.90571049135178,184.62506742053665 82.41965471464209,183.62700035760645 81.65471447561868,185.8332518491079 84.52324037184007,187.09396368142916 85.28818061109632,185.3079545428045 82.5630810095463,183.88964973087423 81.60690571065061,185.72819242120022 83.94953519268893,187.19902289216407 85.28818061109632,184.88771639711922 82.89774236408994,183.83711986453272 81.70252324058674,185.8332518491079 84.1407702525612,187.09396368142916 86.05312085011974,184.5200078007183 93.60690571065061,187.304082086368 96.47543160710484,177.27085371001158 93.22443559090607,173.96143084950745 81.94156706519425,167.342535425385 78.64276228426024,166.4495047783712 72.81009296164848,178.11133941757726 77.35192563105375,181.73592179076513 93.41567065101117,187.304082086368 96.66666666674428,177.16579292149981 93.3200531208422,174.06649214733625 82.08499336009845,167.342535425385 78.64276228426024,166.34444226982305 72.81009296164848,177.84868774877395 77.30411686608568,181.57833166600903 93.70252324058674,187.40914126392454 96.57104913704097,177.16579292149981 92.26826029247604,173.5411854913109 89.11288180598058,172.28044781374047 81.94156706519425,167.23747305892175 79.35989375854842,166.34444226982305 78.40371845965274,166.65962974494323 72.66666666674428,178.26893036882393 78.21248339978047,182.1561619398417 82.13280212506652,183.20676114363596 81.41567065101117,185.51807351532625 83.0889774239622,186.7787859486416 84.1407702525612,187.14649328880478 84.90571049135178,184.88771639711922 82.5152722443454,183.83711986453272 81.41567065101117,185.62313297658693 82.18061089003459,186.35854873806238 84.0929614873603,186.88384520960972 85.19256308116019,184.94024618004914 82.8021248341538,183.88964973087423 81.51128818071447,185.4655437784968 84.04515272262506,187.25155249144882 85.04913678625599,184.9927759586135 82.18061089003459,184.20482884085504 81.41567065101117,185.62313297658693 83.66268260311335,187.09396368142916 84.52324037184007,186.88384520960972 85.19256308116019,185.3079545428045 82.5152722443454,183.78458999405848 81.41567065101117,185.62313297658693 83.23240371863358,186.88384520960972 84.1407702525612,187.09396368142916 85.33598937583156,185.25542478909483 82.5152722443454,183.83711986453272 81.41567065101117,185.72819242120022 83.80610889778472,187.14649328880478 85.00132802152075,185.72819242120022 84.81009296164848,184.88771639711922 82.5630810095463,183.83711986453272 81.60690571065061,185.15036526945187 81.70252324058674,185.99084095965372 83.997343957657,187.35661167715443 85.19256308116019,184.9927759586135 82.70650730421767,183.94217959296657 81.41567065101117,185.62313297658693 84.28419654723257,187.09396368142916 85.28818061109632,185.25542478909483 82.46746347937733,183.99470945086796 81.60690571065061,185.4655437784968 83.90172642795369,187.09396368142916 85.28818061109632,185.15036526945187 82.46746347937733,183.88964973087423 81.32005312107503,185.78072213719133 83.0889774239622,186.93637483380735 84.1407702525612,186.98890445387224 85.19256308116019,185.09783550328575 82.65869853948243,183.94217959296657 82.99335989379324,183.15423122304492 90.97742363903672,186.6211970259901 93.79814077029005,187.09396368142916 96.52324037184007,177.95374842878664 93.65471447561868,174.53926778095774 81.0810092962347,166.76469220319996 78.73837981419638,166.18684847594704 72.90571049135178,177.79615740239387 79.35989375854842,182.99664143647533 82.03718459489755,183.0491713694646 81.46347941597924,185.4655437784968 82.18061089003459,186.25348939362448 84.18857901729643,187.25155249144882 85.19256308116019,185.25542478909483 82.27622841973789,184.41494816413615 81.46347941597924,185.78072213719133 83.61487383814529,187.14649328880478 84.0929614873603,187.35661167715443 85.09694555122405,185.57060324808117 82.5152722443454,184.04723930475302 81.41567065101117,185.67566270101815 84.0929614873603,187.25155249144882 85.67065073060803,184.57253761263564 89.9256308102049,185.62313297658693 89.63877822062932,186.0433706547483 89.83001328026876,185.4655437784968 93.75033200555481,187.35661167715443 95.85391766275279,181.0530309790047 96.2363877822645,177.1132625208702 92.55511288181879,173.5411854913109 87.1527224436868,170.6519914214732" stroke="red" stroke-linecap="round" stroke-linejoin="round" stroke-width="0.5"><title>2022-03-11 13.4km</title></polyline><polyline fill="none" points="115.02685003262013,168.74007912405068 111.44335297960788,166.56411298830062 109.03863785183057,166.14964242477436 103.75769482646137,177.9619502321002 108.47282252786681,181.43307017581537 124.36280288151465,186.924655029492 126.9089718402829,176.61494348599808 123.18402095604688,173.6100722546107 110.35887360828929,166.14964242477436 109.41584806796163,166.14964242477436 108.89718402083963,167.0822008221876 103.94629993429407,178.42822114977753 110.54747871658765,182.67645192908822 115.82842174195684,183.86802388430806 124.12704649637453,187.18369090859778 126.81466928636655,179.20533860486466 126.76751800905913,176.66675148921786 124.26850032736547,174.2317708870978 110.641781270504,166.2532600904815 109.65160445310175,166.2532600904815 103.33333333325572,178.22098967205966 109.13294040597975,182.05476134893252 112.7635887360666,182.78006696811644 112.38637851993553,185.57766679913038 114.55533726257272,186.87284784123767 115.87557301903144,184.64513485593488 113.04649639804848,183.71260157891084 112.2449246889446,185.57766679913038 114.55533726257272,186.87284784123767 115.87557301903144,184.74874958209693 113.47085789125413,183.6089866880211 112.2449246889446,185.1632083224249 112.71643745875917,185.9921250125626 114.50818598549813,186.924655029492 115.73411918780766,185.21501564636128 115.82842174195684,184.59332748659654 113.42370661417954,183.5053717806004 112.33922724286094,185.21501564636128 114.36673215450719,186.71742625214392 114.88539620162919,186.87284784123767 116.2056319580879,184.2824831843609 124.457105435431,187.13188374094898 127.33333333325572,177.5992948434432 121.34512115246616,172.6257148743025 115.82842174195684,169.36178240040317" stroke="#ffe200" stroke-linecap="round" stroke-linejoin="round" stroke-width="0.5"><title>2022-03-06 5.1km</title></polyline><polyline fill="none" points="144.79518072283827,168.48556444473797 140.7469879516866,165.7320015252917 139.68674698774703,165.94381446152693 134.14457831298932,177.59342227119487 134.43373493966646,178.59951521013863 138.9156626504846,182.1473045044695 155.63855421659537,187.28362270398065 157.85542168654501,176.9050420167041 154.81927710818127,175.6871367476415 152.65060240938328,173.0924615780823 146.43373493966646,170.07415326085174 141.95180722884834,166.4733465074678 139.6385542168282,166.36744013195857 134.0,178.28180181450443 141.37349397595972,183.36519796727225 144.12048192764632,183.41814980644267 155.39759036130272,187.49542879022192 155.73493975866586,187.07181655050954 157.85542168654501,176.79913729894906 141.18072289135307,166.10267411946552 140.07228915649466,165.99676768499194 139.15662650601007,167.21469066501595 134.3855421685148,177.0109467175207 134.33734939759597,178.44065853126813 137.80722891562618,181.61778491345467 141.13253012043424,183.15339056839002 145.37349397595972,183.73586075322237 155.54216867452487,187.54838030133396 157.9518072286155,177.06389906158438 154.57831325288862,173.9397035605507 141.85542168654501,166.6851592080784 139.4939759033732,166.579252866155 134.24096385552548,178.6524674280081 136.4578313252423,180.77055269258562 141.37349397595972,182.99453497503418 144.024096385343,183.25929427624214 155.2048192769289,187.54838030133396 155.54216867452487,187.1247680952074 158.0,177.85818371805362 157.6626506021712,176.79913729894906 155.78313253005035,175.79304164194036 153.99999999976717,173.46313007792924 150.6746987949591,172.13931306015002 143.34939759015106,166.5262996890233 140.89156626490876,165.89086123381276 139.92771084303968,166.42039332195418 134.0963855420705,178.49361076176865 138.62650602404028,181.7766408349271 143.49397590360604,183.36519796727225 142.96385542140342,185.6950749119278 145.08433734928258,187.23067117203027 146.2891566264443,185.05965473485412 143.6385542168282,184.3712821925874 142.9156626504846,185.80097821587697 145.5662650601007,187.3365742318565 146.43373493966646,184.90079959586728 143.9277108432725,183.94766796706244 142.86746987933293,186.27754287526477 144.6987951803021,187.17771963577252 145.22891566250473,187.3365742318565 146.5301204819698,185.05965473485412 143.6385542168282,184.10652333317557 142.81927710818127,185.9068815029459 145.03614457813092,187.1247680952074 146.57831325288862,185.2714615278528 143.7349397588987,183.94766796706244 143.15662650601007,186.06573640205897 145.61445783125237,187.3895257555996 146.81927710818127,184.53013745776843 154.72289156611077,187.44247727497714 155.59036144567654,187.17771963577252 157.80722891539335,177.9640882674721 157.2771084336564,176.21666105114855 140.89156626490876,165.99676768499194 139.83132530096918,166.26153373968555 134.192771084141,178.7054196416284 137.66265060240403,181.8825447615818 143.34939759015106,183.41814980644267 143.06024096393958,186.22459126327885 144.98795180697925,187.17771963577252 146.62650602404028,185.11260643939022 146.192771084141,184.7948961488437 144.12048192764632,184.05357154872036 142.9156626504846,185.6950749119278 145.4698795180302,186.86001032975037 146.3855421685148,185.32441321550868 145.03614457813092,183.84176436864072 153.61445783125237,187.1247680952074 155.44578313222155,186.54230087221367 157.32530120480806,180.39988825720502 157.51807228894904,177.1168514014571 154.7710843370296,174.09856131236302 140.93975903606042,166.31448693783022 139.83132530096918,166.36744013195857 138.77108433726244,168.2207992738695 134.14457831298932,178.33475405769423 139.06024096370675,182.57091987447347 144.024096385343,183.41814980644267 155.15662650577724,187.60133180808043 155.92771084303968,186.22459126327885" stroke="red" stroke-linecap="round" stroke-linejoin="round" stroke-width="0.5"><title>2022-03-05 10.9km</title></polyline><polyline fill="none" points="170.74356881069252,164.66666666667152 173.82940850406885,164.68528663815232 174.36085867357906,188.36877533506777 175.6637687663315,188.57357566338032 176.36665447428823,188.3129206711601 176.72666910511907,187.23306140066416 176.41808513581054,186.13457911580917 176.36665447428823,181.23789640284667 176.4523722435115,180.66071460024978 176.9666788590839,180.34419498547504 181.02970112208277,180.36281379732827 181.16684955294477,181.10756514374225 180.89255269127898,182.24330670577183 181.20113666070392,183.78865175141254 182.5897645226214,186.37661799696798 182.1440321225091,187.60542718943907 181.23542376834666,188.2756842217059 177.01810952066444,188.40601177079952 176.9838224129635,188.03364716583746 176.46951579744928,187.67990028110216 176.79524332057917,187.0096416631277 176.4523722435115,186.1531974995596 176.3837980281096,181.23789640284667 176.46951579744928,180.7165709615365 176.86381753598107,180.36281379732827 181.04684467596235,180.43728903110605 181.18399310676614,181.53579617041396 180.84112202969845,182.59706122797797 182.50404675339814,186.6186566454271 182.10974501480814,187.66128201026004 181.11541889136424,188.44324820100155 177.9610049825278,188.62943026948778 176.53809001273476,188.40601177079952 176.82953042822191,186.99102334269264 176.50380290509202,186.54418323992286 176.41808513581054,180.84690242308716 176.7095255513559,180.41867022475344 177.3781241515535,180.21386326372158 180.65254293737235,180.28833854156255 180.97827046050224,180.54900184045255 181.1325624451856,181.5544148941699 180.90969624521676,182.59706122797797 181.38971575303003,184.1982596914604 182.43547253799625,186.02286878453742 182.5383338612155,186.76760339042812 182.17831923026824,187.64266373802093 181.11541889136424,188.40601177079952 176.48665935121244,188.3129206711601 176.8466739821597,186.9537866977771 176.50380290509202,186.26490777303115 176.3837980281096,181.42408379887638 176.46951579744928,180.7351897458866 177.0352530744858,180.30695735756308 180.97827046050224,180.38143260782817 181.1497059991234,181.33099011807644 180.89255269127898,182.4667306723568 181.23542376834666,183.8072703085636 180.84112202969845,182.72739171612193 180.85826558363624,180.791046090686 178.68103424436413,180.45590783610533 177.2409757207497,180.67933338873263 176.65809488977538,182.634298517165 176.79524332057917,186.84207672991033 176.48665935121244,187.54957235621987 176.93239175138297,188.05226540916192 176.74381265899865,188.36877533506777 176.40094158198917,188.3315388938936 176.6409513358958,187.88470116966346 176.86381753598107,188.2756842217059 176.3837980281096,188.29430244710238 176.6409513358958,187.82884639839176 176.9666788590839,188.21982953714905 175.26946702768328,188.66666666667152 174.36085867357906,188.49910283600911 174.24085379653843,187.58680891309632 174.30942801199853,175.46601883416588 173.9322698272881,173.82752624971909 173.94941338105127,164.7597665101057" stroke="#ff5d00" stroke-linecap="round" stroke-linejoin="round" stroke-width="0.5"><title>2022-02-26 10.0km</title></polyline><polyline fill="none" points="21.48162992647849,194.772273751616 19.41349365399219,192.8697824367555 17.201068804133683,192.76408831530716 11.333333333255723,204.707417749858 15.950567802414298,208.08956056745956 20.90447561792098,210.3090824446408 20.13493653968908,212.31721490353812 22.44355377415195,213.74404217663687 23.982631930615753,211.4716861860361 21.529726119013503,210.41477377794217 20.231128924293444,212.26436939009 22.58784235129133,213.63835137255955 24.51169004663825,210.83753894269466 32.63994655990973,213.9025783514371 35.14094856381416,203.22772485861788 28.696058784145862,199.00001274311217 28.64796259184368,198.15446709498065 18.162992652039975,192.816935378185 17.1529726118315,192.9754765414982 11.525718102930114,204.86595607869094 16.623914495576173,208.56517302180873 20.808283233083785,209.78062552667689 20.183032732224092,212.31721490353812 22.58784235129133,213.84973296400858 23.886439545545727,211.4716861860361 21.2892451568041,210.41477377794217 20.471609886502847,211.84160513227107 20.279225116828457,212.31721490353812 22.82832331303507,213.7968875725055 23.694054776104167,211.4716861860361 21.433533734176308,210.36192811332876 20.32732130913064,212.15867835085373 23.068804275244474,213.84973296400858 23.694054776104167,211.41884060559096 21.193052771966904,210.4676194381318 20.32732130913064,212.26436939009 22.82832331303507,213.9025783514371 23.838343353243545,211.8944506791304 23.309285237221047,211.57737733452814 21.48162992647849,210.41477377794217 20.231128924293444,212.15867835085373 22.299265197012573,213.63835137255955 23.79024716070853,211.73591402574675 21.000668002525344,210.57331074611284 20.279225116828457,212.21152387262555 22.491649966686964,213.63835137255955 23.982631930615753,211.68306846625637 21.529726119013503,210.57331074611284 20.279225116828457,212.10583282494918 22.924515697872266,213.74404217663687 23.982631930615753,211.68306846625637 23.501670006662607,211.36599502089666 21.48162992647849,210.4676194381318 20.32732130913064,212.26436939009 22.684034736128524,213.6911967766937 23.02070808270946,213.21558798791375 23.79024716070853,211.73591402574675 21.529726119013503,210.5204650941887 21.86639946536161,209.83347123739077 32.59185036737472,213.7968875725055 33.313293253071606,212.31721490353812 35.33333333325572,204.23180253669852 34.94856379413977,203.1220323833404 18.932531730271876,192.816935378185 17.441549766110256,193.02832358761225 14.555778223089874,198.47154683893314 19.846359385410324,201.00817934900988" stroke="#ffde00" stroke-linecap="round" stroke-linejoin="round" stroke-width="0.5"><title>2022-02-14 5.2km</title></polyline><polyline fill="none" points="50.60557768912986,196.13671556446934 53.187250996008515,197.08227257948602 53.8565737050958,195.50634346954757 48.74103585653938,193.03738031035755 47.832669322611764,193.45763000991428 42.14342629467137,204.12137673661346 42.0,205.11945260228822 46.49402390420437,207.95608104608255 63.27490039821714,213.83941975887865 66.0,203.54354265209986 54.19123505940661,195.55887450044975 48.50199203169905,192.8272553603747 47.258964143227786,193.66775475960458 42.095617529703304,204.75174061662983 44.34262948180549,207.3257202215609 62.36653386428952,213.89194933290128 63.944223107537255,212.10594147141092 65.7131474101916,204.43655875179684 65.37848605541512,202.96570806246018 61.601593625266105,200.02399686613353 55.48207171307877,196.87214891525218 52.661354581359774,194.40319085720694 49.4581673303619,192.72219286038307 47.88047808757983,192.8797866042005 42.19123505940661,205.0143920557457 49.31474103569053,209.63704030634835 53.66533864522353,211.16040594439255 54.04780876473524,212.00088203523774 54.430278884246945,211.5806441233144 51.99203187227249,210.53004817507463 50.74900398403406,212.1584711833275 53.378486055415124,213.83941975887865 55.05179282836616,211.05534635786898 63.08366533834487,213.78689018054865 65.8565737050958,204.06884638621705 61.64940239023417,200.49677276267903 49.984063745010644,192.72219286038307 47.976095617283136,192.5645990789635 47.40239043789916,193.5101612036815 42.19123505940661,204.6992103162338 47.30677290796302,208.58644126949366 49.5059760955628,209.58451039425563 51.51394422282465,209.26933083345648 63.13147410354577,214.10206758772256 65.5697211152874,203.38595145044383 60.40637450199574,199.86640482553048" stroke="#ffcb00" stroke-linecap="round" stroke-linejoin="round" stroke-width="0.5"><title>2022-02-11 5.9km</title></polyline><polyline fill="none" points="81.59466666658409,212.64206080709118 83.94666666653939,213.8550750820432 84.71466666646302,213.38041758624604 84.90666666673496,211.79822348238667 82.74666666681878,210.58520544867497 81.49866666668095,212.6948006042512 83.99466666672379,214.1187735440326 85.24266666662879,211.6927437413251 86.68266666657291,211.27082460967358 94.0746666667983,213.90781478275312 96.57066666684113,203.25431015039794 79.57866666652262,192.54789312271168 77.89866666658781,193.81368541909615 72.66666666674428,205.2584478421486 76.41066666645929,207.78998154011788 82.17066666670144,209.21396500215633 93.69066666672006,213.90781478275312 96.66666666674428,204.30912021623226 92.44266666681506,200.19535147992428 79.72266666661017,192.60063451656606 77.46666666655801,194.60480437846854 72.81066666659899,205.4694093525177 85.77066666679457,211.48178420902696 93.21066666650586,214.01329417177476 94.02666666684672,213.59137651504716 96.28266666689888,205.5748900824692 96.09066666662693,203.09608849597862 92.92266666679643,200.30083304800792 88.26666666660458,198.13845755031798 81.88266666652635,193.708202819922 79.91466666688211,192.6533759064041 78.52266666665673,192.81160005030688 72.81066666659899,205.52214971958892 82.0746666667983,210.00506560551003 81.3546666665934,212.80028018611483 83.89866666658781,213.96055447944673 85.14666666649282,211.79822348238667 82.69866666663438,210.79616526589962 81.4026666667778,212.589321005682 84.18666666653007,214.06603386002826 84.95466666668653,211.6927437413251 82.55466666654684,210.6906853656983 81.54666666686535,212.53658120014006 83.65866666659713,213.8550750820432 84.95466666668653,212.0091829141602 82.55466666654684,210.79616526589962 81.3546666665934,212.48384139040718 84.04266666667536,213.96055447944673 85.6746666666586,211.11260486609535 93.7866666666232,213.90781478275312 95.56266666669399,209.31944513699273 96.6186666667927,203.72897488746094 82.02666666661389,193.81368541909615 79.86666666669771,193.02256551675964 78.0906666663941,193.8664267124841 75.16266666655429,199.87890667503234" stroke="#ffbd00" stroke-linecap="round" stroke-linejoin="round" stroke-width="0.5"><title>2022-01-18 6.4km</title></polyline><polyline fill="none" points="115.04648074368015,195.4538103286759 110.55245683924295,192.82725283701438 109.11819389089942,193.08990905579412 103.52456839289516,204.85680059343576 105.4369189904537,206.5377680012607 111.65205843281001,209.95221989043057 113.13413014588878,209.68957037111977 124.65604249667376,214.04953887988813 127.33333333325572,204.2264367134194 127.04648074391298,203.12329847738147 123.98671978758648,200.33917950530304 112.27357237716205,193.51015878870385 109.35723771550693,192.77472158067394 103.71580345276743,204.17390636302298 103.57237715786323,205.17198230797658 106.58432934898883,207.5358403775026 111.22177954856306,210.10980955179548 114.1381142095197,210.31992904201616 124.17795484745875,213.8919501575292 127.23771580355242,203.85872417269275 121.50066401064396,198.97338100569323 116.81540504633449,196.7670851610019 111.07835325342603,192.61712778679794 109.5484727753792,192.72219032037538 103.33333333325572,205.17198230797658 108.54448871174827,208.9541511621792 112.6082337317057,210.00474978168495 112.08233731705695,212.36859057145193 114.3293492696248,213.73436139756814 115.8592297474388,211.8432933485019 113.37317397072911,210.58257831074297 112.46480743703432,211.8432933485019 112.56042496673763,212.68376870482462 114.37715803436004,213.57677260000492 115.28552456828766,213.05147633713204 115.6201859228313,211.52811481442768 112.89508632128127,210.68763798911823 112.03452855232172,212.52617965685204 112.46480743703432,212.89388737693662 114.4249667993281,213.78689098835457 115.71580345300026,211.94835282646818 113.42098273569718,210.68763798911823 113.32536520552821,209.7946301914053 124.70385126187466,213.68183180264896 127.18990703858435,203.85872417269275 124.56042496697046,200.70689400384435 112.27357237716205,193.72028355515795" stroke="#ffe300" stroke-linecap="round" stroke-linejoin="round" stroke-width="0.5"><title>2022-01-15 5.1km</title></polyline><polyline fill="none" points="145.81102362205274,195.5468724365346 140.33070866158232,192.95133707119385 134.0944881888572,205.20217345899437 136.17322834650986,206.7594667110243 142.17322834650986,209.45876622077776 155.07086614170112,213.4557853952283 157.76377952750772,204.2677957257838 154.4094488187693,200.27072033658624 150.91338582662866,198.9210529937409 141.74803149607033,192.95133707119385 140.04724409454502,192.8994262588094 134.1889763781801,205.4098127737525 142.0314960628748,209.19921867566882 154.83464566920884,213.61151292006252 155.9685039371252,211.84659879823448 157.71653543319553,204.11206597369164 154.17322834650986,200.42645100440132 143.96850393689238,194.35292744933395 139.9055118111428,193.00324787956197 134.0944881888572,204.94262422266183 143.4015748030506,209.77022313897032 142.5984251969494,212.20996386010665 143.49606299190782,212.83287492458476 145.43307086615823,213.61151292006252 146.51968503952958,211.6389615291846 144.20472440938465,210.4450459521613 143.02362204738893,212.62523796909954 145.48031496070325,213.50769457418937 146.14173228363506,212.57332871988183 146.47244094475172,211.58705220161937 144.20472440938465,210.60077419452136 143.11811023624614,211.4832335340907 143.07086614170112,212.78096569189802 145.48031496070325,213.66342208674178 146.47244094475172,211.79468948708382 143.92125984258018,210.39313652960118 142.83464566920884,212.1580545778852 144.86614173231646,213.50769457418937 145.66929133841768,213.3000578331994 146.3307086613495,211.37941485020565 143.82677165349014,210.54886478441767 142.97637795261107,211.95041740796296 142.78740157489665,212.46951020910637 145.05511811026372,213.76724040781846 146.85039370087907,211.06795869924827 155.25984251964837,213.66342208674178 158.0,204.11206597369164 157.71653543319553,203.12577668164158 152.51968503929675,199.4401561479317 140.56692913384177,192.8994262588094 137.16535433055833,198.3500390475965 134.0,205.09835377684794 134.33070866158232,205.66936182428617 154.22047244082205,213.50769457418937 155.77952755894512,212.36569168197457 157.1023622045759,208.00529863982229 157.57480314956047,203.28150666883448 152.28346456680447,199.12869430484716 141.13385826768354,192.8994262588094 140.14173228340223,193.05515868391376 134.0944881888572,205.25408329383936 143.21259842533618,209.56258520996198 142.6456692914944,212.46951020910637 145.43307086615823,213.19623943796614 146.42519685043953,211.43132419424364 144.06299212598242,210.49695537029766 142.78740157489665,212.1580545778852 145.43307086615823,213.3519670246751 146.51968503952958,211.4832335340907 144.86614173231646,210.54886478441767 145.6220472441055,209.97786100179655 155.25984251964837,213.61151292006252 157.62204724433832,203.64487649465445 152.51968503929675,199.33633555012057 141.79527559061535,193.05515868391376 140.28346456680447,193.00324787956197 137.9685039371252,196.48126264335588 134.2834645670373,204.68307488335995 134.51968503952958,205.4617225920665 139.0551181100309,207.17474428465357 141.60629921243526,208.9915805652854 154.97637795261107,213.76724040781846 157.71653543319553,204.16397589526605 153.88976377947256,200.16689987084828 144.77165354345925,194.97585554106627" stroke="red" stroke-linecap="round" stroke-linejoin="round" stroke-width="0.5"><title>2022-01-14 10.0km</title></polyline><polyline fill="none" points="176.88223552913405,195.306493299664 170.89421157701872,192.779965383932 165.097804391291,204.04399471520446 164.9540918164421,205.51777877495624 181.3373253494501,212.20240102527896 186.463073852472,213.51826360094128 188.5229540921282,203.14919565059245 171.22954091825522,192.779965383932 170.3193612776231,193.25369010219583 164.66666666674428,205.09669794968795 172.9540918164421,209.46539849537658 185.98403193615377,213.99197348835878 186.41516966070049,213.57089804968564 188.66666666674428,204.57034654164454 188.42714570858516,203.04392509284662 171.42115768464282,192.6746931783273 169.12175648729317,195.46440097433515 164.7145708585158,204.9387925711344 173.96007984038442,209.5706680326257 174.43912175670266,210.41282372782007 173.5289421158377,212.41293921304168 175.9720558882691,213.78143580252072 176.97804391221143,211.4655168412719 174.58283433155157,210.67599716293626 173.57684630760923,212.46557374950498 174.43912175670266,212.99191888433415 174.00798403215595,213.2550912949955 175.92415169696324,213.78143580252072 177.16966067883186,211.99186277069384 174.9660678645596,210.67599716293626 173.76846307399683,212.6761118537397 176.16367265488952,213.88670465373434 177.21756487037055,212.0971319063683 174.63073852309026,210.46545842319028 173.57684630760923,212.36030467238743 175.82834331365302,213.67616693442687 177.79241516976617,211.20234371972037 186.41516966070049,213.67616693442687 188.28343313373625,206.46520965342643 188.33133732550777,203.35973671567626 183.7804391218815,200.41215571411885 182.96606786432676,198.9383602947928 177.79241516976617,196.2013029587688" stroke="#ffe300" stroke-linecap="round" stroke-linejoin="round" stroke-width="0.5"><title>2022-01-09 5.1km</title></polyline><polyline fill="none" points="23.429718875326216,222.3749060735572 17.21285140537657,219.35658096673433 11.381526103941724,232.171130210103 19.622489959700033,236.51319430716103 23.28514056210406,237.14861594850663 32.827309236861765,240.64342414564453 35.33333333325572,230.21189690346364 18.755020080134273,219.46248734224355 16.875502007780597,219.67430004279595 11.333333333255723,231.8004648911883 17.068273092154413,235.66596450970974 21.116465863306075,236.30138695874484 32.008032128214836,240.80227862816537 32.87550200801343,240.4316181099275 34.562248995993286,234.8187336351839 34.99598393589258,229.6823733994388 18.08032128494233,219.19772137183463 17.068273092154413,219.19772137183463 16.489959839032963,220.09792524197837 11.333333333255723,231.69456047646236 16.92369477893226,235.34825305797858 20.489959839032963,236.6190979561652 20.297188755124807,239.4784901161911 22.755020080134273,240.74932713824091 23.52610441739671,238.26060236274498 21.116465863306075,237.09566416806774 19.959839357296005,239.001925608085 22.562248995760456,240.74932713824091 23.622489959467202,238.41945741331438 21.30923694744706,237.25451949628768 20.15261044166982,238.79011905076914 20.008032128447667,239.26668371015694 22.755020080134273,240.5904726429726 23.622489959467202,238.15469897456933 21.2128514056094,237.20156772446353 20.008032128447667,239.001925608085 22.321285140467808,240.4316181099275 23.81526104407385,238.366505733924 20.97188755008392,237.20156772446353 20.008032128447667,239.05487723695114 22.803212851053104,240.5904726429726 23.718875501770526,238.63126408844255 21.935742971487343,237.5192782926606 22.321285140467808,237.20156772446353 32.05622489959933,240.5904726429726 33.02008032123558,240.37866659049178 35.04417670657858,230.00008755235467 31.622489959700033,226.71703400072875 30.36947791138664,226.8229392064386 22.465863453689963,221.52765830111457" stroke="#ffd800" stroke-linecap="round" stroke-linejoin="round" stroke-width="0.5"><title>2022-01-08 5.5km</title></polyline><polyline fill="none" points="63.372862029704265,238.31395481576328 66.0,233.5030615016003 65.56214367167559,232.48073879349977 62.798175598611124,231.51855019238428 56.94184720655903,228.48162637333735 56.42189281643368,228.78231298716855 55.95667046762537,231.6989607413998 54.15051311289426,231.1577288362605 55.026225769659504,230.85704411001643 55.51881413918454,227.94038986662054 53.84948688710574,226.37681338741095 45.8859749144176,221.74618360609747 45.06499429885298,221.86646042120992 42.05473204096779,228.78231298716855 45.63968072971329,231.45841332359123 47.445838084444404,231.57868705166038 53.84948688710574,233.8037441255001 53.68529076396953,234.1044265104283 51.413911060546525,233.02196880654083 50.59293044474907,235.09667668581824 50.83922462945338,235.5777667434595 52.23489167622756,236.29940068317228 53.63055872300174,235.12674483226147 54.64310148230288,232.54087549980613 55.65564424172044,228.09073341841577 53.90421892818995,226.1362625863403 51.60547320416663,225.2642646508466 45.33865450392477,221.7161143963458 42.0,228.66203837029752 44.46294184727594,230.9472495529917 46.67958950973116,231.78916598370415 50.565564424265176,232.36046535216155 53.0558722919086,233.62333457983914 54.23261117457878,233.77367587387562 55.73774230328854,228.4214890220028 55.51881413918454,227.88025242919684 54.15051311289426,227.09846487295 54.20524515397847,226.67750167363556 52.91904218925629,226.37681338741095 45.803876852965914,221.7161143963458 45.28392246295698,221.8363912209752 44.846066134632565,222.64825878711417 42.109464082168415,228.96272484067595 45.01026225776877,231.24793420755304 54.15051311289426,233.68347110465402 55.24515393387992,229.98505705277785 55.053591790259816,228.57183238258585 52.727480045636185,225.68522942232084 47.28164196119178,222.43777477057301 45.6670467503136,221.68604518423672 45.201824401388876,221.98673719799262 42.13683010276873,229.0228621061251 46.43329532491043,231.6087554777041 49.30672748014331,232.05978158154176 54.09578107181005,233.77367587387562 54.506271379766986,232.05978158154176 55.76510832388885,231.93950800647144 55.95667046762537,231.57868705166038 56.42189281643368,229.14313660821063 58.11858608899638,229.14313660821063" stroke="#ffa900" stroke-linecap="round" stroke-linejoin="round" stroke-width="0.5"><title>2022-01-07 7.2km</title></polyline><polyline fill="none" points="79.87084932770813,218.0 80.95541579305427,218.18405788729433 81.02320119715296,225.9327714190149 81.36212821752997,229.6874056791421 81.42991362157045,239.31299848633353 81.24350376037182,240.23320774982858 81.44685997266788,241.65032336249715 82.71783629915444,242.0 83.42958304210333,241.44787876888586 83.83629546657903,240.1043786577502 83.49736844614381,239.69948679130175 83.42958304210333,238.76087129530788 83.42958304210333,234.21497753655422 84.12438343389658,233.6996483082621 88.19150767900283,233.75486220519815 87.90341971162707,235.85298121225787 88.4118102422799,237.69342192004842 89.42859130352736,239.25778582232306 89.4624840056058,239.84672027349006 89.08966428309213,240.91416041475895 87.95425876468653,241.77915165454033 84.09049073193455,241.76074761684868 83.95491992379539,241.13500952765753 83.58210020128172,241.11660544239567 83.44652939314255,241.4662828296714 83.76851006253855,241.57670716564462 84.02270532783587,241.31905030540656 83.63293925434118,241.02458499568456 83.59904655226273,241.4846868890454 83.9718662747764,241.20862585506984 83.63293925434118,241.09820135580958 83.6498856053222,241.57670716564462 84.02270532783587,241.42947470673244 83.70072465843987,241.09820135580958 82.98897791554919,241.7975556907768 81.73494794004364,241.85276779145352 81.32823551545152,241.55830311306636 81.34518186654896,228.82237241588882 81.0570938991732,226.52173740201397 80.97236214403529,218.20246366856736 80.93846944195684,227.51561433747702 81.19266470731236,228.25181691572652 81.02320119715296,221.18418225283676" stroke="#ffc700" stroke-linecap="round" stroke-linejoin="round" stroke-width="0.5"><title>2022-01-01 6.1km</title></polyline><polyline fill="none" points="124.5259938838426,238.07434033279424 125.07645259948913,238.22554190966184 126.01223241596017,236.95544679785962 127.16819571866654,234.47572507921723 127.33333333337214,232.9939324382285 118.6085626911372,228.30659119813936 118.03058103960939,228.6997252619767 117.39755351678468,231.60285654579639 116.26911314984318,231.63309738013777 116.87461773690302,227.7622510547517 107.68195718654897,221.98614934709622 106.47094801219646,221.98614934709622 103.44342507631518,228.15538568087504 103.41590214066673,229.0323768449016 107.79204892960843,231.60285654579639 108.75535168196075,231.69357904151548 108.45259938831441,233.38706166035263 109.91131498466711,233.99187505524606 110.43425076443236,232.8427287831728 108.97553516807966,231.8447831531812 108.64525993878487,233.14513603324303 109.96636085619684,233.8709124531888 110.37920489290264,232.8427287831728 108.89296636078507,231.93550559136202 108.64525993878487,233.32658026798163 109.82874617737252,233.8406717965845 110.43425076443236,232.75200656134984 109.14067278290167,231.9959872046893 108.48012232407928,232.9939324382285 109.74617736996152,233.810431137681 110.07645259937271,233.810431137681 110.51681957184337,232.6310435651394 108.86544342513662,231.9052647810022 108.45259938831441,233.08465460248408 109.85626911313739,233.8709124531888 110.29663608560804,232.51008053057012 109.00305810396094,231.87502396828495 108.64525993878487,232.3588766833127 108.53516819584183,233.02417316209176 109.82874617737252,233.810431137681 110.43425076443236,232.5705620527151 108.86544342513662,232.20767277595587 108.50764525996055,233.08465460248408 109.55351681949105,233.7801904763619 110.10397553513758,233.65922780701658 110.95718654443044,232.23791356218862 115.47094801219646,233.8709124531888 117.12232415901963,228.63924312472227 116.79204892960843,227.82273333135527 110.02140672784299,223.22605291486252 108.83792048925534,222.92363778303843 107.18654434254859,221.77445809033816 106.55351681949105,221.86518292911933 103.33333333337214,228.66948419454275 108.23241590207908,231.2702072094835 115.25076452596113,233.8709124531888 115.74617736996152,233.62898713361938 117.01223241584376,228.63924312472227 116.87461773690302,227.73200991281192 107.21406727831345,221.86518292911933 106.66360856255051,221.83494131857879 103.41590214066673,228.42755556871998 103.5259938838426,228.97189476058702 104.46177370019723,229.6371971599292 108.03975535160862,231.54237486995407 110.24159021407831,231.87502396828495 115.55351681949105,234.0825969815778 116.2415902139619,231.60285654579639 116.43425076454878,231.2702072094835 116.7370030580787,232.75200656134984 117.97553516807966,228.97189476058702 118.47094801219646,228.63924312472227 126.83792048925534,232.51008053057012" stroke="#ffac00" stroke-linecap="round" stroke-linejoin="round" stroke-width="0.5"><title>2021-12-24 7.1km</title></polyline><polyline fill="none" points="156.79589509684592,237.06613037196803 158.0,234.60053990862798 157.50741163047496,233.57821720052743 155.56442417332437,232.88664439073182 152.5815279360395,230.6615754716331 148.96921322704293,229.6993794545997 148.03876852907706,231.26294673993834 147.98403648810927,233.36773865309078 146.8346636260394,232.79643914842745 147.81984036497306,233.9390372952039 147.95667046750896,232.76637072960148 147.27251995436382,232.1048649100121 147.76510832377244,229.78958543515182 147.27251995436382,228.4064247040078 146.45153933856636,227.4742917944386 143.74230330670252,226.60229441322736 138.62485746864695,223.14435397909256 137.17445838078856,222.93386962800287 134.0,230.12034051315277 137.01026225765236,232.04472796001937 140.95096921315417,233.54814884380903 139.55530216638,232.97684961152845 139.06271379708778,233.75862729089567 139.117445838172,234.32992534289951 140.29418472072575,234.9312907817366 141.08779931580648,233.66842225647997 139.7194982896326,233.0369864134991 139.226909920224,233.39780702415737 139.1448118587723,234.29985704590217 140.43101482326165,234.99142727308208 141.03306727472227,233.6383539068338 139.445838084328,232.97684961152845 138.98061573551968,234.08937889977824 140.32155074109323,234.9312907817366 141.08779931580648,233.72855894843815 139.5005701254122,233.2173967617855 139.25427594070788,234.23972044463153 140.26681870012544,234.8410860268341 141.0057012543548,233.72855894843815 139.66476624866482,232.97684961152845 139.09007981757168,233.75862729089567 139.09007981757168,234.29985704590217 140.37628278229386,234.96135902867536 141.1151653364068,233.78869563090848 139.55530216638,233.0369864134991 138.95324971491937,234.08937889977824 139.88369441276882,234.78094951168168 140.43101482326165,234.99142727308208 141.06043329532258,233.9390372952039 139.6374002280645,232.97684961152845 139.00798175588716,233.99917394423392 140.15735461807344,234.8110177704075 140.64994298736565,234.75088125048205 141.1425313568907,233.66842225647997 139.66476624866482,233.2173967617855 139.17217787913978,234.42013021965977 140.26681870012544,234.90122253252775 141.0057012543548,233.96910562095582 139.4732041049283,233.18732837637071 139.00798175588716,233.96910562095582 140.18472063855734,234.8410860268341 140.48574686422944,234.96135902867536 141.06043329532258,233.8789006366569 139.4732041049283,233.00691801367793 139.1995438997401,234.23972044463153 140.23945267964154,234.8110177704075 141.03306727472227,233.84883230383275 139.55530216638,232.91671280006994 139.00798175588716,234.23972044463153 140.10262257687282,234.8110177704075 140.62257696699817,234.63060818178928 141.1425313568907,233.54814884380903 139.4732041049283,233.18732837637071 139.06271379708778,234.23972044463153 140.15735461807344,234.87115428090328 141.1151653364068,233.72855894843815 139.4732041049283,233.15725998856942 139.117445838172,233.6383539068338 138.92588369431905,234.20965214047465 140.21208665915765,234.99142727308208 141.08779931580648,233.78869563090848 139.55530216638,232.8565759790945 138.92588369431905,234.29985704590217 140.40364880277775,234.96135902867536 141.1425313568907,233.6984906036232 139.336374002276,233.1271915983525 138.87115165335126,234.2697887464892 140.18472063855734,234.90122253252775 140.62257696699817,234.69074472089414 140.89623717218637,233.57821720052743 139.69213226914871,233.09712320574909 138.98061573551968,233.99917394423392 140.29418472072575,235.0214955151896 141.498289623647,233.36773865309078 146.20524515397847,234.90122253252775 146.58836944121867,233.15725998856942 147.87457240594085,232.40554951681406 148.5039908780018,230.090271881636 148.9965792474104,229.78958543515182 150.6659064994892,230.15040914222482 151.84264538204297,231.0825354598055" stroke="#ffca00" stroke-linecap="round" stroke-linejoin="round" stroke-width="0.5"><title>2021-12-19 6.0km</title></polyline><polyline fill="none" points="185.39893211307935,238.17654937665793 186.00305110611953,238.32740488249692 186.93668955005705,237.33175743653555 188.66666666662786,233.89222799235722 188.63920671259984,232.71553971472895 179.57742181548383,228.4613285967789 178.91838291380554,229.78888895525597 178.72616323421244,232.1724515875394 177.68268497334793,231.47850451702834 178.39664378354792,227.8578905358154 176.66666666674428,226.6811835587141 176.47444698703475,226.13808680084185 174.7170099162031,225.625161371805 171.4767353165662,223.18121304694796 168.20900076278485,221.67259511750308 164.66666666662786,228.82339097303338 168.181540808524,231.08627300307853 170.21357742184773,231.35781794044306 169.74675819987897,232.68536817253334 170.70785659807734,233.74137072465965 171.80625476746354,232.50433886871906 170.15865751344245,231.87073562582373 169.77421815413982,232.92674044330488 171.03737604885828,233.80171363899717 171.80625476746354,232.47416730964324 170.15865751344245,231.87073562582373 169.9389778795885,233.4094845247455 171.00991609459743,233.59051339703728 171.80625476746354,232.62502508080797 170.29595728451386,231.50867615512107 170.10373760503717,233.10776954577886 171.25705568271223,233.53017044917215 171.69641495042015,232.50433886871906 170.40579710155725,231.75004917389015 169.77421815413982,232.83622585976264 170.21357742184773,233.22845556610264 171.31197559111752,233.49999897164525 171.83371472160798,232.1121084144106 170.35087719303556,231.90090723271715 169.99389778799377,232.3836526182422 169.8291380625451,232.89656891787308 171.2295957284514,233.53017044917215 171.6689549961593,232.47416730964324 170.37833714718,231.75004917389015 169.6918382914737,233.13794105444686 171.2295957284514,233.922399438743 171.64149504201487,232.3534810495912 170.35087719303556,231.75004917389015 169.71929824573454,232.83622585976264 169.66437833709642,233.16811256069923 170.982456140453,233.771542182978 171.88863463012967,232.56468197953654 171.64149504201487,232.3836526182422 170.40579710155725,231.8103924046154 169.77421815413982,232.77588279201882 171.1746758200461,233.80171363899717 171.83371472160798,232.4439957482391 170.21357742184773,231.84056401639828 169.6918382914737,232.92674044330488 170.9275362319313,233.71119926395477 171.6689549961593,232.89656891787308 171.55911517923232,232.3534810495912 170.54309687262867,231.84056401639828 169.74675819987897,232.77588279201882 170.982456140453,233.68102780074696 171.86117467586882,232.47416730964324 170.4332570557017,231.8103924046154 169.80167810840067,232.8060543271131" stroke="#fff600" stroke-linecap="round" stroke-linejoin="round" stroke-width="0.5"><title>2021-12-18 4.4km</title></polyline><polyline fill="none" points="32.68486916949041,264.78169994128984 35.22411831631325,260.55174981674645 33.85893060301896,258.99175624985946 28.753128555137664,256.1417513588676 26.623435722314753,255.42174671925022 25.940841865725815,255.93175014745793 25.258248009136878,258.63175681917346 24.521046643843874,258.3917570079502 23.40159271901939,259.20175575927715 24.248009101254866,257.3417560403177 24.602957906667143,254.2517362513463 23.155858930549584,253.08172215768718 20.835039817844518,252.09170740027912 19.005688282079063,250.53167887742165 15.265073947608471,248.70163720153505 14.69169510807842,248.64163568487857 14.036405005608685,249.63165948964888 11.49715585890226,255.60174800787354 18.978384527843446,258.9317563686345 23.92036404996179,260.4917501833115 24.38452787254937,259.3517553373822 24.248009101254866,258.0617570184986 24.930602957843803,254.34173718531383 15.128555176313967,248.58163415876334 14.582480090903118,248.7316379561962 13.572241183137521,250.53167887742165 11.469852104550228,255.57174779908382 16.329920364078134,257.88175690264325 23.40159271901939,260.6117494405771 23.92036404996179,260.4917501833115 24.657565415254794,253.9517329832306 22.254835039842874,252.90171966762864 18.48691695102025,250.29167391717783 16.521046643843874,249.63165948964888 16.029579067137092,248.88164169416996 14.637087599374354,248.5516333920823 11.333333333372138,255.4517469399434 16.712172923842445,258.0617570184986 16.439135381020606,259.5917545383272 17.913538111373782,260.2517515544314 18.35039817984216,259.1417559114052 16.98521046631504,258.5417569078272 16.38452787254937,259.53175475244643 16.84869169513695,259.891753325006 17.96814562007785,260.101752333896 18.568828213843517,258.72175670898287 23.592718998901546,260.371750887949 24.11149032996036,258.63175681917346 25.50398179749027,257.94175695080776 25.749715585960075,255.39174649614142 26.623435722314753,255.15174462538562 33.88623435725458,258.63175681917346 35.11490329913795,258.6617567848298 35.33333333337214,259.20175575927715 34.678043230902404,261.42174342946964" stroke="#ffc700" stroke-linecap="round" stroke-linejoin="round" stroke-width="0.5"><title>2021-12-15 6.1km</title></polyline><polyline fill="none" points="64.31101021566428,264.28438166779233 65.91827468783595,260.90210955540533 65.72758229274768,260.0640197356988 64.09307604981586,259.4653830087045 63.52099886490032,258.71708576212404 57.09194097598083,255.9334069552715 56.41089670814108,256.472185103863 55.86606129386928,258.71708576212404 55.04880817246158,258.62728999269893 55.729852440417744,255.48442457604688 55.484676503925584,254.9456450145808 46.249716231483035,249.10881703652558 45.18728717346676,249.19861507508904 42.10896708269138,255.6939497529238 42.0,256.2925924733281 45.67763904633466,258.7769495965913 48.538024971378036,259.0463367337943 53.904653802281246,261.1415634471632 54.395005675265566,260.90210955540533 55.40295119176153,256.8912342423573 55.484676503925584,255.00550944838324 53.741203178069554,253.29936935767182 45.65039727569092,249.0489516655216 42.136208853451535,256.14293188237934 45.160045402823016,258.3579025558429 54.44948921666946,261.20142689629574 54.585698070121,259.40551928363857 55.29398410883732,259.9442924664472 56.46538024954498,257.43001102106064 56.46538024954498,256.2925924733281 57.20090805902146,255.99327123202966 58.726447218912654,256.44225300473045 64.36549375706818,259.55517857841915 65.70034052198753,259.8245651590405 66.0,260.6327237453079" stroke="#fffb00" stroke-linecap="round" stroke-linejoin="round" stroke-width="0.5"><title>2021-12-13 4.2km</title></polyline><polyline fill="none" points="94.7677655677544,264.2879319275089 96.66666666662786,260.60775951179676 96.53479853470344,259.73842202304513 88.33260073245037,255.7104646145308 87.75238095235545,255.91331245435867 87.3567765566986,257.04346263891784 85.98534798528999,263.1578041915491 87.7787545787869,255.7104646145308 78.15238095237873,249.422125617828 76.64908424892928,249.422125617828 74.19633699627593,254.4064400936477 73.72161172155757,256.2900295717118 76.54358974355273,258.1156531663437 79.26007326005492,258.550324103795 84.29743589740247,260.81060462768073 85.35238095233217,260.83958249216084 86.6710622709943,255.79739941682783 86.51282051275484,254.9570287934621 83.40073260071222,252.49386236144346 79.62930402928032,250.63923195088864 77.83589743589982,249.04540140580502 76.67545787547715,249.4511043872917 74.22271062259097,254.2035914157168 73.64249084249604,255.97126895925612 74.77655677660368,256.86959360766923 73.48424908425659,256.2610513456748 72.66666666662786,257.8548503551865 73.64249084249604,258.9270384972333 81.63369963376317,262.868027284916 84.06007325998507,263.7373573141231 84.79853479843587,263.3026925585582 86.3018315017689,257.9997408288764 86.64468864467926,255.07294209802058 84.007326007355,252.9575184903224 82.84688644681592,252.6097764489823 77.44029304024298,249.24825295299524 76.5963369961828,249.39314684612327 76.04249084251933,250.34944509717752 73.51062271068804,256.3769642357656 76.20073260075878,257.8258722535393 77.04468864458613,257.680981710786 78.2051282050088,258.57930214793305 79.94578754575923,258.898060480773 83.05787545780186,260.37593638408" stroke="#ffd500" stroke-linecap="round" stroke-linejoin="round" stroke-width="0.5"><title>2021-12-12 5.6km</title></polyline><polyline fill="none" points="124.74242424254771,262.6973001410079 127.16287878795993,257.75297774359933 127.06060606066603,256.32960259221727 124.1969696971355,254.4192765557964 120.03787878795993,253.63266946721706 118.98106060607824,253.89487197590643 117.1401515151374,251.8721631319204 115.84469696972519,251.34775571865612 115.29924242431298,251.9096207820403 113.1174242424313,260.4873442661483 113.18560606066603,262.2852752551262 112.26515151525382,262.6598433481413 112.94696969690267,262.6973001410079 113.28787878795993,261.9107068644953 113.5946969698416,257.97772079563583 115.7424242424313,251.60995949819335 117.95833333348855,251.9096207820403 124.81060606078245,255.4306265982159 127.33333333337214,255.54299869120587 114.7196969698416,249.69961433604476 112.53787878795993,258.23992088777595 109.98106060619466,256.8914617180126 106.57196969701909,256.029944118025 105.65151515160687,256.32960259221727 104.32196969701909,255.54299869120587 103.6742424244294,255.76774279688834 103.53787878795993,257.2660340965376 105.48106060607824,258.015177960624 105.99242424254771,256.21723068668507 103.98106060619466,255.54299869120587 103.5719696971355,257.0038334628043 105.17424242419656,257.86534928309266 106.06060606066603,256.554346322926 104.28787878795993,255.39316922792932 103.60606060619466,256.029944118025 103.64015151525382,257.22857687206124 105.27651515160687,257.82789210617193 106.16287878807634,256.32960259221727 103.84469696972519,255.65537075742031 103.5719696971355,257.1536624142027 105.27651515160687,257.86534928309266 106.12878787890077,256.32960259221727 104.52651515160687,255.6179134050326 103.94696969701909,256.029944118025 103.64015151525382,256.6667181480734 105.14015151537023,257.7904349263699 105.85606060619466,257.56569178498466 106.1969696971355,256.51688904190087 104.25378787878435,255.54299869120587 103.60606060619466,255.84265747491736 103.33333333337214,256.9289189692354 105.3446969698416,257.86534928309266 106.12878787890077,256.5918036008952 105.58333333337214,256.1797733789426 106.57196969701909,255.9924867954105 112.02651515160687,258.015177960624 113.18560606066603,254.94368055230007 114.65151515160687,255.69282810686855 115.6742424244294,251.3852134103363 117.1401515151374,251.5350441475457 127.23106060619466,256.47943175796536 126.51515151537023,259.28871979759424 124.29924242431298,263.6337189973274" stroke="#ffe500" stroke-linecap="round" stroke-linejoin="round" stroke-width="0.5"><title>2021-12-11 5.0km</title></polyline><polyline fill="none" points="141.31330968259135,244.7036199402355 142.0107844666927,244.66666666667152 142.19791184779024,246.77299453291926 142.1128539472702,252.11264084999857 142.41906238900265,256.15887121167907 142.52113186963834,268.5003928422666 143.79700037714792,268.6666666666715 144.27332461986225,268.48191796608444 145.02183414425235,267.0223984295735 144.6475793820573,265.4150695829012 144.6135562218842,260.81472642910376 145.17493836517679,260.37131538461836 149.08760178805096,260.35283990734024 149.4618565501878,263.77077994933643 150.68669031735044,266.4311982168001 150.2103660745197,267.68749699711043 148.95150914718397,268.3156440187304 148.04989540198585,268.48191796608444 144.49447516119108,268.1863197610073 144.23930145974737,268.42649332925794 142.94642137218034,268.53734259061457 142.5041202895809,268.334118907238 142.60618977015838,257.80321094098326 142.21492342784768,253.9787187030306 142.24894658807898,246.16326987212233 142.0788307870389,245.16553539822053 142.09584236715455,246.66213561443146 142.1468771075015,244.75904984031513 141.3983675830532,244.7220965749293" stroke="#ffe600" stroke-linecap="round" stroke-linejoin="round" stroke-width="0.5"><title>2021-12-05 4.9km</title></polyline><polyline fill="none" points="175.59148608113173,244.7236313483736 177.19988630665466,244.7426195728185 177.49709069624078,268.6666666666715 177.7418472522404,267.5844364846125 177.63695158535847,255.5277040735673 177.39219502930064,254.6352935017785 177.26981675124262,244.66666666667152 177.23485152894864,254.42643100512214 177.49709069624078,255.24289252600283 177.21736891777255,245.27428928628797" stroke="#fffd00" stroke-linecap="round" stroke-linejoin="round" stroke-width="0.5"><title>2021-12-04 4.1km</title></polyline></svg>