<?xml version="1.0" encoding="utf-8" ?>
<svg baseProfile="full" height="300mm" version="1.1" viewBox="0,0,200,300" width="200mm" xmlns="http://www.w3.org/2000/svg" xmlns:ev="http://www.w3.org/2001/xml-events" xmlns:xlink="http://www.w3.org/1999/xlink"><defs /><rect fill="#222222" height="300" width="200" x="0" y="0" /><text fill="#FFFFFF" style="font-size:12px; font-family:Arial; font-weight:bold;" x="10" y="20">Over 2km Runs</text><text fill="#FFFFFF" style="font-size:4px; font-family:Arial" x="10" y="280">ATHLETE</text><text fill="#FFFFFF" style="font-size:9px; font-family:Arial" x="10" y="290">JiuGoe</text><text fill="#FFFFFF" style="font-size:4px; font-family:Arial" x="120" y="280">STATISTICS</text><text fill="#FFFFFF" style="font-size:3px; font-family:Arial" x="120" y="285">Number: 9</text><text fill="#FFFFFF" style="font-size:3px; font-family:Arial" x="120" y="290">Weekly: 1.8</text><text fill="#FFFFFF" style="font-size:3px; font-family:Arial" x="141" y="285">Total: 24.7 km</text><text fill="#FFFFFF" style="font-size:3px; font-family:Arial" x="141" y="290">Avg: 2.7 km</text><text fill="#FFFFFF" style="font-size:3px; font-family:Arial" x="167" y="285">Min: 2.1 km</text><text fill="#FFFFFF" style="font-size:3px; font-family:Arial" x="167" y="290">Max: 3.4 km</text><polyline fill="none" points="33.40526139596477,33.0 32.67251266166568,34.80957633146318 31.858347401954234,35.76198346383171 30.39284993475303,36.047705407079775 29.74151772679761,35.95246476930333 29.253018571063876,36.14294603432063 28.520269837230444,38.04775646526832 27.78752110339701,38.42871806694893 27.706104577519,38.9049198423163 26.240607109852135,39.57160190423019 25.42644184967503,40.23828347149538 24.612276590429246,40.33352365496103 24.36802701232955,40.809724421589635 23.79811133025214,41.28592493571341 23.06536259641871,41.38116500823526 22.983946070540696,42.80976488610031 21.925531232729554,44.90504060056992 21.844114706851542,45.95267662673723 21.192782499361783,47.00031143199885 20.378617239184678,47.857466273824684 18.75028671976179,48.33366305503296 18.261787563562393,48.80985958420206 16.877706622239202,49.38129508588463 16.226374414283782,50.52416499995161 16.063541362527758,52.33370605966775 16.389207466039807,53.000378163473215 15.982124836649746,53.85752728494117 15.900708310771734,54.428959578683134 15.656458732206374,55.00039150897646 15.330792628694326,54.714675588940736 16.063541362527758,54.428959578683134 17.040539674460888,53.667049773037434 17.77328840782866,53.76228853408247 18.75028671976179,54.238482187793124 18.587453668005764,54.905152879306115 18.668870193883777,55.66706163570052 19.320202401373535,56.42896974622272 21.844114706851542,55.85753872373607 22.495446914806962,55.57182307634503 23.06536259641871,55.66706163570052 23.79811133025214,55.19086873845663 24.205193960107863,55.28610733797541 24.69369311630726,55.66706163570052 25.18219227157533,55.57182307634503 25.7521079541184,55.66706163570052 28.03177068103105,55.381345927598886 29.985767304431647,55.47658450715244 31.45126477209851,55.00039150897646 33.893760551698506,54.714675588940736 34.463676233775914,55.095630128867924 34.95217538904399,54.714675588940736 37.31325464276597,54.33372088818578 38.77875211043283,54.048004756332375 39.10441821394488,53.667049773037434 40.08141652587801,53.952766025904566 43.175244512967765,53.667049773037434 45.536323766224086,53.667049773037434 46.02482292242348,53.85752728494117 47.083237760234624,53.47657222073758 48.141652597580105,53.667049773037434 50.095649220980704,53.47657222073758 50.421315324958414,53.952766025904566 50.58414837671444,56.42896974622272 50.502731850836426,57.76230738637969 50.58414837671444,58.80992843070999 50.3398987990804,59.190881235175766 50.99123100703582,61.762308442848735 51.479730162769556,63.476589162193704 51.56114668911323,64.04801534250146 51.88681279262528,64.90515393140959 51.805396266747266,65.47657920379424 52.0496458443813,66.04800411290489 52.21247889660299,68.61941170936916 51.96822931850329,69.19083462108392 52.21247889660299,70.33367935480783 53.18947720853612,72.23841734975576 53.35231026029214,74.42886105552316 53.35231026029214,75.85740842355881 54.085058994125575,78.71449635049794 54.2478920458816,79.76209298265167 54.085058994125575,80.14303690963425 54.410725098103285,80.61921659146901 54.00364246824756,81.09539602149744 51.479730162769556,81.95251835940871 48.71156827965751,82.71440419642022 45.6177402921021,83.38105377409374 42.76816188311204,84.04770285752602 42.11682967515662,84.04770285752602 41.30266441544518,85.00005783361848 38.45308600645512,85.47623494343134 35.60350759699941,86.14288247347577 32.99817876610905,86.52382369735278 31.858347401954234,86.80952950945357 31.125598668586463,86.80952950945357 30.637099512387067,87.0 33.73092749994248,86.42858840653207 36.82475548656657,85.85717644979013 39.99999999953434,85.19052870792802 41.22124788956717,84.90482238156255 42.1982462015003,84.04770285752602 45.129241136834025,83.57152499112999 48.30448564980179,82.90487555478467 49.444317013490945,82.52393279760145 50.421315324958414,82.52393279760145 53.108060682192445,81.57157519907923 54.98064077971503,80.71445249777753 57.91163571504876,79.95256496616639 59.86563233844936,79.47638493106933 60.19129844242707,79.19067678920692 59.94704886432737,77.47642603004351 60.27271496830508,77.09548097330844 61.331129806581885,76.90500838437583 63.28512642951682,76.04788123443723 63.61079253349453,75.76217200286919 64.42495779320598,75.38122621987714 64.66920737130567,74.61933416931424 64.66920737130567,73.85744147282094 64.42495779320598,73.38125820999267 63.85504211159423,73.00031141773798 63.44795948173851,71.85747007350437 63.366542955394834,71.00033811206231 63.040876851417124,70.33367935480783 62.6337942215614,68.42893732473021 61.81962896184996,67.09561550285434 61.086880228016526,66.42895385052543 60.02846539020538,66.42895385052543 58.88863402651623,65.00039150216617 59.2143001309596,63.381351430434734 59.13288360461593,62.90516261890298 57.99305224092677,62.238497859449126" stroke="#4dd2ff" stroke-linecap="round" stroke-linejoin="round" stroke-width="0.5"><title>2023-12-25 2.1km</title><desc>9223370333374765407</desc></polyline><polyline fill="none" points="115.86172650847584,46.8502703893173 115.20168067212217,46.029893783066655 114.417876241263,45.74034874577774 114.0466004582122,46.07815127138747 113.5515660806559,46.271181173447985 113.34530175686814,46.31943863630295 113.01527883834206,46.89852779073408 112.68525592028163,47.13981472112937 112.23147440771572,47.38110152367153 112.02521008392796,47.6706455181411 111.48892284161411,47.911932039569365 111.20015278807841,48.39450469907024 110.7463712755125,48.44276193671976 110.41634835721925,48.87707684718771 110.16883116867393,48.92533403390553 109.83880825061351,49.359648484154604 109.42627960257232,49.6974483258673 109.09625668427907,50.0835049811576 108.72498090122826,50.27653318611556 108.6012223069556,50.46956130929175 108.35370511817746,50.614332347904565 108.43621084769256,51.72424211585894 108.39495798293501,52.01378334983019 108.18869365914725,52.303324399515986 107.81741787609644,52.59286526538199 107.44614209304564,52.68937884646584 106.12605041987263,53.36497334114392 105.91978609608486,53.654513532237615 105.3422459892463,53.944053539278684 105.17723452998325,54.667902751563815 105.63101604254916,55.87431554970681 105.50725744804367,56.501648942095926 105.38349885400385,56.694674427388236 105.50725744804367,57.27375039277831 105.17723452998325,57.51503182790475 104.88846447668038,57.37026298214914 104.5584415581543,57.32200669005397 104.31092436960898,57.41851926909294 104.10466004558839,57.37026298214914 103.85714285704307,57.51503182790475 103.23834988521412,57.56328809951083 102.16577540081926,57.804569381143665 101.83575248275883,57.804569381143665 101.62948815873824,57.70805688385735 101.1757066459395,57.65980062755989 100.35064935055561,58.1423629609053 100.02062643226236,57.997594314510934 98.70053475908935,58.1423629609053 98.32925897603855,58.09410675053368 97.00916730309837,58.2871315611992 96.7203972497955,58.2871315611992 96.18411000748165,58.38364393572556 95.8540870891884,58.38364393572556 94.94652406382374,58.81794936876395 93.87394957966171,59.01097387258778 93.54392666136846,59.155742197006475 93.2139037430752,59.10748609399889 91.85255920537747,59.493534774694126 91.39877769281156,59.348766557726776 90.82123758574016,59.44527870757156 90.28495034365915,59.348766557726776 89.58365164231509,59.638302945619216 89.00611153547652,59.541790836898144 88.79984721145593,59.73481503405492 88.30481283389963,59.83132710203063 86.69595110765658,59.83132710203063 86.44843391887844,59.83132710203063 86.15966386534274,59.87958312834962 85.78838808229193,59.78307107067667 84.88082505716011,60.02435117660207 84.63330786838196,59.97609516553348 84.46829640911892,59.83132710203063 83.93200916727073,59.927839149488136 83.43697478971444,60.072607182577485 82.57066462910734,60.21737516942085 82.19938884628937,60.169119178841356 80.8380443083588,60.36214311028016 79.31168831139803,60.410399080457864 78.94041252858005,60.50691100527183 78.48663101578131,60.50691100527183 77.78533231443726,60.69993479351979 76.83651642454788,60.6034229095676 76.54774637101218,60.651678854075726 76.21772345295176,60.50691100527183 75.10389610379934,60.651678854075726 74.23758594319224,60.941214413847774 74.07257448416203,61.18249390658457 73.41252864780836,61.423773271380924 73.0,61.66505250838236 73.16501145903021,62.19586638009059 73.45378151233308,62.63016817867174 73.45378151233308,63.064469563250896 73.78380443085916,63.78830428418587 74.11382734891959,64.36737123283092 74.23758594319224,64.65690443120548 74.9388846445363,65.42899206047878 75.76394194015302,65.47724749380723 77.20779220759869,65.38073662188253 77.62032085540704,65.71852458399371 77.86783804418519,65.47724749380723 78.6103896102868,65.57375834535924 79.06417112261988,65.52550292215892 79.43544690590352,65.38073662188253 80.46676852554083,65.52550292215892 80.96180290286429,66.4423550881329 81.3330786859151,68.0347781489836 81.37433155067265,69.57894064998254 81.37433155067265,70.83356882835506 81.20932009140961,71.36437201756053 80.54927425505593,71.84691983470111 80.46676852554083,72.08819355175365 80.46676852554083,73.19805100379745 80.96180290286429,73.63234231434762 81.49809014494531,73.72885143809253 82.90068754763342,73.68059687878122 83.1894576009363,73.82536054169759 83.47822765470482,73.82536054169759 84.17952635581605,73.82536054169759 84.798319327645,73.82536054169759 85.41711229924113,73.82536054169759 86.98472116095945,73.8736150857003 88.05729564535432,73.8736150857003 88.71734148170799,73.7771059924562 89.3773873182945,74.0666332107503 90.2436974789016,73.9701241585135 90.57372039719485,74.0666332107503 91.11000763927586,73.9701241585135 91.44003055756912,74.16314224278904 91.89381207013503,74.21139675099403 92.22383498842828,74.21139675099403 93.54392666136846,74.25965125425137 94.12146676843986,74.25965125425137 94.36898395698518,74.21139675099403 96.1428571427241,74.16314224278904 97.05042016785592,74.16314224278904 97.33919022139162,74.16314224278904 98.90679908310995,74.11488772931625 100.47440794482827,74.0666332107503 100.96944232215174,74.0666332107503 101.6707410234958,74.01837868720759 103.11459129094146,73.92186962472624 103.36210847971961,73.92186962472624 104.22841864009388,73.82536054169759 105.17723452998325,73.72885143809253 106.62108479742892,73.63234231434762 108.06493506487459,73.43932400504127 109.55003819684498,73.24630561424419 110.9526355995331,73.1015417673625 111.73644003039226,73.00503251081682 112.02521008392796,73.00503251081682 113.30404889211059,72.76375927918707 114.62414056505077,72.52248592016986 114.91291061858647,72.4742312329472 115.16042780736461,72.42597654063138 115.44919786090031,72.3777218433097 116.76928953384049,72.08819355175365 117.01680672238581,72.03993881848874 118.04812834202312,71.75041031223373 119.49197860946879,71.31611720769433 119.7394957980141,71.26786239279318 120.31703590531833,71.12309791738517 121.59587471350096,70.83356882835506 122.58594346791506,70.59229444694938 123.82352941157296,70.10974530110252 124.73109243670478,69.72370561608113 124.1948051948566,68.32430901666521 123.90603514108807,66.78014226310188 123.78227654681541,65.47724749380723 123.65851795230992,64.12609342689393 123.57601222302765,63.88481549327844 123.45225362852216,62.678423908597324 123.53475935803726,62.19586638009059 124.40106951864436,62.05109902191907 125.1848739492707,62.244122155883815 125.4736440028064,61.76156416739104 125.84491978562437,61.568540828855475 126.09243697463535,61.520284981495934 126.29870129842311,61.423773271380924 126.25744843366556,60.941214413847774 126.54621848720126,60.98947032255819 127.0,60.84470258120564" stroke="#4dd2ff" stroke-linecap="round" stroke-linejoin="round" stroke-width="0.5"><title>2023-12-13 3.0km</title><desc>9223370334411793607</desc></polyline><polyline fill="none" points="143.6107011071872,45.08224014326697 143.21217712201178,45.37361046450678 142.21586715895683,46.480816278315615 141.41881918837316,46.77218585886294 141.3191881920211,47.00528141227551 140.2730627306737,47.58801986358594 140.22324723284692,47.995936412131414 139.3265682659112,49.10313694755314 138.4298892992083,49.21968424273655 138.13099630991928,49.80242034822004 137.73247232474387,49.80242034822004 137.3837638378609,49.977241059415974 137.08487084903754,50.851343782269396 137.13468634733,52.54127177456394 136.83579335804097,53.24055080447579 136.18819188210182,53.70673633069964 134.84317343193106,54.17292146163527 134.39483394869603,54.17292146163527 133.79704797058366,54.639106197690126 133.29889298905618,55.513201512687374 133.0996309965849,56.15420386107871 133.0,55.80456630908884 133.0,56.67865977238398 133.14944649487734,57.08656957995845 133.59778597811237,57.31966076273238 133.39852398540825,57.669297351676505 133.39852398540825,57.96066100621829 133.29889298905618,58.71820578549523 133.4981549817603,59.24265925219515 133.89667896693572,59.41747696348466 135.04243542440236,59.30093182885321 135.69003690057434,59.00956888432847 137.5332103325054,59.00956888432847 139.1273062734399,58.77647841756698 140.9206642068457,58.77647841756698 141.51845018472522,58.77647841756698 142.16605166066438,58.485115195275284 143.31180811836384,58.42684253223706 143.90959409624338,58.135479124845006 145.00553505541757,58.01893371861661 145.30442804447375,58.077206424612086 145.60332103352994,58.01893371861661 146.0516605169978,58.077206424612086 147.09778597787954,57.72757009498309 147.44649446522817,57.78584283211967 148.0940959409345,57.669297351676505 148.39298892999068,57.436206317157485 148.84132841345854,57.55275184678612 149.4889298893977,57.37793354311725 151.38191881938837,57.26138797641033 151.73062730650418,57.203115183860064 152.4778597787954,57.49447908508591 152.72693726979196,57.37793354311725 153.0756457564421,57.436206317157485 153.3247232476715,57.31966076273238 153.77306273090653,57.49447908508591 153.97232472337782,57.72757009498309 154.271217712434,59.067841485491954 154.4206642068457,59.41747696348466 154.37084870855324,60.23329221457243 154.66974169760942,60.932561466644984 154.71955719590187,62.389369553828146 154.9686346866656,62.68073070835089 154.91881918837316,63.030363890051376 155.36715867184103,64.48716642183717 155.26752767548896,66.23532436788082 155.41697416990064,67.98347675887635 155.26752767548896,68.39137818402378 155.5166051662527,69.20718012721045 155.56642066454515,70.13952372374479 155.76568265701644,70.83878038416151 156.014760148013,71.1301370637957 155.91512915142812,72.4121046208893 156.36346863489598,74.16023738437798 155.66605166066438,74.56813423003769 155.41697416990064,74.91775985679124 156.16420664219186,74.21850838081446 156.66236162371933,74.50986327050487 157.01107011083513,74.56813423003769 157.5092250923626,74.742947071034 157.8579335794784,74.56813423003769 158.2066420665942,74.50986327050487 159.0535055352375,74.56813423003769 159.3025830257684,74.39332133316202 159.70110701094382,74.39332133316202 160.59778597787954,74.27677937108092 161.29520295234397,73.86888230947079 161.64391143945977,73.57752708019689 162.391143911751,73.16962950030575 163.58671586727723,73.11135839275084 164.68265682668425,72.87827390083112 165.03136531380005,72.5869181471644 165.7785977863241,72.47037580236793 165.8284132843837,72.23729103902588 166.3763837639708,71.71284996002214 166.77490774937905,71.77112121577375 168.0701107014902,71.18840838113101 168.36900369031355,71.24667969252914 169.3154981553089,70.8970517325215 169.76383763877675,70.54742355033522 170.11254612565972,70.48915216512978 171.55719557218254,69.78989506018115 172.15498155006208,69.20718012721045 172.6033210332971,69.20718012721045 173.79889298928902,68.56619298795704 174.3468634688761,68.33310657052789 174.59594095987268,68.1000200539711 175.39298892999068,67.86693343892694 175.69188191904686,67.69211841281503 175.5922509226948,67.34248819370987 175.891143911751,67.28421646915376 175.99077490810305,66.99285775265889 175.34317343193106,65.82742134400178 175.34317343193106,65.47778993996326 176.53874538769014,65.71087756752968 176.987084871158,65.3612460893346 177.43542435439304,65.30297415464884 178.78044280479662,64.60371045779902 180.02583025838248,64.83679845556617 181.47047970513813,64.13753416604595 182.61623616260476,63.37999684957322 182.8154981553089,63.030363890051376 183.31365313660353,62.68073070835089 183.5627306276001,62.447641797189135 184.8081180814188,62.098008245113306 185.60516605176963,61.80664678197354 185.9040590408258,61.457012822444085 186.202952029882,61.457012822444085 186.80073800776154,60.99083386413986 187.0,60.40810961072566 186.90036900388077,60.058474762539845 186.60147601505741,59.70883969194256 186.15313653158955,59.067841485491954 185.75461254641414,58.543387852201704 185.65498155006208,58.3102971878252 185.2066420665942,58.19375181867508 183.4132841329556,58.71820578549523 182.6660516608972,58.65993314725347 180.57380073843524,59.00956888432847 179.32841328415088,58.95129627699498 178.83025830285624,59.126114080660045 177.5350553507451,59.30093182885321 176.43911439133808,59.88365725509357 176.04059040616266,60.23329221457243 175.34317343193106,60.23329221457243 174.99446494481526,60.52465451095486 174.04797047981992,60.99083386413986 173.84870848734863,61.34046811994631 173.20110701140948,61.51528516446706 172.6033210332971,61.51528516446706 170.959409594303,62.156280519091524 170.46125461277552,62.447641797189135 170.11254612565972,62.331097304297145 168.51845018495806,62.97209170850692 167.82103321049362,62.73900292062899 167.37269372702576,62.73900292062899" stroke="#4dd2ff" stroke-linecap="round" stroke-linejoin="round" stroke-width="0.5"><title>2023-12-12 2.4km</title><desc>9223370334498230007</desc></polyline><polyline fill="none" points="28.526507074711844,177.0 28.559241719311103,176.80866056878585 28.91932280967012,176.7321247679647 29.279403900029138,176.61732103634859 29.606750345788896,176.54078519516042 30.261443237424828,176.34944552119123 30.425116460421123,176.42598140300834 31.701767598977312,176.0433018328331 32.22552191221621,175.89022989134537 32.71654158097226,175.8136938965181 33.927723430329934,175.31620953511447 34.54968167736661,175.08660113776568 35.79359817132354,174.8187244902656 36.08820997260045,174.8187244902656 36.742902864236385,174.62738390630693 37.070249310228974,174.39777507225517 37.23392253299244,174.05336154816905 37.26665717770811,173.44107002962846 36.77563750895206,172.13994711523992 36.18641390639823,170.8005509962386 35.629924948560074,169.5376872603083 35.10617063532118,167.96866860429873 35.23710921348538,167.5477112227818 35.466251725680195,167.43290457926923 35.597190303960815,167.05021550448146 35.26984385820106,166.4761811340286 35.17163992440328,166.09349104814464 34.87702812324278,165.55772424844326 34.778824189445004,165.1367640638491 34.58241632208228,164.7923417306447 34.484212388284504,164.44791906973114 34.05866200872697,163.68253420604742 33.56764233997092,162.2665679428319 33.305765183409676,161.65425649218378 32.74927622557152,160.12347333543585 32.22552191221621,158.93711193735362 31.963644755538553,158.32479485610384 31.669032954378054,157.4063172925089 31.014340062858537,156.10513675559196 30.719728261581622,155.68416558069293 30.490585749503225,155.18665356110432 30.097770014428534,154.15335718201823 29.90136214706581,153.7323837376025 29.704954279586673,152.8904353803955 29.50854641222395,152.4694604675169 29.344873189227656,151.43615633333684 29.181199966347776,151.0151797294384 28.690180297475308,150.09668362190132 28.428303140914068,149.7139762225852 28.166425984352827,148.87201852025464 27.904548827791587,148.52758071391145 27.70814096031245,148.03005885964376 27.577202381798998,146.92019995179726 27.511733092716895,146.15477803276735 27.249855936155654,145.1979983583442 26.7588362673996,143.7819597996131 26.49695911083836,142.7486308691441 26.169612664845772,141.86838537963922 25.875000863801688,141.44739764992846 25.64585835172329,140.64369244268164 25.580389062524773,140.18443152299733 25.089369393885136,138.95973288902314 24.762022948008962,137.84984617304872 24.50014579144772,137.27576550192316 24.336472568451427,136.6251396407315 24.107330056489445,136.24241799971787 23.845452899695374,134.82634440957918 23.485371809336357,133.6781725670735 23.223494652775116,132.3769067430694 23.125290719093755,132.0707258694456 22.9288828514982,131.61145407319418 22.79794427321758,131.03736350868712 22.5688017612556,130.50154482683865 22.40512853837572,129.8509067898849 22.175986026180908,129.27681343309814 22.045047448016703,128.7792651206837 22.175986026180908,128.28171612444567 22.503332471940666,127.8989856619155 22.79794427321758,127.82243952085264 23.059821430011652,127.47798168574809 23.387167875654995,127.32488920932519 23.68177967693191,127.01870406241505 24.598349725129083,126.55942585624871 25.122104038484395,126.06187380867777 25.67859299632255,125.94705400828389 26.95524413487874,125.29640778471367 27.577202381798998,125.14331438564113 28.690180297475308,124.5309401419072 29.54128105659038,123.99511182881542 30.62152432790026,123.6506503514247 31.341686508618295,123.45928272244055 32.58560300269164,123.4210091845016 33.1420919605298,123.3444620964874 33.96045807504561,123.3444620964874 34.68062025564723,123.15309430545312 35.92453674983699,123.0 36.481025707675144,123.11482073517982 37.757676846231334,123.07654716086108 38.93612405110616,123.15309430545312 39.52534765342716,123.07654716086108 40.605590924737044,123.3444620964874 41.65309955121484,123.45928272244055 42.86428140057251,123.53582978621125 44.07546325016301,123.61237683377112 45.31937974411994,123.80374438181752 46.75970410578884,123.84201787927304 47.47986628639046,123.80374438181752 48.69104813586455,123.99511182881542 49.313006382784806,123.95683834748343 49.83676069625653,124.03338530601468 50.81880003353581,124.30129953339929 51.4407582806889,124.41611985579948 51.86630866013002,124.7223072044726 52.39006297336891,125.75568759333692 52.71740941924509,126.21496681924327 53.20842908800114,127.36316233445541 53.8303873349214,128.5113542076724 54.190468425280415,128.8175380921166 54.452345581841655,129.27681343309814 54.81242667220067,130.31018081970979 55.205242407275364,131.07563624123577 55.3361809856724,131.49663603317458 55.4016502747545,132.0707258694456 55.6307927868329,132.3769067430694 55.76173136511352,132.79790502155083 56.38368961226661,133.94607965601608 56.94017856998835,135.13252295256825 57.10385179286823,136.20414581341902 57.39846359414514,136.85477243119385 57.7258100399049,138.15602215877152 57.95495255186688,138.57701371613075 57.95495255186688,139.03627667494584" stroke="#4dd2ff" stroke-linecap="round" stroke-linejoin="round" stroke-width="0.5"><title>2023-12-08 3.1km</title><desc>9223370334822430907</desc></polyline><polyline fill="none" points="96.26963328343118,123.0 96.1516770235612,123.12074886698247 95.98211490007816,123.34499628751655 95.81992504285881,123.54336849060928 95.74620238045463,123.6209922645503 95.56926799073699,123.724490514629 95.32598320484976,123.91423696462152 95.09744295146083,124.06948373102932 94.8836472305702,124.23335499652603 94.64036244471208,124.39722593209444 94.40444992505945,124.56972129727365 94.14642060673214,124.73359155554499 93.97685848327819,124.83708839078463 93.9473694182816,124.86296257901995 93.91050808710861,124.91471093083965 93.71145689865807,125.04408166641952 93.46079984653625,125.1993262777105 93.20277052820893,125.36319526834995 92.93736894361791,125.52706392907567 92.6645950927923,125.69955689972267 92.50240523557295,125.82030176166154 92.36233217699919,125.95829567024339 92.11167512490647,126.12216313284443 91.88313487151754,126.29465484231332 91.68408368312521,126.47577074384753 91.61773328695563,126.51889351814316 91.34495943613001,126.562016269585 91.0574410528061,126.67413531642524 90.76992266951129,126.78625420881144 90.48240428621648,126.89837294677272 90.20225816915627,126.97599352106772 89.95897338332725,127.07948750494688 89.84101712345728,127.11398547032877 89.87787845471757,127.32959742270032 89.85576165598468,127.3899686670411 89.67145500003244,127.61420432534214 89.48714834402199,127.80394170758518 89.28809715560055,128.0195518323526 89.09641823341371,128.2092882697325 88.90473931122688,128.381775556285 88.8088998501189,128.46801906251494 88.72780492148013,128.51976512236433 88.63196546040126,128.53701380168786 88.56561506423168,128.61463281336182 88.56561506423168,128.69225175104657 88.60984866166837,128.75262198472046 88.7941553176206,128.94235671335628 88.96371744110365,129.14933954930893 89.1332795646158,129.35632185894792 89.31758622053894,129.53743094817764 89.37656435044482,129.5891763282125 89.4724038115819,129.76166069082683 89.64196593506495,129.9858898158418 89.67882726623793,130.06350744598603 89.65671046753414,130.14974917042855 89.52400967522408,130.27911158581264 89.29546942186425,130.43434621293272 89.08904596717912,130.62407702179917 88.87525024623028,130.7965591916145 88.74992172018392,130.89142422922305 88.71306038901093,130.93454466431285 88.69831585651264,131.0466576886829 88.71306038901093,131.1156502422964 88.8236443826172,131.2450111227663 88.99320650610025,131.46923616192362 89.17751316205249,131.66758856642264 89.31021395433345,131.79694856980495 89.4576592790836,132.03842002616875 89.59773233762826,132.27989076630183 89.752549928613,132.50411295509548 89.83364485728089,132.63347162926948 89.86313392219017,132.73695842059533 90.11379097428289,132.73695842059533 90.16539683798328,132.74558231394622 90.18751363671618,132.8059495417474 90.20225816915627,133.00429868935316 90.24649176659295,133.27163808021578 90.27598083158955,133.41824317991268 90.32021442902624,133.4527384591056 90.34233122770092,133.51310516254307 90.34970349393552,133.66833362302714 90.37182029263931,133.73732395489787 90.44554295504349,133.76319531428453 90.65196640972863,133.7459477422599 90.84364533191547,133.79769044731074 90.82890079941717,133.83218556575594 90.78466720200959,133.86668066954735 90.97634612419643,133.81493800835597 91.01320745542762,133.83218556575594 90.98371839046013,133.86668066954735 90.94685705925804,133.82356178753253 90.99846292290022,133.83218556575594 90.94685705925804,133.85805689497647 90.97634612419643,133.82356178753253 91.33021490366082,134.34961058840418 91.28598130622413,134.36685803253204 91.01320745542762,133.8925519878394 90.96160159172723,133.82356178753253 90.99846292290022,133.84943311948882 91.27123677372583,134.34098686499055 91.33758716986631,134.4186003429786 91.3744485010684,134.51346116001514 91.3965652998013,134.53070856943668 91.42605436473968,134.50483745395468 91.0721855853335,133.99603717873106 91.01320745542762,133.84080934309168 90.96897385799093,133.7890666654348 91.00583518916392,133.82356178753253 90.93948479302344,133.82356178753253 90.99846292290022,133.7890666654348 90.98371839046013,133.8925519878394 90.97634612419643,133.81493800835597 91.00583518916392,133.86668066954735 91.02795198789681,133.83218556575594 91.21963091008365,134.6773114019088 91.16802504638326,134.65144033299293 91.11641918277019,134.61694556169095 91.0721855853335,134.56520337729307 91.19014184511616,134.54795597519114 91.3744485010684,134.59107447358838 91.47028796217637,134.867032322647 91.42605436473968,134.82391397037281 90.99109065666562,133.86668066954735 91.02795198789681,133.81493800835597 91.00583518916392,133.86668066954735 90.99109065666562,133.83218556575594 91.02795198789681,133.87530444323784 91.02057972163311,133.81493800835597 91.02795198789681,133.85805689497647 90.99846292290022,133.83218556575594 91.24174770881655,134.02190845589212 90.99846292290022,133.83218556575594 90.99109065666562,133.78044288262754 91.10167465027189,133.82356178753253 90.96160159172723,133.83218556575594 91.02795198789681,133.86668066954735 91.22700317628914,133.34062874823576 91.13116371521028,133.34925257763825 91.53663835831685,133.0991611543359 91.60298875445733,133.07328958395374 91.66196688439231,132.9353077363121 91.54401062458055,132.73695842059533 91.381820767303,132.48686511634878 91.30072583869332,132.34025833942724 91.27123677372583,132.38337800710724 91.27123677372583,132.45236942790507 91.27860903998953,132.5817281842901 91.30809810489882,132.50411295509548 91.02057972163311,131.80557256272004 90.92474026055424,131.77970058122446 91.02057972163311,131.8659404875507 90.91736799429054,131.77970058122446 110.76350870812894,177.0 110.80774230553652,176.96552315385634 110.94781536405208,176.93966550965706 111.03628255892545,176.9051886380039 111.22796148111229,176.8879501966876 111.28693961104727,176.8534733031629 111.25007827984518,176.8362348508963 111.15423881873721,176.8534733031629 111.43438493579742,176.55179986279109 111.39015133836074,176.51732282710145 111.34591774092405,176.53456134677253 111.28693961104727,176.12945517099433 111.26482281231438,176.08635865087126" stroke="#4dd2ff" stroke-linecap="round" stroke-linejoin="round" stroke-width="0.5"><title>2023-12-07 3.4km</title><desc>9223370334912122537</desc></polyline><polyline fill="none" points="152.9350365580758,177.0 153.54642762511503,176.8808032644156 153.41056294355076,176.60267740051495 153.47849528421648,176.24508670091745 153.58039379538968,176.08615739189554 153.7841908178525,176.00669271187508 154.05592018098105,175.3709746672248 154.531446566456,174.9339178863156 154.66731124813668,174.3379305464332 154.6333450776292,174.09953534524539 154.25971720332745,173.900872561906 153.92005549941678,173.78167484141886 153.61435996589717,173.66247708306764 153.20676592108794,172.90755706682103 152.9350365580758,172.78835903067375 151.91605144611094,172.82809171354165 151.6443220829824,172.70889365216135 151.27069420868065,171.95397171674995 151.03293101582676,171.87450616134447 150.38757377839647,171.75530779690598 149.77618271124084,171.079849682661 149.6063518592855,170.84145241082297 148.92702845134772,170.12625968590146 148.7571975995088,169.88786180788884 148.68926525872666,169.49053167452803 148.04390802106354,168.6958701449912 147.9080433397321,168.41773821192328 147.3645846132422,167.74227408712613 147.09285525011364,167.34494168075616 146.78715971647762,167.0668087459344 145.97197162697557,166.03374175349018 145.15678353758994,165.35827333547059 144.681257152115,164.7225372424873 144.61332481144927,164.92120488730143 144.5793586409418,165.00067191573908 144.61332481144927,165.0801389273547 144.74918949289713,164.96093840355752 144.71522332262248,164.84173784207087 144.5793586409418,164.68280370085267 143.86606906261295,164.12653367657913 143.79813672183082,163.92786561089451 143.79813672183082,163.3715944669675 143.05088097322732,162.49745243100915 142.26965905423276,161.74250994215254 142.03189586137887,161.26570337693556 141.21670777199324,160.70942828449188 141.08084309042897,160.55049239224172 140.16375648975372,159.7558119208261 140.02789180807304,159.59687562458566 139.99392563779838,159.43793926085345 140.0618579784641,159.27900282980409 139.68823010416236,158.88166145747527 139.6542639337713,158.56378805660643 139.82409478572663,158.24591438632342 140.67324904550333,157.3320260833425 142.9829486324452,154.7890208248864 144.00193374429364,153.7559200131218 145.05488502641674,152.60361190419644 145.4285129008349,152.16652859188616 146.20973481982946,151.41156530714943 147.33061844285112,150.29898506458267 148.38356972520705,149.10693114201422 149.1647916442016,148.47116750077112 149.97997973358724,147.47778465336887 150.2517090968322,147.3188431537128 150.52343845996074,147.35857853491325 150.8970663343789,147.04069536691532 151.23672803817317,146.28572176321177 151.57638974208385,146.00757321028505 152.9350365580758,145.53074663956068 153.37659677304327,145.3718043146073 157.82616509473883,143.66317006657482 158.87911637686193,142.86845381028252 159.96603382949252,142.11347180686425 161.290714474977,141.1995441899926 162.44556426838972,140.40482271267683 163.6343802320771,139.64983574926737 164.7212976848241,138.89484726567753 165.23079024080653,138.6166932307242 165.23079024080653,138.6166932307242 167.1668619532138,137.424602172483 168.08394855377264,136.8682917150727 169.13689983612858,136.153034199815 170.35968197032344,135.3185653745022 174.12992688408121,132.73567390770768 175.3187428477686,131.94093449242064 176.50755881157238,131.06671919021755 177.45861158252228,130.4309249628277 177.45861158252228,130.39118778787088 177.93413796811365,129.47723160061287 178.17190116085112,128.76195998702315 178.37569818331394,128.56327318560216 178.3077658424154,128.20563667765236 178.03603647940326,127.96721214952413 177.7982732866658,127.8877372732095 177.93413796811365,127.5301001208718 178.44363052397966,127.21220014369464 179.25881861359812,126.89429989692871 179.42864946543705,126.29823620777461 179.56451414723415,126.13928573054727 179.36071712477133,126.09954810081399 179.0550215911353,126.02007282854174 178.88519073929638,125.90085988852661 180.3457360662287,123.0 180.27780372533016,123.87423410994234" stroke="#4dd2ff" stroke-linecap="round" stroke-linejoin="round" stroke-width="0.5"><title>2023-12-07 2.1km</title><desc>9223370334931320746</desc></polyline><polyline fill="none" points="50.75542416074313,267.0 50.3631290551275,266.6175779409823 50.16698150173761,266.15867120266194 49.643921359907836,265.7762486980646 49.186243736417964,265.24085685116006 48.27088848873973,264.70546460704645 47.42091575823724,263.2522550866124 47.09400317003019,262.5638916611206 46.244030439760536,262.33443704020465 44.93638008600101,260.3458272701828 44.413319944404066,259.9634016864584 44.086407355964184,259.5044907182455 42.451844413531944,257.89830003347015 41.99416678957641,257.43938775279094 41.66725420113653,255.9861636062269 41.53648916585371,255.14482197380858 40.55575140030123,253.07970653730445 39.83654370578006,250.4791823994019 39.051953493151814,248.18459449824877 38.20198076334782,245.88999930367572 37.613538104109466,244.36026512208628 37.613538104109466,243.36593616585014 37.74430313939229,242.6010668060626 36.76356537383981,240.53591548651457 35.652062573237345,238.62373307126109 34.86747236107476,236.55857037357055 34.148264666320756,235.7936938009807 33.952117113396525,235.33476746856468 33.82135207741521,234.64637742261402 32.97137934761122,232.58120334672276 32.84061431209557,231.8928106748499 31.990641582058743,229.90411704714643 31.859876547008753,229.5981636950164 30.879138781223446,228.52732594159897 30.159931086702272,226.76808904082282 29.63687094533816,225.77373585256282 29.309958356665447,224.39693686913233 28.721515697659925,223.40258041449124 28.0676905203145,221.2608849373064 27.93692548503168,220.80194936535554 28.13307303818874,220.41950283263577 29.89840101567097,219.42514089908218 31.009903816506267,218.27779850462684 31.33681640541181,217.5893921922543 32.382936688372865,216.44204687973252 33.36367445392534,216.51853662385838 33.75596956000663,216.44204687973252 34.67132480768487,216.595026360068 35.19438494928181,217.13045428623445 36.50203530327417,216.82449552003527 37.286625515436754,216.05959803704172 37.613538104109466,215.52416931674816 39.248101046308875,214.37682072154712 40.42498636501841,213.76490072516026 40.621133918175474,213.1529802099103 40.948046506615356,213.0 40.817281471332535,213.38245046377415 41.34034161269665,213.84139075299026 41.47110664797947,214.14735078363447 41.144194059539586,214.37682072154712 41.53648916585371,214.22384077124298 41.60187168372795,213.9178807727294 41.0134290244896,213.9943707846105 40.621133918175474,213.84139075299026 40.817281471332535,213.30596038728254 39.83654370578006,213.68841068900656 39.57501363474876,213.9943707846105 37.613538104109466,214.9122502928949 37.22124299779534,214.98874019930372 36.69818285643123,214.9122502928949 36.37127026799135,214.75927045597928 35.06361991376616,215.4476794670336 34.54055977240205,215.90661844308488 33.82135207741521,216.82449552003527 32.317554170498624,217.28343362052692 31.140668852021918,218.12481938058045 30.617608710657805,218.27779850462684 30.029166051419452,218.73673568107188 29.179193321149796,218.88971467525698 28.590750662144274,219.65460915898439 28.00230800267309,220.49599215533817 28.00230800267309,220.87843864766182 28.590750662144274,222.17875520564849 28.721515697659925,222.7906680695014 29.63687094533816,224.24395904218545 29.76763598038815,225.2383143377374 30.421461157267913,226.30915697023738 30.813756263582036,226.69160038256086 30.879138781223446,227.99190646910574 31.009903816506267,228.3743489899207 31.009903816506267,228.75679130805656 31.46758144069463,229.827628721192 32.513701723888516,230.8984645458986 32.77523179468699,231.8928106748499 34.148264666320756,233.4990592211252 34.148264666320756,234.72286523785442 34.4097947368864,235.7172060990706 35.32514998456463,237.17047104798257 35.913592644035816,238.92968259810004 36.50203530327417,239.77104312810116 36.69818285643123,240.45942828722764 37.02509544463828,240.68888986099046 37.482773068826646,241.83619663573336 37.87506817490794,242.67755377863068 38.07121572829783,243.28944926633267 37.94045069254935,243.671883682895 38.13659824547358,244.97215918381698 38.85580594022758,247.1902708093403 39.50963111710735,249.3318893603282 40.22883881186135,250.9380991042126 40.22883881186135,251.32052946917247 40.882663988973945,253.5386215893668 41.92878427216783,255.5272501099971 42.582609448814765,256.3685912970104 42.84413951984607,256.9039897234179 44.544084979686886,258.73963845690014 45.06714512151666,259.3515203309944 45.3286751920823,259.73394623881904 45.851735333912075,259.9634016864584 46.309412957401946,260.422312362527 46.70170806371607,261.4166178270243 47.94397590006702,262.4109219221282 48.40165352378972,263.0228006843827 50.03621646622196,264.47601066698553 50.951571714133024,265.54679509811103 51.47463185549714,265.929217724246 52.06307451496832,266.31164014787646" stroke="#4dd2ff" stroke-linecap="round" stroke-linejoin="round" stroke-width="0.5"><title>2023-12-06 2.1km</title><desc>9223370335016772765</desc></polyline><polyline fill="none" points="88.17521435557865,267.0 88.50186589278746,267.0 88.92651289096102,266.88543994369684 89.74314173392486,266.6945064358297 90.10245842474978,266.50357282703044 90.52710542292334,266.3508258673246 91.24573880468961,266.38901261333376 92.55234495340846,266.1217053066939 93.7282904869644,265.7398373828619 94.61024963727687,265.3961559063464 95.68819970986806,265.0906609861704 97.15813162690029,264.63241812147317 97.84409985493403,264.3269225555123 98.23608169949148,263.9832397350983 98.79138931259513,263.6777436202974 98.9220499274088,263.0285635187465 98.46473777550273,262.07388477996574 98.04009077732917,261.0046415978868 97.41945285652764,259.7062706229917 96.96214070462156,258.7515831060591 96.37416793778539,257.3768286500999 96.30883763032034,257.0331392188091 95.94952093949541,256.53669835207984 95.52487394132186,255.5438145720109 95.06756178918295,254.51274006639142 94.67557994474191,253.40528639403055 94.21826779271942,252.37420578557067 93.76095564069692,251.26674555812497 93.00965710519813,249.51007754483726 92.29102372343186,247.60064610361587 92.12769795500208,247.02781470335322 91.50706003443338,245.6912045708159 91.24573880468961,245.4238819508755 90.62510088412091,244.0490767811425 90.33111450076103,243.24710468263947 90.20045388594735,242.48332007665886 90.26578419329599,242.17780578212114 89.71047658019233,241.18488254066324 89.35115988936741,240.00100895520882 88.92651289096102,238.93170044673025 88.59986135386862,237.74781947751762 88.20787950942758,236.52574473019922 87.88122797233518,235.49461594645982 87.52191128139384,234.42529409902636 87.16259459056892,233.2795886072272 86.80327789974399,232.2102602031373 86.41129605507012,231.1027381620952 86.0519793642452,230.0334033141262 85.7253278271528,228.9258745989937 85.36601113632787,227.74196083797142 84.974029291654,226.36708837535116 84.51671713974793,224.99221067951294 84.15740044880658,223.73190152805182 83.8634140654467,222.62435349210864 83.50409737462178,221.4404190776695 83.11211553006433,220.2946724013309 82.72013368539046,219.11073035097797 82.5894730706932,218.69062094876426 82.5894730706932,218.3087028863083 82.72013368539046,217.92678442006581 82.98145491501782,217.62124935627799 84.05940498772543,217.08656237271498 85.1373550602002,216.62825861410238 86.31330059410539,216.05537809801172 87.68523704994004,215.44430454616668 88.63252650760114,215.0241908794851 90.00446296366863,214.451307819254 91.3437342660036,213.9166161432513 92.22569341608323,213.64927000834723 93.53229956468567,213.42011602109415 94.80624055955559,213.19096188843832 96.04751640069298,213.07638476745342 97.28879224183038,213.0 98.53006808285136,213.11457714511198 99.64068330917507,213.22915425393148 100.7839636891149,213.3437313262839 101.95990922267083,213.49650069972267 103.13585475657601,213.61107768726652 104.31180029024836,213.68746232546982 105.45508067018818,213.7256546386052 106.63102620386053,213.9166161432513 107.74164143030066,214.0311929975869 108.10095812100917,214.0311929975869 109.17890819360036,214.14576981554274 110.22419311245903,214.2603465972643 111.46546895359643,214.41311558283633 111.82478564430494,214.48950005156803 112.2167674889788,214.75684556446504 112.6740796410013,215.40611241478473 113.39271302276757,216.8574105661537 113.71936455974355,217.46848172746832 113.81736002082471,217.85040067826048 114.01335094321985,218.2323192252952 114.24200701911468,219.07253860734636 114.60132371005602,219.7981810461788 115.1892964768922,220.71477993801818 115.6792737825308,221.78414237205288 116.16925108828582,222.8153102923534 116.59389808645938,223.88466650785995 117.01854508486576,224.99221067951294 117.41052692942321,225.9851784291386" stroke="#4dd2ff" stroke-linecap="round" stroke-linejoin="round" stroke-width="0.5"><title>2023-12-01 3.0km</title><desc>9223370335427680657</desc></polyline><polyline fill="none" points="168.86494657804724,266.95853109988093 169.05958612356335,267.0 169.2365311650792,266.97926555106824 169.53733773564454,266.83412434649654 169.53733773564454,266.70971751345496 169.48425422306173,266.62677958056156 169.43117071071174,266.4816381129349 169.07728062779643,266.2950274953764 168.95341909874696,266.1291512405296 168.79416856134776,265.7351945683622 168.6703070324147,265.13389074064617 168.6172235199483,264.926544162081 168.44027847843245,264.366707295776 168.21024992445018,263.8483383900457 167.8917488498846,263.22629387940106 167.62633128766902,262.72865683826967 167.57324777520262,262.54204261963605 167.36091372545343,262.0236688502773 167.13088517147116,261.50529369924334 166.88316211348865,260.9661820763722 166.7062170719728,260.38559865725983 166.61774455115665,260.1989821902389 166.47618851810694,259.61839648065506 166.24615996412467,259.03780903771985 166.05152041849215,258.5194259276177 165.80379736050963,257.93883520366217 165.59146331064403,257.27530082516023 165.36143475677818,256.7154419322178 165.16679521114565,256.1763170303748 164.97215566551313,255.63719063384633 164.75982161576394,255.09806274266157 164.54748756589834,254.55893335673318 164.512098557665,254.3930470910709 164.24668099544942,253.87465159887506 164.19359748298302,253.68802888331993 163.9989579373505,253.35625472466927 163.91048541665077,253.00374406077026 163.62737335031852,252.3194568300969 163.60967884620186,252.15356865391368 163.39734479633626,251.697375439835 163.36195578810293,251.51075063468306 163.14962173835374,250.9716113024624 162.91959318437148,250.4324704754108 162.67187012627255,249.8933281534264 162.56570310145617,249.72743790745153 162.37106355582364,249.12608457928582 162.15872950607445,248.566202222617 161.92870095209219,248.0063182537706 161.68097789399326,247.42569613878732 161.52172735671047,246.88654547944316 161.36247681942768,246.53402308622026 161.16783727379516,245.87044978851918 160.9378087199293,245.3105580570409 160.7254746700637,244.75066471322498 160.51314062031452,244.21150663604203 160.44236260373145,243.85897939259303 160.30080657056533,243.71382093009015 160.01769450411666,243.02950100429007 159.8407494627172,242.67697161762044 159.59302640461829,242.1170706897101 159.3806923548691,241.57790530922648 159.1683583051199,241.0180012161436 158.93832975113764,240.43735823125462 158.7083011972718,239.85671351225756 158.602134172339,239.48344099141832 158.42518913093954,238.96500574577658 158.283633097657,238.44656911763013 158.07129904802423,237.94886865391163 157.84127049404196,237.24379081588995 157.57585293182638,236.60092349961633 157.46968590701,236.24838245587307 157.23965735302772,235.70920079945063 156.9919342949288,235.19075548878754 156.95654528669547,235.04559055402933 156.76190574106295,234.56861929086153 156.56726619543042,234.02943297554157 156.40801565814763,233.69762526887644 156.40801565814763,233.51098318508593 156.07182007923257,232.86810352456814 156.03643107099924,232.68146064433677 156.0541255751159,232.49481758481124 156.01873656676617,232.3081743461662 155.96565305441618,232.14226909464924 155.8417915252503,231.9971018834476 155.80640251701698,231.81045816691767 155.66484648385085,231.2920024584455 155.61176297138445,230.93945178683498 155.41712342575192,230.25508689315757 155.18709487188607,229.59145802864805 155.0101498303702,228.92782689855085 154.85089929308742,228.47157918234007 154.67395425157156,227.80794422894542 154.4970092101721,227.1235683102277 154.28467516042292,226.4184512070933 154.21389714372344,226.04515288175025 154.10773011890706,225.69259269390022 154.09003561467398,225.56815953373734 153.96617408574093,225.07042609655764 153.8777015650412,224.88377572901663 153.718451027642,224.32382355100708 153.6653675151756,224.03347734220733 153.47072796954308,223.4942618036439 153.2937829280272,222.93430562273716 153.08144887827802,222.24991254413908 152.90450383687858,221.5447777608788 152.69216978701297,220.8603797895339 152.55061375384685,220.3211554480804 152.40905772068072,219.7404506381572 152.23211267928127,219.13900454157556 152.0551676377654,218.53755658390583 151.8959171003662,218.0605448113056 151.71897205885034,217.7494495461433 151.71897205885034,217.3553948289191 151.5420270174509,216.79542096158548 151.3827764800517,216.21470561719616 151.2235259427689,215.63398853776744 151.04658090136945,215.05326972305193 150.88733036397025,214.5140292700089 150.83424685162026,214.34810882950842 150.74577433080412,214.24440848236554 150.7103853225708,214.119967992694 150.7103853225708,213.85034665837884 150.58652379352134,213.53924465402088 150.604218297638,213.43554387518088 150.46266226447187,213.0 150.58652379352134,213.5599848030979 150.78116333903745,214.09922790336714 150.9581083805533,214.76290966496163 151.08196990960278,215.34362934729143 151.25891495111864,215.8621275973128 151.3296929677017,216.02804674522486 151.3827764800517,216.31840491313778 151.5951105299173,216.89911994758586" stroke="#4dd2ff" stroke-linecap="round" stroke-linejoin="round" stroke-width="0.5"><title>2021-03-03 3.4km</title><desc>9223370422090161307</desc></polyline></svg>