<?xml version="1.0" encoding="utf-8" ?>
<svg baseProfile="full" height="300mm" version="1.1" viewBox="0,0,200,300" width="200mm" xmlns="http://www.w3.org/2000/svg" xmlns:ev="http://www.w3.org/2001/xml-events" xmlns:xlink="http://www.w3.org/1999/xlink"><defs /><rect fill="#222222" height="300" width="200" x="0" y="0" /><text fill="#FFFFFF" style="font-size:12px; font-family:Arial; font-weight:bold;" x="10" y="20">Over 1km Runs</text><text fill="#FFFFFF" style="font-size:4px; font-family:Arial" x="10" y="280">ATHLETE</text><text fill="#FFFFFF" style="font-size:9px; font-family:Arial" x="10" y="290">zhangzili</text><text fill="#FFFFFF" style="font-size:4px; font-family:Arial" x="120" y="280">STATISTICS</text><text fill="#FFFFFF" style="font-size:3px; font-family:Arial" x="120" y="285">Number: 8</text><text fill="#FFFFFF" style="font-size:3px; font-family:Arial" x="120" y="290">Weekly: 2.0</text><text fill="#FFFFFF" style="font-size:3px; font-family:Arial" x="141" y="285">Total: 47.6 km</text><text fill="#FFFFFF" style="font-size:3px; font-family:Arial" x="141" y="290">Avg: 5.9 km</text><text fill="#FFFFFF" style="font-size:3px; font-family:Arial" x="167" y="285">Min: 1.5 km</text><text fill="#FFFFFF" style="font-size:3px; font-family:Arial" x="167" y="290">Max: 20.7 km</text><polyline fill="none" points="62.881197272625286,74.15621790866498 62.54420432221377,74.00132162308728 62.14480526983971,74.05023628622075 61.52698486074223,73.78935758523949 61.12758580836817,73.96871182372706 60.778111637569964,73.95240691689105 60.391193805640796,73.63446027702594 59.50502715821494,73.47141001245836 55.93539812779636,73.56108771716754 55.61088639777154,73.74044269244769 55.12411880274885,73.63446027702594 54.73720097079058,73.69968024888294 54.13810239225859,73.38173216301584 54.044493239343865,73.55293520453415 53.49531954235863,73.49586758263104 52.73396509879967,72.81920416988214 52.334566046483815,72.85996725929726 51.81659540045075,72.40341894963785 50.930428753054,72.12622707439004 50.20027736044722,71.46585262397639 50.01929966485477,71.50661670619229 49.91320929158246,71.37617153775864 49.364035594597226,71.19680893114128 48.777418236481026,71.27018461290936 48.527793828747235,71.49031107689007 47.90997341964976,71.70228388468968 47.934935860394035,71.60445038157923 47.267190569778904,71.92240863690313 47.26094995957101,71.81642275394188 47.086212874157354,71.84088105257615 46.7929041950847,71.65336715464582 46.70553565240698,71.71858945179702 46.543279787380015,71.53107514119984 46.45591124467319,71.62075597737567 46.24997110830736,71.35171303459356 46.37478331217426,71.18865607162661 46.118918294261675,71.18050321090777 46.05027158212033,71.05821015674155 45.619669478794094,71.09897453803205 45.58846642784192,70.96037551960035 45.513579105521785,71.15604462160991 45.432451173022855,71.09897453803205 45.55726337686065,71.34356019780171 45.48861666477751,71.52292233073968 44.82087137410417,71.57999197888785 44.92072113719769,71.40063003016257 44.783427712915,71.35986587018851 44.67733733964269,71.53107514119984 44.15312608345994,71.49031107689007 43.94094533691532,71.68597831280567 43.49786201317329,71.49846389215236 43.44169652144774,71.37617153775864 43.647636657813564,70.91961103664289 43.635155437426874,70.58534114812937 44.03455448980094,69.88418314178489 44.228013405780075,68.67751841502468 44.639893678511726,67.86218957500387 44.901999306632206,66.1336528635511 44.82711198431207,65.2938255214649 44.35282560961787,64.83721503705237 43.223275164695224,64.16860005683338 42.92372587544378,63.345051033596974 42.59921414538985,63.10043016013151 42.54928926384309,62.774267319964565 42.36207095804275,62.60303106230276 42.10620594015927,61.763150345697795 41.80041604069993,61.71422486403753 41.50086675141938,61.48590537979908 40.98913671562332,60.82540444504775 40.88304634235101,59.667470273903746 40.98913671562332,59.349441875121556 40.84560268119094,59.32497807671098 40.87680573214311,59.088494136707595 40.98289610541542,59.064030223391455 40.86432451172732,59.055875583206216 41.0016179359809,59.064030223391455 40.67086559574818,58.998793068512896 40.75823413848411,59.08033950012032 40.995377325773006,58.75415305539718 40.95793366464204,58.077310071683314 40.82688085059635,57.82451117920209 40.352594475931255,57.449388121716765 40.32139142497908,56.84592397430606 40.05304518665071,56.2669184265942 39.709811626031296,56.063041796936886 39.335375014459714,55.47587292242679 38.31191494280938,54.82345578173408 37.87507222927525,54.21996310360919 36.7517623945605,53.89374811491871 36.308679070847575,53.42888844553818 36.077776493737474,52.80091394209012 35.59724950886448,52.61333576515972 35.42875303362962,52.71935829081485 34.75476713280659,52.30342260655016 34.29296197852818,51.82223822276137 34.08078123195446,50.77829844623193 33.65641973883612,50.32972454598348 33.519126314582536,49.889303009811556 33.30070495783002,49.68540296764695 33.082283601077506,48.690360020922526 32.52686929391348,47.817643744252564 32.20235756385955,46.76547224081878 31.884086444042623,46.683907725782774 31.540852883423213,46.3331789458789 31.153935051435838,46.30055290026576 30.648445625818567,45.83562966719546 29.61250433375244,45.9498216990869 29.15693978968193,46.21083117592207 28.651450364035554,46.806254453411384 27.390847105067223,46.91228806601066 26.816710967279505,47.20591855190651 26.485958627075888,47.10804189580085 26.542124118830543,47.28748230024212 26.361146423208993,47.44245309201142 26.192649947974132,47.36904592875362 26.16144689702196,46.9041316414623 26.05535652374965,46.83072376659038 25.225355368078453,46.87966236061766 24.326707500295015,46.51262185422456 24.114526753721293,46.58603014957043 24.00219577027019,47.08357270479246 23.396856581559405,47.60557977401186 23.091066682100063,48.19283186163739 22.541892985114828,48.60064215768216 22.373396509879967,49.3183810051778 21.0379059285915,50.30525677449623 20.43256673985161,50.64780459438407 19.927077314263443,50.77014258946656 19.496475210937206,51.13715495774886 18.941060903744074,51.29211500727979 18.48549635967356,51.977196360770904 18.560383681964595,52.48284622494248 17.980006934027188,53.012958074908966 17.767826187453466,53.404422039358906 17.4932393389754,53.445199376976234 17.156246388563886,53.689862774001085 16.681960013869684,53.730639902070834 16.288801571703516,53.99976819640506 15.814515197067522,53.98345742781021 15.708424823795212,53.85297110659667 15.22165722871432,53.81219406838136 15.109326245234115,53.69801820201974 14.59135559925926,53.681707344803726 14.248122038610745,53.99976819640506 13.811279325076612,53.95083587623958 13.698948341654614,54.04054509692287 13.0,55.02733696142241 13.336992950440617,55.378010839867784 13.967294579953887,55.63897601019562 14.379174852656433,55.98964602710112 14.57263376863557,56.601274479213316 15.371431873354595,57.34337462457552 15.6023344504938,57.32706483780203 15.670981162635144,57.56355627694575 15.78331214611535,57.49016248980115 16.288801571703516,57.83266600015122 16.588350860984065,58.061000500427326 16.63203513235203,58.26486979682886 17.11256211719592,58.607368530338135 18.079856697120704,59.015102364417544 18.441812088305596,59.031411655530974 18.49797758006025,59.194504303279246 18.841211140650557,59.38206025621548 18.747601987764938,59.48806986253476 18.9098578527919,59.43914237705394 19.284294464363484,59.61854294643126 19.21564775222214,59.83056105418291 19.502715821145102,59.977342347006925 19.646249855548376,59.928415292502905 19.54640009245486,60.27090376920387 19.696174737124238,60.173050134173536 19.696174737124238,60.376911679282784 20.12053623024258,60.98849182574122 20.64474748642533,61.63268229881214 20.794522131065605,61.58375670222449 21.156477522250498,61.98331448000681 20.994221657223534,62.0648565305637 21.05038714897819,62.513335669060325 21.268808505730703,62.32579028796681 21.69941060905694,62.61118518176954 22.0988096614019,62.301327800250874 22.51693054434145,62.32579028796681 22.697908239933895,62.45625670705704 22.94129203745979,62.39102353579801 23.228360106324544,62.570414572419395 23.61527793831192,62.43179427682844 23.802496244112263,62.749805029761774 24.02715821104357,62.749805029761774 24.13324858431588,62.98627338389633 24.601294348802185,62.63564753303217 24.788512654573424,63.23089476002133 25.337686351587763,63.279818905990396 25.531145267537795,63.410283084613184 25.69964174274355,63.32058899471667 25.730844793724827,63.858751361822215 25.593551369471243,64.02182983774765 26.42355252514244,64.33167762325684 26.492199237283785,64.70675420937914 26.69813937364961,64.64152368065697 27.14746330754133,64.91875289880409 27.29099734200281,65.1796732521725 27.266034901200328,65.75043225309128 27.365884664293844,65.97058058643961 27.95874263261794,66.1907280474552 27.883855310326908,66.74516963986753 28.345660464576213,66.90008615465194 28.67017219463014,67.39744678260831 29.11949612852186,67.47898088700094 29.600023113394855,67.06315570357401 30.20536230210564,67.23437821483458 30.841904541797703,67.5931284321523 31.141453831049148,67.48713429084819 31.465965561103076,67.55236147867254 32.258523055614205,67.97633633286387 32.57055356525234,68.35138831474978 33.132208482624264,68.44922754582876 33.5628105859214,68.8895019536576 34.21183404602925,69.07702517905636 34.704842251259834,69.70481571890559 35.31642205017852,69.42761038105527 36.18386686700978,69.81080562967327 36.47717554605333,69.67220339801497 36.83913093726733,69.68035648005389 37.20108632845222,69.13409733945082 37.456951346364804,69.02810613780457 37.78146307641873,69.36238539469196 38.143418467603624,69.24824148431799 38.37432104474283,69.38684477355127 38.79244192765327,70.07985603359339 39.27296891252627,69.67220339801497 39.65988674448454,69.97386663605721 39.67236796490033,70.17769222111747 40.090488847810775,70.09616207680665 40.67710620595608,70.5282704783749 41.594475904305,70.45489381685184 42.28718363575172,70.8788465237485 42.95492892639595,71.00113997267181 43.58523055590922,71.43324133662827 43.57898994570132,71.5473807585222 43.89726106551825,71.66151994599568 44.03455448980094,71.66151994599568 44.04079509997973,71.51476951904624 44.17808852423332,71.47400544281118 44.63365306830383,71.51476951904624 44.77718710276531,71.34356019780171 44.91448052698979,71.40063003016257 44.852074425056344,71.56368637109335 45.27019530799589,71.44139416026519 45.45117300361744,71.50661670619229 45.56350398706854,71.33540735982751 45.41996995266527,71.10712741069437 45.513579105521785,71.14789175612532 45.62591008900199,70.93591683340856 45.619669478794094,71.07451591283098 46.05027158212033,71.03375151361251 46.13764012482716,71.16419748589396 46.40598636312643,71.17235034901023 46.26245232866495,71.34356019780171 46.349820871371776,71.5473807585222 47.267190569778904,71.8245755213502 47.24846873918432,71.93056138874454 47.36704033284332,71.7838116723542 47.404483994003385,71.85718657898906 47.5043337570969,71.73489501411677 48.52155321853934,71.47400544281118 48.72125274472637,71.27833746047327 49.376516814983916,71.16419748589396 49.769675257150084,71.37617153775864 50.23148041142849,71.45769980390833 50.992834854958346,72.11807435125593 52.09118224892882,72.50940371298202 52.359528487257194,72.81920416988214 52.690280827489914,72.77028842310392 53.514041372953216,73.47141001245836 54.08193690053304,73.52847765947809 54.16930544321076,73.38988470074764 54.76216341156396,73.69152775660041 55.13660002310644,73.60185026238105 55.673292499704985,73.74044269244769 55.98532300937222,73.55293520453415 58.36299549290561,73.55293520453415 58.53149196811137,73.45510495966664 59.10562810586998,73.56108771716754 59.5549520397617,73.46325748667368 60.39743441581959,73.65891777543584 60.828036519145826,73.93610200522744 61.608112793270266,73.76490014421506 62.2758580839145,74.10730333880201 62.69397896682494,74.16437033280454 63.455333410413004,73.87903477683722 64.21044724373496,74.01762651558602 64.73465849997592,73.77305262574009 65.15901999309426,73.90349216762479 65.27135097657447,73.58554524788269 65.83300589391729,73.52847765947809 65.88293077546405,73.1942234647031 66.85646596556762,72.98225634817936 66.99375938982121,72.69691472216073 67.0,72.34635014718515 66.84398474518093,72.11807435125593" stroke="#ff0000" stroke-linecap="round" stroke-linejoin="round" stroke-width="0.5"><title>2023-09-23 20.7km</title></polyline><polyline fill="none" points="133.0,42.85269081959268 133.73255813959986,36.471986631222535 148.0697674418334,37.637697497732006 148.48837209306657,40.88940477534197 141.84302325593308,60.39926174801076 141.84302325593308,61.319521649507806 143.0988372093998,61.99437797331484 187.0,62.055728508741595 179.2034883722663,74.38705309806392 176.63953488389961,75.92078142252285 171.40697674429975,81.81026012421353 167.5348837210331,82.2396989169647 164.44767441856675,81.56486638402566 161.62209302326664,83.52801336877747 141.16279069753364,83.40531687863404 138.96511627919972,82.54644071520306 139.12209302326664,78.43608700722689" stroke="#4dd2ff" stroke-linecap="round" stroke-linejoin="round" stroke-width="0.5"><title>2023-07-28 3.3km</title></polyline><polyline fill="none" points="13.045302013400942,99.65666819366743 26.001677852356806,100.98461448049056 29.172818792052567,100.4534363913699 47.248322147643194,102.57814534206409 67.0,108.73974994604941 66.59228187915869,110.97065691984608 53.31879194639623,131.20771288589458 48.69798657717183,134.7132609237451 45.164429530035704,139.22794546882506 39.22986577171832,138.85614946705755 38.27852349006571,140.29021822786308 25.00503355707042,139.7590821320191 20.61073825508356,140.34333180630347 17.43959731562063,139.59974119259277 18.798657718114555,129.18935583380517 22.28691275161691,114.05141675868072 21.65268456377089,112.88285492922296 23.192953020101413,107.78364389267517 13.271812080405653,107.25247306845267 13.0,105.81830900811474" stroke="#4dd2ff" stroke-linecap="round" stroke-linejoin="round" stroke-width="0.5"><title>2023-07-25 3.7km</title></polyline><polyline fill="none" points="136.86332087556366,121.20095873528044 137.29578216769733,120.25443105201703 137.2669514148729,117.4486359229777 133.2883075280115,117.17819652348408 133.0,115.69077569356887 137.23812066204846,96.31986128323479 152.51841964758933,96.1846325804363 154.13294180459343,96.89458262515836 155.40149492793716,96.31986128323479 168.31767218373716,96.42128277235315 172.18099305930082,101.12044277737732 174.054991991492,102.60793211733107 175.6983449012041,105.48147126164986 180.83021890022792,111.66794341485365 181.14735718106385,112.74971846785047 182.5312333155889,113.62865797468112 185.64495461818296,118.9698532379698 186.65403096645605,124.75041232732474 187.0,143.17312699076138 186.5963694609236,143.8153674195637 165.08862786972895,143.57875267637428 160.99466097168624,143.34213775626267 160.70635344367474,142.9703139529738 158.9476775226649,143.07172048813663 155.19967965828255,142.29426955486997 154.24826481577475,142.29426955486997 153.67164975975174,143.4435441722162 140.81313400971703,143.00411613489268 140.49599572864827,139.8266952446138 142.4853176722536,132.42385685260524 143.4655632674694,126.44061432764283 143.09076348110102,125.79833863122622 144.07100907631684,122.78976669476833 137.72824345971458,122.2827011916379 137.2669514148729,121.403785727598" stroke="#4dd2ff" stroke-linecap="round" stroke-linejoin="round" stroke-width="0.5"><title>2023-07-22 6.4km</title></polyline><polyline fill="none" points="13.0,172.75757515744772 18.61525129992515,171.87969811749645 67.0,176.70801255118567 66.9064124780707,188.12030188238714" stroke="#4dd2ff" stroke-linecap="round" stroke-linejoin="round" stroke-width="0.5"><title>2023-07-19 1.5km</title></polyline><polyline fill="none" points="133.0,171.99296273858636 133.63316582911648,166.79615196501254 134.44723618100397,166.37192011156003 146.20603015087545,167.32644127175445 146.74874371849,168.22793179290602 150.14070351747796,167.16735453924048 164.70351758785546,167.96278769202763 168.72864321619272,169.76576478479546 175.15075376885943,171.5687353274261 175.376884422265,171.0914790565148 178.2713567840401,172.6293031751993 182.25125628151,173.21261452548788 183.06532663316466,174.06106617461774 186.9095477387309,174.27317886028322 186.41206030151807,175.06860062398482 187.0,175.33374092870508 186.50251256278716,175.49282504341681 186.95477386959828,178.6214689380722 182.52261306531727,184.50750823345152 182.43216080404818,186.94674730321276 182.07035175873898,186.41647895993083 176.5979899498634,191.0297945702623 171.26130653265864,188.90873524712515 167.5979899498634,189.96926604170585 166.42211055289954,189.65110704122344 165.15577889466658,190.81768904576893 161.98994974861853,189.1738681581628 160.85929648252204,190.4995305891498 158.7788944724016,189.2799212829559 157.4221105526667,190.81768904576893 155.83919597999193,188.8026820429659 156.69849246228114,191.29492634825874 156.56281407014467,193.62807988843997 154.75376884429716,190.71163624958717 152.3115577888675,189.0678150106687 151.18090452253819,189.0147884284961 150.6381909546908,190.02229252184043 149.19095477368683,189.2799212829559 148.06030150759034,190.34045128442813 147.0201005025301,189.59808052133303 146.11557788937353,190.23439838626655 143.0402010048274,188.74965543235885 142.04522613063455,189.38597438507713 141.36683417088352,188.06030897976598 142.90452261292376,187.3709615697735 142.22613065340556,180.00018710564473 141.41206030151807,178.7275243177428 142.81407035165466,180.15926972473972 142.63316582911648,178.67449663081788 144.44221105519682,176.50035658621346 142.31658291467465,176.28824485253426 139.19597989949398,173.21261452548788 140.01005025138147,174.00803798891138 138.8341708544176,174.80346017770353 135.1708542711567,174.37923516900628" stroke="#4dd2ff" stroke-linecap="round" stroke-linejoin="round" stroke-width="0.5"><title>2023-07-17 3.6km</title></polyline><polyline fill="none" points="13.0,222.79998716301634 13.270000000018626,218.2095625490765 13.854999999981374,217.57639718445716 22.359999999869615,217.68192480163998 26.18500000005588,218.36785376345506 26.40999999991618,219.00101811322384 30.19000000017695,218.57890863684588 36.93999999994412,219.7397088286234 39.235000000102445,219.47589084276115 41.26000000000931,220.47839843892143 42.925000000046566,220.0035266734194 47.78499999991618,223.90801429731073 49.9000000001397,220.68945241020992 50.70999999996275,221.63919416524004 54.669999999925494,222.4306442324305 62.860000000102445,227.60142012193683 66.05500000016764,226.17682400500053 67.0,226.5461641336733 66.55000000004657,229.2898250129365 59.574999999953434,238.89251804962987 60.205000000074506,238.7869949649612 59.574999999953434,240.68640703859273 57.955000000074506,241.6888715767418 56.514999999897555,244.27416546837776 54.80499999993481,245.01281838020077 55.34499999997206,245.856991783774 54.48999999999069,246.96496718630078 55.03000000002794,247.33429176805657 53.77000000025146,249.44471265139873 52.23999999999069,248.7060663679149 52.37500000023283,251.02752239568508 50.35000000009313,252.3992867374618 50.03500000014901,255.24832358118147 45.89500000001863,257.35871064744424 44.2750000001397,261.5266986118222 42.52000000001863,262.42360281554284 41.3499999998603,261.8432532226434 39.28000000002794,256.6200762000808 38.46999999997206,257.7280274570512 37.52499999990687,257.6752679296478 29.199999999953434,254.82624508586014 26.679999999934807,257.30595108060515 22.62999999988824,257.6225083966565 19.389999999897555,256.93663395554177 17.544999999925494,252.3992867374618 20.649999999906868,243.79931658448186 20.875,239.7894633586111 22.08999999985099,238.04833274125122 22.08999999985099,233.03595275161206 23.125,231.40032300871098 22.674999999813735,230.134025293577 23.709999999962747,228.60391122224974 23.93500000005588,224.96327592321904 21.415000000037253,225.27985397115117 18.984999999869615,224.59393461054424 17.274999999906868,226.07129820337286 17.18500000005588,225.01603894529399 14.125,224.33011921821162 13.089999999850988,223.3276194417267" stroke="#4dd2ff" stroke-linecap="round" stroke-linejoin="round" stroke-width="0.5"><title>2023-07-14 4.3km</title></polyline><polyline fill="none" points="133.0,223.60506498845643 133.89925062446855,218.38582381929155 143.0266444629524,218.64942318203975 147.07327227294445,219.86197843632544 148.87177352188155,219.22934128416819 154.62697751889937,219.49294019612717 165.91257285582833,217.70046481743339 166.45212323055603,221.49628732487326 172.34221482090652,222.07620208070148 173.3763530391734,222.81427442081622 172.88176519563422,223.02515202952782 173.64612822653726,222.60339672199916 177.5578684429638,223.81594225898152 178.59200666099787,224.870327260287 185.3813488758169,226.6100575864548 186.77518734382465,227.82259327711654 187.0,229.82590658514528 185.9658617817331,231.98736708491924 180.07577019161545,238.78799811631325 179.44629475427791,241.47659383428982 178.36719400482252,241.16028921602992 177.69275603652932,239.84235112415627 177.37801831797697,241.52931125086616 176.74854288087226,241.84561563265743 176.20899250614457,240.84398439506185 175.39966694405302,243.9015891715826 175.62447959999554,246.32657259167172 173.9608659450896,248.3298107762239 172.29725228995085,248.1716606891132 172.20732722710818,250.28032435273053 169.68942547868937,255.4992281718587 166.94671107409522,257.7132919054129 165.0582847627811,258.13501720450586 162.5403830143623,261.8250981993624 161.77601998322643,260.243638294487 160.06744379689917,262.2995351825957 160.02248126547784,259.03118226877996 158.04412989178672,257.8187232640339 155.84096586192027,258.1877328416449 152.73855120735243,257.1334190305497 147.38800999172963,260.2963537063915 144.8251457118895,258.45131094241515 143.29641965031624,258.39859533359413 140.73355537070893,261.03436888044234 139.20482930913568,260.1909228771401 138.62031640321948,260.9289382088464 138.53039134060964,251.12378729498596 137.7210657785181,250.33304082875839 140.5986677769106,247.2754759034142 139.56452955887653,247.43362627795432 139.20482930913568,246.69559076311998 140.23896752716973,246.22113877773518 139.92422980838455,244.3233262746944 141.45295587019064,240.79126690514386 140.9134054952301,240.21137414468103 141.58784346375614,239.68419831662322 142.53205661964603,231.56561943830457 143.29641965031624,231.56561943830457 143.29641965031624,230.03678119712276 144.55537052452564,228.5079382187978 143.74604496266693,225.81927183509106" stroke="#4dd2ff" stroke-linecap="round" stroke-linejoin="round" stroke-width="0.5"><title>2023-07-13 4.2km</title></polyline></svg>