<?xml version="1.0" encoding="utf-8" ?>
<svg baseProfile="full" height="300mm" version="1.1" viewBox="0,0,200,300" width="200mm" xmlns="http://www.w3.org/2000/svg" xmlns:ev="http://www.w3.org/2001/xml-events" xmlns:xlink="http://www.w3.org/1999/xlink"><defs /><rect fill="#222222" height="300" width="200" x="0" y="0" /><text fill="#FFFFFF" style="font-size:12px; font-family:Arial; font-weight:bold;" x="10" y="20">Over 4 km Runs</text><text fill="#FFFFFF" style="font-size:4px; font-family:Arial" x="10" y="280">ATHLETE</text><text fill="#FFFFFF" style="font-size:9px; font-family:Arial" x="10" y="290">lizhimiao</text><text fill="#FFFFFF" style="font-size:4px; font-family:Arial" x="120" y="280">STATISTICS</text><text fill="#FFFFFF" style="font-size:3px; font-family:Arial" x="120" y="285">Number: 34</text><text fill="#FFFFFF" style="font-size:3px; font-family:Arial" x="120" y="290">Weekly: 1.9</text><text fill="#FFFFFF" style="font-size:3px; font-family:Arial" x="141" y="285">Total: 203.1 km</text><text fill="#FFFFFF" style="font-size:3px; font-family:Arial" x="141" y="290">Avg: 6.0 km</text><text fill="#FFFFFF" style="font-size:3px; font-family:Arial" x="167" y="285">Min: 4.0 km</text><text fill="#FFFFFF" style="font-size:3px; font-family:Arial" x="167" y="290">Max: 13.4 km</text><polyline fill="none" points="13.56867063586833,62.45538224220218 17.579510601004586,59.17703443935898 31.416908480692655,46.29500894670491 35.665892068704125,40.31781815206341 38.28547192097176,37.03896144799364 39.08763991401065,35.64614994301519 38.999902789713815,35.35597916695406 39.40098678629147,34.659566895032185 39.06257216416998,35.297944940874004 39.551393284869846,35.77672659952077 40.992788897361606,34.325868142565014 41.143195396114606,33.91962512892496 40.86745014844928,33.614942109110416 38.73669141699793,32.3091503635078 38.222802546515595,31.714285714289872 37.95959117379971,31.714285714289872 33.685539835947566,42.97276634861191 31.617450478952378,45.87429254829476 28.23330425831955,49.26900326390751 21.94129906303715,55.07174045933061 20.32442920212634,56.333804543479346 18.369144719094038,58.335676394286565 15.260743746184744,61.1353486032167 13.142518889624625,62.57142857143481" stroke="#ffb700" stroke-linecap="round" stroke-linejoin="round" stroke-width="0.5"><title>2022-05-08 6.7km</title></polyline><polyline fill="none" points="78.90461470524315,37.87042941128311 60.940384190762416,48.26536323632172 54.899315522110555,52.57034682467929 48.14285714284051,56.6544673708122 53.57981894456316,53.600584122381406 60.940384190762416,48.30215840168239 62.57783175096847,47.65824192708533 79.0,37.63124691489793" stroke="#fff600" stroke-linecap="round" stroke-linejoin="round" stroke-width="0.5"><title>2022-05-05 4.4km</title></polyline><polyline fill="none" points="94.94901884591673,31.714285714289872 96.25530707545113,31.761578633479076 96.75605089671444,32.73108193508233 97.32210912951268,61.909390865126625 98.84611206396949,62.45320765289944 99.97822852944955,62.02761198460939 100.45720088027883,60.23064625202096 100.10885735240299,59.403092847933294 99.93468558846507,53.042682345054345 100.52251529169735,51.90772590544657 105.83475409157109,51.931370872363914 105.74766820960212,54.65053040540079 106.2266405604314,56.44752749396139 107.72887202433776,59.04842644769815 107.83772937674075,59.781403241242515 107.24989967350848,61.12913038046099 105.92183997365646,62.02761198460939 100.1741717638215,62.14583306040731 99.93468558846507,61.720236983092036 100.2177147049224,61.318284612178104 100.67491558520123,61.76752546403441 100.3265720573254,62.0985446353443 99.84759970649611,61.980323542054975 98.36713971302379,62.571428571420256 97.40919501159806,62.24040988954948 97.32210912951268,45.66539347518119 96.95199413120281,44.033854682173114 96.90845119021833,40.936272614693735 95.97227795911022,40.534294115699595 92.16227062314283,40.41606504921219 92.16227062314283,40.20325261942344 92.18404209369328,39.94314834609395 93.07667238393333,39.80127319874009 96.6689650148619,39.635752113885246 96.99553707207087,38.09876651925151 96.88667971966788,35.4976971395954" stroke="#ffe300" stroke-linecap="round" stroke-linejoin="round" stroke-width="0.5"><title>2022-05-03 5.1km</title></polyline><polyline fill="none" points="131.54529845283832,31.714285714260768 132.93123845476657,31.902448097942397 133.29937876784243,32.23173200135352 133.27772345521953,43.3566234971222 133.84076158097014,62.124585822661174 135.94132689654361,62.289212171541294 136.48270970990416,61.81885094870813 137.04574783553835,60.290172171226004 136.5476756473072,58.832040953217074 136.48270970990416,52.99944923669682 136.63429689756595,52.05869862038526 137.06740314816125,51.79999171302188 140.8137722159736,51.870548163191415 141.6799847171642,51.6118411028292 142.28633346804418,51.91758578794543 142.52454190596472,53.234636455978034 142.19971221801825,54.528163053561 142.89268221892416,56.88001611697837 144.0404137831647,58.97315071802586 144.19200097082648,59.8903626636602 143.86717128288,60.784053810319165 142.63281846861355,61.77181478822604 140.55390846566297,62.24217608058825 137.91196033684537,61.93644131964538 137.2839562734589,62.265694126923336 136.50436502241064,61.86588710232172 136.63429689756595,61.34848903040984 137.04574783553835,61.30145280036959 137.1107137731742,61.93644131964538 136.52602033491712,61.95995938856504 136.8508500228636,61.18386219468084 137.26230096095242,61.48959767894121 136.87250533537008,61.98347745582578 136.4177437722683,61.81885094870813 134.6420081446413,62.571428571420256 133.94903814373538,62.21865803244873 133.86241689359304,45.68503990321187 133.4942765806336,43.874050838523544 133.23441283020657,43.49774012828129 132.08668126608245,43.33310405255179 128.6651418862166,43.33310405255179 128.75176313635893,42.83919531389256 129.18486938683782,42.698078390501905 133.23441283020657,42.415844355884474 133.4942765806336,39.85220706983819" stroke="#ffe400" stroke-linecap="round" stroke-linejoin="round" stroke-width="0.5"><title>2022-05-02 5.0km</title></polyline><polyline fill="none" points="166.7314680146519,31.904038940148894 168.063611206715,31.714285714289872 168.43486422754359,32.022634649358224 168.3256721625803,38.99598522883025 168.91530931321904,62.286825906368904 170.85892806900665,62.50027792880428 173.80711382208392,62.23939210435492 174.61513510264922,62.571428571420256 176.3185313155409,62.571428571420256 178.24031165824272,62.144524479226675 179.3977475464344,60.95867679765797 177.23574466083664,62.120807568513555 173.6542449312983,62.073373741906835 172.30026332603302,62.40541038083029 171.4267268065596,61.95478914468549 169.87619948456995,62.476561044488335 168.91530931321904,62.21567520062672 168.47854105348233,32.09379205375444 168.21648009761702,31.785443187167402 166.31653816788457,31.761724031239282" stroke="#fffe00" stroke-linecap="round" stroke-linejoin="round" stroke-width="0.5"><title>2022-04-30 4.1km</title></polyline><polyline fill="none" points="21.38164389145095,66.0 23.83508831798099,66.0951692162198 23.900805579381995,66.3568844156689 23.703653795062564,69.30711375069222 24.054145855945535,70.44913074417855 23.74746530270204,75.89744766714284 24.054145855945535,77.06323275229079 23.83508831798099,78.27659641503124 24.360826409305446,84.08164551499067 24.119863117462955,96.19102145222132 24.42654367070645,96.61924251372693 28.917223201249726,96.85714285713038 33.8898293155944,96.42892211227445 29.859170614974573,96.5716624238994 26.90189385099802,96.28618173737777 24.996093269670382,96.83335283069755 24.38273216318339,96.59545246965718 24.18558037886396,94.12127828833763 24.360826409305446,83.77236275392352 24.251297640264966,79.37099893024424 23.83508831798099,78.03868233211688 24.010334348422475,72.47144255557214 23.725559548824094,68.66472740989411 23.94461708702147,67.47511968709296 23.703653795062564,66.14275381373591 20.395884970086627,66.0" stroke="#ffff00" stroke-linecap="round" stroke-linejoin="round" stroke-width="0.5"><title>2022-04-17 4.0km</title></polyline><polyline fill="none" points="56.09348598995712,66.0 59.93172200524714,66.09583418659167 60.042016143677756,78.26654541338212 60.505251524737105,84.80691588963964 60.32878090336453,96.16241033538245 60.76995745685417,96.78527404463966 62.93172256881371,96.64153637189884 63.35084029473364,96.18636665400118 63.72584036516491,94.53337651179754 63.262604983872734,93.16785655578133 63.2184873286169,86.43599861755501 63.836134503479116,86.10059990207083 68.77731190237682,86.05268577151583 69.26260611123871,86.62765487050638 69.01995900680777,88.87960735009983 69.35084142186679,90.5805398040975 71.02731232508086,93.6469870203 71.0493711528834,94.67711511981906 70.56407694390509,95.58745815634029 69.13025314512197,96.4977986352751 64.87289940414485,96.30614822066855 64.25525222928263,96.54571122120251 63.15231084555853,96.13845401490107 61.65231056383345,96.85714285713038 60.92436925054062,96.68944893652224 60.52731035242323,96.09054136875784 60.32878090336453,94.19798617856577 60.26260442030616,81.90808666023077" stroke="#fffd00" stroke-linecap="round" stroke-linejoin="round" stroke-width="0.5"><title>2022-04-08 4.1km</title></polyline><polyline fill="none" points="84.7225244831061,70.44508541624236 84.57142857142026,70.7402103903587 85.12544691428775,70.62953856898821 85.39406186837004,69.15390924453095 86.31742577324621,67.43847836808709 88.63422975281719,68.41609106586839 89.80942017713096,68.47142751060892 92.15980102587491,69.37525424102205 93.08316493080929,67.06956684644683 92.51235815323889,68.43453654894256 92.00870511413086,68.45298203051789 92.09264728729613,69.37525424102205 92.34447380685015,69.63348980355659 98.5897714907187,72.62162328301929 98.47225244820584,72.97208086325554 102.33359241409926,74.77969577291515 102.66936110676033,75.60971831384813 103.71024405409116,75.57282848609611 105.15404943254543,76.1815098941006 105.23799160576891,76.51351726239955 106.24529768381035,76.62418627973238 108.15917923208326,77.4726469937741 109.51904243731406,78.11821285192855 110.19057982269442,78.78222157691198 110.77817503490951,78.80066623658058 112.23876884812489,79.50156222001533 112.38986475981073,79.94423227768857 113.46432457637275,80.60823578223062 108.62925540178549,87.81992936003371 106.16135551058687,90.90004738644348 102.71972641063621,94.14611560027697 100.28540338866878,95.7875760106981 100.18467278091703,95.65847280310118 103.84455153113231,92.83662763080793 106.32923985691741,90.29140454693697 108.52852479397552,87.4879381526116 114.85776465100935,78.0628787058522 115.42857142852154,78.46866213780595 115.10959117050515,78.2842152111698 113.78330483444734,79.74134193932696" stroke="#ffdc00" stroke-linecap="round" stroke-linejoin="round" stroke-width="0.5"><title>2022-03-19 5.3km</title></polyline><polyline fill="none" points="126.39846634468995,73.13784619880607 126.64385117869824,74.28373887029011 132.53308719117194,77.58659732108936 134.43481965339743,77.11476118699647 136.09116728208028,74.28373887029011 136.52059074118733,71.52011273300741 132.83981823339127,68.6890717438655 128.42289122380316,67.74538931448478 121.0,83.18120576423826 129.2817381422501,89.44981958402786 133.63731894339435,89.71943634387571 147.19483101391234,95.1117535426747 148.3604089745786,94.77473472198471 151.36637318925932,81.63089627685258 146.3359840954654,76.912545620522 142.59386537899263,75.69925120979315 131.6128940640483,68.62166589096887 128.48423743247986,68.2846365456353 121.42942345933989,83.72044318250846 127.50269809714518,88.10173450026195 133.14654927584343,89.6520321618882 132.04231752362102,92.8874268514337 135.35501278052106,94.84213849680964 138.11559216142632,91.53934723039856 148.23771655769087,94.63992715609493 151.67310423147865,82.23753945721546 147.74694689013995,77.99102808441967 142.04174950276501,75.63184591382742 131.79693268961273,68.48685416893568 128.97500710003078,68.08241887408076 126.82788980426267,70.57643345324323 121.24538483354263,83.31601515092188 124.31269525713287,86.07960285787703 133.3919341096189,90.32607373979408 132.22635614895262,92.95483077614335 135.845782448072,94.90954226645408 137.07270661741495,92.14598332485184 133.9440499858465,90.46088199113728 132.34904856584035,92.550407147035 135.6003976140637,94.70733094180468 137.6861687018536,91.26973104901845 148.29906276636757,94.70733094180468 151.55041181482375,84.05746639508288 151.8571428572759,81.83311071852222 151.05964214704,80.687228245195 137.44078386831097,72.32897985167801 135.17097415518947,74.35114427347435 127.68673672247678,71.18308453948703" stroke="#ffdf00" stroke-linecap="round" stroke-linejoin="round" stroke-width="0.5"><title>2022-03-18 5.2km</title></polyline><polyline fill="none" points="169.29670329671353,75.57726382033434 171.4877430263441,74.44041307730367 172.5224006762728,71.43109487358015 166.07100591715425,68.08739535929635 164.7928994083777,68.22114359494299 162.48013524943963,71.49796872847946 157.42857142863795,83.93641329929233 163.51479289960116,88.08252063725377 168.56635672017,89.75433233368676 169.3575655114837,90.82429007661995 168.50549450563267,93.03107362560695 170.93998309387825,94.50225944363046 173.07016060873866,92.29547975206515 169.41842772625387,91.09177929977886 168.20118343178183,92.83045717846835 171.79205409972928,94.63600348151522 173.13102282350883,92.22860754991416 169.47928994102404,90.62367310345871 168.38377007609233,92.89732933277264 171.36601859680377,94.50225944363046 172.3398140319623,93.69979477080051 172.94843617919832,91.76050198584562 169.9661876584869,90.48992842802545 170.27049873187207,89.6874599296134 183.72104818257503,94.76974749786314 184.99915469135158,92.09486312954687 187.92054099729285,82.13084404199617 182.92983939149417,77.71721399400849 178.85207100608386,76.17912535660435 167.59256128477864,68.75613632501336 165.15807269676588,68.35489180951845 162.90617075259797,70.62860820186324 157.5502958581783,83.46830312308157 164.12341504660435,88.21626569511136 169.29670329671353,89.62058752012672 168.322907861555,92.49609632679494 169.9661876584869,93.76666685607051 171.73119188519195,94.1678992563393 172.58326289104298,91.76050198584562 169.41842772625387,90.82429007661995 168.26204564678483,92.42922414059285 170.33136094687507,94.03415514406515 172.03550295857713,94.1678992563393 172.70498732035048,91.82737422524951 169.72273879963905,90.35618373152101 168.20118343178183,92.42922414059285 169.72273879963905,93.76666685607051 171.67032967018895,94.5691314652795 173.13102282350883,92.09486312954687 169.66187658486888,90.22243901347974 168.50549450563267,92.56296850781655 171.60946745588444,94.63600348151522 172.82671175012365,91.62675749108894 169.66187658486888,90.35618373152101 168.20118343178183,92.62984068336664 170.81825866433792,94.70287549222121 172.82671175012365,92.42922414059285 169.72273879963905,90.28931137511972 168.56635672017,92.56296850781655 169.72273879963905,93.56605058425339 171.67032967018895,94.50225944363046 173.0092983939685,92.29547975206515 169.47928994102404,90.55680076841963 168.01859678770415,92.83045717846835 171.0617075234186,94.30164334713481 174.10481825866736,91.42614070919808 183.66018596780486,94.70287549222121 188.28571428568102,81.93022499646759 185.85122569743544,80.9271290518227 181.9560439561028,77.11535355780507 171.0617075234186,70.96297774137929" stroke="#ffe400" stroke-linecap="round" stroke-linejoin="round" stroke-width="0.5"><title>2022-03-14 5.0km</title></polyline><polyline fill="none" points="26.55774165969342,105.15719356655609 19.228400342399254,102.04414752061712 11.775876817991957,117.2708948852378 17.811804961645976,122.34641684324015 22.985457656206563,123.4968642820022 24.27887083007954,125.12102272670018 23.047048759879544,127.55725458631059 24.833190761739388,128.57234913791763 26.49615055602044,128.84304081392474 27.666381522780284,126.33913952752482 24.032506415853277,124.91800309054088 22.985457656206563,127.48958157323068 26.126603934913874,129.11373240401736 27.666381522780284,126.54215882503195 24.710008554393426,125.05334951990517 23.41659538098611,126.47448573133443 23.355004277313128,127.69260059634689 26.188195038586855,129.24907816684572 27.666381522780284,126.06844705570256 24.525235244072974,124.78265663934872 22.985457656206563,127.15121642703889 26.311377245467156,129.1814052881673 27.23524379823357,126.13612018164713 24.27887083007954,124.91800309054088 23.047048759879544,126.54215882503195 23.170230966759846,127.69260059634689 25.941830624593422,129.38442390796263 27.481608212227002,126.27146641770378 24.032506415853277,124.91800309054088 22.985457656206563,127.28656250162749 25.81864841748029,129.04605951457052 27.604790419340134,126.47448573133443 24.094097519293427,125.05334951990517 22.985457656206563,127.35423553077271 25.88023952115327,129.1814052881673 27.604790419340134,126.27146641770378 24.525235244072974,124.78265663934872 23.293413173872977,126.40681263204897 23.355004277313128,127.69260059634689 26.065012831706554,129.31675103999441 27.543199315899983,126.203793302353 23.847733105532825,125.12102272670018 22.985457656206563,127.69260059634689 26.003421728033572,129.1814052881673 27.912745936773717,125.45938867935911 38.69118905067444,129.11373240401736 41.89392643328756,116.12043903645827 23.41659538098611,103.46532212704187 19.166809238959104,102.38252264197217 11.837467921664938,117.13554721907713 17.195893926545978,122.41409026505426 25.07955517526716,124.4442904178868 35.18049615086056,128.6400220649084 38.99914456810802,129.04605951457052 42.57142857136205,115.98509118740913 26.003421728033572,104.95416917128023 19.289991445839405,102.24717260955367 11.714285714318976,117.87995911738835 18.98203592840582,123.22617090679705 38.506415740121156,129.24907816684572 42.3866552610416,116.7295040913159 41.89392643328756,115.51137354620732 36.53550042770803,111.85697145719314" stroke="#ffca00" stroke-linecap="round" stroke-linejoin="round" stroke-width="0.5"><title>2022-03-13 6.0km</title></polyline><polyline fill="none" points="63.38403701549396,105.45372134417994 55.4511278194841,102.15929635462817 48.14285714295693,118.08223406213801 56.388085598591715,124.2591567352647 62.88432620023377,125.22000740328804 74.93984962394461,129.88698115869192 76.06419895892031,129.3379267315031 79.00000000023283,116.50368006993085 75.18970503192395,114.58195827261079 72.62868710211478,110.87576844601426 64.38345864648,107.16956271597883 56.637941006338224,101.54159026994603 55.51359167159535,102.29656431323383 48.392712550470605,118.15086677885847 57.44997108192183,123.98462777660461 60.76055523427203,124.2591567352647 75.8143435511738,129.8183493744582 78.81260844413191,117.19000824709656 78.37536148051731,115.19965503097046 57.26257952582091,102.43383225036087 55.95083863520995,102.43383225036087 54.764025448355824,104.14967962168157 48.33024869882502,118.08223406213801 55.57605552347377,123.4355695975828 76.00173510680906,129.54382218269166 78.43782533262856,120.96480347332545 78.5627530363854,115.95461713557597 73.00347021385096,112.31706637941534 72.62868710211478,111.01303501939401 58.324465008918196,103.12017160787946 57.57489878567867,101.95339437545044 55.70098322723061,102.09066236688523 48.26778484671377,117.73907039599726 57.13765182183124,124.05326002446236 65.07056101807393,125.97496074967785" stroke="#ffe200" stroke-linecap="round" stroke-linejoin="round" stroke-width="0.5"><title>2022-03-12 5.1km</title></polyline><polyline fill="none" points="98.52475811052136,105.21199759846786 96.4963005122263,103.38841647160007 93.17700626072474,101.9025326606934 92.00910643162206,102.30777395761106 84.878770631738,117.50418311858084 90.4723961299751,122.02928357064957 96.92657939670607,124.3255939889932 96.2504268642515,127.49989523459226 98.64769493462518,128.91819621494506 99.69265793985687,128.6480438298313 100.73762094485573,126.2842067963793 97.54126351722516,124.7983630108647 95.9430848036427,127.49989523459226 97.84860557760112,128.51296760485275 99.56972111575305,128.6480438298313 100.67615253292024,126.08159188763238 97.35685828118585,124.7983630108647 96.12749003968202,127.2972806156613 99.01650540716946,129.05327237548772 100.79908935679123,126.2842067963793 97.54126351722516,124.7983630108647 96.18895845208317,127.70250980532728 99.13944223104045,129.12081044760998 100.24587364820763,127.43235703359824 100.79908935679123,126.21666849881876 97.60273192962632,124.7983630108647 96.06602162774652,126.95958947669715 99.26237905514427,129.25588657573098 100.61468412075192,126.21666849881876 97.66420034156181,124.86590142099885 96.12749003968202,126.89205123280408 99.2009106434416,129.25588657573098 100.61468412075192,126.2842067963793 97.66420034156181,124.86590142099885 96.37336368835531,126.62189820368076 96.55776892439462,127.70250980532728 99.01650540716946,129.05327237548772 100.86055776895955,126.41928337543504 97.7871371654328,124.93343982589431 96.4348321002908,126.35174508864293 96.37336368835531,127.56743343005655 98.70916334656067,128.91819621494506 100.67615253292024,126.14913019596133 97.60273192962632,124.93343982589431 96.55776892439462,126.62189820368076 96.61923733633012,127.70250980532728 99.13944223104045,129.05327237548772 100.73762094485573,126.01405357394833 97.35685828118585,125.0685166195617 96.68070574849844,126.08159188763238 96.06602162774652,127.36481882730732 99.13944223104045,129.12081044760998 100.86055776895955,126.2842067963793 97.60273192962632,125.00097822549287 96.31189527595416,126.75697472889442 96.55776892439462,127.90512432751711 98.83210017089732,129.05327237548772 100.79908935679123,126.55435993283754 100.36881047254428,126.01405357394833 97.35685828118585,125.20359339186689 96.31189527595416,126.82451298361411 96.12749003968202,127.49989523459226 99.13944223104045,129.25588657573098 100.86055776895955,126.2842067963793 97.66420034156181,124.7983630108647 96.55776892439462,125.54128522821702 96.31189527595416,127.36481882730732 99.38531587924808,129.25588657573098 100.67615253292024,126.75697472889442 99.63118952745572,125.67636192537611 97.11098463297822,125.20359339186689 96.06602162774652,127.02712771529332 99.26237905514427,129.12081044760998 100.30734206014313,125.94651525502559 97.11098463297822,124.66328617412364 96.12749003968202,127.49989523459226 99.81559476372786,129.12081044760998 100.79908935679123,126.82451298361411 97.29538986901753,125.00097822549287 96.06602162774652,127.36481882730732 99.07797381910495,129.25588657573098 100.79908935679123,126.2842067963793 97.7256687534973,124.93343982589431 96.18895845208317,127.49989523459226 99.32384746731259,129.12081044760998 101.78258395008743,125.81143860094016 111.49459305638447,129.39096268254798 115.18269778043032,116.49109762726584 111.00284575973637,112.23612537805457 96.4963005122263,103.72611697553657 92.25498007959686,102.57793471508194 84.75583380763419,117.57172210834688 90.59533295407891,122.23189944535261 111.24871940817684,129.39096268254798 115.42857142863795,116.35601947054965 111.12578258384019,112.37120418954873 96.68070574849844,103.72611697553657 92.25498007959686,102.4428543469403 84.75583380763419,117.2340271056164 90.53386454191059,122.02928357064957 111.61752988048829,129.52603876794456 115.30563460453413,116.35601947054965 109.7734775186982,111.69580991746625 105.71656232187524,110.07486147485906 96.4963005122263,103.59103679010877 93.17700626072474,102.4428543469403 91.94763801945373,102.84809538640548 84.57142857136205,117.77433904563077 91.70176437101327,122.77220820839284 96.74217416066676,124.12297861330444 95.82014797953889,127.09466594835976 97.97154240193777,128.71558193402598 99.32384746731259,129.18834851426072 100.30734206014313,126.2842067963793 97.2339214568492,124.93343982589431 95.82014797953889,127.22974239848554 96.80364257260226,128.1752769490122 99.26237905514427,128.85065812669927 100.67615253292024,126.35174508864293 97.60273192962632,125.00097822549287 95.9430848036427,127.02712771529332 99.2009106434416,129.32342463190435 100.49174729641527,126.41928337543504 96.80364257260226,125.40620850975392 95.82014797953889,127.22974239848554 98.70916334656067,129.12081044760998 99.81559476372786,128.85065812669927 100.67615253292024,126.82451298361411 97.2339214568492,124.86590142099885 95.82014797953889,127.22974239848554 98.15594763797708,128.85065812669927 99.32384746731259,129.12081044760998 100.86055776895955,126.75697472889442 97.2339214568492,124.93343982589431 95.82014797953889,127.36481882730732 98.89356858259998,129.18834851426072 100.4302788847126,127.36481882730732 100.18440523627214,126.2842067963793 97.29538986901753,124.93343982589431 96.06602162774652,126.62189820368076 96.18895845208317,127.70250980532728 99.13944223104045,129.4585007278365 100.67615253292024,126.41928337543504 97.47979510528967,125.0685166195617 95.82014797953889,127.22974239848554 99.50825270358473,129.12081044760998 100.79908935679123,126.75697472889442 97.17245304491371,125.13605500833364 96.06602162774652,127.02712771529332 99.01650540716946,129.12081044760998 100.79908935679123,126.62189820368076 97.17245304491371,125.00097822549287 95.6972111556679,127.43235703359824 97.97154240193777,128.91819621494506 99.32384746731259,128.98573429783573 100.67615253292024,126.55435993283754 97.41832669335417,125.0685166195617 97.84860557760112,124.0554401439731 108.11383039294742,128.51296760485275 111.74046670459211,129.12081044760998 115.24416619236581,117.36910512280883 111.55606146831997,112.97905857558362 95.38986909505911,102.98317568993662 92.37791690370068,102.24023375479737 84.878770631738,117.16648808884202 93.17700626072474,123.8528247041395 96.61923733633012,123.92036318936152 95.88161639170721,127.02712771529332 96.80364257260226,128.04020064900396 99.38531587924808,129.32342463190435 100.67615253292024,126.75697472889442 96.92657939670607,125.67636192537611 95.88161639170721,127.43235703359824 98.64769493462518,129.18834851426072 99.26237905514427,129.4585007278365 100.5532157085836,127.16220417618752 97.2339214568492,125.20359339186689 95.82014797953889,127.2972806156613 99.26237905514427,129.32342463190435 101.29083665343933,125.87897693057312 106.76152532733977,127.22974239848554 106.39271485479549,127.77004798472626 106.63858850300312,127.02712771529332 111.67899829265662,129.4585007278365 114.38360842340626,121.35389697307255 114.87535571982153,116.28848038404249 110.14228799077682,111.69580991746625 103.19635742763057,107.98113182763336" stroke="red" stroke-linecap="round" stroke-linejoin="round" stroke-width="0.5"><title>2022-03-11 13.4km</title></polyline><polyline fill="none" points="136.0345214707777,105.52295887377113 131.4271681169048,102.72528812778182 128.335391524015,102.19239740323974 121.54560763412155,117.3796502983314 127.60791467875242,121.84251879743533 148.03788941935636,128.90312789496966 151.31153522338718,115.64778448198922 146.52231265814044,111.78437861299608 130.03283749660477,102.19239740323974 128.8203760876786,102.19239740323974 128.15352231287397,103.39140105707338 121.78809991595335,117.97914147819392 130.2753297786694,123.44115248019807 137.06511366856284,124.9731735654641 147.7347740670666,129.2361740252818 151.1902890827041,118.97829249192728 151.12966601201333,115.71439477184322 147.91664327844046,112.58370542619377 130.39657591935247,102.32562011631671 129.12349143996835,102.32562011631671 121.0,117.7127010068507 128.45663766516373,122.64183601998957 133.12461408949457,123.57437181612477 132.63962952583097,127.17128588457126 135.42829076643102,128.83651865296997 137.1257367390208,125.97231624333654 133.48835251224227,124.77334488707129 132.45776031468995,127.17128588457126 135.42829076643102,128.83651865296997 137.1257367390208,126.10553517693188 134.033960146131,124.64012574171647 132.45776031468995,126.63841070019407 133.0639910188038,127.70416073035449 135.36766769597307,128.90312789496966 136.94386752764694,126.70502011670033 137.06511366856284,125.90570676838979 133.97333707567304,124.50690657499945 132.57900645537302,126.70502011670033 135.18579848459922,128.63669089553878 135.85265225940384,128.83651865296997 137.55009823199362,125.5060498084058 148.15913556003943,129.1695648097666 151.8571428572759,116.91337908437708 144.1580129105132,110.51877626695205 137.06511366856284,106.32229165756144" stroke="#ffe200" stroke-linecap="round" stroke-linejoin="round" stroke-width="0.5"><title>2022-03-06 5.1km</title></polyline><polyline fill="none" points="171.30808950099163,105.19572571467143 166.1032702238299,101.65543053252622 164.74010327016003,101.9277614505263 157.61445783125237,116.9058286343934 157.98623063694686,118.19937669875799 163.74870912218466,122.76082007720834 185.24956970731728,129.36465776222758 188.0998278830666,116.02076830720762 184.1962134251371,114.45489010412712 181.4079173838254,111.11887917184504 173.41480206535198,107.2381970497081 167.65232358011417,102.60858836676925 164.67814113595523,102.47242302680388 157.42857142863795,117.79088804725325 166.90877796919085,124.32668310083682 170.44061962142587,124.39476403687149 184.93975903629325,129.63697987311753 185.3734939757269,129.09233556495747 188.0998278830666,115.88460509869037 166.66092943190597,102.13200958218658 165.23580034426413,101.99584416643484 164.05851979344152,103.56174514075974 157.92426850250922,116.1569314939552 157.86230636830442,117.99513239733642 162.32358003454283,122.08000917447498 166.598967297934,124.05435930221574 172.05163511214778,124.80324953992385 185.12564543890767,129.7050603874377 188.22375215147622,116.22501307923812 183.88640275411308,112.20819029211998 167.52839931147173,102.88091898179846 164.49225473310798,102.74475368508138 157.73838210012764,118.26745812169975 160.5886402754113,120.99071060476126 166.90877796919085,123.85011639649747 170.31669535278343,124.1905212122947 184.69191049900837,129.7050603874377 185.12564543890767,129.16041612240952 188.28571428591385,117.24623620894272 187.85197934578173,115.88460509869037 185.43545611016452,114.59105353965424 183.14285714295693,111.59545295732096 178.86746987956576,109.89340250589885 169.44922547321767,102.67667102871928 166.2891566264443,101.85967872914625 165.0499139414169,102.54050569963874 157.5524956972804,118.06321383657632 163.37693631695583,122.28425250202417 169.63511187629774,124.32668310083682 168.9535283993464,127.32223917247029 171.6798623064533,129.2965772211901 173.22891566273756,126.50527037336724 169.82099827891216,125.6202199619147 168.8915662651416,127.4584005632787 172.29948364873417,129.4327382980846 173.41480206535198,126.30102805187926 170.19277108437382,125.0755731004756 168.8296041309368,128.07112655392848 171.18416523211636,129.22849667456467 171.86574870930053,129.4327382980846 173.53872633399442,126.50527037336724 169.82099827891216,125.27981571410783 168.76764199649915,127.59456193231745 171.61790017201565,129.16041612240952 173.60068846819922,126.77759339293698 169.94492254732177,125.0755731004756 169.20137693639845,127.79880394553766 172.3614457831718,129.5008188286447 173.91049913945608,125.82446244574385 184.07228915649466,129.56889935355866 185.1876075733453,129.22849667456467 188.03786574862897,117.38239920104388 187.35628227191046,115.13570706581231 166.2891566264443,101.99584416643484 164.92598967300728,102.33625766530167 157.67641996569,118.3355395392282 162.1376936319284,122.42041469347896 169.44922547321767,124.39476403687149 169.07745266798884,128.00304590997985 171.55593803781085,129.22849667456467 173.66265060240403,126.57335113635054 173.10499139409512,126.16486647707643 170.44061962142587,125.2117348483298 168.8915662651416,127.32223917247029 172.17555938032456,128.82001328113256 173.35283993091434,126.84567413420882 171.61790017201565,124.93941133114276 182.64716006908566,129.16041612240952 185.00172117026523,128.4115296928794 187.4182444063481,120.51414204499451 187.66609294293448,116.29309465904953 184.13425129069947,112.41243597306311 166.35111876088195,102.40434034867212 164.92598967300728,102.47242302680388 163.56282271957025,104.85531335213454 157.61445783125237,117.85896950273309 163.9345955250319,123.3054684100789 170.31669535278343,124.39476403687149 184.62994836480357,129.77314089611173 185.62134251277894,128.00304590997985" stroke="red" stroke-linecap="round" stroke-linejoin="round" stroke-width="0.5"><title>2022-03-05 10.9km</title></polyline><polyline fill="none" points="19.527445613755845,134.57142857142026 23.49495379102882,134.595368534734 24.178246865980327,165.04556828792556 25.853416985250078,165.30888299574144 26.75712718127761,164.97375514861778 27.220003135153092,163.58536465797806 26.823252317495644,162.17303029174218 26.75712718127761,155.87729537507403 26.867335741641,155.13520448602503 27.52858710451983,154.72825069559622 32.752472871216014,154.75218916797894 32.92880656803027,155.70972661336418 32.576139174518175,157.16996576453676 32.97288999229204,159.15683796608937 34.75826867192518,162.48422313894844 34.18518415756989,164.06412067211932 33.016973416437395,164.92587971361354 27.594712240854278,165.09344370529288 27.550628816592507,164.61468921319465 26.889377453830093,164.15987178997602 27.30816998356022,163.29811070972937 26.867335741641,162.19696821368416 26.77916889335029,155.87729537507403 26.889377453830093,155.20701980768354 27.396336831967346,154.75218916797894 32.77451458340511,154.84794303996023 32.950848280102946,156.26030936194002 32.510014038183726,157.62479300738778 34.64806011156179,162.79541568696732 34.14110073330812,164.13593401317485 32.862681431812234,165.14131911555887 28.807006406132132,165.38069606074714 26.977544302120805,165.09344370529288 27.352253407705575,163.2741728691617 26.93346087797545,162.699664165586 26.823252317495644,155.37458882966894 27.19796142319683,154.82400457464973 28.057588194846176,154.56068133906228 32.26755520515144,154.65643526770873 32.68634773499798,154.99157379483222 32.88472314388491,156.28424772105063 32.59818088670727,157.62479300738778 33.21534882532433,159.6834767461405 34.55989326315466,162.02940272295382 34.69214353582356,162.98691864480497 34.229267581831664,164.11199623456923 32.862681431812234,165.09344370529288 26.911419165786356,164.97375514861778 27.37429511989467,163.22629718284588 26.93346087797545,162.34059570817044 26.77916889335029,156.1166791699652 26.889377453830093,155.230958244676 27.616753952926956,154.68037374541746 32.68634773499798,154.77612763861543 32.90676485595759,155.99698729463853 32.576139174518175,157.45722515016678 33.016973416437395,159.1807761109958 32.510014038183726,157.79236077785026 32.53205575037282,155.30277354514692 29.732758314232342,154.8718815035536 27.881254498148337,155.1591429283435 27.13183628686238,157.67266952205682 27.30816998356022,163.08267008129042 26.911419165786356,163.99230731511489 27.484503680374473,164.63862695460557 27.242044847342186,165.04556828792556 26.801210605422966,164.99769286354422 27.109794574673288,164.4231872181117 27.396336831967346,164.92587971361354 26.77916889335029,164.94981743197422 27.109794574673288,164.35137394076446 27.52858710451983,164.85406654773396 25.34645760699641,165.42857142857974 24.178246865980327,165.21313221770106 24.02395488123875,164.0401828882459 24.112121729762293,148.4563099296356 23.627204063697718,146.3496766067401 23.64924577565398,134.69112837011926" stroke="#ff5d00" stroke-linecap="round" stroke-linejoin="round" stroke-width="0.5"><title>2022-02-26 10.0km</title></polyline><polyline fill="none" points="61.19066704832949,138.9929233948933 58.53163469815627,136.54686313291313 55.687088462524116,136.41097069100942 48.14285714295693,151.7666799640283 54.07930146041326,156.1151493009529 60.44861150882207,158.96882028586697 59.459204122656956,161.55070487584453 62.42742628115229,163.38519708416425 64.40624105371535,160.46359652484534 61.25250501022674,159.10470914299367 59.58288004575297,161.48276064434322 62.61294016614556,163.2493089074851 65.08645863155834,159.64826435479335 75.5370741484221,163.58902930893237 78.75264815380797,149.864217675291 70.46636129403487,144.42858781246468 70.40452333260328,143.34145769343013 56.92384769557975,136.47891691472614 55.625250501325354,136.68275555328 48.39020898961462,151.97051495825872 54.9450329230167,156.72665102797328 60.32493558549322,158.28937567706453 59.52104208455421,161.55070487584453 62.61294016614556,163.52108523936477 64.2825651303865,160.46359652484534 60.943315201904625,159.10470914299367 59.89206985430792,160.9392065985594 59.644718007650226,161.55070487584453 62.92212997423485,163.45314116461668 64.03521328372881,160.46359652484534 61.128829086897895,159.03676471707877 59.70655596908182,161.34687216527527 63.2313197827898,163.52108523936477 64.03521328372881,160.39565220708027 60.81963927857578,159.17265356320422 59.70655596908182,161.48276064434322 62.92212997423485,163.58902930893237 64.22072716872208,161.00715087313438 63.54050959087908,160.59948514431017 61.19066704832949,159.10470914299367 59.58288004575297,161.34687216527527 62.24191239615902,163.2493089074851 64.15888920705765,160.80331803305307 60.572287432150915,159.30854238779284 59.644718007650226,161.4148164076032 62.48926424304955,163.2493089074851 64.40624105371535,160.73537374229636 61.25250501022674,159.30854238779284 59.644718007650226,161.27892791770864 63.045805897563696,163.38519708416425 64.40624105371535,160.73537374229636 63.787861437303945,160.3277078839019 61.19066704832949,159.17265356320422 59.70655596908182,161.48276064434322 62.73661608947441,163.31725299853133 63.16948182089254,162.70575598441064 64.15888920705765,160.80331803305307 61.25250501022674,159.24059797817608 61.685370741412044,158.35732016223483 75.47523618675768,163.45314116461668 76.40280561125837,161.55070487584453 79.0,151.1551746899495 78.50529630715027,149.72832734987605 57.913255081744865,136.47891691472614 55.99627827084623,136.75070175540168 52.28600057261065,143.74913165002363 59.08817635290325,147.01051630580332" stroke="#ffde00" stroke-linecap="round" stroke-linejoin="round" stroke-width="0.5"><title>2022-02-14 5.2km</title></polyline><polyline fill="none" points="95.63574274326675,140.7472057256964 98.9550369947683,141.96292188786902 99.81559476349503,139.93672731792321 93.2384746724274,136.76234611327527 92.07057484309189,137.30266715557082 84.75583380740136,151.0131986613269 84.57142857136205,152.29643906006822 90.34945930540562,155.94353277352639 111.92487194063142,163.50782540423097 115.42857142840512,150.2702691241284 100.24587364774197,140.00426721479744 92.93113261205144,136.49218546331394 91.33295389823616,137.57282754802145 84.69436539523304,151.82366650708718 87.58338076225482,155.13306885625934 110.75697211106308,163.57536342798267 112.78542970959097,161.27906760608312 115.05976095586084,151.41843268083176 114.62948207114823,149.5273389374488 109.77347751823254,145.74513882788597 101.90552077372558,141.69276289100526 98.27888446161523,138.51838824496372 94.16050085332245,136.35710510611534 92.13204325549304,136.5597256339388 84.81730221933685,152.1613612145302 93.97609561728314,158.10476610815385 99.56972111505456,160.06337907130364 100.06146841170266,161.14399118814617 100.55321570835076,160.6036853013793 97.41832669288851,159.2529190822388 95.82014797930606,161.34660580707714 99.20091064274311,163.50782540423097 101.35230506514199,159.92830246011727 111.67899829219095,163.44028737494955 115.24416619213298,150.94565963943023 109.83494593016803,146.35299355199095 94.83665338624269,136.35710510611534 92.25498007936403,136.15448453009594 91.5173591345083,137.370207261818 84.81730221933685,151.75612754945178 91.39442231040448,156.7539959179121 94.2219692657236,158.03722764970735 96.80364257236943,157.6319967858144 111.74046670435928,163.84551546990406 114.87535571982153,150.06765186483972 108.23676721658558,145.54252048995113" stroke="#ffcb00" stroke-linecap="round" stroke-linejoin="round" stroke-width="0.5"><title>2022-02-11 5.9km</title></polyline><polyline fill="none" points="132.47885714261793,161.96836389478995 135.50285714282654,163.5279536768794 136.49028571415693,162.91767975367839 136.73714285716414,160.88343019154854 133.95999999996275,159.32383557676803 132.35542857134715,162.03617220546585 135.56457142881118,163.86699455656344 137.16914285719395,160.74781338166213 139.02057142858393,160.2053459266317 148.52457142877392,163.59576186351478 151.73371428600512,149.89839876478072 129.88685714290477,136.13300544343656 127.72685714298859,137.76045268162852 121.0,152.475147225603 125.81371428561397,155.72997626586584 133.21942857140675,157.560812145588 148.03085714299232,163.59576186351478 151.8571428572759,151.2545831350726 146.42628571437672,145.9654519027099 130.07199999992736,136.20081580698024 127.17142857145518,138.77760562940966 121.18514285702258,152.74638345319545 137.84800000023097,160.4765796972788 147.4137142857071,163.73137822077842 148.46285714302212,163.1889126621536 151.36342857172713,152.8820015345118 151.11657142848708,149.6949709233595 147.04342857166193,146.1010710616829 141.05714285722934,143.32087399321608 132.84914285712875,137.62483219703427 130.31885714293458,136.26862616528524 128.5291428572964,136.47205720748752 121.18514285702258,152.81419249653118 133.09600000013597,158.57794149272377 132.17028571432456,162.17178881063592 135.4411428568419,163.66357004491147 137.04571428569034,160.88343019154854 133.89828571421094,159.5950696275686 132.23200000007637,161.90055557870073 135.81142857135274,163.7991863914649 136.79885714268312,160.74781338166213 133.71314285695553,159.45945261302404 132.41714285733178,161.83274725731462 135.13257142854854,163.5279536768794 136.79885714268312,161.15466374671087 133.71314285695553,159.5950696275686 132.17028571432456,161.7649389305152 135.62628571433015,163.66357004491147 137.72457142872736,160.00192054209765 148.1542857142631,163.59576186351478 150.4377142856829,157.69642946182285 151.7954285715241,150.5086819981807 133.03428571415134,137.76045268162852 130.25714285718277,136.74329852155643 127.97371428553015,137.8282629160094 124.20914285699837,145.55859429645352" stroke="#ffbd00" stroke-linecap="round" stroke-linejoin="round" stroke-width="0.5"><title>2022-01-18 6.4km</title></polyline><polyline fill="none" points="172.48833238496445,139.86918470828095 166.71030165068805,136.49218221899355 164.8662492884323,136.82988307176856 157.67444507661276,151.95874362014 160.13318155915476,154.1199874302256 168.12407512799837,158.50999700196553 170.02959590195678,158.1723047628766 184.84348321007565,163.77797855983954 188.28571428568102,151.14827577443793 187.91690381383523,149.72995518520474 183.98292544134893,146.15037364966702 168.9231644847896,137.37020415696315 165.17359134857543,136.42464203230338 157.92031872505322,151.08073675248306 157.73591348878108,152.363977253146 161.60842344886623,155.40322334249504 167.5708594196476,158.71261228085496 171.3204325553961,158.982765911147 184.2287990897894,163.5753644882352 188.16277746181004,150.67550250771455 180.78656801371835,144.39434700726997 174.76266363123432,141.55768092127983 167.38645418314263,136.22202144016046 165.4194649970159,136.35710184043273 157.42857142863795,152.363977253146 164.1286283438094,157.22676577995298 169.35344336926937,158.5775354336365 168.67729083634913,161.6167593061109 171.56630620383658,163.37275036831852 173.53329538973048,160.94137716240948 170.33693796256557,159.32045782811474 169.1690381334629,160.94137716240948 169.29197495733388,162.0219883347163 171.62777461577207,163.17013620003127 172.79567444510758,162.4947552906233 173.22595332935452,160.53614761854988 169.72225384181365,159.45553455740446 168.61582242464647,161.81937384454068 169.1690381334629,162.2921409131959 171.68924302770756,163.44028841360705 173.348890153924,161.0764536340721 170.39840637450106,159.45553455740446 170.27546955016442,158.30738167470554 184.9049516224768,163.3052123176749 188.1013090496417,150.67550250771455 184.72054638620466,146.62314943352249 168.9231644847896,137.64036457089242" stroke="#ffe300" stroke-linecap="round" stroke-linejoin="round" stroke-width="0.5"><title>2022-01-15 5.1km</title></polyline><polyline fill="none" points="26.899887514067814,174.27455027546966 19.853768279077485,170.93743337719934 11.835770528763533,186.68850873294286 14.50843644561246,188.69074291415745 22.222722159931436,192.1612708552857 38.8053993252106,197.30029550811742 42.26771653536707,185.48716593312565 37.9550056240987,180.34806900419062 33.460067491512746,178.6127824204741 21.676040495047346,170.93743337719934 19.489313835743815,170.87069090415025 11.95725534344092,186.9554735662532 22.040494938148186,191.8275668686838 38.501687288982794,197.50051661150064 39.959505061851814,195.23134131199913 42.20697412826121,185.28694196615834 37.65129358833656,180.5482941485243 24.530933633213863,172.73947814910207 19.307086614193395,171.00417584512616 11.835770528763533,186.3548025719938 23.802024747012183,192.56171546439873 22.769403824582696,195.69852496299427 23.92350956122391,196.4994106173399 26.413948256522417,197.50051661150064 27.811023622052744,194.96437910891837 24.83464566920884,193.42934479558608 23.316085489466786,196.23244881734718 26.47469066386111,197.3670358810341 27.325084364507347,196.1657083541504 27.75028121471405,194.89763854490593 24.83464566920884,193.6295668214443 23.437570303678513,194.76415740099037 23.37682789657265,196.4326701752725 26.47469066386111,197.56725696864305 27.75028121471405,195.16460076911608 24.470191226108,193.36260410945397 23.073115860344842,195.6317844572477 25.685039370087907,197.3670358810341 26.717660292284563,197.1000743569457 27.56805399316363,194.63067623600364 24.348706411663443,193.56282615137752 23.255343082128093,195.36482238164172 23.01237345347181,196.03222741169157 25.92800899897702,197.7007376672118 28.236220472492278,194.23023261327762 39.048368953866884,197.56725696864305 42.57142857159488,185.28694196615834 42.20697412826121,184.01885573350592 35.52530933613889,179.28020076162647 20.15748031483963,170.87069090415025 15.7840269964654,177.87862163264072 11.714285714318976,186.5550262844772 12.13948256475851,187.28917948837625 37.71203599544242,197.3670358810341 39.7165354329627,195.89874644821975 41.417322834488004,190.2925268225954 42.02474690671079,184.21908000280382 35.22159730037674,178.87974982045125 20.886389201506972,170.87069090415025 19.61079865018837,171.0709183078725 11.835770528763533,186.75524994923035 23.5590551183559,192.2947524128249 22.83014623192139,196.03222741169157 26.413948256522417,196.9665935630328 27.689538807841018,194.69741682114545 24.65241844765842,193.49608547607204 23.01237345347181,195.6317844572477 26.413948256522417,197.1668147459859 27.811023622052744,194.76415740099037 25.685039370087907,193.56282615137752 26.6569178851787,192.82867843087297 39.048368953866884,197.50051661150064 42.08548931404948,184.6862697788165 35.52530933613889,179.14671713585267 21.73678290215321,171.0709183078725 19.79302587173879,171.00417584512616 16.816647919127718,175.47590911283623 12.078740157652646,186.02109627856407 12.382452193647623,187.02221476123668 18.213723284425214,189.22467122308444 21.493813273264095,191.56060358393006 38.683914510533214,197.7007376672118 42.20697412826121,185.3536832939135 37.28683914500289,180.21458554815035 25.56355455564335,173.5403856955818" stroke="red" stroke-linecap="round" stroke-linejoin="round" stroke-width="0.5"><title>2022-01-14 10.0km</title></polyline><polyline fill="none" points="63.8485885374248,173.96549138531554 56.14970059902407,170.71709835081128 48.697177074616775,185.19942177669145 48.51240376406349,187.09428699640557 69.5765611634124,195.68880131817423 76.16680923872627,197.38062462978996 78.81522668991238,184.0489658364677 56.58083832333796,170.71709835081128 55.41060735704377,171.32617298851255 48.14285714295693,186.55289736384293 58.79811804974452,192.1697980654426 75.55089820362628,197.9896801993018 76.10521813528612,197.44829749246128 79.0,185.8761598392157 78.69204448233359,183.91361797653371 56.82720273733139,170.58174837211845 53.87082976941019,174.16851553844754 48.20444824662991,186.34987616288709 60.09153122338466,192.30514461331768 60.70744225848466,193.387916221458 59.537211291724816,195.95949327392736 62.67835757043213,197.718988888897 63.971770744305104,194.74137879593764 60.892215569037944,193.7262820666656 59.5988023953978,196.02716624934692 60.70744225848466,196.70389570842963 60.153122327057645,197.04226023639785 62.61676646722481,197.718988888897 64.21813515853137,195.418109276623 61.38494439725764,193.7262820666656 59.84516680939123,196.2978580976487 62.92472198465839,197.8543345548096 64.27972626173869,195.55345530813793 60.953806672478095,193.45558940118644 59.5988023953978,195.8918202930945 62.493584260111675,197.58364320138935 65.01881950395182,194.4030133538763 76.10521813528612,197.58364320138935 78.5072711717803,188.31241241155658 78.56886227568612,184.3196614916087 72.71770744235255,180.5299144895398 71.67065868270583,178.63503466470866 65.01881950395182,175.11596094700508" stroke="#ffe300" stroke-linecap="round" stroke-linejoin="round" stroke-width="0.5"><title>2022-01-09 5.1km</title></polyline><polyline fill="none" points="100.12392426840961,174.4820220945985 92.13080894993618,170.60131838580128 84.63339070533402,187.07716741296463 95.22891566250473,192.65982125204755 99.9380378657952,193.47679193376098 112.20654044765979,197.9701167587191 115.42857142863795,184.55815316160442 94.11359724611975,170.73748372576665 91.69707401026972,171.00981434079586 84.57142857136205,186.60059771721717 91.94492254732177,191.57052579818992 97.14974182425067,192.38749751844443 111.15318416501395,198.1743582362542 112.2685025818646,197.69779471273068 114.43717728066258,190.48122895951383 114.99483648897149,183.87733722786652 93.24612736655399,170.39707033522427 91.94492254732177,170.39707033522427 91.20137693616562,171.55447531113168 84.57142857136205,186.4644348982838 91.75903614447452,191.16203964594752 96.34423407912254,192.79598308645654 96.09638554230332,196.47234443516936 99.25645438884385,198.1062777491752 100.24784853705205,194.906488752109 97.14974182425067,193.40871107327985 95.66265060240403,195.85961863893317 99.00860585202463,198.1062777491752 100.37177280522883,195.11073096003383 97.39759036130272,193.61295363813406 95.91049913922325,195.58729592245072 95.72461273684166,196.2000219131005 99.25645438884385,197.90203625528375 100.37177280522883,194.77032725303434 97.27366609289311,193.54487278859597 95.72461273684166,195.85961863893317 98.69879518076777,197.69779471273068 100.61962134251371,195.04265022929758 96.96385542163625,193.54487278859597 95.72461273684166,195.92769930470968 99.31841652304865,197.90203625528375 100.49569707387127,195.38305382803082 98.20309810643084,193.95335780491587 98.69879518076777,193.54487278859597 111.21514629945159,197.90203625528375 112.45438898447901,197.62971418781672 115.05679862294346,184.2858268530108 110.65748709114268,180.06475800089538 109.0464716006536,180.2009218368912 98.88468158361502,173.3927035300294" stroke="#ffd800" stroke-linecap="round" stroke-linejoin="round" stroke-width="0.5"><title>2022-01-08 5.5km</title></polyline><polyline fill="none" points="148.47939403820783,194.9750847631076 151.8571428572759,188.7896505020326 151.29418472060934,187.47523559164256 147.74051148397848,186.238135961612 140.21094640833326,182.33351962285815 139.54243362112902,182.72011669777567 138.94429060118273,186.47009238178725 136.622088287957,185.7742227894778 137.74800456105731,185.38762814141228 138.381332464749,181.6376441142056 136.23505456908606,179.6273314981081 125.996253461577,173.6736646364152 124.94070695573464,173.828306255833 121.07036976702511,182.72011669777567 125.67958950973116,186.16081713032327 128.00179182295687,186.3154547806771 136.23505456908606,189.17624244705075 136.02394526801072,189.56283408481977 133.1035999348387,188.17110275125015 132.04805342899635,190.83858431031695 132.3647173808422,191.4571286701539 134.1591464409139,192.38494373549474 135.9535755009856,190.87724335573148 137.2554161916487,187.55255421399488 138.55725688231178,181.8309429665096 136.305424336344,179.3180518967274 133.34989411965944,178.196911693929 125.2925557908602,173.63500422387733 121.0,182.56547790465993 124.16663951799273,185.50360656811972 127.0166150839068,186.58607055043103 132.0128685454838,187.32059830991784 135.21469294675626,188.94428731693188 136.7276429387275,189.13758326639072 138.66281153284945,182.25620017113397 138.381332464749,181.56032455182867 136.622088287957,180.5551691223227 136.69245805521496,180.01393072321662 135.03876852919348,179.6273314981081 125.89069881103933,173.63500422387733 125.22218602383509,173.78964585554786 124.65922788740136,174.83347558343667 121.14073953428306,182.95207479511737 124.8703371884767,185.8902011239843 136.622088287957,189.0216057059588 138.02948362915777,184.26650192498346 137.78318944456987,182.4494987775688 134.79247434437275,178.7381521143834 127.7906825216487,174.56285327643855 125.71477439324372,173.59634380831267 125.11663137329742,173.98294782597804 121.17592441779561,183.02939413642162 126.69995113206096,186.35411418558215 130.39436390297487,186.93400489055784 136.5517185209319,189.13758326639072 137.0794917740859,186.93400489055784 138.697996416362,186.7793674368877 138.94429060118273,186.3154547806771 139.54243362112902,183.18403278198093 141.72389640007168,183.18403278198093" stroke="#ffa900" stroke-linecap="round" stroke-linejoin="round" stroke-width="0.5"><title>2022-01-07 7.2km</title></polyline><polyline fill="none" points="166.6910919927759,168.85714285713038 168.08553459099494,169.09378871222725 168.1726872534491,179.05642039587838 168.60845056537073,183.88380730175413 168.6956032277085,196.2595694824122 168.45593340613414,197.44269567835727 168.71739139338024,199.26470146604697 170.35150381317362,199.71428571428987 171.26660676847678,199.00441555998987 171.78952274273615,197.27705827425234 171.35375943069812,196.75648301737965 171.26660676847678,195.54969166539377 171.26660676847678,189.7049711184227 172.15992155787535,189.04240496776765 177.38908130151685,189.11339426381164 177.01868248637766,191.81097584433155 177.6723274543183,194.17725675433758 178.97961739019956,196.18858177156653 179.02319372142665,196.94578320876462 178.54385407827795,198.31820624755346 177.08404698316008,199.43033784153522 172.11634522676468,199.4066755073727 171.94203990197275,198.60215510698617 171.46270025870763,198.5784927116474 171.2883949340321,199.0280779238674 171.7023700803984,199.17005207011243 172.0291925643105,198.8387789640983 171.52806475560647,198.46018070873106 171.48448842437938,199.05174028591136 171.96382806752808,198.6968046707916 171.52806475560647,198.55483031462063 171.5498529211618,199.17005207011243 172.0291925643105,198.98075319436612 171.61521741794422,198.55483031462063 170.7001144628739,199.45400017383508 169.08779020851944,199.52498716043192 168.56487423414364,199.1463897167996 168.5866623998154,182.77162167755887 168.2162635846762,179.8136623740138 168.10732275655027,169.1174532881414 168.0637464253232,181.0915041481785 168.3905689093517,182.03805032020318 168.1726872534491,172.95109146792674" stroke="#ffc700" stroke-linecap="round" stroke-linejoin="round" stroke-width="0.5"><title>2022-01-01 6.1km</title></polyline><polyline fill="none" points="38.96199213643558,228.9527232850087 39.6697247705888,229.1471253124182 40.87287024897523,227.51414588294574 42.359108780976385,224.32593224468292 42.57142857136205,222.42077027770574 31.35386631707661,216.3941886833054 30.610747050959617,216.89964676537784 29.796854521613568,220.63224413027638 28.34600262111053,220.6711252030218 29.124508518958464,215.6943227846641 17.30537352547981,208.2679063034011 15.748361730016768,208.2679063034011 11.85583224100992,216.1997815896757 11.820445609511808,217.327341657714 17.446920052403584,220.63224413027638 18.68545216252096,220.748887339083 18.296199213480577,222.92622213473078 20.171690694522113,223.70383935671998 20.844036697177216,222.22636557833175 18.96854521613568,220.94329262551037 18.543905635597184,222.61517489986727 20.242463957984,223.54831601120532 20.77326343371533,222.22636557833175 18.86238532117568,221.05993576030596 18.543905635597184,222.8484603445395 20.06553079932928,223.50943516704137 20.844036697177216,222.10972272171057 19.180865006521344,221.13769783457974 18.33158584521152,222.42077027770574 19.95937090413645,223.47055431985063 20.384010484907776,223.47055431985063 20.950196592370048,221.95419886944 18.826998689444736,221.0210547184106 18.296199213480577,222.53741306031588 20.100917431293055,223.54831601120532 20.667103538522497,221.79867496786756 19.003931847866625,220.98217367348843 18.543905635597184,221.60427002137294 18.40235910890624,222.45965120836627 20.06553079932928,223.47055431985063 20.844036697177216,221.876436924882 18.826998689444736,221.40986499763676 18.366972476942465,222.53741306031588 19.711664482252672,223.4316734695749 20.41939711663872,223.27615003756364 21.51638269983232,221.44874600850744 27.319790301378816,223.54831601120532 29.44298820430413,216.8218840174668 29.018348623765633,215.77208571170922 20.31323722167872,209.86206803339883 18.79161205748096,209.47324857817148 16.66841415478848,207.9957318304223 15.854521624976769,208.11237805167912 11.714285714318976,216.86076539297937 18.013106159633026,220.2045521264372 27.036697247764096,223.54831601120532 27.673656618455425,223.23726917177555 29.301441677613184,216.8218840174668 29.124508518958464,215.65544131645584 16.703800786286592,208.11237805167912 15.996068151900545,208.07349598099245 11.820445609511808,216.54971430264413 11.961992136202753,217.2495789778768 13.165137614589185,218.1049677770352 17.76539973774925,220.55448197561782 20.59633027529344,220.98217367348843 27.425950196571648,223.82048183344887 28.310615989379585,220.63224413027638 28.558322411496192,220.2045521264372 28.947575360303745,222.10972272171057 30.53997378749773,217.2495789778768 31.17693315865472,216.8218840174668 41.93446920043789,221.79867496786756" stroke="#ffac00" stroke-linecap="round" stroke-linejoin="round" stroke-width="0.5"><title>2021-12-24 7.1km</title></polyline><polyline fill="none" points="77.45186512474902,227.65645333539578 79.00000000023283,224.48640845395857 78.36667209654115,223.17199354356853 75.86854536575265,222.282828502357 72.03339306078851,219.42202560641454 67.38898843480274,218.18491644164897 66.19270239467733,220.19521723708021 66.12233262765221,222.90137826825958 64.64456751942635,222.16685033371323 65.91122332657687,223.63590509383357 66.08714774413966,222.1281909380923 65.20752565562725,221.27768345572986 65.84085355931893,218.30089555948507 65.20752565562725,216.5225460480433 64.15197914978489,215.32408945003408 60.66867568017915,214.20294995990116 54.089102459838614,209.75702654456836 52.22430363250896,209.48640380747383 48.14285714295693,218.7261520883476 52.013194331433624,221.2003645200457 57.079817560035735,223.13333422777941 55.28538849996403,222.39880664341035 54.65206059627235,223.40394937404199 54.72243036353029,224.13847544087912 56.23538035526872,224.91165957655176 57.25574197759852,223.28797147262958 55.49649780103937,222.47612538881367 54.86316989758052,222.94003760250052 54.75761524704285,224.099816201895 56.4113047728315,224.9889779225632 57.185372210573405,223.24931216592086 55.14464896568097,222.39880664341035 54.54650594596751,223.82920144259697 56.27056523878127,224.91165957655176 57.25574197759852,223.36529007655918 55.215018732938915,222.70808155086706 54.898354781093076,224.02249771455536 56.20019547175616,224.79568203451345 57.15018732729368,223.36529007655918 55.426128034014255,222.39880664341035 54.687245479784906,223.40394937404199 54.687245479784906,224.099816201895 56.34093500603922,224.9503187511582 57.290926861343905,223.44260866832337 55.28538849996403,222.47612538881367 54.51132106222212,223.82920144259697 55.70760710234754,224.71836365788477 56.4113047728315,224.9889779225632 57.22055709408596,223.63590509383357 55.3909431505017,222.39880664341035 54.581690829247236,223.7132236425823 56.059455937705934,224.7570228476543 56.69278384116478,224.6797044649138 57.32611174485646,223.28797147262958 55.426128034014255,222.70808155086706 54.792800130555406,224.25445313958335 56.20019547175616,224.87300039897673 57.15018732729368,223.67456436980865 55.17983384942636,222.6694221982034 54.581690829247236,223.67456436980865 56.09464082121849,224.79568203451345 56.48167453985661,224.9503187511582 57.22055709408596,223.55858653286123 55.17983384942636,222.43746601761086 54.82798501406796,224.02249771455536 56.165010588243604,224.7570228476543 57.185372210573405,223.51992724780575 55.28538849996403,222.32148788581253 54.581690829247236,224.02249771455536 55.98908617044799,224.7570228476543 56.65759895788506,224.52506766232545 57.32611174485646,223.13333422777941 55.17983384942636,222.6694221982034 54.65206059627235,224.02249771455536 56.059455937705934,224.8343412183167 57.290926861343905,223.36529007655918 55.17983384942636,222.63076284248382 54.72243036353029,223.24931216592086 54.47613617870957,223.98383846631623 56.12982570473105,224.9889779225632 57.25574197759852,223.44260866832337 55.28538849996403,222.2441691159911 54.47613617870957,224.099816201895 56.376119889551774,224.9503187511582 57.32611174485646,223.32663077610778 55.003909431630746,222.59210348362103 54.40576641168445,224.0611569597677 56.09464082121849,224.87300039897673 56.65759895788506,224.602386069746 57.00944779301062,223.17199354356853 55.46131291752681,222.55344412170234 54.54650594596751,223.7132236425823 56.23538035526872,225.02763709097053 57.7835152305197,222.90137826825958 63.835315198171884,224.87300039897673 64.3279035675805,222.63076284248382 65.98159309336916,221.66427795021445 66.79084541462362,218.68749241926707 67.4241733183153,218.30089555948507 69.5704512137454,218.7648117542849 71.08340120571665,219.96325987690943" stroke="#ffca00" stroke-linecap="round" stroke-linejoin="round" stroke-width="0.5"><title>2021-12-19 6.0km</title></polyline><polyline fill="none" points="111.22719843080267,229.0841349128168 112.00392285059206,229.2780919917859 113.20431513572112,227.99797384694102 115.42857142840512,223.57572170443018 115.39326577307656,222.06283677608008 103.74239947693422,216.5931367672456 102.89506374625489,218.3000000853208 102.6479241582565,221.36458061254234 101.30630925134756,220.47236295044422 102.22425629291683,215.81728783174185 100.0,214.30437886115396 99.75286041176878,213.60611160105327 97.49329846352339,212.94663604945526 93.3272311212495,209.8044167746557 89.12585812341422,207.8647651510546 84.57142857136205,217.05864553674473 89.09055246808566,219.96806528966408 91.70317097078077,220.31719449482625 91.10297482833266,222.02404479321558 92.33867276879027,223.38176236025174 93.75089898658916,221.79129283118527 91.63255965989083,220.976660090324 91.13828048366122,222.334380569926 92.76234063412994,223.45934610723634 93.75089898658916,221.75250082663842 91.63255965989083,220.976660090324 91.35011441656388,222.95505153178237 92.72703497856855,223.18780293903546 93.75089898658916,221.94646081817336 91.80908793699928,220.51115505659254 91.56194834923372,222.56713227310684 93.04478587768972,223.11021914888988 93.60967636457644,221.79129283118527 91.950310559012,220.82149179498083 91.13828048366122,222.2180046768044 91.70317097078077,222.72230001352727 93.11539718857966,223.07142724923324 93.78620464191772,221.28699653278454 91.87969924812205,221.01545215633814 91.420725727221,221.6361247948662 91.20889179455116,222.29558860868565 93.00948022212833,223.11021914888988 93.57437070924789,221.75250082663842 91.91500490345061,220.82149179498083 91.03236351744272,222.60592421283945 93.00948022212833,223.61451356409816 93.53906505391933,221.59733277803753 91.87969924812205,220.82149179498083 91.0676691730041,222.2180046768044 90.99705786188133,222.64471614945796 92.69172932324,223.42055423525744 93.85681595280766,221.86887683079112 93.53906505391933,221.6361247948662 91.950310559012,220.89907594877877 91.13828048366122,222.14042073258315 92.93886891123839,223.45934610723634 93.78620464191772,221.7137088191521 91.70317097078077,220.93786802105024 91.03236351744272,222.334380569926 92.62111801235005,223.34297048219014 93.57437070924789,222.29558860868565 93.433148087468,221.59733277803753 92.12683883612044,220.93786802105024 91.10297482833266,222.14042073258315 92.69172932324,223.30417860095622 93.82151029747911,221.75250082663842 91.98561621434055,220.89907594877877 91.1735861392226,222.17921270627994" stroke="#fff600" stroke-linecap="round" stroke-linejoin="round" stroke-width="0.5"><title>2021-12-18 4.4km</title></polyline><polyline fill="none" points="148.45197464653756,229.0050427816459 151.71672354952898,223.56653547863243 149.96148220391478,221.56082946408424 143.3968795709079,217.89653746134718 140.6587030715309,216.97081721041468 139.78108239884023,217.62653590383707 138.90346172603313,221.09797305316897 137.95563139917795,220.78940186733962 136.51633349596523,221.83082883333554 137.6045831302181,219.43940062323236 138.06094588001724,215.4665180373995 136.20039005368017,213.9622142027074 133.21647976594977,212.68933808602742 130.86445636267308,210.68358712806366 126.05509507551324,208.33067640193622 125.31789371045306,208.25353159481892 124.47537786443718,209.52641934377607 121.21062896156218,217.2022474386613 130.82935153576545,221.48368675963138 137.18332520721015,223.4893930927792 137.78010726475623,222.02368543375633 137.6045831302181,220.36511616659118 138.4822038030252,215.58223352394998 125.8795709409751,208.17638677550713 125.17747440270614,208.3692488007946 123.8785958068911,210.68358712806366 121.17552413453814,217.16367574164178 127.42418332525995,220.13368744621403 136.51633349596523,223.64367785211653 137.18332520721015,223.4893930927792 138.1311555339489,215.08079954981804 135.04193076561205,213.730782429775 130.19746465142816,210.3750093220442 127.66991711361334,209.52641934377607 127.03803022915963,208.5621107495972 125.24768405640498,208.13781436122372 121.0,217.0093889227719 127.91565090208314,220.36511616659118 127.56460263277404,222.3322558349464 129.46026328613516,223.18082342710113 130.02194051689003,221.75368617178174 128.266699171043,220.98225888147135 127.4943929790752,222.255113253108 128.09117503662128,222.71796856069705 129.53047294018324,222.98796728637535 130.30277913215104,221.21368719721795 136.76206728431862,223.33510828446015 137.42905899567995,221.09797305316897 139.2194051683182,220.21083036527853 139.53534861060325,216.93224549500155 140.6587030715309,216.6236716611893 149.996587030706,221.09797305316897 151.57630424178205,221.13654443758423 151.8571428571595,221.83082883333554 151.0146270111436,224.68509869498666" stroke="#ffc700" stroke-linecap="round" stroke-linejoin="round" stroke-width="0.5"><title>2021-12-15 6.1km</title></polyline><polyline fill="none" points="186.114155991585,228.36563357288833 188.1806388843106,224.0169979998027 187.93546294781845,222.93945394593175 185.8339549212251,222.16977815405698 185.09842711198144,221.20768169415533 176.8324955406133,217.6286660853366 175.9568671962479,218.3213808478322 175.2563645207556,221.20768169415533 174.2056105074007,221.09222999063786 175.08123885188252,217.05140302635846 174.7660126478877,216.35868644731818 162.89249229757115,208.85419333269238 161.52651208010502,208.96964795366512 157.56867196341045,217.32079253948177 157.42857142852154,218.09047603714862 162.1569644882111,221.2846494813275 165.83460353466216,221.63100437202957 172.73455488868058,224.3248672892223 173.36500729678664,224.0169979998027 174.66093724651728,218.86015831163968 174.7660126478877,216.43565500507248 172.52440408605617,214.2420463169983 162.12193935445976,208.7772235699813 157.6036970972782,217.89805527735734 161.4914869464701,220.7458747146593 173.4350575642893,224.40183458095999 173.61018323304597,222.09281050754362 174.52083671127912,222.78551888544462 176.02691746375058,219.55287131280056 176.02691746375058,218.09047603714862 176.97259607585147,217.70563444119762 178.93400356720667,218.28289672039682 186.18420625897124,222.28522960082046 187.9004378139507,222.63158377588843 188.28571428568102,223.6706448153709" stroke="#fffb00" stroke-linecap="round" stroke-linejoin="round" stroke-width="0.5"><title>2021-12-13 4.2km</title></polyline><polyline fill="none" points="40.129984301514924,262.6559124782507 42.571428571478464,257.9242622294696 42.40188383043278,256.806542601058 31.856200941838324,251.62774021868245 31.11020408163313,251.8885445841879 30.601569858612493,253.34159482148243 28.838304552598856,261.20289110342856 31.144113029935397,251.62774021868245 18.767346938839182,243.54273293720325 16.834536891663447,243.54273293720325 13.68100470956415,249.95113726324053 13.070643642102368,252.37289516362944 16.698901098920032,254.7201254995889 20.191522762994282,255.27898813347565 26.668131868122146,258.18506309276563 28.024489795905538,258.22232034706394 29.719937205663882,251.73951353592565 29.51648351654876,250.65903702017386 25.51522762957029,247.4921087504481 20.66624803771265,245.10758393688593 18.360439560492523,243.0583732360392 16.8684458398493,243.5799913550727 13.714913657750003,249.69033182022395 12.968916797544807,251.96306009046384 14.427001570002176,253.11804892413784 12.76546310831327,252.33563744445564 11.714285714318976,254.38480759953381 12.968916797544807,255.76333521076594 23.243328100652434,260.83032079492114 26.362951334333047,261.9480308324273 27.31240188376978,261.38917614673846 29.2452119308291,254.5710953514208 29.686028257594444,250.8080684117449 26.295133438077755,248.0882380590192 24.803139717318118,247.64114114872064 17.851805337471887,243.3191823681409 16.766718995175324,243.50547451645252 16.054631083272398,244.7350008392532 12.799372056615539,252.48466830313555 16.258084772503935,254.34755004028557 17.343171114567667,254.1612621996028 18.83516483521089,255.31624561877106 21.073155416059308,255.7260777610063 25.074411303037778,257.6262039223802" stroke="#ffd500" stroke-linecap="round" stroke-linejoin="round" stroke-width="0.5"><title>2021-12-12 5.6km</title></polyline><polyline fill="none" points="75.66883116890676,260.61081446695607 78.78084415593185,254.25382852746407 78.64935064944439,252.42377476138063 74.96753246779554,249.96764128596988 69.62012987025082,248.95628931495594 68.26136363646947,249.29340682615293 65.89448051946238,246.69278116954956 64.22889610403217,246.01854306680616 63.527597402688116,246.7409410054097 60.722402597544715,257.76944262784673 60.81006493512541,260.08106818509987 59.62662337673828,260.562655733258 60.50324675324373,260.61081446695607 60.94155844161287,259.5994802543428 61.33603896130808,254.54278388008242 64.09740259754471,246.3556622118922 66.94642857159488,246.7409410054097 75.75649350672029,251.26794848340796 79.0,251.41242688865168 62.782467532670125,243.89950414630584 59.977272727293894,254.8798982842709 56.68993506510742,253.14616506593302 52.30681818188168,252.03849958028877 51.12337662349455,252.42377476138063 49.413961038924754,251.41242688865168 48.58116883132607,251.70138359593693 48.405844155931845,253.62775812408654 50.904220779193565,254.59094309218926 51.56168831186369,252.27929659717483 48.975649350788444,251.41242688865168 48.44967532483861,253.29064302355982 50.50974025973119,254.39830622106092 51.649350649444386,252.71273098659003 49.37012987025082,251.21978900732938 48.49350649351254,252.03849958028877 48.537337662419304,253.57959883549483 50.64123376645148,254.35014699358726 51.780844156164676,252.42377476138063 48.80032467539422,251.55690525949467 48.44967532483861,253.4832802467863 50.64123376645148,254.39830622106092 51.73701298702508,252.42377476138063 49.6769480521325,251.50874580640811 48.93181818188168,252.03849958028877 48.537337662419304,252.85720904747723 50.465909091057256,254.30198776244652 51.38636363646947,254.01303229492623 51.82467532483861,252.66457162523875 49.32629870134406,251.41242688865168 48.49350649351254,251.7977024677093 48.14285714295693,253.19432438898366 50.728896104265004,254.39830622106092 51.73701298702508,252.7608903439832 51.035714285681024,252.23113720148103 52.30681818188168,251.99034016550286 59.31980519508943,254.59094309218926 60.81006493512541,250.6418749957811 62.69480519508943,251.60506470879773 64.00974025996402,246.06670295610093 65.89448051946238,246.2593424753868 78.86850649374537,252.6164122602204 77.94805194833316,256.2283540254575 75.09902597405016,261.8147815679549" stroke="#ffe500" stroke-linecap="round" stroke-linejoin="round" stroke-width="0.5"><title>2021-12-11 5.0km</title></polyline><polyline fill="none" points="93.97425530618057,237.476082780282 94.87100860010833,237.42857142857974 95.11160094721708,240.13670725660631 95.00224078935571,247.00196680714726 95.3959373573307,252.20426298642997 95.5271695466945,268.0719336543116 97.16757191345096,268.2857142857101 97.77998879703227,268.04818024209817 98.74235818546731,266.1716551237332 98.26117349113338,264.1050894637301 98.21742942812853,258.1903625516861 98.9392064694548,257.62026263735606 103.96977372746915,257.59650845229044 104.45095842168666,261.99100279199774 106.02574469381943,265.41154056444066 105.4133278101217,267.0267818534048 103.79479747498408,267.8343994526367 102.63557980256155,268.04818024209817 98.0643252072623,267.6681254069845 97.73624473391101,267.97691999474773 96.07397033565212,268.1194404736161 95.50529751519207,267.8581528807408 95.63652970455587,254.3184140669764 95.13347297871951,249.40120976103935 95.17721704184078,239.35277554986533 94.95849672623444,238.0699740834243 94.98036875785328,239.99417436140357 95.04598485247698,237.54734979468049 94.08361546392553,237.4998384534847" stroke="#ffe600" stroke-linecap="round" stroke-linejoin="round" stroke-width="0.5"><title>2021-12-05 4.9km</title></polyline><polyline fill="none" points="135.04619638994336,237.5018117336149 137.11413953709416,237.52622516502743 137.49625946651213,268.2857142857101 137.8109464670997,266.89427548021195 137.67608060967177,251.39276238030288 137.3613936090842,250.24537735941703 137.20405010867398,237.42857142857974 137.15909482294228,249.9768398637243 137.49625946651213,251.02657610483584 137.13661717996,238.2098005109292" stroke="#fffd00" stroke-linecap="round" stroke-linejoin="round" stroke-width="0.5"><title>2021-12-04 4.1km</title></polyline></svg>