<?xml version="1.0" encoding="utf-8" ?>
<svg baseProfile="full" height="300mm" version="1.1" viewBox="0,0,200,300" width="200mm" xmlns="http://www.w3.org/2000/svg" xmlns:ev="http://www.w3.org/2001/xml-events" xmlns:xlink="http://www.w3.org/1999/xlink"><defs /><rect fill="#222222" height="300" width="200" x="0" y="0" /><text fill="#FFFFFF" style="font-size:12px; font-family:Arial; font-weight:bold;" x="10" y="20">Over 10km Runs</text><text fill="#FFFFFF" style="font-size:4px; font-family:Arial" x="10" y="280">ATHLETE</text><text fill="#FFFFFF" style="font-size:9px; font-family:Arial" x="10" y="290">chensoul</text><text fill="#FFFFFF" style="font-size:4px; font-family:Arial" x="120" y="280">STATISTICS</text><text fill="#FFFFFF" style="font-size:3px; font-family:Arial" x="120" y="285">Number: 5</text><text fill="#FFFFFF" style="font-size:3px; font-family:Arial" x="120" y="290">Weekly: 1.0</text><text fill="#FFFFFF" style="font-size:3px; font-family:Arial" x="141" y="285">Total: 56.6 km</text><text fill="#FFFFFF" style="font-size:3px; font-family:Arial" x="141" y="290">Avg: 11.3 km</text><text fill="#FFFFFF" style="font-size:3px; font-family:Arial" x="167" y="285">Min: 10.0 km</text><text fill="#FFFFFF" style="font-size:3px; font-family:Arial" x="167" y="290">Max: 13.0 km</text><polyline fill="none" points="54.41383402131032,105.97224733344046 54.91622163343709,105.91674199191038 55.80138075980358,105.80573127468233 56.614770227111876,105.61146240969538 57.3085435963003,105.55595699415426 57.954470526310615,105.33393521766993 58.672167115146294,105.25067700466025 59.294170825509354,105.08416050148662 60.27502283023205,104.97314944237587 60.96879619942047,104.75112718748278 62.093187521910295,104.80663276827545 63.14580918557476,104.39034063450526 63.815659335115924,104.25157644753926 64.67689524183515,104.16831790123251 65.44243826984894,103.94629498544964 66.35152061574627,103.75202478477149 67.06921720458195,103.53000152728055 67.61945125611965,103.47449568440788 68.38499428424984,103.3079780874832 68.64814970002044,103.3079780874832 68.74384257860947,103.22471925057471 69.70077136368491,102.91943662925041 69.94000355992466,102.89168364662328 70.25100541522261,102.6974126881978 70.56200727028772,102.03133977111429 70.418467952637,100.67143580436823 70.17923575628083,98.97848457479267 70.0835428776918,97.95160735296668 70.01177321886644,96.8969726334617 69.96392677957192,96.4529146788409 69.82038746180478,95.28725907814805 69.79646424215753,94.39913715232979 69.67684814403765,93.67753593961243 69.58115526556503,92.59513050946407 69.29407663003076,90.51356942637358 69.19838375144172,88.93157228510245 68.55245682166424,83.88022120113601 68.5046103822533,83.32512191988644 68.5046103822533,83.0475718518137 68.38499428424984,82.24267504311865 68.36107106448617,81.21573425625684 68.24145496636629,79.9389916221262 68.24145496636629,79.49490581435384 68.28930140566081,79.32837344831205 68.19360852718819,78.77326482068747 68.24145496636629,77.10793209861731 68.19360852718819,75.85892582469387 68.21753174671903,75.359321699274 68.28930140566081,74.08255140605615 68.43284072342794,73.77723587738001 68.14576208789367,72.86128722206922 68.05006920930464,72.3339214368898 68.21753174671903,71.75104226687108 68.24145496636629,69.97464085373213 68.40891750378069,69.11419222256518 68.88738189637661,52.154468213237124 60.227176391053945,34.0 68.16968530754093,59.03841248853132 68.14576208789367,58.28895931877196 68.19360852718819,57.983625950000715 68.16968530754093,57.067623774317326 68.16968530754093,56.81780446044286 67.95437633083202,56.45695393256028 67.8586834523594,55.95731394473114 68.00222277012654,55.763009255577344 68.05006920930464,55.013547003269196 68.07399242906831,54.43063048136537 67.83476023271214,53.819954681239324 67.93045311130118,53.708922569436254 68.05006920930464,53.54237431604997 68.0261459897738,51.87688613744103 68.09791564859916,49.79501148086274 68.05006920930464,49.10104969821987 68.07399242906831,48.12950020871358 68.0261459897738,47.07467109398567 68.07399242906831,46.76932505556033 68.07399242906831,46.15863194360281 68.05006920930464,45.71449063179898 68.0261459897738,45.10379513617954 68.16968530754093,44.576375188393285 68.07399242906831,44.354303323547356 67.54768159706146,43.910159046325134 66.92567788681481,43.743604754214175 66.18405807833187,43.521532204933465 64.60512558289338,43.29945947317174 63.50465748005081,43.21618215178023 62.11711074155755,43.07738655892899 61.80610888637602,42.96635003341362 61.16018195648212,42.93859089491889 60.60994790494442,42.85531346226344 59.844404876814224,42.79979515954619 59.48555658257101,42.772036003967514 57.45208291406743,42.57772183470661 56.20807549345773,42.57772183470661 55.46645568497479,42.8275543123018 54.270294703543186,42.494444290874526 53.55259811470751,42.46668510392192 53.026287282817066,42.438925914029824 52.71528542775195,42.8275543123018 52.42820679221768,43.21618215178023 52.45213001186494,42.411166721372865 51.566970885614865,42.1058154135535 51.27989225008059,42.161333858734 50.68181175936479,42.30012992207776 50.41865634336136,41.99477848876268 50.39473312383052,42.022537724260474 50.05980804900173,41.49511176277883 49.9641151704127,41.60614889280987 48.76795418909751,41.467352473177016 46.68663408141583,40.96768477198202 45.72970529622398,40.99544411289389 44.15077280078549,40.96768477198202 41.83022049686406,40.80112866620766 40.3948273191927,40.66233183295117 39.940286146244034,40.63457245781319 38.768048384576105,40.38473795275786 37.76327316008974,40.079384355194634 36.39964964124374,39.85730879474431 35.179565440281294,39.77403041245998 34.34225275320932,39.662992529629264 33.28963108966127,39.63523305172566 32.90685957565438,39.57971408744925 32.47624162235297,39.55195460107643 32.02170044928789,39.413157126226 31.232234201626852,39.27435958018759 30.7776930287946,39.38539762274013 30.801616248325445,39.6074735710572 30.753769809030928,40.079384355194634 30.72984658938367,40.63457245781319 30.610230491263792,40.912166081456235 30.70592336973641,41.189759419852635 30.634153711027466,41.467352473177016 30.58630727173295,42.022537724260474 30.634153711027466,42.216852292680414 30.514537612791173,42.8275543123018 30.466691173496656,43.60480943226139 30.370998295140453,44.548616215295624 30.394921514671296,44.99275944320834 30.394921514671296,45.409143056487665 30.27530541655142,46.241908358293585 30.227458977373317,46.60277252551168 30.15568931843154,47.68536213587504 30.036073220311664,48.04622437557555 29.98822678090073,49.32311766248313 29.94038034172263,49.79501148086274 30.036073220311664,51.23844628108782 29.677224925835617,51.82136968802661 29.72507136501372,54.014260767318774 29.677224925835617,54.624936128326226 29.55760882771574,55.15233646609704 29.605455267010257,55.763009255577344 29.72507136501372,56.540227174031315 29.701148145482875,58.066898721124744 29.65330170618836,58.955140016798396 29.701148145482875,59.81562098817085 29.72507136501372,60.703856536973035 29.6293784865411,61.147973216633545 29.65330170618836,61.50881748163374 29.6293784865411,61.81414686809876 29.55760882771574,62.591347386158304 29.65330170618836,62.97994680714328 29.65330170618836,63.25751748014591 29.53368560806848,63.59060191141907 29.437992729595862,64.5343389044574 29.581532047246583,65.39480211446062 29.6293784865411,66.22750583881862 29.65330170618836,67.14347697270568 29.485839168773964,67.39328674320132 29.53368560806848,67.69860948255518 29.55760882771574,68.17047121960786 29.55760882771574,69.08643576948089 29.6293784865411,70.30771700793412 29.72507136501372,72.30616531448322 29.84468746325001,73.36089596422971 29.91645712207537,74.44337840456865 30.131766098784283,74.80420492147096 30.012150000664406,75.13727512490004 29.796841023955494,75.22054261172889 29.94038034172263,75.38707750826143 29.91645712207537,76.1642390023917 29.91645712207537,76.41404043658986 29.892533902428113,76.6360859622946 29.748994584777392,76.60833028153866 29.84468746325001,77.08017646634835 29.72507136501372,77.71855528789456 29.772917804308236,78.24591056862846 29.701148145482875,78.77326482068747 29.96430356136989,80.66062950406922 29.98822678090073,81.82634816729114 30.012150000664406,82.88104167420533 30.059996439842507,84.10226059454726 30.059996439842507,84.40756446259911 30.059996439842507,85.26796441792976 30.15568931843154,86.10060692889965 30.15568931843154,86.18387103889836 30.227458977373317,86.82222836406436 30.227458977373317,87.21079295454547 30.299228636082262,89.09809873590712 30.34707507537678,91.04089974972885 30.394921514671296,91.62373733165441 30.49061439326033,92.04004912090022 30.753769809030928,92.65063858570647 30.94515556609258,92.8449167626095 31.375773519393988,92.8449167626095 35.20348865992855,92.65063858570647 35.53841373475734,92.65063858570647 37.40442486573011,92.59513050946407 38.16996789374389,92.6228845489677 38.40920009010006,92.78940872626845 38.62450906669255,93.15021075849654 38.55273940798361,93.56652019746252 38.60058584716171,94.23261396653834 38.67235550598707,94.6211679072876 38.79197160410695,95.34276660165051 38.81589482387062,95.75907266474678 38.83981804328505,96.42516103250091 38.88766448269598,97.2022620542557 38.83981804328505,97.70182581749395 39.00728058081586,98.34015594955417 39.27043599670287,98.5066766057571 39.557514632237144,98.56218346839887 39.67713073035702,98.70095057503204 39.796746828593314,98.8119642091333 40.80152205284685,98.8119642091333 41.208216786501,98.78421080493717 41.97375981474761,98.70095057503204 42.212992010987364,98.70095057503204 42.834995721350424,98.61769031963195 43.1699207960628,98.72870398781379 44.03115670266561,98.72870398781379 44.79669973079581,98.67319715945632 45.179471244919114,98.56218346839887 46.016783931758255,98.56218346839887 46.83017339929938,98.36790939932689 47.30863779166248,98.34015594955417 47.61963964684401,98.22914212185424 47.811025404022075,97.97936084264074 48.16987369838171,98.1181282484904 48.86364706757013,98.00711432954995 49.38995789946057,97.92385386044043 49.916268731234595,97.70182581749395 50.17942414712161,97.8961003650038 49.9641151704127,97.95160735296668" stroke="#4dd2ff" stroke-linecap="round" stroke-linejoin="round" stroke-width="0.5"><title>2023-05-18 10.0km</title><desc>9091091194</desc></polyline><polyline fill="none" points="177.31034482753603,74.48608541669091 179.26344827580033,74.27487037298852 180.0413793103653,74.02525228665036 180.81931034475565,73.85243957024068 181.13379310350865,73.33400046321913 181.13379310350865,72.87316449533682 180.95172413793625,71.52905310521601 180.88551724137506,70.74178337777266 180.63724137929967,68.72558970069804 180.55448275862727,67.6310754618753 180.28965517238248,65.42282548618095 180.1075862068683,63.61780179575726 179.69379310344812,60.12291918270057 179.56137931032572,58.75951320458262 179.57793103443692,55.09170976495079 179.56137931032572,54.381184551952174 179.57793103443692,53.57463914717664 179.54482758615632,52.71047949664353 179.52827586204512,52.038352563467924 179.57793103443692,50.96294444617524 186.0,40.34295721667877 183.8482758620521,39.32509674978792 179.49517241382273,43.45411901126499 179.47862068971153,42.60911722431774 179.29655172413914,41.70649746131676 178.36965517239878,42.10979619172576 174.72827586199855,43.722982415463775 172.1296551724081,44.85604537167819 170.77241379307816,45.41297210479388 170.87172413791995,46.10432712122565 170.98758620687295,48.524049551284406 170.57379310345277,48.60086562359356 169.9613793102908,48.62006963675958 168.75310344825266,48.62006963675958 167.56137931032572,48.73529367428273 167.08137931034435,48.73529367428273 166.35310344828758,48.75449767365353 165.922758620698,48.77370167100162 165.31034482759424,48.63927364794654 164.63172413787106,48.83131365128793 163.9531034483225,48.869721628318075 162.76137931033736,48.94653755868785 160.36137931037229,49.11937328663771 159.28551724139834,49.21539306647901 157.48137931036763,49.25380096460867 156.32275862066308,49.292208854909404 154.1048275862122,49.484248187814956 153.27724137931364,49.445840336949914 152.78068965516286,49.90673402608081 152.78068965516286,52.4416290132358 152.86344827589346,53.248179304006044 153.09517241379945,54.477201630346826 152.61517241375986,54.88047282138723 152.3503448276315,54.765252569835866 151.8372413793113,56.896815734158736 152.0193103447673,58.06820496794535 152.21793103445088,58.49067141619162 152.28413793101208,58.95154281691066 152.2675862069009,59.20118101812841 152.31724137923447,60.29574458289426 152.31724137923447,60.64139490418893 152.1517241379479,61.71674737469584 152.1186206897255,62.388839529347024 152.0855172413285,63.19534692740126 152.38344827585388,64.42430389510992 152.46620689652627,65.74926408100873 152.51586206891807,66.72857644771284 152.49931034480687,67.6310754618753 152.49931034480687,68.39915629960888 152.49931034480687,69.0328206167469 152.56551724136807,69.87770303412981 152.63172413798748,70.9722041287605 152.73103448271286,71.83627941719897 152.84689655172406,72.83476144679298 152.76413793105166,73.25719454740465 152.78068965516286,73.46841074003896 152.78068965516286,76.19499836442992 152.76413793105166,76.88623961732083 151.9696551724337,76.92464183425182 151.25793103448814,76.9438429397851 150.76137931027915,77.0590495314973 149.53655172412982,77.61588039141498 147.7324137930991,78.74873805991956 147.02068965515355,79.22876042680582 146.47448275861097,79.5167732557311 145.54758620692883,79.82398645131616 145.00137931032805,79.90078967138834 144.53793103445787,79.97759285995562 143.6772413792787,80.0159944424231 142.31999999994878,80.0927975836239 141.8731034483062,80.13119914248819 140.92965517245466,80.26560453623824 139.24137931031873,80.61121796257794 138.39724137925077,80.93763005679648 137.7517241379246,81.22564025531756 136.72551724140067,81.68645565077895 136.24551724136109,81.9360635161429 135.78206896554912,82.16647048098093 134.90482758620055,82.60808303710655 134.55724137934158,81.72485688255983 134.34206896548858,81.20643958917935 134.0606896551326,80.03519523066643 133.9779310344602,79.38236732406949 133.28275862068404,78.49912594248599 132.35586206894368,77.67348348925589 131.56137931032572,77.21265821010456 131.21379310340853,77.1742560522689 130.2537931034458,76.55982045504788 129.9889655172592,76.38701007976488 128.88000000000466,75.58055955116288 127.62206896551652,74.60129352180229 127.35724137927173,74.44768269920314 127.10896551725455,74.25566899352998 126.62896551727317,73.87164099107031 126.23172413790599,73.73723100393545 125.83448275865521,73.48761220028973 125.23862068960443,73.06517961989448 124.37793103448348,72.50833521570894 123.9972413793439,72.27791635677568 123.61655172414612,72.22031159768812 123.30206896545133,71.97069077003107 123.03724137932295,72.14350522463792 122.65655172412517,72.66194763069507 122.0937931034714,73.58361947184312 121.91172413795721,73.83323814741743 121.46482758614002,74.39007860823767 120.81931034481386,75.2157355510717 119.85931034485111,76.84783739245904 119.67724137927871,77.1742560522689 119.11448275862494,78.01910170371411 117.21103448275244,80.59201723338629 116.30068965518149,81.916862922968 115.8537931034225,82.47367932603811 115.40689655177994,83.1840978483815 114.72827586205676,84.18251932068961 114.0,85.35373771912418 114.49655172415078,86.42894815540058 115.07586206897395,87.56175246732892 115.48965517239412,88.48335091637273 115.7875862068613,89.05934764213453 116.46620689652627,90.49933170006261 117.02896551718004,91.65131096850382 117.57517241383903,92.68808624704252 117.80689655174501,93.16807285678806 118.35310344822938,94.070444350451 118.88275862066075,95.18400317465421 119.06482758617494,95.66398338305589 119.51172413799213,96.71993550829939 119.66068965516752,97.18071275044349 119.71034482755931,97.4111009460612 119.8758620689623,97.92947334930068 120.1241379310959,98.52463989358512 120.30620689655188,99.08140688289132 120.67034482758027,99.71496730424406 120.86896551726386,100.46371776456363 121.9448275861796,100.57890987716382 122.77241379307816,99.90695488727943 123.13655172416475,99.59977465991687 123.9310344827245,98.94701500264637 124.54344827582827,98.37104870850453 125.03999999997905,97.91027439695608 126.18206896545598,96.71993550829939 128.1186206896091,94.70402173530601 128.64827586204046,94.12804238313402 129.6579310344532,93.14887341605208 130.96551724139135,91.86250639850914 131.47862068965333,91.3441171902814 131.9089655172429,90.99852358705539 133.13379310345044,90.11533703470195 134.1765517241438,89.38574499980314 134.82206896546995,89.09774736079271 135.9310344827827,88.5025508357794 136.37793103442527,88.2913516137487 137.13931034482084,88.04175222589402 138.89379310345976,87.56175246732892 139.8703448275337,87.42735231429106 140.61517241375986,87.25455197574047 141.07862068968825,87.1969518273836 141.49241379310843,87.10095154072042 142.68413793103537,86.94735097972443 143.49517241376452,86.83215047619888 143.71034482761752,86.81295038539974 144.67034482758027,86.62094936893845 145.8786206896766,86.52494878676953 146.39172413793858,86.42894815540058 146.92137931036996,86.35214761483076 150.0165517241112,85.87214352221054 151.05931034480454,85.71854195251944 151.63862068968592,85.64174112032924 152.51586206891807,85.5649402567069 153.24413793109125,85.35373771912418 153.6413793102838,85.25773648690665 154.0220689654816,85.21933598020405 154.30344827583758,84.85453077356215 154.71724137931596,84.93133192881942 155.8924137930735,84.70092836856202 156.42206896550488,84.6241271187464 157.23310344823403,84.5281255121954 159.48413793102372,84.14411859332176 161.32137931033503,83.76011088640371 162.2151724137948,83.70250966242747" stroke="#4dd2ff" stroke-linecap="round" stroke-linejoin="round" stroke-width="0.5"><title>2023-05-09 13.0km</title><desc>9036885819</desc></polyline><polyline fill="none" points="48.79166666674428,142.94317304316792 47.25,143.08818151126616 44.833333333488554,143.37819831326487 42.583333333488554,143.52320664731087 41.16666666674428,143.47487054092926 39.0,143.61987884517293 35.375,143.76488710494596 34.083333333488554,143.81322318149614 29.708333333255723,143.7165510233026 28.416666666744277,143.81322318149614 26.5,143.86155925315688 20.5,144.0065674384532 17.458333333488554,143.90989531992818 15.916666666511446,144.05490349035244 14.125,144.4415917263832 14.625,152.7553120147495 15.583333333255723,163.4855945330346 16.583333333488554,163.72726474815863 23.666666666744277,162.51891243309365 33.208333333488554,160.73054531798698 35.75,160.6338766317931 36.625,160.15053290358628 37.66666666674428,159.9571952734259 39.33333333325572,159.6671886794793 42.625,159.08717495563906 46.75000000023283,158.31382221300737 53.29166666674428,157.20212542099762 55.95833333325572,156.6704434189014 56.91666666674428,156.47710436041234 59.083333333488554,156.09042600521934 61.79166666674428,155.51040787703823 64.54166666674428,155.07539381226525 69.79166666674428,154.1570294671692 71.16666666674428,153.86701930206618 72.70833333325572,153.67367909284076 85.12500000023283,151.45026098153903 85.95833333348855,150.14520633241045 83.75,138.0611952333129 83.04166666674428,136.51441943011014 81.08333333348855,136.80444028007332 79.125,137.14279771284782 78.33333333348855,137.2878079666698 77.70833333348855,137.38448144451831 75.95833333348855,137.86784853573772 75.08333333348855,138.10953189531574 72.91666666674428,138.64123484984157 69.875,139.12460065135383 67.33333333348855,139.89798490179237 65.08333333348855,140.09133076597936 64.54166666674428,140.18800366832875 62.70833333325572,140.67136788225616 61.708333333488554,141.05805889636395 59.62500000023283,141.49308590762666 59.375,141.68643111700658 57.54166666674428,141.78310369182145 56.54166666674428,142.02478504239116 54.54166666674428,142.41147494514007 54.25000000023283,142.1697937930876 53.16666666674428,142.45981116071925 47.083333333488554,143.13651765725808 45.583333333488554,143.08818151126616 45.04166666674428,143.47487054092926 44.0,143.4265344296291 38.54166666674428,143.61987884517293 36.58333333325572,143.61987884517293 34.958333333488554,143.86155925315688 31.583333333488554,143.7165510233026 29.458333333488554,143.61987884517293 28.291666666744277,143.81322318149614 25.291666666744277,143.90989531992818 23.583333333488554,143.90989531992818 19.875,144.1999116159568 19.166666666744277,144.10323953718762 17.166666666744277,144.10323953718762 16.375,144.10323953718762 14.25,144.1999116159568 14.25,144.8766156124475 14.333333333488554,151.25691978022223 14.458333333488554,152.94865260107326 14.833333333255723,160.6338766317931 15.5,163.34059234452434 16.041666666511446,163.53392858605366 23.625,162.3255757750012 24.291666666744277,162.18057322927052 28.916666666744277,161.4555598316656 31.75,160.82721398427384 34.5,160.3922048297245 35.625,160.6338766317931 36.41666666674428,160.44053920014994 36.83333333325572,159.9571952734259 41.04166666674428,159.37718190683518 54.04166666674428,157.00878658049623 56.00000000023283,156.62210866180249 57.208333333488554,156.38043480133638 59.75,155.89708670854452 61.41666666674428,155.5587427483988 64.75,155.12372872824199 70.45833333348855,154.0120244070713 72.75000000023283,153.57700895829475 75.875,153.1903282221465 81.0,152.27196020176052 85.16666666674428,151.40192568860948 86.0,150.3868833920278 85.70833333348855,148.64680579441483 84.87500000023283,143.90989531992818 84.70833333348855,142.84650070636417 84.25,140.18800366832875 83.75,137.81951184890931 82.95833333348855,136.32107209746027 78.375,137.2878079666698 76.29166666674428,137.72283846029313 75.20833333348855,137.96452189455158 71.16666666674428,138.9312543902779 69.12500000023283,139.4146198941453 67.66666666697711,139.75297545158537 67.625,139.75297545158537 66.12500000023283,139.80131193989655 65.29166666674428,139.99465784366475 64.66666666674428,139.99465784366475 64.33333333348855,140.2846765507129 61.625,140.96138617245015 60.87500000023283,141.1063952507102 59.125,141.73476740694605 58.125,142.07312129758066 56.41666666674428,142.1214575478807 54.54166666674428,142.31480249919696 53.958333333488554,142.55648357683094 53.66666666674428,142.36313872475876 51.125,142.65315597312292 49.708333333488554,142.84650070636417 46.41666666697711,143.13651765725808 44.79166666674428,143.3298621920112 39.91666666674428,143.52320664731087 38.958333333488554,143.47487054092926 37.41666666674428,143.7165510233026 35.708333333488554,143.76488710494596 35.00000000023283,143.81322318149614 33.91666666674428,143.76488710494596 30.166666666744277,143.61987884517293 28.958333333255723,143.76488710494596 27.791666666511446,143.76488710494596 26.416666666744277,143.76488710494596 24.833333333255723,143.90989531992818 21.833333333255723,143.86155925315688 20.416666666977108,143.90989531992818 19.583333333255723,143.95823138175183 17.833333333255723,144.05490349035244 16.708333333488554,144.05490349035244 15.25,144.05490349035244 14.083333333488554,144.24824764800724 14.166666666744277,145.64999041781994 14.291666666744277,151.16024914980517 14.5,153.04532286446192 14.541666666744277,155.12372872824199 14.791666666744277,159.28051294284523 14.916666666744277,162.27724159814534 15.458333333255723,163.38892641241546 17.0,163.58226263406686 19.416666666744277,163.0989219311159 20.75000000023283,162.85725139372516 23.625,162.3739099469094 24.666666666744277,162.2289074161672 29.791666666977108,161.11721986415796 32.08333333325572,160.68221097745118 34.916666666511446,160.2955360741471 35.75,160.585542281362 36.58333333325572,160.10219850344583 37.25000000023283,159.90886085346574 38.0,160.0055296884966 39.41666666674428,159.7155231241777 40.083333333488554,159.57051977497758 43.41666666674428,158.94217141304398 48.29166666674428,158.02381460712058 51.458333333488554,157.44379885986564 54.458333333488554,156.91211713067605 55.66666666674428,156.62210866180249 56.458333333488554,156.2837652224407 56.833333333488554,156.13876081691706 57.208333333488554,155.89708670854452 58.29166666674428,156.18709562369622 59.70833333325572,155.99375636666082 61.583333333488554,155.51040787703823 62.70833333325572,155.31706834223587 63.833333333488554,155.31706834223587 64.625,155.26873344622436 66.54166666674428,154.64037934574299 69.41666666674428,154.35036947811022 70.20833333325572,154.1086944520939 71.33333333348855,154.0120244070713 74.75,153.28699843594222 75.62500000023283,153.1903282221465 76.16666666674428,153.04532286446192 79.5,152.4653009864851 80.70833333348855,152.22362499326118 82.62500000023283,152.03028410937986 84.75000000023283,151.49859626946272 85.91666666674428,150.62856032775017 85.70833333348855,148.21178539056564 85.375,146.66504292271566 85.04166666674428,144.77994367250358 84.83333333348855,143.6682149367698 84.29166666697711,141.3480769484595 84.04166666674428,139.99465784366475 83.45833333348855,136.9011138570786 82.25000000023283,136.36940893807332 80.91666666674428,136.51441943011014 79.5,136.75610348416376 74.87500000023283,137.77117515713326 70.41666666674428,138.73790804983582 67.45833333348855,139.80131193989655 66.29166666674428,139.70463895821013 65.125,140.042994307325 63.25000000023283,140.62303148311912" stroke="#4dd2ff" stroke-linecap="round" stroke-linejoin="round" stroke-width="0.5"><title>2023-05-06 12.0km</title><desc>9018058420</desc></polyline><polyline fill="none" points="139.82145044370554,140.12945417813899 140.73102295724675,139.97871532659337 141.207465702435,140.079207904535 141.3374046329409,139.928469022052 141.6622519592056,139.9033458660124 142.1603511926951,139.80285321586416 142.6151374495821,139.80285321586416 142.87501531059388,139.62699097879522 143.2431756136939,139.62699097879522 143.82790080085397,139.47625181786134 144.54256491875276,139.37575899233343 144.6941603376763,139.5264982151566 144.97569468710572,139.3255125641008 145.82029773539398,139.2752661255654 146.94643513311166,138.94866402367188 147.94263360032346,138.69743134106102 149.02545802108943,138.5466916078003 150.02165648841765,138.320581833701 150.67135114094708,138.1698418683518 151.34270228177775,138.04422515962506 152.4038702143589,137.76786817346874 152.9885954016354,137.34077039947442 153.03190837835427,136.28558446878742 152.9452824248001,135.4313830029423 152.92362593626603,135.1801467104524 152.75037402904127,134.20032270564116 152.59877861000132,133.5219807123358 152.46883967949543,132.03967129600642 152.10067937639542,128.0700527177396 151.97074044588953,126.96457785541133 151.60258014278952,124.07524497667328 151.1911068628542,120.00499644286174 151.10448090930004,119.32661510592152 151.16945037443656,118.37185300173587 152.3605572374072,118.0703484054975 154.39626714866608,117.618090814678 156.84345033986028,117.04020489915274 157.83964880707208,116.8392007825023 158.18615262187086,116.73869866230234 160.07026711420622,116.31156419101171 160.46008390560746,116.18593626335496 161.9327251180075,115.85930334993463 163.31874037673697,115.6080469659355 164.33659533236641,115.30653896469448 165.39776326483116,115.00503059194307 167.2818777570501,114.5527673362958 168.51629759697244,114.27638382426812 169.49083957576659,114.02512581506744 171.4399235333549,114.02512581506744 172.50109146581963,114.27638382426812 172.93422123417258,114.42713850591099 174.23361053923145,115.08040771991364 176.1177250314504,117.04020489915274 176.94067159143742,118.92461046342214 177.04895403340925,119.30148983512481 177.43877082504332,120.70850102827535 178.32668685005046,123.62299848235853 178.71650364156812,124.97973545847344 179.21460287517402,126.8640798930428 179.58276317827404,128.24592325820413 180.102518900414,129.9041249986185 180.49233569181524,131.28595120090176 180.62227462232113,131.8135555111803 180.83883950661402,132.34115868415392 181.0987173676258,133.44660926367214 181.66178606636822,135.53187744777824 182.26816774217878,137.31564697776048 182.76626697578467,139.04915702452126 182.72295399883296,139.62699097879522 181.8783509505447,139.928469022052 181.22865629801527,140.104331042603 180.99043492542114,140.02896162075922 179.9725799699081,140.3555622813583 178.26171738479752,140.65703942738764 178.0668089891551,140.73240865588014 176.42091586929746,141.13437748266733 175.5763128210092,141.15950051248365 175.03490061068442,141.33536164859834 173.7138548170915,141.68708354180853 172.73931283841375,141.88806725393806 171.98133574367967,142.11417373274162 170.941824299749,142.31515709421365 170.44372506602667,142.4407716113201 169.01439683046192,142.74224618944572 167.69335103710182,143.06884323002305 167.21690829191357,143.11908888994367 166.9570304309018,143.16933453959064 165.85254952160176,143.3954398349597 164.63978617021348,143.64666769612813 163.86015258717816,143.84764979945612 163.57861823774874,143.94814078915806 163.16714495781343,144.02350900444435 162.3441983978264,144.14912264495797 162.0626640485134,144.19936808312195 161.73781672224868,144.32498163339915 161.1964045118075,144.4254724272323 160.82824420870747,144.5008404955006 160.6549923014827,144.55108586147253 159.78873276466038,144.7018218975427 159.33394650788978,144.80231253663078 159.13903811213095,144.85255784081528 158.6625953669427,144.95304841799953 156.7135114094708,145.3801329111884 156.15044271061197,145.45550068555167 155.8039388958132,145.73184899314947 155.630686988472,145.80721665921737 155.52240454650018,145.68160386949603 154.6778014980955,145.95795192183868 154.82939691701904,146.91260642970155 155.04596180131193,147.21407550103322 155.3058396623237,147.76676783400762 156.06381675682496,150.304112077225 156.6268854556838,152.01240824043634 157.08167171257082,153.26850075605034 157.47148850397207,154.29849181012833 157.5797709460603,154.72556000080658 157.6230839228956,155.22799221260357 157.90461827232502,155.70530185873213 158.0345572028309,156.03188160683203 158.77087780914735,158.14207870903192 160.0269541372545,162.035847050327 160.17854955617804,162.8899556959077 160.46008390560746,163.56821632155334 160.71996176673565,164.3469576859934 161.1964045118075,165.62810744512535 161.26137397706043,165.95467395875312 161.80278618750162,167.56237967596098 162.45248084003106,169.37103599100374 162.88561060850043,170.95359930854465 163.57861823774874,172.88782947440632 163.75187014508992,173.44046385859838 164.33659533236641,175.24907676035946 164.7480686121853,177.33398894836137 164.44487777445465,177.6856591342803 163.68690067983698,177.6856591342803 163.27542739990167,177.63542056715232 162.84229763154872,177.61030127978302 162.25757244427223,177.66053985200415 161.86775565275457,177.61030127978302 161.58622130344156,177.5851819897798 161.34799993073102,177.56006269724458 160.74161825503688,177.5349434021482 160.41677092877217,177.50982410447614 159.96198467200156,177.48470480409742 159.68045032257214,177.4344661958603 158.05621369124856,177.4344661958603 156.7568243861897,177.5349434021482 155.717312942259,177.61030127978302 155.45743508113082,177.66053985200415 155.00264882447664,177.6856591342803 154.78608394030016,177.81125550677825 153.37841219315305,178.11268653821026 152.92362593626603,178.28852113518224 151.71086258487776,178.58995157912432 151.25607632822357,178.71554748799826 150.54141221032478,178.81602416865644 150.19490839564241,178.9667391123803 149.69680916203652,179.11745396333572 148.9604885558365,179.26816872159543 147.6394427624764,179.64495521143544 146.83815269102342,179.67007429008663 146.44833589950576,179.59471704626048 145.86361071211286,179.92126493545948 144.97569468710572,180.2226933699858 144.0661221735645,180.44876445228874 143.22151912527625,180.69995429905248 142.6151374495821,180.8255491258169 141.55396951711737,181.1018575179769 140.1246412814362,181.52887896547327 137.52586267131846,182.18196915084263 136.42138176213484,182.50851359051012 133.02131308056414,183.36255083576543 132.26333598594647,183.5635003431089 131.85186270601116,183.51326298172353 129.57793142215814,184.01563613164763 128.45179402455688,184.39241531782318 127.88872532558162,184.56824540633534 127.1957176963333,184.71895681034948 124.66190855146851,185.34691999548522 124.16380931786261,185.47251243921346 123.44914519996382,185.5729863479064 122.45294673286844,185.87440782669 122.10644291806966,185.974881570437 121.60834368446376,185.5729863479064 121.21852689306252,184.94502374246076 120.95864903205074,184.4677710854885 119.52932079648599,181.60423561411153 118.64140477124602,178.4643556059018 118.4464963756036,176.7311245976598 118.29490095668007,175.47515243392263 118.29490095668007,174.92252264122362 118.14330553764012,172.9883085461479 118.16496202617418,171.5564778821863 118.07833607250359,169.24543528960203 118.09999256092124,168.81839242315618 118.09999256092124,166.85900972348463 118.05667958408594,165.05033485415333 117.88342767674476,164.19623374419461 117.86177118832711,163.51797485817224 117.88342767674476,162.990438870067 118.05667958408594,162.33729750069324 118.14330553764012,161.70927531023335 118.07833607250359,158.99620093709382 118.0350230956683,156.55943258738262 118.0350230956683,155.32847853118437 117.86177118832711,154.27337012861972 117.81845821149182,153.49459672448575 117.62354981573299,152.53996788193763 117.60189332731534,151.68582313084335 117.4502979083918,146.4352796410967 117.19042004738003,142.18954251267132 117.73183225782122,142.06392786664946 119.50766430795193,142.0890508009761 119.81085514591541,142.03880492973258 123.73067954950966,142.01368199016724 125.0733818312874,141.91319020630908 125.28994671546388,141.8629442989186 125.70141999551561,141.63683758801199 126.00461083324626,141.58659162385447 128.1052902097581,141.51122265835875 129.90277874853928,141.4358536695945 130.61744286632165,141.38560766428418 130.94229019246995,141.4358536695945 132.39327491645236,141.38560766428418 132.67480926588178,141.38560766428418 134.68886268872302,141.1846235396224" stroke="#4dd2ff" stroke-linecap="round" stroke-linejoin="round" stroke-width="0.5"><title>2023-04-28 11.3km</title><desc>8969587462</desc></polyline><polyline fill="none" points="66.93269545340445,249.4506802530086 67.58525115856901,249.29405694185698 67.69776076287962,249.32016083379858 67.87777612975333,249.32016083379858 68.30531262629665,249.21574525015603 69.07037793577183,249.08522571036883 69.36290290707257,248.95470610361372 70.01545861223713,248.9024982421397 70.53300279227551,248.79808248706104 70.96053928870242,248.77197854158294 71.70310267736204,248.61535481254396 72.51317182870116,248.51093893953657 72.82819872081745,248.48483496459085 73.32324097980745,248.40652302371745 73.61576595110819,248.35431504974258 74.26832165627275,248.14548304659547 74.71836007363163,247.98885893178522 75.0558888866799,247.9627549032448 75.37091577879619,247.93665087212867 75.8659580379026,247.8844428016455 76.22598877188284,247.78002662866493 76.72103103087284,247.75392257867497 78.97122311778367,247.231841017041 79.69128458551131,247.02300809230655 80.86138447071426,246.68365422399074 81.3339248088887,246.18767467884754 81.22141520457808,245.22181699944485 81.06390175851993,243.65555350651266 81.04139983770438,243.42061315065075 80.97389407502487,242.7941044739855 80.86138447071426,241.5149778004561 80.81638062885031,240.99288343189983 80.74887486628722,240.3924735829496 80.65886718290858,239.71374769909016 80.59136142034549,239.19164963286312 80.50135373673402,238.6173405219597 80.50135373673402,238.5129205442645 80.43384797417093,237.88639977788262 80.43384797417093,237.70366426362307 80.29883644904476,236.81608989792585 80.18632684461772,235.66745964995062 80.07381724030711,234.77987817773828 80.05131531937514,234.36219170717231 80.00631147774402,233.94450455057085 79.84879803156946,232.79586133254634 79.87129995250143,232.53480533210677 79.78129226900637,231.69942432986863 79.69128458551131,231.51668436985346 79.71378650644328,231.04678101251193 79.60127690201625,229.68927754700417 79.46626537677366,228.30566078845004 79.44376345607452,228.07070625149936 79.37625769339502,227.6269026449445 79.33125385164749,227.26141674036626 79.24124616815243,226.84371792040474 79.1962423264049,226.37380592782574 79.1962423264049,225.51229835272534 79.24124616815243,225.09459665960458 79.21874424722046,224.59857500778162 79.1962423264049,224.2852976765571 79.15123848465737,223.39767647533154 79.12873656384181,220.4737258975656 79.12873656384181,219.95158832760353 79.15123848465737,219.42944968539814 79.08373272209428,218.28074089839356 79.15123848465737,217.96745578302944 79.08373272209428,216.7143114615319 79.15123848465737,216.47934621357126 79.15123848465737,216.03552237521217 79.1962423264049,215.6439124626777 79.44376345607452,214.3907566889975 79.60127690201625,194.0 80.09631916112266,201.04948626500845 79.12873656384181,205.59238494146848 79.06123080127873,203.24261989969818 78.76870582986157,203.11207676050253 77.32858289440628,203.66035749447474 68.12529725930654,207.70715490980365 67.22522042458877,208.07266892379266 67.20271850377321,208.35985813759908 67.40523579157889,209.639151603129 67.5177453958895,212.1977192225604 67.49524347495753,213.45088580549054 67.58525115856901,214.5212940369238 67.6527569211321,215.6178051136667 67.72026268369518,217.07981252664467 67.72026268369518,217.34088439425977 67.56274923763704,217.44531306628778 67.56274923763704,217.99356289066782 66.84268776979297,218.1763125694124 66.34764551080298,218.38516918433015 65.83010133076459,218.54181153293757 65.35756099247374,218.8550959405693 64.38997839507647,219.06395199793042 63.827430373523384,219.09005899299518 61.86976325791329,218.98563099656894 59.84459037974011,219.09005899299518 59.304544279119,219.2989148573397 57.18936371745076,219.37723576220742 55.41171196883079,219.63830527089885 53.63406022021081,219.74273299936613 52.373952651629224,219.847160684978 51.87891039252281,219.97769523152965 51.11384508293122,220.42151218882645 49.71872598910704,220.49983274788246 49.0661702840589,220.49983274788246 47.04099740588572,220.60426012250537 43.80072080087848,220.57815328292781 43.21567085839342,220.49983274788246 42.78813436173368,220.68258062530367 42.293092102743685,220.73479428050632 41.82055176445283,220.81311474308313 41.7755479227053,220.99586239534256 41.7755479227053,221.36135730579554 41.73054408095777,221.8312785615126 41.66303831839468,222.4056255837204 41.483022951404564,222.87554490953335 41.438019109657034,223.162717403422 41.7755479227053,223.81538095597352 41.95556328969542,224.80742634752824 42.09057481482159,226.60876203267253 42.04557097319048,227.15699209969898 42.00056713144295,227.13088593284192 42.04557097319048,227.28752289386466 42.068072894006036,227.49637202505255 42.18058249843307,228.98441712012573 42.18058249843307,229.9503364685952 42.18058249843307,230.31581850844668 42.22558634006418,230.9684637018654 42.22558634006418,232.32596033888694 42.248088260996155,232.5609109441575 42.293092102743685,232.821966917807 42.20308441913221,233.60513323065243 42.22558634006418,234.59714043136046 42.31559402355924,236.45061719996738 42.38309978612233,238.382395511886 42.4056017070543,239.29606933183095 42.47310746961739,240.36636877471756 42.49560939054936,241.22782603034284 42.51811131136492,241.854338565332 42.60811899485998,242.82020903297234 42.49560939054936,243.39450865329127 42.675624757423066,244.90856507245917 42.78813436173368,245.11739973328076 42.810636282665655,245.43065140303224 42.765632440918125,246.05715358510497 42.78813436173368,246.7619666953251 42.900643966160715,248.45873098699667 42.855640124413185,248.95470610361372 42.855640124413185,249.29405694185698 42.87814204534516,250.62535201235733 42.74313052010257,250.96470062169828 42.38309978612233,250.91249317285838 41.55052871408407,250.91249317285838 40.020398094900884,251.14742660851334 38.60277708026115,251.7478110693337 36.89263109432068,252.79195458235336 35.880044655292295,253.47064556737314 34.43992171972059,254.25374829983048 33.96738138142973,254.5408853643603 32.77477957541123,254.8802287500148 30.839614380849525,255.01074531623453 29.331985682598315,255.21957168294466 28.499414610560052,255.24567496670352 27.891862747143023,255.29788152621768 27.149299358483404,255.35008807503618 26.65425709937699,255.42839787814592 24.831601509009488,255.74163684960513 24.404065012582578,255.97656582506897 24.111540041165426,255.97656582506897 23.796513149049133,256.4464231250022 22.941440156195313,256.8901764446782 20.781255752663128,257.9865048569336 18.73358095367439,258.9784169679915 18.643573270295747,259.34385729706264 19.13861552940216,260.6489970438852 19.408638579887338,261.197153740839 19.79117123456672,262.34566870416165 20.196205810061656,263.44197360481485 21.006274961517192,265.4779558859009 21.276298011885956,265.92169345126604 22.78392671002075,265.58236479447805 27.666843538405374,264.6165807555808 29.421993366093375,264.3816597593104 31.424664323450997,264.06843142684374 38.35525595082436,263.1287441153254 40.51544035412371,262.91992424137425 41.14549413847271,262.7894117331307 41.7755479227053,262.71110419597244 42.65312283660751,262.5283865156671 43.17066701652948,262.1368481874524 43.32818046270404,262.2934635910933 44.745801477343775,261.84971969702747 45.173337973770685,261.7975144821248 46.09591672942042,261.7192066396674 46.77097435540054,261.56259088253137 53.43154293240514,260.3096613538946 55.23169660184067,260.04863359202864 55.77174270269461,260.17914750642376 56.064267673995346,260.10083916585427 56.33429072436411,259.8398111897113 57.90942518517841,259.52657726472535 58.53947896952741,259.4221658706956 59.9796019049827,259.21334295412817 60.407138401526026,259.1089314314886 62.139786308514886,258.76959368705866 65.33505907165818,258.24753473483725" stroke="#4dd2ff" stroke-linecap="round" stroke-linejoin="round" stroke-width="0.5"><title>2023-04-18 10.2km</title><desc>8909946697</desc></polyline></svg>