<?xml version="1.0" encoding="utf-8" ?>
<svg baseProfile="full" height="300mm" version="1.1" viewBox="0,0,200,300" width="200mm" xmlns="http://www.w3.org/2000/svg" xmlns:ev="http://www.w3.org/2001/xml-events" xmlns:xlink="http://www.w3.org/1999/xlink"><defs /><rect fill="#222222" height="300" width="200" x="0" y="0" /><text fill="#FFFFFF" style="font-size:12px; font-family:Arial; font-weight:bold;" x="10" y="20">Over 10km Runs</text><text fill="#FFFFFF" style="font-size:4px; font-family:Arial" x="10" y="280">ATHLETE</text><text fill="#FFFFFF" style="font-size:9px; font-family:Arial" x="10" y="290">jerryu</text><text fill="#FFFFFF" style="font-size:4px; font-family:Arial" x="120" y="280">STATISTICS</text><text fill="#FFFFFF" style="font-size:3px; font-family:Arial" x="120" y="285">Number: 13</text><text fill="#FFFFFF" style="font-size:3px; font-family:Arial" x="120" y="290">Weekly: 1.2</text><text fill="#FFFFFF" style="font-size:3px; font-family:Arial" x="141" y="285">Total: 153.0 km</text><text fill="#FFFFFF" style="font-size:3px; font-family:Arial" x="141" y="290">Avg: 11.8 km</text><text fill="#FFFFFF" style="font-size:3px; font-family:Arial" x="167" y="285">Min: 10.0 km</text><text fill="#FFFFFF" style="font-size:3px; font-family:Arial" x="167" y="290">Max: 16.2 km</text><polyline fill="none" points="33.20908693538513,32.39999999999418 33.396249569021165,32.56825562102313 34.82110058621038,32.624340735565056 34.99015070690075,32.61031946125877 35.032413237087894,32.51217046020611 35.27995091379853,32.554234335133515 35.35843846981879,33.171168180473614 35.527488590509165,33.381485258629255 35.660313685337314,33.86521207199257 35.87766384051065,34.082537492067786 35.93200137926033,34.61533236011746 36.35462668101536,35.45657892350573 36.43915174136055,35.926270398260385 36.390851706877584,38.590130879485514 36.54782681891811,38.828471210217685 36.40896421982325,39.05980073323735 36.35462668101536,40.84732054264168 36.19161406462081,41.225848127643985 35.660313685337314,41.80765494201478 35.46711354737636,42.41749530206289 35.527488590509165,43.23060728536075 35.714651224116096,43.917539152593235 35.98633891806821,44.61848289387126 36.282176629290916,44.82876460922853 38.01494036629447,44.933905223377224 38.11757793958532,45.081101810443215 37.495714995631715,46.93855521113437 37.15157724995515,48.40345442255784 36.559901827567955,49.75618025633594 36.57197683615959,50.036534580816806 35.64823867671657,52.804971573008515 34.66412547414075,56.72264329207246 34.42866280605085,56.86981440411182 34.15093760777381,56.785716664737265 34.597712926741224,56.86981440411182 34.55545039655408,57.08005829839385 33.97584998278762,58.54473942423647 32.01969858628581,64.28402377209568 31.983473560394486,65.07585289704002 31.675560840580147,66.58941217301617 31.72386087506311,67.15698823581624 31.53669824145618,67.50033442382846 31.44613567678607,67.93476997884136 30.800122715590987,73.04969007443287 30.745785176812205,73.32294212964916 30.618997586279875,73.32294212964916 30.7155976552458,73.58918666846876 30.56466004747199,74.22676804824732 29.985059633705532,74.75924902697443 30.05750968545908,74.91338748150156 29.882422060443787,75.17261955094 30.033359668188496,75.29172584701882 31.337460599199403,75.30573833873495 31.47632319832337,75.15160077124165 31.33142309487448,74.90638119566574 31.373685625061626,74.78727422642987 31.796310926787555,75.24268210325681 33.885287418117514,75.30573833873495 33.861137400905136,75.59999999999854 33.885287418117514,75.38280699181632 33.68604977588984,75.31975082761346 33.48681213366217,74.94841889983218 31.615185797476443,74.81529941438203 31.065772905247286,74.14969808840397 31.10803543543443,73.86944295445574 31.02351037506014,73.82039818757767 31.271048051770777,72.42611076988396 31.25293553888332,72.03374334002001 31.72386087506311,70.04384517637664 31.748010892304592,68.4532862100823 32.47251140951994,64.77453847368452 32.47854891384486,64.19292779593525 32.919286728516454,62.70734546083986 33.06418683193624,62.70734546083986 33.166824405197985,62.51814161203947 34.28376270260196,58.92316866336478 34.446775318996515,58.77600198678556 34.77883805605234,57.7458263499866 35.05656325430027,57.367390571307624 34.89958814223064,57.38841483640135" stroke="#4dd2ff" stroke-linecap="round" stroke-linejoin="round" stroke-width="0.5"><title>2023-10-15 12.3km</title><desc>1697371198000</desc></polyline><polyline fill="none" points="97.95354094577488,34.18141536372423 98.12732517000404,34.480632867169334 98.18125820512068,35.16256548063393 98.30110939423321,35.385235863454 98.17526564563741,35.94886698962364 98.18125820512068,36.700367842677224 98.30710195368738,36.825617172100465 98.21122100239154,38.14767926509376 98.37901266713743,38.32859101278882 98.75055135341245,38.32163287761068 98.37901266713743,38.34946541405225 98.25316891857074,38.72520353373693 98.20522844293737,41.3205227400249 98.46290849952493,41.41097442666796 99.5955022367416,41.424890060021426 99.84119717442081,41.73103326871205 99.90112276899163,43.157364023856644 99.75130878260825,44.64628206037014 99.71535342585412,47.30398879187851 99.93707812574576,47.505747600094764 102.3640647054417,47.47096164163668 102.93335785376257,47.561405096355884 103.01725368615007,47.721420142835996 102.49590101346257,49.481560651365726 102.28016887308331,49.64852812170284 102.02248881646665,49.697226889526064 102.3880349432875,49.745925622279174 102.26818375414587,50.35117837275175 101.80076411657501,51.77037046636542 101.46518078705412,52.36864840141061 101.27941144388751,53.25909877882077 100.28464657417499,56.3199325015521 99.49962128544576,59.41540749458363 100.64420014154166,59.770160746367765 100.71611085502082,59.916235073797 100.00898883922491,59.82580814639368 99.66741295022075,60.28489744943363 99.21797099101241,61.69692531594774 99.03819420732907,61.94037541655416 98.7805141507124,62.656809199615964 97.96552606468322,65.41813831723266 98.16328052672907,64.74346629552747 97.9894963024999,64.81997583218617 97.41421059472486,66.579671289197 97.27638172724983,67.97070249385433 96.77899929237901,70.36320925668406 96.41944572501234,73.40240543251275 96.17375078733312,74.5638013276839 96.27562429808313,74.84893140385248 96.21569870351232,75.59999999999854 96.05989215764566,75.44005090500286 96.37150524937897,73.62494990250707 96.29959453589981,73.81967571329733 95.98198888471234,73.75708533525176 95.95202608741238,73.29113292302645 96.17974334675819,72.4357193955293 96.3655126898957,71.07259906812396 96.30558709535399,70.82918183385482 96.58124483033316,69.6885865549848 96.54528947357903,69.34779520994925 96.677125781629,69.06264194894902 97.20447101377067,66.14149053500296 99.36179241797072,59.93710280909727 100.6981331766583,54.93561805011268 102.31013167035417,50.246824836904125 102.3041391109,49.961591016937746 103.37680725351674,49.83636603283958 102.86743969976669,49.80853822710196 102.8015215457417,49.70418385350058 103.06519416181254,49.02935501463071 103.27493374276673,48.00666341652686 103.9700706396834,45.6968540191956 104.04797391258762,44.945453221815114 103.95209296132089,44.42364219696174 103.94610040183761,41.82844218059472 103.59853195340838,41.7588644007119 103.47868076426676,41.59883523511962 103.62250219122507,41.24398660289444 103.58055427501677,38.815658694904414 103.45471052645007,38.384256068471586 103.56856915613753,38.18942817293282 103.49665844265837,35.1903993186279 103.60452451283345,33.60385224816855 103.41276261027087,32.81056473837816 103.16706767256255,32.580927141418215 102.47792333510006,32.400000000001455" stroke="#4dd2ff" stroke-linecap="round" stroke-linejoin="round" stroke-width="0.5"><title>2023-10-07 16.2km</title><desc>1696682811000</desc></polyline><polyline fill="none" points="163.63581735047046,32.46282006047841 164.4797818660736,32.58846008436376 166.3841120551224,32.400000000001455 167.02249547088286,32.7140999788171 168.86190531251486,37.29986756074504 168.68878438626416,37.80240695113025 168.7753448493895,42.45079817307851 169.1756869913661,43.34276650453103 169.75997011759318,43.50608394337178 172.7246659800876,43.49352107123559 173.1250081221806,43.76990395972825 173.21156858530594,49.88785576124792 173.00598748534685,51.50837066084932 171.4046189172077,56.897370082755515 171.06919712253148,57.75154860784096 170.4740939384792,58.10326743935002 170.90689625416417,58.10326743935002 170.93935642787255,58.341933212002914 169.83571052283514,61.77113199559972 169.29470762825804,62.8764942199341 169.1648669334827,63.84367795477738 167.40119749703445,69.47077677710331 167.07659576024162,69.99830399310304 167.087415818125,70.76447041385109 165.84310916054528,75.38648715075396 165.4427670185687,75.59999999999854 163.68991763994563,75.22321236703283 159.2645139619708,73.95468545547192 158.8858119357028,73.6658111479992 158.78843141469406,73.22621849907591 159.0913930356619,72.67358549476194 159.12385320931207,71.93255094921915 159.6648561039474,70.4881486525046 160.13011859334074,68.05146604526817 161.23376449837815,63.969285669736564 161.5150860035792,63.07746809432865 161.79640750878025,63.01466379414342 161.8937880298472,62.75088538038108 164.3283010555897,64.79829334680835 167.97466056531994,67.44856799738773 170.75541544368025,59.02024391241139 170.57147445948794,58.54291455331986 169.98719133331906,58.517791903774196 170.88525613839738,58.37961723873741 172.04300233290996,54.673965592977765 171.91316163819283,54.22174277318845 166.48149257618934,54.13381036362989 166.13525072362972,53.81976552647393 166.01623008679599,49.18436972573545 166.394932113064,46.96082469362591 166.30837164988043,43.7322154208814 166.08115043415455,43.50608394337178 164.53388215554878,43.51864681424195 164.1227199556306,43.19201175155467 163.64663740835385,43.179448847040476 163.43023625051137,42.92819048553065 163.43023625051137,39.33513930536719 163.63581735047046,38.103929591641645 163.40859613474458,37.28730404947419" stroke="#4dd2ff" stroke-linecap="round" stroke-linejoin="round" stroke-width="0.5"><title>2023-10-05 10.8km</title><desc>1696510480000</desc></polyline><polyline fill="none" points="12.643551797053078,109.78266243739927 12.514164904889185,109.11980158944789 12.506553911196534,105.54026449577213 12.39999999999418,105.08949738294177 12.56744186047581,103.78137548589439 12.521775898523629,102.9063368640127 12.909936575073516,101.1208768311335 13.381818181835115,99.77733784134034 14.736575052869739,99.99831609516696 15.619450317142764,100.32536286582763 15.779281183931744,100.25465015623922 16.159830866818083,98.3188670845775 16.677378435531864,97.73547183626943 17.31670190274599,97.34653946567414 18.930232558137504,97.77966858493164 19.13572938690777,97.69127506481163 18.998731501051225,96.30348485327704 18.473572938673897,95.55212409267551 18.260465116269188,94.924511822348 18.093023255845765,94.84495500929916 18.047357293893583,94.5974444522144 17.69725158563233,94.22617727686156 19.11289640594623,94.34993318060879 19.72177589853527,94.5709254215617 20.353488372114953,95.11014409903873 20.73403805497219,95.69355720945168 21.183086680743145,95.95874367463693 21.52558139534085,95.99410180803534 22.301902748440625,95.77311323513277 22.903171247366117,95.82615054455528 23.496828752628062,96.09133659968211 24.02198731500539,96.57750890398165 24.40253699789173,96.75429814938252 25.597463002137374,96.74545869575377 26.08456659616786,96.86037152162316 26.487949260044843,97.13439379271585 27.104439746326534,97.86806201396394 27.583932346693473,97.79734727803589 28.375475687120343,97.97413400849473 28.90063424949767,97.59404208743217 29.48668076112517,97.68243570778577 30.719661733630346,97.62056018309522 31.001268498948775,97.68243570778577 31.594926004268927,98.0890451878513 32.18858350950177,98.15975968319981 33.01057082452462,97.86806201396394 34.67737843550276,97.91225869429036 35.971247357316315,97.57636335242569 37.15095137420576,97.55868461377395 38.37632135307649,97.85922267514252 39.053699788608355,98.25699201912357 40.02790697675664,98.52217055673827 40.89556025370257,98.28350990978652 41.64143763211905,97.64707827058737 42.18942917545792,97.45261210533499 44.03890063424478,97.64707827058737 45.690486257954035,97.26698489979026 46.14714587738854,97.32886067961954 46.839746300218394,97.64707827058737 47.326849894277984,97.65591763124394 48.54460887948517,96.83385319088848 49.92980972514488,96.78965595470072 50.87357293869718,96.2416083335338 51.42156448200694,96.33884284451051 52.35010570826125,96.75429814938252 53.59830866806442,96.51563258197712 54.26046511629829,97.01064190777106 55.05200845663785,96.83385319088848 55.56194503168808,96.48911414457689 55.60000000000582,96.3742008211484 54.876955602521775,96.92224759485543 54.2300211416441,96.93992646474362 53.66680761097814,96.46259569901304 52.37293868922279,96.68358249494486 51.00295983086107,96.15321322785894 49.899365750548895,96.7189403294542 48.97843551795813,96.66590357223322 48.51416490486008,96.78965595470072 47.55517970403889,97.49680899978557 47.151797040132806,97.60288145356026 45.77420718816575,97.18743026013544 43.9932346722926,97.58520272037276 41.97632135308231,97.20510907533753 41.557716701878235,97.4172545733527 40.79661733613466,98.09788450293854 39.95940803384292,98.36306353257532 39.29725158563815,98.27467061381321 38.26976744187414,97.73547183626943 36.823678646906046,97.4791302447411 35.750528541218955,97.54984524306201 34.65454545454122,97.84154399480758 32.99534883722663,97.80618662320921 32.42452431289712,98.07136655489012 32.03636363634723,98.11556313046458 31.541649048624095,98.00065198664379 30.841437632130692,97.56752398354001 28.931078224093653,97.42609395769978 28.672304439736763,97.4879696226999 28.390697674418334,97.93877669157519 27.545877378433943,97.7531505384759 27.134883720922517,97.82386531084921 26.86849894290208,97.59404208743217 25.886680761090247,97.36421824804711 25.216913319251034,96.97528419352602 24.349260042276,97.18743026013544 23.85454545452376,97.11671496293275 23.397885835089255,96.82501374547428 22.865116279077483,96.2150898113905 22.157293868920533,96.02945992685272 22.1192389006319,95.77311323513277 21.380972515849862,95.94106460249168 20.90147991545382,95.76427368035365 20.20887949259486,94.87147395517968 19.752219873131253,94.52672701893607 19.06723044399405,94.29689495803177 17.69725158563233,94.21733756260801 17.71247357293032,94.38529197743628 18.070190274855122,94.6416428183802 18.07780126851867,94.87147395517968 18.260465116269188,94.95987038222665 18.450739957712358,95.53444493666757 18.975898520089686,96.30348485327704 19.128118393244222,97.70011442094255 18.953065539099043,97.79734727803589 17.354756871063728,97.42609395769978 16.441437632136513,97.92109802761115 16.04566596195218,98.53100982718752 15.817336152249482,100.17509828825132 15.680338266392937,100.42259274631215 15.74122621564311,100.97945266550232 15.436786469363142,103.37479299416736 15.375898520083865,105.07182019299216 15.246511627919972,105.44304041692521 15.261733615217963,106.282699282252 14.843128964072093,109.17283064578805 14.622410148003837,109.6324144274331 14.005919661722146,109.6324144274331" stroke="#4dd2ff" stroke-linecap="round" stroke-linejoin="round" stroke-width="0.5"><title>2023-10-01 15.8km</title><desc>1696118254000</desc></polyline><polyline fill="none" points="107.2210218977998,80.71966378044453 106.84262773720548,80.866126577268 107.20525547448779,82.09274776255188 106.6376642335672,82.58705539919902 100.44145985401701,82.73351665718656 99.05401459854329,82.97151594393654 98.51795620442135,83.39259082436911 98.40759124082979,89.781822034769 98.3445255474071,90.23949453832756 97.84000000002561,90.75208634336013 87.32379562046845,91.00838169160124 83.74481751822168,98.45909207810473 80.07124087586999,103.8043725053576 79.83474452554947,104.66472796941525 79.17255474446574,105.15897284250241 78.40000000002328,106.67830958950799 78.68379562039627,107.52034605035442 79.55094890511828,108.05119307401765 80.32350364961894,111.95012436817342 79.94510948902462,114.38462496410648 79.07795620430261,115.95879557541048 79.36175182479201,116.87400464100938 79.25138686131686,117.62447255998268 78.51036496349843,118.26511339965509 78.66802919708425,119.27183005611005 80.70189781015506,119.2901339426171 81.56905109487707,119.6745151230134 85.25839416059898,120.00398404494626 91.24963503651088,120.04059166525258 99.52700729924254,117.44143189613533 102.52262773719849,123.28033621955547 103.29518248175737,122.18212433885492 112.83386861311737,121.65131949879287 117.51649635034846,121.01069085780182 117.894890511001,121.13881677061727 118.08408759126905,121.59640856286569 119.72379562049173,116.28827138169436 120.1337226277683,114.12836331309518 120.46481751825195,113.85379684857617 121.50540145981358,110.11965083966788 121.59999999997672,99.8137331437174 120.95357664232142,99.11810793991026 115.89255474449601,98.86182428395841 115.49839416058967,98.25772563304054 115.4510948905372,97.36072687950218 115.54569343070034,91.4843577863212 116.05021897814004,90.66055220087583 118.02102189784637,90.6971658635448 118.44671532843495,90.31272202960099 118.85664233576972,90.66055220087583 121.23737226275261,90.55071116768522 121.42656934307888,83.42920598418277 120.9378102190094,82.89828542812029 112.25051094888477,83.02643881099357" stroke="#4dd2ff" stroke-linecap="round" stroke-linejoin="round" stroke-width="0.5"><title>2023-09-27 10.1km</title><desc>1695818073000</desc></polyline><polyline fill="none" points="167.1827283843886,123.60000000000582 167.45938999473583,123.23054536766722 167.05823065969162,122.21855645677715 167.40405767259654,121.75271808372054 167.00289833761053,120.676465485667 167.16889530379558,119.8572234535095 166.97523217654089,110.55611496526399 167.62538696092088,107.21464861392451 168.74586648290278,103.92130639779498 170.93149320484372,104.2265459193004 172.7574598332285,104.82095800887328 173.0202883630991,104.69243666801776 173.76727471110644,101.17412380353198 174.55576030066004,100.17805733428395 175.5240759368753,99.68002171248372 174.6525918642874,99.27837892268144 174.68025802529883,99.11772151690093 178.83018218079815,100.21018861007178 179.1898422742379,99.9531382182904 178.98234606650658,97.73606099079188 177.9448650276172,96.12946358090267 177.5575387730496,95.00483553901722 177.23937792121433,94.8602399162337 177.21171176014468,94.44251847453415 176.42322617059108,93.67133748657943 174.1407678850228,93.14114834352222 172.60529594752006,91.64696923512383 171.3188194593531,91.34170507411181 169.58968439453747,90.20097581128357 168.7596995634376,90.12064244991052 167.40405767259654,90.65084186996683 166.76773596875137,90.5865753696853 166.5325735999504,90.28130913132918 166.61557208310114,89.26910627250618 166.919899854518,88.5943007136957 167.66688620246714,87.903425328288 167.8328831686522,85.97538479392824 168.74586648290278,85.01135557996167 170.97299244638998,84.97922117004055 171.85830959951272,84.52933873615984 172.5637967059156,83.82237800123403 173.60127774486318,83.42069433638244 175.69007290311856,84.0312530977244 177.43304104846902,83.90271460993972 178.2768589600455,84.51327148232667 178.6780182950315,85.17202752979938 178.76101677818224,85.95931768920855 178.24919279897586,87.43748438525654 178.3460243626032,88.6264343780058 177.93103194708237,89.10843854736595 177.1563794380636,89.26910627250618 176.25722920434782,92.8198207122332 176.32639460696373,93.02868374793616 177.50220645102672,93.5428069509071 177.3500425653183,95.02090171106101 177.1563794380636,94.41038600954926 176.18806380173191,93.55887327363598 174.95691963564605,93.4464089795365 173.55977850331692,92.83588710952608 167.54238847788656,91.1810394860513 162.29965096141677,89.28517303589615 161.9953231899417,88.54610020482505 162.68697721592616,85.86291502627137 162.53481333021773,85.60584096686216 160.97167523158714,84.93101954284066 161.7324946601293,83.26002058040467 161.67716233804822,82.53698662831448 161.276003003004,82.02282710984582 160.65351437963545,81.83001685292402 159.8373626290704,82.08709714243014 158.95204547594767,82.00675959752698 157.43040661892155,80.83382672442531 156.26842785539338,80.40000000000873 154.0413018919062,80.65708264920977 152.8101577257621,80.44820302905282 153.86147184524452,80.73742089005827 156.25459477485856,80.51247371120553 157.20907733065542,80.7534885332716 158.9658785564243,82.05496212941944 159.78203030704753,82.13529964949703 160.63968129921705,81.89428696507821 161.23450376151595,82.08709714243014 161.55266461335123,82.53698662831448 161.63566309650196,83.21181842137594 160.874843668018,84.91495233048045 162.57631257170578,85.97538479392824 161.88465854577953,88.48183283640537 162.2581517198123,89.36550682807865 168.44153871154413,91.56663661915809 173.65661006688606,92.948351844243 174.7355903473217,93.52674062644655 176.20189688226674,93.65527117541933 177.0872140354477,94.49071715958416 177.1563794380636,94.94057083434018 177.47454029001528,95.06910021720978 177.8203673029202,96.1776617441792 178.8578483418678,97.75212688128522 179.0515114691225,100.00133519903466 178.76101677818224,100.25838551139168 175.35807897069026,99.24624745477922 174.666424944764,99.13378726491646 174.2652656097198,99.34264183854975 165.84091957408236,96.96489630106953 165.23226403124863,97.43080875741725 164.19478299235925,102.5396884555812 167.65305312199052,103.55180512458901 168.20637634274317,104.72456701319607 166.8507344519021,109.91353084516595 166.74006980773993,112.33927202416817 166.83690137136728,113.8814454642561 167.09972990123788,114.4918849029782 166.8507344519021,115.45573178159248 166.90606677398318,119.51988724785042 167.14122914278414,121.0780531448545" stroke="#4dd2ff" stroke-linecap="round" stroke-linejoin="round" stroke-width="0.5"><title>2023-09-23 13.8km</title><desc>1695473324000</desc></polyline><polyline fill="none" points="12.400000000023283,150.88930615365825 12.540032414952293,150.59891320146562 12.520027784223203,148.9030034176103 13.530261634616181,145.16261903375562 13.840333410480525,145.11615385086043 16.52095392451156,145.82474580841517 16.911044223234057,145.232316772177 17.07108126883395,143.32722974274657 17.801250289427117,142.14234229765862 18.89150266267825,141.51504390065384 20.96198194025783,142.09587586946873 21.222042139386758,141.96809309320088 21.212039824051317,140.92259220834967 21.01199351705145,140.08618451649818 20.371845334593672,139.15683535542485 20.08177818940021,138.30879755778733 19.851724936335813,138.21586152072268 19.8017133596004,137.87896774367255 19.321602222742513,137.42590211058268 21.062005093786865,137.56530711478263 21.842185691115446,137.80926545713737 22.57235471176682,138.32041455701983 23.34253299375996,139.37755647517042 23.822644130617846,139.67959520164004 26.00314887712011,139.47049155416607 26.77332715911325,139.7957637270083 28.06362583936425,140.725107618724 30.14410743227927,140.79480810165114 30.744246353337076,141.12007645185804 31.74447788845282,142.2120419040075 32.19458207918797,142.09587586946873 33.43486918270355,142.31659123268764 33.72493632789701,141.75899369223043 33.984996526967734,141.67767715374066 34.61514239414828,141.84031017202506 36.61560546426335,141.88677670558536 37.555823107250035,142.4908398982443 38.43602685810765,142.56053928906476 39.40625144710066,142.18880870667635 41.76679786993191,142.2120419040075 42.636999305395875,141.91000996518414 44.43741606856929,141.67767715374066 46.52789997687796,142.18880870667635 46.90798796020681,142.5837724097437 47.70817318826448,142.93226864528697 48.61838388518663,143.036817305765 49.67862931237323,142.76963720280764 50.768881685624365,141.94485984557105 51.08895577682415,143.18783186638757 51.679092382546514,143.65249078364286 51.88914100494003,144.12876418555243 53.08941884699743,144.00098371430795 52.479277610604186,144.16361337986018 52.76934475579765,144.7908970342396 52.50928455666872,144.90706029078865 52.65931928687496,144.69796634277736 52.189210465410724,144.94190924442228 52.19921278080437,145.49949103679683 54.62977541098371,148.89138750919665 55.49997684650589,150.6453761241064 55.600000000034925,151.237776708811 55.50997916189954,152.805880875625 55.25992127810605,153.13111456398474 55.319935170176905,153.537655354834 54.86983097938355,154.67596176933876 53.57953229919076,156.22078780413722 50.67886084743077,157.52167751940578 50.28877054876648,157.48683245487337 49.708636258379556,157.84689760273614 49.02847881458001,158.78770756113954 48.5883769391221,159.7401244603825 48.37832831678679,160.98290026653558 48.438342208915856,162.03982965889008 48.20828895579325,162.23727690858505 45.1775874044979,162.19081876329437 44.89752257469809,161.90045492154604 44.877517943968996,161.1687347237239 44.80750173650449,161.7494654283073 45.1775874044979,162.2256623740468 44.9475341514335,161.98175687260664 43.567214633047115,162.36503670943057 41.24667747167405,162.21404783833714 40.90659874974517,162.38826574857376 40.1064135216875,162.27212050497474 39.5762908080942,162.51602537831786 38.25598518177867,162.24889144190092 35.79541560547659,162.41149478290026 35.565362352412194,162.2256623740468 34.45510534849018,162.17920422396855 34.0450104190968,162.20243330142694 33.624913174367975,162.50441087248328 32.53466080111684,162.2256623740468 32.314609863387886,161.63331952667795 32.23459134058794,162.26050597405265 31.614447788859252,162.42310929831 28.673767075757496,162.43472381248284 28.32368603843497,162.27212050497474 27.963602685835212,162.44633832546242 27.00338041211944,162.4927963654918 22.33229914336698,162.51602537831786 20.941977309586946,162.21404783833714 17.501180828898214,162.57409788941004 15.820791849982925,162.53925438634178 15.520722389454022,162.3301931417227 15.270664505660534,162.5624833895854 14.610511692531873,162.57409788941004 14.410465385532007,161.6681633097396 14.140402871067636,161.1687347237239 13.78031951840967,160.97128560279816" stroke="#4dd2ff" stroke-linecap="round" stroke-linejoin="round" stroke-width="0.5"><title>2023-09-17 12.0km</title><desc>1694942313000</desc></polyline><polyline fill="none" points="78.44030790758552,161.380820870334 78.56123163050506,161.2989105447923 78.50076976901619,160.42129620715423 78.65192442265106,160.0351437503341 78.44030790758552,159.33304501081875 78.71238628413994,159.11071283851925 78.50076976901619,158.2681869728549 78.5914625612204,157.09800179086596 78.43023093073862,156.26716299250984 78.55115465359995,153.6107784456908 78.40000000002328,152.25330684650544 78.47053883835906,150.74368575240078 79.49839048285503,146.42535645817406 79.92162351292791,145.96893807454762 81.69517144857673,146.2264050806334 82.67263820854714,146.65941645605199 82.94471658498514,146.2966232537001 83.21679496148136,144.34220122010447 83.88187543739332,143.27720259737544 84.90972708183108,142.76225462536968 86.96543037088122,143.3474225944301 87.27781665499788,143.23038924189314 87.26773967809277,142.17708364021382 86.99566130159656,141.13547182389448 86.37088873336324,140.3162198608261 86.12904128764058,139.52036943548592 85.88719384180149,139.4384433396408 85.86703988804948,139.13414589471358 85.35311406577239,138.61917912967328 86.97550734778633,138.73621723592805 87.98320503847208,139.05221952017746 88.71882435266161,139.62570290033182 89.39398180542048,140.57369968625426 89.92806158150779,140.88969685572374 92.01399580127327,140.6439213554695 92.82015395379858,140.9365111764273 93.7170048985281,141.70894468040206 94.28131560533075,141.9430144016078 96.29671098670224,142.0132352238361 96.82071378588444,142.294118078491 97.50594821554841,143.12505912146298 97.98964310705196,142.98461880889954 98.7252624212415,142.31752495170804 98.13072078378173,142.8909918373247 97.62687193840975,143.12505912146298 97.86871938419063,143.46445582631713 98.3725682295044,143.31231260135246 99.53142057382502,143.53467570753128 99.85388383484678,142.98461880889954 100.1360391882481,142.8909918373247 102.75605318404268,143.10165241479262 103.7335199440131,143.71022522059502 104.49937018891796,143.76874166463676 105.69853044085903,143.382532576652 107.92554233729606,143.4410491896051 110.20293911825866,142.8909918373247 112.62141357595101,143.32401593361283 113.59888033592142,143.86236791236297 114.48565430368762,144.10813644526934 115.64450664800825,144.10813644526934 116.50104968511732,143.64000544798182 116.39020293910289,143.78044494979986 116.56151154648978,144.1666526842091 117.28705388383241,144.00280713917164 117.42813156050397,144.52945269252814 117.97228831349639,144.88054837098753 118.31490552832838,145.72317356958956 118.17382785165682,146.05085945798783 118.81875437364215,145.31356487912126 119.19160251924768,145.19653355328774 119.62491252622567,145.38378361670038 119.55437368788989,145.58273647073656 118.51644506648881,146.1912959778274 118.46606018196326,146.7530403200726 118.28467459761305,146.71793138009525 118.21413575927727,146.9519907748254 120.84422673197696,150.74368575240078 121.36822953115916,151.85542416471435 121.60000000003492,153.4235419484612 121.4891532540205,154.523551948987 121.02561231632717,155.83418825187982 120.13883834850276,156.9107710428725 118.73813855840126,157.82351802394987 117.23666899930686,158.3383977003541 112.14779566129437,158.42031016093824 107.83484954515006,158.1394671930102 107.4317704688292,158.35009948406514 106.15199440164724,158.2447833873739 103.34051784465555,158.44371371025045 100.73058082570788,158.17457260199444 100.216655003489,158.38520482792956 99.22911126661347,158.22137979706167 98.6446466060006,158.2915905534901 98.6345696290955,158.7713628943311 98.86634009791305,158.92348540847888 98.2919524142635,159.08730942663533 97.5865640307893,158.95859057510825 96.04478656401625,158.9936957309037 95.85332400276093,159.16922134708875 95.31924422673183,159.028800875858 93.34415675298078,159.14581794727565 92.46745976206148,158.84157331077586 89.50482855143491,158.90008195803966 87.25766270118766,159.71919985461864 87.27781665499788,159.57878006332612" stroke="#4dd2ff" stroke-linecap="round" stroke-linejoin="round" stroke-width="0.5"><title>2023-09-10 11.8km</title><desc>1694335282000</desc></polyline><polyline fill="none" points="144.65495081973495,164.43406594751286 148.97495081974193,164.2860375634482 148.9466229508398,163.52944590138213 149.72563934430946,160.6017313379416 150.0939016393968,157.80554932101222 149.92393442621687,156.86799497394531 150.22137704922352,153.33155620899925 149.82478688535048,152.755849459194 150.4055081967963,148.19946850011183 150.17888524592854,146.99866774474503 150.58963934431085,146.4722864831274 151.08537704922492,143.46201028802898 151.7510819672607,142.37632297349046 153.30911475414177,141.33997819185606 156.3401967213722,142.16247460139857 156.69429508206667,141.93217603402445 156.69429508206667,140.28717660163238 156.439344262355,139.33306916072615 155.46203278691974,138.0005992223596 155.10793442628346,136.84907302878855 154.73967213119613,136.70101905814954 154.65468852460617,136.22395532927476 153.9889836065704,135.56593405247258 156.38268852466717,135.7962418080424 157.4733114754199,136.10880180171807 158.6489180328208,136.91487474941823 159.64039344270714,138.2967046146514 160.33442622958682,138.77376214656397 160.98596721311333,138.88891375091043 163.32301639352227,138.46120737296587 164.42780327872606,138.83956307345943 165.71672131150262,139.92527445076848 166.59488524595508,140.3365268313646 169.32852459023707,140.35297690451262 170.30583606561413,140.86292833191692 171.56642622954678,142.39277283637784 172.47291803284315,142.22827413101913 173.9742950819782,142.54082152621413 174.4983606558526,141.93217603402445 174.9091147541767,141.80057670349197 177.54360655741766,142.0637752561306 179.5265573770739,143.26461314388143 180.54636065580416,143.52780928183347 184.3281311475439,143.11656512551417 186.31108196725836,143.14946469699498 186.79265573772136,144.33384475407365 186.58019672130467,145.09052741086634 186.93429508205736,146.32424144046672 186.80681967223063,147.22895900075673 187.60000000003492,148.2652655406564 187.26006557384972,148.57780111294414 186.63685245905071,148.6271487789054 180.92878688528435,148.6600472144346 180.80131147551583,149.0712770862301 180.2205901640118,149.58120065566618 179.86649180337554,153.00258117767225 178.9458360656281,153.6276331574336 177.75606557383435,153.87436352827353 177.34531147545204,154.74614111737174 177.44445901649306,155.65081093960907 177.13285245903535,155.8975381830969 177.10452459019143,156.32519783500175 176.77875409839908,156.53902723130886 173.09613114758395,156.70351118739927 172.54373770498205,157.21341037408274 172.37377049180213,157.0324785910634 172.20380327873863,157.47658351060818 172.3596065574675,159.66419341394794 172.2179672131315,163.18404416786507 170.419147541048,163.57878894518944 160.90098360663978,163.6281319737027 157.65744262305088,163.3649689786398 149.25822950829752,163.595236623034 149.0174426230369,163.31562586872315 149.49901639349991,161.06227426628175 149.3007213115343,160.40435539049213 147.261114754132,160.1576351129479 144.40000000002328,160.4865953982371 144.41416393447435,163.20049188639678 145.0798688524519,163.595236623034 147.95514754101168,163.7761609677982 148.42255737714004,163.54589358434896" stroke="#4dd2ff" stroke-linecap="round" stroke-linejoin="round" stroke-width="0.5"><title>2023-08-27 10.1km</title><desc>1693140460000</desc></polyline><polyline fill="none" points="24.67430506099481,205.04759760519664 24.622591410705354,204.7072945478576 24.622591410705354,204.046704558481 24.553639876889065,203.52623813625542 24.58811564388452,203.04580635509046 24.553639876889065,202.0849392281816 24.605353527294938,201.64454020668927 24.8294460119796,201.3242493821599 24.881159662269056,201.1440855612891 24.86392177880043,199.9630074864108 24.898397545679472,199.56264040757378 24.86392177880043,199.2623645569547 24.95011119596893,198.88201447980828 24.967349079437554,198.56171910044213 24.91563542908989,197.82103401279892 24.846683895390015,197.6408669428056 24.691542944521643,197.42066251923097 24.58811564388452,197.36060672406165 24.381261042610276,197.32056951693085 23.915838189830538,197.24049507791642 23.29527438612422,197.20045784601825 20.79578128788853,197.20045784601825 20.554450919793453,197.16042060589825 20.399309968808666,196.98025292319653 20.364834201987833,196.80008507339517 20.433785735687707,196.31963665696094 20.657878220430575,194.15760407694324 20.640640336903743,193.5169972095464 20.7785434043617,192.27581539157836 20.83025705476757,191.5951639306004 20.7785434043617,191.41499108578137 20.57168880320387,191.23481807384815 20.41654785227729,191.03462564235087 20.364834201987833,190.8744715485809 20.34759631851921,190.6542594540224 20.364834201987833,190.4340471097821 20.41654785227729,190.25387318788853 20.675116103840992,189.95358294664766 20.709591870661825,189.89352484275878 20.79578128788853,189.29294278174348 20.847494938177988,188.7724368266936 20.864732821588404,188.2118903920782 21.002635889162775,187.51120507373707 21.002635889162775,187.05075334532012 21.1233010730939,186.39010330649035 21.209490490320604,186.20992563320033 21.778340643737465,185.22895536810393 22.192049846285954,184.6683987063734 22.45061809773324,184.4081397062837 22.64023481553886,184.28802005012403 22.88156518363394,184.20794023816416 23.622794171329588,183.82756068007438 24.07097914069891,183.5472805290192 24.24335797515232,183.48722044397437 25.381058281869628,183.78752068329777 26.01885996904457,183.90764064896211 26.846278374025133,184.18792028001917 27.690934662357904,184.38811976877332 27.846075613284484,184.38811976877332 27.98397868074244,184.32805994381488 28.08740598137956,184.22796019421367 28.13911963166902,184.14788035744277 28.156357515137643,183.1068394743197 28.121881748258602,182.28601484344108 28.001216564211063,181.64536881865934 27.777124079526402,180.94465980907262 27.466842177673243,180.38409078106633 27.001419324951712,179.8034997248178 26.691137423040345,179.30298880048213 26.432569171476644,178.6623329348513 26.191238803381566,177.96161316188227 26.13952515309211,177.90155134936504 25.932670551876072,177.84148951832321 25.846481134649366,177.7614070480049 25.777529600949492,177.62126264550898 25.725815950601827,177.32095287099946 25.622388649964705,177.16078746807761 24.898397545679472,176.68029046658194 24.846683895390015,176.5001037845068 24.881159662269056,176.40000000000873 24.984586962906178,176.40000000000873 25.415534048806876,176.52012453519274 26.294666104018688,176.64024899610376 27.277225459867623,176.6202282578015 27.915027147042565,176.68029046658194 28.67349401820684,176.82043554815755 28.949300153180957,176.92053911591938 29.638815490645356,177.2408701860404 30.035286809667014,177.48111814189178 30.224903527472634,177.62126264550898 30.81099156429991,178.22188080129854 31.069559815863613,178.54220972475014 31.77631303673843,179.62331594068382 31.983167637954466,179.86356094905932 32.258973772928584,180.0837852790719 32.74163450917695,180.30400935930084 33.051916411030106,180.36407042873907 33.37943619635189,180.36407042873907 33.79314539878396,180.32402971782722 34.22409248468466,180.20390753561514 34.792942638043314,180.00370373342594 34.96532147243852,180.00370373342594 34.99979723931756,180.06376489571994 35.051510889665224,180.2639686359471 35.12046242330689,180.36407042873907 35.34455490804976,180.44415182578086 35.551409509265795,180.38409078106633 35.68931257678196,180.40411113138543 36.58568251540419,180.9646801015915 37.12005690194201,181.44516650243895 37.6371934050112,182.12585353538452 37.94747530692257,182.44617601951177 38.17156779160723,182.60633706342196 38.861083128955215,182.98671901333728 39.429933282430284,183.1068394743197 39.964307668968104,183.12685954399058 40.498682055447716,183.04677925314172 40.808963957300875,182.94667884316004 41.377814110717736,182.70643764876877 41.75704754632898,182.62635718465026 41.99837791436585,182.62635718465026 42.308659816219006,182.76649797527352 43.256743405305315,183.4271603404195 43.82559355860576,183.64738062943798 45.53214401873993,184.12786039309867 45.73899862001417,184.22796019421367 46.100994172214996,184.54827921118704 46.30784877343103,184.64837879563856 46.566417024994735,184.6683987063734 47.20421871216968,184.48821943577786 47.49726273055421,184.50823936295637 47.63516579801217,184.54827921118704 47.652403681422584,184.628358882881 47.600690031191334,185.16889580320276 47.39383542991709,186.33004410064314 46.82498527650023,189.03268997858686 46.61813067528419,189.65329224118614 46.445751840947196,190.6142208645324 46.46298972435761,191.79535578440118 46.39403819065774,191.97552827637992 46.20442147285212,192.21575800569553 46.032042638456915,192.31585363858903 45.73899862001417,192.39593010771205 44.82539079798153,192.41594921985234 44.39444371202262,192.47600654387497 43.39464647276327,192.49602564770612 42.25694616592955,192.41594921985234 41.2571489266702,192.51604474954365 39.94706978549948,192.5360638492857 39.29203021491412,192.47600654387497 38.774893711844925,192.49602564770612 38.61975276086014,192.5560829469905 38.550801227160264,192.63615931707318 38.48184969340218,193.03654067245952 38.17156779160723,193.45694020739757 38.119854141259566,193.5770541930833 38.10261625784915,194.3377743777528 38.206043558428064,194.93834084017726 38.18880567501765,195.85920580939273 38.29223297565477,196.7600477507367 38.206043558428064,197.14040198278963 38.34394662594423,197.62084836918802 38.53356334374985,197.96116384057677 38.861083128955215,198.78192223048245 39.464409049309324,199.7628240501508 40.37801687134197,201.52443120937096 40.619347239495255,201.86473984224722 40.9985806751647,202.68548173944873 41.877712730376516,204.26690147121553 42.308659816219006,205.2477755957225 42.41208711685613,205.60809545897064 42.36037346656667,206.06850320048397 42.394849233387504,206.42882154148538 42.37761134997709,206.6690333976003 42.42932500038296,207.14945621872903 42.44656288373517,208.43057793367188 42.41208711685613,208.9510312173079 42.44656288373517,209.47148310673947 42.44656288373517,210.57243443260086 42.51551441749325,211.35310522884538 42.54999018431408,212.49407998089737 42.53275230090367,212.6942502991442 42.394849233387504,213.1946751926007 42.36037346656667,213.4749125699309 42.394849233387504,213.91528477489192 42.36037346656667,214.45574020770437 42.394849233387504,214.7559925763053 42.37761134997709,214.99619413718756 42.27418404939817,215.41654615414154 41.91218849719735,216.3773473494948 41.653620245691855,216.89777934664744 41.06753220880637,217.81854023458436 40.6538230064325,218.55914908692648 40.34354110452114,219.2997551165172 40.18840015359456,219.45988577876415 40.03325920266798,219.55996737569512 39.79192883451469,219.60000000000582 39.68850153387757,219.55996737569512 39.65402576705674,219.51993474311894 39.3609817486722,218.79934594631777 38.998986196529586,218.0587380094803 38.79213159531355,217.73847424361156 38.51632546028122,217.35816033597803 38.585276994039305,216.97784568402858 38.585276994039305,216.75766317686066 38.51632546028122,216.59753028769046 38.37842239276506,216.4173806295439 38.10261625784915,216.17718082560168 37.9819510737434,216.0170474579936 37.75785858905874,215.31646242305578 37.61995552160079,215.1162948062265 37.3786251534475,214.8360597962601 37.08558113500476,214.13547050300986 36.84425076690968,213.89526787812065 36.46501733135665,213.65506495625596 35.91340506140841,213.49492951000866 35.65483680990292,213.5149464480346 34.53437438647961,214.29560542132822 34.327519785263576,214.47575704667543 34.18961671774741,214.63589168456383 33.96552423312096,215.016210920483 33.77590751537355,215.61671346161165 33.75866963190492,215.91696403629612 33.827621165604796,216.3773473494948 33.862096932542045,216.4974471648602 34.22409248468466,217.1179616950394 34.39647131902166,217.318127249775 34.9480835890281,217.65840821964957 35.56864739267621,217.91862267687975 35.80997776077129,218.0587380094803 35.99959447857691,218.09877094312105 36.43054156447761,218.07875447736296 37.309673619805835,217.83855672714708 37.65443128847983,217.81854023458436 37.895761656574905,217.85857321762887 38.15432990813861,217.97867211748962 38.39566027629189,218.17883678559156 38.740417944907676,218.55914908692648 38.87832101248205,218.63921473972732 38.998986196529586,218.63921473972732 39.10241349705029,218.57916550317896 39.15412714739796,218.47908340116555 39.17136503086658,218.3589848106203 39.10241349705029,218.1588203280553 38.82660736213438,217.73847424361156 37.79233435599599,216.75766317686066 37.56824187136954,216.4173806295439 37.41310092038475,216.0770974863408 37.3786251534475,215.8769306530885 37.36138727009529,215.27642891618598 37.27519785286859,214.8360597962601 37.137294785352424,214.315622276903 36.99939171789447,214.0353861120675 36.775299233268015,213.7951833634288 36.56844463199377,213.6350480326655 35.96511871169787,213.39484478908707 35.672074693313334,213.11460729628743 35.65483680990292,212.99450538989913 35.672074693313334,212.87440340932517 36.05130812886637,212.1337728883227 36.20644907979295,211.6533623921423 36.20644907979295,211.53325958248752 36.06854601233499,211.29305374049 35.98235659516649,211.23300223361002 35.896167177997995,211.21298506048333 34.24133036809508,211.23300223361002 33.36219831282506,211.21298506048333 32.56925567478174,211.29305374049 31.81078880361747,211.19296788536303" stroke="#4dd2ff" stroke-linecap="round" stroke-linejoin="round" stroke-width="0.5"><title>2023-08-18 10.0km</title><desc>9672827939</desc></polyline><polyline fill="none" points="121.28478657430969,183.07760064564354 121.26902590302052,183.4802079384972 121.33206858817721,184.02921641310968 121.31630791688804,184.52332258991373 121.34782925946638,184.99912723933812 121.34782925946638,185.14552841363184 121.26902590302052,185.4200302902027 121.25326523173135,185.54813102084154 121.37935060204472,186.07883306393342 121.3951112733339,186.59123353254108 121.4423932871432,186.9572329626244 121.42663261591224,187.32323163881665 121.47391462977976,187.74412918448797 121.4423932871432,188.32972411128867 121.50543597229989,189.29961146379355 121.50543597229989,190.25119391016779 121.4423932871432,190.80018146513612 121.45815395843238,191.16617222616333 121.48967530106893,191.51386275101686 121.47391462977976,192.37393638968933 121.4423932871432,192.57522961888753 121.3951112733339,192.64842710027006 121.07989784760866,192.92291738680797 120.84348777827108,192.9778153932275 120.26034294057172,192.9778153932275 120.44947099609999,192.9412167241535 120.67012039409019,192.95951605965092 120.85924844956025,193.01441405482183 120.98533381987363,193.12420999418828 121.04837650497211,193.21570655851974 121.14294053270714,193.581692344771 121.45815395843238,193.9842758391169 121.58423932874575,194.752841795751 121.52119664364727,195.26521725364728 121.53695731487824,196.36315968906274 121.58423932874575,196.82063370182004 121.52119664364727,197.7355781946535 121.52119664364727,198.76031043450348 121.45815395843238,199.80333539683488 121.34782925946638,200.29739771618915 121.55271798616741,201.66978584154276 121.60000000003492,202.21873812457488 121.60000000003492,202.87747862609103 121.52119664364727,203.38983066155924 121.55271798616741,203.82898837364337 121.53695731487824,204.1949523048097 121.3951112733339,204.92687790664786 121.221743889153,205.47582013010106 121.09565851878142,206.0064626679232 120.62283838022267,207.4154024086747 120.33914629701758,208.53156752196082 120.11849689896917,209.2451776099333 119.7087194455089,210.28814104681078 119.67719810293056,210.65409167965117 119.3777453484945,211.6421546252095 118.84188252466265,213.34380571318616 118.70003648311831,213.87442476391152 118.60547245538328,214.11228796215437 118.49514775630087,214.2952594365197 118.0380882890313,214.6612018202868 117.81743889098288,214.73439020664955 117.10820868302835,214.7709843885532 116.44626048894133,214.86246981026488 115.94191900768783,214.880766888964 114.42889456410194,215.06373757241818 113.05771616200218,215.17351989203598 112.19087924121413,215.17351989203598 111.90718715800904,215.21011398355768 111.67077708867146,215.28330214388552 110.37840204313397,215.37478730201838 108.26647209055955,215.59435148935881 107.16322510037571,215.66753949150734 106.65888361918041,215.7224304734118 105.98117475380423,215.74072746357706 104.7045603794395,215.90540029053227 104.3105435972684,215.88710331732 103.60131338931387,215.9785881646676 102.86056183872279,215.99688512846478 102.19861364469398,215.66753949150734 101.97796424664557,215.46627241304668 100.85895658523077,213.32550847629318 100.60678584460402,212.79488778721134 100.26005107624223,212.19107611080108 99.92907697922783,211.42258555638546 99.8345129514928,211.07493397603685 99.51929952582577,210.7272817158373 99.28288945642998,210.26984349540726 99.15680408617482,210.0868678776169 99.14104341482744,210.10516544789425 99.14104341482744,210.16005814733217 99.36169281287584,210.599199132761 99.40897482674336,210.7638767226017 99.18832542869495,211.29450347433158 99.1095220723073,211.4042881217756 99.03071871580323,211.45918042003177 97.78562568407506,211.88002081042214 97.04487413360039,212.17277875525178 94.75957679678686,212.9595633429417 93.68785114923958,213.3621029482165 91.65472455311101,213.98420781803725 91.07157971546985,214.05739648308372 90.03137541050091,214.05739648308372 87.55695001827553,213.9476134741417 86.97380518063437,213.89272194428486 85.31893469544593,213.89272194428486 81.66245895659085,213.74634444843105 80.2912805545493,213.72804725293827 79.0619481941103,213.6731556552695 78.71521342580672,213.63656124738918 78.60488872672431,213.5084807605308 78.52608537033666,213.32550847629318 78.52608537033666,213.12423874618253 78.60488872672431,212.57532014220487 78.68369208322838,212.3923468974972 79.12499087926699,212.08129194931826 79.18803356436547,212.00810247060144 79.23531557823298,211.89831819610845 79.36140094860457,211.03833903332998 79.3456402773154,210.85536420663993 79.20379423571285,210.26984349540726 79.21955490700202,209.9404872478044 79.31411893467885,209.73921368496667 79.55052900401643,209.3915588123782 79.80269974464318,208.98901021563506 79.89726377237821,208.73284245219838 79.9603064575349,208.3485901148233 80.03910981392255,207.5983807764569 80.2912805545493,206.18944248603657 80.25975921191275,205.89667468664993 80.08639182779007,205.25624344416428 79.99182780005503,204.26814500060573 79.72389638813911,203.64600612544746 79.61357168923132,203.18854968088272 79.53476833272725,202.62130205451103 79.4559649762814,202.3468267466087 79.32987960596802,202.14554458476778 79.1722728931345,201.98085901008744 78.98314483766444,201.88936695821758 78.69945275445934,201.7978748592286 78.63641006930266,201.7429795772332 78.52608537033666,201.55999518146564 78.41576067131246,201.24892127636122 78.40000000002328,201.02933936848422 78.4472820138908,200.86465275951196 79.03042685159016,199.76673813333036 79.18803356436547,199.38246641181468 79.14075155055616,199.29097302234732 78.79401678219438,199.08968739972624 78.66793141193921,198.96159643023566 78.60488872672431,198.81520663778065 78.5576067128568,198.63221922764205 78.5576067128568,198.46753039748 78.58912805555156,198.35773775921552 78.68369208322838,198.21134746937605 78.80977745348355,198.1198534769792 79.2825975921005,197.991761808531 79.3929222911247,197.93686535090092 80.22823786939261,196.7291389934253 80.96898941992549,195.57630163237627 81.94615103979595,194.2221656571055 82.76570594671648,193.01441405482183 83.41189346951433,191.9164509298862 83.86895293690031,190.92827831726754 84.78307187161408,188.87871760255075 85.80751550535206,186.71933341880504 85.85479751921957,186.64613349510182 85.91784020431805,186.62783350945392 86.13848960236646,186.77423334179912 86.23305363004329,186.79253331237123 86.37489967164584,186.70103344072413 86.57978839840507,186.4265335430391 87.09989055088954,185.4200302902027 87.19445457862457,185.36512994884106 87.54118934692815,185.27362934216217 88.28194089751923,185.31022959043912 90.18898212327622,185.23702908627456 91.92265596502693,185.25532921512786 93.21503101062262,185.18212868832052 93.8454578621313,185.18212868832052 94.08186793146888,185.14552841363184 94.22371397301322,185.03572754423658 94.30251732951729,184.88932627948816 94.3497993433848,184.70632452890277 94.3497993433848,183.66321095188323 94.41284202842508,183.42530699774215 94.44436337106163,183.22400340311287 94.44436337106163,182.83969590738707 94.38132068590494,181.77827088661434 94.39708135725232,181.2292554567539 94.38132068590494,180.91814596010954 94.41284202842508,180.57043470157078 94.38132068590494,180.00311487153522" stroke="#4dd2ff" stroke-linecap="round" stroke-linejoin="round" stroke-width="0.5"><title>2023-07-14 10.0km</title><desc>9449702407</desc></polyline><polyline fill="none" points="184.40119621000485,176.40000000000873 184.5890372392605,176.78591478841554 184.6468344790046,177.03759785342845 184.61793585913256,177.25572286176612 184.61793585913256,177.3563958440791 184.77687826851616,178.279228615007 184.83467550826026,178.44701582977723 185.0225165375159,178.7154750138434 185.05141515738796,178.88326177919225 185.0658644672949,179.4872927031829 185.008067227609,180.41011340032856 184.97916860762052,180.56111992576916 184.89247274800437,180.87991101953958 184.84912481816718,181.1315877581219 184.87802343809744,181.53426973090973 184.84912481816718,182.27251742874796 184.83467550826026,182.35640900082944 184.8057768883882,182.35640900082944 185.26815480651567,182.40674392336223 185.5571410052944,182.4738571292255 185.91837375384057,182.60808345791884 186.3085051222588,182.64164002287725 186.40965029184008,182.69197485722543 186.39520098187495,182.74230967606127 186.2651571924216,182.80942274368135 186.22180926258443,182.8765357835655 186.10621478309622,183.26243522646837 185.86057651409646,183.58122103320784 185.81722858425928,183.71544644937967 185.86057651409646,184.11812203425507 185.86057651409646,185.0073604243371 185.94727237371262,185.41003281541634 185.90392444393365,186.14826294704108 185.91837375384057,186.78582264095894 185.8894751339103,187.1213793722418 185.90392444393365,187.44015762675554 185.96172168373596,187.89315723103937 185.96172168373596,188.1783785578009 185.90392444393365,188.6649314332608 185.90392444393365,188.84948559202894 185.94727237371262,189.10115001705708 185.96172168373596,189.55414500231564 186.07731616322417,189.73869815366925 186.16401202284032,190.007138727844 186.17846133274725,190.15813635644736 186.13511340296827,190.66146077426674 185.91837375384057,191.06411918875528 185.8894751339103,191.19833843912056 185.90392444393365,191.466776608082 185.8894751339103,193.21161392415524 185.96172168373596,193.7484831847687 185.91837375384057,194.06724847119767 185.90392444393365,195.979827091709 185.94727237371262,196.4831335232593 185.96172168373596,197.2884205795708 186.12066409306135,198.02659688451968 186.10621478309622,198.21114043820126 185.96172168373596,198.42923709578463 185.9328230637475,198.58022691844963 185.96172168373596,201.59999398773653 185.94727237371262,202.55624189195805 185.9906203035498,203.24406586168334 185.96172168373596,204.418392758118 186.00506961351493,204.7035851556575 185.96172168373596,205.13976079819258 185.97617099358467,205.24041654985922 186.0484175432939,205.3578481815639 186.07731616322417,205.4752797287074 186.033968233387,205.9953327056428 186.0484175432939,206.69991796226532 186.00506961351493,207.16963977414707 185.81722858425928,208.5620214749797 185.57159031525953,209.5014530095068 185.3404013562249,210.3066757285851 185.10921239713207,211.04479305916175 185.008067227609,211.48095172845933 184.84912481816718,211.88355869484076 184.8057768883882,212.11841229918355 184.8635741281323,212.28616466652602 184.79132757842308,212.57134329465043 184.5890372392605,212.99072272368358 184.51679068960948,213.24234986299416 184.4734427597723,213.62817738874583 184.14110863109818,214.5843547112454 183.9966155316215,215.59085109525768 183.8232238123892,216.06054728060553 183.79432519245893,216.2115207669849 183.76542657264508,216.49669252635795 183.76542657264508,217.0334850726067 183.70762933290098,217.16768293299538 183.64983209309867,217.23478182169492 183.41864313400583,217.28510597012064 183.27415003464557,217.41930362324638 183.08630900538992,217.9896424163453 183.15855555515736,218.20771260395122 183.14410624513403,218.25803645189444 182.99961314571556,218.49288087042805 182.99961314571556,218.4593316885439 183.08630900538992,218.29158567530976 183.10075831529684,218.22448722165427 182.98516383580863,218.14061411573493 182.49388729780912,218.17416336327733 182.13265454926295,218.1573887403356 181.90146559017012,218.2412618376402 181.5691314615542,218.1573887403356 181.43908767204266,218.14061411573493 179.92191012826515,218.29158567530976 179.66182254935848,218.29158567530976 178.6503708534292,218.35868410130206 177.47997674823273,218.49288087042805 176.7141633213032,218.6103029528458 175.42817473656032,218.64385210370529 174.24333132139873,218.77804863805068 172.68280584778404,218.91224506193248 172.22042792959837,218.91224506193248 171.23787485365756,219.06321590670268 170.65990245598368,219.06321590670268 169.8073931694962,219.1638630588277 169.34501525136875,219.18063757817436 168.27576631569536,219.31483367057808 168.08792528649792,219.381931675307 167.8567363274051,219.53290208506223 167.66889529820764,219.5832255238347 167.5388515087543,219.60000000000582 167.43770633917302,219.54967656638473 167.30766254966147,219.44902965244546 167.03312566073146,219.02966684217972 166.84528463159222,218.627077529105 166.7296901519876,218.29158567530976 166.32510947360424,217.58705053426092 166.1950656842091,217.13413347824826 165.99277534504654,216.73153948290565 165.63154259644216,216.0102227540483 165.14026605850086,215.15470342537446 165.02467157895444,215.020503907479 164.75013469008263,214.93662915271125 164.66343883040827,214.93662915271125 163.99877057317644,215.17147835732612 163.4930447251536,215.28890283271903 162.0914616608643,215.7753747581155 161.57128650305094,215.9431233611831 160.689878596575,216.26184523134725 157.80001660838025,217.23478182169492 157.58327695925254,217.268331255691 156.29728837450966,217.268331255691 156.00830217573093,217.21800710211392 155.32918460841756,217.1844576577423 153.36407845647773,217.13413347824826 152.98839639796643,217.20123238078668 152.7572074389318,217.21800710211392 152.4248733103159,217.16768293299538 151.74575574300252,217.1509082064731 151.26892851502635,217.0670345480903 148.62470479577314,216.98316084654653 147.902239298739,216.88251234769996 147.7432968893554,216.66444038698683 147.627702409809,216.59734126343392 145.92268383677583,216.51346732016827 145.82153866713634,216.47991773075773 145.67704556777608,216.36249411350582 145.60479901806684,216.2282955901319 145.59034970815992,216.16119628706656 145.61924832797376,215.82569935715583 145.691494877683,215.5740762064379 145.76374142745044,215.42310212964367 146.0238290062989,215.30567775087547 146.29836589522893,215.07082873965555 146.37061244493816,214.85275435476797 146.45730830461252,214.3998296998907 146.45730830461252,214.1482043477008 146.3272645151592,213.47720150915848 146.3272645151592,213.25912499177502 146.3995110648102,213.04104818259657 146.6018014039728,212.77264555527654 146.68849726364715,212.60489368870913 146.7751931232633,212.37004078543396 146.7173958835192,212.13518754368124 146.5584534741356,211.91710923041683 146.42840968468226,211.79968232549436 146.41396037477534,211.7158059131034 146.5584534741356,211.12866981698608 146.63070002390305,210.4912053746666 146.73184519348433,209.92084033886204 146.89078760280972,209.45112645741028 146.9341355326469,208.94786008205847 146.89078760280972,208.6291239070997 146.6595986437751,207.70646304398542 146.7751931232633,207.27029427193338 146.67404795368202,206.39795322537248 146.57290278410073,206.1295396561036 146.42840968468226,205.97855682908266 146.25501796539174,205.8443497542903 145.8504372870666,205.69336666302115 145.76374142745044,205.5759352731111 145.66259625781095,205.3578481815639 145.61924832797376,205.19008868178935 145.61924832797376,204.93844910821645 145.64814694790402,204.8210171742394 146.24056865548482,203.68024541120394 146.51510554429842,203.24406586168334 146.67404795368202,203.05952800848172 147.12197656184435,202.28782199417765 147.77219550922746,201.41545427247183 148.85589375480777,199.82169348862953 149.49166339222575,198.94931256257405 149.9973892401904,198.17758708039764 150.58981094771298,197.2045366969105 151.8902488424792,194.3524589882436 152.07808987167664,194.00014004172408 152.19368435122306,193.66459747943736 152.3815253804787,193.3290542261384 152.74275812896667,192.40630671585677 153.00284570793156,191.98687430155405 153.0750922576408,191.75199167784012 153.21958535705926,191.41644448506122 153.39297707629157,191.13122882781317 153.5663687956403,191.01378694137384 153.81200706464006,190.98023210115207" stroke="#4dd2ff" stroke-linecap="round" stroke-linejoin="round" stroke-width="0.5"><title>2023-07-07 10.0km</title><desc>9408701204</desc></polyline><polyline fill="none" points="50.19493679801235,231.13722127240908 49.73796124069486,231.16937914928712 49.364072148280684,231.13722127240908 48.69938042847207,231.16937914928712 48.339339080266654,231.13722127240908 47.88236352294916,231.12114233151078 47.52232217468554,231.16937914928712 46.85763045493513,231.1533002116921 44.11577711068094,231.2015370195877 42.57867750863079,231.16937914928712 41.415466999053024,231.21761595220596 41.180055348260794,231.28193166623532 40.95849144161912,231.4266419258347 40.87540497665759,231.49095755378949 40.76462302333675,231.65174650761764 40.55690686090384,232.0537181677355 40.4184294193401,232.2627430220018 40.36303844267968,232.32705830544 40.2661042335676,232.34313712218136 39.975301606114954,232.31097948706883 39.79528093204135,232.3592159372638 39.753737699531484,232.3913735624228 38.88132981728995,234.2243472487171 38.05046516750008,236.15376998663123 37.55194637767272,237.1184724146442 37.09497082029702,237.89023006559 36.73492947209161,238.40473304699117 36.139476473093964,239.24079677593545 35.917912566510495,239.56235855660634 34.96241821924923,240.83252111631737 34.29772649949882,241.87758382919128 34.034619360405486,242.19914017990232 33.67457801220007,242.82617315925017 32.85756110656075,244.43393852458394 32.62214945576852,244.83587727947452 32.26210810756311,245.8326809274149 31.846675782697275,247.2796426431305 31.63895962020615,247.8423463563813 31.292766016209498,248.91951638052706 30.89118143543601,250.04490996226377 30.240337459894363,251.54006317688618 29.741818670008797,252.47251707452233 29.29869085684186,253.11558548451285 29.18790890352102,253.34065880246635 28.869410787767265,253.7908044653741 28.3708919978817,254.59463277937903 27.98315516137518,255.1090807293076 27.276920209056698,255.96113141908427 26.25218714104267,257.26331311592367 25.158215352217667,258.533331721017 21.973234194796532,262.32724985311506 21.003892103442922,263.54900048438867 20.574612034426536,264.1116455878655 19.356010548071936,265.5262871810264 18.98212145571597,265.87994557773345 18.843644014094025,266.02462378198106 18.63592785166111,266.3139797885233 18.46975492167985,266.57118467774126 18.23434327094583,266.8605396718922 18.095865829323884,267.11774366130703 17.805063201929443,267.3910224359861 17.805063201929443,267.5517744331446 17.888149666890968,267.58392481271585 18.08201808517333,267.6000000000058 18.206647782644723,267.6000000000058 18.34512522420846,267.5356992408342 18.899034990696236,266.8926901937666 19.20368536229944,266.603335259133 19.660660919675138,265.97639772879484 21.543954125780147,263.7419076052902 23.981157098372933,260.78397223938373 25.04743339889683,259.5461239672586 25.781363839516416,258.64586451710784 28.177023579599336,255.80036749377905 28.869410787767265,254.86793346378545 29.174061159370467,254.40171436133096 29.35408183344407,254.22487226876547 29.727970925858244,253.63003830611706 30.10186001821421,253.1316621608712 30.309576180647127,252.63328442526108 30.79424722638214,251.74906194832874 31.389700225321576,250.4146803690819 31.791284806036856,249.2571353065432 32.026696456829086,248.45327952082152 32.192869386752136,248.01919567608275 32.40058554918505,247.32787446941074 32.70523592073005,246.50793139651068 33.0237340364838,245.55936443127575 33.25914568727603,244.98057497796253 33.86844643042423,243.6943685124279 34.04846710449783,243.35673755977768 34.21464003447909,243.0994944391714 34.31157424359117,243.05126130688586 34.63007235934492,242.95479499761132 34.8516362659866,242.681473464414 34.893179498496465,242.55285140087653 34.879331754287705,242.21521798007598 34.934722730948124,242.03836208733264 35.15628663753159,241.74896110354166 35.26706859085243,241.55602681638265 35.53017572994577,241.2987807292957 36.08408549649175,240.52703992536408 36.56875654211035,239.73921725372202 37.27499149442883,238.74237470717344 37.66272833099356,238.1153253285447 38.29972456244286,236.9255324058904 39.08904597972287,235.1569045491342 39.76758544368204,233.70983049173083 40.2937997218105,232.52000399690587 40.54305911681149,232.03763932122092 40.723079790885095,231.58743094594683 40.83386174420593,231.41056301475328 41.138512115809135,231.10506338893902 41.33238053403329,230.8478000824689 41.470857975655235,230.79956316527387 42.384809090348426,230.79956316527387 43.70034478587331,230.71916827019595 44.36503650562372,230.75132623322133 45.54209475941025,230.75132623322133 46.165243246709,230.71916827019595 46.82993496657582,230.71916827019595 47.189976314723026,230.68701030060765 47.32845375640318,230.57445735479996 47.369996988913044,230.4940623438015 47.425387965573464,230.317193173978 47.46693119802512,230.01169140856655 47.41154022142291,229.65795177550172 47.369996988913044,229.04694506677333 47.39769247721415,228.93439093852066 47.480778942175675,228.80575754978054 47.536169918836094,228.59672806695744 47.536169918836094,228.16258901607944 47.50847443047678,227.8731623114145 47.591560895496514,226.87624399918423 47.591560895496514,226.57073550007772 47.536169918836094,225.67028591927374 47.50847443047678,224.40000000000873" stroke="#4dd2ff" stroke-linecap="round" stroke-linejoin="round" stroke-width="0.5"><title>2023-05-25 10.0km</title><desc>9138079938</desc></polyline></svg>