<?xml version="1.0" encoding="utf-8" ?>
<svg baseProfile="full" height="300mm" version="1.1" viewBox="0,0,200,300" width="200mm" xmlns="http://www.w3.org/2000/svg" xmlns:ev="http://www.w3.org/2001/xml-events" xmlns:xlink="http://www.w3.org/1999/xlink"><defs /><rect fill="#222222" height="300" width="200" x="0" y="0" /><text fill="#FFFFFF" style="font-size:12px; font-family:Arial; font-weight:bold;" x="10" y="20">Over 1km Runs</text><text fill="#FFFFFF" style="font-size:4px; font-family:Arial" x="10" y="280">ATHLETE</text><text fill="#FFFFFF" style="font-size:9px; font-family:Arial" x="10" y="290">zhangzili</text><text fill="#FFFFFF" style="font-size:4px; font-family:Arial" x="120" y="280">STATISTICS</text><text fill="#FFFFFF" style="font-size:3px; font-family:Arial" x="120" y="285">Number: 17</text><text fill="#FFFFFF" style="font-size:3px; font-family:Arial" x="120" y="290">Weekly: 2.1</text><text fill="#FFFFFF" style="font-size:3px; font-family:Arial" x="141" y="285">Total: 100.2 km</text><text fill="#FFFFFF" style="font-size:3px; font-family:Arial" x="141" y="290">Avg: 5.9 km</text><text fill="#FFFFFF" style="font-size:3px; font-family:Arial" x="167" y="285">Min: 1.3 km</text><text fill="#FFFFFF" style="font-size:3px; font-family:Arial" x="167" y="290">Max: 20.7 km</text><polyline fill="none" points="32.60207572206855,33.049350821995176 26.069229565560818,37.04609966906719 18.719777638092637,58.095498775248416 29.539804086089134,69.28621944866609 42.40134495589882,68.22043949144427 43.0137992836535,40.24349242739845 37.910013223066926,34.38160141266417 24.640169467777014,39.71059402404353 24.436018026433885,62.35863857239019 31.173015624284744,70.3519987820182 43.4221021682024,66.88821366766933 46.28022236190736,59.42773103504442 40.76813341677189,34.914501375867985 29.539804086089134,33.315801018616185 25.04847235325724,37.57899885228835 20.352989178150892,59.16128466022201 28.314895431511104,72.75 39.33907332085073,72.75 44.64701082278043,60.75996231823228 43.217950724996626,40.24349242739845 39.33907332085073,33.315801018616185 32.19377283658832,32.25 24.640169467777014,37.312549280235544" stroke="#4dd2ff" stroke-linecap="round" stroke-linejoin="round" stroke-width="0.5"><title>2023-10-19 1.3km</title><desc>1697720077000</desc></polyline><polyline fill="none" points="85.62824826888391,71.8646441943165 85.0871756466513,72.70170824540037 84.9351889549871,72.75 84.38195739744697,72.67756235165143 84.53394408908207,72.34756737105636 84.23605017346563,72.14634991397543 83.67673914821353,72.09000888949231 82.886408351711,72.09805761092139 82.5824349684408,72.23488568894027 82.10215702283313,72.1383011998405 81.46989238561946,72.4843948067537 80.42422394713503,71.99342413715203 80.32087299681734,71.78415657162259 80.39382660880801,71.19659323339874 80.2600783201633,71.4058631122789 80.13848896682612,71.20464209014244 79.75548250391148,71.25293520491687 78.67333725944627,71.05976248247316 77.72494030362577,71.35757013643888 77.06835779576795,71.30927711671757 76.54552357649663,71.54269297220162 76.35706007888075,71.42196076113032 75.73695437697461,71.57488818216734 75.47553726733895,71.41391193731033 75.62144449132029,71.14830006741249 75.53025247633923,70.95512696467631 74.84935209780815,70.81829559214748 74.3325973462197,70.9309802774842 73.4693129377265,70.47219113626488 73.74288898266968,70.2951135663825 73.56658442039043,69.77192639057102 73.32340571374516,69.56265007822367 71.8582540063071,68.83822571072233 71.06792320980458,68.85432413725721 70.52685058757197,68.33112277825785 70.59980419956264,67.58253341562522 70.11952625398408,67.67107679328183 69.99185743299313,67.79181752507793 68.09506352135213,67.9930514685293 67.59654717275407,67.93670604119689 67.49927569011925,67.79181752507793 67.32297112781089,67.92865668954255 67.23177911282983,67.76766940066591 67.05547455052147,67.72742250226656 66.52656086362549,68.10574214406734 66.56303766963538,68.41966490877167 66.39281257500988,68.67724117700345 65.88821675875806,68.75773350480449 66.0158855796908,69.11189829896466 66.22258748035529,69.24873406461847 65.99764717672952,69.32117638620184 66.16179280370125,69.36142207770172 66.12531599769136,69.45801161304917 65.6450380521128,69.45801161304917 65.14652170354384,69.73973008849862 64.99453501187963,69.69143559875374 64.98845554425498,69.8524170605524 64.611528548965,69.69948468340954 64.36834984234883,70.35950547821994 63.29228406556649,69.99729995928283 62.872800796612864,70.2951135663825 61.36509281556937,69.28093066415386 60.4957289393642,68.74163504899116 60.06408673513215,68.27477770931 59.92425897880457,68.26672840887841 59.42574263023562,67.48594047174993 58.945464684657054,67.2525067992392 58.757001187012065,67.34105072676175 58.45910727142473,67.08346798255661 58.42263046541484,66.80978494892406 58.57461715704994,66.43950566008789 58.45910727142473,66.2221666150981 58.507743012713036,66.01287632426829 58.78739852536819,65.90018121092362 59.08529244095553,65.40109997908439 59.34670955056208,65.2320552734127 59.49261677454342,64.76516710240321 59.87562323748716,64.32242453036451 60.05192779979552,63.654278756363055 59.99113312311238,63.46107841254707 60.179596620757366,63.19542679296137 60.31942437705584,62.60776849197646 60.21607342673815,62.213309274971834 60.46533160106628,61.55318730028375 60.47749053637381,60.0477565118199 60.87265593462507,59.701581903435 60.98208635262563,59.41175956657753 61.407649089203915,58.95287096688844 61.66298673118581,58.32491172394657 61.960880646744044,57.94652244298413 62.100708403100725,57.45541744302318 61.94264224378276,57.0206649666834 61.97911904976354,56.8274405019838 61.62043045749306,56.54565356468811 61.3590133478865,56.11089364409054 61.10975517358747,55.434593362999294 60.90913274063496,54.31545851217015 61.53531791019486,52.962803629747214 61.99735745275393,52.375032143390854 61.881847567128716,50.21713037621157 62.16758254740853,49.91920421615214 62.520191671996145,48.88047561701387 63.16461524454644,48.39733911548319 63.46858862784575,47.38273815896173 63.43819128948962,46.24732839658827 63.243648324219976,45.41790025128648 63.5111449015094,44.9830492524452 63.54154223980731,44.58845915410711 63.24972779187374,44.11333657446448 63.32268140386441,43.59794456384043 62.653939960640855,42.8812192359801 62.179741482716054,42.599358311381366 61.94872171143652,42.14837772073952 61.778496616811026,42.09200487765702 61.74201981080114,41.79403314170122 61.87576809947495,41.56853990598756 62.0703110647446,41.64101997901162 62.289171900687506,41.52021980234349 62.55666847800603,40.682664354269946 62.1554236120719,39.70013055080199 62.18582095039892,39.26523273600105 62.903198134939885,38.55650274036816 63.93062817043392,37.89608673154362 63.94886657339521,37.29204050801127 64.25891942437738,36.800744512918754 64.87902512625442,36.26111908382518 65.72407113178633,35.8503557532531 66.30162055999972,35.24628625985861 66.38065363964415,34.432795151013124 66.53264033130836,34.215325119796034 67.07979242119472,33.86898212027518 66.93996466486715,33.73205519509065 67.16490496849292,33.925363692742394 67.54791143143666,33.86898212027518 67.71205705837929,33.71594612185072 68.28960648662178,33.78843691293514 68.88539431788377,33.61929157981285 69.05561941250926,33.78843691293514 69.90674488569493,33.474309436875046 70.33838708992698,33.442091129134496 70.78826769717853,33.62734613169596 71.31110191644984,33.442091129134496 72.22302206626046,33.941472702463216 72.87960457414738,34.02201767768929 73.15318061911967,33.78843691293514 73.22613423111034,33.917309186061175 74.86151103314478,33.76427332688763 75.48769620270468,33.86898212027518 76.63063612382393,33.554855120706634 77.47568212932674,33.64345523179145 77.87084752757801,33.87703663431239 78.25385399052175,33.925363692742394 78.75844980677357,33.71594612185072 80.05337641952792,32.74939278439342 81.00177337537752,32.53191585882087 81.34222356462851,32.701064655699156 81.94409086354426,32.378876006907376 82.20550797315082,32.41109495974524 82.58851443606545,32.25 82.77697793371044,32.50775170100678 82.81345473969122,33.62734613169596 83.11134865533677,33.70789158338812 83.19646120263496,33.474309436875046 83.45179884458776,33.35349068203868 84.83183800466941,33.00714206129487 85.4580231742002,33.474309436875046 86.45505587139633,33.73205519509065 86.62528096602182,34.2475429583792 87.13595624995651,34.78718884918635 87.68310833984287,34.72275380726569 88.12690947941155,34.91605869849445 88.70445890765404,34.81135196975083 89.53126651019556,35.10936288607263 90.89914673494059,35.06103690514283 91.56788817813504,35.254340564984886 92.0481661237136,34.98049350586007 92.34606003933004,34.54555703880396 93.0148014825536,34.35225079884185 93.3856490101607,35.254340564984886 93.86592695571017,35.40737212997192 95.5195421607641,35.117417211964494 95.95726383270812,34.8516238129414 96.05453531534295,34.55361145018469 96.26731668363209,34.5375026261936 96.28555508665158,35.29461207220811 96.51049539027736,36.0356023545246 96.30379348961287,36.51885131610834 96.41930337526719,37.09069024002747 96.30379348961287,37.56587564734218 96.10925052434322,37.67863088254671 96.20652200697805,38.306834239112504 96.40714443995967,38.532341323807486 96.2308398776513,39.17664200379659 96.57736953458516,40.73098521990323 96.41322390758432,42.0597917976047 96.44362124596955,43.21139727386981 96.04845584766008,43.7912171538992 96.17612466865103,44.10528361276738 96.04845584766008,44.77367527959359 96.29771402195911,44.66093510619612 96.49225698725786,46.207065193466406 96.1639657333435,45.74000980709752 96.02413797701593,46.762694700879365 96.12748892733362,47.39079062378369 96.30987295726663,47.62431157300671 96.05453531534295,47.9141982197325 96.25515774826636,48.4295483522983 96.27339615131496,48.81605767070505 95.80527714104392,49.92725629649067 95.50130375777371,50.120505858707475 95.59857524043764,50.22518241138823 95.43442961346591,51.02232785409069 94.9115953942237,51.449077569188375 95.08182048884919,51.577906998205435 94.98454900621437,51.76309875506922 95.13653569784947,52.189842519666854 94.98454900621437,53.03526815723308 95.59249577275477,53.67939294637472 95.5195421607641,54.7019250102785 95.78095927039976,55.064234799148835 95.48306535478332,55.15279903841292 95.22772771283053,55.603669240321324 95.00886687682942,56.288018485629436 95.15477410083986,56.086740210841526 95.25204558347468,56.17530274570527 94.95415166785824,57.70499596105947 94.37052277199109,58.42152132131014 94.03615205036476,59.5566709326049 94.08478779171128,59.74988547256362 93.84768855274888,60.039705965162284 93.67746345809428,60.69984674177249 93.90848322940292,61.60953949630493 94.22461554800975,61.641740724346164 94.36444330430822,62.052304671415186 94.6744961552613,62.47896580430461 94.90551592654083,63.283977480390604 95.15477410083986,63.46107841254707 95.13653569784947,63.91992808215582 95.3857938721485,65.15155760554262 95.15477410083986,65.57819385590119 95.0453436828393,66.57634830649476 94.34012543363497,66.1497200692138 93.33093380116043,65.77943618139761 93.37956954247784,65.706989032009" stroke="#ff0500" stroke-linecap="round" stroke-linejoin="round" stroke-width="0.5"><title>2023-10-14 20.3km</title><desc>1697251365000</desc></polyline><polyline fill="none" points="105.44085918506607,32.25 106.45070261554793,43.67333617131226 109.98515462409705,48.11044487863546 111.57205144362524,48.676882075786125 116.11634688312188,46.883162566286046 121.5262224059552,51.03703167347703 122.82459253119305,72.75 139.55914081446826,72.65559738251613 136.2410838273354,38.57534354540985 123.83443596214056,40.27467892866116 115.03437177836895,39.14178917411482 106.73922931030393,39.897049232793506 106.09004424791783,32.910859710129444" stroke="#4dd2ff" stroke-linecap="round" stroke-linejoin="round" stroke-width="0.5"><title>2023-10-10 1.7km</title><desc>1696937836000</desc></polyline><polyline fill="none" points="187.23407643308747,59.695115897971846 186.57146871488658,59.40435216093101 186.05554514797404,59.034286507685465 185.78746721617063,59.00785313036613 185.7014799550234,58.91533618757603 185.58008617456653,58.9615946827289 185.5193892843672,58.86246927778484 185.54973772948142,58.92855290533407 185.36258898462984,59.001244783623406 185.22602098161587,58.92855290533407 184.6139940052235,59.1268032060907 183.6984825777472,58.91533618757603 183.51133383289562,58.9615946827289 183.35959160732455,59.15984483804641 182.73239040837507,59.2061030820405 182.48960284751956,59.08715321577256 182.48960284751956,59.18627812613704 182.3530348444765,59.19949476438342 182.02931809664005,58.06284969862827 181.6752529036894,57.79850952490233 181.4375234170002,57.34251907813814 180.88619333083625,56.97243648044241 180.5422442862473,56.89313267092439 180.28428250277648,56.84026338699914 180.19829524162924,56.939393243457744 179.57109404267976,56.95261054114235 179.08046084674424,56.675046474636474 178.69098913448397,56.97243648044241 178.48360809290898,56.95921918855311 178.43808542523766,57.058348783131805 177.98791682277806,57.150869541183056 177.92216185835423,57.36895343301876 177.47705133009003,57.302867516715196 177.13310228547198,57.46147355289213 176.5059010865516,57.17069539317163 176.24288122891448,57.33591048698145 175.91916448107804,57.131043680463335 175.65108654924552,56.78739404100634 175.352660172357,56.70808990560545 175.02388535029604,56.47678537961838 174.77603971521603,56.529655090300366 174.7102847508504,56.423915606843366 174.39162607718026,56.430524331826746 173.68349569127895,56.15295704708842 173.49128887223196,55.928258468175045 173.354720869218,56.027390332390496 173.354720869218,56.19921838002847 173.1119333083334,56.33800209369656 172.2520606968901,56.470176661408914 172.236886474333,56.39087196734545 172.17618958410458,56.46356794222447 172.09526039712364,56.3578283036004 171.8018920944014,56.503220242713724 171.5388722367643,56.25869716684974 171.19492319217534,56.54287250828202 170.82062570250127,56.69487253612169 169.5156425627356,55.967911240048124 169.35378418883192,55.83573519800848 169.13628699886613,55.17484916784815 168.8682090670627,54.97658146725371 168.48885350319324,53.925748078479955 168.24100786811323,53.86626620988318 168.1600786811614,53.707647509439994 167.85153615585295,53.54902825018871 167.7453165979823,53.2714432018729 167.54805170473992,53.119431616891234 167.4974709629023,52.92115486516923 167.58345822404954,52.6369566650028 167.4873548145115,52.253616716025135 167.56322592729703,51.95619554158111 167.45194829523098,51.90992984895274 167.5227613338211,51.81739832110179 167.43677407267387,51.711647770687705 167.4822967403452,51.76452307694126 167.44689022103557,51.665381826776866 167.59357437241124,51.407613554601994 167.54805170473992,50.872243965950474 167.0574185087753,50.40957376105871 167.0169539153285,49.88080199032993 166.80451479949988,49.464389849668805 166.53643686772557,49.31236540995815 166.28353315847926,48.84306933595508 165.56528662415803,48.43986739333195 165.0493630573037,47.79870276872316 164.1287935556029,47.5343023260466 164.03269014612306,47.3426110340115 163.78484451104305,47.197189509359305 163.55217309852014,46.62871904174972 163.34479205694515,46.62871904174972 163.18799175720778,46.496515578550316 163.04130760583212,46.582447873806814 162.51526789058698,46.2585483663388 162.46468714872026,46.11973357824536 162.115680029965,45.86193355040086 161.98417010114645,45.022420663150115 161.6402210565575,44.69850993016007 161.50365305357263,44.32171287942765 161.6503372049192,44.242386782625545 161.51376920193434,44.28204984849435 161.34179467963986,44.189502640409046 161.24063319593552,43.521835001007275 160.7297677032475,42.61617098843635 160.47686399400118,41.769986684561445 159.91035968528013,41.41960883881984 159.59170101160998,41.38655418427879 159.2123454477114,41.00972940659267 158.34235668784822,41.11550510129018 157.97817534656497,41.320444802342536 157.5887036343047,41.80304105750474 156.9362120644364,41.82948453838617 156.41523042335757,41.941869158807094 156.08139752713032,42.120361802717525 155.7728550018801,42.00136678542185 155.88413263391703,42.18647000972851 155.75262270509847,42.29885373876823 155.6008804795856,42.2724105336456 155.565473960276,41.862538867644616 155.48454477332416,41.822873669618275 154.80676283250796,41.83609540619727 154.08345822404954,41.551827214254445 153.90136755339336,41.61793625633072 153.85584488572204,41.97492340553799 153.5371862120519,42.2063024528652 153.0971337579249,42.933486001038546 152.641907081299,43.257409435649606 152.55591982015176,43.73998492299506 152.27266766579123,44.05729201306167 150.91710378418793,44.91665414947056 150.52763207192766,44.99597905802875 150.1786249531724,45.300056579115335 149.6981079055695,45.45209456934754 149.35921693517594,45.99413887732226 149.33392656422802,46.33787091017439 149.41991382540436,46.37092192885393 149.34910078678513,46.50312576092256 149.0253840389487,46.727871384380705 148.47405395278474,47.42193166764628 148.06940801796736,47.527692295087036 147.96824653426302,47.65328271743056 147.97330460845842,47.838362701197184 148.41335706255632,48.519186093599274 148.3577182465233,48.724092089145415 148.1199887598341,48.94882662471355 147.57371674783644,49.041364048574906 147.52313600596972,49.41812159627807 147.2651742225571,49.57675540991477 147.25,49.68912068973441 147.61923941547866,49.9138504079674 147.7204008992121,50.13196935579617 148.1250468340004,50.02621484640258 148.3577182465233,50.112140404216916 148.33242787560448,50.627690307177545 148.22620831770473,50.90529165578482 148.33242787560448,51.38778516484672 149.01526789058698,51.67860067273432 149.2479393031099,51.665381826776866 149.85490820530686,52.18091394370276 150.01170850504423,52.19413263831302 149.9510116148449,52.34614734736533 150.1533345822536,52.47833363368409 150.28990258520935,52.42545916573363 150.2039153240912,52.716267971100024 150.33542525288067,52.66339378255725 150.44164481078042,53.00046567064783 151.03849756461568,53.6415562193215 151.0536717871728,53.80017515260988 151.21047208691016,53.76052047167468 151.5038403896324,54.104193212817336 151.37233046084293,54.1901109882383 151.42291120270966,54.5205624427108 151.60500187336584,54.36855507488508 151.94389284373028,54.593261437254114 152.23220307231531,54.355337018627324 152.59132633943227,54.36194604722186 152.76330086172675,54.4809083962391 152.93021730985492,54.40160019848554 153.16288872237783,54.56682545280273 153.49672161857598,54.45447234584208 153.63834769575624,54.70561419789374 153.89630947919795,54.79153082571793 153.90136755339336,54.90388309163973 154.27060696890112,54.62630639593772 154.4274072686094,55.10215111233265 154.86745972273638,55.14841352487565 155.01414387408295,55.247547105973354 155.16588609965402,55.247547105973354 155.19117647057283,55.16163134830276 155.19117647057283,55.59120849738247 155.09001498686848,55.703558767974755 155.1456538029015,55.782864672564756 155.51995129260467,55.9414760626787 155.71215811165166,55.928258468175045 155.8183776695514,56.29834964773909 155.98023604342598,56.245479665438324 156.33935931060114,56.456959222094156 156.4556950168335,56.661829095461144 156.5062757587002,57.302867516715196 157.00702510302654,57.50773354152261 156.9412701386318,57.95711381532601 157.3610902960063,58.12232602385484 157.578587485943,58.47918232567099 157.91242038217024,58.55848334205439 158.31706631695852,58.214844595881004 158.87851255151327,58.386664296751405 159.32868115397287,58.65100101798453 159.54112026974326,58.55848334205439 159.83954664669,58.617959012692154 160.2897152491496,58.809602305937005 160.7398838516092,59.26557789734943 161.16982015734538,59.338269231611775 161.38731734731118,59.47043499330539 161.53905957285315,59.708332386857364 162.07015736229368,59.86692995105841 162.42928062943975,60.329502989752655 162.96037841885118,60.137866164466686 163.6533345822245,60.46166584239836 163.9112963656662,60.329502989752655 164.19454852005583,60.322894836928754 164.48791682277806,59.87353817077383 164.69023979015765,59.80084770052417 164.96843387035187,60.10482525010593 165.29720869238372,59.98587775766646 165.77266766576213,60.659909394136776 166.1722555264132,60.336111141587025 166.48079805169255,60.56739584526076 166.42010116146412,60.71938228948056 166.48079805169255,60.75903084275342 166.8298051704769,60.67973370130858 167.42665792431217,61.06300192483832 168.03868490070454,60.963881145235064 168.4180404646031,61.24141877834336 169.15651929558953,61.41322693219263 169.66232671411126,61.783273037446634 169.65221056574956,61.869176162763324 169.79889471712522,61.855960307988425 169.93546272011008,61.98151077171133 170.11755339076626,61.80970478577001 170.52219932555454,61.82292065410729 170.61830273509258,61.69076179619151 170.75487073807744,61.743625385905034 170.68405769951642,61.869176162763324 171.03306481827167,61.77666509795745 171.20503934056615,61.82292065410729 171.25562008240377,61.68415384312175 171.14940052450402,61.47930681685466 171.28596852754708,61.36036295467056 171.3112588984368,61.47930681685466 171.67038216558285,61.44626688664721 171.7614275009255,61.571818492484454 171.95869239413878,61.571818492484454 171.83224053951562,61.69736974830448 171.90811165230116,61.869176162763324 172.09526039712364,61.855960307988425 172.2065380292188,62.021158213836316 172.26723491944722,61.94847120993654 172.6465904833167,62.08062931161476 172.63141626073048,62.15331610223075 172.85397152489168,62.0145503092499 172.8944361183676,62.08062931161476 173.42047583364183,61.83613651858832 173.69866991380695,61.80309685015163 173.7846571749542,61.66432997808079 174.37139378042775,61.55199457798153 174.6748782315408,61.737017440573254 175.04917572124396,61.783273037446634 175.68143499435973,62.33172863639993 176.35921693517594,62.54317961355264 176.76892094415962,62.90660866102917 177.09769576619146,62.87356977790478 177.31519295612816,63.21717297780924 177.6540839265508,63.42861979790541 178.14471712248633,63.46826596615938 178.25599475458148,63.34932735670009 178.63029224425554,63.57398891088451 178.92366054700688,63.5211274695539 179.4497002622811,63.61363495117985 179.70766204572283,63.48148134782605 181.2503746721486,63.50130441306828 181.6803109778848,63.46826596615938 181.79664668414625,63.3757581859536 182.23164106404874,63.48808903720783 182.6059385537519,63.41540440074823 183.2736043461773,63.554165877660125 183.60743724240456,63.79204170062076 183.9260959160456,63.79864934444777 184.20428999623982,63.65988862074664 184.8517234919418,63.93080201716293 185.2664855750918,63.99027059340733 185.79252529033693,63.745788166779676 186.3944361183967,63.87133336241459 186.8395466466609,63.66649628396044 187.19361183964065,63.745788166779676 187.25936680403538,63.47487365748748 187.70447733232868,63.46165827388904 187.75,63.15109564295926" stroke="#4dd2ff" stroke-linecap="round" stroke-linejoin="round" stroke-width="0.5"><title>2023-10-05 18.8km</title><desc>1696467788000</desc></polyline><polyline fill="none" points="12.25,100.68877846508985 18.2535294117406,107.5484732487239 24.352352940943092,105.30348834925098 30.927647058386356,108.172079108248 34.644117646850646,102.68433177337283 44.45941176451743,106.55070291733136 51.892352940980345,105.80237439734628 51.701764706056565,94.70209030795377 13.393529411870986,96.32348919875221 12.631176470313221,100.56405622710008 18.634705882053822,107.5484732487239 25.305294117424637,105.80237439734628 30.832352940924466,108.04735797317699 34.93000000016764,102.43488786718808 44.078235294204205,106.42598154349253 52.75,104.80460200732341 51.701764706056565,94.327920891752 24.638235294260085,96.44821206183406" stroke="#4dd2ff" stroke-linecap="round" stroke-linejoin="round" stroke-width="0.5"><title>2023-10-03 1.9km</title><desc>1696334828000</desc></polyline><polyline fill="none" points="57.72759433928877,91.37367501790868 57.536556603387,103.62537283386337 63.554245283361524,110.37623275181977 68.52122641447932,108.12595208146377 76.64033018797636,111.12632498203311 80.55660377349705,105.62563322519418 90.77712264098227,109.37610874633538 97.65448113204911,108.75103064446012 97.27240566071123,98.12463243753882 94.78891509445384,96.9994765985175 59.542452830355614,98.87473550107097 57.34551886841655,100.37493963848101 57.25,103.2503234851174 62.88561320723966,110.00118638807908 68.42570754699409,107.62588890001643 76.35377358458936,110.87629431224195 80.46108490601182,105.62563322519418 90.9681603773497,109.37610874633538 97.75,108.500999274489 96.60377358458936,96.9994765985175 72.34198113204911,99.12476970814168 58.49174528289586,98.49968405195978" stroke="#4dd2ff" stroke-linecap="round" stroke-linejoin="round" stroke-width="0.5"><title>2023-10-02 2.0km</title><desc>1696244277000</desc></polyline><polyline fill="none" points="102.25,89.89130650949664 103.74308755761012,92.4562039669836 103.55645161261782,105.28057218110189 107.4758064514026,110.53239903156646 110.18202765006572,112.36442382383393 114.00806451588869,109.92172320047393 121.56682027643546,112.60869349044515 125.95276497676969,107.35687979747308 131.92511520721018,108.21182848047465 135.56451612897217,111.14307441218989 142.75,109.67745274247136 141.91013824846596,99.17375492467545 104.02304147463292,101.49435078306124 103.92972350213677,105.40270806715125 109.52880184305832,112.2422889637528 115.22119815694168,109.67745274247136 122.03341013845056,112.2422889637528 126.13940092176199,107.60115093976492 131.7384792631492,108.33396393468138 135.47119815601036,111.02093937218888 142.4700460829772,110.16599358717212 142.0034562209621,99.6623019609251 103.83640552964061,101.00580482621444 103.08986175060272,91.11268724128604" stroke="#4dd2ff" stroke-linecap="round" stroke-linejoin="round" stroke-width="0.5"><title>2023-10-01 2.1km</title><desc>1696158328000</desc></polyline><polyline fill="none" points="147.25,92.05710699170595 152.58975659264252,90.01420692139072 152.67190669337288,103.1316762350616 158.25811359006912,109.79784074850613 161.6262677484192,107.75499035447137 169.3483772817999,110.01287729945034 172.96298174420372,105.1745395748876 178.2205882347189,106.57228488015244 180.4386409735307,112.48579307866748 181.09584178496152,108.83017548534553 187.75,107.53995313774794 186.43559837713838,98.18577288114466 153.24695740360767,99.69105136417784 152.91835699789226,103.66927240561927 158.01166328554973,109.58280413423199 162.201318458654,107.43243450595764 169.1019269777462,109.47528580349172 172.55223123682663,105.28205853962572 181.50659229187295,108.72265704360325 187.09279918810353,107.97002750745742 186.8463488840498,98.508332817466 153.32910750526935,99.4760117715341 152.42545638931915,91.62702324194834" stroke="#4dd2ff" stroke-linecap="round" stroke-linejoin="round" stroke-width="0.5"><title>2023-09-29 2.2km</title><desc>1695985278000</desc></polyline><polyline fill="none" points="18.939309171400964,129.75 19.347149497130886,130.75086738113896 21.794191451044753,129.88344911203603 22.04909165459685,137.5567068948876 25.056914056651294,141.62681693345075 23.578492875909433,145.29655691221706 23.52751283510588,152.0354565027228 23.578492875909433,144.56261129601626 24.751033812062815,142.2940445964632 27.80983625492081,140.29235865740338 31.990199592895806,142.3607673086517 33.26470061065629,146.63100043905433 33.366660692030564,158.57409488479607 32.14313971507363,161.70993897420703 42.0332676123362,170.25 46.060690828599036,168.84890728324535 43.10384846734814,134.68759094644338 28.88041710969992,135.35482883598888 27.8608162952587,135.08793379817507 27.80983625492081,132.88604373240378" stroke="#4dd2ff" stroke-linecap="round" stroke-linejoin="round" stroke-width="0.5"><title>2023-09-27 2.3km</title><desc>1695814613000</desc></polyline><polyline fill="none" points="94.66089795445441,160.61716343149965 94.40815324164578,160.50099121731546 94.10860395236523,160.53767721466647 93.6452386455494,160.34201818893052 93.34568935626885,160.47653386779712 93.08358372817747,160.4643051876701 92.79339535420877,160.2258452077731 92.12877036863938,160.10355750934468 89.45154859582544,160.17081578787838 89.20816479832865,160.3053320193394 88.84308910203981,160.2258452077731 88.55290072807111,160.2747601866613 88.10357679415029,160.03629912226097 88.03336992947152,160.16470140340243 87.62148965673987,160.121900686976 87.0504738240852,159.61440312741252 86.75092453483376,159.64497544447295 86.36244655030896,159.3025642122302 85.69782156476867,159.09467030579253 85.15020802032086,158.59938946798502 85.0144747486338,158.62996252964513 84.9349069686723,158.5321286533217 84.52302669594064,158.3976066983596 84.08306367733167,158.45263845968293 83.89584537153132,158.61773330766664 83.43248006471549,158.77671291351726 83.45120189528097,158.70333778618442 82.95039292730507,158.94180647768007 82.9457124696346,158.86231706545732 82.81465965558891,158.88066078943302 82.59467814626987,158.7400253659871 82.52915173929068,158.78894208884958 82.40745984049863,158.6483063559026 82.34193343349034,158.71556698303175 82.1874783312087,158.513784775947 82.28108748409431,158.39149205372087 82.0891887206817,158.38537740817992 82.03770368656842,158.29365761755616 81.71475210908102,158.32423090352677 81.69134982084506,158.22028163970026 81.63518432911951,158.36703346620925 81.57433837975259,158.32423090352677 81.6679475326091,158.5076701483522 81.61646249855403,158.64219174805476 81.11565353054903,158.6849939841668 81.19054085286916,158.55047252262375 81.0875707846717,158.5198994026432 81.00800300471019,158.6483063559026 80.61484456257313,158.61773330766664 80.45570900265011,158.76448373460516 80.12339650985086,158.62384791911245 80.08127239104942,158.5321286533217 80.23572749333107,158.1897082774849 80.22636657804833,157.93900586109885 80.52591586732888,157.41313735633958 80.67101005432778,156.50813881127033 80.97992025886197,155.89664218125108 81.17649947994505,154.60023964766515 81.1203339881904,153.97036914109776 80.7646192071843,153.627911277792 79.91745637348504,153.12645004262595 79.69279440655373,152.50878827520137 79.44941060902784,152.32532262010136 79.41196694786777,152.08070048997251 79.27155321851023,151.95227329672707 79.07965445509763,151.32236275927426 78.85031203049584,151.28566864802997 78.62565006353543,151.11442903485295 78.24185253668111,150.61905333378672 78.1622847567487,149.750602705426 78.24185253668111,149.5120814063448 78.13420201087138,149.49373355753414 78.15760429907823,149.3163706025298 78.23717207903974,149.29802266754632 78.14824338376638,149.29190668740557 78.25121345196385,149.29802266754632 78.00314919679658,149.24909480138376 78.06867560383398,149.31025462509206 78.24653299432248,149.06561479154698 78.21845024847426,148.5579825537643 78.12016063791816,148.36838338440066 77.76444585691206,148.0870410912903 77.74104356870521,147.63444298072864 77.53978388995165,147.20018881994474 77.28235871950164,147.0472813477063 77.00153126081568,146.6069046918201 76.23393620707793,146.1175918363042 75.90630417194916,145.6649723277078 75.06382179589127,145.42031108618903 74.73150930312113,145.07166633415545 74.558332370274,144.6006854565676 74.19793713162653,144.4600018238707 74.07156477519311,144.53951871811296 73.56607534957584,144.22756695491262 73.21972148385248,143.86667866707285 73.06058592395857,143.08372383467577 72.74231480411254,142.7472934094876 72.63934473591507,142.41697725735867 72.47552871835069,142.2640522257352 72.3117127007863,141.5177700156928 71.89515197041328,140.86323280819124 71.65176817288739,140.07410418061772 71.41306483300286,140.0129307943389 71.15563966255286,139.74988420941008 70.86545128855505,139.7254146751984 70.4863342193421,139.37672225039933 69.7093782502925,139.46236627431426 69.36770484223962,139.65812338194155 68.98858777299756,140.10469084006036 68.04313532877131,140.18421604950709 67.61253322544508,140.4044389139308 67.36446897027781,140.33103142185064 67.40659308910836,140.46561172517977 67.27085981739219,140.58183981900947 67.14448746095877,140.52678444656704 67.12108517275192,140.17809873109945 67.04151739279041,140.1230428249437 66.41901652605156,140.15974677046324 65.74503062519943,139.88446639067115 65.58589506527642,139.93952261217783 65.50164682767354,140.31267952859343 65.04764243614045,140.7041848305089 64.81830001156777,141.14462389623077 64.40641973880702,141.45048161826344 64.2800473824027,141.98878575388517 63.2784294464218,142.728942580874 62.82442505488871,142.98585344578896 62.445307985675754,143.07760694210083 62.12235640818835,143.35286621831256 61.70579567778623,143.46908625545984 61.36412226973334,143.98289727058 61.420287761458894,144.3621346687105 60.98500520049129,144.75971855618263 60.82586964056827,145.0533165295201 60.619929504202446,145.08389953273218 60.36718479139381,145.2673970805008 60.01147001038771,145.29797992655222 59.71660117877764,145.4998261473047 59.36088639777154,145.48759307085857 59.28131861781003,145.3897283299484 58.91624292152119,145.35914555128693 58.83199468388921,145.2735136515148 58.44351669942262,145.2612805086028 58.18609152894351,145.4998261473047 57.85845949378563,145.46312690717969 57.774211256211856,145.53040882269488 57.25,146.27050272106862 57.502744712808635,146.53350812990175 57.97547093493631,146.72923200764853 58.2843811394705,146.99223452032675 58.4294753264694,147.4509558594109 59.02857390497229,148.00753096843255 59.20175083784852,147.99529862835334 59.2532358719327,148.17266720771295 59.337484109564684,148.1176218673536 59.71660117877764,148.37449950011433 59.941263145708945,148.54575037532413 59.97402634922764,148.69865234762256 60.33442158787511,148.9555263977527 61.059892522811424,149.26132677331407 61.331359066214645,149.27355874165005 61.373483185016084,149.39587822746034 61.63090835546609,149.53654519216434 61.56070149081643,149.61605239690107 61.682393389579374,149.57935678279318 61.96322084826534,149.71390720982527 61.91173581415205,149.87292079063627 62.12703686582972,149.9830067602561 62.234687391639454,149.946311469379 62.15980006931932,150.20317782690472 62.27213105282863,150.12978760063197 62.27213105282863,150.28268375946573 62.590402172645554,150.741368869305 62.98356061478262,151.2245117241073 63.09589159829193,151.18781752666837 63.367358141666045,151.4874858600051 63.2456662429031,151.5486423979237 63.28779036170454,151.88500175179433 63.451606379268924,151.7443427159742 63.774557956756325,151.95838888632716 64.07410724603687,151.72599585018907 64.38769790824153,151.7443427159742 64.5234311799286,151.8421925302937 64.70596902805846,151.79326765185033 64.92127007973613,151.92781092931546 65.21145845370484,151.82384570762224 65.35187218306237,152.06235377232224 65.52036865823902,152.06235377232224 65.59993643820053,152.23970503792225 65.95097076156526,151.9767356497723 66.09138449089369,152.42317107001873 66.50326476368355,152.45986417949462 66.64835895062424,152.5577123134608 66.77473130705766,152.4904417460384 66.79813359526452,152.8940635213694 66.69516352709616,153.01637237831164 67.317664393835,153.24875821744354 67.36914942794829,153.53006565703618 67.52360453020083,153.48114276049455 67.86059748064145,153.68906467410125 67.96824800648028,153.8847549391321 67.9495261758857,154.31282418981937 68.02441349820583,154.47793543983062 68.46905697445618,154.6430460355914 68.41289148273063,155.05887722990155 68.75924534839578,155.17506461598896 69.00262914595078,155.54808508695714 69.33962209636229,155.60923566525162 69.70001733500976,155.2973667776787 70.15402172657195,155.42578366112866 70.6314284063119,155.69484632411695 70.85609037327231,155.61535071813705 71.0994741707982,155.66427110900622 71.69389229168883,155.982252249647 71.92791517393198,156.26354123606143 72.34915636194637,156.33692065937066 72.67210793943377,156.66712646524684 73.15887553448556,156.80776888429318 73.52863168841577,157.278611789181 73.98731653761934,157.07070778579146 74.63790015023551,157.35810422225768 74.85788165952545,157.25415254851032 75.12934820292867,157.26026736004133 75.40081474630279,156.8505730045872 75.5927135097445,156.77107960335707 75.83609730727039,157.0217890460226 76.10756385070272,156.9361811132403 76.28074078352074,157.04013358016527 76.5943314457254,157.55989202519413 76.95472668437287,157.25415254851032 77.24491505834158,157.48039997704473 77.25427597365342,157.633269165839 77.56786663582898,157.572121557605 78.00782965443796,157.89620285878118 78.6958569282142,157.8411703626407 79.21538772681379,158.1591348928123 79.71619669476058,158.25085497950568 80.18892291691736,158.57493100247302 80.18424245924689,158.66053556889165 80.42294579913141,158.74613995949767 80.52591586732888,158.74613995949767 80.53059632497025,158.6360771392865 80.63356639313861,158.60550408210838 80.97523980119149,158.6360771392865 81.08289032705943,158.5076701483522 81.18586039522779,158.55047252262375 81.13905581878498,158.67276477832274 81.45264648098964,158.58104562019798 81.5883797526767,158.62996252964513 81.67262799027958,158.50155551987336 81.56497746446985,158.33034555802078 81.63518432911951,158.3609188170958 81.71943256672239,158.20193762505733 81.71475210908102,158.30588693462414 82.03770368656842,158.27531363520757 82.10323009357671,158.3731481144241 82.30448977233027,158.37926276175858 82.19683924649144,158.5076701483522 82.26236565349973,158.66053556889165 82.95039292730507,158.86843164101447 82.93635155438096,158.9479210415593 83.02528024959611,158.83785875426838 83.05336299547344,158.8928899342427 83.12825031779357,158.80117126058758 83.89116491388995,158.60550408210838 84.04093955853023,158.45875309535404 84.53238761122338,158.3731481144241 84.82725644283346,158.5321286533217 85.17361030855682,158.59327485293034 85.74462614121148,159.08855576344286 86.56838668667478,159.38205278473833 86.76964636539924,159.61440312741252 87.01771062059561,159.57771631732612 87.63553102969308,160.10355750934468 88.06145267537795,160.14635824460856 88.12697908238624,160.04241352556346 88.57162255863659,160.2686458174503 88.85245001732255,160.2013876967867 89.25496937477146,160.3053320193394 89.48899225701462,160.16470140340243 91.27224661965738,160.16470140340243 91.3986189760617,160.0913287197509 91.82922107935883,160.17081578787838 92.16621402979945,160.09744311500617 92.79807581185014,160.24418833157688 93.12102738933754,160.4520765039233 93.70608459491632,160.3236751081604 94.20689356292132,160.58047750410333 94.52048422509688,160.6232777496043 95.09150005778065,160.40927608263155 95.65783543276484,160.51321988669224 96.05099387496011,160.32978946930598 96.36926499477704,160.4276191257195 96.45351323240902,160.1891589359111 96.87475442042341,160.14635824460856 96.91219808155438,159.89566759852823 97.64234947416116,159.73669226113634 97.74531954235863,159.52268604162236 97.75,159.25976261038886 97.63298855884932,159.08855576344286" stroke="#ff0000" stroke-linecap="round" stroke-linejoin="round" stroke-width="0.5"><title>2023-09-23 20.7km</title><desc>1695430086000</desc></polyline><polyline fill="none" points="102.25,137.13951811470906 102.79941860446706,132.35398997343145 113.55232558120042,133.2282731233281 113.8662790695671,135.66705358150648 108.88226744183339,150.29944631102262 108.88226744183339,150.98964123713085 109.82412790693343,151.49578348000068 142.75,151.5417963815853 136.9026162789669,160.79028982354794 134.97965116263367,161.94058606689214 131.05523255793378,166.3576950931747 128.1511627906002,166.67977418773808 125.83575581386685,166.17364978801925 123.71656976733357,167.64601002656855 108.37209302303381,167.55398765896098 106.72383720916696,166.9098305364023 106.84156976733357,163.82706525543472" stroke="#4dd2ff" stroke-linecap="round" stroke-linejoin="round" stroke-width="0.5"><title>2023-07-28 3.3km</title><desc>1690494902000</desc></polyline><polyline fill="none" points="147.28397651016712,134.74250114528695 157.0012583893258,135.73846086038975 159.37961409403943,135.34007729357108 172.9362416107906,136.93360900657717 187.75,141.55481245956616 187.4442114093108,143.2279926899355 177.48909395979717,158.40578466444276 174.0234899329953,161.03494569283794 171.3733221476432,164.42095910166972 166.92239932890516,164.14211210032227 166.2088926176075,165.21766367091914 156.2537751677446,164.81931159907253 152.9580536914291,165.25749885474215 150.57969798671547,164.69980589448824 151.59899328870233,156.89201687538298 154.2151845637709,145.53856256903964 153.73951342282817,144.6621411969536 154.89471476525068,140.83773291955004 147.45385906042065,140.43935480137588 147.25,139.36373175610788" stroke="#4dd2ff" stroke-linecap="round" stroke-linejoin="round" stroke-width="0.5"><title>2023-07-25 3.7km</title><desc>1690275373000</desc></polyline><polyline fill="none" points="15.147490656701848,199.6507190514676 15.471836625831202,198.94082328901277 15.450213561183773,196.83647694221872 12.466230646008626,196.63364739262033 12.25,195.5180817701621 15.428590496536344,180.9898959624261 26.888814735691994,180.88847443531267 28.09970635350328,181.42093696887605 29.05112119601108,180.9898959624261 38.73825413780287,181.06596207927214 41.63574479450472,184.59033208302571 43.041243993560784,185.70594908800558 44.27375867590308,187.8611034462374 48.12266417522915,192.50095756113296 48.360517885768786,193.31228885089513 49.39842498663347,193.97149348101811 51.73371596366633,197.97738992847735 52.49052322481293,202.31280924550083 52.75,216.1298452430783 52.44727709563449,216.61152556467277 36.316470902296714,216.4340645072807 33.24599572876468,216.25660331720428 33.02976508275606,215.97773546472308 31.710758142056875,216.05379036610248 28.89975974371191,215.4707021661452 28.186198611860164,215.4707021661452 27.753737319842912,216.33265812916216 18.109850507345982,216.0030871011695 17.871996796573512,213.62002143346763 19.363988254219294,208.06789263944665 20.099172450602055,203.58046074572485 19.818072610883974,203.0987539734051 20.553256807266735,200.84232502107625 15.796182594727725,200.46202589372115 15.450213561183773,199.80283929570578" stroke="#4dd2ff" stroke-linecap="round" stroke-linejoin="round" stroke-width="0.5"><title>2023-07-22 6.4km</title><desc>1690017215000</desc></polyline><polyline fill="none" points="57.25,193.3181813681149 61.46143847494386,192.65977358818054 97.75,196.28100941347657 97.67980935843661,204.84022641181946" stroke="#4dd2ff" stroke-linecap="round" stroke-linejoin="round" stroke-width="0.5"><title>2023-07-19 1.5km</title><desc>1689754868000</desc></polyline><polyline fill="none" points="102.25,192.7447220539325 102.72487437177915,188.84711397378123 103.33542713569477,188.52894008366275 112.15452261315659,189.2448309538304 112.56155778898392,189.92094884469407 115.10552763822488,189.1255159044522 126.0276381908916,189.72209076903528 129.04648241214454,191.07432358860387 133.86306532670278,192.4265514955914 134.03266331669874,192.0686092923861 136.20351758797187,193.22197738141404 139.1884422111325,193.65946089412319 139.79899497504812,194.29579963098513 142.68216080404818,194.45488414523425 142.30904522608034,195.05145046798862 142.75,195.2503056965361 142.37688442214858,195.3696187825699 142.7160804021405,197.71610170358326 139.39195979910437,202.1306311750959 139.32412060303614,203.9600604774314 139.05276381911244,203.56235921994084 134.94849246239755,207.02234592768946 130.94597989949398,205.43155143535114 128.19849246239755,206.22694953129394 127.31658291467465,205.98833028093213 126.36683417099994,206.86326678431942 123.9924623115221,205.63040111862938 123.14447236189153,206.6246479418769 121.58417085430119,205.70994096223149 120.56658291455824,206.86326678431942 119.37939698493574,205.3520115322317 120.02386934682727,207.22119476122316 119.92211055266671,208.97105991633725 118.56532663328107,206.78372718719766 116.73366834165063,205.55086125800153 115.88567839202005,205.51109132138663 115.4786432160763,206.26671939139487 114.39321608026512,205.70994096223149 113.54522613075096,206.5053384633502 112.76507537695579,205.94856039102888 112.08668341697194,206.42579878971446 109.78015075379517,205.3122415742837 109.03391959809233,205.78948078880785 108.52512562822085,204.79523173483904 109.67839195975102,204.27822117734468 109.16959799011238,198.75014032924082 108.55904522619676,197.79564323832165 109.6105527637992,198.8694522935548 109.47487437189557,197.7558724731207 110.83165829139762,196.12526743969647 109.23743718594778,195.96618363942252 106.89698492467869,193.65946089412319 107.50753768859431,194.25602849168354 106.625628140755,194.85259513329947 103.87814070342574,194.53442637674743" stroke="#4dd2ff" stroke-linecap="round" stroke-linejoin="round" stroke-width="0.5"><title>2023-07-17 3.6km</title><desc>1689586843000</desc></polyline><polyline fill="none" points="147.25,185.84999037222588 147.45250000001397,182.40717191179283 147.89125000010245,181.93229788832832 154.27000000001863,182.0114436012227 157.13875000015832,182.52589032257674 157.30750000011176,183.00076358488877 160.14250000019092,182.68418147761258 165.2049999999581,183.55478162143845 166.92625000013504,183.35691813204903 168.4450000000652,184.10879882916925 169.69375000009313,183.75264500506455 173.33874999999534,186.6810107229685 174.92500000016298,184.26708930765744 175.53250000008848,184.97939562390093 178.50250000006054,185.57298317432287 184.64500000025146,189.45106509144534 187.04125000024214,188.38261800372857 187.75,188.6596231002477 187.41250000020955,190.71736875968054 182.18125000002328,197.91938853720785 182.6537500001723,197.84024622369907 182.18125000002328,199.26480527891545 180.9662500001723,200.0166536825418 179.8862500000978,201.95562410124694 178.60375000012573,202.50961378513603 179.00875000003725,203.14274383781594 178.36750000016764,203.9737253896892 178.77250000019558,204.2507188260206 177.8275000002468,205.83353448854177 176.68000000005122,205.27954977590707 176.78125000023283,207.02064179675654 175.26250000018626,208.04946505307453 175.02625000022817,210.186242685857 171.92125000013039,211.76903298555408 170.70625000016298,214.89502395884483 169.39000000013039,215.56770211164257 168.51249999995343,215.13243991695344 166.96000000007916,211.21505715002422 166.35250000015367,212.04602059276658 165.64375000004657,212.0064509472286 159.40000000002328,209.86968381438055 157.51000000012573,211.7294633104466 154.4725000000326,211.96688129747054 152.04249999998137,211.45247546661994 150.65875000006054,208.04946505307453 152.98750000004657,201.5994874383323 153.15625,198.5920975189365 154.06750000000466,197.2862495559093 154.06750000000466,193.52696456367266 154.84375000011642,192.3002422565187 154.50624999997672,191.3505189701682 155.28250000008848,190.20293341667275 155.45125000015832,187.47245694237063 153.56125000002794,187.70989047834883 151.7387499999022,187.19545095789363 150.45625000004657,188.3034736525151 150.3887500000419,187.51202920894139 148.09375000011642,186.9975894136296 147.31750000000466,186.24571458128048" stroke="#4dd2ff" stroke-linecap="round" stroke-linejoin="round" stroke-width="0.5"><title>2023-07-14 4.3km</title><desc>1689326523000</desc></polyline><polyline fill="none" points="12.25,235.20379874133505 12.92443796840962,231.28936786446138 19.7699833472725,231.487067386508 22.804954204708338,232.3964838272368 24.15383014152758,231.9220059631043 28.470233139116317,232.11970514708082 36.93442964181304,230.77534861306776 37.33909242297523,233.6222154936404 41.75666111567989,234.057151560497 42.53226477932185,234.6107058156049 42.16132389672566,234.7688640221313 42.73459616978653,234.45254754149937 45.66840133222286,235.3619566942216 46.444004995864816,236.1527454452007 51.536011656862684,237.4575431898411 52.58139050786849,238.36694495781558 52.75,239.8694299388444 51.97439633635804,241.49052531368216 47.55682764365338,246.59099858722766 47.084721065708436,248.6074453757028 46.27539550361689,248.3702169120079 45.769567027455196,247.3817633430881 45.53351373854093,248.64698343814234 45.061407160712406,248.88421172447852 44.656744379666634,248.13298829630367 44.04975020803977,250.42619187867967 44.21835970005486,252.2449294437538 42.97064945870079,253.74735808215337 41.722939217463136,253.62874551682035 41.65549542044755,255.21024326453335 39.767069109133445,259.12442112888675 37.710033305455,260.78496892904514 36.29371357196942,261.10126290336484 34.405287260655314,263.86882364950725 33.83201498747803,262.682728720858 32.55058284767438,264.22465138693224 32.51686094910838,261.77338670159224 31.033097418723628,260.8640424479963 29.380724396323785,261.1407996312191 27.053913405514322,260.350064272905 23.04100749385543,262.72226527976454 21.118859283975326,261.33848320681136 19.97231473773718,261.2989465002029 18.050166527973488,263.27577666030265 16.90362198173534,262.6431921578478 16.4652373023564,263.1967036566057 16.39779350545723,255.84284047121764 15.790799333830364,255.24978062155424 17.94900083274115,252.95660692756064 17.17339716909919,253.07521970843663 16.90362198173534,252.52169307231088 17.6792256453773,252.16585408328683 17.443172356346622,250.74249470600626 18.58971690258477,248.0934501788288 18.185054121538997,247.65853060851805 18.690882597817108,247.26314873746014 19.399042464676313,241.17421457869932 19.97231473773718,241.17421457869932 19.97231473773718,240.02758589782752 20.916527893394232,238.88095366407651 20.309533722000197,236.86445387630374" stroke="#4dd2ff" stroke-linecap="round" stroke-linejoin="round" stroke-width="0.5"><title>2023-07-13 4.2km</title><desc>1689241498000</desc></polyline></svg>