<?xml version="1.0" encoding="utf-8" ?>
<svg baseProfile="full" height="300mm" version="1.1" viewBox="0,0,200,300" width="200mm" xmlns="http://www.w3.org/2000/svg" xmlns:ev="http://www.w3.org/2001/xml-events" xmlns:xlink="http://www.w3.org/1999/xlink"><defs /><rect fill="#222222" height="300" width="200" x="0" y="0" /><text fill="#FFFFFF" style="font-size:12px; font-family:Arial; font-weight:bold;" x="10" y="20">Over 1km Runs</text><text fill="#FFFFFF" style="font-size:4px; font-family:Arial" x="10" y="280">ATHLETE</text><text fill="#FFFFFF" style="font-size:9px; font-family:Arial" x="10" y="290">zhangzili</text><text fill="#FFFFFF" style="font-size:4px; font-family:Arial" x="120" y="280">STATISTICS</text><text fill="#FFFFFF" style="font-size:3px; font-family:Arial" x="120" y="285">Number: 14</text><text fill="#FFFFFF" style="font-size:3px; font-family:Arial" x="120" y="290">Weekly: 2.3</text><text fill="#FFFFFF" style="font-size:3px; font-family:Arial" x="141" y="285">Total: 76.8 km</text><text fill="#FFFFFF" style="font-size:3px; font-family:Arial" x="141" y="290">Avg: 5.5 km</text><text fill="#FFFFFF" style="font-size:3px; font-family:Arial" x="167" y="285">Min: 1.5 km</text><text fill="#FFFFFF" style="font-size:3px; font-family:Arial" x="167" y="290">Max: 20.7 km</text><polyline fill="none" points="55.04968152864603,61.67479029117385 54.3428999625321,61.36464230499405 53.792581491172314,60.96990560819904 53.506631697237026,60.94171000572533 53.414911952015245,60.843025266749464 53.285425252863206,60.892367661581375 53.22068190330174,60.7866338963031 53.253053578111576,60.8571230990201 53.05342825027765,60.93466110253212 52.90775571373524,60.8571230990201 52.25492693888373,61.06859008649917 51.27838141625398,60.843025266749464 51.07875608842005,60.892367661581375 50.91689771445817,61.1038344939152 50.2478831022745,61.153176620842714 49.988909703999525,61.0262967634917 49.988909703999525,61.132030001212115 49.84323716745712,61.14612774867419 49.497939303080784,59.93370634520397 49.120269763923716,59.65174349323206 48.866691644798266,59.16535368334735 48.27860621953732,58.77059891247336 47.9117272386502,58.68600818231789 47.63656800298486,58.629614279467205 47.54484825776308,58.735352793020866 46.8758336455503,58.74945124388614 46.35249156985083,58.45338290628206 45.9370550767926,58.77059891247336 45.71584863244789,58.75650046779265 45.667291120276786,58.862238702007744 45.18711127762799,58.960927510597685 45.116972648917,59.1935503285531 44.64218808541773,59.123058684497664 44.2753091045015,59.292238456419 43.60629449231783,58.98207508604901 43.32573997750296,59.1583045194493 42.98044211312663,58.93977992582586 42.69449231919134,58.57322031040894 42.37617085050442,58.4886292326446 42.02547770697856,58.24190440492748 41.76110902958317,58.29829876298754 41.69097040090128,58.18550998063438 41.351067815645365,58.192559287283075 40.59572873736033,57.8964875168931 40.39070813037688,57.656809032723686 40.24503559383447,57.76254968788635 40.24503559383447,57.945832938698004 39.9860621955595,58.0938688999413 39.06886474334169,58.23485510550381 39.052678905951325,58.1502634318349 38.98793555636075,58.22780580503968 38.901611090259394,58.11501685717303 38.5886849006929,58.27010159222846 38.30813038587803,58.0092769779767 37.94125140499091,58.31239734216797 37.54200074932305,58.47453070519623 36.15001873357687,57.699105322717514 35.977369801403256,57.55811754454044 35.745372798788594,56.85317244570251 35.459423004853306,56.64168689840517 35.05477707006503,55.52079795037935 34.79040839264053,55.457350623873936 34.70408392656827,55.28815734340242 34.374971899582306,55.1189634668699 34.26167103782063,54.82287274866758 34.05125515171676,54.66072705801707 33.99730236042524,54.44923185618245 34.08902210564702,54.146087109336804 33.98651180215529,53.737191163760144 34.067440989107126,53.41994191102276 33.94874484825414,53.37059183888414 34.02427875608555,53.271891542510275 33.93255901086377,53.15909095539973 33.98111652303487,53.215491282069706 33.94334956910461,53.109740615229384 34.099812663916964,52.83478779157667 34.05125515171676,52.26372689701748 33.52791307604639,51.77021201179741 33.48475084299571,51.206188789688895 33.258149119472364,50.762015839645755 32.97219932556618,50.59985643728942 32.70243536905036,50.09927395835257 31.936305732437177,49.669191886223416 31.385987261106493,48.985282953304704 30.40404645932722,48.70325581445286 30.301536155864596,48.49878510294366 30.037167478440097,48.34366880998641 29.788984638405964,47.73730031120067 29.56777819409035,47.73730031120067 29.400524541008053,47.59628328378676 29.244061446224805,47.687944398730906 28.682952416624175,47.3424515907609 28.62899962530355,47.194382483463414 28.256725365296006,46.91939578709571 28.116448107903125,46.02391537402946 27.749569127016002,45.67841059217244 27.603896590473596,45.27649373805616 27.760359685256844,45.19187923480058 27.614687148714438,45.23418650505846 27.431247658270877,45.135469483106135 27.32334207565873,44.42329066773891 26.778418883448467,43.45724905433235 26.50865492693265,42.554652463531966 25.90438366428134,42.180916094741406 25.56448107905453,42.1456577965655 25.15983514423715,41.74371136703485 24.231847133720294,41.856538774711225 23.843387036322383,42.07514112249919 23.42795054326416,42.58991046133815 22.73195953539107,42.61811684094937 22.17624578491086,42.73799376939496 21.82015736226458,42.928385922899906 21.49104533533682,42.80145790445022 21.60974147618981,42.99890134371162 21.46946421879693,43.118777321353264 21.30760584489326,43.09057123589082 21.269838890933897,42.653374792153045 21.18351442486164,42.611065247590886 20.460547021357343,42.625168433278304 19.68902210565284,42.321949028540985 19.494792056939332,42.392465340086346 19.44623454476823,42.7732516325741 19.106331959512318,43.02005594972434 18.63694267513347,43.79571840111021 18.151367553364253,44.14123673136055 18.059647808142472,44.65598391786261 17.757512176816817,44.994444813932205 16.31157736980822,45.911097759435506 15.896140876720892,45.99571099523382 15.523866616713349,46.32006035105587 15.011315099254716,46.48223420730574 14.649831397517119,47.0604148024795 14.622855001827702,47.42706230418844 14.714574747078586,47.46231672411159 14.639040839247173,47.60333414498382 14.293742974899942,47.84306281000681 13.705657549639,48.58339377882294 13.274035219161306,48.69620511476023 13.166129636549158,48.8301682319252 13.171524915698683,49.027586881278694 13.640914200048428,49.75379849984165 13.581566129607381,49.97236489508941 13.327988010481931,50.212081733028754 12.74529786434141,50.31078831848208 12.691345073049888,50.71266303602897 12.416185837384546,50.881872437243146 12.39999999999418,51.00172873571864 12.79385537651251,51.241440435165714 12.901760959153762,51.474100646184525 13.333383289602352,51.36129583616275 13.581566129607381,51.452949764498044 13.554589733976172,52.002869660987926 13.4412888722145,52.29897776616781 13.554589733976172,52.8136375091708 14.282952416629996,53.123840717584244 14.531135256635025,53.109740615229384 15.17856875230791,53.659641539950826 15.345822405361105,53.67374148086674 15.28107905582874,53.8358905038549 15.496890221053036,53.97688920926521 15.642562757566338,53.92048977678496 15.550843012344558,54.23068583584245 15.69112026973744,54.17428670139634 15.804421131499112,54.533830048691016 16.441064068931155,55.21765996727845 16.457249906321522,55.38685349611842 16.624503559345612,55.344555169784144 16.937429748941213,55.711139427006856 16.79715249154833,55.80278505412207 16.85110528289806,56.15526660556134 17.045335331582464,55.99312541320978 17.406819033320062,56.2328121997416 17.71434994379524,55.97902615320345 18.09741476207273,55.98607578370502 18.280854252516292,56.112968955989345 18.458898463839432,56.02837354505027 18.70708130384446,56.20461381632413 19.063169726461638,56.08477050223155 19.21423754215357,56.3526551444229 19.48939677781891,56.444299547431 19.494792056939332,56.564141964416194 19.888647433486767,56.26806015566763 20.05590108653996,56.77562785315604 20.52529037091881,56.82497442653403 20.681753465672955,56.93071691303703 20.843611839634832,56.93071691303703 20.87058823526604,56.8390734381901 20.87058823526604,57.29728906387754 20.762682652653893,57.41712935250689 20.82203072309494,57.50172231740362 21.2212813787919,57.670907800191344 21.42630198574625,57.656809032723686 21.539602847507922,58.05157295758909 21.712251779652433,57.995178309800394 22.095316597959027,58.22075650356783 22.21940801796154,58.43928436849092 22.273360809282167,59.123058684497664 22.807493443222484,59.341582444292726 22.737354814540595,59.82092140301393 23.185162982379552,59.99714775877874 23.417159984994214,60.377794480718876 23.773248407640494,60.462382231526135 24.20487073805998,60.0958342356098 24.803746721619973,60.2791085832032 25.283926564239664,60.561067752514646 25.5105282877048,60.462382231526135 25.828849756449927,60.52582294687454 26.30902959909872,60.73024245966735 26.789209441718413,61.21661642383697 27.247808167827316,61.294153847054986 27.47980517047108,61.435130659523566 27.64166354437475,61.68888787931428 28.208167853124905,61.858058614463516 28.591232671402395,62.35146985573738 29.157736980123445,62.147057242098526 29.89689022101811,62.492443565224676 30.172049456683453,62.35146985573738 30.47418508803821,62.34442115938873 30.787111277633812,61.865107382156566 31.002922442829004,61.78757088056227 31.299662795034237,62.11181360011324 31.650355938530993,61.98493627484277 32.157512176811,62.70390335374759 32.58373922816827,62.35851855102737 32.91285125512513,62.60522223494627 32.848107905563666,62.767341108778055 32.91285125512513,62.80963289893771 33.28512551516178,62.72504928139824 33.921768452593824,63.13386871982948 34.574597227416234,63.028139888250735 34.979243162233615,63.32418003023122 35.76695391529938,63.50744206100717 36.306481828389224,63.90215790661023 36.29569127011928,63.993787906947546 36.452154364902526,63.97969099518741 36.59782690144493,64.11361148982542 36.79205695015844,63.93035177149068 37.22367928060703,63.944448697715416 37.326189584098756,63.80347924927264 37.47186212061206,63.85986707829943 37.39632821280975,63.993787906947546 37.76860247281729,63.89510943782079 37.952041963260854,63.944448697715416 38.00599475458148,63.796430765996774 37.89269389281981,63.57792727131164 38.03836642936221,63.451053818313085 38.065342825022526,63.57792727131164 38.448407643300015,63.5426846790906 38.54552266764222,63.676606391982205 38.75593855374609,63.676606391982205 38.62105657547363,63.810527731526236 38.70198576245457,63.993787906947546 38.901611090259394,63.97969099518741 39.02030723117059,64.15590209475704 39.08505058073206,64.07836929059704 39.48969651554944,64.21933793239077 39.47351067812997,64.29687050904613 39.710902959894156,64.14885366319868 39.75406519291573,64.21933793239077 40.315174222545465,63.95854561982924 40.611914574721595,63.92330330683035 40.703634319943376,63.77528530995187 41.32948669913458,63.65546088318297 41.65320344697102,63.85281860327814 42.052454102638876,63.90215790661023 42.72686399400118,64.48717721216235 43.44983139750548,64.71272492112257 43.88684900710359,65.10038257176711 44.23754215060035,65.06514109643103 44.469539153185906,65.4316511763318 44.83102285498171,65.6571944510979 45.35436493065208,65.69948369723716 45.47306107156328,65.57261584714797 45.87231172720203,65.81225483827802 46.18523791679763,65.75586930085774 46.746346946427366,65.8545439479276 47.02150618209271,65.71358010434778 48.66706631696434,65.73472470727211 49.12566504307324,65.69948369723716 49.249756463075755,65.60080873168772 49.71375046830508,65.72062830635696 50.11300112400204,65.64309802746357 50.82517796923639,65.79111026950704 51.18126639188267,66.04484448066069 51.52116897710948,66.05189263407738 51.817909329314716,65.90388119546333 52.508505058067385,66.19285548497646 52.95091794678592,66.25628863296879 53.51202697638655,65.99550737790196 54.154065192939015,66.12942225324514 54.628849756438285,65.91092936956193 55.00651929559535,65.99550737790196 55.076657924306346,65.70653190131998 55.551442487805616,65.69243549214661 55.59999999997672,65.36116868582394" stroke="#4dd2ff" stroke-linecap="round" stroke-linejoin="round" stroke-width="0.5"><title>2023-10-05 18.8km</title><desc>1696467788000</desc></polyline><polyline fill="none" points="78.39999999990687,53.40136369608808 84.8037647055462,60.71837146533653 91.3091764706187,58.323720905871596 98.32282352913171,61.38355104881339 102.28705882327631,55.52995389158605 112.75670588202775,59.654083111847285 120.68517647031695,58.8558660238632 120.4818823528476,47.01556299516233 79.61976470565423,48.745055145351216 78.80658823484555,53.268326642224565 85.21035294048488,60.71837146533653 92.32564705843106,58.8558660238632 98.22117647016421,61.250515171384905 102.59200000017881,55.263880391663406 112.35011764708906,59.52104697970208 121.59999999962747,57.791575474489946 120.4818823528476,46.61644895118661 91.61411764705554,48.87809286598349" stroke="#4dd2ff" stroke-linecap="round" stroke-linejoin="round" stroke-width="0.5"><title>2023-10-03 1.9km</title><desc>1696334828000</desc></polyline><polyline fill="none" points="144.9094339623116,43.46525335247861 144.70566037716344,56.53373102279147 151.12452830234542,63.734648268611636 156.42264150921255,61.334348886914086 165.08301886729896,64.53474664752139 169.2603773586452,58.66734210686991 180.16226415056735,62.66784932941664 187.49811320798472,62.001099354063626 187.09056603815407,50.666274600080214 184.441509434022,49.46610837173648 146.84528301889077,51.466384534491226 144.5018867929466,53.066602281003725 144.39999999990687,56.13367838412523 150.41132075479254,63.33459881396266 156.32075471663848,60.800948160060216 164.77735849050805,64.26804726640694 169.15849056653678,58.66734210686991 180.36603773618117,62.66784932941664 187.60000000009313,61.73439922614489 186.37735849060118,49.46610837173648 160.49811320751905,51.73308768868446 145.72452830150723,51.06632965541212" stroke="#4dd2ff" stroke-linecap="round" stroke-linejoin="round" stroke-width="0.5"><title>2023-10-02 2.0km</title><desc>1696244277000</desc></polyline><polyline fill="none" points="12.399999999906868,89.88406027678866 13.992626728024334,92.61995089810807 13.79354838700965,106.29927699320251 17.974193548318,111.90122563368641 20.860829493496567,113.85538541211281 24.941935483831912,111.24983808049001 33.004608294926584,114.11593972315313 37.68294930830598,108.51400511729298 44.053456221241504,109.42595037922729 47.93548387102783,112.55261270637857 55.60000000009313,110.98928292532219 54.704147465061396,99.78533858637093 14.291244239546359,102.26064083527308 14.191705069039017,106.42955527163576 20.164055299479514,113.72510822804179 26.235944700427353,110.98928292532219 33.50230414792895,113.72510822804179 37.882027650251985,108.77456100244308 43.85437788069248,109.55622819700511 47.835944700054824,112.42233533033868 55.30138248857111,111.51039315969683 54.8036866360344,100.30645542504499 14.092165898066014,101.73952514794655 13.295852534007281,91.18686639069347" stroke="#4dd2ff" stroke-linecap="round" stroke-linejoin="round" stroke-width="0.5"><title>2023-10-01 2.1km</title><desc>1696158328000</desc></polyline><polyline fill="none" points="78.39999999990687,92.19424745783908 84.09574036486447,90.01515404949896 84.18336713965982,104.00712131737964 90.14198782946914,111.11769679840654 93.73468559794128,108.93865637807176 101.97160243336111,111.34706911939429 105.82718052668497,106.18617554655066 111.43529411684722,107.67710387211991 113.8012170381844,113.98484595055925 114.5022312370129,110.0855205177213 121.59999999962747,108.70928334689233 120.1979716019705,98.73149107320933 84.79675456369296,100.33712145511527 84.44624746404588,104.58055723260622 89.87910750415176,110.8883244098397 94.34807302197441,108.59459680633154 101.70872210944071,110.77363819041057 105.38904665224254,106.3008624422364 114.94036511098966,109.97083417983958 120.89898580033332,109.16802934132284 120.63610547641292,99.07555500528542 84.88438133848831,100.10774588957429 83.9204868148081,91.73549145809375" stroke="#4dd2ff" stroke-linecap="round" stroke-linejoin="round" stroke-width="0.5"><title>2023-09-29 2.2km</title><desc>1695985278000</desc></polyline><polyline fill="none" points="151.53526311623864,80.39999999999418 151.9702927970793,81.46759187322459 154.580470881192,80.54234571949928 154.85236443160102,88.72715402120957 158.0607083272189,93.0686047290219 156.4837257345207,96.98299403968849 156.4293470242992,104.17115360288881 156.4837257345207,96.20011871572933 157.73443606635556,93.78031423620996 160.9971586719621,91.64518256788142 165.456212899182,93.85148512921296 166.81568065145984,98.40640046828776 166.92443807167,111.14570121042198 165.61934902961366,114.49060157247004 176.1688187867403,123.60000000000582 180.4647368839942,122.10550110210897 177.31077169883065,85.66676367621403 162.1391115838196,86.37848409169237 161.05153738195077,86.09379605136928 160.9971586719621,83.74511331453687" stroke="#4dd2ff" stroke-linecap="round" stroke-linejoin="round" stroke-width="0.5"><title>2023-09-27 2.3km</title><desc>1695814613000</desc></polyline><polyline fill="none" points="52.30495781809441,161.32497432693344 52.035363457747735,161.20105729847273 51.715844215854304,161.24018902898024 51.22158788857632,161.03148606819377 50.90206864668289,161.1749694589853 50.62248931004433,161.1619255335172 50.31295504447189,160.9075682216244 49.60402172655449,160.7771280099696 46.748318502213806,160.84887017373694 46.488709118188126,160.99235415396106 46.09929504216416,160.9075682216244 45.78976077659172,160.95974419911 45.310481913766125,160.7053857304163 45.23559459144599,160.84234816363096 44.79625563387526,160.79669406610992 44.187172079022275,160.2553633359057 43.86765283715795,160.28797380744072 43.4532763203315,159.92273515971465 42.7443430024141,159.7009816595164 42.16022188833449,159.1726820991862 42.01543973185471,159.20529336495383 41.930567433242686,159.10093723021055 41.49122847567196,158.95744714491593 41.021934589138255,159.0161476903304 40.822235062980326,159.19224886151278 40.327978735702345,159.36182710775392 40.347948688286124,159.2835603052663 39.81375245578238,159.53792690952469 39.80875996762188,159.4531382031564 39.6689702993026,159.47270484206456 39.434323356021196,159.32269372371957 39.36442852189066,159.37487156144198 39.23462382986327,159.22486011296496 39.164728995703626,159.29660478190272 38.999976886610966,159.08137042767703 39.09982664970448,158.95092485730493 38.89513463538606,158.94440256872986 38.8402172656788,158.8465681253947 38.49573558301199,158.87917963042855 38.47077314223861,158.76830041568246 38.410863284399966,158.92483569728938 38.34596093840082,158.87917963042855 38.445810701465234,159.074848158245 38.39089333178708,159.21833786459683 37.856697099254234,159.26399358311392 37.93657690973487,159.12050402413297 37.82674217032036,159.0878926961559 37.74186987167923,159.22486011296496 37.32250086675049,159.19224886151278 37.15275626949733,159.34878265024963 36.79828961050953,159.19877111372261 36.753357217123266,159.10093723021055 36.91810932621593,158.73568882931795 36.90812434992404,158.46827291850786 37.22764359181747,157.90734651343155 37.38241072461824,156.94201473202338 37.711914942774456,156.289751660006 37.92159944528248,154.9069222908438 37.86168958741473,154.23506041717337 37.48226048768265,153.86977202964772 36.57862013173872,153.33488004546962 36.33898070032592,152.67604082688194 36.079371316271136,152.4803441281074 36.03943141104537,152.2194138559753 35.889656766405096,152.08242484984657 35.68496475208667,151.41052027656042 35.44033283251338,151.37137989123585 35.20069340110058,151.18872430384363 34.79130937246373,150.66032355603966 34.7064370738517,149.7339762191259 34.79130937246373,149.47955350010307 34.67648214491783,149.45998246137242 34.701444585691206,149.27079530937044 34.78631688430323,149.25122417871535 34.69145960937021,149.24470046656643 34.80129434875562,149.25122417871535 34.53669247656944,149.19903445481395 34.60658731075819,149.26427160009916 34.79630186059512,149.00332244432138 34.76634693169035,148.46184805735174 34.66150468046544,148.25960894336458 34.28207558070426,147.95951049737778 34.25711313995998,147.4767391794485 34.04243614929146,147.0135347412761 33.767849300813396,146.85043343755387 33.46830001153285,146.3806983379436 32.64953195420094,145.8587646253909 32.300057783402735,145.37597048288808 31.401409915619297,145.11499849193933 31.046943256660597,144.74311075643345 30.862221194955055,144.24073115367355 30.47779960706248,144.09066861213068 30.34300242687459,144.17548663265552 29.80381370621035,143.84273808524085 29.434369582799263,143.45779057820982 29.264624985546106,142.62263875698773 28.925135791039793,142.26377963678897 28.815301051654387,141.9114424078507 28.640563966240734,141.74832237412193 28.46582688082708,140.9522880167424 28.021495435095858,140.25411499540496 27.761886051070178,139.41237779265794 27.507269155204995,139.34712618062986 27.232682306697825,139.06654315670676 26.923148041125387,139.04044232021624 26.51875650061993,138.66850373375928 25.69000346699613,138.75985735926952 25.32555183171644,138.9686649407413 24.92116029121098,139.44500356273056 23.912677684013033,139.52983045281144 23.45336877380032,139.76473484152666 23.18876690164325,139.68643351664286 23.23369929502951,139.82998584019515 23.088917138549732,139.9539624736135 22.954119958361844,139.89523674300654 22.929157517588465,139.5233053131742 22.844285218976438,139.4645790132745 22.1802842944453,139.5037298884963 21.461366000206908,139.21009748338474 21.29162140295375,139.26882411965926 21.20175661618123,139.66685816383688 20.71748526522424,140.08446381921385 20.472853345650947,140.55426548931428 20.03351438808022,140.88051372615155 19.898717207892332,141.45470480414588 18.830324742855737,142.2442054195999 18.346053391869646,142.51824367550944 17.94166185139329,142.61611407157397 17.59718016872648,142.90972396620418 17.152848722966155,143.0336920058253 16.788397087715566,143.5817570886211 16.848306945554214,143.98627697995835 16.384005547181005,144.4103664599279 16.21426094995695,144.7235376314893 15.994591471157037,144.75615950158317 15.724997110810364,144.95189021920305 15.345568011078285,144.98451192165885 15.03104125734535,145.19981455712696 14.651612157613272,145.18676594224962 14.566739859001245,145.0823768852788 14.177325782948174,145.04975525470945 14.087460996146547,144.95841456161725 13.673084479378304,144.94536587584662 13.398497630871134,145.19981455712696 13.049023460043827,145.1606687009953 12.959158673300408,145.23243607754193 12.39999999999418,146.0218695691401 12.669594360311748,146.30240867189787 13.173835663939826,146.51118080816013 13.503339882096043,146.79171682168453 13.658107014896814,147.28101958337356 14.297145498654572,147.87469969966332 14.481867560360115,147.8616518702438 14.53678493006737,148.05084502156024 14.626649716868997,147.992129991846 15.03104125734535,148.26613280012316 15.270680688758148,148.44880040034695 15.30562810585252,148.61189583746454 15.690049693715991,148.8858948242705 16.46388535766164,149.2120818915355 16.753449670621194,149.22512932442623 16.798382064007455,149.35560344262558 17.07296891248552,149.50564820497675 16.998081590194488,149.5904558900329 17.127886282192776,149.55131390164752 17.427435571473325,149.69483435714938 17.37251820176607,149.86444884334924 17.602172656886978,149.98187387760845 17.71699988443288,149.94273223400523 17.637120073952246,150.21672301536455 17.756939789658645,150.138440107341 17.756939789658645,150.30152934342914 18.09642898416496,150.7907934605937 18.515797989122802,151.30614583905117 18.6356177048292,151.26700536178396 18.925182017788757,151.58665158400618 18.795377325761365,151.65188522445533 18.840309719147626,152.01066853525117 19.01504680456128,151.8606322303749 19.35952848722809,152.08894814541782 19.679047729092417,151.84106224020434 20.013544435438234,151.8606322303749 20.158326591918012,151.9650053656478 20.353033629944548,151.91281882864132 20.582688085036352,152.05633165793915 20.89222235060879,151.94543542146494 21.041996995249065,152.19984402381306 21.22172656879411,152.19984402381306 21.30659886743524,152.38901870711925 21.681035479006823,152.1085180264272 21.830810123617994,152.58471580802143 22.270149081246927,152.62385512479523 22.424916214018594,152.72822646769418 22.55971339417738,152.65647119577625 22.584675834950758,153.0870010894614 22.474841095565353,153.21746387020175 23.13884202009649,153.46534209860692 23.193759389803745,153.76540336750622 23.358511498896405,153.71321894452922 23.7179706460156,153.93500231904545 23.832797873561503,154.14373860174237 23.812827920919517,154.6003458024752 23.89270773140015,154.77646446915242 24.36699410606525,154.95258243796707 24.3070842482266,155.39613571189693 24.676528371637687,155.52006892372447 24.936137755663367,155.91795742608883 25.295596902811667,155.98318470960294 25.68001849067514,155.6505245628614 26.16428984166123,155.7875025718713 26.673523633391596,156.07450274572693 26.913163064804394,155.98970743268364 27.172772448859178,156.04188918293949 27.80681844445644,156.381069066294 28.05644285219023,156.68111065180346 28.50576678608195,156.75938203666374 28.850248468719656,157.11160156293045 29.36946723680012,157.26162014325018 29.763873800984584,157.7638525751281 30.253137640131172,157.5420883048464 30.94709349356708,157.84864450374153 31.181740436819382,157.73776271841416 31.471304749778938,157.74428518404602 31.760869062738493,157.30727787156138 31.96556107705692,157.22248491024584 32.2251704611117,157.48990831575793 32.51473477407126,157.39859318745584 32.6994568357477,157.5094758188461 33.03395354209351,158.06388482687544 33.41837512998609,157.73776271841416 33.72790939555853,157.97909330884795 33.73789437187952,158.14215377689834 34.07239107822534,158.07692966144896 34.54168496472994,158.42261638270065 35.27558072342072,158.3639150534873 35.82974690859555,158.703077219001 36.3639431410993,158.8009119781418 36.86818444469827,159.1465930693048 36.863191956537776,159.23790460681994 37.11780885240296,159.3292159568009 37.22764359181747,159.3292159568009 37.23263607994886,159.21181561523917 37.34247081936337,159.17920435425185 37.70692245461396,159.21181561523917 37.821749682188965,159.074848158245 37.93158442157437,159.12050402413297 37.88165954002761,159.25094909687687 38.21615624637343,159.1531153282158 38.36093840285321,159.20529336495383 38.45080318962573,159.0683258878671 38.33597596210893,158.88570192855695 38.410863284399966,158.91831340490535 38.50072807117249,158.7487334667312 38.49573558301199,158.85961273026624 38.8402172656788,158.82700121089147 38.91011209983844,158.93135798872026 39.12478909047786,158.9378802792089 39.009961862902856,159.074848158245 39.079856697062496,159.23790460681994 39.81375245578238,159.4596604170838 39.79877499132999,159.54444911099927 39.89363226623391,159.42704933788627 39.923587195167784,159.48574926319634 40.00346700564842,159.3879160112956 40.817242574790725,159.17920435425185 40.97700219575199,159.0226699683808 41.50121345196385,158.93135798872026 41.815740205696784,159.10093723021055 42.18518432910787,159.1661598431274 42.79426788393175,159.69445948100838 43.67294579910231,160.0075229703907 43.88762278977083,160.2553633359057 44.15222466195701,160.21623073848605 44.81123309832765,160.7771280099696 45.26554952040897,160.82278212758683 45.335444354539504,160.7119077606003 45.8097307292046,160.95322220528396 46.10928001845605,160.88148020990775 46.538633999734884,160.99235415396106 46.788258407468675,160.84234816363096 48.690396394289564,160.84234816363096 48.82519357447745,160.76408396773695 49.28450248466106,160.84887017373694 49.64396163178026,160.77060598934258 50.31794753263239,160.92713422035013 50.6624292152992,161.1488816041856 51.28649023457547,161.01192011537205 51.82068646710832,161.28584267104452 52.15518317342503,161.33149626624436 52.76426672830712,161.1032278214734 53.36835779497051,161.2141012124739 53.787726799957454,161.01844210059426 54.127215994434664,161.12279373410274 54.21708078123629,160.86843619830688 54.666404715098906,160.82278212758683 54.70634462032467,160.5553787717654 55.485172772430815,160.38580507854567 55.595007511845324,160.1575317777315 55.59999999997672,159.87708011774885 55.47518779610982,159.69445948100838" stroke="#ff0000" stroke-linecap="round" stroke-linejoin="round" stroke-width="0.5"><title>2023-09-23 20.7km</title><desc>1695430086000</desc></polyline><polyline fill="none" points="78.39999999990687,136.28215265570907 78.98604651144706,131.17758930500713 90.45581395342015,132.11015799822053 90.790697674267,134.71152382029686 85.47441860451363,150.31940939844935 85.47441860451363,151.0556173196237 86.479069767287,151.59550237868098 121.5999999998603,151.6445828070282 115.36279069748707,161.50964247845695 113.31162790674716,162.73662513802992 109.12558139511384,167.44820809940575 106.02790697664022,167.79175913360086 103.55813953466713,167.25189310725546 101.29767441842705,168.82241069502197 84.93023255793378,168.72425350290723 83.17209302308038,168.03715257215663 83.29767441842705,164.74886960579897" stroke="#4dd2ff" stroke-linecap="round" stroke-linejoin="round" stroke-width="0.5"><title>2023-07-28 3.3km</title><desc>1690494902000</desc></polyline><polyline fill="none" points="144.4362416106742,133.72533455496887 154.80134228174575,134.7876915844099 157.3382550335955,134.3627491131192 171.79865771811455,136.06251627369784 187.5999999998603,140.991799956857 187.27382550318725,142.7765255359118 176.6550335569773,158.96617030873313 172.95838926173747,161.7706087390252 170.131543623982,165.3823563751066 165.38389261742122,165.08491957368096 164.622818792006,166.23217458231375 154.0040268455632,165.80726570566185 150.48859060415998,166.27466544506024 147.95167785231024,165.67979295409168 149.03892617463134,157.35148466707324 151.82953020115383,145.24113340696204 151.322147650877,144.3062839433842 152.55436241603456,140.22691511415178 144.61744966427796,139.8019784548087 144.39999999990687,138.65464720650925" stroke="#4dd2ff" stroke-linecap="round" stroke-linejoin="round" stroke-width="0.5"><title>2023-07-25 3.7km</title><desc>1690275373000</desc></polyline><polyline fill="none" points="15.490656700450927,198.9607669882389 15.83662573422771,198.20354484162817 15.81356113194488,195.95890873837925 12.630646022502333,195.74255721880763 12.400000000023283,194.55262055485218 15.79049652966205,179.05588902659656 28.01473571814131,178.94770606435486 29.306353443767875,179.51566610015288 30.321195942349732,179.05588902659656 40.65413774701301,179.13702621789707 43.744794447440654,182.89635422189895 45.243993593147025,184.08634569388232 46.55867592105642,186.38517700933153 50.664175120182335,191.33435473188 50.9178857448278,192.19977477430075 52.02498665242456,192.90292637975654 54.51596369466279,197.17588259038166 55.32322477316484,201.80032986188598 55.59999999997672,216.53850159262947 55.277095568715595,217.0522939356597 38.07090229575988,216.8630021411227 34.795728777418844,216.6737102050247 34.565082754939795,216.37625116237905 33.15814201824833,216.45737639052095 30.15974372671917,215.8354156439018 29.398611852666363,215.8354156439018 28.93731980782468,216.7548353377788 18.650507207843475,216.4032929079258 18.39679658296518,213.86135619571724 19.98825413780287,207.93908548208128 20.77245061402209,203.1524914621259 20.472610784927383,202.63867090498388 21.256807261146605,200.23181335582922 16.18259476777166,199.82616095332196 15.81356113194488,199.12302858209296" stroke="#4dd2ff" stroke-linecap="round" stroke-linejoin="round" stroke-width="0.5"><title>2023-07-22 6.4km</title><desc>1690017215000</desc></polyline><polyline fill="none" points="78.39999999990687,192.20606012601638 82.89220103994012,191.50375849404372 121.60000000009313,195.3664100410533 121.5251299822703,204.49624150595628" stroke="#4dd2ff" stroke-linecap="round" stroke-linejoin="round" stroke-width="0.5"><title>2023-07-19 1.5km</title><desc>1689754868000</desc></polyline><polyline fill="none" points="144.39999999990687,191.59437019083998 144.90653266315348,187.43692157199257 145.55778894480318,187.09753608921892 154.96482412074693,187.86115301738027 155.398994974792,188.582345434319 158.11256281402893,187.73388363138656 169.76281407033093,188.37023015361046 172.98291457281448,189.81261182780145 178.12060301518068,191.25498826193507 178.30150753771886,190.87318324518856 180.61708542727865,192.10344254015945 183.80100502516143,192.57009162037866 184.4522613065783,193.2488529396942 187.52763819112442,193.41854308822076 187.12964824121445,194.0548804991704 187.60000000009313,194.26699274295243 187.20201005018316,194.3942600347218 187.5638190957252,196.89717515045777 184.01809045230038,201.60600658672047 183.94572864309885,203.55739784255275 183.65628140699118,203.1331831679272 179.27839195984416,206.8238356561924 175.00904522603378,205.12698819767684 172.07839195989072,205.97541283332976 171.1376884423662,205.7208856329671 170.12462311564013,206.65415123658022 167.5919597989414,205.33909452651278 166.68743718601763,206.39962447129074 165.0231155778747,205.4239370263531 163.93768844217993,206.65415123658022 162.67135678394698,205.04214563436108 163.3587939699646,207.03594107858953 163.2502512561623,208.90246391075198 161.80301507539116,206.5693089996348 159.84924623114057,205.25425200851168 158.94472361798398,205.2118307428027 158.51055276370607,206.0178340174607 157.3527638190426,205.4239370263531 156.44824120611884,206.2723610275425 155.6160804021638,205.67846441705478 154.8924623115454,206.18751870898996 152.43216080404818,204.9997243458638 151.63618090446107,205.5087795080326 151.09346733684652,204.44824718378368 152.3236180904787,203.89676925577805 151.78090452286415,198.0001496844925 151.12964824121445,196.9820194541535 152.25125628151,198.1274157797743 152.10653266333975,196.9395973046485 153.5537688441109,195.2002852689766 151.85326633183286,195.03059588200995 149.35678391950205,192.57009162037866 150.00804020115174,193.20643039111746 149.0673366833944,193.84276814214536 146.1366834170185,193.5033881351701" stroke="#4dd2ff" stroke-linecap="round" stroke-linejoin="round" stroke-width="0.5"><title>2023-07-17 3.6km</title><desc>1689586843000</desc></polyline><polyline fill="none" points="12.399999999906868,232.23998973041307 12.615999999921769,228.56765003927285 13.084000000031665,228.06111774759484 19.88799999980256,228.14553984132363 22.94800000009127,228.69428301075823 23.128000000026077,229.2008144905849 26.152000000001863,228.8631269094767 31.55199999990873,229.79176706291037 33.38800000003539,229.58071267421474 35.00799999991432,230.3827187511488 36.33999999985099,230.00282133877045 40.22799999988638,233.12641143787187 41.919999999925494,230.55156192817958 42.5679999999702,231.31135533220368 45.73600000003353,231.94451538595604 52.28800000017509,236.08113609754946 54.84400000004098,234.94145920401206 55.5999999998603,235.23693130695028 55.23999999999069,237.43186001037247 49.65999999991618,245.11401443972136 50.16400000010617,245.0295959719806 49.65999999991618,246.5491256308742 48.364000000059605,247.35109726141673 47.21199999982491,249.4193323747022 45.84400000004098,250.01025470418972 46.27599999983795,250.68559342704248 45.59199999994598,251.5719737490581 46.023999999975786,251.86743341447436 45.01600000006147,253.55577012113645 43.79199999989942,252.96485309433774 43.9000000001397,254.82201791656553 42.28000000002794,255.91942938999273 42.027999999932945,258.1986588649452 38.7160000000149,259.88696851796703 37.420000000158325,263.22135888948105 36.01600000006147,263.93888225243427 35.079999999841675,263.47460257812054 33.42399999988265,259.29606096007046 32.77600000007078,260.18242196564097 32.019999999785796,260.1402143437299 25.359999999869615,257.8609960687172 23.344000000040978,259.8447608645074 20.10399999981746,260.09800671733683 17.511999999871477,259.54930716444505 16.035999999847263,255.91942938999273 18.520000000018626,249.0394532675855 18.699999999953434,245.83157068691798 19.67199999978766,244.43866619301843 19.67199999978766,240.4287622013071 20.5,239.1202584069688 20.139999999897555,238.10722023487324 20.967999999877065,236.88312897781725 21.148000000044703,233.97062073857524 19.131999999983236,234.22388317695004 17.187999999849126,233.67514768845285 15.819999999832362,234.85703856270993 15.747999999905005,234.01283115622937 13.300000000046566,233.4640953745693 12.471999999834225,232.6620955533872" stroke="#4dd2ff" stroke-linecap="round" stroke-linejoin="round" stroke-width="0.5"><title>2023-07-14 4.3km</title><desc>1689326523000</desc></polyline><polyline fill="none" points="78.39999999990687,232.8840519907244 79.11940049938858,228.70865905538085 86.42131557012908,228.91953854559688 89.65861781826243,229.8895827490196 91.09741881745867,229.3834730272938 95.70158201479353,229.59435215685517 104.7300582844764,228.16037185391178 105.16169858421199,231.19702985987533 109.87377185653895,231.66096166451462 110.70108243101276,232.25141953662387 110.30541215627454,232.4201216235815 110.91690258099698,232.08271737757605 114.04629475413822,233.05275380716193 114.87360532861203,233.8962618082005 120.3050791004207,235.2880460691522 121.42014987487346,236.25807462164084 121.5999999998603,237.8607252680813 120.77268942538649,239.58989366790047 116.06061615305953,245.0303984930215 115.55703580309637,247.1812750674144 114.69375520362519,246.928231372789 114.15420482913032,245.87388089927845 113.90241465414874,247.22344900068128 113.39883430465125,247.47649250610266 112.96719400468282,246.6751875160262 112.31973355496302,249.12127133723698 112.49958367994986,251.0612580733141 111.16869275574572,252.66384862092673 109.83780183177441,252.53732855126145 109.76586178154685,254.22425948214368 107.75154038285837,258.3993825374346 105.55736885895021,260.17063352427795 104.04662780999206,260.5080137635814 102.03230641130358,263.46007855946664 101.42081598634832,262.1949106355605 100.05395503737964,263.8396281460591 100.01798501214944,261.22494581498904 98.43530391319655,260.2549786111922 96.67277268925682,260.55018627326353 94.19084096560255,259.70673522440484 89.91040799324401,262.23708296506084 87.86011656932533,260.7610487539205 86.63713572011329,260.718876266852 84.58684429642744,262.82749510431313 83.36386344698258,262.1527383016655 82.89625312224962,262.7431505670247 82.82431307225488,254.8990298359422 82.17685262253508,254.26643266298925 84.47893422143534,251.82038072269643 83.6516236467287,251.94690102231107 83.36386344698258,251.35647261046688 84.19117402168922,250.97691102215322 83.93938384670764,249.45866101971478 85.16236469591968,246.63301352408598 84.73072439595126,246.1690993157099 85.27027477091178,245.74735865325783 86.02564529539086,239.25249555060873 86.63713572011329,239.25249555060873 86.63713572011329,238.0294249576691 87.64429641957395,236.8063505750033 86.99683596985415,234.65541746804956" stroke="#4dd2ff" stroke-linecap="round" stroke-linejoin="round" stroke-width="0.5"><title>2023-07-13 4.2km</title><desc>1689241498000</desc></polyline></svg>