<?xml version="1.0" encoding="utf-8" ?>
<svg baseProfile="full" height="300mm" version="1.1" viewBox="0,0,200,300" width="200mm" xmlns="http://www.w3.org/2000/svg" xmlns:ev="http://www.w3.org/2001/xml-events" xmlns:xlink="http://www.w3.org/1999/xlink"><defs /><rect fill="#222222" height="300" width="200" x="0" y="0" /><text fill="#FFFFFF" style="font-size:12px; font-family:Arial; font-weight:bold;" x="10" y="20">Over 10km Runs</text><text fill="#FFFFFF" style="font-size:4px; font-family:Arial" x="10" y="280">ATHLETE</text><text fill="#FFFFFF" style="font-size:9px; font-family:Arial" x="10" y="290">jerryu</text><text fill="#FFFFFF" style="font-size:4px; font-family:Arial" x="120" y="280">STATISTICS</text><text fill="#FFFFFF" style="font-size:3px; font-family:Arial" x="120" y="285">Number: 6</text><text fill="#FFFFFF" style="font-size:3px; font-family:Arial" x="120" y="290">Weekly: 1.0</text><text fill="#FFFFFF" style="font-size:3px; font-family:Arial" x="141" y="285">Total: 61.9 km</text><text fill="#FFFFFF" style="font-size:3px; font-family:Arial" x="141" y="290">Avg: 10.3 km</text><text fill="#FFFFFF" style="font-size:3px; font-family:Arial" x="167" y="285">Min: 10.0 km</text><text fill="#FFFFFF" style="font-size:3px; font-family:Arial" x="167" y="290">Max: 11.8 km</text><polyline fill="none" points="14.06717984599527,88.96803478388756 14.268719384155702,88.8315175746684 14.167949615046382,87.36882701193099 14.419874037790578,86.7252395839023 14.06717984599527,85.55507501804095 14.52064380684169,85.18452139754663 14.167949615046382,83.78031162143452 14.319104268681258,81.83000298478873 14.050384884583764,80.44527165418549 14.251924422685988,76.01796407616348 14.0,73.75551141085452 14.117564730579033,71.23947625400615 15.830650804797187,64.04226076362829 16.53603918827139,63.2815634575818 19.491952414275147,63.7106751343963 21.121063680911902,64.43236076008179 21.574527641700115,63.827705422838335 22.027991602488328,60.570335366850486 23.136459062283393,58.79533766230452 24.84954513644334,57.93709104228765 28.27571728482144,58.91237099071441 28.796361091721337,58.7173154031625 28.77956613013521,56.96180606703274 28.326102169346996,55.22578637316474 27.284814555605408,53.860366434717434 26.88173547940096,52.53394905915775 26.478656403080095,52.397405566080124 26.44506648008246,51.89024315786082 25.588523442973383,51.03196521612699 28.292512246291153,51.227028726556455 29.972008397453465,51.753699200300616 31.198040587827563,52.70950483389606 32.32330300909234,54.28949947709043 33.213435969199054,54.816161426206236 36.68999300210271,54.40653559245402 38.03358992305584,54.89418529404793 39.528341497527435,56.18157446735131 40.46885934221791,56.57169066935603 43.827851644542534,56.68872537306743 44.701189643121324,57.15686346415896 45.843247025914025,58.541765202448005 46.649405178497545,58.30769801484712 47.87543736875523,57.195874919518246 46.884534639597405,58.15165306221752 46.04478656401625,58.541765202448005 46.447865640278906,59.1074263772025 47.28761371586006,58.85385433558258 49.21903428970836,59.22445951256668 49.75647305807797,58.30769801484712 50.226731980394106,58.15165306221752 54.593421973404475,58.50275402465195 56.22253324004123,59.517042034334736 57.49895031488268,59.61456944106612 59.497550734784454,58.9708876277582 63.20923722884618,59.06841531601094 67.00489853043109,58.15165306221752 71.03568929323228,58.87335988935956 72.66480055986904,59.77061318728374 74.14275717287092,60.18022740878223 76.07417774671922,60.18022740878223 77.50174947519554,59.40000907998183 77.31700489850482,59.63407491635007 77.60251924418844,60.27775447368913 78.81175647303462,60.00467856529576 79.04688593419269,60.882421154223266 79.95381385582732,61.467580618322245 80.52484254719457,62.87195594931836 80.2897130860365,63.41809909665608 81.36459062277572,62.18927479854028 81.98600419878494,61.994222588822595 82.70818754372885,62.3063060278364 82.59062281314982,62.63789411789912 80.86074177746195,63.65215996305051 80.77676696993876,64.58840053346648 80.47445766266901,64.52988563349936 80.35689293214818,64.91998462470656 84.74037788662827,71.23947625400615 85.61371588526526,73.09237360785482 86.0,75.70590324743534 85.8152554234257,77.5392532483238 85.04268719383981,79.72364708647365 83.56473058083793,81.51795173813298 81.23023093072698,83.03919670659525 78.72778166551143,83.89732950059988 70.24632610217668,84.03385026824253 63.0580825752113,83.56577865501458 62.386284114734735,83.91683247344918 60.25332400278421,83.74130564562802 55.567529741092585,84.07285618376045 51.21763470955193,83.62428766999801 50.36109167244285,83.97534137988987 48.715185444336385,83.7022996617743 47.74107767670648,83.81931758915016 47.72428271517856,84.61893815721851 48.110566829913296,84.87247568080784 47.15325402375311,85.14551571106131 45.97760671802098,84.9309842918592 43.40797760669375,84.98949288485164 43.08887333795428,85.28203557849338 42.19874037790578,85.0480014597706 38.90692792163463,85.24302991213335 37.44576627010247,84.73595551797189 32.508047585666645,84.83346993006126 28.762771168665495,86.1986664243741 28.796361091721337,85.96463343888172" stroke="#4dd2ff" stroke-linecap="round" stroke-linejoin="round" stroke-width="0.5"><title>2023-09-10 11.8km</title><desc>1694335282000</desc></polyline><polyline fill="none" points="114.42491803283338,94.0567765791784 121.62491803278681,93.81006260574213 121.57770491798874,92.5490765022987 122.87606557365507,87.66955222989782 123.4898360655643,83.00924886835855 123.20655737700872,81.44665828990401 123.70229508192278,75.55259368167026 123.04131147544831,74.59308243199484 124.0091803278774,66.99911416685791 123.6314754098421,64.99777957456536 124.31606557383202,64.12047747187898 125.14229508198332,59.103350480058 126.2518032786902,57.2938716224744 128.84852459013928,55.566630319779506 133.90032786887605,56.93745766900247 134.49049180326983,56.553626723383786 134.49049180326983,53.81196100273519 134.06557377043646,52.22178193455329 132.43672131141648,50.00099870393751 131.8465573770227,48.081788381328806 131.23278688522987,47.835031763563165 131.09114754095208,47.03992554877186 129.9816393442452,45.94322342079249 133.97114754095674,46.32706968006096 135.78885245893616,46.848003002873156 137.74819672119338,48.1914579157019 139.4006557377288,50.49450769109535 140.55737704911735,51.28960357760661 141.6432786884252,51.481522918184055 145.53836065577343,50.76867895494797 147.3796721311519,51.399271789123304 149.52786885236856,53.20879075129051 150.99147540982813,53.89421138560283 155.54754098365083,53.921628174197394 157.1763934425544,54.77154721986153 159.2773770490894,57.32128806062974 160.78819672134705,57.04712355171796 163.29049180319998,57.5680358770187 164.16393442626577,56.553626723383786 164.84852459013928,56.3342945058248 169.23934426228516,56.772958760207985 172.54426229500677,58.77435523981694 174.24393442622386,59.21301546972245 180.5468852458289,58.52760854252847 183.85180327866692,58.5824411616486 184.6544262294192,60.55640792346094 184.30032786878292,61.81754568478209 184.89049180329312,63.87373573411605 184.67803278693464,65.38159833458485 186.0,67.1087759010843 185.43344262300525,67.62966852157842 184.39475409837905,67.71191463150899 174.8813114754157,67.76674535739585 174.66885245905723,68.45212847707444 173.70098360651173,69.30200109278667 173.11081967211794,75.00430196279194 171.57639344257768,76.04605526238447 169.59344262292143,76.45727254712256 168.9088524589315,77.91023519562441 169.07409836072475,79.41801823268179 168.55475409829523,79.82923030515667 168.50754098361358,80.54199639166472 167.96459016390145,80.89837871884811 161.82688524585683,81.17251864567515 160.9062295081094,82.02235062347609 160.6229508195538,81.7207976517675 160.33967213111464,82.4609725176706 160.5993442623876,86.10698902324657 160.36327868851367,91.97340694643208 157.36524590163026,92.63131490864907 141.50163934426382,92.71355328950449 136.09573770489078,92.27494829773786 122.09704918030184,92.65872770507121 121.69573770498391,92.1927097812295 122.49836065573618,88.4371237771411 122.16786885249894,87.34059231748688 118.76852459006477,86.92939185490832 114.0,87.477658997057 114.02360655739903,92.00081981066614 115.1331147539895,92.65872770507121 119.92524590156972,92.96026827965397 120.70426229515579,92.57648930724827" stroke="#4dd2ff" stroke-linecap="round" stroke-linejoin="round" stroke-width="0.5"><title>2023-08-27 10.1km</title><desc>1693140460000</desc></polyline><polyline fill="none" points="34.45717510173563,161.74599600865622 34.37098568456713,161.17882424639538 34.37098568456713,160.07784093081136 34.256066461559385,159.21039689375903 34.31352607323788,158.40967725845985 34.256066461559385,156.8082320469548 34.3422558788443,156.0742336777912 34.71574335335754,155.54041563690407 34.80193277052604,155.24014260215336 34.77320296468679,153.27167914400343 34.83066257624887,152.60440067926538 34.77320296468679,152.10394092823844 34.91685199330095,151.4700241329847 34.9455817991402,150.93619850071263 34.8593923819717,149.70172335463576 34.74447315908037,149.40144490468083 34.48590490757488,149.03443753204192 34.31352607323788,148.9343445400882 33.968768404447474,148.86761586155626 33.193063649814576,148.73415846316493 32.15879064355977,148.66742974336375 27.992968813166954,148.66742974336375 27.590751533047296,148.60070100979647 27.332183281425387,148.30042153864633 27.274723670096137,148.00014178897254 27.389642892871052,147.19939442825853 27.763130367384292,143.59600679489085 27.73440056166146,142.5283286825579 27.96423900744412,140.45969231927302 28.050428424729034,139.32527321766247 27.96423900744412,139.0249851429544 27.61948133877013,138.72469678972266 27.36091308714822,138.39104273723206 27.274723670096137,138.12411924763 27.24599386425689,137.75709909002762 27.274723670096137,137.39007851626957 27.36091308714822,137.08978864646633 27.791860173107125,136.58930491106003 27.84931978455279,136.48920807125978 27.992968813166954,135.4882379695482 28.079158230451867,134.62072804447962 28.107888036058284,133.68648398676305 28.33772648195736,132.51867512287572 28.33772648195736,131.75125557553838 28.538835121900775,130.65017217746936 28.682484150631353,130.34987605531933 29.630567739601247,128.71492561351624 30.320083077182062,127.7806645105884 30.751030162908137,127.34689951047767 31.06705802597571,127.14670008354005 31.469275306211784,127.01323373024934 32.70465695229359,126.37926780010457 33.451631901203655,125.91213421500288 33.73892995866481,125.81203407328576 35.6350971366046,126.3125344721484 36.698099948465824,126.5127344149223 38.07713062339462,126.97986713334103 39.48489110392984,127.31353294794098 39.74345935555175,127.31353294794098 39.97329780133441,127.21343323966721 40.14567663567141,127.04660032369429 40.23186605295632,126.91313392904704 40.26059585856274,125.17806579053286 40.20313624723349,123.81002473906847 40.00202760717366,122.74228136439342 39.62854013266042,121.57443301510648 39.111403629533015,120.64015130174812 38.33569887501653,119.67249954133877 37.81856237188913,118.83831466746051 37.387615285930224,117.77055489140912 36.98539800569415,116.60268860313226 36.89920858852565,116.50258558226051 36.55445091985166,116.40248253050959 36.41080189112108,116.26901174665545 36.29588266822975,116.03543774251011 36.20969325106125,115.53492145164637 36.03731441672426,115.26797911344329 34.83066257624887,114.46715077760746 34.74447315908037,114.1668396408204 34.80193277052604,114.0 34.97431160497945,114.0 35.692556748050265,114.20020755863516 37.15777684014756,114.40041499349172 38.795375766581856,114.36704709634068 39.85837857844308,114.46715077760746 41.12249003036413,114.70072591357166 41.58216692204587,114.86756519318442 42.73135915119201,115.40145031004795 43.392144682933576,115.80186356979539 43.708172545884736,116.03543774251011 44.68498594057746,117.03646800215938 45.11593302653637,117.57034954125993 46.29385506128892,119.37219323444879 46.638612729962915,119.77260158176068 47.09828962164465,120.13964213177678 47.902724182000384,120.50668226549169 48.41986068512779,120.60678404787905 48.96572699397802,120.60678404787905 49.65524233132601,120.54004952969262 50.37348747451324,120.3398458926822 51.321571063483134,120.00617288902868 51.608869120827876,120.00617288902868 51.66632873227354,120.1062748261902 51.75251814944204,120.43994772655424 51.867437372216955,120.60678404787905 52.24092484684661,120.74025304295355 52.5856825155206,120.64015130174812 52.81552096141968,120.67351855229936 54.309470859123394,121.60780016932404 55.20009483664762,122.40861083738855 56.06198900844902,123.54308922562632 56.57912551157642,124.07696003251476 56.95261298608966,124.34389510570327 58.10180521500297,124.9778650221997 59.04988880420569,125.17806579053286 59.94051278172992,125.21143257329823 60.831136759137735,125.07796542189317 61.34827326226514,124.91113140524249 62.29635685123503,124.51072941461462 62.928412577253766,124.37726197441225 63.330629857373424,124.37726197441225 63.84776636050083,124.6108299587795 65.42790567548946,125.71193390068947 66.37598926445935,126.07896771570086 69.22024003136903,126.87976732183597 69.56499770015944,127.04660032369429 70.16832362045534,127.58046535195899 70.51308128912933,127.74729799269699 70.94402837508824,127.7806645105884 72.00703118694946,127.48036572628189 72.49543788435403,127.5137322715891 72.7252763301367,127.58046535195899 72.75400613585953,127.71393147145864 72.66781671869103,128.6148263386567 72.32305904990062,130.5500735010428 71.37497546093073,135.0544832976302 71.03021779214032,136.0888204019575 70.74291973502841,137.69036810754915 70.77164954075124,139.65892630731105 70.65673031785991,139.95921379394713 70.34070245490875,140.35959667613497 70.0534043974476,140.52642273096717 69.56499770015944,140.6598835128534 68.04231799673289,140.69324869973934 67.32407285342924,140.79334423976252 65.65774412127212,140.82670941282413 63.76157694333233,140.69324869973934 62.0952482111752,140.8600745825679 59.911782975890674,140.89343974879012 58.82005035830662,140.79334423976252 57.95815618650522,140.82670941282413 57.69958793488331,140.92680491163628 57.58466871199198,141.0602655284456 57.46974948910065,141.7275677874277 56.95261298608966,142.42823367897654 56.866423568921164,142.6284236551146 56.83769376319833,143.8962906295783 57.01007259741891,144.89723473359481 56.981342791812494,146.43200968229212 57.15372162614949,147.93341291786055 57.01007259741891,148.5673366379633 57.23991104331799,149.36808061529882 57.55593890626915,149.93527306761825 58.10180521500297,151.3032037174562 59.10734841553494,152.93804008356528 60.63002811896149,155.87405201559886 61.03224539931398,156.44123307039263 61.66430112533271,157.8091362324194 63.129521217313595,160.44483578536892 63.84776636050083,162.0796259928611 64.02014519483782,162.680159098265 63.933955777669325,163.44750533410115 63.99141538911499,164.04803590246593 63.96268558339216,164.44838899598108 64.04887500067707,165.249093697872 64.07760480628349,167.3842965560907 64.02014519483782,168.25171869550832 64.07760480628349,169.1191385112179 64.07760480628349,170.9540573876584 64.19252402929123,172.255175381375 64.24998364062048,174.15679996812833 64.22125383489765,174.49041716521606 63.99141538911499,175.32445865430054 63.933955777669325,175.79152094986057 63.99141538911499,176.5254746247956 63.933955777669325,177.42623367949273 63.99141538911499,177.92665429384215 63.96268558339216,178.32699022864108 63.79030674905516,179.02757692354498 63.18698082875926,180.62891224914347 62.75603374291677,181.49629891104996 61.77922034810763,183.03090039096423 61.089705010759644,184.26524847818655 60.57256850763224,185.49959186086198 60.31400025601033,185.7664762979257 60.05543200450484,185.93327895947732 59.653214724268764,186.0 59.48083588993177,185.93327895947732 59.4233762784861,185.86655790518853 58.93496958119795,184.66557657718658 58.331643660902046,183.4312300157908 57.98688599222805,182.89745707265683 57.527209100546315,182.26360055996338 57.64212832355406,181.62974280669005 57.64212832355406,181.26277196142473 57.527209100546315,180.99588381280773 57.297370654763654,180.69563438254409 56.83769376319833,180.29530137599795 56.63658512302209,180.0284124299651 56.26309764850885,178.86077070509782 56.033259202726185,178.52715801034356 55.63104192249011,178.06009966041893 55.14263522508554,176.89245083834976 54.740417944965884,176.49211313016713 54.108362219063565,176.09177492707386 53.18900843570009,175.82488251666655 52.7580613498576,175.85824408003828 50.89062397752423,177.15934236886096 50.545866308850236,177.45959507778753 50.31602786295116,177.72648614092031 49.94254038867075,178.36035153412377 49.62651252571959,179.3611891026958 49.59778271988034,179.8616067271505 49.71270194277167,180.62891224914347 49.77016155421734,180.8290786081052 50.37348747451324,181.86326949170325 50.66078553174157,182.19687874961528 51.58013931510504,182.7640136994014 52.61441232112702,183.1977044614614 53.01662960136309,183.4312300157908 53.33265746443067,183.49795157185872 54.050902607501484,183.46459079557098 55.5161226997152,183.06426121189725 56.090718814288266,183.03090039096423 56.49293609440792,183.0976220293669 56.923883180250414,183.297786862473 57.32610046048649,183.63139464263804 57.90069657494314,184.26524847818655 58.13053502084222,184.39869123286917 58.331643660902046,184.39869123286917 58.50402249523904,184.29860917196493 58.59021191240754,184.131805668585 58.61894171824679,183.93164135102415 58.50402249523904,183.5980338800873 58.04434560367372,182.89745707265683 56.32055726007093,181.26277196142473 55.9470697856741,180.69563438254409 55.68850153405219,180.12849581055343 55.63104192249011,179.79488442180445 55.602312116883695,178.79404819363845 55.458663088153116,178.06009966041893 55.228824642370455,177.1927037948335 54.99898619658779,176.72564352009795 54.62549872219097,176.32530560568557 54.28074105340056,176.0584133877419 53.27519785286859,175.65807464846876 52.78679115558043,175.1910121604742 52.7580613498576,174.9908423164743 52.78679115558043,174.79067234887043 53.41884688148275,173.55628814719967 53.67741513310466,172.75560398690868 53.67741513310466,172.55543263745494 53.447576687322,172.15508956747362 53.303927658707835,172.05500372266397 53.160278629977256,172.02164176746737 50.40221728023607,172.05500372266397 48.936997188138776,172.02164176746737 47.61542612465564,172.15508956747362 46.351314672851004,171.98827980892383" stroke="#4dd2ff" stroke-linecap="round" stroke-linejoin="round" stroke-width="0.5"><title>2023-08-18 10.0km</title><desc>9672827939</desc></polyline><polyline fill="none" points="185.47464429039974,125.12933440940105 185.4483765049372,125.80034656418138 185.5534476469038,126.71536068854039 185.52717986144125,127.5388709832041 185.57971543236636,128.3318787322496 185.57971543236636,128.57588068940095 185.4483765049372,129.0333838170336 185.42210871947464,129.24688503475045 185.63225100329146,130.13138843991328 185.65851878887042,130.98538922090665 185.73732214525808,131.59538827106007 185.71105435979553,132.20538606471382 185.78985771618318,132.90688197416603 185.73732214525808,133.882873518829 185.84239328710828,135.49935243965592 185.84239328710828,137.08532318362268 185.73732214525808,138.00030244191294 185.7635899306042,138.61028704361524 185.81612550176214,139.18977125172387 185.78985771618318,140.6232273161586 185.73732214525808,140.95871603151318 185.65851878887042,141.08071183381253 185.13316307927016,141.53819564467994 184.73914629698265,141.6296923220798 183.7672382342862,141.6296923220798 184.08245166006964,141.56869454029948 184.45020065677818,141.5991934327758 184.76541408256162,141.69069009140367 184.97555636637844,141.87368332364713 185.08062750822864,142.0261775975523 185.23823422112036,142.63615390798077 185.7635899306042,143.30712639854755 185.97373221453745,144.58806965959957 185.86866107268725,145.4420287561079 185.8949288581498,147.27193281511427 185.97373221453745,148.03438950303826 185.86866107268725,149.55929699109402 185.86866107268725,151.2671840575349 185.7635899306042,153.0055589947442 185.57971543236636,153.82899619368254 185.92119664361235,156.116309735924 186.0,157.03123020764906 186.0,158.12913104350446 185.86866107268725,158.98305110260844 185.92119664361235,159.7149806227535 185.8949288581498,160.32492050805013 185.65851878887042,161.54479651109432 185.36957314854953,162.45970021685935 185.1594308646163,163.34410444655805 184.3713973002741,165.69233734780573 183.89857716159895,167.55261253661592 183.5308281648904,168.74196268324158 182.84786574239843,170.48023507802282 182.79533017147332,171.09015279944288 182.29624224745203,172.7369243753783 181.4031375410268,175.57300952199148 181.16672747186385,176.45737460654345 181.00912075897213,176.85381327025243 180.82524626050144,177.15876572753768 180.0634804816218,177.76866970048286 179.69573148491327,177.89065034445957 178.51368113828357,177.9516406476032 177.41043414815795,178.10411635047058 176.56986501277424,178.13461148162605 174.04815760673955,178.4395626207115 171.76286026998423,178.6225331534224 170.3181320686126,178.6225331534224 169.84531192993745,178.6835233059246 169.45129514776636,178.80550357318134 167.2973367384402,178.9579788367264 163.7774534841301,179.32391914894106 161.93870850058738,179.4458991525171 161.09813936520368,179.53738412237726 159.9686245896155,179.56787910597632 157.8409339656355,179.84233381756349 157.18423932872247,179.81183886222425 156.0021889822092,179.96431360777933 154.76760306453798,179.9948085474607 153.66435607441235,179.4458991525171 153.2966070777038,179.11045402174932 151.43159430869855,175.5425141271844 151.0113097409485,174.65814631205285 150.43341846042313,173.65179351801635 149.8817949653603,172.37097592733335 149.7241882524686,171.79155662673293 149.19883254298475,171.21213619309128 148.80481576069724,170.44973915902665 148.59467347688042,170.1447797960427 148.56840569130145,170.17527574650012 148.56840569130145,170.26676357889664 148.93615468801,170.99866522129741 149.01495804451406,171.27312787101255 148.64720904780552,172.15750579055748 148.51587012049276,172.3404802029836 148.38453119294718,172.43196736674872 146.30937614000868,173.13336801738478 145.0747902225703,173.62129792544874 141.2659613279393,174.9326055716083 139.47975191532169,175.60350491371355 136.09120758844074,176.64034636341967 135.11929952574428,176.7623274718062 133.38562568405177,176.7623274718062 129.26158336375374,176.5793557902798 128.28967530094087,176.48786990717053 125.5315578256268,176.48786990717053 119.43743159424048,176.2439074140566 117.15213425748516,176.2134120882547 115.10324699012563,176.12192609213525 114.52535570960026,176.06093541232985 114.34148121112958,175.847467934218 114.21014228381682,175.5425141271844 114.21014228381682,175.20706457697088 114.34148121112958,174.29220023701782 114.47282013855875,173.98724482918624 115.20831813197583,173.46881991554983 115.31338927394245,173.3468374510121 115.3921926303301,173.1638636602147 115.60233491426334,171.7305650555645 115.57606712880079,171.4256070111005 115.339657059405,170.44973915902665 115.36592484486755,169.90081207969342 115.52353155764285,169.56535614162567 115.91754833993036,168.98593135399278 116.33783290768042,168.3150170260633 116.49543962057214,167.88807075365912 116.60051076242235,167.24765019139159 116.73184968985151,165.99730129409 117.15213425748516,163.64907081006095 117.09959868644364,163.16112447777414 116.81065304623917,162.09373907363624 116.65304633334745,160.44690833435743 116.20649398025125,159.41001020907424 116.02261948189698,158.64758280149545 115.89128055446781,157.70217009086628 115.75994162703864,157.2447112443624 115.54979934322182,156.9092409746372 115.2871214884799,156.63476501681725 114.97190806269646,156.48227826372022 114.4990879240213,156.32979143207194 114.3940167821711,156.23829929542262 114.21014228381682,155.93332530246698 114.02626778546255,155.41486879394506 114.0,155.0488989475125 114.07880335650407,154.77442126587266 115.05071141920052,152.9445635555894 115.31338927394245,152.30411068638205 115.2345859175548,152.1516217039316 114.65669463691302,151.81614566623466 114.44655235321261,151.60266071709339 114.34148121112958,151.3586777296441 114.26267785474192,151.05369871275616 114.26267785474192,150.7792173291673 114.31521342578344,150.59622959871194 114.47282013855875,150.35224578229827 114.68296242237557,150.19975579497986 115.47099598683417,149.98626968089957 115.65487048518844,149.89477558483486 117.04706311563496,147.8818983224046 118.28164903318975,145.96050272064167 119.91025173291564,143.70360942851403 121.27617657778319,141.69069009140367 122.35315578244627,139.86075154982973 123.11492156144232,138.2137971954653 124.638453119318,134.79786267093732 126.34585917543154,131.19888903136598 126.42466253193561,131.0768891585176 126.52973367378581,131.04638918244746 126.89748267049436,131.29038890299853 127.05508938326966,131.32088885398116 127.29149945266545,131.1683890678978 127.63298066391144,130.71088923842763 128.4998175847577,129.0333838170336 128.6574242976494,128.94188324810239 129.23531557817478,128.7893822369515 130.469901495846,128.85038265076582 133.6483035387937,128.728381810477 136.53775994165335,128.75888202522765 138.6917183509795,128.63688114722027 139.74242977018002,128.63688114722027 140.13644655235112,128.57588068940095 140.3728566216305,128.39287924038945 140.50419554905966,128.14887713248027 140.58299890556373,127.84387421485735 140.58299890556373,126.1053515864769 140.68807004729751,125.70884499626118 140.74060561833903,125.37333900519297 140.74060561833903,124.73282651233603 140.63553447648883,122.96378481105785 140.66180226195138,122.04875909461407 140.63553447648883,121.53024326686864 140.68807004729751,120.95072450264706 140.63553447648883,120.0051914525684" stroke="#4dd2ff" stroke-linecap="round" stroke-linejoin="round" stroke-width="0.5"><title>2023-07-14 10.0km</title><desc>9449702407</desc></polyline><polyline fill="none" points="80.66866035014391,194.0 80.98172873223666,194.64319131401135 81.0780574651435,195.06266308904742 81.02989309863187,195.4262047696102 81.02989309863187,195.59399307344574 81.294797114213,197.1320476917026 81.39112584723625,197.41169304962386 81.70419422921259,197.85912502306746 81.7523585956078,198.13876963200164 81.77644077886362,199.14548783862847 81.68011204607319,200.68352233388578 81.63194767944515,200.93519987625768 81.4874545801431,201.46651836589444 81.41520803037565,201.88597959687468 81.46337239688728,202.55711621817318 81.41520803037565,203.78752904789872 81.39112584723625,203.9273483347206 81.34296148072463,203.9273483347206 82.11359134421218,204.01123987225583 82.5952350088628,204.12309521535644 83.19728958979249,204.34680576319806 83.84750853711739,204.40273337144754 84.01608381979167,204.48662476203754 83.99200163653586,204.57051612675423 83.77526198746637,204.68237123946892 83.70301543769892,204.79422630593763 83.51035797188524,205.43739204411395 83.10096085688565,205.96870172201307 83.02871430711821,206.19241074897582 83.10096085688565,206.8635367237439 83.10096085688565,208.34560070722364 83.24545395630412,209.01672135901754 83.17320740653668,210.24710491171572 83.19728958979249,211.30970440158853 83.14912522328086,211.86896562040783 83.17320740653668,212.40026271124952 83.26953613955993,213.15526205173228 83.26953613955993,213.6306309296633 83.17320740653668,214.44155238877283 83.17320740653668,214.74914265336702 83.24545395630412,215.1685833617812 83.26953613955993,215.92357500386424 83.46219360549003,216.23116358945845 83.60668670479208,216.67856454642606 83.63076888793148,216.9302272607456 83.55852233839687,217.76910129043972 83.19728958979249,218.44019864793518 83.14912522328086,218.66389739853912 83.17320740653668,219.11129434680333 83.14912522328086,222.01935654025874 83.26953613955993,222.91413864129572 83.19728958979249,223.44541411864338 83.17320740653668,226.63304515284835 83.24545395630412,227.47188920542249 83.26953613955993,228.81403429928469 83.53444015514106,230.04432814088068 83.51035797188524,230.35190073034028 83.26953613955993,230.71539515964105 83.2213717730483,230.9670448640827 83.26953613955993,235.99998997955117 83.24545395630412,237.59373648659675 83.31770050607156,238.74010976945283 83.26953613955993,240.69732126352028 83.34178268921096,241.17264192609582 83.26953613955993,241.89960133031127 83.29361832269933,242.06736091643688 83.4140292389784,242.2630803025968 83.46219360549003,242.45879954783595 83.38994705572259,243.32555450941436 83.4140292389784,244.49986327043734 83.34178268921096,245.28273295689723 83.02871430711821,247.60336912496132 82.61931719211861,249.16908834918286 82.23400226049125,250.5111262143182 81.84868732863106,251.74132176526473 81.68011204607319,252.4682528807607 81.41520803037565,253.1392644913867 81.34296148072463,253.53068716530106 81.43929021363147,253.81027444420033 81.31887929746881,254.28557215776527 80.98172873223666,254.98453787280596 80.861317816074,255.4039164383139 80.78907126630656,256.0469623145764 80.2351810518885,257.64059118539444 79.99435921944678,259.31808515876764 79.70537302072626,260.1009121343377 79.65720865421463,260.3525346116512 79.60904428781942,260.82782087725354 79.60904428781942,261.7224751210306 79.51271555491257,261.9461382216541 79.41638682188932,262.05796970281517 79.03107189002912,262.14184328354895 78.79025005782023,262.3655060387391 78.47718167572748,263.3160706938943 78.59759259200655,263.6795210065611 78.57351040863432,263.7633940865053 78.33268857630901,264.15480145069887 78.33268857630901,264.098886147578 78.47718167572748,263.81930945886415 78.5012638589833,263.7074787027668 78.3086063930532,263.5676901928964 77.48981216305401,263.62360560544766 76.88775758212432,263.595647900569 76.50244265038054,263.73543639606214 75.94855243596248,263.595647900569 75.73181278677657,263.5676901928964 73.20318354712799,263.81930945886415 72.769704248989,263.81930945886415 71.083951422479,263.9311401688319 69.13329458038788,264.15480145069887 67.8569388689939,264.3505049214 65.71362456097268,264.40642017286154 63.738885535742156,264.6300810634275 61.138009746326134,264.8537417698826 60.36737988272216,264.8537417698826 58.72979142284021,265.10535984448506 57.766504093422554,265.10535984448506 56.345655282610096,265.273105098051 55.575025419006124,265.30106263028574 53.792943859589286,265.52472278429195 53.479875477496535,265.636552792188 53.094560545752756,265.88817014178494 52.78149216377642,265.97204253970995 52.56475251459051,266.0 52.39617723203264,265.9161276106315 52.17943758284673,265.7483827540709 51.72187610133551,265.04944473694195 51.408807719359174,264.3784625485132 51.21615025342908,263.81930945886415 50.541849122731946,262.6450842237682 50.32510947366245,261.8902224637277 49.9879589084303,261.21923247151426 49.38590432750061,260.0170379234187 48.56711009750143,258.59117237562896 48.374452631687745,258.36750651246984 47.916891150176525,258.22771525452845 47.772398050758056,258.22771525452845 46.66461762203835,258.619130595529 45.821741208666936,258.8148380545317 43.48576943483204,259.6256245968689 42.61881083843764,259.90520560197183 41.14979766111355,260.4364087189024 36.333361014025286,262.05796970281517 35.97212826553732,262.11388542613713 33.82881395763252,262.11388542613713 33.347170292865485,262.0300118368468 32.21530768077355,261.9740960962372 28.94013076077681,261.8902224637277 28.313993996707723,262.0020539679681 27.928679064963944,262.0300118368468 27.374788850545883,261.9461382216541 26.242926238453947,261.91818034413154 25.448214191710576,261.77839091350324 21.041174659621902,261.6386014109012 19.837065497995354,261.4708539128478 19.572161482297815,261.10740064497804 19.37950401636772,260.99556877239957 16.537806394742802,260.8557788669423 16.369231111952104,260.7998628845962 16.12840927974321,260.60415685584303 16.00799836346414,260.3804926502344 15.98391618032474,260.2686604784394 16.032080546719953,259.7094989285979 16.152491462882608,259.290127010725 16.27290237916168,259.03850354941096 16.70638167730067,258.8427962514688 17.16394315881189,258.4513812327641 17.284354074974544,258.0879239246133 17.428847174393013,257.3330494998081 17.428847174393013,256.9136739128153 17.212107525323518,255.795335848612 17.212107525323518,255.4318749863014 17.332518441369757,255.0684136376658 17.669669006718323,254.62107592544635 17.81416210613679,254.34148948118673 17.95865520555526,253.95006797573296 17.86232647264842,253.55864590613055 17.59742245695088,253.1951820506947 17.380682807881385,252.99947054247605 17.356600624741986,252.85967652182444 17.59742245695088,251.8811163616483 17.71783337322995,250.8186756244395 17.886408655787818,249.86806723143673 18.15131267136894,249.08521076236502 18.223559221136384,248.24643347010715 18.15131267136894,247.71520651184255 17.76599773974158,246.17743840662297 17.95865520555526,245.4504904532223 17.790079922880977,243.99658870894928 17.62150464032311,243.54923276015325 17.380682807881385,243.29759471514262 17.091696609044448,243.07391625712626 16.41739547846373,242.82227777171647 16.27290237916168,242.6265587885282 16.104327096487395,242.2630803025968 16.032080546719953,241.98348113629618 16.032080546719953,241.5640818470274 16.08024491323158,241.3683619570511 17.06761442590505,239.4670756853302 17.525175907299854,238.74010976945283 17.790079922880977,238.43254668082227 18.536627603229135,237.14636999028153 19.620325848809443,235.69242378746276 21.426489591482095,233.03615581436316 22.48610565380659,231.58218760427553 23.328982067061588,230.2959784673294 24.31635157961864,228.67422782818903 26.483748070895672,223.92076498040115 26.796816452872008,223.3335667361971 26.989473918802105,222.77432913240045 27.302542300894856,222.21509037687792 27.90459688170813,220.6771778597613 28.338076179963537,219.97812383592827 28.45848709612619,219.58665279639536 28.6993089284515,219.02740747510688 28.988295127172023,218.5520480463456 29.277281326125376,218.35631156896125 29.68667844112497,218.300386835268" stroke="#4dd2ff" stroke-linecap="round" stroke-linejoin="round" stroke-width="0.5"><title>2023-07-07 10.0km</title><desc>9408701204</desc></polyline><polyline fill="none" points="176.9915613301564,205.22870212065754 176.22993540135212,205.28229858211125 175.60678691393696,205.22870212065754 174.4989673809614,205.28229858211125 173.8988984671887,205.22870212065754 173.13727253838442,205.2019038858125 172.53720362461172,205.28229858211125 171.42938409163617,205.25550035279593 166.8596285179956,205.33589503262192 164.2977958478732,205.28229858211125 162.3591116652824,205.36269325364265 161.9667589139426,205.46988611036795 161.59748573612887,205.71106987638632 161.45900829450693,205.81826258962974 161.27437170571648,206.08624417934334 160.92817810166162,206.75619694619672 160.69738236570265,207.10457170332666 160.60506407124922,207.2117638423515 160.44350705610123,207.23856187029742 159.958836010308,207.18496581175714 159.65880155353807,207.26535989542026 159.5895628327271,207.31895593734225 158.13554969558027,210.3739120811515 156.75077527936082,213.58961664437084 155.91991062962916,215.1974540243682 155.15828470059205,216.48371677595424 154.55821578693576,217.34122174495133 153.5657941219397,218.73466129318695 153.19652094435878,219.2705975942954 151.60403036559,221.38753519381862 150.49621083261445,223.12930638194666 150.05769893422257,223.66523363313172 149.45763002044987,224.71028859872604 148.09593517775647,227.38989754093927 147.7035824264167,228.0597954657569 147.1035135127604,229.72113487898605 146.41112630465068,232.13273773851688 146.0649327004794,233.07057726060157 145.48794336046558,234.86586063419236 144.8186357258819,236.741516603739 143.73389576666523,239.23343862811453 142.90303111681715,240.78752845752751 142.16448476153892,241.85930914082564 141.97984817263205,242.23443133741966 141.44901797978673,242.98467410894227 140.61815332993865,244.32438796560746 139.97192526911385,245.18180121548357 138.79486701532733,246.60188569844468 137.08697856857907,248.77218852652004 135.26369225385133,250.88888620166108 129.9553903248161,257.212083088496 128.3398201726377,259.24833414060413 127.62435339088552,260.1860759797564 125.59335091360845,262.5438119683531 124.9702024263097,263.13324262952665 124.73940669035073,263.3743729699345 124.39321308629587,263.8566329808382 124.11625820293557,264.2853077962063 123.7239054517122,264.76756611981546 123.49310971563682,265.1962394354632 123.00843866996001,265.65170405997196 123.00843866996001,265.9196240552119 123.14691611169837,265.97320802116883 123.47003014211077,266.0 123.67774630454369,266.0 123.90854204050265,265.89283206802793 124.83172498468775,264.8211503229104 125.33947560400702,264.3388920985162 126.10110153292771,263.2939962146338 129.23992354306392,259.56984600878786 133.30192849750165,254.6399537322868 135.07905566506088,252.5768732787401 136.3022730660159,251.076440861827 140.29503929952625,246.33394582293113 141.44901797978673,244.77988910628483 141.956768599106,244.00285726884613 142.25680305587593,243.70812044793274 142.8799515432911,242.7167305101757 143.50310003047343,241.88610360142775 143.8492936345283,241.05547404207755 144.6570787107339,239.58176991384244 145.64950037572999,237.3578006151074 146.31880801019724,235.42855884419987 146.71116076153703,234.0887992013595 146.9881156446645,233.36532612677547 147.33430924883578,232.21312411566032 147.84205986803863,230.846552327479 148.37289006100036,229.26560738543049 148.76524281234015,228.30095829657512 149.78074405086227,226.1572808540368 150.0807785076322,225.59456259958097 150.3577333909925,225.16582406524685 150.5192904061405,225.08543551145704 151.05012059910223,224.9246583293134 151.41939377679955,224.4691224406415 151.48863249761052,224.25475233476027 151.46555292396806,223.69202996676904 151.5578712184215,223.397270145535 151.9271443960024,222.91493517253548 152.11178098490927,222.59337802726077 152.55029288341757,222.16463454879704 153.47347582760267,220.8783998755971 154.28126090369187,219.5653620894882 155.4583191574784,217.9039578452648 156.1045472184196,216.85887554753572 157.16620760422666,214.87588734313613 158.48174329963513,211.9281742485182 159.61264240625314,209.51638415284106 160.48966620326973,207.533339994814 160.90509852813557,206.72939886868699 161.2051329849055,205.97905157654895 161.38976957381237,205.6842716912215 161.89752019313164,205.1751056482026 162.22063422354404,204.7463334707718 162.451429959503,204.66593860878493 163.9746818174608,204.66593860878493 166.16724130988587,204.5319471169496 167.27506084286142,204.5855437220016 169.2368245992111,204.5855437220016 170.2754054113757,204.5319471169496 171.38322494446766,204.5319471169496 171.98329385800753,204.47835050098365 172.21408959419932,204.29076225799508 172.2833283150103,204.15677057296853 172.37564660946373,203.86198862327728 172.4448853301583,203.35281901425333 172.35256703582127,202.76325295915012 172.2833283150103,201.74490844461252 172.3294874621788,201.55731823082897 172.46796490380075,201.34292924962938 172.56028319825418,200.99454677823815 172.56028319825418,200.27098169343662 172.51412405096926,199.78860385232838 172.6526014925912,198.12707333193976 172.6526014925912,197.61789250010042 172.56028319825418,196.11714319876046 172.51412405096926,194.0" stroke="#4dd2ff" stroke-linecap="round" stroke-linejoin="round" stroke-width="0.5"><title>2023-05-25 10.0km</title><desc>9138079938</desc></polyline></svg>