<?xml version="1.0" encoding="utf-8" ?>
<svg baseProfile="full" height="300mm" version="1.1" viewBox="0,0,200,300" width="200mm" xmlns="http://www.w3.org/2000/svg" xmlns:ev="http://www.w3.org/2001/xml-events" xmlns:xlink="http://www.w3.org/1999/xlink"><defs /><rect fill="#222222" height="300" width="200" x="0" y="0" /><text fill="#FFFFFF" style="font-size:12px; font-family:Arial; font-weight:bold;" x="10" y="20">Over 4 km Runs</text><text fill="#FFFFFF" style="font-size:4px; font-family:Arial" x="10" y="280">ATHLETE</text><text fill="#FFFFFF" style="font-size:9px; font-family:Arial" x="10" y="290">lizhimiao</text><text fill="#FFFFFF" style="font-size:4px; font-family:Arial" x="120" y="280">STATISTICS</text><text fill="#FFFFFF" style="font-size:3px; font-family:Arial" x="120" y="285">Number: 10</text><text fill="#FFFFFF" style="font-size:3px; font-family:Arial" x="120" y="290">Weekly: 2.0</text><text fill="#FFFFFF" style="font-size:3px; font-family:Arial" x="141" y="285">Total: 53.4 km</text><text fill="#FFFFFF" style="font-size:3px; font-family:Arial" x="141" y="290">Avg: 5.3 km</text><text fill="#FFFFFF" style="font-size:3px; font-family:Arial" x="167" y="285">Min: 4.1 km</text><text fill="#FFFFFF" style="font-size:3px; font-family:Arial" x="167" y="290">Max: 7.1 km</text><polyline fill="none" points="29.209410987328738,33.0 31.649685534415767,33.41413024638314 31.80220269365236,50.84873569276533 32.564788489602506,59.29666277806973 32.71730564860627,80.95424659422133 32.29788346099667,83.02471743710339 32.75543493847363,86.21322756560403 35.615131673170254,87.0 37.216561844805256,85.75772722996771 38.131664799759164,82.73485197991249 37.36907900380902,81.82384528042166 37.216561844805256,79.71196041445364 37.216561844805256,69.48369945722516 38.77986272634007,68.32420869357884 47.930892277741805,68.44843996167765 47.2826943511609,73.16920772756566 48.426573045086116,77.31019932008348 50.71433043293655,80.83001810021233 50.79058901267126,82.15512061535264 49.951744636986405,84.55686093319673 47.39708222076297,86.50309122269391 38.70360414683819,86.4616821379168 38.39856982859783,85.05377143720398 37.55972545291297,85.01236224538297 37.25469113467261,85.79913636675337 37.9791476407554,86.0475911226822 38.55108698760159,85.46786318716477 37.67411332228221,84.8053162402648 37.59785474278033,85.84054550033761 38.436699118232355,85.21940817389986 37.67411332228221,84.97095305056428 37.712242612149566,86.0475911226822 38.55108698760159,85.71631809012615 37.826630481518805,84.97095305056428 36.225200310116634,86.5445003042114 33.40363286505453,86.66872753074858 32.48852990986779,86.00618200437748 32.52665919973515,57.35033793572802 31.878461273154244,52.17390915451688 31.687814824050292,33.45554325424018 31.61155624454841,54.4101322593051 32.1834955913946,56.066588060348295 31.80220269365236,40.16441006885725" stroke="#ff5500" stroke-linecap="round" stroke-linejoin="round" stroke-width="0.5"><title>2022-01-01 6.1km</title></polyline><polyline fill="none" points="120.68348623882048,78.16726574877976 121.92201834870502,78.50746929674642 124.0275229359977,75.64975529519143 126.62844036705792,70.07038142823149 127.0,66.73634798603598 107.36926605505869,56.18983019585721 106.06880733929574,57.074381839483976 104.64449541294016,63.60642722802004 102.10550458729267,63.67446910531726 103.46788990823552,54.9650648732204 82.7844036698807,41.96883603098104 80.05963302752934,41.96883603098104 73.24770642188378,55.84961778199067 73.18577981670387,57.82284790102858 83.03211009176448,63.60642722802004 85.19954128446989,63.81055284343893 84.51834862376563,67.62088873580797 87.80045871553011,68.98171887430362 88.97706422000192,66.3961397621315 85.69495412823744,64.15076209470863 84.95183486235328,67.07655607478227 87.92431192635559,68.70955301966751 88.85321100917645,66.3961397621315 85.50917431199923,64.35488758055726 84.95183486235328,67.48480560298776 87.61467889905907,68.64151154237334 88.97706422000192,66.19201476301532 86.06651376164518,64.4909712105291 84.58027522917837,66.73634798603598 87.42889908258803,68.57347005978227 88.17201834870502,68.57347005978227 89.16284403670579,65.9198480215855 85.4472477065865,64.28684575727675 84.51834862376563,66.9404728555819 87.67660550470464,68.70955301966751 88.66743119270541,65.6476811938337 85.75688073388301,64.21880392864114 84.95183486235328,65.3074725374463 84.70412844070233,66.80438961467007 87.61467889905907,68.57347005978227 88.97706422000192,65.78376461856533 85.4472477065865,64.96726374590071 84.64220183482394,66.9404728555819 86.99541284400038,68.50542857183609 88.23394495411776,68.23326256580185 90.15366972493939,65.03530551493168 100.30963302752934,68.70955301966751 104.02522935788147,56.938297030632384 103.28211009153165,55.101149995520245 88.04816513787955,44.758619058469776 85.38532110094093,44.07818501180736 81.66972477082163,41.49253070325358 80.24541284400038,41.69666159048211 73.0,57.00633943773573 84.02293577953242,62.85796622134512 99.81422018352896,68.70955301966751 100.92889908258803,68.1652210506727 103.77752293576486,56.938297030632384 103.46788990823552,54.89702230383409 81.73165137623437,41.69666159048211 80.49311926588416,41.62861796678044 73.18577981670387,56.462000029627234 73.43348623858765,57.68676321132807 75.53899082541466,59.18369360989891 83.5894495411776,63.470343457360286 88.54357798187993,64.21880392864114 100.49541284400038,69.1858432085719 102.04357798141427,63.60642722802004 102.47706422023475,62.85796622134512 103.15825688070618,66.19201476301532 105.94495412847027,57.68676321132807 107.05963302752934,56.938297030632384 125.88532110094093,65.6476811938337" stroke="#ff0000" stroke-linecap="round" stroke-linejoin="round" stroke-width="0.5"><title>2021-12-24 7.1km</title></polyline><polyline fill="none" points="184.29076396790333,75.89879333693534 187.0,70.35121479444206 185.89167616865598,68.05098870123038 181.51995438989252,66.49494987912476 174.80843785614707,61.48854481120361 166.68072976055555,59.32360377290752 164.58722919039428,62.8416301648831 164.46408209810033,67.57741196948336 161.87799315853044,66.29198808403453 164.09464082098566,68.86283391423058 164.40250855172053,66.22433414164698 162.86316989711486,64.73594604752725 163.97149372845888,59.52656722912798 162.86316989711486,56.41445558407577 161.01596351177432,54.317156537552364 154.92018243996426,52.35516242979793 143.4059293041937,44.57479645300191 140.14253135677427,44.10120666306466 133.0,60.27076615463011 139.7730900796596,64.60063791007269 148.63968072948046,67.98333489859942 145.49942987435497,66.69791162596084 144.39110604324378,68.45691140455892 144.51425313577056,69.74233202158939 147.16191562148742,71.0954042589874 148.94754846044816,68.25395007710904 145.86887115146965,66.83321943040937 144.76054732035846,67.64506580436137 144.57582668215036,69.67467835330172 147.4697833522223,71.23071136447834 148.8244013681542,68.18629629036877 145.25313568976708,66.69791162596084 144.2063854050357,69.20110252453014 147.22348916740157,71.0954042589874 148.94754846044816,68.38925763400039 145.37628278229386,67.23914271401009 144.82212086650543,69.53937100048643 147.10034207510762,70.89244356041308 148.76282782224007,68.38925763400039 145.74572405940853,66.69791162596084 144.45267958939075,68.45691140455892 144.45267958939075,69.67467835330172 147.34663626016118,71.16305781452684 149.00912200682797,68.52456516952952 145.49942987435497,66.83321943040937 144.14481185865588,69.20110252453014 146.23831242858432,70.75713640131289 147.4697833522223,71.23071136447834 148.88597491453402,68.86283391423058 145.68415051302873,66.69791162596084 144.267958950717,68.99814137455542 146.85404789051972,70.82478998345323 147.96237172163092,70.68948281364283 149.07069555297494,68.25395007710904 145.74572405940853,67.23914271401009 144.63740022783168,69.94529299432179 147.10034207510762,71.02775069820927 148.76282782224007,68.93048764712876 145.31470923614688,67.17148884688504 144.267958950717,68.93048764712876 146.9156214366667,70.89244356041308 147.59293044451624,71.16305781452684 148.88597491453402,68.72752643248532 145.31470923614688,66.76556553080445 144.69897377421148,69.53937100048643 147.03876852896065,70.82478998345323 148.8244013681542,68.65987268363824 145.49942987435497,66.5626038001501 144.267958950717,69.53937100048643 146.73090079799294,70.82478998345323 147.90079817571677,70.41886840906227 149.07069555297494,67.98333489859942 145.31470923614688,67.17148884688504 144.39110604324378,69.53937100048643 146.85404789051972,70.96009713207604 149.00912200682797,68.38925763400039 145.31470923614688,67.10383497434668 144.51425313577056,68.18629629036877 144.08323831227608,69.47171731607523 146.97719498281367,71.23071136447834 148.94754846044816,68.52456516952952 145.49942987435497,66.42729595297715 144.08323831227608,69.67467835330172 147.40820980607532,71.16305781452684 149.07069555297494,68.32160385820316 145.00684150494635,67.0361810963368 143.96009121998213,69.60702467960073 146.9156214366667,71.02775069820927 147.90079817571677,70.55417562206276 148.51653363741934,68.05098870123038 145.80729760532267,66.96852721297182 144.2063854050357,68.99814137455542 147.16191562148742,71.29836490919115 149.87115165311843,67.57741196948336 160.46180159621872,71.02775069820927 161.32383124274202,67.10383497434668 164.2177879132796,65.41248641291168 165.6339794753585,60.20311173371738 166.7423033064697,59.52656722912798 170.4982896237634,60.33842057001311 173.14595210948028,62.43570478458423" stroke="#ff5e00" stroke-linecap="round" stroke-linejoin="round" stroke-width="0.5"><title>2021-12-19 6.0km</title></polyline><polyline fill="none" points="59.647597254253924,138.39723609748762 61.00686498871073,138.73666098562535 63.10755148762837,136.49645423219772 67.0,128.7575129827601 66.93821510323323,126.10996435815468 46.54919908475131,116.53798934270162 45.066361556295305,119.52500014932593 44.63386727706529,124.88801607198548 42.28604119014926,123.3266351633356 43.89244851283729,115.1802537055919 40.00000000023283,112.5326630070922 39.56750572076999,111.31069530185778 35.61327231139876,110.15661308658309 28.32265446241945,104.65772935567657 20.970251716440544,101.26333901437465 13.0,117.35262968932511 20.908466819208115,122.44411425694125 25.48054919927381,123.0550903659896 24.43020594958216,126.04207838815637 26.592677345732227,128.41808413044782 29.06407322664745,125.63476245460333 25.356979405274615,124.20915515808156 24.491990846814588,126.58516599738505 27.33409611019306,128.55385568772908 29.06407322664745,125.56687644665362 25.356979405274615,124.20915515808156 24.862700229045004,127.67134018067736 27.27231121296063,128.0786551433266 29.06407322664745,125.90630643180339 25.665903890272602,123.3945213490515 25.23340961127542,126.99248147796607 27.82837528618984,127.94288351060823 28.81693363841623,125.63476245460333 25.913043478503823,123.93761064123828 24.491990846814588,126.38150818442227 25.48054919927381,127.26402502373094 27.951945080189034,127.87499768618727 29.12585812364705,124.75224393239478 25.789473684271798,124.27704127365723 24.9862700230442,125.36321839108132 24.615560640813783,126.51728006522171 27.76659038895741,127.94288351060823 28.755148741416633,125.56687644665362 25.851258581271395,123.93761064123828 24.306636155815795,127.06036737246905 27.76659038895741,128.82539873715723 28.693363844417036,125.29533236159477 25.789473684271798,123.93761064123828 24.368421053048223,126.38150818442227 24.244851258583367,127.12825326155871 27.210526315961033,128.4859699117369 29.249427917879075,125.77053445391357 28.693363844417036,125.36321839108132 25.913043478503823,124.07338291039923 24.491990846814588,126.24573628202779 27.643020595191047,128.55385568772908 29.12585812364705,125.49899043352343 25.48054919927381,124.14126903685974 24.306636155815795,126.58516599738505 27.086956521729007,128.35019834386185 28.755148741416633,126.51728006522171 28.508009153418243,125.29533236159477 26.22196796350181,124.14126903685974 24.43020594958216,126.24573628202779 27.210526315961033,128.28231255168794 29.187643020879477,125.56687644665362 25.97482837550342,124.07338291039923 24.553775743814185,126.313622236019" stroke="#ffea00" stroke-linecap="round" stroke-linejoin="round" stroke-width="0.5"><title>2021-12-18 4.4km</title></polyline><polyline fill="none" points="121.04095563152805,138.25882486789487 126.75426621176302,128.7414370876504 123.68259385670535,125.23145156214014 112.19453924917616,118.81894055736484 107.4027303752955,117.19893011823297 105.86689419788308,118.34643783175852 104.33105802047066,124.42145284306025 102.67235494870692,123.88145326788072 100.15358361788094,125.70395045832265 102.05802047788166,121.5189510906348 102.85665528988466,114.56640656548552 99.60068259388208,111.93387485475978 94.37883959035389,109.70634165056981 90.26279863482341,106.19627747416962 81.84641638211906,102.07868370343931 80.55631399340928,101.94368029094767 79.08191126282327,104.17123385163723 73.36860068282112,117.60393301770091 90.20136518776417,125.0964518293622 101.32081911270507,128.60643791238545 102.36518771317787,126.0414495090954 102.05802047788166,123.13895329157822 103.59385665529408,114.76890866691247 81.53924914682284,101.80867685715202 80.31058020470664,102.14618540141964 78.03754266211763,106.19627747416962 73.30716723552905,117.53643254790222 84.24232081929222,122.73395303089637 100.15358361788094,128.87643624126213 101.32081911270507,128.60643791238545 102.9795221844688,113.89139921218157 97.57337883976288,111.52886925212806 89.09556313999929,105.6562663136283 84.67235494870692,104.17123385163723 83.56655290094204,102.48369381180964 80.43344709882513,101.74117513216333 73.0,117.26643061486538 85.1023890785873,123.13895329157822 84.48805460729636,126.58144771121442 87.80546075082384,128.06644099747064 88.78839590470307,125.56895080063259 85.71672354941256,124.21895304258214 84.3651877134107,126.44644819293171 85.40955631411634,127.25644498126348 87.92832764517516,127.72894275118597 89.27986348140985,124.6239525951678 100.58361774752848,128.3364394978271 101.75085324258544,124.42145284306025 104.88395904446952,122.86895313928835 105.43686006846838,117.13142961624544 107.4027303752955,116.59142540709581 123.7440273037646,124.42145284306025 126.50853242306039,124.48895276576513 127.0,125.70395045832265 125.52559726941399,130.69892271625577" stroke="#ff5400" stroke-linecap="round" stroke-linejoin="round" stroke-width="0.5"><title>2021-12-15 6.1km</title></polyline><polyline fill="none" points="183.19977298541926,137.1398587525473 186.8161180478055,129.52974649966927 186.38706015911885,127.64404440537328 182.70942111243494,126.29711176961428 181.42224744614214,124.61344296479365 166.95686719636433,118.35016564937541 165.42451759357937,119.56241648370633 164.19863791158423,124.61344296479365 162.35981838824227,124.41140248364536 163.89216799102724,117.33995529613458 163.34052213397808,116.12770128279226 142.56186152109876,102.99483833223348 140.17139614047483,103.19688391895033 133.24517593625933,117.81138694414403 133.0,119.15833306498826 141.27468785457313,124.74813659233041 147.71055618603714,125.35425765108084 159.78547105542384,130.0685177561827 160.88876276952215,129.52974649966927 163.15664018155076,120.50527704536216 163.34052213397808,116.26239625888411 159.41770715080202,112.42358105478343 141.2133938705083,102.8601412474527 133.306469920557,118.8215967353899 140.11010215664282,123.80528075067559 161.0113507376518,130.20321051671635 161.3178206582088,126.16241838823771 162.9114642450586,127.37465804954991 165.54710556170903,121.71752479742281 165.54710556170903,119.15833306498826 167.2020431328565,118.48486027214676 170.6345062428154,119.49506926070899 183.32236095354892,126.49915180145763 186.32576617482118,127.10527160787024 187.0,128.92362842697185" stroke="#fffa00" stroke-linecap="round" stroke-linejoin="round" stroke-width="0.5"><title>2021-12-13 4.2km</title></polyline><polyline fill="none" points="62.727472527418286,197.14784683688777 67.0,188.8674589015427 66.70329670305364,186.91144955187337 48.24835164798424,177.84854538267246 46.94285714277066,178.30495302233612 46.05274725239724,180.8477909375797 42.96703296690248,194.6050594309927 47.0021978020668,177.84854538267246 25.34285714267753,163.69978264009114 21.96043956000358,163.69978264009114 16.44175824150443,174.9144902107073 15.373626373475417,179.1525665363297 21.72307692281902,183.26021962426603 27.83516483497806,184.23822923359694 39.16923076915555,189.32386041234713 41.542857142630965,189.38906060735462 44.509890109766275,178.04414868785534 44.153846153756604,176.15331478533335 37.15164835145697,170.61119031329872 28.66593406558968,166.43827188952127 24.63076923065819,162.85215316311223 22.01978021953255,163.76498487137724 16.50109890080057,174.45808068534825 15.195604395586997,178.4353551582899 17.747252747183666,180.45658561727032 14.839560439344496,179.08736552775372 13.0,182.67341329919873 15.195604395586997,185.08583661878947 33.17582417582162,193.9530613910756 38.635164834791794,195.90905395674054 40.29670329624787,194.93105825677048 43.67912087868899,182.99941686500097 44.450549450470135,176.4141197205754 38.516483516432345,171.65441660326906 35.905494505073875,170.87199701025384 23.740659340284765,163.30856914422475 21.8417582414113,163.6345804037992 20.595604395493865,165.78625146870036 14.898901098873466,179.34816953045083 20.951648351503536,182.6082125704852 22.850549450377002,182.2822088493267 25.46153846126981,184.30342983285664 29.378021977841854,185.02063608175376 36.38021978014149,188.34585686417995" stroke="#ff8100" stroke-linecap="round" stroke-linejoin="round" stroke-width="0.5"><title>2021-12-12 5.6km</title></polyline><polyline fill="none" points="121.17045454541221,193.56892531720223 126.61647727293894,182.44419992307667 126.38636363623664,179.2416058324743 119.94318181835115,174.9433722504764 110.58522727293894,173.17350630124565 108.20738636376336,173.76346194575308 104.06534090917557,169.21236704679905 101.15056818211451,168.03245036693988 99.92329545458779,169.29664675955428 95.01420454541221,188.59652459877543 95.1676136367023,192.64186932402663 93.09659090917557,193.48464753327426 94.63068181788549,193.56892531720223 95.39772727293894,191.79909044509986 96.08806818211451,182.9498717901879 100.92045454541221,168.62240887089865 105.90625000046566,169.29664675955428 121.3238636367023,177.2189098459785 127.0,177.4717470551841 98.61931818211451,164.32413225603523 93.71022727293894,183.5398219974595 87.95738636376336,180.5057888654992 80.28693181835115,178.5673742655781 78.21590909082443,179.2416058324743 75.22443181835115,177.4717470551841 73.76704545458779,177.97742129297694 73.46022727293894,181.3485767171369 77.83238636376336,183.03415041137487 78.98295454541221,178.9887690450414 74.45738636376336,177.4717470551841 73.53693181835115,180.7586252912879 77.14204545458779,182.69703588692937 79.13636363623664,179.74727922660531 75.14772727293894,177.13463076285552 73.61363636376336,178.5673742655781 73.69034090917557,181.2642979621305 77.37215909129009,182.61275723885046 79.36647727293894,179.2416058324743 74.15056818211451,177.72458420420298 73.53693181835115,181.0957404319197 77.37215909129009,182.69703588692937 79.28977272752672,179.2416058324743 75.68465909082443,177.6403051613015 74.38068181835115,178.5673742655781 73.69034090917557,180.0001158331288 77.06534090917557,182.5284785843105 78.67613636376336,182.02280651620822 79.44318181835115,179.66300034424057 75.07102272706106,177.4717470551841 73.61363636376336,178.14597931853496 73.0,180.5900676807505 77.52556818211451,182.69703588692937 79.28977272752672,179.83155810204335 78.0625,178.90449010260636 80.28693181835115,178.48309528961545 92.55965909129009,183.03415041137487 95.1676136367023,176.12328124267515 98.46590909129009,177.80886324041057 100.76704545458779,168.11673017323483 104.06534090917557,168.45384933194146 126.76988636376336,179.57872145541478 125.15909090917557,185.8996195445652 120.17329545458779,195.67586774396477" stroke="#ffb200" stroke-linecap="round" stroke-linejoin="round" stroke-width="0.5"><title>2021-12-11 5.0km</title></polyline><polyline fill="none" points="149.4549467859324,153.08314486552263 151.02426505018957,153.0 151.44530165777542,157.7392376990756 151.2539213814307,169.75344191250042 151.94289037538692,178.85746022628155 152.17254670686089,206.62588389508892 155.043250848772,207.0 156.114980394952,206.58431542370818 157.7991268245969,203.3003964665404 156.95705360965803,199.68390656152042 156.88050149939954,189.33313446547254 158.14361132169142,188.33545961536583 166.94710402330384,188.2938897915301 167.78917723800987,195.98425488601788 170.54505321430042,201.9701959878148 169.4733236678876,204.79686824348755 166.64089558133855,206.21019904213608 164.61226465459913,206.58431542370818 156.61256911279634,205.9192194622592 156.03842828446068,206.4596099908522 153.12944808742031,206.70902082885732 152.13427065173164,206.25176754128188 152.36392698297277,182.55722461722326 151.48357771290466,173.95211708181887 151.56012982339598,156.36735721226432 151.17736927093938,154.12245464598527 151.21564532630146,157.4898051324708 151.33047349192202,153.20786214069813 149.6463270620443,153.12471729359822" stroke="#ffb800" stroke-linecap="round" stroke-linejoin="round" stroke-width="0.5"><title>2021-12-05 4.9km</title></polyline><polyline fill="none" points="37.58084368240088,213.12817053380422 41.199744189856574,213.17089403880527 41.86845406633802,267.0 42.41915631759912,264.5649820903491 42.1831410669256,237.43733416550094 41.63243881589733,235.42941037897253 41.357087690150365,213.0 41.27841594000347,234.9594697614957 41.86845406633802,236.79650818347 41.23908006493002,214.36715089413337" stroke="#ffff00" stroke-linecap="round" stroke-linejoin="round" stroke-width="0.5"><title>2021-12-04 4.1km</title></polyline></svg>