<?xml version="1.0" encoding="utf-8" ?>
<svg baseProfile="full" height="300mm" version="1.1" viewBox="0,0,200,300" width="200mm" xmlns="http://www.w3.org/2000/svg" xmlns:ev="http://www.w3.org/2001/xml-events" xmlns:xlink="http://www.w3.org/1999/xlink"><defs /><rect fill="#222222" height="300" width="200" x="0" y="0" /><text fill="#FFFFFF" style="font-size:12px; font-family:Arial; font-weight:bold;" x="10" y="20">Over 4 km Runs</text><text fill="#FFFFFF" style="font-size:4px; font-family:Arial" x="10" y="280">ATHLETE</text><text fill="#FFFFFF" style="font-size:9px; font-family:Arial" x="10" y="290">lizhimiao</text><text fill="#FFFFFF" style="font-size:4px; font-family:Arial" x="120" y="280">STATISTICS</text><text fill="#FFFFFF" style="font-size:3px; font-family:Arial" x="120" y="285">Number: 8</text><text fill="#FFFFFF" style="font-size:3px; font-family:Arial" x="120" y="290">Weekly: 2.7</text><text fill="#FFFFFF" style="font-size:3px; font-family:Arial" x="141" y="285">Total: 40.2 km</text><text fill="#FFFFFF" style="font-size:3px; font-family:Arial" x="141" y="290">Avg: 5.0 km</text><text fill="#FFFFFF" style="font-size:3px; font-family:Arial" x="167" y="285">Min: 4.1 km</text><text fill="#FFFFFF" style="font-size:3px; font-family:Arial" x="167" y="290">Max: 6.1 km</text><polyline fill="none" points="64.29076396790333,75.89879333693534 67.0,70.35121479444206 65.89167616865598,68.05098870123038 61.51995438989252,66.49494987912476 54.808437856147066,61.48854481120361 46.68072976055555,59.32360377290752 44.58722919039428,62.8416301648831 44.464082098100334,67.57741196948336 41.877993158530444,66.29198808403453 44.09464082098566,68.86283391423058 44.40250855172053,66.22433414164698 42.86316989711486,64.73594604752725 43.97149372845888,59.52656722912798 42.86316989711486,56.41445558407577 41.015963511774316,54.317156537552364 34.920182439964265,52.35516242979793 23.405929304193705,44.57479645300191 20.14253135677427,44.10120666306466 13.0,60.27076615463011 19.773090079659596,64.60063791007269 28.63968072948046,67.98333489859942 25.499429874354973,66.69791162596084 24.39110604324378,68.45691140455892 24.51425313577056,69.74233202158939 27.161915621487424,71.0954042589874 28.94754846044816,68.25395007710904 25.868871151469648,66.83321943040937 24.760547320358455,67.64506580436137 24.575826682150364,69.67467835330172 27.469783352222294,71.23071136447834 28.824401368154213,68.18629629036877 25.253135689767078,66.69791162596084 24.20638540503569,69.20110252453014 27.223489167401567,71.0954042589874 28.94754846044816,68.38925763400039 25.376282782293856,67.23914271401009 24.82212086650543,69.53937100048643 27.10034207510762,70.89244356041308 28.76282782224007,68.38925763400039 25.74572405940853,66.69791162596084 24.452679589390755,68.45691140455892 24.452679589390755,69.67467835330172 27.346636260161176,71.16305781452684 29.009122006827965,68.52456516952952 25.499429874354973,66.83321943040937 24.144811858655885,69.20110252453014 26.238312428584322,70.75713640131289 27.469783352222294,71.23071136447834 28.885974914534017,68.86283391423058 25.684150513028726,66.69791162596084 24.267958950717002,68.99814137455542 26.854047890519723,70.82478998345323 27.962371721630916,70.68948281364283 29.07069555297494,68.25395007710904 25.74572405940853,67.23914271401009 24.637400227831677,69.94529299432179 27.10034207510762,71.02775069820927 28.76282782224007,68.93048764712876 25.314709236146882,67.17148884688504 24.267958950717002,68.93048764712876 26.915621436666697,70.89244356041308 27.59293044451624,71.16305781452684 28.885974914534017,68.72752643248532 25.314709236146882,66.76556553080445 24.69897377421148,69.53937100048643 27.038768528960645,70.82478998345323 28.824401368154213,68.65987268363824 25.499429874354973,66.5626038001501 24.267958950717002,69.53937100048643 26.730900797992945,70.82478998345323 27.900798175716773,70.41886840906227 29.07069555297494,67.98333489859942 25.314709236146882,67.17148884688504 24.39110604324378,69.53937100048643 26.854047890519723,70.96009713207604 29.009122006827965,68.38925763400039 25.314709236146882,67.10383497434668 24.51425313577056,68.18629629036877 24.08323831227608,69.47171731607523 26.97719498281367,71.23071136447834 28.94754846044816,68.52456516952952 25.499429874354973,66.42729595297715 24.08323831227608,69.67467835330172 27.40820980607532,71.16305781452684 29.07069555297494,68.32160385820316 25.00684150494635,67.0361810963368 23.960091219982132,69.60702467960073 26.915621436666697,71.02775069820927 27.900798175716773,70.55417562206276 28.516533637419343,68.05098870123038 25.807297605322674,66.96852721297182 24.20638540503569,68.99814137455542 27.161915621487424,71.29836490919115 29.87115165311843,67.57741196948336 40.46180159621872,71.02775069820927 41.32383124274202,67.10383497434668 44.21778791327961,65.41248641291168 45.6339794753585,60.20311173371738 46.742303306469694,59.52656722912798 50.49828962376341,60.33842057001311 53.14595210948028,62.43570478458423" stroke="#ff0e00" stroke-linecap="round" stroke-linejoin="round" stroke-width="0.5"><title>2021-12-19 6.0km</title></polyline><polyline fill="none" points="179.64759725425392,78.39723609748762 181.00686498871073,78.73666098562535 183.10755148762837,76.49645423219772 187.0,68.75751298276009 186.93821510323323,66.10996435815468 166.5491990847513,56.53798934270162 165.0663615562953,59.52500014932593 164.6338672770653,64.88801607198548 162.28604119014926,63.326635163335595 163.8924485128373,55.180253705591895 160.00000000023283,52.5326630070922 159.56750572077,51.31069530185778 155.61327231139876,50.15661308658309 148.32265446241945,44.657729355676565 140.97025171644054,41.26333901437465 133.0,57.35262968932511 140.90846681920812,62.44411425694125 145.4805491992738,63.0550903659896 144.43020594958216,66.04207838815637 146.59267734573223,68.41808413044782 149.06407322664745,65.63476245460333 145.35697940527461,64.20915515808156 144.4919908468146,66.58516599738505 147.33409611019306,68.55385568772908 149.06407322664745,65.56687644665362 145.35697940527461,64.20915515808156 144.862700229045,67.67134018067736 147.27231121296063,68.07865514332661 149.06407322664745,65.90630643180339 145.6659038902726,63.3945213490515 145.23340961127542,66.99248147796607 147.82837528618984,67.94288351060823 148.81693363841623,65.63476245460333 145.91304347850382,63.93761064123828 144.4919908468146,66.38150818442227 145.4805491992738,67.26402502373094 147.95194508018903,67.87499768618727 149.12585812364705,64.75224393239478 145.7894736842718,64.27704127365723 144.9862700230442,65.36321839108132 144.61556064081378,66.51728006522171 147.7665903889574,67.94288351060823 148.75514874141663,65.56687644665362 145.8512585812714,63.93761064123828 144.3066361558158,67.06036737246905 147.7665903889574,68.82539873715723 148.69336384441704,65.29533236159477 145.7894736842718,63.93761064123828 144.36842105304822,66.38150818442227 144.24485125858337,67.12825326155871 147.21052631596103,68.4859699117369 149.24942791787907,65.77053445391357 148.69336384441704,65.36321839108132 145.91304347850382,64.07338291039923 144.4919908468146,66.24573628202779 147.64302059519105,68.55385568772908 149.12585812364705,65.49899043352343 145.4805491992738,64.14126903685974 144.3066361558158,66.58516599738505 147.086956521729,68.35019834386185 148.75514874141663,66.51728006522171 148.50800915341824,65.29533236159477 146.2219679635018,64.14126903685974 144.43020594958216,66.24573628202779 147.21052631596103,68.28231255168794 149.18764302087948,65.56687644665362 145.97482837550342,64.07338291039923 144.55377574381419,66.313622236019" stroke="#ffe000" stroke-linecap="round" stroke-linejoin="round" stroke-width="0.5"><title>2021-12-18 4.4km</title></polyline><polyline fill="none" points="61.04095563152805,138.25882486789487 66.75426621176302,128.7414370876504 63.68259385670535,125.23145156214014 52.19453924917616,118.81894055736484 47.402730375295505,117.19893011823297 45.866894197883084,118.34643783175852 44.331058020470664,124.42145284306025 42.672354948706925,123.88145326788072 40.15358361788094,125.70395045832265 42.058020477881655,121.5189510906348 42.85665528988466,114.56640656548552 39.600682593882084,111.93387485475978 34.37883959035389,109.70634165056981 30.26279863482341,106.19627747416962 21.84641638211906,102.07868370343931 20.556313993409276,101.94368029094767 19.08191126282327,104.17123385163723 13.368600682821125,117.60393301770091 30.201365187764168,125.0964518293622 41.32081911270507,128.60643791238545 42.365187713177875,126.0414495090954 42.058020477881655,123.13895329157822 43.593856655294076,114.76890866691247 21.53924914682284,101.80867685715202 20.31058020470664,102.14618540141964 18.03754266211763,106.19627747416962 13.30716723552905,117.53643254790222 24.242320819292217,122.73395303089637 40.15358361788094,128.87643624126213 41.32081911270507,128.60643791238545 42.979522184468806,113.89139921218157 37.57337883976288,111.52886925212806 29.095563139999285,105.6562663136283 24.672354948706925,104.17123385163723 23.566552900942042,102.48369381180964 20.433447098825127,101.74117513216333 13.0,117.26643061486538 25.102389078587294,123.13895329157822 24.488054607296363,126.58144771121442 27.80546075082384,128.06644099747064 28.788395904703066,125.56895080063259 25.716723549412563,124.21895304258214 24.365187713410705,126.44644819293171 25.409556314116344,127.25644498126348 27.92832764517516,127.72894275118597 29.279863481409848,124.6239525951678 40.58361774752848,128.3364394978271 41.750853242585436,124.42145284306025 44.88395904446952,122.86895313928835 45.43686006846838,117.13142961624544 47.402730375295505,116.59142540709581 63.7440273037646,124.42145284306025 66.50853242306039,124.48895276576513 67.0,125.70395045832265 65.52559726941399,130.69892271625577" stroke="#ff0000" stroke-linecap="round" stroke-linejoin="round" stroke-width="0.5"><title>2021-12-15 6.1km</title></polyline><polyline fill="none" points="183.19977298541926,137.1398587525473 186.8161180478055,129.52974649966927 186.38706015911885,127.64404440537328 182.70942111243494,126.29711176961428 181.42224744614214,124.61344296479365 166.95686719636433,118.35016564937541 165.42451759357937,119.56241648370633 164.19863791158423,124.61344296479365 162.35981838824227,124.41140248364536 163.89216799102724,117.33995529613458 163.34052213397808,116.12770128279226 142.56186152109876,102.99483833223348 140.17139614047483,103.19688391895033 133.24517593625933,117.81138694414403 133.0,119.15833306498826 141.27468785457313,124.74813659233041 147.71055618603714,125.35425765108084 159.78547105542384,130.0685177561827 160.88876276952215,129.52974649966927 163.15664018155076,120.50527704536216 163.34052213397808,116.26239625888411 159.41770715080202,112.42358105478343 141.2133938705083,102.8601412474527 133.306469920557,118.8215967353899 140.11010215664282,123.80528075067559 161.0113507376518,130.20321051671635 161.3178206582088,126.16241838823771 162.9114642450586,127.37465804954991 165.54710556170903,121.71752479742281 165.54710556170903,119.15833306498826 167.2020431328565,118.48486027214676 170.6345062428154,119.49506926070899 183.32236095354892,126.49915180145763 186.32576617482118,127.10527160787024 187.0,128.92362842697185" stroke="#fff800" stroke-linecap="round" stroke-linejoin="round" stroke-width="0.5"><title>2021-12-13 4.2km</title></polyline><polyline fill="none" points="62.727472527418286,197.14784683688777 67.0,188.8674589015427 66.70329670305364,186.91144955187337 48.24835164798424,177.84854538267246 46.94285714277066,178.30495302233612 46.05274725239724,180.8477909375797 42.96703296690248,194.6050594309927 47.0021978020668,177.84854538267246 25.34285714267753,163.69978264009114 21.96043956000358,163.69978264009114 16.44175824150443,174.9144902107073 15.373626373475417,179.1525665363297 21.72307692281902,183.26021962426603 27.83516483497806,184.23822923359694 39.16923076915555,189.32386041234713 41.542857142630965,189.38906060735462 44.509890109766275,178.04414868785534 44.153846153756604,176.15331478533335 37.15164835145697,170.61119031329872 28.66593406558968,166.43827188952127 24.63076923065819,162.85215316311223 22.01978021953255,163.76498487137724 16.50109890080057,174.45808068534825 15.195604395586997,178.4353551582899 17.747252747183666,180.45658561727032 14.839560439344496,179.08736552775372 13.0,182.67341329919873 15.195604395586997,185.08583661878947 33.17582417582162,193.9530613910756 38.635164834791794,195.90905395674054 40.29670329624787,194.93105825677048 43.67912087868899,182.99941686500097 44.450549450470135,176.4141197205754 38.516483516432345,171.65441660326906 35.905494505073875,170.87199701025384 23.740659340284765,163.30856914422475 21.8417582414113,163.6345804037992 20.595604395493865,165.78625146870036 14.898901098873466,179.34816953045083 20.951648351503536,182.6082125704852 22.850549450377002,182.2822088493267 25.46153846126981,184.30342983285664 29.378021977841854,185.02063608175376 36.38021978014149,188.34585686417995" stroke="#ff4300" stroke-linecap="round" stroke-linejoin="round" stroke-width="0.5"><title>2021-12-12 5.6km</title></polyline><polyline fill="none" points="181.1704545454122,193.56892531720223 186.61647727293894,182.44419992307667 186.38636363623664,179.2416058324743 179.94318181835115,174.9433722504764 170.58522727293894,173.17350630124565 168.20738636376336,173.76346194575308 164.06534090917557,169.21236704679905 161.1505681821145,168.03245036693988 159.9232954545878,169.29664675955428 155.0142045454122,188.59652459877543 155.1676136367023,192.64186932402663 153.09659090917557,193.48464753327426 154.6306818178855,193.56892531720223 155.39772727293894,191.79909044509986 156.0880681821145,182.9498717901879 160.9204545454122,168.62240887089865 165.90625000046566,169.29664675955428 181.3238636367023,177.2189098459785 187.0,177.4717470551841 158.6193181821145,164.32413225603523 153.71022727293894,183.5398219974595 147.95738636376336,180.5057888654992 140.28693181835115,178.5673742655781 138.21590909082443,179.2416058324743 135.22443181835115,177.4717470551841 133.7670454545878,177.97742129297694 133.46022727293894,181.3485767171369 137.83238636376336,183.03415041137487 138.9829545454122,178.9887690450414 134.45738636376336,177.4717470551841 133.53693181835115,180.7586252912879 137.1420454545878,182.69703588692937 139.13636363623664,179.74727922660531 135.14772727293894,177.13463076285552 133.61363636376336,178.5673742655781 133.69034090917557,181.2642979621305 137.3721590912901,182.61275723885046 139.36647727293894,179.2416058324743 134.1505681821145,177.72458420420298 133.53693181835115,181.0957404319197 137.3721590912901,182.69703588692937 139.28977272752672,179.2416058324743 135.68465909082443,177.6403051613015 134.38068181835115,178.5673742655781 133.69034090917557,180.0001158331288 137.06534090917557,182.5284785843105 138.67613636376336,182.02280651620822 139.44318181835115,179.66300034424057 135.07102272706106,177.4717470551841 133.61363636376336,178.14597931853496 133.0,180.5900676807505 137.5255681821145,182.69703588692937 139.28977272752672,179.83155810204335 138.0625,178.90449010260636 140.28693181835115,178.48309528961545 152.5596590912901,183.03415041137487 155.1676136367023,176.12328124267515 158.4659090912901,177.80886324041057 160.7670454545878,168.11673017323483 164.06534090917557,168.45384933194146 186.76988636376336,179.57872145541478 185.15909090917557,185.8996195445652 180.1732954545878,195.67586774396477" stroke="#ff8c00" stroke-linecap="round" stroke-linejoin="round" stroke-width="0.5"><title>2021-12-11 5.0km</title></polyline><polyline fill="none" points="29.454946785932407,213.08314486552263 31.02426505018957,213.0 31.445301657775417,217.7392376990756 31.2539213814307,229.75344191250042 31.942890375386924,238.85746022628155 32.172546706860885,266.6258838950889 35.043250848772004,267.0 36.114980394952,266.5843154237082 37.7991268245969,263.3003964665404 36.95705360965803,259.6839065615204 36.88050149939954,249.33313446547254 38.143611321691424,248.33545961536583 46.94710402330384,248.2938897915301 47.78917723800987,255.98425488601788 50.545053214300424,261.9701959878148 49.4733236678876,264.79686824348755 46.640895581338555,266.2101990421361 44.61226465459913,266.5843154237082 36.612569112796336,265.9192194622592 36.03842828446068,266.4596099908522 33.129448087420315,266.7090208288573 32.13427065173164,266.2517675412819 32.36392698297277,242.55722461722326 31.483577712904662,233.95211708181887 31.560129823395982,216.36735721226432 31.17736927093938,214.12245464598527 31.215645326301455,217.4898051324708 31.33047349192202,213.20786214069813 29.646327062044293,213.12471729359822" stroke="#ff9500" stroke-linecap="round" stroke-linejoin="round" stroke-width="0.5"><title>2021-12-05 4.9km</title></polyline><polyline fill="none" points="157.58084368240088,213.12817053380422 161.19974418985657,213.17089403880527 161.86845406633802,267.0 162.41915631759912,264.5649820903491 162.1831410669256,237.43733416550094 161.63243881589733,235.42941037897253 161.35708769015037,213.0 161.27841594000347,234.9594697614957 161.86845406633802,236.79650818347 161.23908006493002,214.36715089413337" stroke="#ffff00" stroke-linecap="round" stroke-linejoin="round" stroke-width="0.5"><title>2021-12-04 4.1km</title></polyline></svg>