<?xml version="1.0" encoding="utf-8" ?>
<svg baseProfile="full" height="300mm" version="1.1" viewBox="0,0,200,300" width="200mm" xmlns="http://www.w3.org/2000/svg" xmlns:ev="http://www.w3.org/2001/xml-events" xmlns:xlink="http://www.w3.org/1999/xlink"><defs /><rect fill="#222222" height="300" width="200" x="0" y="0" /><text fill="#FFFFFF" style="font-size:12px; font-family:Arial; font-weight:bold;" x="10" y="20">Over 4 km Runs</text><text fill="#FFFFFF" style="font-size:4px; font-family:Arial" x="10" y="280">ATHLETE</text><text fill="#FFFFFF" style="font-size:9px; font-family:Arial" x="10" y="290">lizhimiao</text><text fill="#FFFFFF" style="font-size:4px; font-family:Arial" x="120" y="280">STATISTICS</text><text fill="#FFFFFF" style="font-size:3px; font-family:Arial" x="120" y="285">Number: 5</text><text fill="#FFFFFF" style="font-size:3px; font-family:Arial" x="120" y="290">Weekly: 1.7</text><text fill="#FFFFFF" style="font-size:3px; font-family:Arial" x="141" y="285">Total: 23.8 km</text><text fill="#FFFFFF" style="font-size:3px; font-family:Arial" x="141" y="290">Avg: 4.8 km</text><text fill="#FFFFFF" style="font-size:3px; font-family:Arial" x="167" y="285">Min: 4.1 km</text><text fill="#FFFFFF" style="font-size:3px; font-family:Arial" x="167" y="290">Max: 5.6 km</text><polyline fill="none" points="80.93303064676002,92.8531450034352 85.75482406327501,82.7063286663033 85.18274687835947,80.19205920724198 80.27922814944759,78.39614902622998 78.56299659470096,76.15125728643034 59.27582292817533,67.80022086587269 57.23269012477249,69.41655531164724 55.59818388149142,76.15125728643034 53.146424517035484,75.88186997827142 55.18955732090399,66.45327372825705 54.45402951166034,64.83693504380062 26.74914869433269,47.32645110972226 23.56186152016744,47.59584522538353 14.326901248190552,67.08184925885871 14.0,68.87777742010076 25.0329171391204,76.3308487898903 33.61407491425052,77.13901020144112 49.71396140707657,83.42469034157693 51.185017025563866,82.7063286663033 54.20885357493535,70.67370272718836 54.45402951166034,65.01652834517881 49.22360953409225,59.898108073160984 24.951191827189177,47.14685499668121 14.408626560121775,68.42879564722534 23.48013620870188,75.07370766764507 51.34846764989197,83.60428068903275 51.75709421047941,78.21655785106122 53.881952326279134,79.83287739939988 57.396140748634934,72.29003306326922 57.396140748634934,68.87777742010076 59.60272417683154,67.97981369623449 64.17934165662155,69.32675901427865 81.09648127108812,78.66553573531564 85.10102156596258,79.47369547723792 86.0,81.89817123592366" stroke="#fff500" stroke-linecap="round" stroke-linejoin="round" stroke-width="0.5"><title>2021-12-13 4.2km</title></polyline><polyline fill="none" points="180.3032967033796,92.86379578255583 186.0,81.82327853539027 185.60439560422674,79.2152660691645 160.99780219746754,67.13139384356327 159.25714285718277,67.73993736307602 158.07032966986299,71.13038791675353 153.95604395586997,89.47341257467633 159.3362637362443,67.13139384356327 130.45714285690337,48.26637685345486 125.94725274667144,48.26637685345486 118.5890109888278,63.21932028088486 117.16483516478911,68.87008871510625 125.63076923042536,74.34695949906018 133.78021977981552,75.65097231144318 148.8923076922074,82.4318138830713 152.0571428569965,82.51874747645343 156.01318681286648,67.39219825051259 155.53846153849736,64.87108638038626 146.20219780225307,57.48158708435949 134.88791208760813,51.91769585269503 129.50769230769947,47.136204217444174 126.02637362619862,48.353313161816914 118.66813186788931,62.6107742471504 116.92747252760455,67.91380687773926 120.32967032957822,70.60878082300769 116.45274725276977,68.78315403702436 114.0,73.5645510655595 116.92747252760455,76.7811154917581 140.90109890140593,88.60408185474807 148.18021978018805,91.21207194234012 150.3956043953076,89.90807767567458 154.90549450507388,73.99922248662915 155.93406593427062,65.21882629406173 148.021978022065,58.87255547102541 144.5406593400985,57.829329346946906 128.3208791203797,47.74475885898573 125.7890109885484,48.17944053839892 124.12747252732515,51.04833529156167 116.53186813183129,69.13089270726778 124.60219780215994,73.47761676064692 127.13406593399122,73.042945132358 130.61538461502641,75.73790644377004 135.8373626372777,76.69418144231895 145.17362637352198,81.12780915218173" stroke="#ff0000" stroke-linecap="round" stroke-linejoin="round" stroke-width="0.5"><title>2021-12-12 5.6km</title></polyline><polyline fill="none" points="78.22727272752672,168.0919004229363 85.48863636422902,153.2589332307689 85.18181818211451,148.9888077765936 76.59090909175575,143.25782966730185 64.11363636422902,140.89800840162206 60.94318181835115,141.68461592763197 55.420454545877874,135.61648939573206 51.534090909641236,134.04326715588104 49.89772727293894,135.72886234603357 43.352272727526724,161.46203279832844 43.55681818258017,166.85582576529123 40.795454545877874,167.97953004436567 42.84090909129009,168.0919004229363 43.86363636422902,165.73212059342768 44.784090909641236,153.9331623868784 51.227272727526724,134.82987849449273 57.87500000046566,135.72886234603357 78.43181818258017,146.29187979456037 86.0,146.62899607350118 48.159090909641236,129.09884300804697 41.61363636422902,154.71976266324054 33.94318181881681,150.67438515392132 23.715909091290087,148.08983235398773 20.95454545505345,148.9888077765936 16.965909091290087,146.62899607350118 15.022727273404598,147.3032283905195 14.613636363763362,151.79810228955466 20.44318181835115,154.04553388175555 21.977272727992386,148.6516920600552 15.94318181881681,146.62899607350118 14.715909091290087,151.01150038838387 19.522727272938937,153.59604784916155 22.18181818211451,149.66303896869067 16.863636364229023,146.17950768372975 14.81818181881681,148.08983235398773 14.920454545877874,151.6857306160964 19.82954545505345,153.48367631842848 22.488636364229023,148.9888077765936 15.534090909641236,146.96611227223184 14.715909091290087,151.4609872425208 19.82954545505345,153.59604784916155 22.3863636367023,148.9888077765936 17.57954545505345,146.85374021495227 15.840909091290087,148.08983235398773 14.920454545877874,150.00015444413293 19.420454546343535,153.37130477908067 21.56818181881681,152.69707535486668 22.590909091290087,149.5506671256153 16.7613636367023,146.62899607350118 14.81818181881681,147.52797242463566 14.0,150.78675690758973 20.034090910106897,153.59604784916155 22.3863636367023,149.77541080268566 20.75000000046566,148.53932013676967 23.715909091290087,147.97746038611513 40.07954545505345,154.04553388175555 43.55681818258017,144.83104165678378 47.95454545505345,147.07848432054743 51.0227272734046,134.15564023086336 55.420454545877874,134.6051324425498 85.69318181881681,149.43829527380876 83.54545454634354,157.86615939275362 76.89772727293894,170.90115699195303" stroke="#ff6300" stroke-linecap="round" stroke-linejoin="round" stroke-width="0.5"><title>2021-12-11 5.0km</title></polyline><polyline fill="none" points="135.93992904783227,114.11085982067743 138.03235340025276,114.0 138.5937355433125,120.31898359878687 138.33856184175238,136.33792254998116 139.25718716718256,148.47661363502266 139.56339560891502,185.50117852678522 143.39100113138556,186.0 144.81997385970317,185.44575389823876 147.06550243287347,181.06719528872054 145.9427381460555,176.2452087486745 145.84066866571084,162.44417928729672 147.52481509558856,161.11394615384052 159.26280536409467,161.05851972202072 160.38556965067983,171.31233984802384 164.06007095216773,179.29359465040034 162.6310982236173,183.06249099131674 158.8545274415519,184.94693205616204 156.14968620589934,185.44575389823876 145.48342548357323,184.55895928299287 144.71790437912568,185.27947998780292 140.8392641164828,185.61202777182916 139.5123608687427,185.00235672172857 139.81856931047514,153.40963282296434 138.64477028371766,141.93615610909183 138.74683976429515,118.48980961635243 138.2364923611749,115.49660619464703 138.28752710158005,119.98640684329439 138.4406313225627,114.27714952093083 136.19510274915956,114.16628972475883" stroke="#ff6f00" stroke-linecap="round" stroke-linejoin="round" stroke-width="0.5"><title>2021-12-05 4.9km</title></polyline><polyline fill="none" points="46.77445824327879,194.1708940450917 51.599658919963986,194.22785871842643 52.49127208860591,266.0 53.22554175672121,262.75330945377937 52.91085475613363,226.58311222068733 52.1765850877855,223.9058805052773 51.80945025361143,194.0 51.70455458690412,223.2792930153082 52.49127208860591,225.7286775779794 51.65210675331764,195.8228678588639" stroke="#ffff00" stroke-linecap="round" stroke-linejoin="round" stroke-width="0.5"><title>2021-12-04 4.1km</title></polyline></svg>