<?xml version="1.0" encoding="utf-8" ?>
<svg baseProfile="full" height="300mm" version="1.1" viewBox="0,0,200,300" width="200mm" xmlns="http://www.w3.org/2000/svg" xmlns:ev="http://www.w3.org/2001/xml-events" xmlns:xlink="http://www.w3.org/1999/xlink"><defs /><rect fill="#222222" height="300" width="200" x="0" y="0" /><text fill="#FFFFFF" style="font-size:12px; font-family:Arial; font-weight:bold;" x="10" y="20">Over 4 km Runs</text><text fill="#FFFFFF" style="font-size:4px; font-family:Arial" x="10" y="280">ATHLETE</text><text fill="#FFFFFF" style="font-size:9px; font-family:Arial" x="10" y="290">lizhimiao</text><text fill="#FFFFFF" style="font-size:4px; font-family:Arial" x="120" y="280">STATISTICS</text><text fill="#FFFFFF" style="font-size:3px; font-family:Arial" x="120" y="285">Number: 15</text><text fill="#FFFFFF" style="font-size:3px; font-family:Arial" x="120" y="290">Weekly: 2.1</text><text fill="#FFFFFF" style="font-size:3px; font-family:Arial" x="141" y="285">Total: 86.2 km</text><text fill="#FFFFFF" style="font-size:3px; font-family:Arial" x="141" y="290">Avg: 5.7 km</text><text fill="#FFFFFF" style="font-size:3px; font-family:Arial" x="167" y="285">Min: 4.1 km</text><text fill="#FFFFFF" style="font-size:3px; font-family:Arial" x="167" y="290">Max: 10.0 km</text><polyline fill="none" points="33.4836653387174,39.81685859162826 25.39442231087014,35.08905510662589 22.812749003525823,35.56183630041778 12.74422310711816,56.74224106827751 16.186454182956368,59.76798240235075 27.373705178964883,65.91399580275174 30.041434262879193,65.4412266680738 50.78087649401277,73.28916998382192 55.60000000009313,55.60758608416654 55.083665339276195,53.62193725921679 49.57609561784193,48.61052310955711 28.492430278565735,36.31828581972513 23.24302788777277,34.99449884518981 13.088446214795113,55.51303145347629 12.830278884153813,57.309568154392764 18.251792828086764,61.56451267946977 26.599203187506646,66.19765719317365 31.84860557736829,66.57587227562908 49.92031872551888,73.00551028351765 55.427888446487486,54.94570351077709 45.10119521897286,46.15208581020124 36.66772908344865,42.18075328983832 26.341035856399685,34.71083001617808 23.587250995915383,34.89994257665239 12.399999999906868,57.309568154392764 21.780079680960625,64.11747209192254 29.094820716883987,66.00854960700963 28.14820717088878,70.2634630285902 32.19282868504524,72.7218505156925 34.946613545529544,69.31792802736163 30.4717131475918,67.04864095931407 28.83665338670835,69.31792802736163 29.008764940313995,70.83078366867267 32.278884462080896,72.4381906799972 33.913944222964346,71.49265740683768 34.51633466081694,68.75060666596983 29.611155378632247,67.23774838040117 28.06215139431879,70.54712338233367 28.83665338670835,71.20899727847427 32.36494023865089,72.8164037790848 34.688446215353906,69.50703508767765 30.557768924161792,67.23774838040117 30.385657370090485,65.63033434457611 50.86693227104843,72.6272972447332 55.34183266945183,54.94570351077709 50.60876494040713,49.27240920695476 28.492430278565735,36.6965103992261" stroke="#ffd600" stroke-linecap="round" stroke-linejoin="round" stroke-width="0.5"><title>2022-01-15 5.1km</title></polyline><polyline fill="none" points="99.65984251955524,39.984370385762304 89.79527559084818,35.31240672816057 78.57007873989642,57.363912226166576 82.31181102385744,60.16704007983208 93.11181102367118,65.02577919745818 116.32755905529484,72.22041371138766 121.17480314942077,55.68203230644576 115.13700787350535,48.48729660583194 108.84409448783845,46.05789538868703 92.34645669301972,35.31240672816057 89.28503936994821,35.21896726579871 78.74015748081729,57.73766299278941 92.85669291298836,64.5585936162388 115.90236220462248,72.50072325614747 117.94330708682537,69.32387783681042 121.08976377965882,55.40171875257511 114.71181102329865,48.767611807910725 96.34330708626658,37.83526940876618 89.02992125973105,35.40584618318826 78.57007873989642,56.89672360080294 95.32283464539796,65.58640165010002 93.87716535432264,69.9779349481687 95.49291338538751,71.09917486424092 98.97952755913138,72.50072325614747 100.93543307110667,68.95013075252064 96.76850393693894,66.80108271387871 94.6425196849741,70.72542834433261 99.06456692935899,72.31385023344774 100.25511811021715,70.6319916958455 100.8503937004134,68.85669396293815 96.76850393693894,67.08139355003368 94.81259842496365,68.66982036142144 94.72755905520171,71.00573824543972 99.06456692935899,72.59415975608863 100.8503937004134,69.23044107679743 96.25826771650463,66.70764575328212 94.30236220452935,69.88449824019335 97.9590551177971,72.31385023344774 99.40472440933809,71.94010409980547 100.59527559019625,68.48294673045166 96.08818897651508,66.98795661202166 94.5574803147465,69.51075133425184 94.2173228347674,70.44511837640312 98.29921259870753,72.78103273408487 101.53070866130292,67.92232565861195 116.66771653527394,72.59415975608863 121.60000000009313,55.40171875257511 121.08976377965882,53.62639802694321 111.73543307045475,46.99228106625378 90.22047244105488,35.21896726579871 84.09763779491186,45.03007028566208 78.39999999990687,57.17703679820988 78.99527559056878,58.20485128369182 114.79685039352626,72.31385023344774 117.60314960591495,70.25824502750766 119.98425196809694,62.409537551691756 120.83464566944167,53.90671200386714 111.31023622024804,46.4316497487016 91.2409448819235,35.21896726579871 89.45511810993776,35.49928563111462 78.57007873989642,57.457349928910844 94.98267716588452,65.21265337790828 93.96220472455025,70.44511837640312 98.97952755913138,71.75323098828085 100.76535433111712,68.57638354960363 96.51338582672179,66.89451966655906 94.2173228347674,69.88449824019335 98.97952755913138,72.0335406443337 100.93543307110667,68.66982036142144 97.9590551177971,66.98795661202166 99.31968503911048,65.96014980319887 116.66771653527394,72.50072325614747 120.91968503966928,54.56077769037802 111.73543307045475,46.80540399020538 92.43149606278166,35.49928563111462 89.71023622015491,35.40584618318826 85.5433070869185,41.66627275804058 78.91023622080684,56.4295347899897 79.33543307101354,57.831100665731356 87.49921259842813,60.914539712364785 92.0913385823369,64.18484501750208 116.15748031483963,72.78103273408487 121.08976377965882,55.49515661143232 114.20157480286434,48.30041976750363 97.78897637780756,38.95653997384943" stroke="red" stroke-linecap="round" stroke-linejoin="round" stroke-width="0.5"><title>2022-01-14 10.0km</title></polyline><polyline fill="none" points="166.3880239520222,39.55168793944176 155.60958083812147,35.00393769110087 145.17604790395126,55.27919048734475 144.9173652692698,57.932001794921234 174.40718562854454,69.96432184544392 183.63353293389082,72.33287448168267 187.34131736541167,53.66855217097327 156.21317365253344,35.00393769110087 154.57485029939562,35.856642183847725 144.39999999990687,57.174056309391744 159.31736526917666,65.03771729161963 182.7712574847974,73.18555227899924 183.54730538884178,72.42761648946907 187.59999999962747,56.2266237748554 187.16886227484792,53.47906516713556 156.55808383179829,34.81444772100076 152.41916167689487,39.835921753779985 144.4862275449559,56.88982662803028 161.12814371241257,65.2272024586564 161.990419161506,66.74308271007612 160.35209580790251,70.34329058346339 164.7497005984187,72.80658444447909 166.56047904165462,68.6379303142894 162.24910179618746,67.21679489326198 160.43832335295156,70.43803274910897 161.990419161506,71.38545399182476 161.2143712574616,71.8591643308755 164.66347305383533,72.80658444447909 166.90538922185078,69.58535298728384 162.93892215564847,67.21679489326198 160.78323353268206,70.81700133671984 165.09461077814922,72.99606837669853 166.9916167659685,69.77483743138146 162.33532934077084,66.83782516163774 160.43832335295156,70.2485484102508 164.49101796373725,72.61710048199166 168.02634730516002,68.16421869548503 183.54730538884178,72.61710048199166 186.91017964016646,59.637377376202494 186.9964071852155,54.04752608819399 178.80479041859508,48.7418802853208 177.33892215555534,46.08904853055719 168.02634730516002,41.16234532580711" stroke="#ffd700" stroke-linecap="round" stroke-linejoin="round" stroke-width="0.5"><title>2022-01-09 5.1km</title></polyline><polyline fill="none" points="34.173493975773454,88.27483093249612 22.983132530003786,82.8418457400985 12.486746987327933,105.90803437819704 27.320481927599758,113.72374975285493 33.91325301211327,114.8675087072188 51.08915662672371,121.15816346218344 55.60000000009313,102.38141442625783 25.759036144707352,83.03247721598018 22.375903614331037,83.41374007705599 12.399999999906868,105.2408368041506 22.722891565877944,112.19873611745425 30.009638553950936,113.34249652572908 49.614457831252366,121.4441015307093 51.175903614610434,120.77691259782296 54.21204819297418,110.6737205432728 54.99277108442038,101.42827211890835 24.544578312896192,82.5558984692907 22.722891565877944,82.5558984692907 21.6819277103059,84.17626543552615 12.399999999906868,105.05020885763224 22.462650602217764,111.6268555043498 28.881927710492164,113.91437632101588 28.534939758945256,119.06128220912069 32.959036144427955,121.34878884884529 34.34698795154691,116.86908425285947 30.009638553950936,114.77219550253358 27.927710843272507,118.20346609456465 32.612048192415386,121.34878884884529 34.52048192732036,117.15502334397752 30.356626505497843,115.05813509330619 28.274698794819415,117.8222142913146 28.014457831159234,118.68003067828249 32.959036144427955,121.0628507573856 34.52048192732036,116.67845815420151 30.18313253019005,114.96282190398779 28.014457831159234,118.20346609456465 32.17831325298175,120.77691259782296 34.86746987933293,117.05971032101661 29.749397590290755,114.96282190398779 28.014457831159234,118.29877902660519 33.04578313231468,121.0628507573856 34.693975903559476,117.53627535921987 31.484337348956615,115.53470092685893 32.17831325298175,114.96282190398779 49.70120481913909,121.0628507573856 51.436144578270614,120.68159986287355 55.07951807230711,102.00015759421512 48.92048192769289,96.09066120127682 46.66506024077535,96.28129057167098 32.43855421664193,86.74978494201787" stroke="#ffc500" stroke-linecap="round" stroke-linejoin="round" stroke-width="0.5"><title>2022-01-08 5.5km</title></polyline><polyline fill="none" points="116.87115165311843,116.96511866839137 121.5999999998603,108.3055107028922 120.81185860862024,106.46532982838107 115.83671607729048,104.73339034628589 105.29532497143373,99.2669274720829 104.35940706939436,99.8081633769325 103.52200684137642,105.05812933458947 100.27092360286042,104.08391190529801 101.84720638510771,103.54267939802958 102.7338654503692,98.29270175995771 99.72907639667392,95.47826409741538 85.39475484588183,87.14313049102202 83.91698973765597,87.3596287582186 78.49851767369546,99.8081633769325 84.9514253132511,104.62514398252824 88.2025085517671,104.84163669298869 99.72907639667392,108.84673942590598 99.43352337484248,109.38796771882335 95.3450399087742,107.43954385182587 93.8672748003155,111.17401803447865 94.31060433294624,112.03998013830278 96.82280501700006,113.33892122976249 99.33500570105389,111.22814069810556 101.1575826681219,106.57357589964522 102.98015963495709,98.56332015316002 99.82759407046251,95.04527265549405 95.68985176715069,93.47567637154134 84.40957810683176,87.08900591346901 78.39999999990687,99.59166906657629 82.8332953248173,103.70504919544328 86.82326111732982,105.22049877070822 93.81801596353762,106.24883763393154 98.30057012522593,108.52200224372791 100.41870011389256,108.79261657298775 103.1279361457564,99.15868023963412 102.7338654503692,98.18445437261835 100.27092360286042,96.77723677130416 100.36944127688184,96.01950301253237 98.0542759404052,95.47826409741538 85.24697833508253,87.08900591346901 84.311060433276,87.30550419783685 83.52291904203594,88.76686581684044 78.59703534771688,100.1329047132167 83.81847206363454,104.24628157366533 100.27092360286042,108.63024798838887 102.24127708072774,101.97310269501759 101.89646522235125,99.42929828865454 97.70946408202872,94.23341296019498 87.90695552993566,88.38799458707217 85.0006841502618,87.03488133166684 84.16328392224386,87.57612695643911 78.6462941847276,100.24115179106593 86.37993158469908,104.89575985987904 91.55210946407169,105.7076068468159 100.17240592907183,108.79261657298775 100.91128848330118,105.7076068468159 103.1771949827671,105.4911144116777 103.52200684137642,104.84163669298869 104.35940706939436,100.45764589484315 107.41345495986752,100.45764589484315" stroke="#ff7b00" stroke-linecap="round" stroke-linejoin="round" stroke-width="0.5"><title>2022-01-07 7.2km</title></polyline><polyline fill="none" points="157.36752878990956,80.39999999999418 159.31974842748605,80.73130419713561 159.4417621549219,94.6789885542239 160.05183079151902,101.43733022245578 160.17384451883845,118.76339727538289 159.83830676868092,120.41977394968853 160.20434795087203,122.97058205248322 162.49210533848964,123.60000000000582 163.7732494758675,122.60618178397999 164.50533183978405,120.1878815839591 163.8952632030705,119.45907622436062 163.7732494758675,117.76956833156873 163.7732494758675,109.58695956578595 165.02389018109534,108.65936695487471 172.34471382224,108.75875196934794 171.82615548092872,112.53536618206999 172.74125843611546,115.84815945607261 174.57146434637252,118.66401448019315 174.63247121009044,119.72409649228211 173.96139570965897,121.64548874655156 171.9176657764474,123.20247297815513 164.96288331749383,123.16934571033926 164.71885586285498,122.04301714978646 164.0477803623071,122.00988979631802 163.80375290766824,122.63930909341434 164.38331811258104,122.8380728981574 164.8408695901744,122.37429054974928 164.13929065782577,121.84425299221766 164.07828379410785,122.67243640028755 164.74935929465573,122.17552653912571 164.13929065782577,121.97676244046306 164.16979408962652,122.8380728981574 164.8408695901744,122.57305447210092 164.2613043851452,121.97676244046306 162.98016024800017,123.23560024338076 160.7229062920669,123.33498202462215 159.9908239278011,122.8049456035078 160.02132735971827,99.88027034859988 159.5027690185234,95.7391273236135 159.3502518592868,80.76443460339215 159.28924499556888,97.52810580746154 159.74679647316225,98.85327044830774 159.4417621549219,86.13152805509162" stroke="#ffaa00" stroke-linecap="round" stroke-linejoin="round" stroke-width="0.5"><title>2022-01-01 6.1km</title></polyline><polyline fill="none" points="50.54678899073042,164.5338125990238 51.53761467896402,164.80597543739714 53.22201834851876,162.51980423612986 55.302752293413505,158.05630514252698 55.5999999998603,155.3890783888055 39.89541284390725,146.9518641566392 38.85504587111063,147.65950547152897 37.7155963301193,152.8851417824044 35.68440366955474,152.9395752842538 36.77431192644872,145.9720518985414 20.227522935718298,135.5750688247499 18.047706421930343,135.5750688247499 12.598165137227625,146.67969422554597 12.548623853130266,148.2582783207763 20.425688073271886,152.8851417824044 22.159633027389646,153.0484422747395 21.61467889882624,156.09671098861145 24.24036697228439,157.18537509941962 25.18165137572214,155.11691180965863 22.55596330249682,153.32060967572033 21.961467889603227,155.66124485980254 24.33944954094477,156.96764241572237 25.08256880706176,155.11691180965863 22.407339449273422,153.4839100644458 21.961467889603227,155.98784448235529 24.091743119060993,156.91320923384046 25.18165137572214,154.95361181040062 22.853211008943617,153.5927769683767 21.66422018315643,155.3890783888055 23.943119265837595,156.8587760477676 24.537614678731188,156.8587760477676 25.33027522917837,154.7358784172102 22.357798164943233,153.42947660578648 21.61467889882624,155.55237828445388 24.141284403624013,156.96764241572237 24.933944953838363,154.51814495504368 22.60550458682701,153.37504314287798 21.961467889603227,154.24597802996868 21.76330275228247,155.44351169175934 24.091743119060993,156.8587760477676 25.18165137572214,154.62701169482898 22.357798164943233,153.97381099668564 21.71376146771945,155.55237828445388 23.59633027506061,156.8043428574456 24.587155963061377,156.5866100526182 26.12293577985838,154.02824441192206 34.24770642188378,156.96764241572237 37.22018348611891,147.55063762445934 36.62568807299249,146.08091999636963 24.43853211007081,137.80689524672925 22.308256880380213,137.26254800945753 19.335779816377908,135.19402456260286 18.19633027492091,135.35732927237405 12.399999999906868,147.60507155017694 21.218348623486236,152.2863729770179 33.85137614654377,156.96764241572237 34.74311926588416,156.53217684052652 37.022018348565325,147.55063762445934 36.77431192644872,145.9176178430207 19.385321100708097,135.35732927237405 18.394495412474498,135.30289437342435 12.548623853130266,147.16960002371343 12.746788990683854,148.1494105689926 14.431192660238594,149.34695488784928 20.87155963270925,152.77627476589987 24.834862385177985,153.37504314287798 34.396330275107175,157.34867456683423 35.63486238499172,152.8851417824044 35.98165137600154,152.2863729770179 36.52660550433211,154.95361181040062 38.755963302450255,148.1494105689926 39.647706421790645,147.55063762445934 54.70825688051991,154.51814495504368" stroke="#ff8000" stroke-linecap="round" stroke-linejoin="round" stroke-width="0.5"><title>2021-12-24 7.1km</title></polyline><polyline fill="none" points="119.43261117418297,162.71903466957156 121.5999999998603,158.280971835542 120.71334093483165,156.44079096103087 117.21596351196058,155.19595990335802 111.84675028477795,151.19083584897453 105.34458380844444,149.4588830183493 103.66978335217573,152.27330413192976 103.57126567838714,156.06192957557505 101.50239452673122,155.03359046723926 103.27571265678853,157.0902671313961 103.52200684137642,154.97946731332922 102.29053591773845,153.78875683801016 103.1771949827671,149.62125378329074 102.29053591773845,147.13156446727226 100.81277080927975,145.45372523006517 95.93614595197141,143.88412994384998 86.72474344354123,137.65983716241317 84.11402508546598,137.28096533048665 78.39999999990687,150.21661292371573 83.81847206363454,153.68051032809308 90.91174458363093,156.38666791887954 88.39954389957711,155.35832930082688 87.51288483454846,156.76552912365878 87.61140250856988,157.79386561724823 89.7295324972365,158.87632340716664 91.15803876845166,156.60316006169887 88.69509692117572,155.4665755443275 87.8084378563799,156.11605264351238 87.66066134558059,157.73974268266466 89.9758266818244,158.98456909158267 91.05952109443024,156.54903703229502 88.2025085517671,155.35832930082688 87.36510832398199,157.3608820196241 89.77879133378156,158.87632340716664 91.15803876845166,156.71140610717703 88.30102622578852,155.7913141712197 87.85769669315778,157.63149680040078 89.68027365999296,158.71395484829554 91.01026225788519,156.71140610717703 88.59657924738713,155.35832930082688 87.56214367155917,156.76552912365878 87.56214367155917,157.73974268266466 89.87730900803581,158.93044625164475 91.20729760546237,156.81965213565854 88.39954389957711,155.4665755443275 87.31584948673844,157.3608820196241 88.99064994300716,158.60570912103867 89.9758266818244,158.98456909158267 91.10877993144095,157.0902671313961 88.54732041037641,155.35832930082688 87.41436716052704,157.1985130996327 89.48323831241578,158.65983198676258 90.3698973772116,158.55158625089098 91.25655644247308,156.60316006169887 88.59657924738713,155.7913141712197 87.70992018235847,157.9562343954458 89.68027365999296,158.82220055855578 91.01026225788519,157.1443901177263 88.25176738877781,155.7371910774964 87.41436716052704,157.1443901177263 89.53249714919366,158.71395484829554 90.074344355613,158.93044625164475 91.10877993144095,156.98202114598826 88.25176738877781,155.41245242464356 87.75917901936918,157.63149680040078 89.63101482321508,158.65983198676258 91.05952109443024,156.9278981469106 88.39954389957711,155.250083040155 87.41436716052704,157.63149680040078 89.38472063839436,158.65983198676258 90.32063854066655,158.33509472728474 91.25655644247308,156.38666791887954 88.25176738877781,155.7371910774964 87.51288483454846,157.63149680040078 89.48323831241578,158.76807770563755 91.20729760546237,156.71140610717703 88.25176738877781,155.6830679794657 87.61140250856988,156.54903703229502 87.26659064972773,157.5773738528951 89.5817559864372,158.98456909158267 91.15803876845166,156.81965213565854 88.39954389957711,155.14183676237008 87.26659064972773,157.73974268266466 89.92656784481369,158.93044625164475 91.25655644247308,156.65728308656253 88.00547320395708,155.62894487706944 87.16807297593914,157.6856197437155 89.53249714919366,158.82220055855578 90.32063854066655,158.4433404976735 90.81322690984234,156.44079096103087 88.64583808439784,155.57482177042402 87.36510832398199,157.1985130996327 89.7295324972365,159.03869192738784 91.89692132244818,156.06192957557505 100.36944127711467,158.82220055855578 101.05906499410048,155.6830679794657 103.37423033057712,154.3299891303177 104.50718358019367,150.1624893869739 105.39384264522232,149.62125378329074 108.3986316989176,150.27073645603377 110.51676168758422,151.94856382766739" stroke="#ffaf00" stroke-linecap="round" stroke-linejoin="round" stroke-width="0.5"><title>2021-12-19 6.0km</title></polyline><polyline fill="none" points="181.71807780349627,164.71778887795517 182.80549199087545,164.989328788477 184.4860411901027,163.19716338574653 187.5999999998603,157.0060103862197 187.55057208263315,154.88797148648882 171.23935926775448,147.23039147414966 170.05308924498968,149.62000011943746 169.70709382160567,153.91041285760002 167.82883295207284,152.66130813065683 169.11395881022327,146.1442029644386 166.00000000023283,144.02613040566212 165.654004576616,143.04855624149786 162.49061784916557,142.12529046926647 156.65812356979586,137.72618348454125 150.77620137296617,135.010671211523 144.39999999990687,147.88210375147173 150.72677345527336,151.955291405553 154.38443935941905,152.4440722927684 153.5441647595726,154.83366271056002 155.27414187649265,156.7344673043699 157.2512585814111,154.50780996365938 154.28558352403343,153.3673241264769 153.59359267749824,155.26813279790804 155.86727688810788,156.84308455017162 157.2512585814111,154.45350115734618 154.28558352403343,153.3673241264769 153.89016018318944,156.1370721445419 155.81784897018224,156.4629241146613 157.2512585814111,154.72504514543107 154.53272311203182,152.71561707922956 154.18672768888064,155.59398518234957 156.26270022895187,156.35430680849822 157.05354691063985,154.50780996365938 154.73043478280306,153.15008851297898 153.59359267749824,155.10520654753782 154.38443935941905,155.81122001894983 156.36155606410466,156.29999814898474 157.30068649887107,153.80179514590418 154.63157894741744,153.42163301887922 153.98901601834223,154.2905747128534 153.69244851265103,155.213824052189 156.21327231125906,156.35430680849822 157.00411899317987,154.45350115734618 154.68100686487742,153.15008851297898 153.44530892465264,155.64829389797524 156.21327231125906,157.06031898973742 156.95469107548706,154.23626588925254 154.63157894741744,153.15008851297898 153.49473684234545,155.10520654753782 153.395881006727,155.70260260929354 155.76842105272226,156.78877592936624 157.3995423342567,154.61642756313086 156.95469107548706,154.2905747128534 154.73043478280306,153.25870632834267 153.59359267749824,154.99658902559895 156.11441647610627,156.84308455017162 157.30068649887107,154.39919234684203 154.38443935941905,153.31301522947615 153.44530892465264,155.26813279790804 155.66956521733664,156.6801586750662 157.00411899317987,155.213824052189 156.80640732264146,154.23626588925254 154.97757437080145,153.31301522947615 153.5441647595726,154.99658902559895 155.76842105272226,156.6258500413387 157.35011441656388,154.45350115734618 154.77986270026304,153.25870632834267 153.64302059495822,155.05089778878028" stroke="#fff500" stroke-linecap="round" stroke-linejoin="round" stroke-width="0.5"><title>2021-12-18 4.4km</title></polyline><polyline fill="none" points="50.83276450494304,212.60705989430426 55.40341296931729,204.99314967013197 52.946075085317716,202.1851612497121 43.7556313991081,197.05515244591516 39.92218430014327,195.759144094598 38.6935153582599,196.6771502653719 37.46484641637653,201.53716227447148 36.13788395887241,201.1051626143162 34.12286689411849,202.56316036666976 35.646416382165626,199.2151608725544 36.28532423195429,193.65312525240006 33.68054607510567,191.54709988378454 29.503071672050282,189.76507332047913 26.21023890771903,186.95702197932405 19.477133105508983,183.66294696275145 18.44505119463429,183.5549442327465 17.26552900997922,185.33698708133306 12.694880546070635,196.08314641413745 26.16109215002507,202.0771614635014 35.05665529007092,204.88515032990836 35.8921501704026,202.83315960725304 35.646416382165626,200.51116263325093 36.875085324048996,193.8151269335649 19.231399317272007,183.4469414857449 18.248464163625613,183.71694832114736 16.430034129647538,186.95702197932405 12.645733788143843,196.02914603834506 21.39385665534064,200.18716242472874 34.12286689411849,205.1011489930097 35.05665529007092,204.88515032990836 36.383617747575045,193.11311936978018 32.05870307167061,191.2230954017141 25.276450511766598,186.52501305087935 21.73788395896554,185.33698708133306 20.853242320707068,183.98695504944772 18.346757679013535,183.39294010569574 12.399999999906868,195.81314449186902 22.08191126282327,200.51116263325093 21.590443685883656,203.26515816897154 24.24436860042624,204.45315279794158 25.030716723529622,202.45516064052936 22.57337883929722,201.37516243406571 21.492150170495734,203.157158554357 22.327645051060244,203.80515598499915 24.342662116046995,204.18315420096042 25.42389078484848,201.69916207611095 34.46689419797622,204.6691515982384 35.40068259392865,201.53716227447148 37.90716723538935,200.2951625114074 38.349488054635,195.70514369301964 39.92218430014327,195.27314032567665 52.99522184301168,201.53716227447148 55.20682593830861,201.59116221265867 55.5999999998603,202.56316036666976 54.42047781543806,206.5591381730046" stroke="#ffaa00" stroke-linecap="round" stroke-linejoin="round" stroke-width="0.5"><title>2021-12-15 6.1km</title></polyline><polyline fill="none" points="118.55981838819571,211.71188700204948 121.45289443805814,205.62379719974706 121.10964812687598,204.11523552431026 118.16753688966855,203.03768941567978 117.13779795682058,201.69075437181164 105.56549375667237,196.68013251945376 104.33961407467723,197.64993318694178 103.35891032894142,201.69075437181164 101.88785471022129,201.52912198688136 103.11373439268209,195.87196423689602 102.67241770704277,194.90216102619888 86.04948921664618,184.39587066572858 84.1371169120539,184.55750713514863 78.5961407488212,196.24910955526866 78.39999999990687,197.3266664519906 85.01975028333254,201.7985092738527 90.16844494850375,202.2834061208414 99.82837684405968,206.05481420492288 100.71101021533832,205.62379719974706 102.52531214500777,198.40422163624316 102.67241770704277,195.00991700706072 99.53416572045535,191.93886484380346 84.97071509622037,184.28811299795052 78.6451759361662,197.05727738828864 84.08808172494173,201.04422460048227 100.80908058979549,206.16256841336144 101.05425652628765,202.92993471055524 102.32917139586061,203.89972643961664 104.4376844491344,199.37401983793825 104.4376844491344,197.3266664519906 105.76163450605236,196.7878882176592 108.50760499411263,197.59605540853227 118.65788876265287,203.19932144111954 121.06061293953098,203.68421728623798 121.5999999998603,205.13890274154255" stroke="#fffd00" stroke-linecap="round" stroke-linejoin="round" stroke-width="0.5"><title>2021-12-13 4.2km</title></polyline><polyline fill="none" points="184.1819780219812,211.7182774695102 187.5999999998603,205.09396712121088 187.3626373624429,203.52915964147542 172.59868131834082,196.27883630612632 171.55428571416996,196.6439624177874 170.8421978019178,198.67823274998227 168.37362637347542,209.68404754478252 171.60175824165344,196.27883630612632 154.27428571414202,184.95982611202635 151.56835164804943,184.95982611202635 147.1534065932501,193.93159216851927 146.29890109878033,197.32205322902882 151.37846153834835,200.60817569936626 156.26813186798245,201.39058338681934 165.3353846152313,205.45908832980786 167.23428571410477,205.5112484858255 169.60791208781302,196.43531895027263 169.32307692291215,194.92265182820847 163.7213186812587,190.48895225056913 156.9327472525183,187.15061751159374 153.70461538457312,184.28172253043158 151.61582417576574,185.01198789704358 147.2008791207336,193.56646454823203 146.1564835163299,196.7482841265737 148.1978021976538,198.3652684937697 145.87164835142903,197.26989242219133 144.39999999990687,200.13873063930077 146.1564835163299,202.06866929499665 160.540659340797,209.16244911280228 164.90813186788,210.72724316536915 166.23736263718456,209.94484660535818 168.94329670304433,200.39953349193092 169.56043956032954,195.1312957764021 164.81318681314588,191.32353328255704 162.72439560410567,190.69759760814486 152.99252747232094,184.64685531536816 151.47340659308247,184.9076643229928 150.4764835163951,186.6290011748788 145.91912087914534,197.47853562433738 150.76131868129596,200.08657005632995 152.2804395603016,199.82576707936823 154.36923076910898,201.44274386623874 157.50241758232005,202.0165088653448 163.1041758239735,204.67668549128575" stroke="#ffc000" stroke-linecap="round" stroke-linejoin="round" stroke-width="0.5"><title>2021-12-12 5.6km</title></polyline><polyline fill="none" points="50.936363636516035,256.85514025378507 55.29318181821145,247.95535993849626 55.10909090912901,245.39328466600273 49.95454545482062,241.95469780045096 42.46818181825802,240.53880504099652 40.56590909091756,241.01076955662575 37.25227272720076,237.3698936374858 34.92045454541221,236.42596029356355 33.938636363716796,237.43731740769 30.01136363646947,252.8772196790669 30.134090909268707,256.113495459198 28.477272727526724,256.78771802666597 29.704545454354957,256.85514025378507 30.31818181835115,255.43927235610317 30.870454545598477,248.35989743215032 34.73636363632977,236.89792709675385 38.72500000009313,237.43731740769 51.05909090931527,243.7751278767828 55.5999999998603,243.97739764413564 32.895454545738176,233.4593058048631 28.968181818258017,248.83185759803746 24.365909090964124,246.40463109238772 18.229545454727486,244.8538994124974 16.572727272752672,245.39328466600273 14.17954545468092,243.97739764413564 13.01363636390306,244.3819370343699 12.768181818071753,247.07886137376772 16.26590909087099,248.42732032912318 17.186363636516035,245.1910152360797 13.565909091150388,243.97739764413564 12.829545454820618,246.60690023307689 15.713636363623664,248.15762870956678 17.309090909082443,245.79782338126097 14.118181818164885,243.7077046103077 12.890909091103822,244.8538994124974 12.952272727387026,247.01143836975098 15.897727272938937,248.0902057911153 17.493181818397716,245.39328466600273 13.320454545551911,244.17966736335075 12.829545454820618,246.87659234553576 15.897727272938937,248.15762870956678 17.43181818188168,245.39328466600273 14.547727272845805,244.1122441290645 13.504545454634354,244.8538994124974 12.952272727387026,246.00009266653797 15.65227272757329,248.02278286748333 16.940909091150388,247.6182452130015 17.55454545468092,245.73040027543902 14.05681818164885,243.97739764413564 12.890909091103822,244.5167834548629 12.399999999906868,246.4720541446004 16.020454545738176,248.15762870956678 17.43181818188168,245.8652464816114 16.449999999953434,245.12359208212 18.229545454727486,244.7864762317622 28.047727272845805,248.42732032912318 30.134090909268707,242.89862499415176 32.77272727293894,244.2470905923401 34.61363636376336,236.4933841386228 37.25227272720076,236.76307946554152 55.41590909101069,245.66297716432018 54.12727272743359,250.7196956356638 50.13863636367023,258.5406941951951" stroke="#ffd900" stroke-linecap="round" stroke-linejoin="round" stroke-width="0.5"><title>2021-12-11 5.0km</title></polyline><polyline fill="none" points="91.56395742867608,224.4665158924181 92.81941204005852,224.40000000002328 93.15624132601079,228.19139015927794 93.00313710502815,237.80275353000616 93.55431230016984,245.08596818102524 93.73803736525588,267.3007071160828 96.03460067883134,267.6000000000058 96.89198431570549,267.26745233897236 98.23930145963095,264.64031717323815 97.56564288761001,261.7471252492105 97.5044011992868,253.46650757238967 98.51488905726,252.6683676922985 105.55768321838696,252.63511183322407 106.23134179029148,258.7874039088201 108.43604257120751,263.57615679025184 107.57865893410053,265.8374945947726 105.3127164648613,266.9681592337147 103.6898117235396,267.26745233897236 97.29005529009737,266.7353755698132 96.8307426274987,267.16768799268175 94.50355846981984,267.36721666308586 93.70741652115248,267.0014140330313 93.89114158623852,248.04577969378443 93.18686217011418,241.16169366546092 93.2481038585538,227.09388576980564 92.94189541658852,225.29796371678822 92.97251626092475,227.9918441059708 93.06437879346777,224.5662897125585 91.71706164942589,224.49977383489022" stroke="#ffdc00" stroke-linecap="round" stroke-linejoin="round" stroke-width="0.5"><title>2021-12-05 4.9km</title></polyline><polyline fill="none" points="164.06467494601384,224.50253642705502 166.9597953518387,224.53671523105004 167.49476325314026,267.6000000000058 167.93532505398616,265.65198567227344 167.74651285354048,243.9498673324124 167.30595105269458,242.3435283031722 167.085670152097,224.39999999999418 167.02273275202606,241.96757580921985 167.49476325314026,243.437206546776 166.99126405187417,225.49372071531252" stroke="#ffff00" stroke-linecap="round" stroke-linejoin="round" stroke-width="0.5"><title>2021-12-04 4.1km</title></polyline></svg>