<?xml version="1.0" encoding="utf-8" ?>
<svg baseProfile="full" height="300mm" version="1.1" viewBox="0,0,200,300" width="200mm" xmlns="http://www.w3.org/2000/svg" xmlns:ev="http://www.w3.org/2001/xml-events" xmlns:xlink="http://www.w3.org/1999/xlink"><defs /><rect fill="#222222" height="300" width="200" x="0" y="0" /><text fill="#FFFFFF" style="font-size:12px; font-family:Arial; font-weight:bold;" x="10" y="20">Over 2km Runs</text><text fill="#FFFFFF" style="font-size:4px; font-family:Arial" x="10" y="280">ATHLETE</text><text fill="#FFFFFF" style="font-size:9px; font-family:Arial" x="10" y="290">JiuGoe</text><text fill="#FFFFFF" style="font-size:4px; font-family:Arial" x="120" y="280">STATISTICS</text><text fill="#FFFFFF" style="font-size:3px; font-family:Arial" x="120" y="285">Number: 12</text><text fill="#FFFFFF" style="font-size:3px; font-family:Arial" x="120" y="290">Weekly: 2.0</text><text fill="#FFFFFF" style="font-size:3px; font-family:Arial" x="141" y="285">Total: 33.7 km</text><text fill="#FFFFFF" style="font-size:3px; font-family:Arial" x="141" y="290">Avg: 2.8 km</text><text fill="#FFFFFF" style="font-size:3px; font-family:Arial" x="167" y="285">Min: 2.1 km</text><text fill="#FFFFFF" style="font-size:3px; font-family:Arial" x="167" y="290">Max: 3.8 km</text><polyline fill="none" points="42.21616633469239,38.576233149447944 41.54713498847559,37.69577752245823 41.04536147834733,37.597949067596346 40.54358796868473,36.91314959351439 39.958185540977865,36.42400680127321 39.790927703958005,36.03269238054054 38.95463852165267,35.445720439136494 38.78738068416715,34.956576869415585 38.11834933841601,33.978288952901494 37.11480231862515,33.09782894176897 36.362142054364085,33.0 34.7731926064007,33.391315705375746 34.2714190967381,33.684802375908475 33.51875883247703,33.684802375908475 31.84618046693504,34.56526182725793 31.34440695680678,34.76091936911689 29.504570754244924,36.13052100135246 27.49747671559453,38.380576416209806 26.912074287422,38.478404787834734 26.075785104651004,38.967546492407564 25.155867003835738,39.750172680127434 24.654093493707478,40.63062634860398 24.23594890208915,41.90239127638051 23.73417539242655,42.39153116691159 23.90143322898075,43.36981017119251 23.232401882763952,45.71767555229599 22.981515128165483,46.108985868806485 22.396112699527293,46.304640964604914 20.7235343339853,47.77205286407843 19.385471641551703,48.554671590565704 17.963780030608177,50.1199070532457 18.047408948652446,50.60904259147355 17.880151112098247,51.00035083520925 18.131037867162377,51.48948590684449 18.131037867162377,52.272101482900325 18.381924621760845,53.152543213102035 18.214666785672307,54.13081081752898 19.55272947764024,53.837330645066686 20.13813190627843,53.935157379775774 20.0545029877685,54.42429089703364 20.3890186608769,55.598210281459615 20.80716325249523,55.98951641115127 21.894339189864695,55.7938633672311 22.479741618037224,55.7938633672311 22.897886209655553,55.598210281459615 23.73417539242655,55.69603682961315 25.657640512567014,55.69603682961315 26.159414022695273,55.500383723236155 29.086426163092256,55.2069039857015 32.180696139577776,54.42429089703364 32.933356404304504,54.22863752115518 35.60948178963736,54.32646421412937 38.70375176658854,54.03298410360003 41.71439282456413,53.64167714485666 43.219713354017586,53.3481968169217 46.31398333096877,53.152543213102035 47.90293277800083,53.25037002033787 49.49188222596422,52.9568895677221 50.495429245289415,52.9568895677221 51.080831673461944,52.859062729461584 52.58615220244974,53.152543213102035 52.7534100394696,54.71777088264935 52.58615220244974,55.500383723236155 52.7534100394696,57.35908656043466 53.00429679406807,57.94604457373498 52.92066787555814,58.435175966937095 53.00429679406807,58.92430710076587 53.00429679406807,59.51126411964651 53.673328140284866,61.46778482128866 53.924214895348996,62.93517262733076 54.342359486501664,63.619952805689536 54.258730568457395,64.40255810180679 54.593246241565794,67.04384608054534 54.593246241565794,68.60905020724749 54.76050407765433,69.09817595273489 54.67687515961006,69.97860164218582 54.92776191467419,71.34815104608424 55.17864866973832,71.8372753408621 55.51316434238106,73.98941916093463 55.34590650629252,74.47854205709882 55.34590650629252,75.45678707200568 56.09856677101925,78.48934003402246 56.68396919872612,80.05452476337086 56.76759811723605,81.22841156990035 57.01848487183452,81.81535441370215 57.938402973115444,82.50012059311848 58.44017648277804,82.40229688456748 57.18574270885438,82.30447316513164 56.93485595379025,81.91317818459356 56.26582460710779,81.81535441370215 53.08792571211234,82.79359165753704 52.41889436589554,83.08706262882333 51.49897626461461,82.98923898197245 48.65559304272756,83.77182786550839 45.64495198475197,84.35876909265062 43.136084435507655,84.9457099470892 42.71793984435499,85.23918023431906 42.46705308929086,85.63047380576609 39.12189635774121,86.41306045133388 37.28206015517935,86.60870700899977 37.61657582828775,86.90217676782049 38.11834933841601,87.0 38.53649393003434,86.8043535251054 38.95463852165267,87.0 38.62012284807861,86.70653027232038 41.29624823341146,86.11959053674946 43.721486864145845,85.63047380576609 43.972373618744314,85.23918023431906 44.55777604645118,84.9457099470892 47.317530350293964,84.45659259450622 48.07019061502069,84.45659259450622 50.913573836907744,83.28270989086013 52.16800761129707,83.18488626502221 55.01139083318412,82.40229688456748 57.687516218051314,81.81535441370215 60.4472705218941,81.13058772642398 61.78533321432769,81.22841156990035 62.11984888743609,81.71753063227516 60.4472705218941,81.32623540295754 58.35654756426811,81.52188303828007 57.269371626898646,81.81535441370215 56.76759811723605,81.13058772642398 55.76405109744519,78.09804343688302 55.17864866973832,75.9459091911558 55.09501975122839,73.5981206576107 54.84413299616426,73.0111725917086 54.76050407765433,70.76120155013632 54.425988405011594,68.0220989707741 54.258730568457395,66.94602073472925 54.84413299616426,66.75037001166493 55.34590650629252,66.35906844114652 56.51671136217192,66.35906844114652 57.01848487183452,66.6525446344749 57.520258381497115,66.4568938491866 58.69106323784217,65.18516273464775 59.94549701176584,64.40255810180679 60.4472705218941,63.8156041916227" stroke="#4dd2ff" stroke-linecap="round" stroke-linejoin="round" stroke-width="0.5"><title>2024-01-05 2.2km</title><desc>9223370332424059607</desc></polyline><polyline fill="none" points="80.99832635954954,58.97344544171938 82.12803347269073,59.13141298049595 83.48368200822733,59.50000371201895 85.02008368191309,59.815938410465606 86.46610878640786,60.026561432750896 88.04769874433987,60.342495801334735 89.53891213354655,60.65842997195432 91.03012552298605,60.92170829625684 92.56652719667181,61.23764210398076 94.10292887012474,61.553575713944156 95.59414225909859,61.869509125943296 96.99497907911427,62.13278681805241 98.66694560647011,62.39606437276234 100.24853556463495,62.76465271861525 101.78493723832071,63.02792994331685 103.2309623430483,63.34386243179324 104.8577405854594,63.6597947224509 106.21338912122883,63.923071480036015 107.6594142257236,64.18634810033836 109.19581589964218,64.39696929746424 110.73221757309511,64.76555618093698 112.1330543931108,65.08148758101743 113.66945606679656,65.34476359636756 114.934728033375,65.50272913996014 116.47112970682792,65.87131521524861 117.60083681973629,66.02928059379337 118.45941422600299,66.23990102144307 118.7757322175894,66.187245922687 119.67949790763669,66.39786628438742 119.95062761497684,66.55583149788436 121.4870292886626,66.87176177656511 122.25523012527265,66.92441680381307 122.52635983237997,67.08238185243681 124.28870292869397,67.50362174023758 124.8309623429086,67.71424155210843 124.74058577395044,67.97751619346673 124.28870292869397,68.76733929270995 123.65606694528833,70.08370837644907 123.33974895393476,70.76821894236491 123.38493723864667,71.13680116992327 123.52050209185109,71.45272857928649 123.74644351471215,71.5580376717553 124.10794979077764,71.61069220968056 124.42426778213121,71.82131030666642 124.5146443513222,72.03192831558408 124.37907949788496,72.55847295344574 124.8309623429086,72.87439947228995 125.01171548105776,73.13767142011784 124.96652719634585,73.50625191626023 125.05690376553684,73.76952353428351 126.18661087867804,74.6119917887554 126.14142259396613,74.87526282973704 126.77405857713893,75.2438420560793 127.0,75.19118789734785 126.77405857713893,75.34915035706945 126.32217573211528,75.08587956349947 126.14142259396613,74.76995442976477 126.14142259396613,74.50668333392241 125.91548117157072,74.24341210065177 125.55397489550523,74.29606635824894 125.37322175712325,74.03279501508223 124.87615062762052,73.66421490366338 124.8309623429086,73.34828887949698 124.9213389120996,73.03236265748274 124.74058577395044,72.82174506629235 124.37907949788496,72.61112738706288 124.24351464421488,72.3478551642329 124.28870292869397,71.76865579071455 124.06276150606573,71.5580376717553 123.475313807372,71.40007402474293 123.38493723864667,71.18945575199905 123.74644351471215,69.71512537932722 123.92719665239565,69.083268186223 124.24351464421488,68.55671992062707 124.42426778213121,68.03017110523069 124.65020920499228,67.81955142514198 124.65020920499228,67.50362174023758 124.42426778213121,67.3456568234833 123.97238493710756,67.39831180113833 123.11380753130652,67.08238185243681 121.93891213391908,66.87176177656511 120.40251046000049,66.45052136093727 118.82092050206847,66.187245922687 117.28451882838272,65.87131521524861 115.70292887021787,65.5553843099915 114.07615062757395,65.23945320688654 112.72050209180452,64.97617713629734 113.26276150601916,64.97617713629734 113.03682008362375,65.08148758101743 111.45523012522608,64.87086666960386 110.00920502073132,64.60759040672565 108.65355648519471,64.29165870987345 106.84602510440163,63.923071480036015 105.35481171542779,63.60713935433887 103.8184100415092,63.34386243179324 102.32719665253535,63.02792994331685 101.83012552279979,62.92261906983913 102.10125522990711,63.13324079493759 100.65523012541234,62.711997257050825 99.11882845172659,62.39606437276234 97.40167363989167,62.02747575766989 95.86527196620591,61.764198010612745 94.28368200804107,61.448264532577014 92.74728033435531,61.13233085666434 91.1656903764233,60.86905264231609 89.4033472801093,60.55311860359507 87.95732217561454,60.237184367113514 86.55648535559885,60.026561432750896 86.10460251034237,59.973905685474165 84.79414225928485,59.65797108600964 84.3422594142612,59.65797108600964 82.76066945586354,59.289380469941534 81.08870292874053,58.97344544171938 79.82343096216209,58.71016610041261 79.28117154794745,58.499542528326856 77.74476987426169,58.341574791498715 76.02761506242678,57.97298321351991 74.71715481136926,57.76235933363205 74.49121338897385,58.025639169703936 73.76820083661005,57.86767128453357 73.09037656872533,57.39376733219251 73.0,57.07783111650497 73.9037656900473,55.814084274927154 74.98828451847658,54.33970895738457 75.89205020898953,52.970642303233035 76.25355648505501,52.44407721582684 77.11213389108889,51.022348733997205 77.92552301241085,49.65327307465486 78.78410041821189,48.17887974664336 79.14560669427738,47.59965261697653 79.23598326346837,46.915110606118105 79.82343096216209,45.967281672521494 80.54644351452589,44.65084964293055" stroke="#4dd2ff" stroke-linecap="round" stroke-linejoin="round" stroke-width="0.5"><title>2024-01-01 3.0km</title><desc>9223370332789775707</desc></polyline><polyline fill="none" points="162.7739744912833,77.11904814455193 161.96027530683205,74.95215668645687 161.36849408224225,73.21863936260343 160.33287693932652,70.7050326790195 159.66712306113914,68.71147702587768 158.92739653075114,67.15129962749779 158.33561530616134,65.07105843984755 158.03972469363362,64.55099731165683 157.96575204096735,64.03093585075112 157.1520528565161,61.51730076695094 156.70821693819016,60.47717363201082 155.74657244840637,57.96352756291162 155.89451775420457,57.18342892715009 155.74657244840637,56.66336275404319 155.22876387648284,55.796585060073994 155.0068459175527,55.18984012439614 154.85890061128885,54.2363828822854 154.48903734609485,53.80299285706133 153.67533816210926,51.289326156605966 153.08355693751946,49.12236586760264 152.49177571292967,48.168901510711294 152.41780305979773,47.64882957242662 151.752049182076,45.56853849196341 151.45615856954828,45.13514384703012 151.01232265122235,43.48824208928272 150.2725961203687,42.18805413512746 150.2725961203687,41.58129904506495 149.82876020204276,40.97454350203043 149.60684224264696,39.32763331732713 149.31095163011923,38.98091495857807 150.05067816143855,37.940758995653596 149.38492428371683,35.860443077923264 149.01506101805717,35.42704325821251 147.97944387514144,33.086680240987334 147.23971734428778,33.0 146.94382673176005,33.260040695546195 145.53834632318467,33.52008130814647 144.058893261943,34.38688274897868 144.28081122087315,34.820283122884575 143.68902999628335,35.25368326593889 143.17122142529115,35.167003255628515 142.87533081276342,36.293842666142154 142.5794402002357,36.81392186740413 142.94930346589535,36.293842666142154 142.5794402002357,36.72724202374229 143.46711203735322,37.42068051506067 144.57670183340088,36.55388230847893 145.39040101738647,36.900601701869164 145.98218224197626,36.900601701869164 146.278072854504,37.24732094758656 146.4260181603022,38.46083714358974 147.31368999741971,40.627825845440384 148.05341652827337,42.44809189229272 148.94108836492524,43.6616003261297 150.05067816143855,45.91525404172717 150.34656877396628,46.52200589777203 150.19862346723676,47.21543603623286 151.23424061061814,49.20904438995058 152.04793979460374,51.549361003155354 153.00958428438753,54.06302689999575 153.7493108152412,56.57668502628803 154.56300999922678,59.00365791306831 155.0068459175527,61.083914622315206 155.89451775420457,62.90413487754995 155.9684904073365,63.597551045706496 156.7821895913221,64.89770476758713 157.66986142843962,67.15129962749779 157.66986142843962,67.67135909292847 157.96575204096735,68.10474172671093 158.8534238776192,70.7050326790195 158.92739653075114,71.39844219532097 159.59315040847287,72.61190742620965 160.2589042861946,75.1255082153366 161.07260346971452,76.85902147437446 161.51643938850611,78.15915399353253 161.88630265416577,79.19925851217704 162.03424795996398,80.58606246800628 162.99589245021343,83.09963860944845 163.2917830622755,83.87971238401951 164.77123612398282,85.61320698191412 165.3630173485726,85.61320698191412 166.398634491954,84.65978541062213 166.99041571607813,84.5731106668245 167.43425163486972,84.9198095863685 167.9520602063276,85.09315899061039 168.8397320434451,84.9198095863685 170.83699367614463,85.09315899061039 171.87261081906036,85.00648429302964 172.6863100035116,85.43985768849961 174.2397357178852,85.09315899061039 174.75754428980872,85.17983367899433 175.12740755500272,85.52653233992169 173.8698724526912,86.47995289537357 173.13014592183754,86.56662743579363 171.72466551326215,86.21992921817582 172.31644673785195,85.95990545826498 172.83425530977547,85.43985768849961 172.83425530977547,86.04658005404053 172.39041939098388,85.69988161500078 172.02055612578988,85.8732308530598 172.39041939098388,86.6533019670751 172.02055612578988,85.8732308530598 173.35206388123333,86.73997648915974 173.20411857496947,86.21992921817582 173.8698724526912,85.69988161500078 172.0945287789218,86.21992921817582 172.39041939098388,86.30660378659377 172.39041939098388,85.69988161500078 172.83425530977547,86.73997648915974 172.0945287789218,86.3932783457567 172.6863100035116,86.6533019670751 171.65069286013022,86.13325464091031 171.87261081906036,85.52653233992169 172.31644673785195,86.04658005404053 171.87261081906036,86.04658005404053 172.31644673785195,86.30660378659377 171.94658347265795,85.8732308530598 172.24247408518568,86.30660378659377 172.02055612578988,85.95990545826498 172.31644673785195,87.0 171.94658347265795,85.8732308530598 171.94658347265795,84.65978541062213 171.72466551326215,85.26650835818145 172.24247408518568,86.30660378659377 171.65069286013022,86.73997648915974 171.72466551326215,85.69988161500078 172.02055612578988,86.3932783457567 171.72466551326215,86.04658005404053 171.72466551326215,86.3932783457567 172.0945287789218,86.13325464091031 171.72466551326215,86.30660378659377 171.65069286013022,85.8732308530598 173.13014592183754,86.13325464091031 172.53836469724774,86.21992921817582 172.02055612578988,86.13325464091031 172.4643920441158,86.30660378659377 172.0945287789218,85.95990545826498 172.24247408518568,86.3932783457567 172.0945287789218,85.95990545826498 172.61233735037968,86.3932783457567 172.61233735037968,85.95990545826498 172.31644673785195,86.6533019670751 172.31644673785195,85.78655623877421 172.53836469724774,85.43985768849961 174.16576306475326,84.13973680953495 175.20138020813465,83.01296369958436 174.60959898354486,82.31956408650149 175.12740755500272,82.14621409092797 175.34932551439852,83.53301302122418 174.831516942475,84.3130863799015 175.12740755500272,83.70636272104457 175.57124347332865,81.53948881541146 175.12740755500272,81.36613865371328 175.57124347332865,81.45281373913167 174.97946224920452,81.19278845487861 175.27535286080092,79.54595972306561 175.27535286080092,80.3260369062773 175.79316143272445,79.11258318647742 174.97946224920452,80.75941279594554 175.9411067389883,79.37260913598584 176.08905204525217,78.76588179107057 175.57124347332865,79.28593382856343 175.49727082019672,78.76588179107057 175.12740755500272,78.41918024793267 174.31370837101713,79.37260913598584 174.97946224920452,79.0259078516392 175.34932551439852,78.67920641909586 175.79316143272445,78.50585564767243 175.20138020813465,79.19925851217704 175.0534349018708,78.59253103798255 174.97946224920452,79.45928443409503 174.2397357178852,79.89266078546643 174.97946224920452,78.93923250731314 174.97946224920452,78.50585564767243 174.53562633041292,79.63263500254834 175.0534349018708,78.0724785568309 174.831516942475,78.93923250731314 174.2397357178852,80.0660112616606 175.20138020813465,78.93923250731314 175.57124347332865,79.37260913598584 175.79316143272445,78.93923250731314 175.34932551439852,78.85255715390667 175.0534349018708,78.59253103798255 175.49727082019672,78.41918024793267 175.20138020813465,79.0259078516392 175.64521612646058,78.76588179107057 176.68083326984197,80.58606246800628 175.9411067389883,80.15268648584606 175.0534349018708,79.11258318647742 175.57124347332865,78.85255715390667 175.12740755500272,79.28593382856343 175.64521612646058,79.0259078516392 175.27535286080092,78.85255715390667 175.7191887795925,79.11258318647742 175.34932551439852,78.93923250731314 175.7191887795925,78.76588179107057 175.49727082019672,79.11258318647742 175.57124347332865,78.67920641909586 175.0534349018708,78.3325048389961 175.12740755500272,78.85255715390667 175.86713408539072,78.76588179107057 175.49727082019672,78.93923250731314 174.60959898354486,79.19925851217704 174.90548959560692,78.85255715390667 173.5000091874972,79.97933602845296 173.2780912281014,80.3260369062773 172.0945287789218,81.53948881541146 171.72466551326215,82.57958901085658 171.65069286013022,83.44633815716952 171.13288428867236,82.92628878034884 171.4287749012001,81.97286405833438 170.98493898287416,82.49291404517135 171.65069286013022,82.49291404517135 171.28082959493622,82.83961385162547 171.28082959493622,82.14621409092797 170.98493898287416,82.40623907058034 171.28082959493622,82.92628878034884 171.72466551326215,82.83961385162547 171.2068569418043,82.83961385162547 171.87261081906036,82.23288909345865 171.50274755386636,83.18631351034855 171.50274755386636,82.40623907058034 171.35480224806815,82.75293891382171 172.16850143205374,82.0595390793751 173.35206388123333,81.01943821884925 171.50274755386636,82.75293891382171 171.87261081906036,82.92628878034884 171.4287749012001,82.92628878034884 171.87261081906036,83.96638720179908 171.57672020746395,83.18631351034855 172.16850143205374,84.05306201038184 172.9082279629074,81.01943821884925 174.01781775895506,79.19925851217704 174.75754428980872,78.76588179107057 175.0534349018708,79.19925851217704 175.64521612646058,78.41918024793267 175.20138020813465,79.28593382856343 175.86713408539072,81.19278845487861 175.9411067389883,80.67273763654521 176.45891531044617,81.01943821884925 175.9411067389883,81.97286405833438 176.45891531044617,81.97286405833438 176.68083326984197,80.0660112616606 177.42055980022997,79.89266078546643 174.16576306475326,81.19278845487861 173.79589979955927,81.62616388261085 174.31370837101713,81.10611334146233 173.94384510582313,81.36613865371328 174.461653677281,80.84608794603264 174.53562633041292,81.62616388261085 173.8698724526912,81.36613865371328 174.091790412087,81.79951398906996 174.461653677281,81.10611334146233 173.8698724526912,81.36613865371328 174.38768102414906,81.10611334146233 174.2397357178852,82.66626396693755 173.5000091874972,84.48643591365544 172.6863100035116,85.43985768849961 171.87261081906036,85.78655623877421 171.94658347265795,84.74646014504833 171.35480224806815,81.62616388261085 173.20411857496947,81.36613865371328 173.6479544932954,80.93276308715576 174.01781775895506,81.19278845487861" stroke="#4dd2ff" stroke-linecap="round" stroke-linejoin="round" stroke-width="0.5"><title>2023-12-30 3.8km</title><desc>9223370332924685707</desc></polyline><polyline fill="none" points="33.40526139596477,93.0 32.67251266166568,94.80957633146318 31.858347401954234,95.76198346383171 30.39284993475303,96.04770540707977 29.74151772679761,95.95246476930333 29.253018571063876,96.14294603432063 28.520269837230444,98.04775646526832 27.78752110339701,98.42871806694893 27.706104577519,98.9049198423163 26.240607109852135,99.57160190423019 25.42644184967503,100.23828347149538 24.612276590429246,100.33352365496103 24.36802701232955,100.80972442158964 23.79811133025214,101.28592493571341 23.06536259641871,101.38116500823526 22.983946070540696,102.80976488610031 21.925531232729554,104.90504060056992 21.844114706851542,105.95267662673723 21.192782499361783,107.00031143199885 20.378617239184678,107.85746627382468 18.75028671976179,108.33366305503296 18.261787563562393,108.80985958420206 16.877706622239202,109.38129508588463 16.226374414283782,110.52416499995161 16.063541362527758,112.33370605966775 16.389207466039807,113.00037816347321 15.982124836649746,113.85752728494117 15.900708310771734,114.42895957868313 15.656458732206374,115.00039150897646 15.330792628694326,114.71467558894074 16.063541362527758,114.42895957868313 17.040539674460888,113.66704977303743 17.77328840782866,113.76228853408247 18.75028671976179,114.23848218779312 18.587453668005764,114.90515287930612 18.668870193883777,115.66706163570052 19.320202401373535,116.42896974622272 21.844114706851542,115.85753872373607 22.495446914806962,115.57182307634503 23.06536259641871,115.66706163570052 23.79811133025214,115.19086873845663 24.205193960107863,115.28610733797541 24.69369311630726,115.66706163570052 25.18219227157533,115.57182307634503 25.7521079541184,115.66706163570052 28.03177068103105,115.38134592759889 29.985767304431647,115.47658450715244 31.45126477209851,115.00039150897646 33.893760551698506,114.71467558894074 34.463676233775914,115.09563012886792 34.95217538904399,114.71467558894074 37.31325464276597,114.33372088818578 38.77875211043283,114.04800475633238 39.10441821394488,113.66704977303743 40.08141652587801,113.95276602590457 43.175244512967765,113.66704977303743 45.536323766224086,113.66704977303743 46.02482292242348,113.85752728494117 47.083237760234624,113.47657222073758 48.141652597580105,113.66704977303743 50.095649220980704,113.47657222073758 50.421315324958414,113.95276602590457 50.58414837671444,116.42896974622272 50.502731850836426,117.76230738637969 50.58414837671444,118.80992843070999 50.3398987990804,119.19088123517577 50.99123100703582,121.76230844284873 51.479730162769556,123.4765891621937 51.56114668911323,124.04801534250146 51.88681279262528,124.90515393140959 51.805396266747266,125.47657920379424 52.0496458443813,126.04800411290489 52.21247889660299,128.61941170936916 51.96822931850329,129.19083462108392 52.21247889660299,130.33367935480783 53.18947720853612,132.23841734975576 53.35231026029214,134.42886105552316 53.35231026029214,135.8574084235588 54.085058994125575,138.71449635049794 54.2478920458816,139.76209298265167 54.085058994125575,140.14303690963425 54.410725098103285,140.619216591469 54.00364246824756,141.09539602149744 51.479730162769556,141.9525183594087 48.71156827965751,142.71440419642022 45.6177402921021,143.38105377409374 42.76816188311204,144.04770285752602 42.11682967515662,144.04770285752602 41.30266441544518,145.00005783361848 38.45308600645512,145.47623494343134 35.60350759699941,146.14288247347577 32.99817876610905,146.52382369735278 31.858347401954234,146.80952950945357 31.125598668586463,146.80952950945357 30.637099512387067,147.0 33.73092749994248,146.42858840653207 36.82475548656657,145.85717644979013 39.99999999953434,145.19052870792802 41.22124788956717,144.90482238156255 42.1982462015003,144.04770285752602 45.129241136834025,143.57152499113 48.30448564980179,142.90487555478467 49.444317013490945,142.52393279760145 50.421315324958414,142.52393279760145 53.108060682192445,141.57157519907923 54.98064077971503,140.71445249777753 57.91163571504876,139.9525649661664 59.86563233844936,139.47638493106933 60.19129844242707,139.19067678920692 59.94704886432737,137.4764260300435 60.27271496830508,137.09548097330844 61.331129806581885,136.90500838437583 63.28512642951682,136.04788123443723 63.61079253349453,135.7621720028692 64.42495779320598,135.38122621987714 64.66920737130567,134.61933416931424 64.66920737130567,133.85744147282094 64.42495779320598,133.38125820999267 63.85504211159423,133.00031141773798 63.44795948173851,131.85747007350437 63.366542955394834,131.0003381120623 63.040876851417124,130.33367935480783 62.6337942215614,128.4289373247302 61.81962896184996,127.09561550285434 61.086880228016526,126.42895385052543 60.02846539020538,126.42895385052543 58.88863402651623,125.00039150216617 59.2143001309596,123.38135143043473 59.13288360461593,122.90516261890298 57.99305224092677,122.23849785944913" stroke="#4dd2ff" stroke-linecap="round" stroke-linejoin="round" stroke-width="0.5"><title>2023-12-25 2.1km</title><desc>9223370333374765407</desc></polyline><polyline fill="none" points="115.86172650847584,106.8502703893173 115.20168067212217,106.02989378306665 114.417876241263,105.74034874577774 114.0466004582122,106.07815127138747 113.5515660806559,106.27118117344799 113.34530175686814,106.31943863630295 113.01527883834206,106.89852779073408 112.68525592028163,107.13981472112937 112.23147440771572,107.38110152367153 112.02521008392796,107.6706455181411 111.48892284161411,107.91193203956936 111.20015278807841,108.39450469907024 110.7463712755125,108.44276193671976 110.41634835721925,108.87707684718771 110.16883116867393,108.92533403390553 109.83880825061351,109.3596484841546 109.42627960257232,109.6974483258673 109.09625668427907,110.0835049811576 108.72498090122826,110.27653318611556 108.6012223069556,110.46956130929175 108.35370511817746,110.61433234790456 108.43621084769256,111.72424211585894 108.39495798293501,112.01378334983019 108.18869365914725,112.30332439951599 107.81741787609644,112.59286526538199 107.44614209304564,112.68937884646584 106.12605041987263,113.36497334114392 105.91978609608486,113.65451353223762 105.3422459892463,113.94405353927868 105.17723452998325,114.66790275156382 105.63101604254916,115.87431554970681 105.50725744804367,116.50164894209593 105.38349885400385,116.69467442738824 105.50725744804367,117.27375039277831 105.17723452998325,117.51503182790475 104.88846447668038,117.37026298214914 104.5584415581543,117.32200669005397 104.31092436960898,117.41851926909294 104.10466004558839,117.37026298214914 103.85714285704307,117.51503182790475 103.23834988521412,117.56328809951083 102.16577540081926,117.80456938114366 101.83575248275883,117.80456938114366 101.62948815873824,117.70805688385735 101.1757066459395,117.65980062755989 100.35064935055561,118.1423629609053 100.02062643226236,117.99759431451093 98.70053475908935,118.1423629609053 98.32925897603855,118.09410675053368 97.00916730309837,118.2871315611992 96.7203972497955,118.2871315611992 96.18411000748165,118.38364393572556 95.8540870891884,118.38364393572556 94.94652406382374,118.81794936876395 93.87394957966171,119.01097387258778 93.54392666136846,119.15574219700648 93.2139037430752,119.10748609399889 91.85255920537747,119.49353477469413 91.39877769281156,119.34876655772678 90.82123758574016,119.44527870757156 90.28495034365915,119.34876655772678 89.58365164231509,119.63830294561922 89.00611153547652,119.54179083689814 88.79984721145593,119.73481503405492 88.30481283389963,119.83132710203063 86.69595110765658,119.83132710203063 86.44843391887844,119.83132710203063 86.15966386534274,119.87958312834962 85.78838808229193,119.78307107067667 84.88082505716011,120.02435117660207 84.63330786838196,119.97609516553348 84.46829640911892,119.83132710203063 83.93200916727073,119.92783914948814 83.43697478971444,120.07260718257749 82.57066462910734,120.21737516942085 82.19938884628937,120.16911917884136 80.8380443083588,120.36214311028016 79.31168831139803,120.41039908045786 78.94041252858005,120.50691100527183 78.48663101578131,120.50691100527183 77.78533231443726,120.69993479351979 76.83651642454788,120.6034229095676 76.54774637101218,120.65167885407573 76.21772345295176,120.50691100527183 75.10389610379934,120.65167885407573 74.23758594319224,120.94121441384777 74.07257448416203,121.18249390658457 73.41252864780836,121.42377327138092 73.0,121.66505250838236 73.16501145903021,122.19586638009059 73.45378151233308,122.63016817867174 73.45378151233308,123.0644695632509 73.78380443085916,123.78830428418587 74.11382734891959,124.36737123283092 74.23758594319224,124.65690443120548 74.9388846445363,125.42899206047878 75.76394194015302,125.47724749380723 77.20779220759869,125.38073662188253 77.62032085540704,125.71852458399371 77.86783804418519,125.47724749380723 78.6103896102868,125.57375834535924 79.06417112261988,125.52550292215892 79.43544690590352,125.38073662188253 80.46676852554083,125.52550292215892 80.96180290286429,126.4423550881329 81.3330786859151,128.0347781489836 81.37433155067265,129.57894064998254 81.37433155067265,130.83356882835506 81.20932009140961,131.36437201756053 80.54927425505593,131.8469198347011 80.46676852554083,132.08819355175365 80.46676852554083,133.19805100379745 80.96180290286429,133.63234231434762 81.49809014494531,133.72885143809253 82.90068754763342,133.68059687878122 83.1894576009363,133.8253605416976 83.47822765470482,133.8253605416976 84.17952635581605,133.8253605416976 84.798319327645,133.8253605416976 85.41711229924113,133.8253605416976 86.98472116095945,133.8736150857003 88.05729564535432,133.8736150857003 88.71734148170799,133.7771059924562 89.3773873182945,134.0666332107503 90.2436974789016,133.9701241585135 90.57372039719485,134.0666332107503 91.11000763927586,133.9701241585135 91.44003055756912,134.16314224278904 91.89381207013503,134.21139675099403 92.22383498842828,134.21139675099403 93.54392666136846,134.25965125425137 94.12146676843986,134.25965125425137 94.36898395698518,134.21139675099403 96.1428571427241,134.16314224278904 97.05042016785592,134.16314224278904 97.33919022139162,134.16314224278904 98.90679908310995,134.11488772931625 100.47440794482827,134.0666332107503 100.96944232215174,134.0666332107503 101.6707410234958,134.0183786872076 103.11459129094146,133.92186962472624 103.36210847971961,133.92186962472624 104.22841864009388,133.8253605416976 105.17723452998325,133.72885143809253 106.62108479742892,133.63234231434762 108.06493506487459,133.43932400504127 109.55003819684498,133.2463056142442 110.9526355995331,133.1015417673625 111.73644003039226,133.00503251081682 112.02521008392796,133.00503251081682 113.30404889211059,132.76375927918707 114.62414056505077,132.52248592016986 114.91291061858647,132.4742312329472 115.16042780736461,132.42597654063138 115.44919786090031,132.3777218433097 116.76928953384049,132.08819355175365 117.01680672238581,132.03993881848874 118.04812834202312,131.75041031223373 119.49197860946879,131.31611720769433 119.7394957980141,131.26786239279318 120.31703590531833,131.12309791738517 121.59587471350096,130.83356882835506 122.58594346791506,130.59229444694938 123.82352941157296,130.10974530110252 124.73109243670478,129.72370561608113 124.1948051948566,128.3243090166652 123.90603514108807,126.78014226310188 123.78227654681541,125.47724749380723 123.65851795230992,124.12609342689393 123.57601222302765,123.88481549327844 123.45225362852216,122.67842390859732 123.53475935803726,122.19586638009059 124.40106951864436,122.05109902191907 125.1848739492707,122.24412215588382 125.4736440028064,121.76156416739104 125.84491978562437,121.56854082885548 126.09243697463535,121.52028498149593 126.29870129842311,121.42377327138092 126.25744843366556,120.94121441384777 126.54621848720126,120.98947032255819 127.0,120.84470258120564" stroke="#4dd2ff" stroke-linecap="round" stroke-linejoin="round" stroke-width="0.5"><title>2023-12-13 3.0km</title><desc>9223370334411793607</desc></polyline><polyline fill="none" points="143.6107011071872,105.08224014326697 143.21217712201178,105.37361046450678 142.21586715895683,106.48081627831561 141.41881918837316,106.77218585886294 141.3191881920211,107.00528141227551 140.2730627306737,107.58801986358594 140.22324723284692,107.99593641213141 139.3265682659112,109.10313694755314 138.4298892992083,109.21968424273655 138.13099630991928,109.80242034822004 137.73247232474387,109.80242034822004 137.3837638378609,109.97724105941597 137.08487084903754,110.8513437822694 137.13468634733,112.54127177456394 136.83579335804097,113.24055080447579 136.18819188210182,113.70673633069964 134.84317343193106,114.17292146163527 134.39483394869603,114.17292146163527 133.79704797058366,114.63910619769013 133.29889298905618,115.51320151268737 133.0996309965849,116.15420386107871 133.0,115.80456630908884 133.0,116.67865977238398 133.14944649487734,117.08656957995845 133.59778597811237,117.31966076273238 133.39852398540825,117.6692973516765 133.39852398540825,117.96066100621829 133.29889298905618,118.71820578549523 133.4981549817603,119.24265925219515 133.89667896693572,119.41747696348466 135.04243542440236,119.30093182885321 135.69003690057434,119.00956888432847 137.5332103325054,119.00956888432847 139.1273062734399,118.77647841756698 140.9206642068457,118.77647841756698 141.51845018472522,118.77647841756698 142.16605166066438,118.48511519527528 143.31180811836384,118.42684253223706 143.90959409624338,118.135479124845 145.00553505541757,118.01893371861661 145.30442804447375,118.07720642461209 145.60332103352994,118.01893371861661 146.0516605169978,118.07720642461209 147.09778597787954,117.7275700949831 147.44649446522817,117.78584283211967 148.0940959409345,117.6692973516765 148.39298892999068,117.43620631715748 148.84132841345854,117.55275184678612 149.4889298893977,117.37793354311725 151.38191881938837,117.26138797641033 151.73062730650418,117.20311518386006 152.4778597787954,117.49447908508591 152.72693726979196,117.37793354311725 153.0756457564421,117.43620631715748 153.3247232476715,117.31966076273238 153.77306273090653,117.49447908508591 153.97232472337782,117.7275700949831 154.271217712434,119.06784148549195 154.4206642068457,119.41747696348466 154.37084870855324,120.23329221457243 154.66974169760942,120.93256146664498 154.71955719590187,122.38936955382815 154.9686346866656,122.6807307083509 154.91881918837316,123.03036389005138 155.36715867184103,124.48716642183717 155.26752767548896,126.23532436788082 155.41697416990064,127.98347675887635 155.26752767548896,128.39137818402378 155.5166051662527,129.20718012721045 155.56642066454515,130.1395237237448 155.76568265701644,130.8387803841615 156.014760148013,131.1301370637957 155.91512915142812,132.4121046208893 156.36346863489598,134.16023738437798 155.66605166066438,134.56813423003769 155.41697416990064,134.91775985679124 156.16420664219186,134.21850838081446 156.66236162371933,134.50986327050487 157.01107011083513,134.56813423003769 157.5092250923626,134.742947071034 157.8579335794784,134.56813423003769 158.2066420665942,134.50986327050487 159.0535055352375,134.56813423003769 159.3025830257684,134.39332133316202 159.70110701094382,134.39332133316202 160.59778597787954,134.27677937108092 161.29520295234397,133.8688823094708 161.64391143945977,133.5775270801969 162.391143911751,133.16962950030575 163.58671586727723,133.11135839275084 164.68265682668425,132.87827390083112 165.03136531380005,132.5869181471644 165.7785977863241,132.47037580236793 165.8284132843837,132.23729103902588 166.3763837639708,131.71284996002214 166.77490774937905,131.77112121577375 168.0701107014902,131.188408381131 168.36900369031355,131.24667969252914 169.3154981553089,130.8970517325215 169.76383763877675,130.54742355033522 170.11254612565972,130.48915216512978 171.55719557218254,129.78989506018115 172.15498155006208,129.20718012721045 172.6033210332971,129.20718012721045 173.79889298928902,128.56619298795704 174.3468634688761,128.3331065705279 174.59594095987268,128.1000200539711 175.39298892999068,127.86693343892694 175.69188191904686,127.69211841281503 175.5922509226948,127.34248819370987 175.891143911751,127.28421646915376 175.99077490810305,126.99285775265889 175.34317343193106,125.82742134400178 175.34317343193106,125.47778993996326 176.53874538769014,125.71087756752968 176.987084871158,125.3612460893346 177.43542435439304,125.30297415464884 178.78044280479662,124.60371045779902 180.02583025838248,124.83679845556617 181.47047970513813,124.13753416604595 182.61623616260476,123.37999684957322 182.8154981553089,123.03036389005138 183.31365313660353,122.6807307083509 183.5627306276001,122.44764179718914 184.8081180814188,122.0980082451133 185.60516605176963,121.80664678197354 185.9040590408258,121.45701282244409 186.202952029882,121.45701282244409 186.80073800776154,120.99083386413986 187.0,120.40810961072566 186.90036900388077,120.05847476253984 186.60147601505741,119.70883969194256 186.15313653158955,119.06784148549195 185.75461254641414,118.5433878522017 185.65498155006208,118.3102971878252 185.2066420665942,118.19375181867508 183.4132841329556,118.71820578549523 182.6660516608972,118.65993314725347 180.57380073843524,119.00956888432847 179.32841328415088,118.95129627699498 178.83025830285624,119.12611408066005 177.5350553507451,119.30093182885321 176.43911439133808,119.88365725509357 176.04059040616266,120.23329221457243 175.34317343193106,120.23329221457243 174.99446494481526,120.52465451095486 174.04797047981992,120.99083386413986 173.84870848734863,121.34046811994631 173.20110701140948,121.51528516446706 172.6033210332971,121.51528516446706 170.959409594303,122.15628051909152 170.46125461277552,122.44764179718914 170.11254612565972,122.33109730429715 168.51845018495806,122.97209170850692 167.82103321049362,122.73900292062899 167.37269372702576,122.73900292062899" stroke="#4dd2ff" stroke-linecap="round" stroke-linejoin="round" stroke-width="0.5"><title>2023-12-12 2.4km</title><desc>9223370334498230007</desc></polyline><polyline fill="none" points="28.526507074711844,207.0 28.559241719311103,206.80866056878585 28.91932280967012,206.7321247679647 29.279403900029138,206.61732103634859 29.606750345788896,206.54078519516042 30.261443237424828,206.34944552119123 30.425116460421123,206.42598140300834 31.701767598977312,206.0433018328331 32.22552191221621,205.89022989134537 32.71654158097226,205.8136938965181 33.927723430329934,205.31620953511447 34.54968167736661,205.08660113776568 35.79359817132354,204.8187244902656 36.08820997260045,204.8187244902656 36.742902864236385,204.62738390630693 37.070249310228974,204.39777507225517 37.23392253299244,204.05336154816905 37.26665717770811,203.44107002962846 36.77563750895206,202.13994711523992 36.18641390639823,200.8005509962386 35.629924948560074,199.5376872603083 35.10617063532118,197.96866860429873 35.23710921348538,197.5477112227818 35.466251725680195,197.43290457926923 35.597190303960815,197.05021550448146 35.26984385820106,196.4761811340286 35.17163992440328,196.09349104814464 34.87702812324278,195.55772424844326 34.778824189445004,195.1367640638491 34.58241632208228,194.7923417306447 34.484212388284504,194.44791906973114 34.05866200872697,193.68253420604742 33.56764233997092,192.2665679428319 33.305765183409676,191.65425649218378 32.74927622557152,190.12347333543585 32.22552191221621,188.93711193735362 31.963644755538553,188.32479485610384 31.669032954378054,187.4063172925089 31.014340062858537,186.10513675559196 30.719728261581622,185.68416558069293 30.490585749503225,185.18665356110432 30.097770014428534,184.15335718201823 29.90136214706581,183.7323837376025 29.704954279586673,182.8904353803955 29.50854641222395,182.4694604675169 29.344873189227656,181.43615633333684 29.181199966347776,181.0151797294384 28.690180297475308,180.09668362190132 28.428303140914068,179.7139762225852 28.166425984352827,178.87201852025464 27.904548827791587,178.52758071391145 27.70814096031245,178.03005885964376 27.577202381798998,176.92019995179726 27.511733092716895,176.15477803276735 27.249855936155654,175.1979983583442 26.7588362673996,173.7819597996131 26.49695911083836,172.7486308691441 26.169612664845772,171.86838537963922 25.875000863801688,171.44739764992846 25.64585835172329,170.64369244268164 25.580389062524773,170.18443152299733 25.089369393885136,168.95973288902314 24.762022948008962,167.84984617304872 24.50014579144772,167.27576550192316 24.336472568451427,166.6251396407315 24.107330056489445,166.24241799971787 23.845452899695374,164.82634440957918 23.485371809336357,163.6781725670735 23.223494652775116,162.3769067430694 23.125290719093755,162.0707258694456 22.9288828514982,161.61145407319418 22.79794427321758,161.03736350868712 22.5688017612556,160.50154482683865 22.40512853837572,159.8509067898849 22.175986026180908,159.27681343309814 22.045047448016703,158.7792651206837 22.175986026180908,158.28171612444567 22.503332471940666,157.8989856619155 22.79794427321758,157.82243952085264 23.059821430011652,157.4779816857481 23.387167875654995,157.3248892093252 23.68177967693191,157.01870406241505 24.598349725129083,156.5594258562487 25.122104038484395,156.06187380867777 25.67859299632255,155.94705400828389 26.95524413487874,155.29640778471367 27.577202381798998,155.14331438564113 28.690180297475308,154.5309401419072 29.54128105659038,153.99511182881542 30.62152432790026,153.6506503514247 31.341686508618295,153.45928272244055 32.58560300269164,153.4210091845016 33.1420919605298,153.3444620964874 33.96045807504561,153.3444620964874 34.68062025564723,153.15309430545312 35.92453674983699,153.0 36.481025707675144,153.11482073517982 37.757676846231334,153.07654716086108 38.93612405110616,153.15309430545312 39.52534765342716,153.07654716086108 40.605590924737044,153.3444620964874 41.65309955121484,153.45928272244055 42.86428140057251,153.53582978621125 44.07546325016301,153.61237683377112 45.31937974411994,153.80374438181752 46.75970410578884,153.84201787927304 47.47986628639046,153.80374438181752 48.69104813586455,153.99511182881542 49.313006382784806,153.95683834748343 49.83676069625653,154.03338530601468 50.81880003353581,154.3012995333993 51.4407582806889,154.41611985579948 51.86630866013002,154.7223072044726 52.39006297336891,155.75568759333692 52.71740941924509,156.21496681924327 53.20842908800114,157.3631623344554 53.8303873349214,158.5113542076724 54.190468425280415,158.8175380921166 54.452345581841655,159.27681343309814 54.81242667220067,160.31018081970979 55.205242407275364,161.07563624123577 55.3361809856724,161.49663603317458 55.4016502747545,162.0707258694456 55.6307927868329,162.3769067430694 55.76173136511352,162.79790502155083 56.38368961226661,163.94607965601608 56.94017856998835,165.13252295256825 57.10385179286823,166.20414581341902 57.39846359414514,166.85477243119385 57.7258100399049,168.15602215877152 57.95495255186688,168.57701371613075 57.95495255186688,169.03627667494584" stroke="#4dd2ff" stroke-linecap="round" stroke-linejoin="round" stroke-width="0.5"><title>2023-12-08 3.1km</title><desc>9223370334822430907</desc></polyline><polyline fill="none" points="96.26963328343118,153.0 96.1516770235612,153.12074886698247 95.98211490007816,153.34499628751655 95.81992504285881,153.54336849060928 95.74620238045463,153.6209922645503 95.56926799073699,153.724490514629 95.32598320484976,153.91423696462152 95.09744295146083,154.06948373102932 94.8836472305702,154.23335499652603 94.64036244471208,154.39722593209444 94.40444992505945,154.56972129727365 94.14642060673214,154.733591555545 93.97685848327819,154.83708839078463 93.9473694182816,154.86296257901995 93.91050808710861,154.91471093083965 93.71145689865807,155.04408166641952 93.46079984653625,155.1993262777105 93.20277052820893,155.36319526834995 92.93736894361791,155.52706392907567 92.6645950927923,155.69955689972267 92.50240523557295,155.82030176166154 92.36233217699919,155.9582956702434 92.11167512490647,156.12216313284443 91.88313487151754,156.29465484231332 91.68408368312521,156.47577074384753 91.61773328695563,156.51889351814316 91.34495943613001,156.562016269585 91.0574410528061,156.67413531642524 90.76992266951129,156.78625420881144 90.48240428621648,156.89837294677272 90.20225816915627,156.97599352106772 89.95897338332725,157.07948750494688 89.84101712345728,157.11398547032877 89.87787845471757,157.32959742270032 89.85576165598468,157.3899686670411 89.67145500003244,157.61420432534214 89.48714834402199,157.80394170758518 89.28809715560055,158.0195518323526 89.09641823341371,158.2092882697325 88.90473931122688,158.381775556285 88.8088998501189,158.46801906251494 88.72780492148013,158.51976512236433 88.63196546040126,158.53701380168786 88.56561506423168,158.61463281336182 88.56561506423168,158.69225175104657 88.60984866166837,158.75262198472046 88.7941553176206,158.94235671335628 88.96371744110365,159.14933954930893 89.1332795646158,159.35632185894792 89.31758622053894,159.53743094817764 89.37656435044482,159.5891763282125 89.4724038115819,159.76166069082683 89.64196593506495,159.9858898158418 89.67882726623793,160.06350744598603 89.65671046753414,160.14974917042855 89.52400967522408,160.27911158581264 89.29546942186425,160.43434621293272 89.08904596717912,160.62407702179917 88.87525024623028,160.7965591916145 88.74992172018392,160.89142422922305 88.71306038901093,160.93454466431285 88.69831585651264,161.0466576886829 88.71306038901093,161.1156502422964 88.8236443826172,161.2450111227663 88.99320650610025,161.46923616192362 89.17751316205249,161.66758856642264 89.31021395433345,161.79694856980495 89.4576592790836,162.03842002616875 89.59773233762826,162.27989076630183 89.752549928613,162.50411295509548 89.83364485728089,162.63347162926948 89.86313392219017,162.73695842059533 90.11379097428289,162.73695842059533 90.16539683798328,162.74558231394622 90.18751363671618,162.8059495417474 90.20225816915627,163.00429868935316 90.24649176659295,163.27163808021578 90.27598083158955,163.41824317991268 90.32021442902624,163.4527384591056 90.34233122770092,163.51310516254307 90.34970349393552,163.66833362302714 90.37182029263931,163.73732395489787 90.44554295504349,163.76319531428453 90.65196640972863,163.7459477422599 90.84364533191547,163.79769044731074 90.82890079941717,163.83218556575594 90.78466720200959,163.86668066954735 90.97634612419643,163.81493800835597 91.01320745542762,163.83218556575594 90.98371839046013,163.86668066954735 90.94685705925804,163.82356178753253 90.99846292290022,163.83218556575594 90.94685705925804,163.85805689497647 90.97634612419643,163.82356178753253 91.33021490366082,164.34961058840418 91.28598130622413,164.36685803253204 91.01320745542762,163.8925519878394 90.96160159172723,163.82356178753253 90.99846292290022,163.84943311948882 91.27123677372583,164.34098686499055 91.33758716986631,164.4186003429786 91.3744485010684,164.51346116001514 91.3965652998013,164.53070856943668 91.42605436473968,164.50483745395468 91.0721855853335,163.99603717873106 91.01320745542762,163.84080934309168 90.96897385799093,163.7890666654348 91.00583518916392,163.82356178753253 90.93948479302344,163.82356178753253 90.99846292290022,163.7890666654348 90.98371839046013,163.8925519878394 90.97634612419643,163.81493800835597 91.00583518916392,163.86668066954735 91.02795198789681,163.83218556575594 91.21963091008365,164.6773114019088 91.16802504638326,164.65144033299293 91.11641918277019,164.61694556169095 91.0721855853335,164.56520337729307 91.19014184511616,164.54795597519114 91.3744485010684,164.59107447358838 91.47028796217637,164.867032322647 91.42605436473968,164.82391397037281 90.99109065666562,163.86668066954735 91.02795198789681,163.81493800835597 91.00583518916392,163.86668066954735 90.99109065666562,163.83218556575594 91.02795198789681,163.87530444323784 91.02057972163311,163.81493800835597 91.02795198789681,163.85805689497647 90.99846292290022,163.83218556575594 91.24174770881655,164.02190845589212 90.99846292290022,163.83218556575594 90.99109065666562,163.78044288262754 91.10167465027189,163.82356178753253 90.96160159172723,163.83218556575594 91.02795198789681,163.86668066954735 91.22700317628914,163.34062874823576 91.13116371521028,163.34925257763825 91.53663835831685,163.0991611543359 91.60298875445733,163.07328958395374 91.66196688439231,162.9353077363121 91.54401062458055,162.73695842059533 91.381820767303,162.48686511634878 91.30072583869332,162.34025833942724 91.27123677372583,162.38337800710724 91.27123677372583,162.45236942790507 91.27860903998953,162.5817281842901 91.30809810489882,162.50411295509548 91.02057972163311,161.80557256272004 90.92474026055424,161.77970058122446 91.02057972163311,161.8659404875507 90.91736799429054,161.77970058122446 110.76350870812894,207.0 110.80774230553652,206.96552315385634 110.94781536405208,206.93966550965706 111.03628255892545,206.9051886380039 111.22796148111229,206.8879501966876 111.28693961104727,206.8534733031629 111.25007827984518,206.8362348508963 111.15423881873721,206.8534733031629 111.43438493579742,206.55179986279109 111.39015133836074,206.51732282710145 111.34591774092405,206.53456134677253 111.28693961104727,206.12945517099433 111.26482281231438,206.08635865087126" stroke="#4dd2ff" stroke-linecap="round" stroke-linejoin="round" stroke-width="0.5"><title>2023-12-07 3.4km</title><desc>9223370334912122537</desc></polyline><polyline fill="none" points="152.9350365580758,207.0 153.54642762511503,206.8808032644156 153.41056294355076,206.60267740051495 153.47849528421648,206.24508670091745 153.58039379538968,206.08615739189554 153.7841908178525,206.00669271187508 154.05592018098105,205.3709746672248 154.531446566456,204.9339178863156 154.66731124813668,204.3379305464332 154.6333450776292,204.09953534524539 154.25971720332745,203.900872561906 153.92005549941678,203.78167484141886 153.61435996589717,203.66247708306764 153.20676592108794,202.90755706682103 152.9350365580758,202.78835903067375 151.91605144611094,202.82809171354165 151.6443220829824,202.70889365216135 151.27069420868065,201.95397171674995 151.03293101582676,201.87450616134447 150.38757377839647,201.75530779690598 149.77618271124084,201.079849682661 149.6063518592855,200.84145241082297 148.92702845134772,200.12625968590146 148.7571975995088,199.88786180788884 148.68926525872666,199.49053167452803 148.04390802106354,198.6958701449912 147.9080433397321,198.41773821192328 147.3645846132422,197.74227408712613 147.09285525011364,197.34494168075616 146.78715971647762,197.0668087459344 145.97197162697557,196.03374175349018 145.15678353758994,195.35827333547059 144.681257152115,194.7225372424873 144.61332481144927,194.92120488730143 144.5793586409418,195.00067191573908 144.61332481144927,195.0801389273547 144.74918949289713,194.96093840355752 144.71522332262248,194.84173784207087 144.5793586409418,194.68280370085267 143.86606906261295,194.12653367657913 143.79813672183082,193.92786561089451 143.79813672183082,193.3715944669675 143.05088097322732,192.49745243100915 142.26965905423276,191.74250994215254 142.03189586137887,191.26570337693556 141.21670777199324,190.70942828449188 141.08084309042897,190.55049239224172 140.16375648975372,189.7558119208261 140.02789180807304,189.59687562458566 139.99392563779838,189.43793926085345 140.0618579784641,189.27900282980409 139.68823010416236,188.88166145747527 139.6542639337713,188.56378805660643 139.82409478572663,188.24591438632342 140.67324904550333,187.3320260833425 142.9829486324452,184.7890208248864 144.00193374429364,183.7559200131218 145.05488502641674,182.60361190419644 145.4285129008349,182.16652859188616 146.20973481982946,181.41156530714943 147.33061844285112,180.29898506458267 148.38356972520705,179.10693114201422 149.1647916442016,178.47116750077112 149.97997973358724,177.47778465336887 150.2517090968322,177.3188431537128 150.52343845996074,177.35857853491325 150.8970663343789,177.04069536691532 151.23672803817317,176.28572176321177 151.57638974208385,176.00757321028505 152.9350365580758,175.53074663956068 153.37659677304327,175.3718043146073 157.82616509473883,173.66317006657482 158.87911637686193,172.86845381028252 159.96603382949252,172.11347180686425 161.290714474977,171.1995441899926 162.44556426838972,170.40482271267683 163.6343802320771,169.64983574926737 164.7212976848241,168.89484726567753 165.23079024080653,168.6166932307242 165.23079024080653,168.6166932307242 167.1668619532138,167.424602172483 168.08394855377264,166.8682917150727 169.13689983612858,166.153034199815 170.35968197032344,165.3185653745022 174.12992688408121,162.73567390770768 175.3187428477686,161.94093449242064 176.50755881157238,161.06671919021755 177.45861158252228,160.4309249628277 177.45861158252228,160.39118778787088 177.93413796811365,159.47723160061287 178.17190116085112,158.76195998702315 178.37569818331394,158.56327318560216 178.3077658424154,158.20563667765236 178.03603647940326,157.96721214952413 177.7982732866658,157.8877372732095 177.93413796811365,157.5301001208718 178.44363052397966,157.21220014369464 179.25881861359812,156.89429989692871 179.42864946543705,156.2982362077746 179.56451414723415,156.13928573054727 179.36071712477133,156.099548100814 179.0550215911353,156.02007282854174 178.88519073929638,155.9008598885266 180.3457360662287,153.0 180.27780372533016,153.87423410994234" stroke="#4dd2ff" stroke-linecap="round" stroke-linejoin="round" stroke-width="0.5"><title>2023-12-07 2.1km</title><desc>9223370334931320746</desc></polyline><polyline fill="none" points="50.75542416074313,267.0 50.3631290551275,266.6175779409823 50.16698150173761,266.15867120266194 49.643921359907836,265.7762486980646 49.186243736417964,265.24085685116006 48.27088848873973,264.70546460704645 47.42091575823724,263.2522550866124 47.09400317003019,262.5638916611206 46.244030439760536,262.33443704020465 44.93638008600101,260.3458272701828 44.413319944404066,259.9634016864584 44.086407355964184,259.5044907182455 42.451844413531944,257.89830003347015 41.99416678957641,257.43938775279094 41.66725420113653,255.9861636062269 41.53648916585371,255.14482197380858 40.55575140030123,253.07970653730445 39.83654370578006,250.4791823994019 39.051953493151814,248.18459449824877 38.20198076334782,245.88999930367572 37.613538104109466,244.36026512208628 37.613538104109466,243.36593616585014 37.74430313939229,242.6010668060626 36.76356537383981,240.53591548651457 35.652062573237345,238.62373307126109 34.86747236107476,236.55857037357055 34.148264666320756,235.7936938009807 33.952117113396525,235.33476746856468 33.82135207741521,234.64637742261402 32.97137934761122,232.58120334672276 32.84061431209557,231.8928106748499 31.990641582058743,229.90411704714643 31.859876547008753,229.5981636950164 30.879138781223446,228.52732594159897 30.159931086702272,226.76808904082282 29.63687094533816,225.77373585256282 29.309958356665447,224.39693686913233 28.721515697659925,223.40258041449124 28.0676905203145,221.2608849373064 27.93692548503168,220.80194936535554 28.13307303818874,220.41950283263577 29.89840101567097,219.42514089908218 31.009903816506267,218.27779850462684 31.33681640541181,217.5893921922543 32.382936688372865,216.44204687973252 33.36367445392534,216.51853662385838 33.75596956000663,216.44204687973252 34.67132480768487,216.595026360068 35.19438494928181,217.13045428623445 36.50203530327417,216.82449552003527 37.286625515436754,216.05959803704172 37.613538104109466,215.52416931674816 39.248101046308875,214.37682072154712 40.42498636501841,213.76490072516026 40.621133918175474,213.1529802099103 40.948046506615356,213.0 40.817281471332535,213.38245046377415 41.34034161269665,213.84139075299026 41.47110664797947,214.14735078363447 41.144194059539586,214.37682072154712 41.53648916585371,214.22384077124298 41.60187168372795,213.9178807727294 41.0134290244896,213.9943707846105 40.621133918175474,213.84139075299026 40.817281471332535,213.30596038728254 39.83654370578006,213.68841068900656 39.57501363474876,213.9943707846105 37.613538104109466,214.9122502928949 37.22124299779534,214.98874019930372 36.69818285643123,214.9122502928949 36.37127026799135,214.75927045597928 35.06361991376616,215.4476794670336 34.54055977240205,215.90661844308488 33.82135207741521,216.82449552003527 32.317554170498624,217.28343362052692 31.140668852021918,218.12481938058045 30.617608710657805,218.27779850462684 30.029166051419452,218.73673568107188 29.179193321149796,218.88971467525698 28.590750662144274,219.65460915898439 28.00230800267309,220.49599215533817 28.00230800267309,220.87843864766182 28.590750662144274,222.17875520564849 28.721515697659925,222.7906680695014 29.63687094533816,224.24395904218545 29.76763598038815,225.2383143377374 30.421461157267913,226.30915697023738 30.813756263582036,226.69160038256086 30.879138781223446,227.99190646910574 31.009903816506267,228.3743489899207 31.009903816506267,228.75679130805656 31.46758144069463,229.827628721192 32.513701723888516,230.8984645458986 32.77523179468699,231.8928106748499 34.148264666320756,233.4990592211252 34.148264666320756,234.72286523785442 34.4097947368864,235.7172060990706 35.32514998456463,237.17047104798257 35.913592644035816,238.92968259810004 36.50203530327417,239.77104312810116 36.69818285643123,240.45942828722764 37.02509544463828,240.68888986099046 37.482773068826646,241.83619663573336 37.87506817490794,242.67755377863068 38.07121572829783,243.28944926633267 37.94045069254935,243.671883682895 38.13659824547358,244.97215918381698 38.85580594022758,247.1902708093403 39.50963111710735,249.3318893603282 40.22883881186135,250.9380991042126 40.22883881186135,251.32052946917247 40.882663988973945,253.5386215893668 41.92878427216783,255.5272501099971 42.582609448814765,256.3685912970104 42.84413951984607,256.9039897234179 44.544084979686886,258.73963845690014 45.06714512151666,259.3515203309944 45.3286751920823,259.73394623881904 45.851735333912075,259.9634016864584 46.309412957401946,260.422312362527 46.70170806371607,261.4166178270243 47.94397590006702,262.4109219221282 48.40165352378972,263.0228006843827 50.03621646622196,264.47601066698553 50.951571714133024,265.54679509811103 51.47463185549714,265.929217724246 52.06307451496832,266.31164014787646" stroke="#4dd2ff" stroke-linecap="round" stroke-linejoin="round" stroke-width="0.5"><title>2023-12-06 2.1km</title><desc>9223370335016772765</desc></polyline><polyline fill="none" points="88.17521435557865,267.0 88.50186589278746,267.0 88.92651289096102,266.88543994369684 89.74314173392486,266.6945064358297 90.10245842474978,266.50357282703044 90.52710542292334,266.3508258673246 91.24573880468961,266.38901261333376 92.55234495340846,266.1217053066939 93.7282904869644,265.7398373828619 94.61024963727687,265.3961559063464 95.68819970986806,265.0906609861704 97.15813162690029,264.63241812147317 97.84409985493403,264.3269225555123 98.23608169949148,263.9832397350983 98.79138931259513,263.6777436202974 98.9220499274088,263.0285635187465 98.46473777550273,262.07388477996574 98.04009077732917,261.0046415978868 97.41945285652764,259.7062706229917 96.96214070462156,258.7515831060591 96.37416793778539,257.3768286500999 96.30883763032034,257.0331392188091 95.94952093949541,256.53669835207984 95.52487394132186,255.5438145720109 95.06756178918295,254.51274006639142 94.67557994474191,253.40528639403055 94.21826779271942,252.37420578557067 93.76095564069692,251.26674555812497 93.00965710519813,249.51007754483726 92.29102372343186,247.60064610361587 92.12769795500208,247.02781470335322 91.50706003443338,245.6912045708159 91.24573880468961,245.4238819508755 90.62510088412091,244.0490767811425 90.33111450076103,243.24710468263947 90.20045388594735,242.48332007665886 90.26578419329599,242.17780578212114 89.71047658019233,241.18488254066324 89.35115988936741,240.00100895520882 88.92651289096102,238.93170044673025 88.59986135386862,237.74781947751762 88.20787950942758,236.52574473019922 87.88122797233518,235.49461594645982 87.52191128139384,234.42529409902636 87.16259459056892,233.2795886072272 86.80327789974399,232.2102602031373 86.41129605507012,231.1027381620952 86.0519793642452,230.0334033141262 85.7253278271528,228.9258745989937 85.36601113632787,227.74196083797142 84.974029291654,226.36708837535116 84.51671713974793,224.99221067951294 84.15740044880658,223.73190152805182 83.8634140654467,222.62435349210864 83.50409737462178,221.4404190776695 83.11211553006433,220.2946724013309 82.72013368539046,219.11073035097797 82.5894730706932,218.69062094876426 82.5894730706932,218.3087028863083 82.72013368539046,217.92678442006581 82.98145491501782,217.62124935627799 84.05940498772543,217.08656237271498 85.1373550602002,216.62825861410238 86.31330059410539,216.05537809801172 87.68523704994004,215.44430454616668 88.63252650760114,215.0241908794851 90.00446296366863,214.451307819254 91.3437342660036,213.9166161432513 92.22569341608323,213.64927000834723 93.53229956468567,213.42011602109415 94.80624055955559,213.19096188843832 96.04751640069298,213.07638476745342 97.28879224183038,213.0 98.53006808285136,213.11457714511198 99.64068330917507,213.22915425393148 100.7839636891149,213.3437313262839 101.95990922267083,213.49650069972267 103.13585475657601,213.61107768726652 104.31180029024836,213.68746232546982 105.45508067018818,213.7256546386052 106.63102620386053,213.9166161432513 107.74164143030066,214.0311929975869 108.10095812100917,214.0311929975869 109.17890819360036,214.14576981554274 110.22419311245903,214.2603465972643 111.46546895359643,214.41311558283633 111.82478564430494,214.48950005156803 112.2167674889788,214.75684556446504 112.6740796410013,215.40611241478473 113.39271302276757,216.8574105661537 113.71936455974355,217.46848172746832 113.81736002082471,217.85040067826048 114.01335094321985,218.2323192252952 114.24200701911468,219.07253860734636 114.60132371005602,219.7981810461788 115.1892964768922,220.71477993801818 115.6792737825308,221.78414237205288 116.16925108828582,222.8153102923534 116.59389808645938,223.88466650785995 117.01854508486576,224.99221067951294 117.41052692942321,225.9851784291386" stroke="#4dd2ff" stroke-linecap="round" stroke-linejoin="round" stroke-width="0.5"><title>2023-12-01 3.0km</title><desc>9223370335427680657</desc></polyline><polyline fill="none" points="168.86494657804724,266.95853109988093 169.05958612356335,267.0 169.2365311650792,266.97926555106824 169.53733773564454,266.83412434649654 169.53733773564454,266.70971751345496 169.48425422306173,266.62677958056156 169.43117071071174,266.4816381129349 169.07728062779643,266.2950274953764 168.95341909874696,266.1291512405296 168.79416856134776,265.7351945683622 168.6703070324147,265.13389074064617 168.6172235199483,264.926544162081 168.44027847843245,264.366707295776 168.21024992445018,263.8483383900457 167.8917488498846,263.22629387940106 167.62633128766902,262.72865683826967 167.57324777520262,262.54204261963605 167.36091372545343,262.0236688502773 167.13088517147116,261.50529369924334 166.88316211348865,260.9661820763722 166.7062170719728,260.38559865725983 166.61774455115665,260.1989821902389 166.47618851810694,259.61839648065506 166.24615996412467,259.03780903771985 166.05152041849215,258.5194259276177 165.80379736050963,257.93883520366217 165.59146331064403,257.27530082516023 165.36143475677818,256.7154419322178 165.16679521114565,256.1763170303748 164.97215566551313,255.63719063384633 164.75982161576394,255.09806274266157 164.54748756589834,254.55893335673318 164.512098557665,254.3930470910709 164.24668099544942,253.87465159887506 164.19359748298302,253.68802888331993 163.9989579373505,253.35625472466927 163.91048541665077,253.00374406077026 163.62737335031852,252.3194568300969 163.60967884620186,252.15356865391368 163.39734479633626,251.697375439835 163.36195578810293,251.51075063468306 163.14962173835374,250.9716113024624 162.91959318437148,250.4324704754108 162.67187012627255,249.8933281534264 162.56570310145617,249.72743790745153 162.37106355582364,249.12608457928582 162.15872950607445,248.566202222617 161.92870095209219,248.0063182537706 161.68097789399326,247.42569613878732 161.52172735671047,246.88654547944316 161.36247681942768,246.53402308622026 161.16783727379516,245.87044978851918 160.9378087199293,245.3105580570409 160.7254746700637,244.75066471322498 160.51314062031452,244.21150663604203 160.44236260373145,243.85897939259303 160.30080657056533,243.71382093009015 160.01769450411666,243.02950100429007 159.8407494627172,242.67697161762044 159.59302640461829,242.1170706897101 159.3806923548691,241.57790530922648 159.1683583051199,241.0180012161436 158.93832975113764,240.43735823125462 158.7083011972718,239.85671351225756 158.602134172339,239.48344099141832 158.42518913093954,238.96500574577658 158.283633097657,238.44656911763013 158.07129904802423,237.94886865391163 157.84127049404196,237.24379081588995 157.57585293182638,236.60092349961633 157.46968590701,236.24838245587307 157.23965735302772,235.70920079945063 156.9919342949288,235.19075548878754 156.95654528669547,235.04559055402933 156.76190574106295,234.56861929086153 156.56726619543042,234.02943297554157 156.40801565814763,233.69762526887644 156.40801565814763,233.51098318508593 156.07182007923257,232.86810352456814 156.03643107099924,232.68146064433677 156.0541255751159,232.49481758481124 156.01873656676617,232.3081743461662 155.96565305441618,232.14226909464924 155.8417915252503,231.9971018834476 155.80640251701698,231.81045816691767 155.66484648385085,231.2920024584455 155.61176297138445,230.93945178683498 155.41712342575192,230.25508689315757 155.18709487188607,229.59145802864805 155.0101498303702,228.92782689855085 154.85089929308742,228.47157918234007 154.67395425157156,227.80794422894542 154.4970092101721,227.1235683102277 154.28467516042292,226.4184512070933 154.21389714372344,226.04515288175025 154.10773011890706,225.69259269390022 154.09003561467398,225.56815953373734 153.96617408574093,225.07042609655764 153.8777015650412,224.88377572901663 153.718451027642,224.32382355100708 153.6653675151756,224.03347734220733 153.47072796954308,223.4942618036439 153.2937829280272,222.93430562273716 153.08144887827802,222.24991254413908 152.90450383687858,221.5447777608788 152.69216978701297,220.8603797895339 152.55061375384685,220.3211554480804 152.40905772068072,219.7404506381572 152.23211267928127,219.13900454157556 152.0551676377654,218.53755658390583 151.8959171003662,218.0605448113056 151.71897205885034,217.7494495461433 151.71897205885034,217.3553948289191 151.5420270174509,216.79542096158548 151.3827764800517,216.21470561719616 151.2235259427689,215.63398853776744 151.04658090136945,215.05326972305193 150.88733036397025,214.5140292700089 150.83424685162026,214.34810882950842 150.74577433080412,214.24440848236554 150.7103853225708,214.119967992694 150.7103853225708,213.85034665837884 150.58652379352134,213.53924465402088 150.604218297638,213.43554387518088 150.46266226447187,213.0 150.58652379352134,213.5599848030979 150.78116333903745,214.09922790336714 150.9581083805533,214.76290966496163 151.08196990960278,215.34362934729143 151.25891495111864,215.8621275973128 151.3296929677017,216.02804674522486 151.3827764800517,216.31840491313778 151.5951105299173,216.89911994758586" stroke="#4dd2ff" stroke-linecap="round" stroke-linejoin="round" stroke-width="0.5"><title>2021-03-03 3.4km</title><desc>9223370422090161307</desc></polyline></svg>