<?xml version="1.0" encoding="utf-8" ?>
<svg baseProfile="full" height="300mm" version="1.1" viewBox="0,0,200,300" width="200mm" xmlns="http://www.w3.org/2000/svg" xmlns:ev="http://www.w3.org/2001/xml-events" xmlns:xlink="http://www.w3.org/1999/xlink"><defs /><rect fill="#222222" height="300" width="200" x="0" y="0" /><text fill="#FFFFFF" style="font-size:12px; font-family:Arial; font-weight:bold;" x="10" y="20">Over 1km Runs</text><text fill="#FFFFFF" style="font-size:4px; font-family:Arial" x="10" y="280">ATHLETE</text><text fill="#FFFFFF" style="font-size:9px; font-family:Arial" x="10" y="290">zhangzili</text><text fill="#FFFFFF" style="font-size:4px; font-family:Arial" x="120" y="280">STATISTICS</text><text fill="#FFFFFF" style="font-size:3px; font-family:Arial" x="120" y="285">Number: 7</text><text fill="#FFFFFF" style="font-size:3px; font-family:Arial" x="120" y="290">Weekly: 2.3</text><text fill="#FFFFFF" style="font-size:3px; font-family:Arial" x="141" y="285">Total: 26.9 km</text><text fill="#FFFFFF" style="font-size:3px; font-family:Arial" x="141" y="290">Avg: 3.8 km</text><text fill="#FFFFFF" style="font-size:3px; font-family:Arial" x="167" y="285">Min: 1.5 km</text><text fill="#FFFFFF" style="font-size:3px; font-family:Arial" x="167" y="290">Max: 6.4 km</text><polyline fill="none" points="13.0,42.85269081959268 13.73255813959986,36.471986631222535 28.069767441833392,37.637697497732006 28.488372093066573,40.88940477534197 21.843023255933076,60.39926174801076 21.843023255933076,61.319521649507806 23.09883720939979,61.99437797331484 67.0,62.055728508741595 59.20348837226629,74.38705309806392 56.639534883899614,75.92078142252285 51.406976744299755,81.81026012421353 47.53488372103311,82.2396989169647 44.44767441856675,81.56486638402566 41.62209302326664,83.52801336877747 21.162790697533637,83.40531687863404 18.96511627919972,82.54644071520306 19.122093023266643,78.43608700722689" stroke="#4dd2ff" stroke-linecap="round" stroke-linejoin="round" stroke-width="0.5"><title>2023-07-28 3.3km</title></polyline><polyline fill="none" points="133.04530201340094,39.65666819366743 146.0016778523568,40.98461448049056 149.17281879205257,40.453436391369905 167.2483221476432,42.57814534206409 187.0,48.739749946049415 186.5922818791587,50.97065691984608 173.31879194639623,71.20771288589458 168.69798657717183,74.71326092374511 165.1644295300357,79.22794546882506 159.22986577171832,78.85614946705755 158.2785234900657,80.29021822786308 145.00503355707042,79.7590821320191 140.61073825508356,80.34333180630347 137.43959731562063,79.59974119259277 138.79865771811455,69.18935583380517 142.2869127516169,54.051416758680716 141.6526845637709,52.88285492922296 143.1929530201014,47.78364389267517 133.27181208040565,47.25247306845267 133.0,45.81830900811474" stroke="#4dd2ff" stroke-linecap="round" stroke-linejoin="round" stroke-width="0.5"><title>2023-07-25 3.7km</title></polyline><polyline fill="none" points="16.86332087556366,121.20095873528044 17.295782167697325,120.25443105201703 17.266951414872892,117.4486359229777 13.2883075280115,117.17819652348408 13.0,115.69077569356887 17.23812066204846,96.31986128323479 32.518419647589326,96.1846325804363 34.13294180459343,96.89458262515836 35.401494927937165,96.31986128323479 48.31767218373716,96.42128277235315 52.18099305930082,101.12044277737732 54.05499199149199,102.60793211733107 55.69834490120411,105.48147126164986 60.83021890022792,111.66794341485365 61.14735718106385,112.74971846785047 62.531233315588906,113.62865797468112 65.64495461818296,118.9698532379698 66.65403096645605,124.75041232732474 67.0,143.17312699076138 66.5963694609236,143.8153674195637 45.08862786972895,143.57875267637428 40.994660971686244,143.34213775626267 40.70635344367474,142.9703139529738 38.94767752266489,143.07172048813663 35.19967965828255,142.29426955486997 34.248264815774746,142.29426955486997 33.671649759751745,143.4435441722162 20.813134009717032,143.00411613489268 20.495995728648268,139.8266952446138 22.485317672253586,132.42385685260524 23.465563267469406,126.44061432764283 23.09076348110102,125.79833863122622 24.07100907631684,122.78976669476833 17.728243459714577,122.2827011916379 17.266951414872892,121.403785727598" stroke="#4dd2ff" stroke-linecap="round" stroke-linejoin="round" stroke-width="0.5"><title>2023-07-22 6.4km</title></polyline><polyline fill="none" points="133.0,112.75757515744772 138.61525129992515,111.87969811749645 187.0,116.70801255118567 186.9064124780707,128.12030188238714" stroke="#4dd2ff" stroke-linecap="round" stroke-linejoin="round" stroke-width="0.5"><title>2023-07-19 1.5km</title></polyline><polyline fill="none" points="13.0,171.99296273858636 13.633165829116479,166.79615196501254 14.447236181003973,166.37192011156003 26.20603015087545,167.32644127175445 26.748743718490005,168.22793179290602 30.14070351747796,167.16735453924048 44.70351758785546,167.96278769202763 48.72864321619272,169.76576478479546 55.15075376885943,171.5687353274261 55.37688442226499,171.0914790565148 58.27135678404011,172.6293031751993 62.251256281509995,173.21261452548788 63.06532663316466,174.06106617461774 66.90954773873091,174.27317886028322 66.41206030151807,175.06860062398482 67.0,175.33374092870508 66.50251256278716,175.49282504341681 66.95477386959828,178.6214689380722 62.52261306531727,184.50750823345152 62.43216080404818,186.94674730321276 62.07035175873898,186.41647895993083 56.597989949863404,191.0297945702623 51.26130653265864,188.90873524712515 47.597989949863404,189.96926604170585 46.42211055289954,189.65110704122344 45.15577889466658,190.81768904576893 41.98994974861853,189.1738681581628 40.85929648252204,190.4995305891498 38.77889447240159,189.2799212829559 37.42211055266671,190.81768904576893 35.83919597999193,188.8026820429659 36.69849246228114,191.29492634825874 36.56281407014467,193.62807988843997 34.753768844297156,190.71163624958717 32.3115577888675,189.0678150106687 31.180904522538185,189.0147884284961 30.6381909546908,190.02229252184043 29.190954773686826,189.2799212829559 28.06030150759034,190.34045128442813 27.020100502530113,189.59808052133303 26.115577889373526,190.23439838626655 23.040201004827395,188.74965543235885 22.045226130634546,189.38597438507713 21.36683417088352,188.06030897976598 22.904522612923756,187.3709615697735 22.226130653405562,180.00018710564473 21.412060301518068,178.7275243177428 22.814070351654664,180.15926972473972 22.63316582911648,178.67449663081788 24.44221105519682,176.50035658621346 22.316582914674655,176.28824485253426 19.195979899493977,173.21261452548788 20.01005025138147,174.00803798891138 18.834170854417607,174.80346017770353 15.170854271156713,174.37923516900628" stroke="#4dd2ff" stroke-linecap="round" stroke-linejoin="round" stroke-width="0.5"><title>2023-07-17 3.6km</title></polyline><polyline fill="none" points="133.0,162.79998716301634 133.27000000001863,158.2095625490765 133.85499999998137,157.57639718445716 142.35999999986961,157.68192480163998 146.18500000005588,158.36785376345506 146.40999999991618,159.00101811322384 150.19000000017695,158.57890863684588 156.93999999994412,159.7397088286234 159.23500000010245,159.47589084276115 161.2600000000093,160.47839843892143 162.92500000004657,160.0035266734194 167.78499999991618,163.90801429731073 169.9000000001397,160.68945241020992 170.70999999996275,161.63919416524004 174.6699999999255,162.4306442324305 182.86000000010245,167.60142012193683 186.05500000016764,166.17682400500053 187.0,166.5461641336733 186.55000000004657,169.2898250129365 179.57499999995343,178.89251804962987 180.2050000000745,178.7869949649612 179.57499999995343,180.68640703859273 177.9550000000745,181.6888715767418 176.51499999989755,184.27416546837776 174.8049999999348,185.01281838020077 175.34499999997206,185.856991783774 174.4899999999907,186.96496718630078 175.03000000002794,187.33429176805657 173.77000000025146,189.44471265139873 172.2399999999907,188.7060663679149 172.37500000023283,191.02752239568508 170.35000000009313,192.3992867374618 170.035000000149,195.24832358118147 165.89500000001863,197.35871064744424 164.2750000001397,201.5266986118222 162.52000000001863,202.42360281554284 161.3499999998603,201.8432532226434 159.28000000002794,196.6200762000808 158.46999999997206,197.7280274570512 157.52499999990687,197.67526792964782 149.19999999995343,194.82624508586014 146.6799999999348,197.30595108060515 142.62999999988824,197.62250839665649 139.38999999989755,196.93663395554177 137.5449999999255,192.3992867374618 140.64999999990687,183.79931658448186 140.875,179.7894633586111 142.089999999851,178.04833274125122 142.089999999851,173.03595275161206 143.125,171.40032300871098 142.67499999981374,170.134025293577 143.70999999996275,168.60391122224974 143.93500000005588,164.96327592321904 141.41500000003725,165.27985397115117 138.98499999986961,164.59393461054424 137.27499999990687,166.07129820337286 137.18500000005588,165.01603894529399 134.125,164.33011921821162 133.089999999851,163.3276194417267" stroke="#4dd2ff" stroke-linecap="round" stroke-linejoin="round" stroke-width="0.5"><title>2023-07-14 4.3km</title></polyline><polyline fill="none" points="13.0,223.60506498845643 13.89925062446855,218.38582381929155 23.02664446295239,218.64942318203975 27.07327227294445,219.86197843632544 28.87177352188155,219.22934128416819 34.626977518899366,219.49294019612717 45.91257285582833,217.70046481743339 46.452123230556026,221.49628732487326 52.34221482090652,222.07620208070148 53.37635303917341,222.81427442081622 52.881765195634216,223.02515202952782 53.64612822653726,222.60339672199916 57.55786844296381,223.81594225898152 58.59200666099787,224.870327260287 65.38134887581691,226.6100575864548 66.77518734382465,227.82259327711654 67.0,229.82590658514528 65.96586178173311,231.98736708491924 60.07577019161545,238.78799811631325 59.446294754277915,241.47659383428982 58.36719400482252,241.16028921602992 57.69275603652932,239.84235112415627 57.37801831797697,241.52931125086616 56.748542880872265,241.84561563265743 56.20899250614457,240.84398439506185 55.399666944053024,243.9015891715826 55.62447959999554,246.32657259167172 53.96086594508961,248.3298107762239 52.29725228995085,248.1716606891132 52.20732722710818,250.28032435273053 49.68942547868937,255.4992281718587 46.94671107409522,257.7132919054129 45.05828476278111,258.13501720450586 42.540383014362305,261.8250981993624 41.77601998322643,260.243638294487 40.06744379689917,262.2995351825957 40.022481265477836,259.03118226877996 38.044129891786724,257.8187232640339 35.84096586192027,258.1877328416449 32.73855120735243,257.1334190305497 27.388009991729632,260.2963537063915 24.82514571188949,258.45131094241515 23.29641965031624,258.39859533359413 20.733555370708928,261.03436888044234 19.204829309135675,260.1909228771401 18.620316403219476,260.9289382088464 18.53039134060964,251.12378729498596 17.721065778518096,250.33304082875839 20.598667776910588,247.2754759034142 19.56452955887653,247.43362627795432 19.204829309135675,246.69559076311998 20.238967527169734,246.22113877773518 19.924229808384553,244.3233262746944 21.452955870190635,240.79126690514386 20.91340549523011,240.21137414468103 21.587843463756144,239.68419831662322 22.532056619646028,231.56561943830457 23.29641965031624,231.56561943830457 23.29641965031624,230.03678119712276 24.555370524525642,228.5079382187978 23.74604496266693,225.81927183509106" stroke="#4dd2ff" stroke-linecap="round" stroke-linejoin="round" stroke-width="0.5"><title>2023-07-13 4.2km</title></polyline></svg>