<?xml version="1.0" encoding="utf-8" ?>
<svg baseProfile="full" height="300mm" version="1.1" viewBox="0,0,200,300" width="200mm" xmlns="http://www.w3.org/2000/svg" xmlns:ev="http://www.w3.org/2001/xml-events" xmlns:xlink="http://www.w3.org/1999/xlink"><defs /><rect fill="#222222" height="300" width="200" x="0" y="0" /><text fill="#FFFFFF" style="font-size:12px; font-family:Arial; font-weight:bold;" x="10" y="20">Over 10km Runs</text><text fill="#FFFFFF" style="font-size:4px; font-family:Arial" x="10" y="280">ATHLETE</text><text fill="#FFFFFF" style="font-size:9px; font-family:Arial" x="10" y="290">jerryu</text><text fill="#FFFFFF" style="font-size:4px; font-family:Arial" x="120" y="280">STATISTICS</text><text fill="#FFFFFF" style="font-size:3px; font-family:Arial" x="120" y="285">Number: 14</text><text fill="#FFFFFF" style="font-size:3px; font-family:Arial" x="120" y="290">Weekly: 1.2</text><text fill="#FFFFFF" style="font-size:3px; font-family:Arial" x="141" y="285">Total: 170.9 km</text><text fill="#FFFFFF" style="font-size:3px; font-family:Arial" x="141" y="290">Avg: 12.2 km</text><text fill="#FFFFFF" style="font-size:3px; font-family:Arial" x="167" y="285">Min: 10.0 km</text><text fill="#FFFFFF" style="font-size:3px; font-family:Arial" x="167" y="290">Max: 17.9 km</text><polyline fill="none" points="12.637027747288812,61.20414670098398 12.609938861889532,59.51335795199702 12.501583320263308,59.31675217835436 12.467722213506931,55.35307175590424 12.508355541620404,54.543008557251596 12.691205518116476,54.40930797930196 12.630255525931716,54.15763566766691 12.901144379982725,53.0250999938944 13.185577676718822,52.128497331425024 13.43614986675675,52.02625249898847 13.260072111617774,51.90827752207406 13.354883210529806,51.75884228947689 15.284966295643244,52.26220190560707 15.447499608068028,52.183552184462314 15.745477347547421,50.56334989296738 16.2059883994516,49.973461874964414 16.801943878352176,49.603796392570075 18.251199247519253,49.989192281303986 18.420504781301133,49.90267500636401 18.29860479698982,48.6442308244732 17.851638187799836,47.99140472837462 17.655243768618675,47.43295869508438 17.492710456164787,47.36216946937202 17.472393792122602,47.157666892773705 17.14732716724393,46.827315418784565 18.29860479698982,46.91383618119289 18.833610283763846,47.07114640688815 19.37538799183676,47.45655508907657 20.09324345504865,48.30602041176462 20.506348957511364,48.38467412991304 21.07521555101266,48.21950122817361 21.12262110048323,48.36894339276478 21.779526571539463,48.675692181976046 22.32807650102768,49.28918606063962 22.76149866747437,49.45435664665274 23.526759680185933,49.35997349840909 23.838281862350414,49.27345550998143 23.926320739934454,49.053227460324706 24.237842922098935,49.045362161064986 24.90829283586936,49.336377693121904 25.551653864211403,50.075709458149504 25.93089825991774,49.989192281303986 26.682614829886006,50.130765792338934 27.075403668306535,49.80042719127232 28.75491456341115,49.83975329020177 29.465997805295046,50.24087834153761 29.87233108637156,50.311664896406 30.786580968793714,50.044248677913856 32.28324188743136,50.08357465117297 33.861169462266844,49.74537061873707 35.16143596175243,49.93413584496011 36.30594137011212,50.46110296324332 36.98993572659674,50.56334989296738 38.039630036073504,50.18582208681619 38.41210221036454,49.88694458217651 38.96742436120985,49.674583538479055 40.497946386545664,49.871214154751215 42.05555729739717,49.50941342920123 42.41448502900312,49.55660492547031 43.17297382035758,49.88694458217651 43.55221821600571,49.86334893984167 44.64931807492394,49.11614982508763 45.922495688981144,49.068958056377596 46.701301144377794,48.60490410933562 47.19567330303835,48.70715352654952 47.947389873006614,49.053227460324706 49.11221194543759,48.848729416466085 49.55240633329959,49.25772495607089 49.74880075245164,49.28918606063962 50.514061765163206,49.06109275876952 51.27932277787477,48.29815503551799 51.766922715178225,48.164443514775485 53.25003919110168,48.21950122817361 53.81213356327498,48.903786636037694 54.44195014893194,49.210533274919726 54.97018341434887,49.16334156459925 55.60000000000582,48.809402806720755 54.94309452892048,49.13188040818204 54.3539112713479,49.13188040818204 53.79858912056079,48.825133453043236 53.222950305673294,48.18803968253633 51.733061608392745,48.10152036511863 51.20482834300492,48.29815503551799 50.55469509327668,48.9903050436551 49.97228405706119,49.21839855716098 49.58626744005596,49.2262638385655 49.13252860947978,48.809402806720755 48.015112086519366,48.99817034858279 47.121178868139395,48.59703876385902 46.66744003762142,48.54984667406825 45.75996237655636,49.06109275876952 44.73735695250798,49.03749686101946 43.72829597114469,49.71390970226639 43.35582379679545,49.83975329020177 42.035240633325884,49.446491388749564 40.5927574854868,49.80042719127232 39.69205204574973,49.68244877288089 39.23154099387466,49.49368292395957 38.7507132779283,49.48581767013093 38.44596331715002,49.588065906798874 37.71456341119483,50.256608692739974 37.098291268222965,50.50042872165068 36.40752469038125,50.43750749847095 35.50004702931619,49.95773146540887 34.3555416209274,49.72177493260824 33.25166954068118,49.76110107207205 32.256153002002975,50.036383480837685 30.76626430475153,49.99705748324777 30.26511992473388,50.23301316473953 29.858786643657368,50.28020421347901 29.445681141252862,50.17795690433559 28.822636776894797,49.79256196906499 27.56300360558089,49.76896629752446 27.10249255367671,49.666718303276866 26.89932591316756,49.74537061873707 26.641981501772534,50.115035415226885 25.90380937451846,49.94986625939782 25.5584260855685,50.02065308424062 25.301081674260786,49.808292412693845 24.441009562608087,49.59593115008465 23.865370747749694,49.28918606063962 23.03238752152538,49.45435664665274 22.571876469650306,49.36783876523259 22.212948738073464,49.13974569849961 21.77275435021147,48.62850014084688 21.1632544285967,48.392539497268444 21.05489888699958,48.203770456966595 20.526665621553548,48.345347280999704 20.052610126964282,48.235231996113725 19.334754663723288,47.346438521424716 18.941965825360967,47.07114640688815 18.413732559944037,46.88237409712019 17.14732716724393,46.79585329902329 17.154099388601026,46.95316376802657 17.655243768618675,47.45655508907657 17.84486596644274,48.0464625666209 18.29860479698982,48.7150188606538 18.400188117229845,49.91054021722812 18.244427026162157,49.989192281303986 16.957704969419865,49.6352573544209 16.2059883994516,49.94986625939782 15.677755134005565,50.67346181789617 15.474588493496412,52.112767366132175 15.312055181042524,52.254336937148764 15.278194074315252,52.48242069353728 13.300705439702142,51.98692752694478 13.002727700280957,52.506015525985276 12.39999999999418,55.28228987752664 12.528672205662588,56.95744339154044 12.467722213506931,59.05723178169137 12.684433296730276,60.567156267061364" stroke="#4dd2ff" stroke-linecap="round" stroke-linejoin="round" stroke-width="0.5"><title>2023-10-21 17.9km</title><desc>1697848806000</desc></polyline><polyline fill="none" points="99.20908693538513,32.39999999999418 99.39624956902117,32.56825562102313 100.82110058621038,32.624340735565056 100.99015070690075,32.61031946125877 101.0324132370879,32.51217046020611 101.27995091379853,32.554234335133515 101.3584384698188,33.171168180473614 101.52748859050917,33.381485258629255 101.66031368533731,33.86521207199257 101.87766384051065,34.082537492067786 101.93200137926033,34.61533236011746 102.35462668101536,35.45657892350573 102.43915174136055,35.926270398260385 102.39085170687758,38.590130879485514 102.54782681891811,38.828471210217685 102.40896421982325,39.05980073323735 102.35462668101536,40.84732054264168 102.19161406462081,41.225848127643985 101.66031368533731,41.80765494201478 101.46711354737636,42.41749530206289 101.52748859050917,43.23060728536075 101.7146512241161,43.917539152593235 101.98633891806821,44.61848289387126 102.28217662929092,44.82876460922853 104.01494036629447,44.933905223377224 104.11757793958532,45.081101810443215 103.49571499563172,46.93855521113437 103.15157724995515,48.40345442255784 102.55990182756796,49.75618025633594 102.57197683615959,50.036534580816806 101.64823867671657,52.804971573008515 100.66412547414075,56.72264329207246 100.42866280605085,56.86981440411182 100.15093760777381,56.785716664737265 100.59771292674122,56.86981440411182 100.55545039655408,57.08005829839385 99.97584998278762,58.54473942423647 98.01969858628581,64.28402377209568 97.98347356039449,65.07585289704002 97.67556084058015,66.58941217301617 97.72386087506311,67.15698823581624 97.53669824145618,67.50033442382846 97.44613567678607,67.93476997884136 96.80012271559099,73.04969007443287 96.7457851768122,73.32294212964916 96.61899758627987,73.32294212964916 96.7155976552458,73.58918666846876 96.56466004747199,74.22676804824732 95.98505963370553,74.75924902697443 96.05750968545908,74.91338748150156 95.88242206044379,75.17261955094 96.0333596681885,75.29172584701882 97.3374605991994,75.30573833873495 97.47632319832337,75.15160077124165 97.33142309487448,74.90638119566574 97.37368562506163,74.78727422642987 97.79631092678756,75.24268210325681 99.88528741811751,75.30573833873495 99.86113740090514,75.59999999999854 99.88528741811751,75.38280699181632 99.68604977588984,75.31975082761346 99.48681213366217,74.94841889983218 97.61518579747644,74.81529941438203 97.06577290524729,74.14969808840397 97.10803543543443,73.86944295445574 97.02351037506014,73.82039818757767 97.27104805177078,72.42611076988396 97.25293553888332,72.03374334002001 97.72386087506311,70.04384517637664 97.74801089230459,68.4532862100823 98.47251140951994,64.77453847368452 98.47854891384486,64.19292779593525 98.91928672851645,62.70734546083986 99.06418683193624,62.70734546083986 99.16682440519799,62.51814161203947 100.28376270260196,58.92316866336478 100.44677531899652,58.77600198678556 100.77883805605234,57.7458263499866 101.05656325430027,57.367390571307624 100.89958814223064,57.38841483640135" stroke="#4dd2ff" stroke-linecap="round" stroke-linejoin="round" stroke-width="0.5"><title>2023-10-15 12.3km</title><desc>1697371198000</desc></polyline><polyline fill="none" points="163.95354094577488,34.18141536372423 164.12732517000404,34.480632867169334 164.18125820512068,35.16256548063393 164.3011093942332,35.385235863454 164.1752656456374,35.94886698962364 164.18125820512068,36.700367842677224 164.30710195368738,36.825617172100465 164.21122100239154,38.14767926509376 164.37901266713743,38.32859101278882 164.75055135341245,38.32163287761068 164.37901266713743,38.34946541405225 164.25316891857074,38.72520353373693 164.20522844293737,41.3205227400249 164.46290849952493,41.41097442666796 165.5955022367416,41.424890060021426 165.8411971744208,41.73103326871205 165.90112276899163,43.157364023856644 165.75130878260825,44.64628206037014 165.71535342585412,47.30398879187851 165.93707812574576,47.505747600094764 168.3640647054417,47.47096164163668 168.93335785376257,47.561405096355884 169.01725368615007,47.721420142835996 168.49590101346257,49.481560651365726 168.2801688730833,49.64852812170284 168.02248881646665,49.697226889526064 168.3880349432875,49.745925622279174 168.26818375414587,50.35117837275175 167.800764116575,51.77037046636542 167.46518078705412,52.36864840141061 167.2794114438875,53.25909877882077 166.28464657417499,56.3199325015521 165.49962128544576,59.41540749458363 166.64420014154166,59.770160746367765 166.71611085502082,59.916235073797 166.0089888392249,59.82580814639368 165.66741295022075,60.28489744943363 165.2179709910124,61.69692531594774 165.03819420732907,61.94037541655416 164.7805141507124,62.656809199615964 163.96552606468322,65.41813831723266 164.16328052672907,64.74346629552747 163.9894963024999,64.81997583218617 163.41421059472486,66.579671289197 163.27638172724983,67.97070249385433 162.778999292379,70.36320925668406 162.41944572501234,73.40240543251275 162.17375078733312,74.5638013276839 162.27562429808313,74.84893140385248 162.21569870351232,75.59999999999854 162.05989215764566,75.44005090500286 162.37150524937897,73.62494990250707 162.29959453589981,73.81967571329733 161.98198888471234,73.75708533525176 161.95202608741238,73.29113292302645 162.1797433467582,72.4357193955293 162.3655126898957,71.07259906812396 162.30558709535399,70.82918183385482 162.58124483033316,69.6885865549848 162.54528947357903,69.34779520994925 162.677125781629,69.06264194894902 163.20447101377067,66.14149053500296 165.36179241797072,59.93710280909727 166.6981331766583,54.93561805011268 168.31013167035417,50.246824836904125 168.3041391109,49.961591016937746 169.37680725351674,49.83636603283958 168.8674396997667,49.80853822710196 168.8015215457417,49.70418385350058 169.06519416181254,49.02935501463071 169.27493374276673,48.00666341652686 169.9700706396834,45.6968540191956 170.04797391258762,44.945453221815114 169.9520929613209,44.42364219696174 169.9461004018376,41.82844218059472 169.59853195340838,41.7588644007119 169.47868076426676,41.59883523511962 169.62250219122507,41.24398660289444 169.58055427501677,38.815658694904414 169.45471052645007,38.384256068471586 169.56856915613753,38.18942817293282 169.49665844265837,35.1903993186279 169.60452451283345,33.60385224816855 169.41276261027087,32.81056473837816 169.16706767256255,32.580927141418215 168.47792333510006,32.400000000001455" stroke="#4dd2ff" stroke-linecap="round" stroke-linejoin="round" stroke-width="0.5"><title>2023-10-07 16.2km</title><desc>1696682811000</desc></polyline><polyline fill="none" points="31.63581735047046,80.4628200604784 32.47978186607361,80.58846008436376 34.38411205512239,80.40000000000146 35.02249547088286,80.7140999788171 36.861905312514864,85.29986756074504 36.68878438626416,85.80240695113025 36.77534484938951,90.45079817307851 37.17568699136609,91.34276650453103 37.759970117593184,91.50608394337178 40.72466598008759,91.49352107123559 41.12500812218059,91.76990395972825 41.21156858530594,97.88785576124792 41.00598748534685,99.50837066084932 39.4046189172077,104.89737008275551 39.06919712253148,105.75154860784096 38.4740939384792,106.10326743935002 38.90689625416417,106.10326743935002 38.93935642787255,106.34193321200291 37.83571052283514,109.77113199559972 37.29470762825804,110.8764942199341 37.1648669334827,111.84367795477738 35.401197497034445,117.47077677710331 35.07659576024162,117.99830399310304 35.08741581812501,118.76447041385109 33.84310916054528,123.38648715075396 33.4427670185687,123.59999999999854 31.689917639945634,123.22321236703283 27.264513961970806,121.95468545547192 26.885811935702804,121.6658111479992 26.78843141469406,121.22621849907591 27.091393035661895,120.67358549476194 27.123853209312074,119.93255094921915 27.664856103947386,118.4881486525046 28.13011859334074,116.05146604526817 29.23376449837815,111.96928566973656 29.5150860035792,111.07746809432865 29.79640750878025,111.01466379414342 29.8937880298472,110.75088538038108 32.32830105558969,112.79829334680835 35.97466056531994,115.44856799738773 38.75541544368025,107.02024391241139 38.571474459487945,106.54291455331986 37.98719133331906,106.5177919037742 38.88525613839738,106.37961723873741 40.043002332909964,102.67396559297777 39.91316163819283,102.22174277318845 34.48149257618934,102.13381036362989 34.135250723629724,101.81976552647393 34.016230086795986,97.18436972573545 34.39493211306399,94.96082469362591 34.30837164988043,91.7322154208814 34.08115043415455,91.50608394337178 32.53388215554878,91.51864681424195 32.1227199556306,91.19201175155467 31.646637408353854,91.17944884704048 31.43023625051137,90.92819048553065 31.43023625051137,87.33513930536719 31.63581735047046,86.10392959164164 31.408596134744585,85.28730404947419" stroke="#4dd2ff" stroke-linecap="round" stroke-linejoin="round" stroke-width="0.5"><title>2023-10-05 10.8km</title><desc>1696510480000</desc></polyline><polyline fill="none" points="78.64355179705308,109.78266243739927 78.51416490488918,109.11980158944789 78.50655391119653,105.54026449577213 78.39999999999418,105.08949738294177 78.56744186047581,103.78137548589439 78.52177589852363,102.9063368640127 78.90993657507352,101.1208768311335 79.38181818183511,99.77733784134034 80.73657505286974,99.99831609516696 81.61945031714276,100.32536286582763 81.77928118393174,100.25465015623922 82.15983086681808,98.3188670845775 82.67737843553186,97.73547183626943 83.31670190274599,97.34653946567414 84.9302325581375,97.77966858493164 85.13572938690777,97.69127506481163 84.99873150105122,96.30348485327704 84.4735729386739,95.55212409267551 84.26046511626919,94.924511822348 84.09302325584576,94.84495500929916 84.04735729389358,94.5974444522144 83.69725158563233,94.22617727686156 85.11289640594623,94.34993318060879 85.72177589853527,94.5709254215617 86.35348837211495,95.11014409903873 86.73403805497219,95.69355720945168 87.18308668074314,95.95874367463693 87.52558139534085,95.99410180803534 88.30190274844063,95.77311323513277 88.90317124736612,95.82615054455528 89.49682875262806,96.09133659968211 90.02198731500539,96.57750890398165 90.40253699789173,96.75429814938252 91.59746300213737,96.74545869575377 92.08456659616786,96.86037152162316 92.48794926004484,97.13439379271585 93.10443974632653,97.86806201396394 93.58393234669347,97.79734727803589 94.37547568712034,97.97413400849473 94.90063424949767,97.59404208743217 95.48668076112517,97.68243570778577 96.71966173363035,97.62056018309522 97.00126849894878,97.68243570778577 97.59492600426893,98.0890451878513 98.18858350950177,98.15975968319981 99.01057082452462,97.86806201396394 100.67737843550276,97.91225869429036 101.97124735731632,97.57636335242569 103.15095137420576,97.55868461377395 104.37632135307649,97.85922267514252 105.05369978860836,98.25699201912357 106.02790697675664,98.52217055673827 106.89556025370257,98.28350990978652 107.64143763211905,97.64707827058737 108.18942917545792,97.45261210533499 110.03890063424478,97.64707827058737 111.69048625795403,97.26698489979026 112.14714587738854,97.32886067961954 112.8397463002184,97.64707827058737 113.32684989427798,97.65591763124394 114.54460887948517,96.83385319088848 115.92980972514488,96.78965595470072 116.87357293869718,96.2416083335338 117.42156448200694,96.33884284451051 118.35010570826125,96.75429814938252 119.59830866806442,96.51563258197712 120.26046511629829,97.01064190777106 121.05200845663785,96.83385319088848 121.56194503168808,96.48911414457689 121.60000000000582,96.3742008211484 120.87695560252178,96.92224759485543 120.2300211416441,96.93992646474362 119.66680761097814,96.46259569901304 118.37293868922279,96.68358249494486 117.00295983086107,96.15321322785894 115.8993657505489,96.7189403294542 114.97843551795813,96.66590357223322 114.51416490486008,96.78965595470072 113.55517970403889,97.49680899978557 113.1517970401328,97.60288145356026 111.77420718816575,97.18743026013544 109.9932346722926,97.58520272037276 107.97632135308231,97.20510907533753 107.55771670187823,97.4172545733527 106.79661733613466,98.09788450293854 105.95940803384292,98.36306353257532 105.29725158563815,98.27467061381321 104.26976744187414,97.73547183626943 102.82367864690605,97.4791302447411 101.75052854121896,97.54984524306201 100.65454545454122,97.84154399480758 98.99534883722663,97.80618662320921 98.42452431289712,98.07136655489012 98.03636363634723,98.11556313046458 97.5416490486241,98.00065198664379 96.84143763213069,97.56752398354001 94.93107822409365,97.42609395769978 94.67230443973676,97.4879696226999 94.39069767441833,97.93877669157519 93.54587737843394,97.7531505384759 93.13488372092252,97.82386531084921 92.86849894290208,97.59404208743217 91.88668076109025,97.36421824804711 91.21691331925103,96.97528419352602 90.349260042276,97.18743026013544 89.85454545452376,97.11671496293275 89.39788583508926,96.82501374547428 88.86511627907748,96.2150898113905 88.15729386892053,96.02945992685272 88.1192389006319,95.77311323513277 87.38097251584986,95.94106460249168 86.90147991545382,95.76427368035365 86.20887949259486,94.87147395517968 85.75221987313125,94.52672701893607 85.06723044399405,94.29689495803177 83.69725158563233,94.21733756260801 83.71247357293032,94.38529197743628 84.07019027485512,94.6416428183802 84.07780126851867,94.87147395517968 84.26046511626919,94.95987038222665 84.45073995771236,95.53444493666757 84.97589852008969,96.30348485327704 85.12811839324422,97.70011442094255 84.95306553909904,97.79734727803589 83.35475687106373,97.42609395769978 82.44143763213651,97.92109802761115 82.04566596195218,98.53100982718752 81.81733615224948,100.17509828825132 81.68033826639294,100.42259274631215 81.74122621564311,100.97945266550232 81.43678646936314,103.37479299416736 81.37589852008387,105.07182019299216 81.24651162791997,105.44304041692521 81.26173361521796,106.282699282252 80.8431289640721,109.17283064578805 80.62241014800384,109.6324144274331 80.00591966172215,109.6324144274331" stroke="#4dd2ff" stroke-linecap="round" stroke-linejoin="round" stroke-width="0.5"><title>2023-10-01 15.8km</title><desc>1696118254000</desc></polyline><polyline fill="none" points="173.2210218977998,80.71966378044453 172.84262773720548,80.866126577268 173.20525547448779,82.09274776255188 172.6376642335672,82.58705539919902 166.441459854017,82.73351665718656 165.0540145985433,82.97151594393654 164.51795620442135,83.39259082436911 164.4075912408298,89.781822034769 164.3445255474071,90.23949453832756 163.8400000000256,90.75208634336013 153.32379562046845,91.00838169160124 149.74481751822168,98.45909207810473 146.07124087587,103.8043725053576 145.83474452554947,104.66472796941525 145.17255474446574,105.15897284250241 144.40000000002328,106.67830958950799 144.68379562039627,107.52034605035442 145.55094890511828,108.05119307401765 146.32350364961894,111.95012436817342 145.94510948902462,114.38462496410648 145.0779562043026,115.95879557541048 145.361751824792,116.87400464100938 145.25138686131686,117.62447255998268 144.51036496349843,118.26511339965509 144.66802919708425,119.27183005611005 146.70189781015506,119.2901339426171 147.56905109487707,119.6745151230134 151.25839416059898,120.00398404494626 157.24963503651088,120.04059166525258 165.52700729924254,117.44143189613533 168.5226277371985,123.28033621955547 169.29518248175737,122.18212433885492 178.83386861311737,121.65131949879287 183.51649635034846,121.01069085780182 183.894890511001,121.13881677061727 184.08408759126905,121.59640856286569 185.72379562049173,116.28827138169436 186.1337226277683,114.12836331309518 186.46481751825195,113.85379684857617 187.50540145981358,110.11965083966788 187.59999999997672,99.8137331437174 186.95357664232142,99.11810793991026 181.892554744496,98.86182428395841 181.49839416058967,98.25772563304054 181.4510948905372,97.36072687950218 181.54569343070034,91.4843577863212 182.05021897814004,90.66055220087583 184.02102189784637,90.6971658635448 184.44671532843495,90.31272202960099 184.85664233576972,90.66055220087583 187.23737226275261,90.55071116768522 187.42656934307888,83.42920598418277 186.9378102190094,82.89828542812029 178.25051094888477,83.02643881099357" stroke="#4dd2ff" stroke-linecap="round" stroke-linejoin="round" stroke-width="0.5"><title>2023-09-27 10.1km</title><desc>1695818073000</desc></polyline><polyline fill="none" points="35.18272838438861,171.60000000000582 35.45938999473583,171.23054536766722 35.05823065969162,170.21855645677715 35.40405767259654,169.75271808372054 35.00289833761053,168.676465485667 35.16889530379558,167.8572234535095 34.975232176540885,158.556114965264 35.62538696092088,155.2146486139245 36.745866482902784,151.92130639779498 38.93149320484372,152.2265459193004 40.757459833228495,152.82095800887328 41.0202883630991,152.69243666801776 41.76727471110644,149.17412380353198 42.55576030066004,148.17805733428395 43.524075936875306,147.68002171248372 42.65259186428739,147.27837892268144 42.680258025298826,147.11772151690093 46.83018218079815,148.21018861007178 47.18984227423789,147.9531382182904 46.98234606650658,145.73606099079188 45.9448650276172,144.12946358090267 45.5575387730496,143.00483553901722 45.23937792121433,142.8602399162337 45.21171176014468,142.44251847453415 44.42322617059108,141.67133748657943 42.1407678850228,141.14114834352222 40.60529594752006,139.64696923512383 39.31881945935311,139.34170507411181 37.58968439453747,138.20097581128357 36.75969956343761,138.12064244991052 35.40405767259654,138.65084186996683 34.76773596875137,138.5865753696853 34.53257359995041,138.28130913132918 34.61557208310114,137.26910627250618 34.91989985451801,136.5943007136957 35.66688620246714,135.903425328288 35.83288316865219,133.97538479392824 36.745866482902784,133.01135557996167 38.97299244638998,132.97922117004055 39.85830959951272,132.52933873615984 40.56379670591559,131.82237800123403 41.60127774486318,131.42069433638244 43.69007290311856,132.0312530977244 45.43304104846902,131.90271460993972 46.2768589600455,132.51327148232667 46.67801829503151,133.17202752979938 46.76101677818224,133.95931768920855 46.249192798975855,135.43748438525654 46.3460243626032,136.6264343780058 45.931031947082374,137.10843854736595 45.156379438063595,137.26910627250618 44.25722920434782,140.8198207122332 44.32639460696373,141.02868374793616 45.50220645102672,141.5428069509071 45.35004256531829,143.02090171106101 45.156379438063595,142.41038600954926 44.188063801731914,141.55887327363598 42.956919635646045,141.4464089795365 41.55977850331692,140.83588710952608 35.54238847788656,139.1810394860513 30.299650961416773,137.28517303589615 29.9953231899417,136.54610020482505 30.686977215926163,133.86291502627137 30.53481333021773,133.60584096686216 28.97167523158714,132.93101954284066 29.732494660129305,131.26002058040467 29.67716233804822,130.53698662831448 29.276003003004007,130.02282710984582 28.653514379635453,129.83001685292402 27.837362629070412,130.08709714243014 26.95204547594767,130.00675959752698 25.430406618921552,128.8338267244253 24.268427855393384,128.40000000000873 22.041301891906187,128.65708264920977 20.81015772576211,128.44820302905282 21.861471845244523,128.73742089005827 24.25459477485856,128.51247371120553 25.20907733065542,128.7534885332716 26.965878556424286,130.05496212941944 27.782030307047535,130.13529964949703 28.639681299217045,129.8942869650782 29.234503761515953,130.08709714243014 29.552664613351226,130.53698662831448 29.635663096501958,131.21181842137594 28.874843668018002,132.91495233048045 30.576312571705785,133.97538479392824 29.88465854577953,136.48183283640537 30.258151719812304,137.36550682807865 36.441538711544126,139.5666366191581 41.65661006688606,140.948351844243 42.735590347321704,141.52674062644655 44.20189688226674,141.65527117541933 45.08721403544769,142.49071715958416 45.156379438063595,142.94057083434018 45.474540290015284,143.06910021720978 45.820367302920204,144.1776617441792 46.85784834186779,145.75212688128522 47.05151146912249,148.00133519903466 46.76101677818224,148.25838551139168 43.35807897069026,147.24624745477922 42.666424944764,147.13378726491646 42.26526560971979,147.34264183854975 33.84091957408236,144.96489630106953 33.23226403124863,145.43080875741725 32.19478299235925,150.5396884555812 35.653053121990524,151.551805124589 36.20637634274317,152.72456701319607 34.8507344519021,157.91353084516595 34.74006980773993,160.33927202416817 34.836901371367276,161.8814454642561 35.09972990123788,162.4918849029782 34.8507344519021,163.45573178159248 34.906066773983184,167.51988724785042 35.14122914278414,169.0780531448545" stroke="#4dd2ff" stroke-linecap="round" stroke-linejoin="round" stroke-width="0.5"><title>2023-09-23 13.8km</title><desc>1695473324000</desc></polyline><polyline fill="none" points="78.40000000002328,150.88930615365825 78.5400324149523,150.59891320146562 78.5200277842232,148.9030034176103 79.53026163461618,145.16261903375562 79.84033341048053,145.11615385086043 82.52095392451156,145.82474580841517 82.91104422323406,145.232316772177 83.07108126883395,143.32722974274657 83.80125028942712,142.14234229765862 84.89150266267825,141.51504390065384 86.96198194025783,142.09587586946873 87.22204213938676,141.96809309320088 87.21203982405132,140.92259220834967 87.01199351705145,140.08618451649818 86.37184533459367,139.15683535542485 86.08177818940021,138.30879755778733 85.85172493633581,138.21586152072268 85.8017133596004,137.87896774367255 85.32160222274251,137.42590211058268 87.06200509378687,137.56530711478263 87.84218569111545,137.80926545713737 88.57235471176682,138.32041455701983 89.34253299375996,139.37755647517042 89.82264413061785,139.67959520164004 92.00314887712011,139.47049155416607 92.77332715911325,139.7957637270083 94.06362583936425,140.725107618724 96.14410743227927,140.79480810165114 96.74424635333708,141.12007645185804 97.74447788845282,142.2120419040075 98.19458207918797,142.09587586946873 99.43486918270355,142.31659123268764 99.72493632789701,141.75899369223043 99.98499652696773,141.67767715374066 100.61514239414828,141.84031017202506 102.61560546426335,141.88677670558536 103.55582310725003,142.4908398982443 104.43602685810765,142.56053928906476 105.40625144710066,142.18880870667635 107.7667978699319,142.2120419040075 108.63699930539588,141.91000996518414 110.43741606856929,141.67767715374066 112.52789997687796,142.18880870667635 112.90798796020681,142.5837724097437 113.70817318826448,142.93226864528697 114.61838388518663,143.036817305765 115.67862931237323,142.76963720280764 116.76888168562436,141.94485984557105 117.08895577682415,143.18783186638757 117.67909238254651,143.65249078364286 117.88914100494003,144.12876418555243 119.08941884699743,144.00098371430795 118.47927761060419,144.16361337986018 118.76934475579765,144.7908970342396 118.50928455666872,144.90706029078865 118.65931928687496,144.69796634277736 118.18921046541072,144.94190924442228 118.19921278080437,145.49949103679683 120.62977541098371,148.89138750919665 121.49997684650589,150.6453761241064 121.60000000003492,151.237776708811 121.50997916189954,152.805880875625 121.25992127810605,153.13111456398474 121.3199351701769,153.537655354834 120.86983097938355,154.67596176933876 119.57953229919076,156.22078780413722 116.67886084743077,157.52167751940578 116.28877054876648,157.48683245487337 115.70863625837956,157.84689760273614 115.02847881458001,158.78770756113954 114.5883769391221,159.7401244603825 114.37832831678679,160.98290026653558 114.43834220891586,162.03982965889008 114.20828895579325,162.23727690858505 111.1775874044979,162.19081876329437 110.89752257469809,161.90045492154604 110.877517943969,161.1687347237239 110.80750173650449,161.7494654283073 111.1775874044979,162.2256623740468 110.9475341514335,161.98175687260664 109.56721463304712,162.36503670943057 107.24667747167405,162.21404783833714 106.90659874974517,162.38826574857376 106.1064135216875,162.27212050497474 105.5762908080942,162.51602537831786 104.25598518177867,162.24889144190092 101.79541560547659,162.41149478290026 101.5653623524122,162.2256623740468 100.45510534849018,162.17920422396855 100.0450104190968,162.20243330142694 99.62491317436798,162.50441087248328 98.53466080111684,162.2256623740468 98.31460986338789,161.63331952667795 98.23459134058794,162.26050597405265 97.61444778885925,162.42310929831 94.6737670757575,162.43472381248284 94.32368603843497,162.27212050497474 93.96360268583521,162.44633832546242 93.00338041211944,162.4927963654918 88.33229914336698,162.51602537831786 86.94197730958695,162.21404783833714 83.50118082889821,162.57409788941004 81.82079184998292,162.53925438634178 81.52072238945402,162.3301931417227 81.27066450566053,162.5624833895854 80.61051169253187,162.57409788941004 80.410465385532,161.6681633097396 80.14040287106764,161.1687347237239 79.78031951840967,160.97128560279816" stroke="#4dd2ff" stroke-linecap="round" stroke-linejoin="round" stroke-width="0.5"><title>2023-09-17 12.0km</title><desc>1694942313000</desc></polyline><polyline fill="none" points="144.44030790758552,161.380820870334 144.56123163050506,161.2989105447923 144.5007697690162,160.42129620715423 144.65192442265106,160.0351437503341 144.44030790758552,159.33304501081875 144.71238628413994,159.11071283851925 144.5007697690162,158.2681869728549 144.5914625612204,157.09800179086596 144.43023093073862,156.26716299250984 144.55115465359995,153.6107784456908 144.40000000002328,152.25330684650544 144.47053883835906,150.74368575240078 145.49839048285503,146.42535645817406 145.9216235129279,145.96893807454762 147.69517144857673,146.2264050806334 148.67263820854714,146.65941645605199 148.94471658498514,146.2966232537001 149.21679496148136,144.34220122010447 149.88187543739332,143.27720259737544 150.90972708183108,142.76225462536968 152.96543037088122,143.3474225944301 153.27781665499788,143.23038924189314 153.26773967809277,142.17708364021382 152.99566130159656,141.13547182389448 152.37088873336324,140.3162198608261 152.12904128764058,139.52036943548592 151.8871938418015,139.4384433396408 151.86703988804948,139.13414589471358 151.3531140657724,138.61917912967328 152.97550734778633,138.73621723592805 153.98320503847208,139.05221952017746 154.7188243526616,139.62570290033182 155.39398180542048,140.57369968625426 155.9280615815078,140.88969685572374 158.01399580127327,140.6439213554695 158.82015395379858,140.9365111764273 159.7170048985281,141.70894468040206 160.28131560533075,141.9430144016078 162.29671098670224,142.0132352238361 162.82071378588444,142.294118078491 163.50594821554841,143.12505912146298 163.98964310705196,142.98461880889954 164.7252624212415,142.31752495170804 164.13072078378173,142.8909918373247 163.62687193840975,143.12505912146298 163.86871938419063,143.46445582631713 164.3725682295044,143.31231260135246 165.53142057382502,143.53467570753128 165.85388383484678,142.98461880889954 166.1360391882481,142.8909918373247 168.75605318404268,143.10165241479262 169.7335199440131,143.71022522059502 170.49937018891796,143.76874166463676 171.69853044085903,143.382532576652 173.92554233729606,143.4410491896051 176.20293911825866,142.8909918373247 178.621413575951,143.32401593361283 179.59888033592142,143.86236791236297 180.48565430368762,144.10813644526934 181.64450664800825,144.10813644526934 182.50104968511732,143.64000544798182 182.3902029391029,143.78044494979986 182.56151154648978,144.1666526842091 183.2870538838324,144.00280713917164 183.42813156050397,144.52945269252814 183.9722883134964,144.88054837098753 184.31490552832838,145.72317356958956 184.17382785165682,146.05085945798783 184.81875437364215,145.31356487912126 185.19160251924768,145.19653355328774 185.62491252622567,145.38378361670038 185.5543736878899,145.58273647073656 184.5164450664888,146.1912959778274 184.46606018196326,146.7530403200726 184.28467459761305,146.71793138009525 184.21413575927727,146.9519907748254 186.84422673197696,150.74368575240078 187.36822953115916,151.85542416471435 187.60000000003492,153.4235419484612 187.4891532540205,154.523551948987 187.02561231632717,155.83418825187982 186.13883834850276,156.9107710428725 184.73813855840126,157.82351802394987 183.23666899930686,158.3383977003541 178.14779566129437,158.42031016093824 173.83484954515006,158.1394671930102 173.4317704688292,158.35009948406514 172.15199440164724,158.2447833873739 169.34051784465555,158.44371371025045 166.73058082570788,158.17457260199444 166.216655003489,158.38520482792956 165.22911126661347,158.22137979706167 164.6446466060006,158.2915905534901 164.6345696290955,158.7713628943311 164.86634009791305,158.92348540847888 164.2919524142635,159.08730942663533 163.5865640307893,158.95859057510825 162.04478656401625,158.9936957309037 161.85332400276093,159.16922134708875 161.31924422673183,159.028800875858 159.34415675298078,159.14581794727565 158.46745976206148,158.84157331077586 155.5048285514349,158.90008195803966 153.25766270118766,159.71919985461864 153.27781665499788,159.57878006332612" stroke="#4dd2ff" stroke-linecap="round" stroke-linejoin="round" stroke-width="0.5"><title>2023-09-10 11.8km</title><desc>1694335282000</desc></polyline><polyline fill="none" points="12.65495081973495,212.43406594751286 16.974950819741935,212.2860375634482 16.94662295083981,211.52944590138213 17.725639344309457,208.6017313379416 18.09390163939679,205.80554932101222 17.923934426216874,204.86799497394531 18.22137704922352,201.33155620899925 17.824786885350477,200.755849459194 18.40550819679629,196.19946850011183 18.17888524592854,194.99866774474503 18.589639344310854,194.4722864831274 19.085377049224917,191.46201028802898 19.75108196726069,190.37632297349046 21.309114754141774,189.33997819185606 24.340196721372195,190.16247460139857 24.694295082066674,189.93217603402445 24.694295082066674,188.28717660163238 24.439344262355007,187.33306916072615 23.462032786919735,186.0005992223596 23.107934426283464,184.84907302878855 22.73967213119613,184.70101905814954 22.654688524606172,184.22395532927476 21.9889836065704,183.56593405247258 24.382688524667174,183.7962418080424 25.473311475419905,184.10880180171807 26.648918032820802,184.91487474941823 27.640393442707136,186.2967046146514 28.334426229586825,186.77376214656397 28.985967213113327,186.88891375091043 31.323016393522266,186.46120737296587 32.42780327872606,186.83956307345943 33.716721311502624,187.92527445076848 34.59488524595508,188.3365268313646 37.328524590237066,188.35297690451262 38.30583606561413,188.86292833191692 39.56642622954678,190.39277283637784 40.472918032843154,190.22827413101913 41.9742950819782,190.54082152621413 42.49836065585259,189.93217603402445 42.9091147541767,189.80057670349197 45.54360655741766,190.0637752561306 47.526557377073914,191.26461314388143 48.546360655804165,191.52780928183347 52.3281311475439,191.11656512551417 54.31108196725836,191.14946469699498 54.79265573772136,192.33384475407365 54.580196721304674,193.09052741086634 54.93429508205736,194.32424144046672 54.80681967223063,195.22895900075673 55.600000000034925,196.2652655406564 55.260065573849715,196.57780111294414 54.636852459050715,196.6271487789054 48.92878688528435,196.6600472144346 48.80131147551583,197.0712770862301 48.22059016401181,197.58120065566618 47.86649180337554,201.00258117767225 46.9458360656281,201.6276331574336 45.75606557383435,201.87436352827353 45.345311475452036,202.74614111737174 45.444459016493056,203.65081093960907 45.13285245903535,203.8975381830969 45.10452459019143,204.32519783500175 44.77875409839908,204.53902723130886 41.09613114758395,204.70351118739927 40.54373770498205,205.21341037408274 40.373770491802134,205.0324785910634 40.20380327873863,205.47658351060818 40.35960655746749,207.66419341394794 40.21796721313149,211.18404416786507 38.419147541048005,211.57878894518944 28.900983606639784,211.6281319737027 25.657442623050883,211.3649689786398 17.258229508297518,211.595236623034 17.017442623036914,211.31562586872315 17.499016393499915,209.06227426628175 17.30072131153429,208.40435539049213 15.261114754131995,208.1576351129479 12.400000000023283,208.4865953982371 12.414163934474345,211.20049188639678 13.07986885245191,211.595236623034 15.955147541011684,211.7761609677982 16.422557377140038,211.54589358434896" stroke="#4dd2ff" stroke-linecap="round" stroke-linejoin="round" stroke-width="0.5"><title>2023-08-27 10.1km</title><desc>1693140460000</desc></polyline><polyline fill="none" points="90.67430506099481,205.04759760519664 90.62259141070535,204.7072945478576 90.62259141070535,204.046704558481 90.55363987688906,203.52623813625542 90.58811564388452,203.04580635509046 90.55363987688906,202.0849392281816 90.60535352729494,201.64454020668927 90.8294460119796,201.3242493821599 90.88115966226906,201.1440855612891 90.86392177880043,199.9630074864108 90.89839754567947,199.56264040757378 90.86392177880043,199.2623645569547 90.95011119596893,198.88201447980828 90.96734907943755,198.56171910044213 90.91563542908989,197.82103401279892 90.84668389539002,197.6408669428056 90.69154294452164,197.42066251923097 90.58811564388452,197.36060672406165 90.38126104261028,197.32056951693085 89.91583818983054,197.24049507791642 89.29527438612422,197.20045784601825 86.79578128788853,197.20045784601825 86.55445091979345,197.16042060589825 86.39930996880867,196.98025292319653 86.36483420198783,196.80008507339517 86.4337857356877,196.31963665696094 86.65787822043058,194.15760407694324 86.64064033690374,193.5169972095464 86.7785434043617,192.27581539157836 86.83025705476757,191.5951639306004 86.7785434043617,191.41499108578137 86.57168880320387,191.23481807384815 86.41654785227729,191.03462564235087 86.36483420198783,190.8744715485809 86.34759631851921,190.6542594540224 86.36483420198783,190.4340471097821 86.41654785227729,190.25387318788853 86.67511610384099,189.95358294664766 86.70959187066182,189.89352484275878 86.79578128788853,189.29294278174348 86.84749493817799,188.7724368266936 86.8647328215884,188.2118903920782 87.00263588916278,187.51120507373707 87.00263588916278,187.05075334532012 87.1233010730939,186.39010330649035 87.2094904903206,186.20992563320033 87.77834064373747,185.22895536810393 88.19204984628595,184.6683987063734 88.45061809773324,184.4081397062837 88.64023481553886,184.28802005012403 88.88156518363394,184.20794023816416 89.62279417132959,183.82756068007438 90.07097914069891,183.5472805290192 90.24335797515232,183.48722044397437 91.38105828186963,183.78752068329777 92.01885996904457,183.90764064896211 92.84627837402513,184.18792028001917 93.6909346623579,184.38811976877332 93.84607561328448,184.38811976877332 93.98397868074244,184.32805994381488 94.08740598137956,184.22796019421367 94.13911963166902,184.14788035744277 94.15635751513764,183.1068394743197 94.1218817482586,182.28601484344108 94.00121656421106,181.64536881865934 93.7771240795264,180.94465980907262 93.46684217767324,180.38409078106633 93.00141932495171,179.8034997248178 92.69113742304035,179.30298880048213 92.43256917147664,178.6623329348513 92.19123880338157,177.96161316188227 92.13952515309211,177.90155134936504 91.93267055187607,177.84148951832321 91.84648113464937,177.7614070480049 91.77752960094949,177.62126264550898 91.72581595060183,177.32095287099946 91.6223886499647,177.16078746807761 90.89839754567947,176.68029046658194 90.84668389539002,176.5001037845068 90.88115966226906,176.40000000000873 90.98458696290618,176.40000000000873 91.41553404880688,176.52012453519274 92.29466610401869,176.64024899610376 93.27722545986762,176.6202282578015 93.91502714704257,176.68029046658194 94.67349401820684,176.82043554815755 94.94930015318096,176.92053911591938 95.63881549064536,177.2408701860404 96.03528680966701,177.48111814189178 96.22490352747263,177.62126264550898 96.81099156429991,178.22188080129854 97.06955981586361,178.54220972475014 97.77631303673843,179.62331594068382 97.98316763795447,179.86356094905932 98.25897377292858,180.0837852790719 98.74163450917695,180.30400935930084 99.0519164110301,180.36407042873907 99.37943619635189,180.36407042873907 99.79314539878396,180.32402971782722 100.22409248468466,180.20390753561514 100.79294263804331,180.00370373342594 100.96532147243852,180.00370373342594 100.99979723931756,180.06376489571994 101.05151088966522,180.2639686359471 101.12046242330689,180.36407042873907 101.34455490804976,180.44415182578086 101.5514095092658,180.38409078106633 101.68931257678196,180.40411113138543 102.58568251540419,180.9646801015915 103.12005690194201,181.44516650243895 103.6371934050112,182.12585353538452 103.94747530692257,182.44617601951177 104.17156779160723,182.60633706342196 104.86108312895522,182.98671901333728 105.42993328243028,183.1068394743197 105.9643076689681,183.12685954399058 106.49868205544772,183.04677925314172 106.80896395730088,182.94667884316004 107.37781411071774,182.70643764876877 107.75704754632898,182.62635718465026 107.99837791436585,182.62635718465026 108.308659816219,182.76649797527352 109.25674340530531,183.4271603404195 109.82559355860576,183.64738062943798 111.53214401873993,184.12786039309867 111.73899862001417,184.22796019421367 112.100994172215,184.54827921118704 112.30784877343103,184.64837879563856 112.56641702499473,184.6683987063734 113.20421871216968,184.48821943577786 113.49726273055421,184.50823936295637 113.63516579801217,184.54827921118704 113.65240368142258,184.628358882881 113.60069003119133,185.16889580320276 113.39383542991709,186.33004410064314 112.82498527650023,189.03268997858686 112.61813067528419,189.65329224118614 112.4457518409472,190.6142208645324 112.46298972435761,191.79535578440118 112.39403819065774,191.97552827637992 112.20442147285212,192.21575800569553 112.03204263845691,192.31585363858903 111.73899862001417,192.39593010771205 110.82539079798153,192.41594921985234 110.39444371202262,192.47600654387497 109.39464647276327,192.49602564770612 108.25694616592955,192.41594921985234 107.2571489266702,192.51604474954365 105.94706978549948,192.5360638492857 105.29203021491412,192.47600654387497 104.77489371184492,192.49602564770612 104.61975276086014,192.5560829469905 104.55080122716026,192.63615931707318 104.48184969340218,193.03654067245952 104.17156779160723,193.45694020739757 104.11985414125957,193.5770541930833 104.10261625784915,194.3377743777528 104.20604355842806,194.93834084017726 104.18880567501765,195.85920580939273 104.29223297565477,196.7600477507367 104.20604355842806,197.14040198278963 104.34394662594423,197.62084836918802 104.53356334374985,197.96116384057677 104.86108312895522,198.78192223048245 105.46440904930932,199.7628240501508 106.37801687134197,201.52443120937096 106.61934723949526,201.86473984224722 106.9985806751647,202.68548173944873 107.87771273037652,204.26690147121553 108.308659816219,205.2477755957225 108.41208711685613,205.60809545897064 108.36037346656667,206.06850320048397 108.3948492333875,206.42882154148538 108.37761134997709,206.6690333976003 108.42932500038296,207.14945621872903 108.44656288373517,208.43057793367188 108.41208711685613,208.9510312173079 108.44656288373517,209.47148310673947 108.44656288373517,210.57243443260086 108.51551441749325,211.35310522884538 108.54999018431408,212.49407998089737 108.53275230090367,212.6942502991442 108.3948492333875,213.1946751926007 108.36037346656667,213.4749125699309 108.3948492333875,213.91528477489192 108.36037346656667,214.45574020770437 108.3948492333875,214.7559925763053 108.37761134997709,214.99619413718756 108.27418404939817,215.41654615414154 107.91218849719735,216.3773473494948 107.65362024569185,216.89777934664744 107.06753220880637,217.81854023458436 106.6538230064325,218.55914908692648 106.34354110452114,219.2997551165172 106.18840015359456,219.45988577876415 106.03325920266798,219.55996737569512 105.79192883451469,219.60000000000582 105.68850153387757,219.55996737569512 105.65402576705674,219.51993474311894 105.3609817486722,218.79934594631777 104.99898619652959,218.0587380094803 104.79213159531355,217.73847424361156 104.51632546028122,217.35816033597803 104.5852769940393,216.97784568402858 104.5852769940393,216.75766317686066 104.51632546028122,216.59753028769046 104.37842239276506,216.4173806295439 104.10261625784915,216.17718082560168 103.9819510737434,216.0170474579936 103.75785858905874,215.31646242305578 103.61995552160079,215.1162948062265 103.3786251534475,214.8360597962601 103.08558113500476,214.13547050300986 102.84425076690968,213.89526787812065 102.46501733135665,213.65506495625596 101.91340506140841,213.49492951000866 101.65483680990292,213.5149464480346 100.53437438647961,214.29560542132822 100.32751978526358,214.47575704667543 100.18961671774741,214.63589168456383 99.96552423312096,215.016210920483 99.77590751537355,215.61671346161165 99.75866963190492,215.91696403629612 99.8276211656048,216.3773473494948 99.86209693254204,216.4974471648602 100.22409248468466,217.1179616950394 100.39647131902166,217.318127249775 100.9480835890281,217.65840821964957 101.56864739267621,217.91862267687975 101.80997776077129,218.0587380094803 101.99959447857691,218.09877094312105 102.43054156447761,218.07875447736296 103.30967361980584,217.83855672714708 103.65443128847983,217.81854023458436 103.8957616565749,217.85857321762887 104.1543299081386,217.97867211748962 104.39566027629189,218.17883678559156 104.74041794490768,218.55914908692648 104.87832101248205,218.63921473972732 104.99898619652959,218.63921473972732 105.10241349705029,218.57916550317896 105.15412714739796,218.47908340116555 105.17136503086658,218.3589848106203 105.10241349705029,218.1588203280553 104.82660736213438,217.73847424361156 103.79233435599599,216.75766317686066 103.56824187136954,216.4173806295439 103.41310092038475,216.0770974863408 103.3786251534475,215.8769306530885 103.36138727009529,215.27642891618598 103.27519785286859,214.8360597962601 103.13729478535242,214.315622276903 102.99939171789447,214.0353861120675 102.77529923326802,213.7951833634288 102.56844463199377,213.6350480326655 101.96511871169787,213.39484478908707 101.67207469331333,213.11460729628743 101.65483680990292,212.99450538989913 101.67207469331333,212.87440340932517 102.05130812886637,212.1337728883227 102.20644907979295,211.6533623921423 102.20644907979295,211.53325958248752 102.06854601233499,211.29305374049 101.9823565951665,211.23300223361002 101.896167177998,211.21298506048333 100.24133036809508,211.23300223361002 99.36219831282506,211.21298506048333 98.56925567478174,211.29305374049 97.81078880361747,211.19296788536303" stroke="#4dd2ff" stroke-linecap="round" stroke-linejoin="round" stroke-width="0.5"><title>2023-08-18 10.0km</title><desc>9672827939</desc></polyline><polyline fill="none" points="187.2847865743097,183.07760064564354 187.26902590302052,183.4802079384972 187.3320685881772,184.02921641310968 187.31630791688804,184.52332258991373 187.34782925946638,184.99912723933812 187.34782925946638,185.14552841363184 187.26902590302052,185.4200302902027 187.25326523173135,185.54813102084154 187.37935060204472,186.07883306393342 187.3951112733339,186.59123353254108 187.4423932871432,186.9572329626244 187.42663261591224,187.32323163881665 187.47391462977976,187.74412918448797 187.4423932871432,188.32972411128867 187.5054359722999,189.29961146379355 187.5054359722999,190.25119391016779 187.4423932871432,190.80018146513612 187.45815395843238,191.16617222616333 187.48967530106893,191.51386275101686 187.47391462977976,192.37393638968933 187.4423932871432,192.57522961888753 187.3951112733339,192.64842710027006 187.07989784760866,192.92291738680797 186.84348777827108,192.9778153932275 186.26034294057172,192.9778153932275 186.4494709961,192.9412167241535 186.6701203940902,192.95951605965092 186.85924844956025,193.01441405482183 186.98533381987363,193.12420999418828 187.0483765049721,193.21570655851974 187.14294053270714,193.581692344771 187.45815395843238,193.9842758391169 187.58423932874575,194.752841795751 187.52119664364727,195.26521725364728 187.53695731487824,196.36315968906274 187.58423932874575,196.82063370182004 187.52119664364727,197.7355781946535 187.52119664364727,198.76031043450348 187.45815395843238,199.80333539683488 187.34782925946638,200.29739771618915 187.5527179861674,201.66978584154276 187.60000000003492,202.21873812457488 187.60000000003492,202.87747862609103 187.52119664364727,203.38983066155924 187.5527179861674,203.82898837364337 187.53695731487824,204.1949523048097 187.3951112733339,204.92687790664786 187.221743889153,205.47582013010106 187.09565851878142,206.0064626679232 186.62283838022267,207.4154024086747 186.33914629701758,208.53156752196082 186.11849689896917,209.2451776099333 185.7087194455089,210.28814104681078 185.67719810293056,210.65409167965117 185.3777453484945,211.6421546252095 184.84188252466265,213.34380571318616 184.7000364831183,213.87442476391152 184.60547245538328,214.11228796215437 184.49514775630087,214.2952594365197 184.0380882890313,214.6612018202868 183.81743889098288,214.73439020664955 183.10820868302835,214.7709843885532 182.44626048894133,214.86246981026488 181.94191900768783,214.880766888964 180.42889456410194,215.06373757241818 179.05771616200218,215.17351989203598 178.19087924121413,215.17351989203598 177.90718715800904,215.21011398355768 177.67077708867146,215.28330214388552 176.37840204313397,215.37478730201838 174.26647209055955,215.59435148935881 173.1632251003757,215.66753949150734 172.65888361918041,215.7224304734118 171.98117475380423,215.74072746357706 170.7045603794395,215.90540029053227 170.3105435972684,215.88710331732 169.60131338931387,215.9785881646676 168.8605618387228,215.99688512846478 168.19861364469398,215.66753949150734 167.97796424664557,215.46627241304668 166.85895658523077,213.32550847629318 166.60678584460402,212.79488778721134 166.26005107624223,212.19107611080108 165.92907697922783,211.42258555638546 165.8345129514928,211.07493397603685 165.51929952582577,210.7272817158373 165.28288945642998,210.26984349540726 165.15680408617482,210.0868678776169 165.14104341482744,210.10516544789425 165.14104341482744,210.16005814733217 165.36169281287584,210.599199132761 165.40897482674336,210.7638767226017 165.18832542869495,211.29450347433158 165.1095220723073,211.4042881217756 165.03071871580323,211.45918042003177 163.78562568407506,211.88002081042214 163.0448741336004,212.17277875525178 160.75957679678686,212.9595633429417 159.68785114923958,213.3621029482165 157.654724553111,213.98420781803725 157.07157971546985,214.05739648308372 156.0313754105009,214.05739648308372 153.55695001827553,213.9476134741417 152.97380518063437,213.89272194428486 151.31893469544593,213.89272194428486 147.66245895659085,213.74634444843105 146.2912805545493,213.72804725293827 145.0619481941103,213.6731556552695 144.71521342580672,213.63656124738918 144.6048887267243,213.5084807605308 144.52608537033666,213.32550847629318 144.52608537033666,213.12423874618253 144.6048887267243,212.57532014220487 144.68369208322838,212.3923468974972 145.124990879267,212.08129194931826 145.18803356436547,212.00810247060144 145.23531557823298,211.89831819610845 145.36140094860457,211.03833903332998 145.3456402773154,210.85536420663993 145.20379423571285,210.26984349540726 145.21955490700202,209.9404872478044 145.31411893467885,209.73921368496667 145.55052900401643,209.3915588123782 145.80269974464318,208.98901021563506 145.8972637723782,208.73284245219838 145.9603064575349,208.3485901148233 146.03910981392255,207.5983807764569 146.2912805545493,206.18944248603657 146.25975921191275,205.89667468664993 146.08639182779007,205.25624344416428 145.99182780005503,204.26814500060573 145.7238963881391,203.64600612544746 145.61357168923132,203.18854968088272 145.53476833272725,202.62130205451103 145.4559649762814,202.3468267466087 145.32987960596802,202.14554458476778 145.1722728931345,201.98085901008744 144.98314483766444,201.88936695821758 144.69945275445934,201.7978748592286 144.63641006930266,201.7429795772332 144.52608537033666,201.55999518146564 144.41576067131246,201.24892127636122 144.40000000002328,201.02933936848422 144.4472820138908,200.86465275951196 145.03042685159016,199.76673813333036 145.18803356436547,199.38246641181468 145.14075155055616,199.29097302234732 144.79401678219438,199.08968739972624 144.6679314119392,198.96159643023566 144.6048887267243,198.81520663778065 144.5576067128568,198.63221922764205 144.5576067128568,198.46753039748 144.58912805555156,198.35773775921552 144.68369208322838,198.21134746937605 144.80977745348355,198.1198534769792 145.2825975921005,197.991761808531 145.3929222911247,197.93686535090092 146.22823786939261,196.7291389934253 146.9689894199255,195.57630163237627 147.94615103979595,194.2221656571055 148.76570594671648,193.01441405482183 149.41189346951433,191.9164509298862 149.8689529369003,190.92827831726754 150.78307187161408,188.87871760255075 151.80751550535206,186.71933341880504 151.85479751921957,186.64613349510182 151.91784020431805,186.62783350945392 152.13848960236646,186.77423334179912 152.2330536300433,186.79253331237123 152.37489967164584,186.70103344072413 152.57978839840507,186.4265335430391 153.09989055088954,185.4200302902027 153.19445457862457,185.36512994884106 153.54118934692815,185.27362934216217 154.28194089751923,185.31022959043912 156.18898212327622,185.23702908627456 157.92265596502693,185.25532921512786 159.21503101062262,185.18212868832052 159.8454578621313,185.18212868832052 160.08186793146888,185.14552841363184 160.22371397301322,185.03572754423658 160.3025173295173,184.88932627948816 160.3497993433848,184.70632452890277 160.3497993433848,183.66321095188323 160.41284202842508,183.42530699774215 160.44436337106163,183.22400340311287 160.44436337106163,182.83969590738707 160.38132068590494,181.77827088661434 160.39708135725232,181.2292554567539 160.38132068590494,180.91814596010954 160.41284202842508,180.57043470157078 160.38132068590494,180.00311487153522" stroke="#4dd2ff" stroke-linecap="round" stroke-linejoin="round" stroke-width="0.5"><title>2023-07-14 10.0km</title><desc>9449702407</desc></polyline><polyline fill="none" points="52.401196210004855,224.40000000000873 52.589037239260506,224.78591478841554 52.64683447900461,225.03759785342845 52.61793585913256,225.25572286176612 52.61793585913256,225.3563958440791 52.77687826851616,226.279228615007 52.83467550826026,226.44701582977723 53.02251653751591,226.7154750138434 53.051415157387964,226.88326177919225 53.06586446729489,227.4872927031829 53.00806722760899,228.41011340032856 52.97916860762052,228.56111992576916 52.892472748004366,228.87991101953958 52.84912481816718,229.1315877581219 52.87802343809744,229.53426973090973 52.84912481816718,230.27251742874796 52.83467550826026,230.35640900082944 52.80577688838821,230.35640900082944 53.26815480651567,230.40674392336223 53.5571410052944,230.4738571292255 53.91837375384057,230.60808345791884 54.308505122258794,230.64164002287725 54.40965029184008,230.69197485722543 54.39520098187495,230.74230967606127 54.26515719242161,230.80942274368135 54.22180926258443,230.8765357835655 54.10621478309622,231.26243522646837 53.860576514096465,231.58122103320784 53.81722858425928,231.71544644937967 53.860576514096465,232.11812203425507 53.860576514096465,233.0073604243371 53.94727237371262,233.41003281541634 53.90392444393365,234.14826294704108 53.91837375384057,234.78582264095894 53.88947513391031,235.1213793722418 53.90392444393365,235.44015762675554 53.96172168373596,235.89315723103937 53.96172168373596,236.1783785578009 53.90392444393365,236.6649314332608 53.90392444393365,236.84948559202894 53.94727237371262,237.10115001705708 53.96172168373596,237.55414500231564 54.07731616322417,237.73869815366925 54.164012022840325,238.007138727844 54.17846133274725,238.15813635644736 54.13511340296827,238.66146077426674 53.91837375384057,239.06411918875528 53.88947513391031,239.19833843912056 53.90392444393365,239.466776608082 53.88947513391031,241.21161392415524 53.96172168373596,241.7484831847687 53.91837375384057,242.06724847119767 53.90392444393365,243.979827091709 53.94727237371262,244.4831335232593 53.96172168373596,245.2884205795708 54.12066409306135,246.02659688451968 54.10621478309622,246.21114043820126 53.96172168373596,246.42923709578463 53.93282306374749,246.58022691844963 53.96172168373596,249.59999398773653 53.94727237371262,250.55624189195805 53.990620303549804,251.24406586168334 53.96172168373596,252.418392758118 54.005069613514934,252.7035851556575 53.96172168373596,253.13976079819258 53.976170993584674,253.24041654985922 54.04841754329391,253.3578481815639 54.07731616322417,253.4752797287074 54.033968233386986,253.9953327056428 54.04841754329391,254.69991796226532 54.005069613514934,255.16963977414707 53.81722858425928,256.5620214749797 53.57159031525953,257.5014530095068 53.3404013562249,258.3066757285851 53.10921239713207,259.04479305916175 53.00806722760899,259.48095172845933 52.84912481816718,259.88355869484076 52.80577688838821,260.11841229918355 52.86357412813231,260.286164666526 52.79132757842308,260.57134329465043 52.589037239260506,260.9907227236836 52.51679068960948,261.24234986299416 52.4734427597723,261.6281773887458 52.14110863109818,262.5843547112454 51.9966155316215,263.5908510952577 51.82322381238919,264.06054728060553 51.79432519245893,264.2115207669849 51.76542657264508,264.49669252635795 51.76542657264508,265.0334850726067 51.70762933290098,265.1676829329954 51.64983209309867,265.2347818216949 51.41864313400583,265.28510597012064 51.27415003464557,265.4193036232464 51.08630900538992,265.9896424163453 51.15855555515736,266.2077126039512 51.144106245134026,266.25803645189444 50.99961314571556,266.49288087042805 50.99961314571556,266.4593316885439 51.08630900538992,266.29158567530976 51.100758315296844,266.2244872216543 50.985163835808635,266.14061411573493 50.493887297809124,266.17416336327733 50.13265454926295,266.1573887403356 49.90146559017012,266.2412618376402 49.56913146155421,266.1573887403356 49.43908767204266,266.14061411573493 47.921910128265154,266.29158567530976 47.661822549358476,266.29158567530976 46.650370853429195,266.35868410130206 45.47997674823273,266.49288087042805 44.714163321303204,266.6103029528458 43.42817473656032,266.6438521037053 42.24333132139873,266.7780486380507 40.68280584778404,266.9122450619325 40.22042792959837,266.9122450619325 39.23787485365756,267.0632159067027 38.65990245598368,267.0632159067027 37.80739316949621,267.1638630588277 37.34501525136875,267.18063757817436 36.275766315695364,267.3148336705781 36.08792528649792,267.381931675307 35.85673632740509,267.53290208506223 35.668895298207644,267.5832255238347 35.538851508754306,267.6000000000058 35.43770633917302,267.54967656638473 35.30766254966147,267.44902965244546 35.03312566073146,267.0296668421797 34.84528463159222,266.627077529105 34.7296901519876,266.29158567530976 34.32510947360424,265.5870505342609 34.19506568420911,265.13413347824826 33.99277534504654,264.73153948290565 33.63154259644216,264.0102227540483 33.140266058500856,263.15470342537446 33.02467157895444,263.020503907479 32.75013469008263,262.93662915271125 32.66343883040827,262.93662915271125 31.998770573176444,263.1714783573261 31.493044725153595,263.28890283271903 30.091461660864297,263.7753747581155 29.571286503050942,263.9431233611831 28.689878596575,264.26184523134725 25.800016608380247,265.2347818216949 25.583276959252544,265.268331255691 24.297288374509662,265.268331255691 24.008302175730933,265.2180071021139 23.329184608417563,265.1844576577423 21.364078456477728,265.13413347824826 20.988396397966426,265.2012323807867 20.7572074389318,265.2180071021139 20.42487331031589,265.1676829329954 19.74575574300252,265.1509082064731 19.268928515026346,265.0670345480903 16.62470479577314,264.9831608465465 15.902239298739005,264.88251234769996 15.743296889355406,264.6644403869868 15.62770240980899,264.5973412634339 13.922683836775832,264.5134673201683 13.821538667136338,264.47991773075773 13.677045567776076,264.3624941135058 13.604799018066842,264.2282955901319 13.59034970815992,264.16119628706656 13.619248327973764,263.8256993571558 13.691494877682999,263.5740762064379 13.76374142745044,263.42310212964367 14.02382900629891,263.3056777508755 14.298365895228926,263.07082873965555 14.37061244493816,262.85275435476797 14.457308304612525,262.3998296998907 14.457308304612525,262.1482043477008 14.327264515159186,261.4772015091585 14.327264515159186,261.259124991775 14.399511064810213,261.04104818259657 14.601801403972786,260.77264555527654 14.68849726364715,260.6048936887091 14.775193123263307,260.37004078543396 14.717395883519202,260.13518754368124 14.558453474135604,259.9171092304168 14.428409684682265,259.79968232549436 14.413960374775343,259.7158059131034 14.558453474135604,259.1286698169861 14.630700023903046,258.4912053746666 14.731845193484332,257.92084033886204 14.890787602809723,257.4511264574103 14.934135532646906,256.94786008205847 14.890787602809723,256.6291239070997 14.659598643775098,255.70646304398542 14.775193123263307,255.27029427193338 14.67404795368202,254.39795322537248 14.572902784100734,254.1295396561036 14.428409684682265,253.97855682908266 14.255017965391744,253.8443497542903 13.850437287066597,253.69336666302115 13.76374142745044,253.5759352731111 13.662596257810947,253.3578481815639 13.619248327973764,253.19008868178935 13.619248327973764,252.93844910821645 13.648146947904024,252.8210171742394 14.240568655484822,251.68024541120394 14.515105544298422,251.24406586168334 14.67404795368202,251.05952800848172 15.121976561844349,250.28782199417765 15.772195509227458,249.41545427247183 16.855893754807767,247.82169348862953 17.491663392225746,246.94931256257405 17.997389240190387,246.17758708039764 18.589810947712976,245.2045366969105 19.890248842479195,242.3524589882436 20.07808987167664,242.00014004172408 20.193684351223055,241.66459747943736 20.381525380478706,241.3290542261384 20.74275812896667,240.40630671585677 21.002845707931556,239.98687430155405 21.07509225764079,239.75199167784012 21.21958535705926,239.41644448506122 21.392977076291572,239.13122882781317 21.5663687956403,239.01378694137384 21.812007064640056,238.98023210115207" stroke="#4dd2ff" stroke-linecap="round" stroke-linejoin="round" stroke-width="0.5"><title>2023-07-07 10.0km</title><desc>9408701204</desc></polyline><polyline fill="none" points="116.19493679801235,231.13722127240908 115.73796124069486,231.16937914928712 115.36407214828068,231.13722127240908 114.69938042847207,231.16937914928712 114.33933908026665,231.13722127240908 113.88236352294916,231.12114233151078 113.52232217468554,231.16937914928712 112.85763045493513,231.1533002116921 110.11577711068094,231.2015370195877 108.57867750863079,231.16937914928712 107.41546699905302,231.21761595220596 107.1800553482608,231.28193166623532 106.95849144161912,231.4266419258347 106.87540497665759,231.49095755378949 106.76462302333675,231.65174650761764 106.55690686090384,232.0537181677355 106.4184294193401,232.2627430220018 106.36303844267968,232.32705830544 106.2661042335676,232.34313712218136 105.97530160611495,232.31097948706883 105.79528093204135,232.3592159372638 105.75373769953148,232.3913735624228 104.88132981728995,234.2243472487171 104.05046516750008,236.15376998663123 103.55194637767272,237.1184724146442 103.09497082029702,237.89023006559 102.73492947209161,238.40473304699117 102.13947647309396,239.24079677593545 101.9179125665105,239.56235855660634 100.96241821924923,240.83252111631737 100.29772649949882,241.87758382919128 100.03461936040549,242.19914017990232 99.67457801220007,242.82617315925017 98.85756110656075,244.43393852458394 98.62214945576852,244.83587727947452 98.26210810756311,245.8326809274149 97.84667578269728,247.2796426431305 97.63895962020615,247.8423463563813 97.2927660162095,248.91951638052706 96.89118143543601,250.04490996226377 96.24033745989436,251.54006317688618 95.7418186700088,252.47251707452233 95.29869085684186,253.11558548451285 95.18790890352102,253.34065880246635 94.86941078776726,253.7908044653741 94.3708919978817,254.59463277937903 93.98315516137518,255.1090807293076 93.2769202090567,255.96113141908427 92.25218714104267,257.26331311592367 91.15821535221767,258.533331721017 87.97323419479653,262.32724985311506 87.00389210344292,263.54900048438867 86.57461203442654,264.1116455878655 85.35601054807194,265.5262871810264 84.98212145571597,265.87994557773345 84.84364401409402,266.02462378198106 84.63592785166111,266.3139797885233 84.46975492167985,266.57118467774126 84.23434327094583,266.8605396718922 84.09586582932388,267.11774366130703 83.80506320192944,267.3910224359861 83.80506320192944,267.5517744331446 83.88814966689097,267.58392481271585 84.08201808517333,267.6000000000058 84.20664778264472,267.6000000000058 84.34512522420846,267.5356992408342 84.89903499069624,266.8926901937666 85.20368536229944,266.603335259133 85.66066091967514,265.97639772879484 87.54395412578015,263.7419076052902 89.98115709837293,260.78397223938373 91.04743339889683,259.5461239672586 91.78136383951642,258.64586451710784 94.17702357959934,255.80036749377905 94.86941078776726,254.86793346378545 95.17406115937047,254.40171436133096 95.35408183344407,254.22487226876547 95.72797092585824,253.63003830611706 96.10186001821421,253.1316621608712 96.30957618064713,252.63328442526108 96.79424722638214,251.74906194832874 97.38970022532158,250.4146803690819 97.79128480603686,249.2571353065432 98.02669645682909,248.45327952082152 98.19286938675214,248.01919567608275 98.40058554918505,247.32787446941074 98.70523592073005,246.50793139651068 99.0237340364838,245.55936443127575 99.25914568727603,244.98057497796253 99.86844643042423,243.6943685124279 100.04846710449783,243.35673755977768 100.21464003447909,243.0994944391714 100.31157424359117,243.05126130688586 100.63007235934492,242.95479499761132 100.8516362659866,242.681473464414 100.89317949849647,242.55285140087653 100.8793317542877,242.21521798007598 100.93472273094812,242.03836208733264 101.1562866375316,241.74896110354166 101.26706859085243,241.55602681638265 101.53017572994577,241.2987807292957 102.08408549649175,240.52703992536408 102.56875654211035,239.73921725372202 103.27499149442883,238.74237470717344 103.66272833099356,238.1153253285447 104.29972456244286,236.9255324058904 105.08904597972287,235.1569045491342 105.76758544368204,233.70983049173083 106.2937997218105,232.52000399690587 106.54305911681149,232.03763932122092 106.7230797908851,231.58743094594683 106.83386174420593,231.41056301475328 107.13851211580914,231.10506338893902 107.33238053403329,230.8478000824689 107.47085797565524,230.79956316527387 108.38480909034843,230.79956316527387 109.70034478587331,230.71916827019595 110.36503650562372,230.75132623322133 111.54209475941025,230.75132623322133 112.165243246709,230.71916827019595 112.82993496657582,230.71916827019595 113.18997631472303,230.68701030060765 113.32845375640318,230.57445735479996 113.36999698891304,230.4940623438015 113.42538796557346,230.317193173978 113.46693119802512,230.01169140856655 113.41154022142291,229.65795177550172 113.36999698891304,229.04694506677333 113.39769247721415,228.93439093852066 113.48077894217568,228.80575754978054 113.5361699188361,228.59672806695744 113.5361699188361,228.16258901607944 113.50847443047678,227.8731623114145 113.59156089549651,226.87624399918423 113.59156089549651,226.57073550007772 113.5361699188361,225.67028591927374 113.50847443047678,224.40000000000873" stroke="#4dd2ff" stroke-linecap="round" stroke-linejoin="round" stroke-width="0.5"><title>2023-05-25 10.0km</title><desc>9138079938</desc></polyline></svg>