<?xml version="1.0" encoding="utf-8" ?>
<svg baseProfile="full" height="300mm" version="1.1" viewBox="0,0,200,300" width="200mm" xmlns="http://www.w3.org/2000/svg" xmlns:ev="http://www.w3.org/2001/xml-events" xmlns:xlink="http://www.w3.org/1999/xlink"><defs /><rect fill="#222222" height="300" width="200" x="0" y="0" /><text fill="#FFFFFF" style="font-size:12px; font-family:Arial; font-weight:bold;" x="10" y="20">Over 4 km Runs</text><text fill="#FFFFFF" style="font-size:4px; font-family:Arial" x="10" y="280">ATHLETE</text><text fill="#FFFFFF" style="font-size:9px; font-family:Arial" x="10" y="290">lizhimiao</text><text fill="#FFFFFF" style="font-size:4px; font-family:Arial" x="120" y="280">STATISTICS</text><text fill="#FFFFFF" style="font-size:3px; font-family:Arial" x="120" y="285">Number: 16</text><text fill="#FFFFFF" style="font-size:3px; font-family:Arial" x="120" y="290">Weekly: 2.0</text><text fill="#FFFFFF" style="font-size:3px; font-family:Arial" x="141" y="285">Total: 92.6 km</text><text fill="#FFFFFF" style="font-size:3px; font-family:Arial" x="141" y="290">Avg: 5.8 km</text><text fill="#FFFFFF" style="font-size:3px; font-family:Arial" x="167" y="285">Min: 4.1 km</text><text fill="#FFFFFF" style="font-size:3px; font-family:Arial" x="167" y="290">Max: 10.0 km</text><polyline fill="none" points="27.315999999642372,68.20847761188634 31.28499999968335,70.25543920090422 32.580999999307096,69.4544546767138 32.90499999979511,66.78450212639291 29.259999999776483,64.73753419448622 27.153999999631196,68.29747601959389 31.36599999992177,70.70043035550043 33.471999999601394,66.60650506336242 35.90199999976903,65.89451652870048 48.37599999969825,70.34443744586315 52.587999999988824,52.366648378781974 23.91399999987334,34.299569644383155 21.078999999910593,36.43559414462652 12.25,55.748630733578466 18.567999999504536,60.02059384889435 28.287999999709427,62.423565941047855 47.72800000011921,70.34443744586315 52.75,54.14664036477916 45.62199999997392,47.20465562224854 24.156999999657273,34.38857074663974 20.34999999962747,37.770607388578355 12.492999999783933,56.104628282249905 34.36299999989569,66.2505108526675 46.91799999959767,70.52243391470984 48.294999999925494,69.81044786912389 52.1019999999553,56.28262701397762 51.777999999932945,52.09964933688752 46.4320000000298,47.38265576842241 38.5749999997206,43.733647115994245 27.8019999996759,36.257592258625664 24.481000000145286,34.47757184191141 22.131999999750406,34.74457508476917 12.492999999783933,56.19362765166443 28.12599999969825,63.75854820921086 26.910999999847263,68.47547281393781 31.20399999944493,70.43343568395358 33.30999999959022,66.78450212639291 29.178999999538064,65.09352888609283 26.99200000008568,68.11947919696104 31.68999999947846,70.61143213871401 32.985999999567866,66.60650506336242 28.93599999975413,64.9155315546086 27.234999999869615,68.03048077516723 30.798999999649823,70.25543920090422 32.985999999567866,67.14049616758712 28.93599999975413,65.09352888609283 26.910999999847263,67.9414823462721 31.446999999694526,70.43343568395358 34.200999999884516,65.62752071151044 47.889999999664724,70.34443744586315 50.88699999963865,62.601563668577 52.66899999976158,53.167645122506656 28.044999999459833,36.43559414462652 24.399999999906868,35.10057930951007 21.402999999467283,36.52459507714957 16.46199999935925,46.67065501399338" stroke="#ff9b00" stroke-linecap="round" stroke-linejoin="round" stroke-width="0.5"><title>2022-01-18 6.4km</title></polyline><polyline fill="none" points="77.01593625545502,39.20330492960056 69.43227091664448,34.77098916238174 67.0119521911256,35.21422153164167 57.57270916318521,55.07085100142285 60.79980079643428,57.90748350211652 71.28784860577434,63.66937106504338 73.78884462127462,63.226150001282804 93.23207171354443,70.58359685976757 97.75,54.007111953920685 97.26593625545502,52.14556618052302 92.1025896416977,47.44736541516613 72.33665338670835,35.923392955970485 67.41533864522353,34.68234266736545 57.89541832683608,53.91846698761219 57.65338645409793,55.602720144728664 62.73605577647686,59.59173063701019 70.56175298849121,63.93530361860758 75.4830677290447,64.28988025838044 92.42529880534858,70.31766589073231 97.58864541864023,53.3865970413317 87.90737051796168,45.14258044702001 80.00099601596594,41.41945620911429 70.3197211152874,34.416403140174225 67.7380478088744,34.59369616553886 57.25,55.602720144728664 66.04382470110431,61.98513008613372 72.90139442216605,63.7580152565497 72.01394422305748,67.74699658923782 75.80577689269558,70.05173485836713 78.38745019910857,66.86055752559332 74.19223107583821,64.73310089932056 72.65936254989356,66.86055752559332 72.820717131719,68.27885968930786 75.88645418314263,69.78580376249738 77.41932270955294,68.8993663188885 77.98406374501064,66.32869374932488 73.38545816764235,64.91038910660427 71.93326693261042,68.01292817090871 72.65936254989356,68.63343494851142 75.96713147405535,70.14037854282651 78.14541832683608,67.03784539469052 74.27290836675093,64.91038910660427 74.11155378492549,63.40343844797462 93.31274900445715,69.96309116692282 97.50796812772751,53.3865970413317 93.070717131719,48.06788363144733 72.33665338670835,36.277978499245364" stroke="#ffd600" stroke-linecap="round" stroke-linejoin="round" stroke-width="0.5"><title>2022-01-15 5.1km</title></polyline><polyline fill="none" points="122.18110236199573,39.360347236623056 112.93307086639106,34.98038130765781 102.4094488187693,55.65366771206027 105.91732283495367,58.28160007490078 116.04232283495367,62.836667997646146 137.80708661442623,69.58163785445504 142.3513779528439,54.07690528727835 136.6909448816441,47.33184056804748 130.79133858252317,45.05427692696685 115.3248031497933,34.98038130765781 112.45472440961748,34.892781811766326 102.56889763846993,56.0040590557619 115.80314960610121,62.3986815152457 137.40846456680447,69.84442805260187 139.32185039389879,66.86613547202433 142.27165354322642,53.814111330604646 136.292322834488,47.59463607001817 119.07185039343312,37.3455650707474 112.2155511812307,35.0679807967972 102.4094488187693,55.215678375796415 118.11515748035163,63.3622515470488 116.75984251964837,67.47931401396636 118.27460629912093,68.53047643526224 121.5433070869185,69.84442805260187 123.37696850392967,66.51574758050265 119.47047244105488,64.50101504422491 117.47736220480874,68.1800890728482 121.62303149653599,69.66923459392274 122.73917322838679,68.09249221486971 123.29724409431219,66.42815059027635 119.47047244105488,64.76380645326572 117.63681102357805,66.25295658881078 117.55708661442623,68.44287960510701 121.62303149653599,69.93202477134764 123.29724409431219,66.77853850950487 118.9921259842813,64.41341789375292 117.15846456680447,67.39171710016672 120.58661417337134,69.66923459392274 121.94192913360894,69.31884759356035 123.0580708659254,66.07776255975477 118.832677165512,64.67620932374848 117.39763779519126,67.04132937593386 117.07874015765265,67.91729847789975 120.90551181137562,70.10721818823367 123.93503937032074,65.55218030500691 138.12598425196484,69.93202477134764 142.75,53.814111330604646 142.27165354322642,52.149748150317464 133.50196850392967,45.93026349967113 113.33169291354716,34.892781811766326 107.59153543272987,44.09069089288823 102.25,55.47847199841635 102.80807086639106,56.44204807851929 136.3720472441055,69.66923459392274 139.0029527558945,67.74210471333936 141.23523622006178,60.38394145475468 142.03248031483963,52.412542503734585 133.10334645677358,45.404671639436856 114.28838582709432,34.892781811766326 112.61417322838679,35.155580279184505 102.4094488187693,55.74126555840485 117.79625984281301,63.011862541839946 116.83956692926586,67.91729847789975 121.5433070869185,69.14365405152785 123.21751968516037,66.16535957780434 119.23129921266809,64.58861218742095 117.07874015765265,67.39171710016672 121.5433070869185,69.40644435415743 123.37696850392967,66.25295658881078 120.58661417337134,64.67620932374848 121.86220472445711,63.71264044055715 138.12598425196484,69.84442805260187 142.11220472492278,53.02572908473667 133.50196850392967,45.755066240846645 115.40452755894512,35.155580279184505 112.85334645677358,35.0679807967972 108.94685039389879,40.937130710692145 102.72834645677358,54.77768886566628 103.12696850392967,56.0916568741668 110.78051181090996,58.98238098033471 115.08562992094085,62.048292203980964 137.64763779519126,70.10721818823367 142.27165354322642,53.901709323283285 135.81397637771443,47.156643532041926 120.42716535460204,38.3967562255566" stroke="red" stroke-linecap="round" stroke-linejoin="round" stroke-width="0.5"><title>2022-01-14 10.0km</title></polyline><polyline fill="none" points="167.86377245560288,38.95470744319027 157.75898203626275,34.69119158538524 147.97754491027445,53.69924108189298 147.7350299404934,56.18625168275321 175.38173652719706,67.46655173011823 184.0314371259883,69.68706982658478 187.50748503021896,52.189267660316546 158.32485029939562,34.69119158538524 156.78892215620726,35.49060204741545 147.25,55.475677790062036 161.2350299404934,62.847859960922506 183.22305389214307,70.48645526159089 183.95059880241752,69.77589045884088 187.75,54.58745978894876 187.34580838307738,52.01162359415321 158.64820359274745,34.51354473840911 154.7679640725255,39.221176644205116 147.3308383235708,55.20921246375656 162.93263473082334,63.02550230495399 163.7410179642029,64.44664004066726 162.2050898205489,67.82183492201148 166.3278443114832,70.13117291667731 168.02544910181314,66.22305966960266 163.9835329344496,64.89074521244038 162.28592814411968,67.91065570223145 163.7410179642029,68.79886311729206 163.01347305439413,69.24296656023944 166.24700598837808,70.13117291667731 168.34880239563063,67.11126842553494 164.63023952115327,64.89074521244038 162.6092814374715,68.26593875314575 166.65119760483503,70.30881410319125 168.42964071873575,67.28891009191284 164.06437125755474,64.53546108904993 162.28592814411968,67.73301413463196 166.08532934170216,69.95353170181625 169.39970059879124,65.77895502699539 183.95059880241752,69.95353170181625 187.10329341329634,57.785041290160734 187.18413173686713,52.54455570766004 179.50449101813138,47.5705127674737 178.13023952115327,45.08348299743375 169.39970059879124,40.46469874290051" stroke="#ffd700" stroke-linecap="round" stroke-linejoin="round" stroke-width="0.5"><title>2022-01-09 5.1km</title></polyline><polyline fill="none" points="32.66265060193837,104.63265399914235 22.17168674664572,99.53923038125504 12.331325300503522,121.16378222953063 26.237951807212085,128.49101539328694 32.418674698565155,129.5632894129958 48.52108433749527,135.4607782457024 52.75,117.85757602448575 24.77409638557583,99.71794738993049 21.60240963846445,100.07538132218178 12.25,120.53828450385481 21.927710843272507,127.0613151100697 28.75903614424169,128.13359049288556 47.138554216362536,135.72884518501814 48.60240963846445,135.10335556045175 51.448795180767775,125.63161300937645 52.18072289181873,116.96400511148386 23.635542168281972,99.27115481486544 21.927710843272507,99.27115481486544 20.951807228382677,100.79024884582032 12.25,120.35957080393564 21.683734939433634,126.5251770352479 27.701807228848338,128.66972780087963 27.37650602404028,133.49495207110886 31.52409638511017,135.6394895457197 32.825301204808056,131.43976648699027 28.75903614424169,129.47393328358885 26.807228915393353,132.69074946350884 31.198795180302113,135.6394895457197 32.98795180674642,131.7078343849862 29.084337349049747,129.74200164992362 27.13253012020141,132.33332589815836 26.888554216828197,133.13752876082435 31.52409638511017,135.37142258498352 32.98795180674642,131.2610545195639 28.92168674664572,129.65264553495217 26.888554216828197,132.69074946350884 30.792168674524873,135.10335556045175 33.31325301202014,131.61847842589486 28.51506024086848,129.65264553495217 26.888554216828197,132.78010533738416 31.605421686545014,135.37142258498352 33.15060240915045,132.06525814929046 30.1415662644431,130.18878211884294 30.792168674524873,129.65264553495217 47.21987951779738,135.37142258498352 48.846385542303324,135.01399987144396 52.262048192787915,117.50014774454758 46.487951807212085,111.95999487617519 44.37349397549406,112.13870991091244 31.036144578363746,103.2029233830981" stroke="#ffc500" stroke-linecap="round" stroke-linejoin="round" stroke-width="0.5"><title>2022-01-08 5.5km</title></polyline><polyline fill="none" points="93.31670467485674,131.52979875158053 97.75,123.41141628392506 97.01111744577065,121.68624671403086 92.34692132263444,120.06255344959209 82.46436716080643,114.93774450494675 81.58694412768818,115.44515316584148 80.80188141390681,120.36699625110487 77.75399087788537,119.45366741117323 79.23175598634407,118.94626193557633 80.0629988599103,114.02440789988032 77.2460091218818,111.38587259122869 63.80758266802877,103.57168483524583 62.42217787913978,103.77465196076082 57.342360319104046,115.44515316584148 63.391961231362075,119.96107248356566 66.43985176738352,120.16403439961141 77.2460091218818,123.91881821170682 76.968928164104,124.42621973634232 73.13597491453402,122.59957236098126 71.7505701254122,126.10064190725097 72.16619156231172,126.91248137957882 74.52137970365584,128.13023865281139 76.87656784499995,126.15138190437574 78.5852337514516,121.787727405841 80.29389965790324,114.27811264351476 77.33836944121867,110.97994311444927 73.45923603186384,109.50844659825088 62.8839794753585,103.52094304381171 57.25,115.24218974984251 61.406214367132634,119.09848362061894 65.14680729759857,120.51921759743709 71.70438996586017,121.48328528174898 75.90678449254483,123.6143771034549 77.8925313570071,123.8680780371069 80.43244013679214,114.83626272459514 80.0629988599103,113.92292597424239 77.75399087788537,112.60365947306855 77.84635119722225,111.89328407420544 75.67588369431905,111.38587259122869 63.6690421893727,103.52094304381171 62.791619156254455,103.72391018539201 62.05273660202511,105.09393670322606 57.43472063867375,115.74959816859337 62.329817559802905,119.6058889752021 77.75399087788537,123.71585748903453 79.60119726322591,117.47478377650259 79.27793614612892,115.08996714552632 75.35262257698923,110.21882465010276 66.16277080937289,104.73874492530013 63.43814139114693,103.47020124836126 62.653078677365556,103.9776190216071 57.480900798225775,115.8510798040079 64.73118586069904,120.21477486856747 69.580102622509,120.97588141885353 77.66163055878133,123.8680780371069 78.35433295322582,120.97588141885353 80.47862029634416,120.77291976090055 80.80188141390681,120.16403439961141 81.58694412768818,116.05404302634997 84.45011402503587,116.05404302634997" stroke="#ff7b00" stroke-linecap="round" stroke-linejoin="round" stroke-width="0.5"><title>2022-01-07 7.2km</title></polyline><polyline fill="none" points="114.40705824049655,97.25 116.23726415075362,97.56059768478735 116.35165202023927,110.63655176959583 116.92359136708546,116.97249708353775 117.0379792364547,133.215684945666 116.7234125956893,134.76853807782754 117.06657620391343,137.15992067419575 119.21134875481948,137.75 120.41242138366215,136.81829542247579 121.09874859987758,134.55113898494164 120.52680925291497,133.86788396030897 120.41242138366215,132.2839703108475 120.41242138366215,124.61277459291159 121.58489704481326,123.74315652018413 128.44816920836456,123.83632997126551 127.96202076342888,127.37690579568152 128.8199297838146,130.4826494900626 130.5357478247024,133.12251357515925 130.59294175950345,134.1163404615072 129.9638084777398,135.91764569989755 128.0478116654558,137.37731841701316 121.52770311012864,137.3462616034376 121.29892737139016,136.29032857791753 120.66979408962652,136.2592716840445 120.44101835088804,136.84935227505048 120.98436073062476,137.03569334201165 121.4133152407594,136.6008973903663 120.75558499176987,136.10398718022043 120.69839105696883,136.88040912523866 121.32752433873247,136.41455613041762 120.75558499176987,136.22821478793048 120.78418195911217,137.03569334201165 121.4133152407594,136.7872385676019 120.8699728611391,136.22821478793048 119.66890023252927,137.4083752281731 117.55272464884911,137.50154564806144 116.86639743240084,137.00463650329039 116.89499439974315,115.51275345179602 116.40884595492389,111.63043186589493 116.26586111809593,97.59165744067286 116.20866718329489,113.30759919449338 116.63762169366237,114.54994104526122 116.35165202023927,102.62330755163566" stroke="#ffaa00" stroke-linecap="round" stroke-linejoin="round" stroke-width="0.5"><title>2022-01-01 6.1km</title></polyline><polyline fill="none" points="183.01261467882432,131.12544931162847 183.94151376141235,131.38060197257437 185.52064220188186,129.23731647140812 187.4713302750606,125.05278607120272 187.75,122.55226098955609 173.0269495411776,114.64237264689291 172.05160550423898,115.30578637961298 170.9833715595305,120.20482042105868 169.07912844023667,120.25585182901705 170.10091743106022,113.7237986549153 154.5883027522359,103.97662702325033 152.5447247705888,103.97662702325033 147.4357798162382,114.38721333647845 147.38933486235328,115.86713592580054 154.77408256870694,120.20482042105868 156.3996559632942,120.35791463259375 155.88876146776602,123.21566655189963 158.35034403647296,124.23628915572772 159.23279816494323,122.29710482159862 156.77121559600346,120.61307157104602 156.21387614659034,122.80741705611581 158.44323394470848,124.03216476476518 159.1399082567077,122.29710482159862 156.631880733883,120.7661656854325 156.21387614659034,123.11360420222627 158.21100917411968,123.9811336567509 159.23279816494323,122.1440110722906 157.04988532094285,120.86822840792593 155.93520642188378,122.55226098955609 158.0716743117664,123.9301025448367 158.62901376141235,123.9301025448367 159.37213302752934,121.93988601618912 156.58543577976525,120.71513431792846 155.88876146776602,122.70535464165732 158.25745412847027,124.03216476476518 159.00057339435443,121.73576089536073 156.81766055035405,120.66410294652451 156.21387614659034,121.48060440312838 156.02809633035213,122.6032922110171 158.21100917411968,123.9301025448367 159.23279816494323,121.8378234639531 156.58543577976525,121.22544780944008 155.98165137600154,122.70535464165732 157.74655963294208,123.87907142884796 158.6754587155301,123.67494692432228 160.11525229364634,121.27647913619876 167.73222477035597,124.03216476476518 170.51892201812007,115.20372277294518 169.9615825684741,113.82586249662563 158.53612385317683,106.06896429386688 156.53899082541466,105.55863875889918 153.7522935778834,103.61939802748384 152.68405963270925,103.77249619289069 147.25,115.25475457834546 155.5172018345911,119.64347466599429 167.3606651374139,124.03216476476518 168.1966743117664,123.62391578801908 170.33314220164903,115.20372277294518 170.10091743106022,113.67276672786102 153.79873853200115,103.77249619289069 152.8698394491803,103.72146347508533 147.38933486235328,114.84650002222043 147.57511467882432,115.7650724084815 149.154243119061,116.88777020742418 155.19208715576679,120.10275759303477 158.9076834861189,120.66410294652451 167.87155963294208,124.38938240642892 169.0326834861189,120.20482042105868 169.35779816517606,119.64347466599429 169.86869266047142,122.1440110722906 171.9587155962363,115.7650724084815 172.7947247705888,115.20372277294518 186.91399082541466,121.73576089536073" stroke="#ff8000" stroke-linecap="round" stroke-linejoin="round" stroke-width="0.5"><title>2021-12-24 7.1km</title></polyline><polyline fill="none" points="50.718072975752875,194.4240950027015 52.75,190.26341109583154 51.918757126433775,188.53824152593734 48.63996579241939,187.37121240934357 43.606328391935676,183.61640860838816 37.510547320358455,181.99270282965153 35.94042189279571,184.63122262363322 35.848061573458835,188.18305897706887 33.90849486878142,187.21899106301134 35.57098061568104,189.14712543564383 35.80188141367398,187.16825060622068 34.647377422777936,186.05195953563089 35.47862029634416,182.14492542180233 34.647377422777936,179.81084168801317 33.261972633656114,178.23786740313517 28.690136830089614,176.7663718223339 20.054446978261694,170.93109733972233 17.606898517580703,170.5759049972985 12.25,182.70307461591437 17.329817559570074,185.95047843252541 23.979760547168553,188.48750117392046 21.624572405824438,187.52343371947063 20.793329532491043,188.84268355340464 20.88568985182792,189.80674901616294 22.87143671605736,190.8215531941969 24.21066134539433,188.69046255777357 21.901653363602236,187.62491457280703 21.07041049026884,188.23379935324192 20.931870011612773,189.75600876496173 23.102337514050305,190.9230335233151 24.118301026057452,188.63972221774748 21.439851767150685,187.52343371947063 20.654789053602144,189.4008268933976 22.917616875376552,190.8215531941969 24.21066134539433,188.79194322548574 21.53221208648756,187.929357035493 21.116590649820864,189.65452825033572 22.825256556272507,190.6693326702807 24.07212086673826,188.79194322548574 21.80929304449819,187.52343371947063 20.839509692043066,188.84268355340464 20.839509692043066,189.75600876496173 23.00997719494626,190.87229336088058 24.25684150517918,188.8934238771326 21.624572405824438,187.62491457280703 20.60860889381729,189.4008268933976 22.178734321380034,190.567852300941 23.102337514050305,190.9230335233151 24.164481185842305,189.14712543564383 21.763112884713337,187.52343371947063 20.700969213154167,189.24860603088746 22.640535917831585,190.6185924875317 23.47177879116498,190.51711211021757 24.303021664731205,188.69046255777357 21.80929304449819,187.929357035493 20.978050170931965,189.9589697457268 22.825256556272507,190.7708130236133 24.07212086673826,189.19786573533202 21.48603192693554,187.87861663510557 20.700969213154167,189.19786573533202 22.686716077383608,190.6693326702807 23.19469783338718,190.87229336088058 24.164481185842305,189.0456448243349 21.48603192693554,187.5741741480888 21.02423033071682,189.65452825033572 22.779076396720484,190.6185924875317 24.118301026057452,188.99490451271413 21.624572405824438,187.42195285012713 20.700969213154167,189.65452825033572 22.54817559849471,190.6185924875317 23.425598631845787,190.31415130675305 24.303021664731205,188.48750117392046 21.48603192693554,187.87861663510557 20.793329532491043,189.65452825033572 22.640535917831585,190.72007284901338 24.25684150517918,188.79194322548574 21.48603192693554,187.82787623076 20.88568985182792,188.63972221774748 20.562428734032437,189.60378798702732 22.73289623716846,190.9230335233151 24.21066134539433,188.8934238771326 21.624572405824438,187.3204719647183 20.562428734032437,189.75600876496173 23.056157354498282,190.87229336088058 24.303021664731205,188.74120289360872 21.255131128709763,187.7771358222235 20.47006841492839,189.705268509686 22.686716077383608,190.7708130236133 23.425598631845787,190.41563171654707 23.887400227831677,188.53824152593734 21.855473204050213,187.72639540972887 20.654789053602144,189.24860603088746 22.87143671605736,190.97377368190791 24.903363739838824,188.18305897706887 32.84635119722225,190.7708130236133 33.49287343211472,187.82787623076 35.66334093478508,186.55936480965465 36.72548460657708,182.65233380027348 37.55672747991048,182.14492542180233 40.373717217706144,182.75381542748073 42.359464082168415,184.32677858840907" stroke="#ffaf00" stroke-linecap="round" stroke-linejoin="round" stroke-width="0.5"><title>2021-12-19 6.0km</title></polyline><polyline fill="none" points="92.23569794069044,196.29792707314482 93.25514874141663,196.55249573924812 94.83066361560486,194.87234067416284 97.75,189.06813473714283 97.70366132748313,187.08247326867422 82.41189931356348,179.90349200705532 81.29977116710506,182.1437501120381 80.97540045762435,186.1660120540182 79.21453089267015,184.99497637251625 80.41933638462797,178.88519027922302 77.5,176.8994972553337 77.17562929051928,175.98302147642244 74.20995423360728,175.11745981499553 68.74199084658176,170.99329701677198 63.2276887872722,168.4475042608101 57.25,180.5144722670084 63.18135011428967,184.3330856927205 66.61041189939715,184.79131777456496 65.82265446218662,187.03155879117548 67.44450800912455,188.81356309790863 69.2980549200438,186.72607184096705 66.51773455389775,185.65686636860482 65.86899313516915,187.4388744980679 68.00057208258659,188.91539176582592 69.2980549200438,186.67515733506298 66.51773455389775,185.65686636860482 66.14702517166734,188.25350513553713 67.95423340960406,188.55899135756772 69.2980549200438,186.9297298238962 66.74942791764624,185.04589101183228 66.42505720839836,187.7443611085182 68.37128146458417,188.45716263301438 69.11270022881217,186.72607184096705 66.93478260887787,185.4532079809578 65.86899313516915,187.28613113838946 66.61041189939715,187.94801876781275 68.46395881008357,188.4062482647132 69.34439359256066,186.06418294931063 66.84210526314564,185.70778095524292 66.23970251716673,186.5224137933692 65.96167048043571,187.3879600489745 68.32494279160164,188.45716263301438 69.06636155606247,186.67515733506298 66.88844393589534,185.4532079809578 65.72997711668722,187.7952755294391 68.32494279160164,189.11904905294068 69.02002288331278,186.47149927122518 66.84210526314564,185.4532079809578 65.77631578966975,187.28613113838946 65.68363844393753,187.84618994622724 67.90789473685436,188.86447743384633 69.43707093829289,186.82790084049338 69.02002288331278,186.5224137933692 66.93478260887787,185.55503718287218 65.86899313516915,187.1843022115645 68.23226544633508,188.91539176582592 69.34439359256066,186.62424282520078 66.61041189939715,185.60595177771756 65.72997711668722,187.4388744980679 67.81521739135496,188.7626487579546 69.06636155606247,187.3879600489745 68.88100686506368,186.47149927122518 67.16647597262636,185.60595177771756 65.82265446218662,187.1843022115645 67.90789473685436,188.7117344138096 69.39073226554319,186.67515733506298 66.98112128139473,185.55503718287218 65.91533180768602,187.23521667707246" stroke="#fff500" stroke-linecap="round" stroke-linejoin="round" stroke-width="0.5"><title>2021-12-18 4.4km</title></polyline><polyline fill="none" points="138.28071672352962,196.19411865092115 142.56569965882227,189.0560778157087 140.2619453924708,186.4235886716051 131.64590443694033,181.61420541803818 128.05204778141342,180.39919758873293 126.90017064847052,181.259828373848 125.74829351529479,185.81608963233884 124.5042662115302,185.41108995093964 122.6151877134107,186.7779628437711 124.04351535835303,183.6392133180052 124.64249146752991,178.42480492411414 122.20051194541156,176.45040614105528 118.28412969270721,174.77975623792736 115.19709897600114,172.1472081055981 108.8848122865893,169.05901277757948 107.91723549505696,168.95776021823986 106.81143344705924,170.62842538871337 102.52645051199943,180.70294976327568 115.15102389082313,186.3223388720653 123.49061433435418,188.95482843427453 124.27389078494161,187.03108713182155 124.04351535835303,184.85421496868366 125.19539249129593,178.57668150018435 108.65443686000071,168.85650764289312 107.73293515341356,169.10963905107928 106.02815699647181,172.1472081055981 102.48037542658858,180.65232441097032 110.68174061435275,184.55046477314318 122.6151877134107,189.15732718096115 123.49061433435418,188.95482843427453 124.7346416383516,177.91854940919438 120.68003412988037,176.1466519391397 114.32167235505767,171.74219973525032 111.0042662115302,170.62842538871337 110.17491467576474,169.36277035885723 107.82508532400243,168.80588134913705 102.25,180.44982296117814 111.32679180894047,184.85421496868366 110.86604095553048,187.43608578341082 113.35409556305967,188.54983074811753 114.09129692846909,186.6767131004599 111.78754266211763,185.66421478195116 110.77389078494161,187.33483614469878 111.55716723552905,187.94233373593306 113.44624573388137,188.29670706338948 114.45989761105739,185.96796444634674 122.93771331058815,188.75232962338487 123.81313993176445,185.81608963233884 126.16296928329393,184.65171485446626 126.57764505129308,180.34857221221318 128.05204778141342,179.94356905535096 140.30802047788166,185.81608963233884 142.3813993174117,185.8667145743384 142.75,186.7779628437711 141.6441979520023,190.52419203717727" stroke="#ffaa00" stroke-linecap="round" stroke-linejoin="round" stroke-width="0.5"><title>2021-12-15 6.1km</title></polyline><polyline fill="none" points="184.89982973900624,195.35489406442503 187.61208853591233,189.6473098747665 187.29029511939734,188.2330333040445 184.5320658343844,187.22283382725436 183.5666855846066,185.9600822236389 172.71765039721504,181.2626242370461 171.56838819524273,182.1718123627943 170.64897843357176,185.9600822236389 169.2698637910653,185.80855186277768 170.41912599327043,180.50496647215914 170.00539160054177,179.59577596210875 154.42139614070766,169.74612874916056 152.6285471052397,169.89766293927096 147.4338819521945,180.85854020813713 147.25,181.8687497987994 153.45601589092985,186.06110244430602 158.28291713935323,186.5156932383543 167.3391032917425,190.05138831713703 168.16657207719982,189.6473098747665 169.86748013622127,182.87895778403617 170.00539160054177,179.6967971941922 167.0632803631015,176.81768579111667 153.41004540282302,169.64510593563318 147.47985244053416,181.61619755154243 152.58257661759853,185.35396056302125 168.25851305318065,190.15240788756637 168.4883654937148,187.12181379122194 169.68359818379395,188.03099353716243 171.66032917122357,183.78814359812532 171.66032917122357,181.8687497987994 172.90153234964237,181.36364520411007 175.47587968222797,182.12130194553174 184.9917707152199,187.37436385109322 187.24432463105768,187.82895370590268 187.75,189.192721320258" stroke="#fffd00" stroke-linecap="round" stroke-linejoin="round" stroke-width="0.5"><title>2021-12-13 4.2km</title></polyline><polyline fill="none" points="49.54560439568013,260.3608851276804 52.75,254.15059417614248 52.52747252746485,252.68358716391958 38.68626373610459,245.886409037048 37.707142857136205,246.22871476673754 37.03956043953076,248.13584320317023 34.72527472535148,258.4537945732591 37.75164835178293,245.886409037048 21.50714285718277,235.27483698009746 18.970329670235515,235.27483698009746 14.831318681361154,243.68586765800137 14.030219780281186,246.86442490224726 18.792307692347094,249.94516471819952 23.376373626291752,250.67867192521226 31.876923077041283,254.49289530923124 33.65714285708964,254.54179545555962 35.88241758244112,246.0331115159206 35.615384615492076,244.614986089 30.363736263709143,240.45839273493038 23.9994505494833,237.3287039171555 20.97307692305185,234.63911487231962 19.014835164882243,235.32373865356203 14.875824175775051,243.3435605140403 13.896703296806663,246.32651636871742 15.810439560562372,247.84243921295274 13.629670329624787,246.8155241458444 12.25,249.5050599743845 13.896703296806663,251.3143774641212 27.38186813215725,257.96479604329215 31.476373626384884,259.4317904675845 32.72252747253515,258.69829369260697 35.259340659249574,249.74956264876528 35.837912088027224,244.81058979040245 31.38736263755709,241.2408124524518 29.429120879154652,240.65399775770493 20.305494505446404,234.98142685816856 18.88131868117489,235.2259353028494 17.94670329685323,236.83968860149616 13.674175824271515,247.01112714782357 18.213736263802275,249.45615942787845 19.63791208784096,249.21165663696593 21.596153846243396,250.72757237462793 24.53351648361422,251.26547706132988 29.785164835164323,253.7593926481204" stroke="#ffc000" stroke-linecap="round" stroke-linejoin="round" stroke-width="0.5"><title>2021-12-12 5.6km</title></polyline><polyline fill="none" points="93.3778409094084,257.6766939879162 97.46235795482062,249.3331499423366 97.28977272752672,246.93120437435573 92.45738636399619,243.70752918790095 85.43892045482062,242.38012972590514 83.6555397727061,242.82259645930026 80.54900568188168,239.40927528508473 78.36292613646947,238.52433777519036 77.44247159105726,239.47248506965116 73.76065340917557,253.94739344908157 73.87571022752672,256.98140199302 72.32244318211451,257.6134856499266 73.47301136376336,257.6766939879162 74.04829545482062,256.34931783383945 74.5660511367023,249.71240384265548 78.19034090917557,238.96680665318854 81.92968750023283,239.47248506965116 93.49289772752672,245.41418238449842 97.75,245.60381029138807 76.4644886367023,235.74309919204097 72.78267045482062,250.1548664981383 68.46803977293894,247.8793416491244 62.71519886376336,246.42553069913993 61.16193181835115,246.93120437435573 58.91832386376336,245.60381029138807 57.82528409129009,245.98306596971815 57.59517045458779,248.51143253786722 60.87428977293894,249.77561280853115 61.737215909408405,246.7415767837665 58.34303977317177,245.60381029138807 57.65269886399619,248.06896896846592 60.356534091057256,249.52277691516792 61.852272727293894,247.31045941991033 58.86079545482062,245.35097307211254 57.71022727293894,246.42553069913993 57.76775568188168,248.44822347158333 60.52911931858398,249.4595679291524 62.02485795482062,246.93120437435573 58.11292613646947,245.79343815310858 57.65269886399619,248.32180532393977 60.52911931858398,249.52277691516792 61.96732954564504,246.93120437435573 59.26349431835115,245.73022887093248 58.28551136376336,246.42553069913993 57.76775568188168,247.5000868748175 60.29900568211451,249.39635893824743 61.50710227293894,249.01710488717072 62.08238636399619,247.24725025816588 58.80326704541221,245.60381029138807 57.71022727293894,246.10948448890122 57.25,247.94255076057743 60.6441761367023,249.52277691516792 61.96732954564504,247.3736685765325 61.04687500023283,246.67836757696932 62.71519886376336,246.36232146725524 71.91974431835115,249.77561280853115 73.87571022752672,244.59246093197726 76.34943181835115,245.85664743033703 78.07528409129009,238.58754762989702 80.54900568188168,238.8403869989561 97.57741477293894,247.18404109153198 96.36931818211451,251.92471465840936 92.62997159105726,259.256900807959" stroke="#ffd900" stroke-linecap="round" stroke-linejoin="round" stroke-width="0.5"><title>2021-12-11 5.0km</title></polyline><polyline fill="none" points="114.5912100893911,227.31235864912742 115.76819878758397,227.25 116.08397624315694,230.8044282742776 115.94044103601482,239.8150814343535 116.45716778154019,246.64309516968206 116.62941003008746,267.4694129212876 118.78243813640438,267.75 119.58623529609758,267.43823656774475 120.84934511850588,264.9752973498835 120.21779020724352,262.26292992112576 120.16037612443324,254.49985084909713 121.10770849126857,253.75159471150255 127.71032801736146,253.72041734363302 128.3418829285074,259.48819116447703 130.4087899106089,263.9776469908247 129.60499275079928,266.09765118258656 127.4806716858875,267.15764928158023 125.95919849083293,267.43823656774475 119.95942683448084,266.93941459667985 119.5288212132873,267.3447074931173 117.34708606556524,267.53176562162116 116.60070298868231,267.1888256559323 116.77294523722958,249.41791846288834 116.11268328456208,242.96408781132777 116.17009736748878,229.77551790917641 115.88302695320453,228.0918409844744 115.91173399460968,230.61735384931671 115.99785511894152,227.40589660551632 114.7347452964168,227.34353797018412" stroke="#ffdc00" stroke-linecap="round" stroke-linejoin="round" stroke-width="0.5"><title>2021-12-05 4.9km</title></polyline><polyline fill="none" points="165.68563276191708,227.34612790035317 168.39980814245064,227.3781705291185 168.90134054981172,267.75 169.31436723819934,265.92373656775453 169.1373558002524,245.57800062414026 168.7243291119812,244.07205778421485 168.51781576767098,227.25 168.4588119550608,243.71960232112906 168.90134054981172,245.0973811376025 168.42931004869752,228.27536317060003" stroke="#ffff00" stroke-linecap="round" stroke-linejoin="round" stroke-width="0.5"><title>2021-12-04 4.1km</title></polyline></svg>