<?xml version="1.0" encoding="utf-8" ?>
<svg baseProfile="full" height="300mm" version="1.1" viewBox="0,0,200,300" width="200mm" xmlns="http://www.w3.org/2000/svg" xmlns:ev="http://www.w3.org/2001/xml-events" xmlns:xlink="http://www.w3.org/1999/xlink"><defs /><rect fill="#222222" height="300" width="200" x="0" y="0" /><text fill="#FFFFFF" style="font-size:12px; font-family:Arial; font-weight:bold;" x="10" y="20">Over 6km Runs</text><text fill="#FFFFFF" style="font-size:4px; font-family:Arial" x="10" y="280">ATHLETE</text><text fill="#FFFFFF" style="font-size:9px; font-family:Arial" x="10" y="290">jerryu</text><text fill="#FFFFFF" style="font-size:4px; font-family:Arial" x="120" y="280">STATISTICS</text><text fill="#FFFFFF" style="font-size:3px; font-family:Arial" x="120" y="285">Number: 9</text><text fill="#FFFFFF" style="font-size:3px; font-family:Arial" x="120" y="290">Weekly: 1.5</text><text fill="#FFFFFF" style="font-size:3px; font-family:Arial" x="141" y="285">Total: 68.8 km</text><text fill="#FFFFFF" style="font-size:3px; font-family:Arial" x="141" y="290">Avg: 7.6 km</text><text fill="#FFFFFF" style="font-size:3px; font-family:Arial" x="167" y="285">Min: 6.0 km</text><text fill="#FFFFFF" style="font-size:3px; font-family:Arial" x="167" y="290">Max: 10.0 km</text><polyline fill="none" points="46.034115399234,86.54016893787775 45.80483985715546,86.51596727805736 44.78352153406013,86.58857224996609 44.59593245422002,86.63697555201361 44.42918660561554,86.78218539850786 44.19991106365342,86.87899191300676 43.84557613520883,86.92739515528956 43.13690627831966,86.87899191300676 42.67835519439541,86.97579838754609 40.88583732105326,86.87899191300676 39.593556993757375,86.87899191300676 37.34248803660739,86.92739515528956 34.549495071172714,86.90319353535597 31.568913026014343,87.0 31.381323946174234,86.95159677267657 31.19373486645054,86.85479028811096 30.735183782526292,86.44336228381144 30.505908240680583,86.15294208230625 28.984352371422574,82.83728600777977 28.650860674097203,81.8207981329906 28.400741901015863,81.38515912625007 28.025563741568476,80.51387868971506 27.587855888763443,79.73940447838686 27.35858034680132,79.15854714463057 26.87918603187427,77.14973779518914 26.712440183153376,76.56887405940506 26.524851103429683,75.7701840778609 26.399791716830805,75.33453385271423 26.04545678838622,74.41482516906399 25.94124063302297,74.02757833048236 25.83702447754331,73.05945844163944 25.649435397819616,72.47858459340932 25.649435397819616,71.99452195619233 25.56606247345917,71.60727112837776 25.482689549215138,71.31683258863632 25.170041082892567,70.61493796861032 24.961608772049658,69.67100741472677 24.669803536729887,68.89649746095529 24.523900919244625,68.36402038672531 24.23209568404127,67.56530251237564 24.002820142079145,66.66976712115866 23.648485213634558,65.6532092968846 23.294150285073556,64.32199597035651 22.522950735059567,62.14363061901531 22.14777257561218,61.538525547715835 21.98102672677487,61.3690958484367 21.418259487487376,60.86080601732829 20.938865172560327,60.57035419152817 20.56368701311294,60.449332491407404 19.875860387226567,60.35251508648798 19.313093147822656,60.158880156843225 18.9796014506137,60.08626701710455 18.270931593724526,59.67479213453771 17.687321123317815,59.60217884508893 17.08286742179189,59.65058770713222 16.87443511094898,59.57797441033472 16.582629875745624,59.19070311450923 15.873960018856451,57.907862387015484 15.33203601068817,57.10910896099813 14.852641695761122,56.261943268444156 14.373247380717658,55.26954528571514 14.248187994235195,54.95488163520349 14.248187994235195,54.494987849277095 14.414933842956088,53.599402629595716 14.53999322943855,53.09109598584473 14.81095523352269,52.36494172955281 14.956857851124369,51.59037471511692 15.123603699845262,51.08206372379209 15.29034954844974,50.210670893560746 15.457095397170633,49.75076781869575 15.623841245891526,49.00039771082811 15.644684476894327,48.56469783841749 15.936489712097682,47.499650303216185 16.12407879193779,46.57983263627102 16.186608485179022,46.047304972147685 16.457570489263162,45.10327569098445 16.91612157318741,43.79615196050145 17.270456501631998,42.61005190950527 17.520575274596922,42.17434018230415 17.89575343404431,41.085057327800314 18.39599098020699,40.04418232415628 18.52105036668945,39.60846583667444 18.771169139654376,39.051715815177886 18.896228526136838,38.85806332436914 19.06297437485773,38.71282385151426 19.52152545878198,38.39813801879063 20.480314088752493,37.59931824194791 20.980551634798758,37.139390471129445 22.085242882254533,36.29215274611488 22.43957781069912,35.97746366971114 23.25246382295154,35.42070503998548 23.460896133910865,35.32387731752533 24.669803536729887,34.40401196248422 24.857392616569996,34.210355639166664 25.711965091060847,33.629385710839415 26.566537565551698,33.26627877584542 27.42111004004255,33.048414345335914 28.296525745652616,33.0 29.422060224227607,33.1694501650054 30.401692085317336,33.38731448323233 31.214578097569756,33.84724960234598 31.98577764770016,34.13773447666608 32.90287981554866,34.597668126094504 33.40311736147851,34.79132413007028 33.819981983164325,34.984979974338785 34.15347368060611,35.17863565887092 34.65371122653596,35.42070503998548 35.070575848338194,35.68698107110686 35.23732169694267,35.856429297229624 35.383224314660765,36.12270483432803 35.4665972389048,36.195325382825104 36.925623414921574,36.84890930968686 37.48839065420907,37.139390471129445 37.94694173813332,37.33304437909101 39.572713762754574,38.18027834912937 40.406443006009795,38.543377686233725 41.74040979554411,39.29378120409092 43.345338589162566,40.09259521734202 44.554245992098004,40.649342771372176 45.950742474757135,41.47235847711272 48.410243742750026,42.63425809283217 48.576989591587335,42.80370130651863 48.97301098215394,43.02155668743944 49.26481621724088,43.142587367241504 49.80674022552557,43.48147293890361 51.16155024606269,44.110830560472095 51.95359302731231,44.280272708900156 52.41214411123656,44.256066695132176 53.49599212757312,44.59495066017553 54.684056299505755,44.909628189969226 55.37188292527571,45.22430529803387 56.476574172847904,45.6358054955781 57.26861695398111,45.85365824938344 57.9772868109867,45.99889330637234 58.602583743515424,46.337774756757426 58.7693295921199,46.313568955112714 58.936075440840796,46.11992245196598 59.01944836520124,46.095716627838556 59.33209683152381,46.023099140511476 59.58221560448874,46.047304972147685 59.87402083969209,46.168334092682926 60.10329638165422,46.38618635268358 60.43678807897959,46.55562685956829 61.10377147374675,46.67665571824182 62.14593302796129,46.99133045891358 62.70870026724879,47.1123590930365 63.75086182157975,47.427033249958185 65.06398537987843,47.71750132831221 65.7518120057648,47.91114651427779" stroke="#4dd2ff" stroke-linecap="round" stroke-linejoin="round" stroke-width="0.5"><title>2023-06-17 7.6km</title></polyline><polyline fill="none" points="76.24535561399534,74.60126799886348 78.51973645947874,69.86909370496869 79.6253382593859,67.08111661096336 81.45747838483658,62.8257410528895 81.58383287629113,62.60563403693959 82.08925084187649,61.94531217237818 82.49990293895826,60.95482707861811 83.85821372177452,58.276835062744794 84.17409995023627,57.87330027259304 84.61634067026898,57.61650516776717 85.53241073305253,57.79993026150623 85.6903538472252,57.72656023531454 85.6903538472252,57.543135103798704 85.59558797860518,57.359709877782734 85.15334725868888,57.02954423267511 84.96381552156527,56.6993782815407 84.83746103034355,56.36921202391386 84.9006382758962,56.0757306489686 85.56399935588706,54.388208047137596 87.45931672712322,50.31610969180474 88.47015265829396,47.93152596306754 88.72286164120305,47.01437412094674 89.00715924683027,45.84041631457512 89.67052032682113,43.45580259899725 90.04958380118478,41.73153349763015 90.6813562582247,39.6403874210082 91.28154009243008,37.25573216320481 91.50266045238823,36.08174216671614 91.50266045238823,35.16455978731392 91.59742632089183,34.394124761922285 92.19761015521362,33.44025051483186 92.48190776095726,33.25681286651525 93.08209159504622,33.036687563726446 93.71386405208614,33.0 94.06133890349884,33.0733751237276 94.66152273770422,33.25681286651525 95.70394729194231,33.77043804351706 96.746371846064,34.13731271607685 99.68411377153825,34.8710609266418 102.30596946831793,35.641494919604156 104.3908185766777,36.30186558607966 105.46483175375033,36.70542483459576 107.92874433635734,37.219045034464216 109.69770721613895,37.84272570916801 111.4034928502515,38.319657252402976 111.97208806162234,38.5397792874428 112.35115153586958,38.94333599827951 112.50909465004224,39.05339683996863 113.36198746727314,38.869962084980216 115.06777310138568,39.236831500486005 115.28889346134383,39.20014457599609 115.60477968980558,39.01670989659033 115.92066591838375,38.98002294928301 117.81598328950349,39.53032676075236 117.50009706104174,39.38357916098903 116.4892611297546,39.09008377970895 117.91074915812351,40.007256042415975 118.7004647294525,40.44749788893387 122.58586534054484,41.5481001228618 122.80698570050299,41.69484683024348 123.15446055191569,42.20845982947503 123.24922642041929,42.465266051207436 123.28081504337024,42.90550485718995 123.40716953459196,47.601351572200656 123.50193540321197,49.362278117390815 123.47034678037744,50.53622430737596 123.53352402616292,54.424893406103365 123.40716953459196,55.892304666747805 123.15446055191569,56.626008028455544 123.50193540321197,57.543135103798704 123.50193540321197,58.97384862281615 123.56511264899746,59.81760005376418 123.50193540321197,60.4412411301746 123.56511264899746,60.84477300933213 123.56511264899746,62.568949521082686 123.59670127183199,63.2659546766663 123.53352402616292,64.073011572822 123.59670127183199,64.99011946097016 123.47034678037744,65.79717244804488 123.50193540321197,67.77811293158447 123.59670127183199,68.54847569807316 123.53352402616292,70.82287032977911 123.62828989478294,73.42740117263747 123.56511264899746,74.71131781552685 123.62828989478294,75.51834876378416 123.50193540321197,76.61884256312624 123.62828989478294,78.37962556601269 123.62828989478294,79.07659976542345 123.56511264899746,80.32381334839738 123.65987851750106,81.16751417689375 123.62828989478294,81.93784796970431 123.72305576328654,83.11168673459906 123.69146714033559,84.13879247914883 123.75464438600466,85.12921306927456 123.72305576328654,85.82617405513884 123.75464438600466,87.0" stroke="#4dd2ff" stroke-linecap="round" stroke-linejoin="round" stroke-width="0.5"><title>2023-06-15 6.4km</title></polyline><polyline fill="none" points="167.12300002481788,33.03910487826215 166.4831087696366,33.234629208862316 165.84321751445532,33.27373406296829 165.50643264327664,33.234629208862316 164.86654138821177,33.0 164.52975651691668,33.0 161.70076359936502,33.19552435082733 158.9054491686402,33.234629208862316 157.6593451454537,33.15641948877601 156.9184184288606,33.19552435082733 151.93400233564898,33.0 146.91590775561053,33.11731462262105 142.60506140463986,33.11731462262105 141.9314916623989,33.234629208862316 141.05585099745076,33.86030639032833 140.75274461344816,34.36866834113607 140.31492428074125,35.385390200681286 140.24756730662193,35.7373317485617 140.41595974226948,36.24569118625368 146.37705196160823,46.099908898293506 146.88222926843446,47.03839248607983 147.6905129592633,48.25059702101862 148.3977611885639,49.50190086918883 149.0039739566855,50.362169872940285 150.5868628511671,53.06027365277987 150.75525528658181,53.568609900044976 150.21639949269593,54.937204106594436 151.02468318364117,55.523742970923195 151.63089595164638,55.797460797592066 151.8329668743536,55.99297341023339 152.0350377970608,56.266690898657544 154.15678248531185,60.9589600218751 154.3251749209594,61.70189731672872 154.49356735660695,62.092916361725656 155.0661016375525,62.95315684386878 156.68266901897732,66.58960644429317 157.25520329992287,67.56714072145405 157.49095270980615,68.34916633178364 158.9054491686402,71.20354614430107 159.1075200914638,71.75095899938606 160.3536241146503,73.86240119230933 162.44169031572528,77.96794963310822 163.3510094678495,79.29735580726992 163.51940190349706,79.37555602547945 164.05825769726653,79.33645591838285 164.32768559409305,79.53195641376078 164.90021987515502,80.62675732851494 165.77586054010317,81.91705435540644 166.0789669242222,82.46445176986163 166.4831087696366,83.52014455577591 167.99864068976603,86.37441036044038 168.3354255609447,86.80450334842317 168.8742813548306,87.0 169.34578017448075,87.0 171.60223881120328,86.21801278955536 172.5115579633275,86.10071456915466 173.99341139639728,85.51422292381176 175.40790785523131,85.08412847487489 176.3845839817077,84.61493397530285 176.95711826265324,84.53673483579769 177.42861708218697,84.41943609612645 179.3819693349069,83.6374435730686 179.61771874467377,83.36374580962001 179.75243269326165,83.0118483954866 179.71875420608558,81.64335535239661 178.843113541021,75.62192738667363 178.843113541021,75.23092227004236 178.9778274896089,74.44891082934919 178.9778274896089,74.09700515586883 176.72136885265354,58.143605505058076 176.62033339135814,56.85322770962375 176.01412062335294,53.09937646528124 175.60997877793852,50.01024187976145 175.6436572651146,49.50190086918883 175.60997877793852,48.87624946044525 175.37422936817165,47.62494355082163 175.44158634229098,45.669769812055165 175.40790785523131,43.87100108125014" stroke="#4dd2ff" stroke-linecap="round" stroke-linejoin="round" stroke-width="0.5"><title>2023-06-13 6.2km</title></polyline><polyline fill="none" points="60.285097710904665,131.67779908426746 59.992358609859366,131.657804601331 59.42410035483772,131.6977935650939 58.959161782462616,131.657804601331 58.132604320533574,131.6977935650939 57.68488569534384,131.657804601331 57.11662744032219,131.6378101163864 56.668908815132454,131.6977935650939 55.84235135326162,131.67779908426746 52.4328018228407,131.73778252066404 50.52138769219164,131.6977935650939 49.07491213391768,131.7577769953059 48.78217303281417,131.83775487341336 48.506653878779616,132.0177049785998 48.40333419601666,132.09768274966336 48.26557461905759,132.29762703304004 48.00727541215019,132.79748684060178 47.83507594099501,133.05741343194677 47.76619615254458,133.1373907745874 47.64565652265446,133.15738510515075 47.28403763304232,133.11739644203044 47.060178320505656,133.17737943363318 47.00851847912418,133.2173680843698 45.92366181034595,135.49670756272099 44.890464983007405,137.8959833678673 44.27054688654607,139.09561015218787 43.70228863146622,140.05530624312814 43.25457000633469,140.69510100178013 42.51411227998324,141.73476298822789 42.23859312600689,142.1346315007395 41.05041677452391,143.71410407469375 40.223859312653076,145.0136604822037 39.89668031735346,145.41352224245202 39.44896169210551,146.19325030660548 38.43298481183592,148.19253872877744 38.14024571067421,148.69235761802702 37.69252708554268,149.93190291205246 37.175928671844304,151.73122877633432 36.91762946493691,152.4309621101129 36.48713078693254,153.77044460203615 35.987752320303116,155.1698940533388 35.17841480561765,157.02914701140253 34.558496709156316,158.18867210253666 34.00745840126183,158.98834054575127 33.86969882424455,159.26822372300376 33.473640040378086,159.82798886756063 32.85372194397496,160.82756547012832 32.371563424530905,161.46729179604154 31.49334612127859,162.52683388837613 30.219070034159813,164.14612290043442 28.858694211405236,165.7254164639453 24.89810637308983,170.44322962230945 23.6927100745379,171.96250099396275 23.158891713770572,172.6621614453179 21.643536366871558,174.42129659009515 21.178597794554662,174.8610778872826 21.006398323341273,175.04098813098972 20.748099116492085,175.40080811854568 20.541459751024377,175.72064754800522 20.24872064992087,176.0804662766459 20.07652117870748,176.400304587165 19.714902289095335,176.74013221502537 19.714902289095335,176.94003054202767 19.818221971858293,176.98001018274226 20.05930123158032,177.0 20.214280755724758,177.0 20.38648022687994,176.9200407185417 21.075278111791704,176.12044609431177 21.45411694853101,175.76062743968214 22.022375203610864,174.9810180682689 24.364288012322504,172.20238486115704 27.394998706004117,168.52413301041815 28.720934634446166,166.98484390007798 29.633591832011007,165.86535324898432 32.61264268425293,162.32692072847567 33.473640040378086,161.1674203431612 33.85247887711739,160.58766755470424 34.07633818965405,160.36776087190083 34.541276762029156,159.62807292969956 35.006215334287845,159.008332214682 35.26451454119524,158.3885895220301 35.86721269052941,157.28904116823105 36.60767041676445,155.629710957699 37.107048883335665,154.19028049628832 37.39978798443917,153.19066973209556 37.60642734990688,152.65087778000452 37.86472655675607,151.7912060180097 38.243565393437166,150.77159039011167 38.63962417724542,149.59202837682096 38.93236327840714,148.8722921032022 39.69004095182754,147.2728686111368 39.9139002643642,146.85301776151755 40.12053962989012,146.5331307905726 40.24107925972203,146.4731519248744 40.63713804358849,146.35319413786056 40.91265719756484,146.01331333893177 40.96431703894632,145.8533692276833 40.94709709176095,145.43351530887594 41.0159768803278,145.21359146528994 41.29149603424594,144.8537155475933 41.429255611263216,144.61379789862258 41.75643460662104,144.29390723879624 42.445232491532806,143.33423209746252 43.04793064080877,142.35455883163377 43.926147944061086,141.11496516641637 44.40830646356335,140.3352167094272 45.200424031179864,138.85568538830557 46.181961017195135,136.65636123727018 47.02573842625134,134.85689567384543 47.68009641690878,133.37732260505436 47.99005546513945,132.7774924730329 48.21391477767611,132.21764934438397 48.35167435469339,131.99771053073346 48.73051319143269,131.6178156293754 48.97159245115472,131.29790355691512 49.1437919223099,131.2379199845891 50.28030843246961,131.2379199845891 51.916203409200534,131.13794732290262 52.74276087107137,131.17793639378215 54.206456376530696,131.17793639378215 54.98135399702005,131.13794732290262 55.80791145894909,131.13794732290262 56.25563008413883,131.09795824385947 56.427829555410426,130.9579964022414 56.479489396791905,130.8580235963891 56.548369185300544,130.63808324249112 56.60002902656561,130.25818568050454 56.531149238173384,129.81830336427083 56.479489396791905,129.0585042885068 56.51392929098802,128.91854097649048 56.617248973750975,128.75858278211672 56.686128762201406,128.4986504350818 56.686128762201406,127.9587898330501 56.65168886794709,127.5988819309714 56.755008550710045,126.35919404959714 56.755008550710045,125.97928811411839 56.686128762201406,124.85956103175704 56.65168886794709,123.2799350577261 56.686128762201406,123.0" stroke="#4dd2ff" stroke-linecap="round" stroke-linejoin="round" stroke-width="0.5"><title>2023-05-25 10.0km</title></polyline><polyline fill="none" points="112.76264790794812,176.7609838667995 112.00100601674058,176.78488549115718 111.40404345327988,176.97609839779034 111.2393641253002,177.0 110.93059038580395,176.9521967930923 110.41596748610027,176.8087871131429 109.88075967074838,176.78488549115718 108.85151387169026,176.88049196416978 108.29572114022449,176.85659034963464 107.34881500515621,176.90439357630385 105.99021055037156,176.88049196416978 104.81687033956405,176.8087871131429 101.15275529492646,176.83268873264024 100.61754747945815,176.8087871131429 98.3737916375976,176.88049196416978 96.80933802307118,176.88049196416978 95.26546932454221,177.0 95.01845033280551,176.97609839779034 94.64792184520047,177.0 94.50382743333466,176.92829518587678 94.44207268534228,176.7609838667995 94.3803179373499,176.37855754158227 94.25680844159797,176.04393399010587 93.70101571001578,174.9922568299662 93.08346823067404,173.58204588528315 92.73352465895005,173.03230031416751 92.38358108734246,171.9089031409676 92.11597717949189,171.4308601412049 91.95129785174504,170.73769604228437 91.84837327187415,170.45086891304527 91.64252411201596,170.04452987291734 91.10731629654765,169.136240034175 90.90146713668946,168.6342888611689 90.2015799934743,165.95719760096108 89.99573083349969,165.0249889302213 89.56344759801868,163.7820382101345 89.39876827015541,163.2083664013917 89.1105794464238,161.08098772868107 88.90473028668202,160.2921794438007 88.61654146295041,159.40775484446203 88.24601297522895,158.0930633990938 87.85489957162645,157.11301583889872 87.29910684004426,155.2246198424109 86.9903331004316,154.48359949298901 86.22869120910764,152.06929096960812 86.08459679735824,151.7346323599777 85.91991746949498,151.44778173897066 85.59055881376844,151.0175051423721 84.95242641831283,150.51551477117755 84.6230677627027,150.37208875130455 83.36738788778894,150.08523644560773 82.81159515643958,149.8940013780957 82.39989683683962,149.67886173876468 82.111708013108,149.43981746101053 82.07053818111308,149.34419968094153 82.111708013108,149.20077293700888 81.82351918937638,149.27248631998373 81.28831137390807,149.27248631998373 80.71193372644484,149.29639077618776 80.50608456658665,149.22467740045977 79.78561250737403,148.36411516317457 79.51800859952345,147.74259600650112 79.06514044804499,147.02545644906058 78.59168738045264,146.1170764938579 77.97413990099449,144.8501195636054 77.9123851530021,144.53935548628215 77.93297006911598,144.15687605038693 78.15940414485522,143.1050543499441 78.46817788458429,142.12494347298343 78.63285721233115,141.5034076004813 78.71519687632099,141.0013966417173 78.9004611200653,140.33204700665374 79.08572536392603,139.85393894196022 79.31215943978168,138.51523111830465 79.76502759137657,136.3159086357482 79.90912200312596,135.45529850963794 80.42374490282964,134.020941203853 80.85602813831065,132.4909503011295 81.18538679392077,131.79766985072638 81.53533036564477,130.86532390887442 81.84410410525743,130.21985144593054 82.19404767698143,129.21577959999559 82.37931192084216,128.92890113135218 83.90259570337366,127.68575700021756 85.03476608230267,126.82511485237046 85.42587948590517,126.51432662528532 85.59055881376844,126.27525847485231 85.75523814163171,126.10791062287171 86.2492761251051,125.86884205357637 86.92857835243922,125.41461109298689 87.54612583189737,124.8886583429412 87.89606940350495,124.67349551050575 88.3695224710973,124.12363403193012 88.65771129482891,124.02800581560587 88.94590011856053,123.81284218473593 89.23408894229215,123.64549255603924 90.18099507736042,123.21516438497929 91.21024087653495,123.0 91.78661852388177,123.0 92.77469449094497,123.14344294546754 94.11271402961574,123.59767835425737 94.42148776934482,123.74112093009171 95.0802050807979,123.90847048978321 95.7183374761371,124.19535516825272 98.27086705772672,125.48633183010679 98.76490504131652,125.94056265022664 99.01192403305322,126.10791062287171 100.8439815553138,127.04027568870515 103.27300164091866,128.13998351295595 103.97288878425024,128.42686295736348 105.14622899517417,129.12015348319255 105.70202172675636,129.35921870128368 106.56658819783479,129.83734839815588 107.67817366076633,130.33938351908 108.4398155520903,130.79360483505297 109.20145744329784,131.1761063058657 109.819004922756,131.74985732948699 110.12777866236866,131.96501359743706 111.56872278114315,132.5626688501652 111.87749652075581,132.65829354766174 113.89481828687713,133.68625655627693 114.01832778274547,133.85359894038993 114.14183727861382,134.30781337460212 114.12125236261636,134.4273433410126 113.97715795086697,134.78593287075637 113.97715795086697,134.90546259080293 114.05949761462398,134.85765071016795 114.16242219461128,134.61859115921834 114.12125236261636,134.3317193728144 114.18300711060874,134.1404713181255 114.3476864383556,134.020941203853 114.38885627035052,134.04484723163478 114.38885627035052,134.11656530016626 114.36827135446947,134.11656530016626 114.38885627035052,134.04484723163478 114.3476864383556,134.04484723163478 114.3476864383556,133.94922310570837 115.54161156527698,134.11656530016626 116.34442328847945,134.4273433410126 116.92080093594268,134.5229672697751 117.86770707112737,134.83374476610334 118.69110371021088,135.02499224923667 120.15263274498284,135.5987337524275 121.69650144339539,136.10075640355353 121.9435204352485,136.22028544613568 122.04644501511939,136.3159086357482 122.08761484711431,136.50715489682625 121.9435204352485,137.4394781615556" stroke="#4dd2ff" stroke-linecap="round" stroke-linejoin="round" stroke-width="0.5"><title>2023-05-23 7.6km</title></polyline><polyline fill="none" points="139.9864843589021,144.44408484431915 139.26642136229202,144.5178570409771 138.71578495309222,144.86212699081807 138.86403321719263,145.37853098470077 139.09699477488175,145.87034327385481 139.1605297451606,146.19002071859722 139.1817080685869,146.4359261540667 139.11817309830803,146.8785552996851 139.1393514216179,147.66544953263656 139.22406471543945,149.58349336107494 139.24524303886574,150.61627981018682 139.26642136229202,151.13267135956266 139.35113465599716,151.50152178258577 139.414669626276,151.59988179917855 139.66880950750783,151.7966017107392 139.7111661543604,151.9195515732281 139.75352280121297,154.3293560970924 139.81705777149182,154.96868790936423 140.05001932918094,155.28835317354242 140.32533753383905,155.46048044633062 140.45240747439675,155.90309286362026 140.62183406180702,156.02604061170132 141.2148271178594,156.0998092301743 143.43855107796844,156.05063015372434 144.4339322791202,156.07521969324443 144.73042880708817,156.12439876461576 144.92103371804114,156.24734639876988 145.06928198202513,156.4194729802548 145.21753024600912,156.86208362004254 145.4081351569621,157.1571569242078 145.49284845066722,157.45222986374574 145.8105233021779,160.08328078806517 146.04348485986702,161.28814489903743 146.25526809401345,162.00122487681801 146.38233803468756,162.93560231443553 146.70001288608182,164.68140299375227 146.82708282675594,165.81247831137443 147.20829264842905,168.2959074987739 147.547145823366,170.90225095310598 147.80128570448142,172.3037635043147 147.8224640279077,172.69716905792302 148.11896055587567,174.615011852904 148.16131720284466,175.13135151272581 148.43663540738635,176.5820141077129 148.54252702463418,176.87706304877065 148.7754885823233,177.0 148.88138019945472,177.0 150.04618798801675,176.5820141077129 150.7874293080531,176.26237734356255 151.16863912984263,176.18861495265446 151.97341542015783,176.23778988244885 152.5452301526675,176.23778988244885 153.28647147282027,176.3361397116969 156.03965351858642,176.3361397116969 156.44204166391864,176.286964802086 157.37388789467514,176.286964802086 158.1151292148279,176.360727162697 160.1694265875267,176.3115522581793 160.57181473262608,176.26237734356255 160.8471329372842,176.18861495265446 161.31305605266243,176.164027483901 161.80015749158338,176.18861495265446 162.52022048819344,176.21320241877402 163.15557019109838,176.3115522581793 164.12977306882385,176.3115522581793 164.53216121403966,176.38531461110688 165.08279762323946,176.38531461110688 165.63343403232284,176.3115522581793 167.56066146446392,176.3115522581793 167.94187128613703,176.286964802086 168.15365452051628,176.23778988244885 168.61957763601094,175.86897766201582 168.70429092971608,175.7460401286953 169.00078745768405,174.98382600955665 169.02196578111034,174.78712519686087 169.10667907481547,174.56583658898307 169.38199727935717,173.5823291845736 169.57260219031014,173.04139838581614 169.78438542457297,172.3037635043147 169.9961686588358,171.32024678518064 170.12323859950993,171.07436697251978 170.27148686349392,169.64825906780607 170.27148686349392,169.2056721245026 170.33502183377277,168.88602548874042 170.3138435103465,168.5417901718174 170.33502183377277,167.0910787419125 170.16559524624608,165.51741570149898 170.20795189321507,164.82893486072135 170.1444169228198,164.2879842363036 170.16559524624608,163.8207986200723 170.1444169228198,163.27984571203706 170.22913021652494,161.9766359475325 170.18677356978878,161.14061084472633 170.22913021652494,159.4439626687381 170.18677356978878,156.54242046247236 170.12323859950993,156.34570446054568 170.08088195265736,156.32111494893616 169.57260219031014,155.97686152005917 168.49250769533683,155.90309286362026 168.87371751712635,156.00145106718992 169.59378051373642,156.02604061170132 169.72085045441054,156.07521969324443 170.1444169228198,156.54242046247236 170.16559524624608,157.05879919664585 170.1444169228198,156.49324147721927 169.84792039485183,155.9522719704255 169.7632071011467,155.50965964433271 169.78438542457297,155.3129427915701 169.84792039485183,155.06704649774474 170.16559524624608,154.6244325308071 170.18677356978878,153.64084300033574 170.10206027608365,152.26381085129105 170.12323859950993,151.7966017107392 170.03852530568838,151.13267135956266 170.03852530568838,150.8375906108995 170.1444169228198,150.56709960439184 170.1444169228198,150.12447729631094 170.16559524624608,149.41136185194773 170.10206027608365,149.04250820017478 170.1444169228198,148.3047991873609 170.08088195265736,147.51790706148313 170.12323859950993,146.19002071859722 170.03852530568838,145.59984664012154 169.93263368855696,145.2309871003672 169.82674207142554,144.3703126248729 169.84792039485183,144.24735887505813 170.03852530568838,144.0014511855261 170.08088195265736,143.8539064503275 169.9961686588358,142.57518159212486 170.05970362923108,141.27185882386402 170.03852530568838,140.01771132992872 169.9961686588358,139.5258869849349 169.8902770418208,139.32915696324199 169.84792039485183,138.86192251209286 169.8690987182781,138.56682659809303 169.95381201209966,138.32091305784706 169.9961686588358,137.8290852173959 170.08088195265736,137.41103075642604 170.05970362923108,137.11593304907728 169.97499033552594,136.7962434545334 169.93263368855696,136.3044124731532 169.8690987182781,136.03390500151727 169.80556374799926,135.34533914522035 169.84792039485183,134.70595478606992 169.97499033552594,134.2633030727884 169.80556374799926,133.47636466717813 169.8690987182781,133.20585399102129 169.9961686588358,133.03371067388798 169.7632071011467,133.1074863964459 169.80556374799926,133.13207829893508 170.10206027608365,133.1074863964459 170.82212327269372,132.95993492865819 170.9703715366777,132.9107510857575 171.18215477094054,132.71401561288803 171.35158135846723,132.32054418078042 171.58454291615635,132.14840022532735 172.11400100181345,132.14840022532735 173.08820387965534,132.2467682150309 174.04122843395453,132.09921621526883 174.27418999164365,132.02544018116896 174.50715154933278,131.75492786102404 174.6342214900069,131.33686276328808 174.57068651972804,130.86961267008155 174.31654663861264,130.6728755151562 174.16829837451223,130.4269538433873 174.14712005108595,130.05807086081768 174.16829837451223,129.76296406431356 174.2318333449075,129.54163372764015 174.3589032854652,129.44326462320169 175.48135442717467,129.8367407976766 175.90492089581676,129.91051750816405 176.18023910047486,129.86133303707174 176.75205383298453,129.88592527390574 177.00619371409994,130.03347864176612 177.34504688892048,130.52532254249672 177.4509385061683,130.6236912010063 177.55683012329973,130.6728755151562 177.98039659194183,130.45154602195544 178.38278473704122,130.32858510376536 179.99233731778804,130.57450687678647 180.24647719890345,130.57450687678647 180.67004366742913,130.40236166225804 180.9665401953971,129.9842941959214 181.24185840017162,129.7383718148485 181.28421504690778,129.64000279147876 181.07243181264494,129.17274937701586 180.9877185189398,128.9022338242794 180.9665401953971,128.33660940524715 181.0088968424825,127.86935343957157 180.77593528467696,127.03320890253235 180.5853303738404,126.565950385615 180.20412055205088,126.172468819801 179.9076240240829,126.02491306538286 179.20873935089912,125.77898660545179 178.84870785253588,125.53305989202636 178.78517288225703,125.53305989202636 178.6792812650092,125.60683793270437 178.50985467759892,125.828171917703 178.34042809018865,125.97572779371694 177.4509385061683,126.46758005497395 176.90030209708493,126.83646858581051 176.7732321564108,126.8856536802632 176.6673405392794,126.86106113425922 176.60380556900054,126.81187603482977 176.4979139517527,126.61513553574332 176.43437898159027,126.02491306538286 176.32848736434244,125.68061595047766 175.8625642489642,124.7706854706048 175.79902927868534,124.52475771850732 175.77785095514264,124.05749429136631 175.9896341895219,123.34430098134908 175.9896341895219,123.14755762425193 175.92609921924304,123.07377882348374 175.79902927868534,123.04918588489818 175.1848578992067,123.12296469317516 174.2106550213648,123.0 173.74473190598655,123.0" stroke="#4dd2ff" stroke-linecap="round" stroke-linejoin="round" stroke-width="0.5"><title>2023-05-17 8.5km</title></polyline><polyline fill="none" points="44.48934501467738,267.0 44.5991089513991,266.7960561719665 44.730825675535016,265.67436211308814 44.77473125024699,264.4251968350436 44.9064479743829,263.8133584793395 44.9064479743829,262.9975716512563 44.95035354909487,262.81911792406754 45.14792863524053,262.58967722859234 45.27964535949286,262.3347428728157 44.9064479743829,262.38572976499563 44.730825675535016,262.36023632026627 44.577156164101325,262.23276905698003 44.35762829054147,261.90135386523616 44.182005991693586,261.82487337329076 43.874666968593374,261.77388636549585 43.50146958348341,261.6209252791741 42.316019066260196,261.56993822948425 39.923165244283155,261.6209252791741 39.2426288361894,261.56993822948425 39.00114817521535,261.4934576350497 38.869431451079436,261.34049637541466 38.781620301655494,261.13654788202257 38.95724260050338,259.7853848668892 38.869431451079436,258.9950785506953 39.00114817521535,258.5616836925183 39.045053750043735,258.1792758342199 39.08895932463929,257.1850126360805 39.2426288361894,256.2162395224441 39.308487198199145,254.967026486338 39.549967859173194,252.69803157165006 39.57192064658739,251.9841861710447 39.65973179601133,250.93890883210406 39.923165244283155,248.95032023663225 39.923165244283155,248.46591802913463 40.14269311784301,248.0325047236547 40.20855147985276,247.62458562469692 40.14269311784301,246.93622061987116 40.31831541669089,245.96740736781794 40.34026820398867,245.58498003952263 40.296362629393116,244.8201236091263 40.38417377870064,244.31021800824965 40.406126566114835,243.6473391555628 40.53784329025075,242.78049489852856 40.845182313234545,241.8881520487921 41.19642691093031,241.1742754511215 41.48181314661633,240.81733637956495 41.85501053172629,240.38390967169835 42.46968857769389,239.92498644719308 42.51359415252227,239.74651607441774 42.49164136510808,239.44056656421162 42.55749972711783,239.28759166729287 42.777027600677684,239.13461667564115 43.32584728463553,238.87965814606287 43.8307613938814,238.4717239519814 44.401533865137026,238.5482116646599 44.92840076179709,238.7776746606105 46.5748598134378,239.2366000139009 47.34320737107191,239.49155817551946 48.4408467389876,239.72102029639063 48.59451625042129,239.72102029639063 48.726232974557206,239.67002873233287 49.011619210243225,239.44056656421162 49.07747757236939,239.31308748999436 49.12138314708136,238.49721985885117 49.055524784955196,236.96746079648437 48.967713635531254,236.22807385785563 48.77013854926918,235.48868470887828 48.59451625042129,235.10624117817497 48.33108280214947,234.62181185698137 47.71640475618187,233.8314251381089 47.34320737107191,233.423482617407 47.16758507222403,233.16851820034208 46.64071817568038,231.43475319314166 46.552907026256435,231.35826328049006 46.28947357786819,231.30726999224862 46.15775685373228,231.2052833842754 46.06994570430834,231.05230339348782 46.06994570430834,230.77183983118448 46.00408734229859,230.54236940729606 45.87237061804626,230.41488574646064 45.60893716989085,230.26190526668506 45.894323405460455,230.49137595081993 46.00408734229859,230.64435628858337 46.04799291701056,230.77183983118448 46.06994570430834,231.1287934007123 46.1358040664345,231.25627669357345 46.223615215858445,231.35826328049006 46.35533193999436,231.3837599206454 46.5748598134378,231.35826328049006 46.64071817568038,231.30726999224862 46.662670962978154,231.02680671909184 46.706576537690125,229.3695172486914 46.64071817568038,229.14004552359984 46.552907026256435,228.98706425521232 46.31142636528239,228.80858598920167 44.81863682495896,228.2476534574671 44.68692010093946,228.1711625590833 44.643014526111074,228.09467163705267 44.70887288812082,227.55923452043498 45.060117485933006,226.48835680926277 45.19183421006892,225.85092739858374 45.3674565089168,225.51946345568285 45.6747955319006,224.7545449687168 45.82846504333429,223.8111422429356 46.04799291701056,222.99522346962476 46.1358040664345,222.35778505477356 46.28947357786819,222.2812923345773 47.101726710097864,222.17930200410774 47.365160158486106,222.0773116316559 47.69445196876768,221.8223355164082 47.957885417039506,221.3633778464573 48.06764935387764,220.75143296150782 48.00179099186789,219.47654292044172 48.08960214117542,218.7371036849654 48.177413290715776,218.431128182041 48.4408467389876,218.04865827098547 48.616469037835486,217.6661877683655 48.7481857619714,217.30921476556978 48.79209133668337,217.00323749576637 48.7481857619714,216.34028544569446 48.55061067570932,215.72832812961133 48.37498837697785,215.44784718686424 47.60664081934374,214.63190081711218 46.9041516239522,214.07093612612516 46.552907026256435,213.86694865016034 46.15775685373228,213.73945639225713 45.301598146907054,213.6119640686229 45.060117485933006,213.6374625385797 44.5991089513991,213.79045330331428 44.07224205485545,213.89244709380728 43.523422370897606,213.89244709380728 42.9087443248136,213.7139579327486 41.94282168103382,213.2294867032033 41.547671508742496,213.10199411665963 41.0647101867944,213.025498533083 40.53784329025075,213.0 39.8353540947428,213.07649559140555 39.39629834762309,213.2294867032033 38.869431451079436,213.50997016235488 38.232800617814064,213.9944408423762 37.57421699690167,214.70839590372634 37.02539731306024,215.09087098138116 36.30095533025451,215.42234890353575 35.269174324464984,215.67733161820797 34.830118577345274,215.65183335855545 33.732479209546,215.49884374556132 33.40318739914801,215.49884374556132 33.02999001403805,215.57533856391092 32.305548031115904,215.85581936199742 31.888445071410388,216.05980519716104 31.69086998514831,216.2382926648861 31.515247686300427,216.49327453812293 31.339625387452543,216.82475058024283 31.20790866331663,217.07973184874572 31.164003088721074,217.33471285428095 31.09814472659491,217.58969359686307 31.05423915188294,218.3801322280924 30.87861685291864,219.40004930896976 30.900569640332833,219.73152145452332 31.032286364468746,219.935504092442 31.998209008248523,220.3179710850236 32.81046214036178,220.59844650360174 33.60076248529367,220.9554147581366 34.0398182325298,221.05740559328115 35.04964645090513,221.43987085066328 35.57651334744878,221.54186148599547 36.30095533025451,221.77134026185377 37.15711403719615,221.77134026185377 37.79374487057794,221.9243259940704 38.51818685338367,222.23029717456666 39.110912112053484,222.6382581597427 39.61582622118294,222.89323343362776 40.406126566114835,223.1992034153227 41.503765934030525,223.5306704682589 41.59157708345447,223.65815767805907 41.59157708345447,223.8111422429356 41.5257187213283,224.14260847566766 41.35009642248042,224.7545449687168 41.35009642248042,224.98402076326602 41.503765934030525,225.16250178957125 41.94282168103382,225.39197720543598 42.228207916836254,225.59595517422713 42.62335808924399,226.10589936000179 42.9087443248136,226.6923338737106 42.95264989952557,226.64133962336928 42.88679153751582,226.38636821396358 42.996555474353954,226.71783099489403 43.0624138363637,226.79432234275737 43.78685581916943,226.79432234275737 44.511297801858746,226.94730496757256 44.95035354909487,227.1257845768996 45.060117485933006,227.0492933315545 44.752778462832794,227.94168972200714 44.730825675535016,228.09467163705267 44.752778462832794,228.22215649392456 44.88449518708512,228.3496412851673 45.43331487104297,228.63010759437748 45.87237061804626,228.73209526436403 46.39923751470633,228.96156736799458 46.6187653883826,229.21653612233058 46.68462375027593,229.42051093645568 46.6187653883826,230.0579311465117 46.552907026256435,231.43475319314166 46.662670962978154,231.97018191899406 47.23344343435019,233.32149688217032 47.58468803204596,233.8314251381089 48.00179099186789,234.31585600745166 48.37498837697785,234.90227105330268 48.68232739996165,235.59066955043818 48.901855273521505,236.27906613150844 48.967713635531254,236.91646866477095 48.967713635531254,237.98730122267443 49.033571997541,238.49721985885117 49.011619210243225,239.28759166729287 48.967713635531254,239.49155817551946 48.66037461254746,239.72102029639063 48.46279952628538,239.74651607441774 47.54078245733399,239.41507075465051 46.6187653883826,239.2366000139009 45.125975847942755,238.80317053588806 44.401533865137026,238.62469935360423 44.247864353703335,238.62469935360423 43.150224985787645,239.03263329532638 42.20625512942206,239.4660623712407 41.898916106438264,239.67002873233287 41.2403324857587,240.2054396300082 40.62565443967469,241.07229291180556 40.471984928241,241.53121400751115 40.1646459052572,242.19409853138495 40.01097639359068,242.75499943325121 39.79144852014724,244.10625547353993 39.528015071759,246.60478493431583 39.46215670974925,246.7322602505883 39.264581623487175,246.93622061987116 39.17677047417965,247.19117084506433 39.154817686765455,247.4971107684105 39.19872326136101,247.90503007752704 39.35239277302753,248.5933923861885 39.2426288361894,249.58769011704135 39.08895932463929,250.2505530505441 38.73771472705994,254.07472759833036" stroke="#4dd2ff" stroke-linecap="round" stroke-linejoin="round" stroke-width="0.5"><title>2023-05-12 8.4km</title></polyline><polyline fill="none" points="122.11716852744576,213.1334130781761 121.61163324688096,213.1067304679891 121.15205571905244,213.0 120.30183729249984,213.0 118.80821032705717,213.1600956855691 118.21075954090338,213.08004785515368 116.80904808081686,213.08004785515368 116.02776628360152,213.1067304679891 115.54520987928845,213.26682608766714 114.99371684598736,213.26682608766714 114.28137167776003,213.18677829025546 113.79881527344696,213.26682608766714 113.54604763316456,213.6403821487329 113.52306875679642,213.77379489713348 113.68392089160625,214.20071523013758 113.68392089160625,216.30862406108645 113.66094201512169,217.40259530080948 113.68392089160625,218.06964866735507 113.6149842623854,218.44319780243677 113.362216622103,218.6833362476027 113.20136448729318,218.76338234651485 112.55795594828669,218.79006437398493 111.77667415095493,218.89679245647858 109.63963864662219,219.03020249761175 109.04218786023557,219.19029445637716 108.55963145603891,219.2436584206589 108.37580044497736,219.32370434643235 108.21494831028394,219.56384197541047 108.14601168094669,219.96407086239196 108.28388493938837,221.16475381300552 108.28388493938837,222.09861448282027 108.23792718665209,222.49883945356123 108.23792718665209,223.13919812071254 108.1000539282104,224.3131848993653 108.03111729898956,224.66004361133673 107.77834965870716,225.0335832432902 107.68643415323459,225.3804409907898 107.36472988361493,225.6205730054062 107.22685662540607,225.6739356450853 106.65238471550401,225.72729827373405 104.37747595272958,225.75397958399844 100.44808808970265,225.6205730054062 99.34510202286765,225.6739356450853 98.67871460749302,225.6739356450853 97.57572854065802,225.78066089143977 97.13912988919765,225.99411125236657 96.95529887801968,226.12751763869892 96.81742561957799,226.36764896073146 96.61061573214829,226.98131688390276 96.2199748334242,227.64834558649454 95.73741842922755,228.7956309375877 95.02507326111663,230.31644322301145 94.97911550826393,230.44984738354106 94.95613663189579,231.1168671559717 94.9101788791595,231.2769516457629 94.74932674434967,231.4903974783665 94.47358022758272,231.67716243764153 94.17485483456403,232.15741457178956 92.58931236353237,235.41243335051695 92.38250247598626,236.02607985041686 92.06079820648301,236.66640508332057 90.79696000483818,238.5606912986841 89.16545978107024,240.77512100685271 88.61396674765274,241.65555165681872 86.98246652376838,243.89663435774855 86.82161438907497,244.16342862631427 86.43097349035088,245.33732014446286 86.31607910839375,245.44403729157057 85.8794804570498,245.63079219311476 85.69564944575541,245.81754696008284 85.16713528882246,246.7246396279079 84.56968450266868,248.08527267587488 84.36287461512256,248.59217335740686 84.22500135679729,249.04571523185587 84.0411703455029,249.3925408356008 83.65052944689523,250.37965732088196 83.32882517739199,251.4201273834624 82.82328989682719,252.78073577734176 82.54754338006023,253.71448250228423 81.83519821194932,255.7687134546286 81.69732495350763,256.0621736899193 81.42157843685709,256.99590859166346 80.75519102148246,258.72997876940644 80.36455012287479,259.50363710557576 80.11178248259239,260.25061537662987 79.44539506710134,261.3977563867229 78.98581753938925,262.4381822142168 78.80198652821127,262.73163489747094 78.43432450585533,263.13179711205885 78.04368360724766,263.63866836350644 77.88283147243783,263.9321196875826 77.88283147243783,264.03882917764713 78.91688091005199,264.7324397918128 79.65220495464746,265.3726940958295 80.57136001030449,265.6127890520729 81.00795866188128,265.906238141004 81.28370517853182,265.9862696530763 81.8811559646856,266.0396239806432 82.73137439112179,265.9862696530763 83.2828674246557,265.746175042761 83.6275505706435,265.79952941983356 84.01819146925118,265.66614345661947 84.3858534914907,265.82620660428074 84.59266337903682,266.0929782973253 85.00628315412905,266.35974971586256 86.01735371525865,266.4931353221182 87.67183281551115,266.51981243520277 88.15438921982422,266.57316665293183 89.23439641017467,266.51981243520277 90.4522768589668,266.57316665293183 92.22165034117643,266.57316665293183 95.53060854168143,266.7065521494369 96.2659325862769,266.62652085974696 96.7714678668417,266.7332292404608 101.06851775222458,266.89329172912403 101.66596853837837,267.0 102.95278561639134,267.0 103.41236314421985,266.8132604970888 103.80300404282752,266.7065521494369 104.19364494166803,266.7065521494369 106.46855370444246,265.9862696530763 108.05409617547411,265.3460168646998 108.51367370330263,265.2393079129106 110.3519838147331,264.62573058740236 111.27113887039013,264.30560271043214 111.7077375218505,264.1188612662954 112.48901931918226,263.9321196875826 113.24732224014588,263.692023174488 114.23541392502375,263.2651843795902 114.55711819441058,263.07844218579703 114.74094920570496,262.6782798888744 114.53413931804243,262.11805163518875 114.05158291384578,261.13097986072535 113.63796313886996,260.4907150779909 113.3162588692503,259.7170596883807 112.67285033024382,258.40984360990115 111.98348403861746,257.12929901725147 111.73071639821865,256.72912753449054 109.61665977013763,252.51395038075862 109.31793437700253,251.9803787637793 109.08814561308827,251.44680604813038 108.42175819771364,250.29962098915712 108.14601168094669,249.55261403461918 108.14601168094669,249.41921970888507 108.26090606302023,249.17910974979168 108.28388493938837,249.07239414090873 108.05409617547411,248.37874161233776 106.9970678613754,246.11101846472593 106.83621572668198,245.63079219311476 106.60642696276773,245.3106408508902 106.39961707522161,244.69701633928344 105.82514516543597,243.4964424399368 105.20471550279763,242.00238715214073 104.26258157077245,240.16148575439001 103.64215190813411,239.30772994202562 103.32044763863087,238.74745116150007 102.5851235940354,237.73361028824002 102.332355953753,237.2266883639968 102.01065168424975,236.773125801672 101.8268206731882,236.31956244522007 101.55107415642124,235.9993995979894 101.06851775222458,235.30571207174216 100.74681348272134,234.63870308356127 100.35617258399725,234.02505329775158 99.5289330339292,232.61098521438544 99.04637662973255,231.9172886159795 98.01232719200198,230.10299642328755 96.79444674332626,228.1286051889183 96.47274247382302,227.54162110949983 96.33486921549775,227.1414039291849 96.42678472097032,226.76786733639892 96.65657348500099,226.28760521148797 97.1161510128295,225.83402349823155 97.57572854065802,225.6205730054062 97.6216862933943,225.56721035472583 97.69062292261515,225.16699012424215 97.80551730445586,225.08694600395393 97.9204116865294,225.0335832432902 100.05744719097856,224.90017629376962 100.63191910076421,224.7134064489801 100.95362337026745,224.63336218849872 102.0795883134706,224.5533179033373 103.06767999834847,224.5799993344408 104.05577168322634,224.82013209103025 105.31960988475475,224.6867250315263 105.9400395473931,224.66004361133673 107.13494111981709,224.7667692755349 107.38770876009949,224.7134064489801 107.52558201842476,224.5533179033373 107.5485608947929,224.3932292587706 107.36472988361493,223.32596910046414 107.36472988361493,222.5788843735645 107.57153977116104,221.8317974920501 107.68643415323459,219.88402513443725 107.77834965870716,219.37706828324008 107.91622291714884,219.19029445637716 108.07707505184226,219.1102484893927 108.88133572554216,219.00352049490903 109.80049078119919,218.97683848944143" stroke="#4dd2ff" stroke-linecap="round" stroke-linejoin="round" stroke-width="0.5"><title>2023-05-03 8.0km</title></polyline><polyline fill="none" points="147.73011290456634,213.0 147.75556910200976,214.44840846335865 147.70465670735575,214.62576409924077 147.37372614245396,214.89179734763457 146.8900583939394,214.98047504224814 146.10091627785005,215.0100342677615 145.69361712108366,215.12827113919775 144.03896429704037,215.1578303494025 143.09708499722183,215.54209980543237 142.1552056974033,215.66033645760035 141.9770123163471,215.77857306101942 141.72245034342632,216.10372346936492 141.56971315958072,216.48799165870878 141.64608175156172,216.8722593334678 141.6969941460993,219.35520728927804 141.64608175156172,221.77901671468862 141.6969941460993,222.48842047870858 141.64608175156172,223.22738086810568 141.67153794888873,223.87766443681903 141.67153794888873,227.36552388593554 141.67153794888873,227.8384507173032 141.8751875271555,228.2522610554006 141.9260999216931,228.66607079684036 141.9006437244825,229.0798799416807 141.67153794888873,229.73015024935012 141.64608175156172,230.43953435929143 141.67153794888873,231.32626203098334 141.77336273808032,232.30165930555086 141.7479065406369,232.8632501719403 141.67153794888873,233.2179385741474 141.64608175156172,234.45934452977963 141.8242751326179,239.18846088668215 141.8497313298285,240.22294470318593 141.9006437244825,240.45939762337366 142.23157428926788,241.28698131028796 142.43522386753466,241.5529898457753 142.68978584057186,241.7303287325194 143.12254119454883,241.8189981348405 144.9044750049943,241.9076675096876 147.3228137480328,241.93722396183875 147.75556910200976,242.0554497402336 148.08649966667872,242.35101397309336 148.21378065319732,242.49879597549443 148.31560544238891,242.79435975188971 148.3665178369265,243.11947955435608 148.4937988234451,244.39039888523985 148.59562361252028,244.98152223811485 148.67199220438488,246.13420927489642 148.90109798009507,247.61200639684102 148.90109798009507,247.78934154025046 149.20657234766986,249.00112875449122 149.46113432059065,249.35579721533577 149.56295910978224,249.59224261247437 149.8429772799136,250.89268881530734 149.9957144637592,252.1044629291573 150.199364042026,254.38022000170895 150.3775574231986,255.4146490705898 150.40301362040918,255.94663971185219 150.65757559344638,257.27661200167495 151.19215573649853,260.6458475602558 151.37034911755472,261.47337305225665 151.39580531488173,262.5077765630558 151.7267358796671,264.39924762997543 151.8285606688587,265.64051874543657 152.18494743097108,266.7931228330417 152.38859700935427,266.97044612816535 152.61770278494805,267.0 154.11961842526216,266.5271376850724 154.9087605413515,266.1724904378061 155.34151589532848,266.05427459132625 156.13065801141784,266.1133825206198 157.19981829775497,266.1133825206198 157.65802984905895,266.2020443917427 158.1416975975735,266.23159834276885 159.18540168658365,266.1724904378061 161.27280986472033,266.2020443917427 161.93467099429108,266.1133825206198 162.41833874292206,266.1724904378061 164.81122128851712,266.14293648075545 166.491330309771,266.2020443917427 166.9240856638644,266.1133825206198 167.53503439878114,266.2020443917427 168.93512525002006,266.05427459132625 169.9279169443762,266.2611522906809 171.17527061176952,266.32026017733733 171.5571135712089,266.23159834276885 175.29917457327247,266.1724904378061 175.68101753271185,266.14293648075545 175.96103570295963,266.024720622052 176.4701596488012,265.5814107187325 177.05565218650736,263.71950164975715 177.23384556756355,263.2170796735445 177.9975314864423,260.76406563364435 178.0739000783069,260.14342020484037 178.3030058539007,259.0794534908491 178.3793744458817,258.39969491475495 178.3793744458817,257.5721605626459 178.43028684041928,257.18794737398275 178.43028684041928,256.1535246949643 178.3030058539007,255.50331424595788 178.3284620512277,253.6117845660483 178.1502686701715,252.1044629291573 178.27754965657368,251.04046642017784 178.2520934593631,249.76957653247518 178.3030058539007,248.76468287044554 178.2520934593631,248.11445568522322 178.35391824843828,247.67111812348594 178.3030058539007,247.37555936852004 178.35391824843828,244.5086236532079 178.2266372620361,242.58746514035738 178.2011810647091,242.41012678324478 177.69205711886752,241.93722396183875 177.41203894861974,241.75988520294777 177.15747697581537,241.75988520294777 176.4956158461282,241.78944167040754 175.70647372992244,241.64165930289892 172.77901104127523,241.58254633453907 170.36067229835317,241.67121578246588 169.16423102561384,241.64165930289892 167.73868397716433,241.9076675096876 167.25501622853335,241.78944167040754 166.18585594231263,241.8189981348405 165.3458014316857,241.70077225903515 163.53841142368037,241.70077225903515 163.13111226714682,241.58254633453907 162.90200649143662,241.37565084957168 162.74926930770744,241.05052907185745 162.41833874292206,240.66629376879428 162.16377676988486,240.48895422471105 162.08740817802027,240.311614571081 161.8583024024265,238.21308701619273 161.7564776132349,237.7992910394678 161.7055652186973,236.73524150284356 161.7055652186973,236.41011446871562 161.5782842321787,235.9372017616697 161.5528280348517,235.2573883801233 161.42554704844952,234.8140309593291 161.29826606193092,234.54801617821795 161.12007268087473,233.74997035544948 160.84005451074336,232.83369278535247 160.78914211608935,232.2721018610173 160.53458014328498,231.44449218019145 160.3054743675748,230.26218849618454 160.0763685918646,229.46413075609598 159.79635042173322,229.16855325220968 159.56724464602303,229.10943771485472 158.1416975975735,229.10943771485472 157.25073069229256,229.22766877734102 156.30885139247403,229.25722653532284 156.00337702489924,229.31634204214788 155.64699026278686,229.28678429024876 155.59607786836568,229.25722653532284 155.57062167092226,229.13899548500194 155.54516547371168,228.4591660007136" stroke="#4dd2ff" stroke-linecap="round" stroke-linejoin="round" stroke-width="0.5"><title>2023-04-26 6.0km</title></polyline></svg>