<?xml version="1.0" encoding="utf-8" ?>
<svg baseProfile="full" height="300mm" version="1.1" viewBox="0,0,200,300" width="200mm" xmlns="http://www.w3.org/2000/svg" xmlns:ev="http://www.w3.org/2001/xml-events" xmlns:xlink="http://www.w3.org/1999/xlink"><defs /><rect fill="#222222" height="300" width="200" x="0" y="0" /><text fill="#FFFFFF" style="font-size:12px; font-family:Arial; font-weight:bold;" x="10" y="20">Over 4 km Runs</text><text fill="#FFFFFF" style="font-size:4px; font-family:Arial" x="10" y="280">ATHLETE</text><text fill="#FFFFFF" style="font-size:9px; font-family:Arial" x="10" y="290">lizhimiao</text><text fill="#FFFFFF" style="font-size:4px; font-family:Arial" x="120" y="280">STATISTICS</text><text fill="#FFFFFF" style="font-size:3px; font-family:Arial" x="120" y="285">Number: 21</text><text fill="#FFFFFF" style="font-size:3px; font-family:Arial" x="120" y="290">Weekly: 1.8</text><text fill="#FFFFFF" style="font-size:3px; font-family:Arial" x="141" y="285">Total: 129.8 km</text><text fill="#FFFFFF" style="font-size:3px; font-family:Arial" x="141" y="290">Avg: 6.2 km</text><text fill="#FFFFFF" style="font-size:3px; font-family:Arial" x="167" y="285">Min: 4.1 km</text><text fill="#FFFFFF" style="font-size:3px; font-family:Arial" x="167" y="290">Max: 10.9 km</text><polyline fill="none" points="29.540275048930198,38.11011868604692 24.16502946941182,34.846169482392725 20.55795677797869,34.22446363710333 12.636542239692062,51.942925348063 19.709233791567385,57.14960526366485 43.544204322155565,65.38698254415067 47.36345776030794,49.92241522896802 41.77603143407032,45.41510838182876 22.538310412783176,34.22446363710333 21.12377210240811,34.22446363710333 20.34577603172511,35.623301233223174 12.919449901673943,52.64233172457898 22.821218074765056,59.01467789360322 30.742632613051683,60.80203582637478 43.19056974444538,65.77553636283847 47.222003929317,53.80800790723879 47.1512770135887,50.000127233797684 43.402750491164625,46.3476563305594 22.962671905755997,34.37989013566403 21.47740667965263,34.37989013566403 12.0,52.33148450800218 20.69941060896963,58.08214202331146 26.145383104216307,59.17010045214556 25.579567780252546,63.36650019866647 28.833005893975496,65.3092717617983 30.813359528314322,61.96770228387322 26.56974459718913,60.56890236824984 25.367387033533305,63.36650019866647 28.833005893975496,65.3092717617983 30.813359528314322,62.123124373087194 27.20628683688119,60.41348003200255 25.367387033533305,62.74481248355005 26.074656188488007,63.9881875187275 28.762278978247195,65.38698254415067 30.601178782060742,62.82252346951282 30.742632613051683,61.88999122980749 27.13555992115289,60.25805767084239 25.508840864524245,62.82252346951282 28.550098231527954,65.07613937812857 29.328094302210957,65.3092717617983 31.308447937015444,61.42372477648314 43.685658153146505,65.69782561139436 48.0,51.398942265077494 39.01768172858283,43.93857231142465 30.742632613051683,39.04267360054655" stroke="#ffdb00" stroke-linecap="round" stroke-linejoin="round" stroke-width="0.5"><title>2022-03-06 5.1km</title></polyline><polyline fill="none" points="74.8594377511181,37.72834666707786 68.7871485943906,33.59800228790846 67.1967871482484,33.915721692261286 58.88353413622826,51.390133406734094 59.31726907612756,52.89927281520795 66.04016064247116,58.22095675673336 91.12449799198657,65.92543405591277 94.44979919679463,50.35756302502705 89.89558232901618,48.530705121404026 86.64257028093562,44.63869236706523 77.31726907612756,40.11122989130672 70.59437750978395,34.7100197612308 67.12449799198657,34.55116019793786 58.666666666511446,52.422702721785754 69.72690763045102,60.04779695090838 73.84738955833018,60.127224709664006 90.76305220881477,66.24314318533288 91.2690763049759,65.60772482579341 94.44979919679463,50.198705948423594 69.43775100400671,34.15401117922738 67.77510040113702,33.99515152751701 66.40160642564297,35.822035997523926 59.244979919400066,50.51642007625196 59.172690763138235,52.66098779690219 64.37751004006714,57.42667737021111 69.36546184774488,59.73008585255593 75.72690763045102,60.60379112983355 90.97991967853159,66.32257045200095 94.59437750978395,50.59584859240567 89.53413654631004,45.90955534076784 70.44979919632897,35.0277388120885 66.9076305218041,34.8688792992034 59.02811244968325,52.978701141953934 62.353413654491305,56.15582903882023 69.72690763045102,59.49180246255128 73.70281124487519,59.88894141430501 90.4738955819048,66.32257045200095 90.97991967853159,65.6871521428111 94.66666666651145,51.787275577080436 94.16064256988466,50.198705948423594 91.34136546170339,48.68956246285234 88.66666666651145,45.194695116835646 83.67871485929936,43.20896959019592 72.69076305208728,34.78944953344762 69.00401606410742,33.83629185066093 67.5582329314202,34.630589982902166 58.81124497996643,52.74041614262387 65.60642570303753,57.664961252361536 72.90763052226976,60.04779695090838 72.11244979919866,63.5426123678335 75.29317269055173,65.8460067580454 77.10040160641074,62.58948210225208 73.12449799198657,61.556923288910184 72.04016064247116,63.70146732375724 76.01606425689533,66.00486134772655 77.31726907612756,62.351199393800925 73.5582329314202,60.92150195053546 71.96787148574367,64.41631431289716 74.71485943719745,65.76657945360057 75.5100401607342,66.00486134772655 77.46184738958254,62.58948210225208 73.12449799198657,61.159784999792464 71.89558232901618,63.86032225436065 75.22088353382424,65.6871521428111 77.53413654631004,62.90719229175011 73.2690763049759,60.92150195053546 72.40160642564297,64.09860460308846 76.08835341362283,66.0842886333703 77.89558232901618,61.79520618665265 89.75100401602685,66.16371591249481 91.05220883525908,65.76657945360057 94.37751004006714,51.94613240117906 93.58232931699604,49.32499157672282 69.00401606410742,33.99515152751701 67.41365461843088,34.392300609499216 58.955823292955756,53.05812946235528 64.16064257035032,57.823817142343614 72.69076305208728,60.127224709664006 72.25702811265364,64.33688689494738 75.1485943775624,65.76657945360057 77.60642570257187,62.66890965902712 76.95582329295576,62.19234422320733 73.84738955833018,61.08035732305143 72.04016064247116,63.5426123678335 75.87148594390601,65.29001549462555 77.24497991940007,62.98661982320482 75.22088353382424,60.76264655299019 88.08835341362283,65.6871521428111 90.8353413650766,64.81345130834961 93.65461847372353,55.599832385836635 93.94377510016784,50.67527710221475 89.82329317228869,46.14784196857363 69.07630522083491,34.47173040674534 67.41365461843088,34.55116019793786 65.82329317275435,37.33119891077513 58.88353413622826,52.50213108648313 66.25702811218798,58.85637981171021 73.70281124487519,60.127224709664006 90.40160642564297,66.40199771209154 91.5582329314202,64.33688689494738" stroke="red" stroke-linecap="round" stroke-linejoin="round" stroke-width="0.5"><title>2022-03-05 10.9km</title></polyline><polyline fill="none" points="114.44868654932361,32.0 119.077446089359,32.02792995722848 119.8746213435661,67.55316300259437 121.82898648269475,67.86036349507049 122.88331504468806,67.4693810067547 123.42333699087612,65.84959210100351 122.96046103688423,64.20186867369921 122.88331504468806,56.856844604277285 123.01189169858117,55.99107190038194 123.7833516219398,55.51629247821984 129.87788501637988,55.544220695999684 130.08360766270198,56.66134771562065 129.6721623701742,58.36496005865047 130.1350383242825,60.68297762711882 132.21798011718784,64.56492699543014 131.54938151699025,66.4081407841295 130.18646898574661,67.41352633255883 123.86049761425238,67.60901765618473 123.80906695267186,67.05047074877075 123.03760702942964,66.5198504216387 123.52619831415359,65.51446249469882 123.01189169858117,64.22979624933214 122.90903037542012,56.856844604277285 123.03760702942964,56.07485644231201 123.62905963719822,55.544220695999684 129.90360034722835,55.65593354665907 130.10932299343403,57.30369425562094 129.5950163778616,58.89559184195241 132.08940346329473,64.92798496814794 131.49795085540973,66.49192301539006 130.00646167027298,67.6648723014805 125.27484080707654,67.94414540420985 123.14046835235786,67.60901765618473 123.5776289756177,65.48653501403169 123.08903769089375,64.81627485988429 122.96046103688423,56.27035363463801 123.39762166026048,55.62800533711561 124.40051956055686,55.32079489558237 129.31214773922693,55.43250781233655 129.80073902395088,55.823502760671545 130.03217700100504,57.33162234124029 129.69787770102266,58.89559184195241 130.41790696280077,61.297389537183335 131.9865421402501,64.03430317679886 132.14083412510809,65.1514050856349 131.60081217857078,66.46399560701684 130.00646167027298,67.60901765618473 123.06332236004528,67.4693810067547 123.60334430646617,65.43068004664383 123.08903769089375,64.39736165953218 122.90903037542012,57.136125698307296 123.03760702942964,56.102784618822625 123.88621294498444,55.46043603634462 129.80073902395088,55.57214891174226 130.0578923318535,56.99648517710739 129.6721623701742,58.700096008513356 130.18646898574661,60.710905462823575 129.5950163778616,59.09108757416834 129.62073170871008,56.18656913601444 126.35488469980191,55.683861754165264 124.19479691435117,56.01900008309167 123.3204756679479,58.95144777573296 123.52619831415359,65.26311509485822 123.06332236004528,66.3243585343298 123.73192096024286,67.07839811372105 123.4490523217246,67.55316300259437 122.93474570615217,67.49730834082584 123.29476033709943,66.82705175448791 123.62905963719822,67.41352633255883 122.90903037542012,67.4414536706463 123.29476033709943,66.74326959758764 123.7833516219398,67.32974430572358 121.23753387480974,68.0 119.8746213435661,67.74865425401367 119.69461402797606,66.38021336964448 119.79747535125352,48.199028251256095 119.23173807421699,45.741289374564076 119.25745340483263,32.13964976515854" stroke="#ff2400" stroke-linecap="round" stroke-linejoin="round" stroke-width="0.5"><title>2022-02-26 10.0km</title></polyline><polyline fill="none" points="167.22244489006698,37.158410627394915 164.12024048157036,34.30467365507502 160.80160320643336,34.14613247284433 152.0,52.06112662469968 158.9258517040871,57.134340851102024 166.35671342723072,60.463623666844796 165.2024048101157,63.47582235519076 168.66533066146076,65.6160632648971 170.97394789615646,62.207529278995935 167.29458917863667,60.622160666796844 165.3466933867894,63.39655408507679 168.88176352716982,65.45752705872292 171.76753507042304,61.25630841398379 183.95991984009743,65.85386752709746 187.7114228461869,49.8415872878395 178.04408817645162,43.50001911452273 177.9719438883476,42.23170064238366 162.2444889782928,34.2254030671902 160.72945891832933,34.463214812160004 152.28857715474442,52.2989341179491 159.9358717435971,57.84775953262579 166.21242485009134,59.67093828989891 165.27454909868538,63.47582235519076 168.88176352716982,65.77459944592556 170.82965931901708,62.207529278995935 166.93386773578823,60.622160666796844 165.70741483010352,62.762407698319294 165.41883767582476,63.47582235519076 169.24248497001827,65.69533135870006 170.54108216473833,62.207529278995935 167.1503006014973,60.54289216990583 165.49098196439445,63.238017526164185 169.60320641333237,65.77459944592556 170.54108216473833,62.128260908299126 166.78957915864885,60.7014291571104 165.49098196439445,63.39655408507679 169.24248497001827,65.85386752709746 170.7575150304474,62.841676018666476 169.96392785618082,62.366066001704894 167.22244489006698,60.622160666796844 165.3466933867894,63.238017526164185 168.4488977957517,65.45752705872292 170.68537074141204,62.603871038532816 166.5010020043701,60.85996611911105 165.41883767582476,63.31728580885101 168.7374749504961,65.45752705872292 170.97394789615646,62.52460269932635 167.29458917863667,60.85996611911105 165.41883767582476,63.15874923730735 169.38677354715765,65.6160632648971 170.97394789615646,62.52460269932635 170.25250501045957,62.04899253125768 167.22244489006698,60.7014291571104 165.49098196439445,63.39655408507679 169.02605210477486,65.53679516492411 169.53106212476268,64.82338198181242 170.68537074141204,62.603871038532816 167.29458917863667,60.78069764119573 167.7995991986245,59.75020685599884 183.88777555152774,65.69533135870006 184.96993988007307,63.47582235519076 188.0,51.347703804960474 187.42284569190815,49.6830485748942 163.39879759587348,34.2254030671902 161.16232464974746,34.54248538130196 156.83366733510047,42.7073202583706 164.7695390782319,46.51226902345661" stroke="#ffd500" stroke-linecap="round" stroke-linejoin="round" stroke-width="0.5"><title>2022-02-14 5.2km</title></polyline><polyline fill="none" points="24.90836653392762,79.20507334667491 28.780876494012773,80.62340886919992 29.784860557876527,78.25951520429226 22.11155378492549,74.55607046553632 20.74900398403406,75.18644501484232 12.215139442123473,91.18206510489108 12.0,92.67917890340323 18.741035856306553,96.93412156909471 43.912350597791374,105.75912963825976 48.0,90.31531397812068 30.286852589342743,78.33831175061641 21.752988047432154,74.24088304053294 19.88844621507451,75.50163213937776 12.143426294438541,92.12761092494475 15.513944223057479,95.98858033231227 42.54980079643428,105.83792399929371 44.91633466118947,103.15891220711637 47.56972111528739,91.65483812760795 47.067729083355516,89.44856209366117 41.40239043813199,85.03599529917119 32.22310756985098,80.30822337284917 27.99203187180683,76.6047862857813 23.187250996008515,74.0832892904873 20.820717131718993,74.31967990624253 12.286852589342743,92.52158808358945 22.97211155341938,99.45556045952253 29.498007968068123,101.74060891655972 30.07171314721927,103.0013230528566 30.645418326370418,102.37096618494252 26.988047808408737,100.79507226258283 25.123505976051092,103.23770677490393 29.067729083355516,105.75912963825976 31.577689243014902,101.58301953680348 43.62549800751731,105.68033527076477 47.78486055787653,91.10326957929647 41.47410358535126,85.74515914398944 23.976095617748797,74.0832892904873 20.964143426157534,73.84689861844527 20.103585657197982,75.26524180546403 12.286852589342743,92.0488154743216 19.96015936229378,97.87966190424049 23.258964143227786,99.37676559132524 26.270916334353387,98.90399625012651 43.69721115520224,106.15310138155473 47.35458167316392,90.07892717560753 39.60956175299361,84.79960723826662" stroke="#ffbb00" stroke-linecap="round" stroke-linejoin="round" stroke-width="0.5"><title>2022-02-11 5.9km</title></polyline><polyline fill="none" points="72.05866666603833,103.96309121063678 75.58666666643694,105.78261262306478 76.73866666620597,105.07062637933996 77.02666666638106,102.6973352234927 73.78666666615754,100.87780817295425 71.91466666618362,104.04220090637682 75.65866666659713,106.17816031601978 77.53066666610539,102.53911561192945 79.6906666662544,101.90623691445217 90.77866666624323,105.86172217415879 94.52266666665673,89.88146522559691 69.03466666629538,73.82183968398022 66.51466666627675,75.72052812861511 58.666666666511446,92.8876717631938 64.28266666596755,96.68497231014771 72.92266666609794,98.82094750320539 90.20266666635871,105.86172217415879 94.66666666651145,91.46368032431928 88.33066666638479,85.29302721988643 69.25066666631028,73.90095177484909 65.86666666623205,76.90720656764461 58.882666666060686,93.20411402877653 78.32266666647047,102.22267631354043 89.48266666615382,106.01994125760393 90.7066666665487,105.38706477254163 94.09066666662693,93.36233512364561 93.80266666645184,89.64413274393883 89.05066666658968,85.45124957204098 82.06666666641831,82.20768632541876 72.49066666606814,75.56230422988301 69.53866666648537,73.98006385954795 67.45066666649655,74.21740007546032 58.882666666060686,93.28322457935428 72.77866666624323,100.00759840820683 71.69866666616872,104.20042027911404 75.51466666627675,105.94083171914099 77.38666666625068,102.6973352234927 73.71466666599736,101.19424789887853 71.7706666663289,103.88398150849389 75.94666666630656,106.09905079007149 77.09866666607559,102.53911561192945 73.49866666598246,101.03602804854745 71.98666666634381,103.80487180018099 75.15466666640714,105.78261262306478 77.09866666607559,103.01377437124029 73.49866666598246,101.19424789887853 71.69866666616872,103.72576208558166 75.73066666629165,105.94083171914099 78.1786666661501,101.66890729911393 90.34666666621342,105.86172217415879 93.01066666655242,98.97916770545999 94.59466666635126,90.59346233122051 72.70666666608304,75.72052812861511 69.46666666632518,74.53384827513946 66.80266666598618,75.79964006866794 62.41066666599363,84.81836001254851" stroke="#ffa800" stroke-linecap="round" stroke-linejoin="round" stroke-width="0.5"><title>2022-01-18 6.4km</title></polyline><polyline fill="none" points="122.90305444924161,78.18071549304295 116.1620185924694,74.24087925552158 114.01062416983768,74.63486358372029 105.6201859228313,92.28520089021185 108.4887118190527,94.80665200197836 117.81142098270357,99.92832983564585 120.03452855255455,99.53435555670876 137.3173970784992,106.0743083198322 141.33333333348855,91.33965507015819 140.90305444970727,89.6849477160722 136.3134130151011,85.50876925798366 118.74369189934805,75.26523818314308 114.36918990686536,74.16208237106912 105.9070385126397,91.26085954456357 105.69189907051623,92.75797346199397 110.2098273569718,96.30376056628302 117.16600265633315,100.16471432766411 121.54050464788452,100.47989356302423 136.6002656049095,105.83792523626471 141.18990703858435,90.78808625903912 132.5843293494545,83.46007150853984 125.55644090333953,80.15062774153193 116.95086321374401,73.92569168022601 114.65604249667376,74.08328548056306 105.33333333348855,92.75797346199397 113.15006640134379,98.43122674326878 119.24568393081427,100.00712467258563 118.45683930907398,103.5528858571779 121.82735723769292,105.60154209641041 124.12217795476317,102.76494002284016 120.39309428958222,100.87386746611446 119.03054448915645,102.76494002284016 119.173970783595,104.02565305720782 121.89907038537785,105.36515890003648 123.26162018626928,104.57721450575627 123.7636122177355,102.29217222164152 119.67596281552687,101.03145698370645 118.38512616232038,103.78926948533626 119.03054448915645,104.34083106543403 121.97078353259712,105.68033648259006 123.90703851310536,102.92252923978958 120.4648074368015,101.03145698370645 120.32138114189729,99.69194528716616 137.38911022618413,105.52274770394433 141.11819389136508,90.78808625903912 137.17397078406066,86.06034100579564 118.74369189934805,75.58042533270782" stroke="#ffdb00" stroke-linecap="round" stroke-linejoin="round" stroke-width="0.5"><title>2022-01-15 5.1km</title></polyline><polyline fill="none" points="169.71653543272987,78.32030865480192 161.49606299214065,74.42700560681988 152.14173228340223,92.80326018849155 155.25984251964837,95.13920006662374 164.25984251964837,99.18814933125395 183.6062992126681,105.18367809290066 187.64566929126158,91.4016935887048 182.61417322792113,85.40608050493756 177.37007873971015,83.38157949061133 163.6220472441055,74.42700560681988 161.0708661414683,74.3491393882432 152.28346456727013,93.11471916071605 164.0472440943122,98.79882801353233 183.25196850392967,105.41726938012289 184.9527559056878,102.76989819738083 187.5748031497933,91.16809896053746 182.25984251964837,85.63967650668928 166.95275590522215,76.52939117403002 160.85826771659777,74.50487181940116 152.14173228340223,92.41393633408006 166.10236220480874,99.65533470851369 164.89763779519126,103.31494579021819 166.24409448774531,104.24931238690624 169.14960629912093,105.41726938012289 170.77952755894512,102.4584422937478 167.30708661396056,100.66756892821286 165.53543307073414,103.93785695364932 169.22047244105488,105.26154186128406 170.21259842533618,103.85999307985185 170.70866141701117,102.38057830248727 167.30708661396056,100.90116129175294 165.67716535413638,102.22485030122334 165.6062992126681,104.17144853784703 169.22047244105488,105.49513313011266 170.70866141701117,102.69203423068393 166.88188976375386,100.58970479445998 165.25196850392967,103.2370818668278 168.29921259824187,105.26154186128406 169.50393700785935,104.95008674985729 170.496062991675,102.06912227539578 166.74015748035163,100.82329717668472 165.4645669288002,102.92562611197354 165.1811023624614,103.70426531368867 168.582677165512,105.6508606117568 171.27559055108577,101.6019380489015 183.88976377947256,105.49513313011266 188.0,91.16809896053746 187.5748031497933,89.68866502249148 179.77952755894512,84.16023422195576 161.85039370087907,74.3491393882432 156.74803149560466,82.52505857148208 152.0,92.64753066527192 152.49606299214065,93.50404273648746 182.33070866111666,105.26154186128406 184.66929133841768,103.54853752296185 186.65354330698028,97.00794795976253 187.36220472445711,89.92226000333903 179.4251968502067,83.69304145727074 162.70078740175813,74.3491393882432 161.21259842487052,74.58273802592885 152.14173228340223,92.88112494081724 165.81889763800427,99.34387781500118 164.9685039371252,103.70426531368867 169.14960629912093,104.79435915692011 170.63779527554289,102.14698629139457 167.09448818862438,100.74543305550469 165.1811023624614,103.2370818668278 169.14960629912093,105.02795053704176 170.77952755894512,102.22485030122334 168.29921259824187,100.82329717668472 169.4330708659254,99.96679150272394 183.88976377947256,105.41726938012289 187.43307086639106,90.46731474203989 179.77952755894512,84.00450332520995 163.69291338557377,74.58273802592885 161.4251968502067,74.50487181940116 157.9527559056878,79.72189396509202 152.42519685067236,92.02461232506903 152.77952755894512,93.19258388812887 159.58267716504633,95.76211642695125 163.4094488187693,98.48737084801542 183.4645669288002,105.6508606117568 187.5748031497933,91.24596384295728 181.834645668976,85.25034980627242 168.15748031483963,77.4637833115994" stroke="red" stroke-linecap="round" stroke-linejoin="round" stroke-width="0.5"><title>2022-01-14 10.0km</title></polyline><polyline fill="none" points="30.32335329335183,117.9597399495542 21.34131736541167,114.1699480759562 12.646706586703658,131.0659920728067 12.431137724779546,133.27666816249257 37.005988023709506,143.30360153788934 44.69461077824235,145.27739540144103 47.78443113807589,129.72379347588867 21.84431137703359,114.1699480759562 20.479041916318238,114.88053515326465 12.0,132.64504692453193 24.431137724779546,139.19809774303576 43.976047904230654,145.98796023253817 44.62275449093431,145.35634707455756 48.0,131.8555198124377 47.64071856252849,129.56588763929904 22.1317365267314,114.01203976752004 18.682634730823338,118.19660146156093 12.071856287773699,132.4081888567307 25.940119760576636,139.35600204893854 26.65868263458833,140.6192355917301 25.293413173407316,143.61940881959163 28.958083832170814,145.67215370375197 30.467065868433565,142.19827526190784 26.874251496978104,141.0139957444626 25.365269461181015,143.69836062425748 26.65868263458833,144.48787832655944 26.011976047884673,144.88263694249326 28.886227544862777,145.67215370375197 30.754491018131375,142.98779415606987 27.449101796373725,141.0139957444626 25.652694610878825,144.01416778058046 29.245508981868625,145.83005698065972 30.826347305439413,143.14569785952335 26.94610778428614,140.69818763475632 25.365269461181015,143.54045700863935 28.742514970246702,145.5142504016403 31.688622754532844,141.80351557955146 44.62275449093431,145.5142504016403 47.42514970060438,134.69781448016874 47.49700598791242,130.0396050735144 40.670658682473004,125.61823357117828 39.449101796373725,123.4075404421892 31.688622754532844,119.30195443815319" stroke="#ffdc00" stroke-linecap="round" stroke-linejoin="round" stroke-width="0.5"><title>2022-01-09 5.1km</title></polyline><polyline fill="none" points="76.81124497996643,118.56235911033582 67.48594377515838,114.03487145004328 58.73895582277328,133.2566953151254 71.10040160641074,139.76979146071244 76.59437751024961,140.72292392270174 90.90763052226976,145.9651362184668 94.66666666651145,130.31784535513725 69.79919678717852,114.19373101333622 66.97991967853159,114.51145006419392 58.666666666511446,132.70069733675336 67.2690763049759,138.4989467645646 73.34136546170339,139.45208043814637 89.67871485929936,146.20341794227716 90.97991967899725,145.64742716483306 93.5100401607342,137.22810045274673 94.16064257081598,129.5235600991291 68.7871485943906,113.79658205772284 67.2690763049759,113.79658205772284 66.40160642564297,115.14688786293846 58.666666666511446,132.54184071463533 67.05220883525908,138.02237958693877 72.40160642564297,139.9286469342187 72.11244979966432,144.21773517428664 75.79919678717852,146.12399070733227 76.95582329295576,142.39090354408836 73.34136546170339,140.64349625213072 71.60642570303753,143.5028884120984 75.5100401607342,146.12399070733227 77.10040160641074,142.62918612000067 73.6305220881477,140.88177924446063 71.89558232948184,143.1851785761537 71.67871485976502,143.9000255652354 75.79919678717852,145.885708964488 77.10040160641074,142.232048461854 73.48594377515838,140.8023515866953 71.67871485976502,143.5028884120984 75.1485943775624,145.64742716483306 77.38955823285505,142.54975860082777 73.12449799198657,140.8023515866953 71.67871485976502,143.5823158554267 75.87148594344035,145.885708964488 77.24497991986573,142.94689613266382 74.57028112420812,141.2789174389909 75.1485943775624,140.8023515866953 89.75100401602685,145.885708964488 91.19678714871407,145.56799988570856 94.23293172707781,130.0001313284738 89.10040160641074,125.0755510010058 87.2208835342899,125.23440880968701 75.36546184774488,117.29148745164275" stroke="#ffcd00" stroke-linecap="round" stroke-linejoin="round" stroke-width="0.5"><title>2022-01-08 5.5km</title></polyline><polyline fill="none" points="137.3926263777539,142.47093222365947 141.33333333325572,135.25459225242957 140.6765488407109,133.72110819024965 136.53059673123062,132.27782528853277 127.74610414309427,127.72243956004968 126.96617255778983,128.17346948076738 126.26833903463557,132.54844111209968 123.5591030025389,131.7365932544344 124.8726719878614,131.28556616499554 125.61155454209074,126.91058479994535 123.10756366397254,124.56522008113097 111.16229570494033,117.61927540914621 109.9308247815352,117.79969063185854 105.41543139470741,128.17346948076738 110.79285442782566,132.1876199854305 113.50209045992233,132.36803057749057 123.10756366397254,135.70561618823558 122.86126947915182,136.15663976565702 119.45419992390089,134.5329532098258 118.22272900049575,137.6450150287128 118.59217027761042,138.36665011523291 120.68567084753886,139.44910102477297 122.77917141770013,137.6901172483922 124.29798555676825,133.81131324969465 125.81679969583638,127.13610012759455 123.18966172565706,124.20439387951046 119.74154313956387,122.89639697625535 110.3413150892593,117.5741715945187 105.33333333325572,127.99305755546084 109.02774610416964,131.42087432951666 112.35271759773605,132.68374897557078 118.18167996965349,133.540698028286 121.91714177117683,135.43500186974416 123.68225009506568,135.66051381081343 125.93994678836316,127.63223353301873 125.61155454209074,126.82037864380982 123.5591030025389,125.64769730943954 123.64120106422342,125.01625251042424 121.71189661719836,124.56522008113097 111.03914861264639,117.5741715945187 110.25921702780761,117.7545868314919 109.60243253502995,118.97238818067126 105.49752945662476,128.44408726098482 109.84872671985067,131.87190131132957 123.5591030025389,135.52520665695192 125.20106423413381,129.97758557915222 124.91372101870365,127.85774857387878 121.42455340176821,123.52784413349582 113.2557962751016,118.65666215587407 110.83390345866792,117.52906777639873 110.13606993528083,117.98010579700349 105.53857848723419,128.5342931592022 111.98327632062137,132.41313321655616 116.29342455347069,133.0896723723272 123.47700494108722,135.66051381081343 124.09274040302262,133.0896723723272 125.98099581897259,132.90926200972172 126.26833903463557,132.36803057749057 126.96617255778983,128.7147049123305 129.5112124667503,128.7147049123305" stroke="#ff8d00" stroke-linecap="round" stroke-linejoin="round" stroke-width="0.5"><title>2022-01-07 7.2km</title></polyline><polyline fill="none" points="162.8062739915913,112.0 164.4331236894941,112.2760868309415 164.53480179572944,123.89915712852962 165.04319232632406,129.53110851871315 165.14487043244299,143.9694977295003 164.86525564058684,145.3498116247647 165.1702899589436,147.47548504374572 167.07675444870256,148.0 168.1443745632423,147.1718181533215 168.75444319983944,145.15656798661803 168.24605266924482,144.54923018696718 168.1443745632423,143.1413069429691 168.1443745632423,136.32246630481677 169.18657515081577,135.549472462415 175.28726151853334,135.6322933078045 174.8551295674406,138.7794718183868 175.61771536339074,141.54013288006536 177.14288695529103,143.8866787335137 177.1937260084087,144.7700804102351 176.6344964246964,146.37124062213115 174.9313881470589,147.66872748179594 169.13573609781452,147.64112142528757 168.93237988569308,146.70251429147902 168.37315030186437,146.67490816360805 168.16979408974294,147.19942424452165 168.65276509383693,147.3650607484742 169.034057991812,146.97857545810984 168.44940888148267,146.53687749351957 168.398569828365,147.2270303335681 168.9577994121937,146.8129387826193 168.44940888148267,146.64730203372892 168.4748284079833,147.3650607484742 169.034057991812,147.1442120601132 168.5510869876016,146.64730203372892 167.48346687329467,147.69633353617974 165.60242191003636,147.77915168719483 164.9923532732064,147.3374546696141 165.01777279982343,128.23355862384778 164.5856408487307,124.78260610302095 164.45854321599472,112.30369550283649 164.40770416299347,126.2734215062228 164.78899706096854,127.37772537360433 164.53480179572944,116.77627337924787" stroke="#ffb600" stroke-linecap="round" stroke-linejoin="round" stroke-width="0.5"><title>2022-01-01 6.1km</title></polyline><polyline fill="none" points="43.78899082564749,182.1115104992059 44.61467889905907,182.3383128644782 46.01834862376563,180.43317019677488 47.75229357788339,176.71358761878219 48.0,174.49089865735732 34.91284403647296,167.45988679717993 34.045871559297666,168.0495878929505 33.09633027506061,172.40428481868003 31.40366972470656,172.4496460701921 32.311926605179906,166.64337658212753 18.52293577976525,157.97922402067343 16.706422018352896,157.97922402067343 12.165137614356354,167.23307852132712 12.123853210825473,168.5485652673524 18.688073394354433,172.40428481868003 20.133027522824705,172.54036856227322 19.6788990823552,175.08059249055805 21.866972476942465,175.98781258281088 22.651376146590337,174.26409317471553 20.463302752003074,172.76717472978635 19.96788990800269,174.71770404983545 21.949541284237057,175.80636867973953 22.568807339295745,174.26409317471553 20.3394495411776,172.90325838705758 19.96788990800269,174.98987040197244 21.74311926588416,175.76100769487675 22.651376146590337,174.12800984201021 20.71100917411968,172.9939808070194 19.720183486118913,174.49089865735732 21.619266054825857,175.7156467065215 22.114678899059072,175.7156467065215 22.77522935764864,173.94656534772366 20.29816513741389,172.85789717145963 19.6788990823552,174.62698190368246 21.784403669647872,175.80636867973953 22.44495412823744,173.76512079586973 20.504587155766785,172.81253595242742 19.96788990800269,173.5383150249836 19.802752293646336,174.53625974309398 21.74311926588416,175.7156467065215 22.651376146590337,173.85584307904355 20.29816513741389,173.3115091639338 19.761467889882624,174.62698190368246 21.33027522917837,175.6702857144992 22.155963302589953,175.48884171049576 23.43577981647104,173.35687034326838 30.206422018120065,175.80636867973953 32.68348623835482,167.95886468706885 32.18807339435443,166.7340999969747 22.03211009176448,159.83907937229378 20.256880733650178,159.38545667455764 17.779816513648257,157.6616871355218 16.83027522917837,157.79777439363534 12.0,168.00422629184322 19.348623852944,171.90531081421068 29.876146788941696,175.80636867973953 30.619266054825857,175.44348070042906 32.51834862376563,167.95886468706885 32.311926605179906,166.59801486920333 17.821100917411968,157.79777439363534 16.995412843767554,157.75241197785363 12.123853210825473,167.64133335306542 12.288990825647488,168.45784214086598 13.692660550121218,169.4557957398938 19.059633027296513,172.31356230488745 22.36238532094285,172.81253595242742 30.33027522917837,176.12389547238126 31.36238532094285,172.40428481868003 31.651376146590337,171.90531081421068 32.10550458705984,174.12800984201021 33.963302752003074,168.45784214086598 34.706422018352896,167.95886468706885 47.25688073365018,173.76512079586973" stroke="#ff9100" stroke-linecap="round" stroke-linejoin="round" stroke-width="0.5"><title>2021-12-24 7.1km</title></polyline><polyline fill="none" points="92.86050931201316,180.5991955579375 94.66666666674428,176.90080986294197 93.92778411251493,175.36732580076205 91.01330292667262,174.32996658608317 86.5389585706871,170.99236320744967 81.12048650719225,169.54906918189954 79.72481946018524,171.89442010986386 79.64272139873356,175.05160797963617 77.91866210568696,174.19465872261208 79.39642721391283,175.90855594276218 79.6016723678913,174.1495560943731 78.57544659823179,173.15729736495996 79.31432915246114,169.68437815271318 78.57544659823179,167.6096370560117 77.34397567459382,166.21143769164337 73.28012162679806,164.90344161982648 65.60395286954008,159.71653096860973 63.428354237927124,159.4008044420043 58.66666666674428,170.1805107697146 63.1820600531064,173.06709194002906 69.09312048647553,175.32222326571355 66.99961991631426,174.46527441730723 66.26073736208491,175.6379409363144 66.34283542376943,176.49488801433472 68.10794374765828,177.39693617261946 69.298365640454,175.50263338466175 67.24591410113499,174.5554796202341 66.50703154690564,175.0967105361633 66.38388445484452,176.4497855688096 68.31318890163675,177.48714090959402 69.21626757876948,175.45753086020704 66.83542379317805,174.46527441730723 66.1375902700238,176.13406834966736 68.14899277826771,177.39693617261946 69.298365640454,175.59283842262812 66.91752185486257,174.82609514263459 66.5480805777479,176.35958066693274 68.06689471681602,177.26162904023658 69.17521854816005,175.59283842262812 67.16381603945047,174.46527441730723 66.30178639292717,175.6379409363144 66.30178639292717,176.4497855688096 68.23109083995223,177.44203854294028 69.33941467129625,175.6830434463336 66.99961991631426,174.5554796202341 66.09654123918153,176.13406834966736 67.49220828572288,177.17142426746432 68.31318890163675,177.48714090959402 69.25731660961173,175.90855594276218 67.12276700860821,174.46527441730723 66.17863930063322,175.99876091629267 67.90269859367982,177.21652665559668 68.64158114767633,177.12632187572308 69.38046370213851,175.50263338466175 67.16381603945047,174.82609514263459 66.42493348522112,176.63019532948965 68.06689471681602,177.35183379874798 69.17521854816005,175.95365843136096 66.87647282402031,174.78099256451242 66.17863930063322,175.95365843136096 67.94374762428924,177.26162904023658 68.39528696308844,177.44203854294028 69.25731660961173,175.8183509549708 66.87647282402031,174.5103770205169 66.46598251629621,176.35958066693274 68.02584568597376,177.21652665559668 69.21626757876948,175.77324845572002 66.99961991631426,174.37506920006126 66.17863930063322,176.35958066693274 67.8206005319953,177.21652665559668 68.60053211729974,176.94591227266937 69.38046370213851,175.32222326571355 66.87647282402031,174.78099256451242 66.26073736208491,176.35958066693274 67.90269859367982,177.30673142132582 69.33941467129625,175.59283842262812 66.87647282402031,174.73588998283958 66.34283542376943,175.45753086020704 66.05549220810644,176.31447821069742 67.98479665536433,177.48714090959402 69.298365640454,175.6830434463336 66.99961991631426,174.28486396861263 66.05549220810644,176.4497855688096 68.27213987079449,177.44203854294028 69.38046370213851,175.54773590539116 66.67122767004184,174.69078739749966 65.97339414665475,176.4046831196756 67.94374762428924,177.35183379874798 68.60053211729974,177.03611708129756 69.01102242479101,175.36732580076205 67.20486507029273,174.64568480860908 66.1375902700238,175.99876091629267 68.10794374765828,177.5322432727553 69.91410110215656,175.05160797963617 76.97453439747915,177.35183379874798 77.54922082857229,174.73588998283958 79.47852527559735,173.60832427523565 80.42265298357233,170.13540782243945 81.16153553780168,169.68437815271318 83.66552641591989,170.22561371332267 85.43063473957591,171.6238031896646" stroke="#ffb900" stroke-linecap="round" stroke-linejoin="round" stroke-width="0.5"><title>2021-12-19 6.0km</title></polyline><polyline fill="none" points="136.43173150299117,182.26482406491414 137.33790999255143,182.49110732373083 138.7383676583413,180.99763615475968 141.33333333325572,175.83834198850673 141.2921434021555,174.07330957206432 127.69946605665609,167.6919928950956 126.71090770419687,169.68333343282575 126.42257818463258,173.25867738126544 124.85736079351045,172.21775677549886 125.9282990086358,166.78683580365032 123.33333333348855,165.02177533798385 123.04500381392427,164.20713020121912 120.40884820767678,163.43774205766385 115.54843630827963,159.77181957039284 110.64683447754942,157.50889267621096 105.33333333325572,168.23508645949187 110.60564454621635,171.6294095045887 113.65369946626015,172.03672691062093 112.95347063313238,174.0280522587127 114.39511823048815,175.6120560869458 116.04271548450924,173.75650830299128 113.57131960336119,172.80610343866283 112.99466056469828,174.39011066488456 114.88939740671776,175.70257045840845 116.04271548450924,173.71125096437754 113.57131960336119,172.80610343866283 113.24180015269667,175.11422678706003 114.8482074753847,175.38577009551227 116.04271548450924,173.93753762118286 113.77726926002651,172.2630142326234 113.48893974092789,174.66165431862464 115.21891685738228,175.2952556737 115.87795575894415,173.75650830299128 113.9420289855916,172.62507376080612 112.99466056469828,174.25433878955664 113.65369946626015,174.84268334909575 115.30129672004841,175.24999845743878 116.08390541584231,173.1681626215577 113.85964912292548,172.8513608490466 113.3241800153628,173.57547892734874 113.07704042713158,174.34485337673686 115.17772692604922,175.2952556737 115.83676582761109,173.71125096437754 113.90083905425854,172.62507376080612 112.87109077046625,174.70691158162663 115.17772692604922,175.88359915808542 115.79557589627802,173.5302215743577 113.85964912292548,172.62507376080612 112.91228070203215,174.25433878955664 112.82990083913319,174.75216884101974 114.80701754405163,175.65731327445246 116.16628527850844,173.8470229692175 115.79557589627802,173.57547892734874 113.9420289855916,172.71558860689402 112.99466056469828,174.16382418794092 115.09534706338309,175.70257045840845 116.08390541584231,173.66599362232955 113.65369946626015,172.76084602455376 112.87109077046625,174.39011066488456 114.72463768115267,175.5667988958885 115.83676582761109,174.34485337673686 115.67200610227883,173.5302215743577 114.14797864225693,172.76084602455376 112.95347063313238,174.16382418794092 114.80701754405163,175.5215417011059 116.12509534717537,173.71125096437754 113.98321891692467,172.71558860689402 113.03585049579851,174.20908149064053" stroke="#fff600" stroke-linecap="round" stroke-linejoin="round" stroke-width="0.5"><title>2021-12-18 4.4km</title></polyline><polyline fill="none" points="184.0273037541192,182.1725499118911 187.83617747435346,175.82762472506147 185.7883959042374,173.4876343747601 178.1296928327065,169.21262703824323 174.9351535832975,168.13262007880257 173.9112627983559,168.89762522111414 172.8873720136471,172.94763522868743 171.7815699656494,172.58763551188167 170.10238907835446,173.80263363884296 171.37201365176588,171.0126340604038 171.90443685976788,166.37760437699035 169.73378839576617,164.62258323648712 166.25255972682498,163.13756110036047 163.5085324230604,160.79751831607427 157.89761092117988,158.05245580227347 157.03754266211763,157.96245352725964 156.0546075082384,159.447489234386 152.24573378823698,168.4026220117812 163.46757679153234,173.39763455290813 170.88054607482627,175.73762527492363 171.57679180870764,174.0276330060442 171.37201365176588,172.0926355276606 172.3959044367075,166.51260577794164 157.69283276423812,157.87245123810135 156.87372013623826,158.09745693427976 155.35836177458987,160.79751831607427 152.20477815670893,168.35762169858208 159.4948805461172,171.8226353538921 170.10238907835446,175.91762416082202 170.88054607482627,175.73762527492363 171.98634812282398,165.9275994747877 168.3822525597643,164.3525795013993 162.73037542658858,160.437510875694 159.7815699656494,159.447489234386 159.0443686004728,158.32246254116762 156.95563139906153,157.82745008805068 152.0,168.17762040987145 160.06825938564725,172.0926355276606 159.6587030715309,174.38763180741807 161.87030716706067,175.37762733158888 162.52559726964682,173.7126338670496 160.47781569953077,172.81263536168262 159.57679180870764,174.29763212858234 160.273037542589,174.83762998745078 161.95221843011677,175.15262850077124 162.85324232070707,173.082635063387 170.3890784981195,175.55762633186532 171.16723549482413,172.94763522868743 173.2559726962354,171.91263542615343 173.6245733788237,168.08761974412482 174.9351535832975,167.72761693800567 185.82935153576545,172.94763522868743 187.67235494870692,172.99263517715735 188.0,173.80263363884296 187.01706484612077,177.1326151441317" stroke="#ffb500" stroke-linecap="round" stroke-linejoin="round" stroke-width="0.5"><title>2021-12-15 6.1km</title></polyline><polyline fill="none" points="45.46651532338001,221.4265725017176 47.877412031637505,216.35316433315165 47.59137343917973,215.096029603621 45.139614074723795,214.198074513115 44.28149829735048,213.07562864321517 34.637911464087665,208.90011043293634 33.616345062386245,209.70827765582362 32.79909194074571,213.07562864321517 31.573212258517742,212.9409349891357 32.59477866045199,208.22663686412852 32.22701475583017,207.4184675219003 18.374574347166345,198.66322555486113 16.78093076008372,198.79792261269176 12.163450624095276,208.54092462942936 12.0,209.43888871005038 17.5164585695602,213.16542439494515 21.80703745712526,213.56950510072056 29.856980703538284,216.71234517078847 30.592508512781933,216.35316433315165 32.10442678746767,210.33685136359418 32.22701475583017,207.5082641725894 29.611804767046124,204.9490540365805 17.47559591359459,198.5734274983406 12.204313280060887,209.21439782361267 16.74006810435094,212.53685383382253 30.674233824945986,216.80214034451637 30.878547105239704,214.1082789255306 31.940976163139567,214.91643869969994 33.69807037431747,211.1450165316346 33.69807037431747,209.43888871005038 34.80136208841577,208.98990684811724 37.08967082831077,209.66337950713933 45.54824063554406,214.33276786765782 47.55051078298129,214.73684773861896 48.0,215.94908561796183" stroke="#fffd00" stroke-linecap="round" stroke-linejoin="round" stroke-width="0.5"><title>2021-12-13 4.2km</title></polyline><polyline fill="none" points="91.81831501843408,221.4318978912779 94.66666666674428,215.91163926769514 94.46886446885765,214.60763303458225 82.16556776547804,208.56569692178164 81.29523809533566,208.869968681538 80.70183150167577,210.56519395837677 78.64468864467926,219.73670628733817 81.33479853486642,208.56569692178164 66.89523809519596,199.13318842672743 64.64029304008,199.13318842672743 60.961172161158174,206.60966014044243 60.24908424913883,209.43504435755312 64.48205128195696,212.1734797495301 68.55677655665204,212.8254861557216 76.11282051284797,216.21590694153565 77.69523809524253,216.2593737382267 79.67326007317752,208.6960991252563 79.43589743599296,207.43554319019313 74.76776556787081,203.74079354217974 69.11062271054834,200.95884792634752 66.42051282059401,198.5681021087221 64.67985347984359,199.17665658090846 61.000732600688934,206.3053871235752 60.13040293054655,208.95690343886963 61.83150183153339,210.30439041150385 59.89304029312916,209.39157701851218 58.66666666674428,211.78227553277975 60.13040293054655,213.39055774587905 72.11721611744724,219.30204092737404 75.7567765568383,220.60603597117006 76.86446886439808,219.9540388378373 79.11941391928121,211.99961124331458 79.63369963387959,207.60941314703086 75.67765567777678,204.4362777355127 73.93699633679353,203.91466467347345 65.82710622693412,198.87237942949287 64.56117216101848,199.08972026919946 63.730402930406854,200.52416764578084 59.93260073265992,209.5654463536339 63.967765567824244,211.73880838032346 65.23369963373989,211.521472566179 66.97435897425748,212.86895322188502 69.58534798538312,213.34709072115947 74.25347985350527,215.56390457609086" stroke="#ffc800" stroke-linecap="round" stroke-linejoin="round" stroke-width="0.5"><title>2021-12-12 5.6km</title></polyline><polyline fill="none" points="137.44696969701909,219.04595021146815 141.07765151537023,211.62946661538444 140.92424242431298,209.4944038882968 136.6287878791336,206.62891483365092 130.39015151537023,205.44900420081103 128.8049242424313,205.84230796381598 126.04356060619466,202.80824469786603 124.10037878807634,202.02163357794052 123.28219696972519,202.86443117301678 120.00946969701909,215.73101639916422 120.11174242454581,218.42791288264561 118.73106060619466,218.98976502218284 119.75378787890077,219.04595021146815 120.26515151537023,217.86606029671384 120.72537878807634,211.9665811934392 123.94696969701909,202.41493924724637 127.27083333348855,202.86443117301678 137.5492424245458,208.1459398972802 141.33333333325572,208.3144980367506 122.41287878807634,199.54942150402348 119.14015151537023,212.35988133162027 115.30492424266413,210.33719257696066 110.19128787890077,209.04491617699387 108.81060606078245,209.4944038882968 106.81628787890077,208.3144980367506 105.84469696995802,208.65161419525975 105.6401515151374,210.89905114477733 108.5549242424313,212.02276694087777 109.32196969725192,209.3258460300276 106.30492424266413,208.3144980367506 105.69128787890077,210.50575019419193 108.09469696972519,211.79802392458078 109.42424242431298,209.83151948434534 106.76515151537023,208.08975384186488 105.74242424266413,209.04491617699387 105.79356060619466,210.8428653080482 108.24810606078245,211.74183815921424 109.57765151537023,209.4944038882968 106.10037878807634,208.48305613611592 105.69128787890077,210.7304936212604 108.24810606078245,211.79802392458078 109.52651515160687,209.4944038882968 107.12310606078245,208.42687010747613 106.25378787890077,209.04491617699387 105.79356060619466,210.00007722206647 108.04356060642749,211.68565238954034 109.11742424266413,211.34853767743334 109.62878787890077,209.77533356280765 106.71401515160687,208.3144980367506 105.74242424266413,208.76398621231783 105.33333333325572,210.39337845379487 108.35037878830917,211.79802392458078 109.52651515160687,209.88770540134283 108.70833333348855,209.26966006838484 110.19128787890077,208.98873019305756 118.37310606078245,212.02276694087777 120.11174242454581,207.4155208283919 122.31060606078245,208.53924216027372 123.84469696995802,202.07782011543168 126.04356060619466,202.3025662212749 141.17992424266413,209.71914763690438 140.1060606064275,213.9330796963768 136.7821969697252,220.45057849597652" stroke="#ffde00" stroke-linecap="round" stroke-linejoin="round" stroke-width="0.5"><title>2021-12-11 5.0km</title></polyline><polyline fill="none" points="162.96996452391613,192.05542991033872 164.01617670012638,192.0 164.29686777165625,195.15949179939344 164.1692809208762,203.16896127499058 164.62859358359128,209.23830681751133 164.7816978044575,227.7505892633926 166.69550056569278,228.0 167.40998692985158,227.72287694911938 168.53275121643674,225.53359764436027 167.97136907302774,223.12260437433724 167.92033433285542,216.22208964364836 168.76240754779428,215.55697307692026 174.63140268204734,215.52925986101036 175.1927848253399,220.65616992401192 177.03003547608387,224.64679732520017 176.31554911180865,226.53124549565837 174.42726372077595,227.47346602808102 173.07484310294967,227.72287694911938 167.7417127417866,227.27947964149644 167.35895218956284,227.63973999390146 165.4196320582414,227.80601388591458 164.75618043437134,227.5011783608643 164.90928465523757,211.70481641148217 164.32238514185883,205.9680780545459 164.37341988214757,194.24490480817622 164.11824618058745,192.74830309732351 164.14376355079003,194.9932034216472 164.22031566128135,192.13857476046542 163.09755137457978,192.0831448623794" stroke="#ffe000" stroke-linecap="round" stroke-linejoin="round" stroke-width="0.5"><title>2021-12-05 4.9km</title></polyline><polyline fill="none" points="28.387229121639393,232.08544702254585 30.799829459981993,232.11392935921322 31.245636044302955,268.0 31.612770878360607,266.3766547268897 31.455427378066815,248.29155611034366 31.08829254389275,246.95294025263865 30.904725126805715,232.0 30.85227729345206,246.6396465076541 31.245636044302955,247.8643387889897 30.82605337665882,232.91143392943195" stroke="#ffff00" stroke-linecap="round" stroke-linejoin="round" stroke-width="0.5"><title>2021-12-04 4.1km</title></polyline></svg>