<svg height="16" viewBox="0 0 60 60" width="16" xmlns="http://www.w3.org/2000/svg">
    <g id="Page-1" fill="none" fill-rule="evenodd">
        <g id="037---Waypoint-Flag" fill-rule="nonzero" transform="translate(0 -1)">
            <g id="Icons_copy" transform="translate(0 1)">
                <path id="Shape"
                    d="m58.44 30.6c-11.88 14.2-32.78-3.93-44.27 11.64l-.66-2.34v-.01c-2.29-8.19-4.58-16.3833333-6.87-24.58-.22-.78-.43-1.56-.65-2.34 11.49-15.57 32.4 2.56 44.27-11.64.58-.7 1.13-.4 1.01.62-.06.48-.13.96-.19 1.43-.69 5-1.53 9.44-2.49 13.46-.27 1.13-.54 2.22-.83 3.29-.0181734.0757458-.0315335.1525661-.04.23-.0106736.2802805.1027422.5510151.31.74 2.9783401 2.7019905 6.2761919 5.0292932 9.82 6.93.28.14.55.27.82.39.46.2.35 1.48-.23 2.18z"
                    fill="#e64c3c" />
                <path id="Shape"
                    d="m58.44 30.6c-.6501399.7802412-1.3697588 1.4998601-2.15 2.15-10.83 8.99-27.3-2.22-38.4 5.76h-.01c-1.4199733 1.046483-2.6711663 2.304421-3.71 3.73-.22-.78-1.95-.87-2.17-1.65v-.01c-.02-.07-.04-.13-.06-.2-2.27-8.12-4.54-16.2466667-6.81-24.38-.22-.78 1.08-2.25.86-3.03 5.09-6.89 12.02-7.18 19.19-6.6 7.87.65 16.04 2.35 22.38-2.46.9983609-.75079008 1.9046285-1.61677914 2.7-2.58.58-.7 1.13-.4 1.01.62-.06.48-.13.96-.19 1.43-.69 5-1.53 9.44-2.49 13.46-.27 1.13-.54 2.22-.83 3.29-.0181734.0757458-.0315335.1525661-.04.23-.0106736.2802805.1027422.5510151.31.74 2.9783401 2.7019905 6.2761919 5.0292932 9.82 6.93.28.14.55.27.82.39.46.2.35 1.48-.23 2.18z"
                    fill="#cad9fc" />
                <g fill="#e8edfc">
                    <path id="Shape"
                        d="m56.41 32.61c-.04.05-.08.09-.12.14-10.83 8.99-27.3-2.22-38.4 5.76h-.01c-2.07.32-2 3.52-3.88 4.49-2.27-8.12-6.6-18.87-8.87-27-.22-.78 1.08-2.25.86-3.03 5.09-6.89 12.02-7.18 19.19-6.6 7.87.65 17.48 1.44 23.82-3.37-.71 4.7-2.07 9.87-3 13.78-.31 1.3-.62 2.56-.96 3.79-.0182073.0858464-.0315618.1726507-.04.26-.0165937.3214646.1118607.6334254.35.85 3.99 3.47 6.87 6.23 10.38 7.98.32.16.63.31.94.44.53.23.4 1.71-.26 2.51z" />
                    <path id="Shape"
                        d="m9.45150963 10.0111708h.1433c.64015307 0 1.25408707.2542998 1.70674367.7069563.4526565.4526566.7069563 1.0665906.7069563 1.7067437v45.3626c0 1.0664618-.8645381 1.931-1.931 1.931h-1.10879997c-1.06646186 0-1.931-.8645382-1.931-1.931v-45.3626c0-1.3330497 1.0806503-2.4137 2.4137-2.4137z"
                        transform="matrix(.963 -.269 .269 .963 -9.032 3.849)" />
                </g>
            </g>
            <g id="Icons" fill="#fff" transform="translate(1 11)">
                <path id="Shape"
                    d="m14.678 48.9507 1.0678-.2984c.0634142-.0210171.1256684-.0453847.1865-.073-.3059718-.2499171-.5272905-.5882341-.6337-.9687l-12.2086-43.6888c-.27028924-.97424098.09689756-2.01356496.9192-2.6018-.59836922-.46042192-1.37842214-.61265447-2.106-.411l-.1379.0385c-1.28392347.35874479-2.03396372 1.69035388-1.6753 2.9743l12.2086 43.6888c.2870014 1.0271063 1.3522895 1.6270863 2.3794 1.3401z" />
            </g>
            <g id="Layer_2">
                <path id="Shape" d="m2.053 14.653 3.499 12.52 8.71 31.168-1.926.539-8.71-31.169-3.499-12.52z"
                    fill="#fff" />
                <g fill="#428dff">
                    <path id="Shape"
                        d="m2.4358 19.7373c.53079922-.1500279.84084226-.7005107.694-1.2322l-1.0765-3.8525-1.9262.5383 1.0765 3.8524c.14998144.5308358.70050349.840901 1.2322.694z" />
                    <path id="Shape"
                        d="m12.3355 58.88 1.9262-.5383-8.9789-32.1317c-.09615803-.3440825-.36857754-.6107281-.71464074-.6994941-.34606319-.0887659-.71319484.0138335-.9631.26915-.24990517.2553166-.3446173.6245616-.24845926.9686441z" />
                    <path id="Shape"
                        d="m4.2063 22.3575c-.07490138-.2538315-.24272249-.4701065-.47-.6057l-.1767-.0754c-.06393913-.0215298-.13045347-.0344763-.1978-.0385-.06253228-.0124484-.12657787-.0154484-.19-.0089-.06662004.0069034-.13267939.0184312-.1977.0345-.25396014.0747004-.47033292.2425696-.6058.47-.25632418.4849939-.08842788 1.0857657.3822 1.3676.11633877.0611962.24326559.0996815.374.1134.12966928.0170871.26143258.0085248.3878-.0252.25694371-.0689915.47530619-.2384954.60586452-.4703023.13055832-.2318068.16232364-.506406.08813548-.7618977z" />
                    <path id="Shape"
                        d="m15.1543 61.0234c-1.3131578-.0035737-2.4641659-.8789182-2.8184-2.1434-.1047434-.3467682-.0137665-.7230684.2378229-.9836871.2515895-.2606187.6244494-.3648018.9746938-.2723454.3502445.0924565.6231043.3670948.7132833.7179325.1386638.4946286.6515843.7836357 1.1465.646l1.0693-.2988c.4945675-.1390172.783314-.6520959.6455-1.147l-12.208-43.6891c-.21192095-.751076-.99110897-1.1895509-1.7431-.9809l-.1367.0381c-.75150823.21118-1.19077567.9902817-.9825 1.7426.10566032.3470367.0150922.7240796-.23666629.985262-.25175848.2611825-.62522009.3655392-.9759038.2726977-.3506837-.0928415-.62358626-.3683195-.71312991-.7198597-.50468593-1.815475.55497633-3.6969782 2.3691-4.2065l.1377-.0386c1.81535016-.5036775 3.69623437.5553314 4.207 2.3687l12.208 43.6894c.2094014.7485105.1128149 1.5495525-.2685031 2.2268365-.381318.6772839-1.0161182 1.1753058-1.7646969 1.3844635l-1.0693.2989c-.2578315.0721343-.5242682.1089039-.792.1093z" />
                    <path id="Shape"
                        d="m14.166 44.2441c-.0605828.0000403-.1210397-.0055166-.1806-.0166-.3759553-.0688112-.6796786-.3461339-.7823-.7143l-8.18-29.27c-.08284248-.2966212-.02449022-.614866.1582-.8628 6.2012-8.4072 14.9463-7.5347 23.4043-6.689 7.9366.7954 15.4327 1.5425 20.9053-5.0054.4028894-.63382158 1.1959029-.89698941 1.8978-.6298.249.1079 1.0508.5722.872 2.0126-.7623159 6.18130331-1.9437366 12.3036693-3.5361 18.3248 3.0998951 2.8439162 6.5841877 5.237941 10.3506 7.1118.4232899.1992905.726435.5881733.8164 1.0473.1707533.9506993-.0781613 1.9287813-.6826 2.6822l-.0029.0039c-6.1534 7.3589-14.53 6.5234-22.64 5.7129-8.2637-.8252-16.07-1.607-21.5957 5.8862-.1883675.2555125-.4869587.4062929-.8044.4062zm-7.083-30.062 7.527 26.9351c6.0947-6.7608 14.2519-5.9463 22.1552-5.1558 7.9336.7935 15.4307 1.542 20.9043-5.0039.1637292-.2242914.2617894-.4897328.2832-.7666-3.8403085-1.9552616-7.3981938-4.4214973-10.5767-7.3315-.5562771-.4965314-.7823066-1.2658845-.583-1.9844 1.472317-5.5570772 2.5852862-11.20319096 3.332-16.9033-6.0586 6.2759-14.0225 5.479-21.7373 4.71-8.125-.8117-15.7977-1.5792-21.3047 5.5004zm51.166 16.1446.02.0092z" />
                </g>
            </g>
        </g>
    </g>
</svg>