<?xml version="1.0" encoding="utf-8" ?>
<svg baseProfile="full" height="200mm" version="1.1" viewBox="0,0,200,200" width="200mm" xmlns="http://www.w3.org/2000/svg" xmlns:ev="http://www.w3.org/2001/xml-events" xmlns:xlink="http://www.w3.org/1999/xlink"><defs /><rect fill="#1a1a1a" height="200" width="200" x="0" y="0" /><text alignment-baseline="middle" fill="#e1ed5e" style="dominant-baseline: central; font-size:9.0px; font-family:Arial;" text-anchor="middle" x="100.0" y="100.0">2020</text><line stroke="#e1ed5e" stroke-width="0.3" x1="100.0" x2="100.0" y1="15.0" y2="10.0" /><path d="M 100.0 14.0 a86.0,86.0 0 0,1 42.35913384403234,11.155469271406648" fill="none" id="id61" stroke="none" /><text fill="#e1ed5e" style="font-size:6.75px; font-family:Arial;" text-anchor="middle"><textPath startOffset="22.145653131862478" xlink:href="#id61">January</textPath></text><path d="M 100.0 79.0 l 0.0 -19.862072319051677 a40.86207231905168,40.86207231905168 0 0,0 0.7014518078895412,0.006021120133568679 l -0.34095888304068644 19.859145597112544" fill="#ffc612" stroke="none" /><path d="M 101.08105385017728 79.02784411241856 l 1.0426607062745041 -20.227339152678493 a41.25419439389997,41.25419439389997 0 0,0 0.7069311833747721,0.04252722452683925 l -1.3897362417817387 20.20645995032696" fill="#ffcc13" stroke="none" /><path d="M 101.44090949804482 79.04949213459386 l 1.3327492084739367 -19.377880992966148 a40.423658054811575,40.423658054811575 0 0,0 0.6918817166430073,0.053556020633964 l -1.6651999198921776 19.35214720533713" fill="#ffc011" stroke="none" /><path d="M 101.80034050326958 79.07731436759882 l 2.1559121351751385 -25.054966976207545 a46.14755111961095,46.14755111961095 0 0,0 0.7886845831209908,0.07468925001382717 l -2.585696281681142 25.014265970688534" fill="#f0ff19" stroke="none" /><path d="M 102.51750503828377 79.15144685158666 l 4.373165278393805 -36.21608193306502 a57.479160696685824,57.479160696685824 0 0,0 0.9785749870556341,0.12669612382811724 l -4.994218087340231 36.13567421303651" fill="#65ff29" stroke="none" /><path d="M 103.94208987418118 79.37332000966035 l 7.238264332284111 -37.87365758588288 a59.559128743745234,59.559128743745234 0 0,0 1.0025886347441972,0.20054580608117492 l -7.887349452559265 37.74382238313884" fill="#4dff2c" stroke="none" /><path d="M 104.9986988182912 79.60360301121754 l 5.573710717099953 -22.74264175921379 a44.415678622364325,44.415678622364325 0 0,0 0.7389810956407667,0.18784610474878788 l -5.963297105966114 22.64361042262973" fill="#fff717" stroke="none" /><path d="M 105.69591212413111 79.78721728523813 l 16.39667392260116 -58.18601130418539 a81.45215320577836,81.45215320577836 0 0,0 1.3425641572447513,0.39080085943427195 l -17.393098092227515 57.8959667504486" fill="#4aecff" stroke="none" /><path d="M 106.38641147887787 79.99465700312896 l 4.7914713308236845 -15.009215699587857 a36.75546741391254,36.75546741391254 0 0,0 0.5994243741140182,0.19704269785220455 l -5.0484184425854455 14.924752080333631" fill="#ff8b0c" stroke="none" /><path d="M 106.72888874123014 80.10723608172694 l 9.36023756922497 -27.671879168194167 a50.212102698222,50.212102698222 0 0,0 0.8141395782013024,0.28320000702877723 l -9.833882919471293 27.5071207285968" fill="#bcff1f" stroke="none" /><path d="M 107.06938296918511 80.22567764915836 l 12.338135526174044 -34.5119609683644 a57.65112601468263,57.65112601468263 0 0,0 0.9290364982249386,0.3411550706445618 l -12.928761176053108 34.29507504871112" fill="#63ff29" stroke="none" /><path d="M 107.74402155503746 80.48000691201159 l 6.681728960342831 -16.842321808474487 a39.11930754194816,39.11930754194816 0 0,0 0.6220818207120369,0.2529952608566814 l -6.969865242245308 16.725139291038513" fill="#ffae10" stroke="none" /><path d="M 108.07796709384702 80.6158196554323 l 8.57877913044621 -20.585946918185368 a43.30194300699661,43.30194300699661 0 0,0 0.6836859751471026,0.2918248883092296 l -8.930900180763741 20.435647380216736" fill="#ffe815" stroke="none" /><path d="M 108.4095320186766 80.7573450057729 l 4.449093130343843 -10.180395764503578 a32.11012545403494,32.11012545403494 0 0,0 0.5031910437879584,0.2250709535546671 l -4.623197576987432 10.102521060039058" fill="#ff4506" stroke="none" /><path d="M 109.3889696526874 81.21577127319529 l 14.027085035252018 -28.063566442255524 a52.37392031680264,52.37392031680264 0 0,0 0.8007542907555935,0.4088708464600192 l -14.50676654772119 27.81863764412267" fill="#a1ff22" stroke="none" /><path d="M 110.02825361518725 81.54914285379988 l 10.41924184127858 -19.17023144428647 a42.818761976211206,42.818761976211206 0 0,0 0.642803027093389,0.3565520034067674 l -10.74678905652807 18.988546525446555" fill="#ffe115" stroke="none" /><line stroke="#e1ed5e" stroke-width="0.3" x1="143.13028292997686" x2="145.6673583964461" y1="26.7553504044142" y2="22.446841604673864" /><path d="M 143.63769802327073 25.89364864446614 a86.0,86.0 0 0,1 29.32050498858742,28.57503671076993" fill="none" id="id62" stroke="none" /><text fill="#e1ed5e" style="font-size:6.75px; font-family:Arial;" text-anchor="middle"><textPath startOffset="20.669276256404974" xlink:href="#id62">February</textPath></text><path d="M 110.96478420261332 82.08984904055464 l 8.208071887644897 -13.407268567917841 a36.7202829034666,36.7202829034666 0 0,0 0.5347799863271395,0.3337422636249132 l -8.437016002761748 13.264390507451381" fill="#ff8b0c" stroke="none" /><path d="M 111.5731344415666 82.4767994020092 l 7.608489799241864 -11.5202232958623 a34.80596471861695,34.80596471861695 0 0,0 0.4957425354144358,0.33355770211324204 l -7.805128622753301 11.38791591969194" fill="#ff6e0a" stroke="none" /><path d="M 111.8722381534696 82.67804972795209 l 3.7886433018926766 -5.527743802438236 a27.701475181955878,27.701475181955878 0 0,0 0.3899377164530665,0.2722068101734389 l -3.882976109519504 5.461892176459671" fill="#ff0000" stroke="none" /><path d="M 112.7482090630111 83.31218511350987 l 21.93610948409556 -28.71507147325548 a57.135138425255796,57.135138425255796 0 0,0 0.7742901051294082,0.6020926690004597 l -22.425809533860196 28.334277752634232" fill="#69ff28" stroke="none" /><path d="M 113.03279911837588 83.53348406188908 l 11.982059282199925 -15.138940480064916 a40.30692268335639,40.30692268335639 0 0,0 0.5388636901286867,0.4340704446084868 l -12.240173742683872 14.93102174166302" fill="#ffbe11" stroke="none" /><path d="M 114.65682725009322 84.96080404539774 l 10.024818586098249 -10.286347007652116 a35.36335345405155,35.36335345405155 0 0,0 0.4311097245493902,0.4274250481898888 l -10.199920230777602 10.112741949233568" fill="#ff770a" stroke="none" /><line stroke="#e1ed5e" stroke-width="0.3" x1="172.87174338648825" x2="177.1583165268699" y1="56.24261187166439" y2="53.66864786411523" /><path d="M 173.72905801456457 55.72781907015455 a86.0,86.0 0 0,1 12.242430191666344,42.057860355516425" fill="none" id="id63" stroke="none" /><text fill="#e1ed5e" style="font-size:6.75px; font-family:Arial;" text-anchor="middle"><textPath startOffset="22.145653131862474" xlink:href="#id63">March</textPath></text><path d="M 119.16976305983485 91.42560881287824 l 16.55504933445152 -7.404862995573718 a39.1356459617335,39.1356459617335 0 0,0 0.2690410134406523,0.6156184897611516 l -16.679724229909144 7.119582436036717" fill="#ffae10" stroke="none" /><path d="M 119.58574465831526 92.42381321644754 l 21.538594453288304 -8.331591036239697 a44.0938619598016,44.0938619598016 0 0,0 0.26701839397182947,0.7082980137038705 l -21.678443531074574 7.960624742341668" fill="#fff316" stroke="none" /><path d="M 120.05942366710727 93.78553927170692 l 12.27721764253479 -3.8035134088796037 a33.85289023113846,33.85289023113846 0 0,0 0.1672069692041398,0.5565776193610977 l -12.340700931742557 3.5921981859277823" fill="#ff6008" stroke="none" /><path d="M 120.16314734710363 94.1308016681162 l 19.982284688639837 -5.816551847925615 a41.811630805332314,41.811630805332314 0 0,0 0.19468591947458339,0.6908716465782376 l -20.079189100189 5.472672277444364" fill="#ffd313" stroke="none" /><path d="M 120.35273937422433 94.82641323984039 l 17.6164145782593 -4.47802369734018 a39.1766542253256,39.1766542253256 0 0,0 0.16008788580434197,0.6532132042066869 l -17.69068999057993 4.174954668525397" fill="#ffae10" stroke="none" /><path d="M 120.77682067341334 96.94652285012252 l 14.370494973752647 -2.1119678859688635 a35.52485917804417,35.52485917804417 0 0,0 0.08349269519239833,0.6041115505726222 l -14.404632185500258 1.8649680271961555" fill="#ff790b" stroke="none" /><path d="M 120.82617615685814 97.30363454192243 l 20.59491629641832 -2.666424239159934 a41.76680994952418,41.76680994952418 0 0,0 0.0859559233146456,0.7118383512225148 l -20.63765430599263 2.3124922110140065" fill="#ffd313" stroke="none" /><line stroke="#e1ed5e" stroke-width="0.3" x1="184.99686870605535" x2="189.99668451229388" y1="99.2704041080226" y2="99.22748670261217" /><path d="M 185.99683186730306 99.26182062694052 a86.0,86.0 0 0,1 -10.086455211305974,41.156179273409016" fill="none" id="id64" stroke="none" /><text fill="#e1ed5e" style="font-size:6.75px; font-family:Arial;" text-anchor="middle"><textPath startOffset="21.40746469413373" xlink:href="#id64">April</textPath></text><path d="M 120.99922638620191 99.81974689727618 l 16.858253688747595 -0.1447078324703841 a37.85887474865835,37.85887474865835 0 0,0 0.0,0.6499218703884199 l -16.858253688747595 -0.14470783247038205" fill="#ff9b0e" stroke="none" /><path d="M 120.99922638620191 100.18025310272382 l 14.749212408686565 0.1266042496282339 a35.74975577128576,35.74975577128576 0 0,0 -0.010535228996262023,0.6136242724339265 l -14.744865748091634 -0.37977543803123137" fill="#ff7c0b" stroke="none" /><path d="M 120.9064616781168 101.97986365728391 l 14.485633131928733 1.3718045182496332 a35.55044380316702,35.55044380316702 0 0,0 -0.06275094752373248,0.6070584942214514 l -14.459949791923336 -1.6202675347540159" fill="#ff7a0b" stroke="none" /><path d="M 120.82617615685814 102.69636545807757 l 13.517550201787765 1.7501175044045476 a34.63037324276469,34.63037324276469 0 0,0 -0.08139041967953163,0.588900532208867 l -13.485515265553023 -1.9819063448134997" fill="#ff6c09" stroke="none" /><path d="M 120.77682067341334 103.0534771498775 l 14.569977694955465 2.141284976420901 a35.726484691933294,35.726484691933294 0 0,0 -0.09438343151683268,0.606009336443417 l -14.531072771300364 -2.3910824947957687" fill="#ff7c0b" stroke="none" /><path d="M 120.65975698304385 103.76489593502545 l 11.680224846187011 2.1285260557364905 a32.87258504401773,32.87258504401773 0 0,0 -0.10593379581898664,0.5542903830862337 l -11.641964758085866 -2.3287190038560386" fill="#ff5107" stroke="none" /><path d="M 120.592083275326 104.11899336999214 l 27.396532345214492 5.480073753680322 a48.93924109363316,48.93924109363316 0 0,0 -0.17185198422680198,0.8223739556438193 l -27.298422650163324 -5.94956416060955" fill="#ccff1d" stroke="none" /><path d="M 120.05942366710727 106.21446072829308 l 11.652952338677089 3.6101144219874186 a33.19935343972464,33.19935343972464 0 0,0 -0.173324788113123,0.5429374301250439 l -11.58926283478671 -3.809620885803846" fill="#ff5608" stroke="none" /><path d="M 119.71291397450082 107.23885506374661 l 26.29751877950755 9.656813154425087 a49.0145236307532,49.0145236307532 0 0,0 -0.2968163549182774,0.7873406453250484 l -26.127871740774832 -10.106822079944294" fill="#cbff1d" stroke="none" /><path d="M 119.58574465831526 107.57618678355244 l 14.04390274971789 5.4324832809834485 a36.05799053797347,36.05799053797347 0 0,0 -0.22826652572272096,0.575380759552276 l -13.948577549029046 -5.67276505774929" fill="#ff810b" stroke="none" /><path d="M 119.4528033332814 107.91128576633888 l 25.864345267207735 10.518804054223617 a48.92148983905555,48.92148983905555 0 0,0 -0.32305458511656826,0.7752134003874571 l -25.67996483755468 -10.961249964052351" fill="#ccff1d" stroke="none" /><path d="M 119.31412917781788 108.2440532568976 l 11.219994677176123 4.789148545562235 a33.19935343972464,33.19935343972464 0 0,0 -0.2282315131257021,0.522238366669468 l -11.136129282033455 -4.981048982007548" fill="#ff5608" stroke="none" /><path d="M 119.0197475246899 108.90220220490707 l 12.625748573613347 5.909487843869558 a34.940285994947935,34.940285994947935 0 0,0 -0.25892539207746157,0.5410544847536582 l -12.522443923575974 -6.125354830688319" fill="#ff700a" stroke="none" /><path d="M 118.5362547648365 109.86951160357373 l 10.768110634524778 5.73341239664092 a33.19935343972464,33.19935343972464 0 0,0 -0.2721630040196471,0.5007492730381468 l -10.668102280889793 -5.91741650315367" fill="#ff5608" stroke="none" /><line stroke="#e1ed5e" stroke-width="0.3" x1="174.33088141563837" x2="178.70328620479359" y1="141.23008692659167" y2="143.65538615756765" /><path d="M 175.20536237346943 141.71514677278685 a86.0,86.0 0 0,1 -30.301960400862466,31.631185727798858" fill="none" id="id65" stroke="none" /><text fill="#e1ed5e" style="font-size:6.75px; font-family:Arial;" text-anchor="middle"><textPath startOffset="22.145653131862474" xlink:href="#id65">May</textPath></text><path d="M 118.18653347947321 110.5 l 12.201385093605888 7.044472968279642 a35.08894593655929,35.08894593655929 0 0,0 -0.3056519378872398,0.5190638124287118 l -12.078659445588881 -7.252887949001904" fill="#ff730a" stroke="none" /><path d="M 118.00360718960297 110.81064883170644 l 12.10022076966253 7.26583490460097 a35.11409577463219,35.11409577463219 0 0,0 -0.31474274876032815,0.514108626264139 l -11.973710056446796 -7.472480646989666" fill="#ff730a" stroke="none" /><path d="M 117.62189284568427 111.42229804090321 l 24.06419730127691 15.598121955304078 a49.677290672016454,49.677290672016454 0 0,0 -0.4699839808171914,0.7116156487496104 l -23.792888881538993 -16.00891748239275" fill="#c2ff1e" stroke="none" /><path d="M 117.423217284605 111.72311816256416 l 11.79125938339201 7.93368554033284 a35.2118670166631,35.2118670166631 0 0,0 -0.3417399944709546,0.4986088649565905 l -11.653329652105734 -8.134929140359475" fill="#ff740a" stroke="none" /><path d="M 117.21940702142032 112.02048342749411 l 11.526923406582508 8.046687763780506 a35.05770775016306,35.05770775016306 0 0,0 -0.34871551567420217,0.49051204363622025 l -11.387092792378345 -8.24337703412623" fill="#ff720a" stroke="none" /><path d="M 117.01052211995028 112.31430620078461 l 11.585619302294692 8.387094917377784 a35.30279468393529,35.30279468393529 0 0,0 -0.3595807850447871,0.48784039440257887 l -11.439936497666077 -8.584741621049242" fill="#ff760a" stroke="none" /><path d="M 116.1254893667686 113.45245675266167 l 11.155715878394616 9.30649495254095 a35.52793326874597,35.52793326874597 0 0,0 -0.3947076180454708,0.46496458157937587 l -10.994313696842031 -9.496626316569882" fill="#ff790b" stroke="none" /><path d="M 115.89218393027572 113.72728997021213 l 11.200990369202668 9.675148703676673 a35.801036709947965,35.801036709947965 0 0,0 -0.4057262207514351,0.4616419610800516 l -11.033253084492646 -9.866002942568016" fill="#ff7d0b" stroke="none" /><path d="M 115.6541949942343 113.99807769240083 l 10.555511840105295 9.438803775938144 a35.16014996132694,35.16014996132694 0 0,0 -0.40618729616010496,0.4464709920211083 l -10.39192684310331 -9.618612343516924" fill="#ff740a" stroke="none" /><path d="M 115.16444852881244 114.52719865689866 l 19.929321163268114 19.091838854927566 a48.598480988837196,48.598480988837196 0 0,0 -0.5822866314672863,0.5974773805378683 l -19.59864773065002 -19.43113892753317" fill="#d0ff1d" stroke="none" /><path d="M 114.91283532996324 114.78537596483092 l 9.890712535124026 9.806177038517266 a34.927932458308476,34.927932458308476 0 0,0 -0.42580156773723,0.42216225996675477 l -9.72091904725683 -9.974519308712683" fill="#ff700a" stroke="none" /><path d="M 114.39649973595853 115.28858382429668 l 9.664687457351743 10.263563160306825 a35.09776267334287,35.09776267334287 0 0,0 -0.4421820522311632,0.4092771061504305 l -9.487075633806613 -10.427958012589635" fill="#ff730a" stroke="none" /><path d="M 113.86319453409587 115.77377054828091 l 9.374222514882213 10.66614441964364 a35.20009452571425,35.20009452571425 0 0,0 -0.4573003857572391,0.3950051815610064 l -9.189742649362119 -10.825493733669363" fill="#ff740a" stroke="none" /><path d="M 113.03279911837588 116.46651593811092 l 8.806404352506613 11.126604216859175 a35.18992878835112,35.18992878835112 0 0,0 -0.47689065629329214,0.37083305878101325 l -8.61410375157809 -11.276138327260982" fill="#ff740a" stroke="none" /><path d="M 112.45986205192187 116.90419585922612 l 8.456825376513558 11.473307803581067 a35.253234278736805,35.253234278736805 0 0,0 -0.4902197073869773,0.3548812634823409 l -8.258624658752613 -11.616789838436485" fill="#ff750a" stroke="none" /><path d="M 111.8722381534696 117.32195027204791 l 8.057645809698712 11.756346042012858 a35.25262531094207,35.25262531094207 0 0,0 -0.5021043373727765,0.33783820638901296 l -7.854645184228932 -11.892933922458992" fill="#ff750a" stroke="none" /><path d="M 110.96478420261333 117.91015095944535 l 7.568176981850274 12.362048329271436 a35.49474186468497,35.49474186468497 0 0,0 -0.5223934297535018,0.3136822449846173 l -7.354850795539336 -12.490144574791978" fill="#ff790b" stroke="none" /><line stroke="#e1ed5e" stroke-width="0.3" x1="143.1302829299769" x2="145.66735839644613" y1="173.24464959558577" y2="177.55315839532614" /><path d="M 143.63769802327073 174.10635135553383 a86.0,86.0 0 0,1 -40.68552437913181,11.842963189579606" fill="none" id="id66" stroke="none" /><text fill="#e1ed5e" style="font-size:6.75px; font-family:Arial;" text-anchor="middle"><textPath startOffset="21.407464694133747" xlink:href="#id66">June</textPath></text><path d="M 110.34350942703117 118.27599006163325 l 6.979182055181818 12.331545959197955 a35.169545084553114,35.169545084553114 0 0,0 -0.5279715946576967,0.29285694354659114 l -6.766466272368027 -12.44953581817769" fill="#ff740a" stroke="none" /><path d="M 109.71004243097381 118.62028667847754 l 6.552201501933438 12.564710320108881 a35.170507752024605,35.170507752024605 0 0,0 -0.5377282208422157,0.27456786102730024 l -6.3355460593776405 -12.675336132809019" fill="#ff740a" stroke="none" /><path d="M 108.07796709384702 119.3841803445677 l 5.485507707329703 13.16322156862808 a35.260476740697314,35.260476740697314 0 0,0 -0.5607180430406711,0.22803914668934244 l -5.258735203098592 -13.255447971896713" fill="#ff750a" stroke="none" /><path d="M 107.06938296918513 119.77432235084164 l 4.916145162612704 13.751332979523115 a35.60368590368885,35.60368590368885 0 0,0 -0.5772785497203845,0.20080744594135658 l -4.6793608408472975 -13.833698858033063" fill="#ff7a0b" stroke="none" /><path d="M 105.3480935250658 120.30758222061773 l 3.677143490482597 13.962712772317456 a35.4387926161378,35.4387926161378 0 0,0 -0.5896250740267344,0.14988038810667734 l -3.436913123230465 -14.023778392259404" fill="#ff780b" stroke="none" /><path d="M 102.15924093988457 120.88869738790638 l 1.4928951946108688 14.442406762514045 a35.519361182779484,35.519361182779484 0 0,0 -0.6070435350849951,0.05748765391333317 l -1.2447520961408585 -14.465906171932563" fill="#ff790b" stroke="none" /><path d="M 101.08105385017728 120.97215588758144 l 0.7284240177724826 14.131231344745402 a35.149992963545344,35.149992963545344 0 0,0 -0.6028629514538637,0.02588952909505534 l -0.48573530571778933 -14.14165344226629" fill="#ff740a" stroke="none" /><path d="M 100.72087961077811 120.9876233191556 l 0.49963928983141376 14.546452769157076 a35.555031005987615,35.555031005987615 0 0,0 -0.6101695139218963,0.01571580225835654 l -0.24985646183877355 -14.552886288765478" fill="#ff7a0b" stroke="none" /><line stroke="#e1ed5e" stroke-width="0.3" x1="101.45913802915013" x2="101.54496967792366" y1="184.9874750549273" y2="189.98673829345242" /><path d="M 101.47630435890484 185.9873277026323 a86.0,86.0 0 0,1 -42.54439059252881,-10.42667462771756" fill="none" id="id67" stroke="none" /><text fill="#e1ed5e" style="font-size:6.75px; font-family:Arial;" text-anchor="middle"><textPath startOffset="22.145653131862474" xlink:href="#id67">July</textPath></text><path d="M 98.91894614982273 120.97215588758144 l -1.4354457693265423 27.847264442515158 a48.88423643365632,48.88423643365632 0 0,0 -0.8376794558259079,-0.05039271592089542 l 1.9132695772848964 -27.81851974876957" fill="#ccff1d" stroke="none" /><path d="M 97.84075906011543 120.88869738790638 l -1.4370011531548208 13.90168261441367 a34.97575585884569,34.97575585884569 0 0,0 -0.5966932208857101,-0.06686071998320088 l 1.6754302756413302 -13.874966133923499" fill="#ff710a" stroke="none" /><path d="M 97.12497278360702 120.80226474461374 l -1.884035186904819 13.631940081364728 a34.76151804734542,34.76151804734542 0 0,0 -0.5904076561168324,-0.08676959364492265 l 2.1177679486293366 -13.597589414420924" fill="#ff6e0a" stroke="none" /><path d="M 96.76829788921471 120.74984581791261 l -9.462019182471641 60.752950746041826 a82.48537087275676,82.48537087275676 0 0,0 -1.3972334327833875,-0.22991422965482367 l 10.503530118308094 -60.581570517891336" fill="#4be1ff" stroke="none" /><path d="M 95.70440661134978 120.55596938700252 l -2.842109054345472 13.600520680102361 a34.89430626719753,34.89430626719753 0 0,0 -0.5852898149194943,-0.12756119102705682 l 3.0751612858841026 -13.549728030941587" fill="#ff700a" stroke="none" /><path d="M 95.00130118170881 120.39639698878247 l -3.3790993420255453 13.78787843594216 a35.19591152859147,35.19591152859147 0 0,0 -0.5855840565808443,-0.14885317727421168 l 3.6152886918317684 -13.727840026832686" fill="#ff740a" stroke="none" /><path d="M 94.6519064749342 120.30758222061772 l -4.870734649759284 18.494972818109275 a40.12558693402549,40.12558693402549 0 0,0 -0.664591687336469,-0.18113741969151842 l 5.187507738030448 -18.408634904273615" fill="#ffbc11" stroke="none" /><path d="M 93.61358852112213 120.00534299687104 l -4.225437124386005 13.236121609863297 a34.89421585276512,34.89421585276512 0 0,0 -0.5690702627230336,-0.18706469852872715 l 4.4520301247567815 -13.161635989932549" fill="#ff700a" stroke="none" /><path d="M 92.93061703081489 119.77432235084164 l -4.688557066902989 13.1147285704262 a34.92762265591509,34.92762265591509 0 0,0 -0.562851733985383,-0.20668695302830378 l 4.912997952542492 -13.032310768389177" fill="#ff700a" stroke="none" /><path d="M 92.59220618246901 119.65005319985036 l -5.002200443745927 13.26893097419978 a35.18049852711428,35.18049852711428 0 0,0 -0.5632694963867332,-0.2178847416093325 l 5.229242202626189 -13.181106344452408" fill="#ff740a" stroke="none" /><path d="M 92.25597844496254 119.51999308798841 l -5.372294850891814 13.541692466988057 a35.56842430859974,35.56842430859974 0 0,0 -0.56561507715916,-0.2300307278334645 l 5.603964389241415 -13.4474744825753" fill="#ff7a0b" stroke="none" /><path d="M 91.59046798132341 119.24265499422711 l -11.169090324842372 25.557064441039394 a48.89107601954302,48.89107601954302 0 0,0 -0.7661618018094225,-0.3426944287646606 l 11.60616552950743 -25.361566261364878" fill="#ccff1d" stroke="none" /><path d="M 91.26138138417905 119.09545874513695 l -4.55780043151705 9.959616494880622 a31.952967885401435,31.952967885401435 0 0,0 -0.49680974475644774,-0.23253204594061858 l 4.728098890144987 -9.879908217369477" fill="#ff4306" stroke="none" /><path d="M 90.93487009805054 118.94263497670748 l -6.137144326281175 12.824271249231101 a35.217119031486675,35.217119031486675 0 0,0 -0.5430810975649846,-0.26564817895988513 l 6.356385673108228 -12.717029320173994" fill="#ff750a" stroke="none" /><path d="M 90.6110303473126 118.78422872680471 l -5.005772328529091 10.014897891004074 a32.19624653052555,32.19624653052555 0 0,0 -0.492254205902394,-0.25134850498384276 l 5.176953756145068 -9.927491434347393" fill="#ff4706" stroke="none" /><path d="M 89.97174638481275 118.45085714620012 l -8.266110627739609 15.208712523597484 a38.30992552079473,38.30992552079473 0 0,0 -0.5751155557970183,-0.3190069040854571 l 8.525970371692729 -15.064572704078877" fill="#ffa20f" stroke="none" /><line stroke="#e1ed5e" stroke-width="0.3" x1="58.13341422392154" x2="55.67067388415222" y1="173.97424548756322" y2="178.32567169271397" /><path d="M 57.64086615596768 174.84453072859336 a86.0,86.0 0 0,1 -31.369924170532247,-30.572349798747897" fill="none" id="id68" stroke="none" /><text fill="#e1ed5e" style="font-size:6.75px; font-family:Arial;" text-anchor="middle"><textPath startOffset="22.145653131862474" xlink:href="#id68">August</textPath></text><path d="M 89.65649057296885 118.27599006163327 l -6.008767967022698 10.616917248702812 a33.19935343972464,33.19935343972464 0 0,0 -0.49357562885937045,-0.2849660221873985 l 6.190136063742469 -10.512204329239243" fill="#ff5608" stroke="none" /><path d="M 89.34428304082925 118.09573695890944 l -14.103517533936683 23.950856096063813 a48.794832515494974,48.794832515494974 0 0,0 -0.7181373514193357,-0.431220845765266 l 14.512587641913447 -23.70522124976263" fill="#ceff1d" stroke="none" /><path d="M 89.03521579738668 117.91015095944536 l -7.40687100881456 12.098567144932103 a35.185805056522106,35.185805056522106 0 0,0 -0.5124324449379417,-0.31979574498103497 l 7.6134675825422145 -11.96963560310952" fill="#ff740a" stroke="none" /><path d="M 88.4268655584334 117.5232005979908 l -7.624644914214655 11.544684198980741 a34.835278939076545,34.835278939076545 0 0,0 -0.4961600588501903,-0.33383863051429796 l 7.821701261161851 -11.412095894409322" fill="#ff6f0a" stroke="none" /><path d="M 88.1277618465304 117.32195027204791 l -8.016240147184156 11.695933942980911 a35.17938563182129,35.17938563182129 0 0,0 -0.4951999562979752,-0.3456880286627086 l 8.215835194655897 -11.556601098513072" fill="#ff740a" stroke="none" /><path d="M 87.54013794807813 116.9041958592261 l -19.852919900950432 26.934298709304702 a54.460347809842126,54.460347809842126 0 0,0 -0.7477846911356224,-0.561151573077796 l 20.31235758099682 -26.58952810896289" fill="#88ff25" stroke="none" /><path d="M 85.34317274990678 115.03919595460226 l -9.731999406694685 9.985888733622316 a34.943808168939746,34.943808168939746 0 0,0 -0.42599510631796167,-0.4223541443815225 l 9.901986433142609 -9.817354579012134" fill="#ff700a" stroke="none" /><path d="M 84.83555147118756 114.52719865689866 l -9.925751951829247 9.508645840259593 a34.74535912680088,34.74535912680088 0 0,0 -0.40891013394893694,-0.4342483919106925 l 10.087517919514436 -9.33685598840441" fill="#ff6d0a" stroke="none" /><path d="M 84.58840730492382 114.26474011684316 l -15.287922168641506 14.150272523868969 a41.831485226315515,41.831485226315515 0 0,0 -0.48325783300490854,-0.5311850127844111 l 15.528577702488295 -13.885749935526883" fill="#ffd413" stroke="none" /><path d="M 84.3458050057657 113.99807769240083 l -10.335101425205123 9.241711423816344 a34.86447083412759,34.86447083412759 0 0,0 -0.3951123009267003,-0.44956526868989377 l 10.492224790090416 -9.062933877315151" fill="#ff6f0a" stroke="none" /><path d="M 84.1078160697243 113.72728997021213 l -20.727185175149 17.903648888904854 a48.388991380153094,48.388991380153094 0 0,0 -0.5375911788284383,-0.6332810569061074 l 21.03147091748455 -17.545201049549192" fill="#d3ff1c" stroke="none" /><path d="M 83.64595745247003 113.17365903436017 l -27.905284318448267 22.478521735510462 a56.832789904042514,56.832789904042514 0 0,0 -0.6054953781823643,-0.7650236303599959 l 28.287046127272195 -21.996178161235786" fill="#6cff28" stroke="none" /><path d="M 83.20337586046588 112.60449989151573 l -11.056102261696854 8.296705254607792 a34.822905458076995,34.822905458076995 0 0,0 -0.3546928166526609,-0.4812089265171542 l 11.196897097933345 -8.105690018821758" fill="#ff6f0a" stroke="none" /><path d="M 82.78059297857968 112.02048342749411 l -13.240744041255537 9.243067668800329 a37.1478048878498,37.1478048878498 0 0,0 -0.360528756710744,-0.5260222305734052 l 13.397462534781607 -9.014410703156873" fill="#ff910d" stroke="none" /><path d="M 82.37810715431573 111.42229804090323 l -11.670012756908342 7.5643612759338446 a34.90714777584717,34.90714777584717 0 0,0 -0.321615025258433,-0.5056322385420724 l 11.798145473792665 -7.3629153627131005" fill="#ff700a" stroke="none" /><path d="M 82.18462484594161 111.11811171558189 l -11.85136846515727 7.396130445680036 a34.96988475494481,34.96988475494481 0 0,0 -0.31345012334205585,-0.5119972197879628 l 11.97658655295473 -7.191596109767516" fill="#ff710a" stroke="none" /><line stroke="#e1ed5e" stroke-width="0.3" x1="26.387840678322732" x2="22.057713659400548" y1="142.50000000000003" y2="145.00000000000006" /><path d="M 25.521815274538298 143.00000000000003 a86.0,86.0 0 0,1 -11.493303480769221,-40.785679425670985" fill="none" id="id69" stroke="none" /><text fill="#e1ed5e" style="font-size:6.75px; font-family:Arial;" text-anchor="middle"><textPath startOffset="21.40746469413373" xlink:href="#id69">September</textPath></text><path d="M 81.81346652052679 110.50000000000001 l -12.03006207821893 6.9455595792276155 a34.89111915845522,34.89111915845522 0 0,0 -0.29502374379071483,-0.5212786866490552 l 12.14751918703102 -6.738024122479438" fill="#ff700a" stroke="none" /><path d="M 81.4637452351635 109.86951160357371 l -12.195487600987365 6.493410233954879 a34.81645013352802,34.81645013352802 0 0,0 -0.27636291924738915,-0.529962337473665 l 12.305158589209704 -6.283101653376711" fill="#ff6f0a" stroke="none" /><path d="M 80.9802524753101 108.90220220490708 l -29.895442921798765 13.99257679680739 a54.00802497734574,54.00802497734574 0 0,0 -0.385811560433239,-0.8430678874475339 l 30.13123894708706 -13.477319927145166" fill="#8dff24" stroke="none" /><path d="M 80.68587082218212 108.24405325689762 l -12.681809921270556 5.413110548358625 a34.788766032099744,34.788766032099744 0 0,0 -0.22972870233901102,-0.5512652558160107 l 12.772864468146052 -5.1946127831013325" fill="#ff6e0a" stroke="none" /><path d="M 80.28708602549918 107.23885506374661 l -15.643781951521628 5.744613421557209 a37.665188181052415,37.665188181052415 0 0,0 -0.21766861109120952,-0.6088578451810361 l 15.740090732656782 -5.475220619995252" fill="#ff990e" stroke="none" /><path d="M 79.56144815229197 104.8234425847677 l -27.17417864146583 6.413032167933646 a48.9206548351798,48.9206548351798 0 0,0 -0.18587318577779893,-0.8189915524413801 l 27.280262688801294 -5.94560628155324" fill="#ccff1d" stroke="none" /><path d="M 79.407916724674 104.11899336999214 l -15.033087520188854 3.007038530208604 a36.33088389858253,36.33088389858253 0 0,0 -0.11707836276588408,-0.6126034665981204 l 15.082492175236895 -2.748532498577169" fill="#ff850c" stroke="none" /><path d="M 79.2786578344484 103.40968896794605 l -13.75375833838418 2.26317570066225 a34.938717038620894,34.938717038620894 0 0,0 -0.09230228037647503,-0.5926468532052274 l 13.790582110898923 -2.0267406655255726" fill="#ff700a" stroke="none" /><path d="M 79.17382384314188 102.69636545807758 l -27.74127761043064 3.5916637863967216 a48.97281773818101,48.97281773818101 0 0,0 -0.10078585774428736,-0.8346514822558522 l 27.79884555443459 -3.1149186272174703" fill="#cbff1d" stroke="none" /><path d="M 79.01933749520258 100.90099992219065 l -17.418486239782723 0.7480247462697871 a38.43454054188214,38.43454054188214 0 0,0 -0.022649498539910554,-0.6594154372188806 l 17.42876042531948 -0.4489030444867866" fill="#ffa40f" stroke="none" /><line stroke="#e1ed5e" stroke-width="0.3" x1="15.003131293944662" x2="10.003315487706104" y1="100.72959589197737" y2="100.7725132973878" /><path d="M 14.003168132696942 100.73817937305945 a86.0,86.0 0 0,1 10.791469493833604,-42.45332614584628" fill="none" id="id70" stroke="none" /><text fill="#e1ed5e" style="font-size:6.75px; font-family:Arial;" text-anchor="middle"><textPath startOffset="22.145653131862435" xlink:href="#id70">October</textPath></text><path d="M 79.00077361379809 100.18025310272382 l -7.011027930866448 0.06018124261246297 a28.011286217902665,28.011286217902665 0 0,0 0.0,-0.48086869067255844 l 7.011027930866448 0.06018124261246039" fill="#ff0500" stroke="none" /><path d="M 79.0935383218832 98.0201363427161 l -13.742851223397084 -1.3014622992442426 a34.80433858845765,34.80433858845765 0 0,0 0.06143397917772541,-0.5943180201312012 l 13.718484851737696 1.5371848416583567" fill="#ff6e0a" stroke="none" /><path d="M 79.13060592940154 97.66154086499901 l -27.71254085542606 -3.105248005679204 a48.88597292260812,48.88597292260812 0 0,0 0.10060713147054609,-0.8331713723214823 l 27.655151637695845 3.580513054924122" fill="#ccff1d" stroke="none" /><path d="M 79.2786578344484 96.59031103205396 l -35.3063443394415 -5.809645525415372 a56.781139329906644,56.781139329906644 0 0,0 0.166517944220532,-0.9604312518423519 l 35.201411577728734 6.414869810178317" fill="#6dff28" stroke="none" /><path d="M 79.34024301695615 96.23510406497455 l -13.70477508988693 -2.497466551455602 a34.93047735865591,34.93047735865591 0 0,0 0.11256547215306353,-0.5889901159458066 l 13.659883325451707 2.7323592324347232" fill="#ff700a" stroke="none" /><path d="M 79.48165901384962 95.52812308129327 l -13.613877275561935 -2.9670811886684385 a34.93345704605328,34.93345704605328 0 0,0 0.13272906859604866,-0.5848287663908937 l 13.560937345408224 3.2003442889983402" fill="#ff700a" stroke="none" /><path d="M 79.83685265289637 94.1308016681162 l -14.641509580033546 -4.26193005110076 a36.249191799655804,36.249191799655804 0 0,0 0.17904283668355,-0.5959753727927932 l 14.566190423346367 4.512643027484277" fill="#ff840c" stroke="none" /><path d="M 80.05021161711548 93.44210830539832 l -14.279627421433629 -4.6939971628654495 a36.03134620251786,36.03134620251786 0 0,0 0.19819741746495326,-0.5859354473619821 l 14.196944582396311 4.938434284701593" fill="#ff810b" stroke="none" /><path d="M 80.41425534168474 92.42381321644754 l -20.819811747114606 -8.053550444280525 a43.32317710237193,43.32317710237193 0 0,0 0.2742590746983942,-0.6913120275276493 l 20.67849399745008 8.409763489021756" fill="#ffe815" stroke="none" /><path d="M 80.68587082218212 91.75594674310238 l -37.749620632468854 -16.11306831680385 a62.04466869737538,62.04466869737538 0 0,0 0.42653085530394513,-0.9759860685206213 l 37.46745589514793 16.758716455100338" fill="#32ff2f" stroke="none" /><path d="M 80.9802524753101 91.09779779509293 l -12.463464723427407 -5.833530807790569 a34.761105863903566,34.761105863903566 0 0,0 0.2575975756511891,-0.5382798591111155 l 12.361487889816313 6.0466231689667715" fill="#ff6e0a" stroke="none" /><path d="M 81.29705330413844 90.45014215332179 l -25.06318981947764 -12.797443304123068 a49.141393694154736,49.141393694154736 0 0,0 0.39007018134006494,-0.7480110054008599 l 24.839811569162634 13.225800552628414" fill="#c9ff1d" stroke="none" /><path d="M 81.46374523516351 90.13048839642627 l -25.02098732151607 -13.322266435991786 a49.346650411204166,49.346650411204166 0 0,0 0.40453596900925565,-0.7443006191412663 l 24.788606002891466 13.749821888607672" fill="#c7ff1e" stroke="none" /><line stroke="#e1ed5e" stroke-width="0.3" x1="26.387840678322718" x2="22.05771365940052" y1="57.49999999999999" y2="54.99999999999999" /><path d="M 25.521815274538284 56.99999999999999 a86.0,86.0 0 0,1 29.574782752854787,-30.34633250058573" fill="none" id="id71" stroke="none" /><text fill="#e1ed5e" style="font-size:6.75px; font-family:Arial;" text-anchor="middle"><textPath startOffset="21.40746469413373" xlink:href="#id71">November</textPath></text><path d="M 81.99639281039701 89.18935116829357 l -8.637752540337559 -5.1867222176840135 a31.075358867629724,31.075358867629724 0 0,0 0.2785418121396713,-0.45497711690029474 l 8.547442763742495 5.334236450708851" fill="#ff3505" stroke="none" /><path d="M 82.18462484594161 88.88188828441811 l -23.54688770465114 -14.694999447987206 a48.75606112818956,48.75606112818956 0 0,0 0.44921120258625397,-0.7062346224631441 l 23.291158810438997 15.097047745129021" fill="#ceff1d" stroke="none" /><path d="M 82.576782715395 88.27688183743585 l -22.620383659099875 -15.2200036414902 a48.26408384178437,48.26408384178437 0 0,0 0.46841503000770734,-0.6834315275340127 l 22.355778892276856 15.606069904094248" fill="#d4ff1c" stroke="none" /><path d="M 82.98947788004972 87.6856937992154 l -49.38148114707495 -35.748384159247074 a81.96292028992727,81.96292028992727 0 0,0 0.8348430056679946,-1.1326248734302837 l 48.76053612182314 36.590815341946225" fill="#4ae7ff" stroke="none" /><path d="M 83.2033758604659 87.39550010848427 l -17.533418919557487 -13.15740443041147 a42.9211785804073,42.9211785804073 0 0,0 0.44729595533070576,-0.5855247639209524 l 17.304970986872476 13.456450107573307" fill="#ffe315" stroke="none" /><path d="M 83.64595745247003 86.82634096563983 l -17.031045311645432 -13.719004538620425 a42.869329892294544,42.869329892294544 0 0,0 0.46656770019011434,-0.5691367313850625 l 16.79303079221669 14.00934355170398" fill="#ffe215" stroke="none" /><path d="M 84.10781606972428 86.27271002978789 l -16.62239542105378 -14.358029264287065 a42.964904595467594,42.964904595467594 0 0,0 0.48691294913313865,-0.5540175547362606 l 16.37347140796205 14.641259096834625" fill="#ffe315" stroke="none" /><path d="M 84.58840730492382 85.73525988315684 l -46.234778085228534 -42.79422035052948 a84.0,84.0 0 0,0 0.9885766650549135,-1.0498341602219554 l 45.49334558643735 43.58159597069595" fill="#4dd2ff" stroke="none" /><path d="M 85.34317274990677 84.96080404539775 l -9.612794598414053 -9.863574098955924 a34.773013976501026,34.773013976501026 0 0,0 0.431065347022556,-0.41295085135496584 l 9.442056765526198 10.027137080616459" fill="#ff6e0a" stroke="none" /><path d="M 85.60350026404147 84.71141617570332 l -9.435893063534625 -10.020591442697905 a34.76402305897267,34.76402305897267 0 0,0 0.43797740622663817,-0.40538534858036385 l 9.262485885994034 10.181094537410635" fill="#ff6e0a" stroke="none" /><path d="M 86.40962598614128 83.9905735841838 l -18.073797930230082 -21.290888515892583 a48.92783746406005,48.92783746406005 0 0,0 0.6449752944764913,-0.5380613299935446 l 17.705648301591683 21.59801202979801" fill="#ccff1d" stroke="none" /><path d="M 88.4268655584334 82.4767994020092 l -22.791205635030988 -34.508790183780576 a62.35572093733174,62.35572093733174 0 0,0 0.8982619759292495,-0.5822425603040321 l 22.19545802684471 34.89494658578852" fill="#2fff30" stroke="none" /><path d="M 88.72937992617638 82.28071324371311 l -11.968151949012253 -18.815922721048388 a43.29967732769043,43.29967732769043 0 0,0 0.6305997399351971,-0.39354087667467824 l 11.643388080287357 19.018599394564603" fill="#ffe815" stroke="none" /><line stroke="#e1ed5e" stroke-width="0.3" x1="56.869717070023135" x2="54.33264160355391" y1="26.7553504044142" y2="22.446841604673864" /><path d="M 56.362301976729285 25.89364864446614 a86.0,86.0 0 0,1 42.16139366436587,-11.88097634709845" fill="none" id="id72" stroke="none" /><text fill="#e1ed5e" style="font-size:6.75px; font-family:Arial;" text-anchor="middle"><textPath startOffset="22.145653131862474" xlink:href="#id72">December</textPath></text><path d="M 90.61103034731259 81.2157712731953 l -12.472301267774107 -24.95295739894382 a48.89638653782286,48.89638653782286 0 0,0 0.7540282680188028,-0.36883301072636104 l 12.042112750493251 25.163384159767393" fill="#ccff1d" stroke="none" /><path d="M 91.5904679813234 80.7573450057729 l -5.512188509737342 -12.61296603906748 a34.76485141472838,34.76485141472838 0 0,0 0.5488954926683594,-0.23429084647658108 l 5.2948579418985515 12.705731535203466" fill="#ff6e0a" stroke="none" /><path d="M 93.27111125876988 80.10723608172694 l -4.443760214247903 -13.13718746897985 a34.86840652118526,34.86840652118526 0 0,0 0.568649352760023,-0.1869263370635493 l 4.21758812384012 13.211534727445427" fill="#ff6f0a" stroke="none" /><path d="M 93.95794788825049 79.88797359093562 l -6.327348458799791 -21.061685160786652 a42.99158749001938,42.99158749001938 0 0,0 0.708624169594744,-0.20627016816972968 l 5.964864276823422 21.167199023258902" fill="#ffe415" stroke="none" /><path d="M 94.6519064749342 79.69241777938228 l -3.5329597648634676 -13.415223681268047 a34.87263605514825,34.87263605514825 0 0,0 0.5802054499498395,-0.14748595650148763 l 3.3021490216882503 13.473894869604798" fill="#ff6f0a" stroke="none" /><path d="M 95.35216902796891 79.52079915486377 l -6.195892327157991 -27.300244812314613 a48.99450747096734,48.99450747096734 0 0,0 0.821795567167147,-0.17910651895252447 l 5.726334343371725 27.402582789400853" fill="#cbff1d" stroke="none" /><path d="M 95.70440661134978 79.44403061299748 l -5.778483278081602 -27.652134320114484 a49.249449577871815,49.249449577871815 0 0,0 0.8290406434020305,-0.16583134731776517 l 5.302946149148595 27.747255064095118" fill="#c8ff1d" stroke="none" /></svg>