<?xml version="1.0" encoding="utf-8" ?>
<svg baseProfile="full" height="200mm" version="1.1" viewBox="0,0,200,200" width="200mm" xmlns="http://www.w3.org/2000/svg" xmlns:ev="http://www.w3.org/2001/xml-events" xmlns:xlink="http://www.w3.org/1999/xlink"><defs /><rect fill="#1a1a1a" height="200" width="200" x="0" y="0" /><text alignment-baseline="middle" fill="#e1ed5e" style="dominant-baseline: central; font-size:9.0px; font-family:Arial;" text-anchor="middle" x="100.0" y="100.0">2023</text><line stroke="#e1ed5e" stroke-width="0.3" x1="100.0" x2="100.0" y1="15.0" y2="10.0" /><path d="M 100.0 14.0 a86.0,86.0 0 0,1 42.46469731375804,11.215312516191453" fill="none" id="id13" stroke="none" /><text fill="#e1ed5e" style="font-size:6.75px; font-family:Arial;" text-anchor="middle"><textPath startOffset="22.20632615414155" xlink:href="#id13">January</textPath></text><line stroke="#e1ed5e" stroke-width="0.3" x1="143.23703022742887" x2="145.7803849466894" y1="26.81831364943548" y2="22.513508569990506" /><path d="M 143.74570117128098 25.957352633546492 a86.0,86.0 0 0,1 28.547481713284135,27.462654790039103" fill="none" id="id14" stroke="none" /><text fill="#e1ed5e" style="font-size:6.75px; font-family:Arial;" text-anchor="middle"><textPath startOffset="19.985693538727396" xlink:href="#id14">February</textPath></text><line stroke="#e1ed5e" stroke-width="0.3" x1="172.23445277983987" x2="176.4835382374775" y1="55.19839476539836" y2="52.563006222186495" /><path d="M 173.08426987136738 54.67131705675599 a86.0,86.0 0 0,1 12.851231095245387,41.99856678651699" fill="none" id="id15" stroke="none" /><text fill="#e1ed5e" style="font-size:6.75px; font-family:Arial;" text-anchor="middle"><textPath startOffset="22.20632615414155" xlink:href="#id15">March</textPath></text><path d="M 119.61058180528143 92.48833698450437 l 31.85623882047374 -12.202255564702499 a55.11326710611828,55.11326710611828 0 0,0 0.33171733689988864,0.8888375434078369 l -32.061560745875255 11.65209488426533" fill="#97ff23" stroke="none" /><path d="M 119.97218684219823 93.5106431181261 l 15.969908621595636 -5.188937858196127 a37.79175564014483,37.79175564014483 0 0,0 0.1956974373637007,0.6204143555901602 l -16.056861542727543 4.913273336179547" fill="#ff6d0a" stroke="none" /><path d="M 120.78858239683441 97.02765380044208 l 42.39467937391227 -6.0615804249217495 a63.825828613870584,63.825828613870584 0 0,0 0.1461429144382733,1.0889344616606733 l -42.49273828740837 5.330927621196412" fill="#30ff32" stroke="none" /><path d="M 120.87857604477298 97.74499172005257 l 33.01216977600657 -3.5655073422769195 a54.20415931668369,54.20415931668369 0 0,0 0.09220611289382596,0.9285029735145857 l -33.06865301458263 2.996728838057899" fill="#a3ff22" stroke="none" /><path d="M 120.91429891909075 98.10471618934814 l 40.92680617822206 -3.7088459656883974 a62.09451304428559,62.09451304428559 0 0,0 0.0873034547433166,1.065323279410322 l -40.98458411678487 3.003808769070307" fill="#41ff2d" stroke="none" /><path d="M 120.94382443527127 98.46500227214037 l 62.831473305813795 -4.6049931835789 a84.0,84.0 0 0,0 0.09327763598233796,1.442963742987859 l -62.90143153280055 3.5227703763380056" fill="#4dd2ff" stroke="none" /><path d="M 120.96714384426684 98.82574320788733 l 19.412621328922057 -1.0871963590992888 a40.44304150032495,40.44304150032495 0 0,0 0.032944500577786626,0.6954063381024967 l -19.42845943773334 0.7528789143737922" fill="#ff970d" stroke="none" /><path d="M 120.98425023603335 99.18683210126433 l 44.43188228883835 -1.7217951535691844 a65.46523071209731,65.46523071209731 0 0,0 0.033943115929762104,1.1264067696185973 l -44.45493709922376 0.956718236525588" fill="#32ff49" stroke="none" /><line stroke="#e1ed5e" stroke-width="0.3" x1="184.98032266829074" x2="189.97916517819016" y1="98.17113171792111" y2="98.06355123074" /><path d="M 185.9800911702706 98.14961562048488 a86.0,86.0 0 0,1 -9.607161424134198,41.387399972396054" fill="none" id="id16" stroke="none" /><text fill="#e1ed5e" style="font-size:6.75px; font-family:Arial;" text-anchor="middle"><textPath startOffset="21.466115282336823" xlink:href="#id16">April</textPath></text><path d="M 120.99513854157772 99.54816195383933 l 47.778092972205286 -1.0282361383370844 a68.78915606721753,68.78915606721753 0 0,0 0.015287547702098015,1.1840374169961558 l -47.7887135270251 0.20566246328046575" fill="#37ff76" stroke="none" /><path d="M 120.99980553446 99.90962569577887 l 26.322938860382774 -0.1132828244841941 a47.32318261999815,47.32318261999815 0 0,0 -0.003505752546251191,0.8146134275412119 l -26.320988810547018 -0.33984008126070253" fill="#fffe18" stroke="none" /><path d="M 120.9764740272857 100.99374915477107 l 36.56561907511122 1.7322765018709096 a57.60662891096463,57.60662891096463 0 0,0 -0.05544953254088329,0.9900886524065069 l -36.53038319168281 -2.36143687061284" fill="#77ff27" stroke="none" /><path d="M 120.95626037817324 101.35467743843564 l 43.4812454214447 2.810762087536571 a64.57199888589733,64.57199888589733 0 0,0 -0.08124830592799814,1.1085685823079339 l -43.42642055685236 -3.5588038063412752" fill="#31ff3c" stroke="none" /><path d="M 120.92983693683757 101.71520430193887 l 42.36628491137862 3.4719254792313823 a63.508309349178354,63.508309349178354 0 0,0 -0.09866591582273022,1.088770159405668 l -42.30024439927882 -4.200677027185621" fill="#31ff2f" stroke="none" /><path d="M 120.89721153311464 102.0752229133903 l 26.189349907496798 2.600765127381233 a47.31816915792405,47.31816915792405 0 0,0 -0.08746582970926293,0.8098249541445489 l -26.140701776286484 -3.0511864034105733" fill="#fffd18" stroke="none" /><path d="M 120.8583938346157 102.4346265915055 l 10.121149892428289 1.1813575321329637 a31.189861665583514,31.189861665583514 0 0,0 -0.06683317627384981,0.5327261726512852 l -10.09931520690759 -1.3554014590716437" fill="#ff0000" stroke="none" /><path d="M 120.81339534386255 102.79330883721812 l 24.950567327077643 3.3485473685043443 a46.17426422801969,46.17426422801969 0 0,0 -0.11250238323032499,0.7868414062842788 l -24.889230892830717 -3.7775342467690325" fill="#ffed16" stroke="none" /><path d="M 120.76222939487914 103.15116336523771 l 31.856695488891987 4.835013131436119 a53.22152075016247,53.22152075016247 0 0,0 -0.14526496188683796,0.9045650563355746 l -31.76874877264386 -5.382657417464898" fill="#afff20" stroke="none" /><path d="M 120.70491114924044 103.5080841355445 l 49.55206423880979 8.395728394421418 a71.25828613870578,71.25828613870578 0 0,0 -0.21531389372918844,1.2075946615072575 l -49.40020390274141 -9.247441806661895" fill="#3aff96" stroke="none" /><path d="M 120.5718875245553 104.21870165774334 l 29.102466505883747 5.968077724819553 a50.70810509701978,50.70810509701978 0 0,0 -0.18270845317276044,0.8535530664470959 l -28.995424013986543 -6.468144610682818" fill="#d1ff1c" stroke="none" /><path d="M 120.49622156327973 104.57218783832717 l 57.11252008560194 12.740356506461392 a79.51629375174079,79.51629375174079 0 0,0 -0.3095055643127243,1.3333418705460192 l -56.88475395535866 -13.721567034355976" fill="#46fffb" stroke="none" /><path d="M 120.41448212921028 104.9243191809786 l 42.304334805286736 10.204522750157698 a64.51768638009472,64.51768638009472 0 0,0 -0.26971061390628415,1.0773598323804292 l -42.122412877085395 -10.931210421935525" fill="#31ff3b" stroke="none" /><path d="M 120.32669344350535 105.2749913415812 l 25.416926462150972 6.595960498449446 a47.258843190047344,47.258843190047344 0 0,0 -0.21111633283431633,0.785642411680025 l -25.29962205297488 -7.032493843305019" fill="#fffd17" stroke="none" /><line stroke="#e1ed5e" stroke-width="0.3" x1="174.80103733775053" x2="179.2010983576182" y1="140.37084112569926" y2="142.7455964860345" /><path d="M 175.68104954172406 140.8457921977663 a86.0,86.0 0 0,1 -30.038265399797805,32.042727171017184" fill="none" id="id17" stroke="none" /><text fill="#e1ed5e" style="font-size:6.75px; font-family:Arial;" text-anchor="middle"><textPath startOffset="22.206326154141568" xlink:href="#id17">May</textPath></text><line stroke="#e1ed5e" stroke-width="0.3" x1="143.8653032363475" x2="146.44561519142675" y1="172.8068346515853" y2="177.08958963109032" /><path d="M 144.38136562736335 173.6633856474863 a86.0,86.0 0 0,1 -40.68145358897372,12.25698825130547" fill="none" id="id18" stroke="none" /><text fill="#e1ed5e" style="font-size:6.75px; font-family:Arial;" text-anchor="middle"><textPath startOffset="21.466115282336833" xlink:href="#id18">June</textPath></text><line stroke="#e1ed5e" stroke-width="0.3" x1="102.19456741930631" x2="102.32365962044197" y1="184.97166512339345" y2="189.96999836594603" /><path d="M 102.22038585953345 185.97133177190398 a86.0,86.0 0 0,1 -42.740103519485714,-10.115201625700543" fill="none" id="id19" stroke="none" /><text fill="#e1ed5e" style="font-size:6.75px; font-family:Arial;" text-anchor="middle"><textPath startOffset="22.20632615414155" xlink:href="#id19">July</textPath></text><line stroke="#e1ed5e" stroke-width="0.3" x1="58.666819895761336" x2="56.23545636021788" y1="174.27360380694188" y2="178.64263932499728" /><path d="M 58.180547188652646 175.14741091055294 a86.0,86.0 0 0,1 -31.652253787137756,-30.449443065178592" fill="none" id="id20" stroke="none" /><text fill="#e1ed5e" style="font-size:6.75px; font-family:Arial;" text-anchor="middle"><textPath startOffset="22.20632615414155" xlink:href="#id20">August</textPath></text><line stroke="#e1ed5e" stroke-width="0.3" x1="26.63291911575756" x2="22.317208475507996" y1="142.92168965132927" y2="145.44649492493687" /><path d="M 25.769776987707644 143.4266507060508 a86.0,86.0 0 0,1 -11.730757126820373,-40.83630448921669" fill="none" id="id21" stroke="none" /><text fill="#e1ed5e" style="font-size:6.75px; font-family:Arial;" text-anchor="middle"><textPath startOffset="21.46611528233685" xlink:href="#id21">September</textPath></text><line stroke="#e1ed5e" stroke-width="0.3" x1="15.007084014347285" x2="10.007500721073583" y1="101.09737516637583" y2="101.16192664675087" /><path d="M 14.007167355692545 101.11028546245083 a86.0,86.0 0 0,1 10.666146001902534,-42.60595125391555" fill="none" id="id22" stroke="none" /><text fill="#e1ed5e" style="font-size:6.75px; font-family:Arial;" text-anchor="middle"><textPath startOffset="22.20632615414155" xlink:href="#id22">October</textPath></text><line stroke="#e1ed5e" stroke-width="0.3" x1="26.266209847984243" x2="21.928928074336255" y1="57.711370442889674" y2="55.22380399835377" /><path d="M 25.398753493254645 57.213857153982495 a86.0,86.0 0 0,1 29.58750427330803,-30.492523968695096" fill="none" id="id23" stroke="none" /><text fill="#e1ed5e" style="font-size:6.75px; font-family:Arial;" text-anchor="middle"><textPath startOffset="21.46611528233685" xlink:href="#id23">November</textPath></text><line stroke="#e1ed5e" stroke-width="0.3" x1="56.762969772571076" x2="54.21961505331055" y1="26.818313649435495" y2="22.513508569990535" /><path d="M 56.25429882871897 25.957352633546506 a86.0,86.0 0 0,1 42.265352541879196,-11.944610805530505" fill="none" id="id24" stroke="none" /><text fill="#e1ed5e" style="font-size:6.75px; font-family:Arial;" text-anchor="middle"><textPath startOffset="22.20632615414155" xlink:href="#id24">December</textPath></text></svg>