<?xml version="1.0" encoding="utf-8" ?>
<svg baseProfile="full" height="200mm" version="1.1" viewBox="0,0,200,200" width="200mm" xmlns="http://www.w3.org/2000/svg" xmlns:ev="http://www.w3.org/2001/xml-events" xmlns:xlink="http://www.w3.org/1999/xlink"><defs /><rect fill="#1a1a1a" height="200" width="200" x="0" y="0" /><text alignment-baseline="middle" fill="#e1ed5e" style="dominant-baseline: central; font-size:9.0px; font-family:Arial;" text-anchor="middle" x="100.0" y="100.0">2019</text><line stroke="#e1ed5e" stroke-width="0.3" x1="100.0" x2="100.0" y1="15.0" y2="10.0" /><path d="M 100.0 14.0 a86.0,86.0 0 0,1 42.46469731375804,11.215312516191453" fill="none" id="id13" stroke="none" /><text fill="#e1ed5e" style="font-size:6.75px; font-family:Arial;" text-anchor="middle"><textPath startOffset="22.20632615414155" xlink:href="#id13">January</textPath></text><line stroke="#e1ed5e" stroke-width="0.3" x1="143.23703022742887" x2="145.7803849466894" y1="26.81831364943548" y2="22.513508569990506" /><path d="M 143.74570117128098 25.957352633546492 a86.0,86.0 0 0,1 28.547481713284135,27.462654790039103" fill="none" id="id14" stroke="none" /><text fill="#e1ed5e" style="font-size:6.75px; font-family:Arial;" text-anchor="middle"><textPath startOffset="19.985693538727396" xlink:href="#id14">February</textPath></text><path d="M 115.19652480421416 85.50635884689758 l 24.040855990747318 -22.928896193863874 a54.22193608802528,54.22193608802528 0 0,0 0.6383540222375662,0.6809515629759881 l -24.431977334955345 22.511675214009834" fill="#8aff24" stroke="none" /><line stroke="#e1ed5e" stroke-width="0.3" x1="172.23445277983987" x2="176.4835382374775" y1="55.19839476539836" y2="52.563006222186495" /><path d="M 173.08426987136738 54.67131705675599 a86.0,86.0 0 0,1 12.851231095245387,41.99856678651699" fill="none" id="id15" stroke="none" /><text fill="#e1ed5e" style="font-size:6.75px; font-family:Arial;" text-anchor="middle"><textPath startOffset="22.20632615414155" xlink:href="#id15">March</textPath></text><path d="M 119.196687751892 91.48605970444005 l 31.5622938268846 -13.998221396632912 a55.527215263958794,55.527215263958794 0 0,0 0.37998936619029433,0.8770678477037609 l -31.798573902917575 13.452854404342549" fill="#7bff26" stroke="none" /><path d="M 119.34039704204932 91.81776055985345 l 17.047078277728136 -7.212017205232765 a39.50989113894417,39.50989113894417 0 0,0 0.2595956252695949,0.6286313975306168 l -17.168695589883928 6.917511237248846" fill="#ffb410" stroke="none" /><path d="M 120.08093135843002 93.85539295169968 l 29.52552719106162 -9.034579086234373 a51.876858246517614,51.876858246517614 0 0,0 0.2539350049578175,0.8561425988647118 l -29.67666809313114 8.525007100623132" fill="#a7ff21" stroke="none" /><path d="M 120.18372546131832 94.20196356495316 l 17.556509879791225 -5.043334747610104 a39.26653400444809,39.26653400444809 0 0,0 0.18102476026839706,0.6512423784602204 l -17.640721410625986 4.740381065730932" fill="#ffb010" stroke="none" /><line stroke="#e1ed5e" stroke-width="0.3" x1="184.98032266829074" x2="189.97916517819016" y1="98.17113171792111" y2="98.06355123074" /><path d="M 185.9800911702706 98.14961562048488 a86.0,86.0 0 0,1 -9.607161424134198,41.387399972396054" fill="none" id="id16" stroke="none" /><text fill="#e1ed5e" style="font-size:6.75px; font-family:Arial;" text-anchor="middle"><textPath startOffset="21.466115282336823" xlink:href="#id16">April</textPath></text><path d="M 120.64145759157962 103.86396538481128 l 21.499202815155748 4.024530492104739 a42.87264427016271,42.87264427016271 0 0,0 -0.14203108263741568,0.7242134304352069 l -21.42674179954267 -4.39400764960789" fill="#ffe315" stroke="none" /><path d="M 120.5718875245553 104.21870165774334 l 27.448046347728372 5.62880379793836 a49.019255530843964,49.019255530843964 0 0,0 -0.17662329003587945,0.8251252101267078 l -27.34708901896805 -6.1004428274812375" fill="#caff1d" stroke="none" /><path d="M 119.9155931802556 106.66101706037122 l 28.708946507649273 9.60206310411701 a51.272152639587965,51.272152639587965 0 0,0 -0.2871464413187513,0.8345819687420546 l -28.539409235387293 -10.094817775948364" fill="#aeff20" stroke="none" /><line stroke="#e1ed5e" stroke-width="0.3" x1="174.80103733775053" x2="179.2010983576182" y1="140.37084112569926" y2="142.7455964860345" /><path d="M 175.68104954172406 140.8457921977663 a86.0,86.0 0 0,1 -30.038265399797805,32.042727171017184" fill="none" id="id17" stroke="none" /><text fill="#e1ed5e" style="font-size:6.75px; font-family:Arial;" text-anchor="middle"><textPath startOffset="22.206326154141568" xlink:href="#id17">May</textPath></text><path d="M 117.94076556474637 110.91462005526583 l 53.8222966942391 32.74386016579747 a84.0,84.0 0 0,0 -0.7621414413281484,1.228814674538906 l -53.25069061324299 -33.665471171701654" fill="#4dd2ff" stroke="none" /><path d="M 116.498646956653 112.99209946851258 l 40.8400898036218 32.160122610398616 a72.98255882008662,72.98255882008662 0 0,0 -0.7857166324583152,0.9803023084468863 l -40.28045525910863 -32.858352752423755" fill="#3effb5" stroke="none" /><path d="M 113.48314897796784 116.09983520530334 l 4.611700961444694 5.506697702200206 a28.182722696944868,28.182722696944868 0 0,0 -0.3746018935075637,0.3082718555896582 l -4.51622893939244 -5.585264676647043" fill="#ff0901" stroke="none" /><path d="M 112.92097659922987 116.55440617244103 l 9.875631125444402 12.652697542192879 a37.050509188809556,37.050509188809556 0 0,0 -0.5061298419503472,0.3880787803238844 l -9.65637255500056 -12.820815664344135" fill="#ff900d" stroke="none" /><path d="M 112.63410532772338 116.77436683061366 l 23.22365363618214 30.83416475764271 a59.60160365211284,59.60160365211284 0 0,0 -0.8248153242123705,0.6101786583028432 l -22.689453341551204 -31.229353364685323" fill="#4dff2c" stroke="none" /><path d="M 112.34349029814194 116.9893568818739 l 9.833035610910096 13.534012438205874 a37.72895938195013,37.72895938195013 0 0,0 -0.5286953188003506,0.3772100722327052 l -9.59861296426086 -13.701266772282798" fill="#ff9a0e" stroke="none" /><path d="M 111.45004920935366 117.60387380957326 l 8.932325056272685 13.732999766346836 a37.38235982675875,37.38235982675875 0 0,0 -0.5424326343639594,0.34620617156290845 l -8.694610619861795 -13.884720366733553" fill="#ff950d" stroke="none" /><line stroke="#e1ed5e" stroke-width="0.3" x1="143.8653032363475" x2="146.44561519142675" y1="172.8068346515853" y2="177.08958963109032" /><path d="M 144.38136562736335 173.6633856474863 a86.0,86.0 0 0,1 -40.68145358897372,12.25698825130547" fill="none" id="id18" stroke="none" /><text fill="#e1ed5e" style="font-size:6.75px; font-family:Arial;" text-anchor="middle"><textPath startOffset="21.466115282336833" xlink:href="#id18">June</textPath></text><path d="M 110.5260780823613 118.17145234162733 l 7.764260919583247 13.40365292412087 a36.49005033360646,36.49005033360646 0 0,0 -0.5462234436893668,0.3101599268830198 l -7.5323887089726815 -13.535316016798518" fill="#ff880c" stroke="none" /><path d="M 109.57404056367764 118.69057910512821 l 7.352836256384054 14.354312244966197 a37.127941004331035,37.127941004331035 0 0,0 -0.5713213833968847,0.28647240207256247 l -7.104660965304409 -14.47875248794806" fill="#ff910d" stroke="none" /><path d="M 109.2508944713604 118.85261126421891 l 11.415536640182754 23.263985479034964 a46.913847594521826,46.913847594521826 0 0,0 -0.7280299345915436,0.34949861091020673 l -11.013394037590977 -23.45703836644473" fill="#e5ff1a" stroke="none" /><path d="M 107.93186726928326 119.44442032107085 l 6.134825351959399 15.039097187343508 a37.242245112957974,37.242245112957974 0 0,0 -0.5956612006821614,0.23702588479759487 l -5.8750430752353715 -15.142469916547173" fill="#ff930d" stroke="none" /><path d="M 107.59598834532513 119.57807347666477 l 8.015214242907966 20.658595859410244 a43.15899912546045,43.15899912546045 0 0,0 -0.6949210879285445,0.262759693420786 l -7.658422934219146 -20.793503802937664" fill="#ffe715" stroke="none" /><path d="M 107.2578585660854 119.70592522655815 l 5.640281285290996 15.314015870200105 a37.31967692847945,37.31967692847945 0 0,0 -0.604721717256159,0.21683169283990694 l -5.3758400074051025 -15.408835104079973" fill="#ff940d" stroke="none" /><path d="M 106.91757812671514 119.82793768551818 l 18.363940415285487 52.63678408034896 a76.74823177372923,76.74823177372923 0 0,0 -1.2511067942712537,0.42444335233578484 l -17.455163888077006 -52.94509041958287" fill="#43ffe0" stroke="none" /><path d="M 105.88484417918355 120.15858648285463 l 3.8644475998150223 13.237699891000178 a34.79023762144446,34.79023762144446 0 0,0 -0.5763066344159564,0.1628700114573265 l -3.63600979729446 -13.302258695796022" fill="#ff6f0a" stroke="none" /><path d="M 105.53697534728816 120.25689768951611 l 10.157029538671617 37.15926029813986 a59.52240743975331,59.52240743975331 0 0,0 -0.9906500127172291,0.26163967223647344 l -9.515889083142891 -37.328591319679916" fill="#4dff2c" stroke="none" /><path d="M 105.18746579009965 120.34920634021253 l 6.0087285176087 23.570826564388742 a45.32465176167622,45.32465176167622 0 0,0 -0.7576700057663937,0.18621685339772429 l -5.602105227099095 -23.670764676100497" fill="#faff18" stroke="none" /><path d="M 104.83641907484287 120.43548508189849 l 1.726402899301571 7.294628556391136 a28.496137188341333,28.496137188341333 0 0,0 -0.4783006751917648,0.10885967646034103 l -1.6005820747169441 -7.323264966429162" fill="#ff0e01" stroke="none" /><path d="M 102.70371172650421 120.8252237178851 l 1.0795224978468752 8.314975781541152 a29.384759452183076,29.384759452183076 0 0,0 -0.5021611594104881,0.06080472312035059 l -0.9362339153850068 -8.332326033386853" fill="#ff1c02" stroke="none" /><path d="M 102.34483914955558 120.86867818915974 l 1.8255326212916088 16.246936513648766 a37.34917476296383,37.34917476296383 0 0,0 -0.6395021804020219,0.06628701576532912 l -1.5455978442839842 -16.275952897869853" fill="#ff950d" stroke="none" /><path d="M 101.98527174616119 120.90594882070398 l 0.7550214097246527 7.9507699541691705 a28.986538686644035,28.986538686644035 0 0,0 -0.4971269817618799,0.042894207787662536 l -0.6180501102212311 -7.962588414235497" fill="#ff1502" stroke="none" /><path d="M 101.26447882468166 120.96189622390904 l 0.5832469634388495 9.668775848099441 a30.68635139880604,30.68635139880604 0 0,0 -0.5275304281821758,0.027267297469747473 l -0.41672846684319426 -9.67738295233139" fill="#ff3004" stroke="none" /><path d="M 100.90346689309514 120.98055641714683 l 0.31774157559456345 7.378682167308633 a28.385520309024933,28.385520309024933 0 0,0 -0.4883386092750735,0.016819369094543138 l -0.19068261464483768 -7.38305833482927" fill="#ff0c01" stroke="none" /><line stroke="#e1ed5e" stroke-width="0.3" x1="102.19456741930631" x2="102.32365962044197" y1="184.97166512339345" y2="189.96999836594603" /><path d="M 102.22038585953345 185.97133177190398 a86.0,86.0 0 0,1 -42.740103519485714,-10.115201625700543" fill="none" id="id19" stroke="none" /><text fill="#e1ed5e" style="font-size:6.75px; font-family:Arial;" text-anchor="middle"><textPath startOffset="22.20632615414155" xlink:href="#id19">July</textPath></text><path d="M 100.54218724476979 120.99299961872073 l 0.20553358213589837 7.958074360906835 a28.960728081470208,28.960728081470208 0 0,0 -0.4984559304143196,0.00858137088090606 l -0.06851796182891083 -7.960433209066901" fill="#ff1502" stroke="none" /><path d="M 100.18074693466247 120.99922214144158 l 0.15096801501627088 17.539500127619846 a38.540149830270394,38.540149830270394 0 0,0 -0.6634298993574406,0.0 l 0.15096801501625878 -17.539500127619846" fill="#ffa60f" stroke="none" /><path d="M 98.01472825383883 120.90594882070398 l -3.440232553746202 36.22744636295189 a57.390425526564144,57.390425526564144 0 0,0 -0.9826536326803211,-0.10185606685560361 l 4.063318783032117 -36.16286092764052" fill="#65ff29" stroke="none" /><path d="M 97.65516085044442 120.86867818915974 l -1.3945573255319568 12.41132810682451 a33.489429751171464,33.489429751171464 0 0,0 -0.5723065693020177,-0.06929835538698746 l 1.607991317885364 -12.385484222712174" fill="#ff5b08" stroke="none" /><path d="M 96.93821686468263 120.77559828337769 l -2.7073287842897527 18.3704634709862 a39.56888680791291,39.56888680791291 0 0,0 -0.6729803468914549,-0.105105689644579 l 3.023144994789725 -18.321139473994513" fill="#ffb510" stroke="none" /><path d="M 95.86986931433489 120.58985236759428 l -3.737227356635898 18.631119786195377 a40.00224967741316,40.00224967741316 0 0,0 -0.6739589284715397,-0.1412346462411349 l 4.057377746536824 -18.5640291592277" fill="#ffbb11" stroke="none" /><path d="M 95.16358092515715 120.4354850818985 l -4.324186090613939 18.27112973020549 a39.77585595823152,39.77585595823152 0 0,0 -0.6649135038411605,-0.16341956197898141 l 4.63805287919831 -18.193988909912477" fill="#ffb811" stroke="none" /><path d="M 93.76903079525671 120.05430185196036 l -8.89864887261488 28.640197809062634 a50.99077995485156,50.99077995485156 0 0,0 -0.8359541493152446,-0.2676461200487897 l 9.390324367021066 -28.48277884235414" fill="#b1ff20" stroke="none" /><path d="M 93.08242187328487 119.8279376855182 l -2.2227992369434983 6.3712362838844845 a27.747850638006355,27.747850638006355 0 0,0 -0.4496214669848344,-0.16121826129519673 l 2.3321402645580593 -6.33203048154933" fill="#ff0200" stroke="none" /><path d="M 92.7421414339146 119.70592522655815 l -2.818100621874919 7.651469042822176 a29.153935836654462,29.153935836654462 0 0,0 -0.4694197089722309,-0.17749436728548615 l 2.949390551607433 -7.601826425430056" fill="#ff1802" stroke="none" /><path d="M 92.40401165467489 119.57807347666478 l -2.908602639933892 7.496698732310863 a29.041172874653405,29.041172874653405 0 0,0 -0.4644913283629031,-0.1848306855641129 l 3.037215044338653 -7.445521202340684" fill="#ff1602" stroke="none" /><path d="M 91.7346041902142 119.30500536409082 l -3.8096001065484764 8.897861903344863 a30.679101168125584,30.679101168125584 0 0,0 -0.4836769579452313,-0.2120297644076476 l 3.962197739151451 -8.830967585642764" fill="#ff3004" stroke="none" /><path d="M 91.40352486487194 119.15986991738527 l -4.1375197908178825 9.221726315328532 a31.10738869610902,31.10738869610902 0 0,0 -0.4866558454654579,-0.22339982969128094 l 4.29564363205076 -9.149139415303177" fill="#ff3705" stroke="none" /><line stroke="#e1ed5e" stroke-width="0.3" x1="58.666819895761336" x2="56.23545636021788" y1="174.27360380694188" y2="178.64263932499728" /><path d="M 58.180547188652646 175.14741091055294 a86.0,86.0 0 0,1 -31.652253787137756,-30.449443065178592" fill="none" id="id20" stroke="none" /><text fill="#e1ed5e" style="font-size:6.75px; font-family:Arial;" text-anchor="middle"><textPath startOffset="22.20632615414155" xlink:href="#id20">August</textPath></text><path d="M 87.65650970185807 116.9893568818739 l -10.99809111051977 15.137573764214148 a39.711070186986056,39.711070186986056 0 0,0 -0.5495539922429249,-0.40654690548089784 l 11.257030073181259 -14.946016909993483" fill="#ffb710" stroke="none" /><path d="M 84.67929136418377 114.36230785411682 l -13.728848084850306 12.870027579277002 a39.81804664752026,39.81804664752026 0 0,0 -0.4644558834716052,-0.5040751303573718 l 13.94835037631764 -12.631801194118287" fill="#ffb811" stroke="none" /><path d="M 84.19399662182784 113.82643327865904 l -6.087587298939159 5.325167760816204 a29.088023912121034,29.088023912121034 0 0,0 -0.32641955793693433,-0.37969969021187566 l 6.178349366446872 -5.219590971442798" fill="#ff1702" stroke="none" /><path d="M 83.95833913139862 113.55231037782056 l -14.385108718297264 12.152822564067467 a39.83142185579568,39.83142185579568 0 0,0 -0.4379635541157735,-0.5275553143972604 l 14.592168272306573 -11.903405992556445" fill="#ffb811" stroke="none" /><path d="M 83.06392112726016 112.41649034213515 l -15.109993697549333 11.077717116523623 a39.73573393421515,39.73573393421515 0 0,0 -0.39966618912821633,-0.55510138090636 l 15.298439679053157 -10.815982130166125" fill="#ffb711" stroke="none" /><path d="M 82.85270091963577 112.12312394758628 l -13.052808850714653 9.228323295682772 a36.98554877828522,36.98554877828522 0 0,0 -0.3630555939650649,-0.5230086610723933 l 13.209725351841852 -9.002273372423366" fill="#ff8f0d" stroke="none" /><line stroke="#e1ed5e" stroke-width="0.3" x1="26.63291911575756" x2="22.317208475507996" y1="142.92168965132927" y2="145.44649492493687" /><path d="M 25.769776987707644 143.4266507060508 a86.0,86.0 0 0,1 -11.730757126820373,-40.83630448921669" fill="none" id="id21" stroke="none" /><text fill="#e1ed5e" style="font-size:6.75px; font-family:Arial;" text-anchor="middle"><textPath startOffset="21.46611528233685" xlink:href="#id21">September</textPath></text><path d="M 81.87401531095188 110.60418214915194 l -32.25746804203444 18.871474993292846 a58.37213952806757,58.37213952806757 0 0,0 -0.4999101321160891,-0.8716354528948497 l 32.57753017030291 -18.31341969453969" fill="#5aff2a" stroke="none" /><path d="M 81.35079622478065 109.6543875284942 l -7.1644769715314585 3.7089324539445983 a29.06758391487365,29.06758391487365 0 0,0 -0.22620301092704614,-0.44632000044427567 l 7.227258652244771 -3.5850582417976375" fill="#ff1702" stroke="none" /><path d="M 80.87730276802145 108.67885076344099 l -13.018338527396798 5.908382896858794 a35.29636759704357,35.29636759704357 0 0,0 -0.2463332070451765,-0.5554163518194455 l 13.118112819173255 -5.6834182085466525" fill="#ff760a" stroke="none" /><path d="M 80.73074385275274 108.34839909993369 l -37.44966233209793 16.225054299813763 a61.81335070562156,61.81335070562156 0 0,0 -0.41458808552869714,-0.9799637668491968 l 37.723401398818936 -15.578016007298407" fill="#34ff2f" stroke="none" /><path d="M 79.86692584326677 105.97154293290107 l -18.675080601749478 5.539096747996584 a40.47922555610222,40.47922555610222 0 0,0 -0.19238689350700908,-0.6697240150871919 l 18.76766013214259 -5.216815257404796" fill="#ffc112" stroke="none" /><path d="M 79.76711848015287 105.62410040840567 l -18.178938166609317 5.053169192283268 a39.86818252379507,39.86818252379507 0 0,0 -0.17810051882449748,-0.6627782855652088 l 18.26322676177559 -4.73949997354252" fill="#ffb911" stroke="none" /><path d="M 79.29508885075956 103.50808413554451 l -37.258163161565534 6.3127424292961445 a58.78917092438619,58.78917092438619 0 0,0 -0.1604615304733348,-0.9991941034299641 l 37.36130644640016 -5.670469096172967" fill="#56ff2b" stroke="none" /><line stroke="#e1ed5e" stroke-width="0.3" x1="15.007084014347285" x2="10.007500721073583" y1="101.09737516637583" y2="101.16192664675087" /><path d="M 14.007167355692545 101.11028546245083 a86.0,86.0 0 0,1 10.666146001902534,-42.60595125391555" fill="none" id="id22" stroke="none" /><text fill="#e1ed5e" style="font-size:6.75px; font-family:Arial;" text-anchor="middle"><textPath startOffset="22.20632615414155" xlink:href="#id22">October</textPath></text><path d="M 79.08570108090925 98.10471618934814 l -6.619337498248603 -0.5998538725206637 a27.646461734193473,27.646461734193473 0 0,0 0.0470290989457937,-0.47357660834442966 l 6.608031273620581 0.7137060115695237" fill="#ff0000" stroke="none" /><path d="M 79.3925641242962 95.95851677861259 l -18.73312423759395 -3.6738975070481006 a40.08998340998295,40.08998340998295 0 0,0 0.1386363248566261,-0.6760399556895377 l 18.667108616822333 3.9958131189010406" fill="#ffbc11" stroke="none" /><path d="M 79.91906864156998 93.8553929516997 l -18.153801404439097 -5.554920440297823 a39.9846687232054,39.9846687232054 0 0,0 0.2070530217616001,-0.6564146613247624 l 18.055492898909293 5.8665852680490005" fill="#ffba11" stroke="none" /><line stroke="#e1ed5e" stroke-width="0.3" x1="26.266209847984243" x2="21.928928074336255" y1="57.711370442889674" y2="55.22380399835377" /><path d="M 25.398753493254645 57.213857153982495 a86.0,86.0 0 0,1 29.58750427330803,-30.492523968695096" fill="none" id="id23" stroke="none" /><text fill="#e1ed5e" style="font-size:6.75px; font-family:Arial;" text-anchor="middle"><textPath startOffset="21.46611528233685" xlink:href="#id23">November</textPath></text><path d="M 81.96595687620814 89.24020034530311 l -12.186001754928487 -7.270634575661701 a35.1901644072198,35.1901644072198 0 0,0 0.3148417118012987,-0.5175169921471829 l 12.059044244840972 7.479319341015959" fill="#ff750a" stroke="none" /><path d="M 85.31137513191541 84.99185889309783 l -26.04226238241472 -26.60875011026252 a58.23204281831617,58.23204281831617 0 0,0 0.7224010910880934,-0.6949492772691039 l 25.5803780477142 27.053082474293937" fill="#5cff2a" stroke="none" /><line stroke="#e1ed5e" stroke-width="0.3" x1="56.762969772571076" x2="54.21961505331055" y1="26.818313649435495" y2="22.513508569990535" /><path d="M 56.25429882871897 25.957352633546506 a86.0,86.0 0 0,1 42.265352541879196,-11.944610805530505" fill="none" id="id24" stroke="none" /><text fill="#e1ed5e" style="font-size:6.75px; font-family:Arial;" text-anchor="middle"><textPath startOffset="22.20632615414155" xlink:href="#id24">December</textPath></text><path d="M 89.3179101791058 81.91981866633112 l -4.222245861795531 -7.146445320772058 a29.300544611062236,29.300544611062236 0 0,0 0.43644314737552015,-0.2528160414158064 l 4.098605981954691 7.2180655195779115" fill="#ff1a02" stroke="none" /><path d="M 96.04723909329186 79.375362276772 l -7.03653255697321 -36.715080481842904 a58.3832840346263,58.3832840346263 0 0,0 0.9886371737499366,-0.18066712429302087 l 6.403500262120381 36.83076308748666" fill="#5aff2a" stroke="none" /><path d="M 98.55514903715128 79.0497635885617 l -1.181466810381894 -17.131184894645994 a38.171877000449925,38.171877000449925 0 0,0 0.6558981851803938,-0.03956556971032718 l 0.8864065763618773 17.148983733736628" fill="#ffa10e" stroke="none" /></svg>