<?xml version="1.0" encoding="utf-8" ?>
<svg baseProfile="full" height="200mm" version="1.1" viewBox="0,0,200,200" width="200mm" xmlns="http://www.w3.org/2000/svg" xmlns:ev="http://www.w3.org/2001/xml-events" xmlns:xlink="http://www.w3.org/1999/xlink"><defs /><rect fill="#1a1a1a" height="200" width="200" x="0" y="0" /><text alignment-baseline="middle" fill="#e1ed5e" style="dominant-baseline: central; font-size:9.0px; font-family:Arial;" text-anchor="middle" x="100.0" y="100.0">2025</text><line stroke="#e1ed5e" stroke-width="0.3" x1="100.0" x2="100.0" y1="15.0" y2="10.0" /><path d="M 100.0 14.0 a86.0,86.0 0 0,1 42.46469731375804,11.215312516191453" fill="none" id="id13" stroke="none" /><text fill="#e1ed5e" style="font-size:6.75px; font-family:Arial;" text-anchor="middle"><textPath startOffset="22.20632615414155" xlink:href="#id13">January</textPath></text><path d="M 100.0 79.0 l 0.0 -25.675286256736626 a46.67528625673663,46.67528625673663 0 0,0 0.8034383260127435,0.00691544732652379 l -0.4419578467402151 25.67148218601866" fill="red" stroke="none" /><path d="M 100.72285384407766 79.0124445844662 l 0.8221524697559305 -23.870621509991945 a44.88477561035096,44.88477561035096 0 0,0 0.7719308665631421,0.03324096691392052 l -1.2329241687084043 23.85293281655383" fill="red" stroke="none" /><path d="M 101.44485096284872 79.0497635885617 l 1.642455410430271 -23.81548687618031 a44.87205636146095,44.87205636146095 0 0,0 0.7701109207693569,0.05977542913220536 l -2.052156520561969 23.783686184859636" fill="red" stroke="none" /><path d="M 101.80526077348638 79.07773832637324 l 2.0544979305198736 -23.81082220451064 a44.89929320715002,44.89929320715002 0 0,0 0.7694346398409989,0.07306709033370046 l -2.4640576974511164 23.77192956966176" fill="red" stroke="none" /><path d="M 102.16513564639614 79.11191278185805 l 2.561470741848054 -24.711719264101845 a45.84411804329399,45.84411804329399 0 0,0 0.784225411875323,0.088116862561847 l -2.9864628572331022 24.6639664480694" fill="red" stroke="none" /><path d="M 102.52436894288641 79.15227682838746 l 2.8727366287379437 -23.724748377073936 a44.89803969562284,44.89803969562284 0 0,0 0.7664421880833742,0.09950619305130669 l -3.280693545329164 23.671783860858493" fill="red" stroke="none" /><path d="M 102.88285421437855 79.19881850522331 l 6.554985137300984 -47.29737454516196 a68.74944469850483,68.74944469850483 0 0,0 1.1708063810709537,0.17254642602293502 l -7.368160498800593 47.177533634978055" fill="red" stroke="none" /><path d="M 103.2404852339499 79.25152402106235 l 3.694550436797081 -23.655806293374052 a44.942574513190365,44.942574513190365 0 0,0 0.7633192252277315,0.1259542125340777 l -4.101198868163688 23.588705817900347" fill="red" stroke="none" /><path d="M 104.307194497241 79.44645832069477 l 5.154489835995483 -24.596758225696718 a46.13104217263502,46.13104217263502 0 0,0 0.775786342173643,0.16955684640464616 l -5.5771189023226535 24.5043878811962" fill="red" stroke="none" /><path d="M 106.0581310904928 79.89281104454417 l 13.095355454272111 -43.46402919064101 a66.3939441771546,66.3939441771546 0 0,0 1.0914362234943715,0.3391145474790029 l -13.841577050477202 43.23217450827948" fill="red" stroke="none" /><path d="M 106.40334571778207 80.00007090966166 l 17.935678970716747 -56.01951283143508 a79.82069702079303,79.82069702079303 0 0,0 1.3049436394200828,0.4302194010864497 l -18.897305432379245 55.70247970608939" fill="red" stroke="none" /><path d="M 106.74666289553966 80.11325718540242 l 1.6419786759749133 -4.839964311504948 a26.110904862057,26.110904862057 0 0,0 0.4243867485529438,0.14806020351787655 l -1.7250474285911308 4.8109832548148646" fill="red" stroke="none" /><path d="M 108.09893153111575 80.62456947434976 l 9.211495375778519 -22.03706600124292 a44.884805316374795,44.884805316374795 0 0,0 0.7102833254786167,0.3041062517958115 l -9.58946245904745 21.87524022148432" fill="red" stroke="none" /><path d="M 109.73455568895987 81.39251694778311 l 3.1549584300532962 -6.030664099466283 a27.80607612181614,27.80607612181614 0 0,0 0.4221954813358059,0.22552220457413766 l -3.2582989579174133 5.975463168390391" fill="red" stroke="none" /><line stroke="#e1ed5e" stroke-width="0.3" x1="143.23703022742887" x2="145.7803849466894" y1="26.81831364943548" y2="22.513508569990506" /><path d="M 143.74570117128098 25.957352633546492 a86.0,86.0 0 0,1 28.547481713284135,27.462654790039103" fill="none" id="id14" stroke="none" /><text fill="#e1ed5e" style="font-size:6.75px; font-family:Arial;" text-anchor="middle"><textPath startOffset="19.985693538727396" xlink:href="#id14">February</textPath></text><path d="M 114.16331599549186 84.49514656593476 l 9.768547542619753 -10.693816191083126 a35.483860874127934,35.483860874127934 0 0,0 0.44742126723759873,0.41582930616611347 l -9.951176693652199 10.524082298842371" fill="red" stroke="none" /><path d="M 114.42810811169701 84.74124197986012 l 9.952260636419169 -10.525228645976787 a35.485438544459356,35.485438544459356 0 0,0 0.44021673088540103,0.423488146328497 l -10.131960610916988 10.352357412885988" fill="red" stroke="none" /><path d="M 114.94478906791727 85.2469230424477 l 27.800215935640338 -27.443594103013417 a60.064086618775356,60.064086618775356 0 0,0 0.7200131938084595,0.7420368871661713 l -28.268493393151907 26.96099302029713" fill="red" stroke="none" /><path d="M 115.19652480421416 85.50635884689758 l 34.58774885502568 -32.987964462727334 a68.79663346149488,68.79663346149488 0 0,0 0.8099417109572304,0.8639893456965129 l -35.15045788795337 32.387705700152765" fill="red" stroke="none" /><path d="M 115.4437574822437 85.77008943001954 l 34.68786574064996 -31.961472324365094 a68.16761328265946,68.16761328265946 0 0,0 0.7876811841459103,0.8697772370274224 l -35.23289056541191 31.35964230006812" fill="red" stroke="none" /><path d="M 115.68641384162765 86.03803664274999 l 35.632493221190096 -31.71531554022127 a68.70257658632245,68.70257658632245 0 0,0 0.778655820033846,0.8901382065673298 l -36.17314090480179 31.097261777450992" fill="red" stroke="none" /><path d="M 115.9244219780498 86.31012108654704 l 47.68900459871764 -40.99719910458554 a83.88888211788743,83.88888211788743 0 0,0 0.9319231354539763,1.103103048689214 l -48.38763834765873 40.17023710626722" fill="red" stroke="none" /><path d="M 116.15771136456269 86.58626213691792 l 36.78187652224361 -30.53541672143751 a68.80500093974919,68.80500093974919 0 0,0 0.7486688794007998,0.9177795225406308 l -37.302043893720814 29.89775302928878" fill="red" stroke="none" /><path d="M 116.38621287248628 86.86637796730983 l 49.158638617458855 -39.400866098070516 a84.0,84.0 0 0,0 0.8945836776241438,1.1360304241878465 l -49.829576375676965 38.54884327992963" fill="red" stroke="none" /><path d="M 116.60985879189232 87.15038557335679 l 49.10952626431229 -37.99180264431544 a83.08963390188246,83.08963390188246 0 0,0 0.8654143834434221,1.1387838858777701 l -49.75621658797982 37.140833982556636" fill="red" stroke="none" /><path d="M 116.82858285166822 87.43820079747576 l 49.642768031247165 -37.056149609424736 a82.94806406725141,82.94806406725141 0 0,0 0.8442429767041265,1.1515464714450885 l -50.27327362046492 36.196140694308156" fill="red" stroke="none" /><path d="M 117.2510076193507 88.02491185347247 l 44.842490434704274 -31.128197698031794 a75.5876693064862,75.5876693064862 0 0,0 0.7327523889487149,1.0752237138864946 l -45.37166728932172 30.351695960874892" fill="red" stroke="none" /><line stroke="#e1ed5e" stroke-width="0.3" x1="172.23445277983987" x2="176.4835382374775" y1="55.19839476539836" y2="52.563006222186495" /><path d="M 173.08426987136738 54.67131705675599 a86.0,86.0 0 0,1 12.851231095245387,41.99856678651699" fill="none" id="id15" stroke="none" /><text fill="#e1ed5e" style="font-size:6.75px; font-family:Arial;" text-anchor="middle"><textPath startOffset="22.20632615414155" xlink:href="#id15">March</textPath></text><line stroke="#e1ed5e" stroke-width="0.3" x1="184.98032266829074" x2="189.97916517819016" y1="98.17113171792111" y2="98.06355123074" /><path d="M 185.9800911702706 98.14961562048488 a86.0,86.0 0 0,1 -9.607161424134198,41.387399972396054" fill="none" id="id16" stroke="none" /><text fill="#e1ed5e" style="font-size:6.75px; font-family:Arial;" text-anchor="middle"><textPath startOffset="21.466115282336823" xlink:href="#id16">April</textPath></text><line stroke="#e1ed5e" stroke-width="0.3" x1="174.80103733775053" x2="179.2010983576182" y1="140.37084112569926" y2="142.7455964860345" /><path d="M 175.68104954172406 140.8457921977663 a86.0,86.0 0 0,1 -30.038265399797805,32.042727171017184" fill="none" id="id17" stroke="none" /><text fill="#e1ed5e" style="font-size:6.75px; font-family:Arial;" text-anchor="middle"><textPath startOffset="22.206326154141568" xlink:href="#id17">May</textPath></text><line stroke="#e1ed5e" stroke-width="0.3" x1="143.8653032363475" x2="146.44561519142675" y1="172.8068346515853" y2="177.08958963109032" /><path d="M 144.38136562736335 173.6633856474863 a86.0,86.0 0 0,1 -40.68145358897372,12.25698825130547" fill="none" id="id18" stroke="none" /><text fill="#e1ed5e" style="font-size:6.75px; font-family:Arial;" text-anchor="middle"><textPath startOffset="21.466115282336833" xlink:href="#id18">June</textPath></text><line stroke="#e1ed5e" stroke-width="0.3" x1="102.19456741930631" x2="102.32365962044197" y1="184.97166512339345" y2="189.96999836594603" /><path d="M 102.22038585953345 185.97133177190398 a86.0,86.0 0 0,1 -42.740103519485714,-10.115201625700543" fill="none" id="id19" stroke="none" /><text fill="#e1ed5e" style="font-size:6.75px; font-family:Arial;" text-anchor="middle"><textPath startOffset="22.20632615414155" xlink:href="#id19">July</textPath></text><line stroke="#e1ed5e" stroke-width="0.3" x1="58.666819895761336" x2="56.23545636021788" y1="174.27360380694188" y2="178.64263932499728" /><path d="M 58.180547188652646 175.14741091055294 a86.0,86.0 0 0,1 -31.652253787137756,-30.449443065178592" fill="none" id="id20" stroke="none" /><text fill="#e1ed5e" style="font-size:6.75px; font-family:Arial;" text-anchor="middle"><textPath startOffset="22.20632615414155" xlink:href="#id20">August</textPath></text><line stroke="#e1ed5e" stroke-width="0.3" x1="26.63291911575756" x2="22.317208475507996" y1="142.92168965132927" y2="145.44649492493687" /><path d="M 25.769776987707644 143.4266507060508 a86.0,86.0 0 0,1 -11.730757126820373,-40.83630448921669" fill="none" id="id21" stroke="none" /><text fill="#e1ed5e" style="font-size:6.75px; font-family:Arial;" text-anchor="middle"><textPath startOffset="21.46611528233685" xlink:href="#id21">September</textPath></text><line stroke="#e1ed5e" stroke-width="0.3" x1="15.007084014347285" x2="10.007500721073583" y1="101.09737516637583" y2="101.16192664675087" /><path d="M 14.007167355692545 101.11028546245083 a86.0,86.0 0 0,1 10.666146001902534,-42.60595125391555" fill="none" id="id22" stroke="none" /><text fill="#e1ed5e" style="font-size:6.75px; font-family:Arial;" text-anchor="middle"><textPath startOffset="22.20632615414155" xlink:href="#id22">October</textPath></text><line stroke="#e1ed5e" stroke-width="0.3" x1="26.266209847984243" x2="21.928928074336255" y1="57.711370442889674" y2="55.22380399835377" /><path d="M 25.398753493254645 57.213857153982495 a86.0,86.0 0 0,1 29.58750427330803,-30.492523968695096" fill="none" id="id23" stroke="none" /><text fill="#e1ed5e" style="font-size:6.75px; font-family:Arial;" text-anchor="middle"><textPath startOffset="21.46611528233685" xlink:href="#id23">November</textPath></text><line stroke="#e1ed5e" stroke-width="0.3" x1="56.762969772571076" x2="54.21961505331055" y1="26.818313649435495" y2="22.513508569990535" /><path d="M 56.25429882871897 25.957352633546506 a86.0,86.0 0 0,1 42.265352541879196,-11.944610805530505" fill="none" id="id24" stroke="none" /><text fill="#e1ed5e" style="font-size:6.75px; font-family:Arial;" text-anchor="middle"><textPath startOffset="22.20632615414155" xlink:href="#id24">December</textPath></text></svg>