<?xml version="1.0" encoding="utf-8" ?>
<svg baseProfile="full" height="200mm" version="1.1" viewBox="0,0,200,200" width="200mm" xmlns="http://www.w3.org/2000/svg" xmlns:ev="http://www.w3.org/2001/xml-events" xmlns:xlink="http://www.w3.org/1999/xlink"><defs /><rect fill="#1a1a1a" height="200" width="200" x="0" y="0" /><text alignment-baseline="middle" fill="#e1ed5e" style="dominant-baseline: central; font-size:9.0px; font-family:Arial;" text-anchor="middle" x="100.0" y="100.0">2018</text><line stroke="#e1ed5e" stroke-width="0.3" x1="100.0" x2="100.0" y1="15.0" y2="10.0" /><path d="M 100.0 14.0 a86.0,86.0 0 0,1 42.46469731375804,11.215312516191453" fill="none" id="id1" stroke="none" /><text fill="#e1ed5e" style="font-size:6.75px; font-family:Arial;" text-anchor="middle"><textPath startOffset="22.20632615414155" xlink:href="#id1">January</textPath></text><line stroke="#e1ed5e" stroke-width="0.3" x1="143.23703022742887" x2="145.7803849466894" y1="26.81831364943548" y2="22.513508569990506" /><path d="M 143.74570117128098 25.957352633546492 a86.0,86.0 0 0,1 28.547481713284135,27.462654790039103" fill="none" id="id2" stroke="none" /><text fill="#e1ed5e" style="font-size:6.75px; font-family:Arial;" text-anchor="middle"><textPath startOffset="19.985693538727396" xlink:href="#id2">February</textPath></text><line stroke="#e1ed5e" stroke-width="0.3" x1="172.23445277983987" x2="176.4835382374775" y1="55.19839476539836" y2="52.563006222186495" /><path d="M 173.08426987136738 54.67131705675599 a86.0,86.0 0 0,1 12.851231095245387,41.99856678651699" fill="none" id="id3" stroke="none" /><text fill="#e1ed5e" style="font-size:6.75px; font-family:Arial;" text-anchor="middle"><textPath startOffset="22.20632615414155" xlink:href="#id3">March</textPath></text><line stroke="#e1ed5e" stroke-width="0.3" x1="184.98032266829074" x2="189.97916517819016" y1="98.17113171792111" y2="98.06355123074" /><path d="M 185.9800911702706 98.14961562048488 a86.0,86.0 0 0,1 -9.607161424134198,41.387399972396054" fill="none" id="id4" stroke="none" /><text fill="#e1ed5e" style="font-size:6.75px; font-family:Arial;" text-anchor="middle"><textPath startOffset="21.466115282336823" xlink:href="#id4">April</textPath></text><line stroke="#e1ed5e" stroke-width="0.3" x1="174.80103733775053" x2="179.2010983576182" y1="140.37084112569926" y2="142.7455964860345" /><path d="M 175.68104954172406 140.8457921977663 a86.0,86.0 0 0,1 -30.038265399797805,32.042727171017184" fill="none" id="id5" stroke="none" /><text fill="#e1ed5e" style="font-size:6.75px; font-family:Arial;" text-anchor="middle"><textPath startOffset="22.206326154141568" xlink:href="#id5">May</textPath></text><line stroke="#e1ed5e" stroke-width="0.3" x1="143.8653032363475" x2="146.44561519142675" y1="172.8068346515853" y2="177.08958963109032" /><path d="M 144.38136562736335 173.6633856474863 a86.0,86.0 0 0,1 -40.68145358897372,12.25698825130547" fill="none" id="id6" stroke="none" /><text fill="#e1ed5e" style="font-size:6.75px; font-family:Arial;" text-anchor="middle"><textPath startOffset="21.466115282336833" xlink:href="#id6">June</textPath></text><line stroke="#e1ed5e" stroke-width="0.3" x1="102.19456741930631" x2="102.32365962044197" y1="184.97166512339345" y2="189.96999836594603" /><path d="M 102.22038585953345 185.97133177190398 a86.0,86.0 0 0,1 -42.740103519485714,-10.115201625700543" fill="none" id="id7" stroke="none" /><text fill="#e1ed5e" style="font-size:6.75px; font-family:Arial;" text-anchor="middle"><textPath startOffset="22.20632615414155" xlink:href="#id7">July</textPath></text><path d="M 90.10565033884886 118.52300852407294 l -13.892640557247313 26.00812668609838 a50.486066461517304,50.486066461517304 0 0,0 -0.7630059911128235,-0.41605170271634906 l 14.338269360228777 -25.765134331622264" fill="red" stroke="none" /><line stroke="#e1ed5e" stroke-width="0.3" x1="58.666819895761336" x2="56.23545636021788" y1="174.27360380694188" y2="178.64263932499728" /><path d="M 58.180547188652646 175.14741091055294 a86.0,86.0 0 0,1 -31.652253787137756,-30.449443065178592" fill="none" id="id8" stroke="none" /><text fill="#e1ed5e" style="font-size:6.75px; font-family:Arial;" text-anchor="middle"><textPath startOffset="22.20632615414155" xlink:href="#id8">August</textPath></text><path d="M 89.7882731507175 118.34994917583269 l -11.018742756830354 19.8001153530285 a43.65959531709329,43.65959531709329 0 0,0 -0.653545124935684,-0.3710999784185054 l 11.357936648687245 -19.607512208815358" fill="red" stroke="none" /><path d="M 89.4739219176387 118.17145234162733 l -10.701063340929311 18.47353411051374 a42.3491034743592,42.3491034743592 0 0,0 -0.6276381730649596,-0.37081969566404294 l 11.017469385022654 -18.286595842555947" fill="red" stroke="none" /><path d="M 89.1626897886671 117.98757091392108 l -27.645956178539752 45.88625660310192 a74.57095703897267,74.57095703897267 0 0,0 -1.0937812309027521,-0.6718897672104365 l 28.431716609374813 -45.403578369063105" fill="red" stroke="none" /><path d="M 87.95078237400918 117.19931262002967 l -34.81593976415764 49.69702189395295 a81.67902147191805,81.67902147191805 0 0,0 -1.1445668527252126,-0.8166180592846866 l 35.66623394473174 -49.09035957282405" fill="red" stroke="none" /><path d="M 87.36589467227662 116.77436683061367 l -23.514565820293335 31.220410365479175 a60.085148446767185,60.085148446767185 0 0,0 -0.8207953777896049,-0.6293508951786324 l 24.04848992657643 -30.811020128473178" fill="red" stroke="none" /><path d="M 86.79598089348748 116.32954008644616 l -27.472867479965355 33.97596498345327 a64.6935309185305,64.6935309185305 0 0,0 -0.8598998556799818,-0.707639039540493 l 28.053637464190025 -33.498030825055594" fill="red" stroke="none" /><path d="M 85.44109423537348 115.13401014063109 l -43.67671729387956 45.40203042189327 a84.0,84.0 0 0,0 -1.033400190496823,-1.0113995883097213 l 44.45176743675218 -44.64348073066098" fill="red" stroke="none" /><path d="M 84.19399662182784 113.82643327865904 l -40.53465856278831 35.458030640787385 a74.85471642971342,74.85471642971342 0 0,0 -0.8400035533627267,-0.9771139051978143 l 41.13900462572181 -34.75503963642804" fill="red" stroke="none" /><path d="M 83.95833913139862 113.55231037782056 l -23.674059675515934 20.00031089384391 a51.99150750399698,51.99150750399698 0 0,0 -0.5716689073446725,-0.6886120256153416 l 24.014824582754144 -19.589837611114806" fill="red" stroke="none" /><path d="M 83.72743513129214 113.27417163493432 l -25.821706194729323 21.063782059017317 a54.32331654317593,54.32331654317593 0 0,0 -0.5848347061040918,-0.7296712183117906 l 26.180458812888276 -20.616183007127265" fill="red" stroke="none" /><path d="M 82.6465618267979 111.8261652097733 l -47.19876234455599 32.16540466577461 a78.11686637212262,78.11686637212262 0 0,0 -0.7476784550400757,-1.1176778439399764 l 47.745443905006795 -31.34818990762881" fill="red" stroke="none" /><line stroke="#e1ed5e" stroke-width="0.3" x1="26.63291911575756" x2="22.317208475507996" y1="142.92168965132927" y2="145.44649492493687" /><path d="M 25.769776987707644 143.4266507060508 a86.0,86.0 0 0,1 -11.730757126820373,-40.83630448921669" fill="none" id="id9" stroke="none" /><text fill="#e1ed5e" style="font-size:6.75px; font-family:Arial;" text-anchor="middle"><textPath startOffset="21.46611528233685" xlink:href="#id9">September</textPath></text><path d="M 81.18737489456691 109.33194174019688 l -26.35656248117158 13.074087436905309 a50.42108339493545,50.42108339493545 0 0,0 -0.37899065770705864,-0.7808330082013525 l 26.577706395493358 -12.618465472738672" fill="red" stroke="none" /><path d="M 79.04373962182676 101.35467743843564 l -43.93540927125034 2.840120642430535 a65.02711066031736,65.02711066031736 0 0,0 -0.06259215227072888,-1.1176249258235198 l 43.977787774408604 -2.083424000271578" fill="red" stroke="none" /><line stroke="#e1ed5e" stroke-width="0.3" x1="15.007084014347285" x2="10.007500721073583" y1="101.09737516637583" y2="101.16192664675087" /><path d="M 14.007167355692545 101.11028546245083 a86.0,86.0 0 0,1 10.666146001902534,-42.60595125391555" fill="none" id="id10" stroke="none" /><text fill="#e1ed5e" style="font-size:6.75px; font-family:Arial;" text-anchor="middle"><textPath startOffset="22.20632615414155" xlink:href="#id10">October</textPath></text><path d="M 79.00019446554 99.90962569577889 l -55.262171125298075 -0.23782507209420795 a76.26268287232031,76.26268287232031 0 0,0 0.01694844753090643,-1.3126759391131644 l 55.24988967064945 1.1890372692678444" fill="red" stroke="none" /><path d="M 81.6062741919709 89.86733742301443 l -28.33763915508839 -15.61052604478569 a53.35290274888686,53.35290274888686 0 0,0 0.450050430325399,-0.8005894975723815 l 28.064731083470562 16.095999052292857" fill="red" stroke="none" /><line stroke="#e1ed5e" stroke-width="0.3" x1="26.266209847984243" x2="21.928928074336255" y1="57.711370442889674" y2="55.22380399835377" /><path d="M 25.398753493254645 57.213857153982495 a86.0,86.0 0 0,1 29.58750427330803,-30.492523968695096" fill="none" id="id11" stroke="none" /><text fill="#e1ed5e" style="font-size:6.75px; font-family:Arial;" text-anchor="middle"><textPath startOffset="21.46611528233685" xlink:href="#id11">November</textPath></text><path d="M 81.78341655067845 89.55222093294921 l -27.812005699785058 -15.95105315830964 a53.06156200037822,53.06156200037822 0 0,0 0.4612321333648607,-0.7883952265132579 l 27.533313891949874 16.42742779717679" fill="red" stroke="none" /><path d="M 82.7489923806493 88.02491185347247 l -25.98283070959711 -18.036435604764897 a52.62942460760887,52.62942460760887 0 0,0 0.5230046067900571,-0.7397529260453486 l 25.668513483003174 18.481015031142032" fill="red" stroke="none" /><path d="M 82.95767976084542 87.72973835380427 l -29.596488649266053 -21.30910899683761 a57.469580016847466,57.469580016847466 0 0,0 0.5849237091780799,-0.7978352819684222 l 29.22530232757434 21.815406722477537" fill="red" stroke="none" /><path d="M 83.17141714833178 87.43820079747576 l -27.01819444235409 -20.167897462974064 a54.715381044886456,54.715381044886456 0 0,0 0.5698842987772574,-0.7499009361042394 l 26.667034203352724 20.62998317495933" fill="red" stroke="none" /><path d="M 83.39014120810768 87.1503855733568 l -26.696159778775595 -20.652515119320032 a54.752204782616175,54.752204782616175 0 0,0 0.5831003418150177,-0.740478219338253 l 26.336705356366604 21.108985732611334" fill="red" stroke="none" /><path d="M 83.84228863543731 86.58626213691792 l -41.57328107411171 -34.5131239105693 a75.03233681170383,75.03233681170383 0 0,0 0.8335356106395168,-0.986643252331707 l 40.97303484998507 35.22362611253012" fill="red" stroke="none" /><path d="M 84.5562425177563 85.77008943001954 l -24.130588974301872 -22.233975345706206 a53.81211641939865,53.81211641939865 0 0,0 0.633529221562168,-0.6758048020149646 l 23.74429243076925 22.64604956459922" fill="red" stroke="none" /><path d="M 86.65592168130627 83.78471172551755 l -21.012983374547044 -25.534291300423213 a54.06879953239699,54.06879953239699 0 0,0 0.7237407520121009,-0.585214688664841 l 20.570339223970443 25.89221208635219" fill="red" stroke="none" /><line stroke="#e1ed5e" stroke-width="0.3" x1="56.762969772571076" x2="54.21961505331055" y1="26.818313649435495" y2="22.513508569990535" /><path d="M 56.25429882871897 25.957352633546506 a86.0,86.0 0 0,1 42.265352541879196,-11.944610805530505" fill="none" id="id12" stroke="none" /><text fill="#e1ed5e" style="font-size:6.75px; font-family:Arial;" text-anchor="middle"><textPath startOffset="22.20632615414155" xlink:href="#id12">December</textPath></text></svg>