<?xml version="1.0" encoding="utf-8" ?>
<svg baseProfile="full" height="200mm" version="1.1" viewBox="0,0,200,200" width="200mm" xmlns="http://www.w3.org/2000/svg" xmlns:ev="http://www.w3.org/2001/xml-events" xmlns:xlink="http://www.w3.org/1999/xlink"><defs /><rect fill="#1a1a1a" height="200" width="200" x="0" y="0" /><text alignment-baseline="middle" fill="#e1ed5e" style="dominant-baseline: central; font-size:9.0px; font-family:Arial;" text-anchor="middle" x="100.0" y="100.0">2019</text><line stroke="#e1ed5e" stroke-width="0.3" x1="100.0" x2="100.0" y1="15.0" y2="10.0" /><path d="M 100.0 14.0 a86.0,86.0 0 0,1 42.46469731375804,11.215312516191453" fill="none" id="id1" stroke="none" /><text fill="#e1ed5e" style="font-size:6.75px; font-family:Arial;" text-anchor="middle"><textPath startOffset="22.20632615414155" xlink:href="#id1">January</textPath></text><line stroke="#e1ed5e" stroke-width="0.3" x1="143.23703022742887" x2="145.7803849466894" y1="26.81831364943548" y2="22.513508569990506" /><path d="M 143.74570117128098 25.957352633546492 a86.0,86.0 0 0,1 28.547481713284135,27.462654790039103" fill="none" id="id2" stroke="none" /><text fill="#e1ed5e" style="font-size:6.75px; font-family:Arial;" text-anchor="middle"><textPath startOffset="19.985693538727396" xlink:href="#id2">February</textPath></text><line stroke="#e1ed5e" stroke-width="0.3" x1="172.23445277983987" x2="176.4835382374775" y1="55.19839476539836" y2="52.563006222186495" /><path d="M 173.08426987136738 54.67131705675599 a86.0,86.0 0 0,1 12.851231095245387,41.99856678651699" fill="none" id="id3" stroke="none" /><text fill="#e1ed5e" style="font-size:6.75px; font-family:Arial;" text-anchor="middle"><textPath startOffset="22.20632615414155" xlink:href="#id3">March</textPath></text><line stroke="#e1ed5e" stroke-width="0.3" x1="184.98032266829074" x2="189.97916517819016" y1="98.17113171792111" y2="98.06355123074" /><path d="M 185.9800911702706 98.14961562048488 a86.0,86.0 0 0,1 -9.607161424134198,41.387399972396054" fill="none" id="id4" stroke="none" /><text fill="#e1ed5e" style="font-size:6.75px; font-family:Arial;" text-anchor="middle"><textPath startOffset="21.466115282336823" xlink:href="#id4">April</textPath></text><path d="M 120.9764740272857 100.99374915477107 l 4.185227149975385 0.19827288120028816 a25.18992105323126,25.18992105323126 0 0,0 -0.024246677397183572,0.43294071292328307 l -4.181194121690672 -0.2702853104589945" fill="#ff2803" stroke="none" /><path d="M 120.92983693683757 101.71520430193887 l 3.0456669258956497 0.24959301065431394 a24.05587691088207,24.05587691088207 0 0,0 -0.03737298552983378,0.41240778108106024 l -3.0409193440887408 -0.30198218028394475" fill="#ff1802" stroke="none" /><path d="M 120.81339534386255 102.79330883721812 l 2.1250833138544367 0.2852016166677372 a23.144135968863086,23.144135968863086 0 0,0 -0.05639008001179479,0.3943920882647015 l -2.1198591828260405 -0.32173917691284803" fill="#ff0b01" stroke="none" /><path d="M 120.32669344350535 105.2749913415812 l 8.31672317836052 2.1582773842735716 a29.59220842932397,29.59220842932397 0 0,0 -0.13219533324047414,0.49194801285885553 l -8.27833976877827 -2.3011163303079756" fill="#ff6609" stroke="none" /><path d="M 120.23288151984713 105.62410040840565 l 7.167758822543039 1.992409992697973 a28.43952042252364,28.43952042252364 0 0,0 -0.13516540674266708,0.47052851290669573 l -7.132400778914272 -2.115495981109251" fill="#ff5608" stroke="none" /><path d="M 119.54520255179757 107.68017299344265 l 2.957183176866995 1.1620078283378055 a24.177293586476313,24.177293586476313 0 0,0 -0.15553757894592676,0.38603151539978087 l -2.9367429836636756 -1.2127387115804" fill="#ff1a02" stroke="none" /><path d="M 118.97047184881838 109.00673069616215 l 3.2756540677710553 1.5552029637069702 a24.626095121480958,24.626095121480958 0 0,0 -0.18510232939152577,0.38136562404548857 l -3.248398481764815 -1.6113575437177343" fill="#ff2003" stroke="none" /><line stroke="#e1ed5e" stroke-width="0.3" x1="174.80103733775053" x2="179.2010983576182" y1="140.37084112569926" y2="142.7455964860345" /><path d="M 175.68104954172406 140.8457921977663 a86.0,86.0 0 0,1 -30.038265399797805,32.042727171017184" fill="none" id="id5" stroke="none" /><text fill="#e1ed5e" style="font-size:6.75px; font-family:Arial;" text-anchor="middle"><textPath startOffset="22.206326154141568" xlink:href="#id5">May</textPath></text><path d="M 118.12598468904814 110.60418214915192 l 13.926130750069172 8.147156120895644 a37.13422667890437,37.13422667890437 0 0,0 -0.3275223308138188,0.5489462654932306 l -13.783827543557125 -8.38566448027498" fill="#ffca12" stroke="none" /><path d="M 117.14729908036423 112.12312394758627 l 1.1578914996140062 0.8186281758945656 a22.418049651897576,22.418049651897576 0 0,0 -0.22548310009561195,0.3131763047235579 l -1.1436286071427915 -0.8384380860692546" fill="#ff0000" stroke="none" /><path d="M 116.71984013943494 112.70617746262583 l 5.892059571011584 4.477647746945885 a28.400384809864875,28.400384809864875 0 0,0 -0.29914150039645876,0.3866807139424797 l -5.814111253397058 -4.578406455001617" fill="#ff5607" stroke="none" /><path d="M 116.27256486870786 113.27417163493432 l 6.4812004175395455 5.286970274014306 a29.36409071750335,29.36409071750335 0 0,0 -0.32287076219811406,0.38891863229350393 l -6.389233655447888 -5.39775016342158" fill="#ff6309" stroke="none" /><path d="M 115.80600337817218 113.82643327865902 l 7.525291903183681 6.582811853975092 a30.99817133944787,30.99817133944787 0 0,0 -0.354768388500991,0.398586045354728 l -7.410864665034351 -6.711372069070686" fill="#ff790b" stroke="none" /><path d="M 114.81725581225074 114.88116024355365 l 4.708956907943157 4.729265878581514 a27.673846785114335,27.673846785114335 0 0,0 -0.3404542683275839,0.33320615768346057 l -4.626852687239778 -4.809622139187547" fill="#ff4c07" stroke="none" /><path d="M 114.0293411484842 115.62618273729858 l 4.759437257569519 5.301163862675332 a28.12422496189415,28.12422496189415 0 0,0 -0.3630136306903258,0.3203173222131054 l -4.667481273972606 -5.382304326660726" fill="#ff5207" stroke="none" /><path d="M 113.75828350139079 115.86535959552629 l 7.84169204240589 9.0426443151553 a32.969191714495274,32.969191714495274 0 0,0 -0.43195061190512474,0.36811768243394516 l -7.684875953923718 -9.176286387812192" fill="#ff940d" stroke="none" /><path d="M 112.34349029814194 116.9893568818739 l 5.469517973030935 7.528145651771916 a30.30529977010955,30.30529977010955 0 0,0 -0.424667692556701,0.3029891230126458 l -5.339122952625349 -7.6211790366287815" fill="#ff700a" stroke="none" /><path d="M 111.45004920935366 117.60387380957326 l 4.280093365732647 6.58042792008248 a28.84991916078055,28.84991916078055 0 0,0 -0.41862358941737055,0.2671853812557784 l -4.166187974268346 -6.653127730162067" fill="#ff5c08" stroke="none" /><path d="M 111.1453310114006 117.79835938074945 l 5.443900328238927 8.693550184903852 a31.257381030323565,31.257381030323565 0 0,0 -0.45847254823718764,0.28163128512748054 l -5.29344858006943 -8.785969936859711" fill="#ff7d0b" stroke="none" /><line stroke="#e1ed5e" stroke-width="0.3" x1="143.8653032363475" x2="146.44561519142675" y1="172.8068346515853" y2="177.08958963109032" /><path d="M 144.38136562736335 173.6633856474863 a86.0,86.0 0 0,1 -40.68145358897372,12.25698825130547" fill="none" id="id6" stroke="none" /><text fill="#e1ed5e" style="font-size:6.75px; font-family:Arial;" text-anchor="middle"><textPath startOffset="21.466115282336833" xlink:href="#id6">June</textPath></text><path d="M 108.92500713936063 119.00905698771935 l 2.9126268238035213 6.203500839060111 a27.85323410332372,27.85323410332372 0 0,0 -0.4357466106821051,0.2000298969425296 l -2.805412217353997 -6.252717806336715" fill="#ff4e07" stroke="none" /><path d="M 108.59647513512805 119.15986991738527 l 3.689985548792649 8.224259594842133 a30.014124429674325,30.014124429674325 0 0,0 -0.47319314604356216,0.20743396936079087 l -3.547871728091333 -8.286558117497378" fill="#ff6c09" stroke="none" /><path d="M 107.2578585660854 119.70592522655815 l 0.7797712117430594 2.1171690041239297 a23.256202059808995,23.256202059808995 0 0,0 -0.37683955499978433,0.13512125711375428 l -0.7432120961135402 -2.1302778022776443" fill="#ff0c01" stroke="none" /><path d="M 106.91757812671514 119.82793768551818 l 2.6231074412197937 7.5186445218541875 a28.96308408182349,28.96308408182349 0 0,0 -0.47214001469962785,0.16017552740388089 l -2.4932976935829387 -7.562683036156192" fill="#ff5e08" stroke="none" /><path d="M 105.88484417918355 120.15858648285463 l 3.9390190014462436 13.493144895686642 a35.056344826082956,35.056344826082956 0 0,0 -0.5807147488176965,0.1641157886187229 l -3.7061730845239413 -13.558949477643885" fill="#ffaf10" stroke="none" /><path d="M 104.48393922423573 120.51570834832081 l 1.9117488306620736 8.746969903855359 a29.95344995465375,29.95344995465375 0 0,0 -0.5046564930287765,0.10575567479735389 l -1.760900876203919 -8.778581559379253" fill="#ff6b09" stroke="none" /><path d="M 100.90346689309514 120.98055641714683 l 0.7361648631116272 17.095422710977157 a38.111265773538605,38.111265773538605 0 0,0 -0.6556583188522804,0.022582198202707317 l -0.4417861925846946 -17.105561707605958" fill="#ffd714" stroke="none" /><line stroke="#e1ed5e" stroke-width="0.3" x1="102.19456741930631" x2="102.32365962044197" y1="184.97166512339345" y2="189.96999836594603" /><path d="M 102.22038585953345 185.97133177190398 a86.0,86.0 0 0,1 -42.740103519485714,-10.115201625700543" fill="none" id="id7" stroke="none" /><text fill="#e1ed5e" style="font-size:6.75px; font-family:Arial;" text-anchor="middle"><textPath startOffset="22.20632615414155" xlink:href="#id7">July</textPath></text><path d="M 98.73552117531835 120.96189622390904 l -0.4320715325759464 7.162665321376627 a28.175685355094235,28.175685355094235 0 0,0 -0.4838667323629865,-0.033370282817593015 l 0.5553010257178629 -7.1541666940427495" fill="#ff5307" stroke="none" /><path d="M 98.37488393609728 120.93702456842531 l -1.5236733466624854 19.630097198545034 a40.68914158849124,40.68914158849124 0 0,0 -0.6978297880625749,-0.060211690428652306 l 1.861347452466602 -19.60096125583772" fill="#fff717" stroke="none" /><path d="M 95.86986931433489 120.58985236759428 l -1.3906145917669717 6.932601247723824 a28.070697914829704,28.070697914829704 0 0,0 -0.47293583837633607,-0.09910830320078923 l 1.5097418915726946 -6.9076369637964925" fill="#ff5107" stroke="none" /><path d="M 93.76903079525671 120.05430185196036 l -1.3512232383571205 4.348896263324331 a25.553976608309778,25.553976608309778 0 0,0 -0.418937556870784,-0.13413057609802062 l 1.4258821403188449 -4.324992840566604" fill="#ff2e04" stroke="none" /><path d="M 91.40352486487194 119.15986991738527 l -3.5747834673156187 7.967496577370893 a29.732701675232583,29.732701675232583 0 0,0 -0.46514971774350317,-0.21352742126308574 l 3.7114011808265412 -7.904782085773733" fill="#ff6809" stroke="none" /><path d="M 90.10565033884886 118.52300852407294 l -3.300498842068516 6.178796007722182 a28.005056224723624,28.005056224723624 0 0,0 -0.4232459999077814,-0.23078746560389443 l 3.406367653844938 -6.121067890358522" fill="#ff5007" stroke="none" /><line stroke="#e1ed5e" stroke-width="0.3" x1="58.666819895761336" x2="56.23545636021788" y1="174.27360380694188" y2="178.64263932499728" /><path d="M 58.180547188652646 175.14741091055294 a86.0,86.0 0 0,1 -31.652253787137756,-30.449443065178592" fill="none" id="id8" stroke="none" /><text fill="#e1ed5e" style="font-size:6.75px; font-family:Arial;" text-anchor="middle"><textPath startOffset="22.20632615414155" xlink:href="#id8">August</textPath></text><path d="M 86.79598089348748 116.32954008644616 l -4.329696710480754 5.354578437490881 a27.886057206267616,27.886057206267616 0 0,0 -0.3706586458752826,-0.3050268312432172 l 4.421225484900726 -5.279256487390483" fill="#ff4f07" stroke="none" /><path d="M 85.44109423537348 115.13401014063109 l -5.718409845612223 5.9442978745044535 a29.248326398926814,29.248326398926814 0 0,0 -0.35982411990909796,-0.3521636342693206 l 5.819883917897116 -5.844984137312563" fill="#ff6109" stroke="none" /><path d="M 82.05923443525364 110.91462005526583 l -6.311741208185592 3.839872770528796 a28.388010555823307,28.388010555823307 0 0,0 -0.25038106932471155,-0.41965307408041724 l 6.376903153208535 -3.7306576025622675" fill="#ff5607" stroke="none" /><line stroke="#e1ed5e" stroke-width="0.3" x1="26.63291911575756" x2="22.317208475507996" y1="142.92168965132927" y2="145.44649492493687" /><path d="M 25.769776987707644 143.4266507060508 a86.0,86.0 0 0,1 -11.730757126820373,-40.83630448921669" fill="none" id="id9" stroke="none" /><text fill="#e1ed5e" style="font-size:6.75px; font-family:Arial;" text-anchor="middle"><textPath startOffset="21.46611528233685" xlink:href="#id9">September</textPath></text><path d="M 81.18737489456691 109.33194174019688 l -8.018036775321471 3.9773211680302345 a29.95030711227659,29.95030711227659 0 0,0 -0.22512183052675622,-0.46381764976875367 l 8.085311862462946 -3.8387145622961962" fill="#ff6b09" stroke="none" /><path d="M 81.02952815118164 109.00673069616217 l -6.082160438376636 2.8876657131078236 a27.73285146641543,27.73285146641543 0 0,0 -0.20103066383806015,-0.4330021653797415 l 6.130965719054523 -2.782543480449255" fill="#ff4c07" stroke="none" /><path d="M 80.87730276802145 108.67885076344099 l -6.271576061553306 2.8463595919286817 a27.88726572904029,27.88726572904029 0 0,0 -0.19462511500279514,-0.4388282548015046 l 6.319642261287381 -2.737983000634481" fill="#ff4f07" stroke="none" /><path d="M 80.45479744820244 107.68017299344265 l -5.687468029572441 2.234857287665891 a27.110800249037926,27.110800249037926 0 0,0 -0.1669324550951582,-0.4358079642080457 l 5.725094764261109 -2.136625756624688" fill="#ff4406" stroke="none" /><path d="M 79.97269907076064 106.31721596034903 l -6.391529735471577 2.0160816376917534 a27.701957738545897,27.701957738545897 0 0,0 -0.13952978466213226,-0.4559914094151613 l 6.42528629263984 -1.905763255724544" fill="#ff4c07" stroke="none" /><path d="M 79.50377843672027 104.57218783832718 l -9.434151862102633 2.104520302713545 a30.666034712422054,30.666034712422054 0 0,0 -0.1104940473821468,-0.5161914040069244 l 9.46897994820922 -1.941815079290457" fill="#ff750a" stroke="none" /><path d="M 79.10278846688536 102.07522291339032 l -8.504857260218179 0.8445851559453564 a29.54669065207868,29.54669065207868 0 0,0 -0.045903462438115765,-0.5065408829307823 l 8.51813531893337 -0.6980628844660081" fill="#ff6609" stroke="none" /><line stroke="#e1ed5e" stroke-width="0.3" x1="15.007084014347285" x2="10.007500721073583" y1="101.09737516637583" y2="101.16192664675087" /><path d="M 14.007167355692545 101.11028546245083 a86.0,86.0 0 0,1 10.666146001902534,-42.60595125391555" fill="none" id="id10" stroke="none" /><text fill="#e1ed5e" style="font-size:6.75px; font-family:Arial;" text-anchor="middle"><textPath startOffset="22.20632615414155" xlink:href="#id10">October</textPath></text><path d="M 79.00175016825051 100.2711162175752 l -15.265868176127057 0.19710330485045094 a36.267140560159646,36.267140560159646 0 0,0 -0.0026867089938769316,-0.62429655072156 l 15.266999182410437 0.06570272407478438" fill="#ffbf11" stroke="none" /><path d="M 79.03285615573316 98.82574320788736 l -4.009605371631959 -0.2245564000657909 a25.015888545892473,25.015888545892473 0 0,0 0.02777884458998487,-0.42972643059941024 l 4.00514593603756 0.2935418949182129" fill="#ff2603" stroke="none" /><path d="M 79.16333360222342 97.38593545837743 l -7.455084016018921 -0.935277765121378 a28.513522621502595,28.513522621502595 0 0,0 0.06528782136175268,-0.48647010278137093 l 7.437880195599334 1.0634662099674081" fill="#ff5708" stroke="none" /><path d="M 79.21141760316559 97.0276538004421 l -9.521489762121277 -1.3613801734205901 a30.618322268813984,30.618322268813984 0 0,0 0.07908873980282531,-0.5210959788542424 l 9.49664512887915 1.5250752646669246" fill="#ff740a" stroke="none" /><path d="M 79.32604984820605 96.31383870115002 l -6.551988904878133 -1.1682183498715917 a27.65532063259336,27.65532063259336 0 0,0 0.08759398247226738,-0.4679305569315263 l 6.530909198496005 1.2808269842656907" fill="#ff4b07" stroke="none" /><path d="M 79.46518482838121 95.60439243477599 l -8.811176055870941 -1.886088177858859 a30.010779772151373,30.010779772151373 0 0,0 0.1124769913578107,-0.504212297735405 l 8.777404677511093 2.037478645144223" fill="#ff6c09" stroke="none" /><path d="M 79.91906864156998 93.8553929516997 l -6.591720251216927 -2.0170145494296468 a27.893411605505232,27.893411605505232 0 0,0 0.144440740528335,-0.4579166194665451 l 6.556024026920388 2.1301813353226065" fill="#ff4f07" stroke="none" /><path d="M 80.65960295795068 91.81776055985345 l -8.966460019544359 -3.7933927959650147 a30.73587357079819,30.73587357079819 0 0,0 0.2103347892011675,-0.48548169311009026 l 8.89983452050051 3.9471736336617043" fill="#ff760a" stroke="none" /><path d="M 80.803312248108 91.48605970444005 l -15.919703738166826 -7.060562160594405 a38.415180307267,38.415180307267 0 0,0 0.27329233006384623,-0.6021634230245613 l 15.795809091139628 7.333547592461038" fill="#ffdb14" stroke="none" /><path d="M 81.26839172434947 90.50648371742162 l -9.461988876577466 -4.795506298417085 a31.607832679611498,31.607832679611498 0 0,0 0.2501392204573765,-0.4831893562088802 l 9.378040222959976 4.957668376886301" fill="#ff820b" stroke="none" /><path d="M 81.43458229118936 90.18545643968196 l -12.054141671539766 -6.372380108712946 a34.634865591104,34.634865591104 0 0,0 0.28316790031663774,-0.5246671135359039 l 11.942665672004656 6.578928205581322" fill="#ffaa0f" stroke="none" /><line stroke="#e1ed5e" stroke-width="0.3" x1="26.266209847984243" x2="21.928928074336255" y1="57.711370442889674" y2="55.22380399835377" /><path d="M 25.398753493254645 57.213857153982495 a86.0,86.0 0 0,1 29.58750427330803,-30.492523968695096" fill="none" id="id11" stroke="none" /><text fill="#e1ed5e" style="font-size:6.75px; font-family:Arial;" text-anchor="middle"><textPath startOffset="21.46611528233685" xlink:href="#id11">November</textPath></text><path d="M 83.17141714833178 87.43820079747576 l -5.462204935081178 -4.077296478397458 a27.816159426361555,27.816159426361555 0 0,0 0.28971730081462965,-0.3812340075917784 l 5.391211694042439 4.170715261870263" fill="#ff4e07" stroke="none" /><path d="M 84.07557802195018 86.31012108654704 l -7.391942673281964 -6.354692199936836 a30.747970529347377,30.747970529347377 0 0,0 0.348488912593017,-0.39838306949360847 l 7.281461897111104 6.480990825633388" fill="#ff760a" stroke="none" /><path d="M 85.57189188830299 84.74124197986013 l -6.761151303057576 -7.150401901082964 a30.84080353882995,30.84080353882995 0 0,0 0.3888762683101844,-0.3614181101275635 l 6.637067150952536 7.265724597285176" fill="#ff770b" stroke="none" /><path d="M 87.22198572758235 83.33499621200491 l -13.812626551177383 -18.014338448064684 a43.700331318368725,43.700331318368725 0 0,0 0.6008875595338885,-0.4525760521353788 l 13.500492837885105 18.24943108970592" fill="#e3ff1b" stroke="none" /><line stroke="#e1ed5e" stroke-width="0.3" x1="56.762969772571076" x2="54.21961505331055" y1="26.818313649435495" y2="22.513508569990535" /><path d="M 56.25429882871897 25.957352633546506 a86.0,86.0 0 0,1 42.265352541879196,-11.944610805530505" fill="none" id="id12" stroke="none" /><text fill="#e1ed5e" style="font-size:6.75px; font-family:Arial;" text-anchor="middle"><textPath startOffset="22.20632615414155" xlink:href="#id12">December</textPath></text><path d="M 89.3179101791058 81.91981866633112 l -8.461590621534954 -14.321831717739409 a37.63470407304244,37.63470407304244 0 0,0 0.5605837336546857,-0.3247262817091023 l 8.213810155414949 14.465362156838559" fill="#ffd113" stroke="none" /><path d="M 91.56875222667455 80.76684994638697 l -25.293743319976343 -57.69945016083907 a84.0,84.0 0 0,0 1.329264968838767,-0.5691218881488553 l 24.29679459334727 58.12629157695071" fill="#4dd2ff" stroke="none" /><path d="M 93.94186890950719 79.89281104454417 l -1.0297882503249445 -3.4179100161577267 a24.569674035406962,24.569674035406962 0 0,0 0.4059960589349085,-0.11852138274807532 l 0.9708019736666147 3.435129727824501" fill="#ff1f03" stroke="none" /></svg>