<?xml version="1.0" encoding="utf-8" ?>
<svg baseProfile="full" height="200mm" version="1.1" viewBox="0,0,200,200" width="200mm" xmlns="http://www.w3.org/2000/svg" xmlns:ev="http://www.w3.org/2001/xml-events" xmlns:xlink="http://www.w3.org/1999/xlink"><defs /><rect fill="#1a1a1a" height="200" width="200" x="0" y="0" /><text alignment-baseline="middle" fill="#e1ed5e" style="dominant-baseline: central; font-size:9.0px; font-family:Arial;" text-anchor="middle" x="100.0" y="100.0">2019</text><line stroke="#e1ed5e" stroke-width="0.3" x1="100.0" x2="100.0" y1="15.0" y2="10.0" /><path d="M 100.0 14.0 a86.0,86.0 0 0,1 42.46469731375804,11.215312516191453" fill="none" id="id1" stroke="none" /><text fill="#e1ed5e" style="font-size:6.75px; font-family:Arial;" text-anchor="middle"><textPath startOffset="22.20632615414155" xlink:href="#id1">January</textPath></text><line stroke="#e1ed5e" stroke-width="0.3" x1="143.23703022742887" x2="145.7803849466894" y1="26.81831364943548" y2="22.513508569990506" /><path d="M 143.74570117128098 25.957352633546492 a86.0,86.0 0 0,1 28.547481713284135,27.462654790039103" fill="none" id="id2" stroke="none" /><text fill="#e1ed5e" style="font-size:6.75px; font-family:Arial;" text-anchor="middle"><textPath startOffset="19.985693538727396" xlink:href="#id2">February</textPath></text><line stroke="#e1ed5e" stroke-width="0.3" x1="172.23445277983987" x2="176.4835382374775" y1="55.19839476539836" y2="52.563006222186495" /><path d="M 173.08426987136738 54.67131705675599 a86.0,86.0 0 0,1 12.851231095245387,41.99856678651699" fill="none" id="id3" stroke="none" /><text fill="#e1ed5e" style="font-size:6.75px; font-family:Arial;" text-anchor="middle"><textPath startOffset="22.20632615414155" xlink:href="#id3">March</textPath></text><path d="M 119.34039704204932 91.81776055985345 l 20.08013973365924 -8.495198466462869 a42.8032201453793,42.8032201453793 0 0,0 0.28123410054753184,0.6810306817646041 l -20.22339552109297 8.14829321424496" fill="#edff1a" stroke="none" /><path d="M 119.61058180528143 92.48833698450437 l 5.050306026211679 -1.9344758544497749 a26.408122390427124,26.408122390427124 0 0,0 0.15894597602083238,0.42589619276834684 l -5.082856590734137 1.8472565246520947" fill="#ff3b05" stroke="none" /><path d="M 119.7369772167798 92.82701384747503 l 5.243483846796298 -1.905633097254733 a26.579028620912997,26.579028620912997 0 0,0 0.15257238168185513,0.4313426686324807 l -5.275509309287963 1.8150928021956378" fill="#ff3d05" stroke="none" /><path d="M 119.97218684219823 93.5106431181261 l 8.443775822643657 -2.743549075352136 a29.878311307446204,29.878311307446204 0 0,0 0.15471916709291297,0.4905020405096056 l -8.489750473504776 2.5977968684161112" fill="#ff6b09" stroke="none" /><path d="M 120.18372546131832 94.20196356495316 l 16.224380336037473 -4.660663290564726 a37.88053019298911,37.88053019298911 0 0,0 0.174635069554365,0.6282552612721531 l -16.3022021761582 4.38069672587362" fill="#ffd513" stroke="none" /><path d="M 120.37134235888165 94.90015583598534 l 5.241467251705597 -1.3121700918658632 a26.403218420597995,26.403218420597995 0 0,0 0.10657747093409722,0.4418324230819307 l -5.2632775229005135 1.2217524371245263" fill="#ff3b05" stroke="none" /><path d="M 120.73433829027371 96.67025291283417 l 47.72908024650791 -7.664858347491345 a69.34061599384827,69.34061599384827 0 0,0 0.17911046490261393,1.1801141763562457 l -47.853946604849824 6.842145058743017" fill="#3bff99" stroke="none" /><path d="M 120.94382443527127 98.46500227214037 l 5.922736456444007 -0.4340843780203896 a26.938622431147838,26.938622431147838 0 0,0 0.02991394067855062,0.4627554220736403 l -5.9293309881269725 0.33206989169371415" fill="#ff4206" stroke="none" /><line stroke="#e1ed5e" stroke-width="0.3" x1="184.98032266829074" x2="189.97916517819016" y1="98.17113171792111" y2="98.06355123074" /><path d="M 185.9800911702706 98.14961562048488 a86.0,86.0 0 0,1 -9.607161424134198,41.387399972396054" fill="none" id="id4" stroke="none" /><text fill="#e1ed5e" style="font-size:6.75px; font-family:Arial;" text-anchor="middle"><textPath startOffset="21.466115282336823" xlink:href="#id4">April</textPath></text><path d="M 120.9764740272857 100.99374915477107 l 16.130604378882346 0.7641786911665709 a37.14869551078512,37.14869551078512 0 0,0 -0.0357576521924298,0.6384769005278875 l -16.11506037580239 -1.0417273080298817" fill="#ffcb12" stroke="none" /><path d="M 120.89721153311464 102.0752229133903 l 5.559996430373999 0.552142182816899 a26.587344744672322,26.587344744672322 0 0,0 -0.04914569200887061,0.45502807107391874 l -5.549668436864076 -0.6477665757756091" fill="#ff3d05" stroke="none" /><path d="M 120.81339534386255 102.79330883721812 l 5.480007854050799 0.7354568590971678 a26.52913943322571,26.52913943322571 0 0,0 -0.06463755213399505,0.4520748890782332 l -5.4665362509002025 -0.8296772201558104" fill="#ff3d05" stroke="none" /><path d="M 120.76222939487914 103.15116336523771 l 5.405014311309473 0.820339798893887 a26.466912939777757,26.466912939777757 0 0,0 -0.07223985796097977,0.44983766448135043 l -5.390092698987204 -0.9132566930684424" fill="#ff3c05" stroke="none" /><path d="M 120.64145759157962 103.86396538481128 l 10.726487791850941 2.007938506494833 a31.91280703552445,31.91280703552445 0 0,0 -0.10572267259029208,0.539077629837229 l -10.690335186284985 -2.192279863400007" fill="#ff870c" stroke="none" /><path d="M 120.49622156327973 104.57218783832717 l 5.396805943892999 1.2038906988928402 a26.52945451296233,26.52945451296233 0 0,0 -0.1032620284790801,0.44485011606950475 l -5.375283349483366 -1.2966094723109098" fill="#ff3d05" stroke="none" /><path d="M 120.32669344350535 105.2749913415812 l 5.365095916153495 1.3922989778499795 a26.54281071598598,26.54281071598598 0 0,0 -0.11857295869346353,0.44125408952171064 l -5.340334881118254 -1.4844440005472384" fill="#ff3d05" stroke="none" /><path d="M 120.02730092923936 106.31721596034902 l 23.618184574253902 7.449889182476695 a45.76528803415596,45.76528803415596 0 0,0 -0.2434446337089833,0.749245541379803 l -23.48644768952867 -7.8553336238342935" fill="#caff1d" stroke="none" /><path d="M 119.54520255179757 107.68017299344265 l 4.009704647605597 1.5755899824834378 a25.308156816311598,25.308156816311598 0 0,0 -0.16281265827845956,0.40408766567821364 l -3.981989375069745 -1.644377016004465" fill="#ff2b04" stroke="none" /><path d="M 119.26925614724726 108.34839909993367 l 5.029425304874762 2.1789969144397037 a26.48116287392122,26.48116287392122 0 0,0 -0.18481192885030392,0.41670211063311174 l -4.991172291293185 -2.2652473615655033" fill="#ff3c05" stroke="none" /><path d="M 118.97047184881838 109.00673069616215 l 22.728630748741395 10.791015525487579 a46.16022002654084,46.16022002654084 0 0,0 -0.34696382881608184,0.714848254652569 l -22.5395136633106 -11.180652736105422" fill="#c5ff1e" stroke="none" /><path d="M 118.64920377521936 109.65438752849418 l 4.855591045695771 2.51366000393665 a26.46765498348531,26.46765498348531 0 0,0 -0.21293542488708345,0.40279357707631214 l -4.811603112583795 -2.5968685960990965" fill="#ff3c05" stroke="none" /><line stroke="#e1ed5e" stroke-width="0.3" x1="174.80103733775053" x2="179.2010983576182" y1="140.37084112569926" y2="142.7455964860345" /><path d="M 175.68104954172406 140.8457921977663 a86.0,86.0 0 0,1 -30.038265399797805,32.042727171017184" fill="none" id="id5" stroke="none" /><text fill="#e1ed5e" style="font-size:6.75px; font-family:Arial;" text-anchor="middle"><textPath startOffset="22.206326154141568" xlink:href="#id5">May</textPath></text><path d="M 118.30583269289576 110.29060199501025 l 6.294381558760706 3.538379079094069 a28.220759358588086,28.220759358588086 0 0,0 -0.24168796370029147,0.4214033366505452 l -6.232541598908035 -3.6462022616029293" fill="#ff5407" stroke="none" /><path d="M 118.12598468904814 110.60418214915192 l 12.446223548455139 7.281371127750479 a35.4196687242862,35.4196687242862 0 0,0 -0.3124000011510085,0.5236003711435835 l -12.319042671605903 -7.494533592780167" fill="#ffb510" stroke="none" /><path d="M 117.75023020441432 111.22182372390056 l 1.363907750599743 0.8622723298025553 a22.61361641132246,22.61361641132246 0 0,0 -0.21083981499018373,0.32722807500298307 l -1.348863072232509 -0.8856220047269914" fill="#ff0400" stroke="none" /><path d="M 117.55443506779139 111.5257021239791 l 4.571459298655399 3.0014795659741877 a26.468740230091708,26.468740230091708 0 0,0 -0.2533397423780357,0.378708541267536 l -4.519116450866642 -3.0797250214475302" fill="#ff3c05" stroke="none" /><path d="M 117.35343817320211 111.8261652097733 l 4.534028182740379 3.089887192363896 a26.486785436247573,26.486785436247573 0 0,0 -0.2599981867628199,0.3745467796129196 l -4.4801690888154235 -3.167475234163835" fill="#ff3c05" stroke="none" /><path d="M 116.93607887273984 112.41649034213515 l 4.103979259333974 3.008784927180705 a26.088755496098553,26.088755496098553 0 0,0 -0.26863806866560985,0.3598845931833487 l -4.051579923973272 -3.0789823998733685" fill="#ff3605" stroke="none" /><path d="M 116.27256486870786 113.27417163493432 l 38.123707086982414 31.099008381015665 a70.19924150163817,70.19924150163817 0 0,0 -0.7718707460555921,0.9297680372777368 l -37.58274034103328 -31.75063767540717" fill="#3cffa2" stroke="none" /><path d="M 115.80600337817218 113.82643327865902 l 4.056571229773209 3.5485195154420577 a26.389597470470022,26.389597470470022 0 0,0 -0.3020241053985746,0.339327284150857 l -3.9948882747262964 -3.6178209693337813" fill="#ff3b05" stroke="none" /><path d="M 115.32070863581623 114.36230785411682 l 3.7428089938395077 3.5086741929816965 a26.130244999691698,26.130244999691698 0 0,0 -0.3104440446802691,0.32549933970832745 l -3.681858397780274 -3.572580649272531" fill="#ff3705" stroke="none" /><path d="M 114.81725581225074 114.88116024355365 l 5.459657635286163 5.4832042569219395 a28.737789763082567,28.737789763082567 0 0,0 -0.3535433025669902,0.3460165325632472 l -5.364464380343379 -5.576370892407758" fill="#ff5b08" stroke="none" /><path d="M 114.29624159901734 115.38237550388516 l 3.270285520769124 3.5187401903481415 a25.803779752915766,25.803779752915766 0 0,0 -0.3279543067386206,0.2995784834841685 l -3.2092316645636396 -3.574511440418893" fill="#ff3204" stroke="none" /><path d="M 113.75828350139079 115.86535959552629 l 3.6121455847203237 4.165344361975633 a26.513409959277173,26.513409959277173 0 0,0 -0.34736925778395683,0.2960356174985957 l -3.5399108503593193 -4.226904369697174" fill="#ff3c05" stroke="none" /><path d="M 112.04921762599082 117.19931262002967 l 3.19111216080765 4.55506219266215 a26.561635407132922,26.561635407132922 0 0,0 -0.3767238209129333,0.2591140791751151 l -3.1122314552718335 -4.609317061202359" fill="#ff3d05" stroke="none" /><path d="M 111.7513745106137 117.40417183066458 l 3.1139418413820454 4.611850199239277 a26.564691909866454,26.564691909866454 0 0,0 -0.38117208536288316,0.2526200734999893 l -3.034095057279198 -4.664768293830585" fill="#ff3d05" stroke="none" /><path d="M 111.1453310114006 117.79835938074945 l 2.9273607039010714 4.674802192220169 a26.51572445170448,26.51572445170448 0 0,0 -0.3889235552375456,0.2389086131744413 l -2.846457948731217 -4.724499272222988" fill="#ff3c05" stroke="none" /><line stroke="#e1ed5e" stroke-width="0.3" x1="143.8653032363475" x2="146.44561519142675" y1="172.8068346515853" y2="177.08958963109032" /><path d="M 144.38136562736335 173.6633856474863 a86.0,86.0 0 0,1 -40.68145358897372,12.25698825130547" fill="none" id="id6" stroke="none" /><text fill="#e1ed5e" style="font-size:6.75px; font-family:Arial;" text-anchor="middle"><textPath startOffset="21.466115282336833" xlink:href="#id6">June</textPath></text><path d="M 109.57404056367764 118.69057910512821 l 2.5079939676882246 4.896141742505309 a26.501112406110554,26.501112406110554 0 0,0 -0.4077967102902163,0.2044777362603511 l -2.423343349715248 -4.938587319674962" fill="#ff3c05" stroke="none" /><path d="M 109.2508944713604 118.85261126421891 l 2.4138231838657513 4.919185954057065 a26.47950114641471,26.47950114641471 0 0,0 -0.410920665775708,0.19726689118007515 l -2.3287898500898105 -4.9600071217367" fill="#ff3c05" stroke="none" /><path d="M 108.59647513512805 119.15986991738527 l 2.993741446483874 6.6724670029609126 a28.3132963671656,28.3132963671656 0 0,0 -0.4463784314026789,0.19567918647405128 l -2.878442340423441 -6.723010742729418" fill="#ff5607" stroke="none" /><path d="M 107.93186726928326 119.44442032107085 l 2.2250310804182667 5.454508766509985 a26.89087677623302,26.89087677623302 0 0,0 -0.4300989883758055,0.17114526370624286 l -2.130811016000595 -5.492000874622296" fill="#ff4206" stroke="none" /><path d="M 107.2578585660854 119.70592522655815 l 1.896610878203382 5.149517837726467 a26.48768318914116,26.48768318914116 0 0,0 -0.42920192730958767,0.1538965408600773 l -1.8076893902640596 -5.181401919626505" fill="#ff3c05" stroke="none" /><path d="M 106.57524785965236 119.94407469862006 l 1.741290472191838 5.281690970540161 a26.56132646199012,26.56132646199012 0 0,0 -0.43545227366354144,0.13941806689749422 l -1.6501168534373563 -5.310881884097362" fill="#ff3d05" stroke="none" /><path d="M 106.2309692047433 120.05430185196036 l 1.0163051385157869 3.270966257701736 a24.42521479524962,24.42521479524962 0 0,0 -0.40257990930039333,0.12129402425885606 l -0.9598502547751477 -3.2879756510663176" fill="#ff1e03" stroke="none" /><path d="M 105.88484417918355 120.15858648285463 l 3.8014748380894074 13.021986131271348 a34.56552003233382,34.56552003233382 0 0,0 -0.5725841465478484,0.16181799920287288 l -3.5767595234369534 -13.085492923812739" fill="#ffaa0f" stroke="none" /><path d="M 105.53697534728816 120.25689768951611 l 1.4538212375340909 5.318771751800819 a26.513885121986085,26.513885121986085 0 0,0 -0.4412788689681992,0.1165457600157293 l -1.3620519257543942 -5.343008861120132" fill="#ff3c05" stroke="none" /><path d="M 105.18746579009965 120.34920634021253 l 1.3580023651044444 5.327123388600909 a26.497491611726943,26.497491611726943 0 0,0 -0.44294559013528856,0.10886524924258796 l -1.2661034902259447 -5.349709896157528" fill="#ff3c05" stroke="none" /><path d="M 104.48393922423573 120.51570834832081 l 0.7858587523888046 3.5955993515349207 a24.68047669133557,24.68047669133557 0 0,0 -0.41581730425655894,0.08713855902288264 l -0.7238499867028677 -3.6085938912843445" fill="#ff2203" stroke="none" /><path d="M 104.13013068566511 120.58985236759428 l 1.086350129754742 5.4157581184540575 a26.523639434468834,26.523639434468834 0 0,0 -0.44841671326949906,0.08594013033887199 l -0.9929658019135386 -5.433655447141398" fill="#ff3c05" stroke="none" /><path d="M 103.06178313531738 120.77559828337769 l 0.6436043791219458 4.367149939466313 a25.414320467592443,25.414320467592443 0 0,0 -0.4333400730409617,0.06005698551973899 l -0.5683357148941536 -4.377581490478654" fill="#ff2d04" stroke="none" /><path d="M 102.34483914955558 120.86867818915974 l 0.6195752455937291 5.514116572437679 a26.54881564474658,26.54881564474658 0 0,0 -0.4545756525989562,0.047118625039587934 l -0.5245669963891703 -5.523964565933026" fill="#ff3d05" stroke="none" /><path d="M 101.98527174616119 120.90594882070398 l 0.5266943311150302 5.54636651215995 a26.571318372309918,26.571318372309918 0 0,0 -0.45570529985171365,0.03932017077910566 l -0.43114471352177486 -5.554610935217719" fill="#ff3d05" stroke="none" /><path d="M 101.62511606390274 120.93702456842531 l 0.4254263309628862 5.480938710330849 a26.497424552413587,26.497424552413587 0 0,0 -0.4550456208119535,0.03138261022254084 l -0.33101794937200235 -5.487449665069675" fill="#ff3c05" stroke="none" /><path d="M 100.90346689309514 120.98055641714683 l 0.24883348101811545 5.778479462695516 a26.78383462782862,26.78383462782862 0 0,0 -0.4607835407212474,0.015870316818868614 l -0.1493295886222158 -5.781906577940478" fill="#ff4006" stroke="none" /><line stroke="#e1ed5e" stroke-width="0.3" x1="102.19456741930631" x2="102.32365962044197" y1="184.97166512339345" y2="189.96999836594603" /><path d="M 102.22038585953345 185.97133177190398 a86.0,86.0 0 0,1 -42.740103519485714,-10.115201625700543" fill="none" id="id7" stroke="none" /><text fill="#e1ed5e" style="font-size:6.75px; font-family:Arial;" text-anchor="middle"><textPath startOffset="22.20632615414155" xlink:href="#id7">July</textPath></text><path d="M 100.54218724476979 120.99299961872073 l 0.14315534670900984 5.542845516692431 a26.544693848645636,26.544693848645636 0 0,0 -0.45687249411231756,0.007865474313854679 l -0.04772316270402435 -5.544488468285445" fill="#ff3d05" stroke="none" /><path d="M 99.45781275523022 120.99299961872073 l -0.13561345131998148 5.250830150131288 a26.25258110586659,26.25258110586659 0 0,0 -0.45164396521716155,-0.015555531358839034 l 0.22597776821178606 -5.247717820346355" fill="#ff3905" stroke="none" /><path d="M 99.09653310690486 120.98055641714683 l -0.2376220032447679 5.518123445512155 a26.523237327540524,26.523237327540524 0 0,0 -0.4559621495020408,-0.02356803494399457 l 0.3325722211602976 -5.513215603805959" fill="#ff3c05" stroke="none" /><path d="M 98.73552117531835 120.96189622390904 l -0.33121273623919495 5.49067874413075 a26.50065950117768,26.50065950117768 0 0,0 -0.4551011752401112,-0.031386441581167886 l 0.4256766722582362 -5.484163958033297" fill="#ff3c05" stroke="none" /><path d="M 98.01472825383883 120.90594882070398 l -0.5654370778633937 5.954347879074092 a26.9811351559764,26.9811351559764 0 0,0 -0.46197793850799873,-0.047885902240177 l 0.6678476129769858 -5.943732608378155" fill="#ff4306" stroke="none" /><path d="M 97.2962882734958 120.8252237178851 l -0.7301974304267971 5.624314418506589 a26.671516637163556,26.671516637163556 0 0,0 -0.4547765494025252,-0.06302788581383137 l 0.8269025710161533 -5.610911967200153" fill="#ff3f05" stroke="none" /><path d="M 96.22490169976321 120.6578951692458 l -1.3127225875922708 7.183411780053841 a28.30237258661808,28.30237258661808 0 0,0 -0.47848851679560395,-0.09170346305614319 l 1.4361787189595698 -7.159751118649229" fill="#ff5507" stroke="none" /><path d="M 95.51606077576429 120.51570834832081 l -1.165818759949603 5.334059288059115 a26.459974530121926,26.459974530121926 0 0,0 -0.44412418425933503,-0.10108121839321878 l 1.2574630936018008 -5.313201336088209" fill="#ff3c05" stroke="none" /><path d="M 94.81253420990036 120.34920634021253 l -1.3637703520355757 5.349749842630415 a26.52084168871155,26.52084168871155 0 0,0 -0.44139464928038896,-0.11657633864848974 l 1.455655444127454 -5.325482154678344" fill="#ff3c05" stroke="none" /><path d="M 94.11515582081647 120.15858648285463 l -1.5463461446061755 5.297022578565071 a26.518118755225057,26.518118755225057 0 0,0 -0.4370754539023271,-0.13168724887615146 l 1.6372965729487483 -5.269619960583193" fill="#ff3c05" stroke="none" /><path d="M 93.76903079525671 120.05430185196036 l -3.9631662404832717 12.755404410544648 a34.35690938526754,34.35690938526754 0 0,0 -0.5632547880948741,-0.18033639614802152 l 4.182142373669087 -12.68529516773692" fill="#ffa70f" stroke="none" /><path d="M 92.40401165467489 119.57807347666478 l -1.5818484239716355 4.077092178863465 a25.373205354356365,25.373205354356365 0 0,0 -0.4058249957995324,-0.16148614110202933 l 1.651794495813026 -4.049259193355369" fill="#ff2c04" stroke="none" /><path d="M 91.07499286063937 119.00905698771935 l -1.6184474943222205 3.4470740662518526 a24.80810870513224,24.80810870513224 0 0,0 -0.3849832551369293,-0.18481535785961514 l 1.6775434174593917 -3.4187044318926754" fill="#ff2403" stroke="none" /><path d="M 90.10565033884886 118.52300852407294 l -2.6372160137532816 4.93707786519548 a26.59728917871856,26.59728917871856 0 0,0 -0.4019701357837301,-0.21918616810600322 l 2.721808961405652 -4.890951045329711" fill="#ff3d05" stroke="none" /><line stroke="#e1ed5e" stroke-width="0.3" x1="58.666819895761336" x2="56.23545636021788" y1="174.27360380694188" y2="178.64263932499728" /><path d="M 58.180547188652646 175.14741091055294 a86.0,86.0 0 0,1 -31.652253787137756,-30.449443065178592" fill="none" id="id8" stroke="none" /><text fill="#e1ed5e" style="font-size:6.75px; font-family:Arial;" text-anchor="middle"><textPath startOffset="22.20632615414155" xlink:href="#id8">August</textPath></text><path d="M 89.4739219176387 118.17145234162733 l -2.7437246883609987 4.736565891207392 a26.473854364821094,26.473854364821094 0 0,0 -0.39235781219275373,-0.23181191130907874 l 2.8248503715821345 -4.688635407604564" fill="#ff3c05" stroke="none" /><path d="M 88.8546689885994 117.79835938074946 l -2.9699254536938517 4.7427752935115235 a26.595924828412365,26.595924828412365 0 0,0 -0.3859172517433001,-0.2463106491053784 l 3.0511245074840754 -4.690950215582341" fill="#ff3d05" stroke="none" /><path d="M 88.24862548938628 117.40417183066458 l -3.055510550441083 4.525311537152932 a26.46027373234586,26.46027373234586 0 0,0 -0.3752862077225235,-0.25812527571389154 l 3.132953642786497 -4.4720454720739395" fill="#ff3c05" stroke="none" /><path d="M 87.95078237400918 117.19931262002967 l -3.126330195831843 4.462591021309473 a26.448730046243977,26.448730046243977 0 0,0 -0.3706256412243642,-0.2644315542924824 l 3.2026831649050944 -4.408115205172772" fill="#ff3b05" stroke="none" /><path d="M 87.07902340077011 116.55440617244103 l -4.772516651237655 6.114567153850831 a28.756600200170958,28.756600200170958 0 0,0 -0.38758762959909093,-0.3079230539777009 l 4.877061773554105 -6.031510185867999" fill="#ff5c08" stroke="none" /><path d="M 84.9287848128048 114.62390073753433 l -20.88629242598494 20.266386181800787 a50.10263940218553,50.10263940218553 0 0,0 -0.5952514423556093,-0.6241187575259503 l 21.23205041971951 -19.903860307692334" fill="#99ff23" stroke="none" /><path d="M 84.43433777217949 114.09645910891817 l -4.081118701026616 3.6959123258399367 a26.50593296110339,26.50593296110339 0 0,0 -0.30335554376264834,-0.340823169267378 l 4.144133094437604 -3.6251149868316945" fill="#ff3c05" stroke="none" /><path d="M 83.95833913139862 113.55231037782056 l -4.324589020738999 3.653497798366051 a26.661282218805372,26.661282218805372 0 0,0 -0.2931522243947377,-0.3531207390511314 l 4.386837245027273 -3.5785158022011583" fill="#ff3e05" stroke="none" /><path d="M 83.50135304334701 112.99209946851258 l -4.9484806747033545 3.8967530678528264 a27.298582813596482,27.298582813596482 0 0,0 -0.2875362103797877,-0.3716793121870949 l 5.014823702301211 -3.810995761552479" fill="#ff4706" stroke="none" /><path d="M 83.28015986056508 112.70617746262583 l -4.234848343322382 3.218256522121256 a26.31893932406794,26.31893932406794 0 0,0 -0.2710082905412079,-0.3630598927218325 l 4.2896179005586745 -3.1448837498901154" fill="#ff3a05" stroke="none" /><path d="M 82.85270091963577 112.12312394758628 l -4.459465055258829 3.1528375023644912 a26.461429565177106,26.461429565177106 0 0,0 -0.2597492897980333,-0.3741882249715363 l 4.513075252218996 -3.075608015205942" fill="#ff3c05" stroke="none" /><path d="M 82.44556493220864 111.52570212397912 l -4.544784813571695 2.983965919525419 a26.436830106832574,26.436830106832574 0 0,0 -0.24648584584024363,-0.3825515064767986 l 4.595475522788985 -2.9052928131271725" fill="#ff3b05" stroke="none" /><path d="M 82.05923443525364 110.91462005526583 l -9.738279140206615 5.92447498541173 a32.39883697862868,32.39883697862868 0 0,0 -0.2857563911227308,-0.47894414819860576 l 9.838816407027577 -5.7559687433270135" fill="#ff8d0d" stroke="none" /><line stroke="#e1ed5e" stroke-width="0.3" x1="26.63291911575756" x2="22.317208475507996" y1="142.92168965132927" y2="145.44649492493687" /><path d="M 25.769776987707644 143.4266507060508 a86.0,86.0 0 0,1 -11.730757126820373,-40.83630448921669" fill="none" id="id9" stroke="none" /><text fill="#e1ed5e" style="font-size:6.75px; font-family:Arial;" text-anchor="middle"><textPath startOffset="21.46611528233685" xlink:href="#id9">September</textPath></text><path d="M 81.69416730710424 110.29060199501025 l -8.391581534155533 4.717317541648081 a30.62661547134406,30.62661547134406 0 0,0 -0.25438115413616974,-0.46177568475813796 l 8.471539097743218 -4.5721713384921205" fill="#ff750a" stroke="none" /><path d="M 81.51974371655577 109.97397251340807 l -9.61345109323582 5.188472253430053 a31.924224743506997,31.924224743506997 0 0,0 -0.2568341760609779,-0.4858334706209905 l 9.701337777521683 -5.022223767722936" fill="#ff870c" stroke="none" /><path d="M 81.02952815118164 109.00673069616217 l -12.517901136699692 5.943202958679125 a34.857110459119525,34.857110459119525 0 0,0 -0.2526731902617121,-0.5442355729614572 l 12.61834894380123 -5.726847318438841" fill="#ffae10" stroke="none" /><path d="M 80.73074385275274 108.34839909993369 l -10.09449989428882 4.373438870072856 a32.001177012759186,32.001177012759186 0 0,0 -0.2146349706161164,-0.507333668391146 l 10.168285846097241 -4.199030676015551" fill="#ff880c" stroke="none" /><path d="M 80.32549172779594 107.34259656027581 l -10.870336037631933 4.0568481252323005 a32.60268168494854,32.60268168494854 0 0,0 -0.19169715306002175,-0.5274682345699803 l 10.93855745169718 -3.8691320936562037" fill="#ff900d" stroke="none" /><path d="M 80.0844068197444 106.66101706037122 l -15.582105118197116 5.211628249753024 a37.43055290999571,37.43055290999571 0 0,0 -0.19910870518060952,-0.6127935840426456 l 15.669506074393976 -4.942635765732575" fill="#ffcf13" stroke="none" /><path d="M 79.86692584326677 105.97154293290107 l -1.279154597229949 0.37940190036114413 a22.334234719085124,22.334234719085124 0 0,0 -0.1061486225942243,-0.369517280641516 l 1.2854958567102774 -0.3573271442150321" fill="#ff0000" stroke="none" /><path d="M 79.67330655649465 105.27499134158121 l -8.186444564872273 2.1244687099776915 a29.457614433952465,29.457614433952465 0 0,0 -0.12314501215045716,-0.4919031095120327 l 8.22180089131779 -1.9832377610682672" fill="#ff6509" stroke="none" /><path d="M 79.29508885075956 103.50808413554451 l -16.42417299544261 2.782788117729473 a37.65825225803724,37.65825225803724 0 0,0 -0.10278595015479311,-0.6400482097307584 l 16.469640699958696 -2.499660678305501" fill="#ffd213" stroke="none" /><path d="M 79.04373962182676 101.35467743843564 l -7.713483271053033 0.49862339799564764 a28.72958274849579,28.72958274849579 0 0,0 -0.027653795467891356,-0.493777094848267 l 7.720923417408457 -0.365774586811943" fill="#ff5b08" stroke="none" /><line stroke="#e1ed5e" stroke-width="0.3" x1="15.007084014347285" x2="10.007500721073583" y1="101.09737516637583" y2="101.16192664675087" /><path d="M 14.007167355692545 101.11028546245083 a86.0,86.0 0 0,1 10.666146001902534,-42.60595125391555" fill="none" id="id10" stroke="none" /><text fill="#e1ed5e" style="font-size:6.75px; font-family:Arial;" text-anchor="middle"><textPath startOffset="22.20632615414155" xlink:href="#id10">October</textPath></text><path d="M 79.00175016825051 100.2711162175752 l -5.296538284317147 0.0683855767691229 a26.29697974173465,26.29697974173465 0 0,0 -0.001948108698195283,-0.4526718537384303 l 5.296930690304845 0.022795755172982768" fill="#ff3905" stroke="none" /><path d="M 79.00019446554 99.90962569577889 l -11.004015248622114 -0.04735663956987181 a32.004117149649915,32.004117149649915 0 0,0 0.007112523187676848,-0.5508727591611181 l 11.001569718316722 0.23676565679146186" fill="#ff880c" stroke="none" /><path d="M 79.00486145842228 99.54816195383935 l -10.973580840135885 -0.2361633059183579 a31.976121790598885,31.976121790598885 0 0,0 0.016579323056168882,-0.5501870177389294 l 10.967889822624072 0.4250204710822818" fill="#ff880c" stroke="none" /><path d="M 79.01574976396665 99.18683210126434 l -5.531846721130416 -0.21436649504993954 a26.53599865790097,26.53599865790097 0 0,0 0.021615961378923992,-0.4562787804778465 l 5.527337151517993 0.3095563821507951" fill="#ff3d05" stroke="none" /><path d="M 79.03285615573316 98.82574320788736 l -39.13550217689545 -2.191768682720437 a60.1968287058576,60.1968287058576 0 0,0 0.06684545089662737,-1.0340695388739158 l 39.091976134994404 2.8650972858473645" fill="#30ff2f" stroke="none" /><path d="M 79.08570108090925 98.10471618934814 l -5.535136691081065 -0.5016020379614567 a26.557818168439745,26.557818168439745 0 0,0 0.04517721907549509,-0.45492843077572503 l 5.525682346323341 0.5968059994416121" fill="#ff3d05" stroke="none" /><path d="M 79.3925641242962 95.95851677861259 l -23.95030998560703 -4.6970800509916595 a45.406554640343884,45.406554640343884 0 0,0 0.1570217127645735,-0.7656936365663043 l 23.86590897692746 5.108649343721367" fill="#ceff1d" stroke="none" /><path d="M 80.803312248108 91.48605970444005 l -57.59006325567602 -25.54182088667983 a84.0,84.0 0 0,0 0.5975907321465934,-1.3167119646317162 l 57.141870206566075 26.529354860153617" fill="#4dd2ff" stroke="none" /><line stroke="#e1ed5e" stroke-width="0.3" x1="26.266209847984243" x2="21.928928074336255" y1="57.711370442889674" y2="55.22380399835377" /><path d="M 25.398753493254645 57.213857153982495 a86.0,86.0 0 0,1 29.58750427330803,-30.492523968695096" fill="none" id="id11" stroke="none" /><text fill="#e1ed5e" style="font-size:6.75px; font-family:Arial;" text-anchor="middle"><textPath startOffset="21.46611528233685" xlink:href="#id11">November</textPath></text><line stroke="#e1ed5e" stroke-width="0.3" x1="56.762969772571076" x2="54.21961505331055" y1="26.818313649435495" y2="22.513508569990535" /><path d="M 56.25429882871897 25.957352633546506 a86.0,86.0 0 0,1 42.265352541879196,-11.944610805530505" fill="none" id="id12" stroke="none" /><text fill="#e1ed5e" style="font-size:6.75px; font-family:Arial;" text-anchor="middle"><textPath startOffset="22.20632615414155" xlink:href="#id12">December</textPath></text></svg>