<?xml version="1.0" encoding="utf-8" ?>
<svg baseProfile="full" height="200mm" version="1.1" viewBox="0,0,200,200" width="200mm" xmlns="http://www.w3.org/2000/svg" xmlns:ev="http://www.w3.org/2001/xml-events" xmlns:xlink="http://www.w3.org/1999/xlink"><defs /><rect fill="#1a1a1a" height="200" width="200" x="0" y="0" /><text alignment-baseline="middle" fill="#e1ed5e" style="dominant-baseline: central; font-size:9.0px; font-family:Arial;" text-anchor="middle" x="100.0" y="100.0">2019</text><line stroke="#e1ed5e" stroke-width="0.3" x1="100.0" x2="100.0" y1="15.0" y2="10.0" /><path d="M 100.0 14.0 a86.0,86.0 0 0,1 42.46469731375804,11.215312516191453" fill="none" id="id37" stroke="none" /><text fill="#e1ed5e" style="font-size:6.75px; font-family:Arial;" text-anchor="middle"><textPath startOffset="22.20632615414155" xlink:href="#id37">January</textPath></text><line stroke="#e1ed5e" stroke-width="0.3" x1="143.23703022742887" x2="145.7803849466894" y1="26.81831364943548" y2="22.513508569990506" /><path d="M 143.74570117128098 25.957352633546492 a86.0,86.0 0 0,1 28.547481713284135,27.462654790039103" fill="none" id="id38" stroke="none" /><text fill="#e1ed5e" style="font-size:6.75px; font-family:Arial;" text-anchor="middle"><textPath startOffset="19.985693538727396" xlink:href="#id38">February</textPath></text><line stroke="#e1ed5e" stroke-width="0.3" x1="172.23445277983987" x2="176.4835382374775" y1="55.19839476539836" y2="52.563006222186495" /><path d="M 173.08426987136738 54.67131705675599 a86.0,86.0 0 0,1 12.851231095245387,41.99856678651699" fill="none" id="id39" stroke="none" /><text fill="#e1ed5e" style="font-size:6.75px; font-family:Arial;" text-anchor="middle"><textPath startOffset="22.20632615414155" xlink:href="#id39">March</textPath></text><line stroke="#e1ed5e" stroke-width="0.3" x1="184.98032266829074" x2="189.97916517819016" y1="98.17113171792111" y2="98.06355123074" /><path d="M 185.9800911702706 98.14961562048488 a86.0,86.0 0 0,1 -9.607161424134198,41.387399972396054" fill="none" id="id40" stroke="none" /><text fill="#e1ed5e" style="font-size:6.75px; font-family:Arial;" text-anchor="middle"><textPath startOffset="21.466115282336823" xlink:href="#id40">April</textPath></text><line stroke="#e1ed5e" stroke-width="0.3" x1="174.80103733775053" x2="179.2010983576182" y1="140.37084112569926" y2="142.7455964860345" /><path d="M 175.68104954172406 140.8457921977663 a86.0,86.0 0 0,1 -30.038265399797805,32.042727171017184" fill="none" id="id41" stroke="none" /><text fill="#e1ed5e" style="font-size:6.75px; font-family:Arial;" text-anchor="middle"><textPath startOffset="22.206326154141568" xlink:href="#id41">May</textPath></text><line stroke="#e1ed5e" stroke-width="0.3" x1="143.8653032363475" x2="146.44561519142675" y1="172.8068346515853" y2="177.08958963109032" /><path d="M 144.38136562736335 173.6633856474863 a86.0,86.0 0 0,1 -40.68145358897372,12.25698825130547" fill="none" id="id42" stroke="none" /><text fill="#e1ed5e" style="font-size:6.75px; font-family:Arial;" text-anchor="middle"><textPath startOffset="21.466115282336833" xlink:href="#id42">June</textPath></text><line stroke="#e1ed5e" stroke-width="0.3" x1="102.19456741930631" x2="102.32365962044197" y1="184.97166512339345" y2="189.96999836594603" /><path d="M 102.22038585953345 185.97133177190398 a86.0,86.0 0 0,1 -42.740103519485714,-10.115201625700543" fill="none" id="id43" stroke="none" /><text fill="#e1ed5e" style="font-size:6.75px; font-family:Arial;" text-anchor="middle"><textPath startOffset="22.20632615414155" xlink:href="#id43">July</textPath></text><path d="M 91.40352486487194 119.15986991738527 l -8.591889125453406 19.14964859440988 a41.98879701253668,41.98879701253668 0 0,0 -0.6568887446592222,-0.30154540431469157 l 8.920245865880046 -18.998916119761112" fill="#ff900d" stroke="none" /><path d="M 90.42595943632237 118.69057910512821 l -6.454624573138229 12.600810532998551 a35.157775406775144,35.157775406775144 0 0,0 -0.5362550147485864,-0.2805432787392599 l 6.670570490413311 -12.487837835314576" fill="#ff1c02" stroke="none" /><line stroke="#e1ed5e" stroke-width="0.3" x1="58.666819895761336" x2="56.23545636021788" y1="174.27360380694188" y2="178.64263932499728" /><path d="M 58.180547188652646 175.14741091055294 a86.0,86.0 0 0,1 -31.652253787137756,-30.449443065178592" fill="none" id="id44" stroke="none" /><text fill="#e1ed5e" style="font-size:6.75px; font-family:Arial;" text-anchor="middle"><textPath startOffset="22.20632615414155" xlink:href="#id44">August</textPath></text><path d="M 89.1626897886671 117.98757091392108 l -10.883561735307651 18.064338354471285 a42.08962389970659,42.08962389970659 0 0,0 -0.6173561727683735,-0.3792305842228772 l 11.192897108008333 -17.87431930342003" fill="#ff910d" stroke="none" /><path d="M 87.65650970185807 116.9893568818739 l -10.307094259358047 14.18649819117264 a38.53547612696719,38.53547612696719 0 0,0 -0.5332851683130133,-0.3945116184701944 l 10.549764398089625 -14.006976623962677" fill="#ff5608" stroke="none" /><path d="M 87.07902340077011 116.55440617244103 l -25.890204378078124 33.170631946486274 a63.07842091224327,63.07842091224327 0 0,0 -0.8501844957348175,-0.6754379819653837 l 26.4573463665303 -32.72006005051576" fill="#42ff2d" stroke="none" /><path d="M 85.18274418774928 114.88116024355367 l -24.366066172986322 24.47115308122388 a55.53320885569485,55.53320885569485 0 0,0 -0.6715799528406029,-0.6803069465659289 l 24.78368675088246 -24.04810564067728" fill="#a3ff22" stroke="none" /><path d="M 84.67929136418377 114.36230785411684 l -9.222461780175593 8.64554234456606 a33.64117097892772,33.64117097892772 0 0,0 -0.3924059843103897,-0.42587919484578335 l 9.36991417248171 -8.485511894918936" fill="#ff0100" stroke="none" /><path d="M 83.95833913139862 113.55231037782056 l -13.565237494980943 11.460179241207161 a38.75813550280075,38.75813550280075 0 0,0 -0.42616231067928306,-0.5133399564458768 l 13.760495805553765 -11.22497802764752" fill="#ff5a08" stroke="none" /><path d="M 82.05923443525364 110.91462005526583 l -53.82229669423909 32.743860165797486 a84.0,84.0 0 0,0 -0.7408764972070725,-1.2417516244555555 l 54.3779540671444 -31.812546447455823" fill="#4dd2ff" stroke="none" /><line stroke="#e1ed5e" stroke-width="0.3" x1="26.63291911575756" x2="22.317208475507996" y1="142.92168965132927" y2="145.44649492493687" /><path d="M 25.769776987707644 143.4266507060508 a86.0,86.0 0 0,1 -11.730757126820373,-40.83630448921669" fill="none" id="id45" stroke="none" /><text fill="#e1ed5e" style="font-size:6.75px; font-family:Arial;" text-anchor="middle"><textPath startOffset="21.46611528233685" xlink:href="#id45">September</textPath></text><path d="M 80.87730276802145 108.67885076344099 l -39.66340188740067 18.001265280479366 a64.55721525740196,64.55721525740196 0 0,0 -0.45054454480448813,-1.0158590082479808 l 39.967387516936434 -17.315857935738688" fill="#30ff2f" stroke="none" /><path d="M 79.50377843672027 104.57218783832718 l -12.30511354589273 2.744959129665215 a33.60756201653774,33.60756201653774 0 0,0 -0.12109278505282384,-0.5657051779028721 l 12.350540369669996 -2.532740132346179" fill="#ff0000" stroke="none" /><path d="M 79.18660465613746 102.79330883721812 l -16.721778281065344 2.244184107148836 a37.87169911976527,37.87169911976527 0 0,0 -0.08115091917366225,-0.6468526709156656 l 16.757930709485855 -1.956013681945762" fill="#ff4b07" stroke="none" /><path d="M 79.07016306316243 101.71520430193888 l -12.594748500801694 1.0321421459520175 a33.636969858628966,33.636969858628966 0 0,0 -0.04232402379852394,-0.5774776781373567 l 12.610649083264553 -0.8151913313178997" fill="#ff0100" stroke="none" /><path d="M 79.04373962182676 101.35467743843564 l -41.91531566970712 2.7095355487088972 a63.00280074686583,63.00280074686583 0 0,0 -0.06064364320951933,-1.0828329876012717 l 41.95574566380417 -1.987630844772188" fill="#42ff2d" stroke="none" /><line stroke="#e1ed5e" stroke-width="0.3" x1="15.007084014347285" x2="10.007500721073583" y1="101.09737516637583" y2="101.16192664675087" /><path d="M 14.007167355692545 101.11028546245083 a86.0,86.0 0 0,1 10.666146001902534,-42.60595125391555" fill="none" id="id46" stroke="none" /><text fill="#e1ed5e" style="font-size:6.75px; font-family:Arial;" text-anchor="middle"><textPath startOffset="22.20632615414155" xlink:href="#id46">October</textPath></text><path d="M 79.3925641242962 95.95851677861259 l -41.73294345887228 -8.184569481882786 a63.52794078420912,63.52794078420912 0 0,0 0.21968779946760944,-1.0712757307380132 l 41.585876363489675 8.901720868784203" fill="#3cff2e" stroke="none" /><path d="M 79.81627453868168 94.20196356495316 l -12.226524545919949 -3.51222745905345 a33.72099226460389,33.72099226460389 0 0,0 0.16506281658776317,-0.5565097604123324 l 12.16425583222048 3.7221666062123218" fill="#ff0200" stroke="none" /><path d="M 80.02781315780177 93.51064311812611 l -40.18277202026959 -13.056174078622114 a63.25066684449187,63.25066684449187 0 0,0 0.34535679195854607,-1.032572850113862 l 39.95207793453927 13.745920031658297" fill="#3fff2d" stroke="none" /><path d="M 80.2630227832202 92.82701384747504 l -16.31498863558299 -5.929336912956747 a38.359029074419844,38.359029074419844 0 0,0 0.23087644116853942,-0.6186340777868952 l 16.21050760591282 6.209294127772984" fill="#ff5307" stroke="none" /><path d="M 81.6062741919709 89.86733742301443 l -11.068617077330932 -6.0974357891916355 a33.636969858628966,33.636969858628966 0 0,0 0.2837396276444262,-0.5047411370609793 l 10.962019808394075 6.287060436187401" fill="#ff0100" stroke="none" /><line stroke="#e1ed5e" stroke-width="0.3" x1="26.266209847984243" x2="21.928928074336255" y1="57.71137044288968" y2="55.22380399835378" /><path d="M 25.398753493254645 57.2138571539825 a86.0,86.0 0 0,1 29.58750427330803,-30.4925239686951" fill="none" id="id47" stroke="none" /><text fill="#e1ed5e" style="font-size:6.75px; font-family:Arial;" text-anchor="middle"><textPath startOffset="21.46611528233685" xlink:href="#id47">November</textPath></text><path d="M 82.7489923806493 88.02491185347247 l -14.62930540779427 -10.155187780700883 a38.8085489463857,38.8085489463857 0 0,0 0.3856597337540092,-0.5454883433118971 l 14.452333054236382 10.405502624344567" fill="#ff5b08" stroke="none" /><path d="M 83.39014120810768 87.1503855733568 l -34.59095025812199 -26.760033245136526 a64.73366230994932,64.73366230994932 0 0,0 0.6894009249441915,-0.8754691649190801 l 34.12519525258383 27.351494804008652" fill="#30ff31" stroke="none" /><path d="M 83.6137871275137 86.86637796730984 l -13.787759004069892 -11.050949773838653 a38.669911976527075,38.669911976527075 0 0,0 0.420768247519505,-0.5158121192612976 l 13.595492264473995 11.286646062708034" fill="#ff5908" stroke="none" /><path d="M 84.07557802195018 86.31012108654704 l -10.05417626621603 -8.643356465228901 a34.25873566284342,34.25873566284342 0 0,0 0.3882789443472683,-0.44386995419119757 l 9.903905458290918 8.815141975623042" fill="#ff0c01" stroke="none" /><path d="M 85.05521093208273 85.24692304244772 l -30.21446485470232 -29.826872979399194 a63.45652173913044,63.45652173913044 0 0,0 0.7740613864509449,-0.7707373208616191 l 29.696567668084064 30.342546150910927" fill="#3dff2e" stroke="none" /><line stroke="#e1ed5e" stroke-width="0.3" x1="56.76296977257108" x2="54.21961505331056" y1="26.818313649435495" y2="22.513508569990535" /><path d="M 56.25429882871898 25.957352633546506 a86.0,86.0 0 0,1 42.26535254187918,-11.944610805530505" fill="none" id="id48" stroke="none" /><text fill="#e1ed5e" style="font-size:6.75px; font-family:Arial;" text-anchor="middle"><textPath startOffset="22.20632615414155" xlink:href="#id48">December</textPath></text><path d="M 90.26544431104013 81.39251694778311 l -8.062362073678422 -15.411105595394359 a38.392638036809814,38.392638036809814 0 0,0 0.5882108877211537,-0.301304462925604 l 7.795890698368504 15.547602583632468" fill="#ff5407" stroke="none" /><path d="M 91.23893434514133 80.91482961587045 l -18.10518969352296 -39.44047947480494 a64.39757268604961,64.39757268604961 0 0,0 1.011403380914038,-0.45378721531521077 l 17.423604194142147 39.74628702063668" fill="#32ff2f" stroke="none" /><path d="M 93.59665428221793 80.00007090966166 l -13.271271332933246 -41.45090665028779 a64.523606295012,64.523606295012 0 0,0 1.0606901284996308,-0.32956158609981107 l 12.555795831722886 41.67320837127012" fill="#30ff2f" stroke="none" /></svg>