<?xml version="1.0" encoding="utf-8" ?>
<svg baseProfile="full" height="200mm" version="1.1" viewBox="0,0,200,200" width="200mm" xmlns="http://www.w3.org/2000/svg" xmlns:ev="http://www.w3.org/2001/xml-events" xmlns:xlink="http://www.w3.org/1999/xlink"><defs /><rect fill="#1a1a1a" height="200" width="200" x="0" y="0" /><text alignment-baseline="middle" fill="#e1ed5e" style="dominant-baseline: central; font-size:9.0px; font-family:Arial;" text-anchor="middle" x="100.0" y="100.0">2012</text><line stroke="#e1ed5e" stroke-width="0.3" x1="100.0" x2="100.0" y1="15.0" y2="10.0" /><path d="M 100.0 14.0 a86.0,86.0 0 0,1 42.35913384403234,11.155469271406648" fill="none" id="id1" stroke="none" /><text fill="#e1ed5e" style="font-size:6.75px; font-family:Arial;" text-anchor="middle"><textPath startOffset="22.145653131862478" xlink:href="#id1">January</textPath></text><line stroke="#e1ed5e" stroke-width="0.3" x1="143.13028292997686" x2="145.6673583964461" y1="26.7553504044142" y2="22.446841604673864" /><path d="M 143.63769802327073 25.89364864446614 a86.0,86.0 0 0,1 29.32050498858742,28.57503671076993" fill="none" id="id2" stroke="none" /><text fill="#e1ed5e" style="font-size:6.75px; font-family:Arial;" text-anchor="middle"><textPath startOffset="20.669276256404974" xlink:href="#id2">February</textPath></text><line stroke="#e1ed5e" stroke-width="0.3" x1="172.87174338648825" x2="177.1583165268699" y1="56.24261187166439" y2="53.66864786411523" /><path d="M 173.72905801456457 55.72781907015455 a86.0,86.0 0 0,1 12.242430191666344,42.057860355516425" fill="none" id="id3" stroke="none" /><text fill="#e1ed5e" style="font-size:6.75px; font-family:Arial;" text-anchor="middle"><textPath startOffset="22.145653131862474" xlink:href="#id3">March</textPath></text><line stroke="#e1ed5e" stroke-width="0.3" x1="184.99686870605535" x2="189.99668451229388" y1="99.2704041080226" y2="99.22748670261217" /><path d="M 185.99683186730306 99.26182062694052 a86.0,86.0 0 0,1 -10.086455211305974,41.156179273409016" fill="none" id="id4" stroke="none" /><text fill="#e1ed5e" style="font-size:6.75px; font-family:Arial;" text-anchor="middle"><textPath startOffset="21.40746469413373" xlink:href="#id4">April</textPath></text><line stroke="#e1ed5e" stroke-width="0.3" x1="174.33088141563837" x2="178.70328620479359" y1="141.23008692659167" y2="143.65538615756765" /><path d="M 175.20536237346943 141.71514677278685 a86.0,86.0 0 0,1 -30.301960400862466,31.631185727798858" fill="none" id="id5" stroke="none" /><text fill="#e1ed5e" style="font-size:6.75px; font-family:Arial;" text-anchor="middle"><textPath startOffset="22.145653131862474" xlink:href="#id5">May</textPath></text><line stroke="#e1ed5e" stroke-width="0.3" x1="143.1302829299769" x2="145.66735839644613" y1="173.24464959558577" y2="177.55315839532614" /><path d="M 143.63769802327073 174.10635135553383 a86.0,86.0 0 0,1 -40.68552437913181,11.842963189579606" fill="none" id="id6" stroke="none" /><text fill="#e1ed5e" style="font-size:6.75px; font-family:Arial;" text-anchor="middle"><textPath startOffset="21.407464694133747" xlink:href="#id6">June</textPath></text><line stroke="#e1ed5e" stroke-width="0.3" x1="101.45913802915013" x2="101.54496967792366" y1="184.9874750549273" y2="189.98673829345242" /><path d="M 101.47630435890484 185.9873277026323 a86.0,86.0 0 0,1 -42.54439059252881,-10.42667462771756" fill="none" id="id7" stroke="none" /><text fill="#e1ed5e" style="font-size:6.75px; font-family:Arial;" text-anchor="middle"><textPath startOffset="22.145653131862474" xlink:href="#id7">July</textPath></text><line stroke="#e1ed5e" stroke-width="0.3" x1="58.13341422392154" x2="55.67067388415222" y1="173.97424548756322" y2="178.32567169271397" /><path d="M 57.64086615596768 174.84453072859336 a86.0,86.0 0 0,1 -31.369924170532247,-30.572349798747897" fill="none" id="id8" stroke="none" /><text fill="#e1ed5e" style="font-size:6.75px; font-family:Arial;" text-anchor="middle"><textPath startOffset="22.145653131862474" xlink:href="#id8">August</textPath></text><line stroke="#e1ed5e" stroke-width="0.3" x1="26.387840678322732" x2="22.057713659400548" y1="142.50000000000003" y2="145.00000000000006" /><path d="M 25.521815274538298 143.00000000000003 a86.0,86.0 0 0,1 -11.493303480769221,-40.785679425670985" fill="none" id="id9" stroke="none" /><text fill="#e1ed5e" style="font-size:6.75px; font-family:Arial;" text-anchor="middle"><textPath startOffset="21.40746469413373" xlink:href="#id9">September</textPath></text><line stroke="#e1ed5e" stroke-width="0.3" x1="15.003131293944662" x2="10.003315487706104" y1="100.72959589197737" y2="100.7725132973878" /><path d="M 14.003168132696942 100.73817937305945 a86.0,86.0 0 0,1 10.791469493833604,-42.45332614584628" fill="none" id="id10" stroke="none" /><text fill="#e1ed5e" style="font-size:6.75px; font-family:Arial;" text-anchor="middle"><textPath startOffset="22.145653131862435" xlink:href="#id10">October</textPath></text><path d="M 80.83023694016515 91.42560881287825 l -15.773503535760353 -7.0552875006803735 a38.27948192249701,38.27948192249701 0 0,0 0.2734531888416644,-0.5975445680623254 l 15.650065882063641 7.32502105095737" fill="#ff8d0d" stroke="none" /><path d="M 80.9802524753101 91.09779779509293 l -24.433388655292482 -11.436059604794488 a47.977285639311226,47.977285639311226 0 0,0 0.3555362282028194,-0.7429339749883924 l 24.23347316912976 11.853806081847969" fill="#e7ff1a" stroke="none" /><path d="M 81.1358732173502 90.77261029715801 l -23.688593928766444 -11.587278341139339 a47.37071295352151,47.37071295352151 0 0,0 0.3635816964319124,-0.7274069465867108 l 23.48619231912279 11.99221714388982" fill="#efff19" stroke="none" /><path d="M 81.29705330413844 90.45014215332179 l -23.229110515722653 -11.860949343293338 a47.082056948711454,47.082056948711454 0 0,0 0.3737237614005981,-0.7166645898106729 l 23.022078685347115 12.257960176208497" fill="#f3ff19" stroke="none" /><path d="M 81.46374523516351 90.13048839642627 l -15.163149668684028 -8.073523130772648 a38.1785588341407,38.1785588341407 0 0,0 0.31298173563244097,-0.5758511416961395 l 15.022322583436237 8.332629105943408" fill="#ff8b0c" stroke="none" /><path d="M 81.63589988554816 89.8137432299009 l -14.790451053847601 -8.20401387713583 a37.91340551374852,37.91340551374852 0 0,0 0.32057884941221904,-0.5664321096393263 l 14.647438839414013 8.456702756874263" fill="#ff870c" stroke="none" /><line stroke="#e1ed5e" stroke-width="0.3" x1="26.387840678322718" x2="22.05771365940052" y1="57.49999999999999" y2="54.99999999999999" /><path d="M 25.521815274538284 56.99999999999999 a86.0,86.0 0 0,1 29.574782752854787,-30.34633250058573" fill="none" id="id11" stroke="none" /><text fill="#e1ed5e" style="font-size:6.75px; font-family:Arial;" text-anchor="middle"><textPath startOffset="21.40746469413373" xlink:href="#id11">November</textPath></text><path d="M 81.81346652052679 89.5 l -22.47566455579317 -12.976330981502922 a46.95266196300584,46.95266196300584 0 0,0 0.40899410725825186,-0.6945614087768841 l 22.249596738405142 13.360243558573378" fill="#f5ff19" stroke="none" /><path d="M 81.99639281039701 89.18935116829357 l -19.56882691482504 -11.750518304286759 a43.825723805429675,43.825723805429675 0 0,0 0.39282881910056033,-0.6416563537688892 l 19.364230131269085 12.084711774180192" fill="#ffde14" stroke="none" /><path d="M 82.18462484594161 88.88188828441811 l -27.186426918175968 -16.96634109638309 a53.04619382666436,53.04619382666436 0 0,0 0.48873809676397556,-0.7683774653531403 l 26.891171129786102 17.430532236414905" fill="#a4ff21" stroke="none" /><path d="M 82.37810715431573 88.57770195909679 l -18.292781543316874 -11.857159989261373 a42.799497691517004,42.799497691517004 0 0,0 0.40491496275110017,-0.6130928620280581 l 18.086542141645044 12.169432729628491" fill="#ffcf13" stroke="none" /><path d="M 82.576782715395 88.27688183743585 l -35.31159513871564 -23.75921711574833 a63.5606525936085,63.5606525936085 0 0,0 0.6168720634901802,-0.900034776077137 l 34.89853333841014 24.361886626895505" fill="#30ff37" stroke="none" /><path d="M 82.78059297857968 87.97951657250589 l -6.893378163551222 -4.812113324886294 a29.406848229703748,29.406848229703748 0 0,0 0.2925069807145584,-0.4114477000277994 l 6.8097560843066915 4.929738251623614" fill="#ff0000" stroke="none" /><path d="M 82.98947788004972 87.6856937992154 l -21.146467987136315 -15.308412053577035 a47.10594928235868,47.10594928235868 0 0,0 0.4798032103373135,-0.6509452036972097 l 20.880562757215184 15.669163566543107" fill="#f2ff19" stroke="none" /><path d="M 83.2033758604659 87.39550010848427 l -35.463889385652045 -26.612763743523047 a65.33877134547527,65.33877134547527 0 0,0 0.6809171862407783,-0.8913424545244968 l 35.00182022205696 27.217627111288426" fill="#33ff4f" stroke="none" /><path d="M 83.42222388311158 87.10902102172516 l -20.678175599314766 -16.07947441685413 a47.19420629907238,47.19420629907238 0 0,0 0.5028061061109503,-0.6352790896916097 l 20.399103062562254 16.432073450460422" fill="#f1ff19" stroke="none" /><path d="M 83.64595745247003 86.82634096563983 l -10.407739846691229 -8.383738495246991 a34.364434887906434,34.364434887906434 0 0,0 0.3740048046999053,-0.45622504940328673 l 10.262288222752694 8.56116582634877" fill="#ff5007" stroke="none" /><path d="M 83.8745106332314 86.54754324733833 l -25.826514362692084 -21.54539683317112 a54.63350961206934,54.63350961206934 0 0,0 0.6069664193896235,-0.7150049158456233 l 25.452853379795346 21.9855685314663" fill="#91ff24" stroke="none" /><path d="M 84.10781606972428 86.27271002978789 l -20.027725753406518 -17.299472499631865 a47.464722700591096,47.464722700591096 0 0,0 0.5379085169054341,-0.6120411497338731 l 19.72780617254249 17.640725927177037" fill="#eeff19" stroke="none" /><path d="M 84.34580500576568 86.00192230759919 l -26.1036311050571 -23.342027897119127 a56.01785006562785,56.01785006562785 0 0,0 0.6471456771341405,-0.7113264624070448 l 25.699087727081093 23.78669193508383" fill="#80ff26" stroke="none" /><path d="M 84.58840730492382 85.73525988315684 l -6.882615320989354 -6.37044598962722 a30.378324784495092,30.378324784495092 0 0,0 0.35751551196918074,-0.37966908439381214 l 6.772243975283901 6.487656533965544" fill="#ff1001" stroke="none" /><path d="M 84.83555147118756 85.47280134310135 l -30.343912923712402 -29.068782173836496 a63.02079424037336,63.02079424037336 0 0,0 0.7550887444208297,-0.77478757146348 l 29.84043737814077 29.585392437367705" fill="#2fff30" stroke="none" /><path d="M 85.08716467003674 85.21462403516908 l -19.672979116895434 -19.504835006602537 a48.70315317736578,48.70315317736578 0 0,0 0.5937333680263356,-0.5886587543481111 l 19.33525382873912 19.83967377117932" fill="#ddff1b" stroke="none" /><path d="M 85.34317274990677 84.96080404539775 l -6.0778057208659275 -6.236364095068653 a29.708154770492545,29.708154770492545 0 0,0 0.36827857528244,-0.35280254432217134 l 5.9698546597181865 6.339778769696394" fill="#ff0500" stroke="none" /><path d="M 85.60350026404147 84.71141617570332 l -28.80558478917096 -30.5905328193863 a63.01835805002461,63.01835805002461 0 0,0 0.7939419714625803,-0.7348608359203623 l 28.276213046394428 31.08051140143903" fill="#2fff30" stroke="none" /><path d="M 85.86807049272753 84.46653392183569 l -17.066788604605645 -18.759390337774875 a46.36119080641322,46.36119080641322 0 0,0 0.5932796841808127,-0.5305143519385558 l 16.74224389360144 19.04960021959683" fill="#fdff18" stroke="none" /><path d="M 86.13680546590413 84.22622945171909 l -11.71964023774734 -13.334799245871164 a38.752938861774766,38.752938861774766 0 0,0 0.5034569971899007,-0.43487416319112193 l 11.489003760794592 13.534017541526996" fill="#ff940d" stroke="none" /><path d="M 86.40962598614128 83.9905735841838 l -13.747371458064432 -16.194369010326067 a42.2425942306634,42.2425942306634 0 0,0 0.5568492511729379,-0.4645434503583783 l 13.467347872729587 16.42797464459633" fill="#ffc712" stroke="none" /><path d="M 86.68645165197937 83.75963576809568 l -15.519954823295397 -18.931821375064935 a45.48025445730693,45.48025445730693 0 0,0 0.6080260191874443,-0.4897827211538255 l 15.192678033752706 19.19545239001216" fill="#fff517" stroke="none" /><path d="M 86.96720088162412 83.53348406188908 l -31.815279904958526 -40.197566836719986 a72.264572708874,72.264572708874 0 0,0 0.9793227975299448,-0.7615273307402716 l 31.12054716279334 40.737795219081065" fill="#3cffa8" stroke="none" /><path d="M 87.25179093698888 83.31218511350988 l -16.91391279981345 -22.14085479885076 a48.8621229884495,48.8621229884495 0 0,0 0.6709165294854585,-0.5034682715327012 l 16.531343281417236 22.427942097647463" fill="#dbff1b" stroke="none" /><path d="M 87.54013794807813 83.09580414077388 l -10.302706743689798 -13.97760038993681 a38.36430473434606,38.36430473434606 0 0,0 0.5334812145823303,-0.38619925845947023 l 10.061244518733501 14.152400419769359" fill="#ff8e0d" stroke="none" /><path d="M 87.83215693770416 82.88440491214696 l -9.974830677603565 -14.030848530318298 a38.21516649723715,38.21516649723715 0 0,0 0.537932895628341,-0.3755189391226249 l 9.732502690801457 14.20001228524605" fill="#ff8c0c" stroke="none" /><path d="M 88.12776184653039 82.6780497279521 l -11.913473544630413 -17.382113940086118 a42.0729384976264,42.0729384976264 0 0,0 0.5992462893003397,-0.40319964695345234 l 11.613330967233084 17.58406326109668" fill="#ffc512" stroke="none" /><path d="M 88.4268655584334 82.4767994020092 l -14.739926435041536 -22.318127299478316 a47.74629390151382,47.74629390151382 0 0,0 0.68780666246127,-0.44582796876305003 l 14.35463414032324 22.567869109945274" fill="#eaff1a" stroke="none" /><path d="M 88.72937992617638 82.28071324371311 l -33.811860221470866 -53.157860268860674 a84.0,84.0 0 0,0 1.2233434848412057,-0.7634568126338559 l 32.89435260783996 53.73045287833607" fill="#4dd2ff" stroke="none" /><line stroke="#e1ed5e" stroke-width="0.3" x1="56.869717070023135" x2="54.33264160355391" y1="26.7553504044142" y2="22.446841604673864" /><path d="M 56.362301976729285 25.89364864446614 a86.0,86.0 0 0,1 42.16139366436587,-11.88097634709845" fill="none" id="id12" stroke="none" /><text fill="#e1ed5e" style="font-size:6.75px; font-family:Arial;" text-anchor="middle"><textPath startOffset="22.145653131862474" xlink:href="#id12">December</textPath></text><path d="M 89.65649057296885 81.72400993836675 l -5.039776543430226 -8.90480225017982 a31.232050172009377,31.232050172009377 0 0,0 0.4688612063107691,-0.26006940755357094 l 4.886171148963354 8.990004573166537" fill="#ff1e03" stroke="none" /><path d="M 90.61103034731259 81.2157712731953 l -9.723317054448787 -19.453147500772737 a42.747823850402945,42.747823850402945 0 0,0 0.659211648585912,-0.32245345084034277 l 9.387945156600821 19.617194701710293" fill="#ffcf13" stroke="none" /><path d="M 91.26138138417902 80.90454125486306 l -10.622332448404425 -23.211713425552663 a46.52680134279278,46.52680134279278 0 0,0 0.729111749043443,-0.32612241142008835 l 10.222307296505363 23.390639587882596" fill="#faff18" stroke="none" /><path d="M 91.5904679813234 80.7573450057729 l -11.324078904237862 -25.91170864177839 a49.27810827770871,49.27810827770871 0 0,0 0.7780424888972306,-0.3321000732440264 l 10.8776013401702 26.10228336468182" fill="#d5ff1c" stroke="none" /><path d="M 91.92203290615298 80.6158196554323 l -8.717249002958248 -20.918224204027133 a43.66191814541574,43.66191814541574 0 0,0 0.6943191800252251,-0.28237356601615876 l 8.356875361742581 21.064785026622584" fill="#ffdc14" stroke="none" /><path d="M 92.25597844496254 80.48000691201159 l -7.767004743961244 -19.577925737806535 a42.062325106402284,42.062325106402284 0 0,0 0.6734533526089169,-0.26050622421489456 l 7.429779128858797 19.70837185015947" fill="#ffc512" stroke="none" /><path d="M 92.592206182469 80.34994680014964 l -10.573305422248882 -28.046948816767266 a50.97375728003615,50.97375728003615 0 0,0 0.8214320211673168,-0.30164121619169404 l 10.09028424942744 28.22432088196768" fill="#bfff1e" stroke="none" /><path d="M 92.93061703081487 80.22567764915836 l -6.712595282789353 -18.776323692068424 a40.940142096280454,40.940142096280454 0 0,0 0.6638039083543253,-0.23090545717848956 l 6.389285602390023 18.8887875818155" fill="#ffb410" stroke="none" /><path d="M 93.27111125876988 80.10723608172694 l -8.241399880841906 -24.364234346918415 a46.720353561090484,46.720353561090484 0 0,0 0.7619361325586166,-0.25046354074662003 l 7.821941010635528 24.502118809067063" fill="#f8ff18" stroke="none" /><path d="M 93.61358852112211 79.99465700312896 l -10.323145353505682 -32.33710578882437 a54.94489270548994,54.94489270548994 0 0,0 0.9009899275714033,-0.27912898268664815 l 9.766514793062662 32.509551359317655" fill="#8dff24" stroke="none" /><path d="M 93.95794788825049 79.88797359093562 l -8.497472823360406 -28.28532337571085 a50.53415925419722,50.53415925419722 0 0,0 0.8329472980263263,-0.2424588189514763 l 8.010665512952455 28.427025888964845" fill="#c5ff1e" stroke="none" /><path d="M 94.30408787586887 79.78721728523814 l -11.482602879148056 -40.74770676549423 a63.33468761579472,63.33468761579472 0 0,0 1.0489991580364544,-0.28590938521488635 l 10.781422320176924 40.938816644853254" fill="#30ff34" stroke="none" /><path d="M 94.6519064749342 79.69241777938228 l -2.1906341605837008 -8.318194721697578 a29.601816171808935,29.601816171808935 0 0,0 0.49251037530216396,-0.12519421145497014 l 2.0475184920561587 8.354574164987811" fill="#ff0300" stroke="none" /><path d="M 95.00130118170881 79.60360301121753 l -7.265301434449999 -29.64490914274977 a51.52220901270598,51.52220901270598 0 0,0 0.8608326909928835,-0.20315417114842427 l 6.755336589717209 29.765259457544428" fill="#b8ff1f" stroke="none" /><path d="M 95.35216902796891 79.52079915486377 l -4.551018972512269 -20.052629312243585 a41.562580480630764,41.562580480630764 0 0,0 0.6971382336938468,-0.15193803331896094 l 4.206118322199304 20.127798803696262" fill="#ffbd11" stroke="none" /><path d="M 95.70440661134978 79.44403061299748 l -8.635600872687633 -41.32447629851636 a63.21712855914058,63.21712855914058 0 0,0 1.0641655771569647,-0.21286291912657077 l 7.9249388099996905 41.46662861430579" fill="#30ff33" stroke="none" /><path d="M 96.41257539226777 79.30868818359171 l -2.1481053537582047 -12.389700843693575 a33.57453949880734,33.57453949880734 0 0,0 0.5687247154456656,-0.09358343550144908 l 1.9351031352594663 12.424750277690693" fill="#ff4406" stroke="none" /><path d="M 96.76829788921471 79.25015418208739 l -7.753939066617533 -49.78585110825897 a71.38605503135315,71.38605503135315 0 0,0 1.2124577923519941,-0.1781895421985848 l 6.898156168657854 49.91162172375644" fill="#3bff9d" stroke="none" /><path d="M 97.12497278360702 79.19773525538626 l -2.876523821048806 -20.81309343037049 a42.01093161747933,42.01093161747933 0 0,0 0.7152304655370532,-0.09260090317654708 l 2.5188155336209586 20.85940592974743" fill="#ffc412" stroke="none" /><path d="M 97.48249496171623 79.15144685158666 l -3.7155791091489507 -30.770325125956816 a51.99384513856636,51.99384513856636 0 0,0 0.8870251452798162,-0.09939301768600366 l 3.1868180622683355 30.82957390414979" fill="#b2ff20" stroke="none" /><path d="M 97.84075906011542 79.11130261209362 l -4.315975787958433 -41.75315061088724 a62.975626653305326,62.975626653305326 0 0,0 1.0762847572368348,-0.10192528551937197 l 3.598591467336582 41.821087651911796" fill="#2fff2f" stroke="none" /><path d="M 98.1996594967304 79.07731436759882 l -2.95365149042321 -34.32590751003286 a55.45275001381181,55.45275001381181 0 0,0 0.9491160799972842,-0.07346758722139592 l 2.3639664156507085 34.37155286424931" fill="#87ff25" stroke="none" /><path d="M 98.5590905019552 79.04949213459386 l -1.4409218894571518 -20.950688033822047 a42.00018059403421,42.00018059403421 0 0,0 0.7197143903913744,-0.043296230517452676 l 1.0810631469332936 20.972336242164193" fill="#ffc412" stroke="none" /><path d="M 98.9189461498227 79.02784411241856 l -0.7711350621960277 -14.959814196214763 a35.97967590001255,35.97967590001255 0 0,0 0.6170929714817155,-0.026500627383062296 l 0.5142163301134921 14.970847392023654" fill="#ff6a09" stroke="none" /><path d="M 99.27912038922189 79.0123766808444 l -0.585835568085232 -17.055963362127713 a38.06602149075984,38.06602149075984 0 0,0 0.65326130150318,-0.01682569384935668 l 0.2929609525113081 17.063506773327113" fill="#ff890c" stroke="none" /></svg>