<?xml version="1.0" encoding="utf-8" ?>
<svg baseProfile="full" height="200mm" version="1.1" viewBox="0,0,200,200" width="200mm" xmlns="http://www.w3.org/2000/svg" xmlns:ev="http://www.w3.org/2001/xml-events" xmlns:xlink="http://www.w3.org/1999/xlink"><defs /><rect fill="#1a1a1a" height="200" width="200" x="0" y="0" /><text alignment-baseline="middle" fill="#e1ed5e" style="dominant-baseline: central; font-size:9.0px; font-family:Arial;" text-anchor="middle" x="100.0" y="100.0">2013</text><line stroke="#e1ed5e" stroke-width="0.3" x1="100.0" x2="100.0" y1="15.0" y2="10.0" /><path d="M 100.0 14.0 a86.0,86.0 0 0,1 42.46469731375804,11.215312516191453" fill="none" id="id49" stroke="none" /><text fill="#e1ed5e" style="font-size:6.75px; font-family:Arial;" text-anchor="middle"><textPath startOffset="22.20632615414155" xlink:href="#id49">January</textPath></text><path d="M 101.44485096284872 79.0497635885617 l 0.5276531531768949 -7.650933270308704 a28.669106711786853,28.669106711786853 0 0,0 0.49202987243552065,0.03819098778824615 l -0.6592732149747568 7.6407170203319925" fill="#ff4a06" stroke="none" /><path d="M 101.80526077348638 79.07773832637324 l 1.3326691469898195 -15.445110771361032 a36.50249830817443,36.50249830817443 0 0,0 0.6255396161687071,0.059402523977023315 l -1.5983338902487707 15.41988270286883" fill="#ffb610" stroke="none" /><path d="M 102.16513564639614 79.11191278185805 l 2.3162626733366807 -22.34608109718924 a43.46580542010571,43.46580542010571 0 0,0 0.7435411697937822,0.08354551392452181 l -2.700570546640188 22.30289962979412" fill="#efff19" stroke="none" /><path d="M 102.88285421437855 79.19881850522331 l 1.70639992041114 -12.312497201595773 a33.430180530776006,33.430180530776006 0 0,0 0.5693175975083583,0.08390261473649915 l -1.918086498348154 12.281300102698305" fill="#ff8d0d" stroke="none" /><path d="M 103.2404852339499 79.25152402106235 l 0.6714930952094121 -4.299497559812169 a25.351618347666154,25.351618347666154 0 0,0 0.4305800877012545,0.07104940382326337 l -0.7454023890495418 4.28730189304928" fill="#ff1a02" stroke="none" /><path d="M 103.95276090670814 79.375362276772 l 3.5849902096042143 -18.70569104974854 a40.046129067387966,40.046129067387966 0 0,0 0.6758901577284399,0.1355772071958476 l -3.9064467767997795 18.641209886475487" fill="#ffe415" stroke="none" /><path d="M 104.307194497241 79.44645832069477 l 3.0706867088716794 -14.653038606756747 a35.971327839411735,35.971327839411735 0 0,0 0.604930292778429,0.13221433165575328 l -3.322459725803636 14.598010777005122" fill="#ffaf10" stroke="none" /><path d="M 105.36241919743992 79.69619591428918 l 3.075175440287844 -11.643580512803316 a33.042826543078775,33.042826543078775 0 0,0 0.5486715886469696,0.14997267136655237 l -3.275144918158525 11.588921300610469" fill="#ff870c" stroke="none" /><path d="M 108.09893153111575 80.62456947434976 l 4.156029534440654 -9.942652459492011 a31.776312886204888,31.776312886204888 0 0,0 0.5028468995058472,0.21529279985958497 l -4.3265601917368155 9.869640131669636" fill="#ff760a" stroke="none" /><path d="M 109.08828744355905 81.06846463323043 l 10.34809430053201 -21.55580074307927 a44.91099331537776,44.91099331537776 0 0,0 0.694043226568691,0.34056399708061724 l -10.71760879411113 21.374481585863823" fill="#deff1b" stroke="none" /><path d="M 110.05341064243156 81.56283822128135 l 5.725098808477567 -10.499379433039895 a32.95883459396326,32.95883459396326 0 0,0 0.49575723335677463,0.27588836361807717 l -5.9049801309063765 10.399275671861638" fill="#ff860c" stroke="none" /><line stroke="#e1ed5e" stroke-width="0.3" x1="143.23703022742887" x2="145.7803849466894" y1="26.81831364943548" y2="22.513508569990506" /><path d="M 143.74570117128098 25.957352633546492 a86.0,86.0 0 0,1 28.547481713284135,27.462654790039103" fill="none" id="id50" stroke="none" /><text fill="#e1ed5e" style="font-size:6.75px; font-family:Arial;" text-anchor="middle"><textPath startOffset="19.985693538727396" xlink:href="#id50">February</textPath></text><line stroke="#e1ed5e" stroke-width="0.3" x1="172.23445277983987" x2="176.4835382374775" y1="55.19839476539836" y2="52.563006222186495" /><path d="M 173.08426987136738 54.67131705675599 a86.0,86.0 0 0,1 12.851231095245387,41.99856678651699" fill="none" id="id51" stroke="none" /><text fill="#e1ed5e" style="font-size:6.75px; font-family:Arial;" text-anchor="middle"><textPath startOffset="22.20632615414155" xlink:href="#id51">March</textPath></text><path d="M 119.34039704204932 91.81776055985345 l 20.86505113036063 -8.827266777839691 a43.65548493057952,43.65548493057952 0 0,0 0.28683381756601867,0.6945908406904397 l -21.013906634812844 8.466801366695947" fill="#edff1a" stroke="none" /><path d="M 120.94382443527127 98.46500227214037 l 26.68832768824361 -1.9560191830502556 a47.75991117024739,47.75991117024739 0 0,0 0.05303490010341825,0.8204264307974742 l -26.718043179351444 1.496333687999746" fill="#bcff1f" stroke="none" /><path d="M 120.96714384426684 98.82574320788733 l 19.74510860927044 -1.1058171808068153 a40.77604979841154,40.77604979841154 0 0,0 0.03321576583533738,0.7011323189520894 l -19.761217983339275 0.7657737552317262" fill="#ffed16" stroke="none" /><line stroke="#e1ed5e" stroke-width="0.3" x1="184.98032266829074" x2="189.97916517819016" y1="98.17113171792111" y2="98.06355123074" /><path d="M 185.9800911702706 98.14961562048488 a86.0,86.0 0 0,1 -9.607161424134198,41.387399972396054" fill="none" id="id52" stroke="none" /><text fill="#e1ed5e" style="font-size:6.75px; font-family:Arial;" text-anchor="middle"><textPath startOffset="21.466115282336823" xlink:href="#id52">April</textPath></text><path d="M 120.99513854157772 99.54816195383933 l 3.2926902392452484 -0.07086224848512351 a24.293452667016986,24.293452667016986 0 0,0 0.005398922413480116,0.4181524907452853 l -3.293422168776444 0.014173499679375487" fill="#ff0a01" stroke="none" /><path d="M 120.9904718944345 100.63252640178507 l 11.327771263267968 0.3413508011365383 a32.332913224866594,32.332913224866594 0 0,0 -0.02155199161215514,0.5561611393877886 l -11.32021713880461 -0.536289187538333" fill="#ff7e0b" stroke="none" /><path d="M 120.92983693683757 101.71520430193887 l 51.4648036595022 4.217550901213816 a72.63732904900718,72.63732904900718 0 0,0 -0.11284867550375155,1.2452757306554354 l -51.38458038772138 -5.102808020417822" fill="#3fffba" stroke="none" /><path d="M 120.64145759157962 103.86396538481128 l 5.160302747018765 0.9659798055037054 a26.249937278247273,26.249937278247273 0 0,0 -0.08696237599201313,0.4434192816564596 l -5.1429104380510875 -1.05466281422811" fill="#ff2703" stroke="none" /><path d="M 120.5718875245553 104.21870165774334 l 56.9027646097668 11.669118213040171 a79.08694293991064,79.08694293991064 0 0,0 -0.2849614077092123,1.3312448282800184 l -56.69346916333314 -12.64687686073636" fill="#47fffd" stroke="none" /><path d="M 120.23288151984713 105.62410040840565 l 13.664233055552215 3.7982241250657984 a35.18230487264597,35.18230487264597 0 0,0 -0.1672120513146729,0.5820870867866459 l -13.596828367351442 -4.032868687357026" fill="#ffa40f" stroke="none" /><path d="M 120.13307415673323 105.97154293290107 l 11.984336272178593 3.554597674181029 a33.5003792146458,33.5003792146458 0 0,0 -0.16873539199055018,0.5514370239895596 l -11.92137410768191 -3.760361670722646" fill="#ff8e0d" stroke="none" /><path d="M 119.79798401119884 107.00284435728193 l 2.4737885958259227 0.875016188496201 a23.623982345018504,23.623982345018504 0 0,0 -0.13890422276431602,0.38220476405753817 l -2.4583601120563796 -0.9174687495598703" fill="#ff0000" stroke="none" /><path d="M 118.97047184881838 109.00673069616215 l 13.604438337307897 6.459065085632461 a36.05988925105524,36.05988925105524 0 0,0 -0.271044575481578,0.5584321062434389 l -13.491240505211605 -6.692286147841175" fill="#ffb010" stroke="none" /><line stroke="#e1ed5e" stroke-width="0.3" x1="174.80103733775053" x2="179.2010983576182" y1="140.37084112569926" y2="142.7455964860345" /><path d="M 175.68104954172406 140.8457921977663 a86.0,86.0 0 0,1 -30.038265399797805,32.042727171017184" fill="none" id="id53" stroke="none" /><text fill="#e1ed5e" style="font-size:6.75px; font-family:Arial;" text-anchor="middle"><textPath startOffset="22.206326154141568" xlink:href="#id53">May</textPath></text><path d="M 117.75023020441432 111.22182372390056 l 53.25069061324299 33.665471171701654 a84.0,84.0 0 0,0 -0.7831805464917987,1.2155136003141882 l -52.663305203374144 -34.5771063719373" fill="#4dd2ff" stroke="none" /><path d="M 115.80600337817218 113.82643327865902 l 8.427481107554918 7.372009384844397 a32.196828130699735,32.196828130699735 0 0,0 -0.368486795743196,0.413998821319182 l -8.299335462163384 -7.5159823759044455" fill="#ff7c0b" stroke="none" /><path d="M 115.32070863581623 114.36230785411682 l 8.382040247966765 7.857694141213766 a32.48921041392314,32.48921041392314 0 0,0 -0.3859926261497212,0.4047117253397996 l -8.24554107043808 -8.000812983136074" fill="#ff800b" stroke="none" /><path d="M 115.07121518719521 114.62390073753431 l 7.132401113237241 6.920711077689274 a30.938178276774817,30.938178276774817 0 0,0 -0.37414478176619714,0.3790066886010105 l -7.012215706415509 -7.04245826027095" fill="#ff6a09" stroke="none" /><path d="M 114.55890576462653 115.13401014063108 l 15.631653320497602 16.249133258491746 a43.54734834042456,43.54734834042456 0 0,0 -0.5446822817300222,0.5150310947295924 l -15.34963520437677 -16.51579898996726" fill="#eeff19" stroke="none" /><path d="M 112.04921762599082 117.19931262002967 l 6.7895704536568635 9.691579023045362 a32.83321473248513,32.83321473248513 0 0,0 -0.46567366494139134,0.3202945929858698 l -6.621739904092589 -9.807014405396327" fill="#ff840c" stroke="none" /><path d="M 111.45004920935366 117.60387380957326 l 6.423734541971822 9.876168232595056 a32.781471233434374,32.781471233434374 0 0,0 -0.4756719447858338,0.3035963408014459 l -6.252780795139058 -9.985279002220311" fill="#ff840c" stroke="none" /><line stroke="#e1ed5e" stroke-width="0.3" x1="143.8653032363475" x2="146.44561519142675" y1="172.8068346515853" y2="177.08958963109032" /><path d="M 144.38136562736335 173.6633856474863 a86.0,86.0 0 0,1 -40.68145358897372,12.25698825130547" fill="none" id="id54" stroke="none" /><text fill="#e1ed5e" style="font-size:6.75px; font-family:Arial;" text-anchor="middle"><textPath startOffset="21.466115282336833" xlink:href="#id54">June</textPath></text><path d="M 110.8373102113329 117.98757091392108 l 24.22674171419312 40.211106455325954 a67.94537353614072,67.94537353614072 0 0,0 -1.0069896790202335,0.5949472519933355 l -23.530984164144506 -40.62217227961304" fill="#39ff86" stroke="none" /><path d="M 110.5260780823613 118.17145234162733 l 18.29836025153436 31.58895256514131 a57.50605308791516,57.50605308791516 0 0,0 -0.8608142236991009,0.48879278208756605 l -17.75189726091406 -31.8992485130235" fill="#50ff2b" stroke="none" /><path d="M 105.88484417918355 120.15858648285463 l 2.75412104659678 9.434266330867215 a30.828049854423924,30.828049854423924 0 0,0 -0.5106722710700681,0.14432108477184327 l -2.591317607422106 -9.480276208977578" fill="#ff6909" stroke="none" /><path d="M 105.53697534728816 120.25689768951611 l 2.2596847216480818 8.26700488009337 a29.570270983390046,29.570270983390046 0 0,0 -0.4921472532070801,0.12998056262876753 l -2.117047025629504 -8.304676792025722" fill="#ff5708" stroke="none" /><path d="M 103.06178313531738 120.77559828337769 l 0.9503877168442602 6.448815133527133 a27.518470176255853,27.518470176255853 0 0,0 -0.46921797068548204,0.06502933521312163 l -0.8392411549719476 -6.4642190342328565" fill="#ff3905" stroke="none" /><path d="M 102.34483914955558 120.86867818915974 l 1.3203775712236523 11.751140638910385 a32.82508787477039,32.82508787477039 0 0,0 -0.5620396006344812,0.05825770264704379 l -1.1179053739835683 -11.772127710013189" fill="#ff840c" stroke="none" /><line stroke="#e1ed5e" stroke-width="0.3" x1="102.19456741930631" x2="102.32365962044197" y1="184.97166512339345" y2="189.96999836594603" /><path d="M 102.22038585953345 185.97133177190398 a86.0,86.0 0 0,1 -42.740103519485714,-10.115201625700543" fill="none" id="id55" stroke="none" /><text fill="#e1ed5e" style="font-size:6.75px; font-family:Arial;" text-anchor="middle"><textPath startOffset="22.20632615414155" xlink:href="#id55">July</textPath></text><path d="M 100.18074693466247 120.99922214144158 l 0.10236653699946724 11.892968776019531 a32.8934093184113,32.8934093184113 0 0,0 -0.5662269433238372,0.0 l 0.10236653699945904 -11.892968776019531" fill="#ff850c" stroke="none" /><path d="M 99.45781275523022 120.99299961872073 l -0.3057374635826486 11.83787799940683 a32.841825489572045,32.841825489572045 0 0,0 -0.5650039601540635,-0.0194598787915141 l 0.5094617754113551 -11.830861322189222" fill="#ff850c" stroke="none" /><path d="M 97.2962882734958 120.8252237178851 l -1.4891452665714775 11.470077605084702 a32.56634055748048,32.56634055748048 0 0,0 -0.5552893068241179,-0.07695803811813201 l 1.6863631645824266 -11.442745001473964" fill="#ff810b" stroke="none" /><path d="M 96.93821686468263 120.77559828337769 l -1.6704626322312526 11.334852620459332 a32.45728280759512,32.45728280759512 0 0,0 -0.5520274944566113,-0.08621534161530185 l 1.865325990296381 -11.304418971496924" fill="#ff7f0b" stroke="none" /><path d="M 95.86986931433489 120.58985236759428 l -2.6123399853120817 13.02324277975659 a34.282664367488266,34.282664367488266 0 0,0 -0.5775952084841838,-0.12104069179088428 l 2.836126655225652 -12.976346107239165" fill="#ff980e" stroke="none" /><line stroke="#e1ed5e" stroke-width="0.3" x1="58.666819895761336" x2="56.23545636021788" y1="174.27360380694188" y2="178.64263932499728" /><path d="M 58.180547188652646 175.14741091055294 a86.0,86.0 0 0,1 -31.652253787137756,-30.449443065178592" fill="none" id="id56" stroke="none" /><text fill="#e1ed5e" style="font-size:6.75px; font-family:Arial;" text-anchor="middle"><textPath startOffset="22.20632615414155" xlink:href="#id56">August</textPath></text><path d="M 89.7882731507175 118.34994917583269 l -5.735820312356537 10.306974791520847 a32.79548066034988,32.79548066034988 0 0,0 -0.4909190373806041,-0.2787566416245614 l 5.912388116658349 -10.206714984101653" fill="#ff840c" stroke="none" /><path d="M 89.4739219176387 118.17145234162733 l -6.3006654212324715 10.877008561652374 a33.57011137582216,33.57011137582216 0 0,0 -0.49752843968149807,-0.29394857181162 l 6.486961731942351 -10.766941417547006" fill="#ff8f0d" stroke="none" /><path d="M 87.07902340077011 116.55440617244103 l -25.534964893344107 32.71549771776814 a62.501062914407484,62.501062914407484 0 0,0 -0.8424027407201924,-0.6692556851467568 l 26.094325126781655 -32.27110811861625" fill="#32ff45" stroke="none" /><path d="M 85.97065885151581 115.62618273729859 l -8.119915625800555 9.044137143526148 a33.15440029129489,33.15440029129489 0 0,0 -0.4213773511858501,-0.38491821954770605 l 8.27439252645326 -8.903026157391865" fill="#ff890c" stroke="none" /><path d="M 85.44109423537348 115.13401014063109 l -8.391021446055037 8.72248269944809 a33.1033443870001,33.1033443870001 0 0,0 -0.407250028519141,-0.39857986767484316 l 8.539921426949972 -8.576752728850677" fill="#ff880c" stroke="none" /><path d="M 85.18274418774928 114.88116024355367 l -37.065588155408385 37.22544605095891 a73.53181568344276,73.53181568344276 0 0,0 -0.8892425690237552,-0.9007980275917762 l 37.70087134948767 -36.58190752938646" fill="#40ffc3" stroke="none" /><path d="M 84.9287848128048 114.62390073753433 l -27.54546347698951 26.727912690087358 a59.38142617114554,59.38142617114554 0 0,0 -0.705489371403568,-0.7397027854073024 l 28.001459399772035 -26.249802788097558" fill="#3dff2e" stroke="none" /><path d="M 84.67929136418377 114.36230785411682 l -6.982150501681813 6.545375763788088 a30.570390248956418,30.570390248956418 0 0,0 -0.35658699525972454,-0.3870047565675376 l 7.093783904937267 -6.424219752419206" fill="#ff6509" stroke="none" /><path d="M 83.95833913139862 113.55231037782056 l -9.032609002060822 7.630925608022595 a32.82451060379605,32.82451060379605 0 0,0 -0.3609195619025495,-0.4347508626283738 l 9.162624563856909 -7.474313488280461" fill="#ff840c" stroke="none" /><path d="M 83.72743513129214 113.27417163493432 l -6.62290891297399 5.402567471241796 a29.546967751832828,29.546967751832828 0 0,0 -0.31809715056105037,-0.3968751049977517 l 6.714923975589902 -5.2877645326657845" fill="#ff5708" stroke="none" /><path d="M 83.06392112726016 112.41649034213515 l -5.228871823153505 3.8334868997893934 a27.483573270491014,27.483573270491014 0 0,0 -0.27643266916444365,-0.38394079998492475 l 5.294084284693556 -3.7429124943533303" fill="#ff3905" stroke="none" /><path d="M 82.6465618267979 111.8261652097733 l -9.90358053272449 6.749174335329017 a32.984667770815484,32.984667770815484 0 0,0 -0.31570551385679424,-0.47193690772928704 l 10.018289151992015 -6.57770051339391" fill="#ff870c" stroke="none" /><line stroke="#e1ed5e" stroke-width="0.3" x1="26.63291911575756" x2="22.317208475507996" y1="142.92168965132927" y2="145.44649492493687" /><path d="M 25.769776987707644 143.4266507060508 a86.0,86.0 0 0,1 -11.730757126820373,-40.83630448921669" fill="none" id="id57" stroke="none" /><text fill="#e1ed5e" style="font-size:6.75px; font-family:Arial;" text-anchor="middle"><textPath startOffset="21.46611528233685" xlink:href="#id57">September</textPath></text><path d="M 81.18737489456691 109.33194174019688 l -10.722674169886103 5.318947785952146 a32.969417149687274,32.969417149687274 0 0,0 -0.24781500611376053,-0.510572312974564 l 10.812642432614581 -5.133586517012296" fill="#ff860c" stroke="none" /><path d="M 80.87730276802145 108.67885076344099 l -12.303943992080724 5.584154390649029 a34.511839919820844,34.511839919820844 0 0,0 -0.2408579915512693,-0.5430711862953611 l 12.398243068363273 -5.371534867860972" fill="#ff9b0e" stroke="none" /><path d="M 79.58551787078972 104.9243191809786 l -11.465853008460066 2.76575812888501 a32.794710816256,32.794710816256 0 0,0 -0.12764862393294604,-0.54990693102826 l 11.511762198323567 -2.5679825405081758" fill="#ff840c" stroke="none" /><path d="M 79.4281124754447 104.21870165774334 l -27.49446075789331 5.6383220567210035 a49.06663585082191,49.06663585082191 0 0,0 -0.16255091165715466,-0.8288435965254491 l 27.587441602526134 -5.1642147331276" fill="#acff20" stroke="none" /><path d="M 79.18660465613746 102.79330883721812 l -12.077687458737394 1.620913385551865 a33.18597121916853,33.18597121916853 0 0,0 -0.07111041043048187,-0.5668199372878473 l 12.103799378414724 -1.4127756939766092" fill="#ff890c" stroke="none" /><path d="M 79.10278846688536 102.07522291339032 l -9.066855397209197 0.9003950619377568 a30.11145312567998,30.11145312567998 0 0,0 -0.04678087213853481,-0.5162230258615353 l 9.081010865624808 -0.7441906475276553" fill="#ff5f08" stroke="none" /><path d="M 79.07016306316243 101.71520430193888 l -11.711783215657903 0.9597829651274511 a32.751044610191684,32.751044610191684 0 0,0 -0.041209300282816004,-0.56226816141748 l 11.726569074605054 -0.7580416672132104" fill="#ff830c" stroke="none" /><path d="M 79.0235259727143 100.99374915477108 l -45.51352496021762 2.1561787219832946 a66.56457023813005,66.56457023813005 0 0,0 -0.044369619571916825,-1.144982729178453 l 45.54389671264074 -1.3724187457908448" fill="#37ff76" stroke="none" /><line stroke="#e1ed5e" stroke-width="0.3" x1="15.007084014347285" x2="10.007500721073583" y1="101.09737516637583" y2="101.16192664675087" /><path d="M 14.007167355692545 101.11028546245083 a86.0,86.0 0 0,1 10.666146001902534,-42.60595125391555" fill="none" id="id58" stroke="none" /><text fill="#e1ed5e" style="font-size:6.75px; font-family:Arial;" text-anchor="middle"><textPath startOffset="22.20632615414155" xlink:href="#id58">October</textPath></text><path d="M 79.00019446554 99.90962569577889 l -11.877640579859985 -0.05111635445537437 a32.87775057096374,32.87775057096374 0 0,0 0.007306677519057678,-0.5659102260921433 l 11.875000895223213 0.25556283860798956" fill="#ff850c" stroke="none" /><path d="M 79.16333360222342 97.38593545837743 l -10.374089022479055 -1.30148161647355 a31.4554090041633,31.4554090041633 0 0,0 0.07202390077106711,-0.5366617185259938 l 10.350149122650153 1.4798616770642032" fill="#ff710a" stroke="none" /><path d="M 80.65960295795068 91.81776055985345 l -10.842518670732245 -4.587087002676663 a32.77291715316567,32.77291715316567 0 0,0 0.22427488859362243,-0.5176573644808365 l 10.761953072295942 4.773043511744098" fill="#ff840c" stroke="none" /><path d="M 81.43458229118936 90.18545643968196 l -9.778474133625272 -5.169356372324612 a32.060777625740045,32.060777625740045 0 0,0 0.26212265957605707,-0.4856734786617468 l 9.688043374830743 5.336910834318831" fill="#ff7a0b" stroke="none" /><line stroke="#e1ed5e" stroke-width="0.3" x1="26.266209847984243" x2="21.928928074336255" y1="57.711370442889674" y2="55.22380399835377" /><path d="M 25.398753493254645 57.213857153982495 a86.0,86.0 0 0,1 29.58750427330803,-30.492523968695096" fill="none" id="id59" stroke="none" /><text fill="#e1ed5e" style="font-size:6.75px; font-family:Arial;" text-anchor="middle"><textPath startOffset="21.46611528233685" xlink:href="#id59">November</textPath></text><path d="M 82.15384107792192 88.93136811851018 l -12.58670012309628 -7.806584647909916 a35.811069639081936,35.811069639081936 0 0,0 0.32941478110403255,-0.5210550745757869 l 12.450457745746284 8.022087370199918" fill="#ffad10" stroke="none" /><path d="M 83.6137871275137 86.86637796730984 l -41.378089771583305 -33.16472181361577 a74.02871944635028,74.02871944635028 0 0,0 0.8055082868164154,-0.9874579152649867 l 40.801082992690496 33.87206389848884" fill="#40ffc9" stroke="none" /><path d="M 84.80347519578584 85.50635884689758 l -8.494449103416487 -8.101556025761223 a32.73843582463529,32.73843582463529 0 0,0 0.3924492498820367,-0.4044534492664241 l 8.353735589831333 8.24657367057777" fill="#ff830c" stroke="none" /><path d="M 85.31137513191541 84.99185889309783 l -11.99626503388956 -12.2572153623179 a38.150793077918095,38.150793077918095 0 0,0 0.47328194601298446,-0.4552968570836918 l 11.78349984426415 12.461895306163907" fill="#ffcc13" stroke="none" /><path d="M 86.10567301691215 84.25364557470407 l -3.176418868545741 -3.59981576424676 a25.800865584972453,25.800865584972453 0 0,0 0.33554173293033424,-0.2909784843140423 l 3.113983336968633 3.6539592419804827" fill="#ff2003" stroke="none" /><line stroke="#e1ed5e" stroke-width="0.3" x1="56.762969772571076" x2="54.21961505331055" y1="26.818313649435495" y2="22.513508569990535" /><path d="M 56.25429882871897 25.957352633546506 a86.0,86.0 0 0,1 42.265352541879196,-11.944610805530505" fill="none" id="id60" stroke="none" /><text fill="#e1ed5e" style="font-size:6.75px; font-family:Arial;" text-anchor="middle"><textPath startOffset="22.20632615414155" xlink:href="#id60">December</textPath></text><path d="M 98.91598698831166 79.02799685794201 l -0.4733832149259394 -9.158371868029414 a30.17059795985443,30.17059795985443 0 0,0 0.5188756212141611,-0.022343875733347517 l 0.3156667613224542 9.165163470286956" fill="#ff5f08" stroke="none" /><path d="M 99.63851952072746 79.00311137660856 l -0.3736699564672779 -21.704924353426794 a42.70814064871392,42.70814064871392 0 0,0 0.7351504357398083,-0.006327671895688129 l 5.3169609921776104e-15 21.708140648713922" fill="#f9ff18" stroke="none" /></svg>