<?xml version="1.0" encoding="utf-8" ?>
<svg baseProfile="full" height="200mm" version="1.1" viewBox="0,0,200,200" width="200mm" xmlns="http://www.w3.org/2000/svg" xmlns:ev="http://www.w3.org/2001/xml-events" xmlns:xlink="http://www.w3.org/1999/xlink"><defs /><rect fill="#1a1a1a" height="200" width="200" x="0" y="0" /><text alignment-baseline="middle" fill="#e1ed5e" style="dominant-baseline: central; font-size:9.0px; font-family:Arial;" text-anchor="middle" x="100.0" y="100.0">2022</text><line stroke="#e1ed5e" stroke-width="0.3" x1="100.0" x2="100.0" y1="15.0" y2="10.0" /><path d="M 100.0 14.0 a86.0,86.0 0 0,1 42.46469731375804,11.215312516191453" fill="none" id="id13" stroke="none" /><text fill="#e1ed5e" style="font-size:6.75px; font-family:Arial;" text-anchor="middle"><textPath startOffset="22.20632615414155" xlink:href="#id13">January</textPath></text><path d="M 103.95276090670814 79.375362276772 l 3.0375620035924684 -15.849330977651075 a37.13778409090909,37.13778409090909 0 0,0 0.6268037218940753,0.12573092994868698 l -3.309932134953669 15.794696091625179" fill="red" stroke="none" /><path d="M 105.01212808612495 79.60689891045804 l 1.5235730261800278 -6.199039251650539 a27.383522727272727,27.383522727272727 0 0,0 0.45677164799310654,0.11644126351843652 l -1.6300535628581594 6.171894991963234" fill="red" stroke="none" /><path d="M 105.36241919743992 79.69619591428918 l 2.3155901079854235 -8.767551764284223 a30.06818181818182,30.06818181818182 0 0,0 0.4992780222478686,0.13647154381689777 l -2.466166019457003 8.726393679641031" fill="red" stroke="none" /><path d="M 105.71112130821622 79.79150937346287 l 2.43371646656941 -8.61157271017207 a29.948863636363637,29.948863636363637 0 0,0 0.4948832690421579,0.14446999682616718 l -2.581589953334995 8.568404384427199" fill="red" stroke="none" /><path d="M 106.0581310904928 79.89281104454417 l 0.8605299844449987 -2.8561347948090674 a23.982954545454547,23.982954545454547 0 0,0 0.3942507959383275,0.12249564141257593 l -0.9095661530940445 2.8408990185139706" fill="red" stroke="none" /><path d="M 106.40334571778207 80.00007090966166 l 3.7928908584021634 -11.846548907203251 a33.43892045454545,33.43892045454545 0 0,0 0.5466740856054687,0.18022985100198324 l -3.9962477662500495 11.779505331942032" fill="red" stroke="none" /><path d="M 107.76421540070413 80.48803036053334 l 5.547443674082641 -13.941080580471205 a36.00426136363636,36.00426136363636 0 0,0 0.5738670019983185,0.23409475905741445 l -5.786594545669347 13.84352493523021" fill="red" stroke="none" /><path d="M 108.76106565485865 80.91482961587045 l 5.027656995117748 -10.952285277256165 a33.05113636363636,33.05113636363636 0 0,0 0.5150024742614281,0.24180056709499537 l -5.215437680678774 10.864119727521167" fill="red" stroke="none" /><line stroke="#e1ed5e" stroke-width="0.3" x1="143.23703022742887" x2="145.7803849466894" y1="26.81831364943548" y2="22.513508569990506" /><path d="M 143.74570117128098 25.957352633546492 a86.0,86.0 0 0,1 28.547481713284135,27.462654790039103" fill="none" id="id14" stroke="none" /><text fill="#e1ed5e" style="font-size:6.75px; font-family:Arial;" text-anchor="middle"><textPath startOffset="19.985693538727396" xlink:href="#id14">February</textPath></text><path d="M 113.34407831869373 83.78471172551755 l 6.292946025293066 -7.646982538534338 a30.903409090909093,30.903409090909093 0 0,0 0.4078403291340262,0.3415545467897772 l -6.4236438913862095 7.537526834350742" fill="red" stroke="none" /><path d="M 113.6212207817346 84.01681056812373 l 4.604901343825054 -5.40340779088999 a28.09943181818182,28.09943181818182 0 0,0 0.36543471828799456,0.3169013866458376 l -4.697229860759812 5.323341410824481" fill="red" stroke="none" /><path d="M 113.89432698308785 84.25364557470407 l 6.591910812999061 -7.47057155972847 a30.96306818181818,30.96306818181818 0 0,0 0.39660595862977605,0.35607674559299607 l -6.719527759224827 7.3559958053661765" fill="red" stroke="none" /><path d="M 114.42810811169701 84.74124197986012 l 4.098894349913922 -4.334874437539737 a26.96590909090909,26.96590909090909 0 0,0 0.3345271985431447,0.3218148999529532 l -4.172904792069485 4.263676450824482" fill="red" stroke="none" /><path d="M 114.68862486808459 84.99185889309783 l 4.465008127514349 -4.5621338023821965 a27.383522727272727,27.383522727272727 0 0,0 0.33403229466817885,0.33259785383976 l -4.54287622234985 4.484600097892318" fill="red" stroke="none" /><path d="M 114.94478906791727 85.2469230424477 l 4.330592286726027 -4.27503934565436 a27.085227272727273,27.085227272727273 0 0,0 0.3246818871556491,0.334613225057523 l -4.403538437584785 4.199861925046722" fill="red" stroke="none" /><path d="M 115.19652480421416 85.50635884689758 l 4.576226219450855 -4.364562392695613 a27.323863636363637,27.323863636363637 0 0,0 0.3216834276634318,0.3431494519029855 l -4.650676969084749 4.285143523914573" fill="red" stroke="none" /><path d="M 115.4437574822437 85.77008943001954 l 6.60308380987976 -6.08409528631267 a29.97869318181818,29.97869318181818 0 0,0 0.3464057403137559,0.3825098704461693 l -6.706833190809552 5.969532628596951" fill="red" stroke="none" /><path d="M 115.68641384162765 86.03803664274999 l 4.500931244330662 -4.0061315314836685 a27.02556818181818,27.02556818181818 0 0,0 0.306300243747826,0.3501541279547291 l -4.569223351656336 3.928061847325991" fill="red" stroke="none" /><path d="M 115.9244219780498 86.31012108654704 l 4.523983516491423 -3.8891701458673187 a26.96590909090909,26.96590909090909 0 0,0 0.2995647804085881,0.35459021240807903 l -4.590258910387128 3.8107209838301332" fill="red" stroke="none" /><path d="M 116.60985879189232 87.15038557335679 l 4.74230343348062 -3.668710937152394 a26.995738636363637,26.995738636363637 0 0,0 0.28117226434258136,0.36998974123247813 l -4.804751638047315 3.586536420038882" fill="red" stroke="none" /><path d="M 116.82858285166822 87.43820079747576 l 5.641399933229683 -4.2110576872098315 a28.039772727272727,28.039772727272727 0 0,0 0.28538798897328294,0.3892688962340851 l -5.713050534716592 4.113326347304253" fill="red" stroke="none" /><path d="M 117.04232023915458 87.72973835380427 l 7.262352374639737 -5.2288046787765925 a29.948863636363637,29.948863636363637 0 0,0 0.29761666152968974,0.4209576614586359 l -7.35128165597331 5.103020516986164" fill="red" stroke="none" /><path d="M 117.2510076193507 88.02491185347247 l 15.09463166693186 -10.478202128211588 a39.375,39.375 0 0,0 0.3817041268711249,0.5601037063679879 l -15.272760259471719 10.216820398573194" fill="red" stroke="none" /><path d="M 117.45458315368197 88.32363383020206 l 10.537212841356302 -7.048942645119494 a33.67755681818182,33.67755681818182 0 0,0 0.31817812312628235,0.4846071104676223 l -10.656987599840509 6.866517470674198" fill="red" stroke="none" /><line stroke="#e1ed5e" stroke-width="0.3" x1="172.23445277983987" x2="176.4835382374775" y1="55.19839476539836" y2="52.563006222186495" /><path d="M 173.08426987136738 54.67131705675599 a86.0,86.0 0 0,1 12.851231095245387,41.99856678651699" fill="none" id="id15" stroke="none" /><text fill="#e1ed5e" style="font-size:6.75px; font-family:Arial;" text-anchor="middle"><textPath startOffset="22.20632615414155" xlink:href="#id15">March</textPath></text><path d="M 117.84615892207809 88.93136811851018 l 12.801577067683851 -7.93985667635278 a36.06392045454545,36.06392045454545 0 0,0 0.32265909072720916,0.5303667076599979 l -12.936351956697285 7.718322195485701" fill="red" stroke="none" /><path d="M 118.03404312379186 89.2402003453031 l 14.165945806046734 -8.451944899215038 a37.49573863636364,37.49573863636364 0 0,0 0.3259278255551116,0.5571163049306159 l -14.309333306072174 8.206849181930526" fill="red" stroke="none" /><path d="M 118.21658344932153 89.55222093294921 l 10.376207334059567 -5.951078701544557 a32.96164772727273,32.96164772727273 0 0,0 0.278043048823667,0.49460755898018854 l -10.477108024175665 5.771587632629575" fill="red" stroke="none" /><path d="M 118.73160827565052 90.50648371742162 l 13.46334344812381 -6.823464828103218 a36.09375,36.09375 0 0,0 0.27609997773632977,0.5566007072674299 l -13.578803438813548 6.590704532336839" fill="red" stroke="none" /><path d="M 118.89224826269711 90.83032412892265 l 19.187439641801753 -9.312952056562924 a42.328125,42.328125 0 0,0 0.3125061405377102,0.6582176309745358 l -19.344903976181218 8.981292009947849" fill="red" stroke="none" /><path d="M 119.04729006885535 91.15688171328212 l 21.83403847381573 -10.136926786053028 a45.07244318181819,45.07244318181819 0 0,0 0.32065326572213454,0.706516966817675 l -22.005294056501214 9.75958781039329" fill="red" stroke="none" /><path d="M 119.196687751892 91.48605970444005 l 19.114883684767463 -8.477659299982273 a41.91051136363636,41.91051136363636 0 0,0 0.28680618277135445,0.661988212863385 l -19.2579805773815 8.147371942532285" fill="red" stroke="none" /><path d="M 119.34039704204932 91.81776055985345 l 24.889772329682803 -10.52998427950678 a48.02556818181819,48.02556818181819 0 0,0 0.3155469944790088,0.7641220760940086 l -25.067341011048008 10.099987632959468" fill="red" stroke="none" /><path d="M 119.85752413597 93.16781622104841 l 17.770227564859514 -6.114028097641333 a39.79261363636364,39.79261363636364 0 0,0 0.21727279844951528,0.6496180123602744 l -17.8728376570808 5.807236982358744" fill="red" stroke="none" /><path d="M 119.97218684219823 93.5106431181261 l 17.050119733183422 -5.53991972444064 a38.92755681818181,38.92755681818181 0 0,0 0.20157896829899277,0.6390604159282997 l -17.14295418525062 5.245609142085922" fill="red" stroke="none" /><path d="M 120.08093135843002 93.85539295169968 l 17.171478235475664 -5.254337277097712 a38.95738636363636,38.95738636363636 0 0,0 0.1906947420058477,0.6429278706094204 l -17.259378874593214 4.957980019741762" fill="red" stroke="none" /><path d="M 120.18372546131832 94.20196356495316 l 15.739865452079197 -4.521480117671475 a37.37642045454545,37.37642045454545 0 0,0 0.17231104613685658,0.6198945125228029 l -15.815363268782416 4.24987430172972" fill="red" stroke="none" /><path d="M 120.37134235888165 94.90015583598534 l 4.977089326317678 -1.2459846537081247 a26.13068181818182,26.13068181818182 0 0,0 0.10547736785727582,0.43727178560562535 l -4.997799494435773 1.1601276364430932" fill="red" stroke="none" /><path d="M 120.53481517161879 95.60439243477599 l 20.447308856967005 -4.3768762829858465 a41.91051136363636,41.91051136363636 0 0,0 0.14493194494237122,0.7067396350716 l -20.519620097824372 4.024260991750834" fill="red" stroke="none" /><path d="M 120.83666639777658 97.38593545837742 l 21.842982672669198 -2.7403119768713946 a43.01420454545455,43.01420454545455 0 0,0 0.08584333944435339,0.7354533087152875 l -21.88691636511714 2.3639149298312545" fill="red" stroke="none" /><path d="M 120.87857604477298 97.74499172005257 l 44.33731702689718 -4.788689458126998 a65.59517045454545,65.59517045454545 0 0,0 0.111583239523834,1.1236279942911187 l -44.41317739210324 4.024785933131445" fill="red" stroke="none" /><path d="M 120.94382443527127 98.46500227214037 l 14.874875309141522 -1.0901972499003076 a35.91477272727273,35.91477272727273 0 0,0 0.03988148924813029,0.6169489867036159 l -14.891437389394069 0.8339891989436565" fill="red" stroke="none" /><path d="M 120.96714384426684 98.82574320788733 l 16.023186630988018 -0.8973723780633744 a37.04829545454545,37.04829545454545 0 0,0 0.03017917411079173,0.6370346670088555 l -16.036259413332306 0.6214266044315192" fill="red" stroke="none" /><path d="M 120.98425023603335 99.18683210126433 l 14.933393988995327 -0.5786890870263776 a35.94460227272727,35.94460227272727 0 0,0 0.018636943438846164,0.6184694209557899 l -14.94114262688982 0.32154951864558856" fill="red" stroke="none" /><line stroke="#e1ed5e" stroke-width="0.3" x1="184.98032266829074" x2="189.97916517819016" y1="98.17113171792111" y2="98.06355123074" /><path d="M 185.9800911702706 98.14961562048488 a86.0,86.0 0 0,1 -9.607161424134198,41.387399972396054" fill="none" id="id16" stroke="none" /><text fill="#e1ed5e" style="font-size:6.75px; font-family:Arial;" text-anchor="middle"><textPath startOffset="21.466115282336823" xlink:href="#id16">April</textPath></text><path d="M 120.99513854157772 99.54816195383933 l 29.822639973831972 -0.6418154064782207 a50.82954545454545,50.82954545454545 0 0,0 0.011296244135529404,0.8749065571945618 l -29.829269225085216 0.1283725912231961" fill="red" stroke="none" /><path d="M 120.99980553446 99.90962569577887 l 14.914634612542608 -0.06418629561159805 a35.91477272727273,35.91477272727273 0 0,0 -0.0026606052037476875,0.618230949208471 l -14.913529710049357 -0.1925541318005577" fill="red" stroke="none" /><path d="M 120.9764740272857 100.99374915477107 l 38.73496624356736 1.8350481551170221 a59.77840909090909,59.77840909090909 0 0,0 -0.05753998980311262,1.0274151711133688 l -38.697639902876716 -2.5015350425658145" fill="red" stroke="none" /><path d="M 120.95626037817324 101.35467743843564 l 22.533933389598207 1.456663097863324 a43.58096590909091,43.58096590909091 0 0,0 -0.05483614743096968,0.748195664173606 l -22.5055206835029 -1.8443318985337" fill="red" stroke="none" /><path d="M 120.76222939487914 103.15116336523771 l 14.804885165098487 2.2469943314621132 a35.97443181818182,35.97443181818182 0 0,0 -0.09819006284131557,0.6114296150426063 l -14.764013347895883 -2.5015031761979247" fill="red" stroke="none" /><path d="M 120.32669344350535 105.2749913415812 l 35.282982085175476 9.156305993483288 a57.45170454545455,57.45170454545455 0 0,0 -0.25665023432633105,0.9550909981589405 l -35.12014377450737 -9.762287924817777" fill="red" stroke="none" /><path d="M 120.23288151984713 105.62410040840565 l 20.1754017428021 5.6081228504272325 a41.94034090909091,41.94034090909091 0 0,0 -0.19933118258259122,0.6938979963644285 l -20.07587792333341 -5.954578322296243" fill="red" stroke="none" /><path d="M 120.13307415673323 105.97154293290107 l 14.699431983751243 4.3599049254419775 a36.33238636363636,36.33238636363636 0 0,0 -0.1829997032493329,0.5980536185107874 l -14.622205507995776 -4.612285516504822" fill="red" stroke="none" /><line stroke="#e1ed5e" stroke-width="0.3" x1="174.80103733775053" x2="179.2010983576182" y1="140.37084112569926" y2="142.7455964860345" /><path d="M 175.68104954172406 140.8457921977663 a86.0,86.0 0 0,1 -30.038265399797805,32.042727171017184" fill="none" id="id17" stroke="none" /><text fill="#e1ed5e" style="font-size:6.75px; font-family:Arial;" text-anchor="middle"><textPath startOffset="22.206326154141568" xlink:href="#id17">May</textPath></text><path d="M 118.30583269289576 110.29060199501025 l 7.826783580343214 4.399817046162049 a29.97869318181818,29.97869318181818 0 0,0 -0.2567432441290604,0.44765348709146774 l -7.749888340061774 -4.533890379111832" fill="red" stroke="none" /><path d="M 117.75023020441432 111.22182372390056 l 15.15325050121166 9.579994400659416 a38.92755681818181,38.92755681818181 0 0,0 -0.36294410979112113,0.5632973183274202 l -14.98610152804349 -9.83941331890829" fill="red" stroke="none" /><path d="M 117.55443506779139 111.5257021239791 l 17.479629236536585 11.476586916064413 a41.91051136363636,41.91051136363636 0 0,0 -0.40113726832093305,0.5996457891205133 l -17.27948886280493 -11.775769619390733" fill="red" stroke="none" /><path d="M 117.35343817320211 111.8261652097733 l 24.674419902521738 16.815328657646397 a50.859375,50.859375 0 0,0 -0.4992431154667014,0.719196943140812 l -24.3813158798929 -17.23756686297423" fill="red" stroke="none" /><path d="M 117.14729908036423 112.12312394758627 l 21.994333905637653 15.549972904361368 a47.93607954545455,47.93607954545455 0 0,0 -0.48214612734716805,0.6696588011932275 l -21.723407985914882 -15.926265311005729" fill="red" stroke="none" /><path d="M 116.71984013943494 112.70617746262583 l 10.188652584968162 7.742826891287613 a33.796875,33.796875 0 0,0 -0.3559827785396711,0.460155728223984 l -10.053862989210423 -7.917060613624849" fill="red" stroke="none" /><path d="M 116.498646956653 112.99209946851258 l 16.404904644399288 12.918280721532385 a41.88068181818181,41.88068181818181 0 0,0 -0.4508796185724219,0.5625416500797394 l -16.18010711377201 -13.198750205190374" fill="red" stroke="none" /><path d="M 116.27256486870786 113.27417163493432 l 16.272564868707853 13.274171634934323 a42.0,42.0 0 0,0 -0.46180800021291324,0.5562774857724591 l -16.041660868601397 -13.552310377820552" fill="red" stroke="none" /><path d="M 115.56566222782051 114.09645910891815 l 22.110315664517778 20.023379416076928 a50.82954545454545,50.82954545454545 0 0,0 -0.5928990351921729,0.6434748037194964 l -21.76237022132988 -20.40100547459776" fill="red" stroke="none" /><path d="M 115.32070863581623 114.36230785411682 l 8.79199756941727 8.242006211737491 a33.05113636363636,33.05113636363636 0 0,0 -0.392668666295607,0.4117115267423041 l -8.648822351742698 -8.392124855062303" fill="red" stroke="none" /><path d="M 115.07121518719521 114.62390073753431 l 10.7039880590875 10.386293137453348 a35.91477272727273,35.91477272727273 0 0,0 -0.43432824919479424,0.43997222336261327 l -10.523619184837171 -10.569005854796627" fill="red" stroke="none" /><path d="M 114.55890576462653 115.13401014063108 l 10.34013193510407 10.7485867476073 a35.91477272727273,35.91477272727273 0 0,0 -0.44921541959299377,0.42476121783794113 l -10.15358068112027 -10.924982602191163" fill="red" stroke="none" /><path d="M 114.29624159901734 115.38237550388516 l 10.580031069727319 11.38383187148319 a36.54119318181818,36.54119318181818 0 0,0 -0.46442194872598247,0.4242384388230623 l -10.382509571534472 -11.564263076892836" fill="red" stroke="none" /><path d="M 114.0293411484842 115.62618273729858 l 9.964020702048439 11.098141148649555 a35.91477272727273,35.91477272727273 0 0,0 -0.4635701805404381,0.40904678594625604 l -9.771508168601413 -11.2680110763681" fill="red" stroke="none" /><path d="M 113.75828350139079 115.86535959552629 l 2.4819630748247596 2.862074813397498 a24.788352272727273,24.788352272727273 0 0,0 -0.32476816614271836,0.27677447688172047 l -2.4323294321049937 -2.9043736805021654" fill="red" stroke="none" /><path d="M 113.48314897796784 116.09983520530334 l 9.576100126397613 11.434542049221122 a35.91477272727273,35.91477272727273 0 0,0 -0.4773755187957271,0.39284755240903013 l -9.377854479057193 -11.59768472048733" fill="red" stroke="none" /><path d="M 112.92097659922987 116.55440617244103 l 9.195183630986037 11.78090552896727 a35.94460227272727,35.94460227272727 0 0,0 -0.49102255989394894,0.3764951606505929 l -8.991032342598595 -11.937440031445234" fill="red" stroke="none" /><path d="M 112.63410532772338 116.77436683061366 l 9.511471340473564 12.628429574183583 a36.80965909090909,36.80965909090909 0 0,0 -0.5094019126470052,0.3768433568964844 l -9.292684457407995 -12.790282879819838" fill="red" stroke="none" /><path d="M 112.34349029814194 116.9893568818739 l 12.273356830538855 16.89282644504506 a41.88068181818181,41.88068181818181 0 0,0 -0.5868733404831903,0.41871854598113084 l -11.98075616220678 -17.10158925287041" fill="red" stroke="none" /><path d="M 111.7513745106137 117.40417183066458 l 16.692293338939923 24.72183498673946 a50.82954545454545,50.82954545454545 0 0,0 -0.7293441950953141,0.48336956258578606 l -16.264274445104643 -25.005502570416564" fill="red" stroke="none" /><path d="M 111.45004920935366 117.60387380957326 l 2.049298580083185 3.1506933238724866 a24.758522727272727,24.758522727272727 0 0,0 -0.35925582997307914,0.2292940682901117 l -1.9947609480631754 -3.185501820986407" fill="red" stroke="none" /><path d="M 111.1453310114006 117.79835938074945 l 3.973690460030612 6.345721881488798 a28.48721590909091,28.48721590909091 0 0,0 -0.41784071600091643,0.2566718951404814 l -3.863870544097387 -6.413182243457657" fill="red" stroke="none" /><line stroke="#e1ed5e" stroke-width="0.3" x1="143.8653032363475" x2="146.44561519142675" y1="172.8068346515853" y2="177.08958963109032" /><path d="M 144.38136562736335 173.6633856474863 a86.0,86.0 0 0,1 -40.68145358897372,12.25698825130547" fill="none" id="id18" stroke="none" /><text fill="#e1ed5e" style="font-size:6.75px; font-family:Arial;" text-anchor="middle"><textPath startOffset="21.466115282336833" xlink:href="#id18">June</textPath></text><path d="M 110.8373102113329 117.98757091392108 l 15.594027335341247 25.882683715627913 a51.21732954545455,51.21732954545455 0 0,0 -0.7590704054606079,0.44847217524379557 l -15.146189058852256 -26.147274463165456" fill="red" stroke="none" /><path d="M 110.21172684928248 118.3499491758327 l 14.519799113823542 26.091333984387116 a50.859375,50.859375 0 0,0 -0.7686478775056165,0.4191281090193058 l -14.068528424449276 -26.337402745166195" fill="red" stroke="none" /><path d="M 109.57404056367764 118.69057910512821 l 8.159693662225257 15.92947082823427 a38.89772727272727,38.89772727272727 0 0,0 -0.5985546937239777,0.30012774922481544 l -7.884285060818519 -16.067566418368386" fill="red" stroke="none" /><path d="M 109.2508944713604 118.85261126421891 l 7.884285060818519 16.067566418368386 a38.89772727272727,38.89772727272727 0 0,0 -0.6036322172268417,0.2897801469383149 l -7.606540175591444 -16.200900841806263" fill="red" stroke="none" /><path d="M 108.92500713936063 119.00905698771935 l 3.904690623470275 8.316462432127215 a30.1875,30.1875 0 0,0 -0.47226475608433455,0.2167935863947681 l -3.760957871618521 -8.382443088856057" fill="red" stroke="none" /><path d="M 108.59647513512805 119.15986991738527 l 8.559842428586308 19.078222744441867 a41.91051136363636,41.91051136363636 0 0,0 -0.660747801286727,0.2896524184961525 l -8.230173952641826 -19.222739716232475" fill="red" stroke="none" /><path d="M 108.2653958097858 119.30500536409082 l 5.882050143043589 13.73836319234304 a35.94460227272727,35.94460227272727 0 0,0 -0.5708833683317605,0.23862929426268795 l -5.644695315214367 -13.837577529625701" fill="red" stroke="none" /><path d="M 107.93186726928326 119.44442032107085 l 9.036019247109625 22.151172013492637 a44.92329545454545,44.92329545454545 0 0,0 -0.7185137208536213,0.285911437960881 l -8.653384450214137 -22.303430295859588" fill="red" stroke="none" /><path d="M 106.91757812671514 119.82793768551818 l 5.9054892814713025 16.926975211642652 a38.92755681818181,38.92755681818181 0 0,0 -0.6345752819842596,0.21528238934367816 l -5.613244266549816 -17.026120587884453" fill="red" stroke="none" /><path d="M 106.57524785965236 119.94407469862006 l 6.547228337523164 19.85908574393844 a41.91051136363636,41.91051136363636 0 0,0 -0.6870902132773136,0.21998458869760262 l -6.20441677915491 -19.96884317929575" fill="red" stroke="none" /><path d="M 105.88484417918355 120.15858648285463 l 5.859766718192711 20.072683415456098 a41.91051136363636,41.91051136363636 0 0,0 -0.6942552682003251,0.19620347352184764 l -5.51338028188778 -20.170575682316464" fill="red" stroke="none" /><path d="M 105.53697534728816 120.25689768951611 l 3.9325109000626117 14.38700119994042 a35.91477272727273,35.91477272727273 0 0,0 -0.5977407767826095,0.15786877192966606 l -3.6842796804685047 -14.45256132117367" fill="red" stroke="none" /><path d="M 104.83641907484287 120.43548508189849 l 6.8767833720422 29.056705350824426 a50.859375,50.859375 0 0,0 -0.8536621381891621,0.19429072336654557 l -6.375601084460175 -29.170772807768657" fill="red" stroke="none" /><path d="M 104.13013068566511 120.58985236759428 l 2.9391981157929234 14.652721642279447 a35.94460227272727,35.94460227272727 0 0,0 -0.6076903756265571,0.1164653068041135 l -2.686540125594662 -14.701144147432029" fill="red" stroke="none" /><path d="M 103.7750983002368 120.6578951692458 l 2.6811777700545525 14.671800546339348 a35.91477272727273,35.91477272727273 0 0,0 -0.6090992021983691,0.10589970377941557 l -2.4282295963841336 -14.71577882863977" fill="red" stroke="none" /><path d="M 103.06178313531738 120.77559828337769 l 3.048735764002104 20.687065904329202 a41.91051136363636,41.91051136363636 0 0,0 -0.714616945145601,0.09903939699274628 l -2.6921902276696725 -20.736479866814552" fill="red" stroke="none" /><path d="M 102.70371172650421 120.8252237178851 l 3.041675692317234 23.428376682620726 a44.625,44.625 0 0,0 -0.7626042260158169,0.09234075145862929 l -2.6379440432500365 -23.477262962804705" fill="red" stroke="none" /><path d="M 100.90346689309514 120.98055641714683 l 0.45815011482239465 10.639287842217923 a31.649147727272727,31.649147727272727 0 0,0 -0.5444853790812414,0.018753177372037633 l -0.274944384066501 -10.645597818016054" fill="red" stroke="none" /><line stroke="#e1ed5e" stroke-width="0.3" x1="102.19456741930631" x2="102.32365962044197" y1="184.97166512339345" y2="189.96999836594603" /><path d="M 102.22038585953345 185.97133177190398 a86.0,86.0 0 0,1 -42.740103519485714,-10.115201625700543" fill="none" id="id19" stroke="none" /><text fill="#e1ed5e" style="font-size:6.75px; font-family:Arial;" text-anchor="middle"><textPath startOffset="22.20632615414155" xlink:href="#id19">July</textPath></text><path d="M 100.18074693466247 120.99922214144158 l 0.1802334490526261 20.939565260357934 a41.94034090909091,41.94034090909091 0 0,0 -0.7219607674301487,0.0 l 0.18023344905261166 -20.939565260357934" fill="red" stroke="none" /><path d="M 99.81925306533755 120.99922214144158 l -0.10475106440664612 12.170003741062732 a33.17045454545455,33.17045454545455 0 0,0 -0.5709113989195359,-0.009828757479509174 l 0.31422215321884994 -12.166397506304063" fill="red" stroke="none" /><path d="M 99.45781275523022 120.99299961872073 l -0.5398767877608179 20.90354081352732 a41.91051136363636,41.91051136363636 0 0,0 -0.7210197526947819,-0.024833378141105443 l 0.899616892130243 -20.89115063696012" fill="red" stroke="none" /><path d="M 96.93821686468263 120.77559828337769 l -2.1876092571940813 14.843928887129229 a36.00426136363636,36.00426136363636 0 0,0 -0.6123538531598293,-0.0956370781705161 l 2.4427989739624274 -14.804073501611608" fill="red" stroke="none" /><path d="M 95.51606077576429 120.51570834832081 l -1.9107695557822646 8.742489352977621 a29.948863636363637,29.948863636363637 0 0,0 -0.5026843323999516,-0.11440931745454902 l 2.060974037575079 -8.708303301945385" fill="red" stroke="none" /><path d="M 94.81253420990036 120.34920634021253 l -3.6842796804684945 14.452561321173674 a35.91477272727273,35.91477272727273 0 0,0 -0.5977407767826235,-0.15786877192967003 l 3.9325109000626073 -14.387001199940421" fill="red" stroke="none" /><path d="M 94.46302465271185 120.25689768951611 l -4.719013080075129 17.264401439928506 a38.89772727272727,38.89772727272727 0 0,0 -0.6443479499880447,-0.18209916688432976 l 5.015492198167788 -17.180613479705656" fill="red" stroke="none" /><path d="M 94.11515582081647 120.15858648285463 l -5.466886496002888 18.726868692879165 a40.50852272727273,40.50852272727273 0 0,0 -0.6676673078269122,-0.20116268288980776 l 5.788428778270046 -18.62999064088363" fill="red" stroke="none" /><path d="M 93.76903079525671 120.05430185196036 l -7.0983484406308515 22.845951825670753 a44.92329545454545,44.92329545454545 0 0,0 -0.7364824634844371,-0.23579842745807086 l 7.490552249206229 -22.720380551552974" fill="red" stroke="none" /><path d="M 93.08242187328487 119.8279376855182 l -1.1309847192967486 3.241755152845375 a24.433380681818182,24.433380681818182 0 0,0 -0.3959143577957257,-0.1419608027474014 l 1.186618637722201 -3.2218068090580156" fill="red" stroke="none" /><path d="M 92.7421414339146 119.70592522655815 l -5.16503855342157 14.02367690128641 a35.94460227272727,35.94460227272727 0 0,0 -0.5787590681588907,-0.21883715713282242 l 5.405667842340743 -13.932691494046955" fill="red" stroke="none" /><path d="M 91.7346041902142 119.30500536409082 l -7.044371428794713 16.453129571668313 a38.89772727272727,38.89772727272727 0 0,0 -0.6132492048953164,-0.26883042969323057 l 7.326541308347772 -16.32943458868063" fill="red" stroke="none" /><path d="M 90.7491055286396 118.85261126421891 l -3.955283005510621 8.06056248654814 a29.97869318181818,29.97869318181818 0 0,0 -0.4613094073562865,-0.23131011347464686 l 4.093446320549668 -7.991284532164191" fill="red" stroke="none" /><path d="M 90.10565033884886 118.52300852407294 l -8.531065687952754 15.970832633682202 a39.10653409090909,39.10653409090909 0 0,0 -0.591024848920756,-0.3222738715098679 l 8.804713348742151 -15.821618110412567" fill="red" stroke="none" /><line stroke="#e1ed5e" stroke-width="0.3" x1="58.666819895761336" x2="56.23545636021788" y1="174.27360380694188" y2="178.64263932499728" /><path d="M 58.180547188652646 175.14741091055294 a86.0,86.0 0 0,1 -31.652253787137756,-30.449443065178592" fill="none" id="id20" stroke="none" /><text fill="#e1ed5e" style="font-size:6.75px; font-family:Arial;" text-anchor="middle"><textPath startOffset="22.20632615414155" xlink:href="#id20">August</textPath></text><path d="M 89.7882731507175 118.34994917583269 l -4.351588146001063 7.819580614701433 a29.948863636363637,29.948863636363637 0 0,0 -0.4483077244475965,-0.2545608260542448 l 4.485544637369867 -7.743516622852555" fill="red" stroke="none" /><path d="M 89.4739219176387 118.17145234162733 l -10.511126266903387 18.145640619551152 a41.97017045454545,41.97017045454545 0 0,0 -0.6220221668509466,-0.3675016602026909 l 10.821916304782714 -17.96202038705471" fill="red" stroke="none" /><path d="M 89.1626897886671 117.98757091392108 l -12.315125240151026 20.44042149309213 a44.86363636363636,44.86363636363636 0 0,0 -0.6580444365082495,-0.4042246390484649 l 12.665148876591584 -20.22540838721529" fill="red" stroke="none" /><path d="M 87.95078237400918 117.19931262002967 l -12.06633299193683 17.223743461819495 a42.02982954545455,42.02982954545455 0 0,0 -0.5889633452569862,-0.4202097088941691 l 12.361023665042705 -17.013489491081106" fill="red" stroke="none" /><path d="M 87.36589467227662 116.77436683061367 l -14.464614906456019 19.204743843003715 a45.04261363636364,45.04261363636364 0 0,0 -0.6153062783733453,-0.47179061625096047 l 14.79304991332285 -18.95291388492539" fill="red" stroke="none" /><path d="M 87.07902340077011 116.55440617244103 l -11.012195965252742 14.10886889696679 a38.89772727272727,38.89772727272727 0 0,0 -0.5242719168985299,-0.4165133183768603 l 11.253425374868629 -13.9172216645848" fill="red" stroke="none" /><path d="M 86.79598089348748 116.32954008644616 l -11.38471533757543 14.079589250671622 a39.10653409090909,39.10653409090909 0 0,0 -0.519800087326581,-0.42776008405999444 l 11.625385553446701 -13.881534047754448" fill="red" stroke="none" /><path d="M 86.51685102203217 116.09983520530335 l -11.548776752435517 13.790057711360674 a38.98721590909091,38.98721590909091 0 0,0 -0.5107966223207202,-0.43531196303778746 l 11.784438851333293 -13.589221358099936" fill="red" stroke="none" /><path d="M 85.44109423537348 115.13401014063109 l -10.340131935104061 10.748586747607309 a35.91477272727273,35.91477272727273 0 0,0 -0.4418372973573064,-0.4324307898881053 l 10.523619184837163 -10.569005854796634" fill="red" stroke="none" /><path d="M 85.18274418774928 114.88116024355367 l -12.628343021804596 12.682807025755961 a38.89772727272727,38.89772727272727 0 0,0 -0.47040202404486453,-0.47651476683126887 l 12.844785670904994 -12.463551764944027" fill="red" stroke="none" /><path d="M 84.9287848128048 114.62390073753433 l -6.9939857978077695 6.786403936012023 a30.7453125,30.7453125 0 0,0 -0.36527400212174505,-0.3829883308784334 l 7.109766351308472 -6.66500848855109" fill="red" stroke="none" /><path d="M 84.67929136418377 114.36230785411682 l -6.6592852877269415 6.242707675226914 a30.127840909090907,30.127840909090907 0 0,0 -0.3514248976197638,-0.3814023191060261 l 6.7657565933424335 -6.127154101319544" fill="red" stroke="none" /><path d="M 83.95833913139862 113.55231037782056 l -13.694656508564535 11.5695149674292 a38.92755681818181,38.92755681818181 0 0,0 -0.42802517065189627,-0.5155838912877012 l 13.891777679109966 -11.332069819027737" fill="red" stroke="none" /><path d="M 83.72743513129214 113.27417163493432 l -14.076693188981654 11.482912678515634 a39.16619318181819,39.16619318181819 0 0,0 -0.4216559395908631,-0.5260806172041834 l 14.272267040627378 -11.23890422773319" fill="red" stroke="none" /><path d="M 83.50135304334701 112.99209946851258 l -9.449225075173988 7.440929695602664 a33.02727272727273,33.02727272727273 0 0,0 -0.3478765511024924,-0.44967733653097536 l 9.57590844349455 -7.277174364958436" fill="red" stroke="none" /><path d="M 83.28015986056508 112.70617746262583 l -11.874886462666849 9.024273766069486 a35.91477272727273,35.91477272727273 0 0,0 -0.3698173791180647,-0.495430814021013 l 12.028465108479997 -8.818530072539165" fill="red" stroke="none" /><path d="M 82.85270091963577 112.12312394758628 l -24.405672838813864 17.254787209490704 a50.88920454545455,50.88920454545455 0 0,0 -0.49953592667812446,-0.7196187595297678 l 24.699069672654122 -16.832127187773924" fill="red" stroke="none" /><path d="M 82.6465618267979 111.8261652097733 l -4.979253566742646 3.393303085758814 a27.02556818181818,27.02556818181818 0 0,0 -0.258669299002668,-0.38667550529762257 l 5.036925971156044 -3.3070906662553705" fill="red" stroke="none" /><path d="M 82.44556493220864 111.52570212397912 l -12.66712075914491 8.316841873553114 a36.15340909090909,36.15340909090909 0 0,0 -0.33707912725429073,-0.5231542910443249 l 12.808404749776244 -8.09756598258734" fill="red" stroke="none" /><path d="M 82.05923443525364 110.91462005526583 l -15.494297533190046 9.426262775002309 a39.13636363636364,39.13636363636364 0 0,0 -0.3451810952896588,-0.5785433704849748 l 15.654259504177936 -9.158157310631223" fill="red" stroke="none" /><line stroke="#e1ed5e" stroke-width="0.3" x1="26.63291911575756" x2="22.317208475507996" y1="142.92168965132927" y2="145.44649492493687" /><path d="M 25.769776987707644 143.4266507060508 a86.0,86.0 0 0,1 -11.730757126820373,-40.83630448921669" fill="none" id="id21" stroke="none" /><text fill="#e1ed5e" style="font-size:6.75px; font-family:Arial;" text-anchor="middle"><textPath startOffset="21.46611528233685" xlink:href="#id21">September</textPath></text><path d="M 81.87401531095188 110.60418214915194 l -12.873568671198957 7.531379367295412 a35.91477272727273,35.91477272727273 0 0,0 -0.30758096112576394,-0.5362933317991455 l 13.001301628477098 -7.308666189637959" fill="red" stroke="none" /><path d="M 81.51974371655577 109.97397251340807 l -13.282684203725546 7.16879274401205 a36.09375,36.09375 0 0,0 -0.29037850148847705,-0.5492866928207206 l 13.40411521343891 -6.939091036105204" fill="red" stroke="none" /><path d="M 81.18737489456691 109.33194174019688 l -21.511595468570505 10.670757245537628 a45.01278409090909,45.01278409090909 0 0,0 -0.3383391133073709,-0.6970787861482746 l 21.692087838492597 -10.29888950342407" fill="red" stroke="none" /><path d="M 81.02952815118164 109.00673069616217 l -15.117094754527136 7.177238523504226 a37.734375,37.734375 0 0,0 -0.2735299853659364,-0.5891592541083576 l 15.2383993567329 -6.915959202117041" fill="red" stroke="none" /><path d="M 80.87730276802145 108.67885076344099 l -10.267584593306658 4.659951120143033 a32.27556818181818,32.27556818181818 0 0,0 -0.22525106011470902,-0.5078816760154873 l 10.346276738152646 -4.482521107634849" fill="red" stroke="none" /><path d="M 80.73074385275274 108.34839909993369 l -6.05448786899303 2.623104944467801 a27.598295454545454,27.598295454545454 0 0,0 -0.18510442073988342,-0.4375321716671447 l 6.098743270925221 -2.5184982471344974" fill="red" stroke="none" /><path d="M 80.32549172779594 107.34259656027581 l -14.727934459448207 5.496517595547375 a36.72017045454545,36.72017045454545 0 0,0 -0.21590715156614879,-0.5940837526782241 l 14.820365872019579 -5.242186045863034" fill="red" stroke="none" /><path d="M 80.20201598880116 107.00284435728193 l -16.985770373244453 6.008122147440744 a39.01704545454545,39.01704545454545 0 0,0 -0.21851249023616076,-0.6350995800556813 l 17.08667369442384 -5.714849864295767" fill="red" stroke="none" /><path d="M 80.0844068197444 106.66101706037122 l -22.659645081512412 7.578799240564418 a44.89346590909091,44.89346590909091 0 0,0 -0.23880704860872837,-0.7349725220644969 l 22.78674438113739 -7.187627818522118" fill="red" stroke="none" /><path d="M 79.86692584326677 105.97154293290107 l -28.626714816605055 8.490787607718717 a50.859375,50.859375 0 0,0 -0.24172095754146672,-0.8414623640123067 l 28.768628411032626 -7.996767768201815" fill="red" stroke="none" /><path d="M 79.76711848015287 105.62410040840567 l -17.301412890551084 4.809244951505986 a38.95738636363636,38.95738636363636 0 0,0 -0.17403177883187781,-0.6476369904442416 l 17.381632745724737 -4.510717027886205" fill="red" stroke="none" /><path d="M 79.67330655649465 105.27499134158121 l -11.000667900533434 2.8547893482136955 a32.36505681818182,32.36505681818182 0 0,0 -0.1352993238492351,-0.5404535429741901 l 11.048178538677728 -2.6650079658421135" fill="red" stroke="none" /><path d="M 79.58551787078972 104.9243191809786 l -32.448587361628284 7.827149379992979 a54.37926136363637,54.37926136363637 0 0,0 -0.2116633356656221,-0.9118401103033369 l 32.57851126322446 -7.267440612341067" fill="red" stroke="none" /><path d="M 79.50377843672027 104.57218783832718 l -18.283561280880217 4.078599378507766 a39.73295454545455,39.73295454545455 0 0,0 -0.14316343809523427,-0.668811921218281 l 18.351058757699892 -3.763273637873321" fill="red" stroke="none" /><path d="M 79.4281124754447 104.21870165774334 l -11.688572457133686 2.3969895782632613 a32.93181818181818,32.93181818181818 0 0,0 -0.10909851419725033,-0.5562909734616163 l 11.728100904306602 -2.1954348777336903" fill="red" stroke="none" /><path d="M 79.35854240842038 103.8639653848113 l -32.34023824362546 6.053911675350651 a53.90198863636363,53.90198863636363 0 0,0 -0.1628701401890426,-0.9134622406606291 l 32.43965482615369 -5.496330683956809" fill="red" stroke="none" /><line stroke="#e1ed5e" stroke-width="0.3" x1="15.007084014347285" x2="10.007500721073583" y1="101.09737516637583" y2="101.16192664675087" /><path d="M 14.007167355692545 101.11028546245083 a86.0,86.0 0 0,1 10.666146001902534,-42.60595125391555" fill="none" id="id22" stroke="none" /><text fill="#e1ed5e" style="font-size:6.75px; font-family:Arial;" text-anchor="middle"><textPath startOffset="22.20632615414155" xlink:href="#id22">October</textPath></text><path d="M 80.2630227832202 92.82701384747504 l -16.849322879665714 -6.1235293716867885 a38.92755681818181,38.92755681818181 0 0,0 0.23429831250763633,-0.6278029917282804 l 16.74141997865645 6.41265550044441" fill="red" stroke="none" /><path d="M 80.803312248108 91.48605970444005 l -13.743083276922684 -6.095207257048594 a36.03409090909091,36.03409090909091 0 0,0 0.2563528424833398,-0.5648395075550828 l 13.636128117475993 6.330868773445748" fill="red" stroke="none" /><path d="M 81.10775173730289 90.83032412892265 l -13.425840633277504 -6.516461418039762 a35.92372159090909,35.92372159090909 0 0,0 0.2747993414775639,-0.5539787039356543 l 13.311681278846528 6.746599710474378" fill="red" stroke="none" /><path d="M 81.26839172434947 90.50648371742162 l -7.26381968643834 -3.6814345811703078 a29.143465909090907,29.143465909090907 0 0,0 0.23063662471955765,-0.4455165487949605 l 7.199373628558669 3.8059238522256034" fill="red" stroke="none" /><path d="M 81.43458229118936 90.18545643968196 l -7.911399591822716 -4.182333903544621 a29.948863636363637,29.948863636363637 0 0,0 0.24485606304638394,-0.4536810976338031 l 7.83823542955786 4.317895984510897" fill="red" stroke="none" /><path d="M 81.6062741919709 89.86733742301443 l -13.089853167361625 -7.210886294133197 a35.94460227272727,35.94460227272727 0 0,0 0.30320531568554127,-0.5393684240462849 l 12.963790210383653 7.435138228114267" fill="red" stroke="none" /><line stroke="#e1ed5e" stroke-width="0.3" x1="26.266209847984243" x2="21.928928074336255" y1="57.711370442889674" y2="55.22380399835377" /><path d="M 25.398753493254645 57.213857153982495 a86.0,86.0 0 0,1 29.58750427330803,-30.492523968695096" fill="none" id="id23" stroke="none" /><text fill="#e1ed5e" style="font-size:6.75px; font-family:Arial;" text-anchor="middle"><textPath startOffset="21.46611528233685" xlink:href="#id23">November</textPath></text><path d="M 82.7489923806493 88.02491185347247 l -12.325648909848583 -8.556064400146791 a36.00426136363636,36.00426136363636 0 0,0 0.3577921418987485,-0.5060716109368382 l 12.176544148145956 8.766962511415416" fill="red" stroke="none" /><path d="M 83.17141714833178 87.43820079747576 l -11.99992697661569 -8.957419317709043 a35.97443181818182,35.97443181818182 0 0,0 0.3746892274001772,-0.4930471026810823 l 11.843961808991404 9.162651196271153" fill="red" stroke="none" /><path d="M 84.31358615837235 86.03803664274999 l -47.05924152488297 -41.885890071750055 a84.0,84.0 0 0,0 0.9706254375358201,-1.071788850921776 l 46.331272446731106 42.68973170994139" fill="red" stroke="none" /><path d="M 84.5562425177563 85.77008943001954 l -2.851830216891593 -2.6276823495702564 a24.87784090909091,24.87784090909091 0 0,0 0.29288643959749966,-0.31243083284617357 l 2.8061764553236377 2.67638259929448" fill="red" stroke="none" /><path d="M 85.31137513191541 84.99185889309783 l -10.453126504134062 -10.68050950931533 a35.94460227272727,35.94460227272727 0 0,0 0.44591291398725114,-0.42896786995939223 l 10.267730346534384 10.858860466037036" fill="red" stroke="none" /><path d="M 86.93701828274178 83.55741782278169 l -5.585166898998191 -7.030138118384532 a29.97869318181818,29.97869318181818 0 0,0 0.40680721884201304,-0.31751948697537236 l 5.463327124996752 7.125235994583127" fill="red" stroke="none" /><path d="M 87.22198572758235 83.33499621200491 l -3.339708275745523 -4.355625990044171 a26.488636363636363,26.488636363636363 0 0,0 0.36422360150930355,-0.274325665509661 l 3.2642385204778295 4.412468245059687" fill="red" stroke="none" /><path d="M 88.39885842347998 82.49532879139004 l -8.71733507667485 -13.153367996242428 a36.77982954545455,36.77982954545455 0 0,0 0.5307381494431448,-0.3452068558399053 l 8.489629901447417 13.301473776241869" fill="red" stroke="none" /><path d="M 89.00827224532344 82.1063720568725 l -9.36794979091752 -15.250251087892753 a38.89772727272727,38.89772727272727 0 0,0 0.5735339000741271,-0.34554775748005756 l 9.104053824625742 15.40924545483143" fill="red" stroke="none" /><line stroke="#e1ed5e" stroke-width="0.3" x1="56.762969772571076" x2="54.21961505331055" y1="26.818313649435495" y2="22.513508569990535" /><path d="M 56.25429882871897 25.957352633546506 a86.0,86.0 0 0,1 42.265352541879196,-11.944610805530505" fill="none" id="id24" stroke="none" /><text fill="#e1ed5e" style="font-size:6.75px; font-family:Arial;" text-anchor="middle"><textPath startOffset="22.20632615414155" xlink:href="#id24">December</textPath></text><path d="M 89.3179101791058 81.91981866633112 l -7.601884943562496 -12.866719954784243 a35.94460227272727,35.94460227272727 0 0,0 0.5354090019592177,-0.3101434521945925 l 7.379279209137958 12.995667564368883" fill="red" stroke="none" /><path d="M 90.58718382345135 81.22770947309562 l -6.698609239276802 -13.359257889174858 a35.94460227272727,35.94460227272727 0 0,0 0.5554788682563021,-0.2725710682351282 l 6.467659104010074 13.472584117544816" fill="red" stroke="none" /><path d="M 91.23893434514133 80.91482961587045 l -4.24364117657217 -9.244379404812753 a31.171875,31.171875 0 0,0 0.48957341790088177,-0.21965732188952738 l 4.083885640204514 9.316057057218808" fill="red" stroke="none" /><path d="M 91.56875222667455 80.76684994638697 l -6.03959978989776 -13.777382914825349 a36.04303977272727,36.04303977272727 0 0,0 0.5703660730993899,-0.2442009863104623 l 5.801549959008061 13.879303429098597" fill="red" stroke="none" /><path d="M 91.90106846888425 80.62456947434976 l -5.775090381562657 -13.816003016869915 a35.97443181818182,35.97443181818182 0 0,0 0.5733915529494505,-0.2339008114525656 l 5.5364149590248255 13.913364714506057" fill="red" stroke="none" /><path d="M 92.57280143429618 80.3572730644239 l -7.384998573853221 -19.53112053253306 a41.88068181818181,41.88068181818181 0 0,0 0.6765079753058415,-0.24916359659080023 l 7.047708272774811 19.655347396930182" fill="red" stroke="none" /><path d="M 94.98787191387505 79.60689891045804 l -1.5662900269140467 -6.372844090481863 a27.5625,27.5625 0 0,0 0.4617064108616741,-0.10927099031510684 l 1.4563599290898386 6.39886099293784" fill="red" stroke="none" /></svg>