<?xml version="1.0" encoding="utf-8" ?>
<svg baseProfile="full" height="200mm" version="1.1" viewBox="0,0,200,200" width="200mm" xmlns="http://www.w3.org/2000/svg" xmlns:ev="http://www.w3.org/2001/xml-events" xmlns:xlink="http://www.w3.org/1999/xlink"><defs /><rect fill="#1a1a1a" height="200" width="200" x="0" y="0" /><text alignment-baseline="middle" fill="#e1ed5e" style="dominant-baseline: central; font-size:9.0px; font-family:Arial;" text-anchor="middle" x="100.0" y="100.0">2021</text><line stroke="#e1ed5e" stroke-width="0.3" x1="100.0" x2="100.0" y1="15.0" y2="10.0" /><path d="M 100.0 14.0 a86.0,86.0 0 0,1 42.46469731375804,11.215312516191453" fill="none" id="id1" stroke="none" /><text fill="#e1ed5e" style="font-size:6.75px; font-family:Arial;" text-anchor="middle"><textPath startOffset="22.20632615414155" xlink:href="#id1">January</textPath></text><line stroke="#e1ed5e" stroke-width="0.3" x1="143.23703022742887" x2="145.7803849466894" y1="26.81831364943548" y2="22.513508569990506" /><path d="M 143.74570117128098 25.957352633546492 a86.0,86.0 0 0,1 28.547481713284135,27.462654790039103" fill="none" id="id2" stroke="none" /><text fill="#e1ed5e" style="font-size:6.75px; font-family:Arial;" text-anchor="middle"><textPath startOffset="19.985693538727396" xlink:href="#id2">February</textPath></text><path d="M 113.89432698308785 84.25364557470407 l 19.409103548873475 -21.99621643637971 a50.33507862759113,50.33507862759113 0 0,0 0.6447420518720918,0.5788557801066004 l -19.784856588341558 21.658861647503812" fill="#e0ff1b" stroke="none" /><path d="M 114.94478906791727 85.2469230424477 l 29.293762831858064 -28.9179817440485 a62.16277698355969,62.16277698355969 0 0,0 0.7451710682959916,0.7679642882651736 l -29.787198163857163 28.409453260233214" fill="#46ff2c" stroke="none" /><path d="M 115.68641384162765 86.03803664274999 l 23.860111861785292 -21.237104342490426 a52.94244102930665,52.94244102930665 0 0,0 0.600034844144045,0.6859435533674827 l -24.222138569507184 20.823245232919994" fill="#bcff1f" stroke="none" /><path d="M 115.9244219780498 86.31012108654704 l 20.773175124654365 -17.858246440370856 a48.394192280200144,48.394192280200144 0 0,0 0.5376119727540181,0.6363630041954976 l -21.0774977108955 17.49802448654625" fill="#fcff18" stroke="none" /><path d="M 116.60985879189232 87.15038557335679 l 25.018080376179768 -19.35432989265373 a52.63059328091494,52.63059328091494 0 0,0 0.5481703348007242,0.7213279047933667 l -25.347526651204607 18.92081721197933" fill="#c0ff1e" stroke="none" /><line stroke="#e1ed5e" stroke-width="0.3" x1="172.23445277983987" x2="176.4835382374775" y1="55.19839476539836" y2="52.563006222186495" /><path d="M 173.08426987136738 54.67131705675599 a86.0,86.0 0 0,1 12.851231095245387,41.99856678651699" fill="none" id="id3" stroke="none" /><text fill="#e1ed5e" style="font-size:6.75px; font-family:Arial;" text-anchor="middle"><textPath startOffset="22.20632615414155" xlink:href="#id3">March</textPath></text><path d="M 118.89224826269711 90.83032412892265 l 11.057839521021823 -5.36711157043008 a33.29152966404575,33.29152966404575 0 0,0 0.24578947089925735,0.5176953098439082 l -11.148587185762835 5.175973844945631" fill="#ff1202" stroke="none" /><path d="M 119.04729006885535 91.15688171328212 l 15.980526603516065 -7.419306711247401 a38.618834882058614,38.618834882058614 0 0,0 0.27474116442641106,0.6053557374921966 l -16.10587008490582 7.143128964913141" fill="#ff6b09" stroke="none" /><path d="M 119.34039704204932 91.81776055985345 l 10.3869959382014 -4.394371410546181 a32.27830593280915,32.27830593280915 0 0,0 0.2120812477514406,0.5135715635637881 l -10.461098872839038 4.214925276529089" fill="#ff0000" stroke="none" /><path d="M 119.61058180528143 92.48833698450437 l 11.1029675363962 -4.252895270192068 a32.88961758398856,32.88961758398856 0 0,0 0.1979569880263055,0.5304263098881011 l -11.17452911292413 4.061145823274634" fill="#ff0b01" stroke="none" /><path d="M 120.08093135843002 93.85539295169968 l 60.24279407529006 -18.433821144900946 a84.0,84.0 0 0,0 0.41117641155319085,1.3862824530138804 l -60.551176383954946 17.394109305140535" fill="#4dd2ff" stroke="none" /><path d="M 120.45610955862082 95.25157060432595 l 45.80582059439064 -10.632799183054479 a68.02371336669049,68.02371336669049 0 0,0 0.2549451456630031,1.1428690982878251 l -45.982060127055675 9.84275191521669" fill="#35ff67" stroke="none" /><path d="M 120.83666639777658 97.38593545837742 l 56.08138866156396 -7.0356921182359615 a77.52099714081487,77.52099714081487 0 0,0 0.15470845833244498,1.3254475921290843 l -56.1941874729 6.069300787782025" fill="#43ffe2" stroke="none" /><path d="M 120.87857604477298 97.74499172005257 l 20.654344018273548 -2.230789910107393 a41.7744639027877,41.7744639027877 0 0,0 0.07106209160436,0.7155855646446212 l -20.689683235560135 1.8749288147583372" fill="#ff9e0e" stroke="none" /><path d="M 120.96714384426684 98.82574320788733 l 35.430951096236704 -1.9842967303886754 a56.4864724803431,56.4864724803431 0 0,0 0.04601332036936044,0.9712684685094033 l -35.45985802483956 1.3741171552562723" fill="#8dff24" stroke="none" /><path d="M 120.98425023603335 99.18683210126433 l 33.76004375893643 -1.3082470679623341 a54.78538241601144,54.78538241601144 0 0,0 0.028405713481422037,0.9426473405544029 l -33.777561166873504 0.7269295799829321" fill="#a3ff22" stroke="none" /><line stroke="#e1ed5e" stroke-width="0.3" x1="184.98032266829074" x2="189.97916517819016" y1="98.17113171792111" y2="98.06355123074" /><path d="M 185.9800911702706 98.14961562048488 a86.0,86.0 0 0,1 -9.607161424134198,41.387399972396054" fill="none" id="id4" stroke="none" /><text fill="#e1ed5e" style="font-size:6.75px; font-family:Arial;" text-anchor="middle"><textPath startOffset="21.466115282336823" xlink:href="#id4">April</textPath></text><path d="M 120.99513854157772 99.54816195383933 l 25.759189099135853 -0.5543655570639582 a46.76515368120086,46.76515368120086 0 0,0 0.010392982827100132,0.804947973427828 l -25.764915089080667 0.1108813255756674" fill="#ffea16" stroke="none" /><path d="M 120.99980553446 99.90962569577887 l 13.476876629003957 -0.05799879177079062 a34.47700142959256,34.47700142959256 0 0,0 -0.002554093551134554,0.593481392226463 l -13.47587823816332 -0.17399207865935712" fill="#ff2603" stroke="none" /><path d="M 120.9904718944345 100.63252640178507 l 15.216216634553792 0.4585251253540595 a36.22312365975697,36.22312365975697 0 0,0 -0.024145070128748402,0.6230769738156905 l -15.206069431573841 -0.7203793461837562" fill="#ff4406" stroke="none" /><path d="M 120.9764740272857 100.99374915477107 l 22.87882580870949 1.0838720454155093 a43.904485346676196,43.904485346676196 0 0,0 -0.04226046958387258,0.7545890733977332 l -22.856778988238087 -1.4775328351486658" fill="#ffbf11" stroke="none" /><path d="M 120.89721153311464 102.0752229133903 l 60.84427031316958 6.0422139911976736 a82.1435489635454,82.1435489635454 0 0,0 -0.151839215109547,1.405842553854045 l -60.73124879655898 -7.08865286693651" fill="#4ae6ff" stroke="none" /><path d="M 120.76222939487914 103.15116336523771 l 36.07752723603742 5.475624990570929 a57.490689778413156,57.490689778413156 0 0,0 -0.15691740374562144,0.9771248229133435 l -35.97792807793051 -6.095829043177477" fill="#80ff26" stroke="none" /><path d="M 120.70491114924044 103.5080841355445 l 31.135065639896048 5.275290922195668 a52.57880629020729,52.57880629020729 0 0,0 -0.1588720150796331,0.8910386317864327 l -31.039647182477225 -5.81044830471532" fill="#c1ff1e" stroke="none" /><path d="M 120.5718875245553 104.21870165774334 l 35.89787020680529 7.3616193152008 a57.644924946390276,57.644924946390276 0 0,0 -0.20770279327266436,0.970318302349576 l -35.76583337480818 -7.9784514369665445" fill="#7eff26" stroke="none" /><path d="M 120.49622156327973 104.57218783832717 l 11.08795774455267 2.4734425023173396 a32.360489635453895,32.360489635453895 0 0,0 -0.1259584813815339,0.5426258411519157 l -11.043738697240583 -2.6639370008178203" fill="#ff0100" stroke="none" /><path d="M 120.41448212921028 104.9243191809786 l 12.673322179570503 3.057020163459554 a34.036812008577556,34.036812008577556 0 0,0 -0.14228795199138636,0.5683696384320263 l -12.618822913284056 -3.2747176412889765" fill="#ff1f03" stroke="none" /><path d="M 120.32669344350535 105.2749913415812 l 54.58458191272123 14.16527472968965 a77.39265546819158,77.39265546819158 0 0,0 -0.3457311374518631,1.2865941775984127 l -54.332662698927585 -15.10275984046361" fill="#43ffe0" stroke="none" /><path d="M 120.23288151984713 105.62410040840565 l 23.18393189448959 6.444398970475119 a45.062937812723376,45.062937812723376 0 0,0 -0.21417204748826682,0.7455609940396496 l -23.069567210115224 -6.842517440019351" fill="#ffd113" stroke="none" /><line stroke="#e1ed5e" stroke-width="0.3" x1="174.80103733775053" x2="179.2010983576182" y1="140.37084112569926" y2="142.7455964860345" /><path d="M 175.68104954172406 140.8457921977663 a86.0,86.0 0 0,1 -30.038265399797805,32.042727171017184" fill="none" id="id5" stroke="none" /><text fill="#e1ed5e" style="font-size:6.75px; font-family:Arial;" text-anchor="middle"><textPath startOffset="22.206326154141568" xlink:href="#id5">May</textPath></text><path d="M 118.30583269289576 110.29060199501025 l 43.646456880800876 24.53580363088352 a71.0701393852752,71.0701393852752 0 0,0 -0.608658223886376,1.0612469173002679 l -43.21764666076212 -25.283470394042105" fill="#3aff90" stroke="none" /><path d="M 117.35343817320211 111.8261652097733 l 19.654722388415337 13.39446349465048 a44.784864188706216,44.784864188706216 0 0,0 -0.4396148227012777,0.6332979401239974 l -19.421246658551922 -13.730802696961497" fill="#ffcd13" stroke="none" /><line stroke="#e1ed5e" stroke-width="0.3" x1="143.8653032363475" x2="146.44561519142675" y1="172.8068346515853" y2="177.08958963109032" /><path d="M 144.38136562736335 173.6633856474863 a86.0,86.0 0 0,1 -40.68145358897372,12.25698825130547" fill="none" id="id6" stroke="none" /><text fill="#e1ed5e" style="font-size:6.75px; font-family:Arial;" text-anchor="middle"><textPath startOffset="21.466115282336833" xlink:href="#id6">June</textPath></text><line stroke="#e1ed5e" stroke-width="0.3" x1="102.19456741930631" x2="102.32365962044197" y1="184.97166512339345" y2="189.96999836594603" /><path d="M 102.22038585953345 185.97133177190398 a86.0,86.0 0 0,1 -42.740103519485714,-10.115201625700543" fill="none" id="id7" stroke="none" /><text fill="#e1ed5e" style="font-size:6.75px; font-family:Arial;" text-anchor="middle"><textPath startOffset="22.20632615414155" xlink:href="#id7">July</textPath></text><line stroke="#e1ed5e" stroke-width="0.3" x1="58.666819895761336" x2="56.23545636021788" y1="174.27360380694188" y2="178.64263932499728" /><path d="M 58.180547188652646 175.14741091055294 a86.0,86.0 0 0,1 -31.652253787137756,-30.449443065178592" fill="none" id="id8" stroke="none" /><text fill="#e1ed5e" style="font-size:6.75px; font-family:Arial;" text-anchor="middle"><textPath startOffset="22.20632615414155" xlink:href="#id8">August</textPath></text><line stroke="#e1ed5e" stroke-width="0.3" x1="26.63291911575756" x2="22.317208475507996" y1="142.92168965132927" y2="145.44649492493687" /><path d="M 25.769776987707644 143.4266507060508 a86.0,86.0 0 0,1 -11.730757126820373,-40.83630448921669" fill="none" id="id9" stroke="none" /><text fill="#e1ed5e" style="font-size:6.75px; font-family:Arial;" text-anchor="middle"><textPath startOffset="21.46611528233685" xlink:href="#id9">September</textPath></text><line stroke="#e1ed5e" stroke-width="0.3" x1="15.007084014347285" x2="10.007500721073583" y1="101.09737516637583" y2="101.16192664675087" /><path d="M 14.007167355692545 101.11028546245083 a86.0,86.0 0 0,1 10.666146001902534,-42.60595125391555" fill="none" id="id10" stroke="none" /><text fill="#e1ed5e" style="font-size:6.75px; font-family:Arial;" text-anchor="middle"><textPath startOffset="22.20632615414155" xlink:href="#id10">October</textPath></text><line stroke="#e1ed5e" stroke-width="0.3" x1="26.266209847984243" x2="21.928928074336255" y1="57.711370442889674" y2="55.22380399835377" /><path d="M 25.398753493254645 57.213857153982495 a86.0,86.0 0 0,1 29.58750427330803,-30.492523968695096" fill="none" id="id11" stroke="none" /><text fill="#e1ed5e" style="font-size:6.75px; font-family:Arial;" text-anchor="middle"><textPath startOffset="21.46611528233685" xlink:href="#id11">November</textPath></text><line stroke="#e1ed5e" stroke-width="0.3" x1="56.762969772571076" x2="54.21961505331055" y1="26.818313649435495" y2="22.513508569990535" /><path d="M 56.25429882871897 25.957352633546506 a86.0,86.0 0 0,1 42.265352541879196,-11.944610805530505" fill="none" id="id12" stroke="none" /><text fill="#e1ed5e" style="font-size:6.75px; font-family:Arial;" text-anchor="middle"><textPath startOffset="22.20632615414155" xlink:href="#id12">December</textPath></text></svg>