<?xml version="1.0" encoding="utf-8" ?>
<svg baseProfile="full" height="200mm" version="1.1" viewBox="0,0,200,200" width="200mm" xmlns="http://www.w3.org/2000/svg" xmlns:ev="http://www.w3.org/2001/xml-events" xmlns:xlink="http://www.w3.org/1999/xlink"><defs /><rect fill="#1a1a1a" height="200" width="200" x="0" y="0" /><text alignment-baseline="middle" fill="#e1ed5e" style="dominant-baseline: central; font-size:9.0px; font-family:Arial;" text-anchor="middle" x="100.0" y="100.0">2013</text><line stroke="#e1ed5e" stroke-width="0.3" x1="100.0" x2="100.0" y1="15.0" y2="10.0" /><path d="M 100.0 14.0 a86.0,86.0 0 0,1 42.46469731375804,11.215312516191453" fill="none" id="id13" stroke="none" /><text fill="#e1ed5e" style="font-size:6.75px; font-family:Arial;" text-anchor="middle"><textPath startOffset="22.20632615414155" xlink:href="#id13">January</textPath></text><path d="M 100.72285384407766 79.0124445844662 l 0.5044730395586592 -14.647021607652457 a35.65570656852407,35.65570656852407 0 0,0 0.613208824040876,0.026406061882226252 l -0.7565226959888667 14.636167819246035" fill="#ffa70f" stroke="none" /><path d="M 101.08401301168833 79.027996857942 l 1.1165696946736747 -21.601865376645236 a42.63070307765718,42.63070307765718 0 0,0 0.7325131216699365,0.044187191905695505 l -1.4882448651832232 21.579444915359236" fill="#fdff18" stroke="none" /><path d="M 101.44485096284872 79.0497635885617 l 1.0092879492272566 -14.63460362848561 a35.66936554617614,35.66936554617614 0 0,0 0.6121709181934655,0.047516245193242594 l -1.2610490567830632 14.615062121103902" fill="#ffa70f" stroke="none" /><path d="M 101.80526077348638 79.07773832637324 l 1.2659211614560077 -14.671527896223905 a35.7260411243721,35.7260411243721 0 0,0 0.6122335480572438,0.058138952478750804 l -1.5182798366034957 14.647563399229977" fill="#ffa80f" stroke="none" /><path d="M 102.16513564639614 79.11191278185805 l 1.5104658717010928 -14.572178385513828 a35.65025221792479,35.65025221792479 0 0,0 0.6098456011883262,0.06852325901472059 l -1.761078176399144 14.544019173028508" fill="#ffa70f" stroke="none" /><path d="M 102.52436894288641 79.15227682838746 l 1.7652861749826778 -14.578771299821724 a35.68525818268411,35.68525818268411 0 0,0 0.6091733079946248,0.0790881787687062 l -2.015974211485149 14.54622479788888" fill="#ffa70f" stroke="none" /><path d="M 102.88285421437855 79.19881850522331 l 5.940023521871502 -42.86013033382844 a64.26978913368018,64.26978913368018 0 0,0 1.094517629310159,0.1613034471026841 l -6.676910131610317 42.751532402564784" fill="#34ff59" stroke="none" /><path d="M 103.2404852339499 79.25152402106235 l 1.1899525777804765 -7.619137472834056 a28.7115006948914,28.7115006948914 0 0,0 0.4876454164662453,0.08046567202409152 l -1.320927200385597 7.5975255378703395" fill="#ff4606" stroke="none" /><path d="M 103.59715602781102 79.31037775812273 l 1.6872543529884698 -9.70451515569576 a30.850098560867664,30.850098560867664 0 0,0 0.5224021696524247,0.09546565739334567 l -1.8540516437437953 9.674034016951675" fill="#ff6409" stroke="none" /><path d="M 103.95276090670814 79.375362276772 l 2.886954200253592 -15.063492558513708 a36.33764364610026,36.33764364610026 0 0,0 0.6132991194757816,0.12302203374828076 l -3.145819729196499 15.011566568688218" fill="#ffb010" stroke="none" /><path d="M 104.307194497241 79.44645832069477 l 4.322083748667812 -20.624591837353716 a42.07259348983736,42.07259348983736 0 0,0 0.7075353573650941,0.15463982464357123 l -4.676461830186435 20.54713851461427" fill="#fffa17" stroke="none" /><path d="M 104.66035177308747 79.52364482259891 l 1.95562565067329 -8.592502748069007 a29.81224007623174,29.81224007623174 0 0,0 0.4993923760668999,0.11819004069448162 l -2.1032417137027135 8.557566795233656" fill="#ff5607" stroke="none" /><path d="M 105.01212808612495 79.60689891045804 l 1.4017066339782278 -5.7031952482881865 a26.872922400971728,26.872922400971728 0 0,0 0.44825456438654626,0.11427006926634711 l -1.499670087049799 5.678222182852972" fill="#ff2b04" stroke="none" /><path d="M 105.36241919743992 79.69619591428918 l 4.524221694769217 -17.130124958297028 a38.71749878031014,38.71749878031014 0 0,0 0.6428987404129783,0.17572851139548173 l -4.818418324405907 17.04970990607525" fill="#ffcf13" stroke="none" /><path d="M 106.0581310904928 79.89281104454417 l 7.095059568169601 -23.54879768304855 a45.59442503074686,45.59442503074686 0 0,0 0.7495172592123037,0.2328786609003303 l -7.499362200092623 23.4231788872657" fill="#d8ff1c" stroke="none" /><path d="M 107.08798089147638 80.2323363322302 l 5.168630786393843 -14.414789849557884 a36.313422563652296,36.313422563652296 0 0,0 0.5865787973942751,0.21604192142241868 l -5.415991909560694 14.32368466032914" fill="#ffb010" stroke="none" /><path d="M 107.4271985657038 80.35727306442388 l 10.54882341489809 -27.898494431974253 a50.82622448466451,50.82622448466451 0 0,0 0.8156806338494316,0.31647141357461034 l -11.027487213747188 27.712780314509097" fill="#9bff22" stroke="none" /><path d="M 107.76421540070413 80.48803036053334 l 5.434159290709087 -13.656389683202947 a35.697859244675456,35.697859244675456 0 0,0 0.5689833004931513,0.23210257459101466 l -5.668426460790626 13.560826222428354" fill="#ffa70f" stroke="none" /><path d="M 108.09893153111575 80.62456947434976 l 3.7014746024126275 -8.855200679987046 a30.597681663565883,30.597681663565883 0 0,0 0.48419555194116143,0.20730726620649587 l -3.853353912144104 8.79017388581776" fill="#ff6108" stroke="none" /><path d="M 108.43124777332544 80.76684994638697 l 6.137481301218297 -14.00066775300299 a36.286836633286235,36.286836633286235 0 0,0 0.5699070279015476,0.2557006710283011 l -6.377570447586624 13.892946751458158" fill="#ffaf10" stroke="none" /><path d="M 108.76106565485865 80.91482961587045 l 2.619255687584624 -5.705806011102136 a27.278273854593607,27.278273854593607 0 0,0 0.4250497887314062,0.1995665751048211 l -2.717083687615628 5.659874453357312" fill="#ff3104" stroke="none" /><path d="M 109.08828744355905 81.06846463323043 l 12.698936353977924 -26.452768378939165 a50.34300494891731,50.34300494891731 0 0,0 0.7779881719504618,0.38175541721055706 l -13.152395792938817 26.230257801593776" fill="#a0ff22" stroke="none" /><path d="M 109.73455568895987 81.39251694778311 l 7.064756113032472 -13.504194114415057 a36.24053928233617,36.24053928233617 0 0,0 0.5502607365075339,0.29393022870622393 l -7.296161896068318 13.38058515920708" fill="#ffaf10" stroke="none" /><path d="M 110.05341064243156 81.56283822128135 l 7.075303815047733 -12.97554886707279 a35.77920134773943,35.77920134773943 0 0,0 0.5381803722853459,0.2994967945012691 l -7.297608276405114 12.851836675011342" fill="#ffa80f" stroke="none" /><path d="M 110.36928655335952 81.73862282372117 l 6.575364244050173 -11.579890854989909 a34.3165043143992,34.3165043143992 0 0,0 0.5111578419005585,0.2960956149845506 l -6.77371881841606 11.464991082615308" fill="#ff950d" stroke="none" /><line stroke="#e1ed5e" stroke-width="0.3" x1="143.23703022742887" x2="145.7803849466894" y1="26.81831364943548" y2="22.513508569990506" /><path d="M 143.74570117128098 25.957352633546492 a86.0,86.0 0 0,1 28.547481713284135,27.462654790039103" fill="none" id="id14" stroke="none" /><text fill="#e1ed5e" style="font-size:6.75px; font-family:Arial;" text-anchor="middle"><textPath startOffset="19.985693538727396" xlink:href="#id14">February</textPath></text><path d="M 110.68208982089419 81.91981866633111 l 4.908009463863932 -8.307148000239776 a30.648692387845394,30.648692387845394 0 0,0 0.451904656385889,0.2722674990767861 l -5.050276186467459 8.221433891704375" fill="#ff6209" stroke="none" /><path d="M 111.60114157652 82.49532879139004 l 10.083820267545667 -15.215223186945458 a39.25339551471801,39.25339551471801 0 0,0 0.5600063345148962,0.3781187768788698 l -10.344231296467104 15.039392497767919" fill="#ffd614" stroke="none" /><path d="M 111.90073688211348 82.69761687909136 l 6.640611461610276 -9.654730190579015 a32.718000496541535,32.718000496541535 0 0,0 0.4612752915291712,0.32315281987808553 l -6.805817892723098 9.538992527936992" fill="#ff7f0b" stroke="none" /><path d="M 112.19680574252982 82.90503203632743 l 3.6733097410448003 -5.148488355835903 a27.324566135620096,27.324566135620096 0 0,0 0.38053320690298825,0.27647355813328245 l -3.7613882643015772 5.084495562885946" fill="#ff3204" stroke="none" /><path d="M 112.77801427241765 83.33499621200491 l 9.340896217756205 -12.182336592642075 a36.35127574527011,36.35127574527011 0 0,0 0.4932823888487904,0.38501472881208204 l -9.549211161764426 12.01974347460677" fill="#ffb010" stroke="none" /><path d="M 113.06298171725822 83.55741782278167 l 18.258516831974497 -22.98228459182725 a50.35232259912725,50.35232259912725 0 0,0 0.6739936550951923,0.5449893293033903 l -18.65141388563418 22.664589165259727" fill="#a0ff22" stroke="none" /><path d="M 113.34407831869373 83.78471172551755 l 5.6102515600285185 -6.817394515047532 a29.829031121284068,29.829031121284068 0 0,0 0.39366148357503844,0.329680171395894 l -5.7267705805626745 6.719813186257818" fill="#ff5607" stroke="none" /><path d="M 113.6212207817346 84.01681056812373 l 3.911109284574548 -4.5893096944695735 a27.0298042511874,27.0298042511874 0 0,0 0.35152415058873027,0.304838279414046 l -3.9895272338100423 4.521306421635857" fill="#ff2d04" stroke="none" /><path d="M 113.89432698308785 84.25364557470407 l 9.71556868442456 -11.010593613815782 a35.68419036209937,35.68419036209937 0 0,0 0.4570788154256096,0.4103698735100991 l -9.90365848744616 10.841724731536386" fill="#ffa70f" stroke="none" /><path d="M 114.42810811169701 84.74124197986012 l 16.145423565981805 -17.07494214894706 a44.49953938941888,44.49953938941888 0 0,0 0.5520416982129922,0.5310636762988342 l -16.436948507807212 16.794495385885924" fill="#e5ff1a" stroke="none" /><path d="M 114.68862486808459 84.99185889309783 l 21.430774436315986 -21.89695016783174 a51.639101155105074,51.639101155105074 0 0,0 0.6299090013083896,0.62720397187235 l -21.804519237791695 21.52481034530927" fill="#92ff23" stroke="none" /><path d="M 115.19652480421416 85.50635884689758 l 4.479077134069511 -4.2719067362208625 a27.18961381153247,27.18961381153247 0 0,0 0.3201029065340029,0.3414634621607597 l -4.551947362573977 4.194173857182047" fill="#ff3004" stroke="none" /><path d="M 115.4437574822437 85.77008943001954 l 17.722250032403178 -16.329318389639244 a45.09823199492496,45.09823199492496 0 0,0 0.5211129900258052,0.5754259791481613 l -18.00070666304502 16.021839623221535" fill="#deff1b" stroke="none" /><path d="M 115.68641384162765 86.03803664274999 l 9.177284333644348 -8.168400303540102 a33.28598027262896,33.28598027262896 0 0,0 0.3772540063653775,0.43126654422466204 l -9.316530203587574 8.009218203112491" fill="#ff860c" stroke="none" /><path d="M 116.15771136456269 86.58626213691792 l 11.636932403351853 -9.660697438333777 a36.12439323593542,36.12439323593542 0 0,0 0.39307039653504855,0.48185782898512164 l -11.80150129196331 9.458955439740555" fill="#ffad10" stroke="none" /><path d="M 116.38621287248628 86.86637796730983 l 11.451972911928806 -9.178806898476356 a35.676449831449986,35.676449831449986 0 0,0 0.37994725827133086,0.4824944337564113 l -11.608274250794102 8.980320070766908" fill="#ffa70f" stroke="none" /><path d="M 116.60985879189232 87.15038557335679 l 12.107534739180238 -9.366554827762608 a36.30766954183227,36.30766954183227 0 0,0 0.37816004205670734,0.4976142879247536 l -12.266970721461059 9.156755763956822" fill="#ffb010" stroke="none" /><path d="M 116.82858285166822 87.43820079747576 l 11.805920842655244 -8.812602245448716 a35.732336042852445,35.732336042852445 0 0,0 0.3636826740278318,0.4960627586591529 l -11.955866129196702 8.608077043118069" fill="#ffa80f" stroke="none" /><path d="M 117.04232023915458 87.72973835380427 l 11.90271366470942 -8.56980792029636 a35.66684016326743,35.66684016326743 0 0,0 0.3544390206450443,0.5013288587189622 l -12.048465305158347 8.363652561245605" fill="#ffa70f" stroke="none" /><path d="M 117.2510076193507 88.02491185347247 l 18.188877946954737 -12.62612720991957 a43.14168849230536,43.14168849230536 0 0,0 0.4182186803225772,0.6136843078987532 l -18.403521092946047 12.31116487875041" fill="#f6ff19" stroke="none" /><path d="M 117.45458315368197 88.32363383020206 l 6.084731302247617 -4.070423802409023 a28.320676536480075,28.320676536480075 0 0,0 0.2675675006560722,0.4075236602502672 l -6.153895438261614 3.965082078181082" fill="#ff4006" stroke="none" /><path d="M 117.65298651832404 88.62581576622439 l 12.333359580627585 -7.946638601114046 a35.671769613845974,35.671769613845974 0 0,0 0.32813340392700496,0.5190282436051209 l -12.468320580800546 7.733162709794719" fill="#ffa70f" stroke="none" /><line stroke="#e1ed5e" stroke-width="0.3" x1="172.23445277983987" x2="176.4835382374775" y1="55.19839476539836" y2="52.563006222186495" /><path d="M 173.08426987136738 54.67131705675599 a86.0,86.0 0 0,1 12.851231095245387,41.99856678651699" fill="none" id="id15" stroke="none" /><text fill="#e1ed5e" style="font-size:6.75px; font-family:Arial;" text-anchor="middle"><textPath startOffset="22.20632615414155" xlink:href="#id15">March</textPath></text><path d="M 118.03404312379186 89.2402003453031 l 18.34779891282811 -10.946998354808557 a42.365357425649535,42.365357425649535 0 0,0 0.3682564826504287,0.6294697009423064 l -18.53351506994887 10.629549241512354" fill="#fffe18" stroke="none" /><path d="M 118.21658344932153 89.55222093294921 l 7.766167128349304 -4.45413919577811 a29.95280446792066,29.95280446792066 0 0,0 0.25266240158828657,0.4494582195971705 l -7.841687171230023 4.319797466246145" fill="#ff5808" stroke="none" /><path d="M 118.3937258080291 89.86733742301442 l 12.883619862217307 -7.097277310560582 a35.709147017319474,35.709147017319474 0 0,0 0.291951015556708,0.5409408921517302 l -13.00387897699248 6.874455435076392" fill="#ffa70f" stroke="none" /><path d="M 118.56541770881063 90.18545643968196 l 12.958844279100184 -6.8506479985230015 a35.65820667918265,35.65820667918265 0 0,0 0.2821932181193852,0.545107477109333 l -13.074846930379685 6.626567799153324" fill="#ffa70f" stroke="none" /><path d="M 118.73160827565052 90.50648371742162 l 31.391133380685275 -15.909591503977586 a56.19258951466074,56.19258951466074 0 0,0 0.42984651674997887,0.8665443481779681 l -31.66033991038866 15.366887567300667" fill="#60ff29" stroke="none" /><path d="M 118.89224826269711 90.83032412892265 l 5.390342914985664 -2.616295142699988 a26.991727381552977,26.991727381552977 0 0,0 0.19927838878889992,0.4197311091147154 l -5.43457949761632 2.5231216179447324" fill="#ff2d04" stroke="none" /><path d="M 119.04729006885535 91.15688171328212 l 10.653701021416781 -4.946212189930564 a32.745908244216565,32.745908244216565 0 0,0 0.2329601343150852,0.513296775927302 l -10.737263472695213 4.762093405161199" fill="#ff7f0b" stroke="none" /><path d="M 119.34039704204932 91.81776055985345 l 17.283119334237 -7.3118778460387235 a39.76618692107879,39.76618692107879 0 0,0 0.26127959001612433,0.6327092517352234 l -17.40642061113932 7.013294023850197" fill="#ffdd14" stroke="none" /><path d="M 119.47837535516314 92.15188598940014 l 13.601590979785687 -5.4802741393218515 a35.664129085066975,35.664129085066975 0 0,0 0.22452513823321446,0.5713919866759991 l -13.6939096679006 5.245333147750069" fill="#ffa70f" stroke="none" /><path d="M 119.61058180528143 92.48833698450437 l 13.699421640191956 -5.247444460857171 a35.67003158297692,35.67003158297692 0 0,0 0.2146918247662091,0.5752673523136775 l -13.78771805345979 5.010853971514161" fill="#ffa70f" stroke="none" /><path d="M 119.85752413597 93.16781622104841 l 40.315972388837885 -13.871121631358559 a63.63549747533717,63.63549747533717 0 0,0 0.34745801679532634,1.0388552449268935 l -40.54876769940498 13.175093283509351" fill="#33ff51" stroke="none" /><path d="M 120.08093135843002 93.85539295169968 l 8.923587617103188 -2.7305476219935936 a30.33200440827651,30.33200440827651 0 0,0 0.14847386580727026,0.5005800651896832 l -8.96926738002216 2.5765381700573804" fill="#ff5d08" stroke="none" /><path d="M 120.18372546131832 94.20196356495316 l 20.70815290903811 -5.948685008584239 a42.54563645463875,42.54563645463875 0 0,0 0.1961419268325261,0.7056268698093932 l -20.807481606436998 5.591346835355894" fill="#feff18" stroke="none" /><path d="M 120.28053869075195 94.5502522615342 l 11.32375321139943 -3.0428974001025777 a32.72546849299549,32.72546849299549 0 0,0 0.14150440859175373,0.5452742095851236 l -11.374453951861485 2.8475267649686034" fill="#ff7f0b" stroke="none" /><path d="M 120.37134235888165 94.90015583598534 l 20.672588730884996 -5.175259398078595 a42.310542805703335,42.310542805703335 0 0,0 0.17078791586115258,0.708026171353858 l -20.758609447006968 4.818647995065331" fill="#fffd18" stroke="none" /><path d="M 120.53481517161879 95.60439243477599 l 48.880220056652554 -10.463121448874434 a70.98752667656878,70.98752667656878 0 0,0 0.24548400802406498,1.197067204996296 l -49.053083360591614 9.620178587714726" fill="#3cffa7" stroke="none" /><path d="M 120.6074358757038 95.95851677861258 l 7.327529386679961 -1.4370583147321812 a28.467116144308946,28.467116144308946 0 0,0 0.09016522012917463,0.48166621130916054 l -7.351180330718995 1.3107140259604577" fill="#ff4206" stroke="none" /><path d="M 120.73433829027371 96.67025291283417 l 20.94664587963187 -3.3638417646690004 a42.21502781106898,42.21502781106898 0 0,0 0.10904364128793069,0.7184613528604281 l -21.0014454143591 3.0027812994164904" fill="#fffc17" stroke="none" /><path d="M 120.78858239683441 97.02765380044208 l 6.799966255801772 -0.9722574378439682 a27.869121166895056,27.869121166895056 0 0,0 0.06381232611648853,0.47547594937504367 l -6.815694580976097 0.8550631464042602" fill="#ff3a05" stroke="none" /><path d="M 120.83666639777658 97.38593545837742 l 6.462679255649592 -0.8107755993000916 a27.513338639578322,27.513338639578322 0 0,0 0.05490830047987832,0.47042078657758923 l -6.475677909133059 0.6994110743976496" fill="#ff3405" stroke="none" /><path d="M 120.87857604477298 97.74499172005257 l 29.229642323370683 -3.1569722627518093 a50.39963374295617,50.39963374295617 0 0,0 0.08573427532673,0.8633324524226552 l -29.27965372437964 2.653364279624719" fill="#a0ff22" stroke="none" /><path d="M 120.94382443527127 98.46500227214037 l 7.10105367468837 -0.5204446441834762 a28.1201001340195,28.1201001340195 0 0,0 0.03122591028676147,0.4830510112211687 l -7.108960175979548 0.3981345687092723" fill="#ff3d05" stroke="none" /><path d="M 120.98425023603335 99.18683210126433 l 47.413554492668425 -1.8373389587294764 a68.44914081496633,68.44914081496633 0 0,0 0.03549024568771093,1.1777484742646316 l -47.43815643281178 1.0209203370398456" fill="#39ff8a" stroke="none" /><line stroke="#e1ed5e" stroke-width="0.3" x1="184.98032266829074" x2="189.97916517819016" y1="98.17113171792111" y2="98.06355123074" /><path d="M 185.9800911702706 98.14961562048488 a86.0,86.0 0 0,1 -9.607161424134198,41.387399972396054" fill="none" id="id16" stroke="none" /><text fill="#e1ed5e" style="font-size:6.75px; font-family:Arial;" text-anchor="middle"><textPath startOffset="21.466115282336823" xlink:href="#id16">April</textPath></text><path d="M 120.99980553446 99.90962569577887 l 7.538162351507018 -0.032441070775891014 a28.538232157525457,28.538232157525457 0 0,0 -0.0021141431009645056,0.4912524016080125 l -7.53760391111655 -0.09732080903580617" fill="#ff4306" stroke="none" /><path d="M 120.99824983174949 100.27111621757518 l 6.878775823002353 0.08881443442301634 a27.879349157215643,27.879349157215643 0 0,0 -0.0103258966727435,0.47980384355052436 l -6.876227863644601 -0.20720809376365557" fill="#ff3a05" stroke="none" /><path d="M 120.9904718944345 100.63252640178507 l 7.179939496121033 0.21636013317642946 a28.18319865207603,28.18319865207603 0 0,0 -0.018785936693329022,0.4847815526216216 l -7.175151426576502 -0.33991893281205726" fill="#ff3e05" stroke="none" /><path d="M 120.95626037817324 101.35467743843564 l 7.434630188037354 0.48059747288388427 a28.450147647115372,28.450147647115372 0 0,0 -0.035797657492594503,0.48843059511515696 l -7.425255971880421 -0.6085012044958115" fill="#ff4206" stroke="none" /><path d="M 120.92983693683757 101.71520430193887 l 29.324378621786916 2.403138663505179 a50.422682695327886,50.422682695327886 0 0,0 -0.07833620855847616,0.8644335337918079 l -29.278667816951366 -2.9075535858455575" fill="#9fff22" stroke="none" /><path d="M 120.8583938346157 102.4346265915055 l 61.222035775154794 7.14593834338921 a82.63766786034213,82.63766786034213 0 0,0 -0.17707477776550673,1.411460204219042 l -61.08995948814244 -8.198716301895647" fill="#4bdfff" stroke="none" /><path d="M 120.5718875245553 104.21870165774334 l 5.765740257186962 1.1823872725377418 a26.88572853397144,26.88572853397144 0 0,0 -0.09687307114841041,0.4525587376993946 l -5.744533147314108 -1.2814598296533053" fill="#ff2b04" stroke="none" /><path d="M 120.49622156327973 104.57218783832717 l 14.312664303094863 3.1927928500690053 a35.66445654078383,35.66445654078383 0 0,0 -0.13881869019228876,0.5980272841257127 l -14.255585046972021 -3.438688791543283" fill="#ffa70f" stroke="none" /><path d="M 120.41448212921028 104.9243191809786 l 3.8128588853860417 0.9197262034291681 a24.922217379128995,24.922217379128995 0 0,0 -0.10418517659840607,0.4161679912069968 l -3.7964623944925746 -0.9852220340335609" fill="#ff0e01" stroke="none" /><path d="M 119.9155931802556 106.66101706037122 l 59.746779540766816 19.98305118111367 a84.0,84.0 0 0,0 -0.47043667622707686,1.3673091876427985 l -59.393952033596506 -21.00853307184577" fill="#4dd2ff" stroke="none" /><path d="M 119.41010516605496 108.01547362559984 l 5.5488475837566105 2.2914168202373637 a27.003357439952104,27.003357439952104 0 0,0 -0.18111411428241042,0.4281002659191518 l -5.508582488281891 -2.386591611822679" fill="#ff2d04" stroke="none" /><path d="M 119.26925614724726 108.34839909993367 l 8.092226311636544 3.5059544769286304 a29.819061371429427,29.819061371429427 0 0,0 -0.20810710899658566,0.46922659211502343 l -8.030678117908685 -3.6447294055363417" fill="#ff5607" stroke="none" /><path d="M 119.12269723197855 108.67885076344098 l 13.372732568788678 6.069224903578913 a35.68555301262312,35.68555301262312 0 0,0 -0.25867842764900306,0.5571703200426948 l -13.266279524299843 -6.298515290900439" fill="#ffa70f" stroke="none" /><path d="M 118.64920377521936 109.65438752849418 l 13.834812853161242 7.162056154166286 a36.57873855732314,36.57873855732314 0 0,0 -0.29428029197891137,0.556667410000493 l -13.709480052957439 -7.399138579252913" fill="#ffb310" stroke="none" /><line stroke="#e1ed5e" stroke-width="0.3" x1="174.80103733775053" x2="179.2010983576182" y1="140.37084112569926" y2="142.7455964860345" /><path d="M 175.68104954172406 140.8457921977663 a86.0,86.0 0 0,1 -30.038265399797805,32.042727171017184" fill="none" id="id17" stroke="none" /><text fill="#e1ed5e" style="font-size:6.75px; font-family:Arial;" text-anchor="middle"><textPath startOffset="22.206326154141568" xlink:href="#id17">May</textPath></text><path d="M 118.48025628344425 109.97397251340804 l 15.618458495918157 8.429432652384138 a38.748002158828974,38.748002158828974 0 0,0 -0.3218364601487433,0.5842266588890833 l -15.471045626317903 -8.697029829671028" fill="#ffd013" stroke="none" /><path d="M 118.30583269289576 110.29060199501025 l 5.116276711263164 2.8761088454818955 a26.869266519529763,26.869266519529763 0 0,0 -0.23011352135176802,0.40122232080324555 l -5.066011193759016 -2.9637510121434563" fill="#ff2b04" stroke="none" /><path d="M 117.94076556474637 110.91462005526583 l 42.63590003566474 25.93839420754697 a70.90611451432883,70.90611451432883 0 0,0 -0.6433391466063014,1.0372675479731355 l -42.18309624939048 -26.66845808688538" fill="#3cffa6" stroke="none" /><path d="M 117.75023020441432 111.22182372390056 l 6.123940234945502 3.871599242423912 a28.245131102686948,28.245131102686948 0 0,0 -0.2633456811039865,0.4087183452139675 l -6.056389690464466 -3.976439187559332" fill="#ff3f05" stroke="none" /><path d="M 117.55443506779139 111.5257021239791 l 7.399090917825007 4.8580155144701935 a29.851376229099834,29.851376229099834 0 0,0 -0.28571590101263267,0.42710650557136953 l -7.314371911401654 -4.98465893424737" fill="#ff5608" stroke="none" /><path d="M 117.35343817320211 111.8261652097733 l 8.013337566765143 5.460995855714087 a30.69721891549613,30.69721891549613 0 0,0 -0.30132842189931835,0.43408606588164184 l -7.918148237703689 -5.598123183782748" fill="#ff6209" stroke="none" /><path d="M 116.93607887273984 112.41649034213515 l 11.869057458777029 8.701662197875137 a35.71711418606514,35.71711418606514 0 0,0 -0.36778207280483255,0.49270418860943843 l -11.717514119277103 -8.90467926599389" fill="#ffa80f" stroke="none" /><path d="M 116.498646956653 112.99209946851258 l 14.612956172168463 11.507184838649456 a39.59983309066402,39.59983309066402 0 0,0 -0.4263244260674575,0.5319052718963473 l -14.412713834046151 -11.757017944124055" fill="#ffdb14" stroke="none" /><path d="M 116.0416608686014 113.55231037782055 l 11.735494113452658 9.914376071488583 a36.36283421032029,36.36283421032029 0 0,0 -0.40805591689990056,0.47466121887816315 l -11.563095686981978 -10.114914389528273" fill="#ffb010" stroke="none" /><path d="M 115.80600337817218 113.82643327865902 l 22.071008533935824 19.306798789414596 a50.3237428920663,50.3237428920663 0 0,0 -0.5759460122228797,0.6470814502941605 l -21.735403672064606 -19.683854409449623" fill="#a0ff22" stroke="none" /><path d="M 115.56566222782051 114.09645910891815 l 4.488820749699203 4.065132418992369 a27.055973357510158,27.055973357510158 0 0,0 -0.31559323138543616,0.3425141222486949 l -4.418181110318044 -4.141797796042399" fill="#ff2e04" stroke="none" /><path d="M 114.81725581225074 114.88116024355365 l 17.194289722277905 17.268445916939218 a45.3688904843837,45.3688904843837 0 0,0 -0.5581454770141859,0.5462628233092153 l -16.894494292887927 -17.561858843171006" fill="#dbff1b" stroke="none" /><path d="M 114.29624159901734 115.38237550388516 l 3.996618462025087 4.300255105709431 a26.87070294812979,26.87070294812979 0 0,0 -0.34151441538085275,0.3119653212217749 l -3.92200449717737 -4.368413193517789" fill="#ff2b04" stroke="none" /><path d="M 114.0293411484842 115.62618273729858 l 3.9223511570159615 4.368799310722309 a26.871221850374262,26.871221850374262 0 0,0 -0.34684048425178743,0.3060464009005876 l -3.8465683198575866 -4.435668853395185" fill="#ff2b04" stroke="none" /><path d="M 113.75828350139079 115.86535959552629 l 9.608610835144816 11.080166075777727 a35.666133861658224,35.666133861658224 0 0,0 -0.46728498773174154,0.3982304040763008 l -9.416460370836027 -11.243920870076975" fill="#ffa70f" stroke="none" /><path d="M 113.48314897796784 116.09983520530334 l 5.646685433512974 6.742542493915814 a29.794710664217902,29.794710664217902 0 0,0 -0.3960282741786316,0.3259043081813778 l -5.5297870307896515 -6.83874192095437" fill="#ff5507" stroke="none" /><path d="M 113.20401910651253 116.32954008644616 l 9.261299566726196 11.453540115891713 a35.729400899255324,35.729400899255324 0 0,0 -0.4815685340110551,0.3825871683408227 l -9.06277353999779 -11.61126119823766" fill="#ffa80f" stroke="none" /><path d="M 112.34349029814194 116.9893568818739 l 12.308687211214032 16.941454542249737 a41.94078945194326,41.94078945194326 0 0,0 -0.5877156278166981,0.41931949562947285 l -12.015244255548449 -17.15081829972343" fill="#fff917" stroke="none" /><path d="M 112.04921762599082 117.19931262002967 l 3.4109281326276943 4.868832242765107 a26.944742057830613,26.944742057830613 0 0,0 -0.38215742464462343,0.2628513613680156 l -3.326613823360187 -4.926824393498216" fill="#ff2c04" stroke="none" /><path d="M 111.45004920935366 117.60387380957326 l 12.791441835670332 19.666197393604698 a44.46018550991363,44.46018550991363 0 0,0 -0.6451346480590502,0.41175545588071283 l -12.451025385564352 -19.883467278309222" fill="#e6ff1a" stroke="none" /><line stroke="#e1ed5e" stroke-width="0.3" x1="143.8653032363475" x2="146.44561519142675" y1="172.8068346515853" y2="177.08958963109032" /><path d="M 144.38136562736335 173.6633856474863 a86.0,86.0 0 0,1 -40.68145358897372,12.25698825130547" fill="none" id="id18" stroke="none" /><text fill="#e1ed5e" style="font-size:6.75px; font-family:Arial;" text-anchor="middle"><textPath startOffset="21.466115282336833" xlink:href="#id18">June</textPath></text><path d="M 110.8373102113329 117.98757091392108 l 1.784554030470099 2.9619704102625795 a24.458019924601093,24.458019924601093 0 0,0 -0.36248198150304034,0.21416074393350332 l -1.7333041779386766 -2.992249726489832" fill="#ff0701" stroke="none" /><path d="M 110.5260780823613 118.17145234162733 l 3.147913104602642 5.434327249740389 a27.28022846490476,27.28022846490476 0 0,0 -0.4083606407911531,0.2318778293992744 l -3.05390369689029 -5.487708244934292" fill="#ff3104" stroke="none" /><path d="M 110.21172684928248 118.3499491758327 l 14.250604212493887 25.607604559315437 a50.30578665873723,50.30578665873723 0 0,0 -0.7602813864993175,0.41456603104157613 l -13.80770001412592 -25.84911124211678" fill="#a1ff22" stroke="none" /><path d="M 109.89434966115114 118.52300852407294 l 8.366375806182823 15.662520092855925 a38.75699241959057,38.75699241959057 0 0,0 -0.591153202986024,0.3092634161764761 l -8.095531700670303 -15.804212927977117" fill="#ffd013" stroke="none" /><path d="M 109.57404056367764 118.69057910512821 l 2.8333157182925506 5.531239523201706 a27.21468330830721,27.21468330830721 0 0,0 -0.4187770745109847,0.2099835188292664 l -2.7376847360988057 -5.579190882940274" fill="#ff3004" stroke="none" /><path d="M 109.2508944713604 118.85261126421891 l 12.111806725294674 24.68293034865353 a48.49441602848431,48.49441602848431 0 0,0 -0.752557897924262,0.36127352387178857 l -11.68513615937018 -24.88775814902488" fill="#b6ff1f" stroke="none" /><path d="M 108.59647513512805 119.15986991738527 l 2.805961973151664 6.253943105009027 a27.854577080714982,27.854577080714982 0 0,0 -0.4391464089322243,0.1925088803525532 l -2.697894889561686 -6.301316538656034" fill="#ff3905" stroke="none" /><path d="M 108.2653958097858 119.30500536409082 l 4.603658296194961 10.75249753886718 a32.6965752693457,32.6965752693457 0 0,0 -0.519297191857918,0.21706626831285902 l -4.417889644839582 -10.830148850200011" fill="#ff7e0b" stroke="none" /><path d="M 107.59598834532513 119.57807347666477 l 10.177387237502963 26.231429812413012 a49.13657976701572,49.13657976701572 0 0,0 -0.7911686128198178,0.2991522717613369 l -9.72434840392287 -26.402730334280978" fill="#aeff20" stroke="none" /><path d="M 106.91757812671514 119.82793768551818 l 3.9113761939364013 11.21122479823984 a32.873938908684025,32.873938908684025 0 0,0 -0.5358925850483375,0.1818038606546733 l -3.717813875950837 -11.276891645792638" fill="#ff810b" stroke="none" /><path d="M 104.13013068566511 120.58985236759428 l 2.3408416708133477 11.669748026435132 a32.90220814505875,32.90220814505875 0 0,0 -0.5562547354094527,0.10660754393864995 l -2.1396193208321908 -11.70831276872225" fill="#ff810b" stroke="none" /><path d="M 103.7750983002368 120.6578951692458 l 7.560594200066798 41.372687538332514 a63.0578394452518,63.0578394452518 0 0,0 -1.0694340178655604,0.1859348120878171 l -6.847311210729187 -41.49670092894134" fill="#32ff4a" stroke="none" /><path d="M 103.06178313531738 120.77559828337769 l 0.8684642548164744 5.8929269919274505 a26.95657776698005,26.95657776698005 0 0,0 -0.45963713227639574,0.06370151831042067 l -0.7668985313532481 -5.907003075730474" fill="#ff2c04" stroke="none" /><path d="M 101.26447882468166 120.96189622390904 l 0.88257990427557 14.630967321567956 a35.65756296429323,35.65756296429323 0 0,0 -0.612990746733689,0.03168461977631736 l -0.6306010891284013 -14.643991748106474" fill="#ffa70f" stroke="none" /><path d="M 100.90346689309514 120.98055641714683 l 0.8384300020000334 19.47025186338265 a40.4882957821306,40.4882957821306 0 0,0 -0.6965522505457524,0.023990667895285134 l -0.5031573997796286 -19.481799329704028" fill="#ffe615" stroke="none" /><line stroke="#e1ed5e" stroke-width="0.3" x1="102.19456741930631" x2="102.32365962044197" y1="184.97166512339345" y2="189.96999836594603" /><path d="M 102.22038585953345 185.97133177190398 a86.0,86.0 0 0,1 -42.740103519485714,-10.115201625700543" fill="none" id="id19" stroke="none" /><text fill="#e1ed5e" style="font-size:6.75px; font-family:Arial;" text-anchor="middle"><textPath startOffset="22.20632615414155" xlink:href="#id19">July</textPath></text><path d="M 99.81925306533755 120.99922214144158 l -0.129146060332748 15.004220208127418 a36.00477599829063,36.00477599829063 0 0,0 -0.6196941620079616,-0.010668596986101448 l 0.38739991223337744 -14.999774133862157" fill="#ffab0f" stroke="none" /><path d="M 98.37488393609728 120.93702456842531 l -0.5673776985224163 7.309755332189953 a28.331741980543235,28.331741980543235 0 0,0 -0.4858970410749121,-0.041925241252064885 l 0.69311905733887 -7.298905838659224" fill="#ff4006" stroke="none" /><path d="M 98.01472825383883 120.90594882070398 l -0.8326777166419624 8.768531442568687 a29.807979100741996,29.807979100741996 0 0,0 -0.5103798878899305,-0.05290296219724473 l 0.9834902011374862 -8.752899111915681" fill="#ff5607" stroke="none" /><path d="M 93.76903079525671 120.05430185196036 l -3.5530905581314824 11.435580600507024 a32.974846812589114,32.974846812589114 0 0,0 -0.5405969479271653,-0.17308207123733077 l 3.749408851149588 -11.372725682609985" fill="#ff820c" stroke="none" /><path d="M 92.40401165467489 119.57807347666478 l -6.50294041028097 16.760826817909532 a38.978140882739254,38.978140882739254 0 0,0 -0.6234255246468248,-0.24807388229347652 l 6.7904870109696525 -16.64640609120999" fill="#ffd313" stroke="none" /><line stroke="#e1ed5e" stroke-width="0.3" x1="58.666819895761336" x2="56.23545636021788" y1="174.27360380694188" y2="178.64263932499728" /><path d="M 58.180547188652646 175.14741091055294 a86.0,86.0 0 0,1 -31.652253787137756,-30.449443065178592" fill="none" id="id20" stroke="none" /><text fill="#e1ed5e" style="font-size:6.75px; font-family:Arial;" text-anchor="middle"><textPath startOffset="22.20632615414155" xlink:href="#id20">August</textPath></text><path d="M 88.54995079064634 117.60387380957326 l -3.9947193818287254 6.14167979688001 a28.326528077265667,28.326528077265667 0 0,0 -0.4064523622158575,-0.2693744625067755 l 4.0998464427845445 -6.072007313281916" fill="#ff4006" stroke="none" /><path d="M 85.97065885151581 115.62618273729859 l -7.85513947967767 8.74922376163573 a32.75806670657902,32.75806670657902 0 0,0 -0.41634013155146526,-0.3803168388430203 l 8.00457916069599 -8.612714156206135" fill="#ff7f0b" stroke="none" /><path d="M 83.06392112726016 112.41649034213515 l -9.449392776051845 6.927713021680591 a32.716835389594905,32.716835389594905 0 0,0 -0.3290693697049195,-0.4570485732997174 l 9.567241938132371 -6.764030842929736" fill="#ff7f0b" stroke="none" /><line stroke="#e1ed5e" stroke-width="0.3" x1="26.63291911575756" x2="22.317208475507996" y1="142.92168965132927" y2="145.44649492493687" /><path d="M 25.769776987707644 143.4266507060508 a86.0,86.0 0 0,1 -11.730757126820373,-40.83630448921669" fill="none" id="id21" stroke="none" /><text fill="#e1ed5e" style="font-size:6.75px; font-family:Arial;" text-anchor="middle"><textPath startOffset="21.46611528233685" xlink:href="#id21">September</textPath></text><path d="M 80.32549172779594 107.34259656027581 l -8.255986192995294 3.081163451897585 a29.812200419659007,29.812200419659007 0 0,0 -0.17528968942275025,-0.4823219413654432 l 8.30780014342327 -2.9385937135260245" fill="#ff5607" stroke="none" /><path d="M 79.97269907076064 106.31721596034903 l -11.308015966874846 3.566889976748183 a32.857231093865174,32.857231093865174 0 0,0 -0.16549597044333564,-0.5408504069415888 l 11.367738709824312 -3.3717125972545463" fill="#ff810b" stroke="none" /><path d="M 79.58551787078972 104.9243191809786 l -14.236960798103024 3.4341963069749046 a35.64529812061067,35.64529812061067 0 0,0 -0.13874411883882676,-0.5977060326867132 l 14.293965482872405 -3.188621616939617" fill="#ffa70f" stroke="none" /><line stroke="#e1ed5e" stroke-width="0.3" x1="15.007084014347285" x2="10.007500721073583" y1="101.09737516637583" y2="101.16192664675087" /><path d="M 14.007167355692545 101.11028546245083 a86.0,86.0 0 0,1 10.666146001902534,-42.60595125391555" fill="none" id="id22" stroke="none" /><text fill="#e1ed5e" style="font-size:6.75px; font-family:Arial;" text-anchor="middle"><textPath startOffset="22.20632615414155" xlink:href="#id22">October</textPath></text><path d="M 80.65960295795068 91.81776055985345 l -10.894845882971623 -4.6092247994782 a32.8297345729238,32.8297345729238 0 0,0 0.22466370721562293,-0.5185548114682723 l 10.813891465913319 4.796078755533072" fill="#ff800b" stroke="none" /><path d="M 81.43458229118936 90.18545643968196 l -20.81310116564059 -11.002773609480618 a44.54243418240078,44.54243418240078 0 0,0 0.3641702471529764,-0.6747521600992091 l 20.62062281926914 11.3594067529123" fill="#e5ff1a" stroke="none" /><path d="M 81.6062741919709 89.86733742301443 l -12.946305889773308 -7.13180954030813 a35.78071525707769,35.78071525707769 0 0,0 0.3018228712801264,-0.5369092097063439 l 12.821625377200752 7.353602259949259" fill="#ffa80f" stroke="none" /><line stroke="#e1ed5e" stroke-width="0.3" x1="26.266209847984243" x2="21.928928074336255" y1="57.711370442889674" y2="55.22380399835377" /><path d="M 25.398753493254645 57.213857153982495 a86.0,86.0 0 0,1 29.58750427330803,-30.492523968695096" fill="none" id="id23" stroke="none" /><text fill="#e1ed5e" style="font-size:6.75px; font-family:Arial;" text-anchor="middle"><textPath startOffset="21.46611528233685" xlink:href="#id23">November</textPath></text><path d="M 82.34701348167596 88.62581576622439 l -24.808311677944857 -15.98450818851364 a50.511977743599545,50.511977743599545 0 0,0 0.4772260161455237,-0.7268479631846622 l 24.529489026441414 16.40917421567597" fill="#9eff22" stroke="none" /><path d="M 82.54541684631803 88.32363383020206 l -2.51287355148346 -1.6810044368966823 a24.02329446177699,24.02329446177699 0 0,0 0.23288357173587815,-0.34172790519899504 l 2.4835655140788417 1.7240103653660932" fill="#ff0100" stroke="none" /><path d="M 83.17141714833178 87.43820079747576 l -7.119885818378292 -5.314682572127693 a29.884741127867606,29.884741127867606 0 0,0 0.31126247165898796,-0.4095849269264151 l 7.0273474064951955 5.436452274935135" fill="#ff5708" stroke="none" /><path d="M 83.84228863543731 86.58626213691792 l -4.560606712306632 -3.786104452247062 a26.927370454734657,26.927370454734657 0 0,0 0.2991366539899993,-0.35408344576649237 l 4.4947594448295085 3.86404684764267" fill="#ff2c04" stroke="none" /><path d="M 84.31358615837235 86.03803664274999 l -26.93140322463897 -23.970760224614736 a57.05409581994903,57.05409581994903 0 0,0 0.6592637704577219,-0.7279755214195723 l 26.514795813565204 24.430788533303865" fill="#57ff2a" stroke="none" /><path d="M 84.80347519578584 85.50635884689758 l -2.161804751044395 -2.061814968118273 a23.98738694252932,23.98738694252932 0 0,0 0.287546786372182,-0.2963422394326454 l 2.1259937009690946 2.098721403101042" fill="#ff0000" stroke="none" /><path d="M 85.57189188830299 84.74124197986013 l -10.09085398502721 -10.67180104155624 a35.68716009369069,35.68716009369069 0 0,0 0.4499846972647676,-0.418211735003673 l 9.905661403967587 10.84391736263456" fill="#ffa70f" stroke="none" /><path d="M 87.80319425747018 82.90503203632743 l -8.537345842305156 -11.96589145960508 a35.69927999781537,35.69927999781537 0 0,0 0.5033069117446203,-0.3525986559029006 l 8.330107790976875 12.111074958271923" fill="#ffa70f" stroke="none" /><line stroke="#e1ed5e" stroke-width="0.3" x1="56.762969772571076" x2="54.21961505331055" y1="26.818313649435495" y2="22.513508569990535" /><path d="M 56.25429882871897 25.957352633546506 a86.0,86.0 0 0,1 42.265352541879196,-11.944610805530505" fill="none" id="id24" stroke="none" /><text fill="#e1ed5e" style="font-size:6.75px; font-family:Arial;" text-anchor="middle"><textPath startOffset="22.20632615414155" xlink:href="#id24">December</textPath></text><path d="M 89.63071344664047 81.73862282372117 l -3.5523057456814504 -6.255974770639768 a28.194171004478747,28.194171004478747 0 0,0 0.42408854518563066,-0.23600481624487943 l 3.4440931114237743 6.316194984444832" fill="#ff3e05" stroke="none" /><path d="M 90.26544431104013 81.39251694778311 l -6.831978261845244 -13.059242124894848 a35.738376160451125,35.738376160451125 0 0,0 0.5475451295348998,-0.2804738821159865 l 6.60617264472158 13.17490853232334" fill="#ffa80f" stroke="none" /><path d="M 90.58718382345135 81.22770947309562 l -6.576352906123232 -13.11543804167473 a35.6718483011134,35.6718483011134 0 0,0 0.5512637967884105,-0.2705027509716882 l 6.349617842324396 13.226695952781249" fill="#ffa70f" stroke="none" /><path d="M 97.83486435360386 79.11191278185805 l -0.8182015908270057 -7.893577577767147 a28.935869254181302,28.935869254181302 0 0,0 0.49587106049438257,-0.04708893217817023 l 0.6822054032423869 7.9064920544604975" fill="#ff4906" stroke="none" /><path d="M 99.27714615592234 79.0124445844662 l -0.2564502054154968 -7.445852216986351 a28.450267239841683,28.450267239841683 0 0,0 0.48957946676507097,-0.012644393226421831 l 0.12824410345554677 7.449163402355133" fill="#ff4206" stroke="none" /></svg>