<?xml version="1.0" encoding="utf-8" ?>
<svg baseProfile="full" height="200mm" version="1.1" viewBox="0,0,200,200" width="200mm" xmlns="http://www.w3.org/2000/svg" xmlns:ev="http://www.w3.org/2001/xml-events" xmlns:xlink="http://www.w3.org/1999/xlink"><defs /><rect fill="#1a1a1a" height="200" width="200" x="0" y="0" /><text alignment-baseline="middle" fill="#e1ed5e" style="dominant-baseline: central; font-size:9.0px; font-family:Arial;" text-anchor="middle" x="100.0" y="100.0">2018</text><line stroke="#e1ed5e" stroke-width="0.3" x1="100.0" x2="100.0" y1="15.0" y2="10.0" /><path d="M 100.0 14.0 a86.0,86.0 0 0,1 42.46469731375804,11.215312516191453" fill="none" id="id49" stroke="none" /><text fill="#e1ed5e" style="font-size:6.75px; font-family:Arial;" text-anchor="middle"><textPath startOffset="22.20632615414155" xlink:href="#id49">January</textPath></text><path d="M 100.36148047927253 79.00311137660856 l 0.26197843161137824 -15.217230986704966 a36.21948591777539,36.21948591777539 0 0,0 0.6232741665532664,0.0160973328841655 l -0.5238792333595124 15.21046686167844" fill="#ffba11" stroke="none" /><path d="M 101.44485096284872 79.0497635885617 l 0.2700944146359297 -3.916349841976224 a24.925652439730843,24.925652439730843 0 0,0 0.42778331789635676,0.03320421865633 l -0.33746792189462765 3.9111203611314296" fill="#ff1f03" stroke="none" /><path d="M 105.71112130821622 79.79150937346287 l 4.086083601272215 -14.45838351161678 a36.02467746627453,36.02467746627453 0 0,0 0.5952816897216994,0.17377904892849222 l -4.334355508717341 14.385906133769584" fill="#ffb811" stroke="none" /><path d="M 106.74666289553966 80.11325718540242 l 4.7409907313428965 -13.974740522894551 a35.757044615942256,35.757044615942256 0 0,0 0.5811677528063581,0.20275801742617697 l -4.980840488212528 13.891061652296168" fill="#ffb410" stroke="none" /><path d="M 109.41281617654863 81.2277094730956 l 4.322829020234663 -8.62116084537555 a30.64423480946101,30.64423480946101 0 0,0 0.46949815075293666,0.24049518822276358 l -4.470587658576355 8.545473131840287" fill="#ff700a" stroke="none" /><line stroke="#e1ed5e" stroke-width="0.3" x1="143.23703022742887" x2="145.7803849466894" y1="26.81831364943548" y2="22.513508569990506" /><path d="M 143.74570117128098 25.957352633546492 a86.0,86.0 0 0,1 28.547481713284135,27.462654790039103" fill="none" id="id50" stroke="none" /><text fill="#e1ed5e" style="font-size:6.75px; font-family:Arial;" text-anchor="middle"><textPath startOffset="19.985693538727396" xlink:href="#id50">February</textPath></text><path d="M 111.2981086023043 82.29822771554956 l 8.026821962415365 -12.576350568760049 a35.91960000953996,35.91960000953996 0 0,0 0.5183249154061854,0.3371329431257026 l -8.24211390360583 12.436318701474818" fill="#ffb710" stroke="none" /><path d="M 112.19680574252982 82.90503203632743 l 8.806746123053887 -12.343481237291318 a36.16312323801688,36.16312323801688 0 0,0 0.5036226079158657,0.3659032427158435 l -9.017914047323542 12.1900587597588" fill="#ffba11" stroke="none" /><path d="M 113.6212207817346 84.01681056812373 l 20.02705378247402 -23.49981690311413 a51.87594982645871,51.87594982645871 0 0,0 0.6746496951759615,0.5850495675480967 l -20.428597276296745 23.151602342146358" fill="#88ff25" stroke="none" /><path d="M 115.68641384162765 86.03803664274999 l 7.1784574399035055 -6.389309930835784 a30.610074537108584,30.610074537108584 0 0,0 0.34692603792001786,0.3965964335721667 l -7.287375341401372 6.26479794106067" fill="#ff6f0a" stroke="none" /><path d="M 116.82858285166822 87.43820079747576 l 11.591038863604304 -8.652202270188091 a35.46418978241897,35.46418978241897 0 0,0 0.36095348921024645,0.4923401536350861 l -11.738254965328176 8.451399672881513" fill="#ffb110" stroke="none" /><path d="M 117.04232023915458 87.72973835380427 l 11.966710809509742 -8.615885079995854 a35.74569914619624,35.74569914619624 0 0,0 0.355222681338013,0.5024372911937893 l -12.113246110651637 8.408621288470272" fill="#ffb410" stroke="none" /><line stroke="#e1ed5e" stroke-width="0.3" x1="172.23445277983987" x2="176.4835382374775" y1="55.19839476539836" y2="52.563006222186495" /><path d="M 173.08426987136738 54.67131705675599 a86.0,86.0 0 0,1 12.851231095245387,41.99856678651699" fill="none" id="id51" stroke="none" /><text fill="#e1ed5e" style="font-size:6.75px; font-family:Arial;" text-anchor="middle"><textPath startOffset="22.20632615414155" xlink:href="#id51">March</textPath></text><path d="M 118.21658344932153 89.55222093294921 l 12.565587376035321 -7.206756476469196 a35.485555737213154,35.485555737213154 0 0,0 0.2993330973018425,0.5324801796154213 l -12.6877781146296 6.989392786918981" fill="#ffb110" stroke="none" /><path d="M 118.73160827565052 90.50648371742162 l 13.190411931114847 -6.685138221939796 a35.78776656425632,35.78776656425632 0 0,0 0.27375935034802806,0.5518821452796329 l -13.303531294416283 6.457096488161214" fill="#ffb510" stroke="none" /><path d="M 119.196687751892 91.48605970444005 l 28.495030978933034 -12.637856885016841 a52.171817674568175,52.171817674568175 0 0,0 0.3570273754394893,0.824068407196479 l -28.708349064215202 12.145489333233758" fill="#85ff25" stroke="none" /><path d="M 119.61058180528143 92.48833698450437 l 16.525301795434082 -6.329873307646335 a38.69612656829258,38.69612656829258 0 0,0 0.23290537338059678,0.624070607393581 l -16.631811757316303 6.044479563223421" fill="#ffda14" stroke="none" /><path d="M 119.85752413597 93.16781622104841 l 13.955965249082002 -4.8016922321989375 a35.75890288355961,35.75890288355961 0 0,0 0.1952482179229238,0.5837673199272885 l -14.036550760776695 4.560751809349335" fill="#ffb410" stroke="none" /><path d="M 119.97218684219823 93.5106431181261 l 14.049903786098477 -4.565090470280678 a35.77294308526476,35.77294308526476 0 0,0 0.18524339952355284,0.5872721988134383 l -14.126402669390236 4.322568105040821" fill="#ffb510" stroke="none" /><path d="M 120.28053869075195 94.5502522615342 l 60.00694819560286 -16.12495285297058 a83.1357219018198,83.1357219018198 0 0,0 0.3594775476807454,1.3852136313344512 l -60.27562207515391 15.08964279608728" fill="#4cdaff" stroke="none" /><path d="M 120.53481517161879 95.60439243477599 l 6.840311401144291 -1.464212085284023 a27.995268193237223,27.995268193237223 0 0,0 0.09681124224958951,0.4720859990218781 l -6.8645019393088775 1.3462504300987332" fill="#ff4b07" stroke="none" /><path d="M 120.6074358757038 95.95851677861258 l 7.270093351864218 -1.425794090866051 a28.4085859740148,28.4085859740148 0 0,0 0.08997983480029141,0.48067587546938156 l -7.293558910574369 1.3004401379341066" fill="#ff5107" stroke="none" /><path d="M 120.73433829027371 96.67025291283417 l 14.542333535910512 -2.3353671602100965 a35.72865928870158,35.72865928870158 0 0,0 0.09228900960606078,0.608069263943943 l -14.580378438955872 2.0846987838740705" fill="#ffb410" stroke="none" /><path d="M 120.87857604477298 97.74499172005257 l 14.961149250304421 -1.6158915897625132 a36.048159107337675,36.048159107337675 0 0,0 0.06132113605611655,0.6174954716175778 l -14.986747512042767 1.3581205874405005" fill="#ffb811" stroke="none" /><path d="M 120.98425023603335 99.18683210126433 l 8.853782653029215 -0.3430959769753021 a29.86042787434657,29.86042787434657 0 0,0 0.015482355351478974,0.5137840000792426 l -8.858376702836338 0.19064182947106043" fill="#ff6509" stroke="none" /><line stroke="#e1ed5e" stroke-width="0.3" x1="184.98032266829074" x2="189.97916517819016" y1="98.17113171792111" y2="98.06355123074" /><path d="M 185.9800911702706 98.14961562048488 a86.0,86.0 0 0,1 -9.607161424134198,41.387399972396054" fill="none" id="id52" stroke="none" /><text fill="#e1ed5e" style="font-size:6.75px; font-family:Arial;" text-anchor="middle"><textPath startOffset="21.466115282336823" xlink:href="#id52">April</textPath></text><path d="M 120.99513854157772 99.54816195383933 l 14.95101327611125 -0.32176194567243177 a35.95447520751356,35.95447520751356 0 0,0 0.007990441899035165,0.6188685308561986 l -14.954336725128 0.06435715675577036" fill="#ffb711" stroke="none" /><path d="M 120.99980553446 99.90962569577887 l 15.15155570374636 -0.06520590404262444 a36.1516960124486,36.1516960124486 0 0,0 -0.0026781567369347334,0.6223093073981817 l -15.150433249719923 -0.195612881559242" fill="#ffba11" stroke="none" /><path d="M 120.9904718944345 100.63252640178507 l 16.1101225913472 0.4854620670878322 a37.11743538305076,37.11743538305076 0 0,0 -0.02474118711409497,0.6384601044212063 l -16.099379271381903 -0.7626994185230447" fill="#ffc612" stroke="none" /><path d="M 120.9764740272857 100.99374915477107 l 15.211637583835472 0.7206431343969915 a36.22869805692888,36.22869805692888 0 0,0 -0.03487210430116235,0.622664848051882 l -15.19697912864678 -0.9823796987842968" fill="#ffbb11" stroke="none" /><path d="M 120.92983693683757 101.71520430193887 l 15.901335452247794 1.3031176046223658 a36.954641476899106,36.954641476899106 0 0,0 -0.05741238560094144,0.633540891009458 l -15.876548470369777 -1.5766398841803944" fill="#ffc412" stroke="none" /><path d="M 120.89721153311464 102.0752229133903 l 15.359826517019753 1.5253261844676587 a36.43537788983366,36.43537788983366 0 0,0 -0.06734940541060969,0.6235718489106554 l -15.33129481010809 -1.7894943552631055" fill="#ffbd11" stroke="none" /><path d="M 120.81339534386255 102.79330883721812 l 14.745352550770882 1.9789334179975862 a35.87755353945644,35.87755353945644 0 0,0 -0.0874147178118563,0.6113783327790372 l -14.709103781942424 -2.2324572227570325" fill="#ffb610" stroke="none" /><path d="M 120.76222939487914 103.15116336523771 l 30.690110568786633 4.657956053761144 a52.04157601223106,52.04157601223106 0 0,0 -0.1420443732045114,0.8845104475364352 l -30.60538444122083 -5.185545730990785" fill="#86ff25" stroke="none" /><path d="M 120.32669344350535 105.2749913415812 l 6.9228437747485385 1.7965509772857755 a28.152157810308793,28.152157810308793 0 0,0 -0.12576228949118706,0.46800826391674305 l -6.8908934089155744 -1.9154501743780667" fill="#ff4d07" stroke="none" /><path d="M 120.02730092923936 106.31721596034902 l 2.9224905776604273 0.9218418491036908 a24.064432014464163,24.064432014464163 0 0,0 -0.1280087395670644,0.39397039038011145 l -2.9061895870771157 -0.9720111394615976" fill="#ff1202" stroke="none" /><path d="M 119.9155931802556 106.66101706037122 l 14.014884355736518 4.6874518347383 a35.77799675895416,35.77799675895416 0 0,0 -0.20037240330173242,0.5823759962377654 l -13.932121121491555 -4.928000534065366" fill="#ffb510" stroke="none" /><path d="M 119.79798401119884 107.00284435728193 l 13.948828105455986 4.933910045271978 a35.795718091745144,35.795718091745144 0 0,0 -0.21047155924889555,0.5791273371151381 l -13.861832285201864 -5.173285179393248" fill="#ffb510" stroke="none" /><path d="M 119.67450827220406 107.3425965602758 l 13.81351759575984 5.155253965215001 a35.74414839230234,35.74414839230234 0 0,0 -0.22009156467539293,0.5745896248028686 l -13.722731751490942 -5.392267156851014" fill="#ffb410" stroke="none" /><path d="M 119.54520255179757 107.68017299344265 l 14.865118746006491 5.8411614428061895 a36.97156605764755,36.97156605764755 0 0,0 -0.23784580577135206,0.5903137843319239 l -14.76237032597775 -6.096174594980927" fill="#ffc412" stroke="none" /><path d="M 119.41010516605496 108.01547362559984 l 14.779814782592611 6.103378346877845 a36.990439401494896,36.990439401494896 0 0,0 -0.24809843309361074,0.5864314087409392 l -14.67256536830669 -6.356884281284948" fill="#ffc412" stroke="none" /><path d="M 119.26925614724726 108.34839909993367 l 14.657905671092472 6.350532972127331 a36.97446298605124,36.97446298605124 0 0,0 -0.25804462799425576,0.5818225143347704 l -14.546419958366943 -6.601903822954789" fill="#ffc412" stroke="none" /><path d="M 118.97047184881838 109.00673069616215 l 18.254137673777468 8.66663219705957 a41.207029862212096,41.207029862212096 0 0,0 -0.30973311753954275,0.6381419620504795 l -18.10225129962321 -8.979563115075324" fill="#fffa17" stroke="none" /><path d="M 118.64920377521936 109.65438752849418 l 17.105908206133392 8.855448674345242 a40.26216672081894,40.26216672081894 0 0,0 -0.3239139086149306,0.6127230449558316 l -16.95094178929357 -9.148586734387207" fill="#ffee16" stroke="none" /><line stroke="#e1ed5e" stroke-width="0.3" x1="174.80103733775053" x2="179.2010983576182" y1="140.37084112569926" y2="142.7455964860345" /><path d="M 175.68104954172406 140.8457921977663 a86.0,86.0 0 0,1 -30.038265399797805,32.042727171017184" fill="none" id="id53" stroke="none" /><text fill="#e1ed5e" style="font-size:6.75px; font-family:Arial;" text-anchor="middle"><textPath startOffset="22.206326154141568" xlink:href="#id53">May</textPath></text><path d="M 117.94076556474637 110.91462005526583 l 12.887274613422624 7.840228748642547 a36.08479478789182,36.08479478789182 0 0,0 -0.32740139892469444,0.5278753019415059 l -12.750408574829967 -8.060900381949326" fill="#ffb911" stroke="none" /><path d="M 117.35343817320211 111.8261652097733 l 51.79405168677802 35.297040622028454 a83.67778607134875,83.67778607134875 0 0,0 -0.8213934719727937,1.1832785587967771 l -51.17879730764309 -36.183360443012255" fill="#4dd5ff" stroke="none" /><path d="M 116.27256486870786 113.27417163493432 l 14.726881573805061 12.013296934766682 a40.00527148271641,40.00527148271641 0 0,0 -0.4398751052716179,0.5298579009059557 l -14.5179104686399 -12.265016092786409" fill="#ffeb16" stroke="none" /><path d="M 116.0416608686014 113.55231037782055 l 11.87960240293366 10.036121586685578 a36.55148513019009,36.55148513019009 0 0,0 -0.4101729170115004,0.4771237682781896 l -11.705086976351378 -10.239122454125296" fill="#ffbf11" stroke="none" /><path d="M 115.56566222782051 114.09645910891815 l 10.948544762374631 9.915139573639841 a35.77093853411082,35.77093853411082 0 0,0 -0.41724856587117165,0.45284091066056864 l -10.776249788507736 -10.102131739101745" fill="#ffb510" stroke="none" /><path d="M 115.32070863581623 114.36230785411682 l 11.271824840608321 10.566705645719178 a36.450220174503286,36.450220174503286 0 0,0 -0.4330519587777556,0.45405324745956116 l -11.088266330451601 -10.759166009761246" fill="#ffbd11" stroke="none" /><path d="M 114.55890576462653 115.13401014063108 l 21.076850515902336 21.909426065195348 a51.401588415343596,51.401588415343596 0 0,0 -0.6429216824811121,0.6079225799339737 l -20.696592999030415 -22.268983281875244" fill="#8dff24" stroke="none" /><path d="M 114.29624159901734 115.38237550388516 l 9.982281867281674 10.740669637165691 a35.66314889553378,35.66314889553378 0 0,0 -0.45326240512610855,0.4140444603348024 l -9.795919912688703 -10.910906864087076" fill="#ffb310" stroke="none" /><path d="M 113.48314897796784 116.09983520530334 l 6.722387503011567 8.027006981939394 a31.47011627579894,31.47011627579894 0 0,0 -0.41829759574987535,0.3442304437468177 l -6.583219778717001 -8.14153254454339" fill="#ff7b0b" stroke="none" /><path d="M 112.34349029814194 116.9893568818739 l 17.632185289199896 24.26862105045252 a50.99766533854167,50.99766533854167 0 0,0 -0.7146294882209988,0.5098691652559519 l -17.211828473130012 -24.568534477552692" fill="#92ff23" stroke="none" /><path d="M 111.7513745106137 117.40417183066458 l 4.258186852788984 6.306514663972355 a28.609486347984554,28.609486347984554 0 0,0 -0.4105124806048252,0.2720652875834964 l -4.1489996734441945 -6.37887797264717" fill="#ff5307" stroke="none" /><line stroke="#e1ed5e" stroke-width="0.3" x1="143.8653032363475" x2="146.44561519142675" y1="172.8068346515853" y2="177.08958963109032" /><path d="M 144.38136562736335 173.6633856474863 a86.0,86.0 0 0,1 -40.68145358897372,12.25698825130547" fill="none" id="id54" stroke="none" /><text fill="#e1ed5e" style="font-size:6.75px; font-family:Arial;" text-anchor="middle"><textPath startOffset="21.466115282336833" xlink:href="#id54">June</textPath></text><path d="M 109.89434966115114 118.52300852407294 l 7.024334910849022 13.150112931673153 a35.908613317660695,35.908613317660695 0 0,0 -0.5477074058716647,0.286534628501423 l -6.796936602450861 -13.269076979119292" fill="#ffb610" stroke="none" /><path d="M 108.92500713936063 119.00905698771935 l 6.779652560257047 14.439742160710022 a36.95211091064711,36.95211091064711 0 0,0 -0.5780929075285477,0.2653741001797574 l -6.530091656961081 -14.554303331223853" fill="#ffc412" stroke="none" /><path d="M 106.91757812671514 119.82793768551818 l 12.858257775614396 36.85577947209656 a60.03438578381837,60.03438578381837 0 0,0 -0.9786470151582899,0.332010202301831 l -12.221941027518879 -37.07165266129651" fill="#33ff2f" stroke="none" /><path d="M 104.83641907484287 120.43548508189849 l 5.094866122467052 21.527510132758337 a43.12219142223201,43.12219142223201 0 0,0 -0.7237954090647972,0.16473347862761 l -4.723550564009393 -21.612020344963632" fill="#edff1a" stroke="none" /><path d="M 104.13013068566511 120.58985236759428 l 3.9011146956120712 19.448143839731777 a40.83554876173628,40.83554876173628 0 0,0 -0.6903782041501293,0.13231262593934665 l -3.5657688768902376 -19.51241366401959" fill="#fff517" stroke="none" /><path d="M 103.7750983002368 120.6578951692458 l 3.3943308143057025 18.574279278308957 a39.8818784125299,39.8818784125299 0 0,0 -0.6763796198213892,0.1175972667883928 l -3.074102223012263 -18.629955123618355" fill="#ffe915" stroke="none" /><path d="M 103.06178313531738 120.77559828337769 l 4.642921142644094 31.504342488638034 a52.84462768471654,52.84462768471654 0 0,0 -0.901054775393994,0.12487798143979531 l -4.099937776063269 -31.57959503557043" fill="#7eff26" stroke="none" /><path d="M 102.70371172650421 120.8252237178851 l 2.121959323938605 16.34430076552944 a37.481470774373754,37.481470774373754 0 0,0 -0.6405272383154231,0.07755892833793443 l -1.8403046625718016 -16.378405222592725" fill="#ffcb12" stroke="none" /><path d="M 101.98527174616119 120.90594882070398 l 1.444875896745626 15.215298161594983 a36.28374837869402,36.28374837869402 0 0,0 -0.6222761024867989,0.05369260052384528 l -1.1827554765172856 -15.237915014397492" fill="#ffbb11" stroke="none" /><path d="M 101.62511606390274 120.93702456842531 l 1.234964321435976 15.910542584225732 a36.9583991114297,36.9583991114297 0 0,0 -0.6346940486464971,0.043772217615672 l -0.9609075120105485 -15.929443146357688" fill="#ffc412" stroke="none" /><path d="M 101.26447882468166 120.96189622390904 l 0.9388043137580674 15.563027403411864 a36.59131731121137,36.59131731121137 0 0,0 -0.6290429591340809,0.032514335802513866 l -0.6707732862105069 -15.57688154597658" fill="#ffbf11" stroke="none" /><line stroke="#e1ed5e" stroke-width="0.3" x1="102.19456741930631" x2="102.32365962044197" y1="184.97166512339345" y2="189.96999836594603" /><path d="M 102.22038585953345 185.97133177190398 a86.0,86.0 0 0,1 -42.740103519485714,-10.115201625700543" fill="none" id="id55" stroke="none" /><text fill="#e1ed5e" style="font-size:6.75px; font-family:Arial;" text-anchor="middle"><textPath startOffset="22.20632615414155" xlink:href="#id55">July</textPath></text><path d="M 100.54218724476979 120.99299961872073 l 1.1457024469782326 44.360562268102576 a65.37535485874133,65.37535485874133 0 0,0 -1.125204215881921,0.01937141099959609 l -0.3819385412036435 -44.37371115638133" fill="#36ff6a" stroke="none" /><path d="M 99.81925306533755 120.99922214144158 l -0.20178146186177467 23.44301854730461 a44.443886929594655,44.443886929594655 0 0,0 -0.7649434416289473,-0.013169195058183893 l 0.6052845933833899 -23.43607187496727" fill="#ddff1b" stroke="none" /><path d="M 99.45781275523022 120.99299961872073 l -0.4714394625709659 18.253709495147866 a39.25979642548406,39.25979642548406 0 0,0 -0.6754174021868565,-0.023262740984420043 l 0.7855772164324656 -18.24288995573735" fill="#ffe115" stroke="none" /><path d="M 98.73552117531835 120.96189622390904 l -1.0725815979133433 17.780720173621376 a38.81304132305341,38.81304132305341 0 0,0 -0.6665441937390136,-0.04596879009819867 l 1.378488552431287 -17.75962303900689" fill="#ffdc14" stroke="none" /><path d="M 98.37488393609728 120.93702456842531 l -1.0294275160317734 13.262529165338735 a34.3024208650991,34.3024208650991 0 0,0 -0.5882957995136449,-0.05076063700166343 l 1.25756763328696 -13.242844276058408" fill="#ffa10e" stroke="none" /><path d="M 95.86986931433489 120.58985236759428 l -0.3596938337473838 1.7931739932824886 a22.828893825300025,22.828893825300025 0 0,0 -0.38462178864348084,-0.08060123541784714 l 0.3905070838202514 -1.7867167771381003" fill="#ff0000" stroke="none" /><path d="M 95.51606077576429 120.51570834832081 l -3.282349607918037 15.01798393905521 a36.372496887048634,36.372496887048634 0 0,0 -0.610503441378832,-0.1389485956292601 l 3.5403731986897315 -14.959258609848263" fill="#ffbc11" stroke="none" /><path d="M 95.16358092515715 120.4354850818985 l -7.195346682565328 30.402741680409363 a52.242594571642165,52.242594571642165 0 0,0 -0.873313867660341,-0.21463930105007503 l 7.71761383496888 -30.274381121045256" fill="#84ff25" stroke="none" /><path d="M 94.11515582081647 120.15858648285463 l -4.1662428000592895 14.271502054489025 a35.86719038555471,35.86719038555471 0 0,0 -0.5911681994741281,-0.17811412907486862 l 4.411285973973663 -14.197672556308431" fill="#ffb610" stroke="none" /><path d="M 93.08242187328487 119.8279376855182 l -5.384930507382707 15.4348913138957 a37.34727336411531,37.34727336411531 0 0,0 -0.6051688852201365,-0.21699203136231413 l 5.64981895323257 -15.339911741493427" fill="#ffc912" stroke="none" /><path d="M 92.06813273071674 119.44442032107085 l -7.0590062257607915 17.3046622494922 a39.68905841567012,39.68905841567012 0 0,0 -0.6303539870142103,-0.2634880176951629 l 7.355831672272465 -17.180589188777063" fill="#ffe715" stroke="none" /><path d="M 91.40352486487194 119.15986991738527 l -5.765634142387241 12.850476319993357 a35.084646914799514,35.084646914799514 0 0,0 -0.5488775889862623,-0.25196278035788067 l 5.985979727140922 -12.749326469301403" fill="#ffac0f" stroke="none" /><path d="M 91.07499286063937 119.00905698771935 l -14.25118144281671 30.35308722545605 a54.53216480682729,54.53216480682729 0 0,0 -0.8462543665270496,-0.4062535227261522 l 14.771548477344002 -30.103279426230337" fill="#6bff28" stroke="none" /><path d="M 90.42595943632237 118.69057910512821 l -8.850372142186863 17.2778232485183 a40.41268305160924,40.41268305160924 0 0,0 -0.6164071445116068,-0.3224750848076741 l 9.146470189224965 -17.122918744765908" fill="#fff016" stroke="none" /><line stroke="#e1ed5e" stroke-width="0.3" x1="58.666819895761336" x2="56.23545636021788" y1="174.27360380694188" y2="178.64263932499728" /><path d="M 58.180547188652646 175.14741091055294 a86.0,86.0 0 0,1 -31.652253787137756,-30.449443065178592" fill="none" id="id56" stroke="none" /><text fill="#e1ed5e" style="font-size:6.75px; font-family:Arial;" text-anchor="middle"><textPath startOffset="22.20632615414155" xlink:href="#id56">August</textPath></text><path d="M 89.4739219176387 118.17145234162733 l -7.685749402618953 13.26811637597611 a36.33341632012589,36.33341632012589 0 0,0 -0.5384822149583289,-0.3181447841138253 l 7.912999488605664 -13.133853019568535" fill="#ffbc11" stroke="none" /><path d="M 89.1626897886671 117.98757091392108 l -8.433836997652053 13.998329669762134 a37.3426693060316,37.3426693060316 0 0,0 -0.5477294703003368,-0.33646017676738593 l 8.6735456678847 -13.85108102616637" fill="#ffc912" stroke="none" /><path d="M 88.54995079064634 117.60387380957326 l -11.570046812676683 17.788364079241607 a42.220081994732794,42.220081994732794 0 0,0 -0.6058085202993512,-0.4014968535254731 l 11.874530031715995 -17.586569204624816" fill="#f8ff18" stroke="none" /><path d="M 88.24862548938628 117.40417183066458 l -11.322490907234595 16.768981119839815 a41.23357427994259,41.23357427994259 0 0,0 -0.5848160105557841,-0.40224178469736205 l 11.609463802413272 -16.571598545777356" fill="#fffa17" stroke="none" /><path d="M 87.95078237400918 117.19931262002967 l -8.728701384246063 12.45953625658651 a36.21283246422352,36.21283246422352 0 0,0 -0.507449855971796,-0.3620519986065556 l 8.941878568066745 -12.307439996135734" fill="#ffba11" stroke="none" /><path d="M 87.36589467227662 116.77436683061367 l -10.690153111251773 14.193371442778393 a38.7688256914936,38.7688256914936 0 0,0 -0.5296029676634832,-0.40607697217528693 l 10.932884807408742 -14.007255128775737" fill="#ffdb14" stroke="none" /><path d="M 87.07902340077011 116.55440617244103 l -11.12933308268569 14.25894543374881 a39.088106029874666,39.088106029874666 0 0,0 -0.5268378826488324,-0.4185518767566842 l 11.37312845805188 -14.065259642986996" fill="#ffdf14" stroke="none" /><path d="M 86.79598089348748 116.32954008644616 l -7.452250965972979 9.216271947311233 a32.852245064401984,32.852245064401984 0 0,0 -0.43666871151642417,-0.3593486213234871 l 7.609789806034092 -9.086628207130564" fill="#ff8e0d" stroke="none" /><path d="M 86.51685102203217 116.09983520530335 l -18.809549168743384 22.459934426124043 a50.29586650633783,50.29586650633783 0 0,0 -0.6589585362554877,-0.5615787603970759 l 19.19337318157593 -22.132831275504014" fill="#99ff23" stroke="none" /><path d="M 86.24171649860922 115.8653595955263 l -9.851463400727116 11.360211423096676 a36.03681265140063,36.03681265140063 0 0,0 -0.4651454117159413,-0.4104367443096494 l 10.045551165349645 -11.188951537014738" fill="#ffb811" stroke="none" /><path d="M 85.97065885151581 115.62618273729859 l -15.209475091040948 16.940641374073053 a43.76649869237584,43.76649869237584 0 0,0 -0.5562522961549203,-0.5081232839228711 l 15.498826936662725 -16.676325323563606" fill="#e5ff1a" stroke="none" /><path d="M 85.44109423537348 115.13401014063109 l -13.386936849981486 13.91574623223788 a40.30953317471541,40.30953317471541 0 0,0 -0.4959033245427252,-0.48534577687933594 l 13.624490126900007 -13.683250352435975" fill="#ffef16" stroke="none" /><path d="M 84.9287848128048 114.62390073753433 l -10.709804167186114 10.39193662316148 a35.92287680305918,35.92287680305918 0 0,0 -0.426786781808766,-0.4474842344554224 l 10.887097500373837 -10.206045272123555" fill="#ffb710" stroke="none" /><path d="M 84.67929136418377 114.36230785411682 l -27.40797849396675 25.6934476169804 a58.5679455862609,58.5679455862609 0 0,0 -0.6831632689364363,-0.7414388020462263 l 27.846188170898916 -25.21785756013283" fill="#42ff2d" stroke="none" /><path d="M 84.19399662182784 113.82643327865904 l -13.269300869870543 11.607431603176954 a38.6297139510991,38.6297139510991 0 0,0 -0.4334943545578381,-0.5042518688969327 l 13.467137733999161 -11.37730263511849" fill="#ffd914" stroke="none" /><path d="M 83.72743513129214 113.27417163493432 l -17.379904901035722 14.177472483076592 a43.42903966685688,43.42903966685688 0 0,0 -0.46754895073025093,-0.5833392049736199 l 17.621371763820832 -13.876205444524713" fill="#e9ff1a" stroke="none" /><path d="M 83.06392112726016 112.41649034213515 l -33.498719010430825 24.559198394877633 a62.536952236999284,62.536952236999284 0 0,0 -0.6290032397950337,-0.873630485897272 l 33.916502042601465 -23.978934303529222" fill="#32ff49" stroke="none" /><path d="M 82.6465618267979 111.8261652097733 l -16.586606987961765 11.303578723213953 a41.07203087196204,41.07203087196204 0 0,0 -0.39311193617804674,-0.5876490064582576 l 16.778722029550543 -11.016392802549872" fill="#fff817" stroke="none" /><path d="M 82.05923443525364 110.91462005526583 l -7.089989109449376 4.313335294769875 a29.298964208696063,29.298964208696063 0 0,0 -0.2584156425563586,-0.43311948096444663 l 7.1631856277039665 -4.190653719919316" fill="#ff5d08" stroke="none" /><line stroke="#e1ed5e" stroke-width="0.3" x1="26.63291911575756" x2="22.317208475507996" y1="142.92168965132927" y2="145.44649492493687" /><path d="M 25.769776987707644 143.4266507060508 a86.0,86.0 0 0,1 -11.730757126820373,-40.83630448921669" fill="none" id="id57" stroke="none" /><text fill="#e1ed5e" style="font-size:6.75px; font-family:Arial;" text-anchor="middle"><textPath startOffset="21.46611528233685" xlink:href="#id57">September</textPath></text><path d="M 81.87401531095188 110.60418214915194 l -15.349381120697108 8.979795364109053 a38.783144423011564,38.783144423011564 0 0,0 -0.33214624321012826,-0.5791249717270243 l 15.501679360059615 -8.714250546523722" fill="#ffdb14" stroke="none" /><path d="M 81.35079622478065 109.6543875284942 l -19.66136888842736 10.178368839627538 a43.13975200408352,43.13975200408352 0 0,0 -0.3357121741713283,-0.6623919686622565 l 19.833659732384955 -9.838422659262598" fill="#edff1a" stroke="none" /><path d="M 80.73074385275274 108.34839909993369 l -57.80776844174178 25.045197299801067 a84.0,84.0 0 0,0 -0.5633960752307736,-1.3317018973353647 l 58.23031549816486 -24.046420876799544" fill="#4dd2ff" stroke="none" /><path d="M 80.20201598880116 107.00284435728193 l -10.296273111132972 3.6419464737695324 a31.921401654405088,31.921401654405088 0 0,0 -0.17877378684295403,-0.5196003067202923 l 10.357437728919153 -3.4641734639599435" fill="#ff810b" stroke="none" /><path d="M 80.0844068197444 106.66101706037122 l -5.15792562638956 1.7251321757048386 a26.43877539442642,26.43877539442642 0 0,0 -0.14063886119992144,-0.4328419078020756 l 5.186856738605731 -1.6360913679249596" fill="#ff3505" stroke="none" /><path d="M 79.76711848015287 105.62410040840567 l -60.55500882900226 16.832375040209993 a83.85091840040864,83.85091840040864 0 0,0 -0.3745817121738759,-1.3939578988162236 l 60.83577861751791 -15.78752620821823" fill="#4dd3ff" stroke="none" /><path d="M 79.50377843672027 104.57218783832718 l -14.5638395738033 3.248823690410782 a35.92180547061425,35.92180547061425 0 0,0 -0.12943133055655573,-0.6046600864515708 l 14.617604943084297 -2.9976497845430474" fill="#ffb710" stroke="none" /><path d="M 79.18660465613746 102.79330883721812 l -14.672714012636202 1.9691847985560262 a35.804263752969106,35.804263752969106 0 0,0 -0.07672084911482815,-0.6115406537619473 l 14.704436370997879 -1.7163263905066701" fill="#ffb510" stroke="none" /><path d="M 79.10278846688536 102.07522291339032 l -13.538206050352079 1.3444279566855015 a34.604797300676964,34.604797300676964 0 0,0 -0.05376168965164569,-0.5932557654165737 l 13.5593423362808 -1.1111908027203619" fill="#ffa50f" stroke="none" /><path d="M 79.07016306316243 101.71520430193888 l -11.678657159429742 0.9570682782275829 a32.71780750553145,32.71780750553145 0 0,0 -0.041167479393046616,-0.5616975486034284 l 11.693401197487125 -0.7558975931273938" fill="#ff8c0c" stroke="none" /><path d="M 79.04373962182676 101.35467743843564 l -22.183604208565097 1.4340167368710985 a43.22990552575277,43.22990552575277 0 0,0 -0.04161114959346304,-0.7429950287805299 l 22.20500170904609 -1.051949991755131" fill="#ecff1a" stroke="none" /><path d="M 79.0235259727143 100.99374915477108 l -16.102703332101616 0.7628568941086251 a37.120763171840395,37.120763171840395 0 0,0 -0.024743405301974167,-0.6385173459939822 l 16.113448870254793 -0.485562301100646" fill="#ffc612" stroke="none" /><line stroke="#e1ed5e" stroke-width="0.3" x1="15.007084014347285" x2="10.007500721073583" y1="101.09737516637583" y2="101.16192664675087" /><path d="M 14.007167355692545 101.11028546245083 a86.0,86.0 0 0,1 10.666146001902534,-42.60595125391555" fill="none" id="id58" stroke="none" /><text fill="#e1ed5e" style="font-size:6.75px; font-family:Arial;" text-anchor="middle"><textPath startOffset="22.20632615414155" xlink:href="#id58">October</textPath></text><path d="M 79.01574976396665 99.18683210126434 l -28.913321622325803 -1.1204300713456976 a49.93502256402833,49.93502256402833 0 0,0 0.04067657423092122,-0.8586181923047648 l 28.889751439861385 1.6179593702734714" fill="#9eff22" stroke="none" /><path d="M 79.05617556472873 98.46500227214037 l -15.375717089511443 -1.1269045378772966 a36.41695786639448,36.41695786639448 0 0,0 0.05120140374899635,-0.6247868141377452 l 15.35404120194295 1.39140526922282" fill="#ffbd11" stroke="none" /><path d="M 79.12142395522702 97.74499172005258 l -15.642802728166009 -1.6895141506755011 a36.733776891059904,36.733776891059904 0 0,0 0.07330950582615446,-0.6280710765577405 l 15.611402869336265 1.9585289655581035" fill="#ffc112" stroke="none" /><path d="M 79.21141760316559 97.0276538004421 l -14.778720078813395 -2.1130576208640437 a35.929018041285026,35.929018041285026 0 0,0 0.09280654682155705,-0.6114791875636099 l 14.740157638552535 2.3671359208197456" fill="#ffb710" stroke="none" /><path d="M 79.26566170972629 96.67025291283419 l -14.815267569091722 -2.3791978959321805 a36.0050903286781,36.0050903286781 0 0,0 0.10353716098786152,-0.61108218505301 l 14.772118546583638 2.6338658693010184" fill="#ffb811" stroke="none" /><path d="M 79.46518482838121 95.60439243477599 l -16.009786185870222 -3.4269963809312607 a37.372463403904646,37.372463403904646 0 0,0 0.1400677448308682,-0.6278962355520381 l 15.948424054037314 3.702070786033258" fill="#ffc912" stroke="none" /><path d="M 79.62865764111835 94.90015583598534 l -27.39733106723036 -6.858758568351044 a49.24281003558879,49.24281003558879 0 0,0 0.21292513239262395,-0.8204873927367047 l 27.27520960296743 7.329342386636613" fill="#a5ff21" stroke="none" /><path d="M 79.91906864156998 93.8553929516997 l -28.782637067667128 -8.80726055170801 a51.09996735869854,51.09996735869854 0 0,0 0.26461148713724986,-0.8388907258346179 l 28.626770096761675 9.301401443969043" fill="#91ff24" stroke="none" /><path d="M 80.02781315780177 93.51064311812611 l -14.252470155884074 -4.630908273618413 a35.98593397099539,35.98593397099539 0 0,0 0.19648783691736382,-0.5874736229389784 l 14.170645025194938 4.875554999479713" fill="#ffb711" stroke="none" /><path d="M 80.2630227832202 92.82701384747504 l -14.457235848267919 -5.2541760272818845 a36.38239364007132,36.38239364007132 0 0,0 0.21897941025869438,-0.5867559497801426 l 14.364651849507597 5.502255114091368" fill="#ffbd11" stroke="none" /><path d="M 80.38941819471856 92.48833698450439 l -3.147227869831651 -1.205518297513468 a24.370210324339542,24.370210324339542 0 0,0 0.15342376169607105,-0.3904467387868371 l 3.126010558253889 1.2595140411960684" fill="#ff1702" stroke="none" /><path d="M 80.803312248108 91.48605970444005 l -28.65747816513591 -12.709903983057318 a52.349524941277465,52.349524941277465 0 0,0 0.3724237016331471,-0.8205862599162677 l 28.434452146539414 13.201312251815656" fill="#83ff25" stroke="none" /><path d="M 81.26839172434947 90.50648371742162 l -36.80755703844823 -18.654732520788063 a62.264940331481974,62.264940331481974 0 0,0 0.4927545584733651,-0.951844966344681 l 36.48099304681475 19.28555020939308" fill="#32ff46" stroke="none" /><path d="M 81.6062741919709 89.86733742301443 l -14.45981497475014 -7.965565410398251 a37.50867897232669,37.50867897232669 0 0,0 0.3163988507220456,-0.5628382507020256 l 14.320558482735665 8.213287171035061" fill="#ffcb12" stroke="none" /><line stroke="#e1ed5e" stroke-width="0.3" x1="26.266209847984243" x2="21.928928074336255" y1="57.711370442889674" y2="55.22380399835377" /><path d="M 25.398753493254645 57.213857153982495 a86.0,86.0 0 0,1 29.58750427330803,-30.492523968695096" fill="none" id="id59" stroke="none" /><text fill="#e1ed5e" style="font-size:6.75px; font-family:Arial;" text-anchor="middle"><textPath startOffset="21.46611528233685" xlink:href="#id59">November</textPath></text><path d="M 82.54541684631803 88.32363383020206 l -18.54540129169035 -12.406076635633744 a43.312387737735456,43.312387737735456 0 0,0 0.4198734512796282,-0.6161124800902162 l 18.32910337474198 12.723467138994375" fill="#ebff1a" stroke="none" /><path d="M 82.95767976084542 87.72973835380427 l -25.435671511513572 -18.31337166613652 a52.342510541175145,52.342510541175145 0 0,0 0.5327405455975419,-0.7266575054891807 l 25.1166683534024 18.748491615297205" fill="#83ff25" stroke="none" /><path d="M 83.6137871275137 86.86637796730984 l -12.316195854020192 -9.871485405812585 a36.78400786973179,36.78400786973179 0 0,0 0.40024767931940747,-0.49065632902727424 l 12.144449682624392 10.082025904447942" fill="#ffc212" stroke="none" /><path d="M 84.07557802195018 86.31012108654704 l -16.245415584659966 -13.965830129298833 a42.423303636898396,42.423303636898396 0 0,0 0.4808138780709276,-0.5496533797180553 l 16.002609843011196 14.243399065219831" fill="#f5ff19" stroke="none" /><path d="M 84.31358615837235 86.03803664274999 l -11.585874036155206 -10.312207135912757 a36.5104510958136,36.5104510958136 0 0,0 0.4218806258274314,-0.46585112412640184 l 11.406649769711729 10.510111047308714" fill="#ffbe11" stroke="none" /><path d="M 84.80347519578584 85.50635884689758 l -31.78182989090373 -30.311827444914496 a64.91914837818025,64.91914837818025 0 0,0 0.7782128388927627,-0.8020167373187657 l 31.255352788307853 30.854408377783386" fill="#35ff65" stroke="none" /><path d="M 85.31137513191541 84.99185889309783 l -16.962247934960722 -17.33122145772023 a45.25054828707222,45.25054828707222 0 0,0 0.561358384024156,-0.5400263206675776 l 16.66140630732414 17.620630865150115" fill="#d3ff1c" stroke="none" /><path d="M 85.83668400450813 84.49514656593479 l -6.213742264593697 -6.802302731948324 a30.213138194332572,30.213138194332572 0 0,0 0.3870001049771407,-0.3474525153391466 l 6.095731172020585 6.9082542560567495" fill="#ff6a09" stroke="none" /><path d="M 86.37877921826538 84.01681056812374 l -10.602685192408662 -12.441228920102436 a37.34628735620768,37.34628735620768 0 0,0 0.4928686696824872,-0.4127633367149477 l 10.386958985767064 12.621893414211195" fill="#ffc912" stroke="none" /><path d="M 86.65592168130627 83.78471172551755 l -10.814435750739996 -13.141349221433842 a38.01902112245482,38.01902112245482 0 0,0 0.5089056013060247,-0.41149960424380855 l 10.58662675086947 13.325554922941787" fill="#ffd213" stroke="none" /><path d="M 86.93701828274178 83.55741782278169 l -13.5386193308051 -17.041274781754996 a42.76463322851383,42.76463322851383 0 0,0 0.5803108695559004,-0.45294183842687047 l 13.243275906089774 17.271795009405086" fill="#f1ff19" stroke="none" /><path d="M 87.51073957382395 83.11751280151077 l -14.008449689578008 -18.936067027580744 a44.55443264395194,44.55443264395194 0 0,0 0.6204834525677956,-0.4508076162141019 l 13.680420920656431 19.174393878611514" fill="#dcff1b" stroke="none" /><path d="M 87.80319425747018 82.90503203632743 l -5.176621591117543 -7.255521005113172 a29.912911766267115,29.912911766267115 0 0,0 0.4217276999225345,-0.29544720463755264 l 5.0509627516113484 7.343553052514667" fill="#ff6609" stroke="none" /><path d="M 89.00827224532344 82.1063720568725 l -8.852014354253642 -14.41035066892444 a37.91201834581797,37.91201834581797 0 0,0 0.5589999536246544,-0.33679121736568435 l 8.60265233441134 14.560588495748744" fill="#ffd013" stroke="none" /><line stroke="#e1ed5e" stroke-width="0.3" x1="56.76296977257108" x2="54.21961505331056" y1="26.818313649435495" y2="22.513508569990535" /><path d="M 56.25429882871898 25.957352633546506 a86.0,86.0 0 0,1 42.26535254187918,-11.944610805530505" fill="none" id="id60" stroke="none" /><text fill="#e1ed5e" style="font-size:6.75px; font-family:Arial;" text-anchor="middle"><textPath startOffset="22.20632615414155" xlink:href="#id60">December</textPath></text><path d="M 89.3179101791058 81.91981866633112 l -3.7098222223778157 -6.279132606156138 a28.293167158878333,28.293167158878333 0 0,0 0.4214378636286653,-0.24412401254558114 l 3.601187626283828 6.342060776091767" fill="#ff4f07" stroke="none" /><path d="M 89.94658935756843 81.56283822128135 l -7.3448059526834735 -13.469794520416423 a36.34214909668182,36.34214909668182 0 0,0 0.5518035361563749,-0.2947543388481021 l 7.111857369998793 13.594227585766275" fill="#ffbc11" stroke="none" /><path d="M 90.26544431104013 81.39251694778311 l -7.079281142517861 -13.531958529003461 a36.27187359577987,36.27187359577987 0 0,0 0.5557188059499149,-0.28466075664307156 l 6.845301848979182 13.651811810959037" fill="#ffbb11" stroke="none" /><path d="M 90.58718382345135 81.22770947309562 l -7.343040630239156 -14.644468719695734 a37.38232919274576,37.38232919274576 0 0,0 0.5776971394819498,-0.283473477432661 l 7.089872223746781 14.768697357263225" fill="#ffc912" stroke="none" /><path d="M 91.23893434514133 80.91482961587045 l -7.121406359365228 -15.513324417074186 a38.069788018736425,38.069788018736425 0 0,0 0.5979093730837439,-0.26826450706278204 l 6.853314867814709 15.633609254653496" fill="#ffd213" stroke="none" /><path d="M 91.90106846888425 80.62456947434976 l -5.625469531832251 -13.458058469740147 a35.586474736156006,35.586474736156006 0 0,0 0.567207958032238,-0.23137836782501275 l 5.392977704211632 13.552897723748735" fill="#ffb210" stroke="none" /><path d="M 92.23578459929587 80.48803036053334 l -5.677724696233697 -14.268485117519408 a36.35663456865126,36.35663456865126 0 0,0 0.5834665673138172,-0.22637596342076882 l 5.4312749639202025 14.364103784830728" fill="#ffbc11" stroke="none" /><path d="M 93.25333710446033 80.11325718540243 l -4.920130075186445 -14.502779067898395 a36.314642687605414,36.314642687605414 0 0,0 0.5936876494659057,-0.19572948384127153 l 4.66975960347813 14.5853222759989" fill="#ffbc11" stroke="none" /><path d="M 93.94186890950719 79.89281104454417 l -4.435183033456345 -14.720556880271149 a36.374187568959776,36.374187568959776 0 0,0 0.6010570908948651,-0.17546504690287223 l 4.181135724838058 14.79472025609272" fill="#ffbc11" stroke="none" /><path d="M 94.98787191387505 79.60689891045804 l -3.900108711114299 -15.868571161645754 a37.34082001218803,37.34082001218803 0 0,0 0.6255055233182444,-0.148036948096506 l 3.6263795008335205 15.933354021883131" fill="#ffc912" stroke="none" /><path d="M 95.33964822691252 79.52364482259891 l -3.6312991460117616 -15.954969643819267 a37.36298841358204,37.36298841358204 0 0,0 0.6283338669344853,-0.13732944649185733 l 3.3561225549237554 16.015112588406993" fill="#ffc912" stroke="none" /><path d="M 95.692805502759 79.44645832069477 l -2.826286003603867 -13.486780596956796 a34.779736697216585,34.779736697216585 0 0,0 0.587005093113432,-0.11774769942135041 l 2.5937145010232987 13.533432252455357" fill="#ffa80f" stroke="none" /><path d="M 96.04723909329186 79.375362276772 l -2.777485106866917 -14.492306886959685 a35.75606256508445,35.75606256508445 0 0,0 0.605477633252106,-0.11064716736118922 l 2.527612352511918 14.53796953567161" fill="#ffb410" stroke="none" /><path d="M 97.11714578562143 79.19881850522333 l -2.3279011756469705 -16.796928063521513 a37.957473758042354,37.957473758042354 0 0,0 0.6479616802527466,-0.0841240227215509 l 2.0384247668863664 16.834510409407198" fill="#ffd113" stroke="none" /><path d="M 98.19473922651362 79.07773832637324 l -1.5063562623111773 -17.458076061174978 a38.52294293053467,38.52294293053467 0 0,0 0.6611450746095051,-0.051317582295740065 l 1.205620998339338 17.48141890565918" fill="#ffd814" stroke="none" /><path d="M 99.27714615592234 79.0124445844662 l -0.9319091564143884 -27.05733008509672 a48.0733737463525,48.0733737463525 0 0,0 0.8272588965835033,-0.021365656647273277 l 0.4660236246360061 27.069362533886352" fill="#b3ff20" stroke="none" /></svg>