<?xml version="1.0" encoding="utf-8" ?>
<svg baseProfile="full" height="200mm" version="1.1" viewBox="0,0,200,200" width="200mm" xmlns="http://www.w3.org/2000/svg" xmlns:ev="http://www.w3.org/2001/xml-events" xmlns:xlink="http://www.w3.org/1999/xlink"><defs /><rect fill="#1a1a1a" height="200" width="200" x="0" y="0" /><text alignment-baseline="middle" fill="#e1ed5e" style="dominant-baseline: central; font-size:9.0px; font-family:Arial;" text-anchor="middle" x="100.0" y="100.0">2024</text><line stroke="#e1ed5e" stroke-width="0.3" x1="100.0" x2="100.0" y1="15.0" y2="10.0" /><path d="M 100.0 14.0 a86.0,86.0 0 0,1 42.35913384403234,11.155469271406648" fill="none" id="id73" stroke="none" /><text fill="#e1ed5e" style="font-size:6.75px; font-family:Arial;" text-anchor="middle"><textPath startOffset="22.145653131862478" xlink:href="#id73">January</textPath></text><path d="M 100.0 79.0 l 0.0 -11.55082474703137 a32.55082474703137,32.55082474703137 0 0,0 0.5587781913952297,0.004796438729741956 l -0.19828526654637485 11.549122706496064" fill="#ff3705" stroke="none" /><path d="M 101.08105385017728 79.02784411241856 l 0.9464403434440258 -18.360689819243785 a39.38506676523588,39.38506676523588 0 0,0 0.6749018436719134,0.040600418986182024 l -1.2614865392484016 18.34173742243291" fill="#ffa00e" stroke="none" /><path d="M 101.80034050326958 79.07731436759882 l 1.3560158348680442 -15.75895947126498 a36.81719262579125,36.81719262579125 0 0,0 0.629224119444503,0.0595881783132448 l -1.6263395176975601 15.733359537446551" fill="#ff790b" stroke="none" /><path d="M 102.15924093988457 79.11130261209362 l 2.887185380020767 -27.930899508262087 a49.07972554636603,49.07972554636603 0 0,0 0.8373096963118654,0.09382229793264088 l -3.366230977933429 27.877221449822475" fill="#d6ff1c" stroke="none" /><path d="M 102.51750503828377 79.15144685158666 l 1.1497610567350156 -9.5216709141751 a30.59083768423971,30.59083768423971 0 0,0 0.5208049009073633,0.06742862129981901 l -1.3130437795331706 9.500530696674884" fill="#ff1702" stroke="none" /><path d="M 103.58742460773223 79.30868818359171 l 2.317828027640511 -13.368616124601266 a34.56805895670655,34.56805895670655 0 0,0 0.5838138019287246,0.10639032257238785 l -2.5469765631202894 13.326857628097512" fill="#ff5708" stroke="none" /><path d="M 104.29559338865022 79.4440306129975 l 2.4586084693390267 -11.765331552071968 a33.01947511897611,33.01947511897611 0 0,0 0.5538428628767987,0.12070747419398806 l -2.6602137488349595 11.721392619744261" fill="#ff3e05" stroke="none" /><path d="M 106.72888874123014 80.10723608172694 l 2.623094502137349 -7.754712802221031 a29.186342004343206,29.186342004343206 0 0,0 0.47322766607613775,0.16461314736112365 l -2.755827940258505 7.708541222291317" fill="#ff0000" stroke="none" /><path d="M 107.40779381753099 80.34994680014964 l 2.90246692106745 -7.699138341945717 a29.228064501224416,29.228064501224416 0 0,0 0.4679659999495227,0.1810193018351372 l -3.0342051835104984 7.648179151972541" fill="#ff0100" stroke="none" /><path d="M 109.3889696526874 81.21577127319529 l 7.7270400338986205 -15.45925620671097 a38.28281661507185,38.28281661507185 0 0,0 0.5853128710109851,0.29886492245753077 l -7.9912801266231845 15.324333332580606" fill="#ff900d" stroke="none" /><path d="M 110.02825361518725 81.54914285379988 l 22.767791526879996 -41.8901720196557 a68.6776555930324,68.6776555930324 0 0,0 1.03100143188177,0.5718791146876222 l -23.483537146917865 41.49315998953493" fill="#37ff7c" stroke="none" /><line stroke="#e1ed5e" stroke-width="0.3" x1="143.13028292997686" x2="145.6673583964461" y1="26.7553504044142" y2="22.446841604673864" /><path d="M 143.63769802327073 25.89364864446614 a86.0,86.0 0 0,1 29.32050498858742,28.57503671076993" fill="none" id="id74" stroke="none" /><text fill="#e1ed5e" style="font-size:6.75px; font-family:Arial;" text-anchor="middle"><textPath startOffset="20.669276256404974" xlink:href="#id74">February</textPath></text><path d="M 110.65571695917076 81.90426304109057 l 13.203823188537674 -22.422978405605164 a47.02173913043478,47.02173913043478 0 0,0 0.6920418711866146,0.4155512596695681 l -13.586797816281724 22.193013145399675" fill="#f2ff19" stroke="none" /><path d="M 110.96478420261332 82.08984904055464 l 29.920491162137413 -48.87287370114508 a78.30439403040243,78.30439403040243 0 0,0 1.1403948841848457,0.7116907509723054 l -30.755050175111972 48.352047153331235" fill="#45ffef" stroke="none" /><path d="M 111.27062007382361 82.28071324371311 l 4.820073899335183 -7.577956762749692 a29.981010026336463,29.981010026336463 0 0,0 0.4318898234482619,0.27994576561434914 l -4.949449355040452 7.494097155431448" fill="#ff0d01" stroke="none" /><path d="M 111.5731344415666 82.4767994020092 l 5.443538724536711 -8.242211434992669 a30.877558563969878,30.877558563969878 0 0,0 0.4397901133802679,0.2959104154913971 l -5.58422512601398 8.147551345444153" fill="#ff1c02" stroke="none" /><path d="M 111.8722381534696 82.67804972795209 l 6.384557587591031 -9.31526032511046 a32.29321258605554,32.29321258605554 0 0,0 0.45457296010510995,0.31732723006855673 l -6.543525638869902 9.204288279236776" fill="#ff3304" stroke="none" /><path d="M 112.16784306229584 82.88440491214696 l 30.114048227547677 -42.35918011762511 a72.97264704523403,72.97264704523403 0 0,0 1.0147332695469666,0.7345886331536834 l -30.83676250746861 41.83599071309835" fill="#3effb1" stroke="none" /><path d="M 112.45986205192187 83.09580414077388 l 6.048010016470231 -8.205287141297413 a31.193388162454372,31.193388162454372 0 0,0 0.4283104877328572,0.32141217492966856 l -6.187973493113854 8.10025593910373" fill="#ff2103" stroke="none" /><path d="M 112.7482090630111 83.31218511350987 l 8.064009433865618 -10.556047207110526 a34.28376380353925,34.28376380353925 0 0,0 0.4646103923315272,0.36128385124783013 l -8.24402977083237 10.416062304241905" fill="#ff5207" stroke="none" /><path d="M 113.03279911837588 83.53348406188908 l 39.09839735512764 -49.399547814332756 a84.0,84.0 0 0,0 1.122996918578962,0.904606824826367 l -39.94064504406186 48.72109269571298" fill="#4dd2ff" stroke="none" /><path d="M 113.31354834802062 83.75963576809568 l 5.901993236847196 -7.199472098276861 a30.309453402947838,30.309453402947838 0 0,0 0.39954450568857725,0.3333142369381766 l -6.024712076697666 7.097095677426815" fill="#ff1202" stroke="none" /><line stroke="#e1ed5e" stroke-width="0.3" x1="172.87174338648825" x2="177.1583165268699" y1="56.24261187166439" y2="53.66864786411523" /><path d="M 173.72905801456457 55.72781907015455 a86.0,86.0 0 0,1 12.242430191666344,42.057860355516425" fill="none" id="id75" stroke="none" /><text fill="#e1ed5e" style="font-size:6.75px; font-family:Arial;" text-anchor="middle"><textPath startOffset="22.145653131862474" xlink:href="#id75">March</textPath></text><line stroke="#e1ed5e" stroke-width="0.3" x1="184.99686870605535" x2="189.99668451229388" y1="99.2704041080226" y2="99.22748670261217" /><path d="M 185.99683186730306 99.26182062694052 a86.0,86.0 0 0,1 -10.086455211305974,41.156179273409016" fill="none" id="id76" stroke="none" /><text fill="#e1ed5e" style="font-size:6.75px; font-family:Arial;" text-anchor="middle"><textPath startOffset="21.40746469413373" xlink:href="#id76">April</textPath></text><line stroke="#e1ed5e" stroke-width="0.3" x1="174.33088141563837" x2="178.70328620479359" y1="141.23008692659167" y2="143.65538615756765" /><path d="M 175.20536237346943 141.71514677278685 a86.0,86.0 0 0,1 -30.301960400862466,31.631185727798858" fill="none" id="id77" stroke="none" /><text fill="#e1ed5e" style="font-size:6.75px; font-family:Arial;" text-anchor="middle"><textPath startOffset="22.145653131862474" xlink:href="#id77">May</textPath></text><line stroke="#e1ed5e" stroke-width="0.3" x1="143.1302829299769" x2="145.66735839644613" y1="173.24464959558577" y2="177.55315839532614" /><path d="M 143.63769802327073 174.10635135553383 a86.0,86.0 0 0,1 -40.68552437913181,11.842963189579606" fill="none" id="id78" stroke="none" /><text fill="#e1ed5e" style="font-size:6.75px; font-family:Arial;" text-anchor="middle"><textPath startOffset="21.407464694133747" xlink:href="#id78">June</textPath></text><line stroke="#e1ed5e" stroke-width="0.3" x1="101.45913802915013" x2="101.54496967792366" y1="184.9874750549273" y2="189.98673829345242" /><path d="M 101.47630435890484 185.9873277026323 a86.0,86.0 0 0,1 -42.54439059252881,-10.42667462771756" fill="none" id="id79" stroke="none" /><text fill="#e1ed5e" style="font-size:6.75px; font-family:Arial;" text-anchor="middle"><textPath startOffset="22.145653131862474" xlink:href="#id79">July</textPath></text><line stroke="#e1ed5e" stroke-width="0.3" x1="58.13341422392154" x2="55.67067388415222" y1="173.97424548756322" y2="178.32567169271397" /><path d="M 57.64086615596768 174.84453072859336 a86.0,86.0 0 0,1 -31.369924170532247,-30.572349798747897" fill="none" id="id80" stroke="none" /><text fill="#e1ed5e" style="font-size:6.75px; font-family:Arial;" text-anchor="middle"><textPath startOffset="22.145653131862474" xlink:href="#id80">August</textPath></text><line stroke="#e1ed5e" stroke-width="0.3" x1="26.387840678322732" x2="22.057713659400548" y1="142.50000000000003" y2="145.00000000000006" /><path d="M 25.521815274538298 143.00000000000003 a86.0,86.0 0 0,1 -11.493303480769221,-40.785679425670985" fill="none" id="id81" stroke="none" /><text fill="#e1ed5e" style="font-size:6.75px; font-family:Arial;" text-anchor="middle"><textPath startOffset="21.40746469413373" xlink:href="#id81">September</textPath></text><line stroke="#e1ed5e" stroke-width="0.3" x1="15.003131293944662" x2="10.003315487706104" y1="100.72959589197737" y2="100.7725132973878" /><path d="M 14.003168132696942 100.73817937305945 a86.0,86.0 0 0,1 10.791469493833604,-42.45332614584628" fill="none" id="id82" stroke="none" /><text fill="#e1ed5e" style="font-size:6.75px; font-family:Arial;" text-anchor="middle"><textPath startOffset="22.145653131862435" xlink:href="#id82">October</textPath></text><line stroke="#e1ed5e" stroke-width="0.3" x1="26.387840678322718" x2="22.05771365940052" y1="57.49999999999999" y2="54.99999999999999" /><path d="M 25.521815274538284 56.99999999999999 a86.0,86.0 0 0,1 29.574782752854787,-30.34633250058573" fill="none" id="id83" stroke="none" /><text fill="#e1ed5e" style="font-size:6.75px; font-family:Arial;" text-anchor="middle"><textPath startOffset="21.40746469413373" xlink:href="#id83">November</textPath></text><line stroke="#e1ed5e" stroke-width="0.3" x1="56.869717070023135" x2="54.33264160355391" y1="26.7553504044142" y2="22.446841604673864" /><path d="M 56.362301976729285 25.89364864446614 a86.0,86.0 0 0,1 42.16139366436587,-11.88097634709845" fill="none" id="id84" stroke="none" /><text fill="#e1ed5e" style="font-size:6.75px; font-family:Arial;" text-anchor="middle"><textPath startOffset="22.145653131862474" xlink:href="#id84">December</textPath></text></svg>