<?xml version="1.0" encoding="utf-8" ?>
<svg baseProfile="full" height="200mm" version="1.1" viewBox="0,0,200,200" width="200mm" xmlns="http://www.w3.org/2000/svg" xmlns:ev="http://www.w3.org/2001/xml-events" xmlns:xlink="http://www.w3.org/1999/xlink"><defs /><rect fill="#1a1a1a" height="200" width="200" x="0" y="0" /><text alignment-baseline="middle" fill="#e1ed5e" style="dominant-baseline: central; font-size:9.0px; font-family:Arial;" text-anchor="middle" x="100.0" y="100.0">2024</text><line stroke="#e1ed5e" stroke-width="0.3" x1="100.0" x2="100.0" y1="15.0" y2="10.0" /><path d="M 100.0 14.0 a86.0,86.0 0 0,1 42.35913384403234,11.155469271406648" fill="none" id="id37" stroke="none" /><text fill="#e1ed5e" style="font-size:6.75px; font-family:Arial;" text-anchor="middle"><textPath startOffset="22.145653131862478" xlink:href="#id37">January</textPath></text><path d="M 100.0 79.0 l 0.0 -43.49601637087248 a64.49601637087248,64.49601637087248 0 0,0 1.107159884887402,0.009503636028870107 l -0.7466669600385472 43.48960713303805" fill="#e0ff1b" stroke="none" /><path d="M 100.72087961077811 79.0123766808444 l 1.6052654058168563 -46.7355507921636 a67.76311136857787,67.76311136857787 0 0,0 1.1622155760237314,0.0499105375402989 l -2.407306742441424 46.701107686197474" fill="#93ff23" stroke="none" /><path d="M 101.44090949804482 79.04949213459386 l 3.265681388417039 -47.482290669038036 a68.59445978377809,68.59445978377809 0 0,0 1.1740464587111037,0.09087862109298551 l -4.080296841903376 47.41923428095" fill="#81ff25" stroke="none" /><path d="M 102.15924093988457 79.11130261209362 l 6.477722819653705 -62.666092163719114 a84.0,84.0 0 0,0 1.4330563935968135,0.16057695797211657 l -7.552515114851315 62.54565944524002" fill="#4dd2ff" stroke="none" /><path d="M 102.87502721639298 79.19773525538626 l 6.505263058041648 -47.06884289482177 a68.5162542601133,68.5162542601133 0 0,0 1.163715607256339,0.17102611951885782 l -7.312303770905669 46.950235702004036" fill="#82ff25" stroke="none" /><path d="M 103.58742460773223 79.30868818359171 l 8.11937566820783 -46.8304012141031 a68.52905152762207,68.52905152762207 0 0,0 1.1573749675970313,0.2109122732848443 l -8.922085369355916 46.684120766886885" fill="#82ff25" stroke="none" /><path d="M 104.29559338865022 79.4440306129975 l 9.023819498686095 -43.182242960643535 a65.11502494000106,65.11502494000106 0 0,0 1.092188525078609,0.23803740563001993 l -9.763770440383839 43.0209740968798" fill="#d1ff1c" stroke="none" /><path d="M 104.64783097203109 79.52079915486377 l 8.484173643910003 -37.3828345101622 a59.33350386325507,59.33350386325507 0 0,0 0.9913437481698343,0.233954425278999 l -9.124649545819722 37.23168394123697" fill="#ff990e" stroke="none" /><path d="M 105.69591212413111 79.78721728523813 l 12.902289347694008 -45.78567320290397 a68.56886524876053,68.56886524876053 0 0,0 1.130210769914924,0.3289878832539861 l -13.686360129990536 45.55744162534747" fill="#81ff25" stroke="none" /><path d="M 106.72888874123014 80.10723608172694 l 15.21908697986003 -44.99252640142063 a68.49682137241479,68.49682137241479 0 0,0 1.1106082052652697,0.3863271851151467 l -15.989200957170318 44.724640783736895" fill="#83ff25" stroke="none" /><path d="M 107.74402155503746 80.48000691201159 l 12.179622131701953 -30.70060408993561 a54.02832552155824,54.02832552155824 0 0,0 0.8591675370130992,0.3494159576909424 l -12.704844129905492 30.487000875665373" fill="#ff0000" stroke="none" /><line stroke="#e1ed5e" stroke-width="0.3" x1="143.13028292997686" x2="145.6673583964461" y1="26.7553504044142" y2="22.446841604673864" /><path d="M 143.63769802327073 25.89364864446614 a86.0,86.0 0 0,1 29.32050498858742,28.57503671076993" fill="none" id="id38" stroke="none" /><text fill="#e1ed5e" style="font-size:6.75px; font-family:Arial;" text-anchor="middle"><textPath startOffset="20.669276256404974" xlink:href="#id38">February</textPath></text><line stroke="#e1ed5e" stroke-width="0.3" x1="172.87174338648825" x2="177.1583165268699" y1="56.24261187166439" y2="53.66864786411523" /><path d="M 173.72905801456457 55.72781907015455 a86.0,86.0 0 0,1 12.242430191666344,42.057860355516425" fill="none" id="id39" stroke="none" /><text fill="#e1ed5e" style="font-size:6.75px; font-family:Arial;" text-anchor="middle"><textPath startOffset="22.145653131862474" xlink:href="#id39">March</textPath></text><line stroke="#e1ed5e" stroke-width="0.3" x1="184.99686870605535" x2="189.99668451229388" y1="99.2704041080226" y2="99.22748670261217" /><path d="M 185.99683186730306 99.26182062694052 a86.0,86.0 0 0,1 -10.086455211305974,41.156179273409016" fill="none" id="id40" stroke="none" /><text fill="#e1ed5e" style="font-size:6.75px; font-family:Arial;" text-anchor="middle"><textPath startOffset="21.40746469413373" xlink:href="#id40">April</textPath></text><line stroke="#e1ed5e" stroke-width="0.3" x1="174.33088141563837" x2="178.70328620479359" y1="141.23008692659167" y2="143.65538615756765" /><path d="M 175.20536237346943 141.71514677278685 a86.0,86.0 0 0,1 -30.301960400862466,31.631185727798858" fill="none" id="id41" stroke="none" /><text fill="#e1ed5e" style="font-size:6.75px; font-family:Arial;" text-anchor="middle"><textPath startOffset="22.145653131862474" xlink:href="#id41">May</textPath></text><line stroke="#e1ed5e" stroke-width="0.3" x1="143.1302829299769" x2="145.66735839644613" y1="173.24464959558577" y2="177.55315839532614" /><path d="M 143.63769802327073 174.10635135553383 a86.0,86.0 0 0,1 -40.68552437913181,11.842963189579606" fill="none" id="id42" stroke="none" /><text fill="#e1ed5e" style="font-size:6.75px; font-family:Arial;" text-anchor="middle"><textPath startOffset="21.407464694133747" xlink:href="#id42">June</textPath></text><line stroke="#e1ed5e" stroke-width="0.3" x1="101.45913802915013" x2="101.54496967792366" y1="184.9874750549273" y2="189.98673829345242" /><path d="M 101.47630435890484 185.9873277026323 a86.0,86.0 0 0,1 -42.54439059252881,-10.42667462771756" fill="none" id="id43" stroke="none" /><text fill="#e1ed5e" style="font-size:6.75px; font-family:Arial;" text-anchor="middle"><textPath startOffset="22.145653131862474" xlink:href="#id43">July</textPath></text><line stroke="#e1ed5e" stroke-width="0.3" x1="58.13341422392154" x2="55.67067388415222" y1="173.97424548756322" y2="178.32567169271397" /><path d="M 57.64086615596768 174.84453072859336 a86.0,86.0 0 0,1 -31.369924170532247,-30.572349798747897" fill="none" id="id44" stroke="none" /><text fill="#e1ed5e" style="font-size:6.75px; font-family:Arial;" text-anchor="middle"><textPath startOffset="22.145653131862474" xlink:href="#id44">August</textPath></text><line stroke="#e1ed5e" stroke-width="0.3" x1="26.387840678322732" x2="22.057713659400548" y1="142.50000000000003" y2="145.00000000000006" /><path d="M 25.521815274538298 143.00000000000003 a86.0,86.0 0 0,1 -11.493303480769221,-40.785679425670985" fill="none" id="id45" stroke="none" /><text fill="#e1ed5e" style="font-size:6.75px; font-family:Arial;" text-anchor="middle"><textPath startOffset="21.40746469413373" xlink:href="#id45">September</textPath></text><line stroke="#e1ed5e" stroke-width="0.3" x1="15.003131293944662" x2="10.003315487706104" y1="100.72959589197737" y2="100.7725132973878" /><path d="M 14.003168132696942 100.73817937305945 a86.0,86.0 0 0,1 10.791469493833604,-42.45332614584628" fill="none" id="id46" stroke="none" /><text fill="#e1ed5e" style="font-size:6.75px; font-family:Arial;" text-anchor="middle"><textPath startOffset="22.145653131862435" xlink:href="#id46">October</textPath></text><line stroke="#e1ed5e" stroke-width="0.3" x1="26.387840678322718" x2="22.05771365940052" y1="57.49999999999999" y2="54.99999999999999" /><path d="M 25.521815274538284 56.99999999999999 a86.0,86.0 0 0,1 29.574782752854787,-30.34633250058573" fill="none" id="id47" stroke="none" /><text fill="#e1ed5e" style="font-size:6.75px; font-family:Arial;" text-anchor="middle"><textPath startOffset="21.40746469413373" xlink:href="#id47">November</textPath></text><line stroke="#e1ed5e" stroke-width="0.3" x1="56.869717070023135" x2="54.33264160355391" y1="26.7553504044142" y2="22.446841604673864" /><path d="M 56.362301976729285 25.89364864446614 a86.0,86.0 0 0,1 42.16139366436587,-11.88097634709845" fill="none" id="id48" stroke="none" /><text fill="#e1ed5e" style="font-size:6.75px; font-family:Arial;" text-anchor="middle"><textPath startOffset="22.145653131862474" xlink:href="#id48">December</textPath></text></svg>