<?xml version="1.0" encoding="utf-8" ?>
<svg baseProfile="full" height="200mm" version="1.1" viewBox="0,0,200,200" width="200mm" xmlns="http://www.w3.org/2000/svg" xmlns:ev="http://www.w3.org/2001/xml-events" xmlns:xlink="http://www.w3.org/1999/xlink"><defs /><rect fill="#1a1a1a" height="200" width="200" x="0" y="0" /><text alignment-baseline="middle" fill="#e1ed5e" style="dominant-baseline: central; font-size:9.0px; font-family:Arial;" text-anchor="middle" x="100.0" y="100.0">2021</text><line stroke="#e1ed5e" stroke-width="0.3" x1="100.0" x2="100.0" y1="15.0" y2="10.0" /><path d="M 100.0 14.0 a86.0,86.0 0 0,1 42.46469731375804,11.215312516191453" fill="none" id="id1" stroke="none" /><text fill="#e1ed5e" style="font-size:6.75px; font-family:Arial;" text-anchor="middle"><textPath startOffset="22.20632615414155" xlink:href="#id1">January</textPath></text><line stroke="#e1ed5e" stroke-width="0.3" x1="143.23703022742887" x2="145.7803849466894" y1="26.81831364943548" y2="22.513508569990506" /><path d="M 143.74570117128098 25.957352633546492 a86.0,86.0 0 0,1 28.547481713284135,27.462654790039103" fill="none" id="id2" stroke="none" /><text fill="#e1ed5e" style="font-size:6.75px; font-family:Arial;" text-anchor="middle"><textPath startOffset="19.985693538727396" xlink:href="#id2">February</textPath></text><line stroke="#e1ed5e" stroke-width="0.3" x1="172.23445277983987" x2="176.4835382374775" y1="55.19839476539836" y2="52.563006222186495" /><path d="M 173.08426987136738 54.67131705675599 a86.0,86.0 0 0,1 12.851231095245387,41.99856678651699" fill="none" id="id3" stroke="none" /><text fill="#e1ed5e" style="font-size:6.75px; font-family:Arial;" text-anchor="middle"><textPath startOffset="22.20632615414155" xlink:href="#id3">March</textPath></text><path d="M 120.73433829027371 96.67025291283417 l 14.374659944424325 -2.3084402988350385 a35.55883735506111,35.55883735506111 0 0,0 0.09185035060297803,0.605179049190687 l -14.412266188466603 2.0606621372522693" fill="#ff1a02" stroke="none" /><path d="M 120.94382443527127 98.46500227214037 l 33.04756314937174 -2.4220950907205374 a54.13620338451896,54.13620338451896 0 0,0 0.060115441342463945,0.9299592698437795 l -33.08435918171862 1.8528767566237228" fill="#bbff1f" stroke="none" /><path d="M 120.96714384426684 98.82574320788733 l 44.229109057261425 -2.477034168570479 a65.29841742400501,65.29841742400501 0 0,0 0.05319144334227189,1.1227872993763524 l -44.2651941088372 1.715335762571127" fill="#30ff37" stroke="none" /><path d="M 120.98425023603335 99.18683210126433 l 42.58254132627844 -1.6501307058212094 a63.61450172359763,63.61450172359763 0 0,0 0.032983530086591654,1.0945627871152226 l -42.60463655082068 0.9168977712809877" fill="#3eff2e" stroke="none" /><line stroke="#e1ed5e" stroke-width="0.3" x1="184.98032266829074" x2="189.97916517819016" y1="98.17113171792111" y2="98.06355123074" /><path d="M 185.9800911702706 98.14961562048488 a86.0,86.0 0 0,1 -9.607161424134198,41.387399972396054" fill="none" id="id4" stroke="none" /><text fill="#e1ed5e" style="font-size:6.75px; font-family:Arial;" text-anchor="middle"><textPath startOffset="21.466115282336823" xlink:href="#id4">April</textPath></text><path d="M 120.99513854157772 99.54816195383933 l 41.375095179790485 -0.890436713657586 a62.38467565026638,62.38467565026638 0 0,0 0.013864230343972245,1.0737999190585534 l -41.384292417252176 0.1781005365385699" fill="#4dff2c" stroke="none" /><path d="M 120.99980553446 99.90962569577887 l 41.32012817282691 -0.1778244006983455 a62.32051081165779,62.32051081165779 0 0,0 -0.004616770837583466,1.0727749510437659 l -41.31706710469983 -0.5334600285491051" fill="#4eff2c" stroke="none" /><path d="M 120.9764740272857 100.99374915477107 l 41.29722781507854 1.9564339165028262 a62.343544343466,62.343544343466 0 0,0 -0.06000907284697996,1.071502307497791 l -41.25743239134403 -2.6670079403360405" fill="#4dff2c" stroke="none" /><path d="M 120.95626037817324 101.35467743843564 l 41.06041333420045 2.654272019573562 a62.1461140708242,62.1461140708242 0 0,0 -0.07819591425665724,1.066921123088961 l -41.00864086127945 -3.360666279159293" fill="#50ff2b" stroke="none" /><path d="M 120.92983693683757 101.71520430193887 l 41.00372159531184 3.3602631443343305 a62.141178314008144,62.141178314008144 0 0,0 -0.09654195382441745,1.0653324157411854 l -40.93980504521035 -4.065576948624086" fill="#50ff2b" stroke="none" /><path d="M 120.64145759157962 103.86396538481128 l 16.1886016311899 3.030415660032383 a37.469797869006584,37.469797869006584 0 0,0 -0.12413220710167171,0.6329474496937549 l -16.134039491112564 -3.3086268367940828" fill="#ff3c05" stroke="none" /><path d="M 120.5718875245553 104.21870165774334 l 32.26082627979169 6.615766353198018 a53.9321921027891,53.9321921027891 0 0,0 -0.1943252932931208,0.9078230760442081 l -32.14216694777412 -7.170103248658395" fill="#beff1f" stroke="none" /><path d="M 119.9155931802556 106.66101706037122 l 15.765211022665515 5.272870289720373 a37.62362895643999,37.62362895643999 0 0,0 -0.21070874945081466,0.6124182564833813 l -15.672111442271468 -5.543461249293054" fill="#ff3e05" stroke="none" /><path d="M 119.79798401119884 107.00284435728193 l 15.58292434726646 5.511914433988784 a37.52902695079912,37.52902695079912 0 0,0 -0.2206630636430802,0.6071699801309657 l -15.485737022618151 -5.7793322111258805" fill="#ff3d05" stroke="none" /><path d="M 118.97047184881838 109.00673069616215 l 22.31453026779686 10.594410425585913 a45.70181761203385,45.70181761203385 0 0,0 -0.34351824175465895,0.7077493247568615 l -22.128858769427488 -10.97694870630805" fill="#ffc512" stroke="none" /><line stroke="#e1ed5e" stroke-width="0.3" x1="174.80103733775053" x2="179.2010983576182" y1="140.37084112569926" y2="142.7455964860345" /><path d="M 175.68104954172406 140.8457921977663 a86.0,86.0 0 0,1 -30.038265399797805,32.042727171017184" fill="none" id="id5" stroke="none" /><text fill="#e1ed5e" style="font-size:6.75px; font-family:Arial;" text-anchor="middle"><textPath startOffset="22.206326154141568" xlink:href="#id5">May</textPath></text><path d="M 117.14729908036423 112.12312394758627 l 20.28282055118609 14.33993460989169 a45.84001880288311,45.84001880288311 0 0,0 -0.46106372805005913,0.6403771924882938 l -20.032977030760428 -14.686945407831114" fill="#ffc712" stroke="none" /><path d="M 116.71984013943494 112.70617746262583 l 13.991273310036394 10.632613716570546 a38.57293951739267,38.57293951739267 0 0,0 -0.40628910767176324,0.5251834399886236 l -13.806177385146562 -10.871875150672423" fill="#ff4f07" stroke="none" /><path d="M 116.498646956653 112.99209946851258 l 19.416027572538756 15.289433258894338 a45.71333437793795,45.71333437793795 0 0,0 -0.4921412420523255,0.6140218696355622 l -19.149968418431577 -15.62138296210815" fill="#ffc512" stroke="none" /><path d="M 116.27256486870786 113.27417163493432 l 19.192676889373423 15.6562219428172 a45.76845032905045,45.76845032905045 0 0,0 -0.5032437266500677,0.6061894875415681 l -18.920337162829814 -15.984272687472538" fill="#ffc612" stroke="none" /><path d="M 115.07121518719521 114.62390073753431 l 9.424232530288192 9.144520819228308 a34.13158100908806,34.13158100908806 0 0,0 -0.4127635704254455,0.41812731762175814 l -9.265428334807211 -9.30538863083073" fill="#ff0000" stroke="none" /><path d="M 114.29624159901734 115.38237550388516 l 22.585127211170885 24.300995835795387 a54.175689439047325,54.175689439047325 0 0,0 -0.688548377105952,0.6289726171618383 l -22.16347928459807 -24.686161219543806" fill="#baff1f" stroke="none" /><path d="M 113.48314897796784 116.09983520530334 l 21.213459556216716 25.330373753752877 a54.039956126606086,54.039956126606086 0 0,0 -0.7182936193842899,0.5911067475726355 l -20.774295808287736 -25.69177562018269" fill="#bcff1f" stroke="none" /><path d="M 112.92097659922987 116.55440617244103 l 10.09312105786756 12.931346501278858 a37.40398777812598,37.40398777812598 0 0,0 -0.5109585492059439,0.39178122714083546 l -9.869033780168122 -13.103167070247066" fill="#ff3a05" stroke="none" /><path d="M 112.63410532772338 116.77436683061366 l 19.93207293829251 26.46391608179782 a54.13044500156691,54.13044500156691 0 0,0 -0.7491009940660308,0.5541670069345707 l -19.473586973807915 -26.80309303747216" fill="#bbff1f" stroke="none" /><path d="M 112.04921762599082 117.19931262002967 l 25.382275425230432 36.23120634028188 a65.23754308994046,65.23754308994046 0 0,0 -0.9252644320693695,0.6364053133888504 l -24.75485410853818 -36.66275244303583" fill="#30ff36" stroke="none" /><line stroke="#e1ed5e" stroke-width="0.3" x1="143.8653032363475" x2="146.44561519142675" y1="172.8068346515853" y2="177.08958963109032" /><path d="M 144.38136562736335 173.6633856474863 a86.0,86.0 0 0,1 -40.68145358897372,12.25698825130547" fill="none" id="id6" stroke="none" /><text fill="#e1ed5e" style="font-size:6.75px; font-family:Arial;" text-anchor="middle"><textPath startOffset="21.466115282336833" xlink:href="#id6">June</textPath></text><path d="M 110.5260780823613 118.17145234162733 l 16.84139506408511 29.073754287113236 a54.5993418990912,54.5993418990912 0 0,0 -0.817303354822398,0.4640861751754513 l -16.338442942341512 -29.359343628083312" fill="#b4ff20" stroke="none" /><path d="M 107.93186726928326 119.44442032107085 l 9.387865781656398 23.013699294141123 a45.854826073331246,45.854826073331246 0 0,0 -0.733412839990375,0.2918401049481709 l -8.990331865624157 -23.17188624349536" fill="#ffc712" stroke="none" /><path d="M 107.2578585660854 119.70592522655815 l 11.374379021207252 30.882754251759312 a53.9108038232529,53.9108038232529 0 0,0 -0.873561524370508,0.31322808280892406 l -10.84109793620701 -31.073969875608196" fill="#beff1f" stroke="none" /><path d="M 105.53697534728816 120.25689768951611 l 6.492411590033549 23.752339334859208 a45.623668129113135,45.623668129113135 0 0,0 -0.7593289545295966,0.2005456783247387 l -6.082592192692455 -23.86057636248753" fill="#ffc412" stroke="none" /><path d="M 104.83641907484287 120.43548508189849 l 7.636760282350403 32.26786149194009 a54.159236916327174,54.159236916327174 0 0,0 -0.9090495112982663,0.2068967091603726 l -7.080190621659275 -32.39453493467815" fill="#baff1f" stroke="none" /><path d="M 104.48393922423573 120.51570834832081 l 8.802593788098305 40.27517721231971 a62.225908806016925,62.225908806016925 0 0,0 -1.048383707423126,0.21969899913437188 l -8.1080186192458 -40.42073219218062" fill="#4fff2b" stroke="none" /><path d="M 104.13013068566511 120.58985236759428 l 12.390392056995317 61.76955710278282 a84.0,84.0 0 0,0 -1.4201295417131825,0.2721712066061275 l -11.32529490071043 -61.973685507737414" fill="#4dd2ff" stroke="none" /><line stroke="#e1ed5e" stroke-width="0.3" x1="102.19456741930631" x2="102.32365962044197" y1="184.97166512339345" y2="189.96999836594603" /><path d="M 102.22038585953345 185.97133177190398 a86.0,86.0 0 0,1 -42.740103519485714,-10.115201625700543" fill="none" id="id7" stroke="none" /><text fill="#e1ed5e" style="font-size:6.75px; font-family:Arial;" text-anchor="middle"><textPath startOffset="22.20632615414155" xlink:href="#id7">July</textPath></text><line stroke="#e1ed5e" stroke-width="0.3" x1="58.666819895761336" x2="56.23545636021788" y1="174.27360380694188" y2="178.64263932499728" /><path d="M 58.180547188652646 175.14741091055294 a86.0,86.0 0 0,1 -31.652253787137756,-30.449443065178592" fill="none" id="id8" stroke="none" /><text fill="#e1ed5e" style="font-size:6.75px; font-family:Arial;" text-anchor="middle"><textPath startOffset="22.20632615414155" xlink:href="#id8">August</textPath></text><line stroke="#e1ed5e" stroke-width="0.3" x1="26.63291911575756" x2="22.317208475507996" y1="142.92168965132927" y2="145.44649492493687" /><path d="M 25.769776987707644 143.4266507060508 a86.0,86.0 0 0,1 -11.730757126820373,-40.83630448921669" fill="none" id="id9" stroke="none" /><text fill="#e1ed5e" style="font-size:6.75px; font-family:Arial;" text-anchor="middle"><textPath startOffset="21.46611528233685" xlink:href="#id9">September</textPath></text><line stroke="#e1ed5e" stroke-width="0.3" x1="15.007084014347285" x2="10.007500721073583" y1="101.09737516637583" y2="101.16192664675087" /><path d="M 14.007167355692545 101.11028546245083 a86.0,86.0 0 0,1 10.666146001902534,-42.60595125391555" fill="none" id="id10" stroke="none" /><text fill="#e1ed5e" style="font-size:6.75px; font-family:Arial;" text-anchor="middle"><textPath startOffset="22.20632615414155" xlink:href="#id10">October</textPath></text><line stroke="#e1ed5e" stroke-width="0.3" x1="26.266209847984243" x2="21.928928074336255" y1="57.711370442889674" y2="55.22380399835377" /><path d="M 25.398753493254645 57.213857153982495 a86.0,86.0 0 0,1 29.58750427330803,-30.492523968695096" fill="none" id="id11" stroke="none" /><text fill="#e1ed5e" style="font-size:6.75px; font-family:Arial;" text-anchor="middle"><textPath startOffset="21.46611528233685" xlink:href="#id11">November</textPath></text><line stroke="#e1ed5e" stroke-width="0.3" x1="56.762969772571076" x2="54.21961505331055" y1="26.818313649435495" y2="22.513508569990535" /><path d="M 56.25429882871897 25.957352633546506 a86.0,86.0 0 0,1 42.265352541879196,-11.944610805530505" fill="none" id="id12" stroke="none" /><text fill="#e1ed5e" style="font-size:6.75px; font-family:Arial;" text-anchor="middle"><textPath startOffset="22.20632615414155" xlink:href="#id12">December</textPath></text></svg>