<?xml version="1.0" encoding="utf-8" ?>
<svg baseProfile="full" height="200mm" version="1.1" viewBox="0,0,200,200" width="200mm" xmlns="http://www.w3.org/2000/svg" xmlns:ev="http://www.w3.org/2001/xml-events" xmlns:xlink="http://www.w3.org/1999/xlink"><defs /><rect fill="#1a1a1a" height="200" width="200" x="0" y="0" /><text alignment-baseline="middle" fill="#e1ed5e" style="dominant-baseline: central; font-size:9.0px; font-family:Arial;" text-anchor="middle" x="100.0" y="100.0">2016</text><line stroke="#e1ed5e" stroke-width="0.3" x1="100.0" x2="100.0" y1="15.0" y2="10.0" /><path d="M 100.0 14.0 a86.0,86.0 0 0,1 42.35913384403234,11.155469271406648" fill="none" id="id49" stroke="none" /><text fill="#e1ed5e" style="font-size:6.75px; font-family:Arial;" text-anchor="middle"><textPath startOffset="22.145653131862478" xlink:href="#id49">January</textPath></text><path d="M 100.72087961077811 79.0123766808444 l 0.9443135046744981 -27.492657352186246 a48.50887013819054,48.50887013819054 0 0,0 0.831983114577885,0.03572893474298647 l -1.4161223798532194 27.472395849017428" fill="#a4ff21" stroke="none" /><path d="M 101.44090949804482 79.04949213459386 l 0.15258772302851553 -2.2185920044326766 a23.223833063732894,23.223833063732894 0 0,0 0.39749360301284203,0.03076851879843589 l -0.19065032081659106 2.2156457186391867" fill="#ff1c02" stroke="none" /><path d="M 102.51750503828377 79.15144685158666 l 0.7589502272734708 -6.285196617162749 a27.330853178195852,27.330853178195852 0 0,0 0.46530410275483614,0.060242931814285326 l -0.8667321519190987 6.271242089148068" fill="#ff5507" stroke="none" /><path d="M 103.94208987418118 79.37332000966035 l 0.36801335576397326 -1.9256013849991762 a22.960452632412068,22.960452632412068 0 0,0 0.3865047952075075,0.07731178373960482 l -0.4010146365024377 1.9190002045967123" fill="#ff1802" stroke="none" /><path d="M 104.64783097203109 79.52079915486377 l 0.4928289268999755 -2.171495184960884 a23.226717694162797,23.226717694162797 0 0,0 0.38807182919250505,0.09158389502462298 l -0.5300329098323655 2.1627151462900334" fill="#ff1c02" stroke="none" /><path d="M 105.3480935250658 79.69241777938227 l 1.737966623194684 -6.599342351026133 a27.82435692570266,27.82435692570266 0 0,0 0.4608489926567132,0.12560644225303005 l -1.85099701678609 6.56853541462896" fill="#ff5c08" stroke="none" /><path d="M 106.38641147887787 79.99465700312896 l 2.878957396878745 -9.018293041158367 a30.466678671490243,30.466678671490243 0 0,0 0.49686403354180453,0.16332907679890732 l -3.033344168068292 8.967543042957438" fill="#ff7f0b" stroke="none" /><path d="M 106.72888874123014 80.10723608172694 l 0.896898239940825 -2.651520278011868 a23.799104542084322,23.799104542084322 0 0,0 0.38587893938461426,0.13422872597278313 l -0.9422829513704575 2.635733119470494" fill="#ff2403" stroke="none" /><path d="M 107.74402155503746 80.48000691201159 l 1.0900781205942442 -2.74770895562985 a23.956040394488337,23.956040394488337 0 0,0 0.3809529912990952,0.15493026511774866 l -1.1370855730837792 2.7285914339328077" fill="#ff2603" stroke="none" /><path d="M 108.73861861582097 80.90454125486305 l 0.8062331342195543 -1.7617649001844693 a22.937479659308835,22.937479659308835 0 0,0 0.35663552305272,0.16692343237189572 l -0.8363573711437794 1.74766523624204" fill="#ff1802" stroke="none" /><path d="M 109.71004243097381 81.37971332152246 l 0.7137425517189527 -1.3686954534041238 a22.543617722852197,22.543617722852197 0 0,0 0.34160149009732865,0.18188355269637896 l -0.737132857602841 1.3562414329851717" fill="#ff1202" stroke="none" /><line stroke="#e1ed5e" stroke-width="0.3" x1="143.13028292997686" x2="145.6673583964461" y1="26.7553504044142" y2="22.446841604673864" /><path d="M 143.63769802327073 25.89364864446614 a86.0,86.0 0 0,1 29.32050498858742,28.57503671076993" fill="none" id="id50" stroke="none" /><text fill="#e1ed5e" style="font-size:6.75px; font-family:Arial;" text-anchor="middle"><textPath startOffset="20.669276256404974" xlink:href="#id50">February</textPath></text><path d="M 111.5731344415666 82.4767994020092 l 1.9889098589468548 -3.0114630228843646 a24.608971039675414,24.608971039675414 0 0,0 0.3505064087657296,0.2358363544216 l -2.0403125558095856 2.976876994405646" fill="#ff2f04" stroke="none" /><path d="M 112.45986205192187 83.09580414077388 l 0.9933827988791996 -1.3477145513701798 a22.674259208451307,22.674259208451307 0 0,0 0.3113359462580699,0.23363229826631246 l -1.0163717340480358 1.3304632258398523" fill="#ff1402" stroke="none" /><path d="M 113.59037401385872 83.9905735841838 l 1.1791663603361364 -1.38905500750433 a22.822061228175723,22.822061228175723 0 0,0 0.2964917436740361,0.256102506555668 l -1.2028375837730327 1.368608368483942" fill="#ff1602" stroke="none" /><path d="M 114.39649973595853 84.71141617570332 l 1.8629438204978197 -1.9783817790443 a23.717453613584876,23.717453613584876 0 0,0 0.29401455908711055,0.28165929672705486 l -1.8966308654502422 1.9461103520116647" fill="#ff2303" stroke="none" /><path d="M 115.6541949942343 86.00192230759917 l 0.2180848734291266 -0.1950128385983885 a21.292559428555634,21.292559428555634 0 0,0 0.24130445542859258,0.27456017462981686 l -0.22140039281630938 0.19124038615727382" fill="#ff0000" stroke="none" /><path d="M 116.35404254752997 86.82634096563983 l 3.2239584345848713 -2.5969927028583717 a25.139840466326035,25.139840466326035 0 0,0 0.26783934479204236,0.33840626252367073 l -3.268064210018473 2.5412664964200227" fill="#ff3705" stroke="none" /><path d="M 117.01052211995028 87.68569379921539 l 5.098409864990934 -3.6908555640961582 a27.29413996876908,27.29413996876908 0 0,0 0.27149208276599013,0.38188761429536683 l -5.161017046286885 3.6027907230912875" fill="#ff5407" stroke="none" /><path d="M 117.42321728460499 88.27688183743584 l 5.118683043440762 -3.4440783911930657 a27.169488800856275,27.169488800856275 0 0,0 0.25704349674986743,0.38919661554948415 l -5.177050979111353 3.355701897304523" fill="#ff5307" stroke="none" /><path d="M 117.81537515405839 88.88188828441811 l 1.2146670971968891 -0.7580421050409459 a22.431797468229227,22.431797468229227 0 0,0 0.20106585230328286,0.3284259590519843 l -1.2275009139555744 0.7370790298644069" fill="#ff1001" stroke="none" /><line stroke="#e1ed5e" stroke-width="0.3" x1="172.87174338648825" x2="177.1583165268699" y1="56.24261187166439" y2="53.66864786411523" /><path d="M 173.72905801456457 55.72781907015455 a86.0,86.0 0 0,1 12.242430191666344,42.057860355516425" fill="none" id="id51" stroke="none" /><text fill="#e1ed5e" style="font-size:6.75px; font-family:Arial;" text-anchor="middle"><textPath startOffset="22.145653131862474" xlink:href="#id51">March</textPath></text><path d="M 118.00360718960297 89.18935116829356 l 1.0147879697530076 -0.6093510186100675 a22.18368208883828,22.18368208883828 0 0,0 0.1932370790558053,0.32815880589736995 l -1.0250987589385807 0.591841044419141" fill="#ff0d01" stroke="none" /><path d="M 118.36410011445183 89.81374322990088 l 0.5588733512272155 -0.3099976270052118 a21.639091504763442,21.639091504763442 0 0,0 0.17739382060210424,0.3263846496254568 l -0.564112521444661 0.30035814390515164" fill="#ff0500" stroke="none" /><path d="M 119.0197475246899 91.09779779509293 l 4.589250312795478 -2.148000871221054 a26.06706287470955,26.06706287470955 0 0,0 0.18621258984793213,0.40690811483963607 l -4.625447367498461 2.068903774166734" fill="#ff4406" stroke="none" /><path d="M 119.4528033332814 92.08871423366111 l 6.697946714830163 -2.723996618938401 a28.23067408854057,28.23067408854057 0 0,0 0.17871539142524195,0.4504795319259669 l -6.74372078122153 2.608616069798869" fill="#ff6109" stroke="none" /><path d="M 119.83427380445688 93.10060997987247 l 2.688688051824233 -0.9352652733786434 a23.846711185141622,23.846711185141622 0 0,0 0.13117346616367634,0.38779104471543546 l -2.704346939560274 0.8889725541890463" fill="#ff2503" stroke="none" /><path d="M 120.05942366710727 93.78553927170692 l 2.175047819674194 -0.6738353744274841 a23.277034722989374,23.277034722989374 0 0,0 0.11497046194627641,0.38269927570291673 l -2.186294601624098 0.6363984951338438" fill="#ff1c02" stroke="none" /><path d="M 120.16314734710363 94.1308016681162 l 2.3032810654354146 -0.6704515497703262 a23.39887660103281,23.39887660103281 0 0,0 0.10895130656236983,0.3866297509585515 l -2.3144508640723664 0.6308138749087615" fill="#ff1e03" stroke="none" /><path d="M 120.35273937422433 94.82641323984039 l 1.3981285216068586 -0.35539880285340947 a22.442591997759664,22.442591997759664 0 0,0 0.09170734908159268,0.3741972794625012 l -1.4040233972047427 0.33134569878281334" fill="#ff1101" stroke="none" /><path d="M 120.51834098615036 95.52812308129327 l 11.412875851301461 -2.4873831724479962 a32.68078808316449,32.68078808316449 0 0,0 0.11475981549125251,0.5491672606465119 l -11.45389337761708 2.29109946051608" fill="#ff9c0e" stroke="none" /><path d="M 120.77682067341334 96.94652285012252 l 1.5822548875335225 -0.23253698052791888 a22.599251067355205,22.599251067355205 0 0,0 0.053114141043783106,0.3843074658130589 l -1.5860135451325181 0.2053412065147743" fill="#ff1302" stroke="none" /><path d="M 120.9064616781168 98.02013634271609 l 11.649043508359929 -1.103176531706557 a32.70116289604459,32.70116289604459 0 0,0 0.04812735612799016,0.5593128304094839 l -11.666264487185659 0.9030426539214111" fill="#ff9d0e" stroke="none" /><line stroke="#e1ed5e" stroke-width="0.3" x1="184.99686870605535" x2="189.99668451229388" y1="99.2704041080226" y2="99.22748670261217" /><path d="M 185.99683186730306 99.26182062694052 a86.0,86.0 0 0,1 -10.086455211305974,41.156179273409016" fill="none" id="id52" stroke="none" /><text fill="#e1ed5e" style="font-size:6.75px; font-family:Arial;" text-anchor="middle"><textPath startOffset="21.40746469413373" xlink:href="#id52">April</textPath></text><path d="M 120.98066250479742 100.90099992219065 l 9.370082934608691 0.4023916781975721 a30.37871916970157,30.37871916970157 0 0,0 -0.026846702006419403,0.5208188467704566 l -9.361794643145698 -0.5631823183447594" fill="#ff7e0b" stroke="none" /><path d="M 120.26092885502905 105.52220625578681 l 5.709567296827818 1.556167956068425 a26.917838915051668,26.917838915051668 0 0,0 -0.12533651805749102,0.4447750861513413 l -5.682012286695747 -1.6539509661227747" fill="#ff4f07" stroke="none" /><path d="M 119.0197475246899 108.90220220490707 l 8.214959364178972 3.845015780050865 a30.070264808921067,30.070264808921067 0 0,0 -0.22283604394791628,0.46564162740251475 l -8.147744062271142 -3.985469909518483" fill="#ff7a0b" stroke="none" /><line stroke="#e1ed5e" stroke-width="0.3" x1="174.33088141563837" x2="178.70328620479359" y1="141.23008692659167" y2="143.65538615756765" /><path d="M 175.20536237346943 141.71514677278685 a86.0,86.0 0 0,1 -30.301960400862466,31.631185727798858" fill="none" id="id53" stroke="none" /><text fill="#e1ed5e" style="font-size:6.75px; font-family:Arial;" text-anchor="middle"><textPath startOffset="22.145653131862474" xlink:href="#id53">May</textPath></text><path d="M 118.18653347947321 110.5 l 2.3473411992151396 1.355238073246759 a23.71047614649352,23.71047614649352 0 0,0 -0.20653663964451224,0.3507443673386607 l -2.323730849440862 -1.3953336088789694" fill="#ff2303" stroke="none" /><path d="M 117.62189284568427 111.42229804090321 l 5.767748842162216 3.738585115524975 a27.87342311896252,27.87342311896252 0 0,0 -0.26370323701713655,0.39928031113110163 l -5.702721166224352 -3.837045304995138" fill="#ff5c08" stroke="none" /><path d="M 117.423217284605 111.72311816256416 l 1.7131168911650114 1.1526614983535337 a23.064799751206273,23.064799751206273 0 0,0 -0.2238496622664421,0.32660334707494454 l -1.693077492083249 -1.1818995804985224" fill="#ff1902" stroke="none" /><path d="M 116.79662413953412 112.60449989151573 l 2.061796589879011 1.547210598842294 a23.577763723696695,23.577763723696695 0 0,0 -0.24571176044468734,0.3216445818755715 l -2.0349328520800194 -1.5823760939587428" fill="#ff2103" stroke="none" /><path d="M 116.1254893667686 113.45245675266167 l 3.8332698562768917 3.1978500490729638 a25.99201389495232,25.99201389495232 0 0,0 -0.28876562605195216,0.34016518139836077 l -3.777809666717825 -3.2631820129208813" fill="#ff4306" stroke="none" /><path d="M 115.89218393027572 113.72728997021213 l 1.1522455637488338 0.9952822745990181 a22.522582229408272,22.522582229408272 0 0,0 -0.2552440657943878,0.2904208923671101 l -1.1349904339958605 -1.0149154447774213" fill="#ff1202" stroke="none" /><path d="M 115.41159269507618 114.26474011684316 l 8.895016937136774 8.233094882121595 a33.12044461436819,33.12044461436819 0 0,0 -0.3897868890715431,0.4139401685464865 l -8.75237421432897 -8.384576510612579" fill="#ffa20f" stroke="none" /><path d="M 114.91283532996324 114.78537596483092 l 4.146602405222572 4.111161571985184 a26.839174682946666,26.839174682946666 0 0,0 -0.3271926464703636,0.32439614492841345 l -4.075417838622243 -4.181737727142258" fill="#ff4e07" stroke="none" /><path d="M 114.39649973595853 115.28858382429668 l 1.5388545919980972 1.6342102493429693 a23.24470857671352,23.24470857671352 0 0,0 -0.2928503744705373,0.2710579346076959 l -1.5105744462135926 -1.6603859300830448" fill="#ff1c02" stroke="none" /><path d="M 114.13192950727249 115.5334660781643 l 4.928089795260263 5.4168339592572305 a28.32312495949036,28.32312495949036 0 0,0 -0.3624482964888932,0.32410350168747376 l -4.834376471947992 -5.500632990828091" fill="#ff6209" stroke="none" /><path d="M 113.03279911837588 116.46651593811092 l 11.448106471585437 14.464308546715653 a39.44655424515234,39.44655424515234 0 0,0 -0.5345760503132039,0.4156895700778833 l -11.198120476637003 -14.65869916841433" fill="#fff116" stroke="none" /><path d="M 112.45986205192187 116.90419585922612 l 0.8856527416689574 1.2015580386079316 a22.49268968609322,22.49268968609322 0 0,0 -0.31277583410022936,0.2264255833040406 l -0.8648958971947601 -1.2165843932850493" fill="#ff1101" stroke="none" /><path d="M 111.5731344415666 117.5232005979908 l 2.9016756233084373 4.393506726657437 a26.265227704485966,26.265227704485966 0 0,0 -0.37836232155467836,0.24524988558786123 l -2.8258276694967495 -4.442670453949193" fill="#ff4606" stroke="none" /><path d="M 110.96478420261333 117.91015095944535 l 3.239626914756729 5.291687097840586 a27.204605941417128,27.204605941417128 0 0,0 -0.40038345558357025,0.24041876112686927 l -3.148310702615722 -5.3465198595033785" fill="#ff5307" stroke="none" /><line stroke="#e1ed5e" stroke-width="0.3" x1="143.1302829299769" x2="145.66735839644613" y1="173.24464959558577" y2="177.55315839532614" /><path d="M 143.63769802327073 174.10635135553383 a86.0,86.0 0 0,1 -40.68552437913181,11.842963189579606" fill="none" id="id54" stroke="none" /><text fill="#e1ed5e" style="font-size:6.75px; font-family:Arial;" text-anchor="middle"><textPath startOffset="21.407464694133747" xlink:href="#id54">June</textPath></text><path d="M 110.34350942703117 118.27599006163325 l 1.37555797094073 2.4304791312332075 a23.79273853748945,23.79273853748945 0 0,0 -0.35718090969647687,0.19812222961486992 l -1.3336328730881586 -2.453734276281221" fill="#ff2403" stroke="none" /><path d="M 109.71004243097381 118.62028667847754 l 5.895271518326019 11.304960457076517 a33.74975910403211,33.74975910403211 0 0,0 -0.5160061391442337,0.2634764113363508 l -5.700338157468202 -11.404494820085704" fill="#ffaa0f" stroke="none" /><path d="M 109.3889696526874 118.78422872680471 l 4.880985590356081 9.765240823336084 a31.917140132425402,31.917140132425402 0 0,0 -0.4921923192739163,0.2407559274285198 l -4.712633021820095 -9.847590500861829" fill="#ff920d" stroke="none" /><path d="M 109.06512990194946 118.94263497670748 l 0.7754295589953829 1.6203495421549328 a22.79633617113431,22.79633617113431 0 0,0 -0.35444100201212225,0.1658962857170333 l -0.7474998431117544 -1.6334220594424997" fill="#ff1602" stroke="none" /><path d="M 108.07796709384702 119.3841803445677 l 0.5724821279467683 1.3737487022712283 a22.48826116115766,22.48826116115766 0 0,0 -0.3576121185882322,0.1454377353837235 l -0.5488155481680953 -1.3833736942342432" fill="#ff1101" stroke="none" /><path d="M 106.72888874123015 119.89276391827305 l 0.9275035046389177 2.741999304892625 a23.89461965362448,23.89461965362448 0 0,0 -0.38968399637723605,0.1280968697168689 l -0.8802967706139474 -2.757517096011513" fill="#ff2503" stroke="none" /><path d="M 106.0420521117495 120.11202640906438 l 0.6338154017703552 2.1097653352059718 a23.202914372634144,23.202914372634144 0 0,0 -0.38245030922162954,0.11132571112388659 l -0.5975050801671189 -2.1203347406323765" fill="#ff1b02" stroke="none" /><path d="M 105.3480935250658 120.30758222061773 l 1.9689680556098983 7.476492415785836 a28.731414750698306,28.731414750698306 0 0,0 -0.47802877295427276,0.12151304476799875 l -1.8403339894302282 -7.509190692389105" fill="#ff6809" stroke="none" /><path d="M 103.94208987418118 120.62667999033965 l 0.3688534717116948 1.9299972266368628 a22.96492803390347,22.96492803390347 0 0,0 -0.3878505866726272,0.07067929687457146 l -0.33566815148801044 -1.9360446974427978" fill="#ff1802" stroke="none" /><path d="M 102.51750503828377 120.84855314841334 l 0.16756431809255545 1.3876729295095485 a22.39775318278709,22.39775318278709 0 0,0 -0.38211004048566877,0.04281622704169336 l -0.1437183760060874 -1.3903449170582127" fill="#ff1001" stroke="none" /><path d="M 101.44090949804482 120.95050786540614 l 0.8088234573654075 11.760115557744701 a32.78789689964641,32.78789689964641 0 0,0 -0.5618528514779142,0.03379967234120316 l -0.6068262537550282 -11.772267207910597" fill="#ff9e0e" stroke="none" /><path d="M 101.08105385017728 120.97215588758144 l 0.622551024108062 12.077323551853281 a33.09335825789379,33.09335825789379 0 0,0 -0.5675892923667215,0.02437472640063978 l -0.41513597114051093 -12.08623084667975" fill="#ffa20e" stroke="none" /><line stroke="#e1ed5e" stroke-width="0.3" x1="101.45913802915013" x2="101.54496967792366" y1="184.9874750549273" y2="189.98673829345242" /><path d="M 101.47630435890484 185.9873277026323 a86.0,86.0 0 0,1 -42.54439059252881,-10.42667462771756" fill="none" id="id55" stroke="none" /><text fill="#e1ed5e" style="font-size:6.75px; font-family:Arial;" text-anchor="middle"><textPath startOffset="22.145653131862474" xlink:href="#id55">July</textPath></text><path d="M 100.0 121.0 l 6.005809418656464e-16 4.904115556287692 a25.904115556287692,25.904115556287692 0 0,0 -0.4446785896432762,-0.0038170308764671392 l 0.08418566479442349 -4.90339292360566" fill="#ff4106" stroke="none" /><path d="M 99.27912038922189 120.98762331915562 l -0.10858252392402501 3.161261710122227 a24.16312594823327,24.16312594823327 0 0,0 -0.414425500471955,-0.017797214153446844 l 0.16283378499681875 -3.1589319275429513" fill="#ff2904" stroke="none" /><path d="M 98.55909050195518 120.95050786540614 l -0.6133607921406882 8.918131303535558 a29.939198924312866,29.939198924312866 0 0,0 -0.512432207856664,-0.03966549373588913 l 0.7663619947725883 -8.906288042804617" fill="#ff780b" stroke="none" /><path d="M 97.84075906011543 120.88869738790638 l -0.1495437361792414 1.4466999923927308 a22.454408538554272,22.454408538554272 0 0,0 -0.3830765919120219,-0.042924531145049585 l 0.17435622969206263 -1.4439197007407103" fill="#ff1101" stroke="none" /><path d="M 96.76829788921471 120.74984581791261 l -0.8820014544682596 5.663082042838378 a26.731354533581275,26.731354533581275 0 0,0 -0.45280686578377816,-0.0745091974514985 l 0.9790858233051013 -5.647106846891212" fill="#ff4d07" stroke="none" /><path d="M 96.41257539226777 120.69131181640829 l -1.4936046962017595 8.61471497768941 a29.74323562163014,29.74323562163014 0 0,0 -0.5023282184190068,-0.09154093482931427 l 1.6412676481718234 -8.58780586892873" fill="#ff760a" stroke="none" /><path d="M 95.00130118170881 120.39639698878247 l -14.996096454873564 61.18919096634739 a84.0,84.0 0 0,0 -1.3975788270984852,-0.35525907265894796 l 16.044280575197426 -60.922746661853175" fill="#4dd2ff" stroke="none" /><path d="M 92.59220618246901 119.65005319985036 l -2.539568049185811 6.736505969300034 a28.199299865324434,28.199299865324434 0 0,0 -0.4514946091897423,-0.1746478140434778 l 2.6548349208690816 -6.691918267118515" fill="#ff6108" stroke="none" /><path d="M 92.25597844496254 119.51999308798841 l -0.6741645638058636 1.6993350976789112 a22.82817877498207,22.82817877498207 0 0,0 -0.3630175457643966,-0.1476360755585099 l 0.7032365707607011 -1.68751176554111" fill="#ff1602" stroke="none" /><path d="M 91.59046798132341 119.24265499422711 l -0.2788703117817592 0.6381098479476887 a21.69638554611729,21.69638554611729 0 0,0 -0.3399995090335201,-0.15207745577152876 l 0.2897832236709144 -0.633228641266305" fill="#ff0600" stroke="none" /><path d="M 91.26138138417905 119.09545874513695 l -1.968146583770245 4.300755479444416 a25.729703866964364,25.729703866964364 0 0,0 -0.40004946196705876,-0.18724334788208996 l 2.0416847596087937 -4.2663358999918" fill="#ff3f05" stroke="none" /><path d="M 90.93487009805054 118.94263497670748 l -0.7272724740217419 1.5197197561436149 a22.68477695517327,22.68477695517327 0 0,0 -0.34982059593851733,-0.17111478320714169 l 0.7532533192223285 -1.507011222839252" fill="#ff1402" stroke="none" /><path d="M 89.97174638481275 118.45085714620012 l -4.155732702053696 7.6460801018496385 a29.70245110384537,29.70245110384537 0 0,0 -0.44589858745221134,-0.24733242995328114 l 4.286375477662009 -7.5736147564632095" fill="#ff750a" stroke="none" /><line stroke="#e1ed5e" stroke-width="0.3" x1="58.13341422392154" x2="55.67067388415222" y1="173.97424548756322" y2="178.32567169271397" /><path d="M 57.64086615596768 174.84453072859336 a86.0,86.0 0 0,1 -31.369924170532247,-30.572349798747897" fill="none" id="id56" stroke="none" /><text fill="#e1ed5e" style="font-size:6.75px; font-family:Arial;" text-anchor="middle"><textPath startOffset="22.145653131862474" xlink:href="#id56">August</textPath></text><path d="M 88.72937992617639 117.7192867562869 l -1.8297900965022063 2.8767339517582524 a24.409359181203442,24.409359181203442 0 0,0 -0.35162770760539597,-0.22792083182437856 l 1.878903436364612 -2.844899278229979" fill="#ff2c04" stroke="none" /><path d="M 88.4268655584334 117.5232005979908 l -0.8120987874095442 1.2296210701615424 a22.473591672308604,22.473591672308604 0 0,0 -0.3200921280466536,-0.2153722690075845 l 0.8330872035532034 -1.2154991270968367" fill="#ff1101" stroke="none" /><path d="M 88.1277618465304 117.32195027204791 l -0.6159164622838476 0.8986405253586128 a22.089453019789772,22.089453019789772 0 0,0 -0.31094051171125464,-0.2170606260315556 l 0.6312520651688676 -0.8879350835219283" fill="#ff0b01" stroke="none" /><path d="M 87.83215693770417 117.11559508785305 l -1.162073393579852 1.6346017585081567 a23.0055765956413,23.0055765956413 0 0,0 -0.3199078682487517,-0.23158862602078245 l 1.1899622722025576 -1.6144123611143089" fill="#ff1902" stroke="none" /><path d="M 86.68645165197938 116.24036423190432 l -0.3789126226969021 0.4622117893595755 a21.59767425397287,21.59767425397287 0 0,0 -0.28470431218621844,-0.23751046308549154 l 0.38679126904501326 -0.45563914236221376" fill="#ff0400" stroke="none" /><path d="M 86.13680546590413 115.77377054828092 l -1.3581524937071183 1.54532822522416 a23.057332622557013,23.057332622557013 0 0,0 -0.295062460183213,-0.263846671341246 l 1.3844799807137023 -1.5217860239995316" fill="#ff1902" stroke="none" /><path d="M 85.86807049272751 115.53346607816431 l -1.9222382518247338 2.1128765653340884 a23.856439615520724,23.856439615520724 0 0,0 -0.3005573183196595,-0.2781913667764552 l 1.9582253414583606 -2.079567452425256" fill="#ff2503" stroke="none" /><path d="M 84.83555147118756 114.52719865689866 l -0.4700929691073585 0.4503384304716768 a21.65099316552777,21.65099316552777 0 0,0 -0.2548055549845926,-0.27059466937982096 l 0.4777543578282041 -0.4422023011473657" fill="#ff0500" stroke="none" /><path d="M 84.58840730492382 114.26474011684316 l -0.5391045298714525 0.49898710448570943 a21.73458956198067,21.73458956198067 0 0,0 -0.2510886380473614,-0.2759903974693636 l 0.5475908687606938 -0.48965913145867174" fill="#ff0601" stroke="none" /><path d="M 83.64595745247003 113.17365903436017 l -0.995612741601899 0.8019951489064038 a22.2784525607583,22.2784525607583 0 0,0 -0.2373541767238617,-0.2998892485413945 l 1.0092333489673224 -0.7847859564503287" fill="#ff0e01" stroke="none" /><path d="M 81.99639281039703 110.81064883170644 l -0.4152197587843531 0.24932753491732285 a21.48432599326578,21.48432599326578 0 0,0 -0.18714514496717394,-0.3178133699908734 l 0.41943861388129705 -0.24216299663289065" fill="#ff0300" stroke="none" /><line stroke="#e1ed5e" stroke-width="0.3" x1="26.387840678322732" x2="22.057713659400548" y1="142.50000000000003" y2="145.00000000000006" /><path d="M 25.521815274538298 143.00000000000003 a86.0,86.0 0 0,1 -11.493303480769221,-40.785679425670985" fill="none" id="id57" stroke="none" /><text fill="#e1ed5e" style="font-size:6.75px; font-family:Arial;" text-anchor="middle"><textPath startOffset="21.40746469413373" xlink:href="#id57">September</textPath></text><path d="M 81.81346652052679 110.50000000000001 l -1.6753204958159837 0.9672467392382567 a22.93449347847651,22.93449347847651 0 0,0 -0.19392384913867705,-0.3426448600037073 l 1.691677709976039 -0.9383451091354278" fill="#ff1802" stroke="none" /><path d="M 81.29705330413844 109.54985784667822 l -3.00788254710536 1.5358462605636694 a24.37730382898377,24.37730382898377 0 0,0 -0.18710171175330764,-0.3743287579745066 l 3.0338041720704045 -1.48398564642541" fill="#ff2c04" stroke="none" /><path d="M 80.83023694016515 108.57439118712176 l -0.5080455037628646 0.2272422917552052 a21.556551249262654,21.556551249262654 0 0,0 -0.14819217242658705,-0.33909269154534544 l 0.5118715582064196 -0.21848753043401042" fill="#ff0400" stroke="none" /><path d="M 80.41425534168474 107.57618678355246 l -0.3084976291212822 0.11933351022799318 a21.3307737502233,21.3307737502233 0 0,0 -0.12917237673927984,-0.34264507590249593 l 0.310500689674998 -0.1140201541313523" fill="#ff0100" stroke="none" /><path d="M 80.05021161711548 106.5578916946017 l -2.125640359173477 0.6987402066426517 a23.237539901974078,23.237539901974078 0 0,0 -0.12131687103763379,-0.38002337062713337 l 2.137321945988366 -0.6621478023241266" fill="#ff1c02" stroke="none" /><path d="M 79.73907114497094 105.5222062557868 l -7.160537649070687 1.9516363777507748 a28.421737261229268,28.421737261229268 0 0,0 -0.12425783116118744,-0.47182722423135565 l 7.192984961036607 -1.8284286491466164" fill="#ff6409" stroke="none" /><path d="M 79.17382384314188 102.69636545807758 l -2.1605248552679224 0.2797231977289367 a23.178557485488547,23.178557485488547 0 0,0 -0.04770137609682502,-0.39503582304051554 l 2.165008317624409 -0.24259369776502193" fill="#ff1b02" stroke="none" /><path d="M 79.13060592940153 102.33845913500099 l -5.693716068245683 0.6379927614021604 a26.729348778823002,26.729348778823002 0 0,0 -0.047180619512098544,-0.456429694971818 l 5.703829080239448 -0.5401585441474109" fill="#ff4d07" stroke="none" /><path d="M 79.03789590574601 101.26102812881392 l -8.056504944298867 0.48465933138239387 a29.0710697299062,29.0710697299062 0 0,0 -0.02569108795162868,-0.4984002428322922 l 8.06363762170707 -0.3462872951733709" fill="#ff6d0a" stroke="none" /><line stroke="#e1ed5e" stroke-width="0.3" x1="15.003131293944662" x2="10.003315487706104" y1="100.72959589197737" y2="100.7725132973878" /><path d="M 14.003168132696942 100.73817937305945 a86.0,86.0 0 0,1 10.791469493833604,-42.45332614584628" fill="none" id="id58" stroke="none" /><text fill="#e1ed5e" style="font-size:6.75px; font-family:Arial;" text-anchor="middle"><textPath startOffset="22.145653131862435" xlink:href="#id58">October</textPath></text><path d="M 79.17382384314186 97.30363454192245 l -1.6159331499126233 -0.20921489836491347 a22.62942039347873,22.62942039347873 0 0,0 0.053185046837884796,-0.3848205048174807 l 1.6121035865195308 0.23692371138246116" fill="#ff1302" stroke="none" /><path d="M 79.56144815229197 95.17655741523228 l -4.289921834321858 -1.01240987204841 a25.4077662249276,25.4077662249276 0 0,0 0.10382396502174732,-0.42363720730366633 l 4.271910342783813 1.085902903960194" fill="#ff3a05" stroke="none" /><path d="M 79.73907114497095 94.47779374421319 l -2.5756769368905355 -0.7020122026761015 a23.669631588054045,23.669631588054045 0 0,0 0.11021201279614427,-0.3911035526280806 l 2.563246432019809 0.7461236792071952" fill="#ff2203" stroke="none" /><path d="M 80.41425534168474 92.42381321644754 l -2.731150124993255 -1.0564675401344379 a23.928362113641068,23.928362113641068 0 0,0 0.1514794364417935,-0.3818271335250555 l 2.71261201358533 1.1031956908730762" fill="#ff2603" stroke="none" /><path d="M 81.29705330413844 90.45014215332179 l -2.5535695218377685 -1.3038707927535693 a23.867193112968604,23.867193112968604 0 0,0 0.18945088134041674,-0.3632970450052923 l 2.530810571522412 1.3475140808633481" fill="#ff2503" stroke="none" /><line stroke="#e1ed5e" stroke-width="0.3" x1="26.387840678322718" x2="22.05771365940052" y1="57.49999999999999" y2="54.99999999999999" /><path d="M 25.521815274538284 56.99999999999999 a86.0,86.0 0 0,1 29.574782752854787,-30.34633250058573" fill="none" id="id59" stroke="none" /><text fill="#e1ed5e" style="font-size:6.75px; font-family:Arial;" text-anchor="middle"><textPath startOffset="21.40746469413373" xlink:href="#id59">November</textPath></text><path d="M 82.37810715431573 88.57770195909679 l -1.783051609090977 -1.155752510794384 a23.124861620644847,23.124861620644847 0 0,0 0.2187783265410531,-0.3312582707673696 l 1.7629488436291947 1.1861906599008145" fill="#ff1a02" stroke="none" /><path d="M 82.98947788004972 87.6856937992154 l -0.2472936549904372 -0.1790215354702074 a21.305291437745378,21.305291437745378 0 0,0 0.21700756241485214,-0.2944124359248484 l 0.2441840729917663 0.18324028066391912" fill="#ff0000" stroke="none" /><path d="M 83.64595745247003 86.82634096563983 l -1.1324916504184606 -0.9122551086994636 a22.454216875715517,22.454216875715517 0 0,0 0.24438012802144835,-0.29810402053317536 l 1.1166647031583823 0.9315614109311318" fill="#ff1101" stroke="none" /><path d="M 84.10781606972428 86.27271002978789 l -2.7363999354326056 -2.363637090594722 a24.61589060988723,24.61589060988723 0 0,0 0.27896712456946354,-0.3174133784713128 l 2.6954217469045494 2.410262746877335" fill="#ff2f04" stroke="none" /><path d="M 85.34317274990677 84.96080404539775 l -1.6700319649437119 -1.7135999178183774 a23.39278737924641,23.39278737924641 0 0,0 0.2899898184343234,-0.2778036862250022 l 1.640369660644088 1.7420157343489482" fill="#ff1e03" stroke="none" /><path d="M 85.86807049272753 84.46653392183569 l -5.952177191481487 -6.542485401411103 a29.844915406405526,29.844915406405526 0 0,0 0.38192250196183464,-0.3415174563052859 l 5.838989662696261 6.643698387599789" fill="#ff770b" stroke="none" /><path d="M 86.13680546590413 84.22622945171909 l -1.9658711170916092 -2.2368004612667054 a23.97790623635768,23.97790623635768 0 0,0 0.31150785017146376,-0.26907306170517586 l 1.9271837871572968 2.270217655436592" fill="#ff2603" stroke="none" /><path d="M 87.25179093698888 83.31218511350988 l -3.714598318598363 -4.862528439253196 a27.119021448816788,27.119021448816788 0 0,0 0.3723661323062628,-0.2794304876544476 l 3.6305791973813477 4.9255779541716445" fill="#ff5207" stroke="none" /><path d="M 87.83215693770416 82.88440491214696 l -1.1227769657445792 -1.5793264115313608 a22.93775644211731,22.93775644211731 0 0,0 0.3228815905595458,-0.22539642645858377 l 1.095500284011268 1.598367653795071" fill="#ff1802" stroke="none" /><path d="M 88.12776184653039 82.6780497279521 l -3.446724379350054 -5.028873876077748 a27.096677899373006,27.096677899373006 0 0,0 0.3859389019020352,-0.259676917105635 l 3.35988918935103 5.0873004672404925" fill="#ff5207" stroke="none" /><line stroke="#e1ed5e" stroke-width="0.3" x1="56.869717070023135" x2="54.33264160355391" y1="26.7553504044142" y2="22.446841604673864" /><path d="M 56.362301976729285 25.89364864446614 a86.0,86.0 0 0,1 42.16139366436587,-11.88097634709845" fill="none" id="id60" stroke="none" /><text fill="#e1ed5e" style="font-size:6.75px; font-family:Arial;" text-anchor="middle"><textPath startOffset="22.145653131862474" xlink:href="#id60">December</textPath></text><path d="M 89.34428304082924 81.90426304109057 l -1.0075436388606145 -1.7110293688640714 a22.985639867983082,22.985639867983082 0 0,0 0.34172809037298124,-0.1972968049664964 l 0.9780230806272335 1.7280730711067418" fill="#ff1802" stroke="none" /><path d="M 89.97174638481275 81.54914285379989 l -2.0808109336993947 -3.8284577513870444 a25.35739175378557,25.35739175378557 0 0,0 0.3842383646921989,-0.20458528688663385 l 2.0147837532206343 3.8636135059962537" fill="#ff3a05" stroke="none" /><path d="M 90.28995756902619 81.37971332152246 l -6.98355755377583 -13.391892425944011 a36.103405538320025,36.103405538320025 0 0,0 0.5519914629423642,-0.28185077407326364 l 6.752638869119883 13.509801151690107" fill="#ffc812" stroke="none" /><path d="M 90.93487009805054 81.0573650232925 l -0.9025490830885862 -1.8859804563674805 a23.090817335202704,23.090817335202704 0 0,0 0.35901964123213226,-0.1680393200610434 l 0.8700407279849314 1.9011960079990669" fill="#ff1a02" stroke="none" /><path d="M 91.5904679813234 80.7573450057729 l -0.3635511218776511 -0.8318761133817237 a21.907847611790427,21.907847611790427 0 0,0 0.3458987545990925,-0.1476436099270015 l 0.34921729210812746 0.8379943729681292" fill="#ff0901" stroke="none" /><path d="M 92.592206182469 80.34994680014964 l -1.0427494170791711 -2.7660167148858323 a23.956040394488337,23.956040394488337 0 0,0 0.3860468549003238,-0.14176175242551564 l 0.9951134105247202 2.7835093163200697" fill="#ff2603" stroke="none" /><path d="M 93.27111125876988 80.10723608172694 l -0.9756528762571941 -2.8843443664994113 a24.04488767600807,24.04488767600807 0 0,0 0.3921346335641111,-0.1289024428360337 l 0.9259955050453219 2.9006677307374735" fill="#ff2703" stroke="none" /><path d="M 95.35216902796891 79.52079915486377 l -0.7061941416162745 -3.1116216895250544 a24.19075221607318,24.19075221607318 0 0,0 0.40575676670263444,-0.08843279877507439 l 0.6526749582945216 3.123285946433843" fill="#ff2904" stroke="none" /><path d="M 96.41257539226777 79.30868818359171 l -0.5086676749700324 -2.9338599760527635 a23.977629453549206,23.977629453549206 0 0,0 0.4061610580992718,-0.06683364754782646 l 0.45822911381768777 2.9421596220962583" fill="#ff2603" stroke="none" /><path d="M 97.48249496171623 79.15144685158666 l -0.7559971135486729 -6.260740599197135 a27.30621950824178,27.30621950824178 0 0,0 0.4658494339433766,-0.052199400742289646 l 0.648411778004497 6.272795760446395" fill="#ff5507" stroke="none" /><path d="M 98.1996594967304 79.07731436759882 l -0.1359893436344623 -1.5804023078151943 a22.58624227535699,22.58624227535699 0 0,0 0.38658075072771664,-0.029923795013864374 l 0.10883959813152849 1.5825038698241123" fill="#ff1302" stroke="none" /><path d="M 99.27912038922189 79.0123766808444 l -0.8504626819471752 -24.76029304871009 a45.77489452311323,45.77489452311323 0 0,0 0.7855553588545731,-0.02023311948740045 l 0.4252940090218584 24.771243885547534" fill="#c2ff1e" stroke="none" /><path d="M 99.63950707515114 79.00309439819443 l -0.08221727319954192 -4.788743981403862 a25.78944971781144,25.78944971781144 0 0,0 0.4427101980483929,-0.0038001346020126495 l 1.1730768533189947e-15 4.78944971781144" fill="#ff4006" stroke="none" /></svg>