<?xml version="1.0" encoding="utf-8" ?>
<svg baseProfile="full" height="200mm" version="1.1" viewBox="0,0,200,200" width="200mm" xmlns="http://www.w3.org/2000/svg" xmlns:ev="http://www.w3.org/2001/xml-events" xmlns:xlink="http://www.w3.org/1999/xlink"><defs /><rect fill="#1a1a1a" height="200" width="200" x="0" y="0" /><text alignment-baseline="middle" fill="#e1ed5e" style="dominant-baseline: central; font-size:9.0px; font-family:Arial;" text-anchor="middle" x="100.0" y="100.0">2018</text><line stroke="#e1ed5e" stroke-width="0.3" x1="100.0" x2="100.0" y1="15.0" y2="10.0" /><path d="M 100.0 14.0 a86.0,86.0 0 0,1 42.46469731375804,11.215312516191453" fill="none" id="id49" stroke="none" /><text fill="#e1ed5e" style="font-size:6.75px; font-family:Arial;" text-anchor="middle"><textPath startOffset="22.20632615414155" xlink:href="#id49">January</textPath></text><path d="M 100.0 79.0 l 0.0 -4.580323973962045 a25.580323973962045,25.580323973962045 0 0,0 0.44032322714544514,0.003790001031044912 l -0.07884274787291676 4.579645349539559" fill="#ff1602" stroke="none" /><path d="M 100.36148047927253 79.00311137660856 l 0.38617257549686085 -22.43114918247822 a43.434473091754555,43.434473091754555 0 0,0 0.7474315090335866,0.019303950740592015 l -0.7722307197253152 22.42117843959527" fill="#f4ff19" stroke="none" /><path d="M 101.44485096284872 79.0497635885617 l 1.186016107623097 -17.197149381752094 a38.237998174551414,38.237998174551414 0 0,0 0.6562547467263438,0.05093799873195467 l -1.481861043711782 17.174186120831674" fill="#ffc712" stroke="none" /><path d="M 101.80526077348638 79.07773832637324 l 2.7387051571020278 -31.740514603405668 a52.85844900848981,52.85844900848981 0 0,0 0.9058298866255752,0.08601946250654083 l -3.2846601708178476 31.68866959638395" fill="#85ff25" stroke="none" /><path d="M 102.88285421437855 79.19881850522331 l 2.317601505251506 -16.722610981456203 a37.88244635040383,37.88244635040383 0 0,0 0.645139900578651,0.09507685124487872 l -2.605110386258813 16.680239646050357" fill="#ffc312" stroke="none" /><path d="M 103.59715602781102 79.31037775812273 l 2.8904024444171204 -16.624615179225263 a37.87401126430878,37.87401126430878 0 0,0 0.6413420566186615,0.1172011614918006 l -3.176139622138683 16.572398536382725" fill="#ffc312" stroke="none" /><path d="M 103.95276090670814 79.375362276772 l 3.181536235285538 -16.600556877783394 a37.902682079154076,37.902682079154076 0 0,0 0.6397135095305058,0.12832051189957844 l -3.466816154283169 16.543332409806606" fill="#ffc312" stroke="none" /><path d="M 104.66035177308747 79.52364482259891 l 8.183620656612181 -35.95666837202978 a57.87619350566781,57.87619350566781 0 0,0 0.9694987601936839,0.22944903328918834 l -8.801343103768389 35.81047342659973" fill="#4fff2b" stroke="none" /><path d="M 105.01212808612495 79.60689891045804 l 5.409149152273088 -22.008480943670218 a43.66345357617483,43.66345357617483 0 0,0 0.7283295084308619,0.1856674086320069 l -5.787187549388975 21.912110538869342" fill="#f1ff19" stroke="none" /><path d="M 106.74666289553966 80.11325718540242 l 7.125819891235697 -21.00436166950549 a43.18018300794026,43.18018300794026 0 0,0 0.7018177870691072,0.24485044535492714 l -7.4863196823680775 20.878590370978355" fill="#f7ff18" stroke="none" /><path d="M 107.08798089147638 80.2323363322302 l 10.558027047558388 -29.44527233733531 a52.280920673100695,52.280920673100695 0 0,0 0.8445053484379831,0.31103844690352206 l -11.063314721768949 29.25917062262546" fill="#8bff24" stroke="none" /><path d="M 107.4271985657038 80.35727306442388 l 7.898363787897454 -20.888818543228307 a43.33219404039578,43.33219404039578 0 0,0 0.6954132804340226,0.2698095489148721 l -8.256760233331143 20.74976629042289" fill="#f5ff19" stroke="none" /><path d="M 107.76421540070413 80.48803036053334 l 5.927881255598012 -14.897144542783074 a37.033237093894726,37.033237093894726 0 0,0 0.5902677055563921,0.2407850178358945 l -6.183432830742792 14.792898638763601" fill="#ffb811" stroke="none" /><path d="M 108.09893153111575 80.62456947434976 l 7.00669172933754 -16.76241715278768 a39.1678935981593,39.1678935981593 0 0,0 0.6198155817051937,0.2653726852309185 l -7.294191068833048 16.639324939593973" fill="#ffd413" stroke="none" /><path d="M 108.43124777332544 80.76684994638697 l 6.908675734601738 -15.759897069534464 a38.20767724151624,38.20767724151624 0 0,0 0.6000750079096143,0.26923616428241065 l -7.178932860978133 15.638640574735522" fill="#ffc712" stroke="none" /><path d="M 108.76106565485865 80.91482961587045 l 7.434154182893929 -16.194616594812995 a38.819434757253994,38.819434757253994 0 0,0 0.6048840417908194,0.2840011682302853 l -7.711816435984346 16.064250443942704" fill="#ffcf13" stroke="none" /><path d="M 109.08828744355905 81.06846463323043 l 13.478095626473461 -28.075811379636686 a52.143382063310014,52.143382063310014 0 0,0 0.8058107483236655,0.3954078346047656 l -13.959377641807558 27.83964838489709" fill="#8dff24" stroke="none" /><path d="M 109.41281617654863 81.2277094730956 l 6.903870532427646 -13.768617272879391 a36.402540372794206,36.402540372794206 0 0,0 0.5577207423844499,0.2856862262404742 l -7.139851762400851 13.647738521326415" fill="#ffaf10" stroke="none" /><line stroke="#e1ed5e" stroke-width="0.3" x1="143.23703022742887" x2="145.7803849466894" y1="26.81831364943548" y2="22.513508569990506" /><path d="M 143.74570117128098 25.957352633546492 a86.0,86.0 0 0,1 28.547481713284135,27.462654790039103" fill="none" id="id50" stroke="none" /><text fill="#e1ed5e" style="font-size:6.75px; font-family:Arial;" text-anchor="middle"><textPath startOffset="19.985693538727396" xlink:href="#id50">February</textPath></text><path d="M 110.68208982089419 81.91981866633111 l 6.459430166335046 -10.933035639811942 a33.698641910659475,33.698641910659475 0 0,0 0.4968751358327773,0.29936170976540744 l -6.646667368385461 10.82022732058792" fill="#ff8a0c" stroke="none" /><path d="M 111.2981086023043 82.29822771554956 l 16.753690534800054 -26.249527705079476 a52.14038938863135,52.14038938863135 0 0,0 0.7523932034858436,0.4893774687257318 l -17.203050764070177 25.957251312194217" fill="#8dff24" stroke="none" /><path d="M 111.60114157652 82.49532879139004 l 12.641564874673447 -19.07453979713008 a43.88333959353129,43.88333959353129 0 0,0 0.6260591683802623,0.4227179451582619 l -12.968028737460251 18.854109939673148" fill="#eeff19" stroke="none" /><path d="M 111.90073688211348 82.69761687909136 l 10.248713625910778 -14.900520144975527 a39.08484535672757,39.08484535672757 0 0,0 0.5510383630626459,0.3860375878672815 l -10.503683128557075 14.721897714344308" fill="#ffd313" stroke="none" /><path d="M 112.19680574252982 82.90503203632743 l 10.879841836183509 -15.249119446974495 a39.73250122883927,39.73250122883927 0 0,0 0.5533312417787091,0.4020186792262464 l -11.140718394316007 15.059581532931574" fill="#ffdb14" stroke="none" /><path d="M 112.48926042617603 83.11751280151076 l 10.713141803174974 -14.481600445181742 a39.013554861515345,39.013554861515345 0 0,0 0.5364435248486139,0.40403814127538507 l -10.960831481781971 14.295045714400509" fill="#ffd213" stroke="none" /><path d="M 113.89432698308785 84.25364557470407 l 11.298037593220167 -12.803995794089591 a38.075946877197765,38.075946877197765 0 0,0 0.48771482604023686,0.437875186328135 l -11.516763406856395 12.607621598992159" fill="#ffc512" stroke="none" /><path d="M 114.42810811169701 84.74124197986012 l 13.546835712638952 -14.326749319972647 a40.71731482485804,40.71731482485804 0 0,0 0.5051210850944768,0.48592608365397555 l -13.791440041345847 14.09144014955637" fill="#ffe815" stroke="none" /><path d="M 114.94478906791727 85.2469230424477 l 12.0532295598006 -11.898610443724657 a37.93686137726717,37.93686137726717 0 0,0 0.4547649395999731,0.46867524522452886 l -12.256258763103682 11.689371002950013" fill="#ffc412" stroke="none" /><path d="M 115.4437574822437 85.77008943001954 l 27.047446587550244 -24.921574074811677 a57.77837980760856,57.77837980760856 0 0,0 0.6676329188199167,0.7372169440728611 l -27.472423146986195 24.45230434346927" fill="#50ff2b" stroke="none" /><path d="M 115.68641384162765 86.03803664274999 l 16.87237408452727 -15.017547738848963 a43.58769017267669,43.58769017267669 0 0,0 0.494010709949758,0.5647396398586179 l -17.128376658054876 14.724892542787396" fill="#f2ff19" stroke="none" /><path d="M 115.9244219780498 86.31012108654704 l 12.774231445747407 -10.981728689792083 a37.84575181004767,37.84575181004767 0 0,0 0.42042915342308784,0.4976555074715574 l -12.961371212657612 10.76021423269142" fill="#ffc212" stroke="none" /><path d="M 116.15771136456269 86.58626213691792 l 13.198754386206637 -10.957283953226021 a38.15427611352439,38.15427611352439 0 0,0 0.4151576012225418,0.5089341303115089 l -13.385410479505587 10.728465653306412" fill="#ffc612" stroke="none" /><path d="M 116.38621287248628 86.86637796730983 l 17.437322335470522 -13.976090912427377 a43.347065297786514,43.347065297786514 0 0,0 0.4616378224798543,0.5862331544945559 l -17.67531423854434 13.673865363979782" fill="#f5ff19" stroke="none" /><path d="M 116.60985879189232 87.15038557335679 l 14.515379442669298 -11.229296493824934 a39.351930146741935,39.351930146741935 0 0,0 0.4098673296053568,0.5393373616523067 l -14.706522712498769 10.977774356291594" fill="#ffd614" stroke="none" /><path d="M 116.82858285166822 87.43820079747576 l 14.40367747655947 -10.75171366675864 a38.974016568945046,38.974016568945046 0 0,0 0.39667640387128345,0.5410661690865216 l -14.586616492944378 10.502185054000623" fill="#ffd113" stroke="none" /><path d="M 117.04232023915458 87.72973835380427 l 26.607619333134608 -19.157159730507068 a53.786615798480334,53.786615798480334 0 0,0 0.5345041876476164,0.7560182676450811 l -26.933436140586107 18.696314962530195" fill="#7bff26" stroke="none" /><path d="M 117.2510076193507 88.02491185347247 l 18.433144948538715 -12.795689414041199 a43.439039646884275,43.439039646884275 0 0,0 0.4211012241405496,0.6179140852644027 l -18.650670638348 12.47649730550639" fill="#f4ff19" stroke="none" /><path d="M 117.45458315368197 88.32363383020206 l 15.418199414344196 -10.314112944190864 a39.549981105273645,39.549981105273645 0 0,0 0.3736594915627041,0.5691090409541907 l -15.593455541264825 10.047185839258999" fill="#ffd914" stroke="none" /><path d="M 117.65298651832404 88.62581576622439 l 13.741809547636699 -8.854132038113383 a37.347262272070665,37.347262272070665 0 0,0 0.3435457346061248,0.5434068494602701 l -13.892182878488779 8.616277540938906" fill="#ffbc11" stroke="none" /><line stroke="#e1ed5e" stroke-width="0.3" x1="172.23445277983987" x2="176.4835382374775" y1="55.19839476539836" y2="52.563006222186495" /><path d="M 173.08426987136738 54.67131705675599 a86.0,86.0 0 0,1 12.851231095245387,41.99856678651699" fill="none" id="id51" stroke="none" /><text fill="#e1ed5e" style="font-size:6.75px; font-family:Arial;" text-anchor="middle"><textPath startOffset="22.20632615414155" xlink:href="#id51">March</textPath></text><path d="M 117.84615892207809 88.93136811851018 l 14.850406789500662 -9.21059185682851 a38.47482715699137,38.47482715699137 0 0,0 0.34422915173651597,0.5658222164936333 l -15.006751739523402 8.953601867127794" fill="#ffcb12" stroke="none" /><path d="M 118.03404312379186 89.2402003453031 l 15.98349164822556 -9.53636224206098 a39.612205943431384,39.612205943431384 0 0,0 0.3443249984696381,0.588563036972761 l -16.145276321165525 9.259819792734323" fill="#ffd914" stroke="none" /><path d="M 118.21658344932153 89.55222093294921 l 19.389422243222942 -11.120438714456007 a43.352043578338886,43.352043578338886 0 0,0 0.3656896787742945,0.6505211337885718 l -19.57796956328967 10.78503407073264" fill="#f5ff19" stroke="none" /><path d="M 118.3937258080291 89.86733742301442 l 32.4309560702176 -17.86543620026749 a58.026216688371115,58.026216688371115 0 0,0 0.47441102087560355,0.8790115711353472 l -32.733675190311665 17.304543645799683" fill="#4dff2c" stroke="none" /><path d="M 118.56541770881063 90.18545643968196 l 10.537908217143267 -5.570828561681299 a32.91980035305037,32.91980035305037 0 0,0 0.2605219181394878,0.5032454233844142 l -10.63223956844287 5.38861041603654" fill="#ff7f0b" stroke="none" /><path d="M 118.73160827565052 90.50648371742162 l 16.496145880294844 -8.36054369757147 a39.493823829132,39.493823829132 0 0,0 0.3021089213491498,0.6090331505036232 l -16.637614814597402 8.075350958568897" fill="#ffd814" stroke="none" /><path d="M 118.89224826269711 90.83032412892265 l 16.689653475457625 -8.100608812807208 a39.551668288026946,39.551668288026946 0 0,0 0.2920077184736873,0.6150427263583201 l -16.826619387773068 7.812123670808347" fill="#ffd914" stroke="none" /><path d="M 119.04729006885535 91.15688171328212 l 16.088636352468168 -7.469499011279312 a38.73802793890749,38.73802793890749 0 0,0 0.27558912473723385,0.607224105635696 l -16.214827794168748 7.191452896801553" fill="#ffce13" stroke="none" /><path d="M 119.196687751892 91.48605970444005 l 16.204644720249988 -7.186936592505202 a38.72688828007375,38.72688828007375 0 0,0 0.26501969641577167,0.6117019985714063 l -16.32595512650844 6.906935449347192" fill="#ffce13" stroke="none" /><path d="M 119.34039704204932 91.81776055985345 l 28.938513769054772 -12.242863897032707 a52.42173285423704,52.42173285423704 0 0,0 0.34443153665381104,0.8340682860716259 l -29.14496699259478 11.74292104050778" fill="#8aff24" stroke="none" /><path d="M 119.47837535516314 92.15188598940014 l 14.307506528936434 -5.764697537607056 a36.425189813277875,36.425189813277875 0 0,0 0.22931643048089118,0.5835853028351085 l -14.404616509299025 5.517563229876163" fill="#ffaf10" stroke="none" /><path d="M 119.61058180528143 92.48833698450437 l 21.070283890651833 -8.07078921976591 a43.56312260886227,43.56312260886227 0 0,0 0.26219899087149046,0.7025629383988572 l -21.20608747002495 7.706903144337719" fill="#f2ff19" stroke="none" /><path d="M 119.7369772167798 92.82701384747503 l 17.49345695972774 -6.357626254198586 a39.612910787674295,39.612910787674295 0 0,0 0.22739115979095223,0.6428654295519126 l -17.600301200328506 6.055563198220059" fill="#ffd914" stroke="none" /><path d="M 119.85752413597 93.16781622104841 l 17.362169639719532 -5.97363160521235 a39.36107864895716,39.36107864895716 0 0,0 0.2149165618072204,0.6425731647072733 l -17.462423495298523 5.673885337582763" fill="#ffd614" stroke="none" /><path d="M 119.97218684219823 93.5106431181261 l 12.152352419244238 -3.9485386565760625 a33.777739504465835,33.777739504465835 0 0,0 0.17491161627698515,0.5545176225074459 l -12.21851951928943 3.738770867642198" fill="#ff8b0c" stroke="none" /><path d="M 120.08093135843002 93.85539295169968 l 17.76242319416982 -5.435161786356606 a39.575377825838515,39.575377825838515 0 0,0 0.1937197838129762,0.6531268077542208 l -17.8533488750945 5.128605591855855" fill="#ffd914" stroke="none" /><path d="M 120.18372546131832 94.20196356495316 l 30.705833652512 -8.820648231019078 a52.94764553939959,52.94764553939959 0 0,0 0.24409678836079876,0.8781460215215633 l -30.853117211439162 8.290790906078563" fill="#84ff25" stroke="none" /><path d="M 120.28053869075195 94.5502522615342 l 14.394326842406251 -3.8680160991932913 a35.904972116365585,35.904972116365585 0 0,0 0.15525253201240458,0.5982513373373893 l -14.458775706288957 3.6196683363070514" fill="#ffa80f" stroke="none" /><path d="M 120.37134235888165 94.90015583598534 l 18.067643232604247 -4.523126815799779 a39.62520894305557,39.62520894305557 0 0,0 0.15994847624679787,0.663089696246262 l -18.142824509111865 4.211451887894111" fill="#ffda14" stroke="none" /><path d="M 120.45610955862082 95.25157060432595 l 15.234371320060621 -3.536319376540667 a36.639425317139455,36.639425317139455 0 0,0 0.13732040140373925,0.6155804336681209 l -15.292986108466398 3.273560773322582" fill="#ffb210" stroke="none" /><path d="M 120.53481517161879 95.60439243477599 l 15.399627975264423 -3.296388141991324 a36.74848299231414,36.74848299231414 0 0,0 0.12708098614083876,0.619692020316346 l -15.454088257320258 3.030820465511566" fill="#ffb410" stroke="none" /><path d="M 120.6074358757038 95.95851677861258 l 14.599402509757667 -2.863201450260586 a35.877515793528595,35.877515793528595 0 0,0 0.11363652337710213,0.6070508517916118 l -14.646524757044627 2.6114725210064114" fill="#ffa80f" stroke="none" /><path d="M 120.67395015179393 96.31383870115 l 9.699791927858971 -1.7294710178194337 a30.852767806318965,30.852767806318965 0 0,0 0.08872101022725688,0.5236364245696986 l -9.728124799606451 1.5622488049338972" fill="#ff6209" stroke="none" /><path d="M 120.73433829027371 96.67025291283417 l 14.845681583272784 -2.3840821113679924 a36.03589402681695,36.03589402681695 0 0,0 0.09308261312384548,0.6132981195680591 l -14.88452008983593 2.128184879407851" fill="#ffaa0f" stroke="none" /><path d="M 120.78858239683441 97.02765380044208 l 62.35104090196618 -8.914935897296207 a83.9851441501213,83.9851441501213 0 0,0 0.19230198811629504,1.4328731756211246 l -62.49525888914031 7.840344379610417" fill="#4dd2ff" stroke="none" /><path d="M 120.83666639777658 97.38593545837742 l 9.406783582708718 -1.1801282865909954 a30.4805210903584,30.4805210903584 0 0,0 0.060829899007789706,0.5211534265054558 l -9.425703834720096 1.018031121760687" fill="#ff5d08" stroke="none" /><path d="M 120.87857604477298 97.74499172005257 l 12.272325434189897 -1.3254828973471091 a33.34369784439914,33.34369784439914 0 0,0 0.05672060606596253,0.5711687624489598 l -12.293323165938087 1.1140386041937145" fill="#ff850c" stroke="none" /><path d="M 120.91429891909075 98.10471618934814 l 17.582226985164066 -1.5933266656034057 a38.654274145972536,38.654274145972536 0 0,0 0.054347018892504664,0.6631712864394983 l -17.607048487876064 1.2904414619561386" fill="#ffcd13" stroke="none" /><path d="M 120.94382443527127 98.46500227214037 l 13.897416143342 -1.0185581085765751 a34.93469181868655,34.93469181868655 0 0,0 0.03879316031688815,0.6001130198430867 l -13.912889894663303 0.7791860244804532" fill="#ff9b0e" stroke="none" /><path d="M 120.96714384426684 98.82574320788733 l 17.621580826858285 -0.9868898275984643 a38.64919438301128,38.64919438301128 0 0,0 0.03148325050359707,0.6645616585559102 l -17.63595768559538 0.6834170624195542" fill="#ffcd13" stroke="none" /><line stroke="#e1ed5e" stroke-width="0.3" x1="184.98032266829074" x2="189.97916517819016" y1="98.17113171792111" y2="98.06355123074" /><path d="M 185.9800911702706 98.14961562048488 a86.0,86.0 0 0,1 -9.607161424134198,41.387399972396054" fill="none" id="id52" stroke="none" /><text fill="#e1ed5e" style="font-size:6.75px; font-family:Arial;" text-anchor="middle"><textPath startOffset="21.466115282336823" xlink:href="#id52">April</textPath></text><path d="M 120.99980553446 99.90962569577887 l 14.765816811181134 -0.06354584657354902 a35.76595354780639,35.76595354780639 0 0,0 -0.0026495805179919864,0.6156692005018717 l -14.764722933373639 -0.1906328321320074" fill="#ffa60f" stroke="none" /><path d="M 120.99824983174949 100.27111621757518 l 18.44166447995728 0.23810719272598038 a39.44320156118633,39.44320156118633 0 0,0 -0.014608892821215396,0.6788178448598086 l -18.434833524451054 -0.5555148533759038" fill="#ffd714" stroke="none" /><path d="M 120.9904718944345 100.63252640178507 l 18.702841946809055 0.5635910130684902 a39.711331639339086,39.711331639339086 0 0,0 -0.02647018783758475,0.6830779304524697 l -18.69036962612027 -0.8854461905349661" fill="#ffdb14" stroke="none" /><path d="M 120.9764740272857 100.99374915477107 l 18.6522812336655 0.8836417734647151 a39.6732005291959,39.6732005291959 0 0,0 -0.03818762641265966,0.6818657225944406 l -18.634307256365314 -1.204579212394579" fill="#ffda14" stroke="none" /><path d="M 120.95626037817324 101.35467743843564 l 18.517463199556385 1.1970260514432478 a39.55611259705973,39.55611259705973 0 0,0 -0.049771839079774345,0.6790972003332638 l -18.494114801812273 -1.515596388273282" fill="#ffd914" stroke="none" /><path d="M 120.92983693683757 101.71520430193887 l 31.06313785976563 2.545630329064598 a52.167270773474186,52.167270773474186 0 0,0 -0.08104658429084398,0.8943423041465197 l -31.014716679197708 -3.079954021759688" fill="#8dff24" stroke="none" /><path d="M 120.89721153311464 102.0752229133903 l 18.474549878933345 1.8346375621733597 a39.56542184313983,39.56542184313983 0 0,0 -0.07313517219479515,0.6771408636478224 l -18.4402324052375 -2.1523747477059736" fill="#ffd914" stroke="none" /><path d="M 120.8583938346157 102.4346265915055 l 18.42845410577989 2.1509999649068003 a39.55356358163748,39.55356358163748 0 0,0 -0.08475479357535805,0.6755790957808593 l -18.388697802957683 -2.467896814975054" fill="#ffd914" stroke="none" /><path d="M 120.81339534386255 102.79330883721812 l 21.31478148993906 2.8605984999356022 a42.50588137560706,42.50588137560706 0 0,0 -0.10356446466470029,0.7243296246535511 l -21.26238297425776 -3.2270735965695625" fill="#fffe18" stroke="none" /><path d="M 120.76222939487914 103.15116336523771 l 18.413580019564726 2.794699821341757 a39.62445371623879,39.62445371623879 0 0,0 -0.10815257959081584,0.6734662163517093 l -18.36274568561262 -3.1112452673866713" fill="#ffda14" stroke="none" /><path d="M 120.70491114924044 103.5080841355445 l 18.287240485543197 3.098452235211579 a39.54787240709774,39.54787240709774 0 0,0 -0.11949777153077068,0.6702069637181537 l -18.231196271673237 -3.412777949662951" fill="#ffd914" stroke="none" /><path d="M 120.64145759157962 103.86396538481128 l 18.01764026369088 3.372801459683923 a39.33060692825583,39.33060692825583 0 0,0 -0.13029680762412227,0.6643806149469113 l -17.956913523091092 -3.6824458016987793" fill="#ffd614" stroke="none" /><path d="M 120.49622156327973 104.57218783832717 l 36.16983805667026 8.068574647595101 a58.05885969494429,58.05885969494429 0 0,0 -0.2259856349610563,0.9735402008186677 l -36.02559185577864 -8.689983505762333" fill="#4dff2c" stroke="none" /><path d="M 120.32669344350535 105.2749913415812 l 18.134635698642278 4.706129236362942 a39.73533197762508,39.73533197762508 0 0,0 -0.17750704428662392,0.6605697460318328 l -18.050940578013876 -5.017589915570324" fill="#ffdb14" stroke="none" /><path d="M 120.23288151984713 105.62410040840565 l 17.858430432320397 4.9640781907102305 a39.535522916538184,39.535522916538184 0 0,0 -0.1879017281728031,0.6541105661604038 l -17.770336067261493 -5.270746232375216" fill="#ffd814" stroke="none" /><path d="M 120.13307415673323 105.97154293290107 l 17.691435275206597 5.247343970826493 a39.45322467334621,39.45322467334621 0 0,0 -0.1987188051781194,0.6494245531152125 l -17.598489697522346 -5.551095496493763" fill="#ffd714" stroke="none" /><path d="M 120.02730092923936 106.31721596034902 l 17.703442083170344 5.584200650704745 a39.563274455211236,39.563274455211236 0 0,0 -0.21045353961038404,0.6477093941991436 l -17.60469629254371 -5.888108944881685" fill="#ffd914" stroke="none" /><path d="M 119.9155931802556 106.66101706037122 l 21.044055801755146 7.038445375248221 a43.18990756825583,43.18990756825583 0 0,0 -0.24188234003529696,0.7030233027561837 l -20.91978263077662 -7.399641381093705" fill="#f7ff18" stroke="none" /><path d="M 119.79798401119884 107.00284435728193 l 29.53894288618361 10.448367843593283 a52.332372036413894,52.332372036413894 0 0,0 -0.3077037290736006,0.8466685089174457 l -29.35471489610478 -10.95528414951686" fill="#8bff24" stroke="none" /><path d="M 119.67450827220406 107.3425965602758 l 16.75749591259883 6.25395715838644 a38.886465536815805,38.886465536815805 0 0,0 -0.23944011620477332,0.6251025873516265 l -16.64736151680055 -6.54148331257121" fill="#ffd013" stroke="none" /><path d="M 119.54520255179757 107.68017299344265 l 17.279622701902515 6.789926646210418 a39.56578747538124,39.56578747538124 0 0,0 -0.25453497394150526,0.6317349310615343 l -17.160185113703616 -7.086360945114766" fill="#ffd914" stroke="none" /><path d="M 119.41010516605496 108.01547362559984 l 13.855160288311202 5.721538905602351 a35.99004583258894,35.99004583258894 0 0,0 -0.24138869725542778,0.57057157524339 l -13.754620609863466 -5.9591850065119045" fill="#ffaa0f" stroke="none" /><path d="M 119.26925614724726 108.34839909993367 l 13.720475581087738 5.944391683649817 a35.95283393406982,35.95283393406982 0 0,0 -0.2509146829625693,0.5657463705388343 l -13.616119813393896 -6.179686390681339" fill="#ffa90f" stroke="none" /><path d="M 119.12269723197855 108.67885076344098 l 16.878283821701057 7.660222020698057 a39.53524928810732,39.53524928810732 0 0,0 -0.2865842129149963,0.6172768988904423 l -16.743924991946226 -7.949618986867329" fill="#ffd814" stroke="none" /><path d="M 118.64920377521936 109.65438752849418 l 13.51142442506403 6.994643258435603 a36.214585906523894,36.214585906523894 0 0,0 -0.29135064069434996,0.5511256138380157 l -13.389021276144787 -7.226183887359753" fill="#ffad10" stroke="none" /><line stroke="#e1ed5e" stroke-width="0.3" x1="174.80103733775053" x2="179.2010983576182" y1="140.37084112569926" y2="142.7455964860345" /><path d="M 175.68104954172406 140.8457921977663 a86.0,86.0 0 0,1 -30.038265399797805,32.042727171017184" fill="none" id="id53" stroke="none" /><text fill="#e1ed5e" style="font-size:6.75px; font-family:Arial;" text-anchor="middle"><textPath startOffset="22.206326154141568" xlink:href="#id53">May</textPath></text><path d="M 118.48025628344425 109.97397251340804 l 19.66118687918786 10.611332143141178 a43.34194797573412,43.34194797573412 0 0,0 -0.3599932470139725,0.6534923104374285 l -19.475617222722377 -10.948194971976411" fill="#f5ff19" stroke="none" /><path d="M 118.30583269289576 110.29060199501025 l 19.485483323097977 10.953741188524512 a43.35326612287135,43.35326612287135 0 0,0 -0.3712856367844323,0.6473678034931182 l -19.294045690161166 -11.287528837875946" fill="#f5ff19" stroke="none" /><path d="M 118.12598468904814 110.60418214915192 l 19.371452927024162 11.332814126010042 a43.4429468768833,43.4429468768833 0 0,0 -0.3831649798868933,0.6422065458988983 l -19.173507071439044 -11.664582765795044" fill="#f4ff19" stroke="none" /><path d="M 117.94076556474637 110.91462005526583 l 19.237357939950734 11.703427706245819 a43.517685506843456,43.517685506843456 0 0,0 -0.39484085185060414,0.6366091732473608 l -19.033052448432166 -12.032833210858453" fill="#f3ff19" stroke="none" /><path d="M 117.75023020441432 111.22182372390056 l 26.533285552914162 16.774534744719624 a52.391085647589335,52.391085647589335 0 0,0 -0.4884723701044958,0.758119965950837 l -26.240608319432614 -17.228776310591915" fill="#8aff24" stroke="none" /><path d="M 117.55443506779139 111.5257021239791 l 12.762270520488379 8.37931428022283 a36.267234741264474,36.267234741264474 0 0,0 -0.34712388373021763,0.5189031077896519 l -12.61614353134744 -8.597754302218288" fill="#ffad10" stroke="none" /><path d="M 117.35343817320211 111.8261652097733 l 18.651818879340045 12.71099647967582 a43.57121571856591,43.57121571856591 0 0,0 -0.427701470574669,0.6161358678458297 l -18.43025650160324 -13.030173609708669" fill="#f2ff19" stroke="none" /><path d="M 117.14729908036423 112.12312394758627 l 18.468471034971135 13.057191248022837 a43.61801639527684,43.61801639527684 0 0,0 -0.43871459424641596,0.6093362003455149 l -18.240976648349115 -13.373161053819484" fill="#f2ff19" stroke="none" /><path d="M 116.93607887273984 112.41649034213515 l 12.263967156144146 8.991185674957354 a36.20678500698095,36.20678500698095 0 0,0 -0.37282425366441396,0.49945901385226754 l -12.10738163578464 -9.200957568318936" fill="#ffac10" stroke="none" /><path d="M 116.71984013943494 112.70617746262583 l 12.386962340818569 9.413423837353923 a36.55793637904849,36.55793637904849 0 0,0 -0.38506506207719515,0.49774850002750654 l -12.223090461523306 -9.625250331494682" fill="#ffb110" stroke="none" /><path d="M 116.498646956653 112.99209946851258 l 17.813994663570266 14.027889148044924 a43.674216189838766,43.674216189838766 0 0,0 -0.4701884755031643,0.5866324179733179 l -17.569888276012247 -14.332449399596493" fill="#f1ff19" stroke="none" /><path d="M 116.27256486870786 113.27417163493432 l 11.263994734509726 9.188483844265138 a35.5363617434138,35.5363617434138 0 0,0 -0.39073752741830003,0.4706685229554007 l -11.104161207197883 -9.381013624334308" fill="#ffa30f" stroke="none" /><path d="M 115.80600337817218 113.82643327865902 l 14.941678483297627 13.070357868313964 a40.85165007509542,40.85165007509542 0 0,0 -0.46753964632438005,0.5252857489992017 l -14.714479987324909 -13.325617787054032" fill="#ffe915" stroke="none" /><path d="M 115.56566222782051 114.09645910891815 l 11.146908209272135 10.094780001202055 a36.03855531288187,36.03855531288187 0 0,0 -0.4203701702159653,0.4562287956524921 l -10.971491631060447 -10.285160051655883" fill="#ffaa0f" stroke="none" /><path d="M 115.32070863581623 114.36230785411682 l 16.18526925285665 15.172785100022494 a43.18504785838722,43.18504785838722 0 0,0 -0.5130660247168329,0.5379476757046637 l -15.92169667676085 -15.449139892309665" fill="#f7ff18" stroke="none" /><path d="M 115.07121518719521 114.62390073753431 l 10.905944348895721 10.582255354089032 a36.19617552282009,36.19617552282009 0 0,0 -0.43773133862645297,0.44341953498999304 l -10.722172385213733 -10.768415383059688" fill="#ffac0f" stroke="none" /><path d="M 114.81725581225074 114.88116024355365 l 11.6466972187124 11.696927542852697 a37.5064735799961,37.5064735799961 0 0,0 -0.4614190112194289,0.45159561830663264 l -11.443628255117178 -11.895673264081902" fill="#ffbe11" stroke="none" /><path d="M 114.29624159901734 115.38237550388516 l 10.023824146075835 10.785368023610333 a35.72417107738732,35.72417107738732 0 0,0 -0.4540379693084525,0.41475291982692436 l -9.836686627300518 -10.95631371002384" fill="#ffa60f" stroke="none" /><path d="M 114.0293411484842 115.62618273729858 l 9.691956275714565 10.795109923076232 a35.50752958644792,35.50752958644792 0 0,0 -0.45831368684772844,0.4044085414244817 l -9.504700235960248 -10.960341606273001" fill="#ffa30f" stroke="none" /><path d="M 113.75828350139079 115.86535959552629 l 9.918040352129873 11.43698461029489 a36.13843259398405,36.13843259398405 0 0,0 -0.47347287757134776,0.40350385804101635 l -9.719701997981478 -11.606012858558854" fill="#ffac0f" stroke="none" /><path d="M 113.48314897796784 116.09983520530334 l 14.537320168774771 17.358590298635253 a43.6418712752577,43.6418712752577 0 0,0 -0.5800833294824675,0.4773690882920662 l -14.236366710747612 -17.6062545057845" fill="#f1ff19" stroke="none" /><path d="M 113.20401910651253 116.32954008644616 l 14.080467363501873 17.41345225218548 a43.39392508056113,43.39392508056113 0 0,0 -0.5848726359827355,0.4646581947057419 l -13.778637234801785 -17.65324436089635" fill="#f4ff19" stroke="none" /><path d="M 112.63410532772338 116.77436683061366 l 19.86564871472185 26.375724297440286 a54.02003681208293,54.02003681208293 0 0,0 -0.7475730760063679,0.553036689681394 l -19.408690668296916 -26.713770935861447" fill="#78ff26" stroke="none" /><path d="M 112.34349029814194 116.9893568818739 l 9.153417520060406 12.598598385135226 a36.57272402524622,36.57272402524622 0 0,0 -0.5124930107978334,0.3656501556708679 l -8.935197181413688 -12.754292802650314" fill="#ffb110" stroke="none" /><path d="M 112.04921762599082 117.19931262002967 l 9.639408902514969 13.759499772751333 a37.80006065424256,37.80006065424256 0 0,0 -0.5361184679382656,0.36874717083712827 l -9.40113354995382 -13.923387732953556" fill="#ffc212" stroke="none" /><path d="M 111.1453310114006 117.79835938074945 l 9.493316248302499 15.16020063733958 a38.88727862908932,38.88727862908932 0 0,0 -0.5703852702755869,0.3503772195372398 l -9.230951778094601 -15.321366323705197" fill="#ffd013" stroke="none" /><line stroke="#e1ed5e" stroke-width="0.3" x1="143.8653032363475" x2="146.44561519142675" y1="172.8068346515853" y2="177.08958963109032" /><path d="M 144.38136562736335 173.6633856474863 a86.0,86.0 0 0,1 -40.68145358897372,12.25698825130547" fill="none" id="id54" stroke="none" /><text fill="#e1ed5e" style="font-size:6.75px; font-family:Arial;" text-anchor="middle"><textPath startOffset="21.466115282336833" xlink:href="#id54">June</textPath></text><path d="M 110.8373102113329 117.98757091392108 l 8.116883027342174 13.472255218978589 a36.7284916875348,36.7284916875348 0 0,0 -0.5443374600870393,0.32160416614290727 l -7.883777696226753 -13.609977957415245" fill="#ffb310" stroke="none" /><path d="M 110.5260780823613 118.17145234162733 l 16.57475215456958 28.6134414446108 a54.067377281689275,54.067377281689275 0 0,0 -0.8093403198969414,0.45956455612233155 l -16.07976306775144 -28.89450916652776" fill="#77ff26" stroke="none" /><path d="M 110.21172684928248 118.3499491758327 l 10.076967973739562 18.107794391073757 a41.72287386568704,41.72287386568704 0 0,0 -0.6305661137262284,0.34383492180500497 l -9.763779048144684 -18.278569964638532" fill="#fff517" stroke="none" /><path d="M 109.89434966115114 118.52300852407294 l 7.8824891543009405 14.756645842961019 a37.72998002994178,37.72998002994178 0 0,0 -0.5754883738611426,0.30106831794388456 l -7.627309877913302 -14.890143579849621" fill="#ffc111" stroke="none" /><path d="M 109.57404056367764 118.69057910512821 l 7.5976226637259 14.83218777514104 a37.66486316587702,37.66486316587702 0 0,0 -0.579583492843652,0.29061519526775015 l -7.341185263199488 -14.960770811318092" fill="#ffc011" stroke="none" /><path d="M 109.2508944713604 118.85261126421891 l 7.340468192677454 14.959309476758197 a37.66323537939547,37.66323537939547 0 0,0 -0.5844748234414492,0.2805834337284234 l -7.081880701235772 -15.08344718698618" fill="#ffc011" stroke="none" /><path d="M 108.92500713936063 119.00905698771935 l 7.067588045399905 15.053005764918106 a37.62960562785953,37.62960562785953 0 0,0 -0.5886918931143945,0.27023957461480475 l -6.807428156518092 -15.172432409866985" fill="#ffbf11" stroke="none" /><path d="M 108.59647513512805 119.15986991738527 l 6.05454225230086 13.494396265902699 a35.79040947594437,35.79040947594437 0 0,0 -0.5642602201437332,0.24735509843169398 l -5.821361357499373 -13.596615917628847" fill="#ffa70f" stroke="none" /><path d="M 107.93186726928326 119.44442032107085 l 5.654509229592852 13.861635657389545 a35.970585082947295,35.970585082947295 0 0,0 -0.5753219719907063,0.2289324859474234 l -5.41506618156028 -13.956914987743039" fill="#ffa90f" stroke="none" /><path d="M 107.59598834532513 119.57807347666477 l 5.447911069180869 14.041570149643656 a36.061388624063426,36.061388624063426 0 0,0 -0.5806394940253573,0.2195481732938735 l -5.205401354395238 -14.133266573044159" fill="#ffaa0f" stroke="none" /><path d="M 106.91757812671514 119.82793768551818 l 2.5728198140640846 7.374504489124344 a28.810423692460983,28.810423692460983 0 0,0 -0.46965143032532436,0.15933126446866513 l -2.4454986508015333 -7.417698740491132" fill="#ff4506" stroke="none" /><path d="M 106.2309692047433 120.05430185196036 l 5.269198866036311 16.958855212614175 a38.7585817793046,38.7585817793046 0 0,0 -0.6388245290010298,0.1924725902304919 l -4.976499362595035 -17.047043171950392" fill="#ffce13" stroke="none" /><path d="M 105.88484417918355 120.15858648285463 l 8.722156359877545 29.87782478923099 a52.124916477030716,52.124916477030716 0 0,0 -0.8634587527385554,0.24402206838027624 l -8.206566439034383 -30.023535650949785" fill="#8dff24" stroke="none" /><path d="M 105.53697534728816 120.25689768951611 l 4.366246106896991 15.97381153556677 a37.559793478174754,37.559793478174754 0 0,0 -0.625119370792784,0.16509970744792182 l -4.09063629329271 -16.046602592318276" fill="#ffbf11" stroke="none" /><path d="M 105.18746579009965 120.34920634021253 l 2.493882821498946 9.782914852151448 a31.095784988390598,31.095784988390598 0 0,0 -0.5198130085002802,0.1277573905017056 l -2.325116528255455 -9.824393500967185" fill="#ff6609" stroke="none" /><path d="M 104.83641907484287 120.43548508189849 l 3.801326114141153 16.061871788785503 a37.505568926439196,37.505568926439196 0 0,0 -0.6295217777203335,0.1432771070622025 l -3.5242841870279573 -16.12492562942539" fill="#ffbe11" stroke="none" /><path d="M 104.13013068566511 120.58985236759428 l 3.7786826624669962 18.837786037672167 a40.213032698268776,40.213032698268776 0 0,0 -0.6798537582939246,0.13029559084261275 l -3.453861289601367 -18.90003882686325" fill="#ffe115" stroke="none" /><path d="M 103.41894727170886 120.7198165907248 l 2.4654355095754195 14.941257502672835 a36.143300433295664,36.143300433295664 0 0,0 -0.6147186040759979,0.09600640363006274 l -2.2078810418909045 -14.981482213650002" fill="#ffac0f" stroke="none" /><path d="M 103.06178313531738 120.77559828337769 l 4.563486541973187 30.965342409140828 a52.29980574914333,52.29980574914333 0 0,0 -0.8917650059643265,0.12359050404541523 l -4.029792944822031 -31.039307478678847" fill="#8bff24" stroke="none" /><path d="M 102.70371172650421 120.8252237178851 l 2.154005029430715 16.59113143890656 a37.730372981194606,37.730372981194606 0 0,0 -0.6447807705235182,0.07807397185205317 l -1.8680968358558165 -16.625750939483964" fill="#ffc111" stroke="none" /><path d="M 102.34483914955558 120.86867818915974 l 1.680935150425094 14.960043087696025 a36.05418321150823,36.05418321150823 0 0,0 -0.6173290018508518,0.06398867514784307 l -1.4231735519686395 -14.986761131299627" fill="#ffaa0f" stroke="none" /><path d="M 101.98527174616119 120.90594882070398 l 1.4222096927463497 14.976611190058325 a36.04398760795561,36.04398760795561 0 0,0 -0.61816414039327,0.05333780313218146 l -1.164201234611538 -14.99887324546917" fill="#ffaa0f" stroke="none" /><path d="M 101.62511606390274 120.93702456842531 l 1.1389928240277243 14.674103142306956 a35.71824064500406,35.71824064500406 0 0,0 -0.6133965569546697,0.042303417895569594 l -0.8862335062941243 -14.69153490471881" fill="#ffa60f" stroke="none" /><path d="M 101.26447882468166 120.96189622390904 l 0.9896848253104481 16.40649902362576 a37.43632216360104,37.43632216360104 0 0,0 -0.6435694750369941,0.03326519074691712 l -0.7071272818599743 -16.42110402113488" fill="#ffbd11" stroke="none" /><path d="M 100.90346689309514 120.98055641714683 l 0.3513629117924565 8.159446073889848 a29.16700778305615,29.16700778305615 0 0,0 -0.5017831578364383,0.017282426531059956 l -0.21085940228136585 -8.164285298847002" fill="#ff4a06" stroke="none" /><line stroke="#e1ed5e" stroke-width="0.3" x1="102.19456741930631" x2="102.32365962044197" y1="184.97166512339345" y2="189.96999836594603" /><path d="M 102.22038585953345 185.97133177190398 a86.0,86.0 0 0,1 -42.740103519485714,-10.115201625700543" fill="none" id="id55" stroke="none" /><text fill="#e1ed5e" style="font-size:6.75px; font-family:Arial;" text-anchor="middle"><textPath startOffset="22.20632615414155" xlink:href="#id55">July</textPath></text><path d="M 100.54218724476979 120.99299961872073 l 0.40962464131684245 15.860295538000374 a36.86558435417645,36.86558435417645 0 0,0 -0.6345099162505498,0.010923663631472338 l -0.13655503517362477 -15.864996678911005" fill="#ffb510" stroke="none" /><path d="M 100.18074693466247 120.99922214144158 l 0.1293005811955812 15.022172478963789 a36.02272893411961,36.02272893411961 0 0,0 -0.620095031716063,0.0 l 0.12930058119557084 -15.022172478963789" fill="#ffaa0f" stroke="none" /><path d="M 99.45781275523022 120.99299961872073 l -0.3870832311302489 14.98751252803988 a35.99251030368079,35.99251030368079 0 0,0 -0.6192076888028849,-0.021326764802837926 l 0.6450112716077768 -14.978628964810948" fill="#ffaa0f" stroke="none" /><path d="M 99.09653310690486 120.98055641714683 l -0.7156142812952154 16.618191453805977 a37.6335922456619,37.6335922456619 0 0,0 -0.6469607537688357,-0.033440481120788165 l 1.00156310347754 -16.60341116592299" fill="#ffbf11" stroke="none" /><path d="M 98.73552117531835 120.96189622390904 l -0.9904471864453598 16.419137064440264 a37.44898317738861,37.44898317738861 0 0,0 -0.6431189478442725,-0.0443532479906401 l 1.2729288950685622 -16.39965547193334" fill="#ffbd11" stroke="none" /><path d="M 98.37488393609728 120.93702456842531 l -1.1645210277988376 15.00299326985896 a36.0481200247612,36.0481200247612 0 0,0 -0.6182350124596506,-0.05334391827228289 l 1.42260035800003 -14.980725099308014" fill="#ffaa0f" stroke="none" /><path d="M 98.01472825383883 120.90594882070398 l -1.708550427165207 17.991928740725584 a39.07287039663356,39.07287039663356 0 0,0 -0.6690157405563671,-0.06934621694898778 l 2.0179987643271673 -17.959853155320836" fill="#ffd213" stroke="none" /><path d="M 97.65516085044442 120.86867818915974 l -1.8712678437948527 16.65397238240368 a37.758772015189095,37.758772015189095 0 0,0 -0.6452660864526665,-0.0781327368523879 l 2.1576613532989084 -16.619294116825944" fill="#ffc112" stroke="none" /><path d="M 97.2962882734958 120.8252237178851 l -1.5809715923948398 12.1773659449313 a33.2795648348275,33.2795648348275 0 0,0 -0.5674505078617085,-0.07864346976882575 l 1.7903506914433793 -12.14834790966987" fill="#ff840c" stroke="none" /><path d="M 96.93821686468263 120.77559828337769 l -2.198842107641357 14.920148912570605 a36.08130465800683,36.08130465800683 0 0,0 -0.6136641913359523,-0.09584172604516085 l 2.4553421625858265 -14.880088879178338" fill="#ffab0f" stroke="none" /><path d="M 96.58105272829116 120.7198165907248 l -2.298183349414735 13.92766068250321 a35.11599726531827,35.11599726531827 0 0,0 -0.5955523116108469,-0.10354440320576033 l 2.5375846324976314 -13.886037700776443" fill="#ff9e0e" stroke="none" /><path d="M 96.22490169976321 120.6578951692458 l -2.8766251661149598 15.741317549026384 a37.00200145374359,37.00200145374359 0 0,0 -0.6255670877021045,-0.11989142122032233 l 3.1471598683887594 -15.689468929457593" fill="#ffb711" stroke="none" /><path d="M 95.86986931433489 120.58985236759428 l -2.9792787318742286 14.852534682283405 a36.148395566878676,36.148395566878676 0 0,0 -0.6090290955804656,-0.1276279684578698 l 3.234499288884081 -14.799050733098994" fill="#ffac0f" stroke="none" /><path d="M 95.51606077576429 120.51570834832081 l -3.544448826487972 16.217186438821496 a37.600007634790046,37.600007634790046 0 0,0 -0.6311069082827628,-0.14363787761746544 l 3.8230758841635972 -16.153771827626343" fill="#ffbf11" stroke="none" /><path d="M 95.16358092515715 120.4354850818985 l -3.8496388830912958 16.266009365341187 a37.71534565013765,37.71534565013765 0 0,0 -0.6304689621550126,-0.15495393166406193 l 4.129061129989519 -16.197334175363096" fill="#ffc111" stroke="none" /><path d="M 94.46302465271185 120.25689768951611 l -4.359789192590535 15.95018906223215 a37.53530444003918,37.53530444003918 0 0,0 -0.6217791671616251,-0.17572100342410515 l 4.633699527856774 -15.872779265469523" fill="#ffbe11" stroke="none" /><path d="M 94.11515582081647 120.15858648285463 l -4.2022748476322915 14.394930156412952 a35.99577034043433,35.99577034043433 0 0,0 -0.5932874728155179,-0.178752648747965 l 4.449437294888055 -14.320462138559263" fill="#ffaa0f" stroke="none" /><path d="M 93.76903079525671 120.05430185196036 l -3.537860708084928 11.386563505419922 a32.92351822461693,32.92351822461693 0 0,0 -0.5397554556783346,-0.17281265199270454 l 3.7333375088542025 -11.323978006767511" fill="#ff7f0b" stroke="none" /><path d="M 93.42475214034765 119.94407469862007 l -5.871153483542888 17.80841211498206 a39.751266231493744,39.751266231493744 0 0,0 -0.6480029326243186,-0.21983777748300898 l 6.176826149104433 -17.704711350600927" fill="#ffdb14" stroke="none" /><path d="M 93.08242187328487 119.8279376855182 l -5.439932677881067 15.592544699117036 a37.51424590266964,37.51424590266964 0 0,0 -0.607874479924043,-0.21796216136268626 l 5.707526718434837 -15.496594996714393" fill="#ffbe11" stroke="none" /><path d="M 92.7421414339146 119.70592522655815 l -5.096958491532233 13.838831661220741 a35.747618370842396,35.747618370842396 0 0,0 -0.5755873480037426,-0.21763788396345074 l 5.334416060296258 -13.749045527150656" fill="#ffa60f" stroke="none" /><path d="M 92.40401165467489 119.57807347666478 l -4.3442987871648215 11.197094702237623 a33.01032313149982,33.01032313149982 0 0,0 -0.5279748482342247,-0.21009208827144593 l 4.536394711440905 -11.12065576956011" fill="#ff810b" stroke="none" /><path d="M 91.7346041902142 119.30500536409082 l -4.555738172657201 10.6405732870547 a32.5748239803026,32.5748239803026 0 0,0 -0.5135643212638737,-0.2251315061778956 l 4.738223168578818 -10.560577227582352" fill="#ff7b0b" stroke="none" /><path d="M 91.40352486487194 119.15986991738527 l -6.705066570441572 14.944288357457742 a37.379550428045945,37.379550428045945 0 0,0 -0.584779934258988,-0.26844378617375303 l 6.96131450046798 -14.826657500949915" fill="#ffbc11" stroke="none" /><path d="M 91.07499286063937 119.00905698771935 l -6.541787226649354 13.933121201045948 a36.3924282204527,36.3924282204527 0 0,0 -0.5647538732264776,-0.2711161791850698 l 6.780653767876074 -13.818450745361314" fill="#ffaf10" stroke="none" /><path d="M 90.7491055286396 118.85261126421891 l -4.107342134381907 8.370447293326675 a30.323875122460016,30.323875122460016 0 0,0 -0.4666210357018527,-0.2339734741947094 l 4.250817077766521 -8.298505978222664" fill="#ff5b08" stroke="none" /><path d="M 90.42595943632237 118.69057910512821 l -6.832267836829971 13.338051120878202 a35.98610995213039,35.98610995213039 0 0,0 -0.5488894476356753,-0.2871530168856095 l 7.060848186992142 -13.218468685047876" fill="#ffa90f" stroke="none" /><path d="M 90.10565033884886 118.52300852407294 l -7.751238681538278 14.5109345320583 a37.4514109453219,37.4514109453219 0 0,0 -0.5660106427322993,-0.3086341318511705 l 7.999872136139218 -14.375359748447364" fill="#ffbd11" stroke="none" /><line stroke="#e1ed5e" stroke-width="0.3" x1="58.666819895761336" x2="56.23545636021788" y1="174.27360380694188" y2="178.64263932499728" /><path d="M 58.180547188652646 175.14741091055294 a86.0,86.0 0 0,1 -31.652253787137756,-30.449443065178592" fill="none" id="id56" stroke="none" /><text fill="#e1ed5e" style="font-size:6.75px; font-family:Arial;" text-anchor="middle"><textPath startOffset="22.20632615414155" xlink:href="#id56">August</textPath></text><path d="M 89.7882731507175 118.34994917583269 l -7.260521396178011 13.04678440544789 a35.930966287102684,35.930966287102684 0 0,0 -0.5378544551458696,-0.30540779677083785 l 7.484024618245088 -12.919873442882418" fill="#ffa90f" stroke="none" /><path d="M 89.4739219176387 118.17145234162733 l -5.2242225275536915 9.018716176975383 a31.422559306534886,31.422559306534886 0 0,0 -0.46570047765284656,-0.275144050831903 l 5.37869087623492 -8.92745355384973" fill="#ff6a09" stroke="none" /><path d="M 88.8546689885994 117.79835938074946 l -5.215125627181607 8.32821205878839 a30.826324409637344,30.826324409637344 0 0,0 -0.44730200112483937,-0.28548930047957266 l 5.35770943035337 -8.237208329485012" fill="#ff6209" stroke="none" /><path d="M 88.54995079064634 117.60387380957326 l -8.057015832067687 12.38725593192972 a35.776996096680726,35.776996096680726 0 0,0 -0.5133578155719777,-0.3402255676150151 l 8.269048346379627 -12.246732343223387" fill="#ffa70f" stroke="none" /><path d="M 88.24862548938628 117.40417183066458 l -8.282104211500195 12.266068508516314 a35.80032725400911,35.80032725400911 0 0,0 -0.5077562381359105,-0.3492393705584459 l 8.492017334258996 -12.121688348592768" fill="#ffa70f" stroke="none" /><path d="M 87.95078237400918 117.19931262002967 l -8.539243305913802 12.189099717155287 a35.88263512125285,35.88263512125285 0 0,0 -0.5028228057597359,-0.3587507211360564 l 8.747793439522423 -12.040304734175011" fill="#ffa80f" stroke="none" /><path d="M 87.65650970185807 116.9893568818739 l -9.49728669651452 13.071893702613986 a37.157749211082304,37.157749211082304 0 0,0 -0.5142190660075359,-0.38040697179073707 l 9.72089073294062 -12.906476782083482" fill="#ffb911" stroke="none" /><path d="M 87.36589467227662 116.77436683061367 l -9.98925831758359 13.262789808884735 a37.603821103892614,37.603821103892614 0 0,0 -0.513688379694149,-0.3938743447532464 l 10.216075425771226 -13.088876122304121" fill="#ffbf11" stroke="none" /><path d="M 87.07902340077011 116.55440617244103 l -7.335305762424458 9.398022669390121 a32.92180945673215,32.92180945673215 0 0,0 -0.4437272139483266,-0.3525237350668683 l 7.495990469090143 -9.270365020318122" fill="#ff7f0b" stroke="none" /><path d="M 86.79598089348748 116.32954008644616 l -9.4690704228234 11.710492373841806 a36.05984483021641,36.05984483021641 0 0,0 -0.479303802483656,-0.3944343986073032 l 9.669244353851743 -11.545762856377323" fill="#ffaa0f" stroke="none" /><path d="M 86.24171649860922 115.8653595955263 l -9.738174606614292 11.229572491535059 a35.86389393838466,35.86389393838466 0 0,0 -0.46291346221648755,-0.40846730838069994 l 9.930030421737367 -11.06028204138207" fill="#ffa80f" stroke="none" /><path d="M 85.97065885151581 115.62618273729859 l -8.588078608864915 9.565587170777993 a33.85517608256673,33.85517608256673 0 0,0 -0.43028389282457274,-0.3930541341626151 l 8.751462051156343 -9.416340270028803" fill="#ff8c0c" stroke="none" /><path d="M 85.70375840098266 115.38237550388516 l -8.096141754317443 8.711233070246566 a32.89256460609568,32.89256460609568 0 0,0 -0.41141419223839376,-0.3890177979405188 l 8.244891780946654 -8.570580635560116" fill="#ff7f0b" stroke="none" /><path d="M 85.44109423537348 115.13401014063109 l -10.467685480616371 10.88117889996171 a36.09875801428974,36.09875801428974 0 0,0 -0.44410075486506834,-0.43464605945410595 l 10.653436187857235 -10.699382737585035" fill="#ffab0f" stroke="none" /><path d="M 84.9287848128048 114.62390073753433 l -11.669752174097935 11.323393323361707 a37.2604536271414,37.2604536271414 0 0,0 -0.44267805107714,-0.4641461667508553 l 11.862936776554033 -11.120840040028352" fill="#ffbb11" stroke="none" /><path d="M 84.67929136418377 114.36230785411682 l -2.298572776091191 2.1547834777131256 a24.150639402218705,24.150639402218705 0 0,0 -0.28170408908444533,-0.3057341514678599 l 2.335323273171365 -2.1148980714439216" fill="#ff0000" stroke="none" /><path d="M 84.43433777217949 114.09645910891817 l -11.045078235486024 10.002561498672025 a35.90117410685222,35.90117410685222 0 0,0 -0.4108823563721978,-0.4616306831181219 l 11.215619441506561 -9.810956645813038" fill="#ffa80f" stroke="none" /><path d="M 84.19399662182784 113.82643327865904 l -8.313493085678449 7.272297412036795 a32.04538260698743,32.04538260698743 0 0,0 -0.35960640214318446,-0.4183034875574303 l 8.437441997392412 -7.128116825317834" fill="#ff730a" stroke="none" /><path d="M 83.95833913139862 113.55231037782056 l -6.302955365515608 5.324860568409734 a29.251144551678077,29.251144551678077 0 0,0 -0.32162887069880275,-0.3874226939803522 l 6.393680236107947 -5.21557661731562" fill="#ff4b07" stroke="none" /><path d="M 83.72743513129214 113.27417163493432 l -11.495987116508502 9.377729161244696 a35.835751548357386,35.835751548357386 0 0,0 -0.3858010253874232,-0.481346098790305 l 11.655706053950786 -9.178455228876132" fill="#ffa70f" stroke="none" /><path d="M 83.50135304334701 112.99209946851258 l -12.893058993956505 10.152826795008002 a37.41069353047199,37.41069353047199 0 0,0 -0.3940471605754531,-0.5093590731355673 l 13.065912971750027 -9.929389727759181" fill="#ffbd11" stroke="none" /><path d="M 83.28015986056508 112.70617746262583 l -16.55821658486745 12.583352271155787 a41.79700196786501,41.79700196786501 0 0,0 -0.43038717911781743,-0.5765739592959334 l 16.77236503068035 -12.296465432350546" fill="#fff517" stroke="none" /><path d="M 83.06392112726016 112.41649034213515 l -14.739831858333039 10.806337245409894 a39.27674937929233,39.27674937929233 0 0,0 -0.3950496742240646,-0.548689445476297 l 14.923661324932711 -10.551014194482459" fill="#ffd513" stroke="none" /><path d="M 82.85270091963577 112.12312394758628 l -13.908056126226088 9.832982296395809 a38.03295529411994,38.03295529411994 0 0,0 -0.37333709058442865,-0.5378199237828397 l 14.07525412397265 -9.592121110425955" fill="#ffc512" stroke="none" /><path d="M 82.6465618267979 111.8261652097733 l -14.171448119226145 9.657676193441882 a38.14936299847001,38.14936299847001 0 0,0 -0.3651382615833933,-0.5458321584572656 l 14.335589486220268 -9.412307120778793" fill="#ffc612" stroke="none" /><path d="M 82.44556493220864 111.52570212397912 l -13.72990564901581 9.01463374297037 a37.4247962133713,37.4247962133713 0 0,0 -0.34893300417539325,-0.5415517712659577 l 13.88304351656825 -8.776960371782964" fill="#ffbd11" stroke="none" /><path d="M 82.24976979558568 111.22182372390057 l -12.627448389743476 7.983164064943399 a35.93932265276571,35.93932265276571 0 0,0 -0.32608151389211,-0.5257472270084329 l 12.762994543303542 -7.764620506569702" fill="#ffa90f" stroke="none" /><line stroke="#e1ed5e" stroke-width="0.3" x1="26.63291911575756" x2="22.317208475507996" y1="142.92168965132927" y2="145.44649492493687" /><path d="M 25.769776987707644 143.4266507060508 a86.0,86.0 0 0,1 -11.730757126820373,-40.83630448921669" fill="none" id="id57" stroke="none" /><text fill="#e1ed5e" style="font-size:6.75px; font-family:Arial;" text-anchor="middle"><textPath startOffset="21.46611528233685" xlink:href="#id57">September</textPath></text><path d="M 81.87401531095188 110.60418214915194 l -15.93456397680908 9.322142867057218 a39.46111255490436,39.46111255490436 0 0,0 -0.3379524915526626,-0.5892486551223622 l 16.09266846451412 -9.04647436607655" fill="#ffd714" stroke="none" /><path d="M 81.69416730710424 110.29060199501025 l -18.198805108363537 10.230436566133811 a41.87722059340962,41.87722059340962 0 0,0 -0.34782738943301894,-0.631407745115777 l 18.372208907248073 -9.915658302620212" fill="#fff717" stroke="none" /><path d="M 81.51974371655577 109.97397251340807 l -13.232601488674568 7.1417626197727655 a36.036838613061455,36.036838613061455 0 0,0 -0.28992064262768136,-0.548420596404712 l 13.353574639527135 -6.912927008281928" fill="#ffaa0f" stroke="none" /><path d="M 81.35079622478065 109.6543875284942 l -11.390296040722733 5.896569814285111 a33.826081999973425,33.826081999973425 0 0,0 -0.2632334912549751,-0.5193846512138595 l 11.490108201763976 -5.699630951368567" fill="#ff8c0c" stroke="none" /><path d="M 81.18737489456691 109.33194174019688 l -13.753364380524554 6.822311847041905 a36.352490700917876,36.352490700917876 0 0,0 -0.2732439176706476,-0.562963402576561 l 13.86876155480992 -6.584559488500059" fill="#ffae10" stroke="none" /><path d="M 81.02952815118164 109.00673069616217 l -5.5519718308114845 2.635944720368786 a27.145941407055904,27.145941407055904 0 0,0 -0.19677625390155712,-0.42383854486659006 l 5.5965227015528685 -2.539986108223369" fill="#ff2d04" stroke="none" /><path d="M 80.87730276802145 108.67885076344099 l -5.206734003776236 2.3630802096338015 a26.717886590624428,26.717886590624428 0 0,0 -0.1864640227140285,-0.420427146155778 l 5.246639111221544 -2.2731047269853275" fill="#ff2603" stroke="none" /><path d="M 80.73074385275274 108.34839909993369 l -29.569034619952355 12.81077484884558 a53.224893492201886,53.224893492201886 0 0,0 -0.35698447735812483,-0.8438058529647375 l 29.785170078502787 -12.299894470214685" fill="#81ff25" stroke="none" /><path d="M 80.58989483394504 108.01547362559985 l -13.763415953435667 5.683652748355821 a35.89078665723138,35.89078665723138 0 0,0 -0.23089292617322796,-0.5730573073708899 l 13.859211493866283 -5.445896073142126" fill="#ffa80f" stroke="none" /><path d="M 80.45479744820244 107.68017299344265 l -15.49677727317579 6.0893679655366135 a37.65024048096967,37.65024048096967 0 0,0 -0.23182816518425764,-0.6052301852114093 l 15.599299717953555 -5.821714213492046" fill="#ffc011" stroke="none" /><path d="M 80.32549172779594 107.34259656027581 l -11.817966685340894 4.410507258055968 a33.614155177783076,33.614155177783076 0 0,0 -0.19764441196484894,-0.5438325368300017 l 11.892135358310966 -4.206426924219849" fill="#ff890c" stroke="none" /><path d="M 80.20201598880116 107.00284435728193 l -14.014266271187173 4.957056507527044 a35.86512927419572,35.86512927419572 0 0,0 -0.2008603834310405,-0.5837942949119644 l 14.097517485561443 -4.715089509525782" fill="#ffa80f" stroke="none" /><path d="M 80.0844068197444 106.66101706037122 l -15.355065740287868 5.135692114889168 a37.19115120636877,37.19115120636877 0 0,0 -0.1978352277798933,-0.6088742236114966 l 15.44119321908401 -4.870618991299868" fill="#ffba11" stroke="none" /><path d="M 79.97269907076064 106.31721596034903 l -14.289774755203647 4.507426810647802 a35.98380989627812,35.98380989627812 0 0,0 -0.18124398620262774,-0.5923158336170495 l 14.365245513912406 -4.260784004478705" fill="#ffa90f" stroke="none" /><path d="M 79.86692584326677 105.97154293290107 l -15.689130169868442 4.653453002750214 a37.3647007407982,37.3647007407982 0 0,0 -0.1775843930704239,-0.6181945691618199 l 15.766907199824969 -4.382700958083798" fill="#ffbc11" stroke="none" /><path d="M 79.76711848015287 105.62410040840567 l -30.269596990642736 8.413989506653092 a52.41725197075639,52.41725197075639 0 0,0 -0.2341601542978356,-0.8713970438577813 l 30.40994522128235 -7.891701529619771" fill="#8aff24" stroke="none" /><path d="M 79.67330655649465 105.27499134158121 l -14.421907880464307 3.742637208061904 a35.899622820184675,35.899622820184675 0 0,0 -0.15007527165176843,-0.5994761094844218 l 14.484194466411134 -3.4938332591800902" fill="#ffa80f" stroke="none" /><path d="M 79.50377843672027 104.57218783832718 l -14.555939135283543 3.2470613027040547 a35.91371084651963,35.91371084651963 0 0,0 -0.12940216448449457,-0.6045238322727864 l 14.60967533849248 -2.9960236510151046" fill="#ffa80f" stroke="none" /><path d="M 79.4281124754447 104.21870165774334 l -14.582394127245118 2.990429060291375 a35.88586189802082,35.88586189802082 0 0,0 -0.11888484845101362,-0.606191280983714 l 14.631708908671797 -2.738974052239706" fill="#ffa80f" stroke="none" /><path d="M 79.35854240842038 103.8639653848113 l -16.190005577790473 3.0306784709817993 a37.47122620217934,37.47122620217934 0 0,0 -0.1132229815448233,-0.6350146091614247 l 16.239775001674484 -2.7515451110871605" fill="#ffbd11" stroke="none" /><path d="M 79.29508885075956 103.50808413554451 l -14.79538179706949 2.5068180098675565 a36.00624733421556,36.00624733421556 0 0,0 -0.09827690139193748,-0.6119703587802328 l 14.836340452822718 -2.25176842139411" fill="#ffaa0f" stroke="none" /><path d="M 79.23777060512086 103.15116336523772 l -33.765736260047724 5.124755587624156 a55.15242399912467,55.15242399912467 0 0,0 -0.1343774339357197,-0.9398354599687422 l 33.848947745000046 -4.5427746556750135" fill="#6cff28" stroke="none" /><path d="M 79.18660465613746 102.79330883721812 l -16.658974418144343 2.2357553725569863 a37.80833218229296,37.80833218229296 0 0,0 -0.08101513743319068,-0.6457703568472609 l 16.694991064824382 -1.9486672614223166" fill="#ffc212" stroke="none" /><path d="M 79.1416061653843 102.43462659150553 l -16.302470093705594 1.9028515576060696 a37.413146413971,37.413146413971 0 0,0 -0.06915677320926325,-0.6403058300497311 l 16.332809168415906 -1.6219494056715564" fill="#ffbd11" stroke="none" /><path d="M 79.10278846688536 102.07522291339032 l -16.450747650639276 1.63366142956013 a37.53166500784014,37.53166500784014 0 0,0 -0.05830884396544519,-0.643433234361094 l 16.476431090881796 -1.3502468066504698" fill="#ffbe11" stroke="none" /><path d="M 79.07016306316243 101.71520430193888 l -16.325853640361814 1.3379069546159663 a37.38058277674286,37.38058277674286 0 0,0 -0.0470344588616296,-0.6417478221153483 l 16.34646465788778 -1.0566859960038573" fill="#ffbc11" stroke="none" /><path d="M 79.04373962182676 101.35467743843564 l -12.068533507138934 0.7801473050102855 a33.093722786241216,33.093722786241216 0 0,0 -0.031854519058399,-0.5687838364432791 l 12.080174377084864 -0.5722917522315688" fill="#ff820c" stroke="none" /><path d="M 79.0235259727143 100.99374915477108 l -15.052561546665885 0.7131069928473793 a36.069443609483805,36.069443609483805 0 0,0 -0.02404263237031697,-0.6204335104424353 l 15.062606311887402 -0.45389623539094726" fill="#ffab0f" stroke="none" /><path d="M 79.0095281055655 100.63252640178507 l -15.035030064725026 0.45306525338729925 a36.041854844766064,36.041854844766064 0 0,0 -0.01334910893803099,-0.620280638033921 l 15.040601236348063 -0.19419479956324942" fill="#ffaa0f" stroke="none" /><line stroke="#e1ed5e" stroke-width="0.3" x1="15.007084014347285" x2="10.007500721073583" y1="101.09737516637583" y2="101.16192664675087" /><path d="M 14.007167355692545 101.11028546245083 a86.0,86.0 0 0,1 10.666146001902534,-42.60595125391555" fill="none" id="id58" stroke="none" /><text fill="#e1ed5e" style="font-size:6.75px; font-family:Arial;" text-anchor="middle"><textPath startOffset="22.20632615414155" xlink:href="#id58">October</textPath></text><path d="M 79.00175016825051 100.2711162175752 l -35.32377114461507 0.4560783541464455 a56.326715320593586,56.326715320593586 0 0,0 -0.004172743985601885,-0.969598748205448 l 35.32638818589018 0.1520298722626778" fill="#5fff29" stroke="none" /><path d="M 79.00019446554 99.90962569577889 l -22.72346050876179 -0.09779218810410086 a43.723670935949386,43.723670935949386 0 0,0 0.009717050525972533,-0.7525962718019452 l 22.718410451118103 0.4889247179665181" fill="#f0ff19" stroke="none" /><path d="M 79.00486145842228 99.54816195383935 l -17.66916753418021 -0.38025955961751934 a38.67325885861486,38.67325885861486 0 0,0 0.020051726611834755,-0.6654191867608731 l 17.660004113112734 0.6843488938033868" fill="#ffcd13" stroke="none" /><path d="M 79.01574976396665 99.18683210126434 l -8.9369258133806 -0.346317886180376 a29.943633437935443,29.943633437935443 0 0,0 0.024391786881039462,-0.5148720696090653 l 8.929640418266063 0.5001010624124503" fill="#ff5507" stroke="none" /><path d="M 79.03285615573316 98.82574320788736 l -23.720581377915806 -1.3284619976265686 a44.757752254484515,44.757752254484515 0 0,0 0.049701158597403455,-0.768854925248315 l 23.69419962831399 1.7365759871278954" fill="#e4ff1b" stroke="none" /><path d="M 79.05617556472873 98.46500227214037 l -12.990699386959658 -0.9521037623247404 a34.02554306493925,34.02554306493925 0 0,0 0.04783912963401251,-0.583758553606905 l 12.972385773506149 1.1755762331394237" fill="#ff8f0d" stroke="none" /><path d="M 79.08570108090925 98.10471618934814 l -31.237270465062345 -2.8307663207081974 a52.365272262008375,52.365272262008375 0 0,0 0.08907800188721915,-0.8970033225699514 l 31.183915337492895 3.3680451739825794" fill="#8aff24" stroke="none" /><path d="M 79.12142395522702 97.74499172005258 l -14.981395944798056 -1.6180783511406225 a36.06852355094027,36.06852355094027 0 0,0 0.07198186141436412,-0.6166966300162998 l 14.951323730380103 1.8757187194817841" fill="#ffab0f" stroke="none" /><path d="M 79.16333360222342 97.38593545837743 l -14.935900152935202 -1.8737837541598847 a36.052979071791846,36.052979071791846 0 0,0 0.08255102284075883,-0.6151010054928437 l 14.90143313103661 2.1306031017173876" fill="#ffaa0f" stroke="none" /><path d="M 79.21141760316559 97.0276538004421 l -15.070561826944672 -2.1547850794454635 a36.22382778798955,36.22382778798955 0 0,0 0.09356805593181287,-0.6164965811420698 l 15.031237877573558 2.4138807729796254" fill="#ffad10" stroke="none" /><path d="M 79.26566170972629 96.67025291283419 l -16.411676132941817 -2.635566664059202 a37.621953108262346,37.621953108262346 0 0,0 0.10818665305625821,-0.6385237504333433 l 16.363877618365336 2.9176762028083734" fill="#ffbf11" stroke="none" /><path d="M 79.32604984820605 96.31383870115002 l -14.969769723527472 -2.6691070357821753 a36.20585867170617,36.20585867170617 0 0,0 0.11467649903668548,-0.6126064433499533 l 14.921607500580924 2.9263915565947016" fill="#ffac10" stroke="none" /><path d="M 79.3925641242962 95.95851677861259 l -30.708470091009342 -6.02247496369088 a52.29345522659169,52.29345522659169 0 0,0 0.1808375017901331,-0.8818278818602511 l 30.600253293304213 6.550178501714534" fill="#8bff24" stroke="none" /><path d="M 79.46518482838121 95.60439243477599 l -21.993861087716585 -4.707925607203397 a43.492098369621615,43.492098369621615 0 0,0 0.16300344108327386,-0.7307124646134825 l 21.909563259631277 5.085816241366839" fill="#f3ff19" stroke="none" /><path d="M 79.54389044137918 95.25157060432595 l -14.653248003743848 -3.401424565296007 a36.04285099748788,36.04285099748788 0 0,0 0.14548816903208317,-0.6031423873150992 l 14.59252703445095 3.653152184270503" fill="#ffaa0f" stroke="none" /><path d="M 79.62865764111835 94.90015583598534 l -16.24528142636046 -4.06690939730239 a37.74660922896091,37.74660922896091 0 0,0 0.16321574178322668,-0.6289368329820794 l 16.172869352706925 4.345942655833333" fill="#ffc111" stroke="none" /><path d="M 79.71946130924805 94.55025226153421 l -9.18025019752515 -2.4668993519056173 a30.50592373741726,30.50592373741726 0 0,0 0.14063699970836563,-0.5059461150717237 l 9.136426427250424 2.6245567703962833" fill="#ff5d08" stroke="none" /><path d="M 79.81627453868168 94.20196356495316 l -15.994439745434743 -4.594609879128572 a37.64129029587936,37.64129029587936 0 0,0 0.18425250797727283,-0.6212078600711644 l 15.912981340345763 4.869247125946276" fill="#ffc011" stroke="none" /><path d="M 79.91906864156998 93.8553929516997 l -14.267095376214934 -4.365618966704984 a35.920075047950256,35.920075047950256 0 0,0 0.1860052944809125,-0.5896876140348358 l 14.189834597965818 4.6105567471662345" fill="#ffa90f" stroke="none" /><path d="M 80.02781315780177 93.51064311812611 l -5.853285991696778 -1.9018479063864415 a27.154509107932185,27.154509107932185 0 0,0 0.14826711907688375,-0.44329981424475867 l 5.8196815788481215 2.0023208235535224" fill="#ff2d04" stroke="none" /><path d="M 80.14247586403 93.16781622104843 l -33.386537282949305 -11.486978784366247 a56.307386668206476,56.307386668206476 0 0,0 0.3232229519287187,-0.913794810773303 l 33.18386125021078 12.059971221566162" fill="#5fff29" stroke="none" /><path d="M 80.2630227832202 92.82701384747504 l -18.280807685575045 -6.643772191930202 a40.450646225132076,40.450646225132076 0 0,0 0.24346552738098348,-0.652366569936364 l 18.163737569692433 6.957461898895907" fill="#ffe415" stroke="none" /><path d="M 80.38941819471856 92.48833698450439 l -14.213434705203355 -5.444332700495607 a36.220462695751564,36.220462695751564 0 0,0 0.22802756164990226,-0.5803052722438806 l 14.117613593671763 5.688186977635251" fill="#ffad10" stroke="none" /><path d="M 80.52162464483688 92.15188598940014 l -14.71973909060853 -5.930791890133574 a36.869625431611894,36.869625431611894 0 0,0 0.24224803439007045,-0.5866228302172782 l 14.61546936933226 6.183289290804163" fill="#ffb510" stroke="none" /><path d="M 80.65960295795068 91.81776055985345 l -13.940745943021112 -5.897837621019369 a36.13700386641197,36.13700386641197 0 0,0 0.2472963416216365,-0.570794052122201 l 13.837158891556795 6.136930817728169" fill="#ffab0f" stroke="none" /><path d="M 80.803312248108 91.48605970444005 l -10.289478118363244 -4.563495718868531 a32.25605850750641,32.25605850750641 0 0,0 0.22947525737695368,-0.5056183115320756 l 10.20940054402294 4.739936039242677" fill="#ff760a" stroke="none" /><path d="M 80.95270993114464 91.15688171328213 l -14.989915305163032 -6.95939389132248 a37.52666706237339,37.52666706237339 0 0,0 0.27705724954522015,-0.5835532259500315 l 14.86789986177606 7.216389532913044" fill="#ffbe11" stroke="none" /><path d="M 81.10775173730289 90.83032412892265 l -32.04112146475533 -15.551706408482294 a56.615853730253804,56.615853730253804 0 0,0 0.4330842861837832,-0.8730714937851427 l 31.76867716561813 16.1009374907664" fill="#5cff2a" stroke="none" /><path d="M 81.26839172434947 90.50648371742162 l -13.695365231493383 -6.941057644796649 a36.353869546547145,36.353869546547145 0 0,0 0.28769858032209233,-0.5557420845633771 l 13.573857218011177 7.175772451620362" fill="#ffae10" stroke="none" /><path d="M 81.6062741919709 89.86733742301443 l -14.415761335807687 -7.941297316845536 a37.45838321237861,37.45838321237861 0 0,0 0.3159745883625126,-0.5620835353048826 l 14.276929106152743 8.188264362085203" fill="#ffbd11" stroke="none" /><line stroke="#e1ed5e" stroke-width="0.3" x1="26.266209847984243" x2="21.928928074336255" y1="57.711370442889674" y2="55.22380399835377" /><path d="M 25.398753493254645 57.213857153982495 a86.0,86.0 0 0,1 29.58750427330803,-30.492523968695096" fill="none" id="id59" stroke="none" /><text fill="#e1ed5e" style="font-size:6.75px; font-family:Arial;" text-anchor="middle"><textPath startOffset="21.46611528233685" xlink:href="#id59">November</textPath></text><path d="M 81.96595687620814 89.24020034530311 l -14.265511907771652 -8.51134984238864 a37.61167981061229,37.61167981061229 0 0,0 0.33650668744434764,-0.5531285156825673 l 14.116889422041087 8.755646131278283" fill="#ffbf11" stroke="none" /><path d="M 82.15384107792192 88.93136811851018 l -18.82552305528864 -11.676057889280843 a43.152441087587654,43.152441087587654 0 0,0 0.3969457510830377,-0.6278728514850545 l 18.621749707959644 11.998378388480115" fill="#f7ff18" stroke="none" /><path d="M 82.34701348167596 88.62581576622439 l -52.95895955497213 -34.12255270132681 a84.0,84.0 0 0,0 0.793613458568319,-1.208727744089332 l 52.36374946104589 35.02909850939381" fill="#4dd2ff" stroke="none" /><path d="M 82.54541684631803 88.32363383020206 l -12.563010983525079 -8.404114561045159 a36.114839943821536,36.114839943821536 0 0,0 0.3500998970881613,-0.513728398918615 l 12.416486620768177 8.61912098323419" fill="#ffab0f" stroke="none" /><path d="M 82.7489923806493 88.02491185347247 l -13.329115249404282 -9.252638080560313 a37.22580120615733,37.22580120615733 0 0,0 0.3699311871149811,-0.5232414295226036 l 13.167871442485422 9.480706010414703" fill="#ffba11" stroke="none" /><path d="M 82.95767976084542 87.72973835380427 l -12.273707311829783 -8.83691879812065 a36.1239883966182,36.1239883966182 0 0,0 0.3676689002609998,-0.5014999667613874 l 12.119775799055152 9.046881208553538" fill="#ffab0f" stroke="none" /><path d="M 83.39014120810768 87.1503855733568 l -11.862072267510618 -9.17666169521502 a35.99732904046821,35.99732904046821 0 0,0 0.38336455949604087,-0.48683405927941953 l 11.702353627420607 9.379488148447487" fill="#ffaa0f" stroke="none" /><path d="M 83.6137871275137 86.86637796730984 l -24.467346888854877 -19.61068665966741 a52.35650004453963,52.35650004453963 0 0,0 0.5696923433228441,-0.6983754517328904 l 24.12615605345564 20.028946281008384" fill="#8aff24" stroke="none" /><path d="M 83.84228863543731 86.58626213691792 l -12.845437577928333 -10.663968956941329 a37.69507413829186,37.69507413829186 0 0,0 0.4187552723942608,-0.4956741603026792 l 12.659971692046948 10.883502066873124" fill="#ffc011" stroke="none" /><path d="M 84.07557802195018 86.31012108654704 l -9.382880045345544 -8.066257717692386 a33.373477745305706,33.373477745305706 0 0,0 0.3782456782898344,-0.4324001966621409 l 9.242642503477867 8.226573470557469" fill="#ff860c" stroke="none" /><path d="M 84.31358615837235 86.03803664274999 l -12.524467290476704 -11.147618260246515 a37.76698165402475,37.76698165402475 0 0,0 0.4363999177660126,-0.48188368892560685 l 12.330723732094645 11.36155473644168" fill="#ffc112" stroke="none" /><path d="M 84.5562425177563 85.77008943001954 l -12.32920472008856 -11.360155115589942 a37.76491614294919,37.76491614294919 0 0,0 0.4446057787420233,-0.4742744455205489 l 12.131831619376081 11.57069897798854" fill="#ffc112" stroke="none" /><path d="M 84.80347519578584 85.50635884689758 l -9.422621972556023 -8.986798189128953 a34.02107317120317,34.02107317120317 0 0,0 0.407824757350615,-0.42029926125805717 l 9.26653295150229 9.147661645937134" fill="#ff8f0d" stroke="none" /><path d="M 85.05521093208273 85.24692304244772 l -10.727523931142677 -10.589910998468689 a36.074016871714285,36.074016871714285 0 0,0 0.4400415079377873,-0.43815182985797174 l 10.543646623037578 10.77299867897677" fill="#ffab0f" stroke="none" /><path d="M 85.31137513191541 84.99185889309783 l -15.788417241674408 -16.131856858333393 a43.57234867476045,43.57234867476045 0 0,0 0.5405393783303301,-0.5199984536849839 l 15.50839461973165 16.401238398780688" fill="#f2ff19" stroke="none" /><path d="M 85.83668400450813 84.49514656593479 l -11.554225489275009 -12.648632058507424 a38.13149204268309,38.13149204268309 0 0,0 0.488426304097781,-0.4385139583530631 l 11.334788197581256 12.845645025629766" fill="#ffc612" stroke="none" /><path d="M 86.10567301691215 84.25364557470407 l -8.000544333062196 -9.066967174231054 a33.09208846162966,33.09208846162966 0 0,0 0.4303645035524101,-0.3732078565984082 l 7.8432860308630135 9.203340024249142" fill="#ff820c" stroke="none" /><path d="M 86.65592168130627 83.78471172551755 l -10.72634438554699 -13.034303470728362 a37.88038894233178,37.88038894233178 0 0,0 0.5070499329878256,-0.4099991161835772 l 10.500391053994665 13.217008684176074" fill="#ffc312" stroke="none" /><path d="M 86.93701828274178 83.55741782278169 l -5.9573874431175025 -7.498658018144086 a30.57707352067899,30.57707352067899 0 0,0 0.4149271672328703,-0.32385723549092355 l 5.827427720725206 7.600093642858231" fill="#ff5e08" stroke="none" /><path d="M 87.22198572758235 83.33499621200491 l -14.617631514637965 -19.06422072863027 a45.02331498956114,45.02331498956114 0 0,0 0.619078827323015,-0.46627733788961656 l 14.28730653355656 19.313014656025743" fill="#e0ff1b" stroke="none" /><path d="M 87.80319425747018 82.90503203632743 l -8.659265034179512 -12.136772649585946 a35.90919586295322,35.90919586295322 0 0,0 0.5062664141719857,-0.3546719764826107 l 8.449067480423865 12.284029468832498" fill="#ffa80f" stroke="none" /><path d="M 88.09926311788651 82.69761687909137 l -9.584029329468917 -13.934141132867952 a37.91194569819815,37.91194569819815 0 0,0 0.5408686170044931,-0.365196904586921 l 9.342756018057885 14.097049949753536" fill="#ffc312" stroke="none" /><path d="M 89.00827224532344 82.1063720568725 l -7.045414909585447 -11.469355492674765 a34.46046012087097,34.46046012087097 0 0,0 0.5081078890007422,-0.3061293178649771 l 6.846944954367055 11.588931419998362" fill="#ff950d" stroke="none" /><line stroke="#e1ed5e" stroke-width="0.3" x1="56.762969772571076" x2="54.21961505331055" y1="26.818313649435495" y2="22.513508569990535" /><path d="M 56.25429882871897 25.957352633546506 a86.0,86.0 0 0,1 42.265352541879196,-11.944610805530505" fill="none" id="id60" stroke="none" /><text fill="#e1ed5e" style="font-size:6.75px; font-family:Arial;" text-anchor="middle"><textPath startOffset="22.20632615414155" xlink:href="#id60">December</textPath></text><path d="M 89.3179101791058 81.91981866633112 l -15.93450172010446 -26.970254453171258 a52.325755702565516,52.325755702565516 0 0,0 0.7794127314278048,-0.4514861616537572 l 15.467892256211336 27.24054477221506" fill="#8bff24" stroke="none" /><path d="M 89.94658935756843 81.56283822128135 l -7.922235469328455 -14.52875468755189 a37.5483089046146,37.5483089046146 0 0,0 0.570117347081986,-0.30453694239712664 l 7.670973075718163 14.662970356450767" fill="#ffbe11" stroke="none" /><path d="M 90.26544431104013 81.39251694778311 l -6.877116649288461 -13.145523595379077 a35.835751548357386,35.835751548357386 0 0,0 0.5490370109551767,-0.28123808172444104 l 6.649819150744521 13.261954202416023" fill="#ffa70f" stroke="none" /><path d="M 90.58718382345135 81.22770947309562 l -7.441185848791545 -14.840202974135146 a37.601291249471686,37.601291249471686 0 0,0 0.5810809241887144,-0.28513388589265476 l 7.184633657592405 14.96609202016263" fill="#ffbf11" stroke="none" /><path d="M 91.23893434514133 80.91482961587045 l -5.505484037488191 -11.993187249349813 a34.19647281984865,34.19647281984865 0 0,0 0.5370765819690958,-0.24097060692293837 l 5.298225337052321 12.086178186789281" fill="#ff910d" stroke="none" /><path d="M 91.56875222667455 80.76684994638697 l -6.56646162048629 -14.979246852128869 a37.355312729212244,37.355312729212244 0 0,0 0.591132245368556,-0.2530919775338124 l 6.307645617327426 15.090058357625466" fill="#ffbc11" stroke="none" /><path d="M 91.90106846888425 80.62456947434976 l -12.704713250200733 -30.39404494059971 a53.94249089885312,53.94249089885312 0 0,0 0.85978199135372,-0.35072666211332715 l 12.179647389258633 30.608232488896615" fill="#79ff26" stroke="none" /><path d="M 92.23578459929587 80.48803036053334 l -3.133914283451632 -7.8757269338320475 a29.47634906503441,29.47634906503441 0 0,0 0.47304885091726884,-0.18353560490105575 l 2.9978822675346866 7.928505242623655" fill="#ff4f07" stroke="none" /><path d="M 92.57280143429618 80.3572730644239 l -5.257283945215124 -13.903949388872055 a35.86468442614684,35.86468442614684 0 0,0 0.5793302303780133,-0.21337221301715562 l 5.017171389064541 13.992384869695535" fill="#ffa80f" stroke="none" /><path d="M 92.91201910852362 80.23233633223022 l -5.422579339365498 -15.123026745356684 a37.06581167051597,37.06581167051597 0 0,0 0.6024394551022954,-0.21017929667640908 l 5.161457880199918 15.214126895205302" fill="#ffb811" stroke="none" /><path d="M 93.25333710446033 80.11325718540243 l -4.854030940842907 -14.307942523474855 a36.10889921965595,36.10889921965595 0 0,0 0.5903240653345501,-0.19462056303673872 l 4.607024053265948 14.389376810770827" fill="#ffab0f" stroke="none" /><path d="M 93.59665428221793 80.00007090966166 l -5.1505713900556325 -16.087068716245717 a37.89148204052182,37.89148204052182 0 0,0 0.6228901833360408,-0.19353501203655182 l 4.872895834008863 16.173343863164796" fill="#ffc312" stroke="none" /><path d="M 93.94186890950719 79.89281104454417 l -9.016319480770141 -29.925539209131742 a52.25431032572302,52.25431032572302 0 0,0 0.8634646118639011,-0.2520689979617444 l 8.499864651182818 30.076306536012186" fill="#8cff24" stroke="none" /><path d="M 94.28887869178378 79.79150937346287 l -4.201819165520563 -14.867907480562216 a36.450241329839926,36.450241329839926 0 0,0 0.6052512423818995,-0.16543802804111227 l 3.945270033914941 14.938032049429625" fill="#ffb010" stroke="none" /><path d="M 95.33964822691252 79.52364482259891 l -3.6517785889382384 -16.044950908671304 a37.45527078246663,37.45527078246663 0 0,0 0.6298857807441969,-0.13766863474145866 l 3.3750500840405206 16.10543304150863" fill="#ffbd11" stroke="none" /><path d="M 95.692805502759 79.44645832069477 l -3.392569950787802 -16.189036257392377 a37.54069000417314,37.54069000417314 0 0,0 0.633603883298108,-0.1270949783537387 l 3.113399658022558 16.245035191823327" fill="#ffbe11" stroke="none" /><path d="M 96.04723909329186 79.375362276772 l -2.851492048383941 -14.878458843482626 a36.14924237244897,36.14924237244897 0 0,0 0.612135569336994,-0.11186386262424605 l 2.594961357944054 14.925338187457609" fill="#ffac0f" stroke="none" /><path d="M 96.40284397218896 79.31037775812273 l -2.687939023339753 -15.460114204704567 a36.69204089389588,36.69204089389588 0 0,0 0.6231894930481102,-0.10283160604656198 l 2.421420324152757 15.504092073690757" fill="#ffb310" stroke="none" /><path d="M 96.75951476605007 79.25152402106235 l -5.733929764931678 -36.71373124807738 a58.15879455398443,58.15879455398443 0 0,0 0.9904470949229619,-0.14596615559733234 l 5.1011136895800675 36.80699188783568" fill="#4cff2c" stroke="none" /><path d="M 97.11714578562143 79.19881850522333 l -2.2493823339909214 -16.230376807512478 a37.38550738299884,37.38550738299884 0 0,0 0.6381977982888489,-0.08285639061734826 l 1.969669807194215 16.266691521293964" fill="#ffbc11" stroke="none" /><path d="M 97.47563105711357 79.15227682838746 l -1.9753321032287179 -16.313454091628895 a37.43261151849363,37.43261151849363 0 0,0 0.6403352586680271,-0.07194912728807085 l 1.694230141050973 16.345039172387565" fill="#ffbd11" stroke="none" /><path d="M 98.19473922651362 79.07773832637324 l -1.90942775965749 -22.12951603512051 a43.21174001103935,43.21174001103935 0 0,0 0.7416159540334638,-0.057563671294722084 l 1.528221616261692 22.159104968603696" fill="#f7ff19" stroke="none" /><path d="M 98.55514903715128 79.0497635885617 l -1.1386629972374602 -16.510532642098884 a37.5497504980314,37.5497504980314 0 0,0 0.6452083350615713,-0.038920728758445454 l 0.854292613336266 16.527686640237636" fill="#ffbe11" stroke="none" /><path d="M 98.91598698831166 79.02799685794201 l -0.8567149667888757 -16.57455102624734 a37.59667744628415,37.59667744628415 0 0,0 0.646589749115574,-0.027843514734587498 l 0.5712843852839775 16.58684226750612" fill="#ffbf11" stroke="none" /><path d="M 99.27714615592234 79.0124445844662 l -1.0787116403406656 -31.319637454399075 a52.33820845354762,52.33820845354762 0 0,0 0.9006492617490635,-0.02326111325683189 l 0.5394357433967232 31.333565359798264" fill="#8bff24" stroke="none" /><path d="M 99.63851952072746 79.00311137660856 l -0.4212825200424344 -24.470538962751135 a45.47416507440478,45.47416507440478 0 0,0 0.7827629993149641,-0.006737488262202272 l 5.9944415840347515e-15 24.47416507440478" fill="#dbff1b" stroke="none" /></svg>