<?xml version="1.0" encoding="utf-8" ?>
<svg baseProfile="full" height="200mm" version="1.1" viewBox="0,0,200,200" width="200mm" xmlns="http://www.w3.org/2000/svg" xmlns:ev="http://www.w3.org/2001/xml-events" xmlns:xlink="http://www.w3.org/1999/xlink"><defs /><rect fill="#1a1a1a" height="200" width="200" x="0" y="0" /><text alignment-baseline="middle" fill="#e1ed5e" style="dominant-baseline: central; font-size:9.0px; font-family:Arial;" text-anchor="middle" x="100.0" y="100.0">2017</text><line stroke="#e1ed5e" stroke-width="0.3" x1="100.0" x2="100.0" y1="15.0" y2="10.0" /><path d="M 100.0 14.0 a86.0,86.0 0 0,1 42.46469731375804,11.215312516191453" fill="none" id="id1" stroke="none" /><text fill="#e1ed5e" style="font-size:6.75px; font-family:Arial;" text-anchor="middle"><textPath startOffset="22.20632615414155" xlink:href="#id1">January</textPath></text><line stroke="#e1ed5e" stroke-width="0.3" x1="143.23703022742887" x2="145.7803849466894" y1="26.81831364943548" y2="22.513508569990506" /><path d="M 143.74570117128098 25.957352633546492 a86.0,86.0 0 0,1 28.547481713284135,27.462654790039103" fill="none" id="id2" stroke="none" /><text fill="#e1ed5e" style="font-size:6.75px; font-family:Arial;" text-anchor="middle"><textPath startOffset="19.985693538727396" xlink:href="#id2">February</textPath></text><line stroke="#e1ed5e" stroke-width="0.3" x1="172.23445277983987" x2="176.4835382374775" y1="55.19839476539836" y2="52.563006222186495" /><path d="M 173.08426987136738 54.67131705675599 a86.0,86.0 0 0,1 12.851231095245387,41.99856678651699" fill="none" id="id3" stroke="none" /><text fill="#e1ed5e" style="font-size:6.75px; font-family:Arial;" text-anchor="middle"><textPath startOffset="22.20632615414155" xlink:href="#id3">March</textPath></text><line stroke="#e1ed5e" stroke-width="0.3" x1="184.98032266829074" x2="189.97916517819016" y1="98.17113171792111" y2="98.06355123074" /><path d="M 185.9800911702706 98.14961562048488 a86.0,86.0 0 0,1 -9.607161424134198,41.387399972396054" fill="none" id="id4" stroke="none" /><text fill="#e1ed5e" style="font-size:6.75px; font-family:Arial;" text-anchor="middle"><textPath startOffset="21.466115282336823" xlink:href="#id4">April</textPath></text><path d="M 119.79798401119884 107.00284435728193 l 33.367898912981545 11.802727110242621 a56.393799529095645,56.393799529095645 0 0,0 -0.33158409864658006,0.9123770297716596 l -33.159790553329735 -12.375351937020412" fill="#ff4306" stroke="none" /><line stroke="#e1ed5e" stroke-width="0.3" x1="174.80103733775053" x2="179.2010983576182" y1="140.37084112569926" y2="142.7455964860345" /><path d="M 175.68104954172406 140.8457921977663 a86.0,86.0 0 0,1 -30.038265399797805,32.042727171017184" fill="none" id="id5" stroke="none" /><text fill="#e1ed5e" style="font-size:6.75px; font-family:Arial;" text-anchor="middle"><textPath startOffset="22.206326154141568" xlink:href="#id5">May</textPath></text><path d="M 117.55443506779139 111.5257021239791 l 30.644929012283324 20.120517808865106 a57.65988149278093,57.65988149278093 0 0,0 -0.5518789105921336,0.8249840914213545 l -30.29404699628047 -20.645038814492267" fill="#ff6709" stroke="none" /><path d="M 117.35343817320211 111.8261652097733 l 29.36421806275639 20.011371268330493 a56.53466311189782,56.53466311189782 0 0,0 -0.5549525794181361,0.7994505809710115 l -29.01540457617612 -20.513863111488522" fill="#ff4706" stroke="none" /><path d="M 112.04921762599082 117.19931262002967 l 20.046892025341847 28.61536522173003 a55.93876080585445,55.93876080585445 0 0,0 -0.7933797518452876,0.5456938277420073 l -19.551355388873674 -28.95619983883713" fill="#ff3605" stroke="none" /><line stroke="#e1ed5e" stroke-width="0.3" x1="143.8653032363475" x2="146.44561519142675" y1="172.8068346515853" y2="177.08958963109032" /><path d="M 144.38136562736335 173.6633856474863 a86.0,86.0 0 0,1 -40.68145358897372,12.25698825130547" fill="none" id="id6" stroke="none" /><text fill="#e1ed5e" style="font-size:6.75px; font-family:Arial;" text-anchor="middle"><textPath startOffset="21.466115282336833" xlink:href="#id6">June</textPath></text><path d="M 110.21172684928248 118.3499491758327 l 17.41574082991926 31.295192654996193 a56.81476109048118,56.81476109048118 0 0,0 -0.8586528152024486,0.4682059773687154 l -16.874465202848164 -31.590339284124678" fill="#ff4f07" stroke="none" /><path d="M 109.89434966115114 118.52300852407294 l 18.057273957734438 33.80465122977281 a59.32518215940082,59.32518215940082 0 0,0 -0.904875978806139,0.47338834503149124 l -17.4727070764018 -34.110468993749016" fill="#ff960d" stroke="none" /><path d="M 107.93186726928326 119.44442032107085 l 14.582862721043776 35.74887256756537 a59.6088302722685,59.6088302722685 0 0,0 -0.9533976081072653,0.37937658415008246 l -13.965344036894644 -35.994595996121525" fill="#ff9e0e" stroke="none" /><path d="M 105.88484417918355 120.15858648285463 l 11.790453387006071 40.38830375743324 a63.07409977021326,63.07409977021326 0 0,0 -1.0448339719008402,0.29528051702363356 l -11.093488247000625 -40.5852730677954" fill="#fff917" stroke="none" /><path d="M 105.53697534728816 120.25689768951611 l 14.846904992873354 54.31706240012443 a77.30962489349773,77.30962489349773 0 0,0 -1.2866882268064583,0.3398260552268967 l -13.909726323255398 -54.56457980465491" fill="#3cffa2" stroke="none" /><path d="M 105.18746579009965 120.34920634021253 l 15.562397370298964 61.04761902063758 a84.0,84.0 0 0,0 -1.4041868610271555,0.3451149667438802 l -14.509257224528598 -61.306455245695496" fill="#4dd2ff" stroke="none" /><path d="M 103.06178313531738 120.77559828337769 l 7.232211035860916 49.073858121594995 a70.60391544430402,70.60391544430402 0 0,0 -1.2038687367079923,0.16684523723081596 l -6.386413707966094 -49.19107792431841" fill="#56ff2a" stroke="none" /><line stroke="#e1ed5e" stroke-width="0.3" x1="102.19456741930631" x2="102.32365962044197" y1="184.97166512339345" y2="189.96999836594603" /><path d="M 102.22038585953345 185.97133177190398 a86.0,86.0 0 0,1 -42.740103519485714,-10.115201625700543" fill="none" id="id7" stroke="none" /><text fill="#e1ed5e" style="font-size:6.75px; font-family:Arial;" text-anchor="middle"><textPath startOffset="22.20632615414155" xlink:href="#id7">July</textPath></text><path d="M 98.01472825383883 120.90594882070398 l -3.642928462436115 38.36194019304409 a59.53452196611655,59.53452196611655 0 0,0 -1.0193654036039903,-0.10566139201721661 l 4.3027264626456985 -38.29354943257111" fill="#ff9c0e" stroke="none" /><path d="M 95.16358092515715 120.4354850818985 l -7.632593150826622 32.250253970182726 a54.14114300001332,54.14114300001332 0 0,0 -0.9050509719239427,-0.22243950911815785 l 8.186597407493775 -32.11409320275054" fill="#ff0000" stroke="none" /><line stroke="#e1ed5e" stroke-width="0.3" x1="58.666819895761336" x2="56.23545636021788" y1="174.27360380694188" y2="178.64263932499728" /><path d="M 58.180547188652646 175.14741091055294 a86.0,86.0 0 0,1 -31.652253787137756,-30.449443065178592" fill="none" id="id8" stroke="none" /><text fill="#e1ed5e" style="font-size:6.75px; font-family:Arial;" text-anchor="middle"><textPath startOffset="22.20632615414155" xlink:href="#id8">August</textPath></text><line stroke="#e1ed5e" stroke-width="0.3" x1="26.63291911575756" x2="22.317208475507996" y1="142.92168965132927" y2="145.44649492493687" /><path d="M 25.769776987707644 143.4266507060508 a86.0,86.0 0 0,1 -11.730757126820373,-40.83630448921669" fill="none" id="id9" stroke="none" /><text fill="#e1ed5e" style="font-size:6.75px; font-family:Arial;" text-anchor="middle"><textPath startOffset="21.46611528233685" xlink:href="#id9">September</textPath></text><line stroke="#e1ed5e" stroke-width="0.3" x1="15.007084014347285" x2="10.007500721073583" y1="101.09737516637583" y2="101.16192664675087" /><path d="M 14.007167355692545 101.11028546245083 a86.0,86.0 0 0,1 10.666146001902534,-42.60595125391555" fill="none" id="id10" stroke="none" /><text fill="#e1ed5e" style="font-size:6.75px; font-family:Arial;" text-anchor="middle"><textPath startOffset="22.20632615414155" xlink:href="#id10">October</textPath></text><line stroke="#e1ed5e" stroke-width="0.3" x1="26.266209847984243" x2="21.928928074336255" y1="57.711370442889674" y2="55.22380399835377" /><path d="M 25.398753493254645 57.213857153982495 a86.0,86.0 0 0,1 29.58750427330803,-30.492523968695096" fill="none" id="id11" stroke="none" /><text fill="#e1ed5e" style="font-size:6.75px; font-family:Arial;" text-anchor="middle"><textPath startOffset="21.46611528233685" xlink:href="#id11">November</textPath></text><line stroke="#e1ed5e" stroke-width="0.3" x1="56.762969772571076" x2="54.21961505331055" y1="26.818313649435495" y2="22.513508569990535" /><path d="M 56.25429882871897 25.957352633546506 a86.0,86.0 0 0,1 42.265352541879196,-11.944610805530505" fill="none" id="id12" stroke="none" /><text fill="#e1ed5e" style="font-size:6.75px; font-family:Arial;" text-anchor="middle"><textPath startOffset="22.20632615414155" xlink:href="#id12">December</textPath></text></svg>