<?xml version="1.0" encoding="utf-8" ?>
<svg baseProfile="full" height="200mm" version="1.1" viewBox="0,0,200,200" width="200mm" xmlns="http://www.w3.org/2000/svg" xmlns:ev="http://www.w3.org/2001/xml-events" xmlns:xlink="http://www.w3.org/1999/xlink"><defs /><rect fill="#1a1a1a" height="200" width="200" x="0" y="0" /><text alignment-baseline="middle" fill="#e1ed5e" style="dominant-baseline: central; font-size:9.0px; font-family:Arial;" text-anchor="middle" x="100.0" y="100.0">2023</text><line stroke="#e1ed5e" stroke-width="0.3" x1="100.0" x2="100.0" y1="15.0" y2="10.0" /><path d="M 100.0 14.0 a86.0,86.0 0 0,1 42.46469731375804,11.215312516191453" fill="none" id="id73" stroke="none" /><text fill="#e1ed5e" style="font-size:6.75px; font-family:Arial;" text-anchor="middle"><textPath startOffset="22.20632615414155" xlink:href="#id73">January</textPath></text><path d="M 100.0 79.0 l 0.0 -38.61096302177858 a59.61096302177858,59.61096302177858 0 0,0 1.026104737286166,0.008832007426649028 l -0.6646242580136377 38.60524239096049" fill="#4aff2c" stroke="none" /><path d="M 100.36148047927253 79.00311137660856 l 0.7101629668716292 -41.250395456676706 a62.25650805353902,62.25650805353902 0 0,0 1.071325895063105,0.02766918715021622 l -1.4201154971296022 41.232059477384134" fill="#30ff32" stroke="none" /><path d="M 100.72285384407766 79.0124445844662 l 0.3563535802055379 -10.3464767786226 a31.352611728675136,31.352611728675136 0 0,0 0.539203959730895,0.023219256751671163 l -0.5343983723257644 10.338809795346734" fill="#ff4306" stroke="none" /><path d="M 101.08401301168833 79.027996857942 l 0.8877539068470137 -17.175050043700764 a38.19797810798548,38.19797810798548 0 0,0 0.6563466742359446,0.03959262379493152 l -1.1832626299225704 17.15722415052553" fill="#ffa80f" stroke="none" /><path d="M 101.44485096284872 79.0497635885617 l 3.6326545830629002 -52.673233622803174 a73.79834959165154,73.79834959165154 0 0,0 1.266554723890423,0.09830902289288039 l -4.538799496315664 52.60289933772183" fill="#3fffc0" stroke="none" /><path d="M 101.80526077348638 79.07773832637324 l 0.6770239827971108 -7.846441431309945 a28.875595508166967,28.875595508166967 0 0,0 0.4948381554140525,0.04699084539483676 l -0.8119872653014075 7.833625041399929" fill="#ff1d02" stroke="none" /><path d="M 102.16513564639614 79.11191278185805 l 6.493503604199787 -62.64589928192803 a83.98153924682396,83.98153924682396 0 0,0 1.4366173899030454,0.16142070275092216 l -7.570887697612558 62.524842625706505" fill="#4dd2ff" stroke="none" /><path d="M 102.52436894288641 79.15227682838746 l 0.9636755532309667 -7.958599402683986 a29.016730943738658,29.016730943738658 0 0,0 0.49533669858004453,0.06430891973412758 l -1.1005269803188573 7.940832159785722" fill="#ff1f03" stroke="none" /><path d="M 102.88285421437855 79.19881850522331 l 6.467169708999725 -46.66374393941529 a68.10975782667876,68.10975782667876 0 0,0 1.1599124825863079,0.17094094856793268 l -7.269451172014689 46.54550850668639" fill="#38ff7c" stroke="none" /><path d="M 103.2404852339499 79.25152402106235 l 3.7916544272697634 -24.27755262712469 a45.57185798548094,45.57185798548094 0 0,0 0.7740071793051394,0.12771781653477435 l -4.208990812713778 24.208688547650294" fill="#f2ff19" stroke="none" /><path d="M 103.59715602781102 79.31037775812273 l 2.8316485014184507 -16.286682413322144 a37.53100896098003,37.53100896098003 0 0,0 0.6355338045931069,0.11613974055954315 l -3.1115774271144585 16.23552719141186" fill="#ff9e0e" stroke="none" /><path d="M 103.95276090670814 79.375362276772 l 3.6137991048170957 -18.85600953371345 a40.1991833030853,40.1991833030853 0 0,0 0.6784733749810337,0.1360953762750717 l -3.9378388892652545 18.791010201361168" fill="#ffc412" stroke="none" /><path d="M 104.307194497241 79.44645832069477 l 5.311257915020315 -25.344841287254642 a46.89537488656987,46.89537488656987 0 0,0 0.788640135463813,0.1723661877608138 l -5.746740774637655 25.249661601397957" fill="#e0ff1b" stroke="none" /><path d="M 104.66035177308747 79.52364482259891 l 1.7080511709184738 -7.504725853287215 a28.69664530399274,28.69664530399274 0 0,0 0.48070476578965615,0.11376728711433051 l -1.8369796236706535 7.474212654032016" fill="#ff1a02" stroke="none" /><path d="M 105.01212808612495 79.60689891045804 l 1.9456392176430481 -7.916321484084047 a29.151911297640652,29.151911297640652 0 0,0 0.4862693050193389,0.12396087308715438 l -2.081617411347412 7.881657614828025" fill="#ff2103" stroke="none" /><path d="M 105.36241919743992 79.69619591428918 l 4.300777590505749 -16.284095367913924 a37.8424597323049,37.8424597323049 0 0,0 0.6283688374105451,0.17175694003465097 l -4.580444317140006 16.20765188705298" fill="#ffa30f" stroke="none" /><path d="M 105.71112130821622 79.79150937346287 l 4.2317588538746485 -14.973847431547801 a36.560330648820326,36.560330648820326 0 0,0 0.6041329704003169,0.17636298047667812 l -4.488882041998393 14.898786122152421" fill="#ff910d" stroke="none" /><path d="M 106.0581310904928 79.89281104454417 l 2.295936166030254 -7.620307588339082 a28.958668897459166,28.958668897459166 0 0,0 0.4760455281061944,0.1479096628534865 l -2.426767066847167 7.579657790603075" fill="#ff1e03" stroke="none" /><path d="M 106.40334571778207 80.00007090966166 l 2.3870911639622014 -7.455735816174791 a28.828550362976404,28.828550362976404 0 0,0 0.47130174045044715,0.1553807738376354 l -2.5150757266550663 7.413541318077919" fill="#ff1c02" stroke="none" /><path d="M 106.74666289553966 80.11325718540242 l 3.0588034929074404 -9.016255788333318 a30.520984573502723,30.520984573502723 0 0,0 0.4960648232687471,0.1730672763503296 l -3.2135503202394613 8.96226765881078" fill="#ff3605" stroke="none" /><path d="M 107.08798089147638 80.2323363322302 l 2.5070436042248425 -6.991891700547087 a28.427773366606168,28.427773366606168 0 0,0 0.4592001507087828,0.1691272908555319 l -2.6270260807062016 6.947701141885231" fill="#ff1602" stroke="none" /><path d="M 107.4271985657038 80.35727306442388 l 2.830166195741971 -7.484946211343127 a29.002140993647913,29.002140993647913 0 0,0 0.4654385602815539,0.18058293036735862 l -2.9585879210231916 7.435120577085222" fill="#ff1f03" stroke="none" /><path d="M 107.76421540070413 80.48803036053334 l 6.160027747303207 -15.480543516702534 a37.66112749546279,37.66112749546279 0 0,0 0.6002755648676042,0.24486747493132024 l -6.425587181759199 15.372215155587634" fill="#ffa00e" stroke="none" /><path d="M 108.09893153111575 80.62456947434976 l 5.5064650178661285 -13.173358730801668 a35.277903811252266,35.277903811252266 0 0,0 0.5582581155995271,0.23901699079753488 l -5.7324068912559705 13.076622212041343" fill="#ff7e0b" stroke="none" /><path d="M 108.43124777332544 80.76684994638697 l 3.190647729555011 -7.2784252343882105 a28.947056488203266,28.947056488203266 0 0,0 0.4546312784553165,0.20397980245921996 l -3.3154611264771074 7.22242510141246" fill="#ff1e03" stroke="none" /><path d="M 108.76106565485865 80.91482961587045 l 3.2875113792512787 -7.1615391648138145 a28.880061819419236,28.880061819419236 0 0,0 0.4500088326823119,0.21128518090401252 l -3.4102984232331885 7.103889001269799" fill="#ff1d02" stroke="none" /><path d="M 109.08828744355905 81.06846463323043 l 3.4832335793847093 -7.255818008438465 a29.048590630671505,29.048590630671505 0 0,0 0.4489096339287841,0.22027800777571924 l -3.607614480323925 7.194784840527913" fill="#ff2003" stroke="none" /><path d="M 109.41281617654863 81.2277094730956 l 5.649184481637791 -11.266355396761702 a33.60333484573503,33.60333484573503 0 0,0 0.5148343127932651,0.2637181312859069 l -5.8422792820198115 11.167444740163294" fill="#ff6509" stroke="none" /><path d="M 109.73455568895987 81.39251694778311 l 4.914620071699097 -9.39423560912385 a31.602129650635206,31.602129650635206 0 0,0 0.47983312282664603,0.2563102365406126 l -5.075598241054054 9.308246646081484" fill="#ff4706" stroke="none" /><path d="M 110.05341064243156 81.56283822128135 l 3.8347444008435465 -7.032618621981185 a29.010180353901994,29.010180353901994 0 0,0 0.4363627212130164,0.24283538191514958 l -3.955231211128598 6.965567842505855" fill="#ff1f03" stroke="none" /><path d="M 110.36928655335952 81.73862282372117 l 3.9834597589145133 -7.015281210499355 a29.067349137931032,29.067349137931032 0 0,0 0.43296960899599757,0.2508039437850015 l -4.103626100375839 6.945673109324304" fill="#ff2003" stroke="none" /><line stroke="#e1ed5e" stroke-width="0.3" x1="143.23703022742887" x2="145.7803849466894" y1="26.81831364943548" y2="22.513508569990506" /><path d="M 143.74570117128098 25.957352633546492 a86.0,86.0 0 0,1 28.547481713284135,27.462654790039103" fill="none" id="id74" stroke="none" /><text fill="#e1ed5e" style="font-size:6.75px; font-family:Arial;" text-anchor="middle"><textPath startOffset="19.985693538727396" xlink:href="#id74">February</textPath></text><path d="M 110.68208982089419 81.91981866633111 l 4.061974916438314 -6.875175578318763 a28.985466764972777,28.985466764972777 0 0,0 0.4273809542296909,0.257492242925253 l -4.179717936885642 6.804236725934896" fill="#ff1f03" stroke="none" /><path d="M 110.99172775467656 82.1063720568725 l 4.227719470297058 -6.882379270831719 a29.077175022686024,29.077175022686024 0 0,0 0.42422331095574284,0.2656485984021648 l -4.3455619336250635 6.80858633110661" fill="#ff2003" stroke="none" /><path d="M 111.2981086023043 82.29822771554956 l 4.288533141338024 -6.719234145687141 a28.971174568965516,28.971174568965516 0 0,0 0.41805815219792597,0.27191665123358216 l -4.40355831932023 6.644418570294031" fill="#ff1e03" stroke="none" /><path d="M 111.60114157652 82.49532879139004 l 4.785997267899646 -7.221471096383217 a29.66345281306715,29.66345281306715 0 0,0 0.42319196240418944,0.28574110210352327 l -4.909593924710377 7.1380180819810235" fill="#ff2904" stroke="none" /><path d="M 111.90073688211348 82.69761687909136 l 4.60400983763138 -6.693731900153018 a29.124220167876587,29.124220167876587 0 0,0 0.4106083178865748,0.2876573669284705 l -4.718549295101606 6.613489690460613" fill="#ff2103" stroke="none" /><path d="M 112.19680574252982 82.90503203632743 l 4.7754451249747385 -6.693234535912748 a29.22218126134301,29.22218126134301 0 0,0 0.40696017982087207,0.2956738778445709 l -4.889950621149399 6.610041423251502" fill="#ff2203" stroke="none" /><path d="M 112.48926042617603 83.11751280151076 l 4.7868887227823045 -6.470726434175948 a29.04888838475499,29.04888838475499 0 0,0 0.3994275357210208,0.30084053890383294 l -4.897562412261708 6.387369305766267" fill="#ff2003" stroke="none" /><path d="M 112.77801427241765 83.33499621200491 l 5.203388298318893 -6.786225453596007 a29.55149727767695,29.55149727767695 0 0,0 0.40101022240155487,0.31299483930316263 l -5.319431075879877 6.69565222506962" fill="#ff2703" stroke="none" /><path d="M 113.06298171725822 83.55741782278167 l 5.614481692310122 -7.067037113458751 a30.025819532667875,30.025819532667875 0 0,0 0.40191218218804087,0.32498503354395275 l -5.7352972730626535 6.969345982650669" fill="#ff2f04" stroke="none" /><path d="M 113.34407831869373 83.78471172551755 l 4.61483969871907 -5.6078025224435875 a28.26251985027223,28.26251985027223 0 0,0 0.37298782681172776,0.31236657839916143 l -4.710685062489915 5.527534786650606" fill="#ff1302" stroke="none" /><path d="M 113.6212207817346 84.01681056812373 l 5.117228133972892 -6.004573888200339 a28.889292196007258,28.889292196007258 0 0,0 0.3757068976873915,0.32580931939725805 l -5.219828830307048 5.91559957538341" fill="#ff1d02" stroke="none" /><path d="M 113.89432698308785 84.25364557470407 l 5.455840112716009 -6.183069695073526 a29.246001588021777,29.246001588021777 0 0,0 0.3746120516156231,0.33633039871628384 l -5.561463151927622 6.088240287587945" fill="#ff2303" stroke="none" /><path d="M 114.16331599549186 84.49514656593476 l 5.624520111186137 -6.157269949258438 a29.339496370235935,29.339496370235935 0 0,0 0.3699460634413421,0.3438245477902283 l -5.729674058422326 6.05954081539357" fill="#ff2403" stroke="none" /><path d="M 114.42810811169701 84.74124197986012 l 5.533897920393541 -5.852493523179499 a29.054545712341195,29.054545712341195 0 0,0 0.3604379051092309,0.34674097914050217 l -5.63381906911519 5.756369457276695" fill="#ff2003" stroke="none" /><path d="M 114.68862486808459 84.99185889309783 l 5.5769622946570045 -5.698275898375491 a28.97325884754991,28.97325884754991 0 0,0 0.3534243652013174,0.35190664865924953 l -5.674222460025645 5.6014333990661225" fill="#ff1e03" stroke="none" /><path d="M 114.94478906791727 85.2469230424477 l 5.738427755618583 -5.664815067596893 a29.063478334845733,29.063478334845733 0 0,0 0.3483960056176728,0.3590527086625013 l -5.835088024939365 5.565198163384278" fill="#ff2003" stroke="none" /><path d="M 115.19652480421416 85.50635884689758 l 5.917181320515669 -5.643494404300396 a29.176922640653356,29.176922640653356 0 0,0 0.34349946290996963,0.36642127722492357 l -6.013448105396101 5.540803710197418" fill="#ff2203" stroke="none" /><path d="M 115.4437574822437 85.77008943001954 l 6.108920517236197 -5.628772190921549 a29.30674342105263,29.30674342105263 0 0,0 0.3386413173310752,0.37393620066083494 l -6.204905475183308 5.522783202991165" fill="#ff2403" stroke="none" /><path d="M 115.68641384162765 86.03803664274999 l 6.001841502897041 -5.342042609961885 a29.034893942831218,29.034893942831218 0 0,0 0.32907338088324195,0.3761877604353158 l -6.092906747358131 5.23793929332362" fill="#ff1f03" stroke="none" /><path d="M 115.9244219780498 86.31012108654704 l 5.4740200549546225 -4.705895876499456 a28.21875,28.21875 0 0,0 0.31348261312668624,0.37106453643588805 l -5.554213281568426 4.610972390434462" fill="#ff1302" stroke="none" /><path d="M 116.15771136456269 86.58626213691792 l 5.564293523458749 -4.6193407613789885 a28.23185117967332,28.23185117967332 0 0,0 0.3071914555252271,0.3765804017473671 l -5.6429834710603854 4.522876190023521" fill="#ff1302" stroke="none" /><path d="M 116.38621287248628 86.86637796730983 l 8.336922591076245 -6.682080300008812 a31.68430977767695,31.68430977767695 0 0,0 0.33743174242734364,0.42850404615277954 l -8.450708414097551 6.537583859902993" fill="#ff4806" stroke="none" /><path d="M 116.60985879189232 87.15038557335679 l 6.361994178257985 -4.921725897818451 a29.04352881125227,29.04352881125227 0 0,0 0.30250088246738205,0.39805570257220146 l -6.445771000949481 4.811485419365216" fill="#ff2003" stroke="none" /><path d="M 116.82858285166822 87.43820079747576 l 6.391368254661759 -4.770876154701883 a28.975640880217785,28.975640880217785 0 0,0 0.294913227737196,0.40226131120338393 l -6.472544094912582 4.6601523998270045" fill="#ff1f03" stroke="none" /><path d="M 117.04232023915458 87.72973835380427 l 6.90290327631478 -4.970005734557531 a29.50594090290381,29.50594090290381 0 0,0 0.29321511939278333,0.41473199225301943 l -6.987431015511446 4.850447241972718" fill="#ff2703" stroke="none" /><path d="M 117.2510076193507 88.02491185347247 l 6.482580747159307 -4.499996613365177 a28.891376474591652,28.891376474591652 0 0,0 0.2800751144467039,0.41097567099661403 l -6.559080327274744 4.387742919098156" fill="#ff1d03" stroke="none" /><path d="M 117.45458315368197 88.32363383020206 l 7.198827625543061 -4.815706374022834 a29.661070780399275,29.661070780399275 0 0,0 0.28023124960561696,0.4268114187102999 l -7.2806555105066035 4.69107689133486" fill="#ff2904" stroke="none" /><path d="M 117.65298651832404 88.62581576622439 l 8.525885886083142 -5.493404570597474 a31.142397345735027,31.142397345735027 0 0,0 0.28646913113996214,0.4531253697527714 l -8.619182613469059 5.3458315531304965" fill="#ff4006" stroke="none" /><line stroke="#e1ed5e" stroke-width="0.3" x1="172.23445277983987" x2="176.4835382374775" y1="55.19839476539836" y2="52.563006222186495" /><path d="M 173.08426987136738 54.67131705675599 a86.0,86.0 0 0,1 12.851231095245387,41.99856678651699" fill="none" id="id75" stroke="none" /><text fill="#e1ed5e" style="font-size:6.75px; font-family:Arial;" text-anchor="middle"><textPath startOffset="22.20632615414155" xlink:href="#id75">March</textPath></text><path d="M 117.84615892207809 88.93136811851018 l 7.239374528707094 -4.490040241172635 a29.518744328493646,29.518744328493646 0 0,0 0.26410027208343256,0.43411140681426325 l -7.31559059907675 4.364761061151291" fill="#ff2703" stroke="none" /><path d="M 118.03404312379186 89.2402003453031 l 10.512357941602353 -6.272074685286677 a33.24126588021778,33.24126588021778 0 0,0 0.28894626165682646,0.49390282447837913 l -10.618763877729506 6.0901924484544026" fill="#ff6008" stroke="none" /><path d="M 118.21658344932153 89.55222093294921 l 8.932397139120443 -5.123008499827269 a31.297229469147005,31.297229469147005 0 0,0 0.2640030975798417,0.4696320523372827 l -9.019257877992718 4.968492937555192" fill="#ff4206" stroke="none" /><path d="M 118.3937258080291 89.86733742301442 l 7.683438578016465 -4.232622110092054 a29.77213305353902,29.77213305353902 0 0,0 0.243411148299185,0.4510038900517636 l -7.7551578255341145 4.099737236707831" fill="#ff2b04" stroke="none" /><path d="M 118.56541770881063 90.18545643968196 l 7.365570453014835 -3.8937832259706675 a29.33145700998185,29.33145700998185 0 0,0 0.23212435555850297,0.4483903712405809 l -7.431504241733455 3.7664201324697415" fill="#ff2403" stroke="none" /><path d="M 118.73160827565052 90.50648371742162 l 7.705594244859468 -3.90533388025248 a29.638739224137932,29.638739224137932 0 0,0 0.22672222309727771,0.4570581669865306 l -7.771676480910155 3.7721161247669994" fill="#ff2904" stroke="none" /><path d="M 118.89224826269711 90.83032412892265 l 5.623636853831997 -2.729528346719001 a27.251049228675136,27.251049228675136 0 0,0 0.2011929472438576,0.4237636574941366 l -5.669787994917612 2.632322273584324" fill="#ff0300" stroke="none" /><path d="M 119.04729006885535 91.15688171328212 l 7.508404583914424 -3.48593997571646 a29.27815902903811,29.27815902903811 0 0,0 0.20828995821509316,0.45893931304673274 l -7.567296859092864 3.356178653827665" fill="#ff2303" stroke="none" /><path d="M 119.196687751892 91.48605970444005 l 7.717543167495832 -3.4228145295528964 a29.442519283121598,29.442519283121598 0 0,0 0.20148397841050425,0.46505280151127987 l -7.775317855749017 3.289462583455014" fill="#ff2603" stroke="none" /><path d="M 119.34039704204932 91.81776055985345 l 10.428699233058303 -4.412014602835374 a32.32358779491833,32.32358779491833 0 0,0 0.21237876751089188,0.514292031260355 l -10.503099687455393 4.231848001121715" fill="#ff5207" stroke="none" /><path d="M 119.47837535516314 92.15188598940014 l 7.849568743540811 -3.1627027054399512 a29.462766560798546,29.462766560798546 0 0,0 0.18548417988891988,0.4720370060906609 l -7.902846473311431 3.0271166944535057" fill="#ff2603" stroke="none" /><path d="M 119.61058180528143 92.48833698450437 l 7.627017055905024 -2.9214626320758454 a29.16739450998185,29.16739450998185 0 0,0 0.17555356340117106,0.4703962701746905 l -7.6761752078078205 2.7897432248718217" fill="#ff2203" stroke="none" /><path d="M 119.7369772167798 92.82701384747503 l 8.212360103839895 -2.984608263838443 a29.737891333938293,29.737891333938293 0 0,0 0.1707052944532821,0.48260685484159904 l -8.262518479102987 2.842803782570229" fill="#ff2a04" stroke="none" /><path d="M 119.85752413597 93.16781622104841 l 8.075565835808348 -2.778480818226651 a29.540182622504535,29.540182622504535 0 0,0 0.1612932039034524,0.48224614988482906 l -8.12219633348357 2.639061565419508" fill="#ff2703" stroke="none" /><path d="M 119.97218684219823 93.5106431181261 l 8.022233454126496 -2.6065816570242406 a29.435075431034484,29.435075431034484 0 0,0 0.15242395419020024,0.4832255883845208 l -8.065912892084903 2.4681059022133005" fill="#ff2603" stroke="none" /><path d="M 120.08093135843002 93.85539295169968 l 7.872586094325515 -2.408949422718689 a29.232900408348456,29.232900408348456 0 0,0 0.14309379868091102,0.48244115341423527 l -7.912885790118128 2.273078882557924" fill="#ff2303" stroke="none" /><path d="M 120.18372546131832 94.20196356495316 l 8.462352000498845 -2.430920164818727 a29.804588248638836,29.804588248638836 0 0,0 0.13740373525193095,0.49431434253586876 l -8.502942506317138 2.2848945188639065" fill="#ff2b04" stroke="none" /><path d="M 120.28053869075195 94.5502522615342 l 16.54493753757082 -4.445924109972018 a38.1318767014519,38.1318767014519 0 0,0 0.16488163224577027,0.6353561884937396 l -16.619015501686892 4.160471495929428" fill="#ffa70f" stroke="none" /><path d="M 120.37134235888165 94.90015583598534 l 7.677958010772912 -1.922131034026732 a28.914899047186932,28.914899047186932 0 0,0 0.11671595347481602,0.483862978583755 l -7.709906764508547 1.789682823783571" fill="#ff1e03" stroke="none" /><path d="M 120.45610955862082 95.25157060432595 l 8.409198962583565 -1.9520079042192864 a29.63278414246824,29.63278414246824 0 0,0 0.11106030670329822,0.4978615782131642 l -8.441553656288901 1.8069681564561584" fill="#ff2904" stroke="none" /><path d="M 120.53481517161879 95.60439243477599 l 8.397588747445399 -1.797557188580296 a29.587823275862068,29.587823275862068 0 0,0 0.10231850279217838,0.4989413572913136 l -8.427286546152574 1.6527401751255704" fill="#ff2803" stroke="none" /><path d="M 120.67395015179393 96.31383870115 l 8.438658078633221 -1.5046110973130329 a29.571744555353902,29.571744555353902 0 0,0 0.08503726691891915,0.5018947630391368 l -8.463307207072363 1.359130545958058" fill="#ff2803" stroke="none" /><path d="M 120.73433829027371 96.67025291283417 l 8.49682176249845 -1.3645126802584335 a29.60568852087114,29.60568852087114 0 0,0 0.07647305347281096,0.5038618740763281 l -8.51905070941056 1.2180516937900232" fill="#ff2803" stroke="none" /><path d="M 120.78858239683441 97.02765380044208 l 7.297580010504004 -1.0434061253495746 a28.37179559891107,28.37179559891107 0 0,0 0.06496330696709138,0.48405209360858653 l -7.314459316528931 0.9176356896763237" fill="#ff1502" stroke="none" /><path d="M 120.83666639777658 97.38593545837742 l 8.34583412362169 -1.0470268437541994 a29.411255104355718,29.411255104355718 0 0,0 0.058695967578330566,0.5028712051878123 l -8.36262044420361 0.9032119002415344" fill="#ff2503" stroke="none" /><path d="M 120.87857604477298 97.74499172005257 l 8.890742320109277 -0.9602521505169741 a29.942448389292196,29.942448389292196 0 0,0 0.05093477717033522,0.5129062550594277 l -8.905954222961842 0.8070703647531114" fill="#ff2e04" stroke="none" /><path d="M 120.91429891909075 98.10471618934814 l 7.261052678834736 -0.6580070239851059 a28.290806488203266,28.290806488203266 0 0,0 0.0397762221298566,0.48537065946037117 l -7.271303384784088 0.532922447316966" fill="#ff1402" stroke="none" /><path d="M 120.94382443527127 98.46500227214037 l 8.464181996916642 -0.6203499353048878 a29.4868846415608,29.4868846415608 0 0,0 0.03274365347438929,0.5065298265647356 l -8.473606241395446 0.47456104448711706" fill="#ff2603" stroke="none" /><path d="M 120.96714384426684 98.82574320788733 l 16.2557200743607 -0.9103953237398014 a37.28119328493648,37.28119328493648 0 0,0 0.030368890374041137,0.6410392774777031 l -16.268982572968234 0.6304449396390985" fill="#ff9b0e" stroke="none" /><path d="M 120.98425023603335 99.18683210126433 l 23.986633248905008 -0.9295142755809157 a45.004636456442825,45.004636456442825 0 0,0 0.023334487269064987,0.7743580312379998 l -23.999079430629717 0.5164860969179167" fill="#f9ff18" stroke="none" /><line stroke="#e1ed5e" stroke-width="0.3" x1="184.98032266829074" x2="189.97916517819016" y1="98.17113171792111" y2="98.06355123074" /><path d="M 185.9800911702706 98.14961562048488 a86.0,86.0 0 0,1 -9.607161424134198,41.387399972396054" fill="none" id="id76" stroke="none" /><text fill="#e1ed5e" style="font-size:6.75px; font-family:Arial;" text-anchor="middle"><textPath startOffset="21.466115282336823" xlink:href="#id76">April</textPath></text><path d="M 120.99513854157772 99.54816195383933 l 8.278624132844772 -0.17816492830830533 a29.28054106170599,29.28054106170599 0 0,0 0.0065072417487818755,0.5039930446751676 l -8.280464381711269 0.035635625572675064" fill="#ff2303" stroke="none" /><path d="M 120.99980553446 99.90962569577887 l 16.93460667780757 -0.07287940325227957 a37.93476349818512,37.93476349818512 0 0,0 -0.0028102483045804164,0.6530027357704168 l -16.933352132213486 -0.218632810721822" fill="#ffa40f" stroke="none" /><path d="M 120.99824983174949 100.27111621757518 l 11.220225203597314 0.14486850294263878 a32.221160390199636,32.221160390199636 0 0,0 -0.011934007891966357,0.5545264529561098 l -11.21606913302034 -0.33798477168886343" fill="#ff5007" stroke="none" /><path d="M 120.9904718944345 100.63252640178507 l 24.44136404529612 0.7365155072282688 a45.45245859800363,45.45245859800363 0 0,0 -0.03029702271624009,0.781831534512037 l -24.425064889728677 -1.1571242887543118" fill="#f3ff19" stroke="none" /><path d="M 120.9764740272857 100.99374915477107 l 8.474402711822988 0.4014702624048879 a29.483907100725954,29.483907100725954 0 0,0 -0.028379873933274177,0.506741713599564 l -8.466236487002185 -0.5472836923398753" fill="#ff2603" stroke="none" /><path d="M 120.95626037817324 101.35467743843564 l 8.865584461540871 0.5730987796421876 a29.884088588929217,29.884088588929217 0 0,0 -0.03760192674758605,0.5130484156009195 l -8.854405976128948 -0.7256203317398773" fill="#ff2d04" stroke="none" /><path d="M 120.92983693683757 101.71520430193887 l 23.738069793763817 1.9453395433925849 a44.81764689201452,44.81764689201452 0 0,0 -0.06962827732206922,0.7683422382182639 l -23.701066920164674 -2.353663170159419" fill="#fbff18" stroke="none" /><path d="M 120.89721153311464 102.0752229133903 l 8.599714546522225 0.8540050737046289 a29.64201451905626,29.64201451905626 0 0,0 -0.054792132500103265,0.5073070973758683 l -8.58374011252107 -1.0019084929652886" fill="#ff2904" stroke="none" /><path d="M 120.8583938346157 102.4346265915055 l 8.043411653811866 0.938840452149151 a29.098017808529946,29.098017808529946 0 0,0 -0.06235080406153254,0.496997255873757 l -8.026059340503485 -1.0771554623103028" fill="#ff2003" stroke="none" /><path d="M 120.81339534386255 102.79330883721812 l 24.342595022249174 3.2669530690734248 a45.56084108439201,45.56084108439201 0 0,0 -0.11100779383641596,0.776388251544318 l -24.282753177396156 -3.685486792598152" fill="#f2ff19" stroke="none" /><path d="M 120.76222939487914 103.15116336523771 l 8.458206314848965 1.2837344857362996 a29.555070326678766,29.555070326678766 0 0,0 -0.08066879908828424,0.5023246889271279 l -8.434855761399392 -1.4291384043566324" fill="#ff2803" stroke="none" /><path d="M 120.70491114924044 103.5080841355445 l 30.220691973756654 5.120366337925673 a51.65140086206897,51.65140086206897 0 0,0 -0.15606976870776054,0.8753221459605918 l -30.128075762709706 -5.639807234619483" fill="#a5ff21" stroke="none" /><path d="M 120.64145759157962 103.86396538481128 l 19.13976579679748 3.5828570818753307 a40.47222379764065,40.47222379764065 0 0,0 -0.13407882486789438,0.6836650393927175 l -19.07525703895392 -3.911785848335993" fill="#ffc812" stroke="none" /><path d="M 120.5718875245553 104.21870165774334 l 10.7409707662804 2.20266376254453 a31.964496370235935,31.964496370235935 0 0,0 -0.11517258783537866,0.5380479874381157 l -10.701464139720578 -2.3872255693988147" fill="#ff4c07" stroke="none" /><path d="M 120.49622156327973 104.57218783832717 l 17.207666050432728 3.838594406236221 a38.630614791288565,38.630614791288565 0 0,0 -0.15036402813308297,0.6477642978050872 l -17.139041456369092 -4.134227361389873" fill="#ffae10" stroke="none" /><path d="M 120.41448212921028 104.9243191809786 l 7.890465954546738 1.9033141571216634 a29.116776315789473,29.116776315789473 0 0,0 -0.1217201678441837,0.48621156478288685 l -7.8565344724074935 -2.0388535613019463" fill="#ff2103" stroke="none" /><path d="M 120.32669344350535 105.2749913415812 l 8.398652643449259 2.179538944603816 a29.676851746823957,29.676851746823957 0 0,0 -0.13257345478521163,0.4933551437914911 l -8.35989111232227 -2.3237850215708553" fill="#ff2904" stroke="none" /><path d="M 120.23288151984713 105.62410040840565 l 18.70612058165766 5.199709210958758 a40.4153527676951,40.4153527676951 0 0,0 -0.1920833232886539,0.6686672473324221 l -18.613844621482908 -5.520933933795762" fill="#ffc712" stroke="none" /><path d="M 120.13307415673323 105.97154293290107 l 7.9718158589628505 2.364469543219649 a29.315080535390198,29.315080535390198 0 0,0 -0.1476547944033747,0.48254441135945675 l -7.929934292053343 -2.501340927131163" fill="#ff2403" stroke="none" /><path d="M 120.02730092923936 106.31721596034902 l 16.55614441609533 5.222308293900141 a38.36025408348457,38.36025408348457 0 0,0 -0.2040541730528991,0.6280141690968223 l -16.46379799202618 -5.506521362974758" fill="#ffaa0f" stroke="none" /><path d="M 119.9155931802556 106.66101706037122 l 22.73881375387453 7.605278184599778 a44.976945326678766,44.976945326678766 0 0,0 -0.2518905317420204,0.7321117925866155 l -22.604532391189277 -7.995562680275694" fill="#f9ff18" stroke="none" /><path d="M 119.79798401119884 107.00284435728193 l 16.78034097410169 5.93545868292875 a38.79914360254084,38.79914360254084 0 0,0 -0.22813109184228855,0.6277187863447011 l -16.67568562125418 -6.223425266279582" fill="#ffb010" stroke="none" /><path d="M 119.67450827220406 107.3425965602758 l 7.42145840054612 2.7697147074860644 a28.921449637023592,28.921449637023592 0 0,0 -0.1780813752626404,0.4649142766895853 l -7.372682745689973 -2.897052551008793" fill="#ff1e03" stroke="none" /><path d="M 119.54520255179757 107.68017299344265 l 13.908442401168559 5.46524107014093 a35.94368194192377,35.94368194192377 0 0,0 -0.23123321258655585,0.57390187034209 l -13.81230657432461 -5.703842308325834" fill="#ff880c" stroke="none" /><path d="M 119.41010516605496 108.01547362559984 l 7.972046794820697 3.292085760446212 a29.62504253629764,29.62504253629764 0 0,0 -0.19869800825588735,0.4696633970741417 l -7.914197805372501 -3.428823683186517" fill="#ff2903" stroke="none" /><path d="M 119.26925614724726 108.34839909993367 l 7.972938873766016 3.45427323239372 a29.68905966424682,29.68905966424682 0 0,0 -0.20719982760669206,0.4671809120961052 l -7.912297961428051 -3.591002480982513" fill="#ff2a04" stroke="none" /><path d="M 119.12269723197855 108.67885076344098 l 21.984811455843747 9.977823492837576 a45.14309210526315,45.14309210526315 0 0,0 -0.3272344996551651,0.7048340001094874 l -21.80980233934875 -10.354777560225893" fill="#f7ff18" stroke="none" /><path d="M 118.97047184881838 109.00673069616215 l 14.875014663443645 7.062304630205865 a37.46639632486388,37.46639632486388 0 0,0 -0.2816166022029619,0.5802136126203691 l -14.75124480462597 -7.31730719879151" fill="#ff9e0e" stroke="none" /><path d="M 118.81262510543309 109.33194174019688 l 6.743449059812471 3.3450660607690175 a28.527520984573503,28.527520984573503 0 0,0 -0.2220002584285298,0.4380275710494635 l -6.6848701315976715 -3.4606478435211754" fill="#ff1802" stroke="none" /><path d="M 118.64920377521936 109.65438752849418 l 34.23480621565407 17.722798793587536 a59.55022118874773,59.55022118874773 0 0,0 -0.47908859545198834,0.9062550733439669 l -33.924665111977184 -18.309468882017637" fill="#4aff2c" stroke="none" /><line stroke="#e1ed5e" stroke-width="0.3" x1="174.80103733775053" x2="179.2010983576182" y1="140.37084112569926" y2="142.7455964860345" /><path d="M 175.68104954172406 140.8457921977663 a86.0,86.0 0 0,1 -30.038265399797805,32.042727171017184" fill="none" id="id77" stroke="none" /><text fill="#e1ed5e" style="font-size:6.75px; font-family:Arial;" text-anchor="middle"><textPath startOffset="22.206326154141568" xlink:href="#id77">May</textPath></text><path d="M 118.48025628344425 109.97397251340804 l 7.436856763791892 4.013743305857917 a29.450856397459162,29.450856397459162 0 0,0 -0.24461543417013368,0.4440480663746753 l -7.3666649201702485 -4.141161890630397" fill="#ff2603" stroke="none" /><path d="M 118.30583269289576 110.29060199501025 l 7.021977054128884 3.947396018219816 a29.055438974591652,29.055438974591652 0 0,0 -0.24883631907126955,0.4338670967765128 l -6.952988738905235 -4.067682960854643" fill="#ff2003" stroke="none" /><path d="M 118.12598468904814 110.60418214915192 l 7.106934190764638 4.157745136265007 a29.233793670598914,29.233793670598914 0 0,0 -0.25784084112795425,0.4321560807079233 l -7.034312473938456 -4.279463310859034" fill="#ff2303" stroke="none" /><path d="M 117.94076556474637 110.91462005526583 l 7.002769612521306 4.260273586397075 a29.196872164246823,29.196872164246823 0 0,0 -0.26490650278015204,0.4271136305483691 l -6.9283984700731915 -4.3801835483107165" fill="#ff2203" stroke="none" /><path d="M 117.75023020441432 111.22182372390056 l 14.023406689399478 8.865698983322066 a37.590857531760435,37.590857531760435 0 0,0 -0.35048128981927956,0.5439547449681886 l -13.86872053620315 -9.105775328211708" fill="#ff9f0e" stroke="none" /><path d="M 117.55443506779139 111.5257021239791 l 7.376158167451192 4.842958575943181 a29.823942264065337,29.823942264065337 0 0,0 -0.2854533228327182,0.42671398681947265 l -7.2917017392077526 -4.9692094769684605" fill="#ff2c04" stroke="none" /><path d="M 117.35343817320211 111.8261652097733 l 4.991131087559617 3.4013974773175364 a27.039941583484573,27.039941583484573 0 0,0 -0.26542804897182576,0.3823689011032525 l -4.931842131425654 -3.4868076406078083" fill="#ff0000" stroke="none" /><path d="M 117.14729908036423 112.12312394758627 l 7.021280202782426 4.964038346221983 a29.598840176951,29.598840176951 0 0,0 -0.29770824607699714,0.41349071550191985 l -6.934792164329826 -5.084162667175034" fill="#ff2803" stroke="none" /><path d="M 116.93607887273984 112.41649034213515 l 6.716511542515503 4.92413275393489 a29.328181715063522,29.328181715063522 0 0,0 -0.30199470781911897,0.40457126239353863 l -6.630755568001292 -5.039016895837744" fill="#ff2403" stroke="none" /><path d="M 116.71984013943494 112.70617746262583 l 6.478084613915027 4.922995198271798 a29.136428085299457,29.136428085299457 0 0,0 -0.30689425062305936,0.3967021886916086 l -6.3923835460739 -5.0337753810766594" fill="#ff2103" stroke="none" /><path d="M 116.498646956653 112.99209946851258 l 9.162120104132704 7.214844711090111 a32.661836433756804,32.661836433756804 0 0,0 -0.3516312465269801,0.4387140458182199 l -9.036570945550869 -7.371486590486581" fill="#ff5708" stroke="none" /><path d="M 116.27256486870786 113.27417163493432 l 12.215267721245459 9.964474660678421 a36.76399444192377,36.76399444192377 0 0,0 -0.40423587507293984,0.4869281522644289 l -12.041935846278976 -10.17326407005662" fill="#ff930d" stroke="none" /><path d="M 116.0416608686014 113.55231037782055 l 31.269502224557375 26.41709003689334 a61.93463588929219,61.93463588929219 0 0,0 -0.6950171840151512,0.8084620024927291 l -30.810142530971447 -26.9514291385476" fill="#31ff2f" stroke="none" /><path d="M 115.80600337817218 113.82643327865902 l 18.060546169466587 15.798613388449601 a44.99540607985481,44.99540607985481 0 0,0 -0.5149641741796409,0.5785677087885552 l -17.785923145638606 -16.107155266979024" fill="#f9ff18" stroke="none" /><path d="M 115.56566222782051 114.09645910891815 l 17.625472878515964 15.961849490944203 a44.77893886116152,44.77893886116152 0 0,0 -0.5223219961991176,0.5668773670270255 l -17.348104474321126 -16.262878112772565" fill="#fcff18" stroke="none" /><path d="M 115.32070863581623 114.36230785411682 l 7.187664577783116 6.7380337210330286 a30.852087114337568,30.852087114337568 0 0,0 -0.366542552919652,0.3843184013184401 l -7.0706154734845 -6.8607592389339755" fill="#ff3c05" stroke="none" /><path d="M 115.07121518719521 114.62390073753431 l 11.083309421776692 10.754356222393303 a36.44331329401089,36.44331329401089 0 0,0 -0.440720050716776,0.446447084558339 l -10.89654874600438 -10.943543800932307" fill="#ff8f0d" stroke="none" /><path d="M 114.81725581225074 114.88116024355365 l 12.690090500615096 12.744820811470214 a38.985239904718696,38.985239904718696 0 0,0 -0.47961136123929343,0.4694006617831886 l -12.468829187000008 -12.961371576175976" fill="#ffb310" stroke="none" /><path d="M 114.55890576462653 115.13401014063108 l 10.809772845826236 11.236779364568497 a36.59219033575317,36.59219033575317 0 0,0 -0.45768843535016,0.43277298309532 l -10.614748576085269 -11.421186984409738" fill="#ff910d" stroke="none" /><path d="M 114.29624159901734 115.38237550388516 l 16.607461918776806 17.869187060930567 a45.39499205989111,45.39499205989111 0 0,0 -0.5769497063206224,0.527029877378385 l -16.29741266298932 -18.152409704895536" fill="#f4ff19" stroke="none" /><path d="M 114.0293411484842 115.62618273729858 l 15.72134398152933 17.510771983604464 a44.53269623411978,44.53269623411978 0 0,0 -0.5748060885688653,0.5071995416040854 l -15.417595540053876 -17.778794666980836" fill="#ffff18" stroke="none" /><path d="M 113.75828350139079 115.86535959552629 l 5.338240528804999 6.155790116430024 a29.148040494555353,29.148040494555353 0 0,0 -0.3818872490563055,0.3254525985127193 l -5.231487803171646 -6.246767105165691" fill="#ff2103" stroke="none" /><path d="M 113.48314897796784 116.09983520530334 l 14.182847328401172 16.935324611658405 a43.08977994555354,43.08977994555354 0 0,0 -0.5727449874876145,0.4713301324220816 l -13.889232212368867 -17.176949862937665" fill="#ffec16" stroke="none" /><path d="M 113.20401910651253 116.32954008644616 l 10.792480850628511 13.347167045192855 a38.164629650635206,38.164629650635206 0 0,0 -0.5143910698014054,0.40866337585629786 l -10.561132288109755 -13.530964335054279" fill="#ffa70f" stroke="none" /><path d="M 112.92097659922987 116.55440617244103 l 17.625459330792154 22.581808000113924 a49.646027109800364,49.646027109800364 0 0,0 -0.6781913772492815,0.5200082285108499 l -17.23413922504938 -22.881855570452142" fill="#beff1f" stroke="none" /><path d="M 112.63410532772338 116.77436683061366 l 14.42206195879198 19.148246074833754 a44.97188350725952,44.97188350725952 0 0,0 -0.6223573931331002,0.4604051209759457 l -14.090319595240315 -19.39366114454947" fill="#f9ff18" stroke="none" /><path d="M 112.34349029814194 116.9893568818739 l 14.099595414571668 19.4064282145747 a44.987664473684205,44.987664473684205 0 0,0 -0.6304114399289931,0.4497818239274743 l -13.76345664679379 -19.646254300346392" fill="#f9ff18" stroke="none" /><path d="M 112.04921762599082 117.19931262002967 l 23.43129319734385 33.44633230985835 a61.83727030399274,61.83727030399274 0 0,0 -0.8770383444646697,0.6032349705853932 l -22.8520979682563 -33.84470806980884" fill="#32ff2f" stroke="none" /><path d="M 111.7513745106137 117.40417183066458 l 7.469240820125217 11.062191113104468 a34.34772005444646,34.34772005444646 0 0,0 -0.4928493853810217,0.32663369837496986 l -7.277716736004231 -11.189122832570757" fill="#ff700a" stroke="none" /><path d="M 111.45004920935366 117.60387380957326 l 4.278020739503154 6.57724136167288 a28.846117853901994,28.846117853901994 0 0,0 -0.4185684309706134,0.2671501765253264 l -4.16417050648561 -6.649905967022016" fill="#ff1c02" stroke="none" /><path d="M 111.1453310114006 117.79835938074945 l 5.145518419099008 8.217053933141203 a30.695170712341195,30.695170712341195 0 0,0 -0.45022624004903333,0.2765657291165115 l -5.003312979117666 -8.304408129086093" fill="#ff3905" stroke="none" /><line stroke="#e1ed5e" stroke-width="0.3" x1="143.8653032363475" x2="146.44561519142675" y1="172.8068346515853" y2="177.08958963109032" /><path d="M 144.38136562736335 173.6633856474863 a86.0,86.0 0 0,1 -40.68145358897372,12.25698825130547" fill="none" id="id78" stroke="none" /><text fill="#e1ed5e" style="font-size:6.75px; font-family:Arial;" text-anchor="middle"><textPath startOffset="21.466115282336833" xlink:href="#id78">June</textPath></text><path d="M 110.8373102113329 117.98757091392108 l 22.667108323286836 37.62245524284068 a64.92319362522686,64.92319362522686 0 0,0 -0.962199227219806,0.5684842635740979 l -22.01614122503865 -38.007058078708525" fill="#33ff55" stroke="none" /><path d="M 110.5260780823613 118.17145234162733 l 3.7874359615483564 6.53835279709444 a28.55610537658802,28.55610537658802 0 0,0 -0.4274593779551724,0.24272259080742625 l -3.674327816671985 -6.602578553696494" fill="#ff1802" stroke="none" /><path d="M 110.21172684928248 118.3499491758327 l 3.8459035924830056 6.910891419130954 a28.90894396551724,28.90894396551724 0 0,0 -0.4369066356010789,0.2382363333802728 l -3.7263741450132777 -6.976068404270998" fill="#ff1d03" stroke="none" /><path d="M 109.89434966115114 118.52300852407294 l 3.5872067949698643 6.715536070220971 a28.613571914700543,28.613571914700543 0 0,0 -0.4364374950233783,0.22832347008635728 l -3.4710783974199906 -6.776288959252045" fill="#ff1902" stroke="none" /><path d="M 109.57404056367764 118.69057910512821 l 6.928853483031331 13.526607002664953 a36.1979639292196,36.1979639292196 0 0,0 -0.557010980646081,0.27929686905422163 l -6.694988594702489 -13.643871712628478" fill="#ff8b0c" stroke="none" /><path d="M 109.2508944713604 118.85261126421891 l 10.611482157831318 21.625384299662173 a45.08860310798548,45.08860310798548 0 0,0 -0.6997049795456096,0.3359009111834749 l -10.237664510285477 -21.804839487345205" fill="#f8ff18" stroke="none" /><path d="M 108.92500713936063 119.00905698771935 l 15.148266002499762 32.26375589513288 a56.64295031760435,56.64295031760435 0 0,0 -0.8861439044518592,0.40678520391997075 l -14.590654102280483 -32.51972816938693" fill="#6bff28" stroke="none" /><path d="M 108.59647513512805 119.15986991738527 l 3.179189271630343 7.085794110922755 a28.76631975952813,28.76631975952813 0 0,0 -0.45352065421732857,0.19881012706541307 l -3.056747942755261 -7.1394687912826225" fill="#ff1b02" stroke="none" /><path d="M 108.2653958097858 119.30500536409082 l 3.209684954038305 7.496674893825423 a29.1548888384755,29.1548888384755 0 0,0 -0.46304702489573785,0.1935536939606441 l -3.0801664696451057 -7.55081363080604" fill="#ff2103" stroke="none" /><path d="M 107.93186726928326 119.44442032107085 l 23.79560180784979 58.33326096321254 a84.0,84.0 0 0,0 -1.343515695832535,0.5346126223757244 l -22.787965035975386 -58.73422042999433" fill="#4dd2ff" stroke="none" /><path d="M 107.59598834532513 119.57807347666477 l 5.3927338424281785 13.899355107901574 a35.90884471415608,35.90884471415608 0 0,0 -0.5781833207595795,0.21861945873114824 l -5.152680300908324 -13.990122816739353" fill="#ff870c" stroke="none" /><path d="M 107.2578585660854 119.70592522655815 l 2.919690948800122 7.92729852722192 a29.447878856624317,29.447878856624317 0 0,0 -0.4771684359930698,0.1710956243073381 l -2.7828029521773177 -7.976381692569219" fill="#ff2603" stroke="none" /><path d="M 106.91757812671514 119.82793768551818 l 7.4658605355221015 21.39948617210573 a43.66444532667876,43.66444532667876 0 0,0 -0.7117933918966567,0.24147896471384198 l -7.096397410688217 -21.524828123717693" fill="#fff316" stroke="none" /><path d="M 106.57524785965236 119.94407469862006 l 4.853216847633892 14.720801619017474 a36.50018432395644,36.50018432395644 0 0,0 -0.5983921125230699,0.19158625782979624 l -4.599103390019882 -14.802160723506976" fill="#ff900d" stroke="none" /><path d="M 106.2309692047433 120.05430185196036 l 2.194639093906369 7.063420376368917 a28.396509187840287,28.396509187840287 0 0,0 -0.4680353556404292,0.1410152133018951 l -2.072728763825694 -7.100150958776538" fill="#ff1502" stroke="none" /><path d="M 105.88484417918355 120.15858648285463 l 4.774927589013696 16.356557254818505 a38.03927518148821,38.03927518148821 0 0,0 -0.6301275344538935,0.17808033541048718 l -4.492668886455197 -16.436326383567508" fill="#ffa60f" stroke="none" /><path d="M 105.53697534728816 120.25689768951611 l 2.2676099695308407 8.295999218239329 a29.60032894736842,29.60032894736842 0 0,0 -0.4926475172870834,0.1301126869191259 l -2.12447200943226 -8.333803254462039" fill="#ff2803" stroke="none" /><path d="M 105.18746579009965 120.34920634021253 l 3.7763732994142263 14.813822894815276 a36.287587908348456,36.287587908348456 0 0,0 -0.606601835229414,0.14908797255006317 l -3.520818179441601 -14.876632125679368" fill="#ff8d0d" stroke="none" /><path d="M 104.83641907484287 120.43548508189849 l 1.7836901167725971 7.536686173792843 a28.74488146551724,28.74488146551724 0 0,0 -0.48247578688978116,0.10980991828981289 l -1.6536941804899539 -7.56627282566034" fill="#ff1b02" stroke="none" /><path d="M 104.48393922423573 120.51570834832081 l 1.5973016258748074 7.308255679208428 a28.480773593466424,28.480773593466424 0 0,0 -0.4798448039269103,0.1005561441065234 l -1.471265360518519 -7.334667804041493" fill="#ff1702" stroke="none" /><path d="M 104.13013068566511 120.58985236759428 l 4.452855705638737 22.198726522508796 a43.640922754083476,43.640922754083476 0 0,0 -0.7378067098892496,0.1414024119450441 l -4.070081381177784 -22.272086132802308" fill="#fff316" stroke="none" /><path d="M 103.7750983002368 120.6578951692458 l 2.7361005531590994 14.972346123048116 a36.22029548548094,36.22029548548094 0 0,0 -0.6142807376543001,0.10680058013572202 l -2.4779708440327495 -15.017225281704842" fill="#ff8c0c" stroke="none" /><path d="M 103.41894727170886 120.7198165907248 l 3.6601176249976466 22.181379197616465 a43.48132656533575,43.48132656533575 0 0,0 -0.7395224024697231,0.11549819021941352 l -3.2777593589194063 -22.241095695182985" fill="#fff116" stroke="none" /><path d="M 103.06178313531738 120.77559828337769 l 6.144925125310572 41.696126160043455 a63.1464950090744,63.1464950090744 0 0,0 -1.0767121156910975,0.1492224882116438 l -5.426284418432644 -41.7957232137477" fill="#31ff3e" stroke="none" /><path d="M 102.70371172650421 120.8252237178851 l 3.064485193185966 23.604065885662653 a44.80216367967331,44.80216367967331 0 0,0 -0.7656318063142007,0.09270734926954714 l -2.657725963820385 -23.653318763657552" fill="#fcff18" stroke="none" /><path d="M 102.34483914955558 120.86867818915974 l 1.0014306378142561 8.912566012586211 a29.968650748638836,29.968650748638836 0 0,0 -0.5131309491867442,0.05318812094907515 l -0.8478670920219092 -8.928483501991046" fill="#ff2e04" stroke="none" /><path d="M 101.98527174616119 120.90594882070398 l 2.0932501720101344 22.04301806520574 a43.14218466424682,43.14218466424682 0 0,0 -0.7399001405653434,0.0638416974654024 l -1.7135057137032494 -22.075784014949807" fill="#ffec16" stroke="none" /><path d="M 101.62511606390274 120.93702456842531 l 1.4885683410878559 19.17782527747011 a40.23550930127041,40.23550930127041 0 0,0 -0.69097252347923,0.047653510740619125 l -1.1582330568296955 -19.200607132727015" fill="#ffc512" stroke="none" /><path d="M 101.26447882468166 120.96189622390904 l 0.45497786884565783 7.542395083855199 a28.55610537658802,28.55610537658802 0 0,0 -0.49090927431382203,0.02537440211647895 l -0.32508052611835625 -7.54910929273388" fill="#ff1802" stroke="none" /><path d="M 100.90346689309514 120.98055641714683 l 0.45254047941770775 10.509019347614366 a31.518758507259527,31.518758507259527 0 0,0 -0.5422421899597277,0.018675917403100078 l -0.27157793778332767 -10.51525206344356" fill="#ff4606" stroke="none" /><line stroke="#e1ed5e" stroke-width="0.3" x1="102.19456741930631" x2="102.32365962044197" y1="184.97166512339345" y2="189.96999836594603" /><path d="M 102.22038585953345 185.97133177190398 a86.0,86.0 0 0,1 -42.740103519485714,-10.115201625700543" fill="none" id="id79" stroke="none" /><text fill="#e1ed5e" style="font-size:6.75px; font-family:Arial;" text-anchor="middle"><textPath startOffset="22.20632615414155" xlink:href="#id79">July</textPath></text><path d="M 100.54218724476979 120.99299961872073 l 0.19056657796333995 7.378565499496204 a28.381025975499092,28.381025975499092 0 0,0 -0.48847842046422085,0.008409598998728713 l -0.06352846760645114 -7.380752575774093" fill="#ff1502" stroke="none" /><path d="M 100.18074693466247 120.99922214144158 l 0.0732695505614764 8.512473925587209 a29.512789246823957,29.512789246823957 0 0,0 -0.5080329704478578,0.0 l 0.07326955056147054 -8.512473925587209" fill="#ff2703" stroke="none" /><line stroke="#e1ed5e" stroke-width="0.3" x1="58.666819895761336" x2="56.23545636021788" y1="174.27360380694188" y2="178.64263932499728" /><path d="M 58.180547188652646 175.14741091055294 a86.0,86.0 0 0,1 -31.652253787137756,-30.449443065178592" fill="none" id="id80" stroke="none" /><text fill="#e1ed5e" style="font-size:6.75px; font-family:Arial;" text-anchor="middle"><textPath startOffset="22.20632615414155" xlink:href="#id80">August</textPath></text><line stroke="#e1ed5e" stroke-width="0.3" x1="26.63291911575756" x2="22.317208475507996" y1="142.92168965132927" y2="145.44649492493687" /><path d="M 25.769776987707644 143.4266507060508 a86.0,86.0 0 0,1 -11.730757126820373,-40.83630448921669" fill="none" id="id81" stroke="none" /><text fill="#e1ed5e" style="font-size:6.75px; font-family:Arial;" text-anchor="middle"><textPath startOffset="21.46611528233685" xlink:href="#id81">September</textPath></text><line stroke="#e1ed5e" stroke-width="0.3" x1="15.007084014347285" x2="10.007500721073583" y1="101.09737516637583" y2="101.16192664675087" /><path d="M 14.007167355692545 101.11028546245083 a86.0,86.0 0 0,1 10.666146001902534,-42.60595125391555" fill="none" id="id82" stroke="none" /><text fill="#e1ed5e" style="font-size:6.75px; font-family:Arial;" text-anchor="middle"><textPath startOffset="22.20632615414155" xlink:href="#id82">October</textPath></text><line stroke="#e1ed5e" stroke-width="0.3" x1="26.266209847984243" x2="21.928928074336255" y1="57.711370442889674" y2="55.22380399835377" /><path d="M 25.398753493254645 57.213857153982495 a86.0,86.0 0 0,1 29.58750427330803,-30.492523968695096" fill="none" id="id83" stroke="none" /><text fill="#e1ed5e" style="font-size:6.75px; font-family:Arial;" text-anchor="middle"><textPath startOffset="21.46611528233685" xlink:href="#id83">November</textPath></text><line stroke="#e1ed5e" stroke-width="0.3" x1="56.762969772571076" x2="54.21961505331055" y1="26.818313649435495" y2="22.513508569990535" /><path d="M 56.25429882871897 25.957352633546506 a86.0,86.0 0 0,1 42.265352541879196,-11.944610805530505" fill="none" id="id84" stroke="none" /><text fill="#e1ed5e" style="font-size:6.75px; font-family:Arial;" text-anchor="middle"><textPath startOffset="22.20632615414155" xlink:href="#id84">December</textPath></text></svg>