<?xml version="1.0" encoding="utf-8" ?>
<svg baseProfile="full" height="200mm" version="1.1" viewBox="0,0,200,200" width="200mm" xmlns="http://www.w3.org/2000/svg" xmlns:ev="http://www.w3.org/2001/xml-events" xmlns:xlink="http://www.w3.org/1999/xlink"><defs /><rect fill="#1a1a1a" height="200" width="200" x="0" y="0" /><text alignment-baseline="middle" fill="#e1ed5e" style="dominant-baseline: central; font-size:9.0px; font-family:Arial;" text-anchor="middle" x="100.0" y="100.0">2021</text><line stroke="#e1ed5e" stroke-width="0.3" x1="100.0" x2="100.0" y1="15.0" y2="10.0" /><path d="M 100.0 14.0 a86.0,86.0 0 0,1 42.46469731375804,11.215312516191453" fill="none" id="id145" stroke="none" /><text fill="#e1ed5e" style="font-size:6.75px; font-family:Arial;" text-anchor="middle"><textPath startOffset="22.20632615414155" xlink:href="#id145">January</textPath></text><path d="M 101.44485096284872 79.0497635885617 l 0.31717341530138 -4.598992010141991 a25.609916103870418,25.609916103870418 0 0,0 0.4395269054020127,0.034115747065771196 l -0.3962905100657339 4.592851000887755" fill="#ff3905" stroke="none" /><path d="M 102.16513564639614 79.11191278185805 l 0.41102121976634864 -3.965316030557741 a24.986561132767992,24.986561132767992 0 0,0 0.4274287963657152,0.048026605532034486 l -0.47921671964178914 3.9576534715551057" fill="#ff3104" stroke="none" /><path d="M 105.01212808612495 79.60689891045804 l 1.3747218839375748 -5.593401019968591 a26.75986069522194,26.75986069522194 0 0,0 0.44636863531253385,0.11378930395341887 l -1.4707994079351336 5.568908719846305" fill="#ff4906" stroke="none" /><path d="M 106.0581310904928 79.89281104454417 l 0.4233634255247382 -1.4051608106028146 a22.4675535743972,22.4675535743972 0 0,0 0.3693394349184524,0.11475556028140887 l -0.44748823315390884 1.3976651154388853" fill="#ff0d01" stroke="none" /><path d="M 106.40334571778207 80.00007090966166 l 2.225193549102071 -6.9500719086169385 a28.297601377570015,28.297601377570015 0 0,0 0.4626215543931627,0.15251905296780272 l -2.344497925737651 6.9107391313899" fill="#ff5f08" stroke="none" /><path d="M 106.74666289553966 80.11325718540242 l 1.4100207831892415 -4.156235625328213 a25.38890113607871,25.38890113607871 0 0,0 0.41265185022866957,0.14396612791330596 l -1.4813546374811848 4.1313486442427" fill="#ff3605" stroke="none" /><path d="M 107.4271985657038 80.35727306442388 l 1.0873280080625791 -2.875658562624311 a24.07436080607203,24.07436080607203 0 0,0 0.3863554706437362,0.14989992021739879 l -1.1366666437059822 2.856515938516366" fill="#ff2403" stroke="none" /><line stroke="#e1ed5e" stroke-width="0.3" x1="143.23703022742887" x2="145.7803849466894" y1="26.81831364943548" y2="22.513508569990506" /><path d="M 143.74570117128098 25.957352633546492 a86.0,86.0 0 0,1 28.547481713284135,27.462654790039103" fill="none" id="id146" stroke="none" /><text fill="#e1ed5e" style="font-size:6.75px; font-family:Arial;" text-anchor="middle"><textPath startOffset="19.985693538727396" xlink:href="#id146">February</textPath></text><path d="M 110.68208982089419 81.91981866633111 l 0.42762079300258626 -0.7237779881246914 a21.840662904321338,21.840662904321338 0 0,0 0.3220332254348167,0.1940214150701242 l -0.4400160846550405 0.7163099635959527" fill="#ff0400" stroke="none" /><path d="M 110.99172775467656 82.1063720568725 l 0.7185997274147204 -1.169821200940963 a22.372904661807027,22.372904661807027 0 0,0 0.3264109282942372,0.2043984933528552 l -0.7386298080812208 1.1572783662651636" fill="#ff0b01" stroke="none" /><path d="M 111.2981086023043 82.29822771554956 l 2.199129101547761 -3.4455751798816077 a25.087561268713955,25.087561268713955 0 0,0 0.36201706224178515,0.2354659674417751 l -2.2581131895738262 3.4072102882803046" fill="#ff3204" stroke="none" /><path d="M 111.60114157652 82.49532879139004 l 1.4758362762779305 -2.226852297559311 a23.671509661132276,23.671509661132276 0 0,0 0.3377082462278772,0.22802211535019065 l -1.5139492169123496 2.20111826991045" fill="#ff1e03" stroke="none" /><path d="M 111.90073688211348 82.69761687909136 l 1.8784368489171654 -2.7310438294998414 a24.31468330222044,24.31468330222044 0 0,0 0.34280097984156366,0.2401539933464363 l -1.92516896834238 2.698304993389469" fill="#ff2703" stroke="none" /><path d="M 112.19680574252982 82.90503203632743 l 3.1674682397605705 -4.4395040166825 a26.4536273217036,26.4536273217036 0 0,0 0.3684041528411237,0.26766128453286175 l -3.243417708955483 4.3843234973329634" fill="#ff4506" stroke="none" /><path d="M 112.48926042617603 83.11751280151076 l 2.7053468472843663 -3.6569806344198192 a25.5488909554564,25.5488909554564 0 0,0 0.35130193002836657,0.2645933304445652 l -2.767894931071116 3.6098707144694067" fill="#ff3805" stroke="none" /><path d="M 112.77801427241765 83.33499621200491 l 3.166623704446084 -4.12989020865794 a26.20418089819412,26.20418089819412 0 0,0 0.3555875464142116,0.2775417202124933 l -3.237243806019726 4.074770099222222" fill="#ff4206" stroke="none" /><path d="M 113.06298171725822 83.55741782278167 l 3.6616960454945686 -4.60903486196387 a26.886528712950348,26.886528712950348 0 0,0 0.3598910402670747,0.29100685915173913 l -3.740490484326134 4.545321905548001" fill="#ff4b07" stroke="none" /><path d="M 113.34407831869373 83.78471172551755 l 4.438853527459887 -5.393949873265683 a27.985564821368847,27.985564821368847 0 0,0 0.36933277924687813,0.30930558117714063 l -4.531043843665883 5.316743134694723" fill="#ff5a08" stroke="none" /><path d="M 113.6212207817346 84.01681056812373 l 11.783717351807931 -13.827056301604781 a39.16709884915717,39.16709884915717 0 0,0 0.5093703611771433,0.4417209577939298 l -12.019981511631839 13.62217035039118" fill="#ffeb16" stroke="none" /><path d="M 114.16331599549186 84.49514656593476 l 5.60907892862126 -6.140366190802914 a29.316601672838402,29.316601672838402 0 0,0 0.36965738080449595,0.3435562487410502 l -5.713944193220603 6.042905355987224" fill="#ff6c0a" stroke="none" /><path d="M 114.42810811169701 84.74124197986012 l 6.276757391517849 -6.6381206355564455 a30.13577193915075,30.13577193915075 0 0,0 0.373851121753498,0.3596444829250095 l -6.390091756883765 6.529093065869134" fill="#ff770b" stroke="none" /><path d="M 114.68862486808459 84.99185889309783 l 6.7729955436703655 -6.920326017494635 a30.683200959548024,30.683200959548024 0 0,0 0.37428274390989813,0.3726754548608847 l -6.891114087747586 6.802714711983632" fill="#ff7f0b" stroke="none" /><path d="M 114.94478906791727 85.2469230424477 l 7.599715020640079 -7.502225695219823 a31.678907190202516,31.678907190202516 0 0,0 0.3797482393622144,0.3913639414754027 l -7.727727523705402 7.370297558194307" fill="#ff8c0c" stroke="none" /><path d="M 115.4437574822437 85.77008943001954 l 3.002714354439906 -2.766707310704859 a25.083009042050627,25.083009042050627 0 0,0 0.28983579316852687,0.3200439218909602 l -3.0498937882244688 2.7146106015443494" fill="#ff3204" stroke="none" /><path d="M 115.68641384162765 86.03803664274999 l 3.298122516422916 -2.935550865030595 a25.415322300185764,25.415322300185764 0 0,0 0.28805016653502713,0.3292911348556601 l -3.348164546535792 2.8783441739719873" fill="#ff3705" stroke="none" /><line stroke="#e1ed5e" stroke-width="0.3" x1="172.23445277983987" x2="176.4835382374775" y1="55.19839476539836" y2="52.563006222186495" /><path d="M 173.08426987136738 54.67131705675599 a86.0,86.0 0 0,1 12.851231095245387,41.99856678651699" fill="none" id="id147" stroke="none" /><text fill="#e1ed5e" style="font-size:6.75px; font-family:Arial;" text-anchor="middle"><textPath startOffset="22.20632615414155" xlink:href="#id147">March</textPath></text><path d="M 117.84615892207809 88.93136811851018 l 1.7442560812028018 -1.0818310289727986 a23.05250764969617,23.05250764969617 0 0,0 0.20624771415542292,0.339017012886498 l -1.7626195936444489 1.0516462428792193" fill="#ff1502" stroke="none" /><path d="M 118.03404312379186 89.2402003453031 l 3.4930187154877967 -2.084068520340374 a25.067495709182953,25.067495709182953 0 0,0 0.21789661080799666,0.37245594009502253 l -3.528375000766121 2.0236331678914565" fill="#ff3204" stroke="none" /><path d="M 118.3937258080291 89.86733742301442 l 3.633072735668703 -2.001372670897796 a25.147856081215433,25.147856081215433 0 0,0 0.2056039624363984,0.3809529165644334 l -3.6669847973235665 1.9385387710009039" fill="#ff3304" stroke="none" /><path d="M 118.89224826269711 90.83032412892265 l 8.790437799476734 -4.266589357986795 a30.771160701582772,30.771160701582772 0 0,0 0.22718173013137932,0.4785026622212193 l -8.862577723449869 4.114644280125035" fill="#ff800b" stroke="none" /><path d="M 119.34039704204932 91.81776055985345 l 3.726391355574048 -1.5765046732343795 a25.046153669798866,25.046153669798866 0 0,0 0.16456314444513923,0.3985027073054345 l -3.752976186905385 1.5121273954756418" fill="#ff3104" stroke="none" /><path d="M 119.61058180528143 92.48833698450437 l 3.68202852027453 -1.4103690411825283 a24.942901831955897,24.942901831955897 0 0,0 0.15012706385779195,0.40226589265867235 l -3.7057601726339473 1.3467800114945228" fill="#ff3004" stroke="none" /><path d="M 119.97218684219823 93.5106431181261 l 2.224435941521442 -0.7227630504087059 a23.33891036274768,23.33891036274768 0 0,0 0.12085611984639029,0.3831469268259992 l -2.2365475451360384 0.6843659571562876" fill="#ff1902" stroke="none" /><path d="M 120.18372546131832 94.20196356495316 l 3.888057631843402 -1.1168948891121897 a25.045299289528607,25.045299289528607 0 0,0 0.11546268125482079,0.41538069738248423 l -3.906707083664586 1.0498028883107535" fill="#ff3104" stroke="none" /><path d="M 120.37134235888165 94.90015583598534 l 4.396456057752246 -1.1006265749934374 a25.532130263499518,25.532130263499518 0 0,0 0.10306129456251621,0.42725560198997853 l -4.414750152575582 1.0247857413440526" fill="#ff3805" stroke="none" /><path d="M 120.6074358757038 95.95851677861258 l 2.16959034650602 -0.42549509970942745 a23.210920249925096,23.210920249925096 0 0,0 0.07351702656236932,0.39273089557459606 l -2.1765930969782485 0.38808612667226855" fill="#ff1702" stroke="none" /><path d="M 120.73433829027371 96.67025291283417 l 3.980582867081788 -0.6392455848521232 a25.031584661080306,25.031584661080306 0 0,0 0.06465790217803935,0.4260147893382306 l -3.9909966626991276 0.5706316831218106" fill="#ff3104" stroke="none" /><path d="M 120.91429891909075 98.10471618934814 l 8.028378866106474 -0.7275432253108814 a29.06127696847347,29.06127696847347 0 0,0 0.040859485874228954,0.4985892209481617 l -8.039712835800199 0.589240087154951" fill="#ff6909" stroke="none" /><path d="M 120.96714384426684 98.82574320788733 l 3.7121863686935006 -0.20789956368894397 a24.718003478279154,24.718003478279154 0 0,0 0.020135040532630478,0.42501888202193633 l -3.7152150174596272 0.1439695750440079" fill="#ff2d04" stroke="none" /><line stroke="#e1ed5e" stroke-width="0.3" x1="184.98032266829074" x2="189.97916517819016" y1="98.17113171792111" y2="98.06355123074" /><path d="M 185.9800911702706 98.14961562048488 a86.0,86.0 0 0,1 -9.607161424134198,41.387399972396054" fill="none" id="id148" stroke="none" /><text fill="#e1ed5e" style="font-size:6.75px; font-family:Arial;" text-anchor="middle"><textPath startOffset="21.466115282336823" xlink:href="#id148">April</textPath></text><path d="M 120.99513854157772 99.54816195383933 l 3.9361472226706367 -0.08471013739538724 a24.937058643951765,24.937058643951765 0 0,0 0.005541955961734894,0.42923059668611846 l -3.937022185750087 0.01694328264880603" fill="#ff3004" stroke="none" /><path d="M 120.9764740272857 100.99374915477107 l 1.2257789539550963 0.058070617485309416 a22.227153715136932,22.227153715136932 0 0,0 -0.021394851712701307,0.38201944957871864 l -1.2245977513548656 -0.0791617833994514" fill="#ff0901" stroke="none" /><path d="M 120.92983693683757 101.71520430193887 l 3.9064471751913286 0.320134123376382 a24.919542752606517,24.919542752606517 0 0,0 -0.038714768709260425,0.4272142466570443 l -3.900357810204993 -0.3873297585819968" fill="#ff3004" stroke="none" /><path d="M 120.8583938346157 102.4346265915055 l 3.765051561562634 0.43946311124672527 a24.790612231206442,24.790612231206442 0 0,0 -0.05312095882147223,0.4234263079847382 l -3.7569290934943136 -0.5042071735188584" fill="#ff2e04" stroke="none" /><path d="M 120.81339534386255 102.79330883721812 l 6.300841094448214 0.8456186422374949 a27.3573319392326,27.3573319392326 0 0,0 -0.06665542144403228,0.46618786233282644 l -6.28535162198758 -0.9539519765507307" fill="#ff5207" stroke="none" /><path d="M 120.76222939487914 103.15116336523771 l 0.5835323809738092 0.08856495255794286 a21.590215037479183,21.590215037479183 0 0,0 -0.05892920232908744,0.36695219915554383 l -0.5819214242834333 -0.09859638140669162" fill="#ff0000" stroke="none" /><path d="M 120.70491114924044 103.5080841355445 l 1.5573611838269223 0.263867544415734 a22.579556880231536,22.579556880231536 0 0,0 -0.06822634354549238,0.3826495671631978 l -1.5525883979422412 -0.29063586231215016" fill="#ff0e01" stroke="none" /><path d="M 120.32669344350535 105.2749913415812 l 26.29906319970637 6.82488428606047 a48.170200048955564,48.170200048955564 0 0,0 -0.21518757759971135,0.8007930279922875 l -26.17768754576488 -7.2765682472283055" fill="#a9ff21" stroke="none" /><path d="M 120.13307415673323 105.97154293290107 l 1.372490478138893 0.4070856617027522 a22.431589622952714,22.431589622952714 0 0,0 -0.11298388724941193,0.369237880735044 l -1.365279818383348 -0.4306505149898533" fill="#ff0c01" stroke="none" /><path d="M 119.54520255179757 107.68017299344265 l 0.8427756120508026 0.3311637460932521 a21.905505471542895,21.905505471542895 0 0,0 -0.14092269155123002,0.34975856344433526 l -0.8369503062421801 -0.34562167738040084" fill="#ff0500" stroke="none" /><path d="M 119.41010516605496 108.01547362559984 l 0.9803247848788312 0.40482869054517173 a22.060623850635203,22.060623850635203 0 0,0 -0.147962724935596,0.3497401742653844 l -0.9732110787509263 -0.4216433904767196" fill="#ff0701" stroke="none" /><path d="M 118.64920377521936 109.65438752849418 l 3.6470163389435073 1.8880006612237559 a25.10673528161997,25.10673528161997 0 0,0 -0.2019866644043465,0.38208264839109224 l -3.6139771663142675 -1.9504983247009824" fill="#ff3204" stroke="none" /><line stroke="#e1ed5e" stroke-width="0.3" x1="174.80103733775053" x2="179.2010983576182" y1="140.37084112569926" y2="142.7455964860345" /><path d="M 175.68104954172406 140.8457921977663 a86.0,86.0 0 0,1 -30.038265399797805,32.042727171017184" fill="none" id="id149" stroke="none" /><text fill="#e1ed5e" style="font-size:6.75px; font-family:Arial;" text-anchor="middle"><textPath startOffset="22.206326154141568" xlink:href="#id149">May</textPath></text><path d="M 118.48025628344425 109.97397251340804 l 2.7883748191075117 1.5049127769820174 a24.16856380686212,24.16856380686212 0 0,0 -0.2007413179806278,0.36440380139220596 l -2.7620570916753744 -1.5526870967720283" fill="#ff2503" stroke="none" /><path d="M 118.12598468904814 110.60418214915192 l 1.851120121008878 1.0829544038508796 a23.144629558507468,23.144629558507468 0 0,0 -0.2041346675769371,0.34214144466308766 l -1.8322045777337135 -1.1146579424000715" fill="#ff1602" stroke="none" /><path d="M 117.75023020441432 111.22182372390056 l 3.1299060485152657 1.9787492074369595 a24.702939413285726,24.702939413285726 0 0,0 -0.23031978082917748,0.3574614145784071 l -3.0953814043090375 -2.0323322219368194" fill="#ff2d04" stroke="none" /><path d="M 117.55443506779139 111.5257021239791 l 3.349080084723799 2.1989029722010716 a25.00643378767805,25.00643378767805 0 0,0 -0.2393435969559861,0.35778620288352 l -3.3107333823570917 -2.2562260892903985" fill="#ff3104" stroke="none" /><path d="M 117.35343817320211 111.8261652097733 l 3.0875757997533304 2.1041468060183885 a24.73638302379451,24.73638302379451 0 0,0 -0.24281597888642545,0.34979452765735497 l -3.050898913704769 -2.156982595862763" fill="#ff2d04" stroke="none" /><path d="M 117.14729908036423 112.12312394758627 l 1.7968778390824103 1.270390902950549 a23.20060514742763,23.20060514742763 0 0,0 -0.23335412553577725,0.32410847064060816 l -1.77474392117103 -1.301132979042288" fill="#ff1702" stroke="none" /><path d="M 116.93607887273984 112.41649034213515 l 1.1590965954577346 0.8497782627989395 a22.437229283561706,22.437229283561706 0 0,0 -0.23103800186424622,0.3095131591878222 l -1.1442973268983962 -0.8696043014960767" fill="#ff0c01" stroke="none" /><path d="M 116.71984013943494 112.70617746262583 l 1.7951837429945572 1.3642429010257633 a23.254737981254394,23.254737981254394 0 0,0 -0.24494235756350138,0.3166210157129041 l -1.7714345682129873 -1.39494191085192" fill="#ff1802" stroke="none" /><path d="M 116.498646956653 112.99209946851258 l 2.4751676971631893 1.9491067968956055 a24.150471779715662,24.150471779715662 0 0,0 -0.25999948022944974,0.3243893283338917 l -2.4412503048788854 -1.9914239588077476" fill="#ff2503" stroke="none" /><path d="M 116.27256486870786 113.27417163493432 l 3.2367866907291685 2.6403743002452575 a25.177123953951703,25.177123953951703 0 0,0 -0.27683326819731124,0.33346350504966205 l -3.1908574226383135 -2.69569906240869" fill="#ff3304" stroke="none" /><path d="M 116.0416608686014 113.55231037782055 l 2.6739673462147318 2.25902016710684 a24.500467609337083,24.500467609337083 0 0,0 -0.27493898624565705,0.31981615490335735 l -2.634685850398296 -2.3047134211717255" fill="#ff2a04" stroke="none" /><path d="M 115.80600337817218 113.82643327865902 l 3.0347229693458098 2.6546492273194784 a25.031960567860622,25.031960567860622 0 0,0 -0.2864861999255741,0.32187028263573597 l -2.988577919771897 -2.706493679696081" fill="#ff3104" stroke="none" /><path d="M 115.07121518719521 114.62390073753431 l 1.6018222012232783 1.5542800350810586 a23.23195447798188,23.23195447798188 0 0,0 -0.28095107799840613,0.2846019587080621 l -1.5748304981693366 -1.5816224877697853" fill="#ff1802" stroke="none" /><path d="M 114.81725581225074 114.88116024355365 l 1.752240897881556 1.7597980298838427 a23.48339229083764,23.48339229083764 0 0,0 -0.28890169127218146,0.2827511106555792 l -1.7216892542335802 -1.7896992434619938" fill="#ff1b02" stroke="none" /><path d="M 114.55890576462653 115.13401014063108 l 2.8104270940077667 2.921444291751616 a25.053805274127143,25.053805274127143 0 0,0 -0.31336842179351376,0.29630940227645414 l -2.7597228378234453 -2.9693883307739912" fill="#ff3204" stroke="none" /><path d="M 114.29624159901734 115.38237550388516 l 2.6906509124581035 2.8950687772474866 a24.952344311633905,24.952344311633905 0 0,0 -0.3171329494587154,0.28969343018087984 l -2.640418413532524 -2.940954974014949" fill="#ff3004" stroke="none" /><path d="M 114.0293411484842 115.62618273729858 l 2.575499521069932 2.8686469115060333 a24.855169631277533,24.855169631277533 0 0,0 -0.32081827611246305,0.28308482776789423 l -2.525738892050881 -2.9125548810462165" fill="#ff2f04" stroke="none" /><path d="M 112.92097659922987 116.55440617244103 l 1.9569875590396077 2.5073001779669286 a24.180621714173,24.180621714173 0 0,0 -0.33032027128393543,0.2532754984415641 l -1.9135385592621788 -2.540615018235864" fill="#ff2503" stroke="none" /><path d="M 112.63410532772338 116.77436683061366 l 2.506510097907033 3.327906389593662 a25.16623976852128,25.16623976852128 0 0,0 -0.3482708340372531,0.25764243704103107 l -2.4488542934512156 -3.370558775374462" fill="#ff3304" stroke="none" /><path d="M 112.34349029814194 116.9893568818739 l 1.935524255816843 2.6640205923397247 a24.292910545591155,24.292910545591155 0 0,0 -0.34041617621805337,0.242877903121521 l -1.889380751749905 -2.696942757305465" fill="#ff2703" stroke="none" /><path d="M 112.04921762599082 117.19931262002967 l 2.0834429143071644 2.9739512656704927 a24.63113212480073,24.63113212480073 0 0,0 -0.34934348225314427,0.24028163257765472 l -2.031942547431137 -3.0093736876132415" fill="#ff2c04" stroke="none" /><path d="M 111.45004920935366 117.60387380957326 l 4.8224361897411105 7.414252688937907 a29.844604781421708,29.844604781421708 0 0,0 -0.43305686607697075,0.27639738130678504 l -4.694097521617209 -7.4961644990685015" fill="#ff740a" stroke="none" /><path d="M 111.1453310114006 117.79835938074945 l 1.3329037384766371 2.128559459838816 a23.511453314340983,23.511453314340983 0 0,0 -0.34485793622083244,0.21183991089045084 l -1.296066602323496 -2.151187837557645" fill="#ff1c02" stroke="none" /><line stroke="#e1ed5e" stroke-width="0.3" x1="143.8653032363475" x2="146.44561519142675" y1="172.8068346515853" y2="177.08958963109032" /><path d="M 144.38136562736335 173.6633856474863 a86.0,86.0 0 0,1 -40.68145358897372,12.25698825130547" fill="none" id="id150" stroke="none" /><text fill="#e1ed5e" style="font-size:6.75px; font-family:Arial;" text-anchor="middle"><textPath startOffset="21.466115282336833" xlink:href="#id150">June</textPath></text><path d="M 110.8373102113329 117.98757091392108 l 1.8985935519783246 3.1512511395318894 a24.679000029901427,24.679000029901427 0 0,0 -0.36575703429508777,0.21609570285051777 l -1.8440686466548548 -3.183465414676157" fill="#ff2c04" stroke="none" /><path d="M 110.5260780823613 118.17145234162733 l 1.944418370757999 3.3567018484901334 a24.879202250488916,24.879202250488916 0 0,0 -0.3724194240694319,0.21146946853654414 l -1.8863501797673679 -3.3896744828213063" fill="#ff2f04" stroke="none" /><path d="M 110.21172684928248 118.3499491758327 l 1.389648131841469 2.4971263888999857 a23.85775473623458,23.85775473623458 0 0,0 -0.36056700539588377,0.1966098802441907 l -1.3464583145769367 -2.520676920903947" fill="#ff2103" stroke="none" /><path d="M 109.89434966115114 118.52300852407294 l 1.9778616445616115 3.70271411020553 a25.197859986581626,25.197859986581626 0 0,0 -0.38433827574122337,0.20106762091910257 l -1.9138324662938926 -3.7362111500693493" fill="#ff3404" stroke="none" /><path d="M 108.59647513512805 119.15986991738527 l 1.708598352663545 3.8081331782511656 a25.17386950371258,25.17386950371258 0 0,0 -0.39688322531156706,0.17398194265373493 l -1.6427944526942242 -3.836979674199355" fill="#ff3304" stroke="none" /><path d="M 108.2653958097858 119.30500536409082 l 1.561012124585214 3.645965436143986 a24.966084065505754,24.966084065505754 0 0,0 -0.396519122877706,0.16574502552153417 l -1.498021542210047 -3.6722955046854935" fill="#ff3004" stroke="none" /><path d="M 107.93186726928326 119.44442032107085 l 0.7893469986791151 1.9350292056613518 a23.089834134826525,23.089834134826525 0 0,0 -0.3693042211227295,0.14695377115523955 l -0.7559217015145193 -1.9483298212226603" fill="#ff1602" stroke="none" /><path d="M 107.59598834532513 119.57807347666477 l 1.4593052897903718 3.7612467120206716 a25.034420498348737,25.034420498348737 0 0,0 -0.40308967030957665,0.15241402229906265 l -1.3943453987205203 -3.785808984426365" fill="#ff3104" stroke="none" /><path d="M 106.91757812671514 119.82793768551818 l 2.3581606133872226 6.75922423110938 a28.158773196920475,28.158773196920475 0 0,0 -0.45902858803151625,0.15572741960493025 l -2.2414622924184795 -6.798814637612433" fill="#ff5d08" stroke="none" /><path d="M 106.2309692047433 120.05430185196036 l 0.6232929836499059 2.0060612122442913 a23.10066078431008,23.10066078431008 0 0,0 -0.38074841925793035,0.11471637539550555 l -0.5886695899517298 -2.0164929567455228" fill="#ff1602" stroke="none" /><path d="M 105.88484417918355 120.15858648285463 l 1.1133677529098471 3.8138512169354484 a24.973040253777896,24.973040253777896 0 0,0 -0.41368296866468457,0.1169109391121258 l -1.0475536161405568 -3.8324509493860934" fill="#ff3004" stroke="none" /><path d="M 105.18746579009965 120.34920634021253 l 1.034431677907551 4.057831802720889 a25.187606456608798,25.187606456608798 0 0,0 -0.4210488815130098,0.1034835710075058 l -0.9644295116513301 -4.0750366320424245" fill="#ff3304" stroke="none" /><path d="M 104.48393922423573 120.51570834832081 l 1.3243570224603638 6.059431464858544 a27.202469766170395,27.202469766170395 0 0,0 -0.45830790826096557,0.09604287822041041 l -1.2198576527700202 -6.081330323805496" fill="#ff4f07" stroke="none" /><path d="M 104.13013068566511 120.58985236759428 l 0.5710108132326077 2.8466480214695715 a23.90335294219721,23.90335294219721 0 0,0 -0.40411735308584495,0.07745005252630884 l -0.5219258455750584 -2.8560552723443484" fill="#ff2103" stroke="none" /><path d="M 103.7750983002368 120.6578951692458 l 0.7208262251803681 3.944467510709621 a25.00978981867523,25.00978981867523 0 0,0 -0.42415535081852557,0.0737448445934875 l -0.6528219028897926 -3.956290933824115" fill="#ff3104" stroke="none" /><path d="M 103.41894727170886 120.7198165907248 l 0.6757689188082845 4.095356535996433 a25.150735933368445,25.150735933368445 0 0,0 -0.4277590894881798,0.06680717246806007 l -0.6051739657115875 -4.106382015811598" fill="#ff3304" stroke="none" /><path d="M 103.06178313531738 120.77559828337769 l 0.5193268247252026 3.523869918747368 a24.561931997544555,24.561931997544555 0 0,0 -0.4188059806444784,0.05804269274853793 l -0.4585922528938938 -3.5322871769885085" fill="#ff2b04" stroke="none" /><path d="M 102.70371172650421 120.8252237178851 l 0.8462168394880005 6.51794894530589 a27.57265101713511,27.57265101713511 0 0,0 -0.471193729705917,0.057054998647143876 l -0.7338956867307032 -6.5315494726783845" fill="#ff5507" stroke="none" /><path d="M 102.34483914955558 120.86867818915974 l 0.3017049630463714 2.6851239596030956 a23.702020829520272,23.702020829520272 0 0,0 -0.4058320992795488,0.04206615643766617 l -0.25544026716122 -2.68991948449652" fill="#ff1e03" stroke="none" /><path d="M 101.98527174616119 120.90594882070398 l 0.342305081188534 3.6046513643444436 a24.620867883129367,24.620867883129367 0 0,0 -0.42225454620208674,0.03643389900078508 l -0.2802062172449056 -3.6100095156238923" fill="#ff2b04" stroke="none" /><path d="M 101.62511606390274 120.93702456842531 l 0.55065099401993 7.0942584634454375 a28.11559692951915,28.11559692951915 0 0,0 -0.4828348217006747,0.03329911621666624 l -0.4284534115403249 -7.102685924178389" fill="#ff5c08" stroke="none" /><path d="M 100.90346689309514 120.98055641714683 l 0.1777083302815344 4.126791670800118 a25.1306161459081,25.1306161459081 0 0,0 -0.432341912542523,0.014890729637142696 l -0.10664606606435909 -4.129239198863355" fill="#ff3304" stroke="none" /><line stroke="#e1ed5e" stroke-width="0.3" x1="102.19456741930631" x2="102.32365962044197" y1="184.97166512339345" y2="189.96999836594603" /><path d="M 102.22038585953345 185.97133177190398 a86.0,86.0 0 0,1 -42.740103519485714,-10.115201625700543" fill="none" id="id151" stroke="none" /><text fill="#e1ed5e" style="font-size:6.75px; font-family:Arial;" text-anchor="middle"><textPath startOffset="22.20632615414155" xlink:href="#id151">July</textPath></text><path d="M 100.54218724476979 120.99299961872073 l 0.10544827034620843 4.082861632262506 a25.084223114121002,25.084223114121002 0 0,0 -0.43173568481759056,0.007432721345821255 l -0.03515289563594993 -4.084071830887487" fill="#ff3204" stroke="none" /><path d="M 100.18074693466247 120.99922214144158 l 0.038441133251145634 4.466100064253034 a25.466265498674098,25.466265498674098 0 0,0 -0.4383761358271991,0.0 l 0.038441133251142554 -4.466100064253034" fill="#ff3705" stroke="none" /><path d="M 99.81925306533755 120.99922214144158 l -0.2398277196050967 27.863241880522487 a48.86427399785599,48.86427399785599 0 0,0 -0.8410246831883196,-0.014479002628048892 l 0.7194120926860842 -27.85498540061528" fill="#a2ff22" stroke="none" /><path d="M 99.09653310690486 120.98055641714683 l -0.20672072474914457 4.800525466223365 a25.804974319379852,25.804974319379852 0 0,0 -0.4436144582656969,-0.022929800347430748 l 0.2893232514283304 -4.7962558591137325" fill="#ff3c05" stroke="none" /><path d="M 98.73552117531835 120.96189622390904 l -0.12843647378649103 2.129155492623657 a23.13302579439823,23.13302579439823 0 0,0 -0.3972681217772179,-0.02739793561210293 l 0.16506735634263897 -2.126629212495269" fill="#ff1602" stroke="none" /><path d="M 98.37488393609728 120.93702456842531 l -0.31170239909978703 4.01578750770383 a25.027866394585935,25.027866394585935 0 0,0 -0.4292346808007447,-0.03703617438483193 l 0.3807813976420734 -4.009827081040334" fill="#ff3104" stroke="none" /><path d="M 98.01472825383883 120.90594882070398 l -0.8915846797235484 9.388852543570621 a30.431090887380435,30.431090887380435 0 0,0 -0.5210489682302178,-0.054008855997753014 l 1.0530662445593595 -9.372114319117108" fill="#ff7b0b" stroke="none" /><path d="M 97.65516085044442 120.86867818915974 l -0.4542910305717549 4.043114566310662 a25.068556960000855,25.068556960000855 0 0,0 -0.4284008398389779,-0.05187337563406284 l 0.5238192934621222 -4.03469566195125" fill="#ff3204" stroke="none" /><path d="M 97.2962882734958 120.8252237178851 l -1.088984670076009 8.387857757676889 a29.45825309237557,29.45825309237557 0 0,0 -0.5022932469505624,-0.0696132671208549 l 1.2332065082134027 -8.367869925063427" fill="#ff6e0a" stroke="none" /><path d="M 95.86986931433489 120.58985236759428 l -1.0476762996207771 5.222958298411681 a26.32699906286218,26.32699906286218 0 0,0 -0.4435579553991034,-0.09295188218710407 l 1.1374257164492672 -5.204150435498036" fill="#ff4306" stroke="none" /><path d="M 95.51606077576429 120.51570834832081 l -0.6645431268644012 3.0405347382813943 a24.1123092812506,24.1123092812506 0 0,0 -0.4047191987261097,-0.0921127719774754 l 0.7167824749833736 -3.028645232726232" fill="#ff2403" stroke="none" /><path d="M 95.16358092515715 120.4354850818985 l -0.9352752300914006 3.9518500601859103 a25.06101694827957,25.06101694827957 0 0,0 -0.4189327466994415,-0.10296347655563479 l 1.0031612615340526 -3.9351653253162455" fill="#ff3204" stroke="none" /><path d="M 94.81253420990036 120.34920634021253 l -0.7136433954289026 2.799454935130027 a23.888985086438343,23.888985086438343 0 0,0 -0.3975918380592382,-0.10500761808742784 l 0.7617256762996301 -2.7867559677390177" fill="#ff2103" stroke="none" /><path d="M 94.46302465271185 120.25689768951611 l -1.233224416579502 4.511723326906139 a25.677231001372164,25.677231001372164 0 0,0 -0.4253480168931109,-0.12020759826049641 l 1.3107036015772269 -4.489826935307121" fill="#ff3a05" stroke="none" /><path d="M 94.11515582081647 120.15858648285463 l -1.7712624559949108 6.067475419198063 a27.32073007259366,27.32073007259366 0 0,0 -0.45030420927083925,-0.13567296435154919 l 1.875441639705996 -6.036087085740788" fill="#ff5107" stroke="none" /><path d="M 93.76903079525671 120.05430185196036 l -0.8283674570200323 2.6660910175538155 a23.791815530748938,23.791815530748938 0 0,0 -0.3900482975605104,-0.12488114755961133 l 0.8741370996714832 -2.6514370233344975" fill="#ff2003" stroke="none" /><path d="M 93.42475214034765 119.94407469862007 l -1.4261291561357043 4.3257420901779255 a25.554765526425836,25.554765526425836 0 0,0 -0.4165795098756158,-0.1413263875599005 l 1.500378398948546 -4.300552715719902" fill="#ff3905" stroke="none" /><path d="M 93.08242187328487 119.8279376855182 l -0.8232786943492864 2.3597736592711223 a23.499263797913155,23.499263797913155 0 0,0 -0.3807780861919927,-0.13653347427305162 l 0.8637763411710058 -2.345252643958113" fill="#ff1b02" stroke="none" /><path d="M 92.7421414339146 119.70592522655815 l -1.9408501720290043 5.269632635812658 a26.615685844728752,26.615685844728752 0 0,0 -0.428550284713895,-0.16204104808860395 l 2.031270677503182 -5.235443337617421" fill="#ff4706" stroke="none" /><path d="M 91.40352486487194 119.15986991738527 l -1.5606076128928477 3.4782906232023563 a24.81234859120681,24.81234859120681 0 0,0 -0.38817383868507715,-0.17819157061581437 l 1.6202494473453442 -3.4509119822524674" fill="#ff2e04" stroke="none" /><path d="M 91.07499286063937 119.00905698771935 l -1.8239073012587417 3.8846756409909777 a25.29154315826995,25.29154315826995 0 0,0 -0.3924854058097774,-0.18841684608752787 l 1.890505375068761 -3.8527045184038875" fill="#ff3505" stroke="none" /><path d="M 90.7491055286396 118.85261126421891 l -1.6945736279047516 3.4534106906515643 a24.846768147249946,24.846768147249946 0 0,0 -0.38233981111887033,-0.1917131185392804 l 1.7537673467063823 -3.4237297312029815" fill="#ff2f04" stroke="none" /><path d="M 90.42595943632237 118.69057910512821 l -1.9727494456194066 3.8512297209010304 a25.32709033165973,25.32709033165973 0 0,0 -0.3863094021792308,-0.20209882111027935 l 2.038749750325133 -3.8167014808460342" fill="#ff3505" stroke="none" /><path d="M 90.10565033884886 118.52300852407294 l -4.947975841058131 9.263003817288151 a31.50170008345267,31.50170008345267 0 0,0 -0.4760914758973152,-0.25960303261436424 l 5.106690128824087 -9.176460132914022" fill="#ff8a0c" stroke="none" /><line stroke="#e1ed5e" stroke-width="0.3" x1="58.666819895761336" x2="56.23545636021788" y1="174.27360380694188" y2="178.64263932499728" /><path d="M 58.180547188652646 175.14741091055294 a86.0,86.0 0 0,1 -31.652253787137756,-30.449443065178592" fill="none" id="id152" stroke="none" /><text fill="#e1ed5e" style="font-size:6.75px; font-family:Arial;" text-anchor="middle"><textPath startOffset="22.20632615414155" xlink:href="#id152">August</textPath></text><path d="M 89.7882731507175 118.34994917583269 l -3.5354651667555372 6.353049496956464 a28.270539997560054,28.270539997560054 0 0,0 -0.4231847194303016,-0.24029532813527 l 3.644298653107046 -6.291251003026561" fill="#ff5e08" stroke="none" /><path d="M 89.1626897886671 117.98757091392108 l -1.486071213055983 2.466554044012507 a23.87963478627206,23.87963478627206 0 0,0 -0.35025829581865675,-0.21515725283280626 l 1.5283087088069485 -2.440608324351323" fill="#ff2103" stroke="none" /><path d="M 88.8546689885994 117.79835938074946 l -2.304329036876839 3.6798616647524987 a25.34181001218487,25.34181001218487 0 0,0 -0.36771955618010504,-0.23469601880278151 l 2.3673303951038673 -3.639651217125913" fill="#ff3605" stroke="none" /><path d="M 88.54995079064634 117.60387380957326 l -0.7673772072870914 1.179803795986239 a22.40741066334147,22.40741066334147 0 0,0 -0.32151998898041717,-0.213085916747085 l 0.7875718950074704 -1.1664198581478358" fill="#ff0c01" stroke="none" /><path d="M 87.95078237400918 117.19931262002967 l -5.519672185481927 7.878898898249381 a30.61997031617136,30.61997031617136 0 0,0 -0.4290771660060719,-0.306135165239993 l 5.654476679336885 -7.782719471165169" fill="#ff7e0b" stroke="none" /><path d="M 87.36589467227662 116.77436683061367 l -2.7371724183936483 3.6341579426302473 a25.549639194485366,25.549639194485366 0 0,0 -0.3490217848692697,-0.26761502158534795 l 2.799322931756405 -3.5865035792175326" fill="#ff3905" stroke="none" /><path d="M 87.07902340077011 116.55440617244103 l -2.2993366381030906 2.945919168107024 a24.737029397843106,24.737029397843106 0 0,0 -0.3334109915947588,-0.26488185618252374 l 2.349705122415208 -2.9059033979193694" fill="#ff2d04" stroke="none" /><path d="M 86.79598089348748 116.32954008644616 l -2.823354382125046 3.4916700884213947 a25.490332946836055,25.490332946836055 0 0,0 -0.3388149218477825,-0.27882161427827934 l 2.883039432517517 -3.4425533552859346" fill="#ff3805" stroke="none" /><path d="M 86.51685102203217 116.09983520530335 l -1.362636677179554 1.6270847398587043 a23.122306166573523,23.122306166573523 0 0,0 -0.3029402232180758,-0.25817223037423503 l 1.3904423769746863 -1.6033881192615176" fill="#ff1602" stroke="none" /><path d="M 86.24171649860922 115.8653595955263 l -3.0507546923660724 3.5179766594600417 a25.656529176274883,25.656529176274883 0 0,0 -0.33116183005259775,-0.29221181149566827 l 3.110858875325258 -3.464941706192085" fill="#ff3a05" stroke="none" /><path d="M 85.97065885151581 115.62618273729859 l -9.635271937172242 10.731973684315602 a35.42268090419051,35.42268090419051 0 0,0 -0.4502061663057282,-0.4112526586351054 l 9.818577652944825 -10.56452825909392" fill="#ffbd11" stroke="none" /><path d="M 85.70375840098266 115.38237550388516 l -5.855327536330872 6.300176605036614 a29.60099330382051,29.60099330382051 0 0,0 -0.37024381939766804,-0.3500886406945072 l 5.962907190119357 -6.198453327596176" fill="#ff700a" stroke="none" /><path d="M 85.18274418774928 114.88116024355367 l -2.6183462722107333 2.6296387768148213 a24.710894406706824,24.710894406706824 0 0,0 -0.2988363475164755,-0.3027196423031121 l 2.663223244782742 -2.5841786405310443" fill="#ff2d04" stroke="none" /><path d="M 84.9287848128048 114.62390073753433 l -3.171324167388974 3.0771991013599878 a25.418874436332864,25.418874436332864 0 0,0 -0.3019925068183783,-0.31663793604893764 l 3.2238232255863095 -3.02215404872855" fill="#ff3705" stroke="none" /><path d="M 84.67929136418377 114.36230785411682 l -2.756337419914856 2.5839122403315753 a24.778094551246465,24.778094551246465 0 0,0 -0.28902301254044177,-0.3136773973744059 l 2.8004068404510267 -2.5360835881558255" fill="#ff2e04" stroke="none" /><path d="M 84.43433777217949 114.09645910891817 l -4.058321718084649 3.6752670919176826 a26.47517701671924,26.47517701671924 0 0,0 -0.3030035476172465,-0.34042769786653354 l 4.120984115350234 -3.6048652243102848" fill="#ff4506" stroke="none" /><path d="M 84.19399662182784 113.82643327865904 l -4.589445764191895 4.014655958650167 a27.097579428657262,27.097579428657262 0 0,0 -0.3040832173744696,-0.353717479937351 l 4.6578714911371435 -3.9350613795512857" fill="#ff4e07" stroke="none" /><path d="M 83.72743513129214 113.27417163493432 l -1.6960745016796177 1.383554726779756 a23.188810726682956,23.188810726682956 0 0,0 -0.24964641647872002,-0.3114722894485311 l 1.7196388302131986 -1.3541546037529655" fill="#ff1702" stroke="none" /><path d="M 83.50135304334701 112.99209946851258 l -2.6005643868776627 2.04785224372364 a24.310080654972072,24.310080654972072 0 0,0 -0.2560582911313684,-0.33098985829229655 l 2.6354294952270996 -2.0027843913180914" fill="#ff2703" stroke="none" /><path d="M 83.28015986056508 112.70617746262583 l -3.6428766875565524 2.7683899654868642 a25.5754271452785,25.5754271452785 0 0,0 -0.26335228426796,-0.35280342119215274 l 3.6899902385195977 -2.705273664785403" fill="#ff3905" stroke="none" /><path d="M 83.06392112726016 112.41649034213515 l -3.7459296044401933 2.7462849639129843 a25.644789522081275,25.644789522081275 0 0,0 -0.2579379889208501,-0.35825330671701966 l 3.7926473857366507 -2.6813980517448264" fill="#ff3a05" stroke="none" /><path d="M 82.6465618267979 111.8261652097733 l -1.6209935462216083 1.104688148265417 a22.961620753818174,22.961620753818174 0 0,0 -0.21977211744066558,-0.32852949650132734 l 1.6397687690730043 -1.0766217375582687" fill="#ff1402" stroke="none" /><path d="M 82.44556493220864 111.52570212397912 l -1.679232960139351 1.102532711567855 a23.00883093228264,23.00883093228264 0 0,0 -0.21452462837717795,-0.3329469872085686 l 1.6979624518935745 -1.073464124437838" fill="#ff1402" stroke="none" /><path d="M 82.05923443525364 110.91462005526583 l -3.740874141465052 2.2758348734510667 a25.378762806261367,25.378762806261367 0 0,0 -0.22383962965895304,-0.3751680945398486 l 3.779494646822237 -2.211104685025107" fill="#ff3605" stroke="none" /><line stroke="#e1ed5e" stroke-width="0.3" x1="26.63291911575756" x2="22.317208475507996" y1="142.92168965132927" y2="145.44649492493687" /><path d="M 25.769776987707644 143.4266507060508 a86.0,86.0 0 0,1 -11.730757126820373,-40.83630448921669" fill="none" id="id153" stroke="none" /><text fill="#e1ed5e" style="font-size:6.75px; font-family:Arial;" text-anchor="middle"><textPath startOffset="21.46611528233685" xlink:href="#id153">September</textPath></text><path d="M 81.87401531095188 110.60418214915194 l -3.6173996759401525 2.1162748246791656 a25.190966421848636,25.190966421848636 0 0,0 -0.21574023933152237,-0.3761612920734052 l 3.653291911424052 -2.0536936867474536" fill="#ff3304" stroke="none" /><path d="M 81.69416730710424 110.29060199501025 l -6.177993654980803 3.472951757926795 a28.08724202450219,28.08724202450219 0 0,0 -0.2332894096437108,-0.423488041993001 l 6.236859474076031 -3.366093197535971" fill="#ff5c08" stroke="none" /><path d="M 81.51974371655577 109.97397251340807 l -12.79589167690282 6.906066123353008 a35.54058434545032,35.54058434545032 0 0,0 -0.2859282181612243,-0.540868433898619 l 12.91287240328893 -6.684782674368263" fill="#ffbe11" stroke="none" /><path d="M 81.02952815118164 109.00673069616217 l -4.985015846225193 2.366767447898135 a26.51833046668524,26.51833046668524 0 0,0 -0.19222681028853608,-0.4140394480616469 l 5.025017273353555 -2.2806079325576607" fill="#ff4606" stroke="none" /><path d="M 80.87730276802145 108.67885076344099 l -3.9326789047961053 1.784849328586403 a25.318755665001625,25.318755665001625 0 0,0 -0.17669949362935242,-0.39841071083022706 l 3.9628194831567374 -1.71689028126348" fill="#ff3505" stroke="none" /><path d="M 80.73074385275274 108.34839909993369 l -4.276111533020888 1.8526239622689036 a25.66018726967138,25.66018726967138 0 0,0 -0.1721053428264228,-0.40680619134526363 l 4.307367857039617 -1.7787432452574812" fill="#ff3a05" stroke="none" /><path d="M 80.58989483394504 108.01547362559985 l -4.305913552981625 1.7781426850997326 a25.658613842584995,25.658613842584995 0 0,0 -0.16506722151963973,-0.40968330674743303 l 4.335883388758653 -1.703760010509494" fill="#ff3a05" stroke="none" /><path d="M 80.45479744820244 107.68017299344265 l -2.920206746635446 1.1474781564090732 a24.13756490969209,24.13756490969209 0 0,0 -0.14862501045267484,-0.3880130032165232 l 2.93952603668163 -1.0970415863593923" fill="#ff2503" stroke="none" /><path d="M 80.32549172779594 107.34259656027581 l -9.92751208444265 3.7049828679229884 a31.596338718555465,31.596338718555465 0 0,0 -0.18578006060966082,-0.5111869374366732 l 9.989816406057535 -3.5335481334801977" fill="#ff8b0c" stroke="none" /><path d="M 80.0844068197444 106.66101706037122 l -3.092532398131387 1.0343358029690142 a24.2609212175083,24.2609212175083 0 0,0 -0.1290539474990461,-0.3971872096252954 l 3.109878596646682 -0.9809496933659154" fill="#ff2603" stroke="none" /><path d="M 79.97269907076064 106.31721596034903 l -3.1198569888953305 0.9840971798392302 a24.2713842468482,24.2713842468482 0 0,0 -0.12225060226347612,-0.3995220415695501 l 3.136334363664937 -0.9302481657176322" fill="#ff2603" stroke="none" /><path d="M 79.86692584326677 105.97154293290107 l -5.665577800192887 1.680430957049266 a26.90953636180098,26.90953636180098 0 0,0 -0.12789380318518365,-0.44521510697833344 l 5.693664240264174 -1.5826583745663365" fill="#ff4b07" stroke="none" /><path d="M 79.76711848015287 105.62410040840567 l -5.195757038705956 1.4442559382705076 a26.392751284872325,26.392751284872325 0 0,0 -0.11790260803176024,-0.43875946533294635 l 5.219847723079492 -1.3546055397620222" fill="#ff4406" stroke="none" /><path d="M 79.67330655649465 105.27499134158121 l -4.373058414805624 1.134854782871683 a25.517912712471215,25.517912712471215 0 0,0 -0.106675429474346,-0.4261153135690972 l 4.391945158575028 -1.0594116299051939" fill="#ff3805" stroke="none" /><path d="M 79.50377843672027 104.57218783832718 l -10.94146025086693 2.4407626224230254 a32.210391366955854,32.210391366955854 0 0,0 -0.11605858218298522,-0.5421870580674188 l 10.981852871774356 -2.252061744939443" fill="#ff930d" stroke="none" /><path d="M 79.35854240842038 103.8639653848113 l -4.245835928564424 0.7947967329716844 a25.319586158306254,25.319586158306254 0 0,0 -0.07650561048780787,-0.42908409299695527 l 4.25888798139142 -0.7215938892415155" fill="#ff3505" stroke="none" /><path d="M 79.29508885075956 103.50808413554451 l -7.570188650599751 1.2826357242891298 a28.678079877605597,28.678079877605597 0 0,0 -0.07827510604148201,-0.4874191600397399 l 7.591145511002524 -1.152137334556176" fill="#ff6409" stroke="none" /><path d="M 79.23777060512086 103.15116336523772 l -4.5111526290438 0.6846749753735398 a25.562814686619603,25.562814686619603 0 0,0 -0.06228312724417677,-0.43560804688251153 l 4.522269807304576 -0.6069214565106277" fill="#ff3905" stroke="none" /><path d="M 79.10278846688536 102.07522291339032 l -11.219311513118571 1.1141473247563591 a32.274496666798775,32.274496666798775 0 0,0 -0.05014135636707125,-0.5533056892988012 l 11.236827465762719 -0.9208602469089918" fill="#ff940d" stroke="none" /><path d="M 79.04373962182676 101.35467743843564 l -3.804728273307417 0.24594939451105652 a24.81266945044613,24.81266945044613 0 0,0 -0.023883552086427687,-0.426456866565983 l 3.808398176281376 -0.18042081160963594" fill="#ff2e04" stroke="none" /><path d="M 79.0235259727143 100.99374915477108 l -4.167131450384471 0.19741560718226164 a25.17180505857387,25.17180505857387 0 0,0 -0.016778646814542244,-0.4329823200421455 l 4.1699122300502145 -0.12565604012611936" fill="#ff3304" stroke="none" /><path d="M 79.0095281055655 100.63252640178507 l -3.2543776185241633 0.09806734100345624 a24.255854862754557,24.255854862754557 0 0,0 -0.008983834221145811,-0.4174434749579059 l 3.2555835154303168 -0.0420340502554215" fill="#ff2603" stroke="none" /><line stroke="#e1ed5e" stroke-width="0.3" x1="15.007084014347285" x2="10.007500721073583" y1="101.09737516637583" y2="101.16192664675087" /><path d="M 14.007167355692545 101.11028546245083 a86.0,86.0 0 0,1 10.666146001902534,-42.60595125391555" fill="none" id="id154" stroke="none" /><text fill="#e1ed5e" style="font-size:6.75px; font-family:Arial;" text-anchor="middle"><textPath startOffset="22.20632615414155" xlink:href="#id154">October</textPath></text><path d="M 79.00175016825051 100.2711162175752 l -5.946364439701115 0.07677572407857892 a26.94686005901852,26.94686005901852 0 0,0 -0.0019962525349141954,-0.46385878588129253 l 5.946804989525532 0.025592540006388987" fill="#ff4c07" stroke="none" /><path d="M 79.00486145842228 99.54816195383935 l -6.654891171282389 -0.14322044211755044 a27.656432122139655,27.656432122139655 0 0,0 0.014339603962503295,-0.4758616448306367 l 6.651439872864241 0.25775223437318157" fill="#ff5607" stroke="none" /><path d="M 79.03285615573316 98.82574320788736 l -2.945199691627087 -0.16494477110037217 a23.949814909629694,23.949814909629694 0 0,0 0.026595025202202766,-0.411413268641285 l 2.941924075420471 0.215617103994669" fill="#ff2203" stroke="none" /><path d="M 79.05617556472873 98.46500227214037 l -4.406157333339167 -0.32293249574215505 a25.41797553670737,25.41797553670737 0 0,0 0.035737087999270514,-0.4360829923156579 l 4.399945761520399 0.3987294052655913" fill="#ff3705" stroke="none" /><path d="M 79.08570108090925 98.10471618934814 l -2.1995067912913986 -0.1993224649356129 a23.208519768977627,23.208519768977627 0 0,0 0.039479763562319,-0.39755583128720073 l 2.1957499020468507 0.2371538269272439" fill="#ff1702" stroke="none" /><path d="M 79.12142395522702 97.74499172005258 l -4.434249849867354 -0.47892490873724364 a25.460038206031157,25.460038206031157 0 0,0 0.05081053398713834,-0.4353136257316067 l 4.425348962876627 0.555182272793712" fill="#ff3705" stroke="none" /><path d="M 79.54389044137918 95.25157060432595 l -0.9199324271434992 -0.21354178645572705 a21.944391743437453,21.944391743437453 0 0,0 0.08857926847956618,-0.36721825432835803 l 0.9161203584031182 0.22934527244348185" fill="#ff0500" stroke="none" /><path d="M 79.62865764111835 94.90015583598534 l -61.114027076644945 -15.299532492043955 a84.0,84.0 0 0,0 0.3632146725187706,-1.3996142978045447 l 60.84161607225587 16.349243215397365" fill="#4dd2ff" stroke="none" /><path d="M 80.02781315780177 93.51064311812611 l -1.2672872566889635 -0.4117665904832109 a22.33250467766699,22.33250467766699 0 0,0 0.12193835348551661,-0.3645801563151095 l 1.2600116094316745 0.4335198497206426" fill="#ff0b01" stroke="none" /><path d="M 80.14247586403 93.16781622104843 l -1.9796767060072957 -0.6811279687104169 a23.093574734770048,23.093574734770048 0 0,0 0.13256472796975946,-0.37477833732876564 l 1.9676588972277267 0.7151039324657936" fill="#ff1602" stroke="none" /><path d="M 80.2630227832202 92.82701384747504 l -4.145636430977061 -1.5066437168261133 a25.41092696689662,25.41092696689662 0 0,0 0.15294402716838032,-0.40981395382500285 l 4.119087815307053 1.5777808076804576" fill="#ff3705" stroke="none" /><path d="M 80.38941819471856 92.48833698450439 l -3.4077530387348944 -1.3053102004405497 a24.649193814033595,24.649193814033595 0 0,0 0.15518011487769337,-0.39491646605946645 l 3.3847793739755097 1.3637756713957796" fill="#ff2c04" stroke="none" /><path d="M 80.52162464483688 92.15188598940014 l -5.222863130072354 -2.1043657162968237 a26.630866216080314,26.630866216080314 0 0,0 0.17497533320257405,-0.4237166482689636 l 5.18586610998358 2.1939569350190986" fill="#ff4806" stroke="none" /><path d="M 80.803312248108 91.48605970444005 l -5.288414232600961 -2.3454693651573506 a26.78520108885318,26.78520108885318 0 0,0 0.19055461820692265,-0.4198618422471364 l 5.247257297430687 2.436153216246558" fill="#ff4a06" stroke="none" /><path d="M 80.95270993114464 91.15688171328213 l -4.475984914319539 -2.07807325366527 a25.934858599880553,25.934858599880553 0 0,0 0.19147558665639353,-0.4032964178610173 l 4.439551133821394 2.1548120871668193" fill="#ff3e05" stroke="none" /><path d="M 81.26839172434947 90.50648371742162 l -4.09930490851632 -2.077601523775279 a25.595729411592828,25.595729411592828 0 0,0 0.20256041807585493,-0.39128225403641476 l 4.0629350572803515 2.1478565000720296" fill="#ff3905" stroke="none" /><path d="M 81.43458229118936 90.18545643968196 l -2.375908569638092 -1.2560158094896885 a23.687474138474222,23.687474138474222 0 0,0 0.19366416474037768,-0.35883028477470963 l 2.353936305679243 1.296727077596871" fill="#ff1e03" stroke="none" /><path d="M 81.6062741919709 89.86733742301443 l -0.6293436493375918 -0.3466903285533881 a21.718517649660754,21.718517649660754 0 0,0 0.18320330686156577,-0.3258982405324061 l 0.6232827011835954 0.3574720790205788" fill="#ff0200" stroke="none" /><line stroke="#e1ed5e" stroke-width="0.3" x1="26.266209847984243" x2="21.928928074336255" y1="57.711370442889674" y2="55.22380399835377" /><path d="M 25.398753493254645 57.213857153982495 a86.0,86.0 0 0,1 29.58750427330803,-30.492523968695096" fill="none" id="id155" stroke="none" /><text fill="#e1ed5e" style="font-size:6.75px; font-family:Arial;" text-anchor="middle"><textPath startOffset="21.46611528233685" xlink:href="#id155">November</textPath></text><path d="M 81.78341655067845 89.55222093294921 l -5.655320118431514 -3.2435025654067164 a27.519429003657926,27.519429003657926 0 0,0 0.23920978708183327,-0.40888706711460476 l 5.5986506568793555 3.340369044875213" fill="#ff5407" stroke="none" /><path d="M 81.96595687620814 89.24020034530311 l -7.454168933455675 -4.44744219394905 a29.680113856224125,29.680113856224125 0 0,0 0.2655440237452791,-0.43648455493739335 l 7.376509111424179 4.575094522093519" fill="#ff710a" stroke="none" /><path d="M 83.39014120810768 87.1503855733568 l -0.8840081549836762 -0.6838808254705436 a22.117659787915766,22.117659787915766 0 0,0 0.2355487789703894,-0.29912302893937615 l 0.8721052954193158 0.6989962483629675" fill="#ff0801" stroke="none" /><path d="M 83.6137871275137 86.86637796730984 l -4.692708715197769 -3.761226773661889 a27.01401213239582,27.01401213239582 0 0,0 0.2939401193961463,-0.3603358305087332 l 4.62727010372523 3.8414467737787046" fill="#ff4d07" stroke="none" /><path d="M 83.84228863543731 86.58626213691792 l -2.536628034583214 -2.105846721997391 a24.296827596702723,24.296827596702723 0 0,0 0.2699139049639947,-0.3194929282492273 l 2.500003516132095 2.149198599875734" fill="#ff2703" stroke="none" /><path d="M 84.07557802195018 86.31012108654704 l -3.5005177339589575 -3.009318892600811 a25.6162348947086,25.6162348947086 0 0,0 0.29032725378294333,-0.3318942392143595 l 3.448198616598171 3.0691286880181137" fill="#ff3905" stroke="none" /><path d="M 84.80347519578584 85.50635884689758 l -2.403148704196768 -2.2919960586325745 a24.32089891855652,24.32089891855652 0 0,0 0.291544733174517,-0.30046247504189705 l 2.363339707319132 2.3330227292245955" fill="#ff2703" stroke="none" /><path d="M 85.05521093208273 85.24692304244772 l -2.650160784169566 -2.6161644584649513 a24.723931881182235,24.723931881182235 0 0,0 0.30158982033623344,-0.3002946978027804 l 2.604735163666019 2.661395006917841" fill="#ff2d04" stroke="none" /><path d="M 85.31137513191541 84.99185889309783 l -2.525633031012752 -2.580572194749997 a24.610841322968856,24.610841322968856 0 0,0 0.30531126444900375,-0.29370919450214067 l 2.480838522951321 2.623664476014451" fill="#ff2b04" stroke="none" /><path d="M 85.57189188830299 84.74124197986013 l -1.9814890035389765 -2.0955665836782464 a23.88404195145889,23.88404195145889 0 0,0 0.30115742913615395,-0.27989300905975045 l 1.9451236906079665 2.129364178812644" fill="#ff2103" stroke="none" /><path d="M 85.83668400450813 84.49514656593479 l -3.081272361802595 -3.373127901360931 a25.568613707302045,25.568613707302045 0 0,0 0.3275083880793946,-0.2940402645099452 l 3.022752986127229 3.425667174640155" fill="#ff3905" stroke="none" /><path d="M 86.37877921826538 84.01681056812374 l -9.34433050707501 -10.964671008703869 a35.406266794508696,35.406266794508696 0 0,0 0.46726571364347635,-0.39132159733387434 l 9.154207256472423 11.123893763431557" fill="#ffbc11" stroke="none" /><path d="M 86.93701828274178 83.55741782278169 l -2.2154445105015497 -2.7886151271927733 a24.56154021551348,24.56154021551348 0 0,0 0.33329711221732794,-0.2601436827568155 l 2.167114843124796 2.826337199172811" fill="#ff2b04" stroke="none" /><path d="M 87.80319425747018 82.90503203632743 l -2.6641256462061342 -3.7340221312441693 a25.586991032844352,25.586991032844352 0 0,0 0.36073863221796815,-0.2527204651559525 l 2.5994558744045055 3.779327439164064" fill="#ff3905" stroke="none" /><path d="M 88.39885842347998 82.49532879139004 l -9.480335232198733 -14.304639771219788 a38.16098700830554,38.16098700830554 0 0,0 0.5506684472444765,-0.35817007592719186 l 9.23269975916997 14.465708771306515" fill="#ffdf14" stroke="none" /><line stroke="#e1ed5e" stroke-width="0.3" x1="56.762969772571076" x2="54.21961505331055" y1="26.818313649435495" y2="22.513508569990535" /><path d="M 56.25429882871897 25.957352633546506 a86.0,86.0 0 0,1 42.265352541879196,-11.944610805530505" fill="none" id="id156" stroke="none" /><text fill="#e1ed5e" style="font-size:6.75px; font-family:Arial;" text-anchor="middle"><textPath startOffset="22.20632615414155" xlink:href="#id156">December</textPath></text><path d="M 89.3179101791058 81.91981866633112 l -2.2861602943244494 -3.8694855943235034 a25.494379562967815,25.494379562967815 0 0,0 0.37974882052693787,-0.2199750279395197 l 2.2192147413321917 3.90826477965307" fill="#ff3805" stroke="none" /><path d="M 89.63071344664047 81.73862282372117 l -2.3664628796683513 -4.167583854193479 a25.792588209160307,25.792588209160307 0 0,0 0.38796463313133944,-0.21590189829719597 l 2.2943741574649663 4.20770115005086" fill="#ff3c05" stroke="none" /><path d="M 89.94658935756843 81.56283822128135 l -2.16149685424789 -3.9640146616274095 a25.515028337510252,25.515028337510252 0 0,0 0.3874091987326573,-0.20694057713279507 l 2.0929426089869274 4.000633965261954" fill="#ff3805" stroke="none" /><path d="M 90.58718382345135 81.22770947309562 l -1.8774102395651016 -3.7441813155883574 a25.18850366260134,25.18850366260134 0 0,0 0.38925681807272655,-0.19100663010448607 l 1.8126821544819491 3.775943105827673" fill="#ff3304" stroke="none" /><path d="M 90.91171255644093 81.06846463323043 l -0.5151426228520871 -1.0730779416936627 a22.190322725494408,22.190322725494408 0 0,0 0.3457693854321537,-0.16234336272167463 l 0.496595026120325 1.0817862870553447" fill="#ff0901" stroke="none" /><path d="M 91.23893434514133 80.91482961587045 l -2.8559070152109425 -6.221329017926524 a27.845519675585315,27.845519675585315 0 0,0 0.4373309671234905,-0.19621765705660027 l 2.748393929620678 6.269567005499653" fill="#ff5808" stroke="none" /><path d="M 91.56875222667455 80.76684994638697 l -1.866691383615213 -4.2582493659413965 a25.64943269487833,25.64943269487833 0 0,0 0.4058915756177321,-0.17378159006257307 l 1.7931160502071726 4.289750483966756" fill="#ff3a05" stroke="none" /><path d="M 91.90106846888425 80.62456947434976 l -1.5289612916215223 -3.6578014233613407 a24.964496674739582,24.964496674739582 0 0,0 0.397905701173456,-0.16231572632580868 l 1.4657717208596859 3.6835780358707266" fill="#ff3004" stroke="none" /><path d="M 92.23578459929587 80.48803036053334 l -1.5704891110670578 -3.946739531656266 a25.247727507587854,25.247727507587854 0 0,0 0.4051861531218032,-0.15720593246668257 l 1.5023197929455783 3.9731881680135004" fill="#ff3405" stroke="none" /><path d="M 92.57280143429618 80.3572730644239 l -1.4315926074779735 -3.786135838824782 a25.047750237331723,25.047750237331723 0 0,0 0.40460188476843995,-0.1490182887359828 l 1.366208396936964 3.8102173953670873" fill="#ff3104" stroke="none" /><path d="M 93.25333710446033 80.11325718540243 l -1.5310074886680496 -4.512861046383875 a25.765490400192473,25.765490400192473 0 0,0 0.42122549751116073,-0.13887142385867846 l 1.4530991689144794 4.538546194501788" fill="#ff3c05" stroke="none" /><path d="M 93.94186890950719 79.89281104454417 l -0.37513492486433253 -1.2450884118165009 a22.300373548290146,22.300373548290146 0 0,0 0.36849751284183513,-0.10757452886566846 l 0.35364719429907604 1.2513612696008682" fill="#ff0a01" stroke="none" /><path d="M 94.28887869178378 79.79150937346287 l -0.7527982307089423 -2.663735397647662 a23.76806637291082,23.76806637291082 0 0,0 0.3946654720621269,-0.10787698208915825 l 0.7068348694230929 2.676298920563116" fill="#ff1f03" stroke="none" /><path d="M 94.63758080256005 79.69619591428918 l -1.5170111237846917 -5.7438807969121495 a26.940832379290182,26.940832379290182 0 0,0 0.4493873387567957,-0.11455883867559476 l 1.4179148963428967 5.7691426317566075" fill="#ff4c07" stroke="none" /><path d="M 96.40284397218896 79.31037775812273 l -0.779450477663773 -4.483134958404262 a25.550389225373657,25.550389225373657 0 0,0 0.4339560765940231,-0.07160647091715851 l 0.7021651949308642 4.495887692261047" fill="#ff3905" stroke="none" /><path d="M 97.11714578562143 79.19881850522333 l -0.6447299906976729 -4.652037374882966 a25.696501729821147,25.696501729821147 0 0,0 0.4386579713815827,-0.056950394253406575 l 0.5645572908082325 4.6624460923005095" fill="#ff3b05" stroke="none" /><path d="M 98.91598698831166 79.02799685794201 l -0.2405694446995322 -4.654209032291835 a25.660422231299428,25.660422231299428 0 0,0 0.44130936826640876,-0.019003709716469565 l 0.16041924404379934 4.657660468532497" fill="#ff3a05" stroke="none" /><path d="M 99.27714615592234 79.0124445844662 l -0.1267084483701042 -3.678891111351904 a24.681072512199727,24.681072512199727 0 0,0 0.424718200987276,-0.01096921809075495 l 0.06336361218794921 3.6805271215850186" fill="#ff2c04" stroke="none" /></svg>