<?xml version="1.0" encoding="utf-8" ?>
<svg baseProfile="full" height="300mm" version="1.1" viewBox="0,0,200,300" width="200mm" xmlns="http://www.w3.org/2000/svg" xmlns:ev="http://www.w3.org/2001/xml-events" xmlns:xlink="http://www.w3.org/1999/xlink"><defs /><rect fill="#222222" height="300" width="200" x="0" y="0" /><text fill="#555555" style="font-size:6px; font-family:Arial;" x="11" y="19">Running for 4839 Days</text><text fill="#555555" style="font-size:6px; font-family:Arial;" x="11" y="39">Races</text><text fill="#555555" style="font-size:8px; font-family:Arial;" x="11" y="59">1</text><text fill="#FFFFFF" style="font-size:10px; font-family:Arial; font-weight:bold;" x="23" y="59">Full</text><text fill="#555555" style="font-size:6px; font-family:Arial;" x="49" y="59">1x</text><text fill="#555555" style="font-size:8px; font-family:Arial;" x="11" y="77">2</text><text fill="#FFFFFF" style="font-size:10px; font-family:Arial; font-weight:bold;" x="23" y="77">Half</text><text fill="#555555" style="font-size:6px; font-family:Arial;" x="49" y="77">2x</text><text fill="#555555" style="font-size:8px; font-family:Arial;" x="11" y="95">3</text><text fill="#FFFFFF" style="font-size:10px; font-family:Arial; font-weight:bold;" x="23" y="95">10K</text><text fill="#555555" style="font-size:6px; font-family:Arial;" x="49" y="95">30x</text><text fill="#555555" style="font-size:6px; font-family:Arial;" x="11" y="133">Stats</text><text fill="#555555" style="font-size:5px; font-family:Arial;" x="11" y="139">Distance</text><text fill="#FFFFFF" style="font-size:10px; font-family:Arial; font-weight:bold;" x="11" y="150">1336</text><text fill="#555555" style="font-size:6px; font-family:Arial;" x="35" y="150">km</text><text fill="#555555" style="font-size:5px; font-family:Arial;" x="53" y="139">Runs</text><text fill="#FFFFFF" style="font-size:10px; font-family:Arial; font-weight:bold;" x="53" y="150">262</text><text fill="#555555" style="font-size:5px; font-family:Arial;" x="11" y="167">Avg Pace</text><text fill="#FFFFFF" style="font-size:10px; font-family:Arial; font-weight:bold;" x="11" y="178">5'20"</text><text fill="#555555" style="font-size:5px; font-family:Arial;" x="53" y="167">Streak</text><text fill="#FFFFFF" style="font-size:10px; font-family:Arial; font-weight:bold;" x="53" y="178">95</text><text fill="#555555" style="font-size:6px; font-family:Arial;" x="65" y="178">d</text><text fill="#555555" style="font-size:5px; font-family:Arial;" x="11" y="195">Time</text><text fill="#FFFFFF" style="font-size:10px; font-family:Arial; font-weight:bold;" x="11" y="206">118</text><text fill="#555555" style="font-size:6px; font-family:Arial;" x="29" y="206">h</text><text fill="#555555" style="font-size:5px; font-family:Arial;" x="53" y="195">Longest</text><text fill="#FFFFFF" style="font-size:10px; font-family:Arial; font-weight:bold;" x="53" y="206">43.5</text><text fill="#555555" style="font-size:5px; font-family:Arial;" x="11" y="252.0645161290322">Runner</text><text fill="#FFFFFF" style="font-size:8px; font-family:Arial; font-weight:bold;" x="11" y="262.0645161290322">yihong0618</text><text fill="#555555" style="font-size:7px; font-family:Arial;" x="11" y="285.5806451612903">running_page/2019</text><circle cx="85.41666666666667" cy="17.419354838709676" fill="#546166" r="3.3125"><title>2019-01-01: 1 km</title></circle><circle cx="85.41666666666667" cy="26.25806451612903" fill="#546166" r="3.3125"><title>2019-01-02: 1 km</title></circle><circle cx="85.41666666666667" cy="35.096774193548384" fill="#536e77" r="3.3125"><title>2019-01-03: 2 km</title></circle><circle cx="85.41666666666667" cy="43.935483870967744" fill="#555555" r="3.3125"><title>2019-01-04</title></circle><circle cx="85.41666666666667" cy="52.774193548387096" fill="#546166" r="3.3125"><title>2019-01-05: 1 km</title></circle><circle cx="85.41666666666667" cy="61.61290322580645" fill="#53747f" r="3.3125"><title>2019-01-06: 2 km</title></circle><circle cx="85.41666666666667" cy="70.45161290322581" fill="#536a71" r="3.3125"><title>2019-01-07: 1 km</title></circle><circle cx="85.41666666666667" cy="79.29032258064517" fill="#546166" r="3.3125"><title>2019-01-08: 1 km</title></circle><circle cx="85.41666666666667" cy="88.12903225806451" fill="#536e77" r="3.3125"><title>2019-01-09: 2 km</title></circle><circle cx="85.41666666666667" cy="96.96774193548387" fill="#546166" r="3.3125"><title>2019-01-10: 1 km</title></circle><circle cx="85.41666666666667" cy="105.80645161290322" fill="#555555" r="3.3125"><title>2019-01-11</title></circle><circle cx="85.41666666666667" cy="114.64516129032258" fill="#546369" r="3.3125"><title>2019-01-12: 1 km</title></circle><circle cx="85.41666666666667" cy="123.48387096774194" fill="#555555" r="3.3125"><title>2019-01-13</title></circle><circle cx="85.41666666666667" cy="132.32258064516128" fill="#555555" r="3.3125"><title>2019-01-14</title></circle><circle cx="85.41666666666667" cy="141.16129032258064" fill="#555555" r="3.3125"><title>2019-01-15</title></circle><circle cx="85.41666666666667" cy="149.99999999999997" fill="#555555" r="3.3125"><title>2019-01-16</title></circle><circle cx="85.41666666666667" cy="158.83870967741933" fill="#555555" r="3.3125"><title>2019-01-17</title></circle><circle cx="85.41666666666667" cy="167.6774193548387" fill="#536a71" r="3.3125"><title>2019-01-18: 1 km</title></circle><circle cx="85.41666666666667" cy="176.51612903225805" fill="#555555" r="3.3125"><title>2019-01-19</title></circle><circle cx="85.41666666666667" cy="185.35483870967738" fill="#555555" r="3.3125"><title>2019-01-20</title></circle><circle cx="85.41666666666667" cy="194.19354838709674" fill="#555555" r="3.3125"><title>2019-01-21</title></circle><circle cx="85.41666666666667" cy="203.0322580645161" fill="#555555" r="3.3125"><title>2019-01-22</title></circle><circle cx="85.41666666666667" cy="211.87096774193546" fill="#555555" r="3.3125"><title>2019-01-23</title></circle><circle cx="85.41666666666667" cy="220.70967741935482" fill="#555555" r="3.3125"><title>2019-01-24</title></circle><circle cx="85.41666666666667" cy="229.54838709677418" fill="#555555" r="3.3125"><title>2019-01-25</title></circle><circle cx="85.41666666666667" cy="238.3870967741935" fill="#555555" r="3.3125"><title>2019-01-26</title></circle><circle cx="85.41666666666667" cy="247.22580645161287" fill="#555555" r="3.3125"><title>2019-01-27</title></circle><circle cx="85.41666666666667" cy="256.06451612903226" fill="#555555" r="3.3125"><title>2019-01-28</title></circle><circle cx="85.41666666666667" cy="264.90322580645164" fill="#555555" r="3.3125"><title>2019-01-29</title></circle><circle cx="85.41666666666667" cy="273.741935483871" fill="#555555" r="3.3125"><title>2019-01-30</title></circle><circle cx="85.41666666666667" cy="282.5806451612903" fill="#555555" r="3.3125"><title>2019-01-31</title></circle><circle cx="94.25" cy="17.419354838709676" fill="#555555" r="3.3125"><title>2019-02-01</title></circle><circle cx="94.25" cy="26.25806451612903" fill="#555555" r="3.3125"><title>2019-02-02</title></circle><circle cx="94.25" cy="35.096774193548384" fill="#555555" r="3.3125"><title>2019-02-03</title></circle><circle cx="94.25" cy="43.935483870967744" fill="#555555" r="3.3125"><title>2019-02-04</title></circle><circle cx="94.25" cy="52.774193548387096" fill="#555555" r="3.3125"><title>2019-02-05</title></circle><circle cx="94.25" cy="61.61290322580645" fill="#555555" r="3.3125"><title>2019-02-06</title></circle><circle cx="94.25" cy="70.45161290322581" fill="#555555" r="3.3125"><title>2019-02-07</title></circle><circle cx="94.25" cy="79.29032258064517" fill="#555555" r="3.3125"><title>2019-02-08</title></circle><circle cx="94.25" cy="88.12903225806451" fill="#555555" r="3.3125"><title>2019-02-09</title></circle><circle cx="94.25" cy="96.96774193548387" fill="#555555" r="3.3125"><title>2019-02-10</title></circle><circle cx="94.25" cy="105.80645161290322" fill="#555555" r="3.3125"><title>2019-02-11</title></circle><circle cx="94.25" cy="114.64516129032258" fill="#555555" r="3.3125"><title>2019-02-12</title></circle><circle cx="94.25" cy="123.48387096774194" fill="#555555" r="3.3125"><title>2019-02-13</title></circle><circle cx="94.25" cy="132.32258064516128" fill="#555555" r="3.3125"><title>2019-02-14</title></circle><circle cx="94.25" cy="141.16129032258064" fill="#555555" r="3.3125"><title>2019-02-15</title></circle><circle cx="94.25" cy="149.99999999999997" fill="#555555" r="3.3125"><title>2019-02-16</title></circle><circle cx="94.25" cy="158.83870967741933" fill="#555555" r="3.3125"><title>2019-02-17</title></circle><circle cx="94.25" cy="167.6774193548387" fill="#555555" r="3.3125"><title>2019-02-18</title></circle><circle cx="94.25" cy="176.51612903225805" fill="#555555" r="3.3125"><title>2019-02-19</title></circle><circle cx="94.25" cy="185.35483870967738" fill="#555555" r="3.3125"><title>2019-02-20</title></circle><circle cx="94.25" cy="194.19354838709674" fill="#555555" r="3.3125"><title>2019-02-21</title></circle><circle cx="94.25" cy="203.0322580645161" fill="#555555" r="3.3125"><title>2019-02-22</title></circle><circle cx="94.25" cy="211.87096774193546" fill="#555555" r="3.3125"><title>2019-02-23</title></circle><circle cx="94.25" cy="220.70967741935482" fill="#555555" r="3.3125"><title>2019-02-24</title></circle><circle cx="94.25" cy="229.54838709677418" fill="#555555" r="3.3125"><title>2019-02-25</title></circle><circle cx="94.25" cy="238.3870967741935" fill="#546166" r="3.3125"><title>2019-02-26: 1 km</title></circle><circle cx="94.25" cy="247.22580645161287" fill="#546166" r="3.3125"><title>2019-02-27: 1 km</title></circle><circle cx="94.25" cy="256.06451612903226" fill="#546166" r="3.3125"><title>2019-02-28: 1 km</title></circle><circle cx="103.08333333333334" cy="17.419354838709676" fill="#555555" r="3.3125"><title>2019-03-01</title></circle><circle cx="103.08333333333334" cy="26.25806451612903" fill="#555555" r="3.3125"><title>2019-03-02</title></circle><circle cx="103.08333333333334" cy="35.096774193548384" fill="#555555" r="3.3125"><title>2019-03-03</title></circle><circle cx="103.08333333333334" cy="43.935483870967744" fill="#555555" r="3.3125"><title>2019-03-04</title></circle><circle cx="103.08333333333334" cy="52.774193548387096" fill="#555555" r="3.3125"><title>2019-03-05</title></circle><circle cx="103.08333333333334" cy="61.61290322580645" fill="#555555" r="3.3125"><title>2019-03-06</title></circle><circle cx="103.08333333333334" cy="70.45161290322581" fill="#555555" r="3.3125"><title>2019-03-07</title></circle><circle cx="103.08333333333334" cy="79.29032258064517" fill="#555555" r="3.3125"><title>2019-03-08</title></circle><circle cx="103.08333333333334" cy="88.12903225806451" fill="#555555" r="3.3125"><title>2019-03-09</title></circle><circle cx="103.08333333333334" cy="96.96774193548387" fill="#555555" r="3.3125"><title>2019-03-10</title></circle><circle cx="103.08333333333334" cy="105.80645161290322" fill="#555555" r="3.3125"><title>2019-03-11</title></circle><circle cx="103.08333333333334" cy="114.64516129032258" fill="#555555" r="3.3125"><title>2019-03-12</title></circle><circle cx="103.08333333333334" cy="123.48387096774194" fill="#555555" r="3.3125"><title>2019-03-13</title></circle><circle cx="103.08333333333334" cy="132.32258064516128" fill="#555555" r="3.3125"><title>2019-03-14</title></circle><circle cx="103.08333333333334" cy="141.16129032258064" fill="#555555" r="3.3125"><title>2019-03-15</title></circle><circle cx="103.08333333333334" cy="149.99999999999997" fill="#555555" r="3.3125"><title>2019-03-16</title></circle><circle cx="103.08333333333334" cy="158.83870967741933" fill="#555555" r="3.3125"><title>2019-03-17</title></circle><circle cx="103.08333333333334" cy="167.6774193548387" fill="#555555" r="3.3125"><title>2019-03-18</title></circle><circle cx="103.08333333333334" cy="176.51612903225805" fill="#555555" r="3.3125"><title>2019-03-19</title></circle><circle cx="103.08333333333334" cy="185.35483870967738" fill="#555555" r="3.3125"><title>2019-03-20</title></circle><circle cx="103.08333333333334" cy="194.19354838709674" fill="#546166" r="3.3125"><title>2019-03-21: 1 km</title></circle><circle cx="103.08333333333334" cy="203.0322580645161" fill="#555555" r="3.3125"><title>2019-03-22</title></circle><circle cx="103.08333333333334" cy="211.87096774193546" fill="#555555" r="3.3125"><title>2019-03-23</title></circle><circle cx="103.08333333333334" cy="220.70967741935482" fill="#555555" r="3.3125"><title>2019-03-24</title></circle><circle cx="103.08333333333334" cy="229.54838709677418" fill="#555555" r="3.3125"><title>2019-03-25</title></circle><circle cx="103.08333333333334" cy="238.3870967741935" fill="#555555" r="3.3125"><title>2019-03-26</title></circle><circle cx="103.08333333333334" cy="247.22580645161287" fill="#555555" r="3.3125"><title>2019-03-27</title></circle><circle cx="103.08333333333334" cy="256.06451612903226" fill="#555555" r="3.3125"><title>2019-03-28</title></circle><circle cx="103.08333333333334" cy="264.90322580645164" fill="#555555" r="3.3125"><title>2019-03-29</title></circle><circle cx="103.08333333333334" cy="273.741935483871" fill="#555555" r="3.3125"><title>2019-03-30</title></circle><circle cx="103.08333333333334" cy="282.5806451612903" fill="#555555" r="3.3125"><title>2019-03-31</title></circle><circle cx="111.91666666666667" cy="17.419354838709676" fill="#555555" r="3.3125"><title>2019-04-01</title></circle><circle cx="111.91666666666667" cy="26.25806451612903" fill="#555555" r="3.3125"><title>2019-04-02</title></circle><circle cx="111.91666666666667" cy="35.096774193548384" fill="#555555" r="3.3125"><title>2019-04-03</title></circle><circle cx="111.91666666666667" cy="43.935483870967744" fill="#555555" r="3.3125"><title>2019-04-04</title></circle><circle cx="111.91666666666667" cy="52.774193548387096" fill="#555555" r="3.3125"><title>2019-04-05</title></circle><circle cx="111.91666666666667" cy="61.61290322580645" fill="#555555" r="3.3125"><title>2019-04-06</title></circle><circle cx="111.91666666666667" cy="70.45161290322581" fill="#555555" r="3.3125"><title>2019-04-07</title></circle><circle cx="111.91666666666667" cy="79.29032258064517" fill="#555555" r="3.3125"><title>2019-04-08</title></circle><circle cx="111.91666666666667" cy="88.12903225806451" fill="#555555" r="3.3125"><title>2019-04-09</title></circle><circle cx="111.91666666666667" cy="96.96774193548387" fill="#555555" r="3.3125"><title>2019-04-10</title></circle><circle cx="111.91666666666667" cy="105.80645161290322" fill="#555555" r="3.3125"><title>2019-04-11</title></circle><circle cx="111.91666666666667" cy="114.64516129032258" fill="#555555" r="3.3125"><title>2019-04-12</title></circle><circle cx="111.91666666666667" cy="123.48387096774194" fill="#555555" r="3.3125"><title>2019-04-13</title></circle><circle cx="111.91666666666667" cy="132.32258064516128" fill="#555555" r="3.3125"><title>2019-04-14</title></circle><circle cx="111.91666666666667" cy="141.16129032258064" fill="#555555" r="3.3125"><title>2019-04-15</title></circle><circle cx="111.91666666666667" cy="149.99999999999997" fill="#555555" r="3.3125"><title>2019-04-16</title></circle><circle cx="111.91666666666667" cy="158.83870967741933" fill="#555555" r="3.3125"><title>2019-04-17</title></circle><circle cx="111.91666666666667" cy="167.6774193548387" fill="#555555" r="3.3125"><title>2019-04-18</title></circle><circle cx="111.91666666666667" cy="176.51612903225805" fill="#555555" r="3.3125"><title>2019-04-19</title></circle><circle cx="111.91666666666667" cy="185.35483870967738" fill="#555555" r="3.3125"><title>2019-04-20</title></circle><circle cx="111.91666666666667" cy="194.19354838709674" fill="#555555" r="3.3125"><title>2019-04-21</title></circle><circle cx="111.91666666666667" cy="203.0322580645161" fill="#555555" r="3.3125"><title>2019-04-22</title></circle><circle cx="111.91666666666667" cy="211.87096774193546" fill="#555555" r="3.3125"><title>2019-04-23</title></circle><circle cx="111.91666666666667" cy="220.70967741935482" fill="#555555" r="3.3125"><title>2019-04-24</title></circle><circle cx="111.91666666666667" cy="229.54838709677418" fill="#555555" r="3.3125"><title>2019-04-25</title></circle><circle cx="111.91666666666667" cy="238.3870967741935" fill="#555555" r="3.3125"><title>2019-04-26</title></circle><circle cx="111.91666666666667" cy="247.22580645161287" fill="#555555" r="3.3125"><title>2019-04-27</title></circle><circle cx="111.91666666666667" cy="256.06451612903226" fill="#555555" r="3.3125"><title>2019-04-28</title></circle><circle cx="111.91666666666667" cy="264.90322580645164" fill="#555555" r="3.3125"><title>2019-04-29</title></circle><circle cx="111.91666666666667" cy="273.741935483871" fill="#555555" r="3.3125"><title>2019-04-30</title></circle><circle cx="120.75000000000001" cy="17.419354838709676" fill="#555555" r="3.3125"><title>2019-05-01</title></circle><circle cx="120.75000000000001" cy="26.25806451612903" fill="#555555" r="3.3125"><title>2019-05-02</title></circle><circle cx="120.75000000000001" cy="35.096774193548384" fill="#555555" r="3.3125"><title>2019-05-03</title></circle><circle cx="120.75000000000001" cy="43.935483870967744" fill="#555555" r="3.3125"><title>2019-05-04</title></circle><circle cx="120.75000000000001" cy="52.774193548387096" fill="#555555" r="3.3125"><title>2019-05-05</title></circle><circle cx="120.75000000000001" cy="61.61290322580645" fill="#546166" r="3.3125"><title>2019-05-06: 1 km</title></circle><circle cx="120.75000000000001" cy="70.45161290322581" fill="#53686f" r="3.3125"><title>2019-05-07: 1 km</title></circle><circle cx="120.75000000000001" cy="79.29032258064517" fill="#536e77" r="3.3125"><title>2019-05-08: 2 km</title></circle><circle cx="120.75000000000001" cy="88.12903225806451" fill="#536e77" r="3.3125"><title>2019-05-09: 2 km</title></circle><circle cx="120.75000000000001" cy="96.96774193548387" fill="#53707a" r="3.3125"><title>2019-05-10: 2 km</title></circle><circle cx="120.75000000000001" cy="105.80645161290322" fill="#527a88" r="3.3125"><title>2019-05-11: 3 km</title></circle><circle cx="120.75000000000001" cy="114.64516129032258" fill="#536e77" r="3.3125"><title>2019-05-12: 2 km</title></circle><circle cx="120.75000000000001" cy="123.48387096774194" fill="#527a88" r="3.3125"><title>2019-05-13: 3 km</title></circle><circle cx="120.75000000000001" cy="132.32258064516128" fill="#528090" r="3.3125"><title>2019-05-14: 3 km</title></circle><circle cx="120.75000000000001" cy="141.16129032258064" fill="#51899c" r="3.3125"><title>2019-05-15: 4 km</title></circle><circle cx="120.75000000000001" cy="149.99999999999997" fill="#527a88" r="3.3125"><title>2019-05-16: 3 km</title></circle><circle cx="120.75000000000001" cy="158.83870967741933" fill="#5093aa" r="3.3125"><title>2019-05-17: 5 km</title></circle><circle cx="120.75000000000001" cy="167.6774193548387" fill="#5096ae" r="3.3125"><title>2019-05-18: 5 km</title></circle><circle cx="120.75000000000001" cy="176.51612903225805" fill="#528191" r="3.3125"><title>2019-05-19: 3 km</title></circle><circle cx="120.75000000000001" cy="185.35483870967738" fill="#51899c" r="3.3125"><title>2019-05-20: 4 km</title></circle><circle cx="120.75000000000001" cy="194.19354838709674" fill="#527a88" r="3.3125"><title>2019-05-21: 3 km</title></circle><circle cx="120.75000000000001" cy="203.0322580645161" fill="#51899c" r="3.3125"><title>2019-05-22: 4 km</title></circle><circle cx="120.75000000000001" cy="211.87096774193546" fill="#50a0bb" r="3.3125"><title>2019-05-23: 6 km</title></circle><circle cx="120.75000000000001" cy="220.70967741935482" fill="#546166" r="3.3125"><title>2019-05-24: 1 km</title></circle><circle cx="120.75000000000001" cy="229.54838709677418" fill="#50a0bb" r="3.3125"><title>2019-05-25: 6 km</title></circle><circle cx="120.75000000000001" cy="238.3870967741935" fill="#527682" r="3.3125"><title>2019-05-26: 2 km</title></circle><circle cx="120.75000000000001" cy="247.22580645161287" fill="#518799" r="3.3125"><title>2019-05-27: 4 km</title></circle><circle cx="120.75000000000001" cy="256.06451612903226" fill="#518799" r="3.3125"><title>2019-05-28: 4 km</title></circle><circle cx="120.75000000000001" cy="264.90322580645164" fill="#518799" r="3.3125"><title>2019-05-29: 4 km</title></circle><circle cx="120.75000000000001" cy="273.741935483871" fill="#4faccc" r="3.3125"><title>2019-05-30: 7 km</title></circle><circle cx="120.75000000000001" cy="282.5806451612903" fill="#51899b" r="3.3125"><title>2019-05-31: 4 km</title></circle><circle cx="129.58333333333334" cy="17.419354838709676" fill="#527a88" r="3.3125"><title>2019-06-01: 3 km</title></circle><circle cx="129.58333333333334" cy="26.25806451612903" fill="#4eb9dd" r="3.3125"><title>2019-06-02: 8 km</title></circle><circle cx="129.58333333333334" cy="35.096774193548384" fill="#518799" r="3.3125"><title>2019-06-03: 4 km</title></circle><circle cx="129.58333333333334" cy="43.935483870967744" fill="#518799" r="3.3125"><title>2019-06-04: 4 km</title></circle><circle cx="129.58333333333334" cy="52.774193548387096" fill="#527a88" r="3.3125"><title>2019-06-05: 3 km</title></circle><circle cx="129.58333333333334" cy="61.61290322580645" fill="#4eb9dd" r="3.3125"><title>2019-06-06: 8 km</title></circle><circle cx="129.58333333333334" cy="70.45161290322581" fill="#518799" r="3.3125"><title>2019-06-07: 4 km</title></circle><circle cx="129.58333333333334" cy="79.29032258064517" fill="#518799" r="3.3125"><title>2019-06-08: 4 km</title></circle><circle cx="129.58333333333334" cy="88.12903225806451" fill="#4ebee4" r="3.3125"><title>2019-06-09: 8 km</title></circle><circle cx="129.58333333333334" cy="96.96774193548387" fill="#5093aa" r="3.3125"><title>2019-06-10: 5 km</title></circle><circle cx="129.58333333333334" cy="105.80645161290322" fill="#5093aa" r="3.3125"><title>2019-06-11: 5 km</title></circle><circle cx="129.58333333333334" cy="114.64516129032258" fill="#5093aa" r="3.3125"><title>2019-06-12: 5 km</title></circle><circle cx="129.58333333333334" cy="123.48387096774194" fill="#FFFF00" r="3.3125"><title>2019-06-13: 10 km</title></circle><circle cx="129.58333333333334" cy="132.32258064516128" fill="#5093aa" r="3.3125"><title>2019-06-14: 5 km</title></circle><circle cx="129.58333333333334" cy="141.16129032258064" fill="#FFFF00" r="3.3125"><title>2019-06-15: 10 km</title></circle><circle cx="129.58333333333334" cy="149.99999999999997" fill="#527a88" r="3.3125"><title>2019-06-16: 3 km</title></circle><circle cx="129.58333333333334" cy="158.83870967741933" fill="#5093aa" r="3.3125"><title>2019-06-17: 5 km</title></circle><circle cx="129.58333333333334" cy="167.6774193548387" fill="#5096ae" r="3.3125"><title>2019-06-18: 5 km</title></circle><circle cx="129.58333333333334" cy="176.51612903225805" fill="#5093aa" r="3.3125"><title>2019-06-19: 5 km</title></circle><circle cx="129.58333333333334" cy="185.35483870967738" fill="#FFFF00" r="3.3125"><title>2019-06-20: 12 km</title></circle><circle cx="129.58333333333334" cy="194.19354838709674" fill="#5093aa" r="3.3125"><title>2019-06-21: 5 km</title></circle><circle cx="129.58333333333334" cy="203.0322580645161" fill="#5093aa" r="3.3125"><title>2019-06-22: 5 km</title></circle><circle cx="129.58333333333334" cy="211.87096774193546" fill="#FFFF00" r="3.3125"><title>2019-06-23: 11 km</title></circle><circle cx="129.58333333333334" cy="220.70967741935482" fill="#5093aa" r="3.3125"><title>2019-06-24: 5 km</title></circle><circle cx="129.58333333333334" cy="229.54838709677418" fill="#5093aa" r="3.3125"><title>2019-06-25: 5 km</title></circle><circle cx="129.58333333333334" cy="238.3870967741935" fill="#518a9e" r="3.3125"><title>2019-06-26: 4 km</title></circle><circle cx="129.58333333333334" cy="247.22580645161287" fill="#FFFF00" r="3.3125"><title>2019-06-27: 12 km</title></circle><circle cx="129.58333333333334" cy="256.06451612903226" fill="#5093aa" r="3.3125"><title>2019-06-28: 5 km</title></circle><circle cx="129.58333333333334" cy="264.90322580645164" fill="#5093aa" r="3.3125"><title>2019-06-29: 5 km</title></circle><circle cx="129.58333333333334" cy="273.741935483871" fill="#FFFF00" r="3.3125"><title>2019-06-30: 10 km</title></circle><circle cx="138.41666666666666" cy="17.419354838709676" fill="#5093aa" r="3.3125"><title>2019-07-01: 5 km</title></circle><circle cx="138.41666666666666" cy="26.25806451612903" fill="#5093aa" r="3.3125"><title>2019-07-02: 5 km</title></circle><circle cx="138.41666666666666" cy="35.096774193548384" fill="#5093aa" r="3.3125"><title>2019-07-03: 5 km</title></circle><circle cx="138.41666666666666" cy="43.935483870967744" fill="#4eb9dd" r="3.3125"><title>2019-07-04: 8 km</title></circle><circle cx="138.41666666666666" cy="52.774193548387096" fill="#FFFF00" r="3.3125"><title>2019-07-05: 15 km</title></circle><circle cx="138.41666666666666" cy="61.61290322580645" fill="#FFFF00" r="3.3125"><title>2019-07-06: 11 km</title></circle><circle cx="138.41666666666666" cy="70.45161290322581" fill="#5093aa" r="3.3125"><title>2019-07-07: 5 km</title></circle><circle cx="138.41666666666666" cy="79.29032258064517" fill="#5093aa" r="3.3125"><title>2019-07-08: 5 km</title></circle><circle cx="138.41666666666666" cy="88.12903225806451" fill="#5093aa" r="3.3125"><title>2019-07-09: 5 km</title></circle><circle cx="138.41666666666666" cy="96.96774193548387" fill="#5093aa" r="3.3125"><title>2019-07-10: 5 km</title></circle><circle cx="138.41666666666666" cy="105.80645161290322" fill="#FFFF00" r="3.3125"><title>2019-07-11: 15 km</title></circle><circle cx="138.41666666666666" cy="114.64516129032258" fill="#5093aa" r="3.3125"><title>2019-07-12: 5 km</title></circle><circle cx="138.41666666666666" cy="123.48387096774194" fill="#5093aa" r="3.3125"><title>2019-07-13: 5 km</title></circle><circle cx="138.41666666666666" cy="132.32258064516128" fill="#FFFF00" r="3.3125"><title>2019-07-14: 14 km</title></circle><circle cx="138.41666666666666" cy="141.16129032258064" fill="#5093aa" r="3.3125"><title>2019-07-15: 5 km</title></circle><circle cx="138.41666666666666" cy="149.99999999999997" fill="#5093aa" r="3.3125"><title>2019-07-16: 5 km</title></circle><circle cx="138.41666666666666" cy="158.83870967741933" fill="#5093aa" r="3.3125"><title>2019-07-17: 5 km</title></circle><circle cx="138.41666666666666" cy="167.6774193548387" fill="#FFFF00" r="3.3125"><title>2019-07-18: 10 km</title></circle><circle cx="138.41666666666666" cy="176.51612903225805" fill="#5093aa" r="3.3125"><title>2019-07-19: 5 km</title></circle><circle cx="138.41666666666666" cy="185.35483870967738" fill="#FFFF00" r="3.3125"><title>2019-07-20: 10 km</title></circle><circle cx="138.41666666666666" cy="194.19354838709674" fill="#5093aa" r="3.3125"><title>2019-07-21: 5 km</title></circle><circle cx="138.41666666666666" cy="203.0322580645161" fill="#5093aa" r="3.3125"><title>2019-07-22: 5 km</title></circle><circle cx="138.41666666666666" cy="211.87096774193546" fill="#5093aa" r="3.3125"><title>2019-07-23: 5 km</title></circle><circle cx="138.41666666666666" cy="220.70967741935482" fill="#5093aa" r="3.3125"><title>2019-07-24: 5 km</title></circle><circle cx="138.41666666666666" cy="229.54838709677418" fill="#FFFF00" r="3.3125"><title>2019-07-25: 10 km</title></circle><circle cx="138.41666666666666" cy="238.3870967741935" fill="#5093aa" r="3.3125"><title>2019-07-26: 5 km</title></circle><circle cx="138.41666666666666" cy="247.22580645161287" fill="#4fa4c1" r="3.3125"><title>2019-07-27: 6 km</title></circle><circle cx="138.41666666666666" cy="256.06451612903226" fill="#FFFF00" r="3.3125"><title>2019-07-28: 10 km</title></circle><circle cx="138.41666666666666" cy="264.90322580645164" fill="#5093aa" r="3.3125"><title>2019-07-29: 5 km</title></circle><circle cx="138.41666666666666" cy="273.741935483871" fill="#5093aa" r="3.3125"><title>2019-07-30: 5 km</title></circle><circle cx="138.41666666666666" cy="282.5806451612903" fill="#5093aa" r="3.3125"><title>2019-07-31: 5 km</title></circle><circle cx="147.25" cy="17.419354838709676" fill="#FFFF00" r="3.3125"><title>2019-08-01: 10 km</title></circle><circle cx="147.25" cy="26.25806451612903" fill="#5093aa" r="3.3125"><title>2019-08-02: 5 km</title></circle><circle cx="147.25" cy="35.096774193548384" fill="#FFFF00" r="3.3125"><title>2019-08-03: 15 km</title></circle><circle cx="147.25" cy="43.935483870967744" fill="#4fa4c0" r="3.3125"><title>2019-08-04: 6 km</title></circle><circle cx="147.25" cy="52.774193548387096" fill="#5093aa" r="3.3125"><title>2019-08-05: 5 km</title></circle><circle cx="147.25" cy="61.61290322580645" fill="#4faecf" r="3.3125"><title>2019-08-06: 7 km</title></circle><circle cx="147.25" cy="70.45161290322581" fill="#50a0bb" r="3.3125"><title>2019-08-07: 6 km</title></circle><circle cx="147.25" cy="79.29032258064517" fill="#FFFF00" r="3.3125"><title>2019-08-08: 10 km</title></circle><circle cx="147.25" cy="88.12903225806451" fill="#555555" r="3.3125"><title>2019-08-09</title></circle><circle cx="147.25" cy="96.96774193548387" fill="#5093aa" r="3.3125"><title>2019-08-10: 5 km</title></circle><circle cx="147.25" cy="105.80645161290322" fill="#528190" r="3.3125"><title>2019-08-11: 3 km</title></circle><circle cx="147.25" cy="114.64516129032258" fill="#5095ad" r="3.3125"><title>2019-08-12: 5 km</title></circle><circle cx="147.25" cy="123.48387096774194" fill="#5093aa" r="3.3125"><title>2019-08-13: 5 km</title></circle><circle cx="147.25" cy="132.32258064516128" fill="#536e77" r="3.3125"><title>2019-08-14: 2 km</title></circle><circle cx="147.25" cy="141.16129032258064" fill="#4dc5ee" r="3.3125"><title>2019-08-15: 9 km</title></circle><circle cx="147.25" cy="149.99999999999997" fill="#555555" r="3.3125"><title>2019-08-16</title></circle><circle cx="147.25" cy="158.83870967741933" fill="#555555" r="3.3125"><title>2019-08-17</title></circle><circle cx="147.25" cy="167.6774193548387" fill="#FFFF00" r="3.3125"><title>2019-08-18: 10 km</title></circle><circle cx="147.25" cy="176.51612903225805" fill="#FFFF00" r="3.3125"><title>2019-08-19: 10 km</title></circle><circle cx="147.25" cy="185.35483870967738" fill="#5093aa" r="3.3125"><title>2019-08-20: 5 km</title></circle><circle cx="147.25" cy="194.19354838709674" fill="#4dcef9" r="3.3125"><title>2019-08-21: 9 km</title></circle><circle cx="147.25" cy="203.0322580645161" fill="#5094aa" r="3.3125"><title>2019-08-22: 5 km</title></circle><circle cx="147.25" cy="211.87096774193546" fill="#5093aa" r="3.3125"><title>2019-08-23: 5 km</title></circle><circle cx="147.25" cy="220.70967741935482" fill="#FFFF00" r="3.3125"><title>2019-08-24: 10 km</title></circle><circle cx="147.25" cy="229.54838709677418" fill="#5093aa" r="3.3125"><title>2019-08-25: 5 km</title></circle><circle cx="147.25" cy="238.3870967741935" fill="#546266" r="3.3125"><title>2019-08-26: 1 km</title></circle><circle cx="147.25" cy="247.22580645161287" fill="#5094aa" r="3.3125"><title>2019-08-27: 5 km</title></circle><circle cx="147.25" cy="256.06451612903226" fill="#4eb9dd" r="3.3125"><title>2019-08-28: 8 km</title></circle><circle cx="147.25" cy="264.90322580645164" fill="#5095ac" r="3.3125"><title>2019-08-29: 5 km</title></circle><circle cx="147.25" cy="273.741935483871" fill="#5093aa" r="3.3125"><title>2019-08-30: 5 km</title></circle><circle cx="147.25" cy="282.5806451612903" fill="#FFFF00" r="3.3125"><title>2019-08-31: 16 km</title></circle><circle cx="156.08333333333334" cy="17.419354838709676" fill="#5093aa" r="3.3125"><title>2019-09-01: 5 km</title></circle><circle cx="156.08333333333334" cy="26.25806451612903" fill="#5093aa" r="3.3125"><title>2019-09-02: 5 km</title></circle><circle cx="156.08333333333334" cy="35.096774193548384" fill="#5094ab" r="3.3125"><title>2019-09-03: 5 km</title></circle><circle cx="156.08333333333334" cy="43.935483870967744" fill="#555555" r="3.3125"><title>2019-09-04</title></circle><circle cx="156.08333333333334" cy="52.774193548387096" fill="#53747f" r="3.3125"><title>2019-09-05: 2 km</title></circle><circle cx="156.08333333333334" cy="61.61290322580645" fill="#5093aa" r="3.3125"><title>2019-09-06: 5 km</title></circle><circle cx="156.08333333333334" cy="70.45161290322581" fill="#FFFF00" r="3.3125"><title>2019-09-07: 12 km</title></circle><circle cx="156.08333333333334" cy="79.29032258064517" fill="#4fa9c7" r="3.3125"><title>2019-09-08: 6 km</title></circle><circle cx="156.08333333333334" cy="88.12903225806451" fill="#5099b2" r="3.3125"><title>2019-09-09: 5 km</title></circle><circle cx="156.08333333333334" cy="96.96774193548387" fill="#5093aa" r="3.3125"><title>2019-09-10: 5 km</title></circle><circle cx="156.08333333333334" cy="105.80645161290322" fill="#50a1bc" r="3.3125"><title>2019-09-11: 6 km</title></circle><circle cx="156.08333333333334" cy="114.64516129032258" fill="#5093aa" r="3.3125"><title>2019-09-12: 5 km</title></circle><circle cx="156.08333333333334" cy="123.48387096774194" fill="#FFFF00" r="3.3125"><title>2019-09-13: 12 km</title></circle><circle cx="156.08333333333334" cy="132.32258064516128" fill="#5093aa" r="3.3125"><title>2019-09-14: 5 km</title></circle><circle cx="156.08333333333334" cy="141.16129032258064" fill="#FFFF00" r="3.3125"><title>2019-09-15: 15 km</title></circle><circle cx="156.08333333333334" cy="149.99999999999997" fill="#5093aa" r="3.3125"><title>2019-09-16: 5 km</title></circle><circle cx="156.08333333333334" cy="158.83870967741933" fill="#518b9f" r="3.3125"><title>2019-09-17: 4 km</title></circle><circle cx="156.08333333333334" cy="167.6774193548387" fill="#5095ac" r="3.3125"><title>2019-09-18: 5 km</title></circle><circle cx="156.08333333333334" cy="176.51612903225805" fill="#50a0bb" r="3.3125"><title>2019-09-19: 6 km</title></circle><circle cx="156.08333333333334" cy="185.35483870967738" fill="#518a9d" r="3.3125"><title>2019-09-20: 4 km</title></circle><circle cx="156.08333333333334" cy="194.19354838709674" fill="#5095ac" r="3.3125"><title>2019-09-21: 5 km</title></circle><circle cx="156.08333333333334" cy="203.0322580645161" fill="#FFFF00" r="3.3125"><title>2019-09-22: 14 km</title></circle><circle cx="156.08333333333334" cy="211.87096774193546" fill="#518799" r="3.3125"><title>2019-09-23: 4 km</title></circle><circle cx="156.08333333333334" cy="220.70967741935482" fill="#4eb9dd" r="3.3125"><title>2019-09-24: 8 km</title></circle><circle cx="156.08333333333334" cy="229.54838709677418" fill="#5094aa" r="3.3125"><title>2019-09-25: 5 km</title></circle><circle cx="156.08333333333334" cy="238.3870967741935" fill="#4eb9dd" r="3.3125"><title>2019-09-26: 8 km</title></circle><circle cx="156.08333333333334" cy="247.22580645161287" fill="#527a88" r="3.3125"><title>2019-09-27: 3 km</title></circle><circle cx="156.08333333333334" cy="256.06451612903226" fill="#FFFF00" r="3.3125"><title>2019-09-28: 20 km</title></circle><circle cx="156.08333333333334" cy="264.90322580645164" fill="#527b89" r="3.3125"><title>2019-09-29: 3 km</title></circle><circle cx="156.08333333333334" cy="273.741935483871" fill="#4dc6ef" r="3.3125"><title>2019-09-30: 9 km</title></circle><circle cx="164.91666666666666" cy="17.419354838709676" fill="#5093aa" r="3.3125"><title>2019-10-01: 5 km</title></circle><circle cx="164.91666666666666" cy="26.25806451612903" fill="#536e77" r="3.3125"><title>2019-10-02: 2 km</title></circle><circle cx="164.91666666666666" cy="35.096774193548384" fill="#FFFF00" r="3.3125"><title>2019-10-03: 10 km</title></circle><circle cx="164.91666666666666" cy="43.935483870967744" fill="#50a0bb" r="3.3125"><title>2019-10-04: 6 km</title></circle><circle cx="164.91666666666666" cy="52.774193548387096" fill="#536e77" r="3.3125"><title>2019-10-05: 2 km</title></circle><circle cx="164.91666666666666" cy="61.61290322580645" fill="#FFFF00" r="3.3125"><title>2019-10-06: 18 km</title></circle><circle cx="164.91666666666666" cy="70.45161290322581" fill="#546166" r="3.3125"><title>2019-10-07: 1 km</title></circle><circle cx="164.91666666666666" cy="79.29032258064517" fill="#527a88" r="3.3125"><title>2019-10-08: 3 km</title></circle><circle cx="164.91666666666666" cy="88.12903225806451" fill="#5095ac" r="3.3125"><title>2019-10-09: 5 km</title></circle><circle cx="164.91666666666666" cy="96.96774193548387" fill="#536e77" r="3.3125"><title>2019-10-10: 2 km</title></circle><circle cx="164.91666666666666" cy="105.80645161290322" fill="#5093aa" r="3.3125"><title>2019-10-11: 5 km</title></circle><circle cx="164.91666666666666" cy="114.64516129032258" fill="#536e77" r="3.3125"><title>2019-10-12: 2 km</title></circle><circle cx="164.91666666666666" cy="123.48387096774194" fill="#FFFF00" r="3.3125"><title>2019-10-13: 21 km</title></circle><circle cx="164.91666666666666" cy="132.32258064516128" fill="#546166" r="3.3125"><title>2019-10-14: 1 km</title></circle><circle cx="164.91666666666666" cy="141.16129032258064" fill="#5093aa" r="3.3125"><title>2019-10-15: 5 km</title></circle><circle cx="164.91666666666666" cy="149.99999999999997" fill="#4eb9dd" r="3.3125"><title>2019-10-16: 8 km</title></circle><circle cx="164.91666666666666" cy="158.83870967741933" fill="#527c8a" r="3.3125"><title>2019-10-17: 3 km</title></circle><circle cx="164.91666666666666" cy="167.6774193548387" fill="#5093aa" r="3.3125"><title>2019-10-18: 5 km</title></circle><circle cx="164.91666666666666" cy="176.51612903225805" fill="#FFFF00" r="3.3125"><title>2019-10-19: 24 km</title></circle><circle cx="164.91666666666666" cy="185.35483870967738" fill="#536e77" r="3.3125"><title>2019-10-20: 2 km</title></circle><circle cx="164.91666666666666" cy="194.19354838709674" fill="#5094ab" r="3.3125"><title>2019-10-21: 5 km</title></circle><circle cx="164.91666666666666" cy="203.0322580645161" fill="#527e8d" r="3.3125"><title>2019-10-22: 3 km</title></circle><circle cx="164.91666666666666" cy="211.87096774193546" fill="#50a0bb" r="3.3125"><title>2019-10-23: 6 km</title></circle><circle cx="164.91666666666666" cy="220.70967741935482" fill="#527c8a" r="3.3125"><title>2019-10-24: 3 km</title></circle><circle cx="164.91666666666666" cy="229.54838709677418" fill="#51899c" r="3.3125"><title>2019-10-25: 4 km</title></circle><circle cx="164.91666666666666" cy="238.3870967741935" fill="#FFFF00" r="3.3125"><title>2019-10-26: 20 km</title></circle><circle cx="164.91666666666666" cy="247.22580645161287" fill="#527a88" r="3.3125"><title>2019-10-27: 3 km</title></circle><circle cx="164.91666666666666" cy="256.06451612903226" fill="#536e77" r="3.3125"><title>2019-10-28: 2 km</title></circle><circle cx="164.91666666666666" cy="264.90322580645164" fill="#5093aa" r="3.3125"><title>2019-10-29: 5 km</title></circle><circle cx="164.91666666666666" cy="273.741935483871" fill="#536e77" r="3.3125"><title>2019-10-30: 2 km</title></circle><circle cx="164.91666666666666" cy="282.5806451612903" fill="#527a88" r="3.3125"><title>2019-10-31: 3 km</title></circle><circle cx="173.75" cy="17.419354838709676" fill="#51889b" r="3.3125"><title>2019-11-01: 4 km</title></circle><circle cx="173.75" cy="26.25806451612903" fill="#546166" r="3.3125"><title>2019-11-02: 1 km</title></circle><circle cx="173.75" cy="35.096774193548384" fill="#FFFF00" r="3.3125"><title>2019-11-03: 43 km</title></circle><circle cx="173.75" cy="43.935483870967744" fill="#5093aa" r="3.3125"><title>2019-11-04: 5 km</title></circle><circle cx="173.75" cy="52.774193548387096" fill="#53656b" r="3.3125"><title>2019-11-05: 1 km</title></circle><circle cx="173.75" cy="61.61290322580645" fill="#5093aa" r="3.3125"><title>2019-11-06: 5 km</title></circle><circle cx="173.75" cy="70.45161290322581" fill="#53727c" r="3.3125"><title>2019-11-07: 2 km</title></circle><circle cx="173.75" cy="79.29032258064517" fill="#527a88" r="3.3125"><title>2019-11-08: 3 km</title></circle><circle cx="173.75" cy="88.12903225806451" fill="#54646a" r="3.3125"><title>2019-11-09: 1 km</title></circle><circle cx="173.75" cy="96.96774193548387" fill="#518da1" r="3.3125"><title>2019-11-10: 4 km</title></circle><circle cx="173.75" cy="105.80645161290322" fill="#5093aa" r="3.3125"><title>2019-11-11: 5 km</title></circle><circle cx="173.75" cy="114.64516129032258" fill="#FFFF00" r="3.3125"><title>2019-11-12: 10 km</title></circle><circle cx="173.75" cy="123.48387096774194" fill="#546267" r="3.3125"><title>2019-11-13: 1 km</title></circle><circle cx="173.75" cy="132.32258064516128" fill="#536e78" r="3.3125"><title>2019-11-14: 2 km</title></circle><circle cx="173.75" cy="141.16129032258064" fill="#518da1" r="3.3125"><title>2019-11-15: 4 km</title></circle><circle cx="173.75" cy="149.99999999999997" fill="#5093aa" r="3.3125"><title>2019-11-16: 5 km</title></circle><circle cx="173.75" cy="158.83870967741933" fill="#555555" r="3.3125"><title>2019-11-17</title></circle><circle cx="173.75" cy="167.6774193548387" fill="#546166" r="3.3125"><title>2019-11-18: 1 km</title></circle><circle cx="173.75" cy="176.51612903225805" fill="#5093aa" r="3.3125"><title>2019-11-19: 5 km</title></circle><circle cx="173.75" cy="185.35483870967738" fill="#518da1" r="3.3125"><title>2019-11-20: 4 km</title></circle><circle cx="173.75" cy="194.19354838709674" fill="#536e77" r="3.3125"><title>2019-11-21: 2 km</title></circle><circle cx="173.75" cy="203.0322580645161" fill="#5093aa" r="3.3125"><title>2019-11-22: 5 km</title></circle><circle cx="173.75" cy="211.87096774193546" fill="#51889a" r="3.3125"><title>2019-11-23: 4 km</title></circle><circle cx="173.75" cy="220.70967741935482" fill="#4fa3c0" r="3.3125"><title>2019-11-24: 6 km</title></circle><circle cx="173.75" cy="229.54838709677418" fill="#518799" r="3.3125"><title>2019-11-25: 4 km</title></circle><circle cx="173.75" cy="238.3870967741935" fill="#555555" r="3.3125"><title>2019-11-26</title></circle><circle cx="173.75" cy="247.22580645161287" fill="#518799" r="3.3125"><title>2019-11-27: 4 km</title></circle><circle cx="173.75" cy="256.06451612903226" fill="#53737e" r="3.3125"><title>2019-11-28: 2 km</title></circle><circle cx="173.75" cy="264.90322580645164" fill="#536e77" r="3.3125"><title>2019-11-29: 2 km</title></circle><circle cx="173.75" cy="273.741935483871" fill="#5093aa" r="3.3125"><title>2019-11-30: 5 km</title></circle><circle cx="182.58333333333334" cy="17.419354838709676" fill="#FFFF00" r="3.3125"><title>2019-12-01: 11 km</title></circle><circle cx="182.58333333333334" cy="26.25806451612903" fill="#518799" r="3.3125"><title>2019-12-02: 4 km</title></circle><circle cx="182.58333333333334" cy="35.096774193548384" fill="#5093aa" r="3.3125"><title>2019-12-03: 5 km</title></circle><circle cx="182.58333333333334" cy="43.935483870967744" fill="#53747f" r="3.3125"><title>2019-12-04: 2 km</title></circle><circle cx="182.58333333333334" cy="52.774193548387096" fill="#527a88" r="3.3125"><title>2019-12-05: 3 km</title></circle><circle cx="182.58333333333334" cy="61.61290322580645" fill="#52808f" r="3.3125"><title>2019-12-06: 3 km</title></circle><circle cx="182.58333333333334" cy="70.45161290322581" fill="#527c8a" r="3.3125"><title>2019-12-07: 3 km</title></circle><circle cx="182.58333333333334" cy="79.29032258064517" fill="#5093aa" r="3.3125"><title>2019-12-08: 5 km</title></circle><circle cx="182.58333333333334" cy="88.12903225806451" fill="#536e77" r="3.3125"><title>2019-12-09: 2 km</title></circle><circle cx="182.58333333333334" cy="96.96774193548387" fill="#527a88" r="3.3125"><title>2019-12-10: 3 km</title></circle><circle cx="182.58333333333334" cy="105.80645161290322" fill="#518799" r="3.3125"><title>2019-12-11: 4 km</title></circle><circle cx="182.58333333333334" cy="114.64516129032258" fill="#53737e" r="3.3125"><title>2019-12-12: 2 km</title></circle><circle cx="182.58333333333334" cy="123.48387096774194" fill="#555555" r="3.3125"><title>2019-12-13</title></circle><circle cx="182.58333333333334" cy="132.32258064516128" fill="#5096ae" r="3.3125"><title>2019-12-14: 5 km</title></circle><circle cx="182.58333333333334" cy="141.16129032258064" fill="#555555" r="3.3125"><title>2019-12-15</title></circle><circle cx="182.58333333333334" cy="149.99999999999997" fill="#536971" r="3.3125"><title>2019-12-16: 1 km</title></circle><circle cx="182.58333333333334" cy="158.83870967741933" fill="#555555" r="3.3125"><title>2019-12-17</title></circle><circle cx="182.58333333333334" cy="167.6774193548387" fill="#527a88" r="3.3125"><title>2019-12-18: 3 km</title></circle><circle cx="182.58333333333334" cy="176.51612903225805" fill="#518799" r="3.3125"><title>2019-12-19: 4 km</title></circle><circle cx="182.58333333333334" cy="185.35483870967738" fill="#555555" r="3.3125"><title>2019-12-20</title></circle><circle cx="182.58333333333334" cy="194.19354838709674" fill="#555555" r="3.3125"><title>2019-12-21</title></circle><circle cx="182.58333333333334" cy="203.0322580645161" fill="#527a88" r="3.3125"><title>2019-12-22: 3 km</title></circle><circle cx="182.58333333333334" cy="211.87096774193546" fill="#5093aa" r="3.3125"><title>2019-12-23: 5 km</title></circle><circle cx="182.58333333333334" cy="220.70967741935482" fill="#555555" r="3.3125"><title>2019-12-24</title></circle><circle cx="182.58333333333334" cy="229.54838709677418" fill="#5093aa" r="3.3125"><title>2019-12-25: 5 km</title></circle><circle cx="182.58333333333334" cy="238.3870967741935" fill="#527a88" r="3.3125"><title>2019-12-26: 3 km</title></circle><circle cx="182.58333333333334" cy="247.22580645161287" fill="#518698" r="3.3125"><title>2019-12-27: 3 km</title></circle><circle cx="182.58333333333334" cy="256.06451612903226" fill="#536e77" r="3.3125"><title>2019-12-28: 2 km</title></circle><circle cx="182.58333333333334" cy="264.90322580645164" fill="#4faccc" r="3.3125"><title>2019-12-29: 7 km</title></circle><circle cx="182.58333333333334" cy="273.741935483871" fill="#555555" r="3.3125"><title>2019-12-30</title></circle><circle cx="182.58333333333334" cy="282.5806451612903" fill="#518799" r="3.3125"><title>2019-12-31: 4 km</title></circle></svg>