<?xml version="1.0" encoding="utf-8" ?>
<svg baseProfile="full" height="300mm" version="1.1" viewBox="0,0,200,300" width="200mm" xmlns="http://www.w3.org/2000/svg" xmlns:ev="http://www.w3.org/2001/xml-events" xmlns:xlink="http://www.w3.org/1999/xlink"><defs /><rect fill="#222222" height="300" width="200" x="0" y="0" /><text fill="#555555" style="font-size:6px; font-family:Arial;" x="11" y="19">Running for 4839 Days</text><text fill="#555555" style="font-size:6px; font-family:Arial;" x="11" y="39">Races</text><text fill="#555555" style="font-size:8px; font-family:Arial;" x="11" y="59">1</text><text fill="#FFFFFF" style="font-size:10px; font-family:Arial; font-weight:bold;" x="23" y="59">Half</text><text fill="#555555" style="font-size:6px; font-family:Arial;" x="49" y="59">1x</text><text fill="#555555" style="font-size:8px; font-family:Arial;" x="11" y="77">2</text><text fill="#FFFFFF" style="font-size:10px; font-family:Arial; font-weight:bold;" x="23" y="77">10K</text><text fill="#555555" style="font-size:6px; font-family:Arial;" x="49" y="77">17x</text><text fill="#555555" style="font-size:6px; font-family:Arial;" x="11" y="115">Stats</text><text fill="#555555" style="font-size:5px; font-family:Arial;" x="11" y="121">Distance</text><text fill="#FFFFFF" style="font-size:10px; font-family:Arial; font-weight:bold;" x="11" y="132">890</text><text fill="#555555" style="font-size:6px; font-family:Arial;" x="29" y="132">km</text><text fill="#555555" style="font-size:5px; font-family:Arial;" x="53" y="121">Runs</text><text fill="#FFFFFF" style="font-size:10px; font-family:Arial; font-weight:bold;" x="53" y="132">202</text><text fill="#555555" style="font-size:5px; font-family:Arial;" x="11" y="149">Avg Pace</text><text fill="#FFFFFF" style="font-size:10px; font-family:Arial; font-weight:bold;" x="11" y="160">5'26"</text><text fill="#555555" style="font-size:5px; font-family:Arial;" x="53" y="149">Streak</text><text fill="#FFFFFF" style="font-size:10px; font-family:Arial; font-weight:bold;" x="53" y="160">70</text><text fill="#555555" style="font-size:6px; font-family:Arial;" x="65" y="160">d</text><text fill="#555555" style="font-size:5px; font-family:Arial;" x="11" y="177">Time</text><text fill="#FFFFFF" style="font-size:10px; font-family:Arial; font-weight:bold;" x="11" y="188">80</text><text fill="#555555" style="font-size:6px; font-family:Arial;" x="23" y="188">h</text><text fill="#555555" style="font-size:5px; font-family:Arial;" x="53" y="177">Longest</text><text fill="#FFFFFF" style="font-size:10px; font-family:Arial; font-weight:bold;" x="53" y="188">21.5</text><text fill="#555555" style="font-size:5px; font-family:Arial;" x="11" y="252.0645161290322">Runner</text><text fill="#FFFFFF" style="font-size:8px; font-family:Arial; font-weight:bold;" x="11" y="262.0645161290322">yihong0618</text><text fill="#555555" style="font-size:7px; font-family:Arial;" x="11" y="285.5806451612903">running_page/2016</text><circle cx="85.41666666666667" cy="17.419354838709676" fill="#536e77" r="3.3125"><title>2016-01-01: 2 km</title></circle><circle cx="85.41666666666667" cy="26.25806451612903" fill="#555555" r="3.3125"><title>2016-01-02</title></circle><circle cx="85.41666666666667" cy="35.096774193548384" fill="#555555" r="3.3125"><title>2016-01-03</title></circle><circle cx="85.41666666666667" cy="43.935483870967744" fill="#555555" r="3.3125"><title>2016-01-04</title></circle><circle cx="85.41666666666667" cy="52.774193548387096" fill="#555555" r="3.3125"><title>2016-01-05</title></circle><circle cx="85.41666666666667" cy="61.61290322580645" fill="#555555" r="3.3125"><title>2016-01-06</title></circle><circle cx="85.41666666666667" cy="70.45161290322581" fill="#555555" r="3.3125"><title>2016-01-07</title></circle><circle cx="85.41666666666667" cy="79.29032258064517" fill="#555555" r="3.3125"><title>2016-01-08</title></circle><circle cx="85.41666666666667" cy="88.12903225806451" fill="#555555" r="3.3125"><title>2016-01-09</title></circle><circle cx="85.41666666666667" cy="96.96774193548387" fill="#555555" r="3.3125"><title>2016-01-10</title></circle><circle cx="85.41666666666667" cy="105.80645161290322" fill="#555555" r="3.3125"><title>2016-01-11</title></circle><circle cx="85.41666666666667" cy="114.64516129032258" fill="#555555" r="3.3125"><title>2016-01-12</title></circle><circle cx="85.41666666666667" cy="123.48387096774194" fill="#555555" r="3.3125"><title>2016-01-13</title></circle><circle cx="85.41666666666667" cy="132.32258064516128" fill="#555555" r="3.3125"><title>2016-01-14</title></circle><circle cx="85.41666666666667" cy="141.16129032258064" fill="#555555" r="3.3125"><title>2016-01-15</title></circle><circle cx="85.41666666666667" cy="149.99999999999997" fill="#555555" r="3.3125"><title>2016-01-16</title></circle><circle cx="85.41666666666667" cy="158.83870967741933" fill="#555555" r="3.3125"><title>2016-01-17</title></circle><circle cx="85.41666666666667" cy="167.6774193548387" fill="#53676d" r="3.3125"><title>2016-01-18: 1 km</title></circle><circle cx="85.41666666666667" cy="176.51612903225805" fill="#555555" r="3.3125"><title>2016-01-19</title></circle><circle cx="85.41666666666667" cy="185.35483870967738" fill="#555555" r="3.3125"><title>2016-01-20</title></circle><circle cx="85.41666666666667" cy="194.19354838709674" fill="#555555" r="3.3125"><title>2016-01-21</title></circle><circle cx="85.41666666666667" cy="203.0322580645161" fill="#555555" r="3.3125"><title>2016-01-22</title></circle><circle cx="85.41666666666667" cy="211.87096774193546" fill="#555555" r="3.3125"><title>2016-01-23</title></circle><circle cx="85.41666666666667" cy="220.70967741935482" fill="#555555" r="3.3125"><title>2016-01-24</title></circle><circle cx="85.41666666666667" cy="229.54838709677418" fill="#555555" r="3.3125"><title>2016-01-25</title></circle><circle cx="85.41666666666667" cy="238.3870967741935" fill="#555555" r="3.3125"><title>2016-01-26</title></circle><circle cx="85.41666666666667" cy="247.22580645161287" fill="#555555" r="3.3125"><title>2016-01-27</title></circle><circle cx="85.41666666666667" cy="256.06451612903226" fill="#555555" r="3.3125"><title>2016-01-28</title></circle><circle cx="85.41666666666667" cy="264.90322580645164" fill="#555555" r="3.3125"><title>2016-01-29</title></circle><circle cx="85.41666666666667" cy="273.741935483871" fill="#555555" r="3.3125"><title>2016-01-30</title></circle><circle cx="85.41666666666667" cy="282.5806451612903" fill="#555555" r="3.3125"><title>2016-01-31</title></circle><circle cx="94.25" cy="17.419354838709676" fill="#555555" r="3.3125"><title>2016-02-01</title></circle><circle cx="94.25" cy="26.25806451612903" fill="#555555" r="3.3125"><title>2016-02-02</title></circle><circle cx="94.25" cy="35.096774193548384" fill="#555555" r="3.3125"><title>2016-02-03</title></circle><circle cx="94.25" cy="43.935483870967744" fill="#555555" r="3.3125"><title>2016-02-04</title></circle><circle cx="94.25" cy="52.774193548387096" fill="#555555" r="3.3125"><title>2016-02-05</title></circle><circle cx="94.25" cy="61.61290322580645" fill="#555555" r="3.3125"><title>2016-02-06</title></circle><circle cx="94.25" cy="70.45161290322581" fill="#555555" r="3.3125"><title>2016-02-07</title></circle><circle cx="94.25" cy="79.29032258064517" fill="#555555" r="3.3125"><title>2016-02-08</title></circle><circle cx="94.25" cy="88.12903225806451" fill="#555555" r="3.3125"><title>2016-02-09</title></circle><circle cx="94.25" cy="96.96774193548387" fill="#536e77" r="3.3125"><title>2016-02-10: 2 km</title></circle><circle cx="94.25" cy="105.80645161290322" fill="#555555" r="3.3125"><title>2016-02-11</title></circle><circle cx="94.25" cy="114.64516129032258" fill="#555555" r="3.3125"><title>2016-02-12</title></circle><circle cx="94.25" cy="123.48387096774194" fill="#555555" r="3.3125"><title>2016-02-13</title></circle><circle cx="94.25" cy="132.32258064516128" fill="#555555" r="3.3125"><title>2016-02-14</title></circle><circle cx="94.25" cy="141.16129032258064" fill="#555555" r="3.3125"><title>2016-02-15</title></circle><circle cx="94.25" cy="149.99999999999997" fill="#555555" r="3.3125"><title>2016-02-16</title></circle><circle cx="94.25" cy="158.83870967741933" fill="#546267" r="3.3125"><title>2016-02-17: 1 km</title></circle><circle cx="94.25" cy="167.6774193548387" fill="#536f79" r="3.3125"><title>2016-02-18: 2 km</title></circle><circle cx="94.25" cy="176.51612903225805" fill="#555555" r="3.3125"><title>2016-02-19</title></circle><circle cx="94.25" cy="185.35483870967738" fill="#536e77" r="3.3125"><title>2016-02-20: 2 km</title></circle><circle cx="94.25" cy="194.19354838709674" fill="#555555" r="3.3125"><title>2016-02-21</title></circle><circle cx="94.25" cy="203.0322580645161" fill="#555555" r="3.3125"><title>2016-02-22</title></circle><circle cx="94.25" cy="211.87096774193546" fill="#536f79" r="3.3125"><title>2016-02-23: 2 km</title></circle><circle cx="94.25" cy="220.70967741935482" fill="#546267" r="3.3125"><title>2016-02-24: 1 km</title></circle><circle cx="94.25" cy="229.54838709677418" fill="#527784" r="3.3125"><title>2016-02-25: 2 km</title></circle><circle cx="94.25" cy="238.3870967741935" fill="#555555" r="3.3125"><title>2016-02-26</title></circle><circle cx="94.25" cy="247.22580645161287" fill="#555555" r="3.3125"><title>2016-02-27</title></circle><circle cx="94.25" cy="256.06451612903226" fill="#555555" r="3.3125"><title>2016-02-28</title></circle><circle cx="94.25" cy="264.90322580645164" fill="#527480" r="3.3125"><title>2016-02-29: 2 km</title></circle><circle cx="103.08333333333334" cy="17.419354838709676" fill="#555555" r="3.3125"><title>2016-03-01</title></circle><circle cx="103.08333333333334" cy="26.25806451612903" fill="#555555" r="3.3125"><title>2016-03-02</title></circle><circle cx="103.08333333333334" cy="35.096774193548384" fill="#555555" r="3.3125"><title>2016-03-03</title></circle><circle cx="103.08333333333334" cy="43.935483870967744" fill="#555555" r="3.3125"><title>2016-03-04</title></circle><circle cx="103.08333333333334" cy="52.774193548387096" fill="#555555" r="3.3125"><title>2016-03-05</title></circle><circle cx="103.08333333333334" cy="61.61290322580645" fill="#555555" r="3.3125"><title>2016-03-06</title></circle><circle cx="103.08333333333334" cy="70.45161290322581" fill="#555555" r="3.3125"><title>2016-03-07</title></circle><circle cx="103.08333333333334" cy="79.29032258064517" fill="#555555" r="3.3125"><title>2016-03-08</title></circle><circle cx="103.08333333333334" cy="88.12903225806451" fill="#555555" r="3.3125"><title>2016-03-09</title></circle><circle cx="103.08333333333334" cy="96.96774193548387" fill="#555555" r="3.3125"><title>2016-03-10</title></circle><circle cx="103.08333333333334" cy="105.80645161290322" fill="#555555" r="3.3125"><title>2016-03-11</title></circle><circle cx="103.08333333333334" cy="114.64516129032258" fill="#555555" r="3.3125"><title>2016-03-12</title></circle><circle cx="103.08333333333334" cy="123.48387096774194" fill="#555555" r="3.3125"><title>2016-03-13</title></circle><circle cx="103.08333333333334" cy="132.32258064516128" fill="#555555" r="3.3125"><title>2016-03-14</title></circle><circle cx="103.08333333333334" cy="141.16129032258064" fill="#555555" r="3.3125"><title>2016-03-15</title></circle><circle cx="103.08333333333334" cy="149.99999999999997" fill="#536a71" r="3.3125"><title>2016-03-16: 1 km</title></circle><circle cx="103.08333333333334" cy="158.83870967741933" fill="#546166" r="3.3125"><title>2016-03-17: 1 km</title></circle><circle cx="103.08333333333334" cy="167.6774193548387" fill="#555555" r="3.3125"><title>2016-03-18</title></circle><circle cx="103.08333333333334" cy="176.51612903225805" fill="#555555" r="3.3125"><title>2016-03-19</title></circle><circle cx="103.08333333333334" cy="185.35483870967738" fill="#536f79" r="3.3125"><title>2016-03-20: 2 km</title></circle><circle cx="103.08333333333334" cy="194.19354838709674" fill="#527a88" r="3.3125"><title>2016-03-21: 3 km</title></circle><circle cx="103.08333333333334" cy="203.0322580645161" fill="#53676e" r="3.3125"><title>2016-03-22: 1 km</title></circle><circle cx="103.08333333333334" cy="211.87096774193546" fill="#527c8a" r="3.3125"><title>2016-03-23: 3 km</title></circle><circle cx="103.08333333333334" cy="220.70967741935482" fill="#537079" r="3.3125"><title>2016-03-24: 2 km</title></circle><circle cx="103.08333333333334" cy="229.54838709677418" fill="#546469" r="3.3125"><title>2016-03-25: 1 km</title></circle><circle cx="103.08333333333334" cy="238.3870967741935" fill="#5094aa" r="3.3125"><title>2016-03-26: 5 km</title></circle><circle cx="103.08333333333334" cy="247.22580645161287" fill="#555555" r="3.3125"><title>2016-03-27</title></circle><circle cx="103.08333333333334" cy="256.06451612903226" fill="#546368" r="3.3125"><title>2016-03-28: 1 km</title></circle><circle cx="103.08333333333334" cy="264.90322580645164" fill="#50a0bb" r="3.3125"><title>2016-03-29: 6 km</title></circle><circle cx="103.08333333333334" cy="273.741935483871" fill="#53676d" r="3.3125"><title>2016-03-30: 1 km</title></circle><circle cx="103.08333333333334" cy="282.5806451612903" fill="#555555" r="3.3125"><title>2016-03-31</title></circle><circle cx="111.91666666666667" cy="17.419354838709676" fill="#546166" r="3.3125"><title>2016-04-01: 1 km</title></circle><circle cx="111.91666666666667" cy="26.25806451612903" fill="#555555" r="3.3125"><title>2016-04-02</title></circle><circle cx="111.91666666666667" cy="35.096774193548384" fill="#4eb9dd" r="3.3125"><title>2016-04-03: 8 km</title></circle><circle cx="111.91666666666667" cy="43.935483870967744" fill="#546266" r="3.3125"><title>2016-04-04: 1 km</title></circle><circle cx="111.91666666666667" cy="52.774193548387096" fill="#555555" r="3.3125"><title>2016-04-05</title></circle><circle cx="111.91666666666667" cy="61.61290322580645" fill="#5093aa" r="3.3125"><title>2016-04-06: 5 km</title></circle><circle cx="111.91666666666667" cy="70.45161290322581" fill="#536f79" r="3.3125"><title>2016-04-07: 2 km</title></circle><circle cx="111.91666666666667" cy="79.29032258064517" fill="#555555" r="3.3125"><title>2016-04-08</title></circle><circle cx="111.91666666666667" cy="88.12903225806451" fill="#FFFF00" r="3.3125"><title>2016-04-09: 10 km</title></circle><circle cx="111.91666666666667" cy="96.96774193548387" fill="#536d76" r="3.3125"><title>2016-04-10: 1 km</title></circle><circle cx="111.91666666666667" cy="105.80645161290322" fill="#51899c" r="3.3125"><title>2016-04-11: 4 km</title></circle><circle cx="111.91666666666667" cy="114.64516129032258" fill="#518fa4" r="3.3125"><title>2016-04-12: 4 km</title></circle><circle cx="111.91666666666667" cy="123.48387096774194" fill="#FFFF00" r="3.3125"><title>2016-04-13: 14 km</title></circle><circle cx="111.91666666666667" cy="132.32258064516128" fill="#555555" r="3.3125"><title>2016-04-14</title></circle><circle cx="111.91666666666667" cy="141.16129032258064" fill="#536e77" r="3.3125"><title>2016-04-15: 2 km</title></circle><circle cx="111.91666666666667" cy="149.99999999999997" fill="#546166" r="3.3125"><title>2016-04-16: 1 km</title></circle><circle cx="111.91666666666667" cy="158.83870967741933" fill="#53737d" r="3.3125"><title>2016-04-17: 2 km</title></circle><circle cx="111.91666666666667" cy="167.6774193548387" fill="#4dc9f2" r="3.3125"><title>2016-04-18: 9 km</title></circle><circle cx="111.91666666666667" cy="176.51612903225805" fill="#527b88" r="3.3125"><title>2016-04-19: 3 km</title></circle><circle cx="111.91666666666667" cy="185.35483870967738" fill="#4faccc" r="3.3125"><title>2016-04-20: 7 km</title></circle><circle cx="111.91666666666667" cy="194.19354838709674" fill="#51899b" r="3.3125"><title>2016-04-21: 4 km</title></circle><circle cx="111.91666666666667" cy="203.0322580645161" fill="#FFFF00" r="3.3125"><title>2016-04-22: 10 km</title></circle><circle cx="111.91666666666667" cy="211.87096774193546" fill="#518495" r="3.3125"><title>2016-04-23: 3 km</title></circle><circle cx="111.91666666666667" cy="220.70967741935482" fill="#FFFF00" r="3.3125"><title>2016-04-24: 15 km</title></circle><circle cx="111.91666666666667" cy="229.54838709677418" fill="#546166" r="3.3125"><title>2016-04-25: 1 km</title></circle><circle cx="111.91666666666667" cy="238.3870967741935" fill="#4dc2ea" r="3.3125"><title>2016-04-26: 8 km</title></circle><circle cx="111.91666666666667" cy="247.22580645161287" fill="#518a9d" r="3.3125"><title>2016-04-27: 4 km</title></circle><circle cx="111.91666666666667" cy="256.06451612903226" fill="#50a1bd" r="3.3125"><title>2016-04-28: 6 km</title></circle><circle cx="111.91666666666667" cy="264.90322580645164" fill="#53717b" r="3.3125"><title>2016-04-29: 2 km</title></circle><circle cx="111.91666666666667" cy="273.741935483871" fill="#FFFF00" r="3.3125"><title>2016-04-30: 17 km</title></circle><circle cx="120.75000000000001" cy="17.419354838709676" fill="#546369" r="3.3125"><title>2016-05-01: 1 km</title></circle><circle cx="120.75000000000001" cy="26.25806451612903" fill="#509db7" r="3.3125"><title>2016-05-02: 5 km</title></circle><circle cx="120.75000000000001" cy="35.096774193548384" fill="#555555" r="3.3125"><title>2016-05-03</title></circle><circle cx="120.75000000000001" cy="43.935483870967744" fill="#528292" r="3.3125"><title>2016-05-04: 3 km</title></circle><circle cx="120.75000000000001" cy="52.774193548387096" fill="#FFFF00" r="3.3125"><title>2016-05-05: 14 km</title></circle><circle cx="120.75000000000001" cy="61.61290322580645" fill="#536971" r="3.3125"><title>2016-05-06: 1 km</title></circle><circle cx="120.75000000000001" cy="70.45161290322581" fill="#555555" r="3.3125"><title>2016-05-07</title></circle><circle cx="120.75000000000001" cy="79.29032258064517" fill="#4ebfe5" r="3.3125"><title>2016-05-08: 8 km</title></circle><circle cx="120.75000000000001" cy="88.12903225806451" fill="#FFFF00" r="3.3125"><title>2016-05-09: 10 km</title></circle><circle cx="120.75000000000001" cy="96.96774193548387" fill="#518a9d" r="3.3125"><title>2016-05-10: 4 km</title></circle><circle cx="120.75000000000001" cy="105.80645161290322" fill="#528191" r="3.3125"><title>2016-05-11: 3 km</title></circle><circle cx="120.75000000000001" cy="114.64516129032258" fill="#4eb9dd" r="3.3125"><title>2016-05-12: 8 km</title></circle><circle cx="120.75000000000001" cy="123.48387096774194" fill="#51889a" r="3.3125"><title>2016-05-13: 4 km</title></circle><circle cx="120.75000000000001" cy="132.32258064516128" fill="#555555" r="3.3125"><title>2016-05-14</title></circle><circle cx="120.75000000000001" cy="141.16129032258064" fill="#FFFF00" r="3.3125"><title>2016-05-15: 20 km</title></circle><circle cx="120.75000000000001" cy="149.99999999999997" fill="#555555" r="3.3125"><title>2016-05-16</title></circle><circle cx="120.75000000000001" cy="158.83870967741933" fill="#51879a" r="3.3125"><title>2016-05-17: 4 km</title></circle><circle cx="120.75000000000001" cy="167.6774193548387" fill="#555555" r="3.3125"><title>2016-05-18</title></circle><circle cx="120.75000000000001" cy="176.51612903225805" fill="#50a0bc" r="3.3125"><title>2016-05-19: 6 km</title></circle><circle cx="120.75000000000001" cy="185.35483870967738" fill="#536e77" r="3.3125"><title>2016-05-20: 2 km</title></circle><circle cx="120.75000000000001" cy="194.19354838709674" fill="#555555" r="3.3125"><title>2016-05-21</title></circle><circle cx="120.75000000000001" cy="203.0322580645161" fill="#FFFF00" r="3.3125"><title>2016-05-22: 21 km</title></circle><circle cx="120.75000000000001" cy="211.87096774193546" fill="#546166" r="3.3125"><title>2016-05-23: 1 km</title></circle><circle cx="120.75000000000001" cy="220.70967741935482" fill="#4faece" r="3.3125"><title>2016-05-24: 7 km</title></circle><circle cx="120.75000000000001" cy="229.54838709677418" fill="#53747f" r="3.3125"><title>2016-05-25: 2 km</title></circle><circle cx="120.75000000000001" cy="238.3870967741935" fill="#536e77" r="3.3125"><title>2016-05-26: 2 km</title></circle><circle cx="120.75000000000001" cy="247.22580645161287" fill="#53686f" r="3.3125"><title>2016-05-27: 1 km</title></circle><circle cx="120.75000000000001" cy="256.06451612903226" fill="#555555" r="3.3125"><title>2016-05-28</title></circle><circle cx="120.75000000000001" cy="264.90322580645164" fill="#555555" r="3.3125"><title>2016-05-29</title></circle><circle cx="120.75000000000001" cy="273.741935483871" fill="#5093aa" r="3.3125"><title>2016-05-30: 5 km</title></circle><circle cx="120.75000000000001" cy="282.5806451612903" fill="#4faccc" r="3.3125"><title>2016-05-31: 7 km</title></circle><circle cx="129.58333333333334" cy="17.419354838709676" fill="#FFFF00" r="3.3125"><title>2016-06-01: 11 km</title></circle><circle cx="129.58333333333334" cy="26.25806451612903" fill="#5095ac" r="3.3125"><title>2016-06-02: 5 km</title></circle><circle cx="129.58333333333334" cy="35.096774193548384" fill="#4faece" r="3.3125"><title>2016-06-03: 7 km</title></circle><circle cx="129.58333333333334" cy="43.935483870967744" fill="#4dc5ee" r="3.3125"><title>2016-06-04: 9 km</title></circle><circle cx="129.58333333333334" cy="52.774193548387096" fill="#4fa5c2" r="3.3125"><title>2016-06-05: 6 km</title></circle><circle cx="129.58333333333334" cy="61.61290322580645" fill="#5097af" r="3.3125"><title>2016-06-06: 5 km</title></circle><circle cx="129.58333333333334" cy="70.45161290322581" fill="#4fa8c7" r="3.3125"><title>2016-06-07: 6 km</title></circle><circle cx="129.58333333333334" cy="79.29032258064517" fill="#536970" r="3.3125"><title>2016-06-08: 1 km</title></circle><circle cx="129.58333333333334" cy="88.12903225806451" fill="#53707a" r="3.3125"><title>2016-06-09: 2 km</title></circle><circle cx="129.58333333333334" cy="96.96774193548387" fill="#53737e" r="3.3125"><title>2016-06-10: 2 km</title></circle><circle cx="129.58333333333334" cy="105.80645161290322" fill="#555555" r="3.3125"><title>2016-06-11</title></circle><circle cx="129.58333333333334" cy="114.64516129032258" fill="#53676e" r="3.3125"><title>2016-06-12: 1 km</title></circle><circle cx="129.58333333333334" cy="123.48387096774194" fill="#555555" r="3.3125"><title>2016-06-13</title></circle><circle cx="129.58333333333334" cy="132.32258064516128" fill="#536e77" r="3.3125"><title>2016-06-14: 2 km</title></circle><circle cx="129.58333333333334" cy="141.16129032258064" fill="#555555" r="3.3125"><title>2016-06-15</title></circle><circle cx="129.58333333333334" cy="149.99999999999997" fill="#555555" r="3.3125"><title>2016-06-16</title></circle><circle cx="129.58333333333334" cy="158.83870967741933" fill="#555555" r="3.3125"><title>2016-06-17</title></circle><circle cx="129.58333333333334" cy="167.6774193548387" fill="#555555" r="3.3125"><title>2016-06-18</title></circle><circle cx="129.58333333333334" cy="176.51612903225805" fill="#555555" r="3.3125"><title>2016-06-19</title></circle><circle cx="129.58333333333334" cy="185.35483870967738" fill="#555555" r="3.3125"><title>2016-06-20</title></circle><circle cx="129.58333333333334" cy="194.19354838709674" fill="#555555" r="3.3125"><title>2016-06-21</title></circle><circle cx="129.58333333333334" cy="203.0322580645161" fill="#555555" r="3.3125"><title>2016-06-22</title></circle><circle cx="129.58333333333334" cy="211.87096774193546" fill="#555555" r="3.3125"><title>2016-06-23</title></circle><circle cx="129.58333333333334" cy="220.70967741935482" fill="#555555" r="3.3125"><title>2016-06-24</title></circle><circle cx="129.58333333333334" cy="229.54838709677418" fill="#555555" r="3.3125"><title>2016-06-25</title></circle><circle cx="129.58333333333334" cy="238.3870967741935" fill="#555555" r="3.3125"><title>2016-06-26</title></circle><circle cx="129.58333333333334" cy="247.22580645161287" fill="#555555" r="3.3125"><title>2016-06-27</title></circle><circle cx="129.58333333333334" cy="256.06451612903226" fill="#555555" r="3.3125"><title>2016-06-28</title></circle><circle cx="129.58333333333334" cy="264.90322580645164" fill="#555555" r="3.3125"><title>2016-06-29</title></circle><circle cx="129.58333333333334" cy="273.741935483871" fill="#555555" r="3.3125"><title>2016-06-30</title></circle><circle cx="138.41666666666666" cy="17.419354838709676" fill="#555555" r="3.3125"><title>2016-07-01</title></circle><circle cx="138.41666666666666" cy="26.25806451612903" fill="#555555" r="3.3125"><title>2016-07-02</title></circle><circle cx="138.41666666666666" cy="35.096774193548384" fill="#555555" r="3.3125"><title>2016-07-03</title></circle><circle cx="138.41666666666666" cy="43.935483870967744" fill="#555555" r="3.3125"><title>2016-07-04</title></circle><circle cx="138.41666666666666" cy="52.774193548387096" fill="#52747f" r="3.3125"><title>2016-07-05: 2 km</title></circle><circle cx="138.41666666666666" cy="61.61290322580645" fill="#555555" r="3.3125"><title>2016-07-06</title></circle><circle cx="138.41666666666666" cy="70.45161290322581" fill="#555555" r="3.3125"><title>2016-07-07</title></circle><circle cx="138.41666666666666" cy="79.29032258064517" fill="#555555" r="3.3125"><title>2016-07-08</title></circle><circle cx="138.41666666666666" cy="88.12903225806451" fill="#555555" r="3.3125"><title>2016-07-09</title></circle><circle cx="138.41666666666666" cy="96.96774193548387" fill="#555555" r="3.3125"><title>2016-07-10</title></circle><circle cx="138.41666666666666" cy="105.80645161290322" fill="#555555" r="3.3125"><title>2016-07-11</title></circle><circle cx="138.41666666666666" cy="114.64516129032258" fill="#555555" r="3.3125"><title>2016-07-12</title></circle><circle cx="138.41666666666666" cy="123.48387096774194" fill="#555555" r="3.3125"><title>2016-07-13</title></circle><circle cx="138.41666666666666" cy="132.32258064516128" fill="#555555" r="3.3125"><title>2016-07-14</title></circle><circle cx="138.41666666666666" cy="141.16129032258064" fill="#555555" r="3.3125"><title>2016-07-15</title></circle><circle cx="138.41666666666666" cy="149.99999999999997" fill="#555555" r="3.3125"><title>2016-07-16</title></circle><circle cx="138.41666666666666" cy="158.83870967741933" fill="#546166" r="3.3125"><title>2016-07-17: 1 km</title></circle><circle cx="138.41666666666666" cy="167.6774193548387" fill="#536e78" r="3.3125"><title>2016-07-18: 2 km</title></circle><circle cx="138.41666666666666" cy="176.51612903225805" fill="#555555" r="3.3125"><title>2016-07-19</title></circle><circle cx="138.41666666666666" cy="185.35483870967738" fill="#555555" r="3.3125"><title>2016-07-20</title></circle><circle cx="138.41666666666666" cy="194.19354838709674" fill="#555555" r="3.3125"><title>2016-07-21</title></circle><circle cx="138.41666666666666" cy="203.0322580645161" fill="#555555" r="3.3125"><title>2016-07-22</title></circle><circle cx="138.41666666666666" cy="211.87096774193546" fill="#555555" r="3.3125"><title>2016-07-23</title></circle><circle cx="138.41666666666666" cy="220.70967741935482" fill="#555555" r="3.3125"><title>2016-07-24</title></circle><circle cx="138.41666666666666" cy="229.54838709677418" fill="#555555" r="3.3125"><title>2016-07-25</title></circle><circle cx="138.41666666666666" cy="238.3870967741935" fill="#555555" r="3.3125"><title>2016-07-26</title></circle><circle cx="138.41666666666666" cy="247.22580645161287" fill="#555555" r="3.3125"><title>2016-07-27</title></circle><circle cx="138.41666666666666" cy="256.06451612903226" fill="#555555" r="3.3125"><title>2016-07-28</title></circle><circle cx="138.41666666666666" cy="264.90322580645164" fill="#555555" r="3.3125"><title>2016-07-29</title></circle><circle cx="138.41666666666666" cy="273.741935483871" fill="#555555" r="3.3125"><title>2016-07-30</title></circle><circle cx="138.41666666666666" cy="282.5806451612903" fill="#555555" r="3.3125"><title>2016-07-31</title></circle><circle cx="147.25" cy="17.419354838709676" fill="#527b89" r="3.3125"><title>2016-08-01: 3 km</title></circle><circle cx="147.25" cy="26.25806451612903" fill="#546166" r="3.3125"><title>2016-08-02: 1 km</title></circle><circle cx="147.25" cy="35.096774193548384" fill="#555555" r="3.3125"><title>2016-08-03</title></circle><circle cx="147.25" cy="43.935483870967744" fill="#555555" r="3.3125"><title>2016-08-04</title></circle><circle cx="147.25" cy="52.774193548387096" fill="#555555" r="3.3125"><title>2016-08-05</title></circle><circle cx="147.25" cy="61.61290322580645" fill="#555555" r="3.3125"><title>2016-08-06</title></circle><circle cx="147.25" cy="70.45161290322581" fill="#555555" r="3.3125"><title>2016-08-07</title></circle><circle cx="147.25" cy="79.29032258064517" fill="#555555" r="3.3125"><title>2016-08-08</title></circle><circle cx="147.25" cy="88.12903225806451" fill="#555555" r="3.3125"><title>2016-08-09</title></circle><circle cx="147.25" cy="96.96774193548387" fill="#555555" r="3.3125"><title>2016-08-10</title></circle><circle cx="147.25" cy="105.80645161290322" fill="#555555" r="3.3125"><title>2016-08-11</title></circle><circle cx="147.25" cy="114.64516129032258" fill="#555555" r="3.3125"><title>2016-08-12</title></circle><circle cx="147.25" cy="123.48387096774194" fill="#555555" r="3.3125"><title>2016-08-13</title></circle><circle cx="147.25" cy="132.32258064516128" fill="#555555" r="3.3125"><title>2016-08-14</title></circle><circle cx="147.25" cy="141.16129032258064" fill="#555555" r="3.3125"><title>2016-08-15</title></circle><circle cx="147.25" cy="149.99999999999997" fill="#555555" r="3.3125"><title>2016-08-16</title></circle><circle cx="147.25" cy="158.83870967741933" fill="#555555" r="3.3125"><title>2016-08-17</title></circle><circle cx="147.25" cy="167.6774193548387" fill="#555555" r="3.3125"><title>2016-08-18</title></circle><circle cx="147.25" cy="176.51612903225805" fill="#555555" r="3.3125"><title>2016-08-19</title></circle><circle cx="147.25" cy="185.35483870967738" fill="#555555" r="3.3125"><title>2016-08-20</title></circle><circle cx="147.25" cy="194.19354838709674" fill="#555555" r="3.3125"><title>2016-08-21</title></circle><circle cx="147.25" cy="203.0322580645161" fill="#555555" r="3.3125"><title>2016-08-22</title></circle><circle cx="147.25" cy="211.87096774193546" fill="#555555" r="3.3125"><title>2016-08-23</title></circle><circle cx="147.25" cy="220.70967741935482" fill="#555555" r="3.3125"><title>2016-08-24</title></circle><circle cx="147.25" cy="229.54838709677418" fill="#555555" r="3.3125"><title>2016-08-25</title></circle><circle cx="147.25" cy="238.3870967741935" fill="#555555" r="3.3125"><title>2016-08-26</title></circle><circle cx="147.25" cy="247.22580645161287" fill="#555555" r="3.3125"><title>2016-08-27</title></circle><circle cx="147.25" cy="256.06451612903226" fill="#555555" r="3.3125"><title>2016-08-28</title></circle><circle cx="147.25" cy="264.90322580645164" fill="#555555" r="3.3125"><title>2016-08-29</title></circle><circle cx="147.25" cy="273.741935483871" fill="#555555" r="3.3125"><title>2016-08-30</title></circle><circle cx="147.25" cy="282.5806451612903" fill="#555555" r="3.3125"><title>2016-08-31</title></circle><circle cx="156.08333333333334" cy="17.419354838709676" fill="#555555" r="3.3125"><title>2016-09-01</title></circle><circle cx="156.08333333333334" cy="26.25806451612903" fill="#555555" r="3.3125"><title>2016-09-02</title></circle><circle cx="156.08333333333334" cy="35.096774193548384" fill="#555555" r="3.3125"><title>2016-09-03</title></circle><circle cx="156.08333333333334" cy="43.935483870967744" fill="#555555" r="3.3125"><title>2016-09-04</title></circle><circle cx="156.08333333333334" cy="52.774193548387096" fill="#555555" r="3.3125"><title>2016-09-05</title></circle><circle cx="156.08333333333334" cy="61.61290322580645" fill="#555555" r="3.3125"><title>2016-09-06</title></circle><circle cx="156.08333333333334" cy="70.45161290322581" fill="#555555" r="3.3125"><title>2016-09-07</title></circle><circle cx="156.08333333333334" cy="79.29032258064517" fill="#555555" r="3.3125"><title>2016-09-08</title></circle><circle cx="156.08333333333334" cy="88.12903225806451" fill="#555555" r="3.3125"><title>2016-09-09</title></circle><circle cx="156.08333333333334" cy="96.96774193548387" fill="#555555" r="3.3125"><title>2016-09-10</title></circle><circle cx="156.08333333333334" cy="105.80645161290322" fill="#555555" r="3.3125"><title>2016-09-11</title></circle><circle cx="156.08333333333334" cy="114.64516129032258" fill="#555555" r="3.3125"><title>2016-09-12</title></circle><circle cx="156.08333333333334" cy="123.48387096774194" fill="#555555" r="3.3125"><title>2016-09-13</title></circle><circle cx="156.08333333333334" cy="132.32258064516128" fill="#555555" r="3.3125"><title>2016-09-14</title></circle><circle cx="156.08333333333334" cy="141.16129032258064" fill="#555555" r="3.3125"><title>2016-09-15</title></circle><circle cx="156.08333333333334" cy="149.99999999999997" fill="#555555" r="3.3125"><title>2016-09-16</title></circle><circle cx="156.08333333333334" cy="158.83870967741933" fill="#555555" r="3.3125"><title>2016-09-17</title></circle><circle cx="156.08333333333334" cy="167.6774193548387" fill="#555555" r="3.3125"><title>2016-09-18</title></circle><circle cx="156.08333333333334" cy="176.51612903225805" fill="#555555" r="3.3125"><title>2016-09-19</title></circle><circle cx="156.08333333333334" cy="185.35483870967738" fill="#527a88" r="3.3125"><title>2016-09-20: 3 km</title></circle><circle cx="156.08333333333334" cy="194.19354838709674" fill="#555555" r="3.3125"><title>2016-09-21</title></circle><circle cx="156.08333333333334" cy="203.0322580645161" fill="#555555" r="3.3125"><title>2016-09-22</title></circle><circle cx="156.08333333333334" cy="211.87096774193546" fill="#555555" r="3.3125"><title>2016-09-23</title></circle><circle cx="156.08333333333334" cy="220.70967741935482" fill="#536e77" r="3.3125"><title>2016-09-24: 2 km</title></circle><circle cx="156.08333333333334" cy="229.54838709677418" fill="#527c8a" r="3.3125"><title>2016-09-25: 3 km</title></circle><circle cx="156.08333333333334" cy="238.3870967741935" fill="#555555" r="3.3125"><title>2016-09-26</title></circle><circle cx="156.08333333333334" cy="247.22580645161287" fill="#555555" r="3.3125"><title>2016-09-27</title></circle><circle cx="156.08333333333334" cy="256.06451612903226" fill="#555555" r="3.3125"><title>2016-09-28</title></circle><circle cx="156.08333333333334" cy="264.90322580645164" fill="#555555" r="3.3125"><title>2016-09-29</title></circle><circle cx="156.08333333333334" cy="273.741935483871" fill="#555555" r="3.3125"><title>2016-09-30</title></circle><circle cx="164.91666666666666" cy="17.419354838709676" fill="#555555" r="3.3125"><title>2016-10-01</title></circle><circle cx="164.91666666666666" cy="26.25806451612903" fill="#555555" r="3.3125"><title>2016-10-02</title></circle><circle cx="164.91666666666666" cy="35.096774193548384" fill="#555555" r="3.3125"><title>2016-10-03</title></circle><circle cx="164.91666666666666" cy="43.935483870967744" fill="#555555" r="3.3125"><title>2016-10-04</title></circle><circle cx="164.91666666666666" cy="52.774193548387096" fill="#555555" r="3.3125"><title>2016-10-05</title></circle><circle cx="164.91666666666666" cy="61.61290322580645" fill="#555555" r="3.3125"><title>2016-10-06</title></circle><circle cx="164.91666666666666" cy="70.45161290322581" fill="#555555" r="3.3125"><title>2016-10-07</title></circle><circle cx="164.91666666666666" cy="79.29032258064517" fill="#555555" r="3.3125"><title>2016-10-08</title></circle><circle cx="164.91666666666666" cy="88.12903225806451" fill="#555555" r="3.3125"><title>2016-10-09</title></circle><circle cx="164.91666666666666" cy="96.96774193548387" fill="#555555" r="3.3125"><title>2016-10-10</title></circle><circle cx="164.91666666666666" cy="105.80645161290322" fill="#555555" r="3.3125"><title>2016-10-11</title></circle><circle cx="164.91666666666666" cy="114.64516129032258" fill="#555555" r="3.3125"><title>2016-10-12</title></circle><circle cx="164.91666666666666" cy="123.48387096774194" fill="#536e77" r="3.3125"><title>2016-10-13: 2 km</title></circle><circle cx="164.91666666666666" cy="132.32258064516128" fill="#527a88" r="3.3125"><title>2016-10-14: 3 km</title></circle><circle cx="164.91666666666666" cy="141.16129032258064" fill="#536e77" r="3.3125"><title>2016-10-15: 2 km</title></circle><circle cx="164.91666666666666" cy="149.99999999999997" fill="#527a88" r="3.3125"><title>2016-10-16: 3 km</title></circle><circle cx="164.91666666666666" cy="158.83870967741933" fill="#518799" r="3.3125"><title>2016-10-17: 4 km</title></circle><circle cx="164.91666666666666" cy="167.6774193548387" fill="#546166" r="3.3125"><title>2016-10-18: 1 km</title></circle><circle cx="164.91666666666666" cy="176.51612903225805" fill="#555555" r="3.3125"><title>2016-10-19</title></circle><circle cx="164.91666666666666" cy="185.35483870967738" fill="#518799" r="3.3125"><title>2016-10-20: 4 km</title></circle><circle cx="164.91666666666666" cy="194.19354838709674" fill="#53707a" r="3.3125"><title>2016-10-21: 2 km</title></circle><circle cx="164.91666666666666" cy="203.0322580645161" fill="#555555" r="3.3125"><title>2016-10-22</title></circle><circle cx="164.91666666666666" cy="211.87096774193546" fill="#5093aa" r="3.3125"><title>2016-10-23: 5 km</title></circle><circle cx="164.91666666666666" cy="220.70967741935482" fill="#5093aa" r="3.3125"><title>2016-10-24: 5 km</title></circle><circle cx="164.91666666666666" cy="229.54838709677418" fill="#5094aa" r="3.3125"><title>2016-10-25: 5 km</title></circle><circle cx="164.91666666666666" cy="238.3870967741935" fill="#5093aa" r="3.3125"><title>2016-10-26: 5 km</title></circle><circle cx="164.91666666666666" cy="247.22580645161287" fill="#5093aa" r="3.3125"><title>2016-10-27: 5 km</title></circle><circle cx="164.91666666666666" cy="256.06451612903226" fill="#50a1bd" r="3.3125"><title>2016-10-28: 6 km</title></circle><circle cx="164.91666666666666" cy="264.90322580645164" fill="#5094aa" r="3.3125"><title>2016-10-29: 5 km</title></circle><circle cx="164.91666666666666" cy="273.741935483871" fill="#509bb4" r="3.3125"><title>2016-10-30: 5 km</title></circle><circle cx="164.91666666666666" cy="282.5806451612903" fill="#518a9d" r="3.3125"><title>2016-10-31: 4 km</title></circle><circle cx="173.75" cy="17.419354838709676" fill="#5093aa" r="3.3125"><title>2016-11-01: 5 km</title></circle><circle cx="173.75" cy="26.25806451612903" fill="#5093aa" r="3.3125"><title>2016-11-02: 5 km</title></circle><circle cx="173.75" cy="35.096774193548384" fill="#5093aa" r="3.3125"><title>2016-11-03: 5 km</title></circle><circle cx="173.75" cy="43.935483870967744" fill="#5095ac" r="3.3125"><title>2016-11-04: 5 km</title></circle><circle cx="173.75" cy="52.774193548387096" fill="#4eb9dd" r="3.3125"><title>2016-11-05: 8 km</title></circle><circle cx="173.75" cy="61.61290322580645" fill="#5093aa" r="3.3125"><title>2016-11-06: 5 km</title></circle><circle cx="173.75" cy="70.45161290322581" fill="#5097ae" r="3.3125"><title>2016-11-07: 5 km</title></circle><circle cx="173.75" cy="79.29032258064517" fill="#5093aa" r="3.3125"><title>2016-11-08: 5 km</title></circle><circle cx="173.75" cy="88.12903225806451" fill="#5093aa" r="3.3125"><title>2016-11-09: 5 km</title></circle><circle cx="173.75" cy="96.96774193548387" fill="#5093aa" r="3.3125"><title>2016-11-10: 5 km</title></circle><circle cx="173.75" cy="105.80645161290322" fill="#5093aa" r="3.3125"><title>2016-11-11: 5 km</title></circle><circle cx="173.75" cy="114.64516129032258" fill="#FFFF00" r="3.3125"><title>2016-11-12: 10 km</title></circle><circle cx="173.75" cy="123.48387096774194" fill="#5093aa" r="3.3125"><title>2016-11-13: 5 km</title></circle><circle cx="173.75" cy="132.32258064516128" fill="#5093aa" r="3.3125"><title>2016-11-14: 5 km</title></circle><circle cx="173.75" cy="141.16129032258064" fill="#5097ae" r="3.3125"><title>2016-11-15: 5 km</title></circle><circle cx="173.75" cy="149.99999999999997" fill="#5094ab" r="3.3125"><title>2016-11-16: 5 km</title></circle><circle cx="173.75" cy="158.83870967741933" fill="#5093aa" r="3.3125"><title>2016-11-17: 5 km</title></circle><circle cx="173.75" cy="167.6774193548387" fill="#5097af" r="3.3125"><title>2016-11-18: 5 km</title></circle><circle cx="173.75" cy="176.51612903225805" fill="#FFFF00" r="3.3125"><title>2016-11-19: 10 km</title></circle><circle cx="173.75" cy="185.35483870967738" fill="#5093aa" r="3.3125"><title>2016-11-20: 5 km</title></circle><circle cx="173.75" cy="194.19354838709674" fill="#5093aa" r="3.3125"><title>2016-11-21: 5 km</title></circle><circle cx="173.75" cy="203.0322580645161" fill="#5094aa" r="3.3125"><title>2016-11-22: 5 km</title></circle><circle cx="173.75" cy="211.87096774193546" fill="#50a0bb" r="3.3125"><title>2016-11-23: 6 km</title></circle><circle cx="173.75" cy="220.70967741935482" fill="#50a0bb" r="3.3125"><title>2016-11-24: 6 km</title></circle><circle cx="173.75" cy="229.54838709677418" fill="#4fb0d1" r="3.3125"><title>2016-11-25: 7 km</title></circle><circle cx="173.75" cy="238.3870967741935" fill="#FFFF00" r="3.3125"><title>2016-11-26: 12 km</title></circle><circle cx="173.75" cy="247.22580645161287" fill="#50a0bb" r="3.3125"><title>2016-11-27: 6 km</title></circle><circle cx="173.75" cy="256.06451612903226" fill="#50a0bb" r="3.3125"><title>2016-11-28: 6 km</title></circle><circle cx="173.75" cy="264.90322580645164" fill="#50a0bb" r="3.3125"><title>2016-11-29: 6 km</title></circle><circle cx="173.75" cy="273.741935483871" fill="#4fb0d0" r="3.3125"><title>2016-11-30: 7 km</title></circle><circle cx="182.58333333333334" cy="17.419354838709676" fill="#50a0bb" r="3.3125"><title>2016-12-01: 6 km</title></circle><circle cx="182.58333333333334" cy="26.25806451612903" fill="#50a0bb" r="3.3125"><title>2016-12-02: 6 km</title></circle><circle cx="182.58333333333334" cy="35.096774193548384" fill="#FFFF00" r="3.3125"><title>2016-12-03: 12 km</title></circle><circle cx="182.58333333333334" cy="43.935483870967744" fill="#50a0bb" r="3.3125"><title>2016-12-04: 6 km</title></circle><circle cx="182.58333333333334" cy="52.774193548387096" fill="#50a0bb" r="3.3125"><title>2016-12-05: 6 km</title></circle><circle cx="182.58333333333334" cy="61.61290322580645" fill="#50a0bb" r="3.3125"><title>2016-12-06: 6 km</title></circle><circle cx="182.58333333333334" cy="70.45161290322581" fill="#4fadcd" r="3.3125"><title>2016-12-07: 7 km</title></circle><circle cx="182.58333333333334" cy="79.29032258064517" fill="#4fa3bf" r="3.3125"><title>2016-12-08: 6 km</title></circle><circle cx="182.58333333333334" cy="88.12903225806451" fill="#50a0bb" r="3.3125"><title>2016-12-09: 6 km</title></circle><circle cx="182.58333333333334" cy="96.96774193548387" fill="#FFFF00" r="3.3125"><title>2016-12-10: 15 km</title></circle><circle cx="182.58333333333334" cy="105.80645161290322" fill="#50a0bc" r="3.3125"><title>2016-12-11: 6 km</title></circle><circle cx="182.58333333333334" cy="114.64516129032258" fill="#50a0bb" r="3.3125"><title>2016-12-12: 6 km</title></circle><circle cx="182.58333333333334" cy="123.48387096774194" fill="#50a0bb" r="3.3125"><title>2016-12-13: 6 km</title></circle><circle cx="182.58333333333334" cy="132.32258064516128" fill="#5093aa" r="3.3125"><title>2016-12-14: 5 km</title></circle><circle cx="182.58333333333334" cy="141.16129032258064" fill="#4fa4c1" r="3.3125"><title>2016-12-15: 6 km</title></circle><circle cx="182.58333333333334" cy="149.99999999999997" fill="#50a2be" r="3.3125"><title>2016-12-16: 6 km</title></circle><circle cx="182.58333333333334" cy="158.83870967741933" fill="#FFFF00" r="3.3125"><title>2016-12-17: 10 km</title></circle><circle cx="182.58333333333334" cy="167.6774193548387" fill="#50a0bb" r="3.3125"><title>2016-12-18: 6 km</title></circle><circle cx="182.58333333333334" cy="176.51612903225805" fill="#50a0bb" r="3.3125"><title>2016-12-19: 6 km</title></circle><circle cx="182.58333333333334" cy="185.35483870967738" fill="#5094ab" r="3.3125"><title>2016-12-20: 5 km</title></circle><circle cx="182.58333333333334" cy="194.19354838709674" fill="#4faac9" r="3.3125"><title>2016-12-21: 6 km</title></circle><circle cx="182.58333333333334" cy="203.0322580645161" fill="#5095ac" r="3.3125"><title>2016-12-22: 5 km</title></circle><circle cx="182.58333333333334" cy="211.87096774193546" fill="#509cb6" r="3.3125"><title>2016-12-23: 5 km</title></circle><circle cx="182.58333333333334" cy="220.70967741935482" fill="#FFFF00" r="3.3125"><title>2016-12-24: 16 km</title></circle><circle cx="182.58333333333334" cy="229.54838709677418" fill="#518799" r="3.3125"><title>2016-12-25: 4 km</title></circle><circle cx="182.58333333333334" cy="238.3870967741935" fill="#4fa8c6" r="3.3125"><title>2016-12-26: 6 km</title></circle><circle cx="182.58333333333334" cy="247.22580645161287" fill="#536e77" r="3.3125"><title>2016-12-27: 2 km</title></circle><circle cx="182.58333333333334" cy="256.06451612903226" fill="#5192a8" r="3.3125"><title>2016-12-28: 4 km</title></circle><circle cx="182.58333333333334" cy="264.90322580645164" fill="#50a0bb" r="3.3125"><title>2016-12-29: 6 km</title></circle><circle cx="182.58333333333334" cy="273.741935483871" fill="#518799" r="3.3125"><title>2016-12-30: 4 km</title></circle><circle cx="182.58333333333334" cy="282.5806451612903" fill="#FFFF00" r="3.3125"><title>2016-12-31: 18 km</title></circle></svg>