<?xml version="1.0" encoding="utf-8" ?>
<svg baseProfile="full" height="300mm" version="1.1" viewBox="0,0,200,300" width="200mm" xmlns="http://www.w3.org/2000/svg" xmlns:ev="http://www.w3.org/2001/xml-events" xmlns:xlink="http://www.w3.org/1999/xlink"><defs /><rect fill="#222222" height="300" width="200" x="0" y="0" /><text fill="#555555" style="font-size:6px; font-family:Arial;" x="11" y="19">Running for 4804 Days</text><text fill="#555555" style="font-size:6px; font-family:Arial;" x="11" y="39">Races</text><text fill="#555555" style="font-size:8px; font-family:Arial;" x="11" y="59">1</text><text fill="#FFFFFF" style="font-size:10px; font-family:Arial; font-weight:bold;" x="23" y="59">10K</text><text fill="#555555" style="font-size:6px; font-family:Arial;" x="49" y="59">4x</text><text fill="#555555" style="font-size:6px; font-family:Arial;" x="11" y="97">Stats</text><text fill="#555555" style="font-size:5px; font-family:Arial;" x="11" y="103">Distance</text><text fill="#FFFFFF" style="font-size:10px; font-family:Arial; font-weight:bold;" x="11" y="114">392</text><text fill="#555555" style="font-size:6px; font-family:Arial;" x="29" y="114">km</text><text fill="#555555" style="font-size:5px; font-family:Arial;" x="53" y="103">Runs</text><text fill="#FFFFFF" style="font-size:10px; font-family:Arial; font-weight:bold;" x="53" y="114">149</text><text fill="#555555" style="font-size:5px; font-family:Arial;" x="11" y="131">Avg Pace</text><text fill="#FFFFFF" style="font-size:10px; font-family:Arial; font-weight:bold;" x="11" y="142">5'31"</text><text fill="#555555" style="font-size:5px; font-family:Arial;" x="53" y="131">Streak</text><text fill="#FFFFFF" style="font-size:10px; font-family:Arial; font-weight:bold;" x="53" y="142">58</text><text fill="#555555" style="font-size:6px; font-family:Arial;" x="65" y="142">d</text><text fill="#555555" style="font-size:5px; font-family:Arial;" x="11" y="159">Time</text><text fill="#FFFFFF" style="font-size:10px; font-family:Arial; font-weight:bold;" x="11" y="170">36</text><text fill="#555555" style="font-size:6px; font-family:Arial;" x="23" y="170">h</text><text fill="#555555" style="font-size:5px; font-family:Arial;" x="53" y="159">Longest</text><text fill="#FFFFFF" style="font-size:10px; font-family:Arial; font-weight:bold;" x="53" y="170">12.0</text><text fill="#555555" style="font-size:5px; font-family:Arial;" x="11" y="252.0645161290322">Runner</text><text fill="#FFFFFF" style="font-size:8px; font-family:Arial; font-weight:bold;" x="11" y="262.0645161290322">yihong0618</text><text fill="#555555" style="font-size:7px; font-family:Arial;" x="11" y="285.5806451612903">running_page/2018</text><circle cx="85.41666666666667" cy="17.419354838709676" fill="#5093aa" r="3.3125"><title>2018-01-01: 5 km</title></circle><circle cx="85.41666666666667" cy="26.25806451612903" fill="#527a88" r="3.3125"><title>2018-01-02: 3 km</title></circle><circle cx="85.41666666666667" cy="35.096774193548384" fill="#527a88" r="3.3125"><title>2018-01-03: 3 km</title></circle><circle cx="85.41666666666667" cy="43.935483870967744" fill="#527a88" r="3.3125"><title>2018-01-04: 3 km</title></circle><circle cx="85.41666666666667" cy="52.774193548387096" fill="#527a88" r="3.3125"><title>2018-01-05: 3 km</title></circle><circle cx="85.41666666666667" cy="61.61290322580645" fill="#527a88" r="3.3125"><title>2018-01-06: 3 km</title></circle><circle cx="85.41666666666667" cy="70.45161290322581" fill="#50a0bb" r="3.3125"><title>2018-01-07: 6 km</title></circle><circle cx="85.41666666666667" cy="79.29032258064517" fill="#527a88" r="3.3125"><title>2018-01-08: 3 km</title></circle><circle cx="85.41666666666667" cy="88.12903225806451" fill="#527a88" r="3.3125"><title>2018-01-09: 3 km</title></circle><circle cx="85.41666666666667" cy="96.96774193548387" fill="#527c8b" r="3.3125"><title>2018-01-10: 3 km</title></circle><circle cx="85.41666666666667" cy="105.80645161290322" fill="#527a88" r="3.3125"><title>2018-01-11: 3 km</title></circle><circle cx="85.41666666666667" cy="114.64516129032258" fill="#527a88" r="3.3125"><title>2018-01-12: 3 km</title></circle><circle cx="85.41666666666667" cy="123.48387096774194" fill="#4eb9dd" r="3.3125"><title>2018-01-13: 8 km</title></circle><circle cx="85.41666666666667" cy="132.32258064516128" fill="#527a88" r="3.3125"><title>2018-01-14: 3 km</title></circle><circle cx="85.41666666666667" cy="141.16129032258064" fill="#527b89" r="3.3125"><title>2018-01-15: 3 km</title></circle><circle cx="85.41666666666667" cy="149.99999999999997" fill="#518799" r="3.3125"><title>2018-01-16: 4 km</title></circle><circle cx="85.41666666666667" cy="158.83870967741933" fill="#518799" r="3.3125"><title>2018-01-17: 4 km</title></circle><circle cx="85.41666666666667" cy="167.6774193548387" fill="#51889b" r="3.3125"><title>2018-01-18: 4 km</title></circle><circle cx="85.41666666666667" cy="176.51612903225805" fill="#518799" r="3.3125"><title>2018-01-19: 4 km</title></circle><circle cx="85.41666666666667" cy="185.35483870967738" fill="#FFFF00" r="3.3125"><title>2018-01-20: 10 km</title></circle><circle cx="85.41666666666667" cy="194.19354838709674" fill="#5093aa" r="3.3125"><title>2018-01-21: 5 km</title></circle><circle cx="85.41666666666667" cy="203.0322580645161" fill="#528090" r="3.3125"><title>2018-01-22: 3 km</title></circle><circle cx="85.41666666666667" cy="211.87096774193546" fill="#518799" r="3.3125"><title>2018-01-23: 4 km</title></circle><circle cx="85.41666666666667" cy="220.70967741935482" fill="#518799" r="3.3125"><title>2018-01-24: 4 km</title></circle><circle cx="85.41666666666667" cy="229.54838709677418" fill="#51889a" r="3.3125"><title>2018-01-25: 4 km</title></circle><circle cx="85.41666666666667" cy="238.3870967741935" fill="#527a88" r="3.3125"><title>2018-01-26: 3 km</title></circle><circle cx="85.41666666666667" cy="247.22580645161287" fill="#51899b" r="3.3125"><title>2018-01-27: 4 km</title></circle><circle cx="85.41666666666667" cy="256.06451612903226" fill="#FFFF00" r="3.3125"><title>2018-01-28: 10 km</title></circle><circle cx="85.41666666666667" cy="264.90322580645164" fill="#518799" r="3.3125"><title>2018-01-29: 4 km</title></circle><circle cx="85.41666666666667" cy="273.741935483871" fill="#527a88" r="3.3125"><title>2018-01-30: 3 km</title></circle><circle cx="85.41666666666667" cy="282.5806451612903" fill="#518799" r="3.3125"><title>2018-01-31: 4 km</title></circle><circle cx="94.25" cy="17.419354838709676" fill="#5093aa" r="3.3125"><title>2018-02-01: 5 km</title></circle><circle cx="94.25" cy="26.25806451612903" fill="#5097ae" r="3.3125"><title>2018-02-02: 5 km</title></circle><circle cx="94.25" cy="35.096774193548384" fill="#FFFF00" r="3.3125"><title>2018-02-03: 12 km</title></circle><circle cx="94.25" cy="43.935483870967744" fill="#5093aa" r="3.3125"><title>2018-02-04: 5 km</title></circle><circle cx="94.25" cy="52.774193548387096" fill="#5093aa" r="3.3125"><title>2018-02-05: 5 km</title></circle><circle cx="94.25" cy="61.61290322580645" fill="#5093aa" r="3.3125"><title>2018-02-06: 5 km</title></circle><circle cx="94.25" cy="70.45161290322581" fill="#527a88" r="3.3125"><title>2018-02-07: 3 km</title></circle><circle cx="94.25" cy="79.29032258064517" fill="#5093aa" r="3.3125"><title>2018-02-08: 5 km</title></circle><circle cx="94.25" cy="88.12903225806451" fill="#5094aa" r="3.3125"><title>2018-02-09: 5 km</title></circle><circle cx="94.25" cy="96.96774193548387" fill="#5093aa" r="3.3125"><title>2018-02-10: 5 km</title></circle><circle cx="94.25" cy="105.80645161290322" fill="#FFFF00" r="3.3125"><title>2018-02-11: 10 km</title></circle><circle cx="94.25" cy="114.64516129032258" fill="#5093aa" r="3.3125"><title>2018-02-12: 5 km</title></circle><circle cx="94.25" cy="123.48387096774194" fill="#5093aa" r="3.3125"><title>2018-02-13: 5 km</title></circle><circle cx="94.25" cy="132.32258064516128" fill="#5097af" r="3.3125"><title>2018-02-14: 5 km</title></circle><circle cx="94.25" cy="141.16129032258064" fill="#527a88" r="3.3125"><title>2018-02-15: 3 km</title></circle><circle cx="94.25" cy="149.99999999999997" fill="#527a88" r="3.3125"><title>2018-02-16: 3 km</title></circle><circle cx="94.25" cy="158.83870967741933" fill="#527a88" r="3.3125"><title>2018-02-17: 3 km</title></circle><circle cx="94.25" cy="167.6774193548387" fill="#53686f" r="3.3125"><title>2018-02-18: 1 km</title></circle><circle cx="94.25" cy="176.51612903225805" fill="#536e77" r="3.3125"><title>2018-02-19: 2 km</title></circle><circle cx="94.25" cy="185.35483870967738" fill="#5093aa" r="3.3125"><title>2018-02-20: 5 km</title></circle><circle cx="94.25" cy="194.19354838709674" fill="#51879a" r="3.3125"><title>2018-02-21: 4 km</title></circle><circle cx="94.25" cy="203.0322580645161" fill="#53686f" r="3.3125"><title>2018-02-22: 1 km</title></circle><circle cx="94.25" cy="211.87096774193546" fill="#4fa6c3" r="3.3125"><title>2018-02-23: 6 km</title></circle><circle cx="94.25" cy="220.70967741935482" fill="#53727d" r="3.3125"><title>2018-02-24: 2 km</title></circle><circle cx="94.25" cy="229.54838709677418" fill="#5093aa" r="3.3125"><title>2018-02-25: 5 km</title></circle><circle cx="94.25" cy="238.3870967741935" fill="#536c74" r="3.3125"><title>2018-02-26: 1 km</title></circle><circle cx="94.25" cy="247.22580645161287" fill="#53666c" r="3.3125"><title>2018-02-27: 1 km</title></circle><circle cx="94.25" cy="256.06451612903226" fill="#555555" r="3.3125"><title>2018-02-28</title></circle><circle cx="103.08333333333334" cy="17.419354838709676" fill="#4ebde3" r="3.3125"><title>2018-03-01: 8 km</title></circle><circle cx="103.08333333333334" cy="26.25806451612903" fill="#518495" r="3.3125"><title>2018-03-02: 3 km</title></circle><circle cx="103.08333333333334" cy="35.096774193548384" fill="#53717b" r="3.3125"><title>2018-03-03: 2 km</title></circle><circle cx="103.08333333333334" cy="43.935483870967744" fill="#555555" r="3.3125"><title>2018-03-04</title></circle><circle cx="103.08333333333334" cy="52.774193548387096" fill="#555555" r="3.3125"><title>2018-03-05</title></circle><circle cx="103.08333333333334" cy="61.61290322580645" fill="#555555" r="3.3125"><title>2018-03-06</title></circle><circle cx="103.08333333333334" cy="70.45161290322581" fill="#5093aa" r="3.3125"><title>2018-03-07: 5 km</title></circle><circle cx="103.08333333333334" cy="79.29032258064517" fill="#546166" r="3.3125"><title>2018-03-08: 1 km</title></circle><circle cx="103.08333333333334" cy="88.12903225806451" fill="#527c8a" r="3.3125"><title>2018-03-09: 3 km</title></circle><circle cx="103.08333333333334" cy="96.96774193548387" fill="#528191" r="3.3125"><title>2018-03-10: 3 km</title></circle><circle cx="103.08333333333334" cy="105.80645161290322" fill="#536e77" r="3.3125"><title>2018-03-11: 2 km</title></circle><circle cx="103.08333333333334" cy="114.64516129032258" fill="#555555" r="3.3125"><title>2018-03-12</title></circle><circle cx="103.08333333333334" cy="123.48387096774194" fill="#536e77" r="3.3125"><title>2018-03-13: 2 km</title></circle><circle cx="103.08333333333334" cy="132.32258064516128" fill="#555555" r="3.3125"><title>2018-03-14</title></circle><circle cx="103.08333333333334" cy="141.16129032258064" fill="#555555" r="3.3125"><title>2018-03-15</title></circle><circle cx="103.08333333333334" cy="149.99999999999997" fill="#555555" r="3.3125"><title>2018-03-16</title></circle><circle cx="103.08333333333334" cy="158.83870967741933" fill="#555555" r="3.3125"><title>2018-03-17</title></circle><circle cx="103.08333333333334" cy="167.6774193548387" fill="#546166" r="3.3125"><title>2018-03-18: 1 km</title></circle><circle cx="103.08333333333334" cy="176.51612903225805" fill="#546166" r="3.3125"><title>2018-03-19: 1 km</title></circle><circle cx="103.08333333333334" cy="185.35483870967738" fill="#555555" r="3.3125"><title>2018-03-20</title></circle><circle cx="103.08333333333334" cy="194.19354838709674" fill="#536e77" r="3.3125"><title>2018-03-21: 2 km</title></circle><circle cx="103.08333333333334" cy="203.0322580645161" fill="#527a88" r="3.3125"><title>2018-03-22: 3 km</title></circle><circle cx="103.08333333333334" cy="211.87096774193546" fill="#546166" r="3.3125"><title>2018-03-23: 1 km</title></circle><circle cx="103.08333333333334" cy="220.70967741935482" fill="#555555" r="3.3125"><title>2018-03-24</title></circle><circle cx="103.08333333333334" cy="229.54838709677418" fill="#555555" r="3.3125"><title>2018-03-25</title></circle><circle cx="103.08333333333334" cy="238.3870967741935" fill="#555555" r="3.3125"><title>2018-03-26</title></circle><circle cx="103.08333333333334" cy="247.22580645161287" fill="#555555" r="3.3125"><title>2018-03-27</title></circle><circle cx="103.08333333333334" cy="256.06451612903226" fill="#546166" r="3.3125"><title>2018-03-28: 1 km</title></circle><circle cx="103.08333333333334" cy="264.90322580645164" fill="#555555" r="3.3125"><title>2018-03-29</title></circle><circle cx="103.08333333333334" cy="273.741935483871" fill="#555555" r="3.3125"><title>2018-03-30</title></circle><circle cx="103.08333333333334" cy="282.5806451612903" fill="#555555" r="3.3125"><title>2018-03-31</title></circle><circle cx="111.91666666666667" cy="17.419354838709676" fill="#555555" r="3.3125"><title>2018-04-01</title></circle><circle cx="111.91666666666667" cy="26.25806451612903" fill="#546166" r="3.3125"><title>2018-04-02: 1 km</title></circle><circle cx="111.91666666666667" cy="35.096774193548384" fill="#555555" r="3.3125"><title>2018-04-03</title></circle><circle cx="111.91666666666667" cy="43.935483870967744" fill="#555555" r="3.3125"><title>2018-04-04</title></circle><circle cx="111.91666666666667" cy="52.774193548387096" fill="#555555" r="3.3125"><title>2018-04-05</title></circle><circle cx="111.91666666666667" cy="61.61290322580645" fill="#555555" r="3.3125"><title>2018-04-06</title></circle><circle cx="111.91666666666667" cy="70.45161290322581" fill="#555555" r="3.3125"><title>2018-04-07</title></circle><circle cx="111.91666666666667" cy="79.29032258064517" fill="#555555" r="3.3125"><title>2018-04-08</title></circle><circle cx="111.91666666666667" cy="88.12903225806451" fill="#555555" r="3.3125"><title>2018-04-09</title></circle><circle cx="111.91666666666667" cy="96.96774193548387" fill="#555555" r="3.3125"><title>2018-04-10</title></circle><circle cx="111.91666666666667" cy="105.80645161290322" fill="#546166" r="3.3125"><title>2018-04-11: 1 km</title></circle><circle cx="111.91666666666667" cy="114.64516129032258" fill="#555555" r="3.3125"><title>2018-04-12</title></circle><circle cx="111.91666666666667" cy="123.48387096774194" fill="#555555" r="3.3125"><title>2018-04-13</title></circle><circle cx="111.91666666666667" cy="132.32258064516128" fill="#555555" r="3.3125"><title>2018-04-14</title></circle><circle cx="111.91666666666667" cy="141.16129032258064" fill="#555555" r="3.3125"><title>2018-04-15</title></circle><circle cx="111.91666666666667" cy="149.99999999999997" fill="#555555" r="3.3125"><title>2018-04-16</title></circle><circle cx="111.91666666666667" cy="158.83870967741933" fill="#555555" r="3.3125"><title>2018-04-17</title></circle><circle cx="111.91666666666667" cy="167.6774193548387" fill="#546166" r="3.3125"><title>2018-04-18: 1 km</title></circle><circle cx="111.91666666666667" cy="176.51612903225805" fill="#555555" r="3.3125"><title>2018-04-19</title></circle><circle cx="111.91666666666667" cy="185.35483870967738" fill="#555555" r="3.3125"><title>2018-04-20</title></circle><circle cx="111.91666666666667" cy="194.19354838709674" fill="#555555" r="3.3125"><title>2018-04-21</title></circle><circle cx="111.91666666666667" cy="203.0322580645161" fill="#555555" r="3.3125"><title>2018-04-22</title></circle><circle cx="111.91666666666667" cy="211.87096774193546" fill="#546166" r="3.3125"><title>2018-04-23: 1 km</title></circle><circle cx="111.91666666666667" cy="220.70967741935482" fill="#555555" r="3.3125"><title>2018-04-24</title></circle><circle cx="111.91666666666667" cy="229.54838709677418" fill="#555555" r="3.3125"><title>2018-04-25</title></circle><circle cx="111.91666666666667" cy="238.3870967741935" fill="#555555" r="3.3125"><title>2018-04-26</title></circle><circle cx="111.91666666666667" cy="247.22580645161287" fill="#555555" r="3.3125"><title>2018-04-27</title></circle><circle cx="111.91666666666667" cy="256.06451612903226" fill="#555555" r="3.3125"><title>2018-04-28</title></circle><circle cx="111.91666666666667" cy="264.90322580645164" fill="#555555" r="3.3125"><title>2018-04-29</title></circle><circle cx="111.91666666666667" cy="273.741935483871" fill="#555555" r="3.3125"><title>2018-04-30</title></circle><circle cx="120.75000000000001" cy="17.419354838709676" fill="#546166" r="3.3125"><title>2018-05-01: 1 km</title></circle><circle cx="120.75000000000001" cy="26.25806451612903" fill="#53676e" r="3.3125"><title>2018-05-02: 1 km</title></circle><circle cx="120.75000000000001" cy="35.096774193548384" fill="#555555" r="3.3125"><title>2018-05-03</title></circle><circle cx="120.75000000000001" cy="43.935483870967744" fill="#555555" r="3.3125"><title>2018-05-04</title></circle><circle cx="120.75000000000001" cy="52.774193548387096" fill="#555555" r="3.3125"><title>2018-05-05</title></circle><circle cx="120.75000000000001" cy="61.61290322580645" fill="#555555" r="3.3125"><title>2018-05-06</title></circle><circle cx="120.75000000000001" cy="70.45161290322581" fill="#546166" r="3.3125"><title>2018-05-07: 1 km</title></circle><circle cx="120.75000000000001" cy="79.29032258064517" fill="#555555" r="3.3125"><title>2018-05-08</title></circle><circle cx="120.75000000000001" cy="88.12903225806451" fill="#555555" r="3.3125"><title>2018-05-09</title></circle><circle cx="120.75000000000001" cy="96.96774193548387" fill="#546166" r="3.3125"><title>2018-05-10: 1 km</title></circle><circle cx="120.75000000000001" cy="105.80645161290322" fill="#555555" r="3.3125"><title>2018-05-11</title></circle><circle cx="120.75000000000001" cy="114.64516129032258" fill="#546166" r="3.3125"><title>2018-05-12: 1 km</title></circle><circle cx="120.75000000000001" cy="123.48387096774194" fill="#555555" r="3.3125"><title>2018-05-13</title></circle><circle cx="120.75000000000001" cy="132.32258064516128" fill="#555555" r="3.3125"><title>2018-05-14</title></circle><circle cx="120.75000000000001" cy="141.16129032258064" fill="#555555" r="3.3125"><title>2018-05-15</title></circle><circle cx="120.75000000000001" cy="149.99999999999997" fill="#555555" r="3.3125"><title>2018-05-16</title></circle><circle cx="120.75000000000001" cy="158.83870967741933" fill="#555555" r="3.3125"><title>2018-05-17</title></circle><circle cx="120.75000000000001" cy="167.6774193548387" fill="#555555" r="3.3125"><title>2018-05-18</title></circle><circle cx="120.75000000000001" cy="176.51612903225805" fill="#555555" r="3.3125"><title>2018-05-19</title></circle><circle cx="120.75000000000001" cy="185.35483870967738" fill="#555555" r="3.3125"><title>2018-05-20</title></circle><circle cx="120.75000000000001" cy="194.19354838709674" fill="#555555" r="3.3125"><title>2018-05-21</title></circle><circle cx="120.75000000000001" cy="203.0322580645161" fill="#555555" r="3.3125"><title>2018-05-22</title></circle><circle cx="120.75000000000001" cy="211.87096774193546" fill="#546266" r="3.3125"><title>2018-05-23: 1 km</title></circle><circle cx="120.75000000000001" cy="220.70967741935482" fill="#555555" r="3.3125"><title>2018-05-24</title></circle><circle cx="120.75000000000001" cy="229.54838709677418" fill="#555555" r="3.3125"><title>2018-05-25</title></circle><circle cx="120.75000000000001" cy="238.3870967741935" fill="#555555" r="3.3125"><title>2018-05-26</title></circle><circle cx="120.75000000000001" cy="247.22580645161287" fill="#555555" r="3.3125"><title>2018-05-27</title></circle><circle cx="120.75000000000001" cy="256.06451612903226" fill="#555555" r="3.3125"><title>2018-05-28</title></circle><circle cx="120.75000000000001" cy="264.90322580645164" fill="#555555" r="3.3125"><title>2018-05-29</title></circle><circle cx="120.75000000000001" cy="273.741935483871" fill="#555555" r="3.3125"><title>2018-05-30</title></circle><circle cx="120.75000000000001" cy="282.5806451612903" fill="#555555" r="3.3125"><title>2018-05-31</title></circle><circle cx="129.58333333333334" cy="17.419354838709676" fill="#555555" r="3.3125"><title>2018-06-01</title></circle><circle cx="129.58333333333334" cy="26.25806451612903" fill="#555555" r="3.3125"><title>2018-06-02</title></circle><circle cx="129.58333333333334" cy="35.096774193548384" fill="#555555" r="3.3125"><title>2018-06-03</title></circle><circle cx="129.58333333333334" cy="43.935483870967744" fill="#555555" r="3.3125"><title>2018-06-04</title></circle><circle cx="129.58333333333334" cy="52.774193548387096" fill="#555555" r="3.3125"><title>2018-06-05</title></circle><circle cx="129.58333333333334" cy="61.61290322580645" fill="#555555" r="3.3125"><title>2018-06-06</title></circle><circle cx="129.58333333333334" cy="70.45161290322581" fill="#555555" r="3.3125"><title>2018-06-07</title></circle><circle cx="129.58333333333334" cy="79.29032258064517" fill="#555555" r="3.3125"><title>2018-06-08</title></circle><circle cx="129.58333333333334" cy="88.12903225806451" fill="#555555" r="3.3125"><title>2018-06-09</title></circle><circle cx="129.58333333333334" cy="96.96774193548387" fill="#555555" r="3.3125"><title>2018-06-10</title></circle><circle cx="129.58333333333334" cy="105.80645161290322" fill="#546166" r="3.3125"><title>2018-06-11: 1 km</title></circle><circle cx="129.58333333333334" cy="114.64516129032258" fill="#53676e" r="3.3125"><title>2018-06-12: 1 km</title></circle><circle cx="129.58333333333334" cy="123.48387096774194" fill="#555555" r="3.3125"><title>2018-06-13</title></circle><circle cx="129.58333333333334" cy="132.32258064516128" fill="#546166" r="3.3125"><title>2018-06-14: 1 km</title></circle><circle cx="129.58333333333334" cy="141.16129032258064" fill="#546166" r="3.3125"><title>2018-06-15: 1 km</title></circle><circle cx="129.58333333333334" cy="149.99999999999997" fill="#555555" r="3.3125"><title>2018-06-16</title></circle><circle cx="129.58333333333334" cy="158.83870967741933" fill="#555555" r="3.3125"><title>2018-06-17</title></circle><circle cx="129.58333333333334" cy="167.6774193548387" fill="#555555" r="3.3125"><title>2018-06-18</title></circle><circle cx="129.58333333333334" cy="176.51612903225805" fill="#536e77" r="3.3125"><title>2018-06-19: 2 km</title></circle><circle cx="129.58333333333334" cy="185.35483870967738" fill="#53717b" r="3.3125"><title>2018-06-20: 2 km</title></circle><circle cx="129.58333333333334" cy="194.19354838709674" fill="#546166" r="3.3125"><title>2018-06-21: 1 km</title></circle><circle cx="129.58333333333334" cy="203.0322580645161" fill="#536e77" r="3.3125"><title>2018-06-22: 2 km</title></circle><circle cx="129.58333333333334" cy="211.87096774193546" fill="#546166" r="3.3125"><title>2018-06-23: 1 km</title></circle><circle cx="129.58333333333334" cy="220.70967741935482" fill="#555555" r="3.3125"><title>2018-06-24</title></circle><circle cx="129.58333333333334" cy="229.54838709677418" fill="#546267" r="3.3125"><title>2018-06-25: 1 km</title></circle><circle cx="129.58333333333334" cy="238.3870967741935" fill="#555555" r="3.3125"><title>2018-06-26</title></circle><circle cx="129.58333333333334" cy="247.22580645161287" fill="#555555" r="3.3125"><title>2018-06-27</title></circle><circle cx="129.58333333333334" cy="256.06451612903226" fill="#555555" r="3.3125"><title>2018-06-28</title></circle><circle cx="129.58333333333334" cy="264.90322580645164" fill="#555555" r="3.3125"><title>2018-06-29</title></circle><circle cx="129.58333333333334" cy="273.741935483871" fill="#555555" r="3.3125"><title>2018-06-30</title></circle><circle cx="138.41666666666666" cy="17.419354838709676" fill="#555555" r="3.3125"><title>2018-07-01</title></circle><circle cx="138.41666666666666" cy="26.25806451612903" fill="#555555" r="3.3125"><title>2018-07-02</title></circle><circle cx="138.41666666666666" cy="35.096774193548384" fill="#555555" r="3.3125"><title>2018-07-03</title></circle><circle cx="138.41666666666666" cy="43.935483870967744" fill="#555555" r="3.3125"><title>2018-07-04</title></circle><circle cx="138.41666666666666" cy="52.774193548387096" fill="#555555" r="3.3125"><title>2018-07-05</title></circle><circle cx="138.41666666666666" cy="61.61290322580645" fill="#555555" r="3.3125"><title>2018-07-06</title></circle><circle cx="138.41666666666666" cy="70.45161290322581" fill="#555555" r="3.3125"><title>2018-07-07</title></circle><circle cx="138.41666666666666" cy="79.29032258064517" fill="#555555" r="3.3125"><title>2018-07-08</title></circle><circle cx="138.41666666666666" cy="88.12903225806451" fill="#555555" r="3.3125"><title>2018-07-09</title></circle><circle cx="138.41666666666666" cy="96.96774193548387" fill="#555555" r="3.3125"><title>2018-07-10</title></circle><circle cx="138.41666666666666" cy="105.80645161290322" fill="#555555" r="3.3125"><title>2018-07-11</title></circle><circle cx="138.41666666666666" cy="114.64516129032258" fill="#555555" r="3.3125"><title>2018-07-12</title></circle><circle cx="138.41666666666666" cy="123.48387096774194" fill="#555555" r="3.3125"><title>2018-07-13</title></circle><circle cx="138.41666666666666" cy="132.32258064516128" fill="#555555" r="3.3125"><title>2018-07-14</title></circle><circle cx="138.41666666666666" cy="141.16129032258064" fill="#555555" r="3.3125"><title>2018-07-15</title></circle><circle cx="138.41666666666666" cy="149.99999999999997" fill="#555555" r="3.3125"><title>2018-07-16</title></circle><circle cx="138.41666666666666" cy="158.83870967741933" fill="#555555" r="3.3125"><title>2018-07-17</title></circle><circle cx="138.41666666666666" cy="167.6774193548387" fill="#555555" r="3.3125"><title>2018-07-18</title></circle><circle cx="138.41666666666666" cy="176.51612903225805" fill="#555555" r="3.3125"><title>2018-07-19</title></circle><circle cx="138.41666666666666" cy="185.35483870967738" fill="#555555" r="3.3125"><title>2018-07-20</title></circle><circle cx="138.41666666666666" cy="194.19354838709674" fill="#555555" r="3.3125"><title>2018-07-21</title></circle><circle cx="138.41666666666666" cy="203.0322580645161" fill="#555555" r="3.3125"><title>2018-07-22</title></circle><circle cx="138.41666666666666" cy="211.87096774193546" fill="#555555" r="3.3125"><title>2018-07-23</title></circle><circle cx="138.41666666666666" cy="220.70967741935482" fill="#555555" r="3.3125"><title>2018-07-24</title></circle><circle cx="138.41666666666666" cy="229.54838709677418" fill="#546166" r="3.3125"><title>2018-07-25: 1 km</title></circle><circle cx="138.41666666666666" cy="238.3870967741935" fill="#546166" r="3.3125"><title>2018-07-26: 1 km</title></circle><circle cx="138.41666666666666" cy="247.22580645161287" fill="#53676d" r="3.3125"><title>2018-07-27: 1 km</title></circle><circle cx="138.41666666666666" cy="256.06451612903226" fill="#555555" r="3.3125"><title>2018-07-28</title></circle><circle cx="138.41666666666666" cy="264.90322580645164" fill="#555555" r="3.3125"><title>2018-07-29</title></circle><circle cx="138.41666666666666" cy="273.741935483871" fill="#555555" r="3.3125"><title>2018-07-30</title></circle><circle cx="138.41666666666666" cy="282.5806451612903" fill="#555555" r="3.3125"><title>2018-07-31</title></circle><circle cx="147.25" cy="17.419354838709676" fill="#555555" r="3.3125"><title>2018-08-01</title></circle><circle cx="147.25" cy="26.25806451612903" fill="#555555" r="3.3125"><title>2018-08-02</title></circle><circle cx="147.25" cy="35.096774193548384" fill="#555555" r="3.3125"><title>2018-08-03</title></circle><circle cx="147.25" cy="43.935483870967744" fill="#555555" r="3.3125"><title>2018-08-04</title></circle><circle cx="147.25" cy="52.774193548387096" fill="#555555" r="3.3125"><title>2018-08-05</title></circle><circle cx="147.25" cy="61.61290322580645" fill="#555555" r="3.3125"><title>2018-08-06</title></circle><circle cx="147.25" cy="70.45161290322581" fill="#555555" r="3.3125"><title>2018-08-07</title></circle><circle cx="147.25" cy="79.29032258064517" fill="#555555" r="3.3125"><title>2018-08-08</title></circle><circle cx="147.25" cy="88.12903225806451" fill="#555555" r="3.3125"><title>2018-08-09</title></circle><circle cx="147.25" cy="96.96774193548387" fill="#555555" r="3.3125"><title>2018-08-10</title></circle><circle cx="147.25" cy="105.80645161290322" fill="#555555" r="3.3125"><title>2018-08-11</title></circle><circle cx="147.25" cy="114.64516129032258" fill="#555555" r="3.3125"><title>2018-08-12</title></circle><circle cx="147.25" cy="123.48387096774194" fill="#555555" r="3.3125"><title>2018-08-13</title></circle><circle cx="147.25" cy="132.32258064516128" fill="#555555" r="3.3125"><title>2018-08-14</title></circle><circle cx="147.25" cy="141.16129032258064" fill="#555555" r="3.3125"><title>2018-08-15</title></circle><circle cx="147.25" cy="149.99999999999997" fill="#555555" r="3.3125"><title>2018-08-16</title></circle><circle cx="147.25" cy="158.83870967741933" fill="#555555" r="3.3125"><title>2018-08-17</title></circle><circle cx="147.25" cy="167.6774193548387" fill="#555555" r="3.3125"><title>2018-08-18</title></circle><circle cx="147.25" cy="176.51612903225805" fill="#555555" r="3.3125"><title>2018-08-19</title></circle><circle cx="147.25" cy="185.35483870967738" fill="#555555" r="3.3125"><title>2018-08-20</title></circle><circle cx="147.25" cy="194.19354838709674" fill="#555555" r="3.3125"><title>2018-08-21</title></circle><circle cx="147.25" cy="203.0322580645161" fill="#546166" r="3.3125"><title>2018-08-22: 1 km</title></circle><circle cx="147.25" cy="211.87096774193546" fill="#53676d" r="3.3125"><title>2018-08-23: 1 km</title></circle><circle cx="147.25" cy="220.70967741935482" fill="#536e77" r="3.3125"><title>2018-08-24: 2 km</title></circle><circle cx="147.25" cy="229.54838709677418" fill="#555555" r="3.3125"><title>2018-08-25</title></circle><circle cx="147.25" cy="238.3870967741935" fill="#546166" r="3.3125"><title>2018-08-26: 1 km</title></circle><circle cx="147.25" cy="247.22580645161287" fill="#555555" r="3.3125"><title>2018-08-27</title></circle><circle cx="147.25" cy="256.06451612903226" fill="#555555" r="3.3125"><title>2018-08-28</title></circle><circle cx="147.25" cy="264.90322580645164" fill="#546166" r="3.3125"><title>2018-08-29: 1 km</title></circle><circle cx="147.25" cy="273.741935483871" fill="#555555" r="3.3125"><title>2018-08-30</title></circle><circle cx="147.25" cy="282.5806451612903" fill="#536e77" r="3.3125"><title>2018-08-31: 2 km</title></circle><circle cx="156.08333333333334" cy="17.419354838709676" fill="#555555" r="3.3125"><title>2018-09-01</title></circle><circle cx="156.08333333333334" cy="26.25806451612903" fill="#527a88" r="3.3125"><title>2018-09-02: 3 km</title></circle><circle cx="156.08333333333334" cy="35.096774193548384" fill="#555555" r="3.3125"><title>2018-09-03</title></circle><circle cx="156.08333333333334" cy="43.935483870967744" fill="#555555" r="3.3125"><title>2018-09-04</title></circle><circle cx="156.08333333333334" cy="52.774193548387096" fill="#546166" r="3.3125"><title>2018-09-05: 1 km</title></circle><circle cx="156.08333333333334" cy="61.61290322580645" fill="#555555" r="3.3125"><title>2018-09-06</title></circle><circle cx="156.08333333333334" cy="70.45161290322581" fill="#546166" r="3.3125"><title>2018-09-07: 1 km</title></circle><circle cx="156.08333333333334" cy="79.29032258064517" fill="#555555" r="3.3125"><title>2018-09-08</title></circle><circle cx="156.08333333333334" cy="88.12903225806451" fill="#555555" r="3.3125"><title>2018-09-09</title></circle><circle cx="156.08333333333334" cy="96.96774193548387" fill="#546166" r="3.3125"><title>2018-09-10: 1 km</title></circle><circle cx="156.08333333333334" cy="105.80645161290322" fill="#555555" r="3.3125"><title>2018-09-11</title></circle><circle cx="156.08333333333334" cy="114.64516129032258" fill="#555555" r="3.3125"><title>2018-09-12</title></circle><circle cx="156.08333333333334" cy="123.48387096774194" fill="#555555" r="3.3125"><title>2018-09-13</title></circle><circle cx="156.08333333333334" cy="132.32258064516128" fill="#555555" r="3.3125"><title>2018-09-14</title></circle><circle cx="156.08333333333334" cy="141.16129032258064" fill="#555555" r="3.3125"><title>2018-09-15</title></circle><circle cx="156.08333333333334" cy="149.99999999999997" fill="#555555" r="3.3125"><title>2018-09-16</title></circle><circle cx="156.08333333333334" cy="158.83870967741933" fill="#555555" r="3.3125"><title>2018-09-17</title></circle><circle cx="156.08333333333334" cy="167.6774193548387" fill="#546166" r="3.3125"><title>2018-09-18: 1 km</title></circle><circle cx="156.08333333333334" cy="176.51612903225805" fill="#555555" r="3.3125"><title>2018-09-19</title></circle><circle cx="156.08333333333334" cy="185.35483870967738" fill="#546166" r="3.3125"><title>2018-09-20: 1 km</title></circle><circle cx="156.08333333333334" cy="194.19354838709674" fill="#546166" r="3.3125"><title>2018-09-21: 1 km</title></circle><circle cx="156.08333333333334" cy="203.0322580645161" fill="#555555" r="3.3125"><title>2018-09-22</title></circle><circle cx="156.08333333333334" cy="211.87096774193546" fill="#555555" r="3.3125"><title>2018-09-23</title></circle><circle cx="156.08333333333334" cy="220.70967741935482" fill="#555555" r="3.3125"><title>2018-09-24</title></circle><circle cx="156.08333333333334" cy="229.54838709677418" fill="#555555" r="3.3125"><title>2018-09-25</title></circle><circle cx="156.08333333333334" cy="238.3870967741935" fill="#555555" r="3.3125"><title>2018-09-26</title></circle><circle cx="156.08333333333334" cy="247.22580645161287" fill="#555555" r="3.3125"><title>2018-09-27</title></circle><circle cx="156.08333333333334" cy="256.06451612903226" fill="#555555" r="3.3125"><title>2018-09-28</title></circle><circle cx="156.08333333333334" cy="264.90322580645164" fill="#555555" r="3.3125"><title>2018-09-29</title></circle><circle cx="156.08333333333334" cy="273.741935483871" fill="#555555" r="3.3125"><title>2018-09-30</title></circle><circle cx="164.91666666666666" cy="17.419354838709676" fill="#555555" r="3.3125"><title>2018-10-01</title></circle><circle cx="164.91666666666666" cy="26.25806451612903" fill="#546166" r="3.3125"><title>2018-10-02: 1 km</title></circle><circle cx="164.91666666666666" cy="35.096774193548384" fill="#555555" r="3.3125"><title>2018-10-03</title></circle><circle cx="164.91666666666666" cy="43.935483870967744" fill="#555555" r="3.3125"><title>2018-10-04</title></circle><circle cx="164.91666666666666" cy="52.774193548387096" fill="#555555" r="3.3125"><title>2018-10-05</title></circle><circle cx="164.91666666666666" cy="61.61290322580645" fill="#555555" r="3.3125"><title>2018-10-06</title></circle><circle cx="164.91666666666666" cy="70.45161290322581" fill="#555555" r="3.3125"><title>2018-10-07</title></circle><circle cx="164.91666666666666" cy="79.29032258064517" fill="#555555" r="3.3125"><title>2018-10-08</title></circle><circle cx="164.91666666666666" cy="88.12903225806451" fill="#555555" r="3.3125"><title>2018-10-09</title></circle><circle cx="164.91666666666666" cy="96.96774193548387" fill="#555555" r="3.3125"><title>2018-10-10</title></circle><circle cx="164.91666666666666" cy="105.80645161290322" fill="#555555" r="3.3125"><title>2018-10-11</title></circle><circle cx="164.91666666666666" cy="114.64516129032258" fill="#555555" r="3.3125"><title>2018-10-12</title></circle><circle cx="164.91666666666666" cy="123.48387096774194" fill="#555555" r="3.3125"><title>2018-10-13</title></circle><circle cx="164.91666666666666" cy="132.32258064516128" fill="#546166" r="3.3125"><title>2018-10-14: 1 km</title></circle><circle cx="164.91666666666666" cy="141.16129032258064" fill="#555555" r="3.3125"><title>2018-10-15</title></circle><circle cx="164.91666666666666" cy="149.99999999999997" fill="#555555" r="3.3125"><title>2018-10-16</title></circle><circle cx="164.91666666666666" cy="158.83870967741933" fill="#555555" r="3.3125"><title>2018-10-17</title></circle><circle cx="164.91666666666666" cy="167.6774193548387" fill="#546267" r="3.3125"><title>2018-10-18: 1 km</title></circle><circle cx="164.91666666666666" cy="176.51612903225805" fill="#53676d" r="3.3125"><title>2018-10-19: 1 km</title></circle><circle cx="164.91666666666666" cy="185.35483870967738" fill="#536e77" r="3.3125"><title>2018-10-20: 2 km</title></circle><circle cx="164.91666666666666" cy="194.19354838709674" fill="#536e77" r="3.3125"><title>2018-10-21: 2 km</title></circle><circle cx="164.91666666666666" cy="203.0322580645161" fill="#555555" r="3.3125"><title>2018-10-22</title></circle><circle cx="164.91666666666666" cy="211.87096774193546" fill="#555555" r="3.3125"><title>2018-10-23</title></circle><circle cx="164.91666666666666" cy="220.70967741935482" fill="#555555" r="3.3125"><title>2018-10-24</title></circle><circle cx="164.91666666666666" cy="229.54838709677418" fill="#555555" r="3.3125"><title>2018-10-25</title></circle><circle cx="164.91666666666666" cy="238.3870967741935" fill="#555555" r="3.3125"><title>2018-10-26</title></circle><circle cx="164.91666666666666" cy="247.22580645161287" fill="#546166" r="3.3125"><title>2018-10-27: 1 km</title></circle><circle cx="164.91666666666666" cy="256.06451612903226" fill="#555555" r="3.3125"><title>2018-10-28</title></circle><circle cx="164.91666666666666" cy="264.90322580645164" fill="#555555" r="3.3125"><title>2018-10-29</title></circle><circle cx="164.91666666666666" cy="273.741935483871" fill="#555555" r="3.3125"><title>2018-10-30</title></circle><circle cx="164.91666666666666" cy="282.5806451612903" fill="#555555" r="3.3125"><title>2018-10-31</title></circle><circle cx="173.75" cy="17.419354838709676" fill="#555555" r="3.3125"><title>2018-11-01</title></circle><circle cx="173.75" cy="26.25806451612903" fill="#555555" r="3.3125"><title>2018-11-02</title></circle><circle cx="173.75" cy="35.096774193548384" fill="#555555" r="3.3125"><title>2018-11-03</title></circle><circle cx="173.75" cy="43.935483870967744" fill="#555555" r="3.3125"><title>2018-11-04</title></circle><circle cx="173.75" cy="52.774193548387096" fill="#546166" r="3.3125"><title>2018-11-05: 1 km</title></circle><circle cx="173.75" cy="61.61290322580645" fill="#546166" r="3.3125"><title>2018-11-06: 1 km</title></circle><circle cx="173.75" cy="70.45161290322581" fill="#536e77" r="3.3125"><title>2018-11-07: 2 km</title></circle><circle cx="173.75" cy="79.29032258064517" fill="#536e77" r="3.3125"><title>2018-11-08: 2 km</title></circle><circle cx="173.75" cy="88.12903225806451" fill="#527a88" r="3.3125"><title>2018-11-09: 3 km</title></circle><circle cx="173.75" cy="96.96774193548387" fill="#53707a" r="3.3125"><title>2018-11-10: 2 km</title></circle><circle cx="173.75" cy="105.80645161290322" fill="#536e77" r="3.3125"><title>2018-11-11: 2 km</title></circle><circle cx="173.75" cy="114.64516129032258" fill="#536e77" r="3.3125"><title>2018-11-12: 2 km</title></circle><circle cx="173.75" cy="123.48387096774194" fill="#536e77" r="3.3125"><title>2018-11-13: 2 km</title></circle><circle cx="173.75" cy="132.32258064516128" fill="#555555" r="3.3125"><title>2018-11-14</title></circle><circle cx="173.75" cy="141.16129032258064" fill="#555555" r="3.3125"><title>2018-11-15</title></circle><circle cx="173.75" cy="149.99999999999997" fill="#546166" r="3.3125"><title>2018-11-16: 1 km</title></circle><circle cx="173.75" cy="158.83870967741933" fill="#555555" r="3.3125"><title>2018-11-17</title></circle><circle cx="173.75" cy="167.6774193548387" fill="#555555" r="3.3125"><title>2018-11-18</title></circle><circle cx="173.75" cy="176.51612903225805" fill="#555555" r="3.3125"><title>2018-11-19</title></circle><circle cx="173.75" cy="185.35483870967738" fill="#555555" r="3.3125"><title>2018-11-20</title></circle><circle cx="173.75" cy="194.19354838709674" fill="#555555" r="3.3125"><title>2018-11-21</title></circle><circle cx="173.75" cy="203.0322580645161" fill="#555555" r="3.3125"><title>2018-11-22</title></circle><circle cx="173.75" cy="211.87096774193546" fill="#555555" r="3.3125"><title>2018-11-23</title></circle><circle cx="173.75" cy="220.70967741935482" fill="#555555" r="3.3125"><title>2018-11-24</title></circle><circle cx="173.75" cy="229.54838709677418" fill="#555555" r="3.3125"><title>2018-11-25</title></circle><circle cx="173.75" cy="238.3870967741935" fill="#546166" r="3.3125"><title>2018-11-26: 1 km</title></circle><circle cx="173.75" cy="247.22580645161287" fill="#555555" r="3.3125"><title>2018-11-27</title></circle><circle cx="173.75" cy="256.06451612903226" fill="#555555" r="3.3125"><title>2018-11-28</title></circle><circle cx="173.75" cy="264.90322580645164" fill="#546166" r="3.3125"><title>2018-11-29: 1 km</title></circle><circle cx="173.75" cy="273.741935483871" fill="#546166" r="3.3125"><title>2018-11-30: 1 km</title></circle><circle cx="182.58333333333334" cy="17.419354838709676" fill="#546166" r="3.3125"><title>2018-12-01: 1 km</title></circle><circle cx="182.58333333333334" cy="26.25806451612903" fill="#555555" r="3.3125"><title>2018-12-02</title></circle><circle cx="182.58333333333334" cy="35.096774193548384" fill="#555555" r="3.3125"><title>2018-12-03</title></circle><circle cx="182.58333333333334" cy="43.935483870967744" fill="#555555" r="3.3125"><title>2018-12-04</title></circle><circle cx="182.58333333333334" cy="52.774193548387096" fill="#546166" r="3.3125"><title>2018-12-05: 1 km</title></circle><circle cx="182.58333333333334" cy="61.61290322580645" fill="#555555" r="3.3125"><title>2018-12-06</title></circle><circle cx="182.58333333333334" cy="70.45161290322581" fill="#555555" r="3.3125"><title>2018-12-07</title></circle><circle cx="182.58333333333334" cy="79.29032258064517" fill="#546266" r="3.3125"><title>2018-12-08: 1 km</title></circle><circle cx="182.58333333333334" cy="88.12903225806451" fill="#546166" r="3.3125"><title>2018-12-09: 1 km</title></circle><circle cx="182.58333333333334" cy="96.96774193548387" fill="#53717b" r="3.3125"><title>2018-12-10: 2 km</title></circle><circle cx="182.58333333333334" cy="105.80645161290322" fill="#546469" r="3.3125"><title>2018-12-11: 1 km</title></circle><circle cx="182.58333333333334" cy="114.64516129032258" fill="#555555" r="3.3125"><title>2018-12-12</title></circle><circle cx="182.58333333333334" cy="123.48387096774194" fill="#555555" r="3.3125"><title>2018-12-13</title></circle><circle cx="182.58333333333334" cy="132.32258064516128" fill="#546166" r="3.3125"><title>2018-12-14: 1 km</title></circle><circle cx="182.58333333333334" cy="141.16129032258064" fill="#536d76" r="3.3125"><title>2018-12-15: 1 km</title></circle><circle cx="182.58333333333334" cy="149.99999999999997" fill="#546368" r="3.3125"><title>2018-12-16: 1 km</title></circle><circle cx="182.58333333333334" cy="158.83870967741933" fill="#536e77" r="3.3125"><title>2018-12-17: 2 km</title></circle><circle cx="182.58333333333334" cy="167.6774193548387" fill="#53707a" r="3.3125"><title>2018-12-18: 2 km</title></circle><circle cx="182.58333333333334" cy="176.51612903225805" fill="#53727d" r="3.3125"><title>2018-12-19: 2 km</title></circle><circle cx="182.58333333333334" cy="185.35483870967738" fill="#546166" r="3.3125"><title>2018-12-20: 1 km</title></circle><circle cx="182.58333333333334" cy="194.19354838709674" fill="#546166" r="3.3125"><title>2018-12-21: 1 km</title></circle><circle cx="182.58333333333334" cy="203.0322580645161" fill="#527a88" r="3.3125"><title>2018-12-22: 3 km</title></circle><circle cx="182.58333333333334" cy="211.87096774193546" fill="#555555" r="3.3125"><title>2018-12-23</title></circle><circle cx="182.58333333333334" cy="220.70967741935482" fill="#555555" r="3.3125"><title>2018-12-24</title></circle><circle cx="182.58333333333334" cy="229.54838709677418" fill="#555555" r="3.3125"><title>2018-12-25</title></circle><circle cx="182.58333333333334" cy="238.3870967741935" fill="#555555" r="3.3125"><title>2018-12-26</title></circle><circle cx="182.58333333333334" cy="247.22580645161287" fill="#555555" r="3.3125"><title>2018-12-27</title></circle><circle cx="182.58333333333334" cy="256.06451612903226" fill="#555555" r="3.3125"><title>2018-12-28</title></circle><circle cx="182.58333333333334" cy="264.90322580645164" fill="#555555" r="3.3125"><title>2018-12-29</title></circle><circle cx="182.58333333333334" cy="273.741935483871" fill="#555555" r="3.3125"><title>2018-12-30</title></circle><circle cx="182.58333333333334" cy="282.5806451612903" fill="#555555" r="3.3125"><title>2018-12-31</title></circle></svg>