<?xml version="1.0" encoding="utf-8" ?>
<svg baseProfile="full" height="200mm" version="1.1" viewBox="0,0,200,200" width="200mm" xmlns="http://www.w3.org/2000/svg" xmlns:ev="http://www.w3.org/2001/xml-events" xmlns:xlink="http://www.w3.org/1999/xlink"><defs /><rect fill="#1a1a1a" height="200" width="200" x="0" y="0" /><text alignment-baseline="middle" fill="#e1ed5e" style="dominant-baseline: central; font-size:9.0px; font-family:Arial;" text-anchor="middle" x="100.0" y="100.0">2014</text><line stroke="#e1ed5e" stroke-width="0.3" x1="100.0" x2="100.0" y1="15.0" y2="10.0" /><path d="M 100.0 14.0 a86.0,86.0 0 0,1 42.46469731375804,11.215312516191453" fill="none" id="id61" stroke="none" /><text fill="#e1ed5e" style="font-size:6.75px; font-family:Arial;" text-anchor="middle"><textPath startOffset="22.20632615414155" xlink:href="#id61">January</textPath></text><line stroke="#e1ed5e" stroke-width="0.3" x1="143.23703022742887" x2="145.7803849466894" y1="26.81831364943548" y2="22.513508569990506" /><path d="M 143.74570117128098 25.957352633546492 a86.0,86.0 0 0,1 28.547481713284135,27.462654790039103" fill="none" id="id62" stroke="none" /><text fill="#e1ed5e" style="font-size:6.75px; font-family:Arial;" text-anchor="middle"><textPath startOffset="19.985693538727396" xlink:href="#id62">February</textPath></text><path d="M 115.9244219780498 86.31012108654704 l 5.133529112311604 -4.413183225306498 a27.769734657065772,27.769734657065772 0 0,0 0.30849449341773394,0.36516017603443546 l -5.208734219216455 4.324164099642956" fill="#ff4306" stroke="none" /><path d="M 117.65298651832404 88.62581576622439 l 5.768227559251621 -3.716588289078839 a27.86188586948427,27.86188586948427 0 0,0 0.25629273650138656,0.4053935603113923 l -5.831347891998963 3.6167470810532403" fill="#ff4406" stroke="none" /><line stroke="#e1ed5e" stroke-width="0.3" x1="172.23445277983987" x2="176.4835382374775" y1="55.19839476539836" y2="52.563006222186495" /><path d="M 173.08426987136738 54.67131705675599 a86.0,86.0 0 0,1 12.851231095245387,41.99856678651699" fill="none" id="id63" stroke="none" /><text fill="#e1ed5e" style="font-size:6.75px; font-family:Arial;" text-anchor="middle"><textPath startOffset="22.20632615414155" xlink:href="#id63">March</textPath></text><path d="M 118.21658344932153 89.55222093294921 l 8.180647493432046 -4.691856619248993 a30.43061567170387,30.43061567170387 0 0,0 0.25669290652424176,0.45662803814240843 l -8.26019804124872 4.55034507117179" fill="#ff6909" stroke="none" /><path d="M 118.89224826269711 90.83032412892265 l 6.089986147545522 -2.955878953941456 a27.76942772083803,27.76942772083803 0 0,0 0.2050201061818825,0.4318246302648325 l -6.13996444756916 2.850611908036083" fill="#ff4306" stroke="none" /><path d="M 119.196687751892 91.48605970444005 l 11.947436820408699 -5.2988184778860505 a34.06976372545595,34.06976372545595 0 0,0 0.23314959813394567,0.5381414176888605 l -12.036877128385326 5.092377915610587" fill="#ff9a0e" stroke="none" /><path d="M 119.34039704204932 91.81776055985345 l 4.062199055576977 -1.7185730600050848 a25.41077708909731,25.41077708909731 0 0,0 0.16695886465069093,0.4043041338100001 l -4.091179607113866 1.6483943557417815" fill="#ff2103" stroke="none" /><path d="M 119.85752413597 93.16781622104841 l 6.118899327893592 -2.1052697429356666 a27.470941946534296,27.470941946534296 0 0,0 0.1499948831537248,0.44846560892055237 l -6.154231504819087 1.9996310310928" fill="#ff3f05" stroke="none" /><path d="M 120.08093135843002 93.85539295169968 l 4.945511022639911 -1.5132874738104742 a26.17185829788912,26.17185829788912 0 0,0 0.12811012831672203,0.43192366572773105 l -4.970827048068335 1.4279344213362133" fill="#ff2c04" stroke="none" /><path d="M 120.18372546131832 94.20196356495316 l 8.112670836393601 -2.3304697234957223 a29.440765204162563,29.440765204162563 0 0,0 0.1357264550672583,0.4882802733003073 l -8.151584062027222 2.190478146776463" fill="#ff5b08" stroke="none" /><path d="M 120.53481517161879 95.60439243477599 l 6.601581167704914 -1.413110363092525 a27.751129891512655,27.751129891512655 0 0,0 0.09596698056552498,0.46796907921694514 l -6.6249274441854356 1.2992656277121681" fill="#ff4306" stroke="none" /><path d="M 120.78858239683441 97.02765380044208 l 6.890921813889672 -0.9852622402999742 a27.961001733033935,27.961001733033935 0 0,0 0.06402270636547845,0.47704352659258054 l -6.906860519312986 0.8665003716427294" fill="#ff4606" stroke="none" /><path d="M 120.83666639777658 97.38593545837742 l 3.1253228167919036 -0.392087457779306 a24.14982146854515,24.14982146854515 0 0,0 0.048195737751098915,0.4129116484103827 l -3.131608907546591 0.3382320710440706" fill="#ff0f01" stroke="none" /><path d="M 120.91429891909075 98.10471618934814 l 6.738288464222018 -0.610633379925767 a27.765900128715106,27.765900128715106 0 0,0 0.039038215881746226,0.4763651139321464 l -6.747801163923259 0.4945543487858518" fill="#ff4306" stroke="none" /><path d="M 120.96714384426684 98.82574320788733 l 62.90143153280055 -3.5227703763380056 a84.0,84.0 0 0,0 0.0684255670660141,1.444355573508001 l -62.95275070810006 2.4395036962070047" fill="#4dd2ff" stroke="none" /><line stroke="#e1ed5e" stroke-width="0.3" x1="184.98032266829074" x2="189.97916517819016" y1="98.17113171792111" y2="98.06355123074" /><path d="M 185.9800911702706 98.14961562048488 a86.0,86.0 0 0,1 -9.607161424134198,41.387399972396054" fill="none" id="id64" stroke="none" /><text fill="#e1ed5e" style="font-size:6.75px; font-family:Arial;" text-anchor="middle"><textPath startOffset="21.466115282336823" xlink:href="#id64">April</textPath></text><path d="M 120.9904718944345 100.63252640178507 l 3.684921678312652 0.11104134589088989 a24.68659435737047,24.68659435737047 0 0,0 -0.01645522229384327,0.42463617026751727 l -3.6824643231676055 -0.17445476317241332" fill="#ff1702" stroke="none" /><path d="M 120.95626037817324 101.35467743843564 l 33.0658056419385 2.1374758701455243 a54.134820142048554,54.134820142048554 0 0,0 -0.06811563067809767,0.9293836624821062 l -33.02411345259607 -2.706332669124401" fill="#71ff27" stroke="none" /><path d="M 119.41010516605496 108.01547362559984 l 5.827112197420602 2.406327205970981 a27.304414896207582,27.304414896207582 0 0,0 -0.18313333558328296,0.4328731086060848 l -5.78482788064501 -2.506274840243229" fill="#ff3d05" stroke="none" /><path d="M 119.12269723197855 108.67885076344098 l 7.847075464399499 3.5614012008250686 a29.617434180614254,29.617434180614254 0 0,0 -0.21469167935071812,0.4624267774530221 l -7.784609168208949 -3.6959480455569214" fill="#ff5d08" stroke="none" /><path d="M 118.97047184881838 109.00673069616215 l 8.190066836853395 3.8884497428935507 a30.066269144203403,30.066269144203403 0 0,0 -0.2259934604837147,0.465613465648353 l -8.121920119754966 -4.028852164507179" fill="#ff6409" stroke="none" /><path d="M 118.64920377521936 109.65438752849418 l 3.105585442517277 1.6077107487426352 a24.49705516004507,24.49705516004507 0 0,0 -0.19708171548409786,0.3728043335122447 l -3.0774512188082865 -1.6609300973410142" fill="#ff1402" stroke="none" /><line stroke="#e1ed5e" stroke-width="0.3" x1="174.80103733775053" x2="179.2010983576182" y1="140.37084112569926" y2="142.7455964860345" /><path d="M 175.68104954172406 140.8457921977663 a86.0,86.0 0 0,1 -30.038265399797805,32.042727171017184" fill="none" id="id65" stroke="none" /><text fill="#e1ed5e" style="font-size:6.75px; font-family:Arial;" text-anchor="middle"><textPath startOffset="22.206326154141568" xlink:href="#id65">May</textPath></text><path d="M 118.48025628344425 109.97397251340804 l 9.395238488803658 5.070700806686881 a31.67625931365629,31.67625931365629 0 0,0 -0.26309937545871387,0.4776017888371281 l -9.306562703893436 -5.231673113921814" fill="#ff7a0b" stroke="none" /><path d="M 118.12598468904814 110.60418214915192 l 8.0819624942251 4.728162573322673 a30.36342026600486,30.36342026600486 0 0,0 -0.267804100594101,0.44885507665879903 l -7.999377517932773 -4.866579743867576" fill="#ff6809" stroke="none" /><path d="M 117.94076556474637 110.91462005526583 l 4.219386024974122 2.566947054900774 a25.938869871783492,25.938869871783492 0 0,0 -0.23534628179171851,0.379453142135746 l -4.174575103514441 -2.6391965284017935" fill="#ff2904" stroke="none" /><path d="M 117.75023020441432 111.22182372390056 l 5.97991266576319 3.7805439730480894 a28.074734498361423,28.074734498361423 0 0,0 -0.26175697508379586,0.40625263819009805 l -5.913950827302344 -3.8829182111596405" fill="#ff4806" stroke="none" /><path d="M 116.498646956653 112.99209946851258 l 6.734480006130676 5.303164213297924 a29.57185928641958,29.57185928641958 0 0,0 -0.31836512818541884,0.39720944828759563 l -6.6421969658904025 -5.41830149516377" fill="#ff5d08" stroke="none" /><path d="M 116.27256486870786 113.27417163493432 l 4.27290485740768 3.4855766693574703 a26.514250686940816,26.514250686940816 0 0,0 -0.291535549687619,0.35117335022076507 l -4.212273307826518 -3.558611276692006" fill="#ff3104" stroke="none" /><path d="M 114.81725581225074 114.88116024355365 l 6.826102612712302 6.855542490852224 a30.674406427433055,30.674406427433055 0 0,0 -0.3773683029224559,0.3693343099089354 l -6.707084357414051 -6.972026903683731" fill="#ff6c0a" stroke="none" /><path d="M 111.45004920935366 117.60387380957326 l 3.3387027557155964 5.133087284138365 a27.123358650087866,27.123358650087866 0 0,0 -0.39357052239474166,0.25119532853709636 l -3.2498504312739245 -5.18979704149927" fill="#ff3a05" stroke="none" /><line stroke="#e1ed5e" stroke-width="0.3" x1="143.8653032363475" x2="146.44561519142675" y1="172.8068346515853" y2="177.08958963109032" /><path d="M 144.38136562736335 173.6633856474863 a86.0,86.0 0 0,1 -40.68145358897372,12.25698825130547" fill="none" id="id66" stroke="none" /><text fill="#e1ed5e" style="font-size:6.75px; font-family:Arial;" text-anchor="middle"><textPath startOffset="21.466115282336833" xlink:href="#id66">June</textPath></text><path d="M 109.57404056367764 118.69057910512821 l 2.245667132683186 4.384023538237308 a25.92571652195214,25.92571652195214 0 0,0 -0.3989425706949204,0.20003808685834687 l -2.169870654305505 -4.422029466004957" fill="#ff2903" stroke="none" /><path d="M 108.92500713936063 119.00905698771935 l 3.12233997205281 6.6501614550011245 a28.346676410368257,28.346676410368257 0 0,0 -0.4434662102109855,0.20357358646379148 l -3.0074057660744047 -6.702922111798991" fill="#ff4b07" stroke="none" /><path d="M 108.59647513512805 119.15986991738527 l 5.963176045151565 13.29075877305729 a35.56721446636483,35.56721446636483 0 0,0 -0.5607413985631927,0.24581255045941897 l -5.733513971930618 -13.391435876811164" fill="#ffae10" stroke="none" /><path d="M 108.2653958097858 119.30500536409082 l 1.3278310052114852 3.101337826781961 a24.373637724212486,24.373637724212486 0 0,0 -0.3871097055663911,0.16181188832227822 l -1.274249840147633 -3.1237347581242125" fill="#ff1202" stroke="none" /><path d="M 107.2578585660854 119.70592522655815 l 1.2931696617554893 3.511105159707145 a24.741677059368826,24.741677059368826 0 0,0 -0.40090994002472546,0.14375204080041898 l -1.232540161101029 -3.532844741547524" fill="#ff1702" stroke="none" /><path d="M 104.83641907484287 120.43548508189849 l 1.2985361784569691 5.486748830595296 a26.63831614374367,26.63831614374367 0 0,0 -0.4471176045129752,0.10176251109721042 l -1.2038984245511317 -5.50828807527019" fill="#ff3304" stroke="none" /><path d="M 103.7750983002368 120.6578951692458 l 0.8436941124972293 4.616818727550572 a25.693275499959935,25.693275499959935 0 0,0 -0.4357469759791767,0.0757601972099488 l -0.7640981650460027 -4.630657503281527" fill="#ff2503" stroke="none" /><path d="M 103.41894727170886 120.7198165907248 l 0.7706248199612875 4.670210933635563 a25.73336379098306,25.73336379098306 0 0,0 -0.43766831689782476,0.0683547899958921 l -0.6901206394549456 -4.682784030978561" fill="#ff2603" stroke="none" /><path d="M 102.70371172650421 120.8252237178851 l 2.3413038077877095 18.033792253347094 a39.18514136753528,39.18514136753528 0 0,0 -0.6696415552696832,0.08108426666422024 l -2.0305348294666463 -18.071422048736668" fill="#ffdd14" stroke="none" /><path d="M 101.98527174616119 120.90594882070398 l 0.6452871368368995 6.795210722892897 a27.8257808533153,27.8257808533153 0 0,0 -0.4772196708381009,0.041176521235563056 l -0.528223148257257 -6.805311496407123" fill="#ff4406" stroke="none" /><path d="M 101.26447882468166 120.96189622390904 l 0.20287512669822336 3.3631621734204797 a24.36927560786576,24.36927560786576 0 0,0 -0.4189332980266616,0.021654066281330236 l -0.14495376025808215 -3.366156046464012" fill="#ff1202" stroke="none" /><path d="M 100.90346689309514 120.98055641714683 l 0.29853800507025524 6.932731576451202 a27.939156436599113,27.939156436599113 0 0,0 -0.48065945771054297,0.01655488358788105 l -0.17915819568505997 -6.936843258465177" fill="#ff4606" stroke="none" /><line stroke="#e1ed5e" stroke-width="0.3" x1="102.19456741930631" x2="102.32365962044197" y1="184.97166512339345" y2="189.96999836594603" /><path d="M 102.22038585953345 185.97133177190398 a86.0,86.0 0 0,1 -42.740103519485714,-10.115201625700543" fill="none" id="id67" stroke="none" /><text fill="#e1ed5e" style="font-size:6.75px; font-family:Arial;" text-anchor="middle"><textPath startOffset="22.20632615414155" xlink:href="#id67">July</textPath></text><path d="M 100.54218724476979 120.99299961872073 l 0.4310855374459237 16.69124202115952 a37.69680792695168,37.69680792695168 0 0,0 -0.6488164736749499,0.011169963991838621 l -0.14370937387830587 -16.696189462430517" fill="#ffca12" stroke="none" /><path d="M 99.45781275523022 120.99299961872073 l -0.17725910838619158 6.863312316294286 a27.865600974605407,27.865600974605407 0 0,0 -0.4793940247847698,-0.016511299519288217 l 0.2953734848456044 -6.859244218348905" fill="#ff4506" stroke="none" /><path d="M 99.09653310690486 120.98055641714683 l -0.09315703916612449 2.163318358222806 a23.165323198270876,23.165323198270876 0 0,0 -0.39823609874445637,-0.020584257490275322 l 0.13038120632406977 -2.1613942939703286" fill="#ff0000" stroke="none" /><path d="M 98.37488393609728 120.93702456842531 l -0.3111473061534166 4.0086360217797985 a25.020693398064207,25.020693398064207 0 0,0 -0.42911166196950085,-0.037025559802435964 l 0.3801032858644592 -4.002686209698699" fill="#ff1b02" stroke="none" /><path d="M 97.2962882734958 120.8252237178851 l -0.8758318582021708 6.7460573579322105 a27.802673836099537,27.802673836099537 0 0,0 -0.4740639328221521,-0.06570094140875356 l 0.9918243822111539 -6.729981851030852" fill="#ff4406" stroke="none" /><path d="M 96.93821686468263 120.77559828337769 l -3.7599325697163084 25.512861358457116 a46.78843127498584,46.78843127498584 0 0,0 -0.7957690309258364,-0.1242827568139202 l 4.198537464250662 -25.44436029429609" fill="#c4ff1e" stroke="none" /><path d="M 95.86986931433489 120.58985236759428 l -0.6305796298849677 3.143615171889629 a24.206235646137152,24.206235646137152 0 0,0 -0.4078272789645557,-0.08546417153738471 l 0.6845983702789102 -3.132295019625703" fill="#ff0f01" stroke="none" /><path d="M 95.51606077576429 120.51570834832081 l -1.5835488133855207 7.2453313896743 a28.416363919777293,28.416363919777293 0 0,0 -0.4769617004400547,-0.10855493016617636 l 1.7080306632184379 -7.216999725930437" fill="#ff4c07" stroke="none" /><path d="M 94.81253420990036 120.34920634021253 l -1.6589905522122477 6.507829146142998 a27.71595785035298,27.71595785035298 0 0,0 -0.4612853407301094,-0.12182965104404225 l 1.7707663357538463 -6.478308145795374" fill="#ff4206" stroke="none" /><path d="M 94.46302465271185 120.25689768951611 l -1.8264682270207615 6.682092241214741 a27.92721754418169,27.92721754418169 0 0,0 -0.46261945453251513,-0.1307408788317199 l 1.9412188496578906 -6.649662569044501" fill="#ff4506" stroke="none" /><path d="M 94.11515582081647 120.15858648285463 l -3.19154983327026 10.932682560380885 a32.38900954009188,32.38900954009188 0 0,0 -0.5338403216628296,-0.16084170975807688 l 3.3792651293733353 -10.876125481517082" fill="#ff840c" stroke="none" /><path d="M 93.76903079525671 120.05430185196036 l -2.996176445492799 9.643159011908761 a31.097900228338712,31.097900228338712 0 0,0 -0.5098258695765995,-0.16323014366810654 l 3.1617236601603387 -9.590156021580949" fill="#ff720a" stroke="none" /><path d="M 93.42475214034765 119.94407469862007 l -2.3879448729227812 7.243126333533656 a28.626608669628126,28.626608669628126 0 0,0 -0.46665498052263443,-0.15831470600604317 l 2.5122695863826414 -7.200948640629489" fill="#ff4f07" stroke="none" /><path d="M 92.06813273071674 119.44442032107085 l -2.5723399237192575 6.305912213025254 a27.810393639250307,27.810393639250307 0 0,0 -0.44169333339524824,-0.18462784918160444 l 2.680504716611968 -6.260699320823676" fill="#ff4406" stroke="none" /><path d="M 91.07499286063937 119.00905698771935 l -3.2817143995469915 6.989607410317083 a28.72167476332392,28.72167476332392 0 0,0 -0.4457157123421149,-0.21397062802345101 l 3.4015427798893487 -6.932082505794069" fill="#ff5107" stroke="none" /><line stroke="#e1ed5e" stroke-width="0.3" x1="58.666819895761336" x2="56.23545636021788" y1="174.27360380694188" y2="178.64263932499728" /><path d="M 58.180547188652646 175.14741091055294 a86.0,86.0 0 0,1 -31.652253787137756,-30.449443065178592" fill="none" id="id68" stroke="none" /><text fill="#e1ed5e" style="font-size:6.75px; font-family:Arial;" text-anchor="middle"><textPath startOffset="22.20632615414155" xlink:href="#id68">August</textPath></text><path d="M 89.4739219176387 118.17145234162733 l -3.4240878441923805 5.911095147446361 a27.831209512737107,27.831209512737107 0 0,0 -0.4124745994525864,-0.24369726380923235 l 3.525330314673349 -5.851279311343379" fill="#ff4406" stroke="none" /><path d="M 89.1626897886671 117.98757091392108 l -8.021528491014639 13.31398748919063 a36.54371841595454,36.54371841595454 0 0,0 -0.5360107325681305,-0.3292615709178472 l 8.24951842351508 -13.173937451444404" fill="#ffbb11" stroke="none" /><path d="M 88.8546689885994 117.79835938074946 l -1.5602877242154694 2.491676705209744 a23.939889553303384,23.939889553303384 0 0,0 -0.3473771430418233,-0.22171252826996438 l 1.602946669304216 -2.464449748115975" fill="#ff0c01" stroke="none" /><path d="M 87.65650970185807 116.9893568818739 l -3.715709404115527 5.114235245549331 a27.3215424164243,27.3215424164243 0 0,0 -0.3780976598837904,-0.2797076097436047 l 3.8031920344178816 -5.0495176870659595" fill="#ff3d05" stroke="none" /><path d="M 86.79598089348748 116.32954008644616 l -6.073248374583452 7.510845901365737 a30.659045086003225,30.659045086003225 0 0,0 -0.4075169197046986,-0.33535868130631946 l 6.201635422832839 -7.405192101202237" fill="#ff6c09" stroke="none" /><line stroke="#e1ed5e" stroke-width="0.3" x1="26.63291911575756" x2="22.317208475507996" y1="142.92168965132927" y2="145.44649492493687" /><path d="M 25.769776987707644 143.4266507060508 a86.0,86.0 0 0,1 -11.730757126820373,-40.83630448921669" fill="none" id="id69" stroke="none" /><text fill="#e1ed5e" style="font-size:6.75px; font-family:Arial;" text-anchor="middle"><textPath startOffset="21.46611528233685" xlink:href="#id69">September</textPath></text><path d="M 79.97269907076064 106.31721596034903 l -4.093679163051067 1.291270123555119 a25.292503654277365,25.292503654277365 0 0,0 -0.1273937972815909,-0.41633030047202146 l 4.115299732838787 -1.2206128505310496" fill="#ff1f03" stroke="none" /><path d="M 79.50377843672027 104.57218783832718 l -5.619688719036481 1.2536102001549365 a26.75781554348508,26.75781554348508 0 0,0 -0.09641218260628093,-0.4504056198682546 l 5.640434940367203 -1.1566907608705181" fill="#ff3505" stroke="none" /><path d="M 79.35854240842038 103.8639653848113 l -9.057454025302919 1.6955047226203155 a30.21478212899816,30.21478212899816 0 0,0 -0.09129692476339216,-0.5120416385900779 l 9.0852973924055 -1.5393443332970238" fill="#ff6609" stroke="none" /><path d="M 79.29508885075956 103.50808413554451 l -5.96865288963196 1.0112835723739826 a27.053718838917565,27.053718838917565 0 0,0 -0.07384150961188822,-0.45981115084046065 l 5.985176153605138 -0.9083931918403083" fill="#ff3905" stroke="none" /><path d="M 79.10278846688536 102.07522291339032 l -3.047390650652289 0.30262482122381423 a24.06238004828005,24.06238004828005 0 0,0 -0.03738308874331353,-0.4125192691999271 l 3.052148335672678 -0.25012416347532096" fill="#ff0d01" stroke="none" /><path d="M 79.0235259727143 100.99374915477108 l -4.284084450674214 0.20295619255588998 a25.288889226432104,25.288889226432104 0 0,0 -0.01685669103487116,-0.43499629458713723 l 4.2869432745602865 -0.12918265095475595" fill="#ff1f03" stroke="none" /><path d="M 79.0095281055655 100.63252640178507 l -6.788707324907522 0.2045707518435676 a27.791788890694622,27.791788890694622 0 0,0 -0.01029346627920614,-0.4782969305956093 l 6.791222853871735 -0.08768400545782948" fill="#ff4306" stroke="none" /><line stroke="#e1ed5e" stroke-width="0.3" x1="15.007084014347285" x2="10.007500721073583" y1="101.09737516637583" y2="101.16192664675087" /><path d="M 14.007167355692545 101.11028546245083 a86.0,86.0 0 0,1 10.666146001902534,-42.60595125391555" fill="none" id="id70" stroke="none" /><text fill="#e1ed5e" style="font-size:6.75px; font-family:Arial;" text-anchor="middle"><textPath startOffset="22.20632615414155" xlink:href="#id70">October</textPath></text><path d="M 79.00486145842228 99.54816195383935 l -6.678817026103473 -0.14373535234182322 a27.680363517031275,27.680363517031275 0 0,0 0.014352012169154845,-0.47627341280149876 l 6.675353319478672 0.2586789125683164" fill="#ff4206" stroke="none" /><path d="M 79.05617556472873 98.46500227214037 l -5.454777147250544 -0.39978708534766166 a26.46940796062769,26.46940796062769 0 0,0 0.03721537776332599,-0.45412187180779995 l 5.447087285667721 0.49362287436324" fill="#ff3004" stroke="none" /><path d="M 79.21141760316559 97.0276538004421 l -6.366427454405649 -0.9102701707907348 a27.4311733234334,27.4311733234334 0 0,0 0.0708561661352996,-0.4668536044724506 l 6.3498153948310465 1.0197228876552775" fill="#ff3e05" stroke="none" /><path d="M 79.26566170972629 96.67025291283419 l -14.776434698943854 -2.3729616884173352 a35.965759906762116,35.965759906762116 0 0,0 0.10342406141809339,-0.610414664990039 l 14.733398776005538 2.6269621417232023" fill="#ffb410" stroke="none" /><path d="M 79.32604984820605 96.31383870115002 l -15.262567189226388 -2.721312767078623 a36.503273860121126,36.503273860121126 0 0,0 0.11561851598695372,-0.6176387355661168 l 15.213462949329573 2.9836295801073125" fill="#ffbb11" stroke="none" /><path d="M 80.52162464483688 92.15188598940014 l -6.358883419938493 -2.5620844218181698 a27.85563089240458,27.85563089240458 0 0,0 0.183022521964507,-0.44320355415327106 l 6.313839211087787 2.671162546424752" fill="#ff4406" stroke="none" /><path d="M 80.65960295795068 91.81776055985345 l -10.785803603693877 -4.563092859362905 a32.711335355996965,32.711335355996965 0 0,0 0.22385346590992114,-0.5166846628237529 l 10.705659427941274 4.748076666773258" fill="#ff880c" stroke="none" /><path d="M 81.26839172434947 90.50648371742162 l -6.124299514899562 -3.103905244466612 a27.86595021208473,27.86595021208473 0 0,0 0.2205265743465906,-0.4259871494387899 l 6.069963507392857 3.2088651161657378" fill="#ff4506" stroke="none" /><path d="M 81.6062741919709 89.86733742301443 l -5.888041875409139 -3.243581109414986 a27.72234003453599,27.72234003453599 0 0,0 0.23384765250528497,-0.4159888803846373 l 5.831336581611423 3.3444534997344078" fill="#ff4206" stroke="none" /><line stroke="#e1ed5e" stroke-width="0.3" x1="26.266209847984243" x2="21.928928074336255" y1="57.711370442889674" y2="55.22380399835377" /><path d="M 25.398753493254645 57.213857153982495 a86.0,86.0 0 0,1 29.58750427330803,-30.492523968695096" fill="none" id="id71" stroke="none" /><text fill="#e1ed5e" style="font-size:6.75px; font-family:Arial;" text-anchor="middle"><textPath startOffset="21.46611528233685" xlink:href="#id71">November</textPath></text><path d="M 81.96595687620814 89.24020034530311 l -6.41210056999412 -3.8257043650895923 a28.46666241427751,28.46666241427751 0 0,0 0.2546874353886801,-0.4186391782268477 l 6.345297336319223 3.9355113165235145" fill="#ff4d07" stroke="none" /><path d="M 82.15384107792192 88.93136811851018 l -3.9919630907159873 -2.475914852521355 a25.697437990498074,25.697437990498074 0 0,0 0.23638266033070626,-0.3739006012245128 l 3.9487528341393183 2.544263101460083" fill="#ff2503" stroke="none" /><path d="M 82.34701348167596 88.62581576622439 l -2.808202650605842 -1.8093830344578021 a24.340639024536085,24.340639024536085 0 0,0 0.22996498476220328,-0.35025244878357453 l 2.776641030485719 1.8574535472190437" fill="#ff1101" stroke="none" /><path d="M 83.39014120810768 87.1503855733568 l -24.01335256798701 -18.577058688800676 a51.36030650506666,51.36030650506666 0 0,0 0.5469772842524325,-0.6946056045876997 l 23.690021203140606 18.987656687341424" fill="#90ff24" stroke="none" /><path d="M 84.5562425177563 85.77008943001954 l -4.927112129211742 -4.539851460861132 a27.69975262382936,27.69975262382936 0 0,0 0.32610876294977253,-0.3478700910388704 l 4.848236044291514 4.6239909687780525" fill="#ff4206" stroke="none" /><path d="M 87.22198572758235 83.33499621200491 l -2.373365049377238 -3.0953273877259018 a24.900501672196985,24.900501672196985 0 0,0 0.3423864586282153,-0.2578783822230751 l 2.3197324369906327 3.135722359454831" fill="#ff1a02" stroke="none" /><path d="M 87.80319425747018 82.90503203632743 l -3.7454330916296734 -5.249576000724913 a27.448745399786038,27.448745399786038 0 0,0 0.38698660811299523,-0.27110884966805376 l 3.654515343933018 5.313269693156909" fill="#ff3f05" stroke="none" /><path d="M 88.39885842347998 82.49532879139004 l -3.7795141135332084 -5.702813938552536 a27.84155053713307,27.84155053713307 0 0,0 0.40175751743069105,-0.2613142649493145 l 3.6807895703182303 5.767027127661386" fill="#ff4406" stroke="none" /><path d="M 89.00827224532344 82.1063720568725 l -4.201866424742958 -6.840292640898134 a29.02778206383976,29.02778206383976 0 0,0 0.4280048790729393,-0.2578681506621708 l 4.083499479452369 6.911607401018924" fill="#ff5507" stroke="none" /><line stroke="#e1ed5e" stroke-width="0.3" x1="56.762969772571076" x2="54.21961505331055" y1="26.818313649435495" y2="22.513508569990535" /><path d="M 56.25429882871897 25.957352633546506 a86.0,86.0 0 0,1 42.265352541879196,-11.944610805530505" fill="none" id="id72" stroke="none" /><text fill="#e1ed5e" style="font-size:6.75px; font-family:Arial;" text-anchor="middle"><textPath startOffset="22.20632615414155" xlink:href="#id72">December</textPath></text><path d="M 89.3179101791058 81.91981866633112 l -18.72944930162865 -31.700897982606257 a57.82036398578764,57.82036398578764 0 0,0 0.8612570849904237,-0.4988956939247124 l 18.180995484172907 32.018597833921014" fill="#4bff2c" stroke="none" /><path d="M 89.94658935756843 81.56283822128135 l -3.107205633716288 -5.698369934953458 a27.490465835807143,27.490465835807143 0 0,0 0.4174033907138809,-0.2229624357245153 l 3.008657196474102 5.751011097179723" fill="#ff3f05" stroke="none" /><path d="M 91.23893434514133 80.91482961587045 l -6.254100831033477 -13.623979623255725 a35.99088382916834,35.99088382916834 0 0,0 0.5652589075735585,-0.25361519492658735 l 6.018659804993145 13.72961514869884" fill="#ffb410" stroke="none" /><path d="M 92.23578459929587 80.48803036053334 l -2.358424536616035 -5.926871625850563 a27.37886930139073,27.37886930139073 0 0,0 0.4393876132305822,-0.1704755676373256 l 2.2560537583857765 5.96658989737844" fill="#ff3e05" stroke="none" /><path d="M 92.91201910852362 80.23233633223022 l -2.307198745940408 -6.434544551226967 a27.835680627047584,27.835680627047584 0 0,0 0.4524199393884912,-0.1578404333542702 l 2.196096802488632 6.473305837753447" fill="#ff4406" stroke="none" /><path d="M 93.94186890950719 79.89281104454417 l -1.0695210233525807 -3.5497847417219655 a24.70740433888121,24.70740433888121 0 0,0 0.4082719523930745,-0.11918577845762181 l 1.0082588532360848 3.5676688490982857" fill="#ff1702" stroke="none" /><path d="M 94.63758080256005 79.69619591428918 l -1.647600423858811 -6.238332921367627 a27.452238742833288,27.452238742833288 0 0,0 0.45791786749103747,-0.11673346039009841 l 1.539973667682774 6.265769377926588" fill="#ff3f05" stroke="none" /><path d="M 95.33964822691252 79.52364482259891 l -1.5106096896524353 -6.6372201168098925 a27.806954716571703,27.806954716571703 0 0,0 0.4676299227281364,-0.10220578872279848 l 1.396137042770778 6.6622394036285595" fill="#ff4406" stroke="none" /><path d="M 96.04723909329186 79.375362276772 l -1.2775529851304948 -6.665990711916966 a27.787309761693443,27.787309761693443 0 0,0 0.4705382344134947,-0.0859878547343637 l 1.1626196296141067 6.686994048002067" fill="#ff4306" stroke="none" /><path d="M 96.40284397218896 79.31037775812273 l -0.9150912848524181 -5.263294906880037 a26.34225283344042,26.34225283344042 0 0,0 0.44740534429492296,-0.07382571532557944 l 0.8243567344186095 5.278266885145244" fill="#ff2f04" stroke="none" /><path d="M 96.75951476605007 79.25152402106235 l -1.042218265668536 -6.673210673351851 a27.75410686947062,27.75410686947062 0 0,0 0.47265378747719144,-0.0696568818670021 l 0.9271954977626958 6.690162039379822" fill="#ff4306" stroke="none" /><path d="M 97.11714578562143 79.19881850522333 l -0.919819733910915 -6.636942351135344 a27.700378505367134,27.700378505367134 0 0,0 0.47286560518722087,-0.061391526887042434 l 0.8054394002158364 6.651792201186524" fill="#ff4206" stroke="none" /><path d="M 97.83486435360386 79.11191278185805 l -0.6519539586095937 -6.289708070862579 a27.323406643639217,27.323406643639217 0 0,0 0.4682384520638788,-0.04446488304936517 l 0.5435903794554786 6.299998498427125" fill="#ff3d05" stroke="none" /><path d="M 98.19473922651362 79.07773832637324 l -3.408363529468768 -39.50159150950478 a60.64836281276685,60.64836281276685 0 0,0 1.0408697598492263,-0.08079152611362725 l 2.7279035802572076 39.55440829780687" fill="#2fff30" stroke="none" /><path d="M 98.91598698831166 79.02799685794201 l -0.14540320560429273 -2.813062621867547 a23.816817957687064,23.816817957687064 0 0,0 0.40960295946348846,-0.01763836505721304 l 0.09695941375148015 2.8151487134489526" fill="#ff0a01" stroke="none" /></svg>