<?xml version="1.0" encoding="utf-8" ?>
<svg baseProfile="full" height="200mm" version="1.1" viewBox="0,0,200,200" width="200mm" xmlns="http://www.w3.org/2000/svg" xmlns:ev="http://www.w3.org/2001/xml-events" xmlns:xlink="http://www.w3.org/1999/xlink"><defs /><rect fill="#1a1a1a" height="200" width="200" x="0" y="0" /><text alignment-baseline="middle" fill="#e1ed5e" style="dominant-baseline: central; font-size:9.0px; font-family:Arial;" text-anchor="middle" x="100.0" y="100.0">2019</text><line stroke="#e1ed5e" stroke-width="0.3" x1="100.0" x2="100.0" y1="15.0" y2="10.0" /><path d="M 100.0 14.0 a86.0,86.0 0 0,1 42.46469731375804,11.215312516191453" fill="none" id="id1" stroke="none" /><text fill="#e1ed5e" style="font-size:6.75px; font-family:Arial;" text-anchor="middle"><textPath startOffset="22.20632615414155" xlink:href="#id1">January</textPath></text><line stroke="#e1ed5e" stroke-width="0.3" x1="143.23703022742887" x2="145.7803849466894" y1="26.81831364943548" y2="22.513508569990506" /><path d="M 143.74570117128098 25.957352633546492 a86.0,86.0 0 0,1 28.547481713284135,27.462654790039103" fill="none" id="id2" stroke="none" /><text fill="#e1ed5e" style="font-size:6.75px; font-family:Arial;" text-anchor="middle"><textPath startOffset="19.985693538727396" xlink:href="#id2">February</textPath></text><line stroke="#e1ed5e" stroke-width="0.3" x1="172.23445277983987" x2="176.4835382374775" y1="55.19839476539836" y2="52.563006222186495" /><path d="M 173.08426987136738 54.67131705675599 a86.0,86.0 0 0,1 12.851231095245387,41.99856678651699" fill="none" id="id3" stroke="none" /><text fill="#e1ed5e" style="font-size:6.75px; font-family:Arial;" text-anchor="middle"><textPath startOffset="22.20632615414155" xlink:href="#id3">March</textPath></text><path d="M 120.67395015179393 96.31383870115 l 17.43556081407605 -3.1087571085690993 a38.71053787047201,38.71053787047201 0 0,0 0.11131701531184356,0.6569993256654385 l -17.48648969090812 2.8081719945878234" fill="#ffa40f" stroke="none" /><path d="M 120.83666639777658 97.38593545837742 l 8.282060266339078 -1.039026092778853 a29.346981339187707,29.346981339187707 0 0,0 0.05856769658741049,0.5017722576713831 l -8.298718315930078 0.8963100967826173" fill="#ff1502" stroke="none" /><path d="M 120.94382443527127 98.46500227214037 l 7.145269631703961 -0.5236852841040329 a28.16443468715697,28.16443468715697 0 0,0 0.03127514150472572,0.48381259637282276 l -7.153225364213102 0.40061362347817486" fill="#ff0200" stroke="none" /><line stroke="#e1ed5e" stroke-width="0.3" x1="184.98032266829074" x2="189.97916517819016" y1="98.17113171792111" y2="98.06355123074" /><path d="M 185.9800911702706 98.14961562048488 a86.0,86.0 0 0,1 -9.607161424134198,41.387399972396054" fill="none" id="id4" stroke="none" /><text fill="#e1ed5e" style="font-size:6.75px; font-family:Arial;" text-anchor="middle"><textPath startOffset="21.466115282336823" xlink:href="#id4">April</textPath></text><path d="M 120.95626037817324 101.35467743843564 l 15.755151188815418 1.0184616658447532 a36.7880351262349,36.7880351262349 0 0,0 -0.04628888038154061,0.6315749961194339 l -15.735285749769538 -1.2895097984609574" fill="#ff870c" stroke="none" /><path d="M 120.89721153311464 102.0752229133903 l 16.82558140454401 1.6708847496946047 a37.90834248079034,37.90834248079034 0 0,0 -0.07007212423877077,0.6487808437546219 l -16.794326978804186 -1.960261915334018" fill="#ff980e" stroke="none" /><line stroke="#e1ed5e" stroke-width="0.3" x1="174.80103733775053" x2="179.2010983576182" y1="140.37084112569926" y2="142.7455964860345" /><path d="M 175.68104954172406 140.8457921977663 a86.0,86.0 0 0,1 -30.038265399797805,32.042727171017184" fill="none" id="id5" stroke="none" /><text fill="#e1ed5e" style="font-size:6.75px; font-family:Arial;" text-anchor="middle"><textPath startOffset="22.206326154141568" xlink:href="#id5">May</textPath></text><path d="M 118.12598468904814 110.60418214915192 l 17.214711254626184 10.071063002685236 a40.94423710208562,40.94423710208562 0 0,0 -0.36112646386916447,0.6052687254001119 l -17.038803915058793 -10.365893821971452" fill="#ffc412" stroke="none" /><path d="M 117.35343817320211 111.8261652097733 l 19.72120147169719 13.43976821259966 a44.86531284302964,44.86531284302964 0 0,0 -0.4404045185404329,0.6344355558785992 l -19.486936045994618 -13.777245030665279" fill="#fffa17" stroke="none" /><path d="M 115.07121518719521 114.62390073753431 l 12.546662566376334 12.174276969644373 a38.48232711306257,38.48232711306257 0 0,0 -0.4653784638115136,0.47142592683718815 l -12.335243477509284 -12.388443390462227" fill="#ffa00e" stroke="none" /><path d="M 113.75828350139079 115.86535959552629 l 14.212865645618962 16.389560829143566 a42.69385290889133,42.69385290889133 0 0,0 -0.5593596606274981,0.4766984378354338 l -13.928640508414416 -16.631783657201947" fill="#ffdc14" stroke="none" /><path d="M 113.20401910651253 116.32954008644616 l 17.444958722940154 21.57435175416751 a48.74489571899012,48.74489571899012 0 0,0 -0.6569941667397249,0.5219559005979809 l -17.07100706348308 -21.871441568770614" fill="#d1ff1c" stroke="none" /><path d="M 112.34349029814194 116.9893568818739 l 4.776158430400696 6.5738181129094935 a29.125686059275523,29.125686059275523 0 0,0 -0.40813778404273804,0.291195472184225 l -4.662293318509073 -6.655057846937938" fill="#ff1101" stroke="none" /><line stroke="#e1ed5e" stroke-width="0.3" x1="143.8653032363475" x2="146.44561519142675" y1="172.8068346515853" y2="177.08958963109032" /><path d="M 144.38136562736335 173.6633856474863 a86.0,86.0 0 0,1 -40.68145358897372,12.25698825130547" fill="none" id="id6" stroke="none" /><text fill="#e1ed5e" style="font-size:6.75px; font-family:Arial;" text-anchor="middle"><textPath startOffset="21.466115282336833" xlink:href="#id6">June</textPath></text><path d="M 109.2508944713604 118.85261126421891 l 5.124040999175035 10.442401365449905 a32.631833150384196,32.631833150384196 0 0,0 -0.5063952877923936,0.24310051173130934 l -4.943533043382408 -10.529056153680774" fill="#ff4806" stroke="none" /><path d="M 108.92500713936063 119.00905698771935 l 14.839416371009376 31.605947990448403 a55.91624588364434,55.91624588364434 0 0,0 -0.8747750633007361,0.4015663265539361 l -14.29317331194122 -31.85670138733641" fill="#79ff26" stroke="none" /><path d="M 106.57524785965236 119.94407469862006 l 10.941183567998925 33.18685272847218 a55.94390779363337,55.94390779363337 0 0,0 -0.9171568250261216,0.29364465251543154 l -10.368305397881864 -33.37027022764732" fill="#78ff26" stroke="none" /><path d="M 105.18746579009965 120.34920634021253 l 10.369237325764512 40.67607546161033 a62.97694840834248,62.97694840834248 0 0,0 -1.0527548036021375,0.25874151732828776 l -9.667529237419163 -40.84853823725265" fill="#30ff36" stroke="none" /><path d="M 103.41894727170886 120.7198165907248 l 4.112869720159979 24.92518880546137 a46.262239297475304,46.262239297475304 0 0,0 -0.7868196545818518,0.12288504828221014 l -3.6832142019696095 -24.992292161090685" fill="#f2ff19" stroke="none" /><path d="M 102.34483914955558 120.86867818915974 l 4.721852272074344 42.02369938311037 a63.28814489571899,63.28814489571899 0 0,0 -1.0836359012286696,0.11232329188223414 l -3.9977837742400713 -42.09875204344836" fill="#30ff3b" stroke="none" /><path d="M 101.26447882468166 120.96189622390904 l 2.6945474669094533 44.66885745277124 a65.75005488474204,65.75005488474204 0 0,0 -1.1303121102790694,0.05842422521643418 l -1.9252472882169045 -44.70862148474988" fill="#34ff5b" stroke="none" /><line stroke="#e1ed5e" stroke-width="0.3" x1="102.19456741930631" x2="102.32365962044197" y1="184.97166512339345" y2="189.96999836594603" /><path d="M 102.22038585953345 185.97133177190398 a86.0,86.0 0 0,1 -42.740103519485714,-10.115201625700543" fill="none" id="id7" stroke="none" /><text fill="#e1ed5e" style="font-size:6.75px; font-family:Arial;" text-anchor="middle"><textPath startOffset="22.20632615414155" xlink:href="#id7">July</textPath></text><path d="M 98.73552117531835 120.96189622390904 l -1.6747751370591404 27.763582858143405 a48.81405049396268,48.81405049396268 0 0,0 -0.8382935431114575,-0.05781363079288095 l 2.152431440949528 -27.730640882834237" fill="#d0ff1d" stroke="none" /><path d="M 97.2962882734958 120.8252237178851 l -6.463087845014471 49.78165717940544 a71.19945115257958,71.19945115257958 0 0,0 -1.2140232276632656,-0.16825255714927687 l 7.319039663864568 -49.66303005676357" fill="#3bff9f" stroke="none" /><path d="M 96.22490169976321 120.6578951692458 l -6.144998100352519 33.62633671402262 a55.18320526893524,55.18320526893524 0 0,0 -0.9329440477242802,-0.17880094717190137 l 6.722909762648494 -33.51557856850226" fill="#81ff25" stroke="none" /><path d="M 94.81253420990036 120.34920634021253 l -8.894994852595662 34.89296951047859 a57.00889132821076,57.00889132821076 0 0,0 -0.9488167792348035,-0.25059113505742286 l 9.494302074641956 -34.73468702611759" fill="#6cff28" stroke="none" /><path d="M 94.11515582081647 120.15858648285463 l -7.633502048892631 26.148629689121105 a48.240065861690454,48.240065861690454 0 0,0 -0.7950997156848492,-0.23955702203342272 l 8.082476739017727 -26.013357297981955" fill="#d8ff1c" stroke="none" /><path d="M 92.7421414339146 119.70592522655815 l -7.21324384822582 19.584791108809824 a41.870911086717896,41.870911086717896 0 0,0 -0.6741810439198925,-0.25491758343173593 l 7.549295112905995 -19.457725275271457" fill="#ffd113" stroke="none" /><path d="M 91.40352486487194 119.15986991738527 l -17.070278286988632 38.04632786009874 a62.70032930845225,62.70032930845225 0 0,0 -0.9809078501785061,-0.45028668352504686 l 17.722654132934558 -37.746854106239624" fill="#30ff33" stroke="none" /><path d="M 90.7491055286396 118.85261126421891 l -13.922037673145002 28.372041759872808 a52.60373216245884,52.60373216245884 0 0,0 -0.8094614518857746,-0.4058807761196187 l 14.408353032713537 -28.128193142843887" fill="#a0ff22" stroke="none" /><path d="M 90.10565033884886 118.52300852407294 l -19.71267248626708 36.903688771890636 a62.83863885839737,62.83863885839737 0 0,0 -0.9496928812800065,-0.5178482802446525 l 20.344988179415726 -36.558899839886216" fill="#30ff35" stroke="none" /><line stroke="#e1ed5e" stroke-width="0.3" x1="58.666819895761336" x2="56.23545636021788" y1="174.27360380694188" y2="178.64263932499728" /><path d="M 58.180547188652646 175.14741091055294 a86.0,86.0 0 0,1 -31.652253787137756,-30.449443065178592" fill="none" id="id8" stroke="none" /><text fill="#e1ed5e" style="font-size:6.75px; font-family:Arial;" text-anchor="middle"><textPath startOffset="22.20632615414155" xlink:href="#id8">August</textPath></text><path d="M 89.7882731507175 118.34994917583269 l -21.790995603737837 39.157300985531016 a65.81229418221734,65.81229418221734 0 0,0 -0.9851512299011562,-0.5593945792056229 l 22.461795600560198 -38.77640324053076" fill="#34ff5c" stroke="none" /><path d="M 89.1626897886671 117.98757091392108 l -18.093906510908173 30.031937826645397 a56.061470911086715,56.061470911086715 0 0,0 -0.8222904344287872,-0.5051179458544285 l 18.60817614526927 -29.71603141396259" fill="#77ff27" stroke="none" /><path d="M 88.24862548938628 117.40417183066458 l -31.500391388494705 46.653114830387366 a77.2919868276619,77.2919868276619 0 0,0 -1.0962326738303414,-0.7539988290437142 l 32.29878094694794 -46.10397521197856" fill="#44ffe5" stroke="none" /><path d="M 87.65650970185807 116.9893568818739 l -16.336494239813096 22.485255315560217 a48.79330406147091,48.79330406147091 0 0,0 -0.6752413096762074,-0.49952737815865084 l 16.721120519907867 -22.200717988661797" fill="#d0ff1d" stroke="none" /><path d="M 87.36589467227662 116.77436683061367 l -22.67482130716543 30.105477242649112 a58.689352360043905,58.689352360043905 0 0,0 -0.8017280540675991,-0.6147308844209924 l 23.189678089726517 -29.710707016400754" fill="#59ff2a" stroke="none" /><path d="M 86.51685102203217 116.09983520530335 l -33.9668791486676 40.55886036901336 a73.90340285400659,73.90340285400659 0 0,0 -0.9682560725509952,-0.82516883089486 l 34.66000069779565 -39.96816714789555" fill="#3fffbf" stroke="none" /><path d="M 85.97065885151581 115.62618273729859 l -42.08802344545257 46.878548211895755 a84.0,84.0 0 0,0 -1.0676018021325722,-0.9752289336536868 l 42.88872479705201 -46.147126511655486" fill="#4dd2ff" stroke="none" /><path d="M 85.44109423537348 115.13401014063109 l -32.02639643502914 33.2914998044179 a67.1953896816685,67.1953896816685 0 0,0 -0.8266634344945772,-0.8090641602422717 l 32.594709821899514 -32.73528554125306" fill="#36ff6d" stroke="none" /><path d="M 84.4343377721795 114.09645910891817 l -33.57467209403654 30.405644510454664 a66.29637760702525,66.29637760702525 0 0,0 -0.7587498884867097,-0.8524635431671438 l 34.09308083217159 -29.823206797546653" fill="#35ff62" stroke="none" /><path d="M 83.95833913139862 113.55231037782056 l -34.073121603450815 28.785642789333473 a65.60482985729968,65.60482985729968 0 0,0 -0.7213532209692596,-0.8689164239892819 l 34.56357082431361 -28.19486510823043" fill="#34ff59" stroke="none" /><path d="M 83.06392112726016 112.41649034213515 l -33.57470740303858 24.614908406033006 a62.631174533479694,62.631174533479694 0 0,0 -0.6299509375581499,-0.8749467552022516 l 33.99343813297234 -24.033328045379616" fill="#30ff32" stroke="none" /><path d="M 82.6465618267979 111.8261652097733 l -17.42963329141594 11.878091291923782 a42.09220636663008,42.09220636663008 0 0,0 -0.40287632219539665,-0.6022454387049032 l 17.631512719022066 -11.576308939013055" fill="#ffd413" stroke="none" /><line stroke="#e1ed5e" stroke-width="0.3" x1="26.63291911575756" x2="22.317208475507996" y1="142.92168965132927" y2="145.44649492493687" /><path d="M 25.769776987707644 143.4266507060508 a86.0,86.0 0 0,1 -11.730757126820373,-40.83630448921669" fill="none" id="id9" stroke="none" /><text fill="#e1ed5e" style="font-size:6.75px; font-family:Arial;" text-anchor="middle"><textPath startOffset="21.46611528233685" xlink:href="#id9">September</textPath></text><path d="M 81.87401531095188 110.60418214915194 l -42.14142214204604 24.65385048507553 a69.82327113062568,69.82327113062568 0 0,0 -0.5979798064263989,-1.0426281963723252 l 42.55955394462482 -23.9248024428449" fill="#39ff8e" stroke="none" /><path d="M 81.51974371655577 109.97397251340807 l -42.96507443285938 23.188664965310966 a69.82327113062568,69.82327113062568 0 0,0 -0.5617365011929968,-1.0625937643294443 l 43.357863442277264 -22.4456561858954" fill="#39ff8e" stroke="none" /><path d="M 81.18737489456691 109.33194174019688 l -6.319059585359521 3.1345490367730466 a28.053787047200878,28.053787047200878 0 0,0 -0.21086661547737323,-0.4344476845117985 l 6.372079457451614 -3.025312396295963" fill="#ff0000" stroke="none" /><path d="M 80.87730276802145 108.67885076344099 l -44.20680611476049 20.063292763783462 a69.54665203073546,69.54665203073546 0 0,0 -0.4853658039140819,-1.0943717549961982 l 44.545613003405855 -19.299372672294567" fill="#39ff8b" stroke="none" /><path d="M 80.58989483394504 108.01547362559985 l -46.213521520497466 19.08404203504508 a70.99890230515916,70.99890230515916 0 0,0 -0.4567507662867679,-1.1336179440660368 l 46.53517490104162 -18.285724723136237" fill="#3bff9c" stroke="none" /><path d="M 79.58551787078972 104.9243191809786 l -34.0166672581133 8.205396835044478 a55.99231613611416,55.99231613611416 0 0,0 -0.21794191586682934,-0.9388880694844273 l 34.152869739910685 -7.618640108211476" fill="#78ff26" stroke="none" /><path d="M 79.04373962182676 101.35467743843564 l -35.19547571745889 2.2751443258029975 a56.26893523600439,56.26893523600439 0 0,0 -0.05416192918060953,-0.9670976294458801 l 35.22942399752703 -1.66897498002168" fill="#75ff27" stroke="none" /><line stroke="#e1ed5e" stroke-width="0.3" x1="15.007084014347285" x2="10.007500721073583" y1="101.09737516637583" y2="101.16192664675087" /><path d="M 14.007167355692545 101.11028546245083 a86.0,86.0 0 0,1 10.666146001902534,-42.60595125391555" fill="none" id="id10" stroke="none" /><text fill="#e1ed5e" style="font-size:6.75px; font-family:Arial;" text-anchor="middle"><textPath startOffset="22.20632615414155" xlink:href="#id10">October</textPath></text><path d="M 79.21141760316559 97.0276538004421 l -35.666909205545764 -5.099645565212956 a57.02963776070253,57.02963776070253 0 0,0 0.147310559419502,-0.9705925312205975 l 35.57384275268696 5.712837208825645" fill="#6cff28" stroke="none" /><path d="M 79.62865764111835 94.90015583598534 l -44.40997357271015 -11.117772239004497 a66.78046103183314,66.78046103183314 0 0,0 0.2887576581467833,-1.1127010485015822 l 44.21201958269306 11.880569713054943" fill="#35ff68" stroke="none" /><path d="M 81.10775173730289 90.83032412892265 l -46.84696907292291 -22.737977818620976 a73.0735455543359,73.0735455543359 0 0,0 0.55897778149032,-1.1268650981979056 l 46.448631278479176 23.541002505317845" fill="#3effb5" stroke="none" /><line stroke="#e1ed5e" stroke-width="0.3" x1="26.266209847984243" x2="21.928928074336255" y1="57.711370442889674" y2="55.22380399835377" /><path d="M 25.398753493254645 57.213857153982495 a86.0,86.0 0 0,1 29.58750427330803,-30.492523968695096" fill="none" id="id11" stroke="none" /><text fill="#e1ed5e" style="font-size:6.75px; font-family:Arial;" text-anchor="middle"><textPath startOffset="21.46611528233685" xlink:href="#id11">November</textPath></text><path d="M 83.39014120810768 87.1503855733568 l -44.08632114028062 -34.105782309136416 a76.73874862788145,76.73874862788145 0 0,0 0.8172527614738424,-1.0378280137544502 l 43.4927142982128 34.859602716843916" fill="#43ffdf" stroke="none" /><path d="M 86.93701828274178 83.55741782278169 l -20.47633138555955 -25.773882929821895 a53.91767288693743,53.91767288693743 0 0,0 0.7316562606828797,-0.5710693168022939 l 20.029642569717247 26.122530635847408" fill="#90ff24" stroke="none" /><line stroke="#e1ed5e" stroke-width="0.3" x1="56.76296977257108" x2="54.21961505331056" y1="26.818313649435495" y2="22.513508569990535" /><path d="M 56.25429882871898 25.957352633546506 a86.0,86.0 0 0,1 42.26535254187918,-11.944610805530505" fill="none" id="id12" stroke="none" /><text fill="#e1ed5e" style="font-size:6.75px; font-family:Arial;" text-anchor="middle"><textPath startOffset="22.20632615414155" xlink:href="#id12">December</textPath></text><path d="M 96.40284397218896 79.31037775812273 l -1.836089520232855 -10.56056459107896 a31.718990120746433,31.718990120746433 0 0,0 0.5387255898494987,-0.08889433830414188 l 1.6540347242444706 10.590605192322728" fill="#ff3a05" stroke="none" /></svg>