<?xml version="1.0" encoding="utf-8" ?>
<svg baseProfile="full" height="200mm" version="1.1" viewBox="0,0,200,200" width="200mm" xmlns="http://www.w3.org/2000/svg" xmlns:ev="http://www.w3.org/2001/xml-events" xmlns:xlink="http://www.w3.org/1999/xlink"><defs /><rect fill="#1a1a1a" height="200" width="200" x="0" y="0" /><text alignment-baseline="middle" fill="#e1ed5e" style="dominant-baseline: central; font-size:9.0px; font-family:Arial;" text-anchor="middle" x="100.0" y="100.0">2023</text><line stroke="#e1ed5e" stroke-width="0.3" x1="100.0" x2="100.0" y1="15.0" y2="10.0" /><path d="M 100.0 14.0 a86.0,86.0 0 0,1 42.46469731375804,11.215312516191453" fill="none" id="id1" stroke="none" /><text fill="#e1ed5e" style="font-size:6.75px; font-family:Arial;" text-anchor="middle"><textPath startOffset="22.20632615414155" xlink:href="#id1">January</textPath></text><line stroke="#e1ed5e" stroke-width="0.3" x1="143.23703022742887" x2="145.7803849466894" y1="26.81831364943548" y2="22.513508569990506" /><path d="M 143.74570117128098 25.957352633546492 a86.0,86.0 0 0,1 28.547481713284135,27.462654790039103" fill="none" id="id2" stroke="none" /><text fill="#e1ed5e" style="font-size:6.75px; font-family:Arial;" text-anchor="middle"><textPath startOffset="19.985693538727396" xlink:href="#id2">February</textPath></text><path d="M 117.2510076193507 88.02491185347247 l 29.523713340344642 -20.494401107727576 a56.9398125505305,56.9398125505305 0 0,0 0.5519787030807813,0.8099606361765234 l -29.872116509094155 19.98316244828065" fill="#c6ff1e" stroke="none" /><line stroke="#e1ed5e" stroke-width="0.3" x1="172.23445277983987" x2="176.4835382374775" y1="55.19839476539836" y2="52.563006222186495" /><path d="M 173.08426987136738 54.67131705675599 a86.0,86.0 0 0,1 12.851231095245387,41.99856678651699" fill="none" id="id3" stroke="none" /><text fill="#e1ed5e" style="font-size:6.75px; font-family:Arial;" text-anchor="middle"><textPath startOffset="22.20632615414155" xlink:href="#id3">March</textPath></text><path d="M 120.08093135843002 93.85539295169968 l 30.24797142506902 -9.255641339426242 a52.632367472825806,52.632367472825806 0 0,0 0.25763319034554044,0.8686110415256777 l -30.402810512526262 8.733600911154035" fill="#ffef16" stroke="none" /><path d="M 120.91429891909075 98.10471618934814 l 18.956825584583147 -1.7178947652419554 a40.03450547476219,40.03450547476219 0 0,0 0.056287592341600814,0.6868511978107716 l -18.98358766074424 1.391329650223415" fill="#ff0000" stroke="none" /><line stroke="#e1ed5e" stroke-width="0.3" x1="184.98032266829074" x2="189.97916517819016" y1="98.17113171792111" y2="98.06355123074" /><path d="M 185.9800911702706 98.14961562048488 a86.0,86.0 0 0,1 -9.607161424134198,41.387399972396054" fill="none" id="id4" stroke="none" /><text fill="#e1ed5e" style="font-size:6.75px; font-family:Arial;" text-anchor="middle"><textPath startOffset="21.466115282336823" xlink:href="#id4">April</textPath></text><path d="M 120.99980553446 99.90962569577887 l 31.51134143979336 -0.1356115204506354 a52.511633245830296,52.511633245830296 0 0,0 -0.003890118579674375,0.903926557257711 l -31.509007023924184 -0.40682451501076033" fill="#ffed16" stroke="none" /><path d="M 120.9904718944345 100.63252640178507 l 31.55641845544768 0.9509203947025437 a52.570742711130194,52.570742711130194 0 0,0 -0.03504182249447516,0.9042737337444199 l -31.535374500102 -1.4939713754609698" fill="#ffee16" stroke="none" /><path d="M 120.95626037817324 101.35467743843564 l 31.448509640348448 2.032928858174431 a52.51414854222604,52.51414854222604 0 0,0 -0.06607640587132223,0.9015600601653075 l -31.408856675812785 -2.573962054836509" fill="#ffed16" stroke="none" /><path d="M 120.81339534386255 102.79330883721812 l 31.261538236941284 4.195525505550438 a52.54181680257918,52.54181680257918 0 0,0 -0.1280167580007545,0.8953489072942271 l -31.184687427923926 -4.733019884825075" fill="#ffee16" stroke="none" /><path d="M 120.70491114924044 103.5080841355445 l 33.16563577163108 5.619335425159474 a54.63831634842843,54.63831634842843 0 0,0 -0.16509502651926913,0.92594058475773 l -33.06399430277263 -6.189394760650423" fill="#edff1a" stroke="none" /><path d="M 120.32669344350535 105.2749913415812 l 30.61451166782413 7.944788680133695 a52.628594528232206,52.628594528232206 0 0,0 -0.2351042710534324,0.8749104535254092 l -30.47321932042892 -8.470590066834653" fill="#ffef16" stroke="none" /><path d="M 119.54520255179757 107.68017299344265 l 29.343847970555856 11.530493383729251 a52.52798267240261,52.52798267240261 0 0,0 -0.33792348273212286,0.8386983712380158 l -29.14102187356634 -12.03389112281008" fill="#ffed16" stroke="none" /><path d="M 119.26925614724726 108.34839909993367 l 34.675890684852895 15.02331861545052 a58.79044187369618,58.79044187369618 0 0,0 -0.4102982566275269,0.9251142531187073 l -34.412151343494095 -15.617981205061916" fill="#a9ff21" stroke="none" /><line stroke="#e1ed5e" stroke-width="0.3" x1="174.80103733775053" x2="179.2010983576182" y1="140.37084112569926" y2="142.7455964860345" /><path d="M 175.68104954172406 140.8457921977663 a86.0,86.0 0 0,1 -30.038265399797805,32.042727171017184" fill="none" id="id5" stroke="none" /><text fill="#e1ed5e" style="font-size:6.75px; font-family:Arial;" text-anchor="middle"><textPath startOffset="22.206326154141568" xlink:href="#id5">May</textPath></text><path d="M 118.48025628344425 109.97397251340804 l 27.718447620082117 14.959913457732313 a52.49779911565372,52.49779911565372 0 0,0 -0.4360406960783661,0.7915405199640765 l -27.45683051455224 -15.434824496094194" fill="#ffed16" stroke="none" /><path d="M 118.12598468904814 110.60418214915192 l 43.632843856565614 25.526371773892524 a71.55116931338397,71.55116931338397 0 0,0 -0.6310783296663265,1.0577235800784648 l -43.186984651201065 -26.273657447857094" fill="#37ff79" stroke="none" /><path d="M 117.55443506779139 111.5257021239791 l 22.677070376184172 14.889066904805482 a48.12810045215447,48.12810045215447 0 0,0 -0.4606475587316152,0.6886055988222493 l -22.417419712041838 -15.277209417833538" fill="#ff9e0e" stroke="none" /><path d="M 116.71984013943494 112.70617746262583 l 22.102090973743934 16.79639804361084 a48.760068671584136,48.760068671584136 0 0,0 -0.5135902277206307,0.6638846019883278 l -21.809693928805235 -17.174360639712418" fill="#ffaa0f" stroke="none" /><path d="M 116.27256486870786 113.27417163493432 l 40.7690387974463 33.256909574794726 a73.61308353379181,73.61308353379181 0 0,0 -0.809407402291584,0.974983357812755 l -40.19053539526117 -33.95375418972125" fill="#3bff9a" stroke="none" /><path d="M 115.07121518719521 114.62390073753431 l 38.516012996687046 37.37285573015273 a74.66762154770579,74.66762154770579 0 0,0 -0.9029782141354851,0.9147121635714986 l -37.86699415749602 -38.03030838770489" fill="#3dffaa" stroke="none" /><path d="M 114.0293411484842 115.62618273729858 l 21.03918063416568 23.433893135318566 a52.49276852286224,52.49276852286224 0 0,0 -0.6775507773917226,0.5978597835701277 l -20.632687503867373 -23.792576060660984" fill="#ffed16" stroke="none" /><path d="M 113.48314897796784 116.09983520530334 l 30.50857354307863 36.429398443572914 a68.51709303602263,68.51709303602263 0 0,0 -0.9107222557922112,0.7494624148614871 l -29.876981158741724 -36.94915597729158" fill="#32ff48" stroke="none" /><path d="M 112.92097659922987 116.55440617244103 l 38.762929797689644 49.6632185173231 a84.0,84.0 0 0,0 -1.147485086026025,0.8798426326905142 l -37.90231598317012 -50.32310049184099" fill="#4dd2ff" stroke="none" /><path d="M 111.7513745106137 117.40417183066458 l 17.62547829145886 26.10391256828205 a52.49717029155478,52.49717029155478 0 0,0 -0.7532726501620072,0.4992280378252161 l -17.17353094255689 -26.403438627198582" fill="#ffed16" stroke="none" /><line stroke="#e1ed5e" stroke-width="0.3" x1="143.8653032363475" x2="146.44561519142675" y1="172.8068346515853" y2="177.08958963109032" /><path d="M 144.38136562736335 173.6633856474863 a86.0,86.0 0 0,1 -40.68145358897372,12.25698825130547" fill="none" id="id6" stroke="none" /><text fill="#e1ed5e" style="font-size:6.75px; font-family:Arial;" text-anchor="middle"><textPath startOffset="21.466115282336833" xlink:href="#id6">June</textPath></text><line stroke="#e1ed5e" stroke-width="0.3" x1="102.19456741930631" x2="102.32365962044197" y1="184.97166512339345" y2="189.96999836594603" /><path d="M 102.22038585953345 185.97133177190398 a86.0,86.0 0 0,1 -42.740103519485714,-10.115201625700543" fill="none" id="id7" stroke="none" /><text fill="#e1ed5e" style="font-size:6.75px; font-family:Arial;" text-anchor="middle"><textPath startOffset="22.20632615414155" xlink:href="#id7">July</textPath></text><line stroke="#e1ed5e" stroke-width="0.3" x1="58.666819895761336" x2="56.23545636021788" y1="174.27360380694188" y2="178.64263932499728" /><path d="M 58.180547188652646 175.14741091055294 a86.0,86.0 0 0,1 -31.652253787137756,-30.449443065178592" fill="none" id="id8" stroke="none" /><text fill="#e1ed5e" style="font-size:6.75px; font-family:Arial;" text-anchor="middle"><textPath startOffset="22.20632615414155" xlink:href="#id8">August</textPath></text><line stroke="#e1ed5e" stroke-width="0.3" x1="26.63291911575756" x2="22.317208475507996" y1="142.92168965132927" y2="145.44649492493687" /><path d="M 25.769776987707644 143.4266507060508 a86.0,86.0 0 0,1 -11.730757126820373,-40.83630448921669" fill="none" id="id9" stroke="none" /><text fill="#e1ed5e" style="font-size:6.75px; font-family:Arial;" text-anchor="middle"><textPath startOffset="21.46611528233685" xlink:href="#id9">September</textPath></text><line stroke="#e1ed5e" stroke-width="0.3" x1="15.007084014347285" x2="10.007500721073583" y1="101.09737516637583" y2="101.16192664675087" /><path d="M 14.007167355692545 101.11028546245083 a86.0,86.0 0 0,1 10.666146001902534,-42.60595125391555" fill="none" id="id10" stroke="none" /><text fill="#e1ed5e" style="font-size:6.75px; font-family:Arial;" text-anchor="middle"><textPath startOffset="22.20632615414155" xlink:href="#id10">October</textPath></text><line stroke="#e1ed5e" stroke-width="0.3" x1="26.266209847984243" x2="21.928928074336255" y1="57.711370442889674" y2="55.22380399835377" /><path d="M 25.398753493254645 57.213857153982495 a86.0,86.0 0 0,1 29.58750427330803,-30.492523968695096" fill="none" id="id11" stroke="none" /><text fill="#e1ed5e" style="font-size:6.75px; font-family:Arial;" text-anchor="middle"><textPath startOffset="21.46611528233685" xlink:href="#id11">November</textPath></text><line stroke="#e1ed5e" stroke-width="0.3" x1="56.762969772571076" x2="54.21961505331055" y1="26.818313649435495" y2="22.513508569990535" /><path d="M 56.25429882871897 25.957352633546506 a86.0,86.0 0 0,1 42.265352541879196,-11.944610805530505" fill="none" id="id12" stroke="none" /><text fill="#e1ed5e" style="font-size:6.75px; font-family:Arial;" text-anchor="middle"><textPath startOffset="22.20632615414155" xlink:href="#id12">December</textPath></text></svg>