<?xml version="1.0" encoding="utf-8" ?>
<svg baseProfile="full" height="200mm" version="1.1" viewBox="0,0,200,200" width="200mm" xmlns="http://www.w3.org/2000/svg" xmlns:ev="http://www.w3.org/2001/xml-events" xmlns:xlink="http://www.w3.org/1999/xlink"><defs /><rect fill="#1a1a1a" height="200" width="200" x="0" y="0" /><text alignment-baseline="middle" fill="#e1ed5e" style="dominant-baseline: central; font-size:9.0px; font-family:Arial;" text-anchor="middle" x="100.0" y="100.0">2021</text><line stroke="#e1ed5e" stroke-width="0.3" x1="100.0" x2="100.0" y1="15.0" y2="10.0" /><path d="M 100.0 14.0 a86.0,86.0 0 0,1 42.46469731375804,11.215312516191453" fill="none" id="id73" stroke="none" /><text fill="#e1ed5e" style="font-size:6.75px; font-family:Arial;" text-anchor="middle"><textPath startOffset="22.20632615414155" xlink:href="#id73">January</textPath></text><line stroke="#e1ed5e" stroke-width="0.3" x1="143.23703022742887" x2="145.7803849466894" y1="26.81831364943548" y2="22.513508569990506" /><path d="M 143.74570117128098 25.957352633546492 a86.0,86.0 0 0,1 28.547481713284135,27.462654790039103" fill="none" id="id74" stroke="none" /><text fill="#e1ed5e" style="font-size:6.75px; font-family:Arial;" text-anchor="middle"><textPath startOffset="19.985693538727396" xlink:href="#id74">February</textPath></text><line stroke="#e1ed5e" stroke-width="0.3" x1="172.23445277983987" x2="176.4835382374775" y1="55.19839476539836" y2="52.563006222186495" /><path d="M 173.08426987136738 54.67131705675599 a86.0,86.0 0 0,1 12.851231095245387,41.99856678651699" fill="none" id="id75" stroke="none" /><text fill="#e1ed5e" style="font-size:6.75px; font-family:Arial;" text-anchor="middle"><textPath startOffset="22.20632615414155" xlink:href="#id75">March</textPath></text><line stroke="#e1ed5e" stroke-width="0.3" x1="184.98032266829074" x2="189.97916517819016" y1="98.17113171792111" y2="98.06355123074" /><path d="M 185.9800911702706 98.14961562048488 a86.0,86.0 0 0,1 -9.607161424134198,41.387399972396054" fill="none" id="id76" stroke="none" /><text fill="#e1ed5e" style="font-size:6.75px; font-family:Arial;" text-anchor="middle"><textPath startOffset="21.466115282336823" xlink:href="#id76">April</textPath></text><line stroke="#e1ed5e" stroke-width="0.3" x1="174.80103733775053" x2="179.2010983576182" y1="140.37084112569926" y2="142.7455964860345" /><path d="M 175.68104954172406 140.8457921977663 a86.0,86.0 0 0,1 -30.038265399797805,32.042727171017184" fill="none" id="id77" stroke="none" /><text fill="#e1ed5e" style="font-size:6.75px; font-family:Arial;" text-anchor="middle"><textPath startOffset="22.206326154141568" xlink:href="#id77">May</textPath></text><line stroke="#e1ed5e" stroke-width="0.3" x1="143.8653032363475" x2="146.44561519142675" y1="172.8068346515853" y2="177.08958963109032" /><path d="M 144.38136562736335 173.6633856474863 a86.0,86.0 0 0,1 -40.68145358897372,12.25698825130547" fill="none" id="id78" stroke="none" /><text fill="#e1ed5e" style="font-size:6.75px; font-family:Arial;" text-anchor="middle"><textPath startOffset="21.466115282336833" xlink:href="#id78">June</textPath></text><line stroke="#e1ed5e" stroke-width="0.3" x1="102.19456741930631" x2="102.32365962044197" y1="184.97166512339345" y2="189.96999836594603" /><path d="M 102.22038585953345 185.97133177190398 a86.0,86.0 0 0,1 -42.740103519485714,-10.115201625700543" fill="none" id="id79" stroke="none" /><text fill="#e1ed5e" style="font-size:6.75px; font-family:Arial;" text-anchor="middle"><textPath startOffset="22.20632615414155" xlink:href="#id79">July</textPath></text><line stroke="#e1ed5e" stroke-width="0.3" x1="58.666819895761336" x2="56.23545636021788" y1="174.27360380694188" y2="178.64263932499728" /><path d="M 58.180547188652646 175.14741091055294 a86.0,86.0 0 0,1 -31.652253787137756,-30.449443065178592" fill="none" id="id80" stroke="none" /><text fill="#e1ed5e" style="font-size:6.75px; font-family:Arial;" text-anchor="middle"><textPath startOffset="22.20632615414155" xlink:href="#id80">August</textPath></text><path d="M 87.36589467227662 116.77436683061367 l -28.93588860791903 38.41832860249497 a69.09629530576322,69.09629530576322 0 0,0 -0.9438924805120866,-0.7237365044164907 l 29.5929098169246 -37.91455275625111" fill="#ffa70f" stroke="none" /><path d="M 87.07902340077011 116.55440617244103 l -35.16537783901501 45.05402076102421 a78.15302778764647,78.15302778764647 0 0,0 -1.0533632827021637,-0.8368554984407773 l 35.93569861443453 -44.442031348578304" fill="#35ff62" stroke="none" /><path d="M 86.51685102203217 116.09983520530335 l -39.94395206949095 47.69590893182177 a83.21269191863044,83.21269191863044 0 0,0 -1.090223063512981,-0.9291117466100262 l 40.759040609580985 -47.00127279498879" fill="#4aeaff" stroke="none" /><path d="M 86.24171649860922 115.8653595955263 l -41.19427131745548 47.50315892684139 a83.87700770078746,83.87700770078746 0 0,0 -1.0826430644100702,-0.9553066275912324 l 42.00585673477214 -46.78702915747786" fill="#4cd6ff" stroke="none" /><path d="M 85.97065885151581 115.62618273729859 l -40.680860961990966 45.311220290012706 a81.89367071197876,81.89367071197876 0 0,0 -1.0408313147066754,-0.9507747281122615 l 41.454791826164495 -44.60425279531387" fill="#44ffe9" stroke="none" /><path d="M 85.70375840098266 115.38237550388516 l -41.71307814395057 44.88216199964449 a82.27307201377828,82.27307201377828 0 0,0 -1.029056562504919,-0.9730372103204875 l 42.47947054084631 -44.15749015257807" fill="#46fff6" stroke="none" /><path d="M 85.44109423537348 115.13401014063109 l -43.67671729387956 45.40203042189327 a84.0,84.0 0 0,0 -1.033400190496823,-1.0113995883097213 l 44.45176743675218 -44.64348073066098" fill="#4dd2ff" stroke="none" /><path d="M 85.18274418774928 114.88116024355367 l -39.939078557509795 40.11132935309036 a77.60431731321408,77.60431731321408 0 0,0 -0.938492567516948,-0.9506880160459623 l 40.623611750082276 -39.417900843063734" fill="#32ff4d" stroke="none" /><path d="M 84.9287848128048 114.62390073753433 l -44.35600138723123 43.03951296189554 a82.80497176652727,82.80497176652727 0 0,0 -0.9837760937618546,-1.0314853012243113 l 45.09028403237205 -42.26962054408873" fill="#48f7ff" stroke="none" /><path d="M 84.67929136418377 114.36230785411682 l -44.93339057305735 42.12254169698454 a82.58991887805277,82.58991887805277 0 0,0 -0.9633665377390657,-1.0455441095137672 l 45.65180351879215 -41.34284633266943" fill="#47feff" stroke="none" /><path d="M 84.19399662182784 113.82643327865904 l -45.04752175335179 39.40569535444999 a80.85054755377284,80.85054755377284 0 0,0 -0.9072874826833581,-1.0553803157056596 l 45.71915174560592 -38.624437939582805" fill="#40ffc6" stroke="none" /><path d="M 83.95833913139862 113.55231037782056 l -46.10811649572419 38.953043005031596 a81.35973795615016,81.35973795615016 0 0,0 -0.8945851876994642,-1.0775854874608293 l 46.77179768331719 -38.15359626045701" fill="#42ffd7" stroke="none" /><path d="M 83.50135304334701 112.99209946851258 l -47.08590622745766 37.078481579697254 a80.93243163360623,80.93243163360623 0 0,0 -0.8524620068246878,-1.1019220568558445 l 47.71717505150042 -36.26248152872815" fill="#40ffc8" stroke="none" /><path d="M 82.24976979558568 111.22182372390057 l -51.465116181182104 32.53661812068562 a81.88751680167208,81.88751680167208 0 0,0 -0.7429746438334717,-1.1979116941362966 l 52.01755546468353 -31.645910095184057" fill="#44ffe9" stroke="none" /><path d="M 82.05923443525364 110.91462005526583 l -38.0088357516663 23.12342800953972 a65.49004965281014,65.49004965281014 0 0,0 -0.577619507008229,-0.9681235183577618 l 38.40123613437275 -22.46574239729585" fill="#ff0000" stroke="none" /><line stroke="#e1ed5e" stroke-width="0.3" x1="26.63291911575756" x2="22.317208475507996" y1="142.92168965132927" y2="145.44649492493687" /><path d="M 25.769776987707644 143.4266507060508 a86.0,86.0 0 0,1 -11.730757126820373,-40.83630448921669" fill="none" id="id81" stroke="none" /><text fill="#e1ed5e" style="font-size:6.75px; font-family:Arial;" text-anchor="middle"><textPath startOffset="21.46611528233685" xlink:href="#id81">September</textPath></text><path d="M 81.87401531095188 110.60418214915194 l -51.95092113249952 30.39266776155384 a81.18814218913373,81.18814218913373 0 0,0 -0.6953107289910795,-1.2123328639117261 l 52.466383857642974 -29.49391505178381" fill="#41ffd1" stroke="none" /><line stroke="#e1ed5e" stroke-width="0.3" x1="15.007084014347285" x2="10.007500721073583" y1="101.09737516637583" y2="101.16192664675087" /><path d="M 14.007167355692545 101.11028546245083 a86.0,86.0 0 0,1 10.666146001902534,-42.60595125391555" fill="none" id="id82" stroke="none" /><text fill="#e1ed5e" style="font-size:6.75px; font-family:Arial;" text-anchor="middle"><textPath startOffset="22.20632615414155" xlink:href="#id82">October</textPath></text><line stroke="#e1ed5e" stroke-width="0.3" x1="26.266209847984243" x2="21.928928074336255" y1="57.711370442889674" y2="55.22380399835377" /><path d="M 25.398753493254645 57.213857153982495 a86.0,86.0 0 0,1 29.58750427330803,-30.492523968695096" fill="none" id="id83" stroke="none" /><text fill="#e1ed5e" style="font-size:6.75px; font-family:Arial;" text-anchor="middle"><textPath startOffset="21.46611528233685" xlink:href="#id83">November</textPath></text><line stroke="#e1ed5e" stroke-width="0.3" x1="56.762969772571076" x2="54.21961505331055" y1="26.818313649435495" y2="22.513508569990535" /><path d="M 56.25429882871897 25.957352633546506 a86.0,86.0 0 0,1 42.265352541879196,-11.944610805530505" fill="none" id="id84" stroke="none" /><text fill="#e1ed5e" style="font-size:6.75px; font-family:Arial;" text-anchor="middle"><textPath startOffset="22.20632615414155" xlink:href="#id84">December</textPath></text></svg>