<?xml version="1.0" encoding="utf-8" ?>
<svg baseProfile="full" height="200mm" version="1.1" viewBox="0,0,200,200" width="200mm" xmlns="http://www.w3.org/2000/svg" xmlns:ev="http://www.w3.org/2001/xml-events" xmlns:xlink="http://www.w3.org/1999/xlink"><defs /><rect fill="#1a1a1a" height="200" width="200" x="0" y="0" /><text alignment-baseline="middle" fill="#e1ed5e" style="dominant-baseline: central; font-size:9.0px; font-family:Arial;" text-anchor="middle" x="100.0" y="100.0">2022</text><line stroke="#e1ed5e" stroke-width="0.3" x1="100.0" x2="100.0" y1="15.0" y2="10.0" /><path d="M 100.0 14.0 a86.0,86.0 0 0,1 42.46469731375804,11.215312516191453" fill="none" id="id97" stroke="none" /><text fill="#e1ed5e" style="font-size:6.75px; font-family:Arial;" text-anchor="middle"><textPath startOffset="22.20632615414155" xlink:href="#id97">January</textPath></text><path d="M 100.0 79.0 l 0.0 -41.34854224904504 a62.34854224904504,62.34854224904504 0 0,0 1.0732276635299183,0.009237609330067767 l -0.7117471842573899 41.34241601632353" fill="#32ff4a" stroke="none" /><path d="M 100.36148047927253 79.00311137660856 l 0.1496483749822956 -8.69244798086549 a29.69373605167464,29.69373605167464 0 0,0 0.5109773957442441,0.013197038601913739 l -0.2992524059214075 8.688584150121217" fill="#ff6c09" stroke="none" /><path d="M 100.72285384407766 79.0124445844662 l 0.6486252750648379 -18.83238086906626 a39.84354754140063,39.84354754140063 0 0,0 0.6852315459384928,0.029507511790957612 l -0.9726976533926622 18.818425630751108" fill="#ffef16" stroke="none" /><path d="M 101.08401301168833 79.027996857942 l 0.5349492795011196 -10.34946799491441 a31.363284156549817,31.363284156549817 0 0,0 0.5389077712719283,0.03250838845640937 l -0.71301909961266 10.338726337077697" fill="#ff820c" stroke="none" /><path d="M 101.44485096284872 79.0497635885617 l 1.2978552913727615 -18.818809608214554 a39.86351036863427,39.86351036863427 0 0,0 0.6841523915862775,0.05310339289571284 l -1.62159787232138 18.793680953130377" fill="#fff016" stroke="none" /><path d="M 101.80526077348638 79.07773832637324 l 1.8037172708528146 -20.9043730857465 a41.98204494564949,41.98204494564949 0 0,0 0.7194420518717746,0.06831969172175648 l -2.1632844498148334 20.870227849509565" fill="#f5ff19" stroke="none" /><path d="M 102.16513564639614 79.11191278185805 l 1.9398371989349363 -18.714526578412674 a39.81479400398756,39.81479400398756 0 0,0 0.6810856999587465,0.07652791417787605 l -2.261689602403408 18.678362710764198" fill="#ffef16" stroke="none" /><path d="M 102.52436894288641 79.15227682838746 l 1.5623684757831706 -12.90295761519653 a33.997203948299,33.997203948299 0 0,0 0.5803569946371473,0.07534699426117467 l -1.784240198928164 12.87415229777122" fill="#ffa50f" stroke="none" /><path d="M 102.88285421437855 79.19881850522331 l 5.905359616329475 -42.61001356174153 a64.01728173571608,64.01728173571608 0 0,0 1.0902174160633398,0.1606697074520713 l -6.6379460128214705 42.502049370128496" fill="#34ff5d" stroke="none" /><path d="M 103.59715602781102 79.31037775812273 l 3.3471909077610458 -19.25190759522438 a40.54071731099082,40.54071731099082 0 0,0 0.686498898560782,0.12545328572145334 l -3.6780849274247287 19.191438828152187" fill="#fff817" stroke="none" /><path d="M 103.95276090670814 79.375362276772 l 3.564625443664503 -18.599432176586728 a39.93793631431551,39.93793631431551 0 0,0 0.6740641031598156,0.13521091782801103 l -3.884255956291444 18.53531730268151" fill="#fff016" stroke="none" /><path d="M 104.307194497241 79.44645832069477 l 3.841130899242956 -18.3295284398762 a39.7276773630194,39.7276773630194 0 0,0 0.6681008720586422,0.14602097354415894 l -4.156074495455126 18.26069396823617" fill="#ffee16" stroke="none" /><path d="M 104.66035177308747 79.52364482259891 l 2.1139037790306614 -9.287935052509125 a30.52545677259772,30.52545677259772 0 0,0 0.5113396493928234,0.12101757428980794 l -2.2734671153860084 9.250171566078448" fill="#ff770a" stroke="none" /><path d="M 105.36241919743992 79.69619591428918 l 1.9012543530009647 -7.198746401412594 a28.445583782797417,28.445583782797417 0 0,0 0.4723350051107257,0.12910699945494788 l -2.024887247335401 7.164952861131352" fill="#ff5a08" stroke="none" /><path d="M 105.71112130821622 79.79150937346287 l 11.622049398817555 -41.12398663276026 a63.73469677908105,63.73469677908105 0 0,0 1.053169678703443,0.3074491090276493 l -12.328209295244426 40.91783919481391" fill="#34ff5a" stroke="none" /><path d="M 106.40334571778207 80.00007090966166 l 3.5790285638099584 -11.178580798740313 a32.73755145396744,32.73755145396744 0 0,0 0.535207798660464,0.17644959647362862 l -3.7709191847128403 11.115317478007448" fill="#ff940d" stroke="none" /><path d="M 106.74666289553966 80.11325718540242 l 3.6879678985111513 -10.870806833207977 a32.479353136190646,32.479353136190646 0 0,0 0.5278946534174199,0.18417207909410332 l -3.874544555991845 10.805713900941667" fill="#ff910d" stroke="none" /><path d="M 107.08798089147638 80.2323363322302 l 4.032190613723228 -11.245372852552455 a32.9464208756565,32.9464208756565 0 0,0 0.5321908696932397,0.19601038865152426 l -4.225163809189044 11.174299196094605" fill="#ff970d" stroke="none" /><path d="M 107.4271985657038 80.35727306442388 l 15.116566307443179 -39.97881321656833 a63.7412690865934,63.7412690865934 0 0,0 1.0229467031651558,0.39688742839752517 l -15.802496175608002 39.71268308428025" fill="#34ff5a" stroke="none" /><path d="M 107.76421540070413 80.48803036053334 l 4.8718039098906285 -12.243154661912145 a34.17684747623371,34.17684747623371 0 0,0 0.544740101757754,0.2222131651163774 l -5.08182788123677 12.157480610612188" fill="#ffa70f" stroke="none" /><path d="M 108.09893153111575 80.62456947434976 l 4.488573065544138 -10.7382109919843 a32.63857652262942,32.63857652262942 0 0,0 0.5164918619558785,0.22113486067915653 l -4.6727486852903315 10.659356603342353" fill="#ff930d" stroke="none" /><path d="M 108.43124777332544 80.76684994638697 l 7.231322578966709 -16.495910924047084 a39.011304879302045,39.011304879302045 0 0,0 0.6126964729113314,0.27489904772180707 l -7.51420117034482 16.368991545808747" fill="#ffe515" stroke="none" /><path d="M 108.76106565485865 80.91482961587045 l 8.084440551666372 -17.611205242292915 a40.378150817856515,40.378150817856515 0 0,0 0.6291719397635053,0.2954046619936174 l -8.386390702729475 17.469435597659295" fill="#fff617" stroke="none" /><path d="M 109.08828744355905 81.06846463323043 l 8.602847611313408 -17.92033040547509 a40.878310513342825,40.878310513342825 0 0,0 0.6317231579832996,0.309983810078852 l -8.91004203630714 17.769591435261407" fill="#fffc17" stroke="none" /><path d="M 109.41281617654863 81.2277094730956 l 7.107544335158921 -14.174810671951253 a36.85693678053592,36.85693678053592 0 0,0 0.564682517559128,0.2892523178817591 l -7.350487340306804 14.050365828756993" fill="#ffca12" stroke="none" /><path d="M 109.73455568895987 81.39251694778311 l 9.057910749402406 -17.314084601637067 a40.54029868596653,40.54029868596653 0 0,0 0.6155464310115346,0.3288035857234802 l -9.354602226942253 17.15560228941183" fill="#fff817" stroke="none" /><path d="M 110.05341064243156 81.56283822128135 l 21.26730842153665 -39.00256538918616 a65.4240758422109,65.4240758422109 0 0,0 0.9840899787275538,0.5476450077102705 l -21.93552248933624 38.630704983915706" fill="#36ff6e" stroke="none" /><path d="M 110.36928655335952 81.73862282372117 l 4.944821960657395 -8.708338652658359 a31.014311075255414,31.014311075255414 0 0,0 0.461970373556031,0.26760305848800114 l -5.093989066678754 8.621931436780308" fill="#ff7d0b" stroke="none" /><line stroke="#e1ed5e" stroke-width="0.3" x1="143.23703022742887" x2="145.7803849466894" y1="26.81831364943548" y2="22.513508569990506" /><path d="M 143.74570117128098 25.957352633546492 a86.0,86.0 0 0,1 28.547481713284135,27.462654790039103" fill="none" id="id98" stroke="none" /><text fill="#e1ed5e" style="font-size:6.75px; font-family:Arial;" text-anchor="middle"><textPath startOffset="19.985693538727396" xlink:href="#id98">February</textPath></text><path d="M 110.68208982089419 81.91981866633111 l 8.607447034144819 -14.568703859135075 a37.92144428176229,37.92144428176229 0 0,0 0.5591389358784695,0.33687495261852324 l -8.856948036240928 14.418382297057939" fill="#ffd714" stroke="none" /><path d="M 110.99172775467656 82.1063720568725 l 6.760546504088209 -11.005613178956086 a33.91621115028518,33.91621115028518 0 0,0 0.49482273907360336,0.3098579538127651 l -6.948988395534076 10.887610883820376" fill="#ffa40f" stroke="none" /><path d="M 111.2981086023043 82.29822771554956 l 11.07092370138615 -17.345821078449625 a41.57772729160101,41.57772729160101 0 0,0 0.5999724934430457,0.3902387990560149 l -11.367863220613476 17.152683355234082" fill="#faff18" stroke="none" /><path d="M 111.60114157652 82.49532879139004 l 11.225411432294923 -16.937741428946275 a41.31986581004266,41.31986581004266 0 0,0 0.5894875154495435,0.3980246018470996 l -11.515303642151007 16.742004914800503" fill="#fdff18" stroke="none" /><path d="M 111.90073688211348 82.69761687909136 l 10.802539144978025 -15.705722495717342 a40.062123992128065,40.062123992128065 0 0,0 0.5648165426765634,0.3956900831922834 l -11.07128682723824 15.517447569761124" fill="#fff216" stroke="none" /><path d="M 112.19680574252982 82.90503203632743 l 24.596273439160658 -34.47398567659479 a63.348935707099216,63.348935707099216 0 0,0 0.8822234738830419,0.6409728729806529 l -25.18604222939749 34.04549356879746" fill="#33ff55" stroke="none" /><path d="M 112.77801427241765 83.33499621200491 l 12.32657576616286 -16.076240600195067 a41.258084360430374,41.258084360430374 0 0,0 0.5598671847242149,0.43698521814338237 l -12.601475506046505 15.861676992828459" fill="#fdff18" stroke="none" /><path d="M 113.06298171725822 83.55741782278167 l 12.617442808006006 -15.881775288937279 a41.28375333466667,41.28375333466667 0 0,0 0.552605845565555,0.4468354959533995 l -12.888952052136052 15.662233695719749" fill="#fdff18" stroke="none" /><path d="M 113.34407831869373 83.78471172551755 l 12.019057766004519 -14.605166562189261 a39.91477305948567,39.91477305948567 0 0,0 0.5267656436868441,0.44115107761880873 l -12.26868094665048 14.396114327176633" fill="#fff016" stroke="none" /><path d="M 113.6212207817346 84.01681056812373 l 8.709302314269623 -10.219526644418936 a34.42723618759016,34.42723618759016 0 0,0 0.4477281761087336,0.3882654623347832 l -8.88392428902512 10.068096188664482" fill="#ffab0f" stroke="none" /><path d="M 113.89432698308785 84.25364557470407 l 10.481017325521117 -11.878071801981244 a36.84109572949093,36.84109572949093 0 0,0 0.47189761695987403,0.4236743398427268 l -10.683925930076981 11.695898453369221" fill="#ffca12" stroke="none" /><path d="M 114.16331599549186 84.49514656593476 l 12.474634256150617 -13.656221173540786 a39.496185459856044,39.496185459856044 0 0,0 0.49801326333078494,0.46284905281981137 l -12.707855403276248 13.439467534646333" fill="#ffeb16" stroke="none" /><path d="M 114.42810811169701 84.74124197986012 l 12.239892552452465 -12.944563293019113 a38.81506914223347,38.81506914223347 0 0,0 0.4815226624711609,0.4632244197873513 l -12.460898458536045 12.731955786469461" fill="#ffe315" stroke="none" /><path d="M 114.68862486808459 84.99185889309783 l 9.526079471135064 -9.733296764151238 a34.61922376603813,34.61922376603813 0 0,0 0.4222955121359795,0.42048204100179576 l -9.692210783438368 9.567878872499325" fill="#ffad10" stroke="none" /><path d="M 114.94478906791727 85.2469230424477 l 14.712049179326264 -14.523322661799382 a41.67296041194028,41.67296041194028 0 0,0 0.4995511129986178,0.5148313337276175 l -14.959864556027991 14.26792713252165" fill="#f8ff18" stroke="none" /><path d="M 115.19652480421416 85.50635884689758 l 12.335523440377523 -11.764969457420664 a38.046396829891776,38.046396829891776 0 0,0 0.44791964655374444,0.47780944864934694 l -12.536210408901729 11.550890591893262" fill="#ffd914" stroke="none" /><path d="M 115.4437574822437 85.77008943001954 l 9.663072430117927 -8.903575225777569 a34.139582207619284,34.139582207619284 0 0,0 0.39448508235192664,0.43560028077684204 l -9.814901153085888 8.735922157731178" fill="#ffa70f" stroke="none" /><path d="M 115.9244219780498 86.31012108654704 l 41.9622901677076 -36.07406737393216 a76.33689666956295,76.33689666956295 0 0,0 0.8480279901114126,1.0037976584946413 l -42.57702877130613 35.346410765808415" fill="#43ffe3" stroke="none" /><path d="M 116.15771136456269 86.58626213691792 l 13.91428202532934 -11.551297546390717 a39.08423952743536,39.08423952743536 0 0,0 0.42527655562218114,0.5213387719268306 l -14.111057073027931 11.310074604855787" fill="#ffe615" stroke="none" /><path d="M 116.38621287248628 86.86637796730983 l 13.705608685670287 -10.985105930595479 a38.564630988185456,38.564630988185456 0 0,0 0.4107058263765353,0.521554691668525 l -13.892668592640787 10.747558844973915" fill="#ffdf14" stroke="none" /><path d="M 116.60985879189232 87.15038557335679 l 15.11094752558255 -11.690036125999645 a40.10491245067839,40.10491245067839 0 0,0 0.4177099651508988,0.5496573507268346 l -15.309933430957562 11.428193999391777" fill="#fff316" stroke="none" /><path d="M 116.82858285166822 87.43820079747576 l 15.251005417177824 -11.384206820968652 a40.03137754282061,40.03137754282061 0 0,0 0.40743819302300777,0.5557452373951317 l -15.444706222714458 11.119999139902028" fill="#fff216" stroke="none" /><path d="M 117.04232023915458 87.72973835380427 l 10.196752193863981 -7.341536575088916 a33.56470909278994,33.56470909278994 0 0,0 0.33354910512472014,0.4717815546792424 l -10.321613918792583 7.16492852007788" fill="#ff9f0e" stroke="none" /><path d="M 117.2510076193507 88.02491185347247 l 15.593751471625994 -10.824674855415383 a39.98258861916098,39.98258861916098 0 0,0 0.3875941353377579,0.5687465670039008 l -15.777770072632485 10.554650265141076" fill="#fff116" stroke="none" /><path d="M 117.45458315368197 88.32363383020206 l 52.36374946104589 -35.02909850939381 a84.0,84.0 0 0,0 0.7936134585683003,1.208727744089304 l -52.95895955497212 34.12255270132683" fill="#4dd2ff" stroke="none" /><path d="M 117.65298651832404 88.62581576622439 l 10.763282566314519 -6.935005515489925 a33.804005353880704,33.804005353880704 0 0,0 0.31095242717731997,0.4918520644076103 l -10.881062589737795 6.748705803368108" fill="#ffa30f" stroke="none" /><line stroke="#e1ed5e" stroke-width="0.3" x1="172.23445277983987" x2="176.4835382374775" y1="55.19839476539836" y2="52.563006222186495" /><path d="M 173.08426987136738 54.67131705675599 a86.0,86.0 0 0,1 12.851231095245387,41.99856678651699" fill="none" id="id99" stroke="none" /><text fill="#e1ed5e" style="font-size:6.75px; font-family:Arial;" text-anchor="middle"><textPath startOffset="22.20632615414155" xlink:href="#id99">March</textPath></text><path d="M 117.84615892207809 88.93136811851018 l 11.19096224896795 -6.940913284159627 a34.16867165951256,34.16867165951256 0 0,0 0.305702552303221,0.5024946169125406 l -11.308780599557393 6.747250894040005" fill="#ffa70f" stroke="none" /><path d="M 118.03404312379186 89.2402003453031 l 7.952619347249042 -4.744836768942713 a30.260541584926365,30.260541584926365 0 0,0 0.2630366243626979,0.44961485561038633 l -8.033115646082068 4.6072425009784315" fill="#ff730a" stroke="none" /><path d="M 118.21658344932153 89.55222093294921 l 16.501869132246608 -9.464336897571151 a40.0232846209197,40.0232846209197 0 0,0 0.33761043052257184,0.6005712843154742 l -16.66233720406161 9.178882103320882" fill="#fff216" stroke="none" /><path d="M 118.3937258080291 89.86733742301442 l 16.806489064069613 -9.258291907106713 a40.18786188448023,40.18786188448023 0 0,0 0.32856811406153424,0.6087868145077053 l -16.96336527734961 8.967624109266549" fill="#fff417" stroke="none" /><path d="M 118.56541770881063 90.18545643968196 l 15.226397078788304 -8.0493819067452 a38.223115777395506,38.223115777395506 0 0,0 0.3024914894015171,0.5843172764164258 l -15.362698001349937 7.78609190806843" fill="#ffdb14" stroke="none" /><path d="M 118.73160827565052 90.50648371742162 l 37.93433162520936 -19.225802165679056 a63.52816695750227,63.52816695750227 0 0,0 0.48596018653080436,0.9796660823535691 l -38.25965182469357 18.569976494826534" fill="#34ff58" stroke="none" /><path d="M 118.89224826269711 90.83032412892265 l 15.810166587749078 -7.673734807076847 a38.57405967389778,38.57405967389778 0 0,0 0.28479008965223757,0.5998405593355097 l -15.939914871243072 7.400451832100797" fill="#ffe014" stroke="none" /><path d="M 119.04729006885535 91.15688171328212 l 16.30328889159623 -7.569156116683381 a38.974686450716476,38.974686450716476 0 0,0 0.2772727548960512,0.6109337615170154 l -16.431163963455628 7.2874003463243024" fill="#ffe515" stroke="none" /><path d="M 119.196687751892 91.48605970444005 l 15.231670587728312 -6.75541195760576 a37.66251420434595,37.66251420434595 0 0,0 0.2577358658022148,0.5948899132667036 l -15.345697163373208 6.492222899752454" fill="#ffd413" stroke="none" /><path d="M 119.34039704204932 91.81776055985345 l 15.592098423066625 -6.596466576900441 a37.930059200568714,37.930059200568714 0 0,0 0.2492155040381495,0.6034951106248412 l -15.703335613990973 6.327096895822296" fill="#ffd714" stroke="none" /><path d="M 119.47837535516314 92.15188598940014 l 15.86973337528595 -6.394140916585836 a38.10945573254222,38.10945573254222 0 0,0 0.23991980277808994,0.6105697287663755 l -15.977446727945742 6.120022182923676" fill="#ffda14" stroke="none" /><path d="M 119.61058180528143 92.48833698450437 l 19.060340955993908 -7.300898037778612 a41.410774348779086,41.410774348779086 0 0,0 0.24924437448953685,0.6678510071252693 l -19.183189918985068 6.971723893624009" fill="#fcff18" stroke="none" /><path d="M 119.7369772167798 92.82701384747503 l 39.71161505630435 -14.43234502247392 a63.25286917154652,63.25286917154652 0 0,0 0.3630923099319099,1.0265108547138035 l -39.95416044704607 13.746636541333501" fill="#33ff54" stroke="none" /><path d="M 119.85752413597 93.16781622104841 l 8.316789000380806 -2.8614761091206438 a29.795284236448722,29.795284236448722 0 0,0 0.16268609159002526,0.48641070677759074 l -8.364812385742601 2.717892299420739" fill="#ff6d0a" stroke="none" /><path d="M 119.97218684219823 93.5106431181261 l 9.674474051857745 -3.143427170142753 a31.172344004901746,31.172344004901746 0 0,0 0.16142006993448088,0.5117457337042042 l -9.727149605560431 2.97643127001213" fill="#ff800b" stroke="none" /><path d="M 120.08093135843002 93.85539295169968 l 9.924873228332169 -3.036933143377115 a31.379117087489043,31.379117087489043 0 0,0 0.15359943763977568,0.5178609453506439 l -9.975678563083648 2.8656428112799412" fill="#ff820c" stroke="none" /><path d="M 120.18372546131832 94.20196356495316 l 5.125175985405974 -1.4722731517707652 a26.33244944793733,26.33244944793733 0 0,0 0.1213966414263239,0.43672830933373485 l -5.149759397398661 1.3838335390180785" fill="#ff3d05" stroke="none" /><path d="M 120.28053869075195 94.5502522615342 l 12.911393714701246 -3.4695251329404266 a34.369431263301074,34.369431263301074 0 0,0 0.14861287763043973,0.5726660405181969 l -12.969202924201989 3.246762666873379" fill="#ffaa0f" stroke="none" /><path d="M 120.37134235888165 94.90015583598534 l 19.092499372980466 -4.779693443289277 a40.681692044107436,40.681692044107436 0 0,0 0.16421300548717563,0.680768923113495 l -19.17194517872846 4.450339288516377" fill="#fffa17" stroke="none" /><path d="M 120.45610955862082 95.25157060432595 l 7.983799146237718 -1.8532608288253887 a29.196073725090855,29.196073725090855 0 0,0 0.10942356569842761,0.49052438922098857 l -8.014517098938184 1.715558270054436" fill="#ff6509" stroke="none" /><path d="M 120.53481517161879 95.60439243477599 l 12.590027844774184 -2.694975395607996 a33.87523566833329,33.87523566833329 0 0,0 0.11714492691808447,0.5712402668265864 l -12.634552067607265 2.477859472617998" fill="#ffa30f" stroke="none" /><path d="M 120.6074358757038 95.95851677861258 l 19.187293490622018 -3.7629681428542487 a40.552804421345854,40.552804421345854 0 0,0 0.12844478235766082,0.6861571633941568 l -19.249223996889537 3.432132901997529" fill="#fff817" stroke="none" /><path d="M 120.67395015179393 96.31383870115 l 15.385486591293478 -2.7432292726061513 a36.628131829907076,36.628131829907076 0 0,0 0.10532879510475977,0.6216565110295189 l -15.43042724791846 2.4779869732607946" fill="#ffc712" stroke="none" /><path d="M 120.73433829027371 96.67025291283417 l 20.701265817431906 -3.324435947327718 a41.966503781314124,41.966503781314124 0 0,0 0.10840169062350608,0.7142317000591766 l -20.755423401494713 2.9676051348764587" fill="#f5ff19" stroke="none" /><path d="M 120.78858239683441 97.02765380044208 l 6.120684125887497 -0.8751338524673263 a27.182930812214018,27.182930812214018 0 0,0 0.062241146227870116,0.4637688342353123 l -6.134841271173203 0.7696466761673496" fill="#ff4906" stroke="none" /><path d="M 120.83666639777658 97.38593545837742 l 42.07875918799706 -5.278991862179823 a63.40860443214805,63.40860443214805 0 0,0 0.12654439182316154,1.0841550697831073 l -42.16339393282381 4.553893054071863" fill="#33ff56" stroke="none" /><path d="M 120.87857604477298 97.74499172005257 l 14.468736089465429 -1.5627080894861614 a35.55288220936131,35.55288220936131 0 0,0 0.060478625847597244,0.609011508794773 l -14.493491840995254 1.3134210499869534" fill="#ffb911" stroke="none" /><path d="M 120.91429891909075 98.10471618934814 l 20.581876567614312 -1.8651592196488624 a41.66621547258114,41.66621547258114 0 0,0 0.05858173900552918,0.7148455979711102 l -20.610932790439335 1.5105997044699835" fill="#f8ff18" stroke="none" /><path d="M 120.94382443527127 98.46500227214037 l 10.254614455465191 -0.7515728532706134 a31.28211940136901,31.28211940136901 0 0,0 0.03473716840805869,0.5373686202380066 l -10.266032214877665 0.5749451687795716" fill="#ff810b" stroke="none" /><path d="M 120.96714384426684 98.82574320788733 l 7.187285820985328 -0.40252116620332207 a28.198548517706776,28.198548517706776 0 0,0 0.022970258009078544,0.48486584186173287 l -7.193149687227903 0.2787442177185894" fill="#ff5708" stroke="none" /><path d="M 120.98425023603335 99.18683210126433 l 20.33388828052665 -0.7879654988963412 a41.34914991424433,41.34914991424433 0 0,0 0.02143915134598238,0.7114610591721674 l -20.34443912632828 0.4378342922991747" fill="#fcff18" stroke="none" /><line stroke="#e1ed5e" stroke-width="0.3" x1="184.98032266829074" x2="189.97916517819016" y1="98.17113171792111" y2="98.06355123074" /><path d="M 185.9800911702706 98.14961562048488 a86.0,86.0 0 0,1 -9.607161424134198,41.387399972396054" fill="none" id="id100" stroke="none" /><text fill="#e1ed5e" style="font-size:6.75px; font-family:Arial;" text-anchor="middle"><textPath startOffset="21.466115282336823" xlink:href="#id100">April</textPath></text><path d="M 120.99513854157772 99.54816195383933 l 13.515621310346743 -0.2908707610297885 a34.51875087440852,34.51875087440852 0 0,0 0.00767136974458165,0.5941560408639227 l -13.51862568720904 0.05817846210540302" fill="#ffac0f" stroke="none" /><path d="M 120.99980553446 99.90962569577887 l 12.90230607880759 -0.05552608250618628 a33.90242555867205,33.90242555867205 0 0,0 -0.002511528349240401,0.5835907383507188 l -12.901350253168847 -0.16657413404821725" fill="#ffa40f" stroke="none" /><path d="M 120.99824983174949 100.27111621757518 l 15.779458381893793 0.20373445911742755 a36.780773572792626,36.780773572792626 0 0,0 -0.013622788154576924,0.6329974358250028 l -15.773613531054208 -0.4753217107325452" fill="#ffc912" stroke="none" /><path d="M 120.9904718944345 100.63252640178507 l 15.817218807112903 0.4766357111277228 a36.82439864238791,36.82439864238791 0 0,0 -0.02454585904907045,0.6334195549836693 l -15.80667081521263 -0.7488325131253982" fill="#ffca12" stroke="none" /><path d="M 120.9764740272857 100.99374915477107 l 18.856425852649647 0.8933130147945338 a39.87757410471153,39.87757410471153 0 0,0 -0.03838434716234222,0.6853783037295476 l -18.838255154599775 -1.2177630348595048" fill="#fff016" stroke="none" /><path d="M 120.95626037817324 101.35467743843564 l 5.8548259048973605 0.3784740414656163 a26.867046017948088,26.867046017948088 0 0,0 -0.03380570544370435,0.461251992021322 l -5.847443640789319 -0.4791991699837086" fill="#ff4406" stroke="none" /><path d="M 120.92983693683757 101.71520430193887 l 13.733413879665562 1.1254560003403704 a34.77945238385375,34.77945238385375 0 0,0 -0.054033032156450625,0.5962500073464826 l -13.712006251232037 -1.3616873962354237" fill="#ffaf10" stroke="none" /><path d="M 120.89721153311464 102.0752229133903 l 6.898848785071942 0.6850985382480016 a27.93278259910104,27.93278259910104 0 0,0 -0.051632682531836595,0.4780545145766385 l -6.886033801039053 -0.8037493747094315" fill="#ff5307" stroke="none" /><path d="M 119.54520255179757 107.68017299344265 l 16.888280749745718 6.636151115658072 a39.14531698020406,39.14531698020406 0 0,0 -0.25182999943291773,0.625021406164565 l -16.771548136055408 -6.9258718896654505" fill="#ffe715" stroke="none" /><path d="M 119.41010516605496 108.01547362559984 l 8.67870725058602 3.58390376951847 a30.38958602764483,30.38958602764483 0 0,0 -0.20382587495074728,0.48178415919345646 l -8.615730394442965 -3.73276245437809" fill="#ff750a" stroke="none" /><path d="M 119.26925614724726 108.34839909993367 l 9.852975498587954 4.2687985024181145 a31.737959155725154,31.737959155725154 0 0,0 -0.22149908889077355,0.4994219713969767 l -9.778035324965908 -4.437768810307778" fill="#ff870c" stroke="none" /><path d="M 119.12269723197855 108.67885076344098 l 16.891364460443697 7.6661586785952505 a39.5496140720216,39.5496140720216 0 0,0 -0.2866883407595374,0.617501181003936 l -16.75690150284433 -7.955779926878017" fill="#ffec16" stroke="none" /><path d="M 118.97047184881838 109.00673069616215 l 9.750725934740913 4.629413716547362 a31.793893070314617,31.793893070314617 0 0,0 -0.2389791657471031,0.4923678647297815 l -9.669593512379095 -4.796570537242419" fill="#ff880c" stroke="none" /><path d="M 118.81262510543309 109.33194174019688 l 11.352605804916866 5.631423332850504 a33.67259197305765,33.67259197305765 0 0,0 -0.26203903676101337,0.5170278791793381 l -11.253988098369582 -5.8260054237325365" fill="#ffa10e" stroke="none" /><path d="M 118.64920377521936 109.65438752849418 l 6.1728332688608125 3.1955747411346436 a27.950940115648574,27.950940115648574 0 0,0 -0.22486862977595445,0.42536670358037676 l -6.116912130859966 -3.3013564598011547" fill="#ff5407" stroke="none" /><line stroke="#e1ed5e" stroke-width="0.3" x1="174.80103733775053" x2="179.2010983576182" y1="140.37084112569926" y2="142.7455964860345" /><path d="M 175.68104954172406 140.8457921977663 a86.0,86.0 0 0,1 -30.038265399797805,32.042727171017184" fill="none" id="id101" stroke="none" /><text fill="#e1ed5e" style="font-size:6.75px; font-family:Arial;" text-anchor="middle"><textPath startOffset="22.206326154141568" xlink:href="#id101">May</textPath></text><path d="M 118.48025628344425 109.97397251340804 l 10.151630874999245 5.478933071085969 a32.535784196129775,32.535784196129775 0 0,0 -0.2702384905142755,0.490561356359117 l -10.055815975033461 -5.652864945842891" fill="#ff920d" stroke="none" /><path d="M 118.30583269289576 110.29060199501025 l 13.386231977095035 7.5250543255879245 a36.35635533411659,36.35635533411659 0 0,0 -0.31136275876265035,0.5428872147477214 l -13.254717222180004 -7.754361386193961" fill="#ffc412" stroke="none" /><path d="M 118.12598468904814 110.60418214915192 l 15.178046779755949 8.879560227044033 a38.58464369483107,38.58464369483107 0 0,0 -0.34031494841202525,0.570387428417814 l -15.022950955645696 -9.139509749347951" fill="#ffe015" stroke="none" /><path d="M 117.94076556474637 110.91462005526583 l 10.072155125483109 6.127595053600522 a32.789645033363186,32.789645033363186 0 0,0 -0.2975041348376879,0.4796713927371242 l -9.965186350977458 -6.3000627777029194" fill="#ff950d" stroke="none" /><path d="M 117.75023020441432 111.22182372390056 l 15.681650439637368 9.91405265773253 a39.5526979334886,39.5526979334886 0 0,0 -0.3687726616996981,0.5723433603246938 l -15.508672914560618 -10.182517617978677" fill="#ffec16" stroke="none" /><path d="M 117.35343817320211 111.8261652097733 l 14.988304334573655 10.21435415310105 a39.13786915794609,39.13786915794609 0 0,0 -0.38418308780123883,0.5534443917063451 l -14.81026033961028 -10.470839806994414" fill="#ffe715" stroke="none" /><path d="M 117.14729908036423 112.12312394758627 l 15.045640604116304 10.637253427474729 a39.42613528845797,39.42613528845797 0 0,0 -0.39655221340265073,0.5507763409795638 l -14.860308598338051 -10.894663373905423" fill="#ffea16" stroke="none" /><path d="M 116.93607887273984 112.41649034213515 l 9.683831506151078 7.099589065124442 a33.00752920184493,33.00752920184493 0 0,0 -0.33988125257770035,0.45532648042831697 l -9.560188986878286 -7.265228425062073" fill="#ff980e" stroke="none" /><path d="M 116.71984013943494 112.70617746262583 l 14.312852295185548 10.876996415177757 a38.97684042983049,38.97684042983049 0 0,0 -0.4105433994979845,0.530682685658324 l -14.123502078469496 -11.121757094949334" fill="#ffe515" stroke="none" /><path d="M 116.498646956653 112.99209946851258 l 5.911162024961105 4.654830496377176 a28.523914103400255,28.523914103400255 0 0,0 -0.30708314556498706,0.38313344028447666 l -5.830160967341264 -4.755891770239903" fill="#ff5b08" stroke="none" /><path d="M 116.0416608686014 113.55231037782055 l 12.941439267867164 10.933182239074585 a37.941526619425716,37.941526619425716 0 0,0 -0.42577166410415995,0.4952686351979563 l -12.751325094192225 -11.154327973434068" fill="#ffd814" stroke="none" /><path d="M 115.80600337817218 113.82643327865902 l 6.167249561146604 5.394852989073162 a29.19386391900516,29.19386391900516 0 0,0 -0.3341184208335034,0.37538558777150144 l -6.073472290664762 -5.50021274658553" fill="#ff6509" stroke="none" /><path d="M 115.56566222782051 114.09645910891815 l 26.70188245390146 24.181559938376264 a57.024135904074846,57.024135904074846 0 0,0 -0.6651555676496786,0.7218949988636404 l -26.28168047825606 -24.63760619204124" fill="#4eff2b" stroke="none" /><path d="M 115.32070863581623 114.36230785411682 l 4.172272210101359 3.9112719494296146 a26.718907558055037,26.718907558055037 0 0,0 -0.31743773285932386,0.3328321938036695 l -4.104327925863071 -3.9825112598157917" fill="#ff4206" stroke="none" /><path d="M 115.07121518719521 114.62390073753431 l 12.068950545800382 11.71074346665484 a37.81669051326016,37.81669051326016 0 0,0 -0.4573287183436099,0.46327157717749495 l -11.865581202401238 -11.916755537813" fill="#ffd614" stroke="none" /><path d="M 114.81725581225074 114.88116024355365 l 10.582546233822208 10.628187046627106 a35.99828805861112,35.99828805861112 0 0,0 -0.44286473496819334,0.433436353837306 l -10.398031546478222 -10.808773503386984" fill="#ffbf11" stroke="none" /><path d="M 114.55890576462653 115.13401014063108 l 13.15765724365612 13.677409646833288 a39.97881658030407,39.97881658030407 0 0,0 -0.5000477380527864,0.47282634773501897 l -12.920273671212525 -13.901870631314228" fill="#fff116" stroke="none" /><path d="M 114.29624159901734 115.38237550388516 l 11.026897965646452 11.864648759311677 a37.19760380200152,37.19760380200152 0 0,0 -0.4727646292146333,0.43185927964639964 l -10.821033786964955 -12.05270080554466" fill="#ffce13" stroke="none" /><path d="M 114.0293411484842 115.62618273729858 l 12.066958281927153 13.440438378471189 a39.06258193014641,39.06258193014641 0 0,0 -0.5042005498751966,0.4448983628721419 l -11.833815379145369 -13.646159883115619" fill="#ffe615" stroke="none" /><path d="M 113.75828350139079 115.86535959552629 l 9.607609379117916 11.079011247126008 a35.66460528605046,35.66460528605046 0 0,0 -0.46726496087834357,0.3982133367573617 l -9.415478941662524 -11.242748974106316" fill="#ffbb11" stroke="none" /><path d="M 113.48314897796784 116.09983520530334 l 11.098971490448962 13.25295835836121 a38.286644364776386,38.286644364776386 0 0,0 -0.5089021961902457,0.41879186157944953 l -10.869199165714026 -13.44204533879784" fill="#ffdc14" stroke="none" /><path d="M 113.20401910651253 116.32954008644616 l 13.237184087175462 16.370555543696938 a42.052746409127664,42.052746409127664 0 0,0 -0.5667959419886145,0.45029697573121574 l -12.953430652469496 -16.59598643343328" fill="#f4ff19" stroke="none" /><path d="M 112.92097659922987 116.55440617244103 l 12.592738349477322 16.133866032459753 a41.46652614128141,41.46652614128141 0 0,0 -0.5664550037670085,0.43433354200803653 l -12.313154617216819 -16.348238916295163" fill="#fbff18" stroke="none" /><path d="M 112.63410532772338 116.77436683061366 l 1.6223316130780217 2.15397805327429 a23.696586975563672,23.696586975563672 0 0,0 -0.3279325868991667,0.2425966880270931 l -1.5850140557602905 -2.1815846900411517" fill="#ff1702" stroke="none" /><path d="M 112.34349029814194 116.9893568818739 l 9.179389551964324 12.634345820285677 a36.61691028511344,36.61691028511344 0 0,0 -0.5131121921675235,0.36609192513785677 l -8.960550031947916 -12.790482007267753" fill="#ffc712" stroke="none" /><path d="M 112.04921762599082 117.19931262002967 l 11.202372235233728 15.990507279420287 a40.52407403053801,40.52407403053801 0 0,0 -0.5747531646203977,0.39532046750507166 l -10.925462185990446 -16.180968536290454" fill="#fff817" stroke="none" /><path d="M 111.7513745106137 117.40417183066458 l 6.8104161838984725 10.086450176177548 a33.17038396084603,33.17038396084603 0 0,0 -0.4759559971387139,0.3154376818162735 l -6.635785488019795 -10.20218587908514" fill="#ff9a0e" stroke="none" /><path d="M 111.45004920935366 117.60387380957326 l 10.024287257402746 15.41183663787872 a39.3850766539492,39.3850766539492 0 0,0 -0.5714928373445195,0.3647537680410181 l -9.757512618011296 -15.582104834743546" fill="#ffea16" stroke="none" /><path d="M 111.1453310114006 117.79835938074945 l 7.668528317323334 12.246134526965713 a35.44901856203845,35.44901856203845 0 0,0 -0.5199540504330248,0.3193982453120275 l -7.456595066958 -12.376321239106119" fill="#ffb811" stroke="none" /><line stroke="#e1ed5e" stroke-width="0.3" x1="143.8653032363475" x2="146.44561519142675" y1="172.8068346515853" y2="177.08958963109032" /><path d="M 144.38136562736335 173.6633856474863 a86.0,86.0 0 0,1 -40.68145358897372,12.25698825130547" fill="none" id="id102" stroke="none" /><text fill="#e1ed5e" style="font-size:6.75px; font-family:Arial;" text-anchor="middle"><textPath startOffset="21.466115282336833" xlink:href="#id102">June</textPath></text><path d="M 110.8373102113329 117.98757091392108 l 6.174315482197538 10.248016843220853 a32.96428104370014,32.96428104370014 0 0,0 -0.48854968424997813,0.28864376483931764 l -5.996997926919177 -10.35277918035392" fill="#ff970e" stroke="none" /><path d="M 110.5260780823613 118.17145234162733 l 10.013299340242467 17.28622857629862 a40.976983307530276,40.976983307530276 0 0,0 -0.6133888205034088,0.3482981807466909 l -9.71426175281786 -17.45602992283994" fill="#fffd17" stroke="none" /><path d="M 110.21172684928248 118.3499491758327 l 18.222984248770032 32.74576765832953 a58.47482427529475,58.47482427529475 0 0,0 -0.883741681188949,0.48188642750211713 l -17.656619755712434 -33.054594737591415" fill="#40ff2d" stroke="none" /><path d="M 109.89434966115114 118.52300852407294 l 4.07266468356407 7.6243518000526525 a29.64391913403383,29.64391913403383 0 0,0 -0.45215318968571067,0.23654517876408937 l -3.940820591351864 -7.693326397761458" fill="#ff6b09" stroke="none" /><path d="M 109.57404056367764 118.69057910512821 l 4.74480383787897 9.26287400605365 a31.40740113150134,31.40740113150134 0 0,0 -0.4832942354992717,0.24233376270308526 l -4.584655694696937 -9.343175609666037" fill="#ff830c" stroke="none" /><path d="M 109.2508944713604 118.85261126421891 l 6.890553937211969 14.042418835882263 a36.64190718307612,36.64190718307612 0 0,0 -0.5686253986321802,0.2729747466520148 l -6.647815870579556 -14.158947859033837" fill="#ffc712" stroke="none" /><path d="M 108.92500713936063 119.00905698771935 l 8.742848944803656 18.621084692902606 a41.571392826250396,41.571392826250396 0 0,0 -0.6503587144737125,0.29854778773427937 l -8.421022234562525 -18.76881955097096" fill="#faff18" stroke="none" /><path d="M 108.59647513512805 119.15986991738527 l 8.343759835238604 18.596616700700125 a41.382651468857034,41.382651468857034 0 0,0 -0.6524257299610715,0.2860042669901173 l -8.022413430619778 -18.7374855209847" fill="#fcff18" stroke="none" /><path d="M 108.2653958097858 119.30500536409082 l 8.041459480469326 18.78197027440388 a41.431042018571176,41.431042018571176 0 0,0 -0.6580207131406385,0.27505271145984683 l -7.716967307831227 -18.9176080288837" fill="#fbff18" stroke="none" /><path d="M 107.93186726928326 119.44442032107085 l 4.912240702928121 12.042016047835084 a34.00539346655154,34.00539346655154 0 0,0 -0.5438902364913467,0.2164251497151362 l -4.704229390394907 -12.124788041956288" fill="#ffa50f" stroke="none" /><path d="M 107.59598834532513 119.57807347666477 l 5.007737704163649 12.907057286932165 a34.84447776992151,34.84447776992151 0 0,0 -0.5610455036222416,0.21213940271452691 l -4.784821979781133 -12.991344939753322" fill="#ffb010" stroke="none" /><path d="M 107.2578585660854 119.70592522655815 l 6.094180551527871 16.54640486199576 a38.63299607133449,38.63299607133449 0 0,0 -0.6260025179687347,0.22446223084081338 l -5.808458472929401 -16.648854633876535" fill="#ffe015" stroke="none" /><path d="M 106.91757812671514 119.82793768551818 l 2.8798266597865463 8.2544819168463 a29.74241804685408,29.74241804685408 0 0,0 -0.48484428157486653,0.164485504494714 l -2.7373126452744527 -8.302830408239137" fill="#ff6c0a" stroke="none" /><path d="M 106.57524785965236 119.94407469862006 l 3.1865250159769984 9.665383618105427 a31.177110698159275,31.177110698159275 0 0,0 -0.5111244635768156,0.1636459124587288 l -3.019679207309242 -9.718802377223863" fill="#ff800b" stroke="none" /><path d="M 106.2309692047433 120.05430185196036 l 2.334930130013848 7.514945442980053 a28.869326764279975,28.869326764279975 0 0,0 -0.4758284030561572,0.14336319456091118 l -2.205226752517445 -7.5540240066466895" fill="#ff6008" stroke="none" /><path d="M 105.88484417918355 120.15858648285463 l 2.887829402914308 9.892285503888239 a31.305186614068365,31.305186614068365 0 0,0 -0.5185761285572997,0.14655479384723347 l -2.7171221062524027 -9.940529091073993" fill="#ff810b" stroke="none" /><path d="M 105.53697534728816 120.25689768951611 l 2.679534431397584 9.8030154421657 a31.162628426169302,31.162628426169302 0 0,0 -0.5186493553362036,0.136980008674927 l -2.5103946332498834 -9.847686800144212" fill="#ff7f0b" stroke="none" /><path d="M 105.18746579009965 120.34920634021253 l 2.5338957524591033 9.939876154901413 a31.257766114467028,31.257766114467028 0 0,0 -0.5225207676546958,0.12842289182240801 l -2.3624217000611965 -9.982020305037851" fill="#ff810b" stroke="none" /><path d="M 104.83641907484287 120.43548508189849 l 2.4275712891710444 10.257299067226045 a31.540649245588426,31.540649245588426 0 0,0 -0.5294020635303402,0.12049018607436417 l -2.250649076247842 -10.297565986878093" fill="#ff840c" stroke="none" /><path d="M 104.48393922423573 120.51570834832081 l 2.2423106435557845 10.259414521249896 a31.501597180478633,31.501597180478633 0 0,0 -0.5307397171935986,0.11122166802353065 l -2.0653794649328074 -10.296492169999967" fill="#ff840c" stroke="none" /><path d="M 104.13013068566511 120.58985236759428 l 2.0962279399424335 10.450280414139106 a31.658448869809092,31.658448869809092 0 0,0 -0.5352273629146691,0.10257759795445635 l -1.9160329624560597 -10.484815210442031" fill="#ff860c" stroke="none" /><path d="M 103.7750983002368 120.6578951692458 l 0.8930771273117384 4.887049874409834 a25.96798180655853,25.96798180655853 0 0,0 -0.440405877580996,0.07657020697155972 l -0.8088222782586925 -4.901698659902399" fill="#ff3805" stroke="none" /><path d="M 103.41894727170886 120.7198165907248 l 1.727608403814104 10.469810272836297 a31.61138812531695,31.61138812531695 0 0,0 -0.5376406733292765,0.0839684160351324 l -1.5471318668763103 -10.497996996218536" fill="#ff850c" stroke="none" /><path d="M 103.06178313531738 120.77559828337769 l 1.0055061404125967 6.822818835115266 a27.89651357246624,27.89651357246624 0 0,0 -0.4756639959937472,0.0659226955845308 l -0.887913553232019 -6.839116096192399" fill="#ff5307" stroke="none" /><path d="M 102.70371172650421 120.8252237178851 l 1.0014802480895477 7.713858696938058 a28.77859747535765,28.77859747535765 0 0,0 -0.49180235414041146,0.05955041606274369 l -0.868550470897756 -7.7299546417261515" fill="#ff5f08" stroke="none" /><path d="M 101.98527174616119 120.90594882070398 l 0.9703823099734562 10.21863276302046 a31.264604102106645,31.264604102106645 0 0,0 -0.536196420044515,0.04626528331831101 l -0.7943415721873996 -10.233822298617435" fill="#ff810b" stroke="none" /><path d="M 101.62511606390274 120.93702456842531 l 0.8336948122019048 10.740825934439071 a31.773132728868205,31.773132728868205 0 0,0 -0.5456464223211257,0.037630971946226395 l -0.6486856291018487 -10.753585250901583" fill="#ff880c" stroke="none" /><path d="M 101.26447882468166 120.96189622390904 l 0.6705795775575099 11.116532155587567 a32.136739385298085,32.136739385298085 0 0,0 -0.5524641123990033,0.02855608414106759 l -0.479127396745027 -11.126428046490837" fill="#ff8c0c" stroke="none" /><path d="M 100.90346689309514 120.98055641714683 l 0.3035994621674676 7.050270123787711 a28.056803911956315,28.056803911956315 0 0,0 -0.4826834404973723,0.016624593647430137 l -0.18219566999544304 -7.054451515861235" fill="#ff5507" stroke="none" /><line stroke="#e1ed5e" stroke-width="0.3" x1="102.19456741930631" x2="102.32365962044197" y1="184.97166512339345" y2="189.96999836594603" /><path d="M 102.22038585953345 185.97133177190398 a86.0,86.0 0 0,1 -42.740103519485714,-10.115201625700543" fill="none" id="id103" stroke="none" /><text fill="#e1ed5e" style="font-size:6.75px; font-family:Arial;" text-anchor="middle"><textPath startOffset="22.20632615414155" xlink:href="#id103">July</textPath></text><path d="M 100.54218724476979 120.99299961872073 l 0.2771619325157438 10.731459287828415 a31.735037828678323,31.735037828678323 0 0,0 -0.5462058054316861,0.009403428282651359 l -0.09239643719138979 -10.734640193390225" fill="#ff870c" stroke="none" /><path d="M 100.18074693466247 120.99922214144158 l 0.03674114887858797 4.268595472858537 a25.268753591264,25.268753591264 0 0,0 -0.43497616708208386,0.0 l 0.036741148878585025 -4.268595472858537" fill="#ff2e04" stroke="none" /><path d="M 99.81925306533755 120.99922214144158 l -0.07890504605645025 9.16720714137966 a30.167546715411675,30.167546715411675 0 0,0 -0.519227020952182,-0.008938964041364834 l 0.2366917569013002 -9.164490700059135" fill="#ff720a" stroke="none" /><path d="M 99.45781275523022 120.99299961872073 l -0.16165612296193008 6.259178836168781 a27.26126603852881,27.26126603852881 0 0,0 -0.46899717177636596,-0.01615321087987132 l 0.2693736464129391 -6.255468826862815" fill="#ff4a06" stroke="none" /><path d="M 99.09653310690486 120.98055641714683 l -0.33384598447809216 7.75266317505557 a28.75984790103613,28.75984790103613 0 0,0 -0.49441182108987236,-0.0255554437772865 l 0.46724587398145345 -7.745767924516081" fill="#ff5f08" stroke="none" /><path d="M 98.73552117531835 120.96189622390904 l -2.89948139275598 48.06614936664362 a69.15352227286633,69.15352227286633 0 0,0 -1.1875873978523468,-0.08190298006933962 l 3.726431551387257 -48.009118042058" fill="#3bff97" stroke="none" /><path d="M 98.37488393609728 120.93702456842531 l -1.0840818708765365 13.96666322417525 a35.00867285363937,35.00867285363937 0 0,0 -0.6004082122174121,-0.051805746936119126 l 1.3243344008354905 -13.945933224960466" fill="#ffb210" stroke="none" /><path d="M 98.01472825383883 120.90594882070398 l -0.6885248755376192 7.250526703764629 a28.283145198761183,28.283145198761183 0 0,0 -0.48427128947359704,-0.050196699219773704 l 0.8132287616168096 -7.237600636089095" fill="#ff5808" stroke="none" /><path d="M 97.65516085044442 120.86867818915974 l -0.8785667330955461 7.8190977083213955 a28.868301498848343,28.868301498848343 0 0,0 -0.49333532147719733,-0.05973603705855626 l 1.0130294776241329 -7.802816142537491" fill="#ff6008" stroke="none" /><path d="M 97.2962882734958 120.8252237178851 l -0.49946621518326456 3.8471171200509584 a24.879404159854793,24.879404159854793 0 0,0 -0.4242192046643534,-0.05879291627228034 l 0.565614011034449 -3.837949638286073" fill="#ff2803" stroke="none" /><path d="M 96.93821686468263 120.77559828337769 l -1.5228672302615078 10.333350344081017 a31.444963089189145,31.444963089189145 0 0,0 -0.5348101469339188,-0.08352634602489298 l 1.7005132408039438 -10.305605690709019" fill="#ff830c" stroke="none" /><path d="M 96.58105272829116 120.7198165907248 l -0.8301556332263985 5.030985006566307 a26.099016425907305,26.099016425907305 0 0,0 -0.4426281687454643,-0.07695658077598996 l 0.9166327734439127 -5.015949847269311" fill="#ff3a05" stroke="none" /><path d="M 96.22490169976321 120.6578951692458 l -0.9253631323716215 5.0637236600749755 a26.14758139637983,26.14758139637983 0 0,0 -0.44205896173035714,-0.08472165212481703 l 1.0123897086736737 -5.04704480960169" fill="#ff3a05" stroke="none" /><path d="M 95.86986931433489 120.58985236759428 l -0.4049715760604687 2.0188961557796947 a23.059112348862715,23.059112348862715 0 0,0 -0.3885005162326999,-0.08141406049632997 l 0.4396635537225554 -2.0116261145568237" fill="#ff0e01" stroke="none" /><path d="M 95.51606077576429 120.51570834832081 l -1.208595328442823 5.529778177067575 a26.66031353862192,26.66031353862192 0 0,0 -0.44748682539204265,-0.1018465445672034 l 1.3036023032277284 -5.508154898922685" fill="#ff4206" stroke="none" /><path d="M 95.16358092515715 120.4354850818985 l -2.5555243460547876 10.797943445777168 a32.09622851880227,32.09622851880227 0 0,0 -0.5365369330312775,-0.1318677242603622 l 2.7410145638292756 -10.752354463202774" fill="#ff8c0c" stroke="none" /><path d="M 94.81253420990036 120.34920634021253 l -1.8291895453569833 7.175479704342076 a28.404960727800542,28.404960727800542 0 0,0 -0.47275263075860025,-0.12485826656514389 l 1.9524326189270729 -7.142930088473351" fill="#ff5a08" stroke="none" /><path d="M 94.46302465271185 120.25689768951611 l -2.8324354141515578 10.36240019105947 a31.74253359757414,31.74253359757414 0 0,0 -0.5258208611422935,-0.1486022276414305 l 3.010387443398465 -10.312109170079518" fill="#ff870c" stroke="none" /><path d="M 94.11515582081647 120.15858648285463 l -0.9021419045016158 3.0902951799526015 a24.21928319895844,24.21928319895844 0 0,0 -0.39918571506087686,-0.12027138137748966 l 0.9552025940027385 -3.0743084294693865" fill="#ff1f03" stroke="none" /><path d="M 93.76903079525671 120.05430185196036 l -2.7032654945903 8.700428526148729 a30.110713521610975,30.110713521610975 0 0,0 -0.4936417118843934,-0.1580484874539171 l 2.8526285515656333 -8.652607192035104" fill="#ff710a" stroke="none" /><path d="M 93.42475214034765 119.94407469862007 l -3.3932505591749837 10.29242456981665 a31.837349901276916,31.837349901276916 0 0,0 -0.5189946902035769,-0.1760711772673161 l 3.5699149823157867 -10.232490405651209" fill="#ff880c" stroke="none" /><path d="M 93.08242187328487 119.8279376855182 l -3.387527473971467 9.709710888915145 a31.28366801939993,31.28366801939993 0 0,0 -0.5069152523216751,-0.18176177430174376 l 3.554162286922869 -9.649961573573444" fill="#ff810b" stroke="none" /><path d="M 92.7421414339146 119.70592522655815 l -2.239184823623363 6.079645711057879 a27.478891930440703,27.478891930440703 0 0,0 -0.4424491267710456,-0.16729640087797903 l 2.3435041711546916 -6.040201060073267" fill="#ff4d07" stroke="none" /><path d="M 92.40401165467489 119.57807347666478 l -6.782807258862113 17.482162011713033 a39.751865584913276,39.751865584913276 0 0,0 -0.6358006589518744,-0.252998203627121 l 7.082728993855846 -17.362816963679848" fill="#ffee16" stroke="none" /><path d="M 92.06813273071674 119.44442032107085 l -4.1814308616301785 10.25048660759821 a32.07053927065631,32.07053927065631 0 0,0 -0.5093542931462534,-0.21291013584499097 l 4.357256614273894 -10.176991428733247" fill="#ff8c0c" stroke="none" /><path d="M 91.7346041902142 119.30500536409082 l -4.172783156292527 9.746127477651035 a31.601845126206246,31.601845126206246 0 0,0 -0.4982246459026118,-0.21840704329102295 l 4.339928476852882 -9.672855881065558" fill="#ff850c" stroke="none" /><path d="M 91.40352486487194 119.15986991738527 l -4.363423403182989 9.725221498964446 a31.659239982257894,31.659239982257894 0 0,0 -0.49528921732625875,-0.2273629872724248 l 4.530180616276667 -9.648671441357946" fill="#ff860c" stroke="none" /><path d="M 91.07499286063937 119.00905698771935 l -2.605129389168411 5.548572930624277 a27.1297113064781,27.1297113064781 0 0,0 -0.4210109159805626,-0.2021108244619033 l 2.7002529731492158 -5.502907829662812" fill="#ff4806" stroke="none" /><path d="M 90.7491055286396 118.85261126421891 l -4.729021870734104 9.637382770385093 a31.73511967873656,31.73511967873656 0 0,0 -0.4883371387335071,-0.24486237907368477 l 4.894212917150371 -9.554552550402105" fill="#ff870c" stroke="none" /><path d="M 90.42595943632237 118.69057910512821 l -2.6441046282053895 5.161858923305527 a26.79966178574286,26.79966178574286 0 0,0 -0.408770260913641,-0.21384928083438096 l 2.732565791645526 -5.115580223526429" fill="#ff4306" stroke="none" /><path d="M 90.10565033884886 118.52300852407294 l -4.963279359528298 9.291653219500427 a31.534180630318254,31.534180630318254 0 0,0 -0.476582360879847,-0.25987070224631875 l 5.122484532276785 -9.204841865494341" fill="#ff840c" stroke="none" /><line stroke="#e1ed5e" stroke-width="0.3" x1="58.666819895761336" x2="56.23545636021788" y1="174.27360380694188" y2="178.64263932499728" /><path d="M 58.180547188652646 175.14741091055294 a86.0,86.0 0 0,1 -31.652253787137756,-30.449443065178592" fill="none" id="id104" stroke="none" /><text fill="#e1ed5e" style="font-size:6.75px; font-family:Arial;" text-anchor="middle"><textPath startOffset="22.20632615414155" xlink:href="#id104">August</textPath></text><path d="M 89.7882731507175 118.34994917583269 l -1.019514607601862 1.8320154377050992 a23.09659023156729,23.09659023156729 0 0,0 -0.34573531520041795,-0.1963175351082554 l 1.0508986897234873 -1.8141947368022107" fill="#ff0f01" stroke="none" /><path d="M 89.4739219176387 118.17145234162733 l -5.42520051964642 9.365669902423118 a31.8235194553124,31.8235194553124 0 0,0 -0.47164293864031337,-0.2786549615276421 l 5.585611329315116 -9.270896368601726" fill="#ff880c" stroke="none" /><path d="M 89.1626897886671 117.98757091392108 l -2.567911482911266 4.262172900729171 a25.975970982610093,25.975970982610093 0 0,0 -0.3810066364094616,-0.23404539501148652 l 2.6408973192530363 -4.217339038889307" fill="#ff3805" stroke="none" /><path d="M 88.8546689885994 117.79835938074946 l -0.5802760233141536 0.9266625811663153 a22.093354381052688,22.093354381052688 0 0,0 -0.32058319684443254,-0.2046113640951019 l 0.5961410222055096 -0.9165367882474091" fill="#ff0000" stroke="none" /><path d="M 88.54995079064634 117.60387380957326 l -3.264093506077434 5.018379321609764 a26.986521313081358,26.986521313081358 0 0,0 -0.3872248411726039,-0.25663151000398376 l 3.34999304599 -4.961449790514462" fill="#ff4606" stroke="none" /><path d="M 88.24862548938628 117.40417183066458 l -3.0237784466214808 4.478315248597407 a26.403567669611686,26.403567669611686 0 0,0 -0.3744819453232132,-0.25757209670198983 l 3.100417276567584 -4.425602362530316" fill="#ff3e05" stroke="none" /><path d="M 87.95078237400918 117.19931262002967 l -10.377804348988276 14.813501328313457 a39.086974448752464,39.086974448752464 0 0,0 -0.5477251627303175,-0.3907873606030459 l 10.631256839567481 -14.632669705866192" fill="#ffe615" stroke="none" /><path d="M 87.36589467227662 116.77436683061367 l -5.148408587430249 6.835568645286781 a29.557517729315745,29.557517729315745 0 0,0 -0.40377155683738647,-0.30959481208045553 l 5.265308872761123 -6.745934491378958" fill="#ff6a09" stroke="none" /><path d="M 87.07902340077011 116.55440617244103 l -4.841472574125033 6.202913754179881 a28.86867178930465,28.86867178930465 0 0,0 -0.389098154531641,-0.3091231063395923 l 4.947528221374032 -6.1186567338351585" fill="#ff6008" stroke="none" /><path d="M 86.79598089348748 116.32954008644616 l -5.250144245894704 6.49290494291068 a29.349959832261185,29.349959832261185 0 0,0 -0.3901166911998863,-0.32103947784838455 l 5.361131065639279 -6.401570346205116" fill="#ff6709" stroke="none" /><path d="M 86.51685102203217 116.09983520530335 l -1.088075075066736 1.2992387333402278 a22.69467656359348,22.69467656359348 0 0,0 -0.29733757240772074,-0.2533975298067368 l 1.1102781240515134 -1.2803168133105394" fill="#ff0901" stroke="none" /><path d="M 86.24171649860922 115.8653595955263 l -4.839199589525039 5.5803212395337685 a28.38632776172646,28.38632776172646 0 0,0 -0.3663967244150468,-0.3233025090796091 l 4.934538666846674 -5.4961955886818705" fill="#ff5a08" stroke="none" /><path d="M 85.97065885151581 115.62618273729859 l -6.013449464610498 6.697909703740202 a30.001309286036197,30.001309286036197 0 0,0 -0.38130299833463327,-0.3483112483718549 l 6.127852012411987 -6.593405688781772" fill="#ff700a" stroke="none" /><path d="M 85.70375840098266 115.38237550388516 l -2.7843257314070833 2.9958603895290477 a25.08994489597656,25.08994489597656 0 0,0 -0.3138204495848602,-0.2967368227673237 l 2.8354820153827607 -2.947488930015793" fill="#ff2b04" stroke="none" /><path d="M 85.44109423537348 115.13401014063109 l -4.394051210764161 4.5676245630856345 a27.33805018851391,27.33805018851391 0 0,0 -0.3363231699121665,-0.3291630084030175 l 4.472024333052122 -4.491311451760048" fill="#ff4b07" stroke="none" /><path d="M 85.18274418774928 114.88116024355367 l -7.3440369155332546 7.375710560673867 a31.408457354072755,31.408457354072755 0 0,0 -0.3798320094100122,-0.3847678201780056 l 7.4699095499988 -7.248202246515197" fill="#ff830c" stroke="none" /><path d="M 84.9287848128048 114.62390073753433 l -8.18020273310582 7.937413891049976 a32.39816897718862,32.39816897718862 0 0,0 -0.3849109955774315,-0.4035776400090554 l 8.315620280062207 -7.795429134458421" fill="#ff900d" stroke="none" /><path d="M 84.67929136418377 114.36230785411682 l -5.141042595991788 4.819440027868412 a28.046795098200477,28.046795098200477 0 0,0 -0.32715062873866607,-0.35505739446192425 l 5.223239632726183 -4.7302313786051435" fill="#ff5507" stroke="none" /><path d="M 84.43433777217949 114.09645910891817 l -2.213618252964959 2.00468047738465 a23.98644430489952,23.98644430489952 0 0,0 -0.27452045795645785,-0.30842664468547687 l 2.2477975605697553 -1.9662796629583088" fill="#ff1b02" stroke="none" /><path d="M 84.19399662182784 113.82643327865904 l -13.748464799315558 12.02658424673268 a39.26633551048972,39.26633551048972 0 0,0 -0.4406383849882772,-0.5125619902586692 l 13.953445693874613 -11.78814515731248" fill="#ffe815" stroke="none" /><path d="M 83.95833913139862 113.55231037782056 l -8.282404081848272 6.9971377472164455 a31.842423807827203,31.842423807827203 0 0,0 -0.350121096681552,-0.4217434156361858 l 8.40162117842336 -6.853533074466498" fill="#ff890c" stroke="none" /><path d="M 83.72743513129214 113.27417163493432 l -1.7098892798684828 1.39482398508397 a23.206638914452178,23.206638914452178 0 0,0 -0.24983835142706018,-0.3117117578079329 l 1.733645543350404 -1.3651843936977774" fill="#ff1001" stroke="none" /><path d="M 83.50135304334701 112.99209946851258 l -7.290779801103624 5.741230576533085 a30.279935271385195,30.279935271385195 0 0,0 -0.3189388217670744,-0.4122714205197774 l 7.388525440088767 -5.614881161900055" fill="#ff730a" stroke="none" /><path d="M 83.28015986056508 112.70617746262583 l -4.063300406817946 3.0878893352106824 a26.103476338982553,26.103476338982553 0 0,0 -0.26878965039982883,-0.3600876616874651 l 4.11585132391286 -3.0174887940139095" fill="#ff3a05" stroke="none" /><path d="M 83.06392112726016 112.41649034213515 l -8.244043918808309 6.044025448109035 a31.22225531634922,31.22225531634922 0 0,0 -0.3140367262105274,-0.43616954627816207 l 8.346860437394444 -5.901222296379735" fill="#ff800b" stroke="none" /><path d="M 82.85270091963577 112.12312394758628 l -3.3314591561596063 2.3553384172725487 a25.079980290275877,25.079980290275877 0 0,0 -0.24618878025852534,-0.3546532995892822 l 3.3715088435802656 -2.2976438554962537" fill="#ff2b04" stroke="none" /><path d="M 82.6465618267979 111.8261652097733 l -14.750600846160868 10.052362005098358 a38.8502158867703,38.8502158867703 0 0,0 -0.3718463213030256,-0.5558597975766212 l 14.921450272874624 -9.796965293315916" fill="#ffe315" stroke="none" /><path d="M 82.44556493220864 111.52570212397912 l -8.444703548126704 5.54453260644085 a31.10222054004116,31.10222054004116 0 0,0 -0.2899839771387912,-0.45006157221895127 l 8.53889238864254 -5.39834943430045" fill="#ff7f0b" stroke="none" /><path d="M 82.24976979558568 111.22182372390057 l -4.619404468478589 2.920420865402277 a26.46514004161622,26.46514004161622 0 0,0 -0.24012119019368358,-0.38715181484364514 l 4.668990298340228 -2.8404727191933676" fill="#ff3f05" stroke="none" /><path d="M 82.05923443525364 110.91462005526583 l -6.372987209473705 3.87713298841368 a28.459700140217503,28.459700140217503 0 0,0 -0.25101336846961875,-0.42071284381706053 l 6.438781453641556 -3.7668580507105083" fill="#ff5b08" stroke="none" /><line stroke="#e1ed5e" stroke-width="0.3" x1="26.63291911575756" x2="22.317208475507996" y1="142.92168965132927" y2="145.44649492493687" /><path d="M 25.769776987707644 143.4266507060508 a86.0,86.0 0 0,1 -11.730757126820373,-40.83630448921669" fill="none" id="id105" stroke="none" /><text fill="#e1ed5e" style="font-size:6.75px; font-family:Arial;" text-anchor="middle"><textPath startOffset="21.46611528233685" xlink:href="#id105">September</textPath></text><path d="M 81.87401531095188 110.60418214915194 l -9.2411801948524 5.406335696540655 a31.70644091458137,31.70644091458137 0 0,0 -0.27154000512381216,-0.4734528871085195 l 9.33287219612859 -5.246462963573828" fill="#ff870c" stroke="none" /><path d="M 81.69416730710424 110.29060199501025 l -8.91349447239043 5.0107102768229215 a31.22534112817727,31.22534112817727 0 0,0 -0.25935410074656723,-0.4708030273459962 l 8.998424982588514 -4.856536731079102" fill="#ff800b" stroke="none" /><path d="M 81.35079622478065 109.6543875284942 l -17.240389432288364 8.92506740382326 a40.41359976768216,40.41359976768216 0 0,0 -0.3144973444171448,-0.6205330969058315 l 17.391465446491775 -8.626980095214742" fill="#fff617" stroke="none" /><path d="M 81.18737489456691 109.33194174019688 l -6.29596003175099 3.1230905780363596 a28.028001670462622,28.028001670462622 0 0,0 -0.2106727993942734,-0.43404836597418534 l 6.348786087759982 -3.0142532560968895" fill="#ff5507" stroke="none" /><path d="M 81.02952815118164 109.00673069616217 l -7.969369868142203 3.7836680496134902 a29.821961233474042,29.821961233474042 0 0,0 -0.21617426073111526,-0.46562012584975687 l 8.033318745713146 -3.6459278564849065" fill="#ff6d0a" stroke="none" /><path d="M 80.87730276802145 108.67885076344099 l -4.340493783493445 1.9699364231729442 a25.76660631853404,25.76660631853404 0 0,0 -0.1798250415333571,-0.40545799623320894 l 4.373759909758081 -1.8949300904470392" fill="#ff3505" stroke="none" /><path d="M 80.73074385275274 108.34839909993369 l -7.95707495903323 3.4474001963790237 a29.671770869762867,29.671770869762867 0 0,0 -0.19901141968060948,-0.4704042091019454 l 8.015237359906147 -3.3099214616109194" fill="#ff6b09" stroke="none" /><path d="M 80.58989483394504 108.01547362559985 l -8.602194564898843 3.5523075772823876 a30.306806136156112,30.306806136156112 0 0,0 -0.19497001329537375,-0.48389958362469954 l 8.662067192451604 -3.403708625814883" fill="#ff740a" stroke="none" /><path d="M 80.45479744820244 107.68017299344265 l -21.403455597984507 8.410362656224885 a43.99656738611475,43.99656738611475 0 0,0 -0.27090513529877575,-0.7072478233232968 l 21.54505501287679 -8.04069126606843" fill="#ddff1b" stroke="none" /><path d="M 80.32549172779594 107.34259656027581 l -3.998878086856952 1.4923955444925 a25.268286590045914,25.268286590045914 0 0,0 -0.1485723980875094,-0.40880743023089944 l 4.023974745949685 -1.4233403172554835" fill="#ff2e04" stroke="none" /><path d="M 80.20201598880116 107.00284435728193 l -17.749469055212913 6.278253843812523 a39.82711138409999,39.82711138409999 0 0,0 -0.2230492131340708,-0.6482854203899234 l 17.854909099290214 -5.9717957203333025" fill="#ffef16" stroke="none" /><path d="M 79.97269907076064 106.31721596034903 l -6.141164195656148 1.9371087801094162 a27.43943228118644,27.43943228118644 0 0,0 -0.13820749109431255,-0.4516700775281327 l 6.173598459256591 -1.8311117300292357" fill="#ff4c07" stroke="none" /><path d="M 79.86692584326677 105.97154293290107 l -5.3126222719878 1.5757430651916497 a26.54138264445981,26.54138264445981 0 0,0 -0.12614406738764075,-0.43912404712331515 l 5.338958976261544 -1.4840615425637387" fill="#ff4006" stroke="none" /><path d="M 79.76711848015287 105.62410040840567 l -10.14877093857979 2.821036970166249 a31.53355595944724,31.53355595944724 0 0,0 -0.1408677878257159,-0.5242214426028358 l 10.19582680274728 -2.6459245943878744" fill="#ff840c" stroke="none" /><path d="M 79.67330655649465 105.27499134158121 l -6.33432050352629 1.6438229810356872 a27.5441401447688,27.5441401447688 0 0,0 -0.1151458981991414,-0.4599506255479577 l 6.36167771602049 -1.5345445160903377" fill="#ff4e07" stroke="none" /><path d="M 79.58551787078972 104.9243191809786 l -6.627537569570923 1.598674419949976 a27.817625256427377,27.817625256427377 0 0,0 -0.10827604502934615,-0.46645036813904683 l 6.654074180530825 -1.4843553944623549" fill="#ff5207" stroke="none" /><path d="M 79.50377843672027 104.57218783832718 l -10.124884588297876 2.258605276887639 a31.37374501918842,31.37374501918842 0 0,0 -0.11304402741386575,-0.5281040617830509 l 10.162262654436182 -2.0839873956884243" fill="#ff820c" stroke="none" /><path d="M 79.4281124754447 104.21870165774334 l -9.134147621605022 1.873150612326737 a30.324234337988976,30.324234337988976 0 0,0 -0.10045995311216618,-0.5122431365988644 l 9.165037507692855 -1.7156437486599176" fill="#ff740a" stroke="none" /><path d="M 79.35854240842038 103.8639653848113 l -10.257855381665618 1.920213141019902 a31.43603447378897,31.43603447378897 0 0,0 -0.09498705838618189,-0.5327378676440847 l 10.289388882390988 -1.7433565226426033" fill="#ff830c" stroke="none" /><path d="M 79.29508885075956 103.50808413554451 l -11.391739802156438 1.9301305563758484 a32.55409622967937,32.55409622967937 0 0,0 -0.08885446115423526,-0.5532968144256385 l 11.423276017671965 -1.7337545122569962" fill="#ff920d" stroke="none" /><path d="M 79.23777060512086 103.15116336523772 l -8.396856213012999 1.2744231449509686 a29.49301763888441,29.49301763888441 0 0,0 -0.07185896361322405,-0.5025814241446048 l 8.417549227642821 -1.1296962488259632" fill="#ff6909" stroke="none" /><path d="M 79.18660465613746 102.79330883721812 l -8.436575613851065 1.132249728056899 a29.512214608132915,29.512214608132915 0 0,0 -0.06323833886424299,-0.5040717815046218 l 8.454815461962156 -0.9868601922648685" fill="#ff6909" stroke="none" /><path d="M 79.1416061653843 102.43462659150553 l -29.773620431210865 3.47522674094498 a50.97575144150345,50.97575144150345 0 0,0 -0.09422673096255241,-0.8724225029887362 l 29.82902946367447 -2.962207916071462" fill="#8eff24" stroke="none" /><path d="M 79.10278846688536 102.07522291339032 l -8.675087397654957 0.8614900660190563 a29.71775811151017,29.71775811151017 0 0,0 -0.04616923124420184,-0.5094736195597845 l 8.688631225176236 -0.7120350579107055" fill="#ff6c09" stroke="none" /><path d="M 79.07016306316243 101.71520430193888 l -9.293472527055616 0.7616019229610447 a30.32462702204198,30.32462702204198 0 0,0 -0.03815623824489702,-0.5206115555791606 l 9.305205323964849 -0.6015172308851233" fill="#ff740a" stroke="none" /><path d="M 79.04373962182676 101.35467743843564 l -9.315377677657468 0.6021748032665741 a30.334820607332965,30.334820607332965 0 0,0 -0.029198924745062055,-0.5213664160512897 l 9.324362953290063 -0.44173667087984675" fill="#ff740a" stroke="none" /><path d="M 79.0235259727143 100.99374915477108 l -9.471561168394633 0.4487101070089934 a30.482183911250253,30.482183911250253 0 0,0 -0.020318360037854453,-0.5243265899736891 l 9.47788166128369 -0.28560627002130745" fill="#ff760a" stroke="none" /><path d="M 79.0095281055655 100.63252640178507 l -11.059851326666655 0.33327730787173043 a32.06487167263644,32.06487167263644 0 0,0 -0.01187612199443078,-0.551836722755877 l 11.063949511346092 -0.14285076932572463" fill="#ff8c0c" stroke="none" /><line stroke="#e1ed5e" stroke-width="0.3" x1="15.007084014347285" x2="10.007500721073583" y1="101.09737516637583" y2="101.16192664675087" /><path d="M 14.007167355692545 101.11028546245083 a86.0,86.0 0 0,1 10.666146001902534,-42.60595125391555" fill="none" id="id106" stroke="none" /><text fill="#e1ed5e" style="font-size:6.75px; font-family:Arial;" text-anchor="middle"><textPath startOffset="22.20632615414155" xlink:href="#id106">October</textPath></text><path d="M 79.00175016825051 100.2711162175752 l -5.152712554581815 0.06652858925119756 a26.153142024370453,26.153142024370453 0 0,0 -0.001937453044539322,-0.45019585509538385 l 5.153094304915857 0.022176744047861654" fill="#ff3a05" stroke="none" /><path d="M 79.00019446554 99.90962569577889 l -7.604403197448822 -0.03272614343302164 a28.60447361688065,28.60447361688065 0 0,0 0.0063569940367369186,-0.492356193798485 l 7.60271319629437 0.1636185952919786" fill="#ff5d08" stroke="none" /><path d="M 79.00486145842228 99.54816195383935 l -11.148629947197247 -0.23993055167194693 a32.15121143056524,32.15121143056524 0 0,0 0.016670105413197682,-0.5531996422054273 l 11.142848147328403 0.4318003413023686" fill="#ff8d0d" stroke="none" /><path d="M 79.01574976396665 99.18683210126434 l -10.52662513964508 -0.4079208715727351 a31.5345259156771,31.5345259156771 0 0,0 0.02568771211830749,-0.5422270031457088 l 10.518043819293274 0.5890589813414531" fill="#ff840c" stroke="none" /><path d="M 79.03285615573316 98.82574320788736 l -26.172955689316122 -1.465806273668811 a47.21396951144241,47.21396951144241 0 0,0 0.05242866025440438,-0.8110481686613098 l 26.143846438057306 1.9161135065831327" fill="#b7ff1f" stroke="none" /><path d="M 79.08570108090925 98.10471618934814 l -11.33109585891523 -1.0268401834279581 a32.377527592857255,32.377527592857255 0 0,0 0.0550770642342768,-0.5546185204972972 l 11.311741668998724 1.2217342346296856" fill="#ff900d" stroke="none" /><path d="M 79.12142395522702 97.74499172005258 l -11.136573038472168 -1.2028149984050807 a32.20134023059801,32.20134023059801 0 0,0 0.06426413342265205,-0.5505758497203692 l 11.114218552045926 1.3943345864503118" fill="#ff8d0d" stroke="none" /><path d="M 79.21141760316559 97.0276538004421 l -6.357995269099766 -0.909064539090147 a27.422655383727683,27.422655383727683 0 0,0 0.07083416384820082,-0.4667086368909547 l 6.341405211812263 1.0183722883731936" fill="#ff4c07" stroke="none" /><path d="M 79.26566170972629 96.67025291283419 l -9.187156561568086 -1.4753742015759197 a30.30486833444941,30.30486833444941 0 0,0 0.08714545645676854,-0.5143374170293055 l 9.160399243591094 1.633297406921053" fill="#ff740a" stroke="none" /><path d="M 79.32604984820605 96.31383870115002 l -10.039006303665024 -1.789952875177556 a31.197331948131456,31.197331948131456 0 0,0 0.09881275954636716,-0.5278617126594463 l 10.006707820208796 1.962492665299575" fill="#ff800b" stroke="none" /><path d="M 79.3925641242962 95.95851677861259 l -10.867163794303842 -2.1312433241890534 a32.074179294156686,32.074179294156686 0 0,0 0.11091664206144576,-0.5408689379352676 l 10.8288678563274 2.317987918287723" fill="#ff8c0c" stroke="none" /><path d="M 79.46518482838121 95.60439243477599 l -8.408579129358678 -1.7999097496079397 a29.599062628067088,29.599062628067088 0 0,0 0.11093392230033812,-0.49729502171619167 l 8.376350820056302 1.9443829408740905" fill="#ff6a09" stroke="none" /><path d="M 79.54389044137918 95.25157060432595 l -8.747704140639511 -2.0305843282192884 a29.980289552468307,29.980289552468307 0 0,0 0.12101643774917567,-0.5016912622792788 l 8.711454902629521 2.180860822157964" fill="#ff6f0a" stroke="none" /><path d="M 79.62865764111835 94.90015583598534 l -3.045443017692418 -0.7624085112803773 a24.13942509260601,24.13942509260601 0 0,0 0.10437849261669388,-0.4022129107189663 l 3.0318681932054163 0.8147178475482074" fill="#ff1e03" stroke="none" /><path d="M 79.71946130924805 94.55025226153421 l -9.052543324749118 -2.4325822042346292 a30.37368640540203,30.37368640540203 0 0,0 0.14002736527198076,-0.5037529356428218 l 9.009329188910776 2.5880464432963937" fill="#ff750a" stroke="none" /><path d="M 79.81627453868168 94.20196356495316 l -10.667595617128535 -3.0644049425361852 a32.099016798907016,32.099016798907016 0 0,0 0.15712331597332832,-0.5297417112776355 l 10.6132664040435 3.2475760405603595" fill="#ff8c0c" stroke="none" /><path d="M 79.91906864156998 93.8553929516997 l -9.76869705965971 -2.98914446417332 a31.21579301234624,31.21579301234624 0 0,0 0.16164506237711784,-0.5124590212320885 l 9.715796513514388 3.156853651831823" fill="#ff800b" stroke="none" /><path d="M 80.02781315780177 93.51064311812611 l -8.203663559115862 -2.665531871624887 a29.625842332770382,29.625842332770382 0 0,0 0.16176091696029712,-0.48364455239315157 l 8.156565348383792 2.8063495269403607" fill="#ff6b09" stroke="none" /><path d="M 80.14247586403 93.16781622104843 l -7.580705898268962 -2.6082192078184634 a29.01685158600825,29.01685158600825 0 0,0 0.16656628872820411,-0.4709053282923032 l 7.534686528730949 2.738322162537378" fill="#ff6209" stroke="none" /><path d="M 80.2630227832202 92.82701384747504 l -6.454081821694898 -2.3455992792514273 a27.86709604854609,27.86709604854609 0 0,0 0.16772728915812624,-0.4494257461820774 l 6.412749944035144 2.4563481624628465" fill="#ff5207" stroke="none" /><path d="M 80.38941819471856 92.48833698450439 l -23.969377531675843 -9.181261856323447 a46.667618287063306,46.667618287063306 0 0,0 0.2937981023432817,-0.7476841243727199 l 23.807785879450872 9.59249498559193" fill="#beff1f" stroke="none" /><path d="M 80.65960295795068 91.81776055985345 l -7.71801099637806 -3.2652180736904755 a29.38029491181352,29.38029491181352 0 0,0 0.2010581583994962,-0.46406995021650144 l 7.660662128135883 3.3975871684935766" fill="#ff6709" stroke="none" /><path d="M 80.803312248108 91.48605970444005 l -8.027080524993348 -3.560097722103627 a29.781134183330472,29.781134183330472 0 0,0 0.21186821167586187,-0.4668235202320694 l 7.964609996354135 3.697743251177767" fill="#ff6d0a" stroke="none" /><path d="M 80.95270993114464 91.15688171328213 l -5.094968366471166 -2.3654497710129028 a26.617299642579773,26.617299642579773 0 0,0 0.19651401007813665,-0.41390862254537986 l 5.053496162551277 2.452800809198815" fill="#ff4106" stroke="none" /><path d="M 81.26839172434947 90.50648371742162 l -16.022283026003965 -8.120381472485459 a38.96257633592854,38.96257633592854 0 0,0 0.30834345937191865,-0.5956214197546196 l 15.880130133471933 8.394975614500416" fill="#ffe415" stroke="none" /><path d="M 81.43458229118936 90.18545643968196 l -7.771646253124561 -4.108453786659236 a29.790783696623393,29.790783696623393 0 0,0 0.243563632316411,-0.4512864197773732 l 7.699774521589678 4.2416211897690825" fill="#ff6d0a" stroke="none" /><path d="M 81.6062741919709 89.86733742301443 l -4.865776991772914 -2.6804398927689403 a26.555226705762227,26.555226705762227 0 0,0 0.22400264260347416,-0.39847570630504126 l 4.818916707877009 2.763799109008766" fill="#ff4006" stroke="none" /><line stroke="#e1ed5e" stroke-width="0.3" x1="26.266209847984243" x2="21.928928074336255" y1="57.711370442889674" y2="55.22380399835377" /><path d="M 25.398753493254645 57.213857153982495 a86.0,86.0 0 0,1 29.58750427330803,-30.492523968695096" fill="none" id="id107" stroke="none" /><text fill="#e1ed5e" style="font-size:6.75px; font-family:Arial;" text-anchor="middle"><textPath startOffset="21.46611528233685" xlink:href="#id107">November</textPath></text><path d="M 81.78341655067845 89.55222093294921 l -7.9385856060711975 -4.553026573168438 a30.151567756450188,30.151567756450188 0 0,0 0.2620893806424986,-0.44799570903900165 l 7.859036550958374 4.689001694561331" fill="#ff720a" stroke="none" /><path d="M 81.96595687620814 89.24020034530311 l -8.899197176663566 -5.309601294133477 a31.36279770582253,31.36279770582253 0 0,0 0.2805987719271111,-0.4612306025688204 l 8.806482606450238 5.461999669909372" fill="#ff820c" stroke="none" /><path d="M 82.15384107792192 88.93136811851018 l -9.069011876429952 -5.624826856432225 a31.671722146854684,31.671722146854684 0 0,0 0.29133822372085233,-0.4608271049006297 l 8.970846056463136 5.780101609047071" fill="#ff860c" stroke="none" /><path d="M 82.34701348167596 88.62581576622439 l -6.57635909958138 -4.23728415067111 a28.823239481198016,28.823239481198016 0 0,0 0.27231560442638664,-0.4147553480411315 l 6.502446859797073 4.349857562689908" fill="#ff6008" stroke="none" /><path d="M 82.7489923806493 88.02491185347247 l -15.996160608578045 -11.104014184009918 a40.47244938917848,40.47244938917848 0 0,0 0.4021947349117993,-0.5688759298261178 l 15.802653253862367 11.377716614167822" fill="#fff717" stroke="none" /><path d="M 82.95767976084542 87.72973835380427 l -5.029480853108411 -3.6211645565952195 a27.197459995653507,27.197459995653507 0 0,0 0.2768149545588547,-0.37757528692737813 l 4.966403286035923 3.7072022871940984" fill="#ff4906" stroke="none" /><path d="M 83.17141714833178 87.43820079747576 l -6.920012439024257 -5.165485858446812 a29.63532375247532,29.63532375247532 0 0,0 0.3086646820911571,-0.40616654036462 l 6.83007181670899 5.283837174692458" fill="#ff6b09" stroke="none" /><path d="M 83.39014120810768 87.1503855733568 l -4.07172552086743 -3.149942672589617 a26.14792070236947,26.14792070236947 0 0,0 0.27847027457320755,-0.35362896960883317 l 4.016901165700252 3.219564036151498" fill="#ff3a05" stroke="none" /><path d="M 83.6137871275137 86.86637796730984 l -8.24347467424322 -6.6071813816938825 a31.56455018046162,31.56455018046162 0 0,0 0.34345463396027887,-0.4210347707022555 l 8.128521548206548 6.748100322004221" fill="#ff850c" stroke="none" /><path d="M 83.84228863543731 86.58626213691792 l -1.7723575560782459 -1.4713680124914046 a23.30351364979037,23.30351364979037 0 0,0 0.25887916204542966,-0.3064312731707309 l 1.746767780545692 1.5016582352912513" fill="#ff1202" stroke="none" /><path d="M 84.07557802195018 86.31012108654704 l -7.8963562917839 -6.788325607108946 a31.413155488848048,31.413155488848048 0 0,0 0.3560279331923885,-0.4070014732901755 l 7.778336495013668 6.9232426366020645" fill="#ff830c" stroke="none" /><path d="M 84.31358615837235 86.03803664274999 l -16.05293847363886 -14.288194931485915 a42.49068049268274,42.49068049268274 0 0,0 0.4909825636238681,-0.5421552097635328 l 15.804612269398946 14.562402928519004" fill="#efff19" stroke="none" /><path d="M 84.80347519578584 85.50635884689758 l -4.087780511257868 -3.8987087249308 a26.6488830072919,26.6488830072919 0 0,0 0.31945124692048016,-0.3292225905089245 l 4.020065000634269 3.968495510989848" fill="#ff4106" stroke="none" /><path d="M 85.05521093208273 85.24692304244772 l -7.573527554915851 -7.476374162930062 a31.642109295116164,31.642109295116164 0 0,0 0.38597979088580253,-0.38432227099976535 l 7.443711963862736 7.605632284579937" fill="#ff860c" stroke="none" /><path d="M 85.83668400450813 84.49514656593479 l -7.5569240478485 -8.272709569676216 a32.2046786963823,32.2046786963823 0 0,0 0.412509748444235,-0.37035532511634367 l 7.413403311808294 8.401563903561838" fill="#ff8d0d" stroke="none" /><path d="M 86.10567301691215 84.25364557470407 l -13.713562610967633 -15.54149528571073 a41.726791242271396,41.726791242271396 0 0,0 0.5426593071826581,-0.47058880373518863 l 13.444009505138201 15.7752490828656" fill="#f8ff18" stroke="none" /><path d="M 86.93701828274178 83.55741782278169 l -2.9592260097042558 -3.724824691535791 a25.757240540395753,25.757240540395753 0 0,0 0.3495226201400301,-0.27280794905522654 l 2.8946708344048 3.7752110298142396" fill="#ff3505" stroke="none" /><path d="M 87.22198572758235 83.33499621200491 l -5.6948670418558445 -7.427208860575144 a30.359216958860493,30.359216958860493 0 0,0 0.4174447936073563,-0.3144107640068898 l 5.566176094490099 7.524136214087887" fill="#ff750a" stroke="none" /><path d="M 87.51073957382395 83.11751280151077 l -5.897995885568746 -7.972677055093142 a30.917153567984844,30.917153567984844 0 0,0 0.4305650650460265,-0.3128238308293337 l 5.759885504168938 8.073020120739143" fill="#ff7c0b" stroke="none" /><path d="M 87.80319425747018 82.90503203632743 l -5.720724571942888 -8.018132398825404 a30.849727752233804,30.849727752233804 0 0,0 0.43493541617896153,-0.3047000539247209 l 5.5818580161802664 8.115417295514067" fill="#ff7b0b" stroke="none" /><path d="M 88.09926311788651 82.69761687909137 l -20.45649262426269 -29.74152577282897 a57.09745760829097,57.09745760829097 0 0,0 0.814577631465028,-0.5500064529613903 l 19.941510298391123 30.089244138089025" fill="#4eff2c" stroke="none" /><path d="M 88.39885842347998 82.49532879139004 l -2.5847433696076565 -3.900054364924725 a25.678816339214347,25.678816339214347 0 0,0 0.3705489566481508,-0.24101534889375517 l 2.517227387175218 3.9439686379780152" fill="#ff3404" stroke="none" /><path d="M 89.00827224532344 82.1063720568725 l -3.8197166200575743 -6.21818421752768 a28.297674288473992,28.297674288473992 0 0,0 0.417239685596621,-0.25138224204526083 l 3.712114868243304 6.28301306903156" fill="#ff5808" stroke="none" /><line stroke="#e1ed5e" stroke-width="0.3" x1="56.762969772571076" x2="54.21961505331055" y1="26.818313649435495" y2="22.513508569990535" /><path d="M 56.25429882871897 25.957352633546506 a86.0,86.0 0 0,1 42.265352541879196,-11.944610805530505" fill="none" id="id108" stroke="none" /><text fill="#e1ed5e" style="font-size:6.75px; font-family:Arial;" text-anchor="middle"><textPath startOffset="22.20632615414155" xlink:href="#id108">December</textPath></text><path d="M 89.3179101791058 81.91981866633112 l -4.388567326817282 -7.42795598934861 a29.627517218858973,29.627517218858973 0 0,0 0.44131353309519417,-0.2556372831862875 l 4.260057061256767 7.502397429924945" fill="#ff6b09" stroke="none" /><path d="M 89.94658935756843 81.56283822128135 l -5.282803172208623 -9.688244138765308 a32.034948293880575,32.034948293880575 0 0,0 0.48640485465302075,-0.2598206280887785 l 5.115253271027297 9.777743493355835" fill="#ff8b0c" stroke="none" /><path d="M 90.58718382345135 81.22770947309562 l -3.8621038156050065 -7.702321336332168 a29.61635652991614,29.61635652991614 0 0,0 0.457683745734342,-0.22458342633315656 l 3.7289488028602387 7.767659922800154" fill="#ff6a09" stroke="none" /><path d="M 90.91171255644093 81.06846463323043 l -4.455406365660522 -9.280921593716782 a31.294957576983343,31.294957576983343 0 0,0 0.4876377140782553,-0.22895244526762198 l 4.294990440282659 9.356239021624411" fill="#ff810b" stroke="none" /><path d="M 91.23893434514133 80.91482961587045 l -3.891340666273707 -8.476925360939315 a30.327421709986723,30.327421709986723 0 0,0 0.4763107609882179,-0.2137067543299848 l 3.744847786818714 8.54265244578583" fill="#ff740a" stroke="none" /><path d="M 91.56875222667455 80.76684994638697 l -3.7492863975384023 -8.552777692759523 a30.33847711099253,30.33847711099253 0 0,0 0.4800937479947516,-0.20555108782105833 l 3.6015088917533427 8.616048308543368" fill="#ff740a" stroke="none" /><path d="M 91.90106846888425 80.62456947434976 l -3.6594824770610357 -8.754741069450969 a30.48879882772568,30.48879882772568 0 0,0 0.485956798310222,-0.19823397967927914 l 3.508241809162433 8.816435935313825" fill="#ff760a" stroke="none" /><path d="M 92.23578459929587 80.48803036053334 l -3.209261425400821 -8.065079118213722 a29.680141708498354,29.680141708498354 0 0,0 0.4763194009980578,-0.18480452752135776 l 3.0699588594030867 8.119126349625631" fill="#ff6b09" stroke="none" /><path d="M 92.57280143429618 80.3572730644239 l -6.972968089124522 -18.44142268359828 a40.715688031795445,40.715688031795445 0 0,0 0.6576895713673943,-0.24223261960522632 l 6.654496191984558 18.55871857100983" fill="#fffa17" stroke="none" /><path d="M 92.91201910852362 80.23233633223022 l -3.138988596201493 -8.75432253228764 a30.30007593551806,30.30007593551806 0 0,0 0.49247434262101425,-0.17181462815327367 l 2.987832249517193 8.807058013613124" fill="#ff740a" stroke="none" /><path d="M 93.25333710446033 80.11325718540243 l -3.02963118262527 -8.930266279020076 a30.430181383034924,30.430181383034924 0 0,0 0.49748590433691087,-0.16401328099341517 l 2.87546245604595 8.981093284272726" fill="#ff760a" stroke="none" /><path d="M 93.59665428221793 80.00007090966166 l -3.3030010263890506 -10.316448498110589 a31.83230932878559,31.83230932878559 0 0,0 0.5232847047949291,-0.16258710499920362 l 3.1249309488833927 10.371775737992317" fill="#ff880c" stroke="none" /><path d="M 93.94186890950719 79.89281104454417 l -2.680910355567498 -8.89805292867126 a30.29314942611084,30.29314942611084 0 0,0 0.5005723422298375,-0.1461307932943137 l 2.527347795614239 8.942882050884272" fill="#ff740a" stroke="none" /><path d="M 94.28887869178378 79.79150937346287 l -2.3194792919743947 -8.207350711125335 a29.52880940584954,29.52880940584954 0 0,0 0.49032181754905385,-0.13402347475012039 l 2.1778595852016185 8.246060726701751" fill="#ff6909" stroke="none" /><path d="M 94.63758080256005 79.69619591428918 l -2.4667537754112474 -9.33990490850624 a30.660160344862014,30.660160344862014 0 0,0 0.5114276971570394,-0.13037430741801964 l 2.3056171895692086 9.380982212093123" fill="#ff790b" stroke="none" /><path d="M 94.98787191387505 79.60689891045804 l -4.803498907045041 -19.54424091157031 a41.12587773388981,41.12587773388981 0 0,0 0.6889099828408273,-0.1630427351495743 l 4.466365237241679 19.624029558860755" fill="#ffff18" stroke="none" /><path d="M 95.33964822691252 79.52364482259891 l -1.9082823586260325 -8.384488823277893 a29.598906580950583,29.598906580950583 0 0,0 0.4977652007696633,-0.10879219329384576 l 1.763674433702848 8.416094514667607" fill="#ff6a09" stroke="none" /><path d="M 95.692805502759 79.44645832069477 l -1.7276897568053915 -8.244378898643774 a29.42346100603386,29.42346100603386 0 0,0 0.49660299667963254,-0.09961388933549824 l 1.5855203506586224 8.272896744056483" fill="#ff6809" stroke="none" /><path d="M 96.40284397218896 79.31037775812273 l -1.0077015771486666 -5.795957918577419 a26.88290665084091,26.88290665084091 0 0,0 0.4565879836404599,-0.07534092949748301 l 0.907784387369321 5.812445111014529" fill="#ff4506" stroke="none" /></svg>