<?xml version="1.0" encoding="utf-8" ?>
<svg baseProfile="full" height="200mm" version="1.1" viewBox="0,0,200,200" width="200mm" xmlns="http://www.w3.org/2000/svg" xmlns:ev="http://www.w3.org/2001/xml-events" xmlns:xlink="http://www.w3.org/1999/xlink"><defs /><rect fill="#1a1a1a" height="200" width="200" x="0" y="0" /><text alignment-baseline="middle" fill="#e1ed5e" style="dominant-baseline: central; font-size:9.0px; font-family:Arial;" text-anchor="middle" x="100.0" y="100.0">2014</text><line stroke="#e1ed5e" stroke-width="0.3" x1="100.0" x2="100.0" y1="15.0" y2="10.0" /><path d="M 100.0 14.0 a86.0,86.0 0 0,1 42.46469731375804,11.215312516191453" fill="none" id="id25" stroke="none" /><text fill="#e1ed5e" style="font-size:6.75px; font-family:Arial;" text-anchor="middle"><textPath startOffset="22.20632615414155" xlink:href="#id25">January</textPath></text><path d="M 100.0 79.0 l 0.0 -7.619112374810943 a28.619112374810943,28.619112374810943 0 0,0 0.49263097417147655,0.004240230323843068 l -0.13115049489894817 7.617983521095659" fill="#ff5708" stroke="none" /><path d="M 100.36148047927253 79.00311137660856 l 0.13168558304065162 -7.64906455246326 a28.650198011851113,28.650198011851113 0 0,0 0.49301992656552124,0.012733250152721951 l -0.26333214480104067 7.645664510168179" fill="#ff5708" stroke="none" /><path d="M 101.08401301168833 79.027996857942 l 0.3155158677921552 -6.104170060099543 a27.112318904102132,27.112318904102132 0 0,0 0.4658644573601558,0.02810221628861335 l -0.4205423739919229 6.0978345744306255" fill="#ff4206" stroke="none" /><path d="M 101.44485096284872 79.0497635885617 l 0.7603552498627916 -11.025097155969872 a32.05128532816744,32.05128532816744 0 0,0 0.5500760798008761,0.042696490646580855 l -0.950021519026009 11.010375403134827" fill="#ff860c" stroke="none" /><path d="M 101.80526077348638 79.07773832637324 l 0.3249081093480216 -3.765557078235572 a24.77954830488646,24.77954830488646 0 0,0 0.42464460938010334,0.04032512240377779 l -0.3896778458183691 3.7594064113166157" fill="#ff2003" stroke="none" /><path d="M 104.66035177308747 79.52364482259891 l 1.6952213907511078 -7.44835518679117 a28.638833062206494,28.638833062206494 0 0,0 0.4797363383008944,0.11353809161637787 l -1.8231814160145257 7.418071183033923" fill="#ff5708" stroke="none" /><path d="M 105.36241919743992 79.69619591428918 l 1.1763935168945152 -4.454195506783516 a25.606925147996428,25.606925147996428 0 0,0 0.4251994690284188,0.1162230768884625 l -1.252890875146645 4.43328588906876" fill="#ff2c04" stroke="none" /><path d="M 106.74666289553966 80.11325718540242 l 2.468221585903533 -7.275432113371587 a28.6827098235843,28.6827098235843 0 0,0 0.4661869064295451,0.16264345783340772 l -2.5930904963963517 7.231867802365972" fill="#ff5808" stroke="none" /><path d="M 107.08798089147638 80.2323363322302 l 3.6261339857020443 -10.112921880168479 a31.743371753628082,31.743371753628082 0 0,0 0.5127577494477242,0.18885300646225278 l -3.799674060922345 10.0490056058999" fill="#ff820b" stroke="none" /><line stroke="#e1ed5e" stroke-width="0.3" x1="143.23703022742887" x2="145.7803849466894" y1="26.81831364943548" y2="22.513508569990506" /><path d="M 143.74570117128098 25.957352633546492 a86.0,86.0 0 0,1 28.547481713284135,27.462654790039103" fill="none" id="id26" stroke="none" /><text fill="#e1ed5e" style="font-size:6.75px; font-family:Arial;" text-anchor="middle"><textPath startOffset="19.985693538727396" xlink:href="#id26">February</textPath></text><path d="M 110.99172775467656 82.1063720568725 l 1.6102684641067573 -2.6213845019058644 a24.07646245439937,24.07646245439937 0 0,0 0.3512650940312504,0.21996216965724735 l -1.6551527105102708 2.5932779909256727" fill="#ff1602" stroke="none" /><path d="M 113.6212207817346 84.01681056812373 l 3.979241438606877 -4.669256208937701 a27.134844412976534,27.134844412976534 0 0,0 0.3528902039018617,0.30602290738588067 l -4.059025441155503 4.6000683081321485" fill="#ff4206" stroke="none" /><path d="M 113.89432698308785 84.25364557470407 l 5.235864190139958 -5.933772349032217 a28.913528170653674,28.913528170653674 0 0,0 0.37035339941617396,0.33250693872331927 l -5.337228577152122 5.842766401539601" fill="#ff5b08" stroke="none" /><path d="M 114.16331599549186 84.49514656593476 l 7.734367886351644 -8.466960740069167 a32.467775319359035,32.467775319359035 0 0,0 0.4093909969184058,0.3804843145930111 l -7.878966767064897 8.332571839401515" fill="#ff8c0c" stroke="none" /><path d="M 114.42810811169701 84.74124197986012 l 4.185218941796798 -4.426168878122716 a27.091553868138803,27.091553868138803 0 0,0 0.33608589234414116,0.3233143621545603 l -4.260788077753356 4.353471429205855" fill="#ff4106" stroke="none" /><path d="M 114.68862486808459 84.99185889309783 l 10.841741429238311 -11.077577831543737 a36.50019638044537,36.50019638044537 0 0,0 0.4452401714063037,0.4433281686134245 l -11.030817400811939 10.889313812280195" fill="#ffc111" stroke="none" /><path d="M 114.94478906791727 85.2469230424477 l 9.770865515916263 -9.645524620194296 a34.72974719828795,34.72974719828795 0 0,0 0.41631992773170967,0.42905428108233323 l -9.935449707351081 9.475906143561849" fill="#ffaa0f" stroke="none" /><path d="M 115.19652480421416 85.50635884689758 l 6.363158848086901 -6.068844168818451 a29.793216707860005,29.793216707860005 0 0,0 0.35075508351421797,0.374161067402019 l -6.466681253571582 5.958413684538377" fill="#ff6709" stroke="none" /><path d="M 115.4437574822437 85.77008943001954 l 7.453045261432363 -6.867251552359342 a31.13444757016095,31.13444757016095 0 0,0 0.3597605570860082,0.39725659268223756 l -7.570149459134407 6.737942172407555" fill="#ff790b" stroke="none" /><path d="M 115.68641384162765 86.03803664274999 l 13.640359976455109 -12.140837803575682 a39.26086971806137,39.26086971806137 0 0,0 0.4449717350432704,0.5086796142965361 l -13.847323575076228 11.904242633076198" fill="#ffe415" stroke="none" /><path d="M 115.9244219780498 86.31012108654704 l 7.0043166194615525 -6.02145851975582 a30.236796739714762,30.236796739714762 0 0,0 0.3359011315010853,0.3976009910264781 l -7.106928364449755 5.899998579100235" fill="#ff6d0a" stroke="none" /><path d="M 116.15771136456269 86.58626213691792 l 5.926946673157297 -4.92040656058285 a28.70318749530849,28.70318749530849 0 0,0 0.3123200773757884,0.3828674857210816 l -6.010765242609494 4.817654905253668" fill="#ff5808" stroke="none" /><path d="M 116.38621287248628 86.86637796730983 l 10.801788921901172 -8.657681557118963 a34.84319666326332,34.84319666326332 0 0,0 0.3710732739428976,0.4712253748265189 l -10.949216276438033 8.470463788339405" fill="#ffab0f" stroke="none" /><path d="M 116.60985879189232 87.15038557335679 l 7.699353135018625 -5.956325117456623 a30.734364262886704,30.734364262886704 0 0,0 0.3201116631528334,0.4212294256417471 l -7.8007407383955725 5.822910915933843" fill="#ff740a" stroke="none" /><path d="M 116.82858285166822 87.43820079747576 l 4.645796004666788 -3.4678830095742983 a26.797381571457237,26.797381571457237 0 0,0 0.27274296802660775,0.3720211018735805 l -4.704801585207022 3.387399464029224" fill="#ff3d05" stroke="none" /><path d="M 117.04232023915458 87.72973835380427 l 7.462419772165266 -5.372850752319539 a30.195392001579037,30.195392001579037 0 0,0 0.30006653575258657,0.4244228348075936 l -7.5537989277217354 5.243601417180152" fill="#ff6d0a" stroke="none" /><path d="M 117.2510076193507 88.02491185347247 l 11.343997238972642 -7.874633752887725 a34.80927695789818,34.80927695789818 0 0,0 0.33744367411376996,0.4951569533995827 l -11.477865378755146 7.6781987762177355" fill="#ffab0f" stroke="none" /><path d="M 117.45458315368197 88.32363383020206 l 6.649093029330237 -4.447957549254542 a28.9996727728488,28.9996727728488 0 0,0 0.27398250722154177,0.4172941553577803 l -6.724672171909703 4.332845329919088" fill="#ff5c08" stroke="none" /><path d="M 117.65298651832404 88.62581576622439 l 14.566132977918082 -9.385260669209652 a38.32787776270961,38.32787776270961 0 0,0 0.3525661084863713,0.5576749146913471 l -14.725526682650408 9.133138106804099" fill="#ffd814" stroke="none" /><line stroke="#e1ed5e" stroke-width="0.3" x1="172.23445277983987" x2="176.4835382374775" y1="55.19839476539836" y2="52.563006222186495" /><path d="M 173.08426987136738 54.67131705675599 a86.0,86.0 0 0,1 12.851231095245387,41.99856678651699" fill="none" id="id27" stroke="none" /><text fill="#e1ed5e" style="font-size:6.75px; font-family:Arial;" text-anchor="middle"><textPath startOffset="22.20632615414155" xlink:href="#id27">March</textPath></text><path d="M 117.84615892207809 88.93136811851018 l 4.256864008683967 -2.6402129941471637 a26.009153206170925,26.009153206170925 0 0,0 0.2327004279710821,0.382498319126664 l -4.301680234941273 2.5665469018134184" fill="#ff3204" stroke="none" /><path d="M 118.03404312379186 89.2402003453031 l 7.514075193593346 -4.483184559247777 a29.74987255948637,29.74987255948637 0 0,0 0.2585976867369009,0.44202727230512673 l -7.590132554800574 4.353177874588755" fill="#ff6709" stroke="none" /><path d="M 118.21658344932153 89.55222093294921 l 5.303213439250447 -3.041558397206852 a27.113521919962835,27.113521919962835 0 0,0 0.22871205837007322,0.4068532314630817 l -5.354783138912953 2.949821655808976" fill="#ff4206" stroke="none" /><path d="M 118.3937258080291 89.86733742301442 l 8.196369064325177 -4.515183218018681 a30.357742533907647,30.357742533907647 0 0,0 0.24819897709919342,0.45987500967300443 l -8.272876140642834 4.373427225013218" fill="#ff6f0a" stroke="none" /><path d="M 118.56541770881063 90.18545643968196 l 8.21236655787393 -4.341439044342214 a30.28929800666472,30.28929800666472 0 0,0 0.23970455261475082,0.4630328992249875 l -8.285880543648796 4.199433422856881" fill="#ff6e0a" stroke="none" /><path d="M 118.73160827565052 90.50648371742162 l 4.750328768054783 -2.407552135592718 a26.32559205067436,26.32559205067436 0 0,0 0.20137822695305674,0.40596621727138854 l -4.791067007961248 2.3254263298223794" fill="#ff3605" stroke="none" /><path d="M 118.89224826269711 90.83032412892265 l 16.85755661928528 -8.18210347586827 a39.73830388434942,39.73830388434942 0 0,0 0.2933856384711757,0.6179449772864418 l -16.99590045159821 7.890716082941289" fill="#ffea16" stroke="none" /><path d="M 119.04729006885535 91.15688171328212 l 7.339950618634169 -3.407731562054732 a29.09243532461101,29.09243532461101 0 0,0 0.20696868720907444,0.4560280675260792 l -7.3975216228065905 3.2808814856865904" fill="#ff5d08" stroke="none" /><path d="M 119.196687751892 91.48605970444005 l 5.614238101426379 -2.48997580303357 a27.141632434393998,27.141632434393998 0 0,0 0.1857383205170302,0.42870965218116647 l -5.656267131786089 2.392967006265801" fill="#ff4206" stroke="none" /><path d="M 119.34039704204932 91.81776055985345 l 8.562369285866076 -3.62243626744538 a30.297107738390814,30.297107738390814 0 0,0 0.19906399133191902,0.4820492446243993 l -8.623454964084193 3.474512452367678" fill="#ff6e0a" stroke="none" /><path d="M 119.47837535516314 92.15188598940014 l 15.9281778822501 -6.417689038314907 a38.172465846264146,38.172465846264146 0 0,0 0.2403164857998388,0.6115792437884408 l -16.036287917931638 6.142560789630682" fill="#ffd614" stroke="none" /><path d="M 119.61058180528143 92.48833698450437 l 11.551166009425543 -4.424573802062521 a33.369571112500466,33.369571112500466 0 0,0 0.20084574629946547,0.5381667458599162 l -11.625616344226634 4.225083919173271" fill="#ff980e" stroke="none" /><path d="M 119.7369772167798 92.82701384747503 l 21.61683004052555 -7.856178828151576 a44.00014971214024,44.00014971214024 0 0,0 0.25257535674788817,0.7140645456896051 l -21.748858478083246 7.482916656035356" fill="#e0ff1b" stroke="none" /><path d="M 120.18372546131832 94.20196356495316 l 20.224901106668664 -5.809864672229096 a42.04284087959948,42.04284087959948 0 0,0 0.1938239619104073,0.6972879166914338 l -20.321911839145436 5.46086545211871" fill="#f8ff18" stroke="none" /><path d="M 120.28053869075195 94.5502522615342 l 4.432743551601276 -1.1911584062879845 a25.58999713977397,25.58999713977397 0 0,0 0.110650743224759,0.42638245092388605 l -4.452590626696338 1.114679529815248" fill="#ff2c04" stroke="none" /><path d="M 120.37134235888165 94.90015583598534 l 17.939099476245705 -4.4909466524047135 a39.49269833889538,39.49269833889538 0 0,0 0.15941359277773093,0.6608722589479942 l -18.013745869284254 4.181489161797313" fill="#ffe715" stroke="none" /><path d="M 120.45610955862082 95.25157060432595 l 3.4033479885965643 -0.7900112964515063 a24.49383677065848,24.49383677065848 0 0,0 0.0918001160812718,0.4115219201984822 l -3.4164424916798737 0.7313112067030602" fill="#ff1c02" stroke="none" /><path d="M 120.53481517161879 95.60439243477599 l 9.007185662269375 -1.9280452785944147 a30.211229676373357,30.211229676373357 0 0,0 0.1044743223986654,0.509453899316294 l -9.039039280583037 1.7727157231147088" fill="#ff6d0a" stroke="none" /><path d="M 120.6074358757038 95.95851677861258 l 15.089503393027861 -2.959318915260632 a36.37695291956175,36.37695291956175 0 0,0 0.11521841380046574,0.615501373687263 l -15.138207530738185 2.6991394641108064" fill="#ffbf11" stroke="none" /><path d="M 120.67395015179393 96.31383870115 l 9.03968347783324 -1.6117738093197043 a30.182248754625427,30.182248754625427 0 0,0 0.0867928484488284,0.5122563046064336 l -9.06608818780229 1.4559317163974328" fill="#ff6c0a" stroke="none" /><path d="M 120.73433829027371 96.67025291283417 l 3.0170249121562374 -0.4845068973274845 a24.0556809804247,24.0556809804247 0 0,0 0.06213709154725545,0.4094057968769855 l -3.024917897142793 0.43250198805841683" fill="#ff1602" stroke="none" /><path d="M 120.78858239683441 97.02765380044208 l 31.84913801468267 -4.553781615794681 a53.173040255509804,53.173040255509804 0 0,0 0.12175107227350702,0.9071869057241141 l -31.922805086014012 4.0048763680059025" fill="#79ff26" stroke="none" /><path d="M 120.87857604477298 97.74499172005257 l 10.759445518265263 -1.1620830213373508 a31.822019442275966,31.822019442275966 0 0,0 0.05413209528924285,0.5451028121802798 l -10.777854739236735 0.9767046784526361" fill="#ff830c" stroke="none" /><path d="M 120.91429891909075 98.10471618934814 l 8.185416354998237 -0.7417741881327 a29.21895795407499,29.21895795407499 0 0,0 0.04108118170716875,0.5012944716449803 l -8.196972020524901 0.600765799279951" fill="#ff5f08" stroke="none" /><path d="M 120.94382443527127 98.46500227214037 l 4.5939155408063925 -0.33669351740942144 a25.606237349586756,25.606237349586756 0 0,0 0.02843439626633452,0.43986752487851455 l -4.599030528077143 0.25756692827787164" fill="#ff2c04" stroke="none" /><path d="M 120.96714384426684 98.82574320788733 l 7.657240650712036 -0.42884080491480225 a28.669239781026334,28.669239781026334 0 0,0 0.0233536784448602,0.49295924126146057 l -7.663487937390393 0.29697045703034197" fill="#ff5808" stroke="none" /><path d="M 120.98425023603335 99.18683210126433 l 16.882117483034378 -0.6542047414357728 a37.894788384430626,37.894788384430626 0 0,0 0.019648096879445385,0.6520246809670084 l -16.89087727436947 0.3635099130437653" fill="#ffd313" stroke="none" /><line stroke="#e1ed5e" stroke-width="0.3" x1="184.98032266829074" x2="189.97916517819016" y1="98.17113171792111" y2="98.06355123074" /><path d="M 185.9800911702706 98.14961562048488 a86.0,86.0 0 0,1 -9.607161424134198,41.387399972396054" fill="none" id="id28" stroke="none" /><text fill="#e1ed5e" style="font-size:6.75px; font-family:Arial;" text-anchor="middle"><textPath startOffset="21.466115282336823" xlink:href="#id28">April</textPath></text><path d="M 120.99513854157772 99.54816195383933 l 9.169286689975092 -0.1973329480289309 a30.171409853197716,30.171409853197716 0 0,0 0.00670522643016003,0.5193271764346796 l -9.171324923522967 0.03946951353378858" fill="#ff6c0a" stroke="none" /><path d="M 120.99980553446 99.90962569577887 l 8.131269176647603 -0.034993552348300115 a29.13134447504257,29.13134447504257 0 0,0 -0.0021580815028688165,0.5014621388053022 l -8.13066679785523 -0.10497806466068677" fill="#ff5e08" stroke="none" /><path d="M 120.99824983174949 100.27111621757518 l 4.6777231134276045 0.060395823820467855 a25.678112993657784,25.678112993657784 0 0,0 -0.009510607296760277,0.4419205498666717 l -4.675990443445837 -0.1409061894772544" fill="#ff2d04" stroke="none" /><path d="M 120.8583938346157 102.4346265915055 l 7.611993906316028 0.8884846515813396 a28.663671196358045,28.663671196358045 0 0,0 -0.06142009253717635,0.4895785692894008 l -7.595572304532003 -1.0193809751581353" fill="#ff5708" stroke="none" /><path d="M 120.81339534386255 102.79330883721812 l 4.612259358091798 0.6189987078825578 a25.65361104806425,25.65361104806425 0 0,0 -0.06250435019643845,0.4371552796953899 l -4.600920956878758 -0.6982994595583571" fill="#ff2d04" stroke="none" /><path d="M 120.76222939487914 103.15116336523771 l 9.132854296191454 1.3861284032104204 a30.23744442720222,30.23744442720222 0 0,0 -0.0825312984364413,0.5139224741459963 l -9.107641243393724 -1.5431301070496217" fill="#ff6d0a" stroke="none" /><path d="M 120.64145759157962 103.86396538481128 l 12.597217071826574 2.358128562119951 a33.81603090938083,33.81603090938083 0 0,0 -0.11202778746964943,0.5712272747689966 l -12.55475935138126 -2.574619563956892" fill="#ff9e0e" stroke="none" /><path d="M 120.5718875245553 104.21870165774334 l 7.501126088830352 1.5382649272274045 a28.657228714546097,28.657228714546097 0 0,0 -0.10325603610379155,0.48237782497248516 l -7.473536014002118 -1.6671565716160586" fill="#ff5708" stroke="none" /><path d="M 120.41448212921028 104.9243191809786 l 4.492724813748538 1.0837213912737287 a25.62158287883882,25.62158287883882 0 0,0 -0.10710881364825861,0.42784646791338554 l -4.473404685805218 -1.1608956985845102" fill="#ff2c04" stroke="none" /><path d="M 120.32669344350535 105.2749913415812 l 3.701535019084189 0.9605873788817041 a24.824145605226533,24.824145605226533 0 0,0 -0.11089527868562467,0.4126825860454738 l -3.684451664056787 -1.0241608981027261" fill="#ff2103" stroke="none" /><path d="M 120.23288151984713 105.62410040840565 l 8.54164702647872 2.3743074105857227 a29.8654988356502,29.8654988356502 0 0,0 -0.14194269937464357,0.4941211576558701 l -8.499511690217979 -2.520986043746175" fill="#ff6809" stroke="none" /><path d="M 119.9155931802556 106.66101706037122 l 20.489638241636086 6.853013548382843 a42.605301894845965,42.605301894845965 0 0,0 -0.238608293012649,0.6935073895609288 l -20.368639117680207 -7.204693641033072" fill="#f1ff19" stroke="none" /><path d="M 119.79798401119884 107.00284435728193 l 7.206363959324771 2.54899918903518 a28.64389157301155,28.64389157301155 0 0,0 -0.16842027046017904,0.46342025067848525 l -7.161419427859366 -2.672667236719797" fill="#ff5708" stroke="none" /><path d="M 119.41010516605496 108.01547362559984 l 5.699120994599427 2.3534727725845985 a27.16593984745075,27.16593984745075 0 0,0 -0.18220457011915214,0.43067778140176244 l -5.657765443287966 -2.451225079652524" fill="#ff4206" stroke="none" /><path d="M 119.26925614724726 108.34839909993367 l 28.719579644008952 12.442748750567066 a52.29914138436247,52.29914138436247 0 0,0 -0.36499549670371234,0.8229684890698428 l -28.501143062573966 -12.935265576129597" fill="#82ff25" stroke="none" /><path d="M 118.97047184881838 109.00673069616215 l 5.941422700464032 2.8208467686836802 a27.57705710770269,27.57705710770269 0 0,0 -0.20728326936194835,0.42706493016196256 l -5.891986174487369 -2.922700654810918" fill="#ff4806" stroke="none" /><path d="M 118.81262510543309 109.33194174019688 l 6.8568822102325955 3.401334207569109 a28.65414319415204,28.65414319415204 0 0,0 -0.22298562842490724,0.43997179953439197 l -6.797317912021419 -3.5188602188061955" fill="#ff5708" stroke="none" /><line stroke="#e1ed5e" stroke-width="0.3" x1="174.80103733775053" x2="179.2010983576182" y1="140.37084112569926" y2="142.7455964860345" /><path d="M 175.68104954172406 140.8457921977663 a86.0,86.0 0 0,1 -30.038265399797805,32.042727171017184" fill="none" id="id29" stroke="none" /><text fill="#e1ed5e" style="font-size:6.75px; font-family:Arial;" text-anchor="middle"><textPath startOffset="22.206326154141568" xlink:href="#id29">May</textPath></text><path d="M 118.12598468904814 110.60418214915192 l 10.33546683165582 6.0465224239992414 a32.97423517608466,32.97423517608466 0 0,0 -0.2908313792302435,0.48745012017956635 l -10.22985457672735 -6.223534638064912" fill="#ff920d" stroke="none" /><path d="M 117.75023020441432 111.22182372390056 l 15.77277830605818 9.971664352991288 a39.660509785661716,39.660509785661716 0 0,0 -0.36977785390568896,0.5739034409507829 l -15.59879558877544 -10.241689393863524" fill="#ffe915" stroke="none" /><path d="M 116.71984013943494 112.70617746262583 l 50.159520418304794 38.11853238787748 a84.0,84.0 0 0,0 -0.8847727311277263,1.1436880235469893 l -49.495940869959 -38.97629840553772" fill="#4dd2ff" stroke="none" /><path d="M 115.80600337817218 113.82643327865902 l 6.608838854179818 5.781136906051548 a29.78056347434651,29.78056347434651 0 0,0 -0.34083308969262477,0.3829295894164401 l -6.508346914838855 -5.894040665208855" fill="#ff6709" stroke="none" /><path d="M 115.56566222782051 114.09645910891815 l 1.164852611042815 1.0549051469287047 a22.571529978864525,22.571529978864525 0 0,0 -0.26328463549310055,0.28574347248072324 l -1.1465215675539926 -1.0747998742107627" fill="#ff0000" stroke="none" /><path d="M 115.32070863581623 114.36230785411682 l 14.38759180570908 13.48756299104133 a40.720982566926395,40.720982566926395 0 0,0 -0.48379135104093013,0.5072532973940826 l -14.153293903289185 -13.733223405017918" fill="#fff617" stroke="none" /><path d="M 114.55890576462653 115.13401014063108 l 8.733065721267135 9.078038371920519 a33.59671455475722,33.59671455475722 0 0,0 -0.4202215712255007,0.39734572450170785 l -8.575508315650826 -9.227018733168148" fill="#ff9b0e" stroke="none" /><path d="M 114.29624159901734 115.38237550388516 l 2.2640887794887257 2.436099273995375 a24.32575971383495,24.32575971383495 0 0,0 -0.30916934415158853,0.2824188655480788 l -2.221819885870273 -2.4747109061300367" fill="#ff1a02" stroke="none" /><path d="M 114.0293411484842 115.62618273729858 l 4.122539235487263 4.591773109913101 a27.170875954113235,27.170875954113235 0 0,0 -0.35070827169470986,0.3094592736190318 l -4.042888610885965 -4.662055525304421" fill="#ff4206" stroke="none" /><path d="M 113.75828350139079 115.86535959552629 l 4.032778506805463 4.650397062475889 a27.155444364433528,27.155444364433528 0 0,0 -0.35578096397842507,0.30320425600559014 l -3.952132066249991 -4.719125708704426" fill="#ff4206" stroke="none" /><path d="M 113.48314897796784 116.09983520530334 l 9.989821798056681 11.928555038728083 a36.55914409178389,36.55914409178389 0 0,0 -0.4859404376597978,0.39989589753745275 l -9.783011231852193 -12.098746055122716" fill="#ffc112" stroke="none" /><path d="M 112.92097659922987 116.55440617244103 l 7.316379706311396 9.373774531663699 a32.891049616303526,32.891049616303526 0 0,0 -0.449309391648218,0.3445112819805098 l -7.153941586169684 -9.49832515547158" fill="#ff910d" stroke="none" /><path d="M 112.63410532772338 116.77436683061366 l 3.682854158406895 4.889744468190241 a27.12152070292113,27.12152070292113 0 0,0 -0.3753295972082355,0.2776598631512585 l -3.5981395907800953 -4.9524142800812685" fill="#ff4206" stroke="none" /><path d="M 112.34349029814194 116.9893568818739 l 3.6182363552406507 4.980075103344745 a27.155711360788395,27.155711360788395 0 0,0 -0.3805325593477906,0.2714998773285547 l -3.5319764680439754 -5.041619242517518" fill="#ff4206" stroke="none" /><path d="M 112.04921762599082 117.19931262002967 l 4.3865203988124 6.261413644863747 a28.645054744165225,28.645054744165225 0 0,0 -0.4062729688166775,0.27943825254682636 l -4.278090545372839 -6.335992686775668" fill="#ff5708" stroke="none" /><line stroke="#e1ed5e" stroke-width="0.3" x1="143.8653032363475" x2="146.44561519142675" y1="172.8068346515853" y2="177.08958963109032" /><path d="M 144.38136562736335 173.6633856474863 a86.0,86.0 0 0,1 -40.68145358897372,12.25698825130547" fill="none" id="id30" stroke="none" /><text fill="#e1ed5e" style="font-size:6.75px; font-family:Arial;" text-anchor="middle"><textPath startOffset="21.466115282336833" xlink:href="#id30">June</textPath></text><path d="M 110.21172684928248 118.3499491758327 l 2.4244280295951968 4.356572769733059 a25.985737414732792,25.985737414732792 0 0,0 -0.39272763200988303,0.2141464181207335 l -2.349077585716665 -4.3976598396135635" fill="#ff3204" stroke="none" /><path d="M 109.89434966115114 118.52300852407294 l 4.546004003132775 8.510480606029168 a30.648545617972577,30.648545617972577 0 0,0 -0.46747657075087257,0.24456164750966758 l -4.398836529855407 -8.587471672483552" fill="#ff730a" stroke="none" /><path d="M 109.57404056367764 118.69057910512821 l 2.8113583992636775 5.488374130526991 a27.16652143803525,27.16652143803525 0 0,0 -0.4180359640263622,0.20961191064707538 l -2.716468527554555 -5.535953882083368" fill="#ff4206" stroke="none" /><path d="M 108.92500713936063 119.00905698771935 l 0.9096810426395919 1.9374974731306196 a23.140424270495313,23.140424270495313 0 0,0 -0.362017617351337,0.16618453228313754 l -0.8761954295208355 -1.9528690757478315" fill="#ff0801" stroke="none" /><path d="M 107.93186726928326 119.44442032107085 l 2.8981103667420403 7.104515770960081 a28.672886551855058,28.672886551855058 0 0,0 -0.4586008705624153,0.18248675084010565 l -2.7753884201377588 -7.153349366206255" fill="#ff5808" stroke="none" /><path d="M 105.18746579009965 120.34920634021253 l 1.8902066388046457 7.4148353888106096 a28.651971313363592,28.651971313363592 0 0,0 -0.47896097215181105,0.11771695389235816 l -1.7622923819096237 -7.446273601016998" fill="#ff5708" stroke="none" /><path d="M 104.83641907484287 120.43548508189849 l 2.0709596525322267 8.750495858531659 a29.992221730617864,29.992221730617864 0 0,0 -0.5034120873802067,0.11457495211869143 l -1.920027415759158 -8.784847544228036" fill="#ff6a09" stroke="none" /><path d="M 104.48393922423573 120.51570834832081 l 3.3351080659657835 15.259373726937305 a36.61958489685352,36.61958489685352 0 0,0 -0.6169677054961221,0.12929158135135088 l -3.0719488990402835 -15.314521289015197" fill="#ffc212" stroke="none" /><path d="M 103.41894727170886 120.7198165907248 l 0.5091978291822291 3.0858872016992684 a24.127616065129356,24.127616065129356 0 0,0 -0.4103580550041521,0.06408948875200376 l -0.4560039105695599 -3.094194997798378" fill="#ff1702" stroke="none" /><path d="M 103.06178313531738 120.77559828337769 l 1.393781769799451 9.457446482749345 a30.55959840139183,30.55959840139183 0 0,0 -0.5210723072548122,0.07221587376383988 l -1.2307808713578083 -9.480036922005787" fill="#ff720a" stroke="none" /><path d="M 102.34483914955558 120.86867818915974 l 0.3734960645425858 3.3240528150231996 a24.344970317849242,24.344970317849242 0 0,0 -0.41684084585251086,0.043207258032002725 l -0.31622262208447227 -3.329989441510961" fill="#ff1a02" stroke="none" /><line stroke="#e1ed5e" stroke-width="0.3" x1="102.19456741930631" x2="102.32365962044197" y1="184.97166512339345" y2="189.96999836594603" /><path d="M 102.22038585953345 185.97133177190398 a86.0,86.0 0 0,1 -42.740103519485714,-10.115201625700543" fill="none" id="id31" stroke="none" /><text fill="#e1ed5e" style="font-size:6.75px; font-family:Arial;" text-anchor="middle"><textPath startOffset="22.20632615414155" xlink:href="#id31">July</textPath></text><path d="M 100.18074693466247 120.99922214144158 l 0.03300760159676215 3.8348310558129732 a24.83497310660594,24.83497310660594 0 0,0 -0.42750907251843256,0.0 l 0.033007601596759514 -3.8348310558129732" fill="#ff2103" stroke="none" /><path d="M 98.73552117531835 120.96189622390904 l -0.18876748820188569 3.1292928128963458 a24.13498112808463,24.13498112808463 0 0,0 -0.4144749029850031,-0.028584615986841914 l 0.24260515196581883 -3.125579852393219" fill="#ff1702" stroke="none" /><path d="M 98.37488393609728 120.93702456842531 l -0.3595248746052459 4.631903714306442 a25.645835786386098,25.645835786386098 0 0,0 -0.4398330230825843,-0.037950643952407624 l 0.43920221542937193 -4.6250288180753705" fill="#ff2d04" stroke="none" /><path d="M 97.65516085044442 120.86867818915974 l -1.0877820366306614 9.681079090945953 a30.74199990373472,30.74199990373472 0 0,0 -0.5253552726670104,-0.06361320722581794 l 1.2542647323490612 -9.660920354994786" fill="#ff740a" stroke="none" /><path d="M 97.2962882734958 120.8252237178851 l -0.45733476845169274 3.522601456956363 a24.552164989831674,24.552164989831674 0 0,0 -0.4186394432058282,-0.05801961217703097 l 0.517902802844352 -3.514207279286727" fill="#ff1d02" stroke="none" /><path d="M 95.86986931433489 120.58985236759428 l -0.6468929952134943 3.224941843924197 a24.28918233668331,24.28918233668331 0 0,0 -0.4092247669341464,-0.08575702872893347 l 0.7023092235770275 -3.2133288344687223" fill="#ff1902" stroke="none" /><path d="M 95.51606077576429 120.51570834832081 l -1.3205762424925829 6.042132974564822 a27.18476292953573,27.18476292953573 0 0,0 -0.45628957981872376,-0.10385002281540809 l 1.4243859717041694 -6.018506218171727" fill="#ff4306" stroke="none" /><path d="M 95.16358092515715 120.4354850818985 l -1.4296725597341091 6.040843817364057 a27.20771758811902,27.20771758811902 0 0,0 -0.45481808994969336,-0.1117832208404831 l 1.533443934427013 -6.015339338209544" fill="#ff4306" stroke="none" /><path d="M 94.81253420990036 120.34920634021253 l -2.280239081577779 8.944840786150355 a30.230908241269304,30.230908241269304 0 0,0 -0.5031424453720255,-0.13288449281327636 l 2.433871969761294 -8.904264944033496" fill="#ff6d0a" stroke="none" /><path d="M 94.46302465271185 120.25689768951611 l -1.6436037045929501 6.013086567624983 a27.23367012341074,27.23367012341074 0 0,0 -0.45113071495500806,-0.12749404626919855 l 1.746865587652572 -5.983903728017263" fill="#ff4306" stroke="none" /><path d="M 93.42475214034765 119.94407469862007 l -1.3949668503754844 4.231220428465856 a25.455239480422268,25.455239480422268 0 0,0 -0.41495709187999186,-0.14077597528805794 l 1.467593675192702 -4.206581466279674" fill="#ff2a04" stroke="none" /><path d="M 92.7421414339146 119.70592522655815 l -4.311366260679237 11.705857917134146 a33.47457368449341,33.47457368449341 0 0,0 -0.5389881052419713,-0.20379918202366326 l 4.512224586681491 -11.62991048500385" fill="#ff990e" stroke="none" /><path d="M 92.40401165467489 119.57807347666478 l -1.1237101009624966 2.8962760239954704 a24.106628268424814,24.106628268424814 0 0,0 -0.3855670649074977,-0.15342509232404264 l 1.1733982419118525 -2.8765040872653613" fill="#ff1602" stroke="none" /><path d="M 91.40352486487194 119.15986991738527 l -0.8759477513380317 1.9523170492847395 a23.139819226944656,23.139819226944656 0 0,0 -0.36200815181941576,-0.16618018712168753 l 0.909423898924867 -1.9369497918289775" fill="#ff0801" stroke="none" /><path d="M 91.07499286063937 119.00905698771935 l -3.46511723116124 7.380230613573601 a29.15321049251272,29.15321049251272 0 0,0 -0.45241247555392,-0.2171854813267477 l 3.5916423747154025 -7.319490855747291" fill="#ff5e08" stroke="none" /><path d="M 90.7491055286396 118.85261126421891 l -7.119600271500676 14.509197644699915 a37.161853987674746,37.161853987674746 0 0,0 -0.5718432333038532,-0.2867340684493429 l 7.36829741248729 -14.384495735341272" fill="#ffc912" stroke="none" /><path d="M 90.42595943632237 118.69057910512821 l -6.358982877473937 12.414097444969252 a34.94799192031594,34.94799192031594 0 0,0 -0.5330552262146535,-0.2788693006096517 l 6.571729006215087 -12.302798725414883" fill="#ffac10" stroke="none" /><path d="M 90.10565033884886 118.52300852407294 l -1.4793365265114966 2.7694354888360495 a24.139778572685607,24.139778572685607 0 0,0 -0.3648292878815524,-0.19893401649774006 l 1.5267886262616897 -2.7435608205785433" fill="#ff1702" stroke="none" /><line stroke="#e1ed5e" stroke-width="0.3" x1="58.666819895761336" x2="56.23545636021788" y1="174.27360380694188" y2="178.64263932499728" /><path d="M 58.180547188652646 175.14741091055294 a86.0,86.0 0 0,1 -31.652253787137756,-30.449443065178592" fill="none" id="id32" stroke="none" /><text fill="#e1ed5e" style="font-size:6.75px; font-family:Arial;" text-anchor="middle"><textPath startOffset="22.20632615414155" xlink:href="#id32">August</textPath></text><path d="M 89.7882731507175 118.34994917583269 l -4.681255341874696 8.411975650184143 a30.62681078629477,30.62681078629477 0 0,0 -0.4584559874258396,-0.2603232746266857 l 4.8253600962217424 -8.330149209762823" fill="#ff730a" stroke="none" /><path d="M 88.8546689885994 117.79835938074946 l -1.6459449924929401 2.628465719624499 a24.10128472694039,24.10128472694039 0 0,0 -0.3497190500165372,-0.2232072441047203 l 1.6909458445564007 -2.5997440466959745" fill="#ff1602" stroke="none" /><path d="M 88.54995079064634 117.60387380957326 l -6.144469337485384 9.446812049988615 a32.26928397668229,32.26928397668229 0 0,0 -0.4630262721771197,-0.3068685651480792 l 6.306170308402465 -9.339645463749218" fill="#ff890c" stroke="none" /><path d="M 88.24862548938628 117.40417183066458 l -12.577420885907008 18.62757365848628 a43.476165521360215,43.476165521360215 0 0,0 -0.6166226944539434,-0.4241187119113362 l 12.896200464983842 -18.408314157209844" fill="#e7ff1a" stroke="none" /><path d="M 87.95078237400918 117.19931262002967 l -1.9277022722811898 2.7516437206502338 a24.359699274630383,24.359699274630383 0 0,0 -0.3413520856353816,-0.2435456496408504 l 1.9747816857654585 -2.718053809165164" fill="#ff1a02" stroke="none" /><path d="M 87.07902340077011 116.55440617244103 l -1.2764973925079883 1.6354534931127895 a23.074645444700014,23.074645444700014 0 0,0 -0.3110050238726611,-0.24708120032709685 l 1.3044599090980076 -1.6132383787805622" fill="#ff0701" stroke="none" /><path d="M 86.79598089348748 116.32954008644616 l -5.918004886877558 7.3188547556998875 a30.41214198661163,30.41214198661163 0 0,0 -0.40423510873350366,-0.33265797430157945 l 6.04311012415575 -7.215901662541127" fill="#ff700a" stroke="none" /><path d="M 86.51685102203217 116.09983520530335 l -11.62703202503434 13.883500051488035 a39.10909846985328,39.10909846985328 0 0,0 -0.512393484238288,-0.4366728434071182 l 11.864290985849685 -13.681302817857965" fill="#ffe215" stroke="none" /><path d="M 86.24171649860922 115.8653595955263 l -5.315195466691734 6.129215711469471 a29.112865590336412,29.112865590336412 0 0,0 -0.37577451652682636,-0.33157732028106207 l 5.419912336125148 -6.0368152494161205" fill="#ff5e08" stroke="none" /><line stroke="#e1ed5e" stroke-width="0.3" x1="26.63291911575756" x2="22.317208475507996" y1="142.92168965132927" y2="145.44649492493687" /><path d="M 25.769776987707644 143.4266507060508 a86.0,86.0 0 0,1 -11.730757126820373,-40.83630448921669" fill="none" id="id33" stroke="none" /><text fill="#e1ed5e" style="font-size:6.75px; font-family:Arial;" text-anchor="middle"><textPath startOffset="21.46611528233685" xlink:href="#id33">September</textPath></text><line stroke="#e1ed5e" stroke-width="0.3" x1="15.007084014347285" x2="10.007500721073583" y1="101.09737516637583" y2="101.16192664675087" /><path d="M 14.007167355692545 101.11028546245083 a86.0,86.0 0 0,1 10.666146001902534,-42.60595125391555" fill="none" id="id34" stroke="none" /><text fill="#e1ed5e" style="font-size:6.75px; font-family:Arial;" text-anchor="middle"><textPath startOffset="22.20632615414155" xlink:href="#id34">October</textPath></text><line stroke="#e1ed5e" stroke-width="0.3" x1="26.266209847984243" x2="21.928928074336255" y1="57.711370442889674" y2="55.22380399835377" /><path d="M 25.398753493254645 57.213857153982495 a86.0,86.0 0 0,1 29.58750427330803,-30.492523968695096" fill="none" id="id35" stroke="none" /><text fill="#e1ed5e" style="font-size:6.75px; font-family:Arial;" text-anchor="middle"><textPath startOffset="21.46611528233685" xlink:href="#id35">November</textPath></text><line stroke="#e1ed5e" stroke-width="0.3" x1="56.762969772571076" x2="54.21961505331055" y1="26.818313649435495" y2="22.513508569990535" /><path d="M 56.25429882871897 25.957352633546506 a86.0,86.0 0 0,1 42.265352541879196,-11.944610805530505" fill="none" id="id36" stroke="none" /><text fill="#e1ed5e" style="font-size:6.75px; font-family:Arial;" text-anchor="middle"><textPath startOffset="22.20632615414155" xlink:href="#id36">December</textPath></text><path d="M 89.63071344664047 81.73862282372117 l -3.060186892681317 -5.389302994915569 a27.19752616687856,27.19752616687856 0 0,0 0.4090973025214115,-0.22766220593291547 l 2.9669655010878597 5.441180598408669" fill="#ff4306" stroke="none" /><path d="M 89.94658935756843 81.56283822128135 l -2.261879123406737 -4.14810782185158 a25.72471117324747,25.72471117324747 0 0,0 0.3905929325818384,-0.2086412174953421 l 2.190141144296593 4.186427765848672" fill="#ff2e04" stroke="none" /><path d="M 93.59665428221793 80.00007090966166 l -0.9989842119697538 -3.120183460699187 a24.27620424946089,24.27620424946089 0 0,0 0.39907146676075544,-0.12399344730292584 l 0.9451273724982696 3.1369170428846385" fill="#ff1902" stroke="none" /><path d="M 95.692805502759 79.44645832069477 l -0.7426024601342293 -3.543631620373851 a24.62060540168503,24.62060540168503 0 0,0 0.41554140826724006,-0.08335369728780302 l 0.6814946423998528 3.555889273738865" fill="#ff1e03" stroke="none" /><path d="M 96.04723909329186 79.375362276772 l -0.6246553109382786 -3.259314133604288 a24.31863268214427,24.31863268214427 0 0,0 0.41180116332748257,-0.07525403043130478 l 0.5684590265079027 3.2695836453863287" fill="#ff1a02" stroke="none" /><path d="M 96.75951476605007 79.25152402106235 l -1.180534931860387 -7.558837306024453 a28.650469537504847,28.650469537504847 0 0,0 0.4879188872331332,-0.07190656076212563 l 1.050247064198605 7.578038350947548" fill="#ff5708" stroke="none" /><path d="M 97.47563105711357 79.15227682838746 l -0.4150351406600889 -3.4276042507000892 a24.45264030379651,24.45264030379651 0 0,0 0.4182953611535215,-0.04700035766615052 l 0.3559730759968494 3.434240561836838" fill="#ff1c02" stroke="none" /><path d="M 97.83486435360386 79.11191278185805 l -0.474520046434051 -4.577919232529094 a25.60244649876862,25.60244649876862 0 0,0 0.4387465323773039,-0.041664269913078096 l 0.3956483869665108 4.585409046957353" fill="#ff2c04" stroke="none" /><path d="M 98.19473922651362 79.07773832637324 l -0.5267273418785956 -6.104562531514498 a27.127244518856187,27.127244518856187 0 0,0 0.46556786000774364,-0.03613702633164181 l 0.42156929250851777 6.112724820034602" fill="#ff4206" stroke="none" /><path d="M 98.55514903715128 79.0497635885617 l -0.21389153396517754 -3.101412061310888 a24.108778918216384,24.108778918216384 0 0,0 0.4142553518965567,-0.024989014108693513 l 0.16047413322899787 3.104634344799888" fill="#ff1702" stroke="none" /><path d="M 98.91598698831166 79.02799685794201 l -0.240222103598824 -4.647489151094032 a25.65369337930575,25.65369337930575 0 0,0 0.4411936450956939,-0.018998726433308428 l 0.160187626113806 4.650935604051533" fill="#ff2d04" stroke="none" /><path d="M 99.27714615592234 79.0124445844662 l -0.12916384830130936 -3.7501819297457946 a24.75240560253018,24.75240560253018 0 0,0 0.42594571902892664,-0.011000921260239806 l 0.0645914940775037 3.751849643148394" fill="#ff2003" stroke="none" /></svg>