<?xml version="1.0" encoding="utf-8" ?>
<svg baseProfile="full" height="200mm" version="1.1" viewBox="0,0,200,200" width="200mm" xmlns="http://www.w3.org/2000/svg" xmlns:ev="http://www.w3.org/2001/xml-events" xmlns:xlink="http://www.w3.org/1999/xlink"><defs /><rect fill="#1a1a1a" height="200" width="200" x="0" y="0" /><rect fill="#1a1a1a" height="200" width="180" x="10" y="0" /><text alignment-baseline="middle" fill="#e1ed5e" style="dominant-baseline: central; font-size:9.0px; font-family:Arial;" text-anchor="middle" x="100.0" y="100.0">2025</text><line stroke="#e1ed5e" stroke-width="0.3" x1="100.0" x2="100.0" y1="15.0" y2="10.0" /><path d="M 100.0 14.0 a86.0,86.0 0 0,1 42.46469731375804,11.215312516191453" fill="none" id="id157" stroke="none" /><text fill="#e1ed5e" style="font-size:6.75px; font-family:Arial;" text-anchor="middle"><textPath startOffset="22.20632615414155" xlink:href="#id157">January</textPath></text><path d="M 100.0 79.0 l 0.0 -14.710698654336468 a35.71069865433647,35.71069865433647 0 0,0 0.61470097451078,0.00529092535563796 l -0.2532204952382517 14.708519105589389" fill="#ffa80f" stroke="none" /><path d="M 100.36148047927253 79.00311137660856 l 0.2087744753039266 -12.126835767689206 a33.1286327555106,33.1286327555106 0 0,0 0.570085975726304,0.014723638835553013 l -0.41748708622509845 12.121445336711293" fill="#ff850c" stroke="none" /><path d="M 100.72285384407766 79.0124445844662 l 0.5062648766595715 -14.699046343716484 a35.707762152688765,35.707762152688765 0 0,0 0.6141040788716574,0.02644461343845826 l -0.7592097879205605 14.688154003753832" fill="#ffa80f" stroke="none" /><path d="M 101.08401301168833 79.027996857942 l 0.5689601762887482 -11.007464371898337 a32.02215893465585,32.02215893465585 0 0,0 0.5502290581768349,0.033191319399606796 l -0.758351283305195 10.996039783118427" fill="#ff750a" stroke="none" /><path d="M 101.44485096284872 79.0497635885617 l 0.6088428379486359 -8.828177936972793 a29.84914771535511,29.84914771535511 0 0,0 0.5122821750374591,0.03976295624927868 l -0.7607152023484363 8.81638971853505" fill="#ff5708" stroke="none" /><path d="M 101.80526077348638 79.07773832637324 l 2.533723098553671 -29.364853241714993 a50.473960688166834,50.473960688166834 0 0,0 0.86496715180505,0.08213905346097154 l -3.0388153774489655 29.316888643738846" fill="#9eff22" stroke="none" /><path d="M 102.16513564639614 79.11191278185805 l 0.910939186385355 -8.788261006792942 a29.8353461576109,29.8353461576109 0 0,0 0.5103737977203341,0.05734644288221606 l -1.0620796876154144 8.771278610440124" fill="#ff5708" stroke="none" /><path d="M 102.52436894288641 79.15227682838746 l 1.4315554949229965 -11.822627095400131 a32.90898243226236,32.90898243226236 0 0,0 0.561780261988576,0.07293520120759321 l -1.6348504854194186 11.796233571028402" fill="#ff820c" stroke="none" /><path d="M 102.88285421437855 79.19881850522331 l 2.019466648195567 -14.571424410658093 a35.71069865433647,35.71069865433647 0 0,0 0.6081549318740658,0.08962622826423788 l -2.2699905604982886 14.534503698232886" fill="#ffa80f" stroke="none" /><path d="M 103.2404852339499 79.25152402106235 l 1.4994462160142297 -9.60079171746695 a30.71717760241632,30.71717760241632 0 0,0 0.5217104819346187,0.08608669970711717 l -1.6644859040877236 9.573558754820208" fill="#ff6309" stroke="none" /><path d="M 103.59715602781102 79.31037775812273 l 4.310229280507602 -24.79097790035187 a46.162882619173025,46.162882619173025 0 0,0 0.7817022039681917,0.14285108126044369 l -4.736326605578694 24.71311133774069" fill="#d1ff1c" stroke="none" /><path d="M 103.95276090670814 79.375362276772 l 2.254688235438979 -11.764467705556287 a32.97857752131294,32.97857752131294 0 0,0 0.5566055067402712,0.11164982837935501 l -2.4568601516463753 11.723913921099722" fill="#ff830c" stroke="none" /><path d="M 104.307194497241 79.44645832069477 l 3.018133924768375 -14.402261485100714 a35.715103406808026,35.715103406808026 0 0,0 0.6006213631296846,0.1312725665293223 l -3.2655980120515875 14.348175420475522" fill="#ffa80f" stroke="none" /><path d="M 104.66035177308747 79.52364482259891 l 2.6295652727802996 -11.553615501419005 a32.84907779864921,32.84907779864921 0 0,0 0.5502632130804783,0.1302295242447706 l -2.8280521728233015 11.506640065033366" fill="#ff810b" stroke="none" /><path d="M 105.01212808612495 79.60689891045804 l 3.512304691057641 -14.290693172884982 a35.71598435730233,35.71598435730233 0 0,0 0.5957615167727474,0.15187287580888964 l -3.7577750965154135 14.228117300907225" fill="#ffa80f" stroke="none" /><path d="M 105.36241919743992 79.69619591428918 l 4.50604579308977 -17.06130528322261 a38.646319351545856,38.646319351545856 0 0,0 0.6417168157913614,0.1754054467489326 l -4.799060498104843 16.981213295647382" fill="#ffcf13" stroke="none" /><path d="M 105.71112130821622 79.79150937346287 l 3.203127111618443 -11.334090228065179 a32.77801445877478,32.77801445877478 0 0,0 0.5416329362284663,0.15811750663813257 l -3.3977502655703367 11.277274392508343" fill="#ff800b" stroke="none" /><path d="M 106.0581310904928 79.89281104454417 l 1.4255489159295327 -4.731456119003974 a25.94154497275579,25.94154497275579 0 0,0 0.4264476561465729,0.1324993626055625 l -1.5067819447868238 4.706216621515891" fill="#ff1e03" stroke="none" /><path d="M 106.40334571778207 80.00007090966166 l 4.489991717455151 -14.023843147487186 a35.72508751241021,35.72508751241021 0 0,0 0.5840493438049205,0.19255188600202758 l -4.730723883502489 13.944477537225922" fill="#ffa80f" stroke="none" /><path d="M 106.74666289553966 80.11325718540242 l 4.729969156389756 -13.942252872348114 a35.72273831109205,35.72273831109205 0 0,0 0.5806101642720979,0.2025634857351114 l -4.969261324725128 13.858768533440795" fill="#ffa80f" stroke="none" /><path d="M 107.08798089147638 80.2323363322302 l 5.0922613706788935 -14.201803253308361 a36.087158165572085,36.087158165572085 0 0,0 0.5829238982096447,0.21469579120775628 l -5.335967594661114 14.112044194294281" fill="#ffad10" stroke="none" /><path d="M 107.4271985657038 80.35727306442388 l 3.654937358233366 -9.666220158153376 a31.334136598598867,31.334136598598867 0 0,0 0.502863406853709,0.1951031894074784 l -3.820783930086742 9.60187426485535" fill="#ff6c09" stroke="none" /><path d="M 107.76421540070413 80.48803036053334 l 6.046353655673471 -15.194873257673887 a37.35367132622669,37.35367132622669 0 0,0 0.5953750629991335,0.24286843717489695 l -6.307012588260991 15.08854393431541" fill="#ffbe11" stroke="none" /><path d="M 108.09893153111575 80.62456947434976 l 4.542349174957534 -10.8668619464807 a32.77801445877478,32.77801445877478 0 0,0 0.5186984091445118,0.2220795890303306 l -4.728731341892361 10.787062829487578" fill="#ff800b" stroke="none" /><path d="M 108.43124777332544 80.76684994638697 l 3.672138300778415 -8.376789397642668 a30.146321682102723,30.146321682102723 0 0,0 0.4734664739623853,0.2124306056504709 l -3.8157868932075805 8.312338461475665" fill="#ff5b08" stroke="none" /><path d="M 108.76106565485865 80.91482961587045 l 2.507881127904849 -5.4631868444751746 a27.011312523014247,27.011312523014247 0 0,0 0.420889999948871,0.19761349849474286 l -2.601549339153318 5.419208363340429" fill="#ff2e04" stroke="none" /><path d="M 109.08828744355905 81.06846463323043 l 3.849012008936377 -8.017759938473528 a29.893782540400203,29.893782540400203 0 0,0 0.46197101771913107,0.22668717207667552 l -3.9864542936659397 7.950317606262021" fill="#ff5708" stroke="none" /><path d="M 109.41281617654863 81.2277094730956 l 3.1030032678434494 -6.188422014977621 a27.92280263446148,27.92280263446148 0 0,0 0.4278032811793832,0.2191374565896692 l -3.2090670366115885 6.134092033075451" fill="#ff3b05" stroke="none" /><path d="M 109.73455568895987 81.39251694778311 l 5.47535577860719 -10.466074992085977 a32.81178422772337,32.81178422772337 0 0,0 0.4981999968216109,0.2661211845435954 l -5.654700821957112 10.370275081040626" fill="#ff800b" stroke="none" /><path d="M 110.05341064243156 81.56283822128135 l 7.047148406520686 -12.923914069647116 a35.72038910977389,35.72038910977389 0 0,0 0.5372957356548184,0.2990044951741563 l -7.2685682312475395 12.80069417691278" fill="#ffa80f" stroke="none" /><path d="M 110.36928655335952 81.73862282372117 l 5.814970582815364 -10.240759625584197 a32.77654620795093,32.77654620795093 0 0,0 0.48821955963562874,0.28280828133303076 l -5.990386874916321 10.139147186861116" fill="#ff800b" stroke="none" /><line stroke="#e1ed5e" stroke-width="0.3" x1="143.23703022742887" x2="145.7803849466894" y1="26.81831364943548" y2="22.513508569990506" /><path d="M 143.74570117128098 25.957352633546492 a86.0,86.0 0 0,1 28.547481713284135,27.462654790039103" fill="none" id="id158" stroke="none" /><text fill="#e1ed5e" style="font-size:6.75px; font-family:Arial;" text-anchor="middle"><textPath startOffset="19.985693538727396" xlink:href="#id158">February</textPath></text><path d="M 110.68208982089419 81.91981866633111 l 5.989640018383942 -10.137883080140236 a32.77507795712708,32.77507795712708 0 0,0 0.48325749610479446,0.2911572341981086 l -6.163259580706374 10.033279236483512" fill="#ff800b" stroke="none" /><path d="M 110.99172775467656 82.1063720568725 l 4.6463836286379605 -7.563930056083603 a29.87704448100829,29.87704448100829 0 0,0 0.43589305774775783,0.27295619277273997 l -4.7758958387579815 7.482829521987919" fill="#ff5708" stroke="none" /><path d="M 111.2981086023043 82.29822771554956 l 6.3856081345272555 -10.004911890480642 a32.8690460098536,32.8690460098536 0 0,0 0.4743049891428226,0.3085011585901008 l -6.556880149454359 9.893511807731015" fill="#ff810b" stroke="none" /><path d="M 111.60114157652 82.49532879139004 l 8.130116095158316 -12.267328020684705 a35.716865307796645,35.716865307796645 0 0,0 0.50955262746332,0.34405220865715025 l -8.340073417028178 12.125563899728885" fill="#ffa80f" stroke="none" /><path d="M 111.90073688211348 82.69761687909136 l 6.689598565179793 -9.72595213610554 a32.80444297360411,32.80444297360411 0 0,0 0.46249400227562276,0.32400660463864783 l -6.856023707039067 9.609360688702957" fill="#ff800b" stroke="none" /><path d="M 112.19680574252982 82.90503203632743 l 6.878366031614858 -9.640675553506068 a32.842911145189035,32.842911145189035 0 0,0 0.45738396138032794,0.3323088995703678 l -7.0432953093489745 9.520847419119026" fill="#ff810b" stroke="none" /><path d="M 112.48926042617603 83.11751280151076 l 7.022163677005032 -9.492282516125885 a32.80737947525182,32.80737947525182 0 0,0 0.4511074765993927,0.3397647989358872 l -7.184517307362808 9.37000112768415" fill="#ff800b" stroke="none" /><path d="M 112.77801427241765 83.33499621200491 l 8.958267047724185 -11.68331409728102 a35.72244466092729,35.72244466092729 0 0,0 0.48474922754681427,0.3783544610651279 l -9.15804883043043 11.527381246992668" fill="#ffa80f" stroke="none" /><path d="M 113.06298171725822 83.55741782278167 l 7.336704788460152 -9.234826627283 a32.794458868001925,32.794458868001925 0 0,0 0.43897194922437743,0.3549514544866253 l -7.494580136249021 9.107169075532246" fill="#ff800b" stroke="none" /><path d="M 113.34407831869373 83.78471172551755 l 10.306190580491526 -12.52374628529497 a37.219179550761865,37.219179550761865 0 0,0 0.4911911949075712,0.41135849983254547 l -10.520239312358214 12.344486628068607" fill="#ffbc11" stroke="none" /><path d="M 113.6212207817346 84.01681056812373 l 9.969399559106717 -11.698129281403128 a36.369943274245955,36.369943274245955 0 0,0 0.47299319290771336,0.41017503593724874 l -10.169286550661196 11.524789252046208" fill="#ffb110" stroke="none" /><path d="M 113.89432698308785 84.25364557470407 l 8.12983371402661 -9.213490026224589 a33.28749749465137,33.28749749465137 0 0,0 0.42637957507082036,0.3828077924070397 l -8.28722427669342 9.072183225048251" fill="#ff870c" stroke="none" /><path d="M 114.16331599549186 84.49514656593476 l 10.021750378769728 -10.971002187981352 a35.85928563771027,35.85928563771027 0 0,0 0.45215505379115994,0.4202288448609528 l -10.209113316355735 10.796868757045758" fill="#ffaa0f" stroke="none" /><path d="M 114.42810811169701 84.74124197986012 l 12.16006635712804 -12.86014137236991 a38.69888273103976,38.69888273103976 0 0,0 0.480081304995899,0.4618378350381354 l -12.379630905736358 12.648920450569474" fill="#ffd013" stroke="none" /><path d="M 114.68862486808459 84.99185889309783 l 13.693754852758207 -13.99163005109282 a40.57765648524058,40.57765648524058 0 0,0 0.49497823355366233,0.49285263971521825 l -13.932568886479192 13.753841560727484" fill="#ffe815" stroke="none" /><path d="M 114.94478906791727 85.2469230424477 l 8.406979357044722 -8.299134425476318 a32.81325247854723,32.81325247854723 0 0,0 0.39334610823727945,0.4053777406375764 l -8.54858972898511 8.153192489288626" fill="#ff800b" stroke="none" /><path d="M 115.19652480421416 85.50635884689758 l 10.686109033065778 -10.191845283286844 a35.76707948597238,35.76707948597238 0 0,0 0.4210852784101081,0.44918441568592665 l -10.85996163344635 10.006391450722862" fill="#ffa90f" stroke="none" /><path d="M 115.4437574822437 85.77008943001954 l 13.321204529095175 -12.274185822419659 a39.11381041386029,39.11381041386029 0 0,0 0.45196261126961573,0.4990684037933882 l -13.530510780980826 12.043064631356723" fill="#ffd513" stroke="none" /><path d="M 115.68641384162765 86.03803664274999 l 15.516272539920907 -13.810526155352377 a41.772225355526444,41.772225355526444 0 0,0 0.47343473862261937,0.5412177477154064 l -15.751699142121375 13.541392851434022" fill="#fff717" stroke="none" /><path d="M 115.9244219780498 86.31012108654704 l 11.151645410351422 -9.58682679747542 a35.70600025170015,35.70600025170015 0 0,0 0.3966586139784745,0.4695186863832316 l -11.315014637817015 9.393449161463082" fill="#ffa80f" stroke="none" /><path d="M 116.15771136456269 86.58626213691792 l 13.574402544729349 -11.269137891787173 a38.64250189940384,38.64250189940384 0 0,0 0.4204699978073339,0.5154465003796213 l -13.766371034613092 11.033807221799451" fill="#ffcf13" stroke="none" /><path d="M 116.38621287248628 86.86637796730983 l 9.747131448758429 -7.8123689315600355 a33.49158435916678,33.49158435916678 0 0,0 0.3566788655414604,0.45294593793175336 l -9.880164394893853 7.643430599675244" fill="#ff8a0c" stroke="none" /><path d="M 116.60985879189232 87.15038557335679 l 23.332043406132186 -18.049988582735285 a50.49892095217231,50.49892095217231 0 0,0 0.5259680478552716,0.6921122976959735 l -23.63928739421157 17.64569150915828" fill="#9eff22" stroke="none" /><path d="M 116.82858285166822 87.43820079747576 l 11.810936863929216 -8.816346485388264 a35.73859541998966,35.73859541998966 0 0,0 0.36374638178576507,0.4961496559693777 l -11.960945858228607 8.611734385747393" fill="#ffa80f" stroke="none" /><path d="M 117.04232023915458 87.72973835380427 l 14.367624191440747 -10.344513281598498 a38.704168434005624,38.704168434005624 0 0,0 0.38462245300770886,0.5440211832577705 l -14.54355926425234 10.095665598008933" fill="#ffd013" stroke="none" /><path d="M 117.2510076193507 88.02491185347247 l 13.30003549568009 -9.232451861771812 a37.19040183461436,37.19040183461436 0 0,0 0.36052647264172083,0.5290281119716145 l -13.456986433990545 9.00214572652979" fill="#ffbc11" stroke="none" /><path d="M 117.45458315368197 88.32363383020206 l 7.346609080676801 -4.914565817875156 a29.838869959588145,29.838869959588145 0 0,0 0.28191105700474417,0.42936988062413195 l -7.43011677303947 4.78737787327335" fill="#ff5708" stroke="none" /><path d="M 117.65298651832404 88.62581576622439 l 14.864183109812119 -9.577300532127179 a38.68243832181262,38.68243832181262 0 0,0 0.35582759969962396,0.5628338105419038 l -15.0268383057577 9.32001907387107" fill="#ffcf13" stroke="none" /><line stroke="#e1ed5e" stroke-width="0.3" x1="172.23445277983987" x2="176.4835382374775" y1="55.19839476539836" y2="52.563006222186495" /><path d="M 173.08426987136738 54.67131705675599 a86.0,86.0 0 0,1 12.851231095245387,41.99856678651699" fill="none" id="id159" stroke="none" /><text fill="#e1ed5e" style="font-size:6.75px; font-family:Arial;" text-anchor="middle"><textPath startOffset="22.20632615414155" xlink:href="#id159">March</textPath></text><path d="M 117.84615892207809 88.93136811851018 l 32.476547162707796 -20.142762758945373 a59.21592609338076,59.21592609338076 0 0,0 0.5297970001331812,0.8708469674773176 l -32.8184599611272 19.580748018260977" fill="#40ff2d" stroke="none" /><path d="M 118.03404312379186 89.2402003453031 l 6.340717815773525 -3.7831146846201733 a28.38353974298619,28.38353974298619 0 0,0 0.24672098020805247,0.421726130956339 l -6.404898470451905 3.6734091413099392" fill="#ff4206" stroke="none" /><path d="M 118.21658344932153 89.55222093294921 l 12.76547414684325 -7.321397777108107 a35.71598435730233,35.71598435730233 0 0,0 0.301276843457862,0.5359378871379484 l -12.889608631593545 7.100576380035364" fill="#ffa80f" stroke="none" /><path d="M 118.3937258080291 89.86733742301442 l 7.7323762679410315 -4.259580710240716 a29.828004903491642,29.828004903491642 0 0,0 0.2438679456381634,0.45185026614539814 l -7.80455231279766 4.125849460762859" fill="#ff5708" stroke="none" /><path d="M 118.56541770881063 90.18545643968196 l 10.442155063621733 -5.520208989796907 a32.8114905775586,32.8114905775586 0 0,0 0.2596647722831412,0.5015896904139993 l -10.53562926906499 5.339646577122563" fill="#ff800b" stroke="none" /><path d="M 118.73160827565052 90.50648371742162 l 12.734273628872357 -6.453959118911262 a35.27639006064109,35.27639006064109 0 0,0 0.2698475639234242,0.5439962225480746 l -12.843481205749189 6.233803307864238" fill="#ffa20f" stroke="none" /><path d="M 118.89224826269711 90.83032412892265 l 14.26211036992783 -6.922359240217754 a36.85329144545798,36.85329144545798 0 0,0 0.27208575564666476,0.5730819919106617 l -14.379154319416251 6.675834832666552" fill="#ffb711" stroke="none" /><path d="M 119.04729006885535 91.15688171328212 l 9.9122864236093 -4.601994352946421 a31.9284845320941,31.9284845320941 0 0,0 0.22714483866507013,0.5004835428091432 l -9.990033579237718 4.430688801295215" fill="#ff740a" stroke="none" /><path d="M 119.196687751892 91.48605970444005 l 16.130457540035838 -7.154033769309727 a38.64573205121632,38.64573205121632 0 0,0 0.26446432003286946,0.6104201133078759 l -16.251212569911388 6.875314511415248" fill="#ffcf13" stroke="none" /><path d="M 119.34039704204932 91.81776055985345 l 7.133755224062215 -3.018040075587216 a28.745904046312827,28.745904046312827 0 0,0 0.18887196901149886,0.4573684541515431 l -7.184648879959911 2.89479705098237" fill="#ff4706" stroke="none" /><path d="M 119.47837535516314 92.15188598940014 l 5.473875522805153 -2.2055021735382776 a26.90148736139013,26.90148736139013 0 0,0 0.16935953080722335,0.4310015329772947 l -5.511028603494077 2.1109516356651987" fill="#ff2c04" stroke="none" /><path d="M 119.61058180528143 92.48833698450437 l 12.26866794647584 -4.699406686553265 a34.13790837182636,34.13790837182636 0 0,0 0.20547023696908598,0.5505580817023912 l -12.347742771946551 4.48752546782154" fill="#ff930d" stroke="none" /><path d="M 119.7369772167798 92.82701384747503 l 12.507816325986091 -4.545700809156733 a34.30822546739318,34.30822546739318 0 0,0 0.19694051823698475,0.5567773653513556 l -12.584209925032885 4.329725817378763" fill="#ff950d" stroke="none" /><path d="M 119.85752413597 93.16781622104841 l 2.7970155907955947 -0.9623417510692036 a23.95793810973194,23.95793810973194 0 0,0 0.13081342949096705,0.39111550393041156 l -2.8131663140583316 0.914053144216478" fill="#ff0000" stroke="none" /><path d="M 119.97218684219823 93.5106431181261 l 9.821645282716508 -3.1912460017676056 a31.327088994644384,31.327088994644384 0 0,0 0.162221387508236,0.5142861293927813 l -9.87512215399295 3.021709705948405" fill="#ff6c09" stroke="none" /><path d="M 120.08093135843002 93.85539295169968 l 3.077551717691159 -0.9417066190057582 a24.218405805883258,24.218405805883258 0 0,0 0.11854806181907192,0.39968513105554104 l -3.093305676621933 0.8885921012036873" fill="#ff0400" stroke="none" /><path d="M 120.18372546131832 94.20196356495316 l 8.95421677887842 -2.572214690035419 a30.316345127504768,30.316345127504768 0 0,0 0.13976301316278283,0.5028019204552306 l -8.997166562607566 2.417701466161236" fill="#ff5d08" stroke="none" /><path d="M 120.28053869075195 94.5502522615342 l 4.249024352504228 -1.1417897329475444 a25.399760418754457,25.399760418754457 0 0,0 0.10982816264944768,0.4232127124154768 l -4.268048847023978 1.0684805949832172" fill="#ff1602" stroke="none" /><path d="M 120.37134235888165 94.90015583598534 l 8.577117452038442 -2.1472302419371734 a29.841806461235848,29.841806461235848 0 0,0 0.12045744613702611,0.4993738811638111 l -8.612807698436288 1.9992711291139562" fill="#ff5708" stroke="none" /><path d="M 120.45610955862082 95.25157060432595 l 12.988720424131357 -3.0150416283894574 a34.33406668189298,34.33406668189298 0 0,0 0.12868017928149067,0.5768480120713847 l -13.038694990414884 2.791015446768109" fill="#ff950d" stroke="none" /><path d="M 120.53481517161879 95.60439243477599 l 12.935322672837597 -2.768887945868784 a34.22835262257564,34.22835262257564 0 0,0 0.1183660508152955,0.5771949006227125 l -12.98106801956789 2.54581738908266" fill="#ff940d" stroke="none" /><path d="M 120.6074358757038 95.95851677861258 l 8.833281368136964 -1.7323629516280374 a30.00155215087093,30.00155215087093 0 0,0 0.09502531061408494,0.5076290090168878 l -8.861792402660909 1.580055865148587" fill="#ff5908" stroke="none" /><path d="M 120.67395015179393 96.31383870115 l 6.772532479191527 -1.207541226359886 a27.879342410075463,27.879342410075463 0 0,0 0.08017055191355982,0.47317113558856544 l -6.792314892625311 1.0907843024554826" fill="#ff3a05" stroke="none" /><path d="M 120.73433829027371 96.67025291283417 l 4.477181310962566 -0.7189948008075109 a25.534545844384056,25.534545844384056 0 0,0 0.065957077417231,0.434574730926092 l -4.488894281819096 0.6418209574893368" fill="#ff1802" stroke="none" /><path d="M 120.78858239683441 97.02765380044208 l 8.864708659763851 -1.2674737792149549 a29.95486177467244,29.95486177467244 0 0,0 0.06858807627598744,0.5110608352311168 l -8.885212735097676 1.1146946019191737" fill="#ff5808" stroke="none" /><path d="M 120.83666639777658 97.38593545837742 l 11.669508288355372 -1.4639984752078976 a32.7609827492181,32.7609827492181 0 0,0 0.06538101058453542,0.5601445711780114 l -11.692979651943496 1.2629101657050334" fill="#ff800b" stroke="none" /><path d="M 120.87857604477298 97.74499172005257 l 8.904835643652556 -0.9617743118566132 a29.956623675661064,29.956623675661064 0 0,0 0.050958890597638716,0.5131490739816255 l -8.920071659932423 0.8083497071705529" fill="#ff5808" stroke="none" /><path d="M 120.91429891909075 98.10471618934814 l 4.933076579775748 -0.4470424858382637 a25.953290979346605,25.953290979346605 0 0,0 0.03648972917847901,0.44526712107217803 l -4.940040792773722 0.36206144755831693" fill="#ff1e03" stroke="none" /><path d="M 120.94382443527127 98.46500227214037 l 14.759792261928508 -1.0817626769056237 a35.79938100409712,35.79938100409712 0 0,0 0.039753352734442804,0.6149667715514339 l -14.776226205667367 0.8275368411011547" fill="#ffa90f" stroke="none" /><path d="M 120.96714384426684 98.82574320788733 l 14.697651091116812 -0.8231362721616112 a35.72068275993866,35.72068275993866 0 0,0 0.029097713974214245,0.6142067527836734 l -14.709642413324522 0.570018412754938" fill="#ffa80f" stroke="none" /><path d="M 120.98425023603335 99.18683210126433 l 6.675824347607146 -0.2586971655413444 a27.680834898690694,27.680834898690694 0 0,0 0.014352256576180358,0.4762815234808023 l -6.679288298638971 0.143745494635543" fill="#ff3805" stroke="none" /><line stroke="#e1ed5e" stroke-width="0.3" x1="184.98032266829074" x2="189.97916517819016" y1="98.17113171792111" y2="98.06355123074" /><path d="M 185.9800911702706 98.14961562048488 a86.0,86.0 0 0,1 -9.607161424134198,41.387399972396054" fill="none" id="id160" stroke="none" /><text fill="#e1ed5e" style="font-size:6.75px; font-family:Arial;" text-anchor="middle"><textPath startOffset="21.466115282336823" xlink:href="#id160">April</textPath></text><path d="M 120.99513854157772 99.54816195383933 l 4.472137429263216 -0.09624522525529543 a25.47317295994705,25.47317295994705 0 0,0 0.005661100804441598,0.43845849605597614 l -4.473131537185373 0.01925047113885655" fill="#ff1702" stroke="none" /><path d="M 120.99980553446 99.90962569577887 l 12.536690390406035 -0.05395262681882771 a33.536806484541415,33.536806484541415 0 0,0 -0.002484442892829238,0.5772970321656632 l -12.535761650223703 -0.16185388355052016" fill="#ff8a0c" stroke="none" /><path d="M 120.99824983174949 100.27111621757518 l 7.366774975814831 0.09511517308221493 a28.36738898392382,28.36738898392382 0 0,0 -0.010506655871760454,0.48820301324920834 l -7.364046257258063 -0.2219080021215381" fill="#ff4206" stroke="none" /><path d="M 120.9904718944345 100.63252640178507 l 10.436287963771678 0.31448686370255513 a31.441025258575284,31.441025258575284 0 0,0 -0.020957490218642932,0.5408197000287968 l -10.429328340701831 -0.4940838107453581" fill="#ff6d0a" stroke="none" /><path d="M 120.9764740272857 100.99374915477107 l 15.489998884692401 0.7338303510420637 a36.50737155135848,36.50737155135848 0 0,0 -0.03514034278846454,0.6274544264350862 l -15.475072191016409 -1.0003564938125733" fill="#ffb310" stroke="none" /><path d="M 120.95626037817324 101.35467743843564 l 17.990808045887277 1.162981434625331 a39.02835821591211,39.02835821591211 0 0,0 -0.04910778732120801,0.6700367416792047 l -17.96812369990173 -1.4724913128013062" fill="#ffd413" stroke="none" /><path d="M 120.92983693683757 101.71520430193887 l 10.466430591847507 0.8577260697853262 a31.50151719251798,31.50151719251798 0 0,0 -0.04894046268050244,0.5400539275363645 l -10.450115532889928 -1.0377613858702612" fill="#ff6e0a" stroke="none" /><path d="M 120.89721153311464 102.0752229133903 l 8.788008907111788 0.8727038733477502 a29.831235055304116,29.831235055304116 0 0,0 -0.05514189943943081,0.510545504837888 l -8.771684706171307 -1.0238457000704297" fill="#ff5708" stroke="none" /><path d="M 120.8583938346157 102.4346265915055 l 11.689260090750393 1.3643899754513067 a32.768617653502126,32.768617653502126 0 0,0 -0.07021611135593737,0.5596914937550409 l -11.664042470147606 -1.5653992234937424" fill="#ff800b" stroke="none" /><path d="M 120.81339534386255 102.79330883721812 l 14.642263060436816 1.9650980595845549 a35.77353978959733,35.77353978959733 0 0,0 -0.08716129103952946,0.609605866523638 l -14.606267718380685 -2.2168493980886024" fill="#ffa90f" stroke="none" /><path d="M 120.70491114924044 103.5080841355445 l 3.502659376298856 0.5934642125069434 a24.55257969339194,24.55257969339194 0 0,0 -0.07418802529982428,0.4160858444765019 l -3.491924908659843 -0.6536688077166636" fill="#ff0901" stroke="none" /><path d="M 120.64145759157962 103.86396538481128 l 14.504274969835153 2.715119131804434 a35.756214429875875,35.756214429875875 0 0,0 -0.11845534449633288,0.604001249572073 l -14.455389692363157 -2.964384108444452" fill="#ffa90f" stroke="none" /><path d="M 120.5718875245553 104.21870165774334 l 11.534739923272724 2.365442955969147 a32.7747843069623,32.7747843069623 0 0,0 -0.11809216953263524,0.5516873011489041 l -11.492313715015646 -2.5636440765342203" fill="#ff800b" stroke="none" /><path d="M 120.49622156327973 104.57218783832717 l 12.815285437009566 2.858765555343187 a34.13027346754233,34.13027346754233 0 0,0 -0.13284710656535134,0.5723018581517301 l -12.764177764513661 -3.078936070843482" fill="#ff930d" stroke="none" /><path d="M 120.41448212921028 104.9243191809786 l 14.291403041611396 3.4473286990810053 a35.70130184906381,35.70130184906381 0 0,0 -0.14924620796593455,0.59616441217795 l -14.2299455193504 -3.692820950656351" fill="#ffa80f" stroke="none" /><path d="M 120.32669344350535 105.2749913415812 l 5.725915877423176 1.4859355634981668 a26.915582569299108,26.915582569299108 0 0,0 -0.12023821796227045,0.4474511387525948 l -5.699489583119129 -1.5842776354263097" fill="#ff2c04" stroke="none" /><path d="M 120.23288151984713 105.62410040840565 l 11.331926347613331 3.1499167104358405 a32.76157004954764,32.76157004954764 0 0,0 -0.15570694848174724,0.5420363144975385 l -11.276026762245484 -3.3445105004379614" fill="#ff800b" stroke="none" /><path d="M 120.13307415673323 105.97154293290107 l 12.67521915753073 3.759516047767166 a34.22101136845638,34.22101136845638 0 0,0 -0.17236508669266457,0.5632990762887994 l -12.608627298331932 -3.9771420966080226" fill="#ff940d" stroke="none" /><path d="M 120.02730092923936 106.31721596034902 l 19.619363495085626 6.1885401652948095 a41.57224959331783,41.57224959331783 0 0,0 -0.22114011534572744,0.6805992924085869 l -19.50993112872365 -6.525338357681192" fill="#fff517" stroke="none" /><path d="M 119.9155931802556 106.66101706037122 l 8.37464705743862 2.801004540476879 a29.83064775497457,29.83064775497457 0 0,0 -0.1670646521375113,0.4855680803418185 l -8.325191574357879 -2.944745323907998" fill="#ff5708" stroke="none" /><path d="M 119.79798401119884 107.00284435728193 l 9.408474183777356 3.3279186563252647 a30.979700849721034,30.979700849721034 0 0,0 -0.18215435505982427,0.5012105529420835 l -9.349795567712304 -3.4893770062734792" fill="#ff6709" stroke="none" /><path d="M 119.67450827220406 107.3425965602758 l 13.775576391540104 5.141094172668107 a35.70365105038198,35.70365105038198 0 0,0 -0.21984220572436622,0.5739386272677155 l -13.685039906222231 -5.377456366768967" fill="#ffa80f" stroke="none" /><path d="M 119.54520255179757 107.68017299344265 l 13.818413837246284 5.429864872660148 a35.84695233078992,35.84695233078992 0 0,0 -0.23061093079664716,0.5723574179724947 l -13.722900292192245 -5.666921658475457" fill="#ffaa0f" stroke="none" /><path d="M 119.41010516605496 108.01547362559984 l 17.72848894947415 7.321044084024919 a40.180641462471044,40.180641462471044 0 0,0 -0.2694954250025084,0.6370075770443329 l -17.599842543279333 -7.625126186735415" fill="#ffe315" stroke="none" /><path d="M 119.26925614724726 108.34839909993367 l 8.10851620770546 3.5130120692217908 a29.836814408434755,29.836814408434755 0 0,0 -0.2082310073702155,0.4695059502393433 l -8.046844115603971 -3.6520663559538216" fill="#ff5708" stroke="none" /><path d="M 119.12269723197855 108.67885076344098 l 26.803560976303807 12.164816647994517 a50.43490521625237,50.43490521625237 0 0,0 -0.3655939414852764,0.7874568251953991 l -26.5901924179787 -12.624393540468747" fill="#9fff22" stroke="none" /><path d="M 118.97047184881838 109.00673069616215 l 5.3489159791308944 2.5395386116045002 a26.921161922429746,26.921161922429746 0 0,0 -0.20235322560016633,0.4169075797819643 l -5.304409496916014 -2.63123514735174" fill="#ff2c04" stroke="none" /><path d="M 118.81262510543309 109.33194174019688 l 10.633810012588572 5.274867008599452 a32.870220610512675,32.870220610512675 0 0,0 -0.2557950084089894,0.5047078188696716 l -10.541436334393314 -5.457129039171818" fill="#ff810b" stroke="none" /><path d="M 118.64920377521936 109.65438752849418 l 2.6312518272772554 1.3621560004265796 a23.962930162533034,23.962930162533034 0 0,0 -0.19278461650200054,0.36467584164214933 l -2.607414702550362 -1.407246857154863" fill="#ff0000" stroke="none" /><line stroke="#e1ed5e" stroke-width="0.3" x1="174.80103733775053" x2="179.2010983576182" y1="140.37084112569926" y2="142.7455964860345" /><path d="M 175.68104954172406 140.8457921977663 a86.0,86.0 0 0,1 -30.038265399797805,32.042727171017184" fill="none" id="id161" stroke="none" /><text fill="#e1ed5e" style="font-size:6.75px; font-family:Arial;" text-anchor="middle"><textPath startOffset="22.206326154141568" xlink:href="#id161">May</textPath></text><path d="M 118.48025628344425 109.97397251340804 l 12.941718108862709 6.9847700548238585 a35.70629390186491,35.70629390186491 0 0,0 -0.2965723803591879,0.5383650156230049 l -12.819569319052011 -7.206505588844668" fill="#ffa80f" stroke="none" /><path d="M 118.30583269289576 110.29060199501025 l 22.46835520416506 12.630559055546831 a46.77514321271925,46.77514321271925 0 0,0 -0.40059124459495854,0.6984646008878042 l -22.247611963417725 -13.015443502292952" fill="#caff1d" stroke="none" /><path d="M 118.12598468904814 110.60418214915192 l 12.897151662165165 7.54517604295841 a35.94209498417552,35.94209498417552 0 0,0 -0.3170077789781014,0.5313232718206765 l -12.765363007488837 -7.76606140866519" fill="#ffab0f" stroke="none" /><path d="M 117.94076556474637 110.91462005526583 l 7.538698969716209 4.586316825139317 a29.824187451349626,29.824187451349626 0 0,0 -0.2705982048882438,0.436290466624018 l -7.458636125160002 -4.7154036231286085" fill="#ff5608" stroke="none" /><path d="M 117.75023020441432 111.22182372390056 l 26.075937950114287 16.48539628735515 a51.85000536028079,51.85000536028079 0 0,0 -0.48342756587699287,0.7502903177593435 l -25.788305520860245 -16.931808205035946" fill="#8fff24" stroke="none" /><path d="M 117.55443506779139 111.5257021239791 l 2.487344011754352 1.6331135720763899 a23.975557119618163,23.975557119618163 0 0,0 -0.22947678700433943,0.3430366607521624 l -2.458864119339291 -1.675687147034359" fill="#ff0100" stroke="none" /><path d="M 117.35343817320211 111.8261652097733 l 7.303309325940453 4.977119911604962 a29.837989009093832,29.837989009093832 0 0,0 -0.29289409459241683,0.4219357883341946 l -7.2165543241859 -5.102096962126176" fill="#ff5708" stroke="none" /><path d="M 117.14729908036423 112.12312394758627 l 2.4191054449517093 1.7103052214802479 a23.962636512368267,23.962636512368267 0 0,0 -0.24101871711287554,0.3347539179770742 l -2.389306935463231 -1.7516927449084534" fill="#ff0000" stroke="none" /><path d="M 116.93607887273984 112.41649034213515 l 2.392859280000047 1.754297105219051 a23.96704126483982,23.96704126483982 0 0,0 -0.24679060210359152,0.3306163414615654 l -2.3623074112013636 -1.7952263261899315" fill="#ff0000" stroke="none" /><path d="M 116.71984013943494 112.70617746262583 l 5.391644023130903 4.097358898284442 a27.771866449769508,27.771866449769508 0 0,0 -0.29252131103901235,0.3781232267874742 l -5.320315894873822 -4.189560119185169" fill="#ff3905" stroke="none" /><path d="M 116.498646956653 112.99209946851258 l 49.495940869959 38.97629840553772 a84.0,84.0 0 0,0 -0.9043283517805842,1.1282886656869988 l -48.81769460612357 -39.822514904802965" fill="#4dd2ff" stroke="none" /><path d="M 116.27256486870786 113.27417163493432 l 4.018669179498318 3.278186620430246 a26.18615556000951,26.18615556000951 0 0,0 -0.2879280031531488,0.34682782802306167 l -3.961645176451625 -3.3468757055670784" fill="#ff2203" stroke="none" /><path d="M 116.0416608686014 113.55231037782055 l 9.005839451003897 7.608310165172245 a32.789466815200825,32.789466815200825 0 0,0 -0.3679563553420217,0.42801636953950783 l -8.873540586091096 -7.762203633873281" fill="#ff800b" stroke="none" /><path d="M 115.80600337817218 113.82643327865902 l 2.231425370060169 1.951957952764387 a23.964692063521657,23.964692063521657 0 0,0 -0.27427150754143487,0.3081469462550906 l -2.197495012870396 -1.9900790687603442" fill="#ff0000" stroke="none" /><path d="M 115.56566222782051 114.09645910891815 l 6.656912388433857 6.028583423035498 a29.980996639337004,29.980996639337004 0 0,0 -0.34971203898446607,0.37954334935110196 l -6.5521539414536685 -6.142278027187936" fill="#ff5908" stroke="none" /><path d="M 115.32070863581623 114.36230785411682 l 2.442275534023405 2.2894967796868446 a24.34761187838222,24.34761187838222 0 0,0 -0.2892652215820985,0.3032934283617145 l -2.402503761062342 -2.3311973246310664" fill="#ff0601" stroke="none" /><path d="M 114.81725581225074 114.88116024355365 l 8.35450644205407 8.390538079069785 a32.84056194387087,32.84056194387087 0 0,0 -0.40401717820022465,0.39541584321298323 l -8.208839311478052 -8.53310402520534" fill="#ff810b" stroke="none" /><path d="M 114.55890576462653 115.13401014063108 l 2.138630449061975 2.223110405852441 a24.08479498091274,24.08479498091274 0 0,0 -0.3012482179776147,0.2848489930635429 l -2.100046396693553 -2.2595940356619053" fill="#ff0200" stroke="none" /><path d="M 114.29624159901734 115.38237550388516 l 10.007055928194754 10.767325867412058 a35.6995399480752,35.6995399480752 0 0,0 -0.4537249188555695,0.4144669556605703 l -9.82023145987232 -10.937985589659212" fill="#ffa80f" stroke="none" /><path d="M 114.0293411484842 115.62618273729858 l 5.895709298484612 6.566768167446325 a29.825068401843936,29.825068401843936 0 0,0 -0.3849672793049474,0.33968886460855313 l -5.781799666273077 -6.667280173827168" fill="#ff5608" stroke="none" /><path d="M 113.48314897796784 116.09983520530334 l 2.202706655272394 2.6301878154323726 a24.430714875012235,24.430714875012235 0 0,0 -0.32473058583921277,0.2672311645999452 l -2.1571059408884903 -2.6677140988894963" fill="#ff0701" stroke="none" /><path d="M 113.20401910651253 116.32954008644616 l 2.7737911966077036 3.430374810204307 a25.411506425345273,25.411506425345273 0 0,0 -0.3425017377361366,0.27210409471909447 l -2.714331966154216 -3.4776128189285274" fill="#ff1602" stroke="none" /><path d="M 112.92097659922987 116.55440617244103 l 7.256587549534166 9.297168584612026 a32.79387156767238,32.79387156767238 0 0,0 -0.4479818873447257,0.3434934082882794 l -7.095476933695946 -9.420701334727676" fill="#ff800b" stroke="none" /><path d="M 112.63410532772338 116.77436683061366 l 7.686074732399864 10.204841079318332 a33.77554406849973,33.77554406849973 0 0,0 -0.46741336850457776,0.3457812357442355 l -7.509276393476722 -10.335632263802335" fill="#ff8e0d" stroke="none" /><path d="M 112.34349029814194 116.9893568818739 l 4.334067260612342 5.965331819612851 a28.373555637383998,28.373555637383998 0 0,0 -0.39759819218292064,0.28367575323576527 l -4.2307417405805365 -6.0390518346928355" fill="#ff4206" stroke="none" /><path d="M 112.04921762599082 117.19931262002967 l 8.444803137381006 12.054293787600145 a35.71803990845573,35.71803990845573 0 0,0 -0.50658915626184,0.3484366410034431 l -8.236057096496284 -12.19787121796868" fill="#ffa80f" stroke="none" /><path d="M 111.7513745106137 117.40417183066458 l 1.6568736398709532 2.453884309785883 a23.960874611379644,23.960874611379644 0 0,0 -0.3438103695584722,0.2278587655369191 l -1.6143885715725168 -2.4820410964141204" fill="#ff0000" stroke="none" /><path d="M 111.45004920935366 117.60387380957326 l 1.6230345085818305 2.495333788986406 a23.976731720277243,23.976731720277243 0 0,0 -0.3479117372670039,0.22205373159792474 l -1.579840969267896 -2.5229019494081397" fill="#ff0100" stroke="none" /><path d="M 111.1453310114006 117.79835938074945 l 9.362314940004962 14.951000178237658 a38.64044634825045,38.64044634825045 0 0,0 -0.5667648190076573,0.34815324266610786 l -9.103570921064996 -15.109941887732145" fill="#ffcf13" stroke="none" /><line stroke="#e1ed5e" stroke-width="0.3" x1="143.8653032363475" x2="146.44561519142675" y1="172.8068346515853" y2="177.08958963109032" /><path d="M 144.38136562736335 173.6633856474863 a86.0,86.0 0 0,1 -40.68145358897372,12.25698825130547" fill="none" id="id162" stroke="none" /><text fill="#e1ed5e" style="font-size:6.75px; font-family:Arial;" text-anchor="middle"><textPath startOffset="21.466115282336833" xlink:href="#id162">June</textPath></text><path d="M 110.8373102113329 117.98757091392108 l 5.25743988088672 8.726203351107674 a31.187605166378454,31.187605166378454 0 0,0 -0.4622183215932474,0.27308673165392877 l -5.10645368826509 -8.815408655055352" fill="#ff6a09" stroke="none" /><path d="M 110.5260780823613 118.17145234162733 l 4.4688277297845795 7.714657774655855 a29.91551265259321,29.91551265259321 0 0,0 -0.4478084900251022,0.25427734771993454 l -4.335370472838279 -7.790438288170418" fill="#ff5808" stroke="none" /><path d="M 110.21172684928248 118.3499491758327 l 7.152268905619833 12.852260234441552 a35.70834945301831,35.70834945301831 0 0,0 -0.5396674067719346,0.2942696991939859 l -6.92997868697925 -12.973470585395308" fill="#ffa80f" stroke="none" /><path d="M 109.89434966115114 118.52300852407294 l 6.934959505393463 12.982795073118396 a35.718920858950035,35.718920858950035 0 0,0 -0.5448140620503722,0.2850209677619968 l -6.7104545408165945 -13.100245459825109" fill="#ffa80f" stroke="none" /><path d="M 109.57404056367764 118.69057910512821 l 3.386822260266105 6.611802921607527 a28.428761868360827,28.428761868360827 0 0,0 -0.4374592051037212,0.2193511269431337 l -3.2725091474796235 -6.669121889459963" fill="#ff4206" stroke="none" /><path d="M 109.2508944713604 118.85261126421891 l 4.10247272919475 8.36052382015706 a30.312821325527523,30.312821325527523 0 0,0 -0.47040783176961015,0.22582434588627232 l -3.957952229424907 -8.429902442542891" fill="#ff5d08" stroke="none" /><path d="M 108.92500713936063 119.00905698771935 l 12.492871730777953 26.60812556925738 a50.3949687938436,50.3949687938436 0 0,0 -0.7883981000514186,0.3619148992486882 l -12.033005634959116 -26.81922753884014" fill="#9fff22" stroke="none" /><path d="M 108.59647513512805 119.15986991738527 l 3.6139166191425827 8.05471675618559 a29.82829855365641,29.82829855365641 0 0,0 -0.4702634743453173,0.20614968738339517 l -3.4747324701395113 -8.115730996863439" fill="#ff5708" stroke="none" /><path d="M 108.2653958097858 119.30500536409082 l 2.3212655312094848 5.421645201603423 a26.897669909248116,26.897669909248116 0 0,0 -0.42719717084526576,0.17856845206003752 l -2.2275969008667578 -5.460798696683434" fill="#ff2c04" stroke="none" /><path d="M 107.93186726928326 119.44442032107085 l 4.7370262915314845 11.612490118335625 a33.54150488717774,33.54150488717774 0 0,0 -0.5364706937829401,0.21347276054955078 l -4.536434521706678 -11.692309723291244" fill="#ff8b0c" stroke="none" /><path d="M 107.59598834532513 119.57807347666477 l 3.351368143222485 8.63789263127878 a30.26524999883472,30.26524999883472 0 0,0 -0.4873134428924322,0.18426024634815744 l -3.202184479569778 -8.694301127733567" fill="#ff5d08" stroke="none" /><path d="M 107.2578585660854 119.70592522655815 l 3.055938668367318 8.297226840047717 a29.84210011140062,29.84210011140062 0 0,0 -0.4835563303637544,0.17338609595826995 l -2.912662777373829 -8.348600477045947" fill="#ff5708" stroke="none" /><path d="M 106.91757812671514 119.82793768551818 l 3.983086419711142 11.416768683979976 a33.09163283474954,33.09163283474954 0 0,0 -0.5394413098030019,0.18300778076627663 l -3.785975376970913 -11.483639451644375" fill="#ff840c" stroke="none" /><path d="M 106.57524785965236 119.94407469862006 l 3.688698694627973 11.188579332164089 a32.78095096042249,32.78095096042249 0 0,0 -0.5374181763473381,0.17206432895976803 l -3.4955591731896947 -11.250416507783562" fill="#ff800b" stroke="none" /><path d="M 106.2309692047433 120.05430185196036 l 9.92233801048985 31.934929382746127 a54.440880764049766,54.440880764049766 0 0,0 -0.8973024402834406,0.2703498645732445 l -9.371160595766165 -32.1009946164251" fill="#72ff27" stroke="none" /><path d="M 105.88484417918355 120.15858648285463 l 1.6584683056469207 5.681098046183979 a26.918225420782043,26.918225420782043 0 0,0 -0.4459053158963979,0.12601729630013495 l -1.560431821645917 -5.708804135822633" fill="#ff2c04" stroke="none" /><path d="M 105.53697534728816 120.25689768951611 l 3.8855944710380235 14.215358517230266 a35.73683351900103,35.73683351900103 0 0,0 -0.594779278978347,0.15708661344292563 l -3.640324749248179 -14.280136479976775" fill="#ffa80f" stroke="none" /><path d="M 105.18746579009965 120.34920634021253 l 2.1820912445329026 8.55982994103141 a29.833584256622277,29.833584256622277 0 0,0 -0.4987134170297095,0.12257162426874935 l -2.034424542759982 -8.59612282361419" fill="#ff5708" stroke="none" /><path d="M 104.83641907484287 120.43548508189849 l 0.6800125914982922 2.8732802004999902 a23.952652406766074,23.952652406766074 0 0,0 -0.40203939723721943,0.09150285788329111 l -0.6304530448682106 -2.8845597919609656" fill="#ff0000" stroke="none" /><path d="M 104.48393922423573 120.51570834832081 l 3.7938789496654075 17.358423062354454 a38.76818416992556,38.76818416992556 0 0,0 -0.6531673611522897,0.13687757115676008 l -3.49452012708374 -17.421156614237756" fill="#ffd113" stroke="none" /><path d="M 103.06178313531738 120.77559828337769 l 0.43139344281220693 2.9272017232600804 a23.95881906022625,23.95881906022625 0 0,0 -0.40852229020928726,0.05661746695942109 l -0.38094256141608923 -2.934193755712104" fill="#ff0000" stroke="none" /><path d="M 102.70371172650421 120.8252237178851 l 0.948235448876234 7.303742912566026 a28.365039782605656,28.365039782605656 0 0,0 -0.48473499628732414,0.05869465744940551 l -0.8223730295375296 -7.318983098740783" fill="#ff4106" stroke="none" /><path d="M 102.34483914955558 120.86867818915974 l 0.9853655868450952 8.769589732600693 a29.824774751679165,29.824774751679165 0 0,0 -0.51066746734686,0.05293277098380161 l -0.8342655228926326 -8.785251872040252" fill="#ff5608" stroke="none" /><path d="M 101.98527174616119 120.90594882070398 l 0.28254873193135965 2.9753857830968236 a23.98877137703283,23.98877137703283 0 0,0 -0.41141392008749694,0.03549852416464249 l -0.23129049410232103 -2.9798085595401296" fill="#ff0100" stroke="none" /><path d="M 101.62511606390274 120.93702456842531 l 0.68348636187026 8.805629990694483 a29.832116005798426,29.832116005798426 0 0,0 -0.5123129503073252,0.03533210055459208 l -0.5318106507840046 -8.816090435765359" fill="#ff5708" stroke="none" /><path d="M 100.90346689309514 120.98055641714683 l 0.19965960975024313 4.636550313691863 a25.640847204030933,25.640847204030933 0 0,0 -0.4411198219350605,0.015193058585023166 l -0.11981943614053034 -4.63930017070298" fill="#ff1a02" stroke="none" /><line stroke="#e1ed5e" stroke-width="0.3" x1="102.19456741930631" x2="102.32365962044197" y1="184.97166512339345" y2="189.96999836594603" /><path d="M 102.22038585953345 185.97133177190398 a86.0,86.0 0 0,1 -42.740103519485714,-10.115201625700543" fill="none" id="id163" stroke="none" /><text fill="#e1ed5e" style="font-size:6.75px; font-family:Arial;" text-anchor="middle"><textPath startOffset="22.20632615414155" xlink:href="#id163">July</textPath></text><path d="M 100.54218724476979 120.99299961872073 l 0.19217812372122006 7.440963093329479 a28.443444376599345,28.443444376599345 0 0,0 -0.48955273123803417,0.008428094232968943 l -0.06406570259051794 -7.4431686648416076" fill="#ff4306" stroke="none" /><path d="M 99.81925306533755 120.99922214144158 l -0.02527446054541299 2.9363928770875853 a23.936501647703704,23.936501647703704 0 0,0 -0.41198174183003294,-0.00709263930286993 l 0.07581589226811386 -2.9355227605055556" fill="#ff0000" stroke="none" /><path d="M 98.73552117531835 120.96189622390904 l -0.7086447206211087 11.74755701980264 a32.7689113036669,32.7689113036669 0 0,0 -0.5627471288016448,-0.03881033678672438 l 0.9107546102016836 -11.73361833849963" fill="#ff800b" stroke="none" /><path d="M 98.37488393609728 120.93702456842531 l -0.5738176720944835 7.392724104632321 a28.414960310616618,28.414960310616618 0 0,0 -0.4873242579531973,-0.04204838752973876 l 0.7009862477892225 -7.381751464823918" fill="#ff4206" stroke="none" /><path d="M 98.01472825383883 120.90594882070398 l -0.9027234884008534 9.50615001913367 a30.548916058002902,30.548916058002902 0 0,0 -0.5230664011185617,-0.054217971165415255 l 1.0662224861250085 -9.489202679512495" fill="#ff6108" stroke="none" /><path d="M 97.65516085044442 120.86867818915974 l -0.331231304349432 2.947903483253434 a23.96645396451028,23.96645396451028 0 0,0 -0.4095668140268595,-0.049592837397907964 l 0.3819255414276808 -2.9417651171301773" fill="#ff0000" stroke="none" /><path d="M 97.2962882734958 120.8252237178851 l -0.39840936008363714 3.0687310239871133 a24.094485436350162,24.094485436350162 0 0,0 -0.4108355402296326,-0.05693806233385618 l 0.4511734915001008 -3.0614183961606525" fill="#ff0200" stroke="none" /><path d="M 96.93821686468263 120.77559828337769 l -0.6383133027875308 4.331247567693979 a25.37803030656145,25.37803030656145 0 0,0 -0.431624870369519,-0.067410927937926 l 0.712774036765567 -4.319618332408948" fill="#ff1602" stroke="none" /><path d="M 96.58105272829116 120.7198165907248 l -1.922945690977573 11.653611145358688 a32.81119692739383,32.81119692739383 0 0,0 -0.5564638825202108,-0.09674837877006763 l 2.123258544969834 -11.618784188067615" fill="#ff800b" stroke="none" /><path d="M 96.22490169976321 120.6578951692458 l -1.5904643404454315 8.70325565119311 a29.847385814366486,29.847385814366486 0 0,0 -0.504608980213023,-0.09670951203731833 l 1.7400409352301496 -8.674588940807324" fill="#ff5708" stroke="none" /><path d="M 95.86986931433489 120.58985236759428 l -1.7362869885080554 8.655874470325312 a29.82829855365641,29.82829855365641 0 0,0 -0.5025479390151005,-0.10531380680270402 l 1.8850263889525427 -8.624704682796066" fill="#ff5708" stroke="none" /><path d="M 95.16358092515715 120.4354850818985 l -2.0346274306540075 8.596980092694398 a29.834465207116587,29.834465207116587 0 0,0 -0.4987281434476785,-0.12257524366399394 l 2.182308858844897 -8.560683590716375" fill="#ff5708" stroke="none" /><path d="M 94.81253420990036 120.34920634021253 l -1.5982320454355867 6.26948783627236 a27.46999408038557,27.46999408038557 0 0,0 -0.45719168890507483,-0.12074848039042817 l 1.7059141771521507 -6.2410480065783505" fill="#ff3405" stroke="none" /><path d="M 94.46302465271185 120.25689768951611 l -2.3307372792997416 8.52694903744511 a29.839750910082458,29.839750910082458 0 0,0 -0.4943009187209366,-0.13969437706896007 l 2.477169366125292 -8.485565867037629" fill="#ff5708" stroke="none" /><path d="M 93.76903079525671 120.05430185196036 l -1.3244596074592194 4.262757828829681 a25.4637761546744,25.4637761546744 0 0,0 -0.4174587906398423,-0.13365712184877154 l 1.397639743190002 -4.239327860321203" fill="#ff1702" stroke="none" /><path d="M 93.42475214034765 119.94407469862007 l -2.7665929789215946 8.391643662723833 a29.835933457940442,29.835933457940442 0 0,0 -0.4863687175582815,-0.16500267594816945 l 2.910631429417102 -8.34277799987754" fill="#ff5708" stroke="none" /><path d="M 93.08242187328487 119.8279376855182 l -3.8719426672219264 11.098196004622737 a32.75422879542838,32.75422879542838 0 0,0 -0.5307439697972776,-0.19030590460333516 l 4.06240619764893 -11.029902558979446" fill="#ff800b" stroke="none" /><path d="M 92.7421414339146 119.70592522655815 l -4.100566103972404 11.133511117043206 a32.86464125738204,32.86464125738204 0 0,0 -0.5291673282452898,-0.2000858044940015 l 4.291603652977976 -11.06127706244257" fill="#ff810b" stroke="none" /><path d="M 92.40401165467489 119.57807347666478 l -5.317662738409299 13.70586513350472 a35.70130184906381,35.70130184906381 0 0,0 -0.5710149928080178,-0.22721865004470992 l 5.552798807259175 -13.612299639053942" fill="#ffa80f" stroke="none" /><path d="M 91.7346041902142 119.30500536409082 l -4.628777298317497 10.811166534505853 a32.76039544888856,32.76039544888856 0 0,0 -0.5164899820554076,-0.22641402989165885 l 4.814187955030648 -10.729887951319743" fill="#ff800b" stroke="none" /><path d="M 91.40352486487194 119.15986991738527 l -1.2118112505846326 2.700891418943152 a23.960287311050102,23.960287311050102 0 0,0 -0.374843867251798,-0.17207243452460808 l 1.2581231136038502 -2.6796319140844695" fill="#ff0000" stroke="none" /><path d="M 91.07499286063937 119.00905698771935 l -5.001916106549817 10.653404174644525 a32.76920495383167,32.76920495383167 0 0,0 -0.5085270844836882,-0.2441239036922057 l 5.184555859033748 -10.565725994452757" fill="#ff800b" stroke="none" /><path d="M 90.7491055286396 118.85261126421891 l -3.8971809267973185 7.9421549199051436 a29.846798514036944,29.846798514036944 0 0,0 -0.45927982419004904,-0.23029243834163998 l 4.033314658670128 -7.873894640654202" fill="#ff5708" stroke="none" /><path d="M 90.42595943632237 118.69057910512821 l -5.364320544968081 10.47230339417709 a32.766268452183965,32.766268452183965 0 0,0 -0.49977780359493357,-0.26146012588313633 l 5.5437892510895095 -10.378413849349236" fill="#ff800b" stroke="none" /><path d="M 90.10565033884886 118.52300852407294 l -4.614313192569973 8.63836083480113 a30.79352664525662,30.79352664525662 0 0,0 -0.4653887094914114,-0.2537670310117331 l 4.762324713930026 -8.55765315202963" fill="#ff6409" stroke="none" /><line stroke="#e1ed5e" stroke-width="0.3" x1="58.666819895761336" x2="56.23545636021788" y1="174.27360380694188" y2="178.64263932499728" /><path d="M 58.180547188652646 175.14741091055294 a86.0,86.0 0 0,1 -31.652253787137756,-30.449443065178592" fill="none" id="id164" stroke="none" /><text fill="#e1ed5e" style="font-size:6.75px; font-family:Arial;" text-anchor="middle"><textPath startOffset="22.20632615414155" xlink:href="#id164">August</textPath></text><path d="M 89.7882731507175 118.34994917583269 l -3.2475653194480087 5.835708243729119 a27.67848569737253,27.67848569737253 0 0,0 -0.4143221956534659,-0.23526295583712015 l 3.347536282022682 -5.778942122097366" fill="#ff3805" stroke="none" /><path d="M 89.4739219176387 118.17145234162733 l -6.383471882119407 11.019959587268197 a33.735313995926184,33.735313995926184 0 0,0 -0.4999768379275297,-0.29539512865188383 l 6.5722165910753185 -10.908445886322564" fill="#ff8d0d" stroke="none" /><path d="M 89.1626897886671 117.98757091392108 l -9.576684439876523 15.89520712458564 a39.55722216266355,39.55722216266355 0 0,0 -0.5802117723332875,-0.35641345968609667 l 9.84887541214212 -15.728005198071166" fill="#ffdb14" stroke="none" /><path d="M 88.8546689885994 117.79835938074946 l -5.1183917443717295 8.173734420682857 a30.6440587113885,30.6440587113885 0 0,0 -0.444657254690599,-0.28380129817339383 l 5.258330801109252 -8.08441869368566" fill="#ff6209" stroke="none" /><path d="M 88.54995079064634 117.60387380957326 l -6.423450868086661 9.875732098288017 a32.78095096042249,32.78095096042249 0 0,0 -0.47036809160665927,-0.3117343227288008 l 6.592493658433282 -9.763699754467899" fill="#ff800b" stroke="none" /><path d="M 88.24862548938628 117.40417183066458 l -3.2996154605384054 4.886838930923387 a26.896495308589035,26.896495308589035 0 0,0 -0.3814731407350464,-0.26238070465537194 l 3.383245485896342 -4.8293174369029135" fill="#ff2c04" stroke="none" /><path d="M 87.95078237400918 117.19931262002967 l -8.45086871693739 12.062951926431245 a35.72861131438746,35.72861131438746 0 0,0 -0.500664472558728,-0.35721080770443797 l 8.657260517345005 -11.915696856882587" fill="#ffa80f" stroke="none" /><path d="M 87.65650970185807 116.9893568818739 l -1.788169526879484 2.4612042075344145 a24.042215707021036,24.042215707021036 0 0,0 -0.33271567756662745,-0.24613510415533518 l 1.8302701748646757 -2.430059154639313" fill="#ff0200" stroke="none" /><path d="M 87.36589467227662 116.77436683061367 l -12.921954768352023 17.1565460181258 a42.47845400179919,42.47845400179919 0 0,0 -0.5802784814822415,-0.44493279525674645 l 13.215361978327753 -16.931573881041682" fill="#feff18" stroke="none" /><path d="M 87.07902340077011 116.55440617244103 l -5.42992868127755 6.956846039223789 a29.825068401843936,29.825068401843936 0 0,0 -0.40198867334924787,-0.3193641140977095 l 5.548874847344156 -6.8623480111209485" fill="#ff5608" stroke="none" /><path d="M 86.79598089348748 116.32954008644616 l -5.610358736611969 6.9383857407220955 a29.92285390671247,29.92285390671247 0 0,0 -0.39773154116936704,-0.32730598095692065 l 5.728960406326025 -6.840784640907994" fill="#ff5808" stroke="none" /><path d="M 86.51685102203217 116.09983520530335 l -3.7817247360655384 4.515647282542375 a26.890035004964087,26.890035004964087 0 0,0 -0.35230366504366956,-0.3002408264150064 l 3.8588938776862647 -4.449882065904417" fill="#ff2c04" stroke="none" /><path d="M 86.24171649860922 115.8653595955263 l -7.714901953788855 8.896436370766425 a32.775665257456616,32.775665257456616 0 0,0 -0.4230521288860709,-0.37329431631436283 l 7.866896435581514 -8.762318912679774" fill="#ff800b" stroke="none" /><path d="M 85.97065885151581 115.62618273729859 l -5.890412517761915 6.560868498843493 a29.817139847395136,29.817139847395136 0 0,0 -0.37896228851807445,-0.3461730654521225 l 6.002474355746844 -6.458502666804795" fill="#ff5608" stroke="none" /><path d="M 85.70375840098266 115.38237550388516 l -2.017683796461497 2.1709740696749753 a23.963811113027347,23.963811113027347 0 0,0 -0.2997349738485427,-0.28341812628756846 l 2.0547546047008565 -2.135921306641476" fill="#ff0000" stroke="none" /><path d="M 85.44109423537348 115.13401014063109 l -10.195801061391883 10.598554530785531 a35.70658755202968,35.70658755202968 0 0,0 -0.43927612355070195,-0.42992414226271236 l 10.37672713731838 -10.42148028560025" fill="#ffa80f" stroke="none" /><path d="M 85.18274418774928 114.88116024355367 l -14.545070984380626 14.60780152647933 a41.61424156688,41.61424156688 0 0,0 -0.5032536560529948,-0.5097932966126114 l 14.794365265489153 -14.355267735886054" fill="#fff517" stroke="none" /><path d="M 84.67929136418377 114.36230785411682 l -6.461961134451576 6.057727312780203 a29.85736991996868,29.85736991996868 0 0,0 -0.34827000046174295,-0.3779783013407507 l 6.565277542909048 -5.945597756638109" fill="#ff5708" stroke="none" /><path d="M 84.43433777217949 114.09645910891817 l -4.358640811482733 3.9472398327977367 a26.880344549526665,26.880344549526665 0 0,0 -0.30764061575629803,-0.34563749307797975 l 4.42594027688737 -3.8716281699788926" fill="#ff2c04" stroke="none" /><path d="M 84.19399662182784 113.82643327865904 l -10.665355708424467 9.329608856046512 a35.170088700994214,35.170088700994214 0 0,0 -0.3946711829261622,-0.4590917494029914 l 10.824369400921407 -9.144640007481991" fill="#ffa10e" stroke="none" /><path d="M 83.95833913139862 113.55231037782056 l -7.46927473447065 6.3101900936511335 a30.77796318652379,30.77796318652379 0 0,0 -0.3384168959475154,-0.407644951871365 l 7.576787630311702 -6.180683884666007" fill="#ff6409" stroke="none" /><path d="M 83.72743513129214 113.27417163493432 l -18.219741796705154 14.862560493996392 a44.51286234332832,44.51286234332832 0 0,0 -0.47921718376162964,-0.5978971197531108 l 18.472876892521644 -14.546735540665022" fill="#e5ff1a" stroke="none" /><path d="M 83.50135304334701 112.99209946851258 l -10.4609116526284 8.237597002914587 a34.3149794211829,34.3149794211829 0 0,0 -0.36143997691752044,-0.46720989276509856 l 10.60115844676399 -8.056309116036235" fill="#ff950d" stroke="none" /><path d="M 83.28015986056508 112.70617746262583 l -7.03314841090255 5.344813771223828 a29.833584256622277,29.833584256622277 0 0,0 -0.30719887950464064,-0.4115431008198738 l 7.124108557102276 -5.222957790894647" fill="#ff5708" stroke="none" /><path d="M 83.06392112726016 112.41649034213515 l -8.402478944418217 6.160180254668641 a31.418707846052737,31.418707846052737 0 0,0 -0.3160126664063519,-0.43891395438954894 l 8.507271403200175 -6.014632694827954" fill="#ff6d0a" stroke="none" /><path d="M 82.6465618267979 111.8261652097733 l -9.744216675830307 6.640569730219256 a32.791816016518986,32.791816016518986 0 0,0 -0.3138596755839519,-0.4691776299580134 l 9.857079456824989 -6.471855186055421" fill="#ff800b" stroke="none" /><path d="M 82.44556493220864 111.52570212397912 l -7.383972685047129 4.848089347836765 a29.833290606457506,29.833290606457506 0 0,0 -0.2781530100096975,-0.43169964850327586 l 7.466330558433873 -4.72026809941204" fill="#ff5708" stroke="none" /><path d="M 82.24976979558568 111.22182372390057 l -12.45083407475544 7.8715072195341325 a35.73037321537608,35.73037321537608 0 0,0 -0.3241856921614333,-0.5226905587358016 l 12.58448440658483 -7.656020329433066" fill="#ffa80f" stroke="none" /><path d="M 82.05923443525364 110.91462005526583 l -25.116034853681803 15.279837236233707 a50.39878624598562,50.39878624598562 0 0,0 -0.4445151930644501,-0.7450330320421542 l 25.375330922444483 -14.845242110305442" fill="#9fff22" stroke="none" /><line stroke="#e1ed5e" stroke-width="0.3" x1="26.63291911575756" x2="22.317208475507996" y1="142.92168965132927" y2="145.44649492493687" /><path d="M 25.769776987707644 143.4266507060508 a86.0,86.0 0 0,1 -11.730757126820373,-40.83630448921669" fill="none" id="id165" stroke="none" /><text fill="#e1ed5e" style="font-size:6.75px; font-family:Arial;" text-anchor="middle"><textPath startOffset="21.46611528233685" xlink:href="#id165">September</textPath></text><path d="M 81.87401531095188 110.60418214915194 l -7.644155274334549 4.4720337292583725 a29.8561953193096,29.8561953193096 0 0,0 -0.25569414907917,-0.4458243014435047 l 7.720001419566096 -4.339789581956561" fill="#ff5708" stroke="none" /><path d="M 81.69416730710424 110.29060199501025 l -4.084108314240426 2.2958766132868096 a25.685188378911256,25.685188378911256 0 0,0 -0.21333822766494676,-0.3872708514889973 l 4.123022951356889 -2.2252352433999896" fill="#ff1a02" stroke="none" /><path d="M 81.51974371655577 109.97397251340807 l -5.188471000773653 2.8002678293315575 a26.895908008259493,26.895908008259493 0 0,0 -0.2163807712861734,-0.4093108740506928 l 5.235904280284712 -2.710541940194738" fill="#ff2c04" stroke="none" /><path d="M 81.35079622478065 109.6543875284942 l -7.837427395142781 4.05730787282661 a29.825362052008707,29.825362052008707 0 0,0 -0.2321000162212126,-0.45795535133870346 l 7.90610608115026 -3.9217983097852214" fill="#ff5608" stroke="none" /><path d="M 81.18737489456691 109.33194174019688 l -5.285205871976771 2.621709251410624 a26.89972546040151,26.89972546040151 0 0,0 -0.20219209818488132,-0.4165756095821136 l 5.329551226776371 -2.5303446858632257" fill="#ff2c04" stroke="none" /><path d="M 81.02952815118164 109.00673069616217 l -21.238889003626014 10.083721431170135 a44.511100442339696,44.511100442339696 0 0,0 -0.32265330093886285,-0.6949665056371289 l 21.409316921404702 -9.716634858254178" fill="#e5ff1a" stroke="none" /><path d="M 80.87730276802145 108.67885076344099 l -8.037752542815264 3.647940138690594 a29.826830302832562,29.826830302832562 0 0,0 -0.20816132833749196,-0.4693488424152899 l 8.099354955884035 -3.509042959782608" fill="#ff5608" stroke="none" /><path d="M 80.73074385275274 108.34839909993369 l -8.637713224683935 3.742286508591471 a30.41354333204376,30.41354333204376 0 0,0 -0.20398655889445855,-0.4821639685711191 l 8.700850764770701 -3.593048014354193" fill="#ff5f08" stroke="none" /><path d="M 80.45479744820244 107.68017299344265 l -4.213850960100143 1.6558080816193481 a25.52749824042957,25.52749824042957 0 0,0 -0.1571834071501988,-0.410356276365574 l 4.241728646843851 -1.5830282384206162" fill="#ff1802" stroke="none" /><path d="M 80.32549172779594 107.34259656027581 l -13.767047815327095 5.137911277649893 a35.6945478952741,35.6945478952741 0 0,0 -0.2098766990215896,-0.5774905372519067 l 13.853448775353908 -4.900172943391869" fill="#ffa80f" stroke="none" /><path d="M 79.97269907076064 106.31721596034903 l -59.660989769274316 18.81887919457124 a83.55864380235013,83.55864380235013 0 0,0 -0.42086987809453336,-1.3754271129811162 l 59.97608641987498 -17.78912510903808" fill="#4cd6ff" stroke="none" /><path d="M 79.67330655649465 105.27499134158121 l -5.708009066786408 1.481288557268315 a26.897082608918573,26.897082608918573 0 0,0 -0.11244093007305714,-0.4491456224941101 l 5.732661311154524 -1.382815095376813" fill="#ff2c04" stroke="none" /><path d="M 79.58551787078972 104.9243191809786 l -7.892471861906202 1.9037980159833754 a29.118839755571198,29.118839755571198 0 0,0 -0.11334083249424957,-0.4882693399800476 l 7.9240732603310065 -1.7676600186547535" fill="#ff4c07" stroke="none" /><path d="M 79.29508885075956 103.50808413554451 l -5.802926258816163 0.9832041007833275 a26.885630252492533,26.885630252492533 0 0,0 -0.07338272185542283,-0.45695427904300345 l 5.818990735032878 -0.8831705920471105" fill="#ff2c04" stroke="none" /><path d="M 79.18660465613746 102.79330883721812 l -9.79992609364 1.3152212654011401 a30.887788348147907,30.887788348147907 0 0,0 -0.06618589801759266,-0.5275667280861384 l 9.82111350090444 -1.1463367830275932" fill="#ff6609" stroke="none" /><path d="M 79.1416061653843 102.43462659150553 l -5.850317611105408 0.6828588499039994 a26.890035004964087,26.890035004964087 0 0,0 -0.04970520340232651,-0.4602084516871931 l 5.861205116008786 -0.5820540763320241" fill="#ff2c04" stroke="none" /><path d="M 79.10278846688536 102.07522291339032 l -8.80378840039449 0.8742708750489193 a29.847092164201715,29.847092164201715 0 0,0 -0.04637016341963915,-0.5116908893723272 l 8.817533160091205 -0.7225985971280259" fill="#ff5708" stroke="none" /><path d="M 79.04373962182676 101.35467743843564 l -5.876008778319246 0.37984336787156975 a26.888273103975465,26.888273103975465 0 0,0 -0.02588143417923718,-0.46213039343437523 l 5.881676563386015 -0.2786412581017569" fill="#ff2c04" stroke="none" /><path d="M 79.0235259727143 100.99374915477108 l -2.945531420782084 0.13954296398652713 a23.948834954624058,23.948834954624058 0 0,0 -0.015963457622064026,-0.4119459091960346 l 2.947497011255349 -0.0888198077764958" fill="#ff0000" stroke="none" /><path d="M 79.0095281055655 100.63252640178507 l -6.396614455913944 0.192755434263411 a27.39951804084068,27.39951804084068 0 0,0 -0.010148177799174578,-0.47154594582866277 l 6.398984696398126 -0.08261967264461938" fill="#ff3304" stroke="none" /><line stroke="#e1ed5e" stroke-width="0.3" x1="15.007084014347285" x2="10.007500721073583" y1="101.09737516637583" y2="101.16192664675087" /><path d="M 14.007167355692545 101.11028546245083 a86.0,86.0 0 0,1 10.666146001902534,-42.60595125391555" fill="none" id="id166" stroke="none" /><text fill="#e1ed5e" style="font-size:6.75px; font-family:Arial;" text-anchor="middle"><textPath startOffset="22.20632615414155" xlink:href="#id166">October</textPath></text><path d="M 79.00175016825051 100.2711162175752 l -8.850171969629509 0.11426786368014831 a29.850909616343728,29.850909616343728 0 0,0 -0.0022113876667117383,-0.5138486139670009 l 8.850827654585723 0.03809022849052794" fill="#ff5708" stroke="none" /><path d="M 79.00019446554 99.90962569577889 l -14.70938783960413 -0.06330300008452028 a35.709524053677384,35.709524053677384 0 0,0 0.007936004504203698,-0.614652294634372 l 14.70611882798221 0.3164915527793642" fill="#ffa80f" stroke="none" /><path d="M 79.00486145842228 99.54816195383935 l -3.27461569526698 -0.07047326478681282 a24.27537393784871,24.27537393784871 0 0,0 0.012586556601846068,-0.41768653743647655 l 3.272917444209489 0.12682994964828376" fill="#ff0500" stroke="none" /><path d="M 79.01574976396665 99.18683210126434 l -11.755096443650384 -0.4555257856248787 a32.763919250865804,32.763919250865804 0 0,0 0.026689163738634322,-0.5633660640470582 l 11.74551367167825 0.657802956294946" fill="#ff800b" stroke="none" /><path d="M 79.03285615573316 98.82574320788736 l -5.874369384831767 -0.3289917883309338 a26.88357470133914,26.88357470133914 0 0,0 0.02985281303447325,-0.46180980447548287 l 5.867835980792881 0.4300606570594284" fill="#ff2c04" stroke="none" /><path d="M 79.05617556472873 98.46500227214037 l -10.295070784228994 -0.7545379455784631 a31.322684242172826,31.322684242172826 0 0,0 0.044038972400431316,-0.5373870099119092 l 10.280557328009067 0.9316388726981507" fill="#ff6c09" stroke="none" /><path d="M 79.08570108090925 98.10471618934814 l -14.653296302446282 -1.3279027598367377 a35.7133415058194,35.7133415058194 0 0,0 0.060751581432382504,-0.6117601342834441 l 14.628267595331671 1.579938424824612" fill="#ffa80f" stroke="none" /><path d="M 79.12142395522702 97.74499172005258 l -5.85714608317621 -0.6326060209326687 a26.891209605623168,26.891209605623168 0 0,0 0.05366671913705552,-0.45978367585322016 l 5.845389011035565 0.7333334351107506" fill="#ff2c04" stroke="none" /><path d="M 79.21141760316559 97.0276538004421 l -5.850794923596228 -0.836545163281171 a26.91029686633324,26.91029686633324 0 0,0 0.0695107147998758,-0.4579887612295145 l 5.835528315357051 0.9371330369027775" fill="#ff2c04" stroke="none" /><path d="M 79.26566170972629 96.67025291283419 l -8.837228750041387 -1.419178961832199 a29.950457022200887,29.950457022200887 0 0,0 0.08612630219948933,-0.5083223109118288 l 8.811490586321673 1.5710870610598557" fill="#ff5808" stroke="none" /><path d="M 79.46518482838121 95.60439243477599 l -8.631301372376695 -1.8475848598133013 a29.826830302832562,29.826830302832562 0 0,0 0.11178756965574466,-0.5011217554270537 l 8.598219415718914 1.9958847847903143" fill="#ff5608" stroke="none" /><path d="M 79.54389044137918 95.25157060432595 l -2.8879078885225087 -0.6703633782641805 a23.964692063521657,23.964692063521657 0 0,0 0.09673427803983844,-0.4010260338026836 l 2.8759408102218553 0.7199746437262607" fill="#ff0000" stroke="none" /><path d="M 79.62865764111835 94.90015583598534 l -8.576547733177465 -2.14708761621536 a29.84121916090631,29.84121916090631 0 0,0 0.12903296006058865,-0.49721663097051677 l 8.538318441246568 2.2944006727347404" fill="#ff5708" stroke="none" /><path d="M 79.81627453868168 94.20196356495316 l -5.659959127643821 -1.6258965326221488 a26.888860404305007,26.888860404305007 0 0,0 0.13161982299757513,-0.4437566114288898 l 5.631133407534539 1.723082530797578" fill="#ff2c04" stroke="none" /><path d="M 79.91906864156998 93.8553929516997 l -10.89189357459146 -3.3328337631947353 a32.39039624127789,32.39039624127789 0 0,0 0.16772752237209299,-0.5317420815982401 l 10.832910568451164 3.51982601121939" fill="#ff7b0b" stroke="none" /><path d="M 80.02781315780177 93.51064311812611 l -9.209747397865733 -2.992428326896331 a30.683701483632497,30.683701483632497 0 0,0 0.1675369642482088,-0.5009141985948319 l 9.156873139845752 3.150515628413485" fill="#ff6309" stroke="none" /><path d="M 80.14247586403 93.16781622104843 l -8.399932357505953 -2.89008242942464 a29.883211134468468,29.883211134468468 0 0,0 0.1715394779890557,-0.484965204029599 l 8.34893979870709 3.03424525988085" fill="#ff5708" stroke="none" /><path d="M 80.2630227832202 92.82701384747504 l -11.064394450767487 -4.02111971401353 a32.77243510564414,32.77243510564414 0 0,0 0.1972516867134094,-0.5285364530232877 l 10.99353817555245 4.210979304066159" fill="#ff800b" stroke="none" /><path d="M 80.38941819471856 92.48833698450439 l -8.248855621321857 -3.1596524930310332 a29.833290606457506,29.833290606457506 0 0,0 0.18781683078226846,-0.47797334817983345 l 8.193245240657898 3.30117484610663" fill="#ff5708" stroke="none" /><path d="M 80.52162464483688 92.15188598940014 l -10.280710136253196 -4.142244093158299 a32.083825469257626,32.083825469257626 0 0,0 0.21080343411836897,-0.5104772364960332 l 10.207885015248628 4.318595900107643" fill="#ff760a" stroke="none" /><path d="M 80.65960295795068 91.81776055985345 l -10.835854521286706 -4.584267636232956 a32.76568115185442,32.76568115185442 0 0,0 0.22422537046924065,-0.5175430698225169 l 10.755338440974784 4.770109850642071" fill="#ff800b" stroke="none" /><path d="M 80.803312248108 91.48605970444005 l -14.791241140454554 -6.560076696285708 a37.18071137917694,37.18071137917694 0 0,0 0.26451010160492294,-0.58281294674382 l 14.676128721886279 6.813711651871599" fill="#ffbc11" stroke="none" /><path d="M 80.95270993114464 91.15688171328213 l -8.0284299674026 -3.727373059460012 a29.85149691667327,29.85149691667327 0 0,0 0.22039190468992426,-0.46420155822013925 l 7.963079868870924 3.8650170333206835" fill="#ff5708" stroke="none" /><path d="M 81.10775173730289 90.83032412892265 l -7.951456091734266 -3.859375234247396 a29.838576309423374,29.838576309423374 0 0,0 0.22825088151592263,-0.46013984907851446 l 7.88384519726493 3.995674671824872" fill="#ff5708" stroke="none" /><path d="M 81.26839172434947 90.50648371742162 l -7.89039345899893 -3.9989934487541934 a29.845917563542635,29.845917563542635 0 0,0 0.23619571227341235,-0.45625493652697774 l 7.820388313565404 4.1342211075415065" fill="#ff5708" stroke="none" /><path d="M 81.43458229118936 90.18545643968196 l -3.177065203207189 -1.679544479952627 a24.59369071645979,24.59369071645979 0 0,0 0.20107321458771452,-0.37255812890216583 l 3.147683889401003 1.7339835921872655" fill="#ff0a01" stroke="none" /><path d="M 81.6062741919709 89.86733742301443 l -5.213046009999963 -2.8717420694926874 a26.951701539565864,26.951701539565864 0 0,0 0.22734704675719644,-0.4044250281158694 l 5.162841321950335 2.961050607543341" fill="#ff2d04" stroke="none" /><line stroke="#e1ed5e" stroke-width="0.3" x1="26.266209847984243" x2="21.928928074336255" y1="57.711370442889674" y2="55.22380399835377" /><path d="M 25.398753493254645 57.213857153982495 a86.0,86.0 0 0,1 29.58750427330803,-30.492523968695096" fill="none" id="id167" stroke="none" /><text fill="#e1ed5e" style="font-size:6.75px; font-family:Arial;" text-anchor="middle"><textPath startOffset="21.46611528233685" xlink:href="#id167">November</textPath></text><path d="M 81.78341655067845 89.55222093294921 l -3.978862317390182 -2.2820017016887197 a25.58681557371318,25.58681557371318 0 0,0 0.2224107449568268,-0.38017205863345616 l 3.9389918979630303 2.350153172676068" fill="#ff1902" stroke="none" /><path d="M 81.96595687620814 89.24020034530311 l -7.878488148281755 -4.700607261251327 a30.174218447755905,30.174218447755905 0 0,0 0.26996471168542496,-0.4437510035693633 l 7.7964076383101135 4.835526038027765" fill="#ff5b08" stroke="none" /><path d="M 82.15384107792192 88.93136811851018 l -8.209660664654193 -5.091835849146581 a30.660503120615644,30.660503120615644 0 0,0 0.2820363375294041,-0.4461137547985593 l 8.120796730878824 5.232397251659356" fill="#ff6209" stroke="none" /><path d="M 82.34701348167596 88.62581576622439 l -5.533338790181156 -3.5652445982490146 a27.58246209349262,27.58246209349262 0 0,0 0.2605930135457885,-0.3969010378892482 l 5.471149141277447 3.65996370011593" fill="#ff3605" stroke="none" /><path d="M 82.7489923806493 88.02491185347247 l -3.675571612363793 -2.551462211259945 a25.474347560606134,25.474347560606134 0 0,0 0.2531511835537314,-0.358064396248978 l 3.6311078090061835 2.614353107840709" fill="#ff1702" stroke="none" /><path d="M 82.95767976084542 87.72973835380427 l -4.787142722800827 -3.4466840736565043 a26.8988445099072,26.8988445099072 0 0,0 0.273775654854741,-0.3734296855466007 l 4.727104455432452 3.5285762028746057" fill="#ff2c04" stroke="none" /><path d="M 83.17141714833178 87.43820079747576 l -7.070654498824116 -5.277933550765294 a29.823306500855313,29.823306500855313 0 0,0 0.3106226035146572,-0.40874293545297663 l 6.978755955085349 5.398861262099297" fill="#ff5608" stroke="none" /><path d="M 83.39014120810768 87.1503855733568 l -2.5787974629517962 -1.9949930639693974 a24.26039777944542,24.26039777944542 0 0,0 0.25836852221619305,-0.3281017854803377 l 2.544074860141632 2.0390872434027827" fill="#ff0500" stroke="none" /><path d="M 83.6137871275137 86.86637796730984 l -6.8921217435107796 -5.524066035694166 a29.832703306127968,29.832703306127968 0 0,0 0.3246103662327538,-0.39793392663960697 l 6.796012885201634 5.641884131941856" fill="#ff5708" stroke="none" /><path d="M 83.84228863543731 86.58626213691792 l -5.780192082253844 -4.798574478788141 a28.512452165320383,28.512452165320383 0 0,0 0.3167453558869195,-0.37492659474195994 l 5.696736112879801 4.897360023159217" fill="#ff4406" stroke="none" /><path d="M 84.07557802195018 86.31012108654704 l -8.921761681532347 -7.669844298475438 a32.76538750168965,32.76538750168965 0 0,0 0.3713537532584272,-0.42452153496153655 l 8.788416064696076 7.822281389639917" fill="#ff800b" stroke="none" /><path d="M 84.5562425177563 85.77008943001954 l -2.1694872448616374 -1.9989701024888997 a23.95000955528314,23.95000955528314 0 0,0 0.28196309529456287,-0.3007785707519568 l 2.1347568275966187 2.0360180901189064" fill="#ff0000" stroke="none" /><path d="M 85.05521093208273 85.24692304244772 l -2.1006477043181175 -2.073700545499213 a23.95177145627176,23.95177145627176 0 0,0 0.2921707795081544,-0.29091610532937845 l 2.06464112464265 2.109552501478701" fill="#ff0000" stroke="none" /><path d="M 85.57189188830299 84.74124197986013 l -6.141366138687578 -6.49493468567394 a29.93871101561007,29.93871101561007 0 0,0 0.37750164982274487,-0.35084664189419384 l 6.028656605069978 6.599685913642781" fill="#ff5808" stroke="none" /><path d="M 85.83668400450813 84.49514656593479 l -5.95517987706469 -6.519249531449567 a29.829766804480265,29.829766804480265 0 0,0 0.3820895006180773,-0.3430437262601546 l 5.8420793888506415 6.620792266479" fill="#ff5708" stroke="none" /><path d="M 86.10567301691215 84.25364557470407 l -7.797016460606105 -8.83631030117625 a32.784474762399725,32.784474762399725 0 0,0 0.42636396979617674,-0.3697386331469169 l 7.643758692163155 8.969213927742846" fill="#ff800b" stroke="none" /><path d="M 86.65592168130627 83.78471172551755 l -5.609786062895319 -6.816828858130244 a29.82829855365641,29.82829855365641 0 0,0 0.3992682547636306,-0.32284716143957826 l 5.491614409567188 6.912382116833957" fill="#ff5708" stroke="none" /><path d="M 86.93701828274178 83.55741782278169 l -3.66497310782185 -4.613159752267048 a26.89179690595271,26.89179690595271 0 0,0 0.36491841197433367,-0.28482460878590393 l 3.5850221406880904 4.675562750276174" fill="#ff2c04" stroke="none" /><path d="M 87.22198572758235 83.33499621200491 l -1.7982288090054293 -2.3452384130173147 a23.955295258249006,23.955295258249006 0 0,0 0.32938969731775253,-0.2480894910551538 l 1.7575929579292868 2.375844493578323" fill="#ff0000" stroke="none" /><path d="M 87.51073957382395 83.11751280151077 l -1.800554788975651 -2.43391859387843 a24.027533198782518,24.027533198782518 0 0,0 0.33461736287852134,-0.24311374474024883 l 1.758392109743348 2.4645515734353465" fill="#ff0100" stroke="none" /><path d="M 87.80319425747018 82.90503203632743 l -2.58062376455156 -3.6169864071435702 a25.44322064314047,25.44322064314047 0 0,0 0.35871168291124234,-0.2513004576327944 l 2.5179809420566577 3.6608717075403074" fill="#ff1702" stroke="none" /><path d="M 88.09926311788651 82.69761687909137 l -5.004010767804093 -7.2752899508120485 a29.830060454645036,29.830060454645036 0 0,0 0.4255688608467038,-0.28734599454215937 l 4.87803721255085 7.360347857652873" fill="#ff5708" stroke="none" /><path d="M 88.39885842347998 82.49532879139004 l -2.882859970210879 -4.349875017570641 a26.21845707813425,26.21845707813425 0 0,0 0.37833604893971573,-0.2460802903322531 l 2.807556895486876 4.39885423206243" fill="#ff2203" stroke="none" /><path d="M 88.70189139769569 82.29822771554957 l -4.749828263058518 -7.4419870849674705 a29.82859220382118,29.82859220382118 0 0,0 0.4351861601404505,-0.27251353355589625 l 4.621022950545825 7.522644959846297" fill="#ff5708" stroke="none" /><path d="M 89.00827224532344 82.1063720568725 l -5.4247258944475085 -8.83100719151223 a31.364088915405446,31.364088915405446 0 0,0 0.46245293746343213,-0.27862272040048686 l 5.271910890766428 8.923076521371335" fill="#ff6c0a" stroke="none" /><line stroke="#e1ed5e" stroke-width="0.3" x1="56.762969772571076" x2="54.21961505331055" y1="26.818313649435495" y2="22.513508569990535" /><path d="M 56.25429882871897 25.957352633546506 a86.0,86.0 0 0,1 42.265352541879196,-11.944610805530505" fill="none" id="id168" stroke="none" /><text fill="#e1ed5e" style="font-size:6.75px; font-family:Arial;" text-anchor="middle"><textPath startOffset="22.20632615414155" xlink:href="#id168">December</textPath></text><path d="M 89.3179101791058 81.91981866633112 l -5.9866525922544245 -10.132826653256695 a32.76920495383167,32.76920495383167 0 0,0 0.4881102087653411,-0.2827449382508461 l 5.811345651023763 10.234375748897587" fill="#ff800b" stroke="none" /><path d="M 89.63071344664047 81.73862282372117 l -2.961424276466712 -5.215371897888779 a26.997510965270042,26.997510965270042 0 0,0 0.4060887318543863,-0.22598793961402627 l 2.87121145554028 5.26557523506299" fill="#ff2e04" stroke="none" /><path d="M 89.94658935756843 81.56283822128135 l -4.226124107738537 -7.750378119685838 a29.827711253326868,29.827711253326868 0 0,0 0.45289111827841344,-0.24191875077165387 l 4.092087942931818 7.82197559695924" fill="#ff5608" stroke="none" /><path d="M 90.26544431104013 81.39251694778311 l -2.9106884599730924 -5.563745066521839 a27.279121473284828,27.279121473284828 0 0,0 0.4179414877057879,-0.21408586293835644 l 2.814486484678541 5.6130234547727005" fill="#ff3204" stroke="none" /><path d="M 90.91171255644093 81.06846463323043 l -6.366685496209426 -13.262249063877137 a35.71128595466601,35.71128595466601 0 0,0 0.5564528984227134,-0.26126209702822695 l 6.137454386487104 13.36987614354537" fill="#ffa80f" stroke="none" /><path d="M 91.23893434514133 80.91482961587045 l -6.138189440307992 -13.371477390239074 a35.71304785565463,35.71304785565463 0 0,0 0.5608953231831769,-0.2516573818060551 l 5.907111998658041 13.475155102561658" fill="#ffa80f" stroke="none" /><path d="M 91.56875222667455 80.76684994638697 l -3.5412726150345595 -8.078261891578407 a29.82036999920761,29.82036999920761 0 0,0 0.4718949190209191,-0.20204077713388707 l 3.401693938223332 8.138022196675081" fill="#ff5608" stroke="none" /><path d="M 91.90106846888425 80.62456947434976 l -3.4063371932576954 -8.14913046015225 a29.832409655963197,29.832409655963197 0 0,0 0.475494700995154,-0.19396622749684364 l 3.265558622674161 8.20655757383267" fill="#ff5708" stroke="none" /><path d="M 92.23578459929587 80.48803036053334 l -2.549975908329942 -6.408252468136441 a27.896961419961684,27.896961419961684 0 0,0 0.44770217351817243,-0.17370148785446626 l 2.4392905698120932 6.451196659881458" fill="#ff3b05" stroke="none" /><path d="M 92.91201910852362 80.23233633223022 l -1.0027328484401574 -2.7965207581790015 a23.970858716981837,23.970858716981837 0 0,0 0.38960406943630327,-0.13592520974989022 l 0.9544467749405688 2.813366821101101" fill="#ff0100" stroke="none" /><path d="M 93.25333710446033 80.11325718540243 l -2.293049650262474 -6.759088065007742 a28.137460904908618,28.137460904908618 0 0,0 0.46000350795894146,-0.1516559242203816 l 2.176363320061123 6.7975577134873575" fill="#ff3e05" stroke="none" /><path d="M 93.59665428221793 80.00007090966166 l -3.8392137774319437 -11.99123188024346 a33.59083811485917,33.59083811485917 0 0,0 0.5521927933407312,-0.1715689888277488 l 3.6322356113804837 12.055541003953733" fill="#ff8b0c" stroke="none" /><path d="M 93.94186890950719 79.89281104454417 l -3.3946158877542443 -11.266871262225296 a32.76714940267828,32.76714940267828 0 0,0 0.5414533990498817,-0.15806509481247472 l 3.2001722709809415 11.323634685956469" fill="#ff800b" stroke="none" /><path d="M 94.28887869178378 79.79150937346287 l -3.29816117536539 -11.670363068858961 a33.127458154851524,33.127458154851524 0 0,0 0.5500768849166444,-0.15035679192242998 l 3.0967864012250232 11.725406401607687" fill="#ff850c" stroke="none" /><path d="M 94.63758080256005 79.69619591428918 l -3.7514763953918466 -14.204268439246288 a35.691317743461624,35.691317743461624 0 0,0 0.5953500646025701,-0.15176798748934353 l 3.506417442104277 14.266739422904495" fill="#ffa80f" stroke="none" /><path d="M 94.98787191387505 79.60689891045804 l -1.4047396520506905 -5.715535843559361 a26.885630252492533,26.885630252492533 0 0,0 0.4503679944719228,-0.10658755348519383 l 1.3061479706162336 5.738869309185426" fill="#ff2c04" stroke="none" /><path d="M 95.33964822691252 79.52364482259891 l -2.613208283276503 -11.481747208418673 a32.775371607291845,32.775371607291845 0 0,0 0.5511838548422487,-0.12046744204642186 l 2.4151817042807333 11.525028148560963" fill="#ff800b" stroke="none" /><path d="M 95.692805502759 79.44645832069477 l -0.977215041195883 -4.663181588788072 a25.764473923399258,25.764473923399258 0 0,0 0.4348473809933683,-0.08722629379550259 l 0.8968012507353783 4.6793118386607855" fill="#ff1b02" stroke="none" /><path d="M 96.04723909329186 79.375362276772 l -0.556154957466834 -2.9018943433346593 a23.954707957919467,23.954707957919467 0 0,0 0.40563862011388147,-0.07412786504900408 l 0.5061212162500592 2.9110376897343997" fill="#ff0000" stroke="none" /><path d="M 96.40284397218896 79.31037775812273 l -1.515395933409414 -8.716043776448837 a29.846798514036944,29.846798514036944 0 0,0 0.506927681914966,-0.08364741103995534 l 1.3651390453555623 8.740837450428419" fill="#ff5708" stroke="none" /><path d="M 96.75951476605007 79.25152402106235 l -1.3626015279612014 -8.724590001388554 a29.830354104809803,29.830354104809803 0 0,0 0.508012378698932,-0.07486781908356942 l 1.2122201688336207 8.746752304633093" fill="#ff5708" stroke="none" /><path d="M 97.47563105711357 79.15227682838746 l -1.060102937332703 -8.754953444188306 a29.81890174838376,29.81890174838376 0 0,0 0.5100924939424634,-0.057314835125114955 l 0.9092437398805218 8.77190423278402" fill="#ff5608" stroke="none" /><path d="M 97.83486435360386 79.11191278185805 l -0.4547126974315917 -4.38682837214249 a25.410331824686192,25.410331824686192 0 0,0 0.43545428266685077,-0.0413516311332014 l 0.3791332876745046 4.394005547790872" fill="#ff1602" stroke="none" /><path d="M 98.19473922651362 79.07773832637324 l -0.7981009403500323 -9.24967570403863 a30.284043609380028,30.284043609380028 0 0,0 0.5197460201237842,-0.04034229427836111 l 0.6387647308639138 9.262043260505452" fill="#ff5d08" stroke="none" /><path d="M 98.55514903715128 79.0497635885617 l -0.6742830885580801 -9.777056926116808 a30.80028059904634,30.80028059904634 0 0,0 0.529233816501171,-0.0319248290862103 l 0.5058872232172861 9.787215024583324" fill="#ff6409" stroke="none" /><path d="M 98.91598698831166 79.02799685794201 l -0.4562140515722016 -8.826206346104279 a29.837989009093832,29.837989009093832 0 0,0 0.5131553939857535,-0.02209755071607465 l 0.3042178251971239 8.832751623344546" fill="#ff5708" stroke="none" /><path d="M 99.27714615592234 79.0124445844662 l -0.4056102897135991 -11.776610862928864 a32.78359381190542,32.78359381190542 0 0,0 0.5641484574386955,-0.014570290255569784 l 0.20283519708002468 11.781847945326794" fill="#ff800b" stroke="none" /><path d="M 99.63851952072746 79.00311137660856 l -0.1521415619246327 -8.837266778967082 a29.838576309423374,29.838576309423374 0 0,0 0.5136220411971663,-0.004420907064849463 l 2.164826837270992e-15 8.838576309423374" fill="#ff5708" stroke="none" /></svg>