<?xml version="1.0" encoding="utf-8" ?>
<svg baseProfile="full" height="200mm" version="1.1" viewBox="0,0,200,200" width="200mm" xmlns="http://www.w3.org/2000/svg" xmlns:ev="http://www.w3.org/2001/xml-events" xmlns:xlink="http://www.w3.org/1999/xlink"><defs /><rect fill="#1a1a1a" height="200" width="200" x="0" y="0" /><text alignment-baseline="middle" fill="#e1ed5e" style="dominant-baseline: central; font-size:9.0px; font-family:Arial;" text-anchor="middle" x="100.0" y="100.0">2019</text><line stroke="#e1ed5e" stroke-width="0.3" x1="100.0" x2="100.0" y1="15.0" y2="10.0" /><path d="M 100.0 14.0 a86.0,86.0 0 0,1 42.46469731375804,11.215312516191453" fill="none" id="id49" stroke="none" /><text fill="#e1ed5e" style="font-size:6.75px; font-family:Arial;" text-anchor="middle"><textPath startOffset="22.20632615414155" xlink:href="#id49">January</textPath></text><line stroke="#e1ed5e" stroke-width="0.3" x1="143.23703022742887" x2="145.7803849466894" y1="26.81831364943548" y2="22.513508569990506" /><path d="M 143.74570117128098 25.957352633546492 a86.0,86.0 0 0,1 28.547481713284135,27.462654790039103" fill="none" id="id50" stroke="none" /><text fill="#e1ed5e" style="font-size:6.75px; font-family:Arial;" text-anchor="middle"><textPath startOffset="19.985693538727396" xlink:href="#id50">February</textPath></text><line stroke="#e1ed5e" stroke-width="0.3" x1="172.23445277983987" x2="176.4835382374775" y1="55.19839476539836" y2="52.563006222186495" /><path d="M 173.08426987136738 54.67131705675599 a86.0,86.0 0 0,1 12.851231095245387,41.99856678651699" fill="none" id="id51" stroke="none" /><text fill="#e1ed5e" style="font-size:6.75px; font-family:Arial;" text-anchor="middle"><textPath startOffset="22.20632615414155" xlink:href="#id51">March</textPath></text><path d="M 120.98425023603335 99.18683210126433 l 44.63957980656708 -1.7298437115192826 a65.67308411754391,65.67308411754391 0 0,0 0.03405088599580674,1.129983133444656 l -44.662742387018525 0.9611904306496276" fill="#79ff26" stroke="none" /><line stroke="#e1ed5e" stroke-width="0.3" x1="184.98032266829074" x2="189.97916517819016" y1="98.17113171792111" y2="98.06355123074" /><path d="M 185.9800911702706 98.14961562048488 a86.0,86.0 0 0,1 -9.607161424134198,41.387399972396054" fill="none" id="id52" stroke="none" /><text fill="#e1ed5e" style="font-size:6.75px; font-family:Arial;" text-anchor="middle"><textPath startOffset="21.466115282336823" xlink:href="#id52">April</textPath></text><path d="M 120.99513854157772 99.54816195383933 l 55.063159734422264 -1.185018639460927 a76.07590969847317,76.07590969847317 0 0,0 0.01690693947981375,1.3094610948125927 l -55.07539968101979 0.2370212865878715" fill="#3cffa7" stroke="none" /><path d="M 120.99824983174949 100.27111621757518 l 59.72652279652557 0.7711513616257876 a80.73150090016512,80.73150090016512 0 0,0 -0.029901169206988022,1.3893898386604373 l -59.704399564633576 -1.7991310160763396" fill="#46fff8" stroke="none" /><path d="M 120.9904718944345 100.63252640178507 l 56.73167902870142 1.7095511231819684 a77.75743097126907,77.75743097126907 0 0,0 -0.0518303899317887,1.337512060979057 l -56.69384650591843 -2.6858404311750315" fill="#40ffc5" stroke="none" /><path d="M 120.95626037817324 101.35467743843564 l 62.86878113451971 4.064032315306923 a84.0,84.0 0 0,0 -0.10569376534264929,1.4421074540129188 l -62.789510810512716 -5.145612905816612" fill="#4dd2ff" stroke="none" /><path d="M 120.92983693683757 101.71520430193887 l 60.93754164543742 4.9938436642032435 a82.14182248127645,82.14182248127645 0 0,0 -0.12761476766611682,1.4082183272285218 l -60.84255228149422 -6.042043379980336" fill="#49efff" stroke="none" /><path d="M 120.8583938346157 102.4346265915055 l 26.294665819832723 3.069157343911817 a47.47317845250863,47.47317845250863 0 0,0 -0.1017248276960923,0.8108469646886214 l -26.237939482889782 -3.5213220628878332" fill="#ff0000" stroke="none" /><path d="M 120.49622156327973 104.57218783832717 l 59.33770001986429 13.23673778347448 a81.79616657977593,81.79616657977593 0 0,0 -0.3183796364419577,1.3715711410227114 l -59.10105981749178 -14.256177581845755" fill="#48f5ff" stroke="none" /><path d="M 120.32669344350535 105.2749913415812 l 59.983060984668285 15.566236988572284 a82.96995513210277,82.96995513210277 0 0,0 -0.3706462427037616,1.3793125528873824 l -59.706226665622744 -16.596440474635212" fill="#4be2ff" stroke="none" /><line stroke="#e1ed5e" stroke-width="0.3" x1="174.80103733775053" x2="179.2010983576182" y1="140.37084112569926" y2="142.7455964860345" /><path d="M 175.68104954172406 140.8457921977663 a86.0,86.0 0 0,1 -30.038265399797805,32.042727171017184" fill="none" id="id53" stroke="none" /><text fill="#e1ed5e" style="font-size:6.75px; font-family:Arial;" text-anchor="middle"><textPath startOffset="22.206326154141568" xlink:href="#id53">May</textPath></text><path d="M 115.80600337817218 113.82643327865902 l 42.72397176942075 37.37315062737379 a77.76345788947879,77.76345788947879 0 0,0 -0.8899885202133493,0.9999115371632227 l -42.07432439955907 -38.10303633427788" fill="#40ffc5" stroke="none" /><path d="M 111.45004920935366 117.60387380957326 l 32.93455637702388 50.635221197283556 a81.40373026104595,81.40373026104595 0 0,0 -1.1811999043716037,0.7538976655091484 l -32.05807467060535 -51.19463329161652" fill="#48fbff" stroke="none" /><line stroke="#e1ed5e" stroke-width="0.3" x1="143.8653032363475" x2="146.44561519142675" y1="172.8068346515853" y2="177.08958963109032" /><path d="M 144.38136562736335 173.6633856474863 a86.0,86.0 0 0,1 -40.68145358897372,12.25698825130547" fill="none" id="id54" stroke="none" /><text fill="#e1ed5e" style="font-size:6.75px; font-family:Arial;" text-anchor="middle"><textPath startOffset="21.466115282336833" xlink:href="#id54">June</textPath></text><path d="M 105.53697534728816 120.25689768951611 l 13.346964382916598 48.82956397896465 a71.62082354737669,71.62082354737669 0 0,0 -1.192007729691405,0.3148200754011639 l -12.504466210413696 -49.0520754036694" fill="#33ff52" stroke="none" /><line stroke="#e1ed5e" stroke-width="0.3" x1="102.19456741930631" x2="102.32365962044197" y1="184.97166512339345" y2="189.96999836594603" /><path d="M 102.22038585953345 185.97133177190398 a86.0,86.0 0 0,1 -42.740103519485714,-10.115201625700543" fill="none" id="id55" stroke="none" /><text fill="#e1ed5e" style="font-size:6.75px; font-family:Arial;" text-anchor="middle"><textPath startOffset="22.20632615414155" xlink:href="#id55">July</textPath></text><line stroke="#e1ed5e" stroke-width="0.3" x1="58.666819895761336" x2="56.23545636021788" y1="174.27360380694188" y2="178.64263932499728" /><path d="M 58.180547188652646 175.14741091055294 a86.0,86.0 0 0,1 -31.652253787137756,-30.449443065178592" fill="none" id="id56" stroke="none" /><text fill="#e1ed5e" style="font-size:6.75px; font-family:Arial;" text-anchor="middle"><textPath startOffset="22.20632615414155" xlink:href="#id56">August</textPath></text><path d="M 86.24171649860922 115.8653595955263 l -26.983914595402133 31.116491261991303 a62.18698429540014,62.18698429540014 0 0,0 -0.8026789353783877,-0.7082708345918962 l 27.51553588368711 -30.647397285627118" fill="#b9ff1f" stroke="none" /><path d="M 83.95833913139862 113.55231037782056 l -34.5886606952047 29.221180346234686 a66.27971763952566,66.27971763952566 0 0,0 -0.7287739013758767,-0.8778551115767874 l 35.08653059647412 -28.62146397754414" fill="#6eff28" stroke="none" /><path d="M 83.72743513129214 113.27417163493432 l -34.11044820540902 27.825235153546586 a65.02006801589539,65.02006801589539 0 0,0 -0.6999939397794565,-0.8733500688634535 l 34.584360057243344 -27.233957251104872" fill="#84ff25" stroke="none" /><path d="M 82.85270091963577 112.12312394758628 l -40.038959519064335 28.307505847253008 a70.03501979872686,70.03501979872686 0 0,0 -0.6874740689615024,-0.9903576705779769 l 40.52029449518797 -27.61410691448802" fill="#30ff31" stroke="none" /><path d="M 82.6465618267979 111.8261652097733 l -35.366100151202055 24.101583734534852 a63.79774968871201,63.79774968871201 0 0,0 -0.6106261699626027,-0.912803273247383 l 35.77572942657539 -23.489243547081646" fill="#9bff22" stroke="none" /><path d="M 82.44556493220864 111.52570212397912 l -38.22921867390043 25.100129122142878 a66.73280706850545,66.73280706850545 0 0,0 -0.6221885274862513,-0.9656504116537192 l 38.65561206476372 -24.43835711056771" fill="#66ff29" stroke="none" /><path d="M 82.24976979558568 111.22182372390057 l -40.88712604080633 25.849136361776686 a69.37287387086391,69.37287387086391 0 0,0 -0.629427881916881,-1.0148381598506762 l 41.32601856239116 -25.141501870560745" fill="#39ff2e" stroke="none" /><line stroke="#e1ed5e" stroke-width="0.3" x1="26.63291911575756" x2="22.317208475507996" y1="142.92168965132927" y2="145.44649492493687" /><path d="M 25.769776987707644 143.4266507060508 a86.0,86.0 0 0,1 -11.730757126820373,-40.83630448921669" fill="none" id="id57" stroke="none" /><text fill="#e1ed5e" style="font-size:6.75px; font-family:Arial;" text-anchor="middle"><textPath startOffset="21.46611528233685" xlink:href="#id57">September</textPath></text><path d="M 81.87401531095188 110.60418214915194 l -41.85426011879482 24.48585307952135 a69.49057734368239,69.49057734368239 0 0,0 -0.5951305534038152,-1.0376602835631983 l 42.269542668351015 -23.761772950099843" fill="#37ff2e" stroke="none" /><path d="M 81.69416730710424 110.29060199501025 l -41.90566534182228 23.55721974538445 a69.07314624479176,69.07314624479176 0 0,0 -0.5737136275474797,-1.0414568803866573 l 42.30495537882127 -22.83239234659997" fill="#3eff2e" stroke="none" /><path d="M 81.51974371655577 109.97397251340807 l -42.10420517521266 22.72404552596377 a68.8450241770498,68.8450241770498 0 0,0 -0.5538663883766495,-1.0477064768103685 l 42.4891240718142 -21.995924034067276" fill="#41ff2d" stroke="none" /><path d="M 81.18737489456691 109.33194174019688 l -43.83130552353756 21.742377113776328 a69.92764358167435,69.92764358167435 0 0,0 -0.5256119434273308,-1.0829162845754174 l 44.19907072357961 -20.984671873235623" fill="#2fff2f" stroke="none" /><path d="M 80.73074385275274 108.34839909993369 l -43.539718165848676 18.863569053705483 a68.4504088012469,68.4504088012469 0 0,0 -0.459103472221006,-1.0851849913571647 l 43.85797261926199 -18.11130953668216" fill="#48ff2c" stroke="none" /><path d="M 79.58551787078972 104.9243191809786 l -44.466265317277404 10.726017041355297 a66.74162429164438,66.74162429164438 0 0,0 -0.25978202849878684,-1.1191341796454166 l 44.64430791170675 -9.959014204361306" fill="#66ff29" stroke="none" /><line stroke="#e1ed5e" stroke-width="0.3" x1="15.007084014347285" x2="10.007500721073583" y1="101.09737516637583" y2="101.16192664675087" /><path d="M 14.007167355692545 101.11028546245083 a86.0,86.0 0 0,1 10.666146001902534,-42.60595125391555" fill="none" id="id58" stroke="none" /><text fill="#e1ed5e" style="font-size:6.75px; font-family:Arial;" text-anchor="middle"><textPath startOffset="22.20632615414155" xlink:href="#id58">October</textPath></text><path d="M 81.10775173730289 90.83032412892265 l -44.376102807715775 -21.53870060938245 a70.32701211650237,70.32701211650237 0 0,0 0.5379681102581011,-1.0845108830212689 l 43.99877468450426 22.299371080902677" fill="#30ff37" stroke="none" /><line stroke="#e1ed5e" stroke-width="0.3" x1="26.266209847984243" x2="21.928928074336255" y1="57.711370442889674" y2="55.22380399835377" /><path d="M 25.398753493254645 57.213857153982495 a86.0,86.0 0 0,1 29.58750427330803,-30.492523968695096" fill="none" id="id59" stroke="none" /><text fill="#e1ed5e" style="font-size:6.75px; font-family:Arial;" text-anchor="middle"><textPath startOffset="21.46611528233685" xlink:href="#id59">November</textPath></text><line stroke="#e1ed5e" stroke-width="0.3" x1="56.762969772571076" x2="54.21961505331055" y1="26.818313649435495" y2="22.513508569990535" /><path d="M 56.25429882871897 25.957352633546506 a86.0,86.0 0 0,1 42.265352541879196,-11.944610805530505" fill="none" id="id60" stroke="none" /><text fill="#e1ed5e" style="font-size:6.75px; font-family:Arial;" text-anchor="middle"><textPath startOffset="22.20632615414155" xlink:href="#id60">December</textPath></text></svg>