<?xml version="1.0" encoding="utf-8" ?>
<svg baseProfile="full" height="200mm" version="1.1" viewBox="0,0,200,200" width="200mm" xmlns="http://www.w3.org/2000/svg" xmlns:ev="http://www.w3.org/2001/xml-events" xmlns:xlink="http://www.w3.org/1999/xlink"><defs /><rect fill="#1a1a1a" height="200" width="200" x="0" y="0" /><text alignment-baseline="middle" fill="#e1ed5e" style="dominant-baseline: central; font-size:9.0px; font-family:Arial;" text-anchor="middle" x="100.0" y="100.0">2017</text><line stroke="#e1ed5e" stroke-width="0.3" x1="100.0" x2="100.0" y1="15.0" y2="10.0" /><path d="M 100.0 14.0 a86.0,86.0 0 0,1 42.46469731375804,11.215312516191453" fill="none" id="id37" stroke="none" /><text fill="#e1ed5e" style="font-size:6.75px; font-family:Arial;" text-anchor="middle"><textPath startOffset="22.20632615414155" xlink:href="#id37">January</textPath></text><path d="M 100.0 79.0 l 0.0 -15.36239322872315 a36.36239322872315,36.36239322872315 0 0,0 0.625918825324523,0.005387480939193744 l -0.2644383460519947 15.360117124392515" fill="#ffbe11" stroke="none" /><path d="M 100.36148047927253 79.00311137660856 l 0.04528295925535809 -2.6302976413437134 a23.630687406070365,23.630687406070365 0 0,0 0.4066429057423766,0.010502386541894237 l -0.09055250019260253 2.6291284626594598" fill="#ff0f01" stroke="none" /><path d="M 102.16513564639614 79.11191278185805 l 0.7527167756304936 -7.261814605518574 a28.300721464981283,28.300721464981283 0 0,0 0.48412197451991923,0.05439674466800336 l -0.877605453660138 7.24778190737997" fill="#ff5207" stroke="none" /><path d="M 102.52436894288641 79.15227682838746 l 0.3371823834649351 -2.784650400897359 a23.80499016307311,23.80499016307311 0 0,0 0.40636849340368175,0.052758293297650166 l -0.38506560537646295 2.7784337844355718" fill="#ff1101" stroke="none" /><path d="M 102.88285421437855 79.19881850522331 l 1.237461819015949 -8.928882966687238 a30.014225578845902,30.014225578845902 0 0,0 0.5111437188289037,0.07532929722105303 l -1.3909745182735085 8.906259185305215" fill="#ff6a09" stroke="none" /><path d="M 104.307194497241 79.44645832069477 l 0.4549012327634223 -2.170747444434982 a23.21789981718983,23.21789981718983 0 0,0 0.39045572620547914,0.08533849849759095 l -0.49219968312242945 2.162595447841521" fill="#ff0901" stroke="none" /><path d="M 104.66035177308747 79.52364482259891 l 0.594821012521898 -2.6134864732132983 a23.68032154462976,23.68032154462976 0 0,0 0.39667505735770364,0.09388017001948033 l -0.6397197568421252 2.6028603910529493" fill="#ff1001" stroke="none" /><path d="M 105.36241919743992 79.69619591428918 l 3.0379460531255367 -11.502618354616308 a32.897030941947534,32.897030941947534 0 0,0 0.5462506727490477,0.14931094360102246 l -3.235494615098295 11.448620870188993" fill="#ff910d" stroke="none" /><path d="M 105.71112130821622 79.79150937346287 l 4.103576576834065 -14.520281449621237 a36.088999771295505,36.088999771295505 0 0,0 0.5963445692007877,0.17408933259451248 l -4.35291136375828 14.447493788108021" fill="#ffbb11" stroke="none" /><path d="M 106.0581310904928 79.89281104454417 l 4.390964180419202 -14.57379266864714 a36.22090664784584,36.22090664784584 0 0,0 0.5954279423102842,0.1850023600705123 l -4.641177495440204 14.496050173694108" fill="#ffbd11" stroke="none" /><path d="M 107.76421540070413 80.48803036053334 l 0.8628466460979052 -2.1683887802302757 a23.333755393547264,23.333755393547264 0 0,0 0.3719135387285349,0.15171287064019381 l -0.9000440544148276 2.1532150234065024" fill="#ff0b01" stroke="none" /><path d="M 108.43124777332544 80.76684994638697 l 5.930752871414115 -13.52908406602478 a35.771930993859684,35.771930993859684 0 0,0 0.5618201189879679,0.25207231072651465 l -6.162755108868863 13.424991424781734" fill="#ffb711" stroke="none" /><path d="M 108.76106565485865 80.91482961587045 l 3.864600455421966 -8.418674287346484 a30.263326262011745,30.263326262011745 0 0,0 0.47156284530853976,0.22140507883978236 l -4.008941512030104 8.350904225866698" fill="#ff6d0a" stroke="none" /><path d="M 109.08828744355905 81.06846463323043 l 0.700535118031224 -1.4592634140408098 a22.618702926158182,22.618702926158182 0 0,0 0.34954376202350257,0.17151960597304128 l -0.7255501470651584 1.4469886479329366" fill="#ff0000" stroke="none" /><path d="M 109.73455568895987 81.39251694778311 l 4.025167297285612 -7.694057608764119 a29.683345798603128,29.683345798603128 0 0,0 0.45069913540465006,0.2407478694336615 l -4.157011479218573 7.623631012828703" fill="#ff6509" stroke="none" /><path d="M 110.05341064243156 81.56283822128135 l 3.9768065045912353 -7.29314930978245 a29.30692583509323,29.30692583509323 0 0,0 0.4408262806980166,0.2453193479359598 l -4.101756874361288 7.22361456428631" fill="#ff6008" stroke="none" /><path d="M 110.36928655335952 81.73862282372117 l 6.853960144770857 -12.070526811151932 a34.88071998006029,34.88071998006029 0 0,0 0.519562056367848,0.30096387845851236 l -7.060718933604033 11.95075877530337" fill="#ffab0f" stroke="none" /><line stroke="#e1ed5e" stroke-width="0.3" x1="143.23703022742887" x2="145.7803849466894" y1="26.81831364943548" y2="22.513508569990506" /><path d="M 143.74570117128098 25.957352633546492 a86.0,86.0 0 0,1 28.547481713284135,27.462654790039103" fill="none" id="id38" stroke="none" /><text fill="#e1ed5e" style="font-size:6.75px; font-family:Arial;" text-anchor="middle"><textPath startOffset="19.985693538727396" xlink:href="#id38">February</textPath></text><path d="M 111.2981086023043 82.29822771554956 l 4.780571291528717 -7.490154978237948 a29.885734830131454,29.885734830131454 0 0,0 0.43125538629509835,0.2805004993953321 l -4.9087937036080955 7.406755554683088" fill="#ff6809" stroke="none" /><path d="M 111.90073688211348 82.69761687909136 l 8.45000808263607 -12.285397002624858 a35.91085564643152,35.91085564643152 0 0,0 0.5062898146578568,0.3546883700183907 l -8.66022903687758 12.138123789842531" fill="#ffb911" stroke="none" /><path d="M 112.77801427241765 83.33499621200491 l 5.7984519055157735 -7.562303571574017 a30.52945327965989,30.52945327965989 0 0,0 0.41428096635639183,0.3233528654569622 l -5.927765427031595 7.461372316893828" fill="#ff710a" stroke="none" /><path d="M 113.34407831869373 83.78471172551755 l 9.53939378246703 -11.59195985306917 a36.0124470680878,36.0124470680878 0 0,0 0.4752656324085365,0.39802129923426294 l -9.737516951834683 11.426037396441087" fill="#ffba11" stroke="none" /><path d="M 113.6212207817346 84.01681056812373 l 2.741665826810659 -3.217080537126134 a25.2268591990102,25.2268591990102 0 0,0 0.32807674704355283,0.2845049221142166 l -2.7966363725009757 3.1694106215922435" fill="#ff2603" stroke="none" /><path d="M 113.89432698308785 84.25364557470405 l 5.094918581152678 -5.774039566256605 a28.70050181879542,28.70050181879542 0 0,0 0.3676247447493939,0.3300571256217973 l -5.193554313498061 5.685483431865513" fill="#ff5708" stroke="none" /><path d="M 114.42810811169701 84.74124197986012 l 6.606001779405009 -6.986320164237988 a30.614984604602363,30.614984604602363 0 0,0 0.3797960231450804,0.36536347335357583 l -6.72528104616251 6.87157360412211" fill="#ff720a" stroke="none" /><path d="M 114.68862486808459 84.99185889309783 l 6.552639577948064 -6.695176729728854 a30.368162940555322,30.368162940555322 0 0,0 0.37043981714551405,0.3688490308453016 l -6.6669151952608985 6.581391848233434" fill="#ff6e0a" stroke="none" /><path d="M 114.94478906791727 85.2469230424477 l 10.902700571404697 -10.762840468614192 a36.320170191696555,36.320170191696555 0 0,0 0.43538498979214874,0.44870250340188356 l -11.086349824899955 10.573573769662193" fill="#ffbe11" stroke="none" /><path d="M 115.19652480421416 85.50635884689758 l 8.020184998934289 -7.649228021120564 a32.08305268128897,32.08305268128897 0 0,0 0.3777132873217996,0.40291819961754416 l -8.15066560822655 7.510040404624965" fill="#ff860c" stroke="none" /><path d="M 115.4437574822437 85.77008943001954 l 7.1010878564992534 -6.542957260481292 a30.655865495034924,30.655865495034924 0 0,0 0.3542305102280794,0.3911501768206769 l -7.2126620073433685 6.4197542963910665" fill="#ff720a" stroke="none" /><path d="M 115.68641384162765 86.03803664274999 l 7.064706361227235 -6.288063820133853 a30.457791633168966,30.457791633168966 0 0,0 0.345200106006893,0.3946233950379661 l -7.171898330811977 6.1655248688929385" fill="#ff700a" stroke="none" /><path d="M 116.60985879189232 87.15038557335679 l 11.956517342059554 -9.249725699410039 a36.116736832573935,36.116736832573935 0 0,0 0.37617139551799345,0.49499746218633317 l -12.113964677801661 9.042543461342673" fill="#ffbb11" stroke="none" /><path d="M 116.82858285166822 87.43820079747576 l 7.6001441088084745 -5.673174327666907 a30.484044360227077,30.484044360227077 0 0,0 0.3102657143606503,0.4232020857043041 l -7.696672435682752 5.541509798291109" fill="#ff700a" stroke="none" /><path d="M 117.04232023915458 87.72973835380427 l 12.283004892287643 -8.843612942068987 a36.13544512239704,36.13544512239704 0 0,0 0.35909577975302837,0.5079155142307794 l -12.433413291844555 8.630870927506415" fill="#ffbb11" stroke="none" /><path d="M 117.2510076193507 88.02491185347247 l 8.93198246544801 -6.200291583373846 a31.873082657734525,31.873082657734525 0 0,0 0.30897999203966353,0.4533900121897231 l -9.037386923156408 6.045623547913716" fill="#ff830c" stroke="none" /><path d="M 117.45458315368197 88.32363383020206 l 7.959528966190691 -5.324582886343568 a30.576287604138226,30.576287604138226 0 0,0 0.28887801613927605,0.4399810373616161 l -8.050003617687892 5.186783785004278" fill="#ff710a" stroke="none" /><path d="M 117.65298651832404 88.62581576622439 l 7.062822233682785 -4.550722406824871 a29.401936224977064,29.401936224977064 0 0,0 0.27045917598104435,0.42780146549041115 l -7.140109005909785 4.428473293620254" fill="#ff6109" stroke="none" /><line stroke="#e1ed5e" stroke-width="0.3" x1="172.23445277983987" x2="176.4835382374775" y1="55.19839476539836" y2="52.563006222186495" /><path d="M 173.08426987136738 54.67131705675599 a86.0,86.0 0 0,1 12.851231095245387,41.99856678651699" fill="none" id="id39" stroke="none" /><text fill="#e1ed5e" style="font-size:6.75px; font-family:Arial;" text-anchor="middle"><textPath startOffset="22.20632615414155" xlink:href="#id39">March</textPath></text><path d="M 118.3937258080291 89.86733742301442 l 8.52901936733446 -4.698432294997623 a30.737527273340135,30.737527273340135 0 0,0 0.2513040229944784,0.46562818814222356 l -8.608631489547404 4.550923123522941" fill="#ff740a" stroke="none" /><path d="M 118.56541770881063 90.18545643968196 l 6.5297948998740285 -3.4519533839705834 a28.386081748770916,28.386081748770916 0 0,0 0.22464281029483402,0.4339384071192018 l -6.588247143328979 3.3390422545910368" fill="#ff5307" stroke="none" /><path d="M 118.73160827565052 90.50648371742162 l 4.874394048514951 -2.470430653166797 a26.46468159660781,26.46468159660781 0 0,0 0.20244219566053606,0.4081111132614163 l -4.916196257128894 2.3861599514064307" fill="#ff3805" stroke="none" /><path d="M 119.04729006885535 91.15688171328212 l 8.279154288246337 -3.8437772733173747 a30.12792525470377,30.12792525470377 0 0,0 0.2143353441787718,0.47225951967142243 l -8.344091949388456 3.7006957448038897" fill="#ff6b09" stroke="none" /><path d="M 119.34039704204932 91.81776055985345 l 8.5823792642385 -3.630901783115992 a30.318834776615898,30.318834776615898 0 0,0 0.19920674657397883,0.48239493776629133 l -8.643607697698677 3.482632274896398" fill="#ff6e0a" stroke="none" /><path d="M 119.47837535516314 92.15188598940014 l 13.772929903097268 -5.549309024423103 a35.84885277602868,35.84885277602868 0 0,0 0.2256880745872524,0.5743515328494939 l -13.866411527566221 5.311408486677824" fill="#ffb811" stroke="none" /><path d="M 119.61058180528143 92.48833698450437 l 6.843848978802932 -2.621476903039481 a28.328738636206875,28.328738636206875 0 0,0 0.17050583700729882,0.4568708730107842 l -6.887959404311856 2.5032828929993634" fill="#ff5207" stroke="none" /><path d="M 119.85752413597 93.16781622104841 l 14.006148457492607 -4.81895827705584 a35.811973315170654,35.811973315170654 0 0,0 0.19553798931860106,0.5846336995175642 l -14.087023740582978 4.577151474615961" fill="#ffb711" stroke="none" /><path d="M 120.08093135843002 93.85539295169968 l 13.239871876474465 -4.051296655452469 a34.845837349035264,34.845837349035264 0 0,0 0.17056888522312466,0.5750734866374202 l -13.307646658809293 3.8227937820685187" fill="#ffab0f" stroke="none" /><path d="M 120.18372546131832 94.20196356495316 l 8.997731247717725 -2.5847147845430225 a30.36161941779259,30.36161941779259 0 0,0 0.13997173460340567,0.503552802529182 l -9.040889752887495 2.4294506785948884" fill="#ff6e0a" stroke="none" /><path d="M 120.28053869075195 94.5502522615342 l 4.549509299671237 -1.2225354757622144 a25.710905205721318,25.710905205721318 0 0,0 0.11117354779116312,0.42839703018364567 l -4.569879179332703 1.1440420200297183" fill="#ff2d04" stroke="none" /><path d="M 120.37134235888165 94.90015583598534 l 55.94850294432833 -14.00637430756199 a78.67506829605881,78.67506829605881 0 0,0 0.31757453470217567,1.3165514714019004 l -56.181310279291324 13.041237604500683" fill="#46fffa" stroke="none" /><path d="M 120.6074358757038 95.95851677861258 l 1.7410552859931063 -0.3414517831471219 a22.774221753079047,22.774221753079047 0 0,0 0.07213385111535181,0.3853419170284748 l -1.7466748610183176 0.3114317886560843" fill="#ff0200" stroke="none" /><path d="M 120.67395015179393 96.31383870115 l 14.554391961194195 -2.5950452613910424 a35.78392996698585,35.78392996698585 0 0,0 0.1029011865808087,0.6073286281021214 l -14.596905009295225 2.3441308449730838" fill="#ffb711" stroke="none" /><path d="M 120.78858239683441 97.02765380044208 l 5.070960994275715 -0.7250447073166963 a26.122532111473163,26.122532111473163 0 0,0 0.05981313612665618,0.44567733877941185 l -5.082690129460207 0.6376490264726202" fill="#ff3304" stroke="none" /><path d="M 120.91429891909075 98.10471618934814 l 9.423020236083671 -0.8539276296080939 a30.461633197617125,30.461633197617125 0 0,0 0.04282835446956478,0.5226144047725363 l -9.43632307437273 0.6915993076277888" fill="#ff700a" stroke="none" /><path d="M 120.94382443527127 98.46500227214037 l 14.699955885892908 -1.0773771979525382 a35.739384134822785,35.739384134822785 0 0,0 0.039686729328106476,0.6139361369436285 l -14.71632320622543 0.8241819967558744" fill="#ffb610" stroke="none" /><line stroke="#e1ed5e" stroke-width="0.3" x1="184.98032266829074" x2="189.97916517819016" y1="98.17113171792111" y2="98.06355123074" /><path d="M 185.9800911702706 98.14961562048488 a86.0,86.0 0 0,1 -9.607161424134198,41.387399972396054" fill="none" id="id40" stroke="none" /><text fill="#e1ed5e" style="font-size:6.75px; font-family:Arial;" text-anchor="middle"><textPath startOffset="21.466115282336823" xlink:href="#id40">April</textPath></text><path d="M 120.99513854157772 99.54816195383933 l 6.2948655519980115 -0.13547230213443195 a27.296323138338504,27.296323138338504 0 0,0 0.00606627360948391,0.4698395763226004 l -6.296264832725211 0.02709646775136878" fill="#ff4406" stroke="none" /><path d="M 120.9904718944345 100.63252640178507 l 2.4444264895290693 0.07366029213759075 a23.44553607647673,23.44553607647673 0 0,0 -0.015627976153849713,0.40328862317987435 l -2.4427963805240163 -0.11572616233147126" fill="#ff0c01" stroke="none" /><path d="M 120.95626037817324 101.35467743843564 l 9.025514652122316 0.5834371614429333 a30.044352583630694,30.044352583630694 0 0,0 -0.037803580379120016,0.5157998191886444 l -9.014134513078858 -0.7387101171283479" fill="#ff6a09" stroke="none" /><path d="M 120.81339534386255 102.79330883721812 l 8.846443116549198 1.1872569240698614 a29.925756820465843,29.925756820465843 0 0,0 -0.07291332127454998,0.509955599172231 l -8.824695744258047 -1.3393579952225019" fill="#ff6809" stroke="none" /><path d="M 120.5718875245553 104.21870165774334 l 14.727551951024562 3.0201967493807564 a36.03404053723075,36.03404053723075 0 0,0 -0.1298357293281881,0.6065493028813636 l -14.673382182971931 -3.273259871678289" fill="#ffba11" stroke="none" /><path d="M 120.49622156327973 104.57218783832717 l 14.398093677382901 3.211849979450133 a35.75198569119382,35.75198569119382 0 0,0 -0.13915938463129315,0.5994949868521418 l -14.340673726821056 -3.4592136236508395" fill="#ffb610" stroke="none" /><path d="M 120.23288151984713 105.62410040840565 l 10.29902927153046 2.8628040289455483 a31.689511253747202,31.689511253747202 0 0,0 -0.1506117407907041,0.524299228096566 l -10.248224893853656 -3.0396607325466967" fill="#ff800b" stroke="none" /><path d="M 120.02730092923936 106.31721596034902 l 2.3617908028822145 0.7449801951690009 a23.47649980572845,23.47649980572845 0 0,0 -0.12488128320549716,0.3843450694228818 l -2.3486172686604703 -0.7855241645696779" fill="#ff0d01" stroke="none" /><path d="M 119.9155931802556 106.66101706037122 l 14.655063603215066 4.901567721247662 a36.45303385553322,36.45303385553322 0 0,0 -0.2041529057784542,0.5933639060491019 l -14.56851986649338 -5.153104330386064" fill="#ffc011" stroke="none" /><path d="M 119.67450827220406 107.3425965602758 l 29.303610948209336 10.936211974149524 a52.2778251633253,52.2778251633253 0 0,0 -0.3218962782870704,0.8403696072550416 l -29.111020390328758 -11.439005148237708" fill="#82ff25" stroke="none" /><path d="M 119.41010516605496 108.01547362559984 l 13.603304654165832 5.617534204150173 a35.71756053321497,35.71756053321497 0 0,0 -0.2395611121575027,0.5662517039318149 l -13.504592560816018 -5.850860433748152" fill="#ffb610" stroke="none" /><path d="M 119.26925614724726 108.34839909993367 l 10.052579359703563 4.355276811790678 a31.955491220865436,31.955491220865436 0 0,0 -0.2230172442956843,0.5028450110537285 l -9.976121030676605 -4.527670159337094" fill="#ff840c" stroke="none" /><path d="M 119.12269723197855 108.67885076344098 l 6.8974833756358 3.1304281051080873 a28.57461926689539,28.57461926689539 0 0,0 -0.20713249364567085,0.4461449639410805 l -6.842576265150298 -3.2486931363279985" fill="#ff5607" stroke="none" /><path d="M 118.97047184881838 109.00673069616215 l 2.712650153152739 1.2879020404477477 a24.002859057496547,24.002859057496547 0 0,0 -0.18041776829342085,0.3717140406622284 l -2.690079128244604 -1.3344050370752516" fill="#ff1402" stroke="none" /><path d="M 118.81262510543309 109.33194174019688 l 14.37686807090814 7.1315988328213065 a37.04849019193382,37.04849019193382 0 0,0 -0.2883101690274376,0.5688633154839571 l -14.251979232094433 -7.378016360007958" fill="#ffc712" stroke="none" /><path d="M 118.64920377521936 109.65438752849418 l 13.177660146832492 6.821858954931067 a35.838749494023766,35.838749494023766 0 0,0 -0.288326992160557,0.5454060103037808 l -13.058280646447043 -7.047679980320982" fill="#ffb811" stroke="none" /><line stroke="#e1ed5e" stroke-width="0.3" x1="174.80103733775053" x2="179.2010983576182" y1="140.37084112569926" y2="142.7455964860345" /><path d="M 175.68104954172406 140.8457921977663 a86.0,86.0 0 0,1 -30.038265399797805,32.042727171017184" fill="none" id="id41" stroke="none" /><text fill="#e1ed5e" style="font-size:6.75px; font-family:Arial;" text-anchor="middle"><textPath startOffset="22.206326154141568" xlink:href="#id41">May</textPath></text><path d="M 118.48025628344425 109.97397251340804 l 13.016604171985291 7.0251867851854986 a35.79139052073502,35.79139052073502 0 0,0 -0.29727918311189955,0.5396480679239049 l -12.893748579421883 -7.2482053715072094" fill="#ffb711" stroke="none" /><path d="M 118.30583269289576 110.29060199501023 l 3.9256003105795267 2.20677152825394 a25.503351904563345,25.503351904563345 0 0,0 -0.2184155681647175,0.3808259533982208 l -3.8870327462624275 -2.2740173275104745" fill="#ff2a04" stroke="none" /><path d="M 118.12598468904814 110.60418214915192 l 4.005060136009093 2.343066483235449 a25.640093451419972,25.640093451419972 0 0,0 -0.22614455505179173,0.3790312820773062 l -3.964134705259074 -2.4116598591988594" fill="#ff2c04" stroke="none" /><path d="M 117.94076556474637 110.91462005526583 l 12.600798651218026 7.66594542326573 a35.749469342353535,35.749469342353535 0 0,0 -0.32435895346783067,0.5229699111293185 l -12.466975058082232 -7.881711665760322" fill="#ffb610" stroke="none" /><path d="M 117.75023020441432 111.22182372390056 l 1.5060230903230236 0.9521186739046327 a22.781750689008994,22.781750689008994 0 0,0 -0.21240742803164256,0.32966104525544715 l -1.4894107989143308 -0.9779013190815328" fill="#ff0200" stroke="none" /><path d="M 117.55443506779139 111.5257021239791 l 12.310795906164675 8.08288993497114 a35.72714519328504,35.72714519328504 0 0,0 -0.3419545350662179,0.5111756329234094 l -12.169838265687735 -8.293602482100356" fill="#ffb610" stroke="none" /><path d="M 117.35343817320211 111.8261652097733 l 25.731435249349516 17.53567225734613 a52.13850608986445,52.13850608986445 0 0,0 -0.5117992546326712,0.737284998090502 l -25.425775087554708 -17.97599851762365" fill="#84ff25" stroke="none" /><path d="M 116.93607887273984 112.41649034213515 l 7.9818663201318385 5.8518129739967195 a30.897166515477615,30.897166515477615 0 0,0 -0.3181506738103665,0.4262148190090439 l -7.87995437962638 -5.988340672515078" fill="#ff760a" stroke="none" /><path d="M 116.71984013943494 112.70617746262583 l 7.214197203593156 5.482401096828402 a30.060980249334868,30.060980249334868 0 0,0 -0.31663256661405537,0.4092902748481771 l -7.118757819761032 -5.605769365789832" fill="#ff6a09" stroke="none" /><path d="M 116.498646956653 112.99209946851258 l 11.74395610077679 9.247949011577008 a35.9480790009185,35.9480790009185 0 0,0 -0.3870103218164149,0.48285488202329946 l -11.583027866905521 -9.448731727178558" fill="#ffb911" stroke="none" /><path d="M 116.27256486870786 113.27417163493432 l 2.577534276283008 2.102596158279978 a24.326348380766436,24.326348380766436 0 0,0 -0.26747862614772355,0.32219523607804007 l -2.5409596502417413 -2.146652651471789" fill="#ff1902" stroke="none" /><path d="M 116.0416608686014 113.55231037782055 l 22.56316134654478 19.06180215240258 a50.53724007498927,50.53724007498927 0 0,0 -0.5671180556805201,0.6596864214155399 l -22.23170078129348 -19.44736567297965" fill="#96ff23" stroke="none" /><path d="M 115.80600337817218 113.82643327865902 l 2.2098194097044597 1.9330579587474228 a23.93598618787339,23.93598618787339 0 0,0 -0.27394297405690893,0.3077778354024602 l -2.176217585999217 -1.9708099638907495" fill="#ff1302" stroke="none" /><path d="M 115.56566222782051 114.09645910891815 l 11.206471292730111 10.148721077275633 a36.11891326581123,36.11891326581123 0 0,0 -0.42130750208339734,0.4572460842693018 l -11.030117382650989 -10.34011841634627" fill="#ffbb11" stroke="none" /><path d="M 115.32070863581623 114.36230785411682 l 10.845078502765903 10.166654810904562 a35.86528162448475,35.86528162448475 0 0,0 -0.4261025142027312,0.4467667826061614 l -10.668469437184207 -10.351828710093232" fill="#ffb811" stroke="none" /><path d="M 114.81725581225074 114.88116024355365 l 10.618341896799265 10.664137090517514 a36.04902005190617,36.04902005190617 0 0,0 -0.44348885939123367,0.43404719094602917 l -10.433203085032238 -10.845334384386115" fill="#ffba11" stroke="none" /><path d="M 114.55890576462653 115.13401014063108 l 10.385650545473347 10.795903429372617 a35.98042950348989,35.98042950348989 0 0,0 -0.4500366425616447,0.42553773541295387 l -10.198278068520894 -10.973075801531492" fill="#ffb911" stroke="none" /><path d="M 114.29624159901734 115.38237550388516 l 1.7913064787865505 1.9273981002902882 a23.6312815010837,23.6312815010837 0 0,0 -0.30034284187212396,0.27435606499013704 l -1.7578640874475624 -1.9579469318670082" fill="#ff0f01" stroke="none" /><path d="M 114.0293411484842 115.62618273729858 l 9.842879630134581 10.963211610142844 a35.73344115344712,35.73344115344712 0 0,0 -0.4612296419811564,0.406981532797442 l -9.652707635246838 -11.131016284712576" fill="#ffb610" stroke="none" /><path d="M 113.20401910651253 116.32954008644616 l 4.735751186763826 5.856749995579196 a28.53185633251537,28.53185633251537 0 0,0 -0.38455848351349875,0.30551651712670436 l -4.634235210532976 -5.937400426711027" fill="#ff5507" stroke="none" /><path d="M 112.92097659922987 116.55440617244103 l 7.840012931918378 10.04465548524426 a33.742091923616584,33.742091923616584 0 0,0 -0.460935086353205,0.3534253689352399 l -7.665949117071679 -10.178120196006871" fill="#ff9c0e" stroke="none" /><path d="M 112.34349029814194 116.9893568818739 l 8.953453174977314 12.323371075823998 a36.23252436167318,36.23252436167318 0 0,0 -0.5077257982233311,0.36224887607630474 l -8.740000048905099 -12.475664213744523" fill="#ffbd11" stroke="none" /><path d="M 112.04921762599082 117.19931262002967 l 6.298345910831626 8.990394536140748 a31.977083179422433,31.977083179422433 0 0,0 -0.4535311464205892,0.3119428580258669 l -6.142657879788154 -9.09747818353171" fill="#ff840c" stroke="none" /><path d="M 111.45004920935366 117.60387380957326 l 5.997877300972141 9.221434179109309 a32.000426375243926,32.000426375243926 0 0,0 -0.46433867899020026,0.29636291435576034 l -5.838256819935011 -9.323311522288877" fill="#ff850c" stroke="none" /><path d="M 111.1453310114006 117.79835938074945 l 7.890185871843317 12.600107038932313 a35.86666507609516,35.86666507609516 0 0,0 -0.5260799463094644,0.3231612708952872 l -7.672126725601544 -12.734056776655978" fill="#ffb811" stroke="none" /><line stroke="#e1ed5e" stroke-width="0.3" x1="143.8653032363475" x2="146.44561519142675" y1="172.8068346515853" y2="177.08958963109032" /><path d="M 144.38136562736335 173.6633856474863 a86.0,86.0 0 0,1 -40.68145358897372,12.25698825130547" fill="none" id="id42" stroke="none" /><text fill="#e1ed5e" style="font-size:6.75px; font-family:Arial;" text-anchor="middle"><textPath startOffset="21.466115282336833" xlink:href="#id42">June</textPath></text><path d="M 110.5260780823613 118.17145234162733 l 7.678823003447036 13.256159146372944 a36.319597841726605,36.319597841726605 0 0,0 -0.543671922212998,0.3087111063981164 l -7.4495023143128405 -13.38637341856569" fill="#ffbe11" stroke="none" /><path d="M 110.21172684928248 118.3499491758327 l 4.745916566098828 8.528168552292895 a30.759783958095014,30.759783958095014 0 0,0 -0.46487874953085745,0.2534889601808662 l -4.59841500469932 -8.60859816423353" fill="#ff740a" stroke="none" /><path d="M 109.89434966115114 118.52300852407294 l 14.60704059997347 27.34554031450202 a52.00232588341282,52.00232588341282 0 0,0 -0.7931818128685246,0.4149552364052229 l -14.13416788457845 -27.59292496985196" fill="#85ff25" stroke="none" /><path d="M 109.57404056367764 118.69057910512821 l 1.1626816486194094 2.2698037660344363 a23.55026229089097,23.55026229089097 0 0,0 -0.3623892967784504,0.18170951648310996 l -1.1234384441581986 -2.2894811234268486" fill="#ff0e01" stroke="none" /><path d="M 109.2508944713604 118.85261126421891 l 4.405004556613502 8.977060410757769 a30.999583929453273,30.999583929453273 0 0,0 -0.4810653190415423,0.2309405874312347 l -4.249826569571727 -9.051555274688564" fill="#ff770b" stroke="none" /><path d="M 108.59647513512805 119.15986991738527 l 3.8210118604319394 8.516291741425686 a30.334203590164343,30.334203590164343 0 0,0 -0.47823941235361683,0.20964610421502203 l -3.6738517734205685 -8.580802398935163" fill="#ff6e0a" stroke="none" /><path d="M 107.59598834532513 119.57807347666477 l 22.046318612601038 56.82268403598909 a81.94963154459728,81.94963154459728 0 0,0 -1.3195052772834048,0.4989239902901716 l -21.06494311455736 -57.19375627638589" fill="#4ae5ff" stroke="none" /><path d="M 105.53697534728816 120.25689768951611 l 4.0079416072568925 14.662962717275109 a36.200857593418235,36.200857593418235 0 0,0 -0.6025021765390308,0.1591263008810259 l -3.754948987906365 -14.729780367459718" fill="#ffbc11" stroke="none" /><path d="M 104.48393922423573 120.51570834832081 l 4.660042919916181 21.32144898818362 a42.824760868590914,42.824760868590914 0 0,0 -0.7215126694072624,0.15119999501057474 l -4.292338789079541 -21.398504963920736" fill="#efff19" stroke="none" /><path d="M 103.7750983002368 120.6578951692458 l 5.1441163921931645 28.149364259378164 a49.61553147616845,49.61553147616845 0 0,0 -0.841458217438013,0.14629829697333863 l -4.658809203283101 -28.23374113487251" fill="#a0ff22" stroke="none" /><path d="M 103.41894727170886 120.7198165907248 l 2.4136803925870565 14.627606414659883 a35.82540800314643,35.82540800314643 0 0,0 -0.6093119481103006,0.09516199516171674 l -2.1615325808682386 -14.666986717168706" fill="#ffb711" stroke="none" /><path d="M 102.34483914955558 120.86867818915974 l 1.6458913241609054 14.648158866143865 a35.74033637400237,35.74033637400237 0 0,0 -0.6119552355448744,0.06343166229822371 l -1.3935034920104283 -14.674319896897847" fill="#ffb610" stroke="none" /><path d="M 101.98527174616119 120.90594882070398 l 0.8769081229050402 9.234300731555308 a30.275843781393675,30.275843781393675 0 0,0 -0.5192389130018258,0.04480211825719938 l -0.7178248921616728 -9.24802710209117" fill="#ff6d0a" stroke="none" /><path d="M 101.62511606390274 120.93702456842531 l 1.6873111696122016 21.738309156768974 a42.80369473227792,42.80369473227792 0 0,0 -0.735076490319531,0.05069517851482457 l -1.3128719185137403 -21.764132679800085" fill="#efff19" stroke="none" /><path d="M 101.26447882468166 120.96189622390904 l 0.5331196141625615 8.837789774628638 a29.853854788934328,29.853854788934328 0 0,0 -0.5132189420312702,0.026527557107365665 l -0.38091260371781166 -8.845657138498204" fill="#ff6709" stroke="none" /><path d="M 100.90346689309514 120.98055641714683 l 0.40347539302681185 9.369616430912282 a30.378299656931397,30.378299656931397 0 0,0 -0.5226219722275336,0.018000157433510636 l -0.24213306912462595 -9.375173386771886" fill="#ff6f0a" stroke="none" /><line stroke="#e1ed5e" stroke-width="0.3" x1="102.19456741930631" x2="102.32365962044197" y1="184.97166512339345" y2="189.96999836594603" /><path d="M 102.22038585953345 185.97133177190398 a86.0,86.0 0 0,1 -42.740103519485714,-10.115201625700543" fill="none" id="id43" stroke="none" /><text fill="#e1ed5e" style="font-size:6.75px; font-family:Arial;" text-anchor="middle"><textPath startOffset="22.20632615414155" xlink:href="#id43">July</textPath></text><path d="M 100.54218724476979 120.99299961872073 l 0.3740729439572556 14.483765978675226 a35.488595773656975,35.488595773656975 0 0,0 -0.6108099553192539,0.010515647311061856 l -0.1247032987453338 -14.488059103265448" fill="#ffb310" stroke="none" /><path d="M 100.18074693466247 120.99922214144158 l 0.12622411437657094 14.664747827398802 a35.66529104273925,35.66529104273925 0 0,0 -0.6139420980780427,0.0 l 0.12622411437656084 -14.664747827398802" fill="#ffb510" stroke="none" /><path d="M 99.81925306533755 120.99922214144158 l -0.01662093058551239 1.9310236946174264 a22.931095224091102,22.931095224091102 0 0,0 -0.3946772461379166,-0.006794726716460014 l 0.04985786661609695 -1.9304514906218067" fill="#ff0500" stroke="none" /><path d="M 99.45781275523022 120.99299961872073 l -0.37721153287180464 14.605289302069965 a35.61015962054114,35.61015962054114 0 0,0 -0.6126298068818538,-0.021100209249398528 l 0.6285616914283015 -14.596632294394471" fill="#ffb510" stroke="none" /><path d="M 99.09653310690486 120.98055641714683 l -1.0602975370995833 24.622520721118583 a45.6453394687331,45.6453394687331 0 0,0 -0.7846910556918737,-0.04055956451864059 l 1.4839766612049459 -24.60062134983774" fill="#cdff1d" stroke="none" /><path d="M 98.01472825383883 120.90594882070398 l -1.1914661627878966 12.54676125271471 a33.603206320206446,33.603206320206446 0 0,0 -0.575362744870626,-0.05963870102216508 l 1.407261504264116 -12.524393183236784" fill="#ff9a0e" stroke="none" /><path d="M 97.65516085044442 120.86867818915974 l -0.8295844977512339 7.383163965667929 a28.42962452502457,28.42962452502457 0 0,0 -0.48583869595128515,-0.0588283001081812 l 0.9565506167539084 -7.367790136834399" fill="#ff5407" stroke="none" /><path d="M 97.2962882734958 120.8252237178851 l -0.8153992766468475 6.2805779880712205 a27.333287917393378,27.333287917393378 0 0,0 -0.4660604243846198,-0.0645917280674466 l 0.9233882922182984 -6.265611694511169" fill="#ff4406" stroke="none" /><path d="M 96.93821686468263 120.77559828337769 l -1.0747402459658835 7.292603892029514 a28.371372879073668,28.371372879073668 0 0,0 -0.4825350901235755,-0.07536205724195935 l 1.200111199697976 -7.273023527440449" fill="#ff5307" stroke="none" /><path d="M 96.22490169976321 120.6578951692458 l -2.5450110405517257 13.926676101915799 a35.15730865822324,35.15730865822324 0 0,0 -0.5943801503889617,-0.1139143704587223 l 2.7843588055123822 -13.880804533108607" fill="#ffaf10" stroke="none" /><path d="M 95.51606077576429 120.51570834832081 l -1.572895955613976 7.196590558858422 a28.366472518039892,28.366472518039892 0 0,0 -0.4761242854957223,-0.1083643372512353 l 1.6965403905025611 -7.1684494880295" fill="#ff5307" stroke="none" /><path d="M 95.16358092515715 120.4354850818985 l -1.646114853078654 6.955384759389034 a28.147522036389073,28.147522036389073 0 0,0 -0.47052834064249915,-0.1156444182322744 l 1.7655964784643636 -6.92601908284273" fill="#ff5007" stroke="none" /><path d="M 94.81253420990036 120.34920634021253 l -3.657612844272415 14.347953604390204 a35.806819521839266,35.806819521839266 0 0,0 -0.595944077876522,-0.15739424741862643 l 3.904047364960426 -14.282868007667997" fill="#ffb711" stroke="none" /><path d="M 94.46302465271185 120.25689768951611 l -3.9306047431600253 14.380027568501973 a35.907543275732216,35.907543275732216 0 0,0 -0.5948150064553329,-0.1681006622707856 l 4.177550917719972 -14.310238112892666" fill="#ffb911" stroke="none" /><path d="M 93.76903079525671 120.05430185196036 l -3.764415820765524 12.115728498298225 a33.68706835782426,33.68706835782426 0 0,0 -0.5522732658124418,-0.17682045949823053 l 3.9724104316689064 -12.04913519214029" fill="#ff9b0e" stroke="none" /><path d="M 93.08242187328487 119.8279376855182 l -2.4800512143282685 7.108600731907525 a28.52880192270771,28.52880192270771 0 0,0 -0.46227586918888,-0.16575567970350227 l 2.602046644146875 -7.064857511164065" fill="#ff5507" stroke="none" /><path d="M 92.7421414339146 119.70592522655815 l -4.016560293197764 10.905425627273967 a32.62157754785884,32.62157754785884 0 0,0 -0.5252536578432772,-0.19860598922742467 l 4.203684171801323 -10.83467138793991" fill="#ff8d0d" stroke="none" /><path d="M 92.40401165467489 119.57807347666478 l -5.324377040608931 13.723170729015514 a35.71986432438396,35.71986432438396 0 0,0 -0.5713118853907099,-0.22733678973052768 l 5.559810002041498 -13.62948709487892" fill="#ffb610" stroke="none" /><path d="M 92.06813273071674 119.44442032107085 l -2.8272108057276473 6.930710433813056 a28.485176554857496,28.485176554857496 0 0,0 -0.45241044582374884,-0.18910760304590124 l 2.946092711048858 -6.881017787747181" fill="#ff5407" stroke="none" /><path d="M 91.40352486487194 119.15986991738527 l -6.396047049187163 14.255543990016616 a36.6246584700823,36.6246584700823 0 0,0 -0.5729701167385665,-0.26302247818509855 l 6.640485161693149 -14.143334441497442" fill="#ffc212" stroke="none" /><path d="M 91.07499286063937 119.00905698771935 l -6.297178249657327 13.412137193891164 a35.81687814675264,35.81687814675264 0 0,0 -0.5558222314193169,-0.26682844834265385 l 6.527113149076887 -13.301754469048946" fill="#ffb711" stroke="none" /><path d="M 90.7491055286396 118.85261126421891 l -6.5983355381615345 13.446900218887379 a35.978556585027775,35.978556585027775 0 0,0 -0.5536347603650672,-0.27760396211613797 l 6.828824206209362 -13.33132841586194" fill="#ffb911" stroke="none" /><path d="M 90.42595943632237 118.69057910512821 l -16.82598487531877 32.847928650621235 a57.906641457341514,57.906641457341514 0 0,0 -0.8832392410915654,-0.46206902647460335 l 17.38891501893683 -32.55343020520191" fill="#48ff2c" stroke="none" /><path d="M 90.10565033884886 118.52300852407294 l -10.600822585793244 19.845581957732044 a43.499434720377394,43.499434720377394 0 0,0 -0.657415632231286,-0.3584754200727202 l 10.94086102989317 -19.660165885899556" fill="#e7ff1a" stroke="none" /><line stroke="#e1ed5e" stroke-width="0.3" x1="58.666819895761336" x2="56.23545636021788" y1="174.27360380694188" y2="178.64263932499728" /><path d="M 58.180547188652646 175.14741091055294 a86.0,86.0 0 0,1 -31.652253787137756,-30.449443065178592" fill="none" id="id44" stroke="none" /><text fill="#e1ed5e" style="font-size:6.75px; font-family:Arial;" text-anchor="middle"><textPath startOffset="22.20632615414155" xlink:href="#id44">August</textPath></text><path d="M 89.4739219176387 118.17145234162733 l -15.638484619161288 26.997137559577492 a52.19948136739606,52.19948136739606 0 0,0 -0.7736264627232846,-0.4570721504458385 l 16.100878952912954 -26.723946836837904" fill="#83ff25" stroke="none" /><path d="M 89.1626897886671 117.98757091392108 l -3.6995201147470143 6.140396381927024 a28.168745832194098,28.168745832194098 0 0,0 -0.4131695061017081,-0.2538024564967228 l 3.804668820781031 -6.0758054586019234" fill="#ff5007" stroke="none" /><path d="M 88.8546689885994 117.79835938074946 l -11.95507864383834 19.091473004301392 a43.525724113873196,43.525724113873196 0 0,0 -0.6315752484086766,-0.4031012054830546 l 12.28193569429394 -18.882857369994532" fill="#e6ff1a" stroke="none" /><path d="M 88.54995079064634 117.60387380957326 l -8.04539431797408 12.369388439498952 a35.755681620951975,35.755681620951975 0 0,0 -0.5130519779138746,-0.34002287509204215 l 8.257120994627916 -12.22906754331559" fill="#ffb710" stroke="none" /><path d="M 87.65650970185807 116.9893568818739 l -17.7686237827059 24.45641252617052 a51.22978836812412,51.22978836812412 0 0,0 -0.7089593553358611,-0.5244711822530376 l 18.186968108460327 -24.146931395177717" fill="#8eff24" stroke="none" /><path d="M 87.36589467227662 116.77436683061367 l -4.38259585721038 5.818795132082527 a28.284608653646735,28.284608653646735 0 0,0 -0.38638293564456033,-0.29626195883864254 l 4.482107521348427 -5.7424938314165175" fill="#ff5207" stroke="none" /><path d="M 87.07902340077011 116.55440617244103 l -14.97554117073699 19.186722403573523 a45.33921013402507,45.33921013402507 0 0,0 -0.6110916054547154,-0.48548812975891115 l 15.303590268909064 -18.92610035980948" fill="#d1ff1d" stroke="none" /><path d="M 86.79598089348748 116.32954008644616 l -18.699991725898617 23.126463392775715 a50.74093138430725,50.74093138430725 0 0,0 -0.6744433168964024,-0.555020933938488 l 19.095305171339707 -22.801147339980048" fill="#93ff23" stroke="none" /><path d="M 86.51685102203217 116.09983520530335 l -15.97904841821857 19.08011597967643 a45.88736253904132,45.88736253904132 0 0,0 -0.601199886824522,-0.512355586304867 l 16.305113781620147 -18.80223600314861" fill="#caff1d" stroke="none" /><path d="M 86.24171649860922 115.8653595955263 l -9.86458451836392 11.375342035108128 a36.05684011124655,36.05684011124655 0 0,0 -0.4654039162941838,-0.4106648445441365 l 10.058930787564691 -11.203854048791703" fill="#ffba11" stroke="none" /><path d="M 85.97065885151581 115.62618273729859 l -14.569229262857585 16.227521762674392 a42.80813847791179,42.80813847791179 0 0,0 -0.5440719736304682,-0.4969968480894437 l 14.84640078595491 -15.97433214799837" fill="#efff19" stroke="none" /><path d="M 85.44109423537348 115.13401014063109 l -21.68936141749758 22.546132308497814 a52.28508399814713,52.28508399814713 0 0,0 -0.6432311400455671,-0.6295370527436334 l 22.07424250991894 -22.169445152831614" fill="#82ff25" stroke="none" /><path d="M 85.18274418774928 114.88116024355367 l -10.441702242592417 10.48673561800973 a35.798674590820404,35.798674590820404 0 0,0 -0.4329242391869102,-0.43854996863720896 l 10.62066710683486 -10.305445155391856" fill="#ffb711" stroke="none" /><path d="M 84.9287848128048 114.62390073753433 l -10.7420295261614 10.423205531808366 a35.96777912381272,35.96777912381272 0 0,0 -0.42732025013523683,-0.44804357386294885 l 10.919856327675594 -10.236754841362917" fill="#ffb911" stroke="none" /><path d="M 84.4343377721795 114.09645910891817 l -10.923255304806986 9.892237123408608 a35.73681993374885,35.73681993374885 0 0,0 -0.40900135298988377,-0.4595173558776993 l 11.091915507445202 -9.702745597790042" fill="#ffb610" stroke="none" /><path d="M 83.72743513129214 113.27417163493432 l -7.090060657198763 5.783641535621357 a30.14983439933873,30.14983439933873 0 0,0 -0.3245875005810799,-0.40497281458467554 l 7.188566069834704 -5.660740887458422" fill="#ff6b09" stroke="none" /><path d="M 83.28015986056508 112.70617746262583 l -11.882036991710942 9.029707782796214 a35.923753740767694,35.923753740767694 0 0,0 -0.3699098573553003,-0.49555470373237154 l 12.035708115761327 -8.823840199554537" fill="#ffb911" stroke="none" /><path d="M 83.06392112726016 112.41649034213515 l -11.410131890565456 8.365206225493615 a35.14806647408528,35.14806647408528 0 0,0 -0.35352294753582114,-0.49101245413647826 l 11.552434630476885 -8.167560165905996" fill="#ffaf10" stroke="none" /><path d="M 82.85270091963577 112.12312394758628 l -9.178932555544495 6.489496483141599 a32.24127961861735,32.24127961861735 0 0,0 -0.316485149167322,-0.4559204619533466 l 9.289278611873952 -6.3305347590012415" fill="#ff880c" stroke="none" /><path d="M 82.6465618267979 111.8261652097733 l -12.23877147721967 8.34057965975705 a35.81056367368774,35.81056367368774 0 0,0 -0.3427529567572639,-0.5123691650202414 l 12.380527539387664 -8.128673580530986" fill="#ffb711" stroke="none" /><path d="M 82.05923443525364 110.91462005526583 l -37.82405645643848 23.01101386566091 a65.2737620487065,65.2737620487065 0 0,0 -0.5757118593592098,-0.9649261911703177 l 38.21454919149592 -22.356525580604483" fill="#36ff6a" stroke="none" /><line stroke="#e1ed5e" stroke-width="0.3" x1="26.63291911575756" x2="22.317208475507996" y1="142.92168965132927" y2="145.44649492493687" /><path d="M 25.769776987707644 143.4266507060508 a86.0,86.0 0 0,1 -11.730757126820373,-40.83630448921669" fill="none" id="id45" stroke="none" /><text fill="#e1ed5e" style="font-size:6.75px; font-family:Arial;" text-anchor="middle"><textPath startOffset="21.46611528233685" xlink:href="#id45">September</textPath></text><path d="M 81.87401531095188 110.60418214915194 l -3.9956689684901816 2.3375724009733228 a25.629213241529015,25.629213241529015 0 0,0 -0.2194934686511455,-0.382705363752809 l 4.0353144332937045 -2.2684471913622066" fill="#ff2c04" stroke="none" /><path d="M 81.69416730710424 110.29060199501025 l -14.150235742688638 7.954538130357107 a37.232801620206175,37.232801620206175 0 0,0 -0.30925137832265487,-0.5613810797905997 l 14.285063530462809 -7.7097865321686845" fill="#ffca12" stroke="none" /><path d="M 81.51974371655577 109.97397251340807 l -3.9444662436144244 2.1288664664851673 a25.482285843087066,25.482285843087066 0 0,0 -0.20500801323266923,-0.3877979017492381 l 3.9805267650719798 -2.060653549649803" fill="#ff2a04" stroke="none" /><path d="M 81.35079622478065 109.6543875284942 l -5.382846450455466 2.786611496418444 a27.06137274395433,27.06137274395433 0 0,0 -0.21059073958222296,-0.4155155079443728 l 5.430015859823955 -2.693541776771386" fill="#ff4006" stroke="none" /><path d="M 81.18737489456691 109.33194174019688 l -4.0235534168311835 1.9958706381490035 a25.491378597081212,25.491378597081212 0 0,0 -0.19160624266431064,-0.3947656117829036 l 4.057312916110213 -1.926316070400815" fill="#ff2a04" stroke="none" /><path d="M 81.02952815118164 109.00673069616217 l -13.275876948344743 6.303071920510834 a35.6961772030254,35.6961772030254 0 0,0 -0.2587554405754279,-0.5573361990348111 l 13.382407005759998 -6.073615654197195" fill="#ffb610" stroke="none" /><path d="M 80.87730276802145 108.67885076344099 l -4.028748450985183 1.8284505655966403 a25.424256497101652,25.424256497101652 0 0,0 -0.17743578351090133,-0.40007085013826793 l 4.059625319227364 -1.7588313789656764" fill="#ff2904" stroke="none" /><path d="M 80.73074385275274 108.34839909993369 l -4.101457495028268 1.776955155832612 a25.46984599392011,25.46984599392011 0 0,0 -0.170828705591748,-0.4037885980350351 l 4.131437181812323 -1.7060920321314181" fill="#ff2a04" stroke="none" /><path d="M 80.58989483394504 108.01547362559985 l -3.0222345052784507 1.2480427468163384 a24.269787776412493,24.269787776412493 0 0,0 -0.15613261338673015,-0.3875083420834316 l 3.0432697329225684 -1.1958350368901014" fill="#ff1802" stroke="none" /><path d="M 80.45479744820244 107.68017299344265 l -58.6356076553927 23.04051898032796 a84.0,84.0 0 0,0 -0.5172228816259636,-1.3503057326673686 l 59.02352481661217 -22.027789680827432" fill="#4dd2ff" stroke="none" /><path d="M 80.32549172779594 107.34259656027581 l -3.599663323534612 1.343407172969985 a24.842176320158597,24.842176320158597 0 0,0 -0.14606695616048085,-0.4019135300922073 l 3.6222545407003173 -1.2812458458716605" fill="#ff2103" stroke="none" /><path d="M 80.20201598880116 107.00284435728193 l -4.8533203865544 1.716692329069408 a26.14798517162106,26.14798517162106 0 0,0 -0.14644013374014936,-0.42562357575601784 l 4.882151351237778 -1.6328960502240935" fill="#ff3304" stroke="none" /><path d="M 80.0844068197444 106.66101706037122 l -14.782517409942118 4.944196227129166 a36.58742753977064,36.58742753977064 0 0,0 -0.19462377007494597,-0.5989903731026455 l 14.865433431033313 -4.689006954048717" fill="#ffc112" stroke="none" /><path d="M 79.86692584326677 105.97154293290107 l -15.264802177427956 4.527595778723517 a36.92210127626138,36.92210127626138 0 0,0 -0.1754808366194219,-0.6108718131952016 l 15.340475650933483 -4.264166490023719" fill="#ffc612" stroke="none" /><path d="M 79.76711848015287 105.62410040840567 l -6.489510007964507 1.803878298320686 a27.735556180347977,27.735556180347977 0 0,0 -0.12390123233377537,-0.46108257790374746 l 6.519599316640055 -1.6919047872413997" fill="#ff4a06" stroke="none" /><path d="M 79.67330655649465 105.27499134158121 l -57.80085564494201 14.999931686403915 a80.71546586843486,80.71546586843486 0 0,0 -0.33742403165008433,-1.3478412766728631 l 58.05049099088716 -14.00276257033366" fill="#49f1ff" stroke="none" /><path d="M 79.29508885075956 103.50808413554451 l -14.523897349924878 2.460819730753472 a35.73089365851307,35.73089365851307 0 0,0 -0.09752533998139287,-0.6072903851593501 l 14.564104444267564 -2.2104501159009082" fill="#ffb610" stroke="none" /><path d="M 79.23777060512086 103.15116336523772 l -15.028941722966605 2.2810002565228253 a36.20105428852169,36.20105428852169 0 0,0 -0.08820291889865858,-0.616891009344325 l 15.065978692881863 -2.0219637751980994" fill="#ffbc11" stroke="none" /><path d="M 79.18660465613746 102.79330883721812 l -14.569544257295453 1.9553386679960774 a35.70016901847906,35.70016901847906 0 0,0 -0.07649779645066615,-0.6097627045651023 l 14.601043562992967 -1.7042582091435665" fill="#ffb610" stroke="none" /><path d="M 79.10278846688536 102.07522291339032 l -8.18804885216928 0.813124113093014 a29.228323938008515,29.228323938008515 0 0,0 -0.04540885088675957,-0.5010828856768824 l 8.200832299333115 -0.6720598388675655" fill="#ff5f08" stroke="none" /><path d="M 79.07016306316243 101.71520430193888 l -14.757970623159311 1.2094186293529323 a35.80744374748927,35.80744374748927 0 0,0 -0.04505504234485214,-0.614740256397666 l 14.7766022241685 -0.9552052364585057" fill="#ffb711" stroke="none" /><path d="M 79.0095281055655 100.63252640178507 l -3.519371406622713 0.10605265777595883 a24.520968938229203,24.520968938229203 0 0,0 -0.009082026633544097,-0.42200609052237836 l 3.5206754959412647 -0.045456751463451656" fill="#ff1c02" stroke="none" /><line stroke="#e1ed5e" stroke-width="0.3" x1="15.007084014347285" x2="10.007500721073583" y1="101.09737516637583" y2="101.16192664675087" /><path d="M 14.007167355692545 101.11028546245083 a86.0,86.0 0 0,1 10.666146001902534,-42.60595125391555" fill="none" id="id46" stroke="none" /><text fill="#e1ed5e" style="font-size:6.75px; font-family:Arial;" text-anchor="middle"><textPath startOffset="22.20632615414155" xlink:href="#id46">October</textPath></text><path d="M 79.00175016825051 100.2711162175752 l -15.080735111065966 0.19471298295459583 a36.08199206457386,36.08199206457386 0 0,0 -0.002672992993094682,-0.6211094351844595 l 15.081852401348565 0.06490593043353902" fill="#ffbb11" stroke="none" /><path d="M 79.05617556472873 98.46500227214037 l -31.219785412633943 -2.2881350930326265 a52.3035231789471,52.3035231789471 0 0,0 0.07353754856749106,-0.8973443563035723 l 31.17577338024695 2.825193366543977" fill="#82ff25" stroke="none" /><path d="M 79.3925641242962 95.95851677861259 l -14.732767968673636 -2.88935677922884 a36.01342181571049,36.01342181571049 0 0,0 0.12453904994129476,-0.6072966366570992 l 14.680849622817348 3.1425290720493417" fill="#ffba11" stroke="none" /><path d="M 79.46518482838121 95.60439243477599 l -14.352974356911282 -3.0723452896669987 a35.67811903716181,35.67811903716181 0 0,0 0.1337175347349568,-0.599429488843137 l 14.297962435174288 3.3189529480600948" fill="#ffb610" stroke="none" /><path d="M 79.54389044137918 95.25157060432595 l -14.474050348476133 -3.359827828073289 a35.85888880517375,35.85888880517375 0 0,0 0.14474559951301888,-0.6000639572581706 l 14.4140719487023 3.6084770169908564" fill="#ffb811" stroke="none" /><path d="M 79.62865764111835 94.90015583598534 l -14.348507726199133 -3.5920634045930875 a35.79130127714979,35.79130127714979 0 0,0 0.15476102110000736,-0.5963573452920108 l 14.284550373228816 3.838517175433962" fill="#ffb711" stroke="none" /><path d="M 79.71946130924805 94.55025226153421 l -2.2992542951294688 -0.617851235911869 a23.380821384184276,23.380821384184276 0 0,0 0.10778918214352243,-0.38777503832819316 l 2.2882783424195856 0.6573375776590047" fill="#ff0b01" stroke="none" /><path d="M 79.81627453868168 94.20196356495316 l -2.6463693449681185 -0.7602038539476853 a23.753394379587476,23.753394379587476 0 0,0 0.11627185075245318,-0.3920108789040448 l 2.6328915971039586 0.8056441195982693" fill="#ff1101" stroke="none" /><path d="M 79.91906864156998 93.8553929516997 l -14.175806185779154 -4.337685192470462 a35.824607713047655,35.824607713047655 0 0,0 0.18551093499758287,-0.5881203593767699 l 14.099039767013368 4.581055718273647" fill="#ffb711" stroke="none" /><path d="M 80.2630227832202 92.82701384747504 l -15.167000039121312 -5.512124782890781 a37.13757756941433,37.13757756941433 0 0,0 0.22352473328280237,-0.598935155692321 l 15.069870717336883 5.772383075612443" fill="#ffc812" stroke="none" /><path d="M 80.65960295795067 91.81776055985345 l -13.42981868233947 -5.681682328327797 a35.58223384535259,35.58223384535259 0 0,0 0.24349988419654495,-0.5620313049534815 l 13.330028088300246 5.912012777867878" fill="#ffb410" stroke="none" /><path d="M 81.10775173730289 90.83032412892265 l -7.453048920591867 -3.6174647878226405 a29.284563338153212,29.284563338153212 0 0,0 0.22401294644313785,-0.4515964305740839 l 7.389675961195317 3.745220806895686" fill="#ff5f08" stroke="none" /><path d="M 81.26839172434947 90.50648371742162 l -12.965883489896383 -6.571343165944499 a35.53604780117942,35.53604780117942 0 0,0 0.28122647272987106,-0.5432400327256771 l 12.850847584006399 6.793555920930511" fill="#ffb410" stroke="none" /><path d="M 81.43458229118936 90.18545643968196 l -13.044245193467464 -6.89579489515064 a35.75480667115922,35.75480667115922 0 0,0 0.2923243199736853,-0.5416325685412722 l 12.923612774275307 7.119308447024386" fill="#ffb710" stroke="none" /><path d="M 81.6062741919709 89.86733742301443 l -12.989495387822611 -7.155601599359697 a35.830024432853236,35.830024432853236 0 0,0 0.30223881145645054,-0.5376491208681725 l 12.86439893507373 7.3781342301626545" fill="#ffb711" stroke="none" /><line stroke="#e1ed5e" stroke-width="0.3" x1="26.266209847984243" x2="21.928928074336255" y1="57.711370442889674" y2="55.22380399835377" /><path d="M 25.398753493254645 57.213857153982495 a86.0,86.0 0 0,1 29.58750427330803,-30.492523968695096" fill="none" id="id47" stroke="none" /><text fill="#e1ed5e" style="font-size:6.75px; font-family:Arial;" text-anchor="middle"><textPath startOffset="21.46611528233685" xlink:href="#id47">November</textPath></text><path d="M 82.34701348167596 88.62581576622439 l -6.590733750334265 -4.246546035383353 a28.840339571627318,28.840339571627318 0 0,0 0.272477162306237,-0.41500141177599265 l 6.516659952670108 4.359365511137013" fill="#ff5908" stroke="none" /><path d="M 82.54541684631803 88.32363383020206 l -26.05518308340984 -17.429797986257967 a52.34757444128283,52.34757444128283 0 0,0 0.5074612113252163,-0.7446367101951937 l 25.751297406415883 17.875712719723577" fill="#82ff25" stroke="none" /><path d="M 82.7489923806493 88.02491185347247 l -23.07088816160863 -16.015059841724195 a49.0846581303647,49.0846581303647 0 0,0 0.48777851014514656,-0.6899281104932188 l 22.791797031659602 16.4098144525492" fill="#a6ff21" stroke="none" /><path d="M 83.17141714833178 87.43820079747577 l -12.438486149255636 -9.284784510232193 a36.52169968420572,36.52169968420572 0 0,0 0.38038925832596937,-0.5005476752293141 l 12.27682095070556 9.497516961342532" fill="#ffc011" stroke="none" /><path d="M 83.84228863543731 86.58626213691792 l -13.69755427724033 -11.37137545625499 a38.80256085357001,38.80256085357001 0 0,0 0.43105836269799414,-0.5102371386278558 l 13.499785301055214 11.605471544511962" fill="#ffde14" stroke="none" /><path d="M 84.07557802195018 86.31012108654704 l -11.733767092103813 -10.087264134985721 a36.473661102037475,36.473661102037475 0 0,0 0.4133822908280589,-0.4725674187709626 l 11.55839293769791 10.287747109959627" fill="#ffc011" stroke="none" /><path d="M 84.80347519578584 85.50635884689758 l -15.449302216341874 -14.734726871724936 a42.34931181458079,42.34931181458079 0 0,0 0.5076588186338057,-0.5231870370721152 l 15.193379134004955 14.998478104347175" fill="#f5ff19" stroke="none" /><path d="M 86.37877921826538 84.01681056812374 l -10.010519852928924 -11.746379981996414 a36.4333389260824,36.4333389260824 0 0,0 0.4808202517513332,-0.40267313319155656 l 9.80684206421848 11.916954272581783" fill="#ffbf11" stroke="none" /><path d="M 86.65592168130627 83.78471172551755 l -9.36486572707287 -11.379879058681398 a35.73778672244647,35.73778672244647 0 0,0 0.47837001859554396,-0.38680861996603705 l 9.167592309912825 11.539393775911572" fill="#ffb610" stroke="none" /><path d="M 87.80319425747018 82.90503203632743 l -18.08237608068223 -25.34414717522799 a52.13355297364639,52.13355297364639 0 0,0 0.7350057913505889,-0.5149185279668188 l 17.64343914974798 25.651650545958752" fill="#84ff25" stroke="none" /><path d="M 88.70189139769569 82.29822771554957 l -1.97139089127517 -3.0887570538908933 a24.66426011415176,24.66426011415176 0 0,0 0.35984080570882443,-0.22533227952300788 l 1.9179309331941035 3.1222336747368313" fill="#ff1e03" stroke="none" /><path d="M 89.00827224532344 82.1063720568725 l -7.753821719389381 -12.622583462828626 a35.81389093155978,35.81389093155978 0 0,0 0.5280637708930822,-0.31815251341722317 l 7.535395882278652 12.754182585704468" fill="#ffb711" stroke="none" /><line stroke="#e1ed5e" stroke-width="0.3" x1="56.76296977257108" x2="54.21961505331056" y1="26.818313649435495" y2="22.513508569990535" /><path d="M 56.25429882871898 25.957352633546506 a86.0,86.0 0 0,1 42.26535254187918,-11.944610805530505" fill="none" id="id48" stroke="none" /><text fill="#e1ed5e" style="font-size:6.75px; font-family:Arial;" text-anchor="middle"><textPath startOffset="22.20632615414155" xlink:href="#id48">December</textPath></text><path d="M 89.63071344664047 81.73862282372117 l -3.571968965416962 -6.290603717408906 a28.233993186296257,28.233993186296257 0 0,0 0.4246875388978566,-0.2363381555972164 l 3.4631573374470594 6.351157270566307" fill="#ff5107" stroke="none" /><path d="M 89.94658935756843 81.56283822128135 l -7.009220302442929 -12.854356919768994 a35.641163241661886,35.641163241661886 0 0,0 0.5411600689093893,-0.2890689672513756 l 6.786915187005235 12.97310461352212" fill="#ffb510" stroke="none" /><path d="M 91.56875222667455 80.76684994638697 l -12.127881316693214 -27.665817381662503 a51.20733282875692,51.20733282875692 0 0,0 0.810334686630166,-0.3469430231734405 l 11.64986287227274 27.87047993279873" fill="#8eff24" stroke="none" /><path d="M 91.90106846888425 80.62456947434976 l -5.188806768501973 -12.413410913264425 a34.45423673726623,34.45423673726623 0 0,0 0.549161371284934,-0.22401671196797987 l 4.974361527628659 12.500888511415981" fill="#ffa50f" stroke="none" /><path d="M 92.23578459929587 80.48803036053334 l -1.2692004861886013 -3.1895819570722383 a24.4328272509729,24.4328272509729 0 0,0 0.3921082909634532,-0.15213192512602222 l 1.2141090302254707 3.210956586088812" fill="#ff1b02" stroke="none" /><path d="M 93.25333710446033 80.11325718540243 l -10.151628490384862 -29.92336034324367 a52.59846602666657,52.59846602666657 0 0,0 0.8599027100311277,-0.28349640377312385 l 9.635042958111326 30.093670471276027" fill="#7fff26" stroke="none" /><path d="M 94.28887869178378 79.79150937346287 l -0.8429740284772766 -2.982817529788725 a24.099646048938833,24.099646048938833 0 0,0 0.4001713069631499,-0.10938193475172617 l 0.7915048322904044 2.9968860053667474" fill="#ff1602" stroke="none" /><path d="M 96.04723909329186 79.375362276772 l -1.3352206032885887 -6.9668876700035725 a28.093682954988484,28.093682954988484 0 0,0 0.47572622499916145,-0.08693592685309304 l 1.215099257186534 6.988839078207402" fill="#ff4f07" stroke="none" /><path d="M 97.11714578562143 79.19881850522333 l -2.8994279783589714 -20.920769183563873 a42.12073071258773,42.12073071258773 0 0,0 0.7190315040452108,-0.09335092556741334 l 2.538881745805903 20.967578432295422" fill="#f7ff18" stroke="none" /><path d="M 98.55514903715128 79.0497635885617 l -1.033070129159683 -14.979443549539736 a36.015024573593266,36.015024573593266 0 0,0 0.6188375084821917,-0.03732996848357378 l 0.7750705718378683 14.995006787403616" fill="#ffba11" stroke="none" /></svg>