<?xml version="1.0" encoding="utf-8" ?>
<svg baseProfile="full" height="200mm" version="1.1" viewBox="0,0,200,200" width="200mm" xmlns="http://www.w3.org/2000/svg" xmlns:ev="http://www.w3.org/2001/xml-events" xmlns:xlink="http://www.w3.org/1999/xlink"><defs /><rect fill="#1a1a1a" height="200" width="200" x="0" y="0" /><text alignment-baseline="middle" fill="#e1ed5e" style="dominant-baseline: central; font-size:9.0px; font-family:Arial;" text-anchor="middle" x="100.0" y="100.0">2018</text><line stroke="#e1ed5e" stroke-width="0.3" x1="100.0" x2="100.0" y1="15.0" y2="10.0" /><path d="M 100.0 14.0 a86.0,86.0 0 0,1 42.46469731375804,11.215312516191453" fill="none" id="id25" stroke="none" /><text fill="#e1ed5e" style="font-size:6.75px; font-family:Arial;" text-anchor="middle"><textPath startOffset="22.20632615414155" xlink:href="#id25">January</textPath></text><line stroke="#e1ed5e" stroke-width="0.3" x1="143.23703022742887" x2="145.7803849466894" y1="26.81831364943548" y2="22.513508569990506" /><path d="M 143.74570117128098 25.957352633546492 a86.0,86.0 0 0,1 28.547481713284135,27.462654790039103" fill="none" id="id26" stroke="none" /><text fill="#e1ed5e" style="font-size:6.75px; font-family:Arial;" text-anchor="middle"><textPath startOffset="19.985693538727396" xlink:href="#id26">February</textPath></text><line stroke="#e1ed5e" stroke-width="0.3" x1="172.23445277983987" x2="176.4835382374775" y1="55.19839476539836" y2="52.563006222186495" /><path d="M 173.08426987136738 54.67131705675599 a86.0,86.0 0 0,1 12.851231095245387,41.99856678651699" fill="none" id="id27" stroke="none" /><text fill="#e1ed5e" style="font-size:6.75px; font-family:Arial;" text-anchor="middle"><textPath startOffset="22.20632615414155" xlink:href="#id27">March</textPath></text><line stroke="#e1ed5e" stroke-width="0.3" x1="184.98032266829074" x2="189.97916517819016" y1="98.17113171792111" y2="98.06355123074" /><path d="M 185.9800911702706 98.14961562048488 a86.0,86.0 0 0,1 -9.607161424134198,41.387399972396054" fill="none" id="id28" stroke="none" /><text fill="#e1ed5e" style="font-size:6.75px; font-family:Arial;" text-anchor="middle"><textPath startOffset="21.466115282336823" xlink:href="#id28">April</textPath></text><path d="M 120.13307415673323 105.97154293290107 l 21.78439869218672 6.461331788932067 a43.7224302148078,43.7224302148078 0 0,0 -0.2202220265569335,0.7196983247492392 l -21.669949893123654 -6.835357086233363" fill="#ff8d0d" stroke="none" /><path d="M 119.12269723197855 108.67885076344098 l 35.46174392917734 16.09433960278448 a59.94307447734838,59.94307447734838 0 0,0 -0.43451702286251825,0.9359110107968112 l -35.17945228947499 -16.702370680860124" fill="#77ff27" stroke="none" /><line stroke="#e1ed5e" stroke-width="0.3" x1="174.80103733775053" x2="179.2010983576182" y1="140.37084112569926" y2="142.7455964860345" /><path d="M 175.68104954172406 140.8457921977663 a86.0,86.0 0 0,1 -30.038265399797805,32.042727171017184" fill="none" id="id29" stroke="none" /><text fill="#e1ed5e" style="font-size:6.75px; font-family:Arial;" text-anchor="middle"><textPath startOffset="22.206326154141568" xlink:href="#id29">May</textPath></text><path d="M 118.30583269289576 110.29060199501025 l 30.680314241375264 17.24690202496845 a56.19570018352234,56.19570018352234 0 0,0 -0.48127069061075484,0.8391360155070878 l -30.37889155461213 -17.77245788633385" fill="#acff21" stroke="none" /><path d="M 118.12598468904814 110.60418214915192 l 23.55349528271202 13.77941990527992 a48.288084450154464,48.288084450154464 0 0,0 -0.4258988912413172,0.7138310393789012 l -23.312815515772478 -14.182813038544925" fill="#ffd914" stroke="none" /><path d="M 116.498646956653 112.99209946851258 l 20.38436283477083 16.051962942621778 a46.94586214583915,46.94586214583915 0 0,0 -0.5054104063960148,0.6305771923816029 l -20.10503451631996 -16.40046796858163" fill="#ffc312" stroke="none" /><path d="M 111.7513745106137 117.40417183066458 l 9.390281223969687 13.907315081535662 a37.78066727643293,37.78066727643293 0 0,0 -0.5421081404226824,0.35927971521876784 l -9.14949838480704 -14.06689281784575" fill="#ff2403" stroke="none" /><line stroke="#e1ed5e" stroke-width="0.3" x1="143.8653032363475" x2="146.44561519142675" y1="172.8068346515853" y2="177.08958963109032" /><path d="M 144.38136562736335 173.6633856474863 a86.0,86.0 0 0,1 -40.68145358897372,12.25698825130547" fill="none" id="id30" stroke="none" /><text fill="#e1ed5e" style="font-size:6.75px; font-family:Arial;" text-anchor="middle"><textPath startOffset="21.466115282336833" xlink:href="#id30">June</textPath></text><path d="M 107.59598834532513 119.57807347666477 l 6.0421434892645625 15.573158331947127 a37.704213791039564,37.704213791039564 0 0,0 -0.6070913088367433,0.22954998626371947 l -5.773181959667545 -15.674856568317477" fill="#ff2203" stroke="none" /><path d="M 107.2578585660854 119.70592522655815 l 8.216973143820795 22.31003220666282 a44.775116923132146,44.775116923132146 0 0,0 -0.7255284028313526,0.2601486721911737 l -7.831725180359707 -22.448168419893953" fill="#ff9f0e" stroke="none" /><line stroke="#e1ed5e" stroke-width="0.3" x1="102.19456741930631" x2="102.32365962044197" y1="184.97166512339345" y2="189.96999836594603" /><path d="M 102.22038585953345 185.97133177190398 a86.0,86.0 0 0,1 -42.740103519485714,-10.115201625700543" fill="none" id="id31" stroke="none" /><text fill="#e1ed5e" style="font-size:6.75px; font-family:Arial;" text-anchor="middle"><textPath startOffset="22.20632615414155" xlink:href="#id31">July</textPath></text><line stroke="#e1ed5e" stroke-width="0.3" x1="58.666819895761336" x2="56.23545636021788" y1="174.27360380694188" y2="178.64263932499728" /><path d="M 58.180547188652646 175.14741091055294 a86.0,86.0 0 0,1 -31.652253787137756,-30.449443065178592" fill="none" id="id32" stroke="none" /><text fill="#e1ed5e" style="font-size:6.75px; font-family:Arial;" text-anchor="middle"><textPath startOffset="22.20632615414155" xlink:href="#id32">August</textPath></text><line stroke="#e1ed5e" stroke-width="0.3" x1="26.63291911575756" x2="22.317208475507996" y1="142.92168965132927" y2="145.44649492493687" /><path d="M 25.769776987707644 143.4266507060508 a86.0,86.0 0 0,1 -11.730757126820373,-40.83630448921669" fill="none" id="id33" stroke="none" /><text fill="#e1ed5e" style="font-size:6.75px; font-family:Arial;" text-anchor="middle"><textPath startOffset="21.46611528233685" xlink:href="#id33">September</textPath></text><path d="M 81.35079622478065 109.6543875284942 l -13.198343107157505 6.832566184935154 a35.86203961257577,35.86203961257577 0 0,0 -0.2790772484602252,-0.5506458872774539 l 13.313999025403998 -6.604366085955015" fill="#ff0000" stroke="none" /><path d="M 81.18737489456691 109.33194174019688 l -17.48284399380411 8.67230812758893 a40.515603049138335,40.515603049138335 0 0,0 -0.3045359998855833,-0.6274343603479223 l 17.629533250304412 -8.370084811275724" fill="#ff5507" stroke="none" /><line stroke="#e1ed5e" stroke-width="0.3" x1="15.007084014347285" x2="10.007500721073583" y1="101.09737516637583" y2="101.16192664675087" /><path d="M 14.007167355692545 101.11028546245083 a86.0,86.0 0 0,1 10.666146001902534,-42.60595125391555" fill="none" id="id34" stroke="none" /><text fill="#e1ed5e" style="font-size:6.75px; font-family:Arial;" text-anchor="middle"><textPath startOffset="22.20632615414155" xlink:href="#id34">October</textPath></text><path d="M 81.43458229118936 90.18545643968196 l -25.8356025383144 -13.657901507867246 a50.22356296067199,50.22356296067199 0 0,0 0.4106180470827871,-0.7608128791708866 l 25.59667639201314 14.100595370370606" fill="#fff817" stroke="none" /><line stroke="#e1ed5e" stroke-width="0.3" x1="26.266209847984243" x2="21.928928074336255" y1="57.711370442889674" y2="55.22380399835377" /><path d="M 25.398753493254645 57.213857153982495 a86.0,86.0 0 0,1 29.58750427330803,-30.492523968695096" fill="none" id="id35" stroke="none" /><text fill="#e1ed5e" style="font-size:6.75px; font-family:Arial;" text-anchor="middle"><textPath startOffset="21.46611528233685" xlink:href="#id35">November</textPath></text><path d="M 81.78341655067845 89.55222093294921 l -33.80675874913017 -19.389231101793296 a59.97228784457794,59.97228784457794 0 0,0 0.5213029021861253,-0.8910756426546076 l 33.46799617247372 19.968286156801796" fill="#77ff27" stroke="none" /><path d="M 82.15384107792192 88.93136811851018 l -37.18959179574158 -23.06591032878713 a64.76187789880066,64.76187789880066 0 0,0 0.5957241726350851,-0.9422925776392047 l 36.787040026860524 23.70265055414055" fill="#38ff2e" stroke="none" /><path d="M 82.34701348167596 88.62581576622439 l -40.5846412857536 -26.14952357022943 a69.27950591341299,69.27950591341299 0 0,0 0.6545374797124761,-0.9969054868374193 l 40.1285071706832 26.844247121044518" fill="#35ff69" stroke="none" /><path d="M 82.54541684631803 88.32363383020206 l -26.02635308214975 -17.410511954135366 a52.31288842093326,52.31288842093326 0 0,0 0.5071249625096692,-0.7441433065493029 l 25.722803653971344 17.855933283955085" fill="#e5ff1a" stroke="none" /><path d="M 83.17141714833178 87.43820079747576 l -39.2228368822774 -29.27812789772064 a69.94527256323155,69.94527256323155 0 0,0 0.7285101893886313,-0.958634014230913 l 38.713050752664664 29.948946687832578" fill="#37ff73" stroke="none" /><path d="M 83.6137871275137 86.86637796730984 l -39.686168228241236 -31.808639219538687 a71.86041169356614,71.86041169356614 0 0,0 0.7819148777138617,-0.9585351854213503 l 39.13275485845098 32.487058574568124" fill="#3aff8f" stroke="none" /><path d="M 85.05521093208273 85.24692304244772 l -35.09805306118772 -34.64781439997386 a70.31880342608673,70.31880342608673 0 0,0 0.8577695244207382,-0.8540859894846184 l 34.49644773659967 35.246836240108586" fill="#37ff79" stroke="none" /><path d="M 85.31137513191541 84.99185889309783 l -34.04448749430697 -34.78504467337202 a69.67264592847312,69.67264592847312 0 0,0 0.8643281774393153,-0.8314830218902949 l 33.440676073255226 35.36591078202463" fill="#36ff6f" stroke="none" /><path d="M 86.10567301691215 84.25364557470407 l -38.63650515662786 -43.78651119205419 a79.39553144796285,79.39553144796285 0 0,0 1.0325434284844652,-0.8954114863298209 l 37.87706792949662 44.4450876718037" fill="#46fff4" stroke="none" /><path d="M 87.22198572758235 83.33499621200491 l -11.909806211604312 -15.532692435561088 a40.57314533476174,40.57314533476174 0 0,0 0.5578881795015376,-0.42018981056564847 l 11.640671878344385 15.73539883563259" fill="#ff5608" stroke="none" /><path d="M 88.70189139769569 82.29822771554957 l -31.59331016072766 -49.50010677567316 a79.72306035719683,79.72306035719683 0 0,0 1.163124705129374,-0.7283485836467518 l 30.736566303226045 50.03659970064284" fill="#46fff8" stroke="none" /><line stroke="#e1ed5e" stroke-width="0.3" x1="56.762969772571076" x2="54.21961505331055" y1="26.818313649435495" y2="22.513508569990535" /><path d="M 56.25429882871897 25.957352633546506 a86.0,86.0 0 0,1 42.265352541879196,-11.944610805530505" fill="none" id="id36" stroke="none" /><text fill="#e1ed5e" style="font-size:6.75px; font-family:Arial;" text-anchor="middle"><textPath startOffset="22.20632615414155" xlink:href="#id36">December</textPath></text><path d="M 89.3179101791058 81.91981866633112 l -32.046269462682616 -54.240544001006626 a84.0,84.0 0 0,0 1.2512130701387194,-0.7247833704398112 l 31.107859660078574 54.78413152883649" fill="#4dd2ff" stroke="none" /><path d="M 94.98787191387505 79.60689891045804 l -11.897429416573955 -48.407677662815885 a70.84829067710791,70.84829067710791 0 0,0 1.1867976418761759,-0.2808766579381454 l 11.062408087735244 48.605300232894905" fill="#38ff80" stroke="none" /><path d="M 95.692805502759 79.44645832069477 l -10.25703629116933 -48.94564734695307 a71.00883109702384,71.00883109702384 0 0,0 1.1984721412028485,-0.2404022368847589 l 9.412997740499344 49.11495353991504" fill="#38ff83" stroke="none" /><path d="M 97.47563105711357 79.15227682838746 l -5.97467036543396 -49.342341249762526 a70.70274968232252,70.70274968232252 0 0,0 1.2094658018718076,-0.13589757513970924 l 5.124437860052434 49.43787477837283" fill="#38ff7e" stroke="none" /></svg>