<?xml version="1.0" encoding="utf-8" ?>
<svg baseProfile="full" height="200mm" version="1.1" viewBox="0,0,200,200" width="200mm" xmlns="http://www.w3.org/2000/svg" xmlns:ev="http://www.w3.org/2001/xml-events" xmlns:xlink="http://www.w3.org/1999/xlink"><defs /><rect fill="#1a1a1a" height="200" width="200" x="0" y="0" /><text alignment-baseline="middle" fill="#e1ed5e" style="dominant-baseline: central; font-size:9.0px; font-family:Arial;" text-anchor="middle" x="100.0" y="100.0">2019</text><line stroke="#e1ed5e" stroke-width="0.3" x1="100.0" x2="100.0" y1="15.0" y2="10.0" /><path d="M 100.0 14.0 a86.0,86.0 0 0,1 42.46469731375804,11.215312516191453" fill="none" id="id61" stroke="none" /><text fill="#e1ed5e" style="font-size:6.75px; font-family:Arial;" text-anchor="middle"><textPath startOffset="22.20632615414155" xlink:href="#id61">January</textPath></text><path d="M 100.0 79.0 l 0.0 -7.388450260218924 a28.388450260218924,28.388450260218924 0 0,0 0.48866050504134617,0.004206055242518195 l -0.1271800257688178 7.387355581584965" fill="#ff3304" stroke="none" /><path d="M 100.36148047927253 79.00311137660856 l 0.27055834522100347 -15.715602270327729 a36.71793105142336,36.71793105142336 0 0,0 0.6318515377493193,0.01631886107644959 l -0.5410365181651906 15.70861661710892" fill="#ffaa0f" stroke="none" /><path d="M 100.72285384407766 79.0124445844662 l 0.5403375614577431 -15.688322898329112 a36.69762529946997,36.69762529946997 0 0,0 0.6311278003068944,0.02717769069380885 l -0.810306194153969 15.676697481111109" fill="#ffa90f" stroke="none" /><path d="M 101.08401301168833 79.027996857942 l 0.8074310618182817 -15.621073347703378 a36.641926909876474,36.641926909876474 0 0,0 0.6296094206061199,0.037979759639708004 l -1.0762025312640136 15.604860318683366" fill="#ffa90f" stroke="none" /><path d="M 101.44485096284872 79.0497635885617 l 1.0960685312012821 -15.892915907762813 a36.93066672416161,36.93066672416161 0 0,0 0.6338178381322654,0.049196462800648516 l -1.3694765586958886 15.8716941827737" fill="#ffad10" stroke="none" /><path d="M 101.80526077348638 79.07773832637324 l 2.6719026118545304 -30.96629940266587 a52.08135714962877,52.08135714962877 0 0,0 0.8925129421519169,0.0847548581666235 l -3.2045406810966917 30.91571899998407" fill="#93ff23" stroke="none" /><path d="M 102.16513564639614 79.11191278185805 l 1.62824048131479 -15.70840572618338 a36.79256716064184,36.79256716064184 0 0,0 0.6293864374979616,0.07071889965753292 l -1.8983936223224769 15.678050873055245" fill="#ffab0f" stroke="none" /><path d="M 102.52436894288641 79.15227682838746 l 1.8932115575574258 -15.635254334940804 a36.74945802622916,36.74945802622916 0 0,0 0.6273399732248702,0.08144673330237526 l -2.162066259290142 15.600349278474292" fill="#ffaa0f" stroke="none" /><path d="M 102.88285421437855 79.19881850522331 l 2.161945104169332 -15.599475085931214 a36.74857547811961,36.74857547811961 0 0,0 0.6258300245730674,0.09223107747256482 l -2.430144109171055 15.559949524297679" fill="#ffaa0f" stroke="none" /><path d="M 103.2404852339499 79.25152402106235 l 2.4979294991269967 -15.993972034410904 a37.1878594391021,37.1878594391021 0 0,0 0.6316106356257366,0.10422116672700532 l -2.7728693408916087 15.948604604744274" fill="#ffb010" stroke="none" /><path d="M 103.59715602781102 79.31037775812273 l 2.6786968434570935 -15.406956318589746 a36.63808555361172,36.63808555361172 0 0,0 0.6204134274435072,0.11337658828247228 l -2.9435053920035017 15.358564248956535" fill="#ffa90f" stroke="none" /><path d="M 103.95276090670814 79.375362276772 l 3.1709601262820564 -16.54537306528717 a37.84649393767145,37.84649393767145 0 0,0 0.6387651778766459,0.12813028549125513 l -3.455291713625827 16.488338823718706" fill="#ffb911" stroke="none" /><path d="M 104.66035177308747 79.52364482259891 l 3.5701168603090965 -15.686150834937184 a37.087295062025305,37.087295062025305 0 0,0 0.6212586627358213,0.14703185340720873 l -3.839599210007442 15.622373069389106" fill="#ffaf10" stroke="none" /><path d="M 105.01212808612495 79.60689891045804 l 3.7418033291609354 -15.224465982823505 a36.67754625623123,36.67754625623123 0 0,0 0.6118008780191255,0.155961666121867 l -4.003313095865086 15.15780132053277" fill="#ffa90f" stroke="none" /><path d="M 105.36241919743992 79.69619591428918 l 4.050634907136698 -15.336976567685864 a36.86286523263246,36.86286523263246 0 0,0 0.6121028055181343,0.16731081906554066 l -4.314035601878543 15.26497920779403" fill="#ffac0f" stroke="none" /><path d="M 105.71112130821622 79.79150937346287 l 3.886634173362001 -13.752642611210197 a35.29129469254692,35.29129469254692 0 0,0 0.5831630708342418,0.17024129176083302 l -4.12278746191967 13.68370299053066" fill="#ff960d" stroke="none" /><path d="M 106.40334571778207 80.00007090966166 l 9.134848722345142 -28.53138573957104 a50.95806124234892,50.95806124234892 0 0,0 0.8330846557010133,0.2746549129043444 l -9.624616200288571 28.36991710240746" fill="#a0ff22" stroke="none" /><path d="M 107.08798089147638 80.2323363322302 l 5.293248606623579 -14.76233637867937 a36.68263549818087,36.68263549818087 0 0,0 0.5925427761059638,0.2182385051140205 l -5.54657370850212 14.669034605759025" fill="#ffa90f" stroke="none" /><path d="M 107.4271985657038 80.35727306442388 l 5.031807559942559 -13.307631540742747 a35.22716220981775,35.22716220981775 0 0,0 0.5653403197141006,0.21934326096023232 l -5.260131044656326 13.219045575891966" fill="#ff950d" stroke="none" /><path d="M 107.76421540070413 80.48803036053334 l 5.6390867998784096 -14.171385614001146 a36.25213002033754,36.25213002033754 0 0,0 0.577817746646954,0.23570636699688327 l -5.882188416113751 14.072218360820685" fill="#ffa30f" stroke="none" /><path d="M 108.09893153111575 80.62456947434976 l 4.436511829993755 -10.613662605742173 a32.50358514230256,32.50358514230256 0 0,0 0.5143556796586919,0.22022025890230607 l -4.618551267442762 10.535722818877074" fill="#ff6f0a" stroke="none" /><path d="M 108.43124777332544 80.76684994638697 l 6.383720392029967 -14.56238216467401 a36.90015284057468,36.90015284057468 0 0,0 0.5795395351490649,0.2600224962494153 l -6.633442045645812 14.450339337908064" fill="#ffac0f" stroke="none" /><path d="M 108.76106565485865 80.91482961587045 l 13.085118291549605 -28.50471870990032 a52.364618751618636,52.364618751618636 0 0,0 0.8159449625009173,0.3830971005216456 l -13.573841465350121 28.27525662673867" fill="#90ff24" stroke="none" /><path d="M 109.41281617654863 81.2277094730956 l 6.288330687964996 -12.54102580881499 a35.02927051484025,35.02927051484025 0 0,0 0.536680972169823,0.2749088387474336 l -6.503272147723575 12.430924444755055" fill="#ff920d" stroke="none" /><path d="M 109.73455568895987 81.39251694778311 l 7.476795923782956 -14.291803127127737 a37.12941765565253,37.12941765565253 0 0,0 0.5637570828106662,0.30113950949328544 l -7.7216980531219335 14.160984891132697" fill="#ffaf10" stroke="none" /><path d="M 110.05341064243156 81.56283822128135 l 7.811550238133091 -14.325766707984991 a37.31710479510652,37.31710479510652 0 0,0 0.5613130700166,0.3123701157434716 l -8.056987397221725 14.189181194681339" fill="#ffb210" stroke="none" /><path d="M 110.36928655335952 81.73862282372117 l 7.703774172875819 -13.567136478274074 a36.60177325584446,36.60177325584446 0 0,0 0.5451978224757765,0.3158137688624328 l -7.9361687278169235 13.432518552021591" fill="#ffa80f" stroke="none" /><line stroke="#e1ed5e" stroke-width="0.3" x1="143.23703022742887" x2="145.7803849466894" y1="26.81831364943548" y2="22.513508569990506" /><path d="M 143.74570117128098 25.957352633546492 a86.0,86.0 0 0,1 28.547481713284135,27.462654790039103" fill="none" id="id62" stroke="none" /><text fill="#e1ed5e" style="font-size:6.75px; font-family:Arial;" text-anchor="middle"><textPath startOffset="19.985693538727396" xlink:href="#id62">February</textPath></text><path d="M 110.68208982089419 81.91981866633111 l 7.955336763134068 -13.464961787395467 a36.63945583934724,36.63945583934724 0 0,0 0.5402364476669331,0.3254864149724567 l -8.185935277018638 13.326028762964395" fill="#ffa90f" stroke="none" /><path d="M 110.99172775467656 82.1063720568725 l 7.459089657969713 -12.142783929246589 a35.25079717342156,35.25079717342156 0 0,0 0.5142937675022059,0.32205071002848046 l -7.667002577844182 12.012588877895164" fill="#ff960d" stroke="none" /><path d="M 111.2981086023043 82.29822771554956 l 8.439632565347637 -13.223138411481209 a36.68689858726913,36.68689858726913 0 0,0 0.5293971425547931,0.34433462765719225 l -8.66599673368671 13.075904859664488" fill="#ffa90f" stroke="none" /><path d="M 111.60114157652 82.49532879139004 l 8.948850433185255 -13.50269570410018 a37.19891093107945,37.19891093107945 0 0,0 0.5306961470543133,0.3583284074676266 l -9.17995127464611 13.346655384333884" fill="#ffb010" stroke="none" /><path d="M 111.90073688211348 82.69761687909136 l 19.093334108656897 -27.75964085887975 a54.692032708027384,54.692032708027384 0 0,0 0.7710765617961598,0.5401884077950228 l -19.56834181003671 27.42686760832079" fill="#75ff27" stroke="none" /><path d="M 112.19680574252982 82.90503203632743 l 10.074273931025733 -14.120040422356148 a38.34550479998539,38.34550479998539 0 0,0 0.5340153559778097,0.38798486672579824 l -10.315834603357331 13.944536320813675" fill="#ffc011" stroke="none" /><path d="M 112.48926042617603 83.11751280151076 l 9.786468124790362 -13.228959697958954 a37.455404372052364,37.455404372052364 0 0,0 0.515018670236438,0.3879013849653116 l -10.012732948785183 13.058541723487796" fill="#ffb410" stroke="none" /><path d="M 112.77801427241765 83.33499621200491 l 10.054435029009316 -13.112929307511909 a37.52393956586547,37.52393956586547 0 0,0 0.5091952942112685,0.3974350038538145 l -10.278662878380015 12.937915914434868" fill="#ffb510" stroke="none" /><path d="M 113.06298171725822 83.55741782278167 l 14.948111966912569 -18.8154255077537 a45.03052825913703,45.03052825913703 0 0,0 0.6027584978328123,0.487388786203679 l -15.269773863309872 18.555330624285894" fill="#e7ff1a" stroke="none" /><path d="M 113.34407831869373 83.78471172551755 l 19.915400639452255 -24.200544597983363 a52.34149871127539,52.34149871127539 0 0,0 0.6907643748616212,0.5784952986266626 l -20.329022551272992 23.85414814196288" fill="#90ff24" stroke="none" /><path d="M 113.6212207817346 84.01681056812373 l 10.086016598083658 -11.83496813416237 a36.54973316663208,36.54973316663208 0 0,0 0.4753313707434887,0.41220268071564203 l -10.28824176747391 11.659600460027054" fill="#ffa70f" stroke="none" /><path d="M 114.16331599549186 84.49514656593476 l 10.678585285636895 -11.690051947557068 a36.833177136607915,36.833177136607915 0 0,0 0.4644349962172226,0.4316417130295054 l -10.878228165648965 11.504505648452922" fill="#ffab0f" stroke="none" /><path d="M 114.42810811169701 84.74124197986012 l 10.705429699505222 -11.321758890477001 a36.58167030279949,36.58167030279949 0 0,0 0.45381609954882135,0.4365707282079417 l -10.898729042666462 11.135805075506758" fill="#ffa80f" stroke="none" /><path d="M 114.94478906791727 85.2469230424477 l 16.175289090113125 -15.967792096135062 a43.72906424765714,43.72906424765714 0 0,0 0.52419848504562,0.5402326171872173 l -16.447751838861855 15.686995283397728" fill="#f8ff18" stroke="none" /><path d="M 115.19652480421416 85.50635884689758 l 24.51636849098858 -23.38241485231401 a54.87904438309399,54.87904438309399 0 0,0 0.6460901481206739,0.689203922682309 l -24.915225961079717 22.956941512753644" fill="#73ff27" stroke="none" /><path d="M 115.68641384162765 86.03803664274999 l 11.657139167270675 -10.375637895761974 a36.60585644266562,36.60585644266562 0 0,0 0.41488055590741657,0.4742801947579722 l -11.834011586755937 10.173442144801054" fill="#ffa80f" stroke="none" /><path d="M 115.92442197804982 86.31012108654704 l 6.69492132606125 -5.755478121291076 a29.828788136930797,29.828788136930797 0 0,0 0.3313685564232034,0.39223585178204357 l -6.793000495971572 5.639383319879926" fill="#ff4806" stroke="none" /><path d="M 116.15771136456269 86.58626213691792 l 12.050482873917183 -10.004016951856212 a36.66188024049468,36.66188024049468 0 0,0 0.3989188056317688,0.4890272870140251 l -12.22090017162536 9.795105495234086" fill="#ffa90f" stroke="none" /><path d="M 116.38621287248628 86.86637796730983 l 14.479506652387926 -11.605388570997594 a39.55643168231403,39.55643168231403 0 0,0 0.4212683110482462,0.5349679745644854 l -14.677129044030137 11.354428202480069" fill="#ffd013" stroke="none" /><path d="M 116.60985879189232 87.15038557335679 l 13.517105231762837 -10.457017881289653 a38.089802714372155,38.089802714372155 0 0,0 0.3967217278928642,0.5220392907087732 l -13.695102899879814 10.222793814699846" fill="#ffbc11" stroke="none" /><path d="M 116.82858285166822 87.43820079747576 l 11.439282749743509 -8.538922985361934 a35.27481683169776,35.27481683169776 0 0,0 0.3590260568413027,0.48971113804994426 l -11.58457141909844 8.340749403640496" fill="#ff960d" stroke="none" /><path d="M 117.04232023915458 87.72973835380427 l 24.546815974880086 -17.67340657645906 a51.24723912229767,51.24723912229767 0 0,0 0.50926914641506,0.7203250914315261 l -24.84739774109903 17.248254984695745" fill="#9dff22" stroke="none" /><path d="M 117.2510076193507 88.02491185347247 l 12.040651029303204 -8.358228145221254 a35.65732768744115,35.65732768744115 0 0,0 0.34566473984742385,0.5072203529374899 l -12.182740234819361 8.149729769013359" fill="#ff9b0e" stroke="none" /><path d="M 117.45458315368197 88.32363383020206 l 11.403390005033597 -7.628377951134215 a34.71967396741813,34.71967396741813 0 0,0 0.3280238159243629,0.49960277607325543 l -11.533010456315884 7.430957111083286" fill="#ff8e0d" stroke="none" /><path d="M 117.65298651832404 88.62581576622439 l 12.46666691157105 -8.032531270906206 a35.83035206939291,35.83035206939291 0 0,0 0.3295921541237297,0.5213356360967221 l -12.603086661940734 7.816747987095278" fill="#ff9e0e" stroke="none" /><line stroke="#e1ed5e" stroke-width="0.3" x1="172.23445277983987" x2="176.4835382374775" y1="55.19839476539836" y2="52.563006222186495" /><path d="M 173.08426987136738 54.67131705675599 a86.0,86.0 0 0,1 12.851231095245387,41.99856678651699" fill="none" id="id63" stroke="none" /><text fill="#e1ed5e" style="font-size:6.75px; font-family:Arial;" text-anchor="middle"><textPath startOffset="22.20632615414155" xlink:href="#id63">March</textPath></text><path d="M 117.84615892207809 88.93136811851018 l 13.49664740505197 -8.370956597050718 a36.88182626545206,36.88182626545206 0 0,0 0.3299767850300305,0.542395073035672 l -13.638739988368226 8.137393750807963" fill="#ffac0f" stroke="none" /><path d="M 118.03404312379186 89.2402003453031 l 14.034746896043 -8.373666613149924 a37.34296218511719,37.34296218511719 0 0,0 0.32459983207207377,0.5548463335926919 l -14.176806402585402 8.130840867203336" fill="#ffb210" stroke="none" /><path d="M 118.21658344932153 89.55222093294921 l 27.12868003772581 -15.55914456755209 a52.27382708053635,52.27382708053635 0 0,0 0.44094804893893813,0.7843973767568635 l -27.392485727957183 15.089863680860434" fill="#91ff24" stroke="none" /><path d="M 118.73160827565052 90.50648371742162 l 15.737991289303206 -7.97629730247432 a38.64385696155018,38.64385696155018 0 0,0 0.2956070800825605,0.595925835257911 l -15.872958382339174 7.704211878717459" fill="#ffc412" stroke="none" /><path d="M 118.89224826269711 90.83032412892265 l 14.019302590050096 -6.804508330707376 a36.58339432646339,36.58339432646339 0 0,0 0.27009312056067303,0.5688849942342593 l -14.134353904452526 6.562180920832576" fill="#ffa80f" stroke="none" /><path d="M 119.04729006885535 91.15688171328212 l 14.126670116555637 -6.558613555342966 a36.574922803992145,36.574922803992145 0 0,0 0.26020041543623196,0.5733171245416554 l -14.237472848955216 6.314474421959248" fill="#ffa80f" stroke="none" /><path d="M 119.196687751892 91.48605970444005 l 19.321868337449732 -8.569459249942929 a42.13693988935425,42.13693988935425 0 0,0 0.28835570099527286,0.665564714561986 l -19.466514748287686 8.23559539079434" fill="#fff216" stroke="none" /><path d="M 119.34039704204932 91.81776055985345 l 19.666144804948438 -8.320051822557193 a42.35370023717758,42.35370023717758 0 0,0 0.278280576802544,0.6738784897447141 l -19.80644706863718 7.980298762359175" fill="#fff517" stroke="none" /><path d="M 119.47837535516314 92.15188598940014 l 14.571006709040029 -5.870865501698499 a36.709274275214725,36.709274275214725 0 0,0 0.2311048970640549,0.5881367552118847 l -14.669905155985784 5.6191797415908304" fill="#ffaa0f" stroke="none" /><path d="M 119.61058180528143 92.48833698450437 l 14.539551976623306 -5.569249088533628 a36.56968551676826,36.56968551676826 0 0,0 0.22010668805990855,0.5897764938401381 l -14.63326325318484 5.318149457664156" fill="#ffa80f" stroke="none" /><path d="M 119.7369772167798 92.82701384747503 l 15.355633583953633 -5.580679647707353 a37.33828228716164,37.33828228716164 0 0,0 0.21433404274147588,0.6059512013627515 l -15.449420707504919 5.315530819917987" fill="#ffb210" stroke="none" /><path d="M 119.85752413597 93.16781622104841 l 14.815492371833637 -5.097421308262114 a36.66788173984554,36.66788173984554 0 0,0 0.20021135961654218,0.5986064818706089 l -14.901041025221948 4.841641723469191" fill="#ffa90f" stroke="none" /><path d="M 119.97218684219823 93.5106431181261 l 15.460167014609029 -5.023312770096765 a37.2557815962759,37.2557815962759 0 0,0 0.19292199745354238,0.6116154526176092 l -15.544344495830778 4.756447151052736" fill="#ffb110" stroke="none" /><path d="M 120.08093135843002 93.85539295169968 l 33.66766533106618 -10.302040776920393 a56.208574708641734,56.208574708641734 0 0,0 0.27513857199069935,0.9276304860417836 l -33.84000980016859 9.720980904132078" fill="#65ff29" stroke="none" /><path d="M 120.18372546131832 94.20196356495316 l 15.41466462198065 -4.428061969211597 a37.0380677829756,37.0380677829756 0 0,0 0.17075118828818153,0.6142828739053849 l -15.488602580835195 4.16206779188726" fill="#ffae10" stroke="none" /><path d="M 120.28053869075195 94.5502522615342 l 12.91055907496369 -3.4693008501394837 a34.368567014340236,34.368567014340236 0 0,0 0.14860914063158728,0.5726516403372154 l -12.968364547465582 3.246552784253418" fill="#ff890c" stroke="none" /><path d="M 120.37134235888165 94.90015583598534 l 15.90866213834123 -3.9826387645057624 a37.3996019024986,37.3996019024986 0 0,0 0.15096473926833445,0.6258463065998562 l -15.974859677870382 3.7082072262465005" fill="#ffb310" stroke="none" /><path d="M 120.45610955862082 95.25157060432595 l 13.004319498476443 -3.018662605435618 a34.3500805070198,34.3500805070198 0 0,0 0.12874019727782632,0.5771170609806109 l -13.054354082756307 2.7943673749050433" fill="#ff890c" stroke="none" /><path d="M 120.53481517161879 95.60439243477599 l 13.09189221814893 -2.8024026511194733 a34.38846901145273,34.38846901145273 0 0,0 0.11891975390557179,0.5798949535345497 l -13.138191267969498 2.5766320414215116" fill="#ff890c" stroke="none" /><path d="M 120.6074358757038 95.95851677861258 l 20.827229559873537 -4.084588656342889 a42.22398067354932,42.22398067354932 0 0,0 0.13373797657834405,0.7144336185766256 l -20.89445326036174 3.7254769603037" fill="#fff316" stroke="none" /><path d="M 120.67395015179393 96.31383870115 l 15.293400706648784 -2.7268103772496595 a36.53459365440892,36.53459365440892 0 0,0 0.1050598143288013,0.6200689712636832 l -15.338072382497808 2.463155617670138" fill="#ffa70f" stroke="none" /><path d="M 120.73433829027371 96.67025291283417 l 59.12585551703411 -9.49507731705062 a80.8834140967093,80.8834140967093 0 0,0 0.2089261206311968,1.376562094805842 l -59.280537531104606 8.475916109852696" fill="#49f0ff" stroke="none" /><path d="M 120.78858239683441 97.02765380044208 l 15.469320303489791 -2.2117994645379753 a36.6266415945107,36.6266415945107 0 0,0 0.08386454613994042,0.6248882797659343 l -15.505100848687569 1.9451928427073766" fill="#ffa90f" stroke="none" /><path d="M 120.83666639777658 97.38593545837742 l 15.40656714684724 -1.9328312945010329 a36.527335510747335,36.527335510747335 0 0,0 0.07289751128451867,0.6245413589258474 l -15.437555011135347 1.667346197250333" fill="#ffa70f" stroke="none" /><path d="M 120.87857604477298 97.74499172005257 l 16.30349104969654 -1.7608723521314378 a37.39830759096914,37.39830759096914 0 0,0 0.06361785913188304,0.640623159557794 l -16.33138603451065 1.479973661869209" fill="#ffb310" stroke="none" /><path d="M 120.91429891909075 98.10471618934814 l 15.119245091839863 -1.3701277084495038 a36.18119962600403,36.18119962600403 0 0,0 0.05086993309465107,0.6207420325703207 l -15.14058950875401 1.1096717586714142" fill="#ffa20f" stroke="none" /><path d="M 120.94382443527127 98.46500227214037 l 8.581878132750905 -0.6289760246632 a29.604896462188798,29.604896462188798 0 0,0 0.0328746994701768,0.5085570501172377 l -8.591433423225498 0.48115991029292704" fill="#ff4506" stroke="none" /><path d="M 120.96714384426684 98.82574320788733 l 19.831884859806344 -1.110677051199402 a40.86296202998629,40.86296202998629 0 0,0 0.03328656367736684,0.7026267495006728 l -19.84806503171721 0.7691391950757294" fill="#ffe115" stroke="none" /><path d="M 120.98425023603335 99.18683210126433 l 31.30981745180945 -1.2132975055437563 a52.33331708744847,52.33331708744847 0 0,0 0.02713434031417858,0.9004566546651682 l -31.326063486579276 0.674170703453589" fill="#90ff24" stroke="none" /><line stroke="#e1ed5e" stroke-width="0.3" x1="184.98032266829074" x2="189.97916517819016" y1="98.17113171792111" y2="98.06355123074" /><path d="M 185.9800911702706 98.14961562048488 a86.0,86.0 0 0,1 -9.607161424134198,41.387399972396054" fill="none" id="id64" stroke="none" /><text fill="#e1ed5e" style="font-size:6.75px; font-family:Arial;" text-anchor="middle"><textPath startOffset="21.466115282336823" xlink:href="#id64">April</textPath></text><path d="M 120.99513854157772 99.54816195383933 l 16.441467750569394 -0.3538381349434355 a37.44527479912554,37.44527479912554 0 0,0 0.008321753855366864,0.6445290069926749 l -16.445122511542476 0.07077286989029787" fill="#ffb410" stroke="none" /><path d="M 120.99980553446 99.90962569577887 l 14.995678260873452 -0.06453507328563048 a35.995817126096085,35.995817126096085 0 0,0 -0.0026666090604581683,0.619626034066534 l -14.994567354523491 -0.19360043898458834" fill="#ffa00e" stroke="none" /><path d="M 120.99824983174949 100.27111621757518 l 11.20396903303399 0.14465861347514986 a32.20490286471227,32.20490286471227 0 0,0 -0.011927986462721706,0.5542466607998628 l -11.199818983886262 -0.3374950900651275" fill="#ff6a09" stroke="none" /><path d="M 120.9904718944345 100.63252640178507 l 26.631782988720207 0.8025215417592623 a47.64387182793212,47.64387182793212 0 0,0 -0.03175774230008079,0.8195262164094035 l -26.614023113568923 -1.260825005182672" fill="#c7ff1e" stroke="none" /><path d="M 120.9764740272857 100.99374915477107 l 15.796236227623575 0.748338180160596 a36.81395235198252,36.81395235198252 0 0,0 -0.035435443585056674,0.6327236493957408 l -15.78101443315099 -1.02013354589176" fill="#ffab0f" stroke="none" /><path d="M 120.95626037817324 101.35467743843564 l 15.87736961555835 1.0263622426786905 a36.91050864561696,36.91050864561696 0 0,0 -0.04644298380318651,0.6336776148720537 l -15.857350073090826 -1.2995129940475143" fill="#ffac10" stroke="none" /><path d="M 120.92983693683757 101.71520430193887 l 21.004079195339358 1.721288469797044 a42.07449114072138,42.07449114072138 0 0,0 -0.06536653618584057,0.721314279905142 l -20.97133806287644 -2.0825841382507564" fill="#fff116" stroke="none" /><path d="M 120.89721153311464 102.0752229133903 l 14.843802333925332 1.4740817776756754 a35.916815505191536,35.916815505191536 0 0,0 -0.06639086263442238,0.6146969332738663 l -14.816229169789858 -1.729375032834333" fill="#ff9f0e" stroke="none" /><path d="M 120.8583938346157 102.4346265915055 l 15.06512499056272 1.7584265690443053 a36.167401062146354,36.167401062146354 0 0,0 -0.07749897439335848,0.6177430778361482 l -15.032624506922515 -2.0174874011678483" fill="#ffa20f" stroke="none" /><path d="M 120.81339534386255 102.79330883721812 l 15.577083818526537 2.090557795569292 a36.71674178021694,36.71674178021694 0 0,0 -0.08945937794110485,0.6256786809607962 l -15.538790389568831 -2.3583819485104978" fill="#ffaa0f" stroke="none" /><path d="M 120.70491114924044 103.5080841355445 l 14.270107632453707 2.4178195133071028 a35.47348689987116,35.47348689987116 0 0,0 -0.1071866164967147,0.6011594682749982 l -14.226374573617804 -2.6630977323153195" fill="#ff990e" stroke="none" /><path d="M 120.64145759157962 103.86396538481128 l 14.65025396282682 2.742445582629278 a35.90472908002711,35.90472908002711 0 0,0 -0.11894735278990988,0.6065099892611424 l -14.600876677061246 -2.994219298958366" fill="#ff9f0e" stroke="none" /><path d="M 120.5718875245553 104.21870165774334 l 61.715662573665874 12.656104973230008 a84.0,84.0 0 0,0 -0.30266384510222766,1.4139447223353239 l -61.488664689839204 -13.716563514981502" fill="#4dd2ff" stroke="none" /><path d="M 120.49622156327973 104.57218783832717 l 13.892492540184213 3.0990631731889344 a35.233957339070884,35.233957339070884 0 0,0 -0.1371430349010809,0.5908086049871626 l -13.83708893935258 -3.337740435524662" fill="#ff950d" stroke="none" /><path d="M 120.41448212921028 104.9243191809786 l 10.997875134644609 2.652873931984141 a32.31331063730839,32.31331063730839 0 0,0 -0.13508300341070156,0.539589450352764 l -10.950580816938846 -2.841791221734301" fill="#ff6c0a" stroke="none" /><path d="M 120.32669344350535 105.2749913415812 l 13.943441675140285 3.6184701812241014 a35.40530777874763,35.40530777874763 0 0,0 -0.15816381097313112,0.5885863790129089 l -13.879089787825377 -3.8579474934125586" fill="#ff980e" stroke="none" /><path d="M 120.23288151984713 105.62410040840565 l 13.990707685656863 3.88897373473976 a35.521157607263746,35.521157607263746 0 0,0 -0.16882252740639359,0.5876933653365399 l -13.92169252136437 -4.129224575580882" fill="#ff990e" stroke="none" /><path d="M 120.13307415673323 105.97154293290107 l 10.929788475730856 3.241814966867658 a32.40042281687948,32.40042281687948 0 0,0 -0.16319510921463246,0.5333310593192445 l -10.87236659401009 -3.4294729987389596" fill="#ff6d0a" stroke="none" /><path d="M 120.02730092923936 106.31721596034902 l 19.122231714437596 6.03172977780413 a41.050972790692526,41.050972790692526 0 0,0 -0.21836722685912172,0.6720652191629375 l -19.015572236562228 -6.359993896944863" fill="#ffe415" stroke="none" /><path d="M 119.9155931802556 106.66101706037122 l 30.00669466841225 10.036111066468319 a52.64056336827472,52.64056336827472 0 0,0 -0.2948101388772854,0.8568562611444639 l -29.829493698591737 -10.551140030702083" fill="#8dff24" stroke="none" /><path d="M 119.79798401119884 107.00284435728193 l 11.112919002423393 3.930806393470732 a32.7876294333243,32.7876294333243 0 0,0 -0.1927846082936427,0.5304604443294546 l -11.043610133124522 -4.121514634806318" fill="#ff730a" stroke="none" /><path d="M 119.54520255179757 107.68017299344265 l 13.549393252460991 5.324154807774781 a35.55790788289948,35.55790788289948 0 0,0 -0.22875144749791315,0.5677423329201523 l -13.455739190705685 -5.556596508537748" fill="#ff9a0e" stroke="none" /><path d="M 119.41010516605496 108.01547362559984 l 10.448017504559933 4.31454688324219 a32.303821680444436,32.303821680444436 0 0,0 -0.21666483749662938,0.512131674083697 l -10.372201685870996 -4.49375308299205" fill="#ff6c09" stroke="none" /><path d="M 119.26925614724726 108.34839909993367 l 12.203834895381055 5.287307588720433 a34.299970213931346,34.299970213931346 0 0,0 -0.23937935372873465,0.5397372483545179 l -12.111014456921048 -5.496593173567638" fill="#ff880c" stroke="none" /><path d="M 119.12269723197855 108.67885076344098 l 28.624245168297623 12.991135560958636 a52.43432860135578,52.43432860135578 0 0,0 -0.3800874172422654,0.8186744825758201 l -28.39638313421553 -13.481930110813288" fill="#8fff24" stroke="none" /><path d="M 118.97047184881838 109.00673069616215 l 13.077107655984026 6.208700968579482 a35.47614286899089,35.47614286899089 0 0,0 -0.26665683903530185,0.5493920695595036 l -12.96829756033401 -6.432881994104261" fill="#ff990e" stroke="none" /><path d="M 118.81262510543309 109.33194174019688 l 12.963467377550495 6.4304859975818385 a35.47075107290261,35.47075107290261 0 0,0 -0.2760322535244699,0.5446378233904563 l -12.850856454239757 -6.652678032674989" fill="#ff990e" stroke="none" /><path d="M 118.64920377521936 109.65438752849418 l 12.80513608733951 6.629009347120357 a35.419267496634276,35.419267496634276 0 0,0 -0.28495220971752055,0.5390221937415256 l -12.689131369397098 -6.848446555948017" fill="#ff980e" stroke="none" /><line stroke="#e1ed5e" stroke-width="0.3" x1="174.80103733775053" x2="179.2010983576182" y1="140.37084112569926" y2="142.7455964860345" /><path d="M 175.68104954172406 140.8457921977663 a86.0,86.0 0 0,1 -30.038265399797805,32.042727171017184" fill="none" id="id65" stroke="none" /><text fill="#e1ed5e" style="font-size:6.75px; font-family:Arial;" text-anchor="middle"><textPath startOffset="22.206326154141568" xlink:href="#id65">May</textPath></text><path d="M 118.48025628344425 109.97397251340804 l 18.588239911051218 10.032252318467616 a42.122706966016366,42.122706966016366 0 0,0 -0.3498663710778373,0.6351090890633775 l -18.412797130521874 -10.3507319259288" fill="#fff216" stroke="none" /><path d="M 118.30583269289576 110.29060199501025 l 18.468681372394848 10.382147185783701 a42.186815990665536,42.186815990665536 0 0,0 -0.36129593545752253,0.6299499171952284 l -18.28723344078494 -10.698516948837243" fill="#fff216" stroke="none" /><path d="M 118.12598468904814 110.60418214915192 l 17.067157440291314 9.984740104875746 a40.773287487254244,40.773287487254244 0 0,0 -0.35961869539493624,0.6027416187106247 l -16.89275786919815 -10.277043817472475" fill="#ffe015" stroke="none" /><path d="M 117.94076556474637 110.91462005526583 l 26.52318981959997 16.13590782901024 a52.04588732300698,52.04588732300698 0 0,0 -0.47221818547093986,0.7613660725227366 l -26.24150699446107 -16.590070232898245" fill="#93ff23" stroke="none" /><path d="M 117.75023020441432 111.22182372390056 l 12.194448119602198 7.709418167117322 a35.42704728685493,35.42704728685493 0 0,0 -0.3303068363655972,0.5126435451922107 l -12.059936419859554 -7.918183312230988" fill="#ff980e" stroke="none" /><path d="M 117.55443506779137 111.5257021239791 l 11.951568243774382 7.847032101015523 a35.29740872605817,35.29740872605817 0 0,0 -0.3378414067136251,0.5050270641128722 l -11.814723731650034 -8.051596079334201" fill="#ff960d" stroke="none" /><path d="M 117.35343817320211 111.8261652097733 l 11.953051283157688 8.145864688290272 a35.46480371445572,35.46480371445572 0 0,0 -0.3481277364462288,0.5015039689442795 l -11.811062639549322 -8.35040991942157" fill="#ff980e" stroke="none" /><path d="M 117.14729908036423 112.12312394758627 l 11.049689942851947 7.812120155586984 a34.532363768333006,34.532363768333006 0 0,0 -0.34733014499564324,0.4824111930459925 l -10.9135800054807 -8.001164954084109" fill="#ff8b0c" stroke="none" /><path d="M 116.93607887273984 112.41649034213515 l 11.627871828877142 8.524839742877367 a35.41805451198379,35.41805451198379 0 0,0 -0.36470263065693115,0.4885787726170809 l -11.47940793152512 -8.723731395003764" fill="#ff980e" stroke="none" /><path d="M 116.71984013943494 112.70617746262583 l 11.517584046468238 8.752743185024219 a35.46600344015055,35.46600344015055 0 0,0 -0.3735637229277064,0.4828814687806727 l -11.365213506322464 -8.949702647918144" fill="#ff980e" stroke="none" /><path d="M 116.498646956653 112.99209946851258 l 23.45686315160754 18.47144799726028 a50.856637788417075,50.856637788417075 0 0,0 -0.5475130884321594,0.6831067618050012 l -23.135432151120526 -18.872482592643532" fill="#a1ff22" stroke="none" /><path d="M 116.27256486870786 113.27417163493432 l 12.509027637061022 10.20410618609936 a37.14309621732918,37.14309621732918 0 0,0 -0.4084042615676336,0.49194924232334314 l -12.331527375599846 -10.417916685536474" fill="#ffb010" stroke="none" /><path d="M 116.0416608686014 113.55231037782055 l 10.918422755452626 9.224098129874848 a35.29321313688236,35.29321313688236 0 0,0 -0.3960528589057771,0.4606989507139362 l -10.758027386976071 -9.410674179750313" fill="#ff960d" stroke="none" /><path d="M 115.80600337817218 113.82643327865902 l 10.767953734170353 9.41935733474521 a35.30640137214288,35.30640137214288 0 0,0 -0.40407529145515747,0.4539828735226234 l -10.604219593066857 -9.603314378008701" fill="#ff960d" stroke="none" /><path d="M 115.56566222782051 114.09645910891815 l 10.628692794273825 9.625477616233269 a35.33941874190359,35.33941874190359 0 0,0 -0.41221512191298043,0.44737810136120293 l -10.461431264365123 -9.807006972395808" fill="#ff970d" stroke="none" /><path d="M 115.32070863581623 114.36230785411682 l 8.242641544117717 7.727015649328314 a32.298137477911126,32.298137477911126 0 0,0 -0.3837225573047791,0.40233156723149344 l -8.108412435433975 -7.867754333142315" fill="#ff6c09" stroke="none" /><path d="M 115.07121518719521 114.62390073753431 l 10.451242648366591 10.14104922365201 a35.5626011499172,35.5626011499172 0 0,0 -0.43006933140153636,0.4356579621233498 l -10.27513269190952 -10.319447679756024" fill="#ff9a0e" stroke="none" /><path d="M 114.81725581225074 114.88116024355365 l 10.144401973249648 10.188153140619837 a35.37732088435092,35.37732088435092 0 0,0 -0.4352253588232795,0.42595961640396546 l -9.967526662050574 -10.361262859946374" fill="#ff970e" stroke="none" /><path d="M 114.55890576462653 115.13401014063108 l 21.564630888345597 22.416474687001337 a52.10517067536458,52.10517067536458 0 0,0 -0.6517219609223427,0.6162437924858422 l -21.175573093032448 -22.7843531162331" fill="#93ff23" stroke="none" /><path d="M 114.29624159901734 115.38237550388516 l 9.721401958738436 10.459969798201922 a35.2799378227869,35.2799378227869 0 0,0 -0.4483919666515643,0.4095954302652879 l -9.539910442620007 -10.625757995053792" fill="#ff960d" stroke="none" /><path d="M 114.0293411484842 115.62618273729858 l 8.71512178486379 9.707090600103289 a34.04534229691276,34.04534229691276 0 0,0 -0.43944049416623815,0.38775514323155247 l -8.546738937790963 -9.85566888510713" fill="#ff850c" stroke="none" /><path d="M 113.75828350139079 115.86535959552629 l 7.306470881999482 8.425454229478978 a32.15225518550179,32.15225518550179 0 0,0 -0.4212474003541045,0.35899617334895007 l -7.16035800506833 -8.549974793050875" fill="#ff6a09" stroke="none" /><path d="M 113.48314897796784 116.09983520530334 l 8.392218872552348 10.020903950235331 a34.070878072442795,34.070878072442795 0 0,0 -0.45286665793954567,0.37267842847914473 l -8.21848208606811 -10.163877497571654" fill="#ff850c" stroke="none" /><path d="M 113.20401910651253 116.32954008644616 l 8.367762183867963 10.348493660382946 a34.30829684838585,34.30829684838585 0 0,0 -0.4624145885983111,0.36737011568794276 l -8.188390102552303 -10.490997690076014" fill="#ff880c" stroke="none" /><path d="M 112.92097659922987 116.55440617244103 l 17.575071419502233 22.517250809465967 a49.56413344418136,49.56413344418136 0 0,0 -0.6770726658214504,0.5191504482922915 l -17.18487002518729 -22.81644059958563" fill="#b0ff20" stroke="none" /><path d="M 112.63410532772338 116.77436683061366 l 10.572949929142489 14.037760173169742 a38.574014364498076,38.574014364498076 0 0,0 -0.533818491695873,0.3949061583588727 l -10.32974646702805 -14.217676280268384" fill="#ffc312" stroke="none" /><path d="M 112.34349029814194 116.9893568818739 l 8.519625382368728 11.726258345479621 a35.49445243673703,35.49445243673703 0 0,0 -0.49738320786187024,0.3548697124662082 l -8.316514846657972 -11.87117231979005" fill="#ff990e" stroke="none" /><path d="M 112.04921762599082 117.19931262002967 l 8.198332339624868 11.7024760651638 a35.28847784778598,35.28847784778598 0 0,0 -0.5004966751952832,0.3442461769716531 l -7.995678779806701 -11.84186303150055" fill="#ff960d" stroke="none" /><path d="M 111.7513745106137 117.40417183066458 l 7.316104569589865 10.835391293609838 a34.0740617467874,34.0740617467874 0 0,0 -0.4889227105239894,0.32403131239476435 l -7.128507160325912 -10.95972062709592" fill="#ff850c" stroke="none" /><path d="M 111.45004920935366 117.60387380957326 l 12.04088244711821 18.51225014664716 a43.08361962173224,43.08361962173224 0 0,0 -0.6251601396395121,0.39900677954621194 l -11.720440505431768 -18.716771355017176" fill="#fffe18" stroke="none" /><path d="M 111.1453310114006 117.79835938074945 l 7.469482697574997 11.928271785175355 a35.073977389152745,35.073977389152745 0 0,0 -0.5144530750934735,0.3160190969632567 l -7.263050422549215 -12.05507934896699" fill="#ff930d" stroke="none" /><line stroke="#e1ed5e" stroke-width="0.3" x1="143.8653032363475" x2="146.44561519142675" y1="172.8068346515853" y2="177.08958963109032" /><path d="M 144.38136562736335 173.6633856474863 a86.0,86.0 0 0,1 -40.68145358897372,12.25698825130547" fill="none" id="id66" stroke="none" /><text fill="#e1ed5e" style="font-size:6.75px; font-family:Arial;" text-anchor="middle"><textPath startOffset="21.466115282336833" xlink:href="#id66">June</textPath></text><path d="M 110.8373102113329 117.98757091392108 l 15.955301502164382 26.48232002467287 a51.917388633488414,51.917388633488414 0 0,0 -0.7694456854784512,0.4546020735574339 l -15.49708794565755 -26.753040670524054" fill="#95ff23" stroke="none" /><path d="M 110.5260780823613 118.17145234162733 l 8.216747149859057 14.18479210096944 a37.39278074862352,37.39278074862352 0 0,0 -0.5597365112654787,0.31783299932213627 l -7.971361871672379 -14.324128266086205" fill="#ffb310" stroke="none" /><path d="M 109.57404056367764 118.69057910512821 l 6.5864946797390225 12.8582492437112 a35.44702342282417,35.44702342282417 0 0,0 -0.5454555763506328,0.2735027494542257 l -6.3641851957056295 -12.969719834074727" fill="#ff980e" stroke="none" /><path d="M 108.92500713936063 119.00905698771935 l 6.712031824625383 14.295719147943457 a36.79300342467072,36.79300342467072 0 0,0 -0.5756037693734891,0.264231458937287 l -6.464960059484475 -14.409137677214817" fill="#ffab0f" stroke="none" /><path d="M 108.2653958097858 119.30500536409082 l 12.325383431281754 28.787682856477343 a52.31526402528381,52.31526402528381 0 0,0 -0.8308873169694232,0.34731096588017557 l -11.82802465481487 -28.995578865377492" fill="#90ff24" stroke="none" /><path d="M 107.93186726928326 119.44442032107085 l 5.391889053528106 13.217840581799736 a35.27528553870038,35.27528553870038 0 0,0 -0.564201188050219,0.2245072965106795 l -5.163566789436021 -13.308694722716485" fill="#ff960d" stroke="none" /><path d="M 107.59598834532513 119.57807347666477 l 5.162172008703082 13.305099783067831 a35.271429503901466,35.271429503901466 0 0,0 -0.5679200319820825,0.21473876111021004 l -4.932381755960725 -13.391986794284671" fill="#ff960d" stroke="none" /><path d="M 107.2578585660854 119.70592522655815 l 4.931251337924595 13.388917578607362 a35.26815873490775,35.26815873490775 0 0,0 -0.5714792642902222,0.2049121319161478 l -4.700052513004638 -13.47181725156347" fill="#ff960d" stroke="none" /><path d="M 106.91757812671514 119.82793768551818 l 4.711509035772314 13.50465522106221 a35.30293781130041,35.30293781130041 0 0,0 -0.5754887680496636,0.19523703576789253 l -4.478350534785424 -13.583755243728225" fill="#ff960d" stroke="none" /><path d="M 106.57524785965236 119.94407469862006 l 3.559113024421557 10.7955194290802 a32.36708077143183,32.36708077143183 0 0,0 -0.5306330967295922,0.16989196073191806 l -3.3727585826010245 -10.855184236471825" fill="#ff6d0a" stroke="none" /><path d="M 105.88484417918355 120.15858648285463 l 10.460733213478663 35.833335384461364 a58.32900834657769,58.32900834657769 0 0,0 -0.9662306666257467,0.2730664378056975 l -9.842371378748311 -36.00809061560558" fill="#4eff2b" stroke="none" /><path d="M 105.53697534728816 120.25689768951611 l 2.976343959305766 10.888886312631888 a32.288333291213455,32.288333291213455 0 0,0 -0.537384812903181,0.1419282133022897 l -2.7884687035910876 -10.93850587523776" fill="#ff6c09" stroke="none" /><path d="M 104.83641907484287 120.43548508189849 l 4.646661822646577 19.63369734671029 a41.17606348117144,41.17606348117144 0 0,0 -0.6911301287825399,0.15729896718439026 l -4.308011544471174 -19.71077304747236" fill="#ffe515" stroke="none" /><path d="M 104.48393922423573 120.51570834832081 l 3.308112237736606 15.135857659730668 a36.49315312236635,36.49315312236635 0 0,0 -0.6148375797170652,0.1288451927835245 l -3.0470831965901626 -15.190558833240734" fill="#ffa70f" stroke="none" /><path d="M 104.13013068566511 120.58985236759428 l 2.9813005566404063 14.862614042143166 a36.15867570649678,36.15867570649678 0 0,0 -0.6113095661907483,0.11715893328948687 l -2.7250233758779534 -14.911730173781121" fill="#ffa20f" stroke="none" /><path d="M 103.7750983002368 120.6578951692458 l 5.5234114657800495 30.22492289261368 a51.72546237381552,51.72546237381552 0 0,0 -0.8772417440722942,0.15251972175451747 l -5.002320750235705 -30.315521192889204" fill="#97ff23" stroke="none" /><path d="M 103.41894727170886 120.7198165907248 l 1.8816043990646087 11.403070871412822 a32.55726872634892,32.55726872634892 0 0,0 -0.5537280365672308,0.08648093131956576 l -1.6850404988888608 -11.433770110079493" fill="#ff700a" stroke="none" /><path d="M 103.06178313531738 120.77559828337769 l 2.067085914195234 14.026122907002403 a35.177622084785654,35.177622084785654 0 0,0 -0.5998143189807841,0.08312879909021466 l -1.8253430040276193 -14.059626271585222" fill="#ff940d" stroke="none" /><path d="M 102.70371172650421 120.8252237178851 l 1.8686482262800506 14.393182890332316 a35.51397808693862,35.51397808693862 0 0,0 -0.6069044206550702,0.0734876733632091 l -1.6206163825736 -14.423216092420876" fill="#ff990e" stroke="none" /><path d="M 102.34483914955558 120.86867818915974 l 1.5892350492053735 14.143927448109228 a35.23293194317321,35.23293194317321 0 0,0 -0.6032673263227767,0.06253112498463566 l -1.3455351262769941 -14.169187941549621" fill="#ff950d" stroke="none" /><path d="M 101.98527174616119 120.90594882070398 l 1.365932286219333 14.383980693557904 a35.44869099964363,35.44869099964363 0 0,0 -0.6079546424831391,0.05245688469316859 l -1.1181333259946522 -14.405361830529737" fill="#ff980e" stroke="none" /><path d="M 101.62511606390274 120.93702456842531 l 0.8781112773797749 11.313061138636359 a32.34708913078529,32.34708913078529 0 0,0 -0.5555030914744894,0.03831074556009089 l -0.6832454251263551 -11.326500228712735" fill="#ff6d0a" stroke="none" /><path d="M 101.26447882468166 120.96189622390904 l 0.7622409685208303 12.636048756109522 a33.65901810808676,33.65901810808676 0 0,0 -0.57863367345267,0.029908751528164027 l -0.5446192266546807 -12.647297314399887" fill="#ff7f0b" stroke="none" /><path d="M 100.90346689309514 120.98055641714683 l 1.6110231336940033 37.41162183597167 a58.44629279294614,58.44629279294614 0 0,0 -1.005497909816947,0.034631381070008134 l -0.9668048722024042 -37.43381001546778" fill="#4dff2c" stroke="none" /><line stroke="#e1ed5e" stroke-width="0.3" x1="102.19456741930631" x2="102.32365962044197" y1="184.97166512339345" y2="189.96999836594603" /><path d="M 102.22038585953345 185.97133177190398 a86.0,86.0 0 0,1 -42.740103519485714,-10.115201625700543" fill="none" id="id67" stroke="none" /><text fill="#e1ed5e" style="font-size:6.75px; font-family:Arial;" text-anchor="middle"><textPath startOffset="22.20632615414155" xlink:href="#id67">July</textPath></text><path d="M 100.54218724476979 120.99299961872073 l 0.24333971982499444 9.421893810273403 a30.42503565994913,30.42503565994913 0 0,0 -0.5236587773313643,0.009015260746495763 l -0.0811212526009622 -9.424686548299057" fill="#ff5107" stroke="none" /><path d="M 100.18074693466247 120.99922214144158 l 0.09863414872488656 11.459339012713185 a32.459763492480334,32.459763492480334 0 0,0 -0.5587621667746762,0.0 l 0.09863414872487868 -11.459339012713185" fill="#ff6e0a" stroke="none" /><path d="M 99.81925306533755 120.99922214144158 l -0.1220033845375044 14.17438242421849 a35.17490747531823,35.17490747531823 0 0,0 -0.6054109269464635,-0.010422698141363066 l 0.36597400137663577 -14.170182248797966" fill="#ff940d" stroke="none" /><path d="M 99.45781275523022 120.99299961872073 l -0.29253345520079616 11.326630740088671 a32.33040774838811,32.33040774838811 0 0,0 -0.5562056353120501,-0.01915684669427489 l 0.4874594421874893 -11.319917094968302" fill="#ff6c0a" stroke="none" /><path d="M 99.09653310690486 120.98055641714683 l -0.668979699059744 15.535230372377228 a36.549627537680315,36.549627537680315 0 0,0 -0.6283262683878813,-0.032477291077269606 l 0.9362940358611141 -15.521413274537757" fill="#ffa70f" stroke="none" /><path d="M 98.73552117531835 120.96189622390904 l -1.782189819519757 29.54424962987085 a50.59795409728388,50.59795409728388 0 0,0 -0.8689288798037563,-0.05992642297564106 l 2.2904814601024435 -29.509194862378923" fill="#a4ff21" stroke="none" /><path d="M 98.37488393609728 120.93702456842531 l -1.1190692957637016 14.417420305912126 a35.46078574511248,35.46078574511248 0 0,0 -0.6081620706405714,-0.05247478246740401 l 1.3670756841458145 -14.396021271166058" fill="#ff980e" stroke="none" /><path d="M 98.01472825383883 120.90594882070398 l -1.0701614903761554 11.269359668747255 a32.320057992743294,32.320057992743294 0 0,0 -0.5533923490479689,-0.05736137966361812 l 1.2639864360297175 -11.249268920627875" fill="#ff6c0a" stroke="none" /><path d="M 97.65516085044442 120.86867818915974 l -1.5154650408461092 13.487386650949297 a34.572259685189934,34.572259685189934 0 0,0 -0.5908112344838417,-0.07153901263761309 l 1.7474036983813401 -13.459302109586336" fill="#ff8c0c" stroke="none" /><path d="M 97.2962882734958 120.8252237178851 l -1.4658008131898401 11.290267953235125 a32.385021848015754,32.385021848015754 0 0,0 -0.5521976379792504,-0.07652956098758405 l 1.6599270423559214 -11.263363826754935" fill="#ff6d0a" stroke="none" /><path d="M 96.93821686468263 120.77559828337769 l -2.1106241401785795 14.321549674028265 a35.47623982002107,35.47623982002107 0 0,0 -0.603373359892141,-0.0942345098152754 l 2.356833363679238 -14.283096856865885" fill="#ff990e" stroke="none" /><path d="M 96.58105272829116 120.7198165907248 l -1.8470058096146447 11.193393338906576 a32.34475583255225,32.34475583255225 0 0,0 -0.548553240821376,-0.09537301231155294 l 2.0394080219080704 -11.159941748074017" fill="#ff6d0a" stroke="none" /><path d="M 95.86986931433489 120.58985236759428 l -6.367259403113619 31.742562420921036 a53.37487083144282,53.37487083144282 0 0,0 -0.8992611926318113,-0.18844892626880339 l 6.912712057174817 -31.628257513925693" fill="#84ff25" stroke="none" /><path d="M 95.51606077576429 120.51570834832081 l -2.4360374266210707 11.145787413893958 a32.40889369832218,32.40889369832218 0 0,0 -0.5439753337679618,-0.12380701493394902 l 2.627532909781895 -11.102203665382323" fill="#ff6d0a" stroke="none" /><path d="M 95.16358092515715 120.4354850818985 l -3.3349003031219913 14.091067035228464 a35.480322172626735,35.480322172626735 0 0,0 -0.5931071692834882,-0.1457713119841456 l 3.57696075714869 -14.031574464930289" fill="#ff990e" stroke="none" /><path d="M 94.46302465271185 120.25689768951611 l -3.2371415743652734 11.84300842345504 a33.27745633633087,33.27745633633087 0 0,0 -0.5512471363890064,-0.1557879470023503 l 3.4405198788588938 -11.785531683114167" fill="#ff7a0b" stroke="none" /><path d="M 94.11515582081647 120.15858648285463 l -4.775875714806282 16.35980506821929 a38.04265855767257,38.04265855767257 0 0,0 -0.6270245793159722,-0.18891736218684732 l 5.056775268562499 -16.275172336926715" fill="#ffbc11" stroke="none" /><path d="M 93.76903079525671 120.05430185196036 l -4.5779269887376595 14.734004722490567 a36.42881429911537,36.42881429911537 0 0,0 -0.597222056515779,-0.1912116428454126 l 4.830870390344379 -14.65302023298545" fill="#ffa60f" stroke="none" /><path d="M 93.42475214034765 119.94407469862007 l -3.0676584547279586 9.30483696993023 a30.797475155969742,30.797475155969742 0 0,0 -0.5020432330953465,-0.17032032265207564 l 3.227371420760531 -9.250653660380031" fill="#ff5608" stroke="none" /><path d="M 93.08242187328487 119.8279376855182 l -5.157884021451651 14.784105230631814 a36.658018235049454,36.658018235049454 0 0,0 -0.5940003119745771,-0.21298737835525952 l 5.411603894055955 -14.693130311236597" fill="#ffa90f" stroke="none" /><path d="M 92.7421414339146 119.70592522655815 l -3.9082044463573156 10.611226974013364 a32.30805906814056,32.30805906814056 0 0,0 -0.5202055657321003,-0.19669723273904893 l 4.0902802328496985 -10.542381491167681" fill="#ff6c09" stroke="none" /><path d="M 92.40401165467489 119.57807347666478 l -3.7138120716697554 9.572063872691881 a31.267268716001013,31.267268716001013 0 0,0 -0.5000960272114521,-0.19899853003319096 l 3.8780291749230655 -9.506718498252622" fill="#ff5d08" stroke="none" /><path d="M 92.06813273071674 119.44442032107085 l -2.7111418891086116 6.646175566507367 a28.17787851692399,28.17787851692399 0 0,0 -0.4475298426765462,-0.1870675105345419 l 2.82514319128262 -6.598523012952852" fill="#ff3004" stroke="none" /><path d="M 91.7346041902142 119.30500536409082 l -5.650508140313921 13.197563972611018 a35.35632045668089,35.35632045668089 0 0,0 -0.5574165106372637,-0.24435501730213707 l 5.876845325608928 -13.09834440201443" fill="#ff970d" stroke="none" /><path d="M 91.40352486487194 119.15986991738527 l -7.323651981002204 16.32299484038617 a38.890669045569844,38.890669045569844 0 0,0 -0.6084204498803353,-0.2792959874014436 l 7.603540426649959 -16.19451178265065" fill="#ffc712" stroke="none" /><path d="M 91.07499286063937 119.00905698771935 l -8.056983186850472 17.160283477253216 a39.95759233375591,39.95759233375591 0 0,0 -0.6200796742276998,-0.29767592580904684 l 8.351175529078414 -17.019053274944607" fill="#ffd513" stroke="none" /><path d="M 90.7491055286396 118.85261126421891 l -4.48245995047055 9.134908544819254 a31.175411604931973,31.175411604931973 0 0,0 -0.4797244017388232,-0.2405437739470632 l 4.639038259892134 -9.056396929962888" fill="#ff5c08" stroke="none" /><path d="M 90.42595943632237 118.69057910512821 l -3.9695822891200487 7.749475396061461 a29.7070059414392,29.7070059414392 0 0,0 -0.45311544103535345,-0.2370485831914151 l 4.1023886326818975 -7.67999739392533" fill="#ff4606" stroke="none" /><path d="M 90.10565033884886 118.52300852407294 l -5.354440026989584 10.023937060864538 a32.364389213802994,32.364389213802994 0 0,0 -0.4891294687745568,-0.26671238588257196 l 5.5261923076327815 -9.930284023222201" fill="#ff6d0a" stroke="none" /><line stroke="#e1ed5e" stroke-width="0.3" x1="58.666819895761336" x2="56.23545636021788" y1="174.27360380694188" y2="178.64263932499728" /><path d="M 58.180547188652646 175.14741091055294 a86.0,86.0 0 0,1 -31.652253787137756,-30.449443065178592" fill="none" id="id68" stroke="none" /><text fill="#e1ed5e" style="font-size:6.75px; font-family:Arial;" text-anchor="middle"><textPath startOffset="22.20632615414155" xlink:href="#id68">August</textPath></text><path d="M 89.7882731507175 118.34994917583269 l -7.029458446409577 12.631576140749086 a35.455794749834425,35.455794749834425 0 0,0 -0.5307415618761446,-0.30136891033717683 l 7.2458487752069285 -12.508704064617277" fill="#ff980e" stroke="none" /><path d="M 89.4739219176387 118.17145234162733 l -5.0703758896874005 8.753126578833266 a31.115628332822467,31.115628332822467 0 0,0 -0.4611515833482824,-0.2724564838960216 l 5.220295344064065 -8.664551522643494" fill="#ff5b08" stroke="none" /><path d="M 89.1626897886671 117.98757091392108 l -15.441515871254229 25.629547953897827 a50.92180042583241,50.92180042583241 0 0,0 -0.7469035099072476,-0.458809139544338 l 15.880398581093786 -25.35995034752511" fill="#a0ff22" stroke="none" /><path d="M 88.8546689885994 117.79835938074946 l -10.682956112327428 17.059977127775184 a41.12879457141253,41.12879457141253 0 0,0 -0.5967948650372905,-0.38090271923855173 l 10.975032779411643 -16.87355997971283" fill="#ffe515" stroke="none" /><path d="M 88.54995079064634 117.60387380957326 l -7.890447933072746 12.131166178862342 a35.471501699675315,35.471501699675315 0 0,0 -0.5089743302762201,-0.33732043258513833 l 8.098096962088928 -11.993547725185888" fill="#ff990e" stroke="none" /><path d="M 88.24862548938628 117.40417183066458 l -6.413300593069231 9.498308935917889 a32.460728473321396,32.460728473321396 0 0,0 -0.46039069028116286,-0.3166609148418253 l 6.575848167973286 -9.38650723171096" fill="#ff6e0a" stroke="none" /><path d="M 87.95078237400918 117.19931262002967 l -5.669282907677015 8.092456463745686 a30.88071962485011,30.88071962485011 0 0,0 -0.43273104199781104,-0.30874210874367525 l 5.807741277523711 -7.993670093157793" fill="#ff5708" stroke="none" /><path d="M 87.65650970185807 116.9893568818739 l -9.27232004947341 12.762253676917583 a36.77501309076677,36.77501309076677 0 0,0 -0.50892245320147,-0.3764886642609339 l 9.490627473093445 -12.600755063916878" fill="#ffab0f" stroke="none" /><path d="M 87.36589467227662 116.77436683061367 l -8.78668441361818 11.666126231783313 a35.60494177463311,35.60494177463311 0 0,0 -0.48638261518116055,-0.3729374489022182 l 8.986195757292828 -11.513149441053727" fill="#ff9a0e" stroke="none" /><path d="M 87.07902340077011 116.55440617244103 l -7.351596398739358 9.418894296878438 a32.94828604385276,32.94828604385276 0 0,0 -0.4440840710722745,-0.3528072439485975 l 7.5126379625289905 -9.29095313892471" fill="#ff750a" stroke="none" /><path d="M 86.79598089348748 116.32954008644616 l -18.707047148216144 23.13518890283682 a50.75215250323119,50.75215250323119 0 0,0 -0.6745924668717749,-0.5551436742141409 l 19.10250974363261 -22.8097501097655" fill="#a2ff22" stroke="none" /><path d="M 86.51685102203217 116.09983520530335 l -5.294508054579524 6.322017750539526 a29.246194514935013,29.246194514935013 0 0,0 -0.3831732280857784,-0.3265485377403599 l 5.402546759242358 -6.229944822576215" fill="#ff3f05" stroke="none" /><path d="M 86.24171649860922 115.8653595955263 l -6.459439392009827 7.448700176107299 a30.859385963263087,30.859385963263087 0 0,0 -0.3983177404737889,-0.35146909435855217 l 6.586699485390203 -7.336407939976458" fill="#ff5708" stroke="none" /><path d="M 85.97065885151581 115.62618273729859 l -9.606245297164577 10.69964318666721 a35.37923200422368,35.37923200422368 0 0,0 -0.44965395054494733,-0.41074822263054106 l 9.78899879717638 -10.53270219745009" fill="#ff970e" stroke="none" /><path d="M 85.70375840098266 115.38237550388516 l -10.845156134235209 11.669099385291334 a36.93064003860944,36.93064003860944 0 0,0 -0.4619217024359296,-0.43677580135212346 l 11.044413671061953 -11.480688947193283" fill="#ffad10" stroke="none" /><path d="M 85.44109423537348 115.13401014063109 l -11.056794911820399 11.493559270431941 a36.94849893955508,36.94849893955508 0 0,0 -0.4545545933655701,-0.44487734066818857 l 11.252999457561764 -11.301531826841181" fill="#ffad10" stroke="none" /><path d="M 85.18274418774928 114.88116024355367 l -10.19396525721508 10.237930183024462 a35.44756526539304,35.44756526539304 0 0,0 -0.42867816752868604,-0.4342487204649164 l 10.368684049799299 -10.060940968578883" fill="#ff980e" stroke="none" /><path d="M 84.9287848128048 114.62390073753433 l -20.605180384926516 19.99361756072391 a49.71094219735479,49.71094219735479 0 0,0 -0.5905978287152072,-0.6192394622288908 l 20.94628476502068 -19.635970981912518" fill="#afff20" stroke="none" /><path d="M 84.67929136418377 114.36230785411682 l -10.789666089427293 10.114708771186262 a35.78932817430358,35.78932817430358 0 0,0 -0.4174630710340629,-0.45307371364959953 l 10.962175568457086 -9.92748380273532" fill="#ff9d0e" stroke="none" /><path d="M 84.43433777217949 114.09645910891817 l -8.544253750718267 7.7377834524734626 a32.527253138282134,32.527253138282134 0 0,0 -0.37226844938259174,-0.4182475492720781 l 8.676181049749196 -7.589561733460518" fill="#ff6f0a" stroke="none" /><path d="M 84.19399662182784 113.82643327865904 l -10.68138491743625 9.343630540314729 a35.19138525403129,35.19138525403129 0 0,0 -0.3949101682710912,-0.45936974335043823 l 10.84063759527812 -9.15838369780276" fill="#ff950d" stroke="none" /><path d="M 83.95833913139862 113.55231037782056 l -12.098819712884788 10.22132067853671 a36.838460621486284,36.838460621486284 0 0,0 -0.4050546626316964,-0.4879144346249718 l 12.27297037541002 -10.011544986797977" fill="#ffab0f" stroke="none" /><path d="M 83.72743513129214 113.27417163493432 l -12.343677045469809 10.069223200508047 a36.929708687371146,36.929708687371146 0 0,0 -0.39757836415460046,-0.4960401397509783 l 12.51517332167927 -9.855255227178809" fill="#ffad10" stroke="none" /><path d="M 83.50135304334701 112.99209946851258 l -23.4446339571748 18.461817940267913 a50.8410720827103,50.8410720827103 0 0,0 -0.5355094547628713,-0.6922181576819637 l 23.75895022915574 -18.055521788472696" fill="#a1ff22" stroke="none" /><path d="M 83.28015986056508 112.70617746262583 l -11.373871676276343 8.643529528433941 a35.28550172788169,35.28550172788169 0 0,0 -0.36333772369835826,-0.486750256696165 l 11.520970666669786 -8.44646639222847" fill="#ff960d" stroke="none" /><path d="M 83.06392112726016 112.41649034213515 l -7.1159655657120195 5.216987850939066 a29.823487302039087,29.823487302039087 0 0,0 -0.29996777047714906,-0.4166289972701381 l 7.2047131285647765 -5.093725248217788" fill="#ff4806" stroke="none" /><path d="M 82.85270091963577 112.12312394758628 l -11.754272977168931 8.310259682771926 a35.395254399172956,35.395254399172956 0 0,0 -0.3474450301243374,-0.500520479568956 l 11.8955789144554 -8.10669794101596" fill="#ff980e" stroke="none" /><path d="M 82.64656182679789 111.8261652097733 l -11.779338960337356 8.027481771421437 a35.25458838174659,35.25458838174659 0 0,0 -0.33743156117875844,-0.504414400646815 l 11.915773626926846 -7.823530456568798" fill="#ff960d" stroke="none" /><path d="M 82.44556493220864 111.52570212397912 l -16.298299574462856 10.700962195433895 a40.49731163332631,40.49731163332631 0 0,0 -0.37757984114807064,-0.5860122984103676 l 16.480084278987974 -10.418828297102081" fill="#ffdc14" stroke="none" /><path d="M 82.24976979558568 111.22182372390057 l -12.19504493942087 7.709795480916813 a35.42775337438438,35.42775337438438 0 0,0 -0.3214399883306247,-0.5182636099094058 l 12.32594956741945 -7.498735539642143" fill="#ff980e" stroke="none" /><path d="M 82.05923443525364 110.91462005526583 l -26.524204714969564 16.13652526070874 a52.04707527692592,52.04707527692592 0 0,0 -0.45905303358382976,-0.7693992889676589 l 26.798038624251625 -15.677563877854972" fill="#93ff23" stroke="none" /><line stroke="#e1ed5e" stroke-width="0.3" x1="26.63291911575756" x2="22.317208475507996" y1="142.92168965132927" y2="145.44649492493687" /><path d="M 25.769776987707644 143.4266507060508 a86.0,86.0 0 0,1 -11.730757126820373,-40.83630448921669" fill="none" id="id69" stroke="none" /><text fill="#e1ed5e" style="font-size:6.75px; font-family:Arial;" text-anchor="middle"><textPath startOffset="21.46611528233685" xlink:href="#id69">September</textPath></text><path d="M 81.69416730710424 110.29060199501025 l -12.635741042295557 7.103166742518199 a35.495410634403186,35.495410634403186 0 0,0 -0.29482080813549255,-0.5351854032584523 l 12.756138259882567 -6.8846108208619246" fill="#ff990e" stroke="none" /><path d="M 81.51974371655577 109.97397251340807 l -13.992826110693162 7.552063178798148 a36.9007182485778,36.9007182485778 0 0,0 -0.29687065679987595,-0.5615674040372783 l 14.120749275717925 -7.310080759674744" fill="#ffac0f" stroke="none" /><path d="M 81.35079622478065 109.6543875284942 l -12.622303909412159 6.534360121359065 a35.21338869436733,35.21338869436733 0 0,0 -0.2740294677031784,-0.540686136960714 l 12.732912046901603 -6.316119772695665" fill="#ff950d" stroke="none" /><path d="M 81.18737489456691 109.33194174019688 l -14.327180515692824 7.106951482019205 a36.99302538286684,36.99302538286684 0 0,0 -0.27805850403117,-0.5728828765126138 l 14.447392276338713 -6.859279649541307" fill="#ffae10" stroke="none" /><path d="M 81.02952815118164 109.00673069616217 l -14.47307386628844 6.871472660151154 a37.02145448011029,37.02145448011029 0 0,0 -0.2683621473038907,-0.578028190675168 l 14.589210630432156 -6.621324402197159" fill="#ffae10" stroke="none" /><path d="M 80.87730276802145 108.67885076344099 l -27.350077734753953 12.41285369678368 a51.03507431312332,51.03507431312332 0 0,0 -0.35617357771380354,-0.8030773906662138 l 27.559692397199036 -11.94022796962477" fill="#9fff22" stroke="none" /><path d="M 80.73074385275274 108.34839909993369 l -14.368481605789858 6.225140087845373 a36.659043162633566,36.659043162633566 0 0,0 -0.2458757266612295,-0.5811775873116446 l 14.473508313643395 -5.97688797486757" fill="#ffa90f" stroke="none" /><path d="M 80.58989483394504 108.01547362559985 l -14.527659715474664 5.9992499934890295 a36.71763014239117,36.71763014239117 0 0,0 -0.23621218299529453,-0.5862592665741821 l 14.628774512727347 -5.748291359072042" fill="#ffaa0f" stroke="none" /><path d="M 80.45479744820244 107.68017299344265 l -13.359073422627727 5.249369744108735 a35.35342208051873,35.35342208051873 0 0,0 -0.2176857005217207,-0.5683086726753998 l 13.44745340274296 -5.018637504600178" fill="#ff970d" stroke="none" /><path d="M 80.32549172779595 107.34259656027581 l -13.342497668867892 4.979467650905737 a35.24139537159761,35.24139537159761 0 0,0 -0.20721225412929342,-0.5701591292418436 l 13.426234184002409 -4.7490607246577765" fill="#ff950d" stroke="none" /><path d="M 80.20201598880116 107.00284435728193 l -13.486621423515427 4.77042059843262 a35.30544896559264,35.30544896559264 0 0,0 -0.1977259293342669,-0.5746841041013006 l 13.566738183792921 -4.537563791242022" fill="#ff960d" stroke="none" /><path d="M 80.0844068197444 106.66101706037122 l -15.234458720154976 5.095353601673192 a37.06397711720824,37.06397711720824 0 0,0 -0.19715873581659893,-0.6067921954330341 l 15.319909706987824 -4.832362506262355" fill="#ffae10" stroke="none" /><path d="M 79.97269907076064 106.31721596034903 l -29.701719271390978 9.368819877125786 a52.144291829588056,52.144291829588056 0 0,0 -0.262641430580845,-0.8583273914696772 l 29.858587474477954 -8.856165513104061" fill="#92ff23" stroke="none" /><path d="M 79.86692584326677 105.97154293290107 l -15.415997583411064 4.57244088539013 a37.07980712390926,37.07980712390926 0 0,0 -0.17623037018139223,-0.6134810378539858 l 15.492420590478561 -4.306402372031548" fill="#ffaf10" stroke="none" /><path d="M 79.76711848015287 105.62410040840567 l -13.831296134510719 3.8446623711296906 a35.35570205557749,35.35570205557749 0 0,0 -0.1579422105771843,-0.5877617215022065 l 13.895426421429676 -3.606009716451945" fill="#ff970d" stroke="none" /><path d="M 79.67330655649465 105.27499134158121 l -14.217214770027969 3.6895171869313637 a35.68814940316728,35.68814940316728 0 0,0 -0.1491912253021697,-0.5959447837674928 l 14.278617309625199 -3.4442445637664787" fill="#ff9c0e" stroke="none" /><path d="M 79.58551787078972 104.9243191809786 l -15.416287309843229 3.718669855000369 a36.858449480012915,36.858449480012915 0 0,0 -0.1434661333892133,-0.6180483477831759 l 15.478014009162997 -3.452752849868619" fill="#ffac0f" stroke="none" /><path d="M 79.50377843672027 104.57218783832718 l -14.022271034308439 3.1280134677922287 a35.36692567024327,35.36692567024327 0 0,0 -0.12743202039048615,-0.5953199749603202 l 14.074037093423366 -2.8861796734157448" fill="#ff970d" stroke="none" /><path d="M 79.4281124754447 104.21870165774334 l -15.522013613723349 3.183117955781501 a36.84503539109432,36.84503539109432 0 0,0 -0.12206245627011303,-0.6223938347945761 l 15.574506002969128 -2.91546039391897" fill="#ffab0f" stroke="none" /><path d="M 79.29508885075956 103.50808413554451 l -26.25469326850204 4.448397400739296 a47.62887827262032,47.62887827262032 0 0,0 -0.1300001783012492,-0.8095112343767525 l 26.327375201164582 -3.99580693666933" fill="#c7ff1e" stroke="none" /><path d="M 79.23777060512086 103.15116336523772 l -14.131150056497587 2.144738964193078 a35.292981044686925,35.292981044686925 0 0,0 -0.0859904222668852,-0.6014168130548146 l 14.16597452978107 -1.9011766791578628" fill="#ff960d" stroke="none" /><path d="M 79.18660465613746 102.79330883721812 l -14.277569754783954 1.9161535689464777 a35.405576788261826,35.405576788261826 0 0,0 -0.07586654855793373,-0.6047310377696834 l 14.308437812588737 -1.6701047768893857" fill="#ff980e" stroke="none" /><path d="M 79.10278846688536 102.07522291339032 l -16.396985851884445 1.6283225489891833 a37.47763876744618,37.47763876744618 0 0,0 -0.05822490930332687,-0.6425070223587809 l 16.422585357464847 -1.3458341380818362" fill="#ffb410" stroke="none" /><path d="M 79.07016306316243 101.71520430193888 l -11.26627293845821 0.9232733092559344 a32.3040408495113,32.3040408495113 0 0,0 -0.04064685372818936,-0.5545940250454681 l 11.280496350850735 -0.7292061477137057" fill="#ff6c09" stroke="none" /><path d="M 79.04373962182676 101.35467743843564 l -29.757677174038278 1.9236282218514285 a50.81978699337375,50.81978699337375 0 0,0 -0.04891682582164004,-0.8734427855103352 l 29.78638035074745 -1.4111137200056556" fill="#a2ff22" stroke="none" /><path d="M 79.0235259727143 100.99374915477108 l -10.430256266299187 0.49412777072056724 a31.44195422487911,31.44195422487911 0 0,0 -0.020958109435165788,-0.5408356792557489 l 10.437216508585553 -0.31451484445082156" fill="#ff6008" stroke="none" /><path d="M 79.0095281055655 100.63252640178507 l -15.864891245934128 0.4780722713129174 a36.87209272093367,36.87209272093367 0 0,0 -0.013656610755048332,-0.634569039165528 l 15.870769919374185 -0.2049134163572605" fill="#ffac0f" stroke="none" /><line stroke="#e1ed5e" stroke-width="0.3" x1="15.007084014347285" x2="10.007500721073583" y1="101.09737516637583" y2="101.16192664675087" /><path d="M 14.007167355692545 101.11028546245083 a86.0,86.0 0 0,1 10.666146001902534,-42.60595125391555" fill="none" id="id70" stroke="none" /><text fill="#e1ed5e" style="font-size:6.75px; font-family:Arial;" text-anchor="middle"><textPath startOffset="22.20632615414155" xlink:href="#id70">October</textPath></text><path d="M 79.00175016825051 100.2711162175752 l -19.842486385447952 0.25619372563022447 a40.84414022278969,40.84414022278969 0 0,0 -0.0030257780786910916,-0.7030842648313569 l 19.84395646081615 0.08540001740480782" fill="#ffe115" stroke="none" /><path d="M 79.00019446554 99.90962569577889 l -21.41053562472819 -0.09214191326253515 a42.41073389377241,42.41073389377241 0 0,0 0.009425266343556936,-0.7299972653164069 l 21.405777351266916 0.460675436639414" fill="#fff517" stroke="none" /><path d="M 79.00486145842228 99.54816195383935 l -10.521284287645647 -0.22642939584400082 a31.523720508107456,31.523720508107456 0 0,0 0.016344757180339134,-0.5424029182766736 l 10.515827836009663 0.4075024615456689" fill="#ff6108" stroke="none" /><path d="M 79.03285615573316 98.82574320788736 l -14.779892483746728 -0.8277421695888155 a35.80305302734637,35.80305302734637 0 0,0 0.03975743032549395,-0.6150298500801891 l 14.76345446241682 1.0820310839220164" fill="#ff9d0e" stroke="none" /><path d="M 79.05617556472873 98.46500227214037 l -15.818368081100756 -1.1593469539424408 a36.86079613729408,36.86079613729408 0 0,0 0.051825430132280755,-0.6324015166146828 l 15.796068167148977 1.431462387764902" fill="#ffac0f" stroke="none" /><path d="M 79.12142395522702 97.74499172005258 l -15.612783462400545 -1.6862718944644506 a36.7035830416459,36.7035830416459 0 0,0 0.07324924803708761,-0.6275548246198275 l 15.581443861359869 1.9547704574091398" fill="#ffaa0f" stroke="none" /><path d="M 79.16333360222342 97.38593545837743 l -15.669763913456492 -1.9658506519130299 a36.792595413328684,36.792595413328684 0 0,0 0.08424453297710638,-0.6277196230681719 l 15.633603381421551 2.2352886170458612" fill="#ffab0f" stroke="none" /><path d="M 79.21141760316559 97.0276538004421 l -14.845478501420374 -2.122602723071424 a35.99645538972876,35.99645538972876 0 0,0 0.09298074104608813,-0.6126269098584534 l 14.806741866934983 2.3778287453219695" fill="#ffa00e" stroke="none" /><path d="M 79.26566170972629 96.67025291283419 l -15.161703138542027 -2.4348323132026315 a36.355964653993276,36.355964653993276 0 0,0 0.10454614419482014,-0.6170372610557445 l 15.117545132826983 2.695455362574204" fill="#ffa50f" stroke="none" /><path d="M 79.32604984820605 96.31383870115002 l -14.295254821937986 -2.5488411597652005 a35.520705963618106,35.520705963618106 0 0,0 0.1125063830181295,-0.6010135968037831 l 14.249262715009994 2.7945328340315565" fill="#ff990e" stroke="none" /><path d="M 79.3925641242962 95.95851677861259 l -28.993194351272297 -5.686079006231015 a50.54550411070606,50.54550411070606 0 0,0 0.17479286175481,-0.8523520703378012 l 28.891022193602492 6.184306732732218" fill="#a5ff21" stroke="none" /><path d="M 79.46518482838121 95.60439243477599 l -15.954330965830886 -3.415125838990715 a37.31575193067768,37.31575193067768 0 0,0 0.13985519667542315,-0.626943423847683 l 15.893181382153426 3.689247432388357" fill="#ffb210" stroke="none" /><path d="M 79.54389044137918 95.25157060432595 l -13.428552452857957 -3.117138819860751 a34.78559303771297,34.78559303771297 0 0,0 0.14041320538446792,-0.5821033866161145 l 13.372906447212674 3.3478274381362625" fill="#ff8f0d" stroke="none" /><path d="M 79.62865764111835 94.90015583598534 l -13.816816256550903 -3.4589576135866493 a35.243201860532565,35.243201860532565 0 0,0 0.15239104788436025,-0.5872248717192037 l 13.755228876796235 3.696278910854717" fill="#ff950d" stroke="none" /><path d="M 79.71946130924805 94.55025226153421 l -15.066831091525502 -4.048730160423696 a36.60133375876832,36.60133375876832 0 0,0 0.1687377772745163,-0.6070395632366511 l 14.994906543684625 4.307481027079289" fill="#ffa80f" stroke="none" /><path d="M 79.81627453868168 94.20196356495316 l -3.8797526180138386 -1.1145091663738547 a25.03665840255484,25.03665840255484 0 0,0 0.12255337332434613,-0.4131890503043258 l 3.8599933475777854 1.1811276034247198" fill="#ff0000" stroke="none" /><path d="M 79.91906864156998 93.8553929516997 l -15.931610576759047 -4.874947525759727 a37.660772159429214,37.660772159429214 0 0,0 0.1950191642568108,-0.6182640444864735 l 15.845335928734032 5.148461736672615" fill="#ffb710" stroke="none" /><path d="M 80.14247586403 93.16781622104843 l -13.982064181396096 -4.810671836140655 a35.786503382737806,35.786503382737806 0 0,0 0.20542632054182722,-0.5807678711775789 l 13.897184780044459 5.050637333744844" fill="#ff9d0e" stroke="none" /><path d="M 80.2630227832202 92.82701384747504 l -13.764154690254854 -5.002290366453484 a35.64496033615585,35.64496033615585 0 0,0 0.21454092521578957,-0.5748630165410864 l 13.676009176537436 5.238476520023911" fill="#ff9b0e" stroke="none" /><path d="M 80.38941819471856 92.48833698450439 l -14.388556587553015 -5.511411616353964 a36.407992039136595,36.407992039136595 0 0,0 0.2292081611157095,-0.5833097691102206 l 14.291554876555614 5.758270390359948" fill="#ffa60f" stroke="none" /><path d="M 80.52162464483688 92.15188598940014 l -25.044123871892296 -10.090633117925666 a48.00053735078737,48.00053735078737 0 0,0 0.3153825320103621,-0.7637238171811288 l 24.866719652995734 10.520231505560107" fill="#c3ff1e" stroke="none" /><path d="M 80.65960295795068 91.81776055985345 l -13.237802688866276 -5.600447137989183 a35.373740924852044,35.373740924852044 0 0,0 0.24207310469140006,-0.5587381011402592 l 13.139438874332196 5.827484383716041" fill="#ff970d" stroke="none" /><path d="M 80.803312248108 91.48605970444005 l -31.230474528729133 -13.851055920488111 a55.16422528613942,55.16422528613942 0 0,0 0.3924479735362343,-0.8647070887368956 l 30.987424238229547 14.386585018067079" fill="#70ff27" stroke="none" /><path d="M 80.95270993114464 91.15688171328213 l -14.383428254025208 -6.67781909967566 a36.85800353974874,36.85800353974874 0 0,0 0.272120544770941,-0.5731552666787173 l 14.266349515412516 6.92441678199491" fill="#ffac0f" stroke="none" /><path d="M 81.10775173730289 90.83032412892265 l -10.233584229946356 -4.967045164934754 a32.375314670896294,32.375314670896294 0 0,0 0.2476557204458079,-0.49925882026184115 l 10.146568496547136 5.142463573695556" fill="#ff6d0a" stroke="none" /><path d="M 81.26839172434947 90.50648371742162 l -12.948235199485588 -6.562398694657837 a35.51626230848852,35.51626230848852 0 0,0 0.2810698935753231,-0.5429375716372344 l 12.83335587275015 6.784308988555407" fill="#ff990e" stroke="none" /><line stroke="#e1ed5e" stroke-width="0.3" x1="26.266209847984257" x2="21.92892807433627" y1="57.711370442889674" y2="55.22380399835377" /><path d="M 25.39875349325466 57.213857153982495 a86.0,86.0 0 0,1 29.58750427330802,-30.492523968695096" fill="none" id="id71" stroke="none" /><text fill="#e1ed5e" style="font-size:6.75px; font-family:Arial;" text-anchor="middle"><textPath startOffset="21.46611528233685" xlink:href="#id71">November</textPath></text><path d="M 81.78341655067847 89.55222093294921 l -12.62279199301837 -7.239565109411631 a35.55150097661471,35.55150097661471 0 0,0 0.3090277410161814,-0.528228582210691 l 12.496304577531863 7.455773103976214" fill="#ff9a0e" stroke="none" /><path d="M 82.15384107792192 88.93136811851018 l -50.89697643606524 -31.567571403542548 a80.89168368522576,80.89168368522576 0 0,0 0.7440971895803001,-1.176983058589445 l 50.34605165023897 32.43900210984621" fill="#49f0ff" stroke="none" /><path d="M 82.34701348167596 88.62581576622439 l -9.554828771428394 -6.1563737476146985 a32.36642822401282,32.36642822401282 0 0,0 0.3057908695757389,-0.4657404734695274 l 9.447441266494733 6.319932285061893" fill="#ff6d0a" stroke="none" /><path d="M 82.54541684631803 88.32363383020206 l -11.97335379872677 -8.009659239841747 a35.405410175620375,35.405410175620375 0 0,0 0.34322263308187306,-0.503636862599193 l 11.833706699976156 8.214574125711357" fill="#ff980e" stroke="none" /><path d="M 82.7489923806493 88.02491185347247 l -11.538397447938316 -8.009580052224806 a35.04592425864482,35.04592425864482 0 0,0 0.348268672385157,-0.4926013386919687 l 11.398816155749282 8.20700789124856" fill="#ff930d" stroke="none" /><path d="M 82.95767976084542 87.72973835380427 l -9.210885778327224 -6.631724841881322 a32.3498982902851,32.3498982902851 0 0,0 0.3292563212388233,-0.4491052521440579 l 9.09536684457477 6.789292537696881" fill="#ff6d0a" stroke="none" /><path d="M 83.17141714833178 87.43820079747576 l -9.215089421256128 -6.87866019161855 a32.49929732955472,32.49929732955472 0 0,0 0.3384942024659005,-0.44541869260071176 l 9.095319278566116 7.036263660100289" fill="#ff6f0a" stroke="none" /><path d="M 83.39014120810768 87.1503855733568 l -23.817560791982007 -18.425591487237227 a51.112765129331905,51.112765129331905 0 0,0 0.544341016701612,-0.6912578125153189 l 23.496865694686427 18.832841693705593" fill="#9eff22" stroke="none" /><path d="M 83.6137871275137 86.86637796730984 l -13.751788799157813 -11.02211949563893 a38.6238138140638,38.6238138140638 0 0,0 0.4202666522987733,-0.515197222829967 l 13.560023654782647 11.25720088807698" fill="#ffc412" stroke="none" /><path d="M 83.84228863543731 86.58626213691792 l -9.126805321303443 -7.576851160731229 a32.862008636181606,32.862008636181606 0 0,0 0.3650646587769349,-0.4321214086710597 l 8.995030049039384 7.7328315190314045" fill="#ff740a" stroke="none" /><path d="M 84.07557802195018 86.31012108654704 l -8.958098885990017 -7.701082602117767 a32.813306433671166,32.813306433671166 0 0,0 0.37189685305367765,-0.425142391911804 l 8.824210169358496 7.854140550232511" fill="#ff730a" stroke="none" /><path d="M 84.5562425177563 85.77008943001954 l -11.823062597337232 -10.893794700986675 a37.076677895877616,37.076677895877616 0 0,0 0.4365031604112678,-0.4656311372240244 l 11.633792114955508 11.095695255088748" fill="#ffaf10" stroke="none" /><path d="M 84.80347519578584 85.50635884689758 l -10.490840760490435 -10.005608738566544 a35.49723925757062,35.49723925757062 0 0,0 0.42552017433386247,-0.4385359439303603 l 10.317056322453455 10.184708878047026" fill="#ff990e" stroke="none" /><path d="M 85.05521093208273 85.24692304244772 l -10.1859921801846 -10.055326029719046 a35.31307158714464,35.31307158714464 0 0,0 0.43075927270263303,-0.428909455490798 l 10.011397107314654 10.229171335859956" fill="#ff960d" stroke="none" /><path d="M 85.31137513191541 84.99185889309783 l -42.22523827472926 -43.143748308029416 a81.36848321288396,81.36848321288396 0 0,0 1.009421586609389,-0.9710627665545558 l 41.47633344450744 43.86419416134628" fill="#4aebff" stroke="none" /><path d="M 85.83668400450813 84.49514656593479 l -9.78990483632057 -10.717196429770484 a35.51552741096575,35.51552741096575 0 0,0 0.4549184115849469,-0.40843024161095615 l 9.603975437139653 10.884125680150719" fill="#ff990e" stroke="none" /><path d="M 86.10567301691215 84.25364557470407 l -7.544663082378073 -8.550319785850384 a32.40306579244824,32.40306579244824 0 0,0 0.4214037243225816,-0.3654371571512858 l 7.396365559408718 8.67892193642135" fill="#ff6d0a" stroke="none" /><path d="M 86.37877921826538 84.01681056812374 l -7.960106975597693 -9.340418140757533 a33.27219271797634,33.27219271797634 0 0,0 0.4391017828871959,-0.3677351152767777 l 7.798147655751387 9.476054413428123" fill="#ff7a0b" stroke="none" /><path d="M 86.65592168130627 83.78471172551755 l -7.359144441796187 -8.942592041753082 a32.58131941276318,32.58131941276318 0 0,0 0.43611895986724736,-0.3526445355052746 l 7.204122083364439 9.06794267452249" fill="#ff700a" stroke="none" /><path d="M 86.93701828274178 83.55741782278169 l -8.605779441380088 -10.832231011772976 a34.83461847996165,34.83461847996165 0 0,0 0.4727015342967106,-0.36895104538607604 l 8.41804535192395 10.978760446382275" fill="#ff900d" stroke="none" /><path d="M 87.22198572758235 83.33499621200491 l -19.02815904077821 -24.816402277593042 a52.27178694101881,52.27178694101881 0 0,0 0.7187466442448165,-0.541345071264577 l 18.598166242775 25.140263938363475" fill="#91ff24" stroke="none" /><path d="M 87.51073957382395 83.11751280151077 l -6.763216304817201 -9.142247722481804 a32.3719738042685,32.3719738042685 0 0,0 0.4508254932348064,-0.32754389354408353 l 6.60484549522861 9.257310850842556" fill="#ff6d0a" stroke="none" /><path d="M 87.80319425747017 82.90503203632743 l -7.746551983666978 -10.857519647783086 a34.337720964904406,34.337720964904406 0 0,0 0.4841109483511231,-0.3391506568125482 l 7.558509895732198 10.989255147359577" fill="#ff890c" stroke="none" /><path d="M 88.09926311788651 82.69761687909137 l -4.92448773356666 -7.159672067739512 a29.689734377736634,29.689734377736634 0 0,0 0.42356690685174647,-0.2859942662682341 l 4.800516132308374 7.2433782463064125" fill="#ff4606" stroke="none" /><path d="M 88.39885842347998 82.49532879139004 l -8.006579308815427 -12.080926465903449 a35.49324313267799,35.49324313267799 0 0,0 0.5121725252884207,-0.3331312574532394 l 7.797439757742719 12.216956647516223" fill="#ff990e" stroke="none" /><path d="M 89.00827224532344 82.1063720568725 l -7.47984430451021 -12.176570785287375 a35.29044949988725,35.29044949988725 0 0,0 0.5203458031140707,-0.313502524187302 l 7.26913643517849 12.303519918933297" fill="#ff960d" stroke="none" /><line stroke="#e1ed5e" stroke-width="0.3" x1="56.762969772571076" x2="54.21961505331055" y1="26.818313649435495" y2="22.513508569990535" /><path d="M 56.25429882871897 25.957352633546506 a86.0,86.0 0 0,1 42.265352541879196,-11.944610805530505" fill="none" id="id72" stroke="none" /><text fill="#e1ed5e" style="font-size:6.75px; font-family:Arial;" text-anchor="middle"><textPath startOffset="22.20632615414155" xlink:href="#id72">December</textPath></text><path d="M 89.3179101791058 81.91981866633112 l -8.27184587461834 -14.000675512457068 a37.26168346077845,37.26168346077845 0 0,0 0.555027444779733,-0.3215077205590997 l 8.029621697373285 14.140987390406215" fill="#ffb110" stroke="none" /><path d="M 89.63071344664047 81.73862282372117 l -2.83013379886509 -4.984155900645436 a26.73161995961153,26.73161995961153 0 0,0 0.4020892764439148,-0.22376224700821654 l 2.743920433349131 5.032133545213837" fill="#ff1a02" stroke="none" /><path d="M 89.94658935756843 81.56283822128135 l -6.874318211917805 -12.60695713120356 a35.359373906501254,35.359373906501254 0 0,0 0.5368815010355101,-0.28678350446933437 l 6.656291664353989 12.723419362174646" fill="#ff970d" stroke="none" /><path d="M 90.58718382345135 81.22770947309562 l -5.119594414548634 -10.210176415562694 a32.42181900602484,32.42181900602484 0 0,0 0.5010386592020253,-0.24585749408343038 l 4.943084488336183 10.296789069780953" fill="#ff6e0a" stroke="none" /><path d="M 90.91171255644093 81.06846463323043 l -5.324324400774943 -11.090938344920085 a33.30273724402444,33.30273724402444 0 0,0 0.5189229166480394,-0.2436412673629029 l 5.132623272827295 11.180944594922996" fill="#ff7a0b" stroke="none" /><path d="M 91.23893434514133 80.91482961587045 l -13.016371210117248 -28.354959557961852 a52.1998341504121,52.1998341504121 0 0,0 0.8198304150416497,-0.36783400974618996 l 12.526358676608824 28.57481389822457" fill="#92ff23" stroke="none" /><path d="M 91.56875222667455 80.76684994638697 l -6.545920699464349 -14.932389420479865 a37.30415074784746,37.30415074784746 0 0,0 0.59032262834993,-0.25274534177862473 l 6.28791431332411 15.042854290221277" fill="#ffb210" stroke="none" /><path d="M 92.23578459929587 80.48803036053334 l -4.8971851630339645 -12.306939373590735 a34.24549656548511,34.24549656548511 0 0,0 0.5495861364530574,-0.21323088261086853 l 4.6846158615812294 12.389412960092155" fill="#ff870c" stroke="none" /><path d="M 93.25333710446033 80.11325718540243 l -4.562914800608231 -13.449836538388098 a35.20275657705113,35.20275657705113 0 0,0 0.5755100493962219,-0.1897366148935838 l 4.3307219289696 13.526386877540913" fill="#ff950d" stroke="none" /><path d="M 93.59665428221793 80.00007090966166 l -2.7336702321650974 -8.538225672845261 a29.965168742341636,29.965168742341636 0 0,0 0.4925911694784566,-0.15305047416790166 l 2.586293689975912 8.584016281895689" fill="#ff4a06" stroke="none" /><path d="M 93.94186890950719 79.89281104454417 l -9.003238395397876 -29.88212254293656 a52.208965847580465,52.208965847580465 0 0,0 0.86271532722163,-0.25185026122792775 l 8.487532850452824 30.032671133083184" fill="#91ff23" stroke="none" /><path d="M 94.28887869178378 79.79150937346287 l -2.7536339625791313 -9.743583285761964 a31.125211861805617,31.125211861805617 0 0,0 0.5168298606938309,-0.14126912428871896 l 2.585506212661578 9.78953895087698" fill="#ff5b08" stroke="none" /><path d="M 94.98787191387505 79.60689891045804 l -3.4061196651639127 -13.858652744141553 a35.27108640069559,35.27108640069559 0 0,0 0.5908348919458382,-0.13983152981383054 l 3.1670610862555404 13.915230186096254" fill="#ff960d" stroke="none" /><path d="M 95.33964822691252 79.52364482259891 l -3.167834596469638 -13.918628785740315 a35.27457191322489,35.27457191322489 0 0,0 0.5932129392154869,-0.12965337200702698 l 2.9277789331006305 13.971095655843211" fill="#ff960d" stroke="none" /><path d="M 95.692805502759 79.44645832069477 l -3.01070397702457 -14.366806448016787 a35.67887822526123,35.67887822526123 0 0,0 0.6021806150268638,-0.12079176635328688 l 2.7629569525305695 14.416502170447284" fill="#ff9b0e" stroke="none" /><path d="M 96.40284397218896 79.31037775812273 l -5.140234835848664 -29.56488853027691 a51.00840962089413,51.00840962089413 0 0,0 0.8663433310989148,-0.14295407274742397 l 4.630562298610863 29.64898886596396" fill="#9fff22" stroke="none" /><path d="M 96.75951476605007 79.25152402106235 l -1.841083113969226 -11.788255772687334 a32.931159256117525,32.931159256117525 0 0,0 0.5608192409729452,-0.08265017789385505 l 1.637894892567632 11.818200434742158" fill="#ff750a" stroke="none" /><path d="M 97.11714578562143 79.19881850522333 l -1.9980292841538396 -14.416743505193779 a35.554539302735876,35.554539302735876 0 0,0 0.6069418416533006,-0.07879847039409207 l 1.7495727139926813 14.449000298752008" fill="#ff9a0e" stroke="none" /><path d="M 97.47563105711357 79.15227682838746 l -1.080058441932244 -8.919757735895912 a29.984909810624927,29.984909810624927 0 0,0 0.5129322855349805,-0.05763391879885583 l 0.9263594528875457 8.937027608165366" fill="#ff4a06" stroke="none" /><path d="M 97.83486435360386 79.11191278185805 l -1.051395620311572 -10.14331063016564 a31.197655774267027,31.197655774267027 0 0,0 0.5346310669927096,-0.050769661832781386 l 0.8766394262286261 10.159905836513602" fill="#ff5c08" stroke="none" /><path d="M 98.19473922651362 79.07773832637324 l -1.2206354230837442 -14.146684016478952 a35.19924714547176,35.19924714547176 0 0,0 0.6041025713470417,-0.04688998619324253 l 0.9769426623743683 14.165599264860656" fill="#ff950d" stroke="none" /><path d="M 98.55514903715128 79.0497635885617 l -2.155137869413864 -31.24934614324748 a52.323573449028416,52.323573449028416 0 0,0 0.8990633828922341,-0.05423395849165491 l 1.616912437682007 31.28181337111944" fill="#90ff24" stroke="none" /><path d="M 98.91598698831166 79.02799685794201 l -0.8067184368552072 -15.60728645326235 a36.6281216104351,36.6281216104351 0 0,0 0.6299324719984453,-0.027126217342410653 l 0.5379451324674378 15.618860397128955" fill="#ffa90f" stroke="none" /><path d="M 99.27714615592234 79.0124445844662 l -0.39320169930212745 -11.416336125479392 a32.42310544931893,32.42310544931893 0 0,0 0.5579450816024589,-0.014410075359461207 l 0.19662998250478958 11.421412992981212" fill="#ff6e0a" stroke="none" /><path d="M 99.63851952072746 79.00311137660856 l -0.30223189874761885 -17.555386474010152 a38.55798787938069,38.55798787938069 0 0,0 0.6637123780201503,-0.005712781979095308 l 4.300466731190317e-15 17.55798787938069" fill="#ffc312" stroke="none" /></svg>