<?xml version="1.0" encoding="utf-8" ?>
<svg baseProfile="full" height="200mm" version="1.1" viewBox="0,0,200,200" width="200mm" xmlns="http://www.w3.org/2000/svg" xmlns:ev="http://www.w3.org/2001/xml-events" xmlns:xlink="http://www.w3.org/1999/xlink"><defs /><rect fill="#1a1a1a" height="200" width="200" x="0" y="0" /><text alignment-baseline="middle" fill="#e1ed5e" style="dominant-baseline: central; font-size:9.0px; font-family:Arial;" text-anchor="middle" x="100.0" y="100.0">2018</text><line stroke="#e1ed5e" stroke-width="0.3" x1="100.0" x2="100.0" y1="15.0" y2="10.0" /><path d="M 100.0 14.0 a86.0,86.0 0 0,1 42.46469731375804,11.215312516191453" fill="none" id="id1" stroke="none" /><text fill="#e1ed5e" style="font-size:6.75px; font-family:Arial;" text-anchor="middle"><textPath startOffset="22.20632615414155" xlink:href="#id1">January</textPath></text><line stroke="#e1ed5e" stroke-width="0.3" x1="143.23703022742887" x2="145.7803849466894" y1="26.81831364943548" y2="22.513508569990506" /><path d="M 143.74570117128098 25.957352633546492 a86.0,86.0 0 0,1 28.547481713284135,27.462654790039103" fill="none" id="id2" stroke="none" /><text fill="#e1ed5e" style="font-size:6.75px; font-family:Arial;" text-anchor="middle"><textPath startOffset="19.985693538727396" xlink:href="#id2">February</textPath></text><line stroke="#e1ed5e" stroke-width="0.3" x1="172.23445277983987" x2="176.4835382374775" y1="55.19839476539836" y2="52.563006222186495" /><path d="M 173.08426987136738 54.67131705675599 a86.0,86.0 0 0,1 12.851231095245387,41.99856678651699" fill="none" id="id3" stroke="none" /><text fill="#e1ed5e" style="font-size:6.75px; font-family:Arial;" text-anchor="middle"><textPath startOffset="22.20632615414155" xlink:href="#id3">March</textPath></text><line stroke="#e1ed5e" stroke-width="0.3" x1="184.98032266829074" x2="189.97916517819016" y1="98.17113171792111" y2="98.06355123074" /><path d="M 185.9800911702706 98.14961562048488 a86.0,86.0 0 0,1 -9.607161424134198,41.387399972396054" fill="none" id="id4" stroke="none" /><text fill="#e1ed5e" style="font-size:6.75px; font-family:Arial;" text-anchor="middle"><textPath startOffset="21.466115282336823" xlink:href="#id4">April</textPath></text><line stroke="#e1ed5e" stroke-width="0.3" x1="174.80103733775053" x2="179.2010983576182" y1="140.37084112569926" y2="142.7455964860345" /><path d="M 175.68104954172406 140.8457921977663 a86.0,86.0 0 0,1 -30.038265399797805,32.042727171017184" fill="none" id="id5" stroke="none" /><text fill="#e1ed5e" style="font-size:6.75px; font-family:Arial;" text-anchor="middle"><textPath startOffset="22.206326154141568" xlink:href="#id5">May</textPath></text><line stroke="#e1ed5e" stroke-width="0.3" x1="143.8653032363475" x2="146.44561519142675" y1="172.8068346515853" y2="177.08958963109032" /><path d="M 144.38136562736335 173.6633856474863 a86.0,86.0 0 0,1 -40.68145358897372,12.25698825130547" fill="none" id="id6" stroke="none" /><text fill="#e1ed5e" style="font-size:6.75px; font-family:Arial;" text-anchor="middle"><textPath startOffset="21.466115282336833" xlink:href="#id6">June</textPath></text><line stroke="#e1ed5e" stroke-width="0.3" x1="102.19456741930631" x2="102.32365962044197" y1="184.97166512339345" y2="189.96999836594603" /><path d="M 102.22038585953345 185.97133177190398 a86.0,86.0 0 0,1 -42.740103519485714,-10.115201625700543" fill="none" id="id7" stroke="none" /><text fill="#e1ed5e" style="font-size:6.75px; font-family:Arial;" text-anchor="middle"><textPath startOffset="22.20632615414155" xlink:href="#id7">July</textPath></text><line stroke="#e1ed5e" stroke-width="0.3" x1="58.666819895761336" x2="56.23545636021788" y1="174.27360380694188" y2="178.64263932499728" /><path d="M 58.180547188652646 175.14741091055294 a86.0,86.0 0 0,1 -31.652253787137756,-30.449443065178592" fill="none" id="id8" stroke="none" /><text fill="#e1ed5e" style="font-size:6.75px; font-family:Arial;" text-anchor="middle"><textPath startOffset="22.20632615414155" xlink:href="#id8">August</textPath></text><path d="M 89.4739219176387 118.17145234162733 l -7.58195274128815 13.088929401508066 a36.12633730447623,36.12633730447623 0 0,0 -0.535413184343758,-0.3163315467306984 l 7.806133796660291 -12.956479282483619" fill="#ff7a0b" stroke="none" /><path d="M 89.1626897886671 117.98757091392108 l -16.60593713399735 27.56223324469687 a53.178157957430464,53.178157957430464 0 0,0 -0.7799989885797045,-0.47913908563657626 l 17.077915322509362 -27.272305692231917" fill="#9bff22" stroke="none" /><path d="M 88.8546689885994 117.79835938074946 l -33.435993034201786 53.395078142248366 a84.0,84.0 0 0,0 -1.2188727918123061,-0.7779422847047832 l 34.350147628061016 -52.81162142871978" fill="#4dd2ff" stroke="none" /><path d="M 88.54995079064634 117.60387380957326 l -23.036865782270016 35.4180205503282 a63.250838628053216,63.250838628053216 0 0,0 -0.9075751430737237,-0.6014913162693358 l 23.643115624083702 -35.01623121296755" fill="#30ff39" stroke="none" /><path d="M 88.24862548938628 117.40417183066458 l -25.678236698658655 38.03031240373537 a66.8876508603137,66.8876508603137 0 0,0 -0.9486679196424804,-0.6525024455460201 l 26.329061502924027 -37.582669168824246" fill="#35ff68" stroke="none" /><path d="M 87.95078237400918 117.19931262002967 l -22.884818018629137 32.6662818759176 a60.8848450835988,60.8848450835988 0 0,0 -0.8531783836313009,-0.6087201234298802 l 23.443723730109323 -32.2675174906435" fill="#42ff2d" stroke="none" /><path d="M 87.36589467227662 116.77436683061367 l -20.869988016204598 27.70919077001321 a55.689417016224255,55.689417016224255 0 0,0 -0.7607473270905099,-0.583308610482806 l 21.343864071788595 -27.345842817703037" fill="#7dff26" stroke="none" /><path d="M 86.79598089348748 116.32954008644616 l -19.1763205549774 23.715543933028464 a51.498496586990186,51.498496586990186 0 0,0 -0.6845127967842073,-0.5633074303594507 l 19.5817034803063 -23.38194138381183" fill="#b0ff20" stroke="none" /><path d="M 85.44109423537348 115.13401014063109 l -27.42596195384342 28.50933944050269 a60.559648942166675,60.559648942166675 0 0,0 -0.7450280089673306,-0.7291667143843816 l 27.912639915186546 -28.033022623195734" fill="#45ff2d" stroke="none" /><path d="M 85.18274418774928 114.88116024355367 l -20.78839368903956 20.87805067365484 a50.4626935649509,50.4626935649509 0 0,0 -0.6102606721794807,-0.6181908389964037 l 21.144694986274573 -20.517119340677773" fill="#bdff1f" stroke="none" /><path d="M 84.9287848128048 114.62390073753433 l -6.4209387742097705 6.230364977842505 a29.946837569738086,29.946837569738086 0 0,0 -0.3557876085984836,-0.3730418851953953 l 6.527232934187211 -6.11891597606461" fill="#ff1a02" stroke="none" /><path d="M 84.43433777217949 114.09645910891817 l -14.313687815427805 12.962655365049013 a40.31093195551578,40.31093195551578 0 0,0 -0.4613512265683915,-0.5183329938003611 l 14.534697891644536 -12.714348201507786" fill="#ffb811" stroke="none" /><path d="M 84.19399662182784 113.82643327865904 l -25.516047223523074 22.32037511508825 a54.90085266171502,54.90085266171502 0 0,0 -0.6160855790801997,-0.71664671381594 l 25.89647531217405 -21.87785130211078" fill="#86ff25" stroke="none" /><path d="M 83.95833913139862 113.55231037782056 l -14.777608842316107 12.484414382870217 a40.34524038567926,40.34524038567926 0 0,0 -0.4436132090623897,-0.5343606877293307 l 14.990318051272032 -12.228192438027124" fill="#ffb811" stroke="none" /><path d="M 83.72743513129214 113.27417163493432 l -16.26364664334194 13.26689668749111 a41.988490890391574,41.988490890391574 0 0,0 -0.45204027096024657,-0.5639897423920125 l 16.48960482635705 -12.984979111520838" fill="#ffcf13" stroke="none" /><path d="M 82.64656182679789 111.8261652097733 l -29.20157476156298 19.90053176027575 a56.33784278782303,56.33784278782303 0 0,0 -0.539225307057656,-0.8060686710007864 l 29.53980317403137 -19.39492617506914" fill="#75ff27" stroke="none" /><line stroke="#e1ed5e" stroke-width="0.3" x1="26.63291911575756" x2="22.317208475507996" y1="142.92168965132927" y2="145.44649492493687" /><path d="M 25.769776987707644 143.4266507060508 a86.0,86.0 0 0,1 -11.730757126820373,-40.83630448921669" fill="none" id="id9" stroke="none" /><text fill="#e1ed5e" style="font-size:6.75px; font-family:Arial;" text-anchor="middle"><textPath startOffset="21.46611528233685" xlink:href="#id9">September</textPath></text><path d="M 81.69416730710424 110.29060199501025 l -10.553823912354398 5.932819513291477 a33.10708662520739,33.10708662520739 0 0,0 -0.27498366294134613,-0.49917522264275227 l 10.654383984747263 -5.750273772250902" fill="#ff4c07" stroke="none" /><path d="M 81.51974371655577 109.97397251340807 l -16.807032150829063 9.070917314848645 a40.09863530862409,40.09863530862409 0 0,0 -0.32259827899986004,-0.6102343695320742 l 16.96068293805381 -8.780267930230444" fill="#ffb510" stroke="none" /><path d="M 81.18737489456691 109.33194174019688 l -15.91536921817941 7.894767342962685 a38.7658754006236,38.7658754006236 0 0,0 -0.291384151736572,-0.6003376577122157 l 16.0489066265307 -7.6196407292851855" fill="#ffa10e" stroke="none" /><path d="M 79.76711848015287 105.62410040840567 l -9.239919242216365 2.5684049764641306 a30.590245655133447,30.590245655133447 0 0,0 -0.13665379952789536,-0.5085396245045077 l 9.282761118086032 -2.408974418784084" fill="#ff2403" stroke="none" /><path d="M 79.04373962182676 101.35467743843564 l -30.798977870529598 1.9909411171251161 a51.86326107852557,51.86326107852557 0 0,0 -0.049921226727126365,-0.8913770383961588 l 30.828685448144252 -1.4604923623935198" fill="#acff21" stroke="none" /><path d="M 79.0235259727143 100.99374915477108 l -15.943533883845127 0.7553163272590909 a36.96141520854407,36.96141520854407 0 0,0 -0.024637189510514468,-0.6357763883756674 l 15.954173206206843 -0.4807626918694267" fill="#ff870c" stroke="none" /><path d="M 79.0095281055655 100.63252640178507 l -17.340921863960617 0.5225509443241917 a38.348793346552995,38.348793346552995 0 0,0 -0.014203548131194874,-0.6599830698859047 l 17.347347474776818 -0.22397805864815806" fill="#ff9b0e" stroke="none" /><line stroke="#e1ed5e" stroke-width="0.3" x1="15.007084014347285" x2="10.007500721073583" y1="101.09737516637583" y2="101.16192664675087" /><path d="M 14.007167355692545 101.11028546245083 a86.0,86.0 0 0,1 10.666146001902534,-42.60595125391555" fill="none" id="id10" stroke="none" /><text fill="#e1ed5e" style="font-size:6.75px; font-family:Arial;" text-anchor="middle"><textPath startOffset="22.20632615414155" xlink:href="#id10">October</textPath></text><path d="M 79.00019446554 99.90962569577889 l -36.86680789857902 -0.15865918887774386 a57.867149298107435,57.867149298107435 0 0,0 0.012860265423445663,-0.9960417295555831 l 36.858614626037856 0.793237176493799" fill="#64ff29" stroke="none" /><path d="M 79.32604984820605 96.31383870115002 l -9.703051796278306 -1.7300522517257928 a30.856079086277724,30.856079086277724 0 0,0 0.09773189349542007,-0.5220876829953859 l 9.671834178873024 1.8968180121837515" fill="#ff2904" stroke="none" /><path d="M 79.54389044137918 95.25157060432595 l -16.19313435160794 -3.7588748213792074 a37.62368009954546,37.62368009954546 0 0,0 0.1518692383772085,-0.6295960393477491 l 16.12603231296992 4.037056092386353" fill="#ff900d" stroke="none" /><path d="M 81.6062741919709 89.86733742301443 l -6.414932843202446 -3.5338327119032913 a28.323888108000776,28.323888108000776 0 0,0 0.2389219212962189,-0.4250154383615762 l 6.353153280613799 3.643731660199652" fill="#ff0000" stroke="none" /><line stroke="#e1ed5e" stroke-width="0.3" x1="26.266209847984257" x2="21.92892807433627" y1="57.711370442889674" y2="55.22380399835377" /><path d="M 25.39875349325466 57.213857153982495 a86.0,86.0 0 0,1 29.58750427330802,-30.492523968695096" fill="none" id="id11" stroke="none" /><text fill="#e1ed5e" style="font-size:6.75px; font-family:Arial;" text-anchor="middle"><textPath startOffset="21.46611528233685" xlink:href="#id11">November</textPath></text><path d="M 81.78341655067847 89.55222093294921 l -17.070174164562875 -9.790277567886829 a40.67842424750462,40.67842424750462 0 0,0 0.35359299067493905,-0.6044050399154328 l 16.89912149941761 10.082662020156153" fill="#ffbd11" stroke="none" /><path d="M 82.7489923806493 88.02491185347247 l -16.168656430346743 -11.223755170517325 a40.68243203697926,40.68243203697926 0 0,0 0.40428143627637975,-0.5718274209223537 l 15.973062374266485 11.500409091771466" fill="#ffbd11" stroke="none" /><path d="M 82.95767976084542 87.72973835380427 l -19.36170514229901 -13.940190342549716 a44.85800772914294,44.85800772914294 0 0,0 0.45656349427954085,-0.6227520931009175 l 19.118879035505838 14.271404879322134" fill="#fff717" stroke="none" /><path d="M 83.17141714833178 87.43820079747576 l -16.41860965612668 -12.255772188472992 a41.4884039148003,41.4884039148003 0 0,0 0.43211962561271433,-0.5686187748131782 l 16.205214090289854 12.536575739167196" fill="#ffc812" stroke="none" /><path d="M 83.39014120810768 87.1503855733568 l -16.6583444143153 -12.887123568724245 a42.061300826433246,42.061300826433246 0 0,0 0.4479446807019633,-0.5688442549969525 l 16.434045653019368 13.171960217674245" fill="#ffd013" stroke="none" /><path d="M 83.84228863543731 86.58626213691792 l -14.876099757703516 -12.349775167573336 a40.33430347053541,40.33430347053541 0 0,0 0.4480745196221601,-0.5303789012538878 l 14.661314624594231 12.604013018456339" fill="#ffb811" stroke="none" /><path d="M 84.5562425177563 85.77008943001954 l -14.880117647459656 -13.710571642787578 a41.23357793308566,41.23357793308566 0 0,0 0.4854422808160324,-0.5178359786903355 l 14.641908044673167 13.964677038355962" fill="#ffc512" stroke="none" /><path d="M 86.65592168130627 83.78471172551755 l -12.754722613104558 -15.49912246414307 a41.07251220190799,41.07251220190799 0 0,0 0.5497782663035439,-0.4445491235018158 l 12.486040948236514 15.71637768490902" fill="#ffc212" stroke="none" /><line stroke="#e1ed5e" stroke-width="0.3" x1="56.762969772571076" x2="54.21961505331055" y1="26.818313649435495" y2="22.513508569990535" /><path d="M 56.25429882871897 25.957352633546506 a86.0,86.0 0 0,1 42.265352541879196,-11.944610805530505" fill="none" id="id12" stroke="none" /><text fill="#e1ed5e" style="font-size:6.75px; font-family:Arial;" text-anchor="middle"><textPath startOffset="22.20632615414155" xlink:href="#id12">December</textPath></text></svg>