<?xml version="1.0" encoding="utf-8" ?>
<svg baseProfile="full" height="200mm" version="1.1" viewBox="0,0,200,200" width="200mm" xmlns="http://www.w3.org/2000/svg" xmlns:ev="http://www.w3.org/2001/xml-events" xmlns:xlink="http://www.w3.org/1999/xlink"><defs /><rect fill="#1a1a1a" height="200" width="200" x="0" y="0" /><text alignment-baseline="middle" fill="#e1ed5e" style="dominant-baseline: central; font-size:9.0px; font-family:Arial;" text-anchor="middle" x="100.0" y="100.0">2015</text><line stroke="#e1ed5e" stroke-width="0.3" x1="100.0" x2="100.0" y1="15.0" y2="10.0" /><path d="M 100.0 14.0 a86.0,86.0 0 0,1 42.46469731375804,11.215312516191453" fill="none" id="id13" stroke="none" /><text fill="#e1ed5e" style="font-size:6.75px; font-family:Arial;" text-anchor="middle"><textPath startOffset="22.20632615414155" xlink:href="#id13">January</textPath></text><path d="M 100.36148047927253 79.00311137660856 l 0.015952372878931437 -0.9266065965493175 a21.92674390365903,21.92674390365903 0 0,0 0.3773210106516992,0.009745088499718965 l -0.03190001872549844 0.9261947159072389" fill="#ff0000" stroke="none" /><path d="M 100.72285384407766 79.0124445844662 l 0.6712201635588236 -19.48840764164352 a40.499963305474125,40.499963305474125 0 0,0 0.6965206207460787,0.029993643099371928 l -1.0065816166942338 19.47396627201995" fill="#fff917" stroke="none" /><path d="M 101.08401301168833 79.027996857942 l 0.10633684847810145 -2.0572601032952145 a23.060006470367142,23.060006470367142 0 0,0 0.39623454707202727,0.023901949948996498 l -0.1417334443897406 2.055124883965914" fill="#ff1101" stroke="none" /><path d="M 101.44485096284872 79.0497635885617 l 1.3155796410497707 -19.0758114205262 a40.12112264338636,40.12112264338636 0 0,0 0.6885736292606268,0.053446566031104405 l -1.6437434596727387 19.05033959230663" fill="#fff417" stroke="none" /><path d="M 101.80526077348638 79.07773832637324 l 3.536351550509701 -40.98492228732742 a62.13720502400546,62.13720502400546 0 0,0 1.0648389886181622,0.10111929271638663 l -4.2413156662181075 40.917977450095854" fill="#32ff48" stroke="none" /><path d="M 102.16513564639614 79.11191278185805 l 2.3106146147408904 -22.2915916056147 a43.41102398841619,43.41102398841619 0 0,0 0.7426040595893877,0.08344021867415691 l -2.6939853778400034 22.24851543346994" fill="#e2ff1b" stroke="none" /><path d="M 102.52436894288641 79.15227682838746 l 1.0814559388927716 -8.93129908758641 a29.996535463148483,29.996535463148483 0 0,0 0.5120626742538479,0.06648043141530333 l -1.2350333416544657 8.91136033300697" fill="#ff720a" stroke="none" /><path d="M 102.88285421437855 79.19881850522331 l 0.44458954053491573 -3.2079276424110432 a24.238589140119185,24.238589140119185 0 0,0 0.41278434986436835,0.06083368304001512 l -0.4997428708279399 3.1997994752100594" fill="#ff2203" stroke="none" /><path d="M 103.2404852339499 79.25152402106235 l 0.25394034968142015 -1.6259525549590657 a22.64566321347177,22.64566321347177 0 0,0 0.38462127027907844,0.06346580515826104 l -0.28189082609937377 1.6213404868611798" fill="#ff0b01" stroke="none" /><path d="M 103.59715602781102 79.31037775812273 l 0.3729155110968497 -2.144883622806181 a23.177060342250254,23.177060342250254 0 0,0 0.39247027315222194,0.07172143381171524 l -0.4097809053519725 2.1381467076437275" fill="#ff1202" stroke="none" /><path d="M 103.95276090670814 79.375362276772 l 0.35179856304020707 -1.835607588089371 a22.869015100636812,22.869015100636812 0 0,0 0.38597843495567785,0.07742364295551718 l -0.38334340746301027 1.8292799890566454" fill="#ff0e01" stroke="none" /><path d="M 104.307194497241 79.44645832069477 l 0.44540415777942777 -2.1254282635528434 a23.171596225654405,23.171596225654405 0 0,0 0.3896770380984049,0.08516830743777108 l -0.48192392003136064 2.117446458019202" fill="#ff1202" stroke="none" /><path d="M 105.01212808612495 79.60689891045804 l 4.319659191860472 -17.575617593621015 a39.09866816456463,39.09866816456463 0 0,0 0.6521864724905131,0.16625685337539486 l -4.62155455303601 17.498657744076752" fill="#ffe815" stroke="none" /><path d="M 105.36241919743992 79.69619591428918 l 4.677513807184282 -17.7105370640582 a39.31781260177587,39.31781260177587 0 0,0 0.6528668688259918,0.17845317743899058 l -4.9816785652339854 17.627397345792915" fill="#ffea16" stroke="none" /><path d="M 105.71112130821622 79.79150937346287 l 5.083450873926705 -17.987513098070682 a39.69203306868706,39.69203306868706 0 0,0 0.655882083489506,0.19146996564152766 l -5.392323175139638 17.897344803510453" fill="#ffef16" stroke="none" /><path d="M 106.0581310904928 79.89281104454417 l 8.609962999203992 -28.576825152589343 a50.84570988683842,50.84570988683842 0 0,0 0.835842037516375,0.25970018972689424 l -9.100590409431087 28.424384827979928" fill="#8eff24" stroke="none" /><path d="M 106.40334571778207 80.00007090966166 l 5.64047811291694 -17.617221881472613 a39.498148560419025,39.498148560419025 0 0,0 0.645732994781561,0.21288801591472573 l -5.942893929940919 17.51752014129865" fill="#ffed16" stroke="none" /><path d="M 106.74666289553966 80.11325718540242 l 10.37448685471258 -30.580266882682263 a53.292146105743385,53.292146105743385 0 0,0 0.866169928951407,0.3021896805187613 l -10.899338787727261 30.397156348991295" fill="#74ff27" stroke="none" /><path d="M 107.08798089147638 80.2323363322302 l 10.269563574783515 -28.640776812085264 a51.42627207556327,51.42627207556327 0 0,0 0.8307000194123462,0.30595382771541574 l -10.761045919968437 28.45975971656352" fill="#88ff25" stroke="none" /><path d="M 107.4271985657038 80.35727306442388 l 3.3197803308161893 -8.779829695873989 a30.386498331828797,30.386498331828797 0 0,0 0.4876553092636114,0.18920268381449254 l -3.470418805079468 8.721384308168949" fill="#ff770b" stroke="none" /><path d="M 108.76106565485865 80.91482961587045 l 1.422415891205523 -3.0986013243372827 a24.409486344706306,24.409486344706306 0 0,0 0.38034837061775406,0.17857865991988403 l -1.475542473122875 3.0736576817773957" fill="#ff2403" stroke="none" /><path d="M 109.08828744355905 81.06846463323043 l 1.975505238512679 -4.115114923730384 a25.564733484322996,25.564733484322996 0 0,0 0.3950709793753967,0.19385961380508163 l -2.0460474848985077 4.0805001497904705" fill="#ff3405" stroke="none" /><line stroke="#e1ed5e" stroke-width="0.3" x1="143.23703022742887" x2="145.7803849466894" y1="26.81831364943548" y2="22.513508569990506" /><path d="M 143.74570117128098 25.957352633546492 a86.0,86.0 0 0,1 28.547481713284135,27.462654790039103" fill="none" id="id14" stroke="none" /><text fill="#e1ed5e" style="font-size:6.75px; font-family:Arial;" text-anchor="middle"><textPath startOffset="19.985693538727396" xlink:href="#id14">February</textPath></text><path d="M 113.06298171725822 83.55741782278167 l 6.5552621214103395 -8.251212353921831 a31.53821459213606,31.53821459213606 0 0,0 0.4221564255806295,0.34135447047466927 l -6.69632194555546 8.137151786183034" fill="#ff860c" stroke="none" /><line stroke="#e1ed5e" stroke-width="0.3" x1="172.23445277983987" x2="176.4835382374775" y1="55.19839476539836" y2="52.563006222186495" /><path d="M 173.08426987136738 54.67131705675599 a86.0,86.0 0 0,1 12.851231095245387,41.99856678651699" fill="none" id="id15" stroke="none" /><text fill="#e1ed5e" style="font-size:6.75px; font-family:Arial;" text-anchor="middle"><textPath startOffset="22.20632615414155" xlink:href="#id15">March</textPath></text><path d="M 118.21658344932153 89.55222093294921 l 5.403690955710119 -3.0991853883546185 a27.229351974018975,27.229351974018975 0 0,0 0.22968912546458112,0.4085913248001405 l -5.456237722467136 3.005710553619684" fill="#ff4c07" stroke="none" /><path d="M 118.56541770881063 90.18545643968196 l 30.066947131061976 -15.894787123671573 a55.00978634876896,55.00978634876896 0 0,0 0.4353384559544194,0.8409353314564451 l -30.33609502017651 15.374879069954783" fill="#62ff29" stroke="none" /><path d="M 118.73160827565052 90.50648371742162 l 24.76982496284082 -12.553793200289393 a48.76944278168729,48.76944278168729 0 0,0 0.3730629836533214,0.7520722104332633 l -24.982247959447548 12.12556140135718" fill="#a5ff21" stroke="none" /><path d="M 118.89224826269711 90.83032412892265 l 51.30633604339752 -24.90240786108341 a78.0304307846064,78.0304307846064 0 0,0 0.5760942344833907,1.2134013801690038 l -51.72738847172267 24.015564065273868" fill="#46fff4" stroke="none" /><path d="M 119.04729006885535 91.15688171328212 l 11.619361395409422 -5.3945410010708 a33.81056719467818,33.81056719467818 0 0,0 0.24053430481142804,0.5299854566216484 l -11.710498017184197 5.193733535607088" fill="#ffa40f" stroke="none" /><path d="M 119.196687751892 91.48605970444005 l 43.59099539435827 -19.333081675770682 a68.68587764268352,68.68587764268352 0 0,0 0.4700380342791683,1.0849125889951456 l -43.91732413848012 18.57986994218893" fill="#3aff93" stroke="none" /><path d="M 119.34039704204932 91.81776055985345 l 39.88654051454027 -16.874587642617136 a64.30921174907746,64.30921174907746 0 0,0 0.42253697880076396,1.0232068094985711 l -40.17109918022723 16.18550626266526" fill="#35ff61" stroke="none" /><path d="M 119.47837535516314 92.15188598940014 l 34.90154943019484 -14.062329844267516 a58.62801181669463,58.62801181669463 0 0,0 0.36909530094185317,0.9393072817480296 l -35.138438281018395 13.459473557623703" fill="#3eff2e" stroke="none" /><path d="M 119.61058180528143 92.48833698450437 l 28.443530019542138 -10.895047102600142 a51.45876641199493,51.45876641199493 0 0,0 0.3097215217068021,0.829899694321655 l -28.626856129750564 10.403824271249153" fill="#87ff25" stroke="none" /><path d="M 119.7369772167798 92.82701384747503 l 12.700487296401137 -4.61572299075026 a34.51322597655302,34.51322597655302 0 0,0 0.19811728870420564,0.5601042539278044 l -12.778057665915153 4.396421110395842" fill="#ffae10" stroke="none" /><path d="M 119.85752413597 93.16781622104841 l 22.98171131645385 -7.907092253480179 a45.30393307548943,45.30393307548943 0 0,0 0.24736531281991592,0.7395908000802471 l -23.114413923045536 7.510328350477617" fill="#ccff1d" stroke="none" /><path d="M 119.97218684219823 93.5106431181261 l 28.48776156608857 -9.256234834408962 a50.95380513984891,50.95380513984891 0 0,0 0.263854613814379,0.8364912305668372 l -28.642871663671155 8.764493437415707" fill="#8dff24" stroke="none" /><path d="M 120.08093135843002 93.85539295169968 l 26.639221118484052 -8.151392130383003 a48.85845106000613,48.85845106000613 0 0,0 0.23916003072500613,0.8063287307848086 l -26.775587046320762 7.691634012851665" fill="#a4ff21" stroke="none" /><path d="M 120.18372546131832 94.20196356495316 l 10.483398318407511 -3.0114918838806624 a31.907370153665298,31.907370153665298 0 0,0 0.1470978832052751,0.5291893505785297 l -10.53368297217915 2.8305912298831806" fill="#ff8b0c" stroke="none" /><path d="M 120.6074358757038 95.95851677861258 l 43.147984473646936 -8.462084091331612 a64.96993781331564,64.96993781331564 0 0,0 0.20578230387019758,1.0992972957602405 l -43.28725250142699 7.718108718108808" fill="#35ff69" stroke="none" /><path d="M 120.83666639777658 97.38593545837742 l 9.11327658416881 -1.1433063582194252 a30.184713361248924,30.184713361248924 0 0,0 0.06023955626941884,0.516095730439329 l -9.131606493441819 0.9862668894552434" fill="#ff740a" stroke="none" /><path d="M 120.87857604477298 97.74499172005257 l 9.76516636156014 -1.0546950593354825 a30.821957836253034,30.821957836253034 0 0,0 0.052430901238672105,0.5279720202522098 l -9.781874388481041 0.8864475083788377" fill="#ff7d0b" stroke="none" /><path d="M 120.91429891909075 98.10471618934814 l 8.826180201198776 -0.7998411283085602 a29.862347475390884,29.862347475390884 0 0,0 0.04198577255107255,0.5123327711851932 l -8.838640457569342 0.6477944399155983" fill="#ff700a" stroke="none" /><path d="M 120.94382443527127 98.46500227214037 l 9.148476530590601 -0.6705026931081545 a30.173014591301616,30.173014591301616 0 0,0 0.03350556513734766,0.5183162627606175 l -9.158662686732365 0.5129273660945017" fill="#ff740a" stroke="none" /><path d="M 120.96714384426684 98.82574320788733 l 18.471031322949774 -1.034462974518599 a39.49997599401257,39.49997599401257 0 0,0 0.032176288767669696,0.6791906009569559 l -18.48610121995094 0.7163612669386433" fill="#ffed16" stroke="none" /><path d="M 120.98425023603335 99.18683210126433 l 9.792934153253627 -0.37948935979536397 a30.800284256293754,30.800284256293754 0 0,0 0.0159696621826434,0.5299553414092735 l -9.798015509891915 0.21086387096109135" fill="#ff7d0b" stroke="none" /><line stroke="#e1ed5e" stroke-width="0.3" x1="184.98032266829074" x2="189.97916517819016" y1="98.17113171792111" y2="98.06355123074" /><path d="M 185.9800911702706 98.14961562048488 a86.0,86.0 0 0,1 -9.607161424134198,41.387399972396054" fill="none" id="id16" stroke="none" /><text fill="#e1ed5e" style="font-size:6.75px; font-family:Arial;" text-anchor="middle"><textPath startOffset="21.466115282336823" xlink:href="#id16">April</textPath></text><path d="M 120.99980553446 99.90962569577887 l 30.704019814830623 -0.13213714874662352 a51.7043041447871,51.7043041447871 0 0,0 -0.0038303107667812322,0.8900293278292608 l -30.701745206774337 -0.396401657286322" fill="#85ff25" stroke="none" /><path d="M 120.99824983174949 100.27111621757518 l 26.936978555838348 0.34779335408803946 a47.9392237069824,47.9392237069824 0 0,0 -0.01775563223439589,0.8250344605152097 l -26.927000860918945 -0.811417630393364" fill="#aeff20" stroke="none" /><path d="M 120.9904718944345 100.63252640178507 l 23.982792580265983 0.7226969251499055 a44.99367897579865,44.99367897579865 0 0,0 -0.02999121623042102,0.77394002793362 l -23.966799231184357 -1.1354142000975316" fill="#d0ff1d" stroke="none" /><path d="M 120.9764740272857 100.99374915477107 l 23.566977199037815 1.1164728467515095 a44.593408526906444,44.593408526906444 0 0,0 -0.04292359584247361,0.7664296382080782 l -23.54426725230781 -1.5219742012950108" fill="#d4ff1c" stroke="none" /><path d="M 120.95626037817324 101.35467743843564 l 30.400441596219967 1.9651785006342573 a51.46389298472105,51.46389298472105 0 0,0 -0.06475491224698002,0.8835293295927309 l -30.36211012530865 -2.488180966723758" fill="#87ff25" stroke="none" /><path d="M 120.92983693683757 101.71520430193887 l 12.017502367413812 0.984836710450894 a33.05778862383349,33.05778862383349 0 0,0 -0.05135827143046065,0.5667342456193997 l -11.998769499706276 -1.1915523446188643" fill="#ff9b0e" stroke="none" /><path d="M 120.89721153311464 102.0752229133903 l 30.299588808960046 3.0089373820530216 a51.448625357496404,51.448625357496404 0 0,0 -0.09510082034822058,0.8805154851169331 l -30.243305687110773 -3.530049189054746" fill="#87ff25" stroke="none" /><path d="M 120.8583938346157 102.4346265915055 l 41.33207695312655 4.824349105214211 a62.61267750996271,62.61267750996271 0 0,0 -0.13416552333153034,1.0694312275882165 l -41.24290992054817 -5.535098087089823" fill="#32ff4e" stroke="none" /><path d="M 120.81339534386255 102.79330883721812 l 11.992444249245574 1.609473127657726 a33.09996375283478,33.09996375283478 0 0,0 -0.08064719317761378,0.5640462812493452 l -11.962963005051359 -1.8156648808874807" fill="#ff9b0e" stroke="none" /><path d="M 120.76222939487914 103.15116336523771 l 33.104142144368836 5.0243429055208075 a54.483253258111496,54.483253258111496 0 0,0 -0.14870878540212226,0.9260097486526361 l -33.01275160460543 -5.593431883866648" fill="#67ff28" stroke="none" /><path d="M 120.70491114924044 103.5080841355445 l 13.298344029544152 2.2531712105786155 a34.48787360677334,34.48787360677334 0 0,0 -0.10420848935743639,0.5844565497015888 l -13.257589097847527 -2.4817465110134225" fill="#ffad10" stroke="none" /><path d="M 120.64145759157962 103.86396538481128 l 12.49747923963554 2.339458197905968 a33.71456062964312,33.71456062964312 0 0,0 -0.11169163060477653,0.5695132181572095 l -12.455357676055101 -2.5542351431311228" fill="#ffa30f" stroke="none" /><path d="M 120.5718875245553 104.21870165774334 l 26.180105646760115 5.368785677058096 a47.72492827533322,47.72492827533322 0 0,0 -0.17195964641714737,0.8033382197468961 l -26.083811961618526 -5.818637716221161" fill="#b0ff20" stroke="none" /><path d="M 120.49622156327973 104.57218783832717 l 21.102629821113528 4.707462159643841 a42.62131321986314,42.62131321986314 0 0,0 -0.1658972391375362,0.7146809642703699 l -21.01847201604544 -5.070011781262775" fill="#ecff1a" stroke="none" /><path d="M 120.41448212921028 104.9243191809786 l 19.22349119048123 4.637031975413713 a40.774849660402445,40.774849660402445 0 0,0 -0.17045573626205784,0.6808859346980801 l -19.14082413992411 -4.967245749509188" fill="#fffc17" stroke="none" /><path d="M 120.32669344350535 105.2749913415812 l 22.149466790325828 5.748020250531234 a43.88315135413529,43.88315135413529 0 0,0 -0.19603632593887502,0.7295240961218261 l -22.047242388045177 -6.128435279828609" fill="#ddff1b" stroke="none" /><path d="M 120.23288151984713 105.62410040840565 l 19.078873230869732 5.30332264459704 a40.802238126845495,40.802238126845495 0 0,0 -0.1939220855517099,0.6750682199930664 l -18.984758508431923 -5.6309483400946885" fill="#fffd17" stroke="none" /><path d="M 120.13307415673323 105.97154293290107 l 45.98455342220699 13.639185594473979 a68.96463840289339,68.96463840289339 0 0,0 -0.3473624946105495,1.1352007306467058 l -45.742964155090306 -14.428713297672742" fill="#3aff96" stroke="none" /><path d="M 120.02730092923936 106.31721596034902 l 36.921591121316425 11.646185651134536 a59.71482314502242,59.71482314502242 0 0,0 -0.31764802259492236,0.9776200897566725 l -36.715650847705255 -12.280004640869002" fill="#33ff2f" stroke="none" /><path d="M 119.9155931802556 106.66101706037122 l 34.11227627669695 11.409273737949425 a56.96969446638606,56.96969446638606 0 0,0 -0.31905516321950894,0.9273236507272947 l -33.910830282534214 -11.994770091766021" fill="#4eff2b" stroke="none" /><path d="M 119.79798401119884 107.00284435728193 l 2.802232403851706 0.9911916973973353 a23.972367310105856,23.972367310105856 0 0,0 -0.14095265566997456,0.38784117164698434 l -2.7847554871765046 -1.0392806660504508" fill="#ff1e03" stroke="none" /><path d="M 119.67450827220406 107.3425965602758 l 10.585547156092604 3.9505639003325115 a32.298706285432445,32.298706285432445 0 0,0 -0.19887654687788445,0.5192039077971525 l -10.515976329621212 -4.132191374962808" fill="#ff910d" stroke="none" /><path d="M 119.54520255179757 107.68017299344265 l 13.738813288853965 5.398586302872715 a35.761426918003394,35.761426918003394 0 0,0 -0.23006072795465032,0.5709918596404554 l -13.643849946641925 -5.634277530355984" fill="#ffbe11" stroke="none" /><path d="M 119.41010516605496 108.01547362559984 l 11.467901184700773 4.735711563670869 a33.40724472219144,33.40724472219144 0 0,0 -0.22406560191376204,0.5296248950153402 l -11.384684601594701 -4.932410984352373" fill="#ff9f0e" stroke="none" /><path d="M 119.26925614724726 108.34839909993367 l 10.397381495146117 4.50466222735562 a32.331263113094295,32.331263113094295 0 0,0 -0.22563975481537663,0.5087580799530769 l -10.318300655599469 -4.6829686438013844" fill="#ff910d" stroke="none" /><path d="M 119.12269723197855 108.67885076344098 l 18.759678704898977 8.514094527295642 a41.60134342053367,41.60134342053367 0 0,0 -0.30156097343659516,0.6495355086588019 l -18.61034311462255 -8.835750103233275" fill="#f8ff18" stroke="none" /><path d="M 118.97047184881838 109.00673069616215 l 7.887112371440087 3.7446141385436564 a29.73090353894168,29.73090353894168 0 0,0 -0.22347268102495285,0.46041991333309096 l -7.82148643380042 -3.879823007842023" fill="#ff6e0a" stroke="none" /><path d="M 118.81262510543309 109.33194174019688 l 15.855625593396589 7.8651317114281705 a38.69918528622394,38.69918528622394 0 0,0 -0.30115582560296955,0.5942090145752367 l -15.71789109800735 -8.136894937706101" fill="#ffe315" stroke="none" /><path d="M 118.64920377521936 109.65438752849418 l 15.566650780011791 8.058600300709212 a38.52888060640018,38.52888060640018 0 0,0 -0.30996941615970813,0.5863453203497396 l -15.42562885562719 -8.325360636145085" fill="#ffe115" stroke="none" /><line stroke="#e1ed5e" stroke-width="0.3" x1="174.80103733775053" x2="179.2010983576182" y1="140.37084112569926" y2="142.7455964860345" /><path d="M 175.68104954172406 140.8457921977663 a86.0,86.0 0 0,1 -30.038265399797805,32.042727171017184" fill="none" id="id17" stroke="none" /><text fill="#e1ed5e" style="font-size:6.75px; font-family:Arial;" text-anchor="middle"><textPath startOffset="22.206326154141568" xlink:href="#id17">May</textPath></text><path d="M 118.48025628344425 109.97397251340804 l 12.20748172409324 6.5884955980353235 a34.87194594458187,34.87194594458187 0 0,0 -0.28964238195556763,0.5257850555663182 l -12.092262932686165 -6.797651171999448" fill="#ffb210" stroke="none" /><path d="M 118.30583269289576 110.29060199501023 l 22.665336771296086 12.741292008355115 a47.00111561065103,47.00111561065103 0 0,0 -0.40252651529460526,0.7018389084771026 l -22.4426582598491 -13.129550762690531" fill="#b9ff1f" stroke="none" /><path d="M 118.12598468904814 110.60418214915192 l 22.721516714568256 13.292690360257314 a47.324189233936195,47.324189233936195 0 0,0 -0.4173973756286212,0.6995820102057584 l -22.489338463241406 -13.681834464349176" fill="#b5ff20" stroke="none" /><path d="M 117.94076556474637 110.91462005526583 l 11.51942829743507 7.008072351574644 a34.48370521721136,34.48370521721136 0 0,0 -0.3128745332926245,0.5044533690878946 l -11.397089124474483 -7.205322052027812" fill="#ffad10" stroke="none" /><path d="M 117.75023020441432 111.22182372390056 l 12.538688831722798 7.92704963135865 a35.83431270658649,35.83431270658649 0 0,0 -0.3341040072464573,0.5185368387234215 l -12.40037996109929 -8.141708070003524" fill="#ffbf11" stroke="none" /><path d="M 117.55443506779139 111.5257021239791 l 1.7155984497097143 1.126409173485428 a23.05233419957825,23.05233419957825 0 0,0 -0.2206403612928314,0.32982740325544246 l -1.6959549830061618 -1.1557734909466775" fill="#ff1001" stroke="none" /><path d="M 117.14729908036423 112.12312394758627 l 21.646729883782882 15.30421719543748 a47.510374924293004,47.510374924293004 0 0,0 -0.4778643455153392,0.6637117807240392 l -21.380085745891943 -15.674562581612651" fill="#b3ff20" stroke="none" /><path d="M 116.93607887273984 112.41649034213515 l 16.32894666640823 11.97137838718024 a41.24718251321528,41.24718251321528 0 0,0 -0.42472564281209624,0.5689894062193843 l -16.12045975690104 -12.250680672908938" fill="#fcff18" stroke="none" /><path d="M 116.71984013943494 112.70617746262583 l 16.375333195285723 12.444370750781585 a41.56730173453812,41.56730173453812 0 0,0 -0.43782875096759005,0.5659526805351814 l -16.158697627100064 -12.72440142543002" fill="#f8ff18" stroke="none" /><path d="M 116.498646956653 112.99209946851258 l 18.995777025591288 14.958500854438189 a45.178426181582,45.178426181582 0 0,0 -0.48638252005751004,0.6068369785030443 l -18.735476593478925 -15.283265666519483" fill="#ceff1d" stroke="none" /><path d="M 116.27256486870786 113.27417163493432 l 10.072265736179276 8.216343595091073 a33.99841679331776,33.99841679331776 0 0,0 -0.37382716356493334,0.4502989003340703 l -9.929342572720797 -8.388503752538915" fill="#ffa70f" stroke="none" /><path d="M 116.0416608686014 113.55231037782055 l 11.397559001474335 9.628881847255363 a35.92044626747111,35.92044626747111 0 0,0 -0.4030915344042783,0.46888652048817353 l -11.230124957499276 -9.823645466905063" fill="#ffc011" stroke="none" /><path d="M 115.80600337817218 113.82643327865902 l 23.48681909309092 20.545290884033047 a52.20480169174468,52.20480169174468 0 0,0 -0.5974743853559302,0.6712688057298464 l -23.129685858086656 -20.946533859503763" fill="#7fff26" stroke="none" /><path d="M 115.56566222782051 114.09645910891815 l 8.25777849878369 7.478347868204179 a32.14076265669672,32.14076265669672 0 0,0 -0.37490453631022613,0.40688482961956857 l -8.127827554477738 -7.619383952625083" fill="#ff8e0d" stroke="none" /><path d="M 115.32070863581623 114.36230785411682 l 17.58110427690145 16.481302402024035 a45.09831024080829,45.09831024080829 0 0,0 -0.535796807093363,0.5617808101499852 l -17.29480091842912 -16.78149032875653" fill="#ceff1d" stroke="none" /><path d="M 115.07121518719521 114.62390073753431 l 10.030819978032264 9.733104720012918 a34.97679065173507,34.97679065173507 0 0,0 -0.42298494721323926,0.42848151834319387 l -9.861794405763488 -9.904326732336775" fill="#ffb410" stroke="none" /><path d="M 114.81725581225074 114.88116024355365 l 6.374629945769958 6.402122695211062 a30.034549349582615,30.034549349582615 0 0,0 -0.36949653594458226,0.361630129133757 l -6.263483457449582 -6.5109029272673915" fill="#ff720a" stroke="none" /><path d="M 114.55890576462653 115.13401014063108 l 14.616298972214917 15.193670488715506 a42.08278488636725,42.08278488636725 0 0,0 -0.5263637894613707,0.49770981690694516 l -14.35259934836274 -15.443014942368372" fill="#f2ff19" stroke="none" /><path d="M 114.29624159901734 115.38237550388516 l 3.315714164589926 3.567620202136125 a25.87051068451267,25.87051068451267 0 0,0 -0.32880242653422576,0.3003532208087276 l -3.2538121885888365 -3.6241661895314357" fill="#ff3905" stroke="none" /><path d="M 114.0293411484842 115.62618273729858 l 12.797426449069487 14.254049576797415 a40.1559926147705,40.1559926147705 0 0,0 -0.5183137559457206,0.45735162631504667 l -12.550170340217178 -14.47222434488475" fill="#fff517" stroke="none" /><path d="M 113.75828350139079 115.86535959552629 l 8.64476571762799 9.968708430479829 a34.19496578565461,34.19496578565461 0 0,0 -0.44801026737620264,0.3818040692331826 l -8.47188997367474 -10.116036889935957" fill="#ffa90f" stroke="none" /><path d="M 113.48314897796784 116.09983520530334 l 14.29303205791772 17.066892985652945 a43.26139262473023,43.26139262473023 0 0,0 -0.5750260458246951,0.4732072881398379 l -13.997135883548335 -17.31039539264996" fill="#e4ff1a" stroke="none" /><path d="M 113.20401910651253 116.32954008644616 l 7.342800606708755 9.080913613256746 a32.67817249407261,32.67817249407261 0 0,0 -0.4404434226732002,0.34991489267654563 l -7.185399691318203 -9.205962419938418" fill="#ff960d" stroke="none" /><path d="M 112.92097659922987 116.55440617244103 l 14.817612103850431 18.984383060289638 a45.08253368397908,45.08253368397908 0 0,0 -0.6158516076503798,0.47220875148655883 l -14.488631767706558 -19.236631153603568" fill="#cfff1d" stroke="none" /><path d="M 112.63410532772338 116.77436683061366 l 14.074222460811706 18.686417778650867 a44.393715978328366,44.393715978328366 0 0,0 -0.6143562420129406,0.45448606065775954 l -13.7504812483802 -18.925913788048394" fill="#d7ff1c" stroke="none" /><path d="M 112.34349029814194 116.9893568818739 l 8.59681480161596 11.83250046658318 a35.62577492049479,35.62577492049479 0 0,0 -0.49922342777658063,0.35618266051448494 l -8.391864045990493 -11.978727388941884" fill="#ffbc11" stroke="none" /><path d="M 112.04921762599082 117.19931262002967 l 3.0344454310196824 4.331432730034746 a26.2885885232879,26.2885885232879 0 0,0 -0.37285119545919926,0.2564504520755526 l -2.9594373509375997 -4.383023971475392" fill="#ff3f05" stroke="none" /><path d="M 111.7513745106137 117.40417183066458 l 5.929895566883545 8.782370206202165 a31.59687160783467,31.59687160783467 0 0,0 -0.45337794552883126,0.3004741803527676 l -5.77784292261475 -8.883142407646252" fill="#ff870c" stroke="none" /><path d="M 111.45004920935366 117.60387380957326 l 4.127681383444186 6.346102175780772 a28.57038746886057,28.57038746886057 0 0,0 -0.4145674754443882,0.26459657740983056 l -4.017832105952867 -6.4162131820144115" fill="#ff5e08" stroke="none" /><path d="M 111.1453310114006 117.79835938074945 l 10.565174813708222 16.87188815320711 a40.906871394032386,40.906871394032386 0 0,0 -0.6000079645264766,0.36857389779615374 l -10.273187649249437 -17.05125051783164" fill="#fffe18" stroke="none" /><line stroke="#e1ed5e" stroke-width="0.3" x1="143.8653032363475" x2="146.44561519142675" y1="172.8068346515853" y2="177.08958963109032" /><path d="M 144.38136562736335 173.6633856474863 a86.0,86.0 0 0,1 -40.68145358897372,12.25698825130547" fill="none" id="id18" stroke="none" /><text fill="#e1ed5e" style="font-size:6.75px; font-family:Arial;" text-anchor="middle"><textPath startOffset="21.466115282336833" xlink:href="#id18">June</textPath></text><path d="M 110.8373102113329 117.98757091392108 l 4.693314995785549 7.7898790993156 a30.094472058982838,30.094472058982838 0 0,0 -0.4460174575806713,0.2635149756319823 l -4.558529667176496 -7.869512647241332" fill="#ff730a" stroke="none" /><path d="M 110.5260780823613 118.17145234162733 l 11.706656068186192 20.209515943011812 a44.35530626966063,44.35530626966063 0 0,0 -0.6639592961645591,0.37701341663543286 l -11.357048005100435 -20.40803252544187" fill="#d7ff1c" stroke="none" /><path d="M 110.21172684928248 118.3499491758327 l 4.315603209476786 7.754917530184793 a29.8748620812728,29.8748620812728 0 0,0 -0.45150474872220264,0.24619638859770557 l -4.181475648885934 -7.828054570542268" fill="#ff700a" stroke="none" /><path d="M 109.89434966115114 118.52300852407294 l 6.932258250136638 12.977738108703209 a35.71318765137844,35.71318765137844 0 0,0 -0.5447266145007109,0.2849752193370405 l -6.707840733109432 -13.095142746984965" fill="#ffbd11" stroke="none" /><path d="M 109.57404056367764 118.69057910512821 l 10.833033521015484 21.148403187386265 a44.761514527565254,44.761514527565254 0 0,0 -0.6887861193230504,0.345371659193859 l -10.467393494009672 -21.331742687489424" fill="#d2ff1c" stroke="none" /><path d="M 109.2508944713604 118.85261126421891 l 5.48085576655927 11.169562411730706 a33.44182078328463,33.44182078328463 0 0,0 -0.5189650358228094,0.24913475464823875 l -5.287778062736228 -11.262251442878503" fill="#ffa00e" stroke="none" /><path d="M 108.92500713936063 119.00905698771935 l 6.081304105088282 12.95235448983138 a35.308939389375396,35.308939389375396 0 0,0 -0.5523865059484862,0.2535735520337287 l -5.857449603372376 -13.055115112199184" fill="#ffb811" stroke="none" /><path d="M 108.59647513512805 119.15986991738527 l 9.24016016220016 20.594518560301008 a43.57243350978564,43.57243350978564 0 0,0 -0.6869491376161767,0.30113831435668653 l -8.88429034992623 -20.750521427952147" fill="#e0ff1b" stroke="none" /><path d="M 108.2653958097858 119.30500536409082 l 1.2614258039928101 2.946239051692172 a24.204921154832814,24.204921154832814 0 0,0 -0.38443009646430554,0.1606918115002837 l -1.2105242480310434 -2.9675159062124288" fill="#ff2103" stroke="none" /><path d="M 107.93186726928326 119.44442032107085 l 7.8108119424524025 19.147661616330627 a41.67950020125869,41.67950020125869 0 0,0 -0.6666316989862661,0.2652665107369576 l -7.48005916742427 -19.27927497147365" fill="#f7ff19" stroke="none" /><path d="M 107.59598834532513 119.57807347666477 l 8.51041086764505 21.934926925724444 a44.52802822960314,44.52802822960314 0 0,0 -0.7169643978693314,0.2710945870693381 l -8.131576249015444 -22.078169762900412" fill="#d5ff1c" stroke="none" /><path d="M 107.2578585660854 119.70592522655815 l 1.8159980252353793 4.930644620726899 a26.254436716105914,26.254436716105914 0 0,0 -0.4254224410083497,0.1525413515401351 l -1.730856023597295 -4.961173513306994" fill="#ff3e05" stroke="none" /><path d="M 106.91757812671514 119.82793768551818 l 12.864483745425899 36.87362504451989 a60.05328623765447,60.05328623765447 0 0,0 -0.9789551197968289,0.33211472812348786 l -12.227858892691843 -37.089602759541506" fill="#30ff2f" stroke="none" /><path d="M 106.57524785965236 119.94407469862006 l 8.447088637318735 25.62175150876466 a47.9782774991956,47.9782774991956 0 0,0 -0.7865665162988886,0.2518337595669992 l -8.004800775928906 -25.763358114991366" fill="#aeff20" stroke="none" /><path d="M 106.2309692047433 120.05430185196036 l 1.7225165478891775 5.543899457899725 a26.805332415723747,26.805332415723747 0 0,0 -0.44180935083476613,0.13311353318914668 l -1.6268322226141656 -5.572728360194597" fill="#ff4606" stroke="none" /><path d="M 105.88484417918355 120.15858648285463 l 4.694941486743245 16.082564144559285 a37.753845678763035,37.753845678763035 0 0,0 -0.6253993426585845,0.17674410118050157 l -4.417410975980054 -16.160997039078307" fill="#ffd714" stroke="none" /><path d="M 105.53697534728816 120.25689768951611 l 1.009615876598447 3.693656596824561 a24.829154381001796,24.829154381001796 0 0,0 -0.4132393691937575,0.10914027327825154 l -0.9458860645931922 -3.710488219406397" fill="#ff2a04" stroke="none" /><path d="M 105.18746579009965 120.34920634021253 l 2.7237203721690015 10.684513423122295 a32.02621783544335,32.02621783544335 0 0,0 -0.5353665987252749,0.1315800845620392 l -2.5394004887005153 -10.729814765998364" fill="#ff8d0d" stroke="none" /><path d="M 104.83641907484287 120.43548508189849 l 1.2017227122920464 5.0776796178318335 a26.217946701393508,26.217946701393508 0 0,0 -0.44006180650157567,0.10015663444152198 l -1.1141407563976087 -5.097612985851041" fill="#ff3e05" stroke="none" /><path d="M 104.48393922423573 120.51570834832081 l 6.291710283721173 28.78694084328394 a50.466482338565825,50.466482338565825 0 0,0 -0.8502605887146705,0.17818037329401398 l -5.795258233577124 -28.890977197304494" fill="#92ff23" stroke="none" /><path d="M 104.13013068566511 120.58985236759428 l 1.3322826670326788 6.641800348186831 a27.774104292823548,27.774104292823548 0 0,0 -0.46955745239121,0.08999180330693107 l -1.2177576000697645 -6.66374934984223" fill="#ff5307" stroke="none" /><path d="M 103.7750983002368 120.6578951692458 l 3.3949404103746708 18.577615077985364 a39.88526945467774,39.88526945467774 0 0,0 -0.6764371304475194,0.11760726574792088 l -3.0746543084551017 -18.63330092225429" fill="#fff116" stroke="none" /><path d="M 103.41894727170886 120.7198165907248 l 2.1529869932186605 13.04772846040704 a34.22416617293826,34.22416617293826 0 0,0 -0.5820783216607665,0.09090866279811531 l -1.9280728079493767 -13.08285543055226" fill="#ffaa0f" stroke="none" /><path d="M 103.06178313531738 120.77559828337769 l 1.25971762993197 8.54776000562247 a29.640086204482017,29.640086204482017 0 0,0 -0.505393686884889,0.07004295984448268 l -1.1123953518602505 -8.568177530959556" fill="#ff6d0a" stroke="none" /><path d="M 102.70371172650421 120.8252237178851 l 1.821076174098894 14.02676119689519 a35.14448118902193,35.14448118902193 0 0,0 -0.6005900252298376,0.07272308801384754 l -1.5793587258176762 -14.056029813634389" fill="#ffb610" stroke="none" /><path d="M 102.34483914955558 120.86867818915974 l 3.234823902635971 28.789394375092304 a49.97055943825838,49.97055943825838 0 0,0 -0.8556087763514266,0.08868734804204534 l -2.7387825296789416 -28.84081109159011" fill="#98ff23" stroke="none" /><path d="M 101.98527174616119 120.90594882070398 l 1.7182145105488955 18.09369658838111 a39.175096075032315,39.175096075032315 0 0,0 -0.6718634978306627,0.05797120964699178 l -1.4065066949766913 -18.12059205030677" fill="#ffe915" stroke="none" /><path d="M 101.62511606390274 120.93702456842531 l 0.7785091017294092 10.029846207111854 a31.060014481092537,31.060014481092537 0 0,0 -0.5333998986965551,0.03678637997585369 l -0.6057464422539238 -10.041760931603992" fill="#ff800b" stroke="none" /><path d="M 101.26447882468166 120.96189622390904 l 0.7756131557897269 12.857726174778715 a33.881098483942424,33.881098483942424 0 0,0 -0.5824514670457706,0.030106087848534958 l -0.5541736203304767 -12.869172069389453" fill="#ffa50f" stroke="none" /><path d="M 100.90346689309514 120.98055641714683 l 0.48517347947916833 11.266831840892001 a32.27727329792658,32.27727329792658 0 0,0 -0.5552915212369548,0.019125362757245763 l -0.2911616065675613 -11.273514002075341" fill="#ff900d" stroke="none" /><line stroke="#e1ed5e" stroke-width="0.3" x1="102.19456741930631" x2="102.32365962044197" y1="184.97166512339345" y2="189.96999836594603" /><path d="M 102.22038585953345 185.97133177190398 a86.0,86.0 0 0,1 -42.740103519485714,-10.115201625700543" fill="none" id="id19" stroke="none" /><text fill="#e1ed5e" style="font-size:6.75px; font-family:Arial;" text-anchor="middle"><textPath startOffset="22.20632615414155" xlink:href="#id19">July</textPath></text><path d="M 100.54218724476979 120.99299961872073 l 0.390318926586321 15.11279572887254 a36.117835281781566,36.117835281781566 0 0,0 -0.6216400754596508,0.010702097650878793 l -0.13011916123400216 -15.117275303802577" fill="#ffc212" stroke="none" /><path d="M 100.18074693466247 120.99922214144158 l 0.042577931252301346 4.946714246412004 a25.94689748386655,25.94689748386655 0 0,0 -0.4466497318295102,0.0 l 0.04257793125229794 -4.946714246412004" fill="#ff3a05" stroke="none" /><path d="M 99.81925306533755 120.99922214144158 l -0.07279394003216076 8.45721738042678 a29.457530654836447,29.457530654836447 0 0,0 -0.507006619756206,-0.008728578752360504 l 0.21836024968103465 -8.45471132439526" fill="#ff6a09" stroke="none" /><path d="M 99.45781275523022 120.99299961872073 l -0.28234834324172164 10.932272419165301 a31.93591792369409,31.93591792369409 0 0,0 -0.5494189141152221,-0.018923098293916668 l 0.4704876090315869 -10.925792522445292" fill="#ff8c0c" stroke="none" /><path d="M 99.09653310690486 120.98055641714683 l -1.1471361726535492 26.639111374691296 a47.66379898348728,47.66379898348728 0 0,0 -0.8193904827514251,-0.04235312854663989 l 1.605514723818463 -26.615418439382456" fill="#b1ff20" stroke="none" /><path d="M 98.73552117531835 120.96189622390904 l -0.5254150608575071 8.710067551306585 a29.725900396778535,29.725900396778535 0 0,0 -0.5104888882121295,-0.03520630255294752 l 0.6752667098485666 -8.699732904237353" fill="#ff6e0a" stroke="none" /><path d="M 98.37488393609728 120.93702456842531 l -0.7751816718971113 9.986977588866159 a31.017016920468894,31.017016920468894 0 0,0 -0.5319502328863629,-0.045898904423281886 l 0.9469762225250158 -9.972154432164213" fill="#ff7f0b" stroke="none" /><path d="M 98.01472825383883 120.90594882070398 l -4.329869140832166 45.59578447314174 a66.80090969072475,66.80090969072475 0 0,0 -1.1437823638989597,-0.11855771866204783 l 5.114084101336719 -45.51449738602393" fill="#38ff7e" stroke="none" /><path d="M 97.65516085044442 120.86867818915974 l -1.646801380981108 14.656258220386706 a35.7484866956259,35.7484866956259 0 0,0 -0.6109119782129709,-0.07397293277273018 l 1.8988407822454683 -14.625739758888628" fill="#ffbe11" stroke="none" /><path d="M 97.2962882734958 120.8252237178851 l -3.7146197690641922 28.611699597745726 a49.85182410005242,49.85182410005242 0 0,0 -0.850024423210098,-0.11780563961673007 l 4.206572783461121 -28.54351939263639" fill="#99ff23" stroke="none" /><path d="M 96.93821686468263 120.77559828337769 l -2.856251681337237 19.380973408338324 a40.59031148098108,40.59031148098108 0 0,0 -0.6903525498079,-0.10781887046273003 l 3.189440094753654 -19.32893623052849" fill="#fffa17" stroke="none" /><path d="M 96.58105272829116 120.7198165907248 l -3.9867824281451933 24.161063079807416 a45.4877806931498,45.4877806931498 0 0,0 -0.7714533275866252,-0.13412704954497937 l 4.402084727203868 -24.08885745174143" fill="#caff1d" stroke="none" /><path d="M 96.22490169976321 120.6578951692458 l -1.4861841751817773 8.132619193299266 a29.267299338101914,29.267299338101914 0 0,0 -0.4948018618595511,-0.09482995446373707 l 1.6259536516130233 -8.10583204048706" fill="#ff6809" stroke="none" /><path d="M 95.86986931433489 120.58985236759428 l -1.2215493129785227 6.089763721341831 a27.211071156073597,27.211071156073597 0 0,0 -0.4584528246986365,-0.09607324686892287 l 1.3261935991065459 -6.067834493746368" fill="#ff4b07" stroke="none" /><path d="M 95.51606077576429 120.51570834832081 l -1.2183853299883942 5.574571116131726 a26.70616385509048,26.70616385509048 0 0,0 -0.44825641171104874,-0.10202169990785125 l 1.3141618910923056 -5.5527726826461885" fill="#ff4406" stroke="none" /><path d="M 95.16358092515715 120.4354850818985 l -2.13073617291606 9.003071611717699 a30.251774699174753,30.251774699174753 0 0,0 -0.5057041018492261,-0.12428976451486966 l 2.2853935595084964 -8.965060588888798" fill="#ff750a" stroke="none" /><path d="M 94.81253420990036 120.34920634021253 l -1.5850848329495308 6.217914418634027 a27.416771278852284,27.416771278852284 0 0,0 -0.4563058852004924,-0.12051453158110337 l 1.6918811609615125 -6.189708537749342" fill="#ff4e07" stroke="none" /><path d="M 94.46302465271185 120.25689768951611 l -1.0480769499305085 3.834365554089135 a24.975025093676884,24.975025093676884 0 0,0 -0.4137158478997778,-0.11692023111238489 l 1.1139239659349003 -3.8157565296382288" fill="#ff2c04" stroke="none" /><path d="M 94.11515582081647 120.15858648285463 l -4.055944058214581 13.893672725669804 a35.47359057080817,35.47359057080817 0 0,0 -0.5846808306198682,-0.17615953805577828 l 4.2944998632746945 -13.8217978185083" fill="#ffba11" stroke="none" /><path d="M 93.76903079525671 120.05430185196036 l -2.9751917394532854 9.575619979799487 a31.027176266728645,31.027176266728645 0 0,0 -0.5086664052731256,-0.16285891981281006 l 3.1395794898173515 -9.522988213326972" fill="#ff800b" stroke="none" /><path d="M 93.42475214034765 119.94407469862007 l -2.857220964863272 8.666536923021683 a30.125380752612593,30.125380752612593 0 0,0 -0.4910871256385536,-0.16660341615072385 l 3.0059778234390513 -8.616070519972837" fill="#ff730a" stroke="none" /><path d="M 93.08242187328487 119.8279376855182 l -3.7150835833317 10.648588919048732 a32.27804468859865,32.27804468859865 0 0,0 -0.5230279632690317,-0.1875392191846691 l 3.897831107230459 -10.583062158824106" fill="#ff900d" stroke="none" /><path d="M 92.7421414339146 119.70592522655815 l -3.3315320363231704 9.045494700660294 a30.639506216021704,30.639506216021704 0 0,0 -0.4933394987065408,-0.18653878502795543 l 3.486741755789994 -8.986807665525706" fill="#ff7a0b" stroke="none" /><path d="M 92.40401165467489 119.57807347666478 l -3.5574217468130733 9.1689798852121 a30.83490933461629,30.83490933461629 0 0,0 -0.493180769888466,-0.19624680642972864 l 3.7147235927433977 -9.106386234376304" fill="#ff7d0b" stroke="none" /><path d="M 92.06813273071674 119.44442032107085 l -0.9856444864088887 2.416238828793747 a23.609541172573987,23.609541172573987 0 0,0 -0.37497408615348454,-0.1567391984234559 l 1.0270900320598355 -2.3989145873503177" fill="#ff1802" stroke="none" /><path d="M 91.7346041902142 119.30500536409082 l -7.90584331375787 18.465219463423686 a41.08648023756504,41.08648023756504 0 0,0 -0.647756388463857,-0.2839573648970316 l 8.222520376879471 -18.3263975452322" fill="#feff18" stroke="none" /><path d="M 91.40352486487194 119.15986991738527 l -0.9659290786629471 2.1528679145450926 a23.359631166619984,23.359631166619984 0 0,0 -0.3654469735858818,-0.16775878153111543 l 1.0028440480162484 -2.135922062679903" fill="#ff1502" stroke="none" /><path d="M 91.07499286063937 119.00905698771935 l -3.238462218715801 6.8974861203925855 a28.619905007482576,28.619905007482576 0 0,0 -0.444136404046429,-0.21321246406711472 l 3.356711290762472 -6.8407193798259085" fill="#ff5f08" stroke="none" /><path d="M 90.7491055286396 118.85261126421891 l -4.393853871262825 8.954336171831825 a30.974271307729058,30.974271307729058 0 0,0 -0.4766292731174589,-0.23899181220249496 l 4.547337052063044 -8.877376518720029" fill="#ff7f0b" stroke="none" /><path d="M 90.42595943632237 118.69057910512821 l -2.5096061219529657 4.899289013149759 a26.50464855569488,26.50464855569488 0 0,0 -0.4042704789393833,-0.21149520757827925 l 2.5935675034188446 -4.855364386626763" fill="#ff4206" stroke="none" /><path d="M 90.10565033884886 118.52300852407294 l -3.285963002221106 6.151583760872317 a27.974205016988957,27.974205016988957 0 0,0 -0.4227797394524821,-0.23053322322756178 l 3.391365553542229 -6.094109885884989" fill="#ff5608" stroke="none" /><line stroke="#e1ed5e" stroke-width="0.3" x1="58.666819895761336" x2="56.23545636021788" y1="174.27360380694188" y2="178.64263932499728" /><path d="M 58.180547188652646 175.14741091055294 a86.0,86.0 0 0,1 -31.652253787137756,-30.449443065178592" fill="none" id="id20" stroke="none" /><text fill="#e1ed5e" style="font-size:6.75px; font-family:Arial;" text-anchor="middle"><textPath startOffset="22.20632615414155" xlink:href="#id20">August</textPath></text><path d="M 89.7882731507175 118.34994917583269 l -9.148768942176238 16.439868358030584 a39.81407039390211,39.81407039390211 0 0,0 -0.595981053438523,-0.3384135962924357 l 9.430398762535969 -16.279951595943515" fill="#fff016" stroke="none" /><path d="M 89.4739219176387 118.17145234162733 l -12.321092463026366 21.27023405458552 a45.581134559236574,45.581134559236574 0 0,0 -0.6755387404672851,-0.3991201952011017 l 12.685399074522033 -21.054995287090666" fill="#c9ff1d" stroke="none" /><path d="M 89.1626897886671 117.98757091392108 l -11.532185865123688 19.140912919933626 a43.346495435218486,43.346495435218486 0 0,0 -0.6357915335279298,-0.39055508851973325 l 11.859956598583926 -18.939569364585516" fill="#e3ff1b" stroke="none" /><path d="M 88.8546689885994 117.79835938074946 l -14.1925240074688 22.664525849116107 a47.7415121051116,47.7415121051116 0 0,0 -0.692747977915457,-0.44214453574180457 l 14.58055378743118 -22.416866884550497" fill="#b0ff20" stroke="none" /><path d="M 88.54995079064634 117.60387380957326 l -11.196169263648915 17.21354618344246 a41.53437065969598,41.53437065969598 0 0,0 -0.5959693691275706,-0.39497600064133187 l 11.490813331516447 -17.01827216170981" fill="#f9ff18" stroke="none" /><path d="M 88.24862548938628 117.40417183066458 l -15.991092052735304 23.683332838589386 a49.5764812281439,49.5764812281439 0 0,0 -0.7031435056392886,-0.48362851478350266 l 16.396392442997485 -23.404563534440786" fill="#9cff22" stroke="none" /><path d="M 87.95078237400918 117.19931262002967 l -11.215754468357952 16.00960936705802 a40.54739727892906,40.54739727892906 0 0,0 -0.568190045049682,-0.4053885107615831 l 11.489671841256518 -15.814176594452215" fill="#fff917" stroke="none" /><path d="M 87.65650970185807 116.9893568818739 l -18.538653870343815 25.51626801701418 a52.539841801133285,52.539841801133285 0 0,0 -0.727088937106681,-0.5378830134300033 l 18.97512777786906 -25.193375054844406" fill="#7cff26" stroke="none" /><path d="M 87.36589467227662 116.77436683061367 l -23.738465105273704 31.517682601379523 a60.45730657451924,60.45730657451924 0 0,0 -0.8258792575662579,-0.6332489974036151 l 24.27747309133345 -31.104394262148542" fill="#30ff34" stroke="none" /><path d="M 87.07902340077011 116.55440617244103 l -23.63043970588411 30.2754125371529 a59.40570641178495,59.40570641178495 0 0,0 -0.8006828614137204,-0.6361108898370664 l 24.148080060015193 -29.8641677333107" fill="#36ff2e" stroke="none" /><path d="M 86.79598089348748 116.32954008644616 l -14.221152964566658 17.587439516490498 a43.61767495539306,43.61767495539306 0 0,0 -0.5797617144513529,-0.47710442101688993 l 14.5217848075627 -17.340039976616428" fill="#e0ff1b" stroke="none" /><path d="M 86.51685102203217 116.09983520530335 l -29.503252253743803 35.22897359377548 a66.95130546588386,66.95130546588386 0 0,0 -0.8771721677095173,-0.7475451511658362 l 30.105289898030374 -34.71590405238669" fill="#38ff7f" stroke="none" /><path d="M 86.24171649860922 115.8653595955263 l -23.314195020388514 26.8847554741332 a56.58569609200646,56.58569609200646 0 0,0 -0.7303802686591507,-0.6444756672340085 l 23.77351764195425 -26.479456665126904" fill="#52ff2b" stroke="none" /><path d="M 85.97065885151581 115.62618273729859 l -8.228770793940878 9.16538237744391 a33.31734155181116,33.31734155181116 0 0,0 -0.42344826051166695,-0.3868099461160532 l 8.385318603919401 -9.02237966474128" fill="#ff9e0e" stroke="none" /><path d="M 85.70375840098266 115.38237550388516 l -42.88872479705201 46.147126511655486 a84.0,84.0 0 0,0 -1.0506566624367415,-0.9934614530162862 l 43.67671729387956 -45.40203042189327" fill="#4dd2ff" stroke="none" /><path d="M 85.44109423537348 115.13401014063109 l -13.667241397898652 14.207123341151545 a40.71384896612348,40.71384896612348 0 0,0 -0.5008773723506058,-0.49021392955763643 l 13.909768722625051 -13.96975930867134" fill="#fffb17" stroke="none" /><path d="M 85.18274418774928 114.88116024355367 l -16.540860052825927 16.612198110853065 a44.442806516315464,44.442806516315464 0 0,0 -0.5374603506505404,-0.5444444976428673 l 16.824361028532003 -16.325013119229535" fill="#d6ff1c" stroke="none" /><path d="M 84.9287848128048 114.62390073753433 l -25.782121145531384 25.016906450627314 a56.924412021942615,56.924412021942615 0 0,0 -0.676298469813314,-0.7090962417936078 l 26.208926166723657 -24.569403092251207" fill="#4fff2b" stroke="none" /><path d="M 84.67929136418377 114.36230785411682 l -20.727293044073416 19.43067848608144 a49.41077160804265,49.41077160804265 0 0,0 -0.5763498090044087,-0.6255138872045536 l 21.058689261073557 -19.071013344075546" fill="#9eff22" stroke="none" /><path d="M 84.4343377721795 114.09645910891817 l -16.66596677684627 15.092908720613877 a43.48444667443978,43.48444667443978 0 0,0 -0.4976715207685976,-0.5591392293630771 l 16.9232971472632 -14.803795321509934" fill="#e1ff1b" stroke="none" /><path d="M 84.19399662182784 113.82643327865904 l -24.539916433257797 21.466496565278124 a53.60395640621508,53.60395640621508 0 0,0 -0.6015320877983761,-0.699717715547169 l 24.905791030626954 -21.040901750569425" fill="#71ff27" stroke="none" /><path d="M 83.95833913139862 113.55231037782056 l -16.368937589274008 13.828800183603207 a42.42843513464228,42.42843513464228 0 0,0 -0.4665188281355488,-0.5619519814752253 l 16.604552417303093 -13.54498694501422" fill="#eeff19" stroke="none" /><path d="M 83.72743513129214 113.27417163493432 l -28.5586466693431 23.296412127340822 a57.85538112123241,57.85538112123241 0 0,0 -0.6228602553690479,-0.7771139377153088 l 28.955424836767012 -22.801370356047254" fill="#45ff2d" stroke="none" /><path d="M 83.50135304334701 112.99209946851258 l -12.610485480140438 9.930310172383681 a37.05102501912509,37.05102501912509 0 0,0 -0.39025876901491696,-0.5044620663632527 l 12.779551066373424 -9.711770111907176" fill="#ffce13" stroke="none" /><path d="M 83.28015986056508 112.70617746262583 l -20.68655360798545 15.72066592988785 a46.98216383319897,46.98216383319897 0 0,0 -0.48377921881975866,-0.6481013216791167 l 20.95409409350029 -15.362251728699428" fill="#b9ff1f" stroke="none" /><path d="M 83.06392112726016 112.41649034213515 l -29.942424116634943 21.951941925750337 a58.12730149488321,58.12730149488321 0 0,0 -0.5846505090664236,-0.8120284221146866 l 30.315854418076974 -21.43327989818451" fill="#43ff2d" stroke="none" /><path d="M 82.85270091963577 112.12312394758628 l -20.49611646607726 14.490734616447877 a46.10123861317055,46.10123861317055 0 0,0 -0.45253654792480874,-0.651912649056314 l 20.742513921164203 -14.135780705204553" fill="#c3ff1e" stroke="none" /><path d="M 82.6465618267979 111.8261652097733 l -23.878780740170278 16.273109871523417 a49.896544335401074,49.896544335401074 0 0,0 -0.47757383153102034,-0.7139080800705029 l 24.15535767711203 -15.85966487724709" fill="#98ff23" stroke="none" /><path d="M 82.44556493220864 111.52570212397912 l -27.51672796449289 18.066637218489188 a53.91768063300335,53.91768063300335 0 0,0 -0.5027056974253196,-0.7802104060334939 l 27.823638525295255 -17.590305212534247" fill="#6dff28" stroke="none" /><path d="M 82.24976979558568 111.22182372390057 l -20.661062321811933 13.062072809976124 a45.44375671534378,45.44375671534378 0 0,0 -0.41231631240951316,-0.6647851799760962 l 20.8828432738894 -12.704491298634764" fill="#caff1d" stroke="none" /><path d="M 82.05923443525364 110.91462005526583 l -25.179085278520372 15.318195210922834 a50.47258794172885,50.47258794172885 0 0,0 -0.44516612094338087,-0.7461240246085438 l 25.439032275161985 -14.88250909242818" fill="#92ff23" stroke="none" /><line stroke="#e1ed5e" stroke-width="0.3" x1="26.63291911575756" x2="22.317208475507996" y1="142.92168965132927" y2="145.44649492493687" /><path d="M 25.769776987707644 143.4266507060508 a86.0,86.0 0 0,1 -11.730757126820373,-40.83630448921669" fill="none" id="id21" stroke="none" /><text fill="#e1ed5e" style="font-size:6.75px; font-family:Arial;" text-anchor="middle"><textPath startOffset="21.46611528233685" xlink:href="#id21">September</textPath></text><path d="M 81.87401531095188 110.60418214915194 l -2.2903186667410806 1.3398972104615987 a23.653466436536444,23.653466436536444 0 0,0 -0.20257279631846775,-0.35320274529306955 l 2.313043459211926 -1.3002746193102221" fill="#ff1902" stroke="none" /><path d="M 81.69416730710424 110.29060199501025 l -1.2502379037312514 0.7028197450623074 a22.434242102985323,22.434242102985323 0 0,0 -0.1863362408969838,-0.3382544022479041 l 1.262150554079752 -0.6811948244165807" fill="#ff0801" stroke="none" /><path d="M 81.51974371655577 109.97397251340807 l -9.079048445575848 4.900049991471051 a31.316957429205022,31.316957429205022 0 0,0 -0.2519486384615337,-0.4765918746457579 l 9.16204959226227 -4.743043101739167" fill="#ff830c" stroke="none" /><path d="M 81.35079622478065 109.6543875284942 l -1.4866249777465652 0.7696014166446946 a22.67401916505203,22.67401916505203 0 0,0 -0.1764484939640231,-0.3481496182639824 l 1.499652141496855 -0.7438975866780273" fill="#ff0b01" stroke="none" /><path d="M 81.18737489456691 109.33194174019688 l -1.3747644909250323 0.6819474721844505 a22.53461062173019,22.53461062173019 0 0,0 -0.16938166190930828,-0.3489763927242219 l 1.3862994094490595 -0.658182123494944" fill="#ff0901" stroke="none" /><path d="M 80.87730276802145 108.67885076344099 l -1.4372526646480113 0.6522982210364366 a22.578349831692933,22.578349831692933 0 0,0 -0.15757421237574312,-0.35528825053013285 l 1.4482679617550342 -0.627461634013608" fill="#ff0a01" stroke="none" /><path d="M 80.73074385275274 108.34839909993369 l -1.4104202915022825 0.611064142908701 a22.537102724423494,22.537102724423494 0 0,0 -0.1511585145477735,-0.35729407688758075 l 1.4207297872423625 -0.5866955403549615" fill="#ff0901" stroke="none" /><path d="M 80.58989483394504 108.01547362559985 l -5.615946957140819 2.319125750871911 a27.075952968364422,27.075952968364422 0 0,0 -0.17418526011980737,-0.4323135307881458 l 5.655034831518015 -2.22211285224096" fill="#ff4a06" stroke="none" /><path d="M 80.45479744820244 107.68017299344265 l -2.9269087889982703 1.150111684745219 a24.1447658015348,24.1447658015348 0 0,0 -0.14866934933397438,-0.38812875804432706 l 2.9462724179257536 -1.0995593598677342" fill="#ff2003" stroke="none" /><path d="M 80.32549172779594 107.34259656027581 l -1.4959905144387513 0.5583089881357768 a22.596776924158135,22.596776924158135 0 0,0 -0.13286446331478657,-0.3655859400259078 l 1.5053792387587623 -0.5324752511037519" fill="#ff0a01" stroke="none" /><path d="M 80.20201598880116 107.00284435728193 l -1.676268357950197 0.5929212997203025 a22.778041415582624,22.778041415582624 0 0,0 -0.1275669773155905,-0.37076934885755497 l 1.6862261662090159 -0.5639792477734507" fill="#ff0c01" stroke="none" /><path d="M 80.0844068197444 106.66101706037122 l -9.780286494028017 3.2711380777061434 a31.312824454468615,31.312824454468615 0 0,0 -0.1665659587681919,-0.5126373091546784 l 9.835144703812459 -3.1023018685736616" fill="#ff830c" stroke="none" /><path d="M 79.97269907076064 106.31721596034903 l -1.4362445760145712 0.4530349441804973 a22.50600104341926,22.50600104341926 0 0,0 -0.11335868420680252,-0.3704627388774051 l 1.443830032727504 -0.42824523275104437" fill="#ff0901" stroke="none" /><path d="M 79.86692584326677 105.97154293290107 l -0.8810408782345734 0.261319925067633 a21.918978308970186,21.918978308970186 0 0,0 -0.10417502034138075,-0.36264691228707635 l 0.8854085354620582 -0.24611553727596067" fill="#ff0000" stroke="none" /><path d="M 79.76711848015287 105.62410040840567 l -2.993031770823477 0.8319680609085413 a24.106510910254563,24.106510910254563 0 0,0 -0.10768943624662038,-0.40075245372726953 l 3.00690928341187 -0.7803246740057328" fill="#ff2003" stroke="none" /><path d="M 79.67330655649465 105.27499134158121 l -9.631006800258092 2.4993478463809664 a30.950026715734325,30.950026715734325 0 0,0 -0.12938391275747954,-0.5168244161483333 l 9.672602027310633 -2.333195590835241" fill="#ff7f0b" stroke="none" /><path d="M 79.50377843672027 104.57218783832718 l -20.666458497308156 4.610163386015115 a42.174421202637745,42.174421202637745 0 0,0 -0.1519603867399006,-0.7099083366311608 l 20.7427529227725 -4.25374122996779" fill="#f1ff19" stroke="none" /><path d="M 79.4281124754447 104.21870165774334 l -21.83186771470424 4.477087307118509 a43.28620108201277,43.28620108201277 0 0,0 -0.14340113859544798,-0.7311993162485843 l 21.905698786275355 -4.10062426380197" fill="#e4ff1b" stroke="none" /><path d="M 79.35854240842038 103.8639653848113 l -9.281747286750747 1.7374911663797121 a30.442971367549113,30.442971367549113 0 0,0 -0.09198642090653356,-0.5159086991274469 l 9.31028014999647 -1.5774637165190515" fill="#ff780b" stroke="none" /><path d="M 79.29508885075956 103.50808413554451 l -6.690121081427992 1.1335237065960748 a27.78546948100001,27.78546948100001 0 0,0 -0.07583877928089608,-0.47224815097591555 l 6.708641615070179 -1.0181963259269458" fill="#ff5307" stroke="none" /><path d="M 79.23777060512086 103.15116336523772 l -18.4300108803309 2.7971935962404593 a39.641072744452345,39.641072744452345 0 0,0 -0.09658443360428268,-0.6755113036741238 l 18.475429364951783 -2.479536820585935" fill="#ffee16" stroke="none" /><path d="M 79.18660465613746 102.79330883721812 l -21.64396960416065 2.9047779359848818 a42.8380208600325,42.8380208600325 0 0,0 -0.09179268026445236,-0.7316779773313948 l 21.690763793671948 -2.531782204366078" fill="#e9ff1a" stroke="none" /><path d="M 79.1416061653843 102.43462659150553 l -6.9757382085279485 0.8142198230852521 a28.023096003488895,28.023096003488895 0 0,0 -0.05179962341288142,-0.4796001798014177 l 6.988720133441882 -0.6940233213990523" fill="#ff5708" stroke="none" /><path d="M 79.10278846688536 102.07522291339032 l -22.731307961128334 2.2573600816316333 a43.84311791682126,43.84311791682126 0 0,0 -0.06811425821467072,-0.751635163529308 l 22.76679681562008 -1.865743529553759" fill="#ddff1b" stroke="none" /><path d="M 79.07016306316243 101.71520430193888 l -23.666340150129457 1.9394612848228097 a44.74567678919588,44.74567678919588 0 0,0 -0.05630165550780614,-0.7681913575304042 l 23.696218364301597 -1.5317967907956447" fill="#d3ff1c" stroke="none" /><path d="M 79.04373962182676 101.35467743843564 l -27.686963759472473 1.7897709069700005 a48.744751613913905,48.744751613913905 0 0,0 -0.046919490723718184,-0.8377790256031121 l 27.713669601083723 -1.3129201650314508" fill="#a5ff21" stroke="none" /><path d="M 79.0235259727143 100.99374915477108 l -22.553248416059326 1.0684479918621104 a43.57854280567718,43.57854280567718 0 0,0 -0.029047935844386932,-0.7495981525421475 l 22.568298484754916 -0.6800725923059663" fill="#e0ff1b" stroke="none" /><path d="M 79.0095281055655 100.63252640178507 l -25.100850526141215 0.7563884578152243 a46.112244436425826,46.112244436425826 0 0,0 -0.017078959365720656,-0.7935921312428221 l 25.110151548191944 -0.3242065107822733" fill="#c3ff1e" stroke="none" /><line stroke="#e1ed5e" stroke-width="0.3" x1="15.007084014347285" x2="10.007500721073583" y1="101.09737516637583" y2="101.16192664675087" /><path d="M 14.007167355692545 101.11028546245083 a86.0,86.0 0 0,1 10.666146001902534,-42.60595125391555" fill="none" id="id22" stroke="none" /><text fill="#e1ed5e" style="font-size:6.75px; font-family:Arial;" text-anchor="middle"><textPath startOffset="22.20632615414155" xlink:href="#id22">October</textPath></text><path d="M 79.00175016825051 100.2711162175752 l -4.594137704701048 0.05931662150408871 a25.594520618230206,25.594520618230206 0 0,0 -0.001896069766650083,-0.44057983873384887 l 4.594478071757202 0.019772695433435527" fill="#ff3505" stroke="none" /><path d="M 79.00019446554 99.90962569577889 l -18.027579599589576 -0.07758309763536889 a39.02774654127845,39.02774654127845 0 0,0 0.008673438824749906,-0.6717673954418085 l 18.02357315364711 0.3878867511376494" fill="#ffe715" stroke="none" /><path d="M 79.00486145842228 99.54816195383935 l -31.838269171149317 -0.6851939227235923 a52.84564137407652,52.84564137407652 0 0,0 0.027399975712778572,-0.9092718003298421 l 31.821757500980894 1.2331358704784288" fill="#79ff26" stroke="none" /><path d="M 79.03285615573316 98.82574320788736 l -34.42505041503128 -1.927961651282513 a55.47899552200239,55.47899552200239 0 0,0 0.061606542249614454,-0.9530259409004815 l 34.38676328177725 2.520246656436006" fill="#5dff2a" stroke="none" /><path d="M 79.05617556472873 98.46500227214037 l -31.8801256852084 -2.3365322146351635 a52.96563461742489,52.96563461742489 0 0,0 0.07446846199558972,-0.908703858043624 l 31.835182739393314 2.884949989886566" fill="#77ff27" stroke="none" /><path d="M 79.08570108090925 98.10471618934814 l -35.975215679947134 -3.260125721961173 a57.12263228146181,57.12263228146181 0 0,0 0.09717069589004416,-0.9784956467721346 l 35.91376785837486 3.878896899437738" fill="#4dff2c" stroke="none" /><path d="M 79.12142395522702 97.74499172005258 l -13.070941375942905 -1.4117380881843136 a34.14695831296983,34.14695831296983 0 0,0 0.06814699851893956,-0.5838418666396062 l 13.044704024420376 1.6365236931487817" fill="#ffa90f" stroke="none" /><path d="M 79.16333360222342 97.38593545837743 l -15.002823955595769 -1.882179681617081 a36.12042747399988,36.12042747399988 0 0,0 0.08270546041386924,-0.6162517447960907 l 14.968202496124066 2.1401497684778312" fill="#ffc212" stroke="none" /><path d="M 79.21141760316559 97.0276538004421 l -9.06509016892146 -1.2961242761962644 a30.15728114180305,30.15728114180305 0 0,0 0.07789784627794696,-0.5132494784724587 l 9.041436429204209 1.4519728670608152" fill="#ff740a" stroke="none" /><path d="M 79.26566170972629 96.67025291283419 l -18.74076063368048 -3.009596557057308 a39.98087934119911,39.98087934119911 0 0,0 0.11497004181902792,-0.6785596948968324 l 18.68617873034123 3.3317420402699685" fill="#fff316" stroke="none" /><path d="M 79.32604984820605 96.31383870115002 l -3.8511559000738083 -0.6866603493990731 a24.91189266239632,24.91189266239632 0 0,0 0.07890459554640578,-0.42151150451660424 l 3.838765580617541 0.75284993137825" fill="#ff2b04" stroke="none" /><path d="M 79.3925641242962 95.95851677861259 l -1.4874061884617085 -0.29170670190672093 a22.51574073291295,22.51574073291295 0 0,0 0.07786233071521784,-0.3796843768113214 l 1.4821645618314963 0.31726673488144486" fill="#ff0901" stroke="none" /><path d="M 79.46518482838121 95.60439243477599 l -4.7029933224017375 -1.0067055804679745 a25.809532442587397,25.809532442587397 0 0,0 0.09673119390879234,-0.43362697521206656 l 4.684967741490907 1.0875107252300003" fill="#ff3805" stroke="none" /><path d="M 79.54389044137918 95.25157060432595 l -8.790514332719662 -2.040521759084395 a30.024237989051855,30.024237989051855 0 0,0 0.12119383707784721,-0.5024266970250378 l 8.754087695381 2.1915336877688296" fill="#ff720a" stroke="none" /><path d="M 79.62865764111835 94.90015583598534 l -1.2204368019095515 -0.3055290806132631 a22.258099362751448,22.258099362751448 0 0,0 0.0962436698920479,-0.37086612035787087 l 1.2149968001471962 0.3264916265199978" fill="#ff0500" stroke="none" /><path d="M 79.71946130924805 94.55025226153421 l -3.7824082218110564 -1.016401534845272 a24.91659086916922,24.91659086916922 0 0,0 0.11486931564385715,-0.41324604557459166 l 3.7643521356008383 1.0813588838388062" fill="#ff2b04" stroke="none" /><path d="M 79.81627453868168 94.20196356495316 l -17.916381017930796 -5.146712390892749 a39.64095912806634,39.64095912806634 0 0,0 0.1940408014857653,-0.654209119760444 l 17.825134319333323 5.454350897399732" fill="#ffee16" stroke="none" /><path d="M 79.91906864156998 93.8553929516997 l -5.903989808441162 -1.806574443311927 a27.174204959134812,27.174204959134812 0 0,0 0.14071646534594243,-0.4461096493883918 l 5.872017859327015 1.9079342591267334" fill="#ff4b07" stroke="none" /><path d="M 80.02781315780177 93.51064311812611 l -5.749409149726979 -1.868096274447981 a27.045286532627774,27.045286532627774 0 0,0 0.14767074974042566,-0.44151674583607087 l 5.716401106214781 1.9667861232063741" fill="#ff4906" stroke="none" /><path d="M 80.14247586403 93.16781622104843 l -5.882687251380012 -2.0239985680148553 a27.22113972684066,27.22113972684066 0 0,0 0.1562583109960164,-0.44176328715619856 l 5.846975859574186 2.1249594815976653" fill="#ff4c07" stroke="none" /><path d="M 80.2630227832202 92.82701384747504 l -8.209852227253135 -2.9836968292336614 a29.735222971516656,29.735222971516656 0 0,0 0.1789712258800335,-0.4795539064631584 l 8.157276412871475 3.1245738727261614" fill="#ff6e0a" stroke="none" /><path d="M 80.38941819471856 92.48833698450439 l -8.313614430897553 -3.1844577925192046 a29.902637605674194,29.902637605674194 0 0,0 0.18825340795335396,-0.4790843894604976 l 8.257567473062508 3.3270911868754656" fill="#ff700a" stroke="none" /><path d="M 80.52162464483688 92.15188598940014 l -17.81141836117097 -7.176473368037254 a40.202822553958214,40.202822553958214 0 0,0 0.26414845897183353,-0.6396564454681235 l 17.68524821531293 7.482004383958689" fill="#fff517" stroke="none" /><path d="M 80.65960295795067 91.81776055985345 l -18.43057057878293 -7.797323972524966 a41.012101163846125,41.012101163846125 0 0,0 0.28065809267221853,-0.6477975732546993 l 18.293621776268033 8.113420690366265" fill="#ffff18" stroke="none" /><path d="M 80.803312248108 91.48605970444005 l -18.865182835539883 -8.366914251172238 a41.63735393660771,41.63735393660771 0 0,0 0.2962154383764791,-0.6526714536182959 l 18.71836508020005 8.690407713632606" fill="#f7ff18" stroke="none" /><path d="M 80.95270993114464 91.15688171328213 l -13.065965419681858 -6.066158352118568 a35.405475677717135,35.405475677717135 0 0,0 0.2613966141412,-0.5505679338291999 l 12.959610611698906 6.2901687015883" fill="#ffb911" stroke="none" /><path d="M 81.10775173730289 90.83032412892265 l -13.465678741088855 -6.53579752514928 a35.96800431747532,35.96800431747532 0 0,0 0.27513808322146804,-0.5546615866210637 l 13.351180644913974 6.766618700269306" fill="#ffc011" stroke="none" /><path d="M 81.26839172434947 90.50648371742162 l -21.430802252493457 -10.86151638123013 a45.02606549739697,45.02606549739697 0 0,0 0.3563289213134398,-0.6883140587598658 l 21.240663898019903 11.228803162250331" fill="#cfff1d" stroke="none" /><path d="M 81.43458229118936 90.18545643968196 l -13.01339388919989 -6.8794854603522495 a35.719909670737216,35.719909670737216 0 0,0 0.29203900891016016,-0.541103930471801 l 12.893046781071257 7.102470374156523" fill="#ffbd11" stroke="none" /><path d="M 81.6062741919709 89.86733742301443 l -16.789145911282798 -9.248737980020687 a40.16806131702998,40.16806131702998 0 0,0 0.33883167268614117,-0.6027437378546115 l 16.627456597304228 9.536365227810084" fill="#fff517" stroke="none" /><line stroke="#e1ed5e" stroke-width="0.3" x1="26.266209847984243" x2="21.928928074336255" y1="57.711370442889674" y2="55.22380399835377" /><path d="M 25.398753493254645 57.213857153982495 a86.0,86.0 0 0,1 29.58750427330803,-30.492523968695096" fill="none" id="id23" stroke="none" /><text fill="#e1ed5e" style="font-size:6.75px; font-family:Arial;" text-anchor="middle"><textPath startOffset="21.46611528233685" xlink:href="#id23">November</textPath></text><path d="M 81.78341655067845 89.55222093294921 l -16.791069914329256 -9.63020257077071 a40.35667405372038,40.35667405372038 0 0,0 0.35079621043148584,-0.5996244358897277 l 16.62281402942745 9.917806419014328" fill="#fff717" stroke="none" /><path d="M 81.96595687620814 89.24020034530311 l -5.33602576714007 -3.183676994261029 a27.213611686561183,27.213611686561183 0 0,0 0.24347655749896963,-0.400211442678032 l 5.280433411354881 3.2750562101461353" fill="#ff4b07" stroke="none" /><path d="M 82.15384107792192 88.93136811851018 l -3.66880559667335 -2.2754845326457667 a25.317170875062953,25.317170875062953 0 0,0 0.23288470258036262,-0.3683676720998399 l 3.629093297847025 2.338299852459822" fill="#ff3104" stroke="none" /><path d="M 82.34701348167596 88.62581576622439 l -16.52412332924918 -10.646834338961092 a40.65710388743769,40.65710388743769 0 0,0 0.38411934323191516,-0.5850401126555735 l 16.33840735065934 10.929692515594333" fill="#fffb17" stroke="none" /><path d="M 82.54541684631803 88.32363383020206 l -7.446733470329222 -4.981544732571413 a29.959331855709525,29.959331855709525 0 0,0 0.290427951939695,-0.42616718254453106 l 7.3598810527207865 5.10898993838636" fill="#ff710a" stroke="none" /><path d="M 82.7489923806493 88.02491185347247 l -3.47242910956342 -2.410447296014534 a25.227058089003176,25.227058089003176 0 0,0 0.25069374584045023,-0.3545885248792567 l 3.4304227439190913 2.4698623212255764" fill="#ff3004" stroke="none" /><path d="M 82.95767976084542 87.72973835380427 l -16.834312494277018 -12.120498619901994 a41.74368732771533,41.74368732771533 0 0,0 0.42486603207017254,-0.5795167902696654 l 16.623183849693213 12.408477853843163" fill="#f6ff19" stroke="none" /><path d="M 83.17141714833178 87.43820079747577 l -23.437352528469837 -17.494955986280587 a50.24693109551268,50.24693109551268 0 0,0 0.5233434647852381,-0.6886586540259864 l 23.13273312346049 17.895799416187597" fill="#95ff23" stroke="none" /><path d="M 83.39014120810768 87.1503855733568 l -15.954916621637725 -12.342942186682416 a41.17195048147789,41.17195048147789 0 0,0 0.4384732723414105,-0.5568165282156287 l 15.740089268702343 12.615751108851093" fill="#fdff18" stroke="none" /><path d="M 83.6137871275137 86.86637796730984 l -13.526971792133807 -10.841927670978109 a38.33569616392444,38.33569616392444 0 0,0 0.4171316371789518,-0.5113540649814262 l 13.338341662878463 11.073165905567619" fill="#ffde14" stroke="none" /><path d="M 83.84228863543731 86.58626213691792 l -16.663114897138424 -13.833311548246126 a42.656867420429855,42.656867420429855 0 0,0 0.47387592528919803,-0.5609196273813831 l 16.4225283583621 14.118090125256623" fill="#ebff1a" stroke="none" /><path d="M 84.07557802195018 86.31012108654704 l -8.789708111502765 -7.556320719014531 a32.59124460504677,32.59124460504677 0 0,0 0.3693800662917068,-0.4222652695722848 l 8.658336181633215 7.706501544789759" fill="#ff940d" stroke="none" /><path d="M 84.31358615837235 86.03803664274999 l -6.156384181054966 -5.479595987767476 a29.24178611551533,29.24178611551533 0 0,0 0.3378907314607254,-0.37310738499581564 l 6.061149808978196 5.584756160032847" fill="#ff6709" stroke="none" /><path d="M 84.5562425177563 85.77008943001954 l -13.414111903012982 -12.35979087181661 a39.24014332568677,39.24014332568677 0 0,0 0.4619736057463138,-0.49280123243201246 l 13.19937097529621 12.588861521126672" fill="#ffe915" stroke="none" /><path d="M 84.80347519578584 85.50635884689758 l -13.796162244193162 -13.158049451007749 a40.06484613164413,40.06484613164413 0 0,0 0.4802739781224234,-0.4949645517296958 l 13.567624002367626 13.393578198287567" fill="#fff417" stroke="none" /><path d="M 85.05521093208273 85.24692304244772 l -7.680470341977841 -7.581945085370693 a31.792382311222024,31.792382311222024 0 0,0 0.38781286550138006,-0.3861474738103943 l 7.548821676309146 7.7130284098312" fill="#ff8a0c" stroke="none" /><path d="M 85.31137513191541 84.99185889309783 l -9.541949911550367 -9.749512428403039 a34.64191338141836,34.64191338141836 0 0,0 0.42975232900887395,-0.41342140001421596 l 9.372714338929065 9.912316915179563" fill="#ffaf10" stroke="none" /><path d="M 85.57189188830299 84.74124197986013 l -9.37380971082556 -9.913475349437284 a34.6435076867596,34.6435076867596 0 0,0 0.4368251291974401,-0.4059813506666264 l 9.201776697833264 10.07336128617856" fill="#ffaf10" stroke="none" /><path d="M 85.83668400450813 84.49514656593479 l -13.488650443980923 -14.766284126106571 a40.999670939613324,40.999670939613324 0 0,0 0.5251648092827019,-0.4714981510500006 l 13.232474647102249 14.996281285925852" fill="#ffff18" stroke="none" /><path d="M 86.10567301691215 84.25364557470407 l -19.03542006244001 -21.572723263416115 a49.770290334883285,49.770290334883285 0 0,0 0.6472654730289132,-0.5613022399507853 l 18.661260790764324 21.897190496786582" fill="#9aff23" stroke="none" /><path d="M 86.37877921826538 84.01681056812374 l -12.287623986298494 -14.418342157997456 a39.94397777167575,39.94397777167575 0 0,0 0.527151065871084,-0.4414738576139632 l 12.0376153834683 14.627717173005232" fill="#fff216" stroke="none" /><path d="M 86.65592168130627 83.78471172551755 l -13.278750290413315 -16.135903787545914 a41.897191206382026,41.897191206382026 0 0,0 0.5608170503717754,-0.453475052522346 l 12.99902984147704 16.362084937332394" fill="#f4ff19" stroke="none" /><path d="M 86.93701828274178 83.55741782278169 l -13.050544939328516 -16.426927807675792 a41.98000668284034,41.98000668284034 0 0,0 0.5696635827999641,-0.4446314622293982 l 12.765848801369126 16.64913765912841" fill="#f3ff19" stroke="none" /><path d="M 87.51073957382395 83.11751280151077 l -26.663163898271396 -36.042208091068765 a65.83263401971811,65.83263401971811 0 0,0 0.9168124836111395,-0.6661032595497127 l 26.038806098306473 36.495830585435144" fill="#36ff73" stroke="none" /><path d="M 87.80319425747018 82.90503203632743 l -26.25773837586693 -36.80268472004347 a66.20958335594784,66.20958335594784 0 0,0 0.9334569472779111,-0.6539462448717986 l 25.62035028900536 37.249215807679214" fill="#37ff77" stroke="none" /><path d="M 88.09926311788651 82.69761687909137 l -11.436439326551646 -16.62734473731858 a41.1807021058122,41.1807021058122 0 0,0 0.587502144378289,-0.3966840704372891 l 11.148532487766818 16.821740720054535" fill="#fdff18" stroke="none" /><path d="M 88.39885842347998 82.49532879139004 l -27.23688023998773 -41.09704464897043 a70.30329323774329,70.30329323774329 0 0,0 1.0144864784282268,-0.6598502253469948 l 26.525426735775216 41.55979379847697" fill="#3cffa4" stroke="none" /><path d="M 88.70189139769569 82.29822771554957 l -24.736913790322795 -38.75756822226563 a66.97895168850022,66.97895168850022 0 0,0 0.9771937138829206,-0.611918613985564 l 24.066100924067634 39.17763117757413" fill="#38ff80" stroke="none" /><path d="M 89.00827224532344 82.1063720568725 l -6.134656508871305 -9.986715790147288 a32.720430996981904,32.720430996981904 0 0,0 0.4824517450654066,-0.29067177821248885 l 5.961842697588251 10.090834177818396" fill="#ff960d" stroke="none" /><line stroke="#e1ed5e" stroke-width="0.3" x1="56.76296977257108" x2="54.21961505331056" y1="26.818313649435495" y2="22.513508569990535" /><path d="M 56.25429882871898 25.957352633546506 a86.0,86.0 0 0,1 42.26535254187918,-11.944610805530505" fill="none" id="id24" stroke="none" /><text fill="#e1ed5e" style="font-size:6.75px; font-family:Arial;" text-anchor="middle"><textPath startOffset="22.20632615414155" xlink:href="#id24">December</textPath></text><path d="M 89.3179101791058 81.91981866633112 l -4.536091950546577 -7.677651694302314 a29.91753697625284,29.91753697625284 0 0,0 0.4456334915600678,-0.2581396819631692 l 4.403261726521188 7.754595533655531" fill="#ff710a" stroke="none" /><path d="M 89.63071344664047 81.73862282372117 l -13.509816410944943 -23.792172372998678 a48.36023767593986,48.36023767593986 0 0,0 0.7274206727895183,-0.4048088168457177 l 13.09827164908338 24.021196587404578" fill="#a9ff21" stroke="none" /><path d="M 89.94658935756843 81.56283822128135 l -10.951264827304358 -20.083755501880773 a43.87547674644355,43.87547674644355 0 0,0 0.6661863379302705,-0.35585367022843545 l 10.603933442845783 20.269287898610955" fill="#ddff1b" stroke="none" /><path d="M 90.26544431104013 81.39251694778311 l -12.30307984052466 -23.517185266325672 a47.54098295868127,47.54098295868127 0 0,0 0.7283720322227145,-0.37310044502768974 l 11.896447320713182 23.725478236665868" fill="#b3ff20" stroke="none" /><path d="M 90.58718382345135 81.22770947309562 l -13.328464858286887 -26.581398160177287 a50.735815166705365,50.735815166705365 0 0,0 0.7840585625354336,-0.3847341315071846 l 12.868935028741028 26.8068874518193" fill="#8fff24" stroke="none" /><path d="M 90.91171255644093 81.06846463323043 l -4.6555769673502105 -9.697890890606873 a31.75748505111848,31.75748505111848 0 0,0 0.49484481252633017,-0.23233627462563272 l 4.487953943524272 9.776592147872513" fill="#ff890c" stroke="none" /><path d="M 91.23893434514133 80.91482961587045 l -4.561689889138059 -9.937219078535177 a31.93422780352906,31.93422780352906 0 0,0 0.5015466363123517,-0.2250293559798144 l 4.389961134358932 10.01426876503152" fill="#ff8c0c" stroke="none" /><path d="M 91.56875222667455 80.76684994638697 l -4.442062609294136 -10.133121337317874 a32.06399874646124,32.06399874646124 0 0,0 0.5073994082685841,-0.21724194652605416 l 4.266979443235244 10.208082811806715" fill="#ff8d0d" stroke="none" /><path d="M 91.90106846888425 80.62456947434976 l -4.147893143765563 -9.923187413806762 a31.755215757093406,31.755215757093406 0 0,0 0.5061420446952567,-0.20646804850108794 l 3.9764672294819254 9.993116348491428" fill="#ff890c" stroke="none" /><path d="M 92.23578459929587 80.48803036053334 l -7.6346038684917685 -19.186247573432386 a41.64943757533918,41.64943757533918 0 0,0 0.6684076967230627,-0.2593318019919341 l 7.303213006769028 19.314822079314872" fill="#f7ff18" stroke="none" /><path d="M 92.57280143429618 80.3572730644239 l -4.114679524743578 -10.882101187540446 a32.63403257031771,32.63403257031771 0 0,0 0.5271447918650204,-0.19415187560178745 l 3.9267524071059894 10.951316330948556" fill="#ff950d" stroke="none" /><path d="M 92.91201910852362 80.23233633223022 l -10.29940443677013 -28.723999965806936 a51.51468344564363,51.51468344564363 0 0,0 0.8372804054753017,-0.29211069303861575 l 9.803442027231544 28.89703151201776" fill="#87ff25" stroke="none" /><path d="M 93.25333710446033 80.11325718540243 l -3.859845117847908 -11.37743923941547 a33.01434675628955,33.01434675628955 0 0,0 0.5397329692323712,-0.17794147406469793 l 3.663429326373127 11.442194437739403" fill="#ff9a0e" stroke="none" /><path d="M 94.28887869178378 79.79150937346287 l -3.2155401137838266 -11.378012957835482 a32.82365751753767,32.82365751753767 0 0,0 0.5450323171315721,-0.14897792098711762 l 3.0192099074285323 11.431677419648896" fill="#ff970e" stroke="none" /><path d="M 94.63758080256005 79.69619591428918 l -3.3142305451841465 -12.548718256943214 a33.979000500761664,33.979000500761664 0 0,0 0.5667877069897507,-0.14448680656641494 l 3.0977339495093963 12.603908059678492" fill="#ffa70f" stroke="none" /><path d="M 94.98787191387505 79.60689891045804 l -3.8740797726011085 -15.76266589242041 a37.23176300099748,37.23176300099748 0 0,0 0.623678681732173,-0.14760459371596732 l 3.6021774039064014 15.827016398277248" fill="#ffd013" stroke="none" /><path d="M 95.33964822691252 79.52364482259891 l -3.008726345786253 -13.219549142984171 a34.55761460462724,34.55761460462724 0 0,0 0.5811558587391741,-0.12701816121344348 l 2.7807277628935583 13.269380802293483" fill="#ffae10" stroke="none" /><path d="M 95.692805502759 79.44645832069477 l -4.364787909966262 -20.828372223795437 a42.28080033720445,42.28080033720445 0 0,0 0.7136064701961181,-0.1431427446602178 l 4.005615030303008 20.900418924532865" fill="#f0ff19" stroke="none" /><path d="M 96.04723909329186 79.375362276772 l -1.5958892489405399 -8.326999376545743 a29.478548290354734,29.478548290354734 0 0,0 0.4991769330882908,-0.09122139386322765 l 1.4523171947493556 8.353236251759707" fill="#ff6b09" stroke="none" /><path d="M 96.40284397218896 79.31037775812273 l -1.9927602970081821 -11.461681796660814 a32.63362554018471,32.63362554018471 0 0,0 0.5542600537135246,-0.09145765794612876 l 1.7951710371557719 11.49428571754657" fill="#ff950d" stroke="none" /><path d="M 97.11714578562143 79.19881850522333 l -1.6020824362339185 -11.559796315568926 a32.67028530027994,32.67028530027994 0 0,0 0.5577055283617428,-0.0724061838371945 l 1.4028621793643181 11.585660822570256" fill="#ff950d" stroke="none" /><path d="M 97.47563105711357 79.15227682838746 l -0.14785611929928197 -1.221082779150255 a22.230001864043935,22.230001864043935 0 0,0 0.38027413574312463,-0.04272822998042627 l 0.12681528004643938 1.2234469626012798" fill="#ff0500" stroke="none" /><path d="M 97.83486435360386 79.11191278185805 l -1.105669184380894 -10.6669133623115 a31.72406382974053,31.72406382974053 0 0,0 0.5436520685194811,-0.05162631462604946 l 0.9218919887711765 10.68436522145273" fill="#ff890c" stroke="none" /><path d="M 98.91598698831166 79.02799685794201 l -0.24650893242914246 -4.769118128386166 a25.77548472683862,25.77548472683862 0 0,0 0.443288219462225,-0.01908892321158549 l 0.1643798805775933 4.772654778121945" fill="#ff3705" stroke="none" /><path d="M 99.27714615592234 79.0124445844662 l -0.12707774476677025 -3.689613373747389 a24.691801132367587,24.691801132367587 0 0,0 0.42490282182393196,-0.01097398630228125 l 0.06354828774795926 3.69125415219203" fill="#ff2803" stroke="none" /><path d="M 99.63851952072746 79.00311137660856 l -0.19086626278806212 -11.086622629772338 a32.088265475954785,32.088265475954785 0 0,0 0.5523467420605951,-0.004754222791005373 l 2.715841764644826e-15 11.088265475954785" fill="#ff8e0d" stroke="none" /></svg>