<?xml version="1.0" encoding="utf-8" ?>
<svg baseProfile="full" height="200mm" version="1.1" viewBox="0,0,200,200" width="200mm" xmlns="http://www.w3.org/2000/svg" xmlns:ev="http://www.w3.org/2001/xml-events" xmlns:xlink="http://www.w3.org/1999/xlink"><defs /><rect fill="#1a1a1a" height="200" width="200" x="0" y="0" /><text alignment-baseline="middle" fill="#e1ed5e" style="dominant-baseline: central; font-size:9.0px; font-family:Arial;" text-anchor="middle" x="100.0" y="100.0">2023</text><line stroke="#e1ed5e" stroke-width="0.3" x1="100.0" x2="100.0" y1="15.0" y2="10.0" /><path d="M 100.0 14.0 a86.0,86.0 0 0,1 42.46469731375804,11.215312516191453" fill="none" id="id49" stroke="none" /><text fill="#e1ed5e" style="font-size:6.75px; font-family:Arial;" text-anchor="middle"><textPath startOffset="22.20632615414155" xlink:href="#id49">January</textPath></text><path d="M 100.72285384407766 79.0124445844662 l 0.14264320474439496 -4.141545609461666 a25.144001341591355,25.144001341591355 0 0,0 0.43242793309193645,0.018621256435259165 l -0.2139119702256629 4.138476626502213" fill="#ff3004" stroke="none" /><path d="M 101.08401301168833 79.027996857942 l 0.21099113105365305 -4.081968219654372 a25.087417498085017,25.087417498085017 0 0,0 0.4310710633292508,0.02600338374403154 l -0.28122424322251577 4.077731566530036" fill="#ff3004" stroke="none" /><path d="M 101.44485096284872 79.0497635885617 l 0.28113985838104866 -4.076507992318069 a25.08619101748849,25.08619101748849 0 0,0 0.4305385406777697,0.03341807697163509 l -0.35126858842115954 4.071064653157969" fill="#ff3004" stroke="none" /><path d="M 101.80526077348638 79.07773832637324 l 0.33381425415672983 -3.8687757904170517 a24.883150534397977,24.883150534397977 0 0,0 0.42642003029337117,0.04049372001237634 l -0.40035941154034516 3.862456525889497" fill="#ff2d04" stroke="none" /><path d="M 102.16513564639614 79.11191278185805 l 0.38953832046850967 -3.758060344301435 a24.778195026004408,24.778195026004408 0 0,0 0.4238644133462139,0.047626105568769964 l -0.45416943732444887 3.7507982852620643" fill="#ff2b04" stroke="none" /><path d="M 102.52436894288641 79.15227682838746 l 0.3473478093699365 -2.8686024657435882 a23.889555434170504,23.889555434170504 0 0,0 0.4078120840783559,0.05294571279855265 l -0.39667462195613845 2.8621984297808987" fill="#ff1f03" stroke="none" /><path d="M 102.88285421437855 79.19881850522331 l 0.898688365510687 -6.484469351587281 a27.54644816293378,27.54644816293378 0 0,0 0.46911734962281854,0.06913570285526448 l -1.0101746955621613 6.4680391645710476" fill="#ff5207" stroke="none" /><path d="M 103.2404852339499 79.25152402106235 l 0.63671158098592 -4.076795291393697 a25.12621636433324,25.12621636433324 0 0,0 0.42675178749491055,0.07041770148707469 l -0.7067925746197057 4.065231326966997" fill="#ff3004" stroke="none" /><path d="M 103.59715602781102 79.31037775812273 l 1.0694226843003474 -6.150956806989778 a27.24323109608719,27.24323109608719 0 0,0 0.46132504260427476,0.08430420282046752 l -1.175142848007523 6.131637122818573" fill="#ff4e07" stroke="none" /><path d="M 103.95276090670814 79.375362276772 l 0.7355571503668101 -3.837975559133814 a24.907825573636092,24.907825573636092 0 0,0 0.42038905002049515,0.08432608861926025 l -0.8015126098544306 3.8247455144373452" fill="#ff2d04" stroke="none" /><path d="M 104.307194497241 79.44645832069477 l 0.9195464567869358 -4.387992331837854 a25.483307081882437,25.483307081882437 0 0,0 0.4285531099331767,0.09366511098091593 l -0.9949422908736404 4.371513722761067" fill="#ff3505" stroke="none" /><path d="M 104.66035177308747 79.52364482259891 l 1.7676922481604143 -7.7667729991316845 a28.96539381978364,28.96539381978364 0 0,0 0.4852066401715236,0.11483273533079083 l -1.9011225752944614 7.735194351660025" fill="#ff6609" stroke="none" /><path d="M 105.01212808612495 79.60689891045804 l 3.6471991639420613 -14.839545192363056 a36.28117021885579,36.28117021885579 0 0,0 0.6051891159890842,0.1542761807633868 l -3.9020971686161707 14.774566015430802" fill="#ffc612" stroke="none" /><path d="M 105.36241919743992 79.69619591428918 l 0.5239825983796021 -1.983962765704746 a23.051990745375686,23.051990745375686 0 0,0 0.38277513478609454,0.10462690375152489 l -0.5580556223894075 1.9746493211269276" fill="#ff1302" stroke="none" /><path d="M 105.71112130821622 79.79150937346287 l 1.5923680025763243 -5.634507151470755 a26.855194846937547,26.855194846937547 0 0,0 0.4437626341347971,0.12954648167659982 l -1.6891208544345484 5.606262340875452" fill="#ff4806" stroke="none" /><path d="M 106.0581310904928 79.89281104454417 l 0.621655604346405 -2.0633007960866823 a23.154916672529875,23.154916672529875 0 0,0 0.38063885376294176,0.11826634471914428 l -0.657079830820065 2.052294316485017" fill="#ff1402" stroke="none" /><path d="M 106.40334571778207 80.00007090966166 l 1.7813935394707536 -5.563926428720502 a26.842143463377344,26.842143463377344 0 0,0 0.43882709232432626,0.14467439292947468 l -1.8769034540374974 5.532438311531791" fill="#ff4806" stroke="none" /><path d="M 106.74666289553966 80.11325718540242 l 0.6743641679262296 -1.9877837352441645 a23.099059601127152,23.099059601127152 0 0,0 0.37543451100379605,0.13098172903935956 l -0.7084806829932992 1.9758811530325975" fill="#ff1302" stroke="none" /><path d="M 107.08798089147638 80.2323363322302 l 7.781622379265697 -21.70215980236287 a44.055094598391555,44.055094598391555 0 0,0 0.7116317489302626,0.26209997883839414 l -8.154036453968535 21.56499655571815" fill="#d9ff1c" stroke="none" /><path d="M 107.4271985657038 80.35727306442388 l 1.1104733476683208 -2.9368710886776896 a24.13980299499707,24.13980299499707 0 0,0 0.38740571442407007,0.15030739848765223 l -1.1608622270920579 2.9173209862994907" fill="#ff2203" stroke="none" /><path d="M 108.76106565485865 80.91482961587045 l 4.447307124376269 -9.68804681565233 a31.660055898577603,31.660055898577603 0 0,0 0.49332667245177514,0.23162348750459275 l -4.613412008127641 9.610058345507733" fill="#ff8a0c" stroke="none" /><path d="M 109.41281617654863 81.2277094730956 l 2.722710044284943 -5.429990665193105 a27.074368165441932,27.074368165441932 0 0,0 0.41480447678056215,0.21247896410029107 l -2.815775008654261 5.382319175780314" fill="#ff4c07" stroke="none" /><path d="M 109.73455568895987 81.39251694778311 l 2.010611049813071 -3.8432582060655136 a25.33741748418576,25.33741748418576 0 0,0 0.38471243204822886,0.2055000577649162 l -2.076468528389611 3.808079421798843" fill="#ff3304" stroke="none" /><path d="M 110.05341064243156 81.56283822128135 l 2.1668553892335725 -3.973841791935908 a25.52622147769936,25.52622147769936 0 0,0 0.38395802199129847,0.21367222353562754 l -2.234937500296906 3.935954170840101" fill="#ff3605" stroke="none" /><path d="M 110.36928655335952 81.73862282372117 l 3.089866728432309 -5.441572229871111 a27.25763411621177,27.25763411621177 0 0,0 0.4060131912769326,0.23518904672574878 l -3.1830766521745697 5.387579025755313" fill="#ff4e07" stroke="none" /><line stroke="#e1ed5e" stroke-width="0.3" x1="143.23703022742887" x2="145.7803849466894" y1="26.81831364943548" y2="22.513508569990506" /><path d="M 143.74570117128098 25.957352633546492 a86.0,86.0 0 0,1 28.547481713284135,27.462654790039103" fill="none" id="id50" stroke="none" /><text fill="#e1ed5e" style="font-size:6.75px; font-family:Arial;" text-anchor="middle"><textPath startOffset="19.985693538727396" xlink:href="#id50">February</textPath></text><path d="M 110.68208982089419 81.91981866633111 l 1.0228017544661898 -1.7311632367078704 a23.010733592763593,23.010733592763593 0 0,0 0.3392855240228437,0.20441573193212398 l -1.052449344706671 1.7133008953171318" fill="#ff1202" stroke="none" /><path d="M 110.99172775467656 82.1063720568725 l 2.362541245679172 -3.8460226630422074 a25.513700417857788,25.513700417857788 0 0,0 0.3722337695306386,0.23309275233129426 l -2.4283941675820735 3.804785569387969" fill="#ff3605" stroke="none" /><path d="M 111.2981086023043 82.29822771554956 l 1.08194739618324 -1.695185194722203 a23.01103530861918,23.01103530861918 0 0,0 0.3320524985406579,0.21597618169199656 l -1.110966920508178 1.6763100888706783" fill="#ff1202" stroke="none" /><path d="M 111.60114157652 82.49532879139004 l 1.2089372886421146 -1.8241351172146103 a23.188378005218684,23.188378005218684 0 0,0 0.3308156759376245,0.22336822112244126 l -1.240157658986281 1.803054983793499" fill="#ff1502" stroke="none" /><path d="M 111.90073688211348 82.69761687909136 l 6.303557097954857 -9.164689633400974 a32.12323550787919,32.12323550787919 0 0,0 0.45288998712875195,0.31727837827608996 l -6.46037822466726 9.05482641236095" fill="#ff900d" stroke="none" /><path d="M 112.19680574252982 82.90503203632743 l 1.3359402790407022 -1.8724456840323223 a23.30017157377762,23.30017157377762 0 0,0 0.32448782411959903,0.23575420404281097 l -1.36797341951409 1.8491722451728363" fill="#ff1602" stroke="none" /><path d="M 112.48926042617603 83.11751280151076 l 1.267719479700614 -1.7136529431690313 a23.131600124048664,23.131600124048664 0 0,0 0.3180637383591485,0.23955901357928894 l -1.2970293718181451 1.691577340083895" fill="#ff1402" stroke="none" /><path d="M 112.77801427241765 83.33499621200491 l 3.6319438255080003 -4.736757708944428 a26.968910247682583,26.968910247682583 0 0,0 0.3659648306388934,0.2856413551516123 l -3.712941211306324 4.673537964569592" fill="#ff4a06" stroke="none" /><path d="M 113.34407831869373 83.78471172551755 l 2.691016586811066 -3.270035491730149 a25.234938297976385,25.234938297976385 0 0,0 0.3330320454564702,0.27890476058089053 l -2.7469061692266536 3.223229573755439" fill="#ff3204" stroke="none" /><path d="M 113.6212207817346 84.01681056812373 l 1.4430180878495982 -1.693242611752666 a23.22471835163827,23.22471835163827 0 0,0 0.3020387907864149,0.26192506303031104 l -1.4719506772827773 1.6681525553026837" fill="#ff1502" stroke="none" /><path d="M 114.16331599549186 84.49514656593476 l 4.1111948742403435 -4.5006038122898735 a27.095683552250577,27.095683552250577 0 0,0 0.3416534946583616,0.3175296885419839 l -4.188056252693552 4.429169537673249" fill="#ff4c07" stroke="none" /><path d="M 114.42810811169701 84.74124197986012 l 1.4215305144283517 -1.5033703635975837 a23.06902669233494,23.06902669233494 0 0,0 0.2861841908050306,0.27530896481100225 l -1.4471979488458004 1.4786783120242795" fill="#ff1302" stroke="none" /><path d="M 114.68862486808459 84.99185889309783 l 3.5940784917558655 -3.672259155501741 a26.13837401422556,26.13837401422556 0 0,0 0.31884360306101617,0.3174743873013088 l -3.6567578949842043 3.609848917550314" fill="#ff3e05" stroke="none" /><path d="M 114.94478906791727 85.2469230424477 l 1.437194136490358 -1.4187577758526415 a23.019505041465507,23.019505041465507 0 0,0 0.27594438337158633,0.28438494326051444 l -1.4614027835650534 1.3938086370420129" fill="#ff1202" stroke="none" /><path d="M 115.19652480421416 85.50635884689758 l 4.265314378731796 -4.068031132576001 a26.89421615187497,26.89421615187497 0 0,0 0.3166251944158705,0.3377536813496011 l -4.33470689511813 3.9940080343483455" fill="#ff4906" stroke="none" /><path d="M 115.68641384162765 86.03803664274999 l 47.05924152488298 -41.88589007175005 a84.0,84.0 0 0,0 0.9520325456886072,1.0883377751882088 l -47.773265934149435 41.069636740358895" fill="#4dd2ff" stroke="none" /><path d="M 115.9244219780498 86.31012108654704 l 1.5590816703616364 -1.3403085721324655 a23.056006498868474,23.056006498868474 0 0,0 0.25612960055038403,0.3031766596169374 l -1.5819218843991376 1.3132729628864215" fill="#ff1302" stroke="none" /><path d="M 116.15771136456269 86.58626213691792 l 1.6012051341649387 -1.3292814464934557 a23.0810687268007,23.0810687268007 0 0,0 0.2511456670743811,0.3078748920352511 l -1.6238492933157285 1.3015223848501036" fill="#ff1302" stroke="none" /><path d="M 116.38621287248628 86.86637796730983 l 4.639131776770775 -3.718284620740743 a26.945349793164528,26.945349793164528 0 0,0 0.28696273943854866,0.3644135375645072 l -4.702448596803287 3.6378786892231973" fill="#ff4a06" stroke="none" /><path d="M 116.82858285166822 87.43820079747576 l 1.6393643007429506 -1.2237135679953053 a23.045724861032447,23.045724861032447 0 0,0 0.23455871545365933,0.319937824276405 l -1.6601856287102363 1.1953133000474065" fill="#ff1302" stroke="none" /><path d="M 117.04232023915458 87.72973835380427 l 4.781595066465997 -3.4426898291055115 a26.892008540309366,26.892008540309366 0 0,0 0.2672391814518461,0.37799087018811534 l -4.840146867721726 3.359872458585603" fill="#ff4906" stroke="none" /><path d="M 117.2510076193507 88.02491185347247 l 0.9251595599808002 -0.6422156621127096 a22.12621541815353,22.12621541815353 0 0,0 0.2144931488799674,0.31474222891693493 l -0.936077174529501 0.6261954099253683" fill="#ff0500" stroke="none" /><path d="M 117.45458315368197 88.32363383020206 l 4.896963319704565 -3.2758580561620683 a26.891646268968792,26.891646268968792 0 0,0 0.2540663381203768,0.3869604634468833 l -4.952626293182868 3.1910795287375113" fill="#ff4906" stroke="none" /><path d="M 117.65298651832404 88.62581576622439 l 1.7152695959904545 -1.1051836682216836 a23.040485414658285,23.040485414658285 0 0,0 0.21194218815283522,0.33524164363120773 l -1.7340393803892453 1.0754943768762697" fill="#ff1202" stroke="none" /><line stroke="#e1ed5e" stroke-width="0.3" x1="172.23445277983987" x2="176.4835382374775" y1="55.19839476539836" y2="52.563006222186495" /><path d="M 173.08426987136738 54.67131705675599 a86.0,86.0 0 0,1 12.851231095245387,41.99856678651699" fill="none" id="id51" stroke="none" /><text fill="#e1ed5e" style="font-size:6.75px; font-family:Arial;" text-anchor="middle"><textPath startOffset="22.20632615414155" xlink:href="#id51">March</textPath></text><path d="M 117.84615892207809 88.93136811851018 l 8.242352229233989 -5.11211197105851 a30.698972062821824,30.698972062821824 0 0,0 0.2746596123550853,0.45146818582927906 l -8.3291276398753 4.969476012022149" fill="#ff7d0b" stroke="none" /><path d="M 118.03404312379186 89.2402003453031 l 8.267258901143302 -4.932562756959182 a30.626928123231934,30.626928123231934 0 0,0 0.2662214014089831,0.45505867194313515 l -8.350939977022612 4.789524672662152" fill="#ff7c0b" stroke="none" /><path d="M 118.21658344932153 89.55222093294921 l 3.505207544825791 -2.010345908956016 a25.040788364411064,25.040788364411064 0 0,0 0.2112278245127988,0.3757507303742318 l -3.539293010631023 1.94971166864699" fill="#ff2f04" stroke="none" /><path d="M 118.3937258080291 89.86733742301442 l 8.491429556509015 -4.677724969390938 a30.69461122492379,30.69461122492379 0 0,0 0.2509531497598767,0.46497807332691576 l -8.570690805487358 4.530865912731564" fill="#ff7d0b" stroke="none" /><path d="M 118.56541770881063 90.18545643968196 l 4.344687508849433 -2.29680395455558 a25.914429565597054,25.914429565597054 0 0,0 0.20508255899232447,0.39615422750569795 l -4.383579501001874 2.2216770047895373" fill="#ff3b05" stroke="none" /><path d="M 118.73160827565052 90.50648371742162 l 7.928765467535739 -4.018441073457786 a29.888936409944655,29.888936409944655 0 0,0 0.22863611227285324,0.46091645077739035 l -7.996761592762001 3.8813650341814454" fill="#ff720a" stroke="none" /><path d="M 118.89224826269711 90.83032412892265 l 8.636794427571706 -4.192015919160549 a30.60037579736487,30.60037579736487 0 0,0 0.2259208348925933,0.47584689527995927 l -8.707673456306056 4.0427266082400495" fill="#ff7c0b" stroke="none" /><path d="M 119.04729006885535 91.15688171328212 l 8.663086990057813 -4.022026372479758 a30.55121836930931,30.55121836930931 0 0,0 0.217346725634364,0.4788946995350814 l -8.731036032655524 3.8723096641026133" fill="#ff7b0b" stroke="none" /><path d="M 119.196687751892 91.48605970444005 l 3.7453990668115575 -1.661125317555716 a25.097237055662934,25.097237055662934 0 0,0 0.17174791057996616,0.3964178571369622 l -3.7734376872342046 1.596408315832151" fill="#ff3004" stroke="none" /><path d="M 119.34039704204932 91.81776055985345 l 8.841677701556412 -3.740601800958344 a30.600383659600936,30.600383659600936 0 0,0 0.2010566341898527,0.4868745873598994 l -8.904756022632462 3.5878526431451414" fill="#ff7c0b" stroke="none" /><path d="M 119.47837535516314 92.15188598940014 l 8.760600029204278 -3.5297701464734783 a30.444966392668075,30.444966392668075 0 0,0 0.1916676633688371,0.48777329708226547 l -8.820061242454816 3.3784478444954287" fill="#ff7a0b" stroke="none" /><path d="M 119.61058180528143 92.48833698450437 l 5.469179170207879 -2.0949215737651117 a26.856672877672292,26.856672877672292 0 0,0 0.1616457247547919,0.4331301771447353 l -5.504429483464297 2.000468259591043" fill="#ff4806" stroke="none" /><path d="M 119.7369772167798 92.82701384747503 l 9.261000490708664 -3.3657143922679382 a30.853637067561685,30.853637067561685 0 0,0 0.17711004258603918,0.5007139402855624 l -9.317563614104513 3.205802825555761" fill="#ff7f0b" stroke="none" /><path d="M 119.85752413597 93.16781622104841 l 9.635226676357641 -3.3150980431386303 a31.18957644558475,31.18957644558475 0 0,0 0.17029910673157161,0.5091726530479572 l -9.690863076860984 3.1487522871683593" fill="#ff840c" stroke="none" /><path d="M 119.97218684219823 93.5106431181261 l 3.8918097378943597 -1.2645256378329022 a25.09209092331855,25.09209092331855 0 0,0 0.12993463279526002,0.41192829380129664 l -3.912999854457826 1.1973471776051865" fill="#ff3004" stroke="none" /><path d="M 120.08093135843002 93.85539295169968 l 11.27427323117315 -3.449838930486056 a32.790276737101834,32.790276737101834 0 0,0 0.16050700384044767,0.5411498246442085 l -11.331986132125301 3.2552597190953176" fill="#ff990e" stroke="none" /><path d="M 120.18372546131832 94.20196356495316 l 10.17607353478918 -2.9232088611935523 a31.587616475467804,31.587616475467804 0 0,0 0.14562376957624731,0.5238861795401296 l -10.224884074931792 2.7476113782344704" fill="#ff890c" stroke="none" /><path d="M 120.28053869075195 94.5502522615342 l 11.286419953309299 -3.0328652780791607 a32.68681082064035,32.68681082064035 0 0,0 0.14133725342741074,0.5446300925500274 l -11.336953538607013 2.838138759980283" fill="#ff970e" stroke="none" /><path d="M 120.37134235888165 94.90015583598534 l 35.1822746497828 -8.80767280273156 a57.26799621888045,57.26799621888045 0 0,0 0.23116417495945124,0.9583247440279942 l -35.32867162500307 8.20076282704416" fill="#4aff2c" stroke="none" /><path d="M 120.45610955862082 95.25157060432595 l 3.924972070989815 -0.9110946881506758 a25.029329880864367,25.029329880864367 0 0,0 0.09380708339055464,0.4205187611192548 l -3.940073541382407 0.8433977574814572" fill="#ff2f04" stroke="none" /><path d="M 120.53481517161879 95.60439243477599 l 3.8555142639192512 -0.8252973072645672 a24.942855042309183,24.942855042309183 0 0,0 0.08625560452679346,0.42061296072708926 l -3.869149164361042 0.7588086903740662" fill="#ff2e04" stroke="none" /><path d="M 120.6074358757038 95.95851677861258 l 7.156240590826257 -1.4034655476053122 a28.29256435947633,28.29256435947633 0 0,0 0.08961235414782304,0.47871277912968124 l -7.17933866888394 1.2800746910130683" fill="#ff5c08" stroke="none" /><path d="M 120.67395015179393 96.31383870115 l 8.174215473092893 -1.457461032078633 a29.303131412941685,29.303131412941685 0 0,0 0.08426483607884883,0.49733583249623897 l -8.198092170691964 1.3165394112665563" fill="#ff6a09" stroke="none" /><path d="M 120.73433829027371 96.67025291283417 l 11.566323934290587 -1.857446950573126 a32.7145191334146,32.7145191334146 0 0,0 0.0845033267597621,0.5567713417118376 l -11.59658315448965 1.658076496469206" fill="#ff980e" stroke="none" /><path d="M 120.78858239683441 97.02765380044208 l 2.9353278200399777 -0.4196924217247739 a23.965179782062776,23.965179782062776 0 0,0 0.05487341558189674,0.40887068309694463 l -2.942117234679711 0.36910339656316493" fill="#ff2003" stroke="none" /><path d="M 120.83666639777658 97.38593545837742 l 13.205666793957121 -1.6567172817168867 a34.3091828308338,34.3091828308338 0 0,0 0.06847074957978917,0.5866155680175396 l -13.232227896540499 1.4291579753744945" fill="#ffad10" stroke="none" /><path d="M 120.87857604477298 97.74499172005257 l 9.525319497009002 -1.0287901956933256 a30.58071608946088,30.58071608946088 0 0,0 0.05202052749577421,0.5238396126647458 l -9.541617150187005 0.8646750523241449" fill="#ff7b0b" stroke="none" /><path d="M 120.91429891909075 98.10471618934814 l 9.833133950547571 -0.8910927235257399 a30.873427445995226,30.873427445995226 0 0,0 0.043407327695447,0.5296793446137038 l -9.847015762062513 0.7216994617042674" fill="#ff7f0b" stroke="none" /><path d="M 120.94382443527127 98.46500227214037 l 9.889405549455333 -0.7248062594877156 a30.915930931354378,30.915930931354378 0 0,0 0.03433053513654734,0.531078183507872 l -9.900416675596295 0.5544690117268084" fill="#ff800b" stroke="none" /><path d="M 120.96714384426684 98.82574320788733 l 9.17783711065309 -0.5140012222997624 a30.19221906213112,30.19221906213112 0 0,0 0.02459428226556717,0.519146427130519 l -9.185325001152155 0.3559436885462437" fill="#ff760a" stroke="none" /><path d="M 120.98425023603335 99.18683210126433 l 1.9850239749187604 -0.07692234683004505 a22.98651383796945,22.98651383796945 0 0,0 0.011918294574635916,0.39551017410889144 l -1.9860539639490413 0.04274202529615453" fill="#ff1202" stroke="none" /><line stroke="#e1ed5e" stroke-width="0.3" x1="184.98032266829074" x2="189.97916517819016" y1="98.17113171792111" y2="98.06355123074" /><path d="M 185.9800911702706 98.14961562048488 a86.0,86.0 0 0,1 -9.607161424134198,41.387399972396054" fill="none" id="id52" stroke="none" /><text fill="#e1ed5e" style="font-size:6.75px; font-family:Arial;" text-anchor="middle"><textPath startOffset="21.466115282336823" xlink:href="#id52">April</textPath></text><path d="M 120.99513854157772 99.54816195383933 l 4.040872783543219 -0.08696394451907159 a25.041808454198026,25.041808454198026 0 0,0 0.005565235324536796,0.43103360898988374 l -4.041771025985471 0.017394077468725136" fill="#ff2f04" stroke="none" /><path d="M 120.99980553446 99.90962569577887 l 36.37151606637107 -0.15652766177153388 a57.37185287932399,57.37185287932399 0 0,0 -0.004250168906218985,0.9875895730365839 l -36.36882160017535 -0.4695713894687347" fill="#49ff2c" stroke="none" /><path d="M 120.99824983174949 100.27111621757518 l 4.064312363408556 0.0524758493608028 a25.06465111690066,25.06465111690066 0 0,0 -0.009283394533781486,0.43136286558645576 l -4.062806906189767 -0.1224285307373734" fill="#ff2f04" stroke="none" /><path d="M 120.9904718944345 100.63252640178507 l 9.575922089526818 0.28856061805206745 a30.58026884252098,30.58026884252098 0 0,0 -0.020383740030099948,0.5260137570641542 l -9.569536216645515 -0.45335162213022784" fill="#ff7b0b" stroke="none" /><path d="M 120.9764740272857 100.99374915477107 l 11.452001932813344 0.5425324211479238 a32.4648458209065,32.4648458209065 0 0,0 -0.031249190567345937,0.5579752895988042 l -11.440966391358469 -0.7395794270821512" fill="#ff940d" stroke="none" /><path d="M 120.95626037817324 101.35467743843564 l 9.60808192708615 0.6210961105838025 a30.62813578509266,30.62813578509266 0 0,0 -0.0385381309113379,0.5258221775976423 l -9.595967237510475 -0.786391424678215" fill="#ff7c0b" stroke="none" /><path d="M 120.92983693683757 101.71520430193887 l 9.969250093704328 0.8169820290252964 a31.002669996884535,31.002669996884535 0 0,0 -0.048165458339855305,0.5315018192173935 l -9.9537100390874 -0.9884652367912604" fill="#ff810b" stroke="none" /><path d="M 120.89721153311464 102.0752229133903 l 4.732916256763833 0.4700079839661673 a25.756196358281617,25.756196358281617 0 0,0 -0.04760934593883244,0.4408034145439978 l -4.724124609323948 -0.5514077203949564" fill="#ff3905" stroke="none" /><path d="M 120.8583938346157 102.4346265915055 l 14.175285704601734 1.6545630402920777 a35.27152071999991,35.27152071999991 0 0,0 -0.07557929518897719,0.6024413457880119 l -14.144704900165909 -1.8983221403674844" fill="#ffb911" stroke="none" /><path d="M 120.81339534386255 102.79330883721812 l 7.710791731755831 1.0348442592098859 a28.77992363531505,28.77992363531505 0 0,0 -0.07012152878431614,0.49042980899788235 l -7.691836151954914 -1.1674195401881775" fill="#ff6309" stroke="none" /><path d="M 120.76222939487914 103.15116336523771 l 1.9665959111179245 0.29847782102193365 a22.989117514695334,22.989117514695334 0 0,0 -0.0627474230821197,0.39072826342945205 l -1.9611667336745164 -0.3322853141445906" fill="#ff1202" stroke="none" /><path d="M 120.70491114924044 103.5080841355445 l 7.642246818843656 1.294844717364767 a28.751165027414487,28.751165027414487 0 0,0 -0.08687446228012125,0.4872381203729367 l -7.618825914224346 -1.426201588470922" fill="#ff6309" stroke="none" /><path d="M 120.64145759157962 103.86396538481128 l 1.7152612535317413 0.3210873108233563 a22.74505536560851,22.74505536560851 0 0,0 -0.07535119172655308,0.3842141032394859 l -1.709480128829524 -0.35056514113078713" fill="#ff0e01" stroke="none" /><path d="M 120.5718875245553 104.21870165774334 l 0.8580459677245628 0.175960516123707 a21.87590238380935,21.87590238380935 0 0,0 -0.0788219610781515,0.36822996097511856 l -0.8548899679219681 -0.19070429651499463" fill="#ff0200" stroke="none" /><path d="M 120.49622156327973 104.57218783832717 l 11.333852947945353 2.5282954933910324 a32.61242871872852,32.61242871872852 0 0,0 -0.12693911748090742,0.5468503958023855 l -11.288653264533894 -2.723014546541983" fill="#ff960d" stroke="none" /><path d="M 120.41448212921028 104.9243191809786 l 10.349240137169183 2.4964121741346994 a31.64607181827934,31.64607181827934 0 0,0 -0.13229366917385033,0.5284474466238664 l -10.304735153700271 -2.674187460155962" fill="#ff8a0c" stroke="none" /><path d="M 120.32669344350535 105.2749913415812 l 9.91608242706772 2.5733279783338614 a31.244545260014085,31.244545260014085 0 0,0 -0.13957670926992036,0.5194168590037078 l -9.87031764145602 -2.7436357705131176" fill="#ff840c" stroke="none" /><path d="M 120.23288151984713 105.62410040840565 l 7.386669019281015 2.053260095817023 a28.66673047794694,28.66673047794694 0 0,0 -0.13624527514765578,0.4742876764898869 l -7.35023110724726 -2.180105247811492" fill="#ff6109" stroke="none" /><path d="M 120.13307415673323 105.97154293290107 l 0.7675433930323609 0.2276561586509851 a21.800593646464517,21.800593646464517 0 0,0 -0.10980567386994522,0.35885129552075135 l -0.7635109466562829 -0.24083442672379357" fill="#ff0100" stroke="none" /><path d="M 120.02730092923936 106.31721596034902 l 9.647692835776807 3.0431738843916647 a31.116268301312623,31.116268301312623 0 0,0 -0.1655203947006734,0.5094193938370162 l -9.593880190059886 -3.208792178206476" fill="#ff830c" stroke="none" /><path d="M 119.9155931802556 106.66101706037122 l 0.8857973431330773 0.2962659038692617 a21.934029131717576,21.934029131717576 0 0,0 -0.12284014001182254,0.3570309470693123 l -0.880566372178024 -0.3114695540278744" fill="#ff0200" stroke="none" /><path d="M 119.79798401119884 107.00284435728193 l 40.592024707708454 14.358008927284292 a64.05653133064935,64.05653133064935 0 0,0 -0.3766394068330369,1.0363498874159 l -40.33886103987019 -15.054606611706323" fill="#34ff5f" stroke="none" /><path d="M 119.67450827220406 107.3425965602758 l 3.2514668668971187 1.2134590152099873 a24.470521512413395,24.470521512413395 0 0,0 -0.15067516251834306,0.3933653033282541 l -3.230097424785269 -1.2692478853713853" fill="#ff2703" stroke="none" /><path d="M 119.54520255179757 107.68017299344265 l 0.743102543890424 0.29199779709731777 a21.798413492024093,21.798413492024093 0 0,0 -0.14023374648137332,0.3480486582809248 l -0.7379661831516582 -0.30474582322105614" fill="#ff0000" stroke="none" /><path d="M 119.41010516605496 108.01547362559984 l 6.893439071956067 2.8466707726846123 a28.458085325794237,28.458085325794237 0 0,0 -0.19087111406112714,0.4511629312248971 l -6.843416976702631 -2.9649082295756726" fill="#ff5f08" stroke="none" /><path d="M 119.12269723197855 108.67885076344098 l 3.918428723806982 1.7783818730461958 a25.303106523191694,25.303106523191694 0 0,0 -0.1834178612207342,0.3950657554505083 l -3.8872362457464162 -1.8455676957755347" fill="#ff3304" stroke="none" /><path d="M 118.97047184881838 109.00673069616215 l 8.328095080450183 3.9539822835940583 a30.219064137318615,30.219064137318615 0 0,0 -0.22714194582032482,0.46797968561188996 l -8.258799878015143 -4.096750925171224" fill="#ff770a" stroke="none" /><path d="M 118.81262510543309 109.33194174019688 l 4.876734133359209 2.4190881687104118 a26.443760040217192,26.443760040217192 0 0,0 -0.20578449722023795,0.40603233579583925 l -4.834370966352703 -2.5026747162089453" fill="#ff4306" stroke="none" /><path d="M 118.64920377521936 109.65438752849418 l 9.791115360990549 5.06870015312936 a32.02531909989723,32.02531909989723 0 0,0 -0.2576474921535744,0.4873719581620186 l -9.702415360612083 -5.236487126377512" fill="#ff8f0d" stroke="none" /><line stroke="#e1ed5e" stroke-width="0.3" x1="174.80103733775053" x2="179.2010983576182" y1="140.37084112569926" y2="142.7455964860345" /><path d="M 175.68104954172406 140.8457921977663 a86.0,86.0 0 0,1 -30.038265399797805,32.042727171017184" fill="none" id="id53" stroke="none" /><text fill="#e1ed5e" style="font-size:6.75px; font-family:Arial;" text-anchor="middle"><textPath startOffset="22.206326154141568" xlink:href="#id53">May</textPath></text><path d="M 118.48025628344425 109.97397251340804 l 9.83185016232269 5.306344336945342 a32.172402062072265,32.172402062072265 0 0,0 -0.26722028020172867,0.4850824279433966 l -9.739053472669452 -5.474797283286544" fill="#ff910d" stroke="none" /><path d="M 118.30583269289576 110.29060199501025 l 11.200630892678895 6.2964212851298536 a33.84908764830675,33.84908764830675 0 0,0 -0.2898900402671959,0.5054477201100682 l -11.09058885625932 -6.488288851098237" fill="#ffa70f" stroke="none" /><path d="M 118.12598468904814 110.60418214915192 l 6.230069214004623 3.644755850811552 a28.217894957902423,28.217894957902423 0 0,0 -0.24888065684486174,0.4171382964606233 l -6.166407681461535 -3.7514562411582792" fill="#ff5b08" stroke="none" /><path d="M 117.94076556474637 110.91462005526583 l 8.834111025378531 5.374406405349212 a31.340491372201477,31.340491372201477 0 0,0 -0.2843558007897861,0.4584720917312041 l -8.740290584920782 -5.52567482844569" fill="#ff860c" stroke="none" /><path d="M 117.75023020441432 111.22182372390056 l 9.118199464794618 5.764591551485498 a31.78758903718708,31.78758903718708 0 0,0 -0.29637406373572484,0.45997912852260814 l -9.017620537681843 -5.920692279929559" fill="#ff8b0c" stroke="none" /><path d="M 117.35343817320211 111.8261652097733 l 28.605031260395922 19.49399433932175 a55.61594471785706,55.61594471785706 0 0,0 -0.5459343043552304,0.7864590831281585 l -28.265236048878556 -19.983494684636927" fill="#5bff2a" stroke="none" /><path d="M 117.14729908036423 112.12312394758627 l 6.286407070937316 4.4444837492352764 a28.6988537886329,28.6988537886329 0 0,0 -0.28865608837225043,0.40091806017411324 l -6.208971190189462 -4.55203541486052" fill="#ff6209" stroke="none" /><path d="M 116.93607887273984 112.41649034213515 l 6.243375940954311 4.577258859956947 a28.74151418077507,28.74151418077507 0 0,0 -0.2959537437959929,0.39647840388432953 l -6.163660930463227 -4.684050143350592" fill="#ff6209" stroke="none" /><path d="M 116.71984013943494 112.70617746262583 l 7.98341204244184 6.066962920852326 a31.027108602304175,31.027108602304175 0 0,0 -0.32680880496496706,0.4224444346874649 l -7.877796420258805 -6.203485349653044" fill="#ff810b" stroke="none" /><path d="M 116.27256486870786 113.27417163493432 l 7.507510106327077 6.124171481659176 a30.68855945604767,30.68855945604767 0 0,0 -0.33743386361458244,0.40646082609973383 l -7.40098024281895 -6.2524935648726805" fill="#ff7d0b" stroke="none" /><path d="M 116.0416608686014 113.55231037782055 l 7.361801498064436 6.219394591301567 a30.637270898922317,30.637270898922317 0 0,0 -0.34380487493524975,0.399922741551747 l -7.253654113558407 -6.345194432014843" fill="#ff7c0b" stroke="none" /><path d="M 115.80600337817218 113.82643327865902 l 25.139242083179614 21.99076167598132 a54.40022592148918,54.40022592148918 0 0,0 -0.6226006132076665,0.6994983890825978 l -24.75698262032361 -22.420234234804788" fill="#68ff28" stroke="none" /><path d="M 115.56566222782051 114.09645910891815 l 0.6091885767366596 0.5516888222230665 a21.821870597230678,21.821870597230678 0 0,0 -0.2545402660497235,0.27625318648387726 l -0.599601902691214 -0.5620932635082785" fill="#ff0100" stroke="none" /><path d="M 115.32070863581623 114.36230785411682 l 0.558423535267564 0.523490846092298 a21.765427665219356,21.765427665219356 0 0,0 -0.25858721947177477,0.27112766579807623 l -0.5493297644168248 -0.5330256284728814" fill="#ff0000" stroke="none" /><path d="M 115.07121518719521 114.62390073753431 l 8.032083417303953 7.79369076423546 a32.19178179518607,32.19178179518607 0 0,0 -0.3893049896692401,0.3943638991672286 l -7.896737802579178 -7.930795157383353" fill="#ff910d" stroke="none" /><path d="M 114.55890576462653 115.13401014063108 l 8.844426843773139 9.193798469865019 a33.757343630213434,33.757343630213434 0 0,0 -0.4222306903720379,0.39924547205765304 l -8.684860319010294 -9.344678578668594" fill="#ffa50f" stroke="none" /><path d="M 114.29624159901734 115.38237550388516 l 6.972810482108926 7.502558515840867 a31.242483600329777,31.242483600329777 0 0,0 -0.3970777594620063,0.362721118645736 l -6.842633173180055 -7.621472401073186" fill="#ff840c" stroke="none" /><path d="M 113.48314897796784 116.09983520530334 l 6.419537061180117 7.665382096439202 a30.99842681446815,30.99842681446815 0 0,0 -0.4120279472399664,0.33907094985866004 l -6.286638985395459 -7.7747481651550405" fill="#ff810b" stroke="none" /><path d="M 113.20401910651253 116.32954008644616 l 5.9799894041198245 7.395511616832975 a30.510723702647283,30.510723702647283 0 0,0 -0.4112300826574015,0.32670604856596785 l -5.851801828745072 -7.497351579404068" fill="#ff7a0b" stroke="none" /><path d="M 112.92097659922987 116.55440617244103 l 5.70047298134096 7.303468463348868 a30.264774352682842,30.264774352682842 0 0,0 -0.4134330619243632,0.3170028421934384 l -5.573911190923103 -7.4005106473696785" fill="#ff770b" stroke="none" /><path d="M 112.04921762599082 117.19931262002967 l 26.38665956702595 37.66488588542337 a66.98803574700801,66.98803574700801 0 0,0 -0.9500916790420251,0.6534817202435675 l -25.734411003361043 -38.11350839503203" fill="#38ff80" stroke="none" /><path d="M 111.45004920935366 117.60387380957326 l 4.26181147815585 6.552320438968789 a28.81638920539843,28.81638920539843 0 0,0 -0.41813705667539497,0.26687485304034964 l -4.148392619433524 -6.624709720832948" fill="#ff6309" stroke="none" /><path d="M 111.1453310114006 117.79835938074945 l 4.026191862356427 6.429563162257608 a28.586138897355173,28.586138897355173 0 0,0 -0.4192916844766424,0.257563198486929 l -3.9149209779474763 -6.497914827572915" fill="#ff6008" stroke="none" /><line stroke="#e1ed5e" stroke-width="0.3" x1="143.8653032363475" x2="146.44561519142675" y1="172.8068346515853" y2="177.08958963109032" /><path d="M 144.38136562736335 173.6633856474863 a86.0,86.0 0 0,1 -40.68145358897372,12.25698825130547" fill="none" id="id54" stroke="none" /><text fill="#e1ed5e" style="font-size:6.75px; font-family:Arial;" text-anchor="middle"><textPath startOffset="21.466115282336833" xlink:href="#id54">June</textPath></text><path d="M 110.21172684928248 118.3499491758327 l 5.533624420112634 9.943639148000534 a32.37967305015903,32.37967305015903 0 0,0 -0.48936045644152226,0.2668383387758212 l -5.361641151802463 -10.037418138536125" fill="#ff930d" stroke="none" /><path d="M 109.89434966115114 118.52300852407294 l 5.447348698092677 10.197869473376691 a32.56158075847071,32.56158075847071 0 0,0 -0.49665574024078,0.25982680989406987 l -5.271002055325401 -10.290125702215478" fill="#ff960d" stroke="none" /><path d="M 109.57404056367764 118.69057910512821 l 3.4441265546650905 6.723673185829217 a28.55445489988444,28.55445489988444 0 0,0 -0.4393933580545957,0.22032095138505875 l -3.3278792889277344 -6.781961978123578" fill="#ff6008" stroke="none" /><path d="M 108.92500713936063 119.00905698771935 l 3.550008579257029 7.561037692886795 a29.35295468119236,29.35295468119236 0 0,0 -0.4592088110266778,0.21080024237246506 l -3.4193317724629315 -7.621025005593335" fill="#ff6b09" stroke="none" /><path d="M 108.59647513512805 119.15986991738527 l 3.001984523547818 6.6908392173606 a28.333433064547002,28.333433064547002 0 0,0 -0.44669590017332916,0.1958183554535572 l -2.8863679487167353 -6.741522126108611" fill="#ff5d08" stroke="none" /><path d="M 107.59598834532513 119.57807347666477 l 5.801163943732973 14.95205215927977 a37.037997595581885,37.037997595581885 0 0,0 -0.5963642833559798,0.22549394310197818 l -5.542929439616718 -15.049694352488379" fill="#ffcf13" stroke="none" /><path d="M 106.57524785965236 119.94407469862006 l 2.578267742463218 7.8204146134572605 a29.23446108001017,29.23446108001017 0 0,0 -0.47927623512462647,0.15344911544224388 l -2.4432701622476514 -7.8636365755592115" fill="#ff6909" stroke="none" /><path d="M 106.2309692047433 120.05430185196036 l 5.040815956332886 16.22380747629493 a37.98887149087612,37.98887149087612 0 0,0 -0.6261380531317007,0.18865025911981145 l -4.760802928760939 -16.308173104520467" fill="#ffdb14" stroke="none" /><path d="M 105.53697534728816 120.25689768951611 l 2.000492246795813 7.3187551380123645 a28.587235728489826,28.587235728489826 0 0,0 -0.4757862905098961,0.1256594836779653 l -1.8742155134744194 -7.352105970993914" fill="#ff6008" stroke="none" /><path d="M 105.18746579009965 120.34920634021253 l 5.628333277971144 22.078625644819788 a43.78472834711907,43.78472834711907 0 0,0 -0.7319278602222362,0.17989006032625984 l -5.247452133005697 -22.172236963460076" fill="#ddff1b" stroke="none" /><path d="M 104.48393922423573 120.51570834832081 l 1.549582340626432 7.089922002102699 a28.257285954561887,28.257285954561887 0 0,0 -0.4760794784550335,0.09976708354431779 l -1.4273114007420205 -7.115545066373558" fill="#ff5c08" stroke="none" /><path d="M 103.7750983002368 120.6578951692458 l 4.408968433490736 24.12652610869818 a45.526073161458456,45.526073161458456 0 0,0 -0.7721027514901015,0.13423996021496085 l -3.993016710528585 -24.198844647434147" fill="#c8ff1d" stroke="none" /><path d="M 103.06178313531738 120.77559828337769 l 0.8837065842359048 5.996353165149275 a27.061121068599242,27.061121068599242 0 0,0 -0.46141970214747974,0.06394856625173925 l -0.7803582909015946 -6.0106762968936165" fill="#ff4b07" stroke="none" /><path d="M 102.34483914955558 120.86867818915974 l 0.8518703357254287 7.581504214698373 a28.629212883802506,28.629212883802506 0 0,0 -0.490196749421633,0.050810897371136074 l -0.7212409896981931 -7.595044480525267" fill="#ff6108" stroke="none" /><path d="M 101.26447882468166 120.96189622390904 l 0.2292707999979226 3.8007364163958797 a24.80764525745893,24.80764525745893 0 0,0 -0.42646933011944904,0.0220435930609014 l -0.16381340146499396 -3.8041198162189827" fill="#ff2c04" stroke="none" /><line stroke="#e1ed5e" stroke-width="0.3" x1="102.19456741930631" x2="102.32365962044197" y1="184.97166512339345" y2="189.96999836594603" /><path d="M 102.22038585953345 185.97133177190398 a86.0,86.0 0 0,1 -42.740103519485714,-10.115201625700543" fill="none" id="id55" stroke="none" /><text fill="#e1ed5e" style="font-size:6.75px; font-family:Arial;" text-anchor="middle"><textPath startOffset="22.20632615414155" xlink:href="#id55">July</textPath></text><path d="M 100.54218724476979 120.99299961872073 l 0.14021014986581656 5.428810159345606 a26.430620464766385,26.430620464766385 0 0,0 -0.4549091265292552,0.007831673160376976 l -0.046741333443893446 -5.430419309785143" fill="#ff4306" stroke="none" /><path d="M 100.18074693466247 120.99922214144158 l 0.06533272506275352 7.590371639001915 a28.590652803489878,28.590652803489878 0 0,0 -0.4921593194504127,0.0 l 0.06533272506274829 -7.590371639001915" fill="#ff6008" stroke="none" /><path d="M 99.45781275523022 120.99299961872073 l -0.4370941716498011 16.923890901722604 a37.92953438722694,37.92953438722694 0 0,0 -0.652531849741042,-0.022474516284984387 l 0.7283463730654861 -16.913859587011526" fill="#ffdb14" stroke="none" /><path d="M 98.73552117531835 120.96189622390904 l -0.4613976292891644 7.648818655031356 a28.662722400679105,28.662722400679105 0 0,0 -0.4922307178638491,-0.03394711222738317 l 0.5929911079319435 -7.639743198287688" fill="#ff6109" stroke="none" /><path d="M 98.37488393609728 120.93702456842531 l -0.6335149751272561 8.161828495406905 a29.186378052114783,29.186378052114783 0 0,0 -0.5005542809529854,-0.04318992958319401 l 0.7739135738217832 -8.149714313545047" fill="#ff6909" stroke="none" /><path d="M 97.65516085044442 120.86867818915974 l -3.965078022011126 35.288534504357386 a56.51059716740705,56.51059716740705 0 0,0 -0.9657192204939156,-0.11693514863449937 l 4.5719246655564305 -35.21505382699754" fill="#52ff2b" stroke="none" /><path d="M 96.93821686468263 120.77559828337769 l -1.104108906832868 7.491883682049646 a28.572805133073835,28.572805133073835 0 0,0 -0.48596101283983073,-0.07589711591257921 l 1.2329057832812158 -7.471768258789961" fill="#ff6008" stroke="none" /><path d="M 96.22490169976321 120.6578951692458 l -1.3643775498027906 7.466075358443133 a28.5897172118833,28.5897172118833 0 0,0 -0.48334645240264745,-0.09263449797721725 l 1.492691616777133 -7.441483662117447" fill="#ff6008" stroke="none" /><path d="M 95.16358092515715 120.4354850818985 l -3.7162528727324395 15.702408944732284 a37.13617619145566,37.13617619145566 0 0,0 -0.620787269962281,-0.15257440727748925 l 3.985993427437931 -15.636113279140764" fill="#ffd113" stroke="none" /><path d="M 94.11515582081647 120.15858648285463 l -0.26011337118530614 0.8910206844445875 a21.928211627796962,21.928211627796962 0 0,0 -0.3614239433405201,-0.10889406932268299 l 0.27541228896607206 -0.8864112460161789" fill="#ff0200" stroke="none" /><path d="M 93.76903079525671 120.05430185196036 l -2.6536119958131645 8.540619318341284 a29.943368211426154,29.943368211426154 0 0,0 -0.490898215775071,-0.15717010663646375 l 2.8002315566791762 -8.493676365045113" fill="#ff730a" stroke="none" /><path d="M 93.08242187328487 119.8279376855182 l -1.4798912829841255 4.241830247934574 a25.492571876080014,25.492571876080014 0 0,0 -0.4130773123176562,-0.14811482761029232 l 1.5526881559315084 -4.215727879284325" fill="#ff3505" stroke="none" /><path d="M 92.7421414339146 119.70592522655815 l -2.9298824897991103 7.954969739472868 a29.477367218657008,29.477367218657008 0 0,0 -0.47462741286726506,-0.17946347529307927 l 3.0663801234266583 -7.903358014073155" fill="#ff6c0a" stroke="none" /><path d="M 92.06813273071674 119.44442032107085 l -0.3096703389096703 0.7591352737389154 a21.81986711279029,21.81986711279029 0 0,0 -0.34654992533753654,-0.14485789689712192 l 0.3226917237446691 -0.7536923338218203" fill="#ff0100" stroke="none" /><path d="M 91.07499286063937 119.00905698771935 l -4.045573676829895 8.616524263798617 a30.518989272149078,30.518989272149078 0 0,0 -0.47360723758237605,-0.22736025510397412 l 4.1932935824125135 -8.54560973219508" fill="#ff7b0b" stroke="none" /><line stroke="#e1ed5e" stroke-width="0.3" x1="58.666819895761336" x2="56.23545636021788" y1="174.27360380694188" y2="178.64263932499728" /><path d="M 58.180547188652646 175.14741091055294 a86.0,86.0 0 0,1 -31.652253787137756,-30.449443065178592" fill="none" id="id56" stroke="none" /><text fill="#e1ed5e" style="font-size:6.75px; font-family:Arial;" text-anchor="middle"><textPath startOffset="22.20632615414155" xlink:href="#id56">August</textPath></text><path d="M 89.1626897886671 117.98757091392108 l -2.3771869791566416 3.945611828894099 a25.60639453783335,25.60639453783335 0 0,0 -0.37558581582820894,-0.23071548426194724 l 2.4447519949171594 -3.9041078778037734" fill="#ff3705" stroke="none" /><path d="M 88.8546689885994 117.79835938074946 l -2.6259148731884103 4.1934130595542705 a25.9477411016819,25.9477411016819 0 0,0 -0.37651185283130884,-0.24030767851869791 l 2.697708528066643 -4.147590952211768" fill="#ff3c05" stroke="none" /><path d="M 88.24862548938628 117.40417183066458 l -9.684751846317234 14.34343575029577 a38.306893639460775,38.306893639460775 0 0,0 -0.5433068829522184,-0.37369142823118867 l 9.930215613892342 -14.17460353269948" fill="#ffdf14" stroke="none" /><path d="M 87.65650970185807 116.9893568818739 l -3.539805944613734 4.87212490414273 a27.02227757639006,27.02227757639006 0 0,0 -0.3739561903438269,-0.27664384958649296 l 3.6231471053761255 -4.81047110581647" fill="#ff4b07" stroke="none" /><path d="M 87.36589467227662 116.77436683061367 l -4.5720707103156775 6.070361872165865 a28.599547607533726,28.599547607533726 0 0,0 -0.39068517079448856,-0.2995607292948893 l 4.675884609603653 -5.990761801043609" fill="#ff6108" stroke="none" /><path d="M 86.79598089348748 116.32954008644616 l -4.72601212825584 5.844705606289277 a28.516367091927496,28.516367091927496 0 0,0 -0.37903666098772326,-0.3119213673083909 l 4.825918917788251 -5.762489120123705" fill="#ff5f08" stroke="none" /><path d="M 86.24171649860922 115.8653595955263 l -12.861775437248374 14.831551648737685 a40.63161205065389,40.63161205065389 0 0,0 -0.5244528171458371,-0.4627686340477432 l 13.115170607300799 -14.607959872917652" fill="#fffc17" stroke="none" /><path d="M 85.70375840098266 115.38237550388516 l -4.695031709454623 5.0517291735222924 a27.89661441545057,27.89661441545057 0 0,0 -0.34892575946454435,-0.32993108442152785 l 4.781293303309985 -4.970163452354834" fill="#ff5708" stroke="none" /><path d="M 85.44109423537348 115.13401014063109 l -6.46059030873628 6.715795872821629 a30.318859444306753,30.318859444306753 0 0,0 -0.37299422768325,-0.3650533566665733 l 6.575234488795324 -6.603592413232486" fill="#ff780b" stroke="none" /><path d="M 84.9287848128048 114.62390073753433 l -5.752423363578408 5.5816911393260735 a29.015338453781844,29.015338453781844 0 0,0 -0.3447208025590847,-0.3614383833075931 l 5.84765071751645 -5.4818456394359805" fill="#ff6609" stroke="none" /><path d="M 84.43433777217949 114.09645910891817 l -8.701156707435716 7.879876739676034 a32.73893459730656,32.73893459730656 0 0,0 -0.37469110487640356,-0.42096942840177387 l 8.835506661960459 -7.728933141533395" fill="#ff980e" stroke="none" /><path d="M 83.95833913139862 113.55231037782056 l -6.15521366110696 5.200045472872262 a29.05773715963837,29.05773715963837 0 0,0 -0.31950227353346333,-0.38486107070002695 l 6.2438119345339596 -5.0933231450584735" fill="#ff6709" stroke="none" /><path d="M 83.72743513129214 113.27417163493432 l -7.779622227781136 6.3461440491843675 a31.03972441354764,31.03972441354764 0 0,0 -0.3341678906979313,-0.41692582430776987 l 7.887708030533928 -6.211290391298338" fill="#ff820b" stroke="none" /><path d="M 83.28015986056508 112.70617746262583 l -7.989620845580371 6.071681276641073 a31.034906814776416,31.034906814776416 0 0,0 -0.3195689970411107,-0.4281148947556921 l 8.092951109316566 -5.933253502376073" fill="#ff810b" stroke="none" /><path d="M 82.85270091963577 112.12312394758628 l -10.3124432978377 7.290887487073931 a33.62947057957256,33.62947057957256 0 0,0 -0.3301118360900379,-0.4755507207918506 l 10.436416041089872 -7.1122955040950675" fill="#ffa40f" stroke="none" /><path d="M 82.44556493220864 111.52570212397912 l -4.697075309302842 3.0839551748521727 a26.619012011177755,26.619012011177755 0 0,0 -0.24818443302364815,-0.38518775150611656 l 4.749464605703536 -3.002645823424608" fill="#ff4506" stroke="none" /><path d="M 82.24976979558568 111.22182372390057 l -6.58033295804045 4.160134017942986 a28.785081687812905,28.785081687812905 0 0,0 -0.2611702815035598,-0.42108965221174655 l 6.650967879211966 -4.046248034365975" fill="#ff6309" stroke="none" /><line stroke="#e1ed5e" stroke-width="0.3" x1="26.63291911575756" x2="22.317208475507996" y1="142.92168965132927" y2="145.44649492493687" /><path d="M 25.769776987707644 143.4266507060508 a86.0,86.0 0 0,1 -11.730757126820373,-40.83630448921669" fill="none" id="id57" stroke="none" /><text fill="#e1ed5e" style="font-size:6.75px; font-family:Arial;" text-anchor="middle"><textPath startOffset="21.46611528233685" xlink:href="#id57">September</textPath></text><path d="M 81.87401531095188 110.60418214915194 l -5.49099112207065 3.2123755501677587 a27.361630308181567,27.361630308181567 0 0,0 -0.2343302187115748,-0.40857448807655217 l 5.545473336934601 -3.1173812162328995" fill="#ff4f07" stroke="none" /><path d="M 81.51974371655577 109.97397251340807 l -8.895466378589976 4.800968979715164 a31.10834433707182,31.10834433707182 0 0,0 -0.25027032138213584,-0.47341713122184237 l 8.976789208196998 -4.647136833407195" fill="#ff820c" stroke="none" /><path d="M 81.18737489456691 109.33194174019688 l -6.266846228010459 3.10864877000481 a27.995502756827513,27.995502756827513 0 0,0 -0.21042852093328002,-0.43354507999164876 l 6.319428005558458 -3.000314734047877" fill="#ff5808" stroke="none" /><path d="M 81.02952815118164 109.00673069616217 l -7.605493862866685 3.6109083411344405 a29.4191564866189,29.4191564866189 0 0,0 -0.21325439849641237,-0.45933100235934576 l 7.666522878202923 -3.4794572714962677" fill="#ff6c09" stroke="none" /><path d="M 80.73074385275274 108.34839909993369 l -5.605440770036803 2.428555431600925 a27.10891542835135,27.10891542835135 0 0,0 -0.1818221018582871,-0.4297737394123742 l 5.646413853087396 -2.331707166522392" fill="#ff4c07" stroke="none" /><path d="M 80.45479744820244 107.68017299344265 l -14.891174466341248 5.85139988567264 a36.99956116926534,36.99956116926534 0 0,0 -0.22782166246266106,-0.5947704708694757 l 14.989690408397419 -5.594205847970006" fill="#ffcf13" stroke="none" /><path d="M 80.20201598880116 107.00284435728193 l -7.960534897800125 2.815760779404218 a29.44385129108304,29.44385129108304 0 0,0 -0.1648984230559727,-0.47927200464150627 l 8.007824151799326 -2.678316071673415" fill="#ff6c0a" stroke="none" /><path d="M 80.0844068197444 106.66101706037122 l -9.9354840714284 3.323045831667352 a31.476472561552825,31.476472561552825 0 0,0 -0.16743647122856473,-0.5153164710228738 l 9.991212793673213 -3.1515304606666747" fill="#ff870c" stroke="none" /><path d="M 79.86692584326677 105.97154293290107 l -7.043603664882566 2.089158434511544 a28.34689972385889,28.34689972385889 0 0,0 -0.13472520542344668,-0.4689961143655049 l 7.078521507192116 -1.967604844641443" fill="#ff5d08" stroke="none" /><path d="M 79.67330655649465 105.27499134158121 l -27.315489722907742 7.088657689449597 a49.22029494247839,49.22029494247839 0 0,0 -0.20576119061951217,-0.821913674903644 l 27.43346222782231 -6.617416175148562" fill="#9fff22" stroke="none" /><path d="M 79.50377843672027 104.57218783832718 l -9.465115266392456 2.111427453872604 a30.697759168955603,30.697759168955603 0 0,0 -0.11060835507260183,-0.5167254114817407 l 9.500057660189498 -1.9481882229746994" fill="#ff7d0b" stroke="none" /><path d="M 79.4281124754447 104.21870165774334 l -12.052351614457292 2.471590206534329 a33.30316778669411,33.30316778669411 0 0,0 -0.11032874357347311,-0.5625638865467817 l 12.09311029100643 -2.263762592919593" fill="#ff9f0e" stroke="none" /><path d="M 79.35854240842038 103.8639653848113 l -9.304750169175213 1.741797177282512 a30.46637381036453,30.46637381036453 0 0,0 -0.09205713368056175,-0.5163052939172109 l 9.333353745194962 -1.5813731326320875" fill="#ff7a0b" stroke="none" /><path d="M 79.29508885075956 103.50808413554451 l -7.896019584863306 1.3378420626849143 a29.00855459301077,29.00855459301077 0 0,0 -0.07917711703743327,-0.49303598337256516 l 7.91787845626203 -1.2017268496191356" fill="#ff6609" stroke="none" /><path d="M 79.18660465613746 102.79330883721812 l -21.805924996834204 2.926513526075596 a43.00142828058811,43.00142828058811 0 0,0 -0.09214282727887464,-0.7344689935490609 l 21.853069333359926 -2.550726778239126" fill="#e6ff1a" stroke="none" /><path d="M 79.10278846688536 102.07522291339032 l -7.543814794655074 0.7491476693640824 a28.58092104473925,28.58092104473925 0 0,0 -0.04440305180274532,-0.48998397659667087 l 7.555592442734895 -0.6191823042188453" fill="#ff6008" stroke="none" /><path d="M 79.07016306316243 101.71520430193888 l -8.475376538945143 0.6945587939371238 a29.503788531891956,29.503788531891956 0 0,0 -0.03712341073582394,-0.5065194448031357 l 8.486076508345302 -0.5485662126372275" fill="#ff6d0a" stroke="none" /><path d="M 79.0235259727143 100.99374915477108 l -5.686793474105409 0.2694087767514659 a26.693171445347364,26.693171445347364 0 0,0 -0.01779273655581386,-0.45915147025789266 l 5.690588343512424 -0.17148005947957648" fill="#ff4606" stroke="none" /><line stroke="#e1ed5e" stroke-width="0.3" x1="15.007084014347285" x2="10.007500721073583" y1="101.09737516637583" y2="101.16192664675087" /><path d="M 14.007167355692545 101.11028546245083 a86.0,86.0 0 0,1 10.666146001902534,-42.60595125391555" fill="none" id="id58" stroke="none" /><text fill="#e1ed5e" style="font-size:6.75px; font-family:Arial;" text-anchor="middle"><textPath startOffset="22.20632615414155" xlink:href="#id58">October</textPath></text><path d="M 79.00175016825051 100.2711162175752 l -18.361486550683015 0.23707198564483448 a39.36301694921863,39.36301694921863 0 0,0 -0.0029160548648208694,-0.6775884541166959 l 18.362846902837337 0.07902594667553677" fill="#ffec16" stroke="none" /><path d="M 79.00486145842228 99.54816195383935 l -7.182351294406786 -0.1545719533727971 a28.184014379512078,28.184014379512078 0 0,0 0.014613150477648601,-0.4849393219390922 l 7.178626449473492 0.27818142273688373" fill="#ff5b08" stroke="none" /><path d="M 79.01574976396665 99.18683210126434 l -13.159677826378354 -0.5099552019132362 a34.169554844490094,34.169554844490094 0 0,0 0.02783418055508554,-0.5875355593324442 l 13.14895003758977 0.7364018678686894" fill="#ffab0f" stroke="none" /><path d="M 79.05617556472873 98.46500227214037 l -5.722301720009257 -0.4193942785133795 a26.73765008829143,26.73765008829143 0 0,0 0.037592520014784477,-0.4587239625418866 l 5.7142347161749765 0.5178321582630445" fill="#ff4706" stroke="none" /><path d="M 79.12142395522702 97.74499172005258 l -15.142027942918766 -1.6354275460766146 a36.2300897398078,36.2300897398078 0 0,0 0.07230429864969715,-0.6194590753395319 l 15.11163329126548 1.8958303597410082" fill="#ffc512" stroke="none" /><path d="M 79.21141760316559 97.0276538004421 l -9.675894925016467 -1.3834569841603892 a30.77429771528275,30.77429771528275 0 0,0 0.0794916325999255,-0.5237505389977175 l 9.650647398977238 1.549806635550199" fill="#ff7e0b" stroke="none" /><path d="M 79.26566170972629 96.67025291283419 l -12.035655422323863 -1.9328173401807287 a33.18986399905336,33.18986399905336 0 0,0 0.09544162396665708,-0.563301867291785 l 12.000601936836983 2.1397049957883416" fill="#ff9e0e" stroke="none" /><path d="M 79.3925641242962 95.95851677861259 l -5.621720423780726 -1.1025189599074647 a26.728812143901106,26.728812143901106 0 0,0 0.09243167415456865,-0.4507296696186028 l 5.601909453711163 1.19912428568947" fill="#ff4706" stroke="none" /><path d="M 79.54389044137918 95.25157060432595 l -58.656428750758664 -13.615781130189708 a81.21599562888633,81.21599562888633 0 0,0 0.32783107254717153,-1.3590714423560253 l 58.41336487795068 14.623437804205132" fill="#4aecff" stroke="none" /><path d="M 79.71946130924805 94.55025226153421 l -9.14031445909505 -2.4561678963209266 a30.464571260551615,30.464571260551615 0 0,0 0.1404463584307255,-0.5052602769637269 l 9.096681330097963 2.613139476703596" fill="#ff7a0b" stroke="none" /><path d="M 79.81627453868168 94.20196356495316 l -11.794035947884463 -3.387989510318079 a33.27101287025714,33.27101287025714 0 0,0 0.16286018667537783,-0.5490835873337525 l 11.733969864097379 3.5905024843983706" fill="#ff9f0e" stroke="none" /><path d="M 80.02781315780177 93.51064311812611 l -5.273213623431892 -1.7133709686967125 a26.54458492537723,26.54458492537723 0 0,0 0.14493685444041754,-0.4333427468658085 l 5.2429394752197025 1.8038868184848431" fill="#ff4406" stroke="none" /><path d="M 80.2630227832202 92.82701384747504 l -20.601488264922924 -7.48717437440543 a42.9198334583662,42.9198334583662 0 0,0 0.2583271434005623,-0.692188312138218 l 20.469556533020736 7.840685823572989" fill="#e7ff1a" stroke="none" /><path d="M 80.52162464483688 92.15188598940014 l -5.0553197174699775 -2.036860096354045 a26.450234536050733,26.450234536050733 0 0,0 0.17378851155946007,-0.42084266552231486 l 5.019509519024318 2.1235773323296714" fill="#ff4306" stroke="none" /><path d="M 80.65960295795068 91.81776055985345 l -8.48585202191647 -3.5900645134643523 a30.214024514222864,30.214024514222864 0 0,0 0.20676361979689575,-0.477238941754723 l 8.422797692276893 3.7356025998056746" fill="#ff760a" stroke="none" /><path d="M 80.95270993114464 91.15688171328213 l -5.083381094945975 -2.360070128431351 a26.604524455078067,26.604524455078067 0 0,0 0.19641969159507594,-0.4137099637658419 l 5.042003209509147 2.447222507837725" fill="#ff4506" stroke="none" /><path d="M 81.10775173730289 90.83032412892265 l -2.6868901212254914 -1.3041280831294813 a23.9866584305451,23.9866584305451 0 0,0 0.1834864999796989,-0.36989758746107515 l 2.6640436082923795 1.350185259089518" fill="#ff2003" stroke="none" /><path d="M 81.26839172434947 90.50648371742162 l -28.84484942343896 -14.619088955960416 a53.33795139094545,53.33795139094545 0 0,0 0.4221078274161671,-0.8153779683450366 l 28.588932162862676 15.113439646565789" fill="#73ff27" stroke="none" /><line stroke="#e1ed5e" stroke-width="0.3" x1="26.266209847984243" x2="21.928928074336255" y1="57.711370442889674" y2="55.22380399835377" /><path d="M 25.398753493254645 57.213857153982495 a86.0,86.0 0 0,1 29.58750427330803,-30.492523968695096" fill="none" id="id59" stroke="none" /><text fill="#e1ed5e" style="font-size:6.75px; font-family:Arial;" text-anchor="middle"><textPath startOffset="21.46611528233685" xlink:href="#id59">November</textPath></text><path d="M 81.78341655067845 89.55222093294921 l -1.462752179523357 -0.838934020971766 a22.686254497471893,22.686254497471893 0 0,0 0.19719791814369397,-0.3370751647519212 l 1.448094586909338 0.863988598077579" fill="#ff0d01" stroke="none" /><path d="M 81.96595687620814 89.24020034530311 l -3.2150989265139818 -1.9182509480462941 a24.7438680274486,24.7438680274486 0 0,0 0.2213800900784943,-0.3638906601136774 l 3.181603038149271 1.973309381367046" fill="#ff2b04" stroke="none" /><line stroke="#e1ed5e" stroke-width="0.3" x1="56.762969772571076" x2="54.21961505331055" y1="26.818313649435495" y2="22.513508569990535" /><path d="M 56.25429882871897 25.957352633546506 a86.0,86.0 0 0,1 42.265352541879196,-11.944610805530505" fill="none" id="id60" stroke="none" /><text fill="#e1ed5e" style="font-size:6.75px; font-family:Arial;" text-anchor="middle"><textPath startOffset="22.20632615414155" xlink:href="#id60">December</textPath></text><path d="M 89.63071344664047 81.73862282372117 l -0.38129292476493415 -0.6714959489207155 a21.7721988758686,21.7721988758686 0 0,0 0.32749110251521807,-0.18224844398262657 l 0.3696777331776705 0.6779597904635266" fill="#ff0000" stroke="none" /><path d="M 89.94658935756843 81.56283822128135 l -9.418815698931162 -17.273364729795553 a40.67443057013283,40.67443057013283 0 0,0 0.6175830317584465,-0.32989146731053315 l 9.12008762064441 17.432934923607835" fill="#fffc17" stroke="none" /></svg>