<?xml version="1.0" encoding="utf-8" ?>
<svg baseProfile="full" height="200mm" version="1.1" viewBox="0,0,200,200" width="200mm" xmlns="http://www.w3.org/2000/svg" xmlns:ev="http://www.w3.org/2001/xml-events" xmlns:xlink="http://www.w3.org/1999/xlink"><defs /><rect fill="#1a1a1a" height="200" width="200" x="0" y="0" /><text alignment-baseline="middle" fill="#e1ed5e" style="dominant-baseline: central; font-size:9.0px; font-family:Arial;" text-anchor="middle" x="100.0" y="100.0">2021</text><line stroke="#e1ed5e" stroke-width="0.3" x1="100.0" x2="100.0" y1="15.0" y2="10.0" /><path d="M 100.0 14.0 a86.0,86.0 0 0,1 42.46469731375804,11.215312516191453" fill="none" id="id13" stroke="none" /><text fill="#e1ed5e" style="font-size:6.75px; font-family:Arial;" text-anchor="middle"><textPath startOffset="22.20632615414155" xlink:href="#id13">January</textPath></text><line stroke="#e1ed5e" stroke-width="0.3" x1="143.23703022742887" x2="145.7803849466894" y1="26.81831364943548" y2="22.513508569990506" /><path d="M 143.74570117128098 25.957352633546492 a86.0,86.0 0 0,1 28.547481713284135,27.462654790039103" fill="none" id="id14" stroke="none" /><text fill="#e1ed5e" style="font-size:6.75px; font-family:Arial;" text-anchor="middle"><textPath startOffset="19.985693538727396" xlink:href="#id14">February</textPath></text><line stroke="#e1ed5e" stroke-width="0.3" x1="172.23445277983987" x2="176.4835382374775" y1="55.19839476539836" y2="52.563006222186495" /><path d="M 173.08426987136738 54.67131705675599 a86.0,86.0 0 0,1 12.851231095245387,41.99856678651699" fill="none" id="id15" stroke="none" /><text fill="#e1ed5e" style="font-size:6.75px; font-family:Arial;" text-anchor="middle"><textPath startOffset="22.20632615414155" xlink:href="#id15">March</textPath></text><path d="M 119.196687751892 91.48605970444005 l 47.707325290853134 -21.158718860088147 a73.18889029484652,73.18889029484652 0 0,0 0.5008534986511574,1.156038929407518 l -48.06446949934697 20.334380786094027" fill="#3dffae" stroke="none" /><path d="M 119.61058180528143 92.48833698450437 l 20.178250953886952 -7.729103751877541 a42.60788875307644,42.60788875307644 0 0,0 0.25644960152486046,0.6871574333664324 l -20.30830514391344 7.380623181481775" fill="#ffb210" stroke="none" /><path d="M 120.08093135843002 93.85539295169968 l 30.158365231164037 -9.228222548892466 a52.53866016222267,52.53866016222267 0 0,0 0.2571744970632774,0.8670645558065319 l -30.312745625339016 8.707728606339405" fill="#bcff1f" stroke="none" /><path d="M 120.37134235888165 94.90015583598534 l 51.03674934257055 -12.776746063153185 a73.6117384565334,73.6117384565334 0 0,0 0.29713623509015646,1.2318215246119557 l -51.249118377921526 11.896339306881822" fill="#3effb3" stroke="none" /><path d="M 120.6074358757038 95.95851677861258 l 51.46826388628193 -10.093838272018644 a73.44871550886276,73.44871550886276 0 0,0 0.2326375305629856,1.2427589905959238 l -51.634387140754775 9.206401203960157" fill="#3dffb1" stroke="none" /><path d="M 120.78858239683441 97.02765380044208 l 62.36574719050324 -8.917038598673738 a84.0,84.0 0 0,0 0.19233600376865523,1.4331266317413425 l -62.50999919332973 7.84219362486773" fill="#4dd2ff" stroke="none" /><path d="M 120.87857604477298 97.74499172005257 l 52.05973540603809 -5.622755792384532 a73.36250025779412,73.36250025779412 0 0,0 0.12479616077841171,1.2566803081633688 l -52.148808692498726 4.725799953516728" fill="#3dffb0" stroke="none" /><line stroke="#e1ed5e" stroke-width="0.3" x1="184.98032266829074" x2="189.97916517819016" y1="98.17113171792111" y2="98.06355123074" /><path d="M 185.9800911702706 98.14961562048488 a86.0,86.0 0 0,1 -9.607161424134198,41.387399972396054" fill="none" id="id16" stroke="none" /><text fill="#e1ed5e" style="font-size:6.75px; font-family:Arial;" text-anchor="middle"><textPath startOffset="21.466115282336823" xlink:href="#id16">April</textPath></text><path d="M 120.99980553446 99.90962569577887 l 52.41959586070935 -0.22559182730004543 a73.42008128449098,73.42008128449098 0 0,0 -0.0054390390218662715,1.263841118755168 l -52.415712524397975 -0.6767587696588072" fill="#3dffb1" stroke="none" /><path d="M 120.9904718944345 100.63252640178507 l 52.705595511644454 1.588229214215956 a73.72951991317544,73.72951991317544 0 0,0 -0.049145524985199925,1.268227626636804 l -52.67044785380805 -2.4952340878667663" fill="#3effb4" stroke="none" /><path d="M 120.92983693683757 101.71520430193887 l 52.41477733847404 4.2954014332470285 a73.59048732341765,73.59048732341765 0 0,0 -0.11432949329015572,1.2616164315338496 l -52.33307324890681 -5.196999253329448" fill="#3effb3" stroke="none" /><path d="M 120.64145759157962 103.86396538481128 l 51.956376471204564 9.725943011255843 a73.85885946060259,73.85885946060259 0 0,0 -0.24468408585786317,1.2476388822888864 l -51.78126245237104 -10.618845620612674" fill="#3effb6" stroke="none" /><path d="M 120.49622156327973 104.57218783832717 l 51.39048940685083 11.46391640753155 a73.65362077649094,73.65362077649094 0 0,0 -0.2866859656874307,1.2350356369126376 l -51.18554287523285 -12.346820701792751" fill="#3effb4" stroke="none" /><path d="M 120.13307415673323 105.97154293290107 l 50.676184943730775 15.030740547186534 a73.85829056872765,73.85829056872765 0 0,0 -0.37201094145877067,1.2157532810962826 l -50.40994722976587 -15.900820800834873" fill="#3effb6" stroke="none" /><path d="M 119.9155931802556 106.66101706037122 l 50.35145636415426 16.840668857841383 a74.09310016914438,74.09310016914438 0 0,0 -0.4149537116063351,1.2060497214548727 l -50.05411182160469 -17.704891282385553" fill="#3effb9" stroke="none" /><path d="M 118.81262510543309 109.33194174019688 l 46.98091950553073 23.304732926393942 a73.44346836695402,73.44346836695402 0 0,0 -0.5715347283827474,1.1276922406128915 l -46.57280610736171 -24.10997937870953" fill="#3dffb1" stroke="none" /><line stroke="#e1ed5e" stroke-width="0.3" x1="174.80103733775053" x2="179.2010983576182" y1="140.37084112569926" y2="142.7455964860345" /><path d="M 175.68104954172406 140.8457921977663 a86.0,86.0 0 0,1 -30.038265399797805,32.042727171017184" fill="none" id="id17" stroke="none" /><text fill="#e1ed5e" style="font-size:6.75px; font-family:Arial;" text-anchor="middle"><textPath startOffset="22.206326154141568" xlink:href="#id17">May</textPath></text><path d="M 118.48025628344425 109.97397251340804 l 46.129680430901686 24.8966333374009 a73.41936443905149,73.41936443905149 0 0,0 -0.6098128172022627,1.1069873953285476 l -45.69429120424792 -25.686991251127253" fill="#3dffb1" stroke="none" /><path d="M 117.94076556474637 110.91462005526583 l 44.70024205915097 27.19427756264444 a73.32246527354036,73.32246527354036 0 0,0 -0.6652629686346329,1.072615729779711 l -44.22551445084838 -27.959689623789426" fill="#3dffaf" stroke="none" /><path d="M 117.35343817320211 111.8261652097733 l 43.462264317212295 29.619024949183544 a73.59519995702632,73.59519995702632 0 0,0 -0.7224213217315524,1.0407017946824975 l -42.9459820883186 -30.36276800605306" fill="#3effb3" stroke="none" /><path d="M 116.93607887273984 112.41649034213515 l 42.48744603711278 31.149179650487486 a73.68258216578715,73.68258216578715 0 0,0 -0.758715630198315,1.0164235741869134 l -41.94496914021938 -31.875916104183712" fill="#3effb4" stroke="none" /><path d="M 115.32070863581623 114.36230785411682 l 24.410362367770706 22.883350078003275 a54.45913181357712,54.45913181357712 0 0,0 -0.6470093621465193,0.6783867295012836 l -24.01284645424522 -23.300143924087067" fill="#a3ff22" stroke="none" /><path d="M 115.07121518719521 114.62390073753431 l 39.3362845627751 38.16878159354861 a75.81057536223857,75.81057536223857 0 0,0 -0.9168003015797295,0.9287138651776708 l -38.67344363613983 -38.84023595270694" fill="#41ffce" stroke="none" /><path d="M 113.75828350139079 115.86535959552629 l 34.2839925440622 39.5345734827244 a73.32948160666459,73.32948160666459 0 0,0 -0.9607367607000876,0.8187607102075183 l -33.59839030678506 -40.11885858315486" fill="#3dffaf" stroke="none" /><path d="M 112.63410532772338 116.77436683061366 l 31.734609347480887 42.134204568705265 a73.74823812294326,73.74823812294326 0 0,0 -1.020587923984663,0.7550065473525377 l -31.004636453077662 -42.67422106479757" fill="#3effb5" stroke="none" /><line stroke="#e1ed5e" stroke-width="0.3" x1="143.8653032363475" x2="146.44561519142675" y1="172.8068346515853" y2="177.08958963109032" /><path d="M 144.38136562736335 173.6633856474863 a86.0,86.0 0 0,1 -40.68145358897372,12.25698825130547" fill="none" id="id18" stroke="none" /><text fill="#e1ed5e" style="font-size:6.75px; font-family:Arial;" text-anchor="middle"><textPath startOffset="21.466115282336833" xlink:href="#id18">June</textPath></text><path d="M 110.21172684928248 118.3499491758327 l 18.6425404467585 33.49968861833199 a59.33762449388627,59.33762449388627 0 0,0 -0.8967813529649343,0.48899669623978265 l -18.063136281924915 -33.81562596633154" fill="#65ff29" stroke="none" /><path d="M 109.89434966115114 118.52300852407294 l 24.6870995157676 46.21621131509502 a73.39647956516669,73.39647956516669 0 0,0 -1.1195028632024309,0.5856709870546287 l -23.887905750038673 -46.63431172109437" fill="#3dffb0" stroke="none" /><path d="M 107.59598834532513 119.57807347666477 l 18.944291291732643 48.82744812281662 a73.37371347090414,73.37371347090414 0 0,0 -1.1814208351388413,0.4467122696871316 l -18.101000235833528 -49.14630864261038" fill="#3dffb0" stroke="none" /><path d="M 106.2309692047433 120.05430185196036 l 15.765760587821722 50.741916925738025 a74.13474701371045,74.13474701371045 0 0,0 -1.2218995811898303,0.3681483204173908 l -14.889986032191645 -51.005780615261145" fill="#3effba" stroke="none" /><path d="M 104.13013068566511 120.58985236759428 l 10.341180078456023 51.55366435767585 a73.58060777624155,73.58060777624155 0 0,0 -1.2439761285744209,0.238410985729427 l -9.4522363353099 -51.72403254175374" fill="#3effb3" stroke="none" /><path d="M 102.70371172650421 120.8252237178851 l 6.747035283898431 51.96875016010716 a73.40489937330105,73.40489937330105 0 0,0 -1.2544288285119365,0.1518938614874103 l -5.8514790323351145 -52.07718955031993" fill="#3dffb0" stroke="none" /><path d="M 101.98527174616119 120.90594882070398 l 5.0209792862854075 52.873535419958976 a74.11140160830783,74.11140160830783 0 0,0 -1.2710305909224149,0.10966986760259204 l -4.110104377621451 -52.952129539840236" fill="#3effb9" stroke="none" /><path d="M 101.26447882468166 120.96189622390904 l 2.091778965693749 34.676463335213974 a55.739496954903615,55.739496954903615 0 0,0 -0.9582201648262251,0.04952903734076955 l -1.4945707324540443 -34.70733217931694" fill="#92ff23" stroke="none" /><line stroke="#e1ed5e" stroke-width="0.3" x1="102.19456741930631" x2="102.32365962044197" y1="184.97166512339345" y2="189.96999836594603" /><path d="M 102.22038585953345 185.97133177190398 a86.0,86.0 0 0,1 -42.740103519485714,-10.115201625700543" fill="none" id="id19" stroke="none" /><text fill="#e1ed5e" style="font-size:6.75px; font-family:Arial;" text-anchor="middle"><textPath startOffset="22.20632615414155" xlink:href="#id19">July</textPath></text><path d="M 100.18074693466247 120.99922214144158 l 0.45275998979188437 52.60176400862156 a73.60371249662015,73.60371249662015 0 0,0 -1.2670138489086435,0.0 l 0.45275998979184817 -52.60176400862156" fill="#3effb3" stroke="none" /><path d="M 99.09653310690486 120.98055641714683 l -1.1591509149540296 26.91812102141907 a47.94306720043956,47.94306720043956 0 0,0 -0.8241913950577423,-0.04260128087490202 l 1.622330378425261 -26.894179933781963" fill="#fcff18" stroke="none" /><path d="M 98.37488393609728 120.93702456842531 l -4.081407392919198 52.58241473171315 a73.7405747534558,73.7405747534558 0 0,0 -1.2646708100219868,-0.10912111894594069 l 4.985922520682727 -52.504369360488546" fill="#3effb5" stroke="none" /><path d="M 97.2962882734958 120.8252237178851 l -6.761323591635186 52.07880523818805 a73.5158780917536,73.5158780917536 0 0,0 -1.2535206684976856,-0.1737265425474267 l 7.656772851319703 -51.95470413014802" fill="#3effb2" stroke="none" /><path d="M 96.22490169976321 120.6578951692458 l -9.45623994914932 51.74594090768649 a73.60287895541146,73.60287895541146 0 0,0 -1.2443526519014532,-0.23848314732117956 l 10.345560215622466 -51.575500562016835" fill="#3effb3" stroke="none" /><path d="M 95.16358092515715 120.4354850818985 l -12.069684427252232 50.99844580038797 a73.40723954024448,73.40723954024448 0 0,0 -1.2271128722224351,-0.3015944884844229 l 12.945750584217878 -50.78313005358952" fill="#3dffb0" stroke="none" /><path d="M 93.08242187328487 119.8279376855182 l -17.32762069163752 49.66636834721694 a73.60222983519517,73.60222983519517 0 0,0 -1.1926380527120026,-0.42763757367306404 l 18.17997830497925 -49.360743232503914" fill="#3effb3" stroke="none" /><path d="M 91.40352486487194 119.15986991738527 l -21.495168182589655 47.90854620724752 a73.50972343185389,73.50972343185389 0 0,0 -1.1500141318880783,-0.5279150833185631 l 22.316650310245155 -47.53144405359488" fill="#3effb2" stroke="none" /><path d="M 90.10565033884886 118.52300852407294 l -24.82414786042521 46.4727767027395 a73.68735418920693,73.68735418920693 0 0,0 -1.1136516796861926,-0.6072516899776876 l 25.620422351980043 -46.038584361002044" fill="#3effb4" stroke="none" /><line stroke="#e1ed5e" stroke-width="0.3" x1="58.666819895761336" x2="56.23545636021788" y1="174.27360380694188" y2="178.64263932499728" /><path d="M 58.180547188652646 175.14741091055294 a86.0,86.0 0 0,1 -31.652253787137756,-30.449443065178592" fill="none" id="id20" stroke="none" /><text fill="#e1ed5e" style="font-size:6.75px; font-family:Arial;" text-anchor="middle"><textPath startOffset="22.20632615414155" xlink:href="#id20">August</textPath></text><path d="M 88.8546689885994 117.79835938074946 l -27.854949394817854 44.482519124324845 a73.48421394508819,73.48421394508819 0 0,0 -1.0662846310164575,-0.6805533010259166 l 28.616515827881237 -43.99645139447512" fill="#3effb1" stroke="none" /><path d="M 87.95078237400918 117.19931262002967 l -31.650848197998087 45.179102058230754 a76.16273610364834,76.16273610364834 0 0,0 -1.0672672319790786,-0.7614668323145437 l 32.42384275782605 -44.627590964071985" fill="#41ffd3" stroke="none" /><path d="M 85.97065885151581 115.62618273729859 l -7.372546878074292 8.21170171405636 a32.03569175493948,32.03569175493948 0 0,0 -0.40715907440639604,-0.3719301608217635 l 7.512805501947543 -8.083578786648022" fill="#ff0601" stroke="none" /><path d="M 84.67929136418377 114.36230785411682 l -38.12241465914682 35.73763253985363 a73.25415657148757,73.25415657148757 0 0,0 -0.8544699419728169,-0.9273583621483734 l 38.73193100911537 -35.07612292290391" fill="#3dffaf" stroke="none" /><path d="M 82.44556493220864 111.52570212397912 l -44.408287466455675 29.1571156347557 a74.12469659058657,74.12469659058657 0 0,0 -0.6911073855280445,-1.0726140098216916 l 44.90359971536077 -28.388380025012562" fill="#3effb9" stroke="none" /><line stroke="#e1ed5e" stroke-width="0.3" x1="26.63291911575756" x2="22.317208475507996" y1="142.92168965132927" y2="145.44649492493687" /><path d="M 25.769776987707644 143.4266507060508 a86.0,86.0 0 0,1 -11.730757126820373,-40.83630448921669" fill="none" id="id21" stroke="none" /><text fill="#e1ed5e" style="font-size:6.75px; font-family:Arial;" text-anchor="middle"><textPath startOffset="21.46611528233685" xlink:href="#id21">September</textPath></text><path d="M 81.18737489456691 109.33194174019688 l -9.572123210169782 4.74822070958578 a31.68508973558998,31.68508973558998 0 0,0 -0.2381613442206321,-0.490682910154517 l 9.652437811005134 -4.582748843465978" fill="#ff0000" stroke="none" /><line stroke="#e1ed5e" stroke-width="0.3" x1="15.007084014347285" x2="10.007500721073583" y1="101.09737516637583" y2="101.16192664675087" /><path d="M 14.007167355692545 101.11028546245083 a86.0,86.0 0 0,1 10.666146001902534,-42.60595125391555" fill="none" id="id22" stroke="none" /><text fill="#e1ed5e" style="font-size:6.75px; font-family:Arial;" text-anchor="middle"><textPath startOffset="22.20632615414155" xlink:href="#id22">October</textPath></text><line stroke="#e1ed5e" stroke-width="0.3" x1="26.266209847984243" x2="21.928928074336255" y1="57.711370442889674" y2="55.22380399835377" /><path d="M 25.398753493254645 57.213857153982495 a86.0,86.0 0 0,1 29.58750427330803,-30.492523968695096" fill="none" id="id23" stroke="none" /><text fill="#e1ed5e" style="font-size:6.75px; font-family:Arial;" text-anchor="middle"><textPath startOffset="21.46611528233685" xlink:href="#id23">November</textPath></text><line stroke="#e1ed5e" stroke-width="0.3" x1="56.762969772571076" x2="54.21961505331055" y1="26.818313649435495" y2="22.513508569990535" /><path d="M 56.25429882871897 25.957352633546506 a86.0,86.0 0 0,1 42.265352541879196,-11.944610805530505" fill="none" id="id24" stroke="none" /><text fill="#e1ed5e" style="font-size:6.75px; font-family:Arial;" text-anchor="middle"><textPath startOffset="22.20632615414155" xlink:href="#id24">December</textPath></text></svg>