<?xml version="1.0" encoding="utf-8" ?>
<svg baseProfile="full" height="200mm" version="1.1" viewBox="0,0,200,200" width="200mm" xmlns="http://www.w3.org/2000/svg" xmlns:ev="http://www.w3.org/2001/xml-events" xmlns:xlink="http://www.w3.org/1999/xlink"><defs /><rect fill="#1a1a1a" height="200" width="200" x="0" y="0" /><text alignment-baseline="middle" fill="#e1ed5e" style="dominant-baseline: central; font-size:9.0px; font-family:Arial;" text-anchor="middle" x="100.0" y="100.0">2018</text><line stroke="#e1ed5e" stroke-width="0.3" x1="100.0" x2="100.0" y1="15.0" y2="10.0" /><path d="M 100.0 14.0 a86.0,86.0 0 0,1 42.46469731375804,11.215312516191453" fill="none" id="id25" stroke="none" /><text fill="#e1ed5e" style="font-size:6.75px; font-family:Arial;" text-anchor="middle"><textPath startOffset="22.20632615414155" xlink:href="#id25">January</textPath></text><line stroke="#e1ed5e" stroke-width="0.3" x1="143.23703022742887" x2="145.7803849466894" y1="26.818313649435467" y2="22.513508569990506" /><path d="M 143.74570117128098 25.957352633546478 a86.0,86.0 0 0,1 28.547481713284135,27.462654790039114" fill="none" id="id26" stroke="none" /><text fill="#e1ed5e" style="font-size:6.75px; font-family:Arial;" text-anchor="middle"><textPath startOffset="19.985693538727396" xlink:href="#id26">February</textPath></text><line stroke="#e1ed5e" stroke-width="0.3" x1="172.23445277983987" x2="176.4835382374775" y1="55.19839476539836" y2="52.563006222186495" /><path d="M 173.08426987136738 54.67131705675599 a86.0,86.0 0 0,1 12.851231095245387,41.99856678651699" fill="none" id="id27" stroke="none" /><text fill="#e1ed5e" style="font-size:6.75px; font-family:Arial;" text-anchor="middle"><textPath startOffset="22.20632615414155" xlink:href="#id27">March</textPath></text><path d="M 120.98425023603335 99.18683210126433 l 28.471775689299225 -1.1033195730188363 a49.49314522796627,49.49314522796627 0 0,0 0.025661737504439484,0.8515881366044837 l -28.486549121259312 0.6130612889893534" fill="#ffee16" stroke="none" /><line stroke="#e1ed5e" stroke-width="0.3" x1="184.98032266829074" x2="189.97916517819016" y1="98.17113171792111" y2="98.06355123074" /><path d="M 185.9800911702706 98.14961562048488 a86.0,86.0 0 0,1 -9.607161424134198,41.387399972396054" fill="none" id="id28" stroke="none" /><text fill="#e1ed5e" style="font-size:6.75px; font-family:Arial;" text-anchor="middle"><textPath startOffset="21.466115282336823" xlink:href="#id28">April</textPath></text><path d="M 119.9155931802556 106.66101706037122 l 36.50433656095932 12.209327957710483 a59.49200276596064,59.49200276596064 0 0,0 -0.3331811909917927,0.9683804996805806 l -36.28876453902429 -12.835881160480366" fill="#7cff26" stroke="none" /><path d="M 119.79798401119884 107.00284435728193 l 23.39044774553405 8.27355274741391 a45.8105767929889,45.8105767929889 0 0,0 -0.2693568963471959,0.7411544945637065 l -23.244566588181627 -8.674955038983748" fill="#ffb310" stroke="none" /><path d="M 119.54520255179757 107.68017299344265 l 28.990791960520326 11.391762090141398 a52.14864783608677,52.14864783608677 0 0,0 -0.3354831425079624,0.8326416469324947 l -28.790406203754973 -11.889103104916707" fill="#e6ff1a" stroke="none" /><line stroke="#e1ed5e" stroke-width="0.3" x1="174.80103733775053" x2="179.2010983576182" y1="140.37084112569926" y2="142.7455964860345" /><path d="M 175.68104954172406 140.8457921977663 a86.0,86.0 0 0,1 -30.038265399797805,32.042727171017184" fill="none" id="id29" stroke="none" /><text fill="#e1ed5e" style="font-size:6.75px; font-family:Arial;" text-anchor="middle"><textPath startOffset="22.206326154141568" xlink:href="#id29">May</textPath></text><path d="M 116.0416608686014 113.55231037782055 l 20.286890620135352 17.138763905868625 a47.5573936833877,47.5573936833877 0 0,0 -0.5336788593705492,0.6207890815622549 l -19.988869251194025 -17.48543008659241" fill="#ffcf13" stroke="none" /><path d="M 113.75828350139079 115.86535959552629 l 31.609326983675743 36.45028386847045 a69.24699727913654,69.24699727913654 0 0,0 -0.907249504517416,0.7731777101074039 l -30.97721200258128 -36.9889859688008" fill="#35ff6a" stroke="none" /><path d="M 112.04921762599082 117.19931262002967 l 14.567629631940292 20.794148130588322 a46.38921876644169,46.38921876644169 0 0,0 -0.6579385446336952,0.4525361304030098 l -14.207534202683714 -21.041825050356426" fill="#ffbc11" stroke="none" /><line stroke="#e1ed5e" stroke-width="0.3" x1="143.8653032363475" x2="146.44561519142675" y1="172.8068346515853" y2="177.08958963109032" /><path d="M 144.38136562736335 173.6633856474863 a86.0,86.0 0 0,1 -40.68145358897372,12.25698825130547" fill="none" id="id30" stroke="none" /><text fill="#e1ed5e" style="font-size:6.75px; font-family:Arial;" text-anchor="middle"><textPath startOffset="21.466115282336833" xlink:href="#id30">June</textPath></text><path d="M 107.93186726928326 119.44442032107085 l 5.897838080180197 14.458139391811077 a36.614809915367616,36.614809915367616 0 0,0 -0.5856258550145371,0.23303261365051614 l -5.648091149123793 -14.55751884986766" fill="#ff1101" stroke="none" /><path d="M 106.91757812671514 119.82793768551818 l 12.673352942985392 36.325784518377105 a59.47306194849901,59.47306194849901 0 0,0 -0.9694966276128815,0.32890589403436044 l -12.046186582435285 -36.53855339930959" fill="#7dff26" stroke="none" /><path d="M 105.53697534728816 120.25689768951611 l 6.5278344940763615 23.881933219255362 a45.758016024532864,45.758016024532864 0 0,0 -0.7615649485028015,0.20113622465569578 l -6.115779102762061 -23.990760793214644" fill="#ffb210" stroke="none" /><path d="M 103.7750983002368 120.6578951692458 l 8.838592257004839 48.36608156070004 a70.1670474873352,70.1670474873352 0 0,0 -1.1900031491135212,0.2068973010190408 l -8.004740136419267 -48.51105744024009" fill="#37ff77" stroke="none" /><path d="M 100.90346689309514 120.98055641714683 l 1.228303733722438 28.52400677845521 a49.55044120078769,49.55044120078769 0 0,0 -0.8524555224469712,0.02936029180654232 l -0.7371278596008145 -28.540923868687845" fill="#ffef16" stroke="none" /><line stroke="#e1ed5e" stroke-width="0.3" x1="102.19456741930631" x2="102.32365962044197" y1="184.97166512339345" y2="189.96999836594603" /><path d="M 102.22038585953345 185.97133177190398 a86.0,86.0 0 0,1 -42.740103519485714,-10.115201625700543" fill="none" id="id31" stroke="none" /><text fill="#e1ed5e" style="font-size:6.75px; font-family:Arial;" text-anchor="middle"><textPath startOffset="22.20632615414155" xlink:href="#id31">July</textPath></text><path d="M 90.7491055286396 118.85261126421891 l -6.479158332642661 13.204026242305 a35.70801827939209,35.70801827939209 0 0,0 -0.5494717414941979,-0.27551653803142895 l 6.705483981819618 -13.090541863364269" fill="#ff0000" stroke="none" /><line stroke="#e1ed5e" stroke-width="0.3" x1="58.666819895761336" x2="56.23545636021788" y1="174.27360380694188" y2="178.64263932499728" /><path d="M 58.180547188652646 175.14741091055294 a86.0,86.0 0 0,1 -31.652253787137756,-30.449443065178592" fill="none" id="id32" stroke="none" /><text fill="#e1ed5e" style="font-size:6.75px; font-family:Arial;" text-anchor="middle"><textPath startOffset="22.20632615414155" xlink:href="#id32">August</textPath></text><path d="M 88.24862548938628 117.40417183066458 l -26.477556933659734 39.214131939494465 a68.31605610089743,68.31605610089743 0 0,0 -0.9689269990175569,-0.6664368250723407 l 27.14864081730018 -38.75255432505702" fill="#34ff5c" stroke="none" /><path d="M 87.65650970185807 116.9893568818739 l -27.829771314152556 38.30439408764688 a68.34683492927257,68.34683492927257 0 0,0 -0.9458389264175263,-0.6997090259485169 l 28.484995210988647 -37.81967511295859" fill="#34ff5c" stroke="none" /><path d="M 86.51685102203217 116.09983520530335 l -15.51657639587536 18.52789161732934 a45.16706251973002,45.16706251973002 0 0,0 -0.5917627724181052,-0.5043130726738887 l 15.833204644870522 -18.2580541544325" fill="#ffa80f" stroke="none" /><line stroke="#e1ed5e" stroke-width="0.3" x1="26.63291911575756" x2="22.317208475507996" y1="142.92168965132927" y2="145.44649492493687" /><path d="M 25.769776987707644 143.4266507060508 a86.0,86.0 0 0,1 -11.730757126820373,-40.83630448921669" fill="none" id="id33" stroke="none" /><text fill="#e1ed5e" style="font-size:6.75px; font-family:Arial;" text-anchor="middle"><textPath startOffset="21.46611528233685" xlink:href="#id33">September</textPath></text><path d="M 81.02952815118164 109.00673069616217 l -20.896378401905192 9.92110551023446 a44.13194684545195,44.13194684545195 0 0,0 -0.31990488181682497,-0.6890466553591055 l 21.064057900561846 -9.55993878759653" fill="#ff970d" stroke="none" /><path d="M 80.73074385275274 108.34839909993369 l -21.520951991701462 9.323945608710119 a44.45394074229966,44.45394074229966 0 0,0 -0.29815685408038806,-0.7047547289351681 l 21.67825982697416 -8.95211635410879" fill="#ff9c0e" stroke="none" /><path d="M 79.0235259727143 100.99374915477108 l -24.074715921895017 1.1405266951736945 a45.10171669948739,45.10171669948739 0 0,0 -0.03006323040677143,-0.7757983938373154 l 24.09078128515299 -0.7259510543223822" fill="#ffa70f" stroke="none" /><path d="M 79.0095281055655 100.63252640178507 l -59.45664836324721 1.791665287018953 a80.48363723824843,80.48363723824843 0 0,0 -0.02980936596769981,-1.3851241028645624 l 59.478679791899914 -0.7679513683642615" fill="#47fcff" stroke="none" /><line stroke="#e1ed5e" stroke-width="0.3" x1="15.007084014347285" x2="10.007500721073583" y1="101.09737516637583" y2="101.16192664675087" /><path d="M 14.007167355692545 101.11028546245083 a86.0,86.0 0 0,1 10.666146001902526,-42.60595125391555" fill="none" id="id34" stroke="none" /><text fill="#e1ed5e" style="font-size:6.75px; font-family:Arial;" text-anchor="middle"><textPath startOffset="22.20632615414155" xlink:href="#id34">October</textPath></text><path d="M 79.05617556472873 98.46500227214037 l -23.38978405882436 -1.7142650090667568 a44.452520180990035,44.452520180990035 0 0,0 0.062499219231807325,-0.7626487793452901 l 23.356810355773057 2.116627705619825" fill="#ff9c0e" stroke="none" /><path d="M 79.46518482838121 95.60439243477599 l -61.60444551485639 -13.186822695672024 a84.0,84.0 0 0,0 0.31482245199184966,-1.4112873218001631 l 61.3683286758625 14.245288187022146" fill="#4dd2ff" stroke="none" /><path d="M 80.02781315780177 93.51064311812611 l -23.825936527366615 -7.741516058936463 a46.052072215624676,46.052072215624676 0 0,0 0.2514502489362522,-0.7518042391276071 l 23.68914898465859 8.150493400986392" fill="#ffb710" stroke="none" /><path d="M 80.2630227832202 92.82701384747504 l -35.848056645331994 -13.02821658492293 a59.14207116335703,59.14207116335703 0 0,0 0.355966020074216,-0.953811958628248 l 35.618486036756146 13.643351680580519" fill="#81ff25" stroke="none" /><path d="M 80.803312248108 91.48605970444005 l -49.08093510841808 -21.767929788936552 a74.69153525848202,74.69153525848202 0 0,0 0.5313686814317782,-1.1708004539470787 l 48.69896411002295 22.609552251725702" fill="#3effb7" stroke="none" /><path d="M 81.26839172434947 90.50648371742162 l -23.146374902979222 -11.730999484424435 a46.949393442869386,46.949393442869386 0 0,0 0.37154982424091854,-0.7177159984996578 l 22.941015645578187 12.127688205184429" fill="#ffc512" stroke="none" /><path d="M 81.43458229118936 90.18545643968196 l -44.221768375327045 -23.37768418902688 a71.02080483441817,71.02080483441817 0 0,0 0.5806522370026208,-1.075860409374356 l 43.812808039105946 24.13542558173371" fill="#38ff84" stroke="none" /><line stroke="#e1ed5e" stroke-width="0.3" x1="26.266209847984243" x2="21.928928074336255" y1="57.71137044288968" y2="55.22380399835378" /><path d="M 25.398753493254645 57.2138571539825 a86.0,86.0 0 0,1 29.58750427330803,-30.4925239686951" fill="none" id="id35" stroke="none" /><text fill="#e1ed5e" style="font-size:6.75px; font-family:Arial;" text-anchor="middle"><textPath startOffset="21.46611528233685" xlink:href="#id35">November</textPath></text><path d="M 81.78341655067845 89.55222093294921 l -30.75881466039291 -17.64114005407071 a56.458630849480635,56.458630849480635 0 0,0 0.49076080258209276,-0.8388692940642717 l 30.450594183340492 18.167988760488875" fill="#a7ff21" stroke="none" /><path d="M 82.34701348167596 88.62581576622439 l -26.652631525050168 -17.17284160196805 a52.70598138989523,52.70598138989523 0 0,0 0.4979544783103834,-0.7584188331597843 l 26.353080411381864 17.629078499105503" fill="#deff1b" stroke="none" /><path d="M 82.7489923806493 88.02491185347247 l -40.31061256091834 -27.98231554405199 a70.07092283871744,70.07092283871744 0 0,0 0.6963293959588828,-0.9849085485374094 l 39.82297054515558 28.672050592921185" fill="#37ff76" stroke="none" /><path d="M 85.57189188830299 84.74124197986013 l -16.15053224423827 -17.080344942211042 a44.50697503119222,44.50697503119222 0 0,0 0.5611950525904231,-0.5215696401365086 l 15.854129307852991 17.355819168422194" fill="#ff9d0e" stroke="none" /><path d="M 86.10567301691215 84.25364557470407 l -34.93329932357818 -39.589691034589876 a73.79847571516619,73.79847571516619 0 0,0 0.9597533984870178,-0.8322886896009095 l 34.246652126444395 40.18514471761046" fill="#3dffab" stroke="none" /><path d="M 88.09926311788651 82.69761687909137 l -19.65679790648145 -28.578856223549717 a55.686319017482674,55.686319017482674 0 0,0 0.7944457030198944,-0.5364132850082395 l 19.16194750905502 28.912981420856624" fill="#b2ff20" stroke="none" /><line stroke="#e1ed5e" stroke-width="0.3" x1="56.76296977257108" x2="54.21961505331056" y1="26.818313649435495" y2="22.513508569990535" /><path d="M 56.25429882871898 25.957352633546506 a86.0,86.0 0 0,1 42.26535254187918,-11.944610805530505" fill="none" id="id36" stroke="none" /><text fill="#e1ed5e" style="font-size:6.75px; font-family:Arial;" text-anchor="middle"><textPath startOffset="22.20632615414155" xlink:href="#id36">December</textPath></text></svg>