<?xml version="1.0" encoding="utf-8" ?>
<svg baseProfile="full" height="200mm" version="1.1" viewBox="0,0,200,200" width="200mm" xmlns="http://www.w3.org/2000/svg" xmlns:ev="http://www.w3.org/2001/xml-events" xmlns:xlink="http://www.w3.org/1999/xlink"><defs /><rect fill="#1a1a1a" height="200" width="200" x="0" y="0" /><text alignment-baseline="middle" fill="#e1ed5e" style="dominant-baseline: central; font-size:9.0px; font-family:Arial;" text-anchor="middle" x="100.0" y="100.0">2023</text><line stroke="#e1ed5e" stroke-width="0.3" x1="100.0" x2="100.0" y1="15.0" y2="10.0" /><path d="M 100.0 14.0 a86.0,86.0 0 0,1 42.46469731375804,11.215312516191453" fill="none" id="id121" stroke="none" /><text fill="#e1ed5e" style="font-size:6.75px; font-family:Arial;" text-anchor="middle"><textPath startOffset="22.20632615414155" xlink:href="#id121">January</textPath></text><path d="M 100.72285384407766 79.0124445844662 l 0.9668037100890468 -28.070469027287313 a49.087113429929715,49.087113429929715 0 0,0 0.8442029060363753,0.03635315296191137 l -1.4498474485147534 28.049668147801206" fill="#c2ff1e" stroke="none" /><path d="M 101.08401301168833 79.027996857942 l 1.4575984977253669 -28.199624861093838 a49.237270329955635,49.237270329955635 0 0,0 0.8460321784091123,0.05103497141529956 l -1.942792724974091 28.170356620298232" fill="#c0ff1e" stroke="none" /><path d="M 101.80526077348638 79.07773832637324 l 2.0654497112984145 -23.93774903226102 a45.02669164161841,45.02669164161841 0 0,0 0.7716178539082947,0.07327441281596599 l -2.477192692296953 23.898649074929878" fill="#f6ff19" stroke="none" /><path d="M 102.16513564639614 79.11191278185805 l 4.311225767327174 -41.5924332477388 a62.81527437533412,62.81527437533412 0 0,0 1.074539908752017,0.12073707893537916 l -5.026532379588916 41.51206021533282" fill="#31ff3b" stroke="none" /><path d="M 102.52436894288641 79.15227682838746 l 1.3774573375844772 -11.375852699975104 a32.458944688251016,32.458944688251016 0 0,0 0.554097790424594,0.07193779591017811 l -1.5730698565169172 11.350456580900788" fill="#ff5808" stroke="none" /><path d="M 102.88285421437855 79.19881850522331 l 1.3551917724330398 -9.778361277517607 a30.871823236551897,30.871823236551897 0 0,0 0.5257486485768748,0.07748168421780251 l -1.5233094014385704 9.753585109138836" fill="#ff4006" stroke="none" /><path d="M 103.2404852339499 79.25152402106235 l 4.456123084466041 -28.532073471149328 a49.87795438577626,49.87795438577626 0 0,0 0.8471433136639901,0.13978590535856528 l -4.946595604268906 28.45114130285114" fill="#b9ff1f" stroke="none" /><path d="M 103.59715602781102 79.31037775812273 l 5.061421062564117 -29.11157841970426 a50.54829912633142,50.54829912633142 0 0,0 0.8559629423463536,0.15642175653635865 l -5.561779126013371 29.02014118181716" fill="#b0ff20" stroke="none" /><path d="M 103.95276090670814 79.375362276772 l 4.677944374891185 -24.40848568852413 a45.85271287367766,45.85271287367766 0 0,0 0.77389245997574,0.15523554706886392 l -5.097403244334051 24.324346185378058" fill="#ebff1a" stroke="none" /><path d="M 104.307194497241 79.44645832069477 l 4.853134844815447 -23.15871952661938 a44.66176679655565,44.66176679655565 0 0,0 0.7510775188743815,0.16415645466114898 l -5.251055087843357 23.071749573862363" fill="#fbff18" stroke="none" /><path d="M 105.01212808612495 79.60689891045804 l 9.65971365854877 -39.302969467229865 a61.47262626649223,61.47262626649223 0 0,0 1.0253959319209371,0.26139625443946246 l -10.33481847915473 39.13087021662154" fill="#34ff2f" stroke="none" /><path d="M 105.36241919743992 79.69619591428918 l 6.902355250720179 -26.134485869270748 a48.03060967973636,48.03060967973636 0 0,0 0.7975416655807682,0.2179982645141799 l -7.351194805524658 26.011801063930275" fill="#d0ff1d" stroke="none" /><path d="M 105.71112130821622 79.79150937346287 l 8.356512764442853 -29.56906371920964 a51.72720024364368,51.72720024364368 0 0,0 0.8547544997296895,0.24952627738275965 l -8.86425748189597 29.420839112908176" fill="#a2ff22" stroke="none" /><path d="M 106.0581310904928 79.89281104454417 l 7.818957495091856 -25.9514449984774 a48.10375608322674,48.10375608322674 0 0,0 0.7907676298802686,0.2456953518633824 l -8.264510497682842 25.813009511731494" fill="#cfff1d" stroke="none" /><path d="M 106.40334571778207 80.00007090966166 l 5.916782599248842 -18.48021919218075 a40.40429894940345,40.40429894940345 0 0,0 0.660547137361088,0.2177720058094967 l -6.234012558852348 18.37563346211202" fill="#ffca12" stroke="none" /><path d="M 106.74666289553966 80.11325718540242 l 6.837877536870892 -20.155610867020858 a42.283919249800135,42.283919249800135 0 0,0 0.6872505989853404,0.2397682394667368 l -7.1838101399195065 20.03492177438191" fill="#ffe415" stroke="none" /><path d="M 107.4271985657038 80.35727306442388 l 6.740052547887641 -17.825430484777325 a40.05713200657212,40.05713200657212 0 0,0 0.6428537070497844,0.24941725100375264 l -7.045889419937093 17.706770529883023" fill="#ffc512" stroke="none" /><path d="M 107.76421540070413 80.48803036053334 l 7.074864875691621 -17.779587702487586 a40.1355023942342,40.1355023942342 0 0,0 0.6397142882630515,0.2609555204516938 l -7.37986303354306 17.655171295852313" fill="#ffc612" stroke="none" /><path d="M 108.43124777332544 80.76684994638697 l 13.694840478909432 -31.240325153826102 a55.110212128621484,55.110212128621484 0 0,0 0.8655396864337283,0.3883424274265361 l -14.23056228380994 30.999962395883035" fill="#7aff26" stroke="none" /><path d="M 108.76106565485865 80.91482961587045 l 7.984717368486093 -17.393967520625125 a40.13911747085443,40.13911747085443 0 0,0 0.6254473245556449,0.2936559052118896 l -8.282942904341336 17.253946632773232" fill="#ffc612" stroke="none" /><path d="M 109.41281617654863 81.2277094730956 l 10.238519338998646 -20.419017644885685 a43.842144379133984,43.842144379133984 0 0,0 0.671702388362188,0.34407205238142 l -10.58848221494959 20.239753067191764" fill="#fff817" stroke="none" /><path d="M 109.73455568895987 81.39251694778311 l 9.415137359226717 -17.99691885730272 a41.310930551046766,41.310930551046766 0 0,0 0.6272473732726755,0.3350538238500894 l -9.723529779027704 17.832186306950877" fill="#ffd614" stroke="none" /><path d="M 110.36928655335952 81.73862282372117 l 14.608004410651798 -25.726194079305248 a50.584300814244415,50.584300814244415 0 0,0 0.7534730752691622,0.4364602385177248 l -15.048674218386289 25.470929683397472" fill="#b0ff20" stroke="none" /><line stroke="#e1ed5e" stroke-width="0.3" x1="143.23703022742887" x2="145.7803849466894" y1="26.81831364943548" y2="22.513508569990506" /><path d="M 143.74570117128098 25.957352633546492 a86.0,86.0 0 0,1 28.547481713284135,27.462654790039103" fill="none" id="id122" stroke="none" /><text fill="#e1ed5e" style="font-size:6.75px; font-family:Arial;" text-anchor="middle"><textPath startOffset="19.985693538727396" xlink:href="#id122">February</textPath></text><path d="M 110.68208982089419 81.91981866633111 l 12.799405879987829 -21.663886295054198 a46.16244742241311,46.16244742241311 0 0,0 0.6806497542006162,0.41008386106379063 l -13.170417700406082 21.440355824531792" fill="#e7ff1a" stroke="none" /><path d="M 110.99172775467656 82.1063720568725 l 13.16200407307662 -21.42665913185111 a46.14637295460767,46.14637295460767 0 0,0 0.6732554695608746,0.4215925132744442 l -13.528878695009759 21.196922277253723" fill="#e8ff1a" stroke="none" /><path d="M 111.60114157652 82.49532879139004 l 21.76735662099165 -32.844217805444245 a60.40254379499996,60.40254379499996 0 0,0 0.8617294555659644,0.5818435750755415 l -22.329490770964156 32.46466231807003" fill="#40ff2d" stroke="none" /><path d="M 111.90073688211348 82.69761687909136 l 10.835548842244112 -15.753715022101273 a40.12037279213554,40.12037279213554 0 0,0 0.5656377643831746,0.39626540147858635 l -11.105117746210937 15.564864777858752" fill="#ffc612" stroke="none" /><path d="M 112.19680574252982 82.90503203632743 l 8.87602658622471 -12.440584308653998 a36.28240772588194,36.28240772588194 0 0,0 0.5052838130188407,0.3671101788708944 l -9.088855715597338 12.285954894966428" fill="#ff900d" stroke="none" /><path d="M 112.48926042617603 83.11751280151076 l 17.26616842835789 -23.339722090170365 a50.032106355598955,50.032106355598955 0 0,0 0.6879506259880406,0.518150148781992 l -17.665365208104312 23.039055351882528" fill="#b7ff1f" stroke="none" /><path d="M 112.77801427241765 83.33499621200491 l 15.316793523131448 -19.97606331008028 a46.17235128466503,46.17235128466503 0 0,0 0.6265531889462946,0.48903470219458733 l -15.658379267237173 19.709450218662468" fill="#e7ff1a" stroke="none" /><path d="M 113.34407831869373 83.78471172551755 l 12.161729086591867 -14.77853609259617 a40.13929944945275,40.13929944945275 0 0,0 0.5297287768646133,0.4436326164400422 l -12.414315400415598 14.567002318762308" fill="#ffc612" stroke="none" /><path d="M 113.6212207817346 84.01681056812373 l 22.669076694641202 -26.599976085993763 a55.94918834483806,55.94918834483806 0 0,0 0.7276223951264504,0.6309869709435131 l -23.123592888414414 26.205824121630577" fill="#71ff27" stroke="none" /><path d="M 113.89432698308785 84.25364557470407 l 8.873888185448177 -10.0567223348489 a34.412067538157025,34.412067538157025 0 0,0 0.4407841934223309,0.39574040098870494 l -9.045683366466498 9.902482925090897" fill="#ff750a" stroke="none" /><path d="M 114.16331599549186 84.49514656593476 l 10.20320954386081 -11.169649013336416 a36.128335799983404,36.128335799983404 0 0,0 0.4555475472118096,0.42338179776815715 l -10.393964974867465 10.992362629493618" fill="#ff8e0d" stroke="none" /><path d="M 114.42810811169701 84.74124197986012 l 19.01285853244851 -20.10746006141904 a48.673068852161336,48.673068852161336 0 0,0 0.6038166676568814,0.5808711558826011 l -19.356158443717813 19.777205818774135" fill="#c8ff1d" stroke="none" /><path d="M 114.68862486808459 84.99185889309783 l 17.41487211806954 -17.79369140773259 a45.897655006091085,45.897655006091085 0 0,0 0.5598731461348384,0.5574688729182354 l -17.718581064371698 17.49128668416424" fill="#ebff1a" stroke="none" /><path d="M 114.94478906791727 85.2469230424477 l 17.892461287888356 -17.662936368029275 a46.14198663748819,46.14198663748819 0 0,0 0.553123189542352,0.5700420677244107 l -18.193848741133817 17.35233010475475" fill="#e8ff1a" stroke="none" /><path d="M 115.4437574822437 85.77008943001954 l 31.133177742480726 -28.686175339399597 a63.33404554194738,63.33404554194738 0 0,0 0.7318289960127214,0.8081038559003926 l -31.62235037910948 28.146018696229657" fill="#31ff41" stroke="none" /><path d="M 115.68641384162765 86.03803664274999 l 8.549371643810211 -7.609515777380817 a32.44536962575668,32.44536962575668 0 0,0 0.3677267600073446,0.42037525468637044 l -8.679090267395404 7.461224966491498" fill="#ff5808" stroke="none" /><path d="M 115.9244219780498 86.31012108654704 l 13.619729232065499 -11.70858473092449 a38.96073441583104,38.96073441583104 0 0,0 0.43281551571240867,0.5123170535623334 l -13.819255361265025 11.47240872773305" fill="#ffb610" stroke="none" /><path d="M 116.15771136456269 86.58626213691792 l 22.6576276218724 -18.809809796806555 a50.44786977089302,50.44786977089302 0 0,0 0.5489244911515241,0.6729165205893374 l -22.978050605100332 18.417009106609118" fill="#b2ff20" stroke="none" /><path d="M 116.38621287248628 86.86637796730983 l 19.504070760242605 -15.632598908438526 a45.995738133783206,45.995738133783206 0 0,0 0.48984567350901015,0.6220542607494625 l -19.77027051434558 15.294552253736024" fill="#e9ff1a" stroke="none" /><path d="M 116.60985879189232 87.15038557335679 l 23.35026155537676 -18.06408239270037 a50.52195432885116,50.52195432885116 0 0,0 0.5262079504103928,0.6924279813374515 l -23.65774544601127 17.659469635481887" fill="#b1ff20" stroke="none" /><path d="M 117.04232023915458 87.72973835380427 l 38.97188728918657 -28.05928108226248 a69.0221954280984,69.0221954280984 0 0,0 0.6859076732987746,0.9701677609187958 l -39.44910758228923 27.38428682101189" fill="#39ff89" stroke="none" /><path d="M 117.2510076193507 88.02491185347247 l 15.720731631550516 -10.912820350537107 a40.13716413250223,40.13716413250223 0 0,0 0.38909260165789955,0.5709453814276766 l -15.90624869887715 10.640596945839023" fill="#ffc612" stroke="none" /><path d="M 117.65298651832404 88.62581576622439 l 24.40190916765219 -15.722654647735189 a50.02852115072859,50.02852115072859 0 0,0 0.46019665175934704,0.7279205866183194 l -24.66893341565749 15.300286413402663" fill="#b7ff1f" stroke="none" /><line stroke="#e1ed5e" stroke-width="0.3" x1="172.23445277983987" x2="176.4835382374775" y1="55.19839476539836" y2="52.563006222186495" /><path d="M 173.08426987136738 54.67131705675599 a86.0,86.0 0 0,1 12.851231095245387,41.99856678651699" fill="none" id="id123" stroke="none" /><text fill="#e1ed5e" style="font-size:6.75px; font-family:Arial;" text-anchor="middle"><textPath startOffset="22.20632615414155" xlink:href="#id123">March</textPath></text><path d="M 117.84615892207809 88.93136811851018 l 21.213011905338394 -13.156837888929356 a45.961856047409526,45.961856047409526 0 0,0 0.41121460155957285,0.6759286833646216 l -21.43634230518419 12.789741432357653" fill="#eaff1a" stroke="none" /><path d="M 118.03404312379186 89.2402003453031 l 26.213617555429803 -15.640046504555839 a51.524822685922466,51.524822685922466 0 0,0 0.4478741859974739,0.7655621644201368 l -26.4789514158976 15.186504927781806" fill="#a5ff21" stroke="none" /><path d="M 118.3937258080291 89.86733742301442 l 46.317886112477645 -25.515413035683988 a73.88083656968753,73.88083656968753 0 0,0 0.6040352981895051,1.1191856704821106 l -46.750229509885614 24.71434638186942" fill="#3fffc1" stroke="none" /><path d="M 118.56541770881063 90.18545643968196 l 8.800307178590717 -4.652251810497584 a30.954338418289453,30.954338418289453 0 0,0 0.24496757370900532,0.4731993807931184 l -8.879084185459838 4.5000797074441214" fill="#ff4106" stroke="none" /><path d="M 118.73160827565052 90.50648371742162 l 9.00956840600458 -4.566211459407531 a31.10062423588268,31.10062423588268 0 0,0 0.23790494639967216,0.4796018547851324 l -9.086833365357663 4.410450016123448" fill="#ff4406" stroke="none" /><path d="M 118.89224826269711 90.83032412892265 l 26.4399586589679 -12.833086225429906 a50.389785912069016,50.389785912069016 0 0,0 0.3720249247492576,0.7835793697064566 l -26.656941777558913 12.376064440082908" fill="#b2ff20" stroke="none" /><path d="M 119.04729006885535 91.15688171328212 l 22.635959755876865 -10.509236165931613 a45.95657666550046,45.95657666550046 0 0,0 0.3269431463867658,0.720375885106913 l -22.813505219226975 10.118038271982636" fill="#eaff1a" stroke="none" /><path d="M 119.196687751892 91.48605970444005 l 26.704926742966645 -11.84392614108709 a50.213553340577064,50.213553340577064 0 0,0 0.34362638604052465,0.7931370760197934 l -26.904843838849853 11.382489920480694" fill="#b4ff20" stroke="none" /><path d="M 119.47837535516314 92.15188598940014 l 44.57188144514805 -17.958643925389758 a69.05377724174522,69.05377724174522 0 0,0 0.43473117887576,1.1063434318423817 l -44.874406173905506 17.18875148865159" fill="#39ff89" stroke="none" /><path d="M 119.61058180528143 92.48833698450437 l 10.790975792072981 -4.133389542608732 a32.555521089767105,32.555521089767105 0 0,0 0.19594611831833955,0.5250381788122717 l -10.860526498892947 3.947028226767127" fill="#ff5a08" stroke="none" /><path d="M 119.7369772167798 92.82701384747503 l 12.797443662878717 -4.650959727688456 a34.61638684428195,34.61638684428195 0 0,0 0.1987094660749537,0.5617784190983715 l -12.87560620976348 4.429983682163469" fill="#ff780b" stroke="none" /><path d="M 119.85752413597 93.16781622104841 l 27.912831873786292 -9.60369459187717 a50.518759002172004,50.518759002172004 0 0,0 0.2758389344038474,0.8247233044252402 l -28.07400810196191 9.121798184529615" fill="#b1ff20" stroke="none" /><path d="M 119.97218684219823 93.5106431181261 l 23.969105564656243 -7.788034499042572 a46.20260905001528,46.20260905001528 0 0,0 0.23925144618050528,0.7584924657456186 l -24.099612494604955 7.374291866870535" fill="#e7ff1a" stroke="none" /><path d="M 120.08093135843002 93.85539295169968 l 27.18735514396079 -8.319116830808497 a49.431672208445505,49.431672208445505 0 0,0 0.24196592375883588,0.8157888072107369 l -27.326526964831327 7.849898636851231" fill="#beff1f" stroke="none" /><path d="M 120.28053869075195 94.5502522615342 l 46.403995838531074 -12.469593398528925 a69.0501986396211,69.0501986396211 0 0,0 0.29857196769342054,1.1505195866935871 l -46.6117641380948 11.668977386286487" fill="#39ff89" stroke="none" /><path d="M 120.37134235888165 94.90015583598534 l 11.975773090805749 -2.998063428062786 a33.345344282001804,33.345344282001804 0 0,0 0.13459959329162807,0.5580022112427148 l -12.025605484358197 2.7914759851606648" fill="#ff6509" stroke="none" /><path d="M 120.45610955862082 95.25157060432595 l 11.199274498938319 -2.599661684866675 a32.49704267097996,32.49704267097996 0 0,0 0.12179522209716283,0.54598409901848 l -11.242364108037519 2.406499416298231" fill="#ff5908" stroke="none" /><path d="M 120.53481517161879 95.60439243477599 l 28.971228730446203 -6.201475451183516 a50.62752760396087,50.62752760396087 0 0,0 0.17507650955631276,0.8537352377534 l -29.073684535917515 5.7018645572667035" fill="#afff20" stroke="none" /><path d="M 120.6074358757038 95.95851677861258 l 16.700291229902994 -3.2752229440399265 a38.01842567621166,38.01842567621166 0 0,0 0.12041752675904939,0.6432752430056283 l -16.7541944805719 2.9872696235717355" fill="#ffa90f" stroke="none" /><path d="M 120.67395015179393 96.31383870115 l 31.05957908141619 -5.53791692094955 a52.54942117595956,52.54942117595956 0 0,0 0.1511124630002843,0.8918743106137449 l -31.150303405936697 5.002456822019967" fill="#98ff23" stroke="none" /><path d="M 120.78858239683441 97.02765380044208 l 30.258752571485786 -4.326388711474359 a51.56648076676755,51.56648076676755 0 0,0 0.11807250998920583,0.8797773439527655 l -30.32874108053283 3.8048930254569293" fill="#a4ff21" stroke="none" /><path d="M 120.83666639777658 97.38593545837742 l 40.103671425002396 -5.03120717391568 a61.41803443255763,61.41803443255763 0 0,0 0.12257181629913866,1.0501204687042676 l -40.18433359430512 4.34014296688656" fill="#35ff2f" stroke="none" /><path d="M 120.91429891909075 98.10471618934814 l 30.045125249865634 -2.722732408835319 a51.16824196154353,51.16824196154353 0 0,0 0.07194136933159816,0.8778669266518854 l -30.08754110301673 2.205151564975665" fill="#a9ff21" stroke="none" /><path d="M 120.94382443527127 98.46500227214037 l 22.94431890653951 -1.6816163398272301 a44.00586020124786,44.00586020124786 0 0,0 0.04886622153501966,0.7559388184451556 l -22.969865719078946 1.2864184571290393" fill="#fffb17" stroke="none" /><path d="M 120.96714384426684 98.82574320788733 l 28.635194089438592 -1.6037029841898125 a49.680066314451196,49.680066314451196 0 0,0 0.040468889398137003,0.8542342937324366 l -28.658556587070226 1.1105575838343762" fill="#bbff1f" stroke="none" /><line stroke="#e1ed5e" stroke-width="0.3" x1="184.98032266829074" x2="189.97916517819016" y1="98.17113171792111" y2="98.06355123074" /><path d="M 185.9800911702706 98.14961562048488 a86.0,86.0 0 0,1 -9.607161424134198,41.387399972396054" fill="none" id="id124" stroke="none" /><text fill="#e1ed5e" style="font-size:6.75px; font-family:Arial;" text-anchor="middle"><textPath startOffset="21.466115282336823" xlink:href="#id124">April</textPath></text><path d="M 120.99513854157772 99.54816195383933 l 27.06063985369316 -0.5823741822487344 a48.06690578879375,48.06690578879375 0 0,0 0.010682281294749409,0.8273544585653616 l -27.066655142105624 0.11648346562291012" fill="#cfff1d" stroke="none" /><path d="M 120.99980553446 99.90962569577887 l 45.872484671674485 -0.19741582265102825 a66.87290946691787,66.87290946691787 0 0,0 -0.004954017453166845,1.1511391874873282 l -45.86908635693182 -0.5922328430399848" fill="#36ff6e" stroke="none" /><path d="M 120.9904718944345 100.63252640178507 l 29.508940701969895 0.8892217467323823 a50.52233555576586,50.52233555576586 0 0,0 -0.033676425769359225,0.8690389112731384 l -29.489262143349332 -1.3970379050195267" fill="#b1ff20" stroke="none" /><path d="M 120.9764740272857 100.99374915477107 l 23.17370846299119 1.097841952277259 a44.199698723903495,44.199698723903495 0 0,0 -0.04254462861342401,0.7596629237576128 l -23.151377483490236 -1.496576592370295" fill="#fffd17" stroke="none" /><path d="M 120.95626037817324 101.35467743843564 l 28.39799974631959 1.8357344706934615 a49.45727166540847,49.45727166540847 0 0,0 -0.06223006268918262,0.8490797633788987 l -28.36219312496607 -2.3242873705691305" fill="#beff1f" stroke="none" /><path d="M 120.89721153311464 102.0752229133903 l 28.415545510917276 2.8218401793605894 a49.55531489374377,49.55531489374377 0 0,0 -0.09160110821741804,0.8481124972842328 l -28.362762101198808 -3.3105489985296135" fill="#bdff1f" stroke="none" /><path d="M 120.8583938346157 102.4346265915055 l 36.87423673039518 4.304022543495295 a58.12457332420321,58.12457332420321 0 0,0 -0.1245484797742884,0.9927739281434375 l -36.79468674137404 -4.938114225926127" fill="#58ff2a" stroke="none" /><path d="M 120.81339534386255 102.79330883721812 l 11.316228940764006 1.5187201214404715 a32.41768576582194,32.41768576582194 0 0,0 -0.07898484076447115,0.5524197923436007 l -11.288410048982934 -1.7132853857644814" fill="#ff5708" stroke="none" /><path d="M 120.70491114924044 103.5080841355445 l 22.552895841667425 3.821192737436279 a43.87432238956458,43.87432238956458 0 0,0 -0.1325705640750124,0.7435261267967511 l -22.483778835253222 -4.2088376149662485" fill="#fff917" stroke="none" /><path d="M 120.5718875245553 104.21870165774334 l 26.51870771794143 5.438223210065356 a48.07057684483469,48.07057684483469 0 0,0 -0.17320506695404497,0.8091564098734362 l -26.421168612262946 -5.893893439354962" fill="#cfff1d" stroke="none" /><path d="M 120.49622156327973 104.57218783832717 l 19.289968384411363 4.303103309876991 a40.764098217906735,40.764098217906735 0 0,0 -0.15866830088966935,0.683538887497451 l -19.213039517591138 -4.634510854723007" fill="#ffcf13" stroke="none" /><path d="M 120.41448212921028 104.9243191809786 l 32.95447700599959 7.949178538678887 a54.899660679404285,54.899660679404285 0 0,0 -0.2295032884139061,0.9167515536569775 l -32.81276240329063 -8.515257931733261" fill="#7dff26" stroke="none" /><path d="M 120.32669344350535 105.2749913415812 l 16.05319024893374 4.165972188405186 a37.584940200164326,37.584940200164326 0 0,0 -0.16790074003603256,0.6248211142824852 l -15.979101432555927 -4.441684235863219" fill="#ffa30f" stroke="none" /><path d="M 120.23288151984713 105.62410040840565 l 26.95759054549455 7.493356586298734 a48.979672638327344,48.979672638327344 0 0,0 -0.23278723677207233,0.8103629100199812 l -26.82461067183638 -7.956276971823298" fill="#c4ff1e" stroke="none" /><path d="M 120.13307415673323 105.97154293290107 l 18.43249577963304 5.46714520851179 a40.22619508371699,40.22619508371699 0 0,0 -0.20261211827631825,0.6621481255857146 l -18.33565688885059 -5.783620306649562" fill="#ffc812" stroke="none" /><path d="M 120.02730092923936 106.31721596034902 l 11.01521599526076 3.4745320169609073 a32.550210221426056,32.550210221426056 0 0,0 -0.17314812918016445,0.5328951466704901 l -10.95377561506435 -3.663626063609193" fill="#ff5908" stroke="none" /><path d="M 119.9155931802556 106.66101706037122 l 21.82640189185208 7.300110724910857 a44.014852511815114,44.014852511815114 0 0,0 -0.2465023919081346,0.7164513360969942 l -21.69750866900071 -7.674734764097151" fill="#fffb17" stroke="none" /><path d="M 119.79798401119884 107.00284435728193 l 10.738523638760432 3.798377129039736 a32.390503007094495,32.390503007094495 0 0,0 -0.19044958548635327,0.5240354644161852 l -10.671549792268852 -3.9826603904620526" fill="#ff5708" stroke="none" /><path d="M 119.67450827220406 107.3425965602758 l 26.988182759080264 10.072085927295081 a49.806404210944706,49.806404210944706 0 0,0 -0.3066787132072954,0.8006413467808284 l -26.810809766279462 -10.535150840909052" fill="#b9ff1f" stroke="none" /><path d="M 119.41010516605496 108.01547362559984 l 21.03148366605018 8.685027782707357 a43.7541867088616,43.7541867088616 0 0,0 -0.29346353650817497,0.6936611125780473 l -20.878869148349693 -9.045763420951568" fill="#fff717" stroke="none" /><path d="M 119.26925614724726 108.34839909993367 l 17.545560796895607 7.601608637371296 a40.121484188036185,40.121484188036185 0 0,0 -0.28000767626523665,0.6313433901104231 l -17.412112035899096 -7.902500363974407" fill="#ffc612" stroke="none" /><path d="M 119.12269723197855 108.67885076344098 l 19.17235462304856 8.701387808355223 a42.05453232877245,42.05453232877245 0 0,0 -0.3048460617794803,0.6566112966941978 l -19.019733944429248 -9.03011917232825" fill="#ffe115" stroke="none" /><path d="M 118.81262510543309 109.33194174019688 l 13.746710389119382 6.8190111561609195 a36.34506303897673,36.34506303897673 0 0,0 -0.2828361213586421,0.5580625001103867 l -13.627295597974472 -7.054627867974001" fill="#ff910d" stroke="none" /><path d="M 118.64920377521936 109.65438752849418 l 35.9152966818973 18.59276120027271 a61.442543253349804,61.442543253349804 0 0,0 -0.49431255099699845,0.9350530599376826 l -35.58993162267541 -19.208229275296528" fill="#35ff2f" stroke="none" /><line stroke="#e1ed5e" stroke-width="0.3" x1="174.80103733775053" x2="179.2010983576182" y1="140.37084112569926" y2="142.7455964860345" /><path d="M 175.68104954172406 140.8457921977663 a86.0,86.0 0 0,1 -30.038265399797805,32.042727171017184" fill="none" id="id125" stroke="none" /><text fill="#e1ed5e" style="font-size:6.75px; font-family:Arial;" text-anchor="middle"><textPath startOffset="22.206326154141568" xlink:href="#id125">May</textPath></text><path d="M 118.48025628344425 109.97397251340804 l 8.38443649407344 4.525161223398253 a30.527636612554957,30.527636612554957 0 0,0 -0.25355904709149485,0.4602833216749268 l -8.305301037530436 -4.668815063470985" fill="#ff3b05" stroke="none" /><path d="M 118.30583269289576 110.29060199501025 l 9.998553716266642 5.620675035436177 a32.4700943444701,32.4700943444701 0 0,0 -0.27808007869508844,0.48485605664447545 l -9.900321641419174 -5.791950937938967" fill="#ff5808" stroke="none" /><path d="M 117.94076556474637 110.91462005526583 l 13.367756992175401 8.132539719900201 a36.64720835477079,36.64720835477079 0 0,0 -0.33250424043045207,0.5361027072288945 l -13.225788112076987 -8.36143875849437" fill="#ff950d" stroke="none" /><path d="M 117.75023020441432 111.22182372390056 l 16.167393210696353 10.221142745534733 a40.12737206868387,40.12737206868387 0 0,0 -0.37413068078609013,0.5806591249327729 l -15.989057666533212 -10.49792347038896" fill="#ffc612" stroke="none" /><path d="M 117.55443506779139 111.5257021239791 l 19.20271507448504 12.607912078369365 a43.97180256766428,43.97180256766428 0 0,0 -0.4208664650282572,0.6291382613054015 l -18.98284550404606 -12.936587253880573" fill="#fffa17" stroke="none" /><path d="M 117.35343817320211 111.8261652097733 l 20.920983126222083 14.257405381698376 a46.317210414770244,46.317210414770244 0 0,0 -0.4546565589371998,0.654966683037543 l -20.672465660122747 -14.615413326922939" fill="#e5ff1a" stroke="none" /><path d="M 117.14729908036423 112.12312394758627 l 18.940520124045577 13.390929499707493 a44.19612673347669,44.19612673347669 0 0,0 -0.44452928880186277,0.6174123025154729 l -18.707211042868114 -13.714975407674098" fill="#fffd17" stroke="none" /><path d="M 116.93607887273984 112.41649034213515 l 21.89879641037867 16.05484930585132 a48.15355355118015,48.15355355118015 0 0,0 -0.49584111543034515,0.6642602033159704 l -21.619194028253233 -16.429422388676606" fill="#ceff1d" stroke="none" /><path d="M 116.71984013943494 112.70617746262583 l 15.800278493386092 12.007360167419572 a40.84503712918404,40.84503712918404 0 0,0 -0.43022113159287556,0.5561188069759511 l -15.591250544575148 -12.277556968508774" fill="#ffd013" stroke="none" /><path d="M 116.498646956653 112.99209946851258 l 18.011824964762198 14.183673495556825 a43.92602085818191,43.92602085818191 0 0,0 -0.47289935765427626,0.590014660274016 l -17.765007695053068 -14.491615989409091" fill="#fffa17" stroke="none" /><path d="M 116.27256486870786 113.27417163493432 l 12.12210110693601 9.888474986443441 a36.64376146597412,36.64376146597412 0 0,0 -0.4029138619733457,0.48533570232232864 l -11.950091245069121 -10.095671945879541" fill="#ff950d" stroke="none" /><path d="M 116.0416608686014 113.55231037782055 l 21.827642732025016 18.440421571284148 a49.57437899523988,49.57437899523988 0 0,0 -0.5563130354097776,0.6471177417829035 l -21.506987187044462 -18.813416412228577" fill="#bcff1f" stroke="none" /><path d="M 115.80600337817218 113.82643327865902 l 12.757220471717893 11.159485004092668 a37.94935927168302,37.94935927168302 0 0,0 -0.4343234601173713,0.48796701167325496 l -12.563238161952183 -11.377426185506788" fill="#ffa80f" stroke="none" /><path d="M 115.32070863581623 114.36230785411682 l 21.589155172918524 20.238626050160832 a50.59212066545085,50.59212066545085 0 0,0 -0.6010667932321376,0.6302161296705245 l -21.23758182830742 -20.607249296413865" fill="#b0ff20" stroke="none" /><path d="M 115.07121518719521 114.62390073753431 l 16.42777814203975 15.940200833409655 a43.89021400715845,43.89021400715845 0 0,0 -0.5307776816874636,0.5376749892649759 l -16.15095983529675 -16.220616316655295" fill="#fff917" stroke="none" /><path d="M 114.81725581225074 114.88116024355365 l 18.988074683872448 19.069967183373393 a47.911161784197574,47.911161784197574 0 0,0 -0.5894214727942129,0.5768729679044933 l -18.657003258702442 -19.39399025420046" fill="#d1ff1c" stroke="none" /><path d="M 114.29624159901734 115.38237550388516 l 26.673662805523627 28.70015132975801 a60.18141107481691,60.18141107481691 0 0,0 -0.7648783680756427,0.6986982541460327 l -26.17568488798112 -29.155042350490625" fill="#42ff2d" stroke="none" /><path d="M 114.0293411484842 115.62618273729858 l 11.353835753860176 12.646147127034702 a37.995135288789015,37.995135288789015 0 0,0 -0.49042247487500135,0.43274081363378075 l -11.134470926078587 -12.839711082440772" fill="#ffa90f" stroke="none" /><path d="M 113.75828350139079 115.86535959552629 l 6.530946560267098 7.531158641070939 a30.968531158101584,30.968531158101584 0 0,0 -0.40573866958538773,0.34577929653312095 l -6.400342414104663 -7.6424623278270065" fill="#ff4206" stroke="none" /><path d="M 113.48314897796784 116.09983520530334 l 18.071984380996767 21.579229810654834 a49.14710959739997,49.14710959739997 0 0,0 -0.6532583992534395,0.5375871889801899 l -17.697855853198636 -21.8871121184922" fill="#c2ff1e" stroke="none" /><path d="M 113.20401910651253 116.32954008644616 l 14.10451923021469 17.44319743192754 a43.43217776687541,43.43217776687541 0 0,0 -0.5853882138991493,0.46506780098432676 l -13.80217352359819 -17.683399146916994" fill="#fff316" stroke="none" /><path d="M 112.92097659922987 116.55440617244103 l 16.50520446896309 21.146533053444994 a47.82531704831689,47.82531704831689 0 0,0 -0.6533195005644027,0.5009375340601151 l -16.138756239905195 -21.42750992933248" fill="#d2ff1c" stroke="none" /><path d="M 112.34349029814194 116.9893568818739 l 21.76767659093093 29.960636510420912 a58.03338337604234,58.03338337604234 0 0,0 -0.8132208952399095,0.5802115163997326 l -21.248728367842137 -30.330892288664863" fill="#59ff2a" stroke="none" /><path d="M 112.04921762599082 117.19931262002967 l 6.210190874195701 8.864560139153767 a31.82344201973741,31.82344201973741 0 0,0 -0.4513520530086492,0.3104440577071 l -6.056681936564168 -8.97014498622596" fill="#ff4f07" stroke="none" /><path d="M 111.7513745106137 117.40417183066458 l 5.599640434266785 8.293251501762132 a31.006697430449037,31.006697430449037 0 0,0 -0.4449096402051827,0.2948618493468288 l -5.456056095321638 -8.388411372200279" fill="#ff4206" stroke="none" /><path d="M 111.45004920935366 117.60387380957326 l 12.533684443060144 19.26990838820133 a43.987444725499174,43.987444725499174 0 0,0 -0.6382749947292553,0.4073773005723735 l -12.200127646283958 -19.482800117597513" fill="#fffa17" stroke="none" /><path d="M 111.1453310114006 117.79835938074945 l 10.145892146704892 16.202321355970586 a40.116860222712006,40.116860222712006 0 0,0 -0.5884203515239758,0.36145583946528526 l -9.865492595248607 -16.37456566226425" fill="#ffc612" stroke="none" /><line stroke="#e1ed5e" stroke-width="0.3" x1="143.8653032363475" x2="146.44561519142675" y1="172.8068346515853" y2="177.08958963109032" /><path d="M 144.38136562736335 173.6633856474863 a86.0,86.0 0 0,1 -40.68145358897372,12.25698825130547" fill="none" id="id126" stroke="none" /><text fill="#e1ed5e" style="font-size:6.75px; font-family:Arial;" text-anchor="middle"><textPath startOffset="21.466115282336833" xlink:href="#id126">June</textPath></text><path d="M 110.8373102113329 117.98757091392108 l 13.828092087802876 22.951616423554672 a47.79538817115253,47.79538817115253 0 0,0 -0.7083552578825089,0.41850877212790305 l -13.430968958891984 -23.186243767976325" fill="#d3ff1c" stroke="none" /><path d="M 110.21172684928248 118.3499491758327 l 19.550050986885637 35.13043849380829 a61.20388292636764,61.20388292636764 0 0,0 -0.9249864888519516,0.5043763851908807 l -18.942441686165036 -35.46175553075894" fill="#37ff2e" stroke="none" /><path d="M 109.89434966115114 118.52300852407294 l 6.993902053704948 13.093140205663186 a35.84402190721814,35.84402190721814 0 0,0 -0.5467222050915029,0.28601921801670693 l -6.767488946086949 -13.211588842624609" fill="#ff8a0c" stroke="none" /><path d="M 109.57404056367764 118.69057910512821 l 8.7522374591419 17.086243314820578 a40.19743136866121,40.19743136866121 0 0,0 -0.6185544222844427,0.3101560283125869 l -8.456829129174697 -17.234367184042465" fill="#ffc712" stroke="none" /><path d="M 109.2508944713604 118.85261126421891 l 12.64364507149683 25.766775984056167 a49.70171606901789,49.70171606901789 0 0,0 -0.7712933164543906,0.37026766331575933 l -12.198239087042207 -25.98059792387149" fill="#bbff1f" stroke="none" /><path d="M 108.92500713936063 119.00905698771935 l 8.72851756033491 18.59056078408937 a41.53767194859233,41.53767194859233 0 0,0 -0.6498311722107847,0.2983056189556832 l -8.407218392356704 -18.738053473379125" fill="#ffda14" stroke="none" /><path d="M 108.59647513512805 119.15986991738527 l 11.05189938731796 24.632532668622435 a47.99826190216975,47.99826190216975 0 0,0 -0.7567253413414667,0.33172615153624624 l -10.626253371318738 -24.819123373453134" fill="#d0ff1d" stroke="none" /><path d="M 107.93186726928326 119.44442032107085 l 15.274515628614193 37.44441151123522 a61.44001460325532,61.44001460325532 0 0,0 -0.9826859996625438,0.391031039593442 l -14.627708552909782 -37.70178939523473" fill="#35ff2f" stroke="none" /><path d="M 107.59598834532513 119.57807347666477 l 5.606480813521337 14.450271422570733 a36.49977326603029,36.49977326603029 0 0,0 -0.587698108416326,0.22221713727491357 l -5.356912484344736 -14.544636809952276" fill="#ff930d" stroke="none" /><path d="M 107.2578585660854 119.70592522655815 l 5.983811563111481 16.246740296578732 a38.31365273670758,38.31365273670758 0 0,0 -0.6208279327203152,0.2226068086736549 l -5.703264069761431 -16.34733464629235" fill="#ffad10" stroke="none" /><path d="M 106.91757812671514 119.82793768551818 l 9.712779964764373 27.839858454326933 a50.48551870666153,50.48551870666153 0 0,0 -0.8229867191263841,0.27920177845193356 l -9.232123512700761 -28.00292321967699" fill="#b1ff20" stroke="none" /><path d="M 106.57524785965236 119.94407469862006 l 7.464676357660288 22.641893667879316 a44.84065313686196,44.84065313686196 0 0,0 -0.7351276070096447,0.23536464519979966 l -7.073827405559703 -22.767031159738824" fill="#f8ff18" stroke="none" /><path d="M 106.2309692047433 120.05430185196036 l 8.048325241613005 25.903441101135762 a48.12496636080485,48.12496636080485 0 0,0 -0.7932026291283756,0.23898544541599556 l -7.601247638044383 -26.038141915657484" fill="#ceff1d" stroke="none" /><path d="M 105.53697534728816 120.25689768951611 l 11.731953927094603 42.92108515810304 a65.4955985924069,65.4955985924069 0 0,0 -1.0900636981822882,0.2878957301247222 l -10.991399786100818 -43.11667223753135" fill="#34ff5d" stroke="none" /><path d="M 105.18746579009965 120.34920634021253 l 8.56229162456477 33.58785311815904 a55.66203564349789,55.66203564349789 0 0,0 -0.9304749893883922,0.2286881140476482 l -7.982863350433166 -33.730262490520715" fill="#74ff27" stroke="none" /><path d="M 104.83641907484287 120.43548508189849 l 3.917772016484924 16.553894598093372 a38.011183496098596,38.011183496098596 0 0,0 -0.6380083942907305,0.14520863336357348 l -3.6322434728013313 -16.61887996503463" fill="#ffa90f" stroke="none" /><path d="M 104.48393922423573 120.51570834832081 l 6.519345468996149 29.828457428895863 a51.5325848550622,51.5325848550622 0 0,0 -0.8682223112541011,0.18194442689070875 l -6.00493169631267 -29.936257836513114" fill="#a4ff21" stroke="none" /><path d="M 104.13013068566511 120.58985236759428 l 3.9418755285117877 19.65134795012428 a41.042800676031625,41.042800676031625 0 0,0 -0.6938820680318843,0.13298414979155132 l -3.603025845908199 -19.716289298264297" fill="#ffd313" stroke="none" /><path d="M 103.7750983002368 120.6578951692458 l 5.093307131834266 27.87132848636129 a49.33289129499226,49.33289129499226 0 0,0 -0.8366647607128117,0.1454648930787905 l -4.612793399649405 -27.954871957961085" fill="#bfff1e" stroke="none" /><path d="M 103.06178313531738 120.77559828337769 l 5.891749092487968 39.978211036588306 a61.410024313959816,61.410024313959816 0 0,0 -1.0471035200643137,0.14511900665190935 l -5.202716981236824 -40.07370460873282" fill="#35ff2f" stroke="none" /><path d="M 102.70371172650421 120.8252237178851 l 2.2284564580199926 17.164590377331386 a38.30864469006364,38.30864469006364 0 0,0 -0.654662954253914,0.07927056667881467 l -1.9326660807146985 -17.20040647273555" fill="#ffad10" stroke="none" /><path d="M 102.34483914955558 120.86867818915974 l 2.154200351624989 19.172024614804357 a40.292669773403716,40.292669773403716 0 0,0 -0.6899014593452711,0.07151110709801574 l -1.8238662956741152 -19.20626509035813" fill="#ffc912" stroke="none" /><path d="M 101.98527174616119 120.90594882070398 l 2.883063822174028 30.360168490656417 a51.496752085816865,51.496752085816865 0 0,0 -0.8831832324553361,0.07620476553747899 l -2.36003627197715 -30.405297508472557" fill="#a5ff21" stroke="none" /><path d="M 101.62511606390274 120.93702456842531 l 1.5177315433338603 19.553546553926026 a40.61236069100767,40.61236069100767 0 0,0 -0.6974442684693,0.04809984016605266 l -1.18092451408563 -19.576774738608364" fill="#ffcd13" stroke="none" /><path d="M 101.26447882468166 120.96189622390904 l 1.6708113321052311 27.697872886197462 a48.748221076808576,48.748221076808576 0 0,0 -0.8380328310640662,0.04331672501391193 l -1.1937904326276854 -27.722529417973576" fill="#c7ff1e" stroke="none" /><path d="M 100.90346689309514 120.98055641714683 l 0.5074140065782384 11.783307471726197 a32.794227568913115,32.794227568913115 0 0,0 -0.5641850953903977,0.019431675433358966 l -0.3045085595131884 -11.79029594558565" fill="#ff5d08" stroke="none" /><line stroke="#e1ed5e" stroke-width="0.3" x1="102.19456741930631" x2="102.32365962044197" y1="184.97166512339345" y2="189.96999836594603" /><path d="M 102.22038585953345 185.97133177190398 a86.0,86.0 0 0,1 -42.740103519485714,-10.115201625700543" fill="none" id="id127" stroke="none" /><text fill="#e1ed5e" style="font-size:6.75px; font-family:Arial;" text-anchor="middle"><textPath startOffset="22.20632615414155" xlink:href="#id127">July</textPath></text><path d="M 100.54218724476979 120.99299961872073 l 0.8020287608781974 31.0538280524615 a52.06418334424906,52.06418334424906 0 0,0 -0.8960997415919225,0.015427169704837474 l -0.2673693293936069 -31.0630326994455" fill="#9eff22" stroke="none" /><path d="M 100.18074693466247 120.99922214144158 l 0.16740936943007947 19.44966061961651 a40.45038107892064,40.45038107892064 0 0,0 -0.6963126081850565,0.0 l 0.1674093694300661 -19.44966061961651" fill="#ffcb12" stroke="none" /><path d="M 99.45781275523022 120.99299961872073 l -0.7915793861686056 30.64923771690865 a51.65945809293085,51.65945809293085 0 0,0 -0.8887386120234558,-0.030609954773766632 l 1.3190383498667044 -30.63107096370879" fill="#a3ff22" stroke="none" /><path d="M 99.09653310690486 120.98055641714683 l -1.0027486003215271 23.28610349980522 a44.30768373217484,44.30768373217484 0 0,0 -0.7616953565846034,-0.039370949541029814 l 1.4034320253196195 -23.265392743501984" fill="#ffff18" stroke="none" /><path d="M 98.73552117531835 120.96189622390904 l -1.772896554577019 29.390190541249883 a50.44361496562888,50.44361496562888 0 0,0 -0.8662783827397641,-0.05974362917991826 l 2.2785376980957133 -29.355318567553677" fill="#b2ff20" stroke="none" /><path d="M 98.01472825383883 120.90594882070398 l -4.346016984594934 45.76582970544907 a66.97171991842977,66.97171991842977 0 0,0 -1.1467070205679646,-0.11886087128398978 l 5.1331566017684915 -45.684239465709325" fill="#36ff6f" stroke="none" /><path d="M 97.65516085044442 120.86867818915974 l -1.8786738068864153 16.71988422137477 a37.82509862226246,37.82509862226246 0 0,0 -0.6463995531384129,-0.0782699838829505 l 2.1662007830762176 -16.685068708766472" fill="#ffa60f" stroke="none" /><path d="M 97.2962882734958 120.8252237178851 l -1.3697419680854177 10.550378814991909 a31.638923169144732,31.638923169144732 0 0,0 -0.5394758948812984,-0.0747664433149951 l 1.5511464541535471 -10.52523780618431" fill="#ff4c07" stroke="none" /><path d="M 96.93821686468263 120.77559828337769 l -4.290334161786311 29.11187863652706 a50.42632231468403,50.42632231468403 0 0,0 -0.8576416124248897,-0.13394598157016602 l 4.7908116378197185 -29.033714347609788" fill="#b2ff20" stroke="none" /><path d="M 96.58105272829116 120.7198165907248 l -2.1674916280330754 13.135630773366696 a34.31325714360733,34.31325714360733 0 0,0 -0.5819381820876086,-0.10117741228125739 l 2.393278781592734 -13.096374782564434" fill="#ff740a" stroke="none" /><path d="M 96.22490169976321 120.6578951692458 l -3.4303832505291925 18.771563531292337 a40.082429789071824,40.082429789071824 0 0,0 -0.6776457457988915,-0.12987241999282223 l 3.7529966108997788 -18.709733912951048" fill="#ffc612" stroke="none" /><path d="M 95.86986931433489 120.58985236759428 l -1.9969090815779293 9.955148229063038 a31.153453705153993,31.153453705153993 0 0,0 -0.5248741869927519,-0.10999248914046403 l 2.167974730000068 -9.919299759196033" fill="#ff4406" stroke="none" /><path d="M 95.51606077576429 120.51570834832081 l -4.990435744092552 22.8331204186402 a44.37211665570837,44.37211665570837 0 0,0 -0.7447750976155503,-0.16950838743775504 l 5.382730991100964 -22.743835297624756" fill="#ffff18" stroke="none" /><path d="M 95.16358092515715 120.4354850818985 l -8.7788255952968 37.093468682737274 a59.11814787932185,59.11814787932185 0 0,0 -0.9882491250048129,-0.24288759094442802 l 9.416028005044822 -36.93685983347881" fill="#4dff2c" stroke="none" /><path d="M 94.46302465271185 120.25689768951611 l -8.26761256743441 30.24687151570964 a52.356445175642065,52.356445175642065 0 0,0 -0.8672940678783537,-0.24510596674871063 l 8.787037803417377 -30.100076755622407" fill="#9bff22" stroke="none" /><path d="M 94.11515582081647 120.15858648285463 l -6.08803374355941 20.85461415685379 a42.72507966599811,42.72507966599811 0 0,0 -0.7042009186398156,-0.2121699601379563 l 6.446109636639471 -20.74672882761011" fill="#ffea15" stroke="none" /><path d="M 93.76903079525671 120.05430185196036 l -7.984694338389597 25.698645779826315 a47.91051353271609,47.91051353271609 0 0,0 -0.7854555788117045,-0.25147807246585235 l 8.425871262292242 -25.557394860700754" fill="#d1ff1c" stroke="none" /><path d="M 93.08242187328487 119.8279376855182 l -6.979194250668331 20.004548725363065 a42.187050811615734,42.187050811615734 0 0,0 -0.6835918183767928,-0.24511170503797522 l 7.3225056296748505 -19.881449479285134" fill="#ffe215" stroke="none" /><path d="M 92.7421414339146 119.70592522655815 l -15.367377756029997 41.7242075236434 a65.46420799443734,65.46420799443734 0 0,0 -1.0540665808220009,-0.3985577879748641 l 16.083314557612283 -41.4535014855619" fill="#34ff5d" stroke="none" /><path d="M 92.40401165467489 119.57807347666478 l -3.634601075247017 9.367903645263592 a31.048280633179473,31.048280633179473 0 0,0 -0.4965934804677494,-0.19760479439954504 l 3.7953156317566243 -9.303952006457981" fill="#ff4306" stroke="none" /><path d="M 92.06813273071674 119.44442032107085 l -11.251748429410902 27.582877824452574 a50.78954500823113,50.78954500823113 0 0,0 -0.8066553723515847,-0.33718201106465134 l 11.72487526125995 -27.385110770367948" fill="#adff20" stroke="none" /><path d="M 91.7346041902142 119.30500536409082 l -8.23803205650439 19.241093433430006 a41.930476551621496,41.930476551621496 0 0,0 -0.6610625660947694,-0.2897904021379087 l 8.5680152972569 -19.096438477997644" fill="#ffdf14" stroke="none" /><path d="M 91.40352486487194 119.15986991738527 l -10.943695660030523 24.39136762052825 a47.733935159252646,47.733935159252646 0 0,0 -0.7467678756084436,-0.3428045050404869 l 11.361931531406386 -24.199376045153688" fill="#d3ff1c" stroke="none" /><path d="M 91.07499286063937 119.00905698771935 l -4.220347905840251 8.988769711602323 a30.930222423216385,30.930222423216385 0 0,0 -0.47998893636481316,-0.2304238583347403 l 4.374449510205307 -8.914791576768021" fill="#ff4106" stroke="none" /><path d="M 90.7491055286396 118.85261126421891 l -7.944261633356826 16.189794059222532 a39.03387713663544,39.03387713663544 0 0,0 -0.6006497554616658,-0.3011782566728604 l 8.221765296501252 -16.05064796164037" fill="#ffb711" stroke="none" /><path d="M 90.42595943632237 118.69057910512821 l -5.379511742962653 10.50195986846616 a32.7995893009692,32.7995893009692 0 0,0 -0.5002860403092884,-0.2617260113113362 l 5.559488685798438 -10.407804438210109" fill="#ff5d08" stroke="none" /><line stroke="#e1ed5e" stroke-width="0.3" x1="58.666819895761336" x2="56.23545636021788" y1="174.27360380694188" y2="178.64263932499728" /><path d="M 58.180547188652646 175.14741091055294 a86.0,86.0 0 0,1 -31.652253787137756,-30.449443065178592" fill="none" id="id128" stroke="none" /><text fill="#e1ed5e" style="font-size:6.75px; font-family:Arial;" text-anchor="middle"><textPath startOffset="22.20632615414155" xlink:href="#id128">August</textPath></text><path d="M 89.7882731507175 118.34994917583269 l -13.942940030749606 25.054747811229923 a49.67308781044362,49.67308781044362 0 0,0 -0.7435617335259096,-0.42221375806520883 l 14.372150531196722 -24.81103088737008" fill="#bbff1f" stroke="none" /><path d="M 89.4739219176387 118.17145234162733 l -13.51784432492001 23.33621905422137 a47.96870844032722,47.96870844032722 0 0,0 -0.7109239643762789,-0.4200264092015351 l 13.91753616032467 -23.100074072726084" fill="#d0ff1d" stroke="none" /><path d="M 88.8546689885994 117.79835938074946 l -15.519446201821571 24.783533177047897 a50.24169501155957,50.24169501155957 0 0,0 -0.7290266079062147,-0.4652992738658757 l 15.94375461177471 -24.512719474358217" fill="#b4ff20" stroke="none" /><path d="M 88.54995079064634 117.60387380957326 l -10.41763563201817 16.016589947084935 a40.106498519994624,40.106498519994624 0 0,0 -0.5754810832867931,-0.38139748197814455 l 10.691791414044925 -15.83489444401547" fill="#ffc612" stroke="none" /><path d="M 87.65650970185807 116.9893568818739 l -14.80659428081832 20.379528671870222 a46.190482787837595,46.190482787837595 0 0,0 -0.639221358179439,-0.472880679156768 l 15.155200609416324 -20.121638043973686" fill="#e7ff1a" stroke="none" /><path d="M 87.36589467227662 116.77436683061367 l -16.186415811276078 21.490787788146182 a47.9045352416774,47.9045352416774 0 0,0 -0.65440166360517,-0.5017672905339745 l 16.553946203374732 -21.20898115578484" fill="#d1ff1c" stroke="none" /><path d="M 87.07902340077011 116.55440617244103 l -15.388052590439486 19.71523366122354 a46.009650154345884,46.009650154345884 0 0,0 -0.6201279399468215,-0.49266714039052356 l 15.725138023103664 -19.447432606827885" fill="#e9ff1a" stroke="none" /><path d="M 86.79598089348748 116.32954008644616 l -11.96579546682492 14.798216752455286 a40.030698363605474,40.030698363605474 0 0,0 -0.5320839851666445,-0.43786889569885934 l 12.218749580536253 -14.590052737899244" fill="#ffc512" stroke="none" /><path d="M 86.51685102203217 116.09983520530335 l -12.577913294965922 15.018919660862952 a40.59009572807484,40.59009572807484 0 0,0 -0.5317969830397868,-0.4532089260356724 l 12.834575754582767 -14.800186344604327" fill="#ffcd13" stroke="none" /><path d="M 86.24171649860922 115.8653595955263 l -14.8865570875372 17.16642786938019 a43.72214399468362,43.72214399468362 0 0,0 -0.5643438798608719,-0.4979678588394294 l 15.179843320304661 -16.90763686876847" fill="#fff717" stroke="none" /><path d="M 85.97065885151581 115.62618273729859 l -4.9048683710872165 5.463148173375624 a28.341915397357095,28.341915397357095 0 0,0 -0.36021285659651897,-0.3290459039365218 l 4.998180777150591 -5.377909502852527" fill="#ff1902" stroke="none" /><path d="M 85.70375840098266 115.38237550388516 l -14.182254135906893 15.259728027053164 a41.83256181642287,41.83256181642287 0 0,0 -0.5232340449907278,-0.494750448161151 l 14.442824015288439 -15.013342942146082" fill="#ffde14" stroke="none" /><path d="M 85.44109423537348 115.13401014063109 l -19.73943636110255 20.51918151603831 a49.47248071282419,49.47248071282419 0 0,0 -0.6086294165831301,-0.5956719836382264 l 20.089715730061474 -20.176359429477515" fill="#beff1f" stroke="none" /><path d="M 85.18274418774928 114.88116024355367 l -20.000352392462222 20.086610682235545 a49.34582904983321,49.34582904983321 0 0,0 -0.5967540905529596,-0.604508743117841 l 20.343147108070713 -19.73936144513704" fill="#bfff1e" stroke="none" /><path d="M 84.9287848128048 114.62390073753433 l -4.123942172342173 4.001543354440497 a26.746237748152193,26.746237748152193 0 0,0 -0.31776243302022844,-0.3331726406242434 l 4.192211156741359 -3.9299635972337534" fill="#ff0000" stroke="none" /><path d="M 84.67929136418377 114.36230785411682 l -14.290572609979078 13.396612918824985 a40.58799895900326,40.58799895900326 0 0,0 -0.47343695891778387,-0.5138223139702556 l 14.51905597689259 -13.148639350053385" fill="#ffcd13" stroke="none" /><path d="M 84.43433777217949 114.09645910891817 l -29.78869066152584 26.97701219983416 a61.188621257242424,61.188621257242424 0 0,0 -0.7002925533998945,-0.786786107495176 l 30.248642064574074 -26.46025192259812" fill="#37ff2e" stroke="none" /><path d="M 84.19399662182784 113.82643327865904 l -6.531680777986151 5.713642235395297 a29.678050551800602,29.678050551800602 0 0,0 -0.3330407101842331,-0.387401586118587 l 6.629063997741162 -5.60036355011518" fill="#ff2e04" stroke="none" /><path d="M 83.95833913139862 113.55231037782056 l -21.085029968915688 17.81304771401187 a48.602231026707535,48.602231026707535 0 0,0 -0.5344023599126307,-0.6437220685349995 l 21.388528328721854 -17.44746438836311" fill="#c8ff1d" stroke="none" /><path d="M 83.72743513129214 113.27417163493432 l -18.40659512337218 15.014984106914737 a44.75399948991013,44.75399948991013 0 0,0 -0.4818132213606938,-0.601136075816972 l 18.662326256787736 -14.695920197519504" fill="#faff18" stroke="none" /><path d="M 83.50135304334701 112.99209946851258 l -22.854939751638472 17.997454662814786 a50.09049063510442,50.09049063510442 0 0,0 -0.5276035738422516,-0.6819987408685899 l 23.161350142698794 -17.601377927832942" fill="#b6ff1f" stroke="none" /><path d="M 83.28015986056508 112.70617746262583 l -6.860791724610886 5.213831978059026 a29.617105487570644,29.617105487570644 0 0,0 -0.3049697797519201,-0.4085568574268292 l 6.94952277105789 -5.0949622411228885" fill="#ff2d04" stroke="none" /><path d="M 83.06392112726016 112.41649034213515 l -15.759170761054497 11.553653772222695 a40.54068521225575,40.54068521225575 0 0,0 -0.40776247370322855,-0.5663464120599918 l 15.955713027133333 -11.280673754711565" fill="#ffcc13" stroke="none" /><path d="M 82.85270091963577 112.12312394758628 l -36.13414948598928 25.54680891178311 a65.25286662636648,65.25286662636648 0 0,0 -0.6405317491156884,-0.9227337577164286 l 36.568542142267106 -24.92103389187967" fill="#34ff5a" stroke="none" /><path d="M 82.6465618267979 111.8261652097733 l -6.543233913756499 4.459137405391596 a28.91819527735302,28.91819527735302 0 0,0 -0.2767841641844781,-0.41375477088724505 l 6.619021183351707 -4.34584572029853" fill="#ff2203" stroke="none" /><path d="M 82.44556493220864 111.52570212397912 l -22.586676630154933 14.829717151504985 a48.01996432249362,48.01996432249362 0 0,0 -0.44771787976914434,-0.6948680919118332 l 22.838599373301122 -14.438727459671703" fill="#d0ff1d" stroke="none" /><path d="M 82.24976979558568 111.22182372390057 l -21.0464242709509 13.305701417229951 a45.899671981721895,45.899671981721895 0 0,0 -0.4164528828647624,-0.6714546486626648 l 21.27234179348362 -12.941450437202022" fill="#ebff1a" stroke="none" /><path d="M 82.05923443525364 110.91462005526583 l -26.873168360555574 16.348824205863906 a52.455543718858316,52.455543718858316 0 0,0 -0.4626557082085738,-0.7754375788641872 l 27.15060494446238 -15.883824533113609" fill="#99ff23" stroke="none" /><line stroke="#e1ed5e" stroke-width="0.3" x1="26.63291911575756" x2="22.317208475507996" y1="142.92168965132927" y2="145.44649492493687" /><path d="M 25.769776987707644 143.4266507060508 a86.0,86.0 0 0,1 -11.730757126820373,-40.83630448921669" fill="none" id="id129" stroke="none" /><text fill="#e1ed5e" style="font-size:6.75px; font-family:Arial;" text-anchor="middle"><textPath startOffset="21.46611528233685" xlink:href="#id129">September</textPath></text><path d="M 81.87401531095188 110.60418214915194 l -7.200933314077198 4.2127371183596045 a29.34269708320946,29.34269708320946 0 0,0 -0.25129645228193737,-0.4381565463945633 l 7.272381762511513 -4.088160726106734" fill="#ff2904" stroke="none" /><path d="M 81.69416730710424 110.29060199501025 l -43.701740099828136 24.566881026463214 a71.13355893133186,71.13355893133186 0 0,0 -0.5908271789188118,-1.0725229470926452 l 44.11814368819846 -23.810987560972745" fill="#3cffa2" stroke="none" /><path d="M 81.35079622478065 109.6543875284942 l -10.195488233739304 5.278037370234285 a32.480664562903414,32.480664562903414 0 0,0 -0.2527634956712259,-0.4987263566383836 l 10.284830399196796 -5.101756801893217" fill="#ff5808" stroke="none" /><path d="M 81.18737489456691 109.33194174019688 l -25.038718725352272 12.420375310975773 a48.950011775897394,48.950011775897394 0 0,0 -0.3679333308331696,-0.7580516397691046 l 25.24880531280016 -11.987534715241384" fill="#c4ff1e" stroke="none" /><path d="M 81.02952815118164 109.00673069616217 l -15.31537213886574 7.27137592915808 a37.953864799952974,37.953864799952974 0 0,0 -0.2751210291229646,-0.5925862208150987 l 15.43826778482853 -7.006669641064155" fill="#ffa80f" stroke="none" /><path d="M 80.87730276802145 108.67885076344099 l -30.989118601632786 14.064435177292044 a55.03136507050978,55.03136507050978 0 0,0 -0.3840636747852784,-0.8659621967917956 l 31.226623361149347 -13.528924644007553" fill="#7bff26" stroke="none" /><path d="M 80.45479744820244 107.68017299344265 l -51.989891776675364 20.429123806573482 a76.8596271600046,76.8596271600046 0 0,0 -0.47325664095708053,-1.2355237519622715 l 52.333842697225954 -19.53117648777805" fill="#43ffe2" stroke="none" /><path d="M 80.32549172779594 107.34259656027581 l -9.2558548543149 3.4543179974526113 a30.879431254463473,30.879431254463473 0 0,0 -0.18156479018491656,-0.4995883236143869 l 9.313943905505042 -3.294481876832107" fill="#ff4006" stroke="none" /><path d="M 80.20201598880116 107.00284435728193 l -26.530817523663124 9.384348713715854 a49.14161117019654,49.14161117019654 0 0,0 -0.275214478849418,-0.799902100578338 l 26.68842283345577 -8.926273910048218" fill="#c2ff1e" stroke="none" /><path d="M 80.0844068197444 106.66101706037122 l -9.428666406304393 3.153534379844997 a30.9420586040436,30.9420586040436 0 0,0 -0.16459370074195265,-0.5065673230962601 l 9.481552358062595 -2.990768156770933" fill="#ff4106" stroke="none" /><path d="M 79.97269907076064 106.31721596034903 l -29.028007682738405 9.15631088175265 a51.437858975171395,51.437858975171395 0 0,0 -0.25908325519897085,-0.8466990684470627 l 29.181317710443505 -8.65528484075354" fill="#a6ff21" stroke="none" /><path d="M 79.86692584326677 105.97154293290107 l -10.150253749836235 3.010602135328457 a31.587321493338568,31.587321493338568 0 0,0 -0.15012606028957198,-0.5226085105568328 l 10.200572447011911 -2.835436149267028" fill="#ff4b07" stroke="none" /><path d="M 79.76711848015287 105.62410040840567 l -12.945137697123672 3.5983383848634833 a34.43594541256678,34.43594541256678 0 0,0 -0.15383344200678675,-0.5724714651523461 l 13.005159215472235 -3.374975986535598" fill="#ff750a" stroke="none" /><path d="M 79.67330655649465 105.27499134158121 l -60.98008033051604 15.824974024743632 a84.0,84.0 0 0,0 -0.3511547428197659,-1.4026886424104326 l 61.24344638763086 -14.772957542935808" fill="#4dd2ff" stroke="none" /><path d="M 79.58551787078972 104.9243191809786 l -9.293370928882132 2.2417186207022106 a30.559918702384167,30.559918702384167 0 0,0 -0.11895002190195833,-0.5124335811423311 l 9.330581516714645 -2.081416382211305" fill="#ff3b05" stroke="none" /><path d="M 79.50377843672027 104.57218783832718 l -29.49874171627637 6.580422040457849 a51.22379388948593,51.22379388948593 0 0,0 -0.18456655261090812,-0.8622334884289539 l 29.60764230761172 -6.071674732612731" fill="#a8ff21" stroke="none" /><path d="M 79.4281124754447 104.21870165774334 l -7.8231559635730274 1.6043039800269219 a28.9859602109401,28.9859602109401 0 0,0 -0.09602643783998896,-0.4896367377421642 l 7.8496123343886826 -1.4694035152168028" fill="#ff2303" stroke="none" /><path d="M 79.35854240842038 103.8639653848113 l -33.56300274702526 6.282806349767452 a55.14599257636983,55.14599257636983 0 0,0 -0.16662901998606447,-0.9345440347683532 l 33.66617820935051 -5.704143564265885" fill="#7aff26" stroke="none" /><path d="M 79.29508885075956 103.50808413554451 l -5.655693582861163 0.9582581055540531 a26.736299198967657,26.736299198967657 0 0,0 -0.07297513166459302,-0.45441621453563097 l 5.671350468887047 -0.8607626613252085" fill="#ff0000" stroke="none" /><line stroke="#e1ed5e" stroke-width="0.3" x1="15.007084014347285" x2="10.007500721073583" y1="101.09737516637583" y2="101.16192664675087" /><path d="M 14.007167355692545 101.11028546245083 a86.0,86.0 0 0,1 10.666146001902534,-42.60595125391555" fill="none" id="id130" stroke="none" /><text fill="#e1ed5e" style="font-size:6.75px; font-family:Arial;" text-anchor="middle"><textPath startOffset="22.20632615414155" xlink:href="#id130">October</textPath></text><line stroke="#e1ed5e" stroke-width="0.3" x1="26.266209847984243" x2="21.928928074336255" y1="57.711370442889674" y2="55.22380399835377" /><path d="M 25.398753493254645 57.213857153982495 a86.0,86.0 0 0,1 29.58750427330803,-30.492523968695096" fill="none" id="id131" stroke="none" /><text fill="#e1ed5e" style="font-size:6.75px; font-family:Arial;" text-anchor="middle"><textPath startOffset="21.46611528233685" xlink:href="#id131">November</textPath></text><line stroke="#e1ed5e" stroke-width="0.3" x1="56.762969772571076" x2="54.21961505331055" y1="26.818313649435495" y2="22.513508569990535" /><path d="M 56.25429882871897 25.957352633546506 a86.0,86.0 0 0,1 42.265352541879196,-11.944610805530505" fill="none" id="id132" stroke="none" /><text fill="#e1ed5e" style="font-size:6.75px; font-family:Arial;" text-anchor="middle"><textPath startOffset="22.20632615414155" xlink:href="#id132">December</textPath></text></svg>