<?xml version="1.0" encoding="utf-8" ?>
<svg baseProfile="full" height="300mm" version="1.1" viewBox="0,0,200,300" width="200mm" xmlns="http://www.w3.org/2000/svg" xmlns:ev="http://www.w3.org/2001/xml-events" xmlns:xlink="http://www.w3.org/1999/xlink"><defs /><rect fill="#222222" height="300" width="200" x="0" y="0" /><text fill="#555555" style="font-size:6px; font-family:Arial;" x="11" y="19">Running for 4804 Days</text><text fill="#555555" style="font-size:6px; font-family:Arial;" x="11" y="39">Races</text><text fill="#555555" style="font-size:8px; font-family:Arial;" x="11" y="59">1</text><text fill="#FFFFFF" style="font-size:10px; font-family:Arial; font-weight:bold;" x="23" y="59">Half</text><text fill="#555555" style="font-size:6px; font-family:Arial;" x="49" y="59">2x</text><text fill="#555555" style="font-size:8px; font-family:Arial;" x="11" y="77">2</text><text fill="#FFFFFF" style="font-size:10px; font-family:Arial; font-weight:bold;" x="23" y="77">10K</text><text fill="#555555" style="font-size:6px; font-family:Arial;" x="49" y="77">15x</text><text fill="#555555" style="font-size:6px; font-family:Arial;" x="11" y="115">Stats</text><text fill="#555555" style="font-size:5px; font-family:Arial;" x="11" y="121">Distance</text><text fill="#FFFFFF" style="font-size:10px; font-family:Arial; font-weight:bold;" x="11" y="132">788</text><text fill="#555555" style="font-size:6px; font-family:Arial;" x="29" y="132">km</text><text fill="#555555" style="font-size:5px; font-family:Arial;" x="53" y="121">Runs</text><text fill="#FFFFFF" style="font-size:10px; font-family:Arial; font-weight:bold;" x="53" y="132">151</text><text fill="#555555" style="font-size:5px; font-family:Arial;" x="11" y="149">Avg Pace</text><text fill="#FFFFFF" style="font-size:10px; font-family:Arial; font-weight:bold;" x="11" y="160">4'52"</text><text fill="#555555" style="font-size:5px; font-family:Arial;" x="53" y="149">Streak</text><text fill="#FFFFFF" style="font-size:10px; font-family:Arial; font-weight:bold;" x="53" y="160">14</text><text fill="#555555" style="font-size:6px; font-family:Arial;" x="65" y="160">d</text><text fill="#555555" style="font-size:5px; font-family:Arial;" x="11" y="177">Time</text><text fill="#FFFFFF" style="font-size:10px; font-family:Arial; font-weight:bold;" x="11" y="188">64</text><text fill="#555555" style="font-size:6px; font-family:Arial;" x="23" y="188">h</text><text fill="#555555" style="font-size:5px; font-family:Arial;" x="53" y="177">Longest</text><text fill="#FFFFFF" style="font-size:10px; font-family:Arial; font-weight:bold;" x="53" y="188">21.5</text><text fill="#555555" style="font-size:5px; font-family:Arial;" x="11" y="252.0645161290322">Runner</text><text fill="#FFFFFF" style="font-size:8px; font-family:Arial; font-weight:bold;" x="11" y="262.0645161290322">yihong0618</text><text fill="#555555" style="font-size:7px; font-family:Arial;" x="11" y="285.5806451612903">running_page/2013</text><circle cx="85.41666666666667" cy="17.419354838709676" fill="#555555" r="3.3125"><title>2013-01-01</title></circle><circle cx="85.41666666666667" cy="26.25806451612903" fill="#555555" r="3.3125"><title>2013-01-02</title></circle><circle cx="85.41666666666667" cy="35.096774193548384" fill="#5193a9" r="3.3125"><title>2013-01-03: 4 km</title></circle><circle cx="85.41666666666667" cy="43.935483870967744" fill="#4fb1d2" r="3.3125"><title>2013-01-04: 7 km</title></circle><circle cx="85.41666666666667" cy="52.774193548387096" fill="#5093aa" r="3.3125"><title>2013-01-05: 5 km</title></circle><circle cx="85.41666666666667" cy="61.61290322580645" fill="#5093aa" r="3.3125"><title>2013-01-06: 5 km</title></circle><circle cx="85.41666666666667" cy="70.45161290322581" fill="#5193a9" r="3.3125"><title>2013-01-07: 4 km</title></circle><circle cx="85.41666666666667" cy="79.29032258064517" fill="#5093aa" r="3.3125"><title>2013-01-08: 5 km</title></circle><circle cx="85.41666666666667" cy="88.12903225806451" fill="#FFFF00" r="3.3125"><title>2013-01-09: 14 km</title></circle><circle cx="85.41666666666667" cy="96.96774193548387" fill="#527581" r="3.3125"><title>2013-01-10: 2 km</title></circle><circle cx="85.41666666666667" cy="105.80645161290322" fill="#527e8d" r="3.3125"><title>2013-01-11: 3 km</title></circle><circle cx="85.41666666666667" cy="114.64516129032258" fill="#5096ad" r="3.3125"><title>2013-01-12: 5 km</title></circle><circle cx="85.41666666666667" cy="123.48387096774194" fill="#4faecf" r="3.3125"><title>2013-01-13: 7 km</title></circle><circle cx="85.41666666666667" cy="132.32258064516128" fill="#527a88" r="3.3125"><title>2013-01-14: 3 km</title></circle><circle cx="85.41666666666667" cy="141.16129032258064" fill="#536e77" r="3.3125"><title>2013-01-15: 2 km</title></circle><circle cx="85.41666666666667" cy="149.99999999999997" fill="#509fba" r="3.3125"><title>2013-01-16: 5 km</title></circle><circle cx="85.41666666666667" cy="158.83870967741933" fill="#555555" r="3.3125"><title>2013-01-17</title></circle><circle cx="85.41666666666667" cy="167.6774193548387" fill="#4ebce1" r="3.3125"><title>2013-01-18: 8 km</title></circle><circle cx="85.41666666666667" cy="176.51612903225805" fill="#555555" r="3.3125"><title>2013-01-19</title></circle><circle cx="85.41666666666667" cy="185.35483870967738" fill="#555555" r="3.3125"><title>2013-01-20</title></circle><circle cx="85.41666666666667" cy="194.19354838709674" fill="#5096ad" r="3.3125"><title>2013-01-21: 5 km</title></circle><circle cx="85.41666666666667" cy="203.0322580645161" fill="#FFFF00" r="3.3125"><title>2013-01-22: 10 km</title></circle><circle cx="85.41666666666667" cy="211.87096774193546" fill="#5093aa" r="3.3125"><title>2013-01-23: 5 km</title></circle><circle cx="85.41666666666667" cy="220.70967741935482" fill="#527d8c" r="3.3125"><title>2013-01-24: 3 km</title></circle><circle cx="85.41666666666667" cy="229.54838709677418" fill="#5096ad" r="3.3125"><title>2013-01-25: 5 km</title></circle><circle cx="85.41666666666667" cy="238.3870967741935" fill="#536f79" r="3.3125"><title>2013-01-26: 2 km</title></circle><circle cx="85.41666666666667" cy="247.22580645161287" fill="#FFFF00" r="3.3125"><title>2013-01-27: 10 km</title></circle><circle cx="85.41666666666667" cy="256.06451612903226" fill="#555555" r="3.3125"><title>2013-01-28</title></circle><circle cx="85.41666666666667" cy="264.90322580645164" fill="#5095ad" r="3.3125"><title>2013-01-29: 5 km</title></circle><circle cx="85.41666666666667" cy="273.741935483871" fill="#5094aa" r="3.3125"><title>2013-01-30: 5 km</title></circle><circle cx="85.41666666666667" cy="282.5806451612903" fill="#518da2" r="3.3125"><title>2013-01-31: 4 km</title></circle><circle cx="94.25" cy="17.419354838709676" fill="#527e8c" r="3.3125"><title>2013-02-01: 3 km</title></circle><circle cx="94.25" cy="26.25806451612903" fill="#555555" r="3.3125"><title>2013-02-02</title></circle><circle cx="94.25" cy="35.096774193548384" fill="#536e77" r="3.3125"><title>2013-02-03: 2 km</title></circle><circle cx="94.25" cy="43.935483870967744" fill="#50a2be" r="3.3125"><title>2013-02-04: 6 km</title></circle><circle cx="94.25" cy="52.774193548387096" fill="#518698" r="3.3125"><title>2013-02-05: 3 km</title></circle><circle cx="94.25" cy="61.61290322580645" fill="#536f79" r="3.3125"><title>2013-02-06: 2 km</title></circle><circle cx="94.25" cy="70.45161290322581" fill="#555555" r="3.3125"><title>2013-02-07</title></circle><circle cx="94.25" cy="79.29032258064517" fill="#5096ae" r="3.3125"><title>2013-02-08: 5 km</title></circle><circle cx="94.25" cy="88.12903225806451" fill="#FFFF00" r="3.3125"><title>2013-02-09: 10 km</title></circle><circle cx="94.25" cy="96.96774193548387" fill="#527987" r="3.3125"><title>2013-02-10: 2 km</title></circle><circle cx="94.25" cy="105.80645161290322" fill="#536e77" r="3.3125"><title>2013-02-11: 2 km</title></circle><circle cx="94.25" cy="114.64516129032258" fill="#5093aa" r="3.3125"><title>2013-02-12: 5 km</title></circle><circle cx="94.25" cy="123.48387096774194" fill="#555555" r="3.3125"><title>2013-02-13</title></circle><circle cx="94.25" cy="132.32258064516128" fill="#4eb9dd" r="3.3125"><title>2013-02-14: 8 km</title></circle><circle cx="94.25" cy="141.16129032258064" fill="#5096ad" r="3.3125"><title>2013-02-15: 5 km</title></circle><circle cx="94.25" cy="149.99999999999997" fill="#555555" r="3.3125"><title>2013-02-16</title></circle><circle cx="94.25" cy="158.83870967741933" fill="#536f78" r="3.3125"><title>2013-02-17: 2 km</title></circle><circle cx="94.25" cy="167.6774193548387" fill="#4ebbe0" r="3.3125"><title>2013-02-18: 8 km</title></circle><circle cx="94.25" cy="176.51612903225805" fill="#51899c" r="3.3125"><title>2013-02-19: 4 km</title></circle><circle cx="94.25" cy="185.35483870967738" fill="#555555" r="3.3125"><title>2013-02-20</title></circle><circle cx="94.25" cy="194.19354838709674" fill="#5095ac" r="3.3125"><title>2013-02-21: 5 km</title></circle><circle cx="94.25" cy="203.0322580645161" fill="#5093aa" r="3.3125"><title>2013-02-22: 5 km</title></circle><circle cx="94.25" cy="211.87096774193546" fill="#5096ad" r="3.3125"><title>2013-02-23: 5 km</title></circle><circle cx="94.25" cy="220.70967741935482" fill="#5093aa" r="3.3125"><title>2013-02-24: 5 km</title></circle><circle cx="94.25" cy="229.54838709677418" fill="#5093aa" r="3.3125"><title>2013-02-25: 5 km</title></circle><circle cx="94.25" cy="238.3870967741935" fill="#4eb3d5" r="3.3125"><title>2013-02-26: 7 km</title></circle><circle cx="94.25" cy="247.22580645161287" fill="#53747f" r="3.3125"><title>2013-02-27: 2 km</title></circle><circle cx="94.25" cy="256.06451612903226" fill="#5093aa" r="3.3125"><title>2013-02-28: 5 km</title></circle><circle cx="103.08333333333334" cy="17.419354838709676" fill="#555555" r="3.3125"><title>2013-03-01</title></circle><circle cx="103.08333333333334" cy="26.25806451612903" fill="#4fafd0" r="3.3125"><title>2013-03-02: 7 km</title></circle><circle cx="103.08333333333334" cy="35.096774193548384" fill="#527b88" r="3.3125"><title>2013-03-03: 3 km</title></circle><circle cx="103.08333333333334" cy="43.935483870967744" fill="#5093aa" r="3.3125"><title>2013-03-04: 5 km</title></circle><circle cx="103.08333333333334" cy="52.774193548387096" fill="#5193a9" r="3.3125"><title>2013-03-05: 4 km</title></circle><circle cx="103.08333333333334" cy="61.61290322580645" fill="#FFFF00" r="3.3125"><title>2013-03-06: 12 km</title></circle><circle cx="103.08333333333334" cy="70.45161290322581" fill="#536e77" r="3.3125"><title>2013-03-07: 2 km</title></circle><circle cx="103.08333333333334" cy="79.29032258064517" fill="#518799" r="3.3125"><title>2013-03-08: 4 km</title></circle><circle cx="103.08333333333334" cy="88.12903225806451" fill="#555555" r="3.3125"><title>2013-03-09</title></circle><circle cx="103.08333333333334" cy="96.96774193548387" fill="#4fa5c1" r="3.3125"><title>2013-03-10: 6 km</title></circle><circle cx="103.08333333333334" cy="105.80645161290322" fill="#5193aa" r="3.3125"><title>2013-03-11: 5 km</title></circle><circle cx="103.08333333333334" cy="114.64516129032258" fill="#5093aa" r="3.3125"><title>2013-03-12: 5 km</title></circle><circle cx="103.08333333333334" cy="123.48387096774194" fill="#555555" r="3.3125"><title>2013-03-13</title></circle><circle cx="103.08333333333334" cy="132.32258064516128" fill="#FFFF00" r="3.3125"><title>2013-03-14: 14 km</title></circle><circle cx="103.08333333333334" cy="141.16129032258064" fill="#555555" r="3.3125"><title>2013-03-15</title></circle><circle cx="103.08333333333334" cy="149.99999999999997" fill="#527c8b" r="3.3125"><title>2013-03-16: 3 km</title></circle><circle cx="103.08333333333334" cy="158.83870967741933" fill="#4fb0d1" r="3.3125"><title>2013-03-17: 7 km</title></circle><circle cx="103.08333333333334" cy="167.6774193548387" fill="#518698" r="3.3125"><title>2013-03-18: 3 km</title></circle><circle cx="103.08333333333334" cy="176.51612903225805" fill="#4fafd0" r="3.3125"><title>2013-03-19: 7 km</title></circle><circle cx="103.08333333333334" cy="185.35483870967738" fill="#555555" r="3.3125"><title>2013-03-20</title></circle><circle cx="103.08333333333334" cy="194.19354838709674" fill="#FFFF00" r="3.3125"><title>2013-03-21: 17 km</title></circle><circle cx="103.08333333333334" cy="203.0322580645161" fill="#527480" r="3.3125"><title>2013-03-22: 2 km</title></circle><circle cx="103.08333333333334" cy="211.87096774193546" fill="#555555" r="3.3125"><title>2013-03-23</title></circle><circle cx="103.08333333333334" cy="220.70967741935482" fill="#4fafcf" r="3.3125"><title>2013-03-24: 7 km</title></circle><circle cx="103.08333333333334" cy="229.54838709677418" fill="#53727c" r="3.3125"><title>2013-03-25: 2 km</title></circle><circle cx="103.08333333333334" cy="238.3870967741935" fill="#53707a" r="3.3125"><title>2013-03-26: 2 km</title></circle><circle cx="103.08333333333334" cy="247.22580645161287" fill="#FFFF00" r="3.3125"><title>2013-03-27: 10 km</title></circle><circle cx="103.08333333333334" cy="256.06451612903226" fill="#555555" r="3.3125"><title>2013-03-28</title></circle><circle cx="103.08333333333334" cy="264.90322580645164" fill="#53737e" r="3.3125"><title>2013-03-29: 2 km</title></circle><circle cx="103.08333333333334" cy="273.741935483871" fill="#555555" r="3.3125"><title>2013-03-30</title></circle><circle cx="103.08333333333334" cy="282.5806451612903" fill="#FFFF00" r="3.3125"><title>2013-03-31: 16 km</title></circle><circle cx="111.91666666666667" cy="17.419354838709676" fill="#555555" r="3.3125"><title>2013-04-01</title></circle><circle cx="111.91666666666667" cy="26.25806451612903" fill="#527580" r="3.3125"><title>2013-04-02: 2 km</title></circle><circle cx="111.91666666666667" cy="35.096774193548384" fill="#53727c" r="3.3125"><title>2013-04-03: 2 km</title></circle><circle cx="111.91666666666667" cy="43.935483870967744" fill="#53737e" r="3.3125"><title>2013-04-04: 2 km</title></circle><circle cx="111.91666666666667" cy="52.774193548387096" fill="#555555" r="3.3125"><title>2013-04-05</title></circle><circle cx="111.91666666666667" cy="61.61290322580645" fill="#527480" r="3.3125"><title>2013-04-06: 2 km</title></circle><circle cx="111.91666666666667" cy="70.45161290322581" fill="#FFFF00" r="3.3125"><title>2013-04-07: 10 km</title></circle><circle cx="111.91666666666667" cy="79.29032258064517" fill="#555555" r="3.3125"><title>2013-04-08</title></circle><circle cx="111.91666666666667" cy="88.12903225806451" fill="#FFFF00" r="3.3125"><title>2013-04-09: 21 km</title></circle><circle cx="111.91666666666667" cy="96.96774193548387" fill="#555555" r="3.3125"><title>2013-04-10</title></circle><circle cx="111.91666666666667" cy="105.80645161290322" fill="#555555" r="3.3125"><title>2013-04-11</title></circle><circle cx="111.91666666666667" cy="114.64516129032258" fill="#555555" r="3.3125"><title>2013-04-12</title></circle><circle cx="111.91666666666667" cy="123.48387096774194" fill="#555555" r="3.3125"><title>2013-04-13</title></circle><circle cx="111.91666666666667" cy="132.32258064516128" fill="#536e77" r="3.3125"><title>2013-04-14: 2 km</title></circle><circle cx="111.91666666666667" cy="141.16129032258064" fill="#5093aa" r="3.3125"><title>2013-04-15: 5 km</title></circle><circle cx="111.91666666666667" cy="149.99999999999997" fill="#53656b" r="3.3125"><title>2013-04-16: 1 km</title></circle><circle cx="111.91666666666667" cy="158.83870967741933" fill="#555555" r="3.3125"><title>2013-04-17</title></circle><circle cx="111.91666666666667" cy="167.6774193548387" fill="#555555" r="3.3125"><title>2013-04-18</title></circle><circle cx="111.91666666666667" cy="176.51612903225805" fill="#555555" r="3.3125"><title>2013-04-19</title></circle><circle cx="111.91666666666667" cy="185.35483870967738" fill="#555555" r="3.3125"><title>2013-04-20</title></circle><circle cx="111.91666666666667" cy="194.19354838709674" fill="#FFFF00" r="3.3125"><title>2013-04-21: 21 km</title></circle><circle cx="111.91666666666667" cy="203.0322580645161" fill="#555555" r="3.3125"><title>2013-04-22</title></circle><circle cx="111.91666666666667" cy="211.87096774193546" fill="#555555" r="3.3125"><title>2013-04-23</title></circle><circle cx="111.91666666666667" cy="220.70967741935482" fill="#555555" r="3.3125"><title>2013-04-24</title></circle><circle cx="111.91666666666667" cy="229.54838709677418" fill="#536e77" r="3.3125"><title>2013-04-25: 2 km</title></circle><circle cx="111.91666666666667" cy="238.3870967741935" fill="#527a88" r="3.3125"><title>2013-04-26: 3 km</title></circle><circle cx="111.91666666666667" cy="247.22580645161287" fill="#5093aa" r="3.3125"><title>2013-04-27: 5 km</title></circle><circle cx="111.91666666666667" cy="256.06451612903226" fill="#555555" r="3.3125"><title>2013-04-28</title></circle><circle cx="111.91666666666667" cy="264.90322580645164" fill="#555555" r="3.3125"><title>2013-04-29</title></circle><circle cx="111.91666666666667" cy="273.741935483871" fill="#5097af" r="3.3125"><title>2013-04-30: 5 km</title></circle><circle cx="120.75000000000001" cy="17.419354838709676" fill="#50a0bb" r="3.3125"><title>2013-05-01: 6 km</title></circle><circle cx="120.75000000000001" cy="26.25806451612903" fill="#536e77" r="3.3125"><title>2013-05-02: 2 km</title></circle><circle cx="120.75000000000001" cy="35.096774193548384" fill="#555555" r="3.3125"><title>2013-05-03</title></circle><circle cx="120.75000000000001" cy="43.935483870967744" fill="#FFFF00" r="3.3125"><title>2013-05-04: 17 km</title></circle><circle cx="120.75000000000001" cy="52.774193548387096" fill="#555555" r="3.3125"><title>2013-05-05</title></circle><circle cx="120.75000000000001" cy="61.61290322580645" fill="#555555" r="3.3125"><title>2013-05-06</title></circle><circle cx="120.75000000000001" cy="70.45161290322581" fill="#527e8d" r="3.3125"><title>2013-05-07: 3 km</title></circle><circle cx="120.75000000000001" cy="79.29032258064517" fill="#555555" r="3.3125"><title>2013-05-08</title></circle><circle cx="120.75000000000001" cy="88.12903225806451" fill="#5093aa" r="3.3125"><title>2013-05-09: 5 km</title></circle><circle cx="120.75000000000001" cy="96.96774193548387" fill="#555555" r="3.3125"><title>2013-05-10</title></circle><circle cx="120.75000000000001" cy="105.80645161290322" fill="#4fa4c0" r="3.3125"><title>2013-05-11: 6 km</title></circle><circle cx="120.75000000000001" cy="114.64516129032258" fill="#555555" r="3.3125"><title>2013-05-12</title></circle><circle cx="120.75000000000001" cy="123.48387096774194" fill="#5096ae" r="3.3125"><title>2013-05-13: 5 km</title></circle><circle cx="120.75000000000001" cy="132.32258064516128" fill="#FFFF00" r="3.3125"><title>2013-05-14: 10 km</title></circle><circle cx="120.75000000000001" cy="141.16129032258064" fill="#536e78" r="3.3125"><title>2013-05-15: 2 km</title></circle><circle cx="120.75000000000001" cy="149.99999999999997" fill="#555555" r="3.3125"><title>2013-05-16</title></circle><circle cx="120.75000000000001" cy="158.83870967741933" fill="#555555" r="3.3125"><title>2013-05-17</title></circle><circle cx="120.75000000000001" cy="167.6774193548387" fill="#4ebce2" r="3.3125"><title>2013-05-18: 8 km</title></circle><circle cx="120.75000000000001" cy="176.51612903225805" fill="#555555" r="3.3125"><title>2013-05-19</title></circle><circle cx="120.75000000000001" cy="185.35483870967738" fill="#536e77" r="3.3125"><title>2013-05-20: 2 km</title></circle><circle cx="120.75000000000001" cy="194.19354838709674" fill="#536e77" r="3.3125"><title>2013-05-21: 2 km</title></circle><circle cx="120.75000000000001" cy="203.0322580645161" fill="#5093aa" r="3.3125"><title>2013-05-22: 5 km</title></circle><circle cx="120.75000000000001" cy="211.87096774193546" fill="#527a87" r="3.3125"><title>2013-05-23: 2 km</title></circle><circle cx="120.75000000000001" cy="220.70967741935482" fill="#5093aa" r="3.3125"><title>2013-05-24: 5 km</title></circle><circle cx="120.75000000000001" cy="229.54838709677418" fill="#555555" r="3.3125"><title>2013-05-25</title></circle><circle cx="120.75000000000001" cy="238.3870967741935" fill="#555555" r="3.3125"><title>2013-05-26</title></circle><circle cx="120.75000000000001" cy="247.22580645161287" fill="#4faece" r="3.3125"><title>2013-05-27: 7 km</title></circle><circle cx="120.75000000000001" cy="256.06451612903226" fill="#536e77" r="3.3125"><title>2013-05-28: 2 km</title></circle><circle cx="120.75000000000001" cy="264.90322580645164" fill="#555555" r="3.3125"><title>2013-05-29</title></circle><circle cx="120.75000000000001" cy="273.741935483871" fill="#4eb9dd" r="3.3125"><title>2013-05-30: 8 km</title></circle><circle cx="120.75000000000001" cy="282.5806451612903" fill="#555555" r="3.3125"><title>2013-05-31</title></circle><circle cx="129.58333333333334" cy="17.419354838709676" fill="#546369" r="3.3125"><title>2013-06-01: 1 km</title></circle><circle cx="129.58333333333334" cy="26.25806451612903" fill="#536f79" r="3.3125"><title>2013-06-02: 2 km</title></circle><circle cx="129.58333333333334" cy="35.096774193548384" fill="#4dd1fe" r="3.3125"><title>2013-06-03: 9 km</title></circle><circle cx="129.58333333333334" cy="43.935483870967744" fill="#50a0bb" r="3.3125"><title>2013-06-04: 6 km</title></circle><circle cx="129.58333333333334" cy="52.774193548387096" fill="#536f79" r="3.3125"><title>2013-06-05: 2 km</title></circle><circle cx="129.58333333333334" cy="61.61290322580645" fill="#4dcaf4" r="3.3125"><title>2013-06-06: 9 km</title></circle><circle cx="129.58333333333334" cy="70.45161290322581" fill="#555555" r="3.3125"><title>2013-06-07</title></circle><circle cx="129.58333333333334" cy="79.29032258064517" fill="#53727c" r="3.3125"><title>2013-06-08: 2 km</title></circle><circle cx="129.58333333333334" cy="88.12903225806451" fill="#518698" r="3.3125"><title>2013-06-09: 3 km</title></circle><circle cx="129.58333333333334" cy="96.96774193548387" fill="#555555" r="3.3125"><title>2013-06-10</title></circle><circle cx="129.58333333333334" cy="105.80645161290322" fill="#4dccf7" r="3.3125"><title>2013-06-11: 9 km</title></circle><circle cx="129.58333333333334" cy="114.64516129032258" fill="#555555" r="3.3125"><title>2013-06-12</title></circle><circle cx="129.58333333333334" cy="123.48387096774194" fill="#518799" r="3.3125"><title>2013-06-13: 4 km</title></circle><circle cx="129.58333333333334" cy="132.32258064516128" fill="#555555" r="3.3125"><title>2013-06-14</title></circle><circle cx="129.58333333333334" cy="141.16129032258064" fill="#555555" r="3.3125"><title>2013-06-15</title></circle><circle cx="129.58333333333334" cy="149.99999999999997" fill="#555555" r="3.3125"><title>2013-06-16</title></circle><circle cx="129.58333333333334" cy="158.83870967741933" fill="#555555" r="3.3125"><title>2013-06-17</title></circle><circle cx="129.58333333333334" cy="167.6774193548387" fill="#555555" r="3.3125"><title>2013-06-18</title></circle><circle cx="129.58333333333334" cy="176.51612903225805" fill="#555555" r="3.3125"><title>2013-06-19</title></circle><circle cx="129.58333333333334" cy="185.35483870967738" fill="#555555" r="3.3125"><title>2013-06-20</title></circle><circle cx="129.58333333333334" cy="194.19354838709674" fill="#51879a" r="3.3125"><title>2013-06-21: 4 km</title></circle><circle cx="129.58333333333334" cy="203.0322580645161" fill="#FFFF00" r="3.3125"><title>2013-06-22: 14 km</title></circle><circle cx="129.58333333333334" cy="211.87096774193546" fill="#555555" r="3.3125"><title>2013-06-23</title></circle><circle cx="129.58333333333334" cy="220.70967741935482" fill="#536e77" r="3.3125"><title>2013-06-24: 2 km</title></circle><circle cx="129.58333333333334" cy="229.54838709677418" fill="#555555" r="3.3125"><title>2013-06-25</title></circle><circle cx="129.58333333333334" cy="238.3870967741935" fill="#555555" r="3.3125"><title>2013-06-26</title></circle><circle cx="129.58333333333334" cy="247.22580645161287" fill="#555555" r="3.3125"><title>2013-06-27</title></circle><circle cx="129.58333333333334" cy="256.06451612903226" fill="#555555" r="3.3125"><title>2013-06-28</title></circle><circle cx="129.58333333333334" cy="264.90322580645164" fill="#5193a9" r="3.3125"><title>2013-06-29: 4 km</title></circle><circle cx="129.58333333333334" cy="273.741935483871" fill="#4fa8c5" r="3.3125"><title>2013-06-30: 6 km</title></circle><circle cx="138.41666666666666" cy="17.419354838709676" fill="#555555" r="3.3125"><title>2013-07-01</title></circle><circle cx="138.41666666666666" cy="26.25806451612903" fill="#555555" r="3.3125"><title>2013-07-02</title></circle><circle cx="138.41666666666666" cy="35.096774193548384" fill="#5094ab" r="3.3125"><title>2013-07-03: 5 km</title></circle><circle cx="138.41666666666666" cy="43.935483870967744" fill="#555555" r="3.3125"><title>2013-07-04</title></circle><circle cx="138.41666666666666" cy="52.774193548387096" fill="#555555" r="3.3125"><title>2013-07-05</title></circle><circle cx="138.41666666666666" cy="61.61290322580645" fill="#555555" r="3.3125"><title>2013-07-06</title></circle><circle cx="138.41666666666666" cy="70.45161290322581" fill="#53747f" r="3.3125"><title>2013-07-07: 2 km</title></circle><circle cx="138.41666666666666" cy="79.29032258064517" fill="#527a88" r="3.3125"><title>2013-07-08: 3 km</title></circle><circle cx="138.41666666666666" cy="88.12903225806451" fill="#555555" r="3.3125"><title>2013-07-09</title></circle><circle cx="138.41666666666666" cy="96.96774193548387" fill="#555555" r="3.3125"><title>2013-07-10</title></circle><circle cx="138.41666666666666" cy="105.80645161290322" fill="#555555" r="3.3125"><title>2013-07-11</title></circle><circle cx="138.41666666666666" cy="114.64516129032258" fill="#555555" r="3.3125"><title>2013-07-12</title></circle><circle cx="138.41666666666666" cy="123.48387096774194" fill="#555555" r="3.3125"><title>2013-07-13</title></circle><circle cx="138.41666666666666" cy="132.32258064516128" fill="#555555" r="3.3125"><title>2013-07-14</title></circle><circle cx="138.41666666666666" cy="141.16129032258064" fill="#555555" r="3.3125"><title>2013-07-15</title></circle><circle cx="138.41666666666666" cy="149.99999999999997" fill="#555555" r="3.3125"><title>2013-07-16</title></circle><circle cx="138.41666666666666" cy="158.83870967741933" fill="#555555" r="3.3125"><title>2013-07-17</title></circle><circle cx="138.41666666666666" cy="167.6774193548387" fill="#555555" r="3.3125"><title>2013-07-18</title></circle><circle cx="138.41666666666666" cy="176.51612903225805" fill="#555555" r="3.3125"><title>2013-07-19</title></circle><circle cx="138.41666666666666" cy="185.35483870967738" fill="#51889a" r="3.3125"><title>2013-07-20: 4 km</title></circle><circle cx="138.41666666666666" cy="194.19354838709674" fill="#555555" r="3.3125"><title>2013-07-21</title></circle><circle cx="138.41666666666666" cy="203.0322580645161" fill="#555555" r="3.3125"><title>2013-07-22</title></circle><circle cx="138.41666666666666" cy="211.87096774193546" fill="#555555" r="3.3125"><title>2013-07-23</title></circle><circle cx="138.41666666666666" cy="220.70967741935482" fill="#50a1bd" r="3.3125"><title>2013-07-24: 6 km</title></circle><circle cx="138.41666666666666" cy="229.54838709677418" fill="#555555" r="3.3125"><title>2013-07-25</title></circle><circle cx="138.41666666666666" cy="238.3870967741935" fill="#555555" r="3.3125"><title>2013-07-26</title></circle><circle cx="138.41666666666666" cy="247.22580645161287" fill="#555555" r="3.3125"><title>2013-07-27</title></circle><circle cx="138.41666666666666" cy="256.06451612903226" fill="#555555" r="3.3125"><title>2013-07-28</title></circle><circle cx="138.41666666666666" cy="264.90322580645164" fill="#555555" r="3.3125"><title>2013-07-29</title></circle><circle cx="138.41666666666666" cy="273.741935483871" fill="#555555" r="3.3125"><title>2013-07-30</title></circle><circle cx="138.41666666666666" cy="282.5806451612903" fill="#555555" r="3.3125"><title>2013-07-31</title></circle><circle cx="147.25" cy="17.419354838709676" fill="#555555" r="3.3125"><title>2013-08-01</title></circle><circle cx="147.25" cy="26.25806451612903" fill="#555555" r="3.3125"><title>2013-08-02</title></circle><circle cx="147.25" cy="35.096774193548384" fill="#555555" r="3.3125"><title>2013-08-03</title></circle><circle cx="147.25" cy="43.935483870967744" fill="#555555" r="3.3125"><title>2013-08-04</title></circle><circle cx="147.25" cy="52.774193548387096" fill="#53747f" r="3.3125"><title>2013-08-05: 2 km</title></circle><circle cx="147.25" cy="61.61290322580645" fill="#555555" r="3.3125"><title>2013-08-06</title></circle><circle cx="147.25" cy="70.45161290322581" fill="#555555" r="3.3125"><title>2013-08-07</title></circle><circle cx="147.25" cy="79.29032258064517" fill="#555555" r="3.3125"><title>2013-08-08</title></circle><circle cx="147.25" cy="88.12903225806451" fill="#555555" r="3.3125"><title>2013-08-09</title></circle><circle cx="147.25" cy="96.96774193548387" fill="#555555" r="3.3125"><title>2013-08-10</title></circle><circle cx="147.25" cy="105.80645161290322" fill="#555555" r="3.3125"><title>2013-08-11</title></circle><circle cx="147.25" cy="114.64516129032258" fill="#555555" r="3.3125"><title>2013-08-12</title></circle><circle cx="147.25" cy="123.48387096774194" fill="#555555" r="3.3125"><title>2013-08-13</title></circle><circle cx="147.25" cy="132.32258064516128" fill="#518799" r="3.3125"><title>2013-08-14: 4 km</title></circle><circle cx="147.25" cy="141.16129032258064" fill="#555555" r="3.3125"><title>2013-08-15</title></circle><circle cx="147.25" cy="149.99999999999997" fill="#555555" r="3.3125"><title>2013-08-16</title></circle><circle cx="147.25" cy="158.83870967741933" fill="#555555" r="3.3125"><title>2013-08-17</title></circle><circle cx="147.25" cy="167.6774193548387" fill="#555555" r="3.3125"><title>2013-08-18</title></circle><circle cx="147.25" cy="176.51612903225805" fill="#555555" r="3.3125"><title>2013-08-19</title></circle><circle cx="147.25" cy="185.35483870967738" fill="#555555" r="3.3125"><title>2013-08-20</title></circle><circle cx="147.25" cy="194.19354838709674" fill="#555555" r="3.3125"><title>2013-08-21</title></circle><circle cx="147.25" cy="203.0322580645161" fill="#555555" r="3.3125"><title>2013-08-22</title></circle><circle cx="147.25" cy="211.87096774193546" fill="#555555" r="3.3125"><title>2013-08-23</title></circle><circle cx="147.25" cy="220.70967741935482" fill="#555555" r="3.3125"><title>2013-08-24</title></circle><circle cx="147.25" cy="229.54838709677418" fill="#555555" r="3.3125"><title>2013-08-25</title></circle><circle cx="147.25" cy="238.3870967741935" fill="#518698" r="3.3125"><title>2013-08-26: 3 km</title></circle><circle cx="147.25" cy="247.22580645161287" fill="#555555" r="3.3125"><title>2013-08-27</title></circle><circle cx="147.25" cy="256.06451612903226" fill="#555555" r="3.3125"><title>2013-08-28</title></circle><circle cx="147.25" cy="264.90322580645164" fill="#555555" r="3.3125"><title>2013-08-29</title></circle><circle cx="147.25" cy="273.741935483871" fill="#555555" r="3.3125"><title>2013-08-30</title></circle><circle cx="147.25" cy="282.5806451612903" fill="#555555" r="3.3125"><title>2013-08-31</title></circle><circle cx="156.08333333333334" cy="17.419354838709676" fill="#555555" r="3.3125"><title>2013-09-01</title></circle><circle cx="156.08333333333334" cy="26.25806451612903" fill="#555555" r="3.3125"><title>2013-09-02</title></circle><circle cx="156.08333333333334" cy="35.096774193548384" fill="#555555" r="3.3125"><title>2013-09-03</title></circle><circle cx="156.08333333333334" cy="43.935483870967744" fill="#555555" r="3.3125"><title>2013-09-04</title></circle><circle cx="156.08333333333334" cy="52.774193548387096" fill="#555555" r="3.3125"><title>2013-09-05</title></circle><circle cx="156.08333333333334" cy="61.61290322580645" fill="#555555" r="3.3125"><title>2013-09-06</title></circle><circle cx="156.08333333333334" cy="70.45161290322581" fill="#555555" r="3.3125"><title>2013-09-07</title></circle><circle cx="156.08333333333334" cy="79.29032258064517" fill="#555555" r="3.3125"><title>2013-09-08</title></circle><circle cx="156.08333333333334" cy="88.12903225806451" fill="#555555" r="3.3125"><title>2013-09-09</title></circle><circle cx="156.08333333333334" cy="96.96774193548387" fill="#555555" r="3.3125"><title>2013-09-10</title></circle><circle cx="156.08333333333334" cy="105.80645161290322" fill="#527a88" r="3.3125"><title>2013-09-11: 3 km</title></circle><circle cx="156.08333333333334" cy="114.64516129032258" fill="#555555" r="3.3125"><title>2013-09-12</title></circle><circle cx="156.08333333333334" cy="123.48387096774194" fill="#555555" r="3.3125"><title>2013-09-13</title></circle><circle cx="156.08333333333334" cy="132.32258064516128" fill="#518799" r="3.3125"><title>2013-09-14: 4 km</title></circle><circle cx="156.08333333333334" cy="141.16129032258064" fill="#555555" r="3.3125"><title>2013-09-15</title></circle><circle cx="156.08333333333334" cy="149.99999999999997" fill="#555555" r="3.3125"><title>2013-09-16</title></circle><circle cx="156.08333333333334" cy="158.83870967741933" fill="#555555" r="3.3125"><title>2013-09-17</title></circle><circle cx="156.08333333333334" cy="167.6774193548387" fill="#5193a9" r="3.3125"><title>2013-09-18: 4 km</title></circle><circle cx="156.08333333333334" cy="176.51612903225805" fill="#555555" r="3.3125"><title>2013-09-19</title></circle><circle cx="156.08333333333334" cy="185.35483870967738" fill="#555555" r="3.3125"><title>2013-09-20</title></circle><circle cx="156.08333333333334" cy="194.19354838709674" fill="#555555" r="3.3125"><title>2013-09-21</title></circle><circle cx="156.08333333333334" cy="203.0322580645161" fill="#555555" r="3.3125"><title>2013-09-22</title></circle><circle cx="156.08333333333334" cy="211.87096774193546" fill="#555555" r="3.3125"><title>2013-09-23</title></circle><circle cx="156.08333333333334" cy="220.70967741935482" fill="#555555" r="3.3125"><title>2013-09-24</title></circle><circle cx="156.08333333333334" cy="229.54838709677418" fill="#555555" r="3.3125"><title>2013-09-25</title></circle><circle cx="156.08333333333334" cy="238.3870967741935" fill="#555555" r="3.3125"><title>2013-09-26</title></circle><circle cx="156.08333333333334" cy="247.22580645161287" fill="#555555" r="3.3125"><title>2013-09-27</title></circle><circle cx="156.08333333333334" cy="256.06451612903226" fill="#555555" r="3.3125"><title>2013-09-28</title></circle><circle cx="156.08333333333334" cy="264.90322580645164" fill="#555555" r="3.3125"><title>2013-09-29</title></circle><circle cx="156.08333333333334" cy="273.741935483871" fill="#555555" r="3.3125"><title>2013-09-30</title></circle><circle cx="164.91666666666666" cy="17.419354838709676" fill="#555555" r="3.3125"><title>2013-10-01</title></circle><circle cx="164.91666666666666" cy="26.25806451612903" fill="#555555" r="3.3125"><title>2013-10-02</title></circle><circle cx="164.91666666666666" cy="35.096774193548384" fill="#555555" r="3.3125"><title>2013-10-03</title></circle><circle cx="164.91666666666666" cy="43.935483870967744" fill="#555555" r="3.3125"><title>2013-10-04</title></circle><circle cx="164.91666666666666" cy="52.774193548387096" fill="#555555" r="3.3125"><title>2013-10-05</title></circle><circle cx="164.91666666666666" cy="61.61290322580645" fill="#555555" r="3.3125"><title>2013-10-06</title></circle><circle cx="164.91666666666666" cy="70.45161290322581" fill="#555555" r="3.3125"><title>2013-10-07</title></circle><circle cx="164.91666666666666" cy="79.29032258064517" fill="#555555" r="3.3125"><title>2013-10-08</title></circle><circle cx="164.91666666666666" cy="88.12903225806451" fill="#555555" r="3.3125"><title>2013-10-09</title></circle><circle cx="164.91666666666666" cy="96.96774193548387" fill="#555555" r="3.3125"><title>2013-10-10</title></circle><circle cx="164.91666666666666" cy="105.80645161290322" fill="#555555" r="3.3125"><title>2013-10-11</title></circle><circle cx="164.91666666666666" cy="114.64516129032258" fill="#555555" r="3.3125"><title>2013-10-12</title></circle><circle cx="164.91666666666666" cy="123.48387096774194" fill="#555555" r="3.3125"><title>2013-10-13</title></circle><circle cx="164.91666666666666" cy="132.32258064516128" fill="#555555" r="3.3125"><title>2013-10-14</title></circle><circle cx="164.91666666666666" cy="141.16129032258064" fill="#555555" r="3.3125"><title>2013-10-15</title></circle><circle cx="164.91666666666666" cy="149.99999999999997" fill="#555555" r="3.3125"><title>2013-10-16</title></circle><circle cx="164.91666666666666" cy="158.83870967741933" fill="#555555" r="3.3125"><title>2013-10-17</title></circle><circle cx="164.91666666666666" cy="167.6774193548387" fill="#555555" r="3.3125"><title>2013-10-18</title></circle><circle cx="164.91666666666666" cy="176.51612903225805" fill="#555555" r="3.3125"><title>2013-10-19</title></circle><circle cx="164.91666666666666" cy="185.35483870967738" fill="#555555" r="3.3125"><title>2013-10-20</title></circle><circle cx="164.91666666666666" cy="194.19354838709674" fill="#555555" r="3.3125"><title>2013-10-21</title></circle><circle cx="164.91666666666666" cy="203.0322580645161" fill="#555555" r="3.3125"><title>2013-10-22</title></circle><circle cx="164.91666666666666" cy="211.87096774193546" fill="#555555" r="3.3125"><title>2013-10-23</title></circle><circle cx="164.91666666666666" cy="220.70967741935482" fill="#555555" r="3.3125"><title>2013-10-24</title></circle><circle cx="164.91666666666666" cy="229.54838709677418" fill="#518799" r="3.3125"><title>2013-10-25: 4 km</title></circle><circle cx="164.91666666666666" cy="238.3870967741935" fill="#555555" r="3.3125"><title>2013-10-26</title></circle><circle cx="164.91666666666666" cy="247.22580645161287" fill="#555555" r="3.3125"><title>2013-10-27</title></circle><circle cx="164.91666666666666" cy="256.06451612903226" fill="#555555" r="3.3125"><title>2013-10-28</title></circle><circle cx="164.91666666666666" cy="264.90322580645164" fill="#555555" r="3.3125"><title>2013-10-29</title></circle><circle cx="164.91666666666666" cy="273.741935483871" fill="#4eb9dd" r="3.3125"><title>2013-10-30: 8 km</title></circle><circle cx="164.91666666666666" cy="282.5806451612903" fill="#5093aa" r="3.3125"><title>2013-10-31: 5 km</title></circle><circle cx="173.75" cy="17.419354838709676" fill="#555555" r="3.3125"><title>2013-11-01</title></circle><circle cx="173.75" cy="26.25806451612903" fill="#555555" r="3.3125"><title>2013-11-02</title></circle><circle cx="173.75" cy="35.096774193548384" fill="#555555" r="3.3125"><title>2013-11-03</title></circle><circle cx="173.75" cy="43.935483870967744" fill="#FFFF00" r="3.3125"><title>2013-11-04: 10 km</title></circle><circle cx="173.75" cy="52.774193548387096" fill="#546166" r="3.3125"><title>2013-11-05: 1 km</title></circle><circle cx="173.75" cy="61.61290322580645" fill="#555555" r="3.3125"><title>2013-11-06</title></circle><circle cx="173.75" cy="70.45161290322581" fill="#555555" r="3.3125"><title>2013-11-07</title></circle><circle cx="173.75" cy="79.29032258064517" fill="#527a88" r="3.3125"><title>2013-11-08: 3 km</title></circle><circle cx="173.75" cy="88.12903225806451" fill="#555555" r="3.3125"><title>2013-11-09</title></circle><circle cx="173.75" cy="96.96774193548387" fill="#555555" r="3.3125"><title>2013-11-10</title></circle><circle cx="173.75" cy="105.80645161290322" fill="#536e77" r="3.3125"><title>2013-11-11: 2 km</title></circle><circle cx="173.75" cy="114.64516129032258" fill="#555555" r="3.3125"><title>2013-11-12</title></circle><circle cx="173.75" cy="123.48387096774194" fill="#FFFF00" r="3.3125"><title>2013-11-13: 12 km</title></circle><circle cx="173.75" cy="132.32258064516128" fill="#555555" r="3.3125"><title>2013-11-14</title></circle><circle cx="173.75" cy="141.16129032258064" fill="#546166" r="3.3125"><title>2013-11-15: 1 km</title></circle><circle cx="173.75" cy="149.99999999999997" fill="#555555" r="3.3125"><title>2013-11-16</title></circle><circle cx="173.75" cy="158.83870967741933" fill="#555555" r="3.3125"><title>2013-11-17</title></circle><circle cx="173.75" cy="167.6774193548387" fill="#5093aa" r="3.3125"><title>2013-11-18: 5 km</title></circle><circle cx="173.75" cy="176.51612903225805" fill="#555555" r="3.3125"><title>2013-11-19</title></circle><circle cx="173.75" cy="185.35483870967738" fill="#555555" r="3.3125"><title>2013-11-20</title></circle><circle cx="173.75" cy="194.19354838709674" fill="#555555" r="3.3125"><title>2013-11-21</title></circle><circle cx="173.75" cy="203.0322580645161" fill="#555555" r="3.3125"><title>2013-11-22</title></circle><circle cx="173.75" cy="211.87096774193546" fill="#555555" r="3.3125"><title>2013-11-23</title></circle><circle cx="173.75" cy="220.70967741935482" fill="#555555" r="3.3125"><title>2013-11-24</title></circle><circle cx="173.75" cy="229.54838709677418" fill="#555555" r="3.3125"><title>2013-11-25</title></circle><circle cx="173.75" cy="238.3870967741935" fill="#5093aa" r="3.3125"><title>2013-11-26: 5 km</title></circle><circle cx="173.75" cy="247.22580645161287" fill="#555555" r="3.3125"><title>2013-11-27</title></circle><circle cx="173.75" cy="256.06451612903226" fill="#555555" r="3.3125"><title>2013-11-28</title></circle><circle cx="173.75" cy="264.90322580645164" fill="#555555" r="3.3125"><title>2013-11-29</title></circle><circle cx="173.75" cy="273.741935483871" fill="#555555" r="3.3125"><title>2013-11-30</title></circle><circle cx="182.58333333333334" cy="17.419354838709676" fill="#555555" r="3.3125"><title>2013-12-01</title></circle><circle cx="182.58333333333334" cy="26.25806451612903" fill="#53737e" r="3.3125"><title>2013-12-02: 2 km</title></circle><circle cx="182.58333333333334" cy="35.096774193548384" fill="#555555" r="3.3125"><title>2013-12-03</title></circle><circle cx="182.58333333333334" cy="43.935483870967744" fill="#5093aa" r="3.3125"><title>2013-12-04: 5 km</title></circle><circle cx="182.58333333333334" cy="52.774193548387096" fill="#5093aa" r="3.3125"><title>2013-12-05: 5 km</title></circle><circle cx="182.58333333333334" cy="61.61290322580645" fill="#555555" r="3.3125"><title>2013-12-06</title></circle><circle cx="182.58333333333334" cy="70.45161290322581" fill="#555555" r="3.3125"><title>2013-12-07</title></circle><circle cx="182.58333333333334" cy="79.29032258064517" fill="#555555" r="3.3125"><title>2013-12-08</title></circle><circle cx="182.58333333333334" cy="88.12903225806451" fill="#555555" r="3.3125"><title>2013-12-09</title></circle><circle cx="182.58333333333334" cy="96.96774193548387" fill="#555555" r="3.3125"><title>2013-12-10</title></circle><circle cx="182.58333333333334" cy="105.80645161290322" fill="#555555" r="3.3125"><title>2013-12-11</title></circle><circle cx="182.58333333333334" cy="114.64516129032258" fill="#555555" r="3.3125"><title>2013-12-12</title></circle><circle cx="182.58333333333334" cy="123.48387096774194" fill="#555555" r="3.3125"><title>2013-12-13</title></circle><circle cx="182.58333333333334" cy="132.32258064516128" fill="#555555" r="3.3125"><title>2013-12-14</title></circle><circle cx="182.58333333333334" cy="141.16129032258064" fill="#555555" r="3.3125"><title>2013-12-15</title></circle><circle cx="182.58333333333334" cy="149.99999999999997" fill="#555555" r="3.3125"><title>2013-12-16</title></circle><circle cx="182.58333333333334" cy="158.83870967741933" fill="#555555" r="3.3125"><title>2013-12-17</title></circle><circle cx="182.58333333333334" cy="167.6774193548387" fill="#555555" r="3.3125"><title>2013-12-18</title></circle><circle cx="182.58333333333334" cy="176.51612903225805" fill="#555555" r="3.3125"><title>2013-12-19</title></circle><circle cx="182.58333333333334" cy="185.35483870967738" fill="#555555" r="3.3125"><title>2013-12-20</title></circle><circle cx="182.58333333333334" cy="194.19354838709674" fill="#555555" r="3.3125"><title>2013-12-21</title></circle><circle cx="182.58333333333334" cy="203.0322580645161" fill="#555555" r="3.3125"><title>2013-12-22</title></circle><circle cx="182.58333333333334" cy="211.87096774193546" fill="#555555" r="3.3125"><title>2013-12-23</title></circle><circle cx="182.58333333333334" cy="220.70967741935482" fill="#555555" r="3.3125"><title>2013-12-24</title></circle><circle cx="182.58333333333334" cy="229.54838709677418" fill="#555555" r="3.3125"><title>2013-12-25</title></circle><circle cx="182.58333333333334" cy="238.3870967741935" fill="#527683" r="3.3125"><title>2013-12-26: 2 km</title></circle><circle cx="182.58333333333334" cy="247.22580645161287" fill="#555555" r="3.3125"><title>2013-12-27</title></circle><circle cx="182.58333333333334" cy="256.06451612903226" fill="#555555" r="3.3125"><title>2013-12-28</title></circle><circle cx="182.58333333333334" cy="264.90322580645164" fill="#555555" r="3.3125"><title>2013-12-29</title></circle><circle cx="182.58333333333334" cy="273.741935483871" fill="#527480" r="3.3125"><title>2013-12-30: 2 km</title></circle><circle cx="182.58333333333334" cy="282.5806451612903" fill="#555555" r="3.3125"><title>2013-12-31</title></circle></svg>