<?xml version="1.0" encoding="utf-8" ?>
<svg baseProfile="full" height="200mm" version="1.1" viewBox="0,0,200,200" width="200mm" xmlns="http://www.w3.org/2000/svg" xmlns:ev="http://www.w3.org/2001/xml-events" xmlns:xlink="http://www.w3.org/1999/xlink"><defs /><rect fill="#1a1a1a" height="200" width="200" x="0" y="0" /><text alignment-baseline="middle" fill="#e1ed5e" style="dominant-baseline: central; font-size:9.0px; font-family:Arial;" text-anchor="middle" x="100.0" y="100.0">2023</text><line stroke="#e1ed5e" stroke-width="0.3" x1="100.0" x2="100.0" y1="15.0" y2="10.0" /><path d="M 100.0 14.0 a86.0,86.0 0 0,1 42.46469731375804,11.215312516191453" fill="none" id="id1" stroke="none" /><text fill="#e1ed5e" style="font-size:6.75px; font-family:Arial;" text-anchor="middle"><textPath startOffset="22.20632615414155" xlink:href="#id1">January</textPath></text><line stroke="#e1ed5e" stroke-width="0.3" x1="143.23703022742887" x2="145.7803849466894" y1="26.81831364943548" y2="22.513508569990506" /><path d="M 143.74570117128098 25.957352633546492 a86.0,86.0 0 0,1 28.547481713284135,27.462654790039103" fill="none" id="id2" stroke="none" /><text fill="#e1ed5e" style="font-size:6.75px; font-family:Arial;" text-anchor="middle"><textPath startOffset="19.985693538727396" xlink:href="#id2">February</textPath></text><path d="M 117.2510076193507 88.02491185347247 l 15.983203200418648 -11.095019572896012 a40.4566760745205,40.4566760745205 0 0,0 0.3921899737684515,0.5754903928042675 l -16.17181763985583 10.818251156821338" fill="#ff960d" stroke="none" /><line stroke="#e1ed5e" stroke-width="0.3" x1="172.23445277983987" x2="176.4835382374775" y1="55.19839476539836" y2="52.563006222186495" /><path d="M 173.08426987136738 54.67131705675599 a86.0,86.0 0 0,1 12.851231095245387,41.99856678651699" fill="none" id="id3" stroke="none" /><text fill="#e1ed5e" style="font-size:6.75px; font-family:Arial;" text-anchor="middle"><textPath startOffset="22.20632615414155" xlink:href="#id3">March</textPath></text><path d="M 120.08093135843002 93.85539295169968 l 16.375293585671002 -5.010711036680108 a38.12476175337998,38.12476175337998 0 0,0 0.1866190801080371,0.6291867648100639 l -16.45911856289074 4.728094885123515" fill="#ff710a" stroke="none" /><path d="M 120.91429891909075 98.10471618934814 l 10.262624889371404 -0.930013809349537 a31.30467832130272,31.30467832130272 0 0,0 0.04401365649053026,0.53707809168824 l -10.277113029681429 0.7532218004535284" fill="#ff0000" stroke="none" /><line stroke="#e1ed5e" stroke-width="0.3" x1="184.98032266829074" x2="189.97916517819016" y1="98.17113171792111" y2="98.06355123074" /><path d="M 185.9800911702706 98.14961562048488 a86.0,86.0 0 0,1 -9.607161424134198,41.387399972396054" fill="none" id="id4" stroke="none" /><text fill="#e1ed5e" style="font-size:6.75px; font-family:Arial;" text-anchor="middle"><textPath startOffset="21.466115282336823" xlink:href="#id4">April</textPath></text><path d="M 120.99980553446 99.90962569577887 l 17.059242092753315 -0.07341578150057096 a38.05940006729838,38.05940006729838 0 0,0 -0.002819481516408823,0.6551482090277336 l -17.057978313947405 -0.22024190573084743" fill="#ff700a" stroke="none" /><path d="M 120.9904718944345 100.63252640178507 l 17.083645361155426 0.5147981800508715 a38.0914000594425,38.0914000594425 0 0,0 -0.02539039797827366,0.6552133521220318 l -17.07225283032595 -0.8087887791869095" fill="#ff710a" stroke="none" /><path d="M 120.95626037817324 101.35467743843564 l 17.02522694681286 1.100563288148282 a38.06076176909175,38.06076176909175 0 0,0 -0.047890300276010246,0.6534250982454421 l -17.003760087872514 -1.3934615228904945" fill="#ff700a" stroke="none" /><path d="M 120.81339534386255 102.79330883721812 l 16.924006551570763 2.2713246099743167 a38.07574048881878,38.07574048881878 0 0,0 -0.09277054263600135,0.6488369591248887 l -16.88240195791816 -2.562307041079615" fill="#ff700a" stroke="none" /><path d="M 120.70491114924044 103.5080841355445 l 17.954824642084304 3.042130199418416 a39.210718933589945,39.210718933589945 0 0,0 -0.11847902927497211,0.6644933161302209 l -17.899799170470143 -3.350742266281855" fill="#ff820c" stroke="none" /><path d="M 120.32669344350535 105.2749913415812 l 16.573726862459385 4.301056929903126 a38.12271920068993,38.12271920068993 0 0,0 -0.17030312491899938,0.6337612821411176 l -16.49723566119861 -4.585709145219792" fill="#ff710a" stroke="none" /><path d="M 119.54520255179757 107.68017299344265 l 15.885829786684678 6.242243874566631 a38.06825112895527,38.06825112895527 0 0,0 -0.24490100987213928,0.6078242223170109 l -15.776026162555146 -6.514767464726455" fill="#ff700a" stroke="none" /><path d="M 119.26925614724726 108.34839909993367 l 18.772428812812688 8.133148815235543 a41.45854816899008,41.45854816899008 0 0,0 -0.289339040393498,0.6523831528114671 l -18.629648687687915 -8.455080304539699" fill="#ffa50f" stroke="none" /><line stroke="#e1ed5e" stroke-width="0.3" x1="174.80103733775053" x2="179.2010983576182" y1="140.37084112569926" y2="142.7455964860345" /><path d="M 175.68104954172406 140.8457921977663 a86.0,86.0 0 0,1 -30.038265399797805,32.042727171017184" fill="none" id="id5" stroke="none" /><text fill="#e1ed5e" style="font-size:6.75px; font-family:Arial;" text-anchor="middle"><textPath startOffset="22.206326154141568" xlink:href="#id5">May</textPath></text><path d="M 118.48025628344425 109.97397251340804 l 15.005889523609682 8.098823271287793 a38.05191070743486,38.05191070743486 0 0,0 -0.3160548044200636,0.5737312743461005 l -14.864258309738108 -8.355925064031698" fill="#ff700a" stroke="none" /><path d="M 118.12598468904814 110.60418214915192 l 23.621439536829133 13.819169097337962 a48.36680179218783,48.36680179218783 0 0,0 -0.42659317491554494,0.7149946987520294 l -23.38006548621536 -14.223725889976095" fill="#f3ff19" stroke="none" /><path d="M 117.55443506779139 111.5257021239791 l 12.27664757594868 8.060469191689975 a35.68629426690851,35.68629426690851 0 0,0 -0.34156353938322853,0.5105911474283311 l -12.13608093115473 -8.270597253324114" fill="#ff4a06" stroke="none" /><path d="M 116.71984013943494 112.70617746262583 l 11.965371940688424 9.093037853043066 a36.02842184249191,36.02842184249191 0 0,0 -0.3794876808548023,0.49053898295900894 l -11.807077442615553 -9.297654830115327" fill="#ff4f07" stroke="none" /><path d="M 116.27256486870786 113.27417163493432 l 22.071066192574303 18.004237387900595 a49.483056837300204,49.483056837300204 0 0,0 -0.5440874172013221,0.6553883439473582 l -21.757882775479437 -18.381486988961722" fill="#e3ff1b" stroke="none" /><path d="M 115.07121518719521 114.62390073753431 l 20.85134939156771 20.232480258460214 a50.053950314169214,50.053950314169214 0 0,0 -0.6053176159660806,0.6131835491495012 l -20.49999115054609 -20.58840430159038" fill="#dbff1b" stroke="none" /><path d="M 114.0293411484842 115.62618273729858 l 11.389945951909095 12.686367444398174 a38.04918730384813,38.04918730384813 0 0,0 -0.4911201516379814,0.4333564322596244 l -11.169883447364526 -12.880547018430088" fill="#ff700a" stroke="none" /><path d="M 113.48314897796784 116.09983520530334 l 16.51637531745015 19.72172236874333 a46.724249003939214,46.724249003939214 0 0,0 -0.6210539818245427,0.5110851459017838 l -16.174451207080917 -20.00310263350229" fill="#fff417" stroke="none" /><path d="M 112.92097659922987 116.55440617244103 l 20.98502232621949 26.886093358197577 a55.10620439300812,55.10620439300812 0 0,0 -0.7527803296247457,0.57719985655626 l -20.51911326810125 -27.243332556581212" fill="#98ff23" stroke="none" /><path d="M 111.7513745106137 117.40417183066458 l 9.541875637032119 14.131831389064143 a38.051570281986514,38.051570281986514 0 0,0 -0.5459952799350959,0.36185589932835643 l -9.297205658357058 -14.293985309483817" fill="#ff700a" stroke="none" /><line stroke="#e1ed5e" stroke-width="0.3" x1="143.8653032363475" x2="146.44561519142675" y1="172.8068346515853" y2="177.08958963109032" /><path d="M 144.38136562736335 173.6633856474863 a86.0,86.0 0 0,1 -40.68145358897372,12.25698825130547" fill="none" id="id6" stroke="none" /><text fill="#e1ed5e" style="font-size:6.75px; font-family:Arial;" text-anchor="middle"><textPath startOffset="21.466115282336833" xlink:href="#id6">June</textPath></text><path d="M 108.59647513512805 119.15986991738527 l 6.343029992565981 14.13737928968339 a36.495145132168346,36.495145132168346 0 0,0 -0.5753708585059837,0.2522256757781412 l -6.098738459402243 -14.244469518755984" fill="#ff5708" stroke="none" /><path d="M 107.59598834532513 119.57807347666477 l 4.934081917327805 12.717215183298448 a34.64084771505121,34.64084771505121 0 0,0 -0.5577667709793906,0.21089966657900067 l -4.714444925588139 -12.800263099984079" fill="#ff3805" stroke="none" /><path d="M 106.91757812671514 119.82793768551818 l 6.98525233323042 20.02191308053683 a42.20544160265173,42.20544160265173 0 0,0 -0.6880095283494304,0.23341018687512702 l -6.639573071943763 -20.13918625431008" fill="#ffb110" stroke="none" /><path d="M 106.2309692047433 120.05430185196036 l 6.458893568620091 20.787873763874405 a42.76816486876052,42.76816486876052 0 0,0 -0.704911055159215,0.21238391844591265 l -6.10010753902063 -20.895973051426044" fill="#ffb911" stroke="none" /><path d="M 105.53697534728816 120.25689768951611 l 6.844799390078484 25.041542042983966 a46.96016383964,46.96016383964 0 0,0 -0.7815726699567671,0.2064204457390379 l -6.41273627731022 -25.155653838026588" fill="#fff717" stroke="none" /><path d="M 104.83641907484287 120.43548508189849 l 4.295719108005665 18.150847225853397 a39.652250740089116,39.652250740089116 0 0,0 -0.6655533055763517,0.15147776549364902 l -3.982645653036451 -18.22210172492473" fill="#ff890c" stroke="none" /><path d="M 104.13013068566511 120.58985236759428 l 3.354652842183512 16.723879223682697 a38.057017089159984,38.057017089159984 0 0,0 -0.6434035028309467,0.12330981263079388 l -3.066281724780861 -16.77914623466196" fill="#ff700a" stroke="none" /><path d="M 103.41894727170886 120.7198165907248 l 3.437430219769244 20.831828641052685 a42.11352673159948,42.11352673159948 0 0,0 -0.7162591145472074,0.11186494307959655 l -3.0783352416135195 -20.887911891479387" fill="#ffaf10" stroke="none" /><path d="M 102.34483914955558 120.86867818915974 l 1.1713264543857438 10.42461050501413 a31.490210190648938,31.490210190648938 0 0,0 -0.5391834814569252,0.05588857244125707 l -0.9917103763232159 -10.443228445911144" fill="#ff0300" stroke="none" /><path d="M 101.62511606390274 120.93702456842531 l 1.3272008443225969 17.098862845577163 a38.15029366200561,38.15029366200561 0 0,0 -0.655162694368513,0.045183855264950154 l -1.0326753891751534 -17.1191750453584" fill="#ff720a" stroke="none" /><line stroke="#e1ed5e" stroke-width="0.3" x1="102.19456741930631" x2="102.32365962044197" y1="184.97166512339345" y2="189.96999836594603" /><path d="M 102.22038585953345 185.97133177190398 a86.0,86.0 0 0,1 -42.740103519485714,-10.115201625700543" fill="none" id="id7" stroke="none" /><text fill="#e1ed5e" style="font-size:6.75px; font-family:Arial;" text-anchor="middle"><textPath startOffset="22.20632615414155" xlink:href="#id7">July</textPath></text><path d="M 100.54218724476979 120.99299961872073 l 0.6303653033207932 24.40717427405887 a45.41531315506545,45.41531315506545 0 0,0 -0.7816630890661168,0.01345703895149876 l -0.21014252436200853 -24.41440879028953" fill="#ffe115" stroke="none" /><path d="M 99.81925306533755 120.99922214144158 l -0.14700307570782886 17.078852529526156 a38.07948516875054,38.07948516875054 0 0,0 -0.6554029013390832,-0.011283355317164427 l 0.4409656669395799 -17.07379169692983" fill="#ff700a" stroke="none" /><path d="M 99.09653310690486 120.98055641714683 l -0.7652024020307623 17.769740417762176 a38.78620839950787,38.78620839950787 0 0,0 -0.6667754292011093,-0.0344646735093488 l 1.0709658996453606 -17.753935937490624" fill="#ff7c0b" stroke="none" /><path d="M 98.37488393609728 120.93702456842531 l -2.638147238954882 33.988313071298414 a55.0905448223844,55.0905448223844 0 0,0 -0.9448177503093349,-0.08152285108244778 l 3.222809307005759 -33.937865967937306" fill="#98ff23" stroke="none" /><path d="M 97.2962882734958 120.8252237178851 l -2.294587805767862 17.67396424959533 a38.82229349703209,38.82229349703209 0 0,0 -0.6619596821828861,-0.09174158016018269 l 2.5984760791375794 -17.63184810394254" fill="#ff7c0b" stroke="none" /><path d="M 96.58105272829116 120.7198165907248 l -2.774286243059101 16.812982932499203 a38.040336242191245,38.040336242191245 0 0,0 -0.6451478513431175,-0.11216722350739848 l 3.0632830658742685 -16.762737130470796" fill="#ff700a" stroke="none" /><path d="M 95.86986931433489 120.58985236759428 l -6.703213010808714 33.41738477189678 a55.083055462520875,55.083055462520875 0 0,0 -0.9280407311046927,-0.19447995837400708 l 7.277445203342793 -33.297048832796236" fill="#98ff23" stroke="none" /><path d="M 94.81253420990036 120.34920634021253 l -3.4970763831758243 13.718206883319437 a35.15693269473719,35.15693269473719 0 0,0 -0.5851278084878034,-0.15453757236552312 l 3.732694634475117 -13.655977961650333" fill="#ff4106" stroke="none" /><path d="M 94.11515582081647 120.15858648285463 l -4.882261097710453 16.724229150911462 a38.42229359523061,38.42229359523061 0 0,0 -0.6332817787006464,-0.19080260503286042 l 5.169417850851344 -16.63771117677288" fill="#ff760a" stroke="none" /><path d="M 92.40401165467489 119.57807347666478 l -6.852795778964974 17.662552018490775 a39.9453570511113,39.9453570511113 0 0,0 -0.6388954068310019,-0.2542296676765431 l 7.155812261837834 -17.541975506408164" fill="#ff8e0d" stroke="none" /><path d="M 91.40352486487194 119.15986991738527 l -8.114931180154722 18.086602166154254 a40.82365470783284,40.82365470783284 0 0,0 -0.6386608143458641,-0.29317785553135367 l 8.425059990268004 -17.944237240288825" fill="#ff9c0e" stroke="none" /><line stroke="#e1ed5e" stroke-width="0.3" x1="58.666819895761336" x2="56.23545636021788" y1="174.27360380694188" y2="178.64263932499728" /><path d="M 58.180547188652646 175.14741091055294 a86.0,86.0 0 0,1 -31.652253787137756,-30.449443065178592" fill="none" id="id8" stroke="none" /><text fill="#e1ed5e" style="font-size:6.75px; font-family:Arial;" text-anchor="middle"><textPath startOffset="22.20632615414155" xlink:href="#id8">August</textPath></text><path d="M 88.8546689885994 117.79835938074946 l -7.234187544340903 11.552520926495154 a34.63063495160095,34.63063495160095 0 0,0 -0.5025040322106034,-0.32072184851221147 l 7.43197337859843 -11.426284649159138" fill="#ff3805" stroke="none" /><path d="M 88.24862548938628 117.40417183066458 l -9.737898516916053 14.422147715989158 a38.40186806833011,38.40186806833011 0 0,0 -0.5446539057986758,-0.37461792282779216 l 9.984709307337619 -14.252389003796265" fill="#ff760a" stroke="none" /><path d="M 87.95078237400918 117.19931262002967 l -9.3700162405081 13.374962887849893 a37.33054918239884,37.33054918239884 0 0,0 -0.5231124028939551,-0.37322680996910595 l 9.598855971250941 -13.211691816036566" fill="#ff6409" stroke="none" /><path d="M 87.36589467227662 116.77436683061367 l -10.553763529252864 14.012286291042047 a38.54212335304688,38.54212335304688 0 0,0 -0.5265060920404494,-0.4037024200050957 l 10.7933983497868 -13.828544529209585" fill="#ff780b" stroke="none" /><path d="M 86.79598089348748 116.32954008644616 l -18.208752593597115 22.518943134115087 a49.95965246497856,49.95965246497856 0 0,0 -0.664058636690547,-0.5464750491144981 l 18.593681358832352 -22.202172966143408" fill="#dcff1b" stroke="none" /><path d="M 85.97065885151581 115.62618273729859 l -13.680125172701475 15.23721845204743 a41.47727156864887,41.47727156864887 0 0,0 -0.527157260407524,-0.4815456586042643 l 13.940381982575854 -14.999480026856588" fill="#ffa60f" stroke="none" /><path d="M 85.44109423537348 115.13401014063109 l -15.207341238384815 15.808060044796722 a42.93531376389629,42.93531376389629 0 0,0 -0.5282066836029916,-0.5169614126756359 l 15.477197874363602 -15.543948529198516" fill="#ffbc11" stroke="none" /><path d="M 84.9287848128048 114.62390073753433 l -24.451093749069607 23.725384016435445 a55.069778870035556,55.069778870035556 0 0,0 -0.6542642402420661,-0.6859934401798433 l 24.85586454069063 -23.300983459673102" fill="#98ff23" stroke="none" /><path d="M 84.19399662182784 113.82643327865904 l -10.091754346060117 8.827846280427238 a34.4079967083855,34.4079967083855 0 0,0 -0.38611915023785864,-0.4491438033211023 l 10.242216005868755 -8.652825377944605" fill="#ff3505" stroke="none" /><path d="M 83.72743513129214 113.27417163493432 l -36.1668998071932 29.50276366495613 a67.67395103838764,67.67395103838764 0 0,0 -0.7285651500121805,-0.9089970466531805 l 36.66938286926024 -28.87583878472469" fill="#35ff67" stroke="none" /><path d="M 83.28015986056508 112.70617746262583 l -32.507160962264464 24.70369049871996 a61.82876238735528,61.82876238735528 0 0,0 -0.6366558695453465,-0.8529045780712455 l 32.927578098504895 -24.14047304113941" fill="#45ff2d" stroke="none" /><path d="M 82.85270091963577 112.12312394758628 l -28.00094538872175 19.796641442254344 a55.29227252684429,55.29227252684429 0 0,0 -0.5427570904584643,-0.7818820695420667 l 28.337563386342346 -19.311718110525266" fill="#95ff23" stroke="none" /><path d="M 82.44556493220864 111.52570212397912 l -12.880115195119876 8.456687468904493 a36.40820983717071,36.40820983717071 0 0,0 -0.33945478186981093,-0.526841359763982 l 13.023774840366732 -8.233724509219064" fill="#ff5507" stroke="none" /><path d="M 82.24976979558568 111.22182372390057 l -16.76725228085559 10.600377981753592 a40.837055285649214,40.837055285649214 0 0,0 -0.3705191925595609,-0.5973949142852841 l 16.947236113083108 -10.310186736103045" fill="#ff9c0e" stroke="none" /><line stroke="#e1ed5e" stroke-width="0.3" x1="26.63291911575756" x2="22.317208475507996" y1="142.92168965132927" y2="145.44649492493687" /><path d="M 25.769776987707644 143.4266507060508 a86.0,86.0 0 0,1 -11.730757126820373,-40.83630448921669" fill="none" id="id9" stroke="none" /><text fill="#e1ed5e" style="font-size:6.75px; font-family:Arial;" text-anchor="middle"><textPath startOffset="21.46611528233685" xlink:href="#id9">September</textPath></text><path d="M 81.51974371655577 109.97397251340807 l -11.823390217124325 6.381197708093555 a34.435484375941556,34.435484375941556 0 0,0 -0.27703755777983097,-0.5240506549898676 l 11.931480283129043 -6.176732038017561" fill="#ff3505" stroke="none" /><path d="M 81.02952815118164 109.00673069616217 l -25.942401341478256 12.316837681030307 a49.71781116003065,49.71781116003065 0 0,0 -0.36039585017718123,-0.7762605989616584 l 26.150571808495265 -11.868457014789822" fill="#e0ff1b" stroke="none" /><path d="M 80.45479744820244 107.68017299344265 l -37.27583861325097 14.647322700633122 a61.050370867416625,61.050370867416625 0 0,0 -0.37591248505213104,-0.9813888781397807 l 37.52244537789661 -14.003510255660183" fill="#4eff2b" stroke="none" /><path d="M 80.20201598880116 107.00284435728193 l -16.396197281805325 5.7995812882171816 a38.391676987068244,38.391676987068244 0 0,0 -0.21501015376881308,-0.6249201508742088 l 16.493598266517363 -5.516488434253676" fill="#ff750a" stroke="none" /><path d="M 79.76711848015287 105.62410040840567 l -16.3052382197128 4.532339935895172 a37.923442282706354,37.923442282706354 0 0,0 -0.16941290820392163,-0.6304484545755679 l 16.380839204258496 -4.251000548144066" fill="#ff6e0a" stroke="none" /><path d="M 79.67330655649465 105.27499134158121 l -39.60289006517704 10.277367677926456 a61.91470625461933,61.91470625461933 0 0,0 -0.2588290803762167,-1.0338935150182464 l 39.77393045984832 -9.594146323510818" fill="#44ff2d" stroke="none" /><path d="M 79.4281124754447 104.21870165774334 l -26.88939331941222 5.5142401511243575 a48.44897662081999,48.44897662081999 0 0,0 -0.1605046928938484,-0.8184099711353083 l 26.980327945281736 -5.050566452921094" fill="#f2ff19" stroke="none" /><path d="M 79.23777060512086 103.15116336523772 l -46.60700649711188 7.07372453332584 a68.14075342413616,68.14075342413616 0 0,0 -0.1660231577804694,-1.1611655788330548 l 46.72186370590895 -6.270413482512384" fill="#36ff6d" stroke="none" /><path d="M 79.1416061653843 102.43462659150553 l -18.86320447915063 2.201744755136968 a39.99126544464643,39.99126544464643 0 0,0 -0.07392232783912797,-0.6844289472994258 l 18.89830910849081 -1.8767194859527605" fill="#ff8f0d" stroke="none" /><path d="M 79.07016306316243 101.71520430193888 l -34.29840619957426 2.8107612133191218 a55.41338469882457,55.41338469882457 0 0,0 -0.06972439618095279,-0.9513339895983628 l 34.341707154419545 -2.2199540872239982" fill="#94ff23" stroke="none" /><line stroke="#e1ed5e" stroke-width="0.3" x1="15.007084014347285" x2="10.007500721073583" y1="101.09737516637583" y2="101.16192664675087" /><path d="M 14.007167355692545 101.11028546245083 a86.0,86.0 0 0,1 10.666146001902534,-42.60595125391555" fill="none" id="id10" stroke="none" /><text fill="#e1ed5e" style="font-size:6.75px; font-family:Arial;" text-anchor="middle"><textPath startOffset="22.20632615414155" xlink:href="#id10">October</textPath></text><path d="M 79.00175016825051 100.2711162175752 l -53.88204082901391 0.6956910800588313 a74.88653180506606,74.88653180506606 0 0,0 -0.00554767526232667,-1.2890843551300184 l 53.88603280156574 0.23190275327486246" fill="#40ffc4" stroke="none" /><path d="M 79.00486145842228 99.54816195383935 l -18.939390922727252 -0.4075961381750773 a39.94377636945017,39.94377636945017 0 0,0 0.02071047817647419,-0.6872799441363058 l 18.929568750095132 0.7335462297363775" fill="#ff8e0d" stroke="none" /><path d="M 79.03285615573316 98.82574320788736 l -36.676445467570176 -2.054050161563587 a57.733918579452805,57.733918579452805 0 0,0 0.06411051715581756,-0.9917613244139158 l 36.63565435940994 2.685070550230515" fill="#76ff27" stroke="none" /><path d="M 79.08570108090925 98.10471618934814 l -54.885894195953654 -4.973838573560177 a76.11080158957274,76.11080158957274 0 0,0 0.12947126663853034,-1.3037579861652122 l 54.79214580363289 5.917872090429819" fill="#41ffd3" stroke="none" /><path d="M 79.16333360222342 97.38593545837743 l -17.785009878327337 -2.231218891151582 a38.92442228113455,38.92442228113455 0 0,0 0.08912580750663553,-0.6640907880504856 l 17.743968071762865 2.5370280212667273" fill="#ff7e0b" stroke="none" /><path d="M 79.26566170972629 96.67025291283419 l -27.474596568892103 -4.412171568515321 a48.82661881316867,48.82661881316867 0 0,0 0.14040707706613872,-0.8286905168332893 l 27.39457763030574 4.884447873664438" fill="#ecff1a" stroke="none" /><path d="M 79.3925641242962 95.95851677861259 l -27.04519986782984 -5.304042780682452 a48.56040104407359,48.56040104407359 0 0,0 0.1679281197367075,-0.818877150294028 l 26.949892452178137 5.768795587139882" fill="#f0ff19" stroke="none" /><path d="M 79.54389044137918 95.25157060432595 l -40.93698464081679 -9.502607555051497 a63.02542399343273,63.02542399343273 0 0,0 0.2544042240141976,-1.054669751058117 l 40.76734761654178 10.205862537769011" fill="#37ff2e" stroke="none" /><path d="M 79.91906864156998 93.8553929516997 l -24.62607738596114 -7.535385982694579 a46.75316930646666,46.75316930646666 0 0,0 0.2421024180254751,-0.7675308255924784 l 24.49271948416746 7.958166974713471" fill="#fff417" stroke="none" /><path d="M 80.14247586403 93.16781622104843 l -57.581836681987866 -19.811618399510948 a81.89472997952257,81.89472997952257 0 0,0 0.47010273318780826,-1.3290437314368126 l 57.23228086799025 20.79985975737437" fill="#4ae9ff" stroke="none" /><path d="M 80.38941819471856 92.48833698450439 l -22.74946863246156 -8.713986349074906 a45.361278315211955,45.361278315211955 0 0,0 0.28557397994679984,-0.7267546299215852 l 22.596101102633067 9.104289983892254" fill="#ffe015" stroke="none" /><path d="M 80.65960295795068 91.81776055985345 l -16.92863206051915 -7.161906790856239 a39.381281030476345,39.381281030476345 0 0,0 0.2694979020178885,-0.622038314527835 l 16.802843448658578 7.452244249970674" fill="#ff850c" stroke="none" /><path d="M 81.26839172434947 90.50648371742162 l -56.19482482695157 -28.480548847735136 a84.0,84.0 0 0,0 0.6647622673595439,-1.284109110958658 l 55.69625312643191 29.44363068095413" fill="#4dd2ff" stroke="none" /><line stroke="#e1ed5e" stroke-width="0.3" x1="26.266209847984243" x2="21.928928074336255" y1="57.711370442889674" y2="55.22380399835377" /><path d="M 25.398753493254645 57.213857153982495 a86.0,86.0 0 0,1 29.58750427330803,-30.492523968695096" fill="none" id="id11" stroke="none" /><text fill="#e1ed5e" style="font-size:6.75px; font-family:Arial;" text-anchor="middle"><textPath startOffset="21.46611528233685" xlink:href="#id11">November</textPath></text><path d="M 81.96595687620814 89.24020034530311 l -22.24603972292187 -13.272837870354351 a46.90471981100221,46.90471981100221 0 0,0 0.4196502780142293,-0.6897947174442887 l 22.014273646621426 13.653800361005713" fill="#fff617" stroke="none" /><path d="M 82.34701348167596 88.62581576622439 l -28.467961906238948 -18.342496503102115 a54.8654991556508,54.8654991556508 0 0,0 0.5183571254880145,-0.7894934645564875 l 28.148008145393014 18.82980803163627" fill="#9bff22" stroke="none" /><path d="M 85.05521093208273 85.24692304244772 l -12.659537011833946 -12.497140169312262 a38.78882766697771,38.78882766697771 0 0,0 0.47315757151234894,-0.47112568253129394 l 12.442543640154284 12.713201702493665" fill="#ff7c0b" stroke="none" /><line stroke="#e1ed5e" stroke-width="0.3" x1="56.762969772571076" x2="54.21961505331055" y1="26.818313649435495" y2="22.513508569990535" /><path d="M 56.25429882871897 25.957352633546506 a86.0,86.0 0 0,1 42.265352541879196,-11.944610805530505" fill="none" id="id12" stroke="none" /><text fill="#e1ed5e" style="font-size:6.75px; font-family:Arial;" text-anchor="middle"><textPath startOffset="22.20632615414155" xlink:href="#id12">December</textPath></text></svg>