<?xml version="1.0" encoding="utf-8" ?>
<svg baseProfile="full" height="200mm" version="1.1" viewBox="0,0,200,200" width="200mm" xmlns="http://www.w3.org/2000/svg" xmlns:ev="http://www.w3.org/2001/xml-events" xmlns:xlink="http://www.w3.org/1999/xlink"><defs /><rect fill="#1a1a1a" height="200" width="200" x="0" y="0" /><text alignment-baseline="middle" fill="#e1ed5e" style="dominant-baseline: central; font-size:9.0px; font-family:Arial;" text-anchor="middle" x="100.0" y="100.0">2024</text><line stroke="#e1ed5e" stroke-width="0.3" x1="100.0" x2="100.0" y1="15.0" y2="10.0" /><path d="M 100.0 14.0 a86.0,86.0 0 0,1 42.35913384403234,11.155469271406648" fill="none" id="id25" stroke="none" /><text fill="#e1ed5e" style="font-size:6.75px; font-family:Arial;" text-anchor="middle"><textPath startOffset="22.145653131862478" xlink:href="#id25">January</textPath></text><line stroke="#e1ed5e" stroke-width="0.3" x1="143.13028292997686" x2="145.6673583964461" y1="26.7553504044142" y2="22.446841604673864" /><path d="M 143.63769802327073 25.89364864446614 a86.0,86.0 0 0,1 29.32050498858742,28.57503671076993" fill="none" id="id26" stroke="none" /><text fill="#e1ed5e" style="font-size:6.75px; font-family:Arial;" text-anchor="middle"><textPath startOffset="20.669276256404974" xlink:href="#id26">February</textPath></text><line stroke="#e1ed5e" stroke-width="0.3" x1="172.87174338648825" x2="177.1583165268699" y1="56.24261187166439" y2="53.66864786411523" /><path d="M 173.72905801456457 55.72781907015455 a86.0,86.0 0 0,1 12.242430191666344,42.057860355516425" fill="none" id="id27" stroke="none" /><text fill="#e1ed5e" style="font-size:6.75px; font-family:Arial;" text-anchor="middle"><textPath startOffset="22.145653131862474" xlink:href="#id27">March</textPath></text><line stroke="#e1ed5e" stroke-width="0.3" x1="184.99686870605535" x2="189.99668451229388" y1="99.2704041080226" y2="99.22748670261217" /><path d="M 185.99683186730306 99.26182062694052 a86.0,86.0 0 0,1 -10.086455211305974,41.156179273409016" fill="none" id="id28" stroke="none" /><text fill="#e1ed5e" style="font-size:6.75px; font-family:Arial;" text-anchor="middle"><textPath startOffset="21.40746469413373" xlink:href="#id28">April</textPath></text><path d="M 120.51834098615036 104.47187691870673 l 12.465018238533647 2.716692708722512 a33.75762904934152,33.75762904934152 0 0,0 -0.12826153036680626,0.5651439686367306 l -12.416545846609177 -2.9302710112982595" fill="#ff0200" stroke="none" /><path d="M 120.43855184770803 104.8234425847677 l 24.5720905814718 5.798946470893514 a46.247087271927896,46.247087271927896 0 0,0 -0.18897985477242207,0.7711022970050688 l -24.46892320018308 -6.2199045925066825" fill="#ffd313" stroke="none" /><path d="M 120.35273937422433 105.17358676015961 l 24.531154042611114 6.235723429300072 a46.31129718819321,46.31129718819321 0 0,0 -0.2024697256883073,0.7688105270280539 l -24.420494836118078 -6.655914460700929" fill="#ffd413" stroke="none" /><path d="M 120.26092885502905 105.52220625578681 l 24.374335922281407 6.643333643475173 a46.263454505485726,46.263454505485726 0 0,0 -0.2154147782564511,0.764431053632248 l -24.256702651950377 -7.060772621010429" fill="#ffd313" stroke="none" /><path d="M 120.16314734710363 105.8691983318838 l 39.60904610255188 11.529616052029686 a62.25298267351466,62.25298267351466 0 0,0 -0.307481354935582,1.0235054276896591 l -39.40528842761266 -12.207859083310069" fill="#4cff2c" stroke="none" /><path d="M 119.83427380445688 106.89939002012753 l 12.133871374368676 4.220790329465895 a33.847019324926556,33.847019324926556 0 0,0 -0.19560326237106923,0.547137137691047 l -12.059627941953662 -4.428462423537863" fill="#ff0400" stroke="none" /><path d="M 119.31412917781788 108.2440532568976 l 48.645250710053915 20.763764902711994 a73.89134475109415,73.89134475109415 0 0,0 -0.5079717425838821,1.162338756502664 l -48.281645085453064 -21.595765728990504" fill="#3effb2" stroke="none" /><path d="M 119.16976305983485 108.57439118712176 l 52.991432792194 23.702393864134592 a79.05080037570696,79.05080037570696 0 0,0 -0.5647070534284673,1.2339868251382835 l -52.57674127391048 -24.608569671487565" fill="#45fff3" stroke="none" /><path d="M 119.0197475246899 108.90220220490707 l 42.049533946749435 19.681305092517036 a67.4275465137193,67.4275465137193 0 0,0 -0.4996726105908357,1.0441235782231064 l -41.705482078198685 -20.400241172805245" fill="#34ff59" stroke="none" /><path d="M 118.70294669586154 109.54985784667822 l 56.10884008758464 28.649573540034673 a84.0,84.0 0 0,0 -0.666767724100203,1.2786150275819885 l -55.608764294509484 -29.608534810721164" fill="#4dd2ff" stroke="none" /><line stroke="#e1ed5e" stroke-width="0.3" x1="174.33088141563837" x2="178.70328620479359" y1="141.23008692659167" y2="143.65538615756765" /><path d="M 175.20536237346943 141.71514677278685 a86.0,86.0 0 0,1 -30.301960400862466,31.631185727798858" fill="none" id="id29" stroke="none" /><text fill="#e1ed5e" style="font-size:6.75px; font-family:Arial;" text-anchor="middle"><textPath startOffset="22.145653131862474" xlink:href="#id29">May</textPath></text><path d="M 117.01052211995028 112.31430620078461 l 19.971445552967865 14.457786426385317 a45.655348827914224,45.655348827914224 0 0,0 -0.46502794807079495,0.6308997227613935 l -19.72031558531324 -14.798492458415588" fill="#ffca12" stroke="none" /><path d="M 116.79662413953412 112.60449989151573 l 32.4851994314773 24.377499270593294 a61.61466056475949,61.61466056475949 0 0,0 -0.6421069824087301,0.8405386518840776 l -32.061940471714266 -24.93155883571825" fill="#54ff2b" stroke="none" /><path d="M 116.1254893667686 113.45245675266167 l 11.27356650847671 9.404810139658338 a35.681408501368935,35.681408501368935 0 0,0 -0.3964126945282302,0.4669731573887127 l -11.110459250441366 -9.596950079496606" fill="#ff2403" stroke="none" /><path d="M 115.41159269507618 114.26474011684316 l 9.27578363271867 8.5855268510355 a33.63928136053878,33.63928136053878 0 0,0 -0.3958929593124632,0.4204246035430142 l -9.127034839669944 -8.743492914523012" fill="#ff0000" stroke="none" /><path d="M 114.91283532996324 114.78537596483092 l 13.557719075734692 13.441841831213422 a40.09174843621975,40.09174843621975 0 0,0 -0.48875293027567157,0.4845755799045887 l -13.324974225329056 -13.672597421346673" fill="#ff700a" stroke="none" /><line stroke="#e1ed5e" stroke-width="0.3" x1="143.1302829299769" x2="145.66735839644613" y1="173.24464959558577" y2="177.55315839532614" /><path d="M 143.63769802327073 174.10635135553383 a86.0,86.0 0 0,1 -40.68552437913181,11.842963189579606" fill="none" id="id30" stroke="none" /><text fill="#e1ed5e" style="font-size:6.75px; font-family:Arial;" text-anchor="middle"><textPath startOffset="21.407464694133747" xlink:href="#id30">June</textPath></text><path d="M 101.08105385017728 120.97215588758144 l 2.038034632116426 39.537327397729676 a60.58981994044645,60.58981994044645 0 0,0 -1.0391853482087139,0.04462709019143241 l -1.3590235233068826 -39.56648705634694" fill="#61ff29" stroke="none" /><path d="M 100.72087961077811 120.9876233191556 l 1.457260459814326 42.42654827686139 a63.451567777133846,63.451567777133846 0 0,0 -1.0889095346769926,0.028046446985244132 l -0.7287376110665894 -42.44531244119668" fill="#3dff2e" stroke="none" /><line stroke="#e1ed5e" stroke-width="0.3" x1="101.45913802915013" x2="101.54496967792366" y1="184.9874750549273" y2="189.98673829345242" /><path d="M 101.47630435890484 185.9873277026323 a86.0,86.0 0 0,1 -42.54439059252881,-10.42667462771756" fill="none" id="id31" stroke="none" /><text fill="#e1ed5e" style="font-size:6.75px; font-family:Arial;" text-anchor="middle"><textPath startOffset="22.145653131862474" xlink:href="#id31">July</textPath></text><line stroke="#e1ed5e" stroke-width="0.3" x1="58.13341422392154" x2="55.67067388415222" y1="173.97424548756322" y2="178.32567169271397" /><path d="M 57.64086615596768 174.84453072859336 a86.0,86.0 0 0,1 -31.369924170532247,-30.572349798747897" fill="none" id="id32" stroke="none" /><text fill="#e1ed5e" style="font-size:6.75px; font-family:Arial;" text-anchor="middle"><textPath startOffset="22.145653131862474" xlink:href="#id32">August</textPath></text><line stroke="#e1ed5e" stroke-width="0.3" x1="26.387840678322732" x2="22.057713659400548" y1="142.50000000000003" y2="145.00000000000006" /><path d="M 25.521815274538298 143.00000000000003 a86.0,86.0 0 0,1 -11.493303480769221,-40.785679425670985" fill="none" id="id33" stroke="none" /><text fill="#e1ed5e" style="font-size:6.75px; font-family:Arial;" text-anchor="middle"><textPath startOffset="21.40746469413373" xlink:href="#id33">September</textPath></text><line stroke="#e1ed5e" stroke-width="0.3" x1="15.003131293944662" x2="10.003315487706104" y1="100.72959589197737" y2="100.7725132973878" /><path d="M 14.003168132696942 100.73817937305945 a86.0,86.0 0 0,1 10.791469493833604,-42.45332614584628" fill="none" id="id34" stroke="none" /><text fill="#e1ed5e" style="font-size:6.75px; font-family:Arial;" text-anchor="middle"><textPath startOffset="22.145653131862435" xlink:href="#id34">October</textPath></text><line stroke="#e1ed5e" stroke-width="0.3" x1="26.387840678322718" x2="22.05771365940052" y1="57.49999999999999" y2="54.99999999999999" /><path d="M 25.521815274538284 56.99999999999999 a86.0,86.0 0 0,1 29.574782752854787,-30.34633250058573" fill="none" id="id35" stroke="none" /><text fill="#e1ed5e" style="font-size:6.75px; font-family:Arial;" text-anchor="middle"><textPath startOffset="21.40746469413373" xlink:href="#id35">November</textPath></text><line stroke="#e1ed5e" stroke-width="0.3" x1="56.869717070023135" x2="54.33264160355391" y1="26.7553504044142" y2="22.446841604673864" /><path d="M 56.362301976729285 25.89364864446614 a86.0,86.0 0 0,1 42.16139366436587,-11.88097634709845" fill="none" id="id36" stroke="none" /><text fill="#e1ed5e" style="font-size:6.75px; font-family:Arial;" text-anchor="middle"><textPath startOffset="22.145653131862474" xlink:href="#id36">December</textPath></text></svg>