<?xml version="1.0" encoding="utf-8" ?>
<svg baseProfile="full" height="200mm" version="1.1" viewBox="0,0,200,200" width="200mm" xmlns="http://www.w3.org/2000/svg" xmlns:ev="http://www.w3.org/2001/xml-events" xmlns:xlink="http://www.w3.org/1999/xlink"><defs /><rect fill="#1a1a1a" height="200" width="200" x="0" y="0" /><text alignment-baseline="middle" fill="#e1ed5e" style="dominant-baseline: central; font-size:9.0px; font-family:Arial;" text-anchor="middle" x="100.0" y="100.0">2021</text><line stroke="#e1ed5e" stroke-width="0.3" x1="100.0" x2="100.0" y1="15.0" y2="10.0" /><path d="M 100.0 14.0 a86.0,86.0 0 0,1 42.46469731375804,11.215312516191453" fill="none" id="id73" stroke="none" /><text fill="#e1ed5e" style="font-size:6.75px; font-family:Arial;" text-anchor="middle"><textPath startOffset="22.20632615414155" xlink:href="#id73">January</textPath></text><path d="M 108.76106565485865 80.91482961587045 l 8.949186696527399 -19.494974656181427 a42.45092024539878,42.45092024539878 0 0,0 0.6614698121274999,0.31056894613569963 l -9.283434719954496 19.338040727405723" fill="#ffed16" stroke="none" /><line stroke="#e1ed5e" stroke-width="0.3" x1="143.23703022742887" x2="145.7803849466894" y1="26.81831364943548" y2="22.513508569990506" /><path d="M 143.74570117128098 25.957352633546492 a86.0,86.0 0 0,1 28.547481713284135,27.462654790039103" fill="none" id="id74" stroke="none" /><text fill="#e1ed5e" style="font-size:6.75px; font-family:Arial;" text-anchor="middle"><textPath startOffset="19.985693538727396" xlink:href="#id74">February</textPath></text><path d="M 110.68208982089419 81.91981866633111 l 13.123242249288722 -22.212001914522656 a46.79907975460122,46.79907975460122 0 0,0 0.6900366837205102,0.41573938106845554 l -13.503640999226871 21.982815923995584" fill="#d9ff1c" stroke="none" /><path d="M 115.92442197804982 86.31012108654704 l 24.399536128944423 -20.97575005297471 a53.17638036809816,53.17638036809816 0 0,0 0.5907373882404381,0.6992467395127991 l -24.75698413067198 20.552644363832805" fill="#8cff24" stroke="none" /><path d="M 117.45458315368197 88.32363383020206 l 24.615780996641977 -16.466899836087737 a50.615797546012274,50.615797546012274 0 0,0 0.4782068827224249,0.7283418902746708 l -24.895584514722326 16.040739881835393" fill="#aaff21" stroke="none" /><line stroke="#e1ed5e" stroke-width="0.3" x1="172.23445277983987" x2="176.4835382374775" y1="55.19839476539836" y2="52.563006222186495" /><path d="M 173.08426987136738 54.67131705675599 a86.0,86.0 0 0,1 12.851231095245387,41.99856678651699" fill="none" id="id75" stroke="none" /><text fill="#e1ed5e" style="font-size:6.75px; font-family:Arial;" text-anchor="middle"><textPath startOffset="22.20632615414155" xlink:href="#id75">March</textPath></text><path d="M 117.84615892207809 88.93136811851018 l 17.079759459166755 -10.593291862039333 a41.09815950920245,41.09815950920245 0 0,0 0.3676997567281875,0.6044017199198836 l -17.259575014181166 10.29772236891237" fill="#ffdb14" stroke="none" /><path d="M 118.56541770881063 90.18545643968196 l 13.28338552325178 -7.022215599522038 a36.02530674846626,36.02530674846626 0 0,0 0.2850983880527759,0.5507193407236283 l -13.402293344464672 6.7925235365380665" fill="#ff950d" stroke="none" /><path d="M 119.34039704204932 91.81776055985345 l 16.15160458496298 -6.833173888281896 a38.53757668711657,38.53757668711657 0 0,0 0.2532071344181976,0.6131611602034093 l -16.266833406267374 6.554138157625183" fill="#ffb811" stroke="none" /><path d="M 120.08093135843002 93.85539295169968 l 15.568881597678486 -4.763955311220566 a37.28144171779141,37.28144171779141 0 0,0 0.18249106456012976,0.6152691485289749 l -15.648578559350318 4.4952567759450615" fill="#ffa70f" stroke="none" /><path d="M 120.67395015179393 96.31383870115 l 31.62924122149456 -5.639487569943049 a53.12806748466258,53.12806748466258 0 0,0 0.1527764331631781,0.9016951567070942 l -31.721629516177963 5.094206624920116" fill="#8dff24" stroke="none" /><line stroke="#e1ed5e" stroke-width="0.3" x1="184.98032266829074" x2="189.97916517819016" y1="98.17113171792111" y2="98.06355123074" /><path d="M 185.9800911702706 98.14961562048488 a86.0,86.0 0 0,1 -9.607161424134198,41.387399972396054" fill="none" id="id76" stroke="none" /><text fill="#e1ed5e" style="font-size:6.75px; font-family:Arial;" text-anchor="middle"><textPath startOffset="21.466115282336823" xlink:href="#id76">April</textPath></text><path d="M 119.9155931802556 106.66101706037122 l 21.80940725567868 7.294426658136585 a43.99693251533742,43.99693251533742 0 0,0 -0.2464020321035993,0.7161596435276314 l -21.68061439263185 -7.668759004753516" fill="#fdff18" stroke="none" /><path d="M 119.67450827220406 107.3425965602758 l 19.463278888913525 7.263765002113321 a41.77453987730061,41.77453987730061 0 0,0 -0.25722318921353027,0.6715285794745589 l -19.335361420106487 -7.597717148421024" fill="#ffe415" stroke="none" /><path d="M 119.12269723197855 108.67885076344098 l 24.152670506954497 10.961707981125231 a47.523773006134974,47.523773006134974 0 0,0 -0.3444916454797989,0.7420043569479838 l -23.96040424463487 -11.375832405352046" fill="#d0ff1d" stroke="none" /><path d="M 118.64920377521936 109.65438752849418 l 30.934223746778734 16.01414127617555 a55.83358895705521,55.83358895705521 0 0,0 -0.44918784814746604,0.8496941278346413 l -30.653983390406374 -16.544250419096326" fill="#6eff28" stroke="none" /><line stroke="#e1ed5e" stroke-width="0.3" x1="174.80103733775053" x2="179.2010983576182" y1="140.37084112569926" y2="142.7455964860345" /><path d="M 175.68104954172406 140.8457921977663 a86.0,86.0 0 0,1 -30.038265399797805,32.042727171017184" fill="none" id="id77" stroke="none" /><text fill="#e1ed5e" style="font-size:6.75px; font-family:Arial;" text-anchor="middle"><textPath startOffset="22.206326154141568" xlink:href="#id77">May</textPath></text><path d="M 116.27256486870786 113.27417163493432 l 30.249000952260612 24.675300646534353 a60.03680981595092,60.03680981595092 0 0,0 -0.6601304542920784,0.7951696575765825 l -29.819774498074988 -25.192331561224705" fill="#40ff2d" stroke="none" /><path d="M 115.56566222782051 114.09645910891815 l 36.741647497876954 33.27369719114271 a70.56901840490798,70.56901840490798 0 0,0 -0.8231492639284864,0.8933659520402998 l -36.16345182595275 -33.90121439798434" fill="#3bff9d" stroke="none" /><path d="M 114.81725581225074 114.88116024355365 l 24.64618700672688 24.75248203088027 a55.93021472392638,55.93021472392638 0 0,0 -0.6880749351218303,0.6734261445934874 l -24.216462119229256 -25.17305827839633" fill="#6dff28" stroke="none" /><path d="M 113.20401910651253 116.32954008644616 l 30.407721914767734 37.60552828190017 a69.3611963190184,69.3611963190184 0 0,0 -0.9348650911551908,0.742713368389511 l -29.75589933089519 -38.123375564294804" fill="#3aff8f" stroke="none" /><path d="M 112.04921762599082 117.19931262002967 l 14.276105239383298 20.378019937075035 a45.88113496932515,45.88113496932515 0 0,0 -0.6507323893477036,0.4475796710880676 l -13.92321596541271 -20.620740397528202" fill="#e5ff1a" stroke="none" /><line stroke="#e1ed5e" stroke-width="0.3" x1="143.8653032363475" x2="146.44561519142675" y1="172.8068346515853" y2="177.08958963109032" /><path d="M 144.38136562736335 173.6633856474863 a86.0,86.0 0 0,1 -40.68145358897372,12.25698825130547" fill="none" id="id78" stroke="none" /><text fill="#e1ed5e" style="font-size:6.75px; font-family:Arial;" text-anchor="middle"><textPath startOffset="21.466115282336833" xlink:href="#id78">June</textPath></text><path d="M 109.89434966115114 118.52300852407294 l 7.671156063975308 14.361013510611754 a37.28144171779141,37.28144171779141 0 0,0 -0.5686469023398486,0.2974891833918563 l -7.422818259108963 -14.490932112948327" fill="#ffa70f" stroke="none" /><path d="M 108.59647513512805 119.15986991738527 l 9.908360527682099 22.083807121035328 a45.204754601226995,45.204754601226995 0 0,0 -0.7126837931255254,0.3124196310601734 l -9.526756059898819 -22.251091305389956" fill="#edff1a" stroke="none" /><path d="M 107.59598834532513 119.57807347666477 l 15.588086512338993 40.17708943524153 a64.09509202453988,64.09509202453988 0 0,0 -1.0320218722194068,0.3902223654720929 l -14.89419441935931 -40.439460050820244" fill="#33ff4f" stroke="none" /><path d="M 105.18746579009965 120.34920634021253 l 4.188958187864216 16.43229622411334 a37.957822085889575,37.957822085889575 0 0,0 -0.6345223219787205,0.15595014889097503 l -3.9054825811422846 -16.501967631318347" fill="#ffb110" stroke="none" /><path d="M 104.48393922423573 120.51570834832081 l 5.477695693410671 25.062517943922593 a46.65414110429448,46.65414110429448 0 0,0 -0.7860301658275245,0.16472026367730844 l -5.045474066153769 -25.153094188326442" fill="#dbff1b" stroke="none" /><path d="M 102.70371172650421 120.8252237178851 l 1.8784990983227086 14.469058810125683 a35.59049079754601,35.59049079754601 0 0,0 -0.6082119593991177,0.0736459980958393 l -1.6291597158722106 -14.499250336946872" fill="#ff8f0d" stroke="none" /><path d="M 101.26447882468166 120.96189622390904 l 1.0559949693852233 17.50575535877066 a38.53757668711657,38.53757668711657 0 0,0 -0.662501190403791,0.03424374418562184 l -0.7545057105679528 -17.521338909718484" fill="#ffb811" stroke="none" /><line stroke="#e1ed5e" stroke-width="0.3" x1="102.19456741930631" x2="102.32365962044197" y1="184.97166512339345" y2="189.96999836594603" /><path d="M 102.22038585953345 185.97133177190398 a86.0,86.0 0 0,1 -42.740103519485714,-10.115201625700543" fill="none" id="id79" stroke="none" /><text fill="#e1ed5e" style="font-size:6.75px; font-family:Arial;" text-anchor="middle"><textPath startOffset="22.20632615414155" xlink:href="#id79">July</textPath></text><path d="M 100.54218724476979 120.99299961872073 l 0.8744016685206122 33.85604156301358 a54.86733128834356,54.86733128834356 0 0,0 -0.9443459636009818,0.01625777217017104 l -0.2914960150269624 -33.86607681246291" fill="#79ff26" stroke="none" /><path d="M 99.45781275523022 120.99299961872073 l -0.8856279381592269 34.29071256738893 a55.3021472392638,55.3021472392638 0 0,0 -0.9514066812494446,-0.03276836978895241 l 1.4757549710833144 -34.270387399173885" fill="#74ff27" stroke="none" /><path d="M 98.01472825383883 120.90594882070398 l -3.694980466206423 38.91007499068141 a60.0851226993865,60.0851226993865 0 0,0 -1.0287929310310822,-0.10663859378186863 l 4.364205993843099 -38.84070702844378" fill="#40ff2d" stroke="none" /><path d="M 96.22490169976321 120.6578951692458 l -7.842593017899908 42.91582669745927 a64.62653374233129,64.62653374233129 0 0,0 -1.0925958303096532,-0.20939859127883237 l 8.580156462781256 -42.77447090783197" fill="#33ff55" stroke="none" /><path d="M 95.51606077576429 120.51570834832081 l -12.47181561833047 57.06324707006104 a79.41027607361963,79.41027607361963 0 0,0 -1.3328820117667133,-0.30335960638683024 l 13.452217779490047 -56.84011073009652" fill="#47fffe" stroke="none" /><path d="M 93.42475214034765 119.94407469862007 l -7.593806193739603 23.03357093260876 a45.25306748466258,45.25306748466258 0 0,0 -0.7376902227349659,-0.25026457577935146 l 7.989166149411795 -22.899443369931287" fill="#ecff1a" stroke="none" /><path d="M 92.7421414339146 119.70592522655815 l -4.140986789238909 11.243257951349129 a32.98159509202454,32.98159509202454 0 0,0 -0.5310504508304759,-0.20079784032332454 l 4.333907460829668 -11.17031186091917" fill="#ff6a09" stroke="none" /><path d="M 91.40352486487194 119.15986991738527 l -6.922008352672129 15.427809365992745 a37.90950920245399,37.90950920245399 0 0,0 -0.5930708113216984,-0.27224972119140256 l 7.186547159761246 -15.306372574467268" fill="#ffb010" stroke="none" /><path d="M 90.42595943632237 118.69057910512821 l -6.101248242650392 11.910944199663762 a34.38266871165644,34.38266871165644 0 0,0 -0.5244324563695797,-0.2743582749639798 l 6.305371601546468 -11.804156505755065" fill="#ff7e0b" stroke="none" /><line stroke="#e1ed5e" stroke-width="0.3" x1="58.666819895761336" x2="56.23545636021788" y1="174.27360380694188" y2="178.64263932499728" /><path d="M 58.180547188652646 175.14741091055294 a86.0,86.0 0 0,1 -31.652253787137756,-30.449443065178592" fill="none" id="id80" stroke="none" /><text fill="#e1ed5e" style="font-size:6.75px; font-family:Arial;" text-anchor="middle"><textPath startOffset="22.20632615414155" xlink:href="#id80">August</textPath></text><path d="M 89.7882731507175 118.34994917583269 l -23.5637163262968 42.342789164172224 a69.45782208588957,69.45782208588957 0 0,0 -1.0397215247460379,-0.5903810168157572 l 24.289086617964045 -41.93090498156184" fill="#3aff90" stroke="none" /><path d="M 89.1626897886671 117.98757091392108 l -7.529603567076388 12.497499423322465 a35.59049079754601,35.59049079754601 0 0,0 -0.5220291166791393,-0.32067292048258 l 7.743611883687836 -12.366038036011506" fill="#ff8f0d" stroke="none" /><path d="M 88.24862548938628 117.40417183066458 l -11.273749626363305 16.69679368110535 a41.14647239263803,41.14647239263803 0 0,0 -0.583580644009593,-0.401392088322209 l 11.55948715499579 -16.50026080341804" fill="#ffdc14" stroke="none" /><path d="M 87.07902340077011 116.55440617244103 l -38.76292979768965 49.663218517323095 a84.0,84.0 0 0,0 -1.1321700291305676,-0.8994643439794774 l 39.61205731953757 -48.98862025933849" fill="#4dd2ff" stroke="none" /><path d="M 85.70375840098266 115.38237550388516 l -26.575222113510748 28.59423176489082 a60.03680981595092,60.03680981595092 0 0,0 -0.7509294550544808,-0.7100506704073456 l 27.063487402956042 -28.132546457737547" fill="#40ff2d" stroke="none" /><path d="M 85.18274418774928 114.88116024355367 l -5.454204593466525 5.477727697013618 a28.73006134969325,28.73006134969325 0 0,0 -0.3474413534516324,-0.35195625670130243 l 5.54768657197369 -5.383030946331654" fill="#ff2a04" stroke="none" /><path d="M 84.67929136418377 114.36230785411682 l -24.9548965816516 23.39382046176698 a55.20552147239264,55.20552147239264 0 0,0 -0.6439424182443567,-0.6988723148320555 l 25.353885407891685 -22.96079689213358" fill="#75ff27" stroke="none" /><path d="M 84.19399662182784 113.82643327865904 l -38.25440694901179 33.4633615241165 a71.82515337423314,71.82515337423314 0 0,0 -0.8060064473269378,-0.937567590291085 l 38.824755905909505 -32.79991683466389" fill="#3dffac" stroke="none" /><path d="M 82.05923443525364 110.91462005526583 l -4.7465982514091225 2.8876870544990116 a26.555981595092025,26.555981595092025 0 0,0 -0.23422265028651507,-0.3925706343418733 l 4.79560177739387 -2.8055543262710274" fill="#ff0901" stroke="none" /><line stroke="#e1ed5e" stroke-width="0.3" x1="26.63291911575756" x2="22.317208475507996" y1="142.92168965132927" y2="145.44649492493687" /><path d="M 25.769776987707644 143.4266507060508 a86.0,86.0 0 0,1 -11.730757126820373,-40.83630448921669" fill="none" id="id81" stroke="none" /><text fill="#e1ed5e" style="font-size:6.75px; font-family:Arial;" text-anchor="middle"><textPath startOffset="21.46611528233685" xlink:href="#id81">September</textPath></text><path d="M 81.51974371655577 109.97397251340807 l -4.379140484343765 2.3634643455851942 a25.97622699386503,25.97622699386503 0 0,0 -0.2089818283997383,-0.39531486247398656 l 4.419174820968389 -2.2877344680250813" fill="#ff0000" stroke="none" /><path d="M 81.18737489456691 109.33194174019688 l -35.66319728575966 17.690613482949917 a60.809815950920246,60.809815950920246 0 0,0 -0.4570776863671942,-0.9417154158551297 l 35.962428228741565 -17.074109111129506" fill="#38ff2e" stroke="none" /><path d="M 80.73074385275274 108.34839909993369 l -22.298548716408064 9.660839142484614 a45.30138036809816,45.30138036809816 0 0,0 -0.30384071311813,-0.7181896927155638 l 22.4615404107185 -9.27557492410289" fill="#ecff1a" stroke="none" /><path d="M 80.45479744820244 107.68017299344265 l -45.19078657490006 17.757455195728223 a69.55444785276075,69.55444785276075 0 0,0 -0.42827561843222717,-1.1180924960487664 l 45.4897564729258 -16.976939132846297" fill="#3aff91" stroke="none" /><path d="M 79.18660465613746 102.79330883721812 l -25.13887857866834 3.3738201063025652 a46.364263803680984,46.364263803680984 0 0,0 -0.09934866171650633,-0.791906583900729 l 25.193228749631693 -2.9405957681144277" fill="#deff1b" stroke="none" /><line stroke="#e1ed5e" stroke-width="0.3" x1="15.007084014347285" x2="10.007500721073583" y1="101.09737516637583" y2="101.16192664675087" /><path d="M 14.007167355692545 101.11028546245083 a86.0,86.0 0 0,1 10.666146001902534,-42.60595125391555" fill="none" id="id82" stroke="none" /><text fill="#e1ed5e" style="font-size:6.75px; font-family:Arial;" text-anchor="middle"><textPath startOffset="22.20632615414155" xlink:href="#id82">October</textPath></text><path d="M 79.16333360222342 97.38593545837743 l -48.89585826472112 -6.134231209635768 a70.27914110429448,70.27914110429448 0 0,0 0.16091915652731062,-1.1990346282437319 l 48.783023109135975 6.974984179944159" fill="#3bff9a" stroke="none" /><path d="M 79.3925641242962 95.95851677861259 l -38.638942266944625 -7.577781040101394 a60.375,60.375 0 0,0 0.2087845242443906,-1.018107488530218 l 38.50277844678524 8.241764184795015" fill="#3dff2e" stroke="none" /><path d="M 79.71946130924805 94.55025226153421 l -37.792721639974886 -10.155588193613394 a60.13343558282209,60.13343558282209 0 0,0 0.27722438551012957,-0.9973236142896231 l 37.6123104838984 10.804623111321959" fill="#3fff2d" stroke="none" /><path d="M 79.91906864156998 93.8553929516997 l -18.941369302813595 -5.795910022553203 a40.808282208588956,40.808282208588956 0 0,0 0.2113179479535057,-0.6699356428492835 l 18.838795871091886 6.1210958318289" fill="#ffd714" stroke="none" /><path d="M 80.14247586403 93.16781622104843 l -10.141956345518421 -3.4894435558142227 a31.72546012269939,31.72546012269939 0 0,0 0.1821145941753644,-0.5148624815487548 l 10.080388670533248 3.6635036637895886" fill="#ff5708" stroke="none" /><path d="M 80.2630227832202 92.82701384747504 l -50.62897913353409 -18.400029662726983 a74.86886503067484,74.86886503067484 0 0,0 0.4506229049508691,-1.2074453496553617 l 50.30475164008159 19.268798149411683" fill="#41ffce" stroke="none" /><path d="M 80.803312248108 91.48605970444005 l -18.54894675412878 -8.226660101537982 a41.29141104294479,41.29141104294479 0 0,0 0.2937543399585632,-0.6472487494853759 l 18.404590097206867 8.54473085986543" fill="#ffde14" stroke="none" /><path d="M 81.10775173730289 90.83032412892265 l -8.953534836155532 -4.3457512947283705 a30.95245398773006,30.95245398773006 0 0,0 0.23677151464995447,-0.47731692554064103 l 8.877403308552164 4.499227808767973" fill="#ff4c07" stroke="none" /><path d="M 81.6062741919709 89.86733742301443 l -45.57525159949544 -25.106313486380657 a73.0329754601227,73.0329754601227 0 0,0 0.6160587398303968,-1.0958997564768036 l 45.136335218372615 25.887096752792246" fill="#3effb9" stroke="none" /><line stroke="#e1ed5e" stroke-width="0.3" x1="26.266209847984257" x2="21.92892807433627" y1="57.711370442889674" y2="55.22380399835377" /><path d="M 25.39875349325466 57.213857153982495 a86.0,86.0 0 0,1 29.58750427330802,-30.492523968695096" fill="none" id="id83" stroke="none" /><text fill="#e1ed5e" style="font-size:6.75px; font-family:Arial;" text-anchor="middle"><textPath startOffset="21.46611528233685" xlink:href="#id83">November</textPath></text><path d="M 83.39014120810768 87.1503855733568 l -23.042357787218727 -17.82588381732942 a50.13266871165644,50.13266871165644 0 0,0 0.5339031802998222,-0.6780028202639283 l 22.73210052632493 18.219879031546395" fill="#b0ff20" stroke="none" /><path d="M 83.84228863543731 86.58626213691792 l -15.017750133320535 -12.467369854337022 a40.51840490797546,40.51840490797546 0 0,0 0.45011970587913763,-0.5327997566971966 l 14.800919813954273 12.724028560663335" fill="#ffd313" stroke="none" /><path d="M 84.07557802195018 86.31012108654704 l -18.940781049045444 -16.282977143225107 a45.977760736196316,45.977760736196316 0 0,0 0.5210991023659943,-0.5957063550924877 l 18.657690083101606 16.606599054520537" fill="#e3ff1b" stroke="none" /><path d="M 84.5562425177563 85.77008943001954 l -43.950754613961955 -40.49631758067293 a80.76303680981596,80.76303680981596 0 0,0 0.9508219941090212,-1.0142706091691553 l 43.247165297882475 41.24685760672014" fill="#49f2ff" stroke="none" /><path d="M 85.05521093208273 85.24692304244772 l -7.048347604884298 -6.9579312338149215 a30.904141104294478,30.904141104294478 0 0,0 0.37697783702371623,-0.3753589743883709 l 6.927533967693268 7.078226058853404" fill="#ff4b07" stroke="none" /><path d="M 85.57189188830299 84.74124197986013 l -13.410174103816551 -14.18221987761466 a40.51840490797546,40.51840490797546 0 0,0 0.5109025800399861,-0.47482826797253597 l 13.164063639981709 14.410952731661844" fill="#ffd313" stroke="none" /><path d="M 87.22198572758235 83.33499621200491 l -24.987681284252314 -32.58877274492905 a62.0659509202454,62.0659509202454 0 0,0 0.8534181928030408,-0.6427768896046299 l 24.423016937690885 33.01406622403953" fill="#30ff35" stroke="none" /><path d="M 87.80319425747017 82.90503203632743 l -19.922696496616975 -27.923528959066388 a55.3021472392638,55.3021472392638 0 0,0 0.7796782719859805,-0.5462144554820715 l 19.439087085047337 28.2623282573124" fill="#74ff27" stroke="none" /><path d="M 88.70189139769569 82.29822771554957 l -10.994861822334487 -17.226648028349373 a41.43634969325153,41.43634969325153 0 0,0 0.6045382829342183,-0.37856181731296046 l 10.696704387028026 17.413354186985266" fill="#ffe015" stroke="none" /><line stroke="#e1ed5e" stroke-width="0.3" x1="56.762969772571076" x2="54.21961505331055" y1="26.818313649435495" y2="22.513508569990535" /><path d="M 56.25429882871897 25.957352633546506 a86.0,86.0 0 0,1 42.265352541879196,-11.944610805530505" fill="none" id="id84" stroke="none" /><text fill="#e1ed5e" style="font-size:6.75px; font-family:Arial;" text-anchor="middle"><textPath startOffset="22.20632615414155" xlink:href="#id84">December</textPath></text><path d="M 89.3179101791058 81.91981866633112 l -4.986340547529373 -8.439728817334544 a30.802684049079755,30.802684049079755 0 0,0 0.45881810568526066,-0.2657770614724361 l 4.840325709378791 8.524310036197027" fill="#ff4a06" stroke="none" /><path d="M 89.94658935756843 81.56283822128135 l -14.178084487294218 -26.001488121981282 a50.615797546012274,50.615797546012274 0 0,0 0.7685284653079267,-0.41052129034125323 l 13.728410975457987 26.241688138824287" fill="#aaff21" stroke="none" /><path d="M 90.91171255644093 81.06846463323043 l -17.981427610722694 -37.456565372902965 a62.54907975460123,62.54907975460123 0 0,0 0.9746391313744791,-0.4576061406642719 l 17.334010268048605 37.760536496207244" fill="#31ff3b" stroke="none" /><path d="M 92.23578459929587 80.48803036053334 l -15.254539767334355 -38.33563360146748 a62.25920245398773,62.25920245398773 0 0,0 0.9991618743184407,-0.3876592843244847 l 14.592394728016238 38.59253558968251" fill="#30ff37" stroke="none" /><path d="M 93.25333710446033 80.11325718540243 l -6.844965499078972 -20.1765036378164 a42.30598159509202,42.30598159509202 0 0,0 0.6916366763567413,-0.22802173801456954 l 6.496646000479822 20.2913391000902" fill="#ffeb16" stroke="none" /><path d="M 95.692805502759 79.44645832069477 l -6.460791745861506 -30.83031251895783 a52.5,52.5 0 0,0 0.886083976332159,-0.17774010980697336 l 5.929141360062212 30.936956584842015" fill="#94ff23" stroke="none" /><path d="M 96.40284397218896 79.31037775812273 l -5.271599056094238 -30.32045100017444 a51.77530674846626,51.77530674846626 0 0,0 0.8793685600180081,-0.14510334712354234 l 4.7489012899373435 30.406700610237607" fill="#9cff22" stroke="none" /><path d="M 98.55514903715128 79.0497635885617 l -1.1168786583983927 -16.19466127509954 a37.233128834355824,37.233128834355824 0 0,0 0.6397679011371101,-0.03859254692694138 l 0.8379487084216597 16.211487091406788" fill="#ffa60f" stroke="none" /></svg>