<?xml version="1.0" encoding="utf-8" ?>
<svg baseProfile="full" height="200mm" version="1.1" viewBox="0,0,200,200" width="200mm" xmlns="http://www.w3.org/2000/svg" xmlns:ev="http://www.w3.org/2001/xml-events" xmlns:xlink="http://www.w3.org/1999/xlink"><defs /><rect fill="#1a1a1a" height="200" width="200" x="0" y="0" /><text alignment-baseline="middle" fill="#e1ed5e" style="dominant-baseline: central; font-size:9.0px; font-family:Arial;" text-anchor="middle" x="100.0" y="100.0">2020</text><line stroke="#e1ed5e" stroke-width="0.3" x1="100.0" x2="100.0" y1="15.0" y2="10.0" /><path d="M 100.0 14.0 a86.0,86.0 0 0,1 42.35913384403234,11.155469271406648" fill="none" id="id49" stroke="none" /><text fill="#e1ed5e" style="font-size:6.75px; font-family:Arial;" text-anchor="middle"><textPath startOffset="22.145653131862478" xlink:href="#id49">January</textPath></text><path d="M 100.0 79.0 l 0.0 -30.537542262067916 a51.537542262067916,51.537542262067916 0 0,0 0.884710445217825,0.007594175129588375 l -0.5242175203689703 30.533042485132764" fill="#a9ff21" stroke="none" /><path d="M 100.36049292484886 79.00309439819443 l 0.4038703010572107 -23.523420300763185 a44.52688704156233,44.52688704156233 0 0,0 0.7641379645550048,0.01968148338297122 l -0.8076215796829569 23.51302110003017" fill="#fffb17" stroke="none" /><path d="M 100.72087961077811 79.0123766808444 l 0.8190229102564685 -23.84495839973511 a44.85902008911143,44.85902008911143 0 0,0 0.7693839733708341,0.03304065827202891 l -1.2282326442281388 23.827385173037246" fill="#feff18" stroke="none" /><path d="M 101.08105385017728 79.02784411241856 l 1.639678071219743 -31.80931653814493 a52.85154882892101,52.85154882892101 0 0,0 0.9056632545063891,0.05448245243085091 l -2.1854856778585945 31.77648210788939" fill="#99ff23" stroke="none" /><path d="M 101.44090949804482 79.04949213459386 l 2.112251008346991 -30.711666085991293 a51.784217354022346,51.784217354022346 0 0,0 0.8863263475397167,0.06860726481916171 l -2.6391463506619415 30.670881054177077" fill="#a6ff21" stroke="none" /><path d="M 101.80034050326958 79.07731436759882 l 1.723201662693905 -20.026215376645844 a41.10021707052233,41.10021707052233 0 0,0 0.7024231357895815,0.06652020126585408 l -2.0667243618684994 19.993683419874806" fill="#ffcd13" stroke="none" /><path d="M 102.51750503828377 79.15144685158666 l 2.395270239925564 -19.83627366876869 a40.9803671784219,40.9803671784219 0 0,0 0.6976852444449766,0.09032932303860901 l -2.7354333062613323 19.792232749529685" fill="#ffcb12" stroke="none" /><path d="M 103.58742460773223 79.30868818359171 l 5.099198033094077 -29.41081919574121 a50.84959139327187,50.84959139327187 0 0,0 0.8587897085864198,0.1565000926948123 l -5.6033224752315505 29.318950929115033" fill="#b1ff20" stroke="none" /><path d="M 103.94208987418118 79.37332000966035 l 5.736034737185929 -30.013357562524345 a51.55656601586868,51.55656601586868 0 0,0 0.8678774895507052,0.17359980423681937 l -6.250408712267591 29.910468361624666" fill="#a9ff21" stroke="none" /><path d="M 104.29559338865022 79.4440306129975 l 5.487619403220447 -26.260245384995844 a47.82749437414529,47.82749437414529 0 0,0 0.8022210017862331,0.1748403335343287 l -5.9376028216258145 26.162173593327797" fill="#d7ff1c" stroke="none" /><path d="M 104.9986988182912 79.60360301121754 l 7.2644815607265745 -29.641563778175534 a51.518764646718324,51.518764646718324 0 0,0 0.8571611270061936,0.2178870065824617 l -7.772247980958163 29.512491539757807" fill="#a9ff21" stroke="none" /><path d="M 105.3480935250658 79.69241777938227 l 5.741728576315515 -21.80227862611341 a43.54566034372823,43.54566034372823 0 0,0 0.7212376464823456,0.1965765277501174 l -6.115147623732553 21.70050160421915" fill="#ffee16" stroke="none" /><path d="M 106.04205211174951 79.88797359093562 l 8.78062078055727 -29.22783083633701 a51.518279713795906,51.518279713795906 0 0,0 0.844800104656433,0.2617212319142553 l -9.281061518085332 29.072793016616107" fill="#a9ff21" stroke="none" /><path d="M 106.38641147887787 79.99465700312896 l 6.732453605645375 -21.089315030343403 a43.137866654247325,43.137866654247325 0 0,0 0.703511355974446,0.23125815621988682 l -7.0934876992675635 20.970635952721494" fill="#ffe915" stroke="none" /><path d="M 106.72888874123014 80.10723608172694 l 7.206290557355503 -21.304117558904153 a43.48990992780183,43.48990992780183 0 0,0 0.7051458716523132,0.24528633806188896 l -7.570942201052834 21.177272788273676" fill="#ffed16" stroke="none" /><path d="M 107.06938296918511 80.22567764915836 l 5.493891145309672 -15.367391318497308 a37.31991286289049,37.31991286289049 0 0,0 0.6014030177202341,0.22084351840666097 l -5.756883314684032 15.270816951081926" fill="#ff970d" stroke="none" /><path d="M 107.40779381753099 80.34994680014964 l 8.290633548229126 -21.99189047319688 a44.50272008121847,44.50272008121847 0 0,0 0.7125261374186675,0.275620416758326 l -8.66693194814132 21.846330168300515" fill="#fffb17" stroke="none" /><path d="M 107.74402155503746 80.48000691201159 l 11.27703118751103 -28.42548529453054 a51.58070709832702,51.58070709832702 0 0,0 0.8202450963870918,0.3335865399335093 l -11.763330745088561 28.227711498017737" fill="#a8ff21" stroke="none" /><path d="M 108.07796709384702 80.6158196554323 l 11.723047542528414 -28.131046476458362 a51.47598430805873,51.47598430805873 0 0,0 0.8127443270299818,0.3469122244440552 l -12.204226944728825 27.925659602354905" fill="#aaff21" stroke="none" /><path d="M 108.4095320186766 80.7573450057729 l 10.71527954775617 -24.51865657283244 a47.75783503804187,47.75783503804187 0 0,0 0.7484030199833945,0.3347511515364657 l -11.134595970595196 24.331101670386122" fill="#d8ff1c" stroke="none" /><path d="M 109.06512990194946 81.05736502329252 l 9.611667493455016 -20.084688340411876 a43.26609210742237,43.26609210742237 0 0,0 0.6672038325462908,0.32636282850880927 l -9.955031575263373 19.916731761805845" fill="#ffea16" stroke="none" /><path d="M 109.3889696526874 81.21577127319529 l 8.954235202785526 -17.91446860993812 a41.027643736677106,41.027643736677106 0 0,0 0.6272790267181145,0.3202931405822891 l -9.26044145121722 17.758117517682994" fill="#ffcc13" stroke="none" /><path d="M 109.71004243097381 81.37971332152246 l 9.315396557430402 -17.863501179949136 a41.14649566123673,41.14649566123673 0 0,0 0.6234892909807299,0.3319729292732625 l -9.620674664197692 17.7009577829533" fill="#ffcd13" stroke="none" /><path d="M 110.02825361518725 81.54914285379988 l 8.073421803990671 -14.854186790893962 a37.90641904259801,37.90641904259801 0 0,0 0.5690580433032998,0.3156469040165995 l -8.327224035450072 14.713406971444217" fill="#ffa00e" stroke="none" /><path d="M 110.34350942703115 81.72400993836675 l 10.726950174936592 -18.953493122599333 a42.778483914267134,42.778483914267134 0 0,0 0.6359888043593824,0.3671883073984777 l -11.050731447156371 18.766557917924683" fill="#ffe415" stroke="none" /><line stroke="#e1ed5e" stroke-width="0.3" x1="143.13028292997686" x2="145.6673583964461" y1="26.7553504044142" y2="22.446841604673864" /><path d="M 143.63769802327073 25.89364864446614 a86.0,86.0 0 0,1 29.32050498858742,28.57503671076993" fill="none" id="id50" stroke="none" /><text fill="#e1ed5e" style="font-size:6.75px; font-family:Arial;" text-anchor="middle"><textPath startOffset="20.669276256404974" xlink:href="#id50">February</textPath></text><path d="M 110.65571695917076 81.90426304109057 l 15.50238452890311 -26.326438075052707 a51.55168191444719,51.55168191444719 0 0,0 0.7587112487679125,0.4555843053403316 l -15.952028534228457 26.056439769176453" fill="#a9ff21" stroke="none" /><path d="M 110.96478420261332 82.08984904055464 l 10.513281094480647 -17.172654564086503 a41.13527114664725,41.13527114664725 0 0,0 0.5990781661241077,0.373869083291038 l -10.806523389394465 16.989649683953918" fill="#ffcd13" stroke="none" /><path d="M 111.27062007382361 82.28071324371311 l 11.571200622386597 -18.191849303730013 a42.56005716442195,42.56005716442195 0 0,0 0.6130966087714634,0.3974018145825778 l -11.881782863415067 17.99053364744354" fill="#ffe115" stroke="none" /><path d="M 111.5731344415666 82.4767994020092 l 11.998351599553972 -18.167033571222166 a42.771576651322995,42.771576651322995 0 0,0 0.6091970162073501,0.409894940103318 l -12.308444903858323 17.95838895706173" fill="#ffe415" stroke="none" /><path d="M 111.8722381534696 82.67804972795209 l 9.244970110988449 -13.488687681211214 a37.352803053737574,37.352803053737574 0 0,0 0.5257939019573603,0.36704497877851633 l -9.47515910411957 13.327997886627571" fill="#ff980e" stroke="none" /><path d="M 112.45986205192187 83.09580414077388 l 13.262045346284012 -17.992511561790835 a43.35200928480637,43.35200928480637 0 0,0 0.5952582048565058,0.4466928542431362 l -13.568956540051284 17.762199680283683" fill="#ffec16" stroke="none" /><path d="M 112.7482090630111 83.31218511350987 l 18.527662075796677 -24.253304403160545 a51.5204363741294,51.5204363741294 0 0,0 0.6982001828633716,0.5429246852206092 l -18.941272203295277 23.931678666319144" fill="#a9ff21" stroke="none" /><path d="M 113.03279911837588 83.53348406188908 l 10.372870785506143 -13.105783382533053 a37.71400629420386,37.71400629420386 0 0,0 0.5041989625673632,0.40614699387239733 l -10.596320518428765 12.925788094867247" fill="#ff9d0e" stroke="none" /><path d="M 113.31354834802062 83.75963576809568 l 7.694801782589922 -9.386407017491043 a33.137323064471595,33.137323064471595 0 0,0 0.43682197721022953,0.3644124295007563 l -7.854798093962044 9.252932404078416" fill="#ff5908" stroke="none" /><path d="M 113.86319453409587 84.22622945171908 l 20.164923619446814 -22.943981454957544 a51.545874182670886,51.545874182670886 0 0,0 0.6596275769450342,0.5898430467697301 l -20.555816223215224 22.594442878304427" fill="#a9ff21" stroke="none" /><path d="M 114.13192950727249 84.46653392183569 l 14.529582349503066 -15.970556210300579 a42.59091079406706,42.59091079406706 0 0,0 0.5365850956539449,0.49665515378695724 l -14.801597216470975 15.718783310381246" fill="#ffe115" stroke="none" /><path d="M 114.65682725009322 84.96080404539774 l 16.418383823837566 -16.846708183928055 a44.52392195237179,44.52392195237179 0 0,0 0.5427849413004816,0.5381457816443321 l -16.70516068526801 16.562382392055063" fill="#fffb17" stroke="none" /><path d="M 114.91283532996326 85.21462403516908 l 21.674540579644667 -21.48928920921843 a51.52171784248218,51.52171784248218 0 0,0 0.6173116303120113,0.6334161148865445 l -22.04023901110749 21.114050402264144" fill="#a9ff21" stroke="none" /><path d="M 115.16444852881244 85.47280134310134 l 18.58107043475021 -17.80024515567277 a46.73139922552212,46.73139922552212 0 0,0 0.549971080949031,0.5840502293086429 l -18.883897349435504 17.478653466419633" fill="#e6ff1a" stroke="none" /><path d="M 115.41159269507618 85.73525988315684 l 17.260731314136137 -15.9762752166084 a44.519655934890196,44.519655934890196 0 0,0 0.5143128994063293,0.5653199708064812 l -17.532441914384343 15.677617670244247" fill="#fffb17" stroke="none" /><path d="M 115.6541949942343 86.00192230759917 l 12.42626699476213 -11.11164457088102 a37.66975574190289,37.66975574190289 0 0,0 0.42690405190263125,0.4857384453692699 l -12.615182110623351 10.896693847700453" fill="#ff9c0e" stroke="none" /><path d="M 115.8921839302757 86.27271002978787 l 9.375384631094953 -8.098233948081285 a33.38867345839851,33.38867345839851 0 0,0 0.3709409064347696,0.4369674550625193 l -9.513020101036833 7.936099710569215" fill="#ff5d08" stroke="none" /><path d="M 116.57777611688842 87.10902102172516 l 17.90388648499309 -13.922170421419903 a43.67985847642303,43.67985847642303 0 0,0 0.4552024122385192,0.5958745698139615 l -18.140240874585917 13.612774938365058" fill="#fff016" stroke="none" /><path d="M 116.7966241395341 87.39550010848427 l 24.36506359181001 -18.28399795390442 a51.46245073875913,51.46245073875913 0 0,0 0.5241768704898777,0.711146595902344 l -24.675342481883714 17.863045048733202" fill="#aaff21" stroke="none" /><path d="M 117.21940702142032 87.97951657250589 l 20.822542248853658 -14.535751649826322 a46.39421866745902,46.39421866745902 0 0,0 0.4502675198505802,0.6569537678698593 l -21.068999505519564 14.176163146886415" fill="#eaff1a" stroke="none" /><path d="M 117.42321728460499 88.27688183743584 l 20.42593389326447 -13.743479903854759 a45.619139206716184,45.619139206716184 0 0,0 0.43159086084990095,0.6534835717253228 l -20.6588491930351 13.390816453790377" fill="#f4ff19" stroke="none" /><path d="M 117.62189284568427 88.57770195909679 l 20.50438412552205 -13.290694063222421 a45.43506327082327,45.43506327082327 0 0,0 0.41861337727441095,0.6581297589092272 l -20.72951519442235 12.936750629634522" fill="#f7ff19" stroke="none" /><path d="M 117.81537515405839 88.88188828441811 l 19.225243777016885 -11.99797400974051 a43.66189265317739,43.66189265317739 0 0,0 0.3913603299922521,0.639257687171716 l -19.42837207146454 11.66617920644424" fill="#fff016" stroke="none" /><line stroke="#e1ed5e" stroke-width="0.3" x1="172.87174338648825" x2="177.1583165268699" y1="56.24261187166439" y2="53.66864786411523" /><path d="M 173.72905801456457 55.72781907015455 a86.0,86.0 0 0,1 12.242430191666344,42.057860355516425" fill="none" id="id51" stroke="none" /><text fill="#e1ed5e" style="font-size:6.75px; font-family:Arial;" text-anchor="middle"><textPath startOffset="22.145653131862474" xlink:href="#id51">March</textPath></text><path d="M 118.00360718960297 89.18935116829356 l 14.272410467863404 -8.570172406291258 a37.64780933446599,37.64780933446599 0 0,0 0.3279416230140839,0.5569165707647047 l -14.417425801007255 8.323904667232997" fill="#ff9c0e" stroke="none" /><path d="M 118.18653347947321 89.5 l 12.943226521518477 -7.472775316380998 a35.94555063276199,35.94555063276199 0 0,0 0.30393954611015694,0.5370320550518304 l -13.06959943265001 7.24948649123005" fill="#ff830c" stroke="none" /><path d="M 118.36410011445183 89.81374322990088 l 17.236939207594958 -9.561039615601777 a40.711051513743016,40.711051513743016 0 0,0 0.3337427066733457,0.6140489900545016 l -17.398527263883643 9.263735792072671" fill="#ffc712" stroke="none" /><path d="M 118.53625476483649 90.13048839642627 l 18.173756310697016 -9.67650159455108 a41.58932008469316,41.58932008469316 0 0,0 0.3301240035684107,0.6330563053238913 l -18.337188383240374 9.363099046122692" fill="#ffd413" stroke="none" /><path d="M 118.70294669586156 90.45014215332178 l 17.62685424200091 -9.00039737227468 a40.791744322509686,40.791744322509686 0 0,0 0.31308651857841646,0.6263827655010747 l -17.778760673791062 8.696482750609855" fill="#ffc812" stroke="none" /><path d="M 118.8641267826498 90.77261029715802 l 14.932520943113563 -7.304244271443733 a37.62324174442048,37.62324174442048 0 0,0 0.2788074665819205,0.5826003736698975 l -15.055707667655394 7.046831395708732" fill="#ff9c0e" stroke="none" /><path d="M 119.0197475246899 91.09779779509293 l 15.191270195198795 -7.110281503552333 a37.772918446212444,37.772918446212444 0 0,0 0.2698345035569076,0.589637087646411 l -15.311089163610754 6.848455433691237" fill="#ff9e0e" stroke="none" /><path d="M 119.16976305983485 91.42560881287824 l 14.931113436384477 -6.678497123999055 a37.356664460868686,37.356664460868686 0 0,0 0.2568112680481057,0.5876344389562594 l -15.043558586449553 6.4212006152669465" fill="#ff980e" stroke="none" /><path d="M 119.31412917781788 91.75594674310238 l 15.772442316477088 -6.732317737509994 a38.14917020573849,38.14917020573849 0 0,0 0.2519192361864163,0.6045144588695794 l -15.885687397199987 6.460570769199136" fill="#ffa30f" stroke="none" /><path d="M 119.4528033332814 92.08871423366111 l 12.228578978916149 -4.9732566129907525 a34.20119029414568,34.20119029414568 0 0,0 0.21651197883045006,0.5457516227454048 l -12.312149632712723 4.762603973031783" fill="#ff6909" stroke="none" /><path d="M 119.71291397450082 92.76114493625339 l 21.31237777549696 -7.826200326354515 a43.70389521632198,43.70389521632198 0 0,0 0.2525665377081028,0.7064735569491706 l -21.443584483249005 7.459191813024428" fill="#fff016" stroke="none" /><path d="M 119.83427380445688 93.10060997987247 l 17.463895770538038 -6.074849494349652 a39.49030697049718,39.49030697049718 0 0,0 0.21722410293689898,0.6421844621393396 l -17.565605295047302 5.774163357736151" fill="#ffb610" stroke="none" /><path d="M 119.94978838288452 93.4421083053983 l 15.842162274737904 -5.207633405032358 a37.67613717922522,37.67613717922522 0 0,0 0.19669685752663835,0.6161501046779608 l -15.929223848041799 4.93491426666301" fill="#ff9c0e" stroke="none" /><path d="M 120.05942366710727 93.78553927170692 l 16.488667724022367 -5.108231409501275 a38.26181309846194,38.26181309846194 0 0,0 0.18898362180504222,0.6290650133970865 l -16.573927665831036 4.824428792513464" fill="#ffa50f" stroke="none" /><path d="M 120.16314734710363 94.1308016681162 l 15.633054997249207 -4.5505544711144905 a37.28189038599629,37.28189038599629 0 0,0 0.17359426001204095,0.6160247878979594 l -15.70886774933583 4.281521759313518" fill="#ff970d" stroke="none" /><path d="M 120.26092885502905 94.47779374421319 l 16.175090349318676 -4.4085928021386565 a37.76511969249522,37.76511969249522 0 0,0 0.16510644030664243,0.6269360466427893 l -16.24838627043005 4.130276251123068" fill="#ff9e0e" stroke="none" /><path d="M 120.35273937422433 94.82641323984039 l 17.410226806771178 -4.425611572118907 a38.96390924187958,38.96390924187958 0 0,0 0.15921854422097273,0.6496659938829977 l -17.48363287750844 4.126089753627815" fill="#ffaf10" stroke="none" /><path d="M 120.43855184770803 95.1765574152323 l 15.105206537883543 -3.5647876135955014 a36.52014739885429,36.52014739885429 0 0,0 0.1387576712734102,0.6113919021391975 l -15.16417507071462 3.304961377517278" fill="#ff8c0c" stroke="none" /><path d="M 120.51834098615036 95.52812308129327 l 61.555022958451104 -13.415630756120196 a84.0,84.0 0 0,0 0.29496915670253276,1.4115341948583824 l -61.776249825978 12.35698010997641" fill="#4dd2ff" stroke="none" /><path d="M 120.592083275326 95.88100663000786 l 16.432678734853866 -3.286995970979643 a37.75820016935455,37.75820016935455 0 0,0 0.12167797153393874,0.6366705632822436 l -16.486682998669963 3.0044228426640847" fill="#ff9e0e" stroke="none" /><path d="M 120.65975698304385 96.23510406497455 l 16.1757557481209 -2.9477615400823765 a37.442152295853944,37.442152295853944 0 0,0 0.10980389441065347,0.6333196837112165 l -16.223974460023786 2.6696488234505673" fill="#ff990e" stroke="none" /><path d="M 120.7213421655516 96.59031103205396 l 17.220005337872287 -2.8335453253663365 a38.45157766355969,38.45157766355969 0 0,0 0.10158267398590012,0.6522336374829039 l -17.266109503996454 2.5375235059519916" fill="#ffa70f" stroke="none" /><path d="M 120.77682067341334 96.94652285012252 l 19.329901244829777 -2.840829821282726 a40.537538130695,40.537538130695 0 0,0 0.09527379962390274,0.6893537534883823 l -19.375819561008893 2.508587759594258" fill="#ffc512" stroke="none" /><path d="M 120.82617615685814 97.30363454192243 l 15.700228638192987 -2.032708926741851 a36.83126921230232,36.83126921230232 0 0,0 0.0757986007506851,0.6277211494294774 l -15.732809325203336 1.7628941003889609" fill="#ff900d" stroke="none" /><path d="M 120.86939407059847 97.66154086499901 l 16.57817709087561 -1.8576193218009598 a37.68192750257479,37.68192750257479 0 0,0 0.06651328091427407,0.6434556568612263 l -16.607622764271547 1.5727591426568022" fill="#ff9c0e" stroke="none" /><path d="M 120.9064616781168 98.02013634271609 l 30.14236952952766 -2.854513733349712 a51.27723054555155,51.27723054555155 0 0,0 0.07546635401217841,0.8770334267060912 l -30.18692950623758 2.3366592592679587" fill="#acff20" stroke="none" /><path d="M 120.93736805541906 98.37931529534042 l 19.56640429765798 -1.5145634392280833 a40.62493514768533,40.62493514768533 0 0,0 0.04785237968951505,0.6957630985318449 l -19.58952063851256 1.178456916541904" fill="#ffc612" stroke="none" /><path d="M 120.96210409425399 98.7389718711861 l 23.264777204316022 -1.3995512250734887 a44.30683594995398,44.30683594995398 0 0,0 0.03915545006854909,0.7596052708673015 l -23.285374243841144 0.9999741608294566" fill="#fff817" stroke="none" /><path d="M 120.98066250479742 99.09900007780936 l 21.134711667183605 -0.9076154560562549 a42.154191146698544,42.154191146698544 0 0,0 0.02484149094452799,0.7232329044058153 l -21.147177845124983 0.5446762870863197" fill="#ffdb14" stroke="none" /><path d="M 120.99303781780057 99.45929381324524 l 19.669821226946723 -0.5066248211467528 a40.6763445743727,40.6763445743727 0 0,0 0.01198706384355883,0.6981863737589321 l -19.675619722388948 0.16889153141875432" fill="#ffc712" stroke="none" /><line stroke="#e1ed5e" stroke-width="0.3" x1="184.99686870605535" x2="189.99668451229388" y1="99.2704041080226" y2="99.22748670261217" /><path d="M 185.99683186730306 99.26182062694052 a86.0,86.0 0 0,1 -10.086455211305974,41.156179273409016" fill="none" id="id52" stroke="none" /><text fill="#e1ed5e" style="font-size:6.75px; font-family:Arial;" text-anchor="middle"><textPath startOffset="21.40746469413373" xlink:href="#id52">April</textPath></text><path d="M 120.99303781780057 100.54070618675476 l 16.219021421109293 0.4177444589779948 a37.22440033688176,37.22440033688176 0 0,0 -0.02193636216779192,0.6386532498445764 l -16.209460371944655 -0.696103973386682" fill="#ff960d" stroke="none" /><path d="M 120.98066250479742 100.90099992219065 l 16.610166570554966 0.7133120216876659 a37.625475859110495,37.625475859110495 0 0,0 -0.03325090608977079,0.6450586950906032 l -16.59547407500862 -0.9983425101549998" fill="#ff9c0e" stroke="none" /><path d="M 120.96210409425399 101.26102812881392 l 16.967090507998968 1.02069803195869 a37.99776411117277,37.99776411117277 0 0,0 -0.04475781755688704,0.6507688442864464 l -16.947068729277017 -1.3118103003994799" fill="#ffa10e" stroke="none" /><path d="M 120.93736805541906 101.62068470465957 l 17.760294799190174 1.3747591414118794 a38.81342286173651,38.81342286173651 0 0,0 -0.057122966255093416,0.6638554557735351 l -17.73407821023734 -1.6794356445610719" fill="#ffad10" stroke="none" /><path d="M 120.86939407059847 102.33845913500097 l 16.474158674134927 1.8459638412435098 a37.577258112358436,37.577258112358436 0 0,0 -0.07733384284277434,0.6404351562997249 l -16.44004274503249 -2.128492674466643" fill="#ff9b0e" stroke="none" /><path d="M 120.82617615685814 102.69636545807757 l 16.594916806368214 2.148544222393281 a37.73342481639254,37.73342481639254 0 0,0 -0.0886834011352706,0.6416689130279446 l -16.555588888677736 -2.4331014436213105" fill="#ff9d0e" stroke="none" /><path d="M 120.77682067341334 103.0534771498775 l 34.465930187533715 5.065304838077389 a55.836154449000226,55.836154449000226 0 0,0 -0.14750983493179845,0.9471189566778426 l -34.37389886046365 -5.656211976686682" fill="#76ff27" stroke="none" /><path d="M 120.7213421655516 103.40968896794604 l 29.41043811812587 4.83947640035333 a50.805945751304186,50.805945751304186 0 0,0 -0.14899492578922433,0.859363138091519 l -29.323028374844412 -5.343632571365437" fill="#b2ff20" stroke="none" /><path d="M 120.65975698304385 103.76489593502545 l 16.167928027750722 2.946335068675843 a37.43419566171209,37.43419566171209 0 0,0 -0.1206338483744365,0.6312072697072988 l -16.114967887094124 -3.2234449034164565" fill="#ff990e" stroke="none" /><path d="M 120.592083275326 104.11899336999214 l 16.01634919275403 3.2037184025708205 a37.33362339063821,37.33362339063821 0 0,0 -0.13109842152603396,0.6273534051648795 l -15.958993060403634 -3.478188259021109" fill="#ff970e" stroke="none" /><path d="M 120.51834098615036 104.47187691870673 l 14.214652148388888 3.098017275993787 a35.54833484430616,35.54833484430616 0 0,0 -0.13506528620413613,0.5951225722332071 l -14.159376000627088 -3.3415741821660108" fill="#ff7d0b" stroke="none" /><path d="M 120.43855184770803 104.8234425847677 l 20.47454819621477 4.831937625002324 a42.03698517019572,42.03698517019572 0 0,0 -0.1717760797739183,0.7009050242085584 l -20.388584589924555 -5.182698473818982" fill="#ffda14" stroke="none" /><path d="M 120.35273937422433 105.17358676015961 l 20.88004865359176 5.307626716947913 a42.544078841826085,42.544078841826085 0 0,0 -0.18599971272154964,0.7062712051314811 l -20.78585946006548 -5.665278426452198" fill="#ffe115" stroke="none" /><path d="M 120.26092885502905 105.52220625578681 l 31.07107295340755 8.468559100375426 a53.20447279047626,53.20447279047626 0 0,0 -0.24773397989665535,0.8791204986292025 l -30.92112048143632 -9.000687522907638" fill="#95ff23" stroke="none" /><path d="M 120.16314734710363 105.8691983318838 l 18.84172148463493 5.484550521986027 a40.623729587740726,40.623729587740726 0 0,0 -0.20064965371513813,0.6678974394545616 l -18.744795510916163 -5.807185565031313" fill="#ffc612" stroke="none" /><path d="M 120.05942366710727 106.21446072829308 l 19.48914800886206 6.037787871620846 a41.40298440165124,41.40298440165124 0 0,0 -0.21615371250213894,0.6770984257676028 l -19.382629580582666 -6.371455331079833" fill="#ffd113" stroke="none" /><path d="M 119.94978838288452 106.5578916946017 l 18.797377295491966 6.17907128038305 a40.78692282991803,40.78692282991803 0 0,0 -0.22435639028849827,0.6632698023699355 l -18.688535483631103 -6.500842757227145" fill="#ffc812" stroke="none" /><path d="M 119.83427380445688 106.89939002012753 l 18.768576944112294 6.5286853321096325 a40.87166859306905,40.87166859306905 0 0,0 -0.23619898811786505,0.6606906077014623 l -18.653737785950483 -6.849910896192017" fill="#ffca12" stroke="none" /><path d="M 119.71291397450082 107.23885506374661 l 15.377398885246814 5.646793869831162 a37.38141256071505,37.38141256071505 0 0,0 -0.22636993682840062,0.600473151803699 l -15.278198264603974 -5.90993530182902" fill="#ff980e" stroke="none" /><path d="M 119.58574465831526 107.57618678355244 l 18.387998927958957 7.1128730045417905 a40.71576696335598,40.71576696335598 0 0,0 -0.2577527623751924,0.6497053377519124 l -18.26318749061764 -7.427479359507267" fill="#ffc712" stroke="none" /><path d="M 119.4528033332814 107.91128576633889 l 19.811553235716083 8.057186228507813 a42.38728340702644,42.38728340702644 0 0,0 -0.27990574899343007,0.6716719014741691 l -19.670321642186167 -8.39609063942326" fill="#ffde14" stroke="none" /><path d="M 119.16976305983485 108.57439118712176 l 12.210626782811929 5.461658047049308 a34.376438803060495,34.376438803060495 0 0,0 -0.2455714220675493,0.5366178758031297 l -12.115070895889325 -5.670464905067127" fill="#ff6c09" stroke="none" /><path d="M 119.0197475246899 108.90220220490707 l 19.42606561713334 9.092379588373818 a42.44862214549566,42.44862214549566 0 0,0 -0.3145660036600642,0.6573219631560748 l -19.267120355513363 -9.424514053594995" fill="#ffdf14" stroke="none" /><path d="M 118.8641267826498 109.22738970284198 l 15.50953493251707 7.586490728200728 a38.26558760633541,38.26558760633541 0 0,0 -0.2936976538758667,0.5875920480104073 l -15.377017365429472 -7.851614632374881" fill="#ffa50f" stroke="none" /><path d="M 118.70294669586154 109.54985784667822 l 14.820135432346442 7.567266749401816 a37.640310702919365,37.640310702919365 0 0,0 -0.29877790835488166,0.5729460346143793 l -14.68804945501661 -7.820559027120698" fill="#ff9c0e" stroke="none" /><line stroke="#e1ed5e" stroke-width="0.3" x1="174.33088141563837" x2="178.70328620479359" y1="141.23008692659167" y2="143.65538615756765" /><path d="M 175.20536237346943 141.71514677278685 a86.0,86.0 0 0,1 -30.301960400862466,31.631185727798858" fill="none" id="id53" stroke="none" /><text fill="#e1ed5e" style="font-size:6.75px; font-family:Arial;" text-anchor="middle"><textPath startOffset="22.145653131862474" xlink:href="#id53">May</textPath></text><path d="M 118.36410011445183 110.18625677009912 l 18.3587449589411 10.183286355609098 a41.993876189683974,41.993876189683974 0 0,0 -0.3550814897481451,0.6273949691337617 l -18.181230104171576 -10.496938094841981" fill="#ffd914" stroke="none" /><path d="M 118.18653347947321 110.5 l 20.424491724483843 11.792085795192024 a44.58417159038406,44.58417159038406 0 0,0 -0.38836271885556545,0.6595248008167967 l -20.219055295498514 -12.140961764302372" fill="#fffc17" stroke="none" /><path d="M 118.00360718960297 110.81064883170644 l 13.9371824610752 8.368877620097908 a37.256788353591794,37.256788353591794 0 0,0 -0.3339486242690836,0.5454799805301119 l -13.791465872350711 -8.606894716752578" fill="#ff960d" stroke="none" /><path d="M 117.81537515405839 111.11811171558189 l 18.25643719084843 11.393367047346079 a42.51990500859484,42.51990500859484 0 0,0 -0.3917547320433721,0.6159035075036379 l -18.058164767179168 -11.705084229528389" fill="#ffe015" stroke="none" /><path d="M 117.62189284568427 111.42229804090321 l 13.929554199407708 9.028968739956696 a37.59984206856656,37.59984206856656 0 0,0 -0.35572236759354886,0.5386090031189659 l -13.772507392893433 -9.266757621414722" fill="#ff9b0e" stroke="none" /><path d="M 117.21940702142032 112.02048342749411 l 13.884074929407305 9.692162592324914 a37.93238176871343,37.93238176871343 0 0,0 -0.37730961087055337,0.5307332194665347 l -13.71565022000679 -9.929073038500952" fill="#ffa00e" stroke="none" /><path d="M 117.01052211995028 112.31430620078461 l 14.134115273014523 10.232009465773876 a38.44898943373365,38.44898943373365 0 0,0 -0.39162672328182674,0.5313168642217669 l -13.956386530148869 -10.47313263926452" fill="#ffa70f" stroke="none" /><path d="M 116.79662413953412 112.60449989151573 l 15.742420260740738 11.813405647487771 a40.68198030325903,40.68198030325903 0 0,0 -0.42396052127044637,0.554977931658584 l -15.537307762115988 -12.081904492387233" fill="#ffc712" stroke="none" /><path d="M 116.35404254752997 113.17365903436017 l 15.369149827413572 12.38029917593198 a40.73531287066584,40.73531287066584 0 0,0 -0.44334215837620716,0.5408053467923644 l -15.154360849798737 -12.642306804422835" fill="#ffc812" stroke="none" /><path d="M 116.1254893667686 113.45245675266167 l 18.330891070419934 15.292281291677272 a44.87206389358457,44.87206389358457 0 0,0 -0.49851887871568545,0.5872539856191866 l -18.065677628197133 -15.604702059746016" fill="#feff18" stroke="none" /><path d="M 115.89218393027572 113.72728997021213 l 14.735257932280458 12.727964847986303 a40.471233024706194,40.471233024706194 0 0,0 -0.45865265180161824,0.5218625240442171 l -14.514594216520255 -12.979039649841813" fill="#ffc412" stroke="none" /><path d="M 115.6541949942343 113.99807769240083 l 14.895672482050026 13.319802184723729 a40.982447020639725,40.982447020639725 0 0,0 -0.47344932725395467,0.5204037467668124 l -14.66482545395419 -13.573543507048214" fill="#ffcb12" stroke="none" /><path d="M 115.41159269507618 114.26474011684316 l 15.897469239359035 14.714460192515741 a42.66206054311309,42.66206054311309 0 0,0 -0.5020799706676612,0.533191529804997 l -15.642533434955114 -14.985193182265235" fill="#ffe215" stroke="none" /><path d="M 115.16444852881244 114.52719865689866 l 15.004512512930429 14.373983571582738 a41.77851773988742,41.77851773988742 0 0,0 -0.5005726900814679,0.5136316780706863 l -14.755553021698153 -14.62943794172116" fill="#ffd614" stroke="none" /><path d="M 114.91283532996324 114.78537596483092 l 14.190058490987482 14.068776668555106 a40.98219800040342,40.98219800040342 0 0,0 -0.4996082770922321,0.49533814653663594 l -13.946458293765286 -14.310294825320405" fill="#ffcb12" stroke="none" /><path d="M 114.39649973595853 115.28858382429668 l 13.716988563746902 14.566966507140398 a41.008805273631744,41.008805273631744 0 0,0 -0.5166528090183684,0.4782061268488238 l -13.464905983414567 -14.800290380121602" fill="#ffcb13" stroke="none" /><path d="M 114.13192950727249 115.5334660781643 l 13.580355218847382 14.927189313591567 a41.18036245149917,41.18036245149917 0 0,0 -0.5269811237527241,0.4712297703865513 l -13.32210906827128 -15.158114613861507" fill="#ffce13" stroke="none" /><path d="M 113.86319453409587 115.77377054828091 l 13.06583166431178 14.866517972349769 a40.79215283142112,40.79215283142112 0 0,0 -0.5299493503362578,0.45775762686287463 l -12.808702834212667 -15.088619731677362" fill="#ffc812" stroke="none" /><path d="M 113.59037401385872 116.0094264158162 l 13.843908541617319 16.308089452012315 a42.391764426608205,42.391764426608205 0 0,0 -0.5588156387356147,0.46618388080016043 l -13.561918568719808 -16.543335516724344" fill="#ffdf14" stroke="none" /><path d="M 113.03279911837588 116.46651593811092 l 26.54124080083432 33.53399071792351 a63.766412015946024,63.766412015946024 0 0,0 -0.8641565107633701,0.6719733295735273 l -25.96167434543572 -33.98466509911783" fill="#31ff44" stroke="none" /><path d="M 112.7482090630111 116.68781488649013 l 10.009098477514241 13.102231203443697 a37.48788994508004,37.48788994508004 0 0,0 -0.5147390960812365,0.3862698139112369 l -9.782706392522238 -13.272120044618948" fill="#ff9a0e" stroke="none" /><path d="M 112.45986205192187 116.90419585922612 l 9.858039847040615 13.374324343881982 a37.614857847155804,37.614857847155804 0 0,0 -0.5230596563549174,0.3786548539904808 l -9.62699918031173 -13.541579969245541" fill="#ff9b0e" stroke="none" /><path d="M 112.16784306229584 117.11559508785304 l 9.48791687109871 13.34594328358266 a37.37482118013765,37.37482118013765 0 0,0 -0.5261038384453177,0.36726133851799675 l -9.257417941479632 -13.506849437905778" fill="#ff980e" stroke="none" /><path d="M 111.5731344415666 117.5232005979908 l 9.368395396709067 14.184944679136066 a37.99939669103672,37.99939669103672 0 0,0 -0.5473982602192407,0.35481693879595844 l -9.123511504232816 -14.34367545963592" fill="#ffa10e" stroke="none" /><path d="M 111.27062007382361 117.71928675628689 l 10.657540979877483 16.75542459087273 a40.85767944544857,40.85767944544857 0 0,0 -0.5950354280394915,0.37134611572661985 l -10.368341423048276 -16.9359065034409" fill="#ffc912" stroke="none" /><path d="M 110.96478420261333 117.91015095944535 l 9.420605766759953 15.387851533993594 a39.04255491456074,39.04255491456074 0 0,0 -0.5746083249713426,0.34503578930713574 l -9.155064685231174 -15.547301323836653" fill="#ffb010" stroke="none" /><line stroke="#e1ed5e" stroke-width="0.3" x1="143.1302829299769" x2="145.66735839644613" y1="173.24464959558577" y2="177.55315839532614" /><path d="M 143.63769802327073 174.10635135553383 a86.0,86.0 0 0,1 -40.68552437913181,11.842963189579606" fill="none" id="id54" stroke="none" /><text fill="#e1ed5e" style="font-size:6.75px; font-family:Arial;" text-anchor="middle"><textPath startOffset="21.407464694133747" xlink:href="#id54">June</textPath></text><path d="M 110.65571695917076 118.09573695890943 l 9.097326276542553 15.449248883061554 a38.92876561374626,38.92876561374626 0 0,0 -0.5787549448337475,0.33414432319459236 l -8.830778863848407 -15.603140103532317" fill="#ffae10" stroke="none" /><path d="M 110.34350942703117 118.27599006163325 l 8.153854329309572 14.407079312658329 a37.5544336884361,37.5544336884361 0 0,0 -0.5637739752755256,0.31271592055505487 l -7.905336165877952 -14.544928148646527" fill="#ff9b0e" stroke="none" /><path d="M 110.02825361518725 118.45085714620011 l 8.068335596247922 14.844828741518814 a37.89576809910412,37.89576809910412 0 0,0 -0.574231297309241,0.30574582211072476 l -7.812315483152127 -14.981145031352106" fill="#ff9f0e" stroke="none" /><path d="M 109.71004243097381 118.62028667847754 l 8.990047007485284 17.239600518983217 a40.44285913262043,40.44285913262043 0 0,0 -0.6183381496931744,0.31572786506708256 l -8.692781636078529 -17.391386335723137" fill="#ffc412" stroke="none" /><path d="M 109.06512990194946 118.94263497670748 l 8.72144407698614 18.224463786733832 a41.203828030894776,41.203828030894776 0 0,0 -0.6406435658945113,0.29985353682862004 l -8.407311797220123 -18.371493555132986" fill="#ffce13" stroke="none" /><path d="M 108.73861861582097 119.09545874513695 l 13.922930269052781 30.42411532673791 a54.45855317690164,54.45855317690164 0 0,0 -0.853408569066307,0.3817187980245894 l -13.398608297130847 -30.658637875672348" fill="#86ff25" stroke="none" /><path d="M 108.07796709384702 119.3841803445677 l 6.200041643159617 14.87784289767395 a37.11802486859915,37.11802486859915 0 0,0 -0.5902570863948076,0.24005241846488293 l -5.943730095574368 -14.982082572718125" fill="#ff940d" stroke="none" /><path d="M 107.407793817531 119.65005319985036 l 5.78867256275287 15.35514170837438 a37.41003068013666,37.41003068013666 0 0,0 -0.6028552485290563,0.2213767976751547 l -5.524228162569687 -15.452249355058257" fill="#ff980e" stroke="none" /><path d="M 107.06938296918513 119.77432235084164 l 5.612177016529039 15.698257952436565 a37.67128770089745,37.67128770089745 0 0,0 -0.6108026677041402,0.21246887440256546 l -5.341868576779878 -15.79228525940772" fill="#ff9c0e" stroke="none" /><path d="M 106.38641147887787 120.00534299687104 l 10.084457510337018 31.589419519694232 a54.16003179837184,54.16003179837184 0 0,0 -0.8881197273209538,0.27514176175004534 l -9.540697150144439 -31.75787786925092" fill="#89ff24" stroke="none" /><path d="M 106.0420521117495 120.11202640906438 l 4.894503085521588 16.29220892084528 a38.01153232294642,38.01153232294642 0 0,0 -0.6265386346486108,0.18237626527430942 l -4.6141044384913705 -16.37382888042211" fill="#ffa10e" stroke="none" /><path d="M 105.69591212413111 120.21278271476187 l 4.382175746285976 15.550795771992323 a37.15644494972676,37.15644494972676 0 0,0 -0.615414410888623,0.16773393431402311 l -4.1145799344626575 -15.623730200450488" fill="#ff950d" stroke="none" /><path d="M 104.9986988182912 120.39639698878246 l 5.42932011027202 22.153478809940403 a43.80908021473647,43.80908021473647 0 0,0 -0.731961791503879,0.17274098976628754 l -5.048226165028262 -22.243415943352915" fill="#fff216" stroke="none" /><path d="M 104.64783097203109 120.47920084513623 l 4.556730113588218 20.077793653600512 a41.58838476725755,41.58838476725755 0 0,0 -0.6975710546253496,0.15203236462648687 l -4.211396642343732 -20.15305747636072" fill="#ffd313" stroke="none" /><path d="M 104.29559338865022 120.5559693870025 l 4.762194022533647 22.78882233146559 a44.28108492238624,44.28108492238624 0 0,0 -0.7454056735507435,0.14910201101357137 l -4.3702918634519445 -22.867213739142024" fill="#fff817" stroke="none" /><path d="M 103.58742460773223 120.69131181640829 l 3.4002072550550446 19.61149187724169 a40.9040705140543,40.9040705140543 0 0,0 -0.6928808618358379,0.11401328214299267 l -3.0630488901661344 -19.666971157880354" fill="#ffca12" stroke="none" /><path d="M 103.2317021107853 120.74984581791261 l 2.4929792361697447 16.006715038846703 a37.19968739842886,37.19968739842886 0 0,0 -0.6318187892505583,0.0928556041448919 l -2.2178353413115013 -16.04715171629048" fill="#ff950d" stroke="none" /><path d="M 102.875027216393 120.80226474461374 l 3.1511723078727516 22.800313065037827 a44.01704070417478,44.01704070417478 0 0,0 -0.7493842031656651,0.09702278829421454 l -2.759310282816311 -22.851047449532437" fill="#fff517" stroke="none" /><path d="M 102.51750503828377 120.84855314841334 l 2.7196087160592306 22.522261523775345 a43.68586643074927,43.68586643074927 0 0,0 -0.7452894071238236,0.08351123259316576 l -2.332583407334608 -22.56562851687548" fill="#fff016" stroke="none" /><path d="M 101.80034050326958 120.92268563240118 l 1.9852390355182878 23.071486849230123 a44.15674155537312,44.15674155537312 0 0,0 -0.7557762859379941,0.058501864394894666 l -1.588893754805058 -23.102166480620074" fill="#fff617" stroke="none" /><path d="M 101.08105385017728 120.97215588758144 l 1.009883596594116 19.591471981354125 a40.61748300049865,40.61748300049865 0 0,0 -0.6966367164768256,0.029916578048818504 l -0.6734211195164608 -19.605921127828775" fill="#ffc612" stroke="none" /><path d="M 100.72087961077811 120.9876233191556 l 0.7186320222961112 20.922187232836333 a41.93452532514958,41.93452532514958 0 0,0 -0.7196497432355772,0.018535624612368105 l -0.3593689649897902 -20.931440574798746" fill="#ffd814" stroke="none" /><line stroke="#e1ed5e" stroke-width="0.3" x1="101.45913802915013" x2="101.54496967792366" y1="184.9874750549273" y2="189.98673829345242" /><path d="M 101.47630435890484 185.9873277026323 a86.0,86.0 0 0,1 -42.54439059252881,-10.42667462771756" fill="none" id="id55" stroke="none" /><text fill="#e1ed5e" style="font-size:6.75px; font-family:Arial;" text-anchor="middle"><textPath startOffset="22.145653131862474" xlink:href="#id55">July</textPath></text><path d="M 100.36049292484886 120.99690560180557 l 0.3522086419059615 20.51438765224107 a41.51741093982996,41.51741093982996 0 0,0 -0.7127015667548112,0.006117685783324858 l -2.5126581634253646e-15 -20.517410939829958" fill="#ffd313" stroke="none" /><path d="M 100.0 121.0 l 2.5744909606745723e-15 21.022314045707162 a42.02231404570716,42.02231404570716 0 0,0 -0.7213688999644751,-0.006192084414714906 l 0.36087597511562036 -21.019216359486883" fill="#ffd914" stroke="none" /><path d="M 99.63950707515114 120.99690560180557 l -0.36209406035439196 21.090163717979877 a42.09327185999694,42.09327185999694 0 0,0 -0.7223740355020719,-0.01860579271741839 l 0.7240814099272077 -21.080840207912413" fill="#ffda14" stroke="none" /><path d="M 99.27912038922189 120.98762331915562 l -0.7053126878698964 20.534409343685866 a41.54651875821604,41.54651875821604 0 0,0 -0.7125707520677832,-0.030600854097035023 l 1.0577092005385185 -20.519275921163" fill="#ffd313" stroke="none" /><path d="M 98.55909050195518 120.95050786540614 l -1.4055541644290837 20.43644907406245 a41.484726829174264,41.484726829174264 0 0,0 -0.7100427174135637,-0.05496179695180169 l 1.7561658766178836 -20.409309510115595" fill="#ffd213" stroke="none" /><path d="M 98.19965949673042 120.92268563240118 l -1.7959339193146557 20.87147444727575 a41.948599577199175,41.948599577199175 0 0,0 -0.7169224144592357,-0.06789329803071396 l 2.1539558971589066 -20.83756939373985" fill="#ffd814" stroke="none" /><path d="M 97.84075906011543 120.88869738790638 l -2.1888117953395234 21.17476858991548 a42.28759549389946,42.28759549389946 0 0,0 -0.7214346320519996,-0.08083825529006856 l 2.5519823289923225 -21.13407457411844" fill="#ffdd14" stroke="none" /><path d="M 97.48249496171623 120.84855314841334 l -2.5556412991853557 21.164376096211885 a42.318117130553695,42.318117130553695 0 0,0 -0.7204602576188599,-0.09327800446561739 l 2.91857937869501 -21.117386495545873" fill="#ffde14" stroke="none" /><path d="M 97.12497278360702 120.80226474461374 l -2.8363131954760603 20.522149374626885 a41.717222002414566,41.717222002414566 0 0,0 -0.7085469405739038,-0.10413200011041995 l 3.188185241657649 -20.470436301217582" fill="#ffd513" stroke="none" /><path d="M 96.41257539226777 120.69131181640829 l -3.4662666671081834 19.992505011358602 a41.290767881889145,41.290767881889145 0 0,0 -0.6973524377481745,-0.12708084418964763 l 3.808953838407415 -19.93005599323759" fill="#ffcf13" stroke="none" /><path d="M 96.05791012581884 120.62667999033965 l -4.004536250284198 20.95342581743754 a42.332659563840096,42.332659563840096 0 0,0 -0.7126068539351892,-0.14254132850594384 l 4.363639589750345 -20.881595092268736" fill="#ffde14" stroke="none" /><path d="M 95.70440661134978 120.55596938700252 l -4.096559199779866 19.603518742070474 a41.02697541687235,41.02697541687235 0 0,0 -0.6881544130602483,-0.14998005142557408 l 4.4324760294592505 -19.53030723251118" fill="#ffcc13" stroke="none" /><path d="M 95.35216902796893 120.47920084513623 l -4.758397600055953 20.966377809125834 a42.499566185279704,42.499566185279704 0 0,0 -0.7100824406865799,-0.16757752254778802 l 5.117612194482421 -20.88160414293182" fill="#ffe015" stroke="none" /><path d="M 94.6519064749342 120.30758222061772 l -5.507564192890253 20.913118321182058 a42.6261827712282,42.6261827712282 0 0,0 -0.7060085321423918,-0.19242576491589616 l 5.86575412596734 -20.815492062122015" fill="#ffe215" stroke="none" /><path d="M 94.30408787586889 120.21278271476187 l -5.778381551088425 20.505437617325583 a42.304052788800306,42.304052788800306 0 0,0 -0.6972916337391996,-0.20297143214432697 l 6.1295331972092315 -20.40322249087874" fill="#ffdd14" stroke="none" /><path d="M 93.95794788825049 120.11202640906438 l -6.245190848034069 20.78820919486232 a42.70603718456519,42.70603718456519 0 0,0 -0.7002963779732071,-0.21695360800502583 l 6.601127858878909 -20.677938999050642" fill="#ffe315" stroke="none" /><path d="M 93.61358852112213 120.00534299687104 l -6.4216429059675235 20.115704940433357 a42.115849091673724,42.115849091673724 0 0,0 -0.6868438427884374,-0.22577921357676833 l 6.766009486403704 -20.002504805454567" fill="#ffdb14" stroke="none" /><path d="M 93.27111125876986 119.89276391827306 l -6.967040476784598 20.596817207649625 a42.74324106683469,42.74324106683469 0 0,0 -0.693039374635495,-0.24107506995497593 l 7.319585623465115 -20.47418370512606" fill="#ffe315" stroke="none" /><path d="M 92.93061703081489 119.77432235084164 l -7.319741019319595 20.47461837498789 a42.743702678966656,42.743702678966656 0 0,0 -0.6888063183349151,-0.2529392210542336 l 7.670136489308629 -20.34594830492494" fill="#ffe315" stroke="none" /><path d="M 92.25597844496254 119.51999308798841 l -7.85817031311696 19.807722525836482 a42.30954509909779,42.30954509909779 0 0,0 -0.6728135159478835,-0.27362739965669863 l 8.197038290255286 -19.66990786960049" fill="#ffdd14" stroke="none" /><path d="M 91.59046798132341 119.24265499422711 l -17.34028792811765 39.67797225342383 a64.30158273751081,64.30158273751081 0 0,0 -1.0076566216230605,-0.45071198997720063 l 18.018857952596345 -39.37445651253678" fill="#32ff4b" stroke="none" /><path d="M 91.26138138417905 119.09545874513695 l -9.099156859132439 19.883299873565907 a42.86641876049306,42.86641876049306 0 0,0 -0.6664937867243754,-0.3119527454311632 l 9.439139359728305 -19.724170896564218" fill="#ffe515" stroke="none" /><path d="M 90.93487009805054 118.94263497670748 l -9.454178468629456 19.755596850011198 a42.90125789576638,42.90125789576638 0 0,0 -0.6615777458718409,-0.3236108275895397 l 9.791916463763368 -19.590392272324436" fill="#ffe515" stroke="none" /><path d="M 90.6110303473126 118.78422872680471 l -9.811658834400752 19.629890238489 a42.94541500764568,42.94541500764568 0 0,0 -0.6566001767222864,-0.33526472869588336 l 10.14718623283662 -19.458567558120283" fill="#ffe615" stroke="none" /><path d="M 90.28995756902619 118.62028667847754 l -10.134525771461991 19.434289454090024 a42.91803410887441,42.91803410887441 0 0,0 -0.6503332598998883,-0.34626583073015443 l 10.46664784714844 -19.257453155637297" fill="#ffe615" stroke="none" /><line stroke="#e1ed5e" stroke-width="0.3" x1="58.13341422392154" x2="55.67067388415222" y1="173.97424548756322" y2="178.32567169271397" /><path d="M 57.64086615596768 174.84453072859336 a86.0,86.0 0 0,1 -31.369924170532247,-30.572349798747897" fill="none" id="id56" stroke="none" /><text fill="#e1ed5e" style="font-size:6.75px; font-family:Arial;" text-anchor="middle"><textPath startOffset="22.145653131862474" xlink:href="#id56">August</textPath></text><path d="M 89.65649057296885 118.27599006163327 l -11.400843300744803 20.1441977047103 a44.146661295629514,44.146661295629514 0 0,0 -0.656329532157681,-0.3789320320683411 l 11.744965300762884 -19.945518775365787" fill="#fff617" stroke="none" /><path d="M 89.34428304082925 118.09573695890944 l -10.669426921777143 18.119019472699204 a42.02701922506364,42.02701922506364 0 0,0 -0.6185321419999252,-0.3714107793990283 l 10.978891820334495 -17.93319469276426" fill="#ffda14" stroke="none" /><path d="M 89.03521579738668 117.91015095944536 l -11.269047118089063 18.407141565629168 a42.58273114243942,42.58273114243942 0 0,0 -0.6201584132124476,-0.38702471656249104 l 11.583369660091224 -18.21098105222513" fill="#ffe115" stroke="none" /><path d="M 88.72937992617639 117.7192867562869 l -8.78859024559282 13.817123612111416 a37.37535414631684,37.37535414631684 0 0,0 -0.5384086489877805,-0.3489899814051276 l 9.02448452683761 -13.664219789002393" fill="#ff980e" stroke="none" /><path d="M 88.4268655584334 117.5232005979908 l -12.277938198262667 18.590363316367625 a43.278899762665674,43.278899762665674 0 0,0 -0.6164228364805202,-0.4147567944612214 l 12.595257322840194 -18.376856847849282" fill="#ffeb16" stroke="none" /><path d="M 88.1277618465304 117.32195027204791 l -12.433493735190654 18.140838939105215 a42.99276708096508,42.99276708096508 0 0,0 -0.6051844282455344,-0.42246573190665404 l 12.743073254609953 -17.924728391393433" fill="#ffe715" stroke="none" /><path d="M 87.54013794807813 116.9041958592261 l -22.736997003683758 30.847103202207865 a59.32120573146397,59.32120573146397 0 0,0 -0.814528207946531,-0.611237152383127 l 23.263178200541056 -30.452247022560723" fill="#4eff2b" stroke="none" /><path d="M 86.96720088162412 116.46651593811092 l -13.167324166972481 16.636483942426107 a42.2167627993702,42.2167627993702 0 0,0 -0.5643963635246583,-0.454637758933164 l 13.450971300852402 -16.407997889699534" fill="#ffdc14" stroke="none" /><path d="M 86.68645165197938 116.24036423190432 l -13.429892383333168 16.382285037710115 a42.18351416750042,42.18351416750042 0 0,0 -0.5560704474671208,-0.4638937446078681 l 13.709137164962183 -16.14932910919038" fill="#ffdc14" stroke="none" /><path d="M 86.40962598614128 116.0094264158162 l -13.781106551043612 16.234108865029853 a42.294722078788865,42.294722078788865 0 0,0 -0.5494699086104915,-0.4746190201733549 l 14.057755939416966 -15.995145712391777" fill="#ffdd14" stroke="none" /><path d="M 86.13680546590413 115.77377054828092 l -14.593147165126485 16.604322646837474 a43.105733978841755,43.105733978841755 0 0,0 -0.5516199173601404,-0.4932619315606405 l 14.876032109309996 -16.35136518539345" fill="#ffe815" stroke="none" /><path d="M 85.86807049272751 115.53346607816431 l -15.084081478553719 16.580047887077445 a43.41489464595871,43.41489464595871 0 0,0 -0.546966124041015,-0.5062636786822742 l 15.366477373908701 -16.318666462262794" fill="#ffec16" stroke="none" /><path d="M 85.34317274990678 115.03919595460226 l -11.669457153119179 11.973891062165473 a37.719757696123786,37.719757696123786 0 0,0 -0.45983632099751043,-0.45590611964798017 l 11.873285394246652 -11.771804932288832" fill="#ff9d0e" stroke="none" /><path d="M 85.08716467003676 114.78537596483092 l -11.596630623895473 11.497514718415987 a37.33017717378665,37.33017717378665 0 0,0 -0.4472745377287378,-0.45894307844584 l 11.792291962775021 -11.29674894790241" fill="#ff970e" stroke="none" /><path d="M 84.83555147118756 114.52719865689866 l -12.417228644447405 11.895424152304898 a38.19560068656294,38.19560068656294 0 0,0 -0.44951523269636195,-0.4773695996542161 l 12.61959971088002 -11.68051309270619" fill="#ffa40f" stroke="none" /><path d="M 84.58840730492382 114.26474011684316 l -11.906850280031595 11.020802860244041 a37.22440073702113,37.22440073702113 0 0,0 -0.4300345335040261,-0.47268328328317893 l 12.0942825143775 -10.814782001403188" fill="#ff960d" stroke="none" /><path d="M 84.3458050057657 113.99807769240083 l -12.608411546886687 11.274519352549841 a37.914101464951855,37.914101464951855 0 0,0 -0.42967317469570765,-0.48888919878693143 l 12.800095785540988 -11.05641787595161" fill="#ffa00e" stroke="none" /><path d="M 84.1078160697243 113.72728997021213 l -14.6345682080469 12.640991462349767 a40.338181191290374,40.338181191290374 0 0,0 -0.44814842715062847,-0.5279177203302478 l 14.849411198704642 -12.387906959569966" fill="#ffc212" stroke="none" /><path d="M 83.8745106332314 113.45245675266167 l -11.910376639547108 9.93605979993442 a36.51071745741448,36.51071745741448 0 0,0 -0.39736383841770295,-0.4847192724132417 l 12.079187297203442 -9.730138245822683" fill="#ff8b0c" stroke="none" /><path d="M 83.64595745247003 113.17365903436017 l -13.33477756679373 10.741552888432931 a38.1230035686169,38.1230035686169 0 0,0 -0.40616169824148296,-0.5131720374722599 l 13.517205695676774 -10.51106090704599" fill="#ffa30f" stroke="none" /><path d="M 83.4222238831116 112.89097897827486 l -13.576189663219512 10.556927196968562 a38.19772187278893,38.19772187278893 0 0,0 -0.39807123340145,-0.5210880227807527 l 13.755412873975256 -10.32231826094694" fill="#ffa40f" stroke="none" /><path d="M 82.98947788004972 112.3143062007846 l -15.32753133074414 11.095950657948089 a39.92229736841068,39.92229736841068 0 0,0 -0.39710310248847985,-0.5585752442340142 l 15.51574953176258 -10.831198187004572" fill="#ffbc11" stroke="none" /><path d="M 82.78059297857968 112.02048342749411 l -16.73471469560183 11.682130540969785 a41.40889144268867,41.40889144268867 0 0,0 -0.4018836696723816,-0.5863602844909815 l 16.932788102089535 -11.393135521408754" fill="#ffd113" stroke="none" /><path d="M 82.576782715395 111.72311816256416 l -15.697516981840808 10.561989983306882 a39.9200336099769,39.9200336099769 0 0,0 -0.3776730988459814,-0.5718452079648583 l 15.876514519607516 -10.290964897002963" fill="#ffbc11" stroke="none" /><path d="M 82.37810715431573 111.42229804090323 l -17.132233884310082 11.10490701803221 a41.41647368538072,41.41647368538072 0 0,0 -0.38158833016014515,-0.5999202351487354 l 17.320339906096116 -10.809173108204803" fill="#ffd113" stroke="none" /><path d="M 82.18462484594161 111.11811171558189 l -17.824303226063826 11.123683492830642 a42.01052402828978,42.01052402828978 0 0,0 -0.37655840248286276,-0.6150798509931699 l 18.012629593002092 -10.816066525712914" fill="#ffd914" stroke="none" /><path d="M 81.99639281039703 110.81064883170644 l -14.377904315682867 8.63351843082241 a37.770860830806576,37.770860830806576 0 0,0 -0.3290134969992495,-0.5587368471255545 l 14.523991522811887 -8.385430415403295" fill="#ff9e0e" stroke="none" /><line stroke="#e1ed5e" stroke-width="0.3" x1="26.387840678322732" x2="22.057713659400548" y1="142.50000000000003" y2="145.00000000000006" /><path d="M 25.521815274538298 143.00000000000003 a86.0,86.0 0 0,1 -11.493303480769221,-40.785679425670985" fill="none" id="id57" stroke="none" /><text fill="#e1ed5e" style="font-size:6.75px; font-family:Arial;" text-anchor="middle"><textPath startOffset="21.40746469413373" xlink:href="#id57">September</textPath></text><path d="M 81.81346652052679 110.50000000000001 l -26.439033743293024 15.264583248803845 a51.52916649760766,51.52916649760766 0 0,0 -0.43570765229682484,-0.7698536729075983 l 26.697174760611226 -14.808472805797125" fill="#a9ff21" stroke="none" /><path d="M 81.63589988554817 110.18625677009913 l -16.986251242753877 9.421987227348076 a40.42438093207266,40.42438093207266 0 0,0 -0.33139262697036687,-0.609725108096004 l 17.145489219339574 -9.129007285777485" fill="#ffc312" stroke="none" /><path d="M 81.4637452351635 109.86951160357371 l -17.677380118159718 9.412209230525193 a41.02696807909505,41.02696807909505 0 0,0 -0.32566021586702243,-0.6244964038340176 l 17.836348403001686 -9.107366583586671" fill="#ffcc13" stroke="none" /><path d="M 81.29705330413844 109.54985784667822 l -18.655439381357322 9.525600273389344 a41.94665794535951,41.94665794535951 0 0,0 -0.3219507603862204,-0.6441171870368597 l 18.816210054955278 -9.203951230188732" fill="#ffd814" stroke="none" /><path d="M 81.1358732173502 109.22738970284198 l -18.303157945409257 8.952991734040705 a41.37551598768481,41.37551598768481 0 0,0 -0.3066137381092874,-0.6407047866571658 l 18.454150941478456 -8.637474445318434" fill="#ffd113" stroke="none" /><path d="M 80.83023694016515 108.57439118712176 l -17.130131302129715 7.662089844968861 a39.76563399463443,39.76563399463443 0 0,0 -0.27337191471140293,-0.6255284394208885 l 17.259137098858087 -7.366899335772123" fill="#ffba11" stroke="none" /><path d="M 80.68587082218212 108.24405325689762 l -15.679055740471224 6.692456561322162 a38.04763220327057,38.04763220327057 0 0,0 -0.2512487268178553,-0.6029054804754018 l 15.791630311825564 -6.422318571405479" fill="#ffa20e" stroke="none" /><path d="M 80.41425534168474 107.57618678355246 l -28.460777395772393 11.009240103818811 a51.51588467725033,51.51588467725033 0 0,0 -0.3119638012904905,-0.8275210464522357 l 28.64557188087732 -10.519050777172431" fill="#a9ff21" stroke="none" /><path d="M 80.28708602549918 107.23885506374661 l -36.171495455778285 13.282674158779633 a59.53318720681825,59.53318720681825 0 0,0 -0.3440446417219789,-0.9623540948545393 l 36.39418026754421 -12.659785107544172" fill="#4cff2c" stroke="none" /><path d="M 80.16572619554312 106.89939002012753 l -19.080217977736183 6.637090260792413 a41.20162580605414,41.20162580605414 0 0,0 -0.2266375445485436,-0.6700136296052218 l 19.191340943857092 -6.30857495671303" fill="#ffce13" stroke="none" /><path d="M 80.05021161711548 106.5578916946017 l -18.41492282142171 6.053350898245046 a40.38433490260118,40.38433490260118 0 0,0 -0.21083562072348608,-0.6604395790157515 l 18.516123157922454 -5.736342285537903" fill="#ffc312" stroke="none" /><path d="M 79.94057633289273 106.21446072829308 l -18.81237081673236 5.82812056751027 a40.69447346581471,40.69447346581471 0 0,0 -0.20099907349471183,-0.6690605442581383 l 18.909646210230704 -5.504322419661409" fill="#ffc712" stroke="none" /><path d="M 79.83685265289637 105.86919833188381 l -19.116248687541606 5.564461389749845 a40.9096507865395,40.9096507865395 0 0,0 -0.19048606393382758,-0.6759678408964185 l 19.20895324355001 -5.235485624950432" fill="#ffca12" stroke="none" /><path d="M 79.73907114497094 105.5222062557868 l -19.235752699928387 5.242789935958247 a40.93742782420509,40.93742782420509 0 0,0 -0.17897554776471689,-0.6795993066832939 l 19.322917728497835 -4.91181012490215" fill="#ffca12" stroke="none" /><path d="M 79.64726062577567 105.17358676015961 l -19.382675192831964 4.92700023865614 a40.99908570366509,40.99908570366509 0 0,0 -0.16753490260961756,-0.6835995740729365 l 19.464397621957875 -4.593544839975103" fill="#ffcb13" stroke="none" /><path d="M 79.56144815229197 104.8234425847677 l -19.346468731402453 4.5657139429077445 a40.87791729994858,40.87791729994858 0 0,0 -0.15531494298475526,-0.6843462963210392 l 19.421994535944872 -4.232933312647679" fill="#ffca12" stroke="none" /><path d="M 79.48165901384964 104.47187691870673 l -19.49899357319555 4.2497148944371785 a40.95672385567136,40.95672385567136 0 0,0 -0.1438210749643558,-0.6882359075196597 l 19.569072358984272 -3.9143625356321103" fill="#ffcb12" stroke="none" /><path d="M 79.34024301695615 103.76489593502545 l -19.120188809099513 3.4843353280185663 a40.435076865649194,40.435076865649194 0 0,0 -0.11858102802316854,-0.6839438579557123 l 19.177184654614916 -3.1555984371422614" fill="#ffc312" stroke="none" /><path d="M 79.2786578344484 103.40968896794605 l -19.56641878007701 3.219646764366093 a40.82954535950442,40.82954535950442 0 0,0 -0.10786486920086803,-0.6925698373057809 l 19.618805141416146 -2.883288745128862" fill="#ffc912" stroke="none" /><path d="M 79.22317932658666 103.0534771498775 l -18.99306435094083 2.7913263974965496 a40.197083020509666,40.197083020509666 0 0,0 -0.0944736412165482,-0.6835642058512295 l 19.03818250871259 -2.4648738834452346" fill="#ffc011" stroke="none" /><path d="M 79.17382384314188 102.69636545807758 l -19.80422497650458 2.5640534176054044 a40.969519194220524,40.969519194220524 0 0,0 -0.08431510221518916,-0.6982499987152232 l 19.845322164979432 -2.223709741966782" fill="#ffcb12" stroke="none" /><path d="M 79.13060592940153 102.33845913500099 l -19.797113060279518 2.218307811230587 a40.92100838478957,40.92100838478957 0 0,0 -0.07223066086008724,-0.6987661214479899 l 19.832276113621273 -1.8781371674996659" fill="#ffca12" stroke="none" /><path d="M 79.06263194458094 101.62068470465958 l -39.523275477488745 3.0593514846214904 a60.64150521834304,60.64150521834304 0 0,0 -0.0714300299090372,-1.0385769581407513 l 39.569969468562846 -2.3804311023263955" fill="#40ff2d" stroke="none" /><path d="M 79.03789590574601 101.26102812881392 l -19.538233929283184 1.1753716354708055 a40.57355572084086,40.57355572084086 0 0,0 -0.035856224013047104,-0.6956011667858866 l 19.5555317427528 -0.839798675308188" fill="#ffc512" stroke="none" /><path d="M 79.01933749520258 100.90099992219065 l -16.876230933212312 0.7247379702246699 a37.89178544845386,37.89178544845386 0 0,0 -0.02232965262728056,-0.6501034724551603 l 16.886185272836443 -0.43492823320538965" fill="#ff9f0e" stroke="none" /><path d="M 79.00696218219943 100.54070618675478 l -29.8309609606479 0.7683397366428512 a50.840854173206964,50.840854173206964 0 0,0 -0.014982481125387475,-0.8726544134047678 l 29.83975487337195 -0.2561384072690309" fill="#b2ff20" stroke="none" /><line stroke="#e1ed5e" stroke-width="0.3" x1="15.003131293944662" x2="10.003315487706104" y1="100.72959589197737" y2="100.7725132973878" /><path d="M 14.003168132696942 100.73817937305945 a86.0,86.0 0 0,1 10.791469493833604,-42.45332614584628" fill="none" id="id58" stroke="none" /><text fill="#e1ed5e" style="font-size:6.75px; font-family:Arial;" text-anchor="middle"><textPath startOffset="22.145653131862435" xlink:href="#id58">October</textPath></text><path d="M 79.00077361379809 100.18025310272382 l -19.919827571712663 0.17098776209603786 a40.920561420340306,40.920561420340306 0 0,0 0.0,-0.7024817296397035 l 19.919827571712663 0.17098776209603053" fill="#ffca12" stroke="none" /><path d="M 79.00696218219943 99.45929381324524 l -38.252144152378385 -0.9852395436685265 a59.26483018664455,59.26483018664455 0 0,0 0.03492480112563007,-1.0167974784722937 l 38.229594664255906 1.6417432867049588" fill="#4fff2b" stroke="none" /><path d="M 79.01933749520258 99.09900007780938 l -19.735399784216 -0.8475229829331424 a40.75358954340787,40.75358954340787 0 0,0 0.03601532599357073,-0.698687702703558 l 19.717942868765856 1.1861824790134123" fill="#ffc812" stroke="none" /><path d="M 79.03789590574601 98.7389718711861 l -19.23295247791266 -1.1570066614370662 a40.26772237272108,40.26772237272108 0 0,0 0.04743161640028856,-0.6896452926512926 l 19.210256900347307 1.486995378242684" fill="#ffc112" stroke="none" /><path d="M 79.06263194458094 98.37931529534042 l -19.617858001264718 -1.518546281303218 a40.67654276965966,40.67654276965966 0 0,0 0.05986497991383287,-0.6957218108754613 l 19.58889939865314 1.8550891395543598" fill="#ffc712" stroke="none" /><path d="M 79.0935383218832 98.0201363427161 l -18.84974435650829 -1.7850903885666431 a39.93408064842519,39.93408064842519 0 0,0 0.07048861086101962,-0.6819133679673676 l 18.816323353165608 2.1084082788169236" fill="#ffbc11" stroke="none" /><path d="M 79.13060592940154 97.66154086499901 l -19.34956151994858 -2.1681587276333354 a40.47065595408864,40.47065595408864 0 0,0 0.08328844371611636,-0.6897477935725955 l 19.309490989972797 2.5000001981293676" fill="#ffc412" stroke="none" /><path d="M 79.22317932658666 96.9465228501225 l -33.11841290092073 -4.867266201251553 a54.47416247420865,54.47416247420865 0 0,0 0.14391167862317508,-0.9240162120333069 l 33.02997973015928 5.4350705952163105" fill="#86ff25" stroke="none" /><path d="M 79.2786578344484 96.59031103205396 l -19.75373230487147 -3.250469133589858 a41.01937785149536,41.01937785149536 0 0,0 0.12029456530187349,-0.6938270856244706 l 19.69502292207736 3.5890892521349214" fill="#ffcc13" stroke="none" /><path d="M 79.34024301695615 96.23510406497455 l -19.526193162139453 -3.558322845859028 a40.84776765484078,40.84776765484078 0 0,0 0.13163428043809355,-0.6887661786044886 l 19.4622325894192 3.892991589496831" fill="#ffc912" stroke="none" /><path d="M 79.407916724674 95.88100663000787 l -6.275042976678011 -1.255184338163727 a27.3993477856675,27.3993477856675 0 0,0 0.09621383941116371,-0.4604180513843627 l 6.252571426442481 1.362718840833499" fill="#ff0000" stroke="none" /><path d="M 79.48165901384962 95.52812308129327 l -19.522540312338215 -4.254846796638912 a40.98082334414023,40.98082334414023 0 0,0 0.1557059327279339,-0.6860690692719286 l 19.44662351805262 4.589350199849849" fill="#ffcb12" stroke="none" /><path d="M 79.56144815229197 95.17655741523228 l -19.289137133960654 -4.552183842017337 a40.81901080034681,40.81901080034681 0 0,0 0.16679906104455705,-0.6805970893809415 l 19.208150546399796 4.882636756006396" fill="#ffc912" stroke="none" /><path d="M 79.64726062577567 94.8264132398404 l -10.142472240631667 -2.5781767817393892 a31.465024542249484,31.465024542249484 0 0,0 0.13756286855790362,-0.5223486183722367 l 10.096719891269037 2.7519059044844107" fill="#ff4006" stroke="none" /><path d="M 79.73907114497095 94.47779374421319 l -19.30940873778913 -5.262865216611056 a41.01377066150259,41.01377066150259 0 0,0 0.1909708733804281,-0.6776882585904987 l 19.216219372334123 5.593561399104568" fill="#ffcc13" stroke="none" /><path d="M 79.83685265289637 94.1308016681162 l -19.12819068731039 -5.567937531837962 a40.92208842788722,40.92208842788722 0 0,0 0.20212331451796872,-0.672802776984984 l 19.02979105278879 5.89547791241367" fill="#ffca12" stroke="none" /><path d="M 79.94057633289273 93.78553927170692 l -18.849088359131866 -5.839495756003605 a40.73291267539449,40.73291267539449 0 0,0 0.21265545039938277,-0.6661401695559471 l 18.746068192955224 6.162204959250944" fill="#ffc812" stroke="none" /><path d="M 80.05021161711548 93.44210830539832 l -18.97113452509801 -6.236188733011666 a40.96982711700598,40.96982711700598 0 0,0 0.22536249084162072,-0.666244159882887 l 18.861286612684022 6.560934567368715" fill="#ffcb12" stroke="none" /><path d="M 80.16572619554312 93.10060997987247 l -18.848993312069272 -6.556658319273522 a40.95681129825431,40.95681129825431 0 0,0 0.23669103117611653,-0.6620669397076318 l 18.733662110849213 6.879260215362075" fill="#ffcb12" stroke="none" /><path d="M 80.28708602549916 92.7611449362534 l -18.773263381453894 -6.893802350462868 a40.998998195826836,40.998998195826836 0 0,0 0.2482768840407844,-0.6585839319864484 l 18.65215581359867 7.215054562643461" fill="#ffcb13" stroke="none" /><path d="M 80.41425534168474 92.42381321644754 l -18.655199189913127 -7.216231805981061 a41.002261329484426,41.002261329484426 0 0,0 0.2595664262155528,-0.6542769554025277 l 18.528574088731443 7.535409778597172" fill="#ffcb13" stroke="none" /><path d="M 80.5471966667186 92.08871423366112 l -18.44540062228211 -7.501583853871358 a40.91247258461763,40.91247258461763 0 0,0 0.27016678969506314,-0.6483019445017286 l 18.31390798805057 7.81711830781435" fill="#ffca12" stroke="none" /><path d="M 80.68587082218212 91.75594674310238 l -18.444333087889593 -7.872789027379795 a41.05428208953516,41.05428208953516 0 0,0 0.2822308253260061,-0.645799360585464 l 18.306468380546608 8.188250457741127" fill="#ffcc13" stroke="none" /><path d="M 80.9802524753101 91.09779779509293 l -18.022192682873076 -8.435296169440008 a40.89858413467584,40.89858413467584 0 0,0 0.3030794291155958,-0.6333194401826552 l 17.874733995797577 8.74342811168775" fill="#ffca12" stroke="none" /><path d="M 81.1358732173502 90.77261029715801 l -17.093950489113933 -8.36150777300831 a40.02939714132733,40.02939714132733 0 0,0 0.307235319300986,-0.6146764473831955 l 16.9478952566012 8.653716076555275" fill="#ffbe11" stroke="none" /><path d="M 81.29705330413844 90.45014215332179 l -17.802989744802996 -9.090333415020563 a40.98951238649408,40.98951238649408 0 0,0 0.3253629034038246,-0.623926267983715 l 17.64431877242423 9.394605926108763" fill="#ffcb12" stroke="none" /><path d="M 81.46374523516351 90.13048839642627 l -16.193604357035287 -8.622182211728555 a39.34597634808354,39.34597634808354 0 0,0 0.3225520382022384,-0.5934594204989238 l 16.0432069692177 8.898896465702098" fill="#ffb410" stroke="none" /><path d="M 81.63589988554816 89.8137432299009 l -16.900686469211717 -9.37452588982844 a40.32653457787142,40.32653457787142 0 0,0 0.34098319263533505,-0.6024846290081665 l 16.73726991155501 9.663267288935712" fill="#ffc212" stroke="none" /><line stroke="#e1ed5e" stroke-width="0.3" x1="26.387840678322718" x2="22.05771365940052" y1="57.49999999999999" y2="54.99999999999999" /><path d="M 25.521815274538284 56.99999999999999 a86.0,86.0 0 0,1 29.574782752854787,-30.34633250058573" fill="none" id="id59" stroke="none" /><text fill="#e1ed5e" style="font-size:6.75px; font-family:Arial;" text-anchor="middle"><textPath startOffset="21.40746469413373" xlink:href="#id59">November</textPath></text><path d="M 81.81346652052679 89.5 l -16.445797216882323 -9.494985450205009 a39.989970900410015,39.989970900410015 0 0,0 0.34834366708714715,-0.5915637019136377 l 16.280379839665397 9.77590032041222" fill="#ffbd11" stroke="none" /><path d="M 81.99639281039701 89.18935116829357 l -17.201175500290947 -10.328811658009643 a41.06401726620184,41.06401726620184 0 0,0 0.368074455126479,-0.6012219605799035 l 17.021333080709077 10.62257073471409" fill="#ffcc13" stroke="none" /><path d="M 82.18462484594161 88.88188828441811 l -16.849419755875306 -10.515284105363287 a40.86137321350633,40.86137321350633 0 0,0 0.37647394346120155,-0.5918795697809447 l 16.666428120788215 10.802977349822903" fill="#ffc912" stroke="none" /><path d="M 82.37810715431573 88.57770195909679 l -16.769950485628804 -10.870079295990845 a40.98474075867812,40.98474075867812 0 0,0 0.38774601742470677,-0.5870968905365522 l 16.580880029283367 11.156356064866458" fill="#ffcb12" stroke="none" /><path d="M 82.576782715395 88.27688183743585 l -16.658349742450078 -11.208481145248468 a41.07811409782246,41.07811409782246 0 0,0 0.3986733926384658,-0.5816763943582056 l 16.463486612996295 11.492792274676708" fill="#ffcc13" stroke="none" /><path d="M 82.78059297857968 87.97951657250589 l -15.294949455042618 -10.677062585255923 a39.65301970946743,39.65301970946743 0 0,0 0.39442462452386523,-0.5548076295417986 l 15.10940973198878 10.938047441507242" fill="#ffb911" stroke="none" /><path d="M 82.98947788004972 87.6856937992154 l -16.112876845859653 -11.664480246772579 a40.8918299730615,40.8918299730615 0 0,0 0.4165085641314153,-0.5650738600301348 l 15.91026626214442 11.939360416071576" fill="#ffca12" stroke="none" /><path d="M 83.2033758604659 87.39550010848427 l -15.97259469531811 -11.986132834305726 a40.96975617333687,40.96975617333687 0 0,0 0.42695952984814084,-0.5589037301562471 l 15.764483188115662 12.258557477702857" fill="#ffcb12" stroke="none" /><path d="M 83.42222388311158 87.10902102172516 l -15.827998411894884 -12.307947299881977 a41.05021447425486,41.05021447425486 0 0,0 0.4373481432025938,-0.5525750918998409 l 15.614383838050728 12.5778423356965" fill="#ffcc13" stroke="none" /><path d="M 83.64595745247003 86.82634096563983 l -15.656417189938232 -12.611701428592212 a41.104188920455066,41.104188920455066 0 0,0 0.4473568152564892,-0.5457025754122363 l 15.437613555443113 12.878606285702942" fill="#ffcd13" stroke="none" /><path d="M 83.8745106332314 86.54754324733833 l -15.313386303036882 -12.774971493450328 a40.94240950147464,40.94240950147464 0 0,0 0.4548612723720002,-0.5358254351218151 l 15.091830467157768 13.0359637110217" fill="#ffcb12" stroke="none" /><path d="M 84.10781606972428 86.27271002978789 l -15.145362786688972 -13.082203653637954 a41.01314733807957,41.01314733807957 0 0,0 0.4647940618428114,-0.528850321308005 l 14.918557660887569 13.340266252757258" fill="#ffcc13" stroke="none" /><path d="M 84.34580500576568 86.00192230759919 l -14.838245233303669 -13.268450384780731 a40.9054087427776,40.9054087427776 0 0,0 0.4725593432857661,-0.5194254984835266 l 14.608288189176037 13.521213458821917" fill="#ffca12" stroke="none" /><path d="M 84.58840730492382 85.73525988315684 l -14.684446396741528 -13.591704358768515 a41.009182725812224,41.009182725812224 0 0,0 0.4826276320917978,-0.5125338203374024 l 14.44896293091346 13.841779639050428" fill="#ffcb13" stroke="none" /><path d="M 84.83555147118756 85.47280134310135 l -14.440364059050655 -13.833542114320212 a40.9972748540043,40.9972748540043 0 0,0 0.49121216524360906,-0.5040269549698174 l 14.200765092656242 14.079391761357758" fill="#ffcb12" stroke="none" /><path d="M 85.08716467003674 85.21462403516908 l -14.242729771344933 -14.120997769734245 a41.056368797775804,41.056368797775804 0 0,0 0.5005124829692442,-0.49623462420472697 l 13.998225368245713 14.363412404167645" fill="#ffcc13" stroke="none" /><path d="M 85.34317274990677 84.96080404539775 l -13.717859636894698 -14.07573246492865 a40.654666556362415,40.654666556362415 0 0,0 0.5039775372663302,-0.482799080268032 l 13.474209613763067 14.309143675502252" fill="#ffc712" stroke="none" /><path d="M 85.60350026404147 84.71141617570332 l -13.632541553664572 -14.477286708853718 a40.885623441641044,40.885623441641044 0 0,0 0.5151008925679317,-0.4767696961510689 l 13.382010889782688 14.709174151137153" fill="#ffca12" stroke="none" /><path d="M 85.86807049272753 84.46653392183569 l -13.550267340211619 -14.894117464350337 a41.13565196444037,41.13565196444037 0 0,0 0.5264089679650557,-0.47071814515312765 l 13.292593345423171 15.124531139386866" fill="#ffcd13" stroke="none" /><path d="M 86.13680546590413 84.22622945171909 l -13.13844640505269 -14.949140217608814 a40.90214981312751,40.90214981312751 0 0,0 0.5313783709921597,-0.45899198087004456 l 12.87988855429768 15.17247633094357" fill="#ffca12" stroke="none" /><path d="M 86.40962598614128 83.9905735841838 l -12.985359521421524 -15.296720865012482 a41.06512474724941,41.06512474724941 0 0,0 0.5413276428991232,-0.451594772691234 l 12.720857544360491 15.517377821615597" fill="#ffcc13" stroke="none" /><path d="M 86.68645165197937 83.75963576809568 l -12.683937491791253 -15.472341360597703 a41.006889250319006,41.006889250319006 0 0,0 0.5482215508168964,-0.4416084747707034 l 12.416465170619112 15.687798129161806" fill="#ffcb13" stroke="none" /><path d="M 86.96720088162412 83.53348406188908 l -9.681747691867637 -12.232571930931002 a36.600386354651135,36.600386354651135 0 0,0 0.4960050466210287,-0.38569652431221624 l 9.470332700611364 12.396969506864021" fill="#ff8d0d" stroke="none" /><path d="M 87.25179093698888 83.31218511350988 l -10.866036400627427 -14.223990452875714 a38.8995153974419,38.8995153974419 0 0,0 0.5341218570320257,-0.40081499907892637 l 10.62026155468465 14.408424479218642" fill="#ffae10" stroke="none" /><path d="M 87.54013794807813 83.09580414077388 l -11.790193059514975 -15.995661257372257 a40.87133189902566,40.87133189902566 0 0,0 0.5683430974201757,-0.4114365731623276 l 11.51386895172083 16.19569860190766" fill="#ffca12" stroke="none" /><path d="M 87.83215693770416 82.88440491214696 l -10.579535953211028 -14.881442229776573 a39.25880346089147,39.25880346089147 0 0,0 0.5526235722706613,-0.38577417235440903 l 10.322517289766601 15.06086121793611" fill="#ffb310" stroke="none" /><path d="M 88.12776184653039 82.6780497279521 l -11.344062924574162 -16.551326828381505 a41.065746520291725,41.065746520291725 0 0,0 0.5849008198232094,-0.39354737487127767 l 11.058265816653964 16.74362387730989" fill="#ffcc13" stroke="none" /><path d="M 88.4268655584334 82.4767994020092 l -9.820279619362802 -14.869154987122151 a38.81936199288661,38.81936199288661 0 0,0 0.5592102261649395,-0.36247331241383457 l 9.563583760940837 15.035542141239892" fill="#ffad10" stroke="none" /><path d="M 88.72937992617638 82.28071324371311 l -10.783710191691684 -16.953783547993698 a41.092764421318854,41.092764421318854 0 0,0 0.5984591146301776,-0.3734827493739763 l 10.491086948271807 17.13640209420921" fill="#ffcd13" stroke="none" /><path d="M 89.03521579738668 82.08984904055464 l -10.398270378697424 -16.984793203245456 a40.91500005085386,40.91500005085386 0 0,0 0.6021660133890401,-0.36158338940525997 l 10.10517160875095 17.16079059318664" fill="#ffca12" stroke="none" /><line stroke="#e1ed5e" stroke-width="0.3" x1="56.869717070023135" x2="54.33264160355391" y1="26.7553504044142" y2="22.446841604673864" /><path d="M 56.362301976729285 25.89364864446614 a86.0,86.0 0 0,1 42.16139366436587,-11.88097634709845" fill="none" id="id60" stroke="none" /><text fill="#e1ed5e" style="font-size:6.75px; font-family:Arial;" text-anchor="middle"><textPath startOffset="22.145653131862474" xlink:href="#id60">December</textPath></text><path d="M 89.34428304082924 81.90426304109057 l -10.184418783673141 -17.29536962129178 a41.07117824888058,41.07117824888058 0 0,0 0.6106062477689826,-0.35253368151828757 l 9.88602006804376 17.46765020008624" fill="#ffcc13" stroke="none" /><path d="M 89.65649057296885 81.72400993836675 l -9.847669143324936 -17.399887790822714 a40.993315950327386,40.993315950327386 0 0,0 0.615399100004469,-0.3413515069981744 l 9.547525855164364 17.566372213254034" fill="#ffcb12" stroke="none" /><path d="M 89.97174638481275 81.54914285379989 l -9.560312032469776 -17.589897339358824 a41.020091272703255,41.020091272703255 0 0,0 0.6215738962109629,-0.33095308944339885 l 9.25694932047225 17.7514208965248" fill="#ffcc13" stroke="none" /><path d="M 90.28995756902619 81.37971332152246 l -9.120962204972448 -17.49064767198065 a40.72599066029126,40.72599066029126 0 0,0 0.6226669985603054,-0.3179382061429135 l 8.81936798469856 17.644643829796397" fill="#ffc812" stroke="none" /><path d="M 90.61103034731259 81.2157712731953 l -8.982449339847596 -17.970915783963374 a41.0907493702259,41.0907493702259 0 0,0 0.6336580016042573,-0.3099538815920354 l 8.672631088981285 18.12246341565262" fill="#ffcd13" stroke="none" /><path d="M 90.93487009805054 81.0573650232925 l -8.64452793788226 -18.063738638542745 a41.02564647821411,41.02564647821411 0 0,0 0.6378731712311395,-0.2985568522407317 l 8.3331660527796 18.20947172235402" fill="#ffcc13" stroke="none" /><path d="M 91.26138138417902 80.90454125486306 l -8.339298906882114 -18.22287311537196 a41.040384498239334,41.040384498239334 0 0,0 0.643135260953457,-0.28766622187421653 l 8.025250243073037 18.36334308815602" fill="#ffcc13" stroke="none" /><path d="M 91.92203290615298 80.6158196554323 l -7.695518619121089 -18.46644323070408 a41.005762480096976,41.005762480096976 0 0,0 0.6520805450339423,-0.2651954808799969 l 7.377383612896706 18.595825968163368" fill="#ffcb13" stroke="none" /><path d="M 92.25597844496254 80.48000691201159 l -7.399956390507109 -18.65272411337129 a41.06697464569459,41.06697464569459 0 0,0 0.6575169510170231,-0.25434168172625193 l 7.078667176996556 18.77700568323558" fill="#ffcc13" stroke="none" /><path d="M 92.93061703081487 80.22567764915836 l -6.78327038629808 -18.974014535109816 a41.150086469099506,41.150086469099506 0 0,0 0.6672079486941596,-0.23208955911135118 l 6.4565566655589155 19.087662526789753" fill="#ffcd13" stroke="none" /><path d="M 93.27111125876988 80.10723608172694 l -6.425544477984324 -18.995980504730078 a41.053301403375954,41.053301403375954 0 0,0 0.6695153464356918,-0.22008299263794634 l 6.0985063939008715 19.10348441877005" fill="#ffcc13" stroke="none" /><path d="M 93.61358852112211 79.99465700312896 l -5.639867363248079 -17.66680418757805 a39.54519005233584,39.54519005233584 0 0,0 0.6484646009235252,-0.20089599098181066 l 5.335762129452938 17.761016766366502" fill="#ffb711" stroke="none" /><path d="M 93.95794788825049 79.88797359093562 l -5.779236402746265 -19.237198389969453 a41.08654712223758,41.08654712223758 0 0,0 0.6772236624844347,-0.19712993818581248 l 5.448152727880205 19.333572022457787" fill="#ffcd13" stroke="none" /><path d="M 94.30408787586887 79.78721728523814 l -5.45119854675999 -19.344380559152864 a41.09777661368365,41.09777661368365 0 0,0 0.6806938612605246,-0.18552613879770194 l 5.118323284564788 19.435107192094705" fill="#ffcd13" stroke="none" /><path d="M 94.6519064749342 79.69241777938228 l -5.102675489254444 -19.375689964563648 a41.03633346576989,41.03633346576989 0 0,0 0.6827560808751559,-0.17355392586158053 l 4.76931411515391 19.460429122260493" fill="#ffcc13" stroke="none" /><path d="M 95.00130118170881 79.60360301121753 l -4.656891469182611 -19.001706362375582 a40.56403544358092,40.56403544358092 0 0,0 0.6777436072241598,-0.1599456459047344 l 4.330015708218545 19.07884815192655" fill="#ffc512" stroke="none" /><path d="M 95.35216902796891 79.52079915486377 l -4.4490356426673 -19.603271943759463 a41.101795667320644,41.101795667320644 0 0,0 0.6894093894510388,-0.15025356768886824 l 4.111863836597143 19.676756969582048" fill="#ffcd13" stroke="none" /><path d="M 95.70440661134978 79.44403061299748 l -4.053442283813119 -19.39718869067032 a40.8161884188073,40.8161884188073 0 0,0 0.6870793358703917,-0.13743510995314284 l 3.719866462411751 19.463913197286328" fill="#ffc912" stroke="none" /><path d="M 96.41257539226777 79.30868818359171 l -3.4222499848523955 -19.738628485085354 a41.03310383917193,41.03310383917193 0 0,0 0.6950665788167991,-0.1143729410404517 l 3.082905902982523 19.794467424621473" fill="#ffcc13" stroke="none" /><path d="M 97.12497278360702 79.19773525538626 l -2.7392215062342578 -19.81964227744404 a41.00803724671822,41.00803724671822 0 0,0 0.6981563236395306,-0.09039031367168321 l 2.398587360703933 19.86374418731612" fill="#ffcb13" stroke="none" /><path d="M 97.48249496171623 79.15144685158666 l -2.374881212274019 -19.66742327118315 a40.810290227563264,40.810290227563264 0 0,0 0.6962315158946507,-0.07801419355596793 l 2.036913794778569 19.705293225246088" fill="#ffc912" stroke="none" /><path d="M 97.84075906011542 79.11130261209362 l -2.0633759355192147 -19.961290432392914 a41.067651481367236,41.067651481367236 0 0,0 0.7018665736864149,-0.06646749425602926 l 1.7204097984477842 19.993769682154127" fill="#ffcc13" stroke="none" /><path d="M 98.1996594967304 79.07731436759882 l -1.7039600823285899 -19.80259904611106 a40.87577442373524,40.87577442373524 0 0,0 0.6996200328792678,-0.054155015251180404 l 1.3637710546741049 19.82893182835729" fill="#ffca12" stroke="none" /><path d="M 98.5590905019552 79.04949213459386 l -1.373993957633527 -19.977570593768494 a41.02476432382207,41.02476432382207 0 0,0 0.7029996735410075,-0.042290714658038076 l 1.0308499319600357 19.998213286251225" fill="#ffcc13" stroke="none" /><path d="M 98.9189461498227 79.02784411241856 l -1.0332266867875366 -20.044321694949584 a41.07093394929385,41.07093394929385 0 0,0 0.7044139236476604,-0.03025056478800077 l 0.688987002539056 20.059104828163413" fill="#ffcc13" stroke="none" /><path d="M 99.27912038922189 79.0123766808444 l -0.8826660351080319 -25.69785853904802 a46.71301290830105,46.71301290830105 0 0,0 0.8016546624663418,-0.020647780440278193 l 0.4413980585709462 25.709224036838343" fill="#e6ff1a" stroke="none" /></svg>