<?xml version="1.0" encoding="utf-8" ?>
<svg baseProfile="full" height="200mm" version="1.1" viewBox="0,0,200,200" width="200mm" xmlns="http://www.w3.org/2000/svg" xmlns:ev="http://www.w3.org/2001/xml-events" xmlns:xlink="http://www.w3.org/1999/xlink"><defs /><rect fill="#1a1a1a" height="200" width="200" x="0" y="0" /><text alignment-baseline="middle" fill="#e1ed5e" style="dominant-baseline: central; font-size:9.0px; font-family:Arial;" text-anchor="middle" x="100.0" y="100.0">2018</text><line stroke="#e1ed5e" stroke-width="0.3" x1="100.0" x2="100.0" y1="15.0" y2="10.0" /><path d="M 100.0 14.0 a86.0,86.0 0 0,1 42.46469731375804,11.215312516191453" fill="none" id="id109" stroke="none" /><text fill="#e1ed5e" style="font-size:6.75px; font-family:Arial;" text-anchor="middle"><textPath startOffset="22.20632615414155" xlink:href="#id109">January</textPath></text><path d="M 101.44485096284872 79.0497635885617 l 0.494761240609037 -7.174002872614022 a28.191043450117878,28.191043450117878 0 0,0 0.4838251729302379,0.0375541451976501 l -0.618176602901616 7.164423465227907" fill="#ff3d05" stroke="none" /><path d="M 103.2404852339499 79.25152402106235 l 1.5553304130840246 -9.958612178537683 a31.07933575273605,31.07933575273605 0 0,0 0.5278614931240384,0.08710166925726903 l -1.7265211123469382 9.93036424634079" fill="#ff6609" stroke="none" /><path d="M 103.95276090670814 79.375362276772 l 1.9445156881079084 -10.146055519396075 a31.330710714368365,31.330710714368365 0 0,0 0.5287931567828755,0.10607093262290539 l -2.1188752543579095 10.111080630695962" fill="#ff6a09" stroke="none" /><path d="M 105.01212808612495 79.60689891045804 l 2.4479699200385086 -9.960180024469294 a31.256595090440612,31.256595090440612 0 0,0 0.5213765442929825,0.13291049007329628 l -2.6190553530165164 9.91656653822713" fill="#ff6909" stroke="none" /><path d="M 105.71112130821622 79.79150937346287 l 2.8265917144159807 -10.001740303370266 a31.393480159025955,31.393480159025955 0 0,0 0.5187545102327384,0.1514386667222312 l -2.9983364423721466 9.95160330772933" fill="#ff6a09" stroke="none" /><path d="M 106.40334571778207 80.00007090966166 l 3.1404463689088646 -9.808732412458733 a31.29920554874071,31.29920554874071 0 0,0 0.511693091192768,0.1686971671288862 l -3.30882228234405 9.75322152107061" fill="#ff6909" stroke="none" /><path d="M 107.4271985657038 80.35727306442388 l 4.956625947228878 -13.108798578886809 a35.01459028878716,35.01459028878716 0 0,0 0.5619288760933545,0.21801967383533938 l -5.1815379883219 13.021536201160924" fill="#ff9d0e" stroke="none" /><path d="M 108.09893153111575 80.62456947434976 l 3.9981929192209837 -9.565052974813913 a31.367052861363508,31.367052861363508 0 0,0 0.4963705302895648,0.21251995654909012 l -4.162247207300863 9.494813490302032" fill="#ff6a09" stroke="none" /><path d="M 108.76106565485865 80.91482961587045 l 3.9025721548988157 -8.501392119039565 a30.354343236478957,30.354343236478957 0 0,0 0.47298107088888547,0.22207095476608354 l -4.048331437087299 8.432956181633479" fill="#ff5c08" stroke="none" /><path d="M 110.36928655335952 81.73862282372117 l 5.062129931515329 -8.914930021369896 a31.251884545266087,31.251884545266087 0 0,0 0.4655091239226447,0.2696529311108751 l -5.2148357879033025 8.82647293286897" fill="#ff6809" stroke="none" /><line stroke="#e1ed5e" stroke-width="0.3" x1="143.23703022742887" x2="145.7803849466894" y1="26.81831364943548" y2="22.513508569990506" /><path d="M 143.74570117128098 25.957352633546492 a86.0,86.0 0 0,1 28.547481713284135,27.462654790039103" fill="none" id="id110" stroke="none" /><text fill="#e1ed5e" style="font-size:6.75px; font-family:Arial;" text-anchor="middle"><textPath startOffset="19.985693538727396" xlink:href="#id110">February</textPath></text><path d="M 110.68208982089419 81.91981866633111 l 1.5857031592430275 -2.6839130864081824 a24.11734566011317,24.11734566011317 0 0,0 0.35560214659583184,0.21424631446441328 l -1.631667372056497 2.6562201624851545" fill="#ff0000" stroke="none" /><path d="M 110.99172775467656 82.1063720568725 l 4.817900126037386 -7.843144794573459 a30.20473149489521,30.20473149489521 0 0,0 0.44067386846543766,0.27594993600555867 l -4.952193146875087 7.759050517244956" fill="#ff5a08" stroke="none" /><path d="M 111.2981086023043 82.29822771554956 l 1.6867099074577618 -2.642721515852146 a24.135118390470133,24.135118390470133 0 0,0 0.3482731766148896,0.22652656191899162 l -1.7319501098569314 2.6132960297736267" fill="#ff0000" stroke="none" /><path d="M 111.60114157652 82.49532879139004 l 9.763403497725104 -14.731754368946923 a38.67338775239138,38.67338775239138 0 0,0 0.551731686762476,0.37253169777920403 l -10.015539878894122 14.561510758869048" fill="#ffce13" stroke="none" /><path d="M 111.90073688211348 82.69761687909136 l 3.2755626625726735 -4.762313517708071 a26.78004678159141,26.78004678159141 0 0,0 0.37755894916772786,0.264504172094902 l -3.3570527513240522 4.705224502849234" fill="#ff2803" stroke="none" /><path d="M 112.19680574252982 82.90503203632743 l 3.4060796372302335 -4.773940284802071 a26.864459424193377,26.864459424193377 0 0,0 0.37412557058233115,0.27181813784233333 l -3.487750524166353 4.714602912143063" fill="#ff2904" stroke="none" /><path d="M 112.48926042617603 83.11751280151076 l 6.141358784857081 -8.301645376004414 a31.326354810545524,31.326354810545524 0 0,0 0.4307431162035525,0.3244267848832069 l -6.283348054819016 8.19470200161536" fill="#ff6909" stroke="none" /><path d="M 112.77801427241765 83.33499621200491 l 4.61013453997134 -6.012507728812647 a28.57651566788247,28.57651566788247 0 0,0 0.38777984058680826,0.302668316439914 l -4.712946935717579 5.9322610231495085" fill="#ff4206" stroke="none" /><path d="M 113.06298171725822 83.55741782278167 l 6.102998022469528 -7.681940362764154 a30.811156537296306,30.811156537296306 0 0,0 0.4124243518538787,0.33348514367466203 l -6.234325772887898 7.575749121825362" fill="#ff6209" stroke="none" /><path d="M 113.34407831869373 83.78471172551755 l 7.201516755959816 -8.751048024636846 a32.33325571563046,32.33325571563046 0 0,0 0.42671038700764385,0.3573576775851192 l -7.351084679926577 8.625789189657906" fill="#ff780b" stroke="none" /><path d="M 113.6212207817346 84.01681056812373 l 10.054439751808323 -11.79791574922807 a36.50105076272661,36.50105076272661 0 0,0 0.47469825329570925,0.41165364750377476 l -10.256031803750796 11.623097108304624" fill="#ffb110" stroke="none" /><path d="M 113.89432698308785 84.25364557470407 l 12.947559125271788 -14.67338829560891 a40.569047278192194,40.569047278192194 0 0,0 0.5196489505491669,0.4665459586175548 l -13.198219063416945 14.448343328222059" fill="#ffe615" stroke="none" /><path d="M 114.16331599549186 84.49514656593476 l 8.157717823086674 -8.93041002853288 a33.09547780614005,33.09547780614005 0 0,0 0.4173057907194526,0.3878402528456945 l -8.310231497600974 8.788665189612544" fill="#ff820c" stroke="none" /><path d="M 114.42810811169701 84.74124197986012 l 8.889770712925992 -9.401569430512781 a33.93899266114442,33.93899266114442 0 0,0 0.4210322039592041,0.4050326466253763 l -9.050286160497615 9.247153697125103" fill="#ff8e0d" stroke="none" /><path d="M 114.68862486808459 84.99185889309783 l 10.367650554193112 -10.593174232563344 a35.822399209821086,35.822399209821086 0 0,0 0.4369722014128836,0.43509570391070834 l -10.548458555773319 10.413142678002517" fill="#ffa80f" stroke="none" /><path d="M 114.94478906791727 85.2469230424477 l 10.87220857075475 -10.732739620075344 a36.277323684413055,36.277323684413055 0 0,0 0.4348713708845886,0.44817317396926626 l -11.055344205342449 10.544002250555963" fill="#ffae10" stroke="none" /><path d="M 115.19652480421416 85.50635884689758 l 11.203045582711672 -10.684872007884616 a36.48143146331087,36.48143146331087 0 0,0 0.4294953332869219,0.45815567585439304 l -11.385308237969056 10.490446915152168" fill="#ffb010" stroke="none" /><path d="M 115.4437574822437 85.77008943001954 l 12.32756172996994 -11.358641261045017 a37.76268204981929,37.76268204981929 0 0,0 0.4363502355611109,0.48182882859406245 l -12.521255606147086 11.144759645181406" fill="#ffc212" stroke="none" /><path d="M 115.68641384162765 86.03803664274999 l 12.86103870837554 -11.447189459326495 a38.21756263749459,38.21756263749459 0 0,0 0.4331471839022354,0.4951621082619866 l -13.056177755855623 11.22411179486156" fill="#ffc812" stroke="none" /><path d="M 115.9244219780498 86.31012108654704 l 13.88017973020029 -11.932488354385896 a39.304198088695884,39.304198088695884 0 0,0 0.436631059975842,0.5168334544856259 l -14.08352140366325 11.691795950271164" fill="#ffd614" stroke="none" /><path d="M 116.15771136456269 86.58626213691792 l 15.113418169749135 -12.546791124687434 a40.64274360419742,40.64274360419742 0 0,0 0.4422346761767143,0.5421274225759433 l -15.327151338002258 12.284779532503391" fill="#ffe715" stroke="none" /><path d="M 116.38621287248628 86.86637796730983 l 16.199047657424362 -12.983608285681068 a41.760135575749786,41.760135575749786 0 0,0 0.44473732930282245,0.5647712444316787 l -16.42013906732115 12.702844647296352" fill="#fff517" stroke="none" /><path d="M 116.60985879189232 87.15038557335679 l 16.980178684606134 -13.136098971485403 a42.46819890791522,42.46819890791522 0 0,0 0.44232461316709937,0.582047342219546 l -17.203779237997345 12.841866853384824" fill="#fffe18" stroke="none" /><path d="M 116.82858285166822 87.43820079747576 l 17.458461866636476 -13.03197626839232 a42.78601148004702,42.78601148004702 0 0,0 0.435474776890821,0.5939871062826823 l -17.680199256040925 12.729526718438143" fill="#fcff18" stroke="none" /><path d="M 117.04232023915458 87.72973835380427 l 18.138514565078733 -13.059508122345266 a43.35075978630649,43.35075978630649 0 0,0 0.4307979280626422,0.6093331180666597 l -18.36062511294526 12.745348503946811" fill="#f5ff19" stroke="none" /><path d="M 117.2510076193507 88.02491185347247 l 22.726914508007326 -15.776284524197935 a48.66593205447308,48.66593205447308 0 0,0 0.47177110103421305,0.6922658772714423 l -22.995110074710272 15.382740623656087" fill="#b4ff20" stroke="none" /><path d="M 117.45458315368197 88.32363383020206 l 20.685182714358525 -13.837498468766112 a45.88680670153367,45.88680670153367 0 0,0 0.43352842106022854,0.6602935279500804 l -20.92030777077668 13.479386876838358" fill="#d6ff1c" stroke="none" /><path d="M 117.65298651832404 88.62581576622439 l 21.798546177257972 -14.045254041928342 a46.93155946996541,46.93155946996541 0 0,0 0.43170867403519525,0.6828594472613596 l -22.037082447539124 13.667946946952776" fill="#c9ff1d" stroke="none" /><line stroke="#e1ed5e" stroke-width="0.3" x1="172.23445277983987" x2="176.4835382374775" y1="55.19839476539836" y2="52.563006222186495" /><path d="M 173.08426987136738 54.67131705675599 a86.0,86.0 0 0,1 12.851231095245387,41.99856678651699" fill="none" id="id111" stroke="none" /><text fill="#e1ed5e" style="font-size:6.75px; font-family:Arial;" text-anchor="middle"><textPath startOffset="22.20632615414155" xlink:href="#id111">March</textPath></text><path d="M 118.03404312379186 89.2402003453031 l 8.706731150505707 -5.1947687040382435 a31.138677883020133,31.138677883020133 0 0,0 0.2706697332061959,0.46266231293250976 l -8.79486055818223 5.044126978751838" fill="#ff6709" stroke="none" /><path d="M 118.56541770881063 90.18545643968196 l 5.48348814038244 -2.898826951290751 a27.202567200703633,27.202567200703633 0 0,0 0.21527666964690303,0.4158460045700914 l -5.53257424318946 2.8040082244603153" fill="#ff2e04" stroke="none" /><path d="M 118.89224826269711 90.83032412892265 l 9.244850110089894 -4.487146146263678 a31.27627043707775,31.27627043707775 0 0,0 0.23091092659324855,0.48635730103358527 l -9.3207192305249 4.327346429589552" fill="#ff6909" stroke="none" /><path d="M 119.04729006885535 91.15688171328212 l 12.147235720694585 -5.639618126590662 a34.39255869010431,34.39255869010431 0 0,0 0.2446746943811281,0.5391082562090473 l -12.24251273203906 5.429687861539551" fill="#ff940d" stroke="none" /><path d="M 119.196687751892 91.48605970444005 l 8.884792165004216 -3.940502185011016 a30.71941815570237,30.71941815570237 0 0,0 0.21022217986675493,0.4852217752403963 l -8.95130505471365 3.786981265184017" fill="#ff6108" stroke="none" /><path d="M 119.47837535516314 92.15188598940014 l 13.000242015456264 -5.237982102837276 a35.01580354350324,35.01580354350324 0 0,0 0.22044357545363516,0.561004854599304 l -13.0884791407916 5.0134282433421875" fill="#ff9d0e" stroke="none" /><path d="M 119.61058180528143 92.48833698450437 l 5.916035251540527 -2.266085914156673 a27.335188905455738,27.335188905455738 0 0,0 0.16452583095670886,0.4408474298671582 l -5.954165670998861 2.1639153472601818" fill="#ff3004" stroke="none" /><path d="M 119.85752413597 93.16781622104841 l 11.455690563192862 -3.941447217015396 a33.1147782664044,33.1147782664044 0 0,0 0.18081095677017625,0.5406017466898578 l -11.521838813734808 3.743672367403224" fill="#ff830c" stroke="none" /><path d="M 120.08093135843002 93.85539295169968 l 9.721763313686678 -2.9747831070648583 a31.166711191994324,31.166711191994324 0 0,0 0.15255971985522496,0.5143555338525363 l -9.771528930653606 2.8069981864657922" fill="#ff6709" stroke="none" /><path d="M 120.18372546131832 94.20196356495316 l 10.716196344389175 -3.0783661306214576 a32.14958304716626,32.14958304716626 0 0,0 0.14821452189243192,0.5332064940534141 l -10.76759763684797 2.8934483331490912" fill="#ff750a" stroke="none" /><path d="M 120.28053869075195 94.5502522615342 l 11.988250139258238 -3.221459749211547 a33.41353875078397,33.41353875078397 0 0,0 0.14447961351261757,0.5567388878076814 l -12.041926084641158 3.014624435855015" fill="#ff870c" stroke="none" /><path d="M 120.53481517161879 95.60439243477599 l 9.89316666667081 -2.11769513777475 a31.11728122526409,31.11728122526409 0 0,0 0.10760756532332029,0.5247327045654872 l -9.928153527909128 1.9470867770458513" fill="#ff6709" stroke="none" /><path d="M 120.6074358757038 95.95851677861258 l 20.98573248939796 -4.11567388859 a42.38550302597053,42.38550302597053 0 0,0 0.13424957383280467,0.7171665915668672 l -21.053467787140622 3.75382921956057" fill="#fffd17" stroke="none" /><path d="M 120.67395015179393 96.31383870115 l 9.41292711269658 -1.6783230769620063 a30.561378832553473,30.561378832553473 0 0,0 0.08788308462253161,0.5186909402183612 l -9.440422058839335 1.5160463484278073" fill="#ff5f08" stroke="none" /><path d="M 120.73433829027371 96.67025291283417 l 13.570631531447289 -2.1793206120319777 a34.74450721169511,34.74450721169511 0 0,0 0.0897468929328668,0.5913198912837874 l -13.606134317819455 1.9454016083561083" fill="#ff990e" stroke="none" /><path d="M 120.91429891909075 98.10471618934814 l 13.91701576626695 -1.261179960008873 a34.97404389323473,34.97404389323473 0 0,0 0.0491726999460668,0.6000314892236712 l -13.93666295003251 1.021434553577433" fill="#ff9c0e" stroke="none" /><path d="M 120.96714384426684 98.82574320788733 l 21.17157615675804 -1.1857059448085765 a42.2047526641779,42.2047526641779 0 0,0 0.034379573022943366,0.7256984492741906 l -21.188849338014478 0.8210963889113861" fill="#fffb17" stroke="none" /><path d="M 120.98425023603335 99.18683210126433 l 32.62546652019781 -1.264280675129573 a53.64995361843649,53.64995361843649 0 0,0 0.02781700416371463,0.9231109443621569 l -32.64239521881717 0.7024995833424169" fill="#7cff26" stroke="none" /><line stroke="#e1ed5e" stroke-width="0.3" x1="184.98032266829074" x2="189.97916517819016" y1="98.17113171792111" y2="98.06355123074" /><path d="M 185.9800911702706 98.14961562048488 a86.0,86.0 0 0,1 -9.607161424134198,41.387399972396054" fill="none" id="id112" stroke="none" /><text fill="#e1ed5e" style="font-size:6.75px; font-family:Arial;" text-anchor="middle"><textPath startOffset="21.466115282336823" xlink:href="#id112">April</textPath></text><path d="M 120.99980553446 99.90962569577887 l 6.4020767424234375 -0.027551837573798525 a27.402136027892002,27.402136027892002 0 0,0 -0.002029979871047558,0.4716958310026805 l -6.4016024652628865 -0.08265347163256667" fill="#ff3104" stroke="none" /><path d="M 120.9904718944345 100.63252640178507 l 10.300590708569427 0.31039776570624245 a31.305266406960193,31.305266406960193 0 0,0 -0.020866998105824777,0.5384845006896244 l -10.293721577612398 -0.487659513409873" fill="#ff6909" stroke="none" /><path d="M 120.95626037817324 101.35467743843564 l 10.094292281759333 0.6525262505955944 a31.115360951409613,31.115360951409613 0 0,0 -0.03915118641607286,0.5341868328848847 l -10.081564536678924 -0.8261862199772493" fill="#ff6709" stroke="none" /><path d="M 120.8583938346157 102.4346265915055 l 7.665406120063819 0.8947190144442051 a28.717446021859814,28.717446021859814 0 0,0 -0.061535320441371284,0.49049704905958075 l -7.6488692903756 -1.0265338177911807" fill="#ff4406" stroke="none" /><path d="M 120.76222939487914 103.15116336523771 l 10.230746173195923 1.5527596736780243 a31.347909444161353,31.347909444161353 0 0,0 -0.08556224637050128,0.5327961898246536 l -10.202502172464134 -1.728635093195883" fill="#ff6a09" stroke="none" /><path d="M 120.64145759157962 103.86396538481128 l 10.329757591040066 1.9336728323658996 a31.50918562555062,31.50918562555062 0 0,0 -0.10438553123103797,0.5322595748539101 l -10.294942126833362 -2.1111961342877548" fill="#ff6c0a" stroke="none" /><path d="M 120.5718875245553 104.21870165774334 l 61.715662573665874 12.656104973230008 a84.0,84.0 0 0,0 -0.30266384510222766,1.4139447223353239 l -61.488664689839204 -13.716563514981502" fill="#4dd2ff" stroke="none" /><path d="M 120.41448212921028 104.9243191809786 l 8.782507305641401 2.1184896539879876 a30.034402746595855,30.034402746595855 0 0,0 -0.12555622585983164,0.5015347096932169 l -8.744739765486509 -2.2693522030786" fill="#ff5708" stroke="none" /><path d="M 120.23288151984713 105.62410040840565 l 9.363490688137126 2.602753925662907 a30.71850224388431,30.71850224388431 0 0,0 -0.14599679560812054,0.5082339984920632 l -9.317301255642906 -2.7635453996595523" fill="#ff6108" stroke="none" /><path d="M 120.02730092923936 106.31721596034902 l 9.700695881102106 3.059892646698134 a31.171845633263843,31.171845633263843 0 0,0 -0.16581603368385406,0.5103292770684985 l -9.646587596402005 -3.226420823744428" fill="#ff6709" stroke="none" /><path d="M 119.67450827220406 107.3425965602758 l 12.007928416252147 4.481401652603218 a33.816914824628846,33.816914824628846 0 0,0 -0.20822478730112637,0.5436092136764565 l -11.929009349357514 -4.687434433112818" fill="#ff8c0c" stroke="none" /><path d="M 119.12269723197855 108.67885076344098 l 8.863191081888756 4.0225660509301875 a30.73330333382087,30.73330333382087 0 0,0 -0.2227804226556462,0.47984921092345134 l -8.79263604239328 -4.174535329132469" fill="#ff6109" stroke="none" /><path d="M 118.81262510543309 109.33194174019688 l 7.6967075392601485 3.8179268414255834 a29.59161639689424,29.59161639689424 0 0,0 -0.23028101498832898,0.4543662893375257 l -7.629847854485551 -3.9498473424658034" fill="#ff5107" stroke="none" /><path d="M 118.64920377521936 109.65438752849418 l 6.16463018740068 3.1913281401377063 a27.941703007580095,27.941703007580095 0 0,0 -0.22479431614550566,0.4252261301973905 l -6.108783363030281 -3.2969692854212314" fill="#ff3905" stroke="none" /><line stroke="#e1ed5e" stroke-width="0.3" x1="174.80103733775053" x2="179.2010983576182" y1="140.37084112569926" y2="142.7455964860345" /><path d="M 175.68104954172406 140.8457921977663 a86.0,86.0 0 0,1 -30.038265399797805,32.042727171017184" fill="none" id="id113" stroke="none" /><text fill="#e1ed5e" style="font-size:6.75px; font-family:Arial;" text-anchor="middle"><textPath startOffset="22.206326154141568" xlink:href="#id113">May</textPath></text><path d="M 117.94076556474637 110.91462005526583 l 8.11837315281794 4.938973095105544 a30.502706871337846,30.502706871337846 0 0,0 -0.27675448784918383,0.4462163549602222 l -8.032154025300793 -5.077985781431039" fill="#ff5e08" stroke="none" /><path d="M 116.498646956653 112.99209946851258 l 7.447833411158328 5.86490472563637 a30.479838076737288,30.479838076737288 0 0,0 -0.32814025869613006,0.40940542659473445 l -7.3457752404073435 -5.992237985809354" fill="#ff5d08" stroke="none" /><path d="M 116.27256486870786 113.27417163493432 l 13.832417762945111 11.283647599066402 a38.85095191603396,38.85095191603396 0 0,0 -0.4271828669217069,0.5145692821837635 l -13.63613889612986 -11.520078138363935" fill="#ffd013" stroke="none" /><path d="M 116.0416608686014 113.55231037782055 l 12.839860843095774 10.847366789448264 a37.80855117893536,37.80855117893536 0 0,0 -0.42427944226631814,0.4935328440795044 l -12.651238891258677 -11.066776732689297" fill="#ffc212" stroke="none" /><path d="M 115.80600337817218 113.82643327865902 l 4.809773973708206 4.207389897483216 a27.390309493882487,27.390309493882487 0 0,0 -0.313477071059417,0.3521948124828688 l -4.73663805300045 -4.289558879706951" fill="#ff3104" stroke="none" /><path d="M 114.81725581225074 114.88116024355365 l 7.171834349959535 7.202765313245863 a31.164400429979,31.164400429979 0 0,0 -0.38339639691737587,0.37523406862856873 l -7.046788000666365 -7.325149484797005" fill="#ff6709" stroke="none" /><path d="M 114.0293411484842 115.62618273729858 l 3.2810295268910474 3.6544814479196868 a25.911251307917368,25.911251307917368 0 0,0 -0.33444965775096114,0.2951129371703023 l -3.2176375162334985 -3.710417526862278" fill="#ff1b02" stroke="none" /><path d="M 113.48314897796784 116.09983520530334 l 6.611139114098862 7.894168523262064 a31.29684694747035,31.29684694747035 0 0,0 -0.4159945174001845,0.34233516705779793 l -6.474274468153986 -8.006798809177042" fill="#ff6909" stroke="none" /><path d="M 112.92097659922987 116.55440617244103 l 6.1884922955009305 7.928720733141058 a31.057934646616832,31.057934646616832 0 0,0 -0.4242680572590926,0.32531065458820585 l -6.051095509748344 -8.034070729556635" fill="#ff6609" stroke="none" /><path d="M 112.34349029814194 116.9893568818739 l 4.544998028049409 6.25565311438434 a28.732412493037312,28.732412493037312 0 0,0 -0.40262684769877055,0.2872635654272393 l -4.436643852501754 -6.332960941655799" fill="#ff4406" stroke="none" /><path d="M 112.04921762599082 117.19931262002967 l 2.923883750867924 4.1736146077506895 a26.095895905787266,26.095895905787266 0 0,0 -0.3701182350065059,0.25457069695572626 l -2.8516086312385345 -4.22332609407151" fill="#ff1e03" stroke="none" /><path d="M 111.7513745106137 117.40417183066458 l 6.5952224314279615 9.767741156947535 a32.78582734597522,32.78582734597522 0 0,0 -0.47043806200407173,0.311780695292839 l -6.4261096706839265 -9.879819873331693" fill="#ff7e0b" stroke="none" /><path d="M 111.45004920935366 117.60387380957326 l 8.241570016075961 12.670998692061826 a36.11547829822513,36.11547829822513 0 0,0 -0.5240496888213501,0.33447330595865 l -8.02223852520768 -12.810986426844286" fill="#ffac0f" stroke="none" /><line stroke="#e1ed5e" stroke-width="0.3" x1="143.8653032363475" x2="146.44561519142675" y1="172.8068346515853" y2="177.08958963109032" /><path d="M 144.38136562736335 173.6633856474863 a86.0,86.0 0 0,1 -40.68145358897372,12.25698825130547" fill="none" id="id114" stroke="none" /><text fill="#e1ed5e" style="font-size:6.75px; font-family:Arial;" text-anchor="middle"><textPath startOffset="21.466115282336833" xlink:href="#id114">June</textPath></text><path d="M 110.8373102113329 117.98757091392108 l 5.026298613271847 8.342559267725404 a30.739711129458076,30.739711129458076 0 0,0 -0.455580273275894,0.2691648557029747 l -4.881950468967571 -8.427842695722127" fill="#ff6109" stroke="none" /><path d="M 110.5260780823613 118.17145234162733 l 18.531246353988912 31.99099012164316 a57.970671354403315,57.970671354403315 0 0,0 -0.8677691439363144,0.4927419673105243 l -17.9778284431314 -32.30523525474832" fill="#4eff2c" stroke="none" /><path d="M 110.21172684928248 118.3499491758327 l 4.019888061826103 7.223532583250457 a29.266735934508436,29.266735934508436 0 0,0 -0.4423140169846221,0.24118486885452067 l -3.894951232972833 -7.291658103864749" fill="#ff4c07" stroke="none" /><path d="M 109.57404056367764 118.69057910512821 l 1.4291330313171027 2.7899739713786498 a24.13470508695347,24.13470508695347 0 0,0 -0.3713826494322865,0.18621897020268194 l -1.3808964742020555 -2.814160782490634" fill="#ff0000" stroke="none" /><path d="M 109.2508944713604 118.85261126421891 l 7.247423207747818 14.76969095539314 a37.45201854089715,37.45201854089715 0 0,0 -0.5811970666808947,0.27900991129440694 l -6.99211347306669 -14.892255143187107" fill="#ffbd11" stroke="none" /><path d="M 108.59647513512805 119.15986991738527 l 4.092107815154674 9.120511860249959 a30.996453519314244,30.996453519314244 0 0,0 -0.4886802342465168,0.2142230537053976 l -3.934506906250404 -9.18959946724981" fill="#ff6509" stroke="none" /><path d="M 107.93186726928326 119.44442032107085 l 4.894203591535437 11.997799325165566 a33.957639346823235,33.957639346823235 0 0,0 -0.5431264459033034,0.2161212216773125 l -4.686956069590267 -12.080267391248947" fill="#ff8e0d" stroke="none" /><path d="M 107.59598834532513 119.57807347666477 l 2.0807445091594663 5.362958318855498 a26.752462050477053,26.752462050477053 0 0,0 -0.43075257558318725,0.16287376605283052 l -1.988121712816004 -5.39798033501496" fill="#ff2703" stroke="none" /><path d="M 105.88484417918355 120.15858648285463 l 4.55616278137254 15.607176445410028 a37.258615435778225,37.258615435778225 0 0,0 -0.6171957633182799,0.17442568771559228 l -4.286835849949654 -15.683290926464139" fill="#ffbb11" stroke="none" /><path d="M 101.26447882468166 120.96189622390904 l 0.5251155593374423 8.70510256521106 a29.720926385511028,29.720926385511028 0 0,0 -0.5109337639511484,0.026409439502857533 l -0.3751937269728142 -8.712851811476119" fill="#ff5307" stroke="none" /><line stroke="#e1ed5e" stroke-width="0.3" x1="102.19456741930631" x2="102.32365962044197" y1="184.97166512339345" y2="189.96999836594603" /><path d="M 102.22038585953345 185.97133177190398 a86.0,86.0 0 0,1 -42.740103519485714,-10.115201625700543" fill="none" id="id115" stroke="none" /><text fill="#e1ed5e" style="font-size:6.75px; font-family:Arial;" text-anchor="middle"><textPath startOffset="22.20632615414155" xlink:href="#id115">July</textPath></text><path d="M 99.45781275523022 120.99299961872073 l -0.26162597004328497 10.12992087576356 a31.13329882602065,31.13329882602065 0 0,0 -0.5356108214796661,-0.018447519664420604 l 0.43595714319759415 -10.123916557673047" fill="#ff6709" stroke="none" /><path d="M 98.73552117531835 120.96189622390904 l -0.5430685664902986 9.002718520100732 a30.019083335909173,30.019083335909173 0 0,0 -0.5155237780099767,-0.035553538031793244 l 0.6979551052792053 -8.992036637552653" fill="#ff5708" stroke="none" /><path d="M 97.65516085044442 120.86867818915974 l -0.7625164727275264 6.786269704811045 a27.8289741453323,27.8289741453323 0 0,0 -0.4755740793034125,-0.0575853979810171 l 0.8792179750823282 -6.772138778104679" fill="#ff3705" stroke="none" /><path d="M 96.93821686468263 120.77559828337769 l -1.6043605252195143 10.886319605459112 a32.00390509078873,32.00390509078873 0 0,0 -0.5443165296622161,-0.0850110474984178 l 1.7915129184902474 -10.857090250613588" fill="#ff730a" stroke="none" /><path d="M 96.22490169976321 120.6578951692458 l -1.7379067543938138 9.51008230539048 a30.66757391191134,30.66757391191134 0 0,0 -0.5184753295830827,-0.09936703089627984 l 1.9013496985485916 -9.47875807614573" fill="#ff6008" stroke="none" /><path d="M 95.51606077576429 120.51570834832081 l -2.0778292345791205 9.506850214167626 a30.73126791958225,30.73126791958225 0 0,0 -0.5158167964410603,-0.1173982235146731 l 2.2411661804130434 -9.469675257075265" fill="#ff6109" stroke="none" /><path d="M 94.46302465271185 120.25689768951611 l -2.6768877194826506 9.793332507149449 a31.15259028318917,31.15259028318917 0 0,0 -0.5160483424918367,-0.14584041625576102 l 2.8450672300791013 -9.745803297555167" fill="#ff6709" stroke="none" /><path d="M 93.76903079525671 120.05430185196036 l -3.0364125506896498 9.772658448104117 a31.23350645288732,31.23350645288732 0 0,0 -0.5120490280806419,-0.16394192881606928 l 3.204182923861232 -9.718943672628342" fill="#ff6809" stroke="none" /><path d="M 93.08242187328487 119.8279376855182 l -3.000188989710908 8.599477915981826 a30.10780733225301,30.10780733225301 0 0,0 -0.4878618051187901,-0.1749298860239704 l 3.1477703554594245 -8.546560488917898" fill="#ff5808" stroke="none" /><path d="M 92.06813273071674 119.44442032107085 l -3.9037897916535966 9.56986885647637 a31.335471187496736,31.335471187496736 0 0,0 -0.4976797129107195,-0.2080301603597013 l 4.067940964061778 -9.501253653096697" fill="#ff6a09" stroke="none" /><path d="M 91.40352486487194 119.15986991738527 l -4.086526736330204 9.108072721813018 a30.98281971552006,30.98281971552006 0 0,0 -0.48470704085316746,-0.2225052290766086 l 4.242701772950791 -9.036380422402335" fill="#ff6509" stroke="none" /><path d="M 90.7491055286396 118.85261126421891 l -9.065895968529718 18.475598547326868 a41.58004400855815,41.58004400855815 0 0,0 -0.6398299399878292,-0.32082401456156734 l 9.382579816200309 -18.316806691855998" fill="#fff316" stroke="none" /><path d="M 90.42595943632237 118.69057910512821 l -2.5728834690215114 5.0228199563373455 a26.643443067750827,26.643443067750827 0 0,0 -0.4063874858389507,-0.2126027255322078 l 2.6589618573869576 -4.977787811860421" fill="#ff2603" stroke="none" /><path d="M 90.10565033884886 118.52300852407294 l -3.798304858140962 7.11072841306755 a29.061611399700645,29.061611399700645 0 0,0 -0.4392139289811072,-0.239494453697293 l 3.9201415989907096 -7.044293307610491" fill="#ff4906" stroke="none" /><line stroke="#e1ed5e" stroke-width="0.3" x1="58.666819895761336" x2="56.23545636021788" y1="174.27360380694188" y2="178.64263932499728" /><path d="M 58.180547188652646 175.14741091055294 a86.0,86.0 0 0,1 -31.652253787137756,-30.449443065178592" fill="none" id="id116" stroke="none" /><text fill="#e1ed5e" style="font-size:6.75px; font-family:Arial;" text-anchor="middle"><textPath startOffset="22.20632615414155" xlink:href="#id116">August</textPath></text><path d="M 89.7882731507175 118.34994917583269 l -4.440494902593868 7.979341494417946 a30.13169675714772,30.13169675714772 0 0,0 -0.4510445728745546,-0.25611488001842797 l 4.577188242389631 -7.901723448604885" fill="#ff5908" stroke="none" /><path d="M 89.4739219176387 118.17145234162733 l -1.8181825288901965 3.138777511775412 a24.627356058727706,24.627356058727706 0 0,0 -0.3649916408142808,-0.21564349489090612 l 1.8719420407328595 -3.1070154445907563" fill="#ff0801" stroke="none" /><path d="M 89.1626897886671 117.98757091392108 l -5.219978001981325 8.664024804010737 a31.11501340313903,31.11501340313903 0 0,0 -0.4563843486929439,-0.2803485424125476 l 5.368341550606577 -8.572887794769812" fill="#ff6709" stroke="none" /><path d="M 88.8546689885994 117.79835938074946 l -4.112773721604461 6.5678286875411285 a28.74927618258689,28.74927618258689 0 0,0 -0.41716322051491334,-0.2662533047272673 l 4.225218744166298 -6.496060953990057" fill="#ff4506" stroke="none" /><path d="M 88.54995079064634 117.60387380957326 l -3.981226908275752 6.120935798538804 a28.301782162254142,28.301782162254142 0 0,0 -0.4060972874398669,-0.26913913830688463 l 4.085998894455581 -6.051498639140601" fill="#ff3e05" stroke="none" /><path d="M 88.24862548938628 117.40417183066458 l -6.093547000291871 9.024743357087667 a31.88932081013614,31.88932081013614 0 0,0 -0.45228641225481164,-0.3110867185165497 l 6.247990297169573 -8.918515849206017" fill="#ff710a" stroke="none" /><path d="M 87.95078237400918 117.19931262002967 l -6.064489240264244 8.656582490395007 a31.56950567237154,31.56950567237154 0 0,0 -0.4423829901284998,-0.3156285174598035 l 6.212599558241631 -8.550909711090984" fill="#ff6d0a" stroke="none" /><path d="M 87.65650970185807 116.9893568818739 l -8.682608279110275 11.950585057900714 a35.77173550245854,35.77173550245854 0 0,0 -0.4950382843441087,-0.3662174880638604 l 8.887031533872946 -11.799357621097087" fill="#ffa70f" stroke="none" /><path d="M 86.51685102203217 116.09983520530335 l -8.530151181853606 10.185604900500435 a34.28570759780513,34.28570759780513 0 0,0 -0.449199134292405,-0.3828172474110925 l 8.704215792723067 -10.037263262866391" fill="#ff930d" stroke="none" /><path d="M 86.24171649860922 115.8653595955263 l -4.551399644059099 5.24844483751542 a27.94704339502666,27.94704339502666 0 0,0 -0.36072665837492457,-0.3182993350464754 l 4.641068655340612 -5.169322360696655" fill="#ff3905" stroke="none" /><path d="M 85.70375840098266 115.38237550388516 l -6.7162084669033755 7.2264615762636355 a30.865556400128646,30.865556400128646 0 0,0 -0.38606074370966525,-0.36504452987413866 l 6.839605045003857 -7.109782409643566" fill="#ff6309" stroke="none" /><path d="M 85.18274418774928 114.88116024355367 l -6.143985897575265 6.1704839164859715 a29.707665271082472,29.707665271082472 0 0,0 -0.359263814443026,-0.3639323472679257 l 6.249290337073824 -6.063811075237381" fill="#ff5207" stroke="none" /><path d="M 84.43433777217949 114.09645910891817 l -4.852731265206462 4.394694349996173 a27.546933569404885,27.546933569404885 0 0,0 -0.31526960489197986,-0.3542087432462769 l 4.92765971974678 -4.3105114370090325" fill="#ff3304" stroke="none" /><path d="M 83.95833913139862 113.55231037782056 l -7.504487195671138 6.339938272924143 a30.824059516029024,30.824059516029024 0 0,0 -0.3389237448462289,-0.408255484020901 l 7.612506940410903 -6.209821531789481" fill="#ff6209" stroke="none" /><path d="M 83.50135304334701 112.99209946851258 l -7.799707100466348 6.141992779211512 a30.927714044680755,30.927714044680755 0 0,0 -0.32576188122439914,-0.4210911446260404 l 7.904275798908815 -6.006823640472219" fill="#ff6409" stroke="none" /><path d="M 83.28015986056508 112.70617746262583 l -5.787152868722588 4.397924306698459 a28.26862273979144,28.26862273979144 0 0,0 -0.2910843415965245,-0.38995504389180374 l 5.861998477014198 -4.297656383297348" fill="#ff3e05" stroke="none" /><path d="M 82.85270091963577 112.12312394758628 l -3.098655510507362 2.190746463842168 a24.794869700218257,24.794869700218257 0 0,0 -0.24339009271600406,-0.35062158144829997 l 3.1359065103855 -2.1370836202068557" fill="#ff0a01" stroke="none" /><path d="M 82.44556493220864 111.52570212397912 l -8.662925381230801 5.687810349962275 a31.363274711108975,31.363274711108975 0 0,0 -0.29241793604784905,-0.45383913049694746 l 8.759548180655695 -5.53784961954388" fill="#ff6a09" stroke="none" /><path d="M 82.05923443525364 110.91462005526583 l -8.73269190978463 5.312706077732 a31.22177840982617,31.22177840982617 0 0,0 -0.2753747836291359,-0.46154397689039334 l 8.822847569111998 -5.161600006955495" fill="#ff6809" stroke="none" /><line stroke="#e1ed5e" stroke-width="0.3" x1="26.63291911575756" x2="22.317208475507996" y1="142.92168965132927" y2="145.44649492493687" /><path d="M 25.769776987707644 143.4266507060508 a86.0,86.0 0 0,1 -11.730757126820373,-40.83630448921669" fill="none" id="id117" stroke="none" /><text fill="#e1ed5e" style="font-size:6.75px; font-family:Arial;" text-anchor="middle"><textPath startOffset="21.46611528233685" xlink:href="#id117">September</textPath></text><path d="M 81.51974371655577 109.97397251340807 l -6.566723259125839 3.544123863063211 a28.462082036447896,28.462082036447896 0 0,0 -0.2289808271788285,-0.4331454313445543 l 6.626756594529553 -3.4305634166325305" fill="#ff4006" stroke="none" /><path d="M 81.18737489456691 109.33194174019688 l -9.09635898358509 4.512219406222968 a31.154007619070626,31.154007619070626 0 0,0 -0.23416945933669198,-0.48245844493635387 l 9.1726816995365 -4.354972005321329" fill="#ff6709" stroke="none" /><path d="M 81.02952815118164 109.00673069616217 l -7.670216448733432 3.6416370918743612 a29.490803323557557,29.490803323557557 0 0,0 -0.21377375407761245,-0.46044964807720923 l 7.731764819650871 -3.509067376518325" fill="#ff4f07" stroke="none" /><path d="M 80.87730276802145 108.67885076344099 l -9.274677322761313 4.20931939604775 a31.18518577244847,31.18518577244847 0 0,0 -0.21764128567921767,-0.49072364358523385 l 9.34575969317181 -4.04904741596982" fill="#ff6709" stroke="none" /><path d="M 80.45479744820244 107.68017299344265 l -9.344789483487967 3.67198035580811 a31.040345124752832,31.040345124752832 0 0,0 -0.1911282946677273,-0.49897566626103995 l 9.406612057749204 -3.510581122713912" fill="#ff6509" stroke="none" /><path d="M 80.20201598880116 107.00284435728193 l -10.444534358108092 3.6943887040590413 a32.07866444362223,32.07866444362223 0 0,0 -0.17965452712692445,-0.5221601502508987 l 10.506579716178244 -3.5140558507188455" fill="#ff740a" stroke="none" /><path d="M 79.97269907076064 106.31721596034903 l -9.208834734754861 2.9047447765503467 a30.656095452558667,30.656095452558667 0 0,0 -0.15440924563701286,-0.5046183488009216 l 9.257470752898005 -2.7457994551973774" fill="#ff6008" stroke="none" /><path d="M 79.76711848015287 105.62410040840567 l -6.915733012577092 1.9223547976745776 a28.177939193765233,28.177939193765233 0 0,0 -0.1258774609757911,-0.4684368598557994 l 6.947798549894658 -1.8030270046432393" fill="#ff3c05" stroke="none" /><path d="M 79.58551787078972 104.9243191809786 l -6.541255489643986 1.5778617195116438 a27.7288684774409,27.7288684774409 0 0,0 -0.10793057222533751,-0.464962080341241 l 6.567446627799879 -1.4650309818218286" fill="#ff3605" stroke="none" /><path d="M 79.4281124754447 104.21870165774334 l -7.325330058927479 1.5022142244471817 a28.477774271021953,28.477774271021953 0 0,0 -0.09434288879708756,-0.48105235744297226 l 7.350102880700233 -1.3758981399362546" fill="#ff4106" stroke="none" /><path d="M 79.35854240842038 103.8639653848113 l -8.95158931932254 1.6756874419090793 a30.107078551587286,30.107078551587286 0 0,0 -0.09097148785103422,-0.5102164155577215 l 8.979107249512763 -1.5213522756181441" fill="#ff5808" stroke="none" /><path d="M 79.10278846688536 102.07522291339032 l -10.100633732309596 1.0030556721807677 a31.150316373185838,31.150316373185838 0 0,0 -0.04839484037009611,-0.5340330308070109 l 10.116403168956767 -0.8290412528251907" fill="#ff6709" stroke="none" /><path d="M 79.04373962182676 101.35467743843564 l -16.67803351154954 1.0781196314539772 a37.71284367640935,37.71284367640935 0 0,0 -0.036300675671824295,-0.6481729495350653 l 16.694120538108898 -0.7908749655834743" fill="#ffc111" stroke="none" /><line stroke="#e1ed5e" stroke-width="0.3" x1="15.007084014347285" x2="10.007500721073583" y1="101.09737516637583" y2="101.16192664675087" /><path d="M 14.007167355692545 101.11028546245083 a86.0,86.0 0 0,1 10.666146001902534,-42.60595125391555" fill="none" id="id118" stroke="none" /><text fill="#e1ed5e" style="font-size:6.75px; font-family:Arial;" text-anchor="middle"><textPath startOffset="22.20632615414155" xlink:href="#id118">October</textPath></text><path d="M 79.00175016825051 100.2711162175752 l -12.669059095796872 0.16357493647378957 a33.67011504022895,33.67011504022895 0 0,0 -0.0024943185348014064,-0.5795917835635543 l 12.669997711621177 0.054526325293440106" fill="#ff8a0c" stroke="none" /><path d="M 79.00486145842228 99.54816195383935 l -10.14565625589941 -0.21834547510152616 a31.148005499080504,31.148005499080504 0 0,0 0.01614995242720173,-0.535938296904201 l 10.140394609016564 0.3929539194307216" fill="#ff6709" stroke="none" /><path d="M 79.03285615573316 98.82574320788736 l -10.381475553086675 -0.5814105283441701 a31.397743642820096,31.397743642820096 0 0,0 0.03486556312121466,-0.5393548296216654 l 10.369929398961046 0.7600244222188471" fill="#ff6b09" stroke="none" /><path d="M 79.12142395522702 97.74499172005258 l -6.065430243092 -0.6551019279420736 a27.10070508792291,27.10070508792291 0 0,0 0.05408480874231862,-0.4633656122680952 l 6.053255081346093 0.7594112785350304" fill="#ff2d04" stroke="none" /><path d="M 79.21141760316559 97.0276538004421 l -9.842218538882351 -1.4072378919747806 a30.942312822061528,30.942312822061528 0 0,0 0.0799256244740167,-0.5266100032022067 l 9.816537020969031 1.5764470075690793" fill="#ff6409" stroke="none" /><path d="M 79.32604984820605 96.31383870115002 l -9.957098009459582 -1.775348642220715 a31.114131874333996,31.114131874333996 0 0,0 0.09854923608544887,-0.5264539597938763 l 9.925063049464272 1.946480679477164" fill="#ff6609" stroke="none" /><path d="M 79.3925641242962 95.95851677861259 l -24.977805966705386 -4.898590214250152 a46.45362404447607,46.45362404447607 0 0,0 0.1606426135909519,-0.7833504349324799 l 24.88978405719944 5.327816305346035" fill="#cfff1d" stroke="none" /><path d="M 79.54389044137918 95.25157060432595 l -3.5978135960336908 -0.8351521480956494 a24.69347286199231,24.69347286199231 0 0,0 0.09967602601650724,-0.4132214783486666 l 3.582904769756369 0.8969588581037128" fill="#ff0901" stroke="none" /><path d="M 79.71946130924805 94.55025226153421 l -10.102690783482124 -2.714775829638452 a31.461088321577435,31.461088321577435 0 0,0 0.14504045532899354,-0.5217876878354158 l 10.05446355758677 2.8882748208928106" fill="#ff6b09" stroke="none" /><path d="M 79.91906864156998 93.8553929516997 l -6.113621924914464 -1.8707202220828514 a27.39343156607659,27.39343156607659 0 0,0 0.14185168874199108,-0.44970861778163373 l 6.0805147524042695 1.9756790062908995" fill="#ff3104" stroke="none" /><path d="M 80.803312248108 91.48605970444005 l -8.757086910304897 -3.8838635123404086 a30.579716433022565,30.579716433022565 0 0,0 0.2175494658576806,-0.47934141074292763 l 8.688935127483866 4.034026931925407" fill="#ff5f08" stroke="none" /><line stroke="#e1ed5e" stroke-width="0.3" x1="26.266209847984243" x2="21.928928074336255" y1="57.711370442889674" y2="55.22380399835377" /><path d="M 25.398753493254645 57.213857153982495 a86.0,86.0 0 0,1 29.58750427330803,-30.492523968695096" fill="none" id="id119" stroke="none" /><text fill="#e1ed5e" style="font-size:6.75px; font-family:Arial;" text-anchor="middle"><textPath startOffset="21.46611528233685" xlink:href="#id119">November</textPath></text><path d="M 82.54541684631803 88.32363383020206 l -3.126851089167333 -2.0917290292233424 a24.761984591345712,24.761984591345712 0 0,0 0.24004448782312482,-0.3522356659463951 l 3.0903821356754677 2.1452427184401532" fill="#ff0a01" stroke="none" /><path d="M 83.6137871275137 86.86637796730984 l -10.896991652504038 -8.733986966425421 a34.96520516871957,34.96520516871957 0 0,0 0.38045724313860646,-0.46639559431712657 l 10.745035917289039 8.920266730350631" fill="#ff9c0e" stroke="none" /><path d="M 84.07557802195018 86.31012108654704 l -3.231493526069412 -2.7780446375055874 a25.26146482057544,25.26146482057544 0 0,0 0.286306388820906,-0.3272976954859613 l 3.1831952736706626 2.833257889194492" fill="#ff1101" stroke="none" /><path d="M 85.05521093208273 85.24692304244772 l -6.491853452488783 -6.408575801670103 a30.12217107131532,30.12217107131532 0 0,0 0.3674391357003236,-0.36586123527985365 l 6.380578516621147 6.519372887600065" fill="#ff5808" stroke="none" /><path d="M 85.83668400450813 84.49514656593479 l -3.8197556938751633 -4.181559756650314 a26.663565622408658,26.663565622408658 0 0,0 0.3415336278067483,-0.3066322632170035 l 3.7472110784724437 4.246691028636596" fill="#ff2603" stroke="none" /><path d="M 86.37877921826538 84.01681056812374 l -6.683453976884983 -7.842388922659828 a31.303961426334887,31.303961426334887 0 0,0 0.4131265225062596,-0.34598158171624144 l 6.547469917419613 7.956271661769882" fill="#ff6909" stroke="none" /><path d="M 86.93701828274178 83.55741782278169 l -6.401203887118935 -8.057296812107431 a31.29055115739012,31.29055115739012 0 0,0 0.424608971951178,-0.33141403764380445 l 6.261562360008331 8.166289238974457" fill="#ff6909" stroke="none" /><path d="M 87.51073957382395 83.11751280151077 l -22.95866892863359 -31.03461862878971 a59.60373080945709,59.60373080945709 0 0,0 0.8300662018101965,-0.6030783966749901 l 22.42105741046961 31.425216260281367" fill="#3dff2e" stroke="none" /><path d="M 87.80319425747018 82.90503203632743 l -4.474252743901537 -6.271085145815079 a28.70359958216761,28.70359958216761 0 0,0 0.40467819133996613,-0.2835029343131489 l 4.36564341297791 6.34717292289217" fill="#ff4406" stroke="none" /><path d="M 89.00827224532344 82.1063720568725 l -5.3066196647162736 -8.638739972041014 a31.13844369568094,31.13844369568094 0 0,0 0.4591258746251769,-0.2766182022671982 l 5.157131723873448 8.728804783766831" fill="#ff6709" stroke="none" /><line stroke="#e1ed5e" stroke-width="0.3" x1="56.762969772571076" x2="54.21961505331055" y1="26.818313649435495" y2="22.513508569990535" /><path d="M 56.25429882871897 25.957352633546506 a86.0,86.0 0 0,1 42.265352541879196,-11.944610805530505" fill="none" id="id120" stroke="none" /><text fill="#e1ed5e" style="font-size:6.75px; font-family:Arial;" text-anchor="middle"><textPath startOffset="22.20632615414155" xlink:href="#id120">December</textPath></text><path d="M 89.94658935756843 81.56283822128135 l -1.901784134204413 -3.48772202764081 a24.972529148439637,24.972529148439637 0 0,0 0.37917212474744094,-0.2025406174778296 l 1.8414669629286666 3.519941371620389" fill="#ff0d01" stroke="none" /><path d="M 90.58718382345135 81.22770947309562 l -4.592532325493937 -9.15903906454308 a31.245943087219104,31.245943087219104 0 0,0 0.4828669676742645,-0.2369407239695444 l 4.434194090809247 9.236734948647454" fill="#ff6809" stroke="none" /><path d="M 91.23893434514133 80.91482961587045 l -4.279297772939131 -9.322053998725217 a31.257342744816057,31.257342744816057 0 0,0 0.49091574125967485,-0.2202595832528311 l 4.118199913212682 9.394333912494577" fill="#ff6909" stroke="none" /><path d="M 91.90106846888425 80.62456947434976 l -5.34904651478183 -12.79675951419592 a34.869727923844195,34.869727923844195 0 0,0 0.5557838285321488,-0.22671817855911747 l 5.127978816661301 12.886938578938613" fill="#ff9b0e" stroke="none" /><path d="M 92.23578459929587 80.48803036053334 l -2.3200638406076983 -5.830468744524576 a27.27511450137552,27.27511450137552 0 0,0 0.4377225125488099,-0.16982953444168916 l 2.219358163059212 5.869540982856817" fill="#ff2f04" stroke="none" /><path d="M 93.59665428221793 80.00007090966166 l -3.1019598136460402 -9.68852519421493 a31.172987522080838,31.172987522080838 0 0,0 0.5124462509013448,-0.15921954461557689 l 2.9347281900339666 9.740484873713031" fill="#ff6709" stroke="none" /><path d="M 94.63758080256005 79.69619591428918 l -2.9823284655436653 -11.292032691615256 a32.679224519842904,32.679224519842904 0 0,0 0.5451067559032471,-0.138959849387952 l 2.7875128209554187 11.341695537172072" fill="#ff7c0b" stroke="none" /><path d="M 98.19473922651362 79.07773832637324 l -1.6345252203902758 -18.94350382803895 a40.01388992234409,40.01388992234409 0 0,0 0.6867332614184971,-0.053303718066538615 l 1.3082017696094446 18.96883280829395" fill="#ffdf14" stroke="none" /></svg>