<?xml version="1.0" encoding="utf-8" ?>
<svg baseProfile="full" height="200mm" version="1.1" viewBox="0,0,200,200" width="200mm" xmlns="http://www.w3.org/2000/svg" xmlns:ev="http://www.w3.org/2001/xml-events" xmlns:xlink="http://www.w3.org/1999/xlink"><defs /><rect fill="#1a1a1a" height="200" width="200" x="0" y="0" /><text alignment-baseline="middle" fill="#e1ed5e" style="dominant-baseline: central; font-size:9.0px; font-family:Arial;" text-anchor="middle" x="100.0" y="100.0">2021</text><line stroke="#e1ed5e" stroke-width="0.3" x1="100.0" x2="100.0" y1="15.0" y2="10.0" /><path d="M 100.0 14.0 a86.0,86.0 0 0,1 42.46469731375804,11.215312516191453" fill="none" id="id73" stroke="none" /><text fill="#e1ed5e" style="font-size:6.75px; font-family:Arial;" text-anchor="middle"><textPath startOffset="22.20632615414155" xlink:href="#id73">January</textPath></text><path d="M 100.36148047927253 79.00311137660856 l 0.5835529550634673 -33.896149601154285 a54.90117242567276,54.90117242567276 0 0,0 0.9447534005339099,0.024400193041759864 l -1.166932990792245 33.881082615970165" fill="#91ff24" stroke="none" /><path d="M 103.2404852339499 79.25152402106235 l 2.346588850093116 -15.024954250216656 a36.20709470781598,36.20709470781598 0 0,0 0.614953010135317,0.1014725157930433 l -2.6048710663673083 14.982335471483989" fill="#ff6609" stroke="none" /><path d="M 105.71112130821622 79.79150937346287 l 8.241820861688332 -29.16323268942219 a51.30547396120945,51.30547396120945 0 0,0 0.847785778517889,0.24749191656611724 l -8.742596857929648 29.01704244393737" fill="#bfff1e" stroke="none" /><path d="M 107.08798089147638 80.2323363322302 l 5.071057493241699 -14.142667778192292 a36.02433612457074,36.02433612457074 0 0,0 0.5819091197982782,0.2143220397547827 l -5.313748938812553 14.053282470631185" fill="#ff6309" stroke="none" /><path d="M 107.76421540070413 80.48803036053334 l 13.313769261945264 -33.45835325516358 a57.00996882125329,57.00996882125329 0 0,0 0.90867410279698,0.37067098197884274 l -13.887727234330631 33.22422138700116" fill="#77ff27" stroke="none" /><path d="M 110.05341064243156 81.56283822128135 l 10.796558490262457 -19.80003628800568 a43.55231944257619,43.55231944257619 0 0,0 0.6551013608071177,0.36456319802596676 l -11.135783940141609 19.61125769241953" fill="#ffd413" stroke="none" /><path d="M 110.36928655335952 81.73862282372117 l 16.415356869722807 -28.909127136052298 a54.244572082203,54.244572082203 0 0,0 0.8079942568253871,0.46804242597385565 l -16.91054785901352 28.622280552688395" fill="#99ff23" stroke="none" /><line stroke="#e1ed5e" stroke-width="0.3" x1="143.23703022742887" x2="145.7803849466894" y1="26.81831364943548" y2="22.513508569990506" /><path d="M 143.74570117128098 25.957352633546492 a86.0,86.0 0 0,1 28.547481713284135,27.462654790039103" fill="none" id="id74" stroke="none" /><text fill="#e1ed5e" style="font-size:6.75px; font-family:Arial;" text-anchor="middle"><textPath startOffset="19.985693538727396" xlink:href="#id74">February</textPath></text><path d="M 111.60114157652 82.49532879139004 l 8.430649245352754 -12.720794944326842 a36.260880404281345,36.260880404281345 0 0,0 0.5173137878956432,0.3492925788261285 l -8.64836772765494 12.573790453202044" fill="#ff6709" stroke="none" /><path d="M 112.19680574252982 82.90503203632743 l 8.964852871596486 -12.56508268427932 a36.435345473041664,36.435345473041664 0 0,0 0.5074136873266103,0.368657623134795 l -9.179811875276886 12.408905826327851" fill="#ff6909" stroke="none" /><path d="M 113.34407831869373 83.78471172551755 l 19.511709898797598 -23.709992790873216 a51.70619776719508,51.70619776719508 0 0,0 0.6823801430323538,0.5714737455872504 l -19.91694757878907 23.370617887892145" fill="#baff1f" stroke="none" /><path d="M 114.16331599549186 84.49514656593476 l 42.48994798647556 -46.51456030219571 a84.0,84.0 0 0,0 1.0591684648206128,0.984381655701438 l -43.28432433509102 45.77627406041963" fill="#4dd2ff" stroke="none" /><path d="M 114.68862486808459 84.99185889309783 l 21.52935841404665 -21.997678606467023 a51.78004447355296,51.78004447355296 0 0,0 0.6316282695175308,0.6289158569974195 l -21.904822483731504 21.623826898819484" fill="#b9ff1f" stroke="none" /><path d="M 114.94478906791727 85.2469230424477 l 17.202861351516287 -16.982182636077262 a45.17298007620444,45.17298007620444 0 0,0 0.5415073047718147,0.5580708774032741 l -17.49263291999121 16.683547563123874" fill="#ffec16" stroke="none" /><path d="M 115.9244219780498 86.31012108654704 l 11.522170532596487 -9.9053591790538 a36.19462254379161,36.19462254379161 0 0,0 0.40208672801459533,0.47594386128669686 l -11.6909678740982 9.705556368137996" fill="#ff6609" stroke="none" /><path d="M 117.45458315368197 88.32363383020206 l 15.397734811046899 -10.300423003874615 a39.52535968261007,39.52535968261007 0 0,0 0.37342687379609807,0.5687547481366619 l -15.57275832020092 10.033850191760278" fill="#ff990e" stroke="none" /><path d="M 117.65298651832404 88.62581576622439 l 41.9489936066194 -27.028603981988606 a70.90253999370539,70.90253999370539 0 0,0 0.652210194421492,1.0316398989578215 l -42.40803139728685 26.302516435316576" fill="#3aff96" stroke="none" /><line stroke="#e1ed5e" stroke-width="0.3" x1="172.23445277983987" x2="176.4835382374775" y1="55.19839476539836" y2="52.563006222186495" /><path d="M 173.08426987136738 54.67131705675599 a86.0,86.0 0 0,1 12.851231095245387,41.99856678651699" fill="none" id="id75" stroke="none" /><text fill="#e1ed5e" style="font-size:6.75px; font-family:Arial;" text-anchor="middle"><textPath startOffset="22.20632615414155" xlink:href="#id75">March</textPath></text><path d="M 118.03404312379186 89.2402003453031 l 10.546356869233152 -6.292359745451545 a33.28085641880892,33.28085641880892 0 0,0 0.28929039831407993,0.49449106557916167 l -10.65310694201756 6.109889267518488" fill="#ff3705" stroke="none" /><path d="M 118.21658344932153 89.55222093294921 l 13.505626507869515 -7.745898253032775 a36.569228854262626,36.569228854262626 0 0,0 0.30847425977909043,0.5487412876641189 l -13.636958408941037 7.512273455433863" fill="#ff6b09" stroke="none" /><path d="M 118.3937258080291 89.86733742301442 l 13.06734510278982 -7.198487140968304 a35.918904958276634,35.918904958276634 0 0,0 0.2936659555370392,0.5441184154810398 l -13.189319157545325 6.972487742154805" fill="#ff6109" stroke="none" /><path d="M 118.73160827565052 90.50648371742162 l 14.52663795168866 -7.362361624054843 a37.28580912521072,37.28580912521072 0 0,0 0.28521866166169274,0.5749834176313262 l -14.651216626303759 7.111218617924567" fill="#ff770a" stroke="none" /><path d="M 118.89224826269711 90.83032412892265 l 22.68543520067028 -11.010764038878746 a46.21638148037255,46.21638148037255 0 0,0 0.3412129170864462,0.7186814235269393 l -22.87160631159848 10.618640199711267" fill="#fffa17" stroke="none" /><path d="M 119.34039704204932 91.81776055985345 l 14.025979990392921 -5.933897138439447 a36.229551862759536,36.229551862759536 0 0,0 0.2380424976615517,0.5764387894489934 l -14.12604417494067 5.691583778537151" fill="#ff6609" stroke="none" /><path d="M 119.7369772167798 92.82701384747503 l 28.629495729859773 -10.404783577977007 a51.461574927285014,51.461574927285014 0 0,0 0.29540639591235035,0.8351536610973025 l -28.80435520658193 9.910432290453091" fill="#bdff1f" stroke="none" /><path d="M 119.85752413597 93.16781622104841 l 12.596863418725048 -4.334079380983103 a34.32160696277578,34.32160696277578 0 0,0 0.18740039697397765,0.560303334179444 l -12.669601109470795 4.116602943881345" fill="#ff4806" stroke="none" /><path d="M 120.45610955862082 95.25157060432595 l 11.650369634752593 -2.7043733553340137 a32.96013159925115,32.96013159925115 0 0,0 0.12353082676250347,0.553764474415327 l -11.695194848517135 2.503430711368723" fill="#ff3204" stroke="none" /><path d="M 120.53481517161879 95.60439243477599 l 11.979738047306006 -2.5643389896646998 a33.2511206889813,33.2511206889813 0 0,0 0.1149866569547255,0.5607157759912718 l -12.022104000175728 2.357747557510016" fill="#ff3705" stroke="none" /><path d="M 120.73433829027371 96.67025291283417 l 14.10423191298403 -2.26501200431364 a35.28494442533544,35.28494442533544 0 0,0 0.09114287073315605,0.600517640800521 l -14.141130677156486 2.021895251121037" fill="#ff5708" stroke="none" /><path d="M 120.83666639777658 97.38593545837742 l 20.771133889947095 -2.6058431590957185 a41.93395379864766,41.93395379864766 0 0,0 0.08368748575548263,0.7169832708667033 l -20.812911728706165 2.2479161499041624" fill="#ffbd11" stroke="none" /><path d="M 120.87857604477298 97.74499172005257 l 16.312519717959063 -1.7618475010901231 a37.40738876743953,37.40738876743953 0 0,0 0.06363330702358348,0.6407787177190507 l -16.340430150664876 1.4807932526666374" fill="#ff790b" stroke="none" /><path d="M 120.91429891909075 98.10471618934814 l 31.132612716373863 -2.8212820851851426 a52.26018565446965,52.26018565446965 0 0,0 0.07347661700653582,0.896600836925887 l -31.176563817199895 2.2849673310514866" fill="#b2ff20" stroke="none" /><path d="M 120.96714384426684 98.82574320788733 l 16.196582430458452 -0.9070833428358911 a37.221962970537376,37.221962970537376 0 0,0 0.030320641947252366,0.6400208294452867 l -16.2097966806392 0.6281514067676046" fill="#ff760a" stroke="none" /><line stroke="#e1ed5e" stroke-width="0.3" x1="184.98032266829074" x2="189.97916517819016" y1="98.17113171792111" y2="98.06355123074" /><path d="M 185.9800911702706 98.14961562048488 a86.0,86.0 0 0,1 -9.607161424134198,41.387399972396054" fill="none" id="id76" stroke="none" /><text fill="#e1ed5e" style="font-size:6.75px; font-family:Arial;" text-anchor="middle"><textPath startOffset="21.466115282336823" xlink:href="#id76">April</textPath></text><path d="M 120.99513854157772 99.54816195383933 l 30.481177482191654 -0.6559878445648517 a51.488235448334564,51.488235448334564 0 0,0 0.011442629921845868,0.8862442976675686 l -30.487953119231214 0.13120728883682045" fill="#bcff1f" stroke="none" /><path d="M 120.99824983174949 100.27111621757518 l 15.002225693671397 0.19369931865119505 a36.003476103553474,36.003476103553474 0 0,0 -0.013334894297870045,0.6196201395610219 l -14.996668736688518 -0.4519092740023318" fill="#ff6309" stroke="none" /><path d="M 120.9764740272857 100.99374915477107 l 15.53779426664929 0.7360946315097836 a36.55522053778914,36.55522053778914 0 0,0 -0.03518640005618343,0.6282768098897294 l -15.522821515705576 -1.0034431577349363" fill="#ff6b09" stroke="none" /><path d="M 120.92983693683757 101.71520430193887 l 25.041299658262243 2.052139490126458 a46.12524557216946,46.12524557216946 0 0,0 -0.07165975041005104,0.7907593744642212 l -25.002265311575115 -2.4828802531392498" fill="#fff917" stroke="none" /><path d="M 120.89721153311464 102.0752229133903 l 18.132863256842988 1.8007059581295757 a39.22205454494662,39.22205454494662 0 0,0 -0.07250047084928742,0.671264317461388 l -18.09918048449265 -2.1125665974757553" fill="#ff940d" stroke="none" /><path d="M 120.8583938346157 102.4346265915055 l 20.965716786851058 2.44715350587211 a42.10805156019263,42.10805156019263 0 0,0 -0.09022851279831287,0.7192100236281932 l -20.920486764805897 -2.8076812837876983" fill="#ffbf11" stroke="none" /><path d="M 120.81339534386255 102.79330883721812 l 30.22697776283255 4.056679975197476 a51.49798086916479,51.49798086916479 0 0,0 -0.12547347913808218,0.8775612208522322 l -30.152670232677867 -4.576386668030117" fill="#bcff1f" stroke="none" /><path d="M 120.64145759157962 103.86396538481128 l 16.296520949480072 3.050617552673713 a37.57959174737194,37.57959174737194 0 0,0 -0.12449593888627836,0.6348021102271875 l -16.24159507761813 -3.3306833899688453" fill="#ff7b0b" stroke="none" /><path d="M 120.49622156327973 104.57218783832717 l 15.596631676356326 3.479213446699966 a36.97998266130534,36.97998266130534 0 0,0 -0.1439391835539556,0.6200862355120115 l -15.534431926871818 -3.747168339560542" fill="#ff720a" stroke="none" /><path d="M 120.41448212921028 104.9243191809786 l 29.635334256320846 7.148545037265575 a51.485319952949126,51.485319952949126 0 0,0 -0.21522993198893728,0.8597365898674777 l -29.507893010036845 -7.657609466530449" fill="#bcff1f" stroke="none" /><path d="M 120.23288151984713 105.62410040840565 l 29.333308095787388 8.153730840541854 a51.44546420178857,51.44546420178857 0 0,0 -0.24450648219767074,0.8511591407670512 l -29.188608976703616 -8.657447456813486" fill="#bdff1f" stroke="none" /><path d="M 120.02730092923936 106.31721596034902 l 23.490584090878862 7.409640133791947 a45.63149016691746,45.63149016691746 0 0,0 -0.2427329071105052,0.7470550721446972 l -23.359558932752112 -7.81289410591444" fill="#fff216" stroke="none" /><path d="M 119.9155931802556 106.66101706037122 l 15.835788814390641 5.296475907213629 a37.69804971874483,37.69804971874483 0 0,0 -0.21112553821344532,0.6136296397220812 l -15.742272445233965 -5.56827825002501" fill="#ff7d0b" stroke="none" /><path d="M 119.41010516605496 108.01547362559984 l 15.297499723411828 6.317158228749037 a37.55052826573329,37.55052826573329 0 0,0 -0.2518550029494764,0.5953108302073996 l -15.186493739270045 -6.579543584622599" fill="#ff7b0b" stroke="none" /><path d="M 119.26925614724726 108.34839909993367 l 15.036592670415464 6.5145989941961835 a37.38716324417298,37.38716324417298 0 0,0 -0.2609248614305151,0.5883166803741146 l -14.922226724253676 -6.772464011062986" fill="#ff780b" stroke="none" /><path d="M 118.81262510543309 109.33194174019688 l 14.351198079701629 7.118865316841055 a37.01983550858604,37.01983550858604 0 0,0 -0.2880871791955544,0.5684233353906007 l -14.226532230719807 -7.36484286393435" fill="#ff730a" stroke="none" /><line stroke="#e1ed5e" stroke-width="0.3" x1="174.80103733775053" x2="179.2010983576182" y1="140.37084112569926" y2="142.7455964860345" /><path d="M 175.68104954172406 140.8457921977663 a86.0,86.0 0 0,1 -30.038265399797805,32.042727171017184" fill="none" id="id77" stroke="none" /><text fill="#e1ed5e" style="font-size:6.75px; font-family:Arial;" text-anchor="middle"><textPath startOffset="22.206326154141568" xlink:href="#id77">May</textPath></text><path d="M 117.94076556474637 110.91462005526583 l 13.210024477224028 8.036580020474737 a36.46257951036475,36.46257951036475 0 0,0 -0.33082908217347146,0.5334018187366409 l -13.069730755382594 -8.262778170576652" fill="#ff6a09" stroke="none" /><path d="M 117.55443506779139 111.5257021239791 l 13.298417003430748 8.731331570061498 a36.90861545777911,36.90861545777911 0 0,0 -0.3532627186001647,0.5280798329921699 l -13.146151179419862 -8.958948317259473" fill="#ff710a" stroke="none" /><path d="M 116.93607887273984 112.41649034213515 l 12.655204127193363 9.278016535218514 a36.69190180726097,36.69190180726097 0 0,0 -0.37781954139762736,0.5061510180891615 l -12.493623319100642 -9.49448043281699" fill="#ff6d0a" stroke="none" /><path d="M 116.71984013943494 112.70617746262583 l 12.433970906876638 9.449147814235056 a36.616978802838844,36.616978802838844 0 0,0 -0.38568695644087836,0.49855238232477095 l -12.269477133217691 -9.661778190673079" fill="#ff6c0a" stroke="none" /><path d="M 116.27256486870786 113.27417163493432 l 23.50820052711002 19.176564428720624 a51.337701219962085,51.337701219962085 0 0,0 -0.564480027045684,0.6799525561899574 l -23.174624500170793 -19.578378242024353" fill="#beff1e" stroke="none" /><path d="M 115.56566222782051 114.09645910891815 l 11.581303914312292 10.488174204645826 a36.624608747186706,36.624608747186706 0 0,0 -0.42720616516069926,0.46364791803960204 l -11.39905134115587 -10.685973377486764" fill="#ff6c0a" stroke="none" /><path d="M 115.32070863581623 114.36230785411682 l 22.110339542931502 20.7272072606527 a51.30650483856188,51.30650483856188 0 0,0 -0.6095541347078404,0.6391150732758548 l -21.750278856844698 -21.104729450511066" fill="#bfff1e" stroke="none" /><path d="M 114.81725581225074 114.88116024355365 l 7.88887239395607 7.922895826523132 a32.180634415186816,32.180634415186816 0 0,0 -0.3958984968447938,0.3874700047507773 l -7.751323944735482 -8.05751593419648" fill="#ff2503" stroke="none" /><path d="M 114.29624159901734 115.38237550388516 l 10.535711414749448 11.336145102177396 a36.47609126338115,36.47609126338115 0 0,0 -0.4635945329468675,0.42348261412667954 l -10.339017332335716 -11.515820482890659" fill="#ff6a09" stroke="none" /><path d="M 114.0293411484842 115.62618273729858 l 16.189440537480433 18.03214802290495 a45.23337259311154,45.23337259311154 0 0,0 -0.5838500735804026,0.5151798068506607 l -15.876648110993441 -18.308150971527898" fill="#ffec16" stroke="none" /><path d="M 113.75828350139079 115.86535959552629 l 12.978304880240255 14.96592753337078 a40.80947713844496,40.80947713844496 0 0,0 -0.5346712401726638,0.45565843031998066 l -12.718768163490545 -15.187110353913706" fill="#ffac0f" stroke="none" /><path d="M 113.20401910651253 116.32954008644616 l 9.731154959115255 12.03461489342409 a36.47667058741441,36.47667058741441 0 0,0 -0.49164039525642994,0.39058886405315335 l -9.522557071141474 -12.200337671482368" fill="#ff6a09" stroke="none" /><path d="M 112.92097659922987 116.55440617244103 l 9.575500044412907 12.268168417616854 a36.562716903663166,36.562716903663166 0 0,0 -0.49946633751839437,0.38296948927186863 l -9.36290497840102 -12.431177248716095" fill="#ff6b09" stroke="none" /><path d="M 112.04921762599082 117.19931262002967 l 8.629489723459216 12.317919396273133 a36.03992124781144,36.03992124781144 0 0,0 -0.5111544010663859,0.3515766580081345 l -8.416178437769945 -12.464636843646362" fill="#ff6309" stroke="none" /><path d="M 111.7513745106137 117.40417183066458 l 8.67772709243557 12.851998996368865 a36.507315231640085,36.507315231640085 0 0,0 -0.5238370362080498,0.34717062363817036 l -8.455215357487557 -12.999467641098354" fill="#ff6b09" stroke="none" /><path d="M 111.45004920935366 117.60387380957326 l 8.83102809249002 13.577260787839549 a37.19657580080905,37.19657580080905 0 0,0 -0.5397368356212995,0.3444855852580399 l -8.596009454821791 -13.727260801921398" fill="#ff750a" stroke="none" /><line stroke="#e1ed5e" stroke-width="0.3" x1="143.8653032363475" x2="146.44561519142675" y1="172.8068346515853" y2="177.08958963109032" /><path d="M 144.38136562736335 173.6633856474863 a86.0,86.0 0 0,1 -40.68145358897372,12.25698825130547" fill="none" id="id78" stroke="none" /><text fill="#e1ed5e" style="font-size:6.75px; font-family:Arial;" text-anchor="middle"><textPath startOffset="21.466115282336833" xlink:href="#id78">June</textPath></text><path d="M 110.8373102113329 117.98757091392108 l 8.498947796468633 14.106399392611854 a37.46883776928351,37.46883776928351 0 0,0 -0.5553098166202988,0.3280868277861778 l -8.25487010881995 -14.25060479269178" fill="#ff790b" stroke="none" /><path d="M 109.57404056367764 118.69057910512821 l 10.929155527864296 21.33605394578887 a44.97235154359829,44.97235154359829 0 0,0 -0.692030460172903,0.3469984390473863 l -10.560271160008632 -21.52102022574556" fill="#ffe915" stroke="none" /><path d="M 108.92500713936063 119.00905698771935 l 6.9451244300076125 14.792174842593377 a37.34145617508247,37.34145617508247 0 0,0 -0.5841839732458531,0.26817020970266464 l -6.68947246099434 -14.909532122630116" fill="#ff780b" stroke="none" /><path d="M 108.59647513512805 119.15986991738527 l 6.924119355026343 15.432514379369312 a37.91466608928746,37.91466608928746 0 0,0 -0.5977505747341825,0.26203628569334914 l -6.657448105634407 -15.549415218357117" fill="#ff800b" stroke="none" /><path d="M 106.57524785965236 119.94407469862006 l 4.959401760433061 15.042882227678373 a36.839317268657396,36.839317268657396 0 0,0 -0.6039519331914981,0.19336633683447707 l -4.699728482150623 -15.126021411172555" fill="#ff700a" stroke="none" /><path d="M 105.88484417918355 120.15858648285463 l 5.0386755464667115 17.260028247100664 a38.98045678933865,38.98045678933865 0 0,0 -0.6457183795264823,0.18248646396074292 l -4.740825998835623 -17.344203504399925" fill="#ff910d" stroke="none" /><path d="M 104.48393922423573 120.51570834832081 l 4.158511632888267 19.026754725467235 a40.475898294660425,40.475898294660425 0 0,0 -0.681938972522235,0.14290694206046958 l -3.830381198936654 -19.095517648254248" fill="#ffa70f" stroke="none" /><path d="M 104.13013068566511 120.58985236759428 l 2.9690623734156674 14.801603288483598 a36.09644962522252,36.09644962522252 0 0,0 -0.6102575531397647,0.11695731248445371 l -2.7138372057041984 -14.850517799316519" fill="#ff6409" stroke="none" /><path d="M 103.41894727170886 120.7198165907248 l 2.4560491575935615 14.884373474911015 a36.08564719212108,36.08564719212108 0 0,0 -0.6137380483572221,0.09585326099293685 l -2.199475245627822 -14.924445043251058" fill="#ff6409" stroke="none" /><path d="M 102.34483914955558 120.86867818915974 l 1.6826998996427573 14.975749062033314 a36.06998801994379,36.06998801994379 0 0,0 -0.6175996158475338,0.06401672539507303 l -1.424667687189621 -15.002495155884144" fill="#ff6409" stroke="none" /><path d="M 101.62511606390274 120.93702456842531 l 1.183939647587467 15.253171167075024 a36.29905041959201,36.29905041959201 0 0,0 -0.6233709204603843,0.04299130840105176 l -0.9212059663481524 -15.27129081999236" fill="#ff6709" stroke="none" /><line stroke="#e1ed5e" stroke-width="0.3" x1="102.19456741930631" x2="102.32365962044197" y1="184.97166512339345" y2="189.96999836594603" /><path d="M 102.22038585953345 185.97133177190398 a86.0,86.0 0 0,1 -42.740103519485714,-10.115201625700543" fill="none" id="id79" stroke="none" /><text fill="#e1ed5e" style="font-size:6.75px; font-family:Arial;" text-anchor="middle"><textPath startOffset="22.20632615414155" xlink:href="#id79">July</textPath></text><path d="M 99.45781275523022 120.99299961872073 l -0.5620340640237463 21.761450505477104 a42.76870713642528,42.76870713642528 0 0,0 -0.7357839749322814,-0.025341887807328618 l 0.9365383906306708 -21.748551819243684" fill="#ffc912" stroke="none" /><path d="M 98.73552117531835 120.96189622390904 l -1.0252795241072612 16.996570100923705 a38.02746585074148,38.02746585074148 0 0,0 -0.6530533475707107,-0.045038382359922524 l 1.317695632456902 -16.976403374047496" fill="#ff820c" stroke="none" /><path d="M 97.2962882734958 120.8252237178851 l -3.9492308836195837 30.418781654395165 a51.674072144237755,51.674072144237755 0 0,0 -0.8810956100857401,-0.12211182299639428 l 4.472255084892155 -30.346295265906164" fill="#baff1f" stroke="none" /><path d="M 96.22490169976321 120.6578951692458 l -2.948577066018499 16.135048966653876 a37.40225325589654,37.40225325589654 0 0,0 -0.6323338663730731,-0.1211882904576824 l 3.225878546963267 -16.081903477847728" fill="#ff780b" stroke="none" /><path d="M 95.16358092515715 120.4354850818985 l -5.608844174755028 23.699238979538595 a45.35391264634833,45.35391264634833 0 0,0 -0.7581591456449497,-0.18633707207915895 l 6.015956605143188 -23.599180649145406" fill="#ffee16" stroke="none" /><path d="M 94.81253420990036 120.34920634021253 l -4.12612319350153 16.185809342578153 a37.70345223845183,37.70345223845183 0 0,0 -0.6275103283971173,-0.16573118108230206 l 4.404123964710137 -16.11238681219227" fill="#ff7d0b" stroke="none" /><path d="M 94.11515582081647 120.15858648285463 l -4.292777241105622 14.7049469164473 a36.31872710956388,36.31872710956388 0 0,0 -0.5986104928140731,-0.18035643100813084 l 4.545262708359941 -14.628875116333443" fill="#ff6809" stroke="none" /><path d="M 93.42475214034765 119.94407469862007 l -4.708995221557021 14.283347861375338 a36.03956987834766,36.03956987834766 0 0,0 -0.5874969324420127,-0.19931085710227014 l 4.95416188693626 -14.200174017374946" fill="#ff6309" stroke="none" /><path d="M 91.07499286063937 119.00905698771935 l -3.7963571846222264 8.085726872974965 a29.932597994849107,29.932597994849107 0 0,0 -0.46450735716012764,-0.22299175950247224 l 3.934977209782596 -8.01918083697293" fill="#ff0000" stroke="none" /><path d="M 90.10565033884886 118.52300852407294 l -8.762296269852971 16.4037146508178 a39.5973033062897,39.5973033062897 0 0,0 -0.5984419419492766,-0.3263182620122555 l 9.043361023670888 -16.25045573704578" fill="#ff9a0e" stroke="none" /><line stroke="#e1ed5e" stroke-width="0.3" x1="58.666819895761336" x2="56.23545636021788" y1="174.27360380694188" y2="178.64263932499728" /><path d="M 58.180547188652646 175.14741091055294 a86.0,86.0 0 0,1 -31.652253787137756,-30.449443065178592" fill="none" id="id80" stroke="none" /><text fill="#e1ed5e" style="font-size:6.75px; font-family:Arial;" text-anchor="middle"><textPath startOffset="22.20632615414155" xlink:href="#id80">August</textPath></text><path d="M 89.4739219176387 118.17145234162733 l -7.870798094239553 13.58757092061786 a36.70259679680737,36.70259679680737 0 0,0 -0.5439536828503448,-0.3213774237868474 l 8.10351964811828 -13.450074924537263" fill="#ff6e0a" stroke="none" /><path d="M 88.54995079064634 117.60387380957326 l -8.498932996976015 13.066681309331194 a36.587495710559566,36.587495710559566 0 0,0 -0.5249875317778436,-0.34793310936722116 l 8.722595227493821 -12.918450178872654" fill="#ff6c09" stroke="none" /><path d="M 87.95078237400918 117.19931262002967 l -17.920992080474747 25.58080987667573 a52.23363237113271,52.23363237113271 0 0,0 -0.7319490749529572,-0.5222262305256595 l 18.358668483276592 -25.26853938430585" fill="#b3ff20" stroke="none" /><path d="M 86.51685102203217 116.09983520530335 l -11.149909205189047 13.3137815988661 a38.36597983835824,38.36597983835824 0 0,0 -0.5026574084990929,-0.42837554844252373 l 11.377432090265197 -13.119881660200624" fill="#ff870c" stroke="none" /><line stroke="#e1ed5e" stroke-width="0.3" x1="26.63291911575756" x2="22.317208475507996" y1="142.92168965132927" y2="145.44649492493687" /><path d="M 25.769776987707644 143.4266507060508 a86.0,86.0 0 0,1 -11.730757126820373,-40.83630448921669" fill="none" id="id81" stroke="none" /><text fill="#e1ed5e" style="font-size:6.75px; font-family:Arial;" text-anchor="middle"><textPath startOffset="21.46611528233685" xlink:href="#id81">September</textPath></text><line stroke="#e1ed5e" stroke-width="0.3" x1="15.007084014347285" x2="10.007500721073583" y1="101.09737516637583" y2="101.16192664675087" /><path d="M 14.007167355692545 101.11028546245083 a86.0,86.0 0 0,1 10.666146001902534,-42.60595125391555" fill="none" id="id82" stroke="none" /><text fill="#e1ed5e" style="font-size:6.75px; font-family:Arial;" text-anchor="middle"><textPath startOffset="22.20632615414155" xlink:href="#id82">October</textPath></text><line stroke="#e1ed5e" stroke-width="0.3" x1="26.266209847984243" x2="21.928928074336255" y1="57.711370442889674" y2="55.22380399835377" /><path d="M 25.398753493254645 57.213857153982495 a86.0,86.0 0 0,1 29.58750427330803,-30.492523968695096" fill="none" id="id83" stroke="none" /><text fill="#e1ed5e" style="font-size:6.75px; font-family:Arial;" text-anchor="middle"><textPath startOffset="21.46611528233685" xlink:href="#id83">November</textPath></text><line stroke="#e1ed5e" stroke-width="0.3" x1="56.762969772571076" x2="54.21961505331055" y1="26.818313649435495" y2="22.513508569990535" /><path d="M 56.25429882871897 25.957352633546506 a86.0,86.0 0 0,1 42.265352541879196,-11.944610805530505" fill="none" id="id84" stroke="none" /><text fill="#e1ed5e" style="font-size:6.75px; font-family:Arial;" text-anchor="middle"><textPath startOffset="22.20632615414155" xlink:href="#id84">December</textPath></text></svg>