<?xml version="1.0" encoding="utf-8" ?>
<svg baseProfile="full" height="200mm" version="1.1" viewBox="0,0,200,200" width="200mm" xmlns="http://www.w3.org/2000/svg" xmlns:ev="http://www.w3.org/2001/xml-events" xmlns:xlink="http://www.w3.org/1999/xlink"><defs /><rect fill="#1a1a1a" height="200" width="200" x="0" y="0" /><text alignment-baseline="middle" fill="#e1ed5e" style="dominant-baseline: central; font-size:9.0px; font-family:Arial;" text-anchor="middle" x="100.0" y="100.0">2019</text><line stroke="#e1ed5e" stroke-width="0.3" x1="100.0" x2="100.0" y1="15.0" y2="10.0" /><path d="M 100.0 14.0 a86.0,86.0 0 0,1 42.46469731375804,11.215312516191453" fill="none" id="id25" stroke="none" /><text fill="#e1ed5e" style="font-size:6.75px; font-family:Arial;" text-anchor="middle"><textPath startOffset="22.20632615414155" xlink:href="#id25">January</textPath></text><path d="M 100.0 79.0 l 0.0 -30.194098646568378 a51.19409864656838,51.19409864656838 0 0,0 0.8812222530803159,0.007584958144056577 l -0.5197417738077875 30.18962506503288" fill="#baff1f" stroke="none" /><path d="M 100.36148047927253 79.00311137660856 l 0.6638598442450111 -38.56084079341271 a59.566554844680155,59.566554844680155 0 0,0 1.0250364930510245,0.026473668463282578 l -1.3275229724909035 38.54370033280706" fill="#54ff2b" stroke="none" /><path d="M 100.72285384407766 79.0124445844662 l 1.409494563675585 -40.923688108459196 a61.94795383561278,61.94795383561278 0 0,0 1.0653843544025727,0.045877691396095606 l -2.113719750467489 40.8933626905389" fill="#39ff2e" stroke="none" /><path d="M 101.08401301168833 79.027996857942 l 2.018891159176186 -39.05874862864613 a60.110890630978545,60.110890630978545 0 0,0 1.0328709817956412,0.06230559827021491 l -2.690924189811439 39.01820976099561" fill="#4eff2c" stroke="none" /><path d="M 101.44485096284872 79.0497635885617 l 2.1194301636896897 -30.73158694464014 a51.804584404837115,51.804584404837115 0 0,0 0.8890895455004743,0.06901046029337514 l -2.648109898552505 30.6905512221583" fill="#b2ff20" stroke="none" /><path d="M 101.80526077348638 79.07773832637324 l 3.31411315238318 -38.40926674336353 a59.55197942712736,59.55197942712736 0 0,0 1.0205362394219928,0.0969122128554946 l -3.9747745188954173 38.34652898599286" fill="#54ff2b" stroke="none" /><path d="M 102.16513564639614 79.11191278185805 l 3.433437625715622 -33.12399604309902 a54.30146555022645,54.30146555022645 0 0,0 0.9288997368505209,0.10437270867066224 l -4.003104066075868 33.05998738095776" fill="#93ff23" stroke="none" /><path d="M 102.52436894288641 79.15227682838746 l 4.636481870887786 -38.29079374742504 a59.570478995559746,59.570478995559746 0 0,0 1.0169113969352803,0.13202428487471068 l -5.294907996330912 38.20531113938619" fill="#54ff2b" stroke="none" /><path d="M 102.88285421437855 79.19881850522331 l 5.41565433945902 -39.07655415462821 a60.45004938557229,60.45004938557229 0 0,0 1.0294672759476347,0.15171671596959474 l -6.087490595835311 38.97754295449765" fill="#4aff2c" stroke="none" /><path d="M 103.2404852339499 79.25152402106235 l 5.7901748285147 -37.07386229834736 a58.52329130369012,58.52329130369012 0 0,0 0.9939785127930009,0.16401497134738707 l -6.427482547446576 36.96870106406035" fill="#60ff29" stroke="none" /><path d="M 103.59715602781102 79.31037775812273 l 5.022145921139255 -28.88568111825437 a50.319013000418224,50.319013000418224 0 0,0 0.8520803106778705,0.1557122304161004 l -5.518621352920026 28.794953406487533" fill="#c5ff1e" stroke="none" /><path d="M 103.95276090670814 79.375362276772 l 4.041361334929961 -21.086935286204064 a42.47071124122405,42.47071124122405 0 0,0 0.7168117465577125,0.14378569294467938 l -4.403739490954799 21.014245637182174" fill="#ffce13" stroke="none" /><path d="M 104.307194497241 79.44645832069477 l 4.644047990591758 -22.16097601268376 a43.64235057527518,43.64235057527518 0 0,0 0.7339339828905188,0.16040954170376967 l -5.024824697635805 22.07775297288412" fill="#ffdf14" stroke="none" /><path d="M 104.66035177308747 79.52364482259891 l 9.225946391482386 -40.536372436645536 a62.573015011434315,62.573015011434315 0 0,0 1.0481764055410014,0.24806948997012845 l -9.922346483985912 40.37155703453454" fill="#32ff2f" stroke="none" /><path d="M 105.01212808612495 79.60689891045804 l 4.821287142544376 -19.616616812287354 a41.200407542200196,41.200407542200196 0 0,0 0.6872445973612944,0.17519395000666937 l -5.158240628590696 19.530719866111816" fill="#ffbc11" stroke="none" /><path d="M 105.36241919743992 79.69619591428918 l 9.986092752691539 -37.81048503801854 a60.10696648009895,60.10696648009895 0 0,0 0.9980679087604839,0.2728096616979166 l -10.635458550675734 37.63298883549433" fill="#4eff2c" stroke="none" /><path d="M 105.71112130821622 79.79150937346287 l 10.536513415936794 -37.282876883742105 a59.743141634262024,59.743141634262024 0 0,0 0.987212122429701,0.288194289676063 l -11.176715756089921 37.09598426514734" fill="#52ff2b" stroke="none" /><path d="M 106.0581310904928 79.89281104454417 l 6.2060521066103895 -20.598144957749543 a42.512755714934016,42.512755714934016 0 0,0 0.6988583390081538,0.2171386877979131 l -6.559695818329262 20.48826613506911" fill="#ffcf13" stroke="none" /><path d="M 106.40334571778207 80.00007090966166 l 6.321410060133796 -19.744014851882497 a41.7312890969114,41.7312890969114 0 0,0 0.6822413522351141,0.22492424736859729 l -6.6603342346113275 19.63227688025466" fill="#ffc412" stroke="none" /><path d="M 106.74666289553966 80.11325718540242 l 4.40564333163144 -12.986256646515494 a34.71322554524341,34.71322554524341 0 0,0 0.5642023131239075,0.1968391086461104 l -4.628527648818621 12.908496684697177" fill="#ff5a08" stroke="none" /><path d="M 107.08798089147638 80.2323363322302 l 4.644043112280446 -12.951767747085587 a34.75919416983298,34.75919416983298 0 0,0 0.5614730002052459,0.20679524444116107 l -4.866298438258268 12.8699092348381" fill="#ff5b08" stroke="none" /><path d="M 107.4271985657038 80.35727306442388 l 4.486812812002308 -11.866282838346898 a33.68621920075458,33.68621920075458 0 0,0 0.540610618007893,0.20974852089719115 l -4.6904065950098675 11.787291613559159" fill="#ff4a06" stroke="none" /><path d="M 107.76421540070413 80.48803036053334 l 3.8466308438704426 -9.666829211491136 a31.404045167777472,31.404045167777472 0 0,0 0.5005447846585702,0.2041847855932945 l -4.0124594981174 9.599183539714263" fill="#ff2603" stroke="none" /><path d="M 108.09893153111575 80.62456947434976 l 8.313546262250574 -19.888862797167548 a42.55648196759239,42.55648196759239 0 0,0 0.6734385794825959,0.2883312544091441 l -8.654668599523486 19.742812014795614" fill="#ffcf13" stroke="none" /><path d="M 108.43124777332544 80.76684994638697 l 12.18153664504745 -27.788214565229836 a51.34097400806186,51.34097400806186 0 0,0 0.8063414896757649,0.36178192212725496 l -12.658060253189994 27.574412312586052" fill="#b8ff1f" stroke="none" /><path d="M 108.76106565485865 80.91482961587045 l 12.741553915965318 -27.756295526664967 a51.541105702921314,51.541105702921314 0 0,0 0.8031129904622097,0.3770723175915124 l -13.217445117727125 27.53285822643345" fill="#b5ff1f" stroke="none" /><path d="M 109.08828744355905 81.06846463323043 l 6.513619062421768 -13.568321910119042 a36.05080040220322,36.05080040220322 0 0,0 0.5571200275136584,0.27337637795523745 l -6.746210356945858 13.454190372028973" fill="#ff6f0a" stroke="none" /><path d="M 109.41281617654863 81.2277094730956 l 13.584387079752936 -27.09179230827734 a51.30677783611108,51.30677783611108 0 0,0 0.7860675087801153,0.4026543090248588 l -14.048715076121807 26.853945473939984" fill="#b8ff1f" stroke="none" /><path d="M 110.05341064243156 81.56283822128135 l 7.48041167554555 -13.718484715162486 a36.6254082095728,36.6254082095728 0 0,0 0.5509087705384462,0.30658013434837506 l -7.715444535156032 13.58768918325393" fill="#ff780b" stroke="none" /><path d="M 110.36928655335952 81.73862282372117 l 7.817586358191675 -13.767571410090673 a36.832267020225835,36.832267020225835 0 0,0 0.5486311178398174,0.3178025551411671 l -8.05341420849682 13.630964697559456" fill="#ff7b0b" stroke="none" /><line stroke="#e1ed5e" stroke-width="0.3" x1="143.23703022742887" x2="145.7803849466894" y1="26.81831364943548" y2="22.513508569990506" /><path d="M 143.74570117128098 25.957352633546492 a86.0,86.0 0 0,1 28.547481713284135,27.462654790039103" fill="none" id="id26" stroke="none" /><text fill="#e1ed5e" style="font-size:6.75px; font-family:Arial;" text-anchor="middle"><textPath startOffset="19.985693538727396" xlink:href="#id26">February</textPath></text><path d="M 110.68208982089419 81.91981866633111 l 10.432196919610783 -17.657220186088637 a41.508733682739965,41.508733682739965 0 0,0 0.612032311021236,0.36874261931402613 l -10.734591296849658 17.475030957315994" fill="#ffc011" stroke="none" /><path d="M 110.99172775467656 82.1063720568725 l 16.128881871999564 -26.256491954454017 a51.814675078527515,51.814675078527515 0 0,0 0.7559535271483346,0.4733780293489773 l -16.578454551520164 25.974969583782098" fill="#b2ff20" stroke="none" /><path d="M 111.2981086023043 82.29822771554956 l 18.809705584341916 -29.470873109120838 a55.96194196527883,55.96194196527883 0 0,0 0.8075387484107596,0.5252456651180245 l -19.314211358536955 29.142728519843285" fill="#7eff26" stroke="none" /><path d="M 111.60114157652 82.49532879139004 l 13.356059283257274 -20.15262246857713 a45.17669356919764,45.17669356919764 0 0,0 0.6445107293126563,0.43517652146580754 l -13.70097470697647 19.91973403481265" fill="#fff417" stroke="none" /><path d="M 111.90073688211348 82.69761687909136 l 10.106323356095611 -14.693500107020194 a38.83358396882035,38.83358396882035 0 0,0 0.5474959500729163,0.3835559011872754 l -10.35775044575218 14.517359363068984" fill="#ff990e" stroke="none" /><path d="M 112.19680574252982 82.90503203632743 l 13.271803837223386 -18.601678685949263 a43.85089116487662,43.85089116487662 0 0,0 0.6106856430108778,0.4436890908896998 l -13.590034796588052 18.370470360242887" fill="#ffe215" stroke="none" /><path d="M 112.48926042617603 83.11751280151076 l 17.317442407251278 -23.40903222245562 a50.118320712575965,50.118320712575965 0 0,0 0.6891360891870101,0.5190430150862263 l -17.717824650196672 23.107472617863547" fill="#c7ff1e" stroke="none" /><path d="M 112.77801427241765 83.33499621200491 l 17.08711621043283 -22.284906739182915 a49.08178428737954,49.08178428737954 0 0,0 0.6660338407900271,0.5198499771903432 l -17.468182606382285 21.98747837276935" fill="#d5ff1c" stroke="none" /><path d="M 113.06298171725822 83.55741782278167 l 15.736114992026973 -19.807297407813262 a46.29731894181401,46.29731894181401 0 0,0 0.6197151909580823,0.5010999194520115 l -16.07473358154955 19.53349139109712" fill="#faff18" stroke="none" /><path d="M 113.34407831869373 83.78471172551755 l 17.427652921679957 -21.17751479896368 a48.42645109048682,48.42645109048682 0 0,0 0.6390964729307788,0.5352249166488955 l -17.789606931569853 20.87438872492097" fill="#deff1b" stroke="none" /><path d="M 113.6212207817346 84.01681056812373 l 15.631902583357618 -18.342530686050868 a45.0998923305541,45.0998923305541 0 0,0 0.5865266798017887,0.5086301569942332 l -15.945323061806173 18.070735535636963" fill="#fff316" stroke="none" /><path d="M 113.89432698308785 84.25364557470407 l 16.624084197026114 -18.83997131210162 a46.125777489077336,46.125777489077336 0 0,0 0.5908251111025727,0.530448618328524 l -16.945920295724676 18.5510236850038" fill="#fdff18" stroke="none" /><path d="M 114.16331599549186 84.49514656593476 l 22.241047777688625 -24.34770121085115 a53.976882213185505,53.976882213185505 0 0,0 0.6806025174945564,0.6325458652692505 l -22.656858178978027 23.96125075950726" fill="#97ff23" stroke="none" /><path d="M 114.42810811169701 84.74124197986012 l 20.858560332184176 -22.05942194869316 a51.35947357649425,51.35947357649425 0 0,0 0.6371430221867617,0.6129310825359099 l -21.235186597983358 21.697107779394948" fill="#b7ff1f" stroke="none" /><path d="M 114.68862486808459 84.99185889309783 l 26.921978665908462 -27.507602537585445 a59.4897536060366,59.4897536060366 0 0,0 0.7256735776539764,0.7225573046932267 l -27.391488043729762 27.040109382242097" fill="#55ff2b" stroke="none" /><path d="M 114.94478906791727 85.2469230424477 l 17.254973847264832 -17.03362663148827 a45.24620709906479,45.24620709906479 0 0,0 0.5423851075583185,0.5589755303358096 l -17.545623218526263 16.734086905602346" fill="#fff517" stroke="none" /><path d="M 115.19652480421416 85.50635884689758 l 22.124417911539275 -21.10109897245707 a51.57362009592369,51.57362009592369 0 0,0 0.6071754386663412,0.6476924238860774 l -22.484360672176077 20.717137131692937" fill="#b5ff20" stroke="none" /><path d="M 115.4437574822437 85.77008943001954 l 16.043472359780925 -14.782489117309595 a42.81547592564579,42.81547592564579 0 0,0 0.49473559587661803,0.5462994017145008 l -16.295551596273576 14.504136928325545" fill="#ffd313" stroke="none" /><path d="M 115.68641384162765 86.03803664274999 l 14.83663596576048 -13.205603893293135 a40.862369973572044,40.862369973572044 0 0,0 0.46312269177154164,0.5294292955470817 l -15.061750521109872 12.948259041543107" fill="#ffb711" stroke="none" /><path d="M 115.9244219780498 86.31012108654704 l 13.652966088636662 -11.737157732980718 a39.00456482857422,39.00456482857422 0 0,0 0.4333024285742878,0.5128934048105758 l -13.852979130698067 11.500405378541036" fill="#ff9c0e" stroke="none" /><path d="M 116.15771136456269 86.58626213691792 l 31.591365865136474 -26.226381378556614 a62.058951246207094,62.058951246207094 0 0,0 0.6752649495197593,0.8277949838848421 l -32.03812930673264 25.67870222506367" fill="#38ff2e" stroke="none" /><path d="M 116.38621287248628 86.86637796730983 l 31.804542552550686 -25.491481409299713 a61.75959459339212,61.75959459339212 0 0,0 0.657727681665868,0.8352473624238177 l -32.238624314810515 24.940241652922857" fill="#3bff2e" stroke="none" /><path d="M 116.60985879189232 87.15038557335679 l 6.955593602168023 -5.380942548404589 a29.79402212117707,29.79402212117707 0 0,0 0.31031759406649606,0.408341578772001 l -7.047187136458633 5.2604161937515554" fill="#ff0c01" stroke="none" /><path d="M 116.82858285166822 87.43820079747576 l 18.553953969712374 -13.849713088425638 a44.153050782605604,44.153050782605604 0 0,0 0.4493884630393955,0.6129653585528229 l -18.789605045265397 13.52828528620132" fill="#ffe615" stroke="none" /><path d="M 117.04232023915458 87.72973835380427 l 9.758074589377921 -7.025694077715604 a33.02415888806827,33.02415888806827 0 0,0 0.3281773905491087,0.46418364536143 l -9.877564599730913 6.856683932022381" fill="#ff4006" stroke="none" /><path d="M 117.2510076193507 88.02491185347247 l 19.45533459111528 -13.505260202160914 a44.683371744334,44.683371744334 0 0,0 0.43316387040835314,0.6356145302100343 l -19.684922927192368 13.168367648680473" fill="#ffed16" stroke="none" /><path d="M 117.45458315368197 88.32363383020206 l 32.27298545946754 -21.58924061946542 a59.828351767647554,59.828351767647554 0 0,0 0.5652450615090912,0.8609070079129757 l -32.639827156334555 21.03051554757477" fill="#51ff2b" stroke="none" /><path d="M 117.65298651832404 88.62581576622439 l 31.594606235601262 -20.357058095767588 a58.58495653179808,58.58495653179808 0 0,0 0.5389046131939825,0.8524176798500896 l -31.940338445041203 19.810192768203294" fill="#5fff29" stroke="none" /><line stroke="#e1ed5e" stroke-width="0.3" x1="172.23445277983987" x2="176.4835382374775" y1="55.19839476539836" y2="52.563006222186495" /><path d="M 173.08426987136738 54.67131705675599 a86.0,86.0 0 0,1 12.851231095245387,41.99856678651699" fill="none" id="id27" stroke="none" /><text fill="#e1ed5e" style="font-size:6.75px; font-family:Arial;" text-anchor="middle"><textPath startOffset="22.20632615414155" xlink:href="#id27">March</textPath></text><path d="M 117.84615892207809 88.93136811851018 l 32.019421093738 -19.859241794969225 a58.67801496694281,58.67801496694281 0 0,0 0.5249843809625264,0.8629362869537691 l -32.356521272986754 19.305137734808373" fill="#5eff2a" stroke="none" /><path d="M 118.03404312379186 89.2402003453031 l 26.074510202013187 -15.557049738773282 a51.36283713439104,51.36283713439104 0 0,0 0.44646614336377627,0.763155363135422 l -26.33843601984729 15.105914963283965" fill="#b7ff1f" stroke="none" /><path d="M 118.21658344932153 89.55222093294921 l 20.402294657004788 -11.70135265102062 a44.51967859335653,44.51967859335653 0 0,0 0.3755390892823788,0.6680421360556953 l -20.600691387579598 11.34842700503013" fill="#ffeb16" stroke="none" /><path d="M 118.3937258080291 89.86733742301442 l 35.52913424913561 -19.57214828339817 a61.56338704941227,61.56338704941227 0 0,0 0.5033302352887113,0.9325944833753466 l -35.860772583642785 18.957672816690366" fill="#3dff2e" stroke="none" /><path d="M 118.56541770881063 90.18545643968196 l 14.679236893707897 -7.760127576184416 a37.60420355754087,37.60420355754087 0 0,0 0.2975935192757184,0.574855957125962 l -14.810639846143731 7.50629889679811" fill="#ff870c" stroke="none" /><path d="M 118.73160827565052 90.50648371742162 l 32.32198754228314 -16.381365150414695 a57.23616981518228,57.23616981518228 0 0,0 0.4378294084622578,0.8826373707472673 l -32.5991769636988 15.822568191168477" fill="#6fff27" stroke="none" /><path d="M 118.89224826269711 90.83032412892265 l 32.14830884684139 -15.603731637959045 a56.734999688559455,56.734999688559455 0 0,0 0.4188712773381742,0.8822497355681271 l -32.41213831802132 15.048039486750378" fill="#75ff27" stroke="none" /><path d="M 119.04729006885535 91.15688171328212 l 18.392725380465688 -8.53922240731385 a41.27832996680934,41.27832996680934 0 0,0 0.2936612788887503,0.6470437017537514 l -18.536988976317783 8.221356696718036" fill="#ffbd11" stroke="none" /><path d="M 119.196687751892 91.48605970444005 l 24.31900447461192 -10.785743604330612 a47.603500591737046,47.603500591737046 0 0,0 0.32576501328771706,0.7519105650929209 l -24.50106019774232 10.365533894651088" fill="#e9ff1a" stroke="none" /><path d="M 119.34039704204932 91.81776055985345 l 21.313485483041095 -9.016983526613835 a44.14239951593241,44.14239951593241 0 0,0 0.2900330391430424,0.702338009499182 l -21.465540209070333 8.64877094666135" fill="#ffe615" stroke="none" /><path d="M 119.47837535516314 92.15188598940014 l 19.71322998900912 -7.942740277356356 a42.25320116389781,42.25320116389781 0 0,0 0.2660069396196825,0.6769586465681915 l -19.8470304785105 7.60223262589238" fill="#ffcb12" stroke="none" /><path d="M 119.61058180528143 92.48833698450437 l 19.37483113551576 -7.421360769262421 a41.74754629341258,41.74754629341258 0 0,0 0.2512713472763492,0.6732822864464599 l -19.499707071293734 7.086755345786628" fill="#ffc412" stroke="none" /><path d="M 119.7369772167798 92.82701384747503 l 21.331130518465233 -7.752347390692177 a43.69616750162394,43.69616750162394 0 0,0 0.2508303987018708,0.7091313143149365 l -21.461413997976912 7.384018449950626" fill="#ffe014" stroke="none" /><path d="M 119.85752413597 93.16781622104841 l 28.769299523247618 -9.898371024939989 a51.424502362499,51.424502362499 0 0,0 0.2807844098725781,0.8395096466047459 l -28.935421226891965 9.401688275412928" fill="#b7ff1f" stroke="none" /><path d="M 119.97218684219823 93.5106431181261 l 28.893301933758774 -9.388002887482548 a51.38021551685783,51.38021551685783 0 0,0 0.26606269906028623,0.8434914642100693 l -29.050620116587268 8.889261256846059" fill="#b7ff1f" stroke="none" /><path d="M 120.08093135843002 93.85539295169968 l 28.23634720390304 -8.640100150261274 a50.52867477598526,50.52867477598526 0 0,0 0.24733570446342676,0.8338930382856361 l -28.380888805478172 8.15277772522911" fill="#c2ff1e" stroke="none" /><path d="M 120.18372546131832 94.20196356495316 l 29.17993307966514 -8.382313537328338 a51.360034169477046,51.360034169477046 0 0,0 0.2367776557985244,0.8518152074878692 l -29.319897506030028 7.878787026421517" fill="#b7ff1f" stroke="none" /><path d="M 120.28053869075195 94.5502522615342 l 60.84161607225586 -16.349243215397394 a84.0,84.0 0 0,0 0.36321467251878925,1.3996142978045985 l -61.11402707664495 15.299532492043943" fill="#4dd2ff" stroke="none" /><path d="M 120.37134235888165 94.90015583598534 l 28.61370483170489 -7.163270491754622 a50.49672097596569,50.49672097596569 0 0,0 0.2038316968163501,0.8450139763680281 l -28.73276932878206 6.669671283727188" fill="#c3ff1e" stroke="none" /><path d="M 120.45610955862082 95.25157060432595 l 30.3010935113136 -7.03372274859338 a52.10674402256609,52.10674402256609 0 0,0 0.19529015379161802,0.8754474668968213 l -30.417678052107256 6.5110971121465955" fill="#aeff20" stroke="none" /><path d="M 120.53481517161879 95.60439243477599 l 22.65661755612184 -4.8497928371772945 a44.169868572089584,44.169868572089584 0 0,0 0.15274509309748552,0.7448393202590268 l -22.736741945134323 4.459077860754856" fill="#ffe615" stroke="none" /><path d="M 120.6074358757038 95.95851677861258 l 22.897925206848875 -4.490688753624642 a44.33412231604986,44.33412231604986 0 0,0 0.1404215262830385,0.7501374083499397 l -22.971832457041774 4.09587326781214" fill="#ffe815" stroke="none" /><path d="M 120.67395015179393 96.31383870115 l 29.472534324029457 -5.2549471487836765 a50.93734706044616,50.93734706044616 0 0,0 0.14647674133708016,0.8645140189443566 l -29.55862292688676 4.746847341523482" fill="#bdff1f" stroke="none" /><path d="M 120.73433829027371 96.67025291283417 l 21.997243457489912 -3.5325582279427423 a43.27908632242105,43.27908632242105 0 0,0 0.11179216049157839,0.7365706603091896 l -22.05479151142079 3.1533884552414704" fill="#ffda14" stroke="none" /><path d="M 120.78858239683441 97.02765380044208 l 30.36293613719404 -4.341284851080131 a51.67172386791361,51.67172386791361 0 0,0 0.11831348662609459,0.8815728997987116 l -30.433165622877972 3.817993609216755" fill="#b3ff20" stroke="none" /><path d="M 120.83666639777658 97.38593545837742 l 29.535405870802137 -3.7053651354486217 a50.76692679367508,50.76692679367508 0 0,0 0.10131542766740793,0.8680087119653737 l -29.594811651473133 3.1964126851583954" fill="#bfff1e" stroke="none" /><path d="M 120.87857604477298 97.74499172005257 l 30.0250870727605 -3.242884946273338 a51.19970457639637,51.19970457639637 0 0,0 0.08709526722331566,0.8770374550873284 l -30.076459465666044 2.7255719604815747" fill="#baff1f" stroke="none" /><path d="M 120.91429891909075 98.10471618934814 l 29.538811557414174 -2.6768495347247896 a50.65985353396037,50.65985353396037 0 0,0 0.0712265869151892,0.8691447706942265 l -29.58051262814886 2.1679908468227946" fill="#c0ff1e" stroke="none" /><path d="M 120.94382443527127 98.46500227214037 l 19.622500410337572 -1.4381563232581007 a40.67513191731698,40.67513191731698 0 0,0 0.0451676208156794,0.6987231023563886 l -19.644348622157665 1.100174156648677" fill="#ffb410" stroke="none" /><path d="M 120.96714384426684 98.82574320788733 l 14.330965670049434 -0.8026001967926811 a35.35342273160054,35.35342273160054 0 0,0 0.028798547596836668,0.6078918233925201 l -14.342657825879767 0.5557972667771612" fill="#ff6409" stroke="none" /><path d="M 120.98425023603335 99.18683210126433 l 20.94093022593592 -0.8114891901238328 a41.95664747599683,41.95664747599683 0 0,0 0.021754133206449613,0.7219137736687248 l -20.951796053598013 0.450905269030109" fill="#ffc712" stroke="none" /><line stroke="#e1ed5e" stroke-width="0.3" x1="184.98032266829074" x2="189.97916517819016" y1="98.17113171792111" y2="98.06355123074" /><path d="M 185.9800911702706 98.14961562048488 a86.0,86.0 0 0,1 -9.607161424134198,41.387399972396054" fill="none" id="id28" stroke="none" /><text fill="#e1ed5e" style="font-size:6.75px; font-family:Arial;" text-anchor="middle"><textPath startOffset="21.466115282336823" xlink:href="#id28">April</textPath></text><path d="M 120.99513854157772 99.54816195383933 l 15.611702620789465 -0.33598069359959565 a36.6153175358824,36.6153175358824 0 0,0 0.008137306015359433,0.630243318515448 l -15.61517293392254 0.06720111702368489" fill="#ff780b" stroke="none" /><path d="M 120.99980553446 99.90962569577887 l 30.510551143481184 -0.1313045412001822 a51.51083368185014,51.51083368185014 0 0,0 -0.003815978265657797,0.8866989593245342 l -30.508290867926025 -0.39390389632803674" fill="#b6ff1f" stroke="none" /><path d="M 120.99824983174949 100.27111621757518 l 29.56320986981256 0.38170160387205854 a50.56567391285004,50.56567391285004 0 0,0 -0.018728411523071493,0.8702356915971484 l -29.55225939560448 -0.8905271112593217" fill="#c2ff1e" stroke="none" /><path d="M 120.9904718944345 100.63252640178507 l 29.822342615715993 0.8986657928601368 a50.835879730559434,50.835879730559434 0 0,0 -0.03388542337431349,0.8744322107970267 l -29.802455059490477 -1.4118752506711698" fill="#beff1f" stroke="none" /><path d="M 120.9764740272857 100.99374915477107 l 15.34583970736418 0.7270008876901168 a36.36305069362258,36.36305069362258 0 0,0 -0.03500142606570815,0.6249739750312949 l -15.331051930410942 -0.991046579056835" fill="#ff740a" stroke="none" /><path d="M 120.95626037817324 101.35467743843564 l 30.224633231025088 1.9538137045532822 a51.2877176746959,51.2877176746959 0 0,0 -0.06453323805796851,0.880504761404632 l -30.18652343430278 -2.473791602454684" fill="#b8ff1f" stroke="none" /><path d="M 120.92983693683757 101.71520430193887 l 30.069192237123477 2.4641762874973385 a51.16999314830799,51.16999314830799 0 0,0 -0.07949722309346842,0.8772452324396667 l -30.022320417752933 -2.9814029084855758" fill="#baff1f" stroke="none" /><path d="M 120.89721153311464 102.0752229133903 l 29.635173173895474 2.9429567823105227 a50.78094161824507,50.78094161824507 0 0,0 -0.09386663243951066,0.8690884378929025 l -29.580124239954912 -3.452641542088217" fill="#bfff1e" stroke="none" /><path d="M 120.8583938346157 102.4346265915055 l 22.75081500490019 2.65551315353103 a43.90526868420818,43.90526868420818 0 0,0 -0.09407956318576145,0.7499066842984335 l -22.70173393246758 -3.0467375921168585" fill="#ffe215" stroke="none" /><path d="M 120.81339534386255 102.79330883721812 l 30.156374627832566 4.047204521641123 a51.4267447344302,51.4267447344302 0 0,0 -0.12529991416495814,0.8763473078344519 l -30.082240662651007 -4.565697301455985" fill="#b7ff1f" stroke="none" /><path d="M 120.76222939487914 103.15116336523771 l 21.84005257041349 3.31474873173913 a43.09016648721759,43.09016648721759 0 0,0 -0.11761203558701501,0.7323702578697975 l -21.779758780465187 -3.6901982193021325" fill="#ffd714" stroke="none" /><path d="M 120.70491114924044 103.5080841355445 l 19.470512944028606 3.298937004729254 a40.74800900508093,40.74800900508093 0 0,0 -0.12312410185557907,0.6905453499934414 l -19.41084239983384 -3.6336011054559134" fill="#ffb510" stroke="none" /><path d="M 120.64145759157962 103.86396538481128 l 23.487301140969066 4.396691376502634 a44.89527589183225,44.89527589183225 0 0,0 -0.1487317787081343,0.7583801353392817 l -23.40813942928527 -4.800335238909861" fill="#fff016" stroke="none" /><path d="M 120.5718875245553 104.21870165774334 l 21.717810909324207 4.453697541188697 a43.169770690775124,43.169770690775124 0 0,0 -0.15554677130299344,0.7266627313410433 l -21.637930099296767 -4.82687409194591" fill="#ffd814" stroke="none" /><path d="M 120.49622156327973 104.57218783832717 l 29.41121436664219 6.560896905921068 a51.13411519740881,51.13411519740881 0 0,0 -0.1990320779941959,0.8574249828455579 l -29.293921722717442 -7.066190546115191" fill="#baff1f" stroke="none" /><path d="M 120.41448212921028 104.9243191809786 l 29.544059574239704 7.126528036546915 a51.391427376513825,51.391427376513825 0 0,0 -0.2148374221849989,0.8581687083130438 l -29.417010837759644 -7.6340245842573555" fill="#b7ff1f" stroke="none" /><path d="M 120.32669344350535 105.2749913415812 l 28.6974978727721 7.447303380879469 a50.64808108132157,50.64808108132157 0 0,0 -0.22625685313506744,0.8419859201309211 l -28.565052943295257 -7.940180234185939" fill="#c1ff1e" stroke="none" /><path d="M 120.23288151984713 105.62410040840565 l 19.573761390606773 5.4408858828615445 a41.31588969665691,41.31588969665691 0 0,0 -0.1963633335870524,0.683566524665748 l -19.47720542013362 -5.777009883031874" fill="#ffbe11" stroke="none" /><path d="M 120.13307415673323 105.97154293290107 l 28.49616193655918 8.452065149233803 a50.72320054101672,50.72320054101672 0 0,0 -0.2554836490496198,0.8349353472791612 l -28.346451515003427 -8.94132746906502" fill="#c0ff1e" stroke="none" /><path d="M 120.02730092923936 106.31721596034902 l 28.09089986897314 8.86071875685263 a50.455237095238516,50.455237095238516 0 0,0 -0.2683924266833642,0.826026953105912 l -27.934215191273527 -9.342944609936337" fill="#c3ff1e" stroke="none" /><path d="M 119.9155931802556 106.66101706037122 l 10.921580090103955 3.6528578711136057 a32.516261645651845,32.516261645651845 0 0,0 -0.18210526252274326,0.5292831344749632 l -10.857083996637982 -3.8403137086778694" fill="#ff3805" stroke="none" /><path d="M 119.79798401119884 107.00284435728193 l 21.71311098271308 7.6802535368408495 a44.03140210533809,44.03140210533809 0 0,0 -0.25889571018726837,0.7123698031522615 l -21.577691011520585 -8.052871136999242" fill="#ffe415" stroke="none" /><path d="M 119.67450827220406 107.3425965602758 l 36.93322971524533 13.783612871797386 a60.42145914344952,60.42145914344952 0 0,0 -0.37204001440739226,0.9712790792563151 l -36.690495421244435 -14.417315517886845" fill="#4aff2c" stroke="none" /><path d="M 119.54520255179757 107.68017299344265 l 33.227070432887885 13.056382931493976 a56.70024292362588,56.70024292362588 0 0,0 -0.364764504283459,0.905315585512276 l -32.99740331434703 -13.626397884849066" fill="#75ff27" stroke="none" /><path d="M 119.41010516605496 108.01547362559984 l 21.73228475119487 8.974426143340285 a44.51239088458013,44.51239088458013 0 0,0 -0.29854888480369157,0.7056813737610467 l -21.57458488519887 -9.347182042767495" fill="#ffeb16" stroke="none" /><path d="M 119.26925614724726 108.34839909993367 l 35.001731641632674 15.164489106387734 a59.14554951459766,59.14554951459766 0 0,0 -0.412776551420582,0.9307021536263288 l -34.735514005480816 -15.76473959650675" fill="#59ff2a" stroke="none" /><path d="M 119.12269723197855 108.67885076344098 l 28.15850816454299 12.779760465617004 a51.92286952420783,51.92286952420783 0 0,0 -0.3763799384808562,0.8106889031565391 l -27.934353609222303 -13.262569436052374" fill="#b0ff20" stroke="none" /><path d="M 118.97047184881838 109.00673069616215 l 27.567709204424037 13.088495357052683 a51.51700020466093,51.51700020466093 0 0,0 -0.3872281291088012,0.7978046391473762 l -27.33832781870052 -13.561088952165333" fill="#b5ff1f" stroke="none" /><path d="M 118.81262510543309 109.33194174019688 l 21.155728598023003 10.494230637230503 a44.61553999341526,44.61553999341526 0 0,0 -0.34719670923465884,0.6850520458803215 l -20.971953219002078 -10.856836894813519" fill="#ffec16" stroke="none" /><path d="M 118.64920377521936 109.65438752849418 l 35.03390523495261 18.13647927554994 a60.45004938557229,60.45004938557229 0 0,0 -0.4863278200654182,0.9199489581395502 l -34.7165249066623 -18.736843248775624" fill="#4aff2c" stroke="none" /><line stroke="#e1ed5e" stroke-width="0.3" x1="174.80103733775053" x2="179.2010983576182" y1="140.37084112569926" y2="142.7455964860345" /><path d="M 175.68104954172406 140.8457921977663 a86.0,86.0 0 0,1 -30.038265399797805,32.042727171017184" fill="none" id="id29" stroke="none" /><text fill="#e1ed5e" style="font-size:6.75px; font-family:Arial;" text-anchor="middle"><textPath startOffset="22.206326154141568" xlink:href="#id29">May</textPath></text><path d="M 118.48025628344425 109.97397251340804 l 17.067198540199072 9.211331623865195 a40.39427483293439,40.39427483293439 0 0,0 -0.33551021209347337,0.6090484904785051 l -16.906111918654087 -9.503750632741506" fill="#ffb010" stroke="none" /><path d="M 118.30583269289576 110.29060199501025 l 33.90311691213965 19.058596698992375 a59.892819960669506,59.892819960669506 0 0,0 -0.5129335292729204,0.8943428435831869 l -33.57003138671435 -19.639359388433878" fill="#50ff2b" stroke="none" /><path d="M 118.12598468904814 110.60418214915192 l 26.008088832712044 15.215422282687896 a51.131872825477615,51.131872825477615 0 0,0 -0.45098098612593224,0.7558700731249183 l -25.742326970887888 -15.660854449698919" fill="#baff1f" stroke="none" /><path d="M 117.94076556474637 110.91462005526583 l 20.108708512124085 12.233531084269925 a44.53761756880611,44.53761756880611 0 0,0 -0.40409481008585424,0.6515295004470326 l -19.89514906237027 -12.577856916082231" fill="#ffeb16" stroke="none" /><path d="M 117.75023020441432 111.22182372390056 l 15.964640536579873 10.092961040718379 a39.88749877648357,39.88749877648357 0 0,0 -0.37189420345187324,0.5771880624444204 l -15.78854146975095 -10.366270703084252" fill="#ffa90f" stroke="none" /><path d="M 117.55443506779139 111.5257021239791 l 29.786977620303016 19.557213313868196 a56.633532358672724,56.633532358672724 0 0,0 -0.5420554349387933,0.8102993281862902 l -29.4459190799535 -20.067049556260294" fill="#76ff27" stroke="none" /><path d="M 117.35343817320211 111.8261652097733 l 31.865002042566264 21.715626310127128 a59.560948914852155,59.560948914852155 0 0,0 -0.5846590465652367,0.8422449625094239 l -31.48648208883889 -22.26091253482357" fill="#54ff2b" stroke="none" /><path d="M 117.14729908036423 112.12312394758627 l 33.571512849671926 23.73502727613898 a62.11444995150426,62.11444995150426 0 0,0 -0.624753667391998,0.8677282015075698 l -33.15797938990433 -24.30938908309768" fill="#37ff2e" stroke="none" /><path d="M 116.93607887273984 112.41649034213515 l 30.843191556682665 22.6123291561065 a59.244213879570395,59.244213879570395 0 0,0 -0.61004256023635,0.8172517011670011 l -30.449387729751223 -23.139893736782817" fill="#58ff2a" stroke="none" /><path d="M 116.71984013943494 112.70617746262583 l 30.462331431018608 23.14973025220133 a59.260471076071575,59.260471076071575 0 0,0 -0.6241910576415651,0.8068510838030455 l -30.059333556158975 -23.670659330117626" fill="#57ff2a" stroke="none" /><path d="M 116.498646956653 112.99209946851258 l 23.026991008302712 18.132938926835756 a50.30948291971063,50.30948291971063 0 0,0 -0.5416225210442306,0.6757573732724187 l -22.711450575203628 -18.526624133686422" fill="#c5ff1e" stroke="none" /><path d="M 116.27256486870786 113.27417163493432 l 23.11674069602043 18.857235237041806 a50.83251617266264,50.83251617266264 0 0,0 -0.5589253009401882,0.6732615307623009 l -22.7887193951867 -19.252358024917875" fill="#beff1f" stroke="none" /><path d="M 116.0416608686014 113.55231037782055 l 23.017394533435148 19.44554727599473 a51.131872825477615,51.131872825477615 0 0,0 -0.5737908967141976,0.6674484430582744 l -22.67926112715017 -19.838872818214533" fill="#baff1f" stroke="none" /><path d="M 115.80600337817218 113.82643327865902 l 28.513843878149846 24.94272274063817 a58.883752591630255,58.883752591630255 0 0,0 -0.6739137540426218,0.7571492467775411 l -28.080271274458887 -25.42984615715658" fill="#5cff2a" stroke="none" /><path d="M 115.56566222782051 114.09645910891815 l 16.322608189104354 14.781958873382239 a43.02121355033324,43.02121355033324 0 0,0 -0.5018190853112975,0.5446255066323764 l -16.065742695797336 -15.06073563481595" fill="#ffd614" stroke="none" /><path d="M 115.32070863581623 114.36230785411682 l 14.881322583607808 13.950407993697194 a41.39773627214565,41.39773627214565 0 0,0 -0.49183161845913087,0.5156834856375007 l -14.638984413769712 -14.204498595917201" fill="#ffbf11" stroke="none" /><path d="M 115.07121518719521 114.62390073753431 l 16.50858702386117 16.018611303420833 a44.002811863215314,44.002811863215314 0 0,0 -0.5321393617419535,0.5390543639710724 l -16.23040703706368 -16.30040616137257" fill="#ffe415" stroke="none" /><path d="M 114.81725581225074 114.88116024355365 l 14.492776882948196 14.555281889033 a41.540126889776744,41.540126889776744 0 0,0 -0.5110425600137797,0.5001627051744452 l -14.240084370558622 -14.802594697130017" fill="#ffc111" stroke="none" /><path d="M 114.55890576462653 115.13401014063108 l 15.75697982083947 16.37941039316982 a43.72812130164352,43.72812130164352 0 0,0 -0.5469433569216069,0.5171690824524334 l -15.472700629527056 -16.648214112368176" fill="#ffe015" stroke="none" /><path d="M 114.29624159901734 115.38237550388516 l 11.728080384924548 12.619102382339403 a38.227582954414004,38.227582954414004 0 0,0 -0.4858551958726633,0.44381720191417035 l -11.50912563958502 -12.819112350840156" fill="#ff900d" stroke="none" /><path d="M 114.0293411484842 115.62618273729858 l 16.21936198624022 18.065475177839495 a45.27816089908437,45.27816089908437 0 0,0 -0.5844281789534643,0.5156899176272285 l -15.905991454380166 -18.341988237239015" fill="#fff617" stroke="none" /><path d="M 113.75828350139079 115.86535959552629 l 12.258940213454814 14.136392430557025 a39.7114725798845,39.7114725798845 0 0,0 -0.5202855753661989,0.44339865468157835 l -12.013789161511568 -14.34531547546155" fill="#ffa60f" stroke="none" /><path d="M 113.48314897796784 116.09983520530334 l 13.882552818008902 16.576751689392772 a42.622071346579936,42.622071346579936 0 0,0 -0.56652825219666,0.46621418251080987 l -13.595154437267551 -16.81326099076076" fill="#ffd013" stroke="none" /><path d="M 113.20401910651253 116.32954008644616 l 23.070169900793328 28.53110565481677 a57.69137131721555,57.69137131721555 0 0,0 -0.7775766850570944,0.6177539458942476 l -22.57563572301888 -28.923993514716145" fill="#6aff28" stroke="none" /><path d="M 112.92097659922987 116.55440617244103 l 13.429279938274695 17.205646414905168 a42.826127192318985,42.826127192318985 0 0,0 -0.5850278838742814,0.4485744344860566 l -13.131123325906918 -17.434260191218595" fill="#ffd313" stroke="none" /><path d="M 112.63410532772338 116.77436683061366 l 14.2714204432052 18.948238557338442 a44.72149206716438,44.72149206716438 0 0,0 -0.6188922733345199,0.4578417081882706 l -13.943143199452116 -19.19109021426648" fill="#ffee16" stroke="none" /><path d="M 112.34349029814194 116.9893568818739 l 13.477218480462982 18.549799854749224 a43.92881358948577,43.92881358948577 0 0,0 -0.6155737790193433,0.4391955468327703 l -13.155917373594754 -18.779039663426214" fill="#ffe315" stroke="none" /><path d="M 112.04921762599082 117.19931262002967 l 12.766395945281916 18.223028391515765 a43.24993548731547,43.24993548731547 0 0,0 -0.6134140726381598,0.421911792568669 l -12.450824988020873 -18.44008097344953" fill="#ffd914" stroke="none" /><path d="M 111.7513745106137 117.40417183066458 l 12.840128938893484 19.016652918222793 a43.94563137896975,43.94563137896975 0 0,0 -0.6305681244919308,0.41790616908436723 l -12.510886115661588 -19.234857108398476" fill="#ffe315" stroke="none" /><path d="M 111.45004920935366 117.60387380957326 l 20.204908380043932 31.06402871751154 a58.056877942000874,58.056877942000874 0 0,0 -0.8424279631079914,0.5376773841550692 l -19.66719861488901 -31.407220530490417" fill="#65ff29" stroke="none" /><path d="M 111.1453310114006 117.79835938074945 l 15.925840089826163 25.432517443324674 a51.00742118329611,51.00742118329611 0 0,0 -0.7481593658223129,0.45958058882010094 l -15.485701524071542 -25.702886498973154" fill="#bcff1f" stroke="none" /><line stroke="#e1ed5e" stroke-width="0.3" x1="143.8653032363475" x2="146.44561519142675" y1="172.8068346515853" y2="177.08958963109032" /><path d="M 144.38136562736335 173.6633856474863 a86.0,86.0 0 0,1 -40.68145358897372,12.25698825130547" fill="none" id="id30" stroke="none" /><text fill="#e1ed5e" style="font-size:6.75px; font-family:Arial;" text-anchor="middle"><textPath startOffset="21.466115282336833" xlink:href="#id30">June</textPath></text><path d="M 110.8373102113329 117.98757091392108 l 9.546642217023555 15.845343588021507 a39.49900783940346,39.49900783940346 0 0,0 -0.5853981096249602,0.34586352164237566 l -9.272476236370213 -16.00732568195763" fill="#ffa30f" stroke="none" /><path d="M 110.5260780823613 118.17145234162733 l 10.574034160151745 18.254240211453304 a42.09567453573113,42.09567453573113 0 0,0 -0.6301346284567124,0.3578068875413181 l -10.258250764773834 -18.43355026478925" fill="#ffc912" stroke="none" /><path d="M 110.21172684928248 118.3499491758327 l 13.0027983106733 23.365361379718376 a47.73972468655733,47.73972468655733 0 0,0 -0.7214999801516391,0.3934193161630289 l -12.598675518653014 -23.585721347641176" fill="#e7ff1a" stroke="none" /><path d="M 109.89434966115114 118.52300852407294 l 5.334079374812839 9.985820302639752 a32.32117528763759,32.32117528763759 0 0,0 -0.4929888802698157,0.25790848206376626 l -5.161399592016528 -10.076158203648236" fill="#ff3505" stroke="none" /><path d="M 109.57404056367764 118.69057910512821 l 9.163752531406418 17.889608932498515 a41.10006139827907,41.10006139827907 0 0,0 -0.6324440111834524,0.31712055652968596 l -8.854454612540206 -18.044697329937506" fill="#ffba11" stroke="none" /><path d="M 109.2508944713604 118.85261126421891 l 15.53820343664844 31.66566325476692 a56.2725104777498,56.2725104777498 0 0,0 -0.8732618240248967,0.4192187435656026 l -14.99082894462331 -31.92843627483208" fill="#7bff26" stroke="none" /><path d="M 108.59647513512805 119.15986991738527 l 5.847203346910846 13.032278200807344 a35.28390920173339,35.28390920173339 0 0,0 -0.5562748978069982,0.243854567786261 l -5.622007774446095 -13.13099732188806" fill="#ff6309" stroke="none" /><path d="M 108.2653958097858 119.30500536409082 l 3.1785967032445224 7.424063870452095 a29.0759025102108,29.0759025102108 0 0,0 -0.4617925394297483,0.19302931893411868 l -3.050332704317313 -7.477678232406187" fill="#ff0000" stroke="none" /><path d="M 107.93186726928326 119.44442032107085 l 8.46030081450108 20.739838362767014 a43.39905322074016,43.39905322074016 0 0,0 -0.6941346331706658,0.27621049584480384 l -8.102045105288548 -20.882395703017888" fill="#ffdb14" stroke="none" /><path d="M 107.59598834532513 119.57807347666477 l 13.491377240846639 34.77298317410632 a58.29849351758749,58.29849351758749 0 0,0 -0.9386884163385909,0.35493163868432365 l -12.890818603747773 -35.000063062897276" fill="#63ff29" stroke="none" /><path d="M 107.2578585660854 119.70592522655815 l 13.086891415047154 35.532423417297316 a58.865813616180674,58.865813616180674 0 0,0 -0.9538516629143857,0.3420172699044572 l -12.473320191503033 -35.75242822824173" fill="#5cff2a" stroke="none" /><path d="M 106.91757812671514 119.82793768551818 l 5.932887678213504 17.005507566946232 a39.01073135138502,39.01073135138502 0 0,0 -0.635931146753987,0.2157423722890288 l -5.63928679852229 -17.105112926133383" fill="#ff9c0e" stroke="none" /><path d="M 106.2309692047433 120.05430185196036 l 11.295651962295578 36.354924350151066 a59.069308868936915,59.069308868936915 0 0,0 -0.9735888591456097,0.29333433678937987 l -10.66818812870972 -36.543974056046174" fill="#5aff2a" stroke="none" /><path d="M 105.88484417918355 120.15858648285463 l 5.866882944157524 20.09706011128275 a41.935905535633246,41.935905535633246 0 0,0 -0.6946759272931587,0.19632235598333256 l -5.52007584875976 -20.195071260604603" fill="#ffc712" stroke="none" /><path d="M 105.53697534728816 120.25689768951611 l 5.144345307134222 18.820469666204747 a40.5108781733567,40.5108781733567 0 0,0 -0.6742351948422511,0.17807164298616418 l -4.819619669480473 -18.906232658494496" fill="#ffb210" stroke="none" /><path d="M 105.18746579009965 120.34920634021253 l 5.360379777781856 21.027507182440633 a42.699993771189085,42.699993771189085 0 0,0 -0.7137948835648226,0.17543341583699779 l -4.997631609473822 -21.116661856591662" fill="#ffd113" stroke="none" /><path d="M 104.48393922423573 120.51570834832081 l 11.79818528690843 53.98113495325515 a76.25540794262375,76.25540794262375 0 0,0 -1.2847530686803004,0.26923249696206475 l -10.86724075679875 -54.17622343094376" fill="#42ffd8" stroke="none" /><path d="M 104.13013068566511 120.58985236759428 l 4.174415818171726 20.810626093606242 a42.22517151475783,42.22517151475783 0 0,0 -0.7138715889525424,0.13681518905145623 l -3.8155766146474788 -20.879398481006167" fill="#ffcb12" stroke="none" /><path d="M 103.7750983002368 120.6578951692458 l 4.114981773437761 22.517787707329905 a43.8906932666554,43.8906932666554 0 0,0 -0.7443674071297186,0.12941781508427644 l -3.7267653948359927 -22.585284100935187" fill="#ffe215" stroke="none" /><path d="M 103.41894727170886 120.7198165907248 l 3.6351318519560825 22.029958133278164 a43.32785791192461,43.32785791192461 0 0,0 -0.7369122358478777,0.11509053587386905 l -3.2553837524996876 -22.08926697649914" fill="#ffda14" stroke="none" /><path d="M 103.06178313531738 120.77559828337769 l 5.639646461685669 38.26757943655229 a59.68091581317127,59.68091581317127 0 0,0 -1.017620457356305,0.14103292281085858 l -4.980097413142533 -38.35898692485575" fill="#53ff2b" stroke="none" /><path d="M 102.70371172650421 120.8252237178851 l 2.542808869020646 19.585876352892647 a40.75025137701213,40.75025137701213 0 0,0 -0.6963879868082086,0.08432288704271916 l -2.205293459161057 -19.626744768660718" fill="#ffb510" stroke="none" /><path d="M 101.98527174616119 120.90594882070398 l 2.4832634932028075 26.150062125049416 a47.26770539504008,47.26770539504008 0 0,0 -0.8106539373972605,0.06994663277251076 l -2.0327652380640053 -26.18893301010059" fill="#edff1a" stroke="none" /><path d="M 101.62511606390274 120.93702456842531 l 1.3413812484994572 17.281554702014866 a38.333535028163126,38.333535028163126 0 0,0 -0.6583095353400438,0.0454008798425423 l -1.043708952380483 -17.302083926373694" fill="#ff920d" stroke="none" /><path d="M 101.26447882468166 120.96189622390904 l 0.9732282184681138 16.133689643117926 a37.16301688007759,37.16301688007759 0 0,0 -0.638871071783775,0.033022336965800037 l -0.6953690782708593 -16.148051786845926" fill="#ff800b" stroke="none" /><path d="M 100.90346689309514 120.98055641714683 l 0.6889537003983548 15.999072119278605 a37.0138991466529,37.0138991466529 0 0,0 -0.6367794508025071,0.021931971815144634 l -0.41345389792119547 -16.008560889519845" fill="#ff7e0b" stroke="none" /><line stroke="#e1ed5e" stroke-width="0.3" x1="102.19456741930631" x2="102.32365962044197" y1="184.97166512339345" y2="189.96999836594603" /><path d="M 102.22038585953345 185.97133177190398 a86.0,86.0 0 0,1 -42.740103519485714,-10.115201625700543" fill="none" id="id31" stroke="none" /><text fill="#e1ed5e" style="font-size:6.75px; font-family:Arial;" text-anchor="middle"><textPath startOffset="22.20632615414155" xlink:href="#id31">July</textPath></text><path d="M 100.18074693466247 120.99922214144158 l 0.11320466754301968 13.15214537731028 a34.15263256244383,34.15263256244383 0 0,0 -0.5879032044109412,0.0 l 0.11320466754301062 -13.15214537731028" fill="#ff5207" stroke="none" /><path d="M 99.81925306533755 120.99922214144158 l -0.2915760830118546 33.875379130119356 a54.876633950578835,54.876633950578835 0 0,0 -0.944506075844941,-0.016260528647653105 l 0.8746418487494635 -33.86534112419255" fill="#8bff24" stroke="none" /><path d="M 99.45781275523022 120.99299961872073 l -0.5706520630588299 22.09513163169848 a43.102499532839175,43.102499532839175 0 0,0 -0.7415264701508572,-0.02553967095363411 l 0.95089888488433 -22.08203516231875" fill="#ffd714" stroke="none" /><path d="M 99.09653310690486 120.98055641714683 l -1.6435185154955407 38.16623852020726 a59.20160881287762,59.20160881287762 0 0,0 -1.0177374833602841,-0.05260540287794418 l 2.300244067269314 -38.132293310567114" fill="#58ff2a" stroke="none" /><path d="M 98.73552117531835 120.96189622390904 l -1.3522984492324195 22.417725946260756 a43.45847607691691,43.45847607691691 0 0,0 -0.7463211825302014,-0.05147067832534955 l 1.737982392541551 -22.391126923419122" fill="#ffdc14" stroke="none" /><path d="M 98.37488393609728 120.93702456842531 l -1.7682198676451772 22.780688489632077 a43.849209385928226,43.849209385928226 0 0,0 -0.7520258058515702,-0.06488795088843667 l 2.1600899912382894 -22.74687628646498" fill="#ffe215" stroke="none" /><path d="M 98.01472825383883 120.90594882070398 l -2.09299624681601 22.04034410023213 a43.139498669703954,43.139498669703954 0 0,0 -0.7386455962096148,-0.07656363618674933 l 2.472074439631218 -22.00105109558962" fill="#ffd814" stroke="none" /><path d="M 97.65516085044442 120.86867818915974 l -4.237010273825678 37.70868628894653 a58.945978412721004,58.945978412721004 0 0,0 -1.0073378654157314,-0.12197458693770509 l 4.885475562292799 -37.63016617328348" fill="#5bff2a" stroke="none" /><path d="M 95.51606077576429 120.51570834832081 l -6.412837862408104 29.341145071532225 a51.03376905348769,51.03376905348769 0 0,0 -0.856589299613928,-0.19495693577679754 l 6.916947311414894 -29.226411402177742" fill="#bcff1f" stroke="none" /><path d="M 95.16358092515715 120.4354850818985 l -8.877706598740287 37.511273930686805 a59.54749468326496,59.54749468326496 0 0,0 -0.9954263052538713,-0.24465156722971867 l 9.522086188737369 -37.352901105143054" fill="#54ff2b" stroke="none" /><path d="M 94.81253420990036 120.34920634021253 l -8.756159387453138 34.34835068467033 a56.44685489540047,56.44685489540047 0 0,0 -0.9394626313893113,-0.24812061959290166 l 9.34611246165394 -34.19253871577384" fill="#78ff26" stroke="none" /><path d="M 94.46302465271185 120.25689768951611 l -10.16645255056886 37.19373417168226 a59.55814594993816,59.55814594993816 0 0,0 -0.9865915553076147,-0.2788206283266132 l 10.805175273981089 -37.01322475001712" fill="#54ff2b" stroke="none" /><path d="M 94.11515582081647 120.15858648285463 l -6.22631710514483 21.328305051426685 a43.2185422802787,43.2185422802787 0 0,0 -0.7123342405436562,-0.21462046330892653 l 6.592526320128731 -21.21796921901203" fill="#ffd914" stroke="none" /><path d="M 93.76903079525671 120.05430185196036 l -9.290648372881623 29.901843637480873 a52.31192105427074,52.31192105427074 0 0,0 -0.8576132293463451,-0.27458067350354404 l 9.803982947318909 -29.737490117317623" fill="#abff21" stroke="none" /><path d="M 93.42475214034765 119.94407469862007 l -3.7358870835329996 11.331711389436727 a32.93166104590634,32.93166104590634 0 0,0 -0.5368335390793274,-0.18212308335023789 l 3.9303903555495525 -11.265725319188366" fill="#ff3e05" stroke="none" /><path d="M 93.08242187328487 119.8279376855182 l -5.517578154175204 15.815100865064323 a37.749957733068754,37.749957733068754 0 0,0 -0.6116939144579945,-0.2193316746975895 l 5.7889916292629255 -15.717781649326776" fill="#ff890c" stroke="none" /><path d="M 92.7421414339146 119.70592522655815 l -6.352991583504513 17.249106739898426 a39.381843905998345,39.381843905998345 0 0,0 -0.6341035326661055,-0.23976369797187197 l 6.648965336930901 -17.137194791819923" fill="#ffa10e" stroke="none" /><path d="M 92.40401165467489 119.57807347666478 l -12.546246791458545 32.33698241397603 a55.685569624758635,55.685569624758635 0 0,0 -0.8906480574076249,-0.35440724292355613 l 13.101015924908028 -32.11622832664641" fill="#82ff25" stroke="none" /><path d="M 92.06813273071674 119.44442032107085 l -13.808864198580997 33.85146908264627 a57.55963196625765,57.55963196625765 0 0,0 -0.9141800019794823,-0.3821273149696184 l 14.389515660057942 -33.60875672465667" fill="#6bff28" stroke="none" /><path d="M 91.7346041902142 119.30500536409082 l -11.708250413783645 27.346281078833123 a50.74730603927709,50.74730603927709 0 0,0 -0.8000658974486138,-0.35072537767207734 l 12.177236985890003 -27.14069114786659" fill="#bfff1e" stroke="none" /><path d="M 91.40352486487194 119.15986991738527 l -9.10791419291777 20.29976803421675 a43.249374894332675,43.249374894332675 0 0,0 -0.6766097055162555,-0.3105983301921068 l 9.455991894201444 -20.13998263369057" fill="#ffd914" stroke="none" /><path d="M 91.07499286063937 119.00905698771935 l -16.31384345717089 34.74627808402062 a59.38548331123589,59.38548331123589 0 0,0 -0.9215703198007055,-0.44240975724045056 l 16.90952644497184 -34.4603140502806" fill="#56ff2a" stroke="none" /><path d="M 90.42595943632237 118.69057910512821 l -26.1816754447024 51.11224176974148 a78.42770575097214,78.42770575097214 0 0,0 -1.1962432212386407,-0.6258179154058656 l 27.057609568467534 -50.6539944353909" fill="#45fff1" stroke="none" /><path d="M 90.10565033884886 118.52300852407294 l -14.053760602874052 26.30975621009439 a50.828031428800244,50.828031428800244 0 0,0 -0.7681741758630946,-0.41886980911439564 l 14.504557590605787 -26.063945749220228" fill="#beff1e" stroke="none" /><line stroke="#e1ed5e" stroke-width="0.3" x1="58.666819895761336" x2="56.23545636021788" y1="174.27360380694188" y2="178.64263932499728" /><path d="M 58.180547188652646 175.14741091055294 a86.0,86.0 0 0,1 -31.652253787137756,-30.449443065178592" fill="none" id="id32" stroke="none" /><text fill="#e1ed5e" style="font-size:6.75px; font-family:Arial;" text-anchor="middle"><textPath startOffset="22.20632615414155" xlink:href="#id32">August</textPath></text><path d="M 89.7882731507175 118.34994917583269 l -17.423842420665125 31.309750797867032 a56.83142168160098,56.83142168160098 0 0,0 -0.8507155944396241,-0.4830585168360011 l 17.960206782025956 -31.005189115236398" fill="#74ff27" stroke="none" /><path d="M 89.4739219176387 118.17145234162733 l -18.89928419594605 32.62634376928962 a58.704923430117184,58.704923430117184 0 0,0 -0.870040871441485,-0.5140354825579078 l 19.458092938415916 -32.296189714437965" fill="#5eff2a" stroke="none" /><path d="M 89.1626897886671 117.98757091392108 l -14.765920747806966 24.50820742242546 a49.61266584209075,49.61266584209075 0 0,0 -0.7277015726748481,-0.44701374136730215 l 15.185601520414123 -24.250405214229783" fill="#ceff1d" stroke="none" /><path d="M 88.8546689885994 117.79835938074946 l -15.05112087999039 24.035648490937618 a49.35927781386533,49.35927781386533 0 0,0 -0.7162223898907769,-0.45712701611781564 l 15.462625071928091 -23.773007045995996" fill="#d1ff1c" stroke="none" /><path d="M 88.54995079064634 117.60387380957326 l -16.875987496467413 25.945980568979415 a51.9514597663306,51.9514597663306 0 0,0 -0.7454423459518249,-0.49403853916814156 l 17.3201045411592 -25.651644008719956" fill="#b0ff20" stroke="none" /><path d="M 88.24862548938628 117.40417183066458 l -16.975973651467623 25.141974852058986 a51.336489264199464,51.336489264199464 0 0,0 -0.728105709284415,-0.5007977460681363 l 17.406236245374927 -24.84603631662575" fill="#b8ff1f" stroke="none" /><path d="M 87.95078237400918 117.19931262002967 l -10.659249060990106 15.215241568819376 a39.5774908569954,39.5774908569954 0 0,0 -0.5545987615011563,-0.3956914908206729 l 10.91957515034015 -15.029505816154485" fill="#ffa40f" stroke="none" /><path d="M 87.65650970185807 116.9893568818739 l -22.817460407242354 31.405539975595207 a59.819382279922756,59.819382279922756 0 0,0 -0.8278291214677601,-0.6124081934626707 l 23.354674499128677 -31.00812183339277" fill="#51ff2b" stroke="none" /><path d="M 87.36589467227662 116.77436683061367 l -17.736156404756585 23.548386370159854 a50.4804637794645,50.4804637794645 0 0,0 -0.6895902300311175,-0.528748382751942 l 18.138875363281187 -23.239598645580543" fill="#c3ff1e" stroke="none" /><path d="M 87.07902340077011 116.55440617244103 l -17.476965767515296 22.391557461263414 a49.404685845472095,49.404685845472095 0 0,0 -0.6658869596768415,-0.5290208731370206 l 17.859810219909495 -22.08740267412126" fill="#d1ff1c" stroke="none" /><path d="M 86.79598089348748 116.32954008644616 l -7.005540431441339 8.663820642763032 a32.14178553314172,32.14178553314172 0 0,0 -0.4272253554385729,-0.35157738217182416 l 7.1536359154246005 -8.541948141734027" fill="#ff3204" stroke="none" /><path d="M 86.51685102203217 116.09983520530335 l -14.187414685700201 16.940778359885794 a43.09689360301118,43.09689360301118 0 0,0 -0.5646401563082752,-0.4811985908125061 l 14.476920318585533 -16.694055378850337" fill="#ffd714" stroke="none" /><path d="M 86.24171649860922 115.8653595955263 l -24.890298348188384 28.702238451041108 a58.99138644432777,58.99138644432777 0 0,0 -0.7614317337322716,-0.6718749748691003 l 25.380672434827243 -28.269540334399718" fill="#5bff2a" stroke="none" /><path d="M 85.97065885151581 115.62618273729859 l -20.453968201683487 22.782070906938774 a51.61678575559925,51.61678575559925 0 0,0 -0.656025874916299,-0.5992640825126708 l 20.843093626066644 -22.426614057839526" fill="#b4ff20" stroke="none" /><path d="M 85.70375840098266 115.38237550388516 l -15.088774012520311 16.23511928966037 a43.16416476094713,43.16416476094713 0 0,0 -0.5398894914834038,-0.5104992124005299 l 15.36599933839453 -15.972985440513911" fill="#ffd814" stroke="none" /><path d="M 85.44109423537348 115.13401014063109 l -15.940810604334935 16.570502841088572 a43.99328178250772,43.99328178250772 0 0,0 -0.5412222116026655,-0.5296998462288318 l 16.223682768313395 -16.29365289193717" fill="#ffe415" stroke="none" /><path d="M 85.18274418774928 114.88116024355367 l -21.23207635160733 21.32364686789066 a51.091510130716046,51.091510130716046 0 0,0 -0.6178651417983589,-0.6258941265718989 l 21.595982118461222 -20.955012247338097" fill="#bbff1f" stroke="none" /><path d="M 84.9287848128048 114.62390073753433 l -12.270499247940474 11.90631019284557 a38.0975253824045,38.0975253824045 0 0,0 -0.4526229995992285,-0.47457340551688487 l 12.47362879891866 -11.693329670746186" fill="#ff8e0d" stroke="none" /><path d="M 84.67929136418377 114.36230785411682 l -13.242111323367599 12.413739076016263 a39.150879597084916,39.150879597084916 0 0,0 -0.45667374225869894,-0.4956291530623182 l 13.453831473622026 -12.1839586681526" fill="#ff9e0e" stroke="none" /><path d="M 84.43433777217949 114.09645910891817 l -14.527545122638001 13.156327227004482 a40.599451864639036,40.599451864639036 0 0,0 -0.464653284037822,-0.5220428903721418 l 14.751857256324161 -12.904310166891477" fill="#ffb310" stroke="none" /><path d="M 84.19399662182784 113.82643327865904 l -14.824008952189148 12.967425464601524 a40.69531326469777,40.69531326469777 0 0,0 -0.45667406648522263,-0.5312151106023433 l 15.04502552824515 -12.71033325483765" fill="#ffb510" stroke="none" /><path d="M 83.95833913139862 113.55231037782056 l -22.13224189156331 18.697752927725332 a49.973127130030875,49.973127130030875 0 0,0 -0.5494759501025224,-0.6618791789543326 l 22.45081384155937 -18.314012491657238" fill="#c9ff1d" stroke="none" /><path d="M 83.72743513129214 113.27417163493432 l -23.141935580272698 18.87778769577129 a50.86503056566501,50.86503056566501 0 0,0 -0.5476034435085173,-0.6832194936554844 l 23.463456935836074 -18.476640368537545" fill="#beff1f" stroke="none" /><path d="M 83.50135304334701 112.99209946851258 l -19.906105476010495 15.675352230671463 a46.337121043592774,46.337121043592774 0 0,0 -0.4880692992659002,-0.6308953617048122 l 20.172981592494462 -15.330378874853396" fill="#faff18" stroke="none" /><path d="M 83.28015986056508 112.70617746262583 l -13.186507249787736 10.021034880161707 a37.56215908383089,37.56215908383089 0 0,0 -0.38678065240406173,-0.5181558906861077 l 13.357049168886883 -9.792566109966293" fill="#ff860c" stroke="none" /><path d="M 83.06392112726016 112.41649034213515 l -13.834022052490182 10.142253262891238 a38.15358468068446,38.15358468068446 0 0,0 -0.3837527656128102,-0.5329990274708137 l 14.0065546104786 -9.902620629969284" fill="#ff8f0d" stroke="none" /><path d="M 82.6465618267979 111.8261652097733 l -17.24025115599316 11.74902958098583 a41.8630284478693,41.8630284478693 0 0,0 -0.40068279600590384,-0.5989664146731578 l 17.439937057409793 -11.450526252106853" fill="#ffc512" stroke="none" /><path d="M 82.44556493220864 111.52570212397912 l -23.401175215925218 15.364491870471301 a48.9943317820628,48.9943317820628 0 0,0 -0.4568024707152067,-0.7089675788024277 l 23.662182550017473 -14.959402691747425" fill="#d6ff1c" stroke="none" /><path d="M 82.24976979558568 111.22182372390057 l -24.739222439001388 15.640315087733205 a50.268559631966255,50.268559631966255 0 0,0 -0.4560922915642637,-0.7353659969487628 l 25.004779370233607 -15.212152759419178" fill="#c6ff1e" stroke="none" /><path d="M 82.05923443525364 110.91462005526583 l -20.276332966818234 12.33550874115169 a44.733825112785965,44.733825112785965 0 0,0 -0.39455047209803146,-0.6612892857370559 l 20.4856643146145 -11.984657361528523" fill="#ffee16" stroke="none" /><line stroke="#e1ed5e" stroke-width="0.3" x1="26.63291911575756" x2="22.317208475507996" y1="142.92168965132927" y2="145.44649492493687" /><path d="M 25.769776987707644 143.4266507060508 a86.0,86.0 0 0,1 -11.730757126820373,-40.83630448921669" fill="none" id="id33" stroke="none" /><text fill="#e1ed5e" style="font-size:6.75px; font-family:Arial;" text-anchor="middle"><textPath startOffset="21.46611528233685" xlink:href="#id33">September</textPath></text><path d="M 81.87401531095188 110.60418214915194 l -18.27243643887823 10.689860309974769 a42.16967280946068,42.16967280946068 0 0,0 -0.3611491179851847,-0.6296939285569257 l 18.45373755301579 -10.373746535559535" fill="#ffca12" stroke="none" /><path d="M 81.69416730710424 110.29060199501025 l -21.687283123767724 12.191480317986708 a45.879116576645515,45.879116576645515 0 0,0 -0.3810666783090932,-0.6917467094299589 l 21.893926211528335 -11.816363090158926" fill="#fffe18" stroke="none" /><path d="M 81.51974371655577 109.97397251340807 l -17.020332316898134 9.186037471238693 a40.341018499568435,40.341018499568435 0 0,0 -0.324548280531217,-0.6139230375521373 l 17.175933105654238 -8.89169941860043" fill="#ffaf10" stroke="none" /><path d="M 81.35079622478065 109.6543875284942 l -26.68166530818059 13.812661381985736 a51.044980913143675,51.044980913143675 0 0,0 -0.397230413407646,-0.7837732909123815 l 26.915474391374506 -13.351333879370669" fill="#bbff1f" stroke="none" /><path d="M 81.18737489456691 109.33194174019688 l -34.40781439407842 17.067884866334584 a59.40846762353066,59.40846762353066 0 0,0 -0.44654443542305816,-0.9200137990643326 l 34.69651208611619 -16.47308211130497" fill="#56ff2b" stroke="none" /><path d="M 81.02952815118164 109.00673069616217 l -33.55049511365976 15.928980397525553 a58.139845703455215,58.139845703455215 0 0,0 -0.42144572805151553,-0.9077566046508699 l 33.8197154585511 -15.349103725595857" fill="#64ff29" stroke="none" /><path d="M 80.87730276802145 108.67885076344099 l -19.063822037397028 8.652130211353445 a41.935344942650445,41.935344942650445 0 0,0 -0.2926666031530694,-0.6598859283834025 l 19.209929725281377 -8.322695946477348" fill="#ffc712" stroke="none" /><path d="M 80.73074385275274 108.34839909993369 l -19.804051263176675 8.58009891389417 a42.58282983778396,42.58282983778396 0 0,0 -0.28560713336699245,-0.6750908962962605 l 19.948809377735977 -8.237933491931752" fill="#ffd013" stroke="none" /><path d="M 80.58989483394504 108.01547362559985 l -20.637431914437563 8.522302676627266 a43.32785791192461,43.32785791192461 0 0,0 -0.2787371587489701,-0.6918027689469252 l 20.781071687443923 -8.165800539837536" fill="#ffda14" stroke="none" /><path d="M 80.45479744820244 107.68017299344265 l -21.16612857828561 8.317106392316887 a43.7415755332307,43.7415755332307 0 0,0 -0.26933504457330154,-0.7031488118860015 l 21.30615790245242 -7.951534013597728" fill="#ffe015" stroke="none" /><path d="M 80.32549172779594 107.34259656027581 l -27.93114559642869 10.424003016667266 a50.81289541826466,50.81289541826466 0 0,0 -0.2987695148683084,-0.8220853885168188 l 28.106439372302223 -9.94166983114433" fill="#beff1e" stroke="none" /><path d="M 80.20201598880116 107.00284435728193 l -20.310457965769242 7.184114093583732 a42.543588328987994,42.543588328987994 0 0,0 -0.2382626700983639,-0.6925028475895096 l 20.431111466810833 -6.833438542904926" fill="#ffcf13" stroke="none" /><path d="M 80.0844068197444 106.66101706037122 l -36.362380949362326 12.16184914339124 a59.34231765156032,59.34231765156032 0 0,0 -0.31566651068259516,-0.9715216231653835 l 36.56633971106117 -11.534128620248055" fill="#57ff2a" stroke="none" /><path d="M 79.97269907076064 106.31721596034903 l -19.556116443811135 6.1685901339267435 a41.50593071782597,41.50593071782597 0 0,0 -0.20905791676959037,-0.6832133680131361 l 19.659401133086856 -5.83104979336156" fill="#ffc011" stroke="none" /><path d="M 79.86692584326677 105.97154293290107 l -18.432401685676115 5.467117299902348 a40.226096938094514,40.226096938094514 0 0,0 -0.19118384113119888,-0.6655360319413524 l 18.523778163693418 -5.1490237924564" fill="#ffae10" stroke="none" /><path d="M 79.76711848015287 105.62410040840567 l -27.934738938250053 7.764972899050765 a49.99386907039446,49.99386907039446 0 0,0 -0.22333433469576888,-0.8311101418147475 l 28.064261349287595 -7.282971824060478" fill="#c9ff1d" stroke="none" /><path d="M 79.67330655649465 105.27499134158121 l -29.148956988058398 7.564461782998934 a51.11449444301083,51.11449444301083 0 0,0 -0.2136797279821169,-0.853544295449553 l 29.274848030335573 -7.061589648151989" fill="#bbff1f" stroke="none" /><path d="M 79.58551787078972 104.9243191809786 l -20.936374683620915 5.050208512867013 a42.5368612131944,42.5368612131944 0 0,0 -0.16556852203128708,-0.7132648595799761 l 21.020203771582757 -4.689074995938463" fill="#ffcf13" stroke="none" /><path d="M 79.50377843672027 104.57218783832718 l -19.758488172195232 4.407618206396214 a41.244133794858556,41.244133794858556 0 0,0 -0.14860843002694057,-0.6942491107920606 l 19.831430640946614 -4.066855276187989" fill="#ffbd11" stroke="none" /><path d="M 79.4281124754447 104.21870165774334 l -27.689975514449777 5.678416502435502 a49.2662193787206,49.2662193787206 0 0,0 -0.1632121040101482,-0.8322150020885639 l 27.78361755143559 -5.200937773278983" fill="#d3ff1c" stroke="none" /><path d="M 79.35854240842038 103.8639653848113 l -21.899807543617 4.099521456134227 a43.28020750838665,43.28020750838665 0 0,0 -0.13077538774787095,-0.7334578246004947 l 21.96712937370406 -3.721944880800518" fill="#ffda14" stroke="none" /><path d="M 79.29508885075956 103.50808413554451 l -29.194438745950293 4.946485723728949 a50.610521351474006,50.610521351474006 0 0,0 -0.13813839498699648,-0.8601879174474361 l 29.275258895298577 -4.443218576588299" fill="#c1ff1e" stroke="none" /><path d="M 79.23777060512086 103.15116336523772 l -29.025848321597625 4.405364575083855 a50.35825450921419,50.35825450921419 0 0,0 -0.12269656576721791,-0.8581394952040814 l 29.09737893838144 -3.905079607899373" fill="#c4ff1e" stroke="none" /><path d="M 79.18660465613746 102.79330883721812 l -29.628543617875284 3.976365766103531 a50.89418140077059,50.89418140077059 0 0,0 -0.10905530243580046,-0.869278060882495 l 29.69260042955793 -3.4657699509336277" fill="#bdff1f" stroke="none" /><path d="M 79.1416061653843 102.43462659150553 l -16.590794779265426 1.9365052968161567 a37.70342851549639,37.70342851549639 0 0,0 -0.06969334859481818,-0.6452738517154092 l 16.6216704293613 -1.6506351232159655" fill="#ff880c" stroke="none" /><path d="M 79.10278846688536 102.07522291339032 l -19.994983662223014 1.9856260814011897 a41.09333428248547,41.09333428248547 0 0,0 -0.06384222006129472,-0.704493578490001 l 20.026200478561385 -1.6411511143626225" fill="#ffba11" stroke="none" /><path d="M 79.07016306316243 101.71520430193888 l -9.525617051000005 0.7806262128942433 a30.557549763750103,30.557549763750103 0 0,0 -0.038449315406862104,-0.5246103606032846 l 9.537642925071202 -0.616542715794198" fill="#ff1802" stroke="none" /><path d="M 79.04373962182676 101.35467743843564 l -26.979966155805847 1.7440683968163866 a48.03627837445832,48.03627837445832 0 0,0 -0.04623754646334061,-0.8256024527298275 l 27.00599005315672 -1.2793942277511214" fill="#e3ff1b" stroke="none" /><path d="M 79.0235259727143 100.99374915477108 l -23.27774335468451 1.1027705492165154 a44.30385029497869,44.30385029497869 0 0,0 -0.029531400505209388,-0.7620742272110453 l 23.29327688804092 -0.7019190749914733" fill="#ffe815" stroke="none" /><path d="M 79.0095281055655 100.63252640178507 l -22.086307477003153 0.6655482862608593 a43.09633301002839,43.09633301002839 0 0,0 -0.015961932221811657,-0.7416882691392529 l 22.094491471909972 -0.28527020133147746" fill="#ffd714" stroke="none" /><line stroke="#e1ed5e" stroke-width="0.3" x1="15.007084014347285" x2="10.007500721073583" y1="101.09737516637583" y2="101.16192664675087" /><path d="M 14.007167355692545 101.11028546245083 a86.0,86.0 0 0,1 10.666146001902534,-42.60595125391555" fill="none" id="id34" stroke="none" /><text fill="#e1ed5e" style="font-size:6.75px; font-family:Arial;" text-anchor="middle"><textPath startOffset="22.20632615414155" xlink:href="#id34">October</textPath></text><path d="M 79.00175016825051 100.2711162175752 l -22.370840779187517 0.2888382500745366 a43.372705350548586,43.372705350548586 0 0,0 -0.0032130969178778856,-0.7466105661375261 l 22.3724981733949 0.09628179426666487" fill="#ffdb14" stroke="none" /><path d="M 79.00019446554 99.90962569577889 l -29.038447602842854 -0.1249692285703285 a50.03871650901843,50.03871650901843 0 0,0 0.011120492085058968,-0.8612943672000494 l 29.03199410364008 0.6247998538308499" fill="#c9ff1d" stroke="none" /><path d="M 79.00486145842228 99.54816195383935 l -29.303258295650924 -0.6306377520789991 a50.310043512693426,50.310043512693426 0 0,0 0.026085291700761806,-0.8656438383563634 l 29.288061309494516 1.1349517378603569" fill="#c5ff1e" stroke="none" /><path d="M 79.01574976396665 99.18683210126434 l -16.03773994512333 -0.6214839770281927 a37.04977709755208,37.04977709755208 0 0,0 0.030180381042489022,-0.6370601434294887 l 16.024665955847343 0.8974552270806905" fill="#ff7e0b" stroke="none" /><path d="M 79.03285615573316 98.82574320788736 l -14.834709971839953 -0.8308122018353689 a35.85795641612016,35.85795641612016 0 0,0 0.03981839768635394,-0.6159729881679004 l 14.818210983149186 1.086044254256281" fill="#ff6c0a" stroke="none" /><path d="M 79.05617556472873 98.46500227214037 l -28.880527714516845 -2.1166881224668903 a49.95799111949529,49.95799111949529 0 0,0 0.07023978453067045,-0.8571032821243596 l 28.839813446166676 2.6135053217990283" fill="#caff1d" stroke="none" /><path d="M 79.08570108090925 98.10471618934814 l -14.331694501376386 -1.2987587426548912 a35.39042186846531,35.39042186846531 0 0,0 0.06020226630762343,-0.6062286059419051 l 14.307215109386535 1.5452628793012266" fill="#ff6509" stroke="none" /><path d="M 79.12142395522702 97.74499172005258 l -27.418911075429317 -2.9614027014890474 a48.578371788825514,48.578371788825514 0 0,0 0.09694773396809964,-0.8305889796552708 l 27.363872988457626 3.43293541946918" fill="#dcff1b" stroke="none" /><path d="M 79.16333360222342 97.38593545837743 l -25.96216631235409 -3.257084270834921 a47.16567747217056,47.16567747217056 0 0,0 0.10799592761951206,-0.804695101065372 l 25.902254385676745 3.703497713964952" fill="#efff19" stroke="none" /><path d="M 79.21141760316559 97.0276538004421 l -13.880389645303625 -1.9846145650067784 a35.02155168578318,35.02155168578318 0 0,0 0.09046251340783847,-0.5960349360907207 l 13.844171238456484 2.223248613489591" fill="#ff5f08" stroke="none" /><path d="M 79.26566170972629 96.67025291283419 l -18.86664084575515 -3.029811779921886 a40.108372411706604,40.108372411706604 0 0,0 0.11533666416174308,-0.6807235207168383 l 18.811692320073185 3.3541210889545523" fill="#ffac0f" stroke="none" /><path d="M 79.32604984820605 96.31383870115002 l -22.042451190040573 -3.9301647683167524 a43.390083733015366,43.390083733015366 0 0,0 0.13743142899961935,-0.7341641890988081 l 21.971534037131093 4.3090070348781335" fill="#ffdb14" stroke="none" /><path d="M 79.3925641242962 95.95851677861259 l -13.4739304749988 -2.642476447302708 a34.730603927710206,34.730603927710206 0 0,0 0.12010290050132238,-0.5856643965213874 l 13.426448278582484 2.874016499987498" fill="#ff5b08" stroke="none" /><path d="M 79.46518482838121 95.60439243477599 l -21.854089475452074 -4.678006606173255 a43.349160445270996,43.349160445270996 0 0,0 0.162467725990099,-0.7283109588939533 l 21.770327362459938 5.053495734617167" fill="#ffdb14" stroke="none" /><path d="M 79.54389044137918 95.25157060432595 l -21.905753684628397 -5.0849319335331895 a43.48818750500529,43.48818750500529 0 0,0 0.17554151793009157,-0.7277329208392452 l 21.81497936643749 5.461250086031831" fill="#ffdd14" stroke="none" /><path d="M 79.62865764111835 94.90015583598534 l -28.95413053489297 -7.248494037905841 a50.84765218319823,50.84765218319823 0 0,0 0.2198644444770083,-0.8472273929213895 l 28.825069758545652 7.745817856376094" fill="#beff1f" stroke="none" /><path d="M 79.71946130924805 94.55025226153421 l -20.326376126149857 -5.462065086821564 a42.04746353921037,42.04746353921037 0 0,0 0.19384527308210256,-0.6973645843148151 l 20.22934408250139 5.811140974555322" fill="#ffc812" stroke="none" /><path d="M 79.81627453868168 94.20196356495316 l -29.345884284283873 -8.429985169241057 a51.53269680817932,51.53269680817932 0 0,0 0.25225034941958074,-0.8504627778769223 l 29.196428037752586 8.933877333864519" fill="#b5ff1f" stroke="none" /><path d="M 79.91906864156998 93.8553929516997 l -20.40721231927299 -6.2444464559421355 a42.34121426219735,42.34121426219735 0 0,0 0.21925594579092753,-0.6951012652474314 l 20.296700889713858 6.594797887615981" fill="#ffcc13" stroke="none" /><path d="M 80.02781315780177 93.51064311812611 l -11.568410410176558 -3.758804396372156 a33.16374654078537,33.16374654078537 0 0,0 0.18107832985873676,-0.5414011581927628 l 11.50199478654605 3.957378657487241" fill="#ff4206" stroke="none" /><path d="M 80.14247586403 93.16781622104843 l -15.186152947044482 -5.224950860894758 a37.05986777124247,37.05986777124247 0 0,0 0.2127358516866243,-0.6014329000359702 l 15.093964014548048 5.48558138735734" fill="#ff7e0b" stroke="none" /><path d="M 80.2630227832202 92.82701384747504 l -20.0234225219521 -7.277088629053625 a42.30477571831537,42.30477571831537 0 0,0 0.2546252159648964,-0.682268987093159 l 19.89519271748558 7.620680753176125" fill="#ffcc13" stroke="none" /><path d="M 80.38941819471856 92.48833698450439 l -16.262608193050454 -6.229250805110418 a38.41482101066906,38.41482101066906 0 0,0 0.24184224370241825,-0.6154621312281305 l 16.152972399466343 6.508261941234312" fill="#ff930d" stroke="none" /><path d="M 80.52162464483688 92.15188598940014 l -15.683956429586466 -6.319288747254165 a37.90916614018384,37.90916614018384 0 0,0 0.24907822836063626,-0.6031626866831292 l 15.572856514339628 6.588326004390606" fill="#ff8b0c" stroke="none" /><path d="M 81.10775173730289 90.83032412892265 l -27.51909358438697 -13.35686282150558 a51.58931669944208,51.58931669944208 0 0,0 0.39463367458765053,-0.7955574070954629 l 27.285099896845907 13.828579817100005" fill="#b5ff20" stroke="none" /><path d="M 81.26839172434947 90.50648371742162 l -15.988230475053165 -8.103123026645815 a38.92440003203389,38.92440003203389 0 0,0 0.3080413383441042,-0.5950378180920737 l 15.846379703548948 8.377133566998225" fill="#ff9a0e" stroke="none" /><path d="M 81.43458229118936 90.18545643968196 l -20.57541439208538 -10.8771213225589 a44.27357827390751,44.27357827390751 0 0,0 0.36197213372604525,-0.6706793897546789 l 20.385134159140865 11.22968169564605" fill="#ffe815" stroke="none" /><path d="M 81.6062741919709 89.86733742301443 l -18.411729828627635 -10.142580560305422 a42.02055507603598,42.02055507603598 0 0,0 0.3544581066843019,-0.6305414202929777 l 18.234414080650904 10.458005490533184" fill="#ffc812" stroke="none" /><line stroke="#e1ed5e" stroke-width="0.3" x1="26.266209847984243" x2="21.928928074336255" y1="57.711370442889674" y2="55.22380399835377" /><path d="M 25.398753493254645 57.213857153982495 a86.0,86.0 0 0,1 29.58750427330803,-30.492523968695096" fill="none" id="id35" stroke="none" /><text fill="#e1ed5e" style="font-size:6.75px; font-family:Arial;" text-anchor="middle"><textPath startOffset="21.46611528233685" xlink:href="#id35">November</textPath></text><path d="M 81.78341655067845 89.55222093294921 l -18.662349232555666 -10.703439654110785 a42.51387690089962,42.51387690089962 0 0,0 0.36954747281041656,-0.6316764216063335 l 18.475342085274924 11.023095488071009" fill="#ffcf13" stroke="none" /><path d="M 81.96595687620814 89.24020034530311 l -22.636711055885357 -13.505927324819215 a47.35964264421922,47.35964264421922 0 0,0 0.4237204119837698,-0.6964849475205438 l 22.40087484561537 13.893580045546832" fill="#ecff1a" stroke="none" /><path d="M 82.15384107792192 88.93136811851018 l -24.944382444363598 -15.471126755807663 a50.3526485793862,50.3526485793862 0 0,0 0.46317819816487354,-0.7326366770119485 l 24.674376649952762 15.898211080533827" fill="#c4ff1e" stroke="none" /><path d="M 82.34701348167596 88.62581576622439 l -25.058441145172612 -16.145671776306077 a50.809531860367855,50.809531860367855 0 0,0 0.48003724176123486,-0.7311296526644938 l 24.776807268053457 16.574619492948237" fill="#bfff1e" stroke="none" /><path d="M 82.54541684631803 88.32363383020206 l -14.693683445191645 -9.829442890646407 a38.67829971258487,38.67829971258487 0 0,0 0.3749502633816224,-0.5501932450801267 l 14.522308716141282 10.080914158996949" fill="#ff970d" stroke="none" /><path d="M 82.7489923806493 88.02491185347247 l -17.742222543420805 -12.316073562824652 a42.597965848319554,42.597965848319554 0 0,0 0.42331704259855585,-0.5987519361045494 l 17.52759288101837 12.619651999260988" fill="#ffd013" stroke="none" /><path d="M 82.95767976084542 87.72973835380427 l -31.505719682204283 -22.683731934820308 a59.82218524483676,59.82218524483676 0 0,0 0.6088684565693752,-0.8304958905005009 l 31.110588613121276 23.22269026899231" fill="#51ff2b" stroke="none" /><path d="M 83.17141714833178 87.43820079747576 l -24.25342889801293 -18.10412121299539 a51.26529395538392,51.26529395538392 0 0,0 0.533950153310763,-0.7026158128235179 l 23.93820280447806 18.518921801699936" fill="#b9ff1f" stroke="none" /><path d="M 83.39014120810768 87.1503855733568 l -21.040593051805903 -16.27729118055988 a47.601818812788636,47.601818812788636 0 0,0 0.5069501206564438,-0.6437751716428989 l 20.75728885055549 16.63705874615583" fill="#e9ff1a" stroke="none" /><path d="M 86.37877921826538 84.01681056812374 l -13.918174812355893 -16.331636358919944 a42.457817602619656,42.457817602619656 0 0,0 0.5603268640824215,-0.4692576345310782 l 13.634990411314362 16.568795150844835" fill="#ffce13" stroke="none" /><path d="M 86.65592168130627 83.78471172551755 l -11.371931809985103 -13.818800229787357 a38.896370382893906,38.896370382893906 0 0,0 0.520649405847995,-0.42099561078989023 l 11.132379005572608 14.012501937841382" fill="#ff9a0e" stroke="none" /><path d="M 86.93701828274178 83.55741782278169 l -10.29406804424581 -12.95730664093088 a37.5487048522437,37.5487048522437 0 0,0 0.5095313561341316,-0.3976973055151368 l 10.069504132952254 13.13258233566924" fill="#ff860c" stroke="none" /><path d="M 87.22198572758235 83.33499621200491 l -14.275705198786756 -18.618282633133255 a44.46137692314538,44.46137692314538 0 0,0 0.61135207598839,-0.4604577089767315 l 13.953106969039975 18.86125693161584" fill="#ffea16" stroke="none" /><path d="M 87.51073957382395 83.11751280151077 l -6.502292543002235 -8.789541323679328 a31.933244943540277,31.933244943540277 0 0,0 0.44471557370287007,-0.3231047771614386 l 6.3500316529455825 8.900165335657436" fill="#ff2e04" stroke="none" /><path d="M 87.80319425747018 82.90503203632743 l -20.139527656921963 -28.227438180643528 a55.67547895106824,55.67547895106824 0 0,0 0.784941695532223,-0.5499018200394583 l 19.650654821806082 28.56992484344693" fill="#82ff25" stroke="none" /><path d="M 88.09926311788651 82.69761687909137 l -6.056741317237619 -8.805846207102347 a31.68770521707406,31.68770521707406 0 0,0 0.4520708441935617,-0.30524025200026256 l 5.904265778637519 8.908798371401275" fill="#ff2b04" stroke="none" /><path d="M 88.39885842347998 82.49532879139004 l -14.336542129056733 -21.632048413704656 a46.95153095274112,46.95153095274112 0 0,0 0.6775172413614402,-0.440676060149627 l 13.962057861911006 21.87562339801382" fill="#f2ff19" stroke="none" /><path d="M 88.70189139769569 82.29822771554957 l -9.58943316958202 -15.02463538634025 a38.82405388811276,38.82405388811276 0 0,0 0.5664260256469396,-0.3546959252960917 l 9.329387991562836 15.187475652959272" fill="#ff990e" stroke="none" /><path d="M 89.00827224532344 82.1063720568725 l -11.7633327435683 -19.14973734634808 a43.4741726804353,43.4741726804353 0 0,0 0.6410120476984339,-0.3862025864055558 l 11.431958629652218 19.349386542212255" fill="#ffdc14" stroke="none" /><line stroke="#e1ed5e" stroke-width="0.3" x1="56.762969772571076" x2="54.21961505331055" y1="26.818313649435495" y2="22.513508569990535" /><path d="M 56.25429882871897 25.957352633546506 a86.0,86.0 0 0,1 42.265352541879196,-11.944610805530505" fill="none" id="id36" stroke="none" /><text fill="#e1ed5e" style="font-size:6.75px; font-family:Arial;" text-anchor="middle"><textPath startOffset="22.20632615414155" xlink:href="#id36">December</textPath></text><path d="M 89.3179101791058 81.91981866633112 l -11.049562607642647 -18.702154630186644 a42.72241749050106,42.72241749050106 0 0,0 0.6363672280004519,-0.3686249731202631 l 10.725998647176874 18.889583760696954" fill="#ffd213" stroke="none" /><path d="M 89.63071344664047 81.73862282372117 l -8.2817918791423 -14.585084945064192 a37.77238145238074,37.77238145238074 0 0,0 0.5681612094851874,-0.31618109794341936 l 8.029506580585068 14.725481440567796" fill="#ff890c" stroke="none" /><path d="M 89.94658935756843 81.56283822128135 l -18.110201997542063 -33.21268134265702 a58.8293750722987,58.8293750722987 0 0,0 0.8932398881641275,-0.47713781340095957 l 17.53581706284963 33.51949788255973" fill="#5cff2a" stroke="none" /><path d="M 90.26544431104013 81.39251694778311 l -17.619233095172426 -33.678946598795434 a59.00932541977736,59.00932541977736 0 0,0 0.9040776946797685,-0.46310370978314763 l 17.036894912903893 33.97724283389108" fill="#5aff2a" stroke="none" /><path d="M 90.58718382345135 81.22770947309562 l -16.92608298026783 -33.75624693274148 a58.762103914362754,58.762103914362754 0 0,0 0.9080948157680873,-0.4455981822849141 l 16.34251689748932 34.04260027516123" fill="#5dff2a" stroke="none" /><path d="M 90.91171255644093 81.06846463323043 l -17.014791868510272 -35.442995835833884 a60.31550706970039,60.31550706970039 0 0,0 0.9398356242723082,-0.4412654274157221 l 16.402178032938355 35.73062624588961" fill="#4bff2c" stroke="none" /><path d="M 91.23893434514133 80.91482961587045 l -9.061284231280494 -19.73916875706877 a42.71961452558706,42.71961452558706 0 0,0 0.6709377506069113,-0.3010302113313173 l 8.720164362206809 19.89221929891662" fill="#ffd213" stroke="none" /><path d="M 91.56875222667455 80.76684994638697 l -8.871187237672448 -20.2367288784534 a43.09577241704558,43.09577241704558 0 0,0 0.6819726259407939,-0.29198508772883736 l 8.521530853941346 20.386433494145024" fill="#ffd714" stroke="none" /><path d="M 91.90106846888425 80.62456947434976 l -14.51308697610998 -34.72029703399638 a58.63148574937045,58.63148574937045 0 0,0 0.9345192395387281,-0.381213862188537 l 13.913283866982871 34.9649717823685" fill="#5fff29" stroke="none" /><path d="M 92.23578459929587 80.48803036053334 l -8.377857930927696 -21.054092545809745 a43.65972895774196,43.65972895774196 0 0,0 0.7006696985861988,-0.27184895749455856 l 8.014205067341821 21.195184207194856" fill="#ffdf14" stroke="none" /><path d="M 92.57280143429618 80.3572730644239 l -13.344649718277848 -35.29262186114786 a58.73127130030878,58.73127130030878 0 0,0 0.948699297852904,-0.3494139578019477 l 12.735168094652375 35.517099086756126" fill="#5eff2a" stroke="none" /><path d="M 92.91201910852362 80.23233633223022 l -4.67639852998742 -13.042003743041889 a34.855055569891704,34.855055569891704 0 0,0 0.5665075102561077,-0.19764334666180575 l 4.451209015668027 13.120567942875903" fill="#ff5d08" stroke="none" /><path d="M 93.25333710446033 80.11325718540243 l -12.034203326640581 -35.47251585575663 a58.45826251768537,58.45826251768537 0 0,0 0.9557012240087661,-0.31507966765013473 l 11.421819280389405 35.674409247666" fill="#61ff29" stroke="none" /><path d="M 93.59665428221793 80.00007090966166 l -6.7263590997070155 -21.008814916350993 a43.05933387316361,43.05933387316361 0 0,0 0.7078434235404033,-0.21993039729923053 l 6.363730303455884 21.12148544853275" fill="#ffd714" stroke="none" /><path d="M 93.94186890950719 79.89281104454417 l -3.268547729686071 -10.848445804327714 a32.330144775362385,32.330144775362385 0 0,0 0.5342322142604176,-0.15595703295450514 l 3.0813252977022323 10.903101166200917" fill="#ff3505" stroke="none" /><path d="M 94.28887869178378 79.79150937346287 l -6.204119126450677 -21.952936463182432 a43.812770842046255,43.812770842046255 0 0,0 0.7275050319799464,-0.19885460690191556 l 5.825316205247009 22.056477610910644" fill="#ffe115" stroke="none" /><path d="M 94.63758080256005 79.69619591428918 l -9.976931199707462 -37.77579651963503 a60.07108852919978,60.07108852919978 0 0,0 1.0020175408950083,-0.2554365820253577 l 9.325204770127455 37.941936097829256" fill="#4eff2b" stroke="none" /><path d="M 94.98787191387505 79.60689891045804 l -5.36705031772444 -21.837191269114797 a43.4870663190397,43.4870663190397 0 0,0 0.7284628502155978,-0.17240362095529055 l 4.990363780546309 21.92634080221096" fill="#ffdd14" stroke="none" /><path d="M 95.33964822691252 79.52364482259891 l -8.49604675045667 -37.329386135781185 a59.28401598134916,59.28401598134916 0 0,0 0.9969800754863046,-0.21790122916328505 l 7.852223950816845 37.47010086304034" fill="#57ff2a" stroke="none" /><path d="M 95.692805502759 79.44645832069477 l -3.5931294802176894 -17.146088150442374 a38.518530712486985,38.518530712486985 0 0,0 0.6501076734512925,-0.1304054833988707 l 3.2974553972992604 17.205397589918455" fill="#ff940d" stroke="none" /><path d="M 96.04723909329186 79.375362276772 l -4.3516914572806025 -22.70616966418647 a44.11941520363763,44.11941520363763 0 0,0 0.7470990143095585,-0.1365275695283525 l 3.9601973218681508 22.777712715065558" fill="#ffe515" stroke="none" /><path d="M 96.40284397218896 79.31037775812273 l -3.822976547082146 -21.98846532848839 a43.31832783121702,43.31832783121702 0 0,0 0.7357324941093417,-0.12140216552730877 l 3.4439148468339185 22.051013756955328" fill="#ffda14" stroke="none" /><path d="M 96.75951476605007 79.25152402106235 l -1.7909879681716436 -11.467501979905638 a32.60651711588258,32.60651711588258 0 0,0 0.5552905695630382,-0.0818353954431803 l 1.5933284181799567 11.496631859509787" fill="#ff3905" stroke="none" /><path d="M 97.11714578562143 79.19881850522333 l -3.1561047023752993 -22.772815358885037 a43.990478817593726,43.990478817593726 0 0,0 0.7509494639044961,-0.09749479280873033 l 2.7636405099629453 22.823768474857903" fill="#ffe415" stroke="none" /><path d="M 97.47563105711357 79.15227682838746 l -2.7426155205915945 -22.650131749000067 a43.81557380696025,43.81557380696025 0 0,0 0.7495244293470279,-0.08421780285031284 l 2.3523243877348485 22.693985505320978" fill="#ffe115" stroke="none" /><path d="M 97.83486435360386 79.11191278185805 l -2.5493580700805603 -24.594862592906406 a45.726635285324036,45.726635285324036 0 0,0 0.7836127172331954,-0.0744134696204229 l 2.1256202257571286 24.63510160704201" fill="#fffc17" stroke="none" /><path d="M 98.19473922651362 79.07773832637324 l -2.044321565177363 -23.69288213639995 a44.780914923341136,44.780914923341136 0 0,0 0.7685467175096572,-0.05965401685434519 l 1.6361846583053719 23.724561415442757" fill="#ffef16" stroke="none" /><path d="M 98.55514903715128 79.0497635885617 l -2.080590014921069 -30.168407544216986 a51.24006727115794,51.24006727115794 0 0,0 0.8804457567354534,-0.05311089243934632 l 1.560982209345993 30.19975170603664" fill="#b9ff1f" stroke="none" /><path d="M 98.91598698831166 79.02799685794201 l -1.5316973346475493 -29.633187949358124 a50.67274717256476,50.67274717256476 0 0,0 0.8714727233042724,-0.037527448657056275 l 1.0213837789539528 29.655163124539374" fill="#c0ff1e" stroke="none" /><path d="M 99.27714615592234 79.0124445844662 l -0.811399114341969 -23.55840536214611 a44.57237433373969,44.57237433373969 0 0,0 0.7670128043017582,-0.01980967782692127 l 0.40575967484533165 23.568881832115395" fill="#ffec16" stroke="none" /></svg>