<?xml version="1.0" encoding="utf-8" ?>
<svg baseProfile="full" height="200mm" version="1.1" viewBox="0,0,200,200" width="200mm" xmlns="http://www.w3.org/2000/svg" xmlns:ev="http://www.w3.org/2001/xml-events" xmlns:xlink="http://www.w3.org/1999/xlink"><defs /><rect fill="#1a1a1a" height="200" width="200" x="0" y="0" /><text alignment-baseline="middle" fill="#e1ed5e" style="dominant-baseline: central; font-size:9.0px; font-family:Arial;" text-anchor="middle" x="100.0" y="100.0">2019</text><line stroke="#e1ed5e" stroke-width="0.3" x1="100.0" x2="100.0" y1="15.0" y2="10.0" /><path d="M 100.0 14.0 a86.0,86.0 0 0,1 42.46469731375804,11.215312516191453" fill="none" id="id49" stroke="none" /><text fill="#e1ed5e" style="font-size:6.75px; font-family:Arial;" text-anchor="middle"><textPath startOffset="22.20632615414155" xlink:href="#id49">January</textPath></text><path d="M 100.0 79.0 l 0.0 -15.159314092831494 a36.159314092831494,36.159314092831494 0 0,0 0.6224231518306008,0.005357392573808046 l -0.26094267255807246 15.157068076866244" fill="#ffbd11" stroke="none" /><path d="M 100.36148047927253 79.00311137660856 l 0.1313794678175835 -7.63128359992712 a28.632414424484605,28.632414424484605 0 0,0 0.4927139020510002,0.012725346442372134 l -0.2627200050634515 7.627891461342388" fill="#ff5808" stroke="none" /><path d="M 100.72285384407766 79.0124445844662 l 0.2626190365757254 -7.624959911972158 a28.62948113685029,28.62948113685029 0 0,0 0.4923714084052469,0.021202548576700144 l -0.3938312773703038 7.619309636871263" fill="#ff5708" stroke="none" /><path d="M 101.08401301168833 79.027996857942 l 0.3951183076885074 -7.64420934156692 a28.654414081741958,28.654414081741958 0 0,0 0.49236190804557817,0.029700614875357075 l -0.5266422645736974 7.636275457311259" fill="#ff5808" stroke="none" /><path d="M 101.44485096284872 79.0497635885617 l 0.7076723896254726 -10.261199421752035 a31.285573089721474,31.285573089721474 0 0,0 0.5369346415693882,0.04167646211755181 l -0.884197220557202 10.24749769744602" fill="#ff7c0b" stroke="none" /><path d="M 101.80526077348638 79.07773832637324 l 0.6890257821681318 -7.985537561178168 a29.01520846076256,29.01520846076256 0 0,0 0.4972306884412856,0.04721804523453117 l -0.8263815976996616 7.972493971428458" fill="#ff5d08" stroke="none" /><path d="M 102.16513564639614 79.11191278185805 l 0.9113635662096725 -8.792355199597313 a29.83946228600475,29.83946228600475 0 0,0 0.510444209642796,0.05735435448212132 l -1.0625744793621936 8.77536489164459" fill="#ff6809" stroke="none" /><path d="M 102.52436894288641 79.15227682838746 l 0.9176539182147366 -7.5785256779509025 a28.63388106830176,28.63388106830176 0 0,0 0.48880117279258106,0.0634604209160688 l -1.0479698195151639 7.561606933870697" fill="#ff5808" stroke="none" /><path d="M 102.88285421437855 79.19881850522331 l 1.0083060242328417 -7.275413549437935 a28.34495223632185,28.34495223632185 0 0,0 0.4827159127608017,0.07113977757371617 l -1.1333909174222991 7.256979287703249" fill="#ff5407" stroke="none" /><path d="M 103.2404852339499 79.25152402106235 l 1.6310599724166355 -10.443500344743875 a31.570101990249913,31.570101990249913 0 0,0 0.5361968256732911,0.08847707054778096 l -1.8105860042288016 10.413877011256469" fill="#ff800b" stroke="none" /><path d="M 103.59715602781102 79.31037775812273 l 1.824654661955569 -10.494795162030766 a31.6522340440107,31.6522340440107 0 0,0 0.5359851835258602,0.09794786635827629 l -2.00503496658433 10.461831814321751" fill="#ff810b" stroke="none" /><path d="M 103.95276090670814 79.375362276772 l 3.5349680224579854 -18.444686270465375 a39.780374078694344,39.780374078694344 0 0,0 0.6714048008310729,0.13467748679828268 l -3.8519392327561834 18.381104827589883" fill="#ffeb16" stroke="none" /><path d="M 104.307194497241 79.44645832069477 l 4.120934543389098 -19.664726064609198 a41.091877779516224,41.091877779516224 0 0,0 0.6910426483823882,0.15103515726061353 l -4.458819915925014 19.590877409252712" fill="#fffb17" stroke="none" /><path d="M 104.66035177308747 79.52364482259891 l 2.0192767718981086 -8.872168968367165 a30.099058241641522,30.099058241641522 0 0,0 0.5041969397211861,0.11932712568222548 l -2.1716973985818186 8.83609593054407" fill="#ff6c09" stroke="none" /><path d="M 105.01212808612495 79.60689891045804 l 1.8223495578686257 -7.4146865593830515 a28.63534771211892,28.63534771211892 0 0,0 0.4776527510937554,0.12176432163594371 l -1.949711197647406 7.3822192415782375" fill="#ff5808" stroke="none" /><path d="M 105.36241919743992 79.69619591428918 l 1.9493366853159324 -7.380801220210278 a28.63388106830176,28.63388106830176 0 0,0 0.4754616556301928,0.12996163115182907 l -2.0760962301698362 7.346153048232158" fill="#ff5808" stroke="none" /><path d="M 105.71112130821622 79.79150937346287 l 2.0760962301698362 -7.346153048232158 a28.63388106830176,28.63388106830176 0 0,0 0.4731541350116512,0.13812666675057467 l -2.2022405829049143 7.30932805256288" fill="#ff5808" stroke="none" /><path d="M 106.0581310904928 79.89281104454417 l 2.2085870975530555 -7.330392398535683 a28.655880725559115,28.655880725559115 0 0,0 0.4710680563961906,0.14636313816409757 l -2.3344405266599644 7.291289125489065" fill="#ff5808" stroke="none" /><path d="M 106.40334571778207 80.00007090966166 l 11.189804362001237 -34.949744030422195 a57.69736134181712,57.69736134181712 0 0,0 0.9432616790443856,0.31097854525473323 l -11.78974886328804 34.75195176090822" fill="#49ff2c" stroke="none" /><path d="M 106.74666289553966 80.11325718540242 l 2.4530055763760146 -7.23058077385405 a28.63534771211892,28.63534771211892 0 0,0 0.46541711876436914,0.16237489403220484 l -2.5771046992036575 7.187285026649637" fill="#ff5808" stroke="none" /><path d="M 107.08798089147638 80.2323363322302 l 2.5766096733298176 -7.185904449425921 a28.63388106830176,28.63388106830176 0 0,0 0.4625294542901894,0.1703535014617127 l -2.6999214533925837 7.140487680157884" fill="#ff5808" stroke="none" /><path d="M 107.4271985657038 80.35727306442388 l 2.698365302698986 -7.136372125299004 a28.62948113685029,28.62948113685029 0 0,0 0.4594579581163343,0.17826254964148278 l -2.820806425814987 7.0888668717669745" fill="#ff5708" stroke="none" /><path d="M 107.76421540070413 80.48803036053334 l 2.827313476393569 -7.105219505842562 a28.647080862656175,28.647080862656175 0 0,0 0.4566019073303254,0.1862593825911628 l -2.9491992533122815 7.05549923706782" fill="#ff5808" stroke="none" /><path d="M 108.09893153111575 80.62456947434976 l 2.9469367299111986 -7.050086502708735 a28.641214287387548,28.641214287387548 0 0,0 0.45323527163366495,0.1940516899299219 l -3.0678557593351785 6.998315284816023" fill="#ff5808" stroke="none" /><path d="M 108.43124777332544 80.76684994638697 l 3.063733880195956 -6.988912557945826 a28.630947780667448,28.630947780667448 0 0,0 0.4496665973003799,0.201752294741982 l -3.183582595963116 6.9351399326873135" fill="#ff5808" stroke="none" /><path d="M 108.76106565485865 80.91482961587045 l 4.409167054874152 -9.604962205447777 a31.568635346432757,31.568635346432757 0 0,0 0.49190215832811723,0.23095465902288637 l -4.573847424501868 9.527642563784887" fill="#ff800b" stroke="none" /><path d="M 109.08828744355905 81.06846463323043 l 5.360898916449703 -11.167125606966914 a33.387248746762445,33.387248746762445 0 0,0 0.5159581682759221,0.25317843239127225 l -5.552328351736057 11.07319201444081" fill="#ff980e" stroke="none" /><path d="M 109.41281617654863 81.2277094730956 l 3.6767978897494547 -7.332759601430342 a29.202938869358647,29.202938869358647 0 0,0 0.44741615775251564,0.22918393373868662 l -3.8024745350907256 7.268383142379155" fill="#ff5f08" stroke="none" /><path d="M 109.73455568895987 81.39251694778311 l 3.5393675003901883 -6.765457292906471 a28.63534771211892,28.63534771211892 0 0,0 0.43478678392349096,0.232248042352056 l -3.6552993308419905 6.703530524052661" fill="#ff5808" stroke="none" /><path d="M 110.05341064243156 81.56283822128135 l 3.6581078589486684 -6.7086811429724085 a28.641214287387548,28.641214287387548 0 0,0 0.4308128406243612,0.2397468793762912 l -3.773044788645065 6.644718866035937" fill="#ff5808" stroke="none" /><path d="M 110.36928655335952 81.73862282372117 l 3.7715964029296543 -6.642168110233237 a28.638280999753235,28.638280999753235 0 0,0 0.42657847015709127,0.247101783650036 l -3.885371605552074 6.576262169193149" fill="#ff5808" stroke="none" /><line stroke="#e1ed5e" stroke-width="0.3" x1="143.23703022742887" x2="145.7803849466894" y1="26.818313649435467" y2="22.513508569990506" /><path d="M 143.74570117128098 25.957352633546478 a86.0,86.0 0 0,1 28.547481713284135,27.462654790039114" fill="none" id="id50" stroke="none" /><text fill="#e1ed5e" style="font-size:6.75px; font-family:Arial;" text-anchor="middle"><textPath startOffset="19.985693538727396" xlink:href="#id50">February</textPath></text><path d="M 110.68208982089419 81.91981866633111 l 3.8831334882677684 -6.572473999740846 a28.63388106830176,28.63388106830176 0 0,0 0.42219694143613634,0.25436893322145465 l -3.995692495921542 6.5046584570607795" fill="#ff5808" stroke="none" /><path d="M 110.99172775467656 82.1063720568725 l 4.016419431058887 -6.538400201218444 a28.673480451365,28.673480451365 0 0,0 0.41833358310126423,0.261960451360015 l -4.128372166532415 6.468295408535485" fill="#ff5808" stroke="none" /><path d="M 113.34407831869373 83.78471172551755 l 0.9712478087094712 -1.1802286248665517 a22.528483533727904,22.528483533727904 0 0,0 0.297314257862539,0.24899214065955452 l -0.9914196035311276 1.1633353268131776" fill="#ff0000" stroke="none" /><path d="M 113.89432698308785 84.25364557470407 l 5.057632662587227 -5.731783666455272 a28.64414757502186,28.64414757502186 0 0,0 0.36690290320761176,0.3294090491583955 l -5.1555465533908285 5.643875608527579" fill="#ff5808" stroke="none" /><path d="M 114.16331599549186 84.49514656593476 l 6.6986495125791805 -7.333139988670139 a30.932111929786654,30.932111929786654 0 0,0 0.39002758936108917,0.3624881375688795 l -6.823884985735116 7.216747265026621" fill="#ff770b" stroke="none" /><path d="M 114.42810811169701 84.74124197986012 l 5.249917421098636 -5.552163799584864 a28.641214287387548,28.641214287387548 0 0,0 0.355310297388181,0.34180822457544713 l -5.344710962099238 5.460972488247111" fill="#ff5808" stroke="none" /><path d="M 114.68862486808459 84.99185889309781 l 5.341633393407048 -5.457827974338329 a28.636814355936075,28.636814355936075 0 0,0 0.3493203159640649,0.3478202235136843 l -5.434789509538433 5.365071900174528" fill="#ff5808" stroke="none" /><path d="M 114.94478906791727 85.2469230424477 l 10.464824453318485 -10.330581435807352 a35.70487890601687,35.70487890601687 0 0,0 0.4280092371808327,0.4411011419889639 l -10.641097954202428 10.148916098268273" fill="#ffb711" stroke="none" /><path d="M 115.19652480421416 85.50635884689758 l 5.529519164409547 -5.273762755016871 a28.641214287387548,28.641214287387548 0 0,0 0.3371925766804125,0.35969353073015425 l -5.619479063060423 5.177799807408659" fill="#ff5808" stroke="none" /><path d="M 115.4437574822437 85.77008943001952 l 5.610850304422325 -5.169849251082503 a28.62948113685029,28.62948113685029 0 0,0 0.3308155077961892,0.3652947463113393 l -5.69900945283455 5.072501717501617" fill="#ff5708" stroke="none" /><path d="M 115.68641384162765 86.03803664274999 l 5.702296078816576 -5.0754270356778 a28.63388106830176,28.63388106830176 0 0,0 0.324528412933335,0.3709920763914204 l -5.788816355327759 4.976519403083432" fill="#ff5808" stroke="none" /><path d="M 115.9244219780498 86.31012108654704 l 5.786592026276721 -4.97460719582 a28.630947780667448,28.630947780667448 0 0,0 0.3180617258587758,0.3764847615841766 l -5.871364365622614 4.8742634846067165" fill="#ff5808" stroke="none" /><path d="M 116.15771136456269 86.58626213691792 l 4.010537950302283 -3.3294507830659765 a26.21245212617569,26.21245212617569 0 0,0 0.28521832558124227,0.3496439425681688 l -4.067254767959934 3.2599226708897047" fill="#ff3505" stroke="none" /><path d="M 116.38621287248628 86.86637796730983 l 5.963552221676762 -4.779813460328151 a28.642680931204705,28.642680931204705 0 0,0 0.3050389862434767,0.3873685353351622 l -6.044945288514203 4.67645253103995" fill="#ff5808" stroke="none" /><path d="M 116.60985879189232 87.15038557335679 l 13.151079504389738 -10.173855361613587 a37.62703295990639,37.62703295990639 0 0,0 0.3919017812529436,0.5156968059184419 l -13.324257225866795 9.945973779814112" fill="#ffd013" stroke="none" /><path d="M 116.82858285166822 87.43820079747576 l 32.54279457232328 -24.291769218463763 a61.60940199436009,61.60940199436009 0 0,0 0.6270586965177286,0.8553073573474381 l -32.95611588135464 23.727999417444828" fill="#31ff3f" stroke="none" /><path d="M 117.04232023915458 87.72973835380427 l 6.191621942513896 -4.457891893993714 a28.62948113685029,28.62948113685029 0 0,0 0.28450530546778285,0.4024125781356673 l -6.267439867785562 4.350652815526254" fill="#ff5708" stroke="none" /><path d="M 117.2510076193507 88.02491185347247 l 6.271054308309083 -4.353161842524827 a28.63388106830176,28.63388106830176 0 0,0 0.27757893516464144,0.4073128359125359 l -6.345057709142457 4.2445709833418865" fill="#ff5808" stroke="none" /><path d="M 117.45458315368197 88.32363383020206 l 6.343838677882296 -4.243755503806183 a28.632414424484605,28.632414424484605 0 0,0 0.27051273141162047,0.4120094487516348 l -6.415948044651841 4.133927991076874" fill="#ff5808" stroke="none" /><line stroke="#e1ed5e" stroke-width="0.3" x1="172.23445277983987" x2="176.4835382374775" y1="55.19839476539836" y2="52.563006222186495" /><path d="M 173.08426987136738 54.67131705675599 a86.0,86.0 0 0,1 12.851231095245387,41.99856678651699" fill="none" id="id51" stroke="none" /><text fill="#e1ed5e" style="font-size:6.75px; font-family:Arial;" text-anchor="middle"><textPath startOffset="22.20632615414155" xlink:href="#id51">March</textPath></text><path d="M 117.84615892207809 88.93136811851018 l 6.486156227548257 -4.0228755062663355 a28.632414424484605,28.632414424484605 0 0,0 0.2561703965372522,0.42107677643672675 l -6.554442422371733 3.9106309566225272" fill="#ff5808" stroke="none" /><path d="M 118.03404312379186 89.2402003453031 l 7.5821951158105 -4.523827509390396 a29.829195779284653,29.829195779284653 0 0,0 0.25928719561137903,0.44320586647919374 l -7.658941985892207 4.392642230557306" fill="#ff6809" stroke="none" /><path d="M 118.21658344932153 89.55222093294921 l 6.520278684002914 -3.7395832942867413 a28.516549562929207,28.516549562929207 0 0,0 0.24054708817992945,0.42790642890670344 l -6.583683413475276 3.6267933554452454" fill="#ff5608" stroke="none" /><path d="M 118.3937258080291 89.86733742301442 l 8.618523321171834 -4.747737877401398 a30.83971336930577,30.83971336930577 0 0,0 0.2521394765682776,0.4671761567310656 l -8.698970896958576 4.598680737337873" fill="#ff760a" stroke="none" /><path d="M 118.56541770881063 90.18545643968196 l 6.280789242043128 -3.3203174082075804 a28.104422650308116,28.104422650308116 0 0,0 0.22241380623630339,0.4296326807558628 l -6.337012481439547 3.211712005191373" fill="#ff5007" stroke="none" /><path d="M 118.73160827565052 90.50648371742162 l 5.180546950144632 -2.62559445511103 a26.807909515941397,26.807909515941397 0 0,0 0.20506772558985872,0.41340402138692284 l -5.224974688687898 2.5360308452251576" fill="#ff3e05" stroke="none" /><path d="M 118.89224826269711 90.83032412892265 l 9.249260749419742 -4.489286925512212 a31.28117315827,31.28117315827 0 0,0 0.2309471231050932,0.4864335401187914 l -9.325166066366592 4.32941096975288" fill="#ff7c0b" stroke="none" /><path d="M 119.04729006885535 91.15688171328212 l 6.925365840442866 -3.215251570404208 a28.63534771211892,28.63534771211892 0 0,0 0.20371688576854713,0.4488631540944924 l -6.97968504317476 3.095566407467653" fill="#ff5808" stroke="none" /><path d="M 119.196687751892 91.48605970444005 l 5.636303480888722 -2.4997620393764906 a27.165770607327687,27.165770607327687 0 0,0 0.1859035052645538,0.42909092135308174 l -5.678497695995956 2.4023719734368063" fill="#ff4306" stroke="none" /><path d="M 119.34039704204932 91.81776055985345 l 13.83424676555437 -5.852781577530867 a36.02136597532116,36.02136597532116 0 0,0 0.23667463396808278,0.5731263990172836 l -13.93294308640865 5.61378060806028" fill="#ffbb11" stroke="none" /><path d="M 119.47837535516314 92.15188598940014 l 7.087544764712858 -2.855672424135332 a28.641214287387548,28.641214287387548 0 0,0 0.1803120603815729,0.45887452609450563 l -7.135650374976131 2.7332488931450416" fill="#ff5808" stroke="none" /><path d="M 119.61058180528143 92.48833698450437 l 9.361261096537781 -3.585749747532889 a31.024510490267538,31.024510490267538 0 0,0 0.1867312271406195,0.5003468518116357 l -9.421596912180025 3.4240797586919203" fill="#ff780b" stroke="none" /><path d="M 119.7369772167798 92.82701384747503 l 7.170614065422165 -2.6060077402655994 a28.62948113685029,28.62948113685029 0 0,0 0.16434265471718923,0.4646188155053831 l -7.214409800949165 2.4821912983336016" fill="#ff5708" stroke="none" /><path d="M 119.85752413597 93.16781622104841 l 6.78587219454907 -2.3347485626194375 a28.176288197348804,28.176288197348804 0 0,0 0.1538461645797404,0.45998045018398653 l -6.825055652900581 2.217595009513137" fill="#ff5107" stroke="none" /><path d="M 119.97218684219823 93.5106431181261 l 7.2658317792681615 -2.3608118545992087 a28.639747643570388,28.639747643570388 0 0,0 0.14830550011908186,0.4701689635100117 l -7.305392763155449 2.235392724662778" fill="#ff5808" stroke="none" /><path d="M 120.08093135843002 93.85539295169968 l 16.359018326138933 -5.005730935277009 a38.10774160406156,38.10774160406156 0 0,0 0.1865357672042175,0.6289058751154472 l -16.442759990454853 4.723395673415032" fill="#ffd614" stroke="none" /><path d="M 120.18372546131832 94.20196356495316 l 30.11893780035714 -8.65205479959864 a52.33701431976314,52.33701431976314 0 0,0 0.24128168453384616,0.8680185952559026 l -30.26340625545735 8.132324900923786" fill="#81ff25" stroke="none" /><path d="M 120.28053869075195 94.5502522615342 l 5.175512842216127 -1.390753955669323 a26.359116507891382,26.359116507891382 0 0,0 0.11397640321783786,0.43919757549930943 l -5.198685577304268 1.3014599546211632" fill="#ff3805" stroke="none" /><path d="M 120.45610955862082 95.25157060432595 l 4.760289821681413 -1.1049950654802807 a25.886857198766855,25.886857198766855 0 0,0 0.09702099830569816,0.4349261114984579 l -4.778605206989148 1.0228907844318589" fill="#ff3104" stroke="none" /><path d="M 120.53481517161879 95.60439243477599 l 7.413989342443062 -1.5870114909616653 a28.581941930818495,28.581941930818495 0 0,0 0.09884003557774819,0.48197911580126584 l -7.440208673935808 1.4591567189969883" fill="#ff5708" stroke="none" /><path d="M 120.6074358757038 95.95851677861258 l 5.041612416961855 -0.9887495035669488 a26.137653291500687,26.137653291500687 0 0,0 0.08278700416091675,0.4422514865787135 l -5.057885145032631 0.901819939525672" fill="#ff3405" stroke="none" /><path d="M 120.67395015179393 96.31383870115 l 21.592472652253416 -3.8499336823788783 a42.933008562370716,42.933008562370716 0 0,0 0.12345926030561398,0.7286635429517507 l -21.655543774079256 3.4776843511112903" fill="#edff1a" stroke="none" /><path d="M 120.73433829027371 96.67025291283417 l 14.767079776063495 -2.3714593724632316 a35.95628512257864,35.95628512257864 0 0,0 0.09287697912933676,0.6119432484710932 l -14.805712648632133 2.116917011600056" fill="#ffba11" stroke="none" /><path d="M 120.78858239683441 97.02765380044208 l 5.399535670386705 -0.7720242305552887 a26.45444835600658,26.45444835600658 0 0,0 0.06057312950831639,0.45134017222641715 l -5.412024798952857 0.6789657162642074" fill="#ff3905" stroke="none" /><path d="M 120.83666639777658 97.38593545837742 l 5.855871952402877 -0.7346485728010678 a26.90177472023944,26.90177472023944 0 0,0 0.05368780390962908,0.4599643173083883 l -5.867650109316095 0.6337405171678268" fill="#ff3f05" stroke="none" /><path d="M 120.87857604477298 97.74499172005257 l 8.849497017826986 -0.955797416728805 a29.900963215874683,29.900963215874683 0 0,0 0.05086420718766642,0.5121956249646062 l -8.86463835069688 0.8033262610597638" fill="#ff6909" stroke="none" /><path d="M 120.91429891909075 98.10471618934814 l 7.283852167469769 -0.6600731463958205 a28.313699402911425,28.313699402911425 0 0,0 0.039808409040505865,0.48576342129674693 l -7.294135060329769 0.5345958078913045" fill="#ff5307" stroke="none" /><path d="M 120.94382443527127 98.46500227214037 l 8.80706087599812 -0.6454799349354596 a29.830683191007424,29.830683191007424 0 0,0 0.033125423902324265,0.5124356461092986 l -8.81686689090486 0.49378522457312574" fill="#ff6809" stroke="none" /><path d="M 120.96714384426684 98.82574320788733 l 15.020737169029191 -0.8412305831580702 a36.044275123617474,36.044275123617474 0 0,0 0.029361309104963706,0.6197708293791987 l -15.032992086367653 0.5825486471558717" fill="#ffbb11" stroke="none" /><path d="M 120.98425023603335 99.18683210126433 l 15.279599894359665 -0.5921050311477252 a36.29106802351053,36.29106802351053 0 0,0 0.01881658272242628,0.6244307742249708 l -15.287528171537737 0.3290041094977551" fill="#ffbe11" stroke="none" /><line stroke="#e1ed5e" stroke-width="0.3" x1="184.98032266829074" x2="189.97916517819016" y1="98.17113171792111" y2="98.06355123074" /><path d="M 185.9800911702706 98.14961562048488 a86.0,86.0 0 0,1 -9.607161424134198,41.387399972396054" fill="none" id="id52" stroke="none" /><text fill="#e1ed5e" style="font-size:6.75px; font-family:Arial;" text-anchor="middle"><textPath startOffset="21.466115282336823" xlink:href="#id52">April</textPath></text><path d="M 120.99513854157772 99.54816195383933 l 7.652186743821255 -0.16468331944262243 a28.653958620087803,28.653958620087803 0 0,0 0.006367991472820138,0.4932079573427428 l -7.653887742411791 0.032939104039416946" fill="#ff5808" stroke="none" /><path d="M 120.99980553446 99.90962569577887 l 7.53449773930323 -0.032425299830888016 a28.53456751138608,28.53456751138608 0 0,0 -0.002113871620015361,0.49118931899634 l -7.533939570393712 -0.09727349736913668" fill="#ff5608" stroke="none" /><path d="M 120.99824983174949 100.27111621757518 l 7.63471137196905 0.0985745995990965 a28.63534771211892,28.63534771211892 0 0,0 -0.010605901880851245,0.492814585311953 l -7.6318834074031905 -0.22997900070116434" fill="#ff5808" stroke="none" /><path d="M 120.9904718944345 100.63252640178507 l 12.044295061428867 0.36294251294384905 a33.0497622712841,33.0497622712841 0 0,0 -0.02202981817013104,0.5684917196745655 l -12.036263110407534 -0.5702114796324207" fill="#ff940d" stroke="none" /><path d="M 120.9764740272857 100.99374915477107 l 10.311063766957908 0.48848109028602305 a31.32262804627965,31.32262804627965 0 0,0 -0.0301497434575205,0.5383439228860785 l -10.301127672612859 -0.6658967295075248" fill="#ff7d0b" stroke="none" /><path d="M 120.95626037817324 101.35467743843564 l 11.762908659630838 0.760390770300697 a32.78746004270541,32.78746004270541 0 0,0 -0.04125512033256185,0.5628933395920982 l -11.74807698063394 -0.9627572463895652" fill="#ff900d" stroke="none" /><path d="M 120.92983693683757 101.71520430193887 l 9.701280474616901 0.795021865416056 a30.733802063616906,30.733802063616906 0 0,0 -0.047747747631712224,0.526892416360306 l -9.686158130708113 -0.961895670324933" fill="#ff750a" stroke="none" /><path d="M 120.89721153311464 102.0752229133903 l 8.334695630494515 0.8276870491131157 a29.37569203733363,29.37569203733363 0 0,0 -0.054299845557293704,0.5027491316855885 l -8.31921348343617 -0.9710325026834954" fill="#ff6209" stroke="none" /><path d="M 120.8583938346157 102.4346265915055 l 4.469874363784863 0.52173120677678 a25.500220025748284,25.500220025748284 0 0,0 -0.05464149595390345,0.43554648500004434 l -4.460231358584111 -0.5985954460642194" fill="#ff2b04" stroke="none" /><path d="M 120.81339534386255 102.79330883721812 l 9.648655976792012 1.294919716940754 a30.735162003367286,30.735162003367286 0 0,0 -0.07488541576480262,0.5237484234438408 l -9.624936510010611 -1.4608136123650042" fill="#ff750a" stroke="none" /><path d="M 120.76222939487914 103.15116336523771 l 7.598198464349527 1.1532077883971852 a28.685213601902255,28.685213601902255 0 0,0 -0.07829457711584176,0.4875404064383766 l -7.577222132872394 -1.2838274245287669" fill="#ff5808" stroke="none" /><path d="M 120.64145759157962 103.86396538481128 l 31.791006966354207 5.951098652858576 a53.343217204088354,53.343217204088354 0 0,0 -0.1767186283896254,0.9010844789134944 l -31.683858404988918 -6.497446858840016" fill="#77ff27" stroke="none" /><path d="M 120.49622156327973 104.57218783832717 l 10.718302978811984 2.3909818878532954 a31.981749092637855,31.981749092637855 0 0,0 -0.12448428911348923,0.5362750594443763 l -10.675558123767942 -2.575125604646236" fill="#ff850c" stroke="none" /><path d="M 120.41448212921028 104.9243191809786 l 8.326177822704365 2.008415246444845 a29.5649850517935,29.5649850517935 0 0,0 -0.12359386574205349,0.4936960564902905 l -8.290372642667249 -2.151439142332532" fill="#ff6409" stroke="none" /><path d="M 120.32669344350535 105.2749913415812 l 11.233858981828538 2.915304893360494 a32.605972180083036,32.605972180083036 0 0,0 -0.14565852252190883,0.5420495486044201 l -11.182012382964853 -3.1082453751404624" fill="#ff8e0d" stroke="none" /><path d="M 120.23288151984713 105.62410040840565 l 6.4219626951845825 1.7851022841864794 a27.6654478486708,27.6654478486708 0 0,0 -0.13148644757814126,0.45772157342088166 l -6.390283610720342 -1.8953813331119431" fill="#ff4a06" stroke="none" /><path d="M 120.02730092923936 106.31721596034902 l 14.224456594329142 4.486823488720643 a35.91531932017847,35.91531932017847 0 0,0 -0.19104854644237293,0.5879869661869572 l -14.145115796870522 -4.731009354885395" fill="#ffba11" stroke="none" /><path d="M 119.9155931802556 106.66101706037122 l 4.186635029739596 1.4002719932183971 a25.414597889642327,25.414597889642327 0 0,0 -0.1423328447482264,0.4136858713661337 l -4.161911354048138 -1.4721305676738312" fill="#ff2a04" stroke="none" /><path d="M 119.79798401119884 107.00284435728193 l 10.051264237969697 3.5552831547192207 a31.661517297820176,31.661517297820176 0 0,0 -0.18616329743067347,0.5122414405744251 l -9.988576679533796 -3.7277723922997756" fill="#ff810b" stroke="none" /><path d="M 119.67450827220406 107.3425965602758 l 9.136877948044233 3.4099153922820595 a30.752438752434138,30.752438752434138 0 0,0 -0.18935553557809792,0.4943475516775659 l -9.07682813287263 -3.5666865107927705" fill="#ff750a" stroke="none" /><path d="M 119.54520255179757 107.68017299344265 l 6.624215611260392 2.6029467694446726 a28.117272254805794,28.117272254805794 0 0,0 -0.18088428456368644,0.44893996007486203 l -6.5784287124393135 -2.716586097362348" fill="#ff5007" stroke="none" /><path d="M 119.41010516605496 108.01547362559984 l 8.460078332554705 3.493620161507004 a30.153049067160616,30.153049067160616 0 0,0 -0.20223939881760655,0.47803419825218546 l -8.39868795254479 -3.638728885425353" fill="#ff6d0a" stroke="none" /><path d="M 119.26925614724726 108.34839909993367 l 14.069613850879936 6.095655728043247 a36.333331427569775,36.333331427569775 0 0,0 -0.25357017343446564,0.5717338005239496 l -13.962602592714196 -6.336937865059884" fill="#ffbf11" stroke="none" /><path d="M 118.97047184881838 109.00673069616215 l 6.682022766761405 3.172466138189018 a28.396889187589178,28.396889187589178 0 0,0 -0.21344554669208807,0.439761046668298 l -6.626423963454605 -3.2870161408225913" fill="#ff5407" stroke="none" /><path d="M 118.81262510543309 109.33194174019688 l 6.603399677671013 3.275595018446636 a28.37118783018979,28.37118783018979 0 0,0 -0.22078367880729355,0.43562714403983205 l -6.546037329077448 -3.3887763741891623" fill="#ff5407" stroke="none" /><line stroke="#e1ed5e" stroke-width="0.3" x1="174.80103733775053" x2="179.2010983576182" y1="140.37084112569926" y2="142.7455964860345" /><path d="M 175.68104954172406 140.8457921977663 a86.0,86.0 0 0,1 -30.038265399797805,32.042727171017184" fill="none" id="id53" stroke="none" /><text fill="#e1ed5e" style="font-size:6.75px; font-family:Arial;" text-anchor="middle"><textPath startOffset="22.206326154141568" xlink:href="#id53">May</textPath></text><path d="M 118.48025628344425 109.97397251340804 l 13.170807294414905 7.108411697275734 a35.96661891158385,35.96661891158385 0 0,0 -0.2987346100213188,0.5422900905218312 l -13.046496274942077 -7.334072306195371" fill="#ffba11" stroke="none" /><path d="M 118.12598468904814 110.60418214915192 l 6.542806932504112 3.8277157169247853 a28.580219664733793,28.580219664733793 0 0,0 -0.25207634565020154,0.4224944547140548 l -6.475949711155681 -3.939772265524944" fill="#ff5708" stroke="none" /><path d="M 117.94076556474637 110.91462005526583 l 10.360359057152221 6.302929623424192 a33.126993099319975,33.126993099319975 0 0,0 -0.3005649317569484,0.4846063719499258 l -10.250329485727313 -6.480332326739389" fill="#ff950d" stroke="none" /><path d="M 117.75023020441432 111.22182372390056 l 8.084400303763662 5.111016255987607 a30.56451856814882,30.56451856814882 0 0,0 -0.28497067089835143,0.44228080960285887 l -7.995224769488259 -5.2494186655119215" fill="#ff720a" stroke="none" /><path d="M 117.55443506779139 111.5257021239791 l 3.9915263597530295 2.6207134359415303 a25.77497870088734,25.77497870088734 0 0,0 -0.24669955604681726,0.3687823636546768 l -3.945823698295491 -2.689032713802014" fill="#ff2f04" stroke="none" /><path d="M 117.35343817320211 111.8261652097733 l 7.210292176299954 4.913729811728992 a29.725425716278064,29.725425716278064 0 0,0 -0.29178915673203804,0.4203440429361673 l -7.124642112405778 -5.037115116852176" fill="#ff6709" stroke="none" /><path d="M 117.14729908036423 112.12312394758627 l 7.55398691942714 5.3406614822230845 a30.251236860365083,30.251236860365083 0 0,0 -0.30427012050195856,0.4226045851604322 l -7.460937006549579 -5.46989967283465" fill="#ff6e0a" stroke="none" /><path d="M 116.71984013943494 112.70617746262582 l 6.109743947402832 4.643076141846895 a28.673794834487914,28.673794834487914 0 0,0 -0.30202133056554714,0.3904032826410399 l -6.028915799619217 -4.747557418601188" fill="#ff5808" stroke="none" /><path d="M 116.498646956653 112.99209946851258 l 12.005457394965223 9.453872008424385 a36.28092612422412,36.28092612422412 0 0,0 -0.3905936919403898,0.48732568722130254 l -11.840945790969979 -9.659125529223939" fill="#ffbe11" stroke="none" /><path d="M 116.27256486870786 113.27417163493432 l 6.567216505568038 5.357136982524498 a29.47509582721853,29.47509582721853 0 0,0 -0.32409131095361365,0.3903888618968467 l -6.474029194720882 -5.469387101535112" fill="#ff6309" stroke="none" /><path d="M 115.80600337817218 113.82643327865902 l 7.207748022173178 6.3050376957143515 a30.576279647938456,30.576279647938456 0 0,0 -0.34993991543141434,0.3931612046747666 l -7.098149257093427 -6.428173070129982" fill="#ff720a" stroke="none" /><path d="M 115.56566222782051 114.09645910891815 l 6.697458939424111 6.065302888592205 a30.035698942286473,30.035698942286473 0 0,0 -0.3503501116320045,0.38023585118912684 l -6.592062419796382 -6.179689994582669" fill="#ff6b09" stroke="none" /><path d="M 115.32070863581623 114.36230785411682 l 6.185266087882598 5.798341175037026 a29.478105741263214,29.478105741263214 0 0,0 -0.35021877429539877,0.36720298469251733 l -6.0845407622082375 -5.903951276312049" fill="#ff6309" stroke="none" /><path d="M 114.81725581225074 114.88116024355365 l 25.104191787418177 25.212462112222035 a56.579329547641926,56.579329547641926 0 0,0 -0.6960605944370917,0.6812417929919654 l -24.66648124060529 -25.64085400813657" fill="#55ff2b" stroke="none" /><path d="M 114.55890576462653 115.13401014063108 l 7.178318553992165 7.461875744312468 a31.354122217076004,31.354122217076004 0 0,0 -0.3921716357408052,0.3708227597122278 l -7.048811083860553 -7.584333140770619" fill="#ff7d0b" stroke="none" /><path d="M 114.0293411484842 115.62618273729858 l 5.7649156314288295 6.421087360296243 a29.629288216651975,29.629288216651975 0 0,0 -0.38244024519325004,0.3374590508181982 l -5.653533033328992 -6.5193695528867295" fill="#ff6509" stroke="none" /><path d="M 113.75828350139079 115.86535959552629 l 5.395025072902926 6.221271192720578 a29.234713764948125,29.234713764948125 0 0,0 -0.3830228113869257,0.3264203493663725 l -5.287136784938952 -6.313215932309897" fill="#ff6008" stroke="none" /><path d="M 113.48314897796784 116.09983520530334 l 5.6805773527748 6.783011846868782 a29.847497317073355,29.847497317073355 0 0,0 -0.3967299090179696,0.3264817058870963 l -5.562977315212139 -6.879788671613057" fill="#ff6809" stroke="none" /><path d="M 112.92097659922987 116.55440617244103 l 13.73778152727735 17.600899867302708 a43.32752376395599,43.32752376395599 0 0,0 -0.5918772301616391,0.4538262211480935 l -13.432775568622219 -17.834765430278175" fill="#e8ff1a" stroke="none" /><path d="M 112.63410532772338 116.77436683061366 l 9.23398334466703 12.260007330422747 a36.34842754654716,36.34842754654716 0 0,0 -0.5030190165084988,0.3721214429267126 l -9.021579357739967 -12.417138722089229" fill="#ffbf11" stroke="none" /><path d="M 112.34349029814194 116.9893568818739 l 6.091317149424349 8.383978796323678 a31.36316771417293,31.36316771417293 0 0,0 -0.43949157954158374,0.31356557277774894 l -5.946098242033881 -8.487588630945647" fill="#ff7d0b" stroke="none" /><path d="M 112.04921762599082 117.19931262002967 l 8.623932197103038 12.309986463516756 a36.03023530328771,36.03023530328771 0 0,0 -0.5110170252619898,0.35148216967721135 l -8.410758287218165 -12.456609422559062" fill="#ffbb11" stroke="none" /><path d="M 111.7513745106137 117.40417183066458 l 4.5139497252370715 6.685307883094976 a29.066540994363052,29.066540994363052 0 0,0 -0.41707067722445856,0.276411702695458 l -4.398204349272649 -6.762017606881752" fill="#ff5e08" stroke="none" /><path d="M 111.45004920935366 117.60387380957326 l 4.888391330472732 7.515655395013932 a29.965570021835923,29.965570021835923 0 0,0 -0.43481211893763644,0.27751766672937667 l -4.758297409488165 -7.5986874905671185" fill="#ff6a09" stroke="none" /><path d="M 111.1453310114006 117.79835938074945 l 3.9140405087963503 6.250464839053217 a28.3748236459416,28.3748236459416 0 0,0 -0.4161921848191703,0.25565923264395235 l -3.805869124044871 -6.316912538525548" fill="#ff5407" stroke="none" /><line stroke="#e1ed5e" stroke-width="0.3" x1="143.8653032363475" x2="146.44561519142675" y1="172.8068346515853" y2="177.08958963109032" /><path d="M 144.38136562736335 173.6633856474863 a86.0,86.0 0 0,1 -40.68145358897372,12.25698825130547" fill="none" id="id54" stroke="none" /><text fill="#e1ed5e" style="font-size:6.75px; font-family:Arial;" text-anchor="middle"><textPath startOffset="21.466115282336833" xlink:href="#id54">June</textPath></text><path d="M 110.8373102113329 117.98757091392108 l 7.7742456447216055 12.903551906305788 a36.06454603176613,36.06454603176613 0 0,0 -0.5344974019934041,0.31579048637614027 l -7.550980371699819 -13.035460964975679" fill="#ffbb11" stroke="none" /><path d="M 110.5260780823613 118.17145234162733 l 7.641417344376238 13.191584748786898 a36.244971866663484,36.244971866663484 0 0,0 -0.5425548380567694,0.3080767968601042 l -7.41321373939827 -13.32116471144163" fill="#ffbe11" stroke="none" /><path d="M 110.21172684928248 118.3499491758327 l 4.485957925205307 8.061036213304625 a30.225189609917017,30.225189609917017 0 0,0 -0.45679931853011246,0.24908341020617122 l -4.346535794806545 -8.137060275270567" fill="#ff6e0a" stroke="none" /><path d="M 109.89434966115114 118.52300852407294 l 3.5657032216910887 6.675279672905168 a28.567932225957044,28.567932225957044 0 0,0 -0.43574136133240676,0.22795928584055106 l -3.4502709578321866 -6.735668377690436" fill="#ff5708" stroke="none" /><path d="M 109.57404056367764 118.69057910512821 l 3.593598695442704 7.015474839753242 a28.882311768199624,28.882311768199624 0 0,0 -0.4444383897610442,0.2228506350158123 l -3.4723063979988993 -7.076293315678357" fill="#ff5b08" stroke="none" /><path d="M 109.2508944713604 118.85261126421891 l 13.764822845771631 28.051650036173278 a52.24684652452815,52.24684652452815 0 0,0 -0.8107897818704664,0.3892283669117321 l -13.279920395900932 -28.28443267958457" fill="#82ff25" stroke="none" /><path d="M 107.93186726928326 119.44442032107085 l 1.6735223796609502 4.102523587713369 a25.43073097163105,25.43073097163105 0 0,0 -0.40674507401048676,0.1618522592104194 l -1.602656229608597 -4.130722691329858" fill="#ff2a04" stroke="none" /><path d="M 107.59598834532513 119.57807347666477 l 2.2504699182794927 5.800412456427196 a27.221687835126147,27.221687835126147 0 0,0 -0.4383077761059008,0.16573049641771032 l -2.150291921413317 -5.838291202951537" fill="#ff4406" stroke="none" /><path d="M 107.2578585660854 119.70592522655815 l 3.4043733266981553 9.243267226601043 a30.850266329896407,30.850266329896407 0 0,0 -0.4998924848298499,0.1792436597372755 l -3.2447612812385707 -9.30049842737828" fill="#ff760a" stroke="none" /><path d="M 106.91757812671514 119.82793768551818 l 5.20013907128806 14.905221390031434 a36.78629377170548,36.78629377170548 0 0,0 -0.5996696081484553,0.20344048960638353 l -4.942799730202378 -14.992524866535941" fill="#ffc512" stroke="none" /><path d="M 106.57524785965236 119.94407469862006 l 2.4009489227147562 7.28257028241155 a28.668140951218163,28.668140951218163 0 0,0 -0.4699918574013675,0.15047655088624143 l -2.2752357202224482 -7.322819679957498" fill="#ff5808" stroke="none" /><path d="M 105.88484417918355 120.15858648285463 l 2.1380146503992448 7.323788348404984 a28.62948113685029,28.62948113685029 0 0,0 -0.4742525790879699,0.13402851603123142 l -2.01163090320667 -7.359505657774735" fill="#ff5708" stroke="none" /><path d="M 105.18746579009965 120.34920634021253 l 5.184067232229903 20.335874598250445 a41.98624189186924,41.98624189186924 0 0,0 -0.7018634429579861,0.1725009580263448 l -4.8332505045287055 -20.42209681459082" fill="#f8ff18" stroke="none" /><path d="M 104.83641907484287 120.43548508189849 l 2.2095656215529975 9.33615234701081 a30.594056539469857,30.594056539469857 0 0,0 -0.5135137370713643,0.11687405470025128 l -2.048531735088771 -9.372803135288745" fill="#ff730a" stroke="none" /><path d="M 104.48393922423573 120.51570834832081 l 2.6763631902895146 12.24536816854825 a33.534431040523195,33.534431040523195 0 0,0 -0.564988954202134,0.1183989286377632 l -2.4651827746580026 -12.289623077912555" fill="#ff9a0e" stroke="none" /><path d="M 103.41894727170886 120.7198165907248 l 2.405981938552988 14.580951540237594 a35.77812223888408,35.77812223888408 0 0,0 -0.6085077205314258,0.09503639135367199 l -2.1546383544130454 -14.620206238938371" fill="#ffb811" stroke="none" /><path d="M 103.06178313531737 120.77559828337769 l 0.9969477297869912 6.764746106498143 a27.83781358778588,27.83781358778588 0 0,0 -0.4746631014122318,0.06578398071570507 l -0.8803560371879284 -6.780904652706451" fill="#ff4c07" stroke="none" /><path d="M 102.70371172650421 120.8252237178851 l 1.962472911301303 15.115863506269886 a36.24272382049131,36.24272382049131 0 0,0 -0.6193580806236589,0.07499563815107521 l -1.7019874076262638 -15.147404673146312" fill="#ffbe11" stroke="none" /><path d="M 102.34483914955558 120.86867818915974 l 1.0216881909410156 9.092854864033558 a30.15007411652425,30.15007411652425 0 0,0 -0.5162373267727264,0.05351010968707385 l -0.8650182675626865 -9.10909434217639" fill="#ff6d0a" stroke="none" /><path d="M 101.98527174616119 120.90594882070398 l 1.4558094083575543 15.330433751788885 a36.399401938109484,36.399401938109484 0 0,0 -0.6242595923247457,0.053863744373153354 l -1.1917054982912667 -15.353221748440701" fill="#ffc011" stroke="none" /><path d="M 101.26447882468166 120.96189622390904 l 0.5333127315631864 8.840991178109592 a29.857062011810633,29.857062011810633 0 0,0 -0.5132740775420133,0.026530406983490833 l -0.38105058560769356 -8.848861391855285" fill="#ff6909" stroke="none" /><path d="M 100.90346689309514 120.98055641714683 l 0.45859348777605097 10.649583970763548 a31.659453397682945,31.659453397682945 0 0,0 -0.544662675699411,0.018759283826050424 l -0.27521046040198777 -10.655900053015692" fill="#ff810b" stroke="none" /><line stroke="#e1ed5e" stroke-width="0.3" x1="102.19456741930631" x2="102.32365962044197" y1="184.97166512339345" y2="189.96999836594603" /><path d="M 102.22038585953345 185.97133177190398 a86.0,86.0 0 0,1 -42.740103519485714,-10.115201625700543" fill="none" id="id55" stroke="none" /><text fill="#e1ed5e" style="font-size:6.75px; font-family:Arial;" text-anchor="middle"><textPath startOffset="22.20632615414155" xlink:href="#id55">July</textPath></text><path d="M 100.18074693466247 120.99922214144158 l 0.15335793742907583 17.817161885707318 a38.81782187357574,38.81782187357574 0 0,0 -0.6682097441830502,0.0 l 0.15335793742906353 -17.817161885707318" fill="#ffdf14" stroke="none" /><path d="M 99.81925306533755 120.99922214144158 l -0.16696610206782936 19.398161711349854 a40.398880263018256,40.398880263018256 0 0,0 -0.6953230385835378,-0.01197061668253045 l 0.5008488305440352 -19.392413617388165" fill="#fff216" stroke="none" /><path d="M 99.45781275523022 120.99299961872073 l -0.23477202551210702 9.090160437386704 a30.093191666372896,30.093191666372896 0 0,0 -0.5177170334387982,-0.01783122142413679 l 0.39120941062554826 -9.084772417536472" fill="#ff6c09" stroke="none" /><path d="M 99.09653310690486 120.98055641714683 l -0.40962003186137175 9.51230892215551 a30.521124387435627,30.521124387435627 0 0,0 -0.5246900033000146,-0.027120479947829578 l 0.5732981035748752 -9.503848635445479" fill="#ff720a" stroke="none" /><path d="M 98.73552117531835 120.96189622390904 l -0.9328672794594294 15.46460622433285 a36.49271722567608,36.49271722567608 0 0,0 -0.6266967996163335,-0.043220680500078164 l 1.198926839854693 -15.446257199316486" fill="#ffc111" stroke="none" /><path d="M 98.37488393609728 120.93702456842531 l -2.4426866566054355 31.470115690994835 a52.56477308182268,52.56477308182268 0 0,0 -0.9015000815259472,-0.07778522034857266 l 2.9840310558729244 -31.4234062183676" fill="#7fff26" stroke="none" /><path d="M 98.01472825383883 120.90594882070398 l -0.7259961475576465 7.645118777425143 a28.67951245374386,28.67951245374386 0 0,0 -0.4910579916004867,-0.05090016864437661 l 0.8574867357637268 -7.631489240325005" fill="#ff5808" stroke="none" /><path d="M 97.65516085044442 120.86867818915974 l -1.4131024802362389 12.576376897299198 a33.65551715587201,33.65551715587201 0 0,0 -0.5751448652507607,-0.06964203349920847 l 1.6293747685383886 -12.550189335074641" fill="#ff9c0e" stroke="none" /><path d="M 97.2962882734958 120.8252237178851 l -1.5162865790013251 11.679132401055648 a32.777149851770055,32.777149851770055 0 0,0 -0.5588838202049369,-0.07745620491943284 l 1.7170989903930924 -11.65130163064361" fill="#ff900d" stroke="none" /><path d="M 96.93821686468263 120.77559828337769 l -3.287656642210854 22.308253286910624 a43.549209540691926,43.549209540691926 0 0,0 -0.7406769436253777,-0.11567850580358886 l 3.6711694494447493 -22.24835647375993" fill="#e5ff1a" stroke="none" /><path d="M 96.22490169976321 120.6578951692458 l -1.6674181822608967 9.124358433336527 a30.27546226419652,30.27546226419652 0 0,0 -0.5118461708382057,-0.09809653684529342 l 1.8242319676707974 -9.094304698142764" fill="#ff6e0a" stroke="none" /><path d="M 95.86986931433489 120.58985236759428 l -2.0320131904718663 10.130151993987662 a31.331943526149562,31.331943526149562 0 0,0 -0.5278813880744736,-0.11062267736560745 l 2.206086039975727 -10.093673335895513" fill="#ff7d0b" stroke="none" /><path d="M 95.51606077576429 120.51570834832081 l -1.5923649414731056 7.285668491396985 a28.457653214877148,28.457653214877148 0 0,0 -0.4776547311337922,-0.10871266169575661 l 1.7175398219997597 -7.257179096123541" fill="#ff5507" stroke="none" /><path d="M 95.16358092515715 120.4354850818985 l -2.739366501002248 11.57473792051465 a32.89448135714261,32.89448135714261 0 0,0 -0.5498809347857434,-0.13514735523366023 l 2.938200720531202 -11.52586930696696" fill="#ff920d" stroke="none" /><path d="M 94.81253420990036 120.34920634021253 l -1.873284283016642 7.348452973267807 a28.58346590322167,28.58346590322167 0 0,0 -0.4757235481308532,-0.1256429128454035 l 1.999498273958984 -7.315118711118822" fill="#ff5708" stroke="none" /><path d="M 94.46302465271185 120.25689768951611 l -2.0224585974184697 7.39911852944288 a28.670547163730685,28.670547163730685 0 0,0 -0.4749328453165969,-0.13422076606243796 l 2.1495226108396817 -7.363208970041922" fill="#ff5808" stroke="none" /><path d="M 94.11515582081647 120.15858648285463 l -2.7290305638591317 9.3483186573583 a30.738514750103867,30.738514750103867 0 0,0 -0.5066366287404086,-0.1526454602358472 l 2.889542167039786 -9.299957828016728" fill="#ff750a" stroke="none" /><path d="M 93.42475214034765 119.94407469862007 l -4.955072837320582 15.029751716439485 a36.82549157154266,36.82549157154266 0 0,0 -0.6003085887811496,-0.2036572665298719 l 5.213051159038957 -14.942231463011488" fill="#ffc512" stroke="none" /><path d="M 93.08242187328487 119.8279376855182 l -4.891450439880317 14.020423439699234 a35.84919394560772,35.84919394560772 0 0,0 -0.5808942603276923,-0.20828801452566933 l 5.132064260837736 -13.934147884133608" fill="#ffb911" stroke="none" /><path d="M 92.7421414339146 119.70592522655815 l -4.094212722359006 11.11626095132705 a32.84625828495753,32.84625828495753 0 0,0 -0.528871336321115,-0.19997388567530078 l 4.284954279440404 -11.044138815545114" fill="#ff910d" stroke="none" /><path d="M 92.40401165467489 119.57807347666478 l -5.218195658252078 13.44949641421543 a35.426313448826576,35.426313448826576 0 0,0 -0.5666167638569392,-0.22546850397597498 l 5.4489334981508755 -13.357681065833388" fill="#ffb310" stroke="none" /><path d="M 92.06813273071674 119.44442032107085 l -3.3902538773667694 8.310971319697394 a29.97586016100034,29.97586016100034 0 0,0 -0.4760859471336497,-0.19900396451357916 l 3.53281128399788 -8.251382312163843" fill="#ff6a09" stroke="none" /><path d="M 91.40352486487194 119.15986991738527 l -13.257742940799458 29.548928619109734 a53.38683267041654,53.38683267041654 0 0,0 -0.8352039588972074,-0.3834011733623843 l 13.764414895464085 -29.316340375413276" fill="#76ff27" stroke="none" /><path d="M 91.07499286063937 119.00905698771935 l -7.029850653007056 14.972630227805086 a37.540811834434436,37.540811834434436 0 0,0 -0.582575000468037,-0.2796714032491374 l 7.286538321475335 -14.849404548056386" fill="#ffce13" stroke="none" /><path d="M 90.7491055286396 118.85261126421891 l -4.660691124581534 9.498129966389053 a31.580005416689104,31.580005416689104 0 0,0 -0.485950254560018,-0.24366554579819383 l 4.823495286824312 -9.416496579681557" fill="#ff800b" stroke="none" /><path d="M 90.42595943632237 118.69057910512821 l -3.772939977847871 7.365587459740029 a29.275684545916565,29.275684545916565 0 0,0 -0.4465365759438836,-0.23360683191192447 l 3.8991674563182506 -7.299551208883388" fill="#ff6008" stroke="none" /><path d="M 90.10565033884886 118.52300852407294 l -7.093029688346459 13.2787150119231 a36.05441272609583,36.05441272609583 0 0,0 -0.5448975300350359,-0.2971215794077404 l 7.320550030250137 -13.154652780755594" fill="#ffbb11" stroke="none" /><line stroke="#e1ed5e" stroke-width="0.3" x1="58.666819895761336" x2="56.23545636021788" y1="174.27360380694188" y2="178.64263932499728" /><path d="M 58.180547188652646 175.14741091055294 a86.0,86.0 0 0,1 -31.652253787137756,-30.449443065178592" fill="none" id="id56" stroke="none" /><text fill="#e1ed5e" style="font-size:6.75px; font-family:Arial;" text-anchor="middle"><textPath startOffset="22.20632615414155" xlink:href="#id56">August</textPath></text><path d="M 89.7882731507175 118.34994917583269 l -10.28270543482623 18.477494052083628 a42.14596456783636,42.14596456783636 0 0,0 -0.6308874252949747,-0.358234345232874 l 10.599241627042412 -18.29775654105612" fill="#f6ff19" stroke="none" /><path d="M 89.1626897886671 117.98757091392108 l -7.76365745925471 12.88597782812389 a36.044028773288815,36.044028773288815 0 0,0 -0.5286814562100622,-0.32475933075600144 l 7.984318115397081 -12.75043003053951" fill="#ffbb11" stroke="none" /><path d="M 88.8546689885994 117.79835938074946 l -9.547370946540036 15.246522429349673 a38.98912833295431,38.98912833295431 0 0,0 -0.5657474726370988,-0.36108680445222424 l 9.808400221224058 -15.079921196073647" fill="#ffe115" stroke="none" /><path d="M 88.54995079064634 117.60387380957326 l -8.282406830851388 12.733783237433403 a36.190375191208204,36.190375191208204 0 0,0 -0.5192893193906964,-0.3441566449110445 l 8.500370848982046 -12.589328571431041" fill="#ffbd11" stroke="none" /><path d="M 88.24862548938628 117.40417183066458 l -8.498101050398619 12.585966925137555 a36.18631900440138,36.18631900440138 0 0,0 -0.51323076125242,-0.3530047974773439 l 8.713488696273929 -12.437821338295109" fill="#ffbd11" stroke="none" /><path d="M 87.95078237400918 117.19931262002967 l -19.818425357115014 28.289246981354516 a55.54057727380385,55.54057727380385 0 0,0 -0.7782892422465544,-0.555288709481895 l 20.302441927210456 -27.943914010028404" fill="#5fff29" stroke="none" /><path d="M 87.07902340077011 116.55440617244103 l -13.770675393590277 17.64304361853886 a43.38098498550271,43.38098498550271 0 0,0 -0.5846982266041585,-0.4645196333472422 l 14.072331112911794 -17.403390071186486" fill="#e7ff1a" stroke="none" /><path d="M 86.79598089348748 116.32954008644617 l -10.187470833589982 12.598945216199953 a37.20240668993512,37.20240668993512 0 0,0 -0.4944906189138,-0.40693211461612117 l 10.40283158104847 -12.421717982726657" fill="#ffca12" stroke="none" /><path d="M 86.51685102203217 116.09983520530335 l -3.8633839548330995 4.613154175576029 a27.017219210739825,27.017219210739825 0 0,0 -0.3539699872266711,-0.3016609023294451 l 3.942219418636827 -4.5459688830236304" fill="#ff4106" stroke="none" /><path d="M 86.24171649860922 115.8653595955263 l -12.072608608662911 13.92152420853384 a39.427064739310914,39.427064739310914 0 0,0 -0.5089051142874884,-0.44904959397566463 l 12.310456075856987 -13.711651472785888" fill="#ffe615" stroke="none" /><path d="M 85.97065885151581 115.62618273729859 l -9.867702172497888 10.990859493166596 a35.77059709570503,35.77059709570503 0 0,0 -0.4546280228896806,-0.41529191978333824 l 10.055429744854424 -10.81937480679668" fill="#ffb811" stroke="none" /><path d="M 85.70375840098266 115.38237550388516 l -6.494284087676307 6.987676850145687 a30.539567787562895,30.539567787562895 0 0,0 -0.38198333766596626,-0.36118908796096805 l 6.61360325973309 -6.874853125438788" fill="#ff720a" stroke="none" /><path d="M 85.18274418774928 114.88116024355367 l -12.480168461366453 12.533993412369128 a38.68772443491244,38.68772443491244 0 0,0 -0.46786239597686363,-0.47394213700655924 l 12.69407148239885 -12.317310781381904" fill="#ffdd14" stroke="none" /><path d="M 84.9287848128048 114.62390073753433 l -10.808569538331447 10.487770632960652 a36.06049495582859,36.06049495582859 0 0,0 -0.4284217735957801,-0.44919851680749573 l 10.987497863306185 -10.300164999570656" fill="#ffbb11" stroke="none" /><path d="M 84.67929136418377 114.36230785411684 l -8.60109131989855 8.063042275274867 a32.789462355260476,32.789462355260476 0 0,0 -0.38247126589570485,-0.41509702013736366 l 8.738608993789988 -7.9137940003361615" fill="#ff900d" stroke="none" /><path d="M 84.4343377721795 114.09645910891817 l -5.453146276653409 4.938437721358512 a28.356967543921584,28.356967543921584 0 0,0 -0.32454029523766575,-0.36462446212755845 l 5.537345421539408 -4.8438390894900865" fill="#ff5407" stroke="none" /><path d="M 84.19399662182784 113.82643327865904 l -7.977653821874705 6.978519215092399 a31.599183503321655,31.599183503321655 0 0,0 -0.35459925161928957,-0.412479040288463 l 8.096595583064778 -6.840163075642408" fill="#ff800b" stroke="none" /><path d="M 83.95833913139862 113.55231037782056 l -9.116018993637322 7.701392008211163 a32.933701904962064,32.933701904962064 0 0,0 -0.36212016705569894,-0.4361970688779144 l 9.247235160586555 -7.543333682219484" fill="#ff920d" stroke="none" /><path d="M 83.50135304334701 112.99209946851258 l -9.829365695576051 7.740276955124095 a33.51112773971205,33.51112773971205 0 0,0 -0.35297300015994215,-0.45626518394597576 l 9.961145512954062 -7.5699337770648665" fill="#ff9a0e" stroke="none" /><path d="M 83.28015986056508 112.70617746262583 l -9.581218216054229 7.281209505956604 a33.03394176374816,33.03394176374816 0 0,0 -0.34015322490767763,-0.4556908318094008 l 9.70513270765699 -7.1152057946378955" fill="#ff940d" stroke="none" /><path d="M 83.06392112726016 112.41649034213515 l -7.334619694979788 5.377291596848702 a30.094608896897384,30.094608896897384 0 0,0 -0.3026947399798836,-0.4204165194019469 l 7.4260942273352795 -5.250241471995617" fill="#ff6c09" stroke="none" /><path d="M 82.85270091963577 112.12312394758628 l -13.255361799710126 9.371528035689504 a37.233611864428966,37.233611864428966 0 0,0 -0.36549061775288555,-0.5265164944514047 l 13.414713324625145 -9.141970279051089" fill="#ffcb12" stroke="none" /><path d="M 82.6465618267979 111.8261652097733 l -8.604870832855044 5.864118860045232 a31.413053925475353,31.413053925475353 0 0,0 -0.30066315659932435,-0.4494506246032036 l 8.704537094865099 -5.715131321236208" fill="#ff7e0b" stroke="none" /><path d="M 82.44556493220864 111.52570212397912 l -12.536881461294122 8.231330756501073 a35.997606568964954,35.997606568964954 0 0,0 -0.3356264902985644,-0.5208997662302016 l 12.676712814969731 -8.014309390349423" fill="#ffbb11" stroke="none" /><path d="M 82.05923443525364 110.91462005526583 l -13.070029635329307 7.951411385754917 a36.298712942398105,36.298712942398105 0 0,0 -0.3201531344986778,-0.5365950685936756 l 13.204963645526217 -7.7252542232751304" fill="#ffbe11" stroke="none" /><line stroke="#e1ed5e" stroke-width="0.3" x1="26.63291911575756" x2="22.317208475507996" y1="142.92168965132927" y2="145.44649492493687" /><path d="M 25.769776987707644 143.4266507060508 a86.0,86.0 0 0,1 -11.730757126820373,-40.83630448921669" fill="none" id="id57" stroke="none" /><text fill="#e1ed5e" style="font-size:6.75px; font-family:Arial;" text-anchor="middle"><textPath startOffset="21.46611528233685" xlink:href="#id57">September</textPath></text><path d="M 81.87401531095188 110.60418214915194 l -6.292768780801021 3.6814367615807053 a28.29053602680501,28.29053602680501 0 0,0 -0.2422855443904828,-0.42244526895412393 l 6.355206321343881 -3.572571646768273" fill="#ff5307" stroke="none" /><path d="M 81.69416730710424 110.29060199501025 l -13.243362467025081 7.444740401058151 a36.1924589541047,36.1924589541047 0 0,0 -0.3006104115025501,-0.5456952150736333 l 13.369549287979147 -7.215674667586695" fill="#ffbd11" stroke="none" /><path d="M 81.51974371655577 109.97397251340807 l -7.860146549100748 4.242196884592069 a29.931860846485634,29.931860846485634 0 0,0 -0.24080537210359457,-0.4555130141461087 l 7.932004429429229 -4.1062688553598345" fill="#ff6a09" stroke="none" /><path d="M 81.35079622478065 109.6543875284942 l -8.38501187729697 4.340783395912001 a30.441971439939678,30.441971439939678 0 0,0 -0.23689845081159142,-0.4674231180131285 l 8.458488997894827 -4.195806066196187" fill="#ff710a" stroke="none" /><path d="M 81.02952815118164 109.00673069616217 l -9.715567795668838 4.612721464877303 a31.754973589218025,31.754973589218025 0 0,0 -0.23018633437428085,-0.49580088590454596 l 9.793528746882945 -4.4448005116939315" fill="#ff820c" stroke="none" /><path d="M 80.87730276802145 108.67885076344099 l -30.97242899629164 14.056860587144042 a55.01303702254079,55.01303702254079 0 0,0 -0.3839357634124594,-0.8656737904136912 l 31.209805844435376 -13.521638460237655" fill="#65ff29" stroke="none" /><path d="M 80.73074385275274 108.34839909993369 l -6.972995548477072 3.021048104602821 a28.59930250545439,28.59930250545439 0 0,0 -0.1918182712608377,-0.45340173105930387 l 7.0239648009302185 -2.900571847877357" fill="#ff5708" stroke="none" /><path d="M 80.58989483394504 108.01547362559985 l -15.044055892163556 6.212497675518548 a37.27632467895822,37.27632467895822 0 0,0 -0.2398063816295273,-0.5951797728262631 l 15.14876488805047 -5.95261853484948" fill="#ffcb12" stroke="none" /><path d="M 80.32549172779594 107.34259656027581 l -7.054916479845404 2.632919957198142 a28.53021341255389,28.53021341255389 0 0,0 -0.16775186594255953,-0.4615810885143243 l 7.099192606793188 -2.5110910716777006" fill="#ff5608" stroke="none" /><path d="M 79.97269907076064 106.31721596034903 l -17.557680308883864 5.538222982012166 a39.41043322758745,39.41043322758745 0 0,0 -0.19850327235302695,-0.6487201793721677 l 17.650410353743023 -5.235175830087951" fill="#ffe615" stroke="none" /><path d="M 79.86692584326677 105.97154293290107 l -12.500207296688284 3.707606894070533 a34.03846353452501,34.03846353452501 0 0,0 -0.1617756804680687,-0.5631623666847677 l 12.562175614042458 -3.4918870518811693" fill="#ffa10e" stroke="none" /><path d="M 79.76711848015287 105.62410040840567 l -18.545813961107964 5.15514904639599 a40.24896821054533,40.24896821054533 0 0,0 -0.1798015777661953,-0.6691085586967085 l 18.631803615215933 -4.835149554523742" fill="#fff016" stroke="none" /><path d="M 79.67330655649465 105.27499134158121 l -10.170885260793078 2.63945200118329 a31.507788247522328,31.507788247522328 0 0,0 -0.13171558665331012,-0.5261382943127676 l 10.214812161741449 -2.4639858674731303" fill="#ff7f0b" stroke="none" /><path d="M 79.58551787078972 104.9243191809786 l -10.511670536125605 2.535593140082919 a31.813160963940504,31.813160963940504 0 0,0 -0.12382808443584052,-0.5334481468675379 l 10.553759186492 -2.354276335866807" fill="#ff830c" stroke="none" /><path d="M 79.50377843672027 104.57218783832718 l -32.01443435848865 7.14160934359957 a53.80131996293087,53.80131996293087 0 0,0 -0.19385374251852855,-0.9056201478126334 l 32.132622139731616 -6.589475376370772" fill="#72ff27" stroke="none" /><path d="M 79.07016306316243 101.71520430193888 l -4.421736384715731 0.3623621766376761 a25.436559365429087,25.436559365429087 0 0,0 -0.03200578257969366,-0.4366934745872424 l 4.42731872595976 -0.2861955655536728" fill="#ff2a04" stroke="none" /><line stroke="#e1ed5e" stroke-width="0.3" x1="15.007084014347285" x2="10.007500721073583" y1="101.09737516637583" y2="101.16192664675087" /><path d="M 14.007167355692545 101.11028546245083 a86.0,86.0 0 0,1 10.666146001902526,-42.60595125391555" fill="none" id="id58" stroke="none" /><text fill="#e1ed5e" style="font-size:6.75px; font-family:Arial;" text-anchor="middle"><textPath startOffset="22.20632615414155" xlink:href="#id58">October</textPath></text><path d="M 79.01574976396665 99.18683210126434 l -12.601625469576529 -0.48832992308455603 a33.61108364056236,33.61108364056236 0 0,0 0.027379255450099952,-0.5779328093796262 l 12.591352605892931 0.7051738390871912" fill="#ff9b0e" stroke="none" /><path d="M 79.03285615573316 98.82574320788736 l -8.0547725519343 -0.45110442548986485 a29.067394626897258,29.067394626897258 0 0,0 0.032277831606701904,-0.4993237684492329 l 8.045814129323185 0.5896872581921097" fill="#ff5e08" stroke="none" /><path d="M 79.05617556472873 98.46500227214037 l -42.46541031447819 -3.112340277049633 a63.57931111675172,63.57931111675172 0 0,0 0.08939104662489915,-1.090797188042021 l 42.4055447840338 3.8428513822994326" fill="#33ff56" stroke="none" /><path d="M 79.08570108090925 98.10471618934814 l -11.188643635757032 -1.0139309583381013 a32.234491639422,32.234491639422 0 0,0 0.054833747311062976,-0.5521683522858831 l 11.16953276276374 1.206374841328415" fill="#ff890c" stroke="none" /><path d="M 79.12142395522702 97.74499172005258 l -24.992282977843814 -2.6993126796085405 a46.137631101337234,46.137631101337234 0 0,0 0.09207675393846099,-0.7888573974187019 l 24.942115870901763 3.1291138153521043" fill="#c7ff1e" stroke="none" /><path d="M 79.16333360222342 97.38593545837743 l -16.09134262846276 -2.0187398209078498 a37.217478782199834,37.217478782199834 0 0,0 0.08521739451563548,-0.6349685715361855 l 16.05420923488929 2.295426734508695" fill="#ffca12" stroke="none" /><path d="M 79.21141760316559 97.0276538004421 l -9.578593881373966 -1.3695449058010756 a30.676007130697066,30.676007130697066 0 0,0 0.07923774284067889,-0.5220777227036982 l 9.553600245093985 1.5342217408968652" fill="#ff740a" stroke="none" /><path d="M 79.32604984820605 96.31383870115002 l -7.695840086504116 -1.372166793511795 a28.817211545446376,28.817211545446376 0 0,0 0.09127409356579731,-0.4875898575474176 l 7.671080269028457 1.5044347285217847" fill="#ff5a08" stroke="none" /><path d="M 79.3925641242962 95.95851677861259 l -15.490424116665505 -3.037946571193221 a36.78551103650423,36.78551103650423 0 0,0 0.1272090338856036,-0.6203164265950466 l 15.435835786864907 3.30413865395167" fill="#ffc512" stroke="none" /><path d="M 79.46518482838121 95.60439243477599 l -9.322008957211725 -1.9954352037236096 a30.533184811519973,30.533184811519973 0 0,0 0.11443490606527405,-0.5129892454604695 l 9.286279664144413 2.1556026187340382" fill="#ff720a" stroke="none" /><path d="M 79.54389044137918 95.25157060432595 l -26.672629076864176 -6.191455692273447 a48.38180537257114,48.38180537257114 0 0,0 0.19529476951233918,-0.809622901281059 l 26.562101507091022 6.649663825213903" fill="#adff20" stroke="none" /><path d="M 79.71946130924805 94.55025226153421 l -13.371492622099916 -3.593162035209189 a34.84585238813924,34.84585238813924 0 0,0 0.16064473819350716,-0.5779245956914735 l 13.30766111334005 3.822797934319605" fill="#ffac0f" stroke="none" /><path d="M 79.81627453868168 94.20196356495316 l -8.782026392660438 -2.5227507724365594 a30.137190980887603,30.137190980887603 0 0,0 0.1475202624025475,-0.4973649885706135 l 8.737300233146183 2.673545147753712" fill="#ff6c0a" stroke="none" /><path d="M 79.91906864156998 93.8553929516997 l -7.315468115322515 -2.238475703177805 a28.65028412675096,28.65028412675096 0 0,0 0.14836006129843055,-0.47034193735873014 l 7.27585257025588 2.3640678069629497" fill="#ff5808" stroke="none" /><path d="M 80.02781315780177 93.51064311812611 l -14.507682571513788 -4.713831814179686 a36.25428018518663,36.25428018518663 0 0,0 0.19795304182809084,-0.591854399127251 l 14.424392235913924 4.962859316229259" fill="#ffbe11" stroke="none" /><path d="M 80.2630227832202 92.82701384747504 l -13.504058944090804 -4.907764078812069 a35.36822035670239,35.36822035670239 0 0,0 0.2128752745690719,-0.5703999009172834 l 13.417579081020104 5.139487116758694" fill="#ffb210" stroke="none" /><path d="M 80.38941819471856 92.48833698450439 l -7.796990467137533 -2.986569470794361 a29.3494106108464,29.3494106108464 0 0,0 0.18477054237736337,-0.4702208764639101 l 7.744426374878479 3.120339352154035" fill="#ff6109" stroke="none" /><path d="M 80.65960295795067 91.81776055985345 l -6.010778959843486 -2.542948449522784 a27.52656498634829,27.52656498634829 0 0,0 0.18837252926940454,-0.4347897691697298 l 5.966115720731403 2.646037363279112" fill="#ff4806" stroke="none" /><path d="M 80.95270993114464 91.15688171328213 l -23.523820994368258 -10.921445037943755 a46.935460587618394,46.935460587618394 0 0,0 0.3465218372558877,-0.729863363347225 l 23.332340963270617 11.324750816931513" fill="#beff1f" stroke="none" /><path d="M 81.43458229118936 90.18545643968196 l -16.012749764298416 -8.465084521507777 a39.11258708661768,39.11258708661768 0 0,0 0.3197768772087787,-0.5924979877770401 l 15.864664787871163 8.739463492617288" fill="#ffe215" stroke="none" /><path d="M 81.6062741919709 89.86733742301443 l -8.69835863689372 -4.791717238862993 a30.930860842507077,30.930860842507077 0 0,0 0.26091264983320817,-0.4641344906374479 l 8.614588345768084 4.940735239435226" fill="#ff770b" stroke="none" /><line stroke="#e1ed5e" stroke-width="0.3" x1="26.266209847984243" x2="21.928928074336255" y1="57.71137044288968" y2="55.22380399835378" /><path d="M 25.398753493254645 57.2138571539825 a86.0,86.0 0 0,1 29.58750427330803,-30.4925239686951" fill="none" id="id59" stroke="none" /><text fill="#e1ed5e" style="font-size:6.75px; font-family:Arial;" text-anchor="middle"><textPath startOffset="21.46611528233685" xlink:href="#id59">November</textPath></text><path d="M 81.78341655067845 89.55222093294921 l -11.819197848660897 -6.778678791009521 a34.62512106138777,34.62512106138777 0 0,0 0.30097527952619674,-0.5144643152805662 l 11.700762894664376 6.981122518643978" fill="#ffa90f" stroke="none" /><path d="M 81.96595687620814 89.24020034530311 l -17.483274435180864 -10.43118999657113 a41.358649506301106,41.358649506301106 0 0,0 0.3700303260215015,-0.6082325630561477 l 17.301128310873143 10.730590332834351" fill="#fffe18" stroke="none" /><path d="M 82.15384107792192 88.93136811851018 l -53.53847676623425 -33.20589564446946 a84.0,84.0 0 0,0 0.7726896150161493,-1.222209409143138 l 52.95895955497213 34.12255270132681" fill="#4dd2ff" stroke="none" /><path d="M 82.95767976084542 87.72973835380427 l -4.082518889431502 -2.9393635517874737 a26.030588292848233,26.030588292848233 0 0,0 0.26493856840221813,-0.3613759095566741 l 4.03131770851565 3.009201905015651" fill="#ff3304" stroke="none" /><path d="M 83.17141714833178 87.43820079747577 l -16.631350718840952 -12.41457406356275 a41.753878575167015,41.753878575167015 0 0,0 0.4348846587309586,-0.5722572342832427 l 16.415190119885885 12.69901607372702" fill="#fbff18" stroke="none" /><path d="M 83.39014120810768 87.1503855733568 l -10.579524281567746 -8.184464993875324 a34.3757916124711,34.3757916124711 0 0,0 0.3660955009752932,-0.46490410865842374 l 10.437074699998483 8.365361496486793" fill="#ffa50f" stroke="none" /><path d="M 83.6137871275137 86.86637796730984 l -11.581996502437693 -9.283021380880896 a35.84308353881938,35.84308353881938 0 0,0 0.3900094589167648,-0.4781054813944414 l 11.420488551444535 9.481011031883419" fill="#ffb911" stroke="none" /><path d="M 84.31358615837235 86.03803664274999 l -10.176374291932765 -9.057657563297054 a34.623500073896665,34.623500073896665 0 0,0 0.4000767846219934,-0.44177477808442533 l 10.018953866694726 9.231485128651036" fill="#ffa90f" stroke="none" /><path d="M 84.80347519578584 85.50635884689758 l -4.38328486545325 -4.18054513977345 a27.057238964858076,27.057238964858076 0 0,0 0.3243463796656803,-0.33426745509716943 l 4.310674222084454 4.255376790420741" fill="#ff4106" stroke="none" /><path d="M 85.05521093208273 85.24692304244772 l -18.253238459464107 -18.019085481449082 a46.64894063788656,46.64894063788656 0 0,0 0.5690375500736532,-0.5665939219940939 l 17.94036510922314 18.33061525409329" fill="#c1ff1e" stroke="none" /><path d="M 86.10567301691215 84.25364557470407 l -3.367226657555196 -3.816057045778933 a26.08925404553451,26.08925404553451 0 0,0 0.33929224135786795,-0.2942308882642786 l 3.3010406175505547 3.87345292746289" fill="#ff3404" stroke="none" /><path d="M 86.37877921826538 84.01681056812373 l -6.644813475680453 -7.7970480196386545 a31.24438890061948,31.24438890061948 0 0,0 0.4123403283869103,-0.3453231667510189 l 6.509615610334433 7.910272343783486" fill="#ff7b0b" stroke="none" /><path d="M 86.65592168130627 83.78471172551755 l -3.000888194138044 -3.646581351315305 a25.72259309124528,25.72259309124528 0 0,0 0.3443111189551099,-0.27840897962836647 l 2.937673676618434 3.697696428207808" fill="#ff2e04" stroke="none" /><path d="M 86.93701828274178 83.55741782278169 l -4.587150076409157 -5.7739185220586515 a28.37428511266499,28.37428511266499 0 0,0 0.3850355965587662,-0.30052639044754786 l 4.487081924690965 5.852023301729421" fill="#ff5407" stroke="none" /><path d="M 87.22198572758235 83.33499621200491 l -15.296058907956073 -19.949021358719627 a46.13827502606959,46.13827502606959 0 0,0 0.6344097320348008,-0.47782425747554674 l 14.950403022162883 20.209362205701026" fill="#c7ff1e" stroke="none" /><path d="M 87.80319425747018 82.90503203632743 l -10.516992988330927 -14.740552731997123 a39.107761771168455,39.107761771168455 0 0,0 0.5513614505249305,-0.3862639312817705 l 10.261700398222336 14.919401506042837" fill="#ffe215" stroke="none" /><path d="M 88.39885842347998 82.49532879139004 l -12.303117464450713 -18.56386499859599 a43.27069336662353,43.27069336662353 0 0,0 0.6244022336792355,-0.40612858166306526 l 11.981748204987188 18.77289250441859" fill="#e9ff1a" stroke="none" /><path d="M 89.00827224532344 82.1063720568725 l -12.866053070440934 -20.94487526231291 a45.58095037554996,45.58095037554996 0 0,0 0.6720757759105364,-0.4049181350789175 l 12.50361522831275 21.163240006850444" fill="#cdff1d" stroke="none" /><line stroke="#e1ed5e" stroke-width="0.3" x1="56.76296977257108" x2="54.21961505331056" y1="26.818313649435495" y2="22.513508569990535" /><path d="M 56.25429882871898 25.957352633546506 a86.0,86.0 0 0,1 42.26535254187918,-11.944610805530505" fill="none" id="id60" stroke="none" /><text fill="#e1ed5e" style="font-size:6.75px; font-family:Arial;" text-anchor="middle"><textPath startOffset="22.20632615414155" xlink:href="#id60">December</textPath></text><path d="M 89.3179101791058 81.91981866633112 l -7.516343879788243 -12.721935743974836 a35.77643645785596,35.77643645785596 0 0,0 0.532904105941148,-0.30869245474107837 l 7.296243041381773 12.849432356105961" fill="#ffb811" stroke="none" /><path d="M 89.94658935756843 81.56283822128135 l -8.36244523467223 -15.336064659150935 a38.467838147079064,38.467838147079064 0 0,0 0.5840790829782677,-0.31199481818738517 l 8.097221105165659 15.477738203840069" fill="#ffda14" stroke="none" /><path d="M 90.26544431104013 81.39251694778311 l -7.519286314697559 -14.373022984929989 a37.22108061775552,37.22108061775552 0 0,0 0.5702615394940921,-0.2921101096072355 l 7.270764287614702 14.500325619849729" fill="#ffca12" stroke="none" /><path d="M 90.58718382345135 81.22770947309562 l -2.083935152960091 -4.1560607789261885 a25.649260900387432,25.649260900387432 0 0,0 0.39637724486294207,-0.19450059260677008 l 2.012086641086724 4.1913165316677885" fill="#ff2d04" stroke="none" /><path d="M 91.23893434514133 80.91482961587045 l -10.050649187255482 -21.894408713112007 a45.09109134061955,45.09109134061955 0 0,0 0.7081832486659196,-0.317741180630185 l 9.672283820122788 22.06417022425872" fill="#d3ff1c" stroke="none" /><path d="M 91.56875222667455 80.76684994638697 l -13.985535919380027 -31.90345227056915 a55.83425730129398,55.83425730129398 0 0,0 0.8835538368064314,-0.37829164212739813 l 13.434298324783288 32.139463440659334" fill="#5cff2a" stroke="none" /><path d="M 91.90106846888425 80.62456947434976 l -2.0249584439696933 -4.844397251381435 a26.25058486542177,26.25058486542177 0 0,0 0.41840448510456185,-0.1706776949851188 l 1.941270089276751 4.8785358325501305" fill="#ff3605" stroke="none" /><path d="M 92.23578459929587 80.48803036053334 l -8.236316721999406 -20.69839043956837 a43.27690014193856,43.27690014193856 0 0,0 0.6945259006886257,-0.2694652593599284 l 7.878807656311103 20.83709840281885" fill="#e9ff1a" stroke="none" /><path d="M 92.57280143429618 80.3572730644239 l -3.728972839621118 -9.862021944194034 a31.54346789564025,31.54346789564025 0 0,0 0.5095286579346069,-0.18766370480654637 l 3.5586618559139427 9.924748916806903" fill="#ff800b" stroke="none" /><path d="M 93.25333710446033 80.11325718540243 l -3.9545315304483415 -11.65654082853838 a33.30907241479602,33.30907241479602 0 0,0 0.5445512731033803,-0.1795299930957298 l 3.753297435102552 11.722884545893342" fill="#ff970e" stroke="none" /><path d="M 93.94186890950719 79.89281104454417 l -2.747518164192578 -9.119127014709958 a30.52403977170303,30.52403977170303 0 0,0 0.5043876378752522,-0.1472445827155055 l 2.5901403085939045 9.165069926344163" fill="#ff720a" stroke="none" /><path d="M 95.33964822691252 79.52364482259891 l -2.502939776901431 -10.997256506567293 a32.2784909539367,32.2784909539367 0 0,0 0.5428278063679763,-0.11864113349897791 l 2.3132692463799343 11.038711138162139" fill="#ff890c" stroke="none" /><path d="M 95.692805502759 79.44645832069477 l -5.026622770742354 -23.986588181884184 a45.50761818469211,45.50761818469211 0 0,0 0.7680680242761457,-0.15406722006097132 l 4.612988336999072 24.069559358022367" fill="#ceff1d" stroke="none" /><path d="M 96.40284397218896 79.31037775812273 l -6.053958536988214 -34.82031755917317 a56.34267857547353,56.34267857547353 0 0,0 0.9569422807512258,-0.15790367572181097 l 5.453687050098102 34.91936749783461" fill="#57ff2a" stroke="none" /><path d="M 96.75951476605007 79.25152402106235 l -1.5905853421925304 -10.184345671189709 a31.307805706409017,31.307805706409017 0 0,0 0.5331734512059432,-0.07857590712116415 l 1.415042910557938 10.210216062471842" fill="#ff7c0b" stroke="none" /><path d="M 97.11714578562143 79.19881850522333 l -1.8290957701627328 -13.197806845978459 a34.32395199931999,34.32395199931999 0 0,0 0.585934821483786,-0.07607115627057309 l 1.6016462201710897 13.22733632541317" fill="#ffa50f" stroke="none" /><path d="M 97.83486435360386 79.11191278185805 l -2.0327321929432247 -19.61072850470004 a40.71579754038072,40.71579754038072 0 0,0 0.6977424983459127,-0.06625905764631726 l 1.6948645675070755 19.64281310686154" fill="#fff617" stroke="none" /><path d="M 98.55514903715128 79.0497635885617 l -1.3914770615962933 -20.17631863154886 a41.22424391503263,41.22424391503263 0 0,0 0.7083462720207628,-0.04272938153805037 l 1.0439687407359075 20.19728128246722" fill="#fffd17" stroke="none" /><path d="M 99.27714615592234 79.0124445844662 l -0.2907892446513228 -8.44286218626675 a29.447868386823853,29.447868386823853 0 0,0 0.5067464421564231,-0.013087765553269688 l 0.14541616730002066 8.446616743962378" fill="#ff6309" stroke="none" /></svg>