<?xml version="1.0" encoding="utf-8" ?>
<svg baseProfile="full" height="200mm" version="1.1" viewBox="0,0,200,200" width="200mm" xmlns="http://www.w3.org/2000/svg" xmlns:ev="http://www.w3.org/2001/xml-events" xmlns:xlink="http://www.w3.org/1999/xlink"><defs /><rect fill="#1a1a1a" height="200" width="200" x="0" y="0" /><text alignment-baseline="middle" fill="#e1ed5e" style="dominant-baseline: central; font-size:9.0px; font-family:Arial;" text-anchor="middle" x="100.0" y="100.0">2018</text><line stroke="#e1ed5e" stroke-width="0.3" x1="100.0" x2="100.0" y1="15.0" y2="10.0" /><path d="M 100.0 14.0 a86.0,86.0 0 0,1 42.46469731375804,11.215312516191453" fill="none" id="id37" stroke="none" /><text fill="#e1ed5e" style="font-size:6.75px; font-family:Arial;" text-anchor="middle"><textPath startOffset="22.20632615414155" xlink:href="#id37">January</textPath></text><line stroke="#e1ed5e" stroke-width="0.3" x1="143.23703022742887" x2="145.7803849466894" y1="26.81831364943548" y2="22.513508569990506" /><path d="M 143.74570117128098 25.957352633546492 a86.0,86.0 0 0,1 28.547481713284135,27.462654790039103" fill="none" id="id38" stroke="none" /><text fill="#e1ed5e" style="font-size:6.75px; font-family:Arial;" text-anchor="middle"><textPath startOffset="19.985693538727396" xlink:href="#id38">February</textPath></text><line stroke="#e1ed5e" stroke-width="0.3" x1="172.23445277983987" x2="176.4835382374775" y1="55.19839476539836" y2="52.563006222186495" /><path d="M 173.08426987136738 54.67131705675599 a86.0,86.0 0 0,1 12.851231095245387,41.99856678651699" fill="none" id="id39" stroke="none" /><text fill="#e1ed5e" style="font-size:6.75px; font-family:Arial;" text-anchor="middle"><textPath startOffset="22.20632615414155" xlink:href="#id39">March</textPath></text><path d="M 120.78858239683441 97.02765380044208 l 8.66095176993936 -1.2383406711683094 a29.74903269962373,29.74903269962373 0 0,0 0.06811678649319854,0.5075491789330335 l -8.680984555490394 1.0890731501706115" fill="#ff6709" stroke="none" /><path d="M 120.96714384426684 98.82574320788733 l 7.335465504338521 -0.4108199121328097 a28.346960403156206,28.346960403156206 0 0,0 0.023091152859331086,0.48741774107511043 l -7.341450265431349 0.28449106443469957" fill="#ff5407" stroke="none" /><line stroke="#e1ed5e" stroke-width="0.3" x1="184.98032266829074" x2="189.97916517819016" y1="98.17113171792111" y2="98.06355123074" /><path d="M 185.9800911702706 98.14961562048488 a86.0,86.0 0 0,1 -9.607161424134198,41.387399972396054" fill="none" id="id40" stroke="none" /><text fill="#e1ed5e" style="font-size:6.75px; font-family:Arial;" text-anchor="middle"><textPath startOffset="21.466115282336823" xlink:href="#id40">April</textPath></text><path d="M 120.92983693683757 101.71520430193887 l 8.445807510439156 0.6921356061669199 a29.474120379172962,29.474120379172962 0 0,0 -0.04579071794040949,0.5052967567934348 l -8.432642196221671 -0.8374137515089252" fill="#ff6309" stroke="none" /><path d="M 120.81339534386255 102.79330883721812 l 11.821270563764028 1.5865003757133496 a32.927255391910265,32.927255391910265 0 0,0 -0.08022639378789614,0.5611032112977414 l -11.792210118959531 -1.7897490589915002" fill="#ff920d" stroke="none" /><path d="M 120.32669344350535 105.2749913415812 l 11.156107073629 2.895127453105201 a32.525644797927725,32.525644797927725 0 0,0 -0.14529968127226983,0.540714166822292 l -11.104619316014954 -3.086732553103041" fill="#ff8d0d" stroke="none" /><path d="M 119.9155931802556 106.66101706037122 l 8.472917868161133 2.833872431522581 a29.934269425014442,29.934269425014442 0 0,0 -0.16764497873320958,0.4872547810737757 l -8.422882058484692 -2.979299915685657" fill="#ff6a09" stroke="none" /><path d="M 119.41010516605496 108.01547362559984 l 12.192424605181225 5.034906149084378 a34.191114345767616,34.191114345767616 0 0,0 -0.22932309083537805,0.5420520457889108 l -12.103950533153537 -5.244032720539453" fill="#ffa30f" stroke="none" /><path d="M 119.12269723197855 108.67885076344098 l 10.80101060338728 4.902046922773088 a32.86136139267131,32.86136139267131 0 0,0 -0.23820634900781731,0.5130752839311954 l -10.715029637539631 -5.087242273983113" fill="#ff910d" stroke="none" /><path d="M 118.81262510543309 109.33194174019688 l 1.357353781311295 0.6733109460824146 a22.515175540244254,22.515175540244254 0 0,0 -0.17521237794201783,0.34571064408220353 l -1.345562733583008 -0.6965758018673125" fill="#ff0000" stroke="none" /><line stroke="#e1ed5e" stroke-width="0.3" x1="174.80103733775053" x2="179.2010983576182" y1="140.37084112569926" y2="142.7455964860345" /><path d="M 175.68104954172406 140.8457921977663 a86.0,86.0 0 0,1 -30.038265399797805,32.042727171017184" fill="none" id="id41" stroke="none" /><text fill="#e1ed5e" style="font-size:6.75px; font-family:Arial;" text-anchor="middle"><textPath startOffset="22.206326154141568" xlink:href="#id41">May</textPath></text><path d="M 118.12598468904814 110.60418214915192 l 1.5020067584515684 0.8787138204690874 a22.740161567417683,22.740161567417683 0 0,0 -0.2005672767618063,0.3361622924609921 l -1.486658605991535 -0.9044382068161837" fill="#ff0300" stroke="none" /><path d="M 116.498646956653 112.99209946851258 l 9.215458076185376 7.256846472821101 a32.72972669263979,32.72972669263979 0 0,0 -0.3523621404069516,0.4396259483135559 l -9.08917802372357 -7.414400254712906" fill="#ff900d" stroke="none" /><path d="M 116.0416608686014 113.55231037782055 l 11.237360328477283 9.493542859830407 a35.71073156520341,35.71073156520341 0 0,0 -0.40073816104987675,0.46614901560559746 l -11.072279657856628 -9.685568974597533" fill="#ffb711" stroke="none" /><path d="M 115.56566222782051 114.09645910891815 l 10.879818650496155 9.852900344005372 a35.67821852462298,35.67821852462298 0 0,0 -0.4161670373295224,0.45166712503308526 l -10.70860520517091 -10.038718723839793" fill="#ffb710" stroke="none" /><path d="M 114.81725581225074 114.88116024355365 l 6.0995852597155364 6.125891785845934 a29.64473773531816,29.64473773531816 0 0,0 -0.364700924082216,0.3569366135839306 l -5.993234383257526 -6.229978502352437" fill="#ff6609" stroke="none" /><path d="M 114.55890576462653 115.13401014063108 l 8.044898690172744 8.362687438587676 a32.60409135308126,32.60409135308126 0 0,0 -0.4078060214620463,0.3856060472608185 l -7.8997568343198905 -8.499928122594415" fill="#ff8e0d" stroke="none" /><path d="M 113.75828350139079 115.86535959552629 l 7.672977547781 8.84809125728796 a32.71167380633729,32.71167380633729 0 0,0 -0.4285767039558903,0.3652423648842378 l -7.519535367248062 -8.978858012395143" fill="#ff8f0d" stroke="none" /><path d="M 113.20401910651253 116.32954008644616 l 8.412651908316631 10.404009223405152 a34.37969058129533,34.37969058129533 0 0,0 -0.4633768486538809,0.3681345932728912 l -8.2323175669454 -10.54727773068317" fill="#ffa60f" stroke="none" /><path d="M 112.04921762599082 117.19931262002967 l 8.155423213066012 11.641226654218956 a35.21369360156303,35.21369360156303 0 0,0 -0.49943600982022734,0.3435166416550304 l -7.9538303186229005 -11.779884085239079" fill="#ffb110" stroke="none" /><line stroke="#e1ed5e" stroke-width="0.3" x1="143.8653032363475" x2="146.44561519142675" y1="172.8068346515853" y2="177.08958963109032" /><path d="M 144.38136562736335 173.6633856474863 a86.0,86.0 0 0,1 -40.68145358897372,12.25698825130547" fill="none" id="id42" stroke="none" /><text fill="#e1ed5e" style="font-size:6.75px; font-family:Arial;" text-anchor="middle"><textPath startOffset="21.466115282336833" xlink:href="#id42">June</textPath></text><path d="M 110.5260780823613 118.17145234162733 l 7.379574081161682 12.739557665076331 a35.72258275986786,35.72258275986786 0 0,0 -0.5347351399678084,0.3036365682036094 l -7.159190174272674 -12.864697399074569" fill="#ffb711" stroke="none" /><path d="M 109.89434966115114 118.52300852407294 l 7.578169502227033 14.186935280624565 a37.0840848561898,37.0840848561898 0 0,0 -0.5656366548055717,0.2959143641550073 l -7.332841944894965 -14.31527906372429" fill="#ffc912" stroke="none" /><path d="M 109.2508944713604 118.85261126421891 l 8.264068489921018 16.84153583025906 a39.759854933554394,39.759854933554394 0 0,0 -0.6170110973806584,0.29620282244535495 l -7.972944724540127 -16.981292929203974" fill="#ffeb16" stroke="none" /><path d="M 108.59647513512805 119.15986991738527 l 3.091572801099722 6.890514051177416 a28.552284837979364,28.552284837979364 0 0,0 -0.45014624767323114,0.197330886401148 l -2.972505878768737 -6.9427094908730185" fill="#ff5708" stroke="none" /><path d="M 107.93186726928326 119.44442032107085 l 5.625085264642718 13.789504856081447 a35.89268372088773,35.89268372088773 0 0,0 -0.5740759993400665,0.22843668771578884 l -5.386888189260785 -13.884288388203304" fill="#ffb911" stroke="none" /><path d="M 106.57524785965236 119.94407469862006 l 2.820127582021877 8.554025088638525 a30.006912056633944,30.006912056633944 0 0,0 -0.49193996765868464,0.15750364269215664 l -2.672466269272252 -8.60130157799039" fill="#ff6b09" stroke="none" /><path d="M 105.88484417918355 120.15858648285463 l 6.1579315663520084 21.094049775338256 a42.974509257326375,42.974509257326375 0 0,0 -0.7118805874582825,0.20118456479870192 l -5.79391981078912 -21.19692313347548" fill="#ecff1a" stroke="none" /><path d="M 105.18746579009965 120.34920634021253 l 3.985351853321803 15.633596535011717 a37.133578958628675,37.133578958628675 0 0,0 -0.6207438532931051,0.15256373651652838 l -3.7156547152854866 -15.699881529842276" fill="#ffc912" stroke="none" /><path d="M 104.48393922423573 120.51570834832081 l 3.11589269833764 14.256380973730334 a35.59291560229463,35.59291560229463 0 0,0 -0.5996703548912072,0.12566675335310123 l -2.870030882017055 -14.307903707809977" fill="#ffb510" stroke="none" /><path d="M 103.41894727170886 120.7198165907248 l 3.152902777642171 19.10750944353713 a40.365890453581635,40.365890453581635 0 0,0 -0.6865356382631755,0.10722274737819468 l -2.8235312757704785 -19.15895049826243" fill="#fff216" stroke="none" /><path d="M 101.98527174616119 120.90594882070398 l 1.3801232196527276 14.533418637582558 a35.59880123149352,35.59880123149352 0 0,0 -0.6105290735767521,0.05267901744056661 l -1.1297498283344338 -14.555021907301787" fill="#ffb610" stroke="none" /><path d="M 101.62511606390274 120.93702456842531 l 0.7018773535570287 9.042568541322598 a30.069767232071246,30.069767232071246 0 0,0 -0.5163941827902075,0.035613566241503504 l -0.5461204099878908 -9.053310452080387" fill="#ff6c09" stroke="none" /><line stroke="#e1ed5e" stroke-width="0.3" x1="102.19456741930631" x2="102.32365962044197" y1="184.97166512339345" y2="189.96999836594603" /><path d="M 102.22038585953345 185.97133177190398 a86.0,86.0 0 0,1 -42.740103519485714,-10.115201625700543" fill="none" id="id43" stroke="none" /><text fill="#e1ed5e" style="font-size:6.75px; font-family:Arial;" text-anchor="middle"><textPath startOffset="22.20632615414155" xlink:href="#id43">July</textPath></text><path d="M 100.54218724476979 120.99299961872073 l 0.3815624128850705 14.7737514400868 a35.7786779343889,35.7786779343889 0 0,0 -0.615802687992185,0.010601601731826851 l -0.1272000350002176 -14.778130519097786" fill="#ffb811" stroke="none" /><path d="M 99.81925306533755 120.99922214144158 l -0.06619725794720673 7.690813276494845 a28.691098161567638,28.691098161567638 0 0,0 -0.49381521032556724,-0.008501476676010245 l 0.19857215816544188 -7.688534322539675" fill="#ff5908" stroke="none" /><path d="M 99.09653310690486 120.98055641714683 l -0.5054406685770552 11.737482074492183 a32.74835970331505,32.74835970331505 0 0,0 -0.5629785044182681,-0.029099558108799026 l 0.7074072414088122 -11.727042709621182" fill="#ff900d" stroke="none" /><path d="M 98.01472825383883 120.90594882070398 l -1.4140483101250385 14.890667566613814 a35.95765734340682,35.95765734340682 0 0,0 -0.6156762611006957,-0.06381736181143452 l 1.6701571678313274 -14.864120836346618" fill="#ffba11" stroke="none" /><path d="M 96.58105272829116 120.7198165907248 l -0.34277287730173506 2.07730350471804 a23.105393810223532,23.105393810223532 0 0,0 -0.39185760809783055,-0.06812946802671363 l 0.37847945687161555 -2.0710954581703205" fill="#ff0901" stroke="none" /><path d="M 95.51606077576429 120.51570834832081 l -3.5837820765345514 16.3971508509138 a37.7842202678502,37.7842202678502 0 0,0 -0.6341988721580482,-0.14434159852891024 l 3.865501098085462 -16.333032518807205" fill="#ffd213" stroke="none" /><path d="M 94.46302465271185 120.25689768951611 l -2.779057425213239 10.167118039166699 a31.540087731844633,31.540087731844633 0 0,0 -0.5224673084359424,-0.14765448014888308 l 2.953655901753795 -10.117774765679295" fill="#ff800b" stroke="none" /><path d="M 93.42475214034765 119.94407469862007 l -6.7784165188885765 20.5603268921062 a42.64887924151749,42.64887924151749 0 0,0 -0.6952382009846042,-0.2358625451072612 l 7.131324452810406 -20.440601360100814" fill="#f0ff19" stroke="none" /><path d="M 90.7491055286396 118.85261126421891 l -4.0849123886268055 8.32473719699109 a30.272958461123604,30.272958461123604 0 0,0 -0.4658375347425812,-0.23358061054851756 l 4.227603831052146 -8.253188745533272" fill="#ff6e0a" stroke="none" /><line stroke="#e1ed5e" stroke-width="0.3" x1="58.666819895761336" x2="56.23545636021788" y1="174.27360380694188" y2="178.64263932499728" /><path d="M 58.180547188652646 175.14741091055294 a86.0,86.0 0 0,1 -31.652253787137756,-30.449443065178592" fill="none" id="id44" stroke="none" /><text fill="#e1ed5e" style="font-size:6.75px; font-family:Arial;" text-anchor="middle"><textPath startOffset="22.20632615414155" xlink:href="#id44">August</textPath></text><path d="M 88.54995079064634 117.60387380957326 l -8.097753979399599 12.449888781077732 a35.851712028318055,35.851712028318055 0 0,0 -0.5144299013152892,-0.34093608758663324 l 8.31085857945485 -12.30865467239978" fill="#ffb911" stroke="none" /><path d="M 87.36589467227662 116.77436683061367 l -7.0093613873325396 9.306365279498765 a32.65073310026835,32.65073310026835 0 0,0 -0.4460265390520848,-0.34199413059780986 l 7.168516654878111 -9.184331807073589" fill="#ff8f0d" stroke="none" /><path d="M 86.79598089348748 116.32954008644616 l -3.8234536459540074 4.728502668515544 a27.080915660401615,27.080915660401615 0 0,0 -0.35995678605619175,-0.2962199291910127 l 3.904280560554888 -4.66198762046735" fill="#ff4206" stroke="none" /><path d="M 85.97065885151581 115.62618273729859 l -5.867149576991649 6.5349577337094935 a29.78231841486989,29.78231841486989 0 0,0 -0.3785197239452555,-0.34576879320795717 l 5.978768850403759 -6.43299617391496" fill="#ff6809" stroke="none" /><path d="M 85.70375840098266 115.38237550388516 l -9.93936079410089 10.69448770465401 a35.60010137842562,35.60010137842562 0 0,0 -0.44527956781745204,-0.42103962432068426 l 10.12197619630916 -10.521813443587396" fill="#ffb610" stroke="none" /><path d="M 84.67929136418377 114.36230785411682 l -21.193425876453293 19.867651957654452 a50.049696981056634,50.049696981056634 0 0,0 -0.5838025263921496,-0.6336023399993743 l 21.532274810841173 -19.499898362853735" fill="#9aff22" stroke="none" /><path d="M 83.95833913139862 113.55231037782056 l -8.993902012554841 7.598225182557122 a32.77383961740108,32.77383961740108 0 0,0 -0.3603624126907429,-0.434079740511388 l 9.12336042513912 -7.442284184931973" fill="#ff900d" stroke="none" /><path d="M 83.72743513129214 113.27417163493432 l -14.573779158896444 11.888405268971086 a39.8076904167307,39.8076904167307 0 0,0 -0.4285621793184847,-0.5346972131472943 l 14.77625925026979 -11.63578022224553" fill="#ffeb16" stroke="none" /><path d="M 83.28015986056508 112.70617746262583 l -24.588004614526525 18.685558443060316 a51.88235847944584,51.88235847944584 0 0,0 -0.534236927546042,-0.7156976681988811 l 24.906002808767653 -18.259547895352128" fill="#86ff25" stroke="none" /><path d="M 82.6465618267979 111.8261652097733 l -7.270400823613635 4.954693152052259 a29.798165284137106,29.798165284137106 0 0,0 -0.2852066041223495,-0.4263451758227056 l 7.354610533146714 -4.828811062023732" fill="#ff6809" stroke="none" /><path d="M 82.44556493220864 111.52570212397912 l -12.24650623686817 8.04067931554085 a35.65023681941754,35.65023681941754 0 0,0 -0.3323877613665969,-0.5158731870050514 l 12.383098861611813 -7.82868452861435" fill="#ffb610" stroke="none" /><path d="M 82.05923443525364 110.91462005526583 l -26.650798938337655 16.213541363743346 a52.19525617150011,52.19525617150011 0 0,0 -0.4603599828948433,-0.7715898111885015 l 26.92593979693073 -15.752389458668732" fill="#83ff25" stroke="none" /><line stroke="#e1ed5e" stroke-width="0.3" x1="26.63291911575756" x2="22.317208475507996" y1="142.92168965132927" y2="145.44649492493687" /><path d="M 25.769776987707644 143.4266507060508 a86.0,86.0 0 0,1 -11.730757126820373,-40.83630448921669" fill="none" id="id45" stroke="none" /><text fill="#e1ed5e" style="font-size:6.75px; font-family:Arial;" text-anchor="middle"><textPath startOffset="21.46611528233685" xlink:href="#id45">September</textPath></text><path d="M 80.87730276802145 108.67885076344099 l -7.9796798946475125 3.6215838229067048 a29.763056579035723,29.763056579035723 0 0,0 -0.2077162517764295,-0.46834531226687465 l 8.040837231155221 -3.483690174147134" fill="#ff6709" stroke="none" /><path d="M 80.73074385275274 108.34839909993369 l -8.890773713214307 3.8519248847971626 a30.689333441351998,30.689333441351998 0 0,0 -0.20583630967031247,-0.48653623299769183 l 8.955761004076926 -3.6983141261333117" fill="#ff740a" stroke="none" /><path d="M 80.58989483394504 108.01547362559985 l -13.81453692781942 5.704763340925126 a35.9460949851809,35.9460949851809 0 0,0 -0.23124873619778868,-0.5739403986720819 l 13.910688278274597 -5.466123574410239" fill="#ffba11" stroke="none" /><path d="M 79.76711848015287 105.62410040840567 l -60.698644559541364 16.872301225217015 a84.0,84.0 0 0,0 -0.3752476946329004,-1.3964362672978443 l 60.98008033051604 -15.824974024743632" fill="#4dd2ff" stroke="none" /><line stroke="#e1ed5e" stroke-width="0.3" x1="15.007084014347285" x2="10.007500721073583" y1="101.09737516637583" y2="101.16192664675087" /><path d="M 14.007167355692545 101.11028546245083 a86.0,86.0 0 0,1 10.666146001902534,-42.60595125391555" fill="none" id="id46" stroke="none" /><text fill="#e1ed5e" style="font-size:6.75px; font-family:Arial;" text-anchor="middle"><textPath startOffset="22.20632615414155" xlink:href="#id46">October</textPath></text><path d="M 79.08570108090925 98.10471618934814 l -3.879851051727614 -0.3515976755676783 a24.895749620940297,24.895749620940297 0 0,0 0.04234989213121682,-0.42645763429086325 l 3.873224033914169 0.4183308405629719" fill="#ff2303" stroke="none" /><path d="M 81.43458229118936 90.18545643968196 l -8.241396022593314 -4.356785369994012 a30.32213425999705,30.32213425999705 0 0,0 0.24790785080245667,-0.4593355968595715 l 8.165180072572385 4.498001950186056" fill="#ff6f0a" stroke="none" /><line stroke="#e1ed5e" stroke-width="0.3" x1="26.266209847984243" x2="21.928928074336255" y1="57.711370442889674" y2="55.22380399835377" /><path d="M 25.398753493254645 57.213857153982495 a86.0,86.0 0 0,1 29.58750427330803,-30.492523968695096" fill="none" id="id47" stroke="none" /><text fill="#e1ed5e" style="font-size:6.75px; font-family:Arial;" text-anchor="middle"><textPath startOffset="21.46611528233685" xlink:href="#id47">November</textPath></text><path d="M 81.78341655067845 89.55222093294921 l -9.73412471226469 -5.582824281391169 a32.2214576090102,32.2214576090102 0 0,0 0.28008168385663557,-0.47875038752273935 l 9.63658335393773 5.7495540812678" fill="#ff890c" stroke="none" /><path d="M 82.7489923806493 88.02491185347247 l -7.9000840727615005 -5.483981296847739 a30.61693190268475,30.61693190268475 0 0,0 0.30425558611496867,-0.43034794946756394 l 7.804515866842654 5.619155746647089" fill="#ff730a" stroke="none" /><path d="M 83.17141714833178 87.43820079747576 l -7.547881603770396 -5.634162659251565 a30.418827186833838,30.418827186833838 0 0,0 0.316825208377407,-0.41690483639118586 l 7.44978045516888 5.763252271523778" fill="#ff700a" stroke="none" /><path d="M 83.6137871275137 86.86637796730984 l -12.478287476130026 -10.001402557263162 a36.99173885008674,36.99173885008674 0 0,0 0.4025080051410054,-0.49342722122061966 l 12.304280978912628 10.214713948091864" fill="#ffc812" stroke="none" /><path d="M 85.05521093208273 85.24692304244772 l -6.331947969377606 -6.250721589907545 a29.897476354643572,29.897476354643572 0 0,0 0.3646982432097116,-0.36313211305264914 l 6.223413926000581 6.358789553610302" fill="#ff6909" stroke="none" /><path d="M 86.93701828274178 83.55741782278169 l -3.465762172062052 -4.362409789300819 a26.571546159109147,26.571546159109147 0 0,0 0.3605726483059386,-0.28143267131136057 l 3.390156968596688 4.4214208498354015" fill="#ff3b05" stroke="none" /><path d="M 88.70189139769569 82.29822771554957 l -4.066624491925774 -6.37154972184963 a28.558708925228743,28.558708925228743 0 0,0 0.41665911655552346,-0.26091190056268915 l 3.956346222998008 6.440605963735249" fill="#ff5708" stroke="none" /><line stroke="#e1ed5e" stroke-width="0.3" x1="56.762969772571076" x2="54.21961505331055" y1="26.818313649435495" y2="22.513508569990535" /><path d="M 56.25429882871897 25.957352633546506 a86.0,86.0 0 0,1 42.265352541879196,-11.944610805530505" fill="none" id="id48" stroke="none" /><text fill="#e1ed5e" style="font-size:6.75px; font-family:Arial;" text-anchor="middle"><textPath startOffset="22.20632615414155" xlink:href="#id48">December</textPath></text><path d="M 89.94658935756843 81.56283822128135 l -3.9912636250653106 -7.319662527884755 a29.337124495105595,29.337124495105595 0 0,0 0.44544226028000994,-0.2379398287991955 l 3.864676318256995 7.3872810831857" fill="#ff6109" stroke="none" /><path d="M 90.91171255644093 81.06846463323043 l -2.3111188444458817 -4.814221426440786 a26.340224551079704,26.340224551079704 0 0,0 0.4104331139225842,-0.19270385029386802 l 2.227907519223689 4.853290259374662" fill="#ff3705" stroke="none" /><path d="M 91.56875222667455 80.76684994638697 l -9.276575507596649 -21.161490388854542 a44.10548698092566,44.10548698092566 0 0,0 0.6979509378252238,-0.2988261670036806 l 8.910940811981117 21.31803608382101" fill="#dfff1b" stroke="none" /><path d="M 92.57280143429618 80.3572730644239 l -2.223233888373281 -5.879791121364369 a27.286072903911204,27.286072903911204 0 0,0 0.44075800901261286,-0.16233489442919607 l 2.1216935535880985 5.917189283599887" fill="#ff4506" stroke="none" /><path d="M 93.25333710446033 80.11325718540243 l -2.8669698491670017 -8.450798999499906 a29.923873589758053,29.923873589758053 0 0,0 0.48920856325764944,-0.16128437177915161 l 2.721078463666943 8.498897095538291" fill="#ff6a09" stroke="none" /><path d="M 93.94186890950719 79.89281104454417 l -2.5471330590122734 -8.454040519628599 a29.82942172103221,29.82942172103221 0 0,0 0.492909577945316,-0.1438938222728298 l 2.4012332633435363 8.496632670820128" fill="#ff6809" stroke="none" /><path d="M 94.28887869178378 79.79150937346287 l -6.3967349373816615 -22.634496983376913 a44.521026158516506,44.521026158516506 0 0,0 0.7392655140666938,-0.20206919091100822 l 6.006171534091245 22.741252715114218" fill="#daff1c" stroke="none" /><path d="M 94.98787191387505 79.60689891045804 l -1.928850473392922 -7.8480122643721515 a29.081569194806402,29.081569194806402 0 0,0 0.4871527232710926,-0.11529331032503583 l 1.7934740631592954 7.880051486838058" fill="#ff5e08" stroke="none" /><path d="M 95.692805502759 79.44645832069477 l -1.558308040568986 -7.43610470378045 a28.597629703722582,28.597629703722582 0 0,0 0.48266478936284124,-0.09681801607159647 l 1.4300768417390084 7.461826675929258" fill="#ff5708" stroke="none" /><path d="M 96.40284397218896 79.31037775812273 l -1.7397906163243209 -10.006685935616014 a31.156802390649602,31.156802390649602 0 0,0 0.5291772115641361,-0.08731877407339489 l 1.567284198621299 10.035150972629035" fill="#ff7a0b" stroke="none" /><path d="M 96.75951476605007 79.25152402106235 l -4.819832091162535 -30.860862848031168 a52.23497458158067,52.23497458158067 0 0,0 0.8895641531854434,-0.13109863238861355 l 4.287898957548443 30.939255964580752" fill="#82ff25" stroke="none" /><path d="M 98.19473922651362 79.07773832637324 l -0.6824203883041694 -7.908983646691713 a28.93837010412151,28.93837010412151 0 0,0 0.4966510709232916,-0.03854968173124016 l 0.5461791280185436 7.919558590611415" fill="#ff5c08" stroke="none" /><path d="M 99.27714615592234 79.0124445844662 l -0.35145787788676924 -10.204333488447208 a31.21038415454452,31.21038415454452 0 0,0 0.5370762637518183,-0.013871095363389001 l 0.17575497894007194 10.208871375952956" fill="#ff7b0b" stroke="none" /></svg>