<?xml version="1.0" encoding="utf-8" ?>
<svg baseProfile="full" height="200mm" version="1.1" viewBox="0,0,200,200" width="200mm" xmlns="http://www.w3.org/2000/svg" xmlns:ev="http://www.w3.org/2001/xml-events" xmlns:xlink="http://www.w3.org/1999/xlink"><defs /><rect fill="#1a1a1a" height="200" width="200" x="0" y="0" /><text alignment-baseline="middle" fill="#e1ed5e" style="dominant-baseline: central; font-size:9.0px; font-family:Arial;" text-anchor="middle" x="100.0" y="100.0">2019</text><line stroke="#e1ed5e" stroke-width="0.3" x1="100.0" x2="100.0" y1="15.0" y2="10.0" /><path d="M 100.0 14.0 a86.0,86.0 0 0,1 42.46469731375804,11.215312516191453" fill="none" id="id1" stroke="none" /><text fill="#e1ed5e" style="font-size:6.75px; font-family:Arial;" text-anchor="middle"><textPath startOffset="22.20632615414155" xlink:href="#id1">January</textPath></text><line stroke="#e1ed5e" stroke-width="0.3" x1="143.23703022742887" x2="145.7803849466894" y1="26.81831364943548" y2="22.513508569990506" /><path d="M 143.74570117128098 25.957352633546492 a86.0,86.0 0 0,1 28.547481713284135,27.462654790039103" fill="none" id="id2" stroke="none" /><text fill="#e1ed5e" style="font-size:6.75px; font-family:Arial;" text-anchor="middle"><textPath startOffset="19.985693538727396" xlink:href="#id2">February</textPath></text><line stroke="#e1ed5e" stroke-width="0.3" x1="172.23445277983987" x2="176.4835382374775" y1="55.19839476539836" y2="52.563006222186495" /><path d="M 173.08426987136738 54.67131705675599 a86.0,86.0 0 0,1 12.851231095245387,41.99856678651699" fill="none" id="id3" stroke="none" /><text fill="#e1ed5e" style="font-size:6.75px; font-family:Arial;" text-anchor="middle"><textPath startOffset="22.20632615414155" xlink:href="#id3">March</textPath></text><line stroke="#e1ed5e" stroke-width="0.3" x1="184.98032266829074" x2="189.97916517819016" y1="98.17113171792111" y2="98.06355123074" /><path d="M 185.9800911702706 98.14961562048488 a86.0,86.0 0 0,1 -9.607161424134198,41.387399972396054" fill="none" id="id4" stroke="none" /><text fill="#e1ed5e" style="font-size:6.75px; font-family:Arial;" text-anchor="middle"><textPath startOffset="21.466115282336823" xlink:href="#id4">April</textPath></text><line stroke="#e1ed5e" stroke-width="0.3" x1="174.80103733775053" x2="179.2010983576182" y1="140.37084112569926" y2="142.7455964860345" /><path d="M 175.68104954172406 140.8457921977663 a86.0,86.0 0 0,1 -30.038265399797805,32.042727171017184" fill="none" id="id5" stroke="none" /><text fill="#e1ed5e" style="font-size:6.75px; font-family:Arial;" text-anchor="middle"><textPath startOffset="22.206326154141568" xlink:href="#id5">May</textPath></text><path d="M 116.93607887273984 112.41649034213515 l 16.441486648015985 12.053885773053715 a41.38672718772473,41.38672718772473 0 0,0 -0.4261625458433043,0.5709143726450249 l -16.23156283547759 -12.335113025208054" fill="#ff0000" stroke="none" /><path d="M 116.27256486870786 113.27417163493432 l 15.80911956430145 12.896121059396288 a41.401916571170055,41.401916571170055 0 0,0 -0.4552318165884266,0.5483560489612282 l -15.58479174781948 -13.166338365471287" fill="#ff0000" stroke="none" /><path d="M 115.80600337817218 113.82643327865902 l 15.461607303860013 13.52516994035776 a41.54243223998401,41.54243223998401 0 0,0 -0.4754455215697007,0.5341680836469275 l -15.226502932641974 -13.789312193745554" fill="#ff0300" stroke="none" /><path d="M 115.32070863581623 114.36230785411682 l 24.635122738367933 23.09405036038945 a54.7672094550713,54.7672094550713 0 0,0 -0.6506695218236344,0.6822243922896134 l -24.233946665165334 -23.51468186926157" fill="#faff18" stroke="none" /><path d="M 114.0293411484842 115.62618273729858 l 22.504852767116304 25.06639036666055 a54.686678733341985,54.686678733341985 0 0,0 -0.7058686888006204,0.6228470479213774 l -22.070041725409098 -25.450060556354217" fill="#fbff18" stroke="none" /><path d="M 113.20401910651253 116.32954008644616 l 21.135035136718216 26.137905489947702 a54.61368491599443,54.61368491599443 0 0,0 -0.736094967169888,0.5847983604198551 l -20.681982676830977 -26.497837764372683" fill="#fdff18" stroke="none" /><path d="M 112.34349029814194 116.9893568818739 l 19.84816300523707 27.31865271497309 a54.76771180941593,54.76771180941593 0 0,0 -0.7674590905599535,0.5475616838118567 l -19.374976586828232 -27.656258660629163" fill="#faff18" stroke="none" /><path d="M 111.45004920935366 117.60387380957326 l 18.301568030569406 28.137738819871007 a54.56605038238541,54.56605038238541 0 0,0 -0.791774692473185,0.5053480702593833 l -17.81451153604929 -28.4486013189542" fill="#feff18" stroke="none" /><line stroke="#e1ed5e" stroke-width="0.3" x1="143.8653032363475" x2="146.44561519142675" y1="172.8068346515853" y2="177.08958963109032" /><path d="M 144.38136562736335 173.6633856474863 a86.0,86.0 0 0,1 -40.68145358897372,12.25698825130547" fill="none" id="id6" stroke="none" /><text fill="#e1ed5e" style="font-size:6.75px; font-family:Arial;" text-anchor="middle"><textPath startOffset="21.466115282336833" xlink:href="#id6">June</textPath></text><path d="M 110.8373102113329 117.98757091392108 l 17.729904981485983 29.427774690629356 a55.35612687563846,55.35612687563846 0 0,0 -0.8204097723394264,0.4847125543895592 l -17.220727338118177 -29.728605817312665" fill="#f0ff19" stroke="none" /><path d="M 109.89434966115114 118.52300852407294 l 15.890657323702081 29.748572785511485 a54.726704151965414,54.726704151965414 0 0,0 -0.8347362483150251,0.436694553046925 l -15.376230172860561 -30.017696757503124" fill="#fbff18" stroke="none" /><path d="M 109.2508944713604 118.85261126421891 l 17.674064820509628 36.01838444392888 a61.12102422957612,61.12102422957612 0 0,0 -0.9485032150128425,0.45533918365161696 l -17.051448937496556 -36.31727790408006" fill="#90ff24" stroke="none" /><path d="M 107.93186726928326 119.44442032107085 l 11.224847309127064 27.51693160118022 a50.71832299873679,50.71832299873679 0 0,0 -0.8112007501798466,0.3227935197720677 l -10.749525482905351 -27.70607196535836" fill="#ffba11" stroke="none" /><path d="M 105.53697534728816 120.25689768951611 l 10.258110311182373 37.52906199287387 a59.90577490837776,59.90577490837776 0 0,0 -0.9970305172029151,0.263324821462646 l -9.61058935116796 -37.7000781636401" fill="#a3ff21" stroke="none" /><path d="M 104.48393922423573 120.51570834832081 l 7.314139360408863 33.464938401946846 a55.25490821516792,55.25490821516792 0 0,0 -0.9309361106886865,0.19508671331707658 l -6.737011788290798 -33.585881095990466" fill="#f2ff19" stroke="none" /><path d="M 103.06178313531738 120.77559828337769 l 3.6251312535722247 24.59817280328936 a45.86386297151169,45.86386297151169 0 0,0 -0.7820256203725405,0.10838162514995255 l -3.2011770420128536 -24.656928993931913" fill="#ff5c08" stroke="none" /><path d="M 102.34483914955558 120.86867818915974 l 4.4901967486261825 39.962003777892726 a61.21347551239119,61.21347551239119 0 0,0 -1.0481128782255726,0.10864118530308513 l -3.8016512737950072 -40.03337433165157" fill="#8eff24" stroke="none" /><path d="M 100.90346689309514 120.98055641714683 l 1.505040653668204 34.95046756634172 a55.98285766593545,55.98285766593545 0 0,0 -0.9631174823712931,0.03317171345812074 l -0.9032028196222587 -34.97119607822594" fill="#e5ff1a" stroke="none" /><line stroke="#e1ed5e" stroke-width="0.3" x1="102.19456741930631" x2="102.32365962044197" y1="184.97166512339345" y2="189.96999836594603" /><path d="M 102.22038585953345 185.97133177190398 a86.0,86.0 0 0,1 -42.740103519485714,-10.115201625700543" fill="none" id="id7" stroke="none" /><text fill="#e1ed5e" style="font-size:6.75px; font-family:Arial;" text-anchor="middle"><textPath startOffset="22.20632615414155" xlink:href="#id7">July</textPath></text><path d="M 100.18074693466247 120.99922214144158 l 0.2970034033646545 34.50592650805169 a55.50720468540844,55.50720468540844 0 0,0 -0.9555006760541962,0.0 l 0.2970034033646307 -34.50592650805169" fill="#edff1a" stroke="none" /><path d="M 99.45781275523022 120.99299961872073 l -0.8933658302791502 34.590316750058754 a55.601851328738256,55.601851328738256 0 0,0 -0.9565627282993019,-0.03294595447456453 l 1.488648910253095 -34.56981399715809" fill="#ebff1a" stroke="none" /><path d="M 96.22490169976321 120.6578951692458 l -7.8090709151406665 42.73238880271368 a64.44005802648041,64.44005802648041 0 0,0 -1.0894432151561777,-0.20879438508138148 l 8.543481744868538 -42.59163721928383" fill="#5dff2a" stroke="none" /><path d="M 95.16358092515715 120.4354850818985 l -7.692254447622556 32.502342865245986 a54.40019566135767,54.40019566135767 0 0,0 -0.909381428392679,-0.2235038299586908 l 8.250589160758446 -32.36511777697327" fill="#fffd18" stroke="none" /><path d="M 92.40401165467489 119.57807347666478 l -12.388455575868853 31.930287738794163 a55.249337316763736,55.249337316763736 0 0,0 -0.8836708555883342,-0.35163087032662554 l 12.936247507499045 -31.712310024061473" fill="#f2ff19" stroke="none" /><line stroke="#e1ed5e" stroke-width="0.3" x1="58.666819895761336" x2="56.23545636021788" y1="174.27360380694188" y2="178.64263932499728" /><path d="M 58.180547188652646 175.14741091055294 a86.0,86.0 0 0,1 -31.652253787137756,-30.449443065178592" fill="none" id="id8" stroke="none" /><text fill="#e1ed5e" style="font-size:6.75px; font-family:Arial;" text-anchor="middle"><textPath startOffset="22.20632615414155" xlink:href="#id8">August</textPath></text><line stroke="#e1ed5e" stroke-width="0.3" x1="26.63291911575756" x2="22.317208475507996" y1="142.92168965132927" y2="145.44649492493687" /><path d="M 25.769776987707644 143.4266507060508 a86.0,86.0 0 0,1 -11.730757126820373,-40.83630448921669" fill="none" id="id9" stroke="none" /><text fill="#e1ed5e" style="font-size:6.75px; font-family:Arial;" text-anchor="middle"><textPath startOffset="21.46611528233685" xlink:href="#id9">September</textPath></text><path d="M 80.73074385275274 108.34839909993369 l -57.80776844174178 25.045197299801067 a84.0,84.0 0 0,0 -0.5633960752307736,-1.3317018973353647 l 58.23031549816486 -24.046420876799544" fill="#4dd2ff" stroke="none" /><line stroke="#e1ed5e" stroke-width="0.3" x1="15.007084014347285" x2="10.007500721073583" y1="101.09737516637583" y2="101.16192664675087" /><path d="M 14.007167355692545 101.11028546245083 a86.0,86.0 0 0,1 10.666146001902534,-42.60595125391555" fill="none" id="id10" stroke="none" /><text fill="#e1ed5e" style="font-size:6.75px; font-family:Arial;" text-anchor="middle"><textPath startOffset="22.20632615414155" xlink:href="#id10">October</textPath></text><line stroke="#e1ed5e" stroke-width="0.3" x1="26.266209847984243" x2="21.928928074336255" y1="57.711370442889674" y2="55.22380399835377" /><path d="M 25.398753493254645 57.213857153982495 a86.0,86.0 0 0,1 29.58750427330803,-30.492523968695096" fill="none" id="id11" stroke="none" /><text fill="#e1ed5e" style="font-size:6.75px; font-family:Arial;" text-anchor="middle"><textPath startOffset="21.46611528233685" xlink:href="#id11">November</textPath></text><line stroke="#e1ed5e" stroke-width="0.3" x1="56.762969772571076" x2="54.21961505331055" y1="26.818313649435495" y2="22.513508569990535" /><path d="M 56.25429882871897 25.957352633546506 a86.0,86.0 0 0,1 42.265352541879196,-11.944610805530505" fill="none" id="id12" stroke="none" /><text fill="#e1ed5e" style="font-size:6.75px; font-family:Arial;" text-anchor="middle"><textPath startOffset="22.20632615414155" xlink:href="#id12">December</textPath></text></svg>