<?xml version="1.0" encoding="utf-8" ?>
<svg baseProfile="full" height="200mm" version="1.1" viewBox="0,0,200,200" width="200mm" xmlns="http://www.w3.org/2000/svg" xmlns:ev="http://www.w3.org/2001/xml-events" xmlns:xlink="http://www.w3.org/1999/xlink"><defs /><rect fill="#1a1a1a" height="200" width="200" x="0" y="0" /><text alignment-baseline="middle" fill="#e1ed5e" style="dominant-baseline: central; font-size:9.0px; font-family:Arial;" text-anchor="middle" x="100.0" y="100.0">2019</text><line stroke="#e1ed5e" stroke-width="0.3" x1="100.0" x2="100.0" y1="15.0" y2="10.0" /><path d="M 100.0 14.0 a86.0,86.0 0 0,1 42.46469731375804,11.215312516191453" fill="none" id="id13" stroke="none" /><text fill="#e1ed5e" style="font-size:6.75px; font-family:Arial;" text-anchor="middle"><textPath startOffset="22.20632615414155" xlink:href="#id13">January</textPath></text><line stroke="#e1ed5e" stroke-width="0.3" x1="143.23703022742887" x2="145.7803849466894" y1="26.81831364943548" y2="22.513508569990506" /><path d="M 143.74570117128098 25.957352633546492 a86.0,86.0 0 0,1 28.547481713284135,27.462654790039103" fill="none" id="id14" stroke="none" /><text fill="#e1ed5e" style="font-size:6.75px; font-family:Arial;" text-anchor="middle"><textPath startOffset="19.985693538727396" xlink:href="#id14">February</textPath></text><line stroke="#e1ed5e" stroke-width="0.3" x1="172.23445277983987" x2="176.4835382374775" y1="55.19839476539836" y2="52.563006222186495" /><path d="M 173.08426987136738 54.67131705675599 a86.0,86.0 0 0,1 12.851231095245387,41.99856678651699" fill="none" id="id15" stroke="none" /><text fill="#e1ed5e" style="font-size:6.75px; font-family:Arial;" text-anchor="middle"><textPath startOffset="22.20632615414155" xlink:href="#id15">March</textPath></text><line stroke="#e1ed5e" stroke-width="0.3" x1="184.98032266829074" x2="189.97916517819016" y1="98.17113171792111" y2="98.06355123074" /><path d="M 185.9800911702706 98.14961562048488 a86.0,86.0 0 0,1 -9.607161424134198,41.387399972396054" fill="none" id="id16" stroke="none" /><text fill="#e1ed5e" style="font-size:6.75px; font-family:Arial;" text-anchor="middle"><textPath startOffset="21.466115282336823" xlink:href="#id16">April</textPath></text><path d="M 119.67450827220406 107.3425965602758 l 9.14476118156211 3.4128574431079994 a30.760853087450037,30.760853087450037 0 0,0 -0.18940734613290613,0.49448281268719324 l -9.084659555835698 -3.5697638226283366" fill="#ff1b02" stroke="none" /><line stroke="#e1ed5e" stroke-width="0.3" x1="174.80103733775053" x2="179.2010983576182" y1="140.37084112569926" y2="142.7455964860345" /><path d="M 175.68104954172406 140.8457921977663 a86.0,86.0 0 0,1 -30.038265399797805,32.042727171017184" fill="none" id="id17" stroke="none" /><text fill="#e1ed5e" style="font-size:6.75px; font-family:Arial;" text-anchor="middle"><textPath startOffset="22.206326154141568" xlink:href="#id17">May</textPath></text><line stroke="#e1ed5e" stroke-width="0.3" x1="143.8653032363475" x2="146.44561519142675" y1="172.8068346515853" y2="177.08958963109032" /><path d="M 144.38136562736335 173.6633856474863 a86.0,86.0 0 0,1 -40.68145358897372,12.25698825130547" fill="none" id="id18" stroke="none" /><text fill="#e1ed5e" style="font-size:6.75px; font-family:Arial;" text-anchor="middle"><textPath startOffset="21.466115282336833" xlink:href="#id18">June</textPath></text><line stroke="#e1ed5e" stroke-width="0.3" x1="102.19456741930631" x2="102.32365962044197" y1="184.97166512339345" y2="189.96999836594603" /><path d="M 102.22038585953345 185.97133177190398 a86.0,86.0 0 0,1 -42.740103519485714,-10.115201625700543" fill="none" id="id19" stroke="none" /><text fill="#e1ed5e" style="font-size:6.75px; font-family:Arial;" text-anchor="middle"><textPath startOffset="22.20632615414155" xlink:href="#id19">July</textPath></text><path d="M 100.18074693466247 120.99922214144158 l 0.125762290238884 14.611092988517699 a35.61163421636188,35.61163421636188 0 0,0 -0.6130184498026688,0.0 l 0.12576229023887395 -14.611092988517699" fill="#ff6809" stroke="none" /><path d="M 99.45781275523022 120.99299961872073 l -0.39095787857362435 15.13753537178272 a36.14258317443863,36.14258317443863 0 0,0 -0.6217895113729119,-0.02141568799243862 l 0.6514677416211794 -15.128562885364188" fill="#ff700a" stroke="none" /><path d="M 98.73552117531835 120.96189622390904 l -0.9756762650756469 16.174272132865475 a37.20367313920583,37.20367313920583 0 0,0 -0.6389061890383937,-0.044062711478431583 l 1.2539452148929706 -16.155081076870758" fill="#ff800b" stroke="none" /><path d="M 97.65516085044442 120.86867818915974 l -1.646393491269772 14.652628069839214 a35.74483370137268,35.74483370137268 0 0,0 -0.6108495515719599,-0.0739653737758805 l 1.898370465893121 -14.622117167337985" fill="#ff6a09" stroke="none" /><path d="M 96.58105272829116 120.7198165907248 l -2.6348162015948082 15.967753846062735 a37.18367755810272,37.18367755810272 0 0,0 -0.6306192860366637,-0.10964124620068012 l 2.9092844591035223 -15.920034021341047" fill="#ff800b" stroke="none" /><path d="M 96.22490169976321 120.6578951692458 l -3.3124179612967497 18.126040054878306 a39.42621612869485,39.42621612869485 0 0,0 -0.6665515981229735,-0.1277462001864386 l 3.6239371739914183 -18.0663366563434" fill="#ffa10e" stroke="none" /><path d="M 95.86986931433489 120.58985236759428 l -3.513902388825191 17.517782590067473 a38.866734924743874,38.866734924743874 0 0,0 -0.6548277467969068,-0.13722552111222022 l 3.8149215970514847 -17.454701088228713" fill="#ff990e" stroke="none" /><path d="M 95.16358092515715 120.4354850818985 l -3.413510781657445 14.42322254874636 a35.821653232590386,35.821653232590386 0 0,0 -0.5988130334461242,-0.14717367457233618 l 3.66127709984678 -14.362327615859993" fill="#ff6b09" stroke="none" /><path d="M 94.46302465271185 120.25689768951611 l -4.1575835975176405 15.21042451665846 a36.76840243484775,36.76840243484775 0 0,0 -0.6090752955080931,-0.1721307623992729 l 4.418790061130348 -15.136604960920666" fill="#ff790b" stroke="none" /><path d="M 93.76903079525671 120.05430185196036 l -4.978315927101977 16.022651859766025 a37.77823000466083,37.77823000466083 0 0,0 -0.6193446767071289,-0.198294607221363 l 5.253381948900046 -15.934584405884955" fill="#ff890c" stroke="none" /><path d="M 93.42475214034765 119.94407469862007 l -3.776645073512452 11.455338728522129 a33.06183374932953,33.06183374932953 0 0,0 -0.5389555417615723,-0.18284298187228387 l 3.97327034821125 -11.388632759751722" fill="#ff4006" stroke="none" /><path d="M 92.7421414339146 119.70592522655815 l -10.343430257639522 28.083609150997773 a50.92784075807439,50.92784075807439 0 0,0 -0.8200104548896742,-0.31005778853383514 l 10.825310933289478 -27.901403112357304" fill="#bdff1f" stroke="none" /><path d="M 92.06813273071674 119.44442032107085 l -13.44466081498958 32.95864984696235 a56.59538599544592,56.59538599544592 0 0,0 -0.8988655471542305,-0.3757258716106241 l 14.009997821641273 -32.72233893233175" fill="#77ff27" stroke="none" /><path d="M 91.40352486487194 119.15986991738527 l -8.90179345467235 19.840365026591016 a42.74585043400288,42.74585043400288 0 0,0 -0.6687323769385282,-0.30698223500064065 l 9.241993827378296 -19.6841957212563" fill="#ffd213" stroke="none" /><path d="M 90.7491055286396 118.85261126421891 l -7.260723090460632 14.796795093206056 a37.48220994972079,37.48220994972079 0 0,0 -0.5767728417460299,-0.2892058764592428 l 7.514349839889423 -14.66962137583751" fill="#ff840c" stroke="none" /><line stroke="#e1ed5e" stroke-width="0.3" x1="58.666819895761336" x2="56.23545636021788" y1="174.27360380694188" y2="178.64263932499728" /><path d="M 58.180547188652646 175.14741091055294 a86.0,86.0 0 0,1 -31.652253787137756,-30.449443065178592" fill="none" id="id20" stroke="none" /><text fill="#e1ed5e" style="font-size:6.75px; font-family:Arial;" text-anchor="middle"><textPath startOffset="22.20632615414155" xlink:href="#id20">August</textPath></text><path d="M 89.7882731507175 118.34994917583269 l -17.043832302113177 30.626892113469268 a56.04994636333475,56.04994636333475 0 0,0 -0.8390176073006892,-0.47641609443980326 l 17.568498676335075 -30.32897285323483" fill="#7eff26" stroke="none" /><path d="M 87.36589467227662 116.77436683061367 l -17.70982181297723 23.513421796778307 a50.436691275355884,50.436691275355884 0 0,0 -0.6889922741306098,-0.5282898956655804 l 18.111942815601324 -23.205092559285358" fill="#c4ff1e" stroke="none" /><path d="M 86.79598089348748 116.32954008644616 l -8.274214068019841 10.23280178691391 a34.15951560102749,34.15951560102749 0 0,0 -0.454044818985262,-0.37364797481096673 l 8.449129015549792 -10.088858693245763" fill="#ff5107" stroke="none" /><path d="M 86.24171649860922 115.8653595955263 l -11.901343442148411 13.724029844308424 a39.16565360496113,39.16565360496113 0 0,0 -0.5055309482398278,-0.4460722847461635 l 12.135816743294827 -13.51713441778997" fill="#ff9d0e" stroke="none" /><path d="M 83.72743513129214 113.27417163493432 l -8.218747434018448 6.704355763431654 a31.60642237452592,31.60642237452592 0 0,0 -0.34026885537660856,-0.4245377158106235 l 8.332934201449918 -6.561890214042771" fill="#ff2803" stroke="none" /><path d="M 83.28015986056508 112.70617746262583 l -14.228483414387323 10.81288061246642 a38.87087371711152,38.87087371711152 0 0,0 -0.4002565950020717,-0.5362091180032076 l 14.41250127608448 -10.566358614953906" fill="#ff990e" stroke="none" /><path d="M 82.6465618267979 111.8261652097733 l -14.614300633490567 9.95947500385526 a38.68527425171746,38.68527425171746 0 0,0 -0.37026761861568763,-0.5534998512602444 l 14.783571357516985 -9.706438238389195" fill="#ff960d" stroke="none" /><line stroke="#e1ed5e" stroke-width="0.3" x1="26.63291911575756" x2="22.317208475507996" y1="142.92168965132927" y2="145.44649492493687" /><path d="M 25.769776987707644 143.4266507060508 a86.0,86.0 0 0,1 -11.730757126820373,-40.83630448921669" fill="none" id="id21" stroke="none" /><text fill="#e1ed5e" style="font-size:6.75px; font-family:Arial;" text-anchor="middle"><textPath startOffset="21.46611528233685" xlink:href="#id21">September</textPath></text><path d="M 81.87401531095188 110.60418214915194 l -26.04559436805193 15.237364016346442 a51.17532515403517,51.17532515403517 0 0,0 -0.4382752416764888,-0.7641698261930291 l 26.304021605880795 -14.786774344295106" fill="#baff1f" stroke="none" /><path d="M 81.18737489456691 109.33194174019688 l -7.281013946690393 3.6117233814675287 a29.127589425908475,29.127589425908475 0 0,0 -0.21893786350205718,-0.45107684606734416 l 7.34210506680717 -3.4858575794349" fill="#ff0000" stroke="none" /><path d="M 81.02952815118164 109.00673069616217 l -12.731147029784289 6.044447057739065 a35.09317015180743,35.09317015180743 0 0,0 -0.25438434631733536,-0.5479212508736806 l 12.833305992941451 -5.824405739586558" fill="#ff6008" stroke="none" /><path d="M 80.73074385275274 108.34839909993369 l -21.701407957628824 9.402128098579658 a44.65060506890969,44.65060506890969 0 0,0 -0.29947590062503576,-0.7078725653266558 l 21.860034839446165 -9.027181007586842" fill="#ffec16" stroke="none" /><path d="M 79.97269907076064 106.31721596034903 l -24.810452091684105 7.825966389122138 a47.01546238138814,47.01546238138814 0 0,0 -0.23680843800933513,-0.7739036770590355 l 24.94148730219957 -7.397735739511055" fill="#f1ff19" stroke="none" /><path d="M 79.50377843672027 104.57218783832718 l -15.213528357078538 3.3937528006088518 a36.58746301176921,36.58746301176921 0 0,0 -0.13182978854378502,-0.6158648836801276 l 15.269692184346765 -3.1313740975125604" fill="#ff770a" stroke="none" /><path d="M 79.35854240842038 103.8639653848113 l -14.657713988429093 2.743842057687753 a35.912318686378924,35.912318686378924 0 0,0 -0.10851258973807504,-0.6085962303893089 l 14.702773020506356 -2.4911270765652307" fill="#ff6c0a" stroke="none" /><path d="M 79.29508885075956 103.50808413554451 l -20.2775748517881 3.4356794932435033 a41.566573254924194,41.566573254924194 0 0,0 -0.11345347886595937,-0.7064749211981431 l 20.33371008501535 -3.086125342352146" fill="#ffc111" stroke="none" /><path d="M 79.04373962182676 101.35467743843564 l -36.45587619488748 2.3566205080680542 a57.531966404178284,57.531966404178284 0 0,0 -0.055377665792589445,-0.9888054233384445 l 36.49104021156761 -1.7287433683941722" fill="#6cff28" stroke="none" /><line stroke="#e1ed5e" stroke-width="0.3" x1="15.007084014347285" x2="10.007500721073583" y1="101.09737516637583" y2="101.16192664675087" /><path d="M 14.007167355692545 101.11028546245083 a86.0,86.0 0 0,1 10.666146001902534,-42.60595125391555" fill="none" id="id22" stroke="none" /><text fill="#e1ed5e" style="font-size:6.75px; font-family:Arial;" text-anchor="middle"><textPath startOffset="22.20632615414155" xlink:href="#id22">October</textPath></text><path d="M 79.00019446554 99.90962569577889 l -22.098359183990524 -0.09510201570220884 a43.09856382252134,43.09856382252134 0 0,0 0.009578128123637578,-0.7418365786432444 l 22.093448048749174 0.47547485240592524" fill="#ffd714" stroke="none" /><path d="M 79.21141760316559 97.0276538004421 l -11.580637194807476 -1.6557965472280816 a32.69841100507119,32.69841100507119 0 0,0 0.08446171861545594,-0.556497196027649 l 11.550419582752717 1.8548928556478226" fill="#ff3a05" stroke="none" /><path d="M 79.3925641242962 95.95851677861259 l -18.066645027039648 -3.543189127650232 a39.410808013972535,39.410808013972535 0 0,0 0.13628764888255523,-0.6645869775246734 l 18.0029780822421 3.8536517613383077" fill="#ffa10e" stroke="none" /><path d="M 79.54389044137918 95.25157060432595 l -14.46113174447361 -3.356829062407664 a35.84562671918054,35.84562671918054 0 0,0 0.14469206666100246,-0.5998420290259316 l 14.401206877551793 3.6052563230929926" fill="#ff6b09" stroke="none" /><path d="M 80.02781315780177 93.51064311812611 l -28.287929997225913 -9.191305621756356 a50.743689793979556,50.743689793979556 0 0,0 0.27706708551349474,-0.8283953199210591 l 28.125525617940646 9.676874044599737" fill="#c0ff1e" stroke="none" /><path d="M 80.803312248108 91.48605970444005 l -15.24025423603877 -6.759218899208282 a37.67190418957931,37.67190418957931 0 0,0 0.2680045334048455,-0.5905124640104613 l 15.121647385670572 7.020553372060814" fill="#ff870c" stroke="none" /><line stroke="#e1ed5e" stroke-width="0.3" x1="26.266209847984243" x2="21.928928074336255" y1="57.711370442889674" y2="55.22380399835377" /><path d="M 25.398753493254645 57.213857153982495 a86.0,86.0 0 0,1 29.58750427330803,-30.492523968695096" fill="none" id="id23" stroke="none" /><text fill="#e1ed5e" style="font-size:6.75px; font-family:Arial;" text-anchor="middle"><textPath startOffset="21.46611528233685" xlink:href="#id23">November</textPath></text><path d="M 81.96595687620814 89.24020034530311 l -17.691874657844096 -10.555648865188365 a41.601557025477916,41.601557025477916 0 0,0 0.37220358722773056,-0.6118048330586295 l 17.507555272330148 10.858621471454068" fill="#ffc112" stroke="none" /><path d="M 82.15384107792192 88.93136811851018 l -53.53291703833456 -33.20244736286715 a83.9934577358409,83.9934577358409 0 0,0 0.7726294347831204,-1.2221142184668006 l 52.95346000730547 34.11900922904817" fill="#4dd2ff" stroke="none" /><path d="M 83.6137871275137 86.86637796730984 l -10.377679709245434 -8.31775614891466 a34.29967305990986,34.29967305990986 0 0,0 0.37321557216553036,-0.45751816196894957 l 10.23296564500351 8.49515848049169" fill="#ff5307" stroke="none" /><path d="M 84.07557802195018 86.31012108654704 l -10.816488363902355 -9.29869958072603 a35.264018873341044,35.264018873341044 0 0,0 0.39967254356188836,-0.4568948076762816 l 10.654823956762623 9.483509944605254" fill="#ff6209" stroke="none" /><path d="M 85.05521093208273 85.24692304244772 l -7.725458115169675 -7.626355754335759 a31.855597873029893,31.855597873029893 0 0,0 0.3885839875874544,-0.3869152844531693 l 7.593038327414908 7.758206889439038" fill="#ff2c04" stroke="none" /><path d="M 86.37877921826538 84.01681056812374 l -7.496839176752753 -8.796818040202957 a32.55796717742939,32.55796717742939 0 0,0 0.4296759626265344,-0.3598412618805527 l 7.3443056771671085 8.924560459477322" fill="#ff3805" stroke="none" /><path d="M 86.93701828274178 83.55741782278169 l -6.216843319009076 -7.825239242327623 a30.994173805411428,30.994173805411428 0 0,0 0.4205871673463217,-0.3282749553569065 l 6.081223596503328 7.93109258690775" fill="#ff1f03" stroke="none" /><path d="M 88.09926311788651 82.69761687909137 l -5.804699649025951 -8.439404906111516 a31.24295334289389,31.24295334289389 0 0,0 0.4457258168765011,-0.30095606123219154 l 5.6585691377429095 8.538072879642373" fill="#ff2303" stroke="none" /><line stroke="#e1ed5e" stroke-width="0.3" x1="56.762969772571076" x2="54.21961505331055" y1="26.818313649435495" y2="22.513508569990535" /><path d="M 56.25429882871897 25.957352633546506 a86.0,86.0 0 0,1 42.265352541879196,-11.944610805530505" fill="none" id="id24" stroke="none" /><text fill="#e1ed5e" style="font-size:6.75px; font-family:Arial;" text-anchor="middle"><textPath startOffset="22.20632615414155" xlink:href="#id24">December</textPath></text><path d="M 90.91171255644093 81.06846463323043 l -7.811272950361672 -16.27142528640702 a39.04924557858798,39.04924557858798 0 0,0 0.608464951696496,-0.28568245344576054 l 7.530029787365567 16.40347272249279" fill="#ff9c0e" stroke="none" /><path d="M 91.56875222667455 80.76684994638697 l -25.293743319976343 -57.69945016083907 a84.0,84.0 0 0,0 1.329264968838767,-0.5691218881488553 l 24.29679459334727 58.12629157695071" fill="#4dd2ff" stroke="none" /><path d="M 94.63758080256005 79.69619591428918 l -4.999369317646714 -18.92918316159847 a40.57824478188917,40.57824478188917 0 0,0 0.6768665933266705,-0.17254836570234117 l 4.672793835635044 19.012434523469675" fill="#ffb210" stroke="none" /><path d="M 96.04723909329186 79.375362276772 l -2.1060507097177155 -10.988909762024807 a32.188904653710594,32.188904653710594 0 0,0 0.5450729305339652,-0.09960859403659192 l 1.916582658080857 11.023533837412135" fill="#ff3204" stroke="none" /><path d="M 98.55514903715128 79.0497635885617 l -2.0377498778654757 -29.547228597536186 a50.61741282353678,50.61741282353678 0 0,0 0.8697468350611431,-0.05246550426646423 l 1.5288409939647096 29.577927371182955" fill="#c1ff1e" stroke="none" /></svg>