<?xml version="1.0" encoding="utf-8" ?>
<svg baseProfile="full" height="200mm" version="1.1" viewBox="0,0,200,200" width="200mm" xmlns="http://www.w3.org/2000/svg" xmlns:ev="http://www.w3.org/2001/xml-events" xmlns:xlink="http://www.w3.org/1999/xlink"><defs /><rect fill="#1a1a1a" height="200" width="200" x="0" y="0" /><text alignment-baseline="middle" fill="#e1ed5e" style="dominant-baseline: central; font-size:9.0px; font-family:Arial;" text-anchor="middle" x="100.0" y="100.0">2019</text><line stroke="#e1ed5e" stroke-width="0.3" x1="100.0" x2="100.0" y1="15.0" y2="10.0" /><path d="M 100.0 14.0 a86.0,86.0 0 0,1 42.46469731375804,11.215312516191453" fill="none" id="id25" stroke="none" /><text fill="#e1ed5e" style="font-size:6.75px; font-family:Arial;" text-anchor="middle"><textPath startOffset="22.20632615414155" xlink:href="#id25">January</textPath></text><line stroke="#e1ed5e" stroke-width="0.3" x1="143.23703022742887" x2="145.7803849466894" y1="26.81831364943548" y2="22.513508569990506" /><path d="M 143.74570117128098 25.957352633546492 a86.0,86.0 0 0,1 28.547481713284135,27.462654790039103" fill="none" id="id26" stroke="none" /><text fill="#e1ed5e" style="font-size:6.75px; font-family:Arial;" text-anchor="middle"><textPath startOffset="19.985693538727396" xlink:href="#id26">February</textPath></text><line stroke="#e1ed5e" stroke-width="0.3" x1="172.23445277983987" x2="176.4835382374775" y1="55.19839476539836" y2="52.563006222186495" /><path d="M 173.08426987136738 54.67131705675599 a86.0,86.0 0 0,1 12.851231095245387,41.99856678651699" fill="none" id="id27" stroke="none" /><text fill="#e1ed5e" style="font-size:6.75px; font-family:Arial;" text-anchor="middle"><textPath startOffset="22.20632615414155" xlink:href="#id27">March</textPath></text><line stroke="#e1ed5e" stroke-width="0.3" x1="184.98032266829074" x2="189.97916517819016" y1="98.17113171792111" y2="98.06355123074" /><path d="M 185.9800911702706 98.14961562048488 a86.0,86.0 0 0,1 -9.607161424134198,41.387399972396054" fill="none" id="id28" stroke="none" /><text fill="#e1ed5e" style="font-size:6.75px; font-family:Arial;" text-anchor="middle"><textPath startOffset="21.466115282336823" xlink:href="#id28">April</textPath></text><path d="M 119.67450827220406 107.3425965602758 l 19.965245115633206 7.451100585737219 a42.31032408167668,42.31032408167668 0 0,0 -0.2605222350482573,0.6801413471250549 l -19.83402860099144 -7.793665499695417" fill="#ff2c04" stroke="none" /><line stroke="#e1ed5e" stroke-width="0.3" x1="174.80103733775053" x2="179.2010983576182" y1="140.37084112569926" y2="142.7455964860345" /><path d="M 175.68104954172406 140.8457921977663 a86.0,86.0 0 0,1 -30.038265399797805,32.042727171017184" fill="none" id="id29" stroke="none" /><text fill="#e1ed5e" style="font-size:6.75px; font-family:Arial;" text-anchor="middle"><textPath startOffset="22.206326154141568" xlink:href="#id29">May</textPath></text><path d="M 117.35343817320211 111.8261652097733 l 15.831282846393215 10.788834152370693 a40.15798681829237,40.15798681829237 0 0,0 -0.3941967129960801,0.5678697656509718 l -15.643225226234998 -11.059745180208685" fill="#ff0000" stroke="none" /><path d="M 114.0293411484842 115.62618273729858 l 16.45978133009815 18.333259428072186 a45.638035690607424,45.638035690607424 0 0,0 -0.5890732653457724,0.5197886662935064 l -16.14176571184579 -18.61387123613798" fill="#ff6d0a" stroke="none" /><path d="M 113.75828350139079 115.86535959552629 l 20.535527803925714 23.680536388152998 a52.34446850429026,52.34446850429026 0 0,0 -0.6857985902740791,0.5844524367142483 l -20.124863737074588 -24.030513215090192" fill="#ffe915" stroke="none" /><path d="M 111.7513745106137 117.40417183066458 l 13.379602236555563 19.81563060054293 a44.909683647125405,44.909683647125405 0 0,0 -0.6444011406887128,0.4270739379282762 l -13.036526397126886 -20.043002559562524" fill="#ff5f08" stroke="none" /><path d="M 111.1453310114006 117.79835938074945 l 16.6142480116427 26.53185954276636 a52.304517370332604,52.304517370332604 0 0,0 -0.7671847279792526,0.4712675201639219 l -16.15508408373114 -26.81391552975866" fill="#ffe815" stroke="none" /><line stroke="#e1ed5e" stroke-width="0.3" x1="143.8653032363475" x2="146.44561519142675" y1="172.8068346515853" y2="177.08958963109032" /><path d="M 144.38136562736335 173.6633856474863 a86.0,86.0 0 0,1 -40.68145358897372,12.25698825130547" fill="none" id="id30" stroke="none" /><text fill="#e1ed5e" style="font-size:6.75px; font-family:Arial;" text-anchor="middle"><textPath startOffset="21.466115282336833" xlink:href="#id30">June</textPath></text><path d="M 109.89434966115114 118.52300852407294 l 12.514588181027737 23.428303172122767 a47.56125574715203,47.56125574715203 0 0,0 -0.7254429953846091,0.3795174886318664 l -12.109454283116632 -23.64025007969935" fill="#ff920d" stroke="none" /><path d="M 109.57404056367764 118.69057910512821 l 14.425433347153891 28.16153757731379 a52.64119665833826,52.64119665833826 0 0,0 -0.810037952145016,0.4061698453175514 l -13.938541487326114 -28.405675263540644" fill="#ffee16" stroke="none" /><path d="M 108.92500713936063 119.00905698771935 l 12.919471974699839 27.51672633798091 a51.39873327072013,51.39873327072013 0 0,0 -0.8041013741164525,0.36912350217498985 l -12.443902604815966 -27.735036910489974" fill="#ffd814" stroke="none" /><path d="M 107.93186726928326 119.44442032107085 l 13.712329440102854 33.61482084387514 a57.304051551303935,57.304051551303935 0 0,0 -0.9165344368330186,0.36470796753090823 l -13.131673927227968 -33.84587565581211" fill="#c2ff1e" stroke="none" /><path d="M 107.2578585660854 119.70592522655815 l 14.405010109906511 39.11126808671565 a62.679678593020014,62.679678593020014 0 0,0 -1.0156508843438028,0.364176271998064 l -13.729639664932973 -39.35343189975367" fill="#6eff28" stroke="none" /><line stroke="#e1ed5e" stroke-width="0.3" x1="102.19456741930631" x2="102.32365962044197" y1="184.97166512339345" y2="189.96999836594603" /><path d="M 102.22038585953345 185.97133177190398 a86.0,86.0 0 0,1 -42.740103519485714,-10.115201625700543" fill="none" id="id31" stroke="none" /><text fill="#e1ed5e" style="font-size:6.75px; font-family:Arial;" text-anchor="middle"><textPath startOffset="22.20632615414155" xlink:href="#id31">July</textPath></text><path d="M 100.54218724476979 120.99299961872073 l 0.8118506276349803 31.434121847767983 a52.44460395333221,52.44460395333221 0 0,0 -0.9026473293499336,0.015539892365956324 l -0.27064360839237867 -31.4434392174131" fill="#ffea16" stroke="none" /><path d="M 92.40401165467489 119.57807347666478 l -11.339071911400431 29.22558236614589 a52.34819319278685,52.34819319278685 0 0,0 -0.8372692762260084,-0.33316672427889654 l 11.840462263668298 -29.02606879746093" fill="#ffe915" stroke="none" /><path d="M 91.7346041902142 119.30500536409082 l -16.416198479786605 38.342362181258096 a62.708851700406704,62.708851700406704 0 0,0 -0.9886478244742037,-0.433394152568118 l 17.073766978918552 -38.05410347539552" fill="#6eff28" stroke="none" /><path d="M 90.7491055286396 118.85261126421891 l -19.618114728379062 39.98020860101643 a65.53411619507713,65.53411619507713 0 0,0 -1.0084330267572903,-0.5056492543423343 l 20.303401662819113 -39.63659150576479" fill="#45ff2d" stroke="none" /><path d="M 90.10565033884886 118.52300852407294 l -15.185012263667641 28.42754918015943 a53.229026510866255,53.229026510866255 0 0,0 -0.8044608933803962,-0.4386562207348886 l 15.672095968916677 -28.161952307664777" fill="#fff817" stroke="none" /><line stroke="#e1ed5e" stroke-width="0.3" x1="58.666819895761336" x2="56.23545636021788" y1="174.27360380694188" y2="178.64263932499728" /><path d="M 58.180547188652646 175.14741091055294 a86.0,86.0 0 0,1 -31.652253787137756,-30.449443065178592" fill="none" id="id32" stroke="none" /><text fill="#e1ed5e" style="font-size:6.75px; font-family:Arial;" text-anchor="middle"><textPath startOffset="22.20632615414155" xlink:href="#id32">August</textPath></text><path d="M 89.7882731507175 118.34994917583269 l -15.674928788291613 28.16704273872718 a53.234852088435225,53.234852088435225 0 0,0 -0.7968781617507981,-0.45248821748460244 l 16.157455716963618 -27.893051355447945" fill="#fff817" stroke="none" /><path d="M 86.24171649860922 115.8653595955263 l -20.60491000879192 23.760544452358246 a52.4503702544645,52.4503702544645 0 0,0 -0.6770035214454023,-0.5973768938258579 l 21.010855883143908 -23.402344416760098" fill="#ffea16" stroke="none" /><path d="M 84.19399662182784 113.82643327865904 l -24.31791844129429 21.272301970323237 a53.30900785282734,53.30900785282734 0 0,0 -0.5982222384699495,-0.6958676130208472 l 24.680483189335018 -20.85055725814086" fill="#fff917" stroke="none" /><line stroke="#e1ed5e" stroke-width="0.3" x1="26.63291911575756" x2="22.317208475507996" y1="142.92168965132927" y2="145.44649492493687" /><path d="M 25.769776987707644 143.4266507060508 a86.0,86.0 0 0,1 -11.730757126820373,-40.83630448921669" fill="none" id="id33" stroke="none" /><text fill="#e1ed5e" style="font-size:6.75px; font-family:Arial;" text-anchor="middle"><textPath startOffset="21.46611528233685" xlink:href="#id33">September</textPath></text><path d="M 81.35079622478065 109.6543875284942 l -55.94761132565806 28.96316258548259 a84.0,84.0 0 0,0 -0.6536853208549331,-1.28978315318926 l 56.437875316299255 -27.995825220590643" fill="#4dd2ff" stroke="none" /><line stroke="#e1ed5e" stroke-width="0.3" x1="15.007084014347285" x2="10.007500721073583" y1="101.09737516637583" y2="101.16192664675087" /><path d="M 14.007167355692545 101.11028546245083 a86.0,86.0 0 0,1 10.666146001902534,-42.60595125391555" fill="none" id="id34" stroke="none" /><text fill="#e1ed5e" style="font-size:6.75px; font-family:Arial;" text-anchor="middle"><textPath startOffset="22.20632615414155" xlink:href="#id34">October</textPath></text><line stroke="#e1ed5e" stroke-width="0.3" x1="26.266209847984243" x2="21.928928074336255" y1="57.711370442889674" y2="55.22380399835377" /><path d="M 25.398753493254645 57.213857153982495 a86.0,86.0 0 0,1 29.58750427330803,-30.492523968695096" fill="none" id="id35" stroke="none" /><text fill="#e1ed5e" style="font-size:6.75px; font-family:Arial;" text-anchor="middle"><textPath startOffset="21.46611528233685" xlink:href="#id35">November</textPath></text><line stroke="#e1ed5e" stroke-width="0.3" x1="56.762969772571076" x2="54.21961505331055" y1="26.818313649435495" y2="22.513508569990535" /><path d="M 56.25429882871897 25.957352633546506 a86.0,86.0 0 0,1 42.265352541879196,-11.944610805530505" fill="none" id="id36" stroke="none" /><text fill="#e1ed5e" style="font-size:6.75px; font-family:Arial;" text-anchor="middle"><textPath startOffset="22.20632615414155" xlink:href="#id36">December</textPath></text></svg>