<?xml version="1.0" encoding="utf-8" ?>
<svg baseProfile="full" height="200mm" version="1.1" viewBox="0,0,200,200" width="200mm" xmlns="http://www.w3.org/2000/svg" xmlns:ev="http://www.w3.org/2001/xml-events" xmlns:xlink="http://www.w3.org/1999/xlink"><defs /><rect fill="#1a1a1a" height="200" width="200" x="0" y="0" /><text alignment-baseline="middle" fill="#e1ed5e" style="dominant-baseline: central; font-size:9.0px; font-family:Arial;" text-anchor="middle" x="100.0" y="100.0">2021</text><line stroke="#e1ed5e" stroke-width="0.3" x1="100.0" x2="100.0" y1="15.0" y2="10.0" /><path d="M 100.0 14.0 a86.0,86.0 0 0,1 42.46469731375804,11.215312516191453" fill="none" id="id1" stroke="none" /><text fill="#e1ed5e" style="font-size:6.75px; font-family:Arial;" text-anchor="middle"><textPath startOffset="22.20632615414155" xlink:href="#id1">January</textPath></text><line stroke="#e1ed5e" stroke-width="0.3" x1="143.23703022742887" x2="145.7803849466894" y1="26.81831364943548" y2="22.513508569990506" /><path d="M 143.74570117128098 25.957352633546492 a86.0,86.0 0 0,1 28.547481713284135,27.462654790039103" fill="none" id="id2" stroke="none" /><text fill="#e1ed5e" style="font-size:6.75px; font-family:Arial;" text-anchor="middle"><textPath startOffset="19.985693538727396" xlink:href="#id2">February</textPath></text><line stroke="#e1ed5e" stroke-width="0.3" x1="172.23445277983987" x2="176.4835382374775" y1="55.19839476539836" y2="52.563006222186495" /><path d="M 173.08426987136738 54.67131705675599 a86.0,86.0 0 0,1 12.851231095245387,41.99856678651699" fill="none" id="id3" stroke="none" /><text fill="#e1ed5e" style="font-size:6.75px; font-family:Arial;" text-anchor="middle"><textPath startOffset="22.20632615414155" xlink:href="#id3">March</textPath></text><path d="M 120.73433829027371 96.67025291283417 l 7.013288975426947 -1.126270740375377 a28.10314775528926,28.10314775528926 0 0,0 0.07259191150138146,0.47828999772937364 l -7.031636780367628 1.0053816302539214" fill="#ff0b01" stroke="none" /><path d="M 120.94382443527127 98.46500227214037 l 16.123658660190767 -1.1817220624947704 a37.16690556734132,37.16690556734132 0 0,0 0.041271917715480874,0.6384582996753229 l -16.141611168910664 0.9040046985664122" fill="#ff950d" stroke="none" /><path d="M 120.96714384426684 98.82574320788733 l 21.579051201455766 -1.2085264272932974 a42.61286623473425,42.61286623473425 0 0,0 0.03471201829071305,0.7327158434439204 l -21.596656827979974 0.8368994772263773" fill="#ffe115" stroke="none" /><path d="M 120.98425023603335 99.18683210126433 l 20.77570313203058 -0.8050864181756365 a41.791296370620955,41.791296370620955 0 0,0 0.021668400189429168,0.7190687122149829 l -20.786483226675653 0.4473475585356546" fill="#ffd614" stroke="none" /><line stroke="#e1ed5e" stroke-width="0.3" x1="184.98032266829074" x2="189.97916517819016" y1="98.17113171792111" y2="98.06355123074" /><path d="M 185.9800911702706 98.14961562048488 a86.0,86.0 0 0,1 -9.607161424134198,41.387399972396054" fill="none" id="id4" stroke="none" /><text fill="#e1ed5e" style="font-size:6.75px; font-family:Arial;" text-anchor="middle"><textPath startOffset="21.466115282336823" xlink:href="#id4">April</textPath></text><path d="M 120.99513854157772 99.54816195383933 l 20.186599196332235 -0.43443740661374264 a41.19127343615619,41.19127343615619 0 0,0 0.009154256187560638,0.7090072300708418 l -20.19108645963751 0.08689391848243816" fill="#ffce13" stroke="none" /><path d="M 120.99980553446 99.90962569577887 l 20.159781205128247 -0.08675919387319846 a41.159967891749325,41.159967891749325 0 0,0 -0.0030491749339601605,0.7085208700146689 l -20.158287732904785 -0.26027115434515513" fill="#ffcd13" stroke="none" /><path d="M 120.9764740272857 100.99374915477107 l 20.148608292019283 0.9545294616226926 a41.17120577948512,41.17120577948512 0 0,0 -0.039629538436373235,0.7076120303995554 l -20.12919240269538 -1.3012132083576713" fill="#ffce13" stroke="none" /><path d="M 120.95626037817324 101.35467743843564 l 20.033068279637426 1.2949994479612004 a41.07488102746402,41.07488102746402 0 0,0 -0.051682843295166904,0.7051713345523772 l -20.00780887767792 -1.639643919010348" fill="#ffcc13" stroke="none" /><path d="M 120.92983693683757 101.71520430193887 l 20.00540880463889 1.6394472325471932 a41.07247290866349,41.07247290866349 0 0,0 -0.0638098100259063,0.7041359364501659 l -19.97422439833591 -1.9835645575459298" fill="#ffcc13" stroke="none" /><path d="M 120.64145759157962 103.86396538481128 l 7.898297544884957 1.4785171142577191 a29.03549108422682,29.03549108422682 0 0,0 -0.09619052670543651,0.49047342333193034 l -7.8716770852038564 -1.6142542646575944" fill="#ff1a02" stroke="none" /><path d="M 120.5718875245553 104.21870165774334 l 15.739815631185563 3.2277828768312027 a37.06736999025286,37.06736999025286 0 0,0 -0.1335589610604387,0.6239430020067713 l -15.681922631400681 -3.4982396982541433" fill="#ff930d" stroke="none" /><path d="M 119.9155931802556 106.66101706037122 l 7.691728436569104 2.5725939406376104 a29.110544120176595,29.110544120176595 0 0,0 -0.16303175736973277,0.4738466003904584 l -7.646305848256141 -2.704613244117369" fill="#ff1b02" stroke="none" /><path d="M 119.79798401119884 107.00284435728193 l 7.602792132274873 2.689221789095917 a29.06438850983315,29.06438850983315 0 0,0 -0.17089270712775453,0.4702233345183573 l -7.555375164141891 -2.8196929206204056" fill="#ff1a02" stroke="none" /><path d="M 118.97047184881838 109.00673069616215 l 10.887092266810352 5.168933534857656 a33.05183189037326,33.05183189037326 0 0,0 -0.24843447746730238,0.5118486074442139 l -10.796504532728337 -5.355571098267145" fill="#ff5808" stroke="none" /><line stroke="#e1ed5e" stroke-width="0.3" x1="174.80103733775053" x2="179.2010983576182" y1="140.37084112569926" y2="142.7455964860345" /><path d="M 175.68104954172406 140.8457921977663 a86.0,86.0 0 0,1 -30.038265399797805,32.042727171017184" fill="none" id="id5" stroke="none" /><text fill="#e1ed5e" style="font-size:6.75px; font-family:Arial;" text-anchor="middle"><textPath startOffset="22.206326154141568" xlink:href="#id5">May</textPath></text><path d="M 117.14729908036423 112.12312394758627 l 9.895836305844051 6.996346744668978 a33.11925921678802,33.11925921678802 0 0,0 -0.3331169908636284,0.46267036507421405 l -9.77393952260482 -7.165650715194323" fill="#ff5908" stroke="none" /><path d="M 116.71984013943494 112.70617746262583 l 6.826237506614854 5.187572634531905 a29.573705636144716,29.573705636144716 0 0,0 -0.3115000988721332,0.40265586842812867 l -6.735930590524652 -5.304306497073286" fill="#ff2203" stroke="none" /><path d="M 116.498646956653 112.99209946851258 l 9.472934500540283 7.459600027388617 a33.05745083424115,33.05745083424115 0 0,0 -0.35589035746425,0.4440279415807085 l -9.34312623102118 -7.621555802547576" fill="#ff5808" stroke="none" /><path d="M 116.27256486870786 113.27417163493432 l 9.363963374269915 7.63855348042424 a33.08434149418038,33.08434149418038 0 0,0 -0.3637765138997273,0.43819224535285956 l -9.231090860476645 -7.7986069828908695" fill="#ff5808" stroke="none" /><path d="M 115.07121518719521 114.62390073753431 l 4.598012499917759 4.461543250067087 a27.406800068803392,27.406800068803392 0 0,0 -0.3314387530810102,0.33574570701290696 l -4.520533121781213 -4.540029451060659" fill="#ff0000" stroke="none" /><path d="M 114.29624159901734 115.38237550388516 l 11.019114489741995 11.856273946375104 a37.186170517745545,37.186170517745545 0 0,0 -0.47261931737087176,0.43172654072243405 l -10.813395622904258 -12.044193253684123" fill="#ff950d" stroke="none" /><path d="M 113.48314897796784 116.09983520530334 l 10.34988810945665 12.3584997264263 a37.11994725073104,37.11994725073104 0 0,0 -0.4933945764059238,0.4060301462503324 l -10.135623404506035 -12.534824991533812" fill="#ff940d" stroke="none" /><path d="M 112.92097659922987 116.55440617244103 l 4.924358205096096 6.309107151437162 a29.003382833553122,29.003382833553122 0 0,0 -0.39620177673577905,0.3037906274905267 l -4.815027699866823 -6.392937120755061" fill="#ff1902" stroke="none" /><path d="M 112.63410532772338 116.77436683061366 l 9.72470917127709 12.91154654236444 a37.16409609540737,37.16409609540737 0 0,0 -0.5143068993397206,0.3804719487900848 l -9.501017301518806 -13.077028439894296" fill="#ff950d" stroke="none" /><path d="M 112.04921762599082 117.19931262002967 l 12.38382216339435 17.676934339673107 a42.58316610286108,42.58316610286108 0 0,0 -0.6039572787951132,0.41540732353177146 l -12.077707999976354 -17.887482452569973" fill="#ffe115" stroke="none" /><line stroke="#e1ed5e" stroke-width="0.3" x1="143.8653032363475" x2="146.44561519142675" y1="172.8068346515853" y2="177.08958963109032" /><path d="M 144.38136562736335 173.6633856474863 a86.0,86.0 0 0,1 -40.68145358897372,12.25698825130547" fill="none" id="id6" stroke="none" /><text fill="#e1ed5e" style="font-size:6.75px; font-family:Arial;" text-anchor="middle"><textPath startOffset="21.466115282336833" xlink:href="#id6">June</textPath></text><path d="M 110.5260780823613 118.17145234162733 l 8.216790573857855 14.184867064989135 a37.392867381457485,37.392867381457485 0 0,0 -0.5597378080815826,0.31783373568816486 l -7.971403998855074 -14.324203966471927" fill="#ff980e" stroke="none" /><path d="M 107.93186726928326 119.44442032107085 l 4.580269435508753 11.22821160065047 a33.12648357318961,33.12648357318961 0 0,0 -0.5298327455752248,0.21083138396606255 l -4.386315613891662 -11.3053898290226" fill="#ff5908" stroke="none" /><path d="M 107.2578585660854 119.70592522655815 l 5.549474373667006 15.067464605219726 a37.0569348087839,37.0569348087839 0 0,0 -0.6004642884975362,0.21530513035912469 l -5.289290524539735 -15.160757276618812" fill="#ff930d" stroke="none" /><path d="M 105.53697534728816 120.25689768951611 l 3.1675990113406427 11.588588546916 a33.01370334269824,33.01370334269824 0 0,0 -0.5494573731647167,0.14511668619315402 l -2.9676511953644287 -11.641396582412739" fill="#ff5708" stroke="none" /><path d="M 104.83641907484287 120.43548508189849 l 3.7259181715085354 15.743248058525824 a37.17814345507712,37.17814345507712 0 0,0 -0.6240260214712536,0.1420262908325581 l -3.45437200064442 -15.805051082936066" fill="#ff950d" stroke="none" /><path d="M 104.48393922423573 120.51570834832081 l 4.294719611310008 19.64995745419983 a41.113812281405885,41.113812281405885 0 0,0 -0.692686563731005,0.14515920429513932 l -3.9558415861496243 -19.72097263922151" fill="#ffcd13" stroke="none" /><path d="M 104.13013068566511 120.58985236759428 l 12.390392056995317 61.76955710278282 a84.0,84.0 0 0,0 -1.4201295417131825,0.2721712066061275 l -11.32529490071043 -61.973685507737414" fill="#4dd2ff" stroke="none" /><line stroke="#e1ed5e" stroke-width="0.3" x1="102.19456741930631" x2="102.32365962044197" y1="184.97166512339345" y2="189.96999836594603" /><path d="M 102.22038585953345 185.97133177190398 a86.0,86.0 0 0,1 -42.740103519485714,-10.115201625700543" fill="none" id="id7" stroke="none" /><text fill="#e1ed5e" style="font-size:6.75px; font-family:Arial;" text-anchor="middle"><textPath startOffset="22.20632615414155" xlink:href="#id7">July</textPath></text><line stroke="#e1ed5e" stroke-width="0.3" x1="58.666819895761336" x2="56.23545636021788" y1="174.27360380694188" y2="178.64263932499728" /><path d="M 58.180547188652646 175.14741091055294 a86.0,86.0 0 0,1 -31.652253787137756,-30.449443065178592" fill="none" id="id8" stroke="none" /><text fill="#e1ed5e" style="font-size:6.75px; font-family:Arial;" text-anchor="middle"><textPath startOffset="22.20632615414155" xlink:href="#id8">August</textPath></text><line stroke="#e1ed5e" stroke-width="0.3" x1="26.63291911575756" x2="22.317208475507996" y1="142.92168965132927" y2="145.44649492493687" /><path d="M 25.769776987707644 143.4266507060508 a86.0,86.0 0 0,1 -11.730757126820373,-40.83630448921669" fill="none" id="id9" stroke="none" /><text fill="#e1ed5e" style="font-size:6.75px; font-family:Arial;" text-anchor="middle"><textPath startOffset="21.46611528233685" xlink:href="#id9">September</textPath></text><line stroke="#e1ed5e" stroke-width="0.3" x1="15.007084014347285" x2="10.007500721073583" y1="101.09737516637583" y2="101.16192664675087" /><path d="M 14.007167355692545 101.11028546245083 a86.0,86.0 0 0,1 10.666146001902534,-42.60595125391555" fill="none" id="id10" stroke="none" /><text fill="#e1ed5e" style="font-size:6.75px; font-family:Arial;" text-anchor="middle"><textPath startOffset="22.20632615414155" xlink:href="#id10">October</textPath></text><line stroke="#e1ed5e" stroke-width="0.3" x1="26.266209847984243" x2="21.928928074336255" y1="57.711370442889674" y2="55.22380399835377" /><path d="M 25.398753493254645 57.213857153982495 a86.0,86.0 0 0,1 29.58750427330803,-30.492523968695096" fill="none" id="id11" stroke="none" /><text fill="#e1ed5e" style="font-size:6.75px; font-family:Arial;" text-anchor="middle"><textPath startOffset="21.46611528233685" xlink:href="#id11">November</textPath></text><line stroke="#e1ed5e" stroke-width="0.3" x1="56.762969772571076" x2="54.21961505331055" y1="26.818313649435495" y2="22.513508569990535" /><path d="M 56.25429882871897 25.957352633546506 a86.0,86.0 0 0,1 42.265352541879196,-11.944610805530505" fill="none" id="id12" stroke="none" /><text fill="#e1ed5e" style="font-size:6.75px; font-family:Arial;" text-anchor="middle"><textPath startOffset="22.20632615414155" xlink:href="#id12">December</textPath></text></svg>