<?xml version="1.0" encoding="utf-8" ?>
<svg baseProfile="full" height="200mm" version="1.1" viewBox="0,0,200,200" width="200mm" xmlns="http://www.w3.org/2000/svg" xmlns:ev="http://www.w3.org/2001/xml-events" xmlns:xlink="http://www.w3.org/1999/xlink"><defs /><rect fill="#1a1a1a" height="200" width="200" x="0" y="0" /><text alignment-baseline="middle" fill="#e1ed5e" style="dominant-baseline: central; font-size:9.0px; font-family:Arial;" text-anchor="middle" x="100.0" y="100.0">2023</text><line stroke="#e1ed5e" stroke-width="0.3" x1="100.0" x2="100.0" y1="15.0" y2="10.0" /><path d="M 100.0 14.0 a86.0,86.0 0 0,1 42.46469731375804,11.215312516191453" fill="none" id="id13" stroke="none" /><text fill="#e1ed5e" style="font-size:6.75px; font-family:Arial;" text-anchor="middle"><textPath startOffset="22.20632615414155" xlink:href="#id13">January</textPath></text><line stroke="#e1ed5e" stroke-width="0.3" x1="143.23703022742887" x2="145.7803849466894" y1="26.81831364943548" y2="22.513508569990506" /><path d="M 143.74570117128098 25.957352633546492 a86.0,86.0 0 0,1 28.547481713284135,27.462654790039103" fill="none" id="id14" stroke="none" /><text fill="#e1ed5e" style="font-size:6.75px; font-family:Arial;" text-anchor="middle"><textPath startOffset="19.985693538727396" xlink:href="#id14">February</textPath></text><line stroke="#e1ed5e" stroke-width="0.3" x1="172.23445277983987" x2="176.4835382374775" y1="55.19839476539836" y2="52.563006222186495" /><path d="M 173.08426987136738 54.67131705675599 a86.0,86.0 0 0,1 12.851231095245387,41.99856678651699" fill="none" id="id15" stroke="none" /><text fill="#e1ed5e" style="font-size:6.75px; font-family:Arial;" text-anchor="middle"><textPath startOffset="22.20632615414155" xlink:href="#id15">March</textPath></text><path d="M 119.61058180528143 92.48833698450437 l 13.70365633422051 -5.249066523620636 a35.674566306907224,35.674566306907224 0 0,0 0.2147191184946473,0.5753404859363039 l -13.791980041216782 5.012402900654998" fill="red" stroke="none" /><path d="M 119.97218684219823 93.5106431181261 l 6.869646962783568 -2.2320836043749446 a28.223174275220067,28.223174275220067 0 0,0 0.1461483539564007,0.463330220680966 l -6.907050800508174 2.1135032172675596" fill="red" stroke="none" /><path d="M 120.78858239683441 97.02765380044208 l 18.2367089460281 -2.607479985572494 a39.42217427605391,39.42217427605391 0 0,0 0.09026551738247247,0.6725829504304921 l -18.278890462468407 2.2931786930773375" fill="red" stroke="none" /><path d="M 120.91429891909075 98.10471618934814 l 17.682827111229777 -1.6024431935357784 a38.75528650385997,38.75528650385997 0 0,0 0.0544890399404683,0.6649043029507778 l -17.707790634989742 1.2978249733772318" fill="red" stroke="none" /><path d="M 120.94382443527127 98.46500227214037 l 27.074959996408516 -1.9843559233807744 a48.14758050430605,48.14758050430605 0 0,0 0.05346538675846395,0.8270858688131276 l -27.105105974171394 1.5180109903146115" fill="red" stroke="none" /><path d="M 120.96714384426684 98.82574320788733 l 8.350703210639274 -0.46767790772282525 a29.363789017996154,29.363789017996154 0 0,0 0.023919451366228386,0.5049018134220925 l -8.357516270239 0.3238649876777329" fill="red" stroke="none" /><path d="M 120.98425023603335 99.18683210126433 l 19.254320512080135 -0.7461307969681796 a40.268771874411044,40.268771874411044 0 0,0 0.020878985336405424,0.6928718764170136 l -19.264311191872185 0.41458877312616693" fill="red" stroke="none" /><line stroke="#e1ed5e" stroke-width="0.3" x1="184.98032266829074" x2="189.97916517819016" y1="98.17113171792111" y2="98.06355123074" /><path d="M 185.9800911702706 98.14961562048488 a86.0,86.0 0 0,1 -9.607161424134198,41.387399972396054" fill="none" id="id16" stroke="none" /><text fill="#e1ed5e" style="font-size:6.75px; font-family:Arial;" text-anchor="middle"><textPath startOffset="21.466115282336823" xlink:href="#id16">April</textPath></text><path d="M 120.99513854157772 99.54816195383933 l 20.556339330251003 -0.44239461343884634 a41.56109918400337,41.56109918400337 0 0,0 0.00923644543198389,0.715372877627148 l -20.560908782800702 0.08848547775123569" fill="red" stroke="none" /><path d="M 120.99980553446 99.90962569577887 l 11.323143509862406 -0.04873003298152371 a32.32324836612946,32.32324836612946 0 0,0 -0.002394541195012138,0.5564070437154303 l -11.322304671377893 -0.14618648893759123" fill="red" stroke="none" /><path d="M 120.9764740272857 100.99374915477107 l 15.735864341185371 0.7454780945693825 a36.7535127560069,36.7535127560069 0 0,0 -0.03537726716669711,0.6316848703652236 l -15.720700723131143 -1.0162346812700294" fill="red" stroke="none" /><path d="M 120.95626037817324 101.35467743843564 l 18.70426280498219 1.2091013552623673 a39.74330208808303,39.74330208808303 0 0,0 -0.05000737196237942,0.6823108593846635 l -18.680678874355475 -1.5308853511438012" fill="red" stroke="none" /><path d="M 120.92983693683757 101.71520430193887 l 18.224752185453642 1.4935220682604646 a39.28584699677809,39.28584699677809 0 0,0 -0.06103412470794917,0.6735064802606361 l -18.19634346446862 -1.8070099370696713" fill="red" stroke="none" /><path d="M 120.89721153311464 102.0752229133903 l 11.26579417754849 1.1187633420727068 a32.32120796851869,32.32120796851869 0 0,0 -0.059744519335417044,0.553160048810105 l -11.244867356712021 -1.3125197127676032" fill="red" stroke="none" /><path d="M 120.8583938346157 102.4346265915055 l 4.353633857259046 0.5081634205684208 a25.38319037061774,25.38319037061774 0 0,0 -0.05439072653227315,0.43354760597541636 l -4.3442416214799255 -0.583028780831232" fill="red" stroke="none" /><path d="M 120.81339534386255 102.79330883721812 l 10.732865440692372 1.440428502358672 a31.829092059744248,31.829092059744248 0 0,0 -0.07755074764365588,0.5423897483967561 l -10.706480642032115 -1.6249637227358376" fill="red" stroke="none" /><path d="M 120.70491114924044 103.5080841355445 l 21.31568673684103 3.6115693489702094 a42.619480433756074,42.619480433756074 0 0,0 -0.12877893615129332,0.7222606638031557 l -21.25036135835055 -3.9779487635065833" fill="red" stroke="none" /><path d="M 120.5718875245553 104.21870165774334 l 12.594952728946183 2.5828620681199665 a33.85706073359389,33.85706073359389 0 0,0 -0.12199176411296637,0.5699049087863287 l -12.548626926108774 -2.7992807963224644" fill="red" stroke="none" /><path d="M 120.49622156327973 104.57218783832717 l 24.840688824033034 5.541328433938891 a46.45125030455713,46.45125030455713 0 0,0 -0.18080471008155882,0.7789019589324564 l -24.74162354802092 -5.968099050219912" fill="red" stroke="none" /><path d="M 120.41448212921028 104.9243191809786 l 18.426204273787707 4.444712854518674 a39.95469536285076,39.95469536285076 0 0,0 -0.16702715207837593,0.6671904451957009 l -18.34696580741427 -4.7612311391117705" fill="red" stroke="none" /><path d="M 120.32669344350535 105.2749913415812 l 11.072666988914476 2.873473871049013 a32.43944082265378,32.43944082265378 0 0,0 -0.14491458790334436,0.5392810911382708 l -11.021564324669354 -3.063645895362832" fill="red" stroke="none" /><path d="M 120.23288151984713 105.62410040840565 l 47.18442210138198 13.115775296289701 a69.97339329333988,69.97339329333988 0 0,0 -0.3325647558447691,1.1577015434927982 l -46.951664708651116 -13.926034315287083" fill="red" stroke="none" /><path d="M 120.13307415673323 105.97154293290107 l 11.942212605514047 3.542103641624435 a33.45644171195401,33.45644171195401 0 0,0 -0.16851408668256299,0.550713785438418 l -11.87947174632535 -3.74714439961491" fill="red" stroke="none" /><path d="M 120.02730092923936 106.31721596034902 l 20.832416858698906 6.5711738559977295 a42.844219327326634,42.844219327326634 0 0,0 -0.2279062522867554,0.701423320682262 l -20.716218355395903 -6.928796076657787" fill="red" stroke="none" /><path d="M 119.9155931802556 106.66101706037122 l 25.197557172668372 8.427635405468209 a47.569567666738436,47.569567666738436 0 0,0 -0.26641034884166015,0.7743131776538961 l -25.048755992883482 -8.860121286211404" fill="red" stroke="none" /><path d="M 119.67450827220406 107.3425965602758 l 28.574940508624902 10.664269570850621 a51.50006345159339,51.50006345159339 0 0,0 -0.3171072764565903,0.8278670346597937 l -28.387138952574805 -11.154560172343558" fill="red" stroke="none" /><path d="M 119.54520255179757 107.68017299344265 l 7.763412948941226 3.050587698407746 a29.341262849321136,29.341262849321136 0 0,0 -0.18875847168237989,0.46848304674607366 l -7.709751863001453 -3.1837701129966334" fill="red" stroke="none" /><path d="M 119.26925614724726 108.34839909993367 l 3.403404302235446 1.4745238319721932 a24.709094414480266,24.709094414480266 0 0,0 -0.1724446702218472,0.3888172072868687 l -3.377518547282326 -1.5328893757517497" fill="red" stroke="none" /><path d="M 119.12269723197855 108.67885076344098 l 20.263573290285514 9.196638235025846 a43.25287750644199,43.25287750644199 0 0,0 -0.3135326595808558,0.6753214555623419 l -20.102266013864828 -9.544079757867019" fill="red" stroke="none" /><path d="M 118.97047184881838 109.00673069616215 l 37.158786242505336 17.642111558935586 a62.134164574889965,62.134164574889965 0 0,0 -0.4670321681481793,0.9622245967440649 l -36.84960081774245 -18.279125111644923" fill="red" stroke="none" /><path d="M 118.81262510543309 109.33194174019688 l 21.658991883532902 10.743872759690177 a45.17731852971617,45.17731852971617 0 0,0 -0.35156845188645963,0.6936779088796574 l -21.470844761860175 -11.115104880272527" fill="red" stroke="none" /><line stroke="#e1ed5e" stroke-width="0.3" x1="174.80103733775053" x2="179.2010983576182" y1="140.37084112569926" y2="142.7455964860345" /><path d="M 175.68104954172406 140.8457921977663 a86.0,86.0 0 0,1 -30.038265399797805,32.042727171017184" fill="none" id="id17" stroke="none" /><text fill="#e1ed5e" style="font-size:6.75px; font-family:Arial;" text-anchor="middle"><textPath startOffset="22.206326154141568" xlink:href="#id17">May</textPath></text><path d="M 118.30583269289576 110.29060199501025 l 13.130455271468119 7.381269755863163 a36.062934602687655,36.062934602687655 0 0,0 -0.30884984767526924,0.5385057424529665 l -13.001453427640469 -7.606195344174444" fill="red" stroke="none" /><path d="M 118.12598468904814 110.60418214915192 l 16.684908445119888 9.76111429691745 a40.330429952267465,40.330429952267465 0 0,0 -0.3557127104034747,0.5961949631930982 l -16.514414859018185 -10.046871353996652" fill="red" stroke="none" /><path d="M 117.94076556474637 110.91462005526583 l 12.498543556329238 7.60373651108757 a35.62977785065465,35.62977785065465 0 0,0 -0.3232729791107104,0.5212189746838775 l -12.365805937550565 -7.817751817136721" fill="red" stroke="none" /><path d="M 117.75023020441432 111.22182372390056 l 28.70127347092008 18.14515236326511 a54.9559958348838,54.9559958348838 0 0,0 -0.5123865101305394,0.7952352423346565 l -28.384682097412487 -18.63650920552122" fill="red" stroke="none" /><path d="M 117.55443506779139 111.5257021239791 l 36.382414792010465 23.887574497521104 a64.52351458088515,64.52351458088515 0 0,0 -0.6175726694639988,0.9231873474885411 l -35.96583901713574 -24.510298759215452" fill="red" stroke="none" /><path d="M 117.14729908036423 112.12312394758627 l 26.75294833074145 18.914308723310644 a53.763872159255335,53.763872159255335 0 0,0 -0.5407626781033076,0.7510720634450974 l -26.42340586026254 -19.37201439220687" fill="red" stroke="none" /><path d="M 116.93607887273984 112.41649034213515 l 50.80823661821952 37.24947102640542 a84.0,84.0 0 0,0 -0.8649549332196318,1.15874848196274 l -50.159520418304794 -38.11853238787748" fill="red" stroke="none" /><path d="M 116.71984013943494 112.70617746262583 l 9.01856716449456 6.853625028411954 a32.32725605478106,32.32725605478106 0 0,0 -0.3405032693982615,0.4401463759998809 l -8.899257077878229 -7.007849398525087" fill="red" stroke="none" /><path d="M 116.498646956653 112.99209946851258 l 23.68087238213038 18.64784732336648 a51.14176382653032,51.14176382653032 0 0,0 -0.5505827022428342,0.6869365770085181 l -23.356371767832695 -19.05271173395325" fill="red" stroke="none" /><path d="M 116.27256486870786 113.27417163493432 l 25.881558640287622 21.112606054590326 a54.40055706222534,54.40055706222534 0 0,0 -0.598157439699399,0.7205191692189501 l -25.51430520069468 -21.55498648092305" fill="red" stroke="none" /><path d="M 116.0416608686014 113.55231037782055 l 19.26567319795363 16.276019357033693 a46.22052675661007,46.22052675661007 0 0,0 -0.5186768257990191,0.6033383272763888 l -18.982653862583835 -16.60523478347161" fill="red" stroke="none" /><path d="M 115.80600337817218 113.82643327865902 l 10.406983412283045 9.103595535146754 a34.82681291589202,34.82681291589202 0 0,0 -0.3985864894898856,0.44781614632825034 l -10.248738073144821 -9.281385851215871" fill="red" stroke="none" /><path d="M 115.07121518719521 114.62390073753431 l 15.65670687926119 15.192015005765228 a42.815815140363206,42.815815140363206 0 0,0 -0.5177846500373512,0.5245131168011913 l -15.392881604168302 -15.459268616547083" fill="red" stroke="none" /><path d="M 114.81725581225074 114.88116024355365 l 38.63036692197302 38.7969734556289 a75.74952417914736,75.74952417914736 0 0,0 -0.9318996751996974,0.9120599710648358 l -37.95681729439753 -39.45618352961631" fill="red" stroke="none" /><path d="M 114.55890576462653 115.13401014063108 l 12.556486021087824 13.052491021375205 a39.11167753304078,39.11167753304078 0 0,0 -0.4892017211805692,0.4625707618080979 l -12.329948465516447 -13.266696419929223" fill="red" stroke="none" /><path d="M 114.29624159901734 115.38237550388516 l 15.313569862753114 16.476993642163883 a43.494371327630596,43.494371327630596 0 0,0 -0.5527936810952438,0.5049639210688317 l -15.027676632191007 -16.738150329819298" fill="red" stroke="none" /><path d="M 113.75828350139079 115.86535959552629 l 21.501392242928663 24.794322613285225 a53.81871877809888,53.81871877809888 0 0,0 -0.705113692487912,0.6009131858530703 l -21.071413073863702 -25.16076018936124" fill="red" stroke="none" /><path d="M 113.48314897796784 116.09983520530334 l 11.652993658812182 13.914500081686217 a39.149533705733674,39.149533705733674 0 0,0 -0.5203716338484153,0.42823042793678295 l -11.411751896419075 -14.113025628480178" fill="red" stroke="none" /><path d="M 113.20401910651253 116.32954008644616 l 15.464971833860117 19.12568252587752 a45.5958753839489,45.5958753839489 0 0,0 -0.6145509947819099,0.4882364778618387 l -15.133463346360857 -19.389052917744486" fill="red" stroke="none" /><path d="M 112.92097659922987 116.55440617244103 l 22.448652480805592 28.76130208403763 a57.484990006484125,57.484990006484125 0 0,0 -0.7852758178904241,0.6021160112796773 l -21.95024793442167 -29.14345743714468" fill="red" stroke="none" /><path d="M 112.63410532772338 116.77436683061366 l 20.198246040916786 26.817315483500188 a54.572869297559144,54.572869297559144 0 0,0 -0.7552236202501893,0.5586963794142916 l -19.733637450248033 -27.161021811654248" fill="red" stroke="none" /><path d="M 111.7513745106137 117.40417183066458 l 12.190233037178904 18.05413573052961 a42.784251157134456,42.784251157134456 0 0,0 -0.6139036842432656,0.40686188677170476 l -11.877654654195673 -18.26129563839263" fill="red" stroke="none" /><path d="M 111.45004920935366 117.60387380957326 l 5.9614085521288525 9.165365315046625 a31.93354074779322,31.93354074779322 0 0,0 -0.46336814242516505,0.2957434720006066 l -5.802758607656757 -9.266623215871041" fill="red" stroke="none" /><path d="M 111.1453310114006 117.79835938074945 l 27.039903325566602 43.18094424623799 a71.94850653211242,71.94850653211242 0 0,0 -1.055316025985561,0.6482612966833068 l -26.29260809964873 -43.63999400974968" fill="red" stroke="none" /><line stroke="#e1ed5e" stroke-width="0.3" x1="143.8653032363475" x2="146.44561519142675" y1="172.8068346515853" y2="177.08958963109032" /><path d="M 144.38136562736335 173.6633856474863 a86.0,86.0 0 0,1 -40.68145358897372,12.25698825130547" fill="none" id="id18" stroke="none" /><text fill="#e1ed5e" style="font-size:6.75px; font-family:Arial;" text-anchor="middle"><textPath startOffset="21.466115282336833" xlink:href="#id18">June</textPath></text><path d="M 110.5260780823613 118.17145234162733 l 9.115766436100678 15.736793329377461 a39.18636472770407,39.18636472770407 0 0,0 -0.5865848605728288,0.3330781927577244 l -8.843532808606652 -15.891374687929813" fill="red" stroke="none" /><path d="M 108.2653958097858 119.30500536409082 l 4.361407664433797 10.186686795712356 a32.08108589847233,32.08108589847233 0 0,0 -0.5095217979740028,0.2129801528765745 l -4.185414406962333 -10.260251991608904" fill="red" stroke="none" /><line stroke="#e1ed5e" stroke-width="0.3" x1="102.19456741930631" x2="102.32365962044197" y1="184.97166512339345" y2="189.96999836594603" /><path d="M 102.22038585953345 185.97133177190398 a86.0,86.0 0 0,1 -42.740103519485714,-10.115201625700543" fill="none" id="id19" stroke="none" /><text fill="#e1ed5e" style="font-size:6.75px; font-family:Arial;" text-anchor="middle"><textPath startOffset="22.20632615414155" xlink:href="#id19">July</textPath></text><line stroke="#e1ed5e" stroke-width="0.3" x1="58.666819895761336" x2="56.23545636021788" y1="174.27360380694188" y2="178.64263932499728" /><path d="M 58.180547188652646 175.14741091055294 a86.0,86.0 0 0,1 -31.652253787137756,-30.449443065178592" fill="none" id="id20" stroke="none" /><text fill="#e1ed5e" style="font-size:6.75px; font-family:Arial;" text-anchor="middle"><textPath startOffset="22.20632615414155" xlink:href="#id20">August</textPath></text><line stroke="#e1ed5e" stroke-width="0.3" x1="26.63291911575756" x2="22.317208475507996" y1="142.92168965132927" y2="145.44649492493687" /><path d="M 25.769776987707644 143.4266507060508 a86.0,86.0 0 0,1 -11.730757126820373,-40.83630448921669" fill="none" id="id21" stroke="none" /><text fill="#e1ed5e" style="font-size:6.75px; font-family:Arial;" text-anchor="middle"><textPath startOffset="21.46611528233685" xlink:href="#id21">September</textPath></text><path d="M 79.29508885075956 103.50808413554451 l -20.38668472732489 3.454166248421677 a41.67723817735525,41.67723817735525 0 0,0 -0.11375553216155423,-0.7083558073581447 l 20.443122013847734 -3.1027312113703185" fill="red" stroke="none" /><line stroke="#e1ed5e" stroke-width="0.3" x1="15.007084014347285" x2="10.007500721073583" y1="101.09737516637583" y2="101.16192664675087" /><path d="M 14.007167355692545 101.11028546245083 a86.0,86.0 0 0,1 10.666146001902534,-42.60595125391555" fill="none" id="id22" stroke="none" /><text fill="#e1ed5e" style="font-size:6.75px; font-family:Arial;" text-anchor="middle"><textPath startOffset="22.20632615414155" xlink:href="#id22">October</textPath></text><path d="M 80.38941819471856 92.48833698450439 l -3.4346054944341775 -1.315595800345455 a24.67794877782223,24.67794877782223 0 0,0 0.1553611430532065,-0.3953771630204604 l 3.4114508014992797 1.3745219682616787" fill="red" stroke="none" /><path d="M 80.52162464483688 92.15188598940014 l -6.797874617945411 -2.7389602088788636 a28.328915495974027,28.328915495974027 0 0,0 0.18613218916561394,-0.45073385993734133 l 6.749720741893597 2.8555686392695163" fill="red" stroke="none" /><path d="M 80.65960295795068 91.81776055985345 l -10.141954596430077 -4.290703066677716 a32.01223754931062,32.01223754931062 0 0,0 0.219069330217091,-0.5056422180382533 l 10.066594556370307 4.464644429302569" fill="red" stroke="none" /><path d="M 80.803312248108 91.48605970444005 l -16.730995264611533 -7.420378797074474 a39.302683520088685,39.302683520088685 0 0,0 0.2796061835725672,-0.6160751622980304 l 16.60078676407561 7.707275968214575" fill="red" stroke="none" /><path d="M 80.95270993114464 91.15688171328213 l -9.91733119601821 -4.6043364981534385 a31.934046489737632,31.934046489737632 0 0,0 0.23576724979573319,-0.49658595621484114 l 9.836605752380725 4.774364870008812" fill="red" stroke="none" /><path d="M 81.26839172434947 90.50648371742162 l -17.82458933881356 -9.033822757134441 a40.983141362275006,40.983141362275006 0 0,0 0.3243338806607457,-0.6265098240357615 l 17.666446024992702 9.339305303430537" fill="red" stroke="none" /><path d="M 81.43458229118936 90.18545643968196 l -10.399460564918316 -5.497638691412949 a32.76319732141784,32.76319732141784 0 0,0 0.26786550589497626,-0.4963141007035051 l 10.303286959804868 5.675833775448927" fill="red" stroke="none" /><path d="M 81.6062741919709 89.86733742301443 l -11.19399951773567 -6.166505969695557 a33.7801181949682,33.7801181949682 0 0,0 0.2849471340227213,-0.5068891561707858 l 11.086194742420517 6.358278635801127" fill="red" stroke="none" /><line stroke="#e1ed5e" stroke-width="0.3" x1="26.266209847984243" x2="21.928928074336255" y1="57.711370442889674" y2="55.22380399835377" /><path d="M 25.398753493254645 57.213857153982495 a86.0,86.0 0 0,1 29.58750427330803,-30.492523968695096" fill="none" id="id23" stroke="none" /><text fill="#e1ed5e" style="font-size:6.75px; font-family:Arial;" text-anchor="middle"><textPath startOffset="21.46611528233685" xlink:href="#id23">November</textPath></text><path d="M 81.78341655067845 89.55222093294921 l -22.705730266607056 -13.022444853148018 a47.17506937704649,47.17506937704649 0 0,0 0.41006440576052716,-0.7009329937748556 l 22.478206186376205 13.411357259276766" fill="red" stroke="none" /><path d="M 81.96595687620814 89.24020034530311 l -16.162020270247808 -9.64287924395581 a39.820096156221275,39.820096156221275 0 0,0 0.35626509421322455,-0.5856061412873443 l 15.993639377748368 9.91965315845023" fill="red" stroke="none" /><path d="M 82.15384107792192 88.93136811851018 l -3.2064943471355627 -1.988747590643376 a24.773158223226552,24.773158223226552 0 0,0 0.22788050107427474,-0.3604522270787999 l 3.1717862498153253 2.0436474654363916" fill="red" stroke="none" /><path d="M 82.54541684631803 88.32363383020206 l -6.464923736880923 -4.324756205691252 a28.778094571445592,28.778094571445592 0 0,0 0.2789769514008361,-0.4093642522330069 l 6.389522319811347 4.435398481194675" fill="red" stroke="none" /><path d="M 82.7489923806493 88.02491185347247 l -6.155735943266969 -4.273111585939013 a28.493501693408437,28.493501693408437 0 0,0 0.28315401052434125,-0.4005012672688355 l 6.081269312938749 4.378439353539635" fill="red" stroke="none" /><path d="M 86.10567301691215 84.25364557470407 l -7.245437434461067 -8.211209218568134 a31.950813688844683,31.950813688844683 0 0,0 0.4155221598430972,-0.36033672239257575 l 7.103021475971197 8.334710934380391" fill="red" stroke="none" /><path d="M 86.37877921826538 84.01681056812374 l -7.129115729179753 -8.365330024900896 a31.99104351304036,31.99104351304036 0 0,0 0.4221941235453467,-0.35357543681623116 l 6.984064068675296 8.486806619110938" fill="red" stroke="none" /><path d="M 88.39885842347998 82.49532879139004 l -3.4549776573338593 -5.213129029226471 a27.254085455767285,27.254085455767285 0 0,0 0.39328031310430295,-0.2558004554466525 l 3.3647303184452695 5.271828408832659" fill="red" stroke="none" /><path d="M 88.70189139769569 82.29822771554957 l -4.009487308845064 -6.282027710735009 a28.45250700356814,28.45250700356814 0 0,0 0.4151096768041867,-0.2599416415325479 l 3.900758479668635 6.350113693590488" fill="red" stroke="none" /><path d="M 89.00827224532344 82.1063720568725 l -3.5122379228469236 -5.7176342101838316 a27.710227729976722,27.710227729976722 0 0,0 0.4085779837594473,-0.24616366360480696 l 3.413297872869827 5.777244483247258" fill="red" stroke="none" /><line stroke="#e1ed5e" stroke-width="0.3" x1="56.762969772571076" x2="54.21961505331055" y1="26.818313649435495" y2="22.513508569990535" /><path d="M 56.25429882871897 25.957352633546506 a86.0,86.0 0 0,1 42.265352541879196,-11.944610805530505" fill="none" id="id24" stroke="none" /><text fill="#e1ed5e" style="font-size:6.75px; font-family:Arial;" text-anchor="middle"><textPath startOffset="22.20632615414155" xlink:href="#id24">December</textPath></text><path d="M 89.3179101791058 81.91981866633112 l -6.475097635654289 -10.959553923320227 a33.729442705374794,33.729442705374794 0 0,0 0.5024133281126194,-0.2910302281792625 l 6.28548757507635 11.069388308889538" fill="red" stroke="none" /><path d="M 89.63071344664047 81.73862282372117 l -5.6844478194564365 -10.010895651865063 a32.51220998612577,32.51220998612577 0 0,0 0.4890392355070673,-0.2721498050881388 l 5.511284494877324 10.107260854513386" fill="red" stroke="none" /><path d="M 89.94658935756843 81.56283822128135 l -2.6199353046703706 -4.804754603190172 a26.4726344476436,26.4726344476436 0 0,0 0.4019490773845991,-0.21470727676077686 l 2.5368411807574662 4.849140606452697" fill="red" stroke="none" /><path d="M 90.58718382345135 81.22770947309562 l -4.880652941506492 -9.733647535497148 a31.88874039917959,31.88874039917959 0 0,0 0.492800596113295,-0.241815112303302 l 4.712381078382771 9.816217807935281" fill="red" stroke="none" /><path d="M 90.91171255644093 81.06846463323043 l -2.880229426555236 -5.999718383894718 a27.655249224156744,27.655249224156744 0 0,0 0.43092381514684214,-0.20232450926896373 l 2.776527400108785 6.048407875803689" fill="red" stroke="none" /><path d="M 91.23893434514133 80.91482961587045 l -1.5789495282597485 -3.4395953599624502 a24.784692570482694,24.784692570482694 0 0,0 0.38925879990708945,-0.17464907689664144 l 1.5195086098858848 3.4662647673756206" fill="red" stroke="none" /><path d="M 91.56875222667455 80.76684994638697 l -4.5556724466375655 -10.39228523665266 a32.346970691819095,32.346970691819095 0 0,0 0.5118773212939216,-0.21915915519075915 l 4.376111367553335 10.469163919806205" fill="red" stroke="none" /><path d="M 92.91201910852362 80.23233633223022 l -2.851948517546786 -7.953796709646131 a29.44964451590213,29.44964451590213 0 0,0 0.478652078438875,-0.16699231158739694 l 2.7146144350446257 8.001709874405737" fill="red" stroke="none" /><path d="M 93.25333710446033 80.11325718540243 l -1.9532970647038088 -5.757619280482192 a27.0799300326534,27.0799300326534 0 0,0 0.4427145310801708,-0.1459560203674553 l 1.8538997113812286 5.790389025108881" fill="red" stroke="none" /></svg>