<?xml version="1.0" encoding="utf-8" ?>
<svg baseProfile="full" height="200mm" version="1.1" viewBox="0,0,200,200" width="200mm" xmlns="http://www.w3.org/2000/svg" xmlns:ev="http://www.w3.org/2001/xml-events" xmlns:xlink="http://www.w3.org/1999/xlink"><defs /><rect fill="#1a1a1a" height="200" width="200" x="0" y="0" /><rect fill="#1a1a1a" height="200" width="180" x="10" y="0" /><text alignment-baseline="middle" fill="#e1ed5e" style="dominant-baseline: central; font-size:9.0px; font-family:Arial;" text-anchor="middle" x="100.0" y="100.0">2026</text><line stroke="#e1ed5e" stroke-width="0.3" x1="100.0" x2="100.0" y1="15.0" y2="10.0" /><path d="M 100.0 14.0 a86.0,86.0 0 0,1 42.46469731375804,11.215312516191453" fill="none" id="id169" stroke="none" /><text fill="#e1ed5e" style="font-size:6.75px; font-family:Arial;" text-anchor="middle"><textPath startOffset="22.20632615414155" xlink:href="#id169">January</textPath></text><path d="M 100.0 79.0 l 0.0 -50.154572288211725 a71.15457228821172,71.15457228821172 0 0,0 1.2248089949130734,0.010542317705216813 l -0.863328515640545 50.14714134711507" fill="red" stroke="none" /><path d="M 100.36148047927253 79.00311137660856 l 0.5240742741102222 -30.441281880621112 a51.44579275335453,51.44579275335453 0 0,0 0.8852923443974864,0.02286448938895933 l -1.0479932537025765 30.427750599089794" fill="red" stroke="none" /><path d="M 100.72285384407766 79.0124445844662 l 0.9302405078379101 -27.00888204161631 a48.02489697557359,48.02489697557359 0 0,0 0.8259348483945842,0.03556649197197582 l -1.3950161886218257 26.98886782312014" fill="red" stroke="none" /><path d="M 101.08401301168833 79.027996857942 l 1.4009054634931806 -27.10280546941659 a48.138986724464914,48.138986724464914 0 0,0 0.8271606352663353,0.049896588396978366 l -1.8672281475991277 27.074675611639307" fill="red" stroke="none" /><path d="M 101.44485096284872 79.0497635885617 l 1.8622834851758265 -27.002978357454232 a48.06711916610817,48.06711916610817 0 0,0 0.8249457769788013,0.06403166933465275 l -2.326819451516969 26.966921425931115" fill="red" stroke="none" /><path d="M 101.80526077348638 79.07773832637324 l 3.0946775931178068 -35.86609499838492 a56.99935832537182,56.99935832537182 0 0,0 0.9767922301562293,0.0927581920835155 l -3.7115949503642804 35.80751126178623" fill="red" stroke="none" /><path d="M 102.16513564639614 79.11191278185805 l 2.7885356517010798 -26.902321801676887 a48.04645724308061,48.04645724308061 0 0,0 0.8218993914338516,0.09234997313011875 l -3.2512017466446568 26.85033587507617" fill="red" stroke="none" /><path d="M 102.52436894288641 79.15227682838746 l 3.5213883069165184 -29.081695371520205 a50.294115130687736,50.294115130687736 0 0,0 0.858557119861059,0.11146535491229387 l -4.021460155285423 29.016771693443776" fill="red" stroke="none" /><path d="M 102.88285421437855 79.19881850522331 l 2.091445391563234 -15.090785707906191 a36.23502402714997,36.23502402714997 0 0,0 0.6170842184296095,0.09094217299002968 l -2.350898590421499 15.052549050755193" fill="red" stroke="none" /><path d="M 103.59715602781102 79.31037775812273 l 4.6685729182403355 -26.85204904659904 a48.254873162315164,48.254873162315164 0 0,0 0.817127063194284,0.14932474785401031 l -5.1300951025375205 26.76770881739429" fill="red" stroke="none" /><path d="M 103.95276090670814 79.375362276772 l 3.6376853535347133 -18.980642730103277 a40.32608478660754,40.32608478660754 0 0,0 0.6806151915738305,0.1365250045344224 l -3.9638669545756695 18.915213769491647" fill="red" stroke="none" /><path d="M 104.307194497241 79.44645832069477 l 5.53574205286438 -26.416059242811652 a47.98986154087468,47.98986154087468 0 0,0 0.8070461319059371,0.17638902567636344 l -5.9896309089238455 26.316856719039418" fill="red" stroke="none" /><path d="M 104.66035177308747 79.52364482259891 l 8.425236048529845 -37.01826260828535 a58.96493604642873,58.96493604642873 0 0,0 0.9877365619477759,0.23376533172463995 l -9.061196297440144 36.86775136441984" fill="red" stroke="none" /><path d="M 105.01212808612495 79.60689891045804 l 4.521271297984435 -18.3959270490883 a39.943390038357876,39.943390038357876 0 0,0 0.6662768802963752,0.16984881206112615 l -4.837257066965836 18.315375240858305" fill="red" stroke="none" /><path d="M 105.71112130821622 79.79150937346287 l 4.904809909612944 -17.355401808881883 a39.035163769624546,39.035163769624546 0 0,0 0.6450277943251324,0.1883013009902404 l -5.202827921661504 17.268402178972938" fill="red" stroke="none" /><path d="M 106.0581310904928 79.89281104454417 l 8.45239254159145 -28.053842252799484 a50.299505197564486,50.299505197564486 0 0,0 0.8268630923625007,0.2569103877603201 l -8.93404100666467 27.904191730156644" fill="red" stroke="none" /><path d="M 106.40334571778207 80.00007090966166 l 6.515015523609153 -20.348713662733275 a42.36622509945957,42.36622509945957 0 0,0 0.6926215634947103,0.22834643981917613 l -6.864319909346281 20.23355349865486" fill="red" stroke="none" /><path d="M 106.74666289553966 80.11325718540242 l 8.690360611769504 -25.616066658173416 a48.05005062099845,48.05005062099845 0 0,0 0.780968903934164,0.2724647158562256 l -9.130011519766942 25.462681089144983" fill="red" stroke="none" /><path d="M 107.4271985657038 80.35727306442388 l 9.572993745154882 -25.31771574821721 a48.06711916610817,48.06711916610817 0 0,0 0.7714013509021723,0.29929173971100853 l -10.007378261056722 25.149181304615656" fill="red" stroke="none" /><path d="M 107.76421540070413 80.48803036053334 l 6.670367660697051 -16.763060343199342 a39.04145218098076,39.04145218098076 0 0,0 0.6222763714127567,0.2538421563284418 l -6.957927901698194 16.645757300687322" fill="red" stroke="none" /><path d="M 108.09893153111575 80.62456947434976 l 13.887446198858262 -33.22354905346565 a57.00924011464587,57.00924011464587 0 0,0 0.902147449815654,0.3862524568568769 l -14.45727740646423 32.97957706864599" fill="red" stroke="none" /><path d="M 108.43124777332544 80.76684994638697 l 5.633375307144118 -12.850713856780304 a35.03124242467453,35.03124242467453 0 0,0 0.550187150665848,0.24685293693326693 l -5.853744576276747 12.751840589330506" fill="red" stroke="none" /><path d="M 108.76106565485865 80.91482961587045 l 15.020575909342432 -32.72093393553928 a57.00385004776911,57.00385004776911 0 0,0 0.8882334178781194,0.4170374996036037 l -15.581587538520148 32.457531453295665" fill="red" stroke="none" /><path d="M 109.08828744355905 81.06846463323043 l 21.610812039427643 -45.0168257738134 a70.93537623522367,70.93537623522367 0 0,0 1.0962175130359744,0.5379091728263637 l -22.38250081947405 44.6381614408522" fill="red" stroke="none" /><path d="M 109.41281617654863 81.2277094730956 l 8.087916228186156 -16.12999875330042 a39.04414721441914,39.04414721441914 0 0,0 0.598192613680003,0.3064174906540659 l -8.364369329454915 15.988388737333851" fill="red" stroke="none" /><path d="M 109.73455568895987 81.39251694778311 l 5.5080908653141565 -10.52864770629866 a32.882402429807925,32.882402429807925 0 0,0 0.49927223318065495,0.26669393607270003 l -5.688508145023123 10.432275043724205" fill="red" stroke="none" /><line stroke="#e1ed5e" stroke-width="0.3" x1="143.23703022742887" x2="145.7803849466894" y1="26.81831364943548" y2="22.513508569990506" /><path d="M 143.74570117128098 25.957352633546492 a86.0,86.0 0 0,1 28.547481713284135,27.462654790039103" fill="none" id="id170" stroke="none" /><text fill="#e1ed5e" style="font-size:6.75px; font-family:Arial;" text-anchor="middle"><textPath startOffset="19.985693538727396" xlink:href="#id170">February</textPath></text><path d="M 110.68208982089419 81.91981866633111 l 4.60388947277912 -7.792403724709347 a30.050820630552266,30.050820630552266 0 0,0 0.44308923850040927,0.2669563084371685 l -4.737340777497167 7.712000806813564" fill="red" stroke="none" /><path d="M 110.99172775467656 82.1063720568725 l 9.56731243669825 -15.574797063646214 a39.27861512355801,39.27861512355801 0 0,0 0.5730578759618735,0.3588487893548946 l -9.833989465032387 15.407803932968374" fill="red" stroke="none" /><path d="M 111.2981086023043 82.29822771554956 l 14.532284623511764 -22.769049425295776 a48.0114218083817,48.0114218083817 0 0,0 0.6928116165199705,0.45062394719346344 l -14.922063265816014 22.515526553942784" fill="red" stroke="none" /><path d="M 111.60114157652 82.49532879139004 l 19.889798176379347 -30.011217015728313 a57.00385004776911,57.00385004776911 0 0,0 0.8132421845269072,0.549104753227456 l -20.403445055312798 29.66440035020219" fill="red" stroke="none" /><path d="M 111.90073688211348 82.69761687909136 l 5.149988776374674 -7.487526172529699 a30.087652754210097,30.087652754210097 0 0,0 0.42419128874008616,0.2971731060418378 l -5.278111204698412 7.397768223723926" fill="red" stroke="none" /><path d="M 112.19680574252982 82.90503203632743 l 10.466479909672811 -14.669753911417752 a39.0207902579532,39.0207902579532 0 0,0 0.543419660500708,0.3948174939079969 l -10.717444886527307 14.48741718269308" fill="red" stroke="none" /><path d="M 112.48926042617603 83.11751280151076 l 16.068687557686705 -21.721014914590086 a48.018608564217374,48.018608564217374 0 0,0 0.660264662575639,0.49729765512998675 l -16.440198374020728 21.44120066995425" fill="red" stroke="none" /><path d="M 112.77801427241765 83.33499621200491 l 5.48261702658026 -7.150393759796553 a30.0103951289766,30.0103951289766 0 0,0 0.4072374104076353,0.31785525831592787 l -5.604886992147326 7.054960112257401" fill="red" stroke="none" /><path d="M 113.06298171725822 83.55741782278167 l 14.014452729418027 -17.640213824058165 a43.529581200359345,43.529581200359345 0 0,0 0.5826674922539062,0.47114325692798326 l -14.316023620236425 17.396364469866054" fill="red" stroke="none" /><path d="M 113.34407831869373 83.78471172551755 l 8.24517106625842 -10.019262666084982 a33.97568766130988,33.97568766130988 0 0,0 0.44838598866491164,0.3755103706161483 l -8.41641459188245 9.875851138075015" fill="red" stroke="none" /><path d="M 113.6212207817346 84.01681056812373 l 23.677138640719424 -27.782839597378846 a57.50332957834848,57.50332957834848 0 0,0 0.7478340907764724,0.6485143542418559 l -24.151866530142662 27.37116024971732" fill="red" stroke="none" /><path d="M 113.89432698308785 84.25364557470407 l 13.63141475124998 -15.44839762679079 a41.60263229191918,41.60263229191918 0 0,0 0.5328881416005007,0.4784322350621389 l -13.895313880446471 15.211466382959353" fill="red" stroke="none" /><path d="M 114.16331599549186 84.49514656593476 l 6.096997627057331 -6.674500140041857 a30.040040496798756,30.040040496798756 0 0,0 0.37877932828742117,0.35203410478067865 l -6.210984839139599 6.5685614491865385" fill="red" stroke="none" /><path d="M 114.68862486808459 84.99185889309783 l 6.314962993522657 -6.452330054230073 a30.028362018565787,30.028362018565787 0 0,0 0.36629482517961276,0.3647218387921794 l -6.425093618869592 6.3426723647877745" fill="red" stroke="none" /><path d="M 114.94478906791727 85.2469230424477 l 12.81822159784431 -12.65378914567113 a39.01180681315861,39.01180681315861 0 0,0 0.4676507577325023,0.4819552135054921 l -13.034136619279922 12.431269736615524" fill="red" stroke="none" /><path d="M 115.19652480421416 85.50635884689758 l 6.540471248208246 -6.237955352622884 a30.03824380783984,30.03824380783984 0 0,0 0.353639783805543,0.3772382645428934 l -6.646878353984252 6.124447671201936" fill="red" stroke="none" /><path d="M 115.4437574822437 85.77008943001954 l 19.89372835654246 -18.330123076755054 a48.0509489654779,48.0509489654779 0 0,0 0.5552318257575016,0.6131008497310928 l -20.206303822916 17.984969439754412" fill="red" stroke="none" /><path d="M 115.68641384162765 86.03803664274999 l 33.6270688487635 -29.930352967752828 a66.01783855466354,66.01783855466354 0 0,0 0.7482277488101882,0.8553536611347247 l -34.137288461151535 29.347083750415155" fill="red" stroke="none" /><path d="M 115.9244219780498 86.31012108654704 l 13.686387740920251 -11.765889599888071 a39.04863893681644,39.04863893681644 0 0,0 0.43379204865395116,0.5134729605507742 l -13.886890403061319 11.52855768970819" fill="red" stroke="none" /><path d="M 116.15771136456269 86.58626213691792 l 10.611295678054722 -8.809238845871294 a34.7913844486589,34.7913844486589 0 0,0 0.3785658956794256,0.464077025967614 l -10.761360065810557 8.62527765029558" fill="red" stroke="none" /><path d="M 116.38621287248628 86.86637796730983 l 14.169497939701312 -11.356915217761518 a39.15913530778993,39.15913530778993 0 0,0 0.4170371818598116,0.5295948701730699 l -14.362889202155088 11.11132795363541" fill="red" stroke="none" /><path d="M 116.60985879189232 87.15038557335679 l 21.731916802607767 -16.81210870990101 a48.47586590426215,48.47586590426215 0 0,0 0.5048970567491282,0.6643853433141035 l -22.01808979958101 16.435538590705875" fill="red" stroke="none" /><path d="M 116.82858285166822 87.43820079747576 l 21.667499322798406 -16.173838172406914 a48.03837214276548,48.03837214276548 0 0,0 0.48893315051870867,0.6669042678333924 l -21.942695085830742 15.798471460902027" fill="red" stroke="none" /><path d="M 117.04232023915458 87.72973835380427 l 29.250608420283765 -21.06007947220117 a57.043377204865315,57.043377204865315 0 0,0 0.5668682355439165,0.8017949182120814 l -29.608789275631562 20.553458053657298" fill="red" stroke="none" /><path d="M 117.2510076193507 88.02491185347247 l 22.226148133280287 -15.428668801656213 a48.056339032354664,48.056339032354664 0 0,0 0.4658616617388622,0.6835945042920242 l -22.48843426068788 15.043796274093783" fill="red" stroke="none" /><path d="M 117.45458315368197 88.32363383020206 l 22.44662031824155 -15.01582454319036 a48.00603174150494,48.00603174150494 0 0,0 0.453550391458516,0.6907883624951047 l -22.70176734505799 14.62721811671758" fill="red" stroke="none" /><path d="M 117.65298651832404 88.62581576622439 l 30.483741681124208 -19.64130509339161 a57.26347160233284,57.26347160233284 0 0,0 0.5267486884154329,0.833189926102074 l -30.817317965785595 19.11366751957533" fill="red" stroke="none" /><line stroke="#e1ed5e" stroke-width="0.3" x1="172.23445277983987" x2="176.4835382374775" y1="55.19839476539836" y2="52.563006222186495" /><path d="M 173.08426987136738 54.67131705675599 a86.0,86.0 0 0,1 12.851231095245387,41.99856678651699" fill="none" id="id171" stroke="none" /><text fill="#e1ed5e" style="font-size:6.75px; font-family:Arial;" text-anchor="middle"><textPath startOffset="22.20632615414155" xlink:href="#id171">March</textPath></text><path d="M 117.84615892207809 88.93136811851018 l 29.102657571127722 -18.050192471913473 a55.2457899014673,55.2457899014673 0 0,0 0.49427672065162737,0.8124609674382799 l -29.409050090065573 17.54656373126811" fill="red" stroke="none" /><path d="M 118.03404312379186 89.2402003453031 l 30.908779723996673 -18.441359772651737 a56.99217156953614,56.99217156953614 0 0,0 0.4953985500450516,0.8467967078263946 l -31.22163794851205 17.906583652471447" fill="red" stroke="none" /><path d="M 118.21658344932153 89.55222093294921 l 31.269952975413528 -17.934293828097385 a57.04786892726261,57.04786892726261 0 0,0 0.48121876481025805,0.8560344867647108 l -31.57402938151622 17.39337583139788" fill="red" stroke="none" /><path d="M 118.3937258080291 89.86733742301442 l 27.699567780235647 -15.259027821484281 a52.62442071040512,52.62442071040512 0 0,0 0.4302469913950781,0.7971823318615747 l -27.95812287084919 14.779964506290248" fill="red" stroke="none" /><path d="M 118.56541770881063 90.18545643968196 l 8.05236507648609 -4.2568548171825356 a30.10831467723766,30.10831467723766 0 0,0 0.23827228013351026,0.46026620467440527 l -8.124446789779718 4.117615890247785" fill="red" stroke="none" /><path d="M 118.73160827565052 90.50648371742162 l 25.60735240763295 -12.978267186571506 a49.708394530080284,49.708394530080284 0 0,0 0.38024551682947505,0.7665517590322738 l -25.826957937415834 12.535555839040281" fill="red" stroke="none" /><path d="M 118.89224826269711 90.83032412892265 l 36.42136891471609 -17.677734438219776 a61.48479231131202,61.48479231131202 0 0,0 0.4539387262481104,0.956110726286911 l -36.72026583480596 17.048181296292324" fill="red" stroke="none" /><path d="M 119.04729006885535 91.15688171328212 l 44.38030264998836 -20.60451983014143 a69.93012876270872,69.93012876270872 0 0,0 0.49749520055254715,1.0961647289297305 l -44.728400167504255 19.83753309236964" fill="red" stroke="none" /><path d="M 119.196687751892 91.48605970444005 l 24.686969464731174 -10.948940088912849 a48.00603174150494,48.00603174150494 0 0,0 0.3285196545162577,0.758268656840947 l -24.871779829090116 10.522372287485299" fill="red" stroke="none" /><path d="M 119.34039704204932 91.81776055985345 l 21.93882595063477 -9.281543009355586 a44.82140056182178,44.82140056182178 0 0,0 0.2944943448056292,0.7131414150287269 l -22.095341982326598 8.902527023873557" fill="red" stroke="none" /><path d="M 119.47837535516314 92.15188598940014 l 26.495745535091505 -10.675512098092977 a49.565557757846264,49.565557757846264 0 0,0 0.3120422113951618,0.7941133919296595 l -26.675581296368367 10.217849701267532" fill="red" stroke="none" /><path d="M 119.61058180528143 92.48833698450437 l 30.148658425966605 -11.548181727283241 a53.284703902807685,53.284703902807685 0 0,0 0.32071152744592535,0.8593474458154167 l -30.342974541914156 11.027511144438492" fill="red" stroke="none" /><path d="M 119.7369772167798 92.82701384747503 l 8.73021194177173 -3.1728105413070846 a30.28888191760898,30.28888191760898 0 0,0 0.1738681619468205,0.49154870716214927 l -8.783533184528359 3.0220642077183206" fill="red" stroke="none" /><path d="M 119.85752413597 93.16781622104841 l 59.57257240790998 -20.496551336854747 a84.0,84.0 0 0,0 0.45865082491291975,1.371307588310744 l -59.91656052659467 19.46807064562169" fill="red" stroke="none" /><path d="M 119.97218684219823 93.5106431181261 l 27.593793656367946 -8.965767052740572 a50.01383165309643,50.01383165309643 0 0,0 0.25898713942925466,0.8210600066086707 l -27.74403627956541 8.489456879705482" fill="red" stroke="none" /><path d="M 120.08093135843002 93.85539295169968 l 25.858469210374892 -7.912488187537369 a48.041965520683306,48.041965520683306 0 0,0 0.2351633688899605,0.7928539739240609 l -25.990838476376553 7.466204826866778" fill="red" stroke="none" /><path d="M 120.18372546131832 94.20196356495316 l 26.002063009636576 -7.469429219357289 a48.053643998916286,48.053643998916286 0 0,0 0.2215346886471139,0.7969781444929647 l -26.126784468850055 7.020739771445372" fill="red" stroke="none" /><path d="M 120.28053869075195 94.5502522615342 l 26.105095290310416 -7.014911496689067 a48.031185386929806,48.031185386929806 0 0,0 0.2076860865595591,0.8002992120005982 l -26.221977708740276 6.564515859139619" fill="red" stroke="none" /><path d="M 120.53481517161879 95.60439243477599 l 8.92324084957594 -1.9100763584627858 a30.125383222347388,30.125383222347388 0 0,0 0.10417745430654317,0.5080062650685492 l -8.95479759979748 1.756194437230825" fill="red" stroke="none" /><path d="M 120.6074358757038 95.95851677861258 l 17.693615143289552 -3.470031359486109 a39.030672047227256,39.030672047227256 0 0,0 0.1236236617396672,0.6604025442737619 l -17.750724528939077 3.1649507377497845" fill="red" stroke="none" /><path d="M 120.67395015179393 96.31383870115 l 26.58761554050598 -4.740566689700153 a48.00693008598441,48.00693008598441 0 0,0 0.1380499591438761,0.8147786734272771 l -26.66527736117008 4.282202227957039" fill="red" stroke="none" /><path d="M 120.73433829027371 96.67025291283417 l 22.331493467790267 -3.5862357546909593 a43.617618959346345,43.617618959346345 0 0,0 0.11266660813118079,0.7423321776863967 l -22.38991596936075 3.201304464612481" fill="red" stroke="none" /><path d="M 120.78858239683441 97.02765380044208 l 26.754602293292216 -3.8253662000185282 a48.0266936645325,48.0266936645325 0 0,0 0.10996740873401874,0.8193849252991041 l -26.816485701084073 3.3642629326547597" fill="red" stroke="none" /><path d="M 120.83666639777658 97.38593545837742 l 19.87013791751923 -2.4928086852165494 a41.025895136106314,41.025895136106314 0 0,0 0.08187527537457115,0.7014573590212829 l -19.91010354589739 2.150407587870414" fill="red" stroke="none" /><path d="M 120.91429891909075 98.10471618934814 l 9.161506121497073 -0.8302288448890656 a30.19904746966305,30.19904746966305 0 0,0 0.042459164985780125,0.5181093579476925 l -9.174439770302348 0.6724055697336043" fill="red" stroke="none" /><path d="M 120.94382443527127 98.46500227214037 l 9.818621625267914 -0.7196184217490792 a30.844957150394276,30.844957150394276 0 0,0 0.03425172244006297,0.5298589859765839 l -9.829553938712392 0.55050037151946" fill="red" stroke="none" /><path d="M 120.96714384426684 98.82574320788733 l 18.020400418165035 -1.0092255647593273 a39.04863893681644,39.04863893681644 0 0,0 0.03180863407628218,0.6714299915034805 l -18.035102660474816 0.6988844666328471" fill="red" stroke="none" /><path d="M 120.98425023603335 99.18683210126433 l 13.664343870277618 -0.5295116893676372 a34.67459966632919,34.67459966632919 0 0,0 0.017978458847389522,0.5966175231205668 l -13.671434023580654 0.2942240188220713" fill="red" stroke="none" /><line stroke="#e1ed5e" stroke-width="0.3" x1="184.98032266829074" x2="189.97916517819016" y1="98.17113171792111" y2="98.06355123074" /><path d="M 185.9800911702706 98.14961562048488 a86.0,86.0 0 0,1 -9.607161424134198,41.387399972396054" fill="none" id="id172" stroke="none" /><text fill="#e1ed5e" style="font-size:6.75px; font-family:Arial;" text-anchor="middle"><textPath startOffset="21.466115282336823" xlink:href="#id172">April</textPath></text><path d="M 120.99513854157772 99.54816195383933 l 18.00943338857176 -0.38758244812903525 a39.01360350211753,39.01360350211753 0 0,0 0.008670295707459532,0.6715239575438495 l -18.013436691396937 0.07752223252472304" fill="red" stroke="none" /><path d="M 120.99980553446 99.90962569577887 l 26.995001624599926 -0.11617509911070847 a47.99525160775143,47.99525160775143 0 0,0 -0.0035555401436744645,0.8261823117824526 l -26.993001787166747 -0.3485166908754288" fill="red" stroke="none" /><path d="M 120.9904718944345 100.63252640178507 l 9.150874776890387 0.275752252018066 a30.155028590169543,30.155028590169543 0 0,0 -0.020100289717779177,0.5186991639863044 l -9.144772354321404 -0.4332286630183767" fill="red" stroke="none" /><path d="M 120.9764740272857 100.99374915477107 l 19.87514109271562 0.94157410040173 a40.897431875543646,40.897431875543646 0 0,0 -0.0393660160730197,0.7029066615775674 l -19.85598872575507 -1.2835524783147207" fill="red" stroke="none" /><path d="M 120.95626037817324 101.35467743843564 l 26.96054020219233 1.7428126431367965 a48.016811875258455,48.016811875258455 0 0,0 -0.060417591033877414,0.8243500276576936 l -26.926546052494114 -2.2066358072912604" fill="red" stroke="none" /><path d="M 120.92983693683757 101.71520430193887 l 35.86654613010779 2.939270592680741 a56.98678150265939,56.98678150265939 0 0,0 -0.08853413111401705,0.9769667594130208 l -35.8106374027167 -3.5562187406423322" fill="red" stroke="none" /><path d="M 120.89721153311464 102.0752229133903 l 44.740277608806146 4.442987481756096 a65.96034450797816,65.96034450797816 0 0,0 -0.12192517933321165,1.1288757345673166 l -44.65717012797189 -5.212459538208204" fill="red" stroke="none" /><path d="M 120.81339534386255 102.79330883721812 l 14.181683513398562 1.9032849388645254 a35.30883086882744,35.30883086882744 0 0,0 -0.08602903994751793,0.6016869050232285 l -14.146820422434443 -2.1471173158681633" fill="red" stroke="none" /><path d="M 120.70491114924044 103.5080841355445 l 17.781736352956024 3.012803423912705 a39.035163769624546,39.035163769624546 0 0,0 -0.11794857214548014,0.6615182308413047 l -17.727241338471355 -3.318440405487228" fill="red" stroke="none" /><path d="M 120.64145759157962 103.86396538481128 l 27.423537270816144 5.133532759175974 a48.89988449856693,48.89988449856693 0 0,0 -0.16199848771655162,0.8260267987537907 l -27.33110885012393 -5.6048232849977095" fill="red" stroke="none" /><path d="M 120.5718875245553 104.21870165774334 l 35.43091004974208 7.2658592355118925 a57.16824708751017,57.16824708751017 0 0,0 -0.20598525572928636,0.9622945387446041 l -35.30059075528835 -7.874667593672665" fill="red" stroke="none" /><path d="M 120.49622156327973 104.57218783832717 l 30.914868717635226 6.896324102364683 a52.674728001254834,52.674728001254834 0 0,0 -0.20502868840879201,0.8832582235657623 l -30.791579463295882 -7.42745098327901" fill="red" stroke="none" /><path d="M 120.41448212921028 104.9243191809786 l 35.391234843005435 8.536965839881026 a57.40630837456687,57.40630837456687 0 0,0 -0.2399821125416984,0.9586092471394633 l -35.239041416168675 -9.144902926417885" fill="red" stroke="none" /><path d="M 120.32669344350535 105.2749913415812 l 26.310588638662395 6.827875259032534 a48.18210725947897,48.18210725947897 0 0,0 -0.21524076990088298,0.8009909763329688 l -26.189159792419733 -7.2797571685410505" fill="red" stroke="none" /><path d="M 120.23288151984713 105.62410040840565 l 27.95224124185984 7.769837985261193 a50.01203496413752,50.01203496413752 0 0,0 -0.23769377779670314,0.8274432230044311 l -27.814354827177038 -8.249838683770207" fill="red" stroke="none" /><path d="M 120.13307415673323 105.97154293290107 l 43.18351915264458 12.808388654721725 a66.0429922000884,66.0429922000884 0 0,0 -0.3326466875407455,1.0871086216916874 l -42.9566456925977 -13.54982424896547" fill="red" stroke="none" /><path d="M 120.02730092923936 106.31721596034902 l 25.791978830786874 8.135569585462815 a48.04466055412169,48.04466055412169 0 0,0 -0.255569565770926,0.7865622451762128 l -25.648117013999702 -8.578330730616821" fill="red" stroke="none" /><path d="M 119.9155931802556 106.66101706037122 l 18.033339738758727 6.031474059955695 a40.01525759671462,40.01525759671462 0 0,0 -0.22410291407343705,0.6513479685462046 l -17.92684599374206 -6.3409947315912" fill="red" stroke="none" /><line stroke="#e1ed5e" stroke-width="0.3" x1="174.80103733775053" x2="179.2010983576182" y1="140.37084112569926" y2="142.7455964860345" /><path d="M 175.68104954172406 140.8457921977663 a86.0,86.0 0 0,1 -30.038265399797805,32.042727171017184" fill="none" id="id173" stroke="none" /><text fill="#e1ed5e" style="font-size:6.75px; font-family:Arial;" text-anchor="middle"><textPath startOffset="22.206326154141568" xlink:href="#id173">May</textPath></text><line stroke="#e1ed5e" stroke-width="0.3" x1="143.8653032363475" x2="146.44561519142675" y1="172.8068346515853" y2="177.08958963109032" /><path d="M 144.38136562736335 173.6633856474863 a86.0,86.0 0 0,1 -40.68145358897372,12.25698825130547" fill="none" id="id174" stroke="none" /><text fill="#e1ed5e" style="font-size:6.75px; font-family:Arial;" text-anchor="middle"><textPath startOffset="21.466115282336833" xlink:href="#id174">June</textPath></text><line stroke="#e1ed5e" stroke-width="0.3" x1="102.19456741930631" x2="102.32365962044197" y1="184.97166512339345" y2="189.96999836594603" /><path d="M 102.22038585953345 185.97133177190398 a86.0,86.0 0 0,1 -42.740103519485714,-10.115201625700543" fill="none" id="id175" stroke="none" /><text fill="#e1ed5e" style="font-size:6.75px; font-family:Arial;" text-anchor="middle"><textPath startOffset="22.20632615414155" xlink:href="#id175">July</textPath></text><line stroke="#e1ed5e" stroke-width="0.3" x1="58.666819895761336" x2="56.23545636021788" y1="174.27360380694188" y2="178.64263932499728" /><path d="M 58.180547188652646 175.14741091055294 a86.0,86.0 0 0,1 -31.652253787137756,-30.449443065178592" fill="none" id="id176" stroke="none" /><text fill="#e1ed5e" style="font-size:6.75px; font-family:Arial;" text-anchor="middle"><textPath startOffset="22.20632615414155" xlink:href="#id176">August</textPath></text><line stroke="#e1ed5e" stroke-width="0.3" x1="26.63291911575756" x2="22.317208475507996" y1="142.92168965132927" y2="145.44649492493687" /><path d="M 25.769776987707644 143.4266507060508 a86.0,86.0 0 0,1 -11.730757126820373,-40.83630448921669" fill="none" id="id177" stroke="none" /><text fill="#e1ed5e" style="font-size:6.75px; font-family:Arial;" text-anchor="middle"><textPath startOffset="21.46611528233685" xlink:href="#id177">September</textPath></text><line stroke="#e1ed5e" stroke-width="0.3" x1="15.007084014347285" x2="10.007500721073583" y1="101.09737516637583" y2="101.16192664675087" /><path d="M 14.007167355692545 101.11028546245083 a86.0,86.0 0 0,1 10.666146001902534,-42.60595125391555" fill="none" id="id178" stroke="none" /><text fill="#e1ed5e" style="font-size:6.75px; font-family:Arial;" text-anchor="middle"><textPath startOffset="22.20632615414155" xlink:href="#id178">October</textPath></text><line stroke="#e1ed5e" stroke-width="0.3" x1="26.266209847984243" x2="21.928928074336255" y1="57.711370442889674" y2="55.22380399835377" /><path d="M 25.398753493254645 57.213857153982495 a86.0,86.0 0 0,1 29.58750427330803,-30.492523968695096" fill="none" id="id179" stroke="none" /><text fill="#e1ed5e" style="font-size:6.75px; font-family:Arial;" text-anchor="middle"><textPath startOffset="21.46611528233685" xlink:href="#id179">November</textPath></text><line stroke="#e1ed5e" stroke-width="0.3" x1="56.762969772571076" x2="54.21961505331055" y1="26.818313649435495" y2="22.513508569990535" /><path d="M 56.25429882871897 25.957352633546506 a86.0,86.0 0 0,1 42.265352541879196,-11.944610805530505" fill="none" id="id180" stroke="none" /><text fill="#e1ed5e" style="font-size:6.75px; font-family:Arial;" text-anchor="middle"><textPath startOffset="22.20632615414155" xlink:href="#id180">December</textPath></text></svg>