<?xml version="1.0" encoding="utf-8" ?>
<svg baseProfile="full" height="200mm" version="1.1" viewBox="0,0,200,200" width="200mm" xmlns="http://www.w3.org/2000/svg" xmlns:ev="http://www.w3.org/2001/xml-events" xmlns:xlink="http://www.w3.org/1999/xlink"><defs /><rect fill="#1a1a1a" height="200" width="200" x="0" y="0" /><text alignment-baseline="middle" fill="#e1ed5e" style="dominant-baseline: central; font-size:9.0px; font-family:Arial;" text-anchor="middle" x="100.0" y="100.0">2022</text><line stroke="#e1ed5e" stroke-width="0.3" x1="100.0" x2="100.0" y1="15.0" y2="10.0" /><path d="M 100.0 14.0 a86.0,86.0 0 0,1 42.46469731375804,11.215312516191453" fill="none" id="id49" stroke="none" /><text fill="#e1ed5e" style="font-size:6.75px; font-family:Arial;" text-anchor="middle"><textPath startOffset="22.20632615414155" xlink:href="#id49">January</textPath></text><path d="M 100.0 79.0 l 0.0 -6.338785998570124 a27.338785998570124,27.338785998570124 0 0,0 0.4705922602615341,0.004050536155349896 l -0.10911178098900576 6.337846839023333" fill="#ff3905" stroke="none" /><path d="M 100.36148047927253 79.00311137660856 l 0.5252055401897665 -30.506992394017058 a51.51151300391478,51.51151300391478 0 0,0 0.8864232752584765,0.02289369799652766 l -1.0502554506431108 30.49343190387817" fill="#90ff24" stroke="none" /><path d="M 101.44485096284872 79.0497635885617 l 0.7655092870986832 -11.099830330076903 a32.126196017738025,32.126196017738025 0 0,0 0.5513617249172034,0.042796281451343635 l -0.9564612013782278 11.085008786437095" fill="#ff7c0b" stroke="none" /><path d="M 101.80526077348638 79.07773832637324 l 0.937160204322929 -10.861317828940141 a31.901673918707143,31.901673918707143 0 0,0 0.5466957546239621,0.05191534929648369 l -1.1239810860371353 10.843576935128478" fill="#ff790b" stroke="none" /><path d="M 102.52436894288641 79.15227682838746 l 1.9562595179876963 -16.15594146717994 a37.27394838361796,37.27394838361796 0 0,0 0.6362934050421817,0.08260914571747602 l -2.2340676515377242 16.119873998298324" fill="#ffc212" stroke="none" /><path d="M 103.59715602781102 79.31037775812273 l 2.248063527480613 -12.930099445149612 a34.12407182565864,34.12407182565864 0 0,0 0.5778422109066311,0.10559697056872627 l -2.470300859490145 12.889486993230147" fill="#ff980e" stroke="none" /><path d="M 104.66035177308747 79.52364482259891 l 2.8422109328800973 -12.48792438519919 a33.807279900019196,33.807279900019196 0 0,0 0.5663142989073685,0.1340282976702116 l -3.056748918749989 12.43715017538811" fill="#ff930d" stroke="none" /><path d="M 106.40334571778207 80.00007090966166 l 5.177281149273503 -16.170492806388793 a37.97907764574079,37.97907764574079 0 0,0 0.6208985595796104,0.20470049308527116 l -5.4548625310955305 16.078978589044286" fill="#ffcb12" stroke="none" /><path d="M 107.08798089147638 80.2323363322302 l 4.807937246951019 -13.408851954971087 a35.244773473837725,35.244773473837725 0 0,0 0.5693166707841726,0.20968413451083878 l -5.038036243507768 13.324104552653925" fill="#ffa70f" stroke="none" /><path d="M 108.09893153111575 80.62456947434976 l 4.173315238534812 -9.984005810545366 a31.82113358688407,31.82113358688407 0 0,0 0.5035561684021762,0.21559647178575983 l -4.3445551647273035 9.910689810796814" fill="#ff780b" stroke="none" /><path d="M 108.76106565485865 80.91482961587045 l 7.056530362699106 -15.371998064893944 a37.91428228648196,37.91428228648196 0 0,0 0.5907799650987903,0.2773791151083565 l -7.320088539097494 15.248253967145585" fill="#ffca12" stroke="none" /><path d="M 109.73455568895987 81.39251694778311 l 4.961147157014397 -9.483171558450778 a31.702500825534273,31.702500825534273 0 0,0 0.4813571155077099,0.25712430065162806 l -5.1236493190504175 9.396368531297396" fill="#ff760a" stroke="none" /><path d="M 110.36928655335952 81.73862282372117 l 5.266387218053229 -9.274648053201444 a31.665548782937883,31.665548782937883 0 0,0 0.47167081559911983,0.2732221806395677 l -5.425254766117677 9.182621715171827" fill="#ff760a" stroke="none" /><line stroke="#e1ed5e" stroke-width="0.3" x1="143.23703022742887" x2="145.7803849466894" y1="26.81831364943548" y2="22.513508569990506" /><path d="M 143.74570117128098 25.957352633546492 a86.0,86.0 0 0,1 28.547481713284135,27.462654790039103" fill="none" id="id50" stroke="none" /><text fill="#e1ed5e" style="font-size:6.75px; font-family:Arial;" text-anchor="middle"><textPath startOffset="19.985693538727396" xlink:href="#id50">February</textPath></text><path d="M 110.99172775467656 82.1063720568725 l 8.826559024420181 -14.36891148744401 a37.863385233860186,37.863385233860186 0 0,0 0.5524102886669341,0.3459192720850168 l -9.072588465459377 14.21484787403605" fill="#ffc912" stroke="none" /><path d="M 111.90073688211348 82.69761687909136 l 7.753822337140476 -11.273218293759816 a34.68236863758244,34.68236863758244 0 0,0 0.4889699694794647,0.34255471163253864 l -7.946723446203592 11.138078739363342" fill="#ff9f0e" stroke="none" /><path d="M 112.48926042617603 83.11751280151076 l 9.714074856717966 -13.131101347681662 a37.33367909948666,37.33367909948666 0 0,0 0.5133449254441449,0.38664075508812495 l -9.938665935920493 12.961944003087691" fill="#ffc212" stroke="none" /><path d="M 112.77801427241765 83.33499621200491 l 19.20185177388139 -25.042931219680717 a52.55724188866592,52.55724188866592 0 0,0 0.7131953775657563,0.5566603047077007 l -19.630079706606576 24.708692525749793" fill="#84ff25" stroke="none" /><path d="M 113.89432698308785 84.25364557470407 l 6.469821383394023 -7.332208367867275 a30.778541214457576,30.778541214457576 0 0,0 0.39424235259586005,0.35395467675840653 l -6.595074723585872 7.2197546823395715" fill="#ff6a09" stroke="none" /><path d="M 114.16331599549186 84.49514656593476 l 10.93814939500464 -11.974201752148842 a37.21803378306399,37.21803378306399 0 0,0 0.4692877107815427,0.4361517823491022 l -11.14264498958103 11.7841453837251" fill="#ffc111" stroke="none" /><path d="M 114.68862486808459 84.99185889309783 l 16.51795322106718 -16.877262164794633 a44.61535002477355,44.61535002477355 0 0,0 0.544231211397664,0.5418941096198129 l -16.806020232632164 16.590432204524703" fill="#e0ff1b" stroke="none" /><path d="M 115.19652480421416 85.50635884689758 l 7.651377208728307 -7.297478668253266 a31.573399079948626,31.573399079948626 0 0,0 0.37171314328719146,0.3965176643093685 l -7.7758576739859615 7.1646915870658425" fill="#ff750a" stroke="none" /><path d="M 115.68641384162765 86.03803664274999 l 11.804209478151362 -10.506540364113688 a36.802745072512835,36.802745072512835 0 0,0 0.41711203666325286,0.4768311630123504 l -11.983313378392463 10.30179364489839" fill="#ffbb11" stroke="none" /><path d="M 115.9244219780498 86.31012108654704 l 8.466322211639804 -7.278312900737405 a32.16478618121933,32.16478618121933 0 0,0 0.3573192016921289,0.4229532305255763 l -8.59035202681905 7.131500720582722" fill="#ff7d0b" stroke="none" /><path d="M 116.82858285166822 87.43820079747576 l 10.076367148637708 -7.521566249979934 a33.57406592025755,33.57406592025755 0 0,0 0.34171586367100665,0.4661000540192414 l -10.204345624822341 7.347003752289198" fill="#ff900d" stroke="none" /><path d="M 117.45458315368197 88.32363383020206 l 11.683712492230852 -7.815901650630481 a35.056936231392655,35.056936231392655 0 0,0 0.3312101953500462,0.504455850543498 l -11.816519322938822 7.613627736109309" fill="#ffa40f" stroke="none" /><line stroke="#e1ed5e" stroke-width="0.3" x1="172.23445277983987" x2="176.4835382374775" y1="55.19839476539836" y2="52.563006222186495" /><path d="M 173.08426987136738 54.67131705675599 a86.0,86.0 0 0,1 12.851231095245387,41.99856678651699" fill="none" id="id51" stroke="none" /><text fill="#e1ed5e" style="font-size:6.75px; font-family:Arial;" text-anchor="middle"><textPath startOffset="22.20632615414155" xlink:href="#id51">March</textPath></text><path d="M 118.03404312379186 89.2402003453031 l 9.090849450976005 -5.423948368764146 a31.58596994362491,31.58596994362491 0 0,0 0.2745577731276071,0.4693082334848593 l -9.18286689857394 5.266660722925391" fill="#ff750a" stroke="none" /><path d="M 118.3937258080291 89.86733742301442 l 11.521142860715997 -6.346721394418264 a34.15361567309132,34.15361567309132 0 0,0 0.2792332949273848,0.5173768873126161 l -11.628684254861847 6.147463523773189" fill="#ff980e" stroke="none" /><path d="M 118.56541770881063 90.18545643968196 l 14.314963221230277 -7.567555565013779 a37.192160734588406,37.192160734588406 0 0,0 0.2943326797372053,0.5685570530419338 l -14.443105334127598 7.320025789711501" fill="#ffc011" stroke="none" /><path d="M 118.89224826269711 90.83032412892265 l 9.722443046443345 -4.71895404777873 a31.80714699152287,31.80714699152287 0 0,0 0.23483035801459318,0.4946126231865697 l -9.802231598299695 4.550899008951621" fill="#ff780b" stroke="none" /><path d="M 120.37134235888165 94.90015583598534 l 15.254628821058873 -3.8189054209954194 a36.7253851807448,36.7253851807448 0 0,0 0.1482432410054541,0.6145639393100245 l -15.318104862325146 3.5557562500259885" fill="#ffba11" stroke="none" /><path d="M 120.6074358757038 95.95851677861258 l 14.405186902340159 -2.825112329253792 a35.67960044974843,35.67960044974843 0 0,0 0.11300965690954645,0.6037021060558201 l -14.451682283159563 2.5767321457354093" fill="#ffad10" stroke="none" /><path d="M 120.67395015179393 96.31383870115 l 10.6511237005671 -1.899093288221337 a31.819103077526783,31.819103077526783 0 0,0 0.09149982871180881,0.5400371685654193 l -10.682235390799132 1.7154703313400799" fill="#ff780b" stroke="none" /><path d="M 120.83666639777658 97.38593545837742 l 25.331833704454855 -3.178005876609954 a46.53040383899014,46.53040383899014 0 0,0 0.0928606094996442,0.7955729931744153 l -25.382784666958088 2.7414891451106858" fill="#c9ff1d" stroke="none" /><path d="M 120.94382443527127 98.46500227214037 l 10.682408290923613 -0.7829263707454427 a31.711060666246,31.711060666246 0 0,0 0.0352134853980944,0.544737033250969 l -10.694302367326122 0.5989302732414384" fill="#ff770a" stroke="none" /><path d="M 120.98425023603335 99.18683210126433 l 15.753763038773197 -0.610479490252228 a36.765587051861885,36.765587051861885 0 0,0 0.01906261644467866,0.6325954356801247 l -15.761937349673522 0.33921390714710425" fill="#ffbb11" stroke="none" /><line stroke="#e1ed5e" stroke-width="0.3" x1="184.98032266829074" x2="189.97916517819016" y1="98.17113171792111" y2="98.06355123074" /><path d="M 185.9800911702706 98.14961562048488 a86.0,86.0 0 0,1 -9.607161424134198,41.387399972396054" fill="none" id="id52" stroke="none" /><text fill="#e1ed5e" style="font-size:6.75px; font-family:Arial;" text-anchor="middle"><textPath startOffset="21.466115282336823" xlink:href="#id52">April</textPath></text><path d="M 120.99980553446 99.90962569577887 l 17.00471259770725 -0.07318110955724126 a38.00487006729013,38.00487006729013 0 0,0 -0.0028154418750366214,0.6542095386393273 l -17.003452858542712 -0.21953790728577072" fill="#ffcb12" stroke="none" /><path d="M 120.9904718944345 100.63252640178507 l 13.306097520811466 0.40096563950387865 a34.31213749468536,34.31213749468536 0 0,0 -0.02287127344008835,0.5902059412697231 l -13.297224114520175 -0.629948827787608" fill="#ff9a0e" stroke="none" /><path d="M 120.9764740272857 100.99374915477107 l 8.659453900155054 0.410236962745239 a29.669165831526872,29.669165831526872 0 0,0 -0.02855819559896139,0.5099257667301285 l -8.651109353668563 -0.5592344458107907" fill="#ff5a08" stroke="none" /><path d="M 120.92983693683757 101.71520430193887 l 10.713061688774006 0.8779375372571867 a31.748975070526612,31.748975070526612 0 0,0 -0.049324910926904816,0.544296281899859 l -10.696362181570027 -1.0622152077056162" fill="#ff770b" stroke="none" /><path d="M 120.89721153311464 102.0752229133903 l 11.820218309647945 1.1738211023315863 a32.87835918248036,32.87835918248036 0 0,0 -0.060774392089792614,0.5626953914560182 l -11.7982616160571 -1.3771128156723962" fill="#ff870c" stroke="none" /><path d="M 120.8583938346157 102.4346265915055 l 10.14602689984047 1.1842612180180323 a31.214907561245376,31.214907561245376 0 0,0 -0.06688684425024717,0.5331539592275651 l -10.124138546343374 -1.3587329315329923" fill="#ff700a" stroke="none" /><path d="M 120.76222939487914 103.15116336523771 l 11.495980384444524 1.7447891334775276 a32.62763321230226,32.62763321230226 0 0,0 -0.08905517595583451,0.5545466656867853 l -11.4642434541274 -1.942415028857518" fill="#ff830c" stroke="none" /><path d="M 120.70491114924044 103.5080841355445 l 10.181030205416207 1.7249970448885596 a31.32613145609097,31.32613145609097 0 0,0 -0.09465497564948679,0.53087537129948 l -10.14982878742753 -1.899991166921258" fill="#ff710a" stroke="none" /><path d="M 120.64145759157962 103.86396538481128 l 8.83184775554197 1.6532724910501742 a29.985257075161233,29.985257075161233 0 0,0 -0.09933696878385279,0.5065170637024872 l -8.802080853782453 -1.8050532818206062" fill="#ff5e08" stroke="none" /><path d="M 120.5718875245553 104.21870165774334 l 13.965517841435455 2.863925500204265 a35.25614807197836,35.25614807197836 0 0,0 -0.1270328730828388,0.5934552916219822 l -13.914150929628173 -3.1038946112424166" fill="#ffa70f" stroke="none" /><path d="M 120.41448212921028 104.9243191809786 l 20.29625709940189 4.895801299492682 a41.878384099569004,41.878384099569004 0 0,0 -0.17506896664513258,0.6993134968924573 l -20.208976818461693 -5.2444426357825344" fill="#fffc17" stroke="none" /><path d="M 120.32669344350535 105.2749913415812 l 4.471737472476727 1.1604630391410644 a25.61986044031257,25.61986044031257 0 0,0 -0.11444992341718689,0.4259107414519147 l -4.451099472717763 -1.2372647137685273" fill="#ff2003" stroke="none" /><path d="M 120.23288151984713 105.62410040840565 l 12.90928500588636 3.5883724719393846 a34.39873338642779,34.39873338642779 0 0,0 -0.1634879463694026,0.5691229889154901 l -12.84560442263086 -3.810052936359457" fill="#ff9b0e" stroke="none" /><path d="M 120.13307415673323 105.97154293290107 l 10.058891679027822 2.9835038132329843 a31.49202539140994,31.49202539140994 0 0,0 -0.15861967456991663,0.5183782741674363 l -10.006045231951772 -3.1562090599524777" fill="#ff740a" stroke="none" /><path d="M 120.02730092923936 106.31721596034902 l 13.892654473171325 4.382163072279023 a35.56740201624755,35.56740201624755 0 0,0 -0.1891978293540577,0.5822910446722805 l -13.81516439280102 -4.620653016929099" fill="#ffab0f" stroke="none" /><path d="M 119.67450827220406 107.3425965602758 l 21.843571840223728 8.152098809237287 a44.31519559717617,44.31519559717617 0 0,0 -0.2728670615070249,0.7123697935612524 l -21.700010499123195 -8.526892169631685" fill="#e4ff1b" stroke="none" /><path d="M 118.97047184881838 109.00673069616215 l 8.94397839397348 4.246389092943392 a30.90083682526548,30.90083682526548 0 0,0 -0.23226649813086983,0.47853778121386903 l -8.869558639227895 -4.3997158301225365" fill="#ff6b09" stroke="none" /><path d="M 118.64920377521936 109.65438752849418 l 10.720127971912197 5.549634774939522 a33.07143694302349,33.07143694302349 0 0,0 -0.2660636343296395,0.5032921274531439 l -10.623011829357665 -5.7333419174788" fill="#ff890c" stroke="none" /><line stroke="#e1ed5e" stroke-width="0.3" x1="174.80103733775053" x2="179.2010983576182" y1="140.37084112569926" y2="142.7455964860345" /><path d="M 175.68104954172406 140.8457921977663 a86.0,86.0 0 0,1 -30.038265399797805,32.042727171017184" fill="none" id="id53" stroke="none" /><text fill="#e1ed5e" style="font-size:6.75px; font-family:Arial;" text-anchor="middle"><textPath startOffset="22.206326154141568" xlink:href="#id53">May</textPath></text><path d="M 118.30583269289576 110.29060199501025 l 38.79121704034502 21.806436350703017 a65.50032792899863,65.50032792899863 0 0,0 -0.5609572966378547,0.9780763299193476 l -38.41010774755478 -22.47093252648068" fill="#35ff6a" stroke="none" /><path d="M 117.55443506779139 111.5257021239791 l 11.704103923519583 7.684554639875063 a35.00137238508325,35.00137238508325 0 0,0 -0.33500795979831793,0.5007914454216081 l -11.570092858310545 -7.884882999502477" fill="#ffa30f" stroke="none" /><path d="M 117.35343817320211 111.8261652097733 l 12.202025122552579 8.315537448708575 a35.76609562993139,35.76609562993139 0 0,0 -0.35108526226220677,0.5057645054648944 l -12.057078953128237 -8.524343216360489" fill="#ffae10" stroke="none" /><path d="M 117.14729908036423 112.12312394758627 l 17.18989728655063 12.153240838364356 a42.05216928483732,42.05216928483732 0 0,0 -0.4229651393999827,0.5874615850500671 l -16.978152354775045 -12.447336028865553" fill="#ffff18" stroke="none" /><path d="M 116.71984013943494 112.70617746262583 l 11.791730409663986 8.961079647122496 a35.81032931761706,35.81032931761706 0 0,0 -0.37719051039203966,0.4875695804741936 l -11.635733082053878 -9.162727221709943" fill="#ffae10" stroke="none" /><path d="M 116.27256486870786 113.27417163493432 l 9.159851294265103 7.4720512231213645 a32.82093165592288,32.82093165592288 0 0,0 -0.36088020983682007,0.4347034605301545 l -9.02987508453474 -7.62861594076529" fill="#ff860c" stroke="none" /><path d="M 115.56566222782051 114.09645910891815 l 18.244193966012084 16.522171074572427 a45.613669992240276,45.613669992240276 0 0,0 -0.5320586813855717,0.5774446157782421 l -17.957088876630788 -16.833766945152004" fill="#d4ff1c" stroke="none" /><path d="M 114.81725581225074 114.88116024355365 l 6.656797354891496 6.685507046797562 a30.434455760502047,30.434455760502047 0 0,0 -0.374416337863928,0.3664451907928799 l -6.540731064651773 -6.799102340513013" fill="#ff6509" stroke="none" /><path d="M 114.29624159901734 115.38237550388516 l 7.371636387685953 7.931684576545141 a31.828325967297978,31.828325967297978 0 0,0 -0.40452354954225445,0.36952267134606387 l -7.234013288676835 -8.057400014477789" fill="#ff780b" stroke="none" /><path d="M 113.75828350139079 115.86535959552629 l 16.899931856912993 19.48815024946324 a46.7952650095702,46.7952650095702 0 0,0 -0.6130949017551844,0.5224927760856082 l -16.561971478580762 -19.776167415771795" fill="#c6ff1e" stroke="none" /><path d="M 113.20401910651253 116.32954008644616 l 7.469055375387256 9.23705412544547 a32.878971214588006,32.878971214588006 0 0,0 -0.4431498309262395,0.35206502707440634 l -7.308948051743665 -9.364253066525002" fill="#ff870c" stroke="none" /><path d="M 112.34349029814194 116.9893568818739 l 8.84530372154904 12.174516123416483 a36.048529521709995,36.048529521709995 0 0,0 -0.5051474814034271,0.36040931548386074 l -8.634428912296729 -12.324969700744564" fill="#ffb110" stroke="none" /><path d="M 112.04921762599082 117.19931262002967 l 8.685668975945287 12.398110870629385 a36.13783335620118,36.13783335620118 0 0,0 -0.5125430890376211,0.35253181025748304 l -8.470969002284784 -12.545783470251962" fill="#ffb310" stroke="none" /><path d="M 111.7513745106137 117.40417183066458 l 13.595817039441012 20.135851828991814 a45.296064904610944,45.296064904610944 0 0,0 -0.6499452572988585,0.4307482761060422 l -13.24719708340219 -20.366898126189177" fill="#d8ff1c" stroke="none" /><path d="M 111.1453310114006 117.79835938074945 l 5.874521526963379 9.381223870326657 a32.0687562298545,32.0687562298545 0 0,0 -0.47037352148074013,0.28894183491227476 l -5.71216880555033 -9.48095417206731" fill="#ff7c0b" stroke="none" /><line stroke="#e1ed5e" stroke-width="0.3" x1="143.8653032363475" x2="146.44561519142675" y1="172.8068346515853" y2="177.08958963109032" /><path d="M 144.38136562736335 173.6633856474863 a86.0,86.0 0 0,1 -40.68145358897372,12.25698825130547" fill="none" id="id54" stroke="none" /><text fill="#e1ed5e" style="font-size:6.75px; font-family:Arial;" text-anchor="middle"><textPath startOffset="21.466115282336833" xlink:href="#id54">June</textPath></text><path d="M 109.89434966115114 118.52300852407294 l 19.450656958442504 36.41317489058015 a62.28253095108129,62.28253095108129 0 0,0 -0.9499838703479263,0.49698666195554064 l -18.820982185568084 -36.74259097148041" fill="#31ff43" stroke="none" /><path d="M 108.59647513512805 119.15986991738527 l 2.7558597017443365 6.142274893603721 a27.732184160010256,27.732184160010256 0 0,0 -0.43721680104586297,0.19166299696112096 l -2.6497222260407196 -6.188802443859297" fill="#ff3e05" stroke="none" /><path d="M 107.93186726928326 119.44442032107085 l 4.922544995813922 12.067276304364949 a34.032674577449576,34.032674577449576 0 0,0 -0.5443265769757666,0.21659877859892815 l -4.71409734279629 -12.150221927369946" fill="#ff960d" stroke="none" /><path d="M 107.59598834532513 119.57807347666477 l 6.019348240061237 15.514405337138195 a37.64119365310525,37.64119365310525 0 0,0 -0.6060765952497249,0.2291663084106993 l -5.751401424051236 -15.615719895655523" fill="#ffc612" stroke="none" /><path d="M 107.2578585660854 119.70592522655815 l 6.889279474207758 18.705190373642562 a40.933547566550985,40.933547566550985 0 0,0 -0.6632802643299819,0.23782870440726867 l -6.566279649248041 -18.82100661908979" fill="#fff116" stroke="none" /><path d="M 106.57524785965236 119.94407469862006 l 4.818041610522793 14.614107913858424 a36.38784179404729,36.38784179404729 0 0,0 -0.5965503441856316,0.19099658176927564 l -4.565769921246221 -14.694877342287407" fill="#ffb610" stroke="none" /><path d="M 105.88484417918355 120.15858648285463 l 2.939383173820996 10.068883408216086 a31.489155663388317,31.489155663388317 0 0,0 -0.5216236094283396,0.147416042381853 l -2.765628396288051 -10.117988243936459" fill="#ff740a" stroke="none" /><path d="M 105.53697534728816 120.25689768951611 l 2.777573691877318 10.16168983468696 a31.534460399573835,31.534460399573835 0 0,0 -0.52483787097302,0.13861445190115357 l -2.6022453780928 -10.207995635891699" fill="#ff740a" stroke="none" /><path d="M 105.18746579009965 120.34920634021253 l 3.121322158556666 12.244211572434674 a33.63579712752781,33.63579712752781 0 0,0 -0.5622731474601129,0.13819305960798406 l -2.9100957263533425 -12.296125890356688" fill="#ff910d" stroke="none" /><path d="M 104.48393922423573 120.51570834832081 l 1.7979005381350113 8.226071147508447 a29.420254917097054,29.420254917097054 0 0,0 -0.495673209361584,0.10387314036206265 l -1.6560358673440494 -8.255800268597053" fill="#ff5708" stroke="none" /><path d="M 103.7750983002368 120.6578951692458 l 1.5144429801772186 8.287255545726763 a29.42449654403081,29.42449654403081 0 0,0 -0.49902689086065166,0.08676222153857756 l -1.371567117844517 -8.312096345786347" fill="#ff5708" stroke="none" /><path d="M 103.41894727170886 120.7198165907248 l 1.3789922041943066 8.357094532395127 a29.47010321794352,29.47010321794352 0 0,0 -0.5012220935811742,0.07828058286439975 l -1.2349342470046152 -8.379593422606632" fill="#ff5708" stroke="none" /><path d="M 103.06178313531738 120.77559828337769 l 1.5569266831892963 10.564459302653892 a31.67856830545449,31.67856830545449 0 0,0 -0.5401518848723005,0.07486012936811655 l -1.3748462071301655 -10.589693997514612" fill="#ff760a" stroke="none" /><path d="M 102.70371172650421 120.8252237178851 l 2.639832076694321 20.33319345250207 a41.5038403566263,41.5038403566263 0 0,0 -0.7092661972403143,0.0858822589792685 l -2.2894384564026264 -20.37562124020669" fill="#fff817" stroke="none" /><path d="M 101.26447882468166 120.96189622390904 l 0.7162303605186715 11.873307956252301 a32.894890825616386,32.894890825616386 0 0,0 -0.5654975274420705,0.029229762825822563 l -0.5117447646631215 -11.883877525840324" fill="#ff870c" stroke="none" /><line stroke="#e1ed5e" stroke-width="0.3" x1="102.19456741930631" x2="102.32365962044197" y1="184.97166512339345" y2="189.96999836594603" /><path d="M 102.22038585953345 185.97133177190398 a86.0,86.0 0 0,1 -42.740103519485714,-10.115201625700543" fill="none" id="id55" stroke="none" /><text fill="#e1ed5e" style="font-size:6.75px; font-family:Arial;" text-anchor="middle"><textPath startOffset="22.20632615414155" xlink:href="#id55">July</textPath></text><path d="M 100.54218724476979 120.99299961872073 l 0.41427964477007134 16.04053306048261 a37.04588197914052,37.04588197914052 0 0,0 -0.6376130986066749,0.010977087729941503 l -0.13810685627072847 -16.04528762549171" fill="#ffbf11" stroke="none" /><path d="M 99.81925306533755 120.99922214144158 l -0.27054057926289415 31.43146926848605 a52.43263356101125,52.43263356101125 0 0,0 -0.9024413016207625,-0.015536345411756584 l 0.8115415707763245 -31.422155445795134" fill="#86ff25" stroke="none" /><path d="M 99.09653310690486 120.98055641714683 l -0.5456519703736145 12.671279972785278 a33.683022992231855,33.683022992231855 0 0,0 -0.5790463424808803,-0.029930081803249665 l 0.7636863812679837 -12.660010084219826" fill="#ff920d" stroke="none" /><path d="M 98.73552117531835 120.96189622390904 l -0.7170374986437765 11.886688287568836 a32.90829547921479,32.90829547921479 0 0,0 -0.5651408013854876,-0.038975418462634324 l 0.9215410608081942 -11.872584524589916" fill="#ff870c" stroke="none" /><path d="M 98.01472825383883 120.90594882070398 l -1.1087533672940315 11.675752297514624 a32.728278890886074,32.728278890886074 0 0,0 -0.5603820123030417,-0.058085886839015166 l 1.3095679762026666 -11.654937042219847" fill="#ff850c" stroke="none" /><path d="M 97.2962882734958 120.8252237178851 l -1.9555500443479175 15.062540420210112 a36.1889532189158,36.1889532189158 0 0,0 -0.6170585458367165,-0.08551869180269005 l 2.214537181371465 -15.026647162914818" fill="#ffb310" stroke="none" /><path d="M 96.58105272829116 120.7198165907248 l -2.533248489136921 15.352223916402528 a36.55982413419497,36.55982413419497 0 0,0 -0.6200389984854529,-0.10780172759101796 l 2.797136459094424 -15.306343610290503" fill="#ffb811" stroke="none" /><path d="M 95.86986931433489 120.58985236759428 l -3.3833002027289028 16.866694298856512 a38.202677025186055,38.202677025186055 0 0,0 -0.6436396822745819,-0.1348809534120532 l 3.6731313464328714 -16.805957364717916" fill="#ffce13" stroke="none" /><path d="M 95.16358092515715 120.4354850818985 l -2.976679515893801 12.577464628128231 a33.92490763650397,33.92490763650397 0 0,0 -0.56710606624689,-0.13938087346144373 l 3.1927388668839014 -12.524362496352758" fill="#ff950d" stroke="none" /><path d="M 94.81253420990036 120.34920634021253 l -8.430119072980698 33.06937133273131 a55.12697214706726,55.12697214706726 0 0,0 -0.9174954106792782,-0.2423188769464198 l 8.998104926471466 -32.91936110648131" fill="#68ff28" stroke="none" /><path d="M 93.42475214034765 119.94407469862007 l -6.075982001872941 18.42969900137454 a40.40544672426661,40.40544672426661 0 0,0 -0.6586670175194707,-0.22345561407634967 l 6.392318752329637 -18.322380400400068" fill="#ffea16" stroke="none" /><path d="M 93.08242187328487 119.8279376855182 l -3.589254480767576 10.287923443507385 a31.896059678029438,31.896059678029438 0 0,0 -0.516838342924777,-0.18531984154536305 l 3.7658123843220794 -10.224616060922065" fill="#ff790b" stroke="none" /><path d="M 92.06813273071674 119.44442032107085 l -4.31078200848378 10.567581937492864 a32.4130026518131,32.4130026518131 0 0,0 -0.5147934032268623,-0.2151836842998104 l 4.492046871208104 -10.491813210173081" fill="#ff800b" stroke="none" /><path d="M 91.7346041902142 119.30500536409082 l -6.646484832740723 15.523808938042038 a37.88681155744584,37.88681155744584 0 0,0 -0.5973114290384944,-0.26184377712565776 l 6.9127169364369605 -15.407100607621928" fill="#ffca12" stroke="none" /><path d="M 90.7491055286396 118.85261126421891 l -5.183951051313858 10.564493442847288 a32.76783200960914,32.76783200960914 0 0,0 -0.5042284222672834,-0.2528305985351548 l 5.365033381263901 -10.473695003402833" fill="#ff850c" stroke="none" /><path d="M 90.42595943632237 118.69057910512821 l -5.433457967293449 10.607274460207396 a32.91791663658178,32.91791663658178 0 0,0 -0.5020908651700745,-0.2626702103772087 l 5.615239734990019 -10.51217483088547" fill="#ff870c" stroke="none" /><path d="M 90.10565033884886 118.52300852407294 l -5.10983867877225 9.566023907075481 a31.845241570099606,31.845241570099606 0 0,0 -0.48128348689914724,-0.26243413098448803 l 5.273744977540037 -9.476649124331226" fill="#ff780b" stroke="none" /><line stroke="#e1ed5e" stroke-width="0.3" x1="58.666819895761336" x2="56.23545636021788" y1="174.27360380694188" y2="178.64263932499728" /><path d="M 58.180547188652646 175.14741091055294 a86.0,86.0 0 0,1 -31.652253787137756,-30.449443065178592" fill="none" id="id56" stroke="none" /><text fill="#e1ed5e" style="font-size:6.75px; font-family:Arial;" text-anchor="middle"><textPath startOffset="22.20632615414155" xlink:href="#id56">August</textPath></text><path d="M 89.4739219176387 118.17145234162733 l -5.851110992886321 10.100930633506602 a32.67323003773965,32.67323003773965 0 0,0 -0.48423614023929173,-0.2860952470054436 l 6.0241150041539955 -9.998716814207407" fill="#ff840c" stroke="none" /><path d="M 89.1626897886671 117.98757091392108 l -5.470349171854119 9.079586330355047 a31.60017018695338,31.60017018695338 0 0,0 -0.46350046206002793,-0.28471984045512505 l 5.625828833846456 -8.984078023071543" fill="#ff750a" stroke="none" /><path d="M 88.8546689885994 117.79835938074946 l -8.542303749896067 13.641496329238919 a37.095383669118526,37.095383669118526 0 0,0 -0.5382684982872277,-0.3435484228994592 l 8.775854050230219 -13.492433477515656" fill="#ffbf11" stroke="none" /><path d="M 87.95078237400918 117.19931262002967 l -8.450994015308442 12.063130780023352 a35.72882969087245,35.72882969087245 0 0,0 -0.5006675326650031,-0.3572129910090143 l 8.657388875822331 -11.915873527170119" fill="#ffad10" stroke="none" /><path d="M 87.07902340077011 116.55440617244103 l -5.838176082106238 7.479894219077644 a30.48857826517063,30.48857826517063 0 0,0 -0.4109316016979503,-0.32646891723986493 l 5.966065176521546 -7.378291387832648" fill="#ff6609" stroke="none" /><path d="M 86.51685102203217 116.09983520530335 l -6.823257121228609 8.147452453035942 a31.627220672258495,31.627220672258495 0 0,0 -0.4143685850882907,-0.35313389774671833 l 6.962491182893956 -8.028794165066273" fill="#ff750a" stroke="none" /><path d="M 85.97065885151581 115.62618273729859 l -7.74966547391966 8.631744539299788 a32.60018658252505,32.60018658252505 0 0,0 -0.414333546968597,-0.37848387140223133 l 7.897098570355111 -8.49706790131098" fill="#ff830c" stroke="none" /><path d="M 85.44109423537348 115.13401014063109 l -9.308059855875385 9.67574586482207 a34.42609534902759,34.42609534902759 0 0,0 -0.42352301775889173,-0.4145064126561633 l 9.473232826010072 -9.514089349243338" fill="#ff9c0e" stroke="none" /><path d="M 84.67929136418377 114.36230785411682 l -7.650390466426429 7.1718133733154765 a31.486342610770215,31.486342610770215 0 0,0 -0.36727108198025243,-0.3986002225699158 l 7.77270795640241 -7.039061895944216" fill="#ff730a" stroke="none" /><path d="M 84.19399662182784 113.82643327865904 l -23.92510219469996 20.92868268248921 a52.78710861105742,52.78710861105742 0 0,0 -0.5923655972522155,-0.6890550161589725 l 24.281810301522956 -20.51375056716871" fill="#82ff25" stroke="none" /><path d="M 83.50135304334701 112.99209946851258 l -13.19688684767438 10.392080456667545 a37.797415238308915,37.797415238308915 0 0,0 -0.3981205036900871,-0.5146244182034092 l 13.373814168582534 -10.163378044350884" fill="#ffc812" stroke="none" /><path d="M 82.85270091963577 112.12312394758628 l -30.877664712730553 21.830479235829156 a58.81534082588406,58.81534082588406 0 0,0 -0.5773400477522691,-0.8317013988426285 l 31.248865667644957 -21.295736574799516" fill="#42ff2d" stroke="none" /><path d="M 82.05923443525364 110.91462005526583 l -4.55170327499456 2.7691188356251804 a26.32785339789022,26.32785339789022 0 0,0 -0.23221056910012175,-0.3891982705387845 l 4.598694719792914 -2.690358471200285" fill="#ff2a04" stroke="none" /><line stroke="#e1ed5e" stroke-width="0.3" x1="26.63291911575756" x2="22.317208475507996" y1="142.92168965132927" y2="145.44649492493687" /><path d="M 25.769776987707644 143.4266507060508 a86.0,86.0 0 0,1 -11.730757126820373,-40.83630448921669" fill="none" id="id57" stroke="none" /><text fill="#e1ed5e" style="font-size:6.75px; font-family:Arial;" text-anchor="middle"><textPath startOffset="21.46611528233685" xlink:href="#id57">September</textPath></text><path d="M 81.87401531095188 110.60418214915194 l -16.293134738405616 9.531916279898464 a39.87653748892612,39.87653748892612 0 0,0 -0.34151026989229805,-0.5954519415435454 l 16.45479700445029 -9.250044492496611" fill="#ffe315" stroke="none" /><path d="M 81.69416730710424 110.29060199501025 l -11.045086895543175 6.208982412826719 a33.670651409177474,33.670651409177474 0 0,0 -0.27966456737595663,-0.5076724238521662 l 11.150327872370648 -6.017939470576731" fill="#ff910d" stroke="none" /><path d="M 81.51974371655577 109.97397251340807 l -8.988673668637183 4.851273852911806 a31.214260243267606,31.214260243267606 0 0,0 -0.25112242741503427,-0.4750289947115433 l 9.070848604277105 -4.6958298431141365" fill="#ff700a" stroke="none" /><path d="M 80.87730276802145 108.67885076344099 l -19.811977275014076 8.991681038122106 a42.756947659012255,42.756947659012255 0 0,0 -0.29840056519553704,-0.6728144990673969 l 19.963818924940895 -8.649318202562014" fill="#f7ff19" stroke="none" /><path d="M 80.58989483394504 108.01547362559985 l -10.504951130294135 4.338057831358046 a32.36541877794544,32.36541877794544 0 0,0 -0.20821349835072764,-0.5167688274417831 l 10.57806724290225 -4.156589636073456" fill="#ff800b" stroke="none" /><path d="M 80.45479744820244 107.68017299344265 l -18.622705250521246 7.317683075980296 a41.008838958027525,41.008838958027525 0 0,0 -0.2525084506905485,-0.6592198849411606 l 18.745907980805303 -6.996039624205978" fill="#fff216" stroke="none" /><path d="M 80.32549172779594 107.34259656027581 l -10.0178562910237 3.738699647590618 a31.692769506657164,31.692769506657164 0 0,0 -0.1863470540774087,-0.5127470599459107 l 10.080727606106333 -3.56570479063859" fill="#ff760a" stroke="none" /><path d="M 80.20201598880116 107.00284435728193 l -19.788170833625763 6.999373288957209 a41.989591024575134,41.989591024575134 0 0,0 -0.23516004330637877,-0.6834851618245924 l 19.90572170787537 -6.657715424043319" fill="#fffe18" stroke="none" /><path d="M 79.76711848015287 105.62410040840567 l -12.869792725980654 3.577394868609454 a34.35774377863484,34.35774377863484 0 0,0 -0.1534840969728643,-0.5711714223215782 l 12.929464899295294 -3.355332513112337" fill="#ff9b0e" stroke="none" /><path d="M 79.67330655649465 105.27499134158121 l -15.062703356910694 3.9089303929015227 a36.56164416875151,36.56164416875151 0 0,0 -0.15284279470411585,-0.6105309883733259 l 15.12775746590987 -3.649071565130805" fill="#ffb811" stroke="none" /><path d="M 79.58551787078972 104.9243191809786 l -12.40049541630859 2.991209722865884 a33.75616016582019,33.75616016582019 0 0,0 -0.13139092515769904,-0.5660286667593732 l 12.450146907396846 -2.7773123987579362" fill="#ff930d" stroke="none" /><path d="M 79.4281124754447 104.21870165774334 l -10.803016683617027 2.2153875932582574 a32.02783349778507,32.02783349778507 0 0,0 -0.10610373919452869,-0.5410206802424944 l 10.839550355787223 -2.0291031859478084" fill="#ff7b0b" stroke="none" /><path d="M 79.29508885075956 103.50808413554451 l -15.973538179388848 2.7064359499888146 a37.20119494110805,37.20119494110805 0 0,0 -0.10153843950894946,-0.6322799597482479 l 16.01775837325909 -2.431076760547353" fill="#ffc111" stroke="none" /><path d="M 79.18660465613746 102.79330883721812 l -62.440186031587636 8.379926511654372 a84.0,84.0 0 0,0 -0.1799939630126075,-1.4347289828503655 l 62.5751815038471 -7.303879774516597" fill="#4dd2ff" stroke="none" /><path d="M 79.04373962182676 101.35467743843564 l -14.969676169073981 0.9676861329731168 a36.00092067370833,36.00092067370833 0 0,0 -0.03465285610591183,-0.6187500242431242 l 14.984115376067425 -0.7098643923945549" fill="#ffb110" stroke="none" /><path d="M 79.0095281055655 100.63252640178507 l -13.068939356510741 0.39381912078464987 a34.07487167830151,34.07487167830151 0 0,0 -0.012620581710963998,-0.5864288404848891 l 13.073782000906714 -0.1688004645096319" fill="#ff970d" stroke="none" /><line stroke="#e1ed5e" stroke-width="0.3" x1="15.007084014347285" x2="10.007500721073583" y1="101.09737516637583" y2="101.16192664675087" /><path d="M 14.007167355692545 101.11028546245083 a86.0,86.0 0 0,1 10.666146001902534,-42.60595125391555" fill="none" id="id58" stroke="none" /><text fill="#e1ed5e" style="font-size:6.75px; font-family:Arial;" text-anchor="middle"><textPath startOffset="22.20632615414155" xlink:href="#id58">October</textPath></text><path d="M 79.00175016825051 100.2711162175752 l -14.65392530374694 0.18920228270521722 a35.65514668338655,35.65514668338655 0 0,0 -0.0026413718256434334,-0.6137617894905665 l 14.655010972862087 0.06306898498902463" fill="#ffac0f" stroke="none" /><path d="M 79.00019446554 99.90962569577889 l -4.039496282449476 -0.017384287932148267 a25.03953368959711,25.03953368959711 0 0,0 0.00556472978595578,-0.4309944544696499 l 4.038598545545804 0.08691500046227014" fill="#ff1702" stroke="none" /><path d="M 79.00486145842228 99.54816195383935 l -45.68112433545332 -0.9831071095471711 a66.69170187397256,66.69170187397256 0 0,0 0.03457902987032581,-1.1475096574332728 l 45.65743361112735 1.7692869144054384" fill="#37ff77" stroke="none" /><path d="M 79.05617556472873 98.46500227214037 l -27.56435183280094 -2.0202240313864115 a48.638284988389344,48.638284988389344 0 0,0 0.06838430811507627,-0.8344617701046911 l 27.525493040866365 2.4943997186988813" fill="#b0ff20" stroke="none" /><path d="M 79.16333360222342 97.38593545837743 l -14.629518462757227 -1.835346631003654 a35.74419572944184,35.74419572944184 0 0,0 0.08184399719673582,-0.6098328432147497 l 14.595758466502657 2.086897816283063" fill="#ffad10" stroke="none" /><path d="M 79.26566170972629 96.67025291283419 l -18.035381133655644 -2.8963189929184057 a39.266462064257595,39.266462064257595 0 0,0 0.11291564517844271,-0.6664345296313723 l 17.982853626956977 3.206339310865606" fill="#ffdb14" stroke="none" /><path d="M 79.3925641242962 95.95851677861259 l -16.521183717089556 -3.240096788014193 a37.835906230717875,37.835906230717875 0 0,0 0.13084143572233217,-0.6380293079721905 l 16.46296298545223 3.5240017521497857" fill="#ffc912" stroke="none" /><path d="M 79.54389044137918 95.25157060432595 l -18.926838218520107 -4.393443176789829 a40.43006813929674,40.43006813929674 0 0,0 0.1631973172110779,-0.6765582394840841 l 18.848408101048214 4.718586647933311" fill="#ffea16" stroke="none" /><path d="M 79.62865764111835 94.90015583598534 l -14.32609186551839 -3.586451727450751 a35.768193665191646,35.768193665191646 0 0,0 0.15466110415107795,-0.5959723245290972 l 14.262234429497004 3.832520477528712" fill="#ffae10" stroke="none" /><path d="M 79.81627453868168 94.20196356495316 l -21.40706541828576 -6.149456674909868 a43.27281453295384,43.27281453295384 0 0,0 0.21181857854126093,-0.7141469461851944 l 21.29804094263279 6.5170330078416026" fill="#f0ff19" stroke="none" /><path d="M 80.02781315780177 93.51064311812611 l -16.376666690977807 -5.32110156654006 a38.219446384504266,38.219446384504266 0 0,0 0.2086831025234242,-0.6239359148583938 l 16.28264629468261 5.602210584320776" fill="#ffce13" stroke="none" /><path d="M 80.2630227832202 92.82701384747504 l -30.184217141428128 -10.969814131223654 a53.1157871850353,53.1157871850353 0 0,0 0.31969484658631014,-0.8566232465735649 l 29.99091770634019 11.48776051482656" fill="#7eff26" stroke="none" /><path d="M 80.38941819471856 92.48833698450439 l -11.735718361097495 -4.495264977278106 a33.567199078034214,33.567199078034214 0 0,0 0.2113238205010226,-0.537796072984125 l 11.656600990714782 4.696610055157994" fill="#ff900d" stroke="none" /><path d="M 80.65960295795068 91.81776055985345 l -10.335193091670279 -4.37245545437024 a32.222057874675265,32.222057874675265 0 0,0 0.22050519355131626,-0.5089563885814233 l 10.258397188276282 4.549710987538263" fill="#ff7e0b" stroke="none" /><path d="M 80.95270993114464 91.15688171328213 l -12.20407354242478 -5.666006320339084 a34.455223470869406,34.455223470869406 0 0,0 0.254380956119508,-0.5357911688196548 l 12.10473439246352 5.875239904799271" fill="#ff9c0e" stroke="none" /><path d="M 81.26839172434947 90.50648371742162 l -35.989596203152296 -18.240175244438888 a61.34792470268818,61.34792470268818 0 0,0 0.4854974467043044,-0.9378265362991383 l 35.670289323287875 18.856974502998362" fill="#30ff37" stroke="none" /><line stroke="#e1ed5e" stroke-width="0.3" x1="26.266209847984243" x2="21.928928074336255" y1="57.711370442889674" y2="55.22380399835377" /><path d="M 25.398753493254645 57.213857153982495 a86.0,86.0 0 0,1 29.58750427330803,-30.492523968695096" fill="none" id="id59" stroke="none" /><text fill="#e1ed5e" style="font-size:6.75px; font-family:Arial;" text-anchor="middle"><textPath startOffset="21.46611528233685" xlink:href="#id59">November</textPath></text><path d="M 81.78341655067845 89.55222093294921 l -16.382786804498526 -9.396039466575735 a39.886007019460195,39.886007019460195 0 0,0 0.34670498597196037,-0.5926312070985127 l 16.21862214405624 9.67665008602814" fill="#ffe315" stroke="none" /><path d="M 82.15384107792192 88.93136811851018 l -14.349842598471815 -8.900129488553867 a37.88580135835852,37.88580135835852 0 0,0 0.3484995865020042,-0.5512426534894483 l 14.194515415723847 9.145819789757532" fill="#ffca12" stroke="none" /><path d="M 82.7489923806493 88.02491185347247 l -36.628974647433544 -25.426642303949546 a65.5891906472334,65.5891906472334 0 0,0 0.6517922078740528,-0.9219138544642648 l 36.18586981975562 26.053382658745594" fill="#36ff6b" stroke="none" /><path d="M 83.6137871275137 86.86637796730984 l -13.106609848765219 -10.505005715667734 a37.79697493044391,37.79697493044391 0 0,0 0.41126979840748673,-0.5041681437592284 l 12.92384155828134 10.729058029035043" fill="#ffc812" stroke="none" /><path d="M 84.07557802195018 86.31012108654704 l -24.676447892581653 -21.21380506804086 a53.54155199218583,53.54155199218583 0 0,0 0.606825000514769,-0.6937058758964326 l 24.30763102848904 21.635426500140234" fill="#7aff26" stroke="none" /><path d="M 84.5562425177563 85.77008943001954 l -9.513393860680608 -8.765661077631652 a33.936053373279734,33.936053373279734 0 0,0 0.3995286360585472,-0.4261892926186989 l 9.361097902651604 8.928119787128402" fill="#ff950d" stroke="none" /><path d="M 84.80347519578584 85.50635884689758 l -8.209655915123372 -7.8299353541176835 a32.34488157251464,32.34488157251464 0 0,0 0.38773155133773385,-0.3995914462191103 l 8.07366010008252 7.970090995886918" fill="#ff7f0b" stroke="none" /><path d="M 85.05521093208273 85.24692304244772 l -15.188700087244191 -14.993859080509777 a42.34273694881791,42.34273694881791 0 0,0 0.5165092061533276,-0.5142911514760201 l 14.92835508092355 15.253086082635907" fill="#fcff18" stroke="none" /><path d="M 86.10567301691215 84.25364557470407 l -29.786004663664087 -33.75629398375785 a66.01881226045069,66.01881226045069 0 0,0 0.8585784302049287,-0.7445507541013672 l 29.200532434812388 34.2640097312789" fill="#36ff70" stroke="none" /><path d="M 86.93701828274178 83.55741782278169 l -6.87895096066718 -8.65864462738948 a32.05857554582346,32.05857554582346 0 0,0 0.43503096945342057,-0.3395485720052898 l 6.728887436054334 8.77577158861799" fill="#ff7b0b" stroke="none" /><path d="M 87.51073957382395 83.11751280151077 l -6.434987358757486 -8.698560843440289 a31.820075002253972,31.820075002253972 0 0,0 0.4431395223039583,-0.3219597087938068 l 6.284302520099747 8.808039787050765" fill="#ff780b" stroke="none" /><path d="M 87.80319425747018 82.90503203632743 l -8.478959779267123 -11.88405791250842 a35.59875307710503,35.59875307710503 0 0,0 0.5018896312276739,-0.35160576032834867 l 8.27313900845579 12.028248515600712" fill="#ffab0f" stroke="none" /><path d="M 88.09926311788651 82.69761687909137 l -22.56514478137122 -32.807277738646974 a60.81837806371533,60.81837806371533 0 0,0 0.8676619315094003,-0.5858492093145604 l 21.99707815545528 33.1908388602602" fill="#30ff31" stroke="none" /><path d="M 88.70189139769569 82.29822771554957 l -7.70123091419417 -12.066217519384688 a35.314418004894435,35.314418004894435 0 0,0 0.5152219677057384,-0.3226319489107807 l 7.492389794116189 12.1969938096184" fill="#ffa80f" stroke="none" /><line stroke="#e1ed5e" stroke-width="0.3" x1="56.762969772571076" x2="54.21961505331055" y1="26.818313649435495" y2="22.513508569990535" /><path d="M 56.25429882871897 25.957352633546506 a86.0,86.0 0 0,1 42.265352541879196,-11.944610805530505" fill="none" id="id60" stroke="none" /><text fill="#e1ed5e" style="font-size:6.75px; font-family:Arial;" text-anchor="middle"><textPath startOffset="22.20632615414155" xlink:href="#id60">December</textPath></text><path d="M 89.3179101791058 81.91981866633112 l -7.623370071202067 -12.903085030365302 a35.986840045297626,35.986840045297626 0 0,0 0.5360381502103316,-0.3105078954703474 l 7.4001351885264155 13.032397083225698" fill="#ffb110" stroke="none" /><path d="M 89.63071344664047 81.73862282372117 l -9.513772182126745 -16.75472862023645 a40.26740232286592,40.26740232286592 0 0,0 0.6056905899732238,-0.3370661575528136 l 9.223957503081476 16.916010175349445" fill="#ffe815" stroke="none" /><path d="M 90.26544431104013 81.39251694778311 l -15.21113121764059 -29.075889581513827 a53.81441554982603,53.81441554982603 0 0,0 0.8244868485569847,-0.42233418707382286 l 14.708383881494841 29.333416293900157" fill="#77ff27" stroke="none" /><path d="M 90.91171255644093 81.06846463323043 l -9.084459519454876 -18.92356153440457 a41.99115494457155,41.99115494457155 0 0,0 0.6543057538360949,-0.3072053247083515 l 8.757375554319172 19.07713184175293" fill="#fffe18" stroke="none" /><path d="M 91.56875222667455 80.76684994638697 l -5.796294281014418 -13.22236051635795 a35.437030339258214,35.437030339258214 0 0,0 0.5607762265434822,-0.24009511448889176 l 5.567834296680627 13.32017515880963" fill="#ffa90f" stroke="none" /><path d="M 92.23578459929587 80.48803036053334 l -15.474631024194862 -38.88873699957577 a62.85448686529495,62.85448686529495 0 0,0 1.0087152489957676,-0.3913658452787055 l 14.802932610199417 39.14934554874503" fill="#32ff4a" stroke="none" /><path d="M 93.25333710446033 80.11325718540243 l -5.60289560268381 -16.51532699837077 a38.43985278027564,38.43985278027564 0 0,0 0.6284315128543576,-0.20718398934393972 l 5.317781267587042 16.609324711973947" fill="#ffd113" stroke="none" /><path d="M 93.94186890950719 79.89281104454417 l -4.862830368875551 -16.13993616591677 a37.856590955360055,37.856590955360055 0 0,0 0.6255527326263329,-0.18261599643901166 l 4.584287418525797 16.22125049127448" fill="#ffc912" stroke="none" /><path d="M 96.75951476605007 79.25152402106235 l -2.283577331614696 -14.621498322120203 a35.798747873155634,35.798747873155634 0 0,0 0.6096544143454471,-0.08984721300219445 l 2.0315539368406 14.658640019283366" fill="#ffae10" stroke="none" /><path d="M 98.55514903715128 79.0497635885617 l -0.6398665733387732 -9.278019898186445 a30.300058196743713,30.300058196743713 0 0,0 0.5206386152263424,-0.03140634307283614 l 0.4800659092728078 9.287659510639587" fill="#ff6309" stroke="none" /><path d="M 99.27714615592234 79.0124445844662 l -0.5758618804467364 -16.71974663562956 a37.72966062013804,37.72966062013804 0 0,0 0.6492616386311691,-0.016768512617427445 l 0.2879736066206882 16.727181940389343" fill="#ffc812" stroke="none" /><path d="M 99.63851952072746 79.00311137660856 l -0.04274736341231011 -2.483015487636306 a23.48338342768902,23.48338342768902 0 0,0 0.40422784268484524,-0.0034793166612728864 l 6.082535131549882e-16 2.48338342768902" fill="#ff0000" stroke="none" /></svg>