<?xml version="1.0" encoding="utf-8" ?>
<svg baseProfile="full" height="200mm" version="1.1" viewBox="0,0,200,200" width="200mm" xmlns="http://www.w3.org/2000/svg" xmlns:ev="http://www.w3.org/2001/xml-events" xmlns:xlink="http://www.w3.org/1999/xlink"><defs /><rect fill="#1a1a1a" height="200" width="200" x="0" y="0" /><text alignment-baseline="middle" fill="#e1ed5e" style="dominant-baseline: central; font-size:9.0px; font-family:Arial;" text-anchor="middle" x="100.0" y="100.0">2024</text><line stroke="#e1ed5e" stroke-width="0.3" x1="100.0" x2="100.0" y1="15.0" y2="10.0" /><path d="M 100.0 14.0 a86.0,86.0 0 0,1 42.35913384403234,11.155469271406648" fill="none" id="id1" stroke="none" /><text fill="#e1ed5e" style="font-size:6.75px; font-family:Arial;" text-anchor="middle"><textPath startOffset="22.145653131862478" xlink:href="#id1">January</textPath></text><line stroke="#e1ed5e" stroke-width="0.3" x1="143.13028292997686" x2="145.6673583964461" y1="26.7553504044142" y2="22.446841604673864" /><path d="M 143.63769802327073 25.89364864446614 a86.0,86.0 0 0,1 29.32050498858742,28.57503671076993" fill="none" id="id2" stroke="none" /><text fill="#e1ed5e" style="font-size:6.75px; font-family:Arial;" text-anchor="middle"><textPath startOffset="20.669276256404974" xlink:href="#id2">February</textPath></text><line stroke="#e1ed5e" stroke-width="0.3" x1="172.87174338648825" x2="177.1583165268699" y1="56.24261187166439" y2="53.66864786411523" /><path d="M 173.72905801456457 55.72781907015455 a86.0,86.0 0 0,1 12.242430191666344,42.057860355516425" fill="none" id="id3" stroke="none" /><text fill="#e1ed5e" style="font-size:6.75px; font-family:Arial;" text-anchor="middle"><textPath startOffset="22.145653131862474" xlink:href="#id3">March</textPath></text><line stroke="#e1ed5e" stroke-width="0.3" x1="184.99686870605535" x2="189.99668451229388" y1="99.2704041080226" y2="99.22748670261217" /><path d="M 185.99683186730306 99.26182062694052 a86.0,86.0 0 0,1 -10.086455211305974,41.156179273409016" fill="none" id="id4" stroke="none" /><text fill="#e1ed5e" style="font-size:6.75px; font-family:Arial;" text-anchor="middle"><textPath startOffset="21.40746469413373" xlink:href="#id4">April</textPath></text><line stroke="#e1ed5e" stroke-width="0.3" x1="174.33088141563837" x2="178.70328620479359" y1="141.23008692659167" y2="143.65538615756765" /><path d="M 175.20536237346943 141.71514677278685 a86.0,86.0 0 0,1 -30.301960400862466,31.631185727798858" fill="none" id="id5" stroke="none" /><text fill="#e1ed5e" style="font-size:6.75px; font-family:Arial;" text-anchor="middle"><textPath startOffset="22.145653131862474" xlink:href="#id5">May</textPath></text><path d="M 117.21940702142032 112.02048342749411 l 8.623459258351213 6.01984429392571 a31.516775879686378,31.516775879686378 0 0,0 -0.3134942202038858,0.4409688806735459 l -8.518849939617366 -6.16699040130876" fill="#ff5e08" stroke="none" /><path d="M 117.01052211995028 112.31430620078461 l 10.307700940429703 7.46198057364143 a33.72516611910184,33.72516611910184 0 0,0 -0.34351166295599,0.4660395441248751 l -10.178087257889885 -7.637826427035182" fill="#ff7e0b" stroke="none" /><path d="M 116.57777611688842 112.89097897827486 l 11.63498712649498 9.047436363152986 a35.73869160336177,35.73869160336177 0 0,0 -0.3807592874581228,0.4810769212787694 l -11.477961408395295 -9.245833228346438" fill="#ff9a0e" stroke="none" /><path d="M 116.1254893667686 113.45245675266167 l 16.147980241132608 13.471219439971797 a42.0292895521433,42.0292895521433 0 0,0 -0.4669362735451745,0.5500497561416559 l -15.91434940408032 -13.74643597856301" fill="#ffef16" stroke="none" /><path d="M 115.6541949942343 113.99807769240083 l 15.709944867327366 14.047929572691421 a42.074788089415364,42.074788089415364 0 0,0 -0.48606858700394556,0.5342745238009855 l -15.46647857948154 -14.31554167205008" fill="#ffef16" stroke="none" /><path d="M 115.41159269507618 114.26474011684316 l 9.246083483116077 8.55803683596083 a33.598811621038486,33.598811621038486 0 0,0 -0.39541668026352456,0.41991881169798206 l -9.097810969116294 -8.71549710760331" fill="#ff7c0b" stroke="none" /><path d="M 114.91283532996324 114.78537596483092 l 14.921975198005057 14.794437714811863 a42.01287060606727,42.01287060606727 0 0,0 -0.5121730635089295,0.5077955422617405 l -14.665810214366163 -15.048413267302266" fill="#ffef16" stroke="none" /><path d="M 114.13192950727249 115.5334660781643 l 9.906152156754139 10.888596522710312 a35.72050898532873,35.72050898532873 0 0,0 -0.45711190590607637,0.4087522849531017 l -9.717775224024685 -11.0570443375468" fill="#ff9a0e" stroke="none" /><path d="M 113.86319453409587 115.77377054828091 l 6.939026557470193 7.8953384428649525 a31.51125390677334,31.51125390677334 0 0,0 -0.4093769849605073,0.3536100893583441 l -6.80247009274683 -8.013292664688015" fill="#ff5e08" stroke="none" /><path d="M 113.31354834802062 116.24036423190432 l 13.319431842060554 16.247541137990293 a42.00928027386906,42.00928027386906 0 0,0 -0.5616225273723345,0.4524033528784096 l -13.038558544332968 -16.473792784662106" fill="#ffef16" stroke="none" /><path d="M 112.7482090630111 116.68781488649013 l 9.257021975778082 12.117738920691027 a36.24900168568646,36.24900168568646 0 0,0 -0.49772815671601345,0.37350448787891427 l -9.047640830151302 -12.274862435833954" fill="#ffa10e" stroke="none" /><path d="M 111.8722381534696 117.32195027204791 l 6.136758199366085 8.953713612115829 a31.854896989160014,31.854896989160014 0 0,0 -0.45371037770215966,0.305276590568823 l -5.982151533566922 -9.057739876741772" fill="#ff6309" stroke="none" /><path d="M 111.5731344415666 117.5232005979908 l 8.119497088802065 12.293953462673256 a35.73321162263819,35.73321162263819 0 0,0 -0.5147528534023269,0.3336565805078506 l -7.907258603142727 -12.431523884885001" fill="#ff9a0e" stroke="none" /><path d="M 111.27062007382361 117.71928675628689 l 11.336338106540065 17.82260641919226 a42.12244922444425,42.12244922444425 0 0,0 -0.6134550455270907,0.38284131934790094 l -11.028718932223258 -18.01458353538171" fill="#fff016" stroke="none" /><line stroke="#e1ed5e" stroke-width="0.3" x1="143.1302829299769" x2="145.66735839644613" y1="173.24464959558577" y2="177.55315839532614" /><path d="M 143.63769802327073 174.10635135553383 a86.0,86.0 0 0,1 -40.68552437913181,11.842963189579606" fill="none" id="id6" stroke="none" /><text fill="#e1ed5e" style="font-size:6.75px; font-family:Arial;" text-anchor="middle"><textPath startOffset="21.407464694133747" xlink:href="#id6">June</textPath></text><path d="M 110.65571695917076 118.09573695890943 l 10.666370694535157 18.11382933068719 a42.020996094726385,42.020996094726385 0 0,0 -0.6247272137515407,0.3606864250295383 l -10.353851012923219 -18.2942626529929" fill="#ffef16" stroke="none" /><path d="M 110.34350942703117 118.27599006163325 l 5.244518111852081 9.266560983623057 a31.647728522494816,31.647728522494816 0 0,0 -0.47510144516069663,0.2635307628520005 l -5.08467247853529 -9.355224661908203" fill="#ff6008" stroke="none" /><path d="M 110.02825361518725 118.45085714620011 l 8.051190131630882 14.813283017757389 a37.85986406528386,37.85986406528386 0 0,0 -0.5736872465892418,0.30545614574610386 l -7.795714069255087 -14.949309631226061" fill="#ffb711" stroke="none" /><path d="M 109.3889696526874 118.78422872680471 l 9.407847359405494 18.821996785915314 a42.04222314649475,42.04222314649475 0 0,0 -0.6483306221061579,0.317130995533902 l -9.083356488037268 -18.98072153154644" fill="#ffef16" stroke="none" /><path d="M 108.73861861582097 119.09545874513695 l 10.666899299981244 23.309100039284193 a46.633901094396435,46.633901094396435 0 0,0 -0.7307900867962942,0.3268731105493421 l -10.265195810329324 -23.488776900743385" fill="#d5ff1c" stroke="none" /><path d="M 108.4095320186766 119.2426549942271 l 3.366945616398335 7.7042304776044235 a29.407823144895048,29.407823144895048 0 0,0 -0.46431441287801817,0.19818821301597916 l -3.2341961283498857 -7.760893340279806" fill="#ff3f06" stroke="none" /><path d="M 107.407793817531 119.65005319985036 l 5.399484807032877 14.322774948040173 a36.30674094618401,36.30674094618401 0 0,0 -0.5850759525843797,0.21484799393536 l -5.15281970279437 -14.413353790984255" fill="#ffa20f" stroke="none" /><path d="M 106.72888874123015 119.89276391827305 l 4.750694239936072 14.044583377324656 a35.82630830665496,35.82630830665496 0 0,0 -0.5842712375738776,0.1920615608919238 l -4.50890026471446 -14.1240658596186" fill="#ff9c0e" stroke="none" /><path d="M 106.38641147887787 120.00534299687104 l 6.651883544719457 20.836930462040417 a42.87293363434401,42.87293363434401 0 0,0 -0.7030331568218835,0.21780146908814776 l -6.293209755025949 -20.94804851893521" fill="#fffa17" stroke="none" /><path d="M 106.0420521117495 120.11202640906438 l 1.2106987260653403 4.030022300651128 a25.207953320682353,25.207953320682353 0 0,0 -0.41549907858600116,0.12094572622792957 l -1.1413396350977323 -4.050211721181576" fill="#ff0000" stroke="none" /><path d="M 105.69591212413111 120.21278271476187 l 4.842401743369904 17.183975476315997 a38.853231298978386,38.853231298978386 0 0,0 -0.6435179275986151,0.17539367276411927 l -4.546702414836594 -17.26456964322426" fill="#ffc512" stroke="none" /><path d="M 105.3480935250658 120.30758222061773 l 5.419215288394726 20.577643140403087 a42.279269055955595,42.279269055955595 0 0,0 -0.7034358483071493,0.17881064187518758 l -5.06517414686218 -20.667639014113544" fill="#fff216" stroke="none" /><path d="M 104.9986988182912 120.39639698878246 l 5.003231794985726 20.414893080578207 a42.01904345791682,42.01904345791682 0 0,0 -0.7020538704756999,0.16568280183868417 l -4.652045770770147 -20.497772026063114" fill="#ffef16" stroke="none" /><path d="M 104.29559338865022 120.5559693870025 l 4.326541678226969 20.70406815603421 a42.1512978585983,42.1512978585983 0 0,0 -0.7095539015450416,0.14193065252499623 l -3.970491291150968 -20.77528820522207" fill="#fff016" stroke="none" /><path d="M 103.94208987418118 120.62667999033965 l 2.602816839718822 13.619037551115934 a34.86552701197577,34.86552701197577 0 0,0 -0.5888376870278667,0.10730584179187436 l -2.368644419139898 -13.661711566839172" fill="#ff8e0d" stroke="none" /><path d="M 103.58742460773223 120.69131181640829 l 5.741814069351345 33.117257724306874 a54.61132529349541,54.61132529349541 0 0,0 -0.9250703330944333,0.152219971280137 l -5.172466233203839 -33.21094369408269" fill="#77ff27" stroke="none" /><path d="M 102.51750503828377 120.84855314841334 l 2.5187031478336133 20.858475214207754 a42.00999414108976,42.00999414108976 0 0,0 -0.716698698795868,0.08030758409050755 l -2.160268547436946 -20.89863855880523" fill="#ffef16" stroke="none" /><path d="M 101.80034050326958 120.92268563240118 l 1.8020037085384217 20.94201459873779 a42.01940039152718,42.01940039152718 0 0,0 -0.7191940629365935,0.05567016897243824 l -1.4422406508265924 -20.969862534705282" fill="#ffef16" stroke="none" /><path d="M 101.44090949804482 120.95050786540614 l 1.4424711534727874 20.97321399259258 a42.0227597666834,42.0227597666834 0 0,0 -0.7201013067153159,0.04331950644270542 l -1.0822254946250065 -20.994885476859977" fill="#ffef16" stroke="none" /><path d="M 101.08105385017728 120.97215588758144 l 1.0813824294319936 20.978530237342206 a42.006382812796815,42.006382812796815 0 0,0 -0.7204579514052133,0.03093956437310889 l -0.7210987174259508 -20.994002370141146" fill="#ffef16" stroke="none" /><path d="M 100.72087961077811 120.9876233191556 l 0.7224515568272526 21.033388813232783 a42.04579248259823,42.04579248259823 0 0,0 -0.721559229051086,0.018584806193563126 l -0.3612790137054227 -21.042691336776393" fill="#ffef16" stroke="none" /><line stroke="#e1ed5e" stroke-width="0.3" x1="101.45913802915013" x2="101.54496967792366" y1="184.9874750549273" y2="189.98673829345242" /><path d="M 101.47630435890484 185.9873277026323 a86.0,86.0 0 0,1 -42.54439059252881,-10.42667462771756" fill="none" id="id7" stroke="none" /><text fill="#e1ed5e" style="font-size:6.75px; font-family:Arial;" text-anchor="middle"><textPath startOffset="22.145653131862474" xlink:href="#id7">July</textPath></text><path d="M 99.63950707515114 120.99690560180557 l -0.36344048774156545 21.168586363195512 a42.17170606267234,42.17170606267234 0 0,0 -0.7237200660909144,-0.01864046169068776 l 0.7267738679032237 -21.159228184154777" fill="#fff116" stroke="none" /><path d="M 99.27912038922189 120.98762331915562 l -0.7226295809786174 21.038571792158535 a42.050978517995645,42.050978517995645 0 0,0 -0.7212228192242643,-0.03097241108828807 l 1.0836781608037205 -21.02306681264442" fill="#ffef16" stroke="none" /><path d="M 98.91894614982273 120.97215588758144 l -1.0819974346817536 20.990461174887855 a42.018329590696126,42.018329590696126 0 0,0 -0.7200253912939217,-0.043314939559466706 l 1.4421671781081218 -20.9687942575037" fill="#ffef16" stroke="none" /><path d="M 98.19965949673042 120.92268563240118 l -2.8808479261915867 33.479819736875534 a54.603535742351916,54.603535742351916 0 0,0 -0.9332015627929536,-0.08837515824249989 l 3.4551490523695554 -33.42543282312785" fill="#77ff26" stroke="none" /><path d="M 97.48249496171623 120.84855314841334 l -2.5185949152482316 20.85757889313809 a42.009091309016526,42.009091309016526 0 0,0 -0.7151991345327668,-0.09259684675076899 l 2.8762718716717925 -20.81127045018692" fill="#ffef16" stroke="none" /><path d="M 96.76829788921471 120.74984581791261 l -3.2340608146072527 20.764990388469567 a42.01532714915025,42.01532714915025 0 0,0 -0.7117046230256256,-0.1171107248834927 l 3.5900429406859415 -20.706413665090405" fill="#ffef16" stroke="none" /><path d="M 96.41257539226777 120.69131181640829 l -3.588296189797642 20.69633887014768 a42.00510205101851,42.00510205101851 0 0,0 -0.7094167005304531,-0.12927935475031674 l 3.9430476238791528 -20.631691341466" fill="#ffef16" stroke="none" /><path d="M 95.00130118170881 120.39639698878247 l -4.25726475923622 17.371093012845144 a38.885166359057216,38.885166359057216 0 0,0 -0.646965299900246,-0.16445604929651889 l 4.554835352361844 -17.29545173171336" fill="#ffc512" stroke="none" /><path d="M 94.30408787586889 120.21278271476187 l -3.4355452875253465 12.191538227789456 a33.66635605777326,33.66635605777326 0 0,0 -0.5549177175711454,-0.1615284601274927 l 3.6443230174780985 -12.130766073359448" fill="#ff7d0b" stroke="none" /><path d="M 93.95794788825049 120.11202640906438 l -3.627662136677721 12.0753074198328 a33.60844882851789,33.60844882851789 0 0,0 -0.5511135318454528,-0.17073638093104374 l 3.8344163013948074 -12.011254451095107" fill="#ff7c0b" stroke="none" /><path d="M 93.61358852112213 120.00534299687104 l -8.324499311490372 26.076375528631402 a48.372881644014214,48.372881644014214 0 0,0 -0.7888862894062717,-0.2593225926005802 l 8.770908338544388 -25.9296320146288" fill="#c0ff1e" stroke="none" /><path d="M 93.27111125876986 119.89276391827306 l -6.730557195305499 19.897696406282023 a42.00520703149215,42.00520703149215 0 0,0 -0.6810728827750924,-0.2369125029090855 l 7.071135850125613 -19.77922547080435" fill="#ffef16" stroke="none" /><path d="M 92.59220618246901 119.65005319985036 l -7.463527099617442 19.797892352096923 a42.157995612816016,42.157995612816016 0 0,0 -0.6749851182240425,-0.26109874406089745 l 7.802284480335013 -19.666853719897986" fill="#fff116" stroke="none" /><path d="M 92.25597844496254 119.51999308798841 l -4.649605973606226 11.720044400912581 a33.60865878946516,33.60865878946516 0 0,0 -0.5344505556245033,-0.21735638823275133 l 4.85011099042117 -11.63850075610054" fill="#ff7c0b" stroke="none" /><path d="M 91.26138138417905 119.09545874513695 l -15.159740959483406 33.12676989412048 a57.43076487773274,57.43076487773274 0 0,0 -0.892942519217742,-0.41794218630486496 l 15.726172192572637 -32.861651476245086" fill="#58ff2a" stroke="none" /><path d="M 90.93487009805054 118.94263497670748 l -11.0428187220838 23.07524397652597 a46.58145284976994,46.58145284976994 0 0,0 -0.7183298133276268,-0.3513711076645318 l 11.437308784673496 -22.882279118764217" fill="#d6ff1c" stroke="none" /><path d="M 90.28995756902619 118.62028667847754 l -9.712828694906408 18.625629706950964 a42.00602587918647,42.00602587918647 0 0,0 -0.636513678053155,-0.33890768178781194 l 10.031131188746125 -18.456151557440577" fill="#ffef16" stroke="none" /><path d="M 89.97174638481275 118.45085714620012 l -10.03161245540406 18.457037033884983 a42.00703369173334,42.00703369173334 0 0,0 -0.6306172147448259,-0.3497927387130914 l 10.346973858304988 -18.282111379738744" fill="#ffef16" stroke="none" /><line stroke="#e1ed5e" stroke-width="0.3" x1="58.13341422392154" x2="55.67067388415222" y1="173.97424548756322" y2="178.32567169271397" /><path d="M 57.64086615596768 174.84453072859336 a86.0,86.0 0 0,1 -31.369924170532247,-30.572349798747897" fill="none" id="id8" stroke="none" /><text fill="#e1ed5e" style="font-size:6.75px; font-family:Arial;" text-anchor="middle"><textPath startOffset="22.145653131862474" xlink:href="#id8">August</textPath></text><path d="M 89.65649057296885 118.27599006163327 l -10.348990467553936 18.285674535053868 a42.01112793020498,42.01112793020498 0 0,0 -0.6245805034995395,-0.3606017218260539 l 10.661363438913874 -18.105325915951642" fill="#ffef16" stroke="none" /><path d="M 89.03521579738668 117.91015095944536 l -14.599328872702293 23.84690653139964 a48.96096126120541,48.96096126120541 0 0,0 -0.7130484877435186,-0.44499499319008684 l 15.006541489235524 -23.592775741368005" fill="#b9ff1f" stroke="none" /><path d="M 88.72937992617639 117.7192867562869 l -13.843888975246225 21.76489287792719 a46.79464719562161,46.79464719562161 0 0,0 -0.6740977671495127,-0.43694202844814567 l 14.215472374652748 -21.52403700777515" fill="#d3ff1c" stroke="none" /><path d="M 88.1277618465304 117.32195027204791 l -11.875454931688436 17.32664364760379 a42.00568994167085,42.00568994167085 0 0,0 -0.591289911685271,-0.4127662802450537 l 12.171139934547472 -17.120232551553606" fill="#ffef16" stroke="none" /><path d="M 87.83215693770417 117.11559508785305 l -11.0034388784525 15.477714780946448 a39.9904007854539,39.9904007854539 0 0,0 -0.5560931634337566,-0.4025685656441388 l 11.26751305226021 -15.286545443929244" fill="#ffd413" stroke="none" /><path d="M 87.2517909369889 116.68781488649013 l -10.201386629849047 13.353942567382568 a37.80464433615347,37.80464433615347 0 0,0 -0.5123250392700676,-0.39838704930670005 l 10.429121613754342 -13.176854466455074" fill="#ffb710" stroke="none" /><path d="M 86.96720088162412 116.46651593811092 l -23.467341368325137 29.650219201320052 a58.81337871155965,58.81337871155965 0 0,0 -0.7862767031464102,-0.6333688544473104 l 23.97286884182681 -29.243002053079334" fill="#4aff2c" stroke="none" /><path d="M 86.40962598614128 116.0094264158162 l -13.597548396902793 16.017877821002383 a42.011085938015526,42.011085938015526 0 0,0 -0.545785062920785,-0.4714361382296264 l 13.870512939586442 -15.782097550308036" fill="#ffef16" stroke="none" /><path d="M 86.13680546590413 115.77377054828092 l -13.874116699865894 15.786197967972903 a42.016544922644385,42.016544922644385 0 0,0 -0.5376816701314986,-0.4807982649412916 l 14.143063396820764 -15.545704173148229" fill="#ffef16" stroke="none" /><path d="M 85.60350026404147 115.28858382429668 l -14.405467087366668 15.298106840738164 a42.01308056701454,42.01308056701454 0 0,0 -0.5208171821500553,-0.4989310791384613 l 14.665956755382037 -15.04856363129412" fill="#ffef16" stroke="none" /><path d="M 85.34317274990678 115.03919595460226 l -14.662395808696344 15.044909786292317 a42.00797851599602,42.00797851599602 0 0,0 -0.5121134247191395,-0.5077364132021336 l 14.918501153545446 -14.790993362861524" fill="#ffef16" stroke="none" /><path d="M 84.83555147118756 114.52719865689866 l -27.575333065415684 26.41654529739838 a59.18681525236306,59.18681525236306 0 0,0 -0.6965560052072236,-0.7397183391271615 l 28.02474490435916 -25.93928549832673" fill="#46ff2d" stroke="none" /><path d="M 84.58840730492382 114.26474011684316 l -13.590681829349277 12.579332204147091 a39.518807501804666,39.518807501804666 0 0,0 -0.45654064571071323,-0.5018181437857528 l 13.80462017590187 -12.344176484803665" fill="#ffce13" stroke="none" /><path d="M 84.1078160697243 113.72728997021213 l -15.907866598838543 13.740836285798027 a42.02072314549494,42.02072314549494 0 0,0 -0.4668411026288805,-0.5499376450415646 l 16.141402264974538 -13.465731858306908" fill="#ffef16" stroke="none" /><path d="M 83.8745106332314 113.45245675266167 l -16.1300842765849 13.456289989854069 a42.005983886997015,42.005983886997015 0 0,0 -0.4571714870659061,-0.5576748791764068 l 16.358702582889435 -13.177412828979167" fill="#ffef16" stroke="none" /><path d="M 83.4222238831116 112.89097897827486 l -21.55475869940285 16.761110737448114 a48.304623340058754,48.304623340058754 0 0,0 -0.5033986334579725,-0.6589649705097035 l 21.839309310215114 -16.38862485369754" fill="#c1ff1e" stroke="none" /><path d="M 82.98947788004972 112.3143062007846 l -13.623999838048096 9.86272522983877 a37.81923662198831,37.81923662198831 0 0,0 -0.37618416740267296,-0.529150142285814 l 13.79129910398073 -9.627397860843452" fill="#ffb711" stroke="none" /><path d="M 82.78059297857968 112.02048342749411 l -17.255320024648405 12.045553492891697 a42.04379785359923,42.04379785359923 0 0,0 -0.408045595515492,-0.5953507184474646 l 17.45955535697922 -11.747568039374183" fill="#ffef16" stroke="none" /><path d="M 82.37810715431573 111.42229804090323 l -8.823526114511305 5.719303024608044 a31.514991211634637,31.514991211634637 0 0,0 -0.29036158323889816,-0.4564966366286233 l 8.920405389376093 -5.566992713300748" fill="#ff5e08" stroke="none" /><line stroke="#e1ed5e" stroke-width="0.3" x1="26.387840678322732" x2="22.057713659400548" y1="142.50000000000003" y2="145.00000000000006" /><path d="M 25.521815274538298 143.00000000000003 a86.0,86.0 0 0,1 -11.493303480769221,-40.785679425670985" fill="none" id="id9" stroke="none" /><text fill="#e1ed5e" style="font-size:6.75px; font-family:Arial;" text-anchor="middle"><textPath startOffset="21.40746469413373" xlink:href="#id9">September</textPath></text><path d="M 81.81346652052679 110.50000000000001 l -33.33229854809852 19.244411539453676 a59.488823078907316,59.488823078907316 0 0,0 -0.5030109587123877,-0.8887721664656334 l 33.65774287183228 -18.66938260288892" fill="#43ff2d" stroke="none" /><path d="M 81.4637452351635 109.86951160357371 l -18.578453967884258 9.891980302317087 a42.047808107691964,42.047808107691964 0 0,0 -0.33376334899247423,-0.6400352300402229 l 18.745525385851682 -9.57159882917236" fill="#ffef16" stroke="none" /><path d="M 81.29705330413844 109.54985784667822 l -18.70816384759947 9.552521761529281 a42.00585791042866,42.00585791042866 0 0,0 -0.322405134458016,-0.6450262395535749 l 18.86938889526922 -9.229963665811953" fill="#ffef16" stroke="none" /><path d="M 80.9802524753101 108.90220220490708 l -16.62408532469866 7.7809113312353855 a39.35491198637053,39.35491198637053 0 0,0 -0.2811356277246449,-0.6143320834811173 l 16.75520541727836 -7.49439026553958" fill="#ffcc13" stroke="none" /><path d="M 80.83023694016515 108.57439118712176 l -19.17884783775651 8.57845469273242 a42.009952148900304,42.009952148900304 0 0,0 -0.28880065278046047,-0.6608324115087303 l 19.32328237255394 -8.24796021144784" fill="#ffef16" stroke="none" /><path d="M 80.5471966667186 107.91128576633889 l -11.779185429475326 4.790492168696346 a33.7160538139906,33.7160538139906 0 0,0 -0.21344080328311257,-0.5380102541257591 l 11.859684907724562 -4.587580897357022" fill="#ff7e0b" stroke="none" /><path d="M 80.41425534168474 107.57618678355246 l -11.760854036976005 4.549350993422564 a33.61008652390655,33.61008652390655 0 0,0 -0.2035319866753732,-0.5398927757110948 l 11.837216707465814 -4.3467899375173245" fill="#ff7c0b" stroke="none" /><path d="M 80.16572619554312 106.89939002012753 l -17.85855258946483 6.212131622484183 a39.90815908241066,39.90815908241066 0 0,0 -0.2195225796298842,-0.64897950006962 l 17.962560590667078 -5.9046504479404005" fill="#ffd313" stroke="none" /><path d="M 80.05021161711548 106.5578916946017 l -9.982034887513864 3.281293135931828 a31.507516601912045,31.507516601912045 0 0,0 -0.1644921684668328,-0.5152693748847225 l 10.03689177175795 -3.1094547273557134" fill="#ff5e08" stroke="none" /><path d="M 79.83685265289637 105.86919833188381 l -5.0117673837880075 1.458852443140213 a26.219776121641374,26.219776121641374 0 0,0 -0.12208615460195923,-0.43324069291652384 l 5.036072030464542 -1.3726038263206937" fill="#ff1001" stroke="none" /><path d="M 79.73907114497094 105.5222062557868 l -20.26512208736084 5.523349139905304 a42.00434619160836,42.00434619160836 0 0,0 -0.18364003963377698,-0.6973111420699378 l 20.35695160779935 -5.174657493462564" fill="#ffef16" stroke="none" /><path d="M 79.56144815229197 104.8234425847677 l -42.91577662733731 10.128006430450224 a65.09467539037738,65.09467539037738 0 0,0 -0.24732609840864697,-1.0897644243162332 l 43.08331358730362 -9.389807672194966" fill="#34ff5e" stroke="none" /><path d="M 79.48165901384964 104.47187691870673 l -16.42407254440563 3.5795501679238058 a37.80962041060363,37.80962041060363 0 0,0 -0.1327699029495074,-0.6353520488593065 l 16.483100158179504 -3.29708166777909" fill="#ffb711" stroke="none" /><path d="M 79.407916724674 104.11899336999214 l -20.60439505113434 4.121456069965199 a42.01255566464637,42.01255566464637 0 0,0 -0.13538787678709008,-0.7084065808212557 l 20.672109220203588 -3.7671469241106283" fill="#ffef16" stroke="none" /><path d="M 79.34024301695615 103.76489593502545 l -12.619235516816918 2.2996450800164783 a33.82706016680898,33.82706016680898 0 0,0 -0.09920217495590959,-0.5721717831935641 l 12.656852509265063 -2.082680263902321" fill="#ff800b" stroke="none" /><path d="M 79.2786578344484 103.40968896794605 l -20.764641716961048 3.416813892653058 a42.043881837978134,42.043881837978134 0 0,0 -0.11107294424219148,-0.7131679803888324 l 20.820236153341508 -3.0598577303327756" fill="#ffef16" stroke="none" /><path d="M 79.17382384314188 102.69636545807758 l -20.844583072894405 2.6987486018777758 a42.01856054773812,42.01856054773812 0 0,0 -0.08647402501168304,-0.7161289765053557 l 20.887839184165752 -2.340525948449021" fill="#ffef16" stroke="none" /><path d="M 79.13060592940153 102.33845913500099 l -20.872982938849113 2.3388612751741293 a42.00361132829293,42.00361132829293 0 0,0 -0.07414158947951464,-0.7172526223862513 l 20.91005692081029 -1.9802041305049463" fill="#ffef16" stroke="none" /><path d="M 79.06263194458094 101.62068470465958 l -20.945469310023146 1.6213117930018461 a42.008125488659104,42.008125488659104 0 0,0 -0.04948164873667852,-0.7194523129021803 l 20.970214919924892 -1.2615160559453227" fill="#ffef16" stroke="none" /><path d="M 79.01933749520258 100.90099992219065 l -62.94198751439227 2.7029997665719474 a84.0,84.0 0 0,0 -0.049501252012607466,-1.4411749417435205 l 62.97911345340172 -1.6221185602643071" fill="#4dd2ff" stroke="none" /><line stroke="#e1ed5e" stroke-width="0.3" x1="15.003131293944662" x2="10.003315487706104" y1="100.72959589197737" y2="100.7725132973878" /><path d="M 14.003168132696942 100.73817937305945 a86.0,86.0 0 0,1 10.791469493833604,-42.45332614584628" fill="none" id="id10" stroke="none" /><text fill="#e1ed5e" style="font-size:6.75px; font-family:Arial;" text-anchor="middle"><textPath startOffset="22.145653131862435" xlink:href="#id10">October</textPath></text><path d="M 79.00077361379809 100.18025310272382 l -21.009073191871177 0.18033762570772383 a42.00984716842667,42.00984716842667 0 0,0 0.0,-0.721181456863075 l 21.009073191871177 0.1803376257077161" fill="#ffef16" stroke="none" /><path d="M 79.00077361379809 99.81974689727619 l -21.006868683139253 -0.18031870265161856 a42.0076425784804,42.0076425784804 0 0,0 0.012379389022653111,-0.7210373485849052 l 21.000677862517932 0.5409029672055761" fill="#ffef16" stroke="none" /><path d="M 79.00696218219943 99.45929381324524 l -21.52525928455373 -0.554414323818808 a42.53239797397684,42.53239797397684 0 0,0 0.02506436846202317,-0.7297217401470849 l 21.512570229094855 0.9238423285300313" fill="#fff517" stroke="none" /><path d="M 79.01933749520258 99.09900007780938 l -6.304208861706006 -0.2707298538628959 a27.31001933640343,27.31001933640343 0 0,0 0.024134788133046536,-0.4682084421206021 l 6.298632484116389 0.37891008936021003" fill="#ff2003" stroke="none" /><path d="M 79.06263194458094 98.37931529534042 l -10.742117070703417 -0.8315077991689444 a31.774250989315988,31.774250989315988 0 0,0 0.046763189979638506,-0.543459151941179 l 10.726260258026034 1.015787998485804" fill="#ff6209" stroke="none" /><path d="M 79.0935383218832 98.0201363427161 l -21.146005173857816 -2.0025486753830126 a42.24061524556433,42.24061524556433 0 0,0 0.07455993082169665,-0.7212996953831818 l 21.108512850554455 2.365252893049107" fill="#fff216" stroke="none" /><path d="M 79.13060592940154 97.66154086499901 l -20.902319850246847 -2.342148537287198 a42.03313183747822,42.03313183747822 0 0,0 0.0865040126661011,-0.7163773173021084 l 20.85903375132108 2.700619531512743" fill="#ffef16" stroke="none" /><path d="M 79.17382384314186 97.30363454192245 l -20.839648187034005 -2.698109682103263 a42.01358447328796,42.01358447328796 0 0,0 0.09874289394893998,-0.7144543918969173 l 20.790260776529855 3.0554523822002473" fill="#ffef16" stroke="none" /><path d="M 79.22317932658666 96.9465228501225 l -19.519121997695215 -2.868638755779459 a40.72879144479127,40.72879144479127 0 0,0 0.10759869411279595,-0.6908608022992335 l 19.467001811444153 3.2032877400101425" fill="#ffde14" stroke="none" /><path d="M 79.34024301695615 96.23510406497455 l -21.237420301454424 -3.870165434617444 a42.58717678511797,42.58717678511797 0 0,0 0.1372396263944803,-0.7180957172420499 l 21.167854382777783 4.234163716892809" fill="#fff617" stroke="none" /><path d="M 79.407916724674 95.88100663000787 l -20.607153877151596 -4.1220079124340705 a42.015369141339704,42.015369141339704 0 0,0 0.14753854766864988,-0.7060253601499747 l 20.533357618658577 4.475149723869454" fill="#ffef16" stroke="none" /><path d="M 79.48165901384962 95.52812308129327 l -21.152814224147754 -4.610157407877497 a42.6493672176975,42.6493672176975 0 0,0 0.16204553644814232,-0.7140025329985548 l 21.07055782614195 4.9725942748150604" fill="#fff717" stroke="none" /><path d="M 79.64726062577567 94.8264132398404 l -20.50370826742756 -5.211962462452593 a42.155770026775016,42.155770026775016 0 0,0 0.18430205396356192,-0.6998249183100568 l 20.411216732659273 5.563167885135435" fill="#fff016" stroke="none" /><path d="M 79.73907114497095 94.47779374421319 l -20.826670848081594 -5.6764017517361784 a42.58637893351836,42.58637893351836 0 0,0 0.19829334996203227,-0.7036731447425962 l 20.72615900604498 6.033082820381789" fill="#fff617" stroke="none" /><path d="M 79.83685265289637 94.1308016681162 l -20.35351253957653 -5.924610865000616 a42.19826612250121,42.19826612250121 0 0,0 0.20842664055676147,-0.693784499322436 l 20.24880957901614 6.273132967913776" fill="#fff116" stroke="none" /><path d="M 79.94057633289273 93.78553927170692 l -10.878468774354623 -3.370177434012905 a32.38855472882044,32.38855472882044 0 0,0 0.16909182872657572,-0.5296777451360976 l 10.81901222985079 3.5564242128403944" fill="#ff6b09" stroke="none" /><path d="M 80.05021161711548 93.44210830539832 l -19.965067078948344 -6.562914105471327 a42.01608300856041,42.01608300856041 0 0,0 0.23111762456735116,-0.6832581901227623 l 19.84946403280863 6.904673970068251" fill="#ffef16" stroke="none" /><path d="M 80.28708602549916 92.7611449362534 l -11.995521387838455 -4.404921608898456 a33.77872715674884,33.77872715674884 0 0,0 0.20455322067345202,-0.5426017202208966 l 11.918137483350566 4.610191609313497" fill="#ff7f0b" stroke="none" /><path d="M 80.41425534168474 92.42381321644754 l -12.065434057507623 -4.667169088488253 a33.93665978128068,33.93665978128068 0 0,0 0.21483735802605,-0.5415304843750415 l 11.983538024515441 4.873600590076877" fill="#ff810b" stroke="none" /><path d="M 80.5471966667186 92.08871423366112 l -8.117915103872337 -3.30148540101336 a29.763580973938847,29.763580973938847 0 0,0 0.19654473595862407,-0.471635816701875 l 8.060044523377233 3.440353727156499" fill="#ff4506" stroke="none" /><path d="M 80.68587082218212 91.75594674310238 l -12.102473805356826 -5.165826409929935 a34.15886145176997,34.15886145176997 0 0,0 0.2348277248815214,-0.5373317900376486 l 12.012012198458327 5.372820269743451" fill="#ff840c" stroke="none" /><path d="M 80.9802524753101 91.09779779509293 l -40.56891727409511 -18.988301728996284 a65.79277454393483,65.79277454393483 0 0,0 0.4875581140668482,-1.0188089398160947 l 40.236979902068356 19.681923170877464" fill="#35ff67" stroke="none" /><path d="M 81.46374523516351 90.13048839642627 l -21.325646178943774 -11.35470541848964 a45.16014321336232,45.16014321336232 0 0,0 0.3702156507722422,-0.6811550991631654 l 21.12758517855618 11.719115351127424" fill="#e7ff1a" stroke="none" /><path d="M 81.63589988554816 89.8137432299009 l -17.657893086256927 -9.794535636081715 a41.192427208539215,41.192427208539215 0 0,0 0.3483047945725005,-0.61542119808879 l 17.487154926663056 10.09621360426961" fill="#ffe415" stroke="none" /><line stroke="#e1ed5e" stroke-width="0.3" x1="26.387840678322718" x2="22.05771365940052" y1="57.49999999999999" y2="54.99999999999999" /><path d="M 25.521815274538284 56.99999999999999 a86.0,86.0 0 0,1 29.574782752854787,-30.34633250058573" fill="none" id="id11" stroke="none" /><text fill="#e1ed5e" style="font-size:6.75px; font-family:Arial;" text-anchor="middle"><textPath startOffset="21.40746469413373" xlink:href="#id11">November</textPath></text><path d="M 81.81346652052679 89.5 l -15.748500171673733 -9.0924008134487 a39.184801626897396,39.184801626897396 0 0,0 0.3413300181385203,-0.5796529926687516 l 15.590096443405434 9.361404974411025" fill="#ffc912" stroke="none" /><path d="M 81.99639281039701 89.18935116829357 l -29.613774335807722 -17.782220615805233 a55.54248109851567,55.54248109851567 0 0,0 0.49785115601768876,-0.813202448387985 l 29.30415521533464 18.28796018031776" fill="#6dff28" stroke="none" /><path d="M 82.37810715431573 88.57770195909679 l -22.116260783039216 -14.335493038483746 a47.35593579594195,47.35593579594195 0 0,0 0.44802224355679526,-0.6783627794048988 l 21.86691410056169 14.713035696227706" fill="#ccff1d" stroke="none" /><path d="M 82.576782715395 88.27688183743585 l -20.99075892887714 -14.123519395155382 a46.299916215583906,46.299916215583906 0 0,0 0.44935229092033796,-0.6556184215086811 l 20.745216901141486 14.481772551734098" fill="#d9ff1c" stroke="none" /><path d="M 82.78059297857968 87.97951657250589 l -17.600040093505488 -12.286194873263671 a42.46420265830555,42.46420265830555 0 0,0 0.42238718039444967,-0.5941404662205856 l 17.386537814581065 12.586512566193777" fill="#fff417" stroke="none" /><path d="M 82.98947788004972 87.6856937992154 l -17.885975911669473 -12.948067232918012 a43.08077397604046,43.08077397604046 0 0,0 0.4388043118210016,-0.595322323793385 l 17.661069580264652 13.25319586598026" fill="#fffc17" stroke="none" /><path d="M 83.42222388311158 87.10902102172516 l -29.84586776673907 -23.20832729653361 a58.80743681675209,58.80743681675209 0 0,0 0.6265332258967993,-0.7916042636949153 l 29.44306811020071 23.717251504143206" fill="#4aff2c" stroke="none" /><path d="M 83.8745106332314 86.54754324733833 l -19.59298566154743 -16.345165487545437 a46.51567208499219,46.51567208499219 0 0,0 0.5167790085499538,-0.6087643726495116 l 19.30951208949036 16.679096642644506" fill="#d6ff1c" stroke="none" /><path d="M 84.10781606972428 86.27271002978789 l -14.316878145752314 -12.366578353056168 a39.91838418054242,39.91838418054242 0 0,0 0.452387322839021,-0.5147337297953577 l 14.1024797589547 12.610524360662826" fill="#ffd313" stroke="none" /><path d="M 84.34580500576568 86.00192230759919 l -14.098582589274699 -12.607039487503828 a39.91315615295555,39.91315615295555 0 0,0 0.4610963547316498,-0.5068256660425199 l 13.880088533701182 12.847202729104005" fill="#ffd313" stroke="none" /><path d="M 84.58840730492382 85.73525988315684 l -18.511535735658747 -17.134001115743988 a46.22401533314803,46.22401533314803 0 0,0 0.5439997967082222,-0.5777089323733602 l 18.214680105214253 17.44925150806186" fill="#daff1c" stroke="none" /><path d="M 85.08716467003674 85.21462403516908 l -27.20324421490535 -26.970739251197678 a59.30714387123995,59.30714387123995 0 0,0 0.7230051440500653,-0.7168256500364152 l 26.73624715072531 27.433744911462767" fill="#45ff2d" stroke="none" /><path d="M 85.34317274990677 84.96080404539775 l -10.272276092898819 -10.540260209445986 a35.717905469582654,35.717905469582654 0 0,0 0.4427787400473639,-0.42417201690506195 l 10.089824866986156 10.715044356656616" fill="#ff9a0e" stroke="none" /><path d="M 85.86807049272753 84.46653392183569 l -17.14336404405166 -18.84356015976861 a46.47498165341247,46.47498165341247 0 0,0 0.5947358546672931,-0.5318164685667593 l 16.817363162560973 19.13507215821877" fill="#d7ff1c" stroke="none" /><path d="M 86.13680546590413 84.22622945171909 l -14.88028656988917 -16.931034580003864 a43.54069343102183,43.54069343102183 0 0,0 0.5656568873017951,-0.4886009468369296 l 14.587450202824527 17.183979659305503" fill="#fcff18" stroke="none" /><path d="M 86.40962598614128 83.9905735841838 l -17.00493194389636 -20.03176707161675 a47.27621362426588,47.27621362426588 0 0,0 0.6232033007067252,-0.5198983584430142 l 16.658554309027725 20.32072761397164" fill="#cdff1d" stroke="none" /><path d="M 86.96720088162412 83.53348406188908 l -26.07462828695145 -32.94444104966069 a63.014550293645385,63.014550293645385 0 0,0 0.8539673503263667,-0.6640501767891251 l 25.50525099198984 33.38719227807062" fill="#32ff44" stroke="none" /><path d="M 87.25179093698888 83.31218511350988 l -10.888565757954412 -14.253482104818822 a38.93662778723157,38.93662778723157 0 0,0 0.5346314402067985,-0.40119739979336666 l 10.64228132883686 14.438298531876189" fill="#ffc612" stroke="none" /><path d="M 87.83215693770416 82.88440491214696 l -12.583236800422636 -17.69989840171139 a42.716911654432266,42.716911654432266 0 0,0 0.6013013702355604,-0.41975505584221434 l 12.27754033901331 17.91329827335873" fill="#fff817" stroke="none" /><path d="M 88.4268655584334 82.4767994020092 l -11.63414823091216 -17.61558325157044 a42.11071240749221,42.11071240749221 0 0,0 0.606623597102796,-0.3932060866236568 l 11.330039001552338 17.812703179898" fill="#fff016" stroke="none" /><path d="M 88.72937992617638 82.28071324371311 l -13.838232176133822 -21.755999450153094 a46.78410715606897,46.78410715606897 0 0,0 0.6813456271844024,-0.425210063467776 l 13.46272242015972 21.990345310462406" fill="#d3ff1c" stroke="none" /><line stroke="#e1ed5e" stroke-width="0.3" x1="56.869717070023135" x2="54.33264160355391" y1="26.7553504044142" y2="22.446841604673864" /><path d="M 56.362301976729285 25.89364864446614 a86.0,86.0 0 0,1 42.16139366436587,-11.88097634709845" fill="none" id="id12" stroke="none" /><text fill="#e1ed5e" style="font-size:6.75px; font-family:Arial;" text-anchor="middle"><textPath startOffset="22.145653131862474" xlink:href="#id12">December</textPath></text><path d="M 89.97174638481275 81.54914285379989 l -10.948335201263522 -20.14370363363165 a43.92672762866107,43.92672762866107 0 0,0 0.6656179055874948,-0.3544040436477079 l 10.600928479889465 20.328678145001934" fill="#f7ff19" stroke="none" /><path d="M 90.28995756902619 81.37971332152246 l -11.96329504408951 -22.941195666620338 a46.87313059770882,46.87313059770882 0 0,0 0.7166517270470698,-0.3659274781759594 l 11.567716095328857 23.14318109646913" fill="#d2ff1c" stroke="none" /><path d="M 90.93487009805054 81.0573650232925 l -5.90784289546896 -12.34511944991951 a34.68592641768631,34.68592641768631 0 0,0 0.5393022116760233,-0.2524206660294134 l 5.695051969921414 12.444716347519467" fill="#ff8c0c" stroke="none" /><path d="M 91.26138138417902 80.90454125486306 l -8.988199573142458 -19.640838179075818 a42.5997744419538,42.5997744419538 0 0,0 0.667572133820036,-0.298596524282963 l 8.649714036466804 19.792238454268624" fill="#fff617" stroke="none" /><path d="M 92.25597844496254 80.48000691201159 l -9.31369831707714 -23.47660391708135 a46.25660127216338,46.25660127216338 0 0,0 0.7406072566894487,-0.28648279694341067 l 8.909318797894162 23.6330266021628" fill="#daff1c" stroke="none" /><path d="M 92.592206182469 80.34994680014964 l -7.410067587311801 -19.656084644334044 a42.006445801081,42.006445801081 0 0,0 0.6769255695018455,-0.2485764455172131 l 7.0715528661558285 19.78039193885998" fill="#ffef16" stroke="none" /><path d="M 92.93061703081487 80.22567764915836 l -6.088957077979282 -17.031896640093898 a39.087589708314255,39.087589708314255 0 0,0 0.6337666038263856,-0.22045692343660736 l 5.795684702107892 17.13391199609909" fill="#ffc812" stroke="none" /><path d="M 93.61358852112211 79.99465700312896 l -7.053865310763743 -22.096132618807268 a44.19474277784332,44.19474277784332 0 0,0 0.7247082692085637,-0.22451647431181376 l 6.673516408683563 22.213965680925725" fill="#f3ff19" stroke="none" /><path d="M 93.95794788825049 79.88797359093562 l -9.07119717552698 -30.195065150340522 a52.52821875131225,52.52821875131225 0 0,0 0.8658150946759312,-0.25202615553577556 l 8.551522068469424 30.34633500017882" fill="#8fff24" stroke="none" /><path d="M 94.6519064749342 79.69241777938228 l -6.7329440330216475 -25.5660851659699 a47.437799569280116,47.437799569280116 0 0,0 0.7892626700258053,-0.20062748433289876 l 6.293076069770464 25.67789788213806" fill="#cbff1d" stroke="none" /><path d="M 95.35216902796891 79.52079915486377 l -5.765747088743931 -25.404945524739396 a47.05100951223072,47.05100951223072 0 0,0 0.7891968517247154,-0.1720017806471762 l 5.3287878204000965 25.50017876352029" fill="#d0ff1d" stroke="none" /><path d="M 96.05791012581881 79.37332000966035 l -8.281795644582697 -43.33385436618902 a65.11814902428148,65.11814902428148 0 0,0 1.099768841636189,-0.20041451817376457 l 7.536692069395469 43.469637058294154" fill="#34ff5e" stroke="none" /><path d="M 96.41257539226777 79.30868818359171 l -4.665657704829589 -26.91027379117056 a48.31174101617099,48.31174101617099 0 0,0 0.8183606260059819,-0.13466092958654444 l 4.203019575770534 26.986400719252774" fill="#c0ff1e" stroke="none" /><path d="M 96.76829788921471 79.25015418208739 l -3.39406171126446 -21.792310921907568 a43.05503276390591,43.05503276390591 0 0,0 0.7312690125773241,-0.10747136221739523 l 3.019467593079451 21.84736335742385" fill="#fffc17" stroke="none" /><path d="M 97.48249496171623 79.15144685158666 l -3.196020150138091 -26.46763162348161 a47.65989625929576,47.65989625929576 0 0,0 0.8130871315779065,-0.09110810903076633 l 2.7411971169593854 26.518595493019344" fill="#c8ff1d" stroke="none" /><path d="M 97.84075906011542 79.11130261209362 l -2.6703612787058084 -25.833323015008272 a46.97097239913376,46.97097239913376 0 0,0 0.802757262013309,-0.07602194733623935 l 2.226504453307484 25.875356717849698" fill="#d1ff1d" stroke="none" /><path d="M 98.1996594967304 79.07731436759882 l -1.8548500759495867 -21.556169493409044 a42.63582473659899,42.63582473659899 0 0,0 0.7297446354125446,-0.056486850008557736 l 1.484536445761825 21.584834110412654" fill="#fff717" stroke="none" /></svg>