<?xml version="1.0" encoding="utf-8" ?>
<svg baseProfile="full" height="200mm" version="1.1" viewBox="0,0,200,200" width="200mm" xmlns="http://www.w3.org/2000/svg" xmlns:ev="http://www.w3.org/2001/xml-events" xmlns:xlink="http://www.w3.org/1999/xlink"><defs /><rect fill="#1a1a1a" height="200" width="200" x="0" y="0" /><text alignment-baseline="middle" fill="#e1ed5e" style="dominant-baseline: central; font-size:9.0px; font-family:Arial;" text-anchor="middle" x="100.0" y="100.0">2024</text><line stroke="#e1ed5e" stroke-width="0.3" x1="100.0" x2="100.0" y1="15.0" y2="10.0" /><path d="M 100.0 14.0 a86.0,86.0 0 0,1 42.35913384403234,11.155469271406648" fill="none" id="id121" stroke="none" /><text fill="#e1ed5e" style="font-size:6.75px; font-family:Arial;" text-anchor="middle"><textPath startOffset="22.145653131862478" xlink:href="#id121">January</textPath></text><line stroke="#e1ed5e" stroke-width="0.3" x1="143.13028292997686" x2="145.6673583964461" y1="26.7553504044142" y2="22.446841604673864" /><path d="M 143.63769802327073 25.89364864446614 a86.0,86.0 0 0,1 29.32050498858742,28.57503671076993" fill="none" id="id122" stroke="none" /><text fill="#e1ed5e" style="font-size:6.75px; font-family:Arial;" text-anchor="middle"><textPath startOffset="20.669276256404974" xlink:href="#id122">February</textPath></text><line stroke="#e1ed5e" stroke-width="0.3" x1="172.87174338648825" x2="177.1583165268699" y1="56.24261187166439" y2="53.66864786411523" /><path d="M 173.72905801456457 55.72781907015455 a86.0,86.0 0 0,1 12.242430191666344,42.057860355516425" fill="none" id="id123" stroke="none" /><text fill="#e1ed5e" style="font-size:6.75px; font-family:Arial;" text-anchor="middle"><textPath startOffset="22.145653131862474" xlink:href="#id123">March</textPath></text><path d="M 118.18653347947321 89.5 l 9.811783138587819 -5.664835636293909 a32.32967127258782,32.32967127258782 0 0,0 0.2733652827542147,0.48301026127121227 l -9.907581786363409 5.495568604923579" fill="#ff810b" stroke="none" /><line stroke="#e1ed5e" stroke-width="0.3" x1="184.99686870605535" x2="189.99668451229388" y1="99.2704041080226" y2="99.22748670261217" /><path d="M 185.99683186730306 99.26182062694052 a86.0,86.0 0 0,1 -10.086455211305974,41.156179273409016" fill="none" id="id124" stroke="none" /><text fill="#e1ed5e" style="font-size:6.75px; font-family:Arial;" text-anchor="middle"><textPath startOffset="21.40746469413373" xlink:href="#id124">April</textPath></text><path d="M 120.99922638620191 99.81974689727618 l 9.095050595629528 -0.07807007073220762 a30.095385658288777,30.095385658288777 0 0,0 0.0,0.5166463469120679 l -9.095050595629528 -0.07807007073220652" fill="#ff6209" stroke="none" /><path d="M 120.592083275326 104.11899336999214 l 15.381933473779915 3.076817490927542 a36.686640279686046,36.686640279686046 0 0,0 -0.1288265160184346,0.6164815148719649 l -15.326849246937117 -3.340415457084916" fill="#ffbc11" stroke="none" /><path d="M 120.51834098615036 104.47187691870673 l 14.232090873760406 3.101817965022846 a35.56618293607192,35.56618293607192 0 0,0 -0.13513309972150894,0.5954213711031854 l -14.176746912481233 -3.3456736700650485" fill="#ffad10" stroke="none" /><path d="M 120.26092885502905 105.52220625578681 l 14.897278181373322 4.060319413586829 a36.44069593488492,36.44069593488492 0 0,0 -0.1696774380173705,0.6021253684221389 l -14.825382251281372 -4.3154527059119765" fill="#ffb811" stroke="none" /><path d="M 120.16314734710363 105.8691983318838 l 14.464986339260067 4.210546708388875 a36.06534212616842,36.06534212616842 0 0,0 -0.17813476217401464,0.5929526880857781 l -14.390575257082421 -4.458237000065377" fill="#ffb310" stroke="none" /><path d="M 119.71291397450082 107.23885506374661 l 22.932127509229513 8.42099486445268 a45.429400864669184,45.429400864669184 0 0,0 -0.2751059925085543,0.729751329687039 l -22.784190832906518 -8.813414474333879" fill="#d5ff1c" stroke="none" /><path d="M 119.31412917781788 108.2440532568976 l 25.05302108777726 10.693644957652156 a48.2398221011983,48.2398221011983 0 0,0 -0.3316283737591515,0.7588306184424433 l -24.86575883200114 -11.122137645870444" fill="#b4ff20" stroke="none" /><line stroke="#e1ed5e" stroke-width="0.3" x1="174.33088141563837" x2="178.70328620479359" y1="141.23008692659167" y2="143.65538615756765" /><path d="M 175.20536237346943 141.71514677278685 a86.0,86.0 0 0,1 -30.301960400862466,31.631185727798858" fill="none" id="id125" stroke="none" /><text fill="#e1ed5e" style="font-size:6.75px; font-family:Arial;" text-anchor="middle"><textPath startOffset="22.145653131862474" xlink:href="#id125">May</textPath></text><path d="M 118.36410011445183 110.18625677009912 l 19.518299867860193 10.826471916985097 a43.31986836656924,43.31986836656924 0 0,0 -0.3662934882651686,0.647205496200394 l -19.329573014573644 -11.159934183284614" fill="#eeff19" stroke="none" /><path d="M 115.89218393027572 113.72728997021213 l 11.720073069744668 10.123519977261422 a36.486954816559816,36.486954816559816 0 0,0 -0.4134995979135349,0.47048663735135704 l -11.544562407872547 -10.323218892424071" fill="#ffb911" stroke="none" /><path d="M 114.91283532996326 114.78537596483092 l 11.377957457749359 11.280710542459309 a37.02224535616362,37.02224535616362 0 0,0 -0.4513330450528029,0.44747552083873454 l -11.182632492566592 -11.474366073526705" fill="#ffc011" stroke="none" /><path d="M 114.13192950727249 115.5334660781643 l 10.186299679908037 11.196527725279177 a36.13680726810776,36.13680726810776 0 0,0 -0.4624392348516048,0.41351601534613364 l -9.992595418233055 -11.369739270508697" fill="#ffb410" stroke="none" /><path d="M 113.31354834802062 116.24036423190432 l 9.545752903803127 11.644266424928675 a36.0569033693913,36.0569033693913 0 0,0 -0.482045135444367,0.38830143892924845 l -9.344456998003508 -11.806416157651327" fill="#ffb310" stroke="none" /><path d="M 111.5731344415666 117.5232005979908 l 8.994570138355893 13.618925592103697 a37.32107307308746,37.32107307308746 0 0,0 -0.5376267059140474,0.348483135351902 l -8.759457800184835 -13.771322569159494" fill="#ffc412" stroke="none" /><line stroke="#e1ed5e" stroke-width="0.3" x1="143.1302829299769" x2="145.66735839644613" y1="173.24464959558577" y2="177.55315839532614" /><path d="M 143.63769802327073 174.10635135553383 a86.0,86.0 0 0,1 -40.68552437913181,11.842963189579606" fill="none" id="id126" stroke="none" /><text fill="#e1ed5e" style="font-size:6.75px; font-family:Arial;" text-anchor="middle"><textPath startOffset="21.407464694133747" xlink:href="#id126">June</textPath></text><path d="M 110.65571695917076 118.09573695890943 l 10.130712739350653 17.204165016769416 a40.96533582315795,40.96533582315795 0 0,0 -0.6090326857437215,0.35162518505941975 l -9.833887585746533 -17.375537099105006" fill="#fff316" stroke="none" /><path d="M 109.71004243097381 118.62028667847754 l 10.283608362247145 19.720174979196983 a43.24045642872974,43.24045642872974 0 0,0 -0.6611111180926214,0.3375680475013062 l -9.943570022440941 -19.89380097837113" fill="#efff19" stroke="none" /><path d="M 107.74402155503746 119.51999308798841 l 5.899168505806038 14.869758256716997 a36.99718411699688,36.99718411699688 0 0,0 -0.5923561671318186,0.22913609070638677 l -5.64304007618069 -14.968834235561424" fill="#ffc011" stroke="none" /><path d="M 107.06938296918513 119.77432235084164 l 9.181156657048923 25.681329202481756 a48.27314259793902,48.27314259793902 0 0,0 -0.782701258087896,0.2722641273399925 l -8.738949626916005 -25.83515176239034" fill="#b4ff20" stroke="none" /><path d="M 105.69591212413111 120.21278271476187 l 4.324822091672608 15.347267885091446 a36.9449903625364,36.9449903625364 0 0,0 -0.6119121328751715,0.16677937286751834 l -4.060728557862742 -15.419247752103107" fill="#ffbf11" stroke="none" /><path d="M 104.9986988182912 120.39639698878246 l 3.9766865238401667 16.226238064871595 a37.706431020621366,37.706431020621366 0 0,0 -0.6299987734457728,0.14867799513547866 l -3.6975555966545146 -16.292112203653296" fill="#ffc912" stroke="none" /><path d="M 104.64783097203109 120.47920084513623 l 3.5786637703586694 15.768252879979643 a37.169249619826644,37.169249619826644 0 0,0 -0.6234479362937067,0.13587757597990094 l -3.307453417445827 -15.827361914093263" fill="#ffc212" stroke="none" /><path d="M 103.58742460773223 120.69131181640829 l 2.733699653581678 15.767253149445914 a37.00248061003995,37.00248061003995 0 0,0 -0.6267911807539852,0.10313825027104735 l -2.4626309697746205 -15.811857398212632" fill="#ffc011" stroke="none" /><path d="M 102.875027216393 120.80226474461374 l 2.6319160378812336 19.04323336260078 a40.22424820202153,40.22424820202153 0 0,0 -0.6848124204758476,0.08866267825289144 l -2.3046257955146108 -19.085607637054068" fill="#ffe915" stroke="none" /><path d="M 101.08105385017728 120.97215588758144 l 1.1788356535982738 22.86909675132991 a43.899459376148656,43.899459376148656 0 0,0 -0.7529263995637677,0.03233389924017117 l -0.7860834934336765 -22.88596321899591" fill="#e7ff1a" stroke="none" /><line stroke="#e1ed5e" stroke-width="0.3" x1="101.45913802915013" x2="101.54496967792366" y1="184.9874750549273" y2="189.98673829345242" /><path d="M 101.47630435890484 185.9873277026323 a86.0,86.0 0 0,1 -42.54439059252881,-10.42667462771756" fill="none" id="id127" stroke="none" /><text fill="#e1ed5e" style="font-size:6.75px; font-family:Arial;" text-anchor="middle"><textPath startOffset="22.145653131862474" xlink:href="#id127">July</textPath></text><path d="M 100.36049292484886 120.99690560180557 l 0.2668176848539724 15.540792497162272 a36.543082806084705,36.543082806084705 0 0,0 -0.6273106097028227,0.005384707116868283 l -1.9034786607353893e-15 -15.543082806084705" fill="#ffba11" stroke="none" /><path d="M 99.27912038922189 120.98762331915562 l -0.591988876619878 17.235110226265586 a38.245274000188175,38.245274000188175 0 0,0 -0.655950593982395,-0.028169340887302257 l 0.8877652312031117 -17.222408316952457" fill="#ffd013" stroke="none" /><path d="M 97.84075906011543 120.88869738790638 l -2.4726479118290636 23.920625541583647 a45.04808337470029,45.04808337470029 0 0,0 -0.7685290940404297,-0.08611528798551966 l 2.882912907470293 -23.874654493091157" fill="#d9ff1c" stroke="none" /><path d="M 96.41257539226777 120.69131181640829 l -2.570701065025055 14.82712060584064 a36.04832247879693,36.04832247879693 0 0,0 -0.6088137093799967,-0.11094613850074449 l 2.8248495079561087 -14.780806293408531" fill="#ffb310" stroke="none" /><path d="M 95.70440661134978 120.55596938700252 l -2.911312791589077 13.9316856148479 a35.232624713714266,35.232624713714266 0 0,0 -0.5909645040630287,-0.12879796311398803 l 3.1500397122712425 -13.879656193600193" fill="#ffa80f" stroke="none" /><path d="M 93.95794788825049 120.11202640906438 l -3.268969127913978 10.881335052236933 a32.361760940905896,32.361760940905896 0 0,0 -0.5306702627033257,-0.1644030038933976 l 3.455280023488937 -10.823615460536887" fill="#ff820b" stroke="none" /><path d="M 92.93061703081489 119.77432235084164 l -4.986262626159856 13.947464004345047 a35.81197377561611,35.81197377561611 0 0,0 -0.5771028774450807,-0.2119201703056102 l 5.224954655259055 -13.859812985030716" fill="#ffb010" stroke="none" /><path d="M 91.92203290615298 119.3841803445677 l -6.212197490435113 14.90701250595433 a37.149625986778986,37.149625986778986 0 0,0 -0.5865482356072844,-0.2503625634667147 l 6.4671808012128285 -14.798175292828212" fill="#ffc212" stroke="none" /><path d="M 91.26138138417905 119.09545874513695 l -6.401058180775009 13.987467332069572 a36.382548169902805,36.382548169902805 0 0,0 -0.5656815521708303,-0.2647675293519709 l 6.640228446817329 -13.875523571147074" fill="#ffb811" stroke="none" /><path d="M 90.93487009805054 118.94263497670748 l -6.542142363891338 13.670561382490236 a36.15532497909085,36.15532497909085 0 0,0 -0.5575491156703646,-0.2727252116168594 l 6.775851728823772 -13.556242420776154" fill="#ffb510" stroke="none" /><path d="M 89.97174638481275 118.45085714620012 l -9.836246720638616 18.097586086417866 a41.59792153846061,41.59792153846061 0 0,0 -0.6244755488393402,-0.34638606016529766 l 10.14546645763406 -17.92606711081942" fill="#fffa17" stroke="none" /><line stroke="#e1ed5e" stroke-width="0.3" x1="58.13341422392154" x2="55.67067388415222" y1="173.97424548756322" y2="178.32567169271397" /><path d="M 57.64086615596768 174.84453072859336 a86.0,86.0 0 0,1 -31.369924170532247,-30.572349798747897" fill="none" id="id128" stroke="none" /><text fill="#e1ed5e" style="font-size:6.75px; font-family:Arial;" text-anchor="middle"><textPath startOffset="22.145653131862474" xlink:href="#id128">August</textPath></text><path d="M 89.34428304082925 118.09573695890944 l -10.894952384569198 18.502011013095654 a42.47147873321125,42.47147873321125 0 0,0 -0.6250734693811167,-0.37533865854383247 l 11.210958610507742 -18.312258354015903" fill="#f9ff18" stroke="none" /><path d="M 88.72937992617639 117.7192867562869 l -6.371761042103849 10.01746667956599 a32.87219345588199,32.87219345588199 0 0,0 -0.4735386104586383,-0.30694200616810824 l 6.542785284819496 -9.906610831693987" fill="#ff890c" stroke="none" /><path d="M 88.1277618465304 117.32195027204791 l -12.58610185171874 18.36349874186851 a43.26270526832811,43.26270526832811 0 0,0 -0.6089841926866852,-0.42511826259115537 l 12.89948113557919 -18.144735663472225" fill="#efff19" stroke="none" /><path d="M 87.54013794807813 116.9041958592261 l -8.993474429286833 12.2013753101028 a36.157708988109725,36.157708988109725 0 0,0 -0.4964746340264647,-0.3725638210834216 l 9.201602052224063 -12.045192461755365" fill="#ffb510" stroke="none" /><path d="M 86.96720088162412 116.46651593811092 l -9.597651362624402 12.1263189661425 a36.46488032113774,36.46488032113774 0 0,0 -0.4874993837736663,-0.39269499529735175 l 9.80440151675333 -11.95977567705174" fill="#ffb911" stroke="none" /><path d="M 86.40962598614128 116.0094264158162 l -16.288581166256623 19.187907656795545 a46.169300281403196,46.169300281403196 0 0,0 -0.5998063105598588,-0.5180984053005148 l 16.615566956579343 -18.905465119030307" fill="#ccff1d" stroke="none" /><path d="M 85.86807049272751 115.53346607816431 l -14.956477739660029 16.439789025148357 a43.225275916585026,43.225275916585026 0 0,0 -0.5445771968698936,-0.5040525233572911 l 15.23648470784389 -16.18061875565869" fill="#efff19" stroke="none" /><path d="M 84.83555147118756 114.52719865689866 l -10.817346395896985 10.362773148994208 a35.98005508622518,35.98005508622518 0 0,0 -0.4234409864956577,-0.4496796537641658 l 10.993643216128895 -10.175552035285552" fill="#ffb210" stroke="none" /><path d="M 84.1078160697243 113.72728997021213 l -18.015897138481083 15.561702858365681 a44.806283740987325,44.806283740987325 0 0,0 -0.497788075515011,-0.5863931012863698 l 18.280379777503207 -15.250142974629757" fill="#dcff1b" stroke="none" /><path d="M 83.4222238831116 112.89097897827486 l -15.390701038900024 11.967902217671668 a40.49626533366195,40.49626533366195 0 0,0 -0.4220251234670346,-0.5524444338068037 l 15.593878139721355 -11.701936870623994" fill="#ffed16" stroke="none" /><path d="M 82.98947788004972 112.3143062007846 l -23.30495171999223 16.8709878186458 a49.77066222122917,49.77066222122917 0 0,0 -0.4950638035323841,-0.6963692382069558 l 23.591130622054575 -16.46844135372934" fill="#a2ff22" stroke="none" /><path d="M 82.78059297857968 112.02048342749411 l -11.741686693468303 8.19660921738419 a35.3196232167637,35.3196232167637 0 0,0 -0.342785795399627,-0.5001347197656626 l 11.880662225683254 -7.993839762548475" fill="#ffaa0f" stroke="none" /><path d="M 82.18462484594161 111.11811171558189 l -19.113815987578317 11.92843482796717 a43.53054635493921,43.53054635493921 0 0,0 -0.39018301660755106,-0.6373346342363458 l 19.31576696864127 -11.598563077606267" fill="#ecff1a" stroke="none" /><line stroke="#e1ed5e" stroke-width="0.3" x1="26.387840678322732" x2="22.057713659400534" y1="142.50000000000003" y2="145.00000000000006" /><path d="M 25.521815274538284 143.00000000000003 a86.0,86.0 0 0,1 -11.493303480769212,-40.785679425670985" fill="none" id="id129" stroke="none" /><text fill="#e1ed5e" style="font-size:6.75px; font-family:Arial;" text-anchor="middle"><textPath startOffset="21.40746469413373" xlink:href="#id129">September</textPath></text><path d="M 81.81346652052679 110.50000000000001 l -27.20182737032873 15.704982354709038 a52.40996470941805,52.40996470941805 0 0,0 -0.4431552891809313,-0.7830129336630416 l 27.46741602453104 -15.235712650946875" fill="#85ff25" stroke="none" /><path d="M 81.1358732173502 109.22738970284198 l -12.663392160547845 6.194299676397492 a35.09719296501409,35.09719296501409 0 0,0 -0.26008815298760235,-0.5434842078491039 l 12.76785957149536 -5.976002966483284" fill="#ffa70f" stroke="none" /><path d="M 80.83023694016515 108.57439118712176 l -40.8207309882899 18.258593752325538 a65.71809839685486,65.71809839685486 0 0,0 -0.4517841307990883,-1.0337705048897192 l 41.12814900110596 -17.55516117765997" fill="#36ff6d" stroke="none" /><path d="M 80.28708602549918 107.23885506374661 l -13.900248590637567 5.104363820987118 a35.80781688496059,35.80781688496059 0 0,0 -0.20693478896459214,-0.5788334343217677 l 13.985823549646103 -4.864995430284428" fill="#ffb010" stroke="none" /><path d="M 80.05021161711548 106.5578916946017 l -14.717690657237174 4.837997249515549 a36.49247028941629,36.49247028941629 0 0,0 -0.19051725486524942,-0.5967925873563055 l 14.798572627879677 -4.584635628467852" fill="#ffb911" stroke="none" /><path d="M 79.64726062577567 105.17358676015961 l -20.34001928054068 5.170353362086761 a41.98687538014195,41.98687538014195 0 0,0 -0.1715713157248628,-0.70006951701249 l 20.425778122781836 -4.820428020466172" fill="#ffff18" stroke="none" /><path d="M 79.34024301695615 103.76489593502545 l -13.14076470438332 2.3946850710423835 a34.357178354931094,34.357178354931094 0 0,0 -0.10075681425906133,-0.5811385295648255 l 13.179936336134617 -2.1687535085569656" fill="#ff9d0e" stroke="none" /><path d="M 79.2786578344484 103.40968896794605 l -62.16402649665483 10.22906690383814 a84.0,84.0 0 0,0 -0.2219140314469299,-1.4248472722742 l 62.33046202024003 -9.16043144963249" fill="#4dd2ff" stroke="none" /><path d="M 79.00696218219943 100.54070618675478 l -9.849158437012697 0.25367938396724354 a30.85242483590859,30.85242483590859 0 0,0 -0.009092016259239779,-0.5295643658064882 l 9.852061884870603 -0.08456810219170287" fill="#ff6d0a" stroke="none" /><line stroke="#e1ed5e" stroke-width="0.3" x1="15.003131293944662" x2="10.003315487706104" y1="100.72959589197737" y2="100.7725132973878" /><path d="M 14.003168132696942 100.73817937305945 a86.0,86.0 0 0,1 10.791469493833604,-42.45332614584628" fill="none" id="id130" stroke="none" /><text fill="#e1ed5e" style="font-size:6.75px; font-family:Arial;" text-anchor="middle"><textPath startOffset="22.145653131862435" xlink:href="#id130">October</textPath></text><path d="M 79.00077361379809 99.81974689727619 l -15.396831604683394 -0.13216328153325962 a36.39739882564464,36.39739882564464 0 0,0 0.010726085345863555,-0.6247406979718096 l 15.392294087738863 0.39645089547412166" fill="#ffb811" stroke="none" /><path d="M 79.00696218219943 99.45929381324524 l -2.3061505190561746 -0.05939825689181842 a23.30691533643193,23.30691533643193 0 0,0 0.013734779639345305,-0.39987312324049656 l 2.304791052419979 0.09897764469645354" fill="#ff0000" stroke="none" /><path d="M 79.2786578344484 96.59031103205396 l -15.177763549569747 -2.4974952162652944 a36.38187208118427,36.38187208118427 0 0,0 0.10669448724256753,-0.6153854494584966 l 15.132654244834946 2.7576736986443837" fill="#ffb811" stroke="none" /><path d="M 79.34024301695615 96.23510406497455 l -14.918611884921342 -2.7186680505419707 a36.1643046837616,36.1643046837616 0 0,0 0.11654155166608676,-0.6097946440892225 l 14.869744040973096 2.974365259664508" fill="#ffb510" stroke="none" /><path d="M 79.407916724674 95.88100663000787 l -14.914231842852818 -2.9832640659940095 a36.20967376210996,36.20967376210996 0 0,0 0.12715163016765954,-0.6084665797605225 l 14.860822501860792 3.2388470970399412" fill="#ffb510" stroke="none" /><path d="M 79.64726062577567 94.8264132398404 l -15.21323415931933 -3.8671446324095538 a36.69704753112045,36.69704753112045 0 0,0 0.1604369041317062,-0.6092050572051029 l 15.144607774382898 4.127730193987442" fill="#ffbc11" stroke="none" /><path d="M 80.28708602549916 92.7611449362534 l -14.213023201492891 -5.21921899047297 a36.14101302412388,36.14101302412388 0 0,0 0.21885847202530465,-0.5805480989977865 l 14.121334045653152 5.4624353696649015" fill="#ffb410" stroke="none" /><line stroke="#e1ed5e" stroke-width="0.3" x1="26.387840678322718" x2="22.05771365940052" y1="57.49999999999999" y2="54.99999999999999" /><path d="M 25.521815274538284 56.99999999999999 a86.0,86.0 0 0,1 29.574782752854787,-30.34633250058573" fill="none" id="id131" stroke="none" /><text fill="#e1ed5e" style="font-size:6.75px; font-family:Arial;" text-anchor="middle"><textPath startOffset="21.40746469413373" xlink:href="#id131">November</textPath></text><path d="M 84.58840730492382 85.73525988315684 l -11.072169809480247 -10.248235077757606 a36.08705625690271,36.08705625690271 0 0,0 0.424700258644023,-0.4510169571469991 l 10.894613717099952 10.436793494849116" fill="#ffb410" stroke="none" /><line stroke="#e1ed5e" stroke-width="0.3" x1="56.869717070023135" x2="54.33264160355391" y1="26.7553504044142" y2="22.446841604673864" /><path d="M 56.362301976729285 25.89364864446614 a86.0,86.0 0 0,1 42.16139366436587,-11.88097634709845" fill="none" id="id132" stroke="none" /><text fill="#e1ed5e" style="font-size:6.75px; font-family:Arial;" text-anchor="middle"><textPath startOffset="22.145653131862474" xlink:href="#id132">December</textPath></text></svg>