<?xml version="1.0" encoding="utf-8" ?>
<svg baseProfile="full" height="200mm" version="1.1" viewBox="0,0,200,200" width="200mm" xmlns="http://www.w3.org/2000/svg" xmlns:ev="http://www.w3.org/2001/xml-events" xmlns:xlink="http://www.w3.org/1999/xlink"><defs /><rect fill="#1a1a1a" height="200" width="200" x="0" y="0" /><text alignment-baseline="middle" fill="#e1ed5e" style="dominant-baseline: central; font-size:9.0px; font-family:Arial;" text-anchor="middle" x="100.0" y="100.0">2019</text><line stroke="#e1ed5e" stroke-width="0.3" x1="100.0" x2="100.0" y1="15.0" y2="10.0" /><path d="M 100.0 14.0 a86.0,86.0 0 0,1 42.46469731375804,11.215312516191453" fill="none" id="id73" stroke="none" /><text fill="#e1ed5e" style="font-size:6.75px; font-family:Arial;" text-anchor="middle"><textPath startOffset="22.20632615414155" xlink:href="#id73">January</textPath></text><path d="M 100.0 79.0 l 0.0 -20.03302141557971 a41.03302141557971,41.03302141557971 0 0,0 0.7063160117763655,0.006079484905282374 l -0.3448355325038371 20.030053307282987" fill="#fffb17" stroke="none" /><path d="M 100.72285384407766 79.0124445844662 l 0.6396319802011503 -18.57126684737808 a39.58227869198555,39.58227869198555 0 0,0 0.6807382297395714,0.02931402014349036 l -0.9592110423300533 18.557505100710394" fill="#ffe915" stroke="none" /><path d="M 101.08401301168833 79.027996857942 l 0.9790104961172906 -18.94055788933906 a39.96584284209146,39.96584284209146 0 0,0 0.6867234689303974,0.04142503500632891 l -1.3048960138872998 18.920899584952426" fill="#ffee16" stroke="none" /><path d="M 101.44485096284872 79.0497635885617 l 2.2109797273189895 -32.059049119435166 a53.13519973171121,53.13519973171121 0 0,0 0.9119260606428675,0.07078301338372339 l -2.7624959773241984 32.01624084386298" fill="#78ff26" stroke="none" /><path d="M 102.16513564639614 79.11191278185805 l 1.888939497748443 -18.223492391544973 a39.321128987342775,39.321128987342775 0 0,0 0.672640894659164,0.0755790419063624 l -2.2023470959173324 18.18827739616801" fill="#ffe615" stroke="none" /><path d="M 103.2404852339499 79.25152402106235 l 3.6554015393375803 -23.405140143122768 a44.68886965503015,44.68886965503015 0 0,0 0.7590102198388541,0.12524318972393003 l -4.057740965315309 23.338750690459214" fill="#d7ff1c" stroke="none" /><path d="M 104.307194497241 79.44645832069477 l 5.717149956437121 -27.281721313430022 a48.87432728243053,48.87432728243053 0 0,0 0.8219202038996225,0.17963992170706525 l -6.185912884490271 27.179267893627088" fill="#a7ff21" stroke="none" /><path d="M 105.01212808612495 79.60689891045804 l 4.8612674363809045 -19.779286672232665 a41.36791845894857,41.36791845894857 0 0,0 0.6900387680843981,0.1759062463387949 l -5.201015093150327 19.692677429725002" fill="#ffff18" stroke="none" /><path d="M 105.71112130821622 79.79150937346287 l 6.199278156330552 -21.935806954979746 a43.79497041949594,43.79497041949594 0 0,0 0.7236801500037254,0.21126208040242322 l -6.575948524057704 21.825846545658617" fill="#e2ff1b" stroke="none" /><path d="M 106.0581310904928 79.89281104454417 l 8.957929769028922 -29.73174132831712 a52.051907319210116,52.051907319210116 0 0,0 0.8556704659474932,0.26586097896028654 l -9.468385607687134 29.573140214474314" fill="#84ff25" stroke="none" /><path d="M 106.40334571778207 80.00007090966166 l 5.480796867564554 -17.118480485199726 a38.97446823763277,38.97446823763277 0 0,0 0.6371716399974583,0.21006547184734967 l -5.7746513298044295 17.02160128909314" fill="#ffe115" stroke="none" /><path d="M 107.4271985657038 80.35727306442388 l 4.350247983353073 -11.505109562254951 a33.3000895751274,33.3000895751274 0 0,0 0.5344138473255724,0.20734427014505946 l -4.547644995678312 11.428522588219344" fill="#ff980e" stroke="none" /><path d="M 108.09893153111575 80.62456947434976 l 4.174115932037255 -9.985921344868544 a31.823209732791305,31.823209732791305 0 0,0 0.5035890225453272,0.21561053821526935 l -4.345388712372897 9.912591278690485" fill="#ff840c" stroke="none" /><path d="M 108.43124777332544 80.76684994638697 l 2.252109140151583 -5.1374546442210125 a26.6094060113868,26.6094060113868 0 0,0 0.4179170437872818,0.18750719555792594 l -2.340208302405645 5.097927118146556" fill="#ff3c05" stroke="none" /><path d="M 108.76106565485865 80.91482961587045 l 7.182349351080756 -15.64608308210768 a38.21586646129629,38.21586646129629 0 0,0 0.5954792466762416,0.27958549081945644 l -7.450606809056596 15.520132608648222" fill="#ffd814" stroke="none" /><path d="M 109.08828744355905 81.06846463323043 l 7.610731114764859 -15.853682683447383 a38.58586030675467,38.58586030675467 0 0,0 0.5962962074601696,0.29259995931470906 l -7.88249858923546 15.720327563997843" fill="#ffdd14" stroke="none" /><path d="M 109.73455568895987 81.39251694778311 l 11.54750878263139 -22.072920514680224 a45.91101722395816,45.91101722395816 0 0,0 0.6970931076563374,0.37236299624687885 l -11.925746936816038 21.87087879193159" fill="#c9ff1d" stroke="none" /><path d="M 110.36928655335952 81.73862282372117 l 10.812960074730178 -19.042731754068217 a42.89853278726926,42.89853278726926 0 0,0 0.6389905346810034,0.37014456167237336 l -11.13914734187651 18.853783035005794" fill="#ecff1a" stroke="none" /><line stroke="#e1ed5e" stroke-width="0.3" x1="143.23703022742887" x2="145.7803849466894" y1="26.81831364943548" y2="22.513508569990506" /><path d="M 143.74570117128098 25.957352633546492 a86.0,86.0 0 0,1 28.547481713284135,27.462654790039103" fill="none" id="id74" stroke="none" /><text fill="#e1ed5e" style="font-size:6.75px; font-family:Arial;" text-anchor="middle"><textPath startOffset="19.985693538727396" xlink:href="#id74">February</textPath></text><path d="M 110.99172775467656 82.1063720568725 l 12.357621905643526 -20.117191180189874 a44.609578567673545,44.609578567673545 0 0,0 0.6508343092323781,0.4075523847336609 l -12.702075367248169 19.90149445413327" fill="#d8ff1c" stroke="none" /><path d="M 111.2981086023043 82.29822771554956 l 18.166409653888707 -28.462962982458233 a54.766236116181034,54.766236116181034 0 0,0 0.790284543661272,0.5140230503920282 l -18.653661223334257 28.146041007906675" fill="#67ff28" stroke="none" /><path d="M 111.90073688211348 82.69761687909136 l 15.842995699683238 -23.03400067527127 a48.956496558914154,48.956496558914154 0 0,0 0.6902140069606966,0.48353902054733455 l -16.237140846227586 22.75787681196" fill="#a6ff21" stroke="none" /><path d="M 112.48926042617603 83.11751280151076 l 13.524463195350549 -18.28183326879779 a43.740636147445684,43.740636147445684 0 0,0 0.6014417583157166,0.4529934631681096 l -13.83715110742465 18.046323216123834" fill="#e2ff1b" stroke="none" /><path d="M 113.34407831869373 83.78471172551755 l 11.49253831081879 -13.965357311669528 a39.08617266500127,39.08617266500127 0 0,0 0.5158303887247463,0.43199311606914903 l -11.731226236502653 13.76546303820656" fill="#ffe315" stroke="none" /><path d="M 113.6212207817346 84.01681056812373 l 12.003109206424876 -14.084491492498643 a39.50533791163048,39.50533791163048 0 0,0 0.5137691795343511,0.4455355697266245 l -12.24377218460599 13.875790929352346" fill="#ffe815" stroke="none" /><path d="M 113.89432698308785 84.25364557470407 l 9.445914624906711 -10.70499634389719 a35.2766330002518,35.2766330002518 0 0,0 0.45185841293697326,0.4056829446115487 l -9.628784025439675 10.540814390516342" fill="#ffb210" stroke="none" /><path d="M 114.42810811169701 84.74124197986012 l 8.873215489734386 -9.384061095899922 a33.91489666156275,33.91489666156275 0 0,0 0.4207332795947787,0.4047450816236366 l -9.033432012941583 9.229932927513982" fill="#ffa00e" stroke="none" /><path d="M 114.94478906791727 85.2469230424477 l 10.149531886875598 -10.019333449921637 a35.26183860178705,35.26183860178705 0 0,0 0.42269832874299973,0.43562778400174546 l -10.320494479321706 9.843141470369778" fill="#ffb210" stroke="none" /><path d="M 115.19652480421416 85.50635884689758 l 13.579533413983151 -12.95144033682333 a39.7654878577611,39.7654878577611 0 0,0 0.4681584788678722,0.4993988238502841 l -13.800459214821487 12.715772096094991" fill="#ffeb16" stroke="none" /><path d="M 115.68641384162765 86.03803664274999 l 19.58554259095029 -17.432450192091412 a47.21991224778748,47.21991224778748 0 0,0 0.5351773007673066,0.6118001695278509 l -19.882711755295443 17.092734466360614" fill="#baff1f" stroke="none" /><path d="M 116.15771136456269 86.58626213691792 l 12.402428431328305 -10.296193569117927 a37.11930001603562,37.11930001603562 0 0,0 0.40389600127296765,0.4951287403598978 l -12.577822924677681 10.08118065914993" fill="#ffca12" stroke="none" /><path d="M 116.38621287248628 86.86637796730983 l 14.149555025005226 -11.340930883499121 a39.13357716254448,39.13357716254448 0 0,0 0.416764992579253,0.5292492174280147 l -14.342674098178442 11.095689272118069" fill="#ffe315" stroke="none" /><path d="M 116.60985879189232 87.15038557335679 l 24.28475055458361 -18.787015891184357 a51.703437520804776,51.703437520804776 0 0,0 0.5385136075675865,0.7086207837034002 l -24.60454010237531 18.366210331599923" fill="#88ff25" stroke="none" /><path d="M 116.82858285166822 87.43820079747576 l 6.730895789263093 -5.024318571748144 a29.399329451589153,29.399329451589153 0 0,0 0.29922551765875555,0.40814326981014226 l -6.816383919435475 4.907712858266508" fill="#ff6309" stroke="none" /><path d="M 117.2510076193507 88.02491185347247 l 20.81023295698673 -14.44578655974578 a46.332716890491405,46.332716890491405 0 0,0 0.44915274276195666,0.6590762274657247 l -21.05581016541742 14.085432309009649" fill="#c4ff1e" stroke="none" /><path d="M 117.65298651832404 88.62581576622439 l 16.576414072217425 -10.680526345898537 a40.719308976712156,40.719308976712156 0 0,0 0.3745641330588153,0.5924705067279257 l -16.757805801522196 10.393608191456405" fill="#fff717" stroke="none" /><line stroke="#e1ed5e" stroke-width="0.3" x1="172.23445277983987" x2="176.4835382374775" y1="55.19839476539836" y2="52.563006222186495" /><path d="M 173.08426987136738 54.67131705675599 a86.0,86.0 0 0,1 12.851231095245387,41.99856678651699" fill="none" id="id75" stroke="none" /><text fill="#e1ed5e" style="font-size:6.75px; font-family:Arial;" text-anchor="middle"><textPath startOffset="22.20632615414155" xlink:href="#id75">March</textPath></text><path d="M 118.03404312379186 89.2402003453031 l 18.591179396240154 -11.092208456802936 a42.64876531796571,42.64876531796571 0 0,0 0.37071997640857507,0.6336806103282129 l -18.77935904711906 10.770548434120828" fill="#efff19" stroke="none" /><path d="M 118.21658344932153 89.55222093294921 l 26.64208143619626 -15.28006508498831 a51.71287828020019,51.71287828020019 0 0,0 0.4362162492434272,0.7759800330869483 l -26.901155326732123 14.819201541966567" fill="#88ff25" stroke="none" /><path d="M 118.56541770881063 90.18545643968196 l 17.278842780762215 -9.134400195218765 a40.54470963633666,40.54470963633666 0 0,0 0.3208642036581563,0.6198075124427582 l -17.43351641758049 8.835619960515661" fill="#fff517" stroke="none" /><path d="M 118.73160827565052 90.50648371742162 l 17.47144973049567 -8.85484524638076 a40.58723666121868,40.58723666121868 0 0,0 0.31047300816738704,0.6258946391456937 l -17.621282751616466 8.552791018736118" fill="#fff517" stroke="none" /><path d="M 118.89224826269711 90.83032412892265 l 12.67353645536214 -6.151317716135204 a35.08748508181045,35.08748508181045 0 0,0 0.2590489076492537,0.5456230652173618 l -12.77754355685315 5.932252235277302" fill="#ffb010" stroke="none" /><path d="M 119.196687751892 91.48605970444005 l 13.441991687438145 -5.961669854685317 a35.704715161519445,35.704715161519445 0 0,0 0.24433806053005877,0.5639659314936997 l -13.542620457810884 5.729404778605015" fill="#ffb811" stroke="none" /><path d="M 119.34039704204932 91.81776055985345 l 21.60992882234282 -9.142398241592526 a44.46428071163906,44.46428071163906 0 0,0 0.2921479260195499,0.7074593758219672 l -21.764098435248567 8.769064295317255" fill="#daff1c" stroke="none" /><path d="M 119.61058180528143 92.48833698450437 l 13.462671818149806 -5.156759498023471 a35.416507933742494,35.416507933742494 0 0,0 0.21316590924384934,0.5711786573512209 l -13.54944231589528 4.924257703642916" fill="#ffb410" stroke="none" /><path d="M 119.7369772167798 92.82701384747503 l 11.164879649569041 -4.057638930285645 a32.87935062526275,32.87935062526275 0 0,0 0.18873830584997556,0.533588606411482 l -11.233071036228827 3.8648526974475486" fill="#ff930d" stroke="none" /><path d="M 119.85752413597 93.16781622104841 l 10.294355319029213 -3.5418779775286287 a31.88662716557003,31.88662716557003 0 0,0 0.17410509349023107,0.5205520690212107 l -10.353797706291214 3.3641528055851038" fill="#ff850c" stroke="none" /><path d="M 120.08093135843002 93.85539295169968 l 10.155561356426231 -3.107521896087079 a31.620363402388755,31.620363402388755 0 0,0 0.15478032804526254,0.5218423207458788 l -10.207547581583196 2.9322501885946703" fill="#ff820b" stroke="none" /><path d="M 120.18372546131832 94.20196356495316 l 16.133483822627074 -4.634552090351353 a37.785957623357376,37.785957623357376 0 0,0 0.17419907546475139,0.6266867585574218 l -16.210869668658187 4.35615402837498" fill="#ffd213" stroke="none" /><path d="M 120.37134235888165 94.90015583598534 l 14.201835477529615 -3.555344881178056 a35.640102737171546,35.640102737171546 0 0,0 0.1438624622593684,0.5964027831913383 l -14.260930740049801 3.3103568663273117" fill="#ffb711" stroke="none" /><path d="M 120.45610955862082 95.25157060432595 l 10.433751519815434 -2.4219626064219586 a31.711165839634692,31.711165839634692 0 0,0 0.11884984506135686,0.5327805512973605 l -10.47389575187883 2.2420038855746345" fill="#ff830c" stroke="none" /><path d="M 120.53481517161879 95.60439243477599 l 12.316025240567033 -2.6363233985055996 a33.59502595423258,33.59502595423258 0 0,0 0.11617592564525349,0.5665150724864649 l -12.359580462127283 2.423932669855723" fill="#ff9c0e" stroke="none" /><path d="M 120.67395015179393 96.31383870115 l 6.176331691869766 -1.101238741714557 a27.27373891186491,27.27373891186491 0 0,0 0.07842906296528476,0.462892769235809 l -6.194372616355274 0.9947601841629101" fill="#ff4606" stroke="none" /><path d="M 120.73433829027371 96.67025291283417 l 58.95467863124781 -9.467587858315182 a80.71004398230355,80.71004398230355 0 0,0 0.20847829649023172,1.3736114932452084 l -59.10891282117734 8.451377252677892" fill="#49f1ff" stroke="none" /><path d="M 120.87857604477298 97.74499172005257 l 8.973247091681861 -0.9691631482130035 a30.025432985526574,30.025432985526574 0 0,0 0.05107594137517292,0.5143277593375286 l -8.988600158739263 0.81455985817104" fill="#ff6c09" stroke="none" /><path d="M 120.91429891909075 98.10471618934814 l 11.51900484858688 -1.0438687659962054 a32.56620658221141,32.56620658221141 0 0,0 0.04578733616098855,0.5587214762336916 l -11.535266668567363 0.8454333725547449" fill="#ff8e0d" stroke="none" /><path d="M 120.94382443527127 98.46500227214037 l 7.98344059241328 -0.5851158277100038 a29.004853791571016,29.004853791571016 0 0,0 0.032208383258227335,0.49824943323691556 l -7.992329566675923 0.44760733022005295" fill="#ff5e08" stroke="none" /><path d="M 120.96714384426684 98.82574320788733 l 8.266222012724226 -0.46294657086577 a29.27917543545992,29.27917543545992 0 0,0 0.023850525980912564,0.5034469074752986 l -8.272966146938636 0.3205885567674716" fill="#ff6209" stroke="none" /><path d="M 120.98425023603335 99.18683210126433 l 13.071350062718533 -0.50653238236204 a34.08116078628014,34.08116078628014 0 0,0 0.01767076628320505,0.5864067048805478 l -13.078132523457384 0.28145553005649315" fill="#ffa20f" stroke="none" /><line stroke="#e1ed5e" stroke-width="0.3" x1="184.98032266829074" x2="189.97916517819016" y1="98.17113171792111" y2="98.06355123074" /><path d="M 185.9800911702706 98.14961562048488 a86.0,86.0 0 0,1 -9.607161424134198,41.387399972396054" fill="none" id="id76" stroke="none" /><text fill="#e1ed5e" style="font-size:6.75px; font-family:Arial;" text-anchor="middle"><textPath startOffset="21.466115282336823" xlink:href="#id76">April</textPath></text><path d="M 120.99980553446 99.90962569577887 l 15.222146209718309 -0.0655096958016178 a36.22228717211331,36.22228717211331 0 0,0 -0.0026833862063836626,0.6235244519287247 l -15.221018526222421 -0.1965242343307916" fill="#ffbe11" stroke="none" /><path d="M 120.99824983174949 100.27111621757518 l 12.599193206455128 0.1626728719775637 a33.60024332768469,33.60024332768469 0 0,0 -0.012444789827201333,0.5782604824074041 l -12.59452635394292 -0.3795231701750827" fill="#ff9c0e" stroke="none" /><path d="M 120.9904718944345 100.63252640178507 l 18.05512741718284 0.5440727981913389 a39.06332309572188,39.06332309572188 0 0,0 -0.02603824795640194,0.6719314814008577 l -18.043087036375237 -0.8547815266062028" fill="#ffe315" stroke="none" /><path d="M 120.9764740272857 100.99374915477107 l 11.892849176650225 0.5634173217931034 a32.906187492940234,32.906187492940234 0 0,0 -0.03167400607673647,0.5655606558938894 l -11.88138881968596 -0.7680496940224162" fill="#ff930d" stroke="none" /><path d="M 120.95626037817324 101.35467743843564 l 16.620517939441456 1.0744016471148106 a37.655208058580904,37.655208058580904 0 0,0 -0.04738000862467008,0.6464625740915102 l -16.599561372152447 -1.360337357703091" fill="#ffd113" stroke="none" /><path d="M 120.92983693683757 101.71520430193887 l 8.413570905017998 0.6894938099376832 a29.441775707024426,29.441775707024426 0 0,0 -0.045740467560069886,0.5047422480336838 l -8.400455841180852 -0.8342174465199377" fill="#ff6409" stroke="none" /><path d="M 120.8583938346157 102.4346265915055 l 9.16888780880212 1.070207910102566 a30.23113474179888,30.23113474179888 0 0,0 -0.06477883033981549,0.516351014268037 l -9.149107469215457 -1.227876678657998" fill="#ff6f0a" stroke="none" /><path d="M 120.81339534386255 102.79330883721812 l 10.722333729303998 1.4390150701912552 a31.818465925204354,31.818465925204354 0 0,0 -0.07752485734566736,0.5422086717129253 l -10.695974820941728 -1.6233692138845899" fill="#ff840c" stroke="none" /><path d="M 120.76222939487914 103.15116336523771 l 2.3553553190620162 0.3574813307561566 a23.38232902447855,23.38232902447855 0 0,0 -0.06382067041096365,0.3974113755706579 l -2.3488528942897644 -0.39797193602001946" fill="#ff0e01" stroke="none" /><path d="M 120.64145759157962 103.86396538481128 l 7.754206443020529 1.4515440660902974 a28.88889711789823,28.88889711789823 0 0,0 -0.09570488136911065,0.4879971282248003 l -7.728071628675753 -1.5848049213830426" fill="#ff5c08" stroke="none" /><path d="M 120.5718875245553 104.21870165774334 l 28.885518646030572 5.92358796689559 a50.48664243096745,50.48664243096745 0 0,0 -0.181910491957832,0.8498252573059173 l -28.779274115348297 -6.419927043617676" fill="#95ff23" stroke="none" /><path d="M 120.41448212921028 104.9243191809786 l 16.93642484178779 4.085352798946772 a38.42218682925277,38.42218682925277 0 0,0 -0.16062063255474876,0.6415995843090946 l -16.86359289493798 -4.376280222653262" fill="#ffda14" stroke="none" /><path d="M 120.32669344350535 105.2749913415812 l 12.906789543135671 3.3494480190237246 a34.33431731821837,34.33431731821837 0 0,0 -0.15337944548161417,0.5707819751913251 l -12.84722202131228 -3.571120927390598" fill="#ffa60f" stroke="none" /><path d="M 120.23288151984713 105.62410040840565 l 9.82179662843186 2.7301484652621197 a31.194184599694502,31.194184599694502 0 0,0 -0.1482575861611312,0.5161041069949499 l -9.773346405384629 -2.8988100477616516" fill="#ff7c0b" stroke="none" /><path d="M 120.13307415673323 105.97154293290107 l 17.297500528125628 5.130501493783869 a39.04232718077756,39.04232718077756 0 0,0 -0.19664918832297068,0.6426609254853566 l -17.206624567296522 -5.4274893918212825" fill="#ffe215" stroke="none" /><path d="M 120.02730092923936 106.31721596034902 l 9.205008285965675 2.9035377989627027 a30.652083158298105,30.652083158298105 0 0,0 -0.1630512005369661,0.501819995609285 l -9.153664834412462 -3.0615566945497825" fill="#ff750a" stroke="none" /><path d="M 119.9155931802556 106.66101706037122 l 11.062872103763665 3.7001147368751837 a32.665247029114866,32.665247029114866 0 0,0 -0.18293964572039517,0.531708242613457 l -10.99754162710004 -3.8899956825779407" fill="#ff900d" stroke="none" /><path d="M 119.67450827220406 107.3425965602758 l 15.700446514788634 5.8594625583171664 a37.75820164087004,37.75820164087004 0 0,0 -0.23249292687744458,0.6069656682247545 l -15.597259308317682 -6.128851793375065" fill="#ffd213" stroke="none" /><path d="M 119.54520255179757 107.68017299344265 l 13.837973924270894 5.4375508944201005 a35.86796832315061,35.86796832315061 0 0,0 -0.23074613106458602,0.5726929739498258 l -13.742325178948915 -5.67494323621274" fill="#ffba11" stroke="none" /><path d="M 119.41010516605496 108.01547362559984 l 17.693208195530083 7.3064747681808955 a40.14247083812424,40.14247083812424 0 0,0 -0.269239410955531,0.6364024354626053 l -17.564817803382244 -7.609951729309665" fill="#fff016" stroke="none" /><path d="M 119.26925614724726 108.34839909993367 l 6.702658840861987 2.903924811970928 a28.30468444565306,28.30468444565306 0 0,0 -0.1975382785418345,0.44539666952931434 l -6.65167947758888 -3.0188698179929303" fill="#ff5407" stroke="none" /><path d="M 118.97047184881838 109.00673069616215 l 15.780345059172678 7.4921340582961955 a38.46858216725208,38.46858216725208 0 0,0 -0.2891495437023818,0.5957337032927446 l -15.649042258855582 -7.762656717554215" fill="#ffdb14" stroke="none" /><path d="M 118.64920377521936 109.65438752849418 l 17.3479161043107 8.980732201841716 a40.534680546233645,40.534680546233645 0 0,0 -0.3261063146757807,0.616870250993164 l -17.190757281410022 -9.278017467921014" fill="#fff517" stroke="none" /><line stroke="#e1ed5e" stroke-width="0.3" x1="174.80103733775053" x2="179.2010983576182" y1="140.37084112569926" y2="142.7455964860345" /><path d="M 175.68104954172406 140.8457921977663 a86.0,86.0 0 0,1 -30.038265399797805,32.042727171017184" fill="none" id="id77" stroke="none" /><text fill="#e1ed5e" style="font-size:6.75px; font-family:Arial;" text-anchor="middle"><textPath startOffset="22.206326154141568" xlink:href="#id77">May</textPath></text><path d="M 118.48025628344425 109.97397251340804 l 14.389005534236768 7.765885033873901 a37.35091589555897,37.35091589555897 0 0,0 -0.3102324219418134,0.5631619589227629 l -14.253196702843445 -8.012417511194469" fill="#ffcd13" stroke="none" /><path d="M 118.30583269289576 110.29060199501025 l 9.695314951534744 5.450209725845231 a32.122226308844425,32.122226308844425 0 0,0 -0.2751008705136756,0.47966155606197713 l -9.600062084868688 -5.616291127765524" fill="#ff880c" stroke="none" /><path d="M 117.94076556474637 110.91462005526583 l 17.494310123015882 10.643010045062617 a41.47741559620158,41.47741559620158 0 0,0 -0.3763292536316154,0.6067625826971593 l -17.308516229716304 -10.94256895912505" fill="#feff18" stroke="none" /><path d="M 117.75023020441432 111.22182372390056 l 10.061528257830059 6.360970826977427 a32.903625529424666,32.903625529424666 0 0,0 -0.3067795169487656,0.4761286229840573 l -9.950543877504241 -6.533221049882938" fill="#ff930d" stroke="none" /><path d="M 117.14729908036423 112.12312394758627 l 16.996244829134326 12.016328737338435 a41.81500647647415,41.81500647647415 0 0,0 -0.42057973094173257,0.5841484613352772 l -16.78688530581699 -12.307110804124845" fill="#f9ff18" stroke="none" /><path d="M 116.93607887273984 112.41649034213515 l 5.669328799660239 4.1564028377710365 a28.029720733321355,28.029720733321355 0 0,0 -0.2886243479173203,0.3866594803520912 l -5.596943185047826 -4.253375197632442" fill="#ff5007" stroke="none" /><path d="M 116.498646956653 112.99209946851258 l 12.018490624442684 9.464135214504983 a36.29751523118215,36.29751523118215 0 0,0 -0.39077228717554296,0.4875485122374289 l -11.853800425212286 -9.669611560320662" fill="#ffbf11" stroke="none" /><path d="M 116.27256486870786 113.27417163493432 l 6.928819655381803 5.652110904158152 a29.941750359393215,29.941750359393215 0 0,0 -0.3292223775320394,0.39656956213214 l -6.83050127795622 -5.770541723404063" fill="#ff6b09" stroke="none" /><path d="M 115.80600337817218 113.82643327865902 l 11.589969840676519 10.138422779605623 a36.39853945560479,36.39853945560479 0 0,0 -0.41657461161335246,0.46802599222473873 l -11.413736379414827 -10.336422941571229" fill="#ffc111" stroke="none" /><path d="M 115.56566222782051 114.09645910891815 l 10.337721553989649 9.361970408476559 a34.94686261698354,34.94686261698354 0 0,0 -0.4076361679671496,0.44240855120739114 l -10.175038978026777 -9.538530214485284" fill="#ffae10" stroke="none" /><path d="M 115.07121518719521 114.62390073753431 l 11.086984066856884 10.757921803816629 a36.44843348808453,36.44843348808453 0 0,0 -0.44078197077803966,0.446509809253487 l -10.900161471023308 -10.94717210705078" fill="#ffc112" stroke="none" /><path d="M 114.81725581225074 114.88116024355365 l 10.949235311022184 10.996457594596052 a36.51798419659861,36.51798419659861 0 0,0 -0.4492582360157736,0.4396937402659572 l -10.758327122630616 -11.183301437784582" fill="#ffc212" stroke="none" /><path d="M 114.55890576462653 115.13401014063108 l 12.63075795408965 13.129696836522724 a39.2188085646069,39.2188085646069 0 0,0 -0.49054169656233904,0.4638377921686076 l -12.402880423136503 -13.345169265437255" fill="#ffe415" stroke="none" /><path d="M 114.0293411484842 115.62618273729858 l 13.631105281525699 15.1826190400602 a41.40389551315229,41.40389551315229 0 0,0 -0.5344210713474548,0.4715644593916282 l -13.367741857271655 -15.415006641224117" fill="#feff18" stroke="none" /><path d="M 113.75828350139079 115.86535959552629 l 8.176853904405755 9.42913609392963 a33.480767093886584,33.480767093886584 0 0,0 -0.43865309039101735,0.37382968000678823 l -8.013335337437692 -9.568490164159366" fill="#ff9b0e" stroke="none" /><path d="M 113.20401910651253 116.32954008644616 l 11.501177374872427 14.223618995800694 a39.29175820816522,39.29175820816522 0 0,0 -0.529582750418223,0.420732565720337 l -11.254637131736851 -14.419485475526155" fill="#ffe515" stroke="none" /><path d="M 112.92097659922987 116.55440617244103 l 7.23699056707874 9.272060853409984 a32.762021294714806,32.762021294714806 0 0,0 -0.4475467955208605,0.3431597984310067 l -7.076315043064386 -9.395259993668363" fill="#ff910d" stroke="none" /><path d="M 112.63410532772338 116.77436683061366 l 8.733163548660471 11.595066303232423 a35.51598112922471,35.51598112922471 0 0,0 -0.49149894792777865,0.3635991715966389 l -8.532279630314129 -11.743675423568831" fill="#ffb510" stroke="none" /><path d="M 112.04921762599082 117.19931262002967 l 12.75307080636671 18.20400780138105 a43.22671174566641,43.22671174566641 0 0,0 -0.6130846901827565,0.42168524031237303 l -12.437829231561071 -18.420833831058516" fill="#e8ff1a" stroke="none" /><path d="M 111.7513745106137 117.40417183066458 l 6.977060962434531 10.333256569566261 a33.46818234571552,33.46818234571552 0 0,0 -0.4802290537118354,0.31826963071028525 l -6.798157209982731 -10.451824221367865" fill="#ff9a0e" stroke="none" /><path d="M 111.1453310114006 117.79835938074945 l 6.785746493873715 10.836390111795117 a33.78568363968585,33.78568363968585 0 0,0 -0.49555682407285445,0.3044114762245877 l -6.598210469868551 -10.951590054848083" fill="#ff9f0e" stroke="none" /><line stroke="#e1ed5e" stroke-width="0.3" x1="143.8653032363475" x2="146.44561519142675" y1="172.8068346515853" y2="177.08958963109032" /><path d="M 144.38136562736335 173.6633856474863 a86.0,86.0 0 0,1 -40.68145358897372,12.25698825130547" fill="none" id="id78" stroke="none" /><text fill="#e1ed5e" style="font-size:6.75px; font-family:Arial;" text-anchor="middle"><textPath startOffset="21.466115282336833" xlink:href="#id78">June</textPath></text><path d="M 110.8373102113329 117.98757091392108 l 11.943053834004175 19.82286412206567 a44.142654922972866,44.142654922972866 0 0,0 -0.6542196414350626,0.3865244957133618 l -11.60006632154073 -20.025507190072783" fill="#deff1b" stroke="none" /><path d="M 110.5260780823613 118.17145234162733 l 7.868185650591597 13.583060988725597 a36.697384854032684,36.697384854032684 0 0,0 -0.5493270561729756,0.3119222390505231 l -7.6332098274974225 -13.716486393570749" fill="#ffc512" stroke="none" /><path d="M 109.89434966115114 118.52300852407294 l 10.655062468016407 19.947123325802853 a43.61455471974012,43.61455471974012 0 0,0 -0.6652446980470823,0.3480245846121094 l -10.310126867442829 -20.127577329359678" fill="#e4ff1a" stroke="none" /><path d="M 109.57404056367764 118.69057910512821 l 4.840319197298839 9.449340458657238 a31.61690750809087,31.61690750809087 0 0,0 -0.4865181005902455,0.243950275586041 l -4.6769471890258325 -9.531258575152581" fill="#ff820b" stroke="none" /><path d="M 108.92500713936063 119.00905698771935 l 4.475838629603349 9.532930366267564 a31.53137658648459,31.53137658648459 0 0,0 -0.4932888736271451,0.2264447275908245 l -4.3110817602087845 -9.608562164192463" fill="#ff800b" stroke="none" /><path d="M 108.59647513512805 119.15986991738527 l 8.739625006411487 19.47892311876934 a42.34969534020614,42.34969534020614 0 0,0 -0.6676718362707198,0.29268771195450355 l -8.403032495483012 -19.6264753840183" fill="#f3ff19" stroke="none" /><path d="M 108.2653958097858 119.30500536409082 l 5.63350733631212 13.157856181235784 a35.313126290030674,35.313126290030674 0 0,0 -0.5608540700997984,0.23443704678832764 l -5.40618180671486 -13.252878271044086" fill="#ffb310" stroke="none" /><path d="M 107.59598834532513 119.57807347666477 l 8.198069534976998 21.12989125652967 a43.66452401029166,43.66452401029166 0 0,0 -0.703060755438457,0.26583741918937237 l -7.833138558778267 -21.267876925825675" fill="#e3ff1b" stroke="none" /><path d="M 107.2578585660854 119.70592522655815 l 3.0850811847983985 8.376352141880975 a29.92642151825641,29.92642151825641 0 0,0 -0.484922660143431,0.17387601320557688 l -2.940438964025233 -8.428215696126513" fill="#ff6b09" stroke="none" /><path d="M 106.57524785965236 119.94407469862006 l 2.4459360594214257 7.419025490504996 a28.811820686340727,28.811820686340727 0 0,0 -0.4723473748273526,0.15123071318125322 l -2.317867339503133 -7.460029050345955" fill="#ff5b08" stroke="none" /><path d="M 105.88484417918355 120.15858648285463 l 2.7698596648875173 9.488179108890591 a30.884212936069247,30.884212936069247 0 0,0 -0.5116026227656683,0.14458401145405178 l -2.6061258740172435 -9.534451913683162" fill="#ff780b" stroke="none" /><path d="M 105.18746579009965 120.34920634021253 l 5.28292446586802 20.723668239099883 a42.38643766961539,42.38643766961539 0 0,0 -0.7085533197788144,0.1741451669850103 l -4.925417861345994 -20.811534664398923" fill="#f3ff19" stroke="none" /><path d="M 104.83641907484287 120.43548508189849 l 2.810017467555845 11.873261838869363 a33.20125177440087,33.20125177440087 0 0,0 -0.5572748697814663,0.12683394603105425 l -2.6052224483815167 -11.919872518478101" fill="#ff970d" stroke="none" /><path d="M 104.48393922423573 120.51570834832081 l 3.0697139868337255 14.045096000911142 a35.376643058648035,35.376643058648035 0 0,0 -0.5960265895292761,0.12490316689384157 l -2.827495935875071 -14.095855148531525" fill="#ffb310" stroke="none" /><path d="M 104.13013068566511 120.58985236759428 l 2.7734421329619416 13.826381878411707 a35.1018019101305,35.1018019101305 0 0,0 -0.5934417364278636,0.11373452118963676 l -2.5350327819623737 -13.872073597949813" fill="#ffb010" stroke="none" /><path d="M 103.7750983002368 120.6578951692458 l 4.564437914271572 24.97727805753779 a46.39091397797249,46.39091397797249 0 0,0 -0.7867700822669789,0.1367900636774181 l -4.133818860532543 -25.052146699736216" fill="#c3ff1e" stroke="none" /><path d="M 103.41894727170886 120.7198165907248 l 2.975372466327348 18.031624032792298 a39.27545639849664,39.27545639849664 0 0,0 -0.6679897364738282,0.10432625893443274 l -2.664546866245003 -18.080168599073836" fill="#ffe515" stroke="none" /><path d="M 102.70371172650421 120.8252237178851 l 2.7230211173087358 20.9739534731391 a42.149977973953376,42.149977973953376 0 0,0 -0.72030815304001,0.08721928605220229 l -2.3615855412173454 -21.01771828791665" fill="#f5ff19" stroke="none" /><path d="M 102.34483914955558 120.86867818915974 l 2.0176226248621836 17.956505576681778 a39.06950175244906,39.06950175244906 0 0,0 -0.6689580617638554,0.06934023830631572 l -1.7082319664927255 -17.98857518344385" fill="#ffe315" stroke="none" /><path d="M 101.98527174616119 120.90594882070398 l 1.0737803223104678 11.307467859908286 a32.35833762411736,32.35833762411736 0 0,0 -0.5549542458935014,0.047883787461376434 l -0.8789817586754247 -11.324275899648326" fill="#ff8c0c" stroke="none" /><path d="M 101.62511606390274 120.93702456842531 l 1.8690300587798963 24.079466771022116 a45.151894197710064,45.151894197710064 0 0,0 -0.7754025937649519,0.053476302710599416 l -1.454264704236014 -24.108071418249" fill="#d2ff1c" stroke="none" /><path d="M 101.26447882468166 120.96189622390904 l 1.0966948004409771 18.180456760066267 a39.21350453619384,39.21350453619384 0 0,0 -0.6741210960422913,0.03484436057984046 l -0.7835856359852061 -18.19664092740831" fill="#ffe415" stroke="none" /><path d="M 100.90346689309514 120.98055641714683 l 0.8402774011246182 19.513152673422912 a40.531236350194334,40.531236350194334 0 0,0 -0.6972909911804647,0.024016111616433473 l -0.5042660582695013 -19.52472558346544" fill="#fff517" stroke="none" /><line stroke="#e1ed5e" stroke-width="0.3" x1="102.19456741930631" x2="102.32365962044197" y1="184.97166512339345" y2="189.96999836594603" /><path d="M 102.22038585953345 185.97133177190398 a86.0,86.0 0 0,1 -42.740103519485714,-10.115201625700543" fill="none" id="id79" stroke="none" /><text fill="#e1ed5e" style="font-size:6.75px; font-family:Arial;" text-anchor="middle"><textPath startOffset="22.20632615414155" xlink:href="#id79">July</textPath></text><path d="M 100.18074693466247 120.99922214144158 l 0.18067361245968905 20.990703550369382 a41.991481093379974,41.991481093379974 0 0,0 -0.7228410942442746,0.0 l 0.18067361245967462 -20.990703550369382" fill="#f7ff18" stroke="none" /><path d="M 99.81925306533755 120.99922214144158 l -0.15551012646342524 18.06720372297188 a39.067872972954,39.067872972954 0 0,0 -0.6724144820275405,-0.011576225106148119 l 0.46648429838363364 -18.061850020586572" fill="#ffe315" stroke="none" /><path d="M 99.45781275523022 120.99299961872073 l -0.32295783363263664 12.504635149046397 a33.508804977817476,33.508804977817476 0 0,0 -0.5764785370566128,-0.019855086420937848 l 0.5381567223638924 -12.497223264199365" fill="#ff9b0e" stroke="none" /><path d="M 99.09653310690486 120.98055641714683 l -0.783350924773093 18.191190399154294 a39.20804895670116,39.20804895670116 0 0,0 -0.674027308933199,-0.03483951285757581 l 1.096366302119781 -18.175011079534517" fill="#ffe415" stroke="none" /><path d="M 98.73552117531835 120.96189622390904 l -1.426781691613151 23.65247180892733 a44.695466415912236,44.695466415912236 0 0,0 -0.7675642673301256,-0.052935725827643616 l 1.8337087197222068 -23.624407738583404" fill="#d7ff1c" stroke="none" /><path d="M 98.37488393609728 120.93702456842531 l -1.4728289193147808 18.975047969636464 a40.032122069689834,40.032122069689834 0 0,0 -0.6865617255363347,-0.059239434580353904 l 1.7992349625926571 -18.946884282777447" fill="#ffef16" stroke="none" /><path d="M 97.65516085044442 120.86867818915974 l -2.185534138870474 19.45089010653655 a40.57329010178743,40.57329010178743 0 0,0 -0.6933638654339054,-0.08395670805934381 l 2.5200254273557685 -19.410387869751858" fill="#fff517" stroke="none" /><path d="M 97.2962882734958 120.8252237178851 l -2.3545909985669544 18.136136270960993 a39.28834431022665,39.28834431022665 0 0,0 -0.6699063236714146,-0.09284291226053054 l 2.6664259134252 -18.092918793207858" fill="#ffe515" stroke="none" /><path d="M 96.58105272829116 120.7198165907248 l -3.8608953662690384 23.398150807131312 a44.71455195070186,44.71455195070186 0 0,0 -0.7583396984480439,-0.13184707702779883 l 4.263084036189133 -23.328225151582508" fill="#d7ff1c" stroke="none" /><path d="M 96.22490169976321 120.6578951692458 l -3.2756832081511322 17.925022062975238 a39.22186918069363,39.22186918069363 0 0,0 -0.6630968464846941,-0.12708408881258418 l 3.5837476692075216 -17.865980775814187" fill="#ffe515" stroke="none" /><path d="M 95.86986931433489 120.58985236759428 l -4.695076647771303 23.406265416171212 a44.872515691914415,44.872515691914415 0 0,0 -0.7560132951877689,-0.15842993658618504 l 5.0972814043884584 -23.32197949885849" fill="#d5ff1c" stroke="none" /><path d="M 95.51606077576429 120.51570834832081 l -1.82813331122646 8.364397454866229 a29.561846540705368,29.561846540705368 0 0,0 -0.4961883453494737,-0.11293085195097839 l 1.9718418059687963 -8.331689869337565" fill="#ff6609" stroke="none" /><path d="M 95.16358092515715 120.4354850818985 l -4.842230492662919 20.460040262152507 a42.02523349865528,42.02523349865528 0 0,0 -0.7025152465525014,-0.17266115549157401 l 5.193699023958631 -20.373657848346905" fill="#f7ff19" stroke="none" /><path d="M 94.81253420990036 120.34920634021253 l -4.999856808551245 19.61326049858567 a41.24051766856266,41.24051766856266 0 0,0 -0.6863788127887757,-0.18127888285746763 l 5.3367260641515095 -19.52429026642462" fill="#fffe18" stroke="none" /><path d="M 94.46302465271185 120.25689768951611 l -8.266804842215892 30.243916471468605 a52.35338172880964,52.35338172880964 0 0,0 -0.8672433213225836,-0.24509162526515638 l 8.786179331643089 -30.097136052864926" fill="#81ff25" stroke="none" /><path d="M 94.11515582081647 120.15858648285463 l -2.0191173362117443 6.916504532954787 a28.205197413796164,28.205197413796164 0 0,0 -0.464882127417529,-0.14006517150466077 l 2.1378744380695194 -6.8807239923444" fill="#ff5307" stroke="none" /><path d="M 93.76903079525671 120.05430185196036 l -4.98870985553892 16.056104597446616 a37.81326026881454,37.81326026881454 0 0,0 -0.6199189706225551,-0.19847847799747834 l 5.264350171252414 -15.967853272789432" fill="#ffd313" stroke="none" /><path d="M 93.42475214034765 119.94407469862007 l -6.958687421739614 21.107125496385564 a43.22462772137357,43.22462772137357 0 0,0 -0.7046237310260385,-0.23904662647623412 l 7.320980885702879 -20.984215883011206" fill="#e8ff1a" stroke="none" /><path d="M 93.08242187328487 119.8279376855182 l -1.8984363435332594 5.441511007173135 a26.763167756679856,26.763167756679856 0 0,0 -0.4336658325325407,-0.15549713845488694 l 1.9918217366955269 -5.40802632767829" fill="#ff3e05" stroke="none" /><path d="M 92.7421414339146 119.70592522655815 l -3.868378221552239 10.503094168597148 a32.19282525457264,32.19282525457264 0 0,0 -0.5183501379253064,-0.19599566870516585 l 4.048598580237829 -10.434950249785349" fill="#ff890c" stroke="none" /><path d="M 92.40401165467489 119.57807347666478 l -8.705390135441947 22.437470934194863 a45.067071266215365,45.067071266215365 0 0,0 -0.7208133048972053,-0.28682648990982706 l 9.09032451638101 -22.28429759987897" fill="#d3ff1c" stroke="none" /><path d="M 92.06813273071674 119.44442032107085 l -14.0945579198467 34.551827347703714 a58.316019830917654,58.316019830917654 0 0,0 -0.9261931896249053,-0.3871488283797036 l 14.687222568969068 -34.30409347630404" fill="#43ff2d" stroke="none" /><path d="M 91.7346041902142 119.30500536409082 l -7.770088544076546 18.148144925529678 a40.74156630616776,40.74156630616776 0 0,0 -0.6423185850491828,-0.28157359168235013 l 8.081327803783472 -18.011706780552878" fill="#fff717" stroke="none" /><path d="M 91.40352486487194 119.15986991738527 l -8.444417848108957 18.820963820004582 a41.628545074904885,41.628545074904885 0 0,0 -0.6512528260354677,-0.2989582304988784 l 8.767138669911844 -18.67281851917163" fill="#fcff18" stroke="none" /><path d="M 91.07499286063937 119.00905698771935 l -8.310127542767036 17.699446686043903 a40.55322563591915,40.55322563591915 0 0,0 -0.6293229764987561,-0.3021132726137079 l 8.613563187266033 -17.553779136930633" fill="#fff517" stroke="none" /><path d="M 90.7491055286396 118.85261126421891 l -6.871626142589241 14.003845446550462 a36.59894012855963,36.59894012855963 0 0,0 -0.5631811659760311,-0.28239072806960486 l 7.111661216248032 -13.883486877571556" fill="#ffc312" stroke="none" /><path d="M 90.42595943632237 118.69057910512821 l -6.4095729065780755 12.512860024322523 a35.058957672353536,35.058957672353536 0 0,0 -0.5347477662092073,-0.279754757540422 l 6.624011575313778 -12.400675847837384" fill="#ffaf10" stroke="none" /><line stroke="#e1ed5e" stroke-width="0.3" x1="58.666819895761336" x2="56.23545636021788" y1="174.27360380694188" y2="178.64263932499728" /><path d="M 58.180547188652646 175.14741091055294 a86.0,86.0 0 0,1 -31.652253787137756,-30.449443065178592" fill="none" id="id80" stroke="none" /><text fill="#e1ed5e" style="font-size:6.75px; font-family:Arial;" text-anchor="middle"><textPath startOffset="22.20632615414155" xlink:href="#id80">August</textPath></text><path d="M 89.7882731507175 118.34994917583269 l -6.866389755465104 12.338550070314103 a35.12045063415486,35.12045063415486 0 0,0 -0.5257217601490214,-0.29851853590773864 l 7.077760282535332 -12.21852836861173" fill="#ffb010" stroke="none" /><path d="M 89.4739219176387 118.17145234162733 l -8.725982991565797 15.063899661811966 a38.40872919515478,38.40872919515478 0 0,0 -0.5692395504048742,-0.33631676003751454 l 8.983990412999054 -14.911464329480703" fill="#ffda14" stroke="none" /><path d="M 89.1626897886671 117.98757091392108 l -10.430842373726204 17.312922969864537 a41.21236686748945,41.21236686748945 0 0,0 -0.6044888673908244,-0.3713264343156681 l 10.727310441049339 -17.130808068720494" fill="#fffd17" stroke="none" /><path d="M 88.8546689885994 117.79835938074946 l -16.81202774932958 26.847700754299762 a52.67717337195123,52.67717337195123 0 0,0 -0.7643663496744174,-0.48785476910435366 l 17.271675901050923 -26.554331556371604" fill="#7dff26" stroke="none" /><path d="M 88.54995079064634 117.60387380957326 l -13.14394477030571 20.20815289662176 a45.10669466389138,45.10669466389138 0 0,0 -0.647228017068649,-0.428947437448037 l 13.489847486114321 -19.978907438082405" fill="#d2ff1c" stroke="none" /><path d="M 88.24862548938628 117.40417183066458 l -13.29190410734687 19.68574678919835 a44.752964898036154,44.752964898036154 0 0,0 -0.6347315470282631,-0.4365741458372869 l 13.628792538998024 -19.454031853995964" fill="#d6ff1c" stroke="none" /><path d="M 87.65650970185807 116.9893568818739 l -13.659559543705994 18.80077079755641 a44.239030735172655,44.239030735172655 0 0,0 -0.6122155821788687,-0.45290245168846693 l 13.981160096303427 -18.562858397128174" fill="#dcff1b" stroke="none" /><path d="M 87.36589467227662 116.77436683061367 l -8.434320685938799 11.198291092485679 a35.01925421787119,35.01925421787119 0 0,0 -0.4783818087947875,-0.3668027717370338 l 8.625831223227072 -11.051448978921279" fill="#ffaf10" stroke="none" /><path d="M 87.07902340077011 116.55440617244103 l -17.418595181300763 22.31677283602259 a49.30981822450773,49.30981822450773 0 0,0 -0.6646083135198084,-0.5280050392982634 l 17.80016098753793 -22.013633882719194" fill="#a2ff22" stroke="none" /><path d="M 86.79598089348748 116.32954008644616 l -19.880005980017238 24.585798608043916 a52.61765536786078,52.61765536786078 0 0,0 -0.6993885418624212,-0.5755491558232517 l 20.300264650424346 -24.239954333363485" fill="#7eff26" stroke="none" /><path d="M 86.51685102203217 116.09983520530335 l -3.943672798327071 4.709024743437407 a27.14226905748768,27.14226905748768 0 0,0 -0.35560834579757983,-0.30305714704700665 l 4.024146620701707 -4.64044320616745" fill="#ff4406" stroke="none" /><path d="M 86.24171649860922 115.8653595955263 l -11.78732373077357 13.59254805577302 a38.99161925404594,38.99161925404594 0 0,0 -0.5032845986363755,-0.4440901423997067 l 12.019550682316533 -13.387634771601027" fill="#ffe215" stroke="none" /><path d="M 85.97065885151581 115.62618273729859 l -14.134269910921946 15.743054655865345 a42.15706396956716,42.15706396956716 0 0,0 -0.5357971126967669,-0.4894379588215671 l 14.403166573085567 -15.4974239304572" fill="#f5ff19" stroke="none" /><path d="M 85.70375840098266 115.38237550388516 l -9.483767827638712 10.204281797142492 a34.930872880191274,34.930872880191274 0 0,0 -0.43690897995599437,-0.4131247110319248 l 9.658012641985524 -10.039522449364638" fill="#ffae10" stroke="none" /><path d="M 85.44109423537348 115.13401014063109 l -4.820381534329078 5.010795742596013 a27.952995908996286,27.952995908996286 0 0,0 -0.34388846782516286,-0.3365672446950258 l 4.9059199545300345 -4.927078394978418" fill="#ff4f07" stroke="none" /><path d="M 85.18274418774928 114.88116024355367 l -22.582309480611933 22.679703334315413 a53.00515028570704,53.00515028570704 0 0,0 -0.6410073731140801,-0.6493370847134107 l 22.969357478781546 -22.287625755621338" fill="#7aff26" stroke="none" /><path d="M 84.9287848128048 114.62390073753433 l -5.009216092500267 4.8605422986609454 a27.97976484549701,27.97976484549701 0 0,0 -0.33241752490042187,-0.34853844587034094 l 5.092140168779647 -4.773596736208105" fill="#ff5007" stroke="none" /><path d="M 84.67929136418377 114.36230785411682 l -12.575730030396908 11.78904386736937 a38.23747490510678,38.23747490510678 0 0,0 -0.4460193727228132,-0.4840659391946538 l 12.77679581111545 -11.570826673373372" fill="#ffd814" stroke="none" /><path d="M 84.43433777217949 114.09645910891817 l -17.82801651083949 16.14527554690202 a45.052195226135964,45.052195226135964 0 0,0 -0.5156141155484362,-0.5792979248063829 l 18.103289476036263 -15.836003452354774" fill="#d3ff1c" stroke="none" /><path d="M 84.19399662182784 113.82643327865904 l -10.508772013786094 9.192635963238379 a34.96205017862196,34.96205017862196 0 0,0 -0.39233661930259794,-0.4563761244868566 l 10.665451142659471 -9.010382739589991" fill="#ffae10" stroke="none" /><path d="M 83.95833913139862 113.55231037782056 l -18.44747943162422 15.584793182803981 a45.1494363481008,45.1494363481008 0 0,0 -0.4964374026346971,-0.5979908318039531 l 18.713012834152455 -15.264941093886266" fill="#d2ff1c" stroke="none" /><path d="M 83.72743513129214 113.27417163493432 l -15.108239969982623 12.324385988405606 a40.49742046994394,40.49742046994394 0 0,0 -0.43598768458272097,-0.5439616726880582 l 15.318145566620206 -12.062496482139288" fill="#fff417" stroke="none" /><path d="M 83.50135304334701 112.99209946851258 l -19.675517326342725 15.493772239014275 a46.04362114898048,46.04362114898048 0 0,0 -0.4849778623213547,-0.6268992627240934 l 19.939302005882148 -15.15279498217693" fill="#c7ff1e" stroke="none" /><path d="M 83.28015986056508 112.70617746262583 l -14.820315965911465 11.262641457373551 a39.61421118196524,39.61421118196524 0 0,0 -0.4079108022315029,-0.5464631794196991 l 15.011988034838053 -11.005865398444543" fill="#ffe915" stroke="none" /><path d="M 83.06392112726016 112.41649034213515 l -18.354663617091816 13.45650934004485 a43.75898328386636,43.75898328386636 0 0,0 -0.4401324540309797,-0.6113054835767517 l 18.583575863498403 -13.13857025101696" fill="#e2ff1b" stroke="none" /><path d="M 82.85270091963577 112.12312394758628 l -19.30491820338132 13.64855859110817 a44.642398745773576,44.642398745773576 0 0,0 -0.43821636093143135,-0.631283351642334 l 19.536995471474885 -13.314233977278823" fill="#d8ff1c" stroke="none" /><path d="M 82.6465618267979 111.8261652097733 l -10.809150838930046 7.366309910617483 a34.08052994178766,34.08052994178766 0 0,0 -0.32619431829790196,-0.4876162472290684 l 10.934348262638679 -7.179156749182593" fill="#ffa20f" stroke="none" /><path d="M 82.44556493220864 111.52570212397912 l -23.634697974776074 15.51781573121024 a49.27369012751396,49.27369012751396 0 0,0 -0.45940709002065294,-0.7130100058054891 l 23.898309928173774 -15.108684125483302" fill="#a2ff22" stroke="none" /><path d="M 82.24976979558568 111.22182372390057 l -12.816388580122412 8.10261341778984 a36.162854626845174,36.162854626845174 0 0,0 -0.3281096446172035,-0.5290172195081652 l 12.95396286440757 -7.88079986691641" fill="#ffbe11" stroke="none" /><path d="M 82.05923443525364 110.91462005526583 l -38.830449428482474 23.623272962214426 a66.45176375307372,66.45176375307372 0 0,0 -0.5861017852691567,-0.9823403046228106 l 39.231332089449864 -22.951370563705503" fill="#37ff78" stroke="none" /><line stroke="#e1ed5e" stroke-width="0.3" x1="26.63291911575756" x2="22.317208475507996" y1="142.92168965132927" y2="145.44649492493687" /><path d="M 25.769776987707644 143.4266507060508 a86.0,86.0 0 0,1 -11.730757126820373,-40.83630448921669" fill="none" id="id81" stroke="none" /><text fill="#e1ed5e" style="font-size:6.75px; font-family:Arial;" text-anchor="middle"><textPath startOffset="21.46611528233685" xlink:href="#id81">September</textPath></text><path d="M 81.87401531095188 110.60418214915194 l -5.328956336767062 3.117580899982704 a27.173903652237115,27.173903652237115 0 0,0 -0.23272249183821292,-0.4057712807571443 l 5.381830824757652 -3.025389773367253" fill="#ff4406" stroke="none" /><path d="M 81.69416730710424 110.29060199501025 l -12.134762174422967 6.82154207000667 a34.920700027034464,34.920700027034464 0 0,0 -0.2900473277705654,-0.5265201498450032 l 12.250385911645049 -6.611651401763844" fill="#ffae10" stroke="none" /><path d="M 81.51974371655577 109.97397251340807 l -21.995397265416052 11.871127996384244 a45.99442299334013,45.99442299334013 0 0,0 -0.3700305904937353,-0.6999584275451874 l 22.196480364134676 -11.49075455375293" fill="#c8ff1d" stroke="none" /><path d="M 81.35079622478065 109.6543875284942 l -12.368600915345398 6.403022234155838 a34.92770556603553,34.92770556603553 0 0,0 -0.27180629071024487,-0.5362995978408021 l 12.47698587584191 -6.189168424612351" fill="#ffae10" stroke="none" /><path d="M 81.18737489456691 109.33194174019688 l -16.915290502813036 8.390775056967943 a39.882059179316016,39.882059179316016 0 0,0 -0.2997739600454327,-0.6176231478076029 l 17.057217719473186 -8.098362953195055" fill="#ffed16" stroke="none" /><path d="M 81.02952815118164 109.00673069616217 l -20.554572208507206 9.758824025685737 a43.75357301697995,43.75357301697995 0 0,0 -0.317162115101733,-0.6831389798627767 l 20.719508940448765 -9.403564978544134" fill="#e2ff1b" stroke="none" /><path d="M 80.87730276802145 108.67885076344099 l -20.917873689360032 9.493592971543436 a43.971411519394266,43.971411519394266 0 0,0 -0.3068763035769966,-0.6919250515880034 l 21.078191077668308 -9.132119583462737" fill="#e0ff1b" stroke="none" /><path d="M 80.73074385275274 108.34839909993369 l -40.80294704291356 17.67786383473677 a65.46782384091111,65.46782384091111 0 0,0 -0.439098988165107,-1.0379003002780802 l 41.10119701227097 -16.972889008792528" fill="#36ff6d" stroke="none" /><path d="M 80.58989483394504 108.01547362559985 l -8.076812890783282 3.335349301362717 a29.738390093994646,29.738390093994646 0 0,0 -0.19131327418536534,-0.47482385704065044 l 8.133028779226034 -3.195826076479261" fill="#ff6809" stroke="none" /><path d="M 80.32549172779594 107.34259656027581 l -16.9774442693461 6.336042668496637 a39.12123203912368,39.12123203912368 0 0,0 -0.23002490649604232,-0.6329297509108164 l 17.083993436847365 -6.0428651205797035" fill="#ffe315" stroke="none" /><path d="M 80.20201598880116 107.00284435728193 l -23.693819889491426 8.380860032098395 a46.13236789149172,46.13236789149172 0 0,0 -0.2583614025876014,-0.750919172211368 l 23.834572123022255 -7.971768156797729" fill="#c6ff1e" stroke="none" /><path d="M 80.0844068197444 106.66101706037122 l -13.185180426643543 4.409947068662616 a34.90311533547607,34.90311533547607 0 0,0 -0.18566421174506,-0.571415687930394 l 13.259136889404852 -4.182332480754418" fill="#ffad10" stroke="none" /><path d="M 79.97269907076064 106.31721596034903 l -35.93689006738963 11.33558117996705 a58.68229648526309,58.68229648526309 0 0,0 -0.2955721855237352,-0.9659470039837722 l 36.1266890254195 -10.71530720343123" fill="#3fff2d" stroke="none" /><path d="M 79.86692584326677 105.97154293290107 l -12.479923174679442 3.7015905497959807 a34.01730598258487,34.01730598258487 0 0,0 -0.16167512430287395,-0.5628123174819951 l 12.54179093586842 -3.4862207568093897" fill="#ffa20e" stroke="none" /><path d="M 79.76711848015287 105.62410040840567 l -17.39266594416681 4.834610410973785 a39.052099226164145,39.052099226164145 0 0,0 -0.17445488339515916,-0.6492115199229725 l 17.473308903903746 -4.534507957875274" fill="#ffe215" stroke="none" /><path d="M 79.67330655649465 105.27499134158121 l -20.018503631816888 5.195012834858585 a41.6816016307106,41.6816016307106 0 0,0 -0.1742463345350966,-0.6960274905342134 l 20.104961280647043 -4.84965750492698" fill="#fbff18" stroke="none" /><path d="M 79.58551787078972 104.9243191809786 l -12.798803843338465 3.0872884680799073 a34.16589267408005,34.16589267408005 0 0,0 -0.13298574912650926,-0.5728991266765866 l 12.85005015839553 -2.866520684054746" fill="#ffa40f" stroke="none" /><path d="M 79.50377843672027 104.57218783832718 l -14.897091139176522 3.3231636730070244 a36.263248055591745,36.263248055591745 0 0,0 -0.13066159633811447,-0.6104074786064453 l 14.952086774239078 -3.0662423749844154" fill="#ffbf11" stroke="none" /><path d="M 79.4281124754447 104.21870165774334 l -6.099385042772573 1.250808209039916 a27.22631665399371,27.22631665399371 0 0,0 -0.09019698449733672,-0.45991248073835234 l 6.120011960245576 -1.1456320012336088" fill="#ff4506" stroke="none" /><path d="M 79.35854240842038 103.8639653848113 l -22.381735608833218 4.189735693849889 a43.770506670867746,43.770506670867746 0 0,0 -0.13225687470870628,-0.7417667902413627 l 22.450538925881112 -3.8038501528753126" fill="#e2ff1b" stroke="none" /><path d="M 79.29508885075956 103.50808413554451 l -7.4759027932164415 1.2666606390492816 a28.58245024699392,28.58245024699392 0 0,0 -0.07801409067682777,-0.48579381711487923 l 7.49659863825456 -1.1377875922411886" fill="#ff5808" stroke="none" /><path d="M 79.23777060512086 103.15116336523772 l -14.51965078105993 2.203703212556075 a35.68593090862694,35.68593090862694 0 0,0 -0.08694783429980851,-0.6081129505831776 l 14.555432666376337 -1.9534447899924967" fill="#ffb711" stroke="none" /><path d="M 79.18660465613746 102.79330883721812 l -7.596430659247758 1.019496172595817 a28.664537246742093,28.664537246742093 0 0,0 -0.061421948297185794,-0.48959336152255595 l 7.612854116791793 -0.8885850567858523" fill="#ff5908" stroke="none" /><path d="M 79.1416061653843 102.43462659150553 l -24.9421818821672 2.9112931581393062 a46.11151259673018,46.11151259673018 0 0,0 -0.08523537111001525,-0.7891736776533823 l 24.98859955477827 -2.481523158601142" fill="#c6ff1e" stroke="none" /><path d="M 79.10278846688536 102.07522291339032 l -9.893382304244625 0.9824743179808666 a30.942045524107836,30.942045524107836 0 0,0 -0.04807127272557772,-0.5304624888122075 l 9.908828173247278 -0.812030440620093" fill="#ff780b" stroke="none" /><path d="M 79.07016306316243 101.71520430193888 l -13.13140922163744 1.0761215988181312 a34.17542962645043,34.17542962645043 0 0,0 -0.043001545707411847,-0.5867219262904694 l 13.147987326009188 -0.8499265360309012" fill="#ffa40f" stroke="none" /><path d="M 79.04373962182676 101.35467743843564 l -4.790544397989326 0.30967559558191055 a25.8005431571444,25.8005431571444 0 0,0 -0.0248344345852197,-0.44343551234864753 l 4.795165183462077 -0.2271683668978254" fill="#ff3104" stroke="none" /><path d="M 79.0235259727143 100.99374915477108 l -59.374874529851 2.812852689252141 a80.44146587767652,80.44146587767652 0 0,0 -0.05361947393382738,-1.3836803694554263 l 59.414496136636025 -1.790395072782718" fill="#49f3ff" stroke="none" /><line stroke="#e1ed5e" stroke-width="0.3" x1="15.007084014347285" x2="10.007500721073583" y1="101.09737516637583" y2="101.16192664675087" /><path d="M 14.007167355692545 101.11028546245083 a86.0,86.0 0 0,1 10.666146001902534,-42.60595125391555" fill="none" id="id82" stroke="none" /><text fill="#e1ed5e" style="font-size:6.75px; font-family:Arial;" text-anchor="middle"><textPath startOffset="22.20632615414155" xlink:href="#id82">October</textPath></text><path d="M 79.00175016825051 100.2711162175752 l -10.285552028311415 0.13280058976021944 a31.28640931150135,31.28640931150135 0 0,0 -0.0023177310365533723,-0.5385590679594292 l 10.28631405663747 0.044267956402885104" fill="#ff7d0b" stroke="none" /><path d="M 79.00019446554 99.90962569577889 l -7.744174414374259 -0.03332765978797299 a28.744246128136414,28.744246128136414 0 0,0 0.006388056766030712,-0.494762036414618 l 7.742453350490512 0.16662595426306298" fill="#ff5a08" stroke="none" /><path d="M 79.00486145842228 99.54816195383935 l -7.116364258055227 -0.1531518411159537 a28.1180120637551,28.1180120637551 0 0,0 0.014578928888096365,-0.48380367398565993 l 7.112673634711485 0.27562566252660803" fill="#ff5207" stroke="none" /><path d="M 79.03285615573316 98.82574320788736 l -5.5949201424229305 -0.3133413414514445 a26.60368755341984,26.60368755341984 0 0,0 0.029542012897571416,-0.4570018639210084 l 5.588697538520946 0.40960226962546464" fill="#ff3c05" stroke="none" /><path d="M 79.12142395522702 97.74499172005258 l -8.51795239183321 -0.9199886587376079 a29.567490419121746,29.567490419121746 0 0,0 0.059007766001674254,-0.50554250366692 l 8.500854272827947 1.0664749007293897" fill="#ff6609" stroke="none" /><path d="M 79.16333360222342 97.38593545837743 l -18.288610639128027 -2.2943981381007825 a39.43197064683392,39.43197064683392 0 0,0 0.0902879482730395,-0.6727500866193019 l 18.24640669179715 2.608866566784744" fill="#ffe715" stroke="none" /><path d="M 79.21141760316559 97.0276538004421 l -6.967605307870941 -0.9962264266765638 a28.038465089739386,28.038465089739386 0 0,0 0.07242483276791561,-0.47718915763029507 l 6.949424581663723 1.116014696698951" fill="#ff5007" stroke="none" /><path d="M 79.26566170972629 96.67025291283419 l -17.860744718436 -2.8682739650641302 a39.08958809469702,39.08958809469702 0 0,0 0.11240702185619073,-0.6634326059919254 l 17.808725835059587 3.175292359371884" fill="#ffe315" stroke="none" /><path d="M 79.3925641242962 95.95851677861259 l -23.44006146918794 -4.597011278230034 a44.886586076111485,44.886586076111485 0 0,0 0.15522359451521034,-0.7569253733937111 l 23.357458578757733 4.999812307787147" fill="#d5ff1c" stroke="none" /><path d="M 79.46518482838121 95.60439243477599 l -6.183444837501367 -1.3236056268201462 a27.323521322314985,27.323521322314985 0 0,0 0.10240545213979511,-0.4590635622514234 l 6.159744998359534 1.4298473586215288" fill="#ff4606" stroke="none" /><path d="M 79.54389044137918 95.25157060432595 l -18.11720253786735 -4.205504318974223 a39.59890573058044,39.59890573058044 0 0,0 0.15984230245320374,-0.6626495373263481 l 18.042127435153333 4.516739087959968" fill="#ffe915" stroke="none" /><path d="M 79.62865764111835 94.90015583598534 l -6.146352120318216 -1.5387026263940686 a27.3360279481243,27.3360279481243 0 0,0 0.11820055284692772,-0.4554749471592786 l 6.118955235600981 1.644273999102211" fill="#ff4706" stroke="none" /><path d="M 79.71946130924805 94.55025226153421 l -6.777585635857105 -1.8212599060849188 a28.018023560582353,28.018023560582353 0 0,0 0.1291673972975128,-0.46468385269964696 l 6.745231467993232 1.9376550622035085" fill="#ff5007" stroke="none" /><path d="M 79.81627453868168 94.20196356495316 l -13.597462043849298 -3.906047003339262 a35.1473735098151,35.1473735098151 0 0,0 0.1720448918486285,-0.5800498472164315 l 13.528211254888962 4.139526237302233" fill="#ffb010" stroke="none" /><path d="M 80.02781315780177 93.51064311812611 l -57.68387560158508 -18.742627338003768 a81.65241614272615,81.65241614272615 0 0,0 0.44583271452373324,-1.3329830697669571 l 57.35270559328957 19.732783510693046" fill="#4ae8ff" stroke="none" /><path d="M 80.14247586403 93.16781622104843 l -1.358339469303189 -0.4673505531171599 a22.43648969831523,22.43648969831523 0 0,0 0.12879284336068317,-0.36411471161146286 l 1.3500935451326963 0.4906628911552338" fill="#ff0000" stroke="none" /><path d="M 80.38941819471856 92.48833698450439 l -5.923453736255921 -2.268927500287102 a27.343132993018774,27.343132993018774 0 0,0 0.1721399308628487,-0.4380773478461262 l 5.883520255511381 2.3705538530289916" fill="#ff4706" stroke="none" /><path d="M 80.52162464483688 92.15188598940014 l -5.355853828882481 -2.157949557227097 a26.77424597050487,26.77424597050487 0 0,0 0.1759173949478203,-0.42599792550874477 l 5.3179147470484605 2.249822053189153" fill="#ff3f05" stroke="none" /><path d="M 80.95270993114464 91.15688171328213 l -6.365510589563304 -2.955326605274212 a28.01809663724319,28.01809663724319 0 0,0 0.20685601465497772,-0.43569152172420306 l 6.313696381066576 3.0644605426389475" fill="#ff5007" stroke="none" /><path d="M 81.10775173730289 90.83032412892265 l -13.825068107082197 -6.710233301762374 a36.367489682103,36.367489682103 0 0,0 0.2781939557833295,-0.5608220392339051 l 13.707514138345456 6.9472149294952406" fill="#ffc011" stroke="none" /><path d="M 81.43458229118936 90.18545643968196 l -6.950596091378018 -3.674408471651678 a28.8620648459565,28.8620648459565 0 0,0 0.23597060828009503,-0.4372176994185757 l 6.886317383879451 3.793507154402726" fill="#ff5c08" stroke="none" /><line stroke="#e1ed5e" stroke-width="0.3" x1="26.266209847984243" x2="21.928928074336255" y1="57.711370442889674" y2="55.22380399835377" /><path d="M 25.398753493254645 57.213857153982495 a86.0,86.0 0 0,1 29.58750427330803,-30.492523968695096" fill="none" id="id83" stroke="none" /><text fill="#e1ed5e" style="font-size:6.75px; font-family:Arial;" text-anchor="middle"><textPath startOffset="21.46611528233685" xlink:href="#id83">November</textPath></text><path d="M 81.96595687620814 89.24020034530311 l -6.7948945105381995 -4.054093866046948 a28.912412304983963,28.912412304983963 0 0,0 0.2586755002638891,-0.4251945082906371 l 6.724103211988093 4.170456147544659" fill="#ff5d08" stroke="none" /><path d="M 82.15384107792192 88.93136811851018 l -53.53847676623425 -33.20589564446946 a84.0,84.0 0 0,0 0.7726896150161493,-1.222209409143138 l 52.95895955497213 34.12255270132681" fill="#4dd2ff" stroke="none" /><path d="M 82.7489923806493 88.02491185347247 l -6.542460416607482 -4.541563131428875 a28.964269205622685,28.964269205622685 0 0,0 0.2878322599912668,-0.4071183193693297 l 6.463315536812337 4.653507951129991" fill="#ff5d08" stroke="none" /><path d="M 82.95767976084542 87.72973835380427 l -7.4115377942226495 -5.336216351975536 a30.13269387586608,30.13269387586608 0 0,0 0.3066896793787645,-0.4183243780078445 l 7.318585502330252 5.463003173654881" fill="#ff6d0a" stroke="none" /><path d="M 83.39014120810768 87.1503855733568 l -4.688592754264538 -3.627159619518274 a26.927831721701104,26.927831721701104 0 0,0 0.2867761753814607,-0.36417662015788155 l 4.625462498289107 3.707328633629203" fill="#ff4106" stroke="none" /><path d="M 83.84228863543731 86.58626213691792 l -5.374815408831723 -4.462040652282339 a27.985588555135145,27.985588555135145 0 0,0 0.3108924183442493,-0.367998562802972 l 5.29721237700035 4.553898164714427" fill="#ff5007" stroke="none" /><path d="M 84.07557802195018 86.31012108654704 l -3.4772875902433835 -2.9893484437489355 a25.585600626243505,25.585600626243505 0 0,0 0.2899800535377988,-0.3314973293145283 l 3.425315673127741 3.0487613292664073" fill="#ff2e04" stroke="none" /><path d="M 84.31358615837235 86.03803664274999 l -6.785584286832612 -6.039626400705617 a30.084120275173042,30.084120275173042 0 0,0 0.34762395720202466,-0.3838550559609549 l 6.680616689014542 6.1555342439361285" fill="#ff6d0a" stroke="none" /><path d="M 84.80347519578584 85.50635884689758 l -9.179482371559947 -8.75490450472761 a33.68507979859329,33.68507979859329 0 0,0 0.4037970650151474,-0.4161483702622062 l 9.027421042841683 8.91161707053994" fill="#ff9d0e" stroke="none" /><path d="M 85.05521093208273 85.24692304244772 l -4.320728679658901 -4.265302269173779 a27.071367207692674,27.071367207692674 0 0,0 0.33022452948263953,-0.32880644040803125 l 4.246668350008948 4.33904456023192" fill="#ff4306" stroke="none" /><path d="M 85.31137513191541 84.99185889309783 l -7.85060475930175 -8.02137606891466 a32.223834867180116,32.223834867180116 0 0,0 0.3997547113317393,-0.38456371557588637 l 7.711366804357583 8.15532287125286" fill="#ff8a0c" stroke="none" /><path d="M 85.83668400450813 84.49514656593479 l -8.173538715954662 -8.947729463133644 a33.11893550138129,33.11893550138129 0 0,0 0.4242204643994893,-0.38086932152809067 l 8.018307263959201 9.087097793431015" fill="#ff960d" stroke="none" /><path d="M 86.10567301691215 84.25364557470407 l -1.2374256062626132 -1.402366749743608 a22.87025523173198,22.87025523173198 0 0,0 0.2974289776341465,-0.2579274784905156 l 1.2131028299816933 1.4234592216538042" fill="#ff0601" stroke="none" /><path d="M 87.51073957382395 83.11751280151077 l -4.2558231383172584 -5.752853027316851 a28.155931004316994,28.155931004316994 0 0,0 0.3921111378396322,-0.28488541734506573 l 4.1561666841238445 5.825257679478584" fill="#ff5207" stroke="none" /><path d="M 87.80319425747018 82.90503203632743 l -5.873438269212672 -8.232174978296662 a31.112664435031235,31.112664435031235 0 0,0 0.43864243351408,-0.3072970564678426 l 5.730864696114931 8.332056877528448" fill="#ff7b0b" stroke="none" /><path d="M 88.39885842347998 82.49532879139004 l -4.986973299566625 -7.524718783857505 a30.027252930251173,30.027252930251173 0 0,0 0.4332975125229282,-0.28182875509934574 l 4.8567087612594095 7.609446463116385" fill="#ff6c09" stroke="none" /><path d="M 88.70189139769569 82.29822771554957 l -5.485820001487237 -8.595132148048629 a31.196593437572005,31.196593437572005 0 0,0 0.4551447019286598,-0.28501157059267285 l 5.337056147186336 8.688288059964233" fill="#ff7c0b" stroke="none" /><line stroke="#e1ed5e" stroke-width="0.3" x1="56.762969772571076" x2="54.21961505331055" y1="26.818313649435495" y2="22.513508569990535" /><path d="M 56.25429882871897 25.957352633546506 a86.0,86.0 0 0,1 42.265352541879196,-11.944610805530505" fill="none" id="id84" stroke="none" /><text fill="#e1ed5e" style="font-size:6.75px; font-family:Arial;" text-anchor="middle"><textPath startOffset="22.20632615414155" xlink:href="#id84">December</textPath></text><path d="M 89.3179101791058 81.91981866633112 l -7.691493071327917 -13.018387954785554 a36.12076355901351,36.12076355901351 0 0,0 0.5380329936717627,-0.3116634375614443 l 7.466263345190834 13.148855549737046" fill="#ffbd11" stroke="none" /><path d="M 89.94658935756843 81.56283822128135 l -7.280648649019282 -13.35213508830782 a36.20813453934726,36.20813453934726 0 0,0 0.5497687168495444,-0.2936674088446484 l 7.049734885641432 13.475481223654219" fill="#ffbe11" stroke="none" /><path d="M 90.58718382345135 81.22770947309562 l -6.783220939458479 -13.528001800454357 a36.133371039745384,36.133371039745384 0 0,0 0.5583960534367017,-0.27400251833395417 l 6.5493536190113515 13.642759478923141" fill="#ffbd11" stroke="none" /><path d="M 91.23893434514133 80.91482961587045 l -7.075653734295889 -15.413656559376385 a37.96012040930317,37.96012040930317 0 0,0 0.5961869760067873,-0.26749171770102137 l 6.809284639822327 15.533168607593936" fill="#ffd513" stroke="none" /><path d="M 91.56875222667455 80.76684994638697 l -6.178782483877905 -14.094882970588792 a36.38970691526224,36.38970691526224 0 0,0 0.575851936056761,-0.2465497465333036 l 5.935246790030836 14.199152245084882" fill="#ffc111" stroke="none" /><path d="M 92.57280143429618 80.3572730644239 l -7.227893353724068 -19.11562404191808 a41.436475352779524,41.436475352779524 0 0,0 0.66933260939772,-0.24652084877143518 l 6.897778418553778 19.237208158495836" fill="#feff18" stroke="none" /><path d="M 92.91201910852362 80.23233633223022 l -4.37255713512251 -12.19462074441412 a33.9548458501059,33.9548458501059 0 0,0 0.5518761875189628,-0.1925387654523687 l 4.1619989435402625 12.268080363038699" fill="#ffa10e" stroke="none" /><path d="M 93.25333710446033 80.11325718540243 l -5.1816460094205095 -15.273634260540423 a37.128650250151054,37.128650250151054 0 0,0 0.6069954008490726,-0.20011684024266962 l 4.917967786329028 15.360564825042326" fill="#ffca12" stroke="none" /><path d="M 93.94186890950719 79.89281104454417 l -6.706597640516998 -22.259476394909083 a44.24785455235177,44.24785455235177 0 0,0 0.7311637321151099,-0.21344674323407586 l 6.322443690678467 22.371621467061857" fill="#dcff1b" stroke="none" /><path d="M 94.63758080256005 79.69619591428918 l -3.672647300456632 -13.905796715778155 a35.38261174106073,35.38261174106073 0 0,0 0.5902006851430167,-0.15045529600938695 l 3.432737726628616 13.966955007956406" fill="#ffb410" stroke="none" /><path d="M 94.98787191387505 79.60689891045804 l -3.299253422255136 -13.423840612996846 a34.823334255793924,34.823334255793924 0 0,0 0.5833344824844988,-0.13805642522284212 l 3.067695252808103 13.478642950360559" fill="#ffac0f" stroke="none" /><path d="M 95.692805502759 79.44645832069477 l -3.2966690530677036 -15.7314058672079 a37.073119093824864,37.073119093824864 0 0,0 0.6257123196512766,-0.1255120049261606 l 3.0253903239492907 15.785821828211272" fill="#ffc912" stroke="none" /><path d="M 96.04723909329186 79.375362276772 l -3.220328573867977 -16.802966775215236 a38.1087757765615,38.1087757765615 0 0,0 0.6453174569019593,-0.11792764048345587 l 2.9306159958631244 16.855909897049425" fill="#ffd714" stroke="none" /><path d="M 96.40284397218896 79.31037775812273 l -3.638692138270684 -20.928523870876113 a42.242485539384134,42.242485539384134 0 0,0 0.7174600405713706,-0.11838705412912012 l 3.277902891560428 20.988057187944857" fill="#f4ff19" stroke="none" /><path d="M 97.47563105711357 79.15227682838746 l -2.135124816002467 -17.633116278939365 a38.76191283861358,38.76191283861358 0 0,0 0.6630747489182924,-0.07450417397078116 l 1.8312833635744568 17.667256406380744" fill="#ffdf14" stroke="none" /><path d="M 97.83486435360386 79.11191278185805 l -1.2825070467627497 -12.37295182648362 a33.43924279148375,33.43924279148375 0 0,0 0.5730449166563784,-0.05441751972493482 l 1.069337003016135 12.393194890723734" fill="#ff9a0e" stroke="none" /><path d="M 98.19473922651362 79.07773832637324 l -1.0527311656240343 -12.200739772698734 a33.24607259116934,33.24607259116934 0 0,0 0.5705814631918777,-0.044288103047681694 l 0.8425595130698225 12.217053137934878" fill="#ff970e" stroke="none" /><path d="M 98.55514903715128 79.0497635885617 l -0.9581337665708219 -13.892871610691063 a34.92587167490024,34.92587167490024 0 0,0 0.6001228560791071,-0.03620104954312096 l 0.7188488616520918 13.907305929614491" fill="#ffae10" stroke="none" /><path d="M 98.91598698831166 79.02799685794201 l -1.0942303869138195 -21.169674962434623 a42.19793570503451,42.19793570503451 0 0,0 0.7257224444818611,-0.03125113505710673 l 0.7296671100426342 21.185373824015922" fill="#f5ff19" stroke="none" /><path d="M 99.63851952072746 79.00311137660856 l -0.2412599562064314 -14.01378143557071 a35.015858036182266,35.015858036182266 0 0,0 0.6027404354789637,-0.005187977220114076 l 3.432895136262864e-15 14.015858036182266" fill="#ffaf10" stroke="none" /></svg>