<?xml version="1.0" encoding="utf-8" ?>
<svg baseProfile="full" height="200mm" version="1.1" viewBox="0,0,200,200" width="200mm" xmlns="http://www.w3.org/2000/svg" xmlns:ev="http://www.w3.org/2001/xml-events" xmlns:xlink="http://www.w3.org/1999/xlink"><defs /><rect fill="#1a1a1a" height="200" width="200" x="0" y="0" /><text alignment-baseline="middle" fill="#e1ed5e" style="dominant-baseline: central; font-size:9.0px; font-family:Arial;" text-anchor="middle" x="100.0" y="100.0">2016</text><line stroke="#e1ed5e" stroke-width="0.3" x1="100.0" x2="100.0" y1="15.0" y2="10.0" /><path d="M 100.0 14.0 a86.0,86.0 0 0,1 42.35913384403234,11.155469271406648" fill="none" id="id13" stroke="none" /><text fill="#e1ed5e" style="font-size:6.75px; font-family:Arial;" text-anchor="middle"><textPath startOffset="22.145653131862478" xlink:href="#id13">January</textPath></text><path d="M 106.04205211174951 79.88797359093562 l 0.8794339138142696 -2.9273494787084893 a24.056595979069126,24.056595979069126 0 0,0 0.3944816269816729,0.12221141641923797 l -0.9295561736675727 2.9118214744826045" fill="#ff0200" stroke="none" /><line stroke="#e1ed5e" stroke-width="0.3" x1="143.13028292997686" x2="145.6673583964461" y1="26.7553504044142" y2="22.446841604673864" /><path d="M 143.63769802327073 25.89364864446614 a86.0,86.0 0 0,1 29.32050498858742,28.57503671076992" fill="none" id="id14" stroke="none" /><text fill="#e1ed5e" style="font-size:6.75px; font-family:Arial;" text-anchor="middle"><textPath startOffset="20.669276256404974" xlink:href="#id14">February</textPath></text><path d="M 114.13192950727249 84.46653392183569 l 4.339603800773569 -4.769984763743651 a27.448636739190306,27.448636739190306 0 0,0 0.34581390948607066,0.3200801919184075 l -4.420847481573604 4.694786825692867" fill="#ff3505" stroke="none" /><path d="M 114.65682725009322 84.96080404539774 l 2.3432355325472636 -2.4043660841769805 a24.357339575874416,24.357339575874416 0 0,0 0.2969369397886706,0.29439903247645033 l -2.384164392465897 2.363787041471868" fill="#ff0701" stroke="none" /><path d="M 114.91283532996326 85.21462403516908 l 2.671660529369621 -2.6488259612014633 a24.762186725419994,24.762186725419994 0 0,0 0.29669014345161093,0.3044302241564232 l -2.716737473972044 2.6025730449773006" fill="#ff0d01" stroke="none" /><path d="M 115.16444852881244 85.47280134310134 l 2.29074635583961 -2.1944831901153723 a24.172266593225007,24.172266593225007 0 0,0 0.2844778416136881,0.3021056095185828 l -2.3280800311895584 2.154836120652292" fill="#ff0400" stroke="none" /><path d="M 115.41159269507618 85.73525988315684 l 23.04523341721733 -21.33032400561827 a52.401679977967504,52.401679977967504 0 0,0 0.6053699067810986,0.6654075727512297 l -23.408001024840306 20.93157885730937" fill="#88ff25" stroke="none" /><path d="M 115.6541949942343 86.00192230759917 l 11.517538399090313 -10.299053857132693 a36.45070228587166,36.45070228587166 0 0,0 0.4130887549988943,0.47001917353189476 l -11.692638218047797 10.099822405789503" fill="#ffb210" stroke="none" /><path d="M 115.8921839302757 86.27271002978787 l 18.732731264549724 -16.180887103417213 a45.753511429358305,45.753511429358305 0 0,0 0.5083115692908938,0.5987897504934111 l -19.007737397347732 15.856930570474248" fill="#d6ff1c" stroke="none" /><path d="M 116.1254893667686 86.54754324733833 l 18.94112149525422 -15.801357215671182 a45.66675846874139,45.66675846874139 0 0,0 0.49701347157581843,0.6062756220624347 l -19.209581786068668 15.473879311910254" fill="#d7ff1c" stroke="none" /><path d="M 116.35404254752997 86.82634096563983 l 2.5988109473766996 -2.0934181390321736 a24.337097218397137,24.337097218397137 0 0,0 0.2592869346902557,0.32760057174525864 l -2.634364312708515 2.0484976233722367" fill="#ff0701" stroke="none" /><path d="M 116.57777611688842 87.10902102172516 l 12.04639556166623 -9.367350050723822 a36.25984577251446,36.25984577251446 0 0,0 0.37787597851202803,0.4946517858541107 l -12.205423517532564 9.159177351628827" fill="#ffb010" stroke="none" /><path d="M 116.7966241395341 87.39550010848427 l 20.247541685139293 -15.194132752730479 a46.31451390801432,46.31451390801432 0 0,0 0.4717419518514798,0.6400085583516522 l -20.5053856565746 14.844317885109952" fill="#cfff1d" stroke="none" /><path d="M 117.01052211995028 87.68569379921539 l 12.78717161289019 -9.256926129176973 a36.78614706692371,36.78614706692371 0 0,0 0.36590812883508267,0.5146956071369319 l -12.944194840255236 9.036053295330538" fill="#ffb711" stroke="none" /><path d="M 117.21940702142032 87.97951657250589 l 12.669139591772066 -8.844043370022176 a36.45070228587166,36.45070228587166 0 0,0 0.35376320124522553,0.5161510829581432 l -12.819092529832616 8.625257551993982" fill="#ffb210" stroke="none" /><path d="M 117.42321728460499 88.27688183743584 l 21.16601802324226 -14.241441535409123 a46.51115395207932,46.51115395207932 0 0,0 0.4400299813273299,0.6662614757359705 l -21.407372443490313 13.876000181334096" fill="#ccff1d" stroke="none" /><path d="M 117.62189284568427 88.57770195909679 l 13.382641014038661 -8.67446622081813 a36.948085926741946,36.948085926741946 0 0,0 0.3404190931005239,0.5351953564624867 l -13.529577798765075 8.44345718967697" fill="#ffb911" stroke="none" /><path d="M 117.81537515405839 88.88188828441811 l 15.19532273536734 -9.483005228079628 a38.91159460203801,38.91159460203801 0 0,0 0.34878136467751397,0.569708147263567 l -15.355872064500256 9.220759964691508" fill="#ffd313" stroke="none" /><line stroke="#e1ed5e" stroke-width="0.3" x1="172.87174338648825" x2="177.1583165268699" y1="56.24261187166439" y2="53.66864786411523" /><path d="M 173.72905801456457 55.72781907015455 a86.0,86.0 0 0,1 12.242430191666344,42.057860355516425" fill="none" id="id15" stroke="none" /><text fill="#e1ed5e" style="font-size:6.75px; font-family:Arial;" text-anchor="middle"><textPath startOffset="22.145653131862474" xlink:href="#id15">March</textPath></text><path d="M 118.00360718960297 89.18935116829356 l 26.975660951538146 -16.19810932770557 a52.465298815753236,52.465298815753236 0 0,0 0.4570134504428015,0.7761087515353904 l -27.249748112110716 15.732649407876622" fill="#88ff25" stroke="none" /><path d="M 118.18653347947321 89.5 l 15.023549207292728 -8.673850179014048 a38.34770035802809,38.34770035802809 0 0,0 0.32425105294017253,0.5729205414094712 l -15.170233625254276 8.414672867505457" fill="#ffcb13" stroke="none" /><path d="M 118.36410011445183 89.81374322990088 l 17.00866667168866 -9.434420687921603 a40.45001377031121,40.45001377031121 0 0,0 0.3316027608896456,0.6101117308396123 l -17.168114782193644 9.14105412360739" fill="#ffe715" stroke="none" /><path d="M 118.53625476483649 90.13048839642627 l 13.551222328079996 -7.215262614069525 a36.35238226383916,36.35238226383916 0 0,0 0.28855470461525357,0.553341693463695 l -13.673085101670194 6.981574677501332" fill="#ffb110" stroke="none" /><path d="M 118.70294669586156 90.45014215332178 l 2.6140857747589465 -1.3347708226904977 a23.935141834205453,23.935141834205453 0 0,0 0.18370801133936285,0.3675390837968393 l -2.6366136993100464 1.289699882729909" fill="#ff0100" stroke="none" /><path d="M 119.0197475246899 91.09779779509293 l 17.88306748810006 -8.370178553443338 a40.744973836408704,40.744973836408704 0 0,0 0.2910656692636086,0.6360310163309143 l -18.02411762221872 8.061958554897739" fill="#ffea16" stroke="none" /><path d="M 119.16976305983485 91.42560881287824 l 3.9411258948407357 -1.7628154836646632 a25.317405673368217,25.317405673368217 0 0,0 0.17404645592693813,0.3982523518469346 l -3.970806232784644 1.6949010620418794" fill="#ff1502" stroke="none" /><path d="M 119.31412917781788 91.75594674310238 l 5.199548683920951 -2.2193781488894 a26.65340126686863,26.65340126686863 0 0,0 0.17600656718634458,0.4223516883062177 l -5.2368810956437795 2.129793951141906" fill="#ff2904" stroke="none" /><path d="M 119.4528033332814 92.08871423366111 l 3.139449945828394 -1.2767869620144832 a24.389148994767282,24.389148994767282 0 0,0 0.15439646589585604,0.38917995329396726 l -3.1609050866903745 1.2227059915069505" fill="#ff0701" stroke="none" /><path d="M 119.58574465831526 92.42381321644754 l 5.434491253994118 -2.102177963213742 a26.826907188102453,26.826907188102453 0 0,0 0.1624552115468789,0.4309317494682991 l -5.469777149355437 2.008577933551284" fill="#ff2c04" stroke="none" /><path d="M 119.71291397450082 92.76114493625339 l 5.762946346442476 -2.116233723538151 a27.139217846323326,27.139217846323326 0 0,0 0.1568386125223895,0.43870551285666426 l -5.798425129008808 2.0169932543005697" fill="#ff3004" stroke="none" /><path d="M 119.83427380445688 93.10060997987247 l 9.917136902228442 -3.4496950100637633 a31.5,31.5 0 0,0 0.17327186764145253,0.5122474882887575 l -9.97489419144226 3.2789458473008444" fill="#ff6f0a" stroke="none" /><path d="M 119.94978838288452 93.4421083053983 l 17.50757385900896 -5.755087272059566 a39.42922060038557,39.42922060038557 0 0,0 0.20584922891449992,0.644819777694566 l -17.603787803700715 5.453698460673612" fill="#ffd914" stroke="none" /><path d="M 120.05942366710727 93.78553927170692 l 14.871927433724252 -4.607361134829238 a36.56926466538144,36.56926466538144 0 0,0 0.18062374789784202,0.6012377120616512 l -14.948827501625722 4.351385819176863" fill="#ffb410" stroke="none" /><path d="M 120.16314734710363 94.1308016681162 l 17.214474463239128 -5.010882629809908 a38.928945194161386,38.928945194161386 0 0,0 0.1812633791919549,0.64323978634228 l -17.297956334505663 4.714634919564615" fill="#ffd313" stroke="none" /><path d="M 120.26092885502905 94.47779374421319 l 4.059439752694477 -1.106418356123632 a25.207518589920134,25.207518589920134 0 0,0 0.1102054937792848,0.41846821032529813 l -4.077834727278492 1.0365696414255354" fill="#ff1402" stroke="none" /><path d="M 120.35273937422433 94.82641323984039 l 8.321024952089234 -2.1151720037061255 a29.585651335720186,29.585651335720186 0 0,0 0.12089609146403535,0.49329730906562663 l -8.35610857006956 1.972018870032404" fill="#ff5407" stroke="none" /><path d="M 120.7213421655516 96.59031103205396 l 3.558181448697723 -0.5854974033363698 a24.606031396309557,24.606031396309557 0 0,0 0.06500504315553587,0.41737900853006976 l -3.567707983991524 0.5243302128748588" fill="#ff0b01" stroke="none" /><path d="M 120.77682067341334 96.94652285012252 l 2.9382807534557287 -0.4318260855031915 a23.969843018452217,23.969843018452217 0 0,0 0.05633539001292251,0.4076148186903732 l -2.9452606600238638 0.3813229586127327" fill="#ff0100" stroke="none" /><path d="M 120.82617615685814 97.30363454192243 l 2.9481284892936053 -0.38169425652764294 a23.972734783806114,23.972734783806114 0 0,0 0.049335789714594916,0.40857111240772603 l -2.954246365267864 0.3310294671965039" fill="#ff0100" stroke="none" /><path d="M 120.86939407059847 97.66154086499901 l 20.15094894285823 -2.2579558599045577 a41.27705866152575,41.27705866152575 0 0,0 0.07285913380841347,0.7048460271183478 l -20.186740469148308 1.9117053105032786" fill="#fff116" stroke="none" /><path d="M 120.9064616781168 98.02013634271609 l 30.311778436917074 -2.870556933013266 a51.44739741118149,51.44739741118149 0 0,0 0.07571679407663089,0.879943919876011 l -30.356588853691445 2.3497919657615927" fill="#93ff23" stroke="none" /><path d="M 120.93736805541906 98.37931529534042 l 3.3329106956849937 -0.25798836664644315 a24.34288074910493,24.34288074910493 0 0,0 0.028673640169715464,0.41690843506868835 l -3.3368482970197753 0.20073650742342064" fill="#ff0701" stroke="none" /><path d="M 120.96210409425399 98.7389718711861 l 15.486324492656664 -0.9316188255420867 a36.514321123657396,36.514321123657396 0 0,0 0.032268941053684504,0.6260088357245969 l -15.500035023166921 0.6656381964407593" fill="#ffb310" stroke="none" /><path d="M 120.99303781780057 99.45929381324524 l 2.9052606729399044 -0.0748292092658408 a23.906224180666484,23.906224180666484 0 0,0 0.007045014455222796,0.4103367730217197 l -2.906117118993793 0.024945520275054717" fill="#ff0000" stroke="none" /><line stroke="#e1ed5e" stroke-width="0.3" x1="184.99686870605535" x2="189.99668451229388" y1="99.2704041080226" y2="99.22748670261217" /><path d="M 185.99683186730306 99.26182062694052 a86.0,86.0 0 0,1 -10.086455211305974,41.156179273409016" fill="none" id="id16" stroke="none" /><text fill="#e1ed5e" style="font-size:6.75px; font-family:Arial;" text-anchor="middle"><textPath startOffset="21.40746469413373" xlink:href="#id16">April</textPath></text><path d="M 120.99922638620191 99.81974689727618 l 4.84352853165632 -0.041575867125091176 a25.84370696777747,25.84370696777747 0 0,0 0.0,0.4436579396978355 l -4.84352853165632 -0.041575867125090586" fill="#ff1d02" stroke="none" /><path d="M 120.98066250479742 100.90099992219065 l 13.14252736633482 0.56439667392526 a34.15464059487744,34.15464059487744 0 0,0 -0.030183611529664027,0.585554000058859 l -13.130902165348582 -0.7899224673608497" fill="#ff930d" stroke="none" /><path d="M 120.93736805541906 101.62068470465957 l 2.9177384290944786 0.22585140747941143 a23.926466538143764,23.926466538143764 0 0,0 -0.03521335249227384,0.4092325329129453 l -2.913431453904464 -0.2759049877680144" fill="#ff0000" stroke="none" /><path d="M 120.82617615685814 102.69636545807758 l 12.845007299169316 1.6630433608826012 a33.952217020104655,33.952217020104655 0 0,0 -0.07979657547855645,0.5773682695432105 l -12.814566207135549 -1.8832999386258973" fill="#ff910d" stroke="none" /><path d="M 120.77682067341334 103.0534771498775 l 39.00446106315672 5.732312583899723 a60.423437069677775,60.423437069677775 0 0,0 -0.1596286727858579,1.0249305891685954 l -38.90031089823259 -6.401031354999769" fill="#34ff2f" stroke="none" /><path d="M 120.7213421655516 103.40968896794604 l 3.755065586596795 0.6178946133044596 a24.80556320572845,24.80556320572845 0 0,0 -0.07274548272536685,0.41957661300016474 l -3.743905286379194 -0.6822642592252124" fill="#ff0e01" stroke="none" /><path d="M 120.35273937422433 105.17358676015961 l 13.458255917794718 3.421036026203036 a34.88625722941339,34.88625722941339 0 0,0 -0.1525202566196274,0.5791442571256544 l -13.39754618037036 -3.6515607877014937" fill="#ff9d0e" stroke="none" /><path d="M 120.26092885502905 105.52220625578681 l 8.132829470174842 2.216638837182393 a29.42949600660975,29.42949600660975 0 0,0 -0.1370314522386398,0.4862762818010304 l -8.093579525861623 -2.355923042886432" fill="#ff5107" stroke="none" /><path d="M 120.05942366710727 106.21446072829308 l 14.722766200176498 4.561150603387783 a36.413109336271,36.413109336271 0 0,0 -0.19010293292933172,0.5954947297931855 l -14.642298551469912 -4.813214366872351" fill="#ffb210" stroke="none" /><path d="M 119.4528033332814 107.91128576633889 l 58.358409999844184 23.733857299016655 a84.0,84.0 0 0,0 -0.5546966218540579,1.3310699622348887 l -57.94238753345364 -24.73215977069282" fill="#4dd2ff" stroke="none" /><path d="M 119.16976305983485 108.57439118712176 l 13.819018124240623 6.181071036158417 a36.13839162765078,36.13839162765078 0 0,0 -0.25815810282379015,0.5641220447897319 l -13.710875556561778 -6.4173820631628375" fill="#ffae10" stroke="none" /><path d="M 118.70294669586154 109.54985784667822 l 13.250710651364319 6.765907273638044 a35.87813274580006,35.87813274580006 0 0,0 -0.2847902489985961,0.5461228534566832 l -13.132612333390773 -6.9923763701992305" fill="#ffab0f" stroke="none" /><path d="M 118.5362547648365 109.86951160357373 l 7.205707408583508 3.8366333319868655 a29.163453594051227,29.163453594051227 0 0,0 -0.23907734083300836,0.43987537929063814 l -7.1387847181351605 -3.9597635447521085" fill="#ff4d07" stroke="none" /><line stroke="#e1ed5e" stroke-width="0.3" x1="174.33088141563837" x2="178.70328620479359" y1="141.23008692659167" y2="143.65538615756765" /><path d="M 175.20536237346943 141.71514677278685 a86.0,86.0 0 0,1 -30.301960400862466,31.63118572779886" fill="none" id="id17" stroke="none" /><text fill="#e1ed5e" style="font-size:6.75px; font-family:Arial;" text-anchor="middle"><textPath startOffset="22.145653131862474" xlink:href="#id17">May</textPath></text><path d="M 118.18653347947321 110.5 l 2.511855285033274 1.450220324979344 a23.90044064995869,23.90044064995869 0 0,0 -0.2081913778267018,0.3535544745323346 l -2.486590197076809 -1.493125967805228" fill="#ff0000" stroke="none" /><path d="M 118.00360718960297 110.81064883170644 l 13.164301043347814 7.904784535439443 a36.35527402919306,36.35527402919306 0 0,0 -0.32586796349031294,0.5322808284332236 l -13.026665115402096 -8.129602479997224" fill="#ffb110" stroke="none" /><path d="M 117.81537515405839 111.11811171558189 l 12.63169466651702 7.883111708004839 a35.88969980721564,35.88969980721564 0 0,0 -0.3306677126454255,0.5198645667258295 l -12.494509262245705 -8.098789949409342" fill="#ffab0f" stroke="none" /><path d="M 117.62189284568427 111.42229804090321 l 12.426564756644064 8.054749141760587 a35.80873037730653,35.80873037730653 0 0,0 -0.33877712377370445,0.5129517442202434 l -12.286463193949633 -8.266880764319891" fill="#ffaa0f" stroke="none" /><path d="M 117.21940702142032 112.02048342749411 l 12.161710081639333 8.489818162987786 a35.831864500137705,35.831864500137705 0 0,0 -0.3564159755047174,0.5013437047428444 l -12.014179007604655 -8.697339094440135" fill="#ffaa0f" stroke="none" /><path d="M 117.01052211995028 112.31430620078461 l 29.535344727410227 21.38131188180847 a57.46226934728725,57.46226934728725 0 0,0 -0.5852887315959385,0.7940565723654768 l -29.16395397623046 -21.885174763442826" fill="#52ff2b" stroke="none" /><path d="M 116.79662413953412 112.60449989151573 l 8.32429775243504 6.246708222192936 a31.407463508675296,31.407463508675296 0 0,0 -0.3273076802471668,0.4284562601612272 l -8.215838094833572 -6.388685395595041" fill="#ff6d0a" stroke="none" /><path d="M 116.57777611688842 112.89097897827484 l 6.905504372567814 5.3697619676785235 a29.74759019553842,29.74759019553842 0 0,0 -0.31693021591713794,0.4004309745179952 l -6.812307726009114 -5.487512886111199" fill="#ff5607" stroke="none" /><path d="M 116.35404254752997 113.17365903436017 l 7.183888147427791 5.786831770808172 a30.224731478931425,30.224731478931425 0 0,0 -0.32895040557943606,0.40126600821913083 l -7.0834909226097285 -5.909300060725799" fill="#ff5d08" stroke="none" /><path d="M 116.1254893667686 113.45245675266167 l 23.464341247403443 19.574788006799217 a51.55728449462958,51.55728449462958 0 0,0 -0.5727902268289252,0.6747454469439405 l -23.124856457067406 -19.97470023619271" fill="#92ff23" stroke="none" /><path d="M 115.89218393027572 113.72728997021213 l 17.83767436183935 15.407758268686173 a44.57077939961443,44.57077939961443 0 0,0 -0.5051120175167063,0.5747247537998538 l -17.570551280364057 -15.71169530029732" fill="#e4ff1a" stroke="none" /><path d="M 115.6541949942343 113.99807769240083 l 21.066985359219476 18.838228213692272 a49.26122280363536,49.26122280363536 0 0,0 -0.569089805309636,0.6255293858957618 l -20.74049785306796 -19.19709517514571" fill="#acff20" stroke="none" /><path d="M 115.41159269507618 114.26474011684316 l 9.288975657718046 8.597737192429424 a33.65725695400716,33.65725695400716 0 0,0 -0.3961045099344079,0.42064926297246275 l -9.140015314047377 -8.755927915346382" fill="#ff8d0d" stroke="none" /><path d="M 115.16444852881244 114.52719865689866 l 6.519334660830684 6.245375131759515 a30.028091434866425,30.028091434866425 0 0,0 -0.3597840067267962,0.36917008614274516 l -6.411163852953079 -6.356367909969998" fill="#ff5a08" stroke="none" /><path d="M 114.91283532996326 114.78537596483092 l 12.871612757946801 12.761599634750787 a39.125585238226385,39.125585238226385 0 0,0 -0.4769745690776105,0.4728978878554402 l -12.650646268739228 -12.98067753283489" fill="#ffd614" stroke="none" /><path d="M 114.65682725009322 115.03919595460226 l 16.31182564517397 16.737370105356025 a44.37124759019554,44.37124759019554 0 0,0 -0.5500503135338269,0.5269357577239298 l -16.02210284577483 -17.014917993385534" fill="#e6ff1a" stroke="none" /><path d="M 114.39649973595853 115.28858382429668 l 8.427364414425735 8.949568966825279 a33.29289451941614,33.29289451941614 0 0,0 -0.4194432722200902,0.38823043084245573 l -8.272491370891677 -9.092917143800115" fill="#ff880c" stroke="none" /><path d="M 114.13192950727249 115.5334660781643 l 5.106332005932667 5.612753372225713 a28.587992288625724,28.587992288625724 0 0,0 -0.36583777813606255,0.3271343970769535 l -5.009229200973227 -5.699583299186053" fill="#ff4506" stroke="none" /><path d="M 113.59037401385872 116.0094264158162 l 21.182793095960747 24.95327700366614 a53.73189204076012,53.73189204076012 0 0,0 -0.7083031805202188,0.5908917048655443 l -20.751315581278632 -25.313230892443553" fill="#7aff26" stroke="none" /><path d="M 113.31354834802062 116.24036423190432 l 2.1523142055323903 2.625473369354956 a24.394932525475078,24.394932525475078 0 0,0 -0.3261361197029867,0.26271217206813935 l -2.106927315474151 -2.6620338352165014" fill="#ff0701" stroke="none" /><path d="M 112.7482090630111 116.68781488649013 l 8.412202950970698 11.011843698163135 a34.85733957587441,34.85733957587441 0 0,0 -0.478619508629802,0.3591650021150598 l -8.22193045343013 -11.15462772754221" fill="#ff9d0e" stroke="none" /><path d="M 111.5731344415666 117.5232005979908 l 18.358924368885603 27.797751430577517 a54.31313687689342,54.31313687689342 0 0,0 -0.7824049648786622,0.5071454454857408 l -17.87903377174993 -28.108810717767152" fill="#73ff27" stroke="none" /><path d="M 111.27062007382361 117.71928675628689 l 2.2876472030867525 3.596561371353192 a25.262462131644174,25.262462131644174 0 0,0 -0.3679127197594396,0.22960474783699247 l -2.225570354537598 -3.6353019160317324" fill="#ff1402" stroke="none" /><path d="M 110.96478420261333 117.91015095944535 l 11.257701874784491 18.388609963319272 a42.56100247865602,42.56100247865602 0 0,0 -0.6263910340109726,0.3761298182473533 l -10.940378084216084 -18.57915378210255" fill="#fdff18" stroke="none" /><line stroke="#e1ed5e" stroke-width="0.3" x1="143.1302829299769" x2="145.6673583964461" y1="173.24464959558577" y2="177.55315839532614" /><path d="M 143.63769802327073 174.10635135553383 a86.0,86.0 0 0,1 -40.685524379131806,11.842963189579606" fill="none" id="id18" stroke="none" /><text fill="#e1ed5e" style="font-size:6.75px; font-family:Arial;" text-anchor="middle"><textPath startOffset="21.407464694133747" xlink:href="#id18">June</textPath></text><path d="M 110.65571695917076 118.09573695890943 l 4.641150198548211 7.881687689483685 a30.146653814376204,30.146653814376204 0 0,0 -0.4481910661739632,0.258763232703926 l -4.5051666645138475 -7.960197819463782" fill="#ff5c08" stroke="none" /><path d="M 110.34350942703117 118.27599006163325 l 15.246065120757578 26.93833621863431 a51.95345634811346,51.95345634811346 0 0,0 -0.7799347171010199,0.432616640226954 l -14.781386215500463 -27.196085774294406" fill="#8dff24" stroke="none" /><path d="M 109.71004243097381 118.62028667847754 l 13.706643481122624 26.28429616373909 a50.64348664279812,50.64348664279812 0 0,0 -0.7742973789768703,0.39536175879284197 l -13.253418880432172 -26.51571587420477" fill="#9cff22" stroke="none" /><path d="M 109.3889696526874 118.78422872680471 l 3.912286170343162 7.827193077294277 a29.750481960892316,29.750481960892316 0 0,0 -0.45878041250231755,0.2244124895345311 l -3.7773455085787755 -7.893199316926032" fill="#ff5607" stroke="none" /><path d="M 109.06512990194946 118.94263497670748 l 8.744317676006055 18.27226081132414 a41.25681630404847,41.25681630404847 0 0,0 -0.6414674358572323,0.3002391495708066 l -8.429361526277317 -18.41967619246548" fill="#fff116" stroke="none" /><path d="M 108.4095320186766 119.2426549942271 l 5.067489963333625 11.595408737914873 a33.654365188653266,33.654365188653266 0 0,0 -0.5313622411410799,0.22680694399117113 l -4.867692647022113 -11.680690331565446" fill="#ff8d0c" stroke="none" /><path d="M 108.07796709384702 119.3841803445677 l 11.88001770342691 28.507717719634122 a51.884053979619935,51.884053979619935 0 0,0 -0.82506896961183,0.3355483671790572 l -11.388894272624638 -28.707453343392473" fill="#8eff24" stroke="none" /><path d="M 107.74402155503746 119.51999308798841 l 14.042037432764163 35.395107268332595 a59.07876618011567,59.07876618011567 0 0,0 -0.9459009470197216,0.3658948065739233 l -13.432364223250913 -35.63094196304456" fill="#41ff2d" stroke="none" /><path d="M 107.407793817531 119.65005319985036 l 21.651118669387955 57.43216457819113 a82.37771963646378,82.37771963646378 0 0,0 -1.3275006660463853,0.4874766323724235 l -20.66202885168744 -57.79537205957227" fill="#4be1ff" stroke="none" /><path d="M 106.38641147887787 120.00534299687104 l 4.551923136143196 14.258834391600722 a35.96777747177086,35.96777747177086 0 0,0 -0.5898019565330124,0.1827221537952296 l -4.30648054673856 -14.334873133202596" fill="#ffac0f" stroke="none" /><path d="M 106.0420521117495 120.11202640906438 l 2.1016556918588876 6.995728271729088 a28.304599283943816,28.304599283943816 0 0,0 -0.4665406497946616,0.1358031837189412 l -1.981255029682619 -7.030775149750547" fill="#ff4106" stroke="none" /><path d="M 105.69591212413111 120.21278271476187 l 4.081730472869498 14.484621488243013 a36.048746901679976,36.048746901679976 0 0,0 -0.5970678402572419,0.16273349490486438 l -3.8324812316775603 -14.55255547729202" fill="#ffad10" stroke="none" /><path d="M 104.9986988182912 120.39639698878246 l 3.0789286442049786 12.56307955533241 a33.93486642798128,33.93486642798128 0 0,0 -0.5669834998433663,0.13380656214700468 l -2.8628129906217334 -12.61408226112564" fill="#ff900d" stroke="none" /><path d="M 104.64783097203107 120.47920084513623 l 4.6523111175563105 20.49894119296272 a42.02024235747728,42.02024235747728 0 0,0 -0.7048146962417142,0.15361108260244186 l -4.29973400469546 -20.57578373369888" fill="#fffb17" stroke="none" /><path d="M 104.29559338865022 120.5559693870025 l 0.7358466228973931 3.521292470040088 a24.597356100247865,24.597356100247865 0 0,0 -0.4140596108611492,0.082823518587951 l -0.6752905265052852 -3.5334053852909006" fill="#ff0a01" stroke="none" /><path d="M 103.94208987418118 120.62667999033965 l 4.457786015804985 23.325020115762765 a44.74717708620214,44.74717708620214 0 0,0 -0.7557271182912352,0.13771865554751847 l -4.056724163962694 -23.398106945241647" fill="#e2ff1b" stroke="none" /><path d="M 103.2317021107853 120.74984581791261 l 1.2638438439314605 8.114784098440076 a29.212613605067475,29.212613605067475 0 0,0 -0.49616218440528326,0.07291875482438583 l -1.1243565539184923 -8.135283926563345" fill="#ff4e07" stroke="none" /><path d="M 102.875027216393 120.80226474461374 l 1.467602023019666 10.618837153440253 a31.719774166896173,31.719774166896173 0 0,0 -0.5400248928229247,0.06991703405093233 l -1.2850993083059654 -10.64246578369158" fill="#ff720a" stroke="none" /><path d="M 102.15924093988457 120.88869738790638 l 3.0479728552405225 29.486372476374026 a50.64348664279812,50.64348664279812 0 0,0 -0.8655223556097806,0.08196586695644696 l -2.5413509362457267 -29.534350098835656" fill="#9cff22" stroke="none" /><path d="M 101.80034050326958 120.92268563240118 l 0.3626959730492145 4.215076987083852 a25.230652712751308,25.230652712751308 0 0,0 -0.43184185081052945,0.0334272904114785 l -0.290285127463449 -4.220682044490384" fill="#ff1402" stroke="none" /><path d="M 100.72087961077811 120.9876233191556 l 0.13510288491724162 3.933373084187658 a24.935692646653813,24.935692646653813 0 0,0 -0.42792817306086145,0.011021911772316316 l -0.06756139778563634 -3.9351127133100197" fill="#ff1001" stroke="none" /><line stroke="#e1ed5e" stroke-width="0.3" x1="101.45913802915013" x2="101.54496967792366" y1="184.9874750549273" y2="189.98673829345242" /><path d="M 101.47630435890484 185.9873277026323 a86.0,86.0 0 0,1 -42.54439059252881,-10.42667462771756" fill="none" id="id19" stroke="none" /><text fill="#e1ed5e" style="font-size:6.75px; font-family:Arial;" text-anchor="middle"><textPath startOffset="22.145653131862474" xlink:href="#id19">July</textPath></text><path d="M 100.36049292484886 120.99690560180557 l 0.27674856183315416 16.119216294418347 a37.121591847975765,37.121591847975765 0 0,0 -0.6372414866820044,0.005469951751853615 l -1.9743255853783585e-15 -16.121591847975765" fill="#ffbb11" stroke="none" /><path d="M 100.0 121.0 l 3.590970661118664e-15 29.32250068851556 a50.32250068851556,50.32250068851556 0 0,0 -0.8638526409005407,-0.007415135965237719 l 0.503359716051685 -29.318179950744756" fill="#a0ff22" stroke="none" /><path d="M 98.91894614982273 120.97215588758144 l -0.9199824833510755 17.84741440171486 a38.87110988708345,38.87110988708345 0 0,0 -0.6660946872260612,-0.0400706023244965 l 1.226221522709583 -17.828991821565673" fill="#ffd213" stroke="none" /><path d="M 98.55909050195518 120.95050786540614 l -1.633573106224595 23.751794444490322 a44.80790415863399,44.80790415863399 0 0,0 -0.7669214301786996,-0.05936456904594378 l 2.041063531178531 -23.720252108449323" fill="#e1ff1b" stroke="none" /><path d="M 98.19965949673042 120.92268563240118 l -0.8875267146385448 10.314405751032256 a31.352519966951252,31.352519966951252 0 0,0 -0.5358301478628015,-0.050743672103111856 l 1.0644564258863616 -10.29765032342396" fill="#ff6d0a" stroke="none" /><path d="M 97.84075906011543 120.88869738790638 l -0.9514694309598762 9.20460364104935 a30.253649132470393,30.253649132470393 0 0,0 -0.5161331585585841,-0.05783379696723642 l 1.1093384911192596 -9.186914083575143" fill="#ff5d08" stroke="none" /><path d="M 97.12497278360702 120.80226474461374 l -2.072537521043408 14.995849068858842 a36.13839162765078,36.13839162765078 0 0,0 -0.6137931913000212,-0.09020646199171942 l 2.329655817951115 -14.95806153356824" fill="#ffae10" stroke="none" /><path d="M 96.05791012581884 120.62667999033965 l -2.1083829621756633 11.031950575940403 a32.23161663453594,32.23161663453594 0 0,0 -0.542570940825108,-0.10852938375044698 l 2.29745038853173 -10.994131795527094" fill="#ff790b" stroke="none" /><path d="M 95.70440661134978 120.55596938700252 l -0.7506345373446871 3.5920579939556854 a24.66965023409529,24.66965023409529 0 0,0 -0.4137894276813752,-0.09018347984869804 l 0.8121863816451989 -3.5786430559732687" fill="#ff0c01" stroke="none" /><path d="M 95.35216902796893 120.47920084513623 l -2.0595869000269906 9.074919900805346 a30.305700908840542,30.305700908840542 0 0,0 -0.5063474289184764,-0.11949661451219169 l 2.215066482685355 -9.038227142646926" fill="#ff5e08" stroke="none" /><path d="M 95.00130118170881 120.39639698878247 l -7.075409687856667 28.87008601593155 a50.72445607270724,50.72445607270724 0 0,0 -0.8439455455155098,-0.2145276574466609 l 7.569960526597556 -28.744373126649627" fill="#9bff22" stroke="none" /><path d="M 94.30408787586889 120.21278271476187 l -2.55931716621314 9.082113742532082 a30.435830349765904,30.435830349765904 0 0,0 -0.5016694257344517,-0.14602865842275128 l 2.7148466043291988 -9.036841389806815" fill="#ff6008" stroke="none" /><path d="M 93.95794788825049 120.11202640906438 l -2.4036750965084446 8.00105264331961 a29.354310107408427,29.354310107408427 0 0,0 -0.4813538881465225,-0.1491246649923858 l 2.540669617526601 -7.958611390520575" fill="#ff5007" stroke="none" /><path d="M 93.61358852112213 120.00534299687104 l -2.8660582497470384 8.977886646488944 a30.424263288350318,30.424263288350318 0 0,0 -0.4961723047656417,-0.16310169181070383 l 3.0197532921604235 -8.927364033276218" fill="#ff5f08" stroke="none" /><path d="M 92.93061703081489 119.77432235084164 l -5.050393671734007 14.126849952653055 a36.00247865601763,36.00247865601763 0 0,0 -0.5801728259303526,-0.21304749791261934 l 5.292155649318478 -14.038071605731716" fill="#ffac10" stroke="none" /><path d="M 92.25597844496254 119.51999308798841 l -5.57181391146664 14.044610835133494 a36.109473974111815,36.109473974111815 0 0,0 -0.5742189401149772,-0.23352984399537174 l 5.812087312772057 -13.946893734558829" fill="#ffae10" stroke="none" /><path d="M 91.92203290615298 119.3841803445677 l -3.6986010172185817 8.875296012901073 a30.615119801707518,30.615119801707518 0 0,0 -0.4833761855095904,-0.20632455026933227 l 3.850412277898603 -8.810496812972337" fill="#ff6209" stroke="none" /><path d="M 91.59046798132341 119.24265499422711 l -3.8816787836138706 8.88204069686715 a30.69319746626274,30.69319746626274 0 0,0 -0.48098666236440224,-0.21513921617223902 l 4.033578848833908 -8.814097729785058" fill="#ff6309" stroke="none" /><path d="M 91.26138138417905 119.09545874513695 l -3.804945202867785 8.314491951545449 a30.143762049022307,30.143762049022307 0 0,0 -0.4686799293037165,-0.2193658719510921 l 3.947113846042991 -8.247949848023831" fill="#ff5b08" stroke="none" /><path d="M 90.93487009805054 118.94263497670748 l -3.9159064310679534 8.182738353336738 a30.071467915174885,30.071467915174885 0 0,0 -0.4637303178082815,-0.22683373626259948 l 4.055796998138304 -8.114310866976918" fill="#ff5a08" stroke="none" /><path d="M 90.6110303473126 118.78422872680471 l -1.4389869489728817 2.878937837088079 a24.218534838887358,24.218534838887358 0 0,0 -0.3702815365118091,-0.1890683909033319 l 1.4881957071982719 -2.853811494511911" fill="#ff0500" stroke="none" /><path d="M 89.97174638481275 118.45085714620012 l -14.07021152370461 25.88760444266496 a50.46419719085651,50.46419719085651 0 0,0 -0.757577688307336,-0.4202155732272277 l 14.512533400168047 -25.642255954004582" fill="#9eff22" stroke="none" /><line stroke="#e1ed5e" stroke-width="0.3" x1="58.13341422392154" x2="55.670673884152215" y1="173.97424548756322" y2="178.32567169271397" /><path d="M 57.64086615596767 174.84453072859336 a86.0,86.0 0 0,1 -31.369924170532244,-30.572349798747886" fill="none" id="id20" stroke="none" /><text fill="#e1ed5e" style="font-size:6.75px; font-family:Arial;" text-anchor="middle"><textPath startOffset="22.145653131862474" xlink:href="#id20">August</textPath></text><path d="M 89.65649057296885 118.27599006163327 l -4.472406995438972 7.902314623179351 a30.080143211236575,30.080143211236575 0 0,0 -0.44720225135170893,-0.2581923402001187 l 4.607401714651081 -7.8243753857030605" fill="#ff5b08" stroke="none" /><path d="M 89.34428304082925 118.09573695890944 l -4.721853094823944 8.018738850698234 a30.305700908840542,30.305700908840542 0 0,0 -0.4460237828804961,-0.26782446631555323 l 4.858809634261867 -7.936500383846759" fill="#ff5e08" stroke="none" /><path d="M 88.72937992617639 117.7192867562869 l -4.607886394819924 7.244362762243982 a29.585651335720186,29.585651335720186 0 0,0 -0.42619450514714047,-0.276254129100448 l 4.7315665322240745 -7.16419479143964" fill="#ff5407" stroke="none" /><path d="M 88.4268655584334 117.5232005979908 l -5.318032171785698 8.0521785176942 a30.649820985954282,30.649820985954282 0 0,0 -0.43654643933624854,-0.2937279268340089 l 5.455474899218952 -7.95970091680307" fill="#ff6309" stroke="none" /><path d="M 88.1277618465304 117.32195027204791 l -8.394924665115168 12.248445971766186 a35.84921509226108,35.84921509226108 0 0,0 -0.5046287599447576,-0.3522700658859564 l 8.603948516233691 -12.1025310900751" fill="#ffaa0f" stroke="none" /><path d="M 87.83215693770417 117.11559508785305 l -8.88376534237021 12.496128498457288 a36.33213990636188,36.33213990636188 0 0,0 -0.5052226088765729,-0.36574220717003664 l 9.096968961620735 -12.341785519914186" fill="#ffb110" stroke="none" /><path d="M 87.54013794807813 116.9041958592261 l -5.528184457627688 7.50004393533827 a30.317267970256125,30.317267970256125 0 0,0 -0.41628064779117335,-0.31238475876674027 l 5.6561180943296305 -7.404040149307515" fill="#ff5e08" stroke="none" /><path d="M 85.60350026404147 115.28858382429668 l -7.035689556997632 7.4716584952394545 a31.262875240980446,31.262875240980446 0 0,0 -0.38755174267558673,-0.37126580270811727 l 7.16291378553853 -7.349780562225755" fill="#ff6b09" stroke="none" /><path d="M 85.34317274990678 115.03919595460226 l -6.529170497666145 6.699504119132241 a30.35486091985679,30.35486091985679 0 0,0 -0.37005188851497645,-0.36688907086611644 l 6.643214306311086 -6.586435038037463" fill="#ff5e08" stroke="none" /><path d="M 84.83555147118756 114.52719865689866 l -5.915847243476402 5.667247837371786 a29.192371247590195,29.192371247590195 0 0,0 -0.3435582977736885,-0.3648470065905254 l 6.012261374986344 -5.564859370836773" fill="#ff4e07" stroke="none" /><path d="M 84.1078160697243 113.72728997021213 l -11.672942589381803 10.082809790844324 a36.42467639768659,36.42467639768659 0 0,0 -0.40467023933687896,-0.47670052440999505 l 11.844307392225794 -9.880942483984773" fill="#ffb210" stroke="none" /><path d="M 83.8745106332314 113.45245675266167 l -7.57200753796212 6.316837995948268 a30.86091985678876,30.86091985678876 0 0,0 -0.33587435211860944,-0.4097120971789705 l 7.67932870931936 -6.185923617070805" fill="#ff6609" stroke="none" /><path d="M 83.64595745247003 113.17365903436017 l -7.951821018359725 6.405424132515254 a31.2108234646103,31.2108234646103 0 0,0 -0.332519473159684,-0.42012749178309383 l 8.060606922160972 -6.2679766968174775" fill="#ff6b09" stroke="none" /><path d="M 83.4222238831116 112.89097897827486 l -7.889396069948545 6.134842102577514 a30.993941063068025,30.993941063068025 0 0,0 -0.3229982245547563,-0.42281504432448047 l 7.993546271857599 -5.998506145012166" fill="#ff6809" stroke="none" /><path d="M 83.20337586046588 112.60449989151573 l -6.890270354127252 5.170587328122465 a29.614568989259155,29.614568989259155 0 0,0 -0.30164269036656466,-0.4092362416383094 l 6.978015064077647 -5.051544777215275" fill="#ff5407" stroke="none" /><path d="M 82.98947788004972 112.3143062007846 l -7.584697139135088 5.490735813569341 a30.36353621591848,30.36353621591848 0 0,0 -0.302023060511624,-0.4248332579936943 l 7.677835298176673 -5.359725328866142" fill="#ff5f08" stroke="none" /><path d="M 82.78059297857968 112.02048342749411 l -12.579035286234477 8.781143566903916 a36.34081520242357,36.34081520242357 0 0,0 -0.35269671955960336,-0.5145950543066191 l 12.727921742609404 -8.563913777527246" fill="#ffb110" stroke="none" /><path d="M 82.576782715395 111.72311816256416 l -24.37379019475381 16.399773810725602 a50.377444230239604,50.377444230239604 0 0,0 -0.47660795229440645,-0.7216451858241831 l 24.651722585968944 -15.978948746562356" fill="#9fff22" stroke="none" /><path d="M 82.37810715431573 111.42229804090323 l -8.102382292996388 5.25186631211455 a30.655604516662077,30.655604516662077 0 0,0 -0.28244367268988446,-0.4440483661155844 l 8.191343657312164 -5.1120042713202904" fill="#ff6309" stroke="none" /><path d="M 82.18462484594161 111.1181117155819 l -6.719404096249779 4.193405121038118 a28.920545304323877,28.920545304323877 0 0,0 -0.2592272910329828,-0.4234282982151343 l 6.790399351738164 -4.077439706698426" fill="#ff4a06" stroke="none" /><path d="M 81.99639281039703 110.81064883170646 l -8.523327116201465 5.118013038199778 a30.94188928669788,30.94188928669788 0 0,0 -0.269527857561479,-0.45771722655727703 l 8.609928683892713 -4.970944643348944" fill="#ff6709" stroke="none" /><line stroke="#e1ed5e" stroke-width="0.3" x1="26.387840678322732" x2="22.057713659400548" y1="142.50000000000003" y2="145.00000000000006" /><path d="M 25.521815274538298 143.00000000000003 a86.0,86.0 0 0,1 -11.493303480769221,-40.785679425670985" fill="none" id="id21" stroke="none" /><text fill="#e1ed5e" style="font-size:6.75px; font-family:Arial;" text-anchor="middle"><textPath startOffset="21.40746469413373" xlink:href="#id21">September</textPath></text><path d="M 81.81346652052679 110.50000000000001 l -9.15086661167655 5.283255301569821 a31.566510603139633,31.566510603139633 0 0,0 -0.2669123364674517,-0.47160852349187404 l 9.240212313165381 -5.125390007978826" fill="#ff700a" stroke="none" /><path d="M 81.63589988554817 110.18625677009913 l -7.937883538868671 4.403010190214978 a30.077251445882677,30.077251445882677 0 0,0 -0.2465685098665597,-0.45365828656442203 l 8.01229739835056 -4.26609707017597" fill="#ff5b08" stroke="none" /><path d="M 80.9802524753101 108.90220220490707 l -9.041058724212276 4.231671992748448 a30.98237400165244,30.98237400165244 0 0,0 -0.22132559123422324,-0.4836363597565166 l 9.112368780301555 -4.075846650777243" fill="#ff6709" stroke="none" /><path d="M 80.68587082218212 108.24405325689762 l -8.561302922527643 3.654311131086949 a30.308592674194436,30.308592674194436 0 0,0 -0.20014373773245595,-0.4802721107884784 l 8.622772504796584 -3.5068065108571895" fill="#ff5e08" stroke="none" /><path d="M 80.41425534168474 107.57618678355246 l -27.002544136471005 10.445164152702734 a49.95235472321674,49.95235472321674 0 0,0 -0.3024955615242954,-0.8024054155778492 l 27.177870381809736 -9.980090456930741" fill="#a4ff21" stroke="none" /><path d="M 80.05021161711548 106.5578916946017 l -4.887176195696992 1.6065118871793453 a26.14445056458276,26.14445056458276 0 0,0 -0.13649306040454665,-0.42756256766677603 l 4.914033971878796 -1.5223802858211775" fill="#ff2103" stroke="none" /><path d="M 79.407916724674 104.11899336999214 l -8.101291919251773 1.6204852737630875 a29.261773616083723,29.261773616083723 0 0,0 -0.09429774833335916,-0.49340566571576566 l 8.12791595986729 -1.4811770430140072" fill="#ff4f07" stroke="none" /><path d="M 79.34024301695615 103.76489593502545 l -9.54752746283326 1.739877548601683 a30.704764527678325,30.704764527678325 0 0,0 -0.09004564415690663,-0.5193593467982852 l 9.575987924482401 -1.5757251688828053" fill="#ff6309" stroke="none" /><path d="M 79.22317932658666 103.0534771498775 l -15.18064038737692 2.2310313628821263 a36.34370696777747,36.34370696777747 0 0,0 -0.0854172013128737,-0.618036318168732 l 15.216702105245005 -1.9701067365133091" fill="#ffb110" stroke="none" /><path d="M 79.17382384314188 102.69636545807758 l -21.35672457176019 2.7650555723359624 a42.53497659047095,42.53497659047095 0 0,0 -0.08753680710639515,-0.7249303368402259 l 21.401043465126246 -2.3980315585723373" fill="#fdff18" stroke="none" /><path d="M 79.01933749520258 100.90099992219065 l -10.195642795294697 0.4378447707808868 a31.205039933902505,31.205039933902505 0 0,0 -0.01838914935513795,-0.5353800191529304 l 10.201656631646683 -0.26275848706383637" fill="#ff6a09" stroke="none" /><line stroke="#e1ed5e" stroke-width="0.3" x1="15.003131293944662" x2="10.003315487706104" y1="100.72959589197737" y2="100.7725132973878" /><path d="M 14.003168132696942 100.73817937305945 a86.0,86.0 0 0,1 10.791469493833604,-42.453326145846276" fill="none" id="id22" stroke="none" /><text fill="#e1ed5e" style="font-size:6.75px; font-family:Arial;" text-anchor="middle"><textPath startOffset="22.145653131862435" xlink:href="#id22">October</textPath></text><path d="M 79.00696218219943 99.45929381324524 l -15.555430528447378 -0.4006527115019788 a36.56058936931974,36.56058936931974 0 0,0 0.021545177953569205,-0.6272643482670884 l 15.546260663496959 0.6676233243332057" fill="#ffb410" stroke="none" /><path d="M 79.17382384314186 97.30363454192245 l -4.769200075579052 -0.6174684324955901 a25.809005783530708,25.809005783530708 0 0,0 0.06065790274645686,-0.43889036757290034 l 4.757897656277388 0.6992471082685575" fill="#ff1d02" stroke="none" /><path d="M 79.56144815229197 95.17655741523228 l -31.31078068104542 -7.389258985891051 a53.1708895621041,53.1708895621041 0 0,0 0.21727264526918547,-0.8865465371702769 l 31.179320509259934 7.925661347669445" fill="#80ff26" stroke="none" /><path d="M 79.64726062577567 94.8264132398404 l -6.44045649710376 -1.6371388563545517 a27.6452767832553,27.6452767832553 0 0,0 0.12086320070322544,-0.45893725945967767 l 6.4114038155958095 1.7474566201870139" fill="#ff3805" stroke="none" /><line stroke="#e1ed5e" stroke-width="0.3" x1="26.387840678322718" x2="22.05771365940052" y1="57.5" y2="55.0" /><path d="M 25.521815274538284 57.0 a86.0,86.0 0 0,1 29.574782752854787,-30.346332500585742" fill="none" id="id23" stroke="none" /><text fill="#e1ed5e" style="font-size:6.75px; font-family:Arial;" text-anchor="middle"><textPath startOffset="21.40746469413373" xlink:href="#id23">November</textPath></text><line stroke="#e1ed5e" stroke-width="0.3" x1="56.869717070023135" x2="54.33264160355391" y1="26.7553504044142" y2="22.446841604673864" /><path d="M 56.362301976729285 25.89364864446614 a86.0,86.0 0 0,1 42.16139366436587,-11.88097634709845" fill="none" id="id24" stroke="none" /><text fill="#e1ed5e" style="font-size:6.75px; font-family:Arial;" text-anchor="middle"><textPath startOffset="22.145653131862474" xlink:href="#id24">December</textPath></text><path d="M 95.00130118170881 79.60360301121753 l -6.965964202851393 -28.4235110887467 a50.264665381437624,50.264665381437624 0 0,0 0.8398216612080632,-0.1981956253292747 l 6.477010387903424 28.538902857722206" fill="#a1ff22" stroke="none" /></svg>