<?xml version="1.0" encoding="utf-8" ?>
<svg baseProfile="full" height="200mm" version="1.1" viewBox="0,0,200,200" width="200mm" xmlns="http://www.w3.org/2000/svg" xmlns:ev="http://www.w3.org/2001/xml-events" xmlns:xlink="http://www.w3.org/1999/xlink"><defs /><rect fill="#1a1a1a" height="200" width="200" x="0" y="0" /><text alignment-baseline="middle" fill="#e1ed5e" style="dominant-baseline: central; font-size:9.0px; font-family:Arial;" text-anchor="middle" x="100.0" y="100.0">2023</text><line stroke="#e1ed5e" stroke-width="0.3" x1="100.0" x2="100.0" y1="15.0" y2="10.0" /><path d="M 100.0 14.0 a86.0,86.0 0 0,1 42.46469731375804,11.215312516191453" fill="none" id="id73" stroke="none" /><text fill="#e1ed5e" style="font-size:6.75px; font-family:Arial;" text-anchor="middle"><textPath startOffset="22.20632615414155" xlink:href="#id73">January</textPath></text><path d="M 100.0 79.0 l 0.0 -38.62228042473123 a59.62228042473123,59.62228042473123 0 0,0 1.0262995477739492,0.008833684222021243 l -0.6648190685014207 38.61655811711777" fill="#50ff2b" stroke="none" /><path d="M 100.36148047927253 79.00311137660856 l 0.7103711253797089 -41.26248651348552 a62.26860090203383,62.26860090203383 0 0,0 1.0715339918893265,0.027674561677292077 l -1.4205317524639032 41.24414515966587" fill="#33ff2f" stroke="none" /><path d="M 100.72285384407766 79.0124445844662 l 0.35645803232859247 -10.34950947290629 a31.35564622119685,31.35564622119685 0 0,0 0.5392561471020026,0.023221504049650114 l -0.5345550118199267 10.341840242332445" fill="#ff2f04" stroke="none" /><path d="M 101.08401301168833 79.027996857942 l 0.8880141196959113 -17.180084286487375 a38.20301907130227,38.20301907130227 0 0,0 0.656433291896664,0.03959784880876868 l -1.1836094604321872 17.162253168298303" fill="#ff980e" stroke="none" /><path d="M 101.44485096284872 79.0497635885617 l 3.633719363956377 -52.68867287018461 a73.81382551223987,73.81382551223987 0 0,0 1.2668203273955982,0.09832963883673042 l -4.540129880714317 52.61831796915941" fill="#3fffbd" stroke="none" /><path d="M 101.80526077348638 79.07773832637324 l 0.6772224278143357 -7.848741330936185 a28.87790395325309,28.87790395325309 0 0,0 0.49487771500367095,0.04699460205454318 l -0.8122252699082508 7.835921184366463" fill="#ff0701" stroke="none" /><path d="M 102.16513564639614 79.11191278185805 l 6.4954069391883955 -62.66426165442583 a84.0,84.0 0 0,0 1.436933185961099,0.1614561861175967 l -7.57310682865922 62.54316951483763" fill="#4dd2ff" stroke="none" /><path d="M 102.52436894288641 79.15227682838746 l 0.9639580197559632 -7.960932177350292 a29.019080757557134,29.019080757557134 0 0,0 0.49537681161074326,0.06431412755676397 l -1.1008495598745525 7.943159726629391" fill="#ff0a01" stroke="none" /><path d="M 102.88285421437855 79.19881850522331 l 6.469065325162385 -46.67742172292832 a68.12356634298087,68.12356634298087 0 0,0 1.1601476422893502,0.17097560499529812 l -7.2715819478803905 46.55915163377205" fill="#37ff78" stroke="none" /><path d="M 103.2404852339499 79.25152402106235 l 3.792765813198843 -24.284668710855378 a45.57906033414964,45.57906033414964 0 0,0 0.7741295063250122,0.12773800154119172 l -4.21022452566273 24.215784446374563" fill="#feff18" stroke="none" /><path d="M 103.59715602781102 79.31037775812273 l 2.832478496440661 -16.29145626336907 a37.53585442648991,37.53585442648991 0 0,0 0.6356158556014804,0.11615473485686655 l -3.1124894731450423 16.240286047161465" fill="#ff8e0d" stroke="none" /><path d="M 103.95276090670814 79.375362276772 l 3.614858358911225 -18.861536488787102 a40.20481084709864,40.20481084709864 0 0,0 0.6785683554872494,0.1361144284710884 l -3.9389931238656 18.796518104238807" fill="#ffb510" stroke="none" /><path d="M 104.307194497241 79.44645832069477 l 5.312814717578588 -25.352270207933387 a46.90296517619916,46.90296517619916 0 0,0 0.7887677814642114,0.17239408623247687 l -5.748425223196327 25.25706262360504" fill="#ecff1a" stroke="none" /><path d="M 104.66035177308747 79.52364482259891 l 1.7085518241488562 -7.506925591389653 a28.698901296319058,28.698901296319058 0 0,0 0.4807425564878844,0.11377623095163264 l -1.8375180675992642 7.476403448297151" fill="#ff0400" stroke="none" /><path d="M 105.01212808612495 79.60689891045804 l 1.9462095111893174 -7.918641866512416 a29.154300734675353,29.154300734675353 0 0,0 0.48630916209335334,0.12397103354277542 l -2.0822275619676955 7.883967836800773" fill="#ff0c01" stroke="none" /><path d="M 105.36241919743992 79.69619591428918 l 4.302038207418465 -16.28886845966235 a37.84739648830855,37.84739648830855 0 0,0 0.6284508115647763,0.17177934666759404 l -4.581786908206952 16.21240257216846" fill="#ff920d" stroke="none" /><path d="M 105.71112130821622 79.79150937346287 l 4.232999240448811 -14.978236471651218 a36.56489159520049,36.56489159520049 0 0,0 0.6042083367341434,0.17638498197620303 l -4.490197794906381 14.903153160756311" fill="#ff7f0b" stroke="none" /><path d="M 106.0581310904928 79.89281104454417 l 2.2966091364177026 -7.622541205033691 a28.961001692495344,28.961001692495344 0 0,0 0.47608387643804945,0.147921577866864 l -2.4274783855664706 7.5818794922843065" fill="#ff0901" stroke="none" /><path d="M 106.40334571778207 80.00007090966166 l 2.3877908531300687 -7.457921194625271 a28.83084501848507,28.83084501848507 0 0,0 0.47133925448155006,0.15539314162387988 l -2.515812929854036 7.415714328742155" fill="#ff0701" stroke="none" /><path d="M 106.74666289553966 80.11325718540242 l 3.059700070173919 -9.018898576595893 a30.523775304696436,30.523775304696436 0 0,0 0.4961101816867584,0.17308310101173782 l -3.214492255923951 8.964894622411947" fill="#ff2203" stroke="none" /><path d="M 107.08798089147638 80.2323363322302 l 2.5077784530985396 -6.993941119923958 a28.429950548879077,28.429950548879077 0 0,0 0.45923531921863925,0.1691402437145113 l -2.6277960980897554 6.949737608403122" fill="#ff0000" stroke="none" /><path d="M 107.4271985657038 80.35727306442388 l 2.830995756280051 -7.487140151761159 a29.004486530951862,29.004486530951862 0 0,0 0.46547620245100874,0.18059753494430092 l -2.959455123730727 7.437299912926312" fill="#ff0901" stroke="none" /><path d="M 107.76421540070413 80.48803036053334 l 6.1618333359433155 -15.485081076379712 a37.666011100500185,37.666011100500185 0 0,0 0.600353403980965,0.24489922746008383 l -6.4274706095126675 15.37672096273605" fill="#ff900d" stroke="none" /><path d="M 108.09893153111575 80.62456947434976 l 5.508079038304229 -13.177220022966598 a35.28208886073316,35.28208886073316 0 0,0 0.5583243422622391,0.2390453455982797 l -5.734087138356783 13.080455149405527" fill="#ff6c09" stroke="none" /><path d="M 108.43124777332544 80.76684994638697 l 3.1915829521759793 -7.280558640674707 a28.949385879482985,28.949385879482985 0 0,0 0.45466786297422784,0.20399621686644234 l -3.316432933616987 7.224542093291734" fill="#ff0801" stroke="none" /><path d="M 108.76106565485865 80.91482961587045 l 3.288474993936814 -7.163638310189799 a28.88237157364246,28.88237157364246 0 0,0 0.45004482324937767,0.2113020789578307 l -3.4112980284857897 7.105971248591966" fill="#ff0701" stroke="none" /><path d="M 109.08828744355905 81.06846463323043 l 3.48425456293215 -7.257944788236892 a29.050949783001293,29.050949783001293 0 0,0 0.4489460916771896,0.22029589743452754 l -3.6086719216197714 7.196893730667533" fill="#ff0a01" stroke="none" /><path d="M 109.41281617654863 81.2277094730956 l 5.650840335108642 -11.269657720087874 a33.60702905607927,33.60702905607927 0 0,0 0.5148909115282604,0.26374712335627826 l -5.843991734225657 11.170718071419095" fill="#ff5207" stroke="none" /><path d="M 109.73455568895987 81.39251694778311 l 4.916060614264151 -9.39698918845728 a31.6052372802829,31.6052372802829 0 0,0 0.47988030773649,0.2563354410853343 l -5.077085968528952 9.310975020870192" fill="#ff3304" stroke="none" /><path d="M 110.05341064243156 81.56283822128135 l 3.8358684170350177 -7.0346799789774455 a29.012528247652725,29.012528247652725 0 0,0 0.4363980375500294,0.24285503541846115 l -3.9563905436570823 6.967609545998804" fill="#ff0901" stroke="none" /><path d="M 110.36928655335952 81.73862282372117 l 3.9846273656176128 -7.017337485662466 a29.069713788636644,29.069713788636644 0 0,0 0.43300483139920204,0.2508243468743863 l -4.104828929482143 6.94770898139803" fill="#ff0a01" stroke="none" /><line stroke="#e1ed5e" stroke-width="0.3" x1="143.23703022742887" x2="145.7803849466894" y1="26.81831364943548" y2="22.513508569990506" /><path d="M 143.74570117128098 25.957352633546492 a86.0,86.0 0 0,1 28.547481713284135,27.462654790039103" fill="none" id="id74" stroke="none" /><text fill="#e1ed5e" style="font-size:6.75px; font-family:Arial;" text-anchor="middle"><textPath startOffset="19.985693538727396" xlink:href="#id74">February</textPath></text><path d="M 110.68208982089419 81.91981866633111 l 4.063165537011205 -6.877190786599017 a28.987807414831554,28.987807414831554 0 0,0 0.42741546632426136,0.2575130360760733 l -4.180943069553104 6.806231141064329" fill="#ff0901" stroke="none" /><path d="M 110.99172775467656 82.1063720568725 l 4.228958672872481 -6.8843965906130755 a29.079542553493255,29.079542553493255 0 0,0 0.4242578521983859,0.2656702281251391 l -4.34683567744313 6.810582021164992" fill="#ff0b01" stroke="none" /><line stroke="#e1ed5e" stroke-width="0.3" x1="172.23445277983987" x2="176.4835382374775" y1="55.19839476539836" y2="52.563006222186495" /><path d="M 173.08426987136738 54.67131705675599 a86.0,86.0 0 0,1 12.851231095245387,41.99856678651699" fill="none" id="id75" stroke="none" /><text fill="#e1ed5e" style="font-size:6.75px; font-family:Arial;" text-anchor="middle"><textPath startOffset="22.20632615414155" xlink:href="#id75">March</textPath></text><line stroke="#e1ed5e" stroke-width="0.3" x1="184.98032266829074" x2="189.97916517819016" y1="98.17113171792111" y2="98.06355123074" /><path d="M 185.9800911702706 98.14961562048488 a86.0,86.0 0 0,1 -9.607161424134198,41.387399972396054" fill="none" id="id76" stroke="none" /><text fill="#e1ed5e" style="font-size:6.75px; font-family:Arial;" text-anchor="middle"><textPath startOffset="21.466115282336823" xlink:href="#id76">April</textPath></text><line stroke="#e1ed5e" stroke-width="0.3" x1="174.80103733775053" x2="179.2010983576182" y1="140.37084112569926" y2="142.7455964860345" /><path d="M 175.68104954172406 140.8457921977663 a86.0,86.0 0 0,1 -30.038265399797805,32.042727171017184" fill="none" id="id77" stroke="none" /><text fill="#e1ed5e" style="font-size:6.75px; font-family:Arial;" text-anchor="middle"><textPath startOffset="22.206326154141568" xlink:href="#id77">May</textPath></text><line stroke="#e1ed5e" stroke-width="0.3" x1="143.8653032363475" x2="146.44561519142675" y1="172.8068346515853" y2="177.08958963109032" /><path d="M 144.38136562736335 173.6633856474863 a86.0,86.0 0 0,1 -40.68145358897372,12.25698825130547" fill="none" id="id78" stroke="none" /><text fill="#e1ed5e" style="font-size:6.75px; font-family:Arial;" text-anchor="middle"><textPath startOffset="21.466115282336833" xlink:href="#id78">June</textPath></text><line stroke="#e1ed5e" stroke-width="0.3" x1="102.19456741930631" x2="102.32365962044197" y1="184.97166512339345" y2="189.96999836594603" /><path d="M 102.22038585953345 185.97133177190398 a86.0,86.0 0 0,1 -42.740103519485714,-10.115201625700543" fill="none" id="id79" stroke="none" /><text fill="#e1ed5e" style="font-size:6.75px; font-family:Arial;" text-anchor="middle"><textPath startOffset="22.20632615414155" xlink:href="#id79">July</textPath></text><line stroke="#e1ed5e" stroke-width="0.3" x1="58.666819895761336" x2="56.23545636021788" y1="174.27360380694188" y2="178.64263932499728" /><path d="M 58.180547188652646 175.14741091055294 a86.0,86.0 0 0,1 -31.652253787137756,-30.449443065178592" fill="none" id="id80" stroke="none" /><text fill="#e1ed5e" style="font-size:6.75px; font-family:Arial;" text-anchor="middle"><textPath startOffset="22.20632615414155" xlink:href="#id80">August</textPath></text><line stroke="#e1ed5e" stroke-width="0.3" x1="26.63291911575756" x2="22.317208475507996" y1="142.92168965132927" y2="145.44649492493687" /><path d="M 25.769776987707644 143.4266507060508 a86.0,86.0 0 0,1 -11.730757126820373,-40.83630448921669" fill="none" id="id81" stroke="none" /><text fill="#e1ed5e" style="font-size:6.75px; font-family:Arial;" text-anchor="middle"><textPath startOffset="21.46611528233685" xlink:href="#id81">September</textPath></text><line stroke="#e1ed5e" stroke-width="0.3" x1="15.007084014347285" x2="10.007500721073583" y1="101.09737516637583" y2="101.16192664675087" /><path d="M 14.007167355692545 101.11028546245083 a86.0,86.0 0 0,1 10.666146001902534,-42.60595125391555" fill="none" id="id82" stroke="none" /><text fill="#e1ed5e" style="font-size:6.75px; font-family:Arial;" text-anchor="middle"><textPath startOffset="22.20632615414155" xlink:href="#id82">October</textPath></text><line stroke="#e1ed5e" stroke-width="0.3" x1="26.266209847984243" x2="21.928928074336255" y1="57.711370442889674" y2="55.22380399835377" /><path d="M 25.398753493254645 57.213857153982495 a86.0,86.0 0 0,1 29.58750427330803,-30.492523968695096" fill="none" id="id83" stroke="none" /><text fill="#e1ed5e" style="font-size:6.75px; font-family:Arial;" text-anchor="middle"><textPath startOffset="21.46611528233685" xlink:href="#id83">November</textPath></text><line stroke="#e1ed5e" stroke-width="0.3" x1="56.762969772571076" x2="54.21961505331055" y1="26.818313649435495" y2="22.513508569990535" /><path d="M 56.25429882871897 25.957352633546506 a86.0,86.0 0 0,1 42.265352541879196,-11.944610805530505" fill="none" id="id84" stroke="none" /><text fill="#e1ed5e" style="font-size:6.75px; font-family:Arial;" text-anchor="middle"><textPath startOffset="22.20632615414155" xlink:href="#id84">December</textPath></text></svg>