<?xml version="1.0" encoding="utf-8" ?>
<svg baseProfile="full" height="200mm" version="1.1" viewBox="0,0,200,200" width="200mm" xmlns="http://www.w3.org/2000/svg" xmlns:ev="http://www.w3.org/2001/xml-events" xmlns:xlink="http://www.w3.org/1999/xlink"><defs /><rect fill="#1a1a1a" height="200" width="200" x="0" y="0" /><text alignment-baseline="middle" fill="#e1ed5e" style="dominant-baseline: central; font-size:9.0px; font-family:Arial;" text-anchor="middle" x="100.0" y="100.0">2012</text><line stroke="#e1ed5e" stroke-width="0.3" x1="100.0" x2="100.0" y1="15.0" y2="10.0" /><path d="M 100.0 14.0 a86.0,86.0 0 0,1 42.35913384403234,11.155469271406648" fill="none" id="id37" stroke="none" /><text fill="#e1ed5e" style="font-size:6.75px; font-family:Arial;" text-anchor="middle"><textPath startOffset="22.145653131862478" xlink:href="#id37">January</textPath></text><path d="M 100.0 79.0 l 0.0 -57.79603917135012 a78.79603917135012,78.79603917135012 0 0,0 1.352638791780235,0.011610777206688015 l -0.9921458669313802 57.78752279233786" fill="#46fff8" stroke="none" /><path d="M 101.44090949804482 79.04949213459386 l 0.5731079221081629 -8.332863407553301 a29.35254842903194,29.35254842903194 0 0,0 0.5023912375121711,0.03888825912769041 l -0.7160681543955674 8.321797381430557" fill="#ff3104" stroke="none" /><line stroke="#e1ed5e" stroke-width="0.3" x1="143.13028292997686" x2="145.6673583964461" y1="26.7553504044142" y2="22.446841604673864" /><path d="M 143.63769802327073 25.89364864446614 a86.0,86.0 0 0,1 29.32050498858742,28.57503671076993" fill="none" id="id38" stroke="none" /><text fill="#e1ed5e" style="font-size:6.75px; font-family:Arial;" text-anchor="middle"><textPath startOffset="20.669276256404974" xlink:href="#id38">February</textPath></text><line stroke="#e1ed5e" stroke-width="0.3" x1="172.87174338648825" x2="177.1583165268699" y1="56.24261187166439" y2="53.66864786411523" /><path d="M 173.72905801456457 55.72781907015455 a86.0,86.0 0 0,1 12.242430191666344,42.057860355516425" fill="none" id="id39" stroke="none" /><text fill="#e1ed5e" style="font-size:6.75px; font-family:Arial;" text-anchor="middle"><textPath startOffset="22.145653131862474" xlink:href="#id39">March</textPath></text><line stroke="#e1ed5e" stroke-width="0.3" x1="184.99686870605535" x2="189.99668451229388" y1="99.2704041080226" y2="99.22748670261217" /><path d="M 185.99683186730306 99.26182062694052 a86.0,86.0 0 0,1 -10.086455211305974,41.156179273409016" fill="none" id="id40" stroke="none" /><text fill="#e1ed5e" style="font-size:6.75px; font-family:Arial;" text-anchor="middle"><textPath startOffset="21.40746469413373" xlink:href="#id40">April</textPath></text><line stroke="#e1ed5e" stroke-width="0.3" x1="174.33088141563837" x2="178.70328620479359" y1="141.23008692659167" y2="143.65538615756765" /><path d="M 175.20536237346943 141.71514677278685 a86.0,86.0 0 0,1 -30.301960400862466,31.631185727798858" fill="none" id="id41" stroke="none" /><text fill="#e1ed5e" style="font-size:6.75px; font-family:Arial;" text-anchor="middle"><textPath startOffset="22.145653131862474" xlink:href="#id41">May</textPath></text><line stroke="#e1ed5e" stroke-width="0.3" x1="143.1302829299769" x2="145.66735839644613" y1="173.24464959558577" y2="177.55315839532614" /><path d="M 143.63769802327073 174.10635135553383 a86.0,86.0 0 0,1 -40.68552437913181,11.842963189579606" fill="none" id="id42" stroke="none" /><text fill="#e1ed5e" style="font-size:6.75px; font-family:Arial;" text-anchor="middle"><textPath startOffset="21.407464694133747" xlink:href="#id42">June</textPath></text><line stroke="#e1ed5e" stroke-width="0.3" x1="101.45913802915013" x2="101.54496967792366" y1="184.9874750549273" y2="189.98673829345242" /><path d="M 101.47630435890484 185.9873277026323 a86.0,86.0 0 0,1 -42.54439059252881,-10.42667462771756" fill="none" id="id43" stroke="none" /><text fill="#e1ed5e" style="font-size:6.75px; font-family:Arial;" text-anchor="middle"><textPath startOffset="22.145653131862474" xlink:href="#id43">July</textPath></text><path d="M 99.63950707515114 120.99690560180557 l -0.2749547579963272 16.014736213857205 a37.017096369766094,37.017096369766094 0 0,0 -0.6352604134963762,-0.01636205482784295 l 0.5498284855634472 -16.007656441679313" fill="#ffa10e" stroke="none" /><path d="M 98.55909050195518 120.95050786540614 l -2.9483509586413645 42.868375864555674 a63.969645363211235,63.969645363211235 0 0,0 -1.0948892350843176,-0.08475135135900233 l 3.683809188500918 -42.81144674620162" fill="#32ff4c" stroke="none" /><path d="M 96.05791012581884 120.62667999033965 l -2.796148111386407 14.630628458500077 a35.8954265917926,35.8954265917926 0 0,0 -0.6042456882649613,-0.12086606054045812 l 3.0468902851823265 -14.580473001296758" fill="#ff910d" stroke="none" /><path d="M 95.00130118170881 120.39639698878247 l -2.1727656804447575 8.86562543432113 a30.127991292929693,30.127991292929693 0 0,0 -0.5012647944524531,-0.12741955056908405 l 2.3246357681225893 -8.827020651916783" fill="#ff3d05" stroke="none" /><path d="M 93.27111125876986 119.89276391827306 l -20.18666622369039 59.67829175481917 a84.0,84.0 0 0,0 -1.3619769118199128,-0.4737662697256382 l 21.208148907555326 -59.32296705252494" fill="#4dd2ff" stroke="none" /><path d="M 91.26138138417905 119.09545874513695 l -6.180373145279516 13.505230702204088 a35.85221426369308,35.85221426369308 0 0,0 -0.5574358376092068,-0.260908118586595 l 6.411297696760212 -13.397146352046967" fill="#ff910d" stroke="none" /><path d="M 90.6110303473126 118.78422872680471 l -16.648368751905654 33.30788980391182 a58.23685949820368,58.23685949820368 0 0,0 -0.890393822750667,-0.4546414302036549 l 17.217689796369903 -33.01719042203533" fill="#54ff2b" stroke="none" /><line stroke="#e1ed5e" stroke-width="0.3" x1="58.13341422392154" x2="55.67067388415222" y1="173.97424548756322" y2="178.32567169271397" /><path d="M 57.64086615596768 174.84453072859336 a86.0,86.0 0 0,1 -31.369924170532247,-30.572349798747897" fill="none" id="id44" stroke="none" /><text fill="#e1ed5e" style="font-size:6.75px; font-family:Arial;" text-anchor="middle"><textPath startOffset="22.145653131862474" xlink:href="#id44">August</textPath></text><line stroke="#e1ed5e" stroke-width="0.3" x1="26.387840678322732" x2="22.057713659400548" y1="142.50000000000003" y2="145.00000000000006" /><path d="M 25.521815274538298 143.00000000000003 a86.0,86.0 0 0,1 -11.493303480769221,-40.785679425670985" fill="none" id="id45" stroke="none" /><text fill="#e1ed5e" style="font-size:6.75px; font-family:Arial;" text-anchor="middle"><textPath startOffset="21.40746469413373" xlink:href="#id45">September</textPath></text><path d="M 80.05021161711548 106.5578916946017 l -23.97440217413948 7.880862186774611 a46.23648050767614,46.23648050767614 0 0,0 -0.24138808009135668,-0.7561447228314452 l 24.10615497000809 -7.468148430251774" fill="#e2ff1b" stroke="none" /><path d="M 79.73907114497094 105.5222062557868 l -39.104728204744376 10.658167563205348 a61.53117693544431,61.53117693544431 0 0,0 -0.26900996672090494,-1.0214746604086873 l 39.281927652270014 -9.985312398423858" fill="#31ff2f" stroke="none" /><line stroke="#e1ed5e" stroke-width="0.3" x1="15.003131293944662" x2="10.003315487706104" y1="100.72959589197737" y2="100.7725132973878" /><path d="M 14.003168132696942 100.73817937305945 a86.0,86.0 0 0,1 10.791469493833604,-42.45332614584628" fill="none" id="id46" stroke="none" /><text fill="#e1ed5e" style="font-size:6.75px; font-family:Arial;" text-anchor="middle"><textPath startOffset="22.145653131862435" xlink:href="#id46">October</textPath></text><path d="M 79.22317932658666 96.9465228501225 l -9.972963801089689 -1.46568224089022 a31.08009084329632,31.08009084329632 0 0,0 0.0821084316282464,-0.5271950316679179 l 9.946333877323175 1.6366654544895878" fill="#ff4b07" stroke="none" /><path d="M 79.407916724674 95.88100663000787 l -7.871185980921914 -1.5744576416044578 a29.027109418182135,29.027109418182135 0 0,0 0.10192978555468252,-0.48777092287689694 l 7.842998484542864 1.709345015766764" fill="#ff2c04" stroke="none" /><path d="M 79.48165901384962 95.52812308129327 l -36.220471649664645 -7.89408321384934 a58.07073126216069,58.07073126216069 0 0,0 0.22063874362496952,-0.9721750149919229 l 36.079622044482015 8.51469256278027" fill="#56ff2a" stroke="none" /><path d="M 79.56144815229197 95.17655741523228 l -7.049606326884535 -1.6636878980619119 a28.243259403487365,28.243259403487365 0 0,0 0.11541066422167005,-0.4709148940101481 l 7.020008136146568 1.7844586166801777" fill="#ff2003" stroke="none" /><path d="M 81.1358732173502 90.77261029715801 l -38.74621073196298 -18.952713266383153 a64.13321442048365,64.13321442048365 0 0,0 0.49223795553825656,-0.9848056482106803 l 38.41515286321298 19.615050770757605" fill="#33ff4e" stroke="none" /><line stroke="#e1ed5e" stroke-width="0.3" x1="26.387840678322718" x2="22.05771365940052" y1="57.49999999999999" y2="54.99999999999999" /><path d="M 25.521815274538284 56.99999999999999 a86.0,86.0 0 0,1 29.574782752854787,-30.34633250058573" fill="none" id="id47" stroke="none" /><text fill="#e1ed5e" style="font-size:6.75px; font-family:Arial;" text-anchor="middle"><textPath startOffset="21.40746469413373" xlink:href="#id47">November</textPath></text><path d="M 82.37810715431573 88.57770195909679 l -5.512533638986613 -3.5731577042491574 a27.569283301882642,27.569283301882642 0 0,0 0.26082584897880523,-0.3949235789036776 l 5.450383351087079 3.6672611614918957" fill="#ff1602" stroke="none" /><path d="M 82.576782715395 88.27688183743585 l -4.293591494525662 -2.888919974417106 a26.175015607749337,26.175015607749337 0 0,0 0.2540350866608892,-0.37064478336877893 l 4.2433666710494595 2.9621994928559197" fill="#ff0000" stroke="none" /><path d="M 87.54013794807813 83.09580414077388 l -9.480153653523333 -12.861649147230965 a36.977963952922124,36.977963952922124 0 0,0 0.5142032224742932,-0.3722434788496102 l 9.257969420675073 13.022493397453655" fill="#ffa10e" stroke="none" /><line stroke="#e1ed5e" stroke-width="0.3" x1="56.869717070023135" x2="54.33264160355391" y1="26.7553504044142" y2="22.446841604673864" /><path d="M 56.362301976729285 25.89364864446614 a86.0,86.0 0 0,1 42.16139366436587,-11.88097634709845" fill="none" id="id48" stroke="none" /><text fill="#e1ed5e" style="font-size:6.75px; font-family:Arial;" text-anchor="middle"><textPath startOffset="22.145653131862474" xlink:href="#id48">December</textPath></text><path d="M 89.65649057296885 81.72400993836675 l -16.807770123063207 -29.697719318025268 a55.124121515460985,55.124121515460985 0 0,0 0.8275333181208716,-0.4590187818436976 l 16.295492616786234 29.981871015302108" fill="#77ff27" stroke="none" /><path d="M 96.41257539226777 79.30868818359171 l -2.2808960600580517 -13.155602349874108 a34.35186728606907,34.35186728606907 0 0,0 0.581892000275712,-0.0957501072094937 l 2.0547265567292667 13.192818455579271" fill="#ff7b0b" stroke="none" /><path d="M 96.76829788921471 79.25015418208739 l -1.4995852853130816 -9.628413261609612 a30.744490646733023,30.744490646733023 0 0,0 0.5221803787890009,-0.07674253341305819 l 1.3340798009163957 9.652736868321556" fill="#ff4606" stroke="none" /><path d="M 98.5590905019552 79.04949213459386 l -0.6742974177416313 -9.80413646602236 a30.827297128507027,30.827297128507027 0 0,0 0.5282560466753962,-0.031778571992507845 l 0.5058970189337515 9.814267015839562" fill="#ff4706" stroke="none" /><path d="M 99.27912038922189 79.0123766808444 l -0.41071525993305275 -11.957526663293589 a32.96457817593746,32.96457817593746 0 0,0 0.5657140515181897,-0.014570787241218389 l 0.20538789434411914 11.962815167884852" fill="#ff6709" stroke="none" /><path d="M 99.63950707515114 79.00309439819443 l -0.17331892085533895 -10.094958234567686 a31.096445969052297,31.096445969052297 0 0,0 0.5338118457041886,-0.00458213267904658 l 2.4729160477528184e-15 10.096445969052297" fill="#ff4b07" stroke="none" /></svg>