<?xml version="1.0" encoding="utf-8" ?>
<svg baseProfile="full" height="200mm" version="1.1" viewBox="0,0,200,200" width="200mm" xmlns="http://www.w3.org/2000/svg" xmlns:ev="http://www.w3.org/2001/xml-events" xmlns:xlink="http://www.w3.org/1999/xlink"><defs /><rect fill="#1a1a1a" height="200" width="200" x="0" y="0" /><text alignment-baseline="middle" fill="#e1ed5e" style="dominant-baseline: central; font-size:9.0px; font-family:Arial;" text-anchor="middle" x="100.0" y="100.0">2020</text><line stroke="#e1ed5e" stroke-width="0.3" x1="100.0" x2="100.0" y1="15.0" y2="10.0" /><path d="M 100.0 14.0 a86.0,86.0 0 0,1 42.35913384403234,11.155469271406648" fill="none" id="id13" stroke="none" /><text fill="#e1ed5e" style="font-size:6.75px; font-family:Arial;" text-anchor="middle"><textPath startOffset="22.145653131862478" xlink:href="#id13">January</textPath></text><path d="M 103.58742460773223 79.30868818359171 l 6.61276102814563 -38.140648337484706 a59.709658536585366,59.709658536585366 0 0,0 1.0084258073549357,0.18376877453114834 l -7.266521569051619 38.02151138902219" fill="#4bff2c" stroke="none" /><line stroke="#e1ed5e" stroke-width="0.3" x1="143.13028292997686" x2="145.6673583964461" y1="26.7553504044142" y2="22.446841604673864" /><path d="M 143.63769802327073 25.89364864446614 a86.0,86.0 0 0,1 29.32050498858742,28.57503671076993" fill="none" id="id14" stroke="none" /><text fill="#e1ed5e" style="font-size:6.75px; font-family:Arial;" text-anchor="middle"><textPath startOffset="20.669276256404974" xlink:href="#id14">February</textPath></text><path d="M 112.45986205192187 83.09580414077388 l 7.330045675423304 -9.944614734744727 a33.35414634146341,33.35414634146341 0 0,0 0.4579794478568511,0.34367631572115487 l -7.499678112190922 9.817319391759556" fill="#ff5908" stroke="none" /><path d="M 114.91283532996326 85.21462403516908 l 6.953018540672622 -6.893591388870924 a30.791121951219512,30.791121951219512 0 0,0 0.36892631858579994,0.3785509035037991 l -7.070331660409234 6.773217793299384" fill="#ff3104" stroke="none" /><path d="M 115.16444852881244 85.47280134310134 l 9.804370770774641 -9.392365414562677 a34.57726829268293,34.57726829268293 0 0,0 0.40693191161298936,0.4321475883430948 l -9.96415851612389 9.222676366275085" fill="#ff6b09" stroke="none" /><path d="M 116.57777611688842 87.10902102172516 l 10.917072076975295 -8.48918127837612 a34.829268292682926,34.829268292682926 0 0,0 0.3629674521928571,0.47513604633219575 l -11.061191506522459 8.300524318803044" fill="#ff6f0a" stroke="none" /><line stroke="#e1ed5e" stroke-width="0.3" x1="172.87174338648825" x2="177.1583165268699" y1="56.24261187166439" y2="53.66864786411523" /><path d="M 173.72905801456457 55.72781907015455 a86.0,86.0 0 0,1 12.242430191666344,42.057860355516425" fill="none" id="id15" stroke="none" /><text fill="#e1ed5e" style="font-size:6.75px; font-family:Arial;" text-anchor="middle"><textPath startOffset="22.145653131862474" xlink:href="#id15">March</textPath></text><path d="M 118.70294669586156 90.45014215332178 l 11.221768017516931 -5.729914708006934 a33.6,33.6 0 0,0 0.2578881388612208,0.5159490301379993 l -11.318476069589888 5.536433821705184" fill="#ff5d08" stroke="none" /><line stroke="#e1ed5e" stroke-width="0.3" x1="184.99686870605535" x2="189.99668451229388" y1="99.2704041080226" y2="99.22748670261217" /><path d="M 185.99683186730306 99.26182062694052 a86.0,86.0 0 0,1 -10.086455211305974,41.156179273409016" fill="none" id="id16" stroke="none" /><text fill="#e1ed5e" style="font-size:6.75px; font-family:Arial;" text-anchor="middle"><textPath startOffset="21.40746469413373" xlink:href="#id16">April</textPath></text><path d="M 120.99922638620191 100.18025310272382 l 6.674680933292276 0.05729410816333892 a27.674926829268294,27.674926829268294 0 0,0 -0.008155627508798809,0.475024415520955 l -6.672713874184809 -0.17186543965336495" fill="#ff0000" stroke="none" /><path d="M 120.99303781780057 100.54070618675476 l 24.88443019378312 0.6409346506410017 a45.892682926829266,45.892682926829266 0 0,0 -0.027044586465429662,0.7873736267086752 l -24.869760920320843 -1.0680145419137876" fill="#f3ff19" stroke="none" /><path d="M 120.7213421655516 103.40968896794604 l 24.883804947880463 4.094620634775392 a46.21843902439024,46.21843902439024 0 0,0 -0.13554147631148156,0.7817672166189712 l -24.809848654076745 -4.521180884314951" fill="#efff19" stroke="none" /><line stroke="#e1ed5e" stroke-width="0.3" x1="174.33088141563837" x2="178.70328620479359" y1="141.23008692659167" y2="143.65538615756765" /><path d="M 175.20536237346943 141.71514677278685 a86.0,86.0 0 0,1 -30.301960400862466,31.631185727798858" fill="none" id="id17" stroke="none" /><text fill="#e1ed5e" style="font-size:6.75px; font-family:Arial;" text-anchor="middle"><textPath startOffset="22.145653131862474" xlink:href="#id17">May</textPath></text><path d="M 115.41159269507618 114.26474011684316 l 15.201092892411731 14.069904642076521 a41.71317073170732,41.71317073170732 0 0,0 -0.4909127048907071,0.521332280539516 l -14.957324353784763 -14.328778382560534" fill="#ffd213" stroke="none" /><path d="M 111.5731344415666 117.5232005979908 l 8.027803500442781 12.155117683094097 a35.56682926829268,35.56682926829268 0 0,0 -0.5123560413676401,0.3321029959044281 l -7.817961826818132 -12.291134520702421" fill="#ff7a0b" stroke="none" /><line stroke="#e1ed5e" stroke-width="0.3" x1="143.1302829299769" x2="145.66735839644613" y1="173.24464959558577" y2="177.55315839532614" /><path d="M 143.63769802327073 174.10635135553383 a86.0,86.0 0 0,1 -40.68552437913181,11.842963189579606" fill="none" id="id18" stroke="none" /><text fill="#e1ed5e" style="font-size:6.75px; font-family:Arial;" text-anchor="middle"><textPath startOffset="21.407464694133747" xlink:href="#id18">June</textPath></text><path d="M 104.29559338865022 120.5559693870025 l 3.872320284012488 18.530454354722266 a39.93073170731707,39.93073170731707 0 0,0 -0.6721739997074747,0.13445362527227608 l -3.5536497987740545 -18.5941973766574" fill="#ffb911" stroke="none" /><path d="M 102.51750503828377 120.84855314841334 l 2.5125928333310172 20.807873044709122 a41.959024390243904,41.959024390243904 0 0,0 -0.715829144899086,0.08021014876265725 l -2.155027786831132 -20.84793895397875" fill="#ffd614" stroke="none" /><line stroke="#e1ed5e" stroke-width="0.3" x1="101.45913802915013" x2="101.54496967792366" y1="184.9874750549273" y2="189.98673829345242" /><path d="M 101.47630435890484 185.9873277026323 a86.0,86.0 0 0,1 -42.54439059252881,-10.42667462771756" fill="none" id="id19" stroke="none" /><text fill="#e1ed5e" style="font-size:6.75px; font-family:Arial;" text-anchor="middle"><textPath startOffset="22.145653131862474" xlink:href="#id19">July</textPath></text><path d="M 90.6110303473126 118.78422872680471 l -19.37333738091106 38.759652446040924 a64.33170731707317,64.33170731707317 0 0,0 -0.9835790476286356,-0.5022224699973601 l 20.03584365025328 -38.421372024370726" fill="#32ff4a" stroke="none" /><line stroke="#e1ed5e" stroke-width="0.3" x1="58.13341422392154" x2="55.67067388415222" y1="173.97424548756322" y2="178.32567169271397" /><path d="M 57.64086615596768 174.84453072859336 a86.0,86.0 0 0,1 -31.369924170532247,-30.572349798747897" fill="none" id="id20" stroke="none" /><text fill="#e1ed5e" style="font-size:6.75px; font-family:Arial;" text-anchor="middle"><textPath startOffset="22.145653131862474" xlink:href="#id20">August</textPath></text><path d="M 89.65649057296885 118.27599006163327 l -10.262779597356758 18.13334818798149 a41.83609756097561,41.83609756097561 0 0,0 -0.6219783225649402,-0.35909935196298287 l 10.572550387782098 -17.954501938742336" fill="#ffd413" stroke="none" /><path d="M 89.03521579738668 117.91015095944536 l -10.012720013313235 16.355025656625216 a40.176585365853654,40.176585365853654 0 0,0 -0.5851162375057258,-0.3651558072133902 l 10.292000379608677 -16.18073405257028" fill="#ffbd11" stroke="none" /><path d="M 87.54013794807813 116.9041958592261 l -36.686696266049 49.772549368921375 a82.83219512195123,82.83219512195123 0 0,0 -1.1373531373988017,-0.8534909978259394 l 37.535702392358566 -49.13543934383142" fill="#4bdeff" stroke="none" /><path d="M 86.13680546590413 115.77377054828092 l -24.46684771919943 27.83878138716116 a58.062439024390244,58.062439024390244 0 0,0 -0.7430194282756749,-0.6644125544492695 l 24.941132174298474 -27.41467330282851" fill="#5eff2a" stroke="none" /><path d="M 84.1078160697243 113.72728997021213 l -47.67655179082713 41.18186991063638 a84.0,84.0 0 0,0 -0.9332217459715513,-1.0993328702017826 l 48.3764681003058 -40.35737025798504" fill="#4dd2ff" stroke="none" /><line stroke="#e1ed5e" stroke-width="0.3" x1="26.387840678322732" x2="22.057713659400534" y1="142.50000000000003" y2="145.00000000000006" /><path d="M 25.521815274538284 143.00000000000003 a86.0,86.0 0 0,1 -11.493303480769212,-40.785679425670985" fill="none" id="id21" stroke="none" /><text fill="#e1ed5e" style="font-size:6.75px; font-family:Arial;" text-anchor="middle"><textPath startOffset="21.40746469413373" xlink:href="#id21">September</textPath></text><line stroke="#e1ed5e" stroke-width="0.3" x1="15.003131293944662" x2="10.003315487706104" y1="100.72959589197737" y2="100.7725132973878" /><path d="M 14.003168132696942 100.73817937305945 a86.0,86.0 0 0,1 10.791469493833604,-42.45332614584628" fill="none" id="id22" stroke="none" /><text fill="#e1ed5e" style="font-size:6.75px; font-family:Arial;" text-anchor="middle"><textPath startOffset="22.145653131862435" xlink:href="#id22">October</textPath></text><path d="M 79.94057633289273 93.78553927170692 l -6.399445404043001 -1.9825645445383764 a27.69951219512195,27.69951219512195 0 0,0 0.1446116139211203,-0.45299382092608625 l 6.3644690743446235 2.092127399155854" fill="#ff0000" stroke="none" /><path d="M 80.05021161711548 93.44210830539832 l -14.515660659468562 -4.771585976423352 a36.27980487804878,36.27980487804878 0 0,0 0.1995641126630791,-0.5899758388694191 l 14.431611125233118 5.020063489766932" fill="#ff850c" stroke="none" /><path d="M 80.16572619554312 93.10060997987247 l -7.3086880155545035 -2.5423410835143074 a28.738243902439024,28.738243902439024 0 0,0 0.16607944729693738,-0.46455377237510387 l 7.263968398213623 2.6674298122703326" fill="#ff1101" stroke="none" /><line stroke="#e1ed5e" stroke-width="0.3" x1="26.387840678322718" x2="22.05771365940052" y1="57.49999999999999" y2="54.99999999999999" /><path d="M 25.521815274538284 56.99999999999999 a86.0,86.0 0 0,1 29.574782752854787,-30.34633250058573" fill="none" id="id23" stroke="none" /><text fill="#e1ed5e" style="font-size:6.75px; font-family:Arial;" text-anchor="middle"><textPath startOffset="21.40746469413373" xlink:href="#id23">November</textPath></text><line stroke="#e1ed5e" stroke-width="0.3" x1="56.869717070023135" x2="54.33264160355391" y1="26.7553504044142" y2="22.446841604673864" /><path d="M 56.362301976729285 25.89364864446614 a86.0,86.0 0 0,1 42.16139366436587,-11.88097634709845" fill="none" id="id24" stroke="none" /><text fill="#e1ed5e" style="font-size:6.75px; font-family:Arial;" text-anchor="middle"><textPath startOffset="22.145653131862474" xlink:href="#id24">December</textPath></text></svg>