<?xml version="1.0" encoding="utf-8" ?>
<svg baseProfile="full" height="200mm" version="1.1" viewBox="0,0,200,200" width="200mm" xmlns="http://www.w3.org/2000/svg" xmlns:ev="http://www.w3.org/2001/xml-events" xmlns:xlink="http://www.w3.org/1999/xlink"><defs /><rect fill="#1a1a1a" height="200" width="200" x="0" y="0" /><text alignment-baseline="middle" fill="#e1ed5e" style="dominant-baseline: central; font-size:9.0px; font-family:Arial;" text-anchor="middle" x="100.0" y="100.0">2023</text><line stroke="#e1ed5e" stroke-width="0.3" x1="100.0" x2="100.0" y1="15.0" y2="10.0" /><path d="M 100.0 14.0 a86.0,86.0 0 0,1 42.46469731375804,11.215312516191453" fill="none" id="id1" stroke="none" /><text fill="#e1ed5e" style="font-size:6.75px; font-family:Arial;" text-anchor="middle"><textPath startOffset="22.20632615414155" xlink:href="#id1">January</textPath></text><line stroke="#e1ed5e" stroke-width="0.3" x1="143.23703022742887" x2="145.7803849466894" y1="26.81831364943548" y2="22.513508569990506" /><path d="M 143.74570117128098 25.957352633546492 a86.0,86.0 0 0,1 28.547481713284135,27.462654790039103" fill="none" id="id2" stroke="none" /><text fill="#e1ed5e" style="font-size:6.75px; font-family:Arial;" text-anchor="middle"><textPath startOffset="19.985693538727396" xlink:href="#id2">February</textPath></text><path d="M 117.2510076193507 88.02491185347247 l 13.992186550414953 -9.712920601572527 a38.03297129317328,38.03297129317328 0 0,0 0.36869440253397506,0.5410135412188861 l -14.157305418617662 9.470629037083235" fill="#ffa40f" stroke="none" /><line stroke="#e1ed5e" stroke-width="0.3" x1="172.23445277983987" x2="176.4835382374775" y1="55.19839476539836" y2="52.563006222186495" /><path d="M 173.08426987136738 54.67131705675599 a86.0,86.0 0 0,1 12.851231095245387,41.99856678651699" fill="none" id="id3" stroke="none" /><text fill="#e1ed5e" style="font-size:6.75px; font-family:Arial;" text-anchor="middle"><textPath startOffset="22.20632615414155" xlink:href="#id3">March</textPath></text><path d="M 120.08093135843002 93.85539295169968 l 14.335434505551463 -4.386530202757779 a35.99154193812837,35.99154193812837 0 0,0 0.1761770602426881,0.5939814648302446 l -14.408817462905855 4.139119351181004" fill="#ff870c" stroke="none" /><path d="M 120.91429891909075 98.10471618934814 l 8.984216752325032 -0.814162627585184 a30.021031617110882,30.021031617110882 0 0,0 0.042208878798403196,0.5150552325100287 l -8.996900114942932 0.6593934778673866" fill="#ff2d04" stroke="none" /><line stroke="#e1ed5e" stroke-width="0.3" x1="184.98032266829074" x2="189.97916517819016" y1="98.17113171792111" y2="98.06355123074" /><path d="M 185.9800911702706 98.14961562048488 a86.0,86.0 0 0,1 -9.607161424134198,41.387399972396054" fill="none" id="id4" stroke="none" /><text fill="#e1ed5e" style="font-size:6.75px; font-family:Arial;" text-anchor="middle"><textPath startOffset="21.466115282336823" xlink:href="#id4">April</textPath></text><path d="M 120.99980553446 99.90962569577887 l 14.934184016645888 -0.0642704279999134 a35.93432231241032,35.93432231241032 0 0,0 -0.002662053458156623,0.6185674725290563 l -14.93307766589823 -0.19280652273282764" fill="#ff860c" stroke="none" /><path d="M 120.9904718944345 100.63252640178507 l 14.955547386656304 0.4506701241774383 a35.962336087501455,35.962336087501455 0 0,0 -0.023971238233963164,0.6185911450159443 l -14.94557401557114 -0.7080385162073887" fill="#ff860c" stroke="none" /><path d="M 120.95626037817324 101.35467743843564 l 14.90440611408341 0.9634668748943576 a35.93551438794612,35.93551438794612 0 0,0 -0.04521618839508303,0.6169389662219714 l -14.885613367023987 -1.2198789776130994" fill="#ff860c" stroke="none" /><path d="M 120.81339534386255 102.79330883721812 l 14.815794673987527 1.988387262603074 a35.94862721883984,35.94862721883984 0 0,0 -0.08758788696677978,0.6125894774452448 l -14.779372736004145 -2.2431222120287284" fill="#ff860c" stroke="none" /><path d="M 120.70491114924044 103.5080841355445 l 15.718204462635535 2.6631741289379707 a36.94222217792301,36.94222217792301 0 0,0 -0.11162454405168282,0.6260497228271547 l -15.670033476244665 -2.9333426024983433" fill="#ff950d" stroke="none" /><path d="M 120.32669344350535 105.2749913415812 l 14.50914908527729 3.765277220875427 a35.98975382482468,35.98975382482468 0 0,0 -0.1607746684901278,0.5983023510964899 l -14.442186340445383 -4.014470505147465" fill="#ff870c" stroke="none" /><path d="M 119.54520255179757 107.68017299344265 l 13.906942875981734 5.4646518404917455 a35.94207080339298,35.94207080339298 0 0,0 -0.23122284779590924,0.5738761457817153 l -13.810817413928433 -5.703227354116274" fill="#ff860c" stroke="none" /><path d="M 119.26925614724726 108.34839909993367 l 16.433960243111954 7.120008050831844 a38.91004086863273,38.91004086863273 0 0,0 -0.2715530182270787,0.6122803681989138 l -16.3089661401536 -7.401836755523446" fill="#ffb110" stroke="none" /><line stroke="#e1ed5e" stroke-width="0.3" x1="174.80103733775053" x2="179.2010983576182" y1="140.37084112569926" y2="142.7455964860345" /><path d="M 175.68104954172406 140.8457921977663 a86.0,86.0 0 0,1 -30.038265399797805,32.042727171017184" fill="none" id="id5" stroke="none" /><text fill="#e1ed5e" style="font-size:6.75px; font-family:Arial;" text-anchor="middle"><textPath startOffset="22.206326154141568" xlink:href="#id5">May</textPath></text><path d="M 118.48025628344425 109.97397251340804 l 13.136616167387803 7.089958416328745 a35.927765896963464,35.927765896963464 0 0,0 -0.298411901339713,0.5417042805276457 l -13.01262785659658 -7.3150332152541955" fill="#ff860c" stroke="none" /><path d="M 118.12598468904814 110.60418214915192 l 20.67893303014526 12.097724689918069 a44.95773808059279,44.95773808059279 0 0,0 -0.3965253751369457,0.6645993368264851 l -20.467626779310088 -12.45188612063066" fill="#fbff18" stroke="none" /><path d="M 117.55443506779139 111.5257021239791 l 10.747354015487591 7.056382078095862 a33.856832672407684,33.856832672407684 0 0,0 -0.32405324894203724,0.48441563904615575 l -10.624297661134833 -7.240334631347825" fill="#ff6709" stroke="none" /><path d="M 116.71984013943494 112.70617746262583 l 10.474853772417015 7.960324370175725 a34.15634165077559,34.15634165077559 0 0,0 -0.3597690439010527,0.4650499865972767 l -10.336277911297893 -8.139452350886254" fill="#ff6c09" stroke="none" /><path d="M 116.27256486870786 113.27417163493432 l 19.32168862903322 15.76146189662797 a45.934942001058815,45.934942001058815 0 0,0 -0.5050743739382173,0.6083946201298268 l -19.04751825520146 -16.09171777387157" fill="#eeff19" stroke="none" /><path d="M 115.07121518719521 114.62390073753431 l 18.2539111125769 17.71213408251907 a46.434719669439886,46.434719669439886 0 0,0 -0.5615491610939228,0.5688463354431629 l -17.946321326427444 -18.0237209119429" fill="#e7ff1a" stroke="none" /><path d="M 114.0293411484842 115.62618273729858 l 9.971108204022666 11.106035361202238 a35.92538174589188,35.92538174589188 0 0,0 -0.4637071165225751,0.40916761602921836 l -9.778458734593503 -11.276026119003745" fill="#ff860c" stroke="none" /><path d="M 113.48314897796784 116.09983520530334 l 14.45894178285729 17.26500095248243 a43.51979696554291,43.51979696554291 0 0,0 -0.5784607301311016,0.47603379949189345 l -14.159610924181498 -17.511329870831503" fill="#fff016" stroke="none" /><path d="M 112.92097659922987 116.55440617244103 l 18.370932501527285 23.536911166212246 a50.85761792611457,50.85761792611457 0 0,0 -0.6947423581074559,0.5326988148628683 l -17.963061414926333 -23.849649322902483" fill="#b0ff20" stroke="none" /><path d="M 111.7513745106137 117.40417183066458 l 8.353250739546116 12.371438854610563 a35.92746787807951,35.92746787807951 0 0,0 -0.5155169086605986,0.34165649678240806 l -8.139059132145553 -12.51339337248429" fill="#ff860c" stroke="none" /><line stroke="#e1ed5e" stroke-width="0.3" x1="143.8653032363475" x2="146.44561519142675" y1="172.8068346515853" y2="177.08958963109032" /><path d="M 144.38136562736335 173.6633856474863 a86.0,86.0 0 0,1 -40.68145358897372,12.25698825130547" fill="none" id="id6" stroke="none" /><text fill="#e1ed5e" style="font-size:6.75px; font-family:Arial;" text-anchor="middle"><textPath startOffset="21.466115282336833" xlink:href="#id6">June</textPath></text><path d="M 108.59647513512805 119.15986991738527 l 5.552883100962871 12.376295657058376 a34.56492554066852,34.56492554066852 0 0,0 -0.5449396299290242,0.23888551946137346 l -5.339022796376094 -12.470045729814204" fill="#ff720a" stroke="none" /><path d="M 107.59598834532513 119.57807347666477 l 4.319446720196324 11.133040418445066 a32.94161667980288,32.94161667980288 0 0,0 -0.5304067417019712,0.2005544446109235 l -4.1271697577340785 -11.20574311316262" fill="#ff5a08" stroke="none" /><path d="M 106.91757812671514 119.82793768551818 l 6.115104245544552 17.527797113392555 a39.563894300015,39.563894300015 0 0,0 -0.6449485000841647,0.21880154812771987 l -5.812486012523161 -17.6304616484184" fill="#ffba11" stroke="none" /><path d="M 106.2309692047433 120.05430185196036 l 5.654313630889741 18.19834260024853 a40.05651951518131,40.05651951518131 0 0,0 -0.6602173257631867,0.19891806440714205 l -5.340221330686308 -18.2929760337614" fill="#ffc111" stroke="none" /><path d="M 105.53697534728816 120.25689768951611 l 5.99214742909832 21.92213434202683 a43.72632405211898,43.72632405211898 0 0,0 -0.7277508646160512,0.19220561776977838 l -5.61390612167077 -22.022031309100193" fill="#fff316" stroke="none" /><path d="M 104.83641907484287 120.43548508189849 l 3.7606043277872487 15.88980864771651 a37.32875267040378,37.32875267040378 0 0,0 -0.6265539602197489,0.14260164146145365 l -3.486530218174638 -15.952187022755648" fill="#ff9a0e" stroke="none" /><path d="M 104.13013068566511 120.58985236759428 l 2.936766040644592 14.640597069944523 a35.93223618022269,35.93223618022269 0 0,0 -0.6074813107065414,0.11642523901461378 l -2.6843171153663463 -14.688979507307604" fill="#ff860c" stroke="none" /><path d="M 103.41894727170886 120.7198165907248 l 3.009231897132192 18.23682204855229 a39.483429201349,39.483429201349 0 0,0 -0.6715268996416224,0.10487869107580756 l -2.6948691338820523 -18.285919046975206" fill="#ffb911" stroke="none" /><path d="M 102.34483914955558 120.86867818915974 l 1.0254151220934329 9.12602393103233 a30.18345190886263,30.18345190886263 0 0,0 -0.5168088299214001,0.05356934832516927 l -0.8681736955664301 -9.142322647813257" fill="#ff2f04" stroke="none" /><path d="M 101.62511606390274 120.93702456842531 l 1.161872346285605 14.968869239490617 a36.01389335442448,36.01389335442448 0 0,0 -0.6184738606162701,0.042653578482785386 l -0.9040357248904046 -14.986651162489688" fill="#ff870c" stroke="none" /><line stroke="#e1ed5e" stroke-width="0.3" x1="102.19456741930631" x2="102.32365962044197" y1="184.97166512339345" y2="189.96999836594603" /><path d="M 102.22038585953345 185.97133177190398 a86.0,86.0 0 0,1 -42.740103519485714,-10.115201625700543" fill="none" id="id7" stroke="none" /><text fill="#e1ed5e" style="font-size:6.75px; font-family:Arial;" text-anchor="middle"><textPath startOffset="22.20632615414155" xlink:href="#id7">July</textPath></text><path d="M 100.54218724476979 120.99299961872073 l 0.5518411302399272 21.366789330575195 a42.37391435676223,42.37391435676223 0 0,0 -0.7293162259795081,0.012555840231233125 l -0.18396521436775118 -21.373122648085587" fill="#ffe115" stroke="none" /><path d="M 99.81925306533755 120.99922214144158 l -0.12869100348638743 14.951351594772758 a35.95190542656327,35.95190542656327 0 0,0 -0.6187841831584049,-0.010652930874966337 l 0.38603487653746027 -14.946921186618631" fill="#ff860c" stroke="none" /><path d="M 99.09653310690486 120.98055641714683 l -0.6698816641309797 15.556176053074536 a36.57059262963965,36.57059262963965 0 0,0 -0.6286866802137921,-0.03249592025189862 l 0.9375564127582608 -15.542340326060435" fill="#ff8f0d" stroke="none" /><path d="M 98.37488393609728 120.93702456842531 l -2.3095150485199345 29.75441224541635 a50.843909057452954,50.843909057452954 0 0,0 -0.8719867978701894,-0.07523869004933278 l 2.8213461641316657 -29.710249303088354" fill="#b0ff20" stroke="none" /><path d="M 97.2962882734958 120.8252237178851 l -2.008752578067097 15.472330656424678 a36.60218263133816,36.60218263133816 0 0,0 -0.6241045285923885,-0.08649520080948506 l 2.274785697846317 -15.435460890122588" fill="#ff900d" stroke="none" /><path d="M 96.58105272829116 120.7198165907248 l -2.428695310344051 14.718601190924588 a35.917633254909234,35.917633254909234 0 0,0 -0.6091477155250298,-0.10590813844310283 l 2.681691997341131 -14.674614473960478" fill="#ff860c" stroke="none" /><path d="M 95.86986931433489 120.58985236759428 l -5.868198367893335 29.254604092321642 a50.837352642006095,50.837352642006095 0 0,0 -0.8565090210984324,-0.17948979305240584 l 6.370898850421154 -29.149258318542696" fill="#b0ff20" stroke="none" /><path d="M 94.81253420990036 120.34920634021253 l -3.0614479789110667 12.009339269587993 a33.39341330786829,33.39341330786829 0 0,0 -0.5557770046783794,-0.14678575831414964 l 3.2677154264009354 -11.954862161970262" fill="#ff6008" stroke="none" /><path d="M 94.11515582081647 120.15858648285463 l -4.274081184503054 14.640903406978627 a36.25201044269907,36.25201044269907 0 0,0 -0.5975108590986519,-0.18002512039010735 l 4.525467018041952 -14.565162917482793" fill="#ff8b0c" stroke="none" /><path d="M 92.40401165467489 119.57807347666478 l -5.999147713310841 15.462340039114173 a37.585346929483144,37.585346929483144 0 0,0 -0.6011488515842024,-0.2392095343437228 l 6.264417640936902 -15.356783660364384" fill="#ff9e0e" stroke="none" /><path d="M 91.40352486487194 119.15986991738527 l -7.104059774046402 15.833566550999041 a38.354235650069405,38.354235650069405 0 0,0 -0.6000282813774283,-0.27544355445163116 l 7.37555605119125 -15.708935926213336" fill="#ffa90f" stroke="none" /><line stroke="#e1ed5e" stroke-width="0.3" x1="58.666819895761336" x2="56.23545636021788" y1="174.27360380694188" y2="178.64263932499728" /><path d="M 58.180547188652646 175.14741091055294 a86.0,86.0 0 0,1 -31.652253787137756,-30.449443065178592" fill="none" id="id8" stroke="none" /><text fill="#e1ed5e" style="font-size:6.75px; font-family:Arial;" text-anchor="middle"><textPath startOffset="22.20632615414155" xlink:href="#id8">August</textPath></text><path d="M 88.8546689885994 117.79835938074946 l -6.333029768304194 10.113431325634329 a32.93267611328443,32.93267611328443 0 0,0 -0.4778659866196362,-0.3049966821072754 l 6.506177556970754 -10.002920214703249" fill="#ff5908" stroke="none" /><path d="M 88.24862548938628 117.40417183066458 l -8.524855183855113 12.625590675996387 a36.23412930966218,36.23412930966218 0 0,0 -0.5139088550746107,-0.35347119659144033 l 8.740920923552615 -12.476978690039845" fill="#ff8a0c" stroke="none" /><path d="M 87.95078237400918 117.19931262002967 l -8.202799750063429 11.70885294299271 a35.29626388187731,35.29626388187731 0 0,0 -0.4946059947367074,-0.35288824464098917 l 8.403133072649023 -11.5659204365075" fill="#ff7d0b" stroke="none" /><path d="M 87.36589467227662 116.77436683061367 l -9.239088451706841 12.266785407379848 a36.35691308984882,36.35691308984882 0 0,0 -0.49665494695889173,-0.3808138348746843 l 9.44887212715922 -12.105932230677798" fill="#ff8c0c" stroke="none" /><path d="M 86.79598089348748 116.32954008644616 l -15.940500783553171 19.713773847439494 a46.35216843858625,46.35216843858625 0 0,0 -0.616108324663691,-0.5070152067570187 l 16.27747923676155 -19.436463521825292" fill="#e9ff1a" stroke="none" /><path d="M 85.97065885151581 115.62618273729859 l -11.976001371518127 13.339128610020312 a38.92643190724988,38.92643190724988 0 0,0 -0.4947372482710856,-0.45193074618869655 l 12.203838169256066 -13.13100509724504" fill="#ffb110" stroke="none" /><path d="M 85.44109423537348 115.13401014063109 l -13.312973180352566 13.83886085745085 a40.20284678719986,40.20284678719986 0 0,0 -0.4945908277191301,-0.484061222493485 l 13.54921396044749 -13.607649532034795" fill="#ffc312" stroke="none" /><path d="M 84.9287848128048 114.62390073753433 l -21.405237786735114 20.769929217286222 a50.825729905532114,50.825729905532114 0 0,0 -0.6038422206101361,-0.6331261541803428 l 21.75958655872421 -20.39839594652338" fill="#b0ff20" stroke="none" /><path d="M 84.19399662182784 113.82643327865904 l -8.834631435289229 7.728167529703262 a32.73777176318233,32.73777176318233 0 0,0 -0.36737624456934137,-0.42734156965291825 l 8.966350189429349 -7.574948860888813" fill="#ff5608" stroke="none" /><path d="M 83.72743513129214 113.27417163493432 l -31.66161392724825 25.82762464923536 a61.859808999797224,61.859808999797224 0 0,0 -0.6659711799315077,-0.8309014447146608 l 32.10150301923462 -25.27879537094244" fill="#32ff2f" stroke="none" /><path d="M 83.28015986056508 112.70617746262583 l -28.457766237774987 21.626368732692413 a56.742751486227554,56.742751486227554 0 0,0 -0.5842847955055918,-0.7827449660363902 l 28.825812299975663 -21.133310887146717" fill="#6aff28" stroke="none" /><path d="M 82.85270091963577 112.12312394758628 l -24.512886844654133 17.330587408439076 a51.02050768025692,51.02050768025692 0 0,0 -0.5008248175874068,-0.7214755030146155 l 24.807572569403675 -16.90607064323745" fill="#aeff20" stroke="none" /><path d="M 82.44556493220864 111.52570212397912 l -11.275648087626832 7.403243716526657 a34.488819715686546,34.488819715686546 0 0,0 -0.3215591984855852,-0.49906701694287803 l 11.401412149489463 -7.208055099662332" fill="#ff710a" stroke="none" /><path d="M 82.24976979558568 111.22182372390057 l -14.678567175161547 9.279896173860974 a38.36596692710687,38.36596692710687 0 0,0 -0.3480987301401711,-0.5612459900345795 l 14.836130544969674 -9.02585385246113" fill="#ffa90f" stroke="none" /><line stroke="#e1ed5e" stroke-width="0.3" x1="26.63291911575756" x2="22.317208475507996" y1="142.92168965132927" y2="145.44649492493687" /><path d="M 25.769776987707644 143.4266507060508 a86.0,86.0 0 0,1 -11.730757126820373,-40.83630448921669" fill="none" id="id9" stroke="none" /><text fill="#e1ed5e" style="font-size:6.75px; font-family:Arial;" text-anchor="middle"><textPath startOffset="21.46611528233685" xlink:href="#id9">September</textPath></text><path d="M 81.51974371655577 109.97397251340807 l -10.350558614685042 5.586296290369798 a32.76183531086157,32.76183531086157 0 0,0 -0.26357285246282963,-0.4985805068367864 l 10.445183975372757 -5.407300768446886" fill="#ff5708" stroke="none" /><path d="M 81.02952815118164 109.00673069616217 l -22.710774216159063 10.782537666770216 a46.14045313896855,46.14045313896855 0 0,0 -0.33446419801254806,-0.7204061271871162 l 22.893013031011435 -10.390011472304273" fill="#ebff1a" stroke="none" /><path d="M 80.45479744820244 107.68017299344265 l -32.63241298753601 12.822715767388742 a56.06132366355196,56.06132366355196 0 0,0 -0.3451928496789068,-0.9011896038549407 l 32.848300116808424 -12.259102596700643" fill="#72ff27" stroke="none" /><path d="M 80.20201598880116 107.00284435728193 l -14.353734242608986 5.077131428630349 a36.225207724396796,36.225207724396796 0 0,0 -0.20287697997024998,-0.5896554684028229 l 14.439002053522465 -4.829303257138229" fill="#ff8a0c" stroke="none" /><path d="M 79.76711848015287 105.62410040840567 l -14.274105888436766 3.9677494615897704 a35.815300695708174,35.815300695708174 0 0,0 -0.15999534546010247,-0.5954022001864835 l 14.340289310238644 -3.721456328227748" fill="#ff840c" stroke="none" /><path d="M 79.67330655649465 105.27499134158121 l -34.669585237646096 8.997123041830895 a56.81798938494807,56.81798938494807 0 0,0 -0.23752269583342414,-0.9487850999388473 l 34.81931924777458 -8.399010102494655" fill="#69ff28" stroke="none" /><path d="M 79.4281124754447 104.21870165774334 l -23.539800053523848 4.827335041094854 a45.02967644723631,45.02967644723631 0 0,0 -0.14917702897706114,-0.7606504568680241 l 23.619407015476575 -4.421420857158876" fill="#faff18" stroke="none" /><path d="M 79.23777060512086 103.15116336523772 l -40.801203694069905 6.192555524411377 a62.268462132818826,62.268462132818826 0 0,0 -0.15171547413155448,-1.0610976727164847 l 40.90175321921806 -5.489312379714492" fill="#30ff31" stroke="none" /><path d="M 79.1416061653843 102.43462659150553 l -16.51342804701283 1.9274749225153576 a37.6255365459523,37.6255365459523 0 0,0 -0.06954936826199667,-0.6439407726511337 l 16.54415971677588 -1.6429378279794418" fill="#ff9e0e" stroke="none" /><path d="M 79.07016306316243 101.71520430193888 l -30.025877285585757 2.4606266185993118 a51.12653299211866,51.12653299211866 0 0,0 -0.06433042596253195,-0.8777375514973061 l 30.063784270212622 -1.9434159306052448" fill="#acff20" stroke="none" /><line stroke="#e1ed5e" stroke-width="0.3" x1="15.007084014347285" x2="10.007500721073583" y1="101.09737516637583" y2="101.16192664675087" /><path d="M 14.007167355692545 101.11028546245083 a86.0,86.0 0 0,1 10.666146001902534,-42.60595125391555" fill="none" id="id10" stroke="none" /><text fill="#e1ed5e" style="font-size:6.75px; font-family:Arial;" text-anchor="middle"><textPath startOffset="22.20632615414155" xlink:href="#id10">October</textPath></text><path d="M 79.00175016825051 100.2711162175752 l -47.16999199365057 0.609029319816685 a68.173923531899,68.173923531899 0 0,0 -0.005050397982085219,-1.1735346281166146 l 47.173486688922154 0.20301478650360497" fill="#38ff7d" stroke="none" /><path d="M 79.00486145842228 99.54816195383935 l -16.580123997616077 -0.35682216706254527 a37.583963152251386,37.583963152251386 0 0,0 0.01948693687473764,-0.6466765649994017 l 16.571525366285695 0.6421688794869413" fill="#ff9e0e" stroke="none" /><path d="M 79.03285615573316 98.82574320788736 l -32.107685834521654 -1.7981785430691946 a53.15799956031309,53.15799956031309 0 0,0 0.059029196815912635,-0.9131555478012062 l 32.07197604670132 2.3505931551234127" fill="#94ff23" stroke="none" /><path d="M 79.08570108090925 98.10471618934814 l -48.04879603582875 -4.354250917055282 a69.2456868698265,69.2456868698265 0 0,0 0.1177930937665981,-1.1861603790597874 l 47.96672581637992 5.1806868268195" fill="#39ff8a" stroke="none" /><path d="M 79.16333360222342 97.38593545837743 l -15.569543407419777 -1.9532774856410011 a36.691589302917684,36.691589302917684 0 0,0 0.08401325783862224,-0.6259963546539027 l 15.533614150523322 2.2209921823595633" fill="#ff910d" stroke="none" /><path d="M 79.26566170972629 96.67025291283419 l -24.05210493596549 -3.8625503852373138 a45.36027601094028,45.36027601094028 0 0,0 0.13043917282045558,-0.769859381724559 l 23.982053901624813 4.275995555277701" fill="#f5ff19" stroke="none" /><path d="M 79.3925641242962 95.95851677861259 l -23.67619788716826 -4.643321812785726 a45.127220806579494,45.127220806579494 0 0,0 0.15605574039872902,-0.7609832122523436 l 23.592762850854538 5.050180681201472" fill="#f9ff18" stroke="none" /><path d="M 79.54389044137918 95.25157060432595 l -35.83749256787131 -8.318874255579782 a57.79034577755935,57.79034577755935 0 0,0 0.23327265635823588,-0.9670657606544941 l 35.68898711125226 8.934525247893674" fill="#5eff29" stroke="none" /><path d="M 79.91906864156998 93.8553929516997 l -21.558423832107568 -6.596708123968716 a43.54511468583867,43.54511468583867 0 0,0 0.22549011575093372,-0.7148652876612179 l 21.441678232588433 6.966823578056348" fill="#fff016" stroke="none" /><path d="M 80.14247586403 93.16781622104843 l -50.40890681717652 -17.343698696412098 a74.30911527098074,74.30911527098074 0 0,0 0.4265588054126411,-1.205939183928038 l 50.102894930954065 18.208835506766746" fill="#40ffc5" stroke="none" /><path d="M 80.38941819471856 92.48833698450439 l -19.915582942715634 -7.628491051833199 a42.32661059981368,42.32661059981368 0 0,0 0.2664690920448263,-0.6781347740808019 l 19.781320300789115 7.970174830809765" fill="#ffe015" stroke="none" /><path d="M 80.65960295795068 91.81776055985345 l -14.819843986461686 -6.26975297865946 a37.091537471493325,37.091537471493325 0 0,0 0.2538285009939007,-0.5858711765663115 l 14.709724775625105 6.52392329981237" fill="#ff970d" stroke="none" /><path d="M 81.26839172434947 90.50648371742162 l -49.1946740767208 -24.932746430032104 a76.15213325030197,76.15213325030197 0 0,0 0.6026555329016292,-1.1641386681625063 l 48.75820911065906 25.775857820454945" fill="#42ffda" stroke="none" /><line stroke="#e1ed5e" stroke-width="0.3" x1="26.266209847984243" x2="21.928928074336255" y1="57.711370442889674" y2="55.22380399835377" /><path d="M 25.398753493254645 57.213857153982495 a86.0,86.0 0 0,1 29.58750427330803,-30.492523968695096" fill="none" id="id11" stroke="none" /><text fill="#e1ed5e" style="font-size:6.75px; font-family:Arial;" text-anchor="middle"><textPath startOffset="21.46611528233685" xlink:href="#id11">November</textPath></text><path d="M 81.96595687620814 89.24020034530311 l -19.474865826826946 -11.619449568816465 a43.67778664806557,43.67778664806557 0 0,0 0.3907793369998444,-0.6423384815194477 l 19.271970691540886 11.952955823542986" fill="#fff216" stroke="none" /><path d="M 82.34701348167596 88.62581576622439 l -24.921727435196996 -16.057584306068023 a50.646897174927645,50.646897174927645 0 0,0 0.4785007051517661,-0.7287894019925554 l 24.64163009468731 16.484191772038248" fill="#b2ff20" stroke="none" /><path d="M 85.05521093208273 85.24692304244772 l -11.082547177203104 -10.940379997866845 a36.57288561675894,36.57288561675894 0 0,0 0.4461268561709254,-0.44421104567187947 l 10.892584520864865 11.129526894188835" fill="#ff8f0d" stroke="none" /><path d="M 85.31137513191541 84.99185889309783 l -10.320520003471366 -10.545018468355973 a35.75501771059666,35.75501771059666 0 0,0 0.4435610113592785,-0.42670534149469264 l 10.137475748499659 10.72110689661298" fill="#ff830c" stroke="none" /><path d="M 85.57189188830299 84.74124197986013 l -20.532712560659682 -21.71481458516338 a50.88520465994329,50.88520465994329 0 0,0 0.6416190964494396,-0.5963150239745247 l 20.155885580415386 22.065034195212554" fill="#afff20" stroke="none" /><path d="M 86.10567301691215 84.25364557470407 l -10.275220076327496 -11.644843058372567 a36.53005207560784,36.53005207560784 0 0,0 0.47507541702880024,-0.4119807201764759 l 10.073250860651923 11.819988771968724" fill="#ff8f0d" stroke="none" /><path d="M 86.37877921826538 84.01681056812374 l -6.511013111728785 -7.6400461915821545 a31.03810726933186,31.03810726933186 0 0,0 0.409617976035713,-0.3430432749475535 l 6.378537598733961 7.75099062392352" fill="#ff3d05" stroke="none" /><path d="M 87.22198572758235 83.33499621200491 l -12.563807440871573 -16.385636620059188 a41.64796224463626,41.64796224463626 0 0,0 0.5726671088697181,-0.4313209937664242 l 12.279894178243465 16.599474203331464" fill="#ffd714" stroke="none" /><path d="M 87.80319425747018 82.90503203632743 l -24.667825844354912 -34.57427308793348 a63.472131939030625,63.472131939030625 0 0,0 0.8948629414944932,-0.6269086774400866 l 24.069031763276758 34.993766608137506" fill="#31ff41" stroke="none" /><path d="M 88.39885842347998 82.49532879139004 l -5.428321206689176 -8.190657558229901 a30.826166208607507,30.826166208607507 0 0,0 0.4448259442791542,-0.289327167797787 l 5.286528236625735 8.282883650187223" fill="#ff3905" stroke="none" /><path d="M 88.70189139769569 82.29822771554957 l -11.166794547787976 -17.496030635771106 a41.755924177938894,41.755924177938894 0 0,0 0.6092007353865382,-0.381481444610869 l 10.863974660029196 17.685656421704905" fill="#ffd814" stroke="none" /><line stroke="#e1ed5e" stroke-width="0.3" x1="56.762969772571076" x2="54.21961505331055" y1="26.818313649435495" y2="22.513508569990535" /><path d="M 56.25429882871897 25.957352633546506 a86.0,86.0 0 0,1 42.265352541879196,-11.944610805530505" fill="none" id="id12" stroke="none" /><text fill="#e1ed5e" style="font-size:6.75px; font-family:Arial;" text-anchor="middle"><textPath startOffset="22.20632615414155" xlink:href="#id12">December</textPath></text><path d="M 89.94658935756843 81.56283822128135 l -23.64593347721069 -43.36477603810562 a70.3926509801178,70.3926509801178 0 0,0 1.0688116882387955,-0.5709221885643591 l 22.89597674244359 43.76537695317173" fill="#3bff98" stroke="none" /><path d="M 90.58718382345135 81.22770947309562 l -5.227729872039594 -10.42583453383526 a32.663069293369006,32.663069293369006 0 0,0 0.5047668806346526,-0.24768691614892907 l 5.047491724394516 10.514276610119019" fill="#ff5507" stroke="none" /><path d="M 90.91171255644093 81.06846463323043 l -9.05671195673377 -18.86576142979096 a41.92703958502092,41.92703958502092 0 0,0 0.6533067089486985,-0.30673625973798946 l 8.730627036485462 19.018862672168957" fill="#ffdb14" stroke="none" /><path d="M 91.56875222667455 80.76684994638697 l -2.474683073944186 -5.645184695779863 a27.163778594817714,27.163778594817714 0 0,0 0.4298554679450421,-0.18404167813262046 l 2.377143848208836 5.686945901875269" fill="#ff0000" stroke="none" /><path d="M 92.23578459929587 80.48803036053334 l -23.29264620211241 -58.53590891839998 a84.0,84.0 0 0,0 1.3480673400012946,-0.5230291844377941 l 22.28159569711144 58.92818080672833" fill="#4dd2ff" stroke="none" /><path d="M 93.59665428221793 80.00007090966166 l -4.755821715712702 -14.854124901675707 a36.59688644525653,36.59688644525653 0 0,0 0.6016085959117627,-0.18692271923036932 l 4.49942774709021 14.933787755788602" fill="#ff900d" stroke="none" /><path d="M 94.28887869178378 79.79150937346287 l -10.643438912352227 -37.66122690914606 a60.136310559161814,60.136310559161814 0 0,0 0.99855516315607,-0.2729428467303741 l 9.993585859972434 37.83885629670272" fill="#44ff2d" stroke="none" /><path d="M 95.33964822691252 79.52364482259891 l -4.099763838972418 -18.01327981184754 a39.47393604826161,39.47393604826161 0 0,0 0.6638337010353429,-0.14508833523584388 l 3.789087413783555 18.08118164517925" fill="#ffb911" stroke="none" /><path d="M 95.692805502759 79.44645832069477 l -6.206609566723325 -29.617378202571672 a51.26071866145794,51.26071866145794 0 0,0 0.8651676461178811,-0.1735444907366077 l 5.695875511138308 29.71982664938549" fill="#abff21" stroke="none" /><path d="M 96.40284397218896 79.31037775812273 l -4.067877169683424 -23.397050702391216 a44.74804426132596,44.74804426132596 0 0,0 0.7600152604961624,-0.12540903004390527 l 3.664532703048376 23.463605995374746" fill="#feff18" stroke="none" /><path d="M 97.47563105711357 79.15227682838746 l -2.842201281938789 -23.47256952706379 a44.644018870105356,44.644018870105356 0 0,0 0.7636960984420144,-0.0858101549967815 l 2.4377384799870567 23.51801563553117" fill="#ffff18" stroke="none" /><path d="M 97.83486435360386 79.11191278185805 l -2.1854919375473467 -21.084473982967488 a42.19743895256022,42.19743895256022 0 0,0 0.7231332371509581,-0.06867021424084074 l 1.822233573306152 21.118969741723507" fill="#ffde14" stroke="none" /><path d="M 98.55514903715128 79.0497635885617 l -1.637835940185743 -23.74850488550661 a44.80491526689174,44.80491526689174 0 0,0 0.7698720869914053,-0.04644078671679186 l 1.2288018043547146 23.773178941603707" fill="#fdff18" stroke="none" /></svg>