<?xml version="1.0" encoding="utf-8" ?>
<svg baseProfile="full" height="200mm" version="1.1" viewBox="0,0,200,200" width="200mm" xmlns="http://www.w3.org/2000/svg" xmlns:ev="http://www.w3.org/2001/xml-events" xmlns:xlink="http://www.w3.org/1999/xlink"><defs /><rect fill="#1a1a1a" height="200" width="200" x="0" y="0" /><text alignment-baseline="middle" fill="#e1ed5e" style="dominant-baseline: central; font-size:9.0px; font-family:Arial;" text-anchor="middle" x="100.0" y="100.0">2020</text><line stroke="#e1ed5e" stroke-width="0.3" x1="100.0" x2="100.0" y1="15.0" y2="10.0" /><path d="M 100.0 14.0 a86.0,86.0 0 0,1 42.35913384403234,11.155469271406648" fill="none" id="id13" stroke="none" /><text fill="#e1ed5e" style="font-size:6.75px; font-family:Arial;" text-anchor="middle"><textPath startOffset="22.145653131862478" xlink:href="#id13">January</textPath></text><path d="M 100.0 79.0 l 0.0 -24.779306549257015 a45.779306549257015,45.779306549257015 0 0,0 0.7858626721663807,0.006745685882309676 l -0.4253697473175259 24.775655261569142" fill="#c9ff1d" stroke="none" /><path d="M 100.36049292484886 79.00309439819443 l 0.1392768482354959 -8.112178168666762 a29.113373692900385,29.113373692900385 0 0,0 0.4996224886383063,0.012868503024345838 l -0.2785126509445435 8.108591948292371" fill="#ff6109" stroke="none" /><path d="M 101.08105385017728 79.02784411241856 l 0.5705727255476108 -11.068958445894665 a32.083654375343976,32.083654375343976 0 0,0 0.5497849633903602,0.03307369816106534 l -0.7605020410704335 11.057532769908908" fill="#ff8a0c" stroke="none" /><path d="M 101.44090949804482 79.04949213459386 l 1.124496240081204 -16.3499285377798 a37.38855255916346,37.38855255916346 0 0,0 0.6399335728685304,0.049534905762796615 l -1.4049988077249678 16.32821586502195" fill="#ffcf13" stroke="none" /><path d="M 101.80034050326958 79.07731436759882 l 0.8927390167561328 -10.374980602528053 a31.413318657127135,31.413318657127135 0 0,0 0.5368692276937451,0.05084207404342912 l -1.0707078078348908 10.35812677297944" fill="#ff810b" stroke="none" /><path d="M 102.15924093988457 79.11130261209362 l 0.15092107835186563 -1.460024528488776 a22.46780407264722,22.46780407264722 0 0,0 0.38330512233794783,0.04295013845594312 l -0.17596210229061016 1.457218629525862" fill="#ff0300" stroke="none" /><path d="M 102.87502721639298 79.19773525538626 l 2.300971149190243 -16.648681008044743 a37.80693450742983,37.80693450742983 0 0,0 0.6421325891778484,0.09437137755899606 l -2.5864288439757734 16.606728557186866" fill="#ffd413" stroke="none" /><path d="M 103.58742460773223 79.30868818359171 l 2.0138542101743937 -11.615375923355234 a32.788662630709965,32.788662630709965 0 0,0 0.5537618937345409,0.10091386381767463 l -2.212950837459988 11.579093885606193" fill="#ff930d" stroke="none" /><path d="M 103.94208987418118 79.37332000966035 l 3.5016692663337445 -18.32221326604744 a39.653824986241055,39.653824986241055 0 0,0 0.6675126902274555,0.1335212328286903 l -3.8156784420921572 18.25940263655589" fill="#ffeb16" stroke="none" /><path d="M 105.69591212413111 79.78721728523813 l 6.664562012054343 -23.650179445010313 a45.57127132636214,45.57127132636214 0 0,0 0.7511447282219778,0.21864728308485398 l -7.069566752657925 23.532288467622944" fill="#ccff1d" stroke="none" /><path d="M 106.04205211174951 79.88797359093562 l 3.351892420827463 -11.157359725006545 a32.64997248211337,32.64997248211337 0 0,0 0.5353963743190119,0.16586716535290208 l -3.542929428018105 11.098175971846997" fill="#ff910d" stroke="none" /><path d="M 106.38641147887787 79.99465700312896 l 4.931279749513297 -15.447163579862442 a37.21518987341772,37.21518987341772 0 0,0 0.6069217307508362,0.19950722789515166 l -5.195724217911875 15.360235430565268" fill="#ffcd13" stroke="none" /><path d="M 108.07796709384702 80.6158196554323 l 7.593377983649266 -18.22134288856446 a40.74023115024766,40.74023115024766 0 0,0 0.64323960375577,0.2745607374521791 l -7.905052662575467 18.08830750145288" fill="#fff917" stroke="none" /><path d="M 108.4095320186766 80.7573450057729 l 1.7263376130800059 -3.9501983009613153 a25.31095211887727,25.31095211887727 0 0,0 0.3966426239659696,0.1774132006094787 l -1.793893639901607 3.9199813494419837" fill="#ff2c04" stroke="none" /><path d="M 109.06512990194946 81.05736502329252 l 9.623905107793341 -20.110260247698807 a43.29444138690148,43.29444138690148 0 0,0 0.6676410050986773,0.32657667151117753 l -9.967706362154086 19.94208982609041" fill="#e6ff1a" stroke="none" /><path d="M 109.3889696526874 81.21577127319529 l 9.063430253612376 -18.1329318584565 a41.27187671986792,41.27187671986792 0 0,0 0.6310131487401266,0.3221998098934013 l -9.373370624066082 17.97467409689027" fill="#ffff18" stroke="none" /><path d="M 110.02825361518725 81.54914285379988 l 7.2521327739989285 -13.343107479420448 a36.186571271326365,36.186571271326365 0 0,0 0.5432393763804348,0.3013257246994055 l -7.480116338535463 13.216648839287897" fill="#ffbf11" stroke="none" /><line stroke="#e1ed5e" stroke-width="0.3" x1="143.13028292997686" x2="145.6673583964461" y1="26.7553504044142" y2="22.446841604673864" /><path d="M 143.63769802327073 25.89364864446614 a86.0,86.0 0 0,1 29.32050498858742,28.57503671076993" fill="none" id="id14" stroke="none" /><text fill="#e1ed5e" style="font-size:6.75px; font-family:Arial;" text-anchor="middle"><textPath startOffset="20.669276256404974" xlink:href="#id14">February</textPath></text><path d="M 111.27062007382361 82.28071324371311 l 13.404408354173263 -21.07395634580957 a45.97578425976885,45.97578425976885 0 0,0 0.6623016812777242,0.42929594810231536 l -13.764195667707995 20.84074655600336" fill="#c7ff1e" stroke="none" /><path d="M 112.16784306229584 82.88440491214696 l 6.730149850086582 -9.466798603903305 a32.61529994496423,32.61529994496423 0 0,0 0.4535374731561159,0.3283261547524398 l -6.891668333616666 9.349871677777791" fill="#ff910d" stroke="none" /><path d="M 112.45986205192187 83.09580414077388 l 10.292929521152852 -13.964335709795487 a38.34782608695652,38.34782608695652 0 0,0 0.5265467159020789,0.3951304719526685 l -10.531129225965696 13.785586210578803" fill="#ffdb14" stroke="none" /><path d="M 112.7482090630111 83.31218511350987 l 12.699096534975286 -16.623525010757913 a41.91909741331865,41.91909741331865 0 0,0 0.5680837263665576,0.44174534164633544 l -12.98259020597707 16.403078617490785" fill="#f7ff18" stroke="none" /><path d="M 113.03279911837588 83.53348406188908 l 9.848119531937305 -12.44277731591981 a36.868464501926255,36.868464501926255 0 0,0 0.4928949051000122,0.3970412453489421 l -10.060265207392577 12.27188777677746" fill="#ffc812" stroke="none" /><path d="M 113.59037401385872 83.9905735841838 l 11.675604752687658 -13.753833040775502 a39.04127682993946,39.04127682993946 0 0,0 0.507202926450775,0.43810980766878144 l -11.909987158901293 13.551379100642" fill="#ffe415" stroke="none" /><path d="M 114.13192950727249 84.46653392183569 l 15.858560410197363 -17.43133590169346 a44.56576774903687,44.56576774903687 0 0,0 0.5614654935681624,0.5196840786535841 l -16.15545567507949 17.1565340769075" fill="#d7ff1c" stroke="none" /><path d="M 114.39649973595853 84.71141617570332 l 16.638772397090207 -17.669799686859122 a45.27077600440286,45.27077600440286 0 0,0 0.5612013609606894,0.5376182089119662 l -16.939646243916208 17.381569347641577" fill="#cfff1d" stroke="none" /><path d="M 114.65682725009322 84.96080404539774 l 12.11588031350578 -12.431960552456019 a38.359383599339566,38.359383599339566 0 0,0 0.46763391144119665,0.46363706441996655 l -12.327506145076939 12.222143477807393" fill="#ffdb14" stroke="none" /><path d="M 116.57777611688842 87.10902102172516 l 16.860611042382935 -13.110913127051145 a42.35828288387452,42.35828288387452 0 0,0 0.4414298310382311,0.5778458189169883 l -17.083192850775472 12.819546394893274" fill="#f2ff19" stroke="none" /><path d="M 116.7966241395341 87.39550010848427 l 3.901032133672752 -2.927407239526493 a25.87727022564667,25.87727022564667 0 0,0 0.2635759923785438,0.3575914548965266 l -3.9507101456351217 2.860009475361091" fill="#ff3404" stroke="none" /><line stroke="#e1ed5e" stroke-width="0.3" x1="172.87174338648825" x2="177.1583165268699" y1="56.24261187166439" y2="53.66864786411523" /><path d="M 173.72905801456457 55.72781907015455 a86.0,86.0 0 0,1 12.242430191666344,42.057860355516425" fill="none" id="id15" stroke="none" /><text fill="#e1ed5e" style="font-size:6.75px; font-family:Arial;" text-anchor="middle"><textPath startOffset="22.145653131862474" xlink:href="#id15">March</textPath></text><path d="M 118.00360718960297 89.18935116829356 l 13.02957812566203 -7.8238872942729625 a36.19812878370941,36.19812878370941 0 0,0 0.31531378088803935,0.5354717341247006 l -13.161965616679838 7.599064391854705" fill="#ffc011" stroke="none" /><path d="M 118.18653347947321 89.5 l 10.019108427601916 -5.784534947716016 a32.56906989543203,32.56906989543203 0 0,0 0.27538953074835576,0.48658691351716304 l -10.116931323371649 5.611691264099735" fill="#ff900d" stroke="none" /><path d="M 118.36410011445183 89.81374322990088 l 10.207892743861501 -5.662146030710021 a32.67308750687947,32.67308750687947 0 0,0 0.2678487598444855,0.4928115496793046 l -10.303586853321328 5.486079647556114" fill="#ff920d" stroke="none" /><path d="M 118.70294669586156 90.45014215332178 l 12.64018631949256 -6.454169199626229 a35.19262520638415,35.19262520638415 0 0,0 0.2701119230986576,0.5404047870013098 l -12.749118155802956 6.236232556461168" fill="#ffb310" stroke="none" /><path d="M 118.8641267826498 90.77261029715802 l 7.267412629529374 -3.5548556917938265 a29.09025866813429,29.09025866813429 0 0,0 0.215573697146341,0.4504661157414059 l -7.3273655846356265 3.429577073987317" fill="#ff6108" stroke="none" /><path d="M 119.0197475246899 91.09779779509293 l 10.509535781391667 -4.9189934032618075 a32.60374243258118,32.60374243258118 0 0,0 0.23290799375008253,0.5089459995445107 l -10.592428239996801 4.7378584215026125" fill="#ff910d" stroke="none" /><path d="M 119.16976305983485 91.42560881287824 l 14.896920990911834 -6.66320327804949 a37.31920748486516,37.31920748486516 0 0,0 0.25655376718062894,0.5870452265788566 l -15.009108640109433 6.406495981694785" fill="#ffce13" stroke="none" /><path d="M 119.31412917781788 91.75594674310238 l 7.472665279034656 -3.18963645547552 a29.124931205283435,29.124931205283435 0 0,0 0.1923273922774146,0.46151572713702804 l -7.526318515848553 3.060888218897214" fill="#ff6109" stroke="none" /><path d="M 119.58574465831526 92.42381321644754 l 11.210332660785847 -4.336397498566071 a33.01981287837094,33.01981287837094 0 0,0 0.19995747734845523,0.5304109650441889 l -11.283120821948742 4.143318253327725" fill="#ff960d" stroke="none" /><path d="M 119.94978838288452 93.4421083053983 l 25.735995580341953 -8.459932929084404 a48.09080902586682,48.09080902586682 0 0,0 0.25106902457393115,0.7864701435388766 l -25.87742932069314 8.01689375185414" fill="#afff20" stroke="none" /><path d="M 120.05942366710727 93.78553927170692 l 24.044812739108217 -7.449144450314981 a46.17226197028069,46.17226197028069 0 0,0 0.2280550916816229,0.759121229309334 l -24.169144150793468 7.035285617414924" fill="#c5ff1e" stroke="none" /><path d="M 120.26092885502905 94.47779374421319 l 15.064675224625349 -4.1059442221067615 a36.61419922949918,36.61419922949918 0 0,0 0.16007469719901735,0.607829698484851 l -15.132939402629097 3.8467340192491117" fill="#ffc512" stroke="none" /><path d="M 120.35273937422433 94.82641323984039 l 8.658595231852175 -2.200981048763555 a29.933957072096863,29.933957072096863 0 0,0 0.12231937607198998,0.49910479596314483 l -8.695102134440457 2.052020428192315" fill="#ff6d0a" stroke="none" /><path d="M 120.592083275326 95.88100663000786 l 17.362174781397595 -3.4729212123433975 a38.70610897083104,38.70610897083104 0 0,0 0.12473266216128591,0.6526539954339183 l -17.419233735841036 3.1743646518761643" fill="#ffdf14" stroke="none" /><path d="M 120.65975698304385 96.23510406497455 l 31.586573967471548 -5.756125981013046 a53.106769400110075,53.106769400110075 0 0,0 0.15574238504302879,0.8982806899999322 l -31.680731170006812 5.213052258092521" fill="#78ff26" stroke="none" /><path d="M 120.7213421655516 96.59031103205396 l 12.578778430711843 -2.0698332039870584 a33.74793615850302,33.74793615850302 0 0,0 0.08915643530889687,0.5724482711943817 l -12.612456358159005 1.8535967508612357" fill="#ffa00e" stroke="none" /><path d="M 120.93736805541906 98.37931529534042 l 25.362216340108617 -1.9631959465909354 a46.43808475509081,46.43808475509081 0 0,0 0.054699727043899,0.795322026278418 l -25.392180028317583 1.5275304961581833" fill="#c2ff1e" stroke="none" /><line stroke="#e1ed5e" stroke-width="0.3" x1="184.99686870605535" x2="189.99668451229388" y1="99.2704041080226" y2="99.22748670261217" /><path d="M 185.99683186730306 99.26182062694052 a86.0,86.0 0 0,1 -10.086455211305974,41.156179273409016" fill="none" id="id16" stroke="none" /><text fill="#e1ed5e" style="font-size:6.75px; font-family:Arial;" text-anchor="middle"><textPath startOffset="21.40746469413373" xlink:href="#id16">April</textPath></text><path d="M 120.99922638620191 100.18025310272382 l 12.80525197353424 0.10991768729664213 a33.80572372041827,33.80572372041827 0 0,0 -0.009962334933348952,0.5802560653772522 l -12.801478207002221 -0.32972066864296534" fill="#ffa10e" stroke="none" /><path d="M 120.98066250479742 100.90099992219065 l 56.683584059466455 2.434236993964706 a77.73582828838745,77.73582828838745 0 0,0 -0.06869778168139362,1.3327186118591687 l -56.63344468832849 -3.4069273992006055" fill="#45fff1" stroke="none" /><path d="M 120.96210409425399 101.26102812881392 l 8.61788209048307 0.5184303864744048 a29.63346175013759,29.63346175013759 0 0,0 -0.034905450507853916,0.5075175896908439 l -8.60771267881015 -0.6662914003195921" fill="#ff6809" stroke="none" /><path d="M 120.93736805541906 101.62068470465957 l 24.39428077783277 1.8882716124184418 a45.46725371491469,45.46725371491469 0 0,0 -0.06691562372431904,0.7776609794299196 l -24.35827153141071 -2.3067536392240187" fill="#cdff1d" stroke="none" /><path d="M 120.82617615685814 102.69636545807757 l 13.272818926605238 1.718432141141348 a34.38359933957072,34.38359933957072 0 0,0 -0.08081043657030801,0.5847040633487876 l -13.24136397347972 -1.9460245126902205" fill="#ffa80f" stroke="none" /><path d="M 120.77682067341334 103.0534771498775 l 62.33046202024003 9.160431449632462 a84.0,84.0 0 0,0 -0.2219140314469299,1.4248472722741976 l -62.16402649665483 -10.22906690383811" fill="#4dd2ff" stroke="none" /><path d="M 120.7213421655516 103.40968896794604 l 11.41555504002045 1.8784252377072002 a32.56906989543203,32.56906989543203 0 0,0 -0.0955129577913504,0.5508933589597045 l -11.381627264736865 -2.0741116295874926" fill="#ff900d" stroke="none" /><path d="M 120.65975698304385 103.76489593502545 l 59.61425749152387 10.863703570356869 a81.59603742432581,81.59603742432581 0 0,0 -0.26294792321846766,1.3758546454952116 l -59.41898327602325 -11.885460780885394" fill="#4ae8ff" stroke="none" /><path d="M 120.51834098615036 104.47187691870673 l 14.939881741704424 3.256077690395706 a36.290588882773804,36.290588882773804 0 0,0 -0.13788546764388268,0.6075488120151276 l -14.881785412502877 -3.5120608363498507" fill="#ffc111" stroke="none" /><path d="M 120.43855184770803 104.8234425847677 l 11.28226059617565 2.662582780694558 a32.59218492019813,32.59218492019813 0 0,0 -0.13318171448764207,0.5434268434811003 l -11.234891355171712 -2.8558654487837574" fill="#ff900d" stroke="none" /><path d="M 120.35273937422433 105.17358676015961 l 6.922395670484663 1.7596459096195034 a28.14254265272427,28.14254265272427 0 0,0 -0.12303721202007803,0.46719233453617176 l -6.891168977659855 -1.8782187485284785" fill="#ff5407" stroke="none" /><path d="M 120.26092885502905 105.52220625578681 l 16.804193607335602 4.580057692609089 a38.417171161254814,38.417171161254814 0 0,0 -0.17888042506554597,0.6347835228103466 l -16.723094690195474 -4.867849139322444" fill="#ffdc14" stroke="none" /><path d="M 120.16314734710363 105.8691983318838 l 24.00268998997532 6.986833237129692 a45.99889928453494,45.99889928453494 0 0,0 -0.2271988147416367,0.7562709618651186 l -23.879214855230053 -7.397841802585534" fill="#c7ff1e" stroke="none" /><path d="M 119.71291397450082 107.23885506374661 l 15.06947579008346 5.533720244107891 a37.053384700055034,37.053384700055034 0 0,0 -0.224383504507927,0.5952039040712859 l -14.972261601761094 -5.7915924283733355" fill="#ffcb12" stroke="none" /><path d="M 119.4528033332814 107.91128576633889 l 22.632485551214568 9.204434843170283 a45.43258117776555,45.43258117776555 0 0,0 -0.30001546787400957,0.7199279061014513 l -22.471144238804072 -9.591595258713012" fill="#cdff1d" stroke="none" /><path d="M 119.31412917781788 108.2440532568976 l 3.8692036437675874 1.6515329584538956 a25.20693450742983,25.20693450742983 0 0,0 -0.17328701338524924,0.3965145986895337 l -3.8402827483653725 -1.717709626919274" fill="#ff2a04" stroke="none" /><path d="M 119.16976305983485 108.57439118712176 l 13.651994165892289 6.106363344048189 a35.95542102366538,35.95542102366538 0 0,0 -0.25685103458223474,0.5612658647936725 l -13.545158666454997 -6.33981819105655" fill="#ffbd11" stroke="none" /><path d="M 118.8641267826498 109.22738970284198 l 17.919363140810997 8.765258462908774 a40.948266373142545,40.948266373142545 0 0,0 -0.314287863231058,0.6287862595552277 l -17.766255364368206 -9.071576578627747" fill="#fffb17" stroke="none" /><line stroke="#e1ed5e" stroke-width="0.3" x1="174.33088141563837" x2="178.70328620479359" y1="141.23008692659167" y2="143.65538615756765" /><path d="M 175.20536237346943 141.71514677278685 a86.0,86.0 0 0,1 -30.301960400862466,31.631185727798858" fill="none" id="id17" stroke="none" /><text fill="#e1ed5e" style="font-size:6.75px; font-family:Arial;" text-anchor="middle"><textPath startOffset="22.145653131862474" xlink:href="#id17">May</textPath></text><path d="M 118.36410011445183 110.18625677009912 l 42.66090620974199 23.663285540224752 a69.78425976884975,69.78425976884975 0 0,0 -0.5900645800775551,1.042587574100989 l -42.248408264643054 -24.392129884424865" fill="#3bff9e" stroke="none" /><path d="M 117.81537515405839 111.11811171558189 l 6.657479212771404 4.154759413803029 a28.84755090809026,28.84755090809026 0 0,0 -0.2657852733636647,0.4178585954881865 l -6.58517624778185 -4.268431683969887" fill="#ff5e08" stroke="none" /><path d="M 117.423217284605 111.72311816256416 l 9.608180362781622 6.4648125475450104 a32.58062740781508,32.58062740781508 0 0,0 -0.31620315460517995,0.46134985241471976 l -9.495787471361123 -6.628797135029774" fill="#ff900d" stroke="none" /><path d="M 117.01052211995028 112.31430620078461 l 13.303220656273723 9.630505840019225 a37.423225096312606,37.423225096312606 0 0,0 -0.3811786794648127,0.5171420861790728 l -13.135939957225082 -9.857454235467175" fill="#ffcf13" stroke="none" /><path d="M 116.79662413953412 112.60449989151573 l 6.359976559163164 4.772644978185374 a28.9515685195377,28.9515685195377 0 0,0 -0.3017139772853426,0.3949532814153013 l -6.277110604523518 -4.881119172841553" fill="#ff5f08" stroke="none" /><path d="M 116.57777611688842 112.89097897827486 l 16.07597221681749 12.500773230445947 a41.3643368189323,41.3643368189323 0 0,0 -0.4406947962211617,0.5568034786622729 l -15.859010989954765 -12.774896653022903" fill="#feff18" stroke="none" /><path d="M 115.89218393027572 113.72728997021213 l 13.128325855445159 11.339935192783926 a38.34782608695652,38.34782608695652 0 0,0 -0.4345884919017134,0.4944819274750299 l -12.93172629958486 -11.56362939807025" fill="#ffdb14" stroke="none" /><path d="M 115.41159269507618 114.26474011684316 l 13.129964497511244 12.152899119908204 a38.891029168959825,38.891029168959825 0 0,0 -0.4576995704333986,0.48606108271148435 l -12.919409093341587 -12.376501662564186" fill="#ffe215" stroke="none" /><path d="M 115.16444852881244 114.52719865689866 l 2.804212826461739 2.6863724538899003 a24.883324160704458,24.883324160704458 0 0,0 -0.29814156143220266,0.3059195068674527 l -2.7576844638787295 -2.7341146528250904" fill="#ff2603" stroke="none" /><path d="M 114.91283532996324 114.78537596483092 l 16.43941065818183 16.29890371907338 a44.14969730324711,44.14969730324711 0 0,0 -0.5382228206403601,0.5336226532341838 l -16.157195917411507 -16.578706382536225" fill="#dcff1b" stroke="none" /><path d="M 113.86319453409587 115.77377054828091 l 11.833689995807756 13.464566934718597 a38.92570170610897,38.92570170610897 0 0,0 -0.5057014376217405,0.43681285737965375 l -11.60080907842316 -13.665723924562968" fill="#ffe215" stroke="none" /><path d="M 113.31354834802062 116.24036423190432 l 11.283909992268443 13.76453545246707 a38.798569069895436,38.798569069895436 0 0,0 -0.5186984941757938,0.41782679016815866 l -11.045960727737397 -13.956210536428632" fill="#ffe115" stroke="none" /><path d="M 112.16784306229584 117.11559508785304 l 8.759239804888804 12.320967735229372 a36.11722619702807,36.11722619702807 0 0,0 -0.5084013979537726,0.35490366021408565 l -8.546443315761273 -12.46951621124858" fill="#ffbf11" stroke="none" /><path d="M 111.27062007382361 117.71928675628689 l 8.460718646502698 13.301655000316634 a36.76444689047881,36.76444689047881 0 0,0 -0.5354231735387545,0.3341436600148799 l -8.231131344174228 -13.444934457173062" fill="#ffc712" stroke="none" /><path d="M 110.96478420261333 117.91015095944535 l 18.40538900273563 30.06381971728581 a56.25041276829939,56.25041276829939 0 0,0 -0.8278647627049841,0.49710900351769993 l -17.88659148347321 -30.375342721339432" fill="#57ff2a" stroke="none" /><line stroke="#e1ed5e" stroke-width="0.3" x1="143.1302829299769" x2="145.66735839644613" y1="173.24464959558577" y2="177.55315839532614" /><path d="M 143.63769802327073 174.10635135553383 a86.0,86.0 0 0,1 -40.68552437913181,11.842963189579606" fill="none" id="id18" stroke="none" /><text fill="#e1ed5e" style="font-size:6.75px; font-family:Arial;" text-anchor="middle"><textPath startOffset="21.407464694133747" xlink:href="#id18">June</textPath></text><path d="M 110.65571695917076 118.09573695890943 l 1.9411350101736504 3.296471619922411 a24.825536598789213,24.825536598789213 0 0,0 -0.3690818816928255,0.21308952374836723 l -1.8842606606204262 -3.32930804094695" fill="#ff2503" stroke="none" /><path d="M 109.71004243097381 118.62028667847754 l 3.211742157961067 6.158939071967531 a27.946064942212438,27.946064942212438 0 0,0 -0.42727241491280016,0.2181683394909642 l -3.1055425213346846 -6.213165363131331" fill="#ff5107" stroke="none" /><path d="M 108.73861861582097 119.09545874513695 l 8.512578398460711 18.601520076440508 a41.4567969179967,41.4567969179967 0 0,0 -0.6496607726785174,0.29058500026767586 l -8.192004222926567 -18.744908827618033" fill="#fdff18" stroke="none" /><path d="M 108.4095320186766 119.2426549942271 l 3.2444039323567924 7.423831123254373 a29.101816180517336,29.101816180517336 0 0,0 -0.4594829282998648,0.19612593954739735 l -3.1164859288864966 -7.478431712461174" fill="#ff6109" stroke="none" /><path d="M 107.74402155503746 119.51999308798841 l 1.6366011431669714 4.125303987775205 a25.43808475509081,25.43808475509081 0 0,0 -0.40728522303342973,0.15754667375243406 l -1.5655436576400124 -4.15279054966568" fill="#ff2e04" stroke="none" /><path d="M 107.407793817531 119.65005319985036 l 4.134013720955657 10.965962545210935 a32.71931755641167,32.71931755641167 0 0,0 -0.5272653338839661,0.19361913398806183 l -3.945159235417564 -11.035312528207719" fill="#ff920d" stroke="none" /><path d="M 106.72888874123015 119.89276391827305 l 4.4883946914534585 13.26914136981119 a35.007705008255364,35.007705008255364 0 0,0 -0.5709210939268096,0.18767310350758598 l -4.259950859878915 -13.344235394720798" fill="#ffb010" stroke="none" /><path d="M 106.38641147887787 120.00534299687104 l 1.1915209088275178 3.732422276246162 a24.917996697853603,24.917996697853603 0 0,0 -0.40860693204665816,0.1265874720357043 l -1.1272733439092353 -3.752326336088511" fill="#ff2603" stroke="none" /><path d="M 105.69591212413111 120.21278271476187 l 3.137924070586263 11.135385524202878 a32.56906989543203,32.56906989543203 0 0,0 -0.5394346792328173,0.14702532058437406 l -2.9463079904187506 -11.187611338931394" fill="#ff900d" stroke="none" /><path d="M 105.3480935250658 120.30758222061773 l 2.0691853319324496 7.85703373753124 a29.124931205283435,29.124931205283435 0 0,0 -0.4845760380143086,0.12317733394337897 l -1.9340040006927437 -7.8913963033098895" fill="#ff6109" stroke="none" /><path d="M 104.29559338865022 120.5559693870025 l 4.548553483634022 21.766475014085216 a43.23665382498624,43.23665382498624 0 0,0 -0.7278242419530455,0.14558523229732262 l -4.174232756150017 -21.8413496430454" fill="#e7ff1a" stroke="none" /><path d="M 103.94208987418118 120.62667999033965 l 3.7880511394168037 19.82068423947883 a41.17941662080352,41.17941662080352 0 0,0 -0.6954718460966336,0.12673813774493747 l -3.447244559769113 -19.882790551155132" fill="#fffe18" stroke="none" /><path d="M 102.875027216393 120.80226474461374 l 1.1091877152952594 8.025529766634138 a29.101816180517336,29.101816180517336 0 0,0 -0.49545450989489687,0.06414650565074637 l -0.9712553835095871 -8.04338786848528" fill="#ff6109" stroke="none" /><path d="M 102.51750503828377 120.84855314841334 l 3.052318986978061 25.277579849176995 a46.46119977985691,46.46119977985691 0 0,0 -0.7926371356988371,0.08881664433790709 l -2.617945949678425 -25.326252254021874" fill="#c1ff1e" stroke="none" /><path d="M 102.15924093988457 120.88869738790638 l 1.435532776764202 13.88747740483814 a34.96147495872317,34.96147495872317 0 0,0 -0.5975089822566477,0.05658472184745147 l -1.1969242311225392 -13.910073882190774" fill="#ffb010" stroke="none" /><path d="M 101.80034050326958 120.92268563240118 l 2.526155059772893 29.357750980073128 a50.46623494771602,50.46623494771602 0 0,0 -0.8637680741507949,0.06686111179036769 l -2.0218179908468623 -29.396789858858547" fill="#94ff23" stroke="none" /><path d="M 100.72087961077811 120.9876233191556 l 0.6451019521877867 18.781439469976345 a39.79251513483764,39.79251513483764 0 0,0 -0.6828901263920908,0.017588827277817673 l -0.322598511724952 -18.78974601460421" fill="#ffed16" stroke="none" /><line stroke="#e1ed5e" stroke-width="0.3" x1="101.45913802915013" x2="101.54496967792366" y1="184.9874750549273" y2="189.98673829345242" /><path d="M 101.47630435890484 185.9873277026323 a86.0,86.0 0 0,1 -42.54439059252881,-10.42667462771756" fill="none" id="id19" stroke="none" /><text fill="#e1ed5e" style="font-size:6.75px; font-family:Arial;" text-anchor="middle"><textPath startOffset="22.145653131862474" xlink:href="#id19">July</textPath></text><path d="M 100.36049292484886 120.99690560180557 l 0.1392768482354959 8.112178168666762 a29.113373692900385,29.113373692900385 0 0,0 -0.49976977308434717,0.004289922428058085 l -9.936017123296797e-16 -8.113373692900385" fill="#ff6109" stroke="none" /><path d="M 100.0 121.0 l 1.571079630606758e-16 1.2828838745184363 a22.282883874518436,22.282883874518436 0 0,0 -0.3825153324758321,-0.003283434077529173 l 0.022022407626979795 -1.282694838635342" fill="#ff0000" stroke="none" /><path d="M 99.63950707515114 120.99690560180557 l -0.2089152723532409 12.168267253000145 a33.17006053935058,33.17006053935058 0 0,0 -0.5692403899928261,-0.014661613211537626 l 0.4177689764168109 -12.16288792243856" fill="#ff980e" stroke="none" /><path d="M 99.27912038922189 120.98762331915562 l -0.2447896091635065 7.126782381903697 a28.130985140341224,28.130985140341224 0 0,0 -0.4824788655462623,-0.02071971846534574 l 0.36709423531060753 -7.121530095012522" fill="#ff5407" stroke="none" /><path d="M 98.91894614982273 120.97215588758144 l -0.18860433159394252 3.658873646870289 a24.663731425426526,24.663731425426526 0 0,0 -0.42263728813943835,-0.025424809753499075 l 0.2513859718658272 -3.6550968592920983" fill="#ff2303" stroke="none" /><path d="M 98.19965949673042 120.92268563240118 l -0.366607587347136 4.260535874512073 a25.276279581728122,25.276279581728122 0 0,0 -0.4319841798992689,-0.04090935096871945 l 0.4396913306314202 -4.25361476803817" fill="#ff2b04" stroke="none" /><path d="M 97.84075906011543 120.88869738790638 l -1.664885281661135 16.10625483789589 a37.19207484865163,37.19207484865163 0 0,0 -0.6345040553927507,-0.07109750285556841 l 1.9411252386546851 -16.075301574533352" fill="#ffcc13" stroke="none" /><path d="M 97.12497278360702 120.80226474461374 l -2.216793137130743 16.039610846012028 a37.19207484865163,37.19207484865163 0 0,0 -0.6316894937558999,-0.09283660215971185 l 2.4918077364943283 -15.999193170553434" fill="#ffcc13" stroke="none" /><path d="M 96.76829788921471 120.74984581791261 l -1.8515145279733012 11.888051456492592 a33.03137039075399,33.03137039075399 0 0,0 -0.5595238834751484,-0.09206944210202522 l 2.055315914501513 -11.8545160158949" fill="#ff960d" stroke="none" /><path d="M 96.41257539226777 120.69131181640829 l -4.165914101439185 24.027885488509348 a45.38635112823335,45.38635112823335 0 0,0 -0.7665220150495313,-0.1396858453338062 l 4.577770850039774 -23.952831469244177" fill="#ceff1d" stroke="none" /><path d="M 95.70440661134978 120.55596938700252 l -2.4515852196093944 11.73172275967067 a32.98514034122179,32.98514034122179 0 0,0 -0.5532669581557428,-0.12058195844048797 l 2.6526145943842736 -11.687909343096464" fill="#ff960d" stroke="none" /><path d="M 95.00130118170881 120.39639698878247 l -1.7881971556902985 7.296454618992076 a28.51238304898184,28.51238304898184 0 0,0 -0.47438455784974726,-0.12058669953902375 l 1.9131870067654244 -7.264682687617789" fill="#ff5908" stroke="none" /><path d="M 93.95794788825049 120.11202640906438 l -1.0241893508083921 3.4091932493075574 a24.559713813979087,24.559713813979087 0 0,0 -0.4027317859921731,-0.12476733676987939 l 1.082561769672199 -3.3911093247310293" fill="#ff2103" stroke="none" /><path d="M 93.61358852112213 120.00534299687104 l -2.407645494238494 7.5419152189634895 a28.916895982388553,28.916895982388553 0 0,0 -0.4715894938939712,-0.15502083360051847 l 2.536757725780209 -7.499473463960949" fill="#ff5f08" stroke="none" /><path d="M 93.27111125876986 119.89276391827306 l -3.7403289095445404 11.057617808175994 a32.67308750687947,32.67308750687947 0 0,0 -0.5297617955028746,-0.18427865224468615 l 3.9295964770924368 -10.991780723362718" fill="#ff920d" stroke="none" /><path d="M 92.93061703081489 119.77432235084164 l -4.703843703767087 13.157488014401517 a34.97303247110622,34.97303247110622 0 0,0 -0.5635835041797669,-0.2069556691797549 l 4.929016359600973 -13.074801496213043" fill="#ffb010" stroke="none" /><path d="M 91.92203290615298 119.3841803445677 l -7.1483562411649 17.153452711078923 a39.58332416070446,39.58332416070446 0 0,0 -0.6249734238023061,-0.26676399140424195 l 7.4417647401376374 -17.028214070015277" fill="#ffea16" stroke="none" /><path d="M 91.59046798132341 119.24265499422711 l -6.535090374447629 14.953565686212803 a37.31920748486516,37.31920748486516 0 0,0 -0.5848214761580375,-0.2615832076566199 l 6.790825253461302 -14.83917872764633" fill="#ffce13" stroke="none" /><path d="M 91.26138138417905 119.09545874513695 l -3.2511316369262335 7.104309362527565 a28.812878370941114,28.812878370941114 0 0,0 -0.4479871416171578,-0.2096806024736804 l 3.3726074924148812 -7.047452528483358" fill="#ff5d08" stroke="none" /><path d="M 90.6110303473126 118.78422872680471 l -5.203463093151463 10.410411848042015 a32.63841496973033,32.63841496973033 0 0,0 -0.49901459872363435,-0.254800409728074 l 5.38140491358868 -10.319553486641105" fill="#ff910d" stroke="none" /><path d="M 90.28995756902619 118.62028667847754 l -3.7407978545303635 7.173473128747541 a29.09025866813429,29.09025866813429 0 0,0 -0.4408021742791546,-0.23470232952244546 l 3.8633888445960802 -7.108200331502522" fill="#ff6108" stroke="none" /><path d="M 89.97174638481275 118.45085714620012 l -5.530165174693244 10.17488104595075 a32.58062740781508,32.58062740781508 0 0,0 -0.489106292563537,-0.27129901562683256 l 5.704015655412884 -10.07844911489077" fill="#ff900d" stroke="none" /><line stroke="#e1ed5e" stroke-width="0.3" x1="58.13341422392154" x2="55.67067388415222" y1="173.97424548756322" y2="178.32567169271397" /><path d="M 57.64086615596768 174.84453072859336 a86.0,86.0 0 0,1 -31.369924170532247,-30.572349798747897" fill="none" id="id20" stroke="none" /><text fill="#e1ed5e" style="font-size:6.75px; font-family:Arial;" text-anchor="middle"><textPath startOffset="22.145653131862474" xlink:href="#id20">August</textPath></text><path d="M 89.65649057296885 118.27599006163327 l -5.709708285807507 10.088507447340762 a32.59218492019813,32.59218492019813 0 0,0 -0.4845488390939311,-0.2797544026864039 l 5.882049592761838 -9.989006147378186" fill="#ff900d" stroke="none" /><path d="M 88.72937992617639 117.7192867562869 l -6.246293018349133 9.820210106538752 a32.63841496973033,32.63841496973033 0 0,0 -0.4701709270810153,-0.30475911448992926 l 6.413949577687159 -9.711537150344927" fill="#ff910d" stroke="none" /><path d="M 87.83215693770417 117.11559508785305 l -4.634093230109364 6.518432471543373 a28.997798569069897,28.997798569069897 0 0,0 -0.4032337066437808,-0.2919101071133621 l 4.745307947127098 -6.437921593056946" fill="#ff6008" stroke="none" /><path d="M 87.54013794807813 116.9041958592261 l -18.19949030588919 24.69110391325597 a51.673637864612,51.673637864612 0 0,0 -0.7095209062080152,-0.5324377155215132 l 18.62066420100797 -24.37504717047044" fill="#87ff25" stroke="none" /><path d="M 87.2517909369889 116.68781488649013 l -3.6062627729156356 4.720713732336778 a26.940561364887177,26.940561364887177 0 0,0 -0.36509599287577477,-0.28390085232357243 l 3.6867687104266387 -4.658111828392412" fill="#ff4306" stroke="none" /><path d="M 86.68645165197938 116.24036423190432 l -12.712716777003727 15.507447409110629 a41.052283984589984,41.052283984589984 0 0,0 -0.5411583737242472,-0.45145356232528183 l 12.977049484889866 -15.286931662873476" fill="#fffd17" stroke="none" /><path d="M 85.86807049272751 115.53346607816431 l -6.229870960553255 6.8477194984092495 a30.257567418822234,30.257567418822234 0 0,0 -0.3812024538800406,-0.3528353002891779 l 6.346503185747263 -6.739766451987695" fill="#ff710a" stroke="none" /><path d="M 85.60350026404147 115.28858382429668 l -7.218057930356752 7.665327387966031 a31.528893780957624,31.528893780957624 0 0,0 -0.3908494543530117,-0.37442493589783765 l 7.348579870575078 -7.540290321762611" fill="#ff820c" stroke="none" /><path d="M 84.3458050057657 113.99807769240083 l -6.03940049034576 5.400469159258656 a29.101816180517336,29.101816180517336 0 0,0 -0.32980525093685414,-0.37525783405126373 l 6.131216805241207 -5.295999047396092" fill="#ff6109" stroke="none" /><path d="M 84.1078160697243 113.72728997021213 l -18.46362150622566 15.948436503642155 a45.3979086406164,45.3979086406164 0 0,0 -0.5043608995839645,-0.5941358715124658 l 18.734676969316737 -15.629133849680136" fill="#ceff1d" stroke="none" /><path d="M 83.64595745247003 113.17365903436017 l -11.889757955579025 9.577547377209571 a36.267473858007705,36.267473858007705 0 0,0 -0.38639292275551984,-0.48819483544068926 l 12.052417308976107 -9.3720325978542" fill="#ffc111" stroke="none" /><path d="M 82.78059297857968 112.02048342749411 l -6.2926176456924034 4.392735826007755 a28.674188222344526,28.674188222344526 0 0,0 -0.27829018324775934,-0.4060336941613668 l 6.367097565755488 -4.284067396776337" fill="#ff5b08" stroke="none" /><path d="M 82.37810715431573 111.42229804090323 l -8.660622075506907 5.613710594676156 a31.32085855806274,31.32085855806274 0 0,0 -0.28857295305109426,-0.4536846128898178 l 8.755712720183892 -5.464212307107665" fill="#ff7f0b" stroke="none" /><path d="M 82.18462484594161 111.11811171558189 l -11.452040825503682 7.146920464391663 a34.49917446340121,34.49917446340121 0 0,0 -0.3092309444692444,-0.5051055081828273 l 11.57303973442833 -6.949277840084279" fill="#ffaa0f" stroke="none" /><path d="M 81.99639281039703 110.81064883170644 l -10.284944558507368 6.175813696924213 a32.99669785360484,32.99669785360484 0 0,0 -0.2874268341109007,-0.48811360182822766 l 10.38944510274804 -5.998348926802427" fill="#ff960d" stroke="none" /><line stroke="#e1ed5e" stroke-width="0.3" x1="26.387840678322732" x2="22.057713659400548" y1="142.50000000000003" y2="145.00000000000006" /><path d="M 25.521815274538298 143.00000000000003 a86.0,86.0 0 0,1 -11.493303480769221,-40.785679425670985" fill="none" id="id21" stroke="none" /><text fill="#e1ed5e" style="font-size:6.75px; font-family:Arial;" text-anchor="middle"><textPath startOffset="21.40746469413373" xlink:href="#id21">September</textPath></text><path d="M 81.81346652052679 110.50000000000001 l -5.00454966413682 2.8893780957622477 a26.77875619152449,26.77875619152449 0 0,0 -0.22642922027818735,-0.40007873620271617 l 5.053412249436385 -2.80304258946041" fill="#ff4106" stroke="none" /><path d="M 81.63589988554817 110.18625677009913 l -6.134842470815773 3.402893703604938 a28.01541001651073,28.01541001651073 0 0,0 -0.22966586270359987,-0.42255931956940074 l 6.192353683134702 -3.2970795505609503" fill="#ff5207" stroke="none" /><path d="M 81.4637452351635 109.86951160357371 l -7.181906083899224 3.8239604672074274 a29.13648871766648,29.13648871766648 0 0,0 -0.23127702703035383,-0.4435041943497789 l 7.2464911799045275 -3.7001100297531457" fill="#ff6209" stroke="none" /><path d="M 81.29705330413844 109.54985784667822 l -19.90726412206727 10.164790905600263 a43.35222894881673,43.35222894881673 0 0,0 -0.3327388583064252,-0.6657006095375693 l 20.078822893585436 -9.821558439898942" fill="#e6ff1a" stroke="none" /><path d="M 81.1358732173502 109.22738970284198 l -12.624533939296738 6.175292173173275 a35.05393505778756,35.05393505778756 0 0,0 -0.25976758976752173,-0.5428143540102023 l 12.728680787024171 -5.957665317097968" fill="#ffb110" stroke="none" /><path d="M 80.9802524753101 108.90220220490708 l -11.80752625638426 5.526518484939561 a34.03687396807925,34.03687396807925 0 0,0 -0.2431457077610676,-0.5313172522717343 l 11.900656429000385 -5.323012250453138" fill="#ffa40f" stroke="none" /><path d="M 80.68587082218212 108.24405325689762 l -11.99027942354351 5.117937299824166 a34.03687396807925,34.03687396807925 0 0,0 -0.22476355962578431,-0.5393507208010052 l 12.07636882770578 -4.911354069581879" fill="#ffa40f" stroke="none" /><path d="M 80.5471966667186 107.91128576633889 l -7.5156125151147695 3.0565341816014895 a29.113373692900385,29.113373692900385 0 0,0 -0.1843033559495501,-0.4645648528558222 l 7.566974546030444 -2.9270683115321017" fill="#ff6109" stroke="none" /><path d="M 80.41425534168474 107.57618678355246 l -10.800724352026359 4.177952205349239 a32.58062740781508,32.58062740781508 0 0,0 -0.19729790992135665,-0.5233561464681923 l 10.870852945762152 -3.991927778686902" fill="#ff900d" stroke="none" /><path d="M 80.28708602549918 107.23885506374661 l -8.863759338011658 3.2548952047776445 a30.44248761695102,30.44248761695102 0 0,0 -0.17592833907773997,-0.49210287556007315 l 8.918327847133341 -3.10225737283665" fill="#ff730a" stroke="none" /><path d="M 80.16572619554312 106.89939002012753 l -10.992357579024816 3.8237125758219173 a32.63841496973033,32.63841496973033 0 0,0 -0.17953394027497785,-0.5307601933323982 l 11.05637694087216 -3.634450708015357" fill="#ff910d" stroke="none" /><path d="M 80.05021161711548 106.5578916946017 l -14.74549576126247 4.8471373394882065 a36.52173913043478,36.52173913043478 0 0,0 -0.19067005951781765,-0.5972712457541014 l 14.826530536557541 -4.593297060042713" fill="#ffc412" stroke="none" /><path d="M 79.94057633289273 106.21446072829308 l -6.623915355126228 2.0521059091776825 a27.934507429829388,27.934507429829388 0 0,0 -0.13797475759561204,-0.45927309417788736 l 6.65816643272547 -1.9380952114090717" fill="#ff5107" stroke="none" /><path d="M 79.83685265289637 105.86919833188381 l -5.570665915380311 1.621539660212257 a26.80187121629059,26.80187121629059 0 0,0 -0.12479654203580652,-0.44285890174405784 l 5.597680949490693 -1.5256728345652035" fill="#ff4106" stroke="none" /><path d="M 79.73907114497094 105.5222062557868 l -7.749777410151456 2.1122362948661677 a29.03247110621904,29.03247110621904 0 0,0 -0.12692791646588425,-0.4819659730410125 l 7.784894807422073 -1.9788898174523526" fill="#ff6008" stroke="none" /><path d="M 79.56144815229197 104.8234425847677 l -12.778313097961655 3.0156470975762866 a34.129334067143645,34.129334067143645 0 0,0 -0.1296738171822846,-0.571366764930135 l 12.828197776701607 -2.7958459987071254" fill="#ffa50f" stroke="none" /><path d="M 79.48165901384964 104.47187691870673 l -25.473282064082888 5.551783264688337 a47.071256136488714,47.071256136488714 0 0,0 -0.16529248485129758,-0.7909843765665524 l 25.564832259758553 -5.113682436836376" fill="#baff1f" stroke="none" /><path d="M 79.34024301695615 103.76489593502545 l -15.645473642635299 2.851126475836558 a36.9031370390754,36.9031370390754 0 0,0 -0.10822316331716887,-0.6242024468269387 l 15.692111623444701 -2.5821309960890266" fill="#ffc912" stroke="none" /><path d="M 79.2786578344484 103.40968896794605 l -10.666302326604523 1.7551359888387108 a31.809741331865713,31.809741331865713 0 0,0 -0.08403604688378992,-0.5395717043863898 l 10.694859865626581 -1.571776102520871" fill="#ff860c" stroke="none" /><path d="M 79.22317932658666 103.0534771498775 l -10.302650207344758 1.5141347892347965 a31.413318657127135,31.413318657127135 0 0,0 -0.07382950137750817,-0.5341934938426898 l 10.327124225277478 -1.3370529871920211" fill="#ff810b" stroke="none" /><path d="M 79.13060592940153 102.33845913500099 l -19.88162968420801 2.2277780752265826 a41.00605393505779,41.00605393505779 0 0,0 -0.07238077681620739,-0.7002183571492347 l 19.916942853505883 -1.8861551957944163" fill="#fffc17" stroke="none" /><path d="M 79.0935383218832 101.97986365728391 l -25.336284323177328 2.399372467440384 a46.44964226747386,46.44964226747386 0 0,0 -0.0683614366415959,-0.7944635171145925 l 25.373739382516664 -1.9640879029501292" fill="#c1ff1e" stroke="none" /><path d="M 79.06263194458094 101.62068470465958 l -12.064625401223859 0.9338783080784672 a33.10071546505228,33.10071546505228 0 0,0 -0.03898955158131576,-0.5668995229620036 l 12.078878913970241 -0.7266353609621201" fill="#ff970d" stroke="none" /><path d="M 79.01933749520258 100.90099992219065 l -11.569963582722629 0.49686401873144215 a32.58062740781508,32.58062740781508 0 0,0 -0.01919978390527524,-0.5589807596003005 l 11.576788053624751 -0.29817699456702174" fill="#ff900d" stroke="none" /><line stroke="#e1ed5e" stroke-width="0.3" x1="15.003131293944662" x2="10.003315487706104" y1="100.72959589197737" y2="100.7725132973878" /><path d="M 14.003168132696942 100.73817937305945 a86.0,86.0 0 0,1 10.791469493833604,-42.45332614584628" fill="none" id="id22" stroke="none" /><text fill="#e1ed5e" style="font-size:6.75px; font-family:Arial;" text-anchor="middle"><textPath startOffset="22.145653131862435" xlink:href="#id22">October</textPath></text><path d="M 79.00077361379809 100.18025310272382 l -39.14385237758165 0.33600289429035946 a60.1452944413869,60.1452944413869 0 0,0 0.0,-1.0325119940283396 l 39.14385237758165 0.3360028942903451" fill="#30ff2f" stroke="none" /><path d="M 79.01933749520258 99.09900007780938 l -17.689804599532003 -0.7596763240484502 a38.70610897083104,38.70610897083104 0 0,0 0.03420589813425753,-0.6635852856254219 l 17.674157111941177 1.0632334030505841" fill="#ffdf14" stroke="none" /><path d="M 79.06263194458094 98.37931529534042 l -25.512015891413203 -1.9747913792604967 a46.58833241607044,46.58833241607044 0 0,0 0.06856555140638274,-0.7968356400818003 l 25.474356717309078 2.4124480667179777" fill="#c0ff1e" stroke="none" /><path d="M 79.0935383218832 98.0201363427161 l -19.34164121129023 -1.8316735321377244 a40.42817831590534,40.42817831590534 0 0,0 0.07136075459501391,-0.6903505674487459 l 19.307348064213553 2.163428621869383" fill="#fff517" stroke="none" /><path d="M 79.13060592940154 97.66154086499901 l -14.173270381463134 -1.5881445088559303 a35.26197028068245,35.26197028068245 0 0,0 0.07256898999546063,-0.6009753394092439 l 14.143919305208005 1.8312135251886106" fill="#ffb410" stroke="none" /><path d="M 79.22317932658666 96.9465228501225 l -11.537596070156333 -1.6956293033717038 a32.66152999449642,32.66152999449642 0 0,0 0.08628633088456575,-0.5540201419161928 l 11.5067882471335 1.8934376272193465" fill="#ff910d" stroke="none" /><path d="M 79.2786578344484 96.59031103205396 l -11.552404850690026 -1.9009438219754196 a32.70776004402862,32.70776004402862 0 0,0 0.09591968436817659,-0.5532392497714489 l 11.518070348829616 2.0989761046674613" fill="#ff920d" stroke="none" /><path d="M 79.48165901384962 95.52812308129327 l -17.006395996225894 -3.706464853919826 a38.405613648871764,38.405613648871764 0 0,0 0.14592146782822785,-0.6429569115688913 l 16.940263666840007 3.9978560994277257" fill="#ffdc14" stroke="none" /><path d="M 79.56144815229197 95.17655741523228 l -13.621951726788344 -3.2147435168705014 a34.996147495872314,34.996147495872314 0 0,0 0.14300504662006,-0.5835093908016619 l 13.564759153651986 3.4481087322802813" fill="#ffb010" stroke="none" /><path d="M 79.73907114497095 94.47779374421319 l -15.611062408938187 -4.254864478867111 a37.18051733626858,37.18051733626858 0 0,0 0.173122240504166,-0.6143497571843736 l 15.535721676359438 4.522222159954497" fill="#ffcc13" stroke="none" /><path d="M 80.05021161711548 93.44210830539832 l -3.8977297060671474 -1.2812611731335157 a25.10291689598239,25.10291689598239 0 0,0 0.138083469644922,-0.4082192421805839 l 3.8751608148498606 1.3479820897882613" fill="#ff2904" stroke="none" /><path d="M 80.16572619554312 93.10060997987247 l -11.385331633488464 -3.960409351124385 a33.05448541552009,33.05448541552009 0 0,0 0.1910231775863084,-0.5343258253993202 l 11.315668285858212 4.155270132904627" fill="#ff970d" stroke="none" /><path d="M 80.5471966667186 92.08871423366112 l -22.68601555488348 -9.226205029648911 a45.49036873968079,45.49036873968079 0 0,0 0.3003970698428291,-0.720843611909293 l 22.52429264050417 9.614281150999467" fill="#cdff1d" stroke="none" /><path d="M 80.9802524753101 91.09779779509293 l -8.855644692288196 -4.144888863704668 a30.777655476059437,30.777655476059437 0 0,0 0.22807817063994112,-0.47659565602678744 l 8.783187263688351 4.296297021796542" fill="#ff780b" stroke="none" /><line stroke="#e1ed5e" stroke-width="0.3" x1="26.387840678322718" x2="22.05771365940052" y1="57.49999999999999" y2="54.99999999999999" /><path d="M 25.521815274538284 56.99999999999999 a86.0,86.0 0 0,1 29.574782752854787,-30.34633250058573" fill="none" id="id23" stroke="none" /><text fill="#e1ed5e" style="font-size:6.75px; font-family:Arial;" text-anchor="middle"><textPath startOffset="21.40746469413373" xlink:href="#id23">November</textPath></text><path d="M 82.576782715395 88.27688183743585 l -6.491754596410338 -4.367942210267436 a28.82443588332416,28.82443588332416 0 0,0 0.27974837445382966,-0.4081612387095946 l 6.415816485141195 4.4787381840470655" fill="#ff5d08" stroke="none" /><path d="M 83.2033758604659 87.39550010848427 l -39.35235495982206 -29.530740802522 a70.20033021463951,70.20033021463951 0 0,0 0.7315811169785034,-0.957663166194204 l 38.83962186548925 30.20192488195709" fill="#3cffa2" stroke="none" /><path d="M 84.58840730492382 85.73525988315684 l -9.347041909726991 -8.651482448410103 a33.736378646119974,33.736378646119974 0 0,0 0.3970356749167986,-0.4216381279152294 l 9.19715040107392 8.810662036269845" fill="#ffa00e" stroke="none" /><path d="M 84.83555147118756 85.47280134310135 l -8.996849484898087 -8.618778289563426 a33.458998348926805,33.458998348926805 0 0,0 0.4008916954696901,-0.41135019618267515 l 8.847570988277594 8.771951177813833" fill="#ff9c0e" stroke="none" /><path d="M 85.08716467003674 85.21462403516908 l -2.4704256655580292 -2.44931104315581 a24.478811227297744,24.478811227297744 0 0,0 0.2984177838000604,-0.2958672197774737 l 2.428015961627992 2.491358273161957" fill="#ff2003" stroke="none" /><path d="M 85.34317274990677 84.96080404539775 l -8.953813014641433 -9.187400940896254 a33.82883874518437,33.82883874518437 0 0,0 0.41936083317130746,-0.40173819185228454 l 8.794779695604825 9.339751263054106" fill="#ffa10e" stroke="none" /><path d="M 86.13680546590413 84.22622945171909 l -8.942027514562668 -10.17438584622192 a34.54540451293341,34.54540451293341 0 0,0 0.44879501100101576,-0.3876584414215629 l 8.766053023798802 10.326388420108195" fill="#ffaa0f" stroke="none" /><path d="M 86.68645165197937 83.75963576809568 l -30.920844264527826 -37.71840234377337 a69.7727022564667,69.7727022564667 0 0,0 0.9327920194636118,-0.7513912219973862 l 30.26880147470897 38.24364185956416" fill="#3bff9e" stroke="none" /><path d="M 87.54013794807813 83.09580414077388 l -2.098358716504179 -2.846826600398013 a24.536598789212988,24.536598789212988 0 0,0 0.34119775177549044,-0.2470008598651362 l 2.0491799543547207 2.882428231636229" fill="#ff2103" stroke="none" /><path d="M 88.12776184653039 82.6780497279521 l -2.9990959342006325 -4.3757705970665866 a26.304898183819482,26.304898183819482 0 0,0 0.3746615565719605,-0.2520890158756295 l 2.9235380895316823 4.426609286999326" fill="#ff3a05" stroke="none" /><path d="M 88.4268655584334 82.4767994020092 l -6.45216576186404 -9.769401324031193 a32.70776004402862,32.70776004402862 0 0,0 0.4711698738099155,-0.3054066196906687 l 6.283510255797099 9.878721785425768" fill="#ff920d" stroke="none" /><path d="M 88.72937992617638 82.28071324371311 l -5.58258561719387 -8.776751833053497 a31.401761144744086,31.401761144744086 0 0,0 0.45732309415431427,-0.285403434222095 l 5.431098394249857 8.871291064117129" fill="#ff800b" stroke="none" /><line stroke="#e1ed5e" stroke-width="0.3" x1="56.869717070023135" x2="54.33264160355391" y1="26.7553504044142" y2="22.446841604673864" /><path d="M 56.362301976729285 25.89364864446614 a86.0,86.0 0 0,1 42.16139366436587,-11.88097634709845" fill="none" id="id24" stroke="none" /><text fill="#e1ed5e" style="font-size:6.75px; font-family:Arial;" text-anchor="middle"><textPath startOffset="22.145653131862474" xlink:href="#id24">December</textPath></text><path d="M 89.34428304082924 81.90426304109057 l -4.11684826931088 -6.991308390288619 a29.113373692900385,29.113373692900385 0 0,0 0.4328292644246853,-0.2498940923287384 l 3.996226537025796 7.060949379893532" fill="#ff6109" stroke="none" /><path d="M 89.65649057296885 81.72400993836675 l -3.996226537025796 -7.060949379893532 a29.113373692900385,29.113373692900385 0 0,0 0.4370552504319084,-0.2424271799801349 l 3.874427098437785 7.128509475306813" fill="#ff6109" stroke="none" /><path d="M 89.97174638481275 81.54914285379989 l -3.874427098437785 -7.128509475306813 a29.113373692900385,29.113373692900385 0 0,0 0.4411524342507709,-0.23488882322885657 l 3.751485848400452 7.193968766258244" fill="#ff6109" stroke="none" /><path d="M 90.28995756902619 81.37971332152246 l -3.751485848400452 -7.193968766258244 a29.113373692900385,29.113373692900385 0 0,0 0.4451196084223919,-0.22728124366325336 l 3.627439018264478 7.257307961594332" fill="#ff6109" stroke="none" /><path d="M 90.61103034731259 81.2157712731953 l -8.014469967703993 -16.034308616001148 a38.92570170610897,38.92570170610897 0 0,0 0.6002709303717144,-0.2936225920047235 l 7.738038788070226 16.169524958103086" fill="#ffe215" stroke="none" /><path d="M 90.93487009805054 81.0573650232925 l -7.7579950454217945 -16.211225860638493 a38.971931755641165,38.971931755641165 0 0,0 0.6059416933545547,-0.2836113082796529 l 7.478564638195717 16.34201340048869" fill="#ffe315" stroke="none" /><path d="M 91.26138138417902 80.90454125486306 l -3.376175161423405 -7.377552030317081 a29.113373692900385,29.113373692900385 0 0,0 0.4562295752375874,-0.204065685997853 l 3.2490321833301983 7.434421467224779" fill="#ff6109" stroke="none" /><path d="M 91.5904679813234 80.7573450057729 l -3.2490321833301983 -7.434421467224779 a29.113373692900385,29.113373692900385 0 0,0 0.4596654076200792,-0.19620382911830578 l 3.120931700539688 7.489099946002489" fill="#ff6109" stroke="none" /><path d="M 91.92203290615298 80.6158196554323 l -3.120931700539688 -7.489099946002489 a29.113373692900385,29.113373692900385 0 0,0 0.46296577449712684,-0.18828415006976623 l 2.9919114648521203 7.541571352651546" fill="#ff6109" stroke="none" /><path d="M 92.25597844496254 80.48000691201159 l -2.9919114648521203 -7.541571352651546 a29.113373692900385,29.113373692900385 0 0,0 0.4661297032354427,-0.18030898281798338 l 2.862009499123148 7.591820223607571" fill="#ff6109" stroke="none" /><path d="M 92.592206182469 80.34994680014964 l -2.862009499123148 -7.591820223607571 a29.113373692900385,29.113373692900385 0 0,0 0.4691562614107067,-0.17228067768135913 l 2.7312640860583146 7.639831750297652" fill="#ff6109" stroke="none" /><path d="M 92.93061703081487 80.22567764915836 l -5.9566457489391444 -16.661798304424078 a38.69455145844799,38.69455145844799 0 0,0 0.6273938773766238,-0.21824015837114735 l 5.669746099517516 16.761596895363812" fill="#ffdf14" stroke="none" /><path d="M 93.27111125876988 80.10723608172694 l -5.75492190636853 -17.0134040335698 a38.960374243258116,38.960374243258116 0 0,0 0.6353829671928439,-0.2088630016256256 l 5.462016201527925 17.109687956597455" fill="#ffe315" stroke="none" /><path d="M 93.61358852112211 79.99465700312896 l -2.467397280226901 -7.729086837536302 a29.113373692900385,29.113373692900385 0 0,0 0.47740299713615786,-0.14790066885804554 l 2.3343536502191267 7.77030409420099" fill="#ff6109" stroke="none" /><path d="M 93.95794788825049 79.88797359093562 l -2.3343536502191267 -7.77030409420099 a29.113373692900385,29.113373692900385 0 0,0 0.47987156236141354,-0.13968361808032503 l 2.200622075476089 7.8092314065838355" fill="#ff6109" stroke="none" /><path d="M 94.30408787586887 79.78721728523814 l -2.200622075476089 -7.8092314065838355 a29.113373692900385,29.113373692900385 0 0,0 0.48219870723475344,-0.13142540189923613 l 2.0662419673066577 7.845857302627212" fill="#ff6109" stroke="none" /><path d="M 94.6519064749342 79.69241777938228 l -2.0662419673066577 -7.845857302627212 a29.113373692900385,29.113373692900385 0 0,0 0.48438374593575817,-0.12312845404896669 l 1.9312529281455215 7.880170988511441" fill="#ff6109" stroke="none" /><path d="M 95.00130118170881 79.60360301121753 l -1.9312529281455215 -7.880170988511441 a29.113373692900385,29.113373692900385 0 0,0 0.48642603452348754,-0.11479521967811845 l 1.7956947398821281 7.912162351835792" fill="#ff6109" stroke="none" /><path d="M 95.35216902796891 79.52079915486377 l -3.923925542705391 -17.289539954011545 a38.72922399559714,38.72922399559714 0 0,0 0.6496137269726661,-0.14158028827403635 l 3.6265493991136064 17.354351700419297" fill="#ffe015" stroke="none" /><path d="M 95.70440661134978 79.44403061299748 l -3.6809239989699383 -17.614553844558568 a38.995046780407264,38.995046780407264 0 0,0 0.6564231468456161,-0.1313030135715408 l 3.3780043665933452 17.675146254792974" fill="#ffe315" stroke="none" /><path d="M 96.05791012581881 79.37332000966035 l -1.5208613108426043 -7.957789033146997 a29.101816180517336,29.101816180517336 0 0,0 0.4914953995148514,-0.08956683436479486 l 1.3840311777767145 7.982724041443153" fill="#ff6109" stroke="none" /><path d="M 96.41257539226777 79.30868818359171 l -1.3860055446494346 -7.9941116648974235 a29.113373692900385,29.113373692900385 0 0,0 0.49315628498035746,-0.08114867902554286 l 1.2485717566160042 8.016726342418634" fill="#ff6109" stroke="none" /><path d="M 96.76829788921471 79.25015418208739 l -1.2485717566160042 -8.016726342418634 a29.113373692900385,29.113373692900385 0 0,0 0.49447664225329757,-0.0726710381728725 l 1.1107700087550216 8.036978453890391" fill="#ff6109" stroke="none" /><path d="M 97.12497278360702 79.19773525538626 l -1.1123523022147868 -8.048427141146647 a29.124931205283435,29.124931205283435 0 0,0 0.495848040085415,-0.06419745601266118 l 0.9740264402385778 8.066336193359703" fill="#ff6109" stroke="none" /><path d="M 97.48249496171623 79.15144685158666 l -0.9726409118740846 -8.054862030922491 a29.113373692900385,29.113373692900385 0 0,0 0.4966798370212364,-0.055654011713230825 l 0.8342251732520489 8.070371803142692" fill="#ff6109" stroke="none" /><path d="M 97.84075906011542 79.11130261209362 l -1.8383851040184043 -17.78470823285149 a38.879471656576776,38.879471656576776 0 0,0 0.6644694929954913,-0.06292595183300057 l 1.5328160476378974 17.813645940189673" fill="#ffe215" stroke="none" /><path d="M 98.1996594967304 79.07731436759882 l -1.5357885415893602 -17.848190825658683 a38.91414419372592,38.91414419372592 0 0,0 0.666045236429193,-0.05155611366409155 l 1.22917431038495 17.87192470631783" fill="#ffe215" stroke="none" /><path d="M 98.5590905019552 79.04949213459386 l -0.5566970102517647 -8.094252350861368 a29.113373692900385,29.113373692900385 0 0,0 0.4988862834222748,-0.030011759966755987 l 0.417666374697006 8.102616088652818" fill="#ff6109" stroke="none" /><path d="M 98.9189461498227 79.02784411241856 l -0.417666374697006 -8.102616088652818 a29.113373692900385,29.113373692900385 0 0,0 0.49932796315164235,-0.021443291213724697 l 0.2785126509445435 8.108591948292371" fill="#ff6109" stroke="none" /><path d="M 99.27912038922189 79.0123766808444 l -0.2785126509445435 -8.108591948292371 a29.113373692900385,29.113373692900385 0 0,0 0.4996224886383027,-0.012868503024345838 l 0.13927684823549688 8.112178168666762" fill="#ff6109" stroke="none" /><path d="M 99.63950707515114 79.00309439819443 l -0.13927684823549688 -8.112178168666762 a29.113373692900385,29.113373692900385 0 0,0 0.49976977308434706,-0.004289922428058085 l 1.9872034246593594e-15 8.113373692900385" fill="#ff6109" stroke="none" /></svg>