<?xml version="1.0" encoding="utf-8" ?>
<svg baseProfile="full" height="200mm" version="1.1" viewBox="0,0,200,200" width="200mm" xmlns="http://www.w3.org/2000/svg" xmlns:ev="http://www.w3.org/2001/xml-events" xmlns:xlink="http://www.w3.org/1999/xlink"><defs /><rect fill="#1a1a1a" height="200" width="200" x="0" y="0" /><text alignment-baseline="middle" fill="#e1ed5e" style="dominant-baseline: central; font-size:9.0px; font-family:Arial;" text-anchor="middle" x="100.0" y="100.0">2022</text><line stroke="#e1ed5e" stroke-width="0.3" x1="100.0" x2="100.0" y1="15.0" y2="10.0" /><path d="M 100.0 14.0 a86.0,86.0 0 0,1 42.46469731375804,11.215312516191453" fill="none" id="id73" stroke="none" /><text fill="#e1ed5e" style="font-size:6.75px; font-family:Arial;" text-anchor="middle"><textPath startOffset="22.20632615414155" xlink:href="#id73">January</textPath></text><path d="M 102.52436894288641 79.15227682838746 l 1.1903418925625968 -9.83054332277731 a30.902347996419387,30.902347996419387 0 0,0 0.5275255529162581,0.06848795685327327 l -1.3593821739867011 9.8085970427599" fill="#ff5608" stroke="none" /><path d="M 103.59715602781102 79.31037775812273 l 1.4646076512324413 -8.423926791688844 a29.550299302584776,29.550299302584776 0 0,0 0.5003919335651759,0.09144342743428946 l -1.609394705900518 8.397467882903817" fill="#ff4306" stroke="none" /><path d="M 103.95276090670814 79.375362276772 l 1.2523912912703432 -6.534702523074678 a27.65363216683402,27.65363216683402 0 0,0 0.46673219715078,0.09362208795990266 l -1.3646898978882485 6.512176479037567" fill="#ff2603" stroke="none" /><path d="M 104.307194497241 79.44645832069477 l 1.8246739634695606 -8.707178740903792 a29.896313657859118,29.896313657859118 0 0,0 0.5027666994886287,0.10988532719422829 l -1.9742833871117171 8.674479915613695" fill="#ff4806" stroke="none" /><path d="M 105.01212808612495 79.60689891045804 l 1.752313259717622 -7.129726302265012 a28.341907034646496,28.341907034646496 0 0,0 0.47275800533104895,0.12051654195497236 l -1.874780153733696 7.098506764141171" fill="#ff3104" stroke="none" /><path d="M 105.36241919743992 79.69619591428918 l 1.8294991516170849 -6.927058661721419 a28.164580158578545,28.164580158578545 0 0,0 0.4676689785916348,0.12783159814710746 l -1.9484660194324306 6.894540522748017" fill="#ff2e04" stroke="none" /><path d="M 105.71112130821622 79.79150937346287 l 1.557284415508461 -5.510365796009397 a26.726191225990956,26.726191225990956 0 0,0 0.4416309427815797,0.12892418251576993 l -1.651905576013468 5.482743284574924" fill="#ff1802" stroke="none" /><path d="M 107.4271985657038 80.35727306442388 l 2.056453213036874 -5.43870593496697 a26.814509615131325,26.814509615131325 0 0,0 0.4303305315513122,0.1669615606559765 l -2.1497669095878527 5.402501670420447" fill="#ff1a02" stroke="none" /><path d="M 107.76421540070413 80.48803036053334 l 2.2931642469127174 -5.762868345977822 a27.20235873167555,27.20235873167555 0 0,0 0.4335746787016657,0.1768659978542549 l -2.3920227952027706 5.722541461939987" fill="#ff2003" stroke="none" /><path d="M 108.09893153111575 80.62456947434976 l 2.562497111919827 -6.1303746763916696 a27.644387490321567,27.644387490321567 0 0,0 0.4374609032843848,0.18729792863345107 l -2.667641772994527 6.085357219795428" fill="#ff2603" stroke="none" /><path d="M 108.76106565485865 80.91482961587045 l 3.8895951926105234 -8.473123008169116 a30.32323786427997,30.32323786427997 0 0,0 0.47249638729225957,0.22184338931857017 l -4.0348697912023805 8.404914636210544" fill="#ff4e07" stroke="none" /><path d="M 109.08828744355905 81.06846463323043 l 3.7799822154325136 -7.873966073546274 a29.734277719213182,29.734277719213182 0 0,0 0.45950607021791434,0.22547763304297794 l -3.91495955266086 7.807733280368464" fill="#ff4506" stroke="none" /><path d="M 109.41281617654863 81.2277094730956 l 3.886753121149089 -7.7514802613851135 a29.671349149204246,29.671349149204246 0 0,0 0.4545926384689889,0.2328600058976875 l -4.019606247206833 7.683427730174925" fill="#ff4406" stroke="none" /><line stroke="#e1ed5e" stroke-width="0.3" x1="143.23703022742887" x2="145.7803849466894" y1="26.81831364943548" y2="22.513508569990506" /><path d="M 143.74570117128098 25.957352633546492 a86.0,86.0 0 0,1 28.547481713284135,27.462654790039103" fill="none" id="id74" stroke="none" /><text fill="#e1ed5e" style="font-size:6.75px; font-family:Arial;" text-anchor="middle"><textPath startOffset="19.985693538727396" xlink:href="#id74">February</textPath></text><path d="M 111.90073688211348 82.69761687909136 l 10.726058167066144 -15.594527433226549 a39.927165917509726,39.927165917509726 0 0,0 0.5629138339453141,0.39435711413193864 l -10.992903140595109 15.407585476330674" fill="#ffd413" stroke="none" /><path d="M 112.19680574252982 82.90503203632743 l 5.000878310884971 -7.009200303707681 a29.610323616321025,29.610323616321025 0 0,0 0.41236561075586214,0.2996011533010369 l -5.1207892379946225 6.922079915589969" fill="#ff4406" stroke="none" /><path d="M 112.48926042617603 83.11751280151076 l 4.072116262090983 -5.504525353753076 a27.847038061972217,27.847038061972217 0 0,0 0.38290187365862777,0.2883937528513427 l -4.1662642895079935 5.433615011395886" fill="#ff2904" stroke="none" /><path d="M 112.77801427241765 83.33499621200491 l 4.046471790364183 -5.277382406748209 a27.65016533758888,27.65016533758888 0 0,0 0.37520937931771386,0.2928568720300331 l -4.136713724841327 5.206947145494952" fill="#ff2603" stroke="none" /><path d="M 113.34407831869373 83.78471172551755 l 3.926854801548484 -4.771785738842808 a27.179816159876278,27.179816159876278 0 0,0 0.35869910454983317,0.30040018442647853 l -4.008411443057435 4.70348439702251" fill="#ff1f03" stroke="none" /><path d="M 113.89432698308785 84.25364557470407 l 6.442346748291893 -7.301071534643874 a30.737015825149623,30.737015825149623 0 0,0 0.3937104538596868,0.35347713282130594 l -6.5670681897475705 7.189095393053271" fill="#ff5407" stroke="none" /><path d="M 114.16331599549186 84.49514656593476 l 3.9306867048924463 -4.30299806019895 a26.82804343481534,26.82804343481534 0 0,0 0.3382787807023105,0.3143932597094478 l -4.004173369389604 4.234700214414862" fill="#ff1a02" stroke="none" /><path d="M 114.94478906791727 85.2469230424477 l 2.9408222296464963 -2.903097291991534 a25.132361222491514,25.132361222491514 0 0,0 0.30127206939158724,0.31048735007058087 l -2.9903585627411924 2.8520457463708384" fill="#ff0000" stroke="none" /><path d="M 115.68641384162765 86.03803664274999 l 7.525430269278415 -6.69813908570852 a31.074580286506627,31.074580286506627 0 0,0 0.3521906163853323,0.40261475683242853 l -7.6396127492415955 6.567608772673143" fill="#ff5908" stroke="none" /><path d="M 116.15771136456269 86.58626213691792 l 7.286985145770022 -6.049477327086629 a30.47081456082887,30.47081456082887 0 0,0 0.3315536702290245,0.40644559635353095 l -7.390037308075456 5.923147561124997" fill="#ff5007" stroke="none" /><path d="M 116.38621287248628 86.86637796730983 l 8.190961153333378 -6.565091562612286 a31.497250680101885,31.497250680101885 0 0,0 0.33543959938637036,0.4259742267960367 l -8.302754833313712 6.423124941863211" fill="#ff5f08" stroke="none" /><path d="M 116.60985879189232 87.15038557335679 l 9.585432049731352 -7.415421617669503 a33.11895149539832,33.11895149539832 0 0,0 0.34494816793305655,0.4539113546301546 l -9.711656157888521 7.249325487158315" fill="#ff760a" stroke="none" /><path d="M 116.82858285166822 87.43820079747576 l 9.70906893430941 -7.247394238200557 a33.115722958828115,33.115722958828115 0 0,0 0.3370508623782116,0.45973699749850294 l -9.832382409201248 7.07919479703056" fill="#ff760a" stroke="none" /><path d="M 117.2510076193507 88.02491185347247 l 10.017265158714629 -6.953659514252872 a33.19421920010287,33.19421920010287 0 0,0 0.32178718620810154,0.47218298930715036 l -10.135476810591465 6.780198501675316" fill="#ff770b" stroke="none" /><path d="M 117.65298651832404 88.62581576622439 l 10.600732938451264 -6.830271429134102 a33.61063624992852,33.61063624992852 0 0,0 0.3091736855286433,0.4890385222851348 l -10.716734220225863 6.646785259134761" fill="#ff7d0b" stroke="none" /><line stroke="#e1ed5e" stroke-width="0.3" x1="172.23445277983987" x2="176.4835382374775" y1="55.19839476539836" y2="52.563006222186495" /><path d="M 173.08426987136738 54.67131705675599 a86.0,86.0 0 0,1 12.851231095245387,41.99856678651699" fill="none" id="id75" stroke="none" /><text fill="#e1ed5e" style="font-size:6.75px; font-family:Arial;" text-anchor="middle"><textPath startOffset="22.20632615414155" xlink:href="#id75">March</textPath></text><path d="M 118.03404312379186 89.2402003453031 l 10.57922613384989 -6.311970805469846 a33.31913150511172,33.31913150511172 0 0,0 0.28962310053852697,0.49505976152775233 l -10.686308908858743 6.128931631588198" fill="#ff790b" stroke="none" /><path d="M 118.21658344932153 89.55222093294921 l 10.534770969142896 -6.042019894333417 a33.144439212076314,33.144439212076314 0 0,0 0.27958495905079866,0.4973504452232892 l -10.637213569486129 5.8597859391753335" fill="#ff770a" stroke="none" /><path d="M 118.73160827565052 90.50648371742162 l 15.955696546551641 -8.086634246001886 a38.88792625527762,38.88792625527762 0 0,0 0.2974740938055532,0.5996896209967427 l -16.092530653310604 7.810785036506193" fill="#ffc612" stroke="none" /><path d="M 118.89224826269711 90.83032412892265 l 16.27293906113724 -7.898349343368167 a39.088462290569936,39.088462290569936 0 0,0 0.2885878949275413,0.6078397058063976 l -16.40648514990654 7.617067221921229" fill="#ffc912" stroke="none" /><path d="M 119.04729006885535 91.15688171328212 l 16.092082677093735 -7.471099042370778 a38.741827577432204,38.741827577432204 0 0,0 0.2756161560320895,0.6072836655107765 l -16.21830115008917 7.192993368017938" fill="#ffc412" stroke="none" /><path d="M 119.196687751892 91.48605970444005 l 11.254422259116318 -4.99145896487759 a33.311648264328774,33.311648264328774 0 0,0 0.2279615869541421,0.5261667725956221 l -11.33867455591314 4.7969930476953655" fill="#ff790b" stroke="none" /><path d="M 119.34039704204932 91.81776055985345 l 16.611639435093316 -7.027798398130093 a39.0370872106975,39.0370872106975 0 0,0 0.2564891162956399,0.6211087396441033 l -16.730150238275154 6.7408150880326865" fill="#ffc812" stroke="none" /><path d="M 119.61058180528143 92.48833698450437 l 13.792625128931867 -5.283145247617827 a35.76983857916767,35.76983857916767 0 0,0 0.21529254602115894,0.5768769866171256 l -13.88152226345465 5.0449451239713685" fill="#ff9c0e" stroke="none" /><path d="M 119.7369772167798 92.82701384747503 l 15.036353848763486 -5.464644193334242 a36.99857097446413,36.99857097446413 0 0,0 0.21238398787672635,0.6004381336628923 l -15.128190917450022 5.2050084332447355" fill="#ffad10" stroke="none" /><path d="M 119.85752413597 93.16781622104841 l 11.510782745726575 -3.9604022445040474 a33.173040103342686,33.173040103342686 0 0,0 0.18112907390794633,0.5415528764410767 l -11.57724911340629 3.7616762651406566" fill="#ff770b" stroke="none" /><path d="M 119.97218684219823 93.5106431181261 l 11.903348070119632 -3.867632239097823 a33.515920837690274,33.515920837690274 0 0,0 0.17355583797893936,0.5502194348028111 l -11.968159391866777 3.662162637868593" fill="#ff7c0b" stroke="none" /><path d="M 120.37134235888165 94.90015583598534 l 16.81034549180502 -4.2083698187947105 a38.3291111164304,38.3291111164304 0 0,0 0.15471673418246198,0.6414007477943462 l -16.8802950262483 3.918383839340958" fill="#ffbf11" stroke="none" /><path d="M 120.45610955862082 95.25157060432595 l 42.55174561628505 -9.877438285251104 a64.68311850213968,64.68311850213968 0 0,0 0.2424249758252737,1.086743631863882 l -42.715464979112355 9.143516483837258" fill="#34ff59" stroke="none" /><path d="M 120.53481517161879 95.60439243477599 l 18.35201036136661 -3.9283643367282095 a39.7677470855131,39.7677470855131 0 0,0 0.13752199015353767,0.6706060639293676 l -18.416911647435143 3.61188261663543" fill="#ffd213" stroke="none" /><path d="M 120.87857604477298 97.74499172005257 l 17.296377593059166 -1.8681099037503681 a38.39696848460011,38.39696848460011 0 0,0 0.06531667044565696,0.657729957651491 l -17.32597138918705 1.5701044153944421" fill="#ffc011" stroke="none" /><path d="M 120.91429891909075 98.10471618934814 l 17.49666048695052 -1.5855725066222375 a38.568357019635386,38.568357019635386 0 0,0 0.054226221392321326,0.6616972509684137 l -17.521361192162335 1.284161338446055" fill="#ffc212" stroke="none" /><line stroke="#e1ed5e" stroke-width="0.3" x1="184.98032266829074" x2="189.97916517819016" y1="98.17113171792111" y2="98.06355123074" /><path d="M 185.9800911702706 98.14961562048488 a86.0,86.0 0 0,1 -9.607161424134198,41.387399972396054" fill="none" id="id76" stroke="none" /><text fill="#e1ed5e" style="font-size:6.75px; font-family:Arial;" text-anchor="middle"><textPath startOffset="21.466115282336823" xlink:href="#id76">April</textPath></text><path d="M 120.99513854157772 99.54816195383933 l 17.533477368875534 -0.37733936077945346 a38.53753727403206,38.53753727403206 0 0,0 0.008564495817079965,0.6633296394383821 l -17.53737487181033 0.07547346328060864" fill="#ffc112" stroke="none" /><path d="M 120.9904718944345 100.63252640178507 l 17.415438341571583 0.524796422162609 a38.42334364907598,38.42334364907598 0 0,0 -0.025611659991063383,0.6609231415164822 l -17.403824548729318 -0.8244968106930974" fill="#ffc011" stroke="none" /><path d="M 120.9764740272857 100.99374915477107 l 17.507850882003403 0.8294250021818379 a38.52748665213332,38.52748665213332 0 0,0 -0.03708481411293435,0.662174268155446 l -17.49097971700294 -1.1306709866727072" fill="#ffc112" stroke="none" /><path d="M 120.95626037817324 101.35467743843564 l 17.4322873611606 1.1268769313959812 a38.468671794403605,38.468671794403605 0 0,0 -0.04840355678191769,0.6604280754843568 l -17.410307245714346 -1.4267781433771083" fill="#ffc111" stroke="none" /><path d="M 120.92983693683757 101.71520430193887 l 17.280054378231796 1.416103894967044 a38.33798228041512,38.33798228041512 0 0,0 -0.0595615309438512,0.6572565307830742 l -17.253118251010868 -1.7133418142986887" fill="#ffbf11" stroke="none" /><path d="M 120.89721153311464 102.0752229133903 l 17.837087787884442 1.7713336167801625 a38.924824226045615,38.924824226045615 0 0,0 -0.0719510519491043,0.66617738080137 l -17.803954434434285 -2.0781073194663238" fill="#ffc712" stroke="none" /><path d="M 120.81339534386255 102.79330883721812 l 8.758703399298359 1.1754816167006072 a29.837230463673656,29.837230463673656 0 0,0 -0.07269762912905879,0.5084470488090328 l -8.737171719152698 -1.3260741374900493" fill="#ff4706" stroke="none" /><path d="M 120.76222939487914 103.15116336523771 l 17.345663037336205 2.632617955877747 a38.54430686879426,38.54430686879426 0 0,0 -0.10520438328949652,0.6551077951691209 l -17.29777689968542 -2.930804980740073" fill="#ffc212" stroke="none" /><path d="M 120.70491114924044 103.5080841355445 l 17.346512376772388 2.939062352760394 a38.59373692968413,38.59373692968413 0 0,0 -0.1166147576958997,0.6540374910671197 l -17.2933511767373 -3.237218594560732" fill="#ffc212" stroke="none" /><path d="M 120.02730092923936 106.31721596034902 l 7.3823977054346965 2.328631340548159 a28.74095083315936,28.74095083315936 0 0,0 -0.15288509148690252,0.47053192914877573 l -7.341220362931547 -2.4553621696747303" fill="#ff3705" stroke="none" /><path d="M 119.67450827220406 107.3425965602758 l 8.418844712611305 3.1419428314581594 a29.98603088416764,29.98603088416764 0 0,0 -0.18463644407660249,0.48202749289088104 l -8.363513988941197 -3.2863938911821844" fill="#ff4906" stroke="none" /><path d="M 119.54520255179757 107.68017299344265 l 9.885697105471932 3.8845268412844867 a31.62151383004305,31.62151383004305 0 0,0 -0.20342780246012024,0.5048911227133642 l -9.81736668875442 -4.054117331840664" fill="#ff6108" stroke="none" /><path d="M 119.41010516605496 108.01547362559984 l 9.792278463859633 4.043757057991713 a31.59437061168935,31.59437061168935 0 0,0 -0.2119064809763331,0.5008843248655096 l -9.721221001690992 -4.211715908523386" fill="#ff6008" stroke="none" /><path d="M 119.26925614724726 108.34839909993367 l 8.004569877033619 3.467977354503643 a29.723531730191855,29.723531730191855 0 0,0 -0.2074404080158338,0.4677233574073466 l -7.943688384286513 -3.605249048403677" fill="#ff4506" stroke="none" /><path d="M 119.12269723197855 108.67885076344098 l 8.187840933902056 3.716057869770331 a29.99165308774555,29.99165308774555 0 0,0 -0.2174043277566153,0.4682695807907935 l -8.122661989305609 -3.856447517839955" fill="#ff4906" stroke="none" /><path d="M 118.64920377521936 109.65438752849418 l 12.423017988903881 6.4311930623923805 a34.98898209872303,34.98898209872303 0 0,0 -0.2814905126353987,0.5324739674367579 l -12.31047496804359 -6.644082044915272" fill="#ff910d" stroke="none" /><line stroke="#e1ed5e" stroke-width="0.3" x1="174.80103733775053" x2="179.2010983576182" y1="140.37084112569926" y2="142.7455964860345" /><path d="M 175.68104954172406 140.8457921977663 a86.0,86.0 0 0,1 -30.038265399797805,32.042727171017184" fill="none" id="id77" stroke="none" /><text fill="#e1ed5e" style="font-size:6.75px; font-family:Arial;" text-anchor="middle"><textPath startOffset="22.206326154141568" xlink:href="#id77">May</textPath></text><path d="M 118.48025628344425 109.97397251340804 l 8.111253275729378 4.377721606268647 a30.217205442270554,30.217205442270554 0 0,0 -0.25098064140867693,0.4556027664120547 l -8.034696224869192 -4.516694891078507" fill="#ff4c07" stroke="none" /><path d="M 118.30583269289576 110.29060199501025 l 7.8875874528447865 4.433997870501816 a30.04844588544846,30.04844588544846 0 0,0 -0.2573406195819595,0.44869506154652405 l -7.810094837110448 -4.569112777906655" fill="#ff4a06" stroke="none" /><path d="M 117.94076556474637 110.91462005526583 l 12.414213522146577 7.552432664602892 a35.53106797612645,35.53106797612645 0 0,0 -0.3223773733244456,0.5197749729893282 l -12.282371509154169 -7.765003968957494" fill="#ff980e" stroke="none" /><path d="M 117.75023020441432 111.22182372390056 l 15.07770929415878 9.532236704016853 a38.83818528159656,38.83818528159656 0 0,0 -0.3621108473046491,0.5620040764440827 l -14.91139358347708 -9.790362380382389" fill="#ffc512" stroke="none" /><path d="M 117.14729908036423 112.12312394758627 l 14.519009774822033 10.264925937983072 a38.781179638979395,38.781179638979395 0 0,0 -0.3900651816792511,0.5417664212875899 l -14.340164800767178 -10.513325964721794" fill="#ffc512" stroke="none" /><path d="M 116.71984013943494 112.70617746262583 l 7.0763107963663225 5.377614858126526 a29.88779590501007,29.88779590501007 0 0,0 -0.31480841440790275,0.40693231222353293 l -6.982695564740352 -5.498625164463312" fill="#ff4806" stroke="none" /><path d="M 116.498646956653 112.99209946851258 l 13.770222005795379 10.84356156434101 a38.52717437262906,38.52717437262906 0 0,0 -0.41477638213289053,0.5174973114950474 l -13.581527711607635 -11.078986709414309" fill="#ffc112" stroke="none" /><path d="M 116.0416608686014 113.55231037782055 l 6.873296640844768 5.806696087054291 a29.997773400150706,29.997773400150706 0 0,0 -0.33662857133066487,0.3915750791973555 l -6.772325559943324 -5.924148265413176" fill="#ff4906" stroke="none" /><path d="M 115.80600337817218 113.82643327865902 l 13.163189500227237 11.514609797602331 a38.48873341925973,38.48873341925973 0 0,0 -0.44049649836015853,0.4949024855789556 l -12.96303415221874 -11.739486452922154" fill="#ffc111" stroke="none" /><path d="M 115.56566222782051 114.09645910891815 l 13.08323397723717 11.848340923324514 a38.650897822446865,38.650897822446865 0 0,0 -0.45084172646660414,0.4892996517571105 l -12.877345842774842 -12.071791829882958" fill="#ffc312" stroke="none" /><path d="M 115.32070863581623 114.36230785411682 l 12.858190588187226 12.053834849566254 a38.624641834169694,38.624641834169694 0 0,0 -0.45888548061711026,0.4811395918270653 l -12.648798556191151 -12.273381557975826" fill="#ffc312" stroke="none" /><path d="M 114.55890576462653 115.13401014063108 l 4.976899137085428 5.17349608736073 a28.178759418357636,28.178759418357636 0 0,0 -0.3524547776440514,0.33326799138046104 l -4.887108525050569 -5.258398715487113" fill="#ff2e04" stroke="none" /><path d="M 114.29624159901734 115.38237550388516 l 5.959130698304664 6.411866044873808 a29.753471588854488,29.753471588854488 0 0,0 -0.3781530939042917,0.34543388535825326 l -5.847878054933508 -6.513492696818644" fill="#ff4606" stroke="none" /><path d="M 113.75828350139079 115.86535959552629 l 5.791030907716622 6.677925176526825 a29.839158536728483,29.839158536728483 0 0,0 -0.39094203158784396,0.33316928062540824 l -5.67522339955173 -6.77661884737518" fill="#ff4706" stroke="none" /><path d="M 113.48314897796784 116.09983520530334 l 11.66889801894811 13.933491014564927 a39.17430474129816,39.17430474129816 0 0,0 -0.5207008879423644,0.4285013816405984 l -11.427327002461054 -14.132287515062705" fill="#ffca12" stroke="none" /><path d="M 113.20401910651253 116.32954008644616 l 11.129840509306204 13.764383047796944 a38.70117483245316,38.70117483245316 0 0,0 -0.5216227409219854,0.4144086527608127 l -10.891260275666866 -13.953925614562882" fill="#ffc412" stroke="none" /><path d="M 112.92097659922987 116.55440617244103 l 10.686856253553248 13.692042375369402 a38.368964303982594,38.368964303982594 0 0,0 -0.5241406464891065,0.4018886972241001 l -10.449586878570647 -13.873970414420874" fill="#ffbf11" stroke="none" /><path d="M 112.63410532772338 116.77436683061366 l 10.400683233080997 13.809040791980763 a38.28767825098214,38.28767825098214 0 0,0 -0.5298559403577937,0.3919747576101848 l -10.161442322304639 -13.986025498330717" fill="#ffbe11" stroke="none" /><path d="M 112.04921762599082 117.19931262002967 l 9.970035800221376 14.231443723865377 a38.37629432080509,38.37629432080509 0 0,0 -0.5442911931970351,0.37436844579299766 l -9.723587722401458 -14.400952959023469" fill="#ffbf11" stroke="none" /><path d="M 111.45004920935366 117.60387380957326 l 4.7920636169128406 7.367556388374923 a29.788899865422515,29.788899865422515 0 0,0 -0.43224856599980876,0.27588148595414574 l -4.664533248866101 -7.448952303152877" fill="#ff4606" stroke="none" /><path d="M 111.1453310114006 117.79835938074945 l 9.339692232791133 14.914873205180928 a38.597820709675474,38.597820709675474 0 0,0 -0.5661396007554068,0.34776918255052736 l -9.081573432103417 -15.073430854559833" fill="#ffc212" stroke="none" /><line stroke="#e1ed5e" stroke-width="0.3" x1="143.8653032363475" x2="146.44561519142675" y1="172.8068346515853" y2="177.08958963109032" /><path d="M 144.38136562736335 173.6633856474863 a86.0,86.0 0 0,1 -40.68145358897372,12.25698825130547" fill="none" id="id78" stroke="none" /><text fill="#e1ed5e" style="font-size:6.75px; font-family:Arial;" text-anchor="middle"><textPath startOffset="21.466115282336833" xlink:href="#id78">June</textPath></text><path d="M 110.5260780823613 118.17145234162733 l 4.432779187370869 7.652426204138289 a29.84359418640242,29.84359418640242 0 0,0 -0.44673193485709217,0.25366605159917444 l -4.300398485592578 -7.727595421532092" fill="#ff4706" stroke="none" /><path d="M 110.21172684928248 118.3499491758327 l 8.676381175311285 15.591011779589497 a38.84262420751484,38.84262420751484 0 0,0 -0.5870363262201818,0.320099010918699 l -8.406722037222455 -15.738051442267967" fill="#ffc612" stroke="none" /><path d="M 109.89434966115114 118.52300852407294 l 4.1668501612902284 7.800674495986419 a29.843820603052585,29.843820603052585 0 0,0 -0.4552022496440452,0.2381403028268169 l -4.031957009119688 -7.871244217757953" fill="#ff4706" stroke="none" /><path d="M 109.2508944713604 118.85261126421891 l 7.753284638603715 15.80059763571606 a38.6003496650778,38.6003496650778 0 0,0 -0.599017379362396,0.2875647443201458 l -7.480154591241086 -15.931716656535764" fill="#ffc212" stroke="none" /><path d="M 108.59647513512805 119.15986991738527 l 7.293791911883831 16.256442558079875 a38.81772502588399,38.81772502588399 0 0,0 -0.6119879148995475,0.2682775172249859 l -7.0128833223265294 -16.379584628599314" fill="#ffc512" stroke="none" /><path d="M 108.2653958097858 119.30500536409082 l 7.2035077297922046 16.824814995461427 a39.302046968704886,39.302046968704886 0 0,0 -0.6242073506778273,0.26091872320804693 l -6.912828919616916 -16.946318761689447" fill="#ffcc13" stroke="none" /><path d="M 107.93186726928326 119.44442032107085 l 6.170645066204717 15.126906722717836 a37.33707952881673,37.33707952881673 0 0,0 -0.5971780045656299,0.2376294523660915 l -5.90934598559722 -15.230883019489996" fill="#ffb110" stroke="none" /><path d="M 107.59598834532513 119.57807347666477 l 6.3591701395138776 16.390270045455992 a38.58067111990486,38.58067111990486 0 0,0 -0.6212035146997082,0.23488601498763836 l -6.076096404053894 -16.497304310550263" fill="#ffc212" stroke="none" /><path d="M 107.2578585660854 119.70592522655815 l 6.080236788665232 16.50854593351898 a38.592650972646055,38.592650972646055 0 0,0 -0.625348772830252,0.22422782109329142 l -5.795168455205245 -16.61076129565223" fill="#ffc212" stroke="none" /><path d="M 106.57524785965236 119.94407469862006 l 2.7509564180150257 8.344214767964761 a29.785993473008006,29.785993473008006 0 0,0 -0.4883181794293917,0.15634406047343966 l -2.606916893494694 -8.390331675097906" fill="#ff4606" stroke="none" /><path d="M 105.88484417918355 120.15858648285463 l 6.486945253041942 22.221089108111553 a44.14859088295867,44.14859088295867 0 0,0 -0.7313294638229755,0.20668101152893925 l -6.10348462111436 -22.32945891297901" fill="#f3ff19" stroke="none" /><path d="M 105.18746579009965 120.34920634021253 l 2.1733472959598807 8.525529490495385 a29.798186833783575,29.798186833783575 0 0,0 -0.4981216956479913,0.1224261935496327 l -2.026272315568678 -8.561676942359048" fill="#ff4606" stroke="none" /><path d="M 104.83641907484287 120.43548508189849 l 4.0641856635181375 17.17254113252976 a38.64691967613535,38.64691967613535 0 0,0 -0.6486790701842975,0.14763724445621126 l -3.767986443940978 -17.239955110563656" fill="#ffc312" stroke="none" /><path d="M 104.48393922423573 120.51570834832081 l 3.8546949743828867 17.636679248179707 a39.053008841982695,39.053008841982695 0 0,0 -0.6579660945317846,0.13788319239364394 l -3.550537418421724 -17.70041842129989" fill="#ffc812" stroke="none" /><path d="M 104.13013068566511 120.58985236759428 l 3.5293737722771357 17.59491174782113 a38.9454004869786,38.9454004869786 0 0,0 -0.6584227826834437,0.12618829336071227 l -3.2259833750219875 -17.65305723953031" fill="#ffc712" stroke="none" /><path d="M 103.7750983002368 120.6578951692458 l 3.259613227899527 17.837084758829022 a39.132475591853094,39.132475591853094 0 0,0 -0.6636700681373038,0.11538754831617017 l -2.952094188290173 -17.8905508856662" fill="#ffc912" stroke="none" /><path d="M 102.70371172650421 120.8252237178851 l 2.24521015009461 17.29363497263133 a38.43877229579839,38.43877229579839 0 0,0 -0.6568867270730656,0.07953983459812132 l -1.9471959999701638 -17.329720335954804" fill="#ffc011" stroke="none" /><path d="M 102.34483914955558 120.86867818915974 l 1.952217260479278 17.374408718818295 a38.48374189241715,38.48374189241715 0 0,0 -0.6589285307217441,0.06830063640552259 l -1.6528561331519314 -17.405438723679577" fill="#ffc111" stroke="none" /><path d="M 101.98527174616119 120.90594882070398 l 1.6520959494880263 17.397433592491534 a38.47570074793762,38.47570074793762 0 0,0 -0.6598686787259881,0.05693624618307386 l -1.3523829530204965 -17.42329409095327" fill="#ffc111" stroke="none" /><path d="M 101.62511606390274 120.93702456842531 l 0.8965678912912557 11.550845126806783 a32.58558833754982,32.58558833754982 0 0,0 -0.5595988864975359,0.03859321556503311 l -0.6976062440147894 -11.564566686888101" fill="#ff6f0a" stroke="none" /><path d="M 100.90346689309514 120.98055641714683 l 0.7605696086395018 17.662156416779663 a38.67852469581037,38.67852469581037 0 0,0 -0.6654173238021737,0.02291831806529895 l -0.456431933162676 -17.672631533271055" fill="#ffc312" stroke="none" /><line stroke="#e1ed5e" stroke-width="0.3" x1="102.19456741930631" x2="102.32365962044197" y1="184.97166512339345" y2="189.96999836594603" /><path d="M 102.22038585953345 185.97133177190398 a86.0,86.0 0 0,1 -42.740103519485714,-10.115201625700543" fill="none" id="id79" stroke="none" /><text fill="#e1ed5e" style="font-size:6.75px; font-family:Arial;" text-anchor="middle"><textPath startOffset="22.20632615414155" xlink:href="#id79">July</textPath></text><path d="M 100.54218724476979 120.99299961872073 l 0.22385516294887692 8.667469395060628 a29.670359672371816,29.670359672371816 0 0,0 -0.5106697143322928,0.008791642247468503 l -0.07462575872391618 -8.670038514587256" fill="#ff4406" stroke="none" /><path d="M 100.18074693466247 120.99922214144158 l 0.15611118636039992 18.137035005699815 a39.13770684239017,39.13770684239017 0 0,0 -0.6737162420456982,0.0 l 0.15611118636038743 -18.137035005699815" fill="#ffc912" stroke="none" /><path d="M 99.45781275523022 120.99299961872073 l -0.44977446177423736 17.414860263904096 a38.42066746935289,38.42066746935289 0 0,0 -0.6609812015120616,-0.022765529044056154 l 0.7494760149609421 -17.404537936433947" fill="#ffc011" stroke="none" /><path d="M 99.09653310690486 120.98055641714683 l -0.752802975219292 17.48179752162891 a38.49799865432415,38.49799865432415 0 0,0 -0.6618208026863078,-0.03420857591229429 l 1.0536118463190887 -17.466249138954414" fill="#ffc111" stroke="none" /><path d="M 98.01472825383883 120.90594882070398 l -1.658597733904917 17.465900779679306 a38.54447595365894,38.54447595365894 0 0,0 -0.6599684349454901,-0.06840842673021964 l 1.9589987654560002 -17.434762984493325" fill="#ffc212" stroke="none" /><path d="M 97.2962882734958 120.8252237178851 l -1.1668656407583338 8.987732597115672 a30.06316239845883,30.06316239845883 0 0,0 -0.5126075673045353,-0.07104273793761436 l 1.3214017992497 -8.966315293685453" fill="#ff4a06" stroke="none" /><path d="M 95.86986931433489 120.58985236759428 l -3.409690598057624 16.998257773500733 a38.33686123001683,38.33686123001683 0 0,0 -0.6459004211988884,-0.13535471323439446 l 3.701782480685899 -16.9370470795398" fill="#ffbf11" stroke="none" /><path d="M 95.16358092515715 120.4354850818985 l -4.00370910796165 16.917007497053994 a38.384327116013324,38.384327116013324 0 0,0 -0.6416519976865996,-0.1577024497158233 l 4.2943143903914605 -16.845583789024143" fill="#ffbf11" stroke="none" /><path d="M 94.46302465271185 120.25689768951611 l -4.557522538618172 16.673591986944338 a38.285244616062194,38.285244616062194 0 0,0 -0.6342020630199369,-0.1792318378826168 l 4.843855769742723 -16.5926713557232" fill="#ffbe11" stroke="none" /><path d="M 92.06813273071674 119.44442032107085 l -6.5747476746655575 16.11753613001802 a38.40696061602819,38.40696061602819 0 0,0 -0.6099913104477299,-0.25497641723891207 l 6.85121044461075 -16.001974669759132" fill="#ffc011" stroke="none" /><path d="M 91.07499286063937 119.00905698771935 l -3.758688376425365 8.005497410914847 a29.843965575873725,29.843965575873725 0 0,0 -0.4631319198959099,-0.22233146603046283 l 3.8959329643215166 -7.939611668384822" fill="#ff4706" stroke="none" /><path d="M 90.7491055286396 118.85261126421891 l -7.5952015872245475 15.478436538284942 a38.24149311458531,38.24149311458531 0 0,0 -0.5884566221121363,-0.2950643664861103 l 7.860512117019444 -15.345404330889531" fill="#ffbd11" stroke="none" /><path d="M 90.10565033884886 118.52300852407294 l -8.240384882377278 15.426655075393592 a38.48958632515014,38.48958632515014 0 0,0 -0.5817007942959703,-0.31718965349841494 l 8.504708488541889 -15.28252477013541" fill="#ffc111" stroke="none" /><line stroke="#e1ed5e" stroke-width="0.3" x1="58.666819895761336" x2="56.23545636021788" y1="174.27360380694188" y2="178.64263932499728" /><path d="M 58.180547188652646 175.14741091055294 a86.0,86.0 0 0,1 -31.652253787137756,-30.449443065178592" fill="none" id="id80" stroke="none" /><text fill="#e1ed5e" style="font-size:6.75px; font-family:Arial;" text-anchor="middle"><textPath startOffset="22.20632615414155" xlink:href="#id80">August</textPath></text><path d="M 89.7882731507175 118.34994917583269 l -4.195168894950879 7.538503246568113 a29.627193822772348,29.627193822772348 0 0,0 -0.44349261480251806,-0.25182668113112694 l 4.324310276674605 -7.465173399642353" fill="#ff4406" stroke="none" /><path d="M 82.6465618267979 111.8261652097733 l -8.249874473739352 5.6221929921066645 a30.983460465837958,30.983460465837958 0 0,0 -0.2965513970125159,-0.44330410191179176 l 8.345428976162598 -5.479351975989052" fill="#ff5808" stroke="none" /><line stroke="#e1ed5e" stroke-width="0.3" x1="26.63291911575756" x2="22.317208475507996" y1="142.92168965132927" y2="145.44649492493687" /><path d="M 25.769776987707644 143.4266507060508 a86.0,86.0 0 0,1 -11.730757126820373,-40.83630448921669" fill="none" id="id81" stroke="none" /><text fill="#e1ed5e" style="font-size:6.75px; font-family:Arial;" text-anchor="middle"><textPath startOffset="21.46611528233685" xlink:href="#id81">September</textPath></text><path d="M 81.87401531095188 110.60418214915194 l -7.705921763654387 4.508168764937673 a29.927755364072315,29.927755364072315 0 0,0 -0.25630700294611386,-0.4468928638181275 l 7.782380762752878 -4.3748560552612386" fill="#ff4806" stroke="none" /><line stroke="#e1ed5e" stroke-width="0.3" x1="15.007084014347285" x2="10.007500721073583" y1="101.09737516637583" y2="101.16192664675087" /><path d="M 14.007167355692545 101.11028546245083 a86.0,86.0 0 0,1 10.666146001902534,-42.60595125391555" fill="none" id="id82" stroke="none" /><text fill="#e1ed5e" style="font-size:6.75px; font-family:Arial;" text-anchor="middle"><textPath startOffset="22.20632615414155" xlink:href="#id82">October</textPath></text><line stroke="#e1ed5e" stroke-width="0.3" x1="26.266209847984243" x2="21.928928074336255" y1="57.711370442889674" y2="55.22380399835377" /><path d="M 25.398753493254645 57.213857153982495 a86.0,86.0 0 0,1 29.58750427330803,-30.492523968695096" fill="none" id="id83" stroke="none" /><text fill="#e1ed5e" style="font-size:6.75px; font-family:Arial;" text-anchor="middle"><textPath startOffset="21.46611528233685" xlink:href="#id83">November</textPath></text><path d="M 86.10567301691215 84.25364557470407 l -41.68298094926353 -47.23906327588782 a84.0,84.0 0 0,0 1.092424805412906,-0.9473400263212777 l 40.863662345203856 47.94956829562878" fill="#4dd2ff" stroke="none" /><line stroke="#e1ed5e" stroke-width="0.3" x1="56.762969772571076" x2="54.21961505331055" y1="26.818313649435495" y2="22.513508569990535" /><path d="M 56.25429882871897 25.957352633546506 a86.0,86.0 0 0,1 42.265352541879196,-11.944610805530505" fill="none" id="id84" stroke="none" /><text fill="#e1ed5e" style="font-size:6.75px; font-family:Arial;" text-anchor="middle"><textPath startOffset="22.20632615414155" xlink:href="#id84">December</textPath></text><path d="M 89.94658935756843 81.56283822128135 l -4.402860380936851 -8.074498498035071 a30.196885642911628,30.196885642911628 0 0,0 0.4584965031743177,-0.24491295325627366 l 4.263218831234228 8.149090177793095" fill="#ff4c07" stroke="none" /><path d="M 90.26544431104013 81.39251694778311 l -3.3020232342696065 -6.311776657601427 a28.123333630758744,28.123333630758744 0 0,0 0.43087560236851624,-0.2207112188323449 l 3.1928871443123263 6.367680401746277" fill="#ff2d04" stroke="none" /><path d="M 91.23893434514133 80.91482961587045 l -3.0193288139878525 -6.577328276122766 a28.237236609290964,28.237236609290964 0 0,0 0.4434831218489899,-0.19897794955092601 l 2.905663573672088 6.6283265561902205" fill="#ff2f04" stroke="none" /><path d="M 92.23578459929587 80.48803036053334 l -3.1908324557548746 -8.018765939397772 a29.630296573788442,29.630296573788442 0 0,0 0.47551946530567213,-0.18449416490045875 l 3.0523298254495264 8.072502808188784" fill="#ff4406" stroke="none" /><path d="M 92.57280143429618 80.3572730644239 l -2.3374239827850904 -6.18178989296531 a27.60893918538119,27.60893918538119 0 0,0 0.44597333992150373,-0.16425574481692864 l 2.230668317091017 6.221108905588561" fill="#ff2603" stroke="none" /><path d="M 93.59665428221793 80.00007090966166 l -2.021801943750138 -6.314807491561887 a27.63057137471862,27.63057137471862 0 0,0 0.4542132094720522,-0.14112625517957517 l 1.9128033615673572 6.348673881623988" fill="#ff2603" stroke="none" /><path d="M 93.94186890950719 79.89281104454417 l -1.9076177160574244 -6.3314625085839 a27.61259577232872,27.61259577232872 0 0,0 0.4562781355736651,-0.13320009974425578 l 1.798349362760338 6.363360937246854" fill="#ff2603" stroke="none" /><path d="M 94.63758080256005 79.69619591428918 l -2.3044389036794874 -8.725329800798832 a30.024512108335813,30.024512108335813 0 0,0 0.5008247482437925,-0.12767137965552747 l 2.1539052667506957 8.763704176623223" fill="#ff4a06" stroke="none" /><path d="M 94.98787191387505 79.60689891045804 l -2.0520330703791703 -8.34921157724826 a29.597684204690594,29.597684204690594 0 0,0 0.495798296379681,-0.11733943815257457 l 1.9080110870369553 8.383296927541705" fill="#ff4306" stroke="none" /><path d="M 95.692805502759 79.44645832069477 l -1.8180909042156552 -8.675764978920405 a29.864217534867556,29.864217534867556 0 0,0 0.5040419928256006,-0.10110608197993712 l 1.6684825019229181 8.705775016977553" fill="#ff4706" stroke="none" /><path d="M 96.40284397218896 79.31037775812273 l -1.4890045686972724 -8.564249591787325 a29.692727171378998,29.692727171378998 0 0,0 0.5043108843865346,-0.08321561702617773 l 1.3413644781718521 8.58861147175313" fill="#ff4506" stroke="none" /></svg>