<?xml version="1.0" encoding="utf-8" ?>
<svg baseProfile="full" height="200mm" version="1.1" viewBox="0,0,200,200" width="200mm" xmlns="http://www.w3.org/2000/svg" xmlns:ev="http://www.w3.org/2001/xml-events" xmlns:xlink="http://www.w3.org/1999/xlink"><defs /><rect fill="#1a1a1a" height="200" width="200" x="0" y="0" /><text alignment-baseline="middle" fill="#e1ed5e" style="dominant-baseline: central; font-size:9.0px; font-family:Arial;" text-anchor="middle" x="100.0" y="100.0">2019</text><line stroke="#e1ed5e" stroke-width="0.3" x1="100.0" x2="100.0" y1="15.0" y2="10.0" /><path d="M 100.0 14.0 a86.0,86.0 0 0,1 42.46469731375804,11.215312516191453" fill="none" id="id61" stroke="none" /><text fill="#e1ed5e" style="font-size:6.75px; font-family:Arial;" text-anchor="middle"><textPath startOffset="22.20632615414155" xlink:href="#id61">January</textPath></text><path d="M 101.80526077348638 79.07773832637324 l 0.992115755295629 -11.498231029933615 a32.540953621327574,32.540953621327574 0 0,0 0.55765102613512,0.052955684331700455 l -1.1898919085209931 11.479449801086737" fill="#ff8e0d" stroke="none" /><path d="M 104.307194497241 79.44645832069477 l 2.2063877498714466 -10.528682325987331 a31.75738343763672,31.75738343763672 0 0,0 0.5340643344213168,0.1167257779609198 l -2.3872948084462915 10.489143049930542" fill="#ff830c" stroke="none" /><path d="M 106.0581310904928 79.89281104454417 l 2.563041275994574 -8.506840553175191 a29.88456621223557,29.88456621223557 0 0,0 0.491266161269465,0.15263878766756048 l -2.709092809974757 8.461461630625111" fill="#ff6a09" stroke="none" /><path d="M 106.74666289553966 80.11325718540242 l 3.411319080434668 -10.05534532575862 a31.618242203340124,31.618242203340124 0 0,0 0.5138988125660036,0.17928920503658308 l -3.583899897063945 9.995135267549829" fill="#ff810b" stroke="none" /><path d="M 108.09893153111575 80.62456947434976 l 7.661595731649368 -18.329172835190025 a40.86601686240842,40.86601686240842 0 0,0 0.6466876741806276,0.27687791283162 l -7.97596716362031 18.194575394395613" fill="#fff917" stroke="none" /><path d="M 109.08828744355905 81.06846463323043 l 4.242148175561182 -8.836689939162316 a30.802189052671324,30.802189052671324 0 0,0 0.47600930412231296,0.2335756982471084 l -4.393628746693927 8.762359080780374" fill="#ff760a" stroke="none" /><line stroke="#e1ed5e" stroke-width="0.3" x1="143.23703022742887" x2="145.7803849466894" y1="26.81831364943548" y2="22.513508569990506" /><path d="M 143.74570117128098 25.957352633546492 a86.0,86.0 0 0,1 28.547481713284135,27.462654790039103" fill="none" id="id62" stroke="none" /><text fill="#e1ed5e" style="font-size:6.75px; font-family:Arial;" text-anchor="middle"><textPath startOffset="19.985693538727396" xlink:href="#id62">February</textPath></text><path d="M 113.6212207817346 84.01681056812373 l 10.261672075706384 -12.0410829030644 a36.82054333036012,36.82054333036012 0 0,0 0.47885327241508924,0.41525683913985867 l -10.467419146768238 11.862661070504869" fill="#ffc612" stroke="none" /><path d="M 114.42810811169701 84.74124197986012 l 6.870004974168483 -7.265522457030199 a30.999239216995953,30.999239216995953 0 0,0 0.38456291672830634,0.3699492212038344 l -6.99405113450921 7.146190149064063" fill="#ff790b" stroke="none" /><path d="M 114.94478906791727 85.2469230424477 l 9.16710522320847 -9.04950937891169 a33.88136010568708,33.88136010568708 0 0,0 0.40614995871167825,0.4185732340416758 l -9.321519445623258 8.8903719493199" fill="#ff9f0e" stroke="none" /><path d="M 115.4437574822437 85.77008943001954 l 7.231474335505886 -6.663095635998535 a30.833161471243265,30.833161471243265 0 0,0 0.3562791767099909,0.39341236551845543 l -7.3450971528319124 6.53763048321053" fill="#ff760a" stroke="none" /><path d="M 116.60985879189232 87.15038557335679 l 9.854729468704965 -7.623753792148326 a33.459426743821645,33.459426743821645 0 0,0 0.34849436453250193,0.4585777336745317 l -9.98449977346158 7.452991282592761" fill="#ff9a0e" stroke="none" /><line stroke="#e1ed5e" stroke-width="0.3" x1="172.23445277983987" x2="176.4835382374775" y1="55.19839476539836" y2="52.563006222186495" /><path d="M 173.08426987136738 54.67131705675599 a86.0,86.0 0 0,1 12.851231095245387,41.99856678651699" fill="none" id="id63" stroke="none" /><text fill="#e1ed5e" style="font-size:6.75px; font-family:Arial;" text-anchor="middle"><textPath startOffset="22.20632615414155" xlink:href="#id63">March</textPath></text><path d="M 117.84615892207809 88.93136811851018 l 16.434791216756746 -10.193266507470957 a40.339210026025206,40.339210026025206 0 0,0 0.36090953683352844,0.5932403837811709 l -16.6078165518765 9.908858350482706" fill="#fff216" stroke="none" /><path d="M 118.3937258080291 89.86733742301442 l 12.843771815934593 -7.075325977179358 a35.66365275581582,35.66365275581582 0 0,0 0.291579063355174,0.540251721212037 l -12.963658978508231 6.853193272634862" fill="#ffb711" stroke="none" /><path d="M 118.73160827565052 90.50648371742162 l 8.731871400624275 -4.425469617948664 a30.78929821266197,30.78929821266197 0 0,0 0.23552345076455586,0.4748009049055714 l -8.806754864342238 4.274509124544142" fill="#ff760a" stroke="none" /><path d="M 118.89224826269711 90.83032412892265 l 8.787200707442935 -4.26501817999347 a30.767562456854854,30.767562456854854 0 0,0 0.22715516449511192,0.4784467082161582 l -8.859314065779804 4.1131290561367715" fill="#ff760a" stroke="none" /><path d="M 119.196687751892 91.48605970444005 l 10.704377935811083 -4.7475083110430045 a32.70993348213821,32.70993348213821 0 0,0 0.22384387246720058,0.5166625198352651 l -10.784512518120964 4.562546646621136" fill="#ff900d" stroke="none" /><path d="M 119.61058180528143 92.48833698450437 l 9.14255821290048 -3.5019775076925534 a30.790312412822104,30.790312412822104 0 0,0 0.18532162893248408,0.49656982942197003 l -9.201484430334588 3.3440845412412505" fill="#ff760a" stroke="none" /><path d="M 119.7369772167798 92.82701384747503 l 9.196986829931975 -3.342449983676877 a30.785526998752992,30.785526998752992 0 0,0 0.17671906834981443,0.49960860347059816 l -9.253158979091598 3.1836437537796645" fill="#ff760a" stroke="none" /><path d="M 119.97218684219823 93.5106431181261 l 9.326982029000439 -3.030520167632599 a30.806969269643147,30.806969269643147 0 0,0 0.15952804618071822,0.5057475013626617 l -9.377765558949362 2.869522499843518" fill="#ff760a" stroke="none" /><path d="M 120.08093135843002 93.85539295169968 l 27.708958616429797 -8.478723390690766 a49.97714854748248,49.97714854748248 0 0,0 0.2446360071358882,0.8247910009886084 l -27.85080052067739 8.000503002955629" fill="#9bff22" stroke="none" /><path d="M 120.53481517161879 95.60439243477599 l 9.984872745326768 -2.1373254061627653 a31.211064764861604,31.211064764861604 0 0,0 0.1079318808793753,0.5263141823951368 l -10.020183922121142 1.9651355676042168" fill="#ff7c0b" stroke="none" /><path d="M 120.73433829027371 96.67025291283417 l 40.73982329348884 -6.542446932428935 a62.26180817473156,62.26180817473156 0 0,0 0.16082553129961943,1.0596393097963306 l -40.84640471822776 5.840208510240522" fill="#32ff47" stroke="none" /><path d="M 120.96714384426684 98.82574320788733 l 12.893181667035572 -0.7220776590703287 a33.913385677075965,33.913385677075965 0 0,0 0.02762550769145671,0.5831308049906081 l -12.903700782960525 0.5000357474567209" fill="#ffa00e" stroke="none" /><line stroke="#e1ed5e" stroke-width="0.3" x1="184.98032266829074" x2="189.97916517819016" y1="98.17113171792111" y2="98.06355123074" /><path d="M 185.9800911702706 98.14961562048488 a86.0,86.0 0 0,1 -9.607161424134198,41.387399972396054" fill="none" id="id64" stroke="none" /><text fill="#e1ed5e" style="font-size:6.75px; font-family:Arial;" text-anchor="middle"><textPath startOffset="21.466115282336823" xlink:href="#id64">April</textPath></text><path d="M 120.99980553446 99.90962569577887 l 10.744110369714436 -0.046238118612317886 a31.744209863932205,31.744209863932205 0 0,0 -0.0023516453965668816,0.5464395708440282 l -10.743314427028366 -0.138710930435395" fill="#ff830c" stroke="none" /><path d="M 120.9764740272857 100.99374915477107 l 11.41193421757984 0.540634234727503 a32.424733168093205,32.424733168093205 0 0,0 -0.031210579944063167,0.5572858709829406 l -11.400937286748249 -0.736991822045867" fill="#ff8c0c" stroke="none" /><path d="M 120.95626037817324 101.35467743843564 l 9.71841441417341 0.628228343543614 a30.738698556647343,30.738698556647343 0 0,0 -0.03867724752600853,0.5277203132761582 l -9.706160607983062 -0.7954217933165425" fill="#ff750a" stroke="none" /><path d="M 120.64145759157962 103.86396538481128 l 9.57152164671371 1.791735305454433 a30.737779112216554,30.737779112216554 0 0,0 -0.10182996919124462,0.5192288190703083 l -9.5392617445468 -1.956227851592686" fill="#ff750a" stroke="none" /><path d="M 120.49622156327973 104.57218783832717 l 6.1807665576380595 1.3787724532116152 a27.332684163745434,27.332684163745434 0 0,0 -0.1063884826258806,0.45831879870701414 l -6.156117509081626 -1.4849599092671941" fill="#ff4606" stroke="none" /><path d="M 120.23288151984713 105.62410040840565 l 29.870536692210717 8.303063379537242 a52.003061522458054,52.003061522458054 0 0,0 -0.24715659259078493,0.860384522707303 l -29.723187462733833 -8.816005377749127" fill="#85ff25" stroke="none" /><path d="M 120.13307415673323 105.97154293290107 l 19.691058308296615 5.840439426530731 a41.538951044191904,41.538951044191904 0 0,0 -0.20922423422161557,0.6837569030694144 l -19.587607301568866 -6.178523302152202" fill="#fdff18" stroke="none" /><path d="M 120.02730092923936 106.31721596034902 l 9.395488715003825 2.963621082811358 a30.851814965591274,30.851814965591274 0 0,0 -0.16411365723187926,0.505089901088181 l -9.3430828067557 -3.124909883877334" fill="#ff770a" stroke="none" /><path d="M 119.67450827220406 107.3425965602758 l 13.727832571764086 5.123276009082434 a35.652690680677956,35.652690680677956 0 0,0 -0.2195284215664253,0.5731194358468799 l -13.637609870604155 -5.358819011762458" fill="#ffb710" stroke="none" /><path d="M 119.26925614724726 108.34839909993367 l 11.655111722121365 5.0495734483494585 a33.70196131569478,33.70196131569478 0 0,0 -0.23520585204080144,0.5303271038204966 l -11.566464785349291 -5.249448888662642" fill="#ff9d0e" stroke="none" /><path d="M 119.12269723197855 108.67885076344098 l 13.418804748337147 6.0901347975021904 a35.736148164487986,35.736148164487986 0 0,0 -0.2590451831908448,0.5579602788517172 l -13.31198494830647 -6.320215143632739" fill="#ffb811" stroke="none" /><path d="M 118.81262510543309 109.33194174019688 l 14.92541619518216 7.403704352850038 a37.66081890976,37.66081890976 0 0,0 -0.29307529157959106,0.5782653543466496 l -14.795762233816301 -7.6595239188993824" fill="#ffd013" stroke="none" /><path d="M 118.64920377521936 109.65438752849418 l 13.96027260729829 7.227004615251693 a36.720012944617835,36.720012944617835 0 0,0 -0.29541686118774485,0.5588173706163163 l -13.833803237885652 -7.466237000954144" fill="#ffc412" stroke="none" /><line stroke="#e1ed5e" stroke-width="0.3" x1="174.80103733775053" x2="179.2010983576182" y1="140.37084112569926" y2="142.7455964860345" /><path d="M 175.68104954172406 140.8457921977663 a86.0,86.0 0 0,1 -30.038265399797805,32.042727171017184" fill="none" id="id65" stroke="none" /><text fill="#e1ed5e" style="font-size:6.75px; font-family:Arial;" text-anchor="middle"><textPath startOffset="22.206326154141568" xlink:href="#id65">May</textPath></text><path d="M 118.12598468904814 110.60418214915192 l 11.793244047287418 6.899360787963057 a34.66315426398174,34.66315426398174 0 0,0 -0.3057275751577123,0.512417001381593 l -11.67273559643148 -7.101339883230755" fill="#ffaa0f" stroke="none" /><path d="M 117.75023020441432 111.22182372390056 l 12.495044935730265 7.899457645124541 a35.78267834436761,35.78267834436761 0 0,0 -0.3336225902462152,0.5177896688481763 l -12.357217482107 -8.11336891389417" fill="#ffb811" stroke="none" /><path d="M 117.55443506779139 111.5257021239791 l 7.573823385259833 4.97273947814458 a30.06040499031949,30.06040499031949 0 0,0 -0.2877165739595372,0.4300972401721217 l -7.487103705889575 -5.102373632522508" fill="#ff6c09" stroke="none" /><path d="M 116.93607887273984 112.41649034213515 l 11.868022905582542 8.700903727166287 a35.71583138517318,35.71583138517318 0 0,0 -0.36776886369816786,0.4926864928524597 l -11.716492775189282 -8.90390309952806" fill="#ffb711" stroke="none" /><path d="M 116.498646956653 112.99209946851258 l 11.181539588588526 8.80506595042166 a35.23221746469774,35.23221746469774 0 0,0 -0.3793034898741098,0.4732394241956904 l -11.028318186659563 -8.996233208195601" fill="#ffb110" stroke="none" /><path d="M 115.80600337817218 113.82643327865902 l 7.956189045633385 6.959742723056977 a31.570665206173224,31.570665206173224 0 0,0 -0.36132047585804766,0.40594738495857446 l -7.835209720127004 -7.095664277756418" fill="#ff810b" stroke="none" /><path d="M 114.55890576462653 115.13401014063108 l 16.51389117762898 17.166221183376564 a44.81990242513975,44.81990242513975 0 0,0 -0.5605991558659404,0.5300814927062948 l -16.215956187372235 -17.44793731282878" fill="#d6ff1c" stroke="none" /><path d="M 114.29624159901734 115.38237550388516 l 12.088895099722771 13.00732941333299 a38.75759001663961,38.75759001663961 0 0,0 -0.49259134461998516,0.4499705140823036 l -11.863204205635922 -13.213492694001877" fill="#ffde14" stroke="none" /><path d="M 114.0293411484842 115.62618273729858 l 6.979336862414732 7.773735918385596 a31.447110278342976,31.447110278342976 0 0,0 -0.4059037961873671,0.35816290651021127 l -6.844490713320777 -7.892721966668096" fill="#ff7f0b" stroke="none" /><path d="M 113.48314897796784 116.09983520530334 l 6.764636105124602 8.07745480631527 a31.53591845938554,31.53591845938554 0 0,0 -0.41917223170444706,0.3449502095925176 l -6.624593744875464 -8.192700134764966" fill="#ff800b" stroke="none" /><path d="M 113.20401910651253 116.32954008644616 l 6.233623707295836 7.709183650143478 a30.91410999917795,30.91410999917795 0 0,0 -0.416667009741854,0.33102547226334017 l -6.099999204836631 -7.815343036411944" fill="#ff780b" stroke="none" /><path d="M 112.63410532772338 116.77436683061366 l 12.46682632351276 16.552269633629614 a41.721954266067854,41.721954266067854 0 0,0 -0.5773822368204103,0.4271335755399495 l -12.180059116273785 -16.764413157909335" fill="#fbff18" stroke="none" /><path d="M 112.34349029814194 116.9893568818739 l 5.837313556610107 8.034372843439433 a30.931030991069417,30.931030991069417 0 0,0 -0.43343605438718863,0.30924511636425284 l -5.698150174374034 -8.133662221647906" fill="#ff780b" stroke="none" /><path d="M 112.04921762599082 117.19931262002967 l 5.509457691878817 7.864318510195282 a30.602167968141508,30.602167968141508 0 0,0 -0.4340307164250036,0.29853028446048907 l -5.373270090830929 -7.957989584020866" fill="#ff730a" stroke="none" /><path d="M 111.7513745106137 117.40417183066458 l 5.510625839166366 8.161417961169457 a30.847626123903538,30.847626123903538 0 0,0 -0.442627154044866,0.2933491419799371 l -5.369323986381536 -8.255065124240712" fill="#ff770a" stroke="none" /><path d="M 111.45004920935366 117.60387380957326 l 5.341329331969355 8.212024753443696 a30.79628243691086,30.79628243691086 0 0,0 -0.44686608037282105,0.2852110752307577 l -5.199181449549603 -8.302750257498264" fill="#ff760a" stroke="none" /><path d="M 111.1453310114006 117.79835938074945 l 5.216844533083012 8.330957038272944 a30.829563167094843,30.829563167094843 0 0,0 -0.45219746249838,0.2777766149455894 l -5.072667870652324 -8.41952212004691" fill="#ff760a" stroke="none" /><line stroke="#e1ed5e" stroke-width="0.3" x1="143.8653032363475" x2="146.44561519142675" y1="172.8068346515853" y2="177.08958963109032" /><path d="M 144.38136562736335 173.6633856474863 a86.0,86.0 0 0,1 -40.68145358897372,12.25698825130547" fill="none" id="id66" stroke="none" /><text fill="#e1ed5e" style="font-size:6.75px; font-family:Arial;" text-anchor="middle"><textPath startOffset="21.466115282336833" xlink:href="#id66">June</textPath></text><path d="M 110.8373102113329 117.98757091392108 l 8.123198419891452 13.482737392978793 a36.740729340693065,36.740729340693065 0 0,0 -0.5445188291749471,0.3217113221969318 l -7.889911719688122 -13.620567287469473" fill="#ffc512" stroke="none" /><path d="M 109.89434966115114 118.52300852407294 l 4.77567647277568 8.94044571325032 a31.136007859320117,31.136007859320117 0 0,0 -0.47491174173079836,0.2484513775584827 l -4.621073828518386 -9.021326509753518" fill="#ff7b0b" stroke="none" /><path d="M 109.2508944713604 118.85261126421891 l 3.5846872452834977 7.305316837020993 a29.137421995679013,29.137421995679013 0 0,0 -0.45216746264396035,0.2170678602405541 l -3.458407114639305 -7.365938973761107" fill="#ff5f08" stroke="none" /><path d="M 107.93186726928326 119.44442032107085 l 5.656742636739016 13.86711069949801 a35.97649813576035,35.97649813576035 0 0,0 -0.5754165467438567,0.22897011919350238 l -5.417205013953293 -13.962427663097582" fill="#ffbb11" stroke="none" /><path d="M 107.59598834532513 119.57807347666477 l 6.32683109001675 16.306918642263028 a38.49126602756324,38.49126602756324 0 0,0 -0.6197639659313092,0.23434170082072148 l -6.045196903325166 -16.41340859319038" fill="#ffdb14" stroke="none" /><path d="M 106.91757812671514 119.82793768551818 l 1.3524850965864073 3.876644357964276 a25.10579924188027,25.10579924188027 0 0,0 -0.4092607123474875,0.1388434540708258 l -1.2855546513016927 -3.899350798933225" fill="#ff2603" stroke="none" /><path d="M 106.57524785965236 119.94407469862006 l 1.988871776711367 6.032655821860663 a27.352050630247557,27.352050630247557 0 0,0 -0.44841558095172024,0.1435685085234175 l -1.8847348506687065 -6.065997177043788" fill="#ff4606" stroke="none" /><path d="M 106.2309692047433 120.05430185196036 l 1.8303215834018967 5.890868709759868 a27.16866365222604,27.16866365222604 0 0,0 -0.44779782862148104,0.13491781242205153 l -1.7286487803401698 -5.921501891287645" fill="#ff4406" stroke="none" /><path d="M 105.53697534728816 120.25689768951611 l 4.212208422858823 15.41026819101866 a36.97557715754659,36.97557715754659 0 0,0 -0.6153960761487343,0.16253169695877845 l -3.946321903898591 -15.480491237281022" fill="#ffc812" stroke="none" /><path d="M 105.18746579009965 120.34920634021253 l 2.5723408363718057 10.090687163004723 a31.413400251603427,31.413400251603427 0 0,0 -0.5251224273034366,0.12906231646600375 l -2.3982651243251576 -10.133470737784757" fill="#ff7e0b" stroke="none" /><path d="M 104.48393922423573 120.51570834832081 l 2.2051245683309615 10.089274241513786 a31.327440587208933,31.327440587208933 0 0,0 -0.5278055224437324,0.11060677898505501 l -2.031127584457851 -10.125737001225383" fill="#ff7d0b" stroke="none" /><path d="M 103.7750983002368 120.6578951692458 l 2.3340873959451667 12.772470782620024 a33.98398913526934,33.98398913526934 0 0,0 -0.5763539373337551,0.10020651975155045 l -2.1138844871393614 -12.81075588089258" fill="#ffa10e" stroke="none" /><path d="M 103.06178313531738 120.77559828337769 l 1.5050551837989425 10.212487465961823 a31.322794745063344,31.322794745063344 0 0,0 -0.5340855829681226,0.07401939520046634 l -1.3290410096439895 -10.236881426654891" fill="#ff7d0b" stroke="none" /><path d="M 101.98527174616119 120.90594882070398 l 0.4387673015830161 4.620448948024342 a25.641235312525932,25.641235312525932 0 0,0 -0.4397541237110691,0.03794383618264205 l -0.35916886013040533 -4.627317036485647" fill="#ff2e04" stroke="none" /><path d="M 101.62511606390274 120.93702456842531 l 0.7583797794810614 9.770512043958425 a30.799900279648888,30.799900279648888 0 0,0 -0.5289329050065156,0.03647830993753331 l -0.5900841136956154 -9.782118698412242" fill="#ff760a" stroke="none" /><line stroke="#e1ed5e" stroke-width="0.3" x1="102.19456741930631" x2="102.32365962044197" y1="184.97166512339345" y2="189.96999836594603" /><path d="M 102.22038585953345 185.97133177190398 a86.0,86.0 0 0,1 -42.740103519485714,-10.115201625700543" fill="none" id="id67" stroke="none" /><text fill="#e1ed5e" style="font-size:6.75px; font-family:Arial;" text-anchor="middle"><textPath startOffset="22.20632615414155" xlink:href="#id67">July</textPath></text><path d="M 99.45781275523022 120.99299961872073 l -0.3220844007523389 12.47081661808694 a33.47497516964108,33.47497516964108 0 0,0 -0.5758965360470469,-0.019835041129397588 l 0.5367012884740289 -12.46342477853145" fill="#ff9a0e" stroke="none" /><path d="M 99.09653310690486 120.98055641714683 l -0.4461008942072117 10.359477530593347 a31.369078103413095,31.369078103413095 0 0,0 -0.5392672132476806,-0.027873955195298557 l 0.6243561758683812 -10.350263768635847" fill="#ff7e0b" stroke="none" /><path d="M 98.01472825383883 120.90594882070398 l -0.6295112675088477 6.629082575745279 a27.658905332858417,27.658905332858417 0 0,0 -0.4735828938698861,-0.049088803313236215 l 0.7435267579843271 -6.617264403976282" fill="#ff4b06" stroke="none" /><path d="M 97.2962882734958 120.8252237178851 l -0.5685893682746038 4.379535244772409 a25.416290618824654,25.416290618824654 0 0,0 -0.43337366612797495,-0.06006164121549539 l 0.6438916255894097 -4.369099038064309" fill="#ff2b04" stroke="none" /><path d="M 96.93821686468263 120.77559828337769 l -0.9597994989634682 6.5126783778516435 a27.583023221252287,27.583023221252287 0 0,0 -0.46912698418499005,-0.07326798684597809 l 1.0717623467569752 -6.4951920836585595" fill="#ff4906" stroke="none" /><path d="M 96.22490169976321 120.6578951692458 l -3.7043626702113333 20.270819359933792 a41.60651402628601,41.60651402628601 0 0,0 -0.7034123773385024,-0.13481065625248845 l 4.05274266212153 -20.204051505332835" fill="#fcff18" stroke="none" /><path d="M 94.11515582081647 120.15858648285463 l -0.6992007638402131 2.3951184836140356 a23.49509003018014,23.49509003018014 0 0,0 -0.3872494589154679,-0.11667508531548014 l 0.7403251971959269 -2.3827280291928297" fill="#ff0f01" stroke="none" /><path d="M 93.76903079525671 120.05430185196036 l -3.6354584259257288 11.700680624174407 a33.25244812417358,33.25244812417358 0 0,0 -0.5451480053630364,-0.1745391761106397 l 3.8363277763797057 -11.63636860140406" fill="#ff970d" stroke="none" /><path d="M 92.40401165467489 119.57807347666478 l -2.5160368611052184 6.484890747236481 a27.955878771947763,27.955878771947763 0 0,0 -0.4471328800107655,-0.17792340072725119 l 2.627290817157842 -6.440620502103163" fill="#ff4f07" stroke="none" /><path d="M 92.06813273071674 119.44442032107085 l -3.7532345019380506 9.200793046783176 a30.936868818509772,30.936868818509772 0 0,0 -0.4913489859407635,-0.20538391597282252 l 3.911054947376276 -9.13482408779038" fill="#ff780b" stroke="none" /><path d="M 91.7346041902142 119.30500536409082 l -0.5816631841314531 1.3585569461122828 a22.477839313187964,22.477839313187964 0 0,0 -0.35437847023628216,-0.15534910712833613 l 0.6049623290254785 -1.3483432856894944" fill="#ff0000" stroke="none" /><path d="M 91.40352486487194 119.15986991738527 l -11.978867604874772 26.698564406836073 a50.262717072771835,50.262717072771835 0 0,0 -0.7863291037187083,-0.3609651245102028 l 12.4366647043609 -26.488412211991797" fill="#98ff23" stroke="none" /><line stroke="#e1ed5e" stroke-width="0.3" x1="58.666819895761336" x2="56.23545636021788" y1="174.27360380694188" y2="178.64263932499728" /><path d="M 58.180547188652646 175.14741091055294 a86.0,86.0 0 0,1 -31.652253787137756,-30.449443065178592" fill="none" id="id68" stroke="none" /><text fill="#e1ed5e" style="font-size:6.75px; font-family:Arial;" text-anchor="middle"><textPath startOffset="22.20632615414155" xlink:href="#id68">August</textPath></text><path d="M 89.7882731507175 118.34994917583269 l -4.4343089951615715 7.968225736166242 a30.11897569067233,30.11897569067233 0 0,0 -0.45085414987776334,-0.25600675287111496 l 4.570811911960542 -7.890715817500494" fill="#ff6d0a" stroke="none" /><path d="M 87.95078237400918 117.19931262002967 l -4.037163633719815 5.762734277849203 a28.036177695491208,28.036177695491208 0 0,0 -0.39287052035027137,-0.2803026849106425 l 4.135761481918971 -5.692387331094341" fill="#ff5007" stroke="none" /><path d="M 87.36589467227662 116.77436683061367 l -9.281320655459275 12.32285732220345 a36.427110088828634,36.427110088828634 0 0,0 -0.4976138756423813,-0.3815491004983673 l 9.492063259595144 -12.161268879877717" fill="#ffc111" stroke="none" /><path d="M 84.67929136418377 114.36230785411682 l -9.143415350531777 8.5714407358024 a33.53282252965041,33.53282252965041 0 0,0 -0.39114215850854933,-0.424507561546517 l 9.289603917036057 -8.41278191945454" fill="#ff9b0e" stroke="none" /><path d="M 84.4343377721795 114.09645910891817 l -7.456492127363956 6.752692871716882 a31.059728419056682,31.059728419056682 0 0,0 -0.355472897992687,-0.39937756923709455 l 7.571623875004977 -6.623341132738921" fill="#ff7a0b" stroke="none" /><path d="M 83.95833913139862 113.55231037782056 l -7.479103679268381 6.318493779390186 a30.790830173455074,30.790830173455074 0 0,0 -0.338558373983313,-0.4078153712794508 l 7.586758053145231 -6.188817150996974" fill="#ff760a" stroke="none" /><path d="M 82.85270091963577 112.12312394758628 l -12.502942488290563 8.839568306629765 a36.31213697408284,36.31213697408284 0 0,0 -0.35644528451627494,-0.5134860172912399 l 12.653248679968971 -8.623041027151514" fill="#ffbf11" stroke="none" /><path d="M 82.6465618267979 111.8261652097733 l -12.301998707809641 8.383668278119037 a35.887077147798,35.887077147798 0 0,0 -0.34348528869490197,-0.5134639019029082 l 12.444487101915273 -8.170667462010305" fill="#ffba11" stroke="none" /><path d="M 82.24976979558568 111.22182372390057 l -12.466809891317535 7.881607246138893 a35.74927393632113,35.74927393632113 0 0,0 -0.32435718052694756,-0.5229670525840949 l 12.600631711512438 -7.665843862189534" fill="#ffb811" stroke="none" /><path d="M 82.05923443525364 110.91462005526583 l -12.55865398545487 7.640305881156957 a35.70013822669784,35.70013822669784 0 0,0 -0.3148737304667167,-0.5277464837653562 l 12.688308591619819 -7.42299730350549" fill="#ffb711" stroke="none" /><line stroke="#e1ed5e" stroke-width="0.3" x1="26.63291911575756" x2="22.317208475507996" y1="142.92168965132927" y2="145.44649492493687" /><path d="M 25.769776987707644 143.4266507060508 a86.0,86.0 0 0,1 -11.730757126820373,-40.83630448921669" fill="none" id="id69" stroke="none" /><text fill="#e1ed5e" style="font-size:6.75px; font-family:Arial;" text-anchor="middle"><textPath startOffset="21.46611528233685" xlink:href="#id69">September</textPath></text><path d="M 81.87401531095188 110.60418214915194 l -4.261412739134247 2.4930395602617663 a25.937092745967593,25.937092745967593 0 0,0 -0.22213020742728232,-0.3873027400603765 l 4.303694942713907 -2.4193169743430825" fill="#ff3204" stroke="none" /><path d="M 81.69416730710424 110.29060199501025 l -8.539548971852673 4.800497260107634 a30.796360068258565,30.796360068258565 0 0,0 -0.2557910332823618,-0.4643350249355575 l 8.620916414586551 -4.652791716774254" fill="#ff760a" stroke="none" /><path d="M 81.51974371655577 109.97397251340807 l -3.1183188639640975 1.6829867595008903 a24.543495021868896,24.543495021868896 0 0,0 -0.197455329682845,-0.37351107077608137 l 3.1468267018718286 -1.6290606736386828" fill="#ff1e03" stroke="none" /><path d="M 81.35079622478065 109.6543875284942 l -4.343608051425372 2.2486147883734433 a25.891134773332162,25.891134773332162 0 0,0 -0.20148398501909465,-0.3975470172332911 l 4.381670706230733 -2.1735135594374673" fill="#ff3204" stroke="none" /><path d="M 81.02952815118164 109.00673069616217 l -4.404956376258448 2.0913689509401134 a25.876214183738888,25.876214183738888 0 0,0 -0.18757221994544587,-0.40401387455442694 l 4.4403032130437206 -2.0152350091068594" fill="#ff3104" stroke="none" /><path d="M 80.87730276802145 108.67885076344099 l -4.699382982635107 2.132818560675629 a26.160728187983057,26.160728187983057 0 0,0 -0.18257561647002984,-0.4116598165848297 l 4.735399683836416 -2.0516104075981034" fill="#ff3505" stroke="none" /><path d="M 80.73074385275274 108.34839909993369 l -38.09433711288067 16.50435944364026 a62.51592948152161,62.51592948152161 0 0,0 -0.4193003489201558,-0.9911021655265023 l 38.372788442993134 -15.846182752447602" fill="#32ff4a" stroke="none" /><path d="M 80.58989483394504 108.01547362559985 l -4.5179768971925975 1.865715015488349 a25.888047438659402,25.888047438659402 0 0,0 -0.16654321575921968,-0.41334660340466384 l 4.549422727209206 -1.7876690442408798" fill="#ff3104" stroke="none" /><path d="M 80.45479744820244 107.68017299344265 l -4.5033965279074195 1.7695833185017074 a25.838595396257897,25.838595396257897 0 0,0 -0.15909896152404604,-0.4153571843766633 l 4.5331897690249745 -1.6918025672918862" fill="#ff3104" stroke="none" /><path d="M 80.32549172779594 107.34259656027581 l -4.474346478652985 1.6698420417477184 a25.775787773281237,25.775787773281237 0 0,0 -0.1515564020704001,-0.4170181276130996 l 4.50242714172861 -1.5925761171285018" fill="#ff3004" stroke="none" /><path d="M 79.86692584326677 105.97154293290107 l -39.97821548586952 11.857683943154802 a62.699668846771054,62.699668846771054 0 0,0 -0.29799469598622413,-1.0373586299594273 l 40.17640281874184 -11.167767837690779" fill="#32ff4c" stroke="none" /><path d="M 79.67330655649465 105.27499134158121 l -10.810853069608132 2.805530397542867 a32.16895451258499,32.16895451258499 0 0,0 -0.1344795351029432,-0.5371788944407238 l 10.857543919006135 -2.6190236637047515" fill="#ff890c" stroke="none" /><path d="M 79.58551787078972 104.9243191809786 l -28.368197187853177 6.842890094284874 a50.18183949875989,50.18183949875989 0 0,0 -0.19532548386630225,-0.8414570723531748 l 28.481783237650035 -6.353564364583125" fill="#99ff23" stroke="none" /><path d="M 79.07016306316243 101.71520430193888 l -10.21248891473108 0.8369154988121261 a31.246724227071653,31.246724227071653 0 0,0 -0.03931647545455806,-0.5364420704922297 l 10.225381948849973 -0.6610002918231358" fill="#ff7c0b" stroke="none" /><line stroke="#e1ed5e" stroke-width="0.3" x1="15.007084014347285" x2="10.007500721073583" y1="101.09737516637583" y2="101.16192664675087" /><path d="M 14.007167355692545 101.11028546245083 a86.0,86.0 0 0,1 10.666146001902534,-42.60595125391555" fill="none" id="id70" stroke="none" /><text fill="#e1ed5e" style="font-size:6.75px; font-family:Arial;" text-anchor="middle"><textPath startOffset="22.20632615414155" xlink:href="#id70">October</textPath></text><path d="M 79.00019446554 99.90962569577889 l -17.94177856670277 -0.07721384618511738 a38.94194471384408,38.94194471384408 0 0,0 0.008654370419134515,-0.6702905264127764 l 17.937791189165917 0.38604063065836575" fill="#ffe115" stroke="none" /><path d="M 79.12142395522702 97.74499172005258 l -10.377842082001377 -1.1208676191669071 a31.438196707221778,31.438196707221778 0 0,0 0.06274112981920943,-0.5375276849286996 l 10.35701059917858 1.2993390424204685" fill="#ff7f0b" stroke="none" /><path d="M 79.3925641242962 95.95851677861259 l -40.83750822267171 -8.008958770061508 a62.61544783391528,62.61544783391528 0 0,0 0.21653228134746932,-1.0558883037247595 l 40.693596645409244 8.71072272994967" fill="#32ff4b" stroke="none" /><path d="M 79.91906864156998 93.8553929516997 l -60.24279407529007 -18.433821144900918 a84.0,84.0 0 0,0 0.4349780649271846,-1.378999334294342 l 59.91656052659468 19.468070645621676" fill="#4dd2ff" stroke="none" /><line stroke="#e1ed5e" stroke-width="0.3" x1="26.266209847984243" x2="21.928928074336255" y1="57.711370442889674" y2="55.22380399835377" /><path d="M 25.398753493254645 57.213857153982495 a86.0,86.0 0 0,1 29.58750427330803,-30.492523968695096" fill="none" id="id71" stroke="none" /><text fill="#e1ed5e" style="font-size:6.75px; font-family:Arial;" text-anchor="middle"><textPath startOffset="21.46611528233685" xlink:href="#id71">November</textPath></text><path d="M 83.17141714833178 87.43820079747577 l -8.431826092016315 -6.29398846071069 a31.52188110508603,31.52188110508603 0 0,0 0.32831399081320817,-0.43202272737676395 l 8.322236160978997 6.438195963968478" fill="#ff800b" stroke="none" /><path d="M 84.5562425177563 85.77008943001954 l -7.691233042428605 -7.0867182738703125 a31.45832881516703,31.45832881516703 0 0,0 0.3703584228241736,-0.3950725429745733 l 7.568107297633974 7.218060233722936" fill="#ff7f0b" stroke="none" /><path d="M 85.05521093208273 85.24692304244772 l -7.201911997985993 -7.109525699221777 a31.119925498472284,31.119925498472284 0 0,0 0.3796100387699479,-0.37797987262379673 l 7.07846615904873 7.232441422495685" fill="#ff7a0b" stroke="none" /><path d="M 86.10567301691215 84.25364557470407 l -7.749982333156466 -8.783006816825546 a32.71338699559787,32.71338699559787 0 0,0 0.4254394693221797,-0.3689369154460456 l 7.597649065187513 8.915108725691272" fill="#ff900d" stroke="none" /><path d="M 87.22198572758235 83.33499621200491 l -9.952292233266185 -12.979715332187888 a37.356073208474086,37.356073208474086 0 0,0 0.5136528485442883,-0.3868726763832346 l 9.727393230963507 13.149104598076978" fill="#ffcd13" stroke="none" /><path d="M 87.80319425747018 82.90503203632743 l -3.8120058117910145 -5.3428839161280655 a27.56336779788764,27.56336779788764 0 0,0 0.3886026139598585,-0.2722409650359117 l 3.719472058247496 5.40770972392792" fill="#ff4906" stroke="none" /><line stroke="#e1ed5e" stroke-width="0.3" x1="56.76296977257108" x2="54.21961505331056" y1="26.818313649435495" y2="22.513508569990535" /><path d="M 56.25429882871898 25.957352633546506 a86.0,86.0 0 0,1 42.26535254187918,-11.944610805530505" fill="none" id="id72" stroke="none" /><text fill="#e1ed5e" style="font-size:6.75px; font-family:Arial;" text-anchor="middle"><textPath startOffset="22.20632615414155" xlink:href="#id72">December</textPath></text><path d="M 89.63071344664047 81.73862282372117 l -7.2447371517356745 -12.758725201588906 a35.67212612975362,35.67212612975362 0 0,0 0.5365697779034672,-0.29860050047150916 l 7.024043284760161 12.881541099620598" fill="#ffb711" stroke="none" /><path d="M 93.59665428221793 80.00007090966166 l -3.1002277122517534 -9.683115224709955 a31.16730703396054,31.16730703396054 0 0,0 0.5123528705399509,-0.15919053088273952 l 2.933089469001074 9.73504589047522" fill="#ff7b0b" stroke="none" /><path d="M 97.11714578562143 79.19881850522333 l -4.0026241541056935 -28.88086087380488 a50.156905270126046,50.156905270126046 0 0,0 0.8562148477603236,-0.11116126076996263 l 3.5048945778375122 28.94548045773898" fill="#99ff23" stroke="none" /></svg>