<?xml version="1.0" encoding="utf-8" ?>
<svg baseProfile="full" height="200mm" version="1.1" viewBox="0,0,200,200" width="200mm" xmlns="http://www.w3.org/2000/svg" xmlns:ev="http://www.w3.org/2001/xml-events" xmlns:xlink="http://www.w3.org/1999/xlink"><defs /><rect fill="#1a1a1a" height="200" width="200" x="0" y="0" /><text alignment-baseline="middle" fill="#e1ed5e" style="dominant-baseline: central; font-size:9.0px; font-family:Arial;" text-anchor="middle" x="100.0" y="100.0">2018</text><line stroke="#e1ed5e" stroke-width="0.3" x1="100.0" x2="100.0" y1="15.0" y2="10.0" /><path d="M 100.0 14.0 a86.0,86.0 0 0,1 42.46469731375804,11.215312516191453" fill="none" id="id61" stroke="none" /><text fill="#e1ed5e" style="font-size:6.75px; font-family:Arial;" text-anchor="middle"><textPath startOffset="22.20632615414155" xlink:href="#id61">January</textPath></text><path d="M 100.36148047927253 79.00311137660856 l 0.2965906990114799 -17.22771278385635 a38.23026563363977,38.23026563363977 0 0,0 0.6578761775915435,0.01699100074340785 l -0.5930935117978912 17.22005499097058" fill="#ffbb11" stroke="none" /><path d="M 101.08401301168833 79.027996857942 l 0.9304023835107461 -18.000154518418032 a39.02418406702971,39.02418406702971 0 0,0 0.6705431725929933,0.04044899534478405 l -1.2401076049433515 17.981472253692946" fill="#ffc512" stroke="none" /><path d="M 101.44485096284872 79.0497635885617 l 1.1333786068526124 -16.433909356583918 a37.47294520742686,37.47294520742686 0 0,0 0.6431246231544799,0.04991884843827626 l -1.4160934193694334 16.411965245957177" fill="#ffb010" stroke="none" /><path d="M 102.16513564639614 79.11191278185805 l 5.970346311609125 -57.59875354090714 a78.90735224949167,78.90735224949167 0 0,0 1.3498165840906755,0.15166762084334154 l -6.960929599209527 57.487449966593196" fill="#46fff9" stroke="none" /><path d="M 102.88285421437855 79.19881850522331 l 1.5043920220868499 -10.854912931304202 a31.9586646130956,31.9586646130956 0 0,0 0.5442576099866675,0.0802094239980853 l -1.6910186125021731 10.827409023145147" fill="#ff6209" stroke="none" /><path d="M 103.59715602781102 79.31037775812273 l 3.263692264334773 -18.77165169949943 a40.053256800967084,40.053256800967084 0 0,0 0.6782444540067768,0.12394483874029068 l -3.5863318394444508 18.7126913794084" fill="#ffd313" stroke="none" /><path d="M 104.307194497241 79.44645832069477 l 3.334351244810161 -15.911221870186706 a37.25684101005096,37.25684101005096 0 0,0 0.6265487846549866,0.13693929664591176 l -3.6077427536186755 15.851469075444925" fill="#ffad10" stroke="none" /><path d="M 104.66035177308747 79.52364482259891 l 4.607616930748973 -20.244652204208567 a41.762371652821635,41.762371652821635 0 0,0 0.6995720535109723,0.16556610279950995 l -4.9554126712224695 20.16234018926819" fill="#ffea16" stroke="none" /><path d="M 105.36241919743992 79.69619591428918 l 4.969812593714465 -18.817272117340337 a40.46249642658097,40.46249642658097 0 0,0 0.6718741862488972,0.18364859529624597 l -5.2929846691870726 18.728936981217796" fill="#ffd914" stroke="none" /><path d="M 106.0581310904928 79.89281104454417 l 6.524587830246333 -21.655378267583682 a43.61693291024966,43.61693291024966 0 0,0 0.717009678005402,0.22277839718054893 l -6.896382880962454 21.53985973552061" fill="#fcff18" stroke="none" /><path d="M 106.40334571778207 80.00007090966166 l 9.191175158916307 -28.707313260430396 a51.14278579418902,51.14278579418902 0 0,0 0.8361046134057885,0.2756505454786617 l -9.683962594564514 28.5448489906925" fill="#a0ff22" stroke="none" /><path d="M 106.74666289553966 80.11325718540242 l 5.438516500972696 -16.030796354045208 a37.92819817571325,37.92819817571325 0 0,0 0.616456028134545,0.21506940378473194 l -5.713654533170515 15.934806097088266" fill="#ffb610" stroke="none" /><path d="M 107.76421540070413 80.48803036053334 l 4.729465085583699 -11.885448097235653 a33.79186133710954,33.79186133710954 0 0,0 0.5386038602934802,0.21971003815125265 l -4.933352815465566 11.802277172900821" fill="#ff7d0b" stroke="none" /><path d="M 108.43124777332544 80.76684994638697 l 3.3060313919149515 -7.541635538671426 a29.234446560788342,29.234446560788342 0 0,0 0.4591449158321588,0.20600493998083755 l -3.4353584262138903 7.483610268174057" fill="#ff3a05" stroke="none" /><path d="M 108.76106565485865 80.91482961587045 l 1.8317103814682134 -3.9902114767639887 a25.390552419784722,25.390552419784722 0 0,0 0.3956353323282513,0.18575609341874008 l -1.9001239250960626 3.9580904007052458" fill="#ff0000" stroke="none" /><path d="M 109.08828744355905 81.06846463323043 l 6.932385011176042 -14.440640531033582 a37.01842878966936,37.01842878966936 0 0,0 0.5720735139226644,0.2807139887938582 l -7.179929792109139 14.319171382104892" fill="#ffaa0f" stroke="none" /><path d="M 109.41281617654863 81.2277094730956 l 6.423282375350321 -12.810164421019588 a35.330347831334805,35.330347831334805 0 0,0 0.5412937564082537,0.27727168599586965 l -6.64283661934733 12.697700209711217" fill="#ff930d" stroke="none" /><path d="M 110.05341064243156 81.56283822128135 l 10.99237049239814 -20.159140047913095 a43.96134004176409,43.96134004176409 0 0,0 0.6612537300622024,0.36798698485539255 l -11.337748311532376 19.96693766549752" fill="#f8ff18" stroke="none" /><line stroke="#e1ed5e" stroke-width="0.3" x1="143.23703022742887" x2="145.7803849466894" y1="26.81831364943548" y2="22.513508569990506" /><path d="M 143.74570117128098 25.957352633546492 a86.0,86.0 0 0,1 28.547481713284135,27.462654790039103" fill="none" id="id62" stroke="none" /><text fill="#e1ed5e" style="font-size:6.75px; font-family:Arial;" text-anchor="middle"><textPath startOffset="19.985693538727396" xlink:href="#id62">February</textPath></text><path d="M 110.68208982089419 81.91981866633111 l 9.629748679531541 -16.299020626379104 a39.931194706358895,39.931194706358895 0 0,0 0.5887720296351514,0.3547285600399749 l -9.908882775384331 16.130845456880515" fill="#ffd113" stroke="none" /><path d="M 110.99172775467656 82.1063720568725 l 10.883682688205333 -17.71773946920637 a41.79357691106111,41.79357691106111 0 0,0 0.6097500723526624,0.3818254393686581 l -11.187051912930258 17.527769688514766" fill="#ffea16" stroke="none" /><path d="M 111.2981086023043 82.29822771554956 l 20.759522715081665 -32.525828594115566 a59.58610253824267,59.58610253824267 0 0,0 0.8598358987660252,0.559261186448967 l -21.316325639631973 32.16366848350707" fill="#42ff2d" stroke="none" /><path d="M 111.90073688211348 82.69761687909136 l 13.199839773931252 -19.191138092165488 a44.292392563453475,44.292392563453475 0 0,0 0.6244570567321545,0.43747207466239013 l -13.528227970247057 18.961081174739164" fill="#f4ff19" stroke="none" /><path d="M 112.77801427241765 83.33499621200491 l 13.66615090138982 -17.82330585047026 a43.45960622760259,43.45960622760259 0 0,0 0.5897415685932009,0.46030264861275094 l -13.970925025142451 17.585424812634283" fill="#feff18" stroke="none" /><path d="M 113.34407831869373 83.78471172551755 l 12.944475430679214 -15.729703892427853 a41.371132239493164,41.371132239493164 0 0,0 0.5459855946496763,0.4572472338139814 l -13.213318562288007 15.504555501220052" fill="#ffe515" stroke="none" /><path d="M 113.6212207817346 84.01681056812373 l 20.360094882821837 -23.890608527503453 a52.389403298755596,52.389403298755596 0 0,0 0.6813271869564678,0.5908402226190609 l -20.76831586842507 23.53660331146472" fill="#92ff23" stroke="none" /><path d="M 114.16331599549186 84.49514656593476 l 9.71461785966447 -10.634778333689178 a35.40389913759523,35.40389913759523 0 0,0 0.44641301783607806,0.4148922482303894 l -9.896238761295395 10.465981499384148" fill="#ff940d" stroke="none" /><path d="M 114.42810811169701 84.74124197986012 l 12.258189279839165 -12.963913393087173 a38.841699887730115,38.841699887730115 0 0,0 0.48185303177768324,0.46354223479847456 l -12.479525555229268 12.750988071526397" fill="#ffc312" stroke="none" /><path d="M 114.68862486808459 84.99185889309783 l 6.267672721616481 -6.404011094482263 a29.960752169519434,29.960752169519434 0 0,0 0.365470100280481,0.3639006555238612 l -6.376978622064285 6.295174588308282" fill="#ff4506" stroke="none" /><path d="M 115.19652480421416 85.50635884689758 l 11.007861200491805 -10.498715473345861 a36.21170716256281,36.21170716256281 0 0,0 0.42631987322960824,0.45476831646780047 l -11.186948395691877 10.307677740000006" fill="#ff9f0e" stroke="none" /><path d="M 115.4437574822437 85.77008943001954 l 13.21649152869737 -12.17770304399684 a38.971424533294496,38.971424533294496 0 0,0 0.45031733320267403,0.49725164665863697 l -13.42415250251608 11.948398610068654" fill="#ffc512" stroke="none" /><path d="M 116.38621287248628 86.86637796730983 l 12.465551077467707 -9.991194277449518 a36.975416324925504,36.975416324925504 0 0,0 0.39378099901947217,0.5000618796681827 l -12.635686157081143 9.775140003828296" fill="#ffa90f" stroke="none" /><path d="M 116.60985879189232 87.15038557335679 l 8.225458517397302 -6.363327452398057 a31.399524224110763,31.399524224110763 0 0,0 0.32703959111089514,0.4303457667519693 l -8.33377404873231 6.220796909765054" fill="#ff5a08" stroke="none" /><path d="M 117.04232023915458 87.72973835380427 l 17.668758955854102 -12.721289842553084 a42.7719144380626,42.7719144380626 0 0,0 0.4250456557167505,0.6011969367710497 l -17.885117231374736 12.415266405450241" fill="#fff717" stroke="none" /><path d="M 117.45458315368197 88.32363383020206 l 19.032723757440856 -12.732074426745209 a43.89869631300509,43.89869631300509 0 0,0 0.41474519294766027,0.6316853828914296 l -19.24906558574644 12.402570979876105" fill="#f9ff18" stroke="none" /><line stroke="#e1ed5e" stroke-width="0.3" x1="172.23445277983987" x2="176.4835382374775" y1="55.19839476539836" y2="52.563006222186495" /><path d="M 173.08426987136738 54.67131705675599 a86.0,86.0 0 0,1 12.851231095245387,41.99856678651699" fill="none" id="id63" stroke="none" /><text fill="#e1ed5e" style="font-size:6.75px; font-family:Arial;" text-anchor="middle"><textPath startOffset="22.20632615414155" xlink:href="#id63">March</textPath></text><path d="M 117.84615892207809 88.93136811851018 l 17.078347090615797 -10.592415875915943 a41.09649754150959,41.09649754150959 0 0,0 0.36768488732469956,0.6043772785301957 l -17.258147776226718 10.296870824178665" fill="#ffe115" stroke="none" /><path d="M 118.21658344932153 89.55222093294921 l 16.55741213410889 -9.496192542390189 a40.08731435747008,40.08731435747008 0 0,0 0.33815054378733167,0.6015320855460244 l -16.718420319188656 9.20977694690937" fill="#ffd413" stroke="none" /><path d="M 118.3937258080291 89.86733742301442 l 27.317813083809224 -15.048728311399163 a52.188573796700695,52.188573796700695 0 0,0 0.42668359210633156,0.7905798941660874 l -27.57280477513402 14.576267433900618" fill="#94ff23" stroke="none" /><path d="M 118.73160827565052 90.50648371742162 l 12.747829408560714 -6.460829432089963 a35.29158744088022,35.29158744088022 0 0,0 0.2699638166360316,0.5442305809228545 l -12.857153238150152 6.240439262668159" fill="#ff920d" stroke="none" /><path d="M 118.89224826269711 90.83032412892265 l 14.216806539569555 -6.900370251171707 a36.80293320199776,36.80293320199776 0 0,0 0.2717139635980444,0.5722989030374734 l -14.333478697009356 6.654628932493694" fill="#ffa70f" stroke="none" /><path d="M 119.04729006885535 91.15688171328212 l 10.97899531006296 -5.097237131646316 a33.10455139171289,33.10455139171289 0 0,0 0.2355115845661768,0.5189185583480355 l -11.065109211592484 4.907496564456218" fill="#ff730a" stroke="none" /><path d="M 119.34039704204932 91.81776055985345 l 14.662634679412983 -6.2032432689727734 a36.920838005456254,36.920838005456254 0 0,0 0.24258452127337266,0.5874376598950991 l -14.767240887572553 5.949931038624372" fill="#ffa90f" stroke="none" /><path d="M 119.47837535516314 92.15188598940014 l 21.248603637446095 -8.561364121598581 a43.90851614932497,43.90851614932497 0 0,0 0.2764280500030611,0.7034792358090431 l -21.392825237330857 8.194335880893753" fill="#f9ff18" stroke="none" /><path d="M 119.7369772167798 92.82701384747503 l 12.444393375304541 -4.522651081632891 a34.240743909823145,34.240743909823145 0 0,0 0.19655315186235506,0.5556822284469605 l -12.520399607976705 4.307771226759317" fill="#ff830c" stroke="none" /><path d="M 119.97218684219823 93.5106431181261 l 9.404287453987246 -3.0556382228364685 a30.88825300374546,30.88825300374546 0 0,0 0.1599489585779787,0.5070819086866623 l -9.455491896333431 2.8933061477233872" fill="#ff5307" stroke="none" /><path d="M 120.18372546131832 94.20196356495316 l 10.173493201966123 -2.9224676271854246 a31.58493178827326,31.58493178827326 0 0,0 0.1456113927554224,0.5238416535304289 l -10.222291365287909 2.746914670236044" fill="#ff5d08" stroke="none" /><path d="M 120.28053869075195 94.5502522615342 l 15.695754109281726 -4.217733156150292 a37.25256810585711,37.25256810585711 0 0,0 0.16107951577443788,0.6207050827487759 l -15.766029956926467 3.9469316478526655" fill="#ffad10" stroke="none" /><path d="M 120.45610955862082 95.25157060432595 l 11.840570635842827 -2.7485242737711357 a33.155389696175625,33.155389696175625 0 0,0 0.12426263191542045,0.5570450134232834 l -11.886127654760285 2.5443010907978882" fill="#ff740a" stroke="none" /><path d="M 120.53481517161879 95.60439243477599 l 9.28209911839905 -1.9868922493339238 a30.492370876353686,30.492370876353686 0 0,0 0.10544654486961179,0.5141948013624115 l -9.314924959183658 1.8268217918081007" fill="#ff4d07" stroke="none" /><path d="M 120.6074358757038 95.95851677861258 l 10.529499628999904 -2.065021399890923 a31.730082749872743,31.730082749872743 0 0,0 0.10050016592324032,0.5368759049979408 l -10.563485518833005 1.8834674174304193" fill="#ff5f08" stroke="none" /><path d="M 120.78858239683441 97.02765380044208 l 58.26108353152046 -8.330154837465528 a79.85359236174929,79.85359236174929 0 0,0 0.18284191477892942,1.3623846411171425 l -58.39584144535723 7.326051854283722" fill="#48fbff" stroke="none" /><path d="M 120.94382443527127 98.46500227214037 l 10.141648918228231 -0.7432934750929989 a31.168850867758643,31.168850867758643 0 0,0 0.034611389586078206,0.5354228775329927 l -10.152940898818725 0.5686115333069709" fill="#ff5708" stroke="none" /><path d="M 120.96714384426684 98.82574320788733 l 12.116182107075076 -0.6785620988429089 a33.13516853503866,33.13516853503866 0 0,0 0.026991579724261524,0.5697495875322622 l -12.126067295032833 0.46990140468764685" fill="#ff730a" stroke="none" /><line stroke="#e1ed5e" stroke-width="0.3" x1="184.98032266829074" x2="189.97916517819016" y1="98.17113171792111" y2="98.06355123074" /><path d="M 185.9800911702706 98.14961562048488 a86.0,86.0 0 0,1 -9.607161424134198,41.387399972396054" fill="none" id="id64" stroke="none" /><text fill="#e1ed5e" style="font-size:6.75px; font-family:Arial;" text-anchor="middle"><textPath startOffset="21.466115282336823" xlink:href="#id64">April</textPath></text><path d="M 120.99513854157772 99.54816195383933 l 10.87035312489922 -0.23394173404972807 a31.87287017281713,31.87287017281713 0 0,0 0.007083355154024469,0.5486136628104545 l -10.87276948717096 0.04679181317881077" fill="#ff6109" stroke="none" /><path d="M 120.99824983174949 100.27111621757518 l 11.827152187470626 0.15270476308481742 a32.82813796040019,32.82813796040019 0 0,0 -0.012158819010662852,0.5649725422636075 l -11.822771305774955 -0.35626712113853976" fill="#ff6f0a" stroke="none" /><path d="M 120.9904718944345 100.63252640178507 l 12.78855251367117 0.3853699500513192 a33.79435756078936,33.79435756078936 0 0,0 -0.022526139405469825,0.581299565404827 l -12.780024241414498 -0.6054467624701524" fill="#ff7d0b" stroke="none" /><path d="M 120.9764740272857 100.99374915477107 l 15.090908774207099 0.7149236720903782 a36.10783384500756,36.10783384500756 0 0,0 -0.03475576588354174,0.6205875474535377 l -15.076366657436028 -0.9745829358793392" fill="#ff9d0e" stroke="none" /><path d="M 120.92983693683757 101.71520430193887 l 20.899328416741962 1.7127041226459454 a41.969389206235036,41.969389206235036 0 0,0 -0.0652032508027607,0.719512439309207 l -20.866750569662123 -2.072197950503723" fill="#ffec16" stroke="none" /><path d="M 120.8583938346157 102.4346265915055 l 16.13897652566518 1.883768315078013 a37.248542899622215,37.248542899622215 0 0,0 -0.0798156292017634,0.6362090960361336 l -16.104159387216566 -2.1612951654015413" fill="#ffad10" stroke="none" /><path d="M 120.81339534386255 102.79330883721812 l 32.424120691817265 4.351552515634472 a53.71482251111654,53.71482251111654 0 0,0 -0.13087475563124298,0.9153377360653187 l -32.34441188516942 -4.9090357236802" fill="#82ff25" stroke="none" /><path d="M 120.76222939487914 103.15116336523771 l 17.572975487359102 2.6671180402064194 a38.774222518009566,38.774222518009566 0 0,0 -0.10583192432082543,0.6590154937702406 l -17.524461808676985 -2.969212763669865" fill="#ffc212" stroke="none" /><path d="M 120.64145759157962 103.86396538481128 l 17.229131033205945 3.225196942964094 a38.52840128135721,38.52840128135721 0 0,0 -0.12763921235640618,0.6508295939323463 l -17.171061887873876 -3.521290263964385" fill="#ffbf11" stroke="none" /><path d="M 120.5718875245553 104.21870165774334 l 7.440455547055308 1.525823146430331 a28.595295584892575,28.595295584892575 0 0,0 -0.10303288230426597,0.48133532471282675 l -7.413088626026599 -1.6536722905593266" fill="#ff3104" stroke="none" /><path d="M 120.49622156327973 104.57218783832717 l 29.815505582271026 6.651084034974764 a51.5483435224683,51.5483435224683 0 0,0 -0.20064440127352437,0.8643708293344843 l -29.696600615066952 -7.163323521657814" fill="#9bff22" stroke="none" /><path d="M 120.41448212921028 104.9243191809786 l 7.631947874233051 1.8409552134334992 a28.850843550401343,28.850843550401343 0 0,0 -0.12060845889374067,0.4817708401441402 l -7.59912810104425 -1.9720538929750353" fill="#ff3505" stroke="none" /><path d="M 120.32669344350535 105.2749913415812 l 15.088790780148978 3.9157003543853466 a36.58859571842321,36.58859571842321 0 0,0 -0.16344983563325213,0.6082576432226598 l -15.019152868173949 -4.174848930783555" fill="#ffa40f" stroke="none" /><path d="M 120.23288151984713 105.62410040840565 l 15.063426085560224 4.187155483349453 a36.63454753028944,36.63454753028944 0 0,0 -0.17411417085090705,0.6061142703652925 l -14.989119277823217 -4.4458272292193275" fill="#ffa50f" stroke="none" /><path d="M 120.02730092923936 106.31721596034902 l 11.915619634466223 3.7585465359638492 a33.4943452544054,33.4943452544054 0 0,0 -0.17817037676448944,0.5483520353803853 l -11.849157006685486 -3.9630974713220297" fill="#ff790b" stroke="none" /><path d="M 119.79798401119884 107.00284435728193 l 32.83230477251271 11.613279416868696 a55.825687293855765,55.825687293855765 0 0,0 -0.3282437139761888,0.9031857257968728 l -32.62753679753129 -12.1767129396717" fill="#6bff28" stroke="none" /><path d="M 119.54520255179757 107.68017299344265 l 10.592188860655035 4.162138643150829 a32.38059150240417,32.38059150240417 0 0,0 -0.20831110765590935,0.5170110857323685 l -10.518975138741734 -4.343849096726012" fill="#ff6909" stroke="none" /><path d="M 119.41010516605496 108.01547362559984 l 9.669563711480464 3.9930815540337314 a31.461604210996718,31.461604210996718 0 0,0 -0.21101600396356235,0.4987795002499767 l -9.599396726324592 -4.158935579949872" fill="#ff5b08" stroke="none" /><path d="M 119.12269723197855 108.67885076344098 l 13.972255291777778 6.341318749912108 a36.34393174602256,36.34393174602256 0 0,0 -0.26345090169453816,0.5674498045575548 l -13.86102977324341 -6.580888621748493" fill="#ffa10e" stroke="none" /><path d="M 118.97047184881838 109.00673069616215 l 12.157699793702488 5.772187892811165 a34.458373502905516,34.458373502905516 0 0,0 -0.25900676379940263,0.5336306486961139 l -12.056539773288371 -5.980607497472555" fill="#ff860c" stroke="none" /><path d="M 118.64920377521936 109.65438752849418 l 21.84772154150255 11.310207820055576 a45.60170192258822,45.60170192258822 0 0,0 -0.36687110288082625,0.6939818676655692 l -21.64979793039683 -11.68460470280728" fill="#e3ff1b" stroke="none" /><line stroke="#e1ed5e" stroke-width="0.3" x1="174.80103733775053" x2="179.2010983576182" y1="140.37084112569926" y2="142.7455964860345" /><path d="M 175.68104954172406 140.8457921977663 a86.0,86.0 0 0,1 -30.038265399797805,32.042727171017184" fill="none" id="id65" stroke="none" /><text fill="#e1ed5e" style="font-size:6.75px; font-family:Arial;" text-anchor="middle"><textPath startOffset="22.206326154141568" xlink:href="#id65">May</textPath></text><path d="M 118.48025628344425 109.97397251340804 l 13.428068619800314 7.247258115247529 a36.25895727260179,36.25895727260179 0 0,0 -0.3011627389062621,0.5466978497457162 l -13.301329471442543 -7.47732648339105" fill="#ff9f0e" stroke="none" /><path d="M 118.30583269289576 110.29060199501025 l 11.14256628409323 6.263780334730311 a33.782477360713976,33.782477360713976 0 0,0 -0.2893195770643732,0.5044530694314604 l -11.033094710876476 -6.454653250020086" fill="#ff7d0b" stroke="none" /><path d="M 118.12598468904814 110.60418214915192 l 13.062618674536855 7.641978637077644 a36.13379807338231,36.13379807338231 0 0,0 -0.31869859223090263,0.534157172087768 l -12.929139206607726 -7.865697903051516" fill="#ff9e0e" stroke="none" /><path d="M 117.94076556474637 110.91462005526583 l 7.445761627025738 4.529776552052768 a29.715402562017204,29.715402562017204 0 0,0 -0.26961118736026124,0.4346990800956874 l -7.366685799997514 -4.657271963513729" fill="#ff4206" stroke="none" /><path d="M 117.55443506779139 111.5257021239791 l 18.150619191821484 11.917138282310619 a42.71320247881992,42.71320247881992 0 0,0 -0.4088200502955189,0.611130505758972 l -17.942796036115244 -12.227805702275399" fill="#fff617" stroke="none" /><path d="M 117.14729908036423 112.12312394758627 l 12.871619250656861 9.10022242281529 a36.76364901533241,36.76364901533241 0 0,0 -0.36977264657376085,0.51358186486134 l -12.713066811707497 -9.320437893127762" fill="#ffa60f" stroke="none" /><path d="M 116.93607887273984 112.41649034213515 l 8.178417571303338 5.99591225047291 a31.14088150438483,31.14088150438483 0 0,0 -0.320660227166972,0.42957677583556536 l -8.073996077441274 -6.13580190581779" fill="#ff5708" stroke="none" /><path d="M 116.498646956653 112.99209946851258 l 7.185136554819918 5.658040265988186 a30.1454692040897,30.1454692040897 0 0,0 -0.3245405057022238,0.4049141812475105 l -7.08667813706284 -5.780882280813946" fill="#ff4806" stroke="none" /><path d="M 116.0416608686014 113.55231037782055 l 44.03266024667535 37.19965677569472 a78.64277606629155,78.64277606629155 0 0,0 -0.882512345150928,1.0265612335848666 l -43.38580539195364 -37.952095108441114" fill="#46fff7" stroke="none" /><path d="M 115.56566222782051 114.09645910891815 l 5.258253956748675 4.761940789973918 a28.094033743990828,28.094033743990828 0 0,0 -0.32770164187999756,0.35565541040042475 l -5.175505906872956 -4.851747455175678" fill="#ff2904" stroke="none" /><path d="M 115.07121518719521 114.62390073753431 l 7.648052471087689 7.421057876452162 a31.656678967021723,31.656678967021723 0 0,0 -0.3828338287277338,0.3878086472985091 l -7.519178017304419 -7.551607017731335" fill="#ff5e08" stroke="none" /><path d="M 114.55890576462653 115.13401014063108 l 17.113040821163782 17.789038373597162 a45.684125514267876,45.684125514267876 0 0,0 -0.571408700466228,0.5403025918236218 l -16.804296286306748 -18.080975602166706" fill="#e2ff1b" stroke="none" /><path d="M 113.48314897796784 116.09983520530334 l 9.12747382798617 10.89885046226381 a35.21603741833007,35.21603741833007 0 0,0 -0.46808799989256283,0.3852045566427936 l -8.938515699548917 -11.054350137763782" fill="#ff910d" stroke="none" /><path d="M 113.20401910651253 116.32954008644616 l 8.947764008239997 11.065787611936196 a35.230746158217976,35.230746158217976 0 0,0 -0.47484755838383647,0.37724761882273433 l -8.755958957138809 -11.218169144764056" fill="#ff910d" stroke="none" /><path d="M 112.92097659922987 116.55440617244103 l 8.350743416182343 10.699005395734549 a34.57216386803776,34.57216386803776 0 0,0 -0.47227431464548986,0.36211980566026447 l -8.16534037304336 -10.841164543222185" fill="#ff880c" stroke="none" /><path d="M 112.63410532772338 116.77436683061366 l 9.412865655902086 12.497510298011631 a36.64575992098076,36.64575992098076 0 0,0 -0.5071337430223816,0.37516541923246527 l -9.196346942461142 -12.657685665983866" fill="#ffa50f" stroke="none" /><path d="M 112.34349029814194 116.9893568818739 l 10.4405888962672 14.370237795894255 a38.76259076856205,38.76259076856205 0 0,0 -0.5431795792840435,0.3875442075068522 l -10.191681989134272 -14.547826265245327" fill="#ffc212" stroke="none" /><path d="M 112.04921762599082 117.19931262002967 l 3.928673754525779 5.6078734888513715 a27.84709591991099,27.84709591991099 0 0,0 -0.3949555144281755,0.2716540042203559 l -3.8315613554747205 -5.674668282436822" fill="#ff2603" stroke="none" /><path d="M 111.7513745106137 117.40417183066458 l 8.634097664066276 12.787382379178505 a36.42934835253776,36.42934835253776 0 0,0 -0.5227183031921538,0.3464291883978814 l -8.412704662134157 -12.934109588667704" fill="#ffa20f" stroke="none" /><path d="M 111.1453310114006 117.79835938074945 l 10.035912804225429 16.026691591371787 a39.909637468205545,39.909637468205545 0 0,0 -0.5853808792080086,0.3595887473182275 l -9.758552725085112 -16.19706880551839" fill="#ffd113" stroke="none" /><line stroke="#e1ed5e" stroke-width="0.3" x1="143.8653032363475" x2="146.44561519142675" y1="172.8068346515853" y2="177.08958963109032" /><path d="M 144.38136562736335 173.6633856474863 a86.0,86.0 0 0,1 -40.68145358897372,12.25698825130547" fill="none" id="id66" stroke="none" /><text fill="#e1ed5e" style="font-size:6.75px; font-family:Arial;" text-anchor="middle"><textPath startOffset="21.466115282336833" xlink:href="#id66">June</textPath></text><path d="M 110.8373102113329 117.98757091392108 l 7.6453378498223605 12.689593086553394 a35.814754926769126,35.814754926769126 0 0,0 -0.5307953535454808,0.3136032508992274 l -7.425774625248498 -12.819314909746371" fill="#ff990e" stroke="none" /><path d="M 110.5260780823613 118.17145234162733 l 6.759039506208792 11.668312100787405 a34.48458832622906,34.48458832622906 0 0,0 -0.516203469645949,0.2931138021479714 l -6.557187269641644 -11.782929068730006" fill="#ff870c" stroke="none" /><path d="M 110.21172684928248 118.3499491758327 l 10.46859374459306 18.81152580664848 a42.528236299416974,42.528236299416974 0 0,0 -0.6427377168045059,0.35047185027540817 l -10.143233215919905 -18.988938308683657" fill="#fff417" stroke="none" /><path d="M 109.89434966115114 118.52300852407294 l 6.353494408746115 11.894246223471551 a34.48480568738517,34.48480568738517 0 0,0 -0.5259903326797865,0.2751732822196985 l -6.1478131735398325 -12.001848924635967" fill="#ff870c" stroke="none" /><path d="M 109.57404056367764 118.69057910512821 l 14.455572709414914 28.22037607196723 a52.7073052781286,52.7073052781286 0 0,0 -0.8110552255809081,0.40667992733655783 l -13.967663576151246 -28.46502384021309" fill="#8eff24" stroke="none" /><path d="M 108.92500713936063 119.00905698771935 l 8.204679922797526 17.47485753043643 a40.30511378740378,40.30511378740378 0 0,0 -0.630548562542761,0.2894539186093741 l -7.9026633644873465 -17.613498519379878" fill="#ffd614" stroke="none" /><path d="M 107.93186726928326 119.44442032107085 l 21.52517622973095 52.76747074637218 a77.98893910830608,77.98893910830608 0 0,0 -1.2473733784921077,0.4963556101546691 l -20.613681775196973 -53.13017320093292" fill="#45fff0" stroke="none" /><path d="M 107.2578585660854 119.70592522655815 l 5.171034377988915 14.03995625827853 a35.961950684075845,35.961950684075845 0 0,0 -0.5827213513994828,0.2089431443792277 l -4.928593465959699 -14.126886943697716" fill="#ff9b0e" stroke="none" /><path d="M 106.57524785965236 119.94407469862006 l 6.131303678631792 18.597500988049685 a40.582132871577414,40.582132871577414 0 0,0 -0.6653124818270193,0.21301204680531077 l -5.810269851713832 -18.700285881514702" fill="#ffda14" stroke="none" /><path d="M 106.2309692047433 120.05430185196036 l 4.361493455252384 14.037415914429026 a35.69937654170661,35.69937654170661 0 0,0 -0.5884022675221662,0.17728077646702825 l -4.119216213289971 -14.11041206000178" fill="#ff980e" stroke="none" /><path d="M 105.88484417918355 120.15858648285463 l 3.808070037507975 13.04457804599377 a34.58905492698402,34.58905492698402 0 0,0 -0.5729740063721697,0.16192817748343058 l -3.5829648630311994 -13.108195016815719" fill="#ff880c" stroke="none" /><path d="M 105.53697534728816 120.25689768951611 l 7.257275877628717 26.550577840249762 a48.52455697763678,48.52455697763678 0 0,0 -0.8076093534296235,0.21329697048795287 l -6.799176081387596 -26.671566160041298" fill="#bfff1e" stroke="none" /><path d="M 105.18746579009965 120.34920634021253 l 3.3615609955627055 13.186611939584788 a34.608336664415994,34.608336664415994 0 0,0 -0.578530614597349,0.14218874948810636 l -3.1340770962221454 -13.242521947386924" fill="#ff880c" stroke="none" /><path d="M 104.83641907484287 120.43548508189849 l 3.2356532382296304 13.671715055458977 a35.04938590955952,35.04938590955952 0 0,0 -0.5882953480606412,0.13389410589338796 l -2.9998377407761274 -13.725385894930048" fill="#ff8f0d" stroke="none" /><path d="M 104.13013068566511 120.58985236759428 l 3.999514486632498 19.93869421799092 a41.33587085047817,41.33587085047817 0 0,0 -0.6988368015143437,0.13393373625582972 l -3.65571007054645 -20.00458515259522" fill="#ffe415" stroke="none" /><path d="M 103.7750983002368 120.6578951692458 l 2.4231454435525004 13.259809565648428 a34.47939848650046,34.47939848650046 0 0,0 -0.584755868285342,0.10166730314403698 l -2.1945406037951085 -13.299555447313471" fill="#ff870c" stroke="none" /><path d="M 103.41894727170886 120.7198165907248 l 3.5487463129856467 21.506436598339807 a42.7972570648772,42.7972570648772 0 0,0 -0.7278878742619598,0.1136811161895184 l -3.17802257511517 -21.564336021876432" fill="#fff717" stroke="none" /><path d="M 103.06178313531738 120.77559828337769 l 2.5761558270782356 17.480394989899292 a38.66920450524826,38.66920450524826 0 0,0 -0.6593493588037527,0.09137981312515976 l -2.2748778770876523 -17.522149368517056" fill="#ffc111" stroke="none" /><path d="M 102.70371172650421 120.8252237178851 l 1.733008942671174 13.348427120551799 a34.46045417465774,34.46045417465774 0 0,0 -0.5889005710704401,0.07130765790685836 l -1.5029809485493535 -13.376280307184008" fill="#ff860c" stroke="none" /><path d="M 102.34483914955558 120.86867818915974 l 1.9940752664114558 17.74693800535981 a38.85861542041259,38.85861542041259 0 0,0 -0.6653472117247259,0.06896595893588488 l -1.6882954580811271 -17.778633332751454" fill="#ffc312" stroke="none" /><path d="M 101.62511606390274 120.93702456842531 l 1.5742343558094127 20.281495036660722 a41.342498733663575,41.342498733663575 0 0,0 -0.7099830764670952,0.048964589778076065 l -1.2248885185633873 -20.305587970955084" fill="#ffe415" stroke="none" /><path d="M 101.26447882468166 120.96189622390904 l 0.894989590875843 14.83668888653892 a35.86365848247744,35.86365848247744 0 0,0 -0.6165337439294514,0.0318677522617822 l -0.639467778532912 -14.849896445562903" fill="#ff9a0e" stroke="none" /><path d="M 100.90346689309514 120.98055641714683 l 1.353130976495698 31.422779306166934 a52.45190014551784,52.45190014551784 0 0,0 -0.9023716208842352,0.031079503164051392 l -0.8120390039368106 -31.44141560775708" fill="#91ff24" stroke="none" /><line stroke="#e1ed5e" stroke-width="0.3" x1="102.19456741930631" x2="102.32365962044197" y1="184.97166512339345" y2="189.96999836594603" /><path d="M 102.22038585953345 185.97133177190398 a86.0,86.0 0 0,1 -42.740103519485714,-10.115201625700543" fill="none" id="id67" stroke="none" /><text fill="#e1ed5e" style="font-size:6.75px; font-family:Arial;" text-anchor="middle"><textPath startOffset="22.20632615414155" xlink:href="#id67">July</textPath></text><path d="M 100.54218724476979 120.99299961872073 l 0.4665716191200099 18.06523100050241 a39.07125508030036,39.07125508030036 0 0,0 -0.6724726929764969,0.011577227260424646 l -0.15553923625084504 -18.070585705041996" fill="#ffc612" stroke="none" /><path d="M 100.18074693466247 120.99922214144158 l 0.06506664438159833 7.559458321763322 a28.55973834115228,28.55973834115228 0 0,0 -0.4916271580881023,0.0 l 0.06506664438159311 -7.559458321763322" fill="#ff3004" stroke="none" /><path d="M 99.81925306533755 120.99922214144158 l -0.12843987943638296 14.922175942521998 a35.92272869358054,35.92272869358054 0 0,0 -0.6182820094718716,-0.010644285499542291 l 0.38528157880092256 -14.917754179743296" fill="#ff9b0e" stroke="none" /><path d="M 99.09653310690486 120.98055641714683 l -0.6593207250322534 15.310927023727372 a36.3251163174823,36.3251163174823 0 0,0 -0.6244666860418561,-0.03227779475570061 l 0.9227754794875983 -15.29730942220947" fill="#ffa00e" stroke="none" /><path d="M 98.73552117531835 120.96189622390904 l -1.0601827297291806 17.575177950930705 a38.6071254731514,38.6071254731514 0 0,0 -0.6630079592808935,-0.04572491066594156 l 1.3625534497890042 -17.55432469574848" fill="#ffc011" stroke="none" /><path d="M 98.37488393609728 120.93702456842531 l -1.6966252225257974 21.858305850553148 a42.924052358130254,42.924052358130254 0 0,0 -0.7361591124923899,-0.06351890582184279 l 2.072628652759729 -21.82586269245264" fill="#fff917" stroke="none" /><path d="M 98.01472825383883 120.90594882070398 l -2.191834812590635 23.081165842440278 a44.18500283571076,44.18500283571076 0 0,0 -0.7565469875529054,-0.07841918859385442 l 2.5888143967491337 -23.04001728539066" fill="#f5ff19" stroke="none" /><path d="M 97.65516085044442 120.86867818915974 l -1.9064856363404215 16.967404874907636 a38.074176866561146,38.074176866561146 0 0,0 -0.6506560936809512,-0.07878539166447517 l 2.198269153072762 -16.932073954517815" fill="#ffb811" stroke="none" /><path d="M 97.2962882734958 120.8252237178851 l -1.965544517940135 15.139522424785556 a36.266581297153245,36.266581297153245 0 0,0 -0.6183821837099518,-0.08570213595090467 l 2.225855292836918 -15.103445723342046" fill="#ffa00e" stroke="none" /><path d="M 96.58105272829116 120.7198165907248 l -3.7311792081794213 22.6120330957789 a43.91780397438094,43.91780397438094 0 0,0 -0.7448271931506982,-0.1294977547775939 l 4.11985537280217 -22.5444567624803" fill="#f8ff18" stroke="none" /><path d="M 96.22490169976321 120.6578951692458 l -2.684517095837634 14.690073829967153 a35.93334862539981,35.93334862539981 0 0,0 -0.6075001180429808,-0.11642884348540117 l 2.9369848284523097 -14.641687788133284" fill="#ff9b0e" stroke="none" /><path d="M 95.86986931433489 120.58985236759428 l -3.7806278684821333 18.847483431707506 a40.22292326334454,40.22292326334454 0 0,0 -0.6776768427067549,-0.14201377131772727 l 4.104496172618275 -18.77961367966324" fill="#ffd513" stroke="none" /><path d="M 95.51606077576429 120.51570834832081 l -7.2165964655141295 33.018642972184 a54.79807758246949,54.79807758246949 0 0,0 -0.9197722952298651,-0.2093371798728115 l 7.783888910136857 -32.889529058733494" fill="#76ff27" stroke="none" /><path d="M 94.81253420990036 120.34920634021253 l -3.70901638228946 14.549597575464126 a36.01491232515339,36.01491232515339 0 0,0 -0.5994074313784475,-0.15830895055641508 l 3.958914256479397 -14.48359727560413" fill="#ff9c0e" stroke="none" /><path d="M 94.11515582081647 120.15858648285463 l -6.453156878516517 22.105346728322665 a44.02801745001316,44.02801745001316 0 0,0 -0.725676126915767,-0.21864026422768074 l 6.832707979872531 -21.99099109498926" fill="#f7ff18" stroke="none" /><path d="M 93.76903079525671 120.05430185196036 l -4.001613415547105 12.879146195931474 a34.48648644620469,34.48648644620469 0 0,0 -0.5653791031542317,-0.18101653474636928 l 4.2227138637922765 -12.808356814525398" fill="#ff870c" stroke="none" /><path d="M 93.42475214034765 119.94407469862007 l -6.751270144337117 20.477986373025047 a42.56217926035347,42.56217926035347 0 0,0 -0.6938248663319272,-0.2353830652573384 l 7.1027647436062695 -20.358740320869583" fill="#fff417" stroke="none" /><path d="M 93.08242187328487 119.8279376855182 l -7.225191713830425 20.709654223418312 a42.933836266261125,42.933836266261125 0 0,0 -0.6956926032635578,-0.24945061597306462 l 7.580603877723709 -20.58221606640529" fill="#fff917" stroke="none" /><path d="M 92.7421414339146 119.70592522655815 l -6.049634272981718 16.42545656489698 a38.504105181418225,38.504105181418225 0 0,0 -0.6199706945150376,-0.2344198678820272 l 6.331475188257039 -16.31888844690832" fill="#ffbe11" stroke="none" /><path d="M 92.40401165467489 119.57807347666478 l -7.015099765623519 18.08087801267325 a40.3940654436047,40.3940654436047 0 0,0 -0.6460721540710815,-0.25708544351455376 l 7.325292995736459 -17.957445724752628" fill="#ffd814" stroke="none" /><path d="M 91.7346041902142 119.30500536409082 l -9.09027971703669 21.231638839450476 a44.095793407952684,44.095793407952684 0 0,0 -0.6952002634255479,-0.3047553654332744 l 9.454400655119983 -21.072018920722748" fill="#f6ff19" stroke="none" /><path d="M 91.40352486487194 119.15986991738527 l -6.103962735454181 13.604544903988396 a35.91113688222497,35.91113688222497 0 0,0 -0.5618075130565674,-0.2578982743258297 l 6.3372382442781685 -13.497459559328492" fill="#ff9b0e" stroke="none" /><path d="M 91.07499286063937 119.00905698771935 l -7.500152890823746 15.974310327385357 a38.64740444998477,38.64740444998477 0 0,0 -0.5997475964248147,-0.2879152928853286 l 7.774013155248803 -15.842840758000467" fill="#ffc011" stroke="none" /><path d="M 90.7491055286396 118.85261126421891 l -16.72829259032612 34.09097339677629 a58.974073262257086,58.974073262257086 0 0,0 -0.9074876820347131,-0.45503316290745305 l 17.31263418004359 -33.79797239295954" fill="#49ff2c" stroke="none" /><path d="M 90.42595943632237 118.69057910512821 l -4.496538168473516 8.778206210649225 a30.862847447731298,30.862847447731298 0 0,0 -0.4707452767354886,-0.24627167999223326 l 4.6469743477355 -8.699505111712275" fill="#ff5207" stroke="none" /><path d="M 90.10565033884886 118.52300852407294 l -8.782113358013309 16.440813814025816 a39.639363559426,39.639363559426 0 0,0 -0.5990776069432048,-0.32666487725009297 l 9.063813776825153 -16.287208285015957" fill="#ffce13" stroke="none" /><line stroke="#e1ed5e" stroke-width="0.3" x1="58.666819895761336" x2="56.23545636021788" y1="174.27360380694188" y2="178.64263932499728" /><path d="M 58.180547188652646 175.14741091055294 a86.0,86.0 0 0,1 -31.652253787137756,-30.449443065178592" fill="none" id="id68" stroke="none" /><text fill="#e1ed5e" style="font-size:6.75px; font-family:Arial;" text-anchor="middle"><textPath startOffset="22.20632615414155" xlink:href="#id68">August</textPath></text><path d="M 89.4739219176387 118.17145234162733 l -12.241065634147388 21.132081582634665 a45.42147743021768,45.42147743021768 0 0,0 -0.6731725296020448,-0.39772219611407905 l 12.603006034777815 -20.918240814226838" fill="#e5ff1a" stroke="none" /><path d="M 89.1626897886671 117.98757091392108 l -7.02066514694736 11.652772665079755 a34.604295273537375,34.604295273537375 0 0,0 -0.5075639388539814,-0.3117872268109293 l 7.2202082857336505 -11.530196971440448" fill="#ff880c" stroke="none" /><path d="M 88.8546689885994 117.79835938074946 l -11.52448159665333 18.403837887295992 a42.714394420602034,42.714394420602034 0 0,0 -0.6198025378334666,-0.39558730458743324 l 11.83956593653372 -18.202736153884754" fill="#fff617" stroke="none" /><path d="M 88.54995079064634 117.60387380957326 l -9.814351231677797 15.089070574836274 a39.000042803035925,39.000042803035925 0 0,0 -0.5596047450847231,-0.37087551072807423 l 10.072630675502483 -14.917897043016882" fill="#ffc512" stroke="none" /><path d="M 88.24862548938628 117.40417183066458 l -9.877826001769607 14.629384919434969 a38.65192198153581,38.65192198153581 0 0,0 -0.5482004218235054,-0.3770572488885296 l 10.128183308216002 -14.45718688118134" fill="#ffc011" stroke="none" /><path d="M 87.95078237400918 117.19931262002967 l -10.164759667055533 14.509396763159609 a38.715669152470234,38.715669152470234 0 0,0 -0.5425220674102779,-0.38707509024294656 l 10.413009062314698 -14.332277411072443" fill="#ffc112" stroke="none" /><path d="M 87.36589467227662 116.77436683061367 l -14.64704814513072 19.4469613952756 a45.3458482471882,45.3458482471882 0 0,0 -0.6194486259148703,-0.4749667917070411 l 14.979625499539075 -19.191955261741192" fill="#e6ff1a" stroke="none" /><path d="M 87.07902340077011 116.55440617244103 l -10.10503876508155 12.946615514758562 a37.42335720036522,37.42335720036522 0 0,0 -0.5044000406154896,-0.4007258980206685 l 10.326396298414398 -12.770755702732764" fill="#ffb010" stroke="none" /><path d="M 86.79598089348748 116.32954008644616 l -11.958527382096339 14.789228240702183 a40.01913902110006,40.01913902110006 0 0,0 -0.531930339557709,-0.43774245582284527 l 12.211327850198735 -14.581190666022158" fill="#ffd313" stroke="none" /><path d="M 86.51685102203217 116.09983520530335 l -24.13955736493613 28.82434186105197 a58.5973524798999,58.5973524798999 0 0,0 -0.7677216499239757,-0.6542690454307226 l 24.632144491437163 -28.404548425398293" fill="#4dff2c" stroke="none" /><path d="M 86.24171649860922 115.8653595955263 l -8.88739165331635 10.248492439619337 a34.56529865813399,34.56529865813399 0 0,0 -0.4461518345407086,-0.39367712079785755 l 9.062485840763646 -10.093992177049191" fill="#ff880c" stroke="none" /><path d="M 85.97065885151581 115.62618273729859 l -14.47457040381111 16.12208868399242 a42.666447145515136,42.666447145515136 0 0,0 -0.5422711412279345,-0.4953518303870537 l 14.749941094505902 -15.87054408701879" fill="#fff517" stroke="none" /><path d="M 85.44109423537348 115.13401014063109 l -16.920148053166177 17.58852597561032 a45.405893881105484,45.405893881105484 0 0,0 -0.5586007069811064,-0.5467083616450593 l 17.220398712523078 -17.29466751104269" fill="#e6ff1a" stroke="none" /><path d="M 85.18274418774928 114.88116024355367 l -11.214458234816378 11.262824382026574 a36.89387575642937,36.89387575642937 0 0,0 -0.4461688393515056,-0.4519666786779881 l 11.406667699223416 -11.068117209367921" fill="#ffa80f" stroke="none" /><path d="M 84.67929136418377 114.36230785411682 l -33.70238275497706 31.594099728042398 a67.1956463423607,67.1956463423607 0 0,0 -0.7838007113623767,-0.8506608696632972 l 34.24122987433517 -31.009287603577754" fill="#37ff77" stroke="none" /><path d="M 84.43433777217949 114.09645910891817 l -13.152831239967151 11.911369078105658 a38.74479312198109,38.74479312198109 0 0,0 -0.4434270547178136,-0.4981949967134 l 13.355917144333302 -11.683199911651393" fill="#ffc212" stroke="none" /><path d="M 84.19399662182784 113.82643327865904 l -14.847506808469795 12.987980410357421 a40.7265327304974,40.7265327304974 0 0,0 -0.45702440462631216,-0.5316226330084204 l 15.068873722666885 -12.73048067818747" fill="#ffdc14" stroke="none" /><path d="M 83.72743513129214 113.27417163493432 l -20.86487589210382 17.020300485388834 a47.926449350143116,47.926449350143116 0 0,0 -0.5159672255655862,-0.6437484474807943 l 21.15476102972427 -16.658624204329783" fill="#c6ff1e" stroke="none" /><path d="M 83.50135304334701 112.99209946851258 l -11.684435618160075 9.201078741996618 a35.87231944692387,35.87231944692387 0 0,0 -0.37784345296358424,-0.48841359676545937 l 11.841085888341727 -8.998587151117905" fill="#ff9a0e" stroke="none" /><path d="M 83.06392112726016 112.41649034213515 l -29.355005917212058 21.52128306694752 a57.39892851784565,57.39892851784565 0 0,0 -0.5773244570931916,-0.8018531766784868 l 29.72111016668086 -21.0127962848179" fill="#5aff2a" stroke="none" /><path d="M 82.85270091963577 112.12312394758628 l -11.228950821739426 7.938857424443216 a34.751901459895635,34.751901459895635 0 0,0 -0.3411297829206572,-0.491422894958663 l 11.363941511822217 -7.74439326729754" fill="#ff8a0c" stroke="none" /><path d="M 82.6465618267979 111.8261652097733 l -17.73221890557091 12.084299849984824 a42.45837575818425,42.45837575818425 0 0,0 -0.4063810322237791,-0.6074845046720386 l 17.93760304320542 -11.777278431106964" fill="#fff316" stroke="none" /><path d="M 82.44556493220864 111.52570212397912 l -11.331308577705132 7.43978868229968 a34.555405184665204,34.555405184665204 0 0,0 -0.32218001329490803,-0.5000305353134359 l 11.457693454377086 -7.243636547064796" fill="#ff880c" stroke="none" /><path d="M 82.05923443525364 110.91462005526583 l -20.847987265187168 12.683285955403733 a45.40295710843151,45.40295710843151 0 0,0 -0.40045218839687724,-0.6711809017200088 l 21.063220329282277 -12.322542959797612" fill="#e6ff1a" stroke="none" /><line stroke="#e1ed5e" stroke-width="0.3" x1="26.63291911575756" x2="22.317208475507996" y1="142.92168965132927" y2="145.44649492493687" /><path d="M 25.769776987707644 143.4266507060508 a86.0,86.0 0 0,1 -11.730757126820373,-40.83630448921669" fill="none" id="id69" stroke="none" /><text fill="#e1ed5e" style="font-size:6.75px; font-family:Arial;" text-anchor="middle"><textPath startOffset="21.46611528233685" xlink:href="#id69">September</textPath></text><path d="M 81.87401531095188 110.60418214915194 l -18.875073119058086 11.042418763267989 a42.867862204457985,42.867862204457985 0 0,0 -0.36712854508032017,-0.6401195637047044 l 19.062353660290782 -10.715879353704977" fill="#fff817" stroke="none" /><path d="M 81.69416730710424 110.29060199501025 l -18.89228040915949 10.620272878613093 a42.67275836331214,42.67275836331214 0 0,0 -0.35443503487317757,-0.6434025409100241 l 19.072291853484185 -10.293499819305246" fill="#fff617" stroke="none" /><path d="M 81.51974371655577 109.97397251340807 l -15.501476690622367 8.366296444060344 a38.61507013269619,38.61507013269619 0 0,0 -0.31066282112567317,-0.587656981228852 l 15.643192019972926 -8.098224447745366" fill="#ffc011" stroke="none" /><path d="M 81.35079622478065 109.6543875284942 l -20.4317114108019 10.577162553843042 a44.007198848723675,44.007198848723675 0 0,0 -0.34246261784946164,-0.6757112344539714 l 20.61075269843763 -10.223897107686385" fill="#f7ff18" stroke="none" /><path d="M 81.02952815118164 109.00673069616217 l -24.340319028563503 11.556206946038516 a47.94433241689093,47.94433241689093 0 0,0 -0.34754020821523524,-0.748570689867226 l 24.535633853618563 -11.135516188892463" fill="#c6ff1e" stroke="none" /><path d="M 80.87730276802145 108.67885076344099 l -13.591599005530284 6.168557603279357 a35.92590588313176,35.92590588313176 0 0,0 -0.25072675220371055,-0.5653226362898922 l 13.695766842465273 -5.933686630496769" fill="#ff9b0e" stroke="none" /><path d="M 80.73074385275274 108.34839909993369 l -16.056253168851367 6.95636658098477 a38.498408551388074,38.498408551388074 0 0,0 -0.2582125271486059,-0.6103381394318516 l 16.17361667719228 -6.678953915886759" fill="#ffbe11" stroke="none" /><path d="M 80.58989483394504 108.01547362559985 l -16.202265024802973 6.690784355378252 a38.52940350451572,38.52940350451572 0 0,0 -0.24786769941344355,-0.6151873024620834 l 16.315035338473802 -6.410897685073364" fill="#ffbf11" stroke="none" /><path d="M 80.45479744820244 107.68017299344265 l -12.541823013436977 4.928235977144038 a34.47534171539981,34.47534171539981 0 0,0 -0.2122789950842724,-0.5541934708806052 l 12.624796288114759 -4.7116189394302745" fill="#ff860c" stroke="none" /><path d="M 80.32549172779594 107.34259656027581 l -10.223172019895024 3.8153242088616595 a31.91191756599592,31.91191756599592 0 0,0 -0.18763560020008127,-0.5162925854669668 l 10.28733188110033 -3.6387838263885754" fill="#ff6209" stroke="none" /><path d="M 80.0844068197444 106.66101706037122 l -12.837587274596496 4.293690229366009 a34.53659568793554,34.53659568793554 0 0,0 -0.183714541041009,-0.5654152185016234 l 12.909594066653755 -4.072076110886582" fill="#ff870c" stroke="none" /><path d="M 79.97269907076064 106.31721596034903 l -9.77702229404334 3.083968304008735 a31.25187911742774,31.25187911742774 0 0,0 -0.1574101009285047,-0.5144253175218421 l 9.828659167477975 -2.9152160139348453" fill="#ff5808" stroke="none" /><path d="M 79.86692584326677 105.97154293290107 l -6.769522491774931 2.007864962905035 a28.061016674382543,28.061016674382543 0 0,0 -0.13336648002691365,-0.4642662130121475 l 6.803081608687949 -1.8910412743882914" fill="#ff2904" stroke="none" /><path d="M 79.76711848015287 105.62410040840567 l -55.58101468299061 15.44976216420661 a78.68833802530082,78.68833802530082 0 0,0 -0.3515192552201015,-1.3081339170466917 l 55.838722014552495 -14.49073731398438" fill="#46fff7" stroke="none" /><path d="M 79.4281124754447 104.21870165774334 l -8.37836544327789 1.7181614541954888 a29.552723910181847,29.552723910181847 0 0,0 -0.09790404681823693,-0.4992106254708402 l 8.406699423071792 -1.5736871016566938" fill="#ff3f05" stroke="none" /><path d="M 79.35854240842038 103.8639653848113 l -6.71160491478517 1.2563748927226153 a27.828185586466745,27.828185586466745 0 0,0 -0.08408558946222025,-0.4715966405399887 l 6.732236946586578 -1.1406595014494127" fill="#ff2503" stroke="none" /><path d="M 79.29508885075956 103.50808413554451 l -7.112355895336137 1.205063991964558 a28.21372203558276,28.21372203558276 0 0,0 -0.0770076690484665,-0.479526828674369 l 7.132045318745894 -1.0824579335969755" fill="#ff2b04" stroke="none" /><path d="M 79.23777060512086 103.15116336523772 l -8.053508606022662 1.2223119588103875 a29.145737989398626,29.145737989398626 0 0,0 -0.07101282585948296,-0.496663538665674 l 8.073355482898744 -1.083502948164313" fill="#ff3905" stroke="none" /><path d="M 79.18660465613746 102.79330883721812 l -8.53691895916435 1.145716533860993 a29.613457592123048,29.613457592123048 0 0,0 -0.06345528083942877,-0.5058010224979659 l 8.555375749250626 -0.9985977570756184" fill="#ff4006" stroke="none" /><path d="M 79.1416061653843 102.43462659150553 l -8.117169730077647 0.9474496180915997 a29.17227662317611,29.17227662317611 0 0,0 -0.053923839927922025,-0.4992677865411468 l 8.13227587150662 -0.8075855096656708" fill="#ff3905" stroke="none" /><path d="M 79.07016306316243 101.71520430193888 l -14.762859723858966 1.2098192921281832 a35.81234923791438,35.81234923791438 0 0,0 -0.04506121472287455,-0.6148244735918046 l 14.781497497246177 -0.955521682039618" fill="#ff990e" stroke="none" /><path d="M 79.04373962182676 101.35467743843564 l -12.090758915860048 0.7815840241200492 a33.11599458353333,33.11599458353333 0 0,0 -0.031875956881997417,-0.5691666231847442 l 12.102421223629579 -0.5733456845998673" fill="#ff730a" stroke="none" /><path d="M 79.0235259727143 100.99374915477108 l -12.047455191161355 0.5707416984277697 a33.060966904413796,33.060966904413796 0 0,0 -0.022037286787563302,-0.5686844515043568 l 12.05549461080012 -0.3632799999094162" fill="#ff720a" stroke="none" /><path d="M 79.0095281055655 100.63252640178507 l -27.435439489227964 0.8267389084337237 a48.44789312843169,48.44789312843169 0 0,0 -0.017944032180780937,-0.8337886657203165 l 27.44560558409375 -0.3543604269232782" fill="#c0ff1e" stroke="none" /><line stroke="#e1ed5e" stroke-width="0.3" x1="15.007084014347285" x2="10.007500721073583" y1="101.09737516637583" y2="101.16192664675087" /><path d="M 14.007167355692545 101.11028546245083 a86.0,86.0 0 0,1 10.666146001902534,-42.60595125391555" fill="none" id="id70" stroke="none" /><text fill="#e1ed5e" style="font-size:6.75px; font-family:Arial;" text-anchor="middle"><textPath startOffset="22.20632615414155" xlink:href="#id70">October</textPath></text><path d="M 79.00175016825051 100.2711162175752 l -17.1323697015706 0.22120240061944538 a38.13379765531664,38.13379765531664 0 0,0 -0.0028249929701866542,-0.6564288767855178 l 17.13363899183029 0.07373595436974775" fill="#ffb911" stroke="none" /><path d="M 79.00019446554 99.90962569577889 l -7.484581616519571 -0.032210481895614256 a28.484650926361674,28.484650926361674 0 0,0 0.006330364910842241,-0.4902937386516159 l 7.482918244491013 0.16104047860770213" fill="#ff2f04" stroke="none" /><path d="M 79.01574976396665 99.18683210126434 l -18.680347730369416 -0.7238885802777792 a39.69436829647299,39.69436829647299 0 0,0 0.03233463880967864,-0.682533120070102 l 18.665119483326237 1.0453328069708903" fill="#ffce13" stroke="none" /><path d="M 79.08570108090925 98.10471618934814 l -62.742896757272284 -5.685851431955563 a84.0,84.0 0 0,0 0.1428914972710853,-1.4388978771822787 l 62.635728134318974 6.7650248398422725" fill="#4dd2ff" stroke="none" /><path d="M 79.3925641242962 95.95851677861259 l -12.591238515485072 -2.4693649177778605 a33.83109700886821,33.83109700886821 0 0,0 0.11699228975010147,-0.5704959537875111 l 12.546866929819977 2.685736527728774" fill="#ff7d0b" stroke="none" /><path d="M 79.46518482838121 95.60439243477599 l -12.58194982997901 -2.6932462452529027 a33.86697465846878,33.86697465846878 0 0,0 0.12692957147053543,-0.5690003805145761 l 12.533725871506437 2.9094247953174377" fill="#ff7e0b" stroke="none" /><path d="M 79.62865764111835 94.90015583598534 l -17.372321087990432 -4.349057060412608 a38.90842922478021,38.90842922478021 0 0,0 0.16823943308450365,-0.6482951648585544 l 17.29488532303562 4.647448650820027" fill="#ffc412" stroke="none" /><path d="M 79.71946130924805 94.55025226153421 l -10.328125798309935 -2.775354297546166 a31.694520745812934,31.694520745812934 0 0,0 0.14611661470255363,-0.5256592056819271 l 10.278822413041022 2.9527248066470357" fill="#ff5f08" stroke="none" /><path d="M 79.91906864156998 93.8553929516997 l -13.888887040568298 -4.2498901908101026 a35.5245567870283,35.5245567870283 0 0,0 0.18395717819782684,-0.5831945257192093 l 13.813674378602267 4.488334882955726" fill="#ff950d" stroke="none" /><path d="M 80.02781315780177 93.51064311812611 l -25.85400492914209 -8.400475427980904 a48.184509528262865,48.184509528262865 0 0,0 0.2630936314662114,-0.7866164708944838 l 25.705574003904108 8.84426500179771" fill="#c3ff1e" stroke="none" /><path d="M 80.14247586403 93.16781622104843 l -6.4740194559107875 -2.2274524461571263 a27.846493432071835,27.846493432071835 0 0,0 0.15984804730886346,-0.45191195511170795 l 6.4347183277921145 2.338562027695445" fill="#ff2603" stroke="none" /><path d="M 80.2630227832202 92.82701384747504 l -6.423700234301851 -2.334557735084432 a27.834770260850924,27.834770260850924 0 0,0 0.16753272576585293,-0.44890441302161765 l 6.3825629200343705 2.4447852851353913" fill="#ff2503" stroke="none" /><path d="M 80.38941819471856 92.48833698450439 l -14.662489111143264 -5.616339090032492 a36.7013328003906,36.7013328003906 0 0,0 0.231054901150014,-0.5880095210639608 l 14.56364066011156 5.867897615992216" fill="#ffa60f" stroke="none" /><path d="M 80.52162464483688 92.15188598940014 l -11.358702660714364 -4.576582588042219 a33.246029328712666,33.246029328712666 0 0,0 0.21843957354798585,-0.5289687538179967 l 11.278241400280178 4.771425912313527" fill="#ff750a" stroke="none" /><path d="M 80.803312248108 91.48605970444005 l -13.389703014147027 -5.938479258042376 a35.64751455726389,35.64751455726389 0 0,0 0.25360267051763896,-0.5587798681777695 l 13.285498026666037 6.1680811350622164" fill="#ff970d" stroke="none" /><path d="M 80.95270993114464 91.15688171328213 l -20.186194383412655 -9.371879361625403 a43.25566369385062,43.25566369385062 0 0,0 0.31935410598420827,-0.6726411926537806 l 20.021882083586693 9.717962969919716" fill="#fffd17" stroke="none" /><path d="M 81.10775173730289 90.83032412892265 l -8.856243420438204 -4.29852924181222 a30.84430805921725,30.84430805921725 0 0,0 0.23594424986160023,-0.47564921020770057 l 8.780939157623191 4.450338040518883" fill="#ff5207" stroke="none" /><path d="M 81.43458229118936 90.18545643968196 l -12.666672673931085 -6.696192494693461 a35.32772105236913,35.32772105236913 0 0,0 0.28883255132194596,-0.5351628515373509 l 12.549532023390668 6.913236329563285" fill="#ff920d" stroke="none" /><path d="M 81.6062741919709 89.86733742301443 l -12.011678964429448 -6.616945973855437 a34.713657629000316,34.713657629000316 0 0,0 0.2928218662746726,-0.5208974261607698 l 11.895999456862345 6.822726909950991" fill="#ff8a0c" stroke="none" /><line stroke="#e1ed5e" stroke-width="0.3" x1="26.266209847984243" x2="21.928928074336255" y1="57.711370442889674" y2="55.22380399835377" /><path d="M 25.398753493254645 57.213857153982495 a86.0,86.0 0 0,1 29.58750427330803,-30.492523968695096" fill="none" id="id71" stroke="none" /><text fill="#e1ed5e" style="font-size:6.75px; font-family:Arial;" text-anchor="middle"><textPath startOffset="21.46611528233685" xlink:href="#id71">November</textPath></text><path d="M 81.96595687620814 89.24020034530311 l -12.154491610276684 -7.251834418580085 a35.15347196764063,35.15347196764063 0 0,0 0.31451342943371474,-0.5169773822509115 l 12.027862382556753 7.459979574038071" fill="#ff900d" stroke="none" /><path d="M 82.34701348167596 88.62581576622439 l -19.701405409171226 -12.694022881375393 a44.436799952412514,44.436799952412514 0 0,0 0.41982907735645963,-0.6394284876312919 l 19.479979696456844 13.03126943298435" fill="#f2ff19" stroke="none" /><path d="M 82.7489923806493 88.02491185347247 l -12.294589128776128 -8.534503710802635 a35.966451664811004,35.966451664811004 0 0,0 0.3574164082323738,-0.5055401623119009 l 12.145860100739876 8.744870373446322" fill="#ff9b0e" stroke="none" /><path d="M 82.95767976084542 87.72973835380427 l -11.97074256292787 -8.618787893030646 a35.75066717992595,35.75066717992595 0 0,0 0.3638692478062839,-0.4963172450832901 l 11.82061070260795 8.823567581785436" fill="#ff980e" stroke="none" /><path d="M 83.39014120810768 87.1503855733568 l -9.536033307183525 -7.377206073344075 a33.05649620264106,33.05649620264106 0 0,0 0.3520452612181697,-0.4470617309910598 l 9.407633965371383 7.540260198288182" fill="#ff720a" stroke="none" /><path d="M 83.84228863543731 86.58626213691792 l -21.111777476821775 -17.526482712081307 a48.43874531547906,48.43874531547906 0 0,0 0.5381069132429308,-0.6369488576221014 l 20.80695995009172 17.887290519332524" fill="#c0ff1e" stroke="none" /><path d="M 85.05521093208273 85.24692304244772 l -12.394523875479834 -12.23552662778776 a38.41643861296399,38.41643861296399 0 0,0 0.4686150598910215,-0.46660267789847387 l 12.1820730154215 12.447065156336341" fill="#ffbd11" stroke="none" /><path d="M 85.57189188830299 84.74124197986013 l -41.49666870970037 -43.885700161194094 a81.39808103442408,81.39808103442408 0 0,0 1.026360482482997,-0.9538902116617133 l 40.73510034342252 44.59349495893046" fill="#4aebff" stroke="none" /><path d="M 86.10567301691215 84.25364557470407 l -5.271142904239427 -5.973753496485784 a28.96684870910009,28.96684870910009 0 0,0 0.37671552457694946,-0.3266839906967065 l 5.167533581015704 6.063602480602171" fill="#ff3605" stroke="none" /><path d="M 86.37877921826538 84.01681056812374 l -5.665446642167215 -6.647855456492672 a29.73448726747387,29.73448726747387 0 0,0 0.3924137637412229,-0.32863524191757654 l 5.550175341466881 6.744391855804061" fill="#ff4206" stroke="none" /><path d="M 86.93701828274178 83.55741782278169 l -6.315592183866955 -7.9495360040070455 a31.152922107054977,31.152922107054977 0 0,0 0.42274136248404276,-0.32995633883117487 l 6.177818266223486 8.057070732061442" fill="#ff5708" stroke="none" /><path d="M 87.22198572758235 83.33499621200491 l -4.42885564691699 -5.776084965852093 a28.278593262023307,28.278593262023307 0 0,0 0.38883583670053845,-0.2928630907905522 l 4.328773656458061 5.851464646148499" fill="#ff2c04" stroke="none" /><path d="M 87.51073957382395 83.11751280151077 l -4.659395789222767 -6.298386540117393 a28.83451607499524,28.83451607499524 0 0,0 0.40156139413354897,-0.29175143044314666 l 4.550289078735436 6.377657205377208" fill="#ff3405" stroke="none" /><path d="M 88.39885842347998 82.49532879139004 l -7.479994017091956 -11.286375142302212 a34.540035980325484,34.540035980325484 0 0,0 0.4984176110778936,-0.32418467863288203 l 7.2846093802297744 11.413458745094628" fill="#ff870c" stroke="none" /><path d="M 88.70189139769569 82.29822771554957 l -11.454922090979274 -17.947466211227535 a42.29147208423032,42.29147208423032 0 0,0 0.6170141459329591,-0.38637420157823416 l 11.144288792674072 18.1419847541287" fill="#fff116" stroke="none" /><line stroke="#e1ed5e" stroke-width="0.3" x1="56.762969772571076" x2="54.21961505331055" y1="26.818313649435495" y2="22.513508569990535" /><path d="M 56.25429882871897 25.957352633546506 a86.0,86.0 0 0,1 42.265352541879196,-11.944610805530505" fill="none" id="id72" stroke="none" /><text fill="#e1ed5e" style="font-size:6.75px; font-family:Arial;" text-anchor="middle"><textPath startOffset="22.20632615414155" xlink:href="#id72">December</textPath></text><path d="M 89.3179101791058 81.91981866633112 l -6.012709632758526 -10.176930009924918 a32.82043068398007,32.82043068398007 0 0,0 0.48887323618306827,-0.2831869329812057 l 5.8366396641101375 10.278921100296172" fill="#ff6f0a" stroke="none" /><path d="M 90.26544431104013 81.39251694778311 l -4.12592689324589 -7.886658332832643 a29.9007107798899,29.9007107798899 0 0,0 0.4581066717652939,-0.23466003023784796 l 3.989559733891833 7.956510888382996" fill="#ff4406" stroke="none" /><path d="M 90.58718382345135 81.22770947309562 l -4.787568612420654 -9.548006380254485 a31.68106919067636,31.68106919067636 0 0,0 0.48959129734310614,-0.24024032333460185 l 4.622506048067122 9.629001863723916" fill="#ff5e08" stroke="none" /><path d="M 90.91171255644093 81.06846463323043 l -7.019986669435636 -14.6231208830062 a37.220846993855346,37.220846993855346 0 0,0 0.5799748633463304,-0.2723059749549804 l 6.7672335947896975 14.741791840601188" fill="#ffad10" stroke="none" /><path d="M 91.56875222667455 80.76684994638697 l -5.669005478847014 -12.9319925070135 a35.11998772381374,35.11998772381374 0 0,0 0.5557591593727756,-0.2379470681564464 l 5.445562561683929 13.027659103132734" fill="#ff900d" stroke="none" /><path d="M 91.90106846888425 80.62456947434976 l -6.439227136033881 -15.404846618812957 a37.69649500519759,37.69649500519759 0 0,0 0.6008392827724134,-0.24509742961880457 l 6.173103983673087 15.51340493461534" fill="#ffb310" stroke="none" /><path d="M 92.57280143429618 80.3572730644239 l -6.207120227000766 -16.415983307390334 a38.55029485396072,38.55029485396072 0 0,0 0.6227114933877257,-0.2293498982931714 l 5.923626407840471 16.52039647348983" fill="#ffbf11" stroke="none" /><path d="M 93.25333710446033 80.11325718540243 l -3.667934226199781 -10.811754751451867 a32.41699532684803,32.41699532684803 0 0,0 0.5299672069997368,-0.17472185579770227 l 3.4812841969576347 10.873290331508803" fill="#ff6909" stroke="none" /><path d="M 93.59665428221793 80.00007090966166 l -5.141272377646536 -16.058024588849058 a37.86098559863071,37.86098559863071 0 0,0 0.6223888586778937,-0.19337924802494214 l 4.864098146257914 16.144143971756527" fill="#ffb610" stroke="none" /><path d="M 93.94186890950719 79.89281104454417 l -4.188604566021795 -13.902152695384178 a35.51944412766123,35.51944412766123 0 0,0 0.5869330749202297,-0.1713418593338568 l 3.9486812733781442 13.972192883636733" fill="#ff950d" stroke="none" /><path d="M 94.28887869178378 79.79150937346287 l -9.193791889104183 -32.531730143081845 a54.80590592488919,54.80590592488919 0 0,0 0.9100445275721406,-0.24874954651665668 l 8.63244947230832 32.6851662304248" fill="#76ff27" stroke="none" /><path d="M 94.98787191387505 79.60689891045804 l -6.296282531286835 -25.618005753743738 a47.38039788389544,47.38039788389544 0 0,0 0.7936810322783282,-0.18783865753458676 l 5.854377812045972 25.722590323419197" fill="#cdff1d" stroke="none" /><path d="M 95.692805502759 79.44645832069477 l -2.40521552665844 -11.47747045241458 a32.72678087608567,32.72678087608567 0 0,0 0.5523557358330142,-0.11079736431512804 l 2.2072933813582893 11.51717177280692" fill="#ff6e0a" stroke="none" /><path d="M 96.04723909329186 79.375362276772 l -1.3758397390299413 -7.178829393540223 a28.309481954902896,28.309481954902896 0 0,0 0.4793804715339558,-0.08760371704997068 l 1.2520641463930922 7.20144859194093" fill="#ff2d04" stroke="none" /><path d="M 96.40284397218896 79.31037775812273 l -2.797707891939638 -16.091467531524785 a37.332865540582205,37.332865540582205 0 0,0 0.6340734661652235,-0.10462755486836596 l 2.520305219635529 16.137241349332776" fill="#ffae10" stroke="none" /><path d="M 96.75951476605007 79.25152402106235 l -2.782078604368969 -17.81334797934093 a39.02929082337897,39.02929082337897 0 0,0 0.6646707176338954,-0.09795518598465473 l 2.4750389063064246 17.858597649486555" fill="#ffc512" stroke="none" /><path d="M 97.47563105711357 79.15227682838746 l -1.0310701379637632 -8.515183514421802 a29.577380480874183,29.577380480874183 0 0,0 0.5059609472234169,-0.05685060771180083 l 0.8843424872306284 8.5316700756042" fill="#ff3f06" stroke="none" /><path d="M 98.19473922651362 79.07773832637324 l -0.6285714825318857 -7.284896027909422 a28.311963638182483,28.311963638182483 0 0,0 0.48590045017227756,-0.037715226652759386 l 0.503080842997274 7.294636516750644" fill="#ff2d04" stroke="none" /><path d="M 98.55514903715128 79.0497635885617 l -1.0957051276865644 -15.887646582592392 a36.925384882639364,36.925384882639364 0 0,0 0.6344800108028545,-0.03827356694137699 l 0.8220630680440868 15.904153418914076" fill="#ffa90f" stroke="none" /><path d="M 98.91598698831166 79.02799685794201 l -1.3528610616512318 -26.173308004419763 a47.2082484143133,47.2082484143133 0 0,0 0.8118900810319716,-0.034961694745393304 l 0.9021301482299361 26.19271742568935" fill="#cfff1d" stroke="none" /><path d="M 99.27714615592234 79.0124445844662 l -0.28203492470976804 -8.188686634176925 a29.19354212117713,29.19354212117713 0 0,0 0.502369930805229,-0.012974733177034532 l 0.14103835870966006 8.192328159496318" fill="#ff3a05" stroke="none" /></svg>