<?xml version="1.0" encoding="utf-8" ?>
<svg baseProfile="full" height="200mm" version="1.1" viewBox="0,0,200,200" width="200mm" xmlns="http://www.w3.org/2000/svg" xmlns:ev="http://www.w3.org/2001/xml-events" xmlns:xlink="http://www.w3.org/1999/xlink"><defs /><rect fill="#1a1a1a" height="200" width="200" x="0" y="0" /><text alignment-baseline="middle" fill="#e1ed5e" style="dominant-baseline: central; font-size:9.0px; font-family:Arial;" text-anchor="middle" x="100.0" y="100.0">2021</text><line stroke="#e1ed5e" stroke-width="0.3" x1="100.0" x2="100.0" y1="15.0" y2="10.0" /><path d="M 100.0 14.0 a86.0,86.0 0 0,1 42.46469731375804,11.215312516191453" fill="none" id="id61" stroke="none" /><text fill="#e1ed5e" style="font-size:6.75px; font-family:Arial;" text-anchor="middle"><textPath startOffset="22.20632615414155" xlink:href="#id61">January</textPath></text><line stroke="#e1ed5e" stroke-width="0.3" x1="143.23703022742887" x2="145.7803849466894" y1="26.818313649435467" y2="22.513508569990506" /><path d="M 143.74570117128098 25.957352633546478 a86.0,86.0 0 0,1 28.547481713284135,27.462654790039114" fill="none" id="id62" stroke="none" /><text fill="#e1ed5e" style="font-size:6.75px; font-family:Arial;" text-anchor="middle"><textPath startOffset="19.985693538727396" xlink:href="#id62">February</textPath></text><line stroke="#e1ed5e" stroke-width="0.3" x1="172.23445277983987" x2="176.4835382374775" y1="55.19839476539836" y2="52.563006222186495" /><path d="M 173.08426987136738 54.67131705675599 a86.0,86.0 0 0,1 12.851231095245387,41.99856678651699" fill="none" id="id63" stroke="none" /><text fill="#e1ed5e" style="font-size:6.75px; font-family:Arial;" text-anchor="middle"><textPath startOffset="22.20632615414155" xlink:href="#id63">March</textPath></text><line stroke="#e1ed5e" stroke-width="0.3" x1="184.98032266829074" x2="189.97916517819016" y1="98.17113171792111" y2="98.06355123074" /><path d="M 185.9800911702706 98.14961562048488 a86.0,86.0 0 0,1 -9.607161424134198,41.387399972396054" fill="none" id="id64" stroke="none" /><text fill="#e1ed5e" style="font-size:6.75px; font-family:Arial;" text-anchor="middle"><textPath startOffset="21.466115282336823" xlink:href="#id64">April</textPath></text><line stroke="#e1ed5e" stroke-width="0.3" x1="174.80103733775053" x2="179.2010983576182" y1="140.37084112569926" y2="142.7455964860345" /><path d="M 175.68104954172406 140.8457921977663 a86.0,86.0 0 0,1 -30.038265399797805,32.042727171017184" fill="none" id="id65" stroke="none" /><text fill="#e1ed5e" style="font-size:6.75px; font-family:Arial;" text-anchor="middle"><textPath startOffset="22.206326154141568" xlink:href="#id65">May</textPath></text><line stroke="#e1ed5e" stroke-width="0.3" x1="143.8653032363475" x2="146.44561519142675" y1="172.8068346515853" y2="177.08958963109032" /><path d="M 144.38136562736335 173.6633856474863 a86.0,86.0 0 0,1 -40.68145358897372,12.25698825130547" fill="none" id="id66" stroke="none" /><text fill="#e1ed5e" style="font-size:6.75px; font-family:Arial;" text-anchor="middle"><textPath startOffset="21.466115282336833" xlink:href="#id66">June</textPath></text><line stroke="#e1ed5e" stroke-width="0.3" x1="102.19456741930631" x2="102.32365962044197" y1="184.97166512339345" y2="189.96999836594603" /><path d="M 102.22038585953345 185.97133177190398 a86.0,86.0 0 0,1 -42.740103519485714,-10.115201625700543" fill="none" id="id67" stroke="none" /><text fill="#e1ed5e" style="font-size:6.75px; font-family:Arial;" text-anchor="middle"><textPath startOffset="22.20632615414155" xlink:href="#id67">July</textPath></text><line stroke="#e1ed5e" stroke-width="0.3" x1="58.666819895761336" x2="56.23545636021788" y1="174.27360380694188" y2="178.64263932499728" /><path d="M 58.180547188652646 175.14741091055294 a86.0,86.0 0 0,1 -31.652253787137756,-30.449443065178592" fill="none" id="id68" stroke="none" /><text fill="#e1ed5e" style="font-size:6.75px; font-family:Arial;" text-anchor="middle"><textPath startOffset="22.20632615414155" xlink:href="#id68">August</textPath></text><path d="M 85.44109423537348 115.13401014063109 l -36.669454500820166 38.11796746532888 a73.89261136563019,73.89261136563019 0 0,0 -0.909055222161309,-0.8897018656467609 l 37.32015967535727 -37.48111549675955" fill="#3dffa9" stroke="none" /><path d="M 85.18274418774928 114.88116024355367 l -28.63172180966124 28.75520580174819 a61.578779608148935,61.578779608148935 0 0,0 -0.7446908751965989,-0.7543679249174245 l 29.12245330991337 -28.258097382850103" fill="#67ff28" stroke="none" /><path d="M 84.19399662182784 113.82643327865904 l -39.75967101843498 34.78010382289294 a73.82506092211716,73.82506092211716 0 0,0 -0.8284489803661979,-0.9636733264070323 l 40.35246250837196 -34.09055339732438" fill="#3cffa8" stroke="none" /><path d="M 83.95833913139862 113.55231037782056 l -39.45601215492921 33.33321452027939 a72.65152548981382,72.65152548981382 0 0,0 -0.7988346594968992,-0.9622478080240088 l 40.023942814319646 -32.64910545514162" fill="#3bff97" stroke="none" /><path d="M 83.50135304334701 112.99209946851258 l -38.857135994986116 30.598616797773712 a70.45859245540501,70.45859245540501 0 0,0 -0.7421409675974298,-0.9593172422288687 l 39.378083779801614 -29.92522156143159" fill="#37ff77" stroke="none" /><path d="M 83.06392112726016 112.41649034213515 l -35.2710887559836 25.858590774525222 a64.7346135100887,64.7346135100887 0 0,0 -0.6511075479088448,-0.9043314365699412 l 35.710976096268055 -25.247625732504144" fill="#3dff2e" stroke="none" /><path d="M 82.85270091963577 112.12312394758628 l -32.35338818393394 22.87381430976203 a60.622633784969295,60.622633784969295 0 0,0 -0.5950807016131308,-0.8572581338896881 l 32.7423297927092 -22.313514913685328" fill="#74ff27" stroke="none" /><path d="M 82.6465618267979 111.8261652097733 l -38.49235829277411 26.232092104209002 a67.58094356175066,67.58094356175066 0 0,0 -0.6468361804440275,-0.9669323258783745 l 38.938197578628866 -25.565622864124805" fill="#32ff4b" stroke="none" /><path d="M 82.24976979558568 111.22182372390057 l -52.172077345923356 32.983564074569465 a82.72391071254509,82.72391071254509 0 0,0 -0.7505633397947915,-1.2101470883193417 l 52.73210532538611 -32.08062065488486" fill="#4be1ff" stroke="none" /><line stroke="#e1ed5e" stroke-width="0.3" x1="26.63291911575756" x2="22.317208475507996" y1="142.92168965132927" y2="145.44649492493687" /><path d="M 25.769776987707644 143.4266507060508 a86.0,86.0 0 0,1 -11.730757126820373,-40.83630448921669" fill="none" id="id69" stroke="none" /><text fill="#e1ed5e" style="font-size:6.75px; font-family:Arial;" text-anchor="middle"><textPath startOffset="21.46611528233685" xlink:href="#id69">September</textPath></text><path d="M 81.87401531095188 110.60418214915194 l -37.06754151304749 21.685495644443712 a63.944887415927475,63.944887415927475 0 0,0 -0.5476362075245491,-0.9548498882123653 l 37.43532971672441 -21.044225910373036" fill="#47ff2c" stroke="none" /><path d="M 81.18737489456691 109.33194174019688 l -44.38946994245901 22.019252765613 a70.5507066965591,70.5507066965591 0 0,0 -0.5302952045515235,-1.0925651896273791 l 44.76191840362525 -21.251898620020338" fill="#37ff78" stroke="none" /><path d="M 80.73074385275274 108.34839909993369 l -57.807768441741786 25.045197299801064 a84.0,84.0 0 0,0 -0.5633960752307643,-1.33170189733536 l 58.23031549816486 -24.046420876799544" fill="#4dd2ff" stroke="none" /><path d="M 80.45479744820244 107.68017299344265 l -43.01621116444259 16.902968510551155 a67.21801345160347,67.21801345160347 0 0,0 -0.41388922160251346,-1.0805341535977675 l 43.30079466563861 -16.16001079012023" fill="#32ff46" stroke="none" /><path d="M 80.32549172779594 107.34259656027581 l -48.83550866052906 18.225585765552147 a73.12560678428699,73.12560678428699 0 0,0 -0.4299637303395815,-1.1830755238202824 l 49.14199665187387 -17.382262444725747" fill="#3bff9e" stroke="none" /><path d="M 80.0844068197444 106.66101706037122 l -58.45621648917953 19.55140636760994 a82.6391656106833,82.6391656106833 0 0,0 -0.439592150869753,-1.3529255258033002 l 58.784100891065535 -18.542281941828836" fill="#4be2ff" stroke="none" /><path d="M 79.86692584326677 105.97154293290107 l -41.38456521198699 12.274812380809493 a64.16657568963836,64.16657568963836 0 0,0 -0.30496651045862017,-1.0616284307539703 l 41.58972435933172 -11.560626474550928" fill="#44ff2d" stroke="none" /><path d="M 79.67330655649465 105.27499134158121 l -42.62839887887015 11.062519126216147 a65.04043279072035,65.04043279072035 0 0,0 -0.27189591011322695,-1.086089004440506 l 42.81250610327844 -10.327102282378249" fill="#39ff2e" stroke="none" /><path d="M 79.58551787078972 104.9243191809786 l -47.07310145242087 11.354830111444755 a69.42322838483284,69.42322838483284 0 0,0 -0.2702197809261931,-1.1640997439213219 l 47.26158179927762 -10.54286171017486" fill="#35ff68" stroke="none" /><path d="M 79.50377843672027 104.57218783832718 l -53.098779434664536 11.844992639821074 a75.4038990154986,75.4038990154986 0 0,0 -0.2716908810920427,-1.2692493459103735 l 53.29480435448102 -10.929229474494537" fill="#3fffbe" stroke="none" /><path d="M 79.35854240842038 103.8639653848113 l -60.71956676968596 11.366363210440808 a82.77426649770933,82.77426649770933 0 0,0 -0.2501105567639885,-1.4027528270641283 l 60.90622376878914 -10.319491632643466" fill="#4be1ff" stroke="none" /><path d="M 79.23777060512086 103.15116336523772 l -48.9186376880067 7.424569685074584 a70.47885758845891,70.47885758845891 0 0,0 -0.1717198872275939,-1.201008491318027 l 49.03919162625089 -6.581415721776157" fill="#37ff77" stroke="none" /><path d="M 79.1416061653843 102.43462659150553 l -43.33845205391698 5.058536560473274 a64.63267374987815,64.63267374987815 0 0,0 -0.11947103060969755,-1.1061533653393858 l 43.41910538602773 -4.3117868732491065" fill="#3eff2d" stroke="none" /><path d="M 79.07016306316243 101.71520430193888 l -43.564010142028216 3.5700793002263076 a64.71004971244761,64.71004971244761 0 0,0 -0.08142200963832395,-1.1109386314270198 l 43.619008710330874 -2.819667532302527" fill="#3dff2e" stroke="none" /><path d="M 79.0235259727143 100.99374915477108 l -43.561710094211584 2.063712544357821 a64.61056633200118,64.61056633200118 0 0,0 -0.043067148758286995,-1.1113717448776301 l 43.59077937582107 -1.3135635524661937" fill="#3fff2d" stroke="none" /><line stroke="#e1ed5e" stroke-width="0.3" x1="15.007084014347285" x2="10.007500721073583" y1="101.09737516637583" y2="101.16192664675087" /><path d="M 14.007167355692545 101.11028546245083 a86.0,86.0 0 0,1 10.666146001902526,-42.60595125391555" fill="none" id="id70" stroke="none" /><text fill="#e1ed5e" style="font-size:6.75px; font-family:Arial;" text-anchor="middle"><textPath startOffset="22.20632615414155" xlink:href="#id70">October</textPath></text><path d="M 79.00175016825051 100.2711162175752 l -56.51720185488026 0.7297146246760713 a77.52191246710206,77.52191246710206 0 0,0 -0.00574290711180861,-1.3344493613515107 l 56.521389059281574 0.24324421487911477" fill="#42ffdb" stroke="none" /><path d="M 79.00019446554 99.90962569577889 l -46.82430564390022 -0.2015120585883737 a67.82473925333854,67.82473925333854 0 0,0 0.015073217873244267,-1.1674373355516445 l 46.81389941890926 1.0074856522004902" fill="#33ff4f" stroke="none" /><path d="M 79.01574976396665 99.18683210126434 l -43.15383754310494 -1.6722692020250953 a64.18622672775123,64.18622672775123 0 0,0 0.05228546382944679,-1.103663503769921 l 43.118658471042 2.414843812418025" fill="#44ff2d" stroke="none" /><path d="M 79.05617556472873 98.46500227214037 l -62.48421289676421 -4.579542056421386 a83.65180816843747,83.65180816843747 0 0,0 0.11761251502883462,-1.435170584928225 l 62.39612589791589 5.65442655855739" fill="#4cd6ff" stroke="none" /><path d="M 79.08570108090925 98.10471618934814 l -15.690311105447122 -1.4218785309174382 a36.7546057120577,36.7546057120577 0 0,0 0.06252286478338463,-0.6295967159018029 l 15.663511114981508 1.6917507775236718" fill="#ff0000" stroke="none" /><path d="M 79.12142395522702 97.74499172005258 l -43.10503013949755 -4.65559526969202 a64.3557169314748,64.3557169314748 0 0,0 0.12843454184757452,-1.1003487208970828 l 43.01850524464639 5.396887728913964" fill="#42ff2d" stroke="none" /><path d="M 79.16333360222342 97.38593545837743 l -46.069972989652676 -5.779709696682142 a67.43110439613997,67.43110439613997 0 0,0 0.15439796606263323,-1.1504441847361917 l 45.963659024532205 6.571872223482994" fill="#32ff49" stroke="none" /><path d="M 79.21141760316559 97.0276538004421 l -56.621581626578255 -8.095739273994228 a78.19741690223219,78.19741690223219 0 0,0 0.2019880483436187,-1.330848867119212 l 56.473837684795335 9.069187253505532" fill="#44ffe4" stroke="none" /><path d="M 79.32604984820605 96.31383870115002 l -42.59248862737653 -7.594232454232739 a64.26421678526171,64.26421678526171 0 0,0 0.20354704085578107,-1.0873564313572017 l 42.45545586261089 8.326266963052513" fill="#43ff2d" stroke="none" /><path d="M 79.46518482838121 95.60439243477599 l -61.098230995224625 -13.07846426373469 a83.48231796471393,83.48231796471393 0 0,0 0.31288223856683905,-1.4025897254534616 l 60.864054369655754 14.12823215873811" fill="#4cd8ff" stroke="none" /><path d="M 79.62865764111835 94.90015583598534 l -51.11024642845217 -12.795145620624776 a73.68750365532705,73.68750365532705 0 0,0 0.3186236012963729,-1.2277867105419094 l 50.882426495285486 13.67302875671555" fill="#3cffa6" stroke="none" /><path d="M 79.71946130924805 94.55025226153421 l -49.266941923876715 -13.238918818917101 a72.01470903596842,72.01470903596842 0 0,0 0.3319988832617135,-1.1943766259429305 l 49.03175627004864 14.085006748278975" fill="#39ff8e" stroke="none" /><path d="M 79.91906864156998 93.8553929516997 l -40.9908201620589 -12.54286855463309 a63.866897358417,63.866897358417 0 0,0 0.3307226122127065,-1.0484810588178823 l 40.768842066077994 13.246599779877386" fill="#48ff2c" stroke="none" /><path d="M 80.95270993114464 91.15688171328213 l -39.63837794375938 -18.402978249564597 a64.70206647821425,64.70206647821425 0 0,0 0.4776916785215905,-1.0061405015329248 l 39.31572807139604 19.082561166738053" fill="#3dff2e" stroke="none" /><path d="M 81.26839172434947 90.50648371742162 l -38.544314636885666 -19.534952536978047 a64.21201871527438,64.21201871527438 0 0,0 0.5081634184868961,-0.9816099793491868 l 38.20234178523865 20.195535238587567" fill="#44ff2d" stroke="none" /><path d="M 81.43458229118936 90.18545643968196 l -38.40810141029879 -20.304309349398395 a64.44476069792378,64.44476069792378 0 0,0 0.5268877837922432,-0.9762430429808392 l 38.052905527288075 20.962433375711704" fill="#41ff2d" stroke="none" /><path d="M 81.6062741919709 89.86733742301443 l -54.45181124232437 -29.99619738722752 a83.16728725996686,83.16728725996686 0 0,0 0.7015452110733669,-1.247970649981246 l 53.92740838995857 30.929051547143555" fill="#4cdcff" stroke="none" /><line stroke="#e1ed5e" stroke-width="0.3" x1="26.266209847984243" x2="21.928928074336255" y1="57.71137044288968" y2="55.22380399835378" /><path d="M 25.398753493254645 57.2138571539825 a86.0,86.0 0 0,1 29.58750427330803,-30.4925239686951" fill="none" id="id71" stroke="none" /><text fill="#e1ed5e" style="font-size:6.75px; font-family:Arial;" text-anchor="middle"><textPath startOffset="21.46611528233685" xlink:href="#id71">November</textPath></text><path d="M 82.7489923806493 88.02491185347247 l -24.480657893123627 -16.993676115840362 a50.80079929817721,50.80079929817721 0 0,0 0.5048326532097897,-0.7140499864183575 l 24.18451262010996 17.412552602590505" fill="#fff717" stroke="none" /><path d="M 85.31137513191541 84.99185889309783 l -30.410994463214415 -31.07251360859755 a64.47792182473925,64.47792182473925 0 0,0 0.7998847167805969,-0.7694884637951027 l 29.871626502821393 31.591385159154964" fill="#40ff2d" stroke="none" /><path d="M 85.83668400450813 84.49514656593477 l -29.35778324520276 -32.13852790623389 a64.52889170484453,64.52889170484453 0 0,0 0.8265506119625068,-0.7420853004637936 l 28.80022164564428 32.639112215466966" fill="#40ff2d" stroke="none" /><path d="M 87.80319425747018 82.90503203632743 l -17.251959072994474 -24.18023980123332 a50.70377229749488,50.70377229749488 0 0,0 0.7148480039489945,-0.5007967096926739 l 16.833179929461817 24.473621353689936" fill="#fff617" stroke="none" /><path d="M 88.39885842347998 82.49532879139004 l -16.426375137979324 -24.78534496308298 a50.73447704454625,50.73447704454625 0 0,0 0.7321056892422639,-0.4761819051277829 l 15.99730242295277 25.064425792370297" fill="#fff617" stroke="none" /><line stroke="#e1ed5e" stroke-width="0.3" x1="56.76296977257108" x2="54.21961505331056" y1="26.818313649435495" y2="22.513508569990535" /><path d="M 56.25429882871898 25.957352633546506 a86.0,86.0 0 0,1 42.26535254187918,-11.944610805530505" fill="none" id="id72" stroke="none" /><text fill="#e1ed5e" style="font-size:6.75px; font-family:Arial;" text-anchor="middle"><textPath startOffset="22.20632615414155" xlink:href="#id72">December</textPath></text><path d="M 89.3179101791058 81.91981866633112 l -26.69876885900132 -45.18952662355042 a73.4873087045521,73.4873087045521 0 0,0 1.0946223945292117,-0.6340759438980494 l 25.916949732006785 45.64240672483852" fill="#3cffa3" stroke="none" /><path d="M 91.56875222667455 80.76684994638697 l -13.261278603680353 -30.251294724642275 a54.030324593040255,54.030324593040255 0 0,0 0.8550073540061442,-0.36606952797245956 l 12.7385874918839 30.47508378057752" fill="#d4ff1c" stroke="none" /><path d="M 92.91201910852362 80.23233633223022 l -17.097378919273915 -47.6828650149233 a71.65546349546739,71.65546349546739 0 0,0 1.1646332951518696,-0.4063176885042915 l 16.27406362005876 47.9701035565998" fill="#39ff89" stroke="none" /></svg>