<?xml version="1.0" encoding="utf-8" ?>
<svg baseProfile="full" height="200mm" version="1.1" viewBox="0,0,200,200" width="200mm" xmlns="http://www.w3.org/2000/svg" xmlns:ev="http://www.w3.org/2001/xml-events" xmlns:xlink="http://www.w3.org/1999/xlink"><defs /><rect fill="#1a1a1a" height="200" width="200" x="0" y="0" /><text alignment-baseline="middle" fill="#e1ed5e" style="dominant-baseline: central; font-size:9.0px; font-family:Arial;" text-anchor="middle" x="100.0" y="100.0">2024</text><line stroke="#e1ed5e" stroke-width="0.3" x1="100.0" x2="100.0" y1="15.0" y2="10.0" /><path d="M 100.0 14.0 a86.0,86.0 0 0,1 42.35913384403234,11.155469271406648" fill="none" id="id145" stroke="none" /><text fill="#e1ed5e" style="font-size:6.75px; font-family:Arial;" text-anchor="middle"><textPath startOffset="22.145653131862478" xlink:href="#id145">January</textPath></text><path d="M 100.0 79.0 l 0.0 -7.184740882917467 a28.184740882917467,28.184740882917467 0 0,0 0.4838285560471434,0.004153086252319791 l -0.12333563119828861 7.183682194859582" fill="#ff3e05" stroke="none" /><path d="M 100.36049292484886 79.00309439819443 l 0.1936728600290922 -11.280473150388572 a32.282135598961275,32.282135598961275 0 0,0 0.5540024696775522,0.014269138436844268 l -0.3872886437773858 11.27548629460168" fill="#ff780b" stroke="none" /><path d="M 100.72087961077811 79.0123766808444 l 0.337691035917172 -9.831506057488609 a30.837303827481087,30.837303827481087 0 0,0 0.528895354818282,0.02271304223254409 l -0.5064121513362901 9.824260446830234" fill="#ff6409" stroke="none" /><path d="M 101.08105385017728 79.02784411241856 l 0.7213535344414258 -13.994065857017763 a35.01264536524783,35.01264536524783 0 0,0 0.5999761038794094,0.036093072537289946 l -0.9614739904532975 13.979620806655781" fill="#ff9e0e" stroke="none" /><path d="M 101.44090949804482 79.04949213459386 l 0.5955119360497962 -8.658612853259473 a29.679067404312974,29.679067404312974 0 0,0 0.5079798586317055,0.03932085374725256 l -0.7440607894567351 8.647114232517168" fill="#ff5307" stroke="none" /><path d="M 101.80034050326958 79.07731436759882 l 0.7788195368948176 -9.051063565602929 a30.084509427571412,30.084509427571412 0 0,0 0.514159217566813,0.048691412472900146 l -0.9340783178466436 9.036360397624845" fill="#ff5908" stroke="none" /><path d="M 102.15924093988457 79.11130261209362 l 0.8436629984857215 -8.161674200973636 a29.205162583267473,29.205162583267473 0 0,0 0.4982457734045938,0.05582947815121634 l -0.983644673491112 8.145988962315448" fill="#ff4d07" stroke="none" /><path d="M 102.51750503828377 79.15144685158666 l 1.176571911239233 -9.743703250391043 a30.8144828948854,30.8144828948854 0 0,0 0.524612430566113,0.06792158224354354 l -1.3436621636961377 9.722070071947103" fill="#ff6409" stroke="none" /><path d="M 102.87502721639298 79.19773525538626 l 1.494400648918277 -10.812738660722083 a31.9155187986903,31.9155187986903 0 0,0 0.5420697284285192,0.07966558288269938 l -1.6797954829544783 10.785492004540501" fill="#ff730a" stroke="none" /><path d="M 103.23170211078529 79.25015418208739 l 1.8008885322958887 -11.562996247604717 a32.70239640961951,32.70239640961951 0 0,0 0.5539513384275311,0.0911524819350437 l -1.9991173737764905 11.530377767174006" fill="#ff7e0b" stroke="none" /><path d="M 103.58742460773223 79.30868818359171 l 1.2429107865984315 -7.168779126411414 a28.27572823755222,28.27572823755222 0 0,0 0.47754374711473585,0.08702437854349711 l -1.365789267264221 7.14638657393655" fill="#ff3f05" stroke="none" /><path d="M 103.94208987418118 79.37332000966035 l 1.8103703921454135 -9.47262288141657 a30.64406683978774,30.64406683978774 0 0,0 0.5158469202613918,0.1031838311878601 l -1.9727137979377622 9.44014965356585" fill="#ff6109" stroke="none" /><path d="M 104.29559338865022 79.4440306129975 l 3.219451943438379 -15.406243004075428 a36.73903409732415,36.73903409732415 0 0,0 0.6162318374375567,0.1343048608203411 l -3.4834461974950695 15.348706685121368" fill="#ffb510" stroke="none" /><path d="M 104.64783097203109 79.52079915486377 l 2.1007597763106505 -9.256335190616644 a30.491729705317827,30.491729705317827 0 0,0 0.5094555966881161,0.12023013364272361 l -2.2593475267386514 9.218908913327693" fill="#ff5f08" stroke="none" /><path d="M 104.9986988182912 79.60360301121754 l 1.201490905136014 -4.902492902731656 a26.047575364118778,26.047575364118778 0 0,0 0.4333754741207486,0.11016235081988583 l -1.285471672482157 4.881145320076502" fill="#ff1f03" stroke="none" /><path d="M 105.3480935250658 79.69241777938227 l 2.856100527668653 -10.845078909734886 a32.2148583041662,32.2148583041662 0 0,0 0.5335679468782126,0.1454263165929256 l -3.041849875481558 10.794452098997818" fill="#ff770b" stroke="none" /><path d="M 105.69591212413111 79.78721728523813 l 2.534365777597966 -8.99357006673108 a30.343838207067854,30.343838207067854 0 0,0 0.5001531324423364,0.14558728754411074 l -2.688378922421907 8.948739084884453" fill="#ff5d08" stroke="none" /><path d="M 106.04205211174951 79.88797359093562 l 2.120465590251707 -7.058340305890877 a28.369975725414925,28.369975725414925 0 0,0 0.46521270886909993,0.14412408639189847 l -2.241318931992437 7.020899631692332" fill="#ff4106" stroke="none" /><path d="M 106.38641147887787 79.99465700312896 l 4.2152154458716495 -13.204102347502928 a34.86060460652591,34.86060460652591 0 0,0 0.5685221156946426,0.18688451171291096 l -4.441260299214035 13.129796914387995" fill="#ff9c0e" stroke="none" /><path d="M 106.72888874123014 80.10723608172694 l 3.154855098684744 -9.326768518247558 a30.84589872417297,30.84589872417297 0 0,0 0.5001357367459442,0.1739731711295982 l -3.3144966074757067 9.27123691454937" fill="#ff6409" stroke="none" /><path d="M 107.06938296918511 80.22567764915836 l 1.4976643862261174 -4.189233837762278 a25.448896353166987,25.448896353166987 0 0,0 0.4101039335400711,0.15059584492729025 l -1.5693574714203131 4.162907143826265" fill="#ff1602" stroke="none" /><path d="M 107.40779381753099 80.34994680014964 l 1.5300477379412611 -4.058633405495794 a25.337459071920513,25.337459071920513 0 0,0 0.40567412085308197,0.15692346481865999 l -1.599494121287869 4.031770052539096" fill="#ff1402" stroke="none" /><path d="M 107.74402155503746 80.48000691201159 l 3.4676289361271984 -8.740690141917359 a30.403409732415042,30.403409732415042 0 0,0 0.4834801449875796,0.19662716595729005 l -3.6171635423052177 8.679875719380775" fill="#ff5e08" stroke="none" /><path d="M 108.07796709384702 80.6158196554323 l 3.748839786990117 -8.995850771570787 a30.745723721350345,30.745723721350345 0 0,0 0.48543826545239305,0.20720472957806454 l -3.90271312761294 8.930171392333321" fill="#ff6309" stroke="none" /><path d="M 108.4095320186766 80.7573450057729 l 1.6390374446472247 -3.7504384310471406 a25.092949079823867,25.092949079823867 0 0,0 0.39322634404743556,0.1758851420552447 l -1.703177191550292 3.7217495380820433" fill="#ff1001" stroke="none" /><path d="M 108.73861861582097 80.90454125486305 l 3.6432699069940018 -7.9612022523158315 a29.755235971547926,29.755235971547926 0 0,0 0.46263906505366525,0.21653844246095094 l -3.779397685919172 7.8974875782843466" fill="#ff5507" stroke="none" /><path d="M 109.06512990194946 81.05736502329252 l 1.4165225002030095 -2.9599872200251975 a24.281472281811,24.281472281811 0 0,0 0.3744431395853191,0.18315890315618813 l -1.4671258890503958 2.935234566771788" fill="#ff0400" stroke="none" /><path d="M 109.3889696526874 81.21577127319529 l 4.33790645139476 -8.678718751120662 a30.702452862142938,30.702452862142938 0 0,0 0.46941532574552935,0.23968681004228456 l -4.486248998853868 8.602973989405545" fill="#ff6209" stroke="none" /><path d="M 109.71004243097381 81.37971332152246 l 2.9834782342318347 -5.7212129004902135 a27.45239640961951,27.45239640961951 0 0,0 0.415983789095325,0.22148793731315933 l -3.081250839113719 5.669154495454481" fill="#ff3304" stroke="none" /><line stroke="#e1ed5e" stroke-width="0.3" x1="143.13028292997686" x2="145.6673583964461" y1="26.7553504044142" y2="22.446841604673864" /><path d="M 143.63769802327073 25.89364864446614 a86.0,86.0 0 0,1 29.32050498858742,28.57503671076993" fill="none" id="id146" stroke="none" /><text fill="#e1ed5e" style="font-size:6.75px; font-family:Arial;" text-anchor="middle"><textPath startOffset="20.669276256404974" xlink:href="#id146">February</textPath></text><path d="M 110.65571695917076 81.90426304109057 l 2.2759345780186617 -3.8650344802999816 a25.48535057017049,25.48535057017049 0 0,0 0.37508033566142923,0.2252249646313107 l -2.3419476702375253 3.8253955151327497" fill="#ff1602" stroke="none" /><path d="M 110.96478420261332 82.08984904055464 l 3.2973583294186057 -5.385987025006516 a27.315174438297394,27.315174438297394 0 0,0 0.39780762721893603,0.2482613811095153 l -3.3893300854272543 5.328589847055455" fill="#ff3104" stroke="none" /><path d="M 111.27062007382361 82.28071324371311 l 2.134476272590029 -3.3557512275970143 a24.97706616235746,24.97706616235746 0 0,0 0.3598057799133554,0.23322175948972956 l -2.1917676847603915 3.31861562640339" fill="#ff0f01" stroke="none" /><path d="M 111.5731344415666 82.4767994020092 l 1.8409280553643597 -2.787399711244695 a24.340451055662186,24.340451055662186 0 0,0 0.34668186953056335,0.23326303374041718 l -1.8885062129919241 2.755387003447159" fill="#ff0500" stroke="none" /><path d="M 111.8722381534696 82.67804972795209 l 4.493977920207296 -6.556848089739713 a28.949093936998985,28.949093936998985 0 0,0 0.40749972732613426,0.28446645769733886 l -4.605872738707191 6.478736816237247" fill="#ff4906" stroke="none" /><path d="M 112.16784306229584 82.88440491214696 l 2.7388637377294276 -3.8525548444192177 a25.726896804787174,25.726896804787174 0 0,0 0.3577496386260545,0.25898314949983414 l -2.80459438672945 3.804970923546309" fill="#ff1a02" stroke="none" /><path d="M 112.45986205192187 83.09580414077388 l 4.76213057790584 -6.460744722588099 a29.026151631477926,29.026151631477926 0 0,0 0.3985525745885497,0.29908128213339974 l -4.872336141405156 6.378044413190684" fill="#ff4a06" stroke="none" /><path d="M 114.13192950727249 84.46653392183569 l 3.7200625094508086 -4.089000356919959 a26.528000451620187,26.528000451620187 0 0,0 0.3342151974318283,0.30934459719972035 l -3.789707478196602 4.024538013587863" fill="#ff2603" stroke="none" /><path d="M 117.81537515405839 88.88188828441811 l 4.152881215699199 -2.5917050243630206 a25.895238229648868,25.895238229648868 0 0,0 0.23211016204186144,0.37913450593950104 l -4.196759342196462 2.520033402298965" fill="#ff1c02" stroke="none" /><line stroke="#e1ed5e" stroke-width="0.3" x1="172.87174338648825" x2="177.1583165268699" y1="56.24261187166439" y2="53.66864786411523" /><path d="M 173.72905801456457 55.72781907015455 a86.0,86.0 0 0,1 12.242430191666344,42.057860355516425" fill="none" id="id147" stroke="none" /><text fill="#e1ed5e" style="font-size:6.75px; font-family:Arial;" text-anchor="middle"><textPath startOffset="22.145653131862474" xlink:href="#id147">March</textPath></text><path d="M 118.00360718960297 89.18935116829356 l 3.72237842000231 -2.2351812885923485 a25.341904708140454,25.341904708140454 0 0,0 0.22074764792881454,0.37487776622856445 l -3.760199778060892 2.1709523540702276" fill="#ff1402" stroke="none" /><path d="M 118.18653347947321 89.5 l 2.9742795241071396 -1.7172010838884497 a24.4344021677769,24.4344021677769 0 0,0 0.2066064081260257,0.3650537265150207 l -3.0033192972545413 1.6658905872743108" fill="#ff0601" stroke="none" /><path d="M 118.36410011445183 89.81374322990088 l 5.454336780352248 -3.0254286683800387 a27.23722761657446,27.23722761657446 0 0,0 0.2232864475132737,0.41082191414771485 l -5.505468577480864 2.9313519207577206" fill="#ff3004" stroke="none" /><path d="M 118.53625476483649 90.13048839642627 l 2.768822970969705 -1.4742422774673178 a24.13684091678898,24.13684091678898 0 0,0 0.191591267679244,0.36740151803050786 l -2.7937223076238937 1.426494516332312" fill="#ff0200" stroke="none" /><path d="M 118.70294669586156 90.45014215332178 l 5.641291870610153 -2.8804838249295326 a27.33414248616913,27.33414248616913 0 0,0 0.20979616467635656,0.4197328662319299 l -5.689907948498247 2.783219102533852" fill="#ff3104" stroke="none" /><path d="M 118.8641267826498 90.77261029715802 l 3.1497894880536577 -1.5407198765711216 a24.506421474539913,24.506421474539913 0 0,0 0.18160511879119282,0.37948485155445955 l -3.1757738648047624 1.4864225229515586" fill="#ff0701" stroke="none" /><path d="M 119.0197475246899 91.09779779509293 l 5.841265748627877 -2.7340073131560185 a27.44943265213955,27.44943265213955 0 0,0 0.19608768232075904,0.42848697406320696 l -5.887337895803687 2.633331356878127" fill="#ff3304" stroke="none" /><path d="M 119.16976305983485 91.42560881287824 l 3.732985078181117 -1.6697167438171225 a25.089392570847917,25.089392570847917 0 0,0 0.17247896228597992,0.3946656196397658 l -3.7610979224840673 1.6053890544015075" fill="#ff1001" stroke="none" /><path d="M 119.4528033332814 92.08871423366111 l 2.8365468561513976 -1.1535989124112764 a24.062154228294006,24.062154228294006 0 0,0 0.1523264126799465,0.38396206693102997 l -2.8559319437974686 1.1047358282666813" fill="#ff0100" stroke="none" /><path d="M 119.58574465831526 92.42381321644754 l 5.907566541118803 -2.285173647088221 a27.33414248616913,27.33414248616913 0 0,0 0.16552686707070355,0.43907968067987496 l -5.945924092003947 2.1834256862141888" fill="#ff3104" stroke="none" /><path d="M 119.83427380445688 93.10060997987247 l 7.860817389871828 -2.7344003407646666 a29.322823755221858,29.322823755221858 0 0,0 0.16129588687582355,0.4768426291475019 l -7.906598698320017 2.599056037143003" fill="#ff4e07" stroke="none" /><path d="M 119.94978838288452 93.4421083053983 l 6.941713229366857 -2.2818790184374604 a28.30714406683979,28.30714406683979 0 0,0 0.14778389453819565,0.4629309447767576 l -6.97986183968231 2.1623790399693155" fill="#ff4006" stroke="none" /><path d="M 120.05942366710727 93.78553927170692 l 3.7346719687320626 -1.157010922542089 a24.90978886756238,24.90978886756238 0 0,0 0.12303499853696412,0.4095434951649384 l -3.753983287272654 1.0927298237864271" fill="#ff0e01" stroke="none" /><path d="M 120.16314734710363 94.1308016681162 l 2.9941943714889985 -0.8715663436841105 a24.118465620413232,24.118465620413232 0 0,0 0.11230190177196937,0.39851983132861857 l -3.0087147653355495 0.8200385884524788" fill="#ff0200" stroke="none" /><path d="M 120.26092885502905 94.47779374421319 l 5.8247025061666164 -1.5875485693572506 a27.037173986677203,27.037173986677203 0 0,0 0.11820461815665118,0.44884218849620466 l -5.851096605127998 1.4873258764882473" fill="#ff2d04" stroke="none" /><path d="M 120.35273937422433 94.82641323984039 l 3.3179193365652186 -0.8434021207322407 a24.42343626510105,24.42343626510105 0 0,0 0.09980168937523978,0.40722495006097886 l -3.3319085524567496 0.786321346063167" fill="#ff0601" stroke="none" /><path d="M 120.43855184770803 95.1765574152323 l 7.108898474183761 -1.6776806833803788 a28.30418030935983,28.30418030935983 0 0,0 0.1075412457714421,0.4738465715604755 l -7.1366505815128685 1.555399777880877" fill="#ff4006" stroke="none" /><path d="M 120.51834098615036 95.52812308129327 l 6.006137947297967 -1.3090098110378279 a27.147129389183696,27.147129389183696 0 0,0 0.09532816503359594,0.4561797788699731 l -6.02772382315593 1.2057135808824504" fill="#ff2f04" stroke="none" /><path d="M 120.592083275326 95.88100663000786 l 7.719706278120196 -1.5441574586076143 a28.872628994016033,28.872628994016033 0 0,0 0.09304370740889348,0.48684399369170617 l -7.745076277811246 1.4114108998825938" fill="#ff4806" stroke="none" /><path d="M 120.65975698304385 96.23510406497455 l 3.0236208636412547 -0.5510044434658172 a24.07341650671785,24.07341650671785 0 0,0 0.07059836900722276,0.4071926316471709 l -3.032634050140712 0.4990187788980536" fill="#ff0100" stroke="none" /><path d="M 120.7213421655516 96.59031103205396 l 5.955309527200138 -0.9799439164397262 a27.03539573218923,27.03539573218923 0 0,0 0.07142301974635104,0.45858702218886094 l -5.971254039084755 0.8775687123194241" fill="#ff2d04" stroke="none" /><path d="M 120.77682067341334 96.94652285012252 l 7.636484430361634 -1.1223002344792166 a28.71851360505815,28.71851360505815 0 0,0 0.06749600584730243,0.4883674752133892 l -7.654624952764149 0.9910444510657418" fill="#ff4606" stroke="none" /><path d="M 120.82617615685814 97.30363454192243 l 3.373349098908501 -0.4367475776554742 a24.40150445974935,24.40150445974935 0 0,0 0.05021819594647048,0.41587870184408715 l -3.3803493811146352 0.37877519888797406" fill="#ff0601" stroke="none" /><path d="M 120.86939407059847 97.66154086499901 l 6.07060913950978 -0.6802244161610205 a27.108600541944224,27.108600541944224 0 0,0 0.04785004596476586,0.4629057886466511 l -6.081391577956212 0.5759141052314379" fill="#ff2e04" stroke="none" /><path d="M 120.9064616781168 98.02013634271609 l 6.793065756114983 -0.6433103898279269 a27.823458846110423,27.823458846110423 0 0,0 0.040948681759608106,0.4758857527015387 l -6.803108060572332 0.5266035897507262" fill="#ff3905" stroke="none" /><path d="M 120.93736805541906 98.37931529534042 l 6.065264998102231 -0.4694898702698781 a27.08340860336457,27.08340860336457 0 0,0 0.03190172604739092,0.46384409526262615 l -6.072430685314688 0.3653023508529178" fill="#ff2e04" stroke="none" /><path d="M 120.96210409425399 98.7389718711861 l 6.1457992330082485 -0.36971602049198643 a27.156909788867562,27.156909788867562 0 0,0 0.023999480045363075,0.46558350136742366 l -6.1512403025101845 0.2641607257478321" fill="#ff2f04" stroke="none" /><path d="M 120.98066250479742 99.09900007780936 l 6.049084824298669 -0.25977372996545983 a27.054660155808964,27.054660155808964 0 0,0 0.01594332798200178,0.4641725984992705 l -6.052652839277519 0.15589486690206938" fill="#ff2d04" stroke="none" /><path d="M 120.99303781780057 99.45929381324524 l 10.354009436302874 -0.26668255487917264 a31.357443265213952,31.357443265213952 0 0,0 0.009240842025605992,0.5382327205843523 l -10.357061709927146 0.08890291832575394" fill="#ff6b09" stroke="none" /><line stroke="#e1ed5e" stroke-width="0.3" x1="184.99686870605535" x2="189.99668451229388" y1="99.2704041080226" y2="99.22748670261217" /><path d="M 185.99683186730306 99.26182062694052 a86.0,86.0 0 0,1 -10.086455211305974,41.156179273409016" fill="none" id="id148" stroke="none" /><text fill="#e1ed5e" style="font-size:6.75px; font-family:Arial;" text-anchor="middle"><textPath startOffset="21.40746469413373" xlink:href="#id148">April</textPath></text><path d="M 120.99922638620191 99.81974689727618 l 7.64502715166626 -0.06562336341119837 a28.64530879530315,28.64530879530315 0 0,0 0.0,0.49175293227004957 l -7.64502715166626 -0.06562336341119744" fill="#ff4506" stroke="none" /><path d="M 120.99922638620191 100.18025310272382 l 9.115885802376434 0.07824891592359366 a30.11622163260698,30.11622163260698 0 0,0 -0.008875061788716759,0.5169278555634363 l -9.11319930898905 -0.23472368745610112" fill="#ff5a08" stroke="none" /><path d="M 120.99303781780057 100.54070618675476 l 6.17975588240494 0.15916859042749623 a27.18180535169922,27.18180535169922 0 0,0 -0.01601825472467094,0.46635400885975997 l -6.176112940683423 -0.2652288638513669" fill="#ff2f04" stroke="none" /><path d="M 120.98066250479742 100.90099992219065 l 9.30562380798053 0.3996235259496071 a30.31420063226826,30.31420063226826 0 0,0 -0.026789684791878984,0.5197127280406438 l -9.29739253373208 -0.5593080473669816" fill="#ff5c08" stroke="none" /><path d="M 120.96210409425399 101.26102812881392 l 6.022729411070661 0.3623124456135492 a27.033617477701252,27.033617477701252 0 0,0 -0.031843076751293636,0.4629913473691108 l -6.015622373154302 -0.46564721713700347" fill="#ff2d04" stroke="none" /><path d="M 120.93736805541906 101.62068470465957 l 6.377599846732948 0.49366656289753175 a27.396677768996277,27.396677768996277 0 0,0 -0.04032057428366742,0.46858619173593785 l -6.36818564975154 -0.603073802009127" fill="#ff3204" stroke="none" /><path d="M 120.9064616781168 101.97986365728391 l 12.079577468416248 1.1439485453483595 a33.133623122953594,33.133623122953594 0 0,0 -0.05848495893247799,0.5657889243939455 l -12.058160117002105 -1.3511419920252363" fill="#ff840c" stroke="none" /><path d="M 120.86939407059847 102.33845913500097 l 9.05245606243429 1.0143465834122047 a30.109108614655078,30.109108614655078 0 0,0 -0.06196442185269434,0.5131543026373773 l -9.033709554321932 -1.1695945629729905" fill="#ff5a08" stroke="none" /><path d="M 120.82617615685814 102.69636545807757 l 6.2473237864686055 0.8088411399378852 a27.299466523653606,27.299466523653606 0 0,0 -0.06416087466951327,0.46423612740462294 l -6.232518395243882 -0.9159655755425933" fill="#ff3104" stroke="none" /><path d="M 120.77682067341334 103.0534771498775 l 8.938407821322949 1.3136381387562868 a30.0344219261601,30.0344219261601 0 0,0 -0.07934594823586015,0.5094579066169235 l -8.914540380948822 -1.4668842273046607" fill="#ff5908" stroke="none" /><path d="M 120.7213421655516 103.40968896794604 l 8.954312630786735 1.4734287358803735 a30.07472902788755,30.07472902788755 0 0,0 -0.08819798457400252,0.5087025373205281 l -8.927699828720499 -1.6269243061214895" fill="#ff5908" stroke="none" /><path d="M 120.65975698304385 103.76489593502545 l 10.579465710352869 1.9279310729714265 a31.75369764028452,31.75369764028452 0 0,0 -0.10232811681282403,0.5354239469110686 l -10.544811301257885 -2.1092575849158095" fill="#ff710a" stroke="none" /><path d="M 120.592083275326 104.11899336999214 l 16.949177044996723 3.3903100983870282 a38.28492999887095,38.28492999887095 0 0,0 -0.13443897043074785,0.6433391409662514 l -16.88848036374161 -3.680765690638689" fill="#ffca12" stroke="none" /><path d="M 120.51834098615036 104.47187691870673 l 4.215676979738865 0.9187871765627823 a25.314638139324828,25.314638139324828 0 0,0 -0.09618253176743932,0.42379798183545225 l -4.199283586413761 -0.9910194923372515" fill="#ff1402" stroke="none" /><path d="M 120.43855184770803 104.8234425847677 l 9.053930018570904 2.136702831809429 a30.302641978096425,30.302641978096425 0 0,0 -0.12382593624912282,0.5052520756007884 l -9.015916555805484 -2.291810732018317" fill="#ff5c08" stroke="none" /><path d="M 120.35273937422433 105.17358676015961 l 8.910499155015987 2.2650140409691657 a30.19387207858191,30.19387207858191 0 0,0 -0.13200547962143633,0.5012463073841583 l -8.87030419458982 -2.417640852726127" fill="#ff5b08" stroke="none" /><path d="M 120.26092885502905 105.52220625578681 l 10.168781076303254 2.7715465009073386 a31.539714350231456,31.539714350231456 0 0,0 -0.14685718231917377,0.521144331518709 l -10.119705401909501 -2.945698756329056" fill="#ff6e0a" stroke="none" /><path d="M 120.16314734710363 105.8691983318838 l 10.414514883839038 3.031513499919318 a31.846759625155244,31.846759625155244 0 0,0 -0.15729824306099663,0.5235946926691092 l -10.36094032077441 -3.2098457961791507" fill="#ff720a" stroke="none" /><path d="M 120.05942366710727 106.21446072829308 l 9.152664095596391 2.835518733003769 a30.581827932708592,30.581827932708592 0 0,0 -0.15965939987874253,0.50013079611495 l -9.102639979940394 -2.992218562810103" fill="#ff6008" stroke="none" /><path d="M 119.94978838288452 106.5578916946017 l 18.99475730302192 6.243954009323252 a40.994693462797784,40.994693462797784 0 0,0 -0.22549927300596243,0.6666485320471678 l -18.884772608443594 -6.56910421584458" fill="#ffed16" stroke="none" /><path d="M 119.83427380445688 106.89939002012753 l 9.351411101183968 3.2529062098114543 a30.901024613300216,30.901024613300216 0 0,0 -0.17857824250181137,0.4995151270584846 l -9.294192688638214 -3.4129562932508604" fill="#ff6509" stroke="none" /><path d="M 119.71291397450082 107.23885506374661 l 7.409035396507448 2.7207004234311274 a28.892782544879758,28.892782544879758 0 0,0 -0.1749654951871631,0.4641167631352607 l -7.361239217505844 -2.847485466760547" fill="#ff4806" stroke="none" /><path d="M 119.58574465831526 107.57618678355244 l 7.116058068246419 2.7526441311360257 a28.62989725640736,28.62989725640736 0 0,0 -0.18124268937383398,0.45684997370963226 l -7.067756703906461 -2.874395122059222" fill="#ff4406" stroke="none" /><path d="M 119.4528033332814 107.91128576633889 l 11.329440487107988 4.607584815957814 a33.23053799254827,33.23053799254827 0 0,0 -0.2194388948435649,0.5265734636998365 l -11.248675747727937 -4.801390789098928" fill="#ff850c" stroke="none" /><path d="M 119.31412917781788 108.2440532568976 l 7.846569415612871 3.349233897666458 a29.531472281811,29.531472281811 0 0,0 -0.20301638150707785,0.46454121095454565 l -7.787919152088827 -3.4834371783968483" fill="#ff5107" stroke="none" /><path d="M 119.16976305983485 108.57439118712176 l 10.100541013829096 4.517843521790731 a32.06489217568026,32.06489217568026 0 0,0 -0.22905866471902853,0.5005345209183811 l -10.02149788425501 -4.6905670249238005" fill="#ff750a" stroke="none" /><path d="M 119.0197475246899 108.90220220490707 l 16.727907675336255 7.82950543363158 a39.46954386361071,39.46954386361071 0 0,0 -0.2924895097161382,0.6111905816018673 l -16.591038907660206 -8.11550851729855" fill="#ffd914" stroke="none" /><path d="M 118.8641267826498 109.22738970284198 l 16.22363889975605 7.93579476278345 a39.06054533137632,39.06054533137632 0 0,0 -0.29979914697658566,0.5997991214400374 l -16.08501983956773 -8.213125740387234" fill="#ffd413" stroke="none" /><path d="M 118.70294669586154 109.54985784667822 l 12.425518131999917 6.344558093521093 a34.95159196116066,34.95159196116066 0 0,0 -0.27743563601931004,0.5320194133268314 l -12.314774427005657 -6.5569237499524275" fill="#ff9d0e" stroke="none" /><path d="M 118.5362547648365 109.86951160357373 l 15.178821468405541 8.081867481406718 a38.19631365022016,38.19631365022016 0 0,0 -0.31312728678269086,0.5761189394188223 l -15.03784883200751 -8.341241254300144" fill="#ffc812" stroke="none" /><line stroke="#e1ed5e" stroke-width="0.3" x1="174.33088141563837" x2="178.70328620479359" y1="141.23008692659167" y2="143.65538615756765" /><path d="M 175.20536237346943 141.71514677278685 a86.0,86.0 0 0,1 -30.301960400862466,31.631185727798858" fill="none" id="id149" stroke="none" /><text fill="#e1ed5e" style="font-size:6.75px; font-family:Arial;" text-anchor="middle"><textPath startOffset="22.145653131862474" xlink:href="#id149">May</textPath></text><path d="M 118.36410011445183 110.18625677009912 l 8.452731753595069 4.68858781613431 a30.66599864513944,30.66599864513944 0 0,0 -0.2592980089369706,0.45815473633628445 l -8.37100037963672 -4.832999322569718" fill="#ff6109" stroke="none" /><path d="M 118.18653347947321 110.5 l 2.6809069407403436 1.5478223439087728 a24.095644687817547,24.095644687817547 0 0,0 -0.20989175641780436,0.35644208911829817 l -2.653941474192774 -1.5936156013206204" fill="#ff0100" stroke="none" /><path d="M 118.00360718960297 110.81064883170644 l 13.197292500677131 7.9245949576441355 a36.39375635090889,36.39375635090889 0 0,0 -0.32621289709741064,0.5328442515576507 l -13.059311639124315 -8.149976325326342" fill="#ffb010" stroke="none" /><path d="M 117.81537515405839 111.11811171558189 l 15.3858000988243 9.601877190521657 a39.136121147115276,39.136121147115276 0 0,0 -0.3605784314453661,0.5668891847176816 l -15.218703975753044 -9.86458004991801" fill="#ffd513" stroke="none" /><path d="M 117.62189284568427 111.42229804090321 l 5.997651121521422 3.8876049954050744 a28.147397538669978,28.147397538669978 0 0,0 -0.2662952380436483,0.40320493104864363 l -5.930031444557047 -3.989989804792779" fill="#ff3d05" stroke="none" /><path d="M 117.423217284605 111.72311816256416 l 10.327146318150062 6.9485649287480165 a33.4471886643333,33.4471886643333 0 0,0 -0.32461334878406684,0.4736205770634138 l -10.206343232550676 -7.1248202408814745" fill="#ff880c" stroke="none" /><path d="M 117.21940702142032 112.02048342749411 l 9.611430897837499 6.70952522803139 a32.72166083323925,32.72166083323925 0 0,0 -0.32547909043272505,0.4578271015568266 l -9.494836708874812 -6.873529556297721" fill="#ff7e0b" stroke="none" /><path d="M 117.01052211995028 112.31430620078461 l 12.652260031128199 9.1592605480658 a36.61959467088179,36.61959467088179 0 0,0 -0.37299320684573456,0.5060369205057589 l -12.493164804698637 -9.375103777840437" fill="#ffb310" stroke="none" /><path d="M 116.79662413953412 112.60449989151573 l 8.002196582904098 6.0049974996880495 a31.00475612509879,31.00475612509879 0 0,0 -0.32311093193285184,0.42296258190036273 l -7.897933673616943 -6.14148099482929" fill="#ff6609" stroke="none" /><path d="M 116.57777611688842 112.89097897827486 l 9.850833883164018 7.660068009784413 a33.478604493620864,33.478604493620864 0 0,0 -0.35668036573796424,0.45065399028166164 l -9.717887086784492 -7.828041943980757" fill="#ff890c" stroke="none" /><path d="M 116.35404254752997 113.17365903436017 l 9.515007960115206 7.664616880595826 a33.218090211132434,33.218090211132434 0 0,0 -0.36152857983678705,0.44100608367606436 l -9.382032561039791 -7.826825245970384" fill="#ff850c" stroke="none" /><path d="M 116.1254893667686 113.45245675266167 l 15.89950129319401 13.263929464141397 a41.705698882240036,41.705698882240036 0 0,0 -0.46334125152199324,0.5458148292379027 l -15.669465478164904 -13.534911075828855" fill="#fff617" stroke="none" /><path d="M 115.89218393027572 113.72728997021213 l 10.040273422699451 8.672549050419802 a34.26726035903805,34.26726035903805 0 0,0 -0.3883442301857906,0.4418644465843467 l -9.889918128555076 -8.843625774815441" fill="#ff940d" stroke="none" /><path d="M 115.6541949942343 113.99807769240083 l 6.836227781791128 6.112997036750014 a30.170754770238233,30.170754770238233 0 0,0 -0.3485473559331246,0.3831146006803175 l -6.7302827250161235 -6.229449212988003" fill="#ff5a08" stroke="none" /><path d="M 115.41159269507618 114.26474011684316 l 9.11392905483067 8.435716670090914 a33.41873659252568,33.41873659252568 0 0,0 -0.3932974187022524,0.4176682293606524 l -8.96777580239216 -8.590926359396063" fill="#ff880c" stroke="none" /><path d="M 115.16444852881244 114.52719865689866 l 12.475742323727898 11.951478933422628 a38.27663147792707,38.27663147792707 0 0,0 -0.45861455653966376,0.47057893674697693 l -12.268740966037427 -12.163880562237344" fill="#ffc912" stroke="none" /><path d="M 114.91283532996324 114.78537596483092 l 9.301790536342098 9.222288530846608 a34.09862255842836,34.09862255842836 0 0,0 -0.41569156606649094,0.4121386680474767 l -9.142107050145642 -9.380607209122747" fill="#ff910d" stroke="none" /><path d="M 114.65682725009322 115.03919595460226 l 11.152518363847463 11.443466324550934 a36.97909845320086,36.97909845320086 0 0,0 -0.45841317977446017,0.4391494564982847 l -10.954432698207691 -11.6332279113548" fill="#ffb811" stroke="none" /><path d="M 114.39649973595853 115.28858382429668 l 16.667439071354373 17.700242701514753 a45.312591735350566,45.312591735350566 0 0,0 -0.5708744170370732,0.5283928377493312 l -16.361134883003334 -17.983753285396464" fill="#dcff1b" stroke="none" /><path d="M 114.13192950727249 115.5334660781643 l 11.338292601317233 12.462769745364715 a37.84866489782093,37.84866489782093 0 0,0 -0.4843457117184222,0.43310492204248147 l -11.122681862775433 -12.655570197290583" fill="#ffc412" stroke="none" /><path d="M 113.86319453409587 115.77377054828091 l 12.0706210283746 13.734150956949906 a39.28460539686124,39.28460539686124 0 0,0 -0.5103641181753626,0.4408403697894557 l -11.833077430436381 -13.939335459204079" fill="#ffd714" stroke="none" /><path d="M 113.59037401385872 116.0094264158162 l 13.12486879578778 15.461062439424841 a41.28069605961387,41.28069605961387 0 0,0 -0.5441693415696688,0.45396541879071867 l -12.857525120056216 -15.68409004212743" fill="#fff016" stroke="none" /><path d="M 113.31354834802062 116.24036423190432 l 10.795743957941077 13.169052265274573 a38.02856497685447,38.02856497685447 0 0,0 -0.508404301035577,0.4095345168620978 l -10.568088886550248 -13.352435075930073" fill="#ffc612" stroke="none" /><path d="M 113.03279911837588 116.46651593811092 l 9.624693455279075 12.160485766816217 a36.50845376538331,36.50845376538331 0 0,0 -0.4947591846844075,0.3847277345347724 l -9.414524325959437 -12.323914552971784" fill="#ffb210" stroke="none" /><path d="M 112.7482090630111 116.68781488649013 l 21.582500603769418 28.25218609791101 a56.55264197809642,56.55264197809642 0 0,0 -0.7765135849325537,0.5827102705719241 l -21.0943340299261 -28.61851539574695" fill="#5cff2a" stroke="none" /><path d="M 112.45986205192187 116.90419585922612 l 9.044372881851894 12.270428836338164 a36.24349384667495,36.24349384667495 0 0,0 -0.5039899263630158,0.36484984009198634 l -8.83240194511491 -12.423879447803229" fill="#ffae10" stroke="none" /><path d="M 112.16784306229584 117.11559508785304 l 8.883748127169024 12.496104283120884 a36.33211019532573,36.33211019532573 0 0,0 -0.5114261962740108,0.35701520435928785 l -8.667926839721256 -12.646764303285295" fill="#ffb010" stroke="none" /><path d="M 111.8722381534696 117.32195027204791 l 10.377987562797783 15.141794004037815 a39.35692107937224,39.35692107937224 0 0,0 -0.5605619611387396,0.3771711045396106 l -10.11652931356204 -15.317714782634546" fill="#ffd814" stroke="none" /><path d="M 111.5731344415666 117.5232005979908 l 9.472343327371197 14.34233509483852 a38.18801512927628,38.18801512927628 0 0,0 -0.5501153929615602,0.3565781514120635 l -9.224742302152627 -14.502827087954477" fill="#ffc812" stroke="none" /><path d="M 111.27062007382361 117.71928675628689 l 5.90921779020192 9.290271861184069 a32.010359038049,32.010359038049 0 0,0 -0.46618647829313054,0.2909348414577707 l -5.748867183119074 -9.390342499483388" fill="#ff740a" stroke="none" /><path d="M 110.96478420261333 117.91015095944535 l 9.768741283142873 15.95650473660532 a39.709311843739414,39.709311843739414 0 0,0 -0.5844213119307465,0.35092820602624164 l -9.493387214654689 -16.121846943167487" fill="#ffdc14" stroke="none" /><line stroke="#e1ed5e" stroke-width="0.3" x1="143.1302829299769" x2="145.66735839644613" y1="173.24464959558577" y2="177.55315839532614" /><path d="M 143.63769802327073 174.10635135553383 a86.0,86.0 0 0,1 -40.68552437913181,11.842963189579606" fill="none" id="id150" stroke="none" /><text fill="#e1ed5e" style="font-size:6.75px; font-family:Arial;" text-anchor="middle"><textPath startOffset="21.407464694133747" xlink:href="#id150">June</textPath></text><path d="M 110.65571695917076 118.09573695890943 l 8.438131965946022 14.329792830027205 a37.62964322005193,37.62964322005193 0 0,0 -0.5594408592869571,0.32299333070500147 l -8.190898638798666 -14.472533058008379" fill="#ffc111" stroke="none" /><path d="M 110.34350942703117 118.27599006163325 l 11.202013702468246 19.792884856039727 a43.742985773964094,43.742985773964094 0 0,0 -0.656677642507022,0.3642480186925034 l -10.86059187180513 -19.982265790165375" fill="#efff19" stroke="none" /><path d="M 110.02825361518725 118.45085714620011 l 6.043899491686753 11.120094326116767 a33.65642994241843,33.65642994241843 0 0,0 -0.5099929727797076,0.27154253253676647 l -5.852117703120491 -11.222207326376102" fill="#ff8b0c" stroke="none" /><path d="M 109.71004243097381 118.62028667847754 l 8.561654777542056 16.418101932434283 a39.51637123179407,39.51637123179407 0 0,0 -0.6041729094852186,0.30849499248556794 l -8.278554646343254 -16.562654876592685" fill="#ffda14" stroke="none" /><path d="M 109.3889696526874 118.78422872680471 l 11.049689375182748 22.10678064383422 a45.714477249633056,45.714477249633056 0 0,0 -0.7049602341731414,0.34483137654191265 l -10.668568891747537 -22.293205770473357" fill="#d7ff1c" stroke="none" /><path d="M 109.06512990194946 118.94263497670748 l 6.031351176577897 12.60320425520663 a34.972041887772384,34.972041887772384 0 0,0 -0.5437507797769581,0.2545028205220251 l -5.814111682929433 -12.70488330729919" fill="#ff9d0e" stroke="none" /><path d="M 108.73861861582097 119.09545874513695 l 6.928144961081047 15.139247071056982 a37.64920401941967,37.64920401941967 0 0,0 -0.5899927826640511,0.2638962672803983 l -6.66723877556137 -15.255947089247229" fill="#ffc112" stroke="none" /><path d="M 108.4095320186766 119.2426549942271 l 3.702610511271504 8.472297446298166 a30.246034210229197,30.246034210229197 0 0,0 -0.47754876472891483,0.20383717085792105 l -3.5566266713721584 -8.53460926681549" fill="#ff5c08" stroke="none" /><path d="M 108.07796709384702 119.3841803445677 l 4.157435164436595 9.97633093351798 a31.807934402167774,31.807934402167774 0 0,0 -0.5058151329690966,0.20571061112877836 l -3.985565570277058 -10.04622880122605" fill="#ff720a" stroke="none" /><path d="M 107.74402155503746 119.51999308798841 l 10.93481286839581 27.562871576808284 a50.652689962741334,50.652689962741334 0 0,0 -0.8109923497518682,0.31370926298396606 l -10.460048256150412 -27.746520727930292" fill="#9dff22" stroke="none" /><path d="M 107.407793817531 119.65005319985036 l 6.588562244281407 17.47694412123984 a39.67759963870385,39.67759963870385 0 0,0 -0.6393966740029369,0.23479531526064623 l -6.287576418624344 -17.58747028550921" fill="#ffdc14" stroke="none" /><path d="M 107.06938296918513 119.77432235084164 l 4.699918475914581 13.146508453498605 a34.96137236084453,34.96137236084453 0 0,0 -0.5668640709643938,0.19718474961769453 l -4.473548632905165 -13.22525163568489" fill="#ff9d0e" stroke="none" /><path d="M 106.72888874123015 119.89276391827305 l 5.921965296014035 17.50723813339151 a39.48169526927853,39.48169526927853 0 0,0 -0.6438849004213769,0.21165775594769684 l -5.620557657944924 -17.606316810741227" fill="#ffd914" stroke="none" /><path d="M 106.38641147887787 120.00534299687104 l 9.351943127263898 29.294828647811674 a51.75135486056226,51.75135486056226 0 0,0 -0.8486220860866289,0.262905291531142 l -8.847680408305644 -29.451050527149462" fill="#90ff24" stroke="none" /><path d="M 106.0420521117495 120.11202640906438 l 5.981082437199699 19.909078191800067 a41.78809134018291,41.78809134018291 0 0,0 -0.6887871151946284,0.20049589074217897 l -5.638435309623464 -20.00881777684476" fill="#fff717" stroke="none" /><path d="M 105.69591212413111 120.21278271476187 l 8.408094284513568 29.83736039362253 a51.999421361634866,51.999421361634866 0 0,0 -0.8612555185814441,0.23473902142254902 l -7.894657364997429 -29.97729990918922" fill="#8eff24" stroke="none" /><path d="M 105.3480935250658 120.30758222061773 l 3.912042556793506 14.854662787831897 a36.36115501862933,36.36115501862933 0 0,0 -0.6049711950342794,0.15378131205625584 l -3.6564660685338293 -14.919629331723423" fill="#ffb010" stroke="none" /><path d="M 104.9986988182912 120.39639698878246 l 2.214973280990867 9.037846847928233 a30.305309359828385,30.305309359828385 0 0,0 -0.5063408869204603,0.11949507061847324 l -2.059500240330528 -9.074538062192932" fill="#ff5c08" stroke="none" /><path d="M 104.64783097203109 120.47920084513623 l 4.747929623709406 20.920253973871663 a42.452269391441796,42.452269391441796 0 0,0 -0.7120611799749945,0.15519042000454994 l -4.388106027115276 -20.998675852009935" fill="#ffff18" stroke="none" /><path d="M 104.29559338865022 120.5559693870025 l 4.040971447920697 19.33751122643163 a40.75522185841707,40.75522185841707 0 0,0 -0.6860530552340919,0.13722982508321938 l -3.708421907155646 -19.404030448177714" fill="#ffea15" stroke="none" /><path d="M 103.94208987418118 120.62667999033965 l 1.7207976714522948 9.003940556921158 a30.166901885514285,30.166901885514285 0 0,0 -0.5094834426269067,0.0928448550330561 l -1.565979495274331 -9.03215358588558" fill="#ff5a08" stroke="none" /><path d="M 103.58742460773223 120.69131181640829 l 5.114571051830508 29.49948668259215 a50.939581686801404,50.939581686801404 0 0,0 -0.8628740567171899,0.1419855976707209 l -4.607419492060246 -29.58293827875854" fill="#9aff23" stroke="none" /><path d="M 103.2317021107853 120.74984581791261 l 2.869836855239259 18.426411292687952 a39.648554815400246,39.648554815400246 0 0,0 -0.673411623885275,0.09896831850827181 l -2.5531001257462984 -18.472960684495106" fill="#ffdb14" stroke="none" /><path d="M 102.875027216393 120.80226474461374 l 2.9668904547625536 21.466941375834885 a42.6709946934628,42.6709946934628 0 0,0 -0.7264679507092374,0.09405582061437244 l -2.5979446821625407 -21.514708792649653" fill="#fcff18" stroke="none" /><path d="M 102.51750503828377 120.84855314841334 l 2.9445741723044683 24.385298220728014 a45.562436490911146,45.562436490911146 0 0,0 -0.7773040585851012,0.08709854106557464 l -2.525534212118568 -24.432252522300562" fill="#d9ff1c" stroke="none" /><path d="M 102.15924093988457 120.88869738790638 l 2.2117775123746997 21.396941069411824 a42.51095178954499,42.51095178954499 0 0,0 -0.7265332932469649,0.06880345824430494 l -1.8441446557427195 -21.431756283161313" fill="#feff18" stroke="none" /><path d="M 101.80034050326958 120.92268563240118 l 0.7928449963873773 9.21406066491824 a30.24810884046517,30.24810884046517 0 0,0 -0.5177194365084035,0.04007475867230474 l -0.634556565103738 -9.226313190585598" fill="#ff5c08" stroke="none" /><path d="M 101.44090949804482 120.95050786540614 l 1.038851497510718 15.104672777242184 a36.14035508637236,36.14035508637236 0 0,0 -0.6193005187509183,0.037255581349204925 l -0.7794066266273345 -15.12028033641608" fill="#ffad10" stroke="none" /><path d="M 101.08105385017728 120.97215588758144 l 1.3053325506064057 25.32310275936996 a46.35672349554025,46.35672349554025 0 0,0 -0.7950713155258983,0.03414378326999737 l -0.870435474479678 -25.341779111065787" fill="#cfff1d" stroke="none" /><path d="M 100.72087961077811 120.9876233191556 l 0.8510237338033111 24.776627461340297 a45.791238568364,45.791238568364 0 0,0 -0.7858358434404114,0.02024034377538432 l -0.4255745762921559 -24.787585522465726" fill="#d6ff1c" stroke="none" /><line stroke="#e1ed5e" stroke-width="0.3" x1="101.45913802915013" x2="101.54496967792366" y1="184.9874750549273" y2="189.98673829345242" /><path d="M 101.47630435890484 185.9873277026323 a86.0,86.0 0 0,1 -42.54439059252881,-10.42667462771756" fill="none" id="id151" stroke="none" /><text fill="#e1ed5e" style="font-size:6.75px; font-family:Arial;" text-anchor="middle"><textPath startOffset="22.145653131862474" xlink:href="#id151">July</textPath></text><path d="M 100.36049292484886 120.99690560180557 l 0.314403597110826 18.312433322157318 a39.315132098904826,39.315132098904826 0 0,0 -0.674896521959676,0.005793174941943862 l -2.242956790088474e-15 -18.315132098904826" fill="#ffd714" stroke="none" /><path d="M 100.0 121.0 l 1.1195002869635885e-15 9.141413571186632 a30.141413571186632,30.141413571186632 0 0,0 -0.5174174446359978,-0.00444140646344742 l 0.15692451978714458 -9.14006656291762" fill="#ff5a08" stroke="none" /><path d="M 99.63950707515114 120.99690560180557 l -0.37708386179042264 21.963244502780615 a42.96648131421475,42.96648131421475 0 0,0 -0.7373594193748172,-0.01899176304916413 l 0.7540565952359837 -21.953535022381402" fill="#f9ff18" stroke="none" /><path d="M 99.27912038922189 120.98762331915562 l -0.5771635474686961 16.80348694388193 a37.81339618380942,37.81339618380942 0 0,0 -0.648543390933462,-0.027851243717147926 l 0.865532699002997 -16.791103131738954" fill="#ffc312" stroke="none" /><path d="M 98.91894614982273 120.97215588758144 l -0.9590431857329346 18.605181592772407 a39.6298831432765,39.6298831432765 0 0,0 -0.6790970130209147,-0.04085278995669165 l 1.2782845508862957 -18.58597682499102" fill="#ffdb14" stroke="none" /><path d="M 98.55909050195518 120.95050786540614 l -1.3395154769703674 19.47626105191236 a40.52227052049227,40.52227052049227 0 0,0 -0.6935695441509692,-0.05368666915764784 l 1.6736540158965727 -19.45039661575966" fill="#ffe715" stroke="none" /><path d="M 98.19965949673042 120.92268563240118 l -2.5867571640562077 30.062039293466583 a51.17312577622221,51.17312577622221 0 0,0 -0.8745741516209371,-0.08282308144982031 l 3.10243087906216 -30.01320445651158" fill="#97ff23" stroke="none" /><path d="M 97.84075906011543 120.88869738790638 l -1.9012510195240806 18.392878938007765 a39.49088291746641,39.49088291746641 0 0,0 -0.6737221696864047,-0.07549197436333072 l 2.2167090908112845 -18.357531203137462" fill="#ffd914" stroke="none" /><path d="M 97.48249496171623 120.84855314841334 l -1.4503296215245498 12.010809804649327 a33.098058033194086,33.098058033194086 0 0,0 -0.5634899904386882,-0.07295506072491337 l 1.6562974338540322 -11.984143147724017" fill="#ff840c" stroke="none" /><path d="M 97.12497278360702 120.80226474461374 l -2.942707376110481 21.291964665495755 a42.494354747657226,42.494354747657226 0 0,0 -0.7217461662804864,-0.10607183174898725 l 3.3077786479986524 -21.238311760447885" fill="#feff18" stroke="none" /><path d="M 96.76829788921471 120.74984581791261 l -3.708457532542639 23.810957626858098 a45.098015693801514,45.098015693801514 0 0,0 -0.7639227976167239,-0.12570320564111187 l 4.116657833212426 -23.743788422721316" fill="#deff1b" stroke="none" /><path d="M 96.41257539226777 120.69131181640829 l -3.772425871092473 21.758349941297585 a43.08295698317715,43.08295698317715 0 0,0 -0.7276204008498507,-0.1325966753456737 l 4.145381005493381 -21.690385092020545" fill="#f7ff18" stroke="none" /><path d="M 96.05791012581884 120.62667999033965 l -2.9270250983762223 15.315432157781414 a36.59262447781416,36.59262447781416 0 0,0 -0.615981969359676,-0.123213645453123 l 3.1895035532668565 -15.262929115665429" fill="#ffb310" stroke="none" /><path d="M 95.70440661134978 120.55596938700252 l -4.410476383336508 21.10572610468867 a42.5616320424523,42.5616320424523 0 0,0 -0.7138955435894727,-0.15559021101658366 l 4.772134343545118 -21.026904435538366" fill="#feff18" stroke="none" /><path d="M 95.35216902796893 120.47920084513623 l -6.571679828566858 28.956033880969485 a50.69240431297279,50.69240431297279 0 0,0 -0.846968320144742,-0.19988221737898845 l 7.067780302451489 -28.838955519944268" fill="#9cff22" stroke="none" /><path d="M 95.00130118170881 120.39639698878247 l -6.523719597829978 26.61900218391781 a48.40675454442813,48.40675454442813 0 0,0 -0.8053839909505492,-0.20472546107003398 l 6.979708882005906 -26.503091491012515" fill="#b7ff1f" stroke="none" /><path d="M 94.6519064749342 120.30758222061772 l -7.686035222860117 29.18512765478892 a51.1802387941741,51.1802387941741 0 0,0 -0.847687569391305,-0.23104101653678077 l 8.185904193186117 -29.048886144107996" fill="#97ff23" stroke="none" /><path d="M 94.30408787586889 120.21278271476187 l -4.968408388055319 17.63112860546139 a39.317799480636786,39.317799480636786 0 0,0 -0.6480696488290516,-0.18864362970587714 l 5.270338049265978 -17.543241281452996" fill="#ffd714" stroke="none" /><path d="M 93.95794788825049 120.11202640906438 l -6.15913094133955 20.50174375494399 a42.40692390199842,42.40692390199842 0 0,0 -0.6953914988929984,-0.21543406392804595 l 6.510163073104182 -20.392993103209296" fill="#fffe18" stroke="none" /><path d="M 93.61358852112213 120.00534299687104 l -2.8177147404973475 8.826451292313738 a30.265298633848932,30.265298633848932 0 0,0 -0.49357983906638425,-0.16224949684244613 l 2.9688173172114753 -8.77678087406927" fill="#ff5c08" stroke="none" /><path d="M 93.27111125876986 119.89276391827306 l -8.407977058855879 24.85669017489192 a47.24021960031614,47.24021960031614 0 0,0 -0.7659534333920606,-0.2664383645364495 l 8.83343626429296 -24.70869337778688" fill="#c5ff1e" stroke="none" /><path d="M 92.93061703081489 119.77432235084164 l -8.43684603477802 23.599359921980806 a46.0621260020323,46.0621260020323 0 0,0 -0.7422820541410772,-0.2725762519583779 l 8.840717240573216 -23.451052821013707" fill="#d3ff1c" stroke="none" /><path d="M 92.59220618246901 119.65005319985036 l -7.489131510740302 19.865811094587347 a42.230580331940835,42.230580331940835 0 0,0 -0.6761472608854178,-0.26154828580798517 l 7.829051034119248 -19.734322920641322" fill="#fffc17" stroke="none" /><path d="M 92.25597844496254 119.51999308798841 l -7.361826068727677 18.556610793917393 a40.96357400925821,40.96357400925821 0 0,0 -0.651409656861285,-0.2649226365006951 l 7.679290186779403 -18.42750090083741" fill="#ffec16" stroke="none" /><path d="M 91.92203290615298 119.3841803445677 l -9.444777914216953 22.664028743447428 a45.55324884272327,45.55324884272327 0 0,0 -0.7192314061085803,-0.30699711912470307 l 9.832444395495964 -22.498556974663323" fill="#d9ff1c" stroke="none" /><path d="M 91.59046798132341 119.24265499422711 l -8.025823976783432 18.364655903164433 a41.041817206729135,41.041817206729135 0 0,0 -0.6431577126277873,-0.2876762642225668 l 8.339895092266854 -18.22417588803201" fill="#ffed16" stroke="none" /><path d="M 91.26138138417905 119.09545874513695 l -1.5311328626427845 3.3458016303612297 a24.679504911369538,24.679504911369538 0 0,0 -0.3837208042679119,-0.1796007115966281 l 1.5883423807821861 -3.319024687194075" fill="#ff0a01" stroke="none" /><path d="M 90.93487009805054 118.94263497670748 l -14.319261588938014 29.9217494232388 a54.17155921869708,54.17155921869708 0 0,0 -0.8353763921175194,-0.4086244546295292 l 14.830798230317601 -29.67153121851205" fill="#76ff27" stroke="none" /><path d="M 90.6110303473126 118.78422872680471 l -8.367864874777139 16.741335160010685 a39.71612848594332,39.71612848594332 0 0,0 -0.6072270340839122,-0.3100544502671602 l 8.654019130574634 -16.59522275807069" fill="#ffdc14" stroke="none" /><path d="M 90.28995756902619 118.62028667847754 l -8.571247514503897 16.436497270408385 a39.53711753415378,39.53711753415378 0 0,0 -0.5991025233775696,-0.31898834911472984 l 8.852138853668029 -16.286938453571082" fill="#ffda14" stroke="none" /><path d="M 89.97174638481275 118.45085714620012 l -10.134118096729535 18.645635868472862 a42.22168905950096,42.22168905950096 0 0,0 -0.6338396600892179,-0.351580174824908 l 10.452701944974855 -18.468922778214804" fill="#fffc17" stroke="none" /><line stroke="#e1ed5e" stroke-width="0.3" x1="58.13341422392154" x2="55.67067388415222" y1="173.97424548756322" y2="178.32567169271397" /><path d="M 57.64086615596768 174.84453072859336 a86.0,86.0 0 0,1 -31.369924170532247,-30.572349798747897" fill="none" id="id152" stroke="none" /><text fill="#e1ed5e" style="font-size:6.75px; font-family:Arial;" text-anchor="middle"><textPath startOffset="22.145653131862474" xlink:href="#id152">August</textPath></text><path d="M 89.65649057296885 118.27599006163327 l -9.876083701822925 17.450093593058266 a41.05100485491701,41.05100485491701 0 0,0 -0.6103063294097328,-0.35236052357284436 l 10.174182499093057 -17.27798617220925" fill="#ffed16" stroke="none" /><path d="M 89.34428304082925 118.09573695890944 l -11.061005956644006 18.784006281257025 a42.798732640849046,42.798732640849046 0 0,0 -0.6298898247687084,-0.3782307415689509 l 11.381828537970142 -18.591361539152157" fill="#fbff18" stroke="none" /><path d="M 89.03521579738668 117.91015095944536 l -4.888471448579581 7.984950728362858 a30.3625098791916,30.3625098791916 0 0,0 -0.44218784100159625,-0.2759579168563115 l 5.0248234183708895 -7.899857014664999" fill="#ff5d08" stroke="none" /><path d="M 88.72937992617639 117.7192867562869 l -9.64021678043008 15.156021976283226 a38.96214858304167,38.96214858304167 0 0,0 -0.5612671306908237,-0.3638065730766992 l 9.898969543377914 -14.988301561502631" fill="#ffd213" stroke="none" /><path d="M 88.4268655584334 117.5232005979908 l -16.741648981886875 25.348990364881686 a51.37851416958338,51.37851416958338 0 0,0 -0.7317859190563324,-0.4923782249090226 l 17.174331189040213 -25.05786246591554" fill="#95ff23" stroke="none" /><path d="M 88.1277618465304 117.32195027204791 l -13.299969627243367 19.405053160555884 a44.52541774867337,44.52541774867337 0 0,0 -0.6267586692403142,-0.43752622766100335 l 13.631123387657446 -19.17388211708975" fill="#e5ff1a" stroke="none" /><path d="M 87.83215693770417 117.11559508785305 l -14.11092684136715 19.84878576216514 a45.353491588574016,45.353491588574016 0 0,0 -0.6306705137956555,-0.4565568160648912 l 14.449578365536759 -19.60362817472718" fill="#dbff1b" stroke="none" /><path d="M 87.54013794807813 116.9041958592261 l -23.248643756669004 31.541250287236437 a60.18354126679463,60.18354126679463 0 0,0 -0.8263687733831325,-0.620122533428825 l 23.786665518962906 -31.137508726543597" fill="#36ff2e" stroke="none" /><path d="M 87.2517909369889 116.68781488649013 l -14.84298435544419 19.42994298747529 a45.45070283391668,45.45070283391668 0 0,0 -0.6159437159939111,-0.47896155905912363 l 15.174338016073328 -19.17228037679537" fill="#daff1c" stroke="none" /><path d="M 86.96720088162412 116.46651593811092 l -11.519577396194576 14.554609725188392 a39.56171672123744,39.56171672123744 0 0,0 -0.5289010234719412,-0.4260452255699812 l 11.767729190021779 -14.354716205825" fill="#ffda14" stroke="none" /><path d="M 86.68645165197938 116.24036423190432 l -20.242395712839524 24.692431402160967 a52.92915208309812,52.92915208309812 0 0,0 -0.6977213222690515,-0.5820639423555793 l 20.663291369270468 -24.341305275893514" fill="#83ff25" stroke="none" /><path d="M 86.40962598614128 116.0094264158162 l -14.217760733393161 16.7484863938863 a42.96944507169471,42.96944507169471 0 0,0 -0.5582355408933739,-0.482190564565699 l 14.503175754049398 -16.501951696855876" fill="#f9ff18" stroke="none" /><path d="M 86.13680546590413 115.77377054828092 l -14.397131785472565 16.38129312683826 a42.80880941628091,42.80880941628091 0 0,0 -0.5478202023908417,-0.4898642030048885 l 14.676217014686777 -16.13173339394999" fill="#fbff18" stroke="none" /><path d="M 85.86807049272751 115.53346607816431 l -6.244248179599287 6.8635225806589135 a30.278931918256745,30.278931918256745 0 0,0 -0.3814716162848573,-0.3530844329927149 l 6.361149567198112 -6.7553204015338215" fill="#ff5c08" stroke="none" /><path d="M 85.60350026404147 115.28858382429668 l -17.140644556917316 18.202770528752925 a46.00285085243311,46.00285085243311 0 0,0 -0.5702765621677435,-0.5463120463789672 l 17.450593604950374 -17.905846352068373" fill="#d3ff1c" stroke="none" /><path d="M 85.34317274990678 115.03919595460226 l -10.57953355687616 10.855533435391962 a36.15813763125212,36.15813763125212 0 0,0 -0.4407988279358762,-0.43703133922453036 l 10.764324304941999 -10.672322085938772" fill="#ffad10" stroke="none" /><path d="M 85.08716467003676 114.78537596483092 l -13.566689699805673 13.450735783744515 a40.104380715817996,40.104380715817996 0 0,0 -0.48051388189394073,-0.4930495737857352 l 13.795590382850424 -13.21586351789104" fill="#ffe115" stroke="none" /><path d="M 84.83555147118756 114.52719865689866 l -26.65100036619943 25.531055480800777 a57.90678277068986,57.90678277068986 0 0,0 -0.6814915975656217,-0.7237204602527053 l 27.085347797501306 -25.069793560603582" fill="#4eff2c" stroke="none" /><path d="M 84.58840730492382 114.26474011684316 l -13.51863950515228 12.5126509043998 a39.42064186519137,39.42064186519137 0 0,0 -0.4554065881325844,-0.5005716158497421 l 13.731443794126744 -12.278741712992383" fill="#ffd814" stroke="none" /><path d="M 84.3458050057657 113.99807769240083 l -11.326623983352214 10.128337009342973 a36.19459184825562,36.19459184825562 0 0,0 -0.41018630497235026,-0.46671671819708677 l 11.498821352283157 -9.932408013334586" fill="#ffae10" stroke="none" /><path d="M 84.1078160697243 113.72728997021213 l -15.1531534169775 13.088933014529491 a41.0234419103534,41.0234419103534 0 0,0 -0.4557615248255061,-0.5368859302483917 l 15.375609505310118 -12.826880301831546" fill="#ffed16" stroke="none" /><path d="M 83.8745106332314 113.45245675266167 l -16.524439107933006 13.78527481588026 a42.51954668623687,42.51954668623687 0 0,0 -0.46276083998433387,-0.5644929809208166 l 16.75864676715597 -13.499579553260949" fill="#feff18" stroke="none" /><path d="M 83.64595745247003 113.17365903436017 l -17.285809367056594 13.924224427858423 a43.19646889465959,43.19646889465959 0 0,0 -0.4602142937849022,-0.5814657261823871 l 17.522290091483057 -13.625438757761357" fill="#f6ff19" stroke="none" /><path d="M 83.4222238831116 112.89097897827486 l -8.554203601468807 6.651800460140074 a31.836090098227388,31.836090098227388 0 0,0 -0.3317745412746462,-0.4343035246343597 l 8.667130120097749 -6.503976022264845" fill="#ff720a" stroke="none" /><path d="M 83.20337586046588 112.60449989151573 l -13.919749484495927 10.445639517187022 a38.40318392232133,38.40318392232133 0 0,0 -0.3911601658350118,-0.5306838894402118 l 14.09701166991477 -10.20514931847793" fill="#ffcb12" stroke="none" /><path d="M 82.98947788004972 112.3143062007846 l -14.383657309115685 10.412658655778039 a38.75705656542847,38.75705656542847 0 0,0 -0.385512568663727,-0.5422717068871818 l 14.560284976309374 -10.164209722181353" fill="#ffd013" stroke="none" /><path d="M 82.78059297857968 112.02048342749411 l -23.582149973814285 16.46217216378533 a49.75970983402958,49.75970983402958 0 0,0 -0.4829304551079347,-0.7046099665539806 l 23.861270165737547 -16.0549274621613" fill="#a7ff21" stroke="none" /><path d="M 82.576782715395 111.72311816256416 l -16.92503169384896 11.387916663786992 a41.399542734560235,41.399542734560235 0 0,0 -0.39167035148638607,-0.5930388324817929 l 17.118026484256074 -11.09569795296614" fill="#fff216" stroke="none" /><path d="M 82.37810715431573 111.42229804090323 l -12.286530036346113 7.963980327914953 a35.6418510782432,35.6418510782432 0 0,0 -0.32838417244498846,-0.5162744622448007 l 12.42143190041699 -7.751892190991481" fill="#ffa60f" stroke="none" /><path d="M 81.99639281039703 110.81064883170644 l -9.813104229277076 5.89248713629523 a32.44632776335102,32.44632776335102 0 0,0 -0.2826326836982495,-0.47997208632615534 l 9.912810623105097 -5.723163881675516" fill="#ff7b0b" stroke="none" /><line stroke="#e1ed5e" stroke-width="0.3" x1="26.387840678322732" x2="22.057713659400548" y1="142.50000000000003" y2="145.00000000000006" /><path d="M 25.521815274538298 143.00000000000003 a86.0,86.0 0 0,1 -11.493303480769221,-40.785679425670985" fill="none" id="id153" stroke="none" /><text fill="#e1ed5e" style="font-size:6.75px; font-family:Arial;" text-anchor="middle"><textPath startOffset="21.40746469413373" xlink:href="#id153">September</textPath></text><path d="M 81.81346652052679 110.50000000000001 l -18.216307074985497 10.517189793383773 a42.03437958676753,42.03437958676753 0 0,0 -0.355423968411256,-0.6280000961158093 l 18.39416440841813 -10.202932927168842" fill="#fffa17" stroke="none" /><path d="M 81.63589988554817 110.18625677009913 l -20.601557440409582 11.42733663202001 a44.55861183244891,44.55861183244891 0 0,0 -0.36528439245911803,-0.6720821392862033 l 20.79468718248403 -11.07199965925922" fill="#e5ff1a" stroke="none" /><path d="M 81.4637452351635 109.86951160357371 l -20.636416406082226 10.987729385462192 a44.37930450491137,44.37930450491137 0 0,0 -0.3522700935939243,-0.6755243530192466 l 20.8219945686511 -10.631858789338443" fill="#e7ff1a" stroke="none" /><path d="M 81.29705330413844 109.54985784667822 l -18.70215482445916 9.549453511497855 a41.99911087275601,41.99911087275601 0 0,0 -0.3223533493095569,-0.644922634567161 l 18.863328086980456 -9.226999020766941" fill="#fff917" stroke="none" /><path d="M 81.1358732173502 109.22738970284198 l -26.573137383282198 12.998253091058812 a50.58185615897031,50.58185615897031 0 0,0 -0.37483742805828363,-0.7832660592970634 l 26.79235406930039 -12.540174529696644" fill="#9eff22" stroke="none" /><path d="M 80.9802524753101 108.90220220490708 l -18.317539390945562 8.573533341747474 a41.22468104324263,41.22468104324263 0 0,0 -0.29449250418484135,-0.6435192690790567 l 18.46201635998546 -8.257825090453728" fill="#ffef16" stroke="none" /><path d="M 80.83023694016515 108.57439118712176 l -13.627641061969923 6.095470510422695 a35.92874280230326,35.92874280230326 0 0,0 -0.24699491058949166,-0.5651726920413671 l 13.730269854576383 -5.860635748605479" fill="#ffaa0f" stroke="none" /><path d="M 80.68587082218212 108.24405325689762 l -8.027291833543506 3.4263735514618086 a29.727969402732302,29.727969402732302 0 0,0 -0.19630957383662384,-0.47107151321683804 l 8.084927251916616 -3.2880695288036894" fill="#ff5407" stroke="none" /><path d="M 80.5471966667186 107.91128576633889 l -18.41174780884022 7.4878975476142 a40.87614316359941,40.87614316359941 0 0,0 -0.2587680302115857,-0.6522644759216589 l 18.537574514017933 -7.170732054478975" fill="#ffeb16" stroke="none" /><path d="M 80.41425534168474 107.57618678355246 l -19.35272582085676 7.486050091408753 a41.750155244439426,41.750155244439426 0 0,0 -0.252825652051262,-0.67065007956039 l 19.47838215672246 -7.152731731654218" fill="#fff617" stroke="none" /><path d="M 80.28708602549918 107.23885506374661 l -27.373730266725275 10.052012919613814 a50.16100259681608,50.16100259681608 0 0,0 -0.28988241645594864,-0.8108527111668992 l 27.542252853225165 -9.580625252065992" fill="#a2ff22" stroke="none" /><path d="M 80.16572619554312 106.89939002012753 l -16.741396824872318 5.8235268563532685 a38.72534436039291,38.72534436039291 0 0,0 -0.21301627753598523,-0.629744774023126 l 16.83889852398067 -5.53528040785598" fill="#ffcf13" stroke="none" /><path d="M 80.05021161711548 106.5578916946017 l -22.47110422019867 7.386698290022802 a44.65404482330361,44.65404482330361 0 0,0 -0.23312661409038538,-0.7302657982502413 l 22.594595550066305 -6.99986345808117" fill="#e4ff1a" stroke="none" /><path d="M 79.94057633289273 106.21446072829308 l -23.272056891877693 7.209742713511977 a45.36327198825788,45.36327198825788 0 0,0 -0.22405930987135098,-0.7458205712205581 l 23.392392521752672 -6.809184538700696" fill="#dbff1b" stroke="none" /><path d="M 79.83685265289637 105.86919833188381 l -28.71091493223826 8.357328899416913 a50.90253471830191,50.90253471830191 0 0,0 -0.23701555247532652,-0.8410845809763534 l 28.850148976788162 -7.863236394537563" fill="#9aff23" stroke="none" /><path d="M 79.73907114497094 105.5222062557868 l -25.156881545779417 6.856619932985367 a47.074545557186404,47.074545557186404 0 0,0 -0.20580659373745486,-0.7814811585250404 l 25.270877620321606 -6.423758270087525" fill="#c7ff1e" stroke="none" /><path d="M 79.64726062577567 105.17358676015961 l -23.704553133931675 6.025604710711463 a45.458408603364575,45.458408603364575 0 0,0 -0.18575707061370078,-0.7579522378596742 l 23.80449773106167 -5.617796648243689" fill="#daff1c" stroke="none" /><path d="M 79.56144815229197 104.8234425847677 l -25.7440486882705 6.075525393021521 a47.45123913288924,47.45123913288924 0 0,0 -0.18029016611592272,-0.7943917376748928 l 25.844549715944087 -5.6326993214076015" fill="#c2ff1e" stroke="none" /><path d="M 79.48165901384964 104.47187691870673 l -38.41484247686484 8.372336122301533 a60.3166139776448,60.3166139776448 0 0,0 -0.21180405666831056,-1.0135590850894949 l 38.55290424435752 -7.711660585926629" fill="#35ff2f" stroke="none" /><path d="M 79.407916724674 104.11899336999214 l -5.801913042065714 1.1605451004646476 a26.916845432990854,26.916845432990854 0 0,0 -0.08674108240564679,-0.4538659964388954 l 5.8209804167535175 -1.0607765389924375" fill="#ff2b04" stroke="none" /><path d="M 79.34024301695615 103.76489593502545 l -14.540204940025273 2.6497096997833554 a35.77966580106131,35.77966580106131 0 0,0 -0.1049284404012011,-0.6051993605861801 l 14.58354819791871 -2.399717306276582" fill="#ffa80f" stroke="none" /><path d="M 79.2786578344484 103.40968896794605 l -27.062091584563266 4.453056871906278 a48.42601896804787,48.42601896804787 0 0,0 -0.1279334892395833,-0.8214247742109724 l 27.134546565941115 -3.987843915763856" fill="#b7ff1f" stroke="none" /><path d="M 79.22317932658666 103.0534771498775 l -29.1234984490246 4.280151349257409 a50.43633566670431,50.43633566670431 0 0,0 -0.11853855857208419,-0.8576859599107208 l 29.192681524151897 -3.779577081146602" fill="#9fff22" stroke="none" /><path d="M 79.17382384314188 102.69636545807758 l -23.461779656894073 3.037597097777561 a44.657601332279555,44.657601332279555 0 0,0 -0.09190516010613768,-0.7611065662027087 l 23.510466903259875 -2.6343968546514533" fill="#e4ff1b" stroke="none" /><path d="M 79.13060592940153 102.33845913500099 l -40.70586270078838 4.5611768199278915 a61.960610251778256,61.960610251778256 0 0,0 -0.10936817059092259,-1.0580378396608343 l 40.77816326386097 -3.8617344579841255" fill="#31ff3d" stroke="none" /><path d="M 79.0935383218832 101.97986365728391 l -20.665696284510847 1.9570629241865933 a41.758157389635315,41.758157389635315 0 0,0 -0.06145682703481868,-0.7142214873681654 l 20.696246734243406 -1.602020389442766" fill="#fff617" stroke="none" /><path d="M 79.06263194458094 101.62068470465958 l -25.670851442567045 1.9870862554660234 a46.747643107146885,46.747643107146885 0 0,0 -0.0550643578733341,-0.8006236785129173 l 25.701179761605445 -1.5461191527987628" fill="#caff1d" stroke="none" /><path d="M 79.03789590574601 101.26102812881392 l -44.97728646349813 2.7057218651890826 a66.05859771931806,66.05859771931806 0 0,0 -0.05837821792372461,-1.132521831854003 l 45.01710627087843 -1.9332282399583491" fill="#36ff6e" stroke="none" /><path d="M 79.01933749520258 100.90099992219065 l -24.438255313712958 1.0494838345116975 a45.460779609348535,45.460779609348535 0 0,0 -0.026790065572999625,-0.779963528632356 l 24.452670066282806 -0.6298140413152217" fill="#daff1c" stroke="none" /><path d="M 79.00696218219943 100.54070618675478 l -33.00146075718857 0.8500005648647041 a54.012405442023265,54.012405442023265 0 0,0 -0.015917117409454486,-0.9270922913098678 l 33.011189306196684 -0.28336135758578385" fill="#77ff27" stroke="none" /><line stroke="#e1ed5e" stroke-width="0.3" x1="15.003131293944662" x2="10.003315487706104" y1="100.72959589197737" y2="100.7725132973878" /><path d="M 14.003168132696942 100.73817937305945 a86.0,86.0 0 0,1 10.791469493833604,-42.45332614584628" fill="none" id="id154" stroke="none" /><text fill="#e1ed5e" style="font-size:6.75px; font-family:Arial;" text-anchor="middle"><textPath startOffset="22.145653131862435" xlink:href="#id154">October</textPath></text><path d="M 79.00077361379809 100.18025310272382 l -4.510672710821852 0.038718700229431 a25.51083888449814,25.51083888449814 0 0,0 0.0,-0.43794360590649545 l 4.510672710821852 0.03871870022942934" fill="#ff1702" stroke="none" /><path d="M 79.00077361379809 99.81974689727619 l -26.390991736266425 -0.22653492356967492 a47.391963983290054,47.391963983290054 0 0,0 0.013966114799245071,-0.813456170288595 l 26.383214189868514 0.6795380098273222" fill="#c3ff1e" stroke="none" /><path d="M 79.00696218219943 99.45929381324524 l -18.361797430820122 -0.4729347680383642 a39.3678869820481,39.3678869820481 0 0,0 0.02319952017502196,-0.6754287169989968 l 18.35097322364825 0.7880697496014994" fill="#ffd814" stroke="none" /><path d="M 79.01933749520258 99.09900007780938 l -25.01802466541774 -1.0743816250678548 a46.04108332392458,46.04108332392458 0 0,0 0.04068806315188788,-0.78933755524314 l 24.99589501280928 1.5036909736877067" fill="#d3ff1c" stroke="none" /><path d="M 79.03789590574601 98.7389718711861 l -20.510650853204098 -1.2338698228896416 a41.547730608558204,41.547730608558204 0 0,0 0.048939346563655485,-0.7115673583253613 l 20.48644754547538 1.5857806053693277" fill="#fff417" stroke="none" /><path d="M 79.06263194458094 98.37931529534042 l -18.044503184941576 -1.3967586679285067 a39.09848142711979,39.09848142711979 0 0,0 0.057542496139611765,-0.6687310289616328 l 18.01786706610422 1.7063107442658203" fill="#ffd413" stroke="none" /><path d="M 79.0935383218832 98.0201363427161 l -16.124200036492706 -1.526978507723423 a37.19634187648188,37.19634187648188 0 0,0 0.0656561619902517,-0.6351638087869104 l 16.09561148202079 1.8035468387932463" fill="#ffbb11" stroke="none" /><path d="M 79.13060592940154 97.66154086499901 l -23.58351096063692 -2.642581593635888 a44.731102517782546,44.731102517782546 0 0,0 0.09205642524397425,-0.762359258538113 l 23.53467244913328 3.047034529097437" fill="#e3ff1b" stroke="none" /><path d="M 79.17382384314186 97.30363454192245 l -11.68165780143064 -1.5124244773319744 a32.779157728350455,32.779157728350455 0 0,0 0.07703957983789671,-0.557420022483242 l 11.653973705037536 1.7127328080152833" fill="#ff7f0b" stroke="none" /><path d="M 79.22317932658666 96.9465228501225 l -23.36981809374463 -3.4345584758959857 a44.62085073952805,44.62085073952805 0 0,0 0.11788086755000468,-0.756879731699652 l 23.30741573405636 3.8352263895270875" fill="#e4ff1a" stroke="none" /><path d="M 79.2786578344484 96.59031103205396 l -47.61176970118213 -7.834498585926257 a69.25204640397426,69.25204640397426 0 0,0 0.2030904722297625,-1.1713718746284798 l 47.470264411460136 8.65066349347533" fill="#3aff93" stroke="none" /><path d="M 79.34024301695615 96.23510406497455 l -11.647209162874978 -2.12250949842676 a32.839025629445636,32.839025629445636 0 0,0 0.1058256486755136,-0.5537245115329497 l 11.609057221917304 2.322136574993024" fill="#ff800b" stroke="none" /><path d="M 79.407916724674 95.88100663000787 l -29.087741658350797 -5.818362981386791 a50.66395224116518,50.66395224116518 0 0,0 0.17790837223564152,-0.8513559647032819 l 28.98357557529079 6.316835397375482" fill="#9dff22" stroke="none" /><path d="M 79.48165901384962 95.52812308129327 l -17.444470183847304 -3.8019410841680554 a38.85397143502315,38.85397143502315 0 0,0 0.14762499551731992,-0.6504629688889839 l 17.376634326772322 4.100838386996047" fill="#ffd113" stroke="none" /><path d="M 79.56144815229197 95.17655741523228 l -17.396249059831536 -4.105467410589873 a38.874124985886866,38.874124985886866 0 0,0 0.15885165807397744,-0.6481689732030631 l 17.32320987524126 4.403492208401054" fill="#ffd113" stroke="none" /><path d="M 79.64726062577567 94.8264132398404 l -14.282477982168853 -3.6305500518716216 a35.736691317601895,35.736691317601895 0 0,0 0.15623829448525164,-0.5932622525013267 l 14.218050206878875 3.875192808745733" fill="#ffa80f" stroke="none" /><path d="M 79.73907114497095 94.47779374421319 l -18.191257930157477 -4.958108241795266 a39.854832336005416,39.854832336005416 0 0,0 0.18557455256806274,-0.6585386197508497 l 18.103464885514832 5.269654785449129" fill="#ffde14" stroke="none" /><path d="M 79.83685265289637 94.1308016681162 l -2.889474401073874 -0.8410838865014695 a24.00939934515073,24.00939934515073 0 0,0 0.11858777402768941,-0.39474013115495504 l 2.874610307042555 0.890561621247148" fill="#ff0000" stroke="none" /><path d="M 79.94057633289273 93.78553927170692 l -5.70590611960239 -1.767704301382338 a26.973453200858078,26.973453200858078 0 0,0 0.14082105753071084,-0.44111995702146256 l 5.674720346294421 1.8653932920951921" fill="#ff2c04" stroke="none" /><path d="M 80.05021161711548 93.44210830539832 l -59.84936514865357 -19.67367508380505 a84.0,84.0 0 0,0 0.46205831371054007,-1.3659933021033535 l 59.50282141337067 20.698170060382566" fill="#4dd2ff" stroke="none" /><path d="M 80.16572619554312 93.10060997987247 l -8.429342427932857 -2.9321628609588486 a29.924762899401607,29.924762899401607 0 0,0 0.17293638747365214,-0.4837338544255214 l 8.377765870415262 3.0764316717652913" fill="#ff5708" stroke="none" /><path d="M 80.28708602549916 92.7611449362534 l -11.169612598061697 -4.10163646126367 a32.89889353054082,32.89889353054082 0 0,0 0.19922522826383585,-0.528468587350812 l 11.097556685983426 4.292773328808627" fill="#ff810b" stroke="none" /><path d="M 80.41425534168474 92.42381321644754 l -16.66181433490358 -6.445147721279426 a38.864937337699,38.864937337699 0 0,0 0.24603601271580844,-0.6201714746628942 l 16.54871964722164 6.730220213155903" fill="#ffd113" stroke="none" /><path d="M 80.5471966667186 92.08871423366112 l -20.10099217642633 -8.174898525940403 a42.6997431410184,42.6997431410184 0 0,0 0.2819690865995248,-0.6766231605971096 l 19.957697245290326 8.518754195978778" fill="#fcff18" stroke="none" /><path d="M 80.68587082218212 91.75594674310238 l -16.700877562884205 -7.128611536028839 a39.15864570396296,39.15864570396296 0 0,0 0.2691991269406524,-0.6159802843917747 l 16.576044553926575 7.414253890196481" fill="#ffd513" stroke="none" /><path d="M 80.83023694016515 91.42560881287825 l -15.247666764836183 -6.8200874014197 a37.70344078130292,37.70344078130292 0 0,0 0.2693381831244387,-0.5885525379298941 l 15.128344116856697 7.080828921564265" fill="#ffc212" stroke="none" /><path d="M 80.9802524753101 91.09779779509293 l -13.430267414231821 -6.286043283816692 a35.82856779948064,35.82856779948064 0 0,0 0.2655080146280491,-0.5548096341573568 l 13.320380141643867 6.515665420039136" fill="#ffa90f" stroke="none" /><path d="M 81.1358732173502 90.77261029715801 l -21.322245821040422 -10.429778902434677 a44.73643728124647,44.73643728124647 0 0,0 0.3433629925518418,-0.6869559948537837 l 21.140062915276836 10.79426675345223" fill="#e3ff1b" stroke="none" /><path d="M 81.29705330413844 90.45014215332179 l -15.862503975496786 -8.099507554704294 a38.810700575815744,38.810700575815744 0 0,0 0.3080681249246732,-0.5907612498479223 l 15.721127781597172 8.370615047656703" fill="#ffd013" stroke="none" /><path d="M 81.46374523516351 90.13048839642627 l -11.070059792096945 -5.894183315694168 a33.541436152196006,33.541436152196006 0 0,0 0.27496734353239727,-0.5059089418822732 l 10.967247098949198 6.083347091051061" fill="#ff8a0c" stroke="none" /><path d="M 81.63589988554816 89.8137432299009 l -10.40198653739309 -5.769806586145531 a32.89504064581687,32.89504064581687 0 0,0 0.2781457940458569,-0.4914569666638 l 10.301407378325864 5.947520322908436" fill="#ff810b" stroke="none" /><line stroke="#e1ed5e" stroke-width="0.3" x1="26.387840678322718" x2="22.05771365940052" y1="57.49999999999999" y2="54.99999999999999" /><path d="M 25.521815274538284 56.99999999999999 a86.0,86.0 0 0,1 29.574782752854787,-30.34633250058573" fill="none" id="id155" stroke="none" /><text fill="#e1ed5e" style="font-size:6.75px; font-family:Arial;" text-anchor="middle"><textPath startOffset="21.40746469413373" xlink:href="#id155">November</textPath></text><path d="M 81.81346652052679 89.5 l -12.871946680529263 -7.431621880998081 a35.86324376199616,35.86324376199616 0 0,0 0.312396672575871,-0.5305178464698533 l 12.742476297823611 7.6514908957615075" fill="#ffa90f" stroke="none" /><path d="M 81.99639281039701 89.18935116829357 l -13.364227833232873 -8.024834828402154 a36.588475217342214,36.588475217342214 0 0,0 0.3279582460777967,-0.5356951479490345 l 13.224501622699682 8.253067092475732" fill="#ffb310" stroke="none" /><path d="M 82.18462484594161 88.88188828441811 l -20.912498773055944 -13.050945916108839 a45.650756463813934,45.650756463813934 0 0,0 0.42060065426871646,-0.6612540884222107 l 20.685380427161338 13.408013679209722" fill="#d8ff1c" stroke="none" /><path d="M 82.37810715431573 88.57770195909679 l -13.888655949633598 -9.002458988571751 a37.55110364683301,37.55110364683301 0 0,0 0.3552612660085908,-0.5379108365496589 l 13.732070244704278 9.23954970346047" fill="#ffc011" stroke="none" /><path d="M 82.576782715395 88.27688183743585 l -12.322347642629078 -8.291025422863482 a35.85198148357232,35.85198148357232 0 0,0 0.3479524658028279,-0.5076730462917473 l 12.178205440010936 8.501333204225265" fill="#ffa90f" stroke="none" /><path d="M 82.78059297857968 87.97951657250589 l -24.34110063611381 -16.99197866914924 a50.68529129502089,50.68529129502089 0 0,0 0.5041615275304805,-0.7091663263494689 l 24.04582401005336 17.40732222220823" fill="#9cff22" stroke="none" /><path d="M 82.98947788004972 87.6856937992154 l -12.038876774714167 -8.715218373189924 a35.86235463475217,35.86235463475217 0 0,0 0.3652802490163032,-0.49557281189369606 l 11.887494506114045 8.920597494352483" fill="#ffa90f" stroke="none" /><path d="M 83.2033758604659 87.39550010848427 l -23.307994691988704 -17.490753744684902 a50.14084904595236,50.14084904595236 0 0,0 0.5225345555944223,-0.6840145068576718 l 23.004308159039976 17.888289164783455" fill="#a3ff22" stroke="none" /><path d="M 83.42222388311158 87.10902102172516 l -11.738692010735045 -9.128077908391443 a35.87006040420007,35.87006040420007 0 0,0 0.38215888796830805,-0.48284527080204703 l 11.580266692125175 9.328243123108173" fill="#ffa90f" stroke="none" /><path d="M 83.64595745247003 86.82634096563983 l -13.880948301498819 -11.181509370913613 a38.824333860223554,38.824333860223554 0 0,0 0.4225440473664503,-0.5154350330860129 l 13.686957434893738 11.418146685698119" fill="#ffd113" stroke="none" /><path d="M 83.8745106332314 86.54754324733833 l -13.934565716917056 -11.624710321055687 a39.14679067404313,39.14679067404313 0 0,0 0.43491233740491675,-0.5123256398914744 l 13.732958816005025 11.862202743396718" fill="#ffd513" stroke="none" /><path d="M 84.10781606972428 86.27271002978789 l -7.8512179417311385 -6.781695063329503 a31.37463305859772,31.37463305859772 0 0,0 0.35556264477644006,-0.4045650200211408 l 7.733644232996106 6.915472361161943" fill="#ff6c09" stroke="none" /><path d="M 84.34580500576568 86.00192230759919 l -11.069240880040109 -9.898183451258303 a35.849314101840356,35.849314101840356 0 0,0 0.41414885830231385,-0.45522214347579987 l 10.897694320895928 10.086743170291761" fill="#ffa90f" stroke="none" /><path d="M 84.58840730492382 85.73525988315684 l -13.103203380510816 -12.128129429532894 a38.85456418651914,38.85456418651914 0 0,0 0.45727042244846633,-0.48560534242314746 l 12.893077124326078 12.351276231900552" fill="#ffd113" stroke="none" /><path d="M 84.83555147118756 85.47280134310135 l -10.774514462212572 -10.321741125422061 a35.92074065710737,35.92074065710737 0 0,0 0.43038726008415296,-0.44161524389453377 l 10.595740400977617 10.505179061384327" fill="#ffaa0f" stroke="none" /><path d="M 85.08716467003674 85.21462403516908 l -10.883448511738312 -10.790428143239412 a36.32588630461782,36.32588630461782 0 0,0 0.4428438286867615,-0.43905886144154604 l 10.696612762921573 10.97566701490963" fill="#ffb010" stroke="none" /><path d="M 85.34317274990677 84.96080404539775 l -12.444319851044494 -12.768968451914745 a38.829964999435475,38.829964999435475 0 0,0 0.48135753629716327,-0.46112963102469284 l 12.223289828882029 12.980710213245006" fill="#ffd113" stroke="none" /><path d="M 85.60350026404147 84.71141617570332 l -8.193423963422484 -8.70113231481579 a32.95164841368409,32.95164841368409 0 0,0 0.4151440550662195,-0.38425113962842 l 8.042850137042311 8.840501200576577" fill="#ff820b" stroke="none" /><path d="M 85.86807049272753 84.46653392183569 l -10.002604276966375 -10.994614298748116 a35.86383651349215,35.86383651349215 0 0,0 0.4589460544506463,-0.4103923918915747 l 9.812393195692337 11.164702220523091" fill="#ffa90f" stroke="none" /><path d="M 86.13680546590413 84.22622945171909 l -9.814936685713553 -11.167596245265212 a35.8676893982161,35.8676893982161 0 0,0 0.46597341339647036,-0.40249673626775784 l 9.621783792554234 11.33443711399768" fill="#ffa90f" stroke="none" /><path d="M 86.40962598614128 83.9905735841838 l -11.87584943852448 -13.989720777183184 a39.350697188664334,39.350697188664334 0 0,0 0.5187277595450047,-0.4327411462045234 l 11.633947344817566 14.191524107299589" fill="#ffd714" stroke="none" /><path d="M 86.68645165197937 83.75963576809568 l -10.25667076427405 -12.511470621075997 a37.17826295585412,37.17826295585412 0 0,0 0.49703660401838845,-0.40037750482209916 l 10.040383389900414 12.685696419691494" fill="#ffbb11" stroke="none" /><path d="M 86.96720088162412 83.53348406188908 l -15.4829785958497 -19.562237666850557 a45.94802133905386,45.94802133905386 0 0,0 0.6226833303229665,-0.4842023239255923 l 15.144885320891488 19.825141042396954" fill="#d4ff1c" stroke="none" /><path d="M 87.25179093698888 83.31218511350988 l -20.841421892996294 -27.282090276562723 a55.33187027210116,55.33187027210116 0 0,0 0.7597514005208746,-0.5701316148942552 l 20.370017503564664 27.63584091872098" fill="#69ff28" stroke="none" /><path d="M 87.54013794807813 83.09580414077388 l -12.37035559115033 -16.782763154975996 a41.84914474427006,41.84914474427006 0 0,0 0.5819402364254912,-0.4212798532207162 l 12.080434344350872 16.99264377956979" fill="#fff717" stroke="none" /><path d="M 87.83215693770416 82.88440491214696 l -8.621350246972737 -12.12700880363799 a35.879248052387936,35.879248052387936 0 0,0 0.5050515166323805,-0.3525651828868601 l 8.41190363916659 12.273218802329977" fill="#ffaa0f" stroke="none" /><path d="M 88.12776184653039 82.6780497279521 l -9.965636059810205 -14.540160837904955 a38.62754036355425,38.62754036355425 0 0,0 0.5501733668772594,-0.37018119469225963 l 9.714566404835956 14.709091706654325" fill="#ffce13" stroke="none" /><path d="M 88.4268655584334 82.4767994020092 l -8.226927976279606 -12.456617518914394 a35.92815005080727,35.92815005080727 0 0,0 0.5175610284187934,-0.33547680562611426 l 8.011881315603787 12.596008166244415" fill="#ffaa0f" stroke="none" /><path d="M 88.72937992617638 82.28071324371311 l -12.763910426836159 -20.06698722015758 a44.782375522185845,44.782375522185845 0 0,0 0.652193182509266,-0.4070167818850049 l 12.417553115537194 20.28313979888412" fill="#e2ff1b" stroke="none" /><path d="M 89.03521579738668 82.08984904055464 l -7.932972470401508 -12.9579143443746 a36.19340634526363,36.19340634526363 0 0,0 0.5326760157108238,-0.3198566424092954 l 7.70936369813325 13.092184987319818" fill="#ffae10" stroke="none" /><line stroke="#e1ed5e" stroke-width="0.3" x1="56.869717070023135" x2="54.33264160355391" y1="26.7553504044142" y2="22.446841604673864" /><path d="M 56.362301976729285 25.89364864446614 a86.0,86.0 0 0,1 42.16139366436587,-11.88097634709845" fill="none" id="id156" stroke="none" /><text fill="#e1ed5e" style="font-size:6.75px; font-family:Arial;" text-anchor="middle"><textPath startOffset="22.145653131862474" xlink:href="#id156">December</textPath></text><path d="M 89.34428304082924 81.90426304109057 l -4.879408835627954 -8.28630294355842 a30.61620751947612,30.61620751947612 0 0,0 0.45517193300616726,-0.26279363804867156 l 4.7364444347613865 8.368843478883266" fill="#ff6108" stroke="none" /><path d="M 89.65649057296885 81.72400993836675 l -10.25519194928257 -18.11994154086878 a41.820692672462464,41.820692672462464 0 0,0 0.627819829539585,-0.3482410762952335 l 9.942627931586882 18.29331553259716" fill="#fff717" stroke="none" /><path d="M 89.97174638481275 81.54914285379989 l -7.14924922543707 -13.153813338082198 a35.97112453426668,35.97112453426668 0 0,0 0.5450673397875265,-0.2902176573968473 l 6.922393069862982 13.274601463201622" fill="#ffab0f" stroke="none" /><path d="M 90.28995756902619 81.37971332152246 l -8.433523219551764 -16.172392775208678 a39.23925990741786,39.23925990741786 0 0,0 0.5999361045894044,-0.3063316497173395 l 8.154659893248777 16.31478237659885" fill="#ffd614" stroke="none" /><path d="M 90.61103034731259 81.2157712731953 l -6.64393895204 -13.292328502342604 a35.8602800045162,35.8602800045162 0 0,0 0.5529992446693098,-0.27049964171329843 l 6.414779458108637 13.404421894153117" fill="#ffa90f" stroke="none" /><path d="M 90.93487009805054 81.0573650232925 l -8.96828131699157 -18.7402586828528 a41.77564355876707,41.77564355876707 0 0,0 0.6495342432008515,-0.3040148227245981 l 8.645258359919197 18.89144973714794" fill="#fff617" stroke="none" /><path d="M 91.26138138417902 80.90454125486306 l -6.445187547459696 -14.083897962358257 a36.48859659026758,36.48859659026758 0 0,0 0.5718051469745348,-0.255761169173866 l 6.202468997629543 14.19246288244197" fill="#ffb210" stroke="none" /><path d="M 91.5904679813234 80.7573450057729 l -7.935030085027094 -18.15690171056841 a40.81508975951225,40.81508975951225 0 0,0 0.6444215318107039,-0.2750652322570403 l 7.622173478045959 18.290441592484854" fill="#ffea16" stroke="none" /><path d="M 91.92203290615298 80.6158196554323 l -5.716231089611181 -13.716873694205487 a35.8602800045162,35.8602800045162 0 0,0 0.5702562156176105,-0.23191823844038711 l 5.47992041280313 13.812979189225166" fill="#ffa90f" stroke="none" /><path d="M 92.25597844496254 80.48000691201159 l -5.535987408650121 -13.954304644432046 a36.01232076323812,36.01232076323812 0 0,0 0.5765876729800404,-0.22303649842264353 l 5.295627473176552 14.04728103099273" fill="#ffab0f" stroke="none" /><path d="M 92.592206182469 80.34994680014964 l -4.847956519034802 -12.85978063862286 a34.74323981031952,34.74323981031952 0 0,0 0.5598804408806827,-0.205595853043561 l 4.626486926499992 12.941107340675142" fill="#ff9a0e" stroke="none" /><path d="M 92.93061703081487 80.22567764915836 l -5.004419955280523 -13.99825328547852 a35.86591114372813,35.86591114372813 0 0,0 0.5815302726088659,-0.20228641586757073 l 4.7633839106266525 14.082098133914677" fill="#ffa90f" stroke="none" /><path d="M 93.27111125876988 80.10723608172694 l -5.070028115004999 -14.988637237054903 a36.822908434007005,36.822908434007005 0 0,0 0.6005242320155185,-0.19740424299038 l 4.811981145341719 15.073462401447312" fill="#ffb610" stroke="none" /><path d="M 93.61358852112211 79.99465700312896 l -6.380552881918889 -19.98699102534009 a41.98073557638027,41.98073557638027 0 0,0 0.6884028349841113,-0.21326895798454018 l 6.036509414063162 20.09357657113127" fill="#fff917" stroke="none" /><path d="M 93.95794788825049 79.88797359093562 l -4.284164222456912 -14.260589347660098 a35.89021395506379,35.89021395506379 0 0,0 0.5915732482869827,-0.17219835089544516 l 4.038730961788305 14.332031392858063" fill="#ffaa0f" stroke="none" /><path d="M 94.30408787586887 79.78721728523814 l -5.120340107523096 -18.170280679116402 a39.8779496443491,39.8779496443491 0 0,0 0.6604901228045226,-0.18001952003948446 l 4.8076685837838955 18.255500693300025" fill="#ffde14" stroke="none" /><path d="M 94.6519064749342 79.69241777938228 l -3.7983721710992957 -14.423037818538532 a35.91481314214745,35.91481314214745 0 0,0 0.5975450288888545,-0.1518936096618893 l 3.5502218489850628 14.486116660035686" fill="#ffaa0f" stroke="none" /><path d="M 95.00130118170881 79.60360301121753 l -4.243419525801835 -17.314599735735367 a38.827001241955514,38.827001241955514 0 0,0 0.6487212525001395,-0.15309644921364052 l 3.9455661195617897 17.38489232859524" fill="#ffd113" stroke="none" /><path d="M 95.35216902796891 79.52079915486377 l -2.6706530173206775 -11.767389962866613 a33.06664220390652,33.06664220390652 0 0,0 0.5546340066868715,-0.12087990030514732 l 2.468256594014688 11.811501321305474" fill="#ff830c" stroke="none" /><path d="M 95.70440661134978 79.44403061299748 l -6.076188869880388 -29.076763347509058 a50.70485209438863,50.70485209438863 0 0,0 0.8535401626665902,-0.17073193731973121 l 5.576152221682821 29.176784681491654" fill="#9cff22" stroke="none" /><path d="M 96.05791012581881 79.37332000966035 l -2.850693562481228 -14.916033307341841 a36.18599695156374,36.18599695156374 0 0,0 0.6111388690736982,-0.11136986005208371 l 2.5942199598564915 14.962771341325286" fill="#ffae10" stroke="none" /><path d="M 96.41257539226777 79.30868818359171 l -2.5499695208371 -14.707546568158003 a35.92696454781529,35.92696454781529 0 0,0 0.6085728350796469,-0.10014042842323283 l 2.2971191827043804 14.749152995076905" fill="#ffaa0f" stroke="none" /><path d="M 96.76829788921471 79.25015418208739 l -2.289000703313506 -14.697026533583331 a35.87420966467201,35.87420966467201 0 0,0 0.609306187788317,-0.08954702699394679 l 2.0363694099175036 14.734154633876162" fill="#ffa90f" stroke="none" /><path d="M 97.12497278360702 79.19773525538626 l -2.4451283601537988 -17.69173077474269 a38.85989894998306,38.85989894998306 0 0,0 0.6615845577953139,-0.08565536639088925 l 2.141065980467691 17.731097737333975" fill="#ffd113" stroke="none" /><path d="M 97.48249496171623 79.15144685158666 l -1.7828537500852666 -14.764586604299325 a35.87183865868804,35.87183865868804 0 0,0 0.6119805683322126,-0.06857369915093686 l 1.5291372801522547 14.793016063957232" fill="#ffa90f" stroke="none" /><path d="M 97.84075906011542 79.11130261209362 l -0.31104454489954103 -3.0090738150383927 a24.025107259794513,24.025107259794513 0 0,0 0.41060102310771823,-0.03888434378857533 l 0.2593439584068072 3.0139699143321517" fill="#ff0000" stroke="none" /><path d="M 98.1996594967304 79.07731436759882 l -0.7649211196078113 -8.889542889288666 a29.922391893417636,29.922391893417636 0 0,0 0.5121445427133806,-0.03964322663447539 l 0.6122075821192136 8.901363882918195" fill="#ff5708" stroke="none" /><path d="M 98.5590905019552 79.04949213459386 l -1.0994723512658164 -15.986086686392799 a37.023851191148246,37.023851191148246 0 0,0 0.6344400931876745,-0.03816634055243828 l 0.8248879059456581 16.00260500476993" fill="#ffb911" stroke="none" /><path d="M 98.9189461498227 79.02784411241856 l -1.1654863895089114 -22.610124594280595 a43.6401433894095,43.6401433894095 0 0,0 0.7484788310738912,-0.03214290151251049 l 0.7771817978341999 22.626800064218934" fill="#f0ff19" stroke="none" /><path d="M 99.27912038922189 79.0123766808444 l -0.5094462802035571 -14.83197259347688 a35.84071920514847,35.84071920514847 0 0,0 0.6150722864602142,-0.01584208028761214 l 0.2547606796725991 14.838532391114537" fill="#ffa90f" stroke="none" /><path d="M 99.63950707515114 79.00309439819443 l -0.3071282092462313 -17.888678452977818 a38.89131477927063,38.89131477927063 0 0,0 0.6676211340950791,-0.005730724487246419 l 4.382108275394302e-15 17.89131477927063" fill="#ffd113" stroke="none" /></svg>