<?xml version="1.0" encoding="utf-8" ?>
<svg baseProfile="full" height="200mm" version="1.1" viewBox="0,0,200,200" width="200mm" xmlns="http://www.w3.org/2000/svg" xmlns:ev="http://www.w3.org/2001/xml-events" xmlns:xlink="http://www.w3.org/1999/xlink"><defs /><rect fill="#1a1a1a" height="200" width="200" x="0" y="0" /><text alignment-baseline="middle" fill="#e1ed5e" style="dominant-baseline: central; font-size:9.0px; font-family:Arial;" text-anchor="middle" x="100.0" y="100.0">2019</text><line stroke="#e1ed5e" stroke-width="0.3" x1="100.0" x2="100.0" y1="15.0" y2="10.0" /><path d="M 100.0 14.0 a86.0,86.0 0 0,1 42.46469731375804,11.215312516191453" fill="none" id="id85" stroke="none" /><text fill="#e1ed5e" style="font-size:6.75px; font-family:Arial;" text-anchor="middle"><textPath startOffset="22.20632615414155" xlink:href="#id85">January</textPath></text><path d="M 100.0 79.0 l 0.0 -7.704101403027742 a28.704101403027742,28.704101403027742 0 0,0 0.4940939205835106,0.004252822365480111 l -0.1326134413109822 7.702959957270821" fill="#ff6209" stroke="none" /><path d="M 100.36148047927253 79.00311137660856 l 0.06676824136925244 -3.8782877859165583 a24.87886248124951,24.87886248124951 0 0,0 0.42812182130349025,0.011057123561864371 l -0.1335166978676105 3.876563870212334" fill="#ff2d04" stroke="none" /><path d="M 100.72285384407766 79.0124445844662 l 0.1823298476416481 -5.293819508102116 a26.296958481780234,26.296958481780234 0 0,0 0.45225655409390747,0.019475118566216296 l -0.2734272341248871 5.289896663011705" fill="#ff4106" stroke="none" /><path d="M 101.08401301168833 79.027996857942 l 0.20080272035952026 -3.8848567654688346 a24.89004290730999,24.89004290730999 0 0,0 0.427679623188947,0.02579880281314712 l -0.26764439238807913 3.8808246932753834" fill="#ff2d04" stroke="none" /><path d="M 101.44485096284872 79.0497635885617 l 0.35964554968721973 -5.2148349442307484 a26.22722186414351,26.22722186414351 0 0,0 0.45012133645751556,0.03493807881782788 l -0.44935707550707654 5.207871603224456" fill="#ff4006" stroke="none" /><path d="M 101.80526077348638 79.07773832637324 l 0.5009267830389729 -5.805544211670396 a26.827115172675533,26.827115172675533 0 0,0 0.45973355539533284,0.04365724063118034 l -0.6007854655245499 5.796061426524037" fill="#ff4806" stroke="none" /><path d="M 102.16513564639614 79.11191278185805 l 0.5889954159943623 -5.6823172445820465 a26.712761579843576,26.712761579843576 0 0,0 0.456957780985046,0.05134453101607395 l -0.6867199004891337 5.671336760095372" fill="#ff4606" stroke="none" /><path d="M 102.52436894288641 79.15227682838746 l 0.4663600737816471 -3.851475729762249 a24.879607842986875,24.879607842986875 0 0,0 0.42471299867673673,0.05513993657291929 l -0.5325878009662299 3.842877470025193" fill="#ff2d04" stroke="none" /><path d="M 102.88285421437855 79.19881850522331 l 0.7065327322417472 -5.097973918368647 a26.14670055220779,26.14670055220779 0 0,0 0.4452795798529858,0.06562263524251379 l -0.7941812925233886 5.085056798965165" fill="#ff3e05" stroke="none" /><path d="M 103.2404852339499 79.25152402106235 l 0.8289195239947901 -5.307481932609916 a26.371822041192395,26.371822041192395 0 0,0 0.4479075572855429,0.07390858477215942 l -0.9201562874192082 5.292427084898131" fill="#ff4206" stroke="none" /><path d="M 103.59715602781102 79.31037775812273 l 0.9273061073297776 -5.333550425643834 a26.413562298484855,26.413562298484855 0 0,0 0.4472757915425567,0.08173679198949137 l -1.018977019975235 5.316798152303604" fill="#ff4206" stroke="none" /><path d="M 103.95276090670814 79.375362276772 l 1.9522766167618877 -10.186550339513452 a31.371942528176525,31.371942528176525 0 0,0 0.529489058678695,0.10621052399650163 l -2.127332084907708 10.151435859439742" fill="#ff860c" stroke="none" /><path d="M 104.307194497241 79.44645832069477 l 2.094296443961301 -9.993792775634384 a31.210875165112487,31.210875165112487 0 0,0 0.5248736976235922,0.11471706073150008 l -2.2660128657384213 9.956262216807014" fill="#ff840c" stroke="none" /><path d="M 104.66035177308747 79.52364482259891 l 1.0262148350655247 -4.508917024776135 a25.624224218614906,25.624224218614906 0 0,0 0.42923786286047444,0.10158673401993557 l -1.1036763848885227 4.490584378615331" fill="#ff3705" stroke="none" /><path d="M 105.01212808612495 79.60689891045804 l 0.9261346324515872 -3.7682111984318833 a24.88035320472424,24.88035320472424 0 0,0 0.4150174559043787,0.1057971902591515 l -0.990860977040991 3.751711012003864" fill="#ff2d04" stroke="none" /><path d="M 105.36241919743992 79.69619591428918 l 0.9906706464653011 -3.7509903606377466 a24.879607842986875,24.879607842986875 0 0,0 0.4131224652445639,0.11292197554287402 l -1.0550910009335759 3.733381844268579" fill="#ff2d04" stroke="none" /><path d="M 105.71112130821622 79.79150937346287 l 1.0550910009335759 -3.733381844268579 a24.879607842986875,24.879607842986875 0 0,0 0.41111749051054236,0.12001646906390007 l -1.1191987091675453 3.7146670462859754" fill="#ff2d04" stroke="none" /><path d="M 106.0581310904928 79.89281104454417 l 1.4656917441661077 -4.864691834854679 a26.080696697995116,26.080696697995116 0 0,0 0.4287351423830088,0.13321009571413558 l -1.5492122592598347 4.838741604258023" fill="#ff3e05" stroke="none" /><path d="M 106.40334571778207 80.00007090966166 l 5.686760427087215 -17.761778031076055 a39.649933055652,39.649933055652 0 0,0 0.6482144340449297,0.21370610742570725 l -5.991657683374562 17.66125819939111" fill="#fff016" stroke="none" /><path d="M 106.74666289553966 80.11325718540242 l 1.2466397613286389 -3.6746469624833566 a24.88035320472424,24.88035320472424 0 0,0 0.4043862997159231,0.14108243963774744 l -1.3097080651078357 3.652643669673402" fill="#ff2d04" stroke="none" /><path d="M 107.08798089147638 80.2323363322302 l 1.3094564884529936 -3.651942047762208 a24.879607842986875,24.879607842986875 0 0,0 0.4018858432470654,0.14801794772204355 l -1.3721246574726353 3.6288608322338396" fill="#ff2d04" stroke="none" /><path d="M 107.4271985657038 80.35727306442388 l 1.3713338075259651 -3.626769269794511 a24.877371757774778,24.877371757774778 0 0,0 0.3992425282348536,0.1548998983503002 l -1.4335595007604855 3.6026266675536642" fill="#ff2d04" stroke="none" /><path d="M 107.76421540070413 80.48803036053334 l 1.4368664430921128 -3.6109372250336027 a24.886316098623162,24.886316098623162 0 0,0 0.3966595916538744,0.16180740696482526 l -1.4988099043343746 3.585668931885198" fill="#ff2d04" stroke="none" /><path d="M 108.09893153111575 80.62456947434976 l 1.4976600693483118 -3.5829181310168576 a24.883334651673703,24.883334651673703 0 0,0 0.3937683935757257,0.16859107619523706 l -1.5591122207143526 3.5566075268588295" fill="#ff2d04" stroke="none" /><path d="M 108.43124777332544 80.76684994638697 l 1.5570174442181908 -3.551828975479171 a24.878117119512144,24.878117119512144 0 0,0 0.3907260897568011,0.1753074070817349 l -1.617925652441772 3.524501237880905" fill="#ff2d04" stroke="none" /><path d="M 108.76106565485865 80.91482961587045 l 2.2407788298088436 -4.881329217791623 a26.37107667945503,26.37107667945503 0 0,0 0.4109138514765111,0.19292956302142322 l -2.324470892584953 4.842034672130197" fill="#ff4206" stroke="none" /><path d="M 109.08828744355905 81.06846463323043 l 2.7244576245860856 -5.6752348773552885 a27.295312562638582,27.295312562638582 0 0,0 0.42181491440511154,0.2069827465765281 l -2.821743806001629 5.627496970643929" fill="#ff4e07" stroke="none" /><path d="M 109.41281617654863 81.2277094730956 l 1.8685821540212795 -3.726575172695882 a25.168808197084648,25.168808197084648 0 0,0 0.3856095274905784,0.1975241771359789 l -1.9324521691006136 3.693858470247403" fill="#ff3104" stroke="none" /><path d="M 109.73455568895987 81.39251694778311 l 1.798738779248667 -3.438266975881992 a24.88035320472424,24.88035320472424 0 0,0 0.37777256492626343,0.20179302109118075 l -1.8576563907032417 3.4067952282890572" fill="#ff2d04" stroke="none" /><path d="M 110.05341064243156 81.56283822128135 l 1.8590837102504594 -3.4094128197053384 a24.883334651673703,24.883334651673703 0 0,0 0.3742879047629917,0.2082908137676886 l -1.917495704085486 3.3769066083774697" fill="#ff2d04" stroke="none" /><path d="M 110.36928655335952 81.73862282372117 l 1.9167596212816145 -3.3756102910613937 a24.881843928198972,24.881843928198972 0 0,0 0.37062486109658904,0.214689841726633 l -1.9745812148435318 3.342116291944711" fill="#ff2d04" stroke="none" /><line stroke="#e1ed5e" stroke-width="0.3" x1="143.23703022742887" x2="145.7803849466894" y1="26.81831364943548" y2="22.513508569990506" /><path d="M 143.74570117128098 25.957352633546492 a86.0,86.0 0 0,1 28.547481713284135,27.462654790039103" fill="none" id="id86" stroke="none" /><text fill="#e1ed5e" style="font-size:6.75px; font-family:Arial;" text-anchor="middle"><textPath startOffset="19.985693538727396" xlink:href="#id86">February</textPath></text><path d="M 110.68208982089419 81.91981866633111 l 1.9734437832681606 -3.34019110974889 a24.879607842986875,24.879607842986875 0 0,0 0.36684144599132934,0.22101786659282124 l -2.0306472954771277 3.305726633697454" fill="#ff2d04" stroke="none" /><path d="M 110.99172775467656 82.1063720568725 l 2.041180912571821 -3.322874495197901 a24.89973260989574,24.89973260989574 0 0,0 0.36327624679637405,0.2274835524168625 l -2.098076311740458 3.287246601458094" fill="#ff2d04" stroke="none" /><path d="M 113.34407831869373 83.78471172551755 l 0.4935969767461065 -0.5998029296739494 a21.776789244195843,21.776789244195843 0 0,0 0.2873939527742208,0.24068417044078944 l -0.5038484664794446 0.5912176018393406" fill="#ff0000" stroke="none" /><path d="M 113.89432698308785 84.25364557470407 l 2.57033495402425 -2.9129446303557383 a24.884825375148434,24.884825375148434 0 0,0 0.31874974292892494,0.28617666641434697 l -2.620095684549165 2.868268955172094" fill="#ff2d04" stroke="none" /><path d="M 114.16331599549186 84.49514656593476 l 3.404314653830954 -3.7267684889534554 a26.047589685438446,26.047589685438446 0 0,0 0.3284379235643222,0.3052472554950428 l -3.467960461190123 3.6676166473837717" fill="#ff3d05" stroke="none" /><path d="M 114.42810811169701 84.74124197986012 l 2.668055818487973 -2.8216601791006295 a24.883334651673703,24.883334651673703 0 0,0 0.30869169674098806,0.2969611676887197 l -2.716230758841379 2.7753159246496075" fill="#ff2d04" stroke="none" /><path d="M 114.68862486808459 84.99185889309783 l 2.714666710419781 -2.7737178540595977 a24.881098566461606,24.881098566461606 0 0,0 0.30350698596360076,0.30220363051167054 l -2.762009496550704 2.7265783728978086" fill="#ff2d04" stroke="none" /><path d="M 114.94478906791727 85.2469230424477 l 5.318319038680937 -5.250095515293209 a28.473153304790287,28.473153304790287 0 0,0 0.34131953389883984,0.3517597825168185 l -5.407902836282886 5.157771537226276" fill="#ff5f08" stroke="none" /><path d="M 115.19652480421416 85.50635884689758 l 2.810151969391608 -2.6801742342269814 a24.883334651673703,24.883334651673703 0 0,0 0.2929511173446889,0.31249982655735287 l -2.8558704087067603 2.6314049907915735" fill="#ff2d04" stroke="none" /><path d="M 115.4437574822437 85.77008943001954 l 2.851485195027363 -2.6273644457001457 a24.877371757774778,24.877371757774778 0 0,0 0.2874596410372896,0.3174201153597615 l -2.896288476680688 2.577891543070835" fill="#ff2d04" stroke="none" /><path d="M 115.68641384162765 86.03803664274999 l 2.8979587699198355 -2.579378216394406 a24.879607842986875,24.879607842986875 0 0,0 0.2819785284582504,0.3223502029451363 l -2.941929161955934 2.5291124572463217" fill="#ff2d04" stroke="none" /><path d="M 115.9244219780498 86.31012108654704 l 2.94079873768621 -2.5281406561100117 a24.878117119512144,24.878117119512144 0 0,0 0.2763714609717445,0.32713663774438995 l -2.9838808121450717 2.4771450687365153" fill="#ff2d04" stroke="none" /><path d="M 116.15771136456269 86.58626213691792 l 2.038191890517699 -1.692057192829056 a23.64901561459661,23.64901561459661 0 0,0 0.2573255108973275,0.31545064984922466 l -2.0670158934914356 1.6567223733717305" fill="#ff1b02" stroke="none" /><path d="M 116.38621287248628 86.86637796730983 l 3.030731519691579 -2.4291447067079597 a24.88408001341107,24.88408001341107 0 0,0 0.26501061681774674,0.33653657110904395 l -3.0720962171032897 2.3766157416458773" fill="#ff2d04" stroke="none" /><path d="M 116.60985879189232 87.15038557335679 l 6.6834983061013995 -5.17044589785714 a29.450009490546623,29.450009490546623 0 0,0 0.3067345541052735,0.4036267181822555 l -6.771508800430786 5.054634403793851" fill="#ff6c09" stroke="none" /><path d="M 116.82858285166822 87.43820079747576 l 16.53854440826159 -12.345298222067326 a41.638067722919686,41.638067722919686 0 0,0 0.4237910388132167,0.578050500675279 l -16.74859805958843 12.058785277720553" fill="#f6ff19" stroke="none" /><path d="M 117.04232023915458 87.72973835380427 l 3.1466386277262606 -2.2655412365460195 a24.877371757774778,24.877371757774778 0 0,0 0.24721873991880433,0.349673375442352 l -3.185169987448948 2.2110413607718744" fill="#ff2d04" stroke="none" /><path d="M 117.2510076193507 88.02491185347247 l 3.187006879021872 -2.2123164711298746 a24.879607842986875,24.879607842986875 0 0,0 0.24118473621849643,0.35390883976733994 l -3.224616080909102 2.157129608092128" fill="#ff2d04" stroke="none" /><path d="M 117.45458315368197 88.32363383020206 l 3.2239965581269865 -2.156715173969536 a24.87886248124951,24.87886248124951 0 0,0 0.23505000117844702,0.3579972776484374 l -3.2606431946633583 2.1008998323434245" fill="#ff2d04" stroke="none" /><line stroke="#e1ed5e" stroke-width="0.3" x1="172.23445277983987" x2="176.4835382374775" y1="55.19839476539836" y2="52.563006222186495" /><path d="M 173.08426987136738 54.67131705675599 a86.0,86.0 0 0,1 12.851231095245387,41.99856678651699" fill="none" id="id87" stroke="none" /><text fill="#e1ed5e" style="font-size:6.75px; font-family:Arial;" text-anchor="middle"><textPath startOffset="22.20632615414155" xlink:href="#id87">March</textPath></text><path d="M 117.84615892207809 88.93136811851018 l 3.296323632250708 -2.044461948755858 a24.87886248124951,24.87886248124951 0 0,0 0.22258786746839895,0.36587592857900386 l -3.331027298005331 1.9874182469697728" fill="#ff2d04" stroke="none" /><path d="M 118.03404312379186 89.2402003453031 l 3.8533405714819557 -2.2990503164408214 a25.487077658939672,25.487077658939672 0 0,0 0.2215437834601379,0.37869014040591725 l -3.892344029412421 2.2323807636810087" fill="#ff3505" stroke="none" /><path d="M 118.21658344932153 89.55222093294921 l 3.3136649752057563 -1.900490268083915 a24.819978903997644,24.819978903997644 0 0,0 0.20936521933934268,0.3724373636057237 l -3.3458878358375324 1.8431693945433973" fill="#ff2c04" stroke="none" /><path d="M 118.3937258080291 89.86733742301442 l 4.380011998172487 -2.412843603510566 a26.000631895984426,26.000631895984426 0 0,0 0.21257609103536082,0.3938712119754893 l -4.420896188426313 2.337091408202618" fill="#ff3c05" stroke="none" /><path d="M 118.56541770881063 90.18545643968196 l 3.191954260953504 -1.6874155285934536 a24.610532255797967,24.610532255797967 0 0,0 0.19476372884868118,0.37622153208584747 l -3.2205274229623018 1.6322212742472613" fill="#ff2904" stroke="none" /><path d="M 118.73160827565052 90.50648371742162 l 2.632801113734666 -1.334351000416837 a23.95163247996696,23.95163247996696 0 0,0 0.18321856815841056,0.36935745325878183 l -2.6553796948464843 1.2888339586591053" fill="#ff1f03" stroke="none" /><path d="M 118.89224826269711 90.83032412892265 l 4.70055850022067 -2.281496477323315 a26.224985778931412,26.224985778931412 0 0,0 0.19361757912570401,0.4078080002775726 l -4.739134273188131 2.200246061405202" fill="#ff4006" stroke="none" /><path d="M 119.04729006885535 91.15688171328212 l 3.519533955237861 -1.6340201135057746 a24.88035320472424,24.88035320472424 0 0,0 0.17700319628187458,0.39000308034433673 l -3.547139468483082 1.573195024319375" fill="#ff2d04" stroke="none" /><path d="M 119.196687751892 91.48605970444005 l 2.864420730984034 -1.2704018214058115 a24.133500743884117,24.133500743884117 0 0,0 0.1651527743292725,0.38119537337458187 l -2.8858642151559875 1.220907303444627" fill="#ff2203" stroke="none" /><path d="M 119.34039704204932 91.81776055985345 l 7.030690126457566 -2.974436870095115 a28.633994914096363,28.633994914096363 0 0,0 0.1881366817122009,0.4555878976338277 l -7.080848495055965 2.852974402007984" fill="#ff6108" stroke="none" /><path d="M 119.47837535516314 92.15188598940014 l 3.6019547607148596 -1.4512787184594418 a24.883334651673703,24.883334651673703 0 0,0 0.15665415911445021,0.3986677478603251 l -3.62640246971101 1.3890619657033323" fill="#ff2d04" stroke="none" /><path d="M 119.61058180528143 92.48833698450437 l 4.757478096060411 -1.8223106594207812 a26.094547474892465,26.094547474892465 0 0,0 0.15705862218823374,0.4208390228302721 l -4.78814130675027 1.740148499561176" fill="#ff3e05" stroke="none" /><path d="M 119.7369772167798 92.82701384747503 l 3.644171335437441 -1.3243968536528514 a24.877371757774778,24.877371757774778 0 0,0 0.14280431061660964,0.40372701634843566 l -3.66642872686386 1.2614722108778011" fill="#ff2d04" stroke="none" /><path d="M 119.85752413597 93.16781622104841 l 3.448642014714507 -1.1865404705546099 a24.64705498092887,24.64705498092887 0 0,0 0.13457609641282278,0.40236539910547475 l -3.4685554048991 1.127001968526821" fill="#ff2904" stroke="none" /><path d="M 119.97218684219823 93.5106431181261 l 3.6925618442917267 -1.1997860727684884 a24.882589289936337,24.882589289936337 0 0,0 0.12884976832993053,0.4084889769802532 l -3.712667096389864 1.136046929361816" fill="#ff2d04" stroke="none" /><path d="M 120.08093135843002 93.85539295169968 l 8.313802014179585 -2.543958023792339 a29.69430999894724,29.69430999894724 0 0,0 0.14535237891565667,0.4900559631654188 l -8.356360290206943 2.4004726738803903" fill="#ff6f0a" stroke="none" /><path d="M 120.18372546131832 94.20196356495316 l 15.306718334648338 -4.397053000714663 a36.9257559088212,36.9257559088212 0 0,0 0.1702334132767229,0.6124201617025368 l -15.380138518491425 4.132921535593174" fill="#ffce13" stroke="none" /><path d="M 120.28053869075195 94.5502522615342 l 2.630242734264625 -0.7067938190030031 a23.72355178833315,23.72355178833315 0 0,0 0.10258026302121384,0.39528359854355866 l -2.642019329156142 0.661413794910594" fill="#ff1c02" stroke="none" /><path d="M 120.45610955862082 95.25157060432595 l 2.4192226158422714 -0.5615685500131541 a23.48354530890149,23.48354530890149 0 0,0 0.08801365851916745,0.3945479733972849 l -2.4285306613634767 0.5198424070659053" fill="#ff1902" stroke="none" /><path d="M 120.53481517161879 95.60439243477599 l 3.767856866436866 -0.8065336847872655 a24.85321190056451,24.85321190056451 0 0,0 0.08594560699965584,0.41910130269138535 l -3.7811817693515186 0.7415567259324684" fill="#ff2c04" stroke="none" /><path d="M 120.6074358757038 95.95851677861258 l 2.56219331938013 -0.5024914973742267 a23.611002165990975,23.611002165990975 0 0,0 0.07478422461112542,0.39950031822169085 l -2.570463267901115 0.4583131016899731" fill="#ff1b02" stroke="none" /><path d="M 120.67395015179393 96.31383870115 l 10.973491137948471 -1.956571339728661 a32.14655458704981,32.14655458704981 0 0,0 0.09244145666907018,0.5455947100716784 l -11.005544456137764 1.7673908413411448" fill="#ff900d" stroke="none" /><path d="M 120.73433829027371 96.67025291283417 l 7.504764353104295 -1.2051972382613763 a28.600920232362512,28.600920232362512 0 0,0 0.07387768403896933,0.48676163225950564 l -7.524397930582564 1.0758364936097884" fill="#ff6008" stroke="none" /><path d="M 120.78858239683441 97.02765380044208 l 2.744093174611088 -0.3923497409823428 a23.7720003012619,23.7720003012619 0 0,0 0.05443108975633312,0.4055748419226387 l -2.7504402634252574 0.3450565569950398" fill="#ff1d02" stroke="none" /><path d="M 120.83666639777658 97.38593545837742 l 2.976007426733862 -0.37335509151600965 a23.999335631158345,23.999335631158345 0 0,0 0.04789541354524938,0.41033865401956554 l -2.9819931932827 0.32207269917159137" fill="#ff2003" stroke="none" /><path d="M 120.87857604477298 97.74499172005257 l 4.49739493315006 -0.48574494691107045 a25.52355052344654,25.52355052344654 0 0,0 0.04341783749963654,0.4372116984088261 l -4.505089896331926 0.4082577177978094" fill="#ff3605" stroke="none" /><path d="M 120.91429891909075 98.10471618934814 l 3.701719969598515 -0.33545518102654076 a24.71688860632142,24.71688860632142 0 0,0 0.034751375927508994,0.42405480832302267 l -3.7069458293455186 0.2716864554957494" fill="#ff2a04" stroke="none" /><path d="M 120.94382443527127 98.46500227214037 l 4.475828499616144 -0.3280387781340369 a25.4878335751157,25.4878335751157 0 0,0 0.02830291502616731,0.4378335682881021 l -4.480812005646727 0.25094614559289957" fill="#ff3505" stroke="none" /><path d="M 120.96714384426684 98.82574320788733 l 7.633675349015349 -0.4275210392957437 a28.64563755178109,28.64563755178109 0 0,0 0.023334452302953917,0.4925534077929179 l -7.639903409551799 0.29605652487982603" fill="#ff6109" stroke="none" /><path d="M 120.98425023603335 99.18683210126433 l 7.765231742213452 -0.30091316620730696 a28.77105994983157,28.77105994983157 0 0,0 0.014917528169939017,0.4950401357190074 l -7.769260964839035 0.1672028830633005" fill="#ff6309" stroke="none" /><line stroke="#e1ed5e" stroke-width="0.3" x1="184.98032266829074" x2="189.97916517819016" y1="98.17113171792111" y2="98.06355123074" /><path d="M 185.9800911702706 98.14961562048488 a86.0,86.0 0 0,1 -9.607161424134198,41.387399972396054" fill="none" id="id88" stroke="none" /><text fill="#e1ed5e" style="font-size:6.75px; font-family:Arial;" text-anchor="middle"><textPath startOffset="21.466115282336823" xlink:href="#id88">April</textPath></text><path d="M 120.99513854157772 99.54816195383933 l 3.8889109539053157 -0.08369356189889428 a24.889811437551707,24.889811437551707 0 0,0 0.005531455848593137,0.42841735135175874 l -3.8897754168716245 0.01673995248667282" fill="#ff2d04" stroke="none" /><path d="M 120.99980553446 99.90962569577887 l 3.8291003305963756 -0.0164788325112195 a24.82913578940395,24.82913578940395 0 0,0 -0.0018393692308034983,0.4274046310601524 l -3.828816664076069 -0.04943527675261761" fill="#ff2c04" stroke="none" /><path d="M 120.99824983174949 100.27111621757518 l 3.880029810868067 0.050096508748599264 a24.88035320472424,24.88035320472424 0 0,0 -0.009215134647677096,0.4281910969012569 l -3.8785926135353823 -0.11687742143997097" fill="#ff2d04" stroke="none" /><path d="M 120.9904718944345 100.63252640178507 l 6.121020378165579 0.18445068860413397 a27.123798863976905,27.123798863976905 0 0,0 -0.01807977776517307,0.4665587284325766 l -6.116938467549203 -0.2897866640507168" fill="#ff4c07" stroke="none" /><path d="M 120.9764740272857 100.99374915477107 l 5.240176458332847 0.248250536269623 a26.24605353034297,26.24605353034297 0 0,0 -0.025263262697594078,0.4510925263654901 l -5.2351268447477235 -0.3384147789705364" fill="#ff4006" stroke="none" /><path d="M 120.95626037817324 101.35467743843564 l 5.978017247574717 0.38643751059245657 a26.99049448392148,26.99049448392148 0 0,0 -0.03396103560078175,0.4633713486042588 l -5.970479653309598 -0.4892819956934856" fill="#ff4a06" stroke="none" /><path d="M 120.92983693683757 101.71520430193887 l 4.930279038878445 0.4040373483445346 a25.94680680642184,25.94680680642184 0 0,0 -0.040310716541916286,0.44482539800221377 l -4.9225937260594534 -0.4888441348953189" fill="#ff3c05" stroke="none" /><path d="M 120.89721153311464 102.0752229133903 l 4.2357681823524 0.42063809201998076 a25.256602929459966,25.256602929459966 0 0,0 -0.04668586655349651,0.43225314235920304 l -4.227900014297852 -0.4934875562639752" fill="#ff3204" stroke="none" /><path d="M 120.8583938346157 102.4346265915055 l 2.2716308367590914 0.265148548114922 a23.287052778377067,23.287052778377067 0 0,0 -0.04989915376742667,0.397745351741726 l -2.2667301737448167 -0.3042116541440429" fill="#ff1602" stroke="none" /><path d="M 120.81339534386255 102.79330883721812 l 4.903534790092278 0.6580899865917468 a25.947497940181243,25.947497940181243 0 0,0 -0.06322039789781692,0.4421633156510886 l -4.89148034117786 -0.7423987742232446" fill="#ff3c05" stroke="none" /><path d="M 120.76222939487914 103.15116336523771 l 3.8614736188729957 0.586070694634827 a24.905695503794664,24.905695503794664 0 0,0 -0.06797860822330748,0.42330285829718445 l -3.8508132562884 -0.6524527826252163" fill="#ff2d04" stroke="none" /><path d="M 120.64145759157962 103.86396538481128 l 16.15647910408902 3.024402502664993 a37.43711737315857,37.43711737315857 0 0,0 -0.12402394118326529,0.6323954041082933 l -16.10202522993009 -3.302061633841231" fill="#ffd413" stroke="none" /><path d="M 120.49622156327973 104.57218783832717 l 5.447139132514559 1.2151187582777963 a26.58102484546432,26.58102484546432 0 0,0 -0.10346275846924609,0.4457148556135479 l -5.42541580811476 -1.308702271239909" fill="#ff4406" stroke="none" /><path d="M 120.41448212921028 104.9243191809786 l 4.231439354903816 1.0206949089678738 a25.352803362365655,25.352803362365655 0 0,0 -0.10598520410084966,0.4233582063054157 l -4.213242836507905 -1.0933809546706854" fill="#ff3304" stroke="none" /><path d="M 120.32669344350535 105.2749913415812 l 5.709149385871432 1.4815844820982351 a26.898260700222604,26.898260700222604 0 0,0 -0.12016083711182175,0.44716317582169224 l -5.682800472417833 -1.5796385910954758" fill="#ff4906" stroke="none" /><path d="M 120.23288151984713 105.62410040840565 l 3.2636998948098337 0.9072052289392429 a24.38744126602904,24.38744126602904 0 0,0 -0.11590696218368972,0.4034873409263268 l -3.2476002957400443 -0.9632500453701517" fill="#ff2603" stroke="none" /><path d="M 120.02730092923936 106.31721596034902 l 7.228998313155837 2.2802445363234796 a28.58010103870938,28.58010103870938 0 0,0 -0.15202946441725934,0.46789857980257343 l -7.18867659772233 -2.4043420161038482" fill="#ff6008" stroke="none" /><path d="M 119.9155931802556 106.66101706037122 l 2.12768602913467 0.711630972319231 a23.243538829469834,23.243538829469834 0 0,0 -0.13017396607965226,0.3783464785103124 l -2.115121232111787 -0.7481501539188438" fill="#ff1502" stroke="none" /><path d="M 119.79798401119884 107.00284435728193 l 5.108143972989033 1.8068272596439898 a26.418280132567602,26.418280132567602 0 0,0 -0.15533412677808198,0.42741280354042865 l -5.076285585205724 -1.8944878601905495" fill="#ff4206" stroke="none" /><path d="M 119.67450827220406 107.3425965602758 l 4.643444537646158 1.7329500396267117 a25.956278141311095,25.956278141311095 0 0,0 -0.1598235830539783,0.4172489425347921 l -4.612926674998673 -1.8126225489946477" fill="#ff3c05" stroke="none" /><path d="M 119.54520255179757 107.68017299344265 l 3.3664866676785934 1.3228412404205026 a24.617062541761612,24.617062541761612 0 0,0 -0.15836670447877446,0.3930531729574126 l -3.3432173489424266 -1.3805937812207287" fill="#ff2904" stroke="none" /><path d="M 119.41010516605496 108.01547362559984 l 4.299488812780798 1.7754895652330156 a25.651662847571668,25.651662847571668 0 0,0 -0.17204816870791295,0.406671048618069 l -4.268289662880576 -1.8492351395172482" fill="#ff3705" stroke="none" /><path d="M 119.26925614724726 108.34839909993367 l 7.150305821546351 3.097867724041628 a28.792538596458698,28.792538596458698 0 0,0 -0.20094301069190215,0.4530734417046796 l -7.095921726123176 -3.2204895022389954" fill="#ff6309" stroke="none" /><path d="M 118.97047184881838 109.00673069616215 l 3.3958647902686514 1.6122761674182617 a24.759166412093414,24.759166412093414 0 0,0 -0.18610256128968067,0.3834263980145897 l -3.367608972364257 -1.670491521398127" fill="#ff2b04" stroke="none" /><path d="M 118.81262510543309 109.33194174019688 l 3.35590782076051 1.6646872030508784 a24.746104748327642,24.746104748327642 0 0,0 -0.1925733978847632,0.3799655834696289 l -3.326755753089478 -1.7222069982232016" fill="#ff2b04" stroke="none" /><line stroke="#e1ed5e" stroke-width="0.3" x1="174.80103733775053" x2="179.2010983576182" y1="140.37084112569926" y2="142.7455964860345" /><path d="M 175.68104954172406 140.8457921977663 a86.0,86.0 0 0,1 -30.038265399797805,32.042727171017184" fill="none" id="id89" stroke="none" /><text fill="#e1ed5e" style="font-size:6.75px; font-family:Arial;" text-anchor="middle"><textPath startOffset="22.206326154141568" xlink:href="#id89">May</textPath></text><path d="M 118.48025628344425 109.97397251340804 l 6.693524148555804 3.612559525775475 a28.606171957993773,28.606171957993773 0 0,0 -0.23759958213146737,0.43131225703251497 l -6.630348156972827 -3.727242301205795" fill="#ff6008" stroke="none" /><path d="M 118.12598468904814 110.60418214915192 l 3.32511403614763 1.945279967455542 a24.85233662926409,24.85233662926409 0 0,0 -0.21919657272976983,0.367386064058401 l -3.291136587719633 -2.0022281254000474" fill="#ff2c04" stroke="none" /><path d="M 117.94076556474637 110.91462005526583 l 5.265228773498494 3.203206204294537 a27.163048273744696,27.163048273744696 0 0,0 -0.24645339002640307,0.39736133719031164 l -5.209310743804129 -3.293363872850122" fill="#ff4d07" stroke="none" /><path d="M 117.75023020441432 111.22182372390056 l 4.108565819103639 2.597464982091221 a25.86077539319571,25.86077539319571 0 0,0 -0.2411149548231509,0.37421576434642717 l -4.063246000903438 -2.667802346359101" fill="#ff3a05" stroke="none" /><path d="M 117.55443506779139 111.5257021239791 l 2.02853002715585 1.3318704220475466 a23.426687637953847,23.426687637953847 0 0,0 -0.22422340313056063,0.3351835646493472 l -2.0053035186145682 -1.3665909009027006" fill="#ff1802" stroke="none" /><path d="M 117.35343817320211 111.8261652097733 l 4.55356251153462 3.10319960903182 a26.510424607954338,26.510424607954338 0 0,0 -0.26023023235382325,0.37488105859353793 l -4.499471372018661 -3.1811219298123774" fill="#ff4406" stroke="none" /><path d="M 117.14729908036423 112.12312394758627 l 4.96636976233363 3.5112186424310186 a27.082226974651384,27.082226974651384 0 0,0 -0.2723958859293769,0.3783340611384569 l -4.9051940840286505 -3.5961863090206068" fill="#ff4b07" stroke="none" /><path d="M 116.93607887273984 112.41649034213515 l 1.135203165852556 0.8322610712363337 a22.40760247174304,22.40760247174304 0 0,0 -0.23073293213760188,0.3091044684351999 l -1.1207089670198622 -0.8516784191808486" fill="#ff0901" stroke="none" /><path d="M 116.71984013943494 112.70617746262583 l 4.332804337545848 3.292697798817176 a26.44197135437073,26.44197135437073 0 0,0 -0.2785135144239011,0.36001626139245674 l -4.275484005903878 -3.3667920543228855" fill="#ff4306" stroke="none" /><path d="M 116.498646956653 112.99209946851258 l 7.750953781587725 6.1036012692922155 a30.86565927745402,30.86565927745402 0 0,0 -0.33229393786906064,0.4145877800203349 l -7.644741931663811 -6.2361168828908005" fill="#ff7f0b" stroke="none" /><path d="M 116.27256486870786 113.27417163493432 l 4.428511557053983 3.612511178779692 a26.71506357162971,26.71506357162971 0 0,0 -0.29374357341845625,0.3538330570447044 l -4.365671983741984 -3.6882054929381667" fill="#ff4606" stroke="none" /><path d="M 116.0416608686014 113.55231037782055 l 1.6136177680688468 1.3632160038265206 a23.112373114418055,23.112373114418055 0 0,0 -0.25936208790512205,0.3016967030183518 l -1.589913170592946 -1.3907898060064003" fill="#ff1302" stroke="none" /><path d="M 115.80600337817218 113.82643327865902 l 5.487585652658893 4.8003113166605464 a28.290856261930216,28.290856261930216 0 0,0 -0.32378366373456285,0.36377437861283396 l -5.404143139275992 -4.894059865014246" fill="#ff5c08" stroke="none" /><path d="M 115.56566222782051 114.09645910891815 l 5.492231362647197 4.973833665868674 a28.409698150166044,28.409698150166044 0 0,0 -0.331383695697165,0.35965155260449916 l -5.40580125895431 -5.067636473274508" fill="#ff5e08" stroke="none" /><path d="M 115.32070863581623 114.36230785411682 l 4.678333994834393 4.385676581637569 a27.41256329761721,27.41256329761721 0 0,0 -0.32567880726975923,0.3414729273756297 l -4.602148636185669 -4.465556625595705" fill="#ff5007" stroke="none" /><path d="M 115.07121518719521 114.62390073753431 l 1.8704726517147063 1.814956926246307 a23.606287893718207,23.606287893718207 0 0,0 -0.2854780056308454,0.2891877124994363 l -1.8389540210283255 -1.846885132726408" fill="#ff1a02" stroke="none" /><path d="M 114.81725581225074 114.88116024355365 l 15.257107081955924 15.322908520748252 a42.62338646108627,42.62338646108627 0 0,0 -0.5243692343869792,0.5132056609417667 l -14.991087895193152 -15.58326428461259" fill="#eaff1a" stroke="none" /><path d="M 114.55890576462653 115.13401014063108 l 5.234514085636217 5.441287314721958 a28.550347366451298,28.550347366451298 0 0,0 -0.3571025318505492,0.3376627330808953 l -5.14007571939486 -5.530584684548774" fill="#ff6008" stroke="none" /><path d="M 114.29624159901734 115.38237550388516 l 1.9602251990677937 2.109150147987945 a23.879409171656217,23.879409171656217 0 0,0 -0.3034964317323879,0.2772367945565942 l -1.923629217868542 -2.1425797091311223" fill="#ff1e03" stroke="none" /><path d="M 114.0293411484842 115.62618273729858 l 4.362603864132975 4.859162270692395 a27.530219785602046,27.530219785602046 0 0,0 -0.35534650471665696,0.3135519749827938 l -4.278315006509731 -4.933537387447478" fill="#ff5207" stroke="none" /><path d="M 113.75828350139079 115.86535959552629 l 4.727768864785749 5.451824939991726 a28.216245118838003,28.216245118838003 0 0,0 -0.3696791977884148,0.3150486323742067 l -4.633224190420287 -5.532397962588879" fill="#ff5b08" stroke="none" /><path d="M 113.48314897796784 116.09983520530334 l 5.689089609374844 6.793176084370713 a29.86075515386601,29.86075515386601 0 0,0 -0.3969061308408129,0.3266267244501757 l -5.571313349989341 -6.890097927678068" fill="#ff720a" stroke="none" /><path d="M 113.20401910651253 116.32954008644616 l 0.6857535372628251 0.8480781333186969 a22.09063946108776,22.09063946108776 0 0,0 -0.2977423800258716,0.23654455393993895 l -0.6710536645196024 -0.8597566012637619" fill="#ff0500" stroke="none" /><path d="M 112.92097659922987 116.55440617244103 l 9.657235090644319 12.372887681168393 a36.69555794378717,36.69555794378717 0 0,0 -0.5012810174273763,0.384360908444155 l -9.442825344723449 -12.53728793143992" fill="#ffcb12" stroke="none" /><path d="M 112.63410532772338 116.77436683061366 l 5.815058399485118 7.720683040401853 a30.665601419455037,30.665601419455037 0 0,0 -0.4243754601736877,0.31394282005211666 l -5.681297968892866 -7.819635809193739" fill="#ff7c0b" stroke="none" /><path d="M 112.34349029814194 116.9893568818739 l 4.7848271982383945 6.585749648234064 a29.14043424801263,29.14043424801263 0 0,0 -0.4083444501812646,0.29134292298673736 l -4.670755420208245 -6.667136833065021" fill="#ff6809" stroke="none" /><path d="M 112.04921762599082 117.19931262002967 l 6.009581763391877 8.57820637592697 a31.473810080333056,31.473810080333056 0 0,0 -0.4463932212911475,0.30703332803476063 l -5.861031657477846 -8.680380493326824" fill="#ff870c" stroke="none" /><path d="M 111.7513745106137 117.40417183066458 l 3.8611741085164133 5.718525742842935 a27.900014649827554,27.900014649827554 0 0,0 -0.4003323961675572,0.2653184827215128 l -3.7621670136088916 -5.784142246655767" fill="#ff5708" stroke="none" /><path d="M 111.45004920935366 117.60387380957326 l 5.228300811665473 8.038249097817092 a30.588982111560075,30.588982111560075 0 0,0 -0.443858071726346,0.283291221793574 l -5.089160937892196 -8.127054748434475" fill="#ff7b0b" stroke="none" /><path d="M 111.1453310114006 117.79835938074945 l 3.5894723200775687 5.732150823931845 a27.763273216786793,27.763273216786793 0 0,0 -0.4072221727967892,0.25014911862908834 l -3.4902709473484705 -5.793088409389312" fill="#ff5507" stroke="none" /><line stroke="#e1ed5e" stroke-width="0.3" x1="143.8653032363475" x2="146.44561519142675" y1="172.8068346515853" y2="177.08958963109032" /><path d="M 144.38136562736335 173.6633856474863 a86.0,86.0 0 0,1 -40.68145358897372,12.25698825130547" fill="none" id="id90" stroke="none" /><text fill="#e1ed5e" style="font-size:6.75px; font-family:Arial;" text-anchor="middle"><textPath startOffset="21.466115282336833" xlink:href="#id90">June</textPath></text><path d="M 110.8373102113329 117.98757091392108 l 5.033225599767418 8.354056554264139 a30.753133898906427,30.753133898906427 0 0,0 -0.45577920647170855,0.269282388941543 l -4.888678522267327 -8.43945751549943" fill="#ff7e0b" stroke="none" /><path d="M 110.5260780823613 118.17145234162733 l 6.759139716162872 11.668485095932462 a34.484788249602154,34.484788249602154 0 0,0 -0.5162064623201801,0.29311550146650384 l -6.5572844869214935 -11.783103763193594" fill="#ffaf10" stroke="none" /><path d="M 110.21172684928248 118.3499491758327 l 3.6771382298258866 6.607628721929383 a28.561884876676793,28.561884876676793 0 0,0 -0.4316614623757642,0.23537624672715016 l -3.5628539555814736 -6.6699456204163035" fill="#ff6008" stroke="none" /><path d="M 109.89434966115114 118.52300852407294 l 3.1464721629050487 5.890445829207502 a27.678146384945784,27.678146384945784 0 0,0 -0.42216962325245344,0.2208591939170739 l -3.0446116371260996 -5.943734442069293" fill="#ff5407" stroke="none" /><path d="M 109.57404056367764 118.69057910512821 l 2.7825189873961422 5.432073417649241 a27.103264170093865,27.103264170093865 0 0,0 -0.41706256693369914,0.20912382913742197 l -2.6886025127796827 -5.479165087695965" fill="#ff4c07" stroke="none" /><path d="M 109.2508944713604 118.85261126421891 l 9.526979968858871 19.41525226894997 a42.626728092663605,42.626728092663605 0 0,0 -0.6615005090475081,0.31756044366253744 l -9.19136679181113 -19.576366989112067" fill="#eaff1a" stroke="none" /><path d="M 108.92500713936063 119.00905698771935 l 1.2201201004416216 2.5986906406909798 a23.870868528079363,23.870868528079363 0 0,0 -0.373444965728683,0.17143026744713288 l -1.1752071389455192 -2.619307978472187" fill="#ff1e03" stroke="none" /><path d="M 108.59647513512805 119.15986991738527 l 1.1711569871199325 2.6102809783466587 a23.86097456724072,23.86097456724072 0 0,0 -0.37618454103478827,0.16490824774505433 l -1.1260517714273905 -2.630053779386168" fill="#ff1e03" stroke="none" /><path d="M 108.2653958097858 119.30500536409082 l 2.3305955400582747 5.4434367618647785 a26.92137478561866,26.92137478561866 0 0,0 -0.42757365907472583,0.1787258241704859 l -2.2365504214860876 -5.482747629055238" fill="#ff4906" stroke="none" /><path d="M 107.93186726928326 119.44442032107085 l 2.2064786011877766 5.409028655470736 a26.841758195372616,26.841758195372616 0 0,0 -0.42931337427648436,0.1708326516428958 l -2.113044150869426 -5.4462081515197" fill="#ff4806" stroke="none" /><path d="M 107.59598834532513 119.57807347666477 l 2.4373207216169526 6.282005975349065 a27.73825877911681,27.73825877911681 0 0,0 -0.44662530083224455,0.16887547256691393 l -2.3288252000244336 -6.32302969802261" fill="#ff5507" stroke="none" /><path d="M 107.2578585660854 119.70592522655815 l 2.9534347052690233 8.018916727795094 a29.54551356242558,29.54551356242558 0 0,0 -0.47875049221153837,0.1716628933804168 l -2.81496465242775 -8.068567162215473" fill="#ff6d0a" stroke="none" /><path d="M 106.91757812671514 119.82793768551818 l 5.005617225850965 14.34766107641482 a36.19577514230205,36.19577514230205 0 0,0 -0.5900433033813496,0.2001747243778155 l -4.757904189532388 -14.43169878769076" fill="#ffc512" stroke="none" /><path d="M 106.57524785965236 119.94407469862006 l 2.3111099469924357 7.010070251857841 a28.381213594190974,28.381213594190974 0 0,0 -0.46528790670927556,0.14897049442050042 l -2.1901006951922195 -7.048813592938048" fill="#ff5d08" stroke="none" /><path d="M 106.2309692047433 120.05430185196036 l 2.136316268430288 6.87570904149887 a28.199945973554886,28.199945973554886 0 0,0 -0.46479557242287484,0.14003909319479294 l -2.0176457215671677 -6.911463503799388" fill="#ff5b08" stroke="none" /><path d="M 105.88484417918355 120.15858648285463 l 1.6758565426399168 5.74066160785781 a26.98027514813839,26.98027514813839 0 0,0 -0.4469331809523446,0.126307781232012 l -1.5767921935829663 -5.768658182428341" fill="#ff4a06" stroke="none" /><path d="M 105.53697534728816 120.25689768951611 l 0.9327945481322227 3.4126075233669413 a24.53779532725762,24.53779532725762 0 0,0 -0.4083901894862818,0.10785956084399871 l -0.8739139158344434 -3.4281584335145237" fill="#ff2803" stroke="none" /><path d="M 105.18746579009965 120.34920634021253 l 3.5619531509850018 13.972703161127072 a35.41956808918986,35.41956808918986 0 0,0 -0.5920915730249656,0.14552170313313523 l -3.3209082932168252 -14.031946122574238" fill="#ffbb11" stroke="none" /><path d="M 104.83641907484287 120.43548508189849 l 1.9083202234640588 8.063289978516181 a29.286032304602813,29.286032304602813 0 0,0 -0.4915588710286769,0.1118771986678425 l -1.7692412030425197 -8.094943910761708" fill="#ff6a09" stroke="none" /><path d="M 104.48393922423573 120.51570834832081 l 3.2080996693841395 14.67826254506106 a36.02475606558872,36.02475606558872 0 0,0 -0.6069460140918617,0.12719143847850772 l -2.9549621938628996 -14.731309964266108" fill="#ffc212" stroke="none" /><path d="M 104.13013068566511 120.58985236759428 l 0.673669738844971 3.358431372517218 a24.425330962249244,24.425330962249244 0 0,0 -0.4129420722096646,0.0791413309493974 l -0.615760052063602 -3.3695299018150835" fill="#ff2603" stroke="none" /><path d="M 103.7750983002368 120.6578951692458 l 0.6394188904695598 3.4989945580296635 a24.556939616385204,24.556939616385204 0 0,0 -0.4164752048511597,0.07240955277239948 l -0.5790947141463502 -3.509482689323069" fill="#ff2803" stroke="none" /><path d="M 103.41894727170886 120.7198165907248 l 2.549805465382112 15.45256401639057 a36.66152108168109,36.66152108168109 0 0,0 -0.6235324055207985,0.09738293815075891 l -2.2834371962527964 -15.494165261888435" fill="#ffcb12" stroke="none" /><path d="M 103.06178313531738 120.77559828337769 l 1.0302627060109182 6.990803450293931 a28.06631262569372,28.06631262569372 0 0,0 -0.478559242955857,0.06632395043192882 l -0.9097748718682308 -7.007501966218462" fill="#ff5908" stroke="none" /><path d="M 102.70371172650421 120.8252237178851 l 1.4631719268454142 11.27001906881633 a32.3646030242588,32.3646030242588 0 0,0 -0.5530842137730879,0.06697079583014641 l -1.268960290020946 -11.293535393371828" fill="#ff930d" stroke="none" /><path d="M 102.34483914955558 120.86867818915974 l 0.8559974189519691 7.618234568561184 a28.66617437336727,28.66617437336727 0 0,0 -0.4908296135563183,0.05087649632632153 l -0.7247352087900482 -7.631840433343264" fill="#ff6109" stroke="none" /><path d="M 101.98527174616119 120.90594882070398 l 1.5437214276596105 16.256193250359967 a37.32932622122739,37.32932622122739 0 0,0 -0.6402080454026051,0.055239844012301774 l -1.2636690645154636 -16.280357346650934" fill="#ffd313" stroke="none" /><path d="M 101.62511606390274 120.93702456842531 l 0.274051751086486 3.5307190501448154 a24.541338923815267,24.541338923815267 0 0,0 -0.4214533674415864,0.02906589175343878 l -0.21323562286596925 -3.5349132864145396" fill="#ff2803" stroke="none" /><path d="M 101.26447882468166 120.96189622390904 l 0.48690128366311286 8.071605455317734 a29.08627772750527,29.08627772750527 0 0,0 -0.5000234907175555,0.02584550299826245 l -0.34788972453207784 -8.078790765078198" fill="#ff6709" stroke="none" /><path d="M 100.90346689309514 120.98055641714683 l 0.5470839391679468 12.704533545557704 a33.71630738251858,33.71630738251858 0 0,0 -0.5800483654278875,0.01997803852802195 l -0.3283152220654071 -12.71206838251182" fill="#ffa50f" stroke="none" /><line stroke="#e1ed5e" stroke-width="0.3" x1="102.19456741930631" x2="102.32365962044197" y1="184.97166512339345" y2="189.96999836594603" /><path d="M 102.22038585953345 185.97133177190398 a86.0,86.0 0 0,1 -42.740103519485714,-10.115201625700543" fill="none" id="id91" stroke="none" /><text fill="#e1ed5e" style="font-size:6.75px; font-family:Arial;" text-anchor="middle"><textPath startOffset="22.20632615414155" xlink:href="#id91">July</textPath></text><path d="M 100.54218724476979 120.99299961872073 l 0.09109821623716695 3.52724051917705 a24.528416722146915,24.528416722146915 0 0,0 -0.42216945459498334,0.007268030017133301 l -0.03036907174951567 -3.528286026473343" fill="#ff2803" stroke="none" /><path d="M 100.18074693466247 120.99922214144158 l 0.10797574253899715 12.54464761849373 a33.54511230053989,33.54511230053989 0 0,0 -0.5774453544028966,0.0 l 0.10797574253898852 -12.54464761849373" fill="#ffa20f" stroke="none" /><path d="M 99.81925306533755 120.99922214144158 l -0.11548935537443207 13.417580956538584 a34.41807797400476,34.41807797400476 0 0,0 -0.5923847988677435,-0.010198441533376146 l 0.34643384413484357 -13.413605037726049" fill="#ffae10" stroke="none" /><path d="M 99.45781275523022 120.99299961872073 l -0.26810430280484543 10.380756059559026 a31.384217653981157,31.384217653981157 0 0,0 -0.5399275769998463,-0.01859619745275398 l 0.44675223147933474 -10.374603063680178" fill="#ff860c" stroke="none" /><path d="M 99.09653310690486 120.98055641714683 l -0.3608527177171159 8.379820954377214 a29.387586894411484,29.387586894411484 0 0,0 -0.5052033099722822,-0.026113240487728638 l 0.5050440961028871 -8.372367907127284" fill="#ff6b09" stroke="none" /><path d="M 98.73552117531835 120.96189622390904 l -0.9209975256193124 15.267835394056178 a36.29558871250765,36.29558871250765 0 0,0 -0.6233114718658185,-0.04298720847790949 l 1.183671758264061 -15.249719841061983" fill="#ffc612" stroke="none" /><path d="M 98.37488393609728 120.93702456842531 l -1.513805231312823 19.502962295316177 a40.56162428253018,40.56162428253018 0 0,0 -0.6956428317612336,-0.06002299063674039 l 1.8492923808155983 -19.474015052400773" fill="#fffb17" stroke="none" /><path d="M 98.01472825383883 120.90594882070398 l -0.6969534595849697 7.339284097842107 a28.372301892466524,28.372301892466524 0 0,0 -0.485797853323638,-0.05035493380457344 l 0.823183909514201 -7.326199795581773" fill="#ff5d08" stroke="none" /><path d="M 97.65516085044442 120.86867818915974 l -1.1022618312801504 9.809946853514049 a30.871678601609112,30.871678601609112 0 0,0 -0.5275713740232735,-0.06388154623780447 l 1.2709606283548132 -9.789519778550895" fill="#ff7f0b" stroke="none" /><path d="M 97.2962882734958 120.8252237178851 l -1.2280606945646655 9.459084876817705 a30.53847051556884,30.53847051556884 0 0,0 -0.5207120552623408,-0.07216594612030369 l 1.3907013410138374 -9.436544365204798" fill="#ff7b0b" stroke="none" /><path d="M 96.93821686468263 120.77559828337769 l -3.229286586990871 21.912185778065577 a43.14886402128512,43.14886402128512 0 0,0 -0.7338679406874203,-0.11461507957889774 l 3.6059903912868085 -21.853352391139573" fill="#e4ff1a" stroke="none" /><path d="M 96.58105272829116 120.7198165907248 l -0.5839802550636787 3.539090490704278 a24.586947788816794,24.586947788816794 0 0,0 -0.41698413063571943,-0.07249803604349238 l 0.644813357171448 -3.528513876139779" fill="#ff2803" stroke="none" /><path d="M 96.22490169976321 120.6578951692458 l -1.485187195977879 8.127163575924017 a29.261753373039085,29.261753373039085 0 0,0 -0.4947081000878483,-0.09481198479703534 l 1.6248629106374226 -8.100394392778513" fill="#ff6909" stroke="none" /><path d="M 95.86986931433489 120.58985236759428 l -2.857898827093732 14.24742203330663 a35.531229139376165,35.531229139376165 0 0,0 -0.5986310597819176,-0.12544895895807562 l 3.102721348305036 -14.196117093622014" fill="#ffbc11" stroke="none" /><path d="M 95.51606077576429 120.51570834832081 l -1.5326418287303896 7.012412788897518 a28.17794706702881,28.17794706702881 0 0,0 -0.4729599320286733,-0.10764414070438537 l 1.6531219101519257 -6.984991914615446" fill="#ff5b08" stroke="none" /><path d="M 95.16358092515715 120.4354850818985 l -2.2120455372585477 9.34663081871085 a30.60482447107603,30.60482447107603 0 0,0 -0.5116058619800881,-0.12574027356592493 l 2.372604683981846 -9.307169286830895" fill="#ff7c0b" stroke="none" /><path d="M 94.81253420990036 120.34920634021253 l -1.835845927767068 7.201591124565933 a28.431907224658133,28.431907224658133 0 0,0 -0.47320110971976587,-0.12497671393494958 l 1.9595374802983232 -7.168923061327402" fill="#ff5e08" stroke="none" /><path d="M 94.46302465271185 120.25689768951611 l -2.898929340684932 10.605666700710893 a31.994724075157677,31.994724075157677 0 0,0 -0.529998442420966,-0.14978285383951487 l 3.081058951210512 -10.554195053532856" fill="#ff8e0d" stroke="none" /><path d="M 94.11515582081647 120.15858648285463 l -2.3887181477561787 8.18257542570788 a29.52411373614983,29.52411373614983 0 0,0 -0.48662069626447374,-0.14661482397404582 l 2.5292138184608985 -8.140245232628107" fill="#ff6d0a" stroke="none" /><path d="M 93.76903079525671 120.05430185196036 l -2.092130096102328 6.733496360224022 a28.051026987054247,28.051026987054247 0 0,0 -0.4598747542819413,-0.1472373739549875 l 2.2077261954752094 -6.696486139609328" fill="#ff5908" stroke="none" /><path d="M 93.42475214034765 119.94407469862007 l -3.634779523254849 11.02503143184053 a32.60874412913578,32.60874412913578 0 0,0 -0.5315695279194629,-0.18033724496005693 l 3.8240187841115376 -10.960831199982351" fill="#ff960d" stroke="none" /><path d="M 93.08242187328487 119.8279376855182 l -3.6639754697533355 10.502097116181679 a32.122893512061765,32.122893512061765 0 0,0 -0.5205139199108991,-0.18663777268182105 l 3.8442089502939614 -10.4374718024599" fill="#ff900d" stroke="none" /><path d="M 92.7421414339146 119.70592522655815 l -3.3180773066163254 9.008963553747957 a30.60057609341446,30.60057609341446 0 0,0 -0.4927126685273521,-0.1863017714899126 l 3.4726601959039605 -8.950513532151412" fill="#ff7c0b" stroke="none" /><path d="M 92.40401165467489 119.57807347666478 l -3.9321542744933695 10.134824042350171 a31.87090132453678,31.87090132453678 0 0,0 -0.5097506686886445,-0.20284031112605777 l 4.106026019223872 -10.065636886818048" fill="#ff8c0c" stroke="none" /><path d="M 92.06813273071674 119.44442032107085 l -4.444084073437038 10.89436266800956 a32.765926278619,32.765926278619 0 0,0 -0.52039864618674,-0.217526676311638 l 4.6309541791212405 -10.816250948677949" fill="#ff980e" stroke="none" /><path d="M 91.7346041902142 119.30500536409082 l -1.3528868560019123 3.159859323518802 a24.437297454334065,24.437297454334065 0 0,0 -0.38527066449376046,-0.1688913372529105 l 1.4070781951534161 -3.1361034329714395" fill="#ff2603" stroke="none" /><path d="M 91.40352486487194 119.15986991738527 l -8.552255443988729 19.061312832452373 a41.89197740942318,41.89197740942318 0 0,0 -0.6553740618849421,-0.30085008774351824 l 8.879097501641091 -18.91127567437478" fill="#f3ff19" stroke="none" /><path d="M 91.07499286063937 119.00905698771935 l -6.586621239162438 14.028611578313075 a36.497919930215325,36.497919930215325 0 0,0 -0.5663909404570793,-0.2719020709401704 l 6.82712484761976 -13.913155230873341" fill="#ffc812" stroke="none" /><path d="M 90.7491055286396 118.85261126421891 l -3.935963828404448 8.021191489824002 a29.934837669198764,29.934837669198764 0 0,0 -0.46063456271202297,-0.2309717323604681 l 4.073452298799231 -7.952251916554232" fill="#ff730a" stroke="none" /><path d="M 90.42595943632237 118.69057910512821 l -3.541689629031022 6.914137216877308 a28.768452798478844,28.768452798478844 0 0,0 -0.4387998643614224,-0.22955935007155184 l 3.66018039591894 -6.8521484478610395" fill="#ff6309" stroke="none" /><path d="M 90.10565033884886 118.52300852407294 l -5.304346427092839 9.930157862669015 a32.25806938138773,32.25806938138773 0 0,0 -0.48752263594338757,-0.2658362125062483 l 5.474491874904867 -9.837380998403" fill="#ff920d" stroke="none" /><line stroke="#e1ed5e" stroke-width="0.3" x1="58.666819895761336" x2="56.23545636021788" y1="174.27360380694188" y2="178.64263932499728" /><path d="M 58.180547188652646 175.14741091055294 a86.0,86.0 0 0,1 -31.652253787137756,-30.449443065178592" fill="none" id="id92" stroke="none" /><text fill="#e1ed5e" style="font-size:6.75px; font-family:Arial;" text-anchor="middle"><textPath startOffset="22.20632615414155" xlink:href="#id92">August</textPath></text><path d="M 89.7882731507175 118.34994917583269 l -8.678157470111465 15.594203690202226 a38.84627708536344,38.84627708536344 0 0,0 -0.5814940524906881,-0.33018749906675526 l 8.945300289523361 -15.442513025340839" fill="#ffe615" stroke="none" /><path d="M 89.4739219176387 118.17145234162733 l -1.8192200290370757 3.140568576246522 a24.629425918262662,24.629425918262662 0 0,0 -0.36502231732807777,-0.21566161911597465 l 1.8730102173935357 -3.1087883848367976" fill="#ff2904" stroke="none" /><path d="M 89.1626897886671 117.98757091392108 l -9.60595008833011 15.943781717047735 a39.61393167872803,39.61393167872803 0 0,0 -0.5810435680718413,-0.35692441656609575 l 9.87897285633426 -15.77606883365326" fill="#ffef16" stroke="none" /><path d="M 88.8546689885994 117.79835938074946 l -7.2342268348178775 11.55258367079846 a34.63070898260242,34.63070898260242 0 0,0 -0.5025051064293348,-0.3207225341294308 l 7.432013743294136 -11.426346707845225" fill="#ffb110" stroke="none" /><path d="M 88.54995079064634 117.60387380957326 l -6.155450767494401 9.463695445386557 a32.28942450411347,32.28942450411347 0 0,0 -0.4633152650578691,-0.30706009387113975 l 6.317440731292232 -9.356337330424099" fill="#ff920d" stroke="none" /><path d="M 88.24862548938628 117.40417183066458 l -7.188323098388092 10.646142735531615 a33.845713063591774,33.845713063591774 0 0,0 -0.48003393433428165,-0.3301717172182236 l 7.370513917345264 -10.520830228948292" fill="#ffa60f" stroke="none" /><path d="M 87.95078237400918 117.19931262002967 l -12.508945881239908 17.855538628034882 a42.801238193208995,42.801238193208995 0 0,0 -0.599773082594852,-0.427922169468409 l 12.814446291683648 -17.637572196722253" fill="#e8ff1a" stroke="none" /><path d="M 87.65650970185807 116.9893568818739 l -4.183691547047555 5.758357406184332 a28.1177211927832,28.1177211927832 0 0,0 -0.3891158274382501,-0.2878585866932099 l 4.28219234490437 -5.685488870751355" fill="#ff5a08" stroke="none" /><path d="M 87.07902340077011 116.55440617244103 l -9.186554315821859 11.76984961634946 a35.93057735618508,35.93057735618508 0 0,0 -0.48428003347654974,-0.3847413475057724 l 9.387791842015766 -11.609974354838556" fill="#ffc112" stroke="none" /><path d="M 86.79598089348748 116.32954008644616 l -5.177365404644447 6.402898635281588 a29.234210555171636,29.234210555171636 0 0,0 -0.38857816354107433,-0.31977337432761205 l 5.28681369673021 -6.312830142096795" fill="#ff6909" stroke="none" /><path d="M 86.51685102203217 116.09983520530335 l -4.34976949514744 5.193932972732326 a27.77476452625117,27.77476452625117 0 0,0 -0.36389507624355194,-0.3101192785098419 l 4.438530047968048 -5.118289303999532" fill="#ff5507" stroke="none" /><path d="M 86.24171649860922 115.8653595955263 l -8.502227518589939 9.804340558309685 a33.9774021499368,33.9774021499368 0 0,0 -0.4385635562432627,-0.38698134747435065 l 8.66973342773979 -9.656536069063046" fill="#ffa80f" stroke="none" /><path d="M 85.97065885151581 115.62618273729859 l -5.95636491306469 6.6343276991050155 a29.915861539789645,29.915861539789645 0 0,0 -0.3802169963360501,-0.34731921129500803 l 6.069681458867595 -6.530815721223432" fill="#ff720a" stroke="none" /><path d="M 85.70375840098266 115.38237550388516 l -7.425054355459262 7.989160888291299 a31.90679255695862,31.90679255695862 0 0,0 -0.3990843354399442,-0.37735914874672666 l 7.561474525290023 -7.860167102798641" fill="#ff8d0d" stroke="none" /><path d="M 85.18274418774928 114.88116024355367 l -6.34253520736155 6.3698895373792705 a29.98906255262665,29.98906255262665 0 0,0 -0.3626668371921704,-0.36737959134627046 l 6.451242669609254 -6.259769452052335" fill="#ff730a" stroke="none" /><path d="M 84.9287848128048 114.62390073753433 l -10.652245625565044 10.33608642204572 a35.842675614301065,35.842675614301065 0 0,0 -0.42583394032463406,-0.44648518396872017 l 10.828586117268637 -10.151194121494498" fill="#ffc011" stroke="none" /><path d="M 84.67929136418377 114.36230785411682 l -9.586787131574699 8.987076994185383 a34.14054947121856,34.14054947121856 0 0,0 -0.39823096314164297,-0.43220105891981375 l 9.740064502712071 -8.820724680464226" fill="#ffaa0f" stroke="none" /><path d="M 84.43433777217949 114.09645910891817 l -5.4273099512693594 4.915040020767911 a28.322111151361856,28.322111151361856 0 0,0 -0.3241413702145683,-0.36417626563514355 l 5.511110171132266 -4.820889585391904" fill="#ff5d08" stroke="none" /><path d="M 84.19399662182784 113.82643327865904 l -9.355621484945106 8.183907920747341 a33.429963886706894,33.429963886706894 0 0,0 -0.3751438759371829,-0.43637707978806556 l 9.495107870453067 -8.021653741797746" fill="#ffa10e" stroke="none" /><path d="M 83.95833913139862 113.55231037782056 l -7.440270044037125 6.285686361126959 a30.73999339623255,30.73999339623255 0 0,0 -0.3379994018303034,-0.40714205331235265 l 7.547365445760965 -6.156683050700845" fill="#ff7d0b" stroke="none" /><path d="M 83.72743513129214 113.27417163493432 l -2.808095887887241 2.2906743395350446 a24.623891754091662,24.623891754091662 0 0,0 -0.26509623148095884,-0.33074830918147924 l 2.847110031423061 -2.241998196775306" fill="#ff2904" stroke="none" /><path d="M 83.50135304334701 112.99209946851258 l -10.724925315506646 8.4454984010215 a34.65102436686903,34.65102436686903 0 0,0 -0.36497954125533455,-0.4717852568097977 l 10.868711673980048 -8.259635150098449" fill="#ffb110" stroke="none" /><path d="M 83.28015986056508 112.70617746262583 l -7.676172881426678 5.833477715804264 a30.64121840673342,30.64121840673342 0 0,0 -0.3155151550091085,-0.42268411088442825 l 7.775449303130872 -5.700480725410528" fill="#ff7c0b" stroke="none" /><path d="M 83.06392112726016 112.41649034213515 l -3.727520489168403 2.7327885339720877 a25.62196302111771,25.62196302111771 0 0,0 -0.25770839757452335,-0.3579344244175984 l 3.7740086791185337 -2.668220504103351" fill="#ff3705" stroke="none" /><path d="M 82.85270091963577 112.12312394758628 l -9.550072647310097 6.751892170841784 a32.69580845668973,32.69580845668973 0 0,0 -0.3209468711839359,-0.46234790528922776 l 9.664880425656166 -6.586503003365544" fill="#ff970e" stroke="none" /><path d="M 82.6465618267979 111.8261652097733 l -9.046658892508605 6.165192257087457 a31.9476770451204,31.9476770451204 0 0,0 -0.3057801845433378,-0.45709988709203514 l 9.151442182462672 -6.008555455789601" fill="#ff8d0d" stroke="none" /><path d="M 82.44556493220864 111.52570212397912 l -9.388597266429388 6.164264189476097 a32.23138066440911,32.23138066440911 0 0,0 -0.3005117895587824,-0.4664009708868289 l 9.493313919365216 -6.00174161866782" fill="#ff910d" stroke="none" /><path d="M 82.24976979558568 111.22182372390057 l -2.8548578644691287 1.8048617591391314 a24.377534514394195,24.377534514394195 0 0,0 -0.22118011060509238,-0.3566127635757995 l 2.885502614742177 -1.7554526641980677" fill="#ff2503" stroke="none" /><path d="M 82.05923443525364 110.91462005526583 l -16.448847879565417 10.006982383466623 a40.253682582511196,40.253682582511196 0 0,0 -0.35503580180257427,-0.5950604254422807 l 16.61866455706622 -9.722359864138232" fill="#fff717" stroke="none" /><line stroke="#e1ed5e" stroke-width="0.3" x1="26.63291911575756" x2="22.317208475507996" y1="142.92168965132927" y2="145.44649492493687" /><path d="M 25.769776987707644 143.4266507060508 a86.0,86.0 0 0,1 -11.730757126820373,-40.83630448921669" fill="none" id="id93" stroke="none" /><text fill="#e1ed5e" style="font-size:6.75px; font-family:Arial;" text-anchor="middle"><textPath startOffset="21.46611528233685" xlink:href="#id93">September</textPath></text><path d="M 81.87401531095188 110.60418214915194 l -6.178284777670304 3.6144605810758352 a28.157899697966133,28.157899697966133 0 0,0 -0.24114962158194236,-0.4204646917902168 l 6.239586395404624 -3.5075760434273113" fill="#ff5a08" stroke="none" /><path d="M 81.69416730710424 110.29060199501025 l -9.742702479619554 5.476848568187403 a32.17658811289212,32.17658811289212 0 0,0 -0.26725504905953784,-0.48514554351961037 l 9.835533938130608 -5.30833250626997" fill="#ff910d" stroke="none" /><path d="M 81.51974371655577 109.97397251340807 l -7.074432848932034 3.8181396243087526 a29.039016751118584,29.039016751118584 0 0,0 -0.23362233541509536,-0.441925415729522 l 7.139107692572015 -3.6957991934931043" fill="#ff6609" stroke="none" /><path d="M 81.35079622478065 109.6543875284942 l -4.261339356959119 2.20602563189182 a25.798495827207987,25.798495827207987 0 0,0 -0.200763071695037,-0.3961245868518605 l 4.298681098440422 -2.132346833337275" fill="#ff3a05" stroke="none" /><path d="M 81.18737489456691 109.33194174019688 l -1.4533932460677483 0.720951011455752 a22.622381671689624,22.622381671689624 0 0,0 -0.1700413940235751,-0.350335636285809 l 1.4655878967060425 -0.6958264192046583" fill="#ff0c01" stroke="none" /><path d="M 81.02952815118164 109.00673069616217 l -7.964960691365917 3.781574676916582 a29.817080347376958,29.817080347376958 0 0,0 -0.21613888002843482,-0.46554391896379826 l 8.028874188234179 -3.6439106906739567" fill="#ff710a" stroke="none" /><path d="M 80.87730276802145 108.67885076344099 l -23.563502583231717 10.694313668358241 a46.8767656175806,46.8767656175806 0 0,0 -0.3271527581056499,-0.7376431037224529 l 23.744096426068648 -10.287122228143092" fill="#b9ff1f" stroke="none" /><path d="M 80.73074385275274 108.34839909993369 l -7.846542168403457 3.399511899977993 a29.551310142815872,29.551310142815872 0 0,0 -0.19820347800464064,-0.4684944736420679 l 7.903896627600404 -3.263942900669766" fill="#ff6d0a" stroke="none" /><path d="M 80.58989483394504 108.01547362559985 l -11.133890030018357 4.597780440778502 a33.04587448806219,33.04587448806219 0 0,0 -0.21259101204360406,-0.5276334574302173 l 11.211383656319347 -4.405447615505479" fill="#ff9c0e" stroke="none" /><path d="M 80.45479744820244 107.68017299344265 l -3.2960297125250846 1.295155592101632 a24.541361302324336,24.541361302324336 0 0,0 -0.15111135252157268,-0.39450405778559133 l 3.3178353446401663 -1.2382279674828829" fill="#ff2803" stroke="none" /><path d="M 80.32549172779594 107.34259656027581 l -7.622372179676568 2.8446964454357535 a29.13589918276905,29.13589918276905 0 0,0 -0.171313175374747,-0.4713802825501646 l 7.67020961605654 -2.7130683658794714" fill="#ff6809" stroke="none" /><path d="M 80.20201598880116 107.00284435728193 l -3.2983507809982484 1.1666762202648822 a24.49860704816121,24.49860704816121 0 0,0 -0.13720289609440986,-0.39877583930240224 l 3.3179445080358865 -1.109727677873183" fill="#ff2703" stroke="none" /><path d="M 80.0844068197444 106.66101706037122 l -8.269745824844563 2.765919022629702 a29.720034635669684,29.720034635669684 0 0,0 -0.15809324613665549,-0.4865609809733819 l 8.316131321997467 -2.6231591416785167" fill="#ff700a" stroke="none" /><path d="M 79.97269907076064 106.31721596034903 l -12.099592389223515 3.8165771026751876 a33.68725331843028,33.68725331843028 0 0,0 -0.16967664328066384,-0.554513087666089 l 12.16349580501031 -3.6077370424570505" fill="#ffa40f" stroke="none" /><path d="M 79.86692584326677 105.97154293290107 l -16.595277563736214 4.922219611559835 a38.30986664656521,38.30986664656521 0 0,0 -0.1820765129161269,-0.6338322276554712 l 16.677546713538444 -4.635829908399768" fill="#ffdf14" stroke="none" /><path d="M 79.76711848015287 105.62410040840567 l -12.922352969066784 3.592004951919468 a34.41229681418373,34.41229681418373 0 0,0 -0.15372779817316132,-0.5720783251469551 l 12.98226884358172 -3.369035693596974" fill="#ffae10" stroke="none" /><path d="M 79.67330655649465 105.27499134158121 l -7.321820325738471 1.9000896004177295 a28.564350161911637,28.564350161911637 0 0,0 -0.11941079803475975,-0.4769867803565245 l 7.353442438068289 -1.773774980663813" fill="#ff6008" stroke="none" /><path d="M 79.58551787078972 104.9243191809786 l -8.775706969980716 2.1168492977389755 a30.027407367140697,30.027407367140697 0 0,0 -0.1168772992744171,-0.5035043463110747 l 8.810844835185689 -1.9654762940793264" fill="#ff740a" stroke="none" /><path d="M 79.50377843672027 104.57218783832718 l -20.283264036807978 4.524682408625988 a41.78180817171108,41.78180817171108 0 0,0 -0.15054574662588263,-0.7032996089764126 l 20.3581438221583 -4.174868980233411" fill="#f4ff19" stroke="none" /><path d="M 79.4281124754447 104.21870165774334 l -2.7819596351456153 0.5704998003005353 a23.839853769778028,23.839853769778028 0 0,0 -0.07897810593398896,-0.4027076606445726 l 2.791367674055271 -0.5225284125880079" fill="#ff1e03" stroke="none" /><path d="M 79.35854240842038 103.8639653848113 l -3.601396926609614 0.674161357047868 a24.663953241831805,24.663953241831805 0 0,0 -0.07452455138924419,-0.4179732615028908 l 3.612467920338047 -0.6120693448117634" fill="#ff2a04" stroke="none" /><path d="M 79.29508885075956 103.50808413554451 l -9.738191766191305 1.6499658364928138 a30.87698163087841,30.87698163087841 0 0,0 -0.084276877033362,-0.5247921937353149 l 9.765150397585957 -1.4820944130642852" fill="#ff7f0b" stroke="none" /><path d="M 79.23777060512086 103.15116336523772 l -2.4985360680269264 0.37921242341313544 a23.527149490097948,23.527149490097948 0 0,0 -0.0573232824064381,-0.4009189036393124 l 2.5046934014499636 -0.3361480477934225" fill="#ff1902" stroke="none" /><path d="M 79.18660465613746 102.79330883721812 l -5.614796903915434 0.7535465286550087 a26.6651369483064,26.6651369483064 0 0,0 -0.05713766278094733,-0.455443390612016 l 5.62693607594323 -0.656785383755584" fill="#ff4606" stroke="none" /><path d="M 79.1416061653843 102.43462659150553 l -3.34050158347652 0.38990892820334533 a24.363180013246662,24.363180013246662 0 0,0 -0.045034408391895604,-0.4169626908259054 l 3.3467182933694675 -0.33234991549265785" fill="#ff2503" stroke="none" /><path d="M 79.10278846688536 102.07522291339032 l -5.614720868245769 0.5575766594318302 a26.64233835917855,26.64233835917855 0 0,0 -0.0413912878614744,-0.45674941247098727 l 5.623486752384318 -0.4608458584122767" fill="#ff4506" stroke="none" /><path d="M 79.07016306316243 101.71520430193888 l -4.173367999145032 0.3420083380157091 a25.18735837486596,25.18735837486596 0 0,0 -0.03169222316279202,-0.43241520546773676 l 4.17863678097216 -0.27011999605121173" fill="#ff3104" stroke="none" /><path d="M 79.04373962182676 101.35467743843564 l -14.226543897018738 0.9196477661767595 a35.2562373460754,35.2562373460754 0 0,0 -0.03393605765426053,-0.6059511063709258 l 14.24026630556053 -0.674624943470396" fill="#ffb911" stroke="none" /><path d="M 79.0235259727143 100.99374915477108 l -2.1366089100607963 0.1012206958942382 a23.139005204254655,23.139005204254655 0 0,0 -0.015423653371644214,-0.3980159600589677 l 2.1380346962836416 -0.06442748882127369" fill="#ff1402" stroke="none" /><path d="M 79.0095281055655 100.63252640178507 l -6.213692820026404 0.18724327785556655 a27.216513372200673,27.216513372200673 0 0,0 -0.010080396901982532,-0.4683964338760699 l 6.215995279613394 -0.08025702818936785" fill="#ff4d07" stroke="none" /><line stroke="#e1ed5e" stroke-width="0.3" x1="15.007084014347285" x2="10.007500721073583" y1="101.09737516637583" y2="101.16192664675087" /><path d="M 14.007167355692545 101.11028546245083 a86.0,86.0 0 0,1 10.666146001902534,-42.60595125391555" fill="none" id="id94" stroke="none" /><text fill="#e1ed5e" style="font-size:6.75px; font-family:Arial;" text-anchor="middle"><textPath startOffset="22.20632615414155" xlink:href="#id94">October</textPath></text><path d="M 79.00175016825051 100.2711162175752 l -3.547564561280992 0.04580392619217675 a24.54786024472659,24.54786024472659 0 0,0 -0.0018185320342677324,-0.4225628004214032 l 3.5478273906047626 0.015268352432901852" fill="#ff2803" stroke="none" /><path d="M 79.00019446554 99.90962569577889 l -1.2998373879713034 -0.00559395177949326 a22.29984942491989,22.29984942491989 0 0,0 0.004955868502005528,-0.38383747703902743 l 1.2995485123515824 0.027967686878992662" fill="#ff0801" stroke="none" /><path d="M 79.00486145842228 99.54816195383935 l -7.061694697524218 -0.15197529315624986 a28.063329844398574,28.063329844398574 0 0,0 0.014550576663706018,-0.4828628016876329 l 7.058032426404867 0.2735082422688772" fill="#ff5908" stroke="none" /><path d="M 79.01574976396665 99.18683210126434 l -10.711061917119082 -0.41506804457635155 a31.71910112248164,31.71910112248164 0 0,0 0.025838065251544702,-0.5454007201537984 l 10.702330243634039 0.599379871353159" fill="#ff8a0c" stroke="none" /><path d="M 79.03285615573316 98.82574320788736 l -5.5152068568584935 -0.3088770296839049 a26.523849354698704,26.523849354698704 0 0,0 0.029453356725692888,-0.4556303921821981 l 5.509072909128387 0.4037664861191148" fill="#ff4406" stroke="none" /><path d="M 79.05617556472873 98.46500227214037 l -34.40328093416122 -2.521457254765711 a55.49555747806421,55.49555747806421 0 0,0 0.07802547525069593,-0.9521084293401112 l 34.354780975091025 3.1132796013136" fill="#5cff2a" stroke="none" /><path d="M 79.08570108090925 98.10471618934814 l -5.686170535444909 -0.5152889418921456 a26.70947090821892,26.70947090821892 0 0,0 0.0454351939213559,-0.45752620226783375 l 5.676458215841324 0.6130906748644096" fill="#ff4606" stroke="none" /><path d="M 79.12142395522702 97.74499172005258 l -14.803356992230842 -1.5988491033542178 a35.88944917365066,35.88944917365066 0 0,0 0.07162448313158747,-0.6136348311367088 l 14.773642156095667 1.8534276728157884" fill="#ffc111" stroke="none" /><path d="M 79.16333360222342 97.38593545837743 l -11.777473930798317 -1.477543307775431 a32.86979470829154,32.86979470829154 0 0,0 0.0752624399867761,-0.5607925973371894 l 11.750295491753707 1.68005424717728" fill="#ff9a0e" stroke="none" /><path d="M 79.21141760316559 97.0276538004421 l -6.26274797946925 -0.895446105954727 a27.326439439607057,27.326439439607057 0 0,0 0.07058563299459522,-0.4650711290894907 l 6.246406453035352 1.0031163474363098" fill="#ff4f07" stroke="none" /><path d="M 79.26566170972629 96.67025291283419 l -3.4643677316305377 -0.5563461057582527 a24.508755444506683,24.508755444506683 0 0,0 0.07047800560713607,-0.41596517862447663 l 3.454277864503178 0.6158970726985573" fill="#ff2703" stroke="none" /><path d="M 79.32604984820605 96.31383870115002 l -5.264903647739164 -0.9387312983719361 a26.347936692830256,26.347936692830256 0 0,0 0.083453044552019,-0.44580950098051764 l 5.2479648792772835 1.0292188768150266" fill="#ff4106" stroke="none" /><path d="M 79.3925641242962 95.95851677861259 l -23.338446366103707 -4.577082756475483 a44.78303524243961,44.78303524243961 0 0,0 0.15486550239855124,-0.7551791890590547 l 23.25620156779016 4.978137601697941" fill="#d1ff1c" stroke="none" /><path d="M 79.46518482838121 95.60439243477599 l -4.737529801579415 -1.0140983331117583 a25.84485129287506,25.84485129287506 0 0,0 0.0968635649450911,-0.434220368612442 l 4.719371849632286 1.0954968712741597" fill="#ff3a05" stroke="none" /><path d="M 79.54389044137918 95.25157060432595 l -15.29872383783379 -3.55125737764024 a36.705488850352545,36.705488850352545 0 0,0 0.14816292880487003,-0.6142309933892968 l 15.235328108768107 3.814073602688934" fill="#ffcb12" stroke="none" /><path d="M 79.62865764111835 94.90015583598534 l -5.439070418950209 -1.3616388672420674 a26.60691960233812,26.60691960233812 0 0,0 0.11504789988210117,-0.44332648923771956 l 5.414826187197801 1.4550617820286509" fill="#ff4506" stroke="none" /><path d="M 79.71946130924805 94.55025226153421 l -8.946478751597615 -2.4040807341071457 a30.263859143407394,30.263859143407394 0 0,0 0.1395210447046686,-0.5019314311700037 l 8.903770936326586 2.557723468696092" fill="#ff770b" stroke="none" /><path d="M 79.81627453868168 94.20196356495316 l -7.937538353016651 -2.280160650399884 a29.258549975464355,29.258549975464355 0 0,0 0.14321935221619747,-0.48286445751922435 l 7.897113103688746 2.4164544946656474" fill="#ff6909" stroke="none" /><path d="M 79.91906864156998 93.8553929516997 l -20.018607466092323 -6.125536427456071 a41.93482365355817,41.93482365355817 0 0,0 0.21715152911770788,-0.6884296893096112 l 19.910200453206414 6.469216283192097" fill="#f3ff19" stroke="none" /><path d="M 80.02781315780177 93.51064311812611 l -8.774315729100973 -2.850948001351098 a30.225861532689322,30.225861532689322 0 0,0 0.16503709911513528,-0.4934399200357821 l 8.723941336214066 3.0015610243092024" fill="#ff760a" stroke="none" /><path d="M 80.14247586403 93.16781622104843 l -3.1812737955857187 -1.094549706890875 a24.364304091983254,24.364304091983254 0 0,0 0.13985913316673962,-0.39540060309579644 l 3.1619615816091695 1.1491479364132826" fill="#ff2503" stroke="none" /><path d="M 80.2630227832202 92.82701384747504 l -9.055317263871887 -3.2909631818012897 a30.63479161234678,30.63479161234678 0 0,0 0.18438557580997425,-0.4940616724299739 l 8.997327099560284 3.446347991260605" fill="#ff7c0b" stroke="none" /><path d="M 80.38941819471856 92.48833698450439 l -7.894010950237596 -3.0237323240887997 a29.45330503709706,29.45330503709706 0 0,0 0.18542461443839564,-0.47188541851618715 l 7.840792785917509 3.15916674750075" fill="#ff6c09" stroke="none" /><path d="M 80.52162464483688 92.15188598940014 l -2.0352072083486026 -0.8200138828354926 a23.194194874881685,23.194194874881685 0 0,0 0.15239504204137747,-0.3690366821694976 l 2.0207904794210254 0.8549251354583014" fill="#ff1502" stroke="none" /><path d="M 80.65960295795068 91.81776055985345 l -5.874106989253498 -2.4851273621018484 a27.378165169315082,27.378165169315082 0 0,0 0.18735698487105298,-0.43244575268148505 l 5.830459294539764 2.585872259369933" fill="#ff5007" stroke="none" /><path d="M 80.803312248108 91.48605970444005 l -13.046782215436002 -5.78639014537534 a35.27238021815261,35.27238021815261 0 0,0 0.25093389903712904,-0.5528995839795311 l 12.945245999435521 6.010111738196942" fill="#ffb911" stroke="none" /><path d="M 80.95270993114464 91.15688171328213 l -13.965159344896733 -6.483628670186294 a36.39685410274509,36.39685410274509 0 0,0 0.2687159046937074,-0.5659842263845914 l 13.851485246361275 6.723055312211418" fill="#ffc712" stroke="none" /><path d="M 81.10775173730289 90.83032412892265 l -1.25089106357295 -0.6071413758435135 a22.390449245095922,22.390449245095922 0 0,0 0.17127626079521321,-0.3452824903440467 l 1.2402547898243241 0.6285834546865217" fill="#ff0901" stroke="none" /><path d="M 81.26839172434947 90.50648371742162 l -3.1108885621707487 -1.5766543258672323 a24.487616164304875,24.487616164304875 0 0,0 0.19379099099539912,-0.37434251216955233 l 3.0832881380152357 1.62996956029712" fill="#ff2703" stroke="none" /><path d="M 81.43458229118936 90.18545643968196 l -9.357356186250897 -4.9467338327533055 a31.58443623479655,31.58443623479655 0 0,0 0.25822818534596154,-0.47845760938150933 l 9.270819901686464 5.107072425467288" fill="#ff890c" stroke="none" /><path d="M 81.6062741919709 89.86733742301443 l -6.3065444585533275 -3.474124149300133 a28.200141777247172,28.200141777247172 0 0,0 0.2378780776337824,-0.4231585569613131 l 6.2458087396271145 3.5821662161962307" fill="#ff5b08" stroke="none" /><line stroke="#e1ed5e" stroke-width="0.3" x1="26.266209847984243" x2="21.928928074336255" y1="57.711370442889674" y2="55.22380399835377" /><path d="M 25.398753493254645 57.213857153982495 a86.0,86.0 0 0,1 29.58750427330803,-30.492523968695096" fill="none" id="id95" stroke="none" /><text fill="#e1ed5e" style="font-size:6.75px; font-family:Arial;" text-anchor="middle"><textPath startOffset="21.46611528233685" xlink:href="#id95">November</textPath></text><path d="M 81.78341655067845 89.55222093294921 l -8.64270552297874 -4.956861317978072 a30.963274204928545,30.963274204928545 0 0,0 0.26914505489677365,-0.46005614346997087 l 8.556100793611643 5.104896873801935" fill="#ff800b" stroke="none" /><path d="M 81.96595687620814 89.24020034530311 l -8.885159201846031 -5.301225701618947 a31.346450984837965,31.346450984837965 0 0,0 0.28045251999269094,-0.4609902028429906 l 8.792590883567124 5.453383677669011" fill="#ff850c" stroke="none" /><path d="M 82.15384107792192 88.93136811851018 l -53.53847676623425 -33.20589564446946 a84.0,84.0 0 0,0 0.7726896150161493,-1.222209409143138 l 52.95895955497213 34.12255270132681" fill="#4dd2ff" stroke="none" /><path d="M 82.34701348167596 88.62581576622439 l -2.958772978499452 -1.9063986101409423 a24.519757548332816,24.519757548332816 0 0,0 0.23165725703796491,-0.35282989555968686 l 2.925519086103567 1.9570465696782962" fill="#ff2703" stroke="none" /><path d="M 82.54541684631803 88.32363383020206 l -0.7590290373436245 -0.5077578132631512 a21.9132048381719,21.9132048381719 0 0,0 0.2124282087543423,-0.3117121840828095 l 0.7501763629205418 0.5207480206163765" fill="#ff0200" stroke="none" /><path d="M 82.7489923806493 88.02491185347247 l -2.956426616213604 -2.0522551557037985 a24.598917831955745,24.598917831955745 0 0,0 0.24445160561954798,-0.3457594602147242 l 2.9206623907901776 2.102841116250309" fill="#ff2903" stroke="none" /><path d="M 82.95767976084542 87.72973835380427 l -3.411531689146736 -2.4562609933795674 a25.20378002917022,25.20378002917022 0 0,0 0.2565233380102811,-0.3498975447593009 l 3.3687457386228217 2.5146209818103693" fill="#ff3104" stroke="none" /><path d="M 83.17141714833178 87.43820079747576 l -10.146003874821679 -7.573547012659384 a33.66096398308037,33.66096398308037 0 0,0 0.35059346182616147,-0.46133989965956995 l 10.014134472771408 7.747071688199981" fill="#ffa40f" stroke="none" /><path d="M 83.39014120810768 87.1503855733568 l -6.0965675566547635 -4.716388225240959 a28.707947448189238,28.707947448189238 0 0,0 0.3057340619671545,-0.38825121091818754 l 6.014479414093637 4.820631830112194" fill="#ff6209" stroke="none" /><path d="M 83.6137871275137 86.86637796730984 l -8.396600492272903 -6.729912401551749 a31.76079089841437,31.76079089841437 0 0,0 0.3455899339587653,-0.423652396019686 l 8.279512066237745 6.873448967179517" fill="#ff8b0c" stroke="none" /><path d="M 83.84228863543731 86.58626213691792 l -2.7427040149390685 -2.2769259743742882 a24.56466228503391,24.56466228503391 0 0,0 0.27288928544626373,-0.32301484025691934 l 2.7031041160056803 2.3237997642603236" fill="#ff2803" stroke="none" /><path d="M 84.07557802195018 86.31012108654704 l -5.423699313505807 -4.662636230515506 a28.15239056969341,28.15239056969341 0 0,0 0.31907133406292476,-0.3647536918910734 l 5.342636115865039 4.755305478609523" fill="#ff5a08" stroke="none" /><path d="M 84.31358615837235 86.03803664274999 l -5.734467780279565 -5.104062013786987 a28.676950551074803,28.676950551074803 0 0,0 0.33136401995035786,-0.36590042713186965 l 5.645760119713162 5.202015228188413" fill="#ff6109" stroke="none" /><path d="M 84.5562425177563 85.77008943001954 l -0.9439984503671238 -0.8698021541952325 a22.283623333278964,22.283623333278964 0 0,0 0.26234475585181877,-0.2798510940835976 l 0.9288863725448492 0.8859226651568802" fill="#ff0701" stroke="none" /><path d="M 84.80347519578584 85.50635884689758 l -4.530839787509776 -4.321275215775317 a27.261144357907398,27.261144357907398 0 0,0 0.3267906784396857,-0.33678651984371016 l 4.455784845366972 4.39862593116915" fill="#ff4e07" stroke="none" /><path d="M 85.05521093208273 85.24692304244772 l -11.876376793036409 -11.724026348467701 a37.688352811159604,37.688352811159604 0 0,0 0.4597336543277472,-0.4577594119131897 l 11.672807338541348 11.926721611030999" fill="#ffd714" stroke="none" /><path d="M 85.83668400450813 84.49514656593479 l -2.395716264810011 -2.622636504566344 a24.55213719562733,24.55213719562733 0 0,0 0.314488339840953,-0.2823507366465076 l 2.3502169373730863 2.6634862499821303" fill="#ff2803" stroke="none" /><path d="M 86.10567301691215 84.25364557470407 l -3.7976656974812033 -4.303870934815013 a26.739823148266055,26.739823148266055 0 0,0 0.34775292975619126,-0.30156791387029375 l 3.7230189690782387 4.368603842104987" fill="#ff4706" stroke="none" /><path d="M 86.37877921826538 84.01681056812374 l -4.298061799490035 -5.0433611665174025 a27.62637360010521,27.62637360010521 0 0,0 0.36459243925814133,-0.30533568276145506 l 4.210611823272783 5.11659800667267" fill="#ff5307" stroke="none" /><path d="M 86.65592168130627 83.78471172551755 l -3.7786257836146455 -4.59166267608519 a26.946543445023437,26.946543445023437 0 0,0 0.3606943706109583,-0.29165642975528266 l 3.6990280144391865 4.656025203104607" fill="#ff4a06" stroke="none" /><path d="M 86.93701828274178 83.55741782278169 l -4.159733294689218 -5.235922242995701 a27.687171511008458,27.687171511008458 0 0,0 0.37571154858832495,-0.2932488231110203 l 4.068989190941467 5.3067494553299435" fill="#ff5407" stroke="none" /><path d="M 87.22198572758235 83.33499621200491 l -10.446798200329209 -13.62464682456227 a38.168767973633294,38.168767973633294 0 0,0 0.5248275504138189,-0.3952892301554995 l 10.210724496156999 13.802452644223623" fill="#ffdd14" stroke="none" /><path d="M 87.51073957382395 83.11751280151077 l -1.671911177414322 -2.2600232589073 a23.811226087664405,23.811226087664405 0 0,0 0.331604980604594,-0.2409251209076311 l 1.6327608804559464 2.2884676146315988" fill="#ff1d03" stroke="none" /><path d="M 87.80319425747018 82.90503203632743 l -5.344831563015617 -7.491283067858906 a30.202529350118777,30.202529350118777 0 0,0 0.4258108783990819,-0.29830773209912026 l 5.215089545032876 7.582175642721969" fill="#ff760a" stroke="none" /><path d="M 88.09926311788651 82.69761687909137 l -1.474161400545615 -2.143271092114566 a23.601300215114083,23.601300215114083 0 0,0 0.336706607159529,-0.22734580418002492 l 1.4370500989795465 2.1683288085932566" fill="#ff1a02" stroke="none" /><path d="M 88.39885842347998 82.49532879139004 l -7.194130932241188 -10.85504351187721 a34.02257614740559,34.02257614740559 0 0,0 0.49095059240137545,-0.3193279219770373 l 7.006213314055525 10.977270358013781" fill="#ffa90f" stroke="none" /><path d="M 88.70189139769569 82.29822771554957 l -0.8056083779886101 -1.2622197714307057 a22.497398948201855,22.497398948201855 0 0,0 0.32822724567475764,-0.20553587112990876 l 0.7837619799416102 1.2758999838835448" fill="#ff0a01" stroke="none" /><path d="M 89.00827224532344 82.1063720568725 l -8.358604682899042 -13.6071203415536 a36.969345516786326,36.969345516786326 0 0,0 0.5451005599573111,-0.3284169882024897 l 8.123142056724081 13.748983939214709" fill="#ffce13" stroke="none" /><line stroke="#e1ed5e" stroke-width="0.3" x1="56.762969772571076" x2="54.21961505331055" y1="26.818313649435495" y2="22.513508569990535" /><path d="M 56.25429882871897 25.957352633546506 a86.0,86.0 0 0,1 42.265352541879196,-11.944610805530505" fill="none" id="id96" stroke="none" /><text fill="#e1ed5e" style="font-size:6.75px; font-family:Arial;" text-anchor="middle"><textPath startOffset="22.20632615414155" xlink:href="#id96">December</textPath></text><path d="M 89.3179101791058 81.91981866633112 l -8.0363158996779 -13.602024618499208 a36.79865332747302,36.79865332747302 0 0,0 0.5481304286528323,-0.3175125236468104 l 7.800988738559747 13.738341299536065" fill="#ffcc13" stroke="none" /><path d="M 89.63071344664047 81.73862282372117 l -1.3971420979487867 -2.4605105364008044 a23.829508462896005,23.829508462896005 0 0,0 0.35843655679441305,-0.19946955578506625 l 1.354581452082328 2.4841954897460554" fill="#ff1e03" stroke="none" /><path d="M 89.94658935756843 81.56283822128135 l -5.91526358651365 -10.848126629585046 a33.35605902662522,33.35605902662522 0 0,0 0.5064640309016041,-0.27053554534750585 l 5.72765450908374 10.948340901434301" fill="#ffa00e" stroke="none" /><path d="M 90.26544431104013 81.39251694778311 l -4.412274913006137 -8.434009038398742 a30.518438861900357,30.518438861900357 0 0,0 0.46757083995142595,-0.23950794477307144 l 4.2664435854659475 8.508709508484317" fill="#ff7a0b" stroke="none" /><path d="M 90.58718382345135 81.22770947309562 l -1.9854600715896478 -3.959668668162125 a25.42956291946526,25.42956291946526 0 0,0 0.39298208736822443,-0.19283460356911994 l 1.9170067172109972 3.9932584318660744" fill="#ff3405" stroke="none" /><path d="M 90.91171255644093 81.06846463323043 l -1.0441859508560607 -2.175112019825602 a23.41276534266285,23.41276534266285 0 0,0 0.36481747399279396,-0.17128669570787788 l 1.0065902655636583 2.1927636981734877" fill="#ff1802" stroke="none" /><path d="M 91.23893434514133 80.91482961587045 l -6.030193826563738 -13.136218944492272 a35.454185751662564,35.454185751662564 0 0,0 0.5568297350523247,-0.24983327092079122 l 5.803181973044639 13.238072545929592" fill="#ffbb11" stroke="none" /><path d="M 91.56875222667455 80.76684994638697 l -8.51706322759165 -19.42891010635903 a42.21374351555552,42.21374351555552 0 0,0 0.6680148864139597,-0.2860091120881483 l 8.181364583387381 19.572638746409964" fill="#efff19" stroke="none" /><path d="M 91.90106846888425 80.62456947434976 l -1.573941748611843 -3.765410151263241 a25.08112805915957,25.08112805915957 0 0,0 0.39976467287238976,-0.16307404755780333 l 1.5088932061510727 3.7919450850046212" fill="#ff2f04" stroke="none" /><path d="M 92.23578459929587 80.48803036053334 l -4.9567555442105835 -12.45664354960113 a34.40661754682671,34.40661754682671 0 0,0 0.5521718737475303,-0.21423410850928418 l 4.741600505463377 12.540120362000966" fill="#ffae10" stroke="none" /><path d="M 92.57280143429618 80.3572730644239 l -2.9014834683176725 -7.67355914508953 a29.203786703108992,29.203786703108992 0 0,0 0.4717352668601235,-0.17374407992226723 l 2.7689658756849798 7.72236649281812" fill="#ff6909" stroke="none" /><path d="M 92.91201910852362 80.23233633223022 l -0.5735037021501137 -1.5994439699967753 a22.699154939827128,22.699154939827128 0 0,0 0.36893476540565584,-0.12871409542602066 l 0.5458869326811725 1.6090789185950056" fill="#ff0d01" stroke="none" /><path d="M 93.25333710446033 80.11325718540243 l -2.0097289181738955 -5.9239601476466985 a27.25558263916725,27.25558263916725 0 0,0 0.44558617665798506,-0.1469027567653344 l 1.9074599192735011 5.957676628671267" fill="#ff4e07" stroke="none" /><path d="M 93.59665428221793 80.00007090966166 l -1.1072888896836521 -3.458457539578717 a24.631393291601135,24.631393291601135 0 0,0 0.40491034546550203,-0.12580761533869575 l 1.0475931715074214 3.477005289799938" fill="#ff2904" stroke="none" /><path d="M 93.94186890950719 79.89281104454417 l -1.3963137391295117 -4.634423351755543 a25.84020370040135,25.84020370040135 0 0,0 0.4269906409551769,-0.12465027694913709 l 1.3163328804509136 4.657771957623379" fill="#ff3a05" stroke="none" /><path d="M 94.28887869178378 79.79150937346287 l -0.31427769246198467 -1.1120544389611966 a22.15561046343157,22.15561046343157 0 0,0 0.3678908635302652,-0.10055847016070357 l 0.295088939707997 1.1172994499481963" fill="#ff0600" stroke="none" /><path d="M 94.98787191387505 79.60689891045804 l -0.5016508655868706 -2.041092453700363 a23.10183538734522,23.10183538734522 0 0,0 0.3869846893789886,-0.09158677300215118 l 0.4664424892453479 2.049425138843385" fill="#ff1302" stroke="none" /><path d="M 95.33964822691252 79.52364482259891 l -1.8410301865843846 -8.089000536507612 a29.29586172905114,29.29586172905114 0 0,0 0.4926688915146106,-0.10767833748250416 l 1.701518570916253 8.119492372085984" fill="#ff6a09" stroke="none" /><path d="M 95.692805502759 79.44645832069477 l -2.554575444734658 -12.190202441500185 a33.45499463137573,33.45499463137573 0 0,0 0.5646463746883893,-0.11326275084518908 l 2.3443626605791317 12.232369148422585" fill="#ffa10e" stroke="none" /><path d="M 96.40284397218896 79.31037775812273 l -3.446250146742774 -19.82166276243265 a41.11901972615797,41.11901972615797 0 0,0 0.6983787337390278,-0.11523847500683772 l 3.1045422068648603 19.87804750037911" fill="#fcff18" stroke="none" /><path d="M 96.75951476605007 79.25152402106235 l -1.3436163497027582 -8.603029961267339 a29.707320449463893,29.707320449463893 0 0,0 0.505917109574982,-0.07455903088020906 l 1.1953302596991273 8.624883476308518" fill="#ff6f0a" stroke="none" /><path d="M 97.11714578562143 79.19881850522333 l -0.9295631189439106 -6.707245566412056 a27.77135368152151,27.77135368152151 0 0,0 0.4740772030583116,-0.06154882706380174 l 0.8139711873777413 6.722252716639995" fill="#ff5507" stroke="none" /><path d="M 97.47563105711357 79.15227682838746 l -0.41210294434458844 -3.4033884492647895 a24.42824762427198,24.42824762427198 0 0,0 0.41787809150229155,-0.046953472558945525 l 0.3534581493325789 3.4099778752943335" fill="#ff2603" stroke="none" /><path d="M 97.83486435360386 79.11191278185805 l -1.233484531305889 -11.900008442903916 a32.96376550381005,32.96376550381005 0 0,0 0.564896710538614,-0.053643749372475416 l 1.0284626936770387 11.919477736791572" fill="#ff9b0e" stroke="none" /><path d="M 98.19473922651362 79.07773832637324 l -0.24063486621956184 -2.7888633668812304 a23.799225610409533,23.799225610409533 0 0,0 0.408451161693847,-0.031703671265182976 l 0.1925935151633807 2.7925923003348756" fill="#ff1d03" stroke="none" /><path d="M 98.55514903715128 79.0497635885617 l -0.8040087305954712 -11.658069528240485 a32.68576121457918,32.68576121457918 0 0,0 0.5616315766088603,-0.03387915045035113 l 0.6032151051469878 11.670181948071143" fill="#ff970d" stroke="none" /><path d="M 98.91598698831166 79.02799685794201 l -0.2238391526623323 -4.330534193163076 a25.336315298086518,25.336315298086518 0 0,0 0.43573535920850287,-0.01876368116119659 l 0.14926296106450532 4.333745600848466" fill="#ff3304" stroke="none" /><path d="M 99.27714615592234 79.0124445844662 l -0.14778174091418872 -4.2907394105347905 a25.29328360722467,25.29328360722467 0 0,0 0.43525328591014223,-0.01124130825278454 l 0.07390181980916746 4.2926475109299345" fill="#ff3204" stroke="none" /><path d="M 99.63851952072746 79.00311137660856 l -0.04664871017382743 -2.709628397959042 a23.71002991813503,23.71002991813503 0 0,0 0.4081291894463625,-0.0035128967845483947 l 6.63765892967526e-16 2.7100299181350316" fill="#ff1c02" stroke="none" /></svg>