<?xml version="1.0" encoding="utf-8" ?>
<svg baseProfile="full" height="200mm" version="1.1" viewBox="0,0,200,200" width="200mm" xmlns="http://www.w3.org/2000/svg" xmlns:ev="http://www.w3.org/2001/xml-events" xmlns:xlink="http://www.w3.org/1999/xlink"><defs /><rect fill="#1a1a1a" height="200" width="200" x="0" y="0" /><text alignment-baseline="middle" fill="#e1ed5e" style="dominant-baseline: central; font-size:9.0px; font-family:Arial;" text-anchor="middle" x="100.0" y="100.0">2020</text><line stroke="#e1ed5e" stroke-width="0.3" x1="100.0" x2="100.0" y1="15.0" y2="10.0" /><path d="M 100.0 14.0 a86.0,86.0 0 0,1 42.35913384403234,11.155469271406648" fill="none" id="id13" stroke="none" /><text fill="#e1ed5e" style="font-size:6.75px; font-family:Arial;" text-anchor="middle"><textPath startOffset="22.145653131862478" xlink:href="#id13">January</textPath></text><path d="M 100.0 79.0 l 0.0 -15.876068871334589 a36.87606887133459,36.87606887133459 0 0,0 0.6330267583026292,0.005433773377776913 l -0.2725338334537744 15.873729496151247" fill="#ffc312" stroke="none" /><path d="M 100.36049292484886 79.00309439819443 l 0.089234492110331 -5.197461803310717 a26.198227774103025,26.198227774103025 0 0,0 0.4495948802251832,0.011579969291767763 l -0.17844268640625557 5.195164116668905" fill="#ff3104" stroke="none" /><path d="M 101.08105385017728 79.02784411241856 l 0.3655651891989918 -7.091867008935061 a28.101282671459828,28.101282671459828 0 0,0 0.48154310864985644,0.028968437639350857 l -0.48725264998131057 7.084546593471019" fill="#ff4c07" stroke="none" /><path d="M 101.44090949804482 79.04949213459386 l 0.7204632509629806 -10.475377549053082 a31.500123908373343,31.500123908373343 0 0,0 0.5391486286233967,0.04173351366968783 l -0.9001808743616109 10.46146626838834" fill="#ff7b0b" stroke="none" /><path d="M 101.80034050326958 79.07731436759882 l 0.571976705077441 -6.647236324272139 a27.671799465052455,27.671799465052455 0 0,0 0.4729248052347472,0.04478647075379665 l -0.6860010736972011 6.636438098013159" fill="#ff4606" stroke="none" /><path d="M 102.87502721639298 79.19773525538626 l 0.2556736320587196 -1.849927037899548 a22.86751145958516,22.86751145958516 0 0,0 0.3883936778506028,0.05708049557318862 l -0.28739241551700445 1.845265469027477" fill="#ff0000" stroke="none" /><path d="M 103.94208987418118 79.37332000966035 l 2.243514858918322 -11.73901776100233 a32.9514809507155,32.9514809507155 0 0,0 0.5546887772875073,0.11095329042273318 l -2.444700121736786 11.698775073916739" fill="#ff8f0d" stroke="none" /><path d="M 105.69591212413111 79.78721728523813 l 4.269976049988674 -15.152638631837075 a36.74278097969092,36.74278097969092 0 0,0 0.6056259882559826,0.17628889869359243 l -4.529462050626261 15.077106038840967" fill="#ffc111" stroke="none" /><path d="M 106.38641147887787 79.99465700312896 l 3.1594644011310358 -9.896977236758902 a31.389050665336953,31.389050665336953 0 0,0 0.5119064828429005,0.16827382866518553 l -3.3288936216216785 9.841282486691695" fill="#ff790b" stroke="none" /><path d="M 108.07796709384702 80.6158196554323 l 4.8650672122261716 -11.674390243811162 a33.647539940410205,33.647539940410205 0 0,0 0.5312544786210507,0.22676094657932536 l -5.064756766017652 11.589154647572435" fill="#ff980e" stroke="none" /><path d="M 109.06512990194946 81.05736502329252 l 6.166023250037119 -12.884617092825849 a35.28401905447967,35.28401905447967 0 0,0 0.5441127588397701,0.26615281618658654 l -6.386296258138956 12.77687052654204" fill="#ffae10" stroke="none" /><path d="M 109.3889696526874 81.21577127319529 l 5.806927753642164 -11.617745413973433 a33.98816455238847,33.98816455238847 0 0,0 0.5196511629376868,0.2653375864571116 l -6.00550613829343 11.516349875843487" fill="#ff9d0e" stroke="none" /><path d="M 110.02825361518725 81.54914285379988 l 4.646431858583305 -8.548911281266278 a30.73001608998771,30.73001608998771 0 0,0 0.46132457954405603,0.25588896773088876 l -4.792500626283461 8.467889398102244" fill="#ff700a" stroke="none" /><line stroke="#e1ed5e" stroke-width="0.3" x1="143.13028292997686" x2="145.6673583964461" y1="26.7553504044142" y2="22.446841604673864" /><path d="M 143.63769802327073 25.89364864446614 a86.0,86.0 0 0,1 29.32050498858742,28.57503671076993" fill="none" id="id14" stroke="none" /><text fill="#e1ed5e" style="font-size:6.75px; font-family:Arial;" text-anchor="middle"><textPath startOffset="20.669276256404974" xlink:href="#id14">February</textPath></text><path d="M 111.27062007382361 82.28071324371311 l 8.588186670491321 -13.502055905902784 a37.00195188010916,37.00195188010916 0 0,0 0.53302962277466,0.34550336160133127 l -8.818701925522989 13.35263870259756" fill="#ffc412" stroke="none" /><path d="M 114.13192950727249 84.46653392183569 l 10.160558640817271 -11.168233814152087 a36.09855617007986,36.09855617007986 0 0,0 0.45479063148351007,0.42094741887124454 l -10.350779043614747 10.992168649148466" fill="#ffb811" stroke="none" /><path d="M 114.39649973595853 84.71141617570332 l 10.660439426969582 -11.321017245322112 a36.55025402509452,36.55025402509452 0 0,0 0.4530969891116298,0.43405666610039123 l -10.853208901946525 11.136348448916142" fill="#ffbe11" stroke="none" /><path d="M 116.7966241395341 87.39550010848427 l 2.499386118831276 -1.8755859392909278 a24.124860570757086,24.124860570757086 0 0,0 0.24572661685270158,0.3333753489238949 l -2.5312147552678033 1.8324042810981578" fill="#ff1302" stroke="none" /><line stroke="#e1ed5e" stroke-width="0.3" x1="172.87174338648825" x2="177.1583165268699" y1="56.24261187166439" y2="53.66864786411523" /><path d="M 173.72905801456457 55.72781907015455 a86.0,86.0 0 0,1 12.242430191666344,42.057860355516425" fill="none" id="id15" stroke="none" /><text fill="#e1ed5e" style="font-size:6.75px; font-family:Arial;" text-anchor="middle"><textPath startOffset="22.145653131862474" xlink:href="#id15">March</textPath></text><path d="M 118.00360718960297 89.18935116829356 l 8.348033439767407 -5.012754222097535 a30.737420972856803,30.737420972856803 0 0,0 0.26774677994019813,0.45469256737557623 l -8.432853929837375 4.8687104864284025" fill="#ff710a" stroke="none" /><path d="M 118.18653347947321 89.5 l 6.4192294933590945 -3.7061438759808594 a28.412287751961717,28.412287751961717 0 0,0 0.24024163467429602,0.42448394896065417 l -6.481904493054767 3.595403156921087" fill="#ff5007" stroke="none" /><path d="M 118.36410011445183 89.81374322990088 l 6.540183354630684 -3.627729459031267 a28.47893169778355,28.47893169778355 0 0,0 0.23346573951240487,0.42955066490856425 l -6.601494443758431 3.5149239606480993" fill="#ff5107" stroke="none" /><path d="M 118.70294669586156 90.45014215332178 l 8.098550625533232 -4.135177653855079 a30.093196163245743,30.093196163245743 0 0,0 0.23097256996800822,0.462099862326762 l -8.168343108712978 3.9955459353645666" fill="#ff6809" stroke="none" /><path d="M 118.8641267826498 90.77261029715802 l 4.656221641774501 -2.2775913312338743 a26.18341800836484,26.18341800836484 0 0,0 0.1940325209336924,0.40545334235827013 l -4.694633420668104 2.1973254868105005" fill="#ff3004" stroke="none" /><path d="M 119.0197475246899 91.09779779509293 l 6.733445649072536 -3.1515925553682025 a28.434502400568995,28.434502400568995 0 0,0 0.20312462353341348,0.44386396057854893 l -6.786554737461001 3.0355396125749694" fill="#ff5007" stroke="none" /><path d="M 119.16976305983485 91.42560881287824 l 9.54443753913838 -4.269105510912208 a31.455694611158787,31.455694611158787 0 0,0 0.21624459616536668,0.49480995483872203 l -9.616316017320719 4.1046334862976375" fill="#ff7a0b" stroke="none" /><path d="M 119.31412917781788 91.75594674310238 l 4.787726742334605 -2.043595850472548 a26.205632656972114,26.205632656972114 0 0,0 0.1730497131948935,0.4152563151316338 l -4.822102300065982 1.9611070258996364" fill="#ff3104" stroke="none" /><path d="M 119.58574465831526 92.42381321644754 l 7.1824452810824955 -2.778324131220784 a28.701078183856332,28.701078183856332 0 0,0 0.17380459459187078,0.46103733638296174 l -7.229080559488807 2.6546185146436647" fill="#ff5407" stroke="none" /><path d="M 119.94978838288452 93.4421083053983 l 16.489018265853066 -5.420267817504462 a38.35704544515312,38.35704544515312 0 0,0 0.20025169425352501,0.6272855800939199 l -16.57963467588385 5.136413203719155" fill="#ffd614" stroke="none" /><path d="M 120.05942366710727 93.78553927170692 l 15.405479660441559 -4.772656978541091 a37.12783488888374,37.12783488888374 0 0,0 0.1833826507129875,0.6104212022487593 l -15.485138631158174 4.507498172701609" fill="#ffc612" stroke="none" /><path d="M 120.26092885502905 94.47779374421319 l 9.65191745438942 -2.630673022364292 a31.003996756144137,31.003996756144137 0 0,0 0.13554728758619292,0.5146951291216361 l -9.695654222780343 2.464597388869857" fill="#ff740a" stroke="none" /><path d="M 120.35273937422433 94.82641323984039 l 5.547550491642638 -1.410165641448112 a26.7239744578086,26.7239744578086 0 0,0 0.1092023975971434,0.4455830476058917 l -5.5709404157560725 1.3147267692341253" fill="#ff3805" stroke="none" /><path d="M 120.592083275326 95.88100663000786 l 11.123922376023135 -2.2250960188204214 a32.3442805554499,32.3442805554499 0 0,0 0.104231304221592,0.5453822276441738 l -11.160479972526883 2.033811226142933" fill="#ff870c" stroke="none" /><path d="M 120.65975698304385 96.23510406497455 l 20.237476085952796 -3.687942288658661 a41.57076461033931,41.57076461033931 0 0,0 0.12191157740548157,0.7031535817338375 l -20.297802480850514 3.3399956740042307" fill="#fffe18" stroke="none" /><path d="M 120.7213421655516 96.59031103205396 l 8.05920667256232 -1.3261393910823138 a29.167585804609168,29.167585804609168 0 0,0 0.07705591135089687,0.4947542270538342 l -8.080784076051481 1.1875969820970385" fill="#ff5b08" stroke="none" /><path d="M 120.93736805541906 98.37931529534042 l 16.24953840192614 -1.2578170415724215 a37.29814719487287,37.29814719487287 0 0,0 0.043933734165878896,0.6387868526426478 l -16.268736097257086 0.9786867647754395" fill="#ffc812" stroke="none" /><line stroke="#e1ed5e" stroke-width="0.3" x1="184.99686870605535" x2="189.99668451229388" y1="99.2704041080226" y2="99.22748670261217" /><path d="M 185.99683186730306 99.26182062694052 a86.0,86.0 0 0,1 -10.086455211305974,41.156179273409016" fill="none" id="id16" stroke="none" /><text fill="#e1ed5e" style="font-size:6.75px; font-family:Arial;" text-anchor="middle"><textPath startOffset="21.40746469413373" xlink:href="#id16">April</textPath></text><path d="M 120.99922638620191 100.18025310272382 l 8.204307971351135 0.07042411660029417 a29.204610218954627,29.204610218954627 0 0,0 -0.008606415617820462,0.5012805629211133 l -8.201890124134646 -0.2112515954904785" fill="#ff5b08" stroke="none" /><path d="M 120.98066250479742 100.90099992219065 l 36.31709719613424 1.559612416453717 a57.3505700043757,57.3505700043757 0 0,0 -0.050682639192417764,0.9832296603570309 l -36.28497296748525 -2.1828138701874784" fill="#4eff2b" stroke="none" /><path d="M 120.96210409425399 101.26102812881392 l 5.521465635915968 0.332157661648003 a26.531447503212192,26.531447503212192 0 0,0 -0.0312515674184032,0.4543909314873376 l -5.514950107332498 -0.42689201728968407" fill="#ff3505" stroke="none" /><path d="M 120.93736805541906 101.62068470465957 l 15.629383369776304 1.2098131199494795 a36.67613703386909,36.67613703386909 0 0,0 -0.053977453769434275,0.6272998326729508 l -15.606312293309129 -1.4779339999980876" fill="#ffc011" stroke="none" /><path d="M 120.82617615685814 102.69636545807757 l 8.503877498616129 1.1009971957545772 a29.574854362409262,29.574854362409262 0 0,0 -0.06950863023171236,0.5029298226712413 l -8.483724351829206 -1.2468153266259034" fill="#ff6008" stroke="none" /><path d="M 120.77682067341334 103.0534771498775 l 39.93504442298877 5.869076291397062 a61.3640165194239,61.3640165194239 0 0,0 -0.1621135272809686,1.040885137541547 l -39.82840940356953 -6.55374961087006" fill="#30ff3a" stroke="none" /><path d="M 120.7213421655516 103.40968896794604 l 7.31393098752029 1.2035045607193047 a28.412287751961717,28.412287751961717 0 0,0 -0.08332266317465323,0.480582979055326 l -7.292193506853401 -1.3288805726952186" fill="#ff5007" stroke="none" /><path d="M 120.65975698304385 103.76489593502545 l 38.19477578065174 6.960360482158873 a59.823800882652634,59.823800882652634 0 0,0 -0.19278563883347324,1.0087359258335729 l -38.069663849536106 -7.61499897302576" fill="#36ff2f" stroke="none" /><path d="M 120.51834098615036 104.47187691870673 l 9.571962435244396 2.0861646616453955 a30.796660035809545,30.796660035809545 0 0,0 -0.11701137957898866,0.5155737284734782 l -9.534740194107743 -2.2501727240578906" fill="#ff710a" stroke="none" /><path d="M 120.43855184770803 104.8234425847677 l 7.228529413975861 1.7059132594331545 a28.427097517699902,28.427097517699902 0 0,0 -0.11616188342649021,0.47398012472000817 l -7.198180004033074 -1.8297492087612623" fill="#ff5007" stroke="none" /><path d="M 120.35273937422433 105.17358676015961 l 4.435169733292563 1.1274028026066403 a25.576217613099242,25.576217613099242 0 0,0 -0.11181741990999255,0.42458895639667066 l -4.41516283257784 -1.2033722633761141" fill="#ff2803" stroke="none" /><path d="M 120.26092885502905 105.52220625578681 l 10.766424577176059 2.934436894672822 a32.159158483722585,32.159158483722585 0 0,0 -0.14974147667385557,0.5313796746570989 l -10.714464608427622 -3.118824493232929" fill="#ff840c" stroke="none" /><path d="M 120.16314734710363 105.8691983318838 l 15.378491670888492 4.476454796856555 a37.01676164584735,37.01676164584735 0 0,0 -0.18283403521218028,0.6085950396741072 l -15.299381315672683 -4.739787440121386" fill="#ffc412" stroke="none" /><line stroke="#e1ed5e" stroke-width="0.3" x1="174.33088141563837" x2="178.70328620479359" y1="141.23008692659167" y2="143.65538615756765" /><path d="M 175.20536237346943 141.71514677278685 a86.0,86.0 0 0,1 -30.301960400862466,31.631185727798858" fill="none" id="id17" stroke="none" /><text fill="#e1ed5e" style="font-size:6.75px; font-family:Arial;" text-anchor="middle"><textPath startOffset="22.145653131862474" xlink:href="#id17">May</textPath></text><path d="M 117.423217284605 111.72311816256416 l 6.155948426744789 4.141996832763265 a28.41969263483081,28.41969263483081 0 0,0 -0.2758202397872652,0.40242997283735155 l -6.083938450142203 -4.247061540670661" fill="#ff5007" stroke="none" /><path d="M 117.01052211995028 112.31430620078461 l 8.523355846529741 6.170252330427687 a31.52233855698062,31.52233855698062 0 0,0 -0.3210745026349004,0.43559922696790976 l -8.41617932431101 -6.315657866664476" fill="#ff7b0b" stroke="none" /><path d="M 116.79662413953412 112.60449989151573 l 4.07482855392398 3.0578273133463476 a26.094559413935727,26.094559413935727 0 0,0 -0.27194012997859307,0.3559783595374303 l -4.021736446591082 -3.127326586124653" fill="#ff2f04" stroke="none" /><path d="M 116.57777611688842 112.89097897827486 l 10.299854097228907 8.009228844115755 a34.04740361534121,34.04740361534121 0 0,0 -0.3627403399165565,0.45831056969257533 l -10.160847326670789 -8.184859357723013" fill="#ff9d0e" stroke="none" /><path d="M 115.89218393027572 113.72728997021213 l 8.41130097938997 7.265481451598838 a32.11472918650803,32.11472918650803 0 0,0 -0.3639500109692955,0.4141083031010329 l -8.28533990446209 -7.408802032511164" fill="#ff830c" stroke="none" /><path d="M 115.16444852881244 114.52719865689866 l 1.7966554420838416 1.7211552715259881 a23.488040644015122,23.488040644015122 0 0,0 -0.281423859101926,0.2887656715273997 l -1.7668447818311064 -1.7517436351211253" fill="#ff0901" stroke="none" /><path d="M 114.91283532996326 114.78537596483092 l 10.532708625022936 10.442686015320282 a35.83198038679253,35.83198038679253 0 0,0 -0.43682269032207616,0.4330891854886892 l -10.351894014570897 -10.621955211037632" fill="#ffb510" stroke="none" /><path d="M 113.86319453409587 115.77377054828091 l 7.581829499627393 8.626730193331277 a32.48497332996266,32.48497332996266 0 0,0 -0.42202701541762744,0.3645368843777553 l -7.43262300444691 -8.75561121017375" fill="#ff880c" stroke="none" /><path d="M 113.31354834802062 116.24036423190432 l 7.229586179866915 8.818919625167881 a32.40351961840264,32.40351961840264 0 0,0 -0.4332030081259525,0.34895767851431797 l -7.07713240138571 -8.941725597475603" fill="#ff870c" stroke="none" /><path d="M 112.16784306229584 117.11559508785304 l 5.61203333622424 7.894027701588688 a30.685586792773154,30.685586792773154 0 0,0 -0.43194333743606816,0.30152999594050567 l -5.475694907614414 -7.989202513334316" fill="#ff700a" stroke="none" /><path d="M 110.96478420261333 117.91015095944535 l 11.792308345283239 19.26184945564296 a43.58489275073251,43.58489275073251 0 0,0 -0.6414601265813649,0.38517837536568 l -11.459915462144437 -19.461441831544562" fill="#e8ff1a" stroke="none" /><line stroke="#e1ed5e" stroke-width="0.3" x1="143.1302829299769" x2="145.66735839644613" y1="173.24464959558577" y2="177.55315839532614" /><path d="M 143.63769802327073 174.10635135553383 a86.0,86.0 0 0,1 -40.68552437913181,11.842963189579606" fill="none" id="id18" stroke="none" /><text fill="#e1ed5e" style="font-size:6.75px; font-family:Arial;" text-anchor="middle"><textPath startOffset="21.407464694133747" xlink:href="#id18">June</textPath></text><path d="M 110.65571695917076 118.09573695890943 l 1.24368262884256 2.112044998767623 a23.45101622966966,23.45101622966966 0 0,0 -0.348646852534805,0.20129135416308622 l -1.2072433084473564 -2.1330832502068806" fill="#ff0901" stroke="none" /><path d="M 109.71004243097381 118.62028667847754 l 2.0577589447630262 3.9460241022702007 a25.450334604324667,25.450334604324667 0 0,0 -0.3891147447490227,0.19868476122117534 l -1.9897169783004212 -3.9807668151642126" fill="#ff2603" stroke="none" /><path d="M 108.73861861582097 119.09545874513695 l 5.453997699973955 11.917969264314918 a34.106642678293944,34.106642678293944 0 0,0 -0.5344780466199428,0.23906523196680413 l -5.248606250498384 -12.009838247191572" fill="#ff9e0e" stroke="none" /><path d="M 108.4095320186766 119.2426549942271 l 2.078685300338625 4.7564387634357574 a26.19082289123393,26.19082289123393 0 0,0 -0.41352182015031086,0.17650787549478028 l -1.9967284050178833 -4.791421288589942" fill="#ff3104" stroke="none" /><path d="M 107.74402155503746 119.51999308798841 l 1.0485681837857088 2.643076798574661 a23.843475021731567,23.843475021731567 0 0,0 -0.38175417432613573,0.1476707156430592 l -1.0030417469660438 -2.6606874023557605" fill="#ff0e01" stroke="none" /><path d="M 107.407793817531 119.65005319985036 l 2.64865711308221 7.025877671845682 a28.508551229259922,28.508551229259922 0 0,0 -0.4594096669812205,0.16870159320245182 l -2.527658294446862 -7.070310114056856" fill="#ff5207" stroke="none" /><path d="M 106.38641147887787 120.00534299687104 l 0.7634058674151258 2.3913580066010462 a23.5102552926224,23.5102552926224 0 0,0 -0.38552269683780926,0.11943591695970746 l -0.7222425377056922 -2.4041105113673984" fill="#ff0a01" stroke="none" /><path d="M 105.69591212413111 120.21278271476187 l 2.010463793997489 7.134426749985376 a28.412287751961717,28.412287751961717 0 0,0 -0.47058676772036406,0.12826051614859124 l -1.8876956253424297 -7.16788776027811" fill="#ff5007" stroke="none" /><path d="M 105.3480935250658 120.30758222061773 l 1.3257243003154124 5.033991104371139 a26.205632656972114,26.205632656972114 0 0,0 -0.4360052065726535,0.11083081852566931 l -1.2391138005173616 -5.056007154732078" fill="#ff3104" stroke="none" /><path d="M 102.875027216393 120.80226474461374 l 0.7106550994177759 5.141946286945213 a26.19082289123393,26.19082289123393 0 0,0 -0.44589524031175687,0.057730065992065815 l -0.6222820372152438 -5.153387949137674" fill="#ff3104" stroke="none" /><path d="M 102.51750503828377 120.84855314841334 l 1.9556167303640264 16.19531191433709 a37.312956960611054,37.312956960611054 0 0,0 -0.6365663278143572,0.07132858478189805 l -1.6773145009488701 -16.22649625962596" fill="#ffc812" stroke="none" /><line stroke="#e1ed5e" stroke-width="0.3" x1="101.45913802915013" x2="101.54496967792366" y1="184.9874750549273" y2="189.98673829345242" /><path d="M 101.47630435890484 185.9873277026323 a86.0,86.0 0 0,1 -42.54439059252881,-10.42667462771756" fill="none" id="id19" stroke="none" /><text fill="#e1ed5e" style="font-size:6.75px; font-family:Arial;" text-anchor="middle"><textPath startOffset="22.145653131862474" xlink:href="#id19">July</textPath></text><path d="M 100.36049292484886 120.99690560180557 l 0.089234492110331 5.197461803310717 a26.198227774103025,26.198227774103025 0 0,0 -0.4497274169591826,0.003860368986741854 l -6.36599300479414e-16 -5.1982277741030245" fill="#ff3104" stroke="none" /><path d="M 99.63950707515114 120.99690560180557 l -0.13385173816549453 7.796192704966073 a28.797341661154533,28.797341661154533 0 0,0 -0.49419897737314195,-0.012728812612670998 l 0.2676640296093804 -7.792746175003354" fill="#ff5607" stroke="none" /><path d="M 99.27912038922189 120.98762331915562 l -0.1568363782231602 4.566120028468252 a25.56881273023015,25.56881273023015 0 0,0 -0.4385346513071541,-0.018832564825601795 l 0.23519679013115305 -4.562754895216822" fill="#ff2803" stroke="none" /><path d="M 98.91894614982273 120.97215588758144 l -0.12083854533480629 2.3442354972183663 a23.34734786950236,23.34734786950236 0 0,0 -0.40007976159852005,-0.024067804972077292 l 0.16106265906577266 -2.341815714421597" fill="#ff0701" stroke="none" /><path d="M 98.19965949673042 120.92268563240118 l -0.23488499542580876 2.7297196892127564 a23.739806661564273,23.739806661564273 0 0,0 -0.4057250940947972,-0.03842258824156739 l 0.2817096529056212 -2.725285345466005" fill="#ff0d01" stroke="none" /><path d="M 97.84075906011543 120.88869738790638 l -1.0666897938399325 10.319256132426677 a31.374240899598767,31.374240899598767 0 0,0 -0.5352506728025752,-0.05997595431359443 l 1.243676368243307 -10.299424417606112" fill="#ff790b" stroke="none" /><path d="M 97.12497278360702 120.80226474461374 l -1.4202964255125528 10.276557415135875 a31.374240899598767,31.374240899598767 0 0,0 -0.5328763837858782,-0.07831447781044158 l 1.5964979149061158 -10.250661864026549" fill="#ff790b" stroke="none" /><path d="M 96.41257539226777 120.69131181640829 l -2.6690956445871783 15.39463439341297 a36.62430285378544,36.62430285378544 0 0,0 -0.6185413395306948,-0.11271883675861133 l 2.9329717176689303 -15.346547382722992" fill="#ffbf11" stroke="none" /><path d="M 95.70440661134978 120.55596938700252 l -1.5707274016363348 7.516499226549975 a28.678863535249054,28.678863535249054 0 0,0 -0.4810368374174141,-0.10483973980872063 l 1.6995266556728854 -7.488428028607535" fill="#ff5407" stroke="none" /><path d="M 95.00130118170881 120.39639698878247 l -1.14569554813127 4.674828805940045 a25.813173864910205,25.813173864910205 0 0,0 -0.429475538735839,-0.10917100249562132 l 1.2257763800924877 -4.654472571609161" fill="#ff2b04" stroke="none" /><path d="M 93.95794788825049 120.11202640906438 l -0.6561967599213958 2.1842655973485483 a23.280703923680527,23.280703923680527 0 0,0 -0.38175849854578575,-0.11826975870673205 l 0.6935958913388153 -2.1726792508351673" fill="#ff0601" stroke="none" /><path d="M 93.61358852112213 120.00534299687104 l -1.5425752778152237 4.832095087084711 a26.07234476532845,26.07234476532845 0 0,0 -0.4251992980158986,-0.13977145478902397 l 1.625297313478866 -4.804902710893666" fill="#ff2f04" stroke="none" /><path d="M 93.27111125876986 119.89276391827306 l -2.396423776078328 7.084601077376061 a28.47893169778355,28.47893169778355 0 0,0 -0.4617577076866365,-0.1606233004313113 l 2.517687255809986 -7.042419344376159" fill="#ff5107" stroke="none" /><path d="M 91.59046798132341 119.24265499422711 l -4.187023743335433 9.580729720358478 a31.455694611158787,31.455694611158787 0 0,0 -0.4929355952570753,-0.22048382187084106 l 4.350872741448144 -9.507442147577782" fill="#ff7a0b" stroke="none" /><path d="M 91.26138138417905 119.09545874513695 l -2.0829957317414625 4.551721594732705 a26.005700819506615,26.005700819506615 0 0,0 -0.40434070577382636,-0.18925186666125934 l 2.1608251513867787 -4.515293496500919" fill="#ff2e04" stroke="none" /><path d="M 90.6110303473126 118.78422872680471 l -3.333851908732987 6.669937076323398 a28.456717049176273,28.456717049176273 0 0,0 -0.4350798668518807,-0.22215488008135625 l 3.44785899729845 -6.6117242445692055" fill="#ff5107" stroke="none" /><path d="M 90.28995756902619 118.62028667847754 l -2.3967242285093504 4.596034728101733 a26.18341800836484,26.18341800836484 0 0,0 -0.3967550691046303,-0.21124972698007666 l 2.4752681134005425 -4.554214533399084" fill="#ff3004" stroke="none" /><path d="M 89.97174638481275 118.45085714620012 l -3.5431694994676324 6.519032803522686 a28.41969263483081,28.41969263483081 0 0,0 -0.4266415844736961,-0.2366508950161376 l 3.6545552720974315 -6.457248993073399" fill="#ff5007" stroke="none" /><line stroke="#e1ed5e" stroke-width="0.3" x1="58.13341422392154" x2="55.67067388415222" y1="173.97424548756322" y2="178.32567169271397" /><path d="M 57.64086615596768 174.84453072859336 a86.0,86.0 0 0,1 -31.369924170532247,-30.572349798747897" fill="none" id="id20" stroke="none" /><text fill="#e1ed5e" style="font-size:6.75px; font-family:Arial;" text-anchor="middle"><textPath startOffset="22.145653131862474" xlink:href="#id20">August</textPath></text><path d="M 89.65649057296885 118.27599006163327 l -3.6582025328480277 6.463693353345928 a28.427097517699902,28.427097517699902 0 0,0 -0.42262637913775447,-0.24400345376182123 l 3.7686213798461816 -6.399943002307936" fill="#ff5007" stroke="none" /><path d="M 88.72937992617639 117.7192867562869 l -4.001991659965182 6.291795602611804 a28.456717049176273,28.456717049176273 0 0,0 -0.40993170315108257,-0.26571277732820275 l 4.109408995373275 -6.2221689835797065" fill="#ff5107" stroke="none" /><path d="M 87.83215693770417 117.11559508785305 l -2.9690573919473784 4.176351047017872 a26.124178945412098,26.124178945412098 0 0,0 -0.36327411144996513,-0.26298244178914876 l 3.040312513771297 -4.124767833855657" fill="#ff3004" stroke="none" /><path d="M 87.54013794807813 116.9041958592261 l -6.612240365933238 8.970773973920176 a32.1443487179844,32.1443487179844 0 0,0 -0.44136794648765915,-0.3312107354077229 l 6.765261301331664 -8.855944211248438" fill="#ff840c" stroke="none" /><path d="M 87.2517909369889 116.68781488649013 l -2.310527779989685 3.02455503294465 a24.80610979471361,24.80610979471361 0 0,0 -0.33617010285057863,-0.26140790528329827 l 2.362107827475492 -2.984446076040559" fill="#ff1c02" stroke="none" /><path d="M 86.68645165197938 116.24036423190432 l -8.14502079355136 9.935601006276805 a33.847471777875704,33.847471777875704 0 0,0 -0.4461832815165232,-0.3722219624993916 l 8.314378409229777 -9.794316859865543" fill="#ff9b0e" stroke="none" /><path d="M 85.86807049272751 115.53346607816431 l -3.991470069296046 4.387324808796383 a26.931311178143194,26.931311178143194 0 0,0 -0.33929634081981214,-0.31404762766256883 l 4.066196181429825 -4.3181594350014345" fill="#ff3b05" stroke="none" /><path d="M 85.60350026404147 115.28858382429668 l -4.624600151413945 4.9111651002325925 a27.745848293743382,27.745848293743382 0 0,0 -0.3439527482794439,-0.3294989523257691 l 4.708225385558704 -4.831054017601241" fill="#ff4706" stroke="none" /><path d="M 84.3458050057657 113.99807769240083 l -3.869435891424334 3.460073434237391 a26.19082289123393,26.19082289123393 0 0,0 -0.29681552733017336,-0.3377215844268997 l 3.928262482713102 -3.393139571999191" fill="#ff3104" stroke="none" /><path d="M 84.1078160697243 113.72728997021213 l -11.82961783310608 10.218142134793574 a36.63170773665453,36.63170773665453 0 0,0 -0.40697031252286103,-0.4794100048396342 l 12.003282709136053 -10.013565347504386" fill="#ffbf11" stroke="none" /><path d="M 83.64595745247003 113.17365903436017 l -7.617752167157835 6.136321913480194 a30.78185027007136,30.78185027007136 0 0,0 -0.3279492015419083,-0.41435310289303223 l 7.721967799341305 -6.004648866672482" fill="#ff710a" stroke="none" /><path d="M 82.78059297857968 112.02048342749411 l -4.031671787319784 2.814420022959399 a25.916842225077502,25.916842225077502 0 0,0 -0.2515294492766068,-0.3669889835432314 l 4.079390973411716 -2.7447963043461168" fill="#ff2d04" stroke="none" /><path d="M 82.37810715431573 111.42229804090323 l -2.435776979141209 1.578841209656751 a23.90271408468431,23.90271408468431 0 0,0 -0.22022629988147968,-0.34623232202983195 l 2.4625209706485784 -1.536795212948247" fill="#ff0f01" stroke="none" /><line stroke="#e1ed5e" stroke-width="0.3" x1="26.387840678322732" x2="22.057713659400534" y1="142.50000000000003" y2="145.00000000000006" /><path d="M 25.521815274538284 143.00000000000003 a86.0,86.0 0 0,1 -11.493303480769212,-40.785679425670985" fill="none" id="id21" stroke="none" /><text fill="#e1ed5e" style="font-size:6.75px; font-family:Arial;" text-anchor="middle"><textPath startOffset="21.40746469413373" xlink:href="#id21">September</textPath></text><path d="M 81.29705330413844 109.54985784667822 l -7.293971491726184 3.7243538152798994 a29.189800453216442,29.189800453216442 0 0,0 -0.22403878906578595,-0.44822765576662477 l 7.356830194003707 -3.598594303349521" fill="#ff5b08" stroke="none" /><path d="M 81.1358732173502 109.22738970284198 l -8.088522166282557 3.956501512543415 a30.00433756881663,30.00433756881663 0 0,0 -0.22234748937526355,-0.4646207362474998 l 8.155248913617733 -3.8170682742308117" fill="#ff6609" stroke="none" /><path d="M 80.9802524753101 108.90220220490708 l -7.56506642644803 3.5408330701746356 a29.35270787633648,29.35270787633648 0 0,0 -0.20968391333437275,-0.45819719255698954 l 7.624734804637458 -3.410446895402957" fill="#ff5d08" stroke="none" /><path d="M 80.68587082218212 108.24405325689762 l -7.6821561384828385 3.279055646277435 a29.35270787633648,29.35270787633648 0 0,0 -0.19383152263420053,-0.465125092433887 l 7.737313505653525 -3.146698044402267" fill="#ff5d08" stroke="none" /><path d="M 80.41425534168474 107.57618678355246 l -6.920009780427555 2.6768084418107967 a28.41969263483081,28.41969263483081 0 0,0 -0.1721006132654926,-0.4565173234695843 l 6.964941077507484 -2.5576228381470676" fill="#ff5007" stroke="none" /><path d="M 79.94057633289273 106.21446072829308 l -4.243933790755253 1.3147815367881814 a25.442929721455577,25.442929721455577 0 0,0 -0.12566830002849513,-0.41830889939536 l 4.265878410787377 -1.241735033802098" fill="#ff2603" stroke="none" /><path d="M 79.73907114497094 105.5222062557868 l -4.965272117543042 1.3533069952207104 a26.146393594019376,26.146393594019376 0 0,0 -0.11431018909289202,-0.43405440701034376 l 4.987771787440666 -1.2678720838375641" fill="#ff3004" stroke="none" /><path d="M 79.56144815229197 104.8234425847677 l -8.187048269468175 1.9321210994178089 a29.411946939289223,29.411946939289223 0 0,0 -0.1117501860094056,-0.4923919388505349 l 8.219009317035248 -1.7912948266282478" fill="#ff5e08" stroke="none" /><path d="M 79.48165901384964 104.47187691870673 l -16.32069806410455 3.557020181081608 a37.70381925992639,37.70381925992639 0 0,0 -0.13239837823291906,-0.6335741685969698 l 16.379354153161835 -3.276329561199229" fill="#ffcd13" stroke="none" /><path d="M 79.34024301695615 103.76489593502545 l -10.024034231199083 1.8267129550735504 a31.189118827871454,31.189118827871454 0 0,0 -0.09146607501289782,-0.5275520145108313 l 10.053915123704217 -1.6543679076421263" fill="#ff770a" stroke="none" /><path d="M 79.2786578344484 103.40968896794605 l -2.3110852860666 0.38028820435116584 a23.342164451493996,23.342164451493996 0 0,0 -0.061666116858669615,-0.39594070652008356 l 2.317272895063537 -0.3405593158996323" fill="#ff0701" stroke="none" /><path d="M 79.13060592940153 102.33845913500099 l -12.738133793753024 1.4273344607945415 a33.81785224639933,33.81785224639933 0 0,0 -0.05969270829440657,-0.5774728038887053 l 12.760758894529095 -1.208457134622905" fill="#ff9a0e" stroke="none" /><path d="M 79.0935383218832 101.97986365728391 l -16.232923793040484 1.5372747605081674 a37.305552077741964,37.305552077741964 0 0,0 -0.05490378418970347,-0.6380651963026692 l 16.256921199927927 -1.2583885168298359" fill="#ffc812" stroke="none" /><path d="M 79.01933749520258 100.90099992219065 l -7.412860336224589 0.3183401184124329 a28.41969263483081,28.41969263483081 0 0,0 -0.016747742467114336,-0.48759224854013156 l 7.417232765688551 -0.19104160530818154" fill="#ff5007" stroke="none" /><line stroke="#e1ed5e" stroke-width="0.3" x1="15.003131293944662" x2="10.003315487706104" y1="100.72959589197737" y2="100.7725132973878" /><path d="M 14.003168132696942 100.73817937305945 a86.0,86.0 0 0,1 10.791469493833604,-42.45332614584628" fill="none" id="id22" stroke="none" /><text fill="#e1ed5e" style="font-size:6.75px; font-family:Arial;" text-anchor="middle"><textPath startOffset="22.145653131862435" xlink:href="#id22">October</textPath></text><path d="M 79.00077361379809 100.18025310272382 l -25.079414349247557 0.21527660913825888 a46.08033827761672,46.08033827761672 0 0,0 0.0,-0.7910594237241436 l 25.079414349247557 0.21527660913824964" fill="#caff1d" stroke="none" /><path d="M 79.01933749520258 99.09900007780938 l -7.41286033622459 -0.31834011841242366 a28.41969263483081,28.41969263483081 0 0,0 0.025115443973108303,-0.48723290343348585 l 7.40630330279491 0.4455448152226215" fill="#ff5007" stroke="none" /><path d="M 79.06263194458094 98.37931529534042 l -16.345514775949333 -1.2652462199188355 a37.39441067217108,37.39441067217108 0 0,0 0.055034560249031445,-0.6395850123444798 l 16.321386593002558 1.545652279638996" fill="#ffc912" stroke="none" /><path d="M 79.13060592940154 97.66154086499901 l -4.643421388710664 -0.5203050518552051 a25.672481090397447,25.672481090397447 0 0,0 0.0528338606316711,-0.4375401576817506 l 4.633805441819324 0.599938886460392" fill="#ff2904" stroke="none" /><path d="M 79.2786578344484 96.59031103205396 l -7.401610479878175 -1.2179321878208356 a28.50114634639083,28.50114634639083 0 0,0 0.08358325235347705,-0.48208598818989606 l 7.379612410032464 1.3448112089313244" fill="#ff5107" stroke="none" /><path d="M 79.73907114497095 94.47779374421319 l -10.001986999367277 -2.726086033538127 a31.36683601672968,31.36683601672968 0 0,0 0.14605221545548278,-0.5182877880970844 l 9.953716291837212 2.8973817455382247" fill="#ff790b" stroke="none" /><path d="M 80.05021161711548 93.44210830539832 l -2.497270257840375 -0.8209023358421855 a23.628733418527883,23.628733418527883 0 0,0 0.12997443712477236,-0.38424632841541384 l 2.4828103991432378 0.863650338731761" fill="#ff0b01" stroke="none" /><path d="M 80.5471966667186 92.08871423366112 l -29.006351495596064 -11.796630634101104 a52.31339843267544,52.31339843267544 0 0,0 0.3454531593846654,-0.8289618247162251 l 28.799572491674923 12.292824968258595" fill="#83ff25" stroke="none" /><line stroke="#e1ed5e" stroke-width="0.3" x1="26.387840678322718" x2="22.05771365940052" y1="57.49999999999999" y2="54.99999999999999" /><path d="M 25.521815274538284 56.99999999999999 a86.0,86.0 0 0,1 29.574782752854787,-30.34633250058573" fill="none" id="id23" stroke="none" /><text fill="#e1ed5e" style="font-size:6.75px; font-family:Arial;" text-anchor="middle"><textPath startOffset="21.40746469413373" xlink:href="#id23">November</textPath></text><path d="M 82.576782715395 88.27688183743585 l -4.159258567770682 -2.7985347862083136 a26.013105702375707,26.013105702375707 0 0,0 0.2524637104501079,-0.36835209851610207 l 4.1106051205052605 2.86952161979445" fill="#ff2e04" stroke="none" /><path d="M 83.2033758604659 87.39550010848427 l -50.389872418602316 -37.8134996745472 a84.0,84.0 0 0,0 0.875392090582773,-1.1459163470364628 l 49.73332835066524 38.672936934824556" fill="#4dd2ff" stroke="none" /><path d="M 84.58840730492382 85.73525988315684 l -5.988637365904251 -5.542993340716371 a29.16018092174007,29.16018092174007 0 0,0 0.3431794572382347,-0.36444469107018185 l 5.892602074929745 5.644979491731064" fill="#ff5b08" stroke="none" /><path d="M 84.83555147118756 85.47280134310135 l -5.764269543352329 -5.522039829479209 a28.98246373288185,28.98246373288185 0 0,0 0.34725573382672653,-0.35631497446667026 l 5.6686270083748 5.62017749601361" fill="#ff5808" stroke="none" /><path d="M 85.08716467003674 85.21462403516908 l -1.582798450390367 -1.5692703397960088 a23.22886974359688,23.22886974359688 0 0,0 0.2831799209813868,-0.2807595943199637 l 1.5556266092790036 1.5962099443446458" fill="#ff0500" stroke="none" /><path d="M 85.34317274990677 84.96080404539775 l -5.736696133886023 -5.88635560871281 a29.219419984692813,29.219419984692813 0 0,0 0.36221995090823056,-0.3469985192233066 l 5.634803697112492 5.983966258241685" fill="#ff5b08" stroke="none" /><path d="M 86.13680546590413 84.22622945171909 l -5.729145179602391 -6.518715529712609 a29.67852272257656,29.67852272257656 0 0,0 0.38556714328778363,-0.33304371520736076 l 5.616398556551759 6.616103377384681" fill="#ff6209" stroke="none" /><path d="M 86.68645165197937 83.75963576809568 l -39.69149190943587 -48.417166383202215 a83.60700065148865,83.60700065148865 0 0,0 1.1177429059911392,-0.9003745641976459 l 38.85449823308949 49.09138924119326" fill="#4dd6ff" stroke="none" /><line stroke="#e1ed5e" stroke-width="0.3" x1="56.869717070023135" x2="54.33264160355391" y1="26.7553504044142" y2="22.446841604673864" /><path d="M 56.362301976729285 25.89364864446614 a86.0,86.0 0 0,1 42.16139366436587,-11.88097634709845" fill="none" id="id24" stroke="none" /><text fill="#e1ed5e" style="font-size:6.75px; font-family:Arial;" text-anchor="middle"><textPath startOffset="22.145653131862474" xlink:href="#id24">December</textPath></text><path d="M 90.61103034731259 81.2157712731953 l -5.1348602884258865 -10.273160283393835 a32.48497332996266,32.48497332996266 0 0,0 0.500948841233522,-0.24503918111387615 l 4.957751197930311 10.359793214604926" fill="#ff880c" stroke="none" /><path d="M 90.93487009805054 81.0573650232925 l -4.970537145571654 -10.386510927601972 a32.514592861439034,32.514592861439034 0 0,0 0.5055419777682034,-0.23661917190641135 l 4.791506453931928 10.470306331078927" fill="#ff890c" stroke="none" /><path d="M 92.93061703081487 80.22567764915836 l -3.816415038262473 -10.675192095287027 a32.33687567258081,32.33687567258081 0 0,0 0.524310453172004,-0.18238239240453513 l 3.6325988130454645 10.739132920260149" fill="#ff860c" stroke="none" /><path d="M 95.35216902796891 79.52079915486377 l -2.514053895662696 -11.077385338364474 a32.35909032118809,32.35909032118809 0 0,0 0.5427660845304272,-0.11829334190843119 l 2.3235253945131507 11.11891013840662" fill="#ff870c" stroke="none" /><path d="M 97.84075906011542 79.11130261209362 l -1.1778509001216142 -11.394638998475425 a32.45535379848629,32.45535379848629 0 0,0 0.5546781261319297,-0.05252859524136748 l 0.982073210604669 11.413179349221977" fill="#ff880c" stroke="none" /></svg>