<?xml version="1.0" encoding="utf-8" ?>
<svg baseProfile="full" height="200mm" version="1.1" viewBox="0,0,200,200" width="200mm" xmlns="http://www.w3.org/2000/svg" xmlns:ev="http://www.w3.org/2001/xml-events" xmlns:xlink="http://www.w3.org/1999/xlink"><defs /><rect fill="#1a1a1a" height="200" width="200" x="0" y="0" /><text alignment-baseline="middle" fill="#e1ed5e" style="dominant-baseline: central; font-size:9.0px; font-family:Arial;" text-anchor="middle" x="100.0" y="100.0">2016</text><line stroke="#e1ed5e" stroke-width="0.3" x1="100.0" x2="100.0" y1="15.0" y2="10.0" /><path d="M 100.0 14.0 a86.0,86.0 0 0,1 42.35913384403234,11.155469271406648" fill="none" id="id37" stroke="none" /><text fill="#e1ed5e" style="font-size:6.75px; font-family:Arial;" text-anchor="middle"><textPath startOffset="22.145653131862478" xlink:href="#id37">January</textPath></text><line stroke="#e1ed5e" stroke-width="0.3" x1="143.13028292997686" x2="145.6673583964461" y1="26.7553504044142" y2="22.446841604673864" /><path d="M 143.63769802327073 25.89364864446614 a86.0,86.0 0 0,1 29.32050498858742,28.57503671076993" fill="none" id="id38" stroke="none" /><text fill="#e1ed5e" style="font-size:6.75px; font-family:Arial;" text-anchor="middle"><textPath startOffset="20.669276256404974" xlink:href="#id38">February</textPath></text><line stroke="#e1ed5e" stroke-width="0.3" x1="172.87174338648825" x2="177.1583165268699" y1="56.24261187166439" y2="53.66864786411523" /><path d="M 173.72905801456457 55.72781907015455 a86.0,86.0 0 0,1 12.242430191666344,42.057860355516425" fill="none" id="id39" stroke="none" /><text fill="#e1ed5e" style="font-size:6.75px; font-family:Arial;" text-anchor="middle"><textPath startOffset="22.145653131862474" xlink:href="#id39">March</textPath></text><path d="M 118.18653347947321 89.5 l 10.54658350692319 -6.0890728267529735 a33.17814565350594,33.17814565350594 0 0,0 0.2805396037392243,0.49568659902156487 l -10.649556475683791 5.90712945763229" fill="#ff8a0c" stroke="none" /><path d="M 119.83427380445688 93.10060997987247 l 11.887799079115313 -4.135193611641043 a33.586484542999756,33.586484542999756 0 0,0 0.18474898108813792,0.54617753484447 l -11.957033481775815 3.930514402322411" fill="#ff900d" stroke="none" /><path d="M 120.05942366710727 93.78553927170692 l 13.944150372505367 -4.3199334296648955 a35.597984602258556,35.597984602258556 0 0,0 0.17582637920954608,0.5852688319579198 l -14.016253071718541 4.079926994116253" fill="#ffab0f" stroke="none" /><path d="M 120.51834098615036 95.52812308129327 l 14.614522124370058 -3.185167076130216 a35.95759159178261,35.95759159178261 0 0,0 0.1262664341533595,0.6042305963875405 l -14.667046269347784 2.9338200284572715" fill="#ffb010" stroke="none" /><line stroke="#e1ed5e" stroke-width="0.3" x1="184.99686870605535" x2="189.99668451229388" y1="99.2704041080226" y2="99.22748670261217" /><path d="M 185.99683186730306 99.26182062694052 a86.0,86.0 0 0,1 -10.086455211305974,41.156179273409016" fill="none" id="id40" stroke="none" /><text fill="#e1ed5e" style="font-size:6.75px; font-family:Arial;" text-anchor="middle"><textPath startOffset="21.40746469413373" xlink:href="#id40">April</textPath></text><path d="M 120.99922638620191 99.81974689727618 l 14.17774174160918 -0.12169886126002231 a35.178264051166465,35.178264051166465 0 0,0 0.0,0.6039039279676967 l -14.17774174160918 -0.1216988612600206" fill="#ffa50f" stroke="none" /><path d="M 120.9064616781168 101.97986365728391 l 15.36442318307852 1.4550268497680894 a36.43316567922041,36.43316567922041 0 0,0 -0.0643090612403703,0.6221318310231024 l -15.337181729356484 -1.7185632030741231" fill="#ffb610" stroke="none" /><line stroke="#e1ed5e" stroke-width="0.3" x1="174.33088141563837" x2="178.70328620479359" y1="141.23008692659167" y2="143.65538615756765" /><path d="M 175.20536237346943 141.71514677278685 a86.0,86.0 0 0,1 -30.301960400862466,31.631185727798858" fill="none" id="id41" stroke="none" /><text fill="#e1ed5e" style="font-size:6.75px; font-family:Arial;" text-anchor="middle"><textPath startOffset="22.145653131862474" xlink:href="#id41">May</textPath></text><line stroke="#e1ed5e" stroke-width="0.3" x1="143.1302829299769" x2="145.66735839644613" y1="173.24464959558577" y2="177.55315839532614" /><path d="M 143.63769802327073 174.10635135553383 a86.0,86.0 0 0,1 -40.68552437913181,11.842963189579606" fill="none" id="id42" stroke="none" /><text fill="#e1ed5e" style="font-size:6.75px; font-family:Arial;" text-anchor="middle"><textPath startOffset="21.407464694133747" xlink:href="#id42">June</textPath></text><line stroke="#e1ed5e" stroke-width="0.3" x1="101.45913802915013" x2="101.54496967792366" y1="184.9874750549273" y2="189.98673829345242" /><path d="M 101.47630435890484 185.9873277026323 a86.0,86.0 0 0,1 -42.54439059252881,-10.42667462771756" fill="none" id="id43" stroke="none" /><text fill="#e1ed5e" style="font-size:6.75px; font-family:Arial;" text-anchor="middle"><textPath startOffset="22.145653131862474" xlink:href="#id43">July</textPath></text><path d="M 93.61358852112213 120.00534299687104 l -3.487532606092169 10.924646216172748 a32.46781490202443,32.46781490202443 0 0,0 -0.5294994458192915,-0.17405698503617256 l 3.6745547895592043 -10.863168309734554" fill="#ff800b" stroke="none" /><path d="M 92.59220618246901 119.65005319985036 l -4.018189603701827 10.658725313462229 a32.390973312194966,32.390973312194966 0 0,0 -0.5186068415424677,-0.2006082672524676 l 4.200568707737823 -10.588177158071721" fill="#ff7f0b" stroke="none" /><path d="M 91.92203290615298 119.3841803445677 l -4.962893849744527 11.909138561318288 a33.901856325215775,33.901856325215775 0 0,0 -0.535269830669191,-0.22847486160108174 l 5.1665987555841495 -11.822189050057803" fill="#ff940d" stroke="none" /><path d="M 91.26138138417905 119.09545874513695 l -5.606805568629511 12.251882034756903 a34.47385921249045,34.47385921249045 0 0,0 -0.536004957584926,-0.25087738462666237 l 5.816299240085927 -12.153828418559714" fill="#ff9c0e" stroke="none" /><path d="M 90.28995756902619 118.62028667847754 l -3.199988318223686 6.136399534469238 a27.920644802574564,27.920644802574564 0 0,0 -0.42307911650619184,-0.22526579951354178 l 3.3048562505164396 -6.0805632672331225" fill="#ff4006" stroke="none" /><line stroke="#e1ed5e" stroke-width="0.3" x1="58.13341422392154" x2="55.67067388415222" y1="173.97424548756322" y2="178.32567169271397" /><path d="M 57.64086615596768 174.84453072859336 a86.0,86.0 0 0,1 -31.369924170532247,-30.572349798747897" fill="none" id="id44" stroke="none" /><text fill="#e1ed5e" style="font-size:6.75px; font-family:Arial;" text-anchor="middle"><textPath startOffset="22.145653131862474" xlink:href="#id44">August</textPath></text><path d="M 89.65649057296885 118.27599006163327 l -8.450806200576634 14.931764815808508 a38.15732280847806,38.15732280847806 0 0,0 -0.567285885099477,-0.3275226584696606 l 8.70588455353651 -14.784495260062675" fill="#ffcd13" stroke="none" /><path d="M 89.03521579738668 117.91015095944536 l -7.4624525171126495 12.189355361624518 a35.2922560046385,35.2922560046385 0 0,0 -0.5139827553407197,-0.32076325333283007 l 7.670599401243082 -12.059456311450141" fill="#ffa70f" stroke="none" /><path d="M 87.2517909369889 116.68781488649013 l -12.114156409629404 15.857819609849866 a40.95553127069044,40.95553127069044 0 0,0 -0.5550255672294967,-0.43159123811978645 l 12.384591921494128 -15.647527320109287" fill="#fff016" stroke="none" /><path d="M 86.68645165197938 116.24036423190432 l -10.265537579204535 12.52228669356727 a37.19224894281064,37.19224894281064 0 0,0 -0.490274717981438,-0.4090046069647021 l 10.478986631347865 -12.344219902690698" fill="#ffc011" stroke="none" /><path d="M 85.60350026404147 115.28858382429668 l -9.725118046787495 10.327738352130194 a35.18591204308037,35.18591204308037 0 0,0 -0.43618385784460995,-0.4178542689370935 l 9.90097439049742 -10.159271952887517" fill="#ffa50f" stroke="none" /><path d="M 85.08716467003676 114.78537596483092 l -12.146771413695252 12.042953478437404 a38.10487603756226,38.10487603756226 0 0,0 -0.456556654836329,-0.46846734830811476 l 12.35171486968239 -11.832663438061553" fill="#ffcc13" stroke="none" /><path d="M 83.8745106332314 113.45245675266167 l -11.472115235052476 9.570446548998007 a35.93997574005898,35.93997574005898 0 0,0 -0.39115217961318843,-0.47714205867332765 l 11.634714233904294 -9.372102208626185" fill="#ffaf10" stroke="none" /><path d="M 83.20337586046588 112.60449989151573 l -6.572884259789105 4.9324148859447625 a29.217756634244704,29.217756634244704 0 0,0 -0.29760091125505156,-0.40375279202738795 l 6.656587190627987 -4.818855784648495" fill="#ff5307" stroke="none" /><path d="M 82.37810715431573 111.42229804090323 l -12.55106420029492 8.135448176975473 a35.95709629574465,35.95709629574465 0 0,0 -0.3312886663681351,-0.5208408091156048 l 12.688870558288945 -7.918793693181196" fill="#ffb010" stroke="none" /><path d="M 82.18462484594161 111.11811171558189 l -15.954442122827025 9.95675187008162 a39.80641197179864,39.80641197179864 0 0,0 -0.35680199777040034,-0.5828092486468175 l 16.12301208505283 -9.681405505310245" fill="#ffe215" stroke="none" /><path d="M 81.99639281039703 110.81064883170644 l -2.170897466248346 1.3035615535316354 a23.53220625795161,23.53220625795161 0 0,0 -0.20498377062990933,-0.3481072562622701 l 2.192954947008025 -1.2661031289758065" fill="#ff0000" stroke="none" /><line stroke="#e1ed5e" stroke-width="0.3" x1="26.387840678322732" x2="22.057713659400548" y1="142.50000000000003" y2="145.00000000000006" /><path d="M 25.521815274538298 143.00000000000003 a86.0,86.0 0 0,1 -11.493303480769221,-40.785679425670985" fill="none" id="id45" stroke="none" /><text fill="#e1ed5e" style="font-size:6.75px; font-family:Arial;" text-anchor="middle"><textPath startOffset="21.40746469413373" xlink:href="#id45">September</textPath></text><path d="M 81.81346652052679 110.50000000000001 l -14.756770295410591 8.519825302424788 a38.03965060484956,38.03965060484956 0 0,0 -0.3216463216031251,-0.5683182307174479 l 14.900849982035096 -8.26525030160822" fill="#ffcb12" stroke="none" /><path d="M 81.1358732173502 109.22738970284198 l -15.034145677658614 7.353954021590108 a37.73637284505584,37.73637284505584 0 0,0 -0.2796458259070961,-0.584352222220097 l 15.158170761525621 -7.094789297304907" fill="#ffc712" stroke="none" /><path d="M 80.68587082218212 108.24405325689762 l -14.165287131155674 6.046318756250943 a36.401731396511124,36.401731396511124 0 0,0 -0.2403799694676609,-0.5768244194671204 l 14.26699294515982 -5.802261827342542" fill="#ffb610" stroke="none" /><path d="M 80.16572619554312 106.89939002012753 l -6.089921090909955 2.118390681313821 a27.447845994763455,27.447845994763455 0 0,0 -0.15098220756341366,-0.44635206888108614 l 6.125388720045735 -2.0135369379585732" fill="#ff3a05" stroke="none" /><path d="M 79.48165901384964 104.47187691870673 l -17.964210012484987 3.9152159607765693 a39.38591192713012,39.38591192713012 0 0,0 -0.1383051098464976,-0.6618400176288575 l 18.028772833155852 -3.6062594918623025" fill="#ffdc14" stroke="none" /><path d="M 79.17382384314188 102.69636545807758 l -18.911950491365825 2.448530621546665 a40.06979741875943,40.06979741875943 0 0,0 -0.08246347849699001,-0.6829158981224979 l 18.951196056122477 -2.123521046500768" fill="#ffe515" stroke="none" /><path d="M 79.0935383218832 101.97986365728391 l -17.00135439233387 1.6100459371955325 a38.0774207389058,38.0774207389058 0 0,0 -0.056039768193023434,-0.6512670523636396 l 17.02648778322463 -1.3179578374562309" fill="#ffcc13" stroke="none" /><path d="M 79.06263194458094 101.62068470465958 l -15.285618815875633 1.1832035693585847 a36.331344144294526,36.331344144294526 0 0,0 -0.04279493046088659,-0.6222288967051008 l 15.303677707501585 -0.9206312484991405" fill="#ffb510" stroke="none" /><line stroke="#e1ed5e" stroke-width="0.3" x1="15.003131293944662" x2="10.003315487706104" y1="100.72959589197737" y2="100.7725132973878" /><path d="M 14.003168132696942 100.73817937305945 a86.0,86.0 0 0,1 10.791469493833604,-42.45332614584628" fill="none" id="id46" stroke="none" /><text fill="#e1ed5e" style="font-size:6.75px; font-family:Arial;" text-anchor="middle"><textPath startOffset="22.145653131862435" xlink:href="#id46">October</textPath></text><path d="M 79.17382384314186 97.30363454192245 l -16.94772152931552 -2.1942218571754197 a38.0891741928547,38.0891741928547 0 0,0 0.08951950506196397,-0.6477185445367948 l 16.907557507698346 2.484828709912281" fill="#ffcc13" stroke="none" /><path d="M 79.2786578344484 96.59031103205396 l -10.200426301399744 -1.6784762661778798 a31.337600268263913,31.337600268263913 0 0,0 0.09190151580363999,-0.530063521277945 l 10.170109968103871 1.8533328203764177" fill="#ff710a" stroke="none" /><path d="M 79.407916724674 95.88100663000787 l -15.006473446073118 -3.001714970014834 a36.30374261574301,36.30374261574301 0 0,0 0.12748195648227997,-0.6100473107554533 l 14.952733778766472 3.2588787320556962" fill="#ffb410" stroke="none" /><path d="M 79.73907114497095 94.47779374421319 l -19.309202352572502 -5.262808965402509 a41.01355674783751,41.01355674783751 0 0,0 0.19096987734229776,-0.6776847240025582 l 19.21601398315562 5.59350161330808" fill="#fff116" stroke="none" /><path d="M 80.05021161711548 93.44210830539832 l -14.060470215423555 -4.621955836234707 a35.80065195965762,35.80065195965762 0 0,0 0.19692843897877788,-0.5821839379503049 l 13.979056354872412 4.862641448659174" fill="#ffae10" stroke="none" /><path d="M 80.5471966667186 92.08871423366112 l -26.24932968877139 -10.675373866933723 a49.337094351902536,49.337094351902536 0 0,0 0.3257990424892457,-0.7817990989972478 l 26.062204801745665 11.124405475372235" fill="#a9ff21" stroke="none" /><path d="M 81.63589988554816 89.8137432299009 l -15.413704496445046 -8.549722055569779 a38.62611793706222,38.62611793706222 0 0,0 0.32660522782723234,-0.577080142862228 l 15.264665903596445 8.813058968531111" fill="#ffd313" stroke="none" /><line stroke="#e1ed5e" stroke-width="0.3" x1="26.387840678322718" x2="22.05771365940052" y1="57.49999999999999" y2="54.99999999999999" /><path d="M 25.521815274538284 56.99999999999999 a86.0,86.0 0 0,1 29.574782752854787,-30.34633250058573" fill="none" id="id47" stroke="none" /><text fill="#e1ed5e" style="font-size:6.75px; font-family:Arial;" text-anchor="middle"><textPath startOffset="21.40746469413373" xlink:href="#id47">November</textPath></text><path d="M 82.18462484594161 88.88188828441811 l -21.08113432484635 -13.156186972657537 a45.849536818253554,45.849536818253554 0 0,0 0.4224321057847356,-0.664133434401404 l 20.852184527435725 13.516134081737613" fill="#d2ff1c" stroke="none" /><path d="M 82.78059297857968 87.97951657250589 l -51.65822106426094 -36.061450282482355 a84.0,84.0 0 0,0 0.8355396058801108,-1.1752910931619187 l 51.03156635985086 36.94291860235379" fill="#4dd2ff" stroke="none" /><path d="M 84.58840730492382 85.73525988315684 l -5.061772050312093 -4.685100641899974 a27.8972243920328,27.8972243920328 0 0,0 0.32831601254481396,-0.34866022788253814 l 4.980600204031006 4.771302329727024" fill="#ff4006" stroke="none" /><path d="M 85.08716467003674 85.21462403516908 l -9.10976115733404 -9.031900418719966 a33.8282100667765,33.8282100667765 0 0,0 0.412395004982631,-0.40887028253007135 l 8.953374232221432 9.186950711478712" fill="#ff930d" stroke="none" /><path d="M 86.40962598614128 83.9905735841838 l -20.12678220570412 -23.709298830245466 a52.100132041162254,52.100132041162254 0 0,0 0.6867930353593904,-0.5729471767375524 l 19.71681483618282 24.0513081908949" fill="#8aff24" stroke="none" /><path d="M 87.25179093698888 83.31218511350988 l -22.724644628633175 -29.747289289773352 a58.434084650050295,58.434084650050295 0 0,0 0.8023473168846709,-0.6020963846435998 l 22.21064432283775 30.133004701680953" fill="#46ff2c" stroke="none" /><line stroke="#e1ed5e" stroke-width="0.3" x1="56.869717070023135" x2="54.33264160355391" y1="26.7553504044142" y2="22.446841604673864" /><path d="M 56.362301976729285 25.89364864446614 a86.0,86.0 0 0,1 42.16139366436587,-11.88097634709845" fill="none" id="id48" stroke="none" /><text fill="#e1ed5e" style="font-size:6.75px; font-family:Arial;" text-anchor="middle"><textPath startOffset="22.145653131862474" xlink:href="#id48">December</textPath></text><path d="M 90.28995756902619 81.37971332152246 l -15.448619291483334 -29.624764468225813 a54.41087409528589,54.41087409528589 0 0,0 0.8318976435602816,-0.42477286430727185 l 14.93779442620947 29.88559528420592" fill="#70ff27" stroke="none" /></svg>