<?xml version="1.0" encoding="utf-8" ?>
<svg baseProfile="full" height="200mm" version="1.1" viewBox="0,0,200,200" width="200mm" xmlns="http://www.w3.org/2000/svg" xmlns:ev="http://www.w3.org/2001/xml-events" xmlns:xlink="http://www.w3.org/1999/xlink"><defs /><rect fill="#1a1a1a" height="200" width="200" x="0" y="0" /><text alignment-baseline="middle" fill="#e1ed5e" style="dominant-baseline: central; font-size:9.0px; font-family:Arial;" text-anchor="middle" x="100.0" y="100.0">2012</text><line stroke="#e1ed5e" stroke-width="0.3" x1="100.0" x2="100.0" y1="15.0" y2="10.0" /><path d="M 100.0 14.0 a86.0,86.0 0 0,1 42.35913384403234,11.155469271406648" fill="none" id="id1" stroke="none" /><text fill="#e1ed5e" style="font-size:6.75px; font-family:Arial;" text-anchor="middle"><textPath startOffset="22.145653131862478" xlink:href="#id1">January</textPath></text><line stroke="#e1ed5e" stroke-width="0.3" x1="143.13028292997686" x2="145.6673583964461" y1="26.7553504044142" y2="22.446841604673864" /><path d="M 143.63769802327073 25.89364864446614 a86.0,86.0 0 0,1 29.32050498858742,28.57503671076993" fill="none" id="id2" stroke="none" /><text fill="#e1ed5e" style="font-size:6.75px; font-family:Arial;" text-anchor="middle"><textPath startOffset="20.669276256404974" xlink:href="#id2">February</textPath></text><line stroke="#e1ed5e" stroke-width="0.3" x1="172.87174338648825" x2="177.1583165268699" y1="56.24261187166439" y2="53.66864786411523" /><path d="M 173.72905801456457 55.72781907015455 a86.0,86.0 0 0,1 12.242430191666344,42.057860355516425" fill="none" id="id3" stroke="none" /><text fill="#e1ed5e" style="font-size:6.75px; font-family:Arial;" text-anchor="middle"><textPath startOffset="22.145653131862474" xlink:href="#id3">March</textPath></text><line stroke="#e1ed5e" stroke-width="0.3" x1="184.99686870605535" x2="189.99668451229388" y1="99.2704041080226" y2="99.22748670261217" /><path d="M 185.99683186730306 99.26182062694052 a86.0,86.0 0 0,1 -10.086455211305974,41.156179273409016" fill="none" id="id4" stroke="none" /><text fill="#e1ed5e" style="font-size:6.75px; font-family:Arial;" text-anchor="middle"><textPath startOffset="21.40746469413373" xlink:href="#id4">April</textPath></text><line stroke="#e1ed5e" stroke-width="0.3" x1="174.33088141563837" x2="178.70328620479359" y1="141.23008692659167" y2="143.65538615756765" /><path d="M 175.20536237346943 141.71514677278685 a86.0,86.0 0 0,1 -30.301960400862466,31.631185727798858" fill="none" id="id5" stroke="none" /><text fill="#e1ed5e" style="font-size:6.75px; font-family:Arial;" text-anchor="middle"><textPath startOffset="22.145653131862474" xlink:href="#id5">May</textPath></text><line stroke="#e1ed5e" stroke-width="0.3" x1="143.1302829299769" x2="145.66735839644613" y1="173.24464959558577" y2="177.55315839532614" /><path d="M 143.63769802327073 174.10635135553383 a86.0,86.0 0 0,1 -40.68552437913181,11.842963189579606" fill="none" id="id6" stroke="none" /><text fill="#e1ed5e" style="font-size:6.75px; font-family:Arial;" text-anchor="middle"><textPath startOffset="21.407464694133747" xlink:href="#id6">June</textPath></text><line stroke="#e1ed5e" stroke-width="0.3" x1="101.45913802915013" x2="101.54496967792366" y1="184.9874750549273" y2="189.98673829345242" /><path d="M 101.47630435890484 185.9873277026323 a86.0,86.0 0 0,1 -42.54439059252881,-10.42667462771756" fill="none" id="id7" stroke="none" /><text fill="#e1ed5e" style="font-size:6.75px; font-family:Arial;" text-anchor="middle"><textPath startOffset="22.145653131862474" xlink:href="#id7">July</textPath></text><line stroke="#e1ed5e" stroke-width="0.3" x1="58.13341422392154" x2="55.67067388415222" y1="173.97424548756322" y2="178.32567169271397" /><path d="M 57.64086615596768 174.84453072859336 a86.0,86.0 0 0,1 -31.369924170532247,-30.572349798747897" fill="none" id="id8" stroke="none" /><text fill="#e1ed5e" style="font-size:6.75px; font-family:Arial;" text-anchor="middle"><textPath startOffset="22.145653131862474" xlink:href="#id8">August</textPath></text><line stroke="#e1ed5e" stroke-width="0.3" x1="26.387840678322732" x2="22.057713659400548" y1="142.50000000000003" y2="145.00000000000006" /><path d="M 25.521815274538298 143.00000000000003 a86.0,86.0 0 0,1 -11.493303480769221,-40.785679425670985" fill="none" id="id9" stroke="none" /><text fill="#e1ed5e" style="font-size:6.75px; font-family:Arial;" text-anchor="middle"><textPath startOffset="21.40746469413373" xlink:href="#id9">September</textPath></text><line stroke="#e1ed5e" stroke-width="0.3" x1="15.003131293944662" x2="10.003315487706104" y1="100.72959589197737" y2="100.7725132973878" /><path d="M 14.003168132696942 100.73817937305945 a86.0,86.0 0 0,1 10.791469493833604,-42.45332614584628" fill="none" id="id10" stroke="none" /><text fill="#e1ed5e" style="font-size:6.75px; font-family:Arial;" text-anchor="middle"><textPath startOffset="22.145653131862435" xlink:href="#id10">October</textPath></text><path d="M 80.83023694016515 91.42560881287825 l -15.338931251128349 -6.860908845300785 a37.80341876257235,37.80341876257235 0 0,0 0.2700523855226694,-0.5901131990630395 l 15.218894400750633 7.123211026578496" fill="#ff850c" stroke="none" /><path d="M 80.9802524753101 91.09779779509293 l -23.949960704315725 -11.209790914029144 a47.44352529589271,47.44352529589271 0 0,0 0.35158079102594486,-0.7346686325801474 l 23.754000655329875 11.619272048674379" fill="#eeff19" stroke="none" /><path d="M 81.1358732173502 90.77261029715801 l -23.773711934648126 -11.628913823133738 a47.465468366486576,47.465468366486576 0 0,0 0.3643089671788346,-0.7288619752599146 l 23.570583054257547 12.035307654557423" fill="#eeff19" stroke="none" /><path d="M 81.29705330413844 90.45014215332179 l -23.287995972852944 -11.89101667727956 a47.14817458353366,47.14817458353366 0 0,0 0.37424858407789924,-0.7176710064948616 l 23.080439319800107 12.289033926878908" fill="#f2ff19" stroke="none" /><path d="M 81.46374523516351 90.13048839642627 l -15.15119416118554 -8.067157496426342 a38.165014261051184,38.165014261051184 0 0,0 0.31287069938268686,-0.5756468475028654 l 15.010478112187501 8.326059177403826" fill="#ff8a0c" stroke="none" /><path d="M 81.63589988554816 89.8137432299009 l -14.795462385130936 -8.206793578122753 a37.919136148862364,37.919136148862364 0 0,0 0.3206273051071455,-0.5665177262093264 l 14.652401715002421 8.459568074431184" fill="#ff870c" stroke="none" /><line stroke="#e1ed5e" stroke-width="0.3" x1="26.387840678322718" x2="22.05771365940052" y1="57.49999999999999" y2="54.99999999999999" /><path d="M 25.521815274538284 56.99999999999999 a86.0,86.0 0 0,1 29.574782752854787,-30.34633250058573" fill="none" id="id11" stroke="none" /><text fill="#e1ed5e" style="font-size:6.75px; font-family:Arial;" text-anchor="middle"><textPath startOffset="21.40746469413373" xlink:href="#id11">November</textPath></text><path d="M 81.81346652052679 89.5 l -22.28576490355438 -12.86669236616384 a46.73338473232767,46.73338473232767 0 0,0 0.4070840324839198,-0.6913176842278368 l 22.061607160940678 13.247361218685247" fill="#f8ff18" stroke="none" /><path d="M 81.99639281039701 89.18935116829357 l -19.322050935969994 -11.602336419434085 a43.53787618126307,43.53787618126307 0 0,0 0.3902487169946766,-0.6374419508811291 l 19.120034254519922 11.932315486439759" fill="#ffd914" stroke="none" /><path d="M 82.18462484594161 88.88188828441811 l -27.454303664450563 -17.133515998136932 a53.361955443982026,53.361955443982026 0 0,0 0.4916473485075263,-0.7729512923078729 l 27.156138624317148 17.602280965123477" fill="#a1ff22" stroke="none" /><path d="M 82.37810715431573 88.57770195909679 l -18.682026256063054 -12.109463709342245 a43.26336040134342,43.26336040134342 0 0,0 0.40930344771007704,-0.6197375875901513 l 18.471398369432247 12.428381175271458" fill="#ffd513" stroke="none" /><path d="M 82.576782715395 88.27688183743585 l -35.401698370765935 -23.819842591451255 a63.66925296529348,63.66925296529348 0 0,0 0.6179260573156597,-0.9015725845674988 l 34.98758257663496 24.42404991108879" fill="#30ff39" stroke="none" /><path d="M 82.78059297857968 87.97951657250589 l -6.939443507418886 -4.844270512520819 a29.46302741287873,29.46302741287873 0 0,0 0.29306578943561423,-0.4122337344754979 l 6.8552626194533 4.962681473705838" fill="#ff0000" stroke="none" /><path d="M 82.98947788004972 87.6856937992154 l -21.19233630767324 -15.341617180381753 a47.162575100454276,47.162575100454276 0 0,0 0.4803799792958879,-0.6517277015612016 l 20.925854308793536 15.70315119121182" fill="#f2ff19" stroke="none" /><path d="M 83.2033758604659 87.39550010848427 l -35.39076748752289 -26.557891707965197 a65.24735060235713,65.24735060235713 0 0,0 0.6799644601045781,-0.8900953054292909 l 34.92965105006401 27.161507926635373" fill="#33ff4e" stroke="none" /><path d="M 83.42222388311158 87.10902102172516 l -20.611868528956727 -16.027913637888986 a47.11021140930545,47.11021140930545 0 0,0 0.501911226277835,-0.6341484382558862 l 20.33369087203733 16.379382020059555" fill="#f3ff19" stroke="none" /><path d="M 83.64595745247003 86.82634096563983 l -10.57320074602927 -8.517022083391206 a34.57690094185,34.57690094185 0 0,0 0.3763171757681253,-0.4590457661202387 l 10.425436751022515 8.697270131209937" fill="#ff5307" stroke="none" /><path d="M 83.8745106332314 86.54754324733833 l -25.941302696382387 -21.64115734372413 a54.78299685879216,54.78299685879216 0 0,0 0.6086271902156609,-0.7169612997027466 l 25.565980942659614 22.083285425876433" fill="#8fff24" stroke="none" /><path d="M 84.10781606972428 86.27271002978789 l -19.91351951487656 -17.200823870872835 a47.31381008721767,47.31381008721767 0 0,0 0.5361982534629594,-0.6100951838850668 l 19.615310197455006 17.540131332569203" fill="#f0ff19" stroke="none" /><path d="M 84.34580500576568 86.00192230759919 l -26.23864588786598 -23.462758948449295 a56.19897151198972,56.19897151198972 0 0,0 0.649238080911009,-0.7136263806930143 l 25.832010106113106 23.909722904699965" fill="#7eff26" stroke="none" /><path d="M 84.58840730492382 85.73525988315684 l -6.773654516899621 -6.269593496052116 a30.229853634812073,30.229853634812073 0 0,0 0.35576818918334135,-0.3778134881468519 l 6.665030493980009 6.38494844414348" fill="#ff0d01" stroke="none" /><path d="M 84.83555147118756 85.47280134310135 l -30.299040752014765 -29.02579564839975 a62.95865445310316,62.95865445310316 0 0,0 0.7543442115326934,-0.7740236151304846 l 29.79630973933127 29.541641955597964" fill="#30ff2f" stroke="none" /><path d="M 85.08716467003674 85.21462403516908 l -20.16330085666163 -19.990965987450096 a49.393615876595184,49.393615876595184 0 0,0 0.6021507027811733,-0.5970041465031535 l 19.817158233750476 20.334150144181923" fill="#d4ff1c" stroke="none" /><path d="M 85.34317274990677 84.96080404539775 l -5.952079367488095 -6.107357780615794 a29.52801664265061,29.52801664265061 0 0,0 0.36604548428139383,-0.3506632936577312 l 5.8463613973414015 6.208633204579093" fill="#ff0100" stroke="none" /><path d="M 85.60350026404147 84.71141617570332 l -28.741374187148924 -30.52234338518859 a62.924694821657035,62.924694821657035 0 0,0 0.7927619475697858,-0.7337686234219256 l 28.213182468265185 31.01122975474288" fill="#30ff2f" stroke="none" /><path d="M 85.86807049272753 84.46653392183569 l -16.934413130113036 -18.613886502537536 a46.16448129389306,46.16448129389306 0 0,0 0.5907624115345894,-0.5282633912160296 l 16.612385691755055 18.901845423636964" fill="#fffe18" stroke="none" /><path d="M 86.13680546590413 84.22622945171909 l -11.489226539925372 -13.072630754208884 a38.40390764517019,38.40390764517019 0 0,0 0.49892257442356425,-0.4309574368032244 l 11.26312448573896 13.267932323476819" fill="#ff8e0d" stroke="none" /><path d="M 86.40962598614128 83.9905735841838 l -13.739272771176987 -16.184828777536516 a42.230080047870274,42.230080047870274 0 0,0 0.5566842870308366,-0.4644058314038844 l 13.45941414998424 16.41829679285228" fill="#ffc612" stroke="none" /><path d="M 86.68645165197937 83.75963576809568 l -15.049932058556355 -18.358470026715825 a44.73886847954185,44.73886847954185 0 0,0 0.5981144219433029,-0.48179864001910067 l 14.732566866257805 18.614116960528325" fill="#ffea16" stroke="none" /><path d="M 86.96720088162412 83.53348406188908 l -32.053029150918356 -40.49795524233513 a72.64766264372282,72.64766264372282 0 0,0 0.9845143968522451,-0.7655643497744001 l 31.35310480943087 41.04222064373034" fill="#3dffad" stroke="none" /><path d="M 87.25179093698888 83.31218511350988 l -17.254351534098703 -22.586500030260343 a49.42292438295547,49.42292438295547 0 0,0 0.6786167869102433,-0.5092466882591253 l 16.864081758277706 22.879365745783467" fill="#d4ff1c" stroke="none" /><path d="M 87.54013794807813 83.09580414077388 l -10.367413433423714 -14.065387441840452 a38.473362160403404,38.473362160403404 0 0,0 0.5349977307427343,-0.38729709920921124 l 10.12443469230701 14.241285312422741" fill="#ff8f0d" stroke="none" /><path d="M 87.83215693770416 82.88440491214696 l -9.644196879351274 -13.56577068667151 a37.644538677026915,37.644538677026915 0 0,0 0.5299004963537239,-0.36991170060137724 l 9.409901291823784 13.729327203078014" fill="#ff820c" stroke="none" /><path d="M 88.12776184653039 82.6780497279521 l -11.973851884113294 -17.47020774182018 a42.17973766327235,42.17973766327235 0 0,0 0.6007674334371419,-0.40422314061519876 l 11.672188162579165 17.673180556492486" fill="#ffc612" stroke="none" /><path d="M 88.4268655584334 82.4767994020092 l -14.775662182247924 -22.37223577544724 a47.81113810557308,47.81113810557308 0 0,0 0.6887407721466406,-0.4464334473755142 l 14.389435777844257 22.622583064526662" fill="#e9ff1a" stroke="none" /><path d="M 88.72937992617638 82.28071324371311 l -33.811860221470866 -53.157860268860674 a84.0,84.0 0 0,0 1.2233434848412057,-0.7634568126338559 l 32.89435260783996 53.73045287833607" fill="#4dd2ff" stroke="none" /><line stroke="#e1ed5e" stroke-width="0.3" x1="56.869717070023135" x2="54.33264160355391" y1="26.7553504044142" y2="22.446841604673864" /><path d="M 56.362301976729285 25.89364864446614 a86.0,86.0 0 0,1 42.16139366436587,-11.88097634709845" fill="none" id="id12" stroke="none" /><text fill="#e1ed5e" style="font-size:6.75px; font-family:Arial;" text-anchor="middle"><textPath startOffset="22.145653131862474" xlink:href="#id12">December</textPath></text><path d="M 89.65649057296885 81.72400993836675 l -5.0652716972393454 -8.949849744062082 a31.283811929831373,31.283811929831373 0 0,0 0.4696382632147996,-0.2605004279193989 l 4.910889245868444 9.035483087414626" fill="#ff1e03" stroke="none" /><path d="M 90.61103034731259 81.2157712731953 l -9.76237481299426 -19.531289181618884 a42.835183055917064,42.835183055917064 0 0,0 0.6605588096972623,-0.32311241484700837 l 9.425655754034945 19.69599534656311" fill="#ffcf13" stroke="none" /><path d="M 91.26138138417902 80.90454125486306 l -10.71736934774858 -23.41938620204922 a46.755186969167866,46.755186969167866 0 0,0 0.7326907323110842,-0.32772324511287493 l 10.313765212581878 23.599913198071942" fill="#f8ff18" stroke="none" /><path d="M 91.5904679813234 80.7573450057729 l -11.519239773645156 -26.358274903734184 a49.76545742489682,49.76545742489682 0 0,0 0.7857371500092868,-0.3353844665199306 l 11.065067548465437 26.55213401991352" fill="#cfff1d" stroke="none" /><path d="M 91.92203290615298 80.6158196554323 l -8.909879027561226 -21.38046613857609 a44.16269147980377,44.16269147980377 0 0,0 0.7022825619763522,-0.28561220412926225 l 8.541542004394433 21.530265599284643" fill="#ffe215" stroke="none" /><path d="M 92.25597844496254 80.48000691201159 l -7.932902785548643 -19.996097175228517 a42.512202324405266,42.512202324405266 0 0,0 0.680656266854862,-0.26329246618144764 l 7.588474256200252 20.129329529548006" fill="#ffcb12" stroke="none" /><path d="M 92.592206182469 80.34994680014964 l -10.819654970492898 -28.70042026157152 a51.67212181886569,51.67212181886569 0 0,0 0.832686027645411,-0.3057738432546827 l 10.325379791193361 28.881924953834925" fill="#b6ff1f" stroke="none" /><path d="M 92.93061703081487 80.22567764915836 l -6.760521296071904 -18.910381280937333 a41.08250901618288,41.08250901618288 0 0,0 0.6661122471390162,-0.23170841723294797 l 6.4349032768878835 19.023648130738867" fill="#ffb610" stroke="none" /><path d="M 93.27111125876988 80.10723608172694 l -7.939685956066916 -23.47227073937224 a45.7787430420382,45.7787430420382 0 0,0 0.7465799329030405,-0.24541565290695033 l 7.535583285516115 23.60510731368122" fill="#fff917" stroke="none" /><path d="M 93.61358852112211 79.99465700312896 l -10.593140144218255 -33.182860625235634 a55.832698106647754,55.832698106647754 0 0,0 0.9155482183369207,-0.2836391783799438 l 10.02195129300972 33.35981639142222" fill="#82ff25" stroke="none" /><path d="M 93.95794788825049 79.88797359093562 l -8.569989843003158 -28.526708949219145 a50.78620233233228,50.78620233233228 0 0,0 0.8371016879284676,-0.2436681013052625 l 8.079028142693065 28.669620744826926" fill="#c2ff1e" stroke="none" /><path d="M 94.30408787586887 79.78721728523814 l -11.732381410430557 -41.6340826557114 a64.25558475090153,64.25558475090153 0 0,0 1.0642517842943648,-0.29006655632689604 l 11.015948225201514 41.82934970618244" fill="#31ff41" stroke="none" /><path d="M 94.6519064749342 79.69241777938228 l -2.196850906000961 -8.341800716640252 a29.626227048909453,29.626227048909453 0 0,0 0.49291651964724237,-0.12529745175927395 l 2.0533290931283403 8.378283400234789" fill="#ff0300" stroke="none" /><path d="M 95.00130118170881 79.60360301121753 l -7.393937250656453 -30.169787169952023 a52.062620075371086,52.062620075371086 0 0,0 0.8698618750715709,-0.20528503400580086 l 6.874943221844977 30.292268347604058" fill="#b1ff20" stroke="none" /><path d="M 95.35216902796891 79.52079915486377 l -4.654282101627062 -20.507625712449368 a42.02914772984013,42.02914772984013 0 0,0 0.7049640679960455,-0.15364363748107368 l 4.301555617011898 20.584500808064153" fill="#ffc412" stroke="none" /><path d="M 95.70440661134978 79.44403061299748 l -8.791482207998266 -42.07042491765634 a63.97919045498309,63.97919045498309 0 0,0 1.076993746605691,-0.21542891229015476 l 8.067991975861599 42.215143226609364" fill="#31ff3d" stroke="none" /><path d="M 96.41257539226777 79.30868818359171 l -2.192257917504911 -12.64436109829735 a33.83299896208982,33.83299896208982 0 0,0 0.5731028033332087,-0.09430384819728647 l 1.974877611118629 12.680130944990305" fill="#ff4706" stroke="none" /><path d="M 96.76829788921471 79.25015418208739 l -7.909690389613151 -50.78588633035116 a72.39814639088542,72.39814639088542 0 0,0 1.2296476770556393,-0.1807158632838302 l 7.036717606949827 50.914183266933875" fill="#3dffaa" stroke="none" /><path d="M 97.12497278360702 79.19773525538626 l -2.9153949570902684 -21.094345607131753 a42.294857227719234,42.294857227719234 0 0,0 0.7200642608986701,-0.09322673476206299 l 2.5528528743008043 21.14128393809421" fill="#ffc712" stroke="none" /><path d="M 97.48249496171623 79.15144685158666 l -3.7219899558651894 -30.82341613330628 a52.04732180653473,52.04732180653473 0 0,0 0.8879374676719631,-0.09949524531296612 l 3.1923165865924275 30.882767139126216" fill="#b2ff20" stroke="none" /><path d="M 97.84075906011542 79.11130261209362 l -4.395093009467065 -42.51853795962569 a63.7450922654987,63.7450922654987 0 0,0 1.0894353069595215,-0.10317065625068539 l 3.664558139122528 42.58772037138156" fill="#30ff3a" stroke="none" /><path d="M 98.1996594967304 79.07731436759882 l -2.9626303044473423 -34.43025493922059 a55.55748303190719,55.55748303190719 0 0,0 0.9509086654246294,-0.073606344670575 l 2.3711526442474957 34.476039050886214" fill="#86ff25" stroke="none" /><path d="M 98.5590905019552 79.04949213459386 l -1.4615997438266615 -21.251339498189495 a42.30154229811689,42.30154229811689 0 0,0 0.7248785194992379,-0.04360689170091791 l 1.0965768721949398 21.273298367715107" fill="#ffc812" stroke="none" /><path d="M 98.9189461498227 79.02784411241856 l -0.7339329783132865 -14.238103707506202 a35.25700721758805,35.25700721758805 0 0,0 0.6046983694326749,-0.02596834984038622 l 0.48940884827979164 14.248604625772415" fill="#ff5d08" stroke="none" /><path d="M 99.27912038922189 79.0123766808444 l -0.5626986785682124 -16.382358068400535 a37.39201896302437,37.39201896302437 0 0,0 0.6416945616327738,-0.016527775660345984 l 0.2813908028646947 16.389603561410926" fill="#ff7e0b" stroke="none" /></svg>