<?xml version="1.0" encoding="utf-8" ?>
<svg baseProfile="full" height="200mm" version="1.1" viewBox="0,0,200,200" width="200mm" xmlns="http://www.w3.org/2000/svg" xmlns:ev="http://www.w3.org/2001/xml-events" xmlns:xlink="http://www.w3.org/1999/xlink"><defs /><rect fill="#1a1a1a" height="200" width="200" x="0" y="0" /><text alignment-baseline="middle" fill="#e1ed5e" style="dominant-baseline: central; font-size:9.0px; font-family:Arial;" text-anchor="middle" x="100.0" y="100.0">2019</text><line stroke="#e1ed5e" stroke-width="0.3" x1="100.0" x2="100.0" y1="15.0" y2="10.0" /><path d="M 100.0 14.0 a86.0,86.0 0 0,1 42.46469731375804,11.215312516191453" fill="none" id="id37" stroke="none" /><text fill="#e1ed5e" style="font-size:6.75px; font-family:Arial;" text-anchor="middle"><textPath startOffset="22.20632615414155" xlink:href="#id37">January</textPath></text><path d="M 100.0 79.0 l 0.0 -15.15327393204403 a36.15327393204403,36.15327393204403 0 0,0 0.6223191803917277,0.005356497658808711 l -0.2608387011191994 15.15102881099378" fill="#ff6509" stroke="none" /><path d="M 101.80526077348638 79.07773832637324 l 1.2838813404896547 -14.879679300700198 a35.934965931937825,35.934965931937825 0 0,0 0.6158138713225014,0.058478947313790317 l -1.5398203389024003 14.85537480887123" fill="#ff6109" stroke="none" /><path d="M 103.2404852339499 79.25152402106235 l 1.7121086276938795 -10.962446106177051 a32.095338687208255,32.095338687208255 0 0,0 0.5451176156575352,0.08994907733145936 l -1.9005554494902899 10.931350765905966" fill="#ff2403" stroke="none" /><path d="M 103.95276090670814 79.375362276772 l 2.8995731559287434 -15.129335495991608 a36.404684905471264,36.404684905471264 0 0,0 0.6144306277744821,0.12324900366832267 l -3.159570193170351 15.077182536246077" fill="#ff6909" stroke="none" /><path d="M 104.66035177308747 79.52364482259891 l 3.467281903301893 -15.234321186262992 a36.623910707732115,36.623910707732115 0 0,0 0.6134963941799886,0.14519477522888147 l -3.729001984444405 15.172380498893242" fill="#ff6c0a" stroke="none" /><path d="M 105.01212808612495 79.60689891045804 l 3.724604510517453 -15.154488272519536 a36.60548600850672,36.60548600850672 0 0,0 0.610598874959266,0.15565524877819426 l -3.984912274161744 15.088130027572474" fill="#ff6c09" stroke="none" /><path d="M 105.36241919743992 79.69619591428918 l 4.000406838212003 -15.146797315840452 a36.66616493588539,36.66616493588539 0 0,0 0.6088366241530856,0.16641804831775697 l -4.260541351588799 15.075692726696401" fill="#ff6d0a" stroke="none" /><path d="M 105.71112130821622 79.79150937346287 l 2.91819771176458 -10.325883118563231 a31.73031873073569,31.73031873073569 0 0,0 0.524320523538993,0.15306353863646135 l -3.095508453027 10.274121251008067" fill="#ff1e03" stroke="none" /><path d="M 106.0581310904928 79.89281104454417 l 4.308640114397056 -14.300555670905966 a35.93553722274737,35.93553722274737 0 0,0 0.590736813751945,0.18354480359219258 l -4.554162300859719 14.224270732431254" fill="#ff6109" stroke="none" /><path d="M 106.40334571778207 80.00007090966166 l 4.510393401904536 -14.087564873643256 a35.791995562095444,35.791995562095444 0 0,0 0.585143185842406,0.19291250852397757 l -4.752219409989359 14.007838640860042" fill="#ff5f08" stroke="none" /><path d="M 106.74666289553966 80.11325718540242 l 5.121527589670142 -15.096426718010658 a36.94152265324798,36.94152265324798 0 0,0 0.6004193561360847,0.2094745238127781 l -5.3806289498695 15.006031341025672" fill="#ff710a" stroke="none" /><path d="M 107.4271985657038 80.35727306442388 l 5.260003232934546 -13.911141094554827 a35.87237306427908,35.87237306427908 0 0,0 0.57569493495593,0.2233606908054625 l -5.498681332890143 13.818537699858817" fill="#ff6008" stroke="none" /><path d="M 107.76421540070413 80.48803036053334 l 5.589048722958131 -14.045636727951793 a36.11679121775479,36.11679121775479 0 0,0 0.5756605999662378,0.23482641270309165 l -5.829993192512756 13.947349429065122" fill="#ff6409" stroke="none" /><path d="M 108.09893153111575 80.62456947434976 l 5.906850397480954 -14.131218304797159 a36.3160769257684,36.3160769257684 0 0,0 0.5746867721794855,0.24605088416847276 l -6.149220927450755 14.027447892665895" fill="#ff6709" stroke="none" /><path d="M 108.43124777332544 80.76684994638697 l 6.150667131486501 -14.030746936885144 a36.31967903610452,36.31967903610452 0 0,0 0.570422837983547,0.2559320999765912 l -6.391272087936828 13.922794506392021" fill="#ff6709" stroke="none" /><path d="M 109.08828744355905 81.06846463323043 l 14.145828729698387 -29.466745913537725 a53.6862904775527,53.6862904775527 0 0,0 0.8296544679804809,0.4071078442882274 l -14.6509544646893 29.218882909114665" fill="#a0ff22" stroke="none" /><path d="M 109.41281617654863 81.2277094730956 l 6.6787424102318536 -13.319636815132318 a35.900279362121296,35.900279362121296 0 0,0 0.5500256370188746,0.2817444943927126 l -6.907028534839484 13.202699795427105" fill="#ff6108" stroke="none" /><path d="M 109.73455568895987 81.39251694778311 l 6.9545553846594075 -13.293546782265183 a36.0028072923226,36.0028072923226 0 0,0 0.5466511163830334,0.2920020946447771 l -7.182351547570752 13.171865961118653" fill="#ff6309" stroke="none" /><path d="M 110.05341064243156 81.56283822128135 l 7.180574418047294 -13.168606845810316 a35.999095147129296,35.999095147129296 0 0,0 0.5414879510562832,0.30133745850625615 l -7.406186458175612 13.04305398974388" fill="#ff6209" stroke="none" /><path d="M 110.36928655335952 81.73862282372117 l 7.37456202593605 -12.987360120918815 a35.93504897831977,35.93504897831977 0 0,0 0.5352667018779471,0.31006102280269005 l -7.597025460279325 12.858494940726077" fill="#ff6109" stroke="none" /><line stroke="#e1ed5e" stroke-width="0.3" x1="143.23703022742887" x2="145.7803849466894" y1="26.81831364943548" y2="22.513508569990506" /><path d="M 143.74570117128098 25.957352633546492 a86.0,86.0 0 0,1 28.547481713284135,27.462654790039103" fill="none" id="id38" stroke="none" /><text fill="#e1ed5e" style="font-size:6.75px; font-family:Arial;" text-anchor="middle"><textPath startOffset="19.985693538727396" xlink:href="#id38">February</textPath></text><path d="M 110.99172775467656 82.1063720568725 l 8.565147335733288 -13.943354777730399 a37.36395096975288,37.36395096975288 0 0,0 0.5451237604206707,0.34135644876567406 l -8.803890248526221 13.79385398764178" fill="#ff780b" stroke="none" /><path d="M 112.19680574252982 82.90503203632743 l 8.68963775894882 -12.179342873943163 a35.96149047464253,35.96149047464253 0 0,0 0.500814586676563,0.3638630958659478 l -8.897997661979172 12.02796054326054" fill="#ff6209" stroke="none" /><path d="M 112.48926042617603 83.11751280151076 l 8.857291350791792 -11.97293536530218 a35.89304506588611,35.89304506588611 0 0,0 0.49353594362372905,0.37172104066424905 l -9.062073448173903 11.818697735132083" fill="#ff6108" stroke="none" /><path d="M 112.77801427241765 83.33499621200491 l 9.09724226563674 -11.864564680006499 a35.95084318310326,35.95084318310326 0 0,0 0.4878485677025214,0.3807735452175762 l -9.300123388498692 11.706212745565699" fill="#ff6209" stroke="none" /><path d="M 113.06298171725822 83.55741782278167 l 9.421658517774073 -11.859190939502016 a36.14622259723894,36.14622259723894 0 0,0 0.48383715841977415,0.391229333489807 l -9.624399074758339 11.69525550874808" fill="#ff6509" stroke="none" /><path d="M 113.34407831869373 83.78471172551755 l 9.81018379139389 -11.921015030334386 a36.438597908307145,36.438597908307145 0 0,0 0.4808896559078379,0.40273125717667063 l -10.013930984260845 11.750382615763897" fill="#ff6909" stroke="none" /><path d="M 113.6212207817346 84.01681056812373 l 8.467941660678779 -9.93631318583401 a34.05512756336138,34.05512756336138 0 0,0 0.44288888216330974,0.3840688743125061 l -8.637724341488852 9.789079318101832" fill="#ff4406" stroke="none" /><path d="M 113.89432698308785 84.25364557470407 l 8.686909194177542 -9.844820206000524 a34.12946595396639,34.12946595396639 0 0,0 0.4371643495635095,0.39249046943130467 l -8.855084531337042 9.693830727799922" fill="#ff4506" stroke="none" /><path d="M 114.16331599549186 84.49514656593476 l 7.740172200733163 -8.473314834251584 a32.476381397346046,32.476381397346046 0 0,0 0.4094995122328062,0.38058516775132 l -7.884879596760816 8.338825080425622" fill="#ff2a04" stroke="none" /><path d="M 114.42810811169701 84.74124197986012 l 6.6638295244530905 -7.047477147655909 a30.69915244120356,30.69915244120356 0 0,0 0.3808401722776316,0.36636794399180855 l -6.78415294034314 6.931726116901798" fill="#ff0d01" stroke="none" /><path d="M 114.68862486808459 84.99185889309783 l 7.520905021462048 -7.684504494288346 a31.75247049122158,31.75247049122158 0 0,0 0.38732600933783234,0.3856627083619352 l -7.652066830967203 7.553905935276291" fill="#ff1e03" stroke="none" /><path d="M 115.19652480421416 85.50635884689758 l 24.436467772345935 -23.306209775245314 a54.76862998815086,54.76862998815086 0 0,0 0.6447902411418739,0.6878172725507181 l -24.83402533545827 22.88212308581654" fill="#93ff23" stroke="none" /><path d="M 115.4437574822437 85.77008943001954 l 10.92120419992627 -10.062820480062861 a35.85035545670405,35.85035545670405 0 0,0 0.4142531779878498,0.45742870571522687 l -11.092801018530155 9.873338987078085" fill="#ff6008" stroke="none" /><path d="M 115.9244219780498 86.31012108654704 l 9.938140156734747 -8.543602747914923 a34.10571545887836,34.10571545887836 0 0,0 0.37888102076117497,0.4484756233554994 l -10.08373179098304 8.371268174930316" fill="#ff4406" stroke="none" /><path d="M 116.15771136456269 86.58626213691792 l 11.46082964072732 -9.5145012202239 a35.89551440949308,35.89551440949308 0 0,0 0.39057996048867444,0.4788048488647398 l -11.622908093292404 9.31581220175106" fill="#ff6108" stroke="none" /><path d="M 116.38621287248628 86.86637796730983 l 10.235788757503041 -8.204029924036178 a34.117830555496084,34.117830555496084 0 0,0 0.3633482658439651,0.4614153990277296 l -10.37549110394097 8.02662213105541" fill="#ff4506" stroke="none" /><path d="M 116.82858285166822 87.43820079747576 l 15.334981482584158 -11.446891271629205 a40.13616933599042,40.13616933599042 0 0,0 0.4085047608373948,0.5572000346953225 l -15.529748855935178 11.181228793262388" fill="#ffa20f" stroke="none" /><path d="M 117.2510076193507 88.02491185347247 l 10.68080023907815 -7.414263975800578 a34.00195385509217,34.00195385509217 0 0,0 0.32961742496940283,0.48367289848864553 l -10.806842129716287 7.229313054041526" fill="#ff4306" stroke="none" /><path d="M 117.45458315368197 88.32363383020206 l 10.629016029702955 -7.110355033673977 a33.788007290605336,33.788007290605336 0 0,0 0.3192216348098601,0.4861964503529327 l -10.74983429987074 6.926340519343371" fill="#ff3f05" stroke="none" /><path d="M 117.65298651832404 88.62581576622439 l 12.465829660378503 -8.031991812650569 a35.82935607503098,35.82935607503098 0 0,0 0.3295829922844431,0.521321144267191 l -12.602240248908902 7.816223020669171" fill="#ff6008" stroke="none" /><line stroke="#e1ed5e" stroke-width="0.3" x1="172.23445277983987" x2="176.4835382374775" y1="55.19839476539836" y2="52.563006222186495" /><path d="M 173.08426987136738 54.67131705675599 a86.0,86.0 0 0,1 12.851231095245387,41.99856678651699" fill="none" id="id39" stroke="none" /><text fill="#e1ed5e" style="font-size:6.75px; font-family:Arial;" text-anchor="middle"><textPath startOffset="22.20632615414155" xlink:href="#id39">March</textPath></text><path d="M 118.03404312379186 89.2402003453031 l 10.1432195030377 -6.051832578924885 a32.81141733451752,32.81141733451752 0 0,0 0.28520984768251306,0.48751608181989253 l -10.24588902519054 5.876337084751097" fill="#ff2f04" stroke="none" /><path d="M 118.3937258080291 89.86733742301442 l 10.302873169675651 -5.675605828386947 a32.76272489985387,32.76272489985387 0 0,0 0.2678616434684973,0.4963069442138421 l -10.399042912362614 5.497417900840645" fill="#ff2f04" stroke="none" /><path d="M 119.04729006885535 91.15688171328212 l 13.39378036832997 -6.218353565010812 a35.76689790086408,35.76689790086408 0 0,0 0.2544519845617915,0.5606512190932134 l -13.498834669855109 5.986880337075536" fill="#ff5f08" stroke="none" /><path d="M 119.196687751892 91.48605970444005 l 14.179073275309602 -6.288573574389545 a36.51103724923351,36.51103724923351 0 0,0 0.24985596409499,0.5767020136952936 l -14.285219949247272 6.043572416107649" fill="#ff6a09" stroke="none" /><path d="M 119.61058180528143 92.48833698450437 l 12.003485664897951 -4.597830917069622 a33.85393781101231,33.85393781101231 0 0,0 0.20376106668872804,0.5459783550970329 l -12.080851320088303 4.3905294249432565" fill="#ff4006" stroke="none" /><path d="M 119.7369772167798 92.82701384747503 l 11.883667931688738 -4.31886730064919 a33.64413612198414,33.64413612198414 0 0,0 0.19312842658669474,0.5460000689142034 l -11.956249439085243 4.113669605308372" fill="#ff3d05" stroke="none" /><path d="M 120.18372546131832 94.20196356495316 l 60.551176383954946 -17.394109305140535 a84.0,84.0 0 0,0 0.3872529177345476,1.3931547863241924 l -60.84161607225586 16.349243215397394" fill="#4dd2ff" stroke="none" /><path d="M 120.37134235888165 94.90015583598534 l 10.379855827640132 -2.598535051511943 a31.70017716753003,31.70017716753003 0 0,0 0.12795882141559187,0.53047192455635 l -10.423047449316542 2.419477895296187" fill="#ff1d03" stroke="none" /><path d="M 120.45610955862082 95.25157060432595 l 10.427724837011155 -2.4205636464826683 a31.704978918386193,31.704978918386193 0 0,0 0.1188266571837648,0.5326766045888011 l -10.467845881196958 2.2407088723439035" fill="#ff1d03" stroke="none" /><path d="M 120.53481517161879 95.60439243477599 l 10.05766472012346 -2.152906990532035 a31.285505730507268,31.285505730507268 0 0,0 0.10818930732403985,0.5275694851624622 l -10.093233323362497 1.9794618492061609" fill="#ff1602" stroke="none" /><path d="M 120.78858239683441 97.02765380044208 l 10.848363589784736 -1.551096254279908 a31.958690257791226,31.958690257791226 0 0,0 0.07317627106980736,0.5452482157620618 l -10.87345585991238 1.3641296964531817" fill="#ff2103" stroke="none" /><path d="M 120.87857604477298 97.74499172005257 l 10.80929317791728 -1.1674668600153455 a31.872157001966222,31.872157001966222 0 0,0 0.054217383753214984,0.5459616553732013 l -10.827787687352725 0.9812296739377092" fill="#ff2003" stroke="none" /><line stroke="#e1ed5e" stroke-width="0.3" x1="184.98032266829074" x2="189.97916517819016" y1="98.17113171792111" y2="98.06355123074" /><path d="M 185.9800911702706 98.14961562048488 a86.0,86.0 0 0,1 -9.607161424134198,41.387399972396054" fill="none" id="id40" stroke="none" /><text fill="#e1ed5e" style="font-size:6.75px; font-family:Arial;" text-anchor="middle"><textPath startOffset="21.466115282336823" xlink:href="#id40">April</textPath></text><path d="M 120.99824983174949 100.27111621757518 l 10.733081233052793 0.1385788058599375 a31.733975817037397,31.733975817037397 0 0,0 -0.011753565460019343,0.5461420021784537 l -10.729105604907767 -0.323310623828506" fill="#ff1e03" stroke="none" /><path d="M 120.9764740272857 100.99374915477107 l 10.93332996194913 0.517960615992334 a31.945592138234172,31.945592138234172 0 0,0 -0.030749380484398483,0.549050844814355 l -10.922794230577201 -0.7060831771421122" fill="#ff2103" stroke="none" /><path d="M 120.92983693683757 101.71520430193887 l 14.788730310409626 1.2119393918441597 a35.83830655039624,35.83830655039624 0 0,0 -0.05567805809298156,0.614402731478301 l -14.76567765603957 -1.4663235118710314" fill="#ff6008" stroke="none" /><path d="M 120.8583938346157 102.4346265915055 l 11.158792173749374 1.3024728735444517 a32.23454842720656,32.23454842720656 0 0,0 -0.06907171568255623,0.5505695342572463 l -11.13471894881997 -1.494360162089093" fill="#ff2603" stroke="none" /><path d="M 120.76222939487914 103.15116336523771 l 8.940793179073454 1.3569785491827917 a30.04318381179486,30.04318381179486 0 0,0 -0.0820010756901629,0.5106207765987837 l -8.916110349022004 -1.5106785554747804" fill="#ff0200" stroke="none" /><path d="M 120.64145759157962 103.86396538481128 l 9.082784075961476 1.7002463663974472 a30.240552162992593,30.240552162992593 0 0,0 -0.10018272575392,0.5108295602717804 l -9.052171417231891 -1.8563396537371726" fill="#ff0500" stroke="none" /><path d="M 120.5718875245553 104.21870165774334 l 9.262984232994521 1.8995712908083835 a30.455752111258445,30.455752111258445 0 0,0 -0.10973636951754487,0.5126517852674616 l -9.228913824752533 -2.058736895492014" fill="#ff0901" stroke="none" /><path d="M 120.41448212921028 104.9243191809786 l 8.803162352288709 2.123472001409077 a30.05565021086402,30.05565021086402 0 0,0 -0.12564504904852997,0.501889514179038 l -8.76530598894512 -2.2746893549855107" fill="#ff0200" stroke="none" /><path d="M 120.32669344350535 105.2749913415812 l 9.269784963567565 2.4056069698223417 a30.576839675176835,30.576839675176835 0 0,0 -0.13659391187225745,0.5083167602591361 l -9.22700297535353 -2.564814663257026" fill="#ff0b01" stroke="none" /><path d="M 120.23288151984713 105.62410040840565 l 8.68817864265822 2.4150385601054327 a30.017586116779732,30.017586116779732 0 0,0 -0.14266552939810553,0.4966374237939315 l -8.645320476374016 -2.564233459403946" fill="#ff0100" stroke="none" /><path d="M 120.02730092923936 106.31721596034902 l 8.763186456403023 2.7641738415724744 a30.188802636694234,30.188802636694234 0 0,0 -0.16058681843142386,0.49423540737374827 l -8.714307386955353 -2.914608148924018" fill="#ff0400" stroke="none" /><path d="M 119.9155931802556 106.66101706037122 l 8.535784338871805 2.8548989020946087 a30.000558983802627,30.000558983802627 0 0,0 -0.16801622920588666,0.4883338087258694 l -8.485377278722687 -3.0014054139097786" fill="#ff0100" stroke="none" /><path d="M 119.79798401119884 107.00284435728193 l 8.431659853875228 2.982404753778526 a29.943580156000838,29.943580156000838 0 0,0 -0.17606217561483006,0.48444749159641814 l -8.37907341725517 -3.1271000423810755" fill="#ff0000" stroke="none" /><line stroke="#e1ed5e" stroke-width="0.3" x1="174.80103733775053" x2="179.2010983576182" y1="140.37084112569926" y2="142.7455964860345" /><path d="M 175.68104954172406 140.8457921977663 a86.0,86.0 0 0,1 -30.038265399797805,32.042727171017184" fill="none" id="id41" stroke="none" /><text fill="#e1ed5e" style="font-size:6.75px; font-family:Arial;" text-anchor="middle"><textPath startOffset="22.206326154141568" xlink:href="#id41">May</textPath></text><path d="M 118.30583269289576 110.29060199501025 l 7.79312859562975 4.3808979366823255 a29.940085012999013,29.940085012999013 0 0,0 -0.25641259641028236,0.44707697492339904 l -7.716564003067088 -4.514394757464039" fill="#ff0000" stroke="none" /><path d="M 114.81725581225074 114.88116024355365 l 6.461003944197779 6.488869210744536 a30.15696432236621,30.15696432236621 0 0,0 -0.37100253185165644,0.3631040630989507 l -6.348351459970329 -6.599123376766059" fill="#ff0400" stroke="none" /><path d="M 114.29624159901734 115.38237550388516 l 6.6558502382087585 7.161517728462838 a30.77689513948836,30.77689513948836 0 0,0 -0.39116034184478704,0.35731569795302376 l -6.531590346897107 -7.275026193002446" fill="#ff0e01" stroke="none" /><path d="M 112.92097659922987 116.55440617244103 l 6.170398387826096 7.905538747275244 a31.028527267209135,31.028527267209135 0 0,0 -0.42386633667231355,0.32500263237250826 l -6.033403322660289 -8.010580721475124" fill="#ff1202" stroke="none" /><path d="M 112.63410532772338 116.77436683061366 l 5.5921327140808765 7.424703457682118 a30.2950615773329,30.2950615773329 0 0,0 -0.4192476293556198,0.31014937340203114 l -5.463500114306692 -7.519862779823919" fill="#ff0601" stroke="none" /><path d="M 112.34349029814194 116.9893568818739 l 5.601153008283035 7.709325734393492 a30.529250668398845,30.529250668398845 0 0,0 -0.4278059129981407,0.3052281599726925 l -5.467619767436009 -7.804598156210403" fill="#ff0a01" stroke="none" /><path d="M 111.45004920935366 117.60387380957326 l 5.787208727628389 8.897541861008468 a31.61404899298737,31.61404899298737 0 0,0 -0.45873219234015067,0.2927845893139638 l -5.633194733241308 -8.995840879146241" fill="#ff1c02" stroke="none" /><line stroke="#e1ed5e" stroke-width="0.3" x1="143.8653032363475" x2="146.44561519142675" y1="172.8068346515853" y2="177.08958963109032" /><path d="M 144.38136562736335 173.6633856474863 a86.0,86.0 0 0,1 -40.68145358897372,12.25698825130547" fill="none" id="id42" stroke="none" /><text fill="#e1ed5e" style="font-size:6.75px; font-family:Arial;" text-anchor="middle"><textPath startOffset="21.466115282336833" xlink:href="#id42">June</textPath></text><path d="M 108.2653958097858 119.30500536409082 l 5.861738828314703 13.690923233166659 a35.892997047869,35.892997047869 0 0,0 -0.570063758077985,0.23828669711013745 l -5.6252036107392565 -13.789794973296768" fill="#ff6108" stroke="none" /><path d="M 107.93186726928326 119.44442032107085 l 3.6954538341374463 9.059147762891696 a30.783891722118902,30.783891722118902 0 0,0 -0.49236478223185703,0.19592210810109928 l -3.538967975863723 -9.121416715398864" fill="#ff0e01" stroke="none" /><path d="M 106.2309692047433 120.05430185196036 l 2.9174558502511623 9.389797692494737 a30.832591181583023,30.832591181583023 0 0,0 -0.5081872100380417,0.15311263766121172 l -2.755393665772875 -9.438625699261674" fill="#ff0f01" stroke="none" /><path d="M 105.53697534728816 120.25689768951611 l 4.345440273471302 15.897693869762868 a37.48088351839798,37.48088351839798 0 0,0 -0.6238060476928153,0.16475284688061217 l -4.071143782966988 -15.970138065947063" fill="#ff7a0b" stroke="none" /><path d="M 103.06178313531738 120.77559828337769 l 1.4813562889880802 10.051679630595828 a31.160249989594725,31.160249989594725 0 0,0 -0.5313140291783207,0.07363528309965545 l -1.308113668622929 -10.075689479188085" fill="#ff1402" stroke="none" /><path d="M 102.70371172650421 120.8252237178851 l 1.2867418944531852 9.911074304437745 a30.99425327731027,30.99425327731027 0 0,0 -0.529666073534597,0.06413518517705129 l -1.115948397867208 -9.931755018340148" fill="#ff1202" stroke="none" /><path d="M 102.34483914955558 120.86867818915974 l 1.356235166326282 12.070267267692488 a33.14622269431566,33.14622269431566 0 0,0 -0.5675381536441679,0.05882765014872466 l -1.1482644160765112 -12.091824286296973" fill="#ff3505" stroke="none" /><path d="M 101.98527174616119 120.90594882070398 l 0.942502015796193 9.92503869747095 a30.969689222642586,30.969689222642586 0 0,0 -0.5311385500625364,0.045828869013858936 l -0.7715191479921149 -9.939791818763473" fill="#ff1101" stroke="none" /><path d="M 101.26447882468166 120.96189622390904 l 0.5591348271139538 9.269056936628973 a30.285905892768966,30.285905892768966 0 0,0 -0.5206463517236241,0.02691146934956368 l -0.39950040697685013 -9.277308212740738" fill="#ff0600" stroke="none" /><path d="M 100.90346689309514 120.98055641714683 l 0.3995908243657061 9.279407910186745 a30.28800753609479,30.28800753609479 0 0,0 -0.5210686052912289,0.01794665633541038 l -0.2398018673998249 -9.284911364948249" fill="#ff0600" stroke="none" /><line stroke="#e1ed5e" stroke-width="0.3" x1="102.19456741930631" x2="102.32365962044197" y1="184.97166512339345" y2="189.96999836594603" /><path d="M 102.22038585953345 185.97133177190398 a86.0,86.0 0 0,1 -42.740103519485714,-10.115201625700543" fill="none" id="id43" stroke="none" /><text fill="#e1ed5e" style="font-size:6.75px; font-family:Arial;" text-anchor="middle"><textPath startOffset="22.20632615414155" xlink:href="#id43">July</textPath></text><path d="M 99.45781275523022 120.99299961872073 l -0.4968906737149973 19.23915736578064 a40.24557290617498,40.24557290617498 0 0,0 -0.6923764964854957,-0.023846846482327325 l 0.827987521875136 -19.22775372087222" fill="#ffa40f" stroke="none" /><path d="M 97.2962882734958 120.8252237178851 l -1.9341669625393307 14.897838148856124 a36.022868679066974,36.022868679066974 0 0,0 -0.6142266351145377,-0.08512621478102535 l 2.1903221888406996 -14.862337368582493" fill="#ff6309" stroke="none" /><path d="M 96.93821686468263 120.77559828337769 l -2.1549938584010273 14.622618496017413 a35.780560551271954,35.780560551271954 0 0,0 -0.6085491908999147,-0.09504286817234876 l 2.406378912909459 -14.583357320497958" fill="#ff5f08" stroke="none" /><path d="M 96.22490169976321 120.6578951692458 l -5.790803294398756 31.688130450512812 a53.21290136332238,53.21290136332238 0 0,0 -0.8996334907895926,-0.17241689965557497 l 6.335404399760044 -31.583756352508768" fill="#a6ff21" stroke="none" /><path d="M 95.51606077576429 120.51570834832081 l -3.2043235522752065 14.660985389100285 a36.007071066903016,36.007071066903016 0 0,0 -0.6043698585934549,-0.1375526121565394 l 3.4562135602615243 -14.603656043366058" fill="#ff6309" stroke="none" /><path d="M 94.81253420990036 120.34920634021253 l -3.71371135175783 14.568014834746142 a36.033918591955945,36.033918591955945 0 0,0 -0.5997237586114936,-0.15839249545371603 l 3.963925553180813 -14.501930989988844" fill="#ff6309" stroke="none" /><path d="M 94.46302465271185 120.25689768951611 l -4.274139618186991 15.636842052895556 a37.21046263568559,37.21046263568559 0 0,0 -0.6163981033982312,-0.1742002610545769 l 4.542668889689836 -15.560952998502458" fill="#ff750a" stroke="none" /><path d="M 93.76903079525671 120.05430185196036 l -11.327772785075538 36.458304844356185 a59.177564463887734,59.177564463887734 0 0,0 -0.9701701092581636,-0.31061783202219295 l 11.953664239424642 -36.257914165674286" fill="#5dff2a" stroke="none" /><path d="M 93.08242187328487 119.8279376855182 l -5.310040549577935 15.220233323855876 a37.11992658391392,37.11992658391392 0 0,0 -0.6014849965412629,-0.2156711199485513 l 5.571245106748924 -15.126574662867366" fill="#ff740a" stroke="none" /><path d="M 92.40401165467489 119.57807347666478 l -5.909430399547352 15.231100589928921 a37.337312901074874,37.337312901074874 0 0,0 -0.5971817371762609,-0.2376309376488923 l 6.170733212765471 -15.127122807873963" fill="#ff770b" stroke="none" /><path d="M 91.7346041902142 119.30500536409082 l -5.803781281786894 13.555555154933295 a35.74574354602909,35.74574354602909 0 0,0 -0.5635560312893637,-0.24704640273213732 l 6.036257987734001 -13.453644198906705" fill="#ff5e08" stroke="none" /><path d="M 91.40352486487194 119.15986991738527 l -13.198359278492383 29.416573993855 a53.24176659521175,53.24176659521175 0 0,0 -0.8329344899241987,-0.3823593714672999 l 13.702761764184002 -29.185027552053626" fill="#a6ff21" stroke="none" /><path d="M 90.7491055286396 118.85261126421891 l -7.411671302988022 15.104415937938176 a37.82487005387492,37.82487005387492 0 0,0 -0.5820456643008121,-0.2918497791502112 l 7.670570874971595 -14.974598317878662" fill="#ff7f0b" stroke="none" /><path d="M 90.42595943632237 118.69057910512821 l -6.861389212087947 13.394902286724971 a36.04998568739076,36.04998568739076 0 0,0 -0.5498637323552802,-0.2876627166033673 l 7.090943846969723 -13.274810151176887" fill="#ff6309" stroke="none" /><path d="M 90.10565033884886 118.52300852407294 l -7.74031736575676 14.49048896137977 a37.42823128831904,37.42823128831904 0 0,0 -0.5656603239531841,-0.3084431101210111 l 7.988600501578585 -14.355105199498993" fill="#ff790b" stroke="none" /><line stroke="#e1ed5e" stroke-width="0.3" x1="58.666819895761336" x2="56.23545636021788" y1="174.27360380694188" y2="178.64263932499728" /><path d="M 58.180547188652646 175.14741091055294 a86.0,86.0 0 0,1 -31.652253787137756,-30.449443065178592" fill="none" id="id44" stroke="none" /><text fill="#e1ed5e" style="font-size:6.75px; font-family:Arial;" text-anchor="middle"><textPath startOffset="22.20632615414155" xlink:href="#id44">August</textPath></text><path d="M 89.7882731507175 118.34994917583269 l -7.838820108173524 14.085957517908568 a37.12021401485199,37.12021401485199 0 0,0 -0.5556564308436861,-0.3155162231750844 l 8.080125305938417 -13.948938128938849" fill="#ff740a" stroke="none" /><path d="M 89.4739219176387 118.17145234162733 l -7.884670871172919 13.611519869401846 a36.730273611792136,36.730273611792136 0 0,0 -0.5443638692337192,-0.32161976913226453 l 8.117802611435021 -13.473781527975833" fill="#ff6e0a" stroke="none" /><path d="M 89.1626897886671 117.98757091392108 l -16.9693340954044 28.16539292968745 a53.8823304910881,53.8823304910881 0 0,0 -0.7903275498750816,-0.4854837315751813 l 17.451640845211788 -27.86912073128389" fill="#9eff22" stroke="none" /><path d="M 88.54995079064634 117.60387380957326 l -8.812387543000428 13.548601882104201 a37.162388040379014,37.162388040379014 0 0,0 -0.5332365605623641,-0.35340011583981 l 9.044298802302754 -13.394903745173071" fill="#ff750a" stroke="none" /><path d="M 87.65650970185807 116.9893568818739 l -9.31651121011432 12.82307759146837 a36.85019558380918,36.85019558380918 0 0,0 -0.5099628895081141,-0.3772583541672742 l 9.535859070041 -12.66080928856133" fill="#ff700a" stroke="none" /><path d="M 87.07902340077011 116.55440617244103 l -27.041836707498422 34.64610782836925 a64.95012764679983,64.95012764679983 0 0,0 -0.8754117608322791,-0.6954800470858586 l 27.63420596104806 -34.17549386727826" fill="#32ff48" stroke="none" /><path d="M 86.51685102203217 116.09983520530335 l -9.235240005801641 11.027530914164895 a35.383883204045475,35.383883204045475 0 0,0 -0.4635870401046735,-0.39507893288325846 l 9.423692522483371 -10.866927591058685" fill="#ff5908" stroke="none" /><path d="M 86.24171649860922 115.8653595955263 l -10.126646083203164 11.677538232905668 a36.45683861840537,36.45683861840537 0 0,0 -0.47056689982710515,-0.41522057722213745 l 10.326155335936857 -11.501494513911243" fill="#ff6a09" stroke="none" /><path d="M 85.70375840098266 115.38237550388516 l -10.987847461232036 11.822631455787658 a37.140241831232984,37.140241831232984 0 0,0 -0.46454336338686136,-0.4392547454170551 l 11.189726659009715 -11.631742073624672" fill="#ff740a" stroke="none" /><path d="M 85.44109423537348 115.13401014063109 l -11.19624925034214 11.63852231967915 a37.149650121951765,37.149650121951765 0 0,0 -0.45702923229661047,-0.4472992957046691 l 11.394928435014544 -11.44407292105191" fill="#ff740a" stroke="none" /><path d="M 85.18274418774928 114.88116024355367 l -28.43733372185018 28.55997934950845 a61.303279887029376,61.303279887029376 0 0,0 -0.7413591734359848,-0.7509929286239159 l 28.924733520341697 -28.066245926903868" fill="#44ff2d" stroke="none" /><path d="M 84.67929136418377 114.36230785411682 l -10.621749100516253 9.957295981347105 a35.55916540240096,35.55916540240096 0 0,0 -0.4147783473329578,-0.45015997631141674 l 10.79157385584494 -9.772984750234345" fill="#ff5c08" stroke="none" /><path d="M 84.43433777217949 114.09645910891817 l -11.153767869764119 10.100992195852774 a36.04780984174312,36.04780984174312 0 0,0 -0.41256057547726155,-0.46351618007333967 l 11.32598729488972 -9.907501846038569" fill="#ff6309" stroke="none" /><path d="M 83.95833913139862 113.55231037782056 l -12.748934464517632 10.77055039779683 a37.68952024031988,37.68952024031988 0 0,0 -0.41441242788492305,-0.49918646569657266 l 12.932442892296091 -10.549502674986497" fill="#ff7d0b" stroke="none" /><path d="M 83.72743513129214 113.27417163493432 l -12.450279768639975 10.15618323757223 a37.067281172387226,37.067281172387226 0 0,0 -0.39905944390013554,-0.4978880144599549 l 12.623257124594971 -9.940367389534016" fill="#ff730a" stroke="none" /><path d="M 83.50135304334701 112.99209946851258 l -35.89610118159877 28.266906874752166 a66.68969363330737,66.68969363330737 0 0,0 -0.7024431235001511,-0.9080024274098993 l 36.377351122316995 -27.644826453229015" fill="#34ff5f" stroke="none" /><path d="M 83.06392112726016 112.41649034213515 l -12.173204823295693 8.924644320390549 a36.09424366821302,36.09424366821302 0 0,0 -0.36303969722120805,-0.5042303870910352 l 12.32502431289251 -8.713780327848374" fill="#ff6409" stroke="none" /><path d="M 82.85270091963577 112.12312394758628 l -13.238320841573108 9.359480094686525 a37.21274209833926,37.21274209833926 0 0,0 -0.36528575705529176,-0.526221377337288 l 13.397467505790534 -9.130217455162223" fill="#ff750a" stroke="none" /><path d="M 82.6465618267979 111.8261652097733 l -13.310365660550689 9.070858566070537 a37.10733712142458,37.10733712142458 0 0,0 -0.35516473942302224,-0.5309230960527677 l 13.464533505384441 -8.84039855581195" fill="#ff740a" stroke="none" /><path d="M 82.44556493220864 111.52570212397912 l -17.618522794326037 11.567780154003389 a42.07666679400566,42.07666679400566 0 0,0 -0.3923050820748031,-0.6088661993333697 l 17.815032739777887 -11.262792354748571" fill="#ffbf11" stroke="none" /><path d="M 82.24976979558568 111.22182372390057 l -13.117568474613082 8.293021522148775 a36.519175514600825,36.519175514600825 0 0,0 -0.33134258408112527,-0.5342297473143424 l 13.258375698362164 -8.06599544346917" fill="#ff6b09" stroke="none" /><path d="M 82.05923443525364 110.91462005526583 l -13.444920644107176 8.179483755809523 a36.73752984549644,36.73752984549644 0 0,0 -0.3240234812853772,-0.543081992430115 l 13.583725001090786 -7.946839669493297" fill="#ff6e0a" stroke="none" /><line stroke="#e1ed5e" stroke-width="0.3" x1="26.63291911575756" x2="22.317208475507996" y1="142.92168965132927" y2="145.44649492493687" /><path d="M 25.769776987707644 143.4266507060508 a86.0,86.0 0 0,1 -11.730757126820373,-40.83630448921669" fill="none" id="id45" stroke="none" /><text fill="#e1ed5e" style="font-size:6.75px; font-family:Arial;" text-anchor="middle"><textPath startOffset="21.46611528233685" xlink:href="#id45">September</textPath></text><path d="M 81.69416730710424 110.29060199501025 l -14.164575733181394 7.962599338893687 a37.24925210379793,37.24925210379793 0 0,0 -0.3093880141519088,-0.561629113509255 l 14.299540156784818 -7.71759970698661" fill="#ff760a" stroke="none" /><path d="M 81.51974371655577 109.97397251340807 l -13.636757051765338 7.359889274272658 a36.49609992928625,36.49609992928625 0 0,0 -0.29361545441080117,-0.555409787872199 l 13.761425014401025 -7.124064471314333" fill="#ff6a09" stroke="none" /><path d="M 81.18737489456691 109.33194174019688 l -13.613183737522004 6.752775693194597 a36.19601102375664,36.19601102375664 0 0,0 -0.27206773636370085,-0.5605401207108551 l 13.727404730500425 -6.517446616518456" fill="#ff6609" stroke="none" /><path d="M 81.02952815118164 109.00673069616217 l -15.745989275477093 7.47582274595418 a38.430550880347,38.430550880347 0 0,0 -0.27857644441987417,-0.600028877956466 l 15.872340336736794 -7.203673800718887" fill="#ff880c" stroke="none" /><path d="M 80.87730276802145 108.67885076344099 l -36.28214469376031 16.46667911721877 a60.84401516825843,60.84401516825843 0 0,0 -0.4246301363644528,-0.957428858419745 l 36.56021591485604 -15.839701922306329" fill="#4aff2c" stroke="none" /><path d="M 80.58989483394504 108.01547362559985 l -13.464280262797192 5.560123575367028 a35.56714855997914,35.56714855997914 0 0,0 -0.22881089470344265,-0.567889876009041 l 13.557993771758024 -5.3275343315151815" fill="#ff5c08" stroke="none" /><path d="M 80.45479744820244 107.68017299344265 l -15.032967007429459 5.9071164351354195 a37.151907677568914,37.151907677568914 0 0,0 -0.228759723177309,-0.5972194513875015 l 15.132421010200277 -5.64747341691476" fill="#ff740a" stroke="none" /><path d="M 80.32549172779594 107.34259656027581 l -13.88891907370768 5.183394065336435 a35.82462974487275,35.82462974487275 0 0,0 -0.21064155390297057,-0.5795950893933667 l 13.976084888615874 -4.943551178936952" fill="#ff6008" stroke="none" /><path d="M 80.20201598880116 107.00284435728193 l -14.478047267985234 5.121102813181436 a36.35706829825242,36.35706829825242 0 0,0 -0.20361545675703613,-0.5918018276185449 l 14.564053555685499 -4.871128282473594" fill="#ff6809" stroke="none" /><path d="M 79.97269907076064 106.31721596034903 l -42.30211428549508 13.34336526249959 a65.35667108284353,65.35667108284353 0 0,0 -0.32918981136607717,-1.0758113503393598 l 42.52553086936729 -12.613226939608182" fill="#32ff4d" stroke="none" /><path d="M 79.76711848015287 105.62410040840567 l -14.881654425036979 4.136628717343221 a36.44588409808164,36.44588409808164 0 0,0 -0.16281230936503596,-0.6058851708130356 l 14.95065481074379 -3.8798526133546463" fill="#ff6909" stroke="none" /><path d="M 79.50377843672027 104.57218783832718 l -15.46181708388381 3.449139726125242 a36.84185444907939,36.84185444907939 0 0,0 -0.13274639676494435,-0.6201469721347946 l 15.518897519373194 -3.1824789345742834" fill="#ff700a" stroke="none" /><path d="M 79.4281124754447 104.21870165774334 l -14.769454809545039 3.028789818854502 a36.07681541765335,36.07681541765335 0 0,0 -0.11951745079193588,-0.6094169066912235 l 14.81940219331264 -2.774109185095324" fill="#ff6409" stroke="none" /><path d="M 79.29508885075956 103.50808413554451 l -16.594532669176086 2.811652577202551 a37.831039918057414,37.831039918057414 0 0,0 -0.10325756375195379,-0.6429849480504684 l 16.64047198728933 -2.525588399458869" fill="#ff7f0b" stroke="none" /><path d="M 79.23777060512086 103.15116336523772 l -15.03556879694335 2.2820060730147373 a36.207757256245664,36.207757256245664 0 0,0 -0.08821925050363964,-0.6170052325515246 l 15.072622098463588 -2.022855368482812" fill="#ff6609" stroke="none" /><path d="M 79.18660465613746 102.79330883721812 l -15.531135550576833 2.0843912042564305 a36.670381558302054,36.670381558302054 0 0,0 -0.07857675359360981,-0.6263340384985417 l 15.56471381341729 -1.81673941147048" fill="#ff6d0a" stroke="none" /><path d="M 79.10278846688536 102.07522291339032 l -16.498966085759406 1.6384498196881885 a37.58012061809791,37.58012061809791 0 0,0 -0.05838412414864997,-0.6442639449097622 l 16.524724806185134 -1.3542044862298601" fill="#ff7b0b" stroke="none" /><path d="M 79.07016306316243 101.71520430193888 l -14.572882491401977 1.194250620123522 a35.62173514504608,35.62173514504608 0 0,0 -0.04482137280379567,-0.6115520211612654 l 14.591280422870108 -0.9432254624654959" fill="#ff5d08" stroke="none" /><path d="M 79.04373962182676 101.35467743843564 l -31.7405382138414 2.051806487710925 a52.80678663378838,52.80678663378838 0 0,0 -0.05082942170344681,-0.9075934697892378 l 31.77115398643238 -1.5051413015862498" fill="#abff21" stroke="none" /><path d="M 79.0095281055655 100.63252640178507 l -14.485908722881456 0.4365180433842789 a35.49248424287062,35.49248424287062 0 0,0 -0.0131456341711623,-0.6108259651562771 l 14.491276419737627 -0.1871022624378729" fill="#ff5a08" stroke="none" /><line stroke="#e1ed5e" stroke-width="0.3" x1="15.007084014347285" x2="10.007500721073583" y1="101.09737516637583" y2="101.16192664675087" /><path d="M 14.007167355692545 101.11028546245083 a86.0,86.0 0 0,1 10.666146001902534,-42.60595125391555" fill="none" id="id46" stroke="none" /><text fill="#e1ed5e" style="font-size:6.75px; font-family:Arial;" text-anchor="middle"><textPath startOffset="22.20632615414155" xlink:href="#id46">October</textPath></text><path d="M 79.00175016825051 100.2711162175752 l -14.572770496507237 0.1881544627891209 a35.573985112032304,35.573985112032304 0 0,0 -0.002635359288665148,-0.6123646876439639 l 14.573850153085406 0.06271970305851832" fill="#ff5c08" stroke="none" /><path d="M 79.00486145842228 99.54816195383935 l -14.504605701120719 -0.3121547727511445 a35.50796426612414,35.50796426612414 0 0,0 0.01841055067559983,-0.610956547310343 l 14.497083455989474 0.561781467486482" fill="#ff5b08" stroke="none" /><path d="M 79.01574976396665 99.18683210126434 l -16.05116306884633 -0.6220041411126618 a37.063210296022945,37.063210296022945 0 0,0 0.03019132359276139,-0.6372911233709343 l 16.038078137020065 0.8982063711066052" fill="#ff730a" stroke="none" /><path d="M 79.05617556472873 98.46500227214037 l -18.83443282989961 -1.3803979158043553 a39.88495058055375,39.88495058055375 0 0,0 0.05607732160593805,-0.6842853622394789 l 18.807881024474177 1.7043971952516126" fill="#ff9e0e" stroke="none" /><path d="M 79.21141760316559 97.0276538004421 l -23.160541800395823 -3.3114883490367903 a44.39608197057124,44.39608197057124 0 0,0 0.11467741910900665,-0.7555809096474095 l 23.100108487847514 3.7096683710762917" fill="#ffe015" stroke="none" /><path d="M 79.26566170972629 96.67025291283419 l -14.531692008895499 -2.3336582272754907 a35.71788141558179,35.71788141558179 0 0,0 0.10271125567278123,-0.6062076451315869 l 14.489368891702496 2.5834516607229054" fill="#ff5e08" stroke="none" /><path d="M 79.32604984820605 96.31383870115002 l -29.428070402064563 -5.247019240128632 a50.892181895859466,50.892181895859466 0 0,0 0.16119317321193993,-0.8611003768267256 l 29.33339150494276 5.75279769441793" fill="#c4ff1e" stroke="none" /><path d="M 79.46518482838121 95.60439243477599 l -11.213450529616459 -2.400310281261794 a32.46747409966496,32.46747409966496 0 0,0 0.12168440245283803,-0.5454873162825277 l 11.170471740161583 2.592975767094281" fill="#ff2a04" stroke="none" /><path d="M 79.54389044137918 95.25157060432595 l -11.64497355877748 -2.703120776699344 a32.954592051511014,32.954592051511014 0 0,0 0.1330223088930381,-0.5514633491209917 l 11.596718449623628 2.903169357479733" fill="#ff3204" stroke="none" /><path d="M 79.71946130924805 94.55025226153421 l -11.477175895948848 -3.0841248517448614 a32.884333916871384,32.884333916871384 0 0,0 0.1516018363936416,-0.5453924665639711 l 11.422387288988846 3.281228621727775" fill="#ff3104" stroke="none" /><path d="M 79.91906864156998 93.8553929516997 l -11.845682928444482 -3.6246858034049496 a33.38783884358553,33.38783884358553 0 0,0 0.17289258967004192,-0.5481167564146574 l 11.781534855006235 3.8280527262460216" fill="#ff3905" stroke="none" /><path d="M 80.65960295795068 91.81776055985345 l -13.651097254674077 -5.7752974830673365 a35.822500371883756,35.822500371883756 0 0,0 0.24514410000493903,-0.565826381733367 l 13.549662444826458 6.0094230093873025" fill="#ff6008" stroke="none" /><path d="M 80.803312248108 91.48605970444005 l -13.704230528840654 -6.077975639711054 a35.991588383641314,35.991588383641314 0 0,0 0.2560504720630838,-0.5641732744147668 l 13.597577739814218 6.312970922967892" fill="#ff6209" stroke="none" /><path d="M 80.95270993114464 91.15688171328213 l -16.0603365649289 -7.456360219997496 a38.70682688426002,38.70682688426002 0 0,0 0.2857703024185868,-0.6019051374068598 l 15.929608068668562 7.731707773044888" fill="#ff8c0c" stroke="none" /><path d="M 81.10775173730289 90.83032412892265 l -14.288361755624596 -6.93510079933019 a36.88247161988542,36.88247161988542 0 0,0 0.282133322060215,-0.5687635612647175 l 14.16686842061097 7.180023949093869" fill="#ff700a" stroke="none" /><path d="M 81.26839172434947 90.50648371742162 l -13.436120650881245 -6.809667824392877 a36.063230530786186,36.063230530786186 0 0,0 0.28539851066613514,-0.5512990820855355 l 13.316912707054996 7.039939628738748" fill="#ff6309" stroke="none" /><path d="M 81.6062741919709 89.86733742301443 l -14.068392625961781 -7.7499402223989655 a37.06179456128652,37.06179456128652 0 0,0 0.312629224120079,-0.5561325056033666 l 13.932905760549273 7.990956237937117" fill="#ff730a" stroke="none" /><line stroke="#e1ed5e" stroke-width="0.3" x1="26.266209847984243" x2="21.928928074336255" y1="57.711370442889674" y2="55.22380399835377" /><path d="M 25.398753493254645 57.213857153982495 a86.0,86.0 0 0,1 29.58750427330803,-30.492523968695096" fill="none" id="id47" stroke="none" /><text fill="#e1ed5e" style="font-size:6.75px; font-family:Arial;" text-anchor="middle"><textPath startOffset="21.46611528233685" xlink:href="#id47">November</textPath></text><path d="M 81.78341655067845 89.55222093294921 l -14.018670792090598 -8.040145159872738 a37.160664125240615,37.160664125240615 0 0,0 0.3230152250628733,-0.5521377265560584 l 13.878195892557398 8.280262298782688" fill="#ff750a" stroke="none" /><path d="M 81.96595687620814 89.24020034530311 l -14.082268995260657 -8.402020114538523 a37.39829997469218,37.39829997469218 0 0,0 0.3345976064856016,-0.5499904885454284 l 13.935555590488839 8.643178376291026" fill="#ff780b" stroke="none" /><path d="M 82.15384107792192 88.93136811851018 l -12.5411989305541 -7.778363675956386 a35.75752730274178,35.75752730274178 0 0,0 0.3289222619700594,-0.5202760275845673 l 12.405449072338076 7.993087351255169" fill="#ff5f08" stroke="none" /><path d="M 82.34701348167596 88.62581576622439 l -12.390828144055526 -7.983666784838153 a35.74013424046221,35.74013424046221 0 0,0 0.3376648993365383,-0.5142868075467116 l 12.251566609361067 8.195771656362533" fill="#ff5e08" stroke="none" /><path d="M 82.54541684631803 88.32363383020206 l -12.258973676028749 -8.200726665708471 a35.74904584829906,35.74904584829906 0 0,0 0.34655386240000857,-0.5085250305714492 l 12.11599534796 8.410529719550336" fill="#ff5f08" stroke="none" /><path d="M 82.7489923806493 88.02491185347247 l -12.224665374548582 -8.485964915916723 a35.881332066513956,35.881332066513956 0 0,0 0.3565705327098997,-0.5043437313728679 l 12.076782222034804 8.695135147621377" fill="#ff6108" stroke="none" /><path d="M 82.95767976084542 87.72973835380427 l -11.994666627090888 -8.636012925937033 a35.780147047712326,35.780147047712326 0 0,0 0.36416929304076506,-0.4967265064459248 l 11.84423472153649 8.841201876054457" fill="#ff5f08" stroke="none" /><path d="M 83.17141714833178 87.43820079747576 l -15.435774569036846 -11.52212889111156 a40.261946701450306,40.261946701450306 0 0,0 0.41934554462008383,-0.5518095815878135 l 15.235153084192655 11.7861232485804" fill="#ffa40f" stroke="none" /><path d="M 83.84228863543731 86.58626213691792 l -12.563758149019145 -10.430125565661465 a37.32897847823035,37.32897847823035 0 0,0 0.41468830896850956,-0.4908601583928883 l 12.382359226563512 10.644844673683469" fill="#ff770b" stroke="none" /><path d="M 84.07557802195018 86.31012108654704 l -12.344757082912906 -10.612518929353623 a37.27939143401919,37.27939143401919 0 0,0 0.42251421343633383,-0.4830067849246608 l 12.16025100589873 10.823441270481226" fill="#ff760a" stroke="none" /><path d="M 84.31358615837235 86.03803664274999 l -8.834696113369278 -7.86347374566665 a32.82734436652501,32.82734436652501 0 0,0 0.3793220891535402,-0.41885692496918187 l 8.698030383599692 8.014383457905387" fill="#ff3004" stroke="none" /><path d="M 84.5562425177563 85.77008943001954 l -10.77015961465487 -9.923647682059324 a35.64496915130872,35.64496915130872 0 0,0 0.41964767531231145,-0.4476508809351697 l 10.597744617372102 10.107567979872544" fill="#ff5d08" stroke="none" /><path d="M 84.80347519578584 85.50635884689758 l -10.691540529310814 -10.197025556968768 a35.77458524288821,35.77458524288821 0 0,0 0.4288448360397152,-0.4419623000642561 l 10.514431429567981 10.379552052583147" fill="#ff5f08" stroke="none" /><path d="M 85.05521093208273 85.24692304244772 l -9.641552756313015 -9.517870687753332 a34.54804052184526,34.54804052184526 0 0,0 0.4214271979078919,-0.419617455590953 l 9.47628975823781 9.682423993994394" fill="#ff4b07" stroke="none" /><path d="M 85.31137513191541 84.99185889309783 l -12.279559284501492 -12.546672008269566 a38.55581256178938,38.55581256178938 0 0,0 0.4783064394516471,-0.4601304157907843 l 12.061769601437417 12.756185510822663" fill="#ff8a0c" stroke="none" /><path d="M 85.57189188830299 84.74124197986013 l -7.430946320894379 -7.85875811945517 a31.8156850177932,31.8156850177932 0 0,0 0.4011686935417977,-0.3728425797034502 l 7.294569743557726 7.985505285233268" fill="#ff1f03" stroke="none" /><path d="M 86.10567301691215 84.25364557470407 l -9.78738892958388 -11.091987051336494 a35.79274007092525,35.79274007092525 0 0,0 0.46548663222827663,-0.40366542048691634 l 9.595008498708829 11.25881746524309" fill="#ff5f08" stroke="none" /><path d="M 86.37877921826538 84.01681056812374 l -7.689654846933229 -9.023068640741 a32.85523341653328,32.85523341653328 0 0,0 0.433599062516256,-0.3631267452158816 l 7.533198247457864 9.154096543350695" fill="#ff3004" stroke="none" /><path d="M 86.65592168130627 83.78471172551755 l -7.612497498835265 -9.25045840441935 a32.98002916781365,32.98002916781365 0 0,0 0.44145591020552677,-0.35695997818547853 l 7.452138190065238 9.380124479868963" fill="#ff3204" stroke="none" /><path d="M 86.93701828274178 83.55741782278169 l -9.510382393291087 -11.97086908817019 a36.28885476393604,36.28885476393604 0 0,0 0.4924353437271217,-0.3843535966590103 l 9.30291449440454 12.132801074052422" fill="#ff6709" stroke="none" /><path d="M 87.22198572758235 83.33499621200491 l -9.525674669207657 -12.423323457089799 a36.65494949283012,36.65494949283012 0 0,0 0.5040122690403167,-0.3796115917710166 l 9.31041624640895 12.58545163836667" fill="#ff6d0a" stroke="none" /><path d="M 87.51073957382395 83.11751280151077 l -8.906206932660014 -12.039057509970236 a35.975293908826366,35.975293908826366 0 0,0 0.5010068190088351,-0.3640027608306045 l 8.697654797297398 12.190579505617508" fill="#ff6209" stroke="none" /><path d="M 87.80319425747018 82.90503203632743 l -7.042260532481884 -9.870389078578794 a33.125098513821634,33.125098513821634 0 0,0 0.46701476991267427,-0.3271736912716289 l 6.871314622985549 9.990147612614367" fill="#ff3505" stroke="none" /><path d="M 88.39885842347998 82.49532879139004 l -8.274778049913037 -12.485604811608548 a35.97872755900798,35.97872755900798 0 0,0 0.5191781343191916,-0.3376879004405457 l 8.058632889809559 12.62619163620863" fill="#ff6209" stroke="none" /><path d="M 88.70189139769569 82.29822771554957 l -6.341524640925885 -9.9358422795658 a32.78710721830753,32.78710721830753 0 0,0 0.4783496048003446,-0.29954247864210004 l 6.169555883753299 10.043529099530831" fill="#ff2f04" stroke="none" /><path d="M 89.00827224532344 82.1063720568725 l -6.367508109028035 -10.365779026806667 a33.16530042173734,33.16530042173734 0 0,0 0.48901119504084184,-0.2946237734285041 l 6.188134847769545 10.473849409693791" fill="#ff3505" stroke="none" /><line stroke="#e1ed5e" stroke-width="0.3" x1="56.762969772571076" x2="54.21961505331055" y1="26.818313649435495" y2="22.513508569990535" /><path d="M 56.25429882871897 25.957352633546506 a86.0,86.0 0 0,1 42.265352541879196,-11.944610805530505" fill="none" id="id48" stroke="none" /><text fill="#e1ed5e" style="font-size:6.75px; font-family:Arial;" text-anchor="middle"><textPath startOffset="22.20632615414155" xlink:href="#id48">December</textPath></text><path d="M 89.3179101791058 81.91981866633112 l -8.959573805983426 -15.1647029561309 a38.61369292716748,38.61369292716748 0 0,0 0.575166158057083,-0.33317336315333745 l 8.697210915461023 15.316680476674286" fill="#ff8b0c" stroke="none" /><path d="M 90.58718382345135 81.22770947309562 l -5.326019286318601 -10.621856362579962 a32.88235305086994,32.88235305086994 0 0,0 0.5081556368245084,-0.2493497640940847 l 5.142392382483667 10.711961286808876" fill="#ff3104" stroke="none" /><path d="M 90.91171255644093 81.06846463323043 l -5.31178292719051 -11.064813582450851 a33.273758082998924,33.273758082998924 0 0,0 0.5184713636525247,-0.24342925717684416 l 5.120533352238377 11.154607822267703" fill="#ff3705" stroke="none" /><path d="M 91.56875222667455 80.76684994638697 l -6.677118189462595 -15.231673830051712 a37.63092886705774,37.63092886705774 0 0,0 0.5954937558076591,-0.2549593486858948 l 6.413940675864628 15.344352706700393" fill="#ff7c0b" stroke="none" /><path d="M 91.90106846888425 80.62456947434976 l -5.959364337985472 -14.2568497170352 a36.452242140446145,36.452242140446145 0 0,0 0.581007306384643,-0.23700746849896134 l 5.713073162012448 14.357318071717739" fill="#ff6a09" stroke="none" /><path d="M 92.23578459929587 80.48803036053334 l -5.7282849697344265 -14.395546316957525 a36.493385764840255,36.493385764840255 0 0,0 0.5856612080434442,-0.22722744992807387 l 5.479640596691306 14.492016470776148" fill="#ff6a09" stroke="none" /><path d="M 92.57280143429618 80.3572730644239 l -4.306330130701142 -11.388959929306887 a33.17591423532305,33.17591423532305 0 0,0 0.5358979270130947,-0.19737572914757015 l 4.109649877915478 11.46139892626078" fill="#ff3505" stroke="none" /><path d="M 92.91201910852362 80.23233633223022 l -4.115999946776548 -11.479108627716629 a33.19472797764603,33.19472797764603 0 0,0 0.5395218109045018,-0.188228566036127 l 3.917796131808761 11.548258046924966" fill="#ff3605" stroke="none" /><path d="M 93.25333710446033 80.11325718540243 l -4.775343030495651 -14.075998781817248 a35.863971298567016,35.863971298567016 0 0,0 0.5863198766382506,-0.19330044497897753 l 4.532340331614991 14.15611295105546" fill="#ff6008" stroke="none" /><path d="M 93.59665428221793 80.00007090966166 l -3.6688307546744072 -11.459065021926689 a33.03206093249151,33.03206093249151 0 0,0 0.5430071715907884,-0.16871497143672606 l 3.47103821037289 11.52052012824594" fill="#ff3304" stroke="none" /><path d="M 93.94186890950719 79.89281104454417 l -4.770662723447585 -15.834027918881985 a37.53709959324266,37.53709959324266 0 0,0 0.6202733693878755,-0.18107480554003388 l 4.497399136336289 15.913801053340716" fill="#ff7a0b" stroke="none" /><path d="M 94.28887869178378 79.79150937346287 l -2.65896396979646 -9.408598690178144 a30.777106867857057,30.777106867857057 0 0,0 0.5110496251623249,-0.1396891675682962 l 2.4966164554104124 9.452974398572737" fill="#ff0e01" stroke="none" /><path d="M 94.63758080256005 79.69619591428918 l -3.186964534793771 -12.066849151489873 a33.4806086146007,33.4806086146007 0 0,0 0.5584742666243362,-0.14236752551079956 l 2.9787813794844356 12.119919673169536" fill="#ff3a05" stroke="none" /><path d="M 94.98787191387505 79.60689891045804 l -3.5411178726380657 -14.407926833833827 a35.836706893277416,35.836706893277416 0 0,0 0.6003097439200701,-0.14207392115594156 l 3.2925844417554617 14.46674666713064" fill="#ff6008" stroke="none" /><path d="M 95.33964822691252 79.52364482259891 l -2.8039966962428786 -12.320021119455228 a33.63508281952927,33.63508281952927 0 0,0 0.5656416295912223,-0.12362735162358222 l 2.5915123424981354 12.366461969174678" fill="#ff3d05" stroke="none" /><path d="M 95.692805502759 79.44645832069477 l -2.5253214424021433 -12.050604994342185 a33.31236488726357,33.31236488726357 0 0,0 0.5622390998158914,-0.1127798741522322 l 2.3175159331191155 12.092288824571629" fill="#ff3805" stroke="none" /><path d="M 96.04723909329186 79.375362276772 l -2.5407520009629807 -13.25708556657139 a34.49836058378175,34.49836058378175 0 0,0 0.5841802541687824,-0.10675520746313298 l 2.312176625691305 13.29885625538526" fill="#ff4b06" stroke="none" /><path d="M 96.40284397218896 79.31037775812273 l -2.8721962147026163 -16.51989911677767 a37.767724291753595,37.767724291753595 0 0,0 0.6414592478794022,-0.10584627213502515 l 2.5874077606843287 16.56689165185232" fill="#ff7e0b" stroke="none" /><path d="M 96.75951476605007 79.25152402106235 l -1.832931702665544 -11.736063168981891 a32.87833394601152,32.87833394601152 0 0,0 0.5599196233771175,-0.08251759764535535 l 1.6306430988597778 11.765875250788215" fill="#ff3104" stroke="none" /><path d="M 97.11714578562143 79.19881850522333 l -2.03448374530877 -14.679779998331693 a35.820089908949434,35.820089908949434 0 0,0 0.6114749836134611,-0.07938700232256632 l 1.7814940331874514 14.712625323818395" fill="#ff6008" stroke="none" /><path d="M 98.19473922651362 79.07773832637324 l -1.3948005594503425 -16.165189382021005 a37.225252428151855,37.225252428151855 0 0,0 0.6388736275509295,-0.04958888936408854 l 1.1163367425370787 16.186803533573556" fill="#ff760a" stroke="none" /><path d="M 98.91598698831166 79.02799685794201 l -1.1241571033253632 -21.74865619591342 a42.7776898573058,42.7776898573058 0 0,0 0.7356930886272484,-0.03168049196781426 l 0.7496231823087908 21.764784414405423" fill="#ffc912" stroke="none" /><path d="M 99.27714615592234 79.0124445844662 l -0.6499966249382769 -18.872197052792288 a39.88338733415838,39.88338733415838 0 0,0 0.6863235181319408,-0.017725711621737184 l 0.3250464716114571 18.880589556556384" fill="#ff9e0e" stroke="none" /><path d="M 99.63851952072746 79.00311137660856 l -0.2608933073672267 -15.154200659471154 a36.15644625053462,36.15644625053462 0 0,0 0.6223737866397587,-0.005356967672025211 l 3.712258677433225e-15 15.156446250534621" fill="#ff6509" stroke="none" /></svg>