<?xml version="1.0" encoding="utf-8" ?>
<svg baseProfile="full" height="200mm" version="1.1" viewBox="0,0,200,200" width="200mm" xmlns="http://www.w3.org/2000/svg" xmlns:ev="http://www.w3.org/2001/xml-events" xmlns:xlink="http://www.w3.org/1999/xlink"><defs /><rect fill="#1a1a1a" height="200" width="200" x="0" y="0" /><text alignment-baseline="middle" fill="#e1ed5e" style="dominant-baseline: central; font-size:9.0px; font-family:Arial;" text-anchor="middle" x="100.0" y="100.0">2019</text><line stroke="#e1ed5e" stroke-width="0.3" x1="100.0" x2="100.0" y1="15.0" y2="10.0" /><path d="M 100.0 14.0 a86.0,86.0 0 0,1 42.46469731375804,11.215312516191453" fill="none" id="id13" stroke="none" /><text fill="#e1ed5e" style="font-size:6.75px; font-family:Arial;" text-anchor="middle"><textPath startOffset="22.20632615414155" xlink:href="#id13">January</textPath></text><line stroke="#e1ed5e" stroke-width="0.3" x1="143.23703022742887" x2="145.7803849466894" y1="26.81831364943548" y2="22.513508569990506" /><path d="M 143.74570117128098 25.957352633546492 a86.0,86.0 0 0,1 28.547481713284135,27.462654790039103" fill="none" id="id14" stroke="none" /><text fill="#e1ed5e" style="font-size:6.75px; font-family:Arial;" text-anchor="middle"><textPath startOffset="19.985693538727396" xlink:href="#id14">February</textPath></text><line stroke="#e1ed5e" stroke-width="0.3" x1="172.23445277983987" x2="176.4835382374775" y1="55.19839476539836" y2="52.563006222186495" /><path d="M 173.08426987136738 54.67131705675599 a86.0,86.0 0 0,1 12.851231095245387,41.99856678651699" fill="none" id="id15" stroke="none" /><text fill="#e1ed5e" style="font-size:6.75px; font-family:Arial;" text-anchor="middle"><textPath startOffset="22.20632615414155" xlink:href="#id15">March</textPath></text><line stroke="#e1ed5e" stroke-width="0.3" x1="184.98032266829074" x2="189.97916517819016" y1="98.17113171792111" y2="98.06355123074" /><path d="M 185.9800911702706 98.14961562048488 a86.0,86.0 0 0,1 -9.607161424134198,41.387399972396054" fill="none" id="id16" stroke="none" /><text fill="#e1ed5e" style="font-size:6.75px; font-family:Arial;" text-anchor="middle"><textPath startOffset="21.466115282336823" xlink:href="#id16">April</textPath></text><path d="M 119.67450827220406 107.3425965602758 l 9.14603221926385 3.41333179890524 a30.762209756260624,30.762209756260624 0 0,0 -0.18941569970613975,0.4945046212309107 l -9.085922239964203 -3.5702599869692944" fill="#ff0000" stroke="none" /><line stroke="#e1ed5e" stroke-width="0.3" x1="174.80103733775053" x2="179.2010983576182" y1="140.37084112569926" y2="142.7455964860345" /><path d="M 175.68104954172406 140.8457921977663 a86.0,86.0 0 0,1 -30.038265399797805,32.042727171017184" fill="none" id="id17" stroke="none" /><text fill="#e1ed5e" style="font-size:6.75px; font-family:Arial;" text-anchor="middle"><textPath startOffset="22.206326154141568" xlink:href="#id17">May</textPath></text><line stroke="#e1ed5e" stroke-width="0.3" x1="143.8653032363475" x2="146.44561519142675" y1="172.8068346515853" y2="177.08958963109032" /><path d="M 144.38136562736335 173.6633856474863 a86.0,86.0 0 0,1 -40.68145358897372,12.25698825130547" fill="none" id="id18" stroke="none" /><text fill="#e1ed5e" style="font-size:6.75px; font-family:Arial;" text-anchor="middle"><textPath startOffset="21.466115282336833" xlink:href="#id18">June</textPath></text><line stroke="#e1ed5e" stroke-width="0.3" x1="102.19456741930631" x2="102.32365962044197" y1="184.97166512339345" y2="189.96999836594603" /><path d="M 102.22038585953345 185.97133177190398 a86.0,86.0 0 0,1 -42.740103519485714,-10.115201625700543" fill="none" id="id19" stroke="none" /><text fill="#e1ed5e" style="font-size:6.75px; font-family:Arial;" text-anchor="middle"><textPath startOffset="22.20632615414155" xlink:href="#id19">July</textPath></text><path d="M 100.18074693466247 120.99922214144158 l 0.12694995456822783 14.749076114637827 a35.74962245368826,35.74962245368826 0 0,0 -0.6153937784613563,0.0 l 0.12694995456821767 -14.749076114637827" fill="#ff5307" stroke="none" /><path d="M 99.45781275523022 120.99299961872073 l -0.39576994523230763 15.323854239490299 a36.32896417252953,36.32896417252953 0 0,0 -0.6249959714417125,-0.021526124960476282 l 0.6594862683486631 -15.314771316103728" fill="#ff5c08" stroke="none" /><path d="M 98.73552117531835 120.96189622390904 l -0.9854369966241594 16.336080648591995 a37.36577578459443,37.36577578459443 0 0,0 -0.6416900104909354,-0.044254700104579395 l 1.266489767894025 -16.316697603971132" fill="#ff6d0a" stroke="none" /><path d="M 97.65516085044442 120.86867818915974 l -1.6609346523692925 14.782041983599626 a35.87506198724372,35.87506198724372 0 0,0 -0.6130750449311094,-0.07423485002862004 l 1.9151371203517913 -14.751261604845658" fill="#ff5507" stroke="none" /><path d="M 96.58105272829116 120.7198165907248 l -2.6518157120178056 16.07077583210248 a37.288092657404476,37.288092657404476 0 0,0 -0.6323901215133384,-0.10994912864699606 l 2.928054805003194 -16.022748124934477" fill="#ff6b09" stroke="none" /><path d="M 96.22490169976321 120.6578951692458 l -3.3342785024050845 18.245664162820248 a39.54782127027387,39.54782127027387 0 0,0 -0.6686074916227424,-0.12814021706873704 l 3.647853608599522 -18.185566747403044" fill="#ff8f0d" stroke="none" /><path d="M 95.86986931433489 120.58985236759428 l -3.5432892558868616 17.66428431129533 a39.01615494441468,39.01615494441468 0 0,0 -0.6573451791203792,-0.1377530735321399 l 3.8468258964366275 -17.60067525703665" fill="#ff870c" stroke="none" /><path d="M 95.16358092515715 120.4354850818985 l -3.4332772996824628 14.506742685849956 a35.90748055071601,35.90748055071601 0 0,0 -0.600247766689329,-0.14752629709662954 l 3.6824783511150025 -14.445495130439296" fill="#ff5507" stroke="none" /><path d="M 94.46302465271185 120.25689768951611 l -4.200928994520269 15.369002660377978 a36.93279784569259,36.93279784569259 0 0,0 -0.6117985354861672,-0.17290037721878557 l 4.46485869811105 -15.294413489820672" fill="#ff6609" stroke="none" /><path d="M 93.76903079525671 120.05430185196036 l -5.021229490944786 16.16076866544562 a37.922859966884516,37.922859966884516 0 0,0 -0.6217157723668394,-0.19905375717486926 l 5.2986666084025655 -16.071942061611043" fill="#ff750a" stroke="none" /><path d="M 93.42475214034765 119.94407469862007 l -3.8162585875514283 11.575494637459979 a33.18835123012644,33.18835123012644 0 0,0 -0.5410179590467779,-0.18354266579251852 l 4.014946279535432 -11.508088984769339" fill="#ff2904" stroke="none" /><path d="M 92.7421414339146 119.70592522655815 l -10.410675877634983 28.26618878483581 a51.122410272903934,51.122410272903934 0 0,0 -0.8231432999894881,-0.31124236248368564 l 10.895689398384754 -28.08279817224549" fill="#c8ff1d" stroke="none" /><path d="M 92.06813273071674 119.44442032107085 l -13.529249550771729 33.16601324288624 a56.81933874088636,56.81933874088636 0 0,0 -0.9024224344079584,-0.3772126507711544 l 14.098143444677149 -32.92821554909511" fill="#7eff26" stroke="none" /><path d="M 91.40352486487194 119.15986991738527 l -8.929386499440339 19.901864552858346 a42.813256426694,42.813256426694 0 0,0 -0.669786901980247,-0.30746631572610666 l 9.270641397188006 -19.745211166798168" fill="#ffc011" stroke="none" /><path d="M 90.7491055286396 118.85261126421891 l -7.334713685631479 14.947582234090934 a37.65017235631814,37.65017235631814 0 0,0 -0.5793574320007029,-0.29050184366814935 l 7.5909250253149425 -14.819112549513484" fill="#ff710a" stroke="none" /><line stroke="#e1ed5e" stroke-width="0.3" x1="58.666819895761336" x2="56.23545636021788" y1="174.27360380694188" y2="178.64263932499728" /><path d="M 58.180547188652646 175.14741091055294 a86.0,86.0 0 0,1 -31.652253787137756,-30.449443065178592" fill="none" id="id20" stroke="none" /><text fill="#e1ed5e" style="font-size:6.75px; font-family:Arial;" text-anchor="middle"><textPath startOffset="22.20632615414155" xlink:href="#id20">August</textPath></text><path d="M 89.7882731507175 118.34994917583269 l -16.980767561135874 30.513568009838167 a55.92025629425339,55.92025629425339 0 0,0 -0.8370762628657464,-0.4753137484036653 l 17.50349259092283 -30.216751095639868" fill="#8aff24" stroke="none" /><path d="M 87.36589467227662 116.77436683061367 l -17.811569908620335 23.64851326834366 a50.60581365902136,50.60581365902136 0 0,0 -0.6913025766659587,-0.5300613371333319 l 18.21600121377978 -23.338412589382962" fill="#cfff1d" stroke="none" /><path d="M 86.79598089348748 116.32954008644616 l -8.382577664888474 10.366816111242256 a34.33185975744566,34.33185975744566 0 0,0 -0.4563356000436943,-0.375533131666476 l 8.559783393476858 -10.2209878607186" fill="#ff3c05" stroke="none" /><path d="M 86.24171649860922 115.8653595955263 l -11.997680178424044 13.835120516565452 a39.31269749031091,39.31269749031091 0 0,0 -0.5074289182199414,-0.4477470225804281 l 12.234051449550574 -13.626550352212735" fill="#ff8b0c" stroke="none" /><path d="M 83.72743513129214 113.27417163493432 l -8.575932756182757 6.995725889170464 a32.06737563087918,32.06737563087918 0 0,0 -0.34523139226429694,-0.43072924360294346 l 8.695082060501914 -6.847068811989261" fill="#ff1602" stroke="none" /><path d="M 83.28015986056508 112.70617746262583 l -14.328931025574374 10.889215383779769 a38.99703520055495,38.99703520055495 0 0,0 -0.40155569021024673,-0.5379494683296628 l 14.514247982479706 -10.640953035940798" fill="#ff860c" stroke="none" /><path d="M 82.6465618267979 111.8261652097733 l -14.822545642304162 10.101391542454703 a38.93727879061274,38.93727879061274 0 0,0 -0.3726796247937996,-0.5571054732312261 l 14.994228372508692 -9.844749155017656" fill="#ff850c" stroke="none" /><line stroke="#e1ed5e" stroke-width="0.3" x1="26.63291911575756" x2="22.317208475507996" y1="142.92168965132927" y2="145.44649492493687" /><path d="M 25.769776987707644 143.4266507060508 a86.0,86.0 0 0,1 -11.730757126820373,-40.83630448921669" fill="none" id="id21" stroke="none" /><text fill="#e1ed5e" style="font-size:6.75px; font-family:Arial;" text-anchor="middle"><textPath startOffset="21.46611528233685" xlink:href="#id21">September</textPath></text><path d="M 81.87401531095188 110.60418214915194 l -26.230013832543406 15.345254297998192 a51.38898575348724,51.38898575348724 0 0,0 -0.44010507178660024,-0.7673602892268475 l 26.490270900482386 -14.891474162913036" fill="#c4ff1e" stroke="none" /><path d="M 81.18737489456691 109.33194174019688 l -13.434944540229091 6.664360716781945 a35.99704766153718,35.99704766153718 0 0,0 -0.2705722259456376,-0.557458926294091 l 13.547670022789449 -6.432112834522569" fill="#ff5708" stroke="none" /><path d="M 81.02952815118164 109.00673069616217 l -12.86747377744503 6.109171768471046 a35.244081616935475,35.244081616935475 0 0,0 -0.2554782775364963,-0.5502774813990633 l 12.970726671821353 -5.886774219793155" fill="#ff4b06" stroke="none" /><path d="M 80.73074385275274 108.34839909993369 l -21.76516353302394 9.42975018135115 a44.72008710148357,44.72008710148357 0 0,0 -0.29994192329707364,-0.7089741052624815 l 21.92425643751332 -9.05370155042251" fill="#ffdc14" stroke="none" /><path d="M 79.97269907076064 106.31721596034903 l -25.59202430533935 8.072497885288945 a47.83499450629857,47.83499450629857 0 0,0 -0.24093627409917728,-0.7873936842356376 l 25.727187351944657 -7.630777228501259" fill="#f5ff19" stroke="none" /><path d="M 79.50377843672027 104.57218783832718 l -15.318433042066781 3.4171543784755793 a36.69494615825802,36.69494615825802 0 0,0 -0.13221706547711823,-0.6176741125815305 l 15.374984146268341 -3.152966446477885" fill="#ff6209" stroke="none" /><path d="M 79.35854240842038 103.8639653848113 l -14.794271492996016 2.7694048585869515 a36.05124819671909,36.05124819671909 0 0,0 -0.10893237886641588,-0.6109506307559698 l 14.83975031420162 -2.5143354770977684" fill="#ff5808" stroke="none" /><path d="M 79.29508885075956 103.50808413554451 l -20.419348929025084 3.459700624636031 a41.71036791313435,41.71036791313435 0 0,0 -0.1138459577964748,-0.7089188878731131 l 20.47587664118285 -3.1077025070697046" fill="#ffb010" stroke="none" /><path d="M 79.04373962182676 101.35467743843564 l -37.28208538042224 2.4100292233099183 a58.359900042295365,58.359900042295365 0 0,0 -0.05617459722350888,-1.0030351693857662 l 37.31804632853328 -1.7679223375887148" fill="#6bff28" stroke="none" /><line stroke="#e1ed5e" stroke-width="0.3" x1="15.007084014347285" x2="10.007500721073583" y1="101.09737516637583" y2="101.16192664675087" /><path d="M 14.007167355692545 101.11028546245083 a86.0,86.0 0 0,1 10.666146001902534,-42.60595125391555" fill="none" id="id22" stroke="none" /><text fill="#e1ed5e" style="font-size:6.75px; font-family:Arial;" text-anchor="middle"><textPath startOffset="22.20632615414155" xlink:href="#id22">October</textPath></text><path d="M 79.00019446554 99.90962569577889 l -22.147923364978475 -0.0953153190284575 a43.14812846249093,43.14812846249093 0 0,0 0.0095891432580162,-0.7426897129399727 l 22.14300121460274 0.4765412900289021" fill="#ffc512" stroke="none" /><path d="M 79.21141760316559 97.0276538004421 l -12.0901657932649 -1.728648816049529 a33.21312145349673,33.21312145349673 0 0,0 0.08579124282556544,-0.5652570994147135 l 12.058618657000032 1.9365050278563345" fill="#ff2904" stroke="none" /><path d="M 79.3925641242962 95.95851677861259 l -18.128536989833886 -3.5553272379265595 a39.473878996045144,39.473878996045144 0 0,0 0.1365057564599574,-0.665650547531416 l 18.064651937458933 3.866853441621378" fill="#ff8e0d" stroke="none" /><path d="M 79.54389044137918 95.25157060432595 l -14.578290576426477 -3.3840248710737053 a35.96590058963277,35.96590058963277 0 0,0 0.14517755614671812,-0.6018546963746173 l 14.517880220018943 3.6344647991077195" fill="#ff5608" stroke="none" /><path d="M 80.02781315780177 93.51064311812611 l -28.60322787178728 -9.293752111381716 a51.07521359846345,51.07521359846345 0 0,0 0.27887724820879,-0.8338074759781352 l 28.439013329806716 9.784732690282173" fill="#c9ff1d" stroke="none" /><path d="M 80.803312248108 91.48605970444005 l -15.375947949317883 -6.81940054034725 a37.82034479640121,37.82034479640121 0 0,0 0.2690605659156905,-0.5928392916656945 l 15.25628506643884 7.083061840855016" fill="#ff740a" stroke="none" /><line stroke="#e1ed5e" stroke-width="0.3" x1="26.266209847984243" x2="21.928928074336255" y1="57.711370442889674" y2="55.22380399835377" /><path d="M 25.398753493254645 57.213857153982495 a86.0,86.0 0 0,1 29.58750427330803,-30.492523968695096" fill="none" id="id23" stroke="none" /><text fill="#e1ed5e" style="font-size:6.75px; font-family:Arial;" text-anchor="middle"><textPath startOffset="21.46611528233685" xlink:href="#id23">November</textPath></text><path d="M 81.96595687620814 89.24020034530311 l -17.770770549192978 -10.602721170531405 a41.69342847698513,41.69342847698513 0 0,0 0.37302554886233624,-0.6131559218656616 l 17.585629202044423 10.90704486560414" fill="#ffb010" stroke="none" /><path d="M 82.15384107792192 88.93136811851018 l -53.472125982200204 -33.164743237011486 a83.92192345306356,83.92192345306356 0 0,0 0.771971413385267,-1.2210733866395769 l 52.89332697256898 34.08026427136528" fill="#4dd3ff" stroke="none" /><path d="M 83.6137871275137 86.86637796730984 l -10.602469447304482 -8.497926117379558 a34.587755763092986,34.587755763092986 0 0,0 0.37635020702667576,-0.4613608536653158 l 10.454620748201416 8.679171140652956" fill="#ff4006" stroke="none" /><path d="M 84.07557802195018 86.31012108654704 l -11.19341889315936 -9.622738551272331 a35.761088162594234,35.761088162594234 0 0,0 0.4053061880955949,-0.4633350372522365 l 11.026120841485922 9.81398914472751" fill="#ff5307" stroke="none" /><path d="M 85.05521093208273 85.24692304244772 l -7.8407522872601385 -7.7401709300386665 a32.01760602201725,32.01760602201725 0 0,0 0.3905602108184887,-0.38888302115360784 l 7.706356276274336 7.8739898018423835" fill="#ff1502" stroke="none" /><path d="M 86.37877921826538 84.01681056812374 l -11.967644951362342 -14.042877608118676 a39.450662242815824,39.450662242815824 0 0,0 0.5206406525032479,-0.43602157364786565 l 11.724146761899982 14.246800339160353" fill="#ff8d0d" stroke="none" /><path d="M 86.93701828274178 83.55741782278169 l -6.604177952620208 -8.3127834861368 a31.616851497372632,31.616851497372632 0 0,0 0.42903682786238884,-0.33487004941599113 l 6.460108569598392 8.425231924776012" fill="#ff0e01" stroke="none" /><path d="M 88.09926311788651 82.69761687909137 l -5.88611487874292 -8.557773836573041 a31.38661838153751,31.38661838153751 0 0,0 0.44777540597914545,-0.30233995294346566 l 5.737934778357236 8.657825701815172" fill="#ff0b01" stroke="none" /><line stroke="#e1ed5e" stroke-width="0.3" x1="56.762969772571076" x2="54.21961505331055" y1="26.818313649435495" y2="22.513508569990535" /><path d="M 56.25429882871897 25.957352633546506 a86.0,86.0 0 0,1 42.265352541879196,-11.944610805530505" fill="none" id="id24" stroke="none" /><text fill="#e1ed5e" style="font-size:6.75px; font-family:Arial;" text-anchor="middle"><textPath startOffset="22.20632615414155" xlink:href="#id24">December</textPath></text><path d="M 90.91171255644093 81.06846463323043 l -7.853283884269302 -16.358936986053685 a39.14631883001616,39.14631883001616 0 0,0 0.6099775461235099,-0.28639263681092053 l 7.570528126846183 16.491694605504616" fill="#ff890c" stroke="none" /><path d="M 91.56875222667455 80.76684994638697 l -25.293743319976343 -57.69945016083907 a84.0,84.0 0 0,0 1.329264968838767,-0.5691218881488553 l 24.29679459334727 58.12629157695071" fill="#4dd2ff" stroke="none" /><path d="M 94.63758080256005 79.69619591428918 l -5.093148078616088 -19.28425901822525 a40.94549581315823,40.94549581315823 0 0,0 0.682992534844519,-0.17411000459501844 l 4.76044665508657 19.36907201898913" fill="#ffa40f" stroke="none" /><path d="M 96.04723909329186 79.375362276772 l -2.1184013155229846 -11.053352508856214 a32.254520239381485,32.254520239381485 0 0,0 0.5461840363623586,-0.09981164152472108 l 1.9278221580577328 11.088179631731672" fill="#ff1902" stroke="none" /><path d="M 98.55514903715128 79.0497635885617 l -2.062331674305732 -29.90366290120017 a50.97469377397307,50.97469377397307 0 0,0 0.87588590773467,-0.05283582989521161 l 1.547283717731439 29.934732000475687" fill="#caff1d" stroke="none" /></svg>