<?xml version="1.0" encoding="utf-8" ?>
<svg baseProfile="full" height="200mm" version="1.1" viewBox="0,0,200,200" width="200mm" xmlns="http://www.w3.org/2000/svg" xmlns:ev="http://www.w3.org/2001/xml-events" xmlns:xlink="http://www.w3.org/1999/xlink"><defs /><rect fill="#1a1a1a" height="200" width="200" x="0" y="0" /><text alignment-baseline="middle" fill="#e1ed5e" style="dominant-baseline: central; font-size:9.0px; font-family:Arial;" text-anchor="middle" x="100.0" y="100.0">2018</text><line stroke="#e1ed5e" stroke-width="0.3" x1="100.0" x2="100.0" y1="15.0" y2="10.0" /><path d="M 100.0 14.0 a86.0,86.0 0 0,1 42.46469731375804,11.215312516191453" fill="none" id="id1" stroke="none" /><text fill="#e1ed5e" style="font-size:6.75px; font-family:Arial;" text-anchor="middle"><textPath startOffset="22.20632615414155" xlink:href="#id1">January</textPath></text><line stroke="#e1ed5e" stroke-width="0.3" x1="143.23703022742887" x2="145.7803849466894" y1="26.81831364943548" y2="22.513508569990506" /><path d="M 143.74570117128098 25.957352633546492 a86.0,86.0 0 0,1 28.547481713284135,27.462654790039103" fill="none" id="id2" stroke="none" /><text fill="#e1ed5e" style="font-size:6.75px; font-family:Arial;" text-anchor="middle"><textPath startOffset="19.985693538727396" xlink:href="#id2">February</textPath></text><line stroke="#e1ed5e" stroke-width="0.3" x1="172.23445277983987" x2="176.4835382374775" y1="55.19839476539836" y2="52.563006222186495" /><path d="M 173.08426987136738 54.67131705675599 a86.0,86.0 0 0,1 12.851231095245387,41.99856678651699" fill="none" id="id3" stroke="none" /><text fill="#e1ed5e" style="font-size:6.75px; font-family:Arial;" text-anchor="middle"><textPath startOffset="22.20632615414155" xlink:href="#id3">March</textPath></text><line stroke="#e1ed5e" stroke-width="0.3" x1="184.98032266829074" x2="189.97916517819016" y1="98.17113171792111" y2="98.06355123074" /><path d="M 185.9800911702706 98.14961562048488 a86.0,86.0 0 0,1 -9.607161424134198,41.387399972396054" fill="none" id="id4" stroke="none" /><text fill="#e1ed5e" style="font-size:6.75px; font-family:Arial;" text-anchor="middle"><textPath startOffset="21.466115282336823" xlink:href="#id4">April</textPath></text><line stroke="#e1ed5e" stroke-width="0.3" x1="174.80103733775053" x2="179.2010983576182" y1="140.37084112569926" y2="142.7455964860345" /><path d="M 175.68104954172406 140.8457921977663 a86.0,86.0 0 0,1 -30.038265399797805,32.042727171017184" fill="none" id="id5" stroke="none" /><text fill="#e1ed5e" style="font-size:6.75px; font-family:Arial;" text-anchor="middle"><textPath startOffset="22.206326154141568" xlink:href="#id5">May</textPath></text><line stroke="#e1ed5e" stroke-width="0.3" x1="143.8653032363475" x2="146.44561519142675" y1="172.8068346515853" y2="177.08958963109032" /><path d="M 144.38136562736335 173.6633856474863 a86.0,86.0 0 0,1 -40.68145358897372,12.25698825130547" fill="none" id="id6" stroke="none" /><text fill="#e1ed5e" style="font-size:6.75px; font-family:Arial;" text-anchor="middle"><textPath startOffset="21.466115282336833" xlink:href="#id6">June</textPath></text><line stroke="#e1ed5e" stroke-width="0.3" x1="102.19456741930631" x2="102.32365962044197" y1="184.97166512339345" y2="189.96999836594603" /><path d="M 102.22038585953345 185.97133177190398 a86.0,86.0 0 0,1 -42.740103519485714,-10.115201625700543" fill="none" id="id7" stroke="none" /><text fill="#e1ed5e" style="font-size:6.75px; font-family:Arial;" text-anchor="middle"><textPath startOffset="22.20632615414155" xlink:href="#id7">July</textPath></text><line stroke="#e1ed5e" stroke-width="0.3" x1="58.666819895761336" x2="56.23545636021788" y1="174.27360380694188" y2="178.64263932499728" /><path d="M 58.180547188652646 175.14741091055294 a86.0,86.0 0 0,1 -31.652253787137756,-30.449443065178592" fill="none" id="id8" stroke="none" /><text fill="#e1ed5e" style="font-size:6.75px; font-family:Arial;" text-anchor="middle"><textPath startOffset="22.20632615414155" xlink:href="#id8">August</textPath></text><line stroke="#e1ed5e" stroke-width="0.3" x1="26.63291911575756" x2="22.317208475507996" y1="142.92168965132927" y2="145.44649492493687" /><path d="M 25.769776987707644 143.4266507060508 a86.0,86.0 0 0,1 -11.730757126820373,-40.83630448921669" fill="none" id="id9" stroke="none" /><text fill="#e1ed5e" style="font-size:6.75px; font-family:Arial;" text-anchor="middle"><textPath startOffset="21.46611528233685" xlink:href="#id9">September</textPath></text><line stroke="#e1ed5e" stroke-width="0.3" x1="15.007084014347285" x2="10.007500721073583" y1="101.09737516637583" y2="101.16192664675087" /><path d="M 14.007167355692545 101.11028546245083 a86.0,86.0 0 0,1 10.666146001902534,-42.60595125391555" fill="none" id="id10" stroke="none" /><text fill="#e1ed5e" style="font-size:6.75px; font-family:Arial;" text-anchor="middle"><textPath startOffset="22.20632615414155" xlink:href="#id10">October</textPath></text><path d="M 79.81627453868168 94.20196356495316 l -36.420404471734464 -10.462232679044126 a58.893326252985425,58.893326252985425 0 0,0 0.2882803161087235,-0.9719379140968238 l 36.23491825851403 11.08759997988749" fill="#84ff25" stroke="none" /><path d="M 79.91906864156998 93.8553929516997 l -48.71742737328769 -14.907149587326995 a71.94713768888792,71.94713768888792 0 0,0 0.37256460391621643,-1.181131606873331 l 48.45360728560327 15.74353136062674" fill="#3aff91" stroke="none" /><path d="M 80.02781315780177 93.51064311812611 l -45.6284766483857 -14.82559077216373 a68.97661954531546,68.97661954531546 0 0,0 0.3766212315971776,-1.1260495452203811 l 45.366518123016746 15.608813420306433" fill="#35ff66" stroke="none" /><path d="M 80.14247586403 93.16781622104843 l -45.45988807840449 -15.640938306081393 a69.0753614151335,69.0753614151335 0 0,0 0.3965153338353951,-1.1210022440817706 l 45.18391966375928 16.421138176589775" fill="#35ff68" stroke="none" /><path d="M 80.2630227832202 92.82701384747504 l -45.22280525862977 -16.43527032207868 a69.11673540484384,69.11673540484384 0 0,0 0.4160018196628268,-1.1146780536040743 l 44.93319885046532 17.211271512712095" fill="#35ff68" stroke="none" /><path d="M 80.38941819471856 92.48833698450439 l -42.40492902899235 -16.24283971911597 a66.40933657404355,66.40933657404355 0 0,0 0.41808298300791785,-1.0639755892642442 l 42.11905249610274 16.97036431327598" fill="#31ff40" stroke="none" /><path d="M 80.52162464483688 92.15188598940014 l -27.513266067714202 -11.085485568803026 a50.66256563429694,50.66256563429694 0 0,0 0.3328731116303562,-0.806078643071275 l 27.318371269197645 11.557438782327612" fill="#fcff18" stroke="none" /><path d="M 80.803312248108 91.48605970444005 l -27.55881500862825 -12.222634895789088 a51.14765477571274,51.14765477571274 0 0,0 0.36387338648808787,-0.8017467738813512 l 27.344339305176813 12.69520367851251" fill="#f4ff19" stroke="none" /><path d="M 81.10775173730289 90.83032412892265 l -37.79727678939667 -18.34555486191151 a63.014206119902695,63.014206119902695 0 0,0 0.48202863118343553,-0.971740306680026 l 37.475888145259816 18.993454757090497" fill="#4dff2c" stroke="none" /><path d="M 81.26839172434947 90.50648371742162 l -41.81018392450589 -21.190153884483195 a67.87338372092513,67.87338372092513 0 0,0 0.537138862567697,-1.0375813146146788 l 41.439235628778086 21.90670792135821" fill="#33ff56" stroke="none" /><path d="M 81.43458229118936 90.18545643968196 l -41.324620647288405 -21.846117109659872 a67.74373866531505,67.74373866531505 0 0,0 0.5538595836902402,-1.0262176918853319 l 40.9424529643797 22.554215784877677" fill="#33ff54" stroke="none" /><path d="M 81.6062741919709 89.86733742301443 l -12.765499333410173 -7.032207543058902 a35.57428955935589,35.57428955935589 0 0,0 0.3000815981852552,-0.5338116791670413 l 12.642560093932486 7.250902732160728" fill="#ff0000" stroke="none" /><line stroke="#e1ed5e" stroke-width="0.3" x1="26.266209847984243" x2="21.928928074336255" y1="57.711370442889674" y2="55.22380399835377" /><path d="M 25.398753493254645 57.213857153982495 a86.0,86.0 0 0,1 29.58750427330803,-30.492523968695096" fill="none" id="id11" stroke="none" /><text fill="#e1ed5e" style="font-size:6.75px; font-family:Arial;" text-anchor="middle"><textPath startOffset="21.46611528233685" xlink:href="#id11">November</textPath></text><path d="M 81.96595687620814 89.24020034530311 l -24.38771552316876 -14.55064353921004 a49.39862489354302,49.39862489354302 0 0,0 0.4419629144705687,-0.7264708250657779 l 24.13363681041198 14.968282137482891" fill="#ffee16" stroke="none" /><path d="M 82.15384107792192 88.93136811851018 l -46.43059244610165 -28.797408902909048 a75.63598332982886,75.63598332982886 0 0,0 0.6957516528630161,-1.1005120297084567 l 45.92801319699267 29.592368580331723" fill="#40ffc4" stroke="none" /><path d="M 82.54541684631803 88.32363383020206 l -39.126980752187116 -26.174268979021704 a68.07454704368593,68.07454704368593 0 0,0 0.6599196327988968,-0.9683506313267112 l 38.670636653719484 26.843897633618834" fill="#34ff59" stroke="none" /><path d="M 82.7489923806493 88.02491185347247 l -35.80746041165 -24.856373853305534 a64.58914477558803,64.58914477558803 0 0,0 0.6418542577297852,-0.9078573287612974 l 35.37429353411634 25.469057682398617" fill="#39ff2e" stroke="none" /><path d="M 83.17141714833178 87.43820079747576 l -37.722266755140154 -28.15801809450356 a68.07274574694301,68.07274574694301 0 0,0 0.7090070147554002,-0.9329701225500142 l 37.23198380016064 28.803172992934602" fill="#34ff59" stroke="none" /><path d="M 83.39014120810768 87.1503855733568 l -42.150271891261546 -32.60802807337913 a74.29098343380008,74.29098343380008 0 0,0 0.7911845377919183,-1.0047240169479692 l 41.58273327287566 33.32874448428014" fill="#3effb2" stroke="none" /><path d="M 83.6137871275137 86.86637796730984 l -35.06671703379904 -28.106128672508465 a65.94028384961686,65.94028384961686 0 0,0 0.7174978234546739,-0.8795674936578187 l 34.577720718267976 28.705580335774368" fill="#30ff38" stroke="none" /><path d="M 83.84228863543731 86.58626213691792 l -31.461388835397415 -26.118477618809717 a61.89002152819601,61.89002152819601 0 0,0 0.6875373882657868,-0.8138274072510798 l 31.007140833644502 26.656163975689914" fill="#5bff2a" stroke="none" /><path d="M 84.31358615837235 86.03803664274999 l -27.96832668315284 -24.893691844181227 a58.44226476975737,58.44226476975737 0 0,0 0.6753041525324999,-0.7456877119386243 l 27.535678890004295 25.371432343389404" fill="#8aff24" stroke="none" /><path d="M 84.5562425177563 85.77008943001954 l -34.339815633475965 -31.640778224846063 a67.69434424440516,67.69434424440516 0 0,0 0.7969644769046733,-0.8501461372207134 l 33.790083834600836 32.22719377894483" fill="#33ff53" stroke="none" /><path d="M 84.80347519578584 85.50635884689758 l -33.579197909088464 -32.02606194334459 a67.40292206118787,67.40292206118787 0 0,0 0.8079868673159263,-0.8327014908198377 l 33.02294677806942 32.599327629714544" fill="#33ff4f" stroke="none" /><path d="M 85.05521093208273 85.24692304244772 l -33.28393166781139 -32.85696459907046 a67.76965073562242,67.76965073562242 0 0,0 0.8266742073157796,-0.8231242055533677 l 32.713421660328294 33.42502465527394" fill="#33ff54" stroke="none" /><path d="M 85.57189188830299 84.74124197986013 l -32.600022882225325 -34.47685980448278 a68.44908169711586,68.44908169711586 0 0,0 0.863084628327528,-0.8021430996696189 l 32.00173037010294 35.032907490227046" fill="#34ff5e" stroke="none" /><path d="M 85.83668400450813 84.49514656593479 l -31.645391903149726 -34.642816941884575 a67.92073735964578,67.92073735964578 0 0,0 0.8699967649583109,-0.7810916855940921 l 31.044384150595445 35.18240763624795" fill="#33ff57" stroke="none" /><path d="M 86.37877921826538 84.01681056812374 l -30.503397702287067 -35.792796519771734 a68.02745532228674,68.02745532228674 0 0,0 0.8977760248772678,-0.7518616021784233 l 29.88276414045069 36.312559279343965" fill="#34ff58" stroke="none" /><path d="M 86.65592168130627 83.78471172551755 l -31.408738833937004 -38.1668739021667 a70.42893017861459,70.42893017861459 0 0,0 0.9427301388546024,-0.7622888764671001 l 30.7471052965179 38.70186887589794" fill="#37ff7c" stroke="none" /><line stroke="#e1ed5e" stroke-width="0.3" x1="56.762969772571076" x2="54.21961505331055" y1="26.818313649435495" y2="22.513508569990535" /><path d="M 56.25429882871897 25.957352633546506 a86.0,86.0 0 0,1 42.265352541879196,-11.944610805530505" fill="none" id="id12" stroke="none" /><text fill="#e1ed5e" style="font-size:6.75px; font-family:Arial;" text-anchor="middle"><textPath startOffset="22.20632615414155" xlink:href="#id12">December</textPath></text><path d="M 92.91201910852362 80.23233633223022 l -8.41350690101687 -23.46442198874482 a45.927218008421036,45.927218008421036 0 0,0 0.7464660004563267,-0.26042733031508086 l 8.008358896497258 23.605770172232113" fill="#ffb610" stroke="none" /><path d="M 93.59665428221793 80.00007090966166 l -19.21003715334623 -59.99978727101503 a84.0,84.0 0 0,0 1.380858509157085,-0.42903946046989905 l 18.17439327147842 60.321566866367455" fill="#4dd2ff" stroke="none" /></svg>