<?xml version="1.0" encoding="utf-8" ?>
<svg baseProfile="full" height="200mm" version="1.1" viewBox="0,0,200,200" width="200mm" xmlns="http://www.w3.org/2000/svg" xmlns:ev="http://www.w3.org/2001/xml-events" xmlns:xlink="http://www.w3.org/1999/xlink"><defs /><rect fill="#1a1a1a" height="200" width="200" x="0" y="0" /><text alignment-baseline="middle" fill="#e1ed5e" style="dominant-baseline: central; font-size:9.0px; font-family:Arial;" text-anchor="middle" x="100.0" y="100.0">2018</text><line stroke="#e1ed5e" stroke-width="0.3" x1="100.0" x2="100.0" y1="15.0" y2="10.0" /><path d="M 100.0 14.0 a86.0,86.0 0 0,1 42.46469731375804,11.215312516191453" fill="none" id="id1" stroke="none" /><text fill="#e1ed5e" style="font-size:6.75px; font-family:Arial;" text-anchor="middle"><textPath startOffset="22.20632615414155" xlink:href="#id1">January</textPath></text><line stroke="#e1ed5e" stroke-width="0.3" x1="143.23703022742887" x2="145.7803849466894" y1="26.81831364943548" y2="22.513508569990506" /><path d="M 143.74570117128098 25.957352633546492 a86.0,86.0 0 0,1 28.547481713284135,27.462654790039103" fill="none" id="id2" stroke="none" /><text fill="#e1ed5e" style="font-size:6.75px; font-family:Arial;" text-anchor="middle"><textPath startOffset="19.985693538727396" xlink:href="#id2">February</textPath></text><line stroke="#e1ed5e" stroke-width="0.3" x1="172.23445277983987" x2="176.4835382374775" y1="55.19839476539836" y2="52.563006222186495" /><path d="M 173.08426987136738 54.67131705675599 a86.0,86.0 0 0,1 12.851231095245387,41.99856678651699" fill="none" id="id3" stroke="none" /><text fill="#e1ed5e" style="font-size:6.75px; font-family:Arial;" text-anchor="middle"><textPath startOffset="22.20632615414155" xlink:href="#id3">March</textPath></text><line stroke="#e1ed5e" stroke-width="0.3" x1="184.98032266829074" x2="189.97916517819016" y1="98.17113171792111" y2="98.06355123074" /><path d="M 185.9800911702706 98.14961562048488 a86.0,86.0 0 0,1 -9.607161424134198,41.387399972396054" fill="none" id="id4" stroke="none" /><text fill="#e1ed5e" style="font-size:6.75px; font-family:Arial;" text-anchor="middle"><textPath startOffset="21.466115282336823" xlink:href="#id4">April</textPath></text><line stroke="#e1ed5e" stroke-width="0.3" x1="174.80103733775053" x2="179.2010983576182" y1="140.37084112569926" y2="142.7455964860345" /><path d="M 175.68104954172406 140.8457921977663 a86.0,86.0 0 0,1 -30.038265399797805,32.042727171017184" fill="none" id="id5" stroke="none" /><text fill="#e1ed5e" style="font-size:6.75px; font-family:Arial;" text-anchor="middle"><textPath startOffset="22.206326154141568" xlink:href="#id5">May</textPath></text><line stroke="#e1ed5e" stroke-width="0.3" x1="143.8653032363475" x2="146.44561519142675" y1="172.8068346515853" y2="177.08958963109032" /><path d="M 144.38136562736335 173.6633856474863 a86.0,86.0 0 0,1 -40.68145358897372,12.25698825130547" fill="none" id="id6" stroke="none" /><text fill="#e1ed5e" style="font-size:6.75px; font-family:Arial;" text-anchor="middle"><textPath startOffset="21.466115282336833" xlink:href="#id6">June</textPath></text><line stroke="#e1ed5e" stroke-width="0.3" x1="102.19456741930631" x2="102.32365962044197" y1="184.97166512339345" y2="189.96999836594603" /><path d="M 102.22038585953345 185.97133177190398 a86.0,86.0 0 0,1 -42.740103519485714,-10.115201625700543" fill="none" id="id7" stroke="none" /><text fill="#e1ed5e" style="font-size:6.75px; font-family:Arial;" text-anchor="middle"><textPath startOffset="22.20632615414155" xlink:href="#id7">July</textPath></text><line stroke="#e1ed5e" stroke-width="0.3" x1="58.666819895761336" x2="56.23545636021788" y1="174.27360380694188" y2="178.64263932499728" /><path d="M 58.180547188652646 175.14741091055294 a86.0,86.0 0 0,1 -31.652253787137756,-30.449443065178592" fill="none" id="id8" stroke="none" /><text fill="#e1ed5e" style="font-size:6.75px; font-family:Arial;" text-anchor="middle"><textPath startOffset="22.20632615414155" xlink:href="#id8">August</textPath></text><line stroke="#e1ed5e" stroke-width="0.3" x1="26.63291911575756" x2="22.317208475507996" y1="142.92168965132927" y2="145.44649492493687" /><path d="M 25.769776987707644 143.4266507060508 a86.0,86.0 0 0,1 -11.730757126820373,-40.83630448921669" fill="none" id="id9" stroke="none" /><text fill="#e1ed5e" style="font-size:6.75px; font-family:Arial;" text-anchor="middle"><textPath startOffset="21.46611528233685" xlink:href="#id9">September</textPath></text><line stroke="#e1ed5e" stroke-width="0.3" x1="15.007084014347285" x2="10.007500721073583" y1="101.09737516637583" y2="101.16192664675087" /><path d="M 14.007167355692545 101.11028546245083 a86.0,86.0 0 0,1 10.666146001902534,-42.60595125391555" fill="none" id="id10" stroke="none" /><text fill="#e1ed5e" style="font-size:6.75px; font-family:Arial;" text-anchor="middle"><textPath startOffset="22.20632615414155" xlink:href="#id10">October</textPath></text><path d="M 79.81627453868168 94.20196356495316 l -41.99586686063325 -12.063856429576308 a64.69427268337881,64.69427268337881 0 0,0 0.3166757010713585,-1.0676730360888196 l 41.781985262450185 12.784958852411666" fill="#43ff2d" stroke="none" /><path d="M 79.91906864156998 93.8553929516997 l -56.17539462937562 -17.18922890674625 a79.74644288954526,79.74644288954526 0 0,0 0.41295182634429334,-1.3091701387741035 l 55.87118731926312 18.153649211946767" fill="#46fff6" stroke="none" /><path d="M 80.02781315780177 93.51064311812611 l -52.613568085611746 -17.09518456010629 a76.32117932440883,76.32117932440883 0 0,0 0.4167234744698366,-1.2459501470998142 l 52.311507317370136 17.998307810128427" fill="#40ffc8" stroke="none" /><path d="M 80.14247586403 93.16781622104843 l -52.41917092715486 -18.035350573532256 a76.43503721474792,76.43503721474792 0 0,0 0.43876229782978177,-1.2404401003312575 l 52.100955548515266 18.934988300290122" fill="#40ffca" stroke="none" /><path d="M 80.2630227832202 92.82701384747504 l -52.14579399247724 -18.95128388264336 a76.4827449925327,76.4827449925327 0 0,0 0.4603365726598216,-1.2334731497836104 l 51.81185283131578 19.84608016945631" fill="#40ffca" stroke="none" /><path d="M 80.38941819471856 92.48833698450439 l -48.89653971630798 -18.729394804277813 a73.3608806836076,73.3608806836076 0 0,0 0.46184674346345617,-1.175349586082045 l 48.56689942296283 19.568293395255623" fill="#3bff9e" stroke="none" /><path d="M 80.52162464483688 92.15188598940014 l -31.725168224796434 -12.782520754107164 a55.2034959575891,55.2034959575891 0 0,0 0.3627088214386969,-0.8783281809194453 l 31.500437716471538 13.326723505479922" fill="#ccff1d" stroke="none" /><path d="M 80.803312248108 91.48605970444005 l -31.777690081322056 -14.09375198367322 a55.76284556652184,55.76284556652184 0 0,0 0.3967066631985144,-0.8740905468970234 l 31.53038110116019 14.638664539412314" fill="#c3ff1e" stroke="none" /><path d="M 81.10775173730289 90.83032412892265 l -43.583519369586284 -21.15400667950319 a69.44600251037818,69.44600251037818 0 0,0 0.5312288068430674,-1.0709248585744295 l 43.2129305497898 21.90109112657658" fill="#35ff63" stroke="none" /><path d="M 81.26839172434947 90.50648371742162 l -48.210747326401645 -24.434074640212444 a75.04905328767208,75.04905328767208 0 0,0 0.5939259384130967,-1.1472758701847803 l 47.78301195482843 25.260323232657562" fill="#3effb6" stroke="none" /><path d="M 81.43458229118936 90.18545643968196 l -47.650850998005176 -25.190456802068198 a74.89956135935574,74.89956135935574 0 0,0 0.6123641932138328,-1.1346178480222557 l 47.21017870557287 26.006955633422926" fill="#3effb4" stroke="none" /><path d="M 81.6062741919709 89.86733742301443 l -14.719721491052002 -8.108741679237541 a37.805412592219874,37.805412592219874 0 0,0 0.318901902785651,-0.5672909010251249 l 14.577961946973922 8.36091609019745" fill="#ff0000" stroke="none" /><line stroke="#e1ed5e" stroke-width="0.3" x1="26.266209847984243" x2="21.928928074336255" y1="57.711370442889674" y2="55.22380399835377" /><path d="M 25.398753493254645 57.213857153982495 a86.0,86.0 0 0,1 29.58750427330803,-30.492523968695096" fill="none" id="id11" stroke="none" /><text fill="#e1ed5e" style="font-size:6.75px; font-family:Arial;" text-anchor="middle"><textPath startOffset="21.46611528233685" xlink:href="#id11">November</textPath></text><path d="M 81.96595687620814 89.24020034530311 l -28.1211389330081 -16.77814669201276 a53.74606329481824,53.74606329481824 0 0,0 0.48085886654311344,-0.7904055432710589 l 27.82816426817877 17.259720008490895" fill="#e3ff1b" stroke="none" /><path d="M 82.15384107792192 88.93136811851018 l -53.53847676623425 -33.20589564446946 a84.0,84.0 0 0,0 0.7726896150161493,-1.222209409143138 l 52.95895955497213 34.12255270132681" fill="#4dd2ff" stroke="none" /><path d="M 82.54541684631803 88.32363383020206 l -45.11678269807959 -30.181189120798646 a75.2810119449808,75.2810119449808 0 0,0 0.7297796300808289,-1.0708615570670528 l 44.59057860233003 30.953328701136115" fill="#3effb9" stroke="none" /><path d="M 82.7489923806493 88.02491185347247 l -41.289089505639836 -28.66154239971933 a71.26204258618671,71.26204258618671 0 0,0 0.7081661416540841,-1.0016507858890487 l 40.78961074418187 29.368019685940165" fill="#38ff7f" stroke="none" /><path d="M 83.17141714833178 87.43820079747576 l -43.49702633202838 -32.46862290817822 a75.27893489451175,75.27893489451175 0 0,0 0.7840625836063146,-1.031734453242929 l 42.93168780819796 33.21254213730217" fill="#3effb9" stroke="none" /><path d="M 83.39014120810768 87.1503855733568 l -48.60289807760643 -37.59986813491326 a82.44909914152578,82.44909914152578 0 0,0 0.8780668848431127,-1.1150557746625032 l 47.94847711216935 38.43091630352881" fill="#4ae5ff" stroke="none" /><path d="M 83.6137871275137 86.86637796730984 l -40.43494851722034 -32.408789930231116 a72.82002244627176,72.82002244627176 0 0,0 0.792356425524002,-0.9713352884140718 l 39.87109359961995 33.10000938825327" fill="#3aff96" stroke="none" /><path d="M 83.84228863543731 86.58626213691792 l -36.27769421966118 -30.11685687162623 a68.14972073852886,68.14972073852886 0 0,0 0.7570765020054859,-0.896139784153323 l 35.75390710416857 30.736855605408667" fill="#33ff4f" stroke="none" /><path d="M 84.31358615837235 86.03803664274999 l -32.24989235393978 -28.704573261101945 a64.17415989851652,64.17415989851652 0 0,0 0.7415365717856105,-0.8188232035297778 l 31.75101214153812 29.25544925190128" fill="#4aff2c" stroke="none" /><path d="M 84.5562425177563 85.77008943001954 l -39.59676852247408 -36.48454565431075 a74.84260533280201,74.84260533280201 0 0,0 0.881120845101756,-0.9399182831802775 l 38.962880355401865 37.16073335436908" fill="#3effb3" stroke="none" /><path d="M 84.80347519578584 85.50635884689758 l -38.71971069874766 -36.92881100447157 a74.5065704264317,74.5065704264317 0 0,0 0.8931412554882499,-0.9204605731134606 l 38.078305179556295 37.58983577313515" fill="#3dffae" stroke="none" /><path d="M 85.05521093208273 85.24692304244772 l -38.379243261964106 -37.88691341464912 a74.92944021079893,74.92944021079893 0 0,0 0.9140114331195455,-0.9100863775538532 l 37.72139602867725 38.54193564285308" fill="#3effb4" stroke="none" /><path d="M 85.57189188830299 84.74124197986013 l -37.590637459231175 -39.75479226886311 a75.71288269623355,75.71288269623355 0 0,0 0.9546749730060714,-0.8872663431719645 l 36.90075460243025 40.395963198109726" fill="#3fffc0" stroke="none" /><path d="M 85.83668400450813 84.49514656593479 l -36.489865623228965 -39.946155158649454 a75.10365611638647,75.10365611638647 0 0,0 0.9620027755561229,-0.8636955903408834 l 35.79685186007687 40.56834975775961" fill="#3effb7" stroke="none" /><path d="M 86.37877921826538 84.01681056812374 l -35.17304783631327 -41.272180773847566 a75.22671112952301,75.22671112952301 0 0,0 0.9927864766143577,-0.8314301231539193 l 34.457403822739806 41.871512054395296" fill="#3effb9" stroke="none" /><path d="M 86.65592168130627 83.78471172551755 l -36.216984228006375 -44.00969671069767 a77.99581871628178,77.99581871628178 0 0,0 1.0440171222536254,-0.8441892396715601 l 35.45406370718825 44.626592047633366" fill="#43ffdf" stroke="none" /><line stroke="#e1ed5e" stroke-width="0.3" x1="56.762969772571076" x2="54.21961505331055" y1="26.818313649435495" y2="22.513508569990535" /><path d="M 56.25429882871897 25.957352633546506 a86.0,86.0 0 0,1 42.265352541879196,-11.944610805530505" fill="none" id="id12" stroke="none" /><text fill="#e1ed5e" style="font-size:6.75px; font-family:Arial;" text-anchor="middle"><textPath startOffset="22.20632615414155" xlink:href="#id12">December</textPath></text><path d="M 92.91201910852362 80.23233633223022 l -9.701498947392022 -27.056501872894067 a49.74323181940696,49.74323181940696 0 0,0 0.8084885807626382,-0.28206579073866506 l 9.2343283625661 27.21948851680494" fill="#ffda14" stroke="none" /><path d="M 93.59665428221793 80.00007090966166 l -10.706032605970636 -33.43875255144392 a56.11081466381553,56.11081466381553 0 0,0 0.9223939986222122,-0.28659230535583236 l 10.128853234637695 33.61808499168228" fill="#beff1f" stroke="none" /></svg>