<?xml version="1.0" encoding="utf-8" ?>
<svg baseProfile="full" height="200mm" version="1.1" viewBox="0,0,200,200" width="200mm" xmlns="http://www.w3.org/2000/svg" xmlns:ev="http://www.w3.org/2001/xml-events" xmlns:xlink="http://www.w3.org/1999/xlink"><defs /><rect fill="#1a1a1a" height="200" width="200" x="0" y="0" /><text alignment-baseline="middle" fill="#e1ed5e" style="dominant-baseline: central; font-size:9.0px; font-family:Arial;" text-anchor="middle" x="100.0" y="100.0">2016</text><line stroke="#e1ed5e" stroke-width="0.3" x1="100.0" x2="100.0" y1="15.0" y2="10.0" /><path d="M 100.0 14.0 a86.0,86.0 0 0,1 42.35913384403234,11.155469271406648" fill="none" id="id13" stroke="none" /><text fill="#e1ed5e" style="font-size:6.75px; font-family:Arial;" text-anchor="middle"><textPath startOffset="22.145653131862478" xlink:href="#id13">January</textPath></text><line stroke="#e1ed5e" stroke-width="0.3" x1="143.13028292997686" x2="145.6673583964461" y1="26.7553504044142" y2="22.446841604673864" /><path d="M 143.63769802327073 25.89364864446614 a86.0,86.0 0 0,1 29.32050498858742,28.57503671076993" fill="none" id="id14" stroke="none" /><text fill="#e1ed5e" style="font-size:6.75px; font-family:Arial;" text-anchor="middle"><textPath startOffset="20.669276256404974" xlink:href="#id14">February</textPath></text><line stroke="#e1ed5e" stroke-width="0.3" x1="172.87174338648825" x2="177.1583165268699" y1="56.24261187166439" y2="53.66864786411523" /><path d="M 173.72905801456457 55.72781907015455 a86.0,86.0 0 0,1 12.242430191666344,42.057860355516425" fill="none" id="id15" stroke="none" /><text fill="#e1ed5e" style="font-size:6.75px; font-family:Arial;" text-anchor="middle"><textPath startOffset="22.145653131862474" xlink:href="#id15">March</textPath></text><path d="M 120.9064616781168 98.02013634271609 l 22.766710104985968 -2.1560311174014224 a43.86857142857143,43.86857142857143 0 0,0 0.06456279144202555,0.7503175018495355 l -22.800366519125735 1.764892568176225" fill="#ffb711" stroke="none" /><path d="M 120.93736805541906 98.37931529534042 l 22.868733435225067 -1.7701845998649097 a43.93714285714286,43.93714285714286 0 0,0 0.05175385104811072,0.7524896358305646 l -22.895751247438245 1.377351539880011" fill="#ffb911" stroke="none" /><path d="M 120.98066250479742 99.09900007780936 l 22.853222314749413 -0.9814156975589496 a43.87428571428572,43.87428571428572 0 0,0 0.025855143738285725,0.7527442995038605 l -22.86670214548455 0.5889651334909692" fill="#ffb811" stroke="none" /><path d="M 120.99303781780057 99.45929381324524 l 11.858924220341224 -0.3054438214157512 a32.862857142857145,32.862857142857145 0 0,0 0.009684478061516101,0.5640722955814692 l -11.862420130001405 0.10182460986521559" fill="#ff0000" stroke="none" /><line stroke="#e1ed5e" stroke-width="0.3" x1="184.99686870605535" x2="189.99668451229388" y1="99.2704041080226" y2="99.22748670261217" /><path d="M 185.99683186730306 99.26182062694052 a86.0,86.0 0 0,1 -10.086455211305974,41.156179273409016" fill="none" id="id16" stroke="none" /><text fill="#e1ed5e" style="font-size:6.75px; font-family:Arial;" text-anchor="middle"><textPath startOffset="21.40746469413373" xlink:href="#id16">April</textPath></text><path d="M 120.9064616781168 101.97986365728391 l 22.766710104985968 2.1560311174014197 a43.86857142857143,43.86857142857143 0 0,0 -0.0774334756240135,0.7490986346759009 l -22.72634423688029 -2.546534274360252" fill="#ffb711" stroke="none" /><path d="M 120.86939407059847 102.33845913500097 l 11.857223080111453 1.3286265779270876 a32.93142857142857,32.93142857142857 0 0,0 -0.06777274473076417,0.5612555482694955 l -11.832668249121026 -1.531975803119992" fill="#ff0100" stroke="none" /><path d="M 120.77682067341334 103.0534771498775 l 34.07963946104371 5.0085334039351 a55.44571428571429,55.44571428571429 0 0,0 -0.14647835694758918,0.9404961280868396 l -33.98863961195785 -5.592817713953391" fill="#9fff22" stroke="none" /><path d="M 120.7213421655516 103.40968896794604 l 22.779380230973747 3.7483383484359156 a44.08571428571429,44.08571428571429 0 0,0 -0.12928698858432985,0.7456929934741942 l -22.71167842489718 -4.138824374830698" fill="#ffbb11" stroke="none" /><path d="M 119.4528033332814 107.91128576633889 l 31.939650425311545 12.989577772541178 a55.48,55.48 0 0,0 -0.36636391167218013,0.879140017914186 l -31.71196066910288 -13.53595029989664" fill="#9eff22" stroke="none" /><path d="M 119.31412917781788 108.2440532568976 l 21.05897023551462 8.988822149765634 a43.89714285714285,43.89714285714285 0 0,0 -0.3017742907063047,0.6905186340086968 l -20.90156206279135 -9.349002853550175" fill="#ffb811" stroke="none" /><path d="M 119.16976305983485 108.57439118712176 l 20.974589731590726 9.381667200929689 a43.97714285714286,43.97714285714286 0 0,0 -0.3141549818980921,0.6864853313947632 l -20.81045028483758 -9.740341514539141" fill="#ffb911" stroke="none" /><path d="M 118.8641267826498 109.22738970284198 l 20.72230743443736 10.136318974251166 a44.06857142857143,44.06857142857143 0 0,0 -0.3382369603567674,0.6767004966708007 l -20.545250560868862 -10.490551327085713" fill="#ffbb11" stroke="none" /><line stroke="#e1ed5e" stroke-width="0.3" x1="174.33088141563837" x2="178.70328620479359" y1="141.23008692659167" y2="143.65538615756765" /><path d="M 175.20536237346943 141.71514677278685 a86.0,86.0 0 0,1 -30.301960400862466,31.631185727798858" fill="none" id="id17" stroke="none" /><text fill="#e1ed5e" style="font-size:6.75px; font-family:Arial;" text-anchor="middle"><textPath startOffset="22.145653131862474" xlink:href="#id17">May</textPath></text><path d="M 117.81537515405839 111.11811171558189 l 19.44905717498836 12.137650123242054 a43.925714285714285,43.925714285714285 0 0,0 -0.40470707604674394,0.63626674360409 l -19.23783240731573 -12.469730541524818" fill="#ffb811" stroke="none" /><path d="M 117.01052211995028 112.31430620078461 l 51.03156635985084 36.94291860235382 a84.0,84.0 0 0,0 -0.8555919216646877,1.1607747629244907 l -50.38987241860232 -37.81349967454719" fill="#4dd2ff" stroke="none" /><path d="M 116.1254893667686 113.45245675266167 l 26.375596349291445 22.003460555169887 a55.348571428571425,55.348571428571425 0 0,0 -0.6149106007809765,0.7243631415492773 l -25.993991185003352 -22.452990479168722" fill="#a0ff22" stroke="none" /><path d="M 115.89218393027572 113.72728997021213 l 26.080479260814382 22.52769681914267 a55.462857142857146,55.462857142857146 0 0,0 -0.6285498267259779,0.7151743215139017 l -25.68991837012982 -22.972083418467864" fill="#9eff22" stroke="none" /><path d="M 115.41159269507618 114.26474011684316 l 42.259216214498686 39.11449963467441 a78.58285714285714,78.58285714285714 0 0,0 -0.9248235576759055,0.9821305694811632 l -41.58153682308652 -39.834171664100076" fill="#45ffee" stroke="none" /><path d="M 114.91283532996324 114.78537596483092 l 24.416470797384726 24.207784266772148 a55.38285714285714,55.38285714285714 0 0,0 -0.6751647102313961,0.6693941063574994 l -23.997314167023365 -24.623358383358312" fill="#9fff22" stroke="none" /><path d="M 114.39649973595853 115.28858382429668 l 23.582837662713015 25.044156359800272 a55.4,55.4 0 0,0 -0.6979614604383911,0.6460227078221986 l -23.149446430960655 -25.44529681375485" fill="#9fff22" stroke="none" /><line stroke="#e1ed5e" stroke-width="0.3" x1="143.1302829299769" x2="145.66735839644613" y1="173.24464959558577" y2="177.55315839532614" /><path d="M 143.63769802327073 174.10635135553383 a86.0,86.0 0 0,1 -40.68552437913181,11.842963189579606" fill="none" id="id18" stroke="none" /><text fill="#e1ed5e" style="font-size:6.75px; font-family:Arial;" text-anchor="middle"><textPath startOffset="21.407464694133747" xlink:href="#id18">June</textPath></text><line stroke="#e1ed5e" stroke-width="0.3" x1="101.45913802915013" x2="101.54496967792366" y1="184.9874750549273" y2="189.98673829345242" /><path d="M 101.47630435890484 185.9873277026323 a86.0,86.0 0 0,1 -42.54439059252881,-10.42667462771756" fill="none" id="id19" stroke="none" /><text fill="#e1ed5e" style="font-size:6.75px; font-family:Arial;" text-anchor="middle"><textPath startOffset="22.145653131862474" xlink:href="#id19">July</textPath></text><path d="M 97.48249496171623 120.84855314841334 l -4.1362436520156205 34.254030995950956 a55.502857142857145,55.502857142857145 0 0,0 -0.9449286846189708,-0.12233993635524998 l 4.723650158525385 -34.17797946339531" fill="#9eff22" stroke="none" /><path d="M 96.76829788921471 120.74984581791261 l -5.485539528456774 35.22109883323508 a56.645714285714284,56.645714285714284 0 0,0 -0.959531187002716,-0.1578904916768543 l 6.089348218512553 -35.12174234306256" fill="#8fff24" stroke="none" /><path d="M 96.05791012581884 120.62667999033965 l -7.936740946684757 41.528382380550504 a63.28,63.28 0 0,0 -1.0652239236000463,-0.21307461805591074 l 8.64846135581576 -41.38601836583173" fill="#3bff2e" stroke="none" /><path d="M 93.95794788825049 120.11202640906438 l -11.720759048887684 39.01459490346122 a61.73714285714286,61.73714285714286 0 0,0 -1.0123696877428217,-0.3136347170984936 l 12.388769369502139 -38.80764359855608" fill="#4eff2b" stroke="none" /><path d="M 92.59220618246901 119.65005319985036 l -12.326165767129796 32.696619133900676 a55.94285714285714,55.94285714285714 0 0,0 -0.8956923946090772,-0.34647305989893407 l 12.885630424232401 -32.4802061858637" fill="#98ff23" stroke="none" /><path d="M 91.26138138417905 119.09545874513695 l -13.049670466292625 28.51588505940452 a52.36,52.36 0 0,0 -0.8141014734137518,-0.3810405959508204 l 13.537260653577865 -28.287668231883174" fill="#c9ff1d" stroke="none" /><line stroke="#e1ed5e" stroke-width="0.3" x1="58.13341422392154" x2="55.670673884152215" y1="173.97424548756322" y2="178.32567169271397" /><path d="M 57.64086615596767 174.84453072859336 a86.0,86.0 0 0,1 -31.369924170532244,-30.572349798747897" fill="none" id="id20" stroke="none" /><text fill="#e1ed5e" style="font-size:6.75px; font-family:Arial;" text-anchor="middle"><textPath startOffset="22.145653131862474" xlink:href="#id20">August</textPath></text><path d="M 89.03521579738668 117.91015095944536 l -24.355247196172122 39.782465927061885 a67.64571428571429,67.64571428571429 0 0,0 -0.9851659982006484,-0.6148164454393902 l 25.034577323162484 -39.35851368478095" fill="#34ff5f" stroke="none" /><path d="M 88.1277618465304 117.32195027204791 l -19.544773014555382 28.516407930854392 a55.57142857142857,55.57142857142857 0 0,0 -0.7822470036286071,-0.5460691608966314 l 20.031415109357756 -28.176693954152633" fill="#9dff22" stroke="none" /><path d="M 85.08716467003676 114.78537596483092 l -24.526034485523226 24.316411518758667 a55.537142857142854,55.537142857142854 0 0,0 -0.6654227699633423,-0.6827823825288873 l 24.939844056637376 -23.89180644416204" fill="#9dff22" stroke="none" /><path d="M 83.8745106332314 113.45245675266167 l -17.66563814710487 14.737303642507737 a44.00571428571429,44.00571428571429 0 0,0 -0.478935522460765,-0.5842234635754799 l 17.916020488804264 -14.431877897233763" fill="#ffba11" stroke="none" /><path d="M 83.64595745247003 113.17365903436017 l -44.86570257529175 36.140634118209334 a78.61142857142858,78.61142857142858 0 0,0 -0.837524547935801,-1.0581849065485005 l 45.479493553869105 -35.36512926774615" fill="#45ffee" stroke="none" /><path d="M 82.576782715395 111.72311816256416 l -47.55708641683611 31.998530146579885 a78.32,78.32 0 0,0 -0.7409652354156516,-1.1219158061183296 l 48.09937609117249 -31.1774344621225" fill="#44ffeb" stroke="none" /><line stroke="#e1ed5e" stroke-width="0.3" x1="26.387840678322732" x2="22.057713659400548" y1="142.50000000000003" y2="145.00000000000006" /><path d="M 25.521815274538298 143.00000000000003 a86.0,86.0 0 0,1 -11.493303480769221,-40.785679425670985" fill="none" id="id21" stroke="none" /><text fill="#e1ed5e" style="font-size:6.75px; font-family:Arial;" text-anchor="middle"><textPath startOffset="21.40746469413373" xlink:href="#id21">September</textPath></text><path d="M 81.4637452351635 109.86951160357371 l -17.915857666584827 9.539185092760231 a41.29714285714286,41.29714285714286 0 0,0 -0.32780478517497735,-0.6286088982540837 l 18.076970520734754 -9.230229951401645" fill="#ff8f0d" stroke="none" /><path d="M 80.9802524753101 108.90220220490708 l -31.28036844604782 14.640791871145137 a55.537142857142854,55.537142857142854 0 0,0 -0.3967349621969279,-0.8669374916613438 l 31.527087873099806 -14.101665397269104" fill="#9dff22" stroke="none" /><line stroke="#e1ed5e" stroke-width="0.3" x1="15.003131293944662" x2="10.003315487706104" y1="100.72959589197737" y2="100.7725132973878" /><path d="M 14.003168132696942 100.73817937305945 a86.0,86.0 0 0,1 10.791469493833615,-42.45332614584628" fill="none" id="id22" stroke="none" /><text fill="#e1ed5e" style="font-size:6.75px; font-family:Arial;" text-anchor="middle"><textPath startOffset="22.145653131862435" xlink:href="#id22">October</textPath></text><line stroke="#e1ed5e" stroke-width="0.3" x1="26.387840678322718" x2="22.05771365940052" y1="57.49999999999999" y2="54.99999999999999" /><path d="M 25.521815274538284 56.99999999999999 a86.0,86.0 0 0,1 29.574782752854787,-30.34633250058573" fill="none" id="id23" stroke="none" /><text fill="#e1ed5e" style="font-size:6.75px; font-family:Arial;" text-anchor="middle"><textPath startOffset="21.40746469413373" xlink:href="#id23">November</textPath></text><line stroke="#e1ed5e" stroke-width="0.3" x1="56.869717070023135" x2="54.33264160355391" y1="26.7553504044142" y2="22.446841604673864" /><path d="M 56.362301976729285 25.89364864446614 a86.0,86.0 0 0,1 42.16139366436587,-11.88097634709845" fill="none" id="id24" stroke="none" /><text fill="#e1ed5e" style="font-size:6.75px; font-family:Arial;" text-anchor="middle"><textPath startOffset="22.145653131862474" xlink:href="#id24">December</textPath></text></svg>