<?xml version="1.0" encoding="utf-8" ?>
<svg baseProfile="full" height="200mm" version="1.1" viewBox="0,0,200,200" width="200mm" xmlns="http://www.w3.org/2000/svg" xmlns:ev="http://www.w3.org/2001/xml-events" xmlns:xlink="http://www.w3.org/1999/xlink"><defs /><rect fill="#1a1a1a" height="200" width="200" x="0" y="0" /><text alignment-baseline="middle" fill="#e1ed5e" style="dominant-baseline: central; font-size:9.0px; font-family:Arial;" text-anchor="middle" x="100.0" y="100.0">2024</text><line stroke="#e1ed5e" stroke-width="0.3" x1="100.0" x2="100.0" y1="15.0" y2="10.0" /><path d="M 100.0 14.0 a86.0,86.0 0 0,1 42.35913384403234,11.155469271406648" fill="none" id="id73" stroke="none" /><text fill="#e1ed5e" style="font-size:6.75px; font-family:Arial;" text-anchor="middle"><textPath startOffset="22.145653131862478" xlink:href="#id73">January</textPath></text><path d="M 100.0 79.0 l 0.0 -8.958021786388287 a29.958021786388287,29.958021786388287 0 0,0 0.5142692807838489,0.004414383263078173 l -0.1537763559349941 8.956701801319642" fill="#ff2e04" stroke="none" /><path d="M 101.08105385017728 79.02784411241856 l 0.733993753845789 -14.239282736600648 a35.258187812044625,35.258187812044625 0 0,0 0.6041837151304114,0.03634619198172978 l -0.9783218211086627 14.224584566794228" fill="#ff7d0b" stroke="none" /><path d="M 101.80034050326958 79.07731436759882 l 1.0516322130640363 -12.221560396428227 a33.266722008552115,33.266722008552115 0 0,0 0.5685448120770835,0.05384178481751217 l -1.2612765885261328 12.201706856105531" fill="#ff6008" stroke="none" /><path d="M 102.15924093988457 79.11130261209362 l 2.23910154486716 -21.661276297412257 a42.77669549222426,42.77669549222426 0 0,0 0.7297787734770949,0.08177323374096337 l -2.6106162199450513 21.619647303164324" fill="#ffe715" stroke="none" /><path d="M 102.51750503828377 79.15144685158666 l 0.8916752544462366 -7.384350239918719 a28.43799120900122,28.43799120900122 0 0,0 0.4841529789567921,0.06268329620627656 l -1.0183060552938203 7.367955347512046" fill="#ff1602" stroke="none" /><path d="M 103.58742460773223 79.30868818359171 l 1.7975473114195883 -10.367775212658987 a31.52244929648121,31.52244929648121 0 0,0 0.5323770418504719,0.09701683143750044 l -1.975259086821114 10.335390207290121" fill="#ff4606" stroke="none" /><path d="M 104.29559338865022 79.4440306129975 l 1.906726897419002 -9.124378447056698 a30.32147464226846,30.32147464226846 0 0,0 0.5085887120255641,0.11084454264392243 l -2.0630780260637 9.090302446279056" fill="#ff3304" stroke="none" /><path d="M 106.72888874123014 80.10723608172694 l 2.0342909023825984 -6.014019583089382 a27.34876137693796,27.34876137693796 0 0,0 0.443433113836453,0.15424905546629175 l -2.1372297882640696 5.9782120950545" fill="#ff0500" stroke="none" /><path d="M 107.40779381753099 80.34994680014964 l 2.2509528525117455 -5.970919870573962 a27.3811184634863,27.3811184634863 0 0,0 0.4383948338749878,0.16958053953650737 l -2.353119948880259 5.931399442899417" fill="#ff0500" stroke="none" /><path d="M 109.3889696526874 81.21577127319529 l 5.9925584955089874 -11.989131246811308 a34.40335873486061,34.40335873486061 0 0,0 0.5259991414945767,0.2685789095393976 l -6.197484858717143 11.884494385599076" fill="#ff710a" stroke="none" /><path d="M 110.02825361518725 81.54914285379988 l 17.657126395078844 -32.48712380335186 a57.97549628532524,57.97549628532524 0 0,0 0.8703386737372953,0.48276219103482365 l -18.212209256972237 32.17922869688389" fill="#5cff2a" stroke="none" /><line stroke="#e1ed5e" stroke-width="0.3" x1="143.13028292997686" x2="145.6673583964461" y1="26.7553504044142" y2="22.446841604673864" /><path d="M 143.63769802327073 25.89364864446614 a86.0,86.0 0 0,1 29.32050498858742,28.57503671076993" fill="none" id="id74" stroke="none" /><text fill="#e1ed5e" style="font-size:6.75px; font-family:Arial;" text-anchor="middle"><textPath startOffset="20.669276256404974" xlink:href="#id74">February</textPath></text><path d="M 110.65571695917076 81.90426304109057 l 10.239973194722566 -17.389713156608035 a41.18066338596785,41.18066338596785 0 0,0 0.6060759102779657,0.3639311701466021 l -10.536981861557967 17.211367985925513" fill="#ffd113" stroke="none" /><path d="M 110.96478420261332 82.08984904055464 l 23.204266150670314 -37.90242488881833 a65.44132963856572,65.44132963856572 0 0,0 0.9530621934843024,0.594781296909267 l -23.85149247294433 37.498507795067525" fill="#34ff5b" stroke="none" /><path d="M 111.27062007382361 82.28071324371311 l 3.738116363798452 -5.876939808515978 a27.965051002126085,27.965051002126085 0 0,0 0.4028490344194627,0.26112187702674067 l -3.838451030474922 5.811904089785342" fill="#ff0e01" stroke="none" /><path d="M 111.5731344415666 82.4767994020092 l 4.221632615626048 -6.392089848100127 a28.66035211772294,28.66035211772294 0 0,0 0.40821036680275763,0.2746621526347374 l -4.3307392705258065 6.318678021408271" fill="#ff1902" stroke="none" /><path d="M 111.8722381534696 82.67804972795209 l 4.951421843776999 -7.224272445105191 a29.758235589211914,29.758235589211914 0 0,0 0.4188895484847017,0.2924174374441076 l -5.074706483435462 7.138210191855957" fill="#ff2a04" stroke="none" /><path d="M 112.16784306229584 82.88440491214696 l 23.354375640410435 -32.850854086826395 a61.30639497384199,61.30639497384199 0 0,0 0.8525062627559901,0.6171487908270383 l -23.914862913540393 32.44510452462629" fill="#37ff2e" stroke="none" /><path d="M 112.45986205192187 83.09580414077388 l 4.690418795052623 -6.3634539165010375 a28.905287737990015,28.905287737990015 0 0,0 0.39689301542493793,0.2978359179980868 l -4.798964799388327 6.281998971238935" fill="#ff1d03" stroke="none" /><path d="M 112.7482090630111 83.31218511350987 l 6.253888685548131 -8.1865410419063 a31.301969613721603,31.301969613721603 0 0,0 0.4242013935902621,0.32986156941497863 l -6.393500023773619 8.077978420870531" fill="#ff4206" stroke="none" /><path d="M 113.03279911837588 83.53348406188908 l 30.322016218808457 -38.31087695034532 a69.85844819760635,69.85844819760635 0 0,0 0.9339383578883329,0.7523146310873086 l -30.97520534705205 37.7847140254646" fill="#3aff92" stroke="none" /><path d="M 113.31354834802062 83.75963576809568 l 4.577178267065425 -5.583413247044005 a28.219768997396145,28.219768997396145 0 0,0 0.37199792107151264,0.31033389632238945 l -4.672350522298831 5.504017166809746" fill="#ff1202" stroke="none" /><path d="M 113.59037401385872 83.9905735841838 l 4.8647084832460425 -5.730614361128349 a28.51700269940995,28.51700269940995 0 0,0 0.3704773100979496,0.32000947669692253 l -4.962365273106852 5.646260751966706" fill="#ff1702" stroke="none" /><path d="M 113.86319453409587 84.22622945171908 l 5.0453238797046644 -5.7406524177736475 a28.64266859367908,28.64266859367908 0 0,0 0.3665374655347281,0.32776006186332407 l -5.143126372062769 5.653196826026937" fill="#ff1902" stroke="none" /><path d="M 114.13192950727249 84.46653392183569 l 30.732414508669656 -33.780307071644934 a66.66826521105563,66.66826521105563 0 0,0 0.8399256272852488,0.7774226212537086 l -31.30776990726887 33.24776670425885" fill="#36ff6a" stroke="none" /><path d="M 114.39649973595853 84.71141617570332 l 5.114573109773804 -5.431499402522256 a28.46056592054657,28.46056592054657 0 0,0 0.3528127798553478,0.33798666215346257 l -5.207058375494464 5.3429006100632135" fill="#ff1602" stroke="none" /><path d="M 114.65682725009322 84.96080404539774 l 43.97048175027964 -45.117587863806776 a84.0,84.0 0 0,0 1.02403231948015,1.0152799590853623 l -44.73850598988975 44.35612789449276" fill="#4dd2ff" stroke="none" /><path d="M 114.91283532996326 85.21462403516908 l 5.493855618380551 -5.44689986960751 a28.736353646592292,28.736353646592292 0 0,0 0.34430694591812483,0.3532892582984059 l -5.586549365449487 5.351787919241362" fill="#ff1b02" stroke="none" /><path d="M 115.16444852881244 85.47280134310134 l 5.9307842670166755 -5.681557168034224 a29.213056305391653,29.213056305391653 0 0,0 0.34380173545770065,0.3651055289748744 l -6.027441836210636 5.578910179114855" fill="#ff2203" stroke="none" /><path d="M 115.41159269507618 85.73525988315684 l 34.95386112987622 -32.35277203096661 a68.62850266357707,68.62850266357707 0 0,0 0.7928301206649109,0.8714591860055353 l -35.50408895138301 31.747975269403405" fill="#38ff83" stroke="none" /><path d="M 115.6541949942343 86.00192230759917 l 14.062355464798625 -12.574644969409803 a39.864557702873796,39.864557702873796 0 0,0 0.4517773177842058,0.5140396560200609 l -14.276143846541421 12.331393035578445" fill="#ffbf11" stroke="none" /><path d="M 115.8921839302757 86.27271002978787 l 38.090217579427694 -32.90142273933549 a71.33257686151788,71.33257686151788 0 0,0 0.7924894276589952,0.9335505530959807 l -38.6494015705938 32.242705403789955" fill="#3cffa3" stroke="none" /><path d="M 116.1254893667686 86.54754324733833 l 4.680363484060068 -3.9045256812985696 a27.09517211724517,27.09517211724517 0 0,0 0.29488989384158254,0.35971772206069075 l -4.746700197140279 3.8236056775393834" fill="#ff0100" stroke="none" /><path d="M 116.35404254752997 86.82634096563983 l 7.2416478624890095 -5.833358908665792 a30.298899930723106,30.298899930723106 0 0,0 0.32280385853023297,0.40785213008287424 l -7.340718151660801 5.70818683466824" fill="#ff3304" stroke="none" /><path d="M 116.57777611688842 87.10902102172516 l 7.501106086190312 -5.832905462656136 a30.50207233463128,30.50207233463128 0 0,0 0.3178722960490457,0.4161050393659871 l -7.600130359593664 5.703279510049267" fill="#ff3605" stroke="none" /><path d="M 116.7966241395341 87.39550010848427 l 7.741269189078892 -5.809192718927236 a30.67853132987745,30.67853132987745 0 0,0 0.31247980445691026,0.423938868229885 l -7.839851013119628 5.6754475414284755" fill="#ff3905" stroke="none" /><path d="M 117.01052211995028 87.68569379921539 l 27.928631122347596 -20.21817513796315 a55.47873318840926,55.47873318840926 0 0,0 0.5518414150354033,0.7762340592410424 l -28.27158763591296 19.735763852012607" fill="#78ff26" stroke="none" /><path d="M 117.21940702142032 87.97951657250589 l 8.494217771686635 -5.929623698834154 a31.35915888296983,31.35915888296983 0 0,0 0.3043484964375295,0.4440535518673695 l -8.59475600493949 5.782935411896736" fill="#ff4306" stroke="none" /><path d="M 117.42321728460499 88.27688183743584 l 8.624411393762694 -5.80288888097494 a31.39490217624997,31.39490217624997 0 0,0 0.297019038328354,0.4497246805806127 l -8.722754871011773 5.653984322055269" fill="#ff4406" stroke="none" /><path d="M 117.62189284568427 88.57770195909679 l 8.270010174145153 -5.360520679452573 a30.855366570316043,30.855366570316043 0 0,0 0.2842841690359093,0.4469419320698565 l -8.360812034806953 5.217765072704044" fill="#ff3b05" stroke="none" /><path d="M 117.81537515405839 88.88188828441811 l 5.18074139638664 -3.233165797322263 a27.106835718210267,27.106835718210267 0 0,0 0.24297023163865356,0.39687361345994554 l -5.235479592480696 3.1437550677377626" fill="#ff0100" stroke="none" /><line stroke="#e1ed5e" stroke-width="0.3" x1="172.87174338648825" x2="177.1583165268699" y1="56.24261187166439" y2="53.66864786411523" /><path d="M 173.72905801456457 55.72781907015455 a86.0,86.0 0 0,1 12.242430191666344,42.057860355516425" fill="none" id="id75" stroke="none" /><text fill="#e1ed5e" style="font-size:6.75px; font-family:Arial;" text-anchor="middle"><textPath startOffset="22.145653131862474" xlink:href="#id75">March</textPath></text><path d="M 118.00360718960297 89.18935116829356 l 5.191288802993306 -3.117219768355096 a27.05529012684838,27.05529012684838 0 0,0 0.23567256401271908,0.40022353663734883 l -5.244035077135793 3.027645063424191" fill="#ff0000" stroke="none" /><path d="M 118.18653347947321 89.5 l 5.387077912904564 -3.1102308831609387 a27.220461766321876,27.220461766321876 0 0,0 0.23016408563857466,0.4066778854266329 l -5.439675363564515 3.0172962276351876" fill="#ff0300" stroke="none" /><path d="M 118.36410011445183 89.81374322990088 l 34.45588357216273 -19.1120977951152 a60.40152528606578,60.40152528606578 0 0,0 0.49516206992013223,0.911042437386803 l -34.778890991698205 18.517800524253794" fill="#41ff2d" stroke="none" /><path d="M 118.53625476483649 90.13048839642627 l 5.420263742210466 -2.885985145157666 a27.140697785528296,27.140697785528296 0 0,0 0.21543501539224558,0.41312504818616885 l -5.4690068265776555 2.792513853866999" fill="#ff0100" stroke="none" /><path d="M 118.70294669586156 90.45014215332178 l 7.230910992630306 -3.692154675117699 a29.118995007286017,29.118995007286017 0 0,0 0.2234953401172075,0.4471403938274543 l -7.29322624595925 3.567482425126494" fill="#ff2103" stroke="none" /><path d="M 118.8641267826498 90.77261029715802 l 7.565974453961896 -3.7008972412475876 a29.422624877571007,29.422624877571007 0 0,0 0.21803670077213114,0.45561284602925506 l -7.628390412693939 3.570471893153229" fill="#ff2503" stroke="none" /><path d="M 119.0197475246899 91.09779779509293 l 41.351968935066985 -19.35480944492738 a66.65735410047537,66.65735410047537 0 0,0 0.4761732688918641,1.0405245281215727 l -41.6781266688139 18.642095934591122" fill="#36ff6a" stroke="none" /><path d="M 119.16976305983485 91.42560881287824 l 7.597886429068817 -3.3984379585086506 a29.323296146771455,29.323296146771455 0 0,0 0.20158525862743462,0.46126652173687116 l -7.655105569713222 3.26750936699593" fill="#ff2403" stroke="none" /><path d="M 119.31412917781788 91.75594674310238 l 7.834008452795303 -3.3438723695606583 a29.51781491125391,29.51781491125391 0 0,0 0.19492181209269235,0.46774139022832356 l -7.890256109424478 3.208898469891057" fill="#ff2703" stroke="none" /><path d="M 119.4528033332814 92.08871423366111 l 7.8693446130436575 -3.2003939463611557 a29.49524019970856,29.49524019970856 0 0,0 0.18672077687341376,0.4706583327601855 l -7.923124064883195 3.064834596387405" fill="#ff2603" stroke="none" /><path d="M 119.58574465831526 92.42381321644754 l 7.780305007599545 -3.0095891169273 a29.342108406392583,29.342108406392583 0 0,0 0.1776864695944523,0.4713344710218034 l -7.830822161008438 2.8755863657113387" fill="#ff2403" stroke="none" /><path d="M 119.71291397450082 92.76114493625339 l 36.29366390435632 -13.327536105306827 a59.663332218532766,59.663332218532766 0 0,0 0.3447967548882314,0.9644578892392418 l -36.517100829288495 12.702543259686669" fill="#49ff2c" stroke="none" /><path d="M 119.83427380445688 93.10060997987247 l 9.783403265160336 -3.403175509020286 a31.358406392584982,31.358406392584982 0 0,0 0.17249300450485283,0.5099449178203104 l -9.840381691237553 3.234728916725814" fill="#ff4306" stroke="none" /><path d="M 119.94978838288452 93.4421083053983 l 14.908012057674156 -4.900559674102539 a36.69281073075177,36.69281073075177 0 0,0 0.1915631777808228,0.6000689259924346 l -14.989939951232236 4.643921714418717" fill="#ff920d" stroke="none" /><path d="M 120.05942366710727 93.78553927170692 l 22.80135582886134 -7.063918320975832 a44.8704999880557,44.8704999880557 0 0,0 0.22162539914468252,0.7377188739980249 l -22.91925754800965 6.671461843387084" fill="#fbff18" stroke="none" /><path d="M 120.16314734710363 94.1308016681162 l 11.767054033656745 -3.4252179343144746 a33.255434652779435,33.255434652779435 0 0,0 0.1548460260506653,0.5494939196036007 l -11.824118551781993 3.222716090807861" fill="#ff6008" stroke="none" /><path d="M 120.7213421655516 96.59031103205396 l 7.772916454220286 -1.279030444600337 a28.877445593750743,28.877445593750743 0 0,0 0.07628940916189142,0.4898327331488497 l -7.793727355520442 1.1454095295200462" fill="#ff1d02" stroke="none" /><path d="M 120.77682067341334 96.94652285012252 l 18.86434165332711 -2.772408593756862 a40.066977616397125,40.066977616397125 0 0,0 0.09416785954422657,0.6813517219952799 l -18.909154029426546 2.448168563561496" fill="#ffc212" stroke="none" /><path d="M 120.93736805541906 98.37931529534042 l 7.896340225387076 -0.6112266733908188 a28.919961300494492,28.919961300494492 0 0,0 0.034065013611134176,0.4952978216630961 l -7.905669200163276 0.47558542757338856" fill="#ff1d03" stroke="none" /><line stroke="#e1ed5e" stroke-width="0.3" x1="184.99686870605535" x2="189.99668451229388" y1="99.2704041080226" y2="99.22748670261217" /><path d="M 185.99683186730306 99.26182062694052 a86.0,86.0 0 0,1 -10.086455211305974,41.156179273409016" fill="none" id="id76" stroke="none" /><text fill="#e1ed5e" style="font-size:6.75px; font-family:Arial;" text-anchor="middle"><textPath startOffset="21.40746469413373" xlink:href="#id76">April</textPath></text><path d="M 120.99922638620191 99.81974689727618 l 7.831631407309526 -0.06722513651667195 a28.831919925467616,28.831919925467616 0 0,0 0.0,0.49495647848099666 l -7.831631407309526 -0.06722513651667099" fill="#ff1c02" stroke="none" /><path d="M 120.93736805541906 101.62068470465957 l 48.33723099395262 3.741607384946338 a69.4818267599914,69.4818267599914 0 0,0 -0.1022586454045002,1.1884004648609399 l -48.26587872585038 -4.570828897182936" fill="#39ff8d" stroke="none" /><path d="M 120.592083275326 104.11899336999214 l 6.332430854572792 1.2666635209839407 a27.4578724827405,27.4578724827405 0 0,0 -0.09641935108428452,0.46140149913629436 l -6.309753792664143 -1.3751814714056443" fill="#ff0601" stroke="none" /><line stroke="#e1ed5e" stroke-width="0.3" x1="174.33088141563837" x2="178.70328620479359" y1="141.23008692659167" y2="143.65538615756765" /><path d="M 175.20536237346943 141.71514677278685 a86.0,86.0 0 0,1 -30.301960400862466,31.631185727798858" fill="none" id="id77" stroke="none" /><text fill="#e1ed5e" style="font-size:6.75px; font-family:Arial;" text-anchor="middle"><textPath startOffset="22.145653131862474" xlink:href="#id77">May</textPath></text><line stroke="#e1ed5e" stroke-width="0.3" x1="143.1302829299769" x2="145.66735839644613" y1="173.24464959558577" y2="177.55315839532614" /><path d="M 143.63769802327073 174.10635135553383 a86.0,86.0 0 0,1 -40.68552437913181,11.842963189579606" fill="none" id="id78" stroke="none" /><text fill="#e1ed5e" style="font-size:6.75px; font-family:Arial;" text-anchor="middle"><textPath startOffset="21.407464694133747" xlink:href="#id78">June</textPath></text><line stroke="#e1ed5e" stroke-width="0.3" x1="101.45913802915013" x2="101.54496967792366" y1="184.9874750549273" y2="189.98673829345242" /><path d="M 101.47630435890484 185.9873277026323 a86.0,86.0 0 0,1 -42.54439059252881,-10.42667462771756" fill="none" id="id79" stroke="none" /><text fill="#e1ed5e" style="font-size:6.75px; font-family:Arial;" text-anchor="middle"><textPath startOffset="22.145653131862474" xlink:href="#id79">July</textPath></text><line stroke="#e1ed5e" stroke-width="0.3" x1="58.13341422392154" x2="55.67067388415222" y1="173.97424548756322" y2="178.32567169271397" /><path d="M 57.64086615596768 174.84453072859336 a86.0,86.0 0 0,1 -31.369924170532247,-30.572349798747897" fill="none" id="id80" stroke="none" /><text fill="#e1ed5e" style="font-size:6.75px; font-family:Arial;" text-anchor="middle"><textPath startOffset="22.145653131862474" xlink:href="#id80">August</textPath></text><line stroke="#e1ed5e" stroke-width="0.3" x1="26.387840678322732" x2="22.057713659400548" y1="142.50000000000003" y2="145.00000000000006" /><path d="M 25.521815274538298 143.00000000000003 a86.0,86.0 0 0,1 -11.493303480769221,-40.785679425670985" fill="none" id="id81" stroke="none" /><text fill="#e1ed5e" style="font-size:6.75px; font-family:Arial;" text-anchor="middle"><textPath startOffset="21.40746469413373" xlink:href="#id81">September</textPath></text><line stroke="#e1ed5e" stroke-width="0.3" x1="15.003131293944662" x2="10.003315487706104" y1="100.72959589197737" y2="100.7725132973878" /><path d="M 14.003168132696942 100.73817937305945 a86.0,86.0 0 0,1 10.791469493833604,-42.45332614584628" fill="none" id="id82" stroke="none" /><text fill="#e1ed5e" style="font-size:6.75px; font-family:Arial;" text-anchor="middle"><textPath startOffset="22.145653131862435" xlink:href="#id82">October</textPath></text><line stroke="#e1ed5e" stroke-width="0.3" x1="26.387840678322718" x2="22.05771365940052" y1="57.49999999999999" y2="54.99999999999999" /><path d="M 25.521815274538284 56.99999999999999 a86.0,86.0 0 0,1 29.574782752854787,-30.34633250058573" fill="none" id="id83" stroke="none" /><text fill="#e1ed5e" style="font-size:6.75px; font-family:Arial;" text-anchor="middle"><textPath startOffset="21.40746469413373" xlink:href="#id83">November</textPath></text><line stroke="#e1ed5e" stroke-width="0.3" x1="56.869717070023135" x2="54.33264160355391" y1="26.7553504044142" y2="22.446841604673864" /><path d="M 56.362301976729285 25.89364864446614 a86.0,86.0 0 0,1 42.16139366436587,-11.88097634709845" fill="none" id="id84" stroke="none" /><text fill="#e1ed5e" style="font-size:6.75px; font-family:Arial;" text-anchor="middle"><textPath startOffset="22.145653131862474" xlink:href="#id84">December</textPath></text></svg>