<?xml version="1.0" encoding="utf-8" ?>
<svg baseProfile="full" height="200mm" version="1.1" viewBox="0,0,200,200" width="200mm" xmlns="http://www.w3.org/2000/svg" xmlns:ev="http://www.w3.org/2001/xml-events" xmlns:xlink="http://www.w3.org/1999/xlink"><defs /><rect fill="#1a1a1a" height="200" width="200" x="0" y="0" /><text alignment-baseline="middle" fill="#e1ed5e" style="dominant-baseline: central; font-size:9.0px; font-family:Arial;" text-anchor="middle" x="100.0" y="100.0">2023</text><line stroke="#e1ed5e" stroke-width="0.3" x1="100.0" x2="100.0" y1="15.0" y2="10.0" /><path d="M 100.0 14.0 a86.0,86.0 0 0,1 42.46469731375804,11.215312516191453" fill="none" id="id85" stroke="none" /><text fill="#e1ed5e" style="font-size:6.75px; font-family:Arial;" text-anchor="middle"><textPath startOffset="22.20632615414155" xlink:href="#id85">January</textPath></text><line stroke="#e1ed5e" stroke-width="0.3" x1="143.23703022742887" x2="145.7803849466894" y1="26.81831364943548" y2="22.513508569990506" /><path d="M 143.74570117128098 25.957352633546492 a86.0,86.0 0 0,1 28.547481713284135,27.462654790039103" fill="none" id="id86" stroke="none" /><text fill="#e1ed5e" style="font-size:6.75px; font-family:Arial;" text-anchor="middle"><textPath startOffset="19.985693538727396" xlink:href="#id86">February</textPath></text><path d="M 114.94478906791727 85.2469230424477 l 4.2344152760984235 -4.180096096011419 a26.95008202484181,26.95008202484181 0 0,0 0.3230618448469123,0.3329436290526304 l -4.305741384648445 4.1065882714086746" fill="#ff3f05" stroke="none" /><path d="M 115.9244219780498 86.31012108654704 l 3.403579293175868 -2.9259830253267176 a25.488399343801266,25.488399343801266 0 0,0 0.28315109743384576,0.33516158890809866 l -3.453441004096831 2.8669624867895123" fill="#ff2a04" stroke="none" /><path d="M 116.15771136456269 86.58626213691792 l 4.565585327455645 -3.7902375771075816 a26.93384110616358,26.93384110616358 0 0,0 0.29306777652060867,0.3592664412903055 l -4.630151596052663 3.711086966209173" fill="#ff3f05" stroke="none" /><path d="M 116.38621287248628 86.86637796730983 l 5.990741054857887 -4.801605430278104 a28.67752519334427,28.67752519334427 0 0,0 0.30541007086453514,0.38783977511967316 l -6.072505206316386 4.697773261205393" fill="#ff5808" stroke="none" /><path d="M 116.60985879189232 87.15038557335679 l 4.706191534895199 -3.640774277434179 a26.95008202484181,26.95008202484181 0 0,0 0.2806967310365021,0.3693639951430684 l -4.768164206155815 3.5592255064100793" fill="#ff3f05" stroke="none" /><path d="M 117.04232023915458 87.72973835380427 l 12.017891164662792 -8.652734308273489 a35.808764940239044,35.808764940239044 0 0,0 0.3558493973065224,0.503323736486026 l -12.1650531817732 8.44458407145567" fill="#ffb811" stroke="none" /><path d="M 117.2510076193507 88.02491185347247 l 6.076462257296482 -4.218082372681246 a28.39700023435669,28.39700023435669 0 0,0 0.27528259505306346,0.4039432401522775 l -6.148169318018277 4.1128611092585645" fill="#ff5407" stroke="none" /><path d="M 117.45458315368197 88.32363383020206 l 4.932034428965161 -3.299319121379276 a26.93384110616358,26.93384110616358 0 0,0 0.25446498562847064,0.38756763095134367 l -4.988096049951556 3.2139334264502586" fill="#ff3f05" stroke="none" /><path d="M 117.65298651832404 88.62581576622439 l 5.001748465116888 -3.2227299598393984 a26.95008202484181,26.95008202484181 0 0,0 0.24790533933844544,0.3921267122374049 l -5.05648140070129 3.136155599887787" fill="#ff3f05" stroke="none" /><line stroke="#e1ed5e" stroke-width="0.3" x1="172.23445277983987" x2="176.4835382374775" y1="55.19839476539836" y2="52.563006222186495" /><path d="M 173.08426987136738 54.67131705675599 a86.0,86.0 0 0,1 12.851231095245387,41.99856678651699" fill="none" id="id87" stroke="none" /><text fill="#e1ed5e" style="font-size:6.75px; font-family:Arial;" text-anchor="middle"><textPath startOffset="22.20632615414155" xlink:href="#id87">March</textPath></text><path d="M 117.84615892207809 88.93136811851018 l 5.069028500951169 -3.1439376237088488 a26.96484649636747,26.96484649636747 0 0,0 0.24125088849069112,0.3965530280286854 l -5.122395187728084 3.056216822473082" fill="#ff3f05" stroke="none" /><path d="M 118.03404312379186 89.2402003453031 l 6.479069160715472 -3.8656603868409523 a28.54464494961331,28.54464494961331 0 0,0 0.24812137053482577,0.42411985196798696 l -6.544650205720625 3.753561122519069" fill="#ff5607" stroke="none" /><path d="M 118.21658344932153 89.55222093294921 l 5.123013859663893 -2.9382083150834193 a26.90578861026482,26.90578861026482 0 0,0 0.22695975510997626,0.4037360794906229 l -5.172831256066303 2.8495887256580037" fill="#ff3f05" stroke="none" /><path d="M 118.3937258080291 89.86733742301442 l 3.892555520189893 -2.144315516057648 a25.44410592922428,25.44410592922428 0 0,0 0.20802604336548788,0.3854406646756945 l -3.928889662773846 2.076993868049495" fill="#ff2a04" stroke="none" /><path d="M 118.56541770881063 90.18545643968196 l 4.829532143609046 -2.5531153859744617 a26.46285446449496,26.46285446449496 0 0,0 0.20942270398360777,0.40453800618845226 l -4.8727642807527705 2.469604657525665" fill="#ff3805" stroke="none" /><path d="M 118.73160827565052 90.50648371742162 l 4.1616040884266905 -2.1091758696705676 a25.66557300210921,25.66557300210921 0 0,0 0.19632939593343723,0.3957880820196804 l -4.197293497313535 2.0372281991519374" fill="#ff2d04" stroke="none" /><path d="M 118.89224826269711 90.83032412892265 l 4.157445774237776 -2.0178874251093566 a25.621279587532225,25.621279587532225 0 0,0 0.18916045063506381,0.39842015096680267 l -4.191564418714596 1.9460248585020137" fill="#ff2c04" stroke="none" /><path d="M 119.04729006885535 91.15688171328212 l 5.4356421647164685 -2.5236149842363176 a26.99289899226623,26.99289899226623 0 0,0 0.19203221751842767,0.4231175364668241 l -5.478276699198243 2.4296754389274304" fill="#ff4006" stroke="none" /><path d="M 119.196687751892 91.48605970444005 l 6.883274492710281 -3.05280727729241 a28.529880478087648,28.529880478087648 0 0,0 0.19523851770376838,0.45063741711541216 l -6.934803720256729 2.9338707155903947" fill="#ff5507" stroke="none" /><path d="M 119.34039704204932 91.81776055985345 l 5.452659395731274 -2.3068277587289194 a26.920553081790487,26.920553081790487 0 0,0 0.17687869058647768,0.4283257791470429 l -5.491559773203949 2.2126274091285736" fill="#ff3f05" stroke="none" /><path d="M 119.47837535516314 92.15188598940014 l 20.706330117417373 -8.342874420454866 a43.323880946801026,43.323880946801026 0 0,0 0.2727474526344952,0.6941125169679891 l -20.84687111993357 7.985212898591092" fill="#e8ff1a" stroke="none" /><path d="M 119.61058180528143 92.48833698450437 l 4.412036215858958 -1.6899921478499673 a25.72463088821186,25.72463088821186 0 0,0 0.15483215746473045,0.41487320429990043 l -4.440472961825314 1.6137958065207336" fill="#ff2e04" stroke="none" /><path d="M 119.7369772167798 92.82701384747503 l 6.979868436869164 -2.5366852833747773 a28.426529177408014,28.426529177408014 0 0,0 0.16317764360031403,0.4613251721958927 l -7.022499161279287 2.4161624847522702" fill="#ff5407" stroke="none" /><path d="M 119.85752413597 93.16781622104841 l 7.036460392216224 -2.4209659886980996 a28.441293648933677,28.441293648933677 0 0,0 0.15529312849611923,0.4643066881209157 l -7.077090814484114 2.29948619765487" fill="#ff5407" stroke="none" /><path d="M 119.97218684219823 93.5106431181261 l 2.8364530645353 -0.9216194681077059 a23.982423248183736,23.982423248183736 0 0,0 0.12418842924713647,0.39371125826202474 l -2.851896977550642 0.872658043419262" fill="#ff1502" stroke="none" /><path d="M 120.08093135843002 93.85539295169968 l 5.703793955101284 -1.745316086838524 a26.96484649636747,26.96484649636747 0 0,0 0.13199177167213105,0.4450106374538933 l -5.732991623885118 1.646876062638101" fill="#ff3f05" stroke="none" /><path d="M 120.18372546131832 94.20196356495316 l 9.309016102150094 -2.674135388838105 a30.68549332083431,30.68549332083431 0 0,0 0.14146484310258406,0.5089243082218972 l -9.353667715819041 2.513499777197256" fill="#ff730a" stroke="none" /><path d="M 120.28053869075195 94.5502522615342 l 32.08193957407445 -8.620997711423513 a54.22006093273963,54.22006093273963 0 0,0 0.23444668661468837,0.9034187203487966 l -32.22558259255944 8.067482565525866" fill="#6eff28" stroke="none" /><path d="M 120.45610955862082 95.25157060432595 l 5.7959776087116435 -1.3454068758776496 a26.95008202484181,26.95008202484181 0 0,0 0.10100584410050203,0.45278939384682393 l -5.818277839814183 1.2454393124808618" fill="#ff3f05" stroke="none" /><path d="M 120.53481517161879 95.60439243477599 l 5.847152667803336 -1.2516201527413129 a26.979610967893134,26.979610967893134 0 0,0 0.09329896878227958,0.4549589062367424 l -5.867830932500612 1.1507855903411592" fill="#ff4006" stroke="none" /><path d="M 120.67395015179393 96.31383870115 l 12.00610463467199 -2.1406861257441485 a33.19545348019686,33.19545348019686 0 0,0 0.09545769722195822,0.5633967325544124 l -12.041174193414172 1.933703604873899" fill="#ff950d" stroke="none" /><path d="M 120.78858239683441 97.02765380044208 l 44.00826453963094 -6.292290419640642 a65.45582376376845,65.45582376376845 0 0,0 0.14987513769176905,1.1167438599812438 l -44.11005567638055 5.533828217594734" fill="#36ff6c" stroke="none" /><path d="M 120.83666639777658 97.38593545837742 l 5.8876889326925745 -0.7386401729164144 a26.93384110616358,26.93384110616358 0 0,0 0.05375179871508295,0.46051258572054804 l -5.8995310844112465 0.6371838488710136" fill="#ff3f05" stroke="none" /><path d="M 120.87857604477298 97.74499172005257 l 11.170796604222339 -1.2065113435950268 a32.23576283102882,32.23576283102882 0 0,0 0.05483590972144414,0.5521901274633116 l -11.189909639626011 1.0140456854272801" fill="#ff880c" stroke="none" /><path d="M 120.96714384426684 98.82574320788733 l 6.029220880458266 -0.33766418652970326 a27.03866885399578,27.03866885399578 0 0,0 0.022025431536248034,0.4649220483274524 l -6.03413992022801 0.23383103157925117" fill="#ff4006" stroke="none" /><path d="M 120.98425023603335 99.18683210126433 l 9.02907978283507 -0.34988897634841515 a30.035856573705182,30.035856573705182 0 0,0 0.015573313507663038,0.5168024584638459 l -9.03376479079838 0.1944163704595701" fill="#ff6a09" stroke="none" /><line stroke="#e1ed5e" stroke-width="0.3" x1="184.98032266829074" x2="189.97916517819016" y1="98.17113171792111" y2="98.06355123074" /><path d="M 185.9800911702706 98.14961562048488 a86.0,86.0 0 0,1 -9.607161424134198,41.387399972396054" fill="none" id="id88" stroke="none" /><text fill="#e1ed5e" style="font-size:6.75px; font-family:Arial;" text-anchor="middle"><textPath startOffset="21.466115282336823" xlink:href="#id88">April</textPath></text><path d="M 120.99980553446 99.90962569577887 l 9.153887577711643 -0.0393944705533869 a30.153972345910475,30.153972345910475 0 0,0 -0.00223383888146591,0.5190654855978495 l -9.153209441540675 -0.11818049324814729" fill="#ff6c09" stroke="none" /><path d="M 120.92983693683757 101.71520430193887 l 7.445861839728014 0.6101898594664181 a28.470822591985,28.470822591985 0 0,0 -0.04423200387558453,0.488096476973639 l -7.4342552395753545 -0.738267724988628" fill="#ff5507" stroke="none" /><path d="M 120.8583938346157 102.4346265915055 l 62.575181503847105 7.303879774516527 a84.0,84.0 0 0,0 -0.1799939630126075,1.434728982850419 l -62.44018603158764 -8.379926511654341" fill="#4dd2ff" stroke="none" /><path d="M 120.49622156327973 104.57218783832717 l 5.778522273406499 1.2890419427015665 a26.920553081790487,26.920553081790487 0 0,0 -0.10478432255914602,0.45140811912429185 l -5.7554773849168 -1.3883187191744226" fill="#ff3f05" stroke="none" /><path d="M 120.41448212921028 104.9243191809786 l 7.219464151154985 1.7414571464955966 a28.426529177408014,28.426529177408014 0 0,0 -0.11883464931608353,0.4746853526226008 l -7.18841818754384 -1.865470338515594" fill="#ff5407" stroke="none" /><path d="M 120.23288151984713 105.62410040840565 l 7.269043208325671 2.0205638448759955 a28.54464494961331,28.54464494961331 0 0,0 -0.13566503540206784,0.472267785815192 l -7.233185536037504 -2.1453891061957697" fill="#ff5607" stroke="none" /><path d="M 120.02730092923936 106.31721596034902 l 7.096620343334874 2.2384885240327432 a28.441293648933677,28.441293648933677 0 0,0 -0.15129109008134725,0.465626097264664 l -7.057037002237279 -2.3603135212752027" fill="#ff5407" stroke="none" /><path d="M 119.79798401119884 107.00284435728193 l 13.947208797202645 4.933337271616934 a35.79400046871338,35.79400046871338 0 0,0 -0.2104614599739831,0.579099548248047 l -13.860223076223434 -5.172684616871111" fill="#ffb711" stroke="none" /><path d="M 119.26925614724726 108.34839909993367 l 6.787366297003197 2.940624290414883 a28.39700023435669,28.39700023435669 0 0,0 -0.19818255005871932,0.44684933171717645 l -6.735742662213204 -3.057021958624747" fill="#ff5407" stroke="none" /><line stroke="#e1ed5e" stroke-width="0.3" x1="174.80103733775053" x2="179.2010983576182" y1="140.37084112569926" y2="142.7455964860345" /><path d="M 175.68104954172406 140.8457921977663 a86.0,86.0 0 0,1 -30.038265399797805,32.042727171017184" fill="none" id="id89" stroke="none" /><text fill="#e1ed5e" style="font-size:6.75px; font-family:Arial;" text-anchor="middle"><textPath startOffset="22.206326154141568" xlink:href="#id89">May</textPath></text><path d="M 117.75023020441432 111.22182372390056 l 6.302226097887909 3.984312852521522 a28.45605812045934,28.45605812045934 0 0,0 -0.26531227559266346,0.41177054353272685 l -6.232708958918195 -4.092204995975704" fill="#ff5407" stroke="none" /><path d="M 117.35343817320211 111.8261652097733 l 6.1369435676967345 4.182255285106138 a28.426529177408014,28.426529177408014 0 0,0 -0.27903899700761375,0.40197648690128623 l -6.0640436635269825 -4.287273034194442" fill="#ff5407" stroke="none" /><path d="M 116.93607887273984 112.41649034213513 l 8.370796893041556 6.136952925137802 a31.379423482540425,31.379423482540425 0 0,0 -0.3231165136048999,0.432867372919758 l -8.263919112741567 -6.280133177566875" fill="#ff7d0b" stroke="none" /><path d="M 116.71984013943494 112.70617746262582 l 9.686300638547728 7.361066484089767 a33.165924537145536,33.165924537145536 0 0,0 -0.34933697182269435,0.4515651271785343 l -9.558156849506965 -7.526709605381551" fill="#ff950d" stroke="none" /><path d="M 116.27256486870786 113.27417163493432 l 4.027145184287672 3.285100831143812 a26.197093977033045,26.197093977033045 0 0,0 -0.28804827573627106,0.34697270409735465 l -3.970000908657858 -3.3539347923549347" fill="#ff3505" stroke="none" /><path d="M 116.0416608686014 113.55231037782055 l 13.601764476822094 11.491037953352418 a38.805952659948446,38.805952659948446 0 0,0 -0.4354720675027868,0.5065523958545427 l -13.401949899748525 -11.723467448368492" fill="#ffde14" stroke="none" /><path d="M 115.32070863581623 114.36230785411682 l 5.568881906292707 5.220515463261117 a28.633231778767282,28.633231778767282 0 0,0 -0.34018113055476873,0.35667855536043436 l -5.478194224358976 -5.315601135204059" fill="#ff5708" stroke="none" /><path d="M 114.81725581225074 114.88116024355365 l 5.281707544043444 5.304486695674972 a28.485587063510664,28.485587063510664 0 0,0 -0.3504406083076876,0.3429798931999422 l -5.1896169833599615 -5.394616691797486" fill="#ff5507" stroke="none" /><path d="M 113.48314897796784 116.09983520530334 l 4.7492788642806785 5.670975466034899 a28.39700023435669,28.39700023435669 0 0,0 -0.3774500488158266,0.3106156935069324 l -4.650958686920161 -5.7518862783990095" fill="#ff5407" stroke="none" /><path d="M 113.20401910651253 116.32954008644616 l 4.6880920896101435 5.797809522138723 a28.45605812045934,28.45605812045934 0 0,0 -0.3835368589426473,0.3047048767804925 l -4.587597737950145 -5.877648312924342" fill="#ff5407" stroke="none" /><path d="M 111.45004920935366 117.60387380957326 l 1.6583385074714254 2.5496119086750135 a24.041481134286386,24.041481134286386 0 0,0 -0.3488512765410698,0.22265339001539577 l -1.614205428883425 -2.5777797275142182" fill="#ff1502" stroke="none" /><line stroke="#e1ed5e" stroke-width="0.3" x1="143.8653032363475" x2="146.44561519142675" y1="172.8068346515853" y2="177.08958963109032" /><path d="M 144.38136562736335 173.6633856474863 a86.0,86.0 0 0,1 -40.68145358897372,12.25698825130547" fill="none" id="id90" stroke="none" /><text fill="#e1ed5e" style="font-size:6.75px; font-family:Arial;" text-anchor="middle"><textPath startOffset="21.466115282336833" xlink:href="#id90">June</textPath></text><path d="M 108.92500713936063 119.00905698771935 l 2.528786883404499 5.385973728182022 a26.95008202484181,26.95008202484181 0 0,0 -0.42161735532636774,0.19354384880492653 l -2.4357015323107123 -5.4287046473210205" fill="#ff3f05" stroke="none" /><path d="M 108.59647513512805 119.15986991738528 l 0.8824129620778259 1.9667267456795754 a23.15561284274666,23.15561284274666 0 0,0 -0.365064032279183,0.16003334350822132 l -0.8484282551408904 -1.9816246424822535" fill="#ff0801" stroke="none" /><path d="M 106.57524785965236 119.94407469862006 l 2.089532715652357 6.337981085382894 a27.67354112959925,27.67354112959925 0 0,0 -0.45368616746042706,0.1452559838838692 l -1.9801252031009897 -6.3730099159264695" fill="#ff4906" stroke="none" /><path d="M 106.2309692047433 120.05430185196036 l 2.20354640964557 7.092088468387198 a28.426529177408014,28.426529177408014 0 0,0 -0.46853014943359267,0.14116429061291985 l -2.0811412857717313 -7.128968128105844" fill="#ff5407" stroke="none" /><path d="M 102.70371172650421 120.8252237178851 l 0.6957289607925053 5.358822508141043 a26.403796578392313,26.403796578392313 0 0,0 -0.4512189771102284,0.05463633428368697 l -0.6033825606308967 -5.370004371150081" fill="#ff3705" stroke="none" /><path d="M 102.34483914955558 120.86867818915974 l 0.6940548033486543 6.176972241131651 a27.215842512303727,27.215842512303727 0 0,0 -0.46599665825428105,0.04830245897343708 l -0.5876255484887706 -6.188004068560846" fill="#ff4306" stroke="none" /><path d="M 101.98527174616119 120.90594882070398 l 0.7746607586965979 8.157582560691852 a29.194281696742443,29.194281696742443 0 0,0 -0.500689830596947,0.043201625376838214 l -0.6341266103581089 -8.169708438347353" fill="#ff5f08" stroke="none" /><path d="M 100.90346689309514 120.98055641714683 l 0.38175552103364 8.865231595996189 a29.873447386922898,29.873447386922898 0 0,0 -0.5139365983911086,0.017701015597283976 l -0.22909857096787906 -8.870489410019568" fill="#ff6809" stroke="none" /><line stroke="#e1ed5e" stroke-width="0.3" x1="102.19456741930631" x2="102.32365962044197" y1="184.97166512339345" y2="189.96999836594603" /><path d="M 102.22038585953345 185.97133177190398 a86.0,86.0 0 0,1 -42.740103519485714,-10.115201625700543" fill="none" id="id91" stroke="none" /><text fill="#e1ed5e" style="font-size:6.75px; font-family:Arial;" text-anchor="middle"><textPath startOffset="22.20632615414155" xlink:href="#id91">July</textPath></text><path d="M 99.81925306533755 120.99922214144158 l -0.06379303576321703 7.411490167567617 a28.411764705882355,28.411764705882355 0 0,0 -0.4890074783805081,-0.008418707210548696 l 0.1913602040363931 -7.409293983077909" fill="#ff5407" stroke="none" /><path d="M 99.09653310690486 120.98055641714683 l -0.38366112263613505 8.909483999969545 a29.917740801499882,29.917740801499882 0 0,0 -0.5143172093073355,-0.026584324980683076 l 0.5369664003569595 -8.901559868226661" fill="#ff6909" stroke="none" /><path d="M 98.37488393609728 120.93702456842531 l -0.7438133753930182 9.582847195250677 a30.611670963206,30.611670963206 0 0,0 -0.5249984400392806,-0.04529907448481687 l 0.9086561331738405 -9.568623868487197" fill="#ff720a" stroke="none" /><path d="M 97.65516085044442 120.86867818915974 l -1.5183479189646296 13.513043786418645 a34.59807827513475,34.59807827513475 0 0,0 -0.5912524527651125,-0.071592438026904 l 1.750727794781131 -13.484905819666393" fill="#ffa80f" stroke="none" /><path d="M 97.2962882734958 120.8252237178851 l -1.1443410775876666 8.814238114483352 a29.888211858448557,29.888211858448557 0 0,0 -0.5096244822410074,-0.07062930952974229 l 1.2958941510155044 -8.793234239461006" fill="#ff6809" stroke="none" /><path d="M 96.93821686468263 120.77559828337769 l -1.506853663971517 10.22469097611745 a31.33513006796344,31.33513006796344 0 0,0 -0.5329421271161396,-0.08323459974712388 l 1.6826316546961744 -10.19723806902322" fill="#ff7c0b" stroke="none" /><path d="M 96.22490169976321 120.6578951692458 l -1.1943713862947445 6.535776535852317 a27.644012186547926,27.644012186547926 0 0,0 -0.4673580756856782,-0.08957028752675288 l 1.3066970765521178 -6.514249049977096" fill="#ff4906" stroke="none" /><path d="M 95.86986931433489 120.58985236759428 l -1.4576931831759186 7.267006717974452 a28.411764705882355,28.411764705882355 0 0,0 -0.4786821404190642,-0.10031249666409135 l 1.58256678502437 -7.24083824058382" fill="#ff5407" stroke="none" /><path d="M 95.51606077576429 120.51570834832081 l -4.277974357127628 19.573341618470597 a41.03538786032341,41.03538786032341 0 0,0 -0.6887689229815599,-0.15676156443150877 l 4.61426342950205 -19.4968033204614" fill="#fffa17" stroke="none" /><path d="M 94.81253420990036 120.34920634021253 l -1.8272231269087786 7.167765907977368 a28.39700023435669,28.39700023435669 0 0,0 -0.4726201417805742,-0.12482327502187342 l 1.9503337115008417 -7.135251283651913" fill="#ff5407" stroke="none" /><path d="M 94.11515582081647 120.15858648285463 l -4.1457327402450685 14.201244660759555 a35.79400046871338,35.79400046871338 0 0,0 -0.5899618727199653,-0.17775067271948858 l 4.38956958740528 -14.12777861893434" fill="#ffb711" stroke="none" /><path d="M 93.76903079525671 120.05430185196036 l -2.190403985731179 7.049789730007158 a28.38223576283103,28.38223576283103 0 0,0 -0.4653046643685369,-0.14897585969380647 l 2.311429995190656 -7.011041023653646" fill="#ff5307" stroke="none" /><path d="M 92.7421414339146 119.70592522655815 l -8.684936920185622 23.580607969722504 a46.129130536676826,46.129130536676826 0 0,0 -0.7427444154707917,-0.280842383817794 l 9.089551556416698 -23.427617335798075" fill="#c7ff1e" stroke="none" /><path d="M 91.40352486487194 119.15986991738527 l -1.4324100822770194 3.192563278945611 a24.499179751581906,24.499179751581906 0 0,0 -0.3832745059924504,-0.1759425272737234 l 1.4871525840368893 -3.1674336813378132" fill="#ff1c02" stroke="none" /><path d="M 91.07499286063937 119.00905698771935 l -3.451197979832445 7.35058449255611 a29.12045933911413,29.12045933911413 0 0,0 -0.4519042286014923,-0.21694149190346598 l 3.577214876434179 -7.290088724153081" fill="#ff5e08" stroke="none" /><path d="M 90.7491055286396 118.85261126421891 l -4.5593229606915635 9.291549446602383 a31.349894539489103,31.349894539489103 0 0,0 -0.482409329285405,-0.24189005235709998 l 4.718586197659728 -9.211691553335982" fill="#ff7c0b" stroke="none" /><line stroke="#e1ed5e" stroke-width="0.3" x1="58.666819895761336" x2="56.23545636021788" y1="174.27360380694188" y2="178.64263932499728" /><path d="M 58.180547188652646 175.14741091055294 a86.0,86.0 0 0,1 -31.652253787137756,-30.449443065178592" fill="none" id="id92" stroke="none" /><text fill="#e1ed5e" style="font-size:6.75px; font-family:Arial;" text-anchor="middle"><textPath startOffset="22.20632615414155" xlink:href="#id92">August</textPath></text><path d="M 89.4739219176387 118.17145234162733 l -5.187799907946048 8.955838826914055 a31.349894539489103,31.349894539489103 0 0,0 -0.46462354383623294,-0.2745077793505544 l 5.341191322810663 -8.865212475269752" fill="#ff7c0b" stroke="none" /><path d="M 89.1626897886671 117.98757091392108 l -7.627007866096253 12.659169312047105 a35.77923599718772,35.77923599718772 0 0,0 -0.5247975665554524,-0.32237352851129386 l 7.843784632584014 -12.526007316707432" fill="#ffb711" stroke="none" /><path d="M 88.8546689885994 117.79835938074946 l -5.093366644535074 8.133770984874955 a30.596906491680336,30.596906491680336 0 0,0 -0.4439730575754105,-0.2833646112028145 l 5.232621504157407 -8.044891944848336" fill="#ff720a" stroke="none" /><path d="M 88.24862548938628 117.40417183066458 l -14.045467542566186 20.80179900079431 a46.09960159362549,46.09960159362549 0 0,0 -0.6538309026804281,-0.4497108568120637 l 14.401455329869504 -20.556947354617144" fill="#c8ff1d" stroke="none" /><path d="M 87.95078237400918 117.19931262002967 l -4.235722155843973 6.046160986652103 a28.38223576283103,28.38223576283103 0 0,0 -0.39771982664529393,-0.28376253619507874 l 4.339169310338154 -5.972354188612807" fill="#ff5307" stroke="none" /><path d="M 87.65650970185807 116.9893568818739 l -8.687016959296983 11.956653085602838 a35.77923599718772,35.77923599718772 0 0,0 -0.4951420822725656,-0.3662942752898709 l 8.891544011988113 -11.805348861573197" fill="#ffb711" stroke="none" /><path d="M 87.36589467227662 116.77436683061367 l -7.390374243730378 9.812238014814085 a33.28404030935083,33.28404030935083 0 0,0 -0.454677855448453,-0.3486275910994887 l 7.5581808276723175 -9.683571081887228" fill="#ff960d" stroke="none" /><path d="M 86.79598089348748 116.32954008644616 l -9.422600932582759 11.653023098952088 a35.98593859854699,35.98593859854699 0 0,0 -0.47832144834338775,-0.3936259880281918 l 9.621792509470836 -11.489101992066717" fill="#ffba11" stroke="none" /><path d="M 86.51685102203217 116.09983520530335 l -10.446517581711193 12.473882162815292 a37.27044762127959,37.27044762127959 0 0,0 -0.48830413543050166,-0.41614337774586085 l 10.659687193718751 -12.29221439484648" fill="#ffca12" stroke="none" /><path d="M 86.24171649860922 115.8653595955263 l -14.528902146066756 16.75399820422814 a43.17623623154441,43.17623623154441 0 0,0 -0.5572975715843698,-0.4917503110456316 l 14.815142070557712 -16.50142475141022" fill="#eaff1a" stroke="none" /><path d="M 85.70375840098266 115.38237550388516 l -7.0559842529951995 7.592051279864578 a31.364659011014766,31.364659011014766 0 0,0 -0.3923034280354637,-0.37094737755289386 l 7.185623515421479 -7.469469265565756" fill="#ff7d0b" stroke="none" /><path d="M 85.44109423537348 115.13401014063109 l -8.40369929652569 8.735661349044852 a33.12163112256855,33.12163112256855 0 0,0 -0.40747499894795053,-0.39880004858943197 l 8.552824247849436 -8.58971119753285" fill="#ff940d" stroke="none" /><path d="M 84.67929136418377 114.36230785411684 l -10.771531733641599 10.097708826423831 a35.76447152566206,35.76447152566206 0 0,0 -0.417173131730733,-0.45275904179954285 l 10.943751273368061 -9.910798529822946" fill="#ffb711" stroke="none" /><path d="M 84.4343377721795 114.09645910891817 l -8.853494780154763 8.017836010626766 a32.94445746426061,32.94445746426061 0 0,0 -0.37704327641294566,-0.4236121180582704 l 8.990196906216045 -7.864249722827629" fill="#ff920d" stroke="none" /><path d="M 83.95833913139862 113.55231037782056 l -9.259575982977555 7.822671774214215 a33.12163112256855,33.12163112256855 0 0,0 -0.364186529345321,-0.4386861353701364 l 9.392858512216415 -7.662124381730315" fill="#ff940d" stroke="none" /><path d="M 83.72743513129215 113.27417163493433 l -9.209806458385158 7.512801616678323 a32.88539957815796,32.88539957815796 0 0,0 -0.3540380856923916,-0.4417169477455085 l 9.337762456132408 -7.353156835354557" fill="#ff910d" stroke="none" /><path d="M 83.28015986056508 112.70617746262583 l -9.897894584535416 7.521866480101446 a33.431685024607454,33.431685024607454 0 0,0 -0.34424882009380997,-0.4611775508538249 l 10.02590467132431 -7.350376049738313" fill="#ff980e" stroke="none" /><path d="M 83.06392112726016 112.41649034213515 l -8.81136515057006 6.4599504475134815 a31.925708928989923,31.925708928989923 0 0,0 -0.32111213659700827,-0.44599667247210373 l 8.921257079542675 -6.3073201695902394" fill="#ff840c" stroke="none" /><path d="M 82.6465618267979 111.8261652097733 l -12.200683037170448 8.314622833213006 a35.76447152566206,35.76447152566206 0 0,0 -0.3423117958706872,-0.5117096893523084 l 12.341997938451865 -8.103376229654875" fill="#ffb711" stroke="none" /><path d="M 82.44556493220864 111.52570212397912 l -10.14512230540743 6.660975260776307 a33.13639559409421,33.13639559409421 0 0,0 -0.30894976678752084,-0.4794968989287295 l 10.258276935571997 -6.485356761926129" fill="#ff940d" stroke="none" /><path d="M 82.24976979558568 111.22182372390057 l -10.032395168499185 6.342552677509022 a32.86915865947973,32.86915865947973 0 0,0 -0.2982255709045285,-0.48083457738711277 l 10.14008537907167 -6.168921768756645" fill="#ff910d" stroke="none" /><path d="M 82.05923443525364 110.91462005526583 l -10.090892279210513 6.138994172167327 a32.81157722052964,32.81157722052964 0 0,0 -0.28939674284506395,-0.48504558707787604 l 10.19506989775381 -5.9643864912033395" fill="#ff900d" stroke="none" /><line stroke="#e1ed5e" stroke-width="0.3" x1="26.63291911575756" x2="22.317208475507996" y1="142.92168965132927" y2="145.44649492493687" /><path d="M 25.769776987707644 143.4266507060508 a86.0,86.0 0 0,1 -11.730757126820373,-40.83630448921669" fill="none" id="id93" stroke="none" /><text fill="#e1ed5e" style="font-size:6.75px; font-family:Arial;" text-anchor="middle"><textPath startOffset="21.46611528233685" xlink:href="#id93">September</textPath></text><path d="M 81.69416730710424 110.29060199501025 l -12.883153404444798 7.242249306542249 a35.77923599718772,35.77923599718772 0 0,0 -0.2971782290338586,-0.5394648069481693 l 13.005908042930173 -7.019413981196258" fill="#ffb711" stroke="none" /><path d="M 81.35079622478065 109.6543875284942 l -1.4029515846837144 0.7262850706929073 a22.57979845324584,22.57979845324584 0 0,0 -0.17571527138987772,-0.34670290056434994 l 1.4152455258598589 -0.7020279584258723" fill="#ff0000" stroke="none" /><path d="M 81.02952815118164 109.00673069616217 l -4.201334871603785 1.9946942835418897 a25.650808530583546,25.650808530583546 0 0,0 -0.18593829318744393,-0.4004945416786405 l 4.235047781631056 -1.9220796745844233" fill="#ff2d04" stroke="none" /><path d="M 80.87730276802145 108.67885076344099 l -5.485395221922133 2.489550816604588 a27.02390438247012,27.02390438247012 0 0,0 -0.18859971964859504,-0.4252425789356942 l 5.527436026302006 -2.3947599011761977" fill="#ff4006" stroke="none" /><path d="M 80.45479744820244 107.68017299344265 l -13.741646978062505 5.399699784468704 a35.76447152566206,35.76447152566206 0 0,0 -0.2202167026468173,-0.5749163205585757 l 13.83255796030283 -5.162359897076971" fill="#ffb711" stroke="none" /><path d="M 80.32549172779594 107.34259656027581 l -11.216821250009566 4.186157640539716 a32.972509960159364,32.972509960159364 0 0,0 -0.19387166827825125,-0.5334515665334233 l 11.287217179293041 -3.9924582770001753" fill="#ff920d" stroke="none" /><path d="M 80.20201598880116 107.00284435728193 l -11.17586221883633 3.9530703546718953 a32.854394187954064,32.854394187954064 0 0,0 -0.183998952395662,-0.5347870836622425 l 11.24225200217522 -3.760110567920357" fill="#ff910d" stroke="none" /><path d="M 79.97269907076064 106.31721596034903 l -11.982587127337258 3.7796701070473566 a33.56456526833841,33.56456526833841 0 0,0 -0.1690586856124188,-0.5524935662514727 l 12.045872585455808 -3.572849568243836" fill="#ff9a0e" stroke="none" /><path d="M 79.86692584326677 105.97154293290107 l -11.465519147143599 3.4007146301733338 a32.95922193578627,32.95922193578627 0 0,0 -0.15664633484269067,-0.5453064416558989 l 11.522358118872393 -3.202850713012839" fill="#ff920d" stroke="none" /><path d="M 79.76711848015287 105.62410040840567 l -16.387353769062962 4.555165458507148 a38.00867119756269,38.00867119756269 0 0,0 -0.1697936457493533,-0.6318653206199468 l 16.463335491154087 -4.272409204711663" fill="#ffd413" stroke="none" /><path d="M 79.67330655649465 105.27499134158121 l -7.174127097707772 1.8617616499698397 a28.411764705882355,28.411764705882355 0 0,0 -0.11877292771844708,-0.47443880552117573 l 7.20511133972128 -1.737995005051272" fill="#ff5407" stroke="none" /><path d="M 79.50377843672027 104.57218783832718 l -11.600275386763666 2.5877275907101325 a32.88539957815796,32.88539957815796 0 0,0 -0.11849073195296154,-0.553549252088397 l 11.643100157441069 -2.387664519205571" fill="#ff910d" stroke="none" /><path d="M 79.35854240842038 103.8639653848113 l -20.491496216998193 3.8358934544318366 a41.847433794234824,41.847433794234824 0 0,0 -0.12644612158187915,-0.7091770008238772 l 20.55448878091926 -3.482597702874746" fill="#faff18" stroke="none" /><path d="M 79.29508885075956 103.50808413554451 l -4.410772025933808 0.7473279773166063 a25.473634872275603,25.473634872275603 0 0,0 -0.0695287648057087,-0.43295568481554325 l 4.4229825451008065 -0.6712930628078487" fill="#ff2a04" stroke="none" /><path d="M 79.23777060512086 103.15116336523772 l -30.814904794415188 4.676896553093625 a52.1677993906726,52.1677993906726 0 0,0 -0.12710547439045006,-0.8889753918462057 l 30.890844319822236 -4.14577568926702" fill="#83ff25" stroke="none" /><path d="M 79.1416061653843 102.43462659150553 l -7.376450971744806 0.8609916865671075 a28.426529177408014,28.426529177408014 0 0,0 -0.05254535423715123,-0.4865047210671429 l 7.390178627483008 -0.7338906436151825" fill="#ff5407" stroke="none" /><path d="M 79.10278846688536 102.07522291339032 l -6.7584138541594125 0.6711524772623937 a27.791656901804547,27.791656901804547 0 0,0 -0.0431768584071609,-0.4764530346534447 l 6.768965308843649 -0.5547180540603832" fill="#ff4b07" stroke="none" /><path d="M 79.07016306316243 101.71520430193888 l -4.45868801865136 0.365390370391948 a25.473634872275603,25.473634872275603 0 0,0 -0.03205243317398647,-0.43732998488229796 l 4.464317010489681 -0.2885872490128891" fill="#ff2a04" stroke="none" /><path d="M 79.04373962182676 101.35467743843564 l -5.89348780262664 0.38097326602361586 a26.90578861026482,26.90578861026482 0 0,0 -0.025898293812482907,-0.4624314335116389 l 5.899172447326655 -0.2794701161765395" fill="#ff3f05" stroke="none" /><path d="M 79.0095281055655 100.63252640178507 l -7.172277483497894 0.21612924626262958 a28.175533161471762,28.175533161471762 0 0,0 -0.010435596702210528,-0.4849011728618497 l 7.174935142885112 -0.09263825761065106" fill="#ff5107" stroke="none" /><line stroke="#e1ed5e" stroke-width="0.3" x1="15.007084014347285" x2="10.007500721073583" y1="101.09737516637583" y2="101.16192664675087" /><path d="M 14.007167355692545 101.11028546245083 a86.0,86.0 0 0,1 10.666146001902534,-42.60595125391555" fill="none" id="id94" stroke="none" /><text fill="#e1ed5e" style="font-size:6.75px; font-family:Arial;" text-anchor="middle"><textPath startOffset="22.20632615414155" xlink:href="#id94">October</textPath></text><path d="M 79.05617556472873 98.46500227214037 l -21.57209008507552 -1.5810440623255422 a42.62995078509492,42.62995078509492 0 0,0 0.05993672865139825,-0.7313799037136692 l 21.54167887260462 1.9521378832469896" fill="#f1ff19" stroke="none" /><line stroke="#e1ed5e" stroke-width="0.3" x1="26.266209847984243" x2="21.928928074336255" y1="57.71137044288968" y2="55.22380399835378" /><path d="M 25.398753493254645 57.2138571539825 a86.0,86.0 0 0,1 29.58750427330803,-30.4925239686951" fill="none" id="id95" stroke="none" /><text fill="#e1ed5e" style="font-size:6.75px; font-family:Arial;" text-anchor="middle"><textPath startOffset="21.46611528233685" xlink:href="#id95">November</textPath></text><line stroke="#e1ed5e" stroke-width="0.3" x1="56.76296977257108" x2="54.21961505331056" y1="26.818313649435495" y2="22.513508569990535" /><path d="M 56.25429882871898 25.957352633546506 a86.0,86.0 0 0,1 42.26535254187918,-11.944610805530505" fill="none" id="id96" stroke="none" /><text fill="#e1ed5e" style="font-size:6.75px; font-family:Arial;" text-anchor="middle"><textPath startOffset="22.20632615414155" xlink:href="#id96">December</textPath></text></svg>
