<?xml version="1.0" encoding="utf-8" ?>
<svg baseProfile="full" height="200mm" version="1.1" viewBox="0,0,200,200" width="200mm" xmlns="http://www.w3.org/2000/svg" xmlns:ev="http://www.w3.org/2001/xml-events" xmlns:xlink="http://www.w3.org/1999/xlink"><defs /><rect fill="#1a1a1a" height="200" width="200" x="0" y="0" /><text alignment-baseline="middle" fill="#e1ed5e" style="dominant-baseline: central; font-size:9.0px; font-family:Arial;" text-anchor="middle" x="100.0" y="100.0">2025</text><line stroke="#e1ed5e" stroke-width="0.3" x1="100.0" x2="100.0" y1="15.0" y2="10.0" /><path d="M 100.0 14.0 a86.0,86.0 0 0,1 42.46469731375804,11.215312516191453" fill="none" id="id13" stroke="none" /><text fill="#e1ed5e" style="font-size:6.75px; font-family:Arial;" text-anchor="middle"><textPath startOffset="22.20632615414155" xlink:href="#id13">January</textPath></text><path d="M 100.72285384407766 79.0124445844662 l 0.6229158531119346 -18.085925797465467 a39.096649858785604,39.096649858785604 0 0,0 0.6723863580649889,0.028954370980554086 l -0.9341430435662551 18.072523699960716" fill="#ffd113" stroke="none" /><path d="M 101.08401301168833 79.027996857942 l 1.2653872974001055 -24.480985090449543 a45.51366631108522,45.51366631108522 0 0,0 0.7820503857852176,0.047175414957529575 l -1.686599732024935 24.45557640611171" fill="#dbff1b" stroke="none" /><path d="M 101.80526077348638 79.07773832637324 l 1.572277472916479 -18.22207694037365 a39.289782515730955,39.289782515730955 0 0,0 0.6733050233095534,0.0639384249329608 l -1.8857076233162766 18.192312970925514" fill="#ffd413" stroke="none" /><path d="M 102.16513564639614 79.11191278185805 l 1.5428335161739943 -14.884444354586549 a35.96419122450035,35.96419122450035 0 0,0 0.6152159509135176,0.06912668037990198 l -1.7988161705972372 14.855681720736046" fill="#ffa80f" stroke="none" /><path d="M 102.52436894288641 79.15227682838746 l 2.188525272097218 -18.074128647214117 a39.20614646823029,39.20614646823029 0 0,0 0.6692774314678421,0.08689141899542367 l -2.499317432072906 18.033778905054554" fill="#ffd313" stroke="none" /><path d="M 103.2404852339499 79.25152402106235 l 2.8814449155820907 -18.449579707762762 a39.67323528997119,39.67323528997119 0 0,0 0.6738230631387246,0.11118657895668418 l -3.19859718485969 18.397246865866453" fill="#ffd914" stroke="none" /><path d="M 103.59715602781102 79.31037775812273 l 2.4088285855658054 -13.854765569098689 a35.06260943528339,35.06260943528339 0 0,0 0.5937349991452493,0.10850127603518785 l -2.6469587058139554 13.811248811712762" fill="#ff9b0e" stroke="none" /><path d="M 103.95276090670814 79.375362276772 l 5.0163277058148985 -26.174095543660275 a47.65045630342533,47.65045630342533 0 0,0 0.8042343961025186,0.1613218540137806 l -5.466128511384542 26.083869733569287" fill="#c2ff1e" stroke="none" /><path d="M 104.66035177308747 79.52364482259891 l 4.071448455943331 -17.88886949517664 a39.346344168385826,39.346344168385826 0 0,0 0.6591005658599228,0.15598780925382924 l -4.378772708765777 17.81613577378194" fill="#ffd513" stroke="none" /><path d="M 105.01212808612495 79.60689891045804 l 2.880546892289287 -11.720228006590672 a33.06902211967274,33.06902211967274 0 0,0 0.5516087861142691,0.1406173616624862 l -3.0818645670885814 11.668907648759319" fill="#ff800b" stroke="none" /><path d="M 105.36241919743992 79.69619591428918 l 4.542083492040222 -17.19775533538174 a38.78744813131764,38.78744813131764 0 0,0 0.6440602397626807,0.1760459930436475 l -4.837441621026613 17.117022801511798" fill="#ffcd13" stroke="none" /><path d="M 106.40334571778207 80.00007090966166 l 10.2950098687222 -32.15498216611908 a54.76285098004201,54.76285098004201 0 0,0 0.8952870211631946,0.2951620548274948 l -10.846979712127812 31.97300638703235" fill="#71ff27" stroke="none" /><path d="M 106.74666289553966 80.11325718540242 l 4.8131190923820615 -14.18734906549309 a35.9815549561319,35.9815549561319 0 0,0 0.5848167727768631,0.2040310888435008 l -5.056617869222198 14.102397123477381" fill="#ffa80f" stroke="none" /><path d="M 107.76421540070413 80.48803036053334 l 6.845255742688493 -17.202565273190352 a39.51447482812257,39.51447482812257 0 0,0 0.6298158147483931,0.2569176845691961 l -7.140355427025273 17.082186702437575" fill="#ffd714" stroke="none" /><path d="M 108.43124777332544 80.76684994638697 l 6.2190738952161455 -14.186794723270548 a36.490062124935974,36.490062124935974 0 0,0 0.5730988089077126,0.25713273012758414 l -6.462354822590639 14.077641662626432" fill="#ffaf10" stroke="none" /><path d="M 108.76106565485865 80.91482961587045 l 12.97141608809238 -28.257028986809534 a52.092078130800715,52.092078130800715 0 0,0 0.811698237289605,0.38110320609256626 l -13.455892536681583 28.029560798076965" fill="#8eff24" stroke="none" /><path d="M 109.08828744355905 81.06846463323043 l 5.154412889623808 -10.737000839910984 a32.91012843226173,32.91012843226173 0 0,0 0.5085848706021839,0.24956038724464916 l -5.338469027236424 10.646685292531503" fill="#ff7e0b" stroke="none" /><path d="M 109.41281617654863 81.2277094730956 l 7.9693860269191275 -15.893610053822707 a38.77970624585873,38.77970624585873 0 0,0 0.5941411323330419,0.30434216454776325 l -8.241787646840924 15.754075363962443" fill="#ffcd13" stroke="none" /><path d="M 110.36928655335952 81.73862282372117 l 6.587167528870418 -11.600677650196342 a34.340408464405044,34.340408464405044 0 0,0 0.5115139036257712,0.296301868917988 l -6.785878164961517 11.485571623888305" fill="#ff910d" stroke="none" /><line stroke="#e1ed5e" stroke-width="0.3" x1="143.23703022742887" x2="145.7803849466894" y1="26.81831364943548" y2="22.513508569990506" /><path d="M 143.74570117128098 25.957352633546492 a86.0,86.0 0 0,1 28.547481713284135,27.462654790039103" fill="none" id="id14" stroke="none" /><text fill="#e1ed5e" style="font-size:6.75px; font-family:Arial;" text-anchor="middle"><textPath startOffset="19.985693538727396" xlink:href="#id14">February</textPath></text><path d="M 110.68208982089419 81.91981866633111 l 1.6767754154351173 -2.838059225789876 a24.29638528738657,24.29638528738657 0 0,0 0.3582420256555509,0.21583681206008562 l -1.7253795073083058 2.808775804271176" fill="#ff0000" stroke="none" /><path d="M 111.90073688211348 82.69761687909136 l 8.389525401830534 -12.197461732242576 a35.804128112708355,35.804128112708355 0 0,0 0.50478511469193,0.35363423153321893 l -8.598241656106115 12.051242657945421" fill="#ffa50f" stroke="none" /><path d="M 112.19680574252982 82.90503203632743 l 11.251178876634247 -15.769583160526572 a40.37185533630643,40.37185533630643 0 0,0 0.5622351514566717,0.4084877482728047 l -11.520959344444709 15.573576177437094" fill="#ffe215" stroke="none" /><path d="M 112.77801427241765 83.33499621200491 l 10.809451757459623 -14.097617254432116 a38.76477018003073,38.76477018003073 0 0,0 0.5260332146683461,0.4105772678492364 l -11.0505175272874 13.909461597359655" fill="#ffcd13" stroke="none" /><path d="M 113.06298171725822 83.55741782278167 l 16.58747973348149 -20.878923704714353 a47.66596968002368,47.66596968002368 0 0,0 0.6380353371991745,0.515913536964869 l -16.944418469245154 20.590304070485356" fill="#c2ff1e" stroke="none" /><path d="M 113.6212207817346 84.01681056812373 l 11.768266967426047 -13.808926765028875 a39.14327880562226,39.14327880562226 0 0,0 0.5090605801482915,0.4414523187383424 l -12.004221346221103 13.604309452870861" fill="#ffd213" stroke="none" /><path d="M 113.89432698308785 84.25364557470407 l 11.780211341317004 -13.350440306396498 a38.80470824306734,38.80470824306734 0 0,0 0.49704953080611564,0.446255976434237 l -12.00827185971911 13.145685321192964" fill="#ffcd13" stroke="none" /><path d="M 114.16331599549186 84.49514656593476 l 10.991733444237935 -12.032861237683898 a37.29748304722341,37.29748304722341 0 0,0 0.4702894983428625,0.4370828347085964 l -11.197230826375645 11.84187381690066" fill="#ffba11" stroke="none" /><path d="M 114.68862486808459 84.99185889309783 l 13.088888201894425 -13.373605959079452 a39.71289209904275,39.71289209904275 0 0,0 0.48442958226632116,0.48234928768885527 l -13.31715358432807 13.146320820740478" fill="#ffd914" stroke="none" /><path d="M 114.94478906791727 85.2469230424477 l 13.031783449132927 -12.864611420441275 a39.31189795908777,39.31189795908777 0 0,0 0.4712480751409145,0.48566256530798835 l -13.25129578797695 12.638384659583172" fill="#ffd413" stroke="none" /><path d="M 115.4437574822437 85.77008943001954 l 8.95391678304181 -8.250157723612565 a33.175291709939515,33.175291709939515 0 0,0 0.38334264323023504,0.4232965211999014 l -9.09460306688808 8.094808415143115" fill="#ff810b" stroke="none" /><path d="M 115.68641384162765 86.03803664274999 l 13.275526211937033 -11.816111215133182 a38.77245285412859,38.77245285412859 0 0,0 0.4394361546822326,0.502351489022048 l -13.476954230197114 11.585844169908185" fill="#ffcd13" stroke="none" /><path d="M 115.9244219780498 86.31012108654704 l 13.47330607927661 -11.582707933978961 a38.76764193104226,38.76764193104226 0 0,0 0.43067044774495045,0.5097779696781286 l -13.670687140508678 11.349071014671726" fill="#ffcd13" stroke="none" /><path d="M 116.15771136456269 86.58626213691792 l 13.683842041629983 -11.359991892714081 a38.78473921154904,38.78473921154904 0 0,0 0.4220176854410566,0.5173437824179196 l -13.87735821914745 11.122763940688062" fill="#ffcd13" stroke="none" /><path d="M 116.60985879189232 87.15038557335679 l 23.441867900613353 -18.134950316989936 a50.63777308890633,50.63777308890633 0 0,0 0.5274142527626535,0.6940153338318544 l -23.75055809360012 17.72875020727705" fill="#9fff22" stroke="none" /><path d="M 116.82858285166822 87.43820079747576 l 12.731235699967977 -9.503309213416768 a36.88701508949844,36.88701508949844 0 0,0 0.3754349636857066,0.5120928685450055 l -12.892933276167309 9.28275390120027" fill="#ffb410" stroke="none" /><path d="M 117.04232023915458 87.72973835380427 l 14.73402234666087 -10.60831546159188 a39.15565398008431,39.15565398008431 0 0,0 0.3891090880461648,0.5503672103380399 l -14.914444054510916 10.353121750922048" fill="#ffd213" stroke="none" /><path d="M 117.45458315368197 88.32363383020206 l 14.163794178445936 -9.474969738609918 a38.04077806548025,38.04077806548025 0 0,0 0.35940087437112994,0.5473921887439264 l -14.32479168817499 9.229759485888318" fill="#ffc312" stroke="none" /><path d="M 117.65298651832404 88.62581576622439 l 13.715767510790204 -8.837352615288394 a37.31628265436073,37.31628265436073 0 0,0 0.3432607628337243,0.5429560925524517 l -13.865855869869884 8.599948875021735" fill="#ffba11" stroke="none" /><line stroke="#e1ed5e" stroke-width="0.3" x1="172.23445277983987" x2="176.4835382374775" y1="55.19839476539836" y2="52.563006222186495" /><path d="M 173.08426987136738 54.67131705675599 a86.0,86.0 0 0,1 12.851231095245387,41.99856678651699" fill="none" id="id15" stroke="none" /><text fill="#e1ed5e" style="font-size:6.75px; font-family:Arial;" text-anchor="middle"><textPath startOffset="22.20632615414155" xlink:href="#id15">March</textPath></text><path d="M 117.84615892207809 88.93136811851018 l 13.853628394995527 -8.592365090812743 a37.30189429362256,37.30189429362256 0 0,0 0.33373507770328253,0.548572718013977 l -13.999479270985033 8.352624599591683" fill="#ffba11" stroke="none" /><path d="M 118.21658344932153 89.55222093294921 l 16.14285984986733 -9.258433871037447 a39.609420245586165,39.609420245586165 0 0,0 0.33411933949249484,0.5943610229193727 l -16.29983683065226 8.97918933818328" fill="#ffd814" stroke="none" /><path d="M 118.3937258080291 89.86733742301442 l 15.569389034738595 -8.576803159149057 a38.77547263354276,38.77547263354276 0 0,0 0.31702069524549314,0.587391201190561 l -15.714717829202552 8.307530974626037" fill="#ffcd13" stroke="none" /><path d="M 118.56541770881063 90.18545643968196 l 15.71644527494021 -8.30844418281269 a38.77742660845783,38.77742660845783 0 0,0 0.30687821469769494,0.5927910334220232 l -15.857132922798021 8.036680427130323" fill="#ffcd13" stroke="none" /><path d="M 118.89224826269711 90.83032412892265 l 13.52166922971799 -6.562973466596449 a36.03024149776547,36.03024149776547 0 0,0 0.2660092246729175,0.5602832679713453 l -13.632636648232664 6.329247782984563" fill="#ffa80f" stroke="none" /><path d="M 119.04729006885535 91.15688171328212 l 16.349894404720125 -7.5907937388268945 a39.026069916399194,39.026069916399194 0 0,0 0.2776383058826889,0.6117392046604521 l -16.47813502756616 7.30823252532438" fill="#ffd013" stroke="none" /><path d="M 119.196687751892 91.48605970444005 l 33.88489585365957 -15.028320715946979 a58.06799954886582,58.06799954886582 0 0,0 0.39737671409633535,0.9172002439287408 l -34.138563277598585 14.442821327431634" fill="#4dff2c" stroke="none" /><path d="M 119.47837535516314 92.15188598940014 l 16.498215139261312 -6.64736514331551 a38.7870336517902,38.7870336517902 0 0,0 0.24418552522486706,0.6214255271088339 l -16.61019421436788 6.362390611310892" fill="#ffcd13" stroke="none" /><path d="M 119.61058180528143 92.48833698450437 l 16.789525744718343 -6.431081996269345 a38.979070898555904,38.979070898555904 0 0,0 0.2346083669546332,0.6286337834968629 l -16.897738700174603 6.141125075743149" fill="#ffd013" stroke="none" /><path d="M 119.7369772167798 92.82701384747503 l 8.412620229466484 -3.0573885630831112 a29.950966648965917,29.950966648965917 0 0,0 0.17192841696671352,0.4860647868945186 l -8.464001727243007 2.912126149761978" fill="#ff5407" stroke="none" /><path d="M 119.85752413597 93.16781622104841 l 14.627050393557175 -5.032585923022831 a36.46859800655084,36.46859800655084 0 0,0 0.19912324475145482,0.5953531569218719 l -14.7115109320804 4.780059663178645" fill="#ffae10" stroke="none" /><path d="M 120.08093135843002 93.85539295169968 l 22.66051339850203 -6.933938862755292 a44.69764493860346,44.69764493860346 0 0,0 0.2187930625087335,0.7376614389217936 l -22.776512358122467 6.542848037086968" fill="#e5ff1a" stroke="none" /><path d="M 120.28053869075195 94.5502522615342 l 18.140249327806238 -4.8746132564268825 a39.78378290107473,39.78378290107473 0 0,0 0.17202444854729126,0.6628803734416464 l -18.221470108223834 4.561636457436386" fill="#ffda14" stroke="none" /><path d="M 120.45610955862082 95.25157060432595 l 19.486420540680367 -4.52333772688651 a41.004528729258396,41.004528729258396 0 0,0 0.153680312825183,0.6889187087141925 l -19.561395240507586 4.187240848622353" fill="#ffea16" stroke="none" /><path d="M 120.53481517161879 95.60439243477599 l 17.563072867281466 -3.7594872570707083 a38.96093741923053,38.96093741923053 0 0,0 0.13473193843791736,0.6570007808973042 l -17.62518410163438 3.4566108200099923" fill="#ffd013" stroke="none" /><path d="M 120.6074358757038 95.95851677861258 l 17.44078949714782 -3.4204477716500823 a38.77303016489894,38.77303016489894 0 0,0 0.12280762063044963,0.6560432200378066 l -17.497082841688126 3.1197264741497133" fill="#ffcd13" stroke="none" /><path d="M 120.67395015179393 96.31383870115 l 18.342492219785008 -3.2704628021540225 a39.63177253438724,39.63177253438724 0 0,0 0.11396614133359992,0.6726346174042693 l -18.39607022263883 2.9542423964339157" fill="#ffd814" stroke="none" /><path d="M 120.78858239683441 97.02765380044208 l 11.770396547313895 -1.6829282909654044 a32.890100189382366,32.890100189382366 0 0,0 0.07530893373781541,0.5611390297862482 l -11.797621480109546 1.4800709191144918" fill="#ff7d0b" stroke="none" /><path d="M 120.83666639777658 97.38593545837742 l 11.758405302755968 -1.4751510525331029 a32.8505766058732,32.8505766058732 0 0,0 0.06555981281812887,0.5616764395227561 l -11.782055468577685 1.272530874685494" fill="#ff7d0b" stroke="none" /><path d="M 120.87857604477298 97.74499172005257 l 7.371325418248237 -0.7961462418074334 a28.41419498395184,28.41419498395184 0 0,0 0.04833508172630286,0.48672767671727535 l -7.383937625656768 0.6691430343857231" fill="#ff3d05" stroke="none" /><path d="M 120.94382443527127 98.46500227214037 l 9.61064926901817 -0.7043758811477863 a30.63642697030503,30.63642697030503 0 0,0 0.034020160508757065,0.5262768253910184 l -9.621350020531342 0.5388399915037327" fill="#ff5d08" stroke="none" /><path d="M 120.96714384426684 98.82574320788733 l 62.90143153280055 -3.5227703763380056 a84.0,84.0 0 0,0 0.0684255670660141,1.444355573508001 l -62.95275070810006 2.4395036962070047" fill="#4dd2ff" stroke="none" /><line stroke="#e1ed5e" stroke-width="0.3" x1="184.98032266829074" x2="189.97916517819016" y1="98.17113171792111" y2="98.06355123074" /><path d="M 185.9800911702706 98.14961562048488 a86.0,86.0 0 0,1 -9.607161424134198,41.387399972396054" fill="none" id="id16" stroke="none" /><text fill="#e1ed5e" style="font-size:6.75px; font-family:Arial;" text-anchor="middle"><textPath startOffset="21.466115282336823" xlink:href="#id16">April</textPath></text><line stroke="#e1ed5e" stroke-width="0.3" x1="174.80103733775053" x2="179.2010983576182" y1="140.37084112569926" y2="142.7455964860345" /><path d="M 175.68104954172406 140.8457921977663 a86.0,86.0 0 0,1 -30.038265399797805,32.042727171017184" fill="none" id="id17" stroke="none" /><text fill="#e1ed5e" style="font-size:6.75px; font-family:Arial;" text-anchor="middle"><textPath startOffset="22.206326154141568" xlink:href="#id17">May</textPath></text><line stroke="#e1ed5e" stroke-width="0.3" x1="143.8653032363475" x2="146.44561519142675" y1="172.8068346515853" y2="177.08958963109032" /><path d="M 144.38136562736335 173.6633856474863 a86.0,86.0 0 0,1 -40.68145358897372,12.25698825130547" fill="none" id="id18" stroke="none" /><text fill="#e1ed5e" style="font-size:6.75px; font-family:Arial;" text-anchor="middle"><textPath startOffset="21.466115282336833" xlink:href="#id18">June</textPath></text><line stroke="#e1ed5e" stroke-width="0.3" x1="102.19456741930631" x2="102.32365962044197" y1="184.97166512339345" y2="189.96999836594603" /><path d="M 102.22038585953345 185.97133177190398 a86.0,86.0 0 0,1 -42.740103519485714,-10.115201625700543" fill="none" id="id19" stroke="none" /><text fill="#e1ed5e" style="font-size:6.75px; font-family:Arial;" text-anchor="middle"><textPath startOffset="22.20632615414155" xlink:href="#id19">July</textPath></text><line stroke="#e1ed5e" stroke-width="0.3" x1="58.666819895761336" x2="56.23545636021788" y1="174.27360380694188" y2="178.64263932499728" /><path d="M 58.180547188652646 175.14741091055294 a86.0,86.0 0 0,1 -31.652253787137756,-30.449443065178592" fill="none" id="id20" stroke="none" /><text fill="#e1ed5e" style="font-size:6.75px; font-family:Arial;" text-anchor="middle"><textPath startOffset="22.20632615414155" xlink:href="#id20">August</textPath></text><line stroke="#e1ed5e" stroke-width="0.3" x1="26.63291911575756" x2="22.317208475507996" y1="142.92168965132927" y2="145.44649492493687" /><path d="M 25.769776987707644 143.4266507060508 a86.0,86.0 0 0,1 -11.730757126820373,-40.83630448921669" fill="none" id="id21" stroke="none" /><text fill="#e1ed5e" style="font-size:6.75px; font-family:Arial;" text-anchor="middle"><textPath startOffset="21.46611528233685" xlink:href="#id21">September</textPath></text><line stroke="#e1ed5e" stroke-width="0.3" x1="15.007084014347285" x2="10.007500721073583" y1="101.09737516637583" y2="101.16192664675087" /><path d="M 14.007167355692545 101.11028546245083 a86.0,86.0 0 0,1 10.666146001902534,-42.60595125391555" fill="none" id="id22" stroke="none" /><text fill="#e1ed5e" style="font-size:6.75px; font-family:Arial;" text-anchor="middle"><textPath startOffset="22.20632615414155" xlink:href="#id22">October</textPath></text><line stroke="#e1ed5e" stroke-width="0.3" x1="26.266209847984243" x2="21.928928074336255" y1="57.711370442889674" y2="55.22380399835377" /><path d="M 25.398753493254645 57.213857153982495 a86.0,86.0 0 0,1 29.58750427330803,-30.492523968695096" fill="none" id="id23" stroke="none" /><text fill="#e1ed5e" style="font-size:6.75px; font-family:Arial;" text-anchor="middle"><textPath startOffset="21.46611528233685" xlink:href="#id23">November</textPath></text><line stroke="#e1ed5e" stroke-width="0.3" x1="56.762969772571076" x2="54.21961505331055" y1="26.818313649435495" y2="22.513508569990535" /><path d="M 56.25429882871897 25.957352633546506 a86.0,86.0 0 0,1 42.265352541879196,-11.944610805530505" fill="none" id="id24" stroke="none" /><text fill="#e1ed5e" style="font-size:6.75px; font-family:Arial;" text-anchor="middle"><textPath startOffset="22.20632615414155" xlink:href="#id24">December</textPath></text></svg>