<?xml version="1.0" encoding="utf-8" ?>
<svg baseProfile="full" height="200mm" version="1.1" viewBox="0,0,200,200" width="200mm" xmlns="http://www.w3.org/2000/svg" xmlns:ev="http://www.w3.org/2001/xml-events" xmlns:xlink="http://www.w3.org/1999/xlink"><defs /><rect fill="#1a1a1a" height="200" width="200" x="0" y="0" /><text alignment-baseline="middle" fill="#e1ed5e" style="dominant-baseline: central; font-size:9.0px; font-family:Arial;" text-anchor="middle" x="100.0" y="100.0">2018</text><line stroke="#e1ed5e" stroke-width="0.3" x1="100.0" x2="100.0" y1="15.0" y2="10.0" /><path d="M 100.0 14.0 a86.0,86.0 0 0,1 42.46469731375804,11.215312516191453" fill="none" id="id1" stroke="none" /><text fill="#e1ed5e" style="font-size:6.75px; font-family:Arial;" text-anchor="middle"><textPath startOffset="22.20632615414155" xlink:href="#id1">January</textPath></text><line stroke="#e1ed5e" stroke-width="0.3" x1="143.23703022742887" x2="145.7803849466894" y1="26.81831364943548" y2="22.513508569990506" /><path d="M 143.74570117128098 25.957352633546492 a86.0,86.0 0 0,1 28.547481713284135,27.462654790039103" fill="none" id="id2" stroke="none" /><text fill="#e1ed5e" style="font-size:6.75px; font-family:Arial;" text-anchor="middle"><textPath startOffset="19.985693538727396" xlink:href="#id2">February</textPath></text><line stroke="#e1ed5e" stroke-width="0.3" x1="172.23445277983987" x2="176.4835382374775" y1="55.19839476539836" y2="52.563006222186495" /><path d="M 173.08426987136738 54.67131705675599 a86.0,86.0 0 0,1 12.851231095245387,41.99856678651699" fill="none" id="id3" stroke="none" /><text fill="#e1ed5e" style="font-size:6.75px; font-family:Arial;" text-anchor="middle"><textPath startOffset="22.20632615414155" xlink:href="#id3">March</textPath></text><line stroke="#e1ed5e" stroke-width="0.3" x1="184.98032266829074" x2="189.97916517819016" y1="98.17113171792111" y2="98.06355123074" /><path d="M 185.9800911702706 98.14961562048488 a86.0,86.0 0 0,1 -9.607161424134198,41.387399972396054" fill="none" id="id4" stroke="none" /><text fill="#e1ed5e" style="font-size:6.75px; font-family:Arial;" text-anchor="middle"><textPath startOffset="21.466115282336823" xlink:href="#id4">April</textPath></text><line stroke="#e1ed5e" stroke-width="0.3" x1="174.80103733775053" x2="179.2010983576182" y1="140.37084112569926" y2="142.7455964860345" /><path d="M 175.68104954172406 140.8457921977663 a86.0,86.0 0 0,1 -30.038265399797805,32.042727171017184" fill="none" id="id5" stroke="none" /><text fill="#e1ed5e" style="font-size:6.75px; font-family:Arial;" text-anchor="middle"><textPath startOffset="22.206326154141568" xlink:href="#id5">May</textPath></text><line stroke="#e1ed5e" stroke-width="0.3" x1="143.8653032363475" x2="146.44561519142675" y1="172.8068346515853" y2="177.08958963109032" /><path d="M 144.38136562736335 173.6633856474863 a86.0,86.0 0 0,1 -40.68145358897372,12.25698825130547" fill="none" id="id6" stroke="none" /><text fill="#e1ed5e" style="font-size:6.75px; font-family:Arial;" text-anchor="middle"><textPath startOffset="21.466115282336833" xlink:href="#id6">June</textPath></text><line stroke="#e1ed5e" stroke-width="0.3" x1="102.19456741930631" x2="102.32365962044197" y1="184.97166512339345" y2="189.96999836594603" /><path d="M 102.22038585953345 185.97133177190398 a86.0,86.0 0 0,1 -42.740103519485714,-10.115201625700543" fill="none" id="id7" stroke="none" /><text fill="#e1ed5e" style="font-size:6.75px; font-family:Arial;" text-anchor="middle"><textPath startOffset="22.20632615414155" xlink:href="#id7">July</textPath></text><line stroke="#e1ed5e" stroke-width="0.3" x1="58.666819895761336" x2="56.23545636021788" y1="174.27360380694188" y2="178.64263932499728" /><path d="M 58.180547188652646 175.14741091055294 a86.0,86.0 0 0,1 -31.652253787137756,-30.449443065178592" fill="none" id="id8" stroke="none" /><text fill="#e1ed5e" style="font-size:6.75px; font-family:Arial;" text-anchor="middle"><textPath startOffset="22.20632615414155" xlink:href="#id8">August</textPath></text><line stroke="#e1ed5e" stroke-width="0.3" x1="26.63291911575756" x2="22.317208475507996" y1="142.92168965132927" y2="145.44649492493687" /><path d="M 25.769776987707644 143.4266507060508 a86.0,86.0 0 0,1 -11.730757126820373,-40.83630448921669" fill="none" id="id9" stroke="none" /><text fill="#e1ed5e" style="font-size:6.75px; font-family:Arial;" text-anchor="middle"><textPath startOffset="21.46611528233685" xlink:href="#id9">September</textPath></text><line stroke="#e1ed5e" stroke-width="0.3" x1="15.007084014347285" x2="10.007500721073583" y1="101.09737516637583" y2="101.16192664675087" /><path d="M 14.007167355692545 101.11028546245083 a86.0,86.0 0 0,1 10.666146001902534,-42.60595125391555" fill="none" id="id10" stroke="none" /><text fill="#e1ed5e" style="font-size:6.75px; font-family:Arial;" text-anchor="middle"><textPath startOffset="22.20632615414155" xlink:href="#id10">October</textPath></text><path d="M 79.81627453868168 94.20196356495316 l -42.00337228596045 -12.066012460165954 a64.70208164472112,64.70208164472112 0 0,0 0.31671392560353334,-1.0678019102088803 l 41.78945246324521 12.787243757121372" fill="#43ff2d" stroke="none" /><path d="M 79.91906864156998 93.8553929516997 l -56.185434194245566 -17.19230093462985 a79.75694194750756,79.75694194750756 0 0,0 0.41300619372424563,-1.3093424982257786 l 55.88117251675312 18.156893599282043" fill="#46fff6" stroke="none" /><path d="M 80.02781315780177 93.51064311812611 l -52.62297108728746 -17.09823978055444 a76.33106622546529,76.33106622546529 0 0,0 0.41677745822371015,-1.2461115516527144 l 52.32085633529198 18.00152443512948" fill="#40ffc8" stroke="none" /><path d="M 80.14247586403 93.16781622104843 l -52.42853918652222 -18.038573818748954 a76.44494446428052,76.44494446428052 0 0,0 0.4388191687063915,-1.2406008819577476 l 52.110266937006024 18.93837232713331" fill="#40ffca" stroke="none" /><path d="M 80.2630227832202 92.82701384747504 l -52.15511339441353 -18.95467082180353 a76.49266076831299,76.49266076831299 0 0,0 0.46039625401982515,-1.2336330661567148 l 51.82111255189208 19.849627024989584" fill="#40ffca" stroke="none" /><path d="M 80.38941819471856 92.48833698450439 l -48.90527841740008 -18.732742087823446 a73.37023852544812,73.37023852544812 0 0,0 0.46190565618014673,-1.1754995125201055 l 48.575579211338244 19.571790605239315" fill="#3bff9e" stroke="none" /><path d="M 80.52162464483688 92.15188598940014 l -31.730838089449882 -12.784805223084355 a55.209608744490026,55.209608744490026 0 0,0 0.3627489848684595,-0.87842543985035 l 31.506067417695224 13.329105233388017" fill="#ccff1d" stroke="none" /><path d="M 80.803312248108 91.48605970444005 l -31.75755884964734 -14.084823562959716 a55.74082323274046,55.74082323274046 0 0,0 0.39654999245365735,-0.8737453436782251 l 31.510406540230328 14.629390915480013" fill="#c4ff1e" stroke="none" /><path d="M 81.10775173730289 90.83032412892265 l -43.56281253980658 -21.143956265452026 a69.4229854814186,69.4229854814186 0 0,0 0.5310527375462142,-1.0705699136158677 l 43.19239978930695 21.890685767566854" fill="#35ff62" stroke="none" /><path d="M 81.26839172434947 90.50648371742162 l -48.219363463918874 -24.438441453814836 a75.05871283666538,75.05871283666538 0 0,0 0.5940023825046498,-1.1474235358379952 l 47.791551648254114 25.264837711913167" fill="#3effb6" stroke="none" /><path d="M 81.43458229118936 90.18545643968196 l -47.65936707186382 -25.194958794921764 a74.90919419142215,74.90919419142215 0 0,0 0.6124429493684704,-1.1347637712158123 l 47.21861602327688 26.01160354947005" fill="#3effb4" stroke="none" /><path d="M 81.6062741919709 89.86733742301443 l -14.72235217303923 -8.11019085887641 a37.808416025146315,37.808416025146315 0 0,0 0.31892723779483245,-0.5673359691795024 l 14.580567293951967 8.362410337990697" fill="#ff0000" stroke="none" /><line stroke="#e1ed5e" stroke-width="0.3" x1="26.266209847984243" x2="21.928928074336255" y1="57.711370442889674" y2="55.22380399835377" /><path d="M 25.398753493254645 57.213857153982495 a86.0,86.0 0 0,1 29.58750427330803,-30.492523968695096" fill="none" id="id11" stroke="none" /><text fill="#e1ed5e" style="font-size:6.75px; font-family:Arial;" text-anchor="middle"><textPath startOffset="21.46611528233685" xlink:href="#id11">November</textPath></text><path d="M 81.96595687620814 89.24020034530311 l -28.119975994436555 -16.777452838396314 a53.74470909433004,53.74470909433004 0 0,0 0.48084675069179506,-0.7903856279971402 l 27.82701344545854 17.25900623960053" fill="#e3ff1b" stroke="none" /><path d="M 82.15384107792192 88.93136811851018 l -53.53847676623425 -33.20589564446946 a84.0,84.0 0 0,0 0.7726896150161493,-1.222209409143138 l 52.95895955497213 34.12255270132681" fill="#4dd2ff" stroke="none" /><path d="M 82.54541684631803 88.32363383020206 l -45.12484588783748 -30.186583048300708 a75.29071294920558,75.29071294920558 0 0,0 0.7298736723245721,-1.0709995524555427 l 44.598547749844165 30.958860624026666" fill="#3effba" stroke="none" /><path d="M 82.7489923806493 88.02491185347247 l -41.296468616997174 -28.666664738709432 a71.27102532748063,71.27102532748063 0 0,0 0.7082554075944464,-1.0017770462311602 l 40.79690058959885 29.373268285272378" fill="#38ff7f" stroke="none" /><path d="M 83.17141714833178 87.43820079747576 l -43.53704040859876 -32.49849166180899 a75.32886753681352,75.32886753681352 0 0,0 0.7845826536177232,-1.0324188044160212 l 42.97118181475693 33.24309524210604" fill="#3fffba" stroke="none" /><path d="M 83.39014120810768 87.1503855733568 l -48.61158429959628 -37.60658791530346 a82.46008121332255,82.46008121332255 0 0,0 0.8781838417737781,-1.1152042980872858 l 47.95704637722854 38.437784607343794" fill="#4ae5ff" stroke="none" /><path d="M 83.6137871275137 86.86637796730984 l -40.44217497804595 -32.41458197051865 a72.82928362690689,72.82928362690689 0 0,0 0.7924571966544913,-0.9714588219047392 l 39.87821928931506 33.10592496203147" fill="#3aff96" stroke="none" /><path d="M 83.84228863543731 86.58626213691792 l -36.28417770352191 -30.122239301785125 a68.1581472512944,68.1581472512944 0 0,0 0.7571701122908915,-0.8962505892050391 l 35.7602969777439 30.74234884061928" fill="#33ff4f" stroke="none" /><path d="M 84.31358615837235 86.03803664274999 l -32.25565599634001 -28.70970329048972 a64.18187590624314,64.18187590624314 0 0,0 0.7416257307543684,-0.8189216550899565 l 31.756686624969593 29.26067773284923" fill="#4aff2c" stroke="none" /><path d="M 84.5562425177563 85.77008943001954 l -39.56605207276012 -36.4562434530518 a74.8008379426617,74.8008379426617 0 0,0 0.8806291182580088,-0.9393937432680306 l 38.932655632531656 37.13190661319788" fill="#3effb3" stroke="none" /><path d="M 84.80347519578584 85.50635884689758 l -38.72663061537433 -36.93541085474579 a74.51613302386974,74.51613302386974 0 0,0 0.8932558863219154,-0.9205787102638878 l 38.085110465349295 37.5965537605598" fill="#3dffaf" stroke="none" /><path d="M 85.05521093208273 85.24692304244772 l -38.3861023308666 -37.89368449525225 a74.93907838275959,74.93907838275959 0 0,0 0.9141290023866003,-0.910203441941112 l 37.728137528312686 38.548823787843475" fill="#3effb5" stroke="none" /><path d="M 85.57189188830299 84.74124197986013 l -37.59735558993172 -39.761897173394864 a75.72266088361746,75.72266088361746 0 0,0 0.9547982676217875,-0.8873809320801399 l 36.907349438515084 40.40318269154965" fill="#3fffc0" stroke="none" /><path d="M 85.83668400450813 84.49514656593479 l -36.496387025979 -39.95329426321055 a75.11332542389852,75.11332542389852 0 0,0 0.962126629721756,-0.8638067878336774 l 35.803249408661266 40.57560005981351" fill="#3effb7" stroke="none" /><path d="M 86.37877921826538 84.01681056812374 l -35.1532249390389 -41.248920514924976 a75.19614993024196,75.19614993024196 0 0,0 0.9923831525171084,-0.831092350821453 l 34.43798424956268 41.84791402314024" fill="#3effb8" stroke="none" /><path d="M 86.65592168130627 83.78471172551755 l -36.223456861887264 -44.01756204405133 a78.00600490585984,78.00600490585984 0 0,0 1.0441534700284811,-0.844299490089808 l 35.46039999329429 44.63456763140527" fill="#43ffdf" stroke="none" /><line stroke="#e1ed5e" stroke-width="0.3" x1="56.762969772571076" x2="54.21961505331055" y1="26.818313649435495" y2="22.513508569990535" /><path d="M 56.25429882871897 25.957352633546506 a86.0,86.0 0 0,1 42.265352541879196,-11.944610805530505" fill="none" id="id12" stroke="none" /><text fill="#e1ed5e" style="font-size:6.75px; font-family:Arial;" text-anchor="middle"><textPath startOffset="22.20632615414155" xlink:href="#id12">December</textPath></text><path d="M 92.91201910852362 80.23233633223022 l -9.70286022678674 -27.060298343799484 a49.747264966184126,49.747264966184126 0 0,0 0.8085541324567002,-0.282088660437582 l 9.235624090266755 27.223307857409278" fill="#ffda14" stroke="none" /><path d="M 93.59665428221793 80.00007090966166 l -10.707945968743724 -33.44472866478723 a56.1170896050737,56.1170896050737 0 0,0 0.9224971510749599,-0.28662435532502145 l 10.130663444958035 33.624093154994775" fill="#beff1f" stroke="none" /></svg>