<?xml version="1.0" encoding="utf-8" ?>
<svg baseProfile="full" height="200mm" version="1.1" viewBox="0,0,200,200" width="200mm" xmlns="http://www.w3.org/2000/svg" xmlns:ev="http://www.w3.org/2001/xml-events" xmlns:xlink="http://www.w3.org/1999/xlink"><defs /><rect fill="#1a1a1a" height="200" width="200" x="0" y="0" /><text alignment-baseline="middle" fill="#e1ed5e" style="dominant-baseline: central; font-size:9.0px; font-family:Arial;" text-anchor="middle" x="100.0" y="100.0">2015</text><line stroke="#e1ed5e" stroke-width="0.3" x1="100.0" x2="100.0" y1="15.0" y2="10.0" /><path d="M 100.0 14.0 a86.0,86.0 0 0,1 42.46469731375804,11.215312516191453" fill="none" id="id37" stroke="none" /><text fill="#e1ed5e" style="font-size:6.75px; font-family:Arial;" text-anchor="middle"><textPath startOffset="22.20632615414155" xlink:href="#id37">January</textPath></text><path d="M 100.36148047927253 79.00311137660856 l 0.20661714893238525 -12.001525704919791 a33.00330412395201,33.00330412395201 0 0,0 0.5679292886171254,0.014667937970369683 l -0.4131730727443785 11.99619097480706" fill="#ff790b" stroke="none" /><path d="M 104.66035177308747 79.52364482259891 l 1.9237282996712761 -8.45235420990345 a29.66850749902362,29.66850749902362 0 0,0 0.49698467530148815,0.11762021571300046 l -2.068936661935288 8.41798808204958" fill="#ff4906" stroke="none" /><path d="M 105.01212808612495 79.60689891045804 l 4.5601155913175555 -18.553974805865916 a40.10614129809797,40.10614129809797 0 0,0 0.6689916574221976,0.17054086919753245 l -4.878816137424778 18.472730940499517" fill="#ffda14" stroke="none" /><path d="M 106.40334571778207 80.00007090966166 l 1.6241982696352666 -5.072949619313545 a26.326615985706088,26.326615985706088 0 0,0 0.43039902381525097,0.14189579125139662 l -1.7112801156929351 5.044240103802912" fill="#ff1702" stroke="none" /><path d="M 106.74666289553966 80.11325718540242 l 3.536473197453218 -10.42425478156994 a32.00780316082136,32.00780316082136 0 0,0 0.5202304394851791,0.18149818534392992 l -3.7153856410016712 10.361835743053803" fill="#ff6b09" stroke="none" /><path d="M 107.08798089147638 80.2323363322302 l 13.678682681704968 -38.14846608788889 a61.526680406438224,61.526680406438224 0 0,0 0.993854163352665,0.36604487584309625 l -14.33331917083021 37.907357944239465" fill="#30ff34" stroke="none" /><path d="M 108.76106565485865 80.91482961587045 l 2.711096763286431 -5.905873291394536 a27.498414036817714,27.498414036817714 0 0,0 0.4284800108357969,0.20117711037708935 l -2.8123549854218255 5.858331198377444" fill="#ff2904" stroke="none" /><path d="M 109.41281617654863 81.2277094730956 l 4.2444426284169126 -8.46483227240026 a30.469354710105204,30.469354710105204 0 0,0 0.4668188251387858,0.2391227335776241 l -4.389521941144454 8.390517013510134" fill="#ff5507" stroke="none" /><path d="M 109.73455568895987 81.39251694778311 l 2.9108378385188227 -5.5640306017683265 a27.279443722143494,27.279443722143494 0 0,0 0.4141993218456009,0.22125093309900995 l -3.006182206892735 5.513100942167562" fill="#ff2603" stroke="none" /><line stroke="#e1ed5e" stroke-width="0.3" x1="143.23703022742887" x2="145.7803849466894" y1="26.81831364943548" y2="22.513508569990506" /><path d="M 143.74570117128098 25.957352633546492 a86.0,86.0 0 0,1 28.547481713284135,27.462654790039103" fill="none" id="id38" stroke="none" /><text fill="#e1ed5e" style="font-size:6.75px; font-family:Arial;" text-anchor="middle"><textPath startOffset="19.985693538727396" xlink:href="#id38">February</textPath></text><path d="M 110.68208982089419 81.91981866633111 l 9.274577760590873 -15.697869098301469 a39.23296154947558,39.23296154947558 0 0,0 0.5784768166829759,0.34852580943021316 l -9.543416643491486 15.535896679412643" fill="#ffce13" stroke="none" /><path d="M 110.99172775467656 82.1063720568725 l 2.359100075454459 -3.840420721194277 a25.507125966931433,25.507125966931433 0 0,0 0.372137851156948,0.23303268825448875 l -2.42485707898367 3.7992436916168444" fill="#ff0b01" stroke="none" /><path d="M 111.2981086023043 82.29822771554956 l 3.239632517504749 -5.075826328884268 a27.021563897316785,27.021563897316785 0 0,0 0.3899249940840011,0.2536180626215807 l -3.32652453737303 5.01930934210316" fill="#ff2203" stroke="none" /><path d="M 113.6212207817346 84.01681056812373 l 24.118556785676944 -28.300801235515145 a58.1838692445536,58.1838692445536 0 0,0 0.7566845480673048,0.6561893835906114 l -24.602135132391012 27.881446858504866" fill="#4eff2b" stroke="none" /><line stroke="#e1ed5e" stroke-width="0.3" x1="172.23445277983987" x2="176.4835382374775" y1="55.19839476539836" y2="52.563006222186495" /><path d="M 173.08426987136738 54.67131705675599 a86.0,86.0 0 0,1 12.851231095245387,41.99856678651699" fill="none" id="id39" stroke="none" /><text fill="#e1ed5e" style="font-size:6.75px; font-family:Arial;" text-anchor="middle"><textPath startOffset="22.20632615414155" xlink:href="#id39">March</textPath></text><path d="M 118.56541770881063 90.18545643968196 l 6.3939063370535445 -3.380116367423537 a28.232373393592034,28.232373393592034 0 0,0 0.22342638750077665,0.431588665460682 l -6.451142157714437 3.26955497970251" fill="#ff3404" stroke="none" /><path d="M 118.73160827565052 90.50648371742162 l 9.892118422091855 -5.013503695323316 a32.09005077444236,32.09005077444236 0 0,0 0.24547358765385222,0.49485977370880985 l -9.976952022699116 4.842484333115557" fill="#ff6c09" stroke="none" /><path d="M 118.89224826269711 90.83032412892265 l 16.544749990979142 -8.030277427850717 a39.3905983543835,39.3905983543835 0 0,0 0.2908185483103602,0.6125380307181515 l -16.68052673313126 7.744296981492024" fill="#ffd013" stroke="none" /><path d="M 119.04729006885535 91.15688171328212 l 21.45869989301285 -9.962667694307692 a44.65862524927414,44.65862524927414 0 0,0 0.3177092923735108,0.7000303117824378 l -21.627011502349706 9.591815373683191" fill="#eaff1a" stroke="none" /><line stroke="#e1ed5e" stroke-width="0.3" x1="184.98032266829074" x2="189.97916517819016" y1="98.17113171792111" y2="98.06355123074" /><path d="M 185.9800911702706 98.14961562048488 a86.0,86.0 0 0,1 -9.607161424134198,41.387399972396054" fill="none" id="id40" stroke="none" /><text fill="#e1ed5e" style="font-size:6.75px; font-family:Arial;" text-anchor="middle"><textPath startOffset="21.466115282336823" xlink:href="#id40">April</textPath></text><path d="M 120.92983693683757 101.71520430193887 l 4.599730427698188 0.3769488238802842 a25.6151500975935,25.6151500975935 0 0,0 -0.039795457778919095,0.43913956048835995 l -4.592560373642194 -0.45606977291721473" fill="#ff0d01" stroke="none" /><path d="M 120.89721153311464 102.0752229133903 l 7.300557392488289 0.7249906982759317 a28.336467116644226,28.336467116644226 0 0,0 -0.05237887795520253,0.48496335745298064 l -7.286996213032035 -0.8505503776137037" fill="#ff3505" stroke="none" /><path d="M 120.8583938346157 102.4346265915055 l 9.086579544010808 1.0606007518644736 a30.148267692000008,30.148267692000008 0 0,0 -0.06460126404580999,0.5149356361957781 l -9.066976770718151 -1.2168541423476467" fill="#ff5007" stroke="none" /><path d="M 120.81339534386255 102.79330883721812 l 4.9659888641205026 0.6664717769734279 a26.010511952692156,26.010511952692156 0 0,0 -0.06337392988588228,0.4432371180180273 l -4.953780883218019 -0.7518543669718645" fill="#ff1302" stroke="none" /><path d="M 120.5718875245553 104.21870165774334 l 7.175953565285601 1.4715814076673548 a28.32528916907226,28.32528916907226 0 0,0 -0.10206001111361777,0.47679039439561466 l -7.14955951544754 -1.5948856214791385" fill="#ff3505" stroke="none" /><path d="M 120.49622156327973 104.57218783832717 l 10.625505797203514 2.3702811872938607 a31.88667104092177,31.88667104092177 0 0,0 -0.12411421167826549,0.5346807755392579 l -10.583131019594695 -2.5528306201816835" fill="#ff6909" stroke="none" /><path d="M 120.32669344350535 105.2749913415812 l 10.81438440668938 2.8064468167617385 a32.17260282257266,32.17260282257266 0 0,0 -0.14372255999416708,0.5348451118429554 l -10.764473770353435 -2.9921828617802424" fill="#ff6d0a" stroke="none" /><path d="M 120.23288151984713 105.62410040840565 l 3.650176145927919 1.0146333893631634 a24.78857054983958,24.78857054983958 0 0,0 -0.11781342199725627,0.41012397764138264 l -3.6321700870445635 -1.0773148425091281" fill="#ff0000" stroke="none" /><path d="M 120.02730092923936 106.31721596034902 l 17.330795672619416 5.466656711028772 a39.172529109684206,39.172529109684206 0 0,0 -0.20837500232587436,0.6413123142172032 l -17.234128419277297 -5.76416792522377" fill="#ffcd13" stroke="none" /><path d="M 119.9155931802556 106.66101706037122 l 8.497671996117854 2.8421517565289687 a29.960371418682726,29.960371418682726 0 0,0 -0.16779116129445015,0.4876796560232809 l -8.447490003880173 -2.98800411564155" fill="#ff4d07" stroke="none" /><path d="M 119.67450827220406 107.3425965602758 l 5.9611547665259295 2.224724190225543 a27.362763854886452,27.362763854886452 0 0,0 -0.16848389964613555,0.4398582963675973 l -5.921976587286287 -2.327006053426284" fill="#ff2703" stroke="none" /><path d="M 119.54520255179757 107.68017299344265 l 6.101952901442251 2.39772669312172 a27.556136248304174,27.556136248304174 0 0,0 -0.17727437944347615,0.4399804716126643 l -6.059775907741383 -2.502406532577198" fill="#ff2a04" stroke="none" /><path d="M 119.26925614724726 108.34839909993367 l 21.18921659391228 9.180221353079453 a44.09240922803993,44.09240922803993 0 0,0 -0.307720746097445,0.6938290465452839 l -21.028054763083563 -9.543598736117426" fill="#f1ff19" stroke="none" /><path d="M 118.97047184881838 109.00673069616215 l 10.900607076512596 5.175350046390317 a33.06679256220097,33.06679256220097 0 0,0 -0.24854692953048624,0.5120802920015735 l -10.809906890367396 -5.362219294357166" fill="#ff7a0b" stroke="none" /><path d="M 118.81262510543309 109.33194174019688 l 16.65883585138564 8.263561557910235 a39.59578612333405,39.59578612333405 0 0,0 -0.3081331447206495,0.6079759271328555 l -16.51412403687872 -8.549091696745784" fill="#ffd313" stroke="none" /><path d="M 118.64920377521936 109.65438752849418 l 35.95901124599209 18.615391514547632 a61.49176818847601,61.49176818847601 0 0,0 -0.49470857144092056,0.9358021813733823 l -35.63325016632628 -19.231608711007148" fill="#30ff33" stroke="none" /><line stroke="#e1ed5e" stroke-width="0.3" x1="174.80103733775053" x2="179.2010983576182" y1="140.37084112569926" y2="142.7455964860345" /><path d="M 175.68104954172406 140.8457921977663 a86.0,86.0 0 0,1 -30.038265399797805,32.042727171017184" fill="none" id="id41" stroke="none" /><text fill="#e1ed5e" style="font-size:6.75px; font-family:Arial;" text-anchor="middle"><textPath startOffset="22.206326154141568" xlink:href="#id41">May</textPath></text><path d="M 118.30583269289576 110.29060199501025 l 3.66828925922235 2.0621244279085973 a25.208171009536496,25.208171009536496 0 0,0 -0.21588758270069497,0.3764181976571622 l -3.6322496803692754 -2.1249624714240745" fill="#ff0601" stroke="none" /><path d="M 117.94076556474637 110.91462005526583 l 15.678953043076751 9.538601611617231 a39.35250634742167,39.35250634742167 0 0,0 -0.3570497131845126,0.5756778247571094 l -15.512438690224275 -9.807075767739615" fill="#ffd013" stroke="none" /><path d="M 117.75023020441432 111.22182372390056 l 4.94351004509877 3.1253227515682505 a26.84858391984441,26.84858391984441 0 0,0 -0.25032486460565073,0.38850974885413925 l -4.8889803171160695 -3.2099541003438428" fill="#ff1f03" stroke="none" /><path d="M 117.55443506779139 111.5257021239791 l 15.553730409645222 10.212100983367097 a39.6065992634444,39.6065992634444 0 0,0 -0.3790858789140165,0.5666819539289772 l -15.375641425320485 -10.478319851501883" fill="#ffd313" stroke="none" /><path d="M 117.35343817320211 111.8261652097733 l 17.394681352675395 11.854271954348016 a42.049909808090746,42.049909808090746 0 0,0 -0.4127681077025628,0.5946232448457283 l -17.188052337810696 -12.151936461380766" fill="#fff316" stroke="none" /><path d="M 116.27256486870786 113.27417163493432 l 3.5707814698096962 2.9128269872345425 a25.6081494509942,25.6081494509942 0 0,0 -0.2815725782646915,0.33917230933058173 l -3.5201128916514617 -2.973860553678895" fill="#ff0c01" stroke="none" /><path d="M 115.80600337817218 113.82643327865902 l 11.793139117593979 10.31614679904067 a36.66847200674917,36.66847200674917 0 0,0 -0.4196639401780857,0.4714968856169638 l -11.613816327767555 -10.5176178543985" fill="#ffac0f" stroke="none" /><path d="M 114.55890576462653 115.13401014063108 l 5.00701626888598 5.20480290295835 a28.222200854000985,28.222200854000985 0 0,0 -0.352998135189105,0.3337817698539772 l -4.916682299306068 -5.290219309558248" fill="#ff3404" stroke="none" /><path d="M 114.0293411484842 115.62618273729858 l 5.08124028073269 5.659595010092838 a28.605919962030114,28.605919962030114 0 0,0 -0.3692311122785884,0.3258035268205586 l -4.983066815547514 -5.746221678685686" fill="#ff3905" stroke="none" /><path d="M 113.48314897796784 116.09983520530334 l 14.230001318978815 16.991629817423988 a43.16322227002452,43.16322227002452 0 0,0 -0.5737211754204223,0.47213346863224637 l -13.935410015013701 -17.234058404913412" fill="#fdff18" stroke="none" /><path d="M 112.92097659922987 116.55440617244103 l 9.682734530201179 12.405557663684966 a36.73700126864591,36.73700126864591 0 0,0 -0.5018471554891708,0.38479499896857355 l -9.467758646218515 -12.57039200448091" fill="#ffad10" stroke="none" /><path d="M 112.63410532772338 116.77436683061366 l 4.355169012686696 5.782380369096741 a28.239020642461366,28.239020642461366 0 0,0 -0.39079446758855635,0.28910040454578523 l -4.254989574679576 -5.856490722382294" fill="#ff3404" stroke="none" /><path d="M 112.04921762599082 117.19931262002967 l 3.776311205163976 5.3903879060193605 a27.581550584444884,27.581550584444884 0 0,0 -0.3911892834763142,0.26906355622933836 l -3.682965037064778 -5.454592251613793" fill="#ff2a04" stroke="none" /><line stroke="#e1ed5e" stroke-width="0.3" x1="143.8653032363475" x2="146.44561519142675" y1="172.8068346515853" y2="177.08958963109032" /><path d="M 144.38136562736335 173.6633856474863 a86.0,86.0 0 0,1 -40.68145358897372,12.25698825130547" fill="none" id="id42" stroke="none" /><text fill="#e1ed5e" style="font-size:6.75px; font-family:Arial;" text-anchor="middle"><textPath startOffset="21.466115282336833" xlink:href="#id42">June</textPath></text><path d="M 110.8373102113329 117.98757091392108 l 5.645571429806166 9.37041705579777 a31.939707151867886,31.939707151867886 0 0,0 -0.47336490740980247,0.27967233102880984 l -5.483438651367982 -9.466207959120329" fill="#ff6a09" stroke="none" /><path d="M 110.5260780823613 118.17145234162733 l 4.51860849682949 7.800595654729353 a30.014827525593716,30.014827525593716 0 0,0 -0.44929514491990097,0.2551215091685107 l -4.38366458498839 -7.877220329692492" fill="#ff4e07" stroke="none" /><path d="M 109.89434966115114 118.52300852407294 l 5.239941487879008 9.809586700449602 a32.12137482643371,32.12137482643371 0 0,0 -0.4899413609649107,0.2563141639980973 l -5.070309224387602 -9.898330283392417" fill="#ff6c0a" stroke="none" /><path d="M 108.59647513512805 119.15986991738527 l 3.005438746081055 6.698538007081061 a28.34187125253193,28.34187125253193 0 0,0 -0.44682893396309875,0.19587667355748947 l -2.8896891374602025 -6.749279233933005" fill="#ff3505" stroke="none" /><path d="M 108.2653958097858 119.30500536409082 l 4.319022342105105 10.087689857907472 a31.97339695176167,31.97339695176167 0 0,0 -0.5078114485823522,0.21226522669215114 l -4.144739434025292 -10.160540127619596" fill="#ff6a09" stroke="none" /><path d="M 107.93186726928326 119.44442032107085 l 6.96026852018543 17.062613639301695 a39.427645592347616,39.427645592347616 0 0,0 -0.6306150083695415,0.25093472624078134 l -6.665532435774023 -17.179895209948544" fill="#ffd113" stroke="none" /><path d="M 107.59598834532513 119.57807347666477 l 6.797940841386214 17.52116765221064 a39.793704147396255,39.793704147396255 0 0,0 -0.6407350665947634,0.2422711766658872 l -6.4953355540311755 -17.635587078983157" fill="#ffd614" stroke="none" /><path d="M 107.2578585660854 119.70592522655815 l 2.5247510454920707 6.854991023195947 a28.305153644504017,28.305153644504017 0 0,0 -0.45865191040927095,0.16445625701941283 l -2.406379574453065 -6.89743482125532" fill="#ff3505" stroke="none" /><path d="M 106.57524785965236 119.94407469862006 l 5.786655110725264 17.552111227873613 a39.48139567040676,39.48139567040676 0 0,0 -0.6472667521590482,0.20723437403098682 l -5.483667013475276 -17.649118448564305" fill="#ffd213" stroke="none" /><path d="M 106.2309692047433 120.05430185196036 l 1.4000128770602878 4.5059251475397275 a25.71841048353845,25.71841048353845 0 0,0 -0.42389454695099976,0.127715949736345 l -1.3222433556690423 -4.529356466381798" fill="#ff0e01" stroke="none" /><path d="M 105.88484417918355 120.15858648285463 l 3.0950871935614 10.602248923443799 a32.044783699575696,32.044783699575696 0 0,0 -0.5308276892339032,0.15001720727197346 l -2.9121283362228914 -10.653954924054291" fill="#ff6b09" stroke="none" /><path d="M 105.53697534728816 120.25689768951611 l 2.8560560741059637 10.448815835349727 a31.832119306003456,31.832119306003456 0 0,0 -0.5297919010958501,0.1399228562830721 l -2.675773730198616 -10.496430040936383" fill="#ff6809" stroke="none" /><path d="M 105.18746579009965 120.34920634021253 l 1.7658141180656366 6.926872831731532 a28.14840308925989,28.14840308925989 0 0,0 -0.47054306877184443,0.11564803804813407 l -1.646317764550581 -6.956242128093696" fill="#ff3304" stroke="none" /><path d="M 104.13013068566511 120.58985236759428 l 5.828725731271826 29.057821999343908 a50.63665067101789,50.63665067101789 0 0,0 -0.8560786132300375,0.1640695037098085 l -5.327679503470084 -29.153848701402186" fill="#a2ff22" stroke="none" /><path d="M 103.41894727170886 120.7198165907248 l 1.1976663604120037 7.258207089053572 a28.356356085620792,28.356356085620792 0 0,0 -0.48227968726333903,0.07532216856781553 l -1.0725508095401475 -7.277747564968494" fill="#ff3605" stroke="none" /><path d="M 103.06178313531738 120.77559828337769 l 2.1930214407789816 14.880653026960873 a36.04138216882066,36.04138216882066 0 0,0 -0.6145423089887363,0.08516996430356624 l -1.936550540603415 -14.916197556757043" fill="#ffa30f" stroke="none" /><path d="M 101.62511606390274 120.93702456842531 l 3.3641268892422036 43.34140120565564 a64.47176564388121,64.47176564388121 0 0,0 -1.1071866461674824,0.07635807350101981 l -2.6175774822957907 -43.39288762367295" fill="#34ff58" stroke="none" /><line stroke="#e1ed5e" stroke-width="0.3" x1="102.19456741930631" x2="102.32365962044197" y1="184.97166512339345" y2="189.96999836594603" /><path d="M 102.22038585953345 185.97133177190398 a86.0,86.0 0 0,1 -42.740103519485714,-10.115201625700543" fill="none" id="id43" stroke="none" /><text fill="#e1ed5e" style="font-size:6.75px; font-family:Arial;" text-anchor="middle"><textPath startOffset="22.20632615414155" xlink:href="#id43">July</textPath></text><path d="M 100.54218724476979 120.99299961872073 l 0.3837060591402192 14.856751483800695 a35.861705655517305,35.861705655517305 0 0,0 -0.6172317149099066,0.010626203726168806 l -0.12791465433764468 -14.861155164806023" fill="#ffa10e" stroke="none" /><path d="M 99.81925306533755 120.99922214144158 l -0.15443350019004293 17.942121024776807 a38.94278564141362,38.94278564141362 0 0,0 -0.670261548508376,-0.0115391604031672 l 0.4632547385910869 -17.93680438709448" fill="#ffca12" stroke="none" /><path d="M 99.09653310690486 120.98055641714683 l -2.2364482321502797 51.935415306597456 a72.9835460868518,72.9835460868518 0 0,0 -1.2546633784213106,-0.0648517653885904 l 3.1300996789850792 -51.88922373444666" fill="#3fffbb" stroke="none" /><path d="M 98.37488393609728 120.93702456842531 l -1.425532954771973 18.36571501575372 a39.42095633361696,39.42095633361696 0 0,0 -0.6760800677911766,-0.058335033045586016 l 1.7414573403046913 -18.338455730429473" fill="#ffd113" stroke="none" /><path d="M 98.01472825383883 120.90594882070398 l -0.4189278719439575 4.411529387531902 a25.431375869743967,25.431375869743967 0 0,0 -0.43544256124909564,-0.04513540189068022 l 0.49480302979864643 -4.403664617185462" fill="#ff0a01" stroke="none" /><path d="M 97.65516085044442 120.86867818915974 l -1.7487839135692291 15.563885787889731 a36.66182575547418,36.66182575547418 0 0,0 -0.6265201849765698,-0.07586286924607276 l 2.0164315215971884 -15.53147738991831" fill="#ffac0f" stroke="none" /><path d="M 96.58105272829116 120.7198165907248 l -8.41058235386376 50.970579521731764 a72.65982841930764,72.65982841930764 0 0,0 -1.2322796487714662,-0.21424761238777723 l 9.286710974107276 -50.818253330822984" fill="#3effb8" stroke="none" /><path d="M 95.86986931433489 120.58985236759428 l -1.0687759552613116 5.3281459613961815 a26.434282052717467,26.434282052717467 0 0,0 -0.44536546196358845,-0.09333066276174906 l 1.1603328786542868 -5.308959317907892" fill="#ff1902" stroke="none" /><path d="M 95.51606077576429 120.51570834832081 l -3.3383744050749353 15.274318456823048 a36.63488241045978,36.63488241045978 0 0,0 -0.614907518049948,-0.13995094914116346 l 3.600802072517746 -15.214590774104197" fill="#ffab0f" stroke="none" /><path d="M 95.16358092515715 120.4354850818985 l -0.9409535761146389 3.9758429676763587 a25.08567264180875,25.08567264180875 0 0,0 -0.4193449038530509,-0.10306477475625823 l 1.0092517647109005 -3.9590569346060707" fill="#ff0500" stroke="none" /><path d="M 94.81253420990036 120.34920634021253 l -3.812664879712577 14.956186215516725 a36.43450419022931,36.43450419022931 0 0,0 -0.6063908298052374,-0.1601533295520509 l 4.069546152329304 -14.888341536661091" fill="#ffa90f" stroke="none" /><path d="M 94.11515582081647 120.15858648285463 l -17.65453253755061 60.475759448563906 a84.0,84.0 0 0,0 -1.3845001022390167,-0.4171385235770977 l 18.692907614229874 -60.16290555588108" fill="#4dd2ff" stroke="none" /><path d="M 93.42475214034765 119.94407469862007 l -3.3535800583559965 10.17209580829261 a31.710650416332665,31.710650416332665 0 0,0 -0.5169293059884492,-0.1753704868033651 l 3.5281790972816713 -10.11286233459112" fill="#ff6709" stroke="none" /><path d="M 93.08242187328487 119.8279376855182 l -4.985388114468856 14.289678130278132 a36.13436472795725,36.13436472795725 0 0,0 -0.5855151193330953,-0.2099448901627181 l 5.230622794431677 -14.201745699075456" fill="#ffa40f" stroke="none" /><path d="M 92.7421414339146 119.70592522655815 l -5.988892853935113 16.260536588709975 a38.3283550220063,38.3283550220063 0 0,0 -0.6171408677244042,-0.23334986952846276 l 6.2679039424197995 -16.15503846907488" fill="#ffc212" stroke="none" /><path d="M 91.7346041902142 119.30500536409082 l -20.79524009785305 48.5702355791977 a73.83474041713575,73.83474041713575 0 0,0 -1.1640550497202837,-0.5102875253728172 l 21.628215822231077 -48.205083500530435" fill="#40ffc5" stroke="none" /><path d="M 91.07499286063937 119.00905698771935 l -2.2165130355526896 4.720872706199566 a26.21532061765286,26.21532061765286 0 0,0 -0.406820994933578,-0.1952988000392686 l 2.29744669848651 -4.6820196296607355" fill="#ff1602" stroke="none" /><path d="M 90.42595943632237 118.69057910512821 l -7.210372282064596 14.076192033970779 a36.815456067505224,36.815456067505224 0 0,0 -0.5615393098122881,-0.2937708269070049 l 7.451602494403379 -13.949991788119057" fill="#ffae10" stroke="none" /><line stroke="#e1ed5e" stroke-width="0.3" x1="58.666819895761336" x2="56.23545636021788" y1="174.27360380694188" y2="178.64263932499728" /><path d="M 58.180547188652646 175.14741091055294 a86.0,86.0 0 0,1 -31.652253787137756,-30.449443065178592" fill="none" id="id44" stroke="none" /><text fill="#e1ed5e" style="font-size:6.75px; font-family:Arial;" text-anchor="middle"><textPath startOffset="22.20632615414155" xlink:href="#id44">August</textPath></text><path d="M 89.7882731507175 118.34994917583269 l -4.8209017187396155 8.662913024036882 a30.913987867844828,30.913987867844828 0 0,0 -0.46275477169713625,-0.2627642365273058 l 4.969305257357959 -8.578645621714944" fill="#ff5b08" stroke="none" /><path d="M 89.1626897886671 117.98757091392108 l -5.748212569030184 9.540778956903731 a32.138600039648324,32.138600039648324 0 0,0 -0.47139796653657196,-0.28957113273768603 l 5.911589735499065 -9.440419357337667" fill="#ff6d0a" stroke="none" /><path d="M 88.8546689885994 117.79835938074946 l -3.9850864397287817 6.363920510309808 a28.508688180611315,28.508688180611315 0 0,0 -0.413672194685812,-0.2640251668709645 l 4.094040436461517 -6.294380914615039" fill="#ff3805" stroke="none" /><path d="M 88.54995079064634 117.60387380957326 l -4.440698383174451 6.827350043169966 a29.144477315475875,29.144477315475875 0 0,0 -0.41818897176914843,-0.27715284734093865 l 4.557562053683561 -6.749899174737709" fill="#ff4106" stroke="none" /><path d="M 86.79598089348748 116.32954008644616 l -2.4228263944940727 2.996333193116715 a24.853323285429106,24.853323285429106 0 0,0 -0.3303478539951962,-0.2718537938706455 l 2.4740443770339575 -2.9541842803888887" fill="#ff0100" stroke="none" /><path d="M 86.24171649860922 115.8653595955263 l -8.771703462038085 10.11508664409258 a34.388717617585,34.388717617585 0 0,0 -0.44387261352296975,-0.39166597325018676 l 8.944518428467642 -9.962597529070104" fill="#ff8c0c" stroke="none" /><path d="M 84.19399662182784 113.82643327865904 l -4.115458057606593 3.6000312592111765 a26.467835046086947,26.467835046086947 0 0,0 -0.2970163611454972,-0.3454971296070221 l 4.176816928322869 -3.5286570304426244" fill="#ff1a02" stroke="none" /><path d="M 83.28015986056508 112.70617746262583 l -5.866821431790169 4.458468121237783 a28.368685886954744,28.368685886954744 0 0,0 -0.29211470008191004,-0.3913353774617549 l 5.942697398567164 -4.35681986426672" fill="#ff3605" stroke="none" /><line stroke="#e1ed5e" stroke-width="0.3" x1="26.63291911575756" x2="22.317208475507996" y1="142.92168965132927" y2="145.44649492493687" /><path d="M 25.769776987707644 143.4266507060508 a86.0,86.0 0 0,1 -11.730757126820373,-40.83630448921669" fill="none" id="id45" stroke="none" /><text fill="#e1ed5e" style="font-size:6.75px; font-family:Arial;" text-anchor="middle"><textPath startOffset="21.46611528233685" xlink:href="#id45">September</textPath></text><path d="M 81.18737489456691 109.33194174019688 l -4.921071873293495 2.441081760973051 a26.49325300217236,26.49325300217236 0 0,0 -0.19913684324167746,-0.41028087946249175 l 4.962361973149892 -2.3560119255452743" fill="#ff1a02" stroke="none" /><path d="M 79.86692584326677 105.97154293290107 l -4.373097900418979 1.2970767235463632 a25.561402555510163,25.561402555510163 0 0,0 -0.12148648507420334,-0.422910392072844 l 4.394777022379286 -1.221608855968923" fill="#ff0c01" stroke="none" /><path d="M 79.35854240842038 103.8639653848113 l -14.669341253177912 2.7460186166012965 a35.92414791687982,35.92414791687982 0 0,0 -0.10854833291710701,-0.6087966971192386 l 14.714436028434209 -2.4931031687488443" fill="#ffa20e" stroke="none" /><path d="M 79.23777060512086 103.15116336523772 l -4.026674763749296 0.6111439074256458 a25.072788544547695,25.072788544547695 0 0,0 -0.06108919140675848,-0.42725766241639684 l 4.036598006172653 -0.5417407730288484" fill="#ff0400" stroke="none" /><path d="M 79.04373962182676 101.35467743843564 l -10.894525843589582 0.7042558212407236 a31.91726474985345,31.91726474985345 0 0,0 -0.03072211382301396,-0.5485639802586688 l 10.905034308300127 -0.5166201246466171" fill="#ff6a09" stroke="none" /><line stroke="#e1ed5e" stroke-width="0.3" x1="15.007084014347285" x2="10.007500721073583" y1="101.09737516637583" y2="101.16192664675087" /><path d="M 14.007167355692545 101.11028546245083 a86.0,86.0 0 0,1 10.666146001902534,-42.60595125391555" fill="none" id="id46" stroke="none" /><text fill="#e1ed5e" style="font-size:6.75px; font-family:Arial;" text-anchor="middle"><textPath startOffset="22.20632615414155" xlink:href="#id46">October</textPath></text><path d="M 79.00175016825051 100.2711162175752 l -15.624438474786073 0.20173293940981576 a36.62574074504048,36.62574074504048 0 0,0 -0.0027132744833818765,-0.6304694349095995 l 15.625596046558957 0.06724597370345917" fill="#ffab0f" stroke="none" /><path d="M 79.03285615573316 98.82574320788736 l -3.9692251056778254 -0.22229491886853564 a24.975445002826465,24.975445002826465 0 0,0 0.027733934136556924,-0.4290316857627171 l 3.9648105805368554 0.29058566888426457" fill="#ff0300" stroke="none" /><path d="M 79.05617556472873 98.46500227214037 l -11.046883191053746 -0.8096391683670378 a32.076513161628974,32.076513161628974 0 0,0 0.04509883849370434,-0.5503200607922115 l 11.031309868740545 0.9996731463670278" fill="#ff6c09" stroke="none" /><path d="M 79.12142395522702 97.74499172005258 l -14.354602085612802 -1.5503809497827936 a35.438084434083656,35.438084434083656 0 0,0 0.07072369566006936,-0.6059174341823802 l 14.325788036949143 1.7972421222900357" fill="#ff9b0e" stroke="none" /><path d="M 79.16333360222342 97.38593545837743 l -7.564774111857734 -0.9490389390359355 a28.62407255154615,28.62407255154615 0 0,0 0.06554094912081795,-0.4883561986014014 l 7.5473171636790815 1.0791134797019963" fill="#ff3a05" stroke="none" /><path d="M 79.21141760316559 97.0276538004421 l -7.189730708687792 -1.0279858597316902 a28.26284948152284,28.26284948152284 0 0,0 0.07300442947546128,-0.4810079757630935 l 7.170970385773028 1.1515929478868758" fill="#ff3405" stroke="none" /><path d="M 79.26566170972629 96.67025291283419 l -11.110980685764 -1.7843229456390752 a32.25334173362538,32.25334173362538 0 0,0 0.09274853652598761,-0.5474071127700142 l 11.078620287717788 1.9753158467249172" fill="#ff6e0a" stroke="none" /><path d="M 79.32604984820605 96.31383870115002 l -18.360359137856836 -3.2736484701779056 a39.64992123247123,39.64992123247123 0 0,0 0.12558503846708718,-0.6708802971799637 l 18.30128837547989 3.589206844820442" fill="#ffd413" stroke="none" /><path d="M 79.3925641242962 95.95851677861259 l -7.273331562535468 -1.4264291613412894 a28.411885871416224,28.411885871416224 0 0,0 0.09825195982690782,-0.4791114495893127 l 7.247700306793566 1.5514162670940044" fill="#ff3705" stroke="none" /><path d="M 79.46518482838121 95.60439243477599 l -10.386722625944108 -2.2233439244967967 a31.62201793986887,31.62201793986887 0 0,0 0.1185157288661878,-0.5312827739080268 l 10.346912510075882 2.4018048679547825" fill="#ff6509" stroke="none" /><path d="M 79.54389044137918 95.25157060432595 l -14.587652981977984 -3.386198144618589 a35.9755119243794,35.9755119243794 0 0,0 0.14521635261968135,-0.6020155328019235 l 14.527203829097488 3.6367989090799093" fill="#ffa20f" stroke="none" /><path d="M 80.803312248108 91.48605970444005 l -5.3128123792532165 -2.356290209180255 a26.811891166137315,26.811891166137315 0 0,0 0.19074449609769975,-0.42028021301019547 l 5.271465566192165 2.4473924310325215" fill="#ff1f03" stroke="none" /><path d="M 80.95270993114464 91.15688171328213 l -6.474603875318372 -3.005975533637844 a28.138374062145875,28.138374062145875 0 0,0 0.20774401604530987,-0.43756187912083155 l 6.421901665431311 3.116979828399208" fill="#ff3204" stroke="none" /><path d="M 81.10775173730289 90.83032412892265 l -5.209262721923023 -2.5284047733819497 a26.790444611951443,26.790444611951443 0 0,0 0.20493412740172343,-0.4131346955919112 l 5.164968581567887 2.617699057472822" fill="#ff1e03" stroke="none" /><path d="M 81.26839172434947 90.50648371742162 l -9.920443271112344 -5.0278592387139485 a32.12180575354917,32.12180575354917 0 0,0 0.25420671933824035,-0.4910464693878182 l 9.832427118613989 5.197878430362103" fill="#ff6c0a" stroke="none" /><line stroke="#e1ed5e" stroke-width="0.3" x1="26.266209847984243" x2="21.928928074336255" y1="57.711370442889674" y2="55.22380399835377" /><path d="M 25.398753493254645 57.213857153982495 a86.0,86.0 0 0,1 29.58750427330803,-30.492523968695096" fill="none" id="id47" stroke="none" /><text fill="#e1ed5e" style="font-size:6.75px; font-family:Arial;" text-anchor="middle"><textPath startOffset="21.46611528233685" xlink:href="#id47">November</textPath></text><path d="M 84.07557802195018 86.31012108654704 l -4.224080816154788 -3.6313503230137605 a26.570418647629552,26.570418647629552 0 0,0 0.30114170601327733,-0.34425702758072546 l 4.160947246563667 3.703522906797429" fill="#ff1b02" stroke="none" /><path d="M 85.57189188830299 84.74124197986013 l -3.5540442494737614 -3.758656420908342 a26.172883974887995,26.172883974887995 0 0,0 0.33001777785249,-0.3067155578771565 l 3.4888185878264153 3.819276564860146" fill="#ff1502" stroke="none" /><line stroke="#e1ed5e" stroke-width="0.3" x1="56.762969772571076" x2="54.21961505331055" y1="26.818313649435495" y2="22.513508569990535" /><path d="M 56.25429882871897 25.957352633546506 a86.0,86.0 0 0,1 42.265352541879196,-11.944610805530505" fill="none" id="id48" stroke="none" /><text fill="#e1ed5e" style="font-size:6.75px; font-family:Arial;" text-anchor="middle"><textPath startOffset="22.20632615414155" xlink:href="#id48">December</textPath></text><path d="M 97.11714578562143 79.19881850522333 l -1.0044181598641464 -7.247360735682385 a28.31663129267668,28.31663129267668 0 0,0 0.48338548841419476,-0.06275730965257391 l 0.879517942942094 7.263576368499096" fill="#ff3505" stroke="none" /></svg>