<?xml version="1.0" encoding="utf-8" ?>
<svg baseProfile="full" height="200mm" version="1.1" viewBox="0,0,200,200" width="200mm" xmlns="http://www.w3.org/2000/svg" xmlns:ev="http://www.w3.org/2001/xml-events" xmlns:xlink="http://www.w3.org/1999/xlink"><defs /><rect fill="#1a1a1a" height="200" width="200" x="0" y="0" /><text alignment-baseline="middle" fill="#e1ed5e" style="dominant-baseline: central; font-size:9.0px; font-family:Arial;" text-anchor="middle" x="100.0" y="100.0">2016</text><line stroke="#e1ed5e" stroke-width="0.3" x1="100.0" x2="100.0" y1="15.0" y2="10.0" /><path d="M 100.0 14.0 a86.0,86.0 0 0,1 42.35913384403234,11.155469271406648" fill="none" id="id49" stroke="none" /><text fill="#e1ed5e" style="font-size:6.75px; font-family:Arial;" text-anchor="middle"><textPath startOffset="22.145653131862478" xlink:href="#id49">January</textPath></text><path d="M 100.0 79.0 l 0.0 -6.1835509386341165 a27.183550938634117,27.183550938634117 0 0,0 0.4666417993164783,0.004005558616325659 l -0.10614887446762353 6.182639778212226" fill="#ff3004" stroke="none" /><path d="M 106.04205211174951 79.88797359093562 l 1.462281290209606 -4.867458833892893 a26.08236382713192,26.08236382713192 0 0,0 0.4277003000344302,0.13250264624509156 l -1.5456222231156664 4.841639599841154" fill="#ff2003" stroke="none" /><line stroke="#e1ed5e" stroke-width="0.3" x1="143.13028292997686" x2="145.6673583964461" y1="26.7553504044142" y2="22.446841604673864" /><path d="M 143.63769802327073 25.89364864446614 a86.0,86.0 0 0,1 29.32050498858742,28.57503671076993" fill="none" id="id50" stroke="none" /><text fill="#e1ed5e" style="font-size:6.75px; font-family:Arial;" text-anchor="middle"><textPath startOffset="20.669276256404974" xlink:href="#id50">February</textPath></text><path d="M 113.31354834802062 83.75963576809568 l 4.118152592553381 -5.023476560669972 a27.495729176247632,27.495729176247632 0 0,0 0.3624535017580488,0.30237160227206195 l -4.203780428473323 4.952042774486039" fill="#ff3505" stroke="none" /><path d="M 115.16444852881244 85.47280134310134 l 2.2565880661318216 -2.1617603212670846 a24.124963581677925,24.124963581677925 0 0,0 0.2839211433588992,0.30151441526378187 l -2.2933650432269808 2.122704446058808" fill="#ff0300" stroke="none" /><path d="M 115.41159269507618 85.73525988315684 l 5.061331315845036 -4.684692704657049 a27.896623842563883,27.896623842563883 0 0,0 0.3222754801407284,0.3542372070292259 l -5.141004496827642 4.597117922070151" fill="#ff3b05" stroke="none" /><path d="M 115.8921839302757 86.27271002978787 l 4.664851005860143 -4.029387194750831 a27.164154124622158,27.164154124622158 0 0,0 0.3017878492859548,0.3555053276241038 l -4.73333341865321 3.948715084677175" fill="#ff3004" stroke="none" /><path d="M 116.57777611688842 87.10902102172516 l 5.253473458950512 -4.08513273703006 a27.654869860714946,27.654869860714946 0 0,0 0.288200646930545,0.37726389819713696 l -5.3228260832353635 3.9943479255920407" fill="#ff3705" stroke="none" /><path d="M 116.7966241395341 87.39550010848427 l 2.604135802555286 -1.9541920547917186 a24.25582399173563,24.25582399173563 0 0,0 0.24706056024583037,0.33518509932792057 l -2.637298382384942 1.9092006461949231" fill="#ff0500" stroke="none" /><path d="M 117.01052211995028 87.68569379921539 l 7.162226331672967 -5.184899528986415 a29.841983326821712,29.841983326821712 0 0,0 0.29683522604255763,0.4175359191226427 l -7.250176656245485 5.0611863831542685" fill="#ff5708" stroke="none" /><path d="M 117.42321728460499 88.27688183743584 l 2.6302117174914312 -1.7697238261476413 a24.17016341844768,24.17016341844768 0 0,0 0.22866765612085121,0.3462319761953459 l -2.6602038125330068 1.724311971613237" fill="#ff0300" stroke="none" /><path d="M 117.81537515405839 88.88188828441811 l 7.346625440407459 -4.584837628882552 a29.65988691871086,29.65988691871086 0 0,0 0.2658543280348348,0.434253065116497 l -7.424247732897697 4.4580474476414995" fill="#ff5407" stroke="none" /><line stroke="#e1ed5e" stroke-width="0.3" x1="172.87174338648825" x2="177.1583165268699" y1="56.24261187166439" y2="53.66864786411523" /><path d="M 173.72905801456457 55.72781907015455 a86.0,86.0 0 0,1 12.242430191666344,42.057860355516425" fill="none" id="id51" stroke="none" /><text fill="#e1ed5e" style="font-size:6.75px; font-family:Arial;" text-anchor="middle"><textPath startOffset="22.145653131862474" xlink:href="#id51">March</textPath></text><path d="M 120.16314734710363 94.1308016681162 l 5.263175351013379 -1.532033638340543 a26.481618542412612,26.481618542412612 0 0,0 0.1233053615896578,0.437567228401915 l -5.288699204677619 1.441458486035615" fill="#ff2603" stroke="none" /><path d="M 120.26092885502905 94.47779374421319 l 2.8679931777373193 -0.7816842939914767 a23.972610839484503,23.972610839484503 0 0,0 0.10480656417329633,0.3979675952251557 l -2.8809892227153457 0.7323361943935224" fill="#ff0000" stroke="none" /><path d="M 120.51834098615036 95.52812308129327 l 6.3353303266760985 -1.3807557579518044 a27.48404941461884,27.48404941461884 0 0,0 0.09651127236429594,0.4618413757370476 l -6.358099309864761 1.2717979309293523" fill="#ff3505" stroke="none" /><path d="M 120.592083275326 95.88100663000786 l 8.80949493469644 -1.762145711234236 a29.984005705255505,29.984005705255505 0 0,0 0.09662518277655241,0.5055837862027351 l -8.83844640975515 1.6106593599981864" fill="#ff5908" stroke="none" /><path d="M 120.65975698304385 96.23510406497455 l 4.335158759340449 -0.7900103376882106 a25.406553959994188,25.406553959994188 0 0,0 0.07450796488188757,0.42974214171756386 l -4.348081541714571 0.715475163050054" fill="#ff1602" stroke="none" /><path d="M 120.7213421655516 96.59031103205396 l 9.568887982513376 -1.5745568761336457 a30.697569106640522,30.697569106640522 0 0,0 0.08109787281042398,0.5207065191315068 l -9.594507347462065 1.4100621750706976" fill="#ff6309" stroke="none" /><path d="M 120.77682067341334 96.94652285012252 l 6.643479582892242 -0.9763627179011699 a27.71484215192088,27.71484215192088 0 0,0 0.0651371158573347,0.47129972232571643 l -6.65926121530479 0.8621746873753678" fill="#ff3805" stroke="none" /><path d="M 120.82617615685814 97.30363454192243 l 3.5338896675108713 -0.45753276839520657 a24.563384966053412,24.563384966053412 0 0,0 0.05055134536350338,0.4186376569292807 l -3.5412230991340383 0.396801434542513" fill="#ff0901" stroke="none" /><path d="M 120.86939407059847 97.66154086499901 l 15.554250830079255 -1.7428862485729277 a36.65159325310001,36.65159325310001 0 0,0 0.06469461302988225,0.6258616948422422 l -15.581877835590802 1.475620031447754" fill="#ffb510" stroke="none" /><path d="M 120.93736805541906 98.37931529534042 l 3.317875198715585 -0.2568245240898822 a24.32780027502042,24.32780027502042 0 0,0 0.02865587677959148,0.4166501592748139 l -3.3217950366602422 0.19983094066073417" fill="#ff0600" stroke="none" /><path d="M 120.96210409425399 98.7389718711861 l 17.64752307894044 -1.0616311657633986 a38.679426788045355,38.679426788045355 0 0,0 0.03418231818652316,0.6631278409388578 l -17.663146986583538 0.7585315314478102" fill="#ffcf13" stroke="none" /><path d="M 120.98066250479742 99.09900007780936 l 4.283546004335549 -0.18395389639025272 a25.28749407081295,25.28749407081295 0 0,0 0.01490193591388844,0.4338536046945651 l -4.286072627246286 0.11039402713156768" fill="#ff1402" stroke="none" /><line stroke="#e1ed5e" stroke-width="0.3" x1="184.99686870605535" x2="189.99668451229388" y1="99.2704041080226" y2="99.22748670261217" /><path d="M 185.99683186730306 99.26182062694052 a86.0,86.0 0 0,1 -10.086455211305974,41.156179273409016" fill="none" id="id52" stroke="none" /><text fill="#e1ed5e" style="font-size:6.75px; font-family:Arial;" text-anchor="middle"><textPath startOffset="21.40746469413373" xlink:href="#id52">April</textPath></text><path d="M 120.99922638620191 99.81974689727618 l 2.986068030042874 -0.025631802689327986 a23.986178037115877,23.986178037115877 0 0,0 0.0,0.41176981082630937 l -2.986068030042874 -0.025631802689327625" fill="#ff0100" stroke="none" /><path d="M 120.99303781780057 100.54070618675476 l 23.53018166341842 0.6060540123490614 a44.53798527018311,44.53798527018311 0 0,0 -0.026246262297542244,0.7641312896087089 l -23.516310714124035 -1.009891566521881" fill="#e5ff1a" stroke="none" /><path d="M 120.98066250479742 100.90099992219065 l 3.0601392749752345 0.13141554743634828 a24.0629597497117,24.0629597497117 0 0,0 -0.021265251710719857,0.4125402021303151 l -3.057432433807942 -0.18392754294339406" fill="#ff0200" stroke="none" /><path d="M 120.93736805541906 101.62068470465957 l 14.70147666049212 1.137987272158709 a35.74545458880769,35.74545458880769 0 0,0 -0.05260773839821253,0.6113816638232833 l -14.679775299396166 -1.3901899833576497" fill="#ffa80f" stroke="none" /><path d="M 120.9064616781168 101.97986365728391 l 6.305901653018904 0.5971754427621191 a27.33411510528382,27.33411510528382 0 0,0 -0.04824810717064875,0.46675666972155205 l -6.294721153366589 -0.7053366347666025" fill="#ff3204" stroke="none" /><path d="M 120.82617615685814 102.69636545807757 l 29.490929046122403 3.8181911939890782 a50.73707248532178,50.73707248532178 0 0,0 -0.11924536862316186,0.8628000853432465 l -29.42103916094403 -4.32387958753241" fill="#9bff22" stroke="none" /><path d="M 120.77682067341334 103.0534771498775 l 5.6890739158510755 0.8360979516102937 a26.75018450179679,26.75018450179679 0 0,0 -0.07066953910408226,0.45374913595496047 l -5.673882884608726 -0.9336352694967047" fill="#ff2a04" stroke="none" /><path d="M 120.7213421655516 103.40968896794604 l 12.284502505528616 2.0214102124832776 a33.44970285008725,33.44970285008725 0 0,0 -0.09809552642157872,0.565788928527955 l -12.247992161614803 -2.2319921739318205" fill="#ff890c" stroke="none" /><path d="M 120.65975698304385 103.76489593502545 l 13.57661166991087 2.4741109069878178 a34.800203230954104,34.800203230954104 0 0,0 -0.11214565628443074,0.5867934619238194 l -13.53213972134428 -2.7068069339449514" fill="#ff9c0e" stroke="none" /><path d="M 120.592083275326 104.11899336999214 l 41.74745335483978 8.35065987658884 a63.5744451753513,63.5744451753513 0 0,0 -0.22324405334768296,1.0683036105256747 l -41.59795159066773 -9.066079938399923" fill="#33ff51" stroke="none" /><path d="M 120.43855184770803 104.8234425847677 l 5.879926056345282 1.3876465390888997 a27.04144795107378,27.04144795107378 0 0,0 -0.11049969215535639,0.4508764521062726 l -5.85523883767363 -1.4883788158032718" fill="#ff2e04" stroke="none" /><path d="M 120.35273937422433 105.17358676015961 l 2.8525004250417654 0.7250944534294744 a23.943216037136526,23.943216037136526 0 0,0 -0.10467805217019109,0.3974796142171212 l -2.839632892066844 -0.7739545720193989" fill="#ff0000" stroke="none" /><path d="M 120.26092885502905 105.52220625578681 l 6.905821091709779 1.8822122473678424 a28.157729241515437,28.157729241515437 0 0,0 -0.13110977261862286,0.4652623298900194 l -6.872492827016576 -2.0004825011608705" fill="#ff3e05" stroke="none" /><path d="M 120.16314734710363 105.8691983318838 l 26.393078973237575 7.682640632255014 a48.48849913640123,48.48849913640123 0 0,0 -0.23949550323468383,0.7972026385772869 l -26.257307149999264 -8.134580874423024" fill="#b5ff1f" stroke="none" /><path d="M 120.05942366710727 106.21446072829308 l 8.562182250097372 2.652585947868928 a29.963658689102022,29.963658689102022 0 0,0 -0.15643210651109657,0.49002134560666094 l -8.51538542780902 -2.7991763271669727" fill="#ff5808" stroke="none" /><path d="M 119.94978838288452 106.5578916946017 l 19.753582294226156 6.49339485611157 a41.79346508430332,41.79346508430332 0 0,0 -0.22989307144016102,0.6796380163910583 l -19.639203801213633 -6.831534546976789" fill="#fff717" stroke="none" /><path d="M 119.83427380445688 106.89939002012753 l 11.57759626225148 4.027288969404792 a33.25805007555398,33.25805007555398 0 0,0 -0.19219958580186913,0.537616448551592 l -11.506756506405669 -4.225440374337306" fill="#ff870c" stroke="none" /><path d="M 119.71291397450082 107.23885506374661 l 28.057764674838296 10.303199829136725 a50.889698647991196,50.889698647991196 0 0,0 -0.3081718179978203,0.8174623602537074 l -27.876762173026034 -10.783330469584591" fill="#9aff23" stroke="none" /><path d="M 119.58574465831526 107.57618678355244 l 10.435058350629427 4.036504740608505 a32.18855724845683,32.18855724845683 0 0,0 -0.20377092626374338,0.5136358472057525 l -10.36422874939956 -4.215041605027823" fill="#ff780b" stroke="none" /><path d="M 119.4528033332814 107.91128576633888 l 41.18884277802767 16.751143782154987 a65.4648354028609,65.4648354028609 0 0,0 -0.43229908390712946,1.0373604284214235 l -40.89521784958406 -17.455736720017686" fill="#35ff67" stroke="none" /><path d="M 119.31412917781788 108.2440532568976 l 2.737771127196586 1.1685916962659175 a23.976742732836165,23.976742732836165 0 0,0 -0.16482996524845175,0.3771632175181979 l -2.717307279931169 -1.2154169835599602" fill="#ff0100" stroke="none" /><path d="M 119.16976305983485 108.57439118712176 l 23.62713006708851 10.56811475404687 a46.88293500864655,46.88293500864655 0 0,0 -0.3349127897375113,0.7318448877117628 l -23.44223281249594 -10.972148623973323" fill="#c8ff1d" stroke="none" /><path d="M 119.0197475246899 108.90220220490707 l 11.314371925565643 5.295697357294512 a33.49237457692028,33.49237457692028 0 0,0 -0.24819562782594823,0.5186334042174782 l -11.221797039779782 -5.489143263577094" fill="#ff8a0c" stroke="none" /><path d="M 118.8641267826498 109.22738970284198 l 16.486819360482535 8.064529514265843 a39.35352415509475,39.35352415509475 0 0,0 -0.3020478304163029,0.6042979946527904 l -16.3459516168545 -8.346359365082378" fill="#ffd814" stroke="none" /><path d="M 118.70294669586154 109.54985784667822 l 5.898137370909765 3.0116309674791615 a27.622533165670205,27.622533165670205 0 0,0 -0.21925968538995594,0.4204593572084262 l -5.84556961654486 -3.1124365677920904" fill="#ff3705" stroke="none" /><path d="M 118.5362547648365 109.86951160357373 l 45.858848951227934 24.417254056589407 a72.95417522004917,72.95417522004917 0 0,0 -0.598066691862327,1.1003753513713068 l -45.43293690975027 -25.20088424143532" fill="#3fffbd" stroke="none" /><line stroke="#e1ed5e" stroke-width="0.3" x1="174.33088141563837" x2="178.70328620479359" y1="141.23008692659167" y2="143.65538615756765" /><path d="M 175.20536237346943 141.71514677278685 a86.0,86.0 0 0,1 -30.301960400862466,31.631185727798858" fill="none" id="id53" stroke="none" /><text fill="#e1ed5e" style="font-size:6.75px; font-family:Arial;" text-anchor="middle"><textPath startOffset="22.145653131862474" xlink:href="#id53">May</textPath></text><path d="M 118.36410011445183 110.18625677009912 l 3.143012756499808 1.743376194306906 a24.594146594450002,24.594146594450002 0 0,0 -0.20795713575940072,0.36744033281897165 l -3.1126222557190286 -1.7970732972250003" fill="#ff0a01" stroke="none" /><path d="M 118.18653347947321 110.5 l 14.821419013195491 8.55715025704065 a38.11430051408131,38.11430051408131 0 0,0 -0.3320051230495271,0.5638172821908536 l -14.6723401800162 -8.810318707525052" fill="#ffc812" stroke="none" /><path d="M 117.81537515405839 111.11811171558189 l 9.427554309808002 5.883491148222237 a32.112796603717214,32.112796603717214 0 0,0 -0.295869429296928,0.46515588546076014 l -9.325167188885183 -6.04446070836167" fill="#ff770a" stroke="none" /><path d="M 117.62189284568427 111.42229804090321 l 35.616759550812226 23.0863532313555 a63.44447274290602,63.44447274290602 0 0,0 -0.6002317247416913,0.9088273337731008 l -35.215203387149806 -23.69436044346766" fill="#33ff4f" stroke="none" /><path d="M 117.423217284605 111.72311816256416 l 4.019836303833897 2.704725264813702 a25.845061678425004,25.845061678425004 0 0,0 -0.2508328010811466,0.36597255300647163 l -3.9728137659374307 -2.7733325528902175" fill="#ff1c02" stroke="none" /><path d="M 117.01052211995028 112.31430620078461 l 20.317260226139346 14.708129581294328 a46.082267418971696,46.082267418971696 0 0,0 -0.46937637780552405,0.6367992028366598 l -20.061781828749993 -15.054735093399868" fill="#d2ff1c" stroke="none" /><path d="M 116.79662413953412 112.60449989151573 l 24.58621903188423 18.449957119107292 a51.73895059986083,51.73895059986083 0 0,0 -0.5391889063115651,0.7058155865582674 l -24.265878148218363 -18.869293618906436" fill="#90ff24" stroke="none" /><path d="M 116.57777611688842 112.89097897827486 l 9.865481761895357 7.671458288882805 a33.49715978422132,33.49715978422132 0 0,0 -0.356878053423513,0.45090376221440526 l -9.732337277830283 -7.839681995011893" fill="#ff8a0c" stroke="none" /><path d="M 116.35404254752997 113.17365903436017 l 8.304209382431772 6.689283254348235 a31.66332049242503,31.66332049242503 0 0,0 -0.3446072672385946,0.420364833673212 l -8.18815529595455 -6.83085036971994" fill="#ff700a" stroke="none" /><path d="M 116.1254893667686 113.45245675266167 l 18.467835076357535 15.406524852012767 a45.05040416340708,45.05040416340708 0 0,0 -0.500500200358314,0.5895879775322408 l -18.200640312492105 -15.721279611994564" fill="#deff1b" stroke="none" /><path d="M 115.89218393027572 113.72728997021213 l 9.41453332588802 8.132049658227698 a33.440404711589466,33.440404711589466 0 0,0 -0.37897363514788,0.43120242956761007 l -9.273548626781555 -8.292464365606602" fill="#ff890c" stroke="none" /><path d="M 115.41159269507618 114.26474011684316 l 43.341821344069 40.11654278024857 a80.05802639828653,80.05802639828653 0 0,0 -0.9421844850916673,1.0005672727723423 l -42.646781025241076 -40.85465151296541" fill="#48f8ff" stroke="none" /><path d="M 114.91283532996324 114.78537596483092 l 8.4966442118751 8.42402375754574 a32.9648292562362,32.9648292562362 0 0,0 -0.4018696495777423,0.3984348868872278 l -8.350782642167394 -8.56863865466163" fill="#ff830c" stroke="none" /><path d="M 114.39649973595853 115.28858382429668 l 12.439716454724252 13.21054778985635 a39.14566390028251,39.14566390028251 0 0,0 -0.4931798690554438,0.4564799240497869 l -12.21110681435484 -13.422145460038516" fill="#ffd513" stroke="none" /><path d="M 114.13192950727249 115.5334660781643 l 4.000821277225026 4.397603424400849 a26.945207041861416,26.945207041861416 0 0,0 -0.34481521388729314,0.3083358904941399 l -3.924741036514355 -4.465634844778376" fill="#ff2d04" stroke="none" /><path d="M 113.59037401385872 116.0094264158162 l 40.77112204157618 48.02827924744859 a84.0,84.0 0 0,0 -1.10730266335242,0.9237512643525192 l -39.94064504406187 -48.721092695712976" fill="#4dd2ff" stroke="none" /><path d="M 113.31354834802062 116.24036423190432 l 1.8790390141179958 2.292122069753977 a23.963884478050854,23.963884478050854 0 0,0 -0.3203734336432618,0.2580701600975701 l -1.8394148101194816 -2.3240405236449506" fill="#ff0000" stroke="none" /><path d="M 113.03279911837588 116.46651593811092 l 13.005374880400844 16.431866309308642 a41.95581079764641,41.95581079764641 0 0,0 -0.5685812627512371,0.4421322289483867 l -12.721383673014376 -16.652699589877823" fill="#fff917" stroke="none" /><path d="M 112.7482090630111 116.68781488649013 l 4.450062838948988 5.825275105120446 a28.33054495388513,28.33054495388513 0 0,0 -0.3890013314277118,0.2919138512029628 l -4.34940851861051 -5.900807983587424" fill="#ff4106" stroke="none" /><path d="M 112.45986205192187 116.90419585922612 l 3.507819182431404 4.759030417148528 a26.9121202565559,26.9121202565559 0 0,0 -0.37423096028636793,0.2709143553786145 l -3.425607211771068 -4.81854554390022" fill="#ff2c04" stroke="none" /><path d="M 112.16784306229584 117.11559508785304 l 2.679067655652104 3.768444166508946 a25.62369710725698,25.62369710725698 0 0,0 -0.3606900308181871,0.25178965411056076 l -2.6139825336601588 -3.8138786364246284" fill="#ff1902" stroke="none" /><path d="M 111.27062007382361 117.71928675628689 l 7.948966464467627 12.497095570379376 a35.810923858707355,35.810923858707355 0 0,0 -0.5215364331987118,0.32547730698381844 l -7.7332659024792 -12.631708674204742" fill="#ffa90f" stroke="none" /><path d="M 110.96478420261333 117.91015095944535 l 10.858889875095299 17.737180533712323 a41.79718881495647,41.79718881495647 0 0,0 -0.6151496157469971,0.36937966957202 l -10.552807502790865 -17.920974203820265" fill="#fff717" stroke="none" /><line stroke="#e1ed5e" stroke-width="0.3" x1="143.1302829299769" x2="145.66735839644613" y1="173.24464959558577" y2="177.55315839532614" /><path d="M 143.63769802327073 174.10635135553383 a86.0,86.0 0 0,1 -40.68552437913181,11.842963189579606" fill="none" id="id54" stroke="none" /><text fill="#e1ed5e" style="font-size:6.75px; font-family:Arial;" text-anchor="middle"><textPath startOffset="21.407464694133747" xlink:href="#id54">June</textPath></text><path d="M 110.65571695917076 118.09573695890943 l 17.463374356669718 29.656627515925663 a55.41634785301236,55.41634785301236 0 0,0 -0.8238762477799376,0.47566517343468767 l -16.95170564102938 -29.95203958663652" fill="#68ff28" stroke="none" /><path d="M 110.34350942703117 118.27599006163325 l 7.441543923158813 13.148495077254799 a36.108259289438195,36.108259289438195 0 0,0 -0.5420637426934325,0.3006736205108649 l -7.214735992309286 -13.274301613198807" fill="#ffad10" stroke="none" /><path d="M 110.02825361518725 118.45085714620011 l 10.116237533078023 18.61273764528392 a42.18424566695321,42.18424566695321 0 0,0 -0.6392142270872438,0.34034557203943566 l -9.795234490204225 -18.783653685045927" fill="#fffc17" stroke="none" /><path d="M 109.71004243097381 118.62028667847754 l 12.228958845743504 23.450641035377167 a47.44768419769496,47.44768419769496 0 0,0 -0.7254361804100228,0.3704128826547862 l -11.824595443619899 -23.657111869704792" fill="#c2ff1e" stroke="none" /><path d="M 109.3889696526874 118.78422872680471 l 8.634331485961672 17.274446881286107 a40.312125601907326,40.312125601907326 0 0,0 -0.6216508907922771,0.3040806020098975 l -8.336520345907324 -17.42012123339323" fill="#ffe415" stroke="none" /><path d="M 109.06512990194946 118.94263497670748 l 6.813756181489993 14.238129796517587 a36.78453716151586,36.78453716151586 0 0,0 -0.5719317399165674,0.2676929328074572 l -6.568335727701919 -14.352998960895578" fill="#ffb610" stroke="none" /><path d="M 108.73861861582097 119.09545874513695 l 8.207216506775096 17.934249234060136 a40.72297387257987,40.72297387257987 0 0,0 -0.6381611855869772,0.28544138123047263 l -7.898141918332492 -18.07249436620046" fill="#ffea16" stroke="none" /><path d="M 108.4095320186766 119.2426549942271 l 1.8850356583705714 4.313330485606372 a25.70724753028666,25.70724753028666 0 0,0 -0.4058867426168865,0.1732489149055354 l -1.8107138405832537 -4.345054050171311" fill="#ff1a02" stroke="none" /><path d="M 108.07796709384702 119.3841803445677 l 2.5572882464998696 6.136560843501686 a27.64809011383604,27.64809011383604 0 0,0 -0.4396645881009629,0.1788077604144308 l -2.4515691972084657 -6.179555860495408" fill="#ff3705" stroke="none" /><path d="M 107.74402155503746 119.51999308798841 l 2.796903763765488 7.0500245574544955 a28.58455779360122,28.58455779360122 0 0,0 -0.4576629140269281,0.17703384686478185 l -2.675468587245031 -7.096998292457318" fill="#ff4506" stroke="none" /><path d="M 107.06938296918513 119.77432235084164 l 1.5809905165992055 4.4223118545323326 a25.69642131333144,25.69642131333144 0 0,0 -0.41664205410898264,0.14492973417756455 l -1.5048426904452012 -4.448800021278488" fill="#ff1a02" stroke="none" /><path d="M 106.38641147887787 120.00534299687104 l 1.7925042786143826 5.614994122386287 a26.894169202125386,26.894169202125386 0 0,0 -0.44101233742320717,0.13662674945658063 l -1.695851308319551 -5.644937459649512" fill="#ff2c04" stroke="none" /><line stroke="#e1ed5e" stroke-width="0.3" x1="101.45913802915013" x2="101.54496967792366" y1="184.9874750549273" y2="189.98673829345242" /><path d="M 101.47630435890484 185.9873277026323 a86.0,86.0 0 0,1 -42.54439059252881,-10.42667462771756" fill="none" id="id55" stroke="none" /><text fill="#e1ed5e" style="font-size:6.75px; font-family:Arial;" text-anchor="middle"><textPath startOffset="22.145653131862474" xlink:href="#id55">July</textPath></text><path d="M 98.91894614982273 120.97215588758144 l -0.37843088282107123 7.341458028105791 a28.351205065260505,28.351205065260505 0 0,0 -0.48582577459929466,-0.029226072188070055 l 0.5044010095528122 -7.333879978093029" fill="#ff4106" stroke="none" /><path d="M 94.6519064749342 120.30758222061772 l -0.7542968999419347 2.864188190153128 a23.961847025400647,23.961847025400647 0 0,0 -0.3968750506377141,-0.10817005987626861 l 0.803353351514344 -2.8508176361327173" fill="#ff0000" stroke="none" /><path d="M 94.30408787586889 120.21278271476187 l -1.6482188890426714 5.848947375687926 a27.076743446103656,27.076743446103656 0 0,0 -0.4463020781514633,-0.12991203047370975 l 1.7483809795757415 -5.819791650911697" fill="#ff2f04" stroke="none" /><line stroke="#e1ed5e" stroke-width="0.3" x1="58.13341422392154" x2="55.67067388415222" y1="173.97424548756322" y2="178.32567169271397" /><path d="M 57.64086615596768 174.84453072859336 a86.0,86.0 0 0,1 -31.369924170532247,-30.572349798747897" fill="none" id="id56" stroke="none" /><text fill="#e1ed5e" style="font-size:6.75px; font-family:Arial;" text-anchor="middle"><textPath startOffset="22.145653131862474" xlink:href="#id56">August</textPath></text><path d="M 89.65649057296885 118.27599006163327 l -4.467905032078739 7.894360085291619 a30.071003060958585,30.071003060958585 0 0,0 -0.44706636450591647,-0.2581138858931202 l 4.6027638644450555 -7.8164993021223275" fill="#ff5a08" stroke="none" /><path d="M 89.34428304082925 118.09573695890944 l -1.5006831216455243 2.5484880212214116 a23.957505879267323,23.957505879267323 0 0,0 -0.35259430008878007,-0.21172274634621094 l 1.5442101782917317 -2.522351274339282" fill="#ff0000" stroke="none" /><line stroke="#e1ed5e" stroke-width="0.3" x1="26.387840678322732" x2="22.057713659400548" y1="142.50000000000003" y2="145.00000000000006" /><path d="M 25.521815274538298 143.00000000000003 a86.0,86.0 0 0,1 -11.493303480769221,-40.785679425670985" fill="none" id="id57" stroke="none" /><text fill="#e1ed5e" style="font-size:6.75px; font-family:Arial;" text-anchor="middle"><textPath startOffset="21.40746469413373" xlink:href="#id57">September</textPath></text><path d="M 79.407916724674 104.11899336999214 l -8.656750481708464 1.7315925427787453 a29.828235476966316,29.828235476966316 0 0,0 -0.0961232042574865,-0.5029572224750505 l 8.685199978248107 -1.5827327552703803" fill="#ff5608" stroke="none" /><path d="M 79.17382384314188 102.69636545807758 l -5.8256294629785 0.7542443671476187 a26.874252565671405,26.874252565671405 0 0,0 -0.055307101391393436,-0.45802213910530265 l 5.837718650629555 -0.6541285511189167" fill="#ff2c04" stroke="none" /><path d="M 79.13060592940153 102.33845913500099 l -9.102228331324376 1.0199236699563572 a30.159192370951786,30.159192370951786 0 0,0 -0.05323471932744628,-0.514997618848687 l 9.118395443133489 -0.8635215288247389" fill="#ff5b08" stroke="none" /><line stroke="#e1ed5e" stroke-width="0.3" x1="15.003131293944662" x2="10.003315487706104" y1="100.72959589197737" y2="100.7725132973878" /><path d="M 14.003168132696942 100.73817937305945 a86.0,86.0 0 0,1 10.791469493833604,-42.45332614584628" fill="none" id="id58" stroke="none" /><text fill="#e1ed5e" style="font-size:6.75px; font-family:Arial;" text-anchor="middle"><textPath startOffset="22.145653131862435" xlink:href="#id58">October</textPath></text><path d="M 79.407916724674 95.88100663000787 l -5.7713483618445 -1.154431308406609 a26.885675284926496,26.885675284926496 0 0,0 0.09441005912110591,-0.45178630972062056 l 5.750680591899028 1.2533340694126387" fill="#ff2c04" stroke="none" /><path d="M 79.48165901384962 95.52812308129327 l -8.64760541819184 -1.8847053520456534 a29.850604145072268,29.850604145072268 0 0,0 0.11341685651040988,-0.4997355965993016 l 8.613977700123769 2.032875282583963" fill="#ff5708" stroke="none" /><path d="M 79.56144815229197 95.17655741523228 l -6.463756051273486 -1.5254288282053003 a27.641315788327972,27.641315788327972 0 0,0 0.11295093705431057,-0.46087836778336744 l 6.436617587702877 1.6361630205967854" fill="#ff3705" stroke="none" /><path d="M 79.64726062577567 94.8264132398404 l -8.54436895855903 -2.171945176770798 a29.816098159099923,29.816098159099923 0 0,0 0.13035387868401088,-0.4949749096093791 l 8.505825599070294 2.3183005907529615" fill="#ff5608" stroke="none" /><path d="M 79.73907114497095 94.47779374421319 l -12.022224408464515 -3.276710722984297 a33.460766946283854,33.460766946283854 0 0,0 0.1558021070642199,-0.5528867138327842 l 11.964203809325713 3.482605360720094" fill="#ff890c" stroke="none" /><path d="M 79.83685265289637 94.1308016681162 l -2.876453336025187 -0.8372936442368321 a23.99583785292359,23.99583785292359 0 0,0 0.1185207907953065,-0.394517165759468 l 2.861656225226251 0.8865484135870235" fill="#ff0100" stroke="none" /><path d="M 80.05021161711548 93.44210830539832 l -11.169155718096297 -3.671523332160079 a32.75713073133403,32.75713073133403 0 0,0 0.18018695937757037,-0.532690728275312 l 11.104483337146362 3.8627157349095524" fill="#ff800b" stroke="none" /><path d="M 80.16572619554312 93.10060997987247 l -6.109047469137681 -2.125043828505722 a27.468096493810815,27.468096493810815 0 0,0 0.15873921522406856,-0.444021836876407 l 6.071668083869669 2.2296006217630504" fill="#ff3405" stroke="none" /><path d="M 80.41425534168474 92.42381321644754 l -13.733578206355789 -5.312443081080524 a35.725257954949754,35.725257954949754 0 0,0 0.22616014903370352,-0.5700713143088582 l 13.640359382355953 5.547415412602964" fill="#ffa80f" stroke="none" /><path d="M 80.5471966667186 92.08871423366112 l -13.655017251153412 -5.553376640236609 a35.74108165087023,35.74108165087023 0 0,0 0.23601734825177106,-0.5663557167054751 l 13.557674058365162 5.7869648663833475" fill="#ffa80f" stroke="none" /><path d="M 80.68587082218212 91.75594674310238 l -13.646491717357888 -5.824875843582876 a35.83765192963741,35.83765192963741 0 0,0 0.2463686993670731,-0.5637397982156825 l 13.544489135973837 6.058277711574425" fill="#ffaa0f" stroke="none" /><path d="M 80.83023694016515 91.42560881287825 l -13.437267701591509 -6.010318927776796 a35.720193507485774,35.720193507485774 0 0,0 0.2551706640241316,-0.5575939518656094 l 13.33211257271233 6.2401018618570765" fill="#ffa80f" stroke="none" /><path d="M 80.9802524753101 91.09779779509293 l -13.32458080583922 -6.236576614659257 a35.71187756616584,35.71187756616584 0 0,0 0.264643280309131,-0.5530026720142578 l 13.215558267570184 6.464391788738602" fill="#ffa80f" stroke="none" /><path d="M 81.1358732173502 90.77261029715801 l -16.593615563169763 -8.116768888626146 a39.47241225854488,39.47241225854488 0 0,0 0.3029603254082897,-0.6061235958929242 l 16.45183532454973 8.40042434068284" fill="#ffda14" stroke="none" /><path d="M 81.29705330413844 90.45014215332179 l -13.191383924452214 -6.735614624157049 a35.81151964544674,35.81151964544674 0 0,0 0.2842614934591139,-0.5451088949906921 l 13.07381436201816 6.961069762252228" fill="#ffa90f" stroke="none" /><path d="M 81.46374523516351 90.13048839642627 l -14.782210419901125 -7.8706944372842695 a37.74698706703182,37.74698706703182 0 0,0 0.30944377912374976,-0.569341700208494 l 14.644921291162024 8.123290970967384" fill="#ffc312" stroke="none" /><path d="M 81.63589988554816 89.8137432299009 l -13.003067704360843 -7.212582463072481 a35.869469241059434,35.869469241059434 0 0,0 0.3032962357906873,-0.5358953873581326 l 12.877338103548785 7.434734620529719" fill="#ffaa0f" stroke="none" /><line stroke="#e1ed5e" stroke-width="0.3" x1="26.387840678322718" x2="22.05771365940052" y1="57.49999999999999" y2="54.99999999999999" /><path d="M 25.521815274538284 56.99999999999999 a86.0,86.0 0 0,1 29.574782752854787,-30.34633250058573" fill="none" id="id59" stroke="none" /><text fill="#e1ed5e" style="font-size:6.75px; font-family:Arial;" text-anchor="middle"><textPath startOffset="21.40746469413373" xlink:href="#id59">November</textPath></text><path d="M 81.81346652052679 89.5 l -12.746246053418067 -7.359048590098128 a35.71809718019625,35.71809718019625 0 0,0 0.31113233325701384,-0.5283707218954571 l 12.618040010031274 7.576770480287158" fill="#ffa80f" stroke="none" /><path d="M 81.99639281039701 89.18935116829357 l -12.63016922297349 -7.584053724158365 a35.73224509339521,35.73224509339521 0 0,0 0.3202834870718369,-0.5231590058933303 l 12.498117771446262 7.799749846176239" fill="#ffa80f" stroke="none" /><path d="M 82.18462484594161 88.88188828441811 l -12.47596519359294 -7.785924999198192 a35.70613258490763,35.70613258490763 0 0,0 0.3289764264590456,-0.5172055839256754 l 12.340471075508004 7.998944257802539" fill="#ffa80f" stroke="none" /><path d="M 82.37810715431573 88.57770195909679 l -12.628899105055394 -8.185899821866565 a36.04985210888479,36.04985210888479 0 0,0 0.34105831402654413,-0.5164057570120753 l 12.486516352108122 8.401485457217701" fill="#ffad10" stroke="none" /><path d="M 82.576782715395 88.27688183743585 l -20.412694469931957 -13.734571828979938 a45.60318188463029,45.60318188463029 0 0,0 0.44259030961741114,-0.6457524887034514 l 20.173914423499234 14.082959052753424" fill="#d8ff1c" stroke="none" /><path d="M 82.78059297857968 87.97951657250589 l -12.04484441767608 -8.408236853296591 a35.68934048986399,35.68934048986399 0 0,0 0.354998303416929,-0.4993495714114306 l 11.898731015729178 8.61376365141754" fill="#ffa80f" stroke="none" /><path d="M 82.98947788004972 87.6856937992154 l -13.108445563787498 -9.489503693686006 a37.182769399928446,37.182769399928446 0 0,0 0.3787294895678704,-0.5138192897033337 l 12.943614054635809 9.713129292658202" fill="#ffbc11" stroke="none" /><path d="M 83.2033758604659 87.39550010848427 l -11.772969015812906 -8.834655431347164 a35.719168999570684,35.719168999570684 0 0,0 0.37224140505254233,-0.487275948323406 l 11.619575633406058 9.035452292911454" fill="#ffa80f" stroke="none" /><path d="M 83.42222388311158 87.10902102172516 l -11.680308735475338 -9.082678720421411 a35.79610303067728,35.79610303067728 0 0,0 0.38137094762742096,-0.4818497339213163 l 11.522671357206354 9.28184839825741" fill="#ffa90f" stroke="none" /><path d="M 83.64595745247003 86.82634096563983 l -11.52779442915774 -9.285975182378213 a35.80268149656218,35.80268149656218 0 0,0 0.38965793980121605,-0.4753193290627202 l 11.366689670117895 9.482496793139426" fill="#ffa90f" stroke="none" /><path d="M 83.8745106332314 86.54754324733833 l -11.289930665684475 -9.41846170161247 a35.70271931517104,35.70271931517104 0 0,0 0.39664945303852156,-0.4672520583185151 l 11.126586649138838 9.610880542380542" fill="#ffa80f" stroke="none" /><path d="M 84.10781606972428 86.27271002978789 l -22.426746591777754 -19.37168956164091 a50.63479912475201,50.63479912475201 0 0,0 0.5738343795414343,-0.6529181865939985 l 22.090901148277727 19.753820026046206" fill="#9dff22" stroke="none" /><path d="M 84.34580500576568 86.00192230759919 l -11.500696526433364 -10.283993750750694 a36.42810902407018,36.42810902407018 0 0,0 0.42083538110583807,-0.46257180334326287 l 11.32246344448566 10.479903129651614" fill="#ffb210" stroke="none" /><path d="M 84.58840730492382 85.73525988315684 l -10.805690999930983 -10.001586269936436 a35.72394939888651,35.72394939888651 0 0,0 0.4204269376112108,-0.4464788382975196 l 10.6324082285835 10.185606568178466" fill="#ffa80f" stroke="none" /><path d="M 84.83555147118756 85.47280134310135 l -11.256993727026954 -10.783945346991722 a36.588886586835784,36.588886586835784 0 0,0 0.4383927045925833,-0.4498295352013521 l 11.070214221283567 10.975597574260805" fill="#ffb410" stroke="none" /><path d="M 85.08716467003674 85.21462403516908 l -10.68099193288568 -10.589701952098872 a36.040790408241705,36.040790408241705 0 0,0 0.4393682642577104,-0.4356130025128778 l 10.497631748497994 10.771494964840423" fill="#ffac10" stroke="none" /><path d="M 85.34317274990677 84.96080404539775 l -10.433821407718042 -10.70601993381599 a35.94936426713259,35.94936426713259 0 0,0 0.44564803020882965,-0.42692073197377683 l 10.248500891643912 10.883552796095334" fill="#ffab0f" stroke="none" /><path d="M 85.60350026404147 84.71141617570332 l -10.758905930441411 -11.425585259757893 a36.69388592248855,36.69388592248855 0 0,0 0.4622909423758336,-0.4278895946600408 l 10.561185216751625 11.608592600550299" fill="#ffb510" stroke="none" /><path d="M 85.86807049272753 84.46653392183569 l -19.989341210869043 -21.971787607919836 a50.704094208241514,50.704094208241514 0 0,0 0.6488553998569521,-0.5802104995930284 l 19.609220784188697 22.311693637396264" fill="#9cff22" stroke="none" /><path d="M 86.13680546590413 84.22622945171909 l -9.792178582781512 -11.141701701775883 a35.83321536985291,35.83321536985291 0 0,0 0.4655255456653886,-0.4021098787886453 l 9.599473557353274 11.308155713029238" fill="#ffaa0f" stroke="none" /><path d="M 86.40962598614128 83.9905735841838 l -9.546269000417784 -11.245480878740187 a35.75100308529724,35.75100308529724 0 0,0 0.47127596349843115,-0.3931551702608628 l 9.351818702757445 11.407698232912932" fill="#ffa90f" stroke="none" /><path d="M 86.68645165197937 83.75963576809568 l -9.401734602563304 -11.4685875144643 a35.82973745937407,35.82973745937407 0 0,0 0.47900815190919394,-0.38585505997009595 l 9.203475680298864 11.628290868227795" fill="#ffaa0f" stroke="none" /><path d="M 86.96720088162412 83.53348406188908 l -11.282020166494158 -14.254463925844341 a39.178936185882236,39.178936185882236 0 0,0 0.5309493151558305,-0.4128693988833969 l 11.035660906703084 14.446034376348543" fill="#ffd614" stroke="none" /><path d="M 87.25179093698888 83.31218511350988 l -10.700967682616458 -14.007910202222321 a38.62759931408489,38.62759931408489 0 0,0 0.5303882289414024,-0.3980132149541952 l 10.458926464764303 14.189542444440518" fill="#ffcf13" stroke="none" /><path d="M 87.54013794807813 83.09580414077388 l -12.866749627861195 -17.45621700100939 a42.68577316980871,42.68577316980871 0 0,0 0.5935741120215967,-0.4297018819733936 l 12.56519450546563 17.674519654355862" fill="#fcff18" stroke="none" /><path d="M 87.83215693770416 82.88440491214696 l -20.5635606677268 -28.92522332441268 a56.489837583489,56.489837583489 0 0,0 0.7951749184988602,-0.5550938495085405 l 20.063990658054177 29.27396198972635" fill="#5cff2a" stroke="none" /><path d="M 88.12776184653039 82.6780497279521 l -9.973567466901901 -14.551732997884711 a38.64156969372541,38.64156969372541 0 0,0 0.5503731871024834,-0.3703156426574837 l 9.722297991702428 14.720798314599305" fill="#ffcf13" stroke="none" /><path d="M 88.4268655584334 82.4767994020092 l -9.721821574028022 -14.720076957518456 a38.64070521131461,38.64070521131461 0 0,0 0.5566365955306419,-0.3608051161304061 l 9.467699346240353 14.884795915352768" fill="#ffcf13" stroke="none" /><path d="M 88.72937992617638 82.28071324371311 l -9.47401342522839 -14.894722696262606 a38.652469928595494,38.652469928595494 0 0,0 0.5629196102400943,-0.3513034701441843 l 9.216929686198599 15.055161963248327" fill="#ffcf13" stroke="none" /><path d="M 89.03521579738668 82.08984904055464 l -11.23942580063326 -18.358757369693546 a42.52599973258426,42.52599973258426 0 0,0 0.6258758815232908,-0.37582048398003354 l 10.922617162552536 18.548991854209504" fill="#feff18" stroke="none" /><line stroke="#e1ed5e" stroke-width="0.3" x1="56.869717070023135" x2="54.33264160355391" y1="26.7553504044142" y2="22.446841604673864" /><path d="M 56.362301976729285 25.89364864446614 a86.0,86.0 0 0,1 42.16139366436587,-11.88097634709845" fill="none" id="id60" stroke="none" /><text fill="#e1ed5e" style="font-size:6.75px; font-family:Arial;" text-anchor="middle"><textPath startOffset="22.145653131862474" xlink:href="#id60">December</textPath></text><path d="M 89.34428304082924 81.90426304109057 l -8.999275155734729 -15.282736643907393 a38.735529105601955,38.735529105601955 0 0,0 0.5758820927705545,-0.3324856812825629 l 8.735600595103774 15.43496922246613" fill="#ffd013" stroke="none" /><path d="M 89.65649057296885 81.72400993836675 l -8.690774482066592 -15.355765775884622 a38.644520499633,38.644520499633 0 0,0 0.5801385563538065,-0.32179307782165933 l 8.425891737556682 15.502691769139426" fill="#ffcf13" stroke="none" /><path d="M 89.97174638481275 81.54914285379989 l -16.883105466314554 -31.06301247421965 a56.35463186288645,56.35463186288645 0 0,0 0.8539368638572119,-0.4546732818188236 l 16.347379786670782 31.348256223761048" fill="#5eff2a" stroke="none" /><path d="M 90.28995756902619 81.37971332152246 l -8.15992366585991 -15.64772955555116 a38.647543581935984,38.647543581935984 0 0,0 0.5908892472284569,-0.3017122598874289 l 7.890107196917871 15.785499767111423" fill="#ffcf13" stroke="none" /><path d="M 90.61103034731259 81.2157712731953 l -7.921831288779024 -15.848969201960378 a38.71849981608395,38.71849981608395 0 0,0 0.5970756823518033,-0.2920596360822648 l 7.648595357165167 15.982622588139858" fill="#ffd013" stroke="none" /><path d="M 90.93487009805054 81.0573650232925 l -7.612076893152252 -15.906313043633725 a38.633902270040366,38.633902270040366 0 0,0 0.6006859580167992,-0.28115135876394887 l 7.33790222126393 16.034640633968216" fill="#ffcf13" stroke="none" /><path d="M 91.26138138417902 80.90454125486306 l -8.62731417857299 -18.852238462497347 a41.732521433310296,41.732521433310296 0 0,0 0.6539815937496686,-0.2925176485741785 l 8.302419181967702 18.99755986198137" fill="#fff717" stroke="none" /><path d="M 91.5904679813234 80.7573450057729 l -7.448753123496457 -17.044204858758615 a39.60077531615629,39.60077531615629 0 0,0 0.6252489567092383,-0.26688160001801187 l 7.155069091616787 17.16956110843603" fill="#ffdb14" stroke="none" /><path d="M 91.92203290615298 80.6158196554323 l -6.794019905441124 -16.303174496955613 a38.662168755668546,38.662168755668546 0 0,0 0.6148123226979921,-0.2500388193000835 l 6.513153121552691 16.41740057283499" fill="#ffcf13" stroke="none" /><path d="M 92.25597844496254 80.48000691201159 l -16.29085800850984 -41.06360415753957 a65.17704880433425,65.17704880433425 0 0,0 1.0435396027061963,-0.40366353611067146 l 15.583546143310114 41.33720758178828" fill="#35ff64" stroke="none" /><path d="M 92.592206182469 80.34994680014964 l -6.28766300189288 -16.67877313182373 a38.82459478384341,38.82459478384341 0 0,0 0.6256506694040573,-0.22974759196993452 l 6.000423180834695 16.784251572802386" fill="#ffd113" stroke="none" /><path d="M 92.93061703081487 80.22567764915836 l -5.975943490929754 -16.715777523321833 a38.7518764871767,38.7518764871767 0 0,0 0.6283233460146943,-0.218563475811894 l 5.688114372870055 16.815899431702313" fill="#ffd013" stroke="none" /><path d="M 93.27111125876988 80.10723608172694 l -5.694487581199811 -16.834740689684327 a38.77176645416409,38.77176645416409 0 0,0 0.6323070681801186,-0.2078518925250253 l 5.4046577753719305 16.93001350361138" fill="#ffd113" stroke="none" /><path d="M 93.61358852112211 79.99465700312896 l -4.484612685140516 -14.047985362527593 a35.746445120147186,35.746445120147186 0 0,0 0.5861725342220662,-0.18159774948571009 l 4.242799518046834 14.122899699819945" fill="#ffa80f" stroke="none" /><path d="M 93.95794788825049 79.88797359093562 l -5.450383503147441 -18.14255404081407 a39.943572721512716,39.943572721512716 0 0,0 0.6583841793932429,-0.19164603922753498 l 5.138139311372573 18.233443774344124" fill="#ffe015" stroke="none" /><path d="M 94.30408787586887 79.78721728523814 l -4.961495926025822 -17.60659871630902 a39.292314237982715,39.292314237982715 0 0,0 0.6507903662995033,-0.17737580827114022 l 4.65852415879164 17.6891750187243" fill="#ffd714" stroke="none" /><path d="M 94.6519064749342 79.69241777938228 l -7.51729394218764 -28.54438952722851 a50.51765372951251,50.51765372951251 0 0,0 0.8405048005602337,-0.21365303353395784 l 7.026183848402029 28.669227792597734" fill="#9eff22" stroke="none" /><path d="M 95.00130118170881 79.60360301121753 l -4.227801061677364 -17.250871072293574 a38.761386617322856,38.761386617322856 0 0,0 0.6476249638321382,-0.1528377280730315 l 3.93104394410532 17.320904944012835" fill="#ffd013" stroke="none" /><path d="M 95.35216902796891 79.52079915486377 l -3.937518503175452 -17.349433045912157 a38.79064020707062,38.79064020707062 0 0,0 0.6506438744921819,-0.14180480413126353 l 3.6391122120641515 17.414469308177136" fill="#ffd113" stroke="none" /><path d="M 95.70440661134978 79.44403061299748 l -3.09553312816643 -14.81324661388308 a36.13322835984756,36.13322835984756 0 0,0 0.6082487244913282,-0.12166677989729793 l 2.8407879181441253 14.864202790443244" fill="#ffae10" stroke="none" /><path d="M 96.05791012581881 79.37332000966035 l -3.80476607852877 -19.908143863973542 a41.2684591674106,41.2684591674106 0 0,0 0.696975669835608,-0.12701218452518098 l 3.462455675142124 19.970524222430086" fill="#fff116" stroke="none" /><path d="M 96.41257539226777 79.30868818359171 l -2.6329893359354526 -15.186382799987964 a36.41294441016771,36.41294441016771 0 0,0 0.6168049288940244,-0.10149501632770958 l 2.3719069039883554 15.229343814811342" fill="#ffb110" stroke="none" /><path d="M 96.76829788921471 79.25015418208739 l -2.63360837039898 -16.909654961132485 a38.113512905104784,38.113512905104784 0 0,0 0.6473396757308756,-0.0951366399664142 l 2.3429435890604196 16.952372674397783" fill="#ffc812" stroke="none" /><path d="M 97.12497278360702 79.19773525538626 l -6.436262726112921 -46.569590865462345 a68.01225660672017,68.01225660672017 0 0,0 1.1578995295312775,-0.14991327605401128 l 5.635885374690849 46.67321573771675" fill="#39ff85" stroke="none" /><path d="M 97.48249496171623 79.15144685158666 l -1.5046574555230068 -12.460722204954617 a33.55123866108481,33.55123866108481 0 0,0 0.5723906794804741,-0.06413756952849367 l 1.2905308744417334 12.484715534990082" fill="#ff8b0c" stroke="none" /><path d="M 97.84075906011542 79.11130261209362 l -2.0284682903077824 -19.623590630635267 a40.72815229167548,40.72815229167548 0 0,0 0.6960643638097099,-0.06591801894817043 l 1.6913043631130569 19.655520405088623" fill="#ffea16" stroke="none" /><path d="M 98.1996594967304 79.07731436759882 l -0.5214725155890085 -6.060301087372937 a27.082695360950467,27.082695360950467 0 0,0 0.46354097227538044,-0.035881002892111595 l 0.4173625485384109 6.068359857260103" fill="#ff2f04" stroke="none" /><path d="M 98.5590905019552 79.04949213459386 l -0.9955106005983034 -14.474505648155109 a35.508699290921214,35.508699290921214 0 0,0 0.6084764756317746,-0.036604433793625345 l 0.746889772834045 14.489462059773428" fill="#ffa50f" stroke="none" /><path d="M 98.9189461498227 79.02784411241856 l -0.9240809159848736 -17.926922899905026 a38.95072394636012,38.95072394636012 0 0,0 0.6680498748298895,-0.028688936066893565 l 0.616205280554164 17.940144404397746" fill="#ffd313" stroke="none" /><path d="M 99.27912038922189 79.0123766808444 l -0.40530108365074086 -11.799898828218582 a32.806857385629876,32.806857385629876 0 0,0 0.563007362331471,-0.014501072529056044 l 0.20268040724852604 11.805117618097682" fill="#ff800b" stroke="none" /><path d="M 99.63950707515114 79.00309439819443 l -0.9168965061640644 -53.40462477765385 a74.41249523140644,74.41249523140644 0 0,0 1.2773894310129035,-0.010964851947021929 l 1.3082288263923033e-14 53.41249523140644" fill="#41ffcc" stroke="none" /></svg>