<?xml version="1.0" encoding="utf-8" ?>
<svg baseProfile="full" height="200mm" version="1.1" viewBox="0,0,200,200" width="200mm" xmlns="http://www.w3.org/2000/svg" xmlns:ev="http://www.w3.org/2001/xml-events" xmlns:xlink="http://www.w3.org/1999/xlink"><defs /><rect fill="#1a1a1a" height="200" width="200" x="0" y="0" /><text alignment-baseline="middle" fill="#e1ed5e" style="dominant-baseline: central; font-size:9.0px; font-family:Arial;" text-anchor="middle" x="100.0" y="100.0">2024</text><line stroke="#e1ed5e" stroke-width="0.3" x1="100.0" x2="100.0" y1="15.0" y2="10.0" /><path d="M 100.0 14.0 a86.0,86.0 0 0,1 42.35913384403234,11.155469271406648" fill="none" id="id73" stroke="none" /><text fill="#e1ed5e" style="font-size:6.75px; font-family:Arial;" text-anchor="middle"><textPath startOffset="22.145653131862478" xlink:href="#id73">January</textPath></text><path d="M 100.0 79.0 l 0.0 -8.958021786388287 a29.958021786388287,29.958021786388287 0 0,0 0.5142692807838489,0.004414383263078173 l -0.1537763559349941 8.956701801319642" fill="#ff2e04" stroke="none" /><path d="M 101.08105385017728 79.02784411241856 l 0.733993753845789 -14.239282736600648 a35.258187812044625,35.258187812044625 0 0,0 0.6041837151304114,0.03634619198172978 l -0.9783218211086627 14.224584566794228" fill="#ff7d0b" stroke="none" /><path d="M 101.80034050326958 79.07731436759882 l 1.0516322130640363 -12.221560396428227 a33.266722008552115,33.266722008552115 0 0,0 0.5685448120770835,0.05384178481751217 l -1.2612765885261328 12.201706856105531" fill="#ff6008" stroke="none" /><path d="M 102.15924093988457 79.11130261209362 l 2.23910154486716 -21.661276297412257 a42.77669549222426,42.77669549222426 0 0,0 0.7297787734770949,0.08177323374096337 l -2.6106162199450513 21.619647303164324" fill="#ffe715" stroke="none" /><path d="M 102.51750503828377 79.15144685158666 l 0.8916752544462366 -7.384350239918719 a28.43799120900122,28.43799120900122 0 0,0 0.4841529789567921,0.06268329620627656 l -1.0183060552938203 7.367955347512046" fill="#ff1602" stroke="none" /><path d="M 103.58742460773223 79.30868818359171 l 1.7975473114195883 -10.367775212658987 a31.52244929648121,31.52244929648121 0 0,0 0.5323770418504719,0.09701683143750044 l -1.975259086821114 10.335390207290121" fill="#ff4606" stroke="none" /><path d="M 104.29559338865022 79.4440306129975 l 1.906726897419002 -9.124378447056698 a30.32147464226846,30.32147464226846 0 0,0 0.5085887120255641,0.11084454264392243 l -2.0630780260637 9.090302446279056" fill="#ff3304" stroke="none" /><path d="M 106.72888874123014 80.10723608172694 l 2.0342909023825984 -6.014019583089382 a27.34876137693796,27.34876137693796 0 0,0 0.443433113836453,0.15424905546629175 l -2.1372297882640696 5.9782120950545" fill="#ff0500" stroke="none" /><path d="M 107.40779381753099 80.34994680014964 l 2.2509528525117455 -5.970919870573962 a27.3811184634863,27.3811184634863 0 0,0 0.4383948338749878,0.16958053953650737 l -2.353119948880259 5.931399442899417" fill="#ff0500" stroke="none" /><path d="M 109.3889696526874 81.21577127319529 l 5.9925584955089874 -11.989131246811308 a34.40335873486061,34.40335873486061 0 0,0 0.5259991414945767,0.2685789095393976 l -6.197484858717143 11.884494385599076" fill="#ff710a" stroke="none" /><path d="M 110.02825361518725 81.54914285379988 l 17.657126395078844 -32.48712380335186 a57.97549628532524,57.97549628532524 0 0,0 0.8703386737372953,0.48276219103482365 l -18.212209256972237 32.17922869688389" fill="#5cff2a" stroke="none" /><line stroke="#e1ed5e" stroke-width="0.3" x1="143.13028292997686" x2="145.6673583964461" y1="26.7553504044142" y2="22.446841604673864" /><path d="M 143.63769802327073 25.89364864446614 a86.0,86.0 0 0,1 29.32050498858742,28.57503671076993" fill="none" id="id74" stroke="none" /><text fill="#e1ed5e" style="font-size:6.75px; font-family:Arial;" text-anchor="middle"><textPath startOffset="20.669276256404974" xlink:href="#id74">February</textPath></text><path d="M 110.65571695917076 81.90426304109057 l 10.239973194722566 -17.389713156608035 a41.18066338596785,41.18066338596785 0 0,0 0.6060759102779657,0.3639311701466021 l -10.536981861557967 17.211367985925513" fill="#ffd113" stroke="none" /><path d="M 110.96478420261332 82.08984904055464 l 23.204266150670314 -37.90242488881833 a65.44132963856572,65.44132963856572 0 0,0 0.9530621934843024,0.594781296909267 l -23.85149247294433 37.498507795067525" fill="#34ff5b" stroke="none" /><path d="M 111.27062007382361 82.28071324371311 l 3.738116363798452 -5.876939808515978 a27.965051002126085,27.965051002126085 0 0,0 0.4028490344194627,0.26112187702674067 l -3.838451030474922 5.811904089785342" fill="#ff0e01" stroke="none" /><path d="M 111.5731344415666 82.4767994020092 l 4.221632615626048 -6.392089848100127 a28.66035211772294,28.66035211772294 0 0,0 0.40821036680275763,0.2746621526347374 l -4.3307392705258065 6.318678021408271" fill="#ff1902" stroke="none" /><path d="M 111.8722381534696 82.67804972795209 l 4.951421843776999 -7.224272445105191 a29.758235589211914,29.758235589211914 0 0,0 0.4188895484847017,0.2924174374441076 l -5.074706483435462 7.138210191855957" fill="#ff2a04" stroke="none" /><path d="M 112.16784306229584 82.88440491214696 l 23.354375640410435 -32.850854086826395 a61.30639497384199,61.30639497384199 0 0,0 0.8525062627559901,0.6171487908270383 l -23.914862913540393 32.44510452462629" fill="#37ff2e" stroke="none" /><path d="M 112.45986205192187 83.09580414077388 l 4.690418795052623 -6.3634539165010375 a28.905287737990015,28.905287737990015 0 0,0 0.39689301542493793,0.2978359179980868 l -4.798964799388327 6.281998971238935" fill="#ff1d03" stroke="none" /><path d="M 112.7482090630111 83.31218511350987 l 6.253888685548131 -8.1865410419063 a31.301969613721603,31.301969613721603 0 0,0 0.4242013935902621,0.32986156941497863 l -6.393500023773619 8.077978420870531" fill="#ff4206" stroke="none" /><path d="M 113.03279911837588 83.53348406188908 l 30.322016218808457 -38.31087695034532 a69.85844819760635,69.85844819760635 0 0,0 0.9339383578883329,0.7523146310873086 l -30.97520534705205 37.7847140254646" fill="#3aff92" stroke="none" /><path d="M 113.31354834802062 83.75963576809568 l 4.577178267065425 -5.583413247044005 a28.219768997396145,28.219768997396145 0 0,0 0.37199792107151264,0.31033389632238945 l -4.672350522298831 5.504017166809746" fill="#ff1202" stroke="none" /><path d="M 113.59037401385872 83.9905735841838 l 4.8647084832460425 -5.730614361128349 a28.51700269940995,28.51700269940995 0 0,0 0.3704773100979496,0.32000947669692253 l -4.962365273106852 5.646260751966706" fill="#ff1702" stroke="none" /><path d="M 113.86319453409587 84.22622945171908 l 5.0453238797046644 -5.7406524177736475 a28.64266859367908,28.64266859367908 0 0,0 0.3665374655347281,0.32776006186332407 l -5.143126372062769 5.653196826026937" fill="#ff1902" stroke="none" /><path d="M 114.13192950727249 84.46653392183569 l 30.732414508669656 -33.780307071644934 a66.66826521105563,66.66826521105563 0 0,0 0.8399256272852488,0.7774226212537086 l -31.30776990726887 33.24776670425885" fill="#36ff6a" stroke="none" /><path d="M 114.39649973595853 84.71141617570332 l 5.114573109773804 -5.431499402522256 a28.46056592054657,28.46056592054657 0 0,0 0.3528127798553478,0.33798666215346257 l -5.207058375494464 5.3429006100632135" fill="#ff1602" stroke="none" /><path d="M 114.65682725009322 84.96080404539774 l 43.97048175027964 -45.117587863806776 a84.0,84.0 0 0,0 1.02403231948015,1.0152799590853623 l -44.73850598988975 44.35612789449276" fill="#4dd2ff" stroke="none" /><path d="M 114.91283532996326 85.21462403516908 l 5.493855618380551 -5.44689986960751 a28.736353646592292,28.736353646592292 0 0,0 0.34430694591812483,0.3532892582984059 l -5.586549365449487 5.351787919241362" fill="#ff1b02" stroke="none" /><path d="M 115.16444852881244 85.47280134310134 l 5.9307842670166755 -5.681557168034224 a29.213056305391653,29.213056305391653 0 0,0 0.34380173545770065,0.3651055289748744 l -6.027441836210636 5.578910179114855" fill="#ff2203" stroke="none" /><path d="M 115.41159269507618 85.73525988315684 l 34.95386112987622 -32.35277203096661 a68.62850266357707,68.62850266357707 0 0,0 0.7928301206649109,0.8714591860055353 l -35.50408895138301 31.747975269403405" fill="#38ff83" stroke="none" /><path d="M 115.6541949942343 86.00192230759917 l 14.062355464798625 -12.574644969409803 a39.864557702873796,39.864557702873796 0 0,0 0.4517773177842058,0.5140396560200609 l -14.276143846541421 12.331393035578445" fill="#ffbf11" stroke="none" /><path d="M 115.8921839302757 86.27271002978787 l 38.090217579427694 -32.90142273933549 a71.33257686151788,71.33257686151788 0 0,0 0.7924894276589952,0.9335505530959807 l -38.6494015705938 32.242705403789955" fill="#3cffa3" stroke="none" /><path d="M 116.1254893667686 86.54754324733833 l 4.680363484060068 -3.9045256812985696 a27.09517211724517,27.09517211724517 0 0,0 0.29488989384158254,0.35971772206069075 l -4.746700197140279 3.8236056775393834" fill="#ff0100" stroke="none" /><path d="M 116.35404254752997 86.82634096563983 l 7.2416478624890095 -5.833358908665792 a30.298899930723106,30.298899930723106 0 0,0 0.32280385853023297,0.40785213008287424 l -7.340718151660801 5.70818683466824" fill="#ff3304" stroke="none" /><path d="M 116.57777611688842 87.10902102172516 l 7.501106086190312 -5.832905462656136 a30.50207233463128,30.50207233463128 0 0,0 0.3178722960490457,0.4161050393659871 l -7.600130359593664 5.703279510049267" fill="#ff3605" stroke="none" /><path d="M 116.7966241395341 87.39550010848427 l 7.741269189078892 -5.809192718927236 a30.67853132987745,30.67853132987745 0 0,0 0.31247980445691026,0.423938868229885 l -7.839851013119628 5.6754475414284755" fill="#ff3905" stroke="none" /><path d="M 117.01052211995028 87.68569379921539 l 27.928631122347596 -20.21817513796315 a55.47873318840926,55.47873318840926 0 0,0 0.5518414150354033,0.7762340592410424 l -28.27158763591296 19.735763852012607" fill="#78ff26" stroke="none" /><path d="M 117.21940702142032 87.97951657250589 l 8.494217771686635 -5.929623698834154 a31.35915888296983,31.35915888296983 0 0,0 0.3043484964375295,0.4440535518673695 l -8.59475600493949 5.782935411896736" fill="#ff4306" stroke="none" /><path d="M 117.42321728460499 88.27688183743584 l 8.624411393762694 -5.80288888097494 a31.39490217624997,31.39490217624997 0 0,0 0.297019038328354,0.4497246805806127 l -8.722754871011773 5.653984322055269" fill="#ff4406" stroke="none" /><path d="M 117.62189284568427 88.57770195909679 l 8.270010174145153 -5.360520679452573 a30.855366570316043,30.855366570316043 0 0,0 0.2842841690359093,0.4469419320698565 l -8.360812034806953 5.217765072704044" fill="#ff3b05" stroke="none" /><path d="M 117.81537515405839 88.88188828441811 l 5.18074139638664 -3.233165797322263 a27.106835718210267,27.106835718210267 0 0,0 0.24297023163865356,0.39687361345994554 l -5.235479592480696 3.1437550677377626" fill="#ff0100" stroke="none" /><line stroke="#e1ed5e" stroke-width="0.3" x1="172.87174338648825" x2="177.1583165268699" y1="56.24261187166439" y2="53.66864786411523" /><path d="M 173.72905801456457 55.72781907015455 a86.0,86.0 0 0,1 12.242430191666344,42.057860355516425" fill="none" id="id75" stroke="none" /><text fill="#e1ed5e" style="font-size:6.75px; font-family:Arial;" text-anchor="middle"><textPath startOffset="22.145653131862474" xlink:href="#id75">March</textPath></text><path d="M 118.00360718960297 89.18935116829356 l 5.191288802993306 -3.117219768355096 a27.05529012684838,27.05529012684838 0 0,0 0.23567256401271908,0.40022353663734883 l -5.244035077135793 3.027645063424191" fill="#ff0000" stroke="none" /><path d="M 118.18653347947321 89.5 l 5.387077912904564 -3.1102308831609387 a27.220461766321876,27.220461766321876 0 0,0 0.23016408563857466,0.4066778854266329 l -5.439675363564515 3.0172962276351876" fill="#ff0300" stroke="none" /><path d="M 118.36410011445183 89.81374322990088 l 34.45588357216273 -19.1120977951152 a60.40152528606578,60.40152528606578 0 0,0 0.49516206992013223,0.911042437386803 l -34.778890991698205 18.517800524253794" fill="#41ff2d" stroke="none" /><path d="M 118.53625476483649 90.13048839642627 l 5.420263742210466 -2.885985145157666 a27.140697785528296,27.140697785528296 0 0,0 0.21543501539224558,0.41312504818616885 l -5.4690068265776555 2.792513853866999" fill="#ff0100" stroke="none" /><path d="M 118.70294669586156 90.45014215332178 l 7.230910992630306 -3.692154675117699 a29.118995007286017,29.118995007286017 0 0,0 0.2234953401172075,0.4471403938274543 l -7.29322624595925 3.567482425126494" fill="#ff2103" stroke="none" /><path d="M 118.8641267826498 90.77261029715802 l 7.565974453961896 -3.7008972412475876 a29.422624877571007,29.422624877571007 0 0,0 0.21803670077213114,0.45561284602925506 l -7.628390412693939 3.570471893153229" fill="#ff2503" stroke="none" /><path d="M 119.0197475246899 91.09779779509293 l 41.351968935066985 -19.35480944492738 a66.65735410047537,66.65735410047537 0 0,0 0.4761732688918641,1.0405245281215727 l -41.6781266688139 18.642095934591122" fill="#36ff6a" stroke="none" /><path d="M 119.16976305983485 91.42560881287824 l 7.597886429068817 -3.3984379585086506 a29.323296146771455,29.323296146771455 0 0,0 0.20158525862743462,0.46126652173687116 l -7.655105569713222 3.26750936699593" fill="#ff2403" stroke="none" /><path d="M 119.31412917781788 91.75594674310238 l 7.834008452795303 -3.3438723695606583 a29.51781491125391,29.51781491125391 0 0,0 0.19492181209269235,0.46774139022832356 l -7.890256109424478 3.208898469891057" fill="#ff2703" stroke="none" /><path d="M 119.4528033332814 92.08871423366111 l 7.8693446130436575 -3.2003939463611557 a29.49524019970856,29.49524019970856 0 0,0 0.18672077687341376,0.4706583327601855 l -7.923124064883195 3.064834596387405" fill="#ff2603" stroke="none" /><path d="M 119.58574465831526 92.42381321644754 l 7.780305007599545 -3.0095891169273 a29.342108406392583,29.342108406392583 0 0,0 0.1776864695944523,0.4713344710218034 l -7.830822161008438 2.8755863657113387" fill="#ff2403" stroke="none" /><path d="M 119.71291397450082 92.76114493625339 l 36.29366390435632 -13.327536105306827 a59.663332218532766,59.663332218532766 0 0,0 0.3447967548882314,0.9644578892392418 l -36.517100829288495 12.702543259686669" fill="#49ff2c" stroke="none" /><path d="M 119.83427380445688 93.10060997987247 l 9.783403265160336 -3.403175509020286 a31.358406392584982,31.358406392584982 0 0,0 0.17249300450485283,0.5099449178203104 l -9.840381691237553 3.234728916725814" fill="#ff4306" stroke="none" /><path d="M 119.94978838288452 93.4421083053983 l 14.908012057674156 -4.900559674102539 a36.69281073075177,36.69281073075177 0 0,0 0.1915631777808228,0.6000689259924346 l -14.989939951232236 4.643921714418717" fill="#ff920d" stroke="none" /><path d="M 120.05942366710727 93.78553927170692 l 22.80135582886134 -7.063918320975832 a44.8704999880557,44.8704999880557 0 0,0 0.22162539914468252,0.7377188739980249 l -22.91925754800965 6.671461843387084" fill="#fbff18" stroke="none" /><path d="M 120.16314734710363 94.1308016681162 l 11.767054033656745 -3.4252179343144746 a33.255434652779435,33.255434652779435 0 0,0 0.1548460260506653,0.5494939196036007 l -11.824118551781993 3.222716090807861" fill="#ff6008" stroke="none" /><path d="M 120.7213421655516 96.59031103205396 l 7.772916454220286 -1.279030444600337 a28.877445593750743,28.877445593750743 0 0,0 0.07628940916189142,0.4898327331488497 l -7.793727355520442 1.1454095295200462" fill="#ff1d02" stroke="none" /><path d="M 120.77682067341334 96.94652285012252 l 18.86434165332711 -2.772408593756862 a40.066977616397125,40.066977616397125 0 0,0 0.09416785954422657,0.6813517219952799 l -18.909154029426546 2.448168563561496" fill="#ffc212" stroke="none" /><path d="M 120.93736805541906 98.37931529534042 l 7.896340225387076 -0.6112266733908188 a28.919961300494492,28.919961300494492 0 0,0 0.034065013611134176,0.4952978216630961 l -7.905669200163276 0.47558542757338856" fill="#ff1d03" stroke="none" /><line stroke="#e1ed5e" stroke-width="0.3" x1="184.99686870605535" x2="189.99668451229388" y1="99.2704041080226" y2="99.22748670261217" /><path d="M 185.99683186730306 99.26182062694052 a86.0,86.0 0 0,1 -10.086455211305974,41.156179273409016" fill="none" id="id76" stroke="none" /><text fill="#e1ed5e" style="font-size:6.75px; font-family:Arial;" text-anchor="middle"><textPath startOffset="21.40746469413373" xlink:href="#id76">April</textPath></text><path d="M 120.99922638620191 99.81974689727618 l 7.831631407309526 -0.06722513651667195 a28.831919925467616,28.831919925467616 0 0,0 0.0,0.49495647848099666 l -7.831631407309526 -0.06722513651667099" fill="#ff1c02" stroke="none" /><path d="M 120.93736805541906 101.62068470465957 l 48.33723099395262 3.741607384946338 a69.4818267599914,69.4818267599914 0 0,0 -0.1022586454045002,1.1884004648609399 l -48.26587872585038 -4.570828897182936" fill="#39ff8d" stroke="none" /><path d="M 120.592083275326 104.11899336999214 l 6.332430854572792 1.2666635209839407 a27.4578724827405,27.4578724827405 0 0,0 -0.09641935108428452,0.46140149913629436 l -6.309753792664143 -1.3751814714056443" fill="#ff0601" stroke="none" /><path d="M 120.16314734710363 105.8691983318838 l 5.9718530755650265 1.7383193955777039 a27.219709275937028,27.219709275937028 0 0,0 -0.13444421021578692,0.4475210501987539 l -5.94113254534561 -1.8405780493671813" fill="#ff0300" stroke="none" /><path d="M 119.94978838288452 106.5578916946017 l 6.115255179811243 2.01020584200581 a27.437178997157257,27.437178997157257 0 0,0 -0.15092353167143727,0.44617860403247317 l -6.07984622656744 -2.114886120512444" fill="#ff0601" stroke="none" /><path d="M 119.83427380445688 106.89939002012753 l 5.958668626283409 2.0727342608424024 a27.30887938654117,27.30887938654117 0 0,0 -0.15781909326862384,0.4414480920066835 l -5.922209362970842 -2.174717309230007" fill="#ff0400" stroke="none" /><path d="M 119.71291397450082 107.23885506374661 l 6.093504182927954 2.2376191397987424 a27.491358304866104,27.491358304866104 0 0,0 -0.16647891603057244,0.4416051036561464 l -6.054194583082941 -2.3418925236490478" fill="#ff0701" stroke="none" /><line stroke="#e1ed5e" stroke-width="0.3" x1="174.33088141563837" x2="178.70328620479359" y1="141.23008692659167" y2="143.65538615756765" /><path d="M 175.20536237346943 141.71514677278685 a86.0,86.0 0 0,1 -30.301960400862466,31.631185727798858" fill="none" id="id77" stroke="none" /><text fill="#e1ed5e" style="font-size:6.75px; font-family:Arial;" text-anchor="middle"><textPath startOffset="22.145653131862474" xlink:href="#id77">May</textPath></text><path d="M 117.21940702142032 112.02048342749411 l 5.306687970463872 3.704480341540924 a27.47179355486013,27.47179355486013 0 0,0 -0.2732591852339153,0.3843732652168084 l -5.242313686699996 -3.7950308334672367" fill="#ff0701" stroke="none" /><path d="M 115.6541949942343 113.99807769240083 l 4.842830766682181 4.330489133943619 a27.49662573756002,27.49662573756002 0 0,0 -0.31765450585820965,0.34915794681719414 l -4.767778559982092 -4.412984656318485" fill="#ff0701" stroke="none" /><path d="M 113.86319453409587 115.77377054828091 l 4.2666555213689135 4.854670764166576 a27.46313991543441,27.46313991543441 0 0,0 -0.3567861009083001,0.3081833362864065 l -4.182689940697758 -4.9271982329177" fill="#ff0601" stroke="none" /><path d="M 113.59037401385872 116.0094264158162 l 4.125469534593208 4.859792738405205 a27.374722295215115,27.374722295215115 0 0,0 -0.3608583679288639,0.30104088489885783 l -4.041436832502448 -4.929895807215933" fill="#ff0500" stroke="none" /><path d="M 113.31354834802062 116.24036423190432 l 4.105124705622804 5.007584656919449 a27.475179761591935,27.475179761591935 0 0,0 -0.3673159786865663,0.29588375149604584 l -4.018557956580985 -5.077316702208899" fill="#ff0701" stroke="none" /><path d="M 112.45986205192187 116.90419585922612 l 3.9006086148186414 5.291924719576537 a27.574132247199064,27.574132247199064 0 0,0 -0.3834366780305553,0.27757858510069733 l -3.809190926414118 -5.358104076050311" fill="#ff0801" stroke="none" /><path d="M 111.27062007382361 117.71928675628689 l 3.3496042698081627 5.266134266619652 a27.241155251905113,27.241155251905113 0 0,0 -0.3967296404400492,0.2475886376319313 l -3.2587105005783985 -5.32285870109313" fill="#ff0300" stroke="none" /><line stroke="#e1ed5e" stroke-width="0.3" x1="143.1302829299769" x2="145.66735839644613" y1="173.24464959558577" y2="177.55315839532614" /><path d="M 143.63769802327073 174.10635135553383 a86.0,86.0 0 0,1 -40.68552437913181,11.842963189579606" fill="none" id="id78" stroke="none" /><text fill="#e1ed5e" style="font-size:6.75px; font-family:Arial;" text-anchor="middle"><textPath startOffset="21.407464694133747" xlink:href="#id78">June</textPath></text><path d="M 110.34350942703117 118.27599006163325 l 15.379796066602738 27.17462598609097 a52.22496476433912,52.22496476433912 0 0,0 -0.7840106507286234,0.4348774919022276 l -14.911041227718021 -27.43463639342634" fill="#9eff22" stroke="none" /><path d="M 109.3889696526874 118.78422872680471 l 8.66384271145 17.333489101048997 a40.37813239053056,40.37813239053056 0 0,0 -0.6226687775529799,0.30457850143151327 l -8.36501368463495 -17.479661352577732" fill="#ffc612" stroke="none" /><path d="M 109.06512990194946 118.94263497670748 l 9.069894070455772 18.952590256549993 a42.011036525644386,42.011036525644386 0 0,0 -0.6531941698847274,0.3057278532131873 l -8.743211186699538 -19.105494341333713" fill="#ffdd14" stroke="none" /><path d="M 108.07796709384702 119.3841803445677 l 8.082212460084442 19.394367678066182 a42.011036525644386,42.011036525644386 0 0,0 -0.6680665823097325,0.2716968630712077 l -7.748091416584268 -19.53025179771668" fill="#ffdd14" stroke="none" /><path d="M 107.407793817531 119.65005319985036 l 7.368950723888987 19.547017279127797 a41.88988557368433,41.88988557368433 0 0,0 -0.6750472244810505,0.24788669120778767 l -7.032314347753809 -19.670634819344308" fill="#ffdb14" stroke="none" /><path d="M 107.06938296918513 119.77432235084164 l 7.032314347753809 19.670634819344308 a41.88988557368433,41.88988557368433 0 0,0 -0.6792030594063821,0.236262081279503 l -6.693605516302405 -19.788455333192402" fill="#ffdb14" stroke="none" /><path d="M 104.9986988182912 120.39639698878246 l 1.8304938692408306 7.469039644067116 a28.69007548792432,28.69007548792432 0 0,0 -0.47935357121372824,0.11312613759433536 l -1.7020081442872232 -7.499361925307676" fill="#ff1a02" stroke="none" /><path d="M 104.29559338865022 120.5559693870025 l 1.4383377996312299 6.882967055380125 a28.031646401184872,28.031646401184872 0 0,0 -0.4718707390082051,0.09438736331243382 l -1.319970575092066 -6.90664381535542" fill="#ff0f01" stroke="none" /><path d="M 101.80034050326958 120.92268563240118 l 0.6112775532857879 7.103971753296056 a28.13022264159958,28.13022264159958 0 0,0 -0.4814702000603123,0.037268838515028616 l -0.4892383584502398 -7.113418358806138" fill="#ff1101" stroke="none" /><path d="M 101.08105385017728 120.97215588758144 l 0.3462724385490569 6.717592800426068 a27.72651155013019,27.72651155013019 0 0,0 -0.47554167660764074,0.020421805723430823 l -0.23090500134058664 -6.722547174575331" fill="#ff0b01" stroke="none" /><line stroke="#e1ed5e" stroke-width="0.3" x1="101.45913802915013" x2="101.54496967792366" y1="184.9874750549273" y2="189.98673829345242" /><path d="M 101.47630435890484 185.9873277026323 a86.0,86.0 0 0,1 -42.54439059252881,-10.42667462771756" fill="none" id="id79" stroke="none" /><text fill="#e1ed5e" style="font-size:6.75px; font-family:Arial;" text-anchor="middle"><textPath startOffset="22.145653131862474" xlink:href="#id79">July</textPath></text><path d="M 100.0 121.0 l 8.536638927710695e-16 6.970694680012421 a27.97069468001242,27.97069468001242 0 0,0 -0.48015416834532887,-0.004121546053091458 l 0.11966124349647589 -6.969667532153765" fill="#ff0f01" stroke="none" /><path d="M 98.91894614982273 120.97215588758144 l -1.1034504472859419 21.40664388819072 a42.4350648575046,42.4350648575046 0 0,0 -0.7271665598380465,-0.043744534525995415 l 1.4707613592564346 -21.384547375840032" fill="#ffe315" stroke="none" /><path d="M 98.55909050195518 120.95050786540614 l -0.46528114264939563 6.7650856989479715 a27.78106710303146,27.78106710303146 0 0,0 -0.47549413690758174,-0.03680625343174244 l 0.5813442743322135 -6.756101678521175" fill="#ff0c01" stroke="none" /><path d="M 98.19965949673042 120.92268563240118 l -1.8480251628094944 21.476853657410743 a42.55621580946466,42.55621580946466 0 0,0 -0.7273068778427801,-0.06887671750982151 l 2.2164316040372896 -21.441965184395738" fill="#ffe415" stroke="none" /><path d="M 97.84075906011543 120.88869738790638 l -1.101968028223381 10.660541048252183 a31.717344306156086,31.717344306156086 0 0,0 -0.5411040838791444,-0.060631841233771154 l 1.2848080137033249 -10.640053446511441" fill="#ff4906" stroke="none" /><path d="M 95.70440661134978 120.55596938700252 l -4.4960273913348345 21.515118647774177 a42.97986789613243,42.97986789613243 0 0,0 -0.7209107048458309,-0.15711913276149903 l 4.864700512799802 -21.43476805687896" fill="#ffea16" stroke="none" /><path d="M 95.00130118170881 120.39639698878247 l -5.188683047523679 21.171597476328223 a42.798141468192355,42.798141468192355 0 0,0 -0.7120687661322775,-0.18100509582757715 l 5.551357106881335 -21.079407148665382" fill="#ffe715" stroke="none" /><path d="M 94.30408787586889 120.21278271476187 l -5.967196250107236 21.175474373765635 a43.00018513652326,43.00018513652326 0 0,0 -0.7087658833687989,-0.20631141898399752 l 6.329822145857642 -21.069919260479118" fill="#ffea16" stroke="none" /><path d="M 93.61358852112213 120.00534299687104 l -3.8677981991682384 12.115822770416948 a33.71821623945917,33.71821623945917 0 0,0 -0.5498915423376843,-0.18076027220027174 l 4.075212479153667 -12.047641576814655" fill="#ff6709" stroke="none" /><path d="M 92.93061703081489 119.77432235084164 l -4.117530116550704 11.517464560751852 a33.231354960464394,33.231354960464394 0 0,0 -0.5355167154216124,-0.1966491555822279 l 4.314635983626435 -11.445084556160905" fill="#ff5f08" stroke="none" /><line stroke="#e1ed5e" stroke-width="0.3" x1="58.13341422392154" x2="55.67067388415222" y1="173.97424548756322" y2="178.32567169271397" /><path d="M 57.64086615596768 174.84453072859336 a86.0,86.0 0 0,1 -31.369924170532247,-30.572349798747897" fill="none" id="id80" stroke="none" /><text fill="#e1ed5e" style="font-size:6.75px; font-family:Arial;" text-anchor="middle"><textPath startOffset="22.145653131862474" xlink:href="#id80">August</textPath></text><path d="M 86.68645165197938 116.24036423190432 l -6.106164284673916 7.448527578877456 a30.631500680824633,30.631500680824633 0 0,0 -0.4037897891233198,-0.3368558033681763 l 6.2331284079591285 -7.34260959159741" fill="#ff3805" stroke="none" /><path d="M 86.40962598614128 116.0094264158162 l -8.305481073303094 9.783835820515943 a33.83372351353288,33.83372351353288 0 0,0 -0.4395492405010243,-0.3796721650728721 l 8.47220979356698 -9.639819522978348" fill="#ff6809" stroke="none" /><path d="M 86.13680546590413 115.77377054828092 l -8.46475842171688 9.631341229642398 a33.82243615776021,33.82243615776021 0 0,0 -0.4328224511249495,-0.38703250471160466 l 8.6288458996652 -9.48461319504741" fill="#ff6809" stroke="none" /><path d="M 85.86807049272751 115.53346607816431 l -9.095988525395313 9.998084772068022 a34.516608537779796,34.516608537779796 0 0,0 -0.4348603340146034,-0.4025002330760927 l 9.266278630723884 -9.840466792859553" fill="#ff720a" stroke="none" /><path d="M 85.60350026404147 115.28858382429668 l -13.513935596367892 14.351331292367172 a40.71261436659421,40.71261436659421 0 0,0 -0.5046958900942646,-0.4834872460273937 l 13.758303972327472 -14.117231916034196" fill="#ffcb12" stroke="none" /><path d="M 84.83555147118756 114.52719865689866 l -14.169871394108185 13.574416260096973 a40.62269176560521,40.62269176560521 0 0,0 -0.47807910894284195,-0.5077034463774155 l 14.40080633678728 -13.329171353775067" fill="#ffca12" stroke="none" /><path d="M 84.3458050057657 113.99807769240083 l -15.046235138715405 13.45443624072932 a41.184425837892064,41.184425837892064 0 0,0 -0.4667351279350564,-0.5310588982043918 l 15.274981330609053 -13.194165064713628" fill="#ffd113" stroke="none" /><path d="M 84.1078160697243 113.72728997021213 l -15.304593388289515 13.219743254859033 a41.22355533790402,41.22355533790402 0 0,0 -0.457984741518972,-0.5395048739230957 l 15.5292726933156 -12.955071598486384" fill="#ffd213" stroke="none" /><path d="M 83.8745106332314 113.45245675266167 l -5.640415820944733 4.705435486172342 a28.34543489166527,28.34543489166527 0 0,0 -0.30849710974068667,-0.3763163129552447 l 5.720359749924049 -4.607916891518602" fill="#ff1402" stroke="none" /><path d="M 83.20337586046588 112.60449989151573 l -8.148134215654647 6.114511819999756 a31.187214830032726,31.187214830032726 0 0,0 -0.31766106033091496,-0.43096823691197744 l 8.251897295569393 -5.9737372738189" fill="#ff4006" stroke="none" /><path d="M 82.98947788004972 112.3143062007846 l -16.885364077549365 12.223701429999347 a41.84548864097847,41.84548864097847 0 0,0 -0.4162328938922114,-0.5854836915327735 l 17.092712069971537 -11.93204051175707" fill="#ffdb14" stroke="none" /><path d="M 82.576782715395 111.72311816256416 l -17.149555275464564 11.538986149667053 a41.67015838130958,41.67015838130958 0 0,0 -0.39423057603185063,-0.5969153387569591 l 17.345110290417143 -11.242890932571033" fill="#ffd814" stroke="none" /><path d="M 82.37810715431573 111.42229804090323 l -19.013382939122295 12.324245107963385 a43.658237978070275,43.658237978070275 0 0,0 -0.4022426982639655,-0.6323923324072973 l 19.22214332901215 -11.996039100877415" fill="#fff316" stroke="none" /><line stroke="#e1ed5e" stroke-width="0.3" x1="26.387840678322732" x2="22.057713659400548" y1="142.50000000000003" y2="145.00000000000006" /><path d="M 25.521815274538298 143.00000000000003 a86.0,86.0 0 0,1 -11.493303480769221,-40.785679425670985" fill="none" id="id81" stroke="none" /><text fill="#e1ed5e" style="font-size:6.75px; font-family:Arial;" text-anchor="middle"><textPath startOffset="21.40746469413373" xlink:href="#id81">September</textPath></text><path d="M 81.29705330413844 109.54985784667822 l -17.706165107307353 9.040894065212438 a40.88079596760708,40.88079596760708 0 0,0 -0.31377001152534195,-0.627750209248695 l 17.85875503204443 -8.735611999799989" fill="#ffcd13" stroke="none" /><path d="M 80.9802524753101 108.90220220490708 l -10.302041407869345 4.821875559448246 a32.374644657318264,32.374644657318264 0 0,0 -0.23127141159023804,-0.5053697721692041 l 10.383297284314638 -4.644316805064353" fill="#ff5207" stroke="none" /><path d="M 80.83023694016515 108.57439118712176 l -19.288712582177645 8.62759579548886 a42.13030625164234,42.13030625164234 0 0,0 -0.28962803633266043,-0.6627256269941488 l 19.433974500527274 -8.295208098718861" fill="#ffde14" stroke="none" /><path d="M 80.68587082218212 108.24405325689762 l -20.3499434202918 8.68618076368759 a43.1262272759848,43.1262272759848 0 0,0 -0.28478538789641783,-0.6833812584711633 l 20.496054652724705 -8.335566995775146" fill="#ffec16" stroke="none" /><path d="M 80.5471966667186 107.91128576633889 l -12.683519604848957 5.158277005003556 a34.69231504264112,34.69231504264112 0 0,0 -0.21962106334577924,-0.5535885467283602 l 12.770199343160861 -4.93978744106163" fill="#ff750a" stroke="none" /><path d="M 80.41425534168474 107.57618678355246 l -11.495355030847623 4.4466502742838525 a33.32541625857003,33.32541625857003 0 0,0 -0.2018081141524585,-0.5353199990356873 l 11.569993828814518 -4.248661995054021" fill="#ff6108" stroke="none" /><path d="M 80.28708602549918 107.23885506374661 l -12.6090646748224 4.630223202339008 a34.432329614677144,34.432329614677144 0 0,0 -0.1989857936680055,-0.5565986797406127 l 12.68669063853435 -4.413089566217474" fill="#ff710a" stroke="none" /><path d="M 79.94057633289273 106.21446072829308 l -18.054487601958876 5.5933264102601115 a39.901053486538785,39.901053486538785 0 0,0 -0.1970801953978955,-0.6560158736198619 l 18.1478441173604 -5.282572933049526" fill="#ffc011" stroke="none" /><path d="M 79.56144815229197 104.8234425847677 l -13.055630939770928 3.0810933531459406 a34.41426984544086,34.41426984544086 0 0,0 -0.13075642576617655,-0.5761369381054524 l 13.106598227094771 -2.8565220811014616" fill="#ff710a" stroke="none" /><path d="M 79.48165901384964 104.47187691870673 l -13.180856573990495 2.87270634218419 a34.49027137431022,34.49027137431022 0 0,0 -0.12111388406811656,-0.5795737789855171 l 13.228228168882978 -2.6460161119132635" fill="#ff720a" stroke="none" /><path d="M 79.407916724674 104.11899336999214 l -23.278803870367007 4.656412734999056 a44.73994290628508,44.73994290628508 0 0,0 -0.1441770390263297,-0.7543951916034048 l 23.35530720167549 -4.256114978362336" fill="#fdff18" stroke="none" /><path d="M 79.34024301695615 103.76489593502545 l -24.265874355678402 4.422050646409491 a45.66550607964453,45.66550607964453 0 0,0 -0.13391992982020912,-0.7724145673665128 l 24.338209102990845 -4.004843046122385" fill="#f1ff19" stroke="none" /><path d="M 79.2786578344484 103.40968896794605 l -24.441046083351885 4.021764832106734 a45.76972599794558,45.76972599794558 0 0,0 -0.12091600493363643,-0.7763674909632178 l 24.50648358042379 -3.6016091592120665" fill="#efff19" stroke="none" /><path d="M 79.22317932658666 103.0534771498775 l -13.290320856576704 1.9532194885826235 a34.43308210506199,34.43308210506199 0 0,0 -0.08092673398997118,-0.5855455335440021 l 13.321892107121888 -1.7247856468385359" fill="#ff710a" stroke="none" /><path d="M 79.17382384314188 102.69636545807758 l -13.493905446655907 1.7470562174682462 a34.60653113876878,34.60653113876878 0 0,0 -0.07122009893369778,-0.5898045863958392 l 13.521907631849267 -1.5151579541490077" fill="#ff740a" stroke="none" /><path d="M 79.13060592940153 102.33845913500099 l -8.96362934571183 1.0043933645286522 a30.019725997945585,30.019725997945585 0 0,0 -0.05298854386189392,-0.5126160945318476 l 8.97955028205539 -0.8503727477138733" fill="#ff2f04" stroke="none" /><path d="M 79.06263194458094 101.62068470465958 l -10.651243912572003 0.8244736420075482 a31.683105993645636,31.683105993645636 0 0,0 -0.037319740012864096,-0.5426208292299806 l 10.663827613749932 -0.6415093886232244" fill="#ff4806" stroke="none" /><path d="M 79.03789590574601 101.26102812881392 l -13.204908744785783 0.7943745194052464 a34.22878096557655,34.22878096557655 0 0,0 -0.030249131883820023,-0.5868250774255818 l 13.216599466126176 -0.5675776486029338" fill="#ff6e0a" stroke="none" /><path d="M 79.01933749520258 100.90099992219065 l -34.95294372462294 1.5010297967958988 a55.98515921740999,55.98515921740999 0 0,0 -0.03299208899270197,-0.9605286734958639 l 34.97356050061249 -0.9007948587359151" fill="#72ff27" stroke="none" /><line stroke="#e1ed5e" stroke-width="0.3" x1="15.003131293944662" x2="10.003315487706104" y1="100.72959589197737" y2="100.7725132973878" /><path d="M 14.003168132696942 100.73817937305945 a86.0,86.0 0 0,1 10.791469493833604,-42.45332614584628" fill="none" id="id82" stroke="none" /><text fill="#e1ed5e" style="font-size:6.75px; font-family:Arial;" text-anchor="middle"><textPath startOffset="22.145653131862435" xlink:href="#id82">October</textPath></text><path d="M 79.00077361379809 100.18025310272382 l -25.234964132516907 0.2166118169476638 a46.23589379135711,46.23589379135711 0 0,0 0.0,-0.7937298393429534 l 25.234964132516907 0.2166118169476545" fill="#e9ff1a" stroke="none" /><path d="M 79.00077361379809 99.81974689727619 l -12.486741678381822 -0.10718365948557107 a33.487201691311725,33.487201691311725 0 0,0 0.009868468487426155,-0.5747888154856988 l 12.48306177829573 0.32151939094032234" fill="#ff6309" stroke="none" /><path d="M 79.00696218219943 99.45929381324524 l -31.536195663110767 -0.8122605336943641 a52.54665440386039,52.54665440386039 0 0,0 0.030965775976957058,-0.9015347809440056 l 31.51760520013696 1.3535015792025085" fill="#9aff22" stroke="none" /><path d="M 79.01933749520258 99.09900007780938 l -12.977903770421115 -0.5573270283849749 a33.989865268388236,33.989865268388236 0 0,0 0.030037993998409993,-0.5827290588545239 l 12.966424186966133 0.7800278806162108" fill="#ff6b09" stroke="none" /><path d="M 79.03789590574601 98.7389718711861 l -10.47942459345159 -0.6304161608351668 a31.49836960416617,31.49836960416617 0 0,0 0.037102137798372854,-0.539456940788376 l 10.467058494488153 0.8102165257778678" fill="#ff4506" stroke="none" /><path d="M 79.06263194458094 98.37931529534042 l -13.641724875839733 -1.0559557816879164 a34.682532667638135,34.682532667638135 0 0,0 0.051043401924946365,-0.5932017027581431 l 13.621587851217043 1.2899785318217403" fill="#ff750a" stroke="none" /><path d="M 79.0935383218832 98.0201363427161 l -9.036110249209699 -0.855729035408559 a30.076539022001384,30.076539022001384 0 0,0 0.05308882590368917,-0.5135862323176763 l 9.020089030824346 1.010719790009148" fill="#ff2f04" stroke="none" /><path d="M 79.13060592940154 97.66154086499901 l -22.154630876073792 -2.4824725998019415 a43.29328014142041,43.29328014142041 0 0,0 0.08909739269942485,-0.7378542242542568 l 22.1087513971147 2.862420500979635" fill="#ffee16" stroke="none" /><path d="M 79.17382384314186 97.30363454192245 l -8.964469592852238 -1.16063006372841 a30.039290747951554,30.039290747951554 0 0,0 0.07060017700970572,-0.5108277114033836 l 8.943224899287324 1.3143460833318605" fill="#ff2f04" stroke="none" /><path d="M 79.2786578344484 96.59031103205396 l -9.288369717158018 -1.5283977023191386 a30.41327846921956,30.41327846921956 0 0,0 0.08919082405649462,-0.5144289716187105 l 9.260764075609288 1.6876197068584418" fill="#ff3505" stroke="none" /><path d="M 79.407916724674 95.88100663000787 l -13.508251183251465 -2.702028557288859 a34.775841475358924,34.775841475358924 0 0,0 0.1221166742096141,-0.5843724928267006 l 13.459876798217485 2.9335175014009685" fill="#ff760a" stroke="none" /><path d="M 79.64726062577567 94.8264132398404 l -9.015571682860939 -2.291723066664423 a30.30228613745491,30.30228613745491 0 0,0 0.13247945824207147,-0.5030460814090997 l 8.974902743814141 2.446149652446307" fill="#ff3304" stroke="none" /><path d="M 79.83685265289637 94.1308016681162 l -12.090735623137496 -3.5194369276262907 a33.592550345190034,33.592550345190034 0 0,0 0.16592109248887862,-0.5522973539847419 l 12.028538210644989 3.7264718852017564" fill="#ff6509" stroke="none" /><path d="M 80.05021161711548 93.44210830539832 l -12.281980155980705 -4.037330828394621 a33.92853730202336,33.92853730202336 0 0,0 0.18663050871950082,-0.551739936961044 l 12.21086422568884 4.247572439829827" fill="#ff6a09" stroke="none" /><path d="M 80.41425534168474 92.42381321644754 l -8.754422214035426 -3.3863985787976874 a30.386565060557558,30.386565060557558 0 0,0 0.19236334392277984,-0.48488128772219635 l 8.695000195146514 3.5361808837334663" fill="#ff3405" stroke="none" /><path d="M 80.68587082218212 91.75594674310238 l -8.655854385715877 -3.694669528344464 a30.411397243257447,30.411397243257447 0 0,0 0.2090654934499369,-0.4783827628838845 l 8.591155010248961 3.842714361004215" fill="#ff3505" stroke="none" /><line stroke="#e1ed5e" stroke-width="0.3" x1="26.387840678322718" x2="22.05771365940052" y1="57.49999999999999" y2="54.99999999999999" /><path d="M 25.521815274538284 56.99999999999999 a86.0,86.0 0 0,1 29.574782752854787,-30.34633250058573" fill="none" id="id83" stroke="none" /><text fill="#e1ed5e" style="font-size:6.75px; font-family:Arial;" text-anchor="middle"><textPath startOffset="21.40746469413373" xlink:href="#id83">November</textPath></text><path d="M 82.18462484594161 88.88188828441811 l -7.9650188408251035 -4.970760846921306 a30.388822531712094,30.388822531712094 0 0,0 0.27998569200984874,-0.44018401222683234 l 7.878515457189365 5.10675853382681" fill="#ff3405" stroke="none" /><path d="M 83.8745106332314 86.54754324733833 l -7.1826244800751455 -5.992000800170597 a30.353831728816797,30.353831728816797 0 0,0 0.33722447432015235,-0.3972495828102598 l 7.078705442247879 6.114417165430414" fill="#ff3404" stroke="none" /><path d="M 84.10781606972428 86.27271002978789 l -10.462737226211358 -9.037463221950285 a34.8255058407587,34.8255058407587 0 0,0 0.3946707181974279,-0.44906282860420527 l 10.306055444055339 9.21573832836579" fill="#ff770b" stroke="none" /><path d="M 86.68645165197937 83.75963576809568 l -6.078017584193765 -7.4141931808811385 a30.58710374811877,30.58710374811877 0 0,0 0.408919324492787,-0.3293964619312087 l 5.949847489345733 7.517437936605747" fill="#ff3705" stroke="none" /><line stroke="#e1ed5e" stroke-width="0.3" x1="56.869717070023135" x2="54.33264160355391" y1="26.7553504044142" y2="22.446841604673864" /><path d="M 56.362301976729285 25.89364864446614 a86.0,86.0 0 0,1 42.16139366436587,-11.88097634709845" fill="none" id="id84" stroke="none" /><text fill="#e1ed5e" style="font-size:6.75px; font-family:Arial;" text-anchor="middle"><textPath startOffset="22.145653131862474" xlink:href="#id84">December</textPath></text><path d="M 89.65649057296885 81.72400993836675 l -6.777480711737358 -11.975159011981047 a34.76003917727718,34.76003917727718 0 0,0 0.5218240176456284,-0.2894469862076231 l 6.570912505935627 12.089738913621817" fill="#ff760a" stroke="none" /><path d="M 89.97174638481275 81.54914285379989 l -9.209914006733571 -16.945204438156352 a40.28632856357946,40.28632856357946 0 0,0 0.610455253325156,-0.3250330383667579 l 8.917669937621852 17.100807944245688" fill="#ffc512" stroke="none" /><path d="M 90.28995756902619 81.37971332152246 l -9.51838617434851 -18.252760535573834 a41.585503213014505,41.585503213014505 0 0,0 0.635808240621015,-0.32464821797416876 l 9.203650712013914 18.413466705220838" fill="#ffd714" stroke="none" /><path d="M 90.61103034731259 81.2157712731953 l -4.491895618279156 -8.986800238142889 a31.04687537325912,31.04687537325912 0 0,0 0.4787720181937303,-0.2341913856703396 l 4.336963350823373 9.062585373910442" fill="#ff3e05" stroke="none" /></svg>