<?xml version="1.0" encoding="utf-8" ?>
<svg baseProfile="full" height="200mm" version="1.1" viewBox="0,0,200,200" width="200mm" xmlns="http://www.w3.org/2000/svg" xmlns:ev="http://www.w3.org/2001/xml-events" xmlns:xlink="http://www.w3.org/1999/xlink"><defs /><rect fill="#1a1a1a" height="200" width="200" x="0" y="0" /><text alignment-baseline="middle" fill="#e1ed5e" style="dominant-baseline: central; font-size:9.0px; font-family:Arial;" text-anchor="middle" x="100.0" y="100.0">2019</text><line stroke="#e1ed5e" stroke-width="0.3" x1="100.0" x2="100.0" y1="15.0" y2="10.0" /><path d="M 100.0 14.0 a86.0,86.0 0 0,1 42.46469731375804,11.215312516191453" fill="none" id="id1" stroke="none" /><text fill="#e1ed5e" style="font-size:6.75px; font-family:Arial;" text-anchor="middle"><textPath startOffset="22.20632615414155" xlink:href="#id1">January</textPath></text><line stroke="#e1ed5e" stroke-width="0.3" x1="143.23703022742887" x2="145.7803849466894" y1="26.81831364943548" y2="22.513508569990506" /><path d="M 143.74570117128098 25.957352633546492 a86.0,86.0 0 0,1 28.547481713284135,27.462654790039103" fill="none" id="id2" stroke="none" /><text fill="#e1ed5e" style="font-size:6.75px; font-family:Arial;" text-anchor="middle"><textPath startOffset="19.985693538727396" xlink:href="#id2">February</textPath></text><line stroke="#e1ed5e" stroke-width="0.3" x1="172.23445277983987" x2="176.4835382374775" y1="55.19839476539836" y2="52.563006222186495" /><path d="M 173.08426987136738 54.67131705675599 a86.0,86.0 0 0,1 12.851231095245387,41.99856678651699" fill="none" id="id3" stroke="none" /><text fill="#e1ed5e" style="font-size:6.75px; font-family:Arial;" text-anchor="middle"><textPath startOffset="22.20632615414155" xlink:href="#id3">March</textPath></text><line stroke="#e1ed5e" stroke-width="0.3" x1="184.98032266829074" x2="189.97916517819016" y1="98.17113171792111" y2="98.06355123074" /><path d="M 185.9800911702706 98.14961562048488 a86.0,86.0 0 0,1 -9.607161424134198,41.387399972396054" fill="none" id="id4" stroke="none" /><text fill="#e1ed5e" style="font-size:6.75px; font-family:Arial;" text-anchor="middle"><textPath startOffset="21.466115282336823" xlink:href="#id4">April</textPath></text><path d="M 119.79798401119884 107.00284435728193 l 6.198014109749727 2.192330699442078 a27.574320710185418,27.574320710185418 0 0,0 -0.16213141080804885,0.4461160098735695 l -6.159358437936452 -2.298694506321779" fill="#ff5007" stroke="none" /><path d="M 119.67450827220406 107.3425965602758 l 8.138458113252879 3.037301553947544 a29.686754353081696,29.686754353081696 0 0,0 -0.18279367419789658,0.4772166022292361 l -8.084970159461477 -3.176941723009924" fill="#ff6d0a" stroke="none" /><path d="M 119.54520255179757 107.68017299344265 l 8.47785665580801 3.331324173165266 a30.108884356667584,30.108884356667584 0 0,0 -0.19369674115296584,0.4807394265875364 l -8.419257300397652 -3.476762967595616" fill="#ff730a" stroke="none" /><path d="M 119.41010516605496 108.01547362559984 l 7.1438062526610535 2.9500608118672016 a28.72896025150044,28.72896025150044 0 0,0 -0.19268789822804736,0.4554572723261295 l -7.091967373240697 -3.0725926098594947" fill="#ff6008" stroke="none" /><path d="M 119.26925614724726 108.34839909993367 l 3.019420602609965 1.308163016181153 a24.290621712134303,24.290621712134303 0 0,0 -0.16952415092063783,0.38223220725721996 l -2.9964553669580543 -1.3599435599310608" fill="#ff2203" stroke="none" /><path d="M 119.12269723197855 108.67885076344098 l 8.211472659237627 3.7267831463870142 a30.017604773641466,30.017604773641466 0 0,0 -0.2175924470580038,0.4686747730301056 l -8.146105595339792 -3.86757798669595" fill="#ff720a" stroke="none" /><path d="M 118.97047184881838 109.00673069616215 l 2.9007559184627545 1.3772102023134378 a24.211089042654052,24.211089042654052 0 0,0 -0.18198293139019603,0.37493874022758117 l -2.876619730457844 -1.4269378985062944" fill="#ff2103" stroke="none" /><path d="M 118.81262510543309 109.33194174019688 l 10.892450140914399 5.403164606392787 a33.15893325239027,33.15893325239027 0 0,0 -0.25804176097971115,0.5091408748411773 l -10.797829710148418 -5.589859692936659" fill="#ff9c0e" stroke="none" /><line stroke="#e1ed5e" stroke-width="0.3" x1="174.80103733775053" x2="179.2010983576182" y1="140.37084112569926" y2="142.7455964860345" /><path d="M 175.68104954172406 140.8457921977663 a86.0,86.0 0 0,1 -30.038265399797805,32.042727171017184" fill="none" id="id5" stroke="none" /><text fill="#e1ed5e" style="font-size:6.75px; font-family:Arial;" text-anchor="middle"><textPath startOffset="22.206326154141568" xlink:href="#id5">May</textPath></text><path d="M 118.48025628344425 109.97397251340804 l 30.864370495369368 16.65779836831802 a56.07266189719517,56.07266189719517 0 0,0 -0.4657330961771577,0.8454408508840027 l -30.573060989740704 -17.186609737599827" fill="#57ff2a" stroke="none" /><path d="M 118.30583269289576 110.29060199501025 l 1.232886539686544 0.6930656964784416 a22.41433704588949,22.41433704588949 0 0,0 -0.19196065596528544,0.33469958408731926 l -1.220773887568879 -0.7141851264240759" fill="#ff0701" stroke="none" /><path d="M 117.35343817320211 111.8261652097733 l 2.7656163646152523 1.8847352154859738 a24.34676869662674,24.34676869662674 0 0,0 -0.23899146726933027,0.34428503342737427 l -2.732763990183786 -1.9320615111003676" fill="#ff2303" stroke="none" /><path d="M 117.14729908036423 112.12312394758627 l 7.261925616475788 5.134174422110667 a29.89355444442112,29.89355444442112 0 0,0 -0.3006725131610405,0.4176078232195303 l -7.172473310939145 -5.258415850781328" fill="#ff700a" stroke="none" /><path d="M 116.93607887273984 112.41649034213515 l 7.3313188101309725 5.374871591299966 a30.090515943484377,30.090515943484377 0 0,0 -0.3098445262909618,0.4150873770355732 l -7.237713017144919 -5.500271847844854" fill="#ff730a" stroke="none" /><path d="M 116.71984013943494 112.70617746262583 l 5.215624805023072 3.963593778315638 a27.550787566871207,27.550787566871207 0 0,0 -0.29019268524119574,0.3751131640418797 l -5.146625302563808 -4.052784936470771" fill="#ff5007" stroke="none" /><path d="M 116.498646956653 112.99209946851258 l 21.331955019192012 16.798158188082237 a48.151987467820206,48.151987467820206 0 0,0 -0.5183953269253951,0.646777877264809 l -21.039641780211763 -17.162863898925295" fill="#acff21" stroke="none" /><path d="M 116.27256486870786 113.27417163493432 l 12.477275089788195 10.178204383541093 a37.10211905742173,37.10211905742173 0 0,0 -0.4079537001326035,0.4914065120498333 l -12.300225389762048 -10.391472152704695" fill="#ffcf13" stroke="none" /><path d="M 116.0416608686014 113.55231037782055 l 6.784315566519399 5.731523126667774 a29.88128904256837,29.88128904256837 0 0,0 -0.33532140888389755,0.3900545539591281 l -6.6846516480647225 -5.84745477978843" fill="#ff700a" stroke="none" /><path d="M 115.80600337817218 113.82643327865902 l 6.065291150298606 5.3056640188408295 a29.05840104603344,29.05840104603344 0 0,0 -0.33256807308493364,0.37364375564085966 l -5.9730642275653345 -5.409281944222556" fill="#ff6509" stroke="none" /><path d="M 115.07121518719521 114.62390073753431 l 4.545440136559526 4.410531237184305 a27.333546544332393,27.333546544332393 0 0,0 -0.33055287597209904,0.334848318178641 l -4.468846635531891 -4.48812004934361" fill="#ff4d07" stroke="none" /><path d="M 114.81725581225074 114.88116024355365 l 14.221595400958229 14.282930845107542 a41.155790465141294,41.155790465141294 0 0,0 -0.5063143060324328,0.4955351134881509 l -13.973631142550003 -14.525616061518265" fill="#fdff18" stroke="none" /><path d="M 114.29624159901734 115.38237550388516 l 2.2924671847309455 2.4666336828198068 a24.36744525097134,24.36744525097134 0 0,0 -0.30969914837265605,0.28290282914248716 l -2.249668486891425 -2.505729278548877" fill="#ff2303" stroke="none" /><path d="M 114.0293411484842 115.62618273729858 l 10.007541910515457 11.146616009247493 a35.979918008732085,35.979918008732085 0 0,0 -0.46441104371718145,0.40978874993424697 l -9.814188513891688 -11.317227900954029" fill="#ffc011" stroke="none" /><path d="M 113.48314897796784 116.09983520530334 l 3.481899342867732 4.157634519445431 a26.42305705586314,26.42305705586314 0 0,0 -0.35121259616473194,0.28902405621176364 l -3.4098166181583087 -4.216953694514373" fill="#ff4006" stroke="none" /><path d="M 113.20401910651253 116.32954008644616 l 2.87507209062066 3.5556298863621376 a25.572586075193936,25.572586075193936 0 0,0 -0.344672803829726,0.27382892092837513 l -2.813441794073583 -3.604592721295639" fill="#ff3405" stroke="none" /><path d="M 112.92097659922987 116.55440617244103 l 2.0859281554971925 2.6724993786220006 a24.390184242578993,24.390184242578993 0 0,0 -0.33318300790221855,0.25547052280711186 l -2.0396164191014803 -2.708009243256484" fill="#ff2303" stroke="none" /><path d="M 112.04921762599082 117.19931262002967 l 2.817373789189203 4.021579995635443 a25.91026483290927,25.91026483290927 0 0,0 -0.36748542847999266,0.2527598286195788 l -2.747731476086327 -4.069480613620116" fill="#ff3905" stroke="none" /><path d="M 111.45004920935366 117.60387380957326 l 5.110812666582435 7.857616993767001 a30.373502596875696,30.373502596875696 0 0,0 -0.44073137984965904,0.28129561910356643 l -4.974799484685845 -7.944427041694376" fill="#ff770a" stroke="none" /><line stroke="#e1ed5e" stroke-width="0.3" x1="143.8653032363475" x2="146.44561519142675" y1="172.8068346515853" y2="177.08958963109032" /><path d="M 144.38136562736335 173.6633856474863 a86.0,86.0 0 0,1 -40.68145358897372,12.25698825130547" fill="none" id="id6" stroke="none" /><text fill="#e1ed5e" style="font-size:6.75px; font-family:Arial;" text-anchor="middle"><textPath startOffset="21.466115282336833" xlink:href="#id6">June</textPath></text><path d="M 110.8373102113329 117.98757091392108 l 9.86769137722182 16.378215160700318 a40.12112091291438,40.12112091291438 0 0,0 -0.5946181846882878,0.3513109045067524 l -9.58430532150515 -16.545644637500818" fill="#fff417" stroke="none" /><path d="M 109.89434966115114 118.52300852407294 l 4.053792354700741 7.58902130129566 a29.603864060208615,29.603864060208615 0 0,0 -0.45154223708827307,0.23622555724051303 l -3.9225592150859727 -7.65767627748089" fill="#ff6c0a" stroke="none" /><path d="M 109.57404056367764 118.69057910512821 l 2.780029802979365 5.427213996181409 a27.09780431514499,27.09780431514499 0 0,0 -0.4169785511817302,0.20908170189524636 l -2.6861973441148743 -5.474263538985958" fill="#ff4a06" stroke="none" /><path d="M 108.2653958097858 119.30500536409082 l 3.5611983399914844 8.31768431158877 a30.047983528057955,30.047983528057955 0 0,0 -0.47723143291226183,0.19948277766194067 l -3.4174954475817616 -8.377752132270684" fill="#ff720a" stroke="none" /><path d="M 107.59598834532513 119.57807347666477 l 1.2275684660963955 3.1639629412626764 a24.393756890621045,24.393756890621045 0 0,0 -0.39277407772634376,0.14851354785425389 l -1.172924167609777 -3.1846247392235614" fill="#ff2403" stroke="none" /><path d="M 107.2578585660854 119.70592522655815 l 3.1116727158924617 8.4485512235561 a30.003361864763676,30.003361864763676 0 0,0 -0.4861693884727068,0.17432304562798587 l -2.96578376679002 -8.500861810224047" fill="#ff720a" stroke="none" /><path d="M 106.2309692047433 120.05430185196036 l 5.771912091774316 18.576831877664624 a40.45285716305415,40.45285716305415 0 0,0 -0.6667498199774857,0.20088625132704319 l -5.451287297356584 -18.673433498097392" fill="#fff817" stroke="none" /><path d="M 105.88484417918355 120.15858648285463 l 1.515902082627988 5.192736171382425 a26.409479463839315,26.409479463839315 0 0,0 -0.4374778462881517,0.12363560920912592 l -1.4262930682352306 -5.21806057393007" fill="#ff4006" stroke="none" /><path d="M 104.83641907484287 120.43548508189849 l 1.2715155065792885 5.372577471886651 a26.52099088705058,26.52099088705058 0 0,0 -0.44514832884861216,0.1013143103674125 l -1.1788470283378143 -5.393668515831749" fill="#ff4206" stroke="none" /><path d="M 103.7750983002368 120.6578951692458 l 1.3627339687670126 7.4570814403941 a28.580574350159864,28.580574350159864 0 0,0 -0.48471433098709443,0.08427379954514137 l -1.2341706663078682 -7.479433818460248" fill="#ff5e08" stroke="none" /><path d="M 103.41894727170886 120.7198165907248 l 1.472993438279716 8.92676939859392 a30.047481503981533,30.047481503981533 0 0,0 -0.5110420372432676,0.07981425610707724 l -1.3191155374279315 -8.950801962048104" fill="#ff720a" stroke="none" /><path d="M 103.06178313531738 120.77559828337769 l 3.0205697929378403 20.495946914436498 a41.7173280563254,41.7173280563254 0 0,0 -0.7113229728118857,0.09858288244203758 l -2.6673182289391244 -20.54490436237114" fill="#f7ff19" stroke="none" /><path d="M 102.70371172650421 120.8252237178851 l 3.468541215361245 26.71629008244809 a47.94050730651102,47.94050730651102 0 0,0 -0.8192634951100829,0.09920139988775654 l -3.0081502971997818 -26.772037011061197" fill="#aeff20" stroke="none" /><path d="M 102.34483914955558 120.86867818915974 l 0.37784223496494995 3.3627330084670666 a24.383893916888837,24.383893916888837 0 0,0 -0.41750730573048384,0.04327633932334466 l -0.31990233262886353 -3.3687387162461695" fill="#ff2303" stroke="none" /><path d="M 101.98527174616119 120.90594882070398 l 1.792661361791801 18.87766083154139 a39.96258719765774,39.96258719765774 0 0,0 -0.6853691836659788,0.059136537049825105 l -1.4674478603842807 -18.90572162086988" fill="#fff216" stroke="none" /><path d="M 101.62511606390274 120.93702456842531 l 0.5142167676367242 6.624861655512336 a27.64478824634739,27.64478824634739 0 0,0 -0.4747495291435142,0.0327415071039715 l -0.4001044777142797 -6.6327315071325925" fill="#ff5107" stroke="none" /><path d="M 101.26447882468166 120.96189622390904 l 3.7934364740449884 62.885688671727095 a84.0,84.0 0 0,0 -1.4440477263460816,0.07464077295119242 l -2.7104006792854274 -62.94166925144049" fill="#4dd2ff" stroke="none" /><path d="M 100.90346689309514 120.98055641714683 l 0.3905480387228584 9.069413857501571 a30.077818872900682,30.077818872900682 0 0,0 -0.5174525630854793,0.017822112530425895 l -0.23437512396272686 -9.074792768458092" fill="#ff730a" stroke="none" /><line stroke="#e1ed5e" stroke-width="0.3" x1="102.19456741930631" x2="102.32365962044197" y1="184.97166512339345" y2="189.96999836594603" /><path d="M 102.22038585953345 185.97133177190398 a86.0,86.0 0 0,1 -42.740103519485714,-10.115201625700543" fill="none" id="id7" stroke="none" /><text fill="#e1ed5e" style="font-size:6.75px; font-family:Arial;" text-anchor="middle"><textPath startOffset="22.20632615414155" xlink:href="#id7">July</textPath></text><path d="M 100.18074693466247 120.99922214144158 l 0.02882944857098006 3.3494122369921646 a24.34953630677707,24.34953630677707 0 0,0 -0.4191527664668687,0.0 l 0.028829448570977752 -3.3494122369921646" fill="#ff2303" stroke="none" /><path d="M 99.09653310690486 120.98055641714683 l -0.8179103586994179 18.993739068925603 a40.011341382798285,40.011341382798285 0 0,0 -0.6878367446653006,-0.035553302947929716 l 1.1447351717782075 -18.97684595921547" fill="#fff316" stroke="none" /><path d="M 98.73552117531835 120.96189622390904 l -0.20812771891190326 3.4502370146440486 a24.456508730583412,24.456508730583412 0 0,0 -0.41999656140874264,-0.028965421880073082 l 0.267487041099576 -3.4461432482476906" fill="#ff2403" stroke="none" /><path d="M 98.37488393609728 120.93702456842531 l -0.1366041698830915 1.7599265212622013 a22.76522011643634,22.76522011643634 0 0,0 -0.3904296848951957,-0.033687916055193924 l 0.16687817251982887 -1.757314352928344" fill="#ff0c01" stroke="none" /><path d="M 98.01472825383883 120.90594882070398 l -0.3579907432931214 3.769829582294456 a24.78678920087004,24.78678920087004 0 0,0 -0.4244057824495886,-0.043991394641445525 l 0.42282912234830333 -3.7631088191972495" fill="#ff2904" stroke="none" /><path d="M 96.22490169976321 120.6578951692458 l -0.18546804249433566 1.0149085068467982 a22.031715887275503,22.031715887275503 0 0,0 -0.372474887930386,-0.07138569876956145 l 0.20291054499641673 -1.0115656097287686" fill="#ff0100" stroke="none" /><path d="M 95.86986931433489 120.58985236759428 l -3.9208783937620124 19.546671382348645 a40.93603896234649,40.93603896234649 0 0,0 -0.6896914342922615,-0.14453154580015615 l 4.256761289483661 -19.476283855821947" fill="#fffe18" stroke="none" /><path d="M 94.81253420990036 120.34920634021253 l -0.8494762451399478 3.3322952078937425 a24.438866273004617,24.438866273004617 0 0,0 -0.4067436823460511,-0.10742470334339346 l 0.9067103702974881 -3.3171791552467678" fill="#ff2403" stroke="none" /><path d="M 93.42475214034765 119.94407469862007 l -1.7825202965062288 5.406749479890522 a26.69300610800244,26.69300610800244 0 0,0 -0.43513447188860654,-0.14762123809969338 l 1.875324501332061 -5.375265254892705" fill="#ff4406" stroke="none" /><path d="M 91.40352486487194 119.15986991738527 l -1.8600360753549017 4.145658387333064 a25.54381091883087,25.54381091883087 0 0,0 -0.3996171141381705,-0.18344461711911159 l 1.9311211852604917 -4.113026699879878" fill="#ff3404" stroke="none" /><line stroke="#e1ed5e" stroke-width="0.3" x1="58.666819895761336" x2="56.23545636021788" y1="174.27360380694188" y2="178.64263932499728" /><path d="M 58.180547188652646 175.14741091055294 a86.0,86.0 0 0,1 -31.652253787137756,-30.449443065178592" fill="none" id="id8" stroke="none" /><text fill="#e1ed5e" style="font-size:6.75px; font-family:Arial;" text-anchor="middle"><textPath startOffset="22.20632615414155" xlink:href="#id8">August</textPath></text><path d="M 89.1626897886671 117.98757091392108 l -4.65382914804732 7.724341205462113 a30.0179583497383,30.0179583497383 0 0,0 -0.44029312129928694,-0.27046399628742246 l 4.786101469278916 -7.643088742346313" fill="#ff720a" stroke="none" /><path d="M 88.8546689885994 117.79835938074946 l -5.472032160329422 8.738474867452394 a31.310386945831695,31.310386945831695 0 0,0 -0.4543259374927317,-0.28997230899560866 l 5.621639899869077 -8.64298812963298" fill="#ff830c" stroke="none" /><path d="M 88.54995079064634 117.60387380957326 l -3.510500681558953 5.397217939998102 a27.43844519484815,27.43844519484815 0 0,0 -0.39370941735450793,-0.26092913350421815 l 3.6028847976534224 -5.335990785402566" fill="#ff4e07" stroke="none" /><path d="M 88.24862548938628 117.40417183066458 l -3.728262694239287 5.521679570486969 a27.6624986301229,27.6624986301229 0 0,0 -0.39233737005289687,-0.26985322064552136 l 3.822756948915074 -5.456685560476346" fill="#ff5207" stroke="none" /><path d="M 87.95078237400918 117.19931262002967 l -4.483470944584536 6.399802940930627 a28.814025172321756,28.814025172321756 0 0,0 -0.4037704848994552,-0.2880795202044791 l 4.592968757332878 -6.3216791588819286" fill="#ff6109" stroke="none" /><path d="M 87.65650970185807 116.9893568818739 l -21.35736127640389 29.39588592981347 a57.335313268079055,57.335313268079055 0 0,0 -0.7934525600696989,-0.5869772351678977 l 21.860198806892154 -29.023898745905807" fill="#4aff2c" stroke="none" /><path d="M 87.36589467227662 116.77436683061367 l -2.0009340923064713 2.6566505183852183 a24.325887733912673,24.325887733912673 0 0,0 -0.3323046830834392,-0.2547970607897627 l 2.0463675038833973 -2.621814115768089" fill="#ff2303" stroke="none" /><path d="M 86.79598089348748 116.32954008644616 l -5.670608293152695 7.01289695891907 a30.018676298148662,30.018676298148662 0 0,0 -0.3990052026838492,-0.328354117672905 l 5.790483624381232 -6.914247722388985" fill="#ff720a" stroke="none" /><path d="M 86.51685102203217 116.09983520530335 l -5.073142570194874 6.057691677709012 a28.901417847431464,28.901417847431464 0 0,0 -0.37865608693811464,-0.3226989320570364 l 5.176664133710045 -5.969468355429024" fill="#ff6309" stroke="none" /><path d="M 86.24171649860922 115.8653595955263 l -2.5785644059165307 2.9734706030701394 a24.935800023220434,24.935800023220434 0 0,0 -0.32185901346123746,-0.284003157473731 l 2.6293657722843555 -2.9286443038241194" fill="#ff2b04" stroke="none" /><path d="M 85.97065885151581 115.62618273729859 l -8.055186238545991 8.97204015600493 a33.05750927425004,33.05750927425004 0 0,0 -0.42014591041909366,-0.3837933276044528 l 8.208431698431939 -8.832054061813901" fill="#ff9a0e" stroke="none" /><path d="M 85.70375840098266 115.38237550388516 l -2.67696079813869 2.880338578565982 a24.932234662624655,24.932234662624655 0 0,0 -0.3118478387824122,-0.29487159612945085 l 2.7261444713119194 -2.8338323456906003" fill="#ff2b04" stroke="none" /><path d="M 85.18274418774928 114.88116024355367 l -13.450034054970478 13.508041879643207 a40.06228243159933,40.06228243159933 0 0,0 -0.48448534310369795,-0.4907810946838257 l 13.68056002312971 -13.274520290978716" fill="#fff316" stroke="none" /><path d="M 84.67929136418377 114.36230785411682 l -6.2179115469729265 5.828944467915937 a29.522852668914737,29.522852668914737 0 0,0 -0.34436803845064495,-0.37374349222456055 l 6.317325993419301 -5.721049720890032" fill="#ff6b09" stroke="none" /><path d="M 84.43433777217949 114.09645910891817 l -5.642976434362983 5.110350295113953 a28.613071862103183,28.613071862103183 0 0,0 -0.3274713622110782,-0.36791754694422524 l 5.730106646222399 -5.012458578428864" fill="#ff5f08" stroke="none" /><path d="M 83.50135304334701 112.99209946851258 l -7.089576851507444 5.582790387990376 a30.023837789414653,30.023837789414653 0 0,0 -0.3162413447604314,-0.40878456786513157 l 7.1846250134859435 -5.459927826011992" fill="#ff720a" stroke="none" /><path d="M 83.28015986056508 112.70617746262583 l -4.40946725785309 3.3509574868347416 a26.538259435657764,26.538259435657764 0 0,0 -0.2732666478325639,-0.36608533136907784 l 4.466495172380739 -3.2745592759563555" fill="#ff4206" stroke="none" /><line stroke="#e1ed5e" stroke-width="0.3" x1="26.63291911575756" x2="22.317208475507996" y1="142.92168965132927" y2="145.44649492493687" /><path d="M 25.769776987707644 143.4266507060508 a86.0,86.0 0 0,1 -11.730757126820373,-40.83630448921669" fill="none" id="id9" stroke="none" /><text fill="#e1ed5e" style="font-size:6.75px; font-family:Arial;" text-anchor="middle"><textPath startOffset="21.46611528233685" xlink:href="#id9">September</textPath></text><path d="M 81.87401531095188 110.60418214915194 l -3.758530013482115 2.1988398180706974 a25.35447406787307,25.35447406787307 0 0,0 -0.21714054998634705,-0.3786028517326284 l 3.7958225596208393 -2.1338171204797622" fill="#ff3104" stroke="none" /><path d="M 80.87730276802145 108.67885076344099 l -18.58395132103102 8.434340519733922 a41.408364625938944,41.408364625938944 0 0,0 -0.288988809649012,-0.6515934749408825 l 18.726381215411312 -8.113198708300343" fill="#faff18" stroke="none" /><path d="M 80.73074385275274 108.34839909993369 l -8.280092778343992 3.5873475639052863 a30.02380180202566,30.02380180202566 0 0,0 -0.20137252498533195,-0.47598516458307755 l 8.34061628452163 -3.44428787365605" fill="#ff720a" stroke="none" /><path d="M 80.58989483394504 108.01547362559985 l -6.35578866861923 2.6246460803467224 a27.87639561450823,27.87639561450823 0 0,0 -0.1793346748308039,-0.4450939558004123 l 6.400025957707421 -2.514852756703505" fill="#ff5407" stroke="none" /><path d="M 79.86692584326677 105.97154293290107 l -18.243321824153554 5.41103552609875 a40.028875338399274,40.028875338399274 0 0,0 -0.19024649980669,-0.6622730238231078 l 18.333760960846348 -5.096205026771047" fill="#fff316" stroke="none" /><path d="M 79.58551787078972 104.9243191809786 l -8.74977631868799 2.1105943850388718 a30.000732985997907,30.000732985997907 0 0,0 -0.11677347314019024,-0.5030570660422077 l 8.784810357758737 -1.9596686616480898" fill="#ff720a" stroke="none" /><path d="M 79.35854240842038 103.8639653848113 l -0.9188389934107732 0.17200151922422374 a21.934799239637883,21.934799239637883 0 0,0 -0.0662781451586039,-0.3717230359913564 l 0.9216635809085658 -0.15615973249965365" fill="#ff0000" stroke="none" /><path d="M 79.23777060512086 103.15116336523772 l -8.89810250543937 1.3504992215424731 a30.000004241370846,30.000004241370846 0 0,0 -0.07309422316741876,-0.5112208265896069 l 8.920030779623387 -1.1971329229724657" fill="#ff720a" stroke="none" /><path d="M 79.07016306316243 101.71520430193888 l -11.668486470587759 0.9562347882530505 a32.70760272150345,32.70760272150345 0 0,0 -0.04115463913056533,-0.5615223534235073 l 11.68321766838266 -0.7552392983327825" fill="#ff960d" stroke="none" /><path d="M 79.04373962182676 101.35467743843564 l -4.496882772129382 0.29069240049328987 a25.50626860473037,25.50626860473037 0 0,0 -0.02455117922592323,-0.43837779762822116 l 4.501220302242837 -0.21324288652963108" fill="#ff3304" stroke="none" /><line stroke="#e1ed5e" stroke-width="0.3" x1="15.007084014347285" x2="10.007500721073583" y1="101.09737516637583" y2="101.16192664675087" /><path d="M 14.007167355692545 101.11028546245083 a86.0,86.0 0 0,1 10.666146001902534,-42.60595125391555" fill="none" id="id10" stroke="none" /><text fill="#e1ed5e" style="font-size:6.75px; font-family:Arial;" text-anchor="middle"><textPath startOffset="22.20632615414155" xlink:href="#id10">October</textPath></text><path d="M 79.01574976396665 99.18683210126434 l -9.01226929925074 -0.34923754751682135 a30.019033472984397,30.019033472984397 0 0,0 0.024453207001932573,-0.5161685512860373 l 9.004922484015308 0.5043172054258678" fill="#ff720a" stroke="none" /><path d="M 79.05617556472873 98.46500227214037 l -8.99361523552245 -0.6591527251594789 a30.01773792698073,30.01773792698073 0 0,0 0.04220424794596027,-0.5149987243807328 l 8.980936503756991 0.81386536674799" fill="#ff720a" stroke="none" /><path d="M 79.08570108090925 98.10471618934814 l -7.227339394065265 -0.6549518776914272 a28.256955055606944,28.256955055606944 0 0,0 0.04806760257401714,-0.48403419815652254 l 7.214994665809019 0.77926160655238" fill="#ff5a08" stroke="none" /><path d="M 79.32604984820605 96.31383870115002 l -8.86217724438561 -1.5801244823533918 a30.00194306195272,30.00194306195272 0 0,0 0.0950265487649207,-0.5076356232681651 l 8.833664971710828 1.7324381830841298" fill="#ff720a" stroke="none" /><path d="M 79.3925641242962 95.95851677861259 l -8.835242654042 -1.7327475945368 a30.003550798555878,30.003550798555878 0 0,0 0.10375614209720736,-0.5059517971098392 l 8.804107216029799 1.8845750478100416" fill="#ff720a" stroke="none" /><path d="M 80.02781315780177 93.51064311812611 l -18.09031932764924 -5.877901060696061 a40.021287397430584,40.021287397430584 0 0,0 0.21852138665366908,-0.6533511321673857 l 17.986460647223797 6.188425295785769" fill="#fff316" stroke="none" /><path d="M 80.803312248108 91.48605970444005 l -34.811576852391426 -15.439313841334206 a59.081731773137214,59.081731773137214 0 0,0 0.42031780174759187,-0.9261145609149 l 34.54065673368048 16.036250411091178" fill="#39ff2e" stroke="none" /><path d="M 81.43458229118936 90.18545643968196 l -6.852646527683261 -3.6226277751613356 a28.751270633305214,28.751270633305214 0 0,0 0.2350647764245859,-0.4355393305623338 l 6.789273652040203 3.7400480890561423" fill="#ff6108" stroke="none" /><line stroke="#e1ed5e" stroke-width="0.3" x1="26.266209847984243" x2="21.928928074336255" y1="57.711370442889674" y2="55.22380399835377" /><path d="M 25.398753493254645 57.213857153982495 a86.0,86.0 0 0,1 29.58750427330803,-30.492523968695096" fill="none" id="id11" stroke="none" /><text fill="#e1ed5e" style="font-size:6.75px; font-family:Arial;" text-anchor="middle"><textPath startOffset="21.46611528233685" xlink:href="#id11">November</textPath></text><path d="M 82.95767976084542 87.72973835380427 l -0.8781606000634226 -0.6322648664588745 a22.082092833754114,22.082092833754114 0 0,0 0.2247508967865725,-0.30655997063674956 l 0.8671470907632166 0.6472872807671247" fill="#ff0200" stroke="none" /><path d="M 84.07557802195018 86.31012108654704 l -2.376610094152428 -2.0431199611693063 a24.134105090030594,24.134105090030594 0 0,0 0.27352920841403155,-0.31269116952193776 l 2.3410890221605527 2.0837266868941873" fill="#ff2003" stroke="none" /><path d="M 84.31358615837235 86.03803664274999 l -4.391474306976521 -3.908707495374167 a26.879034008511017,26.879034008511017 0 0,0 0.31058897791727613,-0.3429601068317781 l 4.3235416884432 3.983720389475501" fill="#ff4706" stroke="none" /><path d="M 85.05521093208273 85.24692304244772 l -12.85650451405285 -12.691580967718076 a39.06560089728556,39.06560089728556 0 0,0 0.47653373308744035,-0.4744873457956413 l 12.636134980798095 12.911004164163826" fill="#ffe715" stroke="none" /><path d="M 85.31137513191541 84.99185889309783 l -2.669047507391363 -2.727106313334466 a24.81587780739121,24.81587780739121 0 0,0 0.30785485682342384,-0.2961561283510472 l 2.621709406955512 2.7726455284478266" fill="#ff2a04" stroke="none" /><path d="M 85.57189188830299 84.74124197986013 l -6.385291988128882 -6.752903747360167 a30.293743206844802,30.293743206844802 0 0,0 0.3819783034055065,-0.3550072035160384 l 6.26810580092852 6.8618155369508536" fill="#ff760a" stroke="none" /><path d="M 86.10567301691215 84.25364557470407 l -6.0895359827615545 -6.901233286568756 a30.203774734368086,30.203774734368086 0 0,0 0.3928018182967536,-0.34063386609355006 l 5.969840365818028 7.005032146081986" fill="#ff740a" stroke="none" /><path d="M 86.37877921826538 84.01681056812374 l -5.678059311770226 -6.662655208345819 a29.753932371984504,29.753932371984504 0 0,0 0.3926703858439926,-0.32885015554858965 l 5.562531388967123 6.759406521288221" fill="#ff6e0a" stroke="none" /><path d="M 86.65592168130627 83.78471172551755 l -6.111352574312288 -7.426316106122415 a30.617629707760983,30.617629707760983 0 0,0 0.40983388832677137,-0.33139050232374173 l 5.982615287421016 7.530412705710291" fill="#ff7a0b" stroke="none" /><path d="M 86.93701828274178 83.55741782278169 l -10.644466114756565 -13.398358247203898 a38.11200346507145,38.11200346507145 0 0,0 0.5171752497712632,-0.40366348574434985 l 10.412258309825875 13.57960012217147" fill="#ffdb14" stroke="none" /><path d="M 87.22198572758235 83.33499621200491 l -5.479847827621296 -7.146782188377312 a30.00584409491931,30.00584409491931 0 0,0 0.4125858520063835,-0.31075110992946064 l 5.356015821856523 7.240049887812626" fill="#ff720a" stroke="none" /><path d="M 87.51073957382395 83.11751280151077 l -5.521886441714215 -7.464267217005623 a30.28474635959713,30.28474635959713 0 0,0 0.42175790075723524,-0.3064250514223967 l 5.392583224603198 7.558211503244687" fill="#ff750a" stroke="none" /><path d="M 87.80319425747018 82.90503203632743 l -8.45987620216335 -11.857310488132896 a35.56589569398038,35.56589569398038 0 0,0 0.5014263908477703,-0.3512812308384837 l 8.25451867173192 12.001176561735322" fill="#ffbb11" stroke="none" /><path d="M 88.09926311788651 82.69761687909137 l -3.4109159922104113 -4.9591026064242945 a27.018890808692326,27.018890808692326 0 0,0 0.3854634689822152,-0.26026665492864454 l 3.3250478288216567 5.017081173651604" fill="#ff4906" stroke="none" /><path d="M 88.39885842347998 82.49532879139004 l -4.796219962351119 -7.236895863339009 a29.68195759400313,29.68195759400313 0 0,0 0.42831485191692537,-0.27858789403947987 l 4.670938084649905 7.318382681538024" fill="#ff6d0a" stroke="none" /><path d="M 89.00827224532344 82.1063720568725 l -5.208253834765732 -8.478608498378643 a30.95051305592483,30.95051305592483 0 0,0 0.4563549005781065,-0.27494872140847854 l 5.061536867969977 8.56700382924574" fill="#ff7e0b" stroke="none" /><line stroke="#e1ed5e" stroke-width="0.3" x1="56.762969772571076" x2="54.21961505331055" y1="26.818313649435495" y2="22.513508569990535" /><path d="M 56.25429882871897 25.957352633546506 a86.0,86.0 0 0,1 42.265352541879196,-11.944610805530505" fill="none" id="id12" stroke="none" /><text fill="#e1ed5e" style="font-size:6.75px; font-family:Arial;" text-anchor="middle"><textPath startOffset="22.20632615414155" xlink:href="#id12">December</textPath></text><path d="M 89.3179101791058 81.91981866633112 l -4.6816927811331706 -7.924091245315004 a30.203774734368086,30.203774734368086 0 0,0 0.4498971156567497,-0.26060944823785853 l 4.544598933011101 8.00350485094291" fill="#ff740a" stroke="none" /><path d="M 90.26544431104013 81.39251694778311 l -7.402621487600322 -14.150019607850986 a36.969403864617156,36.969403864617156 0 0,0 0.5664056177874285,-0.2901349567442697 l 7.15795538222413 14.275347089907761" fill="#ffcd13" stroke="none" /><path d="M 90.58718382345135 81.22770947309562 l -1.379166614490509 -2.7505175801399755 a24.0769217587037,24.0769217587037 0 0,0 0.3720787101257723,-0.18257740713861936 l 1.3316166373543106 2.7738501474134245" fill="#ff1f03" stroke="none" /><path d="M 90.91171255644093 81.06846463323043 l -3.698935103761972 -7.705139298370619 a29.547004885288054,29.547004885288054 0 0,0 0.46040113282396017,-0.21616450516604813 l 3.565755759638403 7.7676687861766744" fill="#ff6b09" stroke="none" /><path d="M 91.23893434514133 80.91482961587045 l -4.59044136214502 -9.99985150052008 a32.003144183902414,32.003144183902414 0 0,0 0.5026290103398602,-0.22551498565551184 l 4.417630233338385 10.07738681669212" fill="#ff8c0c" stroke="none" /><path d="M 91.56875222667455 80.76684994638697 l -5.757729020393611 -13.134386415214424 a35.34097451278859,35.34097451278859 0 0,0 0.559256183148495,-0.2394443112349859 l 5.530789079454807 13.231550254412197" fill="#ffb811" stroke="none" /><path d="M 91.90106846888425 80.62456947434976 l -0.5322603794155382 -1.273349942927749 a22.38011636779283,22.38011636779283 0 0,0 0.3567136166090174,-0.14551244076032654 l 0.5102628932181403 1.2823232698716525" fill="#ff0601" stroke="none" /><path d="M 92.23578459929587 80.48803036053334 l -7.2687514619314175 -18.266837088158628 a40.65991060561206,40.65991060561206 0 0,0 0.6525273516047366,-0.2531704748019868 l 6.953240945327004 18.389250266851164" fill="#fffb17" stroke="none" /><path d="M 92.57280143429618 80.3572730644239 l -3.8247279957363447 -10.115265797526588 a31.81421039170131,31.81421039170131 0 0,0 0.5139020217359557,-0.18927445160291914 l 3.650043648227819 10.17960351693583" fill="#ff8a0c" stroke="none" /><path d="M 92.91201910852362 80.23233633223022 l -1.0962277512564416 -3.0572686103276494 a24.24786185640946,24.24786185640946 0 0,0 0.3941062673609516,-0.13749593820282646 l 1.0434394798322046 3.0756854017026853" fill="#ff2103" stroke="none" /><path d="M 93.59665428221793 80.00007090966166 l -6.315144925214497 -19.724446604336595 a41.71074236414011,41.71074236414011 0 0,0 0.6856742085331164,-0.21304231428225756 l 5.974685343970651 19.830229053501377" fill="#f7ff19" stroke="none" /><path d="M 93.94186890950719 79.89281104454417 l -3.1249005882452936 -10.371674969772226 a31.832204086196654,31.832204086196654 0 0,0 0.5260041052064153,-0.15355502229203546 l 2.945906265315457 10.42392832098296" fill="#ff8a0c" stroke="none" /><path d="M 94.28887869178378 79.79150937346287 l -0.8294536743703823 -2.9349764956920468 a24.049931216960687,24.049931216960687 0 0,0 0.39934579901802286,-0.10915629224657965 l 0.7788099861286369 2.9488193287649227" fill="#ff1f03" stroke="none" /><path d="M 94.63758080256005 79.69619591428918 l -1.387614252571376 -5.253943582814196 a26.43409573759367,26.43409573759367 0 0,0 0.4409347034537527,-0.11240407373107329 l 1.2969706604326239 5.277050652714132" fill="#ff4006" stroke="none" /><path d="M 94.98787191387505 79.60689891045804 l -1.977665526917958 -8.046628561506152 a29.286096315105578,29.286096315105578 0 0,0 0.49057880880895044,-0.11610415407946259 l 1.8388630311464735 8.079478627726484" fill="#ff6809" stroke="none" /><path d="M 95.692805502759 79.44645832069477 l -1.8213050350113904 -8.69110251970599 a29.879888233451908,29.879888233451908 0 0,0 0.5043064795858582,-0.10115913553588254 l 1.6714321459583958 8.721165611319083" fill="#ff700a" stroke="none" /><path d="M 96.04723909329186 79.375362276772 l -1.6985272972606595 -8.862542156183425 a30.023837789414653,30.023837789414653 0 0,0 0.508410628625294,-0.09290879270231847 l 1.5457215475324722 8.89046643023648" fill="#ff720a" stroke="none" /><path d="M 96.40284397218896 79.31037775812273 l -2.3162706739195467 -13.322403833145986 a34.52226141325047,34.52226141325047 0 0,0 0.5863372563878552,-0.09675067123547161 l 2.086604211392806 13.360300767321085" fill="#ffae10" stroke="none" /><path d="M 97.11714578562143 79.19881850522333 l -1.2363112191940229 -8.920580834860923 a30.00584409491931,30.00584409491931 0 0,0 0.5122215793675258,-0.06650106185966817 l 1.0825749113186394 8.940540219884728" fill="#ff720a" stroke="none" /><path d="M 97.47563105711357 79.15227682838746 l -1.3010365817345884 -10.744725159361966 a31.82320723894898,31.82320723894898 0 0,0 0.5443788400638595,-0.061167305605129695 l 1.115891038161011 10.765528418437693" fill="#ff8a0c" stroke="none" /><path d="M 97.83486435360386 79.11191278185805 l -0.3784568109473752 -3.651151782811785 a24.670713677050028,24.670713677050028 0 0,0 0.42277952138674035,-0.04014800982547965 l 0.3155521624703985 3.6571253371524457" fill="#ff2703" stroke="none" /><path d="M 98.19473922651362 79.07773832637324 l -0.2962168583974573 -3.4330367748269266 a24.445792495858235,24.445792495858235 0 0,0 0.41954778306285423,-0.03256498265080441 l 0.23707888597226892 3.437627019666193" fill="#ff2403" stroke="none" /><path d="M 98.55514903715128 79.0497635885617 l -0.9464585291164477 -13.723581496265309 a34.75617944168994,34.75617944168994 0 0,0 0.5972070752334196,-0.036025161679857004 l 0.710089405043405 13.737839927325473" fill="#ffb110" stroke="none" /><path d="M 98.91598698831166 79.02799685794201 l -0.3534192526082609 -6.837472978871602 a27.846600755478114,27.846600755478114 0 0,0 0.47890738807787114,-0.020622759539086915 l 0.23567103214106566 6.842543464934882" fill="#ff5407" stroke="none" /></svg>