<?xml version="1.0" encoding="utf-8" ?>
<svg baseProfile="full" height="200mm" version="1.1" viewBox="0,0,200,200" width="200mm" xmlns="http://www.w3.org/2000/svg" xmlns:ev="http://www.w3.org/2001/xml-events" xmlns:xlink="http://www.w3.org/1999/xlink"><defs /><rect fill="#1a1a1a" height="200" width="200" x="0" y="0" /><text alignment-baseline="middle" fill="#e1ed5e" style="dominant-baseline: central; font-size:9.0px; font-family:Arial;" text-anchor="middle" x="100.0" y="100.0">2022</text><line stroke="#e1ed5e" stroke-width="0.3" x1="100.0" x2="100.0" y1="15.0" y2="10.0" /><path d="M 100.0 14.0 a86.0,86.0 0 0,1 42.46469731375804,11.215312516191453" fill="none" id="id37" stroke="none" /><text fill="#e1ed5e" style="font-size:6.75px; font-family:Arial;" text-anchor="middle"><textPath startOffset="22.20632615414155" xlink:href="#id37">January</textPath></text><path d="M 100.36148047927253 79.00311137660856 l 0.2668334071617671 -15.499236203434661 a36.501532922812416,36.501532922812416 0 0,0 0.6281277034696207,0.01622268542338624 l -0.5335877458262557 15.492346725868915" fill="#ffb510" stroke="none" /><line stroke="#e1ed5e" stroke-width="0.3" x1="143.23703022742887" x2="145.7803849466894" y1="26.81831364943548" y2="22.513508569990506" /><path d="M 143.74570117128098 25.957352633546492 a86.0,86.0 0 0,1 28.547481713284135,27.462654790039103" fill="none" id="id38" stroke="none" /><text fill="#e1ed5e" style="font-size:6.75px; font-family:Arial;" text-anchor="middle"><textPath startOffset="19.985693538727396" xlink:href="#id38">February</textPath></text><path d="M 113.89432698308785 84.25364557470407 l 10.946495568163078 -12.405595401708368 a37.5446233711953,37.5446233711953 0 0,0 0.480909102938016,0.43176494092986034 l -11.158415658697084 12.215331452009211" fill="#ffc312" stroke="none" /><line stroke="#e1ed5e" stroke-width="0.3" x1="172.23445277983987" x2="176.4835382374775" y1="55.19839476539836" y2="52.563006222186495" /><path d="M 173.08426987136738 54.67131705675599 a86.0,86.0 0 0,1 12.851231095245387,41.99856678651699" fill="none" id="id39" stroke="none" /><text fill="#e1ed5e" style="font-size:6.75px; font-family:Arial;" text-anchor="middle"><textPath startOffset="22.20632615414155" xlink:href="#id39">March</textPath></text><path d="M 120.37134235888165 94.90015583598534 l 14.637637538843578 -3.6644453302257145 a36.089353607652505,36.089353607652505 0 0,0 0.14567587836751414,0.6039205636949991 l -14.698546217471911 3.4119395348713093" fill="#ffb010" stroke="none" /><path d="M 120.67395015179393 96.31383870115 l 15.27293093682924 -2.723160621264414 a36.513801054878876,36.513801054878876 0 0,0 0.10500002259643106,0.6197160770746182 l -15.317542820945896 2.459858755873958" fill="#ffb610" stroke="none" /><path d="M 120.87857604477298 97.74499172005257 l 15.304506787701655 -1.6529762112497606 a36.393513516080844,36.393513516080844 0 0,0 0.06190861472938419,0.6234113016844359 l -15.330692528113268 1.3892893788608898" fill="#ffb410" stroke="none" /><line stroke="#e1ed5e" stroke-width="0.3" x1="184.98032266829074" x2="189.97916517819016" y1="98.17113171792111" y2="98.06355123074" /><path d="M 185.9800911702706 98.14961562048488 a86.0,86.0 0 0,1 -9.607161424134198,41.387399972396054" fill="none" id="id40" stroke="none" /><text fill="#e1ed5e" style="font-size:6.75px; font-family:Arial;" text-anchor="middle"><textPath startOffset="21.466115282336823" xlink:href="#id40">April</textPath></text><path d="M 120.8583938346157 102.4346265915055 l 15.137692361632984 1.7668967538861557 a36.24046108798336,36.24046108798336 0 0,0 -0.07765552634083712,0.6189909508903881 l -15.105035326045298 -2.027205459063939" fill="#ffb210" stroke="none" /><path d="M 120.41448212921028 104.9243191809786 l 15.507241865032416 3.740609635685504 a36.95201274783835,36.95201274783835 0 0,0 -0.15447469682308979,0.6170496261380687 l -15.440555853914265 -4.006987101220968" fill="#ffbb11" stroke="none" /><path d="M 119.54520255179757 107.68017299344265 l 14.267931488466425 5.606500203802274 a36.32992868524856,36.32992868524856 0 0,0 -0.23371801855202132,0.5800689549709211 l -14.169310855657011 -5.851268526616009" fill="#ffb310" stroke="none" /><line stroke="#e1ed5e" stroke-width="0.3" x1="174.80103733775053" x2="179.2010983576182" y1="140.37084112569926" y2="142.7455964860345" /><path d="M 175.68104954172406 140.8457921977663 a86.0,86.0 0 0,1 -30.038265399797805,32.042727171017184" fill="none" id="id41" stroke="none" /><text fill="#e1ed5e" style="font-size:6.75px; font-family:Arial;" text-anchor="middle"><textPath startOffset="22.206326154141568" xlink:href="#id41">May</textPath></text><path d="M 117.94076556474637 110.91462005526583 l 12.896793231737131 7.846019588614174 a36.09593650778573,36.09593650778573 0 0,0 -0.32750248900158513,0.5280382913332349 l -12.759826103067583 -8.066854211312682" fill="#ffb010" stroke="none" /><path d="M 116.93607887273984 112.41649034213515 l 12.077319259496601 8.854346928307779 a35.97534974625437,35.97534974625437 0 0,0 -0.37044114568243275,0.4962664512684631 l -11.923116847119076 -9.060926259085557" fill="#ffae10" stroke="none" /><path d="M 115.32070863581623 114.36230785411682 l 11.121740567273058 10.426010029808612 a36.24450059488329,36.24450059488329 0 0,0 -0.43060787842688597,0.45149063898297886 l -10.940626137467207 -10.6159077853741" fill="#ffb210" stroke="none" /><path d="M 113.48314897796784 116.09983520530334 l 9.621237701351431 11.488439511862154 a35.985074485087544,35.985074485087544 0 0,0 -0.47830996263486675,0.3936165360720294 l -9.422057610171873 -11.652351166791362" fill="#ffaf10" stroke="none" /><path d="M 112.63410532772338 116.77436683061366 l 9.03545358447121 11.996418343475577 a36.018437819853666,36.018437819853666 0 0,0 -0.49845235107113695,0.36874313300970385 l -8.82761626298151 -12.15017142522505" fill="#ffaf10" stroke="none" /><path d="M 111.45004920935366 117.60387380957326 l 8.18719128808344 12.587394137356206 a36.01574481525371,36.01574481525371 0 0,0 -0.5226025170496056,0.33354965246336016 l -7.969306968986904 -12.726458218643375" fill="#ffaf10" stroke="none" /><line stroke="#e1ed5e" stroke-width="0.3" x1="143.8653032363475" x2="146.44561519142675" y1="172.8068346515853" y2="177.08958963109032" /><path d="M 144.38136562736335 173.6633856474863 a86.0,86.0 0 0,1 -40.68145358897372,12.25698825130547" fill="none" id="id42" stroke="none" /><text fill="#e1ed5e" style="font-size:6.75px; font-family:Arial;" text-anchor="middle"><textPath startOffset="21.466115282336833" xlink:href="#id42">June</textPath></text><path d="M 110.5260780823613 118.17145234162733 l 7.513770611071168 12.971224752151079 a35.990310882920795,35.990310882920795 0 0,0 -0.5387427907112162,0.30591221688897585 l -7.289379053438752 -13.098640134834683" fill="#ffaf10" stroke="none" /><path d="M 106.91757812671514 119.82793768551818 l 4.9335493464805396 14.1410920438562 a35.97699547128768,35.97699547128768 0 0,0 -0.5864768794191471,0.19896479973405265 l -4.689402734124166 -14.223919830488375" fill="#ffae10" stroke="none" /><path d="M 105.88484417918355 120.15858648285463 l 4.243718776822295 14.536896707323681 a36.14366253375161,36.14366253375161 0 0,0 -0.5987263650494047,0.16920605127897528 l -3.992861243668284 -14.607791551941174" fill="#ffb110" stroke="none" /><path d="M 104.48393922423573 120.51570834832081 l 3.197230935291656 14.628533998886386 a35.97385363258773,35.97385363258773 0 0,0 -0.6060884085952061,0.12701171890834148 l -2.944951065267072 -14.681401698521269" fill="#ffae10" stroke="none" /><path d="M 103.41894727170886 120.7198165907248 l 2.4379214554392967 14.774514318276545 a35.97430246668772,35.97430246668772 0 0,0 -0.6118443177524052,0.09555749921900139 l -2.183241274078374 -14.814290124842652" fill="#ffae10" stroke="none" /><path d="M 101.98527174616119 120.90594882070398 l 1.4298929522715371 15.057519927474422 a36.125260335651916,36.125260335651916 0 0,0 -0.61955798966434,0.053458070312301244 l -1.1704906448656553 -15.079902250065386" fill="#ffb010" stroke="none" /><path d="M 100.90346689309514 120.98055641714683 l 0.644865154694755 14.975235797711345 a35.98911399198748,35.98911399198748 0 0,0 -0.6191492593602899,0.021324752374694705 l -0.38699554365981287 -14.984117348512134" fill="#ffaf10" stroke="none" /><line stroke="#e1ed5e" stroke-width="0.3" x1="102.19456741930631" x2="102.32365962044197" y1="184.97166512339345" y2="189.96999836594603" /><path d="M 102.22038585953345 185.97133177190398 a86.0,86.0 0 0,1 -42.740103519485714,-10.115201625700543" fill="none" id="id43" stroke="none" /><text fill="#e1ed5e" style="font-size:6.75px; font-family:Arial;" text-anchor="middle"><textPath startOffset="22.20632615414155" xlink:href="#id43">July</textPath></text><path d="M 99.45781275523022 120.99299961872073 l -0.38657064312577544 14.967665584227984 a35.97265674165442,35.97265674165442 0 0,0 -0.6188661322358899,-0.021315000904063918 l 0.6441571270363085 -14.958793784897827" fill="#ffae10" stroke="none" /><path d="M 92.7421414339146 119.70592522655815 l -5.174165740473448 14.048458269500664 a35.97101101662111,35.97101101662111 0 0,0 -0.5791842863847394,-0.21899793828136113 l 5.41522024761847 -13.957312081112669" fill="#ffae10" stroke="none" /><path d="M 92.40401165467489 119.57807347666478 l -0.966574549224647 2.4912712717681673 a23.672208619989505,23.672208619989505 0 0,0 -0.37861885519022503,-0.15066025628283378 l 1.0093144804567302 -2.474264171079267" fill="#ff0000" stroke="none" /><line stroke="#e1ed5e" stroke-width="0.3" x1="58.666819895761336" x2="56.23545636021788" y1="174.27360380694188" y2="178.64263932499728" /><path d="M 58.180547188652646 175.14741091055294 a86.0,86.0 0 0,1 -31.652253787137756,-30.449443065178592" fill="none" id="id44" stroke="none" /><text fill="#e1ed5e" style="font-size:6.75px; font-family:Arial;" text-anchor="middle"><textPath startOffset="22.20632615414155" xlink:href="#id44">August</textPath></text><path d="M 84.43433777217949 114.09645910891817 l -34.92235209835621 31.626120439762996 a68.11456431032721,68.11456431032721 0 0,0 -0.7795587020022039,-0.8758424657445433 l 35.46156965000675 -31.02030380427759" fill="#39ff87" stroke="none" /><line stroke="#e1ed5e" stroke-width="0.3" x1="26.63291911575756" x2="22.317208475507996" y1="142.92168965132927" y2="145.44649492493687" /><path d="M 25.769776987707644 143.4266507060508 a86.0,86.0 0 0,1 -11.730757126820373,-40.83630448921669" fill="none" id="id45" stroke="none" /><text fill="#e1ed5e" style="font-size:6.75px; font-family:Arial;" text-anchor="middle"><textPath startOffset="21.46611528233685" xlink:href="#id45">September</textPath></text><path d="M 79.07016306316243 101.71520430193888 l -14.940972339027367 1.224415656385027 a35.99105893975411,35.99105893975411 0 0,0 -0.045286077833478176,-0.6178925520814178 l 14.95983497552518 -0.9670499678068485" fill="#ffaf10" stroke="none" /><path d="M 79.0235259727143 100.99374915477108 l -7.515825546831343 0.3560581857015259 a28.524254852276584,28.524254852276584 0 0,0 -0.01901327285431699,-0.490648088791129 l 7.520840952536861 -0.22663284989640015" fill="#ff4706" stroke="none" /><line stroke="#e1ed5e" stroke-width="0.3" x1="15.007084014347285" x2="10.007500721073583" y1="101.09737516637583" y2="101.16192664675087" /><path d="M 14.007167355692545 101.11028546245083 a86.0,86.0 0 0,1 10.666146001902534,-42.60595125391555" fill="none" id="id46" stroke="none" /><text fill="#e1ed5e" style="font-size:6.75px; font-family:Arial;" text-anchor="middle"><textPath startOffset="22.20632615414155" xlink:href="#id46">October</textPath></text><path d="M 79.54389044137918 95.25157060432595 l -14.590263997699545 -3.386804233658604 a35.978192362220994,35.978192362220994 0 0,0 0.1452271722963436,-0.6020603873468358 l 14.529804025142386 3.6374498526648367" fill="#ffae10" stroke="none" /><path d="M 79.81627453868168 94.20196356495316 l -14.429922629858817 -4.145182083613406 a36.01350064475375,36.01350064475375 0 0,0 0.17628454717354403,-0.5943438573264863 l 14.356432185573567 4.392955327686432" fill="#ffaf10" stroke="none" /><path d="M 80.95270993114464 91.15688171328213 l -13.618130961193513 -6.322513202587364 a36.014248701587064,36.014248701587064 0 0,0 0.26589115076792447,-0.5600345742148272 l 13.507281616583837 6.5559901924427235" fill="#ffaf10" stroke="none" /><path d="M 81.6062741919709 89.86733742301443 l -13.175885177508626 -7.258279265994224 a36.042824472619934,36.042824472619934 0 0,0 0.3040338543601333,-0.5408423018975544 l 13.048993681856063 7.484005077826563" fill="#ffaf10" stroke="none" /><line stroke="#e1ed5e" stroke-width="0.3" x1="26.266209847984243" x2="21.928928074336255" y1="57.711370442889674" y2="55.22380399835377" /><path d="M 25.398753493254645 57.213857153982495 a86.0,86.0 0 0,1 29.58750427330803,-30.492523968695096" fill="none" id="id47" stroke="none" /><text fill="#e1ed5e" style="font-size:6.75px; font-family:Arial;" text-anchor="middle"><textPath startOffset="21.46611528233685" xlink:href="#id47">November</textPath></text><path d="M 82.54541684631803 88.32363383020206 l -12.46236619516232 -8.336787521971326 a35.99375194435407,35.99375194435407 0 0,0 0.34892606117422353,-0.5120059395586554 l 12.317015668319355 8.550071484800398" fill="#ffaf10" stroke="none" /><path d="M 82.95767976084542 87.72973835380427 l -12.223502212658698 -8.800771742194128 a36.06212433891962,36.06212433891962 0 0,0 0.36703924968615215,-0.5006411240849107 l 12.070200350458911 9.009875309950537" fill="#ffb010" stroke="none" /><path d="M 84.80347519578584 85.50635884689758 l -42.13601726183925 -40.18710341226648 a79.22754701477828,79.22754701477828 0 0,0 0.9497335658457626,-0.9787839235414001 l 41.43801943229037 40.906451531358" fill="#47fffe" stroke="none" /><path d="M 86.10567301691215 84.25364557470407 l -41.68298094926353 -47.23906327588782 a84.0,84.0 0 0,0 1.092424805412906,-0.9473400263212777 l 40.863662345203856 47.94956829562878" fill="#4dd2ff" stroke="none" /><line stroke="#e1ed5e" stroke-width="0.3" x1="56.762969772571076" x2="54.21961505331055" y1="26.818313649435495" y2="22.513508569990535" /><path d="M 56.25429882871897 25.957352633546506 a86.0,86.0 0 0,1 42.265352541879196,-11.944610805530505" fill="none" id="id48" stroke="none" /><text fill="#e1ed5e" style="font-size:6.75px; font-family:Arial;" text-anchor="middle"><textPath startOffset="22.20632615414155" xlink:href="#id48">December</textPath></text></svg>