<?xml version="1.0" encoding="utf-8" ?>
<svg baseProfile="full" height="200mm" version="1.1" viewBox="0,0,200,200" width="200mm" xmlns="http://www.w3.org/2000/svg" xmlns:ev="http://www.w3.org/2001/xml-events" xmlns:xlink="http://www.w3.org/1999/xlink"><defs /><rect fill="#1a1a1a" height="200" width="200" x="0" y="0" /><text alignment-baseline="middle" fill="#e1ed5e" style="dominant-baseline: central; font-size:9.0px; font-family:Arial;" text-anchor="middle" x="100.0" y="100.0">2023</text><line stroke="#e1ed5e" stroke-width="0.3" x1="100.0" x2="100.0" y1="15.0" y2="10.0" /><path d="M 100.0 14.0 a86.0,86.0 0 0,1 42.46469731375804,11.215312516191453" fill="none" id="id25" stroke="none" /><text fill="#e1ed5e" style="font-size:6.75px; font-family:Arial;" text-anchor="middle"><textPath startOffset="22.20632615414155" xlink:href="#id25">January</textPath></text><path d="M 101.08401301168833 79.027996857942 l 0.21855371521622563 -4.228278768614047 a25.233923366281815,25.233923366281815 0 0,0 0.4335884384393987,0.026155238685328888 l -0.29130420249523625 4.223890260548414" fill="#ff0000" stroke="none" /><path d="M 103.95276090670814 79.375362276772 l 4.697946677799663 -24.512853309246523 a45.958979954078394,45.958979954078394 0 0,0 0.7756860134453532,0.1555953170219933 l -5.119199100712141 24.428354036147322" fill="#ddff1b" stroke="none" /><path d="M 104.66035177308747 79.52364482259891 l 7.387548133843577 -32.45893590099349 a54.289013011122144,54.289013011122144 0 0,0 0.9094089921664827,0.21522772661968992 l -7.945180812972583 32.326962262232925" fill="#7bff26" stroke="none" /><path d="M 105.36241919743992 79.69619591428918 l 9.182713901291141 -34.768640265192055 a56.960820075233265,56.960820075233265 0 0,0 0.9458265805610603,0.25853013327340857 l -9.779838371075913 34.605423591092354" fill="#5eff2a" stroke="none" /><path d="M 106.0581310904928 79.89281104454417 l 10.861307929944873 -36.04913257712746 a58.649807031542615,58.649807031542615 0 0,0 0.9641319654753467,0.299560494827117 l -11.480225268130937 35.856831947417824" fill="#4cff2c" stroke="none" /><path d="M 106.74666289553966 80.11325718540242 l 13.196801777415809 -38.899439172542245 a62.07702454037681,62.07702454037681 0 0,0 1.0089526480874473,0.35200376761314334 l -13.864436429566531 38.66651455175689" fill="#30ff38" stroke="none" /><path d="M 107.4271985657038 80.35727306442388 l 15.130759695895435 -40.016350499460636 a63.781400120503505,63.781400120503505 0 0,0 1.0235907428810451,0.3971373058015329 l -15.817333603776147 39.74997048976856" fill="#33ff4e" stroke="none" /><path d="M 108.09893153111575 80.62456947434976 l 16.500275575069168 -39.47433582202327 a63.78413587584882,63.78413587584882 0 0,0 1.0093573498501913,0.43215414099529803 l -17.177316682709673 39.18446215306518" fill="#33ff4e" stroke="none" /><path d="M 108.76106565485865 80.91482961587045 l 19.608357482932927 -42.7149913329504 a68.0006188018043,68.0006188018043 0 0,0 1.059584957955266,0.49748934524313076 l -20.34072065218779 42.37113700506726" fill="#38ff81" stroke="none" /><path d="M 109.41281617654863 81.2277094730956 l 18.027499606573308 -35.952838527899054 a61.21936523962286,61.21936523962286 0 0,0 0.9379375582058165,0.48044804700542515 l -18.64369765236788 35.63719795558113" fill="#31ff2f" stroke="none" /><path d="M 109.73455568895987 81.39251694778311 l 19.030486492457474 -36.37654004953168 a62.0537706199417,62.0537706199417 0 0,0 0.9421977211316364,0.5032893922550717 l -19.653829260117423 36.04357193077485" fill="#30ff38" stroke="none" /><path d="M 110.36928655335952 81.73862282372117 l 21.11427801286024 -37.184409227530715 a63.760881955413694,63.760881955413694 0 0,0 0.9497434388831376,0.5501527014983224 l -21.751218184208703 36.81545236864234" fill="#32ff4e" stroke="none" /><line stroke="#e1ed5e" stroke-width="0.3" x1="143.23703022742887" x2="145.7803849466894" y1="26.81831364943548" y2="22.513508569990506" /><path d="M 143.74570117128098 25.957352633546492 a86.0,86.0 0 0,1 28.547481713284135,27.462654790039103" fill="none" id="id26" stroke="none" /><text fill="#e1ed5e" style="font-size:6.75px; font-family:Arial;" text-anchor="middle"><textPath startOffset="19.985693538727396" xlink:href="#id26">February</textPath></text><path d="M 110.99172775467656 82.1063720568725 l 22.378491141826707 -36.43034137650043 a63.75472650588676,63.75472650588676 0 0,0 0.93015367367372,0.5824621451220214 l -23.00226396787269 36.03973489005546" fill="#32ff4e" stroke="none" /><path d="M 111.60114157652 82.49532879139004 l 20.787747979213677 -31.36611092481257 a58.629288866452804,58.629288866452804 0 0,0 0.8364314149843839,0.5647622251468385 l -21.324584088604603 31.00363678736706" fill="#4cff2c" stroke="none" /><path d="M 111.90073688211348 82.69761687909136 l 27.13861797940702 -39.456612670549966 a68.88871338077479,68.88871338077479 0 0,0 0.9712287079140233,0.6804077770315989 l -27.813777826904694 38.98362005075443" fill="#39ff8c" stroke="none" /><path d="M 112.48926042617603 83.11751280151076 l 20.353494042736713 -27.513046481186937 a55.22327346154473,55.22327346154473 0 0,0 0.7593301244796979,0.5719117071937132 l -20.824070320974794 27.158618184487377" fill="#71ff27" stroke="none" /><path d="M 113.06298171725822 83.55741782278167 l 28.320605626653634 -35.647595273721464 a66.52809848719244,66.52809848719244 0 0,0 0.890515351653172,0.7200681498452535 l -28.930024376871298 35.154821026612076" fill="#36ff70" stroke="none" /><path d="M 113.6212207817346 84.01681056812373 l 35.798597345758964 -42.00620281700362 a76.19112833623737,76.19112833623737 0 0,0 0.9908699827012702,0.8592726848035929 l -36.516361127107004 41.383765138780355" fill="#43ffdd" stroke="none" /><path d="M 113.89432698308785 84.25364557470407 l 24.063076475848145 -27.270535032960545 a57.36913156052045,57.36913156052045 0 0,0 0.7348412400447674,0.65974772085287 l -24.5289287034889 26.852288303338376" fill="#59ff2a" stroke="none" /><path d="M 114.42810811169701 84.74124197986012 l 29.42620743443762 -31.120322582592106 a63.829617808464555,63.829617808464555 0 0,0 0.7918421425200101,0.7617515137285423 l -29.95753282057005 30.609187982101265" fill="#33ff4e" stroke="none" /><path d="M 114.94478906791727 85.2469230424477 l 30.4279010757657 -30.03757123553166 a63.75643635297757,63.75643635297757 0 0,0 0.7642749261420321,0.787652493052032 l -30.94044026561084 29.509354546929515" fill="#32ff4e" stroke="none" /><path d="M 115.4437574822437 85.77008943001954 l 16.432365188975606 -15.140815786652178 a43.344281782800564,43.344281782800564 0 0,0 0.5008459817870035,0.5530466424526035 l -16.690554811378643 14.855716356930026" fill="#feff18" stroke="none" /><path d="M 115.68641384162765 86.03803664274999 l 47.05924152488298 -41.88589007175005 a84.0,84.0 0 0,0 0.9520325456886072,1.0883377751882088 l -47.773265934149435 41.069636740358895" fill="#4dd2ff" stroke="none" /><path d="M 116.15771136456269 86.58626213691792 l 32.90322463419522 -27.31545453034798 a63.76395968017717,63.76395968017717 0 0,0 0.69381718752855,0.850537834042305 l -33.368540313800175 26.745032526697575" fill="#32ff4e" stroke="none" /><line stroke="#e1ed5e" stroke-width="0.3" x1="172.23445277983987" x2="176.4835382374775" y1="55.19839476539836" y2="52.563006222186495" /><path d="M 173.08426987136738 54.67131705675599 a86.0,86.0 0 0,1 12.851231095245387,41.99856678651699" fill="none" id="id27" stroke="none" /><text fill="#e1ed5e" style="font-size:6.75px; font-family:Arial;" text-anchor="middle"><textPath startOffset="22.20632615414155" xlink:href="#id27">March</textPath></text><line stroke="#e1ed5e" stroke-width="0.3" x1="184.98032266829074" x2="189.97916517819016" y1="98.17113171792111" y2="98.06355123074" /><path d="M 185.9800911702706 98.14961562048488 a86.0,86.0 0 0,1 -9.607161424134198,41.387399972396054" fill="none" id="id28" stroke="none" /><text fill="#e1ed5e" style="font-size:6.75px; font-family:Arial;" text-anchor="middle"><textPath startOffset="21.466115282336823" xlink:href="#id28">April</textPath></text><line stroke="#e1ed5e" stroke-width="0.3" x1="174.80103733775053" x2="179.2010983576182" y1="140.37084112569926" y2="142.7455964860345" /><path d="M 175.68104954172406 140.8457921977663 a86.0,86.0 0 0,1 -30.038265399797805,32.042727171017184" fill="none" id="id29" stroke="none" /><text fill="#e1ed5e" style="font-size:6.75px; font-family:Arial;" text-anchor="middle"><textPath startOffset="22.206326154141568" xlink:href="#id29">May</textPath></text><line stroke="#e1ed5e" stroke-width="0.3" x1="143.8653032363475" x2="146.44561519142675" y1="172.8068346515853" y2="177.08958963109032" /><path d="M 144.38136562736335 173.6633856474863 a86.0,86.0 0 0,1 -40.68145358897372,12.25698825130547" fill="none" id="id30" stroke="none" /><text fill="#e1ed5e" style="font-size:6.75px; font-family:Arial;" text-anchor="middle"><textPath startOffset="21.466115282336833" xlink:href="#id30">June</textPath></text><line stroke="#e1ed5e" stroke-width="0.3" x1="102.19456741930631" x2="102.32365962044197" y1="184.97166512339345" y2="189.96999836594603" /><path d="M 102.22038585953345 185.97133177190398 a86.0,86.0 0 0,1 -42.740103519485714,-10.115201625700543" fill="none" id="id31" stroke="none" /><text fill="#e1ed5e" style="font-size:6.75px; font-family:Arial;" text-anchor="middle"><textPath startOffset="22.20632615414155" xlink:href="#id31">July</textPath></text><line stroke="#e1ed5e" stroke-width="0.3" x1="58.666819895761336" x2="56.23545636021788" y1="174.27360380694188" y2="178.64263932499728" /><path d="M 58.180547188652646 175.14741091055294 a86.0,86.0 0 0,1 -31.652253787137756,-30.449443065178592" fill="none" id="id32" stroke="none" /><text fill="#e1ed5e" style="font-size:6.75px; font-family:Arial;" text-anchor="middle"><textPath startOffset="22.20632615414155" xlink:href="#id32">August</textPath></text><line stroke="#e1ed5e" stroke-width="0.3" x1="26.63291911575756" x2="22.317208475507996" y1="142.92168965132927" y2="145.44649492493687" /><path d="M 25.769776987707644 143.4266507060508 a86.0,86.0 0 0,1 -11.730757126820373,-40.83630448921669" fill="none" id="id33" stroke="none" /><text fill="#e1ed5e" style="font-size:6.75px; font-family:Arial;" text-anchor="middle"><textPath startOffset="21.46611528233685" xlink:href="#id33">September</textPath></text><line stroke="#e1ed5e" stroke-width="0.3" x1="15.007084014347285" x2="10.007500721073583" y1="101.09737516637583" y2="101.16192664675087" /><path d="M 14.007167355692545 101.11028546245083 a86.0,86.0 0 0,1 10.666146001902534,-42.60595125391555" fill="none" id="id34" stroke="none" /><text fill="#e1ed5e" style="font-size:6.75px; font-family:Arial;" text-anchor="middle"><textPath startOffset="22.20632615414155" xlink:href="#id34">October</textPath></text><line stroke="#e1ed5e" stroke-width="0.3" x1="26.266209847984243" x2="21.928928074336255" y1="57.711370442889674" y2="55.22380399835377" /><path d="M 25.398753493254645 57.213857153982495 a86.0,86.0 0 0,1 29.58750427330803,-30.492523968695096" fill="none" id="id35" stroke="none" /><text fill="#e1ed5e" style="font-size:6.75px; font-family:Arial;" text-anchor="middle"><textPath startOffset="21.46611528233685" xlink:href="#id35">November</textPath></text><line stroke="#e1ed5e" stroke-width="0.3" x1="56.762969772571076" x2="54.21961505331055" y1="26.818313649435495" y2="22.513508569990535" /><path d="M 56.25429882871897 25.957352633546506 a86.0,86.0 0 0,1 42.265352541879196,-11.944610805530505" fill="none" id="id36" stroke="none" /><text fill="#e1ed5e" style="font-size:6.75px; font-family:Arial;" text-anchor="middle"><textPath startOffset="22.20632615414155" xlink:href="#id36">December</textPath></text></svg>