<?xml version="1.0" encoding="utf-8" ?>
<svg baseProfile="full" height="200mm" version="1.1" viewBox="0,0,200,200" width="200mm" xmlns="http://www.w3.org/2000/svg" xmlns:ev="http://www.w3.org/2001/xml-events" xmlns:xlink="http://www.w3.org/1999/xlink"><defs /><rect fill="#1a1a1a" height="200" width="200" x="0" y="0" /><text alignment-baseline="middle" fill="#e1ed5e" style="dominant-baseline: central; font-size:9.0px; font-family:Arial;" text-anchor="middle" x="100.0" y="100.0">2019</text><line stroke="#e1ed5e" stroke-width="0.3" x1="100.0" x2="100.0" y1="15.0" y2="10.0" /><path d="M 100.0 14.0 a86.0,86.0 0 0,1 42.46469731375804,11.215312516191453" fill="none" id="id13" stroke="none" /><text fill="#e1ed5e" style="font-size:6.75px; font-family:Arial;" text-anchor="middle"><textPath startOffset="22.20632615414155" xlink:href="#id13">January</textPath></text><line stroke="#e1ed5e" stroke-width="0.3" x1="143.23703022742887" x2="145.7803849466894" y1="26.81831364943548" y2="22.513508569990506" /><path d="M 143.74570117128098 25.957352633546492 a86.0,86.0 0 0,1 28.547481713284135,27.462654790039103" fill="none" id="id14" stroke="none" /><text fill="#e1ed5e" style="font-size:6.75px; font-family:Arial;" text-anchor="middle"><textPath startOffset="19.985693538727396" xlink:href="#id14">February</textPath></text><line stroke="#e1ed5e" stroke-width="0.3" x1="172.23445277983987" x2="176.4835382374775" y1="55.19839476539836" y2="52.563006222186495" /><path d="M 173.08426987136738 54.67131705675599 a86.0,86.0 0 0,1 12.851231095245387,41.99856678651699" fill="none" id="id15" stroke="none" /><text fill="#e1ed5e" style="font-size:6.75px; font-family:Arial;" text-anchor="middle"><textPath startOffset="22.20632615414155" xlink:href="#id15">March</textPath></text><path d="M 120.87857604477298 97.74499172005257 l 16.526658376469687 -1.784975728176241 a37.6227727964595,37.6227727964595 0 0,0 0.06399969448066613,0.6444681894111436 l -16.55493519663258 1.5002320080606624" fill="#ffba11" stroke="none" /><line stroke="#e1ed5e" stroke-width="0.3" x1="184.98032266829074" x2="189.97916517819016" y1="98.17113171792111" y2="98.06355123074" /><path d="M 185.9800911702706 98.14961562048488 a86.0,86.0 0 0,1 -9.607161424134198,41.387399972396054" fill="none" id="id16" stroke="none" /><text fill="#e1ed5e" style="font-size:6.75px; font-family:Arial;" text-anchor="middle"><textPath startOffset="21.466115282336823" xlink:href="#id16">April</textPath></text><path d="M 120.99513854157772 99.54816195383933 l 9.383509176395902 -0.20194324719491988 a30.385681943183123,30.385681943183123 0 0,0 0.006752845778675939,0.5230153474556001 l -9.385595029292293 0.04039164167885708" fill="#ff5507" stroke="none" /><path d="M 120.99980553446 99.90962569577887 l 8.99638642081412 -0.03871665201619716 a29.996469730497182,29.996469730497182 0 0,0 -0.002222170917384537,0.5163542616630858 l -8.995719952607233 -0.11614708785057343" fill="#ff4f07" stroke="none" /><path d="M 120.32669344350535 105.2749913415812 l 10.06363851981634 2.6116203407296363 a31.396989038257374,31.396989038257374 0 0,0 -0.14025771136928847,0.5219511211544559 l -10.017192732105274 -2.78446239505964" fill="#ff6309" stroke="none" /><line stroke="#e1ed5e" stroke-width="0.3" x1="174.80103733775053" x2="179.2010983576182" y1="140.37084112569926" y2="142.7455964860345" /><path d="M 175.68104954172406 140.8457921977663 a86.0,86.0 0 0,1 -30.038265399797805,32.042727171017184" fill="none" id="id17" stroke="none" /><text fill="#e1ed5e" style="font-size:6.75px; font-family:Arial;" text-anchor="middle"><textPath startOffset="22.206326154141568" xlink:href="#id17">May</textPath></text><path d="M 116.93607887273984 112.41649034213515 l 10.561409925193564 7.742975532935835 a34.095688210690575,34.095688210690575 0 0,0 -0.35108611570661014,0.4703372256620547 l -10.426562542791862 -7.923625638107206" fill="#ff890c" stroke="none" /><path d="M 115.80600337817218 113.82643327865902 l 10.83863914643185 9.481189988644157 a35.400314654455684,35.400314654455684 0 0,0 -0.4051501117553651,0.45519044552399845 l -10.673830185028146 -9.666354603909022" fill="#ff9b0e" stroke="none" /><line stroke="#e1ed5e" stroke-width="0.3" x1="143.8653032363475" x2="146.44561519142675" y1="172.8068346515853" y2="177.08958963109032" /><path d="M 144.38136562736335 173.6633856474863 a86.0,86.0 0 0,1 -40.68145358897372,12.25698825130547" fill="none" id="id18" stroke="none" /><text fill="#e1ed5e" style="font-size:6.75px; font-family:Arial;" text-anchor="middle"><textPath startOffset="21.466115282336833" xlink:href="#id18">June</textPath></text><line stroke="#e1ed5e" stroke-width="0.3" x1="102.19456741930631" x2="102.32365962044197" y1="184.97166512339345" y2="189.96999836594603" /><path d="M 102.22038585953345 185.97133177190398 a86.0,86.0 0 0,1 -42.740103519485714,-10.115201625700543" fill="none" id="id19" stroke="none" /><text fill="#e1ed5e" style="font-size:6.75px; font-family:Arial;" text-anchor="middle"><textPath startOffset="22.20632615414155" xlink:href="#id19">July</textPath></text><path d="M 100.18074693466247 120.99922214144158 l 0.05123178358066757 5.952120881727597 a26.952341361711923,26.952341361711923 0 0,0 -0.46395743648624194,0.0 l 0.05123178358066347 -5.952120881727597" fill="#ff2203" stroke="none" /><path d="M 96.93821686468263 120.77559828337769 l -2.2839325497061083 15.497526461522664 a36.664918586357295,36.664918586357295 0 0,0 -0.6235901896552539,-0.0973919628441701 l 2.550358602969879 -15.455916191331388" fill="#ffad10" stroke="none" /><path d="M 96.58105272829116 120.7198165907248 l -1.76136067922663 10.674358895698733 a31.818702753866027,31.818702753866027 0 0,0 -0.5396316053435477,-0.09382187162556951 l 1.9448412560422277 -10.642458445552158" fill="#ff6909" stroke="none" /><path d="M 96.22490169976321 120.6578951692458 l -3.6185047060429643 19.80099190587153 a41.12890600017907,41.12890600017907 0 0,0 -0.6953377908238143,-0.13326314252927066 l 3.9588101114384737 -19.735771564993794" fill="#ffe815" stroke="none" /><path d="M 95.86986931433489 120.58985236759428 l -4.032240761507858 20.101843817727275 a41.502270372596925,41.502270372596925 0 0,0 -0.6992313156138561,-0.146530720685625 l 4.377663538551101 -20.029457116315108" fill="#ffed16" stroke="none" /><path d="M 93.76903079525671 120.05430185196036 l -2.8623198477782394 9.212343110363186 a30.64676839641345,30.64676839641345 0 0,0 -0.502429914325081,-0.16086219235313923 l 3.0204711071942607 -9.161708071350342" fill="#ff5808" stroke="none" /><path d="M 90.7491055286396 118.85261126421891 l -5.820723715930472 11.86218714661435 a34.21333827912152,34.21333827912152 0 0,0 -0.526471741429807,-0.26398386052697537 l 6.024049365043039 -11.760235445178072" fill="#ff8b0c" stroke="none" /><path d="M 90.42595943632237 118.69057910512821 l -4.540324732849562 8.863686968723005 a30.958890267456283,30.958890267456283 0 0,0 -0.4722102000166753,-0.24703805861640007 l 4.692225835392733 -8.784219491161888" fill="#ff5d08" stroke="none" /><line stroke="#e1ed5e" stroke-width="0.3" x1="58.666819895761336" x2="56.23545636021788" y1="174.27360380694188" y2="178.64263932499728" /><path d="M 58.180547188652646 175.14741091055294 a86.0,86.0 0 0,1 -31.652253787137756,-30.449443065178592" fill="none" id="id20" stroke="none" /><text fill="#e1ed5e" style="font-size:6.75px; font-family:Arial;" text-anchor="middle"><textPath startOffset="22.20632615414155" xlink:href="#id20">August</textPath></text><path d="M 89.1626897886671 117.98757091392108 l -10.175408262533137 16.888958065352078 a40.717399368132924,40.717399368132924 0 0,0 -0.59722885381181,-0.3668667410097932 l 10.464616316277256 -16.711302857513907" fill="#ffe315" stroke="none" /><path d="M 87.07902340077011 116.55440617244103 l -5.447630890674399 6.979526179711197 a29.853839168084313,29.853839168084313 0 0,0 -0.40237645191177734,-0.3196721888403546 l 5.566964835303534 -6.884720076865712" fill="#ff4d07" stroke="none" /><path d="M 86.79598089348748 116.32954008644616 l -10.022124273155365 12.394459501282942 a36.93943541269618,36.93943541269618 0 0,0 -0.4909952313513169,-0.4040556486169631 l 10.23398963305137 -12.220108733808797" fill="#ffb010" stroke="none" /><path d="M 85.97065885151581 115.62618273729859 l -6.310072167729987 7.0282944676375 a30.445312799785114,30.445312799785114 0 0,0 -0.3869460810897707,-0.35346607067247215 l 6.430117798286612 -6.918635630378452" fill="#ff5507" stroke="none" /><path d="M 84.9287848128048 114.62390073753433 l -16.14727616332652 15.668024167995899 a43.49936685383916,43.49936685383916 0 0,0 -0.5168003356760096,-0.5418630858157812 l 16.414583050381488 -15.387753965597618" fill="#f8ff18" stroke="none" /><path d="M 84.19399662182784 113.82643327865904 l -7.322869346270502 6.405741034091517 a30.729230887299984,30.729230887299984 0 0,0 -0.34483683017720124,-0.4011231386362749 l 7.432048686018482 -6.278740796293712" fill="#ff5a08" stroke="none" /><path d="M 83.50135304334701 112.99209946851258 l -17.882379936466158 14.081740125642025 a43.761259129456,43.761259129456 0 0,0 -0.46093772330424915,-0.595824142401133 l 18.12212447698848 -13.771837989127638" fill="#f5ff19" stroke="none" /><path d="M 83.28015986056508 112.70617746262583 l -17.55603531403221 13.341640732203702 a43.05025517708906,43.05025517708906 0 0,0 -0.4432920308546236,-0.5938621170781161 l 17.78308861158192 -13.037465735616278" fill="#feff18" stroke="none" /><path d="M 83.06392112726016 112.41649034213515 l -17.27423288868165 12.664404047819042 a42.41929624844911,42.41929624844911 0 0,0 -0.4266577409941922,-0.5925902857003608 l 17.489670422051447 -12.365180156667543" fill="#fff817" stroke="none" /><path d="M 82.05923443525364 110.91462005526583 l -9.604084373642761 5.842834941392224 a32.241759506785534,32.241759506785534 0 0,0 -0.28437097437119163,-0.47662211003400345 l 9.703236223712185 -5.676650737472109" fill="#ff6f0a" stroke="none" /><line stroke="#e1ed5e" stroke-width="0.3" x1="26.63291911575756" x2="22.317208475507996" y1="142.92168965132927" y2="145.44649492493687" /><path d="M 25.769776987707644 143.4266507060508 a86.0,86.0 0 0,1 -11.730757126820373,-40.83630448921669" fill="none" id="id21" stroke="none" /><text fill="#e1ed5e" style="font-size:6.75px; font-family:Arial;" text-anchor="middle"><textPath startOffset="21.46611528233685" xlink:href="#id21">September</textPath></text><path d="M 81.87401531095188 110.60418214915194 l -15.401557448657183 9.010319900847561 a38.843593712027214,38.843593712027214 0 0,0 -0.3326639424464841,-0.5800276239826092 l 15.554373387256044 -8.743872431006645" fill="#ffca12" stroke="none" /><path d="M 79.97269907076064 106.31721596034903 l -24.801975876094623 7.823292734564571 a47.00657448740742,47.00657448740742 0 0,0 -0.2367636712840035,-0.7737573768104664 l 24.93296631988476 -7.395208385202057" fill="#ccff1d" stroke="none" /><path d="M 79.86692584326677 105.97154293290107 l -18.555256715688664 5.503556548103171 a40.35424207927757,40.35424207927757 0 0,0 -0.19179288059011976,-0.6676561781963267 l 18.64724223316489 -5.183342894402249" fill="#ffde14" stroke="none" /><path d="M 79.76711848015287 105.62410040840567 l -20.864859835185456 5.799770369103625 a42.65593942262186,42.65593942262186 0 0,0 -0.19055408250880365,-0.7091226288739171 l 20.961601994036037 -5.439756807054168" fill="#fffb17" stroke="none" /><path d="M 79.67330655649465 105.27499134158121 l -7.5024247068442484 1.9469583422144434 a28.750936928409715,28.750936928409715 0 0,0 -0.12019080789194075,-0.4801025320016547 l 7.534826829031247 -1.8175279708153969" fill="#ff3d05" stroke="none" /><path d="M 79.58551787078972 104.9243191809786 l -23.58915722580586 5.690104635274888 a45.265729525076424,45.265729525076424 0 0,0 -0.17619024352953844,-0.7590229577981641 l 23.683608035265955 -5.283213020128149" fill="#e2ff1b" stroke="none" /><path d="M 79.50377843672027 104.57218783832718 l -17.344489356813337 3.869116220000865 a38.77080108977884,38.77080108977884 0 0,0 -0.1396966635181722,-0.6526163045429313 l 17.40852005905595 -3.56998609604177" fill="#ffc912" stroke="none" /><path d="M 79.4281124754447 104.21870165774334 l -18.101871687037217 3.7121725463065887 a39.47858175259974,39.47858175259974 0 0,0 -0.13078702755019025,-0.6668802357885847 l 18.163088647563075 -3.400028583450049" fill="#ffd213" stroke="none" /><path d="M 79.29508885075956 103.50808413554451 l -13.663795370152734 2.315090532089426 a34.858533403256544,34.858533403256544 0 0,0 -0.09514428477204809,-0.5924635520978652 l 13.701621409286073 -2.079547750298347" fill="#ff940d" stroke="none" /><path d="M 79.18660465613746 102.79330883721812 l -23.66408588685995 3.175892214623525 a44.87624870492831,44.87624870492831 0 0,0 -0.09616016487546954,-0.7664911268876408 l 23.71524756098227 -2.7680833334484753" fill="#e7ff1a" stroke="none" /><path d="M 79.1416061653843 102.43462659150553 l -25.040957886562712 2.9228224584685045 a46.21095918445657,46.21095918445657 0 0,0 -0.08541919433187774,-0.7908756523869477 l 25.08755938239564 -2.4913504841967744" fill="#d6ff1c" stroke="none" /><path d="M 79.10278846688536 102.07522291339032 l -14.34907466944902 1.424952247471026 a35.41965439173201,35.41965439173201 0 0,0 -0.05502764401222469,-0.6072254662952875 l 14.37147690973832 -1.1777453926271721" fill="#ff9c0e" stroke="none" /><path d="M 79.07016306316243 101.71520430193888 l -10.60372611288164 0.8689774650554115 a31.639272969135725,31.639272969135725 0 0,0 -0.039810403485858965,-0.5431813260516822 l 10.617113075031833 -0.6863230025069686" fill="#ff6709" stroke="none" /><path d="M 79.04373962182676 101.35467743843564 l -24.710540610668275 1.5973657156734562 a45.76211611516865,45.76211611516865 0 0,0 -0.04404854084743111,-0.7865162869669635 l 24.73437550240324 -1.171777712371055" fill="#dcff1b" stroke="none" /><path d="M 79.0235259727143 100.99374915477108 l -25.3777745983144 1.2022583978718933 a46.40623680945498,46.40623680945498 0 0,0 -0.030932777987355387,-0.798237553144368 l 25.394709509152957 -0.7652435977135285" fill="#d4ff1c" stroke="none" /><line stroke="#e1ed5e" stroke-width="0.3" x1="15.007084014347285" x2="10.007500721073583" y1="101.09737516637583" y2="101.16192664675087" /><path d="M 14.007167355692545 101.11028546245083 a86.0,86.0 0 0,1 10.666146001902534,-42.60595125391555" fill="none" id="id22" stroke="none" /><text fill="#e1ed5e" style="font-size:6.75px; font-family:Arial;" text-anchor="middle"><textPath startOffset="22.20632615414155" xlink:href="#id22">October</textPath></text><path d="M 79.3925641242962 95.95851677861259 l -29.36930609921425 -5.759841182556223 a50.92878065003006,50.92878065003006 0 0,0 0.17611828138076113,-0.8588152871471382 l 29.265808521918494 6.264532125866764" fill="#9eff22" stroke="none" /><path d="M 79.46518482838121 95.60439243477599 l -7.245665971582304 -1.550980804725822 a28.4098054514524,28.4098054514524 0 0,0 0.10647672158140073,-0.4773142648624278 l 7.2178948629988655 1.675473239138209" fill="#ff3805" stroke="none" /><path d="M 79.62865764111835 94.90015583598534 l -10.569355215503974 -2.645975094011669 a31.895524488046966,31.895524488046966 0 0,0 0.13791574383024294,-0.5314456203505419 l 10.522243139803424 2.8275171399110746" fill="#ff6a09" stroke="none" /><path d="M 79.91906864156998 93.8553929516997 l -30.67221574421252 -9.385456764173254 a53.07602870262595,53.07602870262595 0 0,0 0.2748441459415231,-0.8713310505703402 l 30.50611611450279 9.912037981170009" fill="#86ff25" stroke="none" /><path d="M 80.02781315780177 93.51064311812611 l -19.38309405932119 -6.2979490338084885 a41.3805911922334,41.3805911922334 0 0,0 0.22594336054406863,-0.6755418894130125 l 19.27181340500535 6.630664026143823" fill="#ffeb16" stroke="none" /><path d="M 80.14247586403 93.16781622104843 l -9.37695956884333 -3.226238609781584 a30.91645028843325,30.91645028843325 0 0,0 0.1774706111698716,-0.5017333162267493 l 9.320035876863649 3.3871695524349446" fill="#ff5c08" stroke="none" /><path d="M 80.2630227832202 92.82701384747504 l -7.9252366401858305 -2.880259324979419 a29.432394059937835,29.432394059937835 0 0,0 0.17714855040895688,-0.47467004237790433 l 7.874483501275246 3.016252504386665" fill="#ff4706" stroke="none" /><path d="M 80.38941819471856 92.48833698450439 l -3.9827684207704994 -1.5255648477256536 a25.264949284352973,25.264949284352973 0 0,0 0.15905663130016262,-0.4047817775227918 l 3.955918239588646 1.5938956301442089" fill="#ff0901" stroke="none" /><path d="M 80.803312248108 91.48605970444005 l -19.263475066821655 -8.543561197830218 a42.07306122971055,42.07306122971055 0 0,0 0.2993151364751331,-0.659501227498127 l 19.113557613383172 8.873884434170417" fill="#fff417" stroke="none" /><path d="M 80.95270993114464 91.15688171328213 l -12.441487854417783 -5.776231073378718 a34.71697727069237,34.71697727069237 0 0,0 0.2563134695430002,-0.5398615349418976 l 12.340216191033031 5.989535023961149" fill="#ff920d" stroke="none" /><line stroke="#e1ed5e" stroke-width="0.3" x1="26.266209847984243" x2="21.928928074336255" y1="57.711370442889674" y2="55.22380399835377" /><path d="M 25.398753493254645 57.213857153982495 a86.0,86.0 0 0,1 29.58750427330803,-30.492523968695096" fill="none" id="id23" stroke="none" /><text fill="#e1ed5e" style="font-size:6.75px; font-family:Arial;" text-anchor="middle"><textPath startOffset="21.46611528233685" xlink:href="#id23">November</textPath></text><path d="M 81.78341655067845 89.55222093294921 l -45.360064036188085 -26.01541221139464 a73.29088909069978,73.29088909069978 0 0,0 0.6370734644274118,-1.0889650611040897 l 44.905530897290355 26.79235668485262" fill="#3fffbf" stroke="none" /><path d="M 82.7489923806493 88.02491185347247 l -3.675666529248079 -2.551528099472448 a25.474463104846446,25.474463104846446 0 0,0 0.25315233177396035,-0.35806602032506274 l 3.6312015776702404 2.6144206201292968" fill="#ff0c01" stroke="none" /><path d="M 83.6137871275137 86.86637796730984 l -12.041134412764452 -9.651022445070408 a36.4314987017306,36.4314987017306 0 0,0 0.39641201853630426,-0.48595426244082573 l 11.873223902151755 9.856860877119315" fill="#ffa90f" stroke="none" /><path d="M 84.31358615837235 86.03803664274999 l -6.845713841758151 -6.093145748788239 a30.164618001816297,30.164618001816297 0 0,0 0.3485541136442121,-0.38488215793644054 l 6.739816087497894 6.210080693994236" fill="#ff5107" stroke="none" /><path d="M 86.10567301691215 84.25364557470407 l -2.623147136393452 -2.972796348439748 a24.964646141645666,24.964646141645666 0 0,0 0.3246666512320157,-0.2815477206300951 l 2.571586686514663 3.0175090624895238" fill="#ff0400" stroke="none" /><path d="M 86.93701828274178 83.55741782278169 l -24.49636979042877 -30.833969000393953 a60.38027142144511,60.38027142144511 0 0,0 0.8193529364642651,-0.6395179632712805 l 23.96198429880508 31.251065352888453" fill="#37ff2e" stroke="none" /><path d="M 87.22198572758235 83.33499621200491 l -9.828713706477384 -12.818545014707833 a37.15297834512222,37.15297834512222 0 0,0 0.51086025697549,-0.3847693543101105 l 9.606607295743503 12.985830958523797" fill="#ffb310" stroke="none" /><path d="M 88.09926311788651 82.69761687909137 l -2.0991182205950927 -3.0518906542168804 a24.704096903339686,24.704096903339686 0 0,0 0.3524395933888816,-0.23796878671262123 l 2.0462739327996715 3.087571353228167" fill="#ff0000" stroke="none" /><path d="M 89.00827224532344 82.1063720568725 l -7.100525940090105 -11.559071713583998 a34.56575126949002,34.56575126949002 0 0,0 0.5096603715580743,-0.3070646712349238 l 6.900503502314381 11.67958299427754" fill="#ff900d" stroke="none" /><line stroke="#e1ed5e" stroke-width="0.3" x1="56.762969772571076" x2="54.21961505331055" y1="26.818313649435495" y2="22.513508569990535" /><path d="M 56.25429882871897 25.957352633546506 a86.0,86.0 0 0,1 42.265352541879196,-11.944610805530505" fill="none" id="id24" stroke="none" /><text fill="#e1ed5e" style="font-size:6.75px; font-family:Arial;" text-anchor="middle"><textPath startOffset="22.20632615414155" xlink:href="#id24">December</textPath></text><path d="M 89.3179101791058 81.91981866633112 l -7.786020752403478 -13.178382641551286 a36.30659623182103,36.30659623182103 0 0,0 0.5408010444940912,-0.31326687126305475 l 7.558022975444067 13.310453670204387" fill="#ffa80f" stroke="none" /><path d="M 90.26544431104013 81.39251694778311 l -2.1926750192832456 -4.191271236611703 a25.73017740883335,25.73017740883335 0 0,0 0.39421022541774514,-0.20192978866719297 l 2.1202043062767366 4.228393550591401" fill="#ff1001" stroke="none" /><path d="M 90.58718382345135 81.22770947309562 l -15.503015757962745 -30.918176918904123 a55.58723986646371,55.58723986646371 0 0,0 0.8590312630595717,-0.4215229100515156 l 14.968513227892746 31.180454989090467" fill="#6aff28" stroke="none" /><path d="M 91.23893434514133 80.91482961587045 l -22.117541708336503 -48.18101685467887 a74.0150548087131,74.0150548087131 0 0,0 1.162451837075016,-0.5215582546378268 l 21.284907752794712 48.55459543983323" fill="#40ffc7" stroke="none" /><path d="M 91.90106846888425 80.62456947434976 l -24.29679459334727 -58.12629157695071 a84.0,84.0 0 0,0 1.338864521646478,-0.5461564552656921 l 23.29264620211241 58.53590891839998" fill="#4dd2ff" stroke="none" /><path d="M 92.23578459929587 80.48803036053334 l -7.369057842225711 -18.518913434053093 a40.93121090802113,40.93121090802113 0 0,0 0.6568812929977145,-0.2548597364199242 l 7.04919338422832 18.64301587436357" fill="#ffe515" stroke="none" /><path d="M 92.57280143429618 80.3572730644239 l -9.324349476501899 -24.66012575246838 a47.36409101955718,47.36409101955718 0 0,0 0.7650827046452626,-0.2817864169193994 l 8.898484446084066 24.816975437194102" fill="#c8ff1d" stroke="none" /><path d="M 93.59665428221793 80.00007090966166 l -5.283225023030311 -16.501393253760813 a38.326524347347814,38.326524347347814 0 0,0 0.6300417532315646,-0.19575703961514948 l 4.998397897088018 16.58989042825849" fill="#ffc312" stroke="none" /><path d="M 93.94186890950719 79.89281104454417 l -5.717259028648139 -18.975820410476214 a40.81839577390926,40.81839577390926 0 0,0 0.6744944109706416,-0.1969034144169014 l 5.389774399954076 19.071422153811813" fill="#ffe415" stroke="none" /><path d="M 94.28887869178378 79.79150937346287 l -7.431156384811043 -26.294740742197483 a48.32463130428109,48.32463130428109 0 0,0 0.8024238542041996,-0.21933275109070932 l 6.977434641383121 26.418760034114488" fill="#bdff1f" stroke="none" /><path d="M 94.63758080256005 79.69619591428918 l -2.4358295872230458 -9.22281621488403 a30.539056804082833,30.539056804082833 0 0,0 0.5094076260197193,-0.12985934630635665 l 2.276713072518327 9.26337855735925" fill="#ff5708" stroke="none" /><path d="M 95.33964822691252 79.52364482259891 l -2.561253177041096 -11.25347018978259 a32.54125682710633,32.54125682710633 0 0,0 0.5472467435086433,-0.11960694200229925 l 2.3671637093789313 11.295890629880757" fill="#ff730a" stroke="none" /><path d="M 96.04723909329186 79.375362276772 l -6.571368313125744 -34.28795568538183 a55.91198628822859,55.91198628822859 0 0,0 0.9467892910915342,-0.17301969122213204 l 5.9801839009313165 34.39599085795469" fill="#66ff29" stroke="none" /><path d="M 96.40284397218896 79.31037775812273 l -3.482175496563035 -20.028293197960572 a41.32874995203438,41.32874995203438 0 0,0 0.7019408597466472,-0.11582625631956832 l 3.136905430677502 20.08526571721977" fill="#ffea16" stroke="none" /><path d="M 98.55514903715128 79.0497635885617 l -1.5025851234240386 -21.787377642035672 a42.839129711822565,42.839129711822565 0 0,0 0.7360944664146517,-0.0444032284009216 l 1.1273286081697638 21.8100141398169" fill="#fffe18" stroke="none" /><path d="M 99.27714615592234 79.0124445844662 l -0.22155029753762337 -6.432557819253027 a27.436372008544275,27.436372008544275 0 0,0 0.47213209860822286,-0.012193779181680447 l 0.1107915637345215 6.435418390577067" fill="#ff2904" stroke="none" /></svg>