<?xml version="1.0" encoding="utf-8" ?>
<svg baseProfile="full" height="200mm" version="1.1" viewBox="0,0,200,200" width="200mm" xmlns="http://www.w3.org/2000/svg" xmlns:ev="http://www.w3.org/2001/xml-events" xmlns:xlink="http://www.w3.org/1999/xlink"><defs /><rect fill="#1a1a1a" height="200" width="200" x="0" y="0" /><text alignment-baseline="middle" fill="#e1ed5e" style="dominant-baseline: central; font-size:9.0px; font-family:Arial;" text-anchor="middle" x="100.0" y="100.0">2018</text><line stroke="#e1ed5e" stroke-width="0.3" x1="100.0" x2="100.0" y1="15.0" y2="10.0" /><path d="M 100.0 14.0 a86.0,86.0 0 0,1 42.46469731375804,11.215312516191453" fill="none" id="id13" stroke="none" /><text fill="#e1ed5e" style="font-size:6.75px; font-family:Arial;" text-anchor="middle"><textPath startOffset="22.20632615414155" xlink:href="#id13">January</textPath></text><line stroke="#e1ed5e" stroke-width="0.3" x1="143.23703022742887" x2="145.7803849466894" y1="26.81831364943548" y2="22.513508569990506" /><path d="M 143.74570117128098 25.957352633546492 a86.0,86.0 0 0,1 28.547481713284135,27.462654790039103" fill="none" id="id14" stroke="none" /><text fill="#e1ed5e" style="font-size:6.75px; font-family:Arial;" text-anchor="middle"><textPath startOffset="19.985693538727396" xlink:href="#id14">February</textPath></text><line stroke="#e1ed5e" stroke-width="0.3" x1="172.23445277983987" x2="176.4835382374775" y1="55.19839476539836" y2="52.563006222186495" /><path d="M 173.08426987136738 54.67131705675599 a86.0,86.0 0 0,1 12.851231095245387,41.99856678651699" fill="none" id="id15" stroke="none" /><text fill="#e1ed5e" style="font-size:6.75px; font-family:Arial;" text-anchor="middle"><textPath startOffset="22.20632615414155" xlink:href="#id15">March</textPath></text><line stroke="#e1ed5e" stroke-width="0.3" x1="184.98032266829074" x2="189.97916517819016" y1="98.17113171792111" y2="98.06355123074" /><path d="M 185.9800911702706 98.14961562048488 a86.0,86.0 0 0,1 -9.607161424134198,41.387399972396054" fill="none" id="id16" stroke="none" /><text fill="#e1ed5e" style="font-size:6.75px; font-family:Arial;" text-anchor="middle"><textPath startOffset="21.466115282336823" xlink:href="#id16">April</textPath></text><path d="M 120.99513854157772 99.54816195383933 l 48.81276592324823 -1.0505034171973175 a69.82406859846245,69.82406859846245 0 0,0 0.015517544341007872,1.2018509101449135 l -48.82361647470695 0.21011624899194134" fill="red" stroke="none" /><path d="M 120.76222939487914 103.15116336523771 l 48.34493095348117 7.337496008647818 a69.89858072146659,69.89858072146659 0 0,0 -0.1907840009328729,1.18801215592655 l -48.21146519818701 -8.168587394267574" fill="red" stroke="none" /><path d="M 120.02730092923936 106.31721596034902 l 46.56258640053491 14.68724692378011 a69.82406859846245,69.82406859846245 0 0,0 -0.37142331085816166,1.1431234091512987 l -46.3028708386605 -15.486569232909204" fill="red" stroke="none" /><path d="M 119.41010516605496 108.01547362559984 l 44.438924985441616 18.35121593229436 a69.07894736842105,69.07894736842105 0 0,0 -0.4633191408147656,1.0951495866244623 l -44.11645486343454 -19.113440044584987" fill="red" stroke="none" /><line stroke="#e1ed5e" stroke-width="0.3" x1="174.80103733775053" x2="179.2010983576182" y1="140.37084112569926" y2="142.7455964860345" /><path d="M 175.68104954172406 140.8457921977663 a86.0,86.0 0 0,1 -30.038265399797805,32.042727171017184" fill="none" id="id17" stroke="none" /><text fill="#e1ed5e" style="font-size:6.75px; font-family:Arial;" text-anchor="middle"><textPath startOffset="22.206326154141568" xlink:href="#id17">May</textPath></text><path d="M 118.48025628344425 109.97397251340804 l 42.21170307203042 22.78206317743264 a68.96717918391485,68.96717918391485 0 0,0 -0.5728334772980732,1.0398591520270748 l -41.813293185280834 -23.505292847857522" fill="red" stroke="none" /><path d="M 117.55443506779139 111.5257021239791 l 40.76656801372959 26.766074654562924 a69.76818450620934,69.76818450620934 0 0,0 -0.6677708774704725,0.9982268574759177 l -40.299794030848396 -27.46383842624465" fill="red" stroke="none" /><path d="M 113.48314897796784 116.09983520530334 l 30.929115840057506 36.93155574297555 a69.17208752217623,69.17208752217623 0 0,0 -0.9194283761124012,0.7566269591753497 l -30.288817335400413 -37.458477821008074" fill="red" stroke="none" /><path d="M 111.45004920935366 117.60387380957326 l 30.13509403088616 46.331188876112236 a76.26936723832051,76.26936723832051 0 0,0 -1.106698292565805,0.7063472119329259 l -29.333113936273428 -46.84305051686897" fill="red" stroke="none" /><line stroke="#e1ed5e" stroke-width="0.3" x1="143.8653032363475" x2="146.44561519142675" y1="172.8068346515853" y2="177.08958963109032" /><path d="M 144.38136562736335 173.6633856474863 a86.0,86.0 0 0,1 -40.68145358897372,12.25698825130547" fill="none" id="id18" stroke="none" /><text fill="#e1ed5e" style="font-size:6.75px; font-family:Arial;" text-anchor="middle"><textPath startOffset="21.466115282336833" xlink:href="#id18">June</textPath></text><path d="M 110.21172684928248 118.3499491758327 l 10.253998929675735 18.425909935283215 a42.086930810171495,42.086930810171495 0 0,0 -0.636068178933853,0.34683508644951966 l -9.935307938873231 -18.599685673492505" fill="red" stroke="none" /><path d="M 105.88484417918355 120.15858648285463 l 17.654532537550654 60.47575944856389 a84.0,84.0 0 0,0 -1.3914753275815817,0.39324482664592386 l -16.610926041864467 -60.77069306854833" fill="red" stroke="none" /><path d="M 103.06178313531737 120.77559828337769 l 4.136394779794529 28.06732955551528 a49.37049083382614,49.37049083382614 0 0,0 -0.8418172003174176,0.11666819330819543 l -3.6526489882902795 -28.134372314316078" fill="red" stroke="none" /><path d="M 102.70371172650421 120.8252237178851 l 6.28361152286312 48.39924849869214 a69.80544056771141,69.80544056771141 0 0,0 -1.1929170638842055,0.14444564342684948 l -5.449567035927535 -48.50023967084434" fill="red" stroke="none" /><line stroke="#e1ed5e" stroke-width="0.3" x1="102.19456741930631" x2="102.32365962044197" y1="184.97166512339345" y2="189.96999836594603" /><path d="M 102.22038585953345 185.97133177190398 a86.0,86.0 0 0,1 -42.740103519485714,-10.115201625700543" fill="none" id="id19" stroke="none" /><text fill="#e1ed5e" style="font-size:6.75px; font-family:Arial;" text-anchor="middle"><textPath startOffset="22.20632615414155" xlink:href="#id19">July</textPath></text><path d="M 100.54218724476979 120.99299961872073 l 1.2504614160864573 48.41673478001825 a69.43287995269071,69.43287995269071 0 0,0 -1.1950400791307472,0.020573698718047508 l -0.41686164706304224 -48.43108595601546" fill="red" stroke="none" /><line stroke="#e1ed5e" stroke-width="0.3" x1="58.666819895761336" x2="56.23545636021788" y1="174.27360380694188" y2="178.64263932499728" /><path d="M 58.180547188652646 175.14741091055294 a86.0,86.0 0 0,1 -31.652253787137756,-30.449443065178592" fill="none" id="id20" stroke="none" /><text fill="#e1ed5e" style="font-size:6.75px; font-family:Arial;" text-anchor="middle"><textPath startOffset="22.20632615414155" xlink:href="#id20">August</textPath></text><path d="M 89.4739219176387 118.17145234162733 l -18.39418139170763 31.754371182441606 a57.69722057953874,57.69722057953874 0 0,0 -0.8551061331768993,-0.5052117759451448 l 18.93805539591291 -31.433040834202714" fill="red" stroke="none" /><line stroke="#e1ed5e" stroke-width="0.3" x1="26.63291911575756" x2="22.317208475507996" y1="142.92168965132927" y2="145.44649492493687" /><path d="M 25.769776987707644 143.4266507060508 a86.0,86.0 0 0,1 -11.730757126820373,-40.83630448921669" fill="none" id="id21" stroke="none" /><text fill="#e1ed5e" style="font-size:6.75px; font-family:Arial;" text-anchor="middle"><textPath startOffset="21.46611528233685" xlink:href="#id21">September</textPath></text><line stroke="#e1ed5e" stroke-width="0.3" x1="15.007084014347285" x2="10.007500721073583" y1="101.09737516637583" y2="101.16192664675087" /><path d="M 14.007167355692545 101.11028546245083 a86.0,86.0 0 0,1 10.666146001902534,-42.60595125391555" fill="none" id="id22" stroke="none" /><text fill="#e1ed5e" style="font-size:6.75px; font-family:Arial;" text-anchor="middle"><textPath startOffset="22.20632615414155" xlink:href="#id22">October</textPath></text><line stroke="#e1ed5e" stroke-width="0.3" x1="26.266209847984243" x2="21.928928074336255" y1="57.71137044288968" y2="55.22380399835378" /><path d="M 25.398753493254645 57.2138571539825 a86.0,86.0 0 0,1 29.58750427330803,-30.4925239686951" fill="none" id="id23" stroke="none" /><text fill="#e1ed5e" style="font-size:6.75px; font-family:Arial;" text-anchor="middle"><textPath startOffset="21.46611528233685" xlink:href="#id23">November</textPath></text><line stroke="#e1ed5e" stroke-width="0.3" x1="56.76296977257108" x2="54.21961505331056" y1="26.818313649435495" y2="22.513508569990535" /><path d="M 56.25429882871898 25.957352633546506 a86.0,86.0 0 0,1 42.26535254187918,-11.944610805530505" fill="none" id="id24" stroke="none" /><text fill="#e1ed5e" style="font-size:6.75px; font-family:Arial;" text-anchor="middle"><textPath startOffset="22.20632615414155" xlink:href="#id24">December</textPath></text></svg>