<?xml version="1.0" encoding="utf-8" ?>
<svg baseProfile="full" height="200mm" version="1.1" viewBox="0,0,200,200" width="200mm" xmlns="http://www.w3.org/2000/svg" xmlns:ev="http://www.w3.org/2001/xml-events" xmlns:xlink="http://www.w3.org/1999/xlink"><defs /><rect fill="#1a1a1a" height="200" width="200" x="0" y="0" /><text alignment-baseline="middle" fill="#e1ed5e" style="dominant-baseline: central; font-size:9.0px; font-family:Arial;" text-anchor="middle" x="100.0" y="100.0">2013</text><line stroke="#e1ed5e" stroke-width="0.3" x1="100.0" x2="100.0" y1="15.0" y2="10.0" /><path d="M 100.0 14.0 a86.0,86.0 0 0,1 42.46469731375804,11.215312516191453" fill="none" id="id1" stroke="none" /><text fill="#e1ed5e" style="font-size:6.75px; font-family:Arial;" text-anchor="middle"><textPath startOffset="22.20632615414155" xlink:href="#id1">January</textPath></text><line stroke="#e1ed5e" stroke-width="0.3" x1="143.23703022742887" x2="145.7803849466894" y1="26.81831364943548" y2="22.513508569990506" /><path d="M 143.74570117128098 25.957352633546492 a86.0,86.0 0 0,1 28.547481713284135,27.462654790039103" fill="none" id="id2" stroke="none" /><text fill="#e1ed5e" style="font-size:6.75px; font-family:Arial;" text-anchor="middle"><textPath startOffset="19.985693538727396" xlink:href="#id2">February</textPath></text><line stroke="#e1ed5e" stroke-width="0.3" x1="172.23445277983987" x2="176.4835382374775" y1="55.19839476539836" y2="52.563006222186495" /><path d="M 173.08426987136738 54.67131705675599 a86.0,86.0 0 0,1 12.851231095245387,41.99856678651699" fill="none" id="id3" stroke="none" /><text fill="#e1ed5e" style="font-size:6.75px; font-family:Arial;" text-anchor="middle"><textPath startOffset="22.20632615414155" xlink:href="#id3">March</textPath></text><line stroke="#e1ed5e" stroke-width="0.3" x1="184.98032266829074" x2="189.97916517819016" y1="98.17113171792111" y2="98.06355123074" /><path d="M 185.9800911702706 98.14961562048488 a86.0,86.0 0 0,1 -9.607161424134198,41.387399972396054" fill="none" id="id4" stroke="none" /><text fill="#e1ed5e" style="font-size:6.75px; font-family:Arial;" text-anchor="middle"><textPath startOffset="21.466115282336823" xlink:href="#id4">April</textPath></text><line stroke="#e1ed5e" stroke-width="0.3" x1="174.80103733775053" x2="179.2010983576182" y1="140.37084112569926" y2="142.7455964860345" /><path d="M 175.68104954172406 140.8457921977663 a86.0,86.0 0 0,1 -30.038265399797805,32.042727171017184" fill="none" id="id5" stroke="none" /><text fill="#e1ed5e" style="font-size:6.75px; font-family:Arial;" text-anchor="middle"><textPath startOffset="22.206326154141568" xlink:href="#id5">May</textPath></text><line stroke="#e1ed5e" stroke-width="0.3" x1="143.8653032363475" x2="146.44561519142675" y1="172.8068346515853" y2="177.08958963109032" /><path d="M 144.38136562736335 173.6633856474863 a86.0,86.0 0 0,1 -40.68145358897372,12.25698825130547" fill="none" id="id6" stroke="none" /><text fill="#e1ed5e" style="font-size:6.75px; font-family:Arial;" text-anchor="middle"><textPath startOffset="21.466115282336833" xlink:href="#id6">June</textPath></text><line stroke="#e1ed5e" stroke-width="0.3" x1="102.19456741930631" x2="102.32365962044197" y1="184.97166512339345" y2="189.96999836594603" /><path d="M 102.22038585953345 185.97133177190398 a86.0,86.0 0 0,1 -42.740103519485714,-10.115201625700543" fill="none" id="id7" stroke="none" /><text fill="#e1ed5e" style="font-size:6.75px; font-family:Arial;" text-anchor="middle"><textPath startOffset="22.20632615414155" xlink:href="#id7">July</textPath></text><line stroke="#e1ed5e" stroke-width="0.3" x1="58.666819895761336" x2="56.23545636021788" y1="174.27360380694188" y2="178.64263932499728" /><path d="M 58.180547188652646 175.14741091055294 a86.0,86.0 0 0,1 -31.652253787137756,-30.449443065178592" fill="none" id="id8" stroke="none" /><text fill="#e1ed5e" style="font-size:6.75px; font-family:Arial;" text-anchor="middle"><textPath startOffset="22.20632615414155" xlink:href="#id8">August</textPath></text><line stroke="#e1ed5e" stroke-width="0.3" x1="26.63291911575756" x2="22.317208475507996" y1="142.92168965132927" y2="145.44649492493687" /><path d="M 25.769776987707644 143.4266507060508 a86.0,86.0 0 0,1 -11.730757126820373,-40.83630448921669" fill="none" id="id9" stroke="none" /><text fill="#e1ed5e" style="font-size:6.75px; font-family:Arial;" text-anchor="middle"><textPath startOffset="21.46611528233685" xlink:href="#id9">September</textPath></text><path d="M 81.35079622478065 109.6543875284942 l -19.94428116845199 10.324827896048864 a43.45832634924734,43.45832634924734 0 0,0 -0.338191309564597,-0.6672835379888112 l 20.119051147802857 -9.979990146357368" fill="#ff0000" stroke="none" /><path d="M 81.02952815118164 109.00673069616217 l -35.4711384727156 16.8408563717368 a60.26596627976998,60.26596627976998 0 0,0 -0.4368576099264795,-0.9409524271041645 l 35.75577069948191 -16.227783877353808" fill="#b1ff20" stroke="none" /><path d="M 80.58989483394504 108.01547362559985 l -31.556155572173257 13.031229380272812 a55.14094160471393,55.14094160471393 0 0,0 -0.35473319324680436,-0.8804186941811207 l 31.775791379677447 -12.486111318248886" fill="#fff016" stroke="none" /><path d="M 80.0844068197444 106.66101706037122 l -34.08832347465936 11.401262426331844 a56.9444374309447,56.9444374309447 0 0,0 -0.30291118678842227,-0.9322647728049493 l 34.279526912464036 -10.81279875354909" fill="#ecff1a" stroke="none" /><path d="M 79.50377843672027 104.57218783832718 l -43.10532123774012 9.615705261669929 a65.16481072854356,65.16481072854356 0 0,0 -0.23479800214833926,-1.0968980977572123 l 43.2644532786129 -8.872293344496551" fill="#60ff29" stroke="none" /><path d="M 79.23777060512086 103.15116336523772 l -50.2003322826416 7.619097400534313 a71.77523024552875,71.77523024552875 0 0,0 -0.17487846519117065,-1.2230995782386556 l 50.32404479884937 -6.753852350315257" fill="#36ff6d" stroke="none" /><path d="M 79.18660465613746 102.79330883721812 l -49.59936665517411 6.65659527959595 a71.04405492474342,71.04405492474342 0 0,0 -0.15223215469511814,-1.2134400554731266 l 49.70660031911607 -5.801837469835415" fill="#34ff60" stroke="none" /><path d="M 79.04373962182676 101.35467743843564 l -31.689607244003994 2.0485141524129613 a52.75574936152297,52.75574936152297 0 0,0 -0.05078029553615012,-0.9067162890710628 l 31.720173890427677 -1.502726147006461" fill="#ffc312" stroke="none" /><line stroke="#e1ed5e" stroke-width="0.3" x1="15.007084014347285" x2="10.007500721073583" y1="101.09737516637583" y2="101.16192664675087" /><path d="M 14.007167355692545 101.11028546245083 a86.0,86.0 0 0,1 10.666146001902534,-42.60595125391555" fill="none" id="id10" stroke="none" /><text fill="#e1ed5e" style="font-size:6.75px; font-family:Arial;" text-anchor="middle"><textPath startOffset="22.20632615414155" xlink:href="#id10">October</textPath></text><path d="M 79.00175016825051 100.2711162175752 l -49.933659968932545 0.644712065478624 a70.93782185418533,70.93782185418533 0 0,0 -0.005255150558824214,-1.221111916055437 l 49.93735941678087 0.21490932878048818" fill="#34ff5e" stroke="none" /><path d="M 79.00019446554 99.90962569577889 l -28.566625381692596 -0.12293870476940347 a49.56688991862947,49.56688991862947 0 0,0 0.011015634402248597,-0.8531730241091655 l 28.560276740172633 0.614647986939041" fill="#ff830c" stroke="none" /><path d="M 79.00486145842228 99.54816195383935 l -40.796566444948326 -0.8779861507483679 a61.80601295615622,61.80601295615622 0 0,0 0.03204584540690423,-1.0634455976046102 l 40.775408905085776 1.5801018957779724" fill="#97ff23" stroke="none" /><path d="M 79.26566170972629 96.67025291283419 l -31.388751772153793 -5.040749471717048 a52.79092469637371,52.79092469637371 0 0,0 0.15180693671619494,-0.8959731337969773 l 31.297332973917374 5.580308393829853" fill="#ffc312" stroke="none" /><path d="M 79.32604984820605 96.31383870115002 l -62.021850455381816 -11.05848389654995 a84.0,84.0 0 0,0 0.2660571043605535,-1.4212876901497093 l 61.8223076271114 12.124449664162231" fill="#4dd2ff" stroke="none" /><path d="M 79.46518482838121 95.60439243477599 l -49.100540439263554 -10.510282425609981 a71.21283808045351,71.21283808045351 0 0,0 0.26689762259270167,-1.1964497087184751 l 48.91234842966882 11.353910303878415" fill="#35ff63" stroke="none" /><path d="M 79.54389044137918 95.25157060432595 l -48.04686235625235 -11.153007023575766 a70.32434031944663,70.32434031944663 0 0,0 0.28386654297071284,-1.1768100839078133 l 47.84776301302082 11.978402339142976" fill="#33ff53" stroke="none" /><path d="M 79.71946130924805 94.55025226153421 l -30.056980591461688 -8.076854589573774 a52.12326561170315,52.12326561170315 0 0,0 0.24029627011887308,-0.864473535307064 l 29.913497550776455 8.59303942829978" fill="#ffb610" stroke="none" /><path d="M 80.14247586403 93.16781622104843 l -30.010588612908805 -10.32544920071369 a52.73720734547655,52.73720734547655 0 0,0 0.3027289462948324,-0.8558554970938271 l 29.828406585804164 10.840502324234128" fill="#ffc212" stroke="none" /><path d="M 80.65960295795068 91.81776055985345 l -28.70568609711072 -12.144362725831499 a52.16892619777623,52.16892619777623 0 0,0 0.3570075881977142,-0.8240227355143308 l 28.49238779907033 12.636684605932428" fill="#ffb711" stroke="none" /><path d="M 81.26839172434947 90.50648371742162 l -36.891781058444664 -18.69741877033236 a62.35936385315173,62.35936385315173 0 0,0 0.493501810787142,-0.9532884199692635 l 36.564469814497414 19.329679912561957" fill="#8eff24" stroke="none" /><path d="M 81.43458229118936 90.18545643968196 l -27.766469070714738 -14.678647390811209 a52.40763432477408,52.40763432477408 0 0,0 0.42847458822303436,-0.7938983379651657 l 27.509686383273234 15.154426712108847" fill="#ffbc11" stroke="none" /><line stroke="#e1ed5e" stroke-width="0.3" x1="26.266209847984243" x2="21.928928074336255" y1="57.711370442889674" y2="55.22380399835377" /><path d="M 25.398753493254645 57.213857153982495 a86.0,86.0 0 0,1 29.58750427330803,-30.492523968695096" fill="none" id="id11" stroke="none" /><text fill="#e1ed5e" style="font-size:6.75px; font-family:Arial;" text-anchor="middle"><textPath startOffset="21.46611528233685" xlink:href="#id11">November</textPath></text><path d="M 84.07557802195018 86.31012108654704 l -25.96041533979676 -22.317603931536105 a55.234757336071056,55.234757336071056 0 0,0 0.626015317108967,-0.7156437251452524 l 25.57240815910995 22.761163212884302" fill="#fff216" stroke="none" /><path d="M 86.37877921826538 84.01681056812374 l -20.591058012285007 -24.161621493899133 a52.7454819349106,52.7454819349106 0 0,0 0.6960958465580892,-0.5829602528475395 l 20.17210462876781 24.512482904140487" fill="#ffc312" stroke="none" /><path d="M 87.22198572758235 83.33499621200491 l -20.494635853254383 -26.728971876742385 a54.68186509600063,54.68186509600063 0 0,0 0.7518856602921442,-0.5663046911075714 l 20.03150403920385 27.07779315735581" fill="#ffe815" stroke="none" /><path d="M 87.51073957382395 83.11751280151077 l -23.925276572724457 -32.34124052796348 a61.2290280515071,61.2290280515071 0 0,0 0.8527007632747112,-0.6195233681817113 l 23.365030493095965 32.74828313096186" fill="#a1ff22" stroke="none" /><path d="M 88.70189139769569 82.29822771554957 l -16.85480944929837 -26.40795988705851 a52.32834095461566,52.32834095461566 0 0,0 0.7634476884109265,-0.47807087244409874 l 16.3977426085152 26.69417510082554" fill="#ffba11" stroke="none" /><line stroke="#e1ed5e" stroke-width="0.3" x1="56.762969772571076" x2="54.21961505331055" y1="26.818313649435495" y2="22.513508569990535" /><path d="M 56.25429882871897 25.957352633546506 a86.0,86.0 0 0,1 42.265352541879196,-11.944610805530505" fill="none" id="id12" stroke="none" /><text fill="#e1ed5e" style="font-size:6.75px; font-family:Arial;" text-anchor="middle"><textPath startOffset="22.20632615414155" xlink:href="#id12">December</textPath></text><path d="M 89.3179101791058 81.91981866633112 l -26.999298218564796 -45.69819350504123 a74.07812161257394,74.07812161257394 0 0,0 1.103422785392596,-0.6391736983120424 l 26.20867870070688 46.15617136074332" fill="#3aff94" stroke="none" /><path d="M 89.94658935756843 81.56283822128135 l -17.61336154829453 -32.30151516564583 a57.791553202160244,57.791553202160244 0 0,0 0.8774820479681796,-0.4687205208968492 l 17.054734453798044 32.59991441304443" fill="#ddff1b" stroke="none" /><path d="M 90.58718382345135 81.22770947309562 l -16.540378126146944 -32.987022989195886 a57.90159609347078,57.90159609347078 0 0,0 0.8947967437280067,-0.4390728760877394 l 15.970110115408511 33.266851025418454" fill="#dbff1b" stroke="none" /><path d="M 94.28887869178378 79.79150937346287 l -6.256784741545847 -22.13929086393039 a44.00642421715623,44.00642421715623 0 0,0 0.730720619630413,-0.1997335484763153 l 5.874766232691711 22.243710953233002" fill="#ff0c01" stroke="none" /><path d="M 96.75951476605007 79.25152402106235 l -5.722715855538352 -36.64192980080036 a58.08612269151376,58.08612269151376 0 0,0 0.9892094895767936,-0.14578376474026092 l 5.091137385532909 36.73500804970159" fill="#d8ff1c" stroke="none" /></svg>