<?xml version="1.0" encoding="utf-8" ?>
<svg baseProfile="full" height="200mm" version="1.1" viewBox="0,0,200,200" width="200mm" xmlns="http://www.w3.org/2000/svg" xmlns:ev="http://www.w3.org/2001/xml-events" xmlns:xlink="http://www.w3.org/1999/xlink"><defs /><rect fill="#1a1a1a" height="200" width="200" x="0" y="0" /><text alignment-baseline="middle" fill="#e1ed5e" style="dominant-baseline: central; font-size:9.0px; font-family:Arial;" text-anchor="middle" x="100.0" y="100.0">2024</text><line stroke="#e1ed5e" stroke-width="0.3" x1="100.0" x2="100.0" y1="15.0" y2="10.0" /><path d="M 100.0 14.0 a86.0,86.0 0 0,1 42.35913384403234,11.155469271406648" fill="none" id="id73" stroke="none" /><text fill="#e1ed5e" style="font-size:6.75px; font-family:Arial;" text-anchor="middle"><textPath startOffset="22.145653131862478" xlink:href="#id73">January</textPath></text><path d="M 100.0 79.0 l 0.0 -15.26295599084203 a36.26295599084203,36.26295599084203 0 0,0 0.6225018604192355,0.005343429787758772 l -0.2620089355703807 15.260706959248706" fill="#ff4b07" stroke="none" /><path d="M 101.08105385017728 79.02784411241856 l 1.250601374906683 -24.261332572346568 a45.29354362757568,45.29354362757568 0 0,0 0.7761494041103727,0.04669122080228811 l -1.6668951311495181 24.236289373719586" fill="#ffd914" stroke="none" /><path d="M 101.80034050326958 79.07731436759882 l 1.7918036559073467 -20.82347452576472 a41.900422284406005,41.900422284406005 0 0,0 0.7160990405821738,0.06781532366849717 l -2.1490022598745333 20.78964744659104" fill="#ffa60f" stroke="none" /><path d="M 102.15924093988457 79.11130261209362 l 3.815050817387298 -36.90715592311267 a58.10381073518188,58.10381073518188 0 0,0 0.9912623507903756,0.11107301398146567 l -4.44804906977847 36.83622714862423" fill="#75ff27" stroke="none" /><path d="M 102.51750503828377 79.15144685158666 l 1.5192640173543186 -12.581685490439584 a33.673080641058256,33.673080641058256 0 0,0 0.573279673068484,0.0742225311376142 l -1.7350215123135944 12.553751363101572" fill="#ff2003" stroke="none" /><path d="M 103.58742460773223 79.30868818359171 l 3.0627169881795124 -17.664937702452015 a38.928476214703636,38.928476214703636 0 0,0 0.6574561137685397,0.11981040494408014 l -3.365507835499106 17.609759123576566" fill="#ff770a" stroke="none" /><path d="M 104.29559338865022 79.4440306129975 l 3.2487405607878648 -15.546399640691549 a36.8822182650725,36.8822182650725 0 0,0 0.6186334967340367,0.1348282912858829 l -3.5151364741410354 15.488339891271949" fill="#ff5607" stroke="none" /><path d="M 106.72888874123014 80.10723608172694 l 3.466088077929808 -10.246873518909373 a31.81721699313152,31.81721699313152 0 0,0 0.5158847017024972,0.17945147866532268 l -3.6414785516773236 10.18586360767546" fill="#ff0000" stroke="none" /><path d="M 107.40779381753099 80.34994680014964 l 3.8352434437647087 -10.173438888917696 a31.872348003052657,31.872348003052657 0 0,0 0.5103032122897802,0.19739624507525724 l -4.009318918548015 10.1061027557044" fill="#ff0100" stroke="none" /><path d="M 109.3889696526874 81.21577127319529 l 10.21030745074543 -20.42745451529965 a43.837059272449764,43.837059272449764 0 0,0 0.6702326863100936,0.3422255852268954 l -10.559467358769103 20.24917097839992" fill="#ffc412" stroke="none" /><path d="M 110.02825361518725 81.54914285379988 l 30.08476084556176 -55.35257143860034 a84.0,84.0 0 0,0 1.261023247375599,0.6994683382674158 l -31.030528281093456 54.82797018489978" fill="#4dd2ff" stroke="none" /><line stroke="#e1ed5e" stroke-width="0.3" x1="143.13028292997686" x2="145.6673583964461" y1="26.7553504044142" y2="22.446841604673864" /><path d="M 143.63769802327073 25.89364864446614 a86.0,86.0 0 0,1 29.32050498858742,28.57503671076993" fill="none" id="id74" stroke="none" /><text fill="#e1ed5e" style="font-size:6.75px; font-family:Arial;" text-anchor="middle"><textPath startOffset="20.669276256404974" xlink:href="#id74">February</textPath></text><line stroke="#e1ed5e" stroke-width="0.3" x1="172.87174338648825" x2="177.1583165268699" y1="56.24261187166439" y2="53.66864786411523" /><path d="M 173.72905801456457 55.72781907015455 a86.0,86.0 0 0,1 12.242430191666344,42.057860355516425" fill="none" id="id75" stroke="none" /><text fill="#e1ed5e" style="font-size:6.75px; font-family:Arial;" text-anchor="middle"><textPath startOffset="22.145653131862474" xlink:href="#id75">March</textPath></text><line stroke="#e1ed5e" stroke-width="0.3" x1="184.99686870605535" x2="189.99668451229388" y1="99.2704041080226" y2="99.22748670261217" /><path d="M 185.99683186730306 99.26182062694052 a86.0,86.0 0 0,1 -10.086455211305974,41.156179273409016" fill="none" id="id76" stroke="none" /><text fill="#e1ed5e" style="font-size:6.75px; font-family:Arial;" text-anchor="middle"><textPath startOffset="21.40746469413373" xlink:href="#id76">April</textPath></text><line stroke="#e1ed5e" stroke-width="0.3" x1="174.33088141563837" x2="178.70328620479359" y1="141.23008692659167" y2="143.65538615756765" /><path d="M 175.20536237346943 141.71514677278685 a86.0,86.0 0 0,1 -30.301960400862466,31.631185727798858" fill="none" id="id77" stroke="none" /><text fill="#e1ed5e" style="font-size:6.75px; font-family:Arial;" text-anchor="middle"><textPath startOffset="22.145653131862474" xlink:href="#id77">May</textPath></text><line stroke="#e1ed5e" stroke-width="0.3" x1="143.1302829299769" x2="145.66735839644613" y1="173.24464959558577" y2="177.55315839532614" /><path d="M 143.63769802327073 174.10635135553383 a86.0,86.0 0 0,1 -40.68552437913181,11.842963189579606" fill="none" id="id78" stroke="none" /><text fill="#e1ed5e" style="font-size:6.75px; font-family:Arial;" text-anchor="middle"><textPath startOffset="21.407464694133747" xlink:href="#id78">June</textPath></text><line stroke="#e1ed5e" stroke-width="0.3" x1="101.45913802915013" x2="101.54496967792366" y1="184.9874750549273" y2="189.98673829345242" /><path d="M 101.47630435890484 185.9873277026323 a86.0,86.0 0 0,1 -42.54439059252881,-10.42667462771756" fill="none" id="id79" stroke="none" /><text fill="#e1ed5e" style="font-size:6.75px; font-family:Arial;" text-anchor="middle"><textPath startOffset="22.145653131862474" xlink:href="#id79">July</textPath></text><line stroke="#e1ed5e" stroke-width="0.3" x1="58.13341422392154" x2="55.67067388415222" y1="173.97424548756322" y2="178.32567169271397" /><path d="M 57.64086615596768 174.84453072859336 a86.0,86.0 0 0,1 -31.369924170532247,-30.572349798747897" fill="none" id="id80" stroke="none" /><text fill="#e1ed5e" style="font-size:6.75px; font-family:Arial;" text-anchor="middle"><textPath startOffset="22.145653131862474" xlink:href="#id80">August</textPath></text><line stroke="#e1ed5e" stroke-width="0.3" x1="26.387840678322732" x2="22.057713659400548" y1="142.50000000000003" y2="145.00000000000006" /><path d="M 25.521815274538298 143.00000000000003 a86.0,86.0 0 0,1 -11.493303480769221,-40.785679425670985" fill="none" id="id81" stroke="none" /><text fill="#e1ed5e" style="font-size:6.75px; font-family:Arial;" text-anchor="middle"><textPath startOffset="21.40746469413373" xlink:href="#id81">September</textPath></text><line stroke="#e1ed5e" stroke-width="0.3" x1="15.003131293944662" x2="10.003315487706104" y1="100.72959589197737" y2="100.7725132973878" /><path d="M 14.003168132696942 100.73817937305945 a86.0,86.0 0 0,1 10.791469493833604,-42.45332614584628" fill="none" id="id82" stroke="none" /><text fill="#e1ed5e" style="font-size:6.75px; font-family:Arial;" text-anchor="middle"><textPath startOffset="22.145653131862435" xlink:href="#id82">October</textPath></text><line stroke="#e1ed5e" stroke-width="0.3" x1="26.387840678322718" x2="22.05771365940052" y1="57.49999999999999" y2="54.99999999999999" /><path d="M 25.521815274538284 56.99999999999999 a86.0,86.0 0 0,1 29.574782752854787,-30.34633250058573" fill="none" id="id83" stroke="none" /><text fill="#e1ed5e" style="font-size:6.75px; font-family:Arial;" text-anchor="middle"><textPath startOffset="21.40746469413373" xlink:href="#id83">November</textPath></text><line stroke="#e1ed5e" stroke-width="0.3" x1="56.869717070023135" x2="54.33264160355391" y1="26.7553504044142" y2="22.446841604673864" /><path d="M 56.362301976729285 25.89364864446614 a86.0,86.0 0 0,1 42.16139366436587,-11.88097634709845" fill="none" id="id84" stroke="none" /><text fill="#e1ed5e" style="font-size:6.75px; font-family:Arial;" text-anchor="middle"><textPath startOffset="22.145653131862474" xlink:href="#id84">December</textPath></text></svg>