<?xml version="1.0" encoding="utf-8" ?>
<svg baseProfile="full" height="200mm" version="1.1" viewBox="0,0,200,200" width="200mm" xmlns="http://www.w3.org/2000/svg" xmlns:ev="http://www.w3.org/2001/xml-events" xmlns:xlink="http://www.w3.org/1999/xlink"><defs /><rect fill="#1a1a1a" height="200" width="200" x="0" y="0" /><text alignment-baseline="middle" fill="#e1ed5e" style="dominant-baseline: central; font-size:9.0px; font-family:Arial;" text-anchor="middle" x="100.0" y="100.0">2023</text><line stroke="#e1ed5e" stroke-width="0.3" x1="100.0" x2="100.0" y1="15.0" y2="10.0" /><path d="M 100.0 14.0 a86.0,86.0 0 0,1 42.46469731375804,11.215312516191453" fill="none" id="id13" stroke="none" /><text fill="#e1ed5e" style="font-size:6.75px; font-family:Arial;" text-anchor="middle"><textPath startOffset="22.20632615414155" xlink:href="#id13">January</textPath></text><path d="M 100.36148047927253 79.00311137660856 l 0.15340649537114517 -8.91074147045246 a29.91206188859028,29.91206188859028 0 0,0 0.5147344025209155,0.013294071002705498 l -0.30676753308692856 8.906780607307397" fill="#ff6a09" stroke="none" /><path d="M 100.72285384407766 79.0124445844662 l 0.4062821100656478 -11.796116696623242 a32.803111211596416,32.803111211596416 0 0,0 0.5641497304866833,0.024293474115238106 l -0.6092726729416625 11.78737549598381" fill="#ff910d" stroke="none" /><path d="M 101.08401301168833 79.027996857942 l 0.7587123368718544 -14.678530000311072 a35.69812530155304,35.69812530155304 0 0,0 0.6133923044799624,0.03700149890795505 l -1.0112666901914287 14.663295232022813" fill="#ffb711" stroke="none" /><path d="M 101.44485096284872 79.0497635885617 l 0.9105077765574533 -13.202298135803622 a34.23365786461987,34.23365786461987 0 0,0 0.5875307689724785,0.04560369538535954 l -1.137628734892273 13.184669178229797" fill="#ffa40f" stroke="none" /><path d="M 102.16513564639614 79.11191278185805 l 1.5175817969656278 -14.640829080822824 a35.719270725288965,35.719270725288965 0 0,0 0.6110262557559105,0.06865591931198903 l -1.7693747562312634 14.612537208040234" fill="#ffb711" stroke="none" /><path d="M 102.52436894288641 79.15227682838746 l 1.7686686867740788 -14.606706071262547 a35.71339699647343,35.71339699647343 0 0,0 0.6096536580089452,0.07915054198670272 l -2.01983707329087 14.574097206111707" fill="#ffb711" stroke="none" /><path d="M 102.88285421437855 79.19881850522331 l 2.0186477243285745 -14.565515480576664 a35.70473324647052,35.70473324647052 0 0,0 0.608053340688482,0.08961125636429668 l -2.2690700454457122 14.5286097400514" fill="#ffb711" stroke="none" /><path d="M 103.59715602781102 79.31037775812273 l 2.0443544840770853 -11.758434073203565 a32.934829580284784,32.934829580284784 0 0,0 0.5577040992568462,0.10191685938429833 l -2.2464537044368322 11.721501732468528" fill="#ff930d" stroke="none" /><path d="M 104.307194497241 79.44645832069477 l 3.0941938191175034 -14.765212405851972 a36.085938246598715,36.085938246598715 0 0,0 0.6068576975015628,0.1326355876753995 l -3.3478942407725945 14.709763320080702" fill="#ffbc11" stroke="none" /><path d="M 104.66035177308747 79.52364482259891 l 3.2644372188168957 -14.343075201496704 a35.70987275918411,35.70987275918411 0 0,0 0.5981851132506287,0.14157108972054833 l -3.510846019030048 14.284758199635288" fill="#ffb711" stroke="none" /><path d="M 105.01212808612495 79.60689891045804 l 3.5119675383125877 -14.289321382321305 a35.714571742236544,35.714571742236544 0 0,0 0.595737953606021,0.15186686903303526 l -3.7574143806036338 14.226751517119402" fill="#ffb711" stroke="none" /><path d="M 105.36241919743992 79.69619591428918 l 3.7980610204113723 -14.380652467606966 a35.87374979313753,35.87374979313753 0 0,0 0.595678679729882,0.16282148506266528 l -4.045037589364965 14.313144441718007" fill="#ffb911" stroke="none" /><path d="M 106.0581310904928 79.89281104454417 l 4.24586977385446 -14.09221830097533 a35.71794913630547,35.71794913630547 0 0,0 0.5871599285060579,0.18243344793491026 l -4.487815075071236 14.0170447181579" fill="#ffb711" stroke="none" /><path d="M 106.40334571778207 80.00007090966166 l 3.144009329897304 -9.81986080849747 a31.310890406009847,31.310890406009847 0 0,0 0.511884120346108,0.1687601464373079 l -3.3125762724858294 9.764286937800927" fill="#ff7d0b" stroke="none" /><path d="M 106.74666289553966 80.11325718540242 l 4.7275341906633015 -13.93507546658261 a35.71515911511809,35.71515911511809 0 0,0 0.5804869777968291,0.20252050839271998 l -4.966703172523404 13.851634105017682" fill="#ffb711" stroke="none" /><path d="M 107.08798089147638 80.2323363322302 l 4.962143381166532 -13.838917306917077 a35.70164953884236,35.70164953884236 0 0,0 0.5766966915546987,0.21240225844318092 l -5.1996223984938075 13.751451780667571" fill="#ffb711" stroke="none" /><path d="M 108.09893153111575 80.62456947434976 l 5.655277167957541 -13.529368590175254 a35.663763987982165,35.663763987982165 0 0,0 0.5643641919780625,0.24163129403970113 l -5.887325117725919 13.430017768172762" fill="#ffb711" stroke="none" /><path d="M 108.43124777332544 80.76684994638697 l 5.900413302946581 -13.459874206631952 a35.696363182908385,35.696363182908385 0 0,0 0.5606332801632031,0.25153981074136406 l -6.131228701576564 13.356314065374056" fill="#ffb711" stroke="none" /><path d="M 108.76106565485865 80.91482961587045 l 6.148688386434474 -13.39434837232867 a35.73821350071907,35.73821350071907 0 0,0 0.5568724831743881,0.2614590976951551 l -6.37833908090846 13.286524291993512" fill="#ffb811" stroke="none" /><path d="M 109.08828744355905 81.06846463323043 l 6.372301815545478 -13.273948247997579 a35.72426339478217,35.72426339478217 0 0,0 0.552073806499727,0.2709002192191986 l -6.599846889055636 13.162292868643547" fill="#ffb811" stroke="none" /><path d="M 109.73455568895987 81.39251694778311 l 7.599587463042763 -14.526517638887503 a37.39431134025905,37.39431134025905 0 0,0 0.5677791144049593,0.30328793947918187 l -7.848511623976033 14.393550972906567" fill="#ffcd13" stroke="none" /><path d="M 110.05341064243156 81.56283822128135 l 7.731323493050616 -14.178637188394628 a37.14952369187164,37.14952369187164 0 0,0 0.5587923636528557,0.3109673453811588 l -7.974239945775507 14.043454445453289" fill="#ffca12" stroke="none" /><path d="M 110.36928655335952 81.73862282372117 l 7.992656874126879 -14.075888545265483 a37.18682186985029,37.18682186985029 0 0,0 0.5539123519104268,0.3208617867949361 l -8.233765958502634 13.936222601080498" fill="#ffca12" stroke="none" /><line stroke="#e1ed5e" stroke-width="0.3" x1="143.23703022742887" x2="145.7803849466894" y1="26.81831364943548" y2="22.513508569990506" /><path d="M 143.74570117128098 25.957352633546492 a86.0,86.0 0 0,1 28.547481713284135,27.462654790039103" fill="none" id="id14" stroke="none" /><text fill="#e1ed5e" style="font-size:6.75px; font-family:Arial;" text-anchor="middle"><textPath startOffset="19.985693538727396" xlink:href="#id14">February</textPath></text><path d="M 110.68208982089419 81.91981866633111 l 5.240816831286923 -8.870447659115417 a31.302960872108876,31.302960872108876 0 0,0 0.4615516250338063,0.27807968974648734 l -5.392730522538367 8.778921359910315" fill="#ff7d0b" stroke="none" /><path d="M 111.2981086023043 82.29822771554956 l 8.835629755203346 -13.843583153770053 a37.42294576823478,37.42294576823478 0 0,0 0.5400184076219892,0.3512429939066054 l -9.072615188609616 13.689441235703919" fill="#ffcd13" stroke="none" /><path d="M 111.60114157652 82.49532879139004 l 8.953853487642837 -13.510244687339554 a37.207967293586215,37.207967293586215 0 0,0 0.5308253491349219,0.35841564528919917 l -9.1850835311843 13.354117129751685" fill="#ffcb12" stroke="none" /><path d="M 111.90073688211348 82.69761687909136 l 9.20555474366411 -13.383880056600992 a37.244090725801755,37.244090725801755 0 0,0 0.5250864523062495,0.3678566159050676 l -9.43457233555401 13.223438597931988" fill="#ffcb12" stroke="none" /><path d="M 112.19680574252982 82.90503203632743 l 6.015347954285403 -8.431074720677088 a31.356999177211797,31.356999177211797 0 0,0 0.43669053687933257,0.31727424662032666 l -6.1595838075185245 8.326281239240087" fill="#ff7e0b" stroke="none" /><path d="M 112.77801427241765 83.33499621200491 l 9.889961278406068 -12.898423702932527 a37.253635535126996,37.253635535126996 0 0,0 0.5055273014031899,0.39457207728637544 l -10.110521134968687 12.726273236422928" fill="#ffcb12" stroke="none" /><path d="M 113.06298171725822 83.55741782278167 l 10.055167066218146 -12.656598192549009 a37.164648543571644,37.164648543571644 0 0,0 0.4974693523401487,0.4022522862512085 l -10.271539817122786 12.48163980903367" fill="#ffca12" stroke="none" /><path d="M 113.34407831869373 83.78471172551755 l 10.294867048473163 -12.509986298911658 a37.20135934866874,37.20135934866874 0 0,0 0.4909560170647152,0.4111615451525063 l -10.508680602496996 12.33092359636533" fill="#ffcb12" stroke="none" /><path d="M 113.6212207817346 84.01681056812373 l 6.685376652883271 -7.844644997588009 a31.306925639059365,31.306925639059365 0 0,0 0.40714835892055845,0.3530750447493565 l -6.8194188104505935 7.728404959418982" fill="#ff7d0b" stroke="none" /><path d="M 114.16331599549186 84.49514656593476 l 13.14217362429421 -14.38698931200704 a40.48594850231569,40.48594850231569 0 0,0 0.5104933324048108,0.4744479168970557 l -13.387874840493868 14.158636809035345" fill="#fff417" stroke="none" /><path d="M 114.42810811169701 84.74124197986012 l 13.660779696171268 -14.447253245997492 a40.88315941346622,40.88315941346622 0 0,0 0.5071784800606023,0.4879052959813163 l -13.90744141984429 14.209964863253875" fill="#fff917" stroke="none" /><path d="M 114.68862486808459 84.99185889309783 l 14.358033318967339 -14.670358321756542 a41.52736062130998,41.52736062130998 0 0,0 0.50656300498671,0.5043876624581042 l -14.608432124121371 14.42103480864832" fill="#fdff18" stroke="none" /><path d="M 114.94478906791727 85.2469230424477 l 13.606676429249541 -13.43212965970666 a40.119721510667105,40.119721510667105 0 0,0 0.48093179211971415,0.49564248687739537 l -13.835872485072365 13.195922977279151" fill="#ffef16" stroke="none" /><path d="M 115.4437574822437 85.77008943001954 l 22.92983786617421 -21.127600753570423 a52.179367828282,52.179367828282 0 0,0 0.6029359729603649,0.6657769605535774 l -23.290117479750613 20.7297710057473" fill="#83ff25" stroke="none" /><path d="M 115.68641384162765 86.03803664274999 l 5.965699353785725 -5.3098736664009705 a28.986509070482416,28.986509070482416 0 0,0 0.3285250002499676,0.3755608665743056 l -6.056216217613541 5.206397243623718" fill="#ff5d08" stroke="none" /><path d="M 115.9244219780498 86.31012108654704 l 14.531333385716506 -12.492270976973806 a40.16289341746129,40.16289341746129 0 0,0 0.4461703221877068,0.5281249321062859 l -14.74421432139133 12.240287095238415" fill="#fff016" stroke="none" /><path d="M 116.15771136456269 86.58626213691792 l 14.717098317152724 -12.217776049921152 a40.12765104456808,40.12765104456808 0 0,0 0.43662994157692736,0.5352566806678832 l -14.92522675080606 11.962635199645169" fill="#ffef16" stroke="none" /><path d="M 116.60985879189232 87.15038557335679 l 16.282020151031812 -12.595993960509652 a41.585510536583776,41.585510536583776 0 0,0 0.4331310329721194,0.5699496683423095 l -16.496427124228045 12.313859516286309" fill="#fdff18" stroke="none" /><path d="M 116.82858285166822 87.43820079747576 l 16.509488987387886 -12.323609624401236 a41.60181013404688,41.60181013404688 0 0,0 0.42342201013120584,0.5775471459677389 l -16.71917361003272 12.037600034762004" fill="#fcff18" stroke="none" /><path d="M 117.04232023915458 87.72973835380427 l 16.70642252608089 -12.028419410635362 a41.58609790946532,41.58609790946532 0 0,0 0.41326161072883527,0.5845292408324562 l -16.910996756613606 11.739063669471113" fill="#fdff18" stroke="none" /><path d="M 117.2510076193507 88.02491185347247 l 16.915821887116035 -11.742413118057538 a41.59197163828087,41.59197163828087 0 0,0 0.4031956119120912,0.5916398087556406 l -17.11544196469686 11.44949528603149" fill="#fdff18" stroke="none" /><path d="M 117.65298651832404 88.62581576622439 l 17.292091695940886 -11.141652237303468 a41.570679371324545,41.570679371324545 0 0,0 0.3823956218974965,0.6048580413346066 l -17.48131491408434 10.842346548254655" fill="#fdff18" stroke="none" /><line stroke="#e1ed5e" stroke-width="0.3" x1="172.23445277983987" x2="176.4835382374775" y1="55.19839476539836" y2="52.563006222186495" /><path d="M 173.08426987136738 54.67131705675599 a86.0,86.0 0 0,1 12.851231095245387,41.99856678651699" fill="none" id="id15" stroke="none" /><text fill="#e1ed5e" style="font-size:6.75px; font-family:Arial;" text-anchor="middle"><textPath startOffset="22.20632615414155" xlink:href="#id15">March</textPath></text><path d="M 117.84615892207809 88.93136811851018 l 17.453611561066005 -10.82516423928936 a41.53808017639833,41.53808017639833 0 0,0 0.3716356683174013,0.6108713236942802 l -17.637363027669632 10.523125142387999" fill="#fdff18" stroke="none" /><path d="M 118.03404312379186 89.2402003453031 l 17.686921768088 -10.552693781787408 a41.595789562010964,41.595789562010964 0 0,0 0.361567093681583,0.6180353667972557 l -17.86594853623991 10.246679002636256" fill="#fdff18" stroke="none" /><path d="M 118.21658344932153 89.55222093294921 l 17.8710437396269 -10.24960126077742 a41.601663290826494,41.601663290826494 0 0,0 0.35092460769023853,0.6242557198609417 l -18.04482598860957 9.940462030981685" fill="#fcff18" stroke="none" /><path d="M 118.56541770881063 90.18545643968196 l 18.15834759376764 -9.599347358495066 a41.53954860860222,41.53954860860222 0 0,0 0.3287371966445954,0.6350156289692215 l -18.320894223572353 9.2853590072655" fill="#fdff18" stroke="none" /><path d="M 118.89224826269711 90.83032412892265 l 18.52992912178712 -8.993818078090795 a41.59725799421484,41.59725799421484 0 0,0 0.30711019098350073,0.6468523850746677 l -18.68199750661238 8.673523277375589" fill="#fcff18" stroke="none" /><path d="M 119.04729006885535 91.15688171328212 l 18.707436572991234 -8.685333916699012 a41.62530504930902,41.62530504930902 0 0,0 0.2961297204790791,0.6524825855937088 l -18.85416861043366 8.36202932226324" fill="#fcff18" stroke="none" /><path d="M 119.34039704204932 91.81776055985345 l 18.985711825136615 -8.032184642184001 a41.61487918066145,41.61487918066145 0 0,0 0.27342622998963667,0.6621233038939238 l -19.12115974201245 7.704186767836775" fill="#fcff18" stroke="none" /><path d="M 119.47837535516314 92.15188598940014 l 28.923704611784128 -11.653771285500182 a52.18318575201211,52.18318575201211 0 0,0 0.3285216068636833,0.8360516559034571 l -29.12001976852951 11.154170624700942" fill="#83ff25" stroke="none" /><path d="M 119.61058180528143 92.48833698450437 l 19.273019200814122 -7.382362592052382 a41.63852093914397,41.63852093914397 0 0,0 0.2506151422993712,0.6715239833527477 l -19.39723893161512 7.049515471670301" fill="#fcff18" stroke="none" /><path d="M 119.7369772167798 92.82701384747503 l 19.344518542339735 -7.0303553633074785 a41.58242682895562,41.58242682895562 0 0,0 0.23869683079438667,0.6748280839166523 l -19.46266845394393 6.696329652964211" fill="#fdff18" stroke="none" /><path d="M 119.97218684219823 93.5106431181261 l 21.02356528009181 -6.8309704445401085 a43.105484710823745,43.105484710823745 0 0,0 0.22321357532454825,0.7076480323888105 l -21.138034339184564 6.468072245724879" fill="#eaff1a" stroke="none" /><path d="M 120.08093135843002 93.85539295169968 l 21.051818545934623 -6.441690891124211 a43.015322973505285,43.015322973505285 0 0,0 0.21055816835770755,0.7098974696297051 l -21.15958261140403 6.078364034747977" fill="#ebff1a" stroke="none" /><path d="M 120.18372546131832 94.20196356495316 l 21.17242593213745 -6.082053444896864 a43.02868570656062,43.02868570656062 0 0,0 0.19836885816843364,0.7136383266825511 l -21.273981560872247 5.716703814795362" fill="#ebff1a" stroke="none" /><path d="M 120.28053869075195 94.5502522615342 l 21.28958092074757 -5.720895645076518 a43.04483846080335,43.04483846080335 0 0,0 0.18612520125196277,0.7172163256717815 l -21.384902453869838 5.353582893855886" fill="#ebff1a" stroke="none" /><path d="M 120.45610955862082 95.25157060432595 l 21.489764624178967 -4.988369355137908 a43.06113805826646,43.06113805826646 0 0,0 0.16138825082217859,0.723471883379966 l -21.57244726200318 4.617719302207978" fill="#ebff1a" stroke="none" /><path d="M 120.53481517161879 95.60439243477599 l 21.568139550017637 -4.616797209107348 a43.05673276165481,43.05673276165481 0 0,0 0.14889572613100913,0.7260684398556352 l -21.644414572063646 4.244853113088301" fill="#ebff1a" stroke="none" /><path d="M 120.6074358757038 95.95851677861258 l 21.596573968905812 -4.235470723346578 a43.00798081248587,43.00798081248587 0 0,0 0.13622117665910283,0.7276989727021758 l -21.666280869474775 3.8630936731818393" fill="#ebff1a" stroke="none" /><path d="M 120.67395015179393 96.31383870115 l 21.6924468277956 -3.867759058471122 a43.03455943537617,43.03455943537617 0 0,0 0.12375128259998518,0.7303870750635627 l -21.75580997191581 3.4937861950917215" fill="#ebff1a" stroke="none" /><path d="M 120.78858239683441 97.02765380044208 l 21.777693465005985 -3.113769047364414 a42.99917021926257,42.99917021926257 0 0,0 0.09845581625406111,0.7336101902857668 l -21.82806528031788 2.7384405150139832" fill="#ecff1a" stroke="none" /><path d="M 120.91429891909075 98.10471618934814 l 21.94609875295158 -1.9887869937379898 a43.036027867580046,43.036027867580046 0 0,0 0.060507663673757595,0.738346757111796 l -21.977080900444832 1.6107263194184251" fill="#ebff1a" stroke="none" /><path d="M 120.94382443527127 98.46500227214037 l 21.981474412769582 -1.6110483251464933 a43.0404331641917,43.0404331641917 0 0,0 0.04779416496680499,0.7393545778383432 l -22.005949168740802 1.232434683055115" fill="#ebff1a" stroke="none" /><path d="M 120.96714384426684 98.82574320788733 l 21.989821686755647 -1.231531469656027 a43.02428040994897,43.02428040994897 0 0,0 0.03504715219830905,0.7397899905509631 l -22.00776244718745 0.8528303724820642" fill="#ebff1a" stroke="none" /><path d="M 120.98425023603335 99.18683210126433 l 5.310123780386487 -0.20577443310833377 a26.314109302634556,26.314109302634556 0 0,0 0.013643622010220841,0.4527653921411145 l -5.3128790968523525 0.1143388935422202" fill="#ff3805" stroke="none" /><line stroke="#e1ed5e" stroke-width="0.3" x1="184.98032266829074" x2="189.97916517819016" y1="98.17113171792111" y2="98.06355123074" /><path d="M 185.9800911702706 98.14961562048488 a86.0,86.0 0 0,1 -9.607161424134198,41.387399972396054" fill="none" id="id16" stroke="none" /><text fill="#e1ed5e" style="font-size:6.75px; font-family:Arial;" text-anchor="middle"><textPath startOffset="21.466115282336823" xlink:href="#id16">April</textPath></text><path d="M 120.99513854157772 99.54816195383933 l 23.48125491909012 -0.5053419544258437 a44.48669204179671,44.48669204179671 0 0,0 0.009886622624545023,0.7657298177114129 l -23.48647454883238 0.1010758786539681" fill="#daff1c" stroke="none" /><path d="M 120.99980553446 99.90962569577887 l 23.49234822325564 -0.10110115647086751 a44.492565770612245,44.492565770612245 0 0,0 -0.0032960573888717584,0.7658876579274047 l -23.490607868577264 -0.3032959796602218" fill="#daff1c" stroke="none" /><path d="M 120.99824983174949 100.27111621757518 l 23.517184276369367 0.3036391175510015 a44.519144393502536,44.519144393502536 0 0,0 -0.016488910209988786,0.7661748655296299 l -23.50847330347437 -0.7084037988707462" fill="#d9ff1c" stroke="none" /><path d="M 120.9904718944345 100.63252640178507 l 23.527701037390997 0.7089832069664731 a44.53838085537342,44.53838085537342 0 0,0 -0.029687730392192007,0.7661084069579366 l -23.512011174147602 -1.113868860938416" fill="#d9ff1c" stroke="none" /><path d="M 120.9764740272857 100.99374915477107 l 5.859521275545541 0.2775916632777351 a26.86609296807442,26.86609296807442 0 0,0 -0.025860084584746323,0.46174918208285964 l -5.853874840073265 -0.37841256169601806" fill="#ff3f05" stroke="none" /><path d="M 120.95626037817324 101.35467743843564 l 23.477631204995955 1.517666641250857 a44.526633397742344,44.526633397742344 0 0,0 -0.05602604216475179,0.7644308324402954 l -23.448028604166865 -1.9215706101879226" fill="#d9ff1c" stroke="none" /><path d="M 120.92983693683757 101.71520430193887 l 23.380267349087905 1.916017561849947 a44.458644986702524,44.458644986702524 0 0,0 -0.06907053531739764,0.7621876016726047 l -23.343822217493432 -2.3181865520711225" fill="#daff1c" stroke="none" /><path d="M 120.89721153311464 102.0752229133903 l 23.383421948458995 2.3221190513394387 a44.498439499427775,44.498439499427775 0 0,0 -0.08225366705535576,0.7615668012610202 l -23.33998597990259 -2.7242821744852503" fill="#daff1c" stroke="none" /><path d="M 120.8583938346157 102.4346265915055 l 23.337068919214207 2.7239416902860696 a44.49550263502001,44.49550263502001 0 0,0 -0.09534430780375204,0.7599879432971482 l -23.286723102163606 -3.125247387870613" fill="#daff1c" stroke="none" /><path d="M 120.81339534386255 102.79330883721812 l 7.966334356910634 1.0691399356883187 a29.037757354397954,29.037757354397954 0 0,0 -0.07074973387559214,0.494823473943118 l -7.946750572018441 -1.206108881611846" fill="#ff5e08" stroke="none" /><path d="M 120.76222939487914 103.15116336523771 l 23.247769682249906 3.5284033690648906 a44.514004880788946,44.514004880788946 0 0,0 -0.12149831743427937,0.7565701386424584 l -23.18358961045434 -3.9280527374005536" fill="#d9ff1c" stroke="none" /><path d="M 120.70491114924044 103.5080841355445 l 23.186050867079445 3.928469754177771 a44.51650121553555,44.51650121553555 0 0,0 -0.13451097032083623,0.7544089555033807 l -23.11499345441942 -4.32699746041437" fill="#d9ff1c" stroke="none" /><path d="M 120.64145759157962 103.86396538481128 l 23.10503426349885 4.325133155589623 a44.506369033328745,44.506369033328745 0 0,0 -0.14744338460278608,0.7518106415534128 l -23.0271609459204 -4.722207524210981" fill="#daff1c" stroke="none" /><path d="M 120.5718875245553 104.21870165774334 l 23.01076208818958 4.718844590780028 a44.48962890620447,44.48962890620447 0 0,0 -0.16030240657051262,0.7488794760783914 l -22.926125642894622 -5.114237886274589" fill="#daff1c" stroke="none" /><path d="M 120.49622156327973 104.57218783832717 l 6.325165055874249 1.4109841003910657 a27.480631845399728,27.480631845399728 0 0,0 -0.10696434737684768,0.4607996089823995 l -6.299940142566849 -1.5196523667220303" fill="#ff4806" stroke="none" /><path d="M 120.41448212921028 104.9243191809786 l 30.362562444969214 7.323964805234386 a52.233406133384925,52.233406133384925 0 0,0 -0.2183572416353414,0.8722286373536858 l -30.23199388903881 -7.845521281985468" fill="#82ff25" stroke="none" /><path d="M 120.32669344350535 105.2749913415812 l 25.637761013118364 6.653269393647409 a47.48699272077178,47.48699272077178 0 0,0 -0.21213553027998205,0.7894352245261033 l -25.519437406496603 -7.09359555134906" fill="#b7ff1f" stroke="none" /><path d="M 120.23288151984713 105.62410040840565 l 7.3056987004738545 2.030752911033413 a28.58269021441441,28.58269021441441 0 0,0 -0.1358458543334377,0.47289724023650587 l -7.269660209254317 -2.1562076267745005" fill="#ff5708" stroke="none" /><path d="M 120.13307415673323 105.97154293290107 l 25.359482786587737 7.521714718645145 a47.45145666143781,47.45145666143781 0 0,0 -0.2390044628745546,0.7810804133797173 l -25.22625155120705 -7.95712210457692" fill="#b7ff1f" stroke="none" /><path d="M 120.02730092923936 106.31721596034902 l 25.21504822410558 7.953588236632133 a47.43970920380674,47.43970920380674 0 0,0 -0.2523515775048134,0.7766582956667748 l -25.07440439558452 -8.386445432276703" fill="#b7ff1f" stroke="none" /><path d="M 119.9155931802556 106.66101706037122 l 25.05212272062426 8.378993049829413 a47.4162142885446,47.4162142885446 0 0,0 -0.2655515029663542,0.7718169695234139 l -24.90418038671468 -8.808982722442128" fill="#b8ff1f" stroke="none" /><path d="M 119.79798401119884 107.00284435728193 l 24.94585024950277 8.823721978890118 a47.4604140978815,47.4604140978815 0 0,0 -0.27905760493970827,0.7678466783217386 l -24.790268383557834 -9.25181645421799" fill="#b7ff1f" stroke="none" /><path d="M 119.67450827220406 107.3425965602758 l 8.24168599602541 3.0758265674565717 a29.796936803805803,29.796936803805803 0 0,0 -0.18347211330108865,0.4789877926441422 l -8.187519603130816 -3.217237926933858" fill="#ff6809" stroke="none" /><path d="M 119.54520255179757 107.68017299344265 l 24.570895709851342 9.654989717061827 a47.3997678478611,47.3997678478611 0 0,0 -0.30493260576440656,0.7568177201662718 l -24.401060489829543 -10.076506805070911" fill="#b8ff1f" stroke="none" /><path d="M 119.41010516605496 108.01547362559984 l 24.42291234785127 10.08553060943184 a47.423409606343625,47.423409606343625 0 0,0 -0.31807336721755863,0.7518314827485605 l -24.245687999441405 -10.504436617846563" fill="#b8ff1f" stroke="none" /><path d="M 119.26925614724726 108.34839909993367 l 24.27694789627468 10.517979958211793 a47.457477233473725,47.457477233473725 0 0,0 -0.3312055421299153,0.7467810617934187 l -24.09230126941349 -10.934309356497899" fill="#b7ff1f" stroke="none" /><path d="M 119.12269723197855 108.67885076344098 l 24.06662777506784 10.922657421454481 a47.429283335159155,47.429283335159155 0 0,0 -0.3438067061288954,0.7405290585212031 l -23.875046452099113 -11.335306547254515" fill="#b8ff1f" stroke="none" /><path d="M 118.97047184881838 109.00673069616215 l 7.0967319699129945 3.3693602449762996 a28.855965447557157,28.855965447557157 0 0,0 -0.21689619872072502,0.4468704118966667 l -7.037682514577555 -3.491019612838242" fill="#ff5b08" stroke="none" /><path d="M 118.81262510543309 109.33194174019688 l 23.648633825130126 11.730828199389832 a47.39829941565722,47.39829941565722 0 0,0 -0.3688520543035909,0.7277800961444436 l -23.443203101040268 -12.13616250723697" fill="#b8ff1f" stroke="none" /><path d="M 118.64920377521936 109.65438752849418 l 23.481281418606425 12.15587502894287 a47.44117763601062,47.44117763601062 0 0,0 -0.3816699032600615,0.7219756209095465 l -23.26855900712147 -12.558265664938551" fill="#b7ff1f" stroke="none" /><line stroke="#e1ed5e" stroke-width="0.3" x1="174.80103733775053" x2="179.2010983576182" y1="140.37084112569926" y2="142.7455964860345" /><path d="M 175.68104954172406 140.8457921977663 a86.0,86.0 0 0,1 -30.038265399797805,32.042727171017184" fill="none" id="id17" stroke="none" /><text fill="#e1ed5e" style="font-size:6.75px; font-family:Arial;" text-anchor="middle"><textPath startOffset="22.206326154141568" xlink:href="#id17">May</textPath></text><path d="M 118.48025628344425 109.97397251340804 l 12.943962980197796 6.985981633529742 a35.70884485664139,35.70884485664139 0 0,0 -0.29659356829687555,0.5384034778843605 l -12.821793002449411 -7.207755629811908" fill="#ffb711" stroke="none" /><path d="M 118.30583269289576 110.29060199501025 l 23.045101494533906 12.954776294164319 a47.43677233939897,47.43677233939897 0 0,0 -0.40625756258166296,0.7083443039129877 l -22.818691935799862 -13.349540443935622" fill="#b7ff1f" stroke="none" /><path d="M 118.12598468904814 110.60418214915192 l 6.3256678023701065 3.7006835624156498 a28.32865144314254,28.32865144314254 0 0,0 -0.24985752442614348,0.41877558271616977 l -6.261029402245736 -3.8090212390179237" fill="#ff5407" stroke="none" /><path d="M 117.94076556474637 110.91462005526583 l 15.066213574819738 9.165829420555749 a38.63528339576112,38.63528339576112 0 0,0 -0.3505422687305579,0.5651857522819119 l -14.906206666421218 -9.423811504202934" fill="#ffdd14" stroke="none" /><path d="M 117.75023020441432 111.22182372390056 l 3.8170344858484184 2.4131567678253467 a25.5158695566034,25.5158695566034 0 0,0 -0.23789919837564402,0.3692248389273117 l -3.774930424095724 -2.4785032066741115" fill="#ff2c04" stroke="none" /><path d="M 117.55443506779139 111.5257021239791 l 6.168186967476674 4.04984184097077 a28.378871824515358,28.378871824515358 0 0,0 -0.27162214803213197,0.40603825713103653 l -6.097561714033821 -4.1554170123076135" fill="#ff5507" stroke="none" /><path d="M 117.35343817320211 111.8261652097733 l 25.67795481452986 17.499225966337097 a52.07378755282277,52.07378755282277 0 0,0 -0.5111639679414538,0.736369820229883 l -25.372929939426268 -17.938637048753996" fill="#84ff25" stroke="none" /><path d="M 117.14729908036423 112.12312394758627 l 4.789888121752076 3.386446292382401 a26.86609296807442,26.86609296807442 0 0,0 -0.2702219873701446,0.3753147061742243 l -4.730886342006329 -3.4683946040077562" fill="#ff3f05" stroke="none" /><path d="M 116.93607887273984 112.41649034213515 l 21.30639717756545 15.620538660029224 a47.419004309731974,47.419004309731974 0 0,0 -0.4882774012626863,0.6541273721438875 l -21.034358509607674 -15.984978911682427" fill="#b8ff1f" stroke="none" /><path d="M 116.71984013943494 112.70617746262583 l 21.048505110351716 15.995729565878143 a47.43677233939897,47.43677233939897 0 0,0 -0.4996519359358834,0.6458674809559012 l -20.770046357197764 -16.355675040947297" fill="#b7ff1f" stroke="none" /><path d="M 116.498646956653 112.99209946851258 l 20.7583942543612 16.34649942312435 a47.42194117413974,47.42194117413974 0 0,0 -0.5105357845267335,0.636971889662589 l -20.473940557779613 -16.70139914636519" fill="#b8ff1f" stroke="none" /><path d="M 116.27256486870786 113.27417163493432 l 20.455620936421656 16.686455110181925 a47.39829941565722,47.39829941565722 0 0,0 -0.5211646158723228,0.6277763530674288 l -20.16536032065579 -17.036092720363122" fill="#b8ff1f" stroke="none" /><path d="M 116.0416608686014 113.55231037782055 l 2.2490458715992956 1.900038154124561 a23.944206568786726,23.944206568786726 0 0,0 -0.2686967443009121,0.3125550172814959 l -2.2160066177276048 -1.938470270567585" fill="#ff1502" stroke="none" /><path d="M 115.80600337817218 113.82643327865902 l 23.351515121869742 20.426932606759067 a52.02503560365383,52.02503560365383 0 0,0 -0.5954169954318247,0.668957306339886 l -22.996439276789577 -20.82586408283982" fill="#84ff25" stroke="none" /><path d="M 115.56566222782051 114.09645910891815 l 19.572442747211547 17.7250498443034 a47.405641576676636,47.405641576676636 0 0,0 -0.5529610564511566,0.6001300156427217 l -19.26443528276467 -18.059331114747454" fill="#b8ff1f" stroke="none" /><path d="M 115.32070863581623 114.36230785411682 l 15.12169572706787 14.175744377822696 a41.72721424425855,41.72721424425855 0 0,0 -0.4957460277689934,0.5197877281492892 l -14.875443147919912 -14.433939222554493" fill="#fbff18" stroke="none" /><path d="M 115.07121518719521 114.62390073753431 l 21.083837157831987 20.45806777574472 a50.37789520055753,50.37789520055753 0 0,0 -0.6092351798167297,0.6171520206471084 l -20.72856135295972 -20.817960290372493" fill="#96ff23" stroke="none" /><path d="M 114.55890576462653 115.13401014063108 l 21.489630250747037 22.338511382044157 a51.996988548559656,51.996988548559656 0 0,0 -0.6503688386332453,0.6149643309038658 l -21.101925577722984 -22.705110349693943" fill="#85ff25" stroke="none" /><path d="M 114.29624159901734 115.38237550388516 l 15.199676337071313 16.35444723950521 a43.32707113038979,43.32707113038979 0 0,0 -0.5506673716658222,0.503021587819365 l -14.915909415938629 -16.613661593911157" fill="#e8ff1a" stroke="none" /><path d="M 114.0293411484842 115.62618273729858 l 10.837080621579668 12.070574116015253 a37.22162371308233,37.22162371308233 0 0,0 -0.48043836879354557,0.423931000849005 l -10.627699899879536 -12.255328258636547" fill="#ffcb12" stroke="none" /><path d="M 113.75828350139079 115.86535959552629 l 20.319514939517482 23.43144123244191 a52.014756578226645,52.014756578226645 0 0,0 -0.6814788220052993,0.5807710364802229 l -19.913170640935135 -23.77773665914508" fill="#85ff25" stroke="none" /><path d="M 113.48314897796784 116.09983520530334 l 3.777760685628664 4.510913925454686 a26.88386099774141,26.88386099774141 0 0,0 -0.35733755545342627,0.29406448072125374 l -3.6995530016305462 -4.5752735250331185" fill="#ff4006" stroke="none" /><path d="M 113.20401910651253 116.32954008644616 l 9.698758268394037 11.994549587888487 a36.425146085695836,36.425146085695836 0 0,0 -0.49094593696343397,0.3900371443848537 l -9.490854838713252 -12.159720646278467" fill="#ffc111" stroke="none" /><path d="M 112.92097659922987 116.55440617244103 l 19.048297901674513 24.404754388052275 a51.958515624817906,51.958515624817906 0 0,0 -0.7097812115658183,0.544229966405131 l -18.6253879616152 -24.729023696284777" fill="#85ff25" stroke="none" /><path d="M 112.63410532772338 116.77436683061366 l 18.681398320666283 24.80338893898824 a52.05161422654412,52.05161422654412 0 0,0 -0.7203324480099332,0.5328847243210708 l -18.251680902237787 -25.121283612049076" fill="#84ff25" stroke="none" /><path d="M 112.34349029814194 116.9893568818739 l 18.373294903832665 25.28867092512042 a52.25851632407134,52.25851632407134 0 0,0 -0.7322977733970075,0.5224750176069674 l -17.935269802586774 -25.60119020457161" fill="#82ff25" stroke="none" /><path d="M 112.04921762599082 117.19931262002967 l 0.8526562239967036 1.2170998490640526 a22.48605339033026,22.48605339033026 0 0,0 -0.31891981877676867,0.21935595942082883 l -0.8315795205970516 -1.2315965978499757" fill="#ff0000" stroke="none" /><path d="M 111.7513745106137 117.40417183066458 l 17.409265173100156 25.783693834672626 a52.110792044360636,52.110792044360636 0 0,0 -0.7477285767460023,0.4955537282741714 l -16.96286189761419 -26.079545584038115" fill="#83ff25" stroke="none" /><path d="M 111.45004920935366 117.60387380957326 l 16.924190569325532 26.020090365043423 a52.03986676891305,52.03986676891305 0 0,0 -0.7551187820733816,0.4819525339278544 l -16.47378998520522 -26.307557327795088" fill="#84ff25" stroke="none" /><path d="M 111.1453310114006 117.79835938074945 l 16.489454741200447 26.332572911139327 a52.06938225621112,52.06938225621112 0 0,0 -0.7637358467423142,0.46914893561890236 l -16.033739694525824 -26.612510313586604" fill="#84ff25" stroke="none" /><line stroke="#e1ed5e" stroke-width="0.3" x1="143.8653032363475" x2="146.44561519142675" y1="172.8068346515853" y2="177.08958963109032" /><path d="M 144.38136562736335 173.6633856474863 a86.0,86.0 0 0,1 -40.68145358897372,12.25698825130547" fill="none" id="id18" stroke="none" /><text fill="#e1ed5e" style="font-size:6.75px; font-family:Arial;" text-anchor="middle"><textPath startOffset="21.466115282336833" xlink:href="#id18">June</textPath></text><path d="M 110.8373102113329 117.98757091392108 l 16.034497497160004 26.613768100653257 a52.07085068841501,52.07085068841501 0 0,0 -0.7717200817675541,0.4559458269745118 l -15.574009544364069 -26.88583249992152" fill="#84ff25" stroke="none" /><path d="M 110.5260780823613 118.17145234162733 l 0.7604761362072734 1.3128304538413025 a22.51718415305259,22.51718415305259 0 0,0 -0.33706212399878654,0.1913926707875832 l -0.7377652452872878 -1.325726290423514" fill="#ff0100" stroke="none" /><path d="M 110.21172684928248 118.3499491758327 l 15.124615963491205 27.178158829576617 a52.10315619690044,52.10315619690044 0 0,0 -0.7874453907876597,0.4293780120330698 l -14.654547760834898 -27.434477493369457" fill="#84ff25" stroke="none" /><path d="M 109.89434966115114 118.52300852407294 l 14.63026327145727 27.389015000214325 a52.05161422654412,52.05161422654412 0 0,0 -0.793933598806827,0.415348535276545 l -14.156638770123948 -27.636792954435588" fill="#84ff25" stroke="none" /><path d="M 109.57404056367764 118.69057910512821 l 14.166747737991734 27.656527826284876 a52.07378755282277,52.07378755282277 0 0,0 -0.8013067123739421,0.40179182043877065 l -13.68858711793503 -27.896287487632947" fill="#84ff25" stroke="none" /><path d="M 109.2508944713604 118.85261126421891 l 13.682765270210828 27.884423009843943 a52.06057166298782,52.06057166298782 0 0,0 -0.8078990857920851,0.387840657126792 l -13.20075351641851 -28.115817943470294" fill="#84ff25" stroke="none" /><path d="M 108.92500713936063 119.00905698771935 l 0.6545394941433863 1.3940805145144075 a22.540091695433176,22.540091695433176 0 0,0 -0.3526257857279431,0.16187320302508942 l -0.6304457126480237 -1.4051407878735713" fill="#ff0100" stroke="none" /><path d="M 108.59647513512805 119.15986991738527 l 12.705753311224766 28.31865117025405 a52.038398336709164,52.038398336709164 0 0,0 -0.8204208482480351,0.35964838992568565 l -12.216411788318977 -28.53316411347419" fill="#84ff25" stroke="none" /><path d="M 108.2653958097858 119.30500536409082 l 18.789615913280805 43.885815554729305 a68.73902463469835,68.73902463469835 0 0,0 -1.0917345981894766,0.4563451505854988 l -18.031409855593868 -44.20274574833478" fill="#3aff92" stroke="none" /><path d="M 107.93186726928326 119.44442032107085 l 5.694085640829133 13.958654473861412 a36.07536553473075,36.07536553473075 0 0,0 -0.5769978551048432,0.2295993544248242 l -5.452966709682424 -14.054600672692306" fill="#ffbc11" stroke="none" /><path d="M 107.59598834532513 119.57807347666477 l 11.23609755900022 28.96017392344541 a52.063508527395584,52.063508527395584 0 0,0 -0.8382963164197057,0.31697193670551765 l -10.735931021820239 -29.149294110257557" fill="#84ff25" stroke="none" /><path d="M 107.2578585660854 119.70592522655815 l 0.5108070536093099 1.3869002147079168 a22.477977013208896,22.477977013208896 0 0,0 -0.3642293282956878,0.13059967846804144 l -0.48685816468388726 -1.3954874342159183" fill="#ff0000" stroke="none" /><path d="M 106.91757812671514 119.82793768551818 l 10.228665112987533 29.318546281841275 a52.05161422654412,52.05161422654412 0 0,0 -0.8485163332962516,0.2878628096858095 l -9.722479046754055 -29.490272078425207" fill="#84ff25" stroke="none" /><path d="M 106.57524785965236 119.94407469862006 l 9.715996198637418 29.470608271089304 a52.03090933246936,52.03090933246936 0 0,0 -0.8530062608894186,0.273105667686905 l -9.20726859265706 -29.633486785435917" fill="#84ff25" stroke="none" /><path d="M 106.2309692047433 120.05430185196036 l 5.591154373238299 17.995065264722054 a39.843656256336985,39.843656256336985 0 0,0 -0.6567088828627952,0.19786099934145002 l -5.280570515935258 -18.08864163316923" fill="#ffec16" stroke="none" /><path d="M 105.88484417918355 120.15858648285463 l 8.555902759970845 29.30832159258559 a51.53164238314892,51.53164238314892 0 0,0 -0.8536310591179621,0.24124466399691832 l -8.050140532748276 -29.451255049921027" fill="#8aff24" stroke="none" /><path d="M 105.53697534728816 120.25689768951611 l 0.39681555559896653 1.4517406358534084 a22.504996165760357,22.504996165760357 0 0,0 -0.37455767830589765,0.09892408714235022 l -0.37176743448157146 -1.4583560722993427" fill="#ff0000" stroke="none" /><path d="M 105.18746579009965 120.34920634021253 l 7.674645183462527 30.10582522283911 a52.06864804010918,52.06864804010918 0 0,0 -0.8704060886829603,0.21392463972334622 l -7.155285810036355 -30.233471120876484" fill="#84ff25" stroke="none" /><path d="M 104.83641907484287 120.43548508189849 l 7.1561312806936135 30.237043516637936 a52.072319120618886,52.072319120618886 0 0,0 -0.8740211078287122,0.19892435857339272 l -6.634590023472039 -30.355744608789013" fill="#84ff25" stroke="none" /><path d="M 104.48393922423573 120.51570834832081 l 4.422965953351495 20.236732702142806 a41.71443888408476,41.71443888408476 0 0,0 -0.7028059361367407,0.1472798171715762 l -4.073968555785377 -20.309868500040924" fill="#fbff18" stroke="none" /><path d="M 104.13013068566511 120.58985236759428 l 6.109147828646792 30.455804296998952 a52.06248062485287,52.06248062485287 0 0,0 -0.8801841279788541,0.16868938298302785 l -5.583996086096234 -30.55645087833045" fill="#84ff25" stroke="none" /><path d="M 103.41894727170886 120.7198165907248 l 5.0558987012644465 30.640219186276944 a52.05455109095189,52.05455109095189 0 0,0 -0.885334227887912,0.1382709985780885 l -4.527728609768017 -30.722708492202138" fill="#84ff25" stroke="none" /><path d="M 103.06178313531738 120.77559828337769 l 0.43011933823955556 2.91855634127104 a23.95008029760226,23.95008029760226 0 0,0 -0.4083732853976655,0.056596816250265254 l -0.3798174616550596 -2.925527723013908" fill="#ff1602" stroke="none" /><path d="M 102.70371172650421 120.8252237178851 l 2.459190450086787 18.941809064149194 a40.100778735237014,40.100778735237014 0 0,0 -0.6852890382076627,0.08297895893530549 l -2.132773988827744 -18.981333551809847" fill="#ffef16" stroke="none" /><path d="M 102.34483914955558 120.86867818915974 l 3.47165222620979 30.89712704054056 a52.09155558248976,52.09155558248976 0 0,0 -0.8919250180747984,0.09245167498482654 l -2.9392946115293888 -30.952308083981148" fill="#84ff25" stroke="none" /><path d="M 101.98527174616119 120.90594882070398 l 0.5677354579952931 5.978551022800303 a27.005447184222977,27.005447184222977 0 0,0 -0.4631507264442185,0.03996259351422823 l -0.46474041380953296 -5.9874378685931955" fill="#ff4106" stroke="none" /><path d="M 101.62511606390274 120.93702456842531 l 2.405145562354581 30.98645865866659 a52.07966128163831,52.07966128163831 0 0,0 -0.8943745363894511,0.06168130443359385 l -1.8714082651861996 -31.023268307616465" fill="#84ff25" stroke="none" /><path d="M 101.26447882468166 120.96189622390904 l 1.8882255809705255 31.302057340184486 a52.35895708681698,52.35895708681698 0 0,0 -0.90010515398893,0.04652515509378968 l -1.3491323585681159 -31.329922302040476" fill="#81ff25" stroke="none" /><path d="M 100.90346689309514 120.98055641714683 l 1.3347663107142527 30.996309991735632 a52.02503560365383,52.02503560365383 0 0,0 -0.8950279317619881,0.0308265716621863 l -0.8010180272776122 -31.014693361823912" fill="#84ff25" stroke="none" /><line stroke="#e1ed5e" stroke-width="0.3" x1="102.19456741930631" x2="102.32365962044197" y1="184.97166512339345" y2="189.96999836594603" /><path d="M 102.22038585953345 185.97133177190398 a86.0,86.0 0 0,1 -42.740103519485714,-10.115201625700543" fill="none" id="id19" stroke="none" /><text fill="#e1ed5e" style="font-size:6.75px; font-family:Arial;" text-anchor="middle"><textPath startOffset="22.20632615414155" xlink:href="#id19">July</textPath></text><path d="M 100.54218724476979 120.99299961872073 l 0.8032321248160925 31.100421215493473 a52.110792044360636,52.110792044360636 0 0,0 -0.8969019445929715,0.015440980357000957 l -0.2677704903304531 -31.109639673129635" fill="#83ff25" stroke="none" /><path d="M 100.18074693466247 120.99922214144158 l 0.01388497624311046 1.6131598641062277 a22.61321961918658,22.61321961918658 0 0,0 -0.3892638218111307,0.0 l 0.01388497624310935 -1.6131598641062277" fill="#ff0200" stroke="none" /><path d="M 99.81925306533755 120.99922214144158 l -0.2551948928774062 29.64860375033181 a50.64970200149641,50.64970200149641 0 0,0 -0.8717544761078485,-0.015008043881338279 l 0.7655090588779226 -29.63981822917131" fill="#93ff23" stroke="none" /><path d="M 99.45781275523022 120.99299961872073 l -0.8397798992526291 32.51551797812119 a53.52636068890448,53.52636068890448 0 0,0 -0.9208564174201725,-0.031716156931888 l 1.3993566683474448 -32.496245022763205" fill="#74ff27" stroke="none" /><path d="M 99.09653310690486 120.98055641714683 l -0.7597769327813736 17.64374868021623 a38.660099900006756,38.660099900006756 0 0,0 -0.6646074923918535,-0.03435261593936692 l 1.063372493586716 -17.62805625751466" fill="#ffdd14" stroke="none" /><path d="M 98.73552117531835 120.96189622390904 l -1.8708777504926661 31.01447370091085 a52.07085068841501,52.07085068841501 0 0,0 -0.8942232302934542,-0.061670869479343506 l 2.4044637415650505 -30.977674486915223" fill="#84ff25" stroke="none" /><path d="M 98.37488393609728 120.93702456842531 l -0.11580726109819575 1.4919915719694181 a22.496479258977832,22.496479258977832 0 0,0 -0.38582070647287703,-0.033290234003346485 l 0.14147228531261447 -1.4897770856874082" fill="#ff0000" stroke="none" /><path d="M 98.01472825383883 120.90594882070398 l -2.9383783941973465 30.94265983673796 a52.081863929944134,52.081863929944134 0 0,0 -0.8917590751062295,-0.09243447431762633 l 3.4705700659091696 -30.887495993964574" fill="#84ff25" stroke="none" /><path d="M 97.65516085044442 120.86867818915974 l -3.4731278993469834 30.91026028587147 a52.104771472324714,52.104771472324714 0 0,0 -0.8904273147424583,-0.10781834739125763 l 4.004682637140831 -30.845896409754864" fill="#84ff25" stroke="none" /><path d="M 97.2962882734958 120.8252237178851 l -4.0018278617943945 30.82390762497761 a52.082598146046074,52.082598146046074 0 0,0 -0.8880613948954695,-0.12307721729864698 l 4.531817847876695 -30.75045584218636" fill="#84ff25" stroke="none" /><path d="M 96.93821686468263 120.77559828337769 l -4.527557332779149 30.721546299532644 a52.05337634518878,52.05337634518878 0 0,0 -0.8853142480281044,-0.1382678781348931 l 5.055707444415771 -30.639060114050647" fill="#84ff25" stroke="none" /><path d="M 96.58105272829116 120.7198165907248 l -0.24703212714222683 1.4970866642951355 a22.517330996272978,22.517330996272978 0 0,0 -0.3818843140012815,-0.06639548300963004 l 0.27276541261555826 -1.4926126027644993" fill="#ff0100" stroke="none" /><path d="M 96.22490169976321 120.6578951692458 l -5.572486774192566 30.49347022461853 a51.99845698076354,51.99845698076354 0 0,0 -0.8791017247843608,-0.16848193783465745 l 6.096556113548622 -30.393031088435404" fill="#85ff25" stroke="none" /><path d="M 95.86986931433489 120.58985236759428 l -6.113999682170847 30.47999213883078 a52.08715028587811,52.08715028587811 0 0,0 -0.877565643854973,-0.18390241308074726 l 6.637756787455207 -30.370233745023494" fill="#84ff25" stroke="none" /><path d="M 95.51606077576429 120.51570834832081 l -6.629855554546657 30.334082632834498 a52.05014579434024,52.05014579434024 0 0,0 -0.8736489339842269,-0.1988396530180764 l 7.151024637923746 -30.215466246238737" fill="#84ff25" stroke="none" /><path d="M 95.16358092515715 120.4354850818985 l -7.144666698581157 30.188601830112574 a52.022539268907224,52.022539268907224 0 0,0 -0.8696353109365343,-0.2137352013062038 l 7.663255294260902 -30.06114537049234" fill="#84ff25" stroke="none" /><path d="M 94.81253420990036 120.34920634021253 l -0.6327555007411957 2.482150778143208 a23.561533136454646,23.561533136454646 0 0,0 -0.3921419530097469,-0.10356825391262278 l 0.6753878965624319 -2.4708911749270035" fill="#ff1001" stroke="none" /><path d="M 94.46302465271185 120.25689768951611 l -8.185303290538881 29.945744908420806 a52.0442720655247,52.0442720655247 0 0,0 -0.8621228633466548,-0.2436445326942866 l 8.699557321990149 -29.800411582388" fill="#84ff25" stroke="none" /><path d="M 94.11515582081647 120.15858648285463 l -8.709062966168457 29.832973251721825 a52.07819284943442,52.07819284943442 0 0,0 -0.8583602776722046,-0.25861691042591 l 9.221298218280907 -29.67864097219019" fill="#84ff25" stroke="none" /><path d="M 93.76903079525671 120.05430185196036 l -9.211669189514215 29.647650055194248 a52.04574049772859,52.04574049772859 0 0,0 -0.853249406300189,-0.2731835151691547 l 9.720639940905343 -29.484693693365386" fill="#84ff25" stroke="none" /><path d="M 93.42475214034765 119.94407469862007 l -9.723858376140553 29.494455867220086 a52.05601952315577,52.05601952315577 0 0,0 -0.8485881459803286,-0.2878871724472526 l 10.230116255058107 -29.32270570787471" fill="#84ff25" stroke="none" /><path d="M 93.08242187328487 119.8279376855182 l -0.5055778973945335 1.4491440300471716 a22.534805339499194,22.534805339499194 0 0,0 -0.36515016485944607,-0.13092985769800883 l 0.5304476228837063 -1.440226631309205" fill="#ff0100" stroke="none" /><path d="M 92.7421414339146 119.70592522655815 l -10.745624429394933 29.175612832662846 a52.09155558248976,52.09155558248976 0 0,0 -0.8387479137790815,-0.3171426921851855 l 11.246242563934299 -28.98632189037103" fill="#84ff25" stroke="none" /><path d="M 92.40401165467489 119.57807347666478 l -11.252085236932993 29.001380928914575 a52.10770833673248,52.10770833673248 0 0,0 -0.8334229050507812,-0.3316361738082194 l 11.749629218025632 -28.803397910700287" fill="#84ff25" stroke="none" /><path d="M 92.06813273071674 119.44442032107085 l -11.727332748726923 28.748739668699834 a52.04867736213635,52.04867736213635 0 0,0 -0.8266533045562292,-0.3455411483480731 l 12.220457512780614 -28.542613477331788" fill="#84ff25" stroke="none" /><path d="M 91.7346041902142 119.30500536409082 l -12.22392527660488 28.550712932066865 a52.057487955359655,52.057487955359655 0 0,0 -0.8207218091082442,-0.3597803223223713 l 12.713567760370868 -28.336068056450042" fill="#84ff25" stroke="none" /><path d="M 91.07499286063937 119.00905698771935 l -13.189457592654215 28.091759155033298 a52.03399304009751,52.03399304009751 0 0,0 -0.8074866269110168,-0.3876426517987996 l 13.671056887565474 -27.860562226734935" fill="#84ff25" stroke="none" /><path d="M 90.7491055286396 118.85261126421891 l -13.668404712491117 27.855157297964396 a52.0279724680616,52.0279724680616 0 0,0 -0.8006017140115728,-0.4014383196243527 l 14.14586033418545 -27.615751137430742" fill="#84ff25" stroke="none" /><path d="M 90.42595943632237 118.69057910512821 l -8.270407705178743 16.145608368503463 a39.14057091711749,39.14057091711749 0 0,0 -0.5970038545266475,-0.31232420054366183 l 8.547102462231885 -16.000854749015087" fill="#ffe315" stroke="none" /><path d="M 90.10565033884886 118.52300852407294 l -14.655308813208547 27.435902243867197 a52.104771472324714,52.104771472324714 0 0,0 -0.7874698027673092,-0.42939132339080294 l 15.125401427844498 -27.179570268716628" fill="#84ff25" stroke="none" /><line stroke="#e1ed5e" stroke-width="0.3" x1="58.666819895761336" x2="56.23545636021788" y1="174.27360380694188" y2="178.64263932499728" /><path d="M 58.180547188652646 175.14741091055294 a86.0,86.0 0 0,1 -31.652253787137756,-30.449443065178592" fill="none" id="id20" stroke="none" /><text fill="#e1ed5e" style="font-size:6.75px; font-family:Arial;" text-anchor="middle"><textPath startOffset="22.20632615414155" xlink:href="#id20">August</textPath></text><path d="M 89.7882731507175 118.34994917583269 l -0.7331238650178666 1.3173859682325046 a22.507639343727348,22.507639343727348 0 0,0 -0.33691924673302104,-0.19131154134721395 l 0.7556918786720949 -1.3045712610906575" fill="#ff0000" stroke="none" /><path d="M 89.4739219176387 118.17145234162733 l -15.536250711817186 26.82064840944334 a51.99552011635578,51.99552011635578 0 0,0 -0.7706036391809521,-0.45528621301545563 l 15.99562222202652 -26.549243624134135" fill="#85ff25" stroke="none" /><path d="M 89.1626897886671 117.98757091392108 l -11.409855361544365 18.937870969010447 a43.109449477774234,43.109449477774234 0 0,0 -0.6323146246962731,-0.3884192871368684 l 11.734149186172948 -18.7386632150452" fill="#eaff1a" stroke="none" /><path d="M 88.8546689885994 117.79835938074946 l -16.469036004530047 26.299965533844855 a52.03090933246936,52.03090933246936 0 0,0 -0.7549888061738084,-0.4818695771591505 l 16.919306612750777 -26.012581527861897" fill="#84ff25" stroke="none" /><path d="M 88.54995079064634 117.60387380957326 l -16.906416169987896 25.99276312153034 a52.007267573986844,52.007267573986844 0 0,0 -0.7462431223544287,-0.49456925010278474 l 17.35133399108229 -25.69789585033624" fill="#85ff25" stroke="none" /><path d="M 88.24862548938628 117.40417183066458 l -0.8547519934042028 1.2659157915845298 a22.527463178479778,22.527463178479778 0 0,0 -0.3195071340295973,-0.21975992020714843 l 0.8764160120566904 -1.2510150820122803" fill="#ff0100" stroke="none" /><path d="M 87.95078237400918 117.19931262002967 l -18.44888564660691 26.33433651681414 a53.1536725955588,53.1536725955588 0 0,0 -0.7448415842543086,-0.531424693594821 l 18.899454558710108 -26.012867561375103" fill="#78ff26" stroke="none" /><path d="M 87.65650970185807 116.9893568818739 l -18.262987810831774 25.13684623661428 a52.07085068841501,52.07085068841501 0 0,0 -0.7205986577687737,-0.5330816599364903 l 18.69297143901911 -24.818754627938024" fill="#84ff25" stroke="none" /><path d="M 87.36589467227662 116.77436683061367 l -18.681398320666275 24.803388938988242 a52.05161422654412,52.05161422654412 0 0,0 -0.7110529884350107,-0.5452051106770782 l 19.105580037594773 -24.478144486483796" fill="#84ff25" stroke="none" /><path d="M 87.07902340077011 116.55440617244103 l -19.099255511546797 24.47004147877054 a52.04133520111694,52.04133520111694 0 0,0 -0.7014242856028833,-0.5572538741248658 l 19.51763728986704 -24.13765369064054" fill="#84ff25" stroke="none" /><path d="M 86.51685102203217 116.09983520530335 l -19.95390019785424 23.826370635930047 a52.07819284943442,52.07819284943442 0 0,0 -0.6823099414455848,-0.5814793344979935 l 20.36107561587688 -23.4793669112091" fill="#84ff25" stroke="none" /><path d="M 86.24171649860922 115.8653595955263 l -20.57975019311055 23.731531420092868 a52.411967489377176,52.411967489377176 0 0,0 -0.6765078374860475,-0.5969395103639129 l 20.985200383503184 -23.373768767956665" fill="#80ff25" stroke="none" /><path d="M 85.97065885151581 115.62618273729859 l -20.74151837077559 23.102350486772053 a52.04720892993247,52.04720892993247 0 0,0 -0.6614963577329391,-0.6042612388617759 l 21.136114277975384 -22.741896481323703" fill="#84ff25" stroke="none" /><path d="M 85.70375840098266 115.38237550388516 l -21.10792359531112 22.711564056997414 a52.00579914178296,52.00579914178296 0 0,0 -0.6504790399245328,-0.6150685331031945 l 21.49573846962647 -22.34486088714829" fill="#85ff25" stroke="none" /><path d="M 85.18274418774928 114.88116024355367 l -21.933444014789075 22.02803941653148 a52.08553501045384,52.08553501045384 0 0,0 -0.6298861864239522,-0.638071381311531 l 22.30937082626856 -21.647227541239285" fill="#84ff25" stroke="none" /><path d="M 84.9287848128048 114.62390073753433 l -22.30726310648451 21.645182378687917 a52.082598146046074,52.082598146046074 0 0,0 -0.6187746202190928,-0.6487827154713869 l 22.67654427808256 -21.25799254663403" fill="#84ff25" stroke="none" /><path d="M 84.67929136418377 114.36230785411682 l -22.684150549312307 21.265123000689407 a52.09302401469364,52.09302401469364 0 0,0 -0.6076368262268552,-0.6594697651385596 l 23.04683378353489 -20.871501980749503" fill="#84ff25" stroke="none" /><path d="M 84.43433777217949 114.09645910891817 l -23.020493674177718 20.847648047068855 a52.057487955359655,52.057487955359655 0 0,0 -0.5957884066480434,-0.6693745907786169 l 23.3759409304741 -20.44829928654937" fill="#84ff25" stroke="none" /><path d="M 84.19399662182784 113.82643327865904 l -1.1231450997181005 0.982480543117597 a22.49222080558657,22.49222080558657 0 0,0 -0.25240287186783084,-0.2936015625488939 l 1.13989048115671 -0.9630018814071728" fill="#ff0000" stroke="none" /><path d="M 83.95833913139862 113.55231037782056 l -23.722217953700262 20.040995953736488 a52.05455109095189,52.05455109095189 0 0,0 -0.5723620986022414,-0.689447019140231 l 24.06367605219604 -19.629687677482494" fill="#84ff25" stroke="none" /><path d="M 83.72743513129214 113.27417163493432 l -24.04194283679622 19.611959038283704 a52.02650403585771,52.02650403585771 0 0,0 -0.5601076505196627,-0.6988204145116097 l 24.37596839937074 -19.195210790193837" fill="#84ff25" stroke="none" /><path d="M 83.50135304334701 112.99209946851258 l -24.39338886994817 19.20892879307764 a52.04867736213635,52.04867736213635 0 0,0 -0.5482291716819433,-0.7086601064349601 l 24.72042485884818 -18.786190692529427" fill="#84ff25" stroke="none" /><path d="M 83.28015986056508 112.70617746262583 l -24.700432555317352 18.77099761924458 a52.02356717144995,52.02356717144995 0 0,0 -0.5356909651027378,-0.7176455891214967 l 25.019884787115174 -18.343039150613773" fill="#84ff25" stroke="none" /><path d="M 82.85270091963577 112.12312394758628 l -14.436090669938574 10.206302210630236 a38.67963004831841,38.67963004831841 0 0,0 -0.3796849452126012,-0.5469644818200922 l 14.60963652231331 -9.95629646662313" fill="#ffdd14" stroke="none" /><path d="M 82.6465618267979 111.8261652097733 l -2.4317440149102056 1.6572051129680532 a23.942738136582843,23.942738136582843 0 0,0 -0.22916266730558224,-0.3425670944228407 l 2.459909787626518 -1.6151011043393917" fill="#ff1502" stroke="none" /><path d="M 82.44556493220864 111.52570212397912 l -4.93577707387536 3.2406794114514414 a26.90456589181617,26.90456589181617 0 0,0 -0.2508468168842583,-0.3893198303815748 l 4.990828754136664 -3.155237981148418" fill="#ff4006" stroke="none" /><path d="M 82.24976979558568 111.22182372390057 l -6.239466835872921 3.9446359938406124 a28.381808688923126,28.381808688923126 0 0,0 -0.2575113402580528,-0.4151902738917336 l 6.30644281579893 -3.8366493885836146" fill="#ff5507" stroke="none" /><path d="M 82.05923443525364 110.91462005526583 l -1.2734573507693459 0.7747330006666465 a22.4906055301623,22.4906055301623 0 0,0 -0.1983662029196745,-0.3324731660960492 l 1.2866044293872523 -0.7526977406844861" fill="#ff0000" stroke="none" /><line stroke="#e1ed5e" stroke-width="0.3" x1="26.63291911575756" x2="22.317208475507996" y1="142.92168965132927" y2="145.44649492493687" /><path d="M 25.769776987707644 143.4266507060508 a86.0,86.0 0 0,1 -11.730757126820373,-40.83630448921669" fill="none" id="id21" stroke="none" /><text fill="#e1ed5e" style="font-size:6.75px; font-family:Arial;" text-anchor="middle"><textPath startOffset="21.46611528233685" xlink:href="#id21">September</textPath></text><path d="M 81.87401531095188 110.60418214915194 l -26.812222855032783 15.685862029344635 a52.063508527395584,52.063508527395584 0 0,0 -0.4458818134264658,-0.7774325251989551 l 27.078256664611626 -15.222009658287373" fill="#84ff25" stroke="none" /><path d="M 81.69416730710424 110.29060199501025 l -27.107825626281294 15.238631814790875 a52.09742931130529,52.09742931130529 0 0,0 -0.43271527042017494,-0.7855039064592705 l 27.366117306152983 -14.769757389933782" fill="#84ff25" stroke="none" /><path d="M 81.51974371655577 109.97397251340807 l -27.393383533441632 14.784473235718071 a52.12841323080724,52.12841323080724 0 0,0 -0.41937926978864504,-0.7933075312357959 l 27.643815311455164 -14.31075068939615" fill="#83ff25" stroke="none" /><path d="M 81.35079622478065 109.6543875284942 l -27.60182483797467 14.289012908610877 a52.08112971384219,52.08112971384219 0 0,0 -0.4052936903271467,-0.7996829012378363 l 27.843697198088087 -13.811775795670355" fill="#84ff25" stroke="none" /><path d="M 81.02952815118164 109.00673069616217 l -25.29627649986912 12.01007291045153 a49.002561598400106,49.002561598400106 0 0,0 -0.35521112929268817,-0.7650931714308836 l 25.49926224600163 -11.572859671741819" fill="#a6ff21" stroke="none" /><path d="M 80.87730276802145 108.67885076344099 l -28.260901197671934 12.826231622011008 a52.035314629081014,52.035314629081014 0 0,0 -0.36315425084307984,-0.8188169657288467 l 28.477496533246295 -12.337866319789466" fill="#84ff25" stroke="none" /><path d="M 80.73074385275274 108.34839909993369 l -18.9389162891887 8.205279461447681 a41.63998937134785,41.63998937134785 0 0,0 -0.2792834117198632,-0.6601434863196233 l 19.07735068210087 -7.8780614494618995" fill="#fcff18" stroke="none" /><path d="M 80.58989483394504 108.01547362559985 l -28.733564588659497 11.865630152929274 a52.08715028587811,52.08715028587811 0 0,0 -0.3350875159240328,-0.8316597341962729 l 28.933554718840917 -11.369271050890196" fill="#84ff25" stroke="none" /><path d="M 80.45479744820244 107.68017299344265 l -1.379005338200711 0.5418720797696877 a22.481648093718608,22.481648093718608 0 0,0 -0.13842884298492847,-0.361394027389984 l 1.3881284607791486 -0.5180544855465459" fill="#ff0000" stroke="none" /><path d="M 80.32549172779594 107.34259656027581 l -29.13391356613265 10.872880306761228 a52.09669509520335,52.09669509520335 0 0,0 -0.30631799647932073,-0.8428555679664739 l 29.316755823617196 -10.369776941788638" fill="#84ff25" stroke="none" /><path d="M 80.20201598880116 107.00284435728193 l -29.305680777029 10.365859531437012 a52.084947637572284,52.084947637572284 0 0,0 -0.2916984481914444,-0.8478122314612784 l 29.479770056163673 -9.859874596886437" fill="#84ff25" stroke="none" /><path d="M 80.0844068197444 106.66101706037122 l -29.696877126557645 9.932488748357216 a52.313876218157745,52.313876218157745 0 0,0 -0.27827930252118904,-0.8564556281060792 l 29.863448680095082 -9.419834220273332" fill="#81ff25" stroke="none" /><path d="M 79.97269907076064 106.31721596034903 l -29.704221393665414 9.369609122108056 a52.146915476576176,52.146915476576176 0 0,0 -0.262654645419404,-0.8583705783266933 l 29.86110281159095 -8.856911571229315" fill="#83ff25" stroke="none" /><path d="M 79.76711848015287 105.62410040840567 l -29.966409046631664 8.32971285836334 a52.10256882401889,52.10256882401889 0 0,0 -0.2327543909007752,-0.8661656753004996 l 30.105351513874215 -7.8126562498873025" fill="#84ff25" stroke="none" /><path d="M 79.67330655649465 105.27499134158121 l -30.078203709546003 7.805611108326414 a52.07452176892471,52.07452176892471 0 0,0 -0.21769303927653638,-0.8695754790979229 l 30.2081080631176 -7.2867077898311" fill="#84ff25" stroke="none" /><path d="M 79.58551787078972 104.9243191809786 l -30.25121825102813 7.2971066980120565 a52.118868421482006,52.118868421482006 0 0,0 -0.2028650861481809,-0.8739374816537835 l 30.372343903106866 -6.775300559009699" fill="#83ff25" stroke="none" /><path d="M 79.50377843672027 104.57218783832718 l -30.342103270773013 6.768554639965386 a52.08788450198005,52.08788450198005 0 0,0 -0.18767999293583928,-0.8767784451093773 l 30.454117302433293 -6.245262375439845" fill="#84ff25" stroke="none" /><path d="M 79.4281124754447 104.21870165774334 l -1.463094578773825 0.30003856075631835 a22.493542394570063,22.493542394570063 0 0,0 -0.07451796438118702,-0.3799654949566064 l 1.4680424761306785 -0.2748093387317571" fill="#ff0000" stroke="none" /><path d="M 79.35854240842038 103.8639653848113 l -30.528817246224776 5.7148237984299906 a52.05910323078393,52.05910323078393 0 0,0 -0.1573016813630798,-0.8822313663561895 l 30.62266536992704 -5.188473681340588" fill="#84ff25" stroke="none" /><path d="M 79.29508885075956 103.50808413554451 l -30.62773266297873 5.1893322452936825 a52.06424274349753,52.06424274349753 0 0,0 -0.14210624069357983,-0.8848956964499356 l 30.7125206580336 -4.661357319150533" fill="#84ff25" stroke="none" /><path d="M 79.23777060512086 103.15116336523772 l -30.695679708285628 4.658801303470699 a52.04720892993247,52.04720892993247 0 0,0 -0.12681165889701604,-0.8869204469694506 l 30.77132541819924 -4.129735384520847" fill="#84ff25" stroke="none" /><path d="M 79.18660465613746 102.79330883721812 l -30.495966801481586 4.0927802580374415 a51.76938155695769,51.76938155695769 0 0,0 -0.11093066844224533,-0.8842265731429331 l 30.561898979170678 -3.5672359306070995" fill="#87ff25" stroke="none" /><path d="M 79.1416061653843 102.43462659150553 l -1.5229973854055818 0.17776680039228657 a22.53333690729531,22.53333690729531 0 0,0 -0.04165201324964807,-0.3856459126043488 l 1.5258317001562818 -0.15152456590315572" fill="#ff0100" stroke="none" /><path d="M 79.10278846688536 102.07522291339032 l -43.961400226040716 4.365640119459728 a65.17763601061932,65.17763601061932 0 0,0 -0.10125936612153753,-1.1173886673442923 l 44.03003418843933 -3.60827006356687" fill="#35ff69" stroke="none" /><path d="M 79.07016306316243 101.71520430193888 l -21.997820663395096 1.8027257808553314 a43.07156392691403,43.07156392691403 0 0,0 -0.05419518774562585,-0.7394502785118849 l 22.025592409805057 -1.4238023658466858" fill="#ebff1a" stroke="none" /><path d="M 79.04373962182676 101.35467743843564 l -30.983275275000775 2.002854670941206 a52.04794314603441,52.04794314603441 0 0,0 -0.050098993322840124,-0.8945511803794726 l 31.013160619211146 -1.4692317742262955" fill="#84ff25" stroke="none" /><path d="M 79.0235259727143 100.99374915477108 l -31.053057229478203 1.4711218546411235 a52.08788450198005,52.08788450198005 0 0,0 -0.03471996606289096,-0.8959680493820098 l 31.073779328392295 -0.936376558245117" fill="#84ff25" stroke="none" /><line stroke="#e1ed5e" stroke-width="0.3" x1="15.007084014347285" x2="10.007500721073583" y1="101.09737516637583" y2="101.16192664675087" /><path d="M 14.007167355692545 101.11028546245083 a86.0,86.0 0 0,1 10.666146001902534,-42.60595125391555" fill="none" id="id22" stroke="none" /><text fill="#e1ed5e" style="font-size:6.75px; font-family:Arial;" text-anchor="middle"><textPath startOffset="22.20632615414155" xlink:href="#id22">October</textPath></text><path d="M 79.00175016825051 100.2711162175752 l -14.738747169966478 0.19029744938441065 a35.739975619363726,35.739975619363726 0 0,0 -0.002647656044959065,-0.6152220207443673 l 14.73983912330094 0.06343404956363204" fill="#ffb811" stroke="none" /><path d="M 79.00019446554 99.90962569577889 l -14.77229117448943 -0.06357370950200124 a35.772427971069554,35.772427971069554 0 0,0 0.007949984129667367,-0.6157350320326209 l 14.769008183242047 0.3178449995950941" fill="#ffb811" stroke="none" /><path d="M 79.00486145842228 99.54816195383935 l -31.061455709600427 -0.6684760584426565 a52.06864804010918,52.06864804010918 0 0,0 0.02699711186391365,-0.8959027104815478 l 31.04534690328087 1.2030489163491986" fill="#84ff25" stroke="none" /><path d="M 79.01574976396665 99.18683210126434 l -31.085258303658467 -1.2045955367533396 a52.10858939605481,52.10858939605481 0 0,0 0.04244714021946017,-0.8959920419265445 l 31.05991755520551 1.7394986853028933" fill="#84ff25" stroke="none" /><path d="M 79.05617556472873 98.46500227214037 l -30.95961684839262 -2.269067030453837 a52.04265679010044,52.04265679010044 0 0,0 0.07317077643487956,-0.8928688072859667 l 30.91597158813824 2.801649754947582" fill="#84ff25" stroke="none" /><path d="M 79.08570108090925 98.10471618934814 l -30.90719695097983 -2.8008545847238504 a52.033846196877136,52.033846196877136 0 0,0 0.08851421656958501,-0.8913260813609012 l 30.854405608728015 3.332456196789182" fill="#84ff25" stroke="none" /><path d="M 79.12142395522702 97.74499172005258 l -30.84637592997113 -3.3315889445377227 a52.02576981975577,52.02576981975577 0 0,0 0.10382769751726201,-0.889532305821559 l 30.78445787945028 3.862064988684143" fill="#84ff25" stroke="none" /><path d="M 79.16333360222342 97.38593545837743 l -30.789557418110288 -3.862704751443468 a52.03090933246936,52.03090933246936 0 0,0 0.11913591873162942,-0.8877009742628814 l 30.718505500320827 4.392124067771008" fill="#84ff25" stroke="none" /><path d="M 79.26566170972629 96.67025291283419 l -30.67633724619567 -4.926342146079053 a52.06938225621112,52.06938225621112 0 0,0 0.14973205077354854,-0.8837270395109191 l 30.586993333901898 5.4536549739058" fill="#84ff25" stroke="none" /><path d="M 79.32604984820605 96.31383870115002 l -30.573982636394305 -5.451335169065826 a52.05616636637617,52.05616636637617 0 0,0 0.1648799153279676,-0.8807951006299496 l 30.475616997156475 5.9768083471583475" fill="#84ff25" stroke="none" /><path d="M 79.3925641242962 95.95851677861259 l -30.463945042771574 -5.9745192701430465 a52.0442720655247,52.0442720655247 0 0,0 0.17997579433285635,-0.8776258902693951 l 30.356589952523723 6.498020816575844" fill="#84ff25" stroke="none" /><path d="M 79.46518482838121 95.60439243477599 l -30.38114391084133 -6.503276747249436 a52.06938225621112,52.06938225621112 0 0,0 0.19515012613811064,-0.874819750382823 l 30.264699397701182 7.025274667182218" fill="#84ff25" stroke="none" /><path d="M 79.62865764111835 94.90015583598534 l -14.300855266969581 -3.580133895392295 a35.74217826766955,35.74217826766955 0 0,0 0.1545486139833228,-0.5955388540251093 l 14.237110321115951 3.825769174966268" fill="#ffb811" stroke="none" /><path d="M 79.71946130924805 94.55025226153421 l -19.681145105239708 -5.288679835541402 a41.37934265515851,41.37934265515851 0 0,0 0.1907651330612874,-0.6862836818450528 l 19.58719320161206 5.626674820805398" fill="#ffff18" stroke="none" /><path d="M 79.81627453868168 94.20196356495316 l -8.548006192752974 -2.4555254404134494 a29.893706486041737,29.893706486041737 0 0,0 0.14632841620183845,-0.4933466756803068 l 8.504471879439429 2.6023015028402954" fill="#ff6a09" stroke="none" /><path d="M 79.91906864156998 93.8553929516997 l -19.70073000741523 -6.028268425378912 a41.60239750692844,41.60239750692844 0 0,0 0.2154301233797055,-0.6829723627036062 l 19.59404440026732 6.366490954508933" fill="#fcff18" stroke="none" /><path d="M 80.02781315780177 93.51064311812611 l -11.271093408276249 -3.662200246429829 a32.851128944663415,32.851128944663415 0 0,0 0.17937139749750314,-0.5362976476951261 l 11.206384717006973 3.855670997047277" fill="#ff920d" stroke="none" /><path d="M 80.14247586403 93.16781622104843 l -15.323001668721908 -5.272035059811639 a37.20458989951728,37.20458989951728 0 0,0 0.21356660438672787,-0.6037815497895248 l 15.22998198352537 5.5350142360277745" fill="#ffcb12" stroke="none" /><path d="M 80.2630227832202 92.82701384747504 l -29.1808734754165 -10.605170136174282 a52.04823683247519,52.04823683247519 0 0,0 0.31326944343835456,-0.839406360646504 l 28.99399944347652 11.105899633850127" fill="#84ff25" stroke="none" /><path d="M 80.38941819471856 92.48833698450439 l -13.793671922829873 -5.283546212927592 a35.77095953886567,35.77095953886567 0 0,0 0.22519769418852809,-0.5731035682230827 l 13.700680678759655 5.520198786046438" fill="#ffb811" stroke="none" /><path d="M 80.52162464483688 92.15188598940014 l -15.046913185259905 -6.062614978523652 a37.22235792918427,37.22235792918427 0 0,0 0.2445656265327111,-0.5922350634204423 l 14.940325871840995 6.320724612397406" fill="#ffcb12" stroke="none" /><path d="M 80.65960295795068 91.81776055985345 l -17.61236597698641 -7.4511704810339 a40.123686277617594,40.123686277617594 0 0,0 0.27457840349768553,-0.6337648124106993 l 17.481496863646043 7.753234438031199" fill="#ffef16" stroke="none" /><path d="M 80.803312248108 91.48605970444005 l -13.460666675568966 -5.969952415511489 a35.725144454104495,35.725144454104495 0 0,0 0.25415494321870374,-0.5599967278680451 l 13.35590941538691 6.200771152221606" fill="#ffb811" stroke="none" /><path d="M 80.95270993114464 91.15688171328213 l -10.691600075896698 -4.9638076494688494 a32.78769267345564,32.78769267345564 0 0,0 0.24206967104067298,-0.5098604626744901 l 10.604572211014274 5.147110527783871" fill="#ff910d" stroke="none" /><path d="M 81.26839172434947 90.50648371742162 l -56.19482482695157 -28.480548847735136 a84.0,84.0 0 0,0 0.6647622673595439,-1.284109110958658 l 55.69625312643191 29.44363068095413" fill="#4dd2ff" stroke="none" /><path d="M 81.6062741919709 89.86733742301443 l -2.6098032326769434 -1.4376780335334973 a23.979595784900322,23.979595784900322 0 0,0 0.20227629324720622,-0.35982695509144874 l 2.5846692981373063 1.4823884985597306" fill="#ff1602" stroke="none" /><line stroke="#e1ed5e" stroke-width="0.3" x1="26.266209847984243" x2="21.928928074336255" y1="57.711370442889674" y2="55.22380399835377" /><path d="M 25.398753493254645 57.213857153982495 a86.0,86.0 0 0,1 29.58750427330803,-30.492523968695096" fill="none" id="id23" stroke="none" /><text fill="#e1ed5e" style="font-size:6.75px; font-family:Arial;" text-anchor="middle"><textPath startOffset="21.46611528233685" xlink:href="#id23">November</textPath></text><path d="M 81.78341655067845 89.55222093294921 l -12.840676815732552 -7.36452885445824 a35.80267767446956,35.80267767446956 0 0,0 0.31121106845389057,-0.5319605965377233 l 12.712006072808336 7.584468863349855" fill="#ffb911" stroke="none" /><path d="M 81.96595687620814 89.24020034530311 l -12.68716365076656 -7.569646924516056 a35.77374956005305,35.77374956005305 0 0,0 0.3200629703999698,-0.5260993684458868 l 12.554984882080374 7.786914066169017" fill="#ffb811" stroke="none" /><path d="M 82.15384107792192 88.93136811851018 l -12.574826472755667 -7.799220314482 a35.7970976320948,35.7970976320948 0 0,0 0.3292862570004624,-0.5208517803090691 l 12.438712619509243 8.014519742505284" fill="#ffb911" stroke="none" /><path d="M 82.34701348167596 88.62581576622439 l -12.39131199980962 -7.983978543105454 a35.740709835465665,35.740709835465665 0 0,0 0.33767033743107905,-0.5142950901377835 l 12.252045027020621 8.196091697220906" fill="#ffb811" stroke="none" /><path d="M 82.54541684631803 88.32363383020206 l -33.019642149347554 -22.08872186387023 a60.72667115742758,60.72667115742758 0 0,0 0.5886887870967625,-0.8638281546835331 l 32.634528896582054 22.65382804182418" fill="#30ff34" stroke="none" /><path d="M 82.7489923806493 88.02491185347247 l -12.134600072269597 -8.423444513773681 a35.771693754967615,35.771693754967615 0 0,0 0.35548100261438864,-0.5028026683196848 l 11.98780644985133 8.631073682425152" fill="#ffb811" stroke="none" /><path d="M 82.95767976084542 87.72973835380427 l -16.25501032038442 -11.70340815650716 a41.0298557906342,41.0298557906342 0 0,0 0.41760067550631075,-0.5696068520815344 l 16.05114703236448 11.981477452260197" fill="#fffb17" stroke="none" /><path d="M 83.17141714833178 87.43820079747576 l -24.87472978294756 -18.567895080925442 a52.04060098501499,52.04060098501499 0 0,0 0.5420253105057009,-0.7132417731327695 l 24.551428532217752 18.99332162993924" fill="#84ff25" stroke="none" /><path d="M 83.39014120810768 87.1503855733568 l -11.817986791983492 -9.14255656708381 a35.941591360956956,35.941591360956956 0 0,0 0.38277096403985744,-0.48608025333062893 l 11.658861747349663 9.344629214367487" fill="#ffba11" stroke="none" /><line stroke="#e1ed5e" stroke-width="0.3" x1="56.762969772571076" x2="54.21961505331055" y1="26.818313649435495" y2="22.513508569990535" /><path d="M 56.25429882871897 25.957352633546506 a86.0,86.0 0 0,1 42.265352541879196,-11.944610805530505" fill="none" id="id24" stroke="none" /><text fill="#e1ed5e" style="font-size:6.75px; font-family:Arial;" text-anchor="middle"><textPath startOffset="22.20632615414155" xlink:href="#id24">December</textPath></text></svg>