<?xml version="1.0" encoding="utf-8" ?>
<svg baseProfile="full" height="200mm" version="1.1" viewBox="0,0,200,200" width="200mm" xmlns="http://www.w3.org/2000/svg" xmlns:ev="http://www.w3.org/2001/xml-events" xmlns:xlink="http://www.w3.org/1999/xlink"><defs /><rect fill="#1a1a1a" height="200" width="200" x="0" y="0" /><text alignment-baseline="middle" fill="#e1ed5e" style="dominant-baseline: central; font-size:9.0px; font-family:Arial;" text-anchor="middle" x="100.0" y="100.0">2020</text><line stroke="#e1ed5e" stroke-width="0.3" x1="100.0" x2="100.0" y1="15.0" y2="10.0" /><path d="M 100.0 14.0 a86.0,86.0 0 0,1 42.35913384403234,11.155469271406648" fill="none" id="id49" stroke="none" /><text fill="#e1ed5e" style="font-size:6.75px; font-family:Arial;" text-anchor="middle"><textPath startOffset="22.145653131862478" xlink:href="#id49">January</textPath></text><line stroke="#e1ed5e" stroke-width="0.3" x1="143.13028292997686" x2="145.6673583964461" y1="26.7553504044142" y2="22.446841604673864" /><path d="M 143.63769802327073 25.89364864446614 a86.0,86.0 0 0,1 29.32050498858742,28.57503671076993" fill="none" id="id50" stroke="none" /><text fill="#e1ed5e" style="font-size:6.75px; font-family:Arial;" text-anchor="middle"><textPath startOffset="20.669276256404974" xlink:href="#id50">February</textPath></text><line stroke="#e1ed5e" stroke-width="0.3" x1="172.87174338648825" x2="177.1583165268699" y1="56.24261187166439" y2="53.66864786411523" /><path d="M 173.72905801456457 55.72781907015455 a86.0,86.0 0 0,1 12.242430191666344,42.057860355516425" fill="none" id="id51" stroke="none" /><text fill="#e1ed5e" style="font-size:6.75px; font-family:Arial;" text-anchor="middle"><textPath startOffset="22.145653131862474" xlink:href="#id51">March</textPath></text><path d="M 120.93736805541906 98.37931529534042 l 23.94858907877899 -1.853772256160382 a45.02022877580316,45.02022877580316 0 0,0 0.05302962511218459,0.7710391107282799 l -23.97688266505624 1.4423897212777679" fill="#ffa70f" stroke="none" /><line stroke="#e1ed5e" stroke-width="0.3" x1="184.99686870605535" x2="189.99668451229388" y1="99.2704041080226" y2="99.22748670261217" /><path d="M 185.99683186730306 99.26182062694052 a86.0,86.0 0 0,1 -10.086455211305974,41.156179273409016" fill="none" id="id52" stroke="none" /><text fill="#e1ed5e" style="font-size:6.75px; font-family:Arial;" text-anchor="middle"><textPath startOffset="21.40746469413373" xlink:href="#id52">April</textPath></text><path d="M 120.9064616781168 101.97986365728391 l 45.81566067112417 4.338790699918257 a67.02064610008524,67.02064610008524 0 0,0 -0.11829976215538655,1.144442885960317 l -45.73442851648712 -5.124638108161506" fill="#32ff49" stroke="none" /><path d="M 120.86939407059847 102.33845913500097 l 49.9340305078247 5.595212270822379 a71.24653025943114,71.24653025943114 0 0,0 -0.14662506662144562,1.2142658893865765 l -49.83062335494359 -6.451571837132365" fill="#39ff87" stroke="none" /><path d="M 120.82617615685814 102.69636545807757 l 62.478528470574396 8.089096374232717 a84.0,84.0 0 0,0 -0.19742193377915918,1.42844676719966 l -62.33046202024003 -9.160431449632462" fill="#4dd2ff" stroke="none" /><path d="M 120.51834098615036 104.47187691870673 l 58.38444017398628 12.724616995199279 a80.75498918169342,80.75498918169342 0 0,0 -0.30682719103464173,1.3519372171147395 l -58.15740212139397 -13.724988546253035" fill="#48f9ff" stroke="none" /><path d="M 120.43855184770803 104.8234425847677 l 60.794753932479814 14.347396392532625 a83.46478919323452,83.46478919323452 0 0,0 -0.3410628575936854,1.391652846967805 l -60.53950354836984 -15.38890506410853" fill="#4cd8ff" stroke="none" /><path d="M 119.71291397450082 107.23885506374661 l 58.88021901742497 21.621631999212788 a83.72459774163016,83.72459774163016 0 0,0 -0.5070095163197208,1.3449029783922068 l -58.50037881729081 -22.629203257799155" fill="#4dd5ff" stroke="none" /><line stroke="#e1ed5e" stroke-width="0.3" x1="174.33088141563837" x2="178.70328620479359" y1="141.23008692659167" y2="143.65538615756765" /><path d="M 175.20536237346943 141.71514677278685 a86.0,86.0 0 0,1 -30.301960400862466,31.631185727798858" fill="none" id="id53" stroke="none" /><text fill="#e1ed5e" style="font-size:6.75px; font-family:Arial;" text-anchor="middle"><textPath startOffset="22.145653131862474" xlink:href="#id53">May</textPath></text><line stroke="#e1ed5e" stroke-width="0.3" x1="143.1302829299769" x2="145.66735839644613" y1="173.24464959558577" y2="177.55315839532614" /><path d="M 143.63769802327073 174.10635135553383 a86.0,86.0 0 0,1 -40.68552437913181,11.842963189579606" fill="none" id="id54" stroke="none" /><text fill="#e1ed5e" style="font-size:6.75px; font-family:Arial;" text-anchor="middle"><textPath startOffset="21.407464694133747" xlink:href="#id54">June</textPath></text><path d="M 106.0420521117495 120.11202640906438 l 4.205839382118454 13.999871427947115 a35.617984981085065,35.617984981085065 0 0,0 -0.5870861371592809,0.17089221824202475 l -3.964893232577566 -14.070007340491658" fill="#ff0000" stroke="none" /><path d="M 105.69591212413111 120.21278271476187 l 10.316230334751483 36.608662080364475 a59.03444159750426,59.03444159750426 0 0,0 -0.9777750844307853,0.2664969472342814 l -9.686273849386001 -36.7803595217429" fill="#82ff25" stroke="none" /><path d="M 104.64783097203109 120.47920084513623 l 10.377520601105816 45.725270549525426 a67.88809337831592,67.88809337831592 0 0,0 -1.1387018072339259,0.2481747589873931 l -9.591056377252755 -45.896676766646536" fill="#33ff56" stroke="none" /><path d="M 102.875027216393 120.80226474461374 l 6.258413583516739 45.28276306508755 a66.71319690626771,66.71319690626771 0 0,0 -1.135783212693258,0.1470498760552333 l -5.480152548932706 -45.38352453734318" fill="#31ff44" stroke="none" /><path d="M 102.51750503828377 120.84855314841334 l 4.534049118385823 37.54843092056944 a58.82118805649434,58.82118805649434 0 0,0 -1.0035009478966561,0.11244437431449593 l -3.888812268888368 -37.620731055390905" fill="#85ff25" stroke="none" /><line stroke="#e1ed5e" stroke-width="0.3" x1="101.45913802915013" x2="101.54496967792366" y1="184.9874750549273" y2="189.98673829345242" /><path d="M 101.47630435890484 185.9873277026323 a86.0,86.0 0 0,1 -42.54439059252881,-10.42667462771756" fill="none" id="id55" stroke="none" /><text fill="#e1ed5e" style="font-size:6.75px; font-family:Arial;" text-anchor="middle"><textPath startOffset="22.145653131862474" xlink:href="#id55">July</textPath></text><line stroke="#e1ed5e" stroke-width="0.3" x1="58.13341422392154" x2="55.67067388415222" y1="173.97424548756322" y2="178.32567169271397" /><path d="M 57.64086615596768 174.84453072859336 a86.0,86.0 0 0,1 -31.369924170532247,-30.572349798747897" fill="none" id="id56" stroke="none" /><text fill="#e1ed5e" style="font-size:6.75px; font-family:Arial;" text-anchor="middle"><textPath startOffset="22.145653131862474" xlink:href="#id56">August</textPath></text><line stroke="#e1ed5e" stroke-width="0.3" x1="26.387840678322732" x2="22.057713659400548" y1="142.50000000000003" y2="145.00000000000006" /><path d="M 25.521815274538298 143.00000000000003 a86.0,86.0 0 0,1 -11.493303480769221,-40.785679425670985" fill="none" id="id57" stroke="none" /><text fill="#e1ed5e" style="font-size:6.75px; font-family:Arial;" text-anchor="middle"><textPath startOffset="21.40746469413373" xlink:href="#id57">September</textPath></text><line stroke="#e1ed5e" stroke-width="0.3" x1="15.003131293944662" x2="10.003315487706104" y1="100.72959589197737" y2="100.7725132973878" /><path d="M 14.003168132696942 100.73817937305945 a86.0,86.0 0 0,1 10.791469493833604,-42.45332614584628" fill="none" id="id58" stroke="none" /><text fill="#e1ed5e" style="font-size:6.75px; font-family:Arial;" text-anchor="middle"><textPath startOffset="22.145653131862435" xlink:href="#id58">October</textPath></text><line stroke="#e1ed5e" stroke-width="0.3" x1="26.387840678322718" x2="22.05771365940052" y1="57.49999999999999" y2="54.99999999999999" /><path d="M 25.521815274538284 56.99999999999999 a86.0,86.0 0 0,1 29.574782752854787,-30.34633250058573" fill="none" id="id59" stroke="none" /><text fill="#e1ed5e" style="font-size:6.75px; font-family:Arial;" text-anchor="middle"><textPath startOffset="21.40746469413373" xlink:href="#id59">November</textPath></text><line stroke="#e1ed5e" stroke-width="0.3" x1="56.869717070023135" x2="54.33264160355391" y1="26.7553504044142" y2="22.446841604673864" /><path d="M 56.362301976729285 25.89364864446614 a86.0,86.0 0 0,1 42.16139366436587,-11.88097634709845" fill="none" id="id60" stroke="none" /><text fill="#e1ed5e" style="font-size:6.75px; font-family:Arial;" text-anchor="middle"><textPath startOffset="22.145653131862474" xlink:href="#id60">December</textPath></text></svg>