<?xml version="1.0" encoding="utf-8" ?>
<svg baseProfile="full" height="200mm" version="1.1" viewBox="0,0,200,200" width="200mm" xmlns="http://www.w3.org/2000/svg" xmlns:ev="http://www.w3.org/2001/xml-events" xmlns:xlink="http://www.w3.org/1999/xlink"><defs /><rect fill="#1a1a1a" height="200" width="200" x="0" y="0" /><text alignment-baseline="middle" fill="#e1ed5e" style="dominant-baseline: central; font-size:9.0px; font-family:Arial;" text-anchor="middle" x="100.0" y="100.0">2021</text><line stroke="#e1ed5e" stroke-width="0.3" x1="100.0" x2="100.0" y1="15.0" y2="10.0" /><path d="M 100.0 14.0 a86.0,86.0 0 0,1 42.46469731375804,11.215312516191453" fill="none" id="id1" stroke="none" /><text fill="#e1ed5e" style="font-size:6.75px; font-family:Arial;" text-anchor="middle"><textPath startOffset="22.20632615414155" xlink:href="#id1">January</textPath></text><line stroke="#e1ed5e" stroke-width="0.3" x1="143.23703022742887" x2="145.7803849466894" y1="26.81831364943548" y2="22.513508569990506" /><path d="M 143.74570117128098 25.957352633546492 a86.0,86.0 0 0,1 28.547481713284135,27.462654790039103" fill="none" id="id2" stroke="none" /><text fill="#e1ed5e" style="font-size:6.75px; font-family:Arial;" text-anchor="middle"><textPath startOffset="19.985693538727396" xlink:href="#id2">February</textPath></text><line stroke="#e1ed5e" stroke-width="0.3" x1="172.23445277983987" x2="176.4835382374775" y1="55.19839476539836" y2="52.563006222186495" /><path d="M 173.08426987136738 54.67131705675599 a86.0,86.0 0 0,1 12.851231095245387,41.99856678651699" fill="none" id="id3" stroke="none" /><text fill="#e1ed5e" style="font-size:6.75px; font-family:Arial;" text-anchor="middle"><textPath startOffset="22.20632615414155" xlink:href="#id3">March</textPath></text><line stroke="#e1ed5e" stroke-width="0.3" x1="184.98032266829074" x2="189.97916517819016" y1="98.17113171792111" y2="98.06355123074" /><path d="M 185.9800911702706 98.14961562048488 a86.0,86.0 0 0,1 -9.607161424134198,41.387399972396054" fill="none" id="id4" stroke="none" /><text fill="#e1ed5e" style="font-size:6.75px; font-family:Arial;" text-anchor="middle"><textPath startOffset="21.466115282336823" xlink:href="#id4">April</textPath></text><line stroke="#e1ed5e" stroke-width="0.3" x1="174.80103733775053" x2="179.2010983576182" y1="140.37084112569926" y2="142.7455964860345" /><path d="M 175.68104954172406 140.8457921977663 a86.0,86.0 0 0,1 -30.038265399797805,32.042727171017184" fill="none" id="id5" stroke="none" /><text fill="#e1ed5e" style="font-size:6.75px; font-family:Arial;" text-anchor="middle"><textPath startOffset="22.206326154141568" xlink:href="#id5">May</textPath></text><path d="M 112.04921762599082 117.19931262002967 l 16.812861803708127 23.99904086515769 a50.30232558139535,50.30232558139535 0 0,0 -0.7134381600893727,0.49070927198593733 l -16.39726675899587 -24.28489092650872" fill="red" stroke="none" /><path d="M 111.1453310114006 117.79835938074945 l 17.01347738577524 27.169402552381257 a53.05674418604651,53.05674418604651 0 0,0 -0.7782181330082321,0.47804513869220927 l -16.5432800528347 -27.458236157901844" fill="red" stroke="none" /><line stroke="#e1ed5e" stroke-width="0.3" x1="143.8653032363475" x2="146.44561519142675" y1="172.8068346515853" y2="177.08958963109032" /><path d="M 144.38136562736335 173.6633856474863 a86.0,86.0 0 0,1 -40.68145358897372,12.25698825130547" fill="none" id="id6" stroke="none" /><text fill="#e1ed5e" style="font-size:6.75px; font-family:Arial;" text-anchor="middle"><textPath startOffset="21.466115282336833" xlink:href="#id6">June</textPath></text><path d="M 110.5260780823613 118.17145234162733 l 15.686304267853755 27.07968990817393 a52.29488372093023,52.29488372093023 0 0,0 -0.7828076753041395,0.4444986280630508 l -15.217847825628418 -27.34569170203161" fill="red" stroke="none" /><path d="M 110.21172684928248 118.3499491758327 l 14.248921185045337 25.60458024534795 a50.30232558139535,50.30232558139535 0 0,0 -0.7602290785471904,0.4145375085754335 l -13.806069294629499 -25.846058405683156" fill="red" stroke="none" /><path d="M 107.2578585660854 119.70592522655815 l 10.410807357119714 28.266545766839684 a51.12279069767442,51.12279069767442 0 0,0 -0.8283850324018456,0.29702940009155754 l -9.922702764088132 -28.4415627079712" fill="red" stroke="none" /><path d="M 106.91757812671514 119.82793768551818 l 19.401393536787108 55.61044848543008 a79.89767441860465,79.89767441860465 0 0,0 -1.3024472486388294,0.44186082194109466 l -18.441276555211054 -55.93617229426929" fill="red" stroke="none" /><path d="M 106.2309692047433 120.05430185196036 l 9.024761908637512 29.04609114744397 a51.41581395348837,51.41581395348837 0 0,0 -0.8474428532774632,0.25532758001277234 l -8.523444080919804 -29.19713409656247" fill="red" stroke="none" /><path d="M 105.88484417918355 120.15858648285463 l 9.870115400063204 33.81016877077852 a56.22139534883721,56.22139534883721 0 0,0 -0.9313176727394834,0.2631996769969695 l -9.286666559219116 -33.975057241114" fill="red" stroke="none" /><path d="M 105.53697534728816 120.25689768951611 l 7.756916160945083 28.378500391080244 a50.41953488372093,50.41953488372093 0 0,0 -0.8391480624218838,0.2216266301836742 l -7.267277655711702 -28.507818370567502" fill="red" stroke="none" /><path d="M 105.18746579009965 120.34920634021253 l 7.4409974403103885 29.18928016428625 a51.12279069767442,51.12279069767442 0 0,0 -0.854594654722806,0.21003857394621733 l -6.937449500844371 -29.313039996546497" fill="red" stroke="none" /><path d="M 104.83641907484287 120.43548508189849 l 6.95094648430905 29.37006925724017 a51.18139534883721,51.18139534883721 0 0,0 -0.8590671707820479,0.19552089118741103 l -6.4443591641341404 -29.485366882005266" fill="red" stroke="none" /><path d="M 104.48393922423573 120.51570834832081 l 6.694625539440319 30.63042967353945 a52.353488372093025,52.353488372093025 0 0,0 -0.8820529147621088,0.18484276432825084 l -6.166381163248833 -30.74112841859424" fill="red" stroke="none" /><path d="M 104.13013068566511 120.58985236759428 l 4.933104930599066 24.59290273487539 a46.08279069767442,46.08279069767442 0 0,0 -0.7790896718375343,0.1493143898567104 l -4.5090476441898275 -24.67417432308057" fill="red" stroke="none" /><path d="M 102.34483914955558 120.86867818915974 l 1.963121148465143 17.471451507203497 a38.581395348837205,38.581395348837205 0 0,0 -0.6606005783292416,0.0684739509766299 l -1.662087973530299 -17.502654826635887" fill="red" stroke="none" /><path d="M 101.98527174616119 120.90594882070398 l 2.7756869157955997 29.229433560481937 a50.36093023255814,50.36093023255814 0 0,0 -0.8637035803370284,0.07452397918660998 l -2.2721390177170298 -29.27288179194721" fill="red" stroke="none" /><path d="M 101.26447882468166 120.96189622390904 l 1.0586334346172057 17.549494513040116 a38.581395348837205,38.581395348837205 0 0,0 -0.6632544789612816,0.03428268059967559 l -0.7563908872424446 -17.565117000401994" fill="red" stroke="none" /><path d="M 100.90346689309514 120.98055641714683 l 1.5127817744848895 35.130234000803995 a56.16279069767442,56.16279069767442 0 0,0 -0.9662130129631392,0.03327832979067941 l -0.907848409847098 -35.15106912902077" fill="red" stroke="none" /><line stroke="#e1ed5e" stroke-width="0.3" x1="102.19456741930631" x2="102.32365962044197" y1="184.97166512339345" y2="189.96999836594603" /><path d="M 102.22038585953345 185.97133177190398 a86.0,86.0 0 0,1 -42.740103519485714,-10.115201625700543" fill="none" id="id7" stroke="none" /><text fill="#e1ed5e" style="font-size:6.75px; font-family:Arial;" text-anchor="middle"><textPath startOffset="22.20632615414155" xlink:href="#id7">July</textPath></text><path d="M 99.45781275523022 120.99299961872073 l -0.9759370405856043 37.78739931369732 a58.8,58.8 0 0,0 -1.0115830153109995,-0.0348409644069374 l 1.6262404075712469 -37.76500155086429" fill="red" stroke="none" /><path d="M 99.09653310690486 120.98055641714683 l -1.5153030774423557 35.18878439080534 a56.22139534883721,56.22139534883721 0 0,0 -0.9665045014939339,-0.049957242919426 l 2.1207956473497784 -35.15748734112371" fill="red" stroke="none" /><path d="M 98.73552117531835 120.96189622390904 l -1.8208495075415732 30.185130562429002 a51.239999999999995,51.239999999999995 0 0,0 -0.8799548636994106,-0.0606868393802642 l 2.3401671320199138 -30.14931537853245" fill="red" stroke="none" /><path d="M 97.65516085044442 120.86867818915974 l -3.926242296930279 34.94290301440701 a56.16279069767442,56.16279069767442 0 0,0 -0.9597754964904703,-0.11621544643220724 l 4.527145216472138 -34.87014203924945" fill="red" stroke="none" /><path d="M 96.93821686468263 120.77559828337769 l -4.340611626254568 29.45303421755126 a50.77116279069767,50.77116279069767 0 0,0 -0.8635065957967106,-0.13486197135336941 l 4.846954085659796 -29.373953938850786" fill="red" stroke="none" /><path d="M 96.58105272829116 120.7198165907248 l -5.734290168270744 34.75146912844355 a56.22139534883721,56.22139534883721 0 0,0 -0.9534908466078514,-0.16577660559678534 l 6.331629986350645 -34.64761394432576" fill="red" stroke="none" /><path d="M 96.22490169976321 120.6578951692458 l -5.278114181633399 28.882619943606 a50.36093023255814,50.36093023255814 0 0,0 -0.8514171996596932,-0.16317613270478992 l 5.774498995864787 -28.78748661255274" fill="red" stroke="none" /><path d="M 95.86986931433489 120.58985236759428 l -7.007775228514553 34.93571229627159 a56.631627906976746,56.631627906976746 0 0,0 -0.9541311193639143,-0.19994745290582058 l 7.6080978093078535 -34.809908862639226" fill="red" stroke="none" /><path d="M 95.51606077576429 120.51570834832081 l -9.147236017440857 41.852045030574466 a63.84,63.84 0 0,0 -1.0715387458456975,-0.2438787299238323 l 9.866294912679418 -41.688389567072946" fill="red" stroke="none" /><path d="M 94.81253420990036 120.34920634021253 l -10.481093670787367 41.114861554364296 a63.42976744186046,63.42976744186046 0 0,0 -1.0556814252940412,-0.2788150593593213 l 11.187265538892897 -40.928355145701396" fill="red" stroke="none" /><path d="M 94.46302465271185 120.25689768951611 l -7.7569161609450745 28.378500391080248 a50.41953488372093,50.41953488372093 0 0,0 -0.8352087954623176,-0.2360383482728152 l 8.244256124512006 -28.240773249468912" fill="red" stroke="none" /><path d="M 93.08242187328487 119.8279376855182 l -2.220059956945784 6.36338465256165 a27.73953488372093,27.73953488372093 0 0,0 -0.44948671991236105,-0.161169945789079 l 2.3292662374878716 -6.324227165732613" fill="red" stroke="none" /><path d="M 92.7421414339146 119.70592522655815 l -10.451316335162973 28.37653232624373 a51.239999999999995,51.239999999999995 0 0,0 -0.8250366613449095,-0.31195826973981494 l 10.938223217268165 -28.19242580639728" fill="red" stroke="none" /><path d="M 92.06813273071674 119.44442032107085 l -11.11199265817729 27.240276282355996 a50.41953488372093,50.41953488372093 0 0,0 -0.8007787563135347,-0.3347255850841388 l 11.579242873988285 -27.044965654251882" fill="red" stroke="none" /><path d="M 91.7346041902142 119.30500536409082 l -10.887256248052733 25.42873264702568 a48.66139534883721,48.66139534883721 0 0,0 -0.7671800924907548,-0.336309207203274 l 11.32335701520123 -25.237558886527953" fill="red" stroke="none" /><path d="M 91.40352486487194 119.15986991738527 l -11.27537668886563 25.13062007768673 a48.544186046511626,48.544186046511626 0 0,0 -0.759443749319035,-0.34862337694867457 l 11.706288433952086 -24.93280963040398" fill="red" stroke="none" /><path d="M 90.42595943632237 118.69057910512821 l -10.420118566979374 20.342304700465125 a43.85581395348837,43.85581395348837 0 0,0 -0.6689245803051325,-0.34994972508754496 l 10.768734049811002 -20.159925556432864" fill="red" stroke="none" /><line stroke="#e1ed5e" stroke-width="0.3" x1="58.666819895761336" x2="56.23545636021788" y1="174.27360380694188" y2="178.64263932499728" /><path d="M 58.180547188652646 175.14741091055294 a86.0,86.0 0 0,1 -31.652253787137756,-30.449443065178592" fill="none" id="id8" stroke="none" /><text fill="#e1ed5e" style="font-size:6.75px; font-family:Arial;" text-anchor="middle"><textPath startOffset="22.20632615414155" xlink:href="#id8">August</textPath></text><path d="M 89.4739219176387 118.17145234162733 l -14.716925914222339 25.406225925084534 a50.36093023255814,50.36093023255814 0 0,0 -0.746378073012866,-0.4409733215132221 l 15.152071858263588 -25.149134031277562" fill="red" stroke="none" /><path d="M 89.1626897886671 117.98757091392108 l -3.326802204409172 5.521765954971124 a27.44651162790698,27.44651162790698 0 0,0 -0.4025760224140524,-0.24729507358709651 l 3.421357426755533 -5.463682414555649" fill="red" stroke="none" /><path d="M 88.54995079064634 117.60387380957326 l -20.80181033103974 31.981735395438676 a59.15162790697674,59.15162790697674 0 0,0 -0.8487562904329262,-0.5625093880330119 l 21.349241320212627 -31.618927986314343" fill="red" stroke="none" /><path d="M 87.95078237400918 117.19931262002967 l -20.209059888057165 28.84684711991955 a56.22139534883721,56.22139534883721 0 0,0 -0.787829535303166,-0.5620954552672902 l 20.702616751209217 -28.49470740280804" fill="red" stroke="none" /><path d="M 87.65650970185807 116.9893568818739 l -24.147311718132546 33.235923276819356 a62.08186046511628,62.08186046511628 0 0,0 -0.8591391293114443,-0.6355705887488571 l 24.715835817862555 -32.81534273933073" fill="red" stroke="none" /><path d="M 87.36589467227662 116.77436683061367 l -30.216078881466768 40.11804383396068 a71.22418604651162,71.22418604651162 0 0,0 -0.9729606101513928,-0.746024706695275 l 30.902168220111648 -39.591979785438035" fill="red" stroke="none" /><path d="M 84.67929136418377 114.36230785411682 l -42.79822142637782 40.12093998689566 a79.6632558139535,79.6632558139535 0 0,0 -0.9292286029706208,-1.008494123646622 l 43.482496437344174 -39.37829460844769" fill="red" stroke="none" /><path d="M 83.95833913139862 113.55231037782056 l -23.861037887342903 20.158273761986123 a52.23627906976744,52.23627906976744 0 0,0 -0.5743602756136592,-0.6918539520723745 l 24.204494162850096 -19.744558552799987" fill="red" stroke="none" /><path d="M 82.44556493220864 111.52570212397912 l -52.6633052033741 34.57710637193735 a84.0,84.0 0 0,0 -0.7831805464918173,-1.2155136003142069 l 53.25069061324296 -33.6654711717017" fill="red" stroke="none" /><path d="M 82.05923443525364 110.91462005526583 l -25.08369362215236 15.260161807501898 a50.36093023255814,50.36093023255814 0 0,0 -0.4441813046046123,-0.7444734157782377 l 25.342655802455205 -14.82612629783755" fill="red" stroke="none" /><line stroke="#e1ed5e" stroke-width="0.3" x1="26.63291911575756" x2="22.317208475507996" y1="142.92168965132927" y2="145.44649492493687" /><path d="M 25.769776987707644 143.4266507060508 a86.0,86.0 0 0,1 -11.730757126820373,-40.83630448921669" fill="none" id="id9" stroke="none" /><text fill="#e1ed5e" style="font-size:6.75px; font-family:Arial;" text-anchor="middle"><textPath startOffset="21.46611528233685" xlink:href="#id9">September</textPath></text><path d="M 81.18737489456691 109.33194174019688 l -14.910099153329295 7.396106383858367 a37.64372093023256,37.64372093023256 0 0,0 -0.2829494646543596,-0.5829597040510663 l 15.035201874598373 -7.138357723842016" fill="red" stroke="none" /><path d="M 80.58989483394504 108.01547362559985 l -15.27530136789069 6.307991336983695 a37.52651162790698,37.52651162790698 0 0,0 -0.24141588652237958,-0.5991744319757869 l 15.381619868670457 -6.044117537165102" fill="red" stroke="none" /><path d="M 80.32549172779594 107.34259656027581 l -44.47353962926125 16.597683387414154 a68.46976744186045,68.46976744186045 0 0,0 -0.402588339699245,-1.1077502060405202 l 44.752652229965726 -15.829685384367517" fill="red" stroke="none" /><path d="M 79.50377843672027 104.57218783832718 l -28.599378925506606 6.379796983712341 a50.30232558139535,50.30232558139535 0 0,0 -0.18124637235773494,-0.8467227116310496 l 28.704959336588782 -5.886560452665127" fill="red" stroke="none" /><path d="M 79.35854240842038 103.8639653848113 l -29.78130299957209 5.5748933133416925 a51.29860465116279,51.29860465116279 0 0,0 -0.15500376038817715,-0.8693434051856567 l 29.872853202299456 -5.061431157422822" fill="red" stroke="none" /><line stroke="#e1ed5e" stroke-width="0.3" x1="15.007084014347285" x2="10.007500721073583" y1="101.09737516637583" y2="101.16192664675087" /><path d="M 14.007167355692545 101.11028546245083 a86.0,86.0 0 0,1 10.666146001902534,-42.60595125391555" fill="none" id="id10" stroke="none" /><text fill="#e1ed5e" style="font-size:6.75px; font-family:Arial;" text-anchor="middle"><textPath startOffset="22.20632615414155" xlink:href="#id10">October</textPath></text><path d="M 79.71946130924805 94.55025226153421 l -7.018009667869513 -1.885866194148161 a28.266976744186046,28.266976744186046 0 0,0 0.1303151097585823,-0.4688127850723629 l 6.98450778754457 2.006390282639466" fill="red" stroke="none" /><line stroke="#e1ed5e" stroke-width="0.3" x1="26.266209847984243" x2="21.928928074336255" y1="57.711370442889674" y2="55.22380399835377" /><path d="M 25.398753493254645 57.213857153982495 a86.0,86.0 0 0,1 29.58750427330803,-30.492523968695096" fill="none" id="id11" stroke="none" /><text fill="#e1ed5e" style="font-size:6.75px; font-family:Arial;" text-anchor="middle"><textPath startOffset="21.46611528233685" xlink:href="#id11">November</textPath></text><path d="M 81.78341655067845 89.55222093294921 l -25.469325511004907 -14.60745296537426 a50.36093023255814,50.36093023255814 0 0,0 0.43775717136325787,-0.7482689069317832 l 25.214108665171324 15.043701284659937" fill="red" stroke="none" /><path d="M 81.96595687620814 89.24020034530311 l -21.087248564284998 -12.581458759026972 a45.5553488372093,45.5553488372093 0 0,0 0.40757763571771355,-0.6699504677963742 l 20.86755513028107 12.94257700003042" fill="red" stroke="none" /><path d="M 82.15384107792192 88.93136811851018 l -29.931743754890032 -18.56441235565223 a56.22139534883721,56.22139534883721 0 0,0 0.5171629562829018,-0.8180275998869654 l 29.607753202361167 19.07688760325341" fill="red" stroke="none" /><path d="M 85.05521093208273 85.24692304244772 l -29.820067489007027 -29.43753495251131 a62.902325581395345,62.902325581395345 0 0,0 0.7673011381034897,-0.7640061031689747 l 29.308930550736225 29.946476906330393" fill="red" stroke="none" /><path d="M 85.57189188830299 84.74124197986013 l -22.145468264465187 -23.420419286726304 a53.23255813953488,53.23255813953488 0 0,0 0.6712172247990856,-0.6238232585549632 l 21.739043155871244 23.798147131355915" fill="red" stroke="none" /><path d="M 86.65592168130627 83.78471172551755 l -20.51884787051231 -24.933833969971616 a53.291162790697676,53.291162790697676 0 0,0 0.7133316546195746,-0.5767979224776201 l 20.086612817328238 25.28333798971337" fill="red" stroke="none" /><line stroke="#e1ed5e" stroke-width="0.3" x1="56.762969772571076" x2="54.21961505331055" y1="26.818313649435495" y2="22.513508569990535" /><path d="M 56.25429882871897 25.957352633546506 a86.0,86.0 0 0,1 42.265352541879196,-11.944610805530505" fill="none" id="id12" stroke="none" /><text fill="#e1ed5e" style="font-size:6.75px; font-family:Arial;" text-anchor="middle"><textPath startOffset="22.20632615414155" xlink:href="#id12">December</textPath></text><path d="M 90.26544431104013 81.39251694778311 l -2.933949807649302 -5.608208845505371 a27.329302325581395,27.329302325581395 0 0,0 0.4187103049891345,-0.21447968101191184 l 2.8369790150714036 5.657881051829788" fill="red" stroke="none" /><path d="M 91.23893434514133 80.91482961587045 l -4.889897109688562 -10.652188121374634 a32.72093023255814,32.72093023255814 0 0,0 0.5139022805285143,-0.23057297338122237 l 4.705812710693273 10.734781425272384" fill="red" stroke="none" /><path d="M 92.23578459929587 80.48803036053334 l -8.688698722834491 -21.8352553267706 a44.500465116279074,44.500465116279074 0 0,0 0.7141621861681278,-0.2770838330579756 l 8.311553371666687 21.98158186371913" fill="red" stroke="none" /><path d="M 92.57280143429618 80.3572730644239 l -6.259573860955958 -16.55470753826228 a38.69860465116279,38.69860465116279 0 0,0 0.6251071745530603,-0.23023224788434918 l 5.973684360630328 16.660003053952952" fill="red" stroke="none" /><path d="M 92.91201910852362 80.23233633223022 l -3.975862769823496 -11.08828017829319 a32.77953488372093,32.77953488372093 0 0,0 0.5327735787737742,-0.1858742403507274 l 3.7844071869864364 11.155075271816127" fill="red" stroke="none" /><path d="M 93.94186890950719 79.89281104454417 l -7.760043266612646 -25.755906224802477 a47.89953488372093,47.89953488372093 0 0,0 0.791505103388066,-0.23106204417800044 l 7.315547945501159 25.885666597899178" fill="red" stroke="none" /><path d="M 95.33964822691252 79.52364482259891 l -6.775934717521617 -29.771668039328286 a51.53302325581396,51.53302325581396 0 0,0 0.8666315290074529,-0.18941208560288342 l 6.262460464360642 29.88389362302704" fill="red" stroke="none" /></svg>