<?xml version="1.0" encoding="utf-8" ?>
<svg baseProfile="full" height="200mm" version="1.1" viewBox="0,0,200,200" width="200mm" xmlns="http://www.w3.org/2000/svg" xmlns:ev="http://www.w3.org/2001/xml-events" xmlns:xlink="http://www.w3.org/1999/xlink"><defs /><rect fill="#1a1a1a" height="200" width="200" x="0" y="0" /><text alignment-baseline="middle" fill="#e1ed5e" style="dominant-baseline: central; font-size:9.0px; font-family:Arial;" text-anchor="middle" x="100.0" y="100.0">2024</text><line stroke="#e1ed5e" stroke-width="0.3" x1="100.0" x2="100.0" y1="15.0" y2="10.0" /><path d="M 100.0 14.0 a86.0,86.0 0 0,1 42.35913384403234,11.155469271406648" fill="none" id="id13" stroke="none" /><text fill="#e1ed5e" style="font-size:6.75px; font-family:Arial;" text-anchor="middle"><textPath startOffset="22.145653131862478" xlink:href="#id13">January</textPath></text><path d="M 100.0 79.0 l 0.0 -40.94756233331537 a61.94756233331537,61.94756233331537 0 0,0 1.0634122825139811,0.009128115477802626 l -0.7029193576651264 40.941528616032" fill="#59ff2a" stroke="none" /><path d="M 101.08105385017728 79.02784411241856 l 1.3983325056926261 -27.127277042905007 a48.16329312802477,48.16329312802477 0 0,0 0.8253253834294989,0.049649525603397714 l -1.8638022412545874 27.099275539476917" fill="#ffdd14" stroke="none" /><path d="M 101.44090949804482 79.04949213459386 l 1.9821855405550808 -28.82054272974328 a49.88862652938253,49.88862652938253 0 0,0 0.8538818658447103,0.06609585674272518 l -2.476636401175025 28.782269106005504" fill="#fff817" stroke="none" /><path d="M 102.15924093988457 79.11130261209362 l 5.959294737865443 -57.65077075246118 a78.95795512374107,78.95795512374107 0 0,0 1.3470381239929454,0.15093843144606234 l -6.948068763459185 57.539976560508144" fill="#45ffef" stroke="none" /><path d="M 102.87502721639298 79.19773525538626 l 5.116460979616358 -37.02016288631789 a58.3720568484723,58.3720568484723 0 0,0 0.9914212958043448,0.14570478901588277 l -5.751207381028385 36.926877024003126" fill="#89ff24" stroke="none" /><path d="M 103.58742460773223 79.30868818359171 l 6.747017918785628 -38.9150064053159 a60.495569046694236,60.495569046694236 0 0,0 1.0216989102345924,0.18618757602614205 l -7.414051562571274 38.79345065535839" fill="#6cff28" stroke="none" /><path d="M 103.94208987418118 79.37332000966035 l 4.300925403807461 -22.504259110806277 a43.911561218202124,43.911561218202124 0 0,0 0.7391852960217612,0.1478577612959461 l -4.686607185360178 22.427111952847472" fill="#ff980e" stroke="none" /><path d="M 104.9986988182912 79.60360301121754 l 12.101974943305045 -49.380187577760246 a71.84152557450622,71.84152557450622 0 0,0 1.1952880363021394,0.303837544690498 l -12.94786827283258 49.165164801234475" fill="#3aff91" stroke="none" /><path d="M 106.38641147887787 79.99465700312896 l 15.560437726080295 -48.742849551933936 a72.16632295435826,72.16632295435826 0 0,0 1.1769202247351194,0.3868770544764664 l -16.394880688463157 48.46855157605545" fill="#3aff95" stroke="none" /><path d="M 107.06938296918511 80.22567764915836 l 17.082931410246136 -47.783999519616266 a71.74580924231932,71.74580924231932 0 0,0 1.1561695319502203,0.42456146674881984 l -17.900690093850482 47.48370720385872" fill="#3aff8f" stroke="none" /><path d="M 109.71004243097381 81.37971332152246 l 22.337789564329185 -42.83565683755714 a69.31014737428576,69.31014737428576 0 0,0 1.0502506701895025,0.5591993262716554 l -23.069829050305245 42.44588704356291" fill="#36ff6c" stroke="none" /><path d="M 110.34350942703115 81.72400993836675 l 31.030528281093456 -54.82797018489978 a84.0,84.0 0 0,0 1.2488301285584105,0.7210124108953133 l -31.967150877512267 54.287210876728295" fill="#4dd2ff" stroke="none" /><line stroke="#e1ed5e" stroke-width="0.3" x1="143.13028292997686" x2="145.6673583964461" y1="26.7553504044142" y2="22.446841604673864" /><path d="M 143.63769802327073 25.89364864446614 a86.0,86.0 0 0,1 29.32050498858742,28.57503671076993" fill="none" id="id14" stroke="none" /><text fill="#e1ed5e" style="font-size:6.75px; font-family:Arial;" text-anchor="middle"><textPath startOffset="20.669276256404974" xlink:href="#id14">February</textPath></text><path d="M 110.96478420261332 82.08984904055464 l 13.261677720611228 -21.661953902845678 a46.39906184988665,46.39906184988665 0 0,0 0.6757379763904807,0.421710474632308 l -13.631579825791421 21.431107631371823" fill="#ffc111" stroke="none" /><path d="M 111.5731344415666 82.4767994020092 l 22.24224711454202 -33.67759701627059 a61.359609729216544,61.359609729216544 0 0,0 0.8739470014727638,0.5880305456063244 l -22.817090404111788 33.290816796607146" fill="#61ff29" stroke="none" /><path d="M 115.16444852881244 85.47280134310134 l 24.900060878253065 -23.85369505920177 a55.482050398984335,55.482050398984335 0 0,0 0.652955480402847,0.693416092714447 l -25.305872192392172 23.422737506542827" fill="#b2ff20" stroke="none" /><path d="M 116.35404254752997 86.82634096563983 l 29.048903497087583 -23.399740393268246 a58.30129548494873,58.30129548494873 0 0,0 0.621140806527082,0.7847911179777249 l -29.446310734256222 22.897629331375843" fill="#8aff24" stroke="none" /><path d="M 117.21940702142032 87.97951657250589 l 31.105287388297917 -21.71390635539063 a58.93458359754696,58.93458359754696 0 0,0 0.5719749044616798,0.8345284792867103 l -31.473452029574922 21.17674314103387" fill="#81ff25" stroke="none" /><path d="M 117.81537515405839 88.88188828441811 l 12.178088902049474 -7.600028162439805 a35.355008790526696,35.355008790526696 0 0,0 0.31690215577799924,0.5176358553417646 l -12.306759022282876 7.389855190973485" fill="#ff0000" stroke="none" /><line stroke="#e1ed5e" stroke-width="0.3" x1="172.87174338648825" x2="177.1583165268699" y1="56.24261187166439" y2="53.66864786411523" /><path d="M 173.72905801456457 55.72781907015455 a86.0,86.0 0 0,1 12.242430191666344,42.057860355516425" fill="none" id="id15" stroke="none" /><text fill="#e1ed5e" style="font-size:6.75px; font-family:Arial;" text-anchor="middle"><textPath startOffset="22.145653131862474" xlink:href="#id15">March</textPath></text><path d="M 118.36410011445183 89.81374322990088 l 40.24206270739024 -22.321593823882456 a67.01822640849944,67.01822640849944 0 0,0 0.5494047303216726,1.010842823047471 l -40.61931278732725 21.627496167360384" fill="#32ff4a" stroke="none" /><path d="M 118.70294669586156 90.45014215332178 l 47.06424829620816 -24.03134052608984 a73.84457205019282,73.84457205019282 0 0,0 0.5667749777091533,1.1339296229241844 l -47.46984318712905 23.219879047001903" fill="#3dffac" stroke="none" /><path d="M 119.58574465831526 92.42381321644754 l 46.87846808574818 -18.133598519760394 a71.26348739733811,71.26348739733811 0 0,0 0.4315489981579865,1.1447349887193348 l -47.18284776772061 17.3261952508469" fill="#39ff88" stroke="none" /><line stroke="#e1ed5e" stroke-width="0.3" x1="184.99686870605535" x2="189.99668451229388" y1="99.2704041080226" y2="99.22748670261217" /><path d="M 185.99683186730306 99.26182062694052 a86.0,86.0 0 0,1 -10.086455211305974,41.156179273409016" fill="none" id="id16" stroke="none" /><text fill="#e1ed5e" style="font-size:6.75px; font-family:Arial;" text-anchor="middle"><textPath startOffset="21.40746469413373" xlink:href="#id16">April</textPath></text><line stroke="#e1ed5e" stroke-width="0.3" x1="174.33088141563837" x2="178.70328620479359" y1="141.23008692659167" y2="143.65538615756765" /><path d="M 175.20536237346943 141.71514677278685 a86.0,86.0 0 0,1 -30.301960400862466,31.631185727798858" fill="none" id="id17" stroke="none" /><text fill="#e1ed5e" style="font-size:6.75px; font-family:Arial;" text-anchor="middle"><textPath startOffset="22.145653131862474" xlink:href="#id17">May</textPath></text><line stroke="#e1ed5e" stroke-width="0.3" x1="143.1302829299769" x2="145.66735839644613" y1="173.24464959558577" y2="177.55315839532614" /><path d="M 143.63769802327073 174.10635135553383 a86.0,86.0 0 0,1 -40.68552437913181,11.842963189579606" fill="none" id="id18" stroke="none" /><text fill="#e1ed5e" style="font-size:6.75px; font-family:Arial;" text-anchor="middle"><textPath startOffset="21.407464694133747" xlink:href="#id18">June</textPath></text><line stroke="#e1ed5e" stroke-width="0.3" x1="101.45913802915013" x2="101.54496967792366" y1="184.9874750549273" y2="189.98673829345242" /><path d="M 101.47630435890484 185.9873277026323 a86.0,86.0 0 0,1 -42.54439059252881,-10.42667462771756" fill="none" id="id19" stroke="none" /><text fill="#e1ed5e" style="font-size:6.75px; font-family:Arial;" text-anchor="middle"><textPath startOffset="22.145653131862474" xlink:href="#id19">July</textPath></text><line stroke="#e1ed5e" stroke-width="0.3" x1="58.13341422392154" x2="55.67067388415222" y1="173.97424548756322" y2="178.32567169271397" /><path d="M 57.64086615596768 174.84453072859336 a86.0,86.0 0 0,1 -31.369924170532247,-30.572349798747897" fill="none" id="id20" stroke="none" /><text fill="#e1ed5e" style="font-size:6.75px; font-family:Arial;" text-anchor="middle"><textPath startOffset="22.145653131862474" xlink:href="#id20">August</textPath></text><line stroke="#e1ed5e" stroke-width="0.3" x1="26.387840678322732" x2="22.057713659400548" y1="142.50000000000003" y2="145.00000000000006" /><path d="M 25.521815274538298 143.00000000000003 a86.0,86.0 0 0,1 -11.493303480769221,-40.785679425670985" fill="none" id="id21" stroke="none" /><text fill="#e1ed5e" style="font-size:6.75px; font-family:Arial;" text-anchor="middle"><textPath startOffset="21.40746469413373" xlink:href="#id21">September</textPath></text><line stroke="#e1ed5e" stroke-width="0.3" x1="15.003131293944662" x2="10.003315487706104" y1="100.72959589197737" y2="100.7725132973878" /><path d="M 14.003168132696942 100.73817937305945 a86.0,86.0 0 0,1 10.791469493833604,-42.45332614584628" fill="none" id="id22" stroke="none" /><text fill="#e1ed5e" style="font-size:6.75px; font-family:Arial;" text-anchor="middle"><textPath startOffset="22.145653131862435" xlink:href="#id22">October</textPath></text><line stroke="#e1ed5e" stroke-width="0.3" x1="26.387840678322718" x2="22.05771365940052" y1="57.49999999999999" y2="54.99999999999999" /><path d="M 25.521815274538284 56.99999999999999 a86.0,86.0 0 0,1 29.574782752854787,-30.34633250058573" fill="none" id="id23" stroke="none" /><text fill="#e1ed5e" style="font-size:6.75px; font-family:Arial;" text-anchor="middle"><textPath startOffset="21.40746469413373" xlink:href="#id23">November</textPath></text><line stroke="#e1ed5e" stroke-width="0.3" x1="56.869717070023135" x2="54.33264160355391" y1="26.7553504044142" y2="22.446841604673864" /><path d="M 56.362301976729285 25.89364864446614 a86.0,86.0 0 0,1 42.16139366436587,-11.88097634709845" fill="none" id="id24" stroke="none" /><text fill="#e1ed5e" style="font-size:6.75px; font-family:Arial;" text-anchor="middle"><textPath startOffset="22.145653131862474" xlink:href="#id24">December</textPath></text></svg>