<?xml version="1.0" encoding="utf-8" ?>
<svg baseProfile="full" height="200mm" version="1.1" viewBox="0,0,200,200" width="200mm" xmlns="http://www.w3.org/2000/svg" xmlns:ev="http://www.w3.org/2001/xml-events" xmlns:xlink="http://www.w3.org/1999/xlink"><defs /><rect fill="#1a1a1a" height="200" width="200" x="0" y="0" /><text alignment-baseline="middle" fill="#e1ed5e" style="dominant-baseline: central; font-size:9.0px; font-family:Arial;" text-anchor="middle" x="100.0" y="100.0">2021</text><line stroke="#e1ed5e" stroke-width="0.3" x1="100.0" x2="100.0" y1="15.0" y2="10.0" /><path d="M 100.0 14.0 a86.0,86.0 0 0,1 42.46469731375804,11.215312516191453" fill="none" id="id37" stroke="none" /><text fill="#e1ed5e" style="font-size:6.75px; font-family:Arial;" text-anchor="middle"><textPath startOffset="22.20632615414155" xlink:href="#id37">January</textPath></text><path d="M 103.95276090670814 79.375362276772 l 5.995191671979296 -31.28159259672035 a52.850908284866215,52.850908284866215 0 0,0 0.8920065326823231,0.1789281188942992 l -6.5327646141287445 31.173760521748843" fill="#8aff24" stroke="none" /><path d="M 104.307194497241 79.44645832069477 l 6.245592951518556 -29.80340338084083 a51.45078462695457,51.45078462695457 0 0,0 0.8652485209056595,0.18910981359892304 l -6.757684196577743 29.69148006914604" fill="#9aff23" stroke="none" /><path d="M 104.66035177308747 79.52364482259891 l 1.9417596879995493 -8.531579369232304 a29.749758694926985,29.749758694926985 0 0,0 0.49834573464076215,0.11794233448454325 l -2.0883291096028356 8.496891122606891" fill="#ff4806" stroke="none" /><path d="M 109.41281617654863 81.2277094730956 l 5.682161959973139 -11.33212347217554 a33.67690762481125,33.67690762481125 0 0,0 0.5159615161297758,0.26429552861568273 l -5.87638396369167 11.232635418247357" fill="#ff800b" stroke="none" /><line stroke="#e1ed5e" stroke-width="0.3" x1="143.23703022742887" x2="145.7803849466894" y1="26.81831364943548" y2="22.513508569990506" /><path d="M 143.74570117128098 25.957352633546492 a86.0,86.0 0 0,1 28.547481713284135,27.462654790039103" fill="none" id="id38" stroke="none" /><text fill="#e1ed5e" style="font-size:6.75px; font-family:Arial;" text-anchor="middle"><textPath startOffset="19.985693538727396" xlink:href="#id38">February</textPath></text><path d="M 110.99172775467656 82.1063720568725 l 6.92208030929763 -11.268576916338068 a34.22482595453691,34.22482595453691 0 0,0 0.49932529456489444,0.31267745364834637 l -7.115024756234788 11.147755121366776" fill="#ff880c" stroke="none" /><path d="M 112.48926042617603 83.11751280151076 l 11.057173385684235 -14.946648701795517 a39.59202492188437,39.59202492188437 0 0,0 0.5443975941280033,0.4100289813514714 l -11.31281713357062 14.7541031309382" fill="#ffd113" stroke="none" /><path d="M 113.89432698308785 84.25364557470405 l 11.574877178545881 -13.117736375752646 a38.49436450180933,38.49436450180933 0 0,0 0.4930743376410319,0.44268700876109585 l -11.798962503782903 12.916550358222255" fill="#ffc312" stroke="none" /><path d="M 114.42810811169701 84.74124197986012 l 16.46401554139474 -17.41187598825225 a44.9632475507299,44.9632475507299 0 0,0 0.5577942575508588,0.5365976338241151 l -16.76129304255802 17.12589526766583" fill="#e8ff1a" stroke="none" /><path d="M 114.94478906791727 85.2469230424477 l 15.610688851176617 -15.4104345625206 a42.93570376837678,42.93570376837678 0 0,0 0.5146881429313107,0.5304313736557486 l -15.873641257811036 15.139438993314734" fill="#fffd17" stroke="none" /><path d="M 115.4437574822437 85.77008943001954 l 17.244852015295272 -15.889442854327191 a44.44907919834728,44.44907919834728 0 0,0 0.5136119874400215,0.5671431847443915 l -17.51580764335133 15.590246882313252" fill="#eeff19" stroke="none" /><path d="M 116.15771136456269 86.58626213691792 l 25.28055804844037 -20.98730265957976 a53.85686363859714,53.85686363859714 0 0,0 0.5860178358787939,0.7183885752585198 l -25.638074376395572 20.54902991471314" fill="#7eff26" stroke="none" /><path d="M 116.60985879189232 87.15038557335679 l 13.06748931356136 -10.109188844248699 a37.52134909893023,37.52134909893023 0 0,0 0.3908010382469718,0.5142483571502182 l -13.239566292032443 9.882755711217447" fill="#ffb510" stroke="none" /><line stroke="#e1ed5e" stroke-width="0.3" x1="172.23445277983987" x2="176.4835382374775" y1="55.19839476539836" y2="52.563006222186495" /><path d="M 173.08426987136738 54.67131705675599 a86.0,86.0 0 0,1 12.851231095245387,41.99856678651699" fill="none" id="id39" stroke="none" /><text fill="#e1ed5e" style="font-size:6.75px; font-family:Arial;" text-anchor="middle"><textPath startOffset="22.20632615414155" xlink:href="#id39">March</textPath></text><path d="M 118.73160827565052 90.50648371742162 l 8.080591183852794 -4.095389079670563 a30.059148171569134,30.059148171569134 0 0,0 0.22993815109106913,0.463541281583428 l -8.14988934789727 3.955688209588186" fill="#ff4c07" stroke="none" /><path d="M 119.61058180528143 92.48833698450437 l 4.78624258024109 -1.8333286452268744 a26.1253499352066,26.1253499352066 0 0,0 0.1572440169333084,0.42133578857460396 l -4.817091185676024 1.7506697196229373" fill="#ff1202" stroke="none" /><path d="M 119.7369772167798 92.82701384747503 l 7.110842130418999 -2.584284897026827 a28.565884233369076,28.565884233369076 0 0,0 0.1639775875369656,0.46358672142641566 l -7.154272798765774 2.4615005491737967" fill="#ff3605" stroke="none" /><path d="M 119.85752413597 93.16781622104841 l 16.35254995163354 -5.626261650699423 a38.29337185406019,38.29337185406019 0 0,0 0.20908674511383202,0.6251427548271167 l -16.446973990519144 5.3439457929499925" fill="#ffc011" stroke="none" /><path d="M 120.08093135843002 93.85539295169968 l 5.48947576484704 -1.6797364063491347 a26.74071934235229,26.74071934235229 0 0,0 0.1308946788278502,0.44131178577704583 l -5.517576340786592 1.5849952338255588" fill="#ff1b02" stroke="none" /><path d="M 120.28053869075195 94.5502522615342 l 5.008089129288386 -1.3457641743421844 a26.18575336280462,26.18575336280462 0 0,0 0.11322678371819785,0.4363089857781689 l -5.030512244876889 1.259358763015165" fill="#ff1302" stroke="none" /><path d="M 120.45610955862082 95.25157060432595 l 23.589314037466494 -5.4757329040647 a45.21651064036416,45.21651064036416 0 0,0 0.16946634226565482,0.7596843833665152 l -23.680074766734187 5.068870351148221" fill="#e5ff1a" stroke="none" /><path d="M 120.53481517161879 95.60439243477599 l 19.218432004516764 -4.113827390448231 a40.65379618574072,40.65379618574072 0 0,0 0.14058606203508114,0.6855475666067535 l -19.286397362466843 3.7824041676780653" fill="#ffdf14" stroke="none" /><path d="M 120.67395015179393 96.31383870115 l 25.454094553416656 -4.538460117740545 a46.85553228565595,46.85553228565595 0 0,0 0.13473897010523106,0.795237028696851 l -25.52844538504211 4.0996373007278555" fill="#d0ff1d" stroke="none" /><path d="M 120.87857604477298 97.74499172005257 l 14.151343359601636 -1.5284278190164158 a35.23364361220572,35.23364361220572 0 0,0 0.05993557250076054,0.6035430357023703 l -14.175556057784625 1.2846092526096107" fill="#ff960d" stroke="none" /><path d="M 120.91429891909075 98.10471618934814 l 17.80756577663917 -1.613747190577579 a38.88053631422804,38.88053631422804 0 0,0 0.05466513828821248,0.667053148834015 l -17.832705398746874 1.3069801245357953" fill="#ffc812" stroke="none" /><line stroke="#e1ed5e" stroke-width="0.3" x1="184.98032266829074" x2="189.97916517819016" y1="98.17113171792111" y2="98.06355123074" /><path d="M 185.9800911702706 98.14961562048488 a86.0,86.0 0 0,1 -9.607161424134198,41.387399972396054" fill="none" id="id40" stroke="none" /><text fill="#e1ed5e" style="font-size:6.75px; font-family:Arial;" text-anchor="middle"><textPath startOffset="21.466115282336823" xlink:href="#id40">April</textPath></text><path d="M 120.99980553446 99.90962569577887 l 10.577739997999902 -0.04552213071604719 a31.577837951569872,31.577837951569872 0 0,0 -0.002339320385375803,0.5435756723005943 l -10.576956380325024 -0.13656301978823188" fill="#ff6209" stroke="none" /><path d="M 120.92983693683757 101.71520430193887 l 7.713727254098949 0.6321414834784055 a28.73958597121081,28.73958597121081 0 0,0 -0.044649552149545454,0.4927040873830618 l -7.701703105672329 -0.7648269594100379" fill="#ff3905" stroke="none" /><path d="M 120.81339534386255 102.79330883721812 l 20.72406208091119 2.781319664440826 a41.90986581040792,41.90986581040792 0 0,0 -0.10211228837887693,0.7141731070927575 l -20.67311574151571 -3.137638243513993" fill="#ffef16" stroke="none" /><path d="M 120.76222939487914 103.15116336523771 l 25.838868233314678 3.9216643563387152 a47.13477688640896,47.13477688640896 0 0,0 -0.12865155808100254,0.8011133749779049 l -25.767534920872386 -4.3658569610098255" fill="#cdff1d" stroke="none" /><path d="M 120.49622156327973 104.57218783832717 l 20.625561968862087 4.6010404064740404 a42.13251947481362,42.13251947481362 0 0,0 -0.16399468084720129,0.7064847929501836 l -20.543306722084335 -4.955393856772789" fill="#fff216" stroke="none" /><path d="M 120.32669344350535 105.2749913415812 l 5.560900033873802 1.4431122116152861 a26.745100699034857,26.745100699034857 0 0,0 -0.11947663547663517,0.4446170070079072 l -5.535235322055389 -1.5386201517987417" fill="#ff1b02" stroke="none" /><path d="M 120.23288151984713 105.62410040840565 l 23.310589301865434 6.479605719244508 a45.194397365446186,45.194397365446186 0 0,0 -0.21479683945557143,0.7477359768428424 l -23.19559982552376 -6.879899171591933" fill="#e5ff1a" stroke="none" /><path d="M 119.9155931802556 106.66101706037122 l 21.731000907345297 7.2682026828242225 a43.91425693042773,43.91425693042773 0 0,0 -0.2459390127301464,0.7148138924938129 l -21.60267106367192 -7.641189278407336" fill="#f5ff19" stroke="none" /><path d="M 119.54520255179757 107.68017299344265 l 21.064924140814963 8.277338700709759 a43.63283820082131,43.63283820082131 0 0,0 -0.28069916064100664,0.6966722967403629 l -20.91932236591656 -8.638710365292935" fill="#f8ff18" stroke="none" /><path d="M 119.41010516605496 108.01547362559984 l 17.80139720285626 7.351151812812234 a40.25952168016826,40.25952168016826 0 0,0 -0.2700244822056508,0.6382581119915902 l -17.6722217394583 -7.656484450469988" fill="#ffda14" stroke="none" /><path d="M 118.97047184881838 109.00673069616215 l 17.698569794156352 8.402861727085893 a40.59202536654004,40.59202536654004 0 0,0 -0.3051104291200597,0.6286178547112624 l -17.551306108421578 -8.706268537762432" fill="#ffde14" stroke="none" /><line stroke="#e1ed5e" stroke-width="0.3" x1="174.80103733775053" x2="179.2010983576182" y1="140.37084112569926" y2="142.7455964860345" /><path d="M 175.68104954172406 140.8457921977663 a86.0,86.0 0 0,1 -30.038265399797805,32.042727171017184" fill="none" id="id41" stroke="none" /><text fill="#e1ed5e" style="font-size:6.75px; font-family:Arial;" text-anchor="middle"><textPath startOffset="22.206326154141568" xlink:href="#id41">May</textPath></text><path d="M 117.14729908036423 112.12312394758627 l 15.538160351126269 10.98546441461923 a40.029315686649845,40.029315686649845 0 0,0 -0.40261906525698665,0.5592026675833782 l -15.346761493493679 -11.251300687653739" fill="#ffd714" stroke="none" /><path d="M 116.93607887273984 112.41649034213515 l 22.31715765472581 16.361566013360346 a48.672303268709584,48.672303268709584 0 0,0 -0.5011827240884805,0.671416161026754 l -22.032213663942237 -16.743295053896414" fill="#baff1f" stroke="none" /><path d="M 115.56566222782051 114.09645910891815 l 37.999053701626856 34.4124200334501 a72.26541460651342,72.26541460651342 0 0,0 -0.8429368040735181,0.9148414187810897 l -37.40107048955762 -35.061412707032524" fill="#3effb3" stroke="none" /><path d="M 115.32070863581623 114.36230785411682 l 22.33124904556976 20.934297569607033 a51.609304119305214,51.609304119305214 0 0,0 -0.6131515840789177,0.6428869845590164 l -21.967590910111877 -21.315591670748557" fill="#98ff23" stroke="none" /><path d="M 115.07121518719521 114.62390073753431 l 7.0180807219564345 6.809783721560287 a30.778885997613635,30.778885997613635 0 0,0 -0.3722184118781375,0.37705528607483435 l -6.899821685022761 -6.929579501615787" fill="#ff5708" stroke="none" /><path d="M 114.81725581225074 114.88116024355365 l 13.375379228194914 13.433065078656638 a39.95647664798109,39.95647664798109 0 0,0 -0.4915598878524467,0.4810948099056512 l -13.142169387966673 -13.661309991484861" fill="#ffd614" stroke="none" /><path d="M 113.75828350139079 115.86535959552629 l 2.8588524530505572 3.296684662270153 a25.363618579889913,25.363618579889913 0 0,0 -0.3323051004885505,0.2831976158415373 l -2.801681875984959 -3.345406668334637" fill="#ff0601" stroke="none" /><path d="M 113.48314897796784 116.09983520530334 l 12.78533132575552 15.266591485877841 a40.91314924129338,40.91314924129338 0 0,0 -0.54381343278829,0.4475214325547533 l -12.520647764422538 -15.484408037289773" fill="#ffe315" stroke="none" /><path d="M 111.7513745106137 117.40417183066458 l 24.171925493925343 35.79941600825792 a64.19583508413967,64.19583508413967 0 0,0 -0.921134730779427,0.6104778716189553 l -23.55211606440595 -36.2101919009682" fill="#33ff54" stroke="none" /><path d="M 111.45004920935366 117.60387380957326 l 14.746235897460872 22.671594781709572 a48.04538191798379,48.04538191798379 0 0,0 -0.6971572475245243,0.44495874022368737 l -14.353796847889418 -22.922067950757068" fill="#c2ff1e" stroke="none" /><line stroke="#e1ed5e" stroke-width="0.3" x1="143.8653032363475" x2="146.44561519142675" y1="172.8068346515853" y2="177.08958963109032" /><path d="M 144.38136562736335 173.6633856474863 a86.0,86.0 0 0,1 -40.68145358897372,12.25698825130547" fill="none" id="id42" stroke="none" /><text fill="#e1ed5e" style="font-size:6.75px; font-family:Arial;" text-anchor="middle"><textPath startOffset="21.466115282336833" xlink:href="#id42">June</textPath></text><path d="M 110.5260780823613 118.17145234162733 l 14.18999518808532 24.496571208254796 a49.30967969439044,49.30967969439044 0 0,0 -0.7381218387929689,0.4191248438633136 l -13.766224582371152 -24.73719921791274" fill="#b3ff20" stroke="none" /><path d="M 109.57404056367764 118.69057910512821 l 7.541433649393169 14.722494776637419 a37.54161642453106,37.54161642453106 0 0,0 -0.5776869831838052,0.2896642459534083 l -7.286892758526603 -14.850126863500128" fill="#ffb610" stroke="none" /><path d="M 109.2508944713604 118.85261126421891 l 16.56248862984879 33.75307768057021 a58.59768985621959,58.59768985621959 0 0,0 -0.9093449908853918,0.43654085642907925 l -15.979030970963166 -34.03317281349885" fill="#4bff2c" stroke="none" /><path d="M 107.93186726928326 119.44442032107085 l 2.3366269871729908 5.728078361585415 a27.18633230546567,27.18633230546567 0 0,0 -0.4348245733870504,0.17302567150717707 l -2.237681337744074 -5.767450877498661" fill="#ff2203" stroke="none" /><path d="M 104.83641907484287 120.43548508189849 l 5.224439126098801 22.074999327089454 a43.684804594117885,43.684804594117885 0 0,0 -0.733238733196985,0.16688274845527215 l -4.843680243508953 -22.16165880912241" fill="#f8ff18" stroke="none" /><path d="M 101.62511606390274 120.93702456842531 l 0.3924832180023931 5.056519322242432 a26.071728574423574,26.071728574423574 0 0,0 -0.4477350578476758,0.030878430998475568 l -0.30538539937578696 -5.062526097757193" fill="#ff1101" stroke="none" /><line stroke="#e1ed5e" stroke-width="0.3" x1="102.19456741930631" x2="102.32365962044197" y1="184.97166512339345" y2="189.96999836594603" /><path d="M 102.22038585953345 185.97133177190398 a86.0,86.0 0 0,1 -42.740103519485714,-10.115201625700543" fill="none" id="id43" stroke="none" /><text fill="#e1ed5e" style="font-size:6.75px; font-family:Arial;" text-anchor="middle"><textPath startOffset="22.20632615414155" xlink:href="#id43">July</textPath></text><path d="M 98.01472825383883 120.90594882070398 l -0.5356492026939422 5.640665988937771 a26.666042081303843,26.666042081303843 0 0,0 -0.4565828338085906,-0.047326677578831175 l 0.6326646331081262 -5.630609942903179" fill="#ff1a02" stroke="none" /><path d="M 97.2962882734958 120.8252237178851 l -1.4096393355803942 10.857686578498134 a31.948810021792966,31.948810021792966 0 0,0 -0.5447597816384618,-0.07549874187265214 l 1.596327708405687 -10.831813271132878" fill="#ff6809" stroke="none" /><path d="M 96.93821686468263 120.77559828337769 l -5.26502563061281 35.72560583784164 a57.11148580952928,57.11148580952928 0 0,0 -0.9713416431997597,-0.15170358801796632 l 5.8792031374210865 -35.62968394247657" fill="#5bff2a" stroke="none" /><path d="M 94.81253420990036 120.34920634021253 l -9.813832705288213 38.49735396604902 a60.72854861122735,60.72854861122735 0 0,0 -1.0107241968481437,-0.266941446716869 l 10.475047344947846 -38.32272117002857" fill="#35ff2f" stroke="none" /><path d="M 93.76903079525671 120.05430185196036 l -1.1783046134792374 3.7923596820670915 a24.971195502655902,24.971195502655902 0 0,0 -0.409383314244073,-0.1310716093219856 l 1.2434092728142507 -3.7715152260853992" fill="#ff0000" stroke="none" /><path d="M 92.40401165467489 119.57807347666478 l -14.418144626800377 37.16165455603993 a60.86065056947485,60.86065056947485 0 0,0 -0.9734195154603661,-0.38734371429095404 l 15.0556852183026 -36.907963997342904" fill="#33ff2f" stroke="none" /><line stroke="#e1ed5e" stroke-width="0.3" x1="58.666819895761336" x2="56.23545636021788" y1="174.27360380694188" y2="178.64263932499728" /><path d="M 58.180547188652646 175.14741091055294 a86.0,86.0 0 0,1 -31.652253787137756,-30.449443065178592" fill="none" id="id44" stroke="none" /><text fill="#e1ed5e" style="font-size:6.75px; font-family:Arial;" text-anchor="middle"><textPath startOffset="22.20632615414155" xlink:href="#id44">August</textPath></text><path d="M 87.95078237400918 117.19931262002967 l -3.141752443864557 4.484605070142497 a26.475608738183976,26.475608738183976 0 0,0 -0.37100229191489614,-0.26470028455948175 l 3.218482063628338 -4.429860523738799" fill="#ff1702" stroke="none" /><path d="M 85.97065885151581 115.62618273729859 l -26.176201176739664 29.155617404044563 a60.182183888295114,60.182183888295114 0 0,0 -0.7648881901835441,-0.6987072264087159 l 26.674188916390065 -28.70071741104927" fill="#3aff2e" stroke="none" /><path d="M 83.50135304334701 112.99209946851258 l -4.27291732980255 3.3647708879024245 a26.438704407798113,26.438704407798113 0 0,0 -0.27847910364721656,-0.3599717808249726 l 4.330203250667835 -3.2907211129641993" fill="#ff1602" stroke="none" /><path d="M 82.44556493220864 111.52570212397912 l -14.971653004333673 9.829926862649966 a38.91027235435634,38.91027235435634 0 0,0 -0.3627829567455982,-0.5630472052220241 l 15.138640824456315 -9.570758057506493" fill="#ffc812" stroke="none" /><line stroke="#e1ed5e" stroke-width="0.3" x1="26.63291911575756" x2="22.317208475507996" y1="142.92168965132927" y2="145.44649492493687" /><path d="M 25.769776987707644 143.4266507060508 a86.0,86.0 0 0,1 -11.730757126820373,-40.83630448921669" fill="none" id="id45" stroke="none" /><text fill="#e1ed5e" style="font-size:6.75px; font-family:Arial;" text-anchor="middle"><textPath startOffset="21.46611528233685" xlink:href="#id45">September</textPath></text><path d="M 81.35079622478065 109.6543875284942 l -5.785430255839559 2.9950225426336443 a27.514703621506314,27.514703621506314 0 0,0 -0.2141185460125327,-0.42247620471445524 l 5.836127471638358 -2.894992126216503" fill="#ff2703" stroke="none" /><path d="M 81.18737489456691 109.33194174019688 l -43.46381649787482 21.560085373074177 a69.51742600195503,69.51742600195503 0 0,0 -0.522528538235041,-1.0765635566048541 l 43.82849829272458 -20.808732860504037" fill="#3aff94" stroke="none" /><path d="M 80.32549172779595 107.34259656027581 l -59.023524816612166 22.027789680827432 a84.0,84.0 0 0,0 -0.4939029559791117,-1.3590088119755315 l 59.3939520335965 -21.008533071845783" fill="#4dd2ff" stroke="none" /><path d="M 80.20201598880116 107.00284435728193 l -23.216193199619767 8.21191629680883 a45.62574254612164,45.62574254612164 0 0,0 -0.25552407944988353,-0.7426725830516392 l 23.35410811001288 -7.811071010667894" fill="#dfff1b" stroke="none" /><path d="M 79.50377843672027 104.57218783832718 l -5.115299232348641 1.1410936824302322 a26.241028623137712,26.241028623137712 0 0,0 -0.09455012645853238,-0.4417067134563844 l 5.134183397531614 -1.052873149557684" fill="#ff1302" stroke="none" /><line stroke="#e1ed5e" stroke-width="0.3" x1="15.007084014347285" x2="10.007500721073583" y1="101.09737516637583" y2="101.16192664675087" /><path d="M 14.007167355692545 101.11028546245083 a86.0,86.0 0 0,1 10.666146001902534,-42.60595125391555" fill="none" id="id46" stroke="none" /><text fill="#e1ed5e" style="font-size:6.75px; font-family:Arial;" text-anchor="middle"><textPath startOffset="22.20632615414155" xlink:href="#id46">October</textPath></text><path d="M 79.00486145842228 99.54816195383935 l -5.302585492436472 -0.11411736406299752 a26.303813314717857,26.303813314717857 0 0,0 0.013638283635824746,-0.4525882374841653 l 5.299835514345001 0.20537574897215727" fill="#ff1402" stroke="none" /><path d="M 79.21141760316559 97.0276538004421 l -47.78243221666708 -6.831919949792755 a69.26837431218044,69.26837431218044 0 0,0 0.1789238608322008,-1.1788846886823856 l 47.65775246239558 7.653403750867232" fill="#3aff91" stroke="none" /><path d="M 79.62865764111835 94.90015583598534 l -4.921177966881551 -1.231987578056499 a26.07304503963901,26.07304503963901 0 0,0 0.1127394347099957,-0.4344310312473883 l 4.899242200301248 1.316515034852751" fill="#ff1101" stroke="none" /><path d="M 79.71946130924805 94.55025226153421 l -20.765522344454304 -5.580071622375366 a42.50218866880462,42.50218866880462 0 0,0 0.19594162585832398,-0.7049062806333405 l 20.66639394802962 5.936689206427649" fill="#fff717" stroke="none" /><path d="M 80.38941819471856 92.48833698450439 l -12.807298332311063 -4.905724377097799 a34.71470095324245,34.71470095324245 0 0,0 0.2185479704736599,-0.5561807466887816 l 12.720956811955713 5.125454128682344" fill="#ff8f0d" stroke="none" /><path d="M 80.52162464483688 92.15188598940014 l -37.98492135361136 -15.304664174047295 a61.95225263304092,61.95225263304092 0 0,0 0.40705082437652274,-0.9857058582095131 l 37.715848842348635 15.95624460271012" fill="#30ff38" stroke="none" /><path d="M 81.26839172434947 90.50648371742162 l -27.581604197117507 -13.978853534180777 a51.921727574903194,51.921727574903194 0 0,0 0.41090006366568094,-0.7937281361386498 l 27.33689470029171 14.451554392579762" fill="#94ff23" stroke="none" /><path d="M 81.43458229118936 90.18545643968196 l -34.251381348417524 -18.106873732529902 a59.74294775363002,59.74294775363002 0 0,0 0.48844667895772703,-0.9050175139144876 l 33.93462657024133 18.69377222977686" fill="#3fff2d" stroke="none" /><path d="M 81.6062741919709 89.86733742301443 l -17.76538053590569 -9.786522230504403 a41.28262219126742,41.28262219126742 0 0,0 0.34823338421879296,-0.6194683336000267 l 17.594289510394468 10.090874074039215" fill="#ffe715" stroke="none" /><line stroke="#e1ed5e" stroke-width="0.3" x1="26.266209847984257" x2="21.92892807433627" y1="57.711370442889674" y2="55.22380399835377" /><path d="M 25.39875349325466 57.213857153982495 a86.0,86.0 0 0,1 29.58750427330802,-30.492523968695096" fill="none" id="id47" stroke="none" /><text fill="#e1ed5e" style="font-size:6.75px; font-family:Arial;" text-anchor="middle"><textPath startOffset="21.46611528233685" xlink:href="#id47">November</textPath></text><path d="M 87.51073957382395 83.11751280151077 l -3.356827806269525 -4.53762677156614 a26.644320121943654,26.644320121943654 0 0,0 0.37105981963007323,-0.2695907393952496 l 3.278222670285668 4.594736745778057" fill="#ff1902" stroke="none" /><path d="M 87.80319425747017 82.90503203632743 l -9.450973147255214 -13.2464258748083 a37.27232902466423,37.27232902466423 0 0,0 0.5254845704473947,-0.36813552310499037 l 9.221557437224162 13.407146240677234" fill="#ffb210" stroke="none" /><path d="M 88.09926311788651 82.69761687909137 l -16.21446780009074 -23.574080895819534 a49.61199496929257,49.61199496929257 0 0,0 0.7077867044726872,-0.47790074235173446 l 15.806276401211516 23.849693550469937" fill="#afff20" stroke="none" /><path d="M 88.39885842347998 82.49532879139004 l -11.797830578180983 -17.80145030415976 a42.35603987828576,42.35603987828576 0 0,0 0.611203654300775,-0.39754385849294105 l 11.48965989809592 18.001893086812235" fill="#fff517" stroke="none" /><line stroke="#e1ed5e" stroke-width="0.3" x1="56.762969772571076" x2="54.21961505331055" y1="26.818313649435495" y2="22.513508569990535" /><path d="M 56.25429882871897 25.957352633546506 a86.0,86.0 0 0,1 42.265352541879196,-11.944610805530505" fill="none" id="id48" stroke="none" /><text fill="#e1ed5e" style="font-size:6.75px; font-family:Arial;" text-anchor="middle"><textPath startOffset="22.20632615414155" xlink:href="#id48">December</textPath></text><path d="M 89.3179101791058 81.91981866633112 l -8.3986001162583 -14.215215898475872 a37.51087056920667,37.51087056920667 0 0,0 0.5587391848627743,-0.32365779999144206 l 8.152664198930205 14.35767785585736" fill="#ffb510" stroke="none" /><path d="M 89.94658935756843 81.56283822128135 l -7.698510697640574 -14.118461110951435 a37.08098290227107,37.08098290227107 0 0,0 0.5630216703803975,-0.3007466776419798 l 7.454343980731872 14.248886515095167" fill="#ffaf10" stroke="none" /><path d="M 90.26544431104013 81.39251694778311 l -6.011958071415537 -11.491783651859313 a33.96937667560008,33.96937667560008 0 0,0 0.5204424137391044,-0.26659081841018745 l 5.813255170087669 11.593566995582005" fill="#ff840c" stroke="none" /><path d="M 90.58718382345135 81.22770947309562 l -6.859657700679675 -13.680442160668214 a36.30390151176759,36.30390151176759 0 0,0 0.5610313885805818,-0.2752956658439253 l 6.623155045088667 13.796492986646966" fill="#ffa50f" stroke="none" /><path d="M 91.90106846888425 80.62456947434976 l -10.51871649905156 -25.164388655883236 a48.274344230645845,48.274344230645845 0 0,0 0.7694381761447746,-0.31387315149149225 l 10.083994453318404 25.341722693558303" fill="#bfff1e" stroke="none" /><path d="M 92.91201910852362 80.23233633223022 l -12.46241983430092 -34.75643170359762 a57.92318313598142,57.92318313598142 0 0,0 0.9414392755356422,-0.328449677589637 l 11.862298554701992 34.965802234359465" fill="#52ff2b" stroke="none" /><path d="M 93.94186890950719 79.89281104454417 l -5.740156886542823 -19.051819352804504 a40.89776926527246,40.89776926527246 0 0,0 0.6758060003971403,-0.19728630333664662 l 5.411360668422262 19.14780398505985" fill="#ffe215" stroke="none" /><path d="M 94.63758080256005 79.69619591428918 l -3.6767918574480496 -13.92148931086956 a35.3988424185992,35.3988424185992 0 0,0 0.5904714214321761,-0.15052431271768862 l 3.436611547330874 13.982716619756113" fill="#ff980e" stroke="none" /><path d="M 94.98787191387505 79.60689891045804 l -4.0887856415450266 -16.636250608264426 a38.131345607496314,38.131345607496314 0 0,0 0.6387478175696394,-0.1511709713044434 l 3.8018141370128533 16.70416749170974" fill="#ffbe11" stroke="none" /><path d="M 95.33964822691252 79.52364482259891 l -8.62096608499125 -37.87824870817881 a59.84691469650092,59.84691469650092 0 0,0 1.0064463505729941,-0.21997019024656575 l 7.967677010264736 38.02103239652124" fill="#3eff2d" stroke="none" /><path d="M 97.11714578562143 79.19881850522333 l -2.890644413354577 -20.857391532028007 a42.05674729498295,42.05674729498295 0 0,0 0.7179392605770657,-0.09320912101765068 l 2.5311904242696532 20.904058976209797" fill="#fff116" stroke="none" /></svg>