<?xml version="1.0" encoding="utf-8" ?>
<svg baseProfile="full" height="200mm" version="1.1" viewBox="0,0,200,200" width="200mm" xmlns="http://www.w3.org/2000/svg" xmlns:ev="http://www.w3.org/2001/xml-events" xmlns:xlink="http://www.w3.org/1999/xlink"><defs /><rect fill="#1a1a1a" height="200" width="200" x="0" y="0" /><text alignment-baseline="middle" fill="#e1ed5e" style="dominant-baseline: central; font-size:9.0px; font-family:Arial;" text-anchor="middle" x="100.0" y="100.0">2018</text><line stroke="#e1ed5e" stroke-width="0.3" x1="100.0" x2="100.0" y1="15.0" y2="10.0" /><path d="M 100.0 14.0 a86.0,86.0 0 0,1 42.46469731375804,11.215312516191453" fill="none" id="id37" stroke="none" /><text fill="#e1ed5e" style="font-size:6.75px; font-family:Arial;" text-anchor="middle"><textPath startOffset="22.20632615414155" xlink:href="#id37">January</textPath></text><line stroke="#e1ed5e" stroke-width="0.3" x1="143.23703022742887" x2="145.7803849466894" y1="26.81831364943548" y2="22.513508569990506" /><path d="M 143.74570117128098 25.957352633546492 a86.0,86.0 0 0,1 28.547481713284135,27.462654790039103" fill="none" id="id38" stroke="none" /><text fill="#e1ed5e" style="font-size:6.75px; font-family:Arial;" text-anchor="middle"><textPath startOffset="19.985693538727396" xlink:href="#id38">February</textPath></text><line stroke="#e1ed5e" stroke-width="0.3" x1="172.23445277983987" x2="176.4835382374775" y1="55.19839476539836" y2="52.563006222186495" /><path d="M 173.08426987136738 54.67131705675599 a86.0,86.0 0 0,1 12.851231095245387,41.99856678651699" fill="none" id="id39" stroke="none" /><text fill="#e1ed5e" style="font-size:6.75px; font-family:Arial;" text-anchor="middle"><textPath startOffset="22.20632615414155" xlink:href="#id39">March</textPath></text><path d="M 120.78858239683441 97.02765380044208 l 8.718243686903628 -1.246532254817614 a29.806907269100524,29.806907269100524 0 0,0 0.06824930272430565,0.508536578776102 l -8.73840898868577 1.0962773339768477" fill="#ff6809" stroke="none" /><path d="M 120.96714384426684 98.82574320788733 l 7.364810186426153 -0.4124633497182876 a28.376351069258245,28.376351069258245 0 0,0 0.023115094204503465,0.487923105032177 l -7.370818888864153 0.2856291380631108" fill="#ff5407" stroke="none" /><line stroke="#e1ed5e" stroke-width="0.3" x1="184.98032266829074" x2="189.97916517819016" y1="98.17113171792111" y2="98.06355123074" /><path d="M 185.9800911702706 98.14961562048488 a86.0,86.0 0 0,1 -9.607161424134198,41.387399972396054" fill="none" id="id40" stroke="none" /><text fill="#e1ed5e" style="font-size:6.75px; font-family:Arial;" text-anchor="middle"><textPath startOffset="21.466115282336823" xlink:href="#id40">April</textPath></text><path d="M 120.92983693683757 101.71520430193887 l 9.080405434511917 0.7441410323274708 a30.110845664981213,30.110845664981213 0 0,0 -0.04677992839327086,0.5162126117111824 l -9.066250909841571 -0.9003350325872237" fill="#ff6c09" stroke="none" /><path d="M 120.81339534386255 102.79330883721812 l 11.907575487120507 1.5980831233200814 a33.01433409101452,33.01433409101452 0 0,0 -0.08043855875341561,0.5625870925724324 l -11.87830287735049 -1.8028156878729231" fill="#ff930d" stroke="none" /><path d="M 120.32669344350535 105.2749913415812 l 11.378780587720964 2.9529135786301994 a32.75569420605836,32.75569420605836 0 0,0 -0.14632736591575413,0.5445385636887683 l -11.326265145463433 -3.148343075494516" fill="#ff900d" stroke="none" /><path d="M 119.9155931802556 106.66101706037122 l 8.525355748360102 2.8514109307002666 a29.989562555086515,29.989562555086515 0 0,0 -0.16795464440379645,0.48815481446378844 l -8.475010273013075 -2.997738448253356" fill="#ff6a09" stroke="none" /><path d="M 119.41010516605496 108.01547362559984 l 12.206837488342863 5.040858001681912 a34.20670779793107,34.20670779793107 0 0,0 -0.22942767761809454,0.5422992580488164 l -12.11825882953246 -5.250231785396891" fill="#ffa30f" stroke="none" /><path d="M 119.12269723197855 108.67885076344098 l 10.875108165117638 4.935676157832942 a32.94273321890801,32.94273321890801 0 0,0 -0.23879619936149943,0.5143457691174758 l -10.788537348916307 -5.122141994229248" fill="#ff920d" stroke="none" /><path d="M 118.81262510543309 109.33194174019688 l 1.3862715118050026 0.6876554926150545 a22.54745558287331,22.54745558287331 0 0,0 -0.1754635802041986,0.346206289977051 l -1.374229261814535 -0.7114159942947998" fill="#ff0000" stroke="none" /><line stroke="#e1ed5e" stroke-width="0.3" x1="174.80103733775053" x2="179.2010983576182" y1="140.37084112569926" y2="142.7455964860345" /><path d="M 175.68104954172406 140.8457921977663 a86.0,86.0 0 0,1 -30.038265399797805,32.042727171017184" fill="none" id="id41" stroke="none" /><text fill="#e1ed5e" style="font-size:6.75px; font-family:Arial;" text-anchor="middle"><textPath startOffset="22.206326154141568" xlink:href="#id41">May</textPath></text><path d="M 118.12598468904814 110.60418214915192 l 1.5261243313365667 0.8928232407436447 a22.76810316834439,22.76810316834439 0 0,0 -0.20081372051681745,0.33657534636980907 l -1.510529735121522 -0.9189606809995579" fill="#ff0300" stroke="none" /><path d="M 116.498646956653 112.99209946851258 l 9.280632416216275 7.308168954640414 a32.81268265528598,32.81268265528598 0 0,0 -0.35325522884707306,0.44074021346123277 l -9.153459275314347 -7.466837001679897" fill="#ff900d" stroke="none" /><path d="M 116.0416608686014 113.55231037782055 l 11.25602645537249 9.50931237068765 a35.73516723106184,35.73516723106184 0 0,0 -0.4010123728447893,0.4664679858726942 l -11.090671572956921 -9.701657455721874" fill="#ffb711" stroke="none" /><path d="M 115.56566222782051 114.09645910891815 l 10.91011613078137 9.880338122475244 a35.719093565895065,35.719093565895065 0 0,0 -0.4166438224810901,0.45218458114890087 l -10.73842590030456 -10.066673958425481" fill="#ffb711" stroke="none" /><path d="M 114.81725581225074 114.88116024355365 l 6.262467769421371 6.289476781510291 a29.87558565663126,29.87558565663126 0 0,0 -0.3675409036757964,0.35971613135271896 l -6.153276913369781 -6.3963430157855825" fill="#ff6909" stroke="none" /><path d="M 114.55890576462653 115.13401014063108 l 8.429604411615069 8.762589765286766 a33.15899707751542,33.15899707751542 0 0,0 -0.41474668094301126,0.3921688740141927 l -8.27752189628125 -8.90639327604688" fill="#ff950d" stroke="none" /><path d="M 113.75828350139079 115.86535959552629 l 7.6970310816334795 8.875828581066335 a32.748387994618916,32.748387994618916 0 0,0 -0.42905772017949634,0.36565229734541893 l -7.543107884876936 -9.007005268634702" fill="#ff900d" stroke="none" /><path d="M 113.20401910651253 116.32954008644616 l 8.450890736770113 10.451299558041361 a34.44050656399313,34.44050656399313 0 0,0 -0.46419653952176876,0.368785805272662 l -8.269736704530994 -10.59521927731915" fill="#ffa60f" stroke="none" /><path d="M 112.04921762599082 117.19931262002967 l 8.668427496993024 12.373500012419639 a36.10778401447325,36.10778401447325 0 0,0 -0.5121168990587984,0.3522386729038371 l -8.454153713311342 -12.520879474688572" fill="#ffbc11" stroke="none" /><line stroke="#e1ed5e" stroke-width="0.3" x1="143.8653032363475" x2="146.44561519142675" y1="172.8068346515853" y2="177.08958963109032" /><path d="M 144.38136562736335 173.6633856474863 a86.0,86.0 0 0,1 -40.68145358897372,12.25698825130547" fill="none" id="id42" stroke="none" /><text fill="#e1ed5e" style="font-size:6.75px; font-family:Arial;" text-anchor="middle"><textPath startOffset="21.466115282336833" xlink:href="#id42">June</textPath></text><path d="M 110.5260780823613 118.17145234162733 l 7.403460401946554 12.780793264543 a35.77023704597114,35.77023704597114 0 0,0 -0.5354484820439064,0.3040416224515024 l -7.1823631529814485 -12.906338052789131" fill="#ffb711" stroke="none" /><path d="M 109.89434966115114 118.52300852407294 l 7.609749510927093 14.246055565471408 a37.15111100802524,37.15111100802524 0 0,0 -0.56665899224374,0.2964492027840056 l -7.363399616156858 -14.37493418720013" fill="#ffc912" stroke="none" /><path d="M 109.2508944713604 118.85261126421891 l 8.390046750919288 17.09826983470538 a40.045831980331215,40.045831980331215 0 0,0 -0.6214490162752903,0.29833329320666535 l -8.094485066643765 -17.240157404411605" fill="#ffee16" stroke="none" /><path d="M 108.59647513512805 119.15986991738527 l 3.1044931542873244 6.919311003703871 a28.58384747413833,28.58384747413833 0 0,0 -0.45064385416301844,0.197549022462964 l -2.984928625466552 -6.97172457946129" fill="#ff5708" stroke="none" /><path d="M 107.93186726928326 119.44442032107085 l 5.6323726967831105 13.807369488555546 a35.91197754789627,35.91197754789627 0 0,0 -0.5743845893331456,0.22855948204260668 l -5.3938670314080985 -13.90227581500422" fill="#ffb911" stroke="none" /><path d="M 106.57524785965236 119.94407469862006 l 2.8352839671289396 8.599997511760577 a30.05531845804147,30.05531845804147 0 0,0 -0.4927335529332357,0.15775772363647086 l -2.6868290691047636 -8.647528082056754" fill="#ff6b09" stroke="none" /><path d="M 105.88484417918355 120.15858648285463 l 6.161928970289516 21.10774291835574 a42.98877394813749,42.98877394813749 0 0,0 -0.7121168846644641,0.2012513447494778 l -5.797680917520447 -21.210683056443735" fill="#ecff1a" stroke="none" /><path d="M 105.18746579009965 120.34920634021253 l 4.004842947150972 15.710055504800621 a37.21248318411653,37.21248318411653 0 0,0 -0.6220628565872667,0.1528879154350426 l -3.7338268058204944 -15.776664678549695" fill="#ffca12" stroke="none" /><path d="M 104.48393922423573 120.51570834832081 l 3.135970205232173 14.348243118868988 a35.686946235561535,35.686946235561535 0 0,0 -0.6012545854120184,0.12599874426192206 l -2.888524158390777 -14.40009784385745" fill="#ffb610" stroke="none" /><path d="M 103.41894727170886 120.7198165907248 l 3.163124942569073 19.169458741263412 a40.42867745975785,40.42867745975785 0 0,0 -0.687603508112582,0.1073895266868193 l -2.832685570847974 -19.221066575297336" fill="#fff316" stroke="none" /><path d="M 101.98527174616119 120.90594882070398 l 1.3867984686908328 14.603712497869406 a35.669411328106875,35.669411328106875 0 0,0 -0.6117400558396149,0.05278350608575404 l -1.1352140951096763 -14.625420256233824" fill="#ffb610" stroke="none" /><path d="M 101.62511606390274 120.93702456842531 l 0.7116149318184276 9.168021682685474 a30.195597717678712,30.195597717678712 0 0,0 -0.5185550951206516,0.0357625954075691 l -0.5536970759188456 -9.17891262260933" fill="#ff6d0a" stroke="none" /><line stroke="#e1ed5e" stroke-width="0.3" x1="102.19456741930631" x2="102.32365962044197" y1="184.97166512339345" y2="189.96999836594603" /><path d="M 102.22038585953345 185.97133177190398 a86.0,86.0 0 0,1 -42.740103519485714,-10.115201625700543" fill="none" id="id43" stroke="none" /><text fill="#e1ed5e" style="font-size:6.75px; font-family:Arial;" text-anchor="middle"><textPath startOffset="22.20632615414155" xlink:href="#id43">July</textPath></text><path d="M 100.54218724476979 120.99299961872073 l 0.3824385652153414 14.807675265689019 a35.8126130723199,35.8126130723199 0 0,0 -0.6163867606958665,0.01061165707310354 l -0.1274921146268069 -14.812064400041283" fill="#ffb811" stroke="none" /><path d="M 99.81925306533755 120.99922214144158 l -0.066368342595009 7.7106899318356374 a28.710975553184582,28.710975553184582 0 0,0 -0.49415732892509834,-0.008507366557961077 l 0.19908536141277525 -7.708405087998517" fill="#ff5808" stroke="none" /><path d="M 99.09653310690486 120.98055641714683 l -0.5073907288238751 11.782766909318925 a32.79368650554344,32.79368650554344 0 0,0 -0.5637577194861305,-0.029139834627295844 l 0.7101365167234945 -11.772287267929427" fill="#ff900d" stroke="none" /><path d="M 98.01472825383883 120.90594882070398 l -1.4199523318729925 14.95284000055779 a36.02010947719998,36.02010947719998 0 0,0 -0.6167455826047169,-0.06392820135751816 l 1.6771305110833028 -14.926182430744513" fill="#ffbb11" stroke="none" /><path d="M 96.58105272829116 120.7198165907248 l -0.6820607107660569 4.133486628399684 a25.18938163937468,25.18938163937468 0 0,0 -0.42720115137363585,-0.07427439606128323 l 0.7531108336117427 -4.121133653817394" fill="#ff2703" stroke="none" /><path d="M 95.51606077576429 120.51570834832081 l -3.634867465023849 16.630885716329097 a38.02347265389433,38.02347265389433 0 0,0 -0.6382146647909165,-0.14525557985785273 l 3.9206022792076283 -16.565853402893556" fill="#ffd413" stroke="none" /><path d="M 94.46302465271185 120.25689768951611 l -2.8502952836135185 10.427740115069831 a31.81027044579487,31.81027044579487 0 0,0 -0.5269429343930945,-0.1489193367501936 l 3.029369386111227 -10.377131984981116" fill="#ff830c" stroke="none" /><path d="M 93.42475214034765 119.94407469862007 l -6.883924894210414 20.880355423906675 a42.985851463561715,42.985851463561715 0 0,0 -0.7007313338781821,-0.23772611402947638 l 7.242325961025822 -20.758766322979078" fill="#ecff1a" stroke="none" /><path d="M 90.7491055286396 118.85261126421891 l -4.095249150632842 8.345802722755533 a30.296423435542977,30.296423435542977 0 0,0 -0.46619861163734044,-0.23376166199938322 l 4.238301669952944 -8.274073219846848" fill="#ff6e0a" stroke="none" /><line stroke="#e1ed5e" stroke-width="0.3" x1="58.666819895761336" x2="56.23545636021788" y1="174.27360380694188" y2="178.64263932499728" /><path d="M 58.180547188652646 175.14741091055294 a86.0,86.0 0 0,1 -31.652253787137756,-30.449443065178592" fill="none" id="id44" stroke="none" /><text fill="#e1ed5e" style="font-size:6.75px; font-family:Arial;" text-anchor="middle"><textPath startOffset="22.20632615414155" xlink:href="#id44">August</textPath></text><path d="M 88.54995079064634 117.60387380957326 l -8.168856140244692 12.559204771272997 a35.9821171777149,35.9821171777149 0 0,0 -0.5163010618356637,-0.3421761907482768 l 8.383831900820319 -12.416730559433404" fill="#ffba11" stroke="none" /><path d="M 87.36589467227662 116.77436683061367 l -7.075145869846294 9.393707676354234 a32.76007793292202,32.76007793292202 0 0,0 -0.4475202481557051,-0.3431394430434422 l 7.2357948464954855 -9.270528891483425" fill="#ff900d" stroke="none" /><path d="M 86.79598089348748 116.32954008644616 l -3.8515040191933356 4.763192840542443 a27.12552767082618,27.12552767082618 0 0,0 -0.3605497643769142,-0.2967079099792087 l 3.9329239121149384 -4.696189811706054" fill="#ff4206" stroke="none" /><path d="M 85.97065885151581 115.62618273729859 l -5.962648958686839 6.64132700464488 a29.92526789441945,29.92526789441945 0 0,0 -0.38033654682597867,-0.34742841783304274 l 6.076085054979675 -6.537705820225258" fill="#ff6909" stroke="none" /><path d="M 85.70375840098266 115.38237550388516 l -10.035289134681557 10.797704046239751 a35.74101220021339,35.74101220021339 0 0,0 -0.447042054647465,-0.4227061656273429 l 10.219667023719838 -10.62336324386648" fill="#ffb711" stroke="none" /><path d="M 84.67929136418377 114.36230785411682 l -21.37664212775807 20.039406950694712 a50.300830356728675,50.300830356728675 0 0,0 -0.5867318607941984,-0.636781553942233 l 21.718420396547998 -19.668474141951137" fill="#98ff23" stroke="none" /><path d="M 83.95833913139862 113.55231037782056 l -9.048130746454714 7.6440386827443625 a32.84482998561952,32.84482998561952 0 0,0 -0.361142982214108,-0.43501998678630743 l 9.178369728562359 -7.487157438844294" fill="#ff910d" stroke="none" /><path d="M 83.72743513129214 113.27417163493432 l -14.763972722763954 12.043553644842188 a40.05313819177066,40.05313819177066 0 0,0 -0.4312046243405096,-0.5379940696067665 l 14.969095259159324 -11.787631741657162" fill="#ffee16" stroke="none" /><path d="M 83.28015986056508 112.70617746262583 l -24.60974011709423 18.702076253671034 a51.909658115693276,51.909658115693276 0 0,0 -0.5345180341537482,-0.7160742564376946 l 24.928019417943066 -18.275689117724035" fill="#86ff25" stroke="none" /><path d="M 82.64656182679789 111.8261652097733 l -7.324717443891352 4.99170929367385 a29.863895718328152,29.863895718328152 0 0,0 -0.28583572855817496,-0.42728563149354193 l 7.4095562778602595 -4.864886747974484" fill="#ff6809" stroke="none" /><path d="M 82.44556493220864 111.52570212397912 l -12.34071003548009 8.102530632177091 a35.76293083453171,35.76293083453171 0 0,0 -0.33343847279925726,-0.5175039144817809 l 12.478353371656393 -7.888905117773862" fill="#ffb711" stroke="none" /><path d="M 82.05923443525364 110.91462005526583 l -26.55161730272699 16.15320225138811 a52.07916222108828,52.07916222108828 0 0,0 -0.4593360390933189,-0.7698736224800092 l 26.82573421751854 -15.693766535021988" fill="#84ff25" stroke="none" /><line stroke="#e1ed5e" stroke-width="0.3" x1="26.63291911575756" x2="22.317208475507996" y1="142.92168965132927" y2="145.44649492493687" /><path d="M 25.769776987707644 143.4266507060508 a86.0,86.0 0 0,1 -11.730757126820373,-40.83630448921669" fill="none" id="id45" stroke="none" /><text fill="#e1ed5e" style="font-size:6.75px; font-family:Arial;" text-anchor="middle"><textPath startOffset="21.46611528233685" xlink:href="#id45">September</textPath></text><path d="M 80.87730276802145 108.67885076344099 l -8.04888404390023 3.652992178971185 a29.839054599434057,29.839054599434057 0 0,0 -0.2082466416541509,-0.46954120142229805 l 8.110571770285661 -3.513902641056191" fill="#ff6809" stroke="none" /><path d="M 80.73074385275274 108.34839909993369 l -9.031709612273803 3.9129853182599623 a30.842928051213065,30.842928051213065 0 0,0 -0.20686648348426873,-0.4889712595854593 l 9.097727076950378 -3.756939533008344" fill="#ff760a" stroke="none" /><path d="M 80.58989483394504 108.01547362559985 l -13.885649061479635 5.734129355531292 a36.02303196177576,36.02303196177576 0 0,0 -0.23174368783611754,-0.5751688280477256 l 13.98229536357314 -5.494261159640761" fill="#ffbb11" stroke="none" /><path d="M 79.76711848015287 105.62410040840567 l -60.698644559541364 16.872301225217015 a84.0,84.0 0 0,0 -0.37524769463290975,-1.3964362672978443 l 60.980080330516046 -15.824974024743632" fill="#4dd2ff" stroke="none" /><line stroke="#e1ed5e" stroke-width="0.3" x1="15.007084014347285" x2="10.007500721073583" y1="101.09737516637583" y2="101.16192664675087" /><path d="M 14.007167355692545 101.11028546245083 a86.0,86.0 0 0,1 10.666146001902534,-42.60595125391555" fill="none" id="id46" stroke="none" /><text fill="#e1ed5e" style="font-size:6.75px; font-family:Arial;" text-anchor="middle"><textPath startOffset="22.20632615414155" xlink:href="#id46">October</textPath></text><path d="M 79.08570108090925 98.10471618934814 l -7.720254842912499 -0.6996205837204681 a28.75189033724544,28.75189033724544 0 0,0 0.04890953166265537,-0.49251230918143024 l 7.707068185567614 0.8324084236063287" fill="#ff5908" stroke="none" /><path d="M 81.43458229118936 90.18545643968196 l -8.311678169862757 -4.393939782930344 a30.40163288027091,30.40163288027091 0 0,0 0.24855781600361515,-0.46053988366471177 l 8.234812254640671 4.536360649927529" fill="#ff700a" stroke="none" /><line stroke="#e1ed5e" stroke-width="0.3" x1="26.266209847984257" x2="21.92892807433627" y1="57.711370442889674" y2="55.22380399835377" /><path d="M 25.39875349325466 57.213857153982495 a86.0,86.0 0 0,1 29.58750427330802,-30.492523968695096" fill="none" id="id47" stroke="none" /><text fill="#e1ed5e" style="font-size:6.75px; font-family:Arial;" text-anchor="middle"><textPath startOffset="21.46611528233685" xlink:href="#id47">November</textPath></text><path d="M 81.78341655067847 89.55222093294921 l -9.807141959507408 -5.624701951229667 a32.30563158138888,32.30563158138888 0 0,0 0.2808133573956417,-0.4800010547763633 l 9.70886892764144 5.792682418359923" fill="#ff8a0c" stroke="none" /><path d="M 82.7489923806493 88.02491185347247 l -8.010110904387943 -5.560358343121362 a30.750869787076123,30.750869787076123 0 0,0 0.3055865930769995,-0.4322305644234667 l 7.9132116915070645 5.6974154078766155" fill="#ff750a" stroke="none" /><path d="M 83.17141714833178 87.43820079747576 l -7.6266103896355055 -5.692930245816231 a30.517071021014054,30.517071021014054 0 0,0 0.31784846029453917,-0.41825131596989473 l 7.5274859891168555 5.823366337667152" fill="#ff710a" stroke="none" /><path d="M 83.6137871275137 86.86637796730984 l -12.625448935638591 -10.119353117408137 a37.18033585378299,37.18033585378299 0 0,0 0.40456013369978955,-0.495942888187277 l 12.449390309862409 10.335180175203496" fill="#ffca12" stroke="none" /><path d="M 85.05521093208273 85.24692304244772 l -6.4338783200262695 -6.351344375588627 a30.040706035162593,30.040706035162593 0 0,0 0.3664454011383996,-0.364871768129943 l 6.323597118720557 6.461151994368682" fill="#ff6b09" stroke="none" /><path d="M 86.93701828274178 83.55741782278169 l -6.896287212193591 -8.680466042020361 a32.086445238205684,32.086445238205684 0 0,0 0.4354091577880232,-0.33984375399917116 l 6.745845499246141 8.797888185242755" fill="#ff870c" stroke="none" /><path d="M 88.70189139769569 82.29822771554957 l -8.091902758513589 -12.678318559436486 a36.04056686923041,36.04056686923041 0 0,0 0.5258161631609379,-0.32926603313291325 l 7.872467442980408 12.815728933892329" fill="#ffbb11" stroke="none" /><line stroke="#e1ed5e" stroke-width="0.3" x1="56.762969772571076" x2="54.21961505331055" y1="26.818313649435495" y2="22.513508569990535" /><path d="M 56.25429882871897 25.957352633546506 a86.0,86.0 0 0,1 42.265352541879196,-11.944610805530505" fill="none" id="id48" stroke="none" /><text fill="#e1ed5e" style="font-size:6.75px; font-family:Arial;" text-anchor="middle"><textPath startOffset="22.20632615414155" xlink:href="#id48">December</textPath></text><path d="M 89.94658935756843 81.56283822128135 l -7.941947234554366 -14.564904509472061 a37.58948369439162,37.58948369439162 0 0,0 0.5707425273523936,-0.3048708920462103 l 7.6900596606736675 14.699454128020024" fill="#ffcf13" stroke="none" /><path d="M 90.91171255644093 81.06846463323043 l -4.5987400581872375 -9.579495652489788 a31.62615391752099,31.62615391752099 0 0,0 0.492798412124053,-0.23137546219752997 l 4.433163434763577 9.657236097327326" fill="#ff800b" stroke="none" /><path d="M 91.56875222667455 80.76684994638697 l -9.282312167942333 -21.17457671393969 a44.11977547896275,44.11977547896275 0 0,0 0.6981770473478193,-0.29892297530108153 l 8.916451362804205 21.331219217203557" fill="#dfff1b" stroke="none" /><path d="M 92.57280143429618 80.3572730644239 l -4.423863690849236 -11.699801171443024 a33.50823398432064,33.50823398432064 0 0,0 0.5412659618871349,-0.19935282169438834 l 4.221815403189533 11.774217260943734" fill="#ff9a0e" stroke="none" /><path d="M 93.25333710446033 80.11325718540243 l -5.704790613716986 -16.81567695061857 a38.757016282414064,38.757016282414064 0 0,0 0.6336166403992088,-0.20889344437289384 l 5.414491151075367 16.911384119250698" fill="#ffde14" stroke="none" /><path d="M 93.94186890950719 79.89281104454417 l -2.572253739911892 -8.53741710392388 a29.91650044069212,29.91650044069212 0 0,0 0.4943484906857973,-0.14431388035936163 l 2.4249150315026733 8.580429313201941" fill="#ff6909" stroke="none" /><path d="M 94.28887869178378 79.79150937346287 l -6.398485237991568 -22.640690326428132 a44.52746207728348,44.52746207728348 0 0,0 0.7393723816123524,-0.20209840184818162 l 6.007814967155492 22.74747526910261" fill="#daff1c" stroke="none" /><path d="M 94.98787191387505 79.60689891045804 l -3.838089918899086 -15.616232139704683 a37.08097137820661,37.08097137820661 0 0,0 0.6211527331082536,-0.14700678328681246 l 3.568713498828298 15.679984835132366" fill="#ffc812" stroke="none" /><path d="M 95.692805502759 79.44645832069477 l -3.100772435992167 -14.796604969204328 a36.11801271048847,36.11801271048847 0 0,0 0.6095922346614302,-0.12227846752708343 l 2.8456137918636006 14.847787392808621" fill="#ffbc11" stroke="none" /><path d="M 96.40284397218896 79.31037775812273 l -1.7593642241140064 -10.119266693289095 a31.271072041564224,31.271072041564224 0 0,0 0.5311180042834671,-0.08763902150143821 l 1.5849170136916535 10.14805197773016" fill="#ff7c0b" stroke="none" /><path d="M 96.75951476605007 79.25152402106235 l -4.816082301243425 -30.83685334931548 a52.21067402699819,52.21067402699819 0 0,0 0.8891503135610871,-0.13103764318554476 l 4.284563007253689 30.915185476661993" fill="#83ff25" stroke="none" /><path d="M 98.19473922651362 79.07773832637324 l -1.3579024651891107 -15.737554995493712 a36.79602913206847,36.79602913206847 0 0,0 0.6315071377003253,-0.04901710797501536 l 1.0868051381264512 15.758597365657188" fill="#ffc512" stroke="none" /><path d="M 99.27714615592234 79.0124445844662 l -0.3564641550061504 -10.349687240563718 a31.355824094261724,31.355824094261724 0 0,0 0.539579031389564,-0.013935734467588208 l 0.17825848842170738 10.354289767173665" fill="#ff7d0b" stroke="none" /></svg>