<?xml version="1.0" encoding="utf-8" ?>
<svg baseProfile="full" height="200mm" version="1.1" viewBox="0,0,200,200" width="200mm" xmlns="http://www.w3.org/2000/svg" xmlns:ev="http://www.w3.org/2001/xml-events" xmlns:xlink="http://www.w3.org/1999/xlink"><defs /><rect fill="#1a1a1a" height="200" width="200" x="0" y="0" /><text alignment-baseline="middle" fill="#e1ed5e" style="dominant-baseline: central; font-size:9.0px; font-family:Arial;" text-anchor="middle" x="100.0" y="100.0">2022</text><line stroke="#e1ed5e" stroke-width="0.3" x1="100.0" x2="100.0" y1="15.0" y2="10.0" /><path d="M 100.0 14.0 a86.0,86.0 0 0,1 42.46469731375804,11.215312516191453" fill="none" id="id37" stroke="none" /><text fill="#e1ed5e" style="font-size:6.75px; font-family:Arial;" text-anchor="middle"><textPath startOffset="22.20632615414155" xlink:href="#id37">January</textPath></text><path d="M 100.0 79.0 l 0.0 -55.37463019248082 a76.37463019248082,76.37463019248082 0 0,0 1.3146637107733372,0.011315725612772323 l -0.953183231500809 55.366425843476605" fill="#43ffdc" stroke="none" /><path d="M 100.36148047927253 79.00311137660856 l 0.5998095931499825 -34.84042969058064 a55.84559244111553,55.84559244111553 0 0,0 0.961005221427713,0.02481992962790478 l -1.1994414497725634 34.824942968810376" fill="#76ff27" stroke="none" /><path d="M 100.72285384407766 79.0124445844662 l 0.5534516001097103 -16.06907983167682 a37.07860800288591,37.07860800288591 0 0,0 0.6376799620230735,0.027459840560145818 l -0.8299723945221154 16.05717226459248" fill="#ff930d" stroke="none" /><path d="M 102.52436894288641 79.15227682838746 l 5.430464229490723 -44.847966961722065 a66.17554739399947,66.17554739399947 0 0,0 1.129664717794276,0.14666290196418472 l -6.2016436757928455 44.74784573659374" fill="#35ff63" stroke="none" /><path d="M 102.88285421437855 79.19881850522331 l 4.635491480888024 -33.44730341566314 a54.76699404816509,54.76699404816509 0 0,0 0.9326845676334772,0.13745346058388971 l -5.210545028950157 33.36255547091828" fill="#83ff25" stroke="none" /><path d="M 110.05341064243156 81.56283822128135 l 13.031921388396961 -23.89951544516892 a48.221642374905045,48.221642374905045 0 0,0 0.7253359624578897,0.40364867780323166 l -13.441381439926888 23.67165136980551" fill="#d3ff1c" stroke="none" /><line stroke="#e1ed5e" stroke-width="0.3" x1="143.23703022742887" x2="145.7803849466894" y1="26.81831364943548" y2="22.513508569990506" /><path d="M 143.74570117128098 25.957352633546492 a86.0,86.0 0 0,1 28.547481713284135,27.462654790039103" fill="none" id="id38" stroke="none" /><text fill="#e1ed5e" style="font-size:6.75px; font-family:Arial;" text-anchor="middle"><textPath startOffset="19.985693538727396" xlink:href="#id38">February</textPath></text><path d="M 111.60114157652 82.49532879139004 l 28.10714980866912 -42.41017254781959 a71.87862621870602,71.87862621870602 0 0,0 1.025452332744342,0.6923899925895578 l -28.833006835820004 41.920070642931364" fill="#3cffa9" stroke="none" /><line stroke="#e1ed5e" stroke-width="0.3" x1="172.23445277983987" x2="176.4835382374775" y1="55.19839476539836" y2="52.563006222186495" /><path d="M 173.08426987136738 54.67131705675599 a86.0,86.0 0 0,1 12.851231095245387,41.99856678651699" fill="none" id="id39" stroke="none" /><text fill="#e1ed5e" style="font-size:6.75px; font-family:Arial;" text-anchor="middle"><textPath startOffset="22.20632615414155" xlink:href="#id39">March</textPath></text><path d="M 118.03404312379186 89.2402003453031 l 25.227772229794294 -15.05185348973692 a50.376840966225174,50.376840966225174 0 0,0 0.4378954737681569,0.74850531057314 l -25.483127378032776 14.615368766809885" fill="#b8ff1f" stroke="none" /><line stroke="#e1ed5e" stroke-width="0.3" x1="184.98032266829074" x2="189.97916517819016" y1="98.17113171792111" y2="98.06355123074" /><path d="M 185.9800911702706 98.14961562048488 a86.0,86.0 0 0,1 -9.607161424134198,41.387399972396054" fill="none" id="id40" stroke="none" /><text fill="#e1ed5e" style="font-size:6.75px; font-family:Arial;" text-anchor="middle"><textPath startOffset="21.466115282336823" xlink:href="#id40">April</textPath></text><line stroke="#e1ed5e" stroke-width="0.3" x1="174.80103733775053" x2="179.2010983576182" y1="140.37084112569926" y2="142.7455964860345" /><path d="M 175.68104954172406 140.8457921977663 a86.0,86.0 0 0,1 -30.038265399797805,32.042727171017184" fill="none" id="id41" stroke="none" /><text fill="#e1ed5e" style="font-size:6.75px; font-family:Arial;" text-anchor="middle"><textPath startOffset="22.206326154141568" xlink:href="#id41">May</textPath></text><path d="M 113.75828350139079 115.86535959552629 l 12.196972528287008 14.064934417034465 a39.61688800555207,39.61688800555207 0 0,0 -0.5190463619480029,0.4423425701224307 l -11.953060689761957 -14.272801377379842" fill="#ffb711" stroke="none" /><path d="M 111.7513745106137 117.40417183066458 l 14.093728025702674 20.87327436228329 a46.18584428335945,46.18584428335945 0 0,0 -0.6627125448872567,0.43920973814071906 l -13.732340782075454 -21.11278212151533" fill="#edff1a" stroke="none" /><line stroke="#e1ed5e" stroke-width="0.3" x1="143.8653032363475" x2="146.44561519142675" y1="172.8068346515853" y2="177.08958963109032" /><path d="M 144.38136562736335 173.6633856474863 a86.0,86.0 0 0,1 -40.68145358897372,12.25698825130547" fill="none" id="id42" stroke="none" /><text fill="#e1ed5e" style="font-size:6.75px; font-family:Arial;" text-anchor="middle"><textPath startOffset="21.466115282336833" xlink:href="#id42">June</textPath></text><line stroke="#e1ed5e" stroke-width="0.3" x1="102.19456741930631" x2="102.32365962044197" y1="184.97166512339345" y2="189.96999836594603" /><path d="M 102.22038585953345 185.97133177190398 a86.0,86.0 0 0,1 -42.740103519485714,-10.115201625700543" fill="none" id="id43" stroke="none" /><text fill="#e1ed5e" style="font-size:6.75px; font-family:Arial;" text-anchor="middle"><textPath startOffset="22.20632615414155" xlink:href="#id43">July</textPath></text><path d="M 98.73552117531835 120.96189622390904 l -0.6675238404138006 11.065875676694027 a32.085990824891084,32.085990824891084 0 0,0 -0.551019197560062,-0.03800150998334887 l 0.8579057987527927 -11.052745822194394" fill="#ff4906" stroke="none" /><line stroke="#e1ed5e" stroke-width="0.3" x1="58.666819895761336" x2="56.23545636021788" y1="174.27360380694188" y2="178.64263932499728" /><path d="M 58.180547188652646 175.14741091055294 a86.0,86.0 0 0,1 -31.652253787137756,-30.449443065178592" fill="none" id="id44" stroke="none" /><text fill="#e1ed5e" style="font-size:6.75px; font-family:Arial;" text-anchor="middle"><textPath startOffset="22.20632615414155" xlink:href="#id44">August</textPath></text><line stroke="#e1ed5e" stroke-width="0.3" x1="26.63291911575756" x2="22.317208475507996" y1="142.92168965132927" y2="145.44649492493687" /><path d="M 25.769776987707644 143.4266507060508 a86.0,86.0 0 0,1 -11.730757126820373,-40.83630448921669" fill="none" id="id45" stroke="none" /><text fill="#e1ed5e" style="font-size:6.75px; font-family:Arial;" text-anchor="middle"><textPath startOffset="21.46611528233685" xlink:href="#id45">September</textPath></text><path d="M 80.32549172779594 107.34259656027581 l -22.81167618871356 8.513398800111906 a45.348522124935386,45.348522124935386 0 0,0 -0.26664010865225374,-0.7336790616411255 l 22.95484055837104 -8.119471941464663" fill="#f8ff18" stroke="none" /><path d="M 79.0095281055655 100.63252640178507 l -47.364677141808315 1.4272861017556917 a68.38617716554063,68.38617716554063 0 0,0 -0.02532873329550236,-1.176926708895568 l 47.38222793778883 -0.6117695770699949" fill="#38ff7e" stroke="none" /><line stroke="#e1ed5e" stroke-width="0.3" x1="15.007084014347285" x2="10.007500721073583" y1="101.09737516637583" y2="101.16192664675087" /><path d="M 14.007167355692545 101.11028546245083 a86.0,86.0 0 0,1 10.666146001902534,-42.60595125391555" fill="none" id="id46" stroke="none" /><text fill="#e1ed5e" style="font-size:6.75px; font-family:Arial;" text-anchor="middle"><textPath startOffset="22.20632615414155" xlink:href="#id46">October</textPath></text><path d="M 79.08570108090925 98.10471618934814 l -24.171220084323775 -2.1904306850900372 a45.27026713802304,45.27026713802304 0 0,0 0.07700876491921572,-0.7754677533854288 l 24.12993419372233 2.6061739691798964" fill="#f9ff18" stroke="none" /><path d="M 81.10775173730289 90.83032412892265 l -13.670937072901749 -6.635423167708646 a36.19616270858548,36.19616270858548 0 0,0 0.2768833861258731,-0.5581800107765175 l 13.554693673822463 6.869762766984126" fill="#ff860c" stroke="none" /><line stroke="#e1ed5e" stroke-width="0.3" x1="26.266209847984243" x2="21.928928074336255" y1="57.711370442889674" y2="55.22380399835377" /><path d="M 25.398753493254645 57.213857153982495 a86.0,86.0 0 0,1 29.58750427330803,-30.492523968695096" fill="none" id="id47" stroke="none" /><text fill="#e1ed5e" style="font-size:6.75px; font-family:Arial;" text-anchor="middle"><textPath startOffset="21.46611528233685" xlink:href="#id47">November</textPath></text><path d="M 83.17141714833178 87.43820079747576 l -5.175008615718577 -3.862917018918529 a27.457773770256427,27.457773770256427 0 0,0 0.2859845595923078,-0.37632215769021066 l 5.107748115902161 3.951423952489766" fill="#ff0000" stroke="none" /><path d="M 84.80347519578584 85.50635884689758 l -18.721575987862856 -17.85564842518314 a46.8712502240048,46.8712502240048 0 0,0 0.5618651755378679,-0.5790514527350539 l 18.41144654862187 18.175264073468316" fill="#e4ff1a" stroke="none" /><path d="M 85.05521093208273 85.24692304244772 l -19.792201523083868 -19.538306690208298 a48.81144853205244,48.81144853205244 0 0,0 0.5954164598041708,-0.592859552303044 l 19.452949263112384 19.87610209316145" fill="#cbff1d" stroke="none" /><line stroke="#e1ed5e" stroke-width="0.3" x1="56.762969772571076" x2="54.21961505331055" y1="26.818313649435495" y2="22.513508569990535" /><path d="M 56.25429882871897 25.957352633546506 a86.0,86.0 0 0,1 42.265352541879196,-11.944610805530505" fill="none" id="id48" stroke="none" /><text fill="#e1ed5e" style="font-size:6.75px; font-family:Arial;" text-anchor="middle"><textPath startOffset="22.20632615414155" xlink:href="#id48">December</textPath></text><path d="M 91.90106846888425 80.62456947434976 l -6.1915438218010035 -14.812302919826928 a37.05426836346009,37.05426836346009 0 0,0 0.5906029200881454,-0.24092176026013143 l 5.935657032124477 14.916685566270637" fill="#ff930d" stroke="none" /><path d="M 92.57280143429618 80.3572730644239 l -14.239168374510246 -37.65835714447355 a61.26047415044158,61.26047415044158 0 0,0 0.989554074446782,-0.36446111680911575 l 13.588831974290894 37.897881529088984" fill="#3aff2e" stroke="none" /><path d="M 92.91201910852362 80.23233633223022 l -21.26394267442915 -59.30299100330936 a84.0,84.0 0 0,0 1.3652719837468588,-0.4763165873111608 l 20.239988686619004 59.66022844379273" fill="#4dd2ff" stroke="none" /><path d="M 93.59665428221793 80.00007090966166 l -11.596070999225473 -36.21865942158883 a59.0297272264228,59.0297272264228 0 0,0 0.9703773944503283,-0.3015009800108303 l 10.970908232064415 36.412900536482184" fill="#52ff2b" stroke="none" /><path d="M 93.94186890950719 79.89281104454417 l -9.658309756548585 -32.056331625113 a54.47971542012658,54.47971542012658 0 0,0 0.9002378184013377,-0.2628041053377407 l 9.105081720423826 32.21783405936944" fill="#86ff25" stroke="none" /></svg>