<?xml version="1.0" encoding="utf-8" ?>
<svg baseProfile="full" height="200mm" version="1.1" viewBox="0,0,200,200" width="200mm" xmlns="http://www.w3.org/2000/svg" xmlns:ev="http://www.w3.org/2001/xml-events" xmlns:xlink="http://www.w3.org/1999/xlink"><defs /><rect fill="#1a1a1a" height="200" width="200" x="0" y="0" /><text alignment-baseline="middle" fill="#e1ed5e" style="dominant-baseline: central; font-size:9.0px; font-family:Arial;" text-anchor="middle" x="100.0" y="100.0">2023</text><line stroke="#e1ed5e" stroke-width="0.3" x1="100.0" x2="100.0" y1="15.0" y2="10.0" /><path d="M 100.0 14.0 a86.0,86.0 0 0,1 42.46469731375804,11.215312516191453" fill="none" id="id25" stroke="none" /><text fill="#e1ed5e" style="font-size:6.75px; font-family:Arial;" text-anchor="middle"><textPath startOffset="22.20632615414155" xlink:href="#id25">January</textPath></text><path d="M 101.08401301168833 79.027996857942 l 0.8087777371208809 -15.647126982090528 a36.66801532491361,36.66801532491361 0 0,0 0.6300576915695019,0.03800680056839411 l -1.0779974775299945 15.630886912141829" fill="#ff5908" stroke="none" /><path d="M 101.44485096284872 79.0497635885617 l 1.5507355698710354 -22.485555697986804 a43.53896616650662,43.53896616650662 0 0,0 0.7472319310204802,0.05799957919492079 l -1.937557690253857 22.455530856603417" fill="#ffc412" stroke="none" /><path d="M 101.80526077348638 79.07773832637324 l 3.2329896124431046 -37.469076851994366 a58.60829618548047,58.60829618548047 0 0,0 1.0043644352955767,0.09537650519199775 l -3.8774791748289252 37.40787480228719" fill="#6cff28" stroke="none" /><path d="M 104.66035177308747 79.52364482259891 l 2.492447005374674 -10.951154038977219 a32.23120950120726,32.23120950120726 0 0,0 0.5399131449082463,0.12777999750569421 l -2.6805838372454436 10.906628129330656" fill="#ff0f01" stroke="none" /><line stroke="#e1ed5e" stroke-width="0.3" x1="143.23703022742887" x2="145.7803849466894" y1="26.81831364943548" y2="22.513508569990506" /><path d="M 143.74570117128098 25.957352633546492 a86.0,86.0 0 0,1 28.547481713284135,27.462654790039103" fill="none" id="id26" stroke="none" /><text fill="#e1ed5e" style="font-size:6.75px; font-family:Arial;" text-anchor="middle"><textPath startOffset="19.985693538727396" xlink:href="#id26">February</textPath></text><path d="M 111.60114157652 82.49532879139004 l 11.675875381914343 -17.61743517092931 a42.1352806448339,42.1352806448339 0 0,0 0.6011205848121493,0.4058793022096337 l -11.977400661133036 17.413843956421005" fill="#ffaf10" stroke="none" /><path d="M 111.90073688211348 82.69761687909136 l 22.44376077810102 -32.630798538229854 a60.6041842626151,60.6041842626151 0 0,0 0.8544291319568994,0.5985822099044634 l -23.00212104964157 32.23963148556146" fill="#54ff2b" stroke="none" /><path d="M 112.19680574252982 82.90503203632743 l 23.94557080294186 -33.56196486107507 a62.22858045597422,62.22858045597422 0 0,0 0.8666209433811785,0.6296369710265483 l -24.519737062676825 33.14480865523184" fill="#41ff2d" stroke="none" /><path d="M 113.89432698308785 84.25364557470407 l 17.396376049018627 -19.715204868649153 a47.29302574166154,47.29302574166154 0 0,0 0.6057763946593789,0.5438720283290663 l -17.733163431273997 19.41283383155079" fill="#fffb17" stroke="none" /><path d="M 114.42810811169701 84.74124197986012 l 8.44640026191168 -8.932673413589884 a33.293670391639644,33.293670391639644 0 0,0 0.4130266199365347,0.3973312811383843 l -8.598910125460632 8.785959045689198" fill="#ff2103" stroke="none" /><path d="M 115.19652480421416 85.50635884689758 l 29.98275531470409 -28.595965321761415 a62.4330164113693,62.4330164113693 0 0,0 0.7350229449926129,0.7840712297253524 l -30.470545581667164 28.07562467515801" fill="#3eff2d" stroke="none" /><path d="M 115.4437574822437 85.77008943001954 l 29.53413677560533 -27.212815635160947 a61.15971326931286,61.15971326931286 0 0,0 0.7067044458523141,0.7803607000907599 l -29.99818486207368 26.700402147800638" fill="#4dff2c" stroke="none" /><path d="M 115.68641384162765 86.03803664274999 l 31.51981392705671 -28.054754357496982 a63.196776086044466,63.196776086044466 0 0,0 0.7162546144822596,0.8188028414827743 l -31.998060405116817 27.50803595981126" fill="#35ff2f" stroke="none" /><path d="M 115.9244219780498 86.31012108654704 l 15.92402308158391 -13.689535990844863 a41.99947396358904,41.99947396358904 0 0,0 0.4665729292775943,0.5522751835871651 l -16.15730662434862 13.413401857628592" fill="#ffad10" stroke="none" /><path d="M 116.38621287248628 86.86637796730983 l 8.385707938213379 -6.721181971335719 a31.746831380310347,31.746831380310347 0 0,0 0.3380975853465667,0.4293495990427857 l -8.50015960415391 6.5758399783398955" fill="#ff0701" stroke="none" /><path d="M 116.60985879189232 87.15038557335679 l 16.591463281986684 -12.835383408039709 a41.976742384576625,41.976742384576625 0 0,0 0.43720588145338696,0.5753116912952876 l -16.809945103664184 12.547886940863387" fill="#ffad10" stroke="none" /><path d="M 117.2510076193507 88.02491185347247 l 25.505383399701564 -17.70500721823356 a52.0482183540936,52.0482183540936 0 0,0 0.5045592315440497,0.7403784129518263 l -25.80636709691435 17.26335078201133" fill="#c0ff1e" stroke="none" /><line stroke="#e1ed5e" stroke-width="0.3" x1="172.23445277983987" x2="176.4835382374775" y1="55.19839476539836" y2="52.563006222186495" /><path d="M 173.08426987136738 54.67131705675599 a86.0,86.0 0 0,1 12.851231095245387,41.99856678651699" fill="none" id="id27" stroke="none" /><text fill="#e1ed5e" style="font-size:6.75px; font-family:Arial;" text-anchor="middle"><textPath startOffset="22.20632615414155" xlink:href="#id27">March</textPath></text><path d="M 118.03404312379186 89.2402003453031 l 38.765735156789184 -23.129119792544298 a66.14131593810913,66.14131593810913 0 0,0 0.5749265401096842,0.9827358222235943 l -39.1581213713692 22.45840455796681" fill="#33ff51" stroke="none" /><path d="M 118.21658344932153 89.55222093294921 l 36.897573910473554 -21.161910047471757 a63.53536643002085,63.53536643002085 0 0,0 0.535943079560165,0.9533829364016616 l -37.256374631326146 20.5236436011353" fill="#32ff2f" stroke="none" /><path d="M 118.3937258080291 89.86733742301442 l 12.107916611400835 -6.669960986373386 a34.82353153967463,34.82353153967463 0 0,0 0.2847103962844037,0.5275251242996383 l -12.220935106903704 6.46055487874129" fill="#ff3a05" stroke="none" /><line stroke="#e1ed5e" stroke-width="0.3" x1="184.98032266829074" x2="189.97916517819016" y1="98.17113171792111" y2="98.06355123074" /><path d="M 185.9800911702706 98.14961562048488 a86.0,86.0 0 0,1 -9.607161424134198,41.387399972396054" fill="none" id="id28" stroke="none" /><text fill="#e1ed5e" style="font-size:6.75px; font-family:Arial;" text-anchor="middle"><textPath startOffset="21.466115282336823" xlink:href="#id28">April</textPath></text><path d="M 120.02730092923936 106.31721596034902 l 11.78386377054508 3.7169867546746476 a33.356190185376384,33.356190185376384 0 0,0 -0.17743547239439766,0.5460902322991558 l -11.718136047134436 -3.9192758869515987" fill="#ff2203" stroke="none" /><line stroke="#e1ed5e" stroke-width="0.3" x1="174.80103733775053" x2="179.2010983576182" y1="140.37084112569926" y2="142.7455964860345" /><path d="M 175.68104954172406 140.8457921977663 a86.0,86.0 0 0,1 -30.038265399797805,32.042727171017184" fill="none" id="id29" stroke="none" /><text fill="#e1ed5e" style="font-size:6.75px; font-family:Arial;" text-anchor="middle"><textPath startOffset="22.206326154141568" xlink:href="#id29">May</textPath></text><path d="M 112.34349029814194 116.9893568818739 l 12.391551994980688 17.055508132469914 a42.081767442533305,42.081767442533305 0 0,0 -0.5896911501979089,0.4207289783950943 l -12.096133516933893 -17.26628137270923" fill="#ffae10" stroke="none" /><path d="M 111.45004920935366 117.60387380957326 l 12.539007303592875 19.278092018106395 a43.99720713517476,43.99720713517476 0 0,0 -0.638416651104685,0.40746771237341217 l -12.20530885044126 -19.49107415930362" fill="#ffcb12" stroke="none" /><line stroke="#e1ed5e" stroke-width="0.3" x1="143.8653032363475" x2="146.44561519142675" y1="172.8068346515853" y2="177.08958963109032" /><path d="M 144.38136562736335 173.6633856474863 a86.0,86.0 0 0,1 -40.68145358897372,12.25698825130547" fill="none" id="id30" stroke="none" /><text fill="#e1ed5e" style="font-size:6.75px; font-family:Arial;" text-anchor="middle"><textPath startOffset="21.466115282336833" xlink:href="#id30">June</textPath></text><path d="M 110.21172684928248 118.3499491758327 l 13.283857404004516 23.870410149055154 a48.31771125504552,48.31771125504552 0 0,0 -0.730235206431852,0.39818245801227525 l -12.870999385704016 -24.0955332588272" fill="#f4ff19" stroke="none" /><path d="M 107.59598834532513 119.57807347666477 l 8.982708086085436 23.15223654036347 a45.83374924132009,45.83374924132009 0 0,0 -0.7379883577474516,0.27904404974650726 l -8.582849507577711 -23.30342884021661" fill="#ffe615" stroke="none" /><path d="M 105.88484417918355 120.15858648285463 l 7.301134335645265 25.010101108312423 a47.05401543016256,47.05401543016256 0 0,0 -0.7794583516037383,0.22028271596224883 l -6.869544815936921 -25.132072617613193" fill="#fff817" stroke="none" /><line stroke="#e1ed5e" stroke-width="0.3" x1="102.19456741930631" x2="102.32365962044197" y1="184.97166512339345" y2="189.96999836594603" /><path d="M 102.22038585953345 185.97133177190398 a86.0,86.0 0 0,1 -42.740103519485714,-10.115201625700543" fill="none" id="id31" stroke="none" /><text fill="#e1ed5e" style="font-size:6.75px; font-family:Arial;" text-anchor="middle"><textPath startOffset="22.20632615414155" xlink:href="#id31">July</textPath></text><path d="M 100.54218724476979 120.99299961872073 l 0.7893656328156992 30.563523189792317 a51.57371498322118,51.57371498322118 0 0,0 -0.8876580731867915,0.015281838727677985 l -0.2631478697362397 -30.572582505799154" fill="#c7ff1e" stroke="none" /><path d="M 99.81925306533755 120.99922214144158 l -0.193630050006669 22.495985566460885 a43.49681886851299,43.49681886851299 0 0,0 -0.7486430333579899,-0.012888568747314233 l 0.5808327732573267 -22.48931952043441" fill="#ffc412" stroke="none" /><path d="M 98.37488393609728 120.93702456842531 l -3.357523067473208 43.25632151092277 a64.38643004217948,64.38643004217948 0 0,0 -1.1042446971441737,-0.09527887888896461 l 4.1016120823589235 -43.19211837975514" fill="#30ff39" stroke="none" /><path d="M 98.01472825383883 120.90594882070398 l -3.2312933257687066 34.02720711853547 a55.180287898800216,55.180287898800216 0 0,0 -0.9448110875393997,-0.09793353232291559 l 3.8165370099136995 -33.9665442177568" fill="#97ff23" stroke="none" /><path d="M 97.65516085044442 120.86867818915974 l -2.044700826762172 18.197497067078523 a39.312009747083835,39.312009747083835 0 0,0 -0.6718096306173751,-0.08134679039540336 l 2.357637880430936 -18.159604747957772" fill="#ff830c" stroke="none" /><path d="M 97.2962882734958 120.8252237178851 l -3.1070419783990864 23.931857700185518 a45.132706496318704,45.132706496318704 0 0,0 -0.7695586570803857,-0.10665381763688328 l 3.5185292266663035 -23.87482931705603" fill="#ffdc14" stroke="none" /><path d="M 96.93821686468263 120.77559828337769 l -2.7442383112456166 18.620911484765934 a39.82203996469023,39.82203996469023 0 0,0 -0.677285929206462,-0.10577813305341054 l 3.0643601040605954 -18.570915044365417" fill="#ff8b0c" stroke="none" /><path d="M 96.58105272829116 120.7198165907248 l -2.8476318624798123 17.25747875573273 a38.49084275353182,38.49084275353182 0 0,0 -0.6527882493132358,-0.11349560462967234 l 3.144269083265098 -17.20590457258205" fill="#ff760a" stroke="none" /><path d="M 96.22490169976321 120.6578951692458 l -7.62171407972801 41.70714454219905 a63.39783522040965,63.39783522040965 0 0,0 -1.071823079490126,-0.20541744414470642 l 8.33850477378983 -41.56976989970588" fill="#33ff2f" stroke="none" /><path d="M 94.81253420990036 120.34920634021253 l -6.27777454778053 24.62623076453419 a46.41380913875075,46.41380913875075 0 0,0 -0.7724795180722299,-0.20401886167996064 l 6.700744508664249 -24.514520553550646" fill="#ffef16" stroke="none" /><path d="M 94.46302465271185 120.25689768951611 l -7.383647711234975 27.012906303650354 a49.00384545903327,49.00384545903327 0 0,0 -0.8117576418198059,-0.2294108180061991 l 7.847536521159395 -26.88180669230563" fill="#eaff1a" stroke="none" /><path d="M 92.06813273071674 119.44442032107085 l -12.038970554018011 29.51269804927968 a52.87375343677725,52.87375343677725 0 0,0 -0.8397574197456835,-0.35101866956004024 l 12.545199433261157 -29.30109433669967" fill="#b5ff1f" stroke="none" /><path d="M 90.7491055286396 118.85261126421891 l -10.750421291503443 21.90853156554195 a45.404001993590285,45.404001993590285 0 0,0 -0.6986726580853739,-0.350328974970466 l 11.125947857271578 -21.720234749662183" fill="#ffe015" stroke="none" /><path d="M 90.42595943632237 118.69057910512821 l -14.547621344458623 28.400074735594245 a52.909207633049846,52.909207633049846 0 0,0 -0.8070143116657355,-0.4221917460116566 l 15.034326558650854 -28.14545357063787" fill="#b5ff20" stroke="none" /><path d="M 90.10565033884886 118.52300852407294 l -14.55042833853457 27.239557664089237 a51.88217069070878,51.88217069070878 0 0,0 -0.7841055927603993,-0.42755688785822105 l 15.017156743163609 -26.98506012447125" fill="#c3ff1e" stroke="none" /><line stroke="#e1ed5e" stroke-width="0.3" x1="58.666819895761336" x2="56.23545636021788" y1="174.27360380694188" y2="178.64263932499728" /><path d="M 58.180547188652646 175.14741091055294 a86.0,86.0 0 0,1 -31.652253787137756,-30.449443065178592" fill="none" id="id32" stroke="none" /><text fill="#e1ed5e" style="font-size:6.75px; font-family:Arial;" text-anchor="middle"><textPath startOffset="22.20632615414155" xlink:href="#id32">August</textPath></text><path d="M 89.7882731507175 118.34994917583269 l -20.11193864407309 36.14012178284395 a62.3593819888759,62.3593819888759 0 0,0 -0.9334642201064095,-0.5300453460960726 l 20.731051631100705 -35.78857327095324" fill="#3fff2d" stroke="none" /><path d="M 89.4739219176387 118.17145234162733 l -13.556939581236348 23.403710249078316 a48.046705238015704,48.046705238015704 0 0,0 -0.7120799219666387,-0.4207093693213196 l 13.95778737423137 -23.166882307463244" fill="#f8ff18" stroke="none" /><path d="M 88.8546689885994 117.79835938074946 l -21.916177351281842 34.99869141179836 a62.29439708036827,62.29439708036827 0 0,0 -0.9039160200430101,-0.5769219712977223 l 22.515375173371776 -34.616255011676834" fill="#40ff2d" stroke="none" /><path d="M 88.54995079064634 117.60387380957326 l -27.813320381629467 42.76157886059208 a72.01111072405502,72.01111072405502 0 0,0 -1.0332747444283736,-0.684798157857427 l 28.5452698247978 -42.27648268164334" fill="#3bffa0" stroke="none" /><path d="M 88.24862548938628 117.40417183066458 l -24.83937945458747 36.78793725825546 a65.38859199621365,65.38859199621365 0 0,0 -0.9274067595369054,-0.6378788257557997 l 25.468943098747264 -36.35491764313456" fill="#32ff47" stroke="none" /><path d="M 87.07902340077011 116.55440617244103 l -38.76292979768965 49.663218517323095 a84.0,84.0 0 0,0 -1.1321700291305676,-0.8994643439794774 l 39.61205731953757 -48.98862025933849" fill="#4dd2ff" stroke="none" /><path d="M 86.79598089348748 116.32954008644616 l -24.768180995466093 30.6310526492901 a60.39193034401526,60.39193034401526 0 0,0 -0.8027234168506232,-0.6605867229360689 l 25.291774540861404 -30.200170807496853" fill="#56ff2a" stroke="none" /><path d="M 86.51685102203217 116.09983520530335 l -6.655308292466163 7.946909651764705 a31.365640427927254,31.365640427927254 0 0,0 -0.41094145385681774,-0.35021322216123274 l 6.7911152229000376 -7.8311720393805215" fill="#ff0000" stroke="none" /><path d="M 86.24171649860922 115.8653595955263 l -30.89564814110166 35.627305371769786 a68.15767129653557,68.15767129653557 0 0,0 -0.8797456196669111,-0.7762732230867823 l 31.50433611367516 -35.09020900691072" fill="#36ff6d" stroke="none" /><path d="M 85.97065885151581 115.62618273729859 l -24.92281668585304 27.759570726770164 a58.30603916916388,58.30603916916388 0 0,0 -0.7410432439549076,-0.6769254333870753 l 25.396959479274802 -27.326452526796512" fill="#70ff27" stroke="none" /><path d="M 85.70375840098266 115.38237550388516 l -32.23476608704149 34.68375046661618 a68.35021321089039,68.35021321089039 0 0,0 -0.8549119867737278,-0.8083726444102796 l 32.82701390820604 -34.12374318545997" fill="#36ff6f" stroke="none" /><path d="M 84.67929136418377 114.36230785411682 l -40.26884188707131 37.74978807173564 a76.1962510175003,76.1962510175003 0 0,0 -0.8887878754283709,-0.9646037010402029 l 40.91267617049541 -37.05103311589409" fill="#42ffd4" stroke="none" /><path d="M 84.43433777217949 114.09645910891817 l -9.709055064673548 8.792642144115767 a34.09871391104271,34.09871391104271 0 0,0 -0.3902535298520102,-0.4384539778380025 l 9.858967444173896 -8.6242139965369" fill="#ff2e04" stroke="none" /><path d="M 84.19399662182784 113.82643327865904 l -23.877475289800557 20.887020650215447 a52.72383107157083,52.72383107157083 0 0,0 -0.5916555102924086,-0.6882290246026874 l 24.233473309663744 -20.472914526451227" fill="#b7ff1f" stroke="none" /><path d="M 83.72743513129214 113.27417163493432 l -40.76188936120998 33.25107749826227 a73.60385707427704,73.60385707427704 0 0,0 -0.7924054137222928,-0.9886475915208318 l 41.328212686987136 -32.54450207316318" fill="#3effb4" stroke="none" /><path d="M 83.28015986056508 112.70617746262583 l -43.65056945662253 33.17208042871071 a75.8248040019869,75.8248040019869 0 0,0 -0.7807742652610997,-1.0459747206241279 l 44.21510498857871 -32.41579282857727" fill="#41ffcf" stroke="none" /><path d="M 83.06392112726016 112.41649034213515 l -42.31476810411441 31.022582821110117 a73.468469051399,73.468469051399 0 0,0 -0.7389535850896549,-1.0263418989825506 l 42.842501481579674 -30.289607316676427" fill="#3effb2" stroke="none" /><path d="M 82.85270091963577 112.12312394758628 l -33.616686570020704 23.766965052951274 a62.16977342389945,62.16977342389945 0 0,0 -0.610267652168491,-0.8791360688609805 l 34.02081512935133 -23.18478772190328" fill="#41ff2d" stroke="none" /><path d="M 82.6465618267979 111.8261652097733 l -36.07703853527179 24.586079930623615 a64.65808099115786,64.65808099115786 0 0,0 -0.6188606423487721,-0.9251126921968212 l 36.494902283031294 -23.961430324220974" fill="#31ff3d" stroke="none" /><path d="M 82.24976979558568 111.22182372390057 l -26.12431408971287 16.51598003217236 a51.90723836063466,51.90723836063466 0 0,0 -0.47096020785165843,-0.7593378120516503 l 26.404738937232484 -16.06384588875545" fill="#c2ff1e" stroke="none" /><line stroke="#e1ed5e" stroke-width="0.3" x1="26.63291911575756" x2="22.317208475507996" y1="142.92168965132927" y2="145.44649492493687" /><path d="M 25.769776987707644 143.4266507060508 a86.0,86.0 0 0,1 -11.730757126820373,-40.83630448921669" fill="none" id="id33" stroke="none" /><text fill="#e1ed5e" style="font-size:6.75px; font-family:Arial;" text-anchor="middle"><textPath startOffset="21.46611528233685" xlink:href="#id33">September</textPath></text><line stroke="#e1ed5e" stroke-width="0.3" x1="15.007084014347285" x2="10.007500721073583" y1="101.09737516637583" y2="101.16192664675087" /><path d="M 14.007167355692545 101.11028546245083 a86.0,86.0 0 0,1 10.666146001902534,-42.60595125391555" fill="none" id="id34" stroke="none" /><text fill="#e1ed5e" style="font-size:6.75px; font-family:Arial;" text-anchor="middle"><textPath startOffset="22.20632615414155" xlink:href="#id34">October</textPath></text><line stroke="#e1ed5e" stroke-width="0.3" x1="26.266209847984243" x2="21.928928074336255" y1="57.711370442889674" y2="55.22380399835377" /><path d="M 25.398753493254645 57.213857153982495 a86.0,86.0 0 0,1 29.58750427330803,-30.492523968695096" fill="none" id="id35" stroke="none" /><text fill="#e1ed5e" style="font-size:6.75px; font-family:Arial;" text-anchor="middle"><textPath startOffset="21.46611528233685" xlink:href="#id35">November</textPath></text><line stroke="#e1ed5e" stroke-width="0.3" x1="56.762969772571076" x2="54.21961505331055" y1="26.818313649435495" y2="22.513508569990535" /><path d="M 56.25429882871897 25.957352633546506 a86.0,86.0 0 0,1 42.265352541879196,-11.944610805530505" fill="none" id="id36" stroke="none" /><text fill="#e1ed5e" style="font-size:6.75px; font-family:Arial;" text-anchor="middle"><textPath startOffset="22.20632615414155" xlink:href="#id36">December</textPath></text></svg>