<?xml version="1.0" encoding="utf-8" ?>
<svg baseProfile="full" height="200mm" version="1.1" viewBox="0,0,200,200" width="200mm" xmlns="http://www.w3.org/2000/svg" xmlns:ev="http://www.w3.org/2001/xml-events" xmlns:xlink="http://www.w3.org/1999/xlink"><defs /><rect fill="#1a1a1a" height="200" width="200" x="0" y="0" /><text alignment-baseline="middle" fill="#e1ed5e" style="dominant-baseline: central; font-size:9.0px; font-family:Arial;" text-anchor="middle" x="100.0" y="100.0">2022</text><line stroke="#e1ed5e" stroke-width="0.3" x1="100.0" x2="100.0" y1="15.0" y2="10.0" /><path d="M 100.0 14.0 a86.0,86.0 0 0,1 42.46469731375804,11.215312516191453" fill="none" id="id13" stroke="none" /><text fill="#e1ed5e" style="font-size:6.75px; font-family:Arial;" text-anchor="middle"><textPath startOffset="22.20632615414155" xlink:href="#id13">January</textPath></text><path d="M 100.0 79.0 l 0.0 -47.759169821172165 a68.75916982117216,68.75916982117216 0 0,0 1.1835760791113563,0.010187412981215333 l -0.822095599838828 47.752093784799506" fill="#63ff29" stroke="none" /><path d="M 100.36148047927253 79.00311137660856 l 0.8258703600975152 -47.97135381480491 a68.97846234173085,68.97846234173085 0 0,0 1.1869990016912084,0.030656682225513897 l -1.6514959969835914 47.95003034043704" fill="#5eff29" stroke="none" /><path d="M 100.72285384407766 79.0124445844662 l 2.011082996041151 -58.39038717226046 a79.42500978984467,79.42500978984467 0 0,0 1.3659557344366424,0.05882092728905582 l -3.015879562867125 58.34711851844721" fill="#42ffd8" stroke="none" /><path d="M 101.08401301168833 79.027996857942 l 3.120163284263065 -60.36465752323728 a81.44524213549144,81.44524213549144 0 0,0 1.3994540144729735,0.08441888789614999 l -4.15877934757565 60.302005365960824" fill="#47ffff" stroke="none" /><path d="M 101.44485096284872 79.0497635885617 l 3.9158648403116967 -56.779762251754775 a77.91463255449679,77.91463255449679 0 0,0 1.3371999030889978,0.10379244844734163 l -4.892654932763036 56.70394454111897" fill="#3fffbb" stroke="none" /><path d="M 103.2404852339499 79.25152402106235 l 5.60412333436918 -35.88259473240372 a57.317582561023364,57.317582561023364 0 0,0 0.9735003654400366,0.16063590157061064 l -6.220952905948091 35.780812567893484" fill="#ff9b0e" stroke="none" /><path d="M 103.59715602781102 79.31037775812273 l 8.16907982924635 -46.985778327134945 a68.69064090849758,68.69064090849758 0 0,0 1.1631774781728765,0.21256324929276116 l -8.976652428522128 46.83819959649144" fill="#64ff29" stroke="none" /><path d="M 103.95276090670814 79.375362276772 l 10.855774634791675 -56.64304629901024 a78.67393290693121,78.67393290693121 0 0,0 1.3278421200736243,0.2663526375966641 l -11.829183164332425 56.44778970533636" fill="#40ffca" stroke="none" /><path d="M 104.307194497241 79.44645832069477 l 11.880907729499656 -56.69461464131025 a78.92611930557368,78.92611930557368 0 0,0 1.327301585099526,0.2900967170507244 l -12.85505203875271 56.48170442616366" fill="#41ffcf" stroke="none" /><path d="M 104.66035177308747 79.52364482259891 l 12.664647378137074 -55.645116621630756 a78.06813731888786,78.06813731888786 0 0,0 1.3077391196067523,0.3094995982545439 l -13.62061018470635 55.41887111123535" fill="#3fffbe" stroke="none" /><path d="M 105.01212808612495 79.60689891045804 l 13.59116941145539 -55.299083936058565 a77.94478527607362,77.94478527607362 0 0,0 1.3001602597887107,0.33143979949591995 l -14.541038559929126 55.056941140393775" fill="#3fffbb" stroke="none" /><path d="M 105.71112130821622 79.79150937346287 l 15.478398606251568 -54.769467547159664 a77.91463255449679,77.91463255449679 0 0,0 1.287482841852148,0.37585154664074816 l -16.418871665827144 54.494917671600206" fill="#3fffbb" stroke="none" /><path d="M 106.0581310904928 79.89281104454417 l 16.60628545886288 -55.116951842392936 a78.56428664665187,78.56428664665187 0 0,0 1.2915019491891533,0.4012759423224223 l -17.552572780762755 54.82293576518799" fill="#40ffc8" stroke="none" /><path d="M 106.40334571778207 80.00007090966166 l 17.15805781159514 -53.59072501846568 a77.2704607753557,77.2704607753557 0 0,0 1.2632512627344334,0.4164740799969182 l -18.077991896571987 53.287437214209525" fill="#3dffae" stroke="none" /><path d="M 106.74666289553966 80.11325718540242 l 19.017645898600545 -56.05720024555994 a80.195274768307,80.195274768307 0 0,0 1.3034328794054124,0.45474213804906644 l -19.97976078206923 55.72153725433867" fill="#44ffe7" stroke="none" /><path d="M 107.08798089147638 80.2323363322302 l 19.50513159562785 -54.397844334149916 a78.78906148022449,78.78906148022449 0 0,0 1.272697247137297,0.4687451368545631 l -20.438611168537726 54.05403592948903" fill="#41ffcc" stroke="none" /><path d="M 107.76421540070413 80.48803036053334 l 21.945740802355743 -55.15104954614424 a80.35700300221903,80.35700300221903 0 0,0 1.2807992903036707,0.5224701894698307 l -22.891823962247802 54.76511847049083" fill="#44ffea" stroke="none" /><path d="M 108.43124777332544 80.76684994638697 l 23.12237510998138 -52.746179692782896 a78.5916982117217,78.5916982117217 0 0,0 1.2343308290613424,0.5538082631197666 l -24.026888057509503 52.340351099146595" fill="#40ffc8" stroke="none" /><path d="M 108.76106565485865 80.91482961587045 l 24.238452754826934 -52.801225204493676 a79.09881216551364,79.09881216551364 0 0,0 1.2325168952798329,0.578683208581135 l -25.143747861406364 52.37617701327253" fill="#41ffd2" stroke="none" /><path d="M 109.08828744355905 81.06846463323043 l 25.289663454091105 -52.68012934979684 a79.43597441587261,79.43597441587261 0 0,0 1.2275836252845187,0.6023699535899627 l -26.192718346386055 52.237004236072046" fill="#42ffd9" stroke="none" /><path d="M 109.41281617654863 81.2277094730956 l 26.208691014483573 -52.26885905618035 a79.47160945046338,79.47160945046338 0 0,0 1.2175788988156635,0.623691202994385 l -27.10453040088799 51.80997532787346" fill="#42ffd9" stroke="none" /><path d="M 109.73455568895987 81.39251694778311 l 26.622948804997666 -50.88943805117457 a78.43271113431666,78.43271113431666 0 0,0 1.1908884980662358,0.6361313925865173 l -27.494982349592213 50.4236279320863" fill="#40ffc5" stroke="none" /><path d="M 110.36928655335952 81.73862282372117 l 28.529411561377362 -50.243219961050144 a78.77809685419658,78.77809685419658 0 0,0 1.1734307669597872,0.6797268399383065 l -29.39003906080248 49.74468896372179" fill="#41ffcc" stroke="none" /><line stroke="#e1ed5e" stroke-width="0.3" x1="143.23703022742887" x2="145.7803849466894" y1="26.81831364943548" y2="22.513508569990506" /><path d="M 143.74570117128098 25.957352633546492 a86.0,86.0 0 0,1 28.547481713284135,27.462654790039103" fill="none" id="id14" stroke="none" /><text fill="#e1ed5e" style="font-size:6.75px; font-family:Arial;" text-anchor="middle"><textPath startOffset="19.985693538727396" xlink:href="#id14">February</textPath></text><path d="M 110.68208982089419 81.91981866633111 l 19.508304227141448 -33.01916421346577 a59.35152068920506,59.35152068920506 0 0,0 0.8751182015736473,0.5272489246837327 l -20.073784494932735 32.67846867932342" fill="#ffcd13" stroke="none" /><path d="M 110.99172775467656 82.1063720568725 l 30.151567519191723 -49.08426983746564 a78.60540399425662,78.60540399425662 0 0,0 1.1468185858990965,0.718137693280675 l -30.992005257463084 48.55798780286202" fill="#40ffc8" stroke="none" /><path d="M 111.2981086023043 82.29822771554956 l 31.43885643961923 -49.258110110940414 a79.43597441587261,79.43597441587261 0 0,0 1.1462723612840813,0.7455674294192713 l -32.282095826687595 48.70964375736161" fill="#42ffd9" stroke="none" /><path d="M 111.60114157652 82.49532879139004 l 32.07312081852158 -48.394326615110174 a79.05769481790888,79.05769481790888 0 0,0 1.1278721065945603,0.7615442810852441 l -32.90139761952268 47.835070421726265" fill="#41ffd1" stroke="none" /><path d="M 111.90073688211348 82.69761687909136 l 35.01870663535883 -50.91340852299223 a82.7938911369273,82.7938911369273 0 0,0 1.1672710951593013,0.8177479975405417 l -35.88990887010178 50.30307568268775" fill="#4ae7ff" stroke="none" /><path d="M 112.77801427241765 83.33499621200491 l 35.762094245517126 -46.64069262738582 a79.77313666623155,79.77313666623155 0 0,0 1.082511758223503,0.8449175978104336 l -36.55963855890006 46.018196640352166" fill="#43ffdf" stroke="none" /><path d="M 113.06298171725822 83.55741782278167 l 35.84177988471057 -45.1146165468123 a78.61910977679153,78.61910977679153 0 0,0 1.0523602174352993,0.8509354424184176 l -36.61304350071036 44.49097500712975" fill="#40ffc9" stroke="none" /><path d="M 113.34407831869373 83.78471172551755 l 36.783741800570965 -44.69840200763874 a78.88774311447592,78.88774311447592 0 0,0 1.0411020681182042,0.8718930415563598 l -37.54770140564828 44.05860780868856" fill="#41ffce" stroke="none" /><path d="M 113.6212207817346 84.01681056812373 l 37.576149327917925 -44.09198870294649 a78.93160161858765,78.93160161858765 0 0,0 1.0265099945133045,0.8901793518444806 l -38.32955312107799 43.438644357682335" fill="#41ffcf" stroke="none" /><path d="M 113.89432698308785 84.25364557470407 l 38.467390068045056 -43.594854113108845 a79.13992951311839,79.13992951311839 0 0,0 1.0137034038788895,0.9101129249212392 l -39.212104459519935 42.92624217941831" fill="#42ffd3" stroke="none" /><path d="M 114.42810811169701 84.74124197986012 l 39.75121758433477 -42.03976054445794 a78.85759039289908,78.85759039289908 0 0,0 0.978272555509457,0.9410974233157677 l -40.46897338345664 41.34928003437987" fill="#41ffcd" stroke="none" /><path d="M 114.94478906791727 85.2469230424477 l 22.162609137267726 -21.878306659019923 a52.14227907583866,52.14227907583866 0 0,0 0.6250511912073435,0.6441701960900307 l -22.535924592178176 21.49357226737978" fill="#ff1302" stroke="none" /><path d="M 115.19652480421416 85.50635884689758 l 42.588354985834485 -40.618519195550036 a79.85263020493409,79.85263020493409 0 0,0 0.9401037911080075,1.0028371775127771 l -43.28122609891296 39.8794126011592" fill="#43ffe1" stroke="none" /><path d="M 115.4437574822437 85.77008943001954 l 42.783300488925455 -39.420622898667986 a79.17556454770917,79.17556454770917 0 0,0 0.9148787735865326,1.0102319922342182 l -43.45552290312802 38.678338119164216" fill="#42ffd4" stroke="none" /><line stroke="#e1ed5e" stroke-width="0.3" x1="172.23445277983987" x2="176.4835382374775" y1="55.19839476539836" y2="52.563006222186495" /><path d="M 173.08426987136738 54.67131705675599 a86.0,86.0 0 0,1 12.851231095245387,41.99856678651699" fill="none" id="id15" stroke="none" /><text fill="#e1ed5e" style="font-size:6.75px; font-family:Arial;" text-anchor="middle"><textPath startOffset="22.20632615414155" xlink:href="#id15">March</textPath></text><line stroke="#e1ed5e" stroke-width="0.3" x1="184.98032266829074" x2="189.97916517819016" y1="98.17113171792111" y2="98.06355123074" /><path d="M 185.9800911702706 98.14961562048488 a86.0,86.0 0 0,1 -9.607161424134198,41.387399972396054" fill="none" id="id16" stroke="none" /><text fill="#e1ed5e" style="font-size:6.75px; font-family:Arial;" text-anchor="middle"><textPath startOffset="21.466115282336823" xlink:href="#id16">April</textPath></text><line stroke="#e1ed5e" stroke-width="0.3" x1="174.80103733775053" x2="179.2010983576182" y1="140.37084112569926" y2="142.7455964860345" /><path d="M 175.68104954172406 140.8457921977663 a86.0,86.0 0 0,1 -30.038265399797805,32.042727171017184" fill="none" id="id17" stroke="none" /><text fill="#e1ed5e" style="font-size:6.75px; font-family:Arial;" text-anchor="middle"><textPath startOffset="22.206326154141568" xlink:href="#id17">May</textPath></text><path d="M 116.71984013943494 112.70617746262583 l 24.236238708840215 18.41823531163814 a51.4405430100509,51.4405430100509 0 0,0 -0.5418236872582858,0.700380154349393 l -23.91560820436386 -18.83269346010078" fill="#ff0000" stroke="none" /><path d="M 116.27256486870786 113.27417163493432 l 35.42750416984445 28.89960954171382 a66.7197493799765,66.7197493799765 0 0,0 -0.733612238949374,0.8836832008681408 l -34.92479593100153 -29.505153999695732" fill="#8cff24" stroke="none" /><path d="M 116.0416608686014 113.55231037782055 l 37.678324718654686 31.831389236196713 a70.3243701866597,70.3243701866597 0 0,0 -0.7891649806763701,0.9179771597717008 l -37.12481722840754 -32.475243495129945" fill="#45ff2d" stroke="none" /><path d="M 115.80600337817218 113.82643327865902 l 34.919280404067884 30.54593176364756 a67.39407388069442,67.39407388069442 0 0,0 -0.7713128211129036,0.8665781311514236 l -34.388308733306644 -31.14248406453985" fill="#7eff26" stroke="none" /><line stroke="#e1ed5e" stroke-width="0.3" x1="143.8653032363475" x2="146.44561519142675" y1="172.8068346515853" y2="177.08958963109032" /><path d="M 144.38136562736335 173.6633856474863 a86.0,86.0 0 0,1 -40.68145358897372,12.25698825130547" fill="none" id="id18" stroke="none" /><text fill="#e1ed5e" style="font-size:6.75px; font-family:Arial;" text-anchor="middle"><textPath startOffset="21.466115282336833" xlink:href="#id18">June</textPath></text><line stroke="#e1ed5e" stroke-width="0.3" x1="102.19456741930631" x2="102.32365962044197" y1="184.97166512339345" y2="189.96999836594603" /><path d="M 102.22038585953345 185.97133177190398 a86.0,86.0 0 0,1 -42.740103519485714,-10.115201625700543" fill="none" id="id19" stroke="none" /><text fill="#e1ed5e" style="font-size:6.75px; font-family:Arial;" text-anchor="middle"><textPath startOffset="22.20632615414155" xlink:href="#id19">July</textPath></text><line stroke="#e1ed5e" stroke-width="0.3" x1="58.666819895761336" x2="56.23545636021788" y1="174.27360380694188" y2="178.64263932499728" /><path d="M 58.180547188652646 175.14741091055294 a86.0,86.0 0 0,1 -31.652253787137756,-30.449443065178592" fill="none" id="id20" stroke="none" /><text fill="#e1ed5e" style="font-size:6.75px; font-family:Arial;" text-anchor="middle"><textPath startOffset="22.20632615414155" xlink:href="#id20">August</textPath></text><path d="M 89.7882731507175 118.34994917583269 l -28.21054523407058 50.69290227872643 a79.01383631379716,79.01383631379716 0 0,0 -1.182766517882287,-0.6716056971635166 l 29.078960518874073 -50.199793415768276" fill="#41ffd0" stroke="none" /><path d="M 89.4739219176387 118.17145234162733 l -29.58183802548472 51.06792441133485 a80.01709959535307,80.01709959535307 0 0,0 -1.1858996314855106,-0.700650405452703 l 30.456505527998615 -50.5511554335884" fill="#44ffe4" stroke="none" /><path d="M 87.95078237400918 117.19931262002967 l -36.14765287797246 51.59793786008904 a84.0,84.0 0 0,0 -1.1770906886044523,-0.8398229526231229 l 37.030470894425804 -50.968070645621694" fill="#4dd2ff" stroke="none" /><line stroke="#e1ed5e" stroke-width="0.3" x1="26.63291911575756" x2="22.317208475507996" y1="142.92168965132927" y2="145.44649492493687" /><path d="M 25.769776987707644 143.4266507060508 a86.0,86.0 0 0,1 -11.730757126820373,-40.83630448921669" fill="none" id="id21" stroke="none" /><text fill="#e1ed5e" style="font-size:6.75px; font-family:Arial;" text-anchor="middle"><textPath startOffset="21.46611528233685" xlink:href="#id21">September</textPath></text><line stroke="#e1ed5e" stroke-width="0.3" x1="15.007084014347285" x2="10.007500721073583" y1="101.09737516637583" y2="101.16192664675087" /><path d="M 14.007167355692545 101.11028546245083 a86.0,86.0 0 0,1 10.666146001902534,-42.60595125391555" fill="none" id="id22" stroke="none" /><text fill="#e1ed5e" style="font-size:6.75px; font-family:Arial;" text-anchor="middle"><textPath startOffset="22.20632615414155" xlink:href="#id22">October</textPath></text><line stroke="#e1ed5e" stroke-width="0.3" x1="26.266209847984243" x2="21.928928074336255" y1="57.711370442889674" y2="55.22380399835377" /><path d="M 25.398753493254645 57.213857153982495 a86.0,86.0 0 0,1 29.58750427330803,-30.492523968695096" fill="none" id="id23" stroke="none" /><text fill="#e1ed5e" style="font-size:6.75px; font-family:Arial;" text-anchor="middle"><textPath startOffset="21.46611528233685" xlink:href="#id23">November</textPath></text><line stroke="#e1ed5e" stroke-width="0.3" x1="56.762969772571076" x2="54.21961505331055" y1="26.818313649435495" y2="22.513508569990535" /><path d="M 56.25429882871897 25.957352633546506 a86.0,86.0 0 0,1 42.265352541879196,-11.944610805530505" fill="none" id="id24" stroke="none" /><text fill="#e1ed5e" style="font-size:6.75px; font-family:Arial;" text-anchor="middle"><textPath startOffset="22.20632615414155" xlink:href="#id24">December</textPath></text></svg>