<?xml version="1.0" encoding="utf-8" ?>
<svg baseProfile="full" height="200mm" version="1.1" viewBox="0,0,200,200" width="200mm" xmlns="http://www.w3.org/2000/svg" xmlns:ev="http://www.w3.org/2001/xml-events" xmlns:xlink="http://www.w3.org/1999/xlink"><defs /><rect fill="#1a1a1a" height="200" width="200" x="0" y="0" /><text alignment-baseline="middle" fill="#e1ed5e" style="dominant-baseline: central; font-size:9.0px; font-family:Arial;" text-anchor="middle" x="100.0" y="100.0">2015</text><line stroke="#e1ed5e" stroke-width="0.3" x1="100.0" x2="100.0" y1="15.0" y2="10.0" /><path d="M 100.0 14.0 a86.0,86.0 0 0,1 42.46469731375804,11.215312516191453" fill="none" id="id37" stroke="none" /><text fill="#e1ed5e" style="font-size:6.75px; font-family:Arial;" text-anchor="middle"><textPath startOffset="22.20632615414155" xlink:href="#id37">January</textPath></text><path d="M 100.36148047927253 79.00311137660856 l 0.20562577685136996 -11.943941048588393 a32.945710934568126,32.945710934568126 0 0,0 0.5669382103010534,0.014642341341431385 l -0.4111906223472911 11.938631915104601" fill="#ff7a0b" stroke="none" /><path d="M 104.66035177308747 79.52364482259891 l 1.9112861201380429 -8.397686558252191 a29.6124418235296,29.6124418235296 0 0,0 0.49604550498657185,0.11739794444283567 l -2.0555553120871384 8.363542701668488" fill="#ff4a06" stroke="none" /><path d="M 105.01212808612495 79.60689891045804 l 4.540562537593853 -18.474418299259362 a40.024217188988615,40.024217188988615 0 0,0 0.6676251199353688,0.1701925083649134 l -4.857896546214247 18.39352279472558" fill="#ffda14" stroke="none" /><path d="M 106.40334571778207 80.00007090966166 l 1.665689231757196 -5.202540670133136 a26.46268707150439,26.46268707150439 0 0,0 0.43262357339385493,0.14262919027223053 l -1.7549956273934686 5.173097755601669" fill="#ff1b02" stroke="none" /><path d="M 106.74666289553966 80.11325718540242 l 3.5736881941595002 -10.533951246296702 a32.123640418875056,32.123640418875056 0 0,0 0.5221131699982121,0.18215503305154446 l -3.7544833682209857 10.47087536007295" fill="#ff6e0a" stroke="none" /><path d="M 107.08798089147638 80.2323363322302 l 16.106664289144774 -44.91986185521072 a68.72021189825571,68.72021189825571 0 0,0 1.1100528786924773,0.4088418433440473 l -16.87749949360983 44.635956744060344" fill="#39ff8b" stroke="none" /><path d="M 108.76106565485865 80.91482961587045 l 2.739310756550588 -5.967334863522409 a27.566042095080093,27.566042095080093 0 0,0 0.4295337905591755,0.20167187408685905 l -2.8416227584093616 5.919298006795548" fill="#ff2c04" stroke="none" /><path d="M 109.41281617654863 81.2277094730956 l 4.317503319752226 -8.610539624814091 a30.63235316766184,30.63235316766184 0 0,0 0.46931611296059805,0.24040194139514154 l -4.465079920301579 8.53494515810645" fill="#ff5908" stroke="none" /><path d="M 109.73455568895987 81.39251694778311 l 2.955924639999694 -5.6502134663222225 a27.37670782554496,27.37670782554496 0 0,0 0.4156761380915313,0.22203979719220054 l -3.052745824619537 5.5984949426282675" fill="#ff2904" stroke="none" /><line stroke="#e1ed5e" stroke-width="0.3" x1="143.23703022742887" x2="145.7803849466894" y1="26.81831364943548" y2="22.513508569990506" /><path d="M 143.74570117128098 25.957352633546492 a86.0,86.0 0 0,1 28.547481713284135,27.462654790039103" fill="none" id="id38" stroke="none" /><text fill="#e1ed5e" style="font-size:6.75px; font-family:Arial;" text-anchor="middle"><textPath startOffset="19.985693538727396" xlink:href="#id38">February</textPath></text><path d="M 110.68208982089419 81.91981866633111 l 9.24928025546603 -15.655051308185909 a39.18322899559061,39.18322899559061 0 0,0 0.5777435269102776,0.3480840105469977 l -9.517385848593944 15.493520688180297" fill="#ffcf13" stroke="none" /><path d="M 110.99172775467656 82.1063720568725 l 2.397514753207417 -3.9029566542712324 a25.58051827165522,25.58051827165522 0 0,0 0.3732086128965016,0.23370319915756535 l -2.464342518476182 3.861109113790723" fill="#ff0e01" stroke="none" /><path d="M 111.2981086023043 82.29822771554956 l 3.306701730129567 -5.180909752222912 a27.14622666297952,27.14622666297952 0 0,0 0.39172389544841707,0.25478811810869373 l -3.3953926513622643 5.123222709954691" fill="#ff2603" stroke="none" /><path d="M 113.6212207817346 84.01681056812373 l 26.936138740942162 -31.606962030678865 a62.52776925239376,62.52776925239376 0 0,0 0.8131772161720437,0.7051792686830454 l -27.47620975576097 31.13861776857615" fill="#31ff41" stroke="none" /><line stroke="#e1ed5e" stroke-width="0.3" x1="172.23445277983987" x2="176.4835382374775" y1="55.19839476539836" y2="52.563006222186495" /><path d="M 173.08426987136738 54.67131705675599 a86.0,86.0 0 0,1 12.851231095245387,41.99856678651699" fill="none" id="id39" stroke="none" /><text fill="#e1ed5e" style="font-size:6.75px; font-family:Arial;" text-anchor="middle"><textPath startOffset="22.20632615414155" xlink:href="#id39">March</textPath></text><path d="M 118.56541770881063 90.18545643968196 l 6.456203273349047 -3.413049426325649 a28.30283965956701,28.30283965956701 0 0,0 0.2239840460096086,0.4326658842006069 l -6.513996752518772 3.301410819864697" fill="#ff3705" stroke="none" /><path d="M 118.73160827565052 90.50648371742162 l 9.927526134513679 -5.0314489613922415 a32.12974634942536,32.12974634942536 0 0,0 0.24577723987533204,0.49547191805820345 l -10.012663387342418 4.859817454835088" fill="#ff6e0a" stroke="none" /><path d="M 118.89224826269711 90.83032412892265 l 16.487832629568068 -8.002651612843454 a39.32733089288223,39.32733089288223 0 0,0 0.2903514482388267,0.611554198842132 l -16.62314227164865 7.717654998360781" fill="#ffd113" stroke="none" /><path d="M 119.04729006885535 91.15688171328212 l 20.8977594885944 -9.702238923068329 a44.040177771958255,44.040177771958255 0 0,0 0.3133095485548986,0.6903360594862694 l -21.061671354112644 9.341080854739996" fill="#f1ff19" stroke="none" /><line stroke="#e1ed5e" stroke-width="0.3" x1="184.98032266829074" x2="189.97916517819016" y1="98.17113171792111" y2="98.06355123074" /><path d="M 185.9800911702706 98.14961562048488 a86.0,86.0 0 0,1 -9.607161424134198,41.387399972396054" fill="none" id="id40" stroke="none" /><text fill="#e1ed5e" style="font-size:6.75px; font-family:Arial;" text-anchor="middle"><textPath startOffset="21.466115282336823" xlink:href="#id40">April</textPath></text><path d="M 120.92983693683757 101.71520430193887 l 4.754986111892182 0.3896720580953253 a25.770926245201007,25.770926245201007 0 0,0 -0.04003747014587609,0.4418101467911651 l -4.747574045469231 -0.47146359343506095" fill="#ff1101" stroke="none" /><path d="M 120.89721153311464 102.0752229133903 l 7.337115654164749 0.728621160751008 a28.37320519980853,28.37320519980853 0 0,0 -0.05244678689975974,0.48559210993946417 l -7.323486565763938 -0.8548095925752637" fill="#ff3805" stroke="none" /><path d="M 120.8583938346157 102.4346265915055 l 9.378232858566061 1.0946430142144414 a30.441901020348425,30.441901020348425 0 0,0 -0.06523045721773872,0.5199509248447342 l -9.358000892101474 -1.2559116933465704" fill="#ff5608" stroke="none" /><path d="M 120.81339534386255 102.79330883721812 l 6.661327312598073 0.8939985111736927 a27.72105013398545,27.72105013398545 0 0,0 -0.06754161128198743,0.47238587199546545 l -6.644951650299484 -1.0085298551495674" fill="#ff2e04" stroke="none" /><path d="M 120.5718875245553 104.21870165774334 l 7.307672649289171 1.4985931982664922 a28.459749400821693,28.459749400821693 0 0,0 -0.10254449028926801,0.47905371981283007 l -7.28079412027546 -1.6241607374954912" fill="#ff3905" stroke="none" /><path d="M 120.49622156327973 104.57218783832717 l 10.712075638455858 2.3895927259654077 a31.975368689934122,31.975368689934122 0 0,0 -0.12445945432748264,0.5361680718362458 l -10.669355618197821 -2.5736294551502183" fill="#ff6c0a" stroke="none" /><path d="M 120.41448212921028 104.9243191809786 l 3.593846144230538 0.8668966172890631 a24.696923025093696,24.696923025093696 0 0,0 -0.10324335301566787,0.41240587416408603 l -3.578391476919809 -0.9286303308505451" fill="#ff0100" stroke="none" /><path d="M 120.32669344350535 105.2749913415812 l 10.661620515020818 2.7668029756176993 a32.01477874095525,32.01477874095525 0 0,0 -0.1430175228181613,0.5322214062307706 l -10.61241491586088 -2.9499153150240183" fill="#ff6d0a" stroke="none" /><path d="M 120.23288151984713 105.62410040840565 l 5.23790964970788 1.4559730294084479 a26.43650208873939,26.43650208873939 0 0,0 -0.12564559825867636,0.43738881069238117 l -5.212071414563104 -1.5459193156054112" fill="#ff1b02" stroke="none" /><path d="M 120.02730092923936 106.31721596034902 l 17.394717683167926 5.486819644949891 a39.23955572631425,39.23955572631425 0 0,0 -0.2087315448242429,0.6424096391947354 l -17.297693887327437 -5.785428184122423" fill="#ffd013" stroke="none" /><path d="M 119.9155931802556 106.66101706037122 l 8.67461784202798 2.9013334885367135 a30.146951990523114,30.146951990523114 0 0,0 -0.16883609396189228,0.49071671947700723 l -8.623390917122855 -3.0502229111030212" fill="#ff5207" stroke="none" /><path d="M 119.67450827220406 107.3425965602758 l 6.014290512385698 2.2445546398296554 a27.41947941024453,27.41947941024453 0 0,0 -0.16883312087203226,0.44077000279059053 l -5.97476311192016 -2.34774820945339" fill="#ff2a04" stroke="none" /><path d="M 119.54520255179757 107.68017299344265 l 6.328932736556173 2.486917091383297 a27.800010750231706,27.800010750231706 0 0,0 -0.17884327504631856,0.4438743418347272 l -6.285186847252462 -2.5954908010608375" fill="#ff2f04" stroke="none" /><path d="M 119.26925614724726 108.34839909993367 l 20.865833991050675 9.040115943195755 a43.73998074776027,43.73998074776027 0 0,0 -0.30526114915555963,0.6882833047559617 l -20.707131757163843 -9.397947584444404" fill="#f4ff19" stroke="none" /><path d="M 118.97047184881838 109.00673069616215 l 10.842888636749061 5.147946698318868 a33.0028991996798,33.0028991996798 0 0,0 -0.24806667433058613,0.5110908240428879 l -10.75266870580376 -5.333826478327031" fill="#ff7b0b" stroke="none" /><path d="M 118.81262510543309 109.33194174019688 l 16.40582716137026 8.138057416847795 a39.313359696370995,39.313359696370995 0 0,0 -0.30593531127389645,0.6036393932338987 l -16.263313180310096 -8.419251021784389" fill="#ffd113" stroke="none" /><path d="M 118.64920377521936 109.65438752849418 l 38.92737355845722 20.152064095046498 a64.83430277135176,64.83430277135176 0 0,0 -0.5215996587717973,0.9866699844325453 l -38.57472139146053 -20.819149094565176" fill="#34ff5d" stroke="none" /><line stroke="#e1ed5e" stroke-width="0.3" x1="174.80103733775053" x2="179.2010983576182" y1="140.37084112569926" y2="142.7455964860345" /><path d="M 175.68104954172406 140.8457921977663 a86.0,86.0 0 0,1 -30.038265399797805,32.042727171017184" fill="none" id="id41" stroke="none" /><text fill="#e1ed5e" style="font-size:6.75px; font-family:Arial;" text-anchor="middle"><textPath startOffset="22.206326154141568" xlink:href="#id41">May</textPath></text><path d="M 118.30583269289576 110.29060199501025 l 3.6015131556503928 2.024586321002197 a25.13156710964642,25.13156710964642 0 0,0 -0.21523153229678194,0.3752743184792868 l -3.5661296272012315 -2.086280485339799" fill="#ff0701" stroke="none" /><path d="M 117.94076556474637 110.91462005526583 l 15.679051927588265 9.53866176996826 a39.352622093582795,39.352622093582795 0 0,0 -0.357050763362442,0.5756795179783155 l -15.512536524557861 -9.807137619311849" fill="#ffd113" stroke="none" /><path d="M 117.75023020441432 111.22182372390056 l 6.7689704029840305 4.27939197293882 a29.00825548883944,29.00825548883944 0 0,0 -0.2704607307919404,0.41976106033420285 l -6.69430480881504 -4.395274633194475" fill="#ff4106" stroke="none" /><path d="M 117.55443506779139 111.5257021239791 l 15.256850833202808 10.017178984934548 a39.251448494922684,39.251448494922684 0 0,0 -0.375686631219547,0.5616005398417289 l -15.08216109657254 -10.278316438982083" fill="#ffd013" stroke="none" /><path d="M 117.35343817320211 111.8261652097733 l 17.220740860037314 11.735733542416261 a41.8394183591374,41.8394183591374 0 0,0 -0.41070189263887846,0.5916467079408897 l -17.0161780602363 -12.030421512544171" fill="#fff216" stroke="none" /><path d="M 116.93607887273984 112.41649034213515 l 2.9842170984851353 2.187844250171521 a24.700299197889223,24.700299197889223 0 0,0 -0.25434101956208566,0.340731359518805 l -2.9461148122279575 -2.238888489199641" fill="#ff0100" stroke="none" /><path d="M 116.27256486870786 113.27417163493432 l 3.602746373799789 2.938902017525227 a25.64940066057351,25.64940066057351 0 0,0 -0.28202615299331496,0.33971866931034006 l -3.551624220912931 -3.000481943949338" fill="#ff0f01" stroke="none" /><path d="M 115.80600337817218 113.82643327865902 l 11.6483872817842 10.1895239234217 a36.476153399744234,36.476153399744234 0 0,0 -0.417462888976105,0.46902398125835487 l -11.471265543159756 -10.388522074420921" fill="#ffab0f" stroke="none" /><path d="M 114.55890576462653 115.13401014063108 l 5.047757643654468 5.247153639260774 a28.28096686869812,28.28096686869812 0 0,0 -0.35373316977084784,0.3344767909295604 l -4.956688639492812 -5.333265066936256" fill="#ff3605" stroke="none" /><path d="M 114.0293411484842 115.62618273729858 l 5.125159752968927 5.7085134654661545 a28.67166138974218,28.67166138974218 0 0,0 -0.37007967021726434,0.32655228054130025 l -5.026137729845075 -5.795888887779744" fill="#ff3c05" stroke="none" /><path d="M 113.48314897796784 116.09983520530334 l 14.08607772794332 16.81977485226612 a42.93906132537545,42.93906132537545 0 0,0 -0.5707416508649369,0.46968152276808073 l -13.794465948533691 -17.059751493891383" fill="#feff18" stroke="none" /><path d="M 112.92097659922987 116.55440617244103 l 9.550489864442584 12.236125276411935 a36.522068754868585,36.522068754868585 0 0,0 -0.4989110619884379,0.38254372767366124 l -9.338450073960653 -12.398708345912967" fill="#ffab0f" stroke="none" /><path d="M 112.63410532772338 116.77436683061366 l 4.4128624913236205 5.858980298358556 a28.334916870959386,28.334916870959386 0 0,0 -0.3921215573638754,0.29008215383533054 l -4.311355963541181 -5.934072400933656" fill="#ff3705" stroke="none" /><path d="M 112.04921762599082 117.19931262002967 l 3.718881590437343 5.308411637684678 a27.48145928003871,27.48145928003871 0 0,0 -0.389769687956005,0.2680871454859066 l -3.626955017858455 -5.3716395725356785" fill="#ff2b04" stroke="none" /><line stroke="#e1ed5e" stroke-width="0.3" x1="143.8653032363475" x2="146.44561519142675" y1="172.8068346515853" y2="177.08958963109032" /><path d="M 144.38136562736335 173.6633856474863 a86.0,86.0 0 0,1 -40.68145358897372,12.25698825130547" fill="none" id="id42" stroke="none" /><text fill="#e1ed5e" style="font-size:6.75px; font-family:Arial;" text-anchor="middle"><textPath startOffset="21.466115282336833" xlink:href="#id42">June</textPath></text><path d="M 110.8373102113329 117.98757091392108 l 5.679453145169931 9.426653312387867 a32.00536145249822,32.00536145249822 0 0,0 -0.47433794206510355,0.2802472170542842 l -5.516347332076445 -9.5230191017359" fill="#ff6c0a" stroke="none" /><path d="M 110.5260780823613 118.17145234162733 l 4.562106310245693 7.8756871025860855 a30.101607623042447,30.101607623042447 0 0,0 -0.45059416542655367,0.25585912691454077 l -4.42586337789794 -7.953049395295255" fill="#ff5107" stroke="none" /><path d="M 109.89434966115114 118.52300852407294 l 5.166546749232023 9.672185919585948 a31.965600110118764,31.965600110118764 0 0,0 -0.4875653581652902,0.2550711516301632 l -4.999290488540238 -9.759686490160828" fill="#ff6c09" stroke="none" /><path d="M 108.59647513512805 119.15986991738527 l 3.0169461695262165 6.724185814214546 a28.369982296715715,28.369982296715715 0 0,0 -0.4472721237508623,0.1960709549362977 l -2.9007533711176006 -6.775121322445298" fill="#ff3805" stroke="none" /><path d="M 108.2653958097858 119.30500536409082 l 4.300124690750806 10.043551710242296 a31.92538344005901,31.92538344005901 0 0,0 -0.5070488830355622,0.21194647423174703 l -4.126604348217783 -10.116083227494016" fill="#ff6b09" stroke="none" /><path d="M 107.93186726928326 119.44442032107085 l 6.912565301980513 16.94567252140929 a39.30134902833643,39.30134902833643 0 0,0 -0.6285949915114613,0.2501309198445544 l -6.619849234427186 -17.062150285659914" fill="#ffd013" stroke="none" /><path d="M 107.59598834532513 119.57807347666477 l 6.903901366148583 17.794272723613275 a40.08664443625007,40.08664443625007 0 0,0 -0.6454518206519331,0.24405464945370764 l -6.596579324736375 -17.910475623173614" fill="#ffdb14" stroke="none" /><path d="M 107.2578585660854 119.70592522655815 l 2.5351395216118227 6.883196937071192 a28.33521182165481,28.33521182165481 0 0,0 -0.4591389680153443,0.16463089854827115 l -2.4162809929667435 -6.925815376659424" fill="#ff3705" stroke="none" /><path d="M 106.57524785965236 119.94407469862006 l 5.711283512441939 17.32349371893662 a39.240674164885675,39.240674164885675 0 0,0 -0.6433203104386441,0.20597084801663543 l -5.412241856912355 -17.41923741361296" fill="#ffd013" stroke="none" /><path d="M 106.2309692047433 120.05430185196036 l 1.3904876789722482 4.475268408374358 a25.68630806844441,25.68630806844441 0 0,0 -0.4233654303202877,0.12755653123592137 l -1.3132472742117147 -4.498540308716005" fill="#ff1001" stroke="none" /><path d="M 105.88484417918355 120.15858648285463 l 3.0833907347336633 10.562182598891635 a32.00304501832882,32.00304501832882 0 0,0 -0.530136280362941,0.14982180821874302 l -2.9011232862661163 -10.613693200448896" fill="#ff6c0a" stroke="none" /><path d="M 105.53697534728816 120.25689768951611 l 4.145777197510999 15.167231072220739 a36.7236244857711,36.7236244857711 0 0,0 -0.6112027491608908,0.1614242011887331 l -3.8840840055386114 -15.236346622713056" fill="#ffae10" stroke="none" /><path d="M 105.18746579009965 120.34920634021253 l 1.8006687834843842 7.063599473838514 a28.289502424351532,28.289502424351532 0 0,0 -0.47290175725321765,0.11622774629024997 l -1.6788137414879556 -7.093548478442794" fill="#ff3705" stroke="none" /><path d="M 104.83641907484287 120.43548508189849 l 0.8409594089463572 3.553334231393877 a24.65149241920217,24.65149241920217 0 0,0 -0.4137692554839702,0.09417253543111184 l -0.7796700040695249 -3.5672835004026733" fill="#ff0000" stroke="none" /><path d="M 104.13013068566511 120.58985236759428 l 5.753319054177629 28.68189870125332 a50.25323902148479,50.25323902148479 0 0,0 -0.849596539299812,0.16282719881361482 l -5.258754900306112 -28.776683098415404" fill="#a6ff21" stroke="none" /><path d="M 103.41894727170886 120.7198165907248 l 1.1892127772449956 7.206975912075725 a28.304432135820175,28.304432135820175 0 0,0 -0.48139657427816895,0.0751842444816678 l -1.0649803393583097 -7.226378463904499" fill="#ff3705" stroke="none" /><path d="M 103.06178313531738 120.77559828337769 l 2.2137650344442763 15.021407793022744 a36.18365725745983,36.18365725745983 0 0,0 -0.6169682442948337,0.08550617683181849 l -1.9548681989626122 -15.057288535347165" fill="#ffa70f" stroke="none" /><path d="M 102.70371172650421 120.8252237178851 l 0.4722518929843524 3.637499969462281 a24.66802779137037,24.66802779137037 0 0,0 -0.4215561286537739,0.05104457643154042 l -0.40956834127919817 -3.6450900746191723" fill="#ff0000" stroke="none" /><path d="M 101.62511606390274 120.93702456842531 l 3.470979207114793 44.71802263853904 a65.8525277476879,65.8525277476879 0 0,0 -1.1308987525073833,0.07799339918439359 l -2.700717693828479 -44.77114438223972" fill="#35ff69" stroke="none" /><path d="M 100.90346689309514 120.98055641714683 l 0.16406698222865743 3.8100085383835753 a24.813539436955303,24.813539436955303 0 0,0 -0.4268869905471599,0.014702851094100293 l -0.09845964000684522 -3.8122681879037694" fill="#ff0200" stroke="none" /><line stroke="#e1ed5e" stroke-width="0.3" x1="102.19456741930631" x2="102.32365962044197" y1="184.97166512339345" y2="189.96999836594603" /><path d="M 102.22038585953345 185.97133177190398 a86.0,86.0 0 0,1 -42.740103519485714,-10.115201625700543" fill="none" id="id43" stroke="none" /><text fill="#e1ed5e" style="font-size:6.75px; font-family:Arial;" text-anchor="middle"><textPath startOffset="22.20632615414155" xlink:href="#id43">July</textPath></text><path d="M 100.54218724476979 120.99299961872073 l 0.40117892641265324 15.533285097467514 a36.53846486787559,36.53846486787559 0 0,0 -0.6288797177471814,0.010826734658332494 l -0.13373951877280382 -15.537889309405006" fill="#ffac0f" stroke="none" /><path d="M 100.18074693466247 120.99922214144158 l 0.03167328030997715 3.6798092892664034 a24.679945597703437,24.679945597703437 0 0,0 -0.42484042994486265,0.0 l 0.03167328030997462 -3.6798092892664034" fill="#ff0000" stroke="none" /><path d="M 99.81925306533755 120.99922214144158 l -0.15503156881374278 18.011604780660985 a39.01227197113286,39.01227197113286 0 0,0 -0.6714575085351352,-0.011559749939617952 l 0.4650487672415459 -18.006267553442207" fill="#ffcd13" stroke="none" /><path d="M 99.09653310690486 120.98055641714683 l -2.193848693534062 50.94615711671506 a71.99337110891118,71.99337110891118 0 0,0 -1.2376412364501213,-0.063971915082514 l 3.0704779983976724 -50.90084539487034" fill="#3dffb1" stroke="none" /><path d="M 98.37488393609728 120.93702456842531 l -1.4190667777662478 18.2824086539253 a39.33739939873925,39.33739939873925 0 0,0 -0.6746470437488763,-0.058211385701365644 l 1.7335581392566657 -18.25527301594527" fill="#ffd113" stroke="none" /><path d="M 98.01472825383883 120.90594882070398 l -0.43395434274300315 4.5697659765974015 a25.590324329767203,25.590324329767203 0 0,0 -0.4381641176797668,-0.045417502342492144 l 0.5125510570283633 -4.561619105799149" fill="#ff0e01" stroke="none" /><path d="M 97.65516085044442 120.86867818915974 l -1.7759816083525706 15.805940745061575 a36.905403909036835,36.905403909036835 0 0,0 -0.6306827335316847,-0.07636689590688804 l 2.0477917649356443 -15.773028320429338" fill="#ffb010" stroke="none" /><path d="M 96.58105272829116 120.7198165907248 l -9.287398315956963 56.28433971590718 a78.04544385605993,78.04544385605993 0 0,0 -1.3236173857741012,-0.23012784873934455 l 10.254864673203114 -56.11613328864683" fill="#45fff1" stroke="none" /><path d="M 95.86986931433489 120.58985236759428 l -1.038971486130043 5.179562377482657 a26.282738699881442,26.282738699881442 0 0,0 -0.44281225566849297,-0.09279561355825197 l 1.1279752032279227 -5.160910783197864" fill="#ff1902" stroke="none" /><path d="M 95.51606077576429 120.51570834832081 l -3.362432086034067 15.384391395239966 a36.74755371907411,36.74755371907411 0 0,0 -0.6167986783369999,-0.14038137106540718 l 3.6267509137639293 -15.32423329059687" fill="#ffae10" stroke="none" /><path d="M 95.16358092515715 120.4354850818985 l -0.9882908345581483 4.175858686697097 a25.291213644755437,25.291213644755437 0 0,0 -0.42278083213567097,-0.10390924233240645 l 1.0600249514370297 -4.1582281860506605" fill="#ff0a01" stroke="none" /><path d="M 94.81253420990036 120.34920634021253 l -3.9243890122950047 15.394453670010611 a36.886787998771965,36.886787998771965 0 0,0 -0.6139183304551077,-0.1621414108900704 l 4.188797785561602 -15.324620909816959" fill="#ffb010" stroke="none" /><path d="M 94.11515582081647 120.15858648285463 l -17.65453253755061 60.475759448563906 a84.0,84.0 0 0,0 -1.3845001022390167,-0.4171385235770977 l 18.692907614229874 -60.16290555588108" fill="#4dd2ff" stroke="none" /><path d="M 93.42475214034765 119.94407469862007 l -3.4304493909339575 10.405256252384063 a31.95615537958169,31.95615537958169 0 0,0 -0.5209313907329385,-0.17672821123829024 l 3.609050514604122 -10.34466505424765" fill="#ff6c09" stroke="none" /><path d="M 93.08242187328487 119.8279376855182 l -4.811475332065 13.791189822802203 a35.606409949047475,35.606409949047475 0 0,0 -0.5769602296123785,-0.20687741107726634 l 5.048155122307105 -13.706324870684979" fill="#ff9f0e" stroke="none" /><path d="M 92.7421414339146 119.70592522655815 l -5.881284899784717 15.968368550581024 a38.01700050654112,38.01700050654112 0 0,0 -0.6121276185063315,-0.23145428764087114 l 6.155282739051332 -15.86476601283352" fill="#ffbf11" stroke="none" /><path d="M 91.7346041902142 119.30500536409082 l -22.729917062716247 53.088948299555 a78.75019966399063,78.75019966399063 0 0,0 -1.2415506178724776,-0.5442593050659219 l 23.64038835524647 -52.689824441194624" fill="#46fff9" stroke="none" /><path d="M 91.07499286063937 119.00905698771935 l -2.2448839548056325 4.7812989235069745 a26.282075668378173,26.282075668378173 0 0,0 -0.40785692947540564,-0.19579611157298432 l 2.32685355228128 -4.741948535434427" fill="#ff1902" stroke="none" /><path d="M 90.42595943632237 118.69057910512821 l -7.333299623546477 14.316172550542523 a37.085088742857906,37.085088742857906 0 0,0 -0.5656519669023635,-0.2959223747203544 l 7.5786424929753355 -14.187820756877452" fill="#ffb310" stroke="none" /><line stroke="#e1ed5e" stroke-width="0.3" x1="58.666819895761336" x2="56.23545636021788" y1="174.27360380694188" y2="178.64263932499728" /><path d="M 58.180547188652646 175.14741091055294 a86.0,86.0 0 0,1 -31.652253787137756,-30.449443065178592" fill="none" id="id44" stroke="none" /><text fill="#e1ed5e" style="font-size:6.75px; font-family:Arial;" text-anchor="middle"><textPath startOffset="22.20632615414155" xlink:href="#id44">August</textPath></text><path d="M 89.7882731507175 118.34994917583269 l -5.238281953578135 9.412923889909393 a31.772313306918313,31.772313306918313 0 0,0 -0.47560313646645275,-0.2700598733650462 l 5.399533856965795 -9.321360850749715" fill="#ff6909" stroke="none" /><path d="M 89.1626897886671 117.98757091392108 l -5.721508231352273 9.496455581608226 a32.08685370404471,32.08685370404471 0 0,0 -0.47063896902737207,-0.289104894475992 l 5.884126400311954 -9.396562220303855" fill="#ff6e0a" stroke="none" /><path d="M 88.8546689885994 117.79835938074946 l -3.8883669830360286 6.209465909762944 a28.326449664010042,28.326449664010042 0 0,0 -0.41102784266788905,-0.2623374162999406 l 3.9946766277508408 -6.1416140646391995" fill="#ff3705" stroke="none" /><path d="M 88.54995079064634 117.60387380957326 l -4.302858764737567 6.61542857413904 a28.89167211488251,28.89167211488251 0 0,0 -0.41456151447253414,-0.27474876644394336 l 4.416094977950063 -6.540381786603779" fill="#ff3f06" stroke="none" /><path d="M 86.79598089348748 116.32954008644616 l -2.352087920049146 2.908850227151243 a24.740819058393356,24.740819058393356 0 0,0 -0.3288524592127834,-0.2706231857706783 l 2.401810507806618 -2.867931922523384" fill="#ff0100" stroke="none" /><path d="M 86.24171649860922 115.8653595955263 l -8.480343907038415 9.77910547964027 a33.944000029495285,33.944000029495285 0 0,0 -0.43813241813970044,-0.38660091822552467 l 8.647418678084705 -9.631681419642456" fill="#ff880c" stroke="none" /><path d="M 84.19399662182784 113.82643327865904 l -4.128597931991738 3.611525473917411 a26.485292802832028,26.485292802832028 0 0,0 -0.29721226834278625,-0.34572501393659805 l 4.190152709905304 -3.539923360819283" fill="#ff1c02" stroke="none" /><path d="M 83.28015986056508 112.70617746262583 l -8.749916443097698 6.6494649579170355 a31.989832664229155,31.989832664229155 0 0,0 -0.3294019473309098,-0.4412877385466489 l 8.863079657123693 -6.497864339861079" fill="#ff6c0a" stroke="none" /><line stroke="#e1ed5e" stroke-width="0.3" x1="26.63291911575756" x2="22.317208475507996" y1="142.92168965132927" y2="145.44649492493687" /><path d="M 25.769776987707644 143.4266507060508 a86.0,86.0 0 0,1 -11.730757126820373,-40.83630448921669" fill="none" id="id45" stroke="none" /><text fill="#e1ed5e" style="font-size:6.75px; font-family:Arial;" text-anchor="middle"><textPath startOffset="21.46611528233685" xlink:href="#id45">September</textPath></text><path d="M 81.18737489456691 109.33194174019688 l -4.879172530686754 2.4202977278055724 a26.446481954016647,26.446481954016647 0 0,0 -0.19878528811614912,-0.40955657177671473 l 4.920111075417622 -2.335952200063573" fill="#ff1b02" stroke="none" /><path d="M 79.86692584326677 105.97154293290107 l -4.464122253221158 1.3240748772543485 a25.65634639736784,25.65634639736784 0 0,0 -0.121937727669428,-0.42448122674428795 l 4.486252617776691 -1.2470361750054644" fill="#ff0f01" stroke="none" /><path d="M 79.35854240842038 103.8639653848113 l -16.54411218108429 3.0969652461085024 a37.83148364214829,37.83148364214829 0 0,0 -0.1143115346990998,-0.6411197933420821 l 16.59497015812258 -2.811726702033207" fill="#ffbd11" stroke="none" /><path d="M 79.23777060512086 103.15116336523772 l -4.1840609914778195 0.6350310202004141 a25.231977171136812,25.231977171136812 0 0,0 -0.06147705031851069,-0.42997034674183193 l 4.194372092812929 -0.5629152014781815" fill="#ff0901" stroke="none" /><path d="M 79.04373962182676 101.35467743843564 l -11.400206070820671 0.7369445539884065 a32.42400042598168,32.42400042598168 0 0,0 -0.031209874639681837,-0.5572732772994575 l 11.411202296347884 -0.5405995603535114" fill="#ff720a" stroke="none" /><line stroke="#e1ed5e" stroke-width="0.3" x1="15.007084014347285" x2="10.007500721073583" y1="101.09737516637583" y2="101.16192664675087" /><path d="M 14.007167355692545 101.11028546245083 a86.0,86.0 0 0,1 10.666146001902534,-42.60595125391555" fill="none" id="id46" stroke="none" /><text fill="#e1ed5e" style="font-size:6.75px; font-family:Arial;" text-anchor="middle"><textPath startOffset="22.20632615414155" xlink:href="#id46">October</textPath></text><path d="M 79.00175016825051 100.2711162175752 l -16.981067656138883 0.21924888360743156 a37.98248299911792,37.98248299911792 0 0,0 -0.0028137834168158794,-0.6538241713557698 l 16.9823257368452 0.07308476595201359" fill="#ffbf11" stroke="none" /><path d="M 79.03285615573316 98.82574320788736 l -3.906331137683156 -0.21877256648476784 a24.91245247806019,24.91245247806019 0 0,0 0.027663984210428854,-0.42794959136608607 l 3.901986562468314 0.28598122210386573" fill="#ff0400" stroke="none" /><path d="M 79.05617556472873 98.46500227214037 l -10.937365118474803 -0.8016124589621819 a31.96670133947272,31.96670133947272 0 0,0 0.04494444560170982,-0.5484360764470233 l 10.921946189053598 0.9897624526169836" fill="#ff6c09" stroke="none" /><path d="M 79.12142395522702 97.74499172005258 l -14.663540399392945 -1.583748093886552 a35.7488194466377,35.7488194466377 0 0,0 0.07134382874033438,-0.6112303557052007 l 14.634106217649022 1.8359221879166145" fill="#ffa10e" stroke="none" /><path d="M 79.16333360222342 97.38593545837743 l -13.038649291689719 -1.6357640964917126 a34.14085611864966,34.14085611864966 0 0,0 0.07817280751311946,-0.5824782158819866 l 13.008560485118766 1.8599606544383585" fill="#ff8b0c" stroke="none" /><path d="M 79.21141760316559 97.0276538004421 l -7.303022418151641 -1.0441842794044798 a28.377293355247634,28.377293355247634 0 0,0 0.07330004403172541,-0.4829557063369282 l 7.283966480680613 1.1697390981335" fill="#ff3805" stroke="none" /><path d="M 79.26566170972629 96.67025291283419 l -10.842971890640374 -1.7412831585764552 a31.98189903703177,31.98189903703177 0 0,0 0.09196796894735812,-0.5428001587355457 l 10.811392060172794 1.927669105627829" fill="#ff6c0a" stroke="none" /><path d="M 79.32604984820605 96.31383870115002 l -17.955468044786798 -3.2014564668807357 a39.23864458277238,39.23864458277238 0 0,0 0.1242823828181588,-0.663921458614928 l 17.89769993805878 3.5100560029582364" fill="#ffd013" stroke="none" /><path d="M 79.3925641242962 95.95851677861259 l -7.159906358892965 -1.404184469659677 a28.29629995908538,28.29629995908538 0 0,0 0.09785224885853765,-0.47716231695307865 l 7.134674814119433 1.527222442776158" fill="#ff3705" stroke="none" /><path d="M 79.46518482838121 95.60439243477599 l -10.824238867418178 -2.316997053821758 a32.06944544258406,32.06944544258406 0 0,0 0.12019263628872813,-0.5388000210747728 l 10.78275184412741 2.50297524444649" fill="#ff6d0a" stroke="none" /><path d="M 79.54389044137918 95.25157060432595 l -15.41047856799829 -3.5771987446581486 a36.82021493385973,36.82021493385973 0 0,0 0.1486260244637247,-0.6161508238682636 l 15.34661974327375 3.841934800185809" fill="#ffaf10" stroke="none" /><path d="M 79.91906864156998 93.8553929516997 l -3.607981445225128 -1.104013943514636 a24.773112362037942,24.773112362037942 0 0,0 0.12828286282694024,-0.4066917316148721 l 3.5884430986299836 1.1659558415559226" fill="#ff0200" stroke="none" /><path d="M 80.02781315780177 93.51064311812611 l -3.53811741264798 -1.1496040349539374 a24.720196804318988,24.720196804318988 0 0,0 0.1349754601941714,-0.4035594459797241 l 3.5178046586820364 1.2103365838559836" fill="#ff0100" stroke="none" /><path d="M 80.803312248108 91.48605970444005 l -5.424713327016754 -2.4059194994301536 a26.934303945539984,26.934303945539984 0 0,0 0.1916153620794538,-0.4221990507633302 l 5.382495647973948 2.498940559035555" fill="#ff2203" stroke="none" /><path d="M 80.95270993114464 91.15688171328213 l -6.641125670240435 -3.0832868952272925 a28.321967511960622,28.321967511960622 0 0,0 0.20909947604807666,-0.4404168235720565 l 6.587068000350607 3.197146134439881" fill="#ff3705" stroke="none" /><path d="M 81.10775173730289 90.83032412892265 l -5.091026230059908 -2.4710166694653406 a26.65901682767719,26.65901682767719 0 0,0 0.20392876751775305,-0.4111079514137186 l 5.047737449588743 2.5582842093780207" fill="#ff1e03" stroke="none" /><path d="M 81.26839172434947 90.50648371742162 l -9.772689610347042 -4.952975023560392 a31.956159172091198,31.956159172091198 0 0,0 0.252895819373117,-0.48851422790627846 l 9.68598435781381 5.120461973727006" fill="#ff6c09" stroke="none" /><line stroke="#e1ed5e" stroke-width="0.3" x1="26.266209847984243" x2="21.928928074336255" y1="57.711370442889674" y2="55.22380399835377" /><path d="M 25.398753493254645 57.213857153982495 a86.0,86.0 0 0,1 29.58750427330803,-30.492523968695096" fill="none" id="id47" stroke="none" /><text fill="#e1ed5e" style="font-size:6.75px; font-family:Arial;" text-anchor="middle"><textPath startOffset="21.46611528233685" xlink:href="#id47">November</textPath></text><path d="M 84.07557802195018 86.31012108654704 l -4.175078113411428 -3.5892237662123128 a26.505797353429422,26.505797353429422 0 0,0 0.30040930630824114,-0.3434197681097784 l 4.112676943525343 3.6605590905250343" fill="#ff1c02" stroke="none" /><path d="M 85.57189188830299 84.74124197986013 l -3.687573453603295 -3.899873120884592 a26.367234700916093,26.367234700916093 0 0,0 0.33246837499682264,-0.30899312084708874 l 3.619897194811616 3.9627708278063283" fill="#ff1a02" stroke="none" /><line stroke="#e1ed5e" stroke-width="0.3" x1="56.762969772571076" x2="54.21961505331055" y1="26.818313649435495" y2="22.513508569990535" /><path d="M 56.25429882871897 25.957352633546506 a86.0,86.0 0 0,1 42.265352541879196,-11.944610805530505" fill="none" id="id48" stroke="none" /><text fill="#e1ed5e" style="font-size:6.75px; font-family:Arial;" text-anchor="middle"><textPath startOffset="22.20632615414155" xlink:href="#id48">December</textPath></text><path d="M 97.11714578562143 79.19881850522333 l -1.0106325724748688 -7.292200715433816 a28.361899854706028,28.361899854706028 0 0,0 0.4841582556879638,-0.06285763702327839 l 0.8849595882790472 7.308516675621231" fill="#ff3805" stroke="none" /></svg>