<?xml version="1.0" encoding="utf-8" ?>
<svg baseProfile="full" height="200mm" version="1.1" viewBox="0,0,200,200" width="200mm" xmlns="http://www.w3.org/2000/svg" xmlns:ev="http://www.w3.org/2001/xml-events" xmlns:xlink="http://www.w3.org/1999/xlink"><defs /><rect fill="#1a1a1a" height="200" width="200" x="0" y="0" /><text alignment-baseline="middle" fill="#e1ed5e" style="dominant-baseline: central; font-size:9.0px; font-family:Arial;" text-anchor="middle" x="100.0" y="100.0">2019</text><line stroke="#e1ed5e" stroke-width="0.3" x1="100.0" x2="100.0" y1="15.0" y2="10.0" /><path d="M 100.0 14.0 a86.0,86.0 0 0,1 42.46469731375804,11.215312516191453" fill="none" id="id49" stroke="none" /><text fill="#e1ed5e" style="font-size:6.75px; font-family:Arial;" text-anchor="middle"><textPath startOffset="22.20632615414155" xlink:href="#id49">January</textPath></text><path d="M 100.0 79.0 l 0.0 -45.997625698324015 a66.99762569832401,66.99762569832401 0 0,0 1.1532539927405538,0.00992642121079752 l -0.7917735134680254 45.99081065372177" fill="#36ff6f" stroke="none" /><path d="M 106.74666289553966 80.11325718540242 l 10.029536293313416 -29.563476329410143 a52.21843575418994,52.21843575418994 0 0,0 0.8487186591700385,0.2961012751567064 l -10.536936956546729 29.38645420108123" fill="#9eff22" stroke="none" /><line stroke="#e1ed5e" stroke-width="0.3" x1="143.23703022742887" x2="145.7803849466894" y1="26.81831364943548" y2="22.513508569990506" /><path d="M 143.74570117128098 25.957352633546492 a86.0,86.0 0 0,1 28.547481713284135,27.462654790039103" fill="none" id="id50" stroke="none" /><text fill="#e1ed5e" style="font-size:6.75px; font-family:Arial;" text-anchor="middle"><textPath startOffset="19.985693538727396" xlink:href="#id50">February</textPath></text><line stroke="#e1ed5e" stroke-width="0.3" x1="172.23445277983987" x2="176.4835382374775" y1="55.19839476539836" y2="52.563006222186495" /><path d="M 173.08426987136738 54.67131705675599 a86.0,86.0 0 0,1 12.851231095245387,41.99856678651699" fill="none" id="id51" stroke="none" /><text fill="#e1ed5e" style="font-size:6.75px; font-family:Arial;" text-anchor="middle"><textPath startOffset="22.20632615414155" xlink:href="#id51">March</textPath></text><path d="M 120.98425023603335 99.18683210126433 l 19.958483813880886 -0.7734180712835058 a40.97346368715084,40.97346368715084 0 0,0 0.02124436151601096,0.7049969330269222 l -19.96883986985254 0.42975099083158447" fill="#ffd013" stroke="none" /><line stroke="#e1ed5e" stroke-width="0.3" x1="184.98032266829074" x2="189.97916517819016" y1="98.17113171792111" y2="98.06355123074" /><path d="M 185.9800911702706 98.14961562048488 a86.0,86.0 0 0,1 -9.607161424134198,41.387399972396054" fill="none" id="id52" stroke="none" /><text fill="#e1ed5e" style="font-size:6.75px; font-family:Arial;" text-anchor="middle"><textPath startOffset="21.466115282336823" xlink:href="#id52">April</textPath></text><path d="M 120.99824983174949 100.27111621757518 l 19.03039708913722 0.2457085385258907 a40.03198324022347,40.03198324022347 0 0,0 -0.014826964582728109,0.6889507827207714 l -19.023348061869488 -0.5732491370367769" fill="#ffc312" stroke="none" /><path d="M 120.9764740272857 100.99374915477107 l 23.900289820474413 1.1322633526008856 a44.92709497206704,44.92709497206704 0 0,0 -0.04324478730514332,0.7721647275382661 l -23.877258682281738 -1.5434997964745751" fill="#f9ff18" stroke="none" /><path d="M 120.92983693683757 101.71520430193887 l 23.695147794693494 1.9418220770274426 a44.7745810055866,44.7745810055866 0 0,0 -0.06956137056343127,0.7676039277119445 l -23.658211827852988 -2.3494073932879576" fill="#fbff18" stroke="none" /><path d="M 120.5718875245553 104.21870165774334 l 28.9816521592443 5.943302181795674 a50.584776536312845,50.584776536312845 0 0,0 -0.18226408297758798,0.8514771168337056 l -28.87505403754227 -6.441293118045548" fill="#b2ff20" stroke="none" /><path d="M 120.32669344350535 105.2749913415812 l 17.269172655983663 4.481532448441127 a38.841201117318434,38.841201117318434 0 0,0 -0.1735127520957883,0.6457054988765663 l -17.189471827546097 -4.7781288804932425" fill="#ffb210" stroke="none" /><path d="M 120.13307415673323 105.97154293290107 l 28.191927583157444 8.361828134813713 a50.40586592178771,50.40586592178771 0 0,0 -0.25388529157955353,0.8297118225866404 l -28.043815519071757 -8.845866929952411" fill="#b4ff20" stroke="none" /><path d="M 119.9155931802556 106.66101706037122 l 14.052175523275322 4.699924328071986 a35.81731843575419,35.81731843575419 0 0,0 -0.20059262186051197,0.5830160544516011 l -13.969192070471578 -4.941113085612887" fill="#ff870c" stroke="none" /><path d="M 118.64920377521936 109.65438752849418 l 15.953404067488627 8.258816146931128 a38.964385474860336,38.964385474860336 0 0,0 -0.3134731045017173,0.5929729782933946 l -15.808878454762016 -8.532204140310657" fill="#ffb410" stroke="none" /><line stroke="#e1ed5e" stroke-width="0.3" x1="174.80103733775053" x2="179.2010983576182" y1="140.37084112569926" y2="142.7455964860345" /><path d="M 175.68104954172406 140.8457921977663 a86.0,86.0 0 0,1 -30.038265399797805,32.042727171017184" fill="none" id="id53" stroke="none" /><text fill="#e1ed5e" style="font-size:6.75px; font-family:Arial;" text-anchor="middle"><textPath startOffset="22.206326154141568" xlink:href="#id53">May</textPath></text><path d="M 117.94076556474637 110.91462005526583 l 17.56741723106659 10.687486202160432 a41.56298882681564,41.56298882681564 0 0,0 -0.377105669171131,0.6080144117629528 l -17.380846922227494 -10.988296945288656" fill="#ffd814" stroke="none" /><path d="M 116.71984013943494 112.70617746262583 l 19.036331957635973 14.466586407168398 a44.90949720670391,44.90949720670391 0 0,0 -0.4730321249660525,0.6114577868907647 l -18.78449301545185 -14.792122188172415" fill="#faff18" stroke="none" /><path d="M 116.27256486870786 113.27417163493432 l 27.670178390575156 22.571653583146002 a56.70879888268156,56.70879888268156 0 0,0 -0.623537547773511,0.7510911443722413 l -27.277544842908103 -23.044605984632014" fill="#69ff28" stroke="none" /><path d="M 115.56566222782051 114.09645910891815 l 13.443862460452806 12.174930604685741 a39.13743016759777,39.13743016759777 0 0,0 -0.45651686196998414,0.49545889049315484 l -13.232299190487101 -12.404540749980232" fill="#ffb610" stroke="none" /><path d="M 115.07121518719521 114.62390073753431 l 10.604578507414724 10.289834066438251 a35.77625698324022,35.77625698324022 0 0,0 -0.4326531362531532,0.43827534279662744 l -10.425884746106036 -10.470849903215544" fill="#ff860c" stroke="none" /><path d="M 114.29624159901734 115.38237550388516 l 20.226386508106934 21.76305361094367 a50.710893854748605,50.710893854748605 0 0,0 -0.6445124007985925,0.5887467968879861 l -19.848774557841477 -22.107993174418237" fill="#b0ff20" stroke="none" /><path d="M 113.48314897796784 116.09983520530334 l 11.456910388541388 13.680362763835967 a38.84413407821229,38.84413407821229 0 0,0 -0.5163122929544848,0.4248898667395991 l -11.219727967042212 -13.875547749432744" fill="#ffb210" stroke="none" /><path d="M 112.63410532772338 116.77436683061366 l 37.65704494398666 49.99745286761538 a83.59231843575418,83.59231843575418 0 0,0 -1.1568182902374997,0.855786515498302 l -36.7908416833306 -50.63824933185345" fill="#4cd6ff" stroke="none" /><path d="M 112.04921762599082 117.19931262002967 l 10.295686234051939 14.696284163315863 a38.94385474860336,38.94385474860336 0 0,0 -0.5523409058627593,0.3799051115656773 l -10.041188443566295 -14.871330064246637" fill="#ffb310" stroke="none" /><path d="M 111.45004920935366 117.60387380957326 l 20.074367000700647 30.86332792340407 a57.81745810055866,57.81745810055866 0 0,0 -0.8389538877442542,0.5354600648877517 l -19.540131310909462 -31.204302417115628" fill="#5dff2a" stroke="none" /><line stroke="#e1ed5e" stroke-width="0.3" x1="143.8653032363475" x2="146.44561519142675" y1="172.8068346515853" y2="177.08958963109032" /><path d="M 144.38136562736335 173.6633856474863 a86.0,86.0 0 0,1 -40.68145358897372,12.25698825130547" fill="none" id="id54" stroke="none" /><text fill="#e1ed5e" style="font-size:6.75px; font-family:Arial;" text-anchor="middle"><textPath startOffset="21.466115282336833" xlink:href="#id54">June</textPath></text><path d="M 110.21172684928248 118.3499491758327 l 8.605804442537787 15.464189012147276 a38.69748603351955,38.69748603351955 0 0,0 -0.5848428240509845,0.3189029386426799 l -8.338338806618152 -15.610032602549726" fill="#ffb010" stroke="none" /><path d="M 109.57404056367764 118.69057910512821 l 8.104505566543317 15.821731837455598 a38.77667597765363,38.77667597765363 0 0,0 -0.5966919673919306,0.2991937395723627 l -7.8309596914686255 -15.958893417937263" fill="#ffb110" stroke="none" /><path d="M 108.2653958097858 119.30500536409082 l 17.462380225506962 40.78586817634105 a65.36689944134079,65.36689944134079 0 0,0 -1.0381774556117438,0.4339582606443936 l -16.757731310397755 -41.08041148000541" fill="#34ff5b" stroke="none" /><path d="M 107.59598834532513 119.57807347666477 l 2.1546721130384543 5.553501009931027 a26.956843575418993,26.956843575418993 0 0,0 -0.43404340795982044,0.16411807727234015 l -2.0587584843183593 -5.589767337309999" fill="#ff0000" stroke="none" /><path d="M 107.2578585660854 119.70592522655815 l 8.198541910963511 22.259989278268474 a44.72178770949721,44.72178770949721 0 0,0 -0.7246642652957827,0.2598388232154592 l -7.814158085037994 -22.397815642523895" fill="#fcff18" stroke="none" /><path d="M 106.57524785965236 119.94407469862006 l 4.97184244583211 15.080617376861598 a36.87905027932961,36.87905027932961 0 0,0 -0.6046033249757704,0.19357489191352648 l -4.7115177757654 -15.16396511543483" fill="#ff960d" stroke="none" /><path d="M 105.88484417918355 120.15858648285463 l 17.654532537550654 60.47575944856389 a84.0,84.0 0 0,0 -1.391475327581577,0.39324482664592386 l -16.61092604186447 -60.77069306854833" fill="#4dd2ff" stroke="none" /><path d="M 105.18746579009965 120.34920634021253 l 7.489947114252826 29.381298204625296 a51.32094972067039,51.32094972067039 0 0,0 -0.8579071820619123,0.21085271257277988 l -6.983086647447702 -29.505872175512106" fill="#a9ff21" stroke="none" /><path d="M 104.48393922423573 120.51570834832081 l 2.193748478002479 10.037224349744106 a31.274162011173182,31.274162011173182 0 0,0 -0.526907883628288,0.1104186700436999 l -2.020649132944813 -10.073499000514346" fill="#ff4306" stroke="none" /><path d="M 103.7750983002368 120.6578951692458 l 8.249327933729766 45.14154019804746 a66.88910614525139,66.88910614525139 0 0,0 -1.134410664330786,0.19723183495110796 l -7.47106829792693 -45.27685061151957" fill="#36ff6e" stroke="none" /><path d="M 102.34483914955558 120.86867818915974 l 1.4082134557386914 12.532865392931129 a33.61173184357542,33.61173184357542 0 0,0 -0.5755087210753902,0.05965383205265484 l -1.1922721380576984 -12.555248593439542" fill="#ff6609" stroke="none" /><path d="M 101.26447882468166 120.96189622390904 l 3.7333913901913895 61.890291365005154 a83.00279329608938,83.00279329608938 0 0,0 -1.4269047016618055,0.073754674389621 l -2.6674986201161044 -61.945385846156974" fill="#4cdcff" stroke="none" /><line stroke="#e1ed5e" stroke-width="0.3" x1="102.19456741930631" x2="102.32365962044197" y1="184.97166512339345" y2="189.96999836594603" /><path d="M 102.22038585953345 185.97133177190398 a86.0,86.0 0 0,1 -42.740103519485714,-10.115201625700543" fill="none" id="id55" stroke="none" /><text fill="#e1ed5e" style="font-size:6.75px; font-family:Arial;" text-anchor="middle"><textPath startOffset="22.20632615414155" xlink:href="#id55">July</textPath></text><path d="M 98.37488393609728 120.93702456842531 l -2.3720793273529757 30.560453039750417 a51.65237430167598,51.65237430167598 0 0,0 -0.8858521955661605,-0.07643505490509199 l 2.897775840660678 -30.515093732566662" fill="#a5ff21" stroke="none" /><path d="M 97.65516085044442 120.86867818915974 l -4.279331447938939 38.08533769521653 a59.325,59.325 0 0,0 -1.0138150298798252,-0.12275888135089023 l 4.934273900870154 -38.00603328514029" fill="#4cff2c" stroke="none" /><path d="M 96.93821686468263 120.77559828337769 l -3.684830345953871 25.00325843685274 a46.27332402234637,46.27332402234637 0 0,0 -0.7870081815430762,-0.12291449231630061 l 4.114674391105464 -24.936125637189335" fill="#e8ff1a" stroke="none" /><path d="M 95.86986931433489 120.58985236759428 l -12.188500193869215 60.76306990604288 a82.97346368715084,82.97346368715084 0 0,0 -1.3979390441567945,-0.29295171860979746 l 13.232630699455397 -60.54426220670654" fill="#4cdcff" stroke="none" /><path d="M 95.16358092515715 120.4354850818985 l -7.047932489791942 29.779867506219126 a51.602513966480444,51.602513966480444 0 0,0 -0.862613953663122,-0.21200952251717275 l 7.559499728198275 -29.654136725387925" fill="#a5ff21" stroke="none" /><path d="M 94.46302465271185 120.25689768951611 l -6.30642932362219 23.071927466201668 a44.91829608938548,44.91829608938548 0 0,0 -0.7440797710164578,-0.2102843757011935 l 6.7026402627432615 -22.959954297161953" fill="#f9ff18" stroke="none" /><path d="M 91.7346041902142 119.30500536409082 l -7.136407387722874 16.668092620224783 a39.131564245810054,39.131564245810054 0 0,0 -0.6169358042899984,-0.2704465265286897 l 7.422263866670616 -16.54278154040164" fill="#ffb610" stroke="none" /><path d="M 90.42595943632237 118.69057910512821 l -8.80651273077945 17.19220027742659 a40.31648044692737,40.31648044692737 0 0,0 -0.6149397840601664,-0.3217074311712183 l 9.101143417366112 -17.038063427310657" fill="#ffc712" stroke="none" /><line stroke="#e1ed5e" stroke-width="0.3" x1="58.666819895761336" x2="56.23545636021788" y1="174.27360380694188" y2="178.64263932499728" /><path d="M 58.180547188652646 175.14741091055294 a86.0,86.0 0 0,1 -31.652253787137756,-30.449443065178592" fill="none" id="id56" stroke="none" /><text fill="#e1ed5e" style="font-size:6.75px; font-family:Arial;" text-anchor="middle"><textPath startOffset="22.20632615414155" xlink:href="#id56">August</textPath></text><path d="M 89.7882731507175 118.34994917583269 l -7.635975635622692 13.721456408855902 a36.703072625698326,36.703072625698326 0 0,0 -0.5494121970318454,-0.31197058425222923 l 7.871036599575746 -13.58798265880904" fill="#ff940d" stroke="none" /><path d="M 87.95078237400918 117.19931262002967 l -10.531285461375775 15.032583572087397 a39.35446927374302,39.35446927374302 0 0,0 -0.551473563536825,-0.39346174505227616 l 10.788486352761486 -14.849077565190903" fill="#ffb911" stroke="none" /><path d="M 87.36589467227662 116.77436683061367 l -10.876623636883638 14.440949321774111 a39.07877094972067,39.07877094972067 0 0,0 -0.5338369862503887,-0.4093234370799113 l 11.123589351627514 -14.251586542866834" fill="#ffb510" stroke="none" /><path d="M 86.79598089348748 116.32954008644616 l -19.140295294203 23.670991139277195 a51.441201117318435,51.441201117318435 0 0,0 -0.6837512312087575,-0.5626807137379759 l 19.54491665395645 -23.33801530668204" fill="#a7ff21" stroke="none" /><path d="M 86.24171649860922 115.8653595955263 l -16.2447665811114 18.732646650918895 a45.79525139664804,45.79525139664804 0 0,0 -0.591102528172701,-0.5215792547999276 l 16.56481146219069 -18.45024425434668" fill="#eeff19" stroke="none" /><path d="M 84.19399662182784 113.82643327865904 l -9.07741423059273 7.9405438047270875 a33.060335195530726,33.060335195530726 0 0,0 -0.3709959821394109,-0.43155214221385896 l 9.21275272230292 -7.783114563351698" fill="#ff5e08" stroke="none" /><path d="M 83.28015986056508 112.70617746262583 l -49.88630515345647 37.91090351034578 a83.656843575419,83.656843575419 0 0,0 -0.8614214231921913,-1.1540147678430273 l 50.53148784334375 -37.04657586299345" fill="#4dd5ff" stroke="none" /><path d="M 82.85270091963577 112.12312394758628 l -20.0139634657268 14.149852909214886 a45.51075418994414,45.51075418994414 0 0,0 -0.4467402658610622,-0.6435626724363356 l 20.254564638749994 -13.80324897459154" fill="#f2ff19" stroke="none" /><line stroke="#e1ed5e" stroke-width="0.3" x1="26.63291911575756" x2="22.317208475507996" y1="142.92168965132927" y2="145.44649492493687" /><path d="M 25.769776987707644 143.4266507060508 a86.0,86.0 0 0,1 -11.730757126820373,-40.83630448921669" fill="none" id="id57" stroke="none" /><text fill="#e1ed5e" style="font-size:6.75px; font-family:Arial;" text-anchor="middle"><textPath startOffset="21.46611528233685" xlink:href="#id57">September</textPath></text><path d="M 81.18737489456691 109.33194174019688 l -16.710655819909835 8.28926668542628 a39.6536312849162,39.6536312849162 0 0,0 -0.29805697912974854,-0.6140856585683472 l 16.850866055654304 -8.00039207089265" fill="#ffbd11" stroke="none" /><path d="M 80.73074385275274 108.34839909993369 l -27.62285546024384 11.967593346608853 a51.10391061452514,51.10391061452514 0 0,0 -0.3427588412996159,-0.8101806515073812 l 27.82476528273576 -11.490338169435313" fill="#abff21" stroke="none" /><path d="M 80.45479744820244 107.68017299344265 l -16.487852431963308 6.478805150892964 a38.71508379888268,38.71508379888268 0 0,0 -0.23838484767676665,-0.6223476142182006 l 16.59693155923359 -6.194033969841605" fill="#ffb010" stroke="none" /><path d="M 80.0844068197444 106.66101706037122 l -28.460383997259125 9.518928290742789 a51.010055865921785,51.010055865921785 0 0,0 -0.27134373887226143,-0.8351101580427435 l 28.620019987147636 -9.027619232722241" fill="#acff20" stroke="none" /><path d="M 79.86692584326677 105.97154293290107 l -22.711569827365125 6.736334115787989 a44.68952513966481,44.68952513966481 0 0,0 -0.2123973172858146,-0.7393829253821887 l 22.82415978153704 -6.344393714901204" fill="#fcff18" stroke="none" /><path d="M 79.67330655649465 105.27499134158121 l -23.54887180361409 6.111180611510635 a45.32891061452514,45.32891061452514 0 0,0 -0.18949359463265844,-0.7569327153789538 l 23.65057671254181 -5.70492005673429" fill="#f4ff19" stroke="none" /><path d="M 79.35854240842038 103.8639653848113 l -60.941308942514205 11.4078721046824 a82.99986033519554,82.99986033519554 0 0,0 -0.25079221064850543,-1.4065759040503891 l 61.1286475955019 -10.357177449898797" fill="#4cdcff" stroke="none" /><path d="M 79.18660465613746 102.79330883721812 l -26.28127196981303 3.52713759738674 a47.51689944134078,47.51689944134078 0 0,0 -0.1018185123871248,-0.8115937238533091 l 26.338091991447 -3.074226119246022" fill="#d8ff1c" stroke="none" /><line stroke="#e1ed5e" stroke-width="0.3" x1="15.007084014347285" x2="10.007500721073583" y1="101.09737516637583" y2="101.16192664675087" /><path d="M 14.007167355692545 101.11028546245083 a86.0,86.0 0 0,1 10.666146001902534,-42.60595125391555" fill="none" id="id58" stroke="none" /><text fill="#e1ed5e" style="font-size:6.75px; font-family:Arial;" text-anchor="middle"><textPath startOffset="22.20632615414155" xlink:href="#id58">October</textPath></text><path d="M 79.00019446554 99.90962569577889 l -17.732517354936466 -0.07631327420682862 a38.73268156424581,38.73268156424581 0 0,0 0.00860786424629168,-0.6666885720744982 l 17.72857648357246 0.38153810434179875" fill="#ffb010" stroke="none" /><path d="M 79.08570108090925 98.10471618934814 l -26.642363190087547 -2.4143692230384866 a47.75153631284916,47.75153631284916 0 0,0 0.0812296252468764,-0.8179712408660852 l 26.596856439158444 2.8726159946090024" fill="#d5ff1c" stroke="none" /><path d="M 79.46518482838121 95.60439243477599 l -21.894242879907523 -4.686601697335206 a43.39022346368715,43.39022346368715 0 0,0 0.16262162551562234,-0.7290008602902099 l 21.810326867389865 5.062780727175375" fill="#fff016" stroke="none" /><path d="M 79.71946130924805 94.55025226153421 l -17.18180833772365 -4.617062818649925 a38.7913407821229,38.7913407821229 0 0,0 0.1788340464370548,-0.6433612152208191 l 17.099787520720234 4.912135337289687" fill="#ffb110" stroke="none" /><path d="M 80.38941819471856 92.48833698450439 l -16.581349476141593 -6.351341884889729 a38.756145251396646,38.756145251396646 0 0,0 0.24399106590270023,-0.6209306493446064 l 16.4695648603572 6.635821539130099" fill="#ffb110" stroke="none" /><path d="M 80.95270993114464 91.15688171328213 l -40.182865431572644 -18.655768396770032 a65.30237430167597,65.30237430167597 0 0,0 0.4821237170549444,-1.0154755049949091 l 39.85578352067595 19.344686317405472" fill="#34ff5a" stroke="none" /><path d="M 81.43458229118936 90.18545643968196 l -23.5671901613659 -12.458713187113224 a47.657681564245806,47.657681564245806 0 0,0 0.3896399016479122,-0.7219435617081914 l 23.349242160499518 12.862537732153887" fill="#d6ff1c" stroke="none" /><line stroke="#e1ed5e" stroke-width="0.3" x1="26.266209847984257" x2="21.92892807433627" y1="57.711370442889674" y2="55.22380399835377" /><path d="M 25.39875349325466 57.213857153982495 a86.0,86.0 0 0,1 29.58750427330802,-30.492523968695096" fill="none" id="id59" stroke="none" /><text fill="#e1ed5e" style="font-size:6.75px; font-family:Arial;" text-anchor="middle"><textPath startOffset="21.46611528233685" xlink:href="#id59">November</textPath></text><path d="M 82.15384107792192 88.93136811851018 l -39.83232761644271 -24.70500085168838 a67.87164804469273,67.87164804469273 0 0,0 0.6243299714067287,-0.9875400815985109 l 39.40117004879002 25.386988581001106" fill="#37ff7a" stroke="none" /><path d="M 82.7489923806493 88.02491185347247 l -14.67540326947837 -10.187187416270827 a38.86466480446927,38.86466480446927 0 0,0 0.3862173847735767,-0.5462771011317739 l 14.497873264900916 10.438291017734388" fill="#ffb210" stroke="none" /><path d="M 83.6137871275137 86.86637796730984 l -48.71007748296067 -39.041342366449356 a83.42513966480448,83.42513966480448 0 0,0 0.9077509624831133,-1.112795346322306 l 48.03082802840116 39.87402188237974" fill="#4cd8ff" stroke="none" /><path d="M 84.07557802195018 86.31012108654704 l -11.23605863590889 -9.65939500988329 a35.81731843575419,35.81731843575419 0 0,0 0.40594348631108584,-0.46406357928068254 l 11.06812328601996 9.851374145366913" fill="#ff870c" stroke="none" /><path d="M 85.31137513191541 84.99185889309783 l -32.017509541368185 -32.71397461667909 a66.77472067039106,66.77472067039106 0 0,0 0.828377792273165,-0.796898779843919 l 31.44964850548259 33.26025648328532" fill="#36ff6c" stroke="none" /><path d="M 87.22198572758235 83.33499621200491 l -10.995160046419715 -14.339816806960577 a39.0699720670391,39.0699720670391 0 0,0 0.53721927175761,-0.4046224177643176 l 10.746694620903714 14.52695581423075" fill="#ffb510" stroke="none" /><path d="M 88.09926311788651 82.69761687909137 l -18.30153824147369 -26.6084553832856 a53.29483240223464,53.29483240223464 0 0,0 0.760327695242845,-0.5133766538576746 l 17.840805851824303 26.91954394944194" fill="#91ff24" stroke="none" /><line stroke="#e1ed5e" stroke-width="0.3" x1="56.762969772571076" x2="54.21961505331055" y1="26.818313649435495" y2="22.513508569990535" /><path d="M 56.25429882871897 25.957352633546506 a86.0,86.0 0 0,1 42.265352541879196,-11.944610805530505" fill="none" id="id60" stroke="none" /><text fill="#e1ed5e" style="font-size:6.75px; font-family:Arial;" text-anchor="middle"><textPath startOffset="22.20632615414155" xlink:href="#id60">December</textPath></text><path d="M 89.3179101791058 81.91981866633112 l -23.885510898396117 -40.42789150168138 a67.95670391061452,67.95670391061452 0 0,0 1.0122418587679476,-0.5863558202894702 l 23.18607230716285 40.8330514793609" fill="#37ff7b" stroke="none" /><path d="M 90.26544431104013 81.39251694778311 l -9.530619466425797 -18.21766147989391 a41.56005586592178,41.56005586592178 0 0,0 0.6367386719088293,-0.326162278815894 l 9.215620306928205 18.379016284022306" fill="#ffd814" stroke="none" /><path d="M 92.23578459929587 80.48803036053334 l -11.125817040673805 -27.959889455436866 a51.09217877094972,51.09217877094972 0 0,0 0.819948780126483,-0.31812738802047397 l 10.642885095547646 28.14725954734789" fill="#abff21" stroke="none" /><path d="M 93.59665428221793 80.00007090966166 l -19.013286307269134 -59.385264310138716 a83.35474860335196,83.35474860335196 0 0,0 1.3702513558046217,-0.4257437662903119 l 17.98824957875378 59.703748211311556" fill="#4cd8ff" stroke="none" /><path d="M 94.63758080256005 79.69619591428918 l -6.751705176664964 -25.564077350933385 a47.440642458100555,47.440642458100555 0 0,0 0.791335017530745,-0.2017289157777427 l 6.31066127044922 25.676509262879993" fill="#d9ff1c" stroke="none" /><path d="M 95.33964822691252 79.52364482259891 l -4.302363857557019 -18.903450799248766 a40.38687150837988,40.38687150837988 0 0,0 0.6791865486600581,-0.14844387307540427 l 3.9763345847434404 18.974708170420037" fill="#ffc812" stroke="none" /><path d="M 96.40284397218896 79.31037775812273 l -10.389551208817345 -59.75717708966788 a81.6536312849162,81.6536312849162 0 0,0 1.3868316900968467,-0.22883911169843357 l 9.359390312581612 59.92716246430594" fill="#4ae9ff" stroke="none" /></svg>