<?xml version="1.0" encoding="utf-8" ?>
<svg baseProfile="full" height="300mm" version="1.1" viewBox="0,0,200,300" width="200mm" xmlns="http://www.w3.org/2000/svg" xmlns:ev="http://www.w3.org/2001/xml-events" xmlns:xlink="http://www.w3.org/1999/xlink"><defs /><rect fill="#222222" height="300" width="200" x="0" y="0" /><text fill="#555555" style="font-size:6px; font-family:Arial;" x="11" y="19">Running for 4839 Days</text><text fill="#555555" style="font-size:6px; font-family:Arial;" x="11" y="39">Races</text><text fill="#555555" style="font-size:8px; font-family:Arial;" x="11" y="59">1</text><text fill="#FFFFFF" style="font-size:10px; font-family:Arial; font-weight:bold;" x="23" y="59">Full</text><text fill="#555555" style="font-size:6px; font-family:Arial;" x="49" y="59">1x</text><text fill="#555555" style="font-size:8px; font-family:Arial;" x="11" y="77">2</text><text fill="#FFFFFF" style="font-size:10px; font-family:Arial; font-weight:bold;" x="23" y="77">Half</text><text fill="#555555" style="font-size:6px; font-family:Arial;" x="49" y="77">1x</text><text fill="#555555" style="font-size:8px; font-family:Arial;" x="11" y="95">3</text><text fill="#FFFFFF" style="font-size:10px; font-family:Arial; font-weight:bold;" x="23" y="95">10K</text><text fill="#555555" style="font-size:6px; font-family:Arial;" x="49" y="95">16x</text><text fill="#555555" style="font-size:6px; font-family:Arial;" x="11" y="133">Stats</text><text fill="#555555" style="font-size:5px; font-family:Arial;" x="11" y="139">Distance</text><text fill="#FFFFFF" style="font-size:10px; font-family:Arial; font-weight:bold;" x="11" y="150">960</text><text fill="#555555" style="font-size:6px; font-family:Arial;" x="29" y="150">km</text><text fill="#555555" style="font-size:5px; font-family:Arial;" x="53" y="139">Runs</text><text fill="#FFFFFF" style="font-size:10px; font-family:Arial; font-weight:bold;" x="53" y="150">196</text><text fill="#555555" style="font-size:5px; font-family:Arial;" x="11" y="167">Avg Pace</text><text fill="#FFFFFF" style="font-size:10px; font-family:Arial; font-weight:bold;" x="11" y="178">4'59"</text><text fill="#555555" style="font-size:5px; font-family:Arial;" x="53" y="167">Streak</text><text fill="#FFFFFF" style="font-size:10px; font-family:Arial; font-weight:bold;" x="53" y="178">79</text><text fill="#555555" style="font-size:6px; font-family:Arial;" x="65" y="178">d</text><text fill="#555555" style="font-size:5px; font-family:Arial;" x="11" y="195">Time</text><text fill="#FFFFFF" style="font-size:10px; font-family:Arial; font-weight:bold;" x="11" y="206">79</text><text fill="#555555" style="font-size:6px; font-family:Arial;" x="23" y="206">h</text><text fill="#555555" style="font-size:5px; font-family:Arial;" x="53" y="195">Longest</text><text fill="#FFFFFF" style="font-size:10px; font-family:Arial; font-weight:bold;" x="53" y="206">42.8</text><text fill="#555555" style="font-size:5px; font-family:Arial;" x="11" y="252.0645161290322">Runner</text><text fill="#FFFFFF" style="font-size:8px; font-family:Arial; font-weight:bold;" x="11" y="262.0645161290322">yihong0618</text><text fill="#555555" style="font-size:7px; font-family:Arial;" x="11" y="285.5806451612903">running_page/2017</text><circle cx="85.41666666666667" cy="17.419354838709676" fill="#528090" r="3.3125"><title>2017-01-01: 3 km</title></circle><circle cx="85.41666666666667" cy="26.25806451612903" fill="#5093aa" r="3.3125"><title>2017-01-02: 5 km</title></circle><circle cx="85.41666666666667" cy="35.096774193548384" fill="#518799" r="3.3125"><title>2017-01-03: 4 km</title></circle><circle cx="85.41666666666667" cy="43.935483870967744" fill="#4fa5c2" r="3.3125"><title>2017-01-04: 6 km</title></circle><circle cx="85.41666666666667" cy="52.774193548387096" fill="#4faccc" r="3.3125"><title>2017-01-05: 7 km</title></circle><circle cx="85.41666666666667" cy="61.61290322580645" fill="#53727d" r="3.3125"><title>2017-01-06: 2 km</title></circle><circle cx="85.41666666666667" cy="70.45161290322581" fill="#FFFF00" r="3.3125"><title>2017-01-07: 18 km</title></circle><circle cx="85.41666666666667" cy="79.29032258064517" fill="#546166" r="3.3125"><title>2017-01-08: 1 km</title></circle><circle cx="85.41666666666667" cy="88.12903225806451" fill="#5093aa" r="3.3125"><title>2017-01-09: 5 km</title></circle><circle cx="85.41666666666667" cy="96.96774193548387" fill="#527f8e" r="3.3125"><title>2017-01-10: 3 km</title></circle><circle cx="85.41666666666667" cy="105.80645161290322" fill="#5097af" r="3.3125"><title>2017-01-11: 5 km</title></circle><circle cx="85.41666666666667" cy="114.64516129032258" fill="#5094ab" r="3.3125"><title>2017-01-12: 5 km</title></circle><circle cx="85.41666666666667" cy="123.48387096774194" fill="#518799" r="3.3125"><title>2017-01-13: 4 km</title></circle><circle cx="85.41666666666667" cy="132.32258064516128" fill="#FFFF00" r="3.3125"><title>2017-01-14: 13 km</title></circle><circle cx="85.41666666666667" cy="141.16129032258064" fill="#4fa7c5" r="3.3125"><title>2017-01-15: 6 km</title></circle><circle cx="85.41666666666667" cy="149.99999999999997" fill="#4eb3d6" r="3.3125"><title>2017-01-16: 7 km</title></circle><circle cx="85.41666666666667" cy="158.83870967741933" fill="#4fafd0" r="3.3125"><title>2017-01-17: 7 km</title></circle><circle cx="85.41666666666667" cy="167.6774193548387" fill="#509eb8" r="3.3125"><title>2017-01-18: 5 km</title></circle><circle cx="85.41666666666667" cy="176.51612903225805" fill="#518da2" r="3.3125"><title>2017-01-19: 4 km</title></circle><circle cx="85.41666666666667" cy="185.35483870967738" fill="#4eb5d7" r="3.3125"><title>2017-01-20: 7 km</title></circle><circle cx="85.41666666666667" cy="194.19354838709674" fill="#FFFF00" r="3.3125"><title>2017-01-21: 15 km</title></circle><circle cx="85.41666666666667" cy="203.0322580645161" fill="#528191" r="3.3125"><title>2017-01-22: 3 km</title></circle><circle cx="85.41666666666667" cy="211.87096774193546" fill="#4dccf8" r="3.3125"><title>2017-01-23: 9 km</title></circle><circle cx="85.41666666666667" cy="220.70967741935482" fill="#4fafcf" r="3.3125"><title>2017-01-24: 7 km</title></circle><circle cx="85.41666666666667" cy="229.54838709677418" fill="#5097af" r="3.3125"><title>2017-01-25: 5 km</title></circle><circle cx="85.41666666666667" cy="238.3870967741935" fill="#50a0bb" r="3.3125"><title>2017-01-26: 6 km</title></circle><circle cx="85.41666666666667" cy="247.22580645161287" fill="#4eb9dd" r="3.3125"><title>2017-01-27: 8 km</title></circle><circle cx="85.41666666666667" cy="256.06451612903226" fill="#518da2" r="3.3125"><title>2017-01-28: 4 km</title></circle><circle cx="85.41666666666667" cy="264.90322580645164" fill="#527a88" r="3.3125"><title>2017-01-29: 3 km</title></circle><circle cx="85.41666666666667" cy="273.741935483871" fill="#5093aa" r="3.3125"><title>2017-01-30: 5 km</title></circle><circle cx="85.41666666666667" cy="282.5806451612903" fill="#FFFF00" r="3.3125"><title>2017-01-31: 10 km</title></circle><circle cx="94.25" cy="17.419354838709676" fill="#518799" r="3.3125"><title>2017-02-01: 4 km</title></circle><circle cx="94.25" cy="26.25806451612903" fill="#50a0bb" r="3.3125"><title>2017-02-02: 6 km</title></circle><circle cx="94.25" cy="35.096774193548384" fill="#4ebade" r="3.3125"><title>2017-02-03: 8 km</title></circle><circle cx="94.25" cy="43.935483870967744" fill="#5099b1" r="3.3125"><title>2017-02-04: 5 km</title></circle><circle cx="94.25" cy="52.774193548387096" fill="#4fb1d3" r="3.3125"><title>2017-02-05: 7 km</title></circle><circle cx="94.25" cy="61.61290322580645" fill="#527480" r="3.3125"><title>2017-02-06: 2 km</title></circle><circle cx="94.25" cy="70.45161290322581" fill="#527a88" r="3.3125"><title>2017-02-07: 3 km</title></circle><circle cx="94.25" cy="79.29032258064517" fill="#5093aa" r="3.3125"><title>2017-02-08: 5 km</title></circle><circle cx="94.25" cy="88.12903225806451" fill="#53737e" r="3.3125"><title>2017-02-09: 2 km</title></circle><circle cx="94.25" cy="96.96774193548387" fill="#5094ab" r="3.3125"><title>2017-02-10: 5 km</title></circle><circle cx="94.25" cy="105.80645161290322" fill="#4eb9dd" r="3.3125"><title>2017-02-11: 8 km</title></circle><circle cx="94.25" cy="114.64516129032258" fill="#4dc4ec" r="3.3125"><title>2017-02-12: 8 km</title></circle><circle cx="94.25" cy="123.48387096774194" fill="#536f78" r="3.3125"><title>2017-02-13: 2 km</title></circle><circle cx="94.25" cy="132.32258064516128" fill="#509eb8" r="3.3125"><title>2017-02-14: 5 km</title></circle><circle cx="94.25" cy="141.16129032258064" fill="#5097ae" r="3.3125"><title>2017-02-15: 5 km</title></circle><circle cx="94.25" cy="149.99999999999997" fill="#4eb9dd" r="3.3125"><title>2017-02-16: 8 km</title></circle><circle cx="94.25" cy="158.83870967741933" fill="#5192a8" r="3.3125"><title>2017-02-17: 4 km</title></circle><circle cx="94.25" cy="167.6774193548387" fill="#FFFF00" r="3.3125"><title>2017-02-18: 17 km</title></circle><circle cx="94.25" cy="176.51612903225805" fill="#50a2be" r="3.3125"><title>2017-02-19: 6 km</title></circle><circle cx="94.25" cy="185.35483870967738" fill="#546166" r="3.3125"><title>2017-02-20: 1 km</title></circle><circle cx="94.25" cy="194.19354838709674" fill="#5097b0" r="3.3125"><title>2017-02-21: 5 km</title></circle><circle cx="94.25" cy="203.0322580645161" fill="#5093aa" r="3.3125"><title>2017-02-22: 5 km</title></circle><circle cx="94.25" cy="211.87096774193546" fill="#FFFF00" r="3.3125"><title>2017-02-23: 13 km</title></circle><circle cx="94.25" cy="220.70967741935482" fill="#518698" r="3.3125"><title>2017-02-24: 3 km</title></circle><circle cx="94.25" cy="229.54838709677418" fill="#FFFF00" r="3.3125"><title>2017-02-25: 15 km</title></circle><circle cx="94.25" cy="238.3870967741935" fill="#536e77" r="3.3125"><title>2017-02-26: 2 km</title></circle><circle cx="94.25" cy="247.22580645161287" fill="#5093aa" r="3.3125"><title>2017-02-27: 5 km</title></circle><circle cx="94.25" cy="256.06451612903226" fill="#5096ad" r="3.3125"><title>2017-02-28: 5 km</title></circle><circle cx="103.08333333333334" cy="17.419354838709676" fill="#4ebfe6" r="3.3125"><title>2017-03-01: 8 km</title></circle><circle cx="103.08333333333334" cy="26.25806451612903" fill="#518799" r="3.3125"><title>2017-03-02: 4 km</title></circle><circle cx="103.08333333333334" cy="35.096774193548384" fill="#5096ad" r="3.3125"><title>2017-03-03: 5 km</title></circle><circle cx="103.08333333333334" cy="43.935483870967744" fill="#FFFF00" r="3.3125"><title>2017-03-04: 10 km</title></circle><circle cx="103.08333333333334" cy="52.774193548387096" fill="#518799" r="3.3125"><title>2017-03-05: 4 km</title></circle><circle cx="103.08333333333334" cy="61.61290322580645" fill="#518799" r="3.3125"><title>2017-03-06: 4 km</title></circle><circle cx="103.08333333333334" cy="70.45161290322581" fill="#518799" r="3.3125"><title>2017-03-07: 4 km</title></circle><circle cx="103.08333333333334" cy="79.29032258064517" fill="#4dc7f0" r="3.3125"><title>2017-03-08: 9 km</title></circle><circle cx="103.08333333333334" cy="88.12903225806451" fill="#4eb9dd" r="3.3125"><title>2017-03-09: 8 km</title></circle><circle cx="103.08333333333334" cy="96.96774193548387" fill="#518799" r="3.3125"><title>2017-03-10: 4 km</title></circle><circle cx="103.08333333333334" cy="105.80645161290322" fill="#4fb0d1" r="3.3125"><title>2017-03-11: 7 km</title></circle><circle cx="103.08333333333334" cy="114.64516129032258" fill="#4dc7f0" r="3.3125"><title>2017-03-12: 9 km</title></circle><circle cx="103.08333333333334" cy="123.48387096774194" fill="#527a88" r="3.3125"><title>2017-03-13: 3 km</title></circle><circle cx="103.08333333333334" cy="132.32258064516128" fill="#5095ad" r="3.3125"><title>2017-03-14: 5 km</title></circle><circle cx="103.08333333333334" cy="141.16129032258064" fill="#4dc2e9" r="3.3125"><title>2017-03-15: 8 km</title></circle><circle cx="103.08333333333334" cy="149.99999999999997" fill="#4faccc" r="3.3125"><title>2017-03-16: 7 km</title></circle><circle cx="103.08333333333334" cy="158.83870967741933" fill="#50a0bb" r="3.3125"><title>2017-03-17: 6 km</title></circle><circle cx="103.08333333333334" cy="167.6774193548387" fill="#4fa9c7" r="3.3125"><title>2017-03-18: 6 km</title></circle><circle cx="103.08333333333334" cy="176.51612903225805" fill="#FFFF00" r="3.3125"><title>2017-03-19: 17 km</title></circle><circle cx="103.08333333333334" cy="185.35483870967738" fill="#4faac8" r="3.3125"><title>2017-03-20: 6 km</title></circle><circle cx="103.08333333333334" cy="194.19354838709674" fill="#555555" r="3.3125"><title>2017-03-21</title></circle><circle cx="103.08333333333334" cy="203.0322580645161" fill="#527d8b" r="3.3125"><title>2017-03-22: 3 km</title></circle><circle cx="103.08333333333334" cy="211.87096774193546" fill="#536f78" r="3.3125"><title>2017-03-23: 2 km</title></circle><circle cx="103.08333333333334" cy="220.70967741935482" fill="#5099b2" r="3.3125"><title>2017-03-24: 5 km</title></circle><circle cx="103.08333333333334" cy="229.54838709677418" fill="#536971" r="3.3125"><title>2017-03-25: 1 km</title></circle><circle cx="103.08333333333334" cy="238.3870967741935" fill="#FFFF00" r="3.3125"><title>2017-03-26: 13 km</title></circle><circle cx="103.08333333333334" cy="247.22580645161287" fill="#4dc5ee" r="3.3125"><title>2017-03-27: 9 km</title></circle><circle cx="103.08333333333334" cy="256.06451612903226" fill="#FFFF00" r="3.3125"><title>2017-03-28: 10 km</title></circle><circle cx="103.08333333333334" cy="264.90322580645164" fill="#FFFF00" r="3.3125"><title>2017-03-29: 10 km</title></circle><circle cx="103.08333333333334" cy="273.741935483871" fill="#FFFF00" r="3.3125"><title>2017-03-30: 10 km</title></circle><circle cx="103.08333333333334" cy="282.5806451612903" fill="#518a9d" r="3.3125"><title>2017-03-31: 4 km</title></circle><circle cx="111.91666666666667" cy="17.419354838709676" fill="#4fa3bf" r="3.3125"><title>2017-04-01: 6 km</title></circle><circle cx="111.91666666666667" cy="26.25806451612903" fill="#FFFF00" r="3.3125"><title>2017-04-02: 20 km</title></circle><circle cx="111.91666666666667" cy="35.096774193548384" fill="#FFFF00" r="3.3125"><title>2017-04-03: 10 km</title></circle><circle cx="111.91666666666667" cy="43.935483870967744" fill="#FFFF00" r="3.3125"><title>2017-04-04: 10 km</title></circle><circle cx="111.91666666666667" cy="52.774193548387096" fill="#5097af" r="3.3125"><title>2017-04-05: 5 km</title></circle><circle cx="111.91666666666667" cy="61.61290322580645" fill="#5093aa" r="3.3125"><title>2017-04-06: 5 km</title></circle><circle cx="111.91666666666667" cy="70.45161290322581" fill="#536e77" r="3.3125"><title>2017-04-07: 2 km</title></circle><circle cx="111.91666666666667" cy="79.29032258064517" fill="#4dc7f1" r="3.3125"><title>2017-04-08: 9 km</title></circle><circle cx="111.91666666666667" cy="88.12903225806451" fill="#527a88" r="3.3125"><title>2017-04-09: 3 km</title></circle><circle cx="111.91666666666667" cy="96.96774193548387" fill="#518495" r="3.3125"><title>2017-04-10: 3 km</title></circle><circle cx="111.91666666666667" cy="105.80645161290322" fill="#555555" r="3.3125"><title>2017-04-11</title></circle><circle cx="111.91666666666667" cy="114.64516129032258" fill="#5096ad" r="3.3125"><title>2017-04-12: 5 km</title></circle><circle cx="111.91666666666667" cy="123.48387096774194" fill="#FFFF00" r="3.3125"><title>2017-04-13: 11 km</title></circle><circle cx="111.91666666666667" cy="132.32258064516128" fill="#52747f" r="3.3125"><title>2017-04-14: 2 km</title></circle><circle cx="111.91666666666667" cy="141.16129032258064" fill="#4ebbe0" r="3.3125"><title>2017-04-15: 8 km</title></circle><circle cx="111.91666666666667" cy="149.99999999999997" fill="#5093aa" r="3.3125"><title>2017-04-16: 5 km</title></circle><circle cx="111.91666666666667" cy="158.83870967741933" fill="#509db7" r="3.3125"><title>2017-04-17: 5 km</title></circle><circle cx="111.91666666666667" cy="167.6774193548387" fill="#4eb8dc" r="3.3125"><title>2017-04-18: 7 km</title></circle><circle cx="111.91666666666667" cy="176.51612903225805" fill="#555555" r="3.3125"><title>2017-04-19</title></circle><circle cx="111.91666666666667" cy="185.35483870967738" fill="#518da1" r="3.3125"><title>2017-04-20: 4 km</title></circle><circle cx="111.91666666666667" cy="194.19354838709674" fill="#527a88" r="3.3125"><title>2017-04-21: 3 km</title></circle><circle cx="111.91666666666667" cy="203.0322580645161" fill="#5093aa" r="3.3125"><title>2017-04-22: 5 km</title></circle><circle cx="111.91666666666667" cy="211.87096774193546" fill="#FFFF00" r="3.3125"><title>2017-04-23: 28 km</title></circle><circle cx="111.91666666666667" cy="220.70967741935482" fill="#555555" r="3.3125"><title>2017-04-24</title></circle><circle cx="111.91666666666667" cy="229.54838709677418" fill="#4eb9dd" r="3.3125"><title>2017-04-25: 8 km</title></circle><circle cx="111.91666666666667" cy="238.3870967741935" fill="#FFFF00" r="3.3125"><title>2017-04-26: 10 km</title></circle><circle cx="111.91666666666667" cy="247.22580645161287" fill="#555555" r="3.3125"><title>2017-04-27</title></circle><circle cx="111.91666666666667" cy="256.06451612903226" fill="#527a88" r="3.3125"><title>2017-04-28: 3 km</title></circle><circle cx="111.91666666666667" cy="264.90322580645164" fill="#555555" r="3.3125"><title>2017-04-29</title></circle><circle cx="111.91666666666667" cy="273.741935483871" fill="#546166" r="3.3125"><title>2017-04-30: 1 km</title></circle><circle cx="120.75000000000001" cy="17.419354838709676" fill="#FFFF00" r="3.3125"><title>2017-05-01: 10 km</title></circle><circle cx="120.75000000000001" cy="26.25806451612903" fill="#555555" r="3.3125"><title>2017-05-02</title></circle><circle cx="120.75000000000001" cy="35.096774193548384" fill="#5096ae" r="3.3125"><title>2017-05-03: 5 km</title></circle><circle cx="120.75000000000001" cy="43.935483870967744" fill="#4eb4d6" r="3.3125"><title>2017-05-04: 7 km</title></circle><circle cx="120.75000000000001" cy="52.774193548387096" fill="#555555" r="3.3125"><title>2017-05-05</title></circle><circle cx="120.75000000000001" cy="61.61290322580645" fill="#527f8e" r="3.3125"><title>2017-05-06: 3 km</title></circle><circle cx="120.75000000000001" cy="70.45161290322581" fill="#FFFF00" r="3.3125"><title>2017-05-07: 22 km</title></circle><circle cx="120.75000000000001" cy="79.29032258064517" fill="#555555" r="3.3125"><title>2017-05-08</title></circle><circle cx="120.75000000000001" cy="88.12903225806451" fill="#555555" r="3.3125"><title>2017-05-09</title></circle><circle cx="120.75000000000001" cy="96.96774193548387" fill="#555555" r="3.3125"><title>2017-05-10</title></circle><circle cx="120.75000000000001" cy="105.80645161290322" fill="#5093aa" r="3.3125"><title>2017-05-11: 5 km</title></circle><circle cx="120.75000000000001" cy="114.64516129032258" fill="#53707a" r="3.3125"><title>2017-05-12: 2 km</title></circle><circle cx="120.75000000000001" cy="123.48387096774194" fill="#FFFF00" r="3.3125"><title>2017-05-13: 42 km</title></circle><circle cx="120.75000000000001" cy="132.32258064516128" fill="#555555" r="3.3125"><title>2017-05-14</title></circle><circle cx="120.75000000000001" cy="141.16129032258064" fill="#4fafcf" r="3.3125"><title>2017-05-15: 7 km</title></circle><circle cx="120.75000000000001" cy="149.99999999999997" fill="#4faccc" r="3.3125"><title>2017-05-16: 7 km</title></circle><circle cx="120.75000000000001" cy="158.83870967741933" fill="#527682" r="3.3125"><title>2017-05-17: 2 km</title></circle><circle cx="120.75000000000001" cy="167.6774193548387" fill="#53717c" r="3.3125"><title>2017-05-18: 2 km</title></circle><circle cx="120.75000000000001" cy="176.51612903225805" fill="#555555" r="3.3125"><title>2017-05-19</title></circle><circle cx="120.75000000000001" cy="185.35483870967738" fill="#53686f" r="3.3125"><title>2017-05-20: 1 km</title></circle><circle cx="120.75000000000001" cy="194.19354838709674" fill="#527a88" r="3.3125"><title>2017-05-21: 3 km</title></circle><circle cx="120.75000000000001" cy="203.0322580645161" fill="#555555" r="3.3125"><title>2017-05-22</title></circle><circle cx="120.75000000000001" cy="211.87096774193546" fill="#5094aa" r="3.3125"><title>2017-05-23: 5 km</title></circle><circle cx="120.75000000000001" cy="220.70967741935482" fill="#555555" r="3.3125"><title>2017-05-24</title></circle><circle cx="120.75000000000001" cy="229.54838709677418" fill="#527683" r="3.3125"><title>2017-05-25: 2 km</title></circle><circle cx="120.75000000000001" cy="238.3870967741935" fill="#527a88" r="3.3125"><title>2017-05-26: 3 km</title></circle><circle cx="120.75000000000001" cy="247.22580645161287" fill="#555555" r="3.3125"><title>2017-05-27</title></circle><circle cx="120.75000000000001" cy="256.06451612903226" fill="#50a0bb" r="3.3125"><title>2017-05-28: 6 km</title></circle><circle cx="120.75000000000001" cy="264.90322580645164" fill="#555555" r="3.3125"><title>2017-05-29</title></circle><circle cx="120.75000000000001" cy="273.741935483871" fill="#555555" r="3.3125"><title>2017-05-30</title></circle><circle cx="120.75000000000001" cy="282.5806451612903" fill="#53707a" r="3.3125"><title>2017-05-31: 2 km</title></circle><circle cx="129.58333333333334" cy="17.419354838709676" fill="#536f79" r="3.3125"><title>2017-06-01: 2 km</title></circle><circle cx="129.58333333333334" cy="26.25806451612903" fill="#555555" r="3.3125"><title>2017-06-02</title></circle><circle cx="129.58333333333334" cy="35.096774193548384" fill="#555555" r="3.3125"><title>2017-06-03</title></circle><circle cx="129.58333333333334" cy="43.935483870967744" fill="#555555" r="3.3125"><title>2017-06-04</title></circle><circle cx="129.58333333333334" cy="52.774193548387096" fill="#555555" r="3.3125"><title>2017-06-05</title></circle><circle cx="129.58333333333334" cy="61.61290322580645" fill="#555555" r="3.3125"><title>2017-06-06</title></circle><circle cx="129.58333333333334" cy="70.45161290322581" fill="#527a88" r="3.3125"><title>2017-06-07: 3 km</title></circle><circle cx="129.58333333333334" cy="79.29032258064517" fill="#555555" r="3.3125"><title>2017-06-08</title></circle><circle cx="129.58333333333334" cy="88.12903225806451" fill="#536f78" r="3.3125"><title>2017-06-09: 2 km</title></circle><circle cx="129.58333333333334" cy="96.96774193548387" fill="#555555" r="3.3125"><title>2017-06-10</title></circle><circle cx="129.58333333333334" cy="105.80645161290322" fill="#509bb5" r="3.3125"><title>2017-06-11: 5 km</title></circle><circle cx="129.58333333333334" cy="114.64516129032258" fill="#555555" r="3.3125"><title>2017-06-12</title></circle><circle cx="129.58333333333334" cy="123.48387096774194" fill="#555555" r="3.3125"><title>2017-06-13</title></circle><circle cx="129.58333333333334" cy="132.32258064516128" fill="#536e77" r="3.3125"><title>2017-06-14: 2 km</title></circle><circle cx="129.58333333333334" cy="141.16129032258064" fill="#555555" r="3.3125"><title>2017-06-15</title></circle><circle cx="129.58333333333334" cy="149.99999999999997" fill="#555555" r="3.3125"><title>2017-06-16</title></circle><circle cx="129.58333333333334" cy="158.83870967741933" fill="#536e77" r="3.3125"><title>2017-06-17: 2 km</title></circle><circle cx="129.58333333333334" cy="167.6774193548387" fill="#555555" r="3.3125"><title>2017-06-18</title></circle><circle cx="129.58333333333334" cy="176.51612903225805" fill="#527a88" r="3.3125"><title>2017-06-19: 3 km</title></circle><circle cx="129.58333333333334" cy="185.35483870967738" fill="#555555" r="3.3125"><title>2017-06-20</title></circle><circle cx="129.58333333333334" cy="194.19354838709674" fill="#555555" r="3.3125"><title>2017-06-21</title></circle><circle cx="129.58333333333334" cy="203.0322580645161" fill="#536e77" r="3.3125"><title>2017-06-22: 2 km</title></circle><circle cx="129.58333333333334" cy="211.87096774193546" fill="#555555" r="3.3125"><title>2017-06-23</title></circle><circle cx="129.58333333333334" cy="220.70967741935482" fill="#555555" r="3.3125"><title>2017-06-24</title></circle><circle cx="129.58333333333334" cy="229.54838709677418" fill="#555555" r="3.3125"><title>2017-06-25</title></circle><circle cx="129.58333333333334" cy="238.3870967741935" fill="#555555" r="3.3125"><title>2017-06-26</title></circle><circle cx="129.58333333333334" cy="247.22580645161287" fill="#527a87" r="3.3125"><title>2017-06-27: 2 km</title></circle><circle cx="129.58333333333334" cy="256.06451612903226" fill="#555555" r="3.3125"><title>2017-06-28</title></circle><circle cx="129.58333333333334" cy="264.90322580645164" fill="#555555" r="3.3125"><title>2017-06-29</title></circle><circle cx="129.58333333333334" cy="273.741935483871" fill="#555555" r="3.3125"><title>2017-06-30</title></circle><circle cx="138.41666666666666" cy="17.419354838709676" fill="#555555" r="3.3125"><title>2017-07-01</title></circle><circle cx="138.41666666666666" cy="26.25806451612903" fill="#555555" r="3.3125"><title>2017-07-02</title></circle><circle cx="138.41666666666666" cy="35.096774193548384" fill="#555555" r="3.3125"><title>2017-07-03</title></circle><circle cx="138.41666666666666" cy="43.935483870967744" fill="#546166" r="3.3125"><title>2017-07-04: 1 km</title></circle><circle cx="138.41666666666666" cy="52.774193548387096" fill="#555555" r="3.3125"><title>2017-07-05</title></circle><circle cx="138.41666666666666" cy="61.61290322580645" fill="#555555" r="3.3125"><title>2017-07-06</title></circle><circle cx="138.41666666666666" cy="70.45161290322581" fill="#555555" r="3.3125"><title>2017-07-07</title></circle><circle cx="138.41666666666666" cy="79.29032258064517" fill="#555555" r="3.3125"><title>2017-07-08</title></circle><circle cx="138.41666666666666" cy="88.12903225806451" fill="#555555" r="3.3125"><title>2017-07-09</title></circle><circle cx="138.41666666666666" cy="96.96774193548387" fill="#555555" r="3.3125"><title>2017-07-10</title></circle><circle cx="138.41666666666666" cy="105.80645161290322" fill="#555555" r="3.3125"><title>2017-07-11</title></circle><circle cx="138.41666666666666" cy="114.64516129032258" fill="#555555" r="3.3125"><title>2017-07-12</title></circle><circle cx="138.41666666666666" cy="123.48387096774194" fill="#555555" r="3.3125"><title>2017-07-13</title></circle><circle cx="138.41666666666666" cy="132.32258064516128" fill="#555555" r="3.3125"><title>2017-07-14</title></circle><circle cx="138.41666666666666" cy="141.16129032258064" fill="#555555" r="3.3125"><title>2017-07-15</title></circle><circle cx="138.41666666666666" cy="149.99999999999997" fill="#555555" r="3.3125"><title>2017-07-16</title></circle><circle cx="138.41666666666666" cy="158.83870967741933" fill="#555555" r="3.3125"><title>2017-07-17</title></circle><circle cx="138.41666666666666" cy="167.6774193548387" fill="#555555" r="3.3125"><title>2017-07-18</title></circle><circle cx="138.41666666666666" cy="176.51612903225805" fill="#555555" r="3.3125"><title>2017-07-19</title></circle><circle cx="138.41666666666666" cy="185.35483870967738" fill="#555555" r="3.3125"><title>2017-07-20</title></circle><circle cx="138.41666666666666" cy="194.19354838709674" fill="#555555" r="3.3125"><title>2017-07-21</title></circle><circle cx="138.41666666666666" cy="203.0322580645161" fill="#555555" r="3.3125"><title>2017-07-22</title></circle><circle cx="138.41666666666666" cy="211.87096774193546" fill="#555555" r="3.3125"><title>2017-07-23</title></circle><circle cx="138.41666666666666" cy="220.70967741935482" fill="#555555" r="3.3125"><title>2017-07-24</title></circle><circle cx="138.41666666666666" cy="229.54838709677418" fill="#555555" r="3.3125"><title>2017-07-25</title></circle><circle cx="138.41666666666666" cy="238.3870967741935" fill="#546166" r="3.3125"><title>2017-07-26: 1 km</title></circle><circle cx="138.41666666666666" cy="247.22580645161287" fill="#555555" r="3.3125"><title>2017-07-27</title></circle><circle cx="138.41666666666666" cy="256.06451612903226" fill="#536e77" r="3.3125"><title>2017-07-28: 2 km</title></circle><circle cx="138.41666666666666" cy="264.90322580645164" fill="#555555" r="3.3125"><title>2017-07-29</title></circle><circle cx="138.41666666666666" cy="273.741935483871" fill="#555555" r="3.3125"><title>2017-07-30</title></circle><circle cx="138.41666666666666" cy="282.5806451612903" fill="#555555" r="3.3125"><title>2017-07-31</title></circle><circle cx="147.25" cy="17.419354838709676" fill="#555555" r="3.3125"><title>2017-08-01</title></circle><circle cx="147.25" cy="26.25806451612903" fill="#555555" r="3.3125"><title>2017-08-02</title></circle><circle cx="147.25" cy="35.096774193548384" fill="#555555" r="3.3125"><title>2017-08-03</title></circle><circle cx="147.25" cy="43.935483870967744" fill="#555555" r="3.3125"><title>2017-08-04</title></circle><circle cx="147.25" cy="52.774193548387096" fill="#555555" r="3.3125"><title>2017-08-05</title></circle><circle cx="147.25" cy="61.61290322580645" fill="#555555" r="3.3125"><title>2017-08-06</title></circle><circle cx="147.25" cy="70.45161290322581" fill="#555555" r="3.3125"><title>2017-08-07</title></circle><circle cx="147.25" cy="79.29032258064517" fill="#555555" r="3.3125"><title>2017-08-08</title></circle><circle cx="147.25" cy="88.12903225806451" fill="#555555" r="3.3125"><title>2017-08-09</title></circle><circle cx="147.25" cy="96.96774193548387" fill="#555555" r="3.3125"><title>2017-08-10</title></circle><circle cx="147.25" cy="105.80645161290322" fill="#555555" r="3.3125"><title>2017-08-11</title></circle><circle cx="147.25" cy="114.64516129032258" fill="#555555" r="3.3125"><title>2017-08-12</title></circle><circle cx="147.25" cy="123.48387096774194" fill="#555555" r="3.3125"><title>2017-08-13</title></circle><circle cx="147.25" cy="132.32258064516128" fill="#555555" r="3.3125"><title>2017-08-14</title></circle><circle cx="147.25" cy="141.16129032258064" fill="#555555" r="3.3125"><title>2017-08-15</title></circle><circle cx="147.25" cy="149.99999999999997" fill="#555555" r="3.3125"><title>2017-08-16</title></circle><circle cx="147.25" cy="158.83870967741933" fill="#555555" r="3.3125"><title>2017-08-17</title></circle><circle cx="147.25" cy="167.6774193548387" fill="#555555" r="3.3125"><title>2017-08-18</title></circle><circle cx="147.25" cy="176.51612903225805" fill="#555555" r="3.3125"><title>2017-08-19</title></circle><circle cx="147.25" cy="185.35483870967738" fill="#536e77" r="3.3125"><title>2017-08-20: 2 km</title></circle><circle cx="147.25" cy="194.19354838709674" fill="#527a87" r="3.3125"><title>2017-08-21: 2 km</title></circle><circle cx="147.25" cy="203.0322580645161" fill="#555555" r="3.3125"><title>2017-08-22</title></circle><circle cx="147.25" cy="211.87096774193546" fill="#555555" r="3.3125"><title>2017-08-23</title></circle><circle cx="147.25" cy="220.70967741935482" fill="#555555" r="3.3125"><title>2017-08-24</title></circle><circle cx="147.25" cy="229.54838709677418" fill="#555555" r="3.3125"><title>2017-08-25</title></circle><circle cx="147.25" cy="238.3870967741935" fill="#555555" r="3.3125"><title>2017-08-26</title></circle><circle cx="147.25" cy="247.22580645161287" fill="#555555" r="3.3125"><title>2017-08-27</title></circle><circle cx="147.25" cy="256.06451612903226" fill="#555555" r="3.3125"><title>2017-08-28</title></circle><circle cx="147.25" cy="264.90322580645164" fill="#555555" r="3.3125"><title>2017-08-29</title></circle><circle cx="147.25" cy="273.741935483871" fill="#555555" r="3.3125"><title>2017-08-30</title></circle><circle cx="147.25" cy="282.5806451612903" fill="#555555" r="3.3125"><title>2017-08-31</title></circle><circle cx="156.08333333333334" cy="17.419354838709676" fill="#555555" r="3.3125"><title>2017-09-01</title></circle><circle cx="156.08333333333334" cy="26.25806451612903" fill="#555555" r="3.3125"><title>2017-09-02</title></circle><circle cx="156.08333333333334" cy="35.096774193548384" fill="#555555" r="3.3125"><title>2017-09-03</title></circle><circle cx="156.08333333333334" cy="43.935483870967744" fill="#555555" r="3.3125"><title>2017-09-04</title></circle><circle cx="156.08333333333334" cy="52.774193548387096" fill="#555555" r="3.3125"><title>2017-09-05</title></circle><circle cx="156.08333333333334" cy="61.61290322580645" fill="#555555" r="3.3125"><title>2017-09-06</title></circle><circle cx="156.08333333333334" cy="70.45161290322581" fill="#555555" r="3.3125"><title>2017-09-07</title></circle><circle cx="156.08333333333334" cy="79.29032258064517" fill="#555555" r="3.3125"><title>2017-09-08</title></circle><circle cx="156.08333333333334" cy="88.12903225806451" fill="#555555" r="3.3125"><title>2017-09-09</title></circle><circle cx="156.08333333333334" cy="96.96774193548387" fill="#555555" r="3.3125"><title>2017-09-10</title></circle><circle cx="156.08333333333334" cy="105.80645161290322" fill="#555555" r="3.3125"><title>2017-09-11</title></circle><circle cx="156.08333333333334" cy="114.64516129032258" fill="#555555" r="3.3125"><title>2017-09-12</title></circle><circle cx="156.08333333333334" cy="123.48387096774194" fill="#555555" r="3.3125"><title>2017-09-13</title></circle><circle cx="156.08333333333334" cy="132.32258064516128" fill="#555555" r="3.3125"><title>2017-09-14</title></circle><circle cx="156.08333333333334" cy="141.16129032258064" fill="#555555" r="3.3125"><title>2017-09-15</title></circle><circle cx="156.08333333333334" cy="149.99999999999997" fill="#555555" r="3.3125"><title>2017-09-16</title></circle><circle cx="156.08333333333334" cy="158.83870967741933" fill="#555555" r="3.3125"><title>2017-09-17</title></circle><circle cx="156.08333333333334" cy="167.6774193548387" fill="#555555" r="3.3125"><title>2017-09-18</title></circle><circle cx="156.08333333333334" cy="176.51612903225805" fill="#555555" r="3.3125"><title>2017-09-19</title></circle><circle cx="156.08333333333334" cy="185.35483870967738" fill="#555555" r="3.3125"><title>2017-09-20</title></circle><circle cx="156.08333333333334" cy="194.19354838709674" fill="#555555" r="3.3125"><title>2017-09-21</title></circle><circle cx="156.08333333333334" cy="203.0322580645161" fill="#555555" r="3.3125"><title>2017-09-22</title></circle><circle cx="156.08333333333334" cy="211.87096774193546" fill="#555555" r="3.3125"><title>2017-09-23</title></circle><circle cx="156.08333333333334" cy="220.70967741935482" fill="#555555" r="3.3125"><title>2017-09-24</title></circle><circle cx="156.08333333333334" cy="229.54838709677418" fill="#555555" r="3.3125"><title>2017-09-25</title></circle><circle cx="156.08333333333334" cy="238.3870967741935" fill="#555555" r="3.3125"><title>2017-09-26</title></circle><circle cx="156.08333333333334" cy="247.22580645161287" fill="#555555" r="3.3125"><title>2017-09-27</title></circle><circle cx="156.08333333333334" cy="256.06451612903226" fill="#555555" r="3.3125"><title>2017-09-28</title></circle><circle cx="156.08333333333334" cy="264.90322580645164" fill="#555555" r="3.3125"><title>2017-09-29</title></circle><circle cx="156.08333333333334" cy="273.741935483871" fill="#555555" r="3.3125"><title>2017-09-30</title></circle><circle cx="164.91666666666666" cy="17.419354838709676" fill="#555555" r="3.3125"><title>2017-10-01</title></circle><circle cx="164.91666666666666" cy="26.25806451612903" fill="#555555" r="3.3125"><title>2017-10-02</title></circle><circle cx="164.91666666666666" cy="35.096774193548384" fill="#555555" r="3.3125"><title>2017-10-03</title></circle><circle cx="164.91666666666666" cy="43.935483870967744" fill="#555555" r="3.3125"><title>2017-10-04</title></circle><circle cx="164.91666666666666" cy="52.774193548387096" fill="#555555" r="3.3125"><title>2017-10-05</title></circle><circle cx="164.91666666666666" cy="61.61290322580645" fill="#555555" r="3.3125"><title>2017-10-06</title></circle><circle cx="164.91666666666666" cy="70.45161290322581" fill="#555555" r="3.3125"><title>2017-10-07</title></circle><circle cx="164.91666666666666" cy="79.29032258064517" fill="#555555" r="3.3125"><title>2017-10-08</title></circle><circle cx="164.91666666666666" cy="88.12903225806451" fill="#555555" r="3.3125"><title>2017-10-09</title></circle><circle cx="164.91666666666666" cy="96.96774193548387" fill="#555555" r="3.3125"><title>2017-10-10</title></circle><circle cx="164.91666666666666" cy="105.80645161290322" fill="#555555" r="3.3125"><title>2017-10-11</title></circle><circle cx="164.91666666666666" cy="114.64516129032258" fill="#555555" r="3.3125"><title>2017-10-12</title></circle><circle cx="164.91666666666666" cy="123.48387096774194" fill="#546166" r="3.3125"><title>2017-10-13: 1 km</title></circle><circle cx="164.91666666666666" cy="132.32258064516128" fill="#555555" r="3.3125"><title>2017-10-14</title></circle><circle cx="164.91666666666666" cy="141.16129032258064" fill="#53666d" r="3.3125"><title>2017-10-15: 1 km</title></circle><circle cx="164.91666666666666" cy="149.99999999999997" fill="#536e77" r="3.3125"><title>2017-10-16: 2 km</title></circle><circle cx="164.91666666666666" cy="158.83870967741933" fill="#555555" r="3.3125"><title>2017-10-17</title></circle><circle cx="164.91666666666666" cy="167.6774193548387" fill="#546267" r="3.3125"><title>2017-10-18: 1 km</title></circle><circle cx="164.91666666666666" cy="176.51612903225805" fill="#555555" r="3.3125"><title>2017-10-19</title></circle><circle cx="164.91666666666666" cy="185.35483870967738" fill="#555555" r="3.3125"><title>2017-10-20</title></circle><circle cx="164.91666666666666" cy="194.19354838709674" fill="#555555" r="3.3125"><title>2017-10-21</title></circle><circle cx="164.91666666666666" cy="203.0322580645161" fill="#555555" r="3.3125"><title>2017-10-22</title></circle><circle cx="164.91666666666666" cy="211.87096774193546" fill="#555555" r="3.3125"><title>2017-10-23</title></circle><circle cx="164.91666666666666" cy="220.70967741935482" fill="#555555" r="3.3125"><title>2017-10-24</title></circle><circle cx="164.91666666666666" cy="229.54838709677418" fill="#555555" r="3.3125"><title>2017-10-25</title></circle><circle cx="164.91666666666666" cy="238.3870967741935" fill="#555555" r="3.3125"><title>2017-10-26</title></circle><circle cx="164.91666666666666" cy="247.22580645161287" fill="#555555" r="3.3125"><title>2017-10-27</title></circle><circle cx="164.91666666666666" cy="256.06451612903226" fill="#555555" r="3.3125"><title>2017-10-28</title></circle><circle cx="164.91666666666666" cy="264.90322580645164" fill="#555555" r="3.3125"><title>2017-10-29</title></circle><circle cx="164.91666666666666" cy="273.741935483871" fill="#555555" r="3.3125"><title>2017-10-30</title></circle><circle cx="164.91666666666666" cy="282.5806451612903" fill="#555555" r="3.3125"><title>2017-10-31</title></circle><circle cx="173.75" cy="17.419354838709676" fill="#555555" r="3.3125"><title>2017-11-01</title></circle><circle cx="173.75" cy="26.25806451612903" fill="#555555" r="3.3125"><title>2017-11-02</title></circle><circle cx="173.75" cy="35.096774193548384" fill="#555555" r="3.3125"><title>2017-11-03</title></circle><circle cx="173.75" cy="43.935483870967744" fill="#546469" r="3.3125"><title>2017-11-04: 1 km</title></circle><circle cx="173.75" cy="52.774193548387096" fill="#555555" r="3.3125"><title>2017-11-05</title></circle><circle cx="173.75" cy="61.61290322580645" fill="#555555" r="3.3125"><title>2017-11-06</title></circle><circle cx="173.75" cy="70.45161290322581" fill="#555555" r="3.3125"><title>2017-11-07</title></circle><circle cx="173.75" cy="79.29032258064517" fill="#555555" r="3.3125"><title>2017-11-08</title></circle><circle cx="173.75" cy="88.12903225806451" fill="#555555" r="3.3125"><title>2017-11-09</title></circle><circle cx="173.75" cy="96.96774193548387" fill="#555555" r="3.3125"><title>2017-11-10</title></circle><circle cx="173.75" cy="105.80645161290322" fill="#555555" r="3.3125"><title>2017-11-11</title></circle><circle cx="173.75" cy="114.64516129032258" fill="#555555" r="3.3125"><title>2017-11-12</title></circle><circle cx="173.75" cy="123.48387096774194" fill="#555555" r="3.3125"><title>2017-11-13</title></circle><circle cx="173.75" cy="132.32258064516128" fill="#555555" r="3.3125"><title>2017-11-14</title></circle><circle cx="173.75" cy="141.16129032258064" fill="#555555" r="3.3125"><title>2017-11-15</title></circle><circle cx="173.75" cy="149.99999999999997" fill="#555555" r="3.3125"><title>2017-11-16</title></circle><circle cx="173.75" cy="158.83870967741933" fill="#555555" r="3.3125"><title>2017-11-17</title></circle><circle cx="173.75" cy="167.6774193548387" fill="#555555" r="3.3125"><title>2017-11-18</title></circle><circle cx="173.75" cy="176.51612903225805" fill="#555555" r="3.3125"><title>2017-11-19</title></circle><circle cx="173.75" cy="185.35483870967738" fill="#555555" r="3.3125"><title>2017-11-20</title></circle><circle cx="173.75" cy="194.19354838709674" fill="#555555" r="3.3125"><title>2017-11-21</title></circle><circle cx="173.75" cy="203.0322580645161" fill="#555555" r="3.3125"><title>2017-11-22</title></circle><circle cx="173.75" cy="211.87096774193546" fill="#555555" r="3.3125"><title>2017-11-23</title></circle><circle cx="173.75" cy="220.70967741935482" fill="#555555" r="3.3125"><title>2017-11-24</title></circle><circle cx="173.75" cy="229.54838709677418" fill="#555555" r="3.3125"><title>2017-11-25</title></circle><circle cx="173.75" cy="238.3870967741935" fill="#555555" r="3.3125"><title>2017-11-26</title></circle><circle cx="173.75" cy="247.22580645161287" fill="#555555" r="3.3125"><title>2017-11-27</title></circle><circle cx="173.75" cy="256.06451612903226" fill="#555555" r="3.3125"><title>2017-11-28</title></circle><circle cx="173.75" cy="264.90322580645164" fill="#555555" r="3.3125"><title>2017-11-29</title></circle><circle cx="173.75" cy="273.741935483871" fill="#555555" r="3.3125"><title>2017-11-30</title></circle><circle cx="182.58333333333334" cy="17.419354838709676" fill="#555555" r="3.3125"><title>2017-12-01</title></circle><circle cx="182.58333333333334" cy="26.25806451612903" fill="#555555" r="3.3125"><title>2017-12-02</title></circle><circle cx="182.58333333333334" cy="35.096774193548384" fill="#555555" r="3.3125"><title>2017-12-03</title></circle><circle cx="182.58333333333334" cy="43.935483870967744" fill="#555555" r="3.3125"><title>2017-12-04</title></circle><circle cx="182.58333333333334" cy="52.774193548387096" fill="#555555" r="3.3125"><title>2017-12-05</title></circle><circle cx="182.58333333333334" cy="61.61290322580645" fill="#555555" r="3.3125"><title>2017-12-06</title></circle><circle cx="182.58333333333334" cy="70.45161290322581" fill="#555555" r="3.3125"><title>2017-12-07</title></circle><circle cx="182.58333333333334" cy="79.29032258064517" fill="#555555" r="3.3125"><title>2017-12-08</title></circle><circle cx="182.58333333333334" cy="88.12903225806451" fill="#555555" r="3.3125"><title>2017-12-09</title></circle><circle cx="182.58333333333334" cy="96.96774193548387" fill="#555555" r="3.3125"><title>2017-12-10</title></circle><circle cx="182.58333333333334" cy="105.80645161290322" fill="#555555" r="3.3125"><title>2017-12-11</title></circle><circle cx="182.58333333333334" cy="114.64516129032258" fill="#555555" r="3.3125"><title>2017-12-12</title></circle><circle cx="182.58333333333334" cy="123.48387096774194" fill="#555555" r="3.3125"><title>2017-12-13</title></circle><circle cx="182.58333333333334" cy="132.32258064516128" fill="#555555" r="3.3125"><title>2017-12-14</title></circle><circle cx="182.58333333333334" cy="141.16129032258064" fill="#555555" r="3.3125"><title>2017-12-15</title></circle><circle cx="182.58333333333334" cy="149.99999999999997" fill="#555555" r="3.3125"><title>2017-12-16</title></circle><circle cx="182.58333333333334" cy="158.83870967741933" fill="#555555" r="3.3125"><title>2017-12-17</title></circle><circle cx="182.58333333333334" cy="167.6774193548387" fill="#555555" r="3.3125"><title>2017-12-18</title></circle><circle cx="182.58333333333334" cy="176.51612903225805" fill="#555555" r="3.3125"><title>2017-12-19</title></circle><circle cx="182.58333333333334" cy="185.35483870967738" fill="#555555" r="3.3125"><title>2017-12-20</title></circle><circle cx="182.58333333333334" cy="194.19354838709674" fill="#555555" r="3.3125"><title>2017-12-21</title></circle><circle cx="182.58333333333334" cy="203.0322580645161" fill="#546166" r="3.3125"><title>2017-12-22: 1 km</title></circle><circle cx="182.58333333333334" cy="211.87096774193546" fill="#555555" r="3.3125"><title>2017-12-23</title></circle><circle cx="182.58333333333334" cy="220.70967741935482" fill="#555555" r="3.3125"><title>2017-12-24</title></circle><circle cx="182.58333333333334" cy="229.54838709677418" fill="#53676e" r="3.3125"><title>2017-12-25: 1 km</title></circle><circle cx="182.58333333333334" cy="238.3870967741935" fill="#546266" r="3.3125"><title>2017-12-26: 1 km</title></circle><circle cx="182.58333333333334" cy="247.22580645161287" fill="#536e77" r="3.3125"><title>2017-12-27: 2 km</title></circle><circle cx="182.58333333333334" cy="256.06451612903226" fill="#527a88" r="3.3125"><title>2017-12-28: 3 km</title></circle><circle cx="182.58333333333334" cy="264.90322580645164" fill="#546266" r="3.3125"><title>2017-12-29: 1 km</title></circle><circle cx="182.58333333333334" cy="273.741935483871" fill="#536e77" r="3.3125"><title>2017-12-30: 2 km</title></circle><circle cx="182.58333333333334" cy="282.5806451612903" fill="#555555" r="3.3125"><title>2017-12-31</title></circle></svg>