<?xml version="1.0" encoding="utf-8" ?>
<svg baseProfile="full" height="200mm" version="1.1" viewBox="0,0,200,200" width="200mm" xmlns="http://www.w3.org/2000/svg" xmlns:ev="http://www.w3.org/2001/xml-events" xmlns:xlink="http://www.w3.org/1999/xlink"><defs /><rect fill="#1a1a1a" height="200" width="200" x="0" y="0" /><text alignment-baseline="middle" fill="#e1ed5e" style="dominant-baseline: central; font-size:9.0px; font-family:Arial;" text-anchor="middle" x="100.0" y="100.0">2023</text><line stroke="#e1ed5e" stroke-width="0.3" x1="100.0" x2="100.0" y1="15.0" y2="10.0" /><path d="M 100.0 14.0 a86.0,86.0 0 0,1 42.46469731375804,11.215312516191453" fill="none" id="id73" stroke="none" /><text fill="#e1ed5e" style="font-size:6.75px; font-family:Arial;" text-anchor="middle"><textPath startOffset="22.20632615414155" xlink:href="#id73">January</textPath></text><path d="M 100.0 79.0 l 0.0 -38.62228042473123 a59.62228042473123,59.62228042473123 0 0,0 1.0262995477739492,0.008833684222021243 l -0.6648190685014207 38.61655811711777" fill="#49ff2c" stroke="none" /><path d="M 100.36148047927253 79.00311137660856 l 0.7103711253797089 -41.26248651348552 a62.26860090203383,62.26860090203383 0 0,0 1.0715339918893265,0.027674561677292077 l -1.4205317524639032 41.24414515966587" fill="#30ff32" stroke="none" /><path d="M 100.72285384407766 79.0124445844662 l 0.35645803232859247 -10.34950947290629 a31.35564622119685,31.35564622119685 0 0,0 0.5392561471020026,0.023221504049650114 l -0.5345550118199267 10.341840242332445" fill="#ff4306" stroke="none" /><path d="M 101.08401301168833 79.027996857942 l 0.8880141196959113 -17.180084286487375 a38.20301907130227,38.20301907130227 0 0,0 0.656433291896664,0.03959784880876868 l -1.1836094604321872 17.162253168298303" fill="#ffa80f" stroke="none" /><path d="M 101.44485096284872 79.0497635885617 l 3.633719363956377 -52.68867287018461 a73.81382551223987,73.81382551223987 0 0,0 1.2668203273955982,0.09832963883673042 l -4.540129880714317 52.61831796915941" fill="#3fffc0" stroke="none" /><path d="M 101.80526077348638 79.07773832637324 l 0.6772224278143357 -7.848741330936185 a28.87790395325309,28.87790395325309 0 0,0 0.49487771500367095,0.04699460205454318 l -0.8122252699082508 7.835921184366463" fill="#ff1d02" stroke="none" /><path d="M 102.16513564639614 79.11191278185805 l 6.4954069391883955 -62.66426165442583 a84.0,84.0 0 0,0 1.436933185961099,0.1614561861175967 l -7.57310682865922 62.54316951483763" fill="#4dd2ff" stroke="none" /><path d="M 102.52436894288641 79.15227682838746 l 0.9639580197559632 -7.960932177350292 a29.019080757557134,29.019080757557134 0 0,0 0.49537681161074326,0.06431412755676397 l -1.1008495598745525 7.943159726629391" fill="#ff1f03" stroke="none" /><path d="M 102.88285421437855 79.19881850522331 l 6.469065325162385 -46.67742172292832 a68.12356634298087,68.12356634298087 0 0,0 1.1601476422893502,0.17097560499529812 l -7.2715819478803905 46.55915163377205" fill="#38ff7d" stroke="none" /><path d="M 103.2404852339499 79.25152402106235 l 3.792765813198843 -24.284668710855378 a45.57906033414964,45.57906033414964 0 0,0 0.7741295063250122,0.12773800154119172 l -4.21022452566273 24.215784446374563" fill="#f2ff19" stroke="none" /><path d="M 103.59715602781102 79.31037775812273 l 2.832478496440661 -16.29145626336907 a37.53585442648991,37.53585442648991 0 0,0 0.6356158556014804,0.11615473485686655 l -3.1124894731450423 16.240286047161465" fill="#ff9f0e" stroke="none" /><path d="M 103.95276090670814 79.375362276772 l 3.614858358911225 -18.861536488787102 a40.20481084709864,40.20481084709864 0 0,0 0.6785683554872494,0.1361144284710884 l -3.9389931238656 18.796518104238807" fill="#ffc412" stroke="none" /><path d="M 104.307194497241 79.44645832069477 l 5.312814717578588 -25.352270207933387 a46.90296517619916,46.90296517619916 0 0,0 0.7887677814642114,0.17239408623247687 l -5.748425223196327 25.25706262360504" fill="#e0ff1b" stroke="none" /><path d="M 104.66035177308747 79.52364482259891 l 1.7085518241488562 -7.506925591389653 a28.698901296319058,28.698901296319058 0 0,0 0.4807425564878844,0.11377623095163264 l -1.8375180675992642 7.476403448297151" fill="#ff1a02" stroke="none" /><path d="M 105.01212808612495 79.60689891045804 l 1.9462095111893174 -7.918641866512416 a29.154300734675353,29.154300734675353 0 0,0 0.48630916209335334,0.12397103354277542 l -2.0822275619676955 7.883967836800773" fill="#ff2103" stroke="none" /><path d="M 105.36241919743992 79.69619591428918 l 4.302038207418465 -16.28886845966235 a37.84739648830855,37.84739648830855 0 0,0 0.6284508115647763,0.17177934666759404 l -4.581786908206952 16.21240257216846" fill="#ffa30f" stroke="none" /><path d="M 105.71112130821622 79.79150937346287 l 4.232999240448811 -14.978236471651218 a36.56489159520049,36.56489159520049 0 0,0 0.6042083367341434,0.17638498197620303 l -4.490197794906381 14.903153160756311" fill="#ff910d" stroke="none" /><path d="M 106.0581310904928 79.89281104454417 l 2.2966091364177026 -7.622541205033691 a28.961001692495344,28.961001692495344 0 0,0 0.47608387643804945,0.147921577866864 l -2.4274783855664706 7.5818794922843065" fill="#ff1e03" stroke="none" /><path d="M 106.40334571778207 80.00007090966166 l 2.3877908531300687 -7.457921194625271 a28.83084501848507,28.83084501848507 0 0,0 0.47133925448155006,0.15539314162387988 l -2.515812929854036 7.415714328742155" fill="#ff1c02" stroke="none" /><path d="M 106.74666289553966 80.11325718540242 l 3.059700070173919 -9.018898576595893 a30.523775304696436,30.523775304696436 0 0,0 0.4961101816867584,0.17308310101173782 l -3.214492255923951 8.964894622411947" fill="#ff3605" stroke="none" /><path d="M 107.08798089147638 80.2323363322302 l 2.5077784530985396 -6.993941119923958 a28.429950548879077,28.429950548879077 0 0,0 0.45923531921863925,0.1691402437145113 l -2.6277960980897554 6.949737608403122" fill="#ff1602" stroke="none" /><path d="M 107.4271985657038 80.35727306442388 l 2.830995756280051 -7.487140151761159 a29.004486530951862,29.004486530951862 0 0,0 0.46547620245100874,0.18059753494430092 l -2.959455123730727 7.437299912926312" fill="#ff1f03" stroke="none" /><path d="M 107.76421540070413 80.48803036053334 l 6.1618333359433155 -15.485081076379712 a37.666011100500185,37.666011100500185 0 0,0 0.600353403980965,0.24489922746008383 l -6.4274706095126675 15.37672096273605" fill="#ffa00e" stroke="none" /><path d="M 108.09893153111575 80.62456947434976 l 5.508079038304229 -13.177220022966598 a35.28208886073316,35.28208886073316 0 0,0 0.5583243422622391,0.2390453455982797 l -5.734087138356783 13.080455149405527" fill="#ff7e0b" stroke="none" /><path d="M 108.43124777332544 80.76684994638697 l 3.1915829521759793 -7.280558640674707 a28.949385879482985,28.949385879482985 0 0,0 0.45466786297422784,0.20399621686644234 l -3.316432933616987 7.224542093291734" fill="#ff1e03" stroke="none" /><path d="M 108.76106565485865 80.91482961587045 l 3.288474993936814 -7.163638310189799 a28.88237157364246,28.88237157364246 0 0,0 0.45004482324937767,0.2113020789578307 l -3.4112980284857897 7.105971248591966" fill="#ff1d02" stroke="none" /><path d="M 109.08828744355905 81.06846463323043 l 3.48425456293215 -7.257944788236892 a29.050949783001293,29.050949783001293 0 0,0 0.4489460916771896,0.22029589743452754 l -3.6086719216197714 7.196893730667533" fill="#ff2003" stroke="none" /><path d="M 109.41281617654863 81.2277094730956 l 5.650840335108642 -11.269657720087874 a33.60702905607927,33.60702905607927 0 0,0 0.5148909115282604,0.26374712335627826 l -5.843991734225657 11.170718071419095" fill="#ff6509" stroke="none" /><path d="M 109.73455568895987 81.39251694778311 l 4.916060614264151 -9.39698918845728 a31.6052372802829,31.6052372802829 0 0,0 0.47988030773649,0.2563354410853343 l -5.077085968528952 9.310975020870192" fill="#ff4706" stroke="none" /><path d="M 110.05341064243156 81.56283822128135 l 3.8358684170350177 -7.0346799789774455 a29.012528247652725,29.012528247652725 0 0,0 0.4363980375500294,0.24285503541846115 l -3.9563905436570823 6.967609545998804" fill="#ff1f03" stroke="none" /><path d="M 110.36928655335952 81.73862282372117 l 3.9846273656176128 -7.017337485662466 a29.069713788636644,29.069713788636644 0 0,0 0.43300483139920204,0.2508243468743863 l -4.104828929482143 6.94770898139803" fill="#ff2003" stroke="none" /><line stroke="#e1ed5e" stroke-width="0.3" x1="143.23703022742887" x2="145.7803849466894" y1="26.81831364943548" y2="22.513508569990506" /><path d="M 143.74570117128098 25.957352633546492 a86.0,86.0 0 0,1 28.547481713284135,27.462654790039103" fill="none" id="id74" stroke="none" /><text fill="#e1ed5e" style="font-size:6.75px; font-family:Arial;" text-anchor="middle"><textPath startOffset="19.985693538727396" xlink:href="#id74">February</textPath></text><path d="M 110.68208982089419 81.91981866633111 l 4.063165537011205 -6.877190786599017 a28.987807414831554,28.987807414831554 0 0,0 0.42741546632426136,0.2575130360760733 l -4.180943069553104 6.806231141064329" fill="#ff1f03" stroke="none" /><path d="M 110.99172775467656 82.1063720568725 l 4.228958672872481 -6.8843965906130755 a29.079542553493255,29.079542553493255 0 0,0 0.4242578521983859,0.2656702281251391 l -4.34683567744313 6.810582021164992" fill="#ff2003" stroke="none" /><path d="M 111.2981086023043 82.29822771554956 l 4.289790169234711 -6.721203645394181 a28.973511029585573,28.973511029585573 0 0,0 0.41809186765558476,0.2719385807050999 l -4.404849062674575 6.646366140529553" fill="#ff1e03" stroke="none" /><path d="M 111.60114157652 82.49532879139004 l 4.787400109356374 -7.22358780863053 a29.66599218993769,29.66599218993769 0 0,0 0.4232281902798821,0.2857655633269087 l -4.911032994042797 7.140110333004951" fill="#ff2904" stroke="none" /><path d="M 111.90073688211348 82.69761687909136 l 4.605359336075671 -6.695693924802038 a29.12660148826127,29.12660148826127 0 0,0 0.4106418909728881,0.2876808870209476 l -4.719932366632211 6.615428195017154" fill="#ff2103" stroke="none" /><path d="M 112.19680574252982 82.90503203632743 l 4.776844873453614 -6.695196414777485 a29.224591295468084,29.224591295468084 0 0,0 0.4069937429526638,0.2956982628871906 l -4.891383932760067 6.61197891707362" fill="#ff2203" stroke="none" /><path d="M 112.48926042617603 83.11751280151076 l 4.788291825536687 -6.472623092863549 a29.051247624360585,29.051247624360585 0 0,0 0.3994599756977028,0.3008649720217186 l -4.8989979549927725 6.389241531335983" fill="#ff2003" stroke="none" /><path d="M 112.77801427241765 83.33499621200491 l 5.204913482812685 -6.788214589374428 a29.55400383884419,29.55400383884419 0 0,0 0.4010442361316103,0.3130213875589878 l -5.320990274103726 6.697614812592216" fill="#ff2703" stroke="none" /><path d="M 113.06298171725822 83.55741782278167 l 5.616127373917349 -7.069108558987043 a30.028465124195122,30.028465124195122 0 0,0 0.4019475948921883,0.3250136681545848 l -5.736978367374028 6.9713887935683285" fill="#ff2f04" stroke="none" /><path d="M 113.34407831869373 83.78471172551755 l 4.616192371544217 -5.609446246294493 a28.26464859447244,28.26464859447244 0 0,0 0.3730159204027197,0.31239010597368877 l -4.712065828906053 5.529154982926985" fill="#ff1302" stroke="none" /><path d="M 113.6212207817346 84.01681056812373 l 5.118728063740511 -6.006333911181723 a28.891604655780483,28.891604655780483 0 0,0 0.3757369713590319,0.3258353989889537 l -5.221358833746306 5.9173335187730975" fill="#ff1d03" stroke="none" /><path d="M 113.89432698308785 84.25364557470407 l 5.457439294299903 -6.18488203762463 a29.24841860421138,29.24841860421138 0 0,0 0.3746430111774234,0.33635819451655097 l -5.563093293073316 6.090024834338782" fill="#ff2303" stroke="none" /><path d="M 114.16331599549186 84.49514656593476 l 5.626168735191647 -6.159074729550106 a29.34194079102883,29.34194079102883 0 0,0 0.36997688550584906,0.3438531935400776 l -5.731353504492343 6.061316949935388" fill="#ff2403" stroke="none" /><path d="M 114.42810811169701 84.74124197986012 l 5.535519981791715 -5.854208969319558 a29.05690661018712,29.05690661018712 0 0,0 0.3604671933687063,0.34676915442291245 l -5.63547041877284 5.758056728134344" fill="#ff2003" stroke="none" /><path d="M 114.68862486808459 84.99185889309783 l 5.578596978814058 -5.699946141214056 a28.975595919100613,28.975595919100613 0 0,0 0.3534528734900668,0.35193503452434716 l -5.675885652471448 5.60307525603959" fill="#ff1e03" stroke="none" /><path d="M 114.94478906791727 85.2469230424477 l 5.740109767517339 -5.666475502606922 a29.065841850965857,29.065841850965857 0 0,0 0.34842433806866085,0.3590819077437372 l -5.836798369289109 5.56682939931307" fill="#ff2003" stroke="none" /><path d="M 115.19652480421416 85.50635884689758 l 5.918915727536556 -5.64514858993152 a29.179319408855815,29.179319408855815 0 0,0 0.34352768002527007,0.36645137727614463 l -6.0152107295322885 5.542427795777321" fill="#ff2203" stroke="none" /><path d="M 115.4437574822437 85.77008943001954 l 6.110711125646049 -5.630422061269963 a29.309178241506793,29.309178241506793 0 0,0 0.33866945183903524,0.37396726748722503 l -6.206724218101121 5.5244020065131885" fill="#ff2403" stroke="none" /><path d="M 115.68641384162765 86.03803664274999 l 6.003600724978806 -5.34360843593657 a29.0372490804739,29.0372490804739 0 0,0 0.3291000733556873,0.37621827454558127 l -6.094692661912342 5.2394746051880405" fill="#ff1f03" stroke="none" /><path d="M 115.9244219780498 86.31012108654704 l 5.475624565328991 -4.707275239139479 a28.22086591465663,28.22086591465663 0 0,0 0.31350611886155094,0.37109235981187744 l -5.555841297677659 4.612323929698495" fill="#ff1302" stroke="none" /><path d="M 116.15771136456269 86.58626213691792 l 5.565924494225169 -4.62069475352735 a28.233970934465447,28.233970934465447 0 0,0 0.3072145206283904,0.3766086768365968 l -5.644637506929969 4.524201907082652" fill="#ff1302" stroke="none" /><path d="M 116.38621287248628 86.86637796730983 l 8.339366257459158 -6.684038909413982 a31.68744149544728,31.68744149544728 0 0,0 0.33746509461306107,0.42854640004167316 l -8.453185432666183 6.53950011541927" fill="#ff4806" stroke="none" /><path d="M 116.60985879189232 87.15038557335679 l 6.363858966029715 -4.923168523198623 a29.045886479893344,29.045886479893344 0 0,0 0.3025254386034193,0.39808801556878853 l -6.447660344857248 4.8128957317488" fill="#ff2003" stroke="none" /><path d="M 116.82858285166822 87.43820079747576 l 6.393241652378258 -4.77227456395289 a28.977978649974943,28.977978649974943 0 0,0 0.2949370214895979,0.40229376585492016 l -6.474441286381482 4.661518354426476" fill="#ff1f03" stroke="none" /><path d="M 117.04232023915458 87.72973835380427 l 6.904926611963704 -4.971462511420188 a29.508434110872628,29.508434110872628 0 0,0 0.2932398956327498,0.4147670364873793 l -6.989479127400338 4.851868974601015" fill="#ff2703" stroke="none" /><path d="M 117.2510076193507 88.02491185347247 l 6.48448088050867 -4.501315624106512 a28.893689545295526,28.893689545295526 0 0,0 0.28009753752310806,0.4110085740943748 l -6.561002883700511 4.3890290267417305" fill="#ff1d03" stroke="none" /><path d="M 117.45458315368197 88.32363383020206 l 7.20093770067843 -4.8171179236261334 a29.66360945906336,29.66360945906336 0 0,0 0.2802552344812693,0.4268479493214261 l -7.282789570517624 4.6924519103270335" fill="#ff2904" stroke="none" /><path d="M 117.65298651832404 88.62581576622439 l 8.528384940200148 -5.4950147628393085 a31.14537022153724,31.14537022153724 0 0,0 0.2864964776906658,0.4531686254286961 l -8.62170901413677 5.347398489696406" fill="#ff4006" stroke="none" /><line stroke="#e1ed5e" stroke-width="0.3" x1="172.23445277983987" x2="176.4835382374775" y1="55.19839476539836" y2="52.563006222186495" /><path d="M 173.08426987136738 54.67131705675599 a86.0,86.0 0 0,1 12.851231095245387,41.99856678651699" fill="none" id="id75" stroke="none" /><text fill="#e1ed5e" style="font-size:6.75px; font-family:Arial;" text-anchor="middle"><textPath startOffset="22.20632615414155" xlink:href="#id75">March</textPath></text><path d="M 117.84615892207809 88.93136811851018 l 7.241496488696029 -4.491356333564692 a29.52124128932215,29.52124128932215 0 0,0 0.2641226120592408,0.4341481278605909 l -7.317734899041494 4.3660404324970195" fill="#ff2703" stroke="none" /><path d="M 118.03404312379186 89.2402003453031 l 10.515439257930584 -6.273913116421444 a33.244853963181136,33.244853963181136 0 0,0 0.28897745069645303,0.4939561366571767 l -10.621876383097364 6.091977567410373" fill="#ff6008" stroke="none" /><path d="M 118.21658344932153 89.55222093294921 l 8.935015347262507 -5.1245101238994195 a31.30024772836868,31.30024772836868 0 0,0 0.2640285576540188,0.46967734296833236 l -9.021901546208959 4.969949270996293" fill="#ff4206" stroke="none" /><path d="M 118.3937258080291 89.86733742301442 l 7.68569069927022 -4.233862749698456 a29.774704286078986,29.774704286078986 0 0,0 0.24343217019452493,0.4510428404311559 l -7.7574309686832095 4.100938925934842" fill="#ff2b04" stroke="none" /><path d="M 118.56541770881063 90.18545643968196 l 7.367729402760428 -3.8949245472517178 a29.333899074327967,29.333899074327967 0 0,0 0.23214368165650015,0.448427703110538 l -7.4336825175770445 3.767524121880835" fill="#ff2403" stroke="none" /><path d="M 118.73160827565052 90.50648371742162 l 7.707852860243119 -3.906478587188758 a29.641271357116516,29.641271357116516 0 0,0 0.22674159270722438,0.4570972149382335 l -7.773954465903752 3.7732217837515747" fill="#ff2904" stroke="none" /><path d="M 118.89224826269711 90.83032412892265 l 5.625285218942662 -2.730328408922917 a27.25288149696013,27.25288149696013 0 0,0 0.201206474776442,0.4237921499277102 l -5.67144988756086 2.6330938433546662" fill="#ff0300" stroke="none" /><path d="M 119.04729006885535 91.15688171328212 l 7.510605400303276 -3.4869617525457945 a29.280585471014835,29.280585471014835 0 0,0 0.2083072203488715,0.4589773478703308 l -7.569514937615494 3.357162395833401" fill="#ff2303" stroke="none" /><path d="M 119.196687751892 91.48605970444005 l 7.719805285272631 -3.423817803447962 a29.444993901343594,29.444993901343594 0 0,0 0.20150091296422298,0.4650918887960921 l -7.777596908079535 3.290426770065267" fill="#ff2603" stroke="none" /><path d="M 119.34039704204932 91.81776055985345 l 10.431756027871371 -4.413307824842427 a32.32690689384556,32.32690689384556 0 0,0 0.2124005753047508,0.514344840562963 l -10.50617829006232 4.23308841382616" fill="#ff5207" stroke="none" /><path d="M 119.47837535516314 92.15188598940014 l 7.851869559825167 -3.163629736990983 a29.465247113775398,29.465247113775398 0 0,0 0.18549979632241512,0.47207674821054046 l -7.905162906029283 3.028003983884658" fill="#ff2603" stroke="none" /><path d="M 119.61058180528143 92.48833698450437 l 7.62925263923662 -2.922318952851881 a29.169788485358495,29.169788485358495 0 0,0 0.1755679723298781,0.4704348789399567 l -7.678425200068124 2.790560936882591" fill="#ff2203" stroke="none" /><path d="M 119.7369772167798 92.82701384747503 l 8.214767259248967 -2.985483093465422 a29.740452529760496,29.740452529760496 0 0,0 0.17071999656117778,0.48264841968042727 l -8.264940336619954 2.84363704735838" fill="#ff2a04" stroke="none" /><path d="M 119.85752413597 93.16781622104841 l 8.077932894940828 -2.779295229071528 a29.542685867191118,29.542685867191118 0 0,0 0.1613068719420293,0.4822870155804732 l -8.124577060654627 2.6398351105687405" fill="#ff2703" stroke="none" /><path d="M 119.97218684219823 93.5106431181261 l 8.024584880806257 -2.607345681866742 a29.437547867361317,29.437547867361317 0 0,0 0.15243675723268954,0.48326617752795875 l -8.068277121807153 2.4688293379123643" fill="#ff2603" stroke="none" /><path d="M 120.08093135843002 93.85539295169968 l 7.874893657311155 -2.4096555188420647 a29.23531358440257,29.23531358440257 0 0,0 0.14310561107460598,0.4824809789335192 l -7.915205165497463 2.2737451531620154" fill="#ff2303" stroke="none" /><path d="M 120.18372546131832 94.20196356495316 l 8.464832431962387 -2.431632700868022 a29.807168994241735,29.807168994241735 0 0,0 0.13741563288603398,0.49435714465597547 l -8.505434835414784 2.285564252793095" fill="#ff2b04" stroke="none" /><path d="M 120.28053869075195 94.5502522615342 l 16.549787085737577 -4.447227271320806 a38.136898289539616,38.136898289539616 0 0,0 0.16490334551330363,0.635439858570945 l -16.623886763121185 4.16169098720101" fill="#ffa70f" stroke="none" /><path d="M 120.37134235888165 94.90015583598534 l 7.680208525597224 -1.922694437001882 a28.91721901267953,28.91721901267953 0 0,0 0.11672531809283027,0.4839018009711902 l -7.712166643950873 1.7902074043712857" fill="#ff1e03" stroke="none" /><path d="M 120.45610955862082 95.25157060432595 l 8.411663814162507 -1.9525800645149616 a29.635314529930696,29.635314529930696 0 0,0 0.11106979030788657,0.4979040913529857 l -8.444027991472431 1.807497803612012" fill="#ff2904" stroke="none" /><path d="M 120.53481517161879 95.60439243477599 l 8.400050195911007 -1.7980840772523587 a29.590340484677718,29.590340484677718 0 0,0 0.10232720762439369,0.49898380514465374 l -8.429756699450397 1.6532246159442932" fill="#ff2803" stroke="none" /><path d="M 120.67395015179393 96.31383870115 l 8.441131565083216 -1.505052119466915 a29.574257051275993,29.574257051275993 0 0,0 0.08504449191661788,0.5019374053845383 l -8.465787918520057 1.3595289257665388" fill="#ff2803" stroke="none" /><path d="M 120.73433829027371 96.67025291283417 l 8.499312297522115 -1.3649126376443135 a29.60821096623519,29.60821096623519 0 0,0 0.07647956908210245,0.5039048038007117 l -8.521547760043516 1.2184087214515198" fill="#ff2803" stroke="none" /><path d="M 120.78858239683441 97.02765380044208 l 7.299719031318159 -1.0437119619990565 a28.373956373332327,28.373956373332327 0 0,0 0.06496825452324888,0.48408895864868523 l -7.316603284899244 0.917904661285707" fill="#ff1502" stroke="none" /><path d="M 120.83666639777658 97.38593545837742 l 8.348280402097048 -1.047333741685917 a29.413720558618017,29.413720558618017 0 0,0 0.05870088787917908,0.5029133593207052 l -8.365071642979816 0.9034766440403591" fill="#ff2503" stroke="none" /><path d="M 120.87857604477298 97.74499172005257 l 8.893348318652443 -0.9605336135956708 a29.945069543593576,29.945069543593576 0 0,0 0.05093923598774835,0.5129511547422851 l -8.908564680322419 0.8073069281489508" fill="#ff2e04" stroke="none" /><path d="M 120.91429891909075 98.10471618934814 l 7.2631809929868725 -0.6581998948708156 a28.29294352360511,28.29294352360511 0 0,0 0.039779226752396375,0.48540732346578636 l -7.273434703558763 0.5330786541972606" fill="#ff1402" stroke="none" /><path d="M 120.94382443527127 98.46500227214037 l 8.466662964777237 -0.6205317683813002 a29.48937226387799,29.48937226387799 0 0,0 0.0327464158497341,0.5065725592886635 l -8.476089971631387 0.47470014483960143" fill="#ff2603" stroke="none" /><path d="M 120.96714384426684 98.82574320788733 l 16.260484848921312 -0.9106621730986002 a37.28596552604457,37.28596552604457 0 0,0 0.030372777794326816,0.6411213347758292 l -16.273751234949135 0.6306297316997712" fill="#ff9b0e" stroke="none" /><path d="M 120.98425023603335 99.18683210126433 l 23.993664060174908 -0.9297867289667857 a45.011672544699834,45.011672544699834 0 0,0 0.02333813541567353,0.7744790954633622 l -24.006113890046226 0.5166374860784244" fill="#f9ff18" stroke="none" /><line stroke="#e1ed5e" stroke-width="0.3" x1="184.98032266829074" x2="189.97916517819016" y1="98.17113171792111" y2="98.06355123074" /><path d="M 185.9800911702706 98.14961562048488 a86.0,86.0 0 0,1 -9.607161424134198,41.387399972396054" fill="none" id="id76" stroke="none" /><text fill="#e1ed5e" style="font-size:6.75px; font-family:Arial;" text-anchor="middle"><textPath startOffset="21.466115282336823" xlink:href="#id76">April</textPath></text><path d="M 120.99513854157772 99.54816195383933 l 8.2810507111498 -0.17821715089297793 a29.282968201889165,29.282968201889165 0 0,0 0.006507781150970408,0.5040348219691115 l -8.282891499418486 0.03564607086340372" fill="#ff2303" stroke="none" /><path d="M 120.99980553446 99.90962569577887 l 16.939570443345072 -0.0729007652051811 a37.93972730968883,37.93972730968883 0 0,0 -0.002810616029104736,0.6530881819994918 l -16.938315530026465 -0.21869689499799538" fill="#ffa40f" stroke="none" /><path d="M 120.99824983174949 100.27111621757518 l 11.223514005531031 0.14491096588825417 a32.224449466249375,32.224449466249375 0 0,0 -0.01193522609326822,0.5545830579837773 l -11.219356716752756 -0.3380838396621462" fill="#ff5007" stroke="none" /><path d="M 120.9904718944345 100.63252640178507 l 24.448528144400743 0.7367313900274487 a45.45962594907385,45.45962594907385 0 0,0 -0.030301800222339605,0.7819548207160942 l -24.4322242113272 -1.157463457757549" fill="#f3ff19" stroke="none" /><path d="M 120.9764740272857 100.99374915477107 l 8.476886675515335 0.4015879388464358 a29.486393850285076,29.486393850285076 0 0,0 -0.028382267565798876,0.5067844535162439 l -8.468718057062008 -0.547444108698103" fill="#ff2603" stroke="none" /><path d="M 120.95626037817324 101.35467743843564 l 8.868183085970557 0.5732667627566523 a29.88669263717249,29.88669263717249 0 0,0 -0.03760520331501421,0.5130931217602318 l -8.857001323991204 -0.7258330210136544" fill="#ff2d04" stroke="none" /><path d="M 120.92983693683757 101.71520430193887 l 23.745027747675056 1.9459097491002195 a44.82462817106495,44.82462817106495 0 0,0 -0.06963912337195124,0.7684619234749253 l -23.70801402802603 -2.3543530611237156" fill="#fbff18" stroke="none" /><path d="M 120.89721153311464 102.0752229133903 l 8.602235240832437 0.8542553943075434 a29.64454761206872,29.64454761206872 0 0,0 -0.05479681482585695,0.5073504498970915 l -8.586256124505526 -1.0022021660894262" fill="#ff2904" stroke="none" /><path d="M 120.8583938346157 102.4346265915055 l 8.045769288112485 0.9391156391653157 a29.100391448643638,29.100391448643638 0 0,0 -0.062355890262613844,0.4970377979007328 l -8.028411888603024 -1.0774711913534434" fill="#ff2003" stroke="none" /><path d="M 120.81339534386255 102.79330883721812 l 24.34973017079817 3.267910657836214 a45.568040203855865,45.568040203855865 0 0,0 -0.11102533430209277,0.7765109295204082 l -24.289870785479476 -3.686567059337032" fill="#f2ff19" stroke="none" /><path d="M 120.76222939487914 103.15116336523771 l 8.460685531155164 1.2841107659251947 a29.557577935155678,29.557577935155678 0 0,0 -0.08067564345583877,0.5023673088104235 l -8.437328133338037 -1.4295573044288232" fill="#ff2803" stroke="none" /><path d="M 120.70491114924044 103.5080841355445 l 30.22955007316179 5.121867187543923 a51.66038520815802,51.66038520815802 0 0,0 -0.1560969157897894,0.8754744012134498 l -30.13690671503281 -5.641460339490591" fill="#a5ff21" stroke="none" /><path d="M 120.64145759157962 103.86396538481128 l 19.14537592472461 3.5839072664380542 a40.47793137356871,40.47793137356871 0 0,0 -0.13409773326979252,0.6837614529266316 l -19.080848258479154 -3.912932446432631" fill="#ffc812" stroke="none" /><path d="M 120.5718875245553 104.21870165774334 l 10.744119092163805 2.203309393510944 a31.967710214540332,31.967710214540332 0 0,0 -0.11518416776960162,0.5381020850356467 l -10.70460088566976 -2.38792529796276" fill="#ff4d07" stroke="none" /><path d="M 120.49622156327973 104.57218783832717 l 17.21270985341836 3.839719550917089 a38.63578256635243,38.63578256635243 0 0,0 -0.150384142943041,0.6478509518799329 l -17.144065144544765 -4.135439160145586" fill="#ffae10" stroke="none" /><path d="M 120.41448212921028 104.9243191809786 l 7.892778758364697 1.9038720446120505 a29.11915545427899,29.11915545427899 0 0,0 -0.12173011362709345,0.48625129324167216 l -7.858837330442543 -2.039451177251119" fill="#ff2103" stroke="none" /><path d="M 120.32669344350535 105.2749913415812 l 8.401114403757376 2.180177797368849 a29.679395051105793,29.679395051105793 0 0,0 -0.1325848163217415,0.49339742429551403 l -8.362341511093856 -2.3244661548399113" fill="#ff2904" stroke="none" /><path d="M 120.23288151984713 105.62410040840565 l 18.7116036022232 5.201233317061574 a40.421043673944084,40.421043673944084 0 0,0 -0.19211037063848435,0.6687614027054609 l -18.619300594698615 -5.522552195271617" fill="#ffc712" stroke="none" /><path d="M 120.13307415673323 105.97154293290107 l 7.9741525075538044 2.3651626016801384 a29.317517799566946,29.317517799566946 0 0,0 -0.14766707046519517,0.4825845302397742 l -7.932258664582476 -2.5020741044719697" fill="#ff2403" stroke="none" /><path d="M 120.02730092923936 106.31721596034902 l 16.560997249151928 5.223839024104195 a38.365342612115995,38.365342612115995 0 0,0 -0.20408124105666367,0.6280974758463926 l -16.468623757079015 -5.508135399928382" fill="#ffaa0f" stroke="none" /><path d="M 119.9155931802556 106.66101706037122 l 22.74547881213202 7.607507395969969 a44.98397329828576,44.98397329828576 0 0,0 -0.2519298914515849,0.7322261903264815 l -22.611158089737206 -7.99790628938575" fill="#f9ff18" stroke="none" /><path d="M 119.79798401119884 107.00284435728193 l 16.78525952224512 5.9371984472953 a38.804360775711274,38.804360775711274 0 0,0 -0.22816176776194014,0.627803193300799 l -16.68057349347795 -6.22524943760223" fill="#ffb110" stroke="none" /><path d="M 119.67450827220406 107.3425965602758 l 7.423633731815844 2.770526548863625 a28.92377152258394,28.92377152258394 0 0,0 -0.17809567207621574,0.4649516011584274 l -7.374843780146121 -2.897901716855196" fill="#ff1e03" stroke="none" /><path d="M 119.54520255179757 107.68017299344265 l 13.912519156441647 5.466843007274417 a35.94806214010836,35.94806214010836 0 0,0 -0.2312613913162593,0.5739718076382931 l -13.816355150867995 -5.705514182755524" fill="#ff880c" stroke="none" /><path d="M 119.41010516605496 108.01547362559984 l 7.974383511102118 3.2930507159456286 a29.62757065458912,29.62757065458912 0 0,0 -0.19871496458830568,0.46970347683515895 l -7.916517565321503 -3.4298287184469514" fill="#ff2903" stroke="none" /><path d="M 119.26925614724726 108.34839909993367 l 7.975275851528017 3.455285727266162 a29.691606546836734,29.691606546836734 0 0,0 -0.20721760229001085,0.4672209893146097 l -7.914617164506733 -3.592055053073459" fill="#ff2a04" stroke="none" /><path d="M 119.12269723197855 108.67885076344098 l 21.991255505683775 9.98074812978577 a45.15016877677026,45.15016877677026 0 0,0 -0.3272857972281017,0.7049444905179464 l -21.81619509161584 -10.357812687582546" fill="#f7ff18" stroke="none" /><path d="M 118.97047184881838 109.00673069616215 l 14.879374734306888 7.064374688578391 a37.47122285152372,37.47122285152372 0 0,0 -0.28165288084653894,0.5802883573715171 l -14.755568596845634 -7.319452001915183" fill="#ff9e0e" stroke="none" /><path d="M 118.81262510543309 109.33194174019688 l 6.745425657243039 3.3460465455212787 a28.52972740424164,28.52972740424164 0 0,0 -0.2220174287160144,0.4380614496556162 l -6.686829558740755 -3.461662206879589" fill="#ff1802" stroke="none" /><path d="M 118.64920377521936 109.65438752849418 l 34.2448409070118 17.72799358904712 a59.56152078743582,59.56152078743582 0 0,0 -0.47917950206419874,0.9064270343952178 l -33.93460889672271 -18.314835638528475" fill="#4aff2c" stroke="none" /><line stroke="#e1ed5e" stroke-width="0.3" x1="174.80103733775053" x2="179.2010983576182" y1="140.37084112569926" y2="142.7455964860345" /><path d="M 175.68104954172406 140.8457921977663 a86.0,86.0 0 0,1 -30.038265399797805,32.042727171017184" fill="none" id="id77" stroke="none" /><text fill="#e1ed5e" style="font-size:6.75px; font-family:Arial;" text-anchor="middle"><textPath startOffset="22.206326154141568" xlink:href="#id77">May</textPath></text><path d="M 118.48025628344425 109.97397251340804 l 7.439036608533125 4.014919789084074 a29.453333459403748,29.453333459403748 0 0,0 -0.24463600836243773,0.4440854145098853 l -7.368824190719178 -4.1423757219917645" fill="#ff2603" stroke="none" /><path d="M 118.30583269289576 110.29060199501025 l 7.0240352919356175 3.9485530541457696 a29.057800134264994,29.057800134264994 0 0,0 -0.24885654049288936,0.43390235452957565 l -6.955026755290349 -4.06887525453366" fill="#ff2003" stroke="none" /><path d="M 118.12598468904814 110.60418214915192 l 7.109017330673617 4.158963828403168 a29.236207108480443,29.236207108480443 0 0,0 -0.25786212754942917,0.43219175797470794 l -7.0363743274259605 -4.28071768026398" fill="#ff2303" stroke="none" /><path d="M 117.94076556474637 110.91462005526583 l 7.0048222203634065 4.261522331030526 a29.19927477992833,29.19927477992833 0 0,0 -0.26492830198227657,0.4271487778032109 l -6.930429278713167 -4.38146744019901" fill="#ff2203" stroke="none" /><path d="M 117.75023020441432 111.22182372390056 l 14.0275171422826 8.868297641319657 a37.59572053970746,37.59572053970746 0 0,0 -0.35052663045286936,0.5440251146384034 l -13.87278564845268 -9.108444355879513" fill="#ff9f0e" stroke="none" /><path d="M 117.55443506779139 111.5257021239791 l 7.378320220601133 4.844378113540728 a29.826528682595665,29.826528682595665 0 0,0 -0.285478078170466,0.4267509926905573 l -7.293839037019946 -4.9706660204370925" fill="#ff2c04" stroke="none" /><path d="M 117.35343817320211 111.8261652097733 l 4.992594056553048 3.402394473580779 a27.041711973222643,27.041711973222643 0 0,0 -0.26544542737823407,0.3823939359938265 l -4.933287722012678 -3.4878296717616255" fill="#ff0000" stroke="none" /><path d="M 117.14729908036423 112.12312394758627 l 7.023338236332467 4.96549337396125 a29.60136061497149,29.60136061497149 0 0,0 -0.2977335969075682,0.4135259255883368 l -6.936824847049296 -5.085652905000718" fill="#ff2803" stroke="none" /><line stroke="#e1ed5e" stroke-width="0.3" x1="143.8653032363475" x2="146.44561519142675" y1="172.8068346515853" y2="177.08958963109032" /><path d="M 144.38136562736335 173.6633856474863 a86.0,86.0 0 0,1 -40.68145358897372,12.25698825130547" fill="none" id="id78" stroke="none" /><text fill="#e1ed5e" style="font-size:6.75px; font-family:Arial;" text-anchor="middle"><textPath startOffset="21.466115282336833" xlink:href="#id78">June</textPath></text><line stroke="#e1ed5e" stroke-width="0.3" x1="102.19456741930631" x2="102.32365962044197" y1="184.97166512339345" y2="189.96999836594603" /><path d="M 102.22038585953345 185.97133177190398 a86.0,86.0 0 0,1 -42.740103519485714,-10.115201625700543" fill="none" id="id79" stroke="none" /><text fill="#e1ed5e" style="font-size:6.75px; font-family:Arial;" text-anchor="middle"><textPath startOffset="22.20632615414155" xlink:href="#id79">July</textPath></text><line stroke="#e1ed5e" stroke-width="0.3" x1="58.666819895761336" x2="56.23545636021788" y1="174.27360380694188" y2="178.64263932499728" /><path d="M 58.180547188652646 175.14741091055294 a86.0,86.0 0 0,1 -31.652253787137756,-30.449443065178592" fill="none" id="id80" stroke="none" /><text fill="#e1ed5e" style="font-size:6.75px; font-family:Arial;" text-anchor="middle"><textPath startOffset="22.20632615414155" xlink:href="#id80">August</textPath></text><line stroke="#e1ed5e" stroke-width="0.3" x1="26.63291911575756" x2="22.317208475507996" y1="142.92168965132927" y2="145.44649492493687" /><path d="M 25.769776987707644 143.4266507060508 a86.0,86.0 0 0,1 -11.730757126820373,-40.83630448921669" fill="none" id="id81" stroke="none" /><text fill="#e1ed5e" style="font-size:6.75px; font-family:Arial;" text-anchor="middle"><textPath startOffset="21.46611528233685" xlink:href="#id81">September</textPath></text><line stroke="#e1ed5e" stroke-width="0.3" x1="15.007084014347285" x2="10.007500721073583" y1="101.09737516637583" y2="101.16192664675087" /><path d="M 14.007167355692545 101.11028546245083 a86.0,86.0 0 0,1 10.666146001902534,-42.60595125391555" fill="none" id="id82" stroke="none" /><text fill="#e1ed5e" style="font-size:6.75px; font-family:Arial;" text-anchor="middle"><textPath startOffset="22.20632615414155" xlink:href="#id82">October</textPath></text><line stroke="#e1ed5e" stroke-width="0.3" x1="26.266209847984243" x2="21.928928074336255" y1="57.711370442889674" y2="55.22380399835377" /><path d="M 25.398753493254645 57.213857153982495 a86.0,86.0 0 0,1 29.58750427330803,-30.492523968695096" fill="none" id="id83" stroke="none" /><text fill="#e1ed5e" style="font-size:6.75px; font-family:Arial;" text-anchor="middle"><textPath startOffset="21.46611528233685" xlink:href="#id83">November</textPath></text><line stroke="#e1ed5e" stroke-width="0.3" x1="56.762969772571076" x2="54.21961505331055" y1="26.818313649435495" y2="22.513508569990535" /><path d="M 56.25429882871897 25.957352633546506 a86.0,86.0 0 0,1 42.265352541879196,-11.944610805530505" fill="none" id="id84" stroke="none" /><text fill="#e1ed5e" style="font-size:6.75px; font-family:Arial;" text-anchor="middle"><textPath startOffset="22.20632615414155" xlink:href="#id84">December</textPath></text></svg>