<?xml version="1.0" encoding="utf-8" ?>
<svg baseProfile="full" height="200mm" version="1.1" viewBox="0,0,200,200" width="200mm" xmlns="http://www.w3.org/2000/svg" xmlns:ev="http://www.w3.org/2001/xml-events" xmlns:xlink="http://www.w3.org/1999/xlink"><defs /><rect fill="#1a1a1a" height="200" width="200" x="0" y="0" /><text alignment-baseline="middle" fill="#e1ed5e" style="dominant-baseline: central; font-size:9.0px; font-family:Arial;" text-anchor="middle" x="100.0" y="100.0">2013</text><line stroke="#e1ed5e" stroke-width="0.3" x1="100.0" x2="100.0" y1="15.0" y2="10.0" /><path d="M 100.0 14.0 a86.0,86.0 0 0,1 42.46469731375804,11.215312516191453" fill="none" id="id13" stroke="none" /><text fill="#e1ed5e" style="font-size:6.75px; font-family:Arial;" text-anchor="middle"><textPath startOffset="22.20632615414155" xlink:href="#id13">January</textPath></text><path d="M 100.72285384407766 79.0124445844662 l 0.4993068651379972 -14.497025349310213 a35.50562136980408,35.50562136980408 0 0,0 0.6106276504484764,0.026294911117694643 l -0.7487753479758051 14.486282711668325" fill="#ffa10e" stroke="none" /><path d="M 101.08401301168833 79.027996857942 l 1.107820507304638 -21.432598049578644 a42.46120978489346,42.46120978489346 0 0,0 0.7296007591701134,0.04401151024638916 l -1.4765833153143633 21.410353269951948" fill="#fffc17" stroke="none" /><path d="M 101.44485096284872 79.0497635885617 l 1.007436144988911 -14.607752598463417 a35.64245073627174,35.64245073627174 0 0,0 0.6117089962153229,0.04748039115751293 l -1.2587353305665752 14.58824694511744" fill="#ffa30f" stroke="none" /><path d="M 101.80526077348638 79.07773832637324 l 1.195787406716649 -13.858705288896644 a34.91019841003549,34.91019841003549 0 0,0 0.5982525340983753,0.05681128673952639 l -1.4341650679052684 13.83606845764194" fill="#ff990e" stroke="none" /><path d="M 102.16513564639614 79.11191278185805 l 1.4961477530876235 -14.434044725899632 a35.51137847512565,35.51137847512565 0 0,0 0.6074699786920559,0.06825633014728935 l -1.7443844352894047 14.406152442281742" fill="#ffa10e" stroke="none" /><path d="M 102.52436894288641 79.15227682838746 l 1.7461777002160592 -14.42096227856562 a35.5262964860471,35.5262964860471 0 0,0 0.6064597162338737,0.07873587667755572 l -1.994152144957779 14.388768078723928" fill="#ffa10e" stroke="none" /><path d="M 102.88285421437855 79.19881850522331 l 5.91403438454882 -42.67260619207842 a64.0804726288586,64.0804726288586 0 0,0 1.091293560041539,0.1608283031006144 l -6.647696925019016 42.56448340481683" fill="#33ff55" stroke="none" /><path d="M 103.2404852339499 79.25152402106235 l 1.1559683152641096 -7.401539920746691 a28.4912653099661,28.4912653099661 0 0,0 0.4839048674387398,0.07984844938429228 l -1.2832023888417246 7.380545208422774" fill="#ff3e05" stroke="none" /><path d="M 103.59715602781102 79.31037775812273 l 1.5935389151438608 -9.16549572138532 a30.302992964245995,30.302992964245995 0 0,0 0.5131377211081116,0.09377263863873728 l -1.7510717573548733 9.136707601395845" fill="#ff5808" stroke="none" /><path d="M 103.95276090670814 79.375362276772 l 2.8161905096103195 -14.6942631722892 a35.9616943947841,35.9616943947841 0 0,0 0.6069539269518704,0.12174924782045625 l -3.0687108460293153 14.643609968391534" fill="#ffa70f" stroke="none" /><path d="M 104.307194497241 79.44645832069477 l 4.081457844318279 -19.476346835337516 a40.89940662897537,40.89940662897537 0 0,0 0.6878058585155278,0.15032772036405584 l -4.4161064269873345 19.403205616877592" fill="#ffe815" stroke="none" /><path d="M 104.66035177308747 79.52364482259891 l 1.934130182451594 -8.498057336339842 a29.71537939818971,29.71537939818971 0 0,0 0.49776983834309346,0.11780603843734799 l -2.080123707757211 8.463505385761627" fill="#ff5007" stroke="none" /><path d="M 105.01212808612495 79.60689891045804 l 1.3672175459624887 -5.562867737437431 a26.728418741870215,26.728418741870215 0 0,0 0.44584416689436773,0.11365560527585185 l -1.4627706015418815 5.538509135992712" fill="#ff2403" stroke="none" /><path d="M 105.36241919743992 79.69619591428918 l 4.366682391498844 -16.53363165338567 a38.10055235242601,38.10055235242601 0 0,0 0.6326544298587361,0.17292835433993423 l -4.650634710581291 16.45601675821944" fill="#ffc412" stroke="none" /><path d="M 106.0581310904928 79.89281104454417 l 6.531693612679829 -21.67896265490255 a43.64156450518784,43.64156450518784 0 0,0 0.7174145916656937,0.22290420582582024 l -6.903893577056241 21.563318314194206" fill="#f3ff19" stroke="none" /><path d="M 107.08798089147638 80.2323363322302 l 5.10213664560557 -14.229344398856883 a36.11641625424859,36.11641625424859 0 0,0 0.5833965106283677,0.21486985835011227 l -5.3463154820065135 14.139411272700446" fill="#ffa90f" stroke="none" /><path d="M 107.4271985657038 80.35727306442388 l 10.395562377139465 -27.49316465818081 a50.392887235840575,50.392887235840575 0 0,0 0.8087262553691271,0.3137732227670043 l -10.867271797508257 27.31014873152326" fill="#a2ff22" stroke="none" /><path d="M 107.76421540070413 80.48803036053334 l 5.336126505854519 -13.410027027991035 a35.43270837292617,35.43270837292617 0 0,0 0.5647570969804282,0.23037860006452424 l -5.566167472423335 13.31618754174293" fill="#ffa00e" stroke="none" /><path d="M 108.09893153111575 80.62456947434976 l 3.6050760365269454 -8.6245821460589 a30.347726484191693,30.347726484191693 0 0,0 0.4802401154682815,0.20561375473461468 l -3.7529999097855424 8.561248863361495" fill="#ff5908" stroke="none" /><path d="M 108.43124777332544 80.76684994638697 l 6.055559149350005 -13.813789003622306 a36.08279030046739,36.08279030046739 0 0,0 0.5667023550813126,0.2542628277478322 l -6.292443622898097 13.707505845357943" fill="#ffa90f" stroke="none" /><path d="M 108.76106565485865 80.91482961587045 l 2.575571214718584 -5.610643431498946 a27.1735635412223,27.1735635412223 0 0,0 0.4234181936820377,0.1988005193518415 l -2.6717676197002196 5.565477929507102" fill="#ff2a04" stroke="none" /><path d="M 109.08828744355905 81.06846463323043 l 12.523925536807756 -26.08820866453748 a49.938613342314,49.938613342314 0 0,0 0.7717388054874813,0.3786888802278731 l -12.971135609305668 25.868764624174776" fill="#a7ff21" stroke="none" /><path d="M 109.73455568895987 81.39251694778311 l 6.862474165803319 -13.117534668919802 a35.804163855707316,35.804163855707316 0 0,0 0.5436350000144895,0.2903909897354255 l -7.08725421234612 12.997464952682622" fill="#ffa50f" stroke="none" /><path d="M 110.05341064243156 81.56283822128135 l 6.930776257612 -12.710496731762703 a35.47730591999867,35.47730591999867 0 0,0 0.533639348797603,0.296969719846802 l -7.148539695481638 12.58931161435572" fill="#ffa00e" stroke="none" /><path d="M 110.36928655335952 81.73862282372117 l 6.509306649028817 -11.46355665476935 a34.18272370294536,34.18272370294536 0 0,0 0.50916512702458,0.29494130590753864 l -6.705668508518725 11.349811191471762" fill="#ff8f0d" stroke="none" /><line stroke="#e1ed5e" stroke-width="0.3" x1="143.23703022742887" x2="145.7803849466894" y1="26.81831364943548" y2="22.513508569990506" /><path d="M 143.74570117128098 25.957352633546492 a86.0,86.0 0 0,1 28.547481713284135,27.462654790039103" fill="none" id="id14" stroke="none" /><text fill="#e1ed5e" style="font-size:6.75px; font-family:Arial;" text-anchor="middle"><textPath startOffset="19.985693538727396" xlink:href="#id14">February</textPath></text><path d="M 110.68208982089419 81.91981866633111 l 4.856034890146504 -8.219177412713622 a30.54651518597137,30.54651518597137 0 0,0 0.4503980879255111,0.27135980843651797 l -4.996795044289653 8.13437099481849" fill="#ff5c08" stroke="none" /><path d="M 111.60114157652 82.49532879139004 l 9.932718579340028 -14.987229643925616 a38.979876272547855,38.979876272547855 0 0,0 0.5561041878032935,0.37548403000038805 l -10.189227461549864 14.814033701626558" fill="#ffcf13" stroke="none" /><path d="M 111.90073688211348 82.69761687909136 l 6.53285448002384 -9.498063204506627 a32.52785289175613,32.52785289175613 0 0,0 0.4585944922596611,0.3212747486711986 l -6.695380111867152 9.384203613071492" fill="#ff780b" stroke="none" /><path d="M 112.19680574252982 82.90503203632743 l 3.542389875816811 -4.964991877403298 a27.099153250654567,27.099153250654567 0 0,0 0.3773940138571609,0.27419280088187026 l -3.6273292060277607 4.9032798417047525" fill="#ff2904" stroke="none" /><path d="M 112.77801427241765 83.33499621200491 l 9.238036929619357 -12.048188172559998 a36.182231869999406,36.182231869999406 0 0,0 0.49098848402965517,0.38322429971543165 l -9.444057968808442 11.887385483621342" fill="#ffaa0f" stroke="none" /><path d="M 113.06298171725822 83.55741782278167 l 18.09181642229162 -22.77245614342902 a50.08433565103901,50.08433565103901 0 0,0 0.6704065017458267,0.5420887674313307 l -18.481126322601938 22.45766127873356" fill="#a6ff21" stroke="none" /><path d="M 113.34407831869373 83.78471172551755 l 5.378000931835347 -6.535171134897992 a29.463530928946014,29.463530928946014 0 0,0 0.3888378824537773,0.3256405441761798 l -5.4896963512482415 6.441629433327994" fill="#ff4c07" stroke="none" /><path d="M 113.6212207817346 84.01681056812373 l 3.6100424542762433 -4.236036793499859 a26.565645895811322,26.565645895811322 0 0,0 0.34548774462381954,0.2996035676450075 l -3.682423997546827 4.173268232435181" fill="#ff2103" stroke="none" /><path d="M 113.89432698308785 84.25364557470407 l 9.559908519349996 -10.834184916068306 a35.44892430923156,35.44892430923156 0 0,0 0.4540652924154618,0.4076643027972176 l -9.744984799361449 10.66802160450179" fill="#ffa00e" stroke="none" /><path d="M 114.42810811169701 84.74124197986012 l 15.938978964934659 -16.856612192756277 a44.19906086594044,44.19906086594044 0 0,0 0.5483140939129574,0.5274777239155777 l -16.226776302460035 16.5797513820784" fill="#ecff1a" stroke="none" /><path d="M 114.68862486808459 84.99185889309783 l 10.558282156055357 -10.78795257334593 a36.09494096747775,36.09494096747775 0 0,0 0.44029674623531745,0.4384059720811378 l -10.742414702457996 10.604610750614674" fill="#ffa90f" stroke="none" /><path d="M 115.19652480421416 85.50635884689758 l 4.301001816911361 -4.102067922520548 a26.94353244039661,26.94353244039661 0 0,0 0.317205794324522,0.33837302485099263 l -4.3709749332063454 4.027425480791501" fill="#ff2703" stroke="none" /><path d="M 115.4437574822437 85.77008943001954 l 17.427701202056877 -16.057920478921 a44.6977125329751,44.6977125329751 0 0,0 0.5164849617163206,0.5703155946970297 l -17.701529804389235 15.755552096954423" fill="#e6ff1a" stroke="none" /><path d="M 115.68641384162765 86.03803664274999 l 9.015035494878566 -8.023987924491891 a33.068771569066676,33.068771569066676 0 0,0 0.37479222356778075,0.42845230092482284 l -9.151819582024194 7.867620067364121" fill="#ff7f0b" stroke="none" /><path d="M 116.15771136456269 86.58626213691792 l 11.480116716341184 -9.530512879956678 a35.92058160983802,35.92058160983802 0 0,0 0.390852717301924,0.4791392164666551 l -11.642467925719517 9.331489493881922" fill="#ffa60f" stroke="none" /><path d="M 116.38621287248628 86.86637796730983 l 11.225331838798846 -8.997153076770541 a35.385994521686456,35.385994521686456 0 0,0 0.37685396566188184,0.47856626627119375 l -11.378539885054693 8.802594416546308" fill="#ff9f0e" stroke="none" /><path d="M 116.60985879189232 87.15038557335679 l 11.616884113984684 -8.986980778943375 a35.68733536210185,35.68733536210185 0 0,0 0.3716989939515463,0.4891123059739076 l -11.769859048160344 8.785683697088434" fill="#ffa30f" stroke="none" /><path d="M 116.82858285166822 87.43820079747576 l 11.55785478233136 -8.627431808566623 a35.42278013355702,35.42278013355702 0 0,0 0.3605320230119378,0.4917652742142464 l -11.704649417856924 8.427204090680883" fill="#ffa00e" stroke="none" /><path d="M 117.04232023915458 87.72973835380427 l 11.884893061245549 -8.556977304269536 a35.64488114199042,35.64488114199042 0 0,0 0.354220802996379,0.5010202053304086 l -12.030426484045812 8.351130598607334" fill="#ffa30f" stroke="none" /><path d="M 117.2510076193507 88.02491185347247 l 17.93933842482208 -12.452904993599349 a42.8379189919715,42.8379189919715 0 0,0 0.4152739165919101,0.6093632304887583 l -18.151036807082722 12.142263739840185" fill="#fdff18" stroke="none" /><path d="M 117.45458315368197 88.32363383020206 l 6.080509892908869 -4.067599860940021 a28.315597664338977,28.315597664338977 0 0,0 0.2675195165931493,0.4074505772304383 l -6.149626044859943 3.9623312197319085" fill="#ff3b05" stroke="none" /><path d="M 117.65298651832404 88.62581576622439 l 12.278126312513287 -7.91105066438088 a35.60606409545132,35.60606409545132 0 0,0 0.32752899950185255,0.5180722209525666 l -12.412482908261095 7.698530795714107" fill="#ffa20f" stroke="none" /><line stroke="#e1ed5e" stroke-width="0.3" x1="172.23445277983987" x2="176.4835382374775" y1="55.19839476539836" y2="52.563006222186495" /><path d="M 173.08426987136738 54.67131705675599 a86.0,86.0 0 0,1 12.851231095245387,41.99856678651699" fill="none" id="id15" stroke="none" /><text fill="#e1ed5e" style="font-size:6.75px; font-family:Arial;" text-anchor="middle"><textPath startOffset="22.20632615414155" xlink:href="#id15">March</textPath></text><path d="M 118.03404312379186 89.2402003453031 l 18.08402059314477 -10.78961812378865 a42.05819698052216,42.05819698052216 0 0,0 0.36558652228645777,0.624905873199912 l -18.267066789901556 10.476732838234842" fill="#fff717" stroke="none" /><path d="M 118.21658344932153 89.55222093294921 l 7.580621967012016 -4.347723255708706 a29.738908794293224,29.738908794293224 0 0,0 0.2508581166290623,0.4462485979822367 l -7.654337724933511 4.216591147791676" fill="#ff5007" stroke="none" /><path d="M 118.3937258080291 89.86733742301442 l 12.855140187793713 -7.081588540691525 a35.67663195380611,35.67663195380611 0 0,0 0.2916851787443917,0.5404483369121229 l -12.975133465756569 6.859259220446943" fill="#ffa30f" stroke="none" /><path d="M 118.56541770881063 90.18545643968196 l 12.932987211295456 -6.836978749476633 a35.62895883610064,35.62895883610064 0 0,0 0.2819617554707831,0.5446603649453152 l -13.048758399926356 6.613345662270973" fill="#ffa30f" stroke="none" /><path d="M 118.73160827565052 90.50648371742162 l 31.33454291565077 -15.880910437550302 a56.129145962551576,56.129145962551576 0 0,0 0.42936120382669285,0.8655659869388195 l -31.60326413243087 15.339184862112532" fill="#62ff29" stroke="none" /><path d="M 118.89224826269711 90.83032412892265 l 5.264012071793789 -2.5549783069014302 a26.851302183337282,26.851302183337282 0 0,0 0.19824163753359084,0.41754744656650034 l -5.3072119031691365 2.46398844469439" fill="#ff2603" stroke="none" /><path d="M 119.04729006885535 91.15688171328212 l 10.64883166488085 -4.943951485354123 a32.74053968591326,32.74053968591326 0 0,0 0.23292194144976328,0.5132126230112214 l -10.73235592329396 4.7599168535008385" fill="#ff7b0b" stroke="none" /><path d="M 119.34039704204932 91.81776055985345 l 17.227588468056634 -7.288384696315963 a39.705890941257266,39.705890941257266 0 0,0 0.26088342155977584,0.6317498983943755 l -17.350493576502608 6.990760227468284" fill="#ffd914" stroke="none" /><path d="M 119.47837535516314 92.15188598940014 l 13.254555543748996 -5.340448634469762 a35.28998370467011,35.28998370467011 0 0,0 0.22216968906319395,0.5653976254594195 l -13.344518782693891 5.111502004114559" fill="#ff9e0e" stroke="none" /><path d="M 119.61058180528143 92.48833698450437 l 13.520507591557088 -5.1789129886434715 a35.47844139668676,35.47844139668676 0 0,0 0.21353867617405697,0.5721774873961196 l -13.60765085623277 4.9454123642180186" fill="#ffa00e" stroke="none" /><path d="M 119.85752413597 93.16781622104841 l 39.51581718072573 -13.595820068279764 a62.78930641670878,62.78930641670878 0 0,0 0.3428377045682568,1.0250410994523957 l -39.74399217906576 12.913605865905053" fill="#32ff45" stroke="none" /><path d="M 120.08093135843002 93.85539295169968 l 8.845465658499624 -2.7066429171323336 a30.25030694607259,30.25030694607259 0 0,0 0.14807396021986538,0.4992317823526707 l -8.890745515831192 2.553981748033133" fill="#ff5708" stroke="none" /><path d="M 120.18372546131832 94.20196356495316 l 20.355637752809596 -5.847420466335276 a42.17886480512409,42.17886480512409 0 0,0 0.19445105312518246,0.699543897440234 l -20.45327557650114 5.49616526547609" fill="#fff917" stroke="none" /><path d="M 120.28053869075195 94.5502522615342 l 10.912811275364717 -2.932469865573272 a32.29994820537787,32.29994820537787 0 0,0 0.13966446559274023,0.5381841586499386 l -10.96167207282776 2.744189281374483" fill="#ff740a" stroke="none" /><path d="M 120.37134235888165 94.90015583598534 l 20.546217907519033 -5.143623215509425 a42.180272191036245,42.180272191036245 0 0,0 0.170262074184313,0.7058462181217237 l -20.631712781964165 4.789191765728296" fill="#fff917" stroke="none" /><path d="M 120.53481517161879 95.60439243477599 l 48.24619281966186 -10.3274038932898 a70.33913652230984,70.33913652230984 0 0,0 0.24324179138006174,1.1861333603331032 l -48.41681390695692 9.495394876793284" fill="#3bff9f" stroke="none" /><path d="M 120.6074358757038 95.95851677861258 l 7.160785969956062 -1.4043569769708457 a28.297196326417858,28.297196326417858 0 0,0 0.08962702519201299,0.4787911524343857 l -7.183898719057934 1.2808877470738973" fill="#ff3b05" stroke="none" /><path d="M 120.73433829027371 96.67025291283417 l 20.469353491925343 -3.2871929266186566 a41.73162004557791,41.73162004557791 0 0,0 0.10779497355728462,0.7102341926479011 l -20.522904358921927 2.9343596215786736" fill="#fff316" stroke="none" /><path d="M 120.78858239683441 97.02765380044208 l 6.61567816534767 -0.9459079737569677 a27.682958886771257,27.682958886771257 0 0,0 0.06338606767587576,0.47229982888134 l -6.630980232081381 0.8318898028109634" fill="#ff3204" stroke="none" /><path d="M 120.83666639777658 97.38593545837742 l 6.34563633094759 -0.7960919760433526 a27.395378243619575,27.395378243619575 0 0,0 0.05467288721539318,0.4684039094919384 l -6.358399571166572 0.6867443282265615" fill="#ff2e04" stroke="none" /><path d="M 120.87857604477298 97.74499172005257 l 28.94518524130191 -3.126249234803007 a50.11352233810585,50.11352233810585 0 0,0 0.08524757429071339,0.8584314394098367 l -28.994709941274852 2.627542264688735" fill="#a5ff21" stroke="none" /><path d="M 120.94382443527127 98.46500227214037 l 6.8861004291363965 -0.5046904659273472 a27.904570340473796,27.904570340473796 0 0,0 0.03098657564836023,0.47934861029711984 l -6.893767595789173 0.38608279137719215" fill="#ff3505" stroke="none" /><path d="M 120.98425023603335 99.18683210126433 l 46.18953955090837 -1.7899067347035282 a67.22420718675298,67.22420718675298 0 0,0 0.03485512894411369,1.1566720415362273 l -46.21350637430813 0.994564545742302" fill="#37ff7b" stroke="none" /><line stroke="#e1ed5e" stroke-width="0.3" x1="184.98032266829074" x2="189.97916517819016" y1="98.17113171792111" y2="98.06355123074" /><path d="M 185.9800911702706 98.14961562048488 a86.0,86.0 0 0,1 -9.607161424134198,41.387399972396054" fill="none" id="id16" stroke="none" /><text fill="#e1ed5e" style="font-size:6.75px; font-family:Arial;" text-anchor="middle"><textPath startOffset="21.466115282336823" xlink:href="#id16">April</textPath></text><path d="M 120.99980553446 99.90962569577887 l 7.3881699826015765 -0.031795566894625815 a28.388238399638247,28.388238399638247 0 0,0 -0.002103031401169136,0.48867043390302023 l -7.3876226539109044 -0.09538434521207911" fill="#ff3c05" stroke="none" /><path d="M 120.99824983174949 100.27111621757518 l 6.71944703163185 0.0867572811072251 a27.720007086062573,27.720007086062573 0 0,0 -0.010266879880311611,0.47706156510824743 l -6.71695808906653 -0.20240866200558738" fill="#ff3204" stroke="none" /><path d="M 120.9904718944345 100.63252640178507 l 7.035319951066619 0.21200217110101194 a28.03851346055597,28.03851346055597 0 0,0 -0.018689494593838736,0.48229281056461293 l -7.030628323621577 -0.33307222867963104" fill="#ff3705" stroke="none" /><path d="M 120.95626037817324 101.35467743843564 l 6.885003995921443 0.4450679371462862 a27.89937428268172,27.89937428268172 0 0,0 -0.035104641888577454,0.4789749478018053 l -6.876322795368528 -0.5635160214448617" fill="#ff3505" stroke="none" /><path d="M 120.92983693683757 101.71520430193887 l 28.313275505923972 2.320278561954194 a49.408190059900306,49.408190059900306 0 0,0 -0.07676010228205908,0.8470413323663633 l -28.26914080736484 -2.8073012828691275" fill="#adff20" stroke="none" /><path d="M 120.8583938346157 102.4346265915055 l 60.72820359095889 7.088297425449052 a82.14048308425916,82.14048308425916 0 0,0 -0.17600941754887922,1.4029682350752535 l -60.59719266416317 -8.1325834148117" fill="#4be4ff" stroke="none" /><path d="M 120.5718875245553 104.21870165774334 l 5.601747567966107 1.1487570949933616 a26.718323065244896,26.718323065244896 0 0,0 -0.09626988563822092,0.4497408558065854 l -5.5811436436034425 -1.245011770216116" fill="#ff2403" stroke="none" /><path d="M 120.49622156327973 104.57218783832717 l 13.41440011651567 2.9924128640895296 a34.744113839573075,34.744113839573075 0 0,0 -0.13523639059481668,0.582594831217294 l -13.3609031599903 -3.2228763526553883" fill="#ff960d" stroke="none" /><path d="M 120.41448212921028 104.9243191809786 l 3.7487951516777236 0.9042729447715027 a24.856316201751113,24.856316201751113 0 0,0 -0.10390968241991025,0.41506752890902743 l -3.7326741549627522 -0.968668313077926" fill="#ff0801" stroke="none" /><path d="M 119.9155931802556 106.66101706037122 l 59.746779540766816 19.98305118111367 a84.0,84.0 0 0,0 -0.47043667622707686,1.3673091876427985 l -59.393952033596506 -21.00853307184577" fill="#4dd2ff" stroke="none" /><path d="M 119.41010516605496 108.01547362559984 l 5.404813265532683 2.231937323911698 a26.847525173365923,26.847525173365923 0 0,0 -0.1800689322896846,0.42562976443011746 l -5.3655933520506895 -2.3246416140079793" fill="#ff2603" stroke="none" /><path d="M 119.26925614724726 108.34839909993367 l 7.858366891541026 3.404634957518155 a29.564196949861838,29.564196949861838 0 0,0 -0.20632841122679818,0.46521609820665016 l -7.798597395582955 -3.539399392217493" fill="#ff4d07" stroke="none" /><path d="M 119.12269723197855 108.67885076344098 l 13.044872234290462 5.920425240024994 a35.325506156212676,35.325506156212676 0 0,0 -0.2560685099979224,0.5515487896114413 l -12.941029107452708 -6.144094096915267" fill="#ff9e0e" stroke="none" /><path d="M 118.64920377521936 109.65438752849418 l 13.299986925956594 6.885185526135457 a35.97649598403851,35.97649598403851 0 0,0 -0.2894351790171673,0.5475022822053665 l -13.179499238714534 -7.113102823426957" fill="#ffa70f" stroke="none" /><line stroke="#e1ed5e" stroke-width="0.3" x1="174.80103733775053" x2="179.2010983576182" y1="140.37084112569926" y2="142.7455964860345" /><path d="M 175.68104954172406 140.8457921977663 a86.0,86.0 0 0,1 -30.038265399797805,32.042727171017184" fill="none" id="id17" stroke="none" /><text fill="#e1ed5e" style="font-size:6.75px; font-family:Arial;" text-anchor="middle"><textPath startOffset="22.206326154141568" xlink:href="#id17">May</textPath></text><path d="M 118.48025628344425 109.97397251340804 l 15.382995461621492 8.302350982304567 a38.48043423961891,38.48043423961891 0 0,0 -0.3196140717114,0.580192378338947 l -15.237804980458584 -8.56591387904132" fill="#ffc912" stroke="none" /><path d="M 118.30583269289576 110.29060199501025 l 5.110072498281922 2.872621154561011 a26.862149199340518,26.862149199340518 0 0,0 -0.23005256726468323,0.401116042214578 l -5.059867934864859 -2.9601570426339046" fill="#ff2603" stroke="none" /><path d="M 117.94076556474637 110.91462005526583 l 42.46291893280425 25.83315772766268 a70.70363691397445,70.70363691397445 0 0,0 -0.6415020445804591,1.0343055545614581 l -42.01195224855582 -26.560259613589412" fill="#3cffa3" stroke="none" /><path d="M 117.75023020441432 111.22182372390056 l 5.983915365387857 3.7830745086575135 a28.07947002523347,28.07947002523347 0 0,0 -0.26180112713764797,0.406321163158165 l -5.917909374873159 -3.885517271737131" fill="#ff3805" stroke="none" /><path d="M 117.55443506779139 111.5257021239791 l 7.198041732580193 4.726012803334701 a29.61086533405613,29.61086533405613 0 0,0 -0.2834139037260292,0.42366533196699074 l -7.115624723443442 -4.849215049507499" fill="#ff4e07" stroke="none" /><path d="M 117.35343817320211 111.8261652097733 l 7.703818087947009 5.250061949959389 a30.322658612788032,30.322658612788032 0 0,0 -0.29765168280344584,0.4287894489898778 l -7.612305497981427 -5.381892661136286" fill="#ff5808" stroke="none" /><path d="M 116.93607887273984 112.41649034213515 l 11.626822028514365 8.524070093883434 a35.41675280526738,35.41675280526738 0 0,0 -0.3646892268754316,0.4885608160613475 l -11.478371534943841 -8.722943789454096" fill="#ffa00e" stroke="none" /><path d="M 116.498646956653 112.99209946851258 l 14.163972773925412 11.15362633260892 a39.028352811834125,39.028352811834125 0 0,0 -0.42017197584567956,0.5242291442622113 l -13.969882886024878 -11.39578331044938" fill="#ffd013" stroke="none" /><path d="M 116.0416608686014 113.55231037782055 l 11.33528572858262 9.576272162423843 a35.83892486258431,35.83892486258431 0 0,0 -0.4021767187046686,0.46782238315541175 l -11.168766500307173 -9.769971644740783" fill="#ffa50f" stroke="none" /><path d="M 115.80600337817218 113.82643327865902 l 21.439433138095954 18.754322944503542 a49.4846260707354,49.4846260707354 0 0,0 -0.5663424740267798,0.6362917733244329 l -21.113431814420835 -19.120588887568843" fill="#acff20" stroke="none" /><path d="M 115.56566222782051 114.09645910891815 l 4.269255387456337 3.8662912707462316 a26.75975257746142,26.75975257746142 0 0,0 -0.3121379769045196,0.33876412593070787 l -4.202071002556095 -3.9392066514782744" fill="#ff2403" stroke="none" /><path d="M 114.81725581225074 114.88116024355365 l 16.719164535461275 16.791271591925476 a44.6955114829292,44.6955114829292 0 0,0 -0.5498613104858568,0.5381550227753166 l -16.427653272599624 -17.076576717623364" fill="#e6ff1a" stroke="none" /><path d="M 114.29624159901734 115.38237550388516 l 3.9265105302492493 4.224820836855803 a26.767720177651583,26.767720177651583 0 0,0 -0.34020555119810114,0.31076970482370153 l -3.853205429584284 -4.291783308266087" fill="#ff2403" stroke="none" /><path d="M 114.0293411484842 115.62618273729858 l 3.797817049027819 4.230090535459584 a26.684811366797593,26.684811366797593 0 0,0 -0.344434389629319,0.303923302148084 l -3.7244403064919123 -4.294836979379957" fill="#ff2303" stroke="none" /><path d="M 113.75828350139079 115.86535959552629 l 9.14248296725586 10.542650895137157 a34.95465810055194,34.95465810055194 0 0,0 -0.4579634856146482,0.3902864177464441 l -8.959654005064166 -10.698461703106549" fill="#ff990e" stroke="none" /><path d="M 113.48314897796784 116.09983520530334 l 5.497753155644487 6.564706801797364 a29.562748691510425,29.562748691510425 0 0,0 -0.39294505914890027,0.3233670321161194 l -5.383937967950896 -6.658368952770662" fill="#ff4d07" stroke="none" /><path d="M 113.20401910651253 116.32954008644616 l 8.613738379564388 10.652694836974334 a34.699503500538995,34.699503500538995 0 0,0 -0.4676873558216957,0.37155912086341114 l -8.429093531025343 -10.799387871842871" fill="#ff960d" stroke="none" /><path d="M 112.34349029814194 116.9893568818739 l 12.023496990588402 16.548923878685436 a41.455594868524685,41.455594868524685 0 0,0 -0.5809166036940394,0.41446857244324264 l -11.73685305904548 -16.7534367129729" fill="#ffef16" stroke="none" /><path d="M 112.04921762599082 117.19931262002967 l 3.344739433190538 4.774353068359853 a26.829384967326906,26.829384967326906 0 0,0 -0.3805213143962204,0.2617260298203143 l -3.262061234171434 -4.831219887545262" fill="#ff2503" stroke="none" /><path d="M 111.45004920935366 117.60387380957326 l 12.440534275873524 19.12669469902746 a43.81660235834838,43.81660235834838 0 0,0 -0.6357960052886732,0.40579509222206805 l -12.10945646853792 -19.338004220073337" fill="#f1ff19" stroke="none" /><line stroke="#e1ed5e" stroke-width="0.3" x1="143.8653032363475" x2="146.44561519142675" y1="172.8068346515853" y2="177.08958963109032" /><path d="M 144.38136562736335 173.6633856474863 a86.0,86.0 0 0,1 -40.68145358897372,12.25698825130547" fill="none" id="id18" stroke="none" /><text fill="#e1ed5e" style="font-size:6.75px; font-family:Arial;" text-anchor="middle"><textPath startOffset="21.466115282336833" xlink:href="#id18">June</textPath></text><path d="M 110.8373102113329 117.98757091392108 l 1.7257834919358312 2.864424136425277 a24.344137301962036,24.344137301962036 0 0,0 -0.3607941752603344,0.2131635582553223 l -1.6762214456471147 -2.8937062669743487" fill="#ff0000" stroke="none" /><path d="M 110.5260780823613 118.17145234162733 l 3.008683217961163 5.193970943256648 a27.002458568406407,27.002458568406407 0 0,0 -0.404202673673228,0.2295168271534406 l -2.918831777366736 -5.244990936204717" fill="#ff2803" stroke="none" /><path d="M 110.21172684928248 118.3499491758327 l 13.976779844795152 25.115556220720347 a49.742678008599626,49.742678008599626 0 0,0 -0.7517710131663121,0.4099254969472309 l -13.54238601976019 -25.352422369427348" fill="#a9ff21" stroke="none" /><path d="M 109.89434966115114 118.52300852407294 l 8.190412876670935 15.333103511181337 a38.383524567099116,38.383524567099116 0 0,0 -0.5854567672352191,0.3062833102218351 l -7.925265206909221 -15.471816240347888" fill="#ffc712" stroke="none" /><path d="M 109.57404056367764 118.69057910512821 l 2.710454641083863 5.291388368693107 a26.945195979083763,26.945195979083763 0 0,0 -0.414630227969672,0.20790420388633019 l -2.6189705054314305 -5.337260413488739" fill="#ff2703" stroke="none" /><path d="M 109.2508944713604 118.85261126421891 l 11.794686404754502 24.03666353135958 a47.77453680470107,47.77453680470107 0 0,0 -0.7413864922289866,0.3559105702528503 l -11.379187244525284 -24.23612837811199" fill="#c1ff1e" stroke="none" /><path d="M 108.59647513512805 119.15986991738527 l 2.7039163937052684 6.026503369872979 a27.60529384140013,27.60529384140013 0 0,0 -0.43521628861358186,0.19078603110045003 l -2.599779430433933 -6.0721539542678835" fill="#ff3104" stroke="none" /><path d="M 108.2653958097858 119.30500536409082 l 4.342922246989396 10.143511478869197 a32.034119754894206,32.034119754894206 0 0,0 -0.508775867053972,0.2126683536915049 l -4.167674920437962 -10.216764875580674" fill="#ff710a" stroke="none" /><path d="M 107.59598834532513 119.57807347666477 l 9.802094948345417 25.264142913286303 a48.09904025088957,48.09904025088957 0 0,0 -0.7744627553179023,0.2928355459175156 l -9.36576197226724 -25.42912670931045" fill="#bdff1f" stroke="none" /><path d="M 106.91757812671514 119.82793768551818 l 3.766390826472027 10.795651489382877 a32.43380037161518,32.43380037161518 0 0,0 -0.5287176925274139,0.17936974755723495 l -3.5800034010073865 -10.858884223838235" fill="#ff760a" stroke="none" /><path d="M 104.13013068566511 120.58985236759428 l 2.2531332371896085 11.23249704404523 a32.45624717038758,32.45624717038758 0 0,0 -0.5487151835691939,0.10516257088417974 l -2.05945043904871 -11.269616813277878" fill="#ff770a" stroke="none" /><path d="M 103.7750983002368 120.6578951692458 l 7.524563791926928 41.17552382627451 a62.85741060585183,62.85741060585183 0 0,0 -1.0660348303751337,0.18534381977157752 l -6.814679990079744 -41.29894622456709" fill="#32ff46" stroke="none" /><path d="M 103.06178313531738 120.77559828337769 l 0.8512308934985091 5.775990757063372 a26.838378478629814,26.838378478629814 0 0,0 -0.45762171390971557,0.06342219968933278 l -0.7516805884019631 -5.789787522245308" fill="#ff2503" stroke="none" /><path d="M 101.26447882468166 120.96189622390904 l 0.836704734317393 13.870471745725009 a34.895684987124056,34.895684987124056 0 0,0 -0.5998932686303046,0.031007629763098343 l -0.5978233972736088 -13.882819182250309" fill="#ff980e" stroke="none" /><path d="M 100.90346689309514 120.98055641714683 l 0.8168879121439941 18.96999553410033 a39.987575843819386,39.987575843819386 0 0,0 -0.6879379684875351,0.023693974603643215 l -0.49022959198180677 -18.981246307130068" fill="#ffdc14" stroke="none" /><line stroke="#e1ed5e" stroke-width="0.3" x1="102.19456741930631" x2="102.32365962044197" y1="184.97166512339345" y2="189.96999836594603" /><path d="M 102.22038585953345 185.97133177190398 a86.0,86.0 0 0,1 -42.740103519485714,-10.115201625700543" fill="none" id="id19" stroke="none" /><text fill="#e1ed5e" style="font-size:6.75px; font-family:Arial;" text-anchor="middle"><textPath startOffset="22.20632615414155" xlink:href="#id19">July</textPath></text><path d="M 99.81925306533755 120.99922214144158 l -0.12794784626691566 14.865011411096345 a35.86556204465169,35.86556204465169 0 0,0 -0.617298088932984,-0.01062734641516924 l 0.3838056250925676 -14.860606587402017" fill="#ffa60f" stroke="none" /><path d="M 98.37488393609728 120.93702456842531 l -0.5544863725316311 7.143671189042373 a28.165158281188027,28.165158281188027 0 0,0 -0.48304008555613054,-0.041678731108462534 l 0.6773707758293033 -7.133068205655247" fill="#ff3905" stroke="none" /><path d="M 98.01472825383883 120.90594882070398 l -0.8025084613530931 8.450833420498185 a29.48885182645759,29.48885182645759 0 0,0 -0.5049157085867506,-0.05233657767078895 l 0.9478567665454369 -8.435767474371636" fill="#ff4c07" stroke="none" /><path d="M 93.76903079525671 120.05430185196036 l -3.4792110911259626 11.197800395966327 a32.725853637348436,32.725853637348436 0 0,0 -0.5365148986198608,-0.17177512795600025 l 3.6714473348367638 -11.13625242135062" fill="#ff7a0b" stroke="none" /><path d="M 92.40401165467489 119.57807347666478 l -6.398810060543779 16.492438881327164 a38.69026032723171,38.69026032723171 0 0,0 -0.618821095541475,-0.24624168492787094 l 6.681752232127112 -16.379850351993227" fill="#ffcc13" stroke="none" /><line stroke="#e1ed5e" stroke-width="0.3" x1="58.666819895761336" x2="56.23545636021788" y1="174.27360380694188" y2="178.64263932499728" /><path d="M 58.180547188652646 175.14741091055294 a86.0,86.0 0 0,1 -31.652253787137756,-30.449443065178592" fill="none" id="id20" stroke="none" /><text fill="#e1ed5e" style="font-size:6.75px; font-family:Arial;" text-anchor="middle"><textPath startOffset="22.20632615414155" xlink:href="#id20">August</textPath></text><path d="M 88.54995079064634 117.60387380957326 l -3.9130627518026886 6.016136842049818 a28.176765469333297,28.176765469333297 0 0,0 -0.4043034449323951,-0.26795027730817456 l 4.0160408954750455 -5.947888543650325" fill="#ff3905" stroke="none" /><path d="M 85.97065885151581 115.62618273729859 l -7.639077260908259 8.508569002628619 a32.434651191471396,32.434651191471396 0 0,0 -0.4122296674232922,-0.376562027320098 l 7.784406477798406 -8.375814208721945" fill="#ff760a" stroke="none" /><path d="M 83.06392112726016 112.41649034213515 l -9.23384693266808 6.769688079616246 a32.449567933823616,32.449567933823616 0 0,0 -0.3263811655382883,-0.4533148928292473 l 9.349007890581975 -6.609739581335861" fill="#ff770a" stroke="none" /><line stroke="#e1ed5e" stroke-width="0.3" x1="26.63291911575756" x2="22.317208475507996" y1="142.92168965132927" y2="145.44649492493687" /><path d="M 25.769776987707644 143.4266507060508 a86.0,86.0 0 0,1 -11.730757126820373,-40.83630448921669" fill="none" id="id21" stroke="none" /><text fill="#e1ed5e" style="font-size:6.75px; font-family:Arial;" text-anchor="middle"><textPath startOffset="21.46611528233685" xlink:href="#id21">September</textPath></text><path d="M 80.32549172779594 107.34259656027581 l -7.641950188987722 2.8520030282400723 a29.156796182574382,29.156796182574382 0 0,0 -0.17143604549349636,-0.4717183683463467 l 7.689910495486442 -2.720036862887609" fill="#ff4706" stroke="none" /><path d="M 79.97269907076064 106.31721596034903 l -10.647047205668548 3.3584004542539936 a32.164159968885606,32.164159968885606 0 0,0 -0.16200509569229296,-0.52944202627452 l 10.703279073866971 -3.1746314554274258" fill="#ff730a" stroke="none" /><path d="M 79.58551787078972 104.9243191809786 l -13.882319135993237 3.3486507257523206 a35.28048480537848,35.28048480537848 0 0,0 -0.13732413627082307,-0.5915887849481499 l 13.937903838194616 -3.109193283455596" fill="#ff9e0e" stroke="none" /><line stroke="#e1ed5e" stroke-width="0.3" x1="15.007084014347285" x2="10.007500721073583" y1="101.09737516637583" y2="101.16192664675087" /><path d="M 14.007167355692545 101.11028546245083 a86.0,86.0 0 0,1 10.666146001902534,-42.60595125391555" fill="none" id="id22" stroke="none" /><text fill="#e1ed5e" style="font-size:6.75px; font-family:Arial;" text-anchor="middle"><textPath startOffset="22.20632615414155" xlink:href="#id22">October</textPath></text><path d="M 80.65960295795068 91.81776055985345 l -21.22717938799503 -8.980470463656767 a44.04868747930634,44.04868747930634 0 0,0 0.30143836238155763,-0.6957613007963556 l 21.069450315770794 9.344530909039722" fill="#eeff19" stroke="none" /><path d="M 81.43458229118936 90.18545643968196 l -20.130848484338603 -10.642103100214113 a43.77071406642718,43.77071406642718 0 0,0 0.3578608141252217,-0.6630617389355866 l 19.94467957099491 10.987045822482173" fill="#f1ff19" stroke="none" /><path d="M 81.6062741919709 89.86733742301443 l -12.623247774465574 -6.953844569571138 a35.4118818574572,35.4118818574572 0 0,0 0.29871163230970244,-0.5313746627393331 l 12.501678500863441 7.1701027422452555" fill="#ffa00e" stroke="none" /><line stroke="#e1ed5e" stroke-width="0.3" x1="26.266209847984243" x2="21.928928074336255" y1="57.711370442889674" y2="55.22380399835377" /><path d="M 25.398753493254645 57.213857153982495 a86.0,86.0 0 0,1 29.58750427330803,-30.492523968695096" fill="none" id="id23" stroke="none" /><text fill="#e1ed5e" style="font-size:6.75px; font-family:Arial;" text-anchor="middle"><textPath startOffset="21.46611528233685" xlink:href="#id23">November</textPath></text><path d="M 82.34701348167596 88.62581576622439 l -24.607288187891275 -15.854984597204453 a50.27284011741129,50.27284011741129 0 0,0 0.47496669663846325,-0.7234068645724074 l 24.330724855894893 16.276209525754528" fill="#a3ff21" stroke="none" /><path d="M 83.17141714833178 87.43820079747576 l -6.862367395669423 -5.122456361190456 a29.56338983378938,29.56338983378938 0 0,0 0.3079154592944629,-0.40518065098707956 l 6.773175996150852 5.239821788058562" fill="#ff4d07" stroke="none" /><path d="M 83.84228863543731 86.58626213691792 l -4.359257636973212 -3.6189493611232044 a26.665679272945418,26.665679272945418 0 0,0 0.2962295218349783,-0.35064231825163145 l 4.29631750165111 3.693450629003952" fill="#ff2303" stroke="none" /><path d="M 84.31358615837235 86.03803664274999 l -26.76005176630378 -23.818245901924964 a56.82470109267938,56.82470109267938 0 0,0 0.656613099534811,-0.7250485843820978 l 26.346095026152923 24.275347273576617" fill="#5bff2a" stroke="none" /><path d="M 85.57189188830299 84.74124197986013 l -9.98279248850684 -10.557518266993322 a35.529877419527196,35.529877419527196 0 0,0 0.4480014966869506,-0.4163685662035991 l 9.799583108025034 10.727791419271568" fill="#ffa10e" stroke="none" /><path d="M 87.80319425747018 82.90503203632743 l -8.388894571304622 -11.75782307059471 a35.44368219976725,35.44368219976725 0 0,0 0.499703361802095,-0.3500741388804559 l 8.185260069918867 11.90048205223911" fill="#ffa00e" stroke="none" /><line stroke="#e1ed5e" stroke-width="0.3" x1="56.762969772571076" x2="54.21961505331055" y1="26.818313649435495" y2="22.513508569990535" /><path d="M 56.25429882871897 25.957352633546506 a86.0,86.0 0 0,1 42.265352541879196,-11.944610805530505" fill="none" id="id24" stroke="none" /><text fill="#e1ed5e" style="font-size:6.75px; font-family:Arial;" text-anchor="middle"><textPath startOffset="22.20632615414155" xlink:href="#id24">December</textPath></text><path d="M 89.63071344664047 81.73862282372117 l -3.4076900670349537 -6.001291727618685 a27.901293646335674,27.901293646335674 0 0,0 0.41968316888593465,-0.2335532291036983 l 3.303882809076973 6.059060354282567" fill="#ff3505" stroke="none" /><path d="M 90.26544431104013 81.39251694778311 l -6.627381674215417 -12.668158272841794 a35.297007444968905,35.297007444968905 0 0,0 0.5407829507104797,-0.277010031477668 l 6.408338235916173 12.780360829631967" fill="#ff9e0e" stroke="none" /><path d="M 90.58718382345135 81.22770947309562 l -6.501248969280229 -12.9656557771869 a35.50429136128571,35.50429136128571 0 0,0 0.5486744138652728,-0.2692321520168711 l 6.27710328840453 13.0756430893386" fill="#ffa10e" stroke="none" /><path d="M 97.83486435360386 79.11191278185805 l -0.8148469846853745 -7.861214106321124 a28.903332387915434,28.903332387915434 0 0,0 0.49531347951284393,-0.047035983145416974 l 0.6794083780822943 7.874075633981722" fill="#ff4406" stroke="none" /><path d="M 99.27714615592234 79.0124445844662 l -0.24719676956956038 -7.177185183959116 a28.18144090052462,28.18144090052462 0 0,0 0.4849534344418686,-0.012524916459638274 l 0.12361669993281274 7.180376892561114" fill="#ff3905" stroke="none" /></svg>