<?xml version="1.0" encoding="utf-8" ?>
<svg baseProfile="full" height="200mm" version="1.1" viewBox="0,0,200,200" width="200mm" xmlns="http://www.w3.org/2000/svg" xmlns:ev="http://www.w3.org/2001/xml-events" xmlns:xlink="http://www.w3.org/1999/xlink"><defs /><rect fill="#1a1a1a" height="200" width="200" x="0" y="0" /><text alignment-baseline="middle" fill="#e1ed5e" style="dominant-baseline: central; font-size:9.0px; font-family:Arial;" text-anchor="middle" x="100.0" y="100.0">2024</text><line stroke="#e1ed5e" stroke-width="0.3" x1="100.0" x2="100.0" y1="15.0" y2="10.0" /><path d="M 100.0 14.0 a86.0,86.0 0 0,1 42.35913384403234,11.155469271406648" fill="none" id="id145" stroke="none" /><text fill="#e1ed5e" style="font-size:6.75px; font-family:Arial;" text-anchor="middle"><textPath startOffset="22.145653131862478" xlink:href="#id145">January</textPath></text><path d="M 100.0 79.0 l 0.0 -12.73150602710949 a33.73150602710949,33.73150602710949 0 0,0 0.5790461555842606,0.004970414825993234 l -0.21855323073540586 12.729630010477932" fill="#ff6f0a" stroke="none" /><path d="M 100.36049292484886 79.00309439819443 l 0.3431922215330704 -19.989226367827047 a40.9921722602911,40.9921722602911 0 0,0 0.7034777671394093,0.018119091874079167 l -0.6862833027432211 19.980389558602923" fill="#ffd513" stroke="none" /><path d="M 100.72087961077811 79.0123766808444 l 0.5983953393924659 -17.421627399825265 a38.43190116540789,38.43190116540789 0 0,0 0.6591514652816487,0.028306800073389305 l -0.8973725652749509 17.408788031326043" fill="#ffb210" stroke="none" /><path d="M 101.08105385017728 79.02784411241856 l 1.2782530394733573 -24.797767477738475 a45.83069074175962,45.83069074175962 0 0,0 0.7853539480520317,0.04724494330891938 l -1.7037513396578514 24.772170556604863" fill="#e9ff1a" stroke="none" /><path d="M 101.44090949804482 79.04949213459386 l 1.0552591842330905 -15.343236941193247 a36.379482818986645,36.379482818986645 0 0,0 0.6226625751993091,0.048198021313775666 l -1.3184907542076332 15.322861152884418" fill="#ff950d" stroke="none" /><path d="M 101.80034050326958 79.07731436759882 l 1.3800839570404446 -16.038667533745844 a37.09793427699695,37.09793427699695 0 0,0 0.634022133787062,0.060042555259961834 l -1.6552056542125195 16.012613222980697" fill="#ff9f0e" stroke="none" /><path d="M 102.15924093988457 79.11130261209362 l 1.494987881276053 -14.462651607667377 a35.53971389986495,35.53971389986495 0 0,0 0.6063144551286072,0.0679387993480912 l -1.743038238005457 14.434857047812315" fill="#ff890c" stroke="none" /><path d="M 102.51750503828377 79.15144685158666 l 2.0849092017898037 -17.266039051410683 a38.39146201170409,38.39146201170409 0 0,0 0.6536094818676845,0.08462283314547032 l -2.38099650554828 17.227704622064817" fill="#ffb210" stroke="none" /><path d="M 102.87502721639298 79.19773525538626 l 2.6481081473454076 -19.16039140059331 a40.34251988195869,40.34251988195869 0 0,0 0.6851982865913144,0.10070055203003672 l -2.976631539544404 19.11210977526439" fill="#ffcc13" stroke="none" /><path d="M 103.23170211078529 79.25015418208739 l 3.191210869913407 -20.489863005058766 a41.736882909018156,41.736882909018156 0 0,0 0.7069880096751221,0.11633460795155152 l -3.5424763826415995 20.432062398611546" fill="#ffdf14" stroke="none" /><path d="M 103.58742460773223 79.30868818359171 l 2.2024630294407657 -12.703221472040392 a33.89273745811034,33.89273745811034 0 0,0 0.5724084172030899,0.10431188154202216 l -2.420206180194909 12.663541416567003" fill="#ff710a" stroke="none" /><path d="M 103.94208987418118 79.37332000966035 l 3.2080129171673946 -16.78567915984726 a38.089481318461466,38.089481318461466 0 0,0 0.6411793100180518,0.12825381927748408 l -3.495688712716403 16.728135943906917" fill="#ffad10" stroke="none" /><path d="M 104.29559338865022 79.4440306129975 l 5.70493389947156 -27.300173918290618 a48.889886460261096,48.889886460261096 0 0,0 0.8200407361203469,0.17872406169344238 l -6.172737052211041 27.198218398463457" fill="#c2ff1e" stroke="none" /><path d="M 104.64783097203109 79.52079915486377 l 3.722588773827527 -16.402413001208753 a37.81953683789327,37.81953683789327 0 0,0 0.6318885446126996,0.14912397598529153 l -4.003609472180112 16.336092881577233" fill="#ffaa0f" stroke="none" /><path d="M 104.9986988182912 79.60360301121754 l 2.1290661625148153 -8.687316488669888 a29.94440554193968,29.94440554193968 0 0,0 0.4982103235174233,0.12664311600181422 l -2.277881779257633 8.649488140832807" fill="#ff3605" stroke="none" /><path d="M 105.3480935250658 79.69241777938227 l 5.061067848459211 -19.217698975345744 a40.872955534437054,40.872955534437054 0 0,0 0.6769701968403091,0.18451123750157558 l -5.390219446234213 19.127987243700026" fill="#ffd413" stroke="none" /><path d="M 105.69591212413111 79.78721728523813 l 4.490947370016544 -15.936787891969626 a37.55747011454009,37.55747011454009 0 0,0 0.6190543924011984,0.18019771143260585 l -4.763861774799347 15.857346486234503" fill="#ffa60f" stroke="none" /><path d="M 106.04205211174951 79.88797359093562 l 3.7575078743278887 -12.507521650432754 a34.05974591106887,34.05974591106887 0 0,0 0.5585139307851791,0.1730290434395924 l -3.971662437984698 12.441176019186514" fill="#ff740a" stroke="none" /><path d="M 106.38641147887787 79.99465700312896 l 7.469446947248577 -23.3979361760283 a45.56127144500575,45.56127144500575 0 0,0 0.743033310179698,0.24424980757291112 l -7.8700029950760175 23.266265447053367" fill="#ecff1a" stroke="none" /><path d="M 106.72888874123014 80.10723608172694 l 5.590466985254996 -16.527222281022087 a38.44713149602361,38.44713149602361 0 0,0 0.6233822074201056,0.21684469131574047 l -5.87335496472012 16.428819157137756" fill="#ffb210" stroke="none" /><path d="M 107.06938296918511 80.22567764915836 l 2.6538915558054756 -7.42340701266653 a28.883534236982943,28.883534236982943 0 0,0 0.4654524440173587,0.170920584631304 l -2.780933151476959 7.376755579026504" fill="#ff2603" stroke="none" /><path d="M 107.40779381753099 80.34994680014964 l 2.711275509417448 -7.191980407637927 a28.68606512279298,28.68606512279298 0 0,0 0.45928813210476477,0.17766251613095116 l -2.834335904015738 7.144378003368938" fill="#ff2303" stroke="none" /><path d="M 107.74402155503746 80.48000691201159 l 6.1447085454466235 -15.488679555236738 a37.66303206122143,37.66303206122143 0 0,0 0.5989238826136349,0.24357712903697637 l -6.409686889250699 15.380915169620467" fill="#ffa70f" stroke="none" /><path d="M 108.07796709384702 80.6158196554323 l 6.643019855623761 -15.94082934703195 a38.26961936677837,38.26961936677837 0 0,0 0.6042315937429584,0.25791053753736476 l -6.91568652453715 15.824444159835185" fill="#ffb010" stroke="none" /><path d="M 108.4095320186766 80.7573450057729 l 2.904407472063317 -6.645852685196727 a28.25278847596659,28.25278847596659 0 0,0 0.4427435247331177,0.19803354714283922 l -3.0180643996520664 6.595015387144034" fill="#ff1d02" stroke="none" /><path d="M 108.73861861582097 80.90454125486305 l 6.455947895012431 -14.10741126369456 a36.514455059270745,36.514455059270745 0 0,0 0.5677324611277914,0.26572745830029293 l -6.697169070011728 13.994507573823734" fill="#ff970d" stroke="none" /><path d="M 109.06512990194946 81.05736502329252 l 2.5101064941325566 -5.2451571665609285 a26.81483519231731,26.81483519231731 0 0,0 0.4135099783218471,0.20226845164647833 l -2.5997767217164705 5.201294964817229" fill="#ff0601" stroke="none" /><path d="M 109.3889696526874 81.21577127319529 l 7.686857888261568 -15.378864998484609 a38.19294252988546,38.19294252988546 0 0,0 0.5839387699525685,0.29816329666624564 l -7.949723879927716 15.24464375014553" fill="#ffaf10" stroke="none" /><path d="M 109.71004243097381 81.37971332152246 l 5.286783718419719 -10.138104868632386 a32.43377682188766,32.43377682188766 0 0,0 0.49146621576225286,0.2616780779487083 l -5.460038749968532 10.045856322961104" fill="#ff5c08" stroke="none" /><line stroke="#e1ed5e" stroke-width="0.3" x1="143.13028292997686" x2="145.6673583964461" y1="26.7553504044142" y2="22.446841604673864" /><path d="M 143.63769802327073 25.89364864446614 a86.0,86.0 0 0,1 29.32050498858742,28.57503671076993" fill="none" id="id146" stroke="none" /><text fill="#e1ed5e" style="font-size:6.75px; font-family:Arial;" text-anchor="middle"><textPath startOffset="20.669276256404974" xlink:href="#id146">February</textPath></text><path d="M 110.65571695917076 81.90426304109057 l 4.0330020622240355 -6.848919200123429 a28.948131846146154,28.948131846146154 0 0,0 0.42604377678573063,0.25582704672785556 l -4.1499785955672 6.778678152859653" fill="#ff2703" stroke="none" /><path d="M 110.96478420261332 82.08984904055464 l 5.842985589688509 -9.544077843341713 a32.19061671585055,32.19061671585055 0 0,0 0.4688116813375522,0.29257316231666886 l -6.005961399815774 9.4423688841835" fill="#ff5808" stroke="none" /><path d="M 111.27062007382361 82.28071324371311 l 3.7823350865462673 -5.946458985210172 a28.047441604561598,28.047441604561598 0 0,0 0.40403590780059334,0.26189119401299216 l -3.8838566266038677 5.8806539494932855" fill="#ff1902" stroke="none" /><path d="M 111.5731344415666 82.4767994020092 l 3.2621617138722847 -4.939328613513586 a26.91934677136998,26.91934677136998 0 0,0 0.3834131686343225,0.25797749104322165 l -3.3464711706036083 4.882601448413245" fill="#ff0801" stroke="none" /><path d="M 111.8722381534696 82.67804972795209 l 7.963419684744864 -11.61886730972333 a35.0859550842795,35.0859550842795 0 0,0 0.4938847882747603,0.34476993924140703 l -8.161699564193386 11.480452554676795" fill="#ff830c" stroke="none" /><path d="M 112.16784306229584 82.88440491214696 l 4.853321887674595 -6.826805033165812 a29.37615665482919,29.37615665482919 0 0,0 0.40849502787806,0.2957188979454576 l -4.969797925926623 6.74248536384728" fill="#ff2e04" stroke="none" /><path d="M 112.45986205192187 83.09580414077388 l 8.438591612766873 -11.448570201162966 a35.2225028760066,35.2225028760066 0 0,0 0.48363349654183047,0.3629275921193496 l -8.63387809821947 11.3020235817796" fill="#ff850c" stroke="none" /><path d="M 114.13192950727249 84.46653392183569 l 6.592025938319575 -7.245791259188732 a30.795728504976744,30.795728504976744 0 0,0 0.3879825206245117,0.3591108288473416 l -6.715438230258052 7.131562684209016" fill="#ff4306" stroke="none" /><path d="M 117.81537515405839 88.88188828441811 l 7.358989431790684 -4.5925536739425326 a29.67446106137148,29.67446106137148 0 0,0 0.26598496234623126,0.4344664464466135 l -7.436742358592318 4.465550111371365" fill="#ff3204" stroke="none" /><line stroke="#e1ed5e" stroke-width="0.3" x1="172.87174338648825" x2="177.1583165268699" y1="56.24261187166439" y2="53.66864786411523" /><path d="M 173.72905801456457 55.72781907015455 a86.0,86.0 0 0,1 12.242430191666344,42.057860355516425" fill="none" id="id147" stroke="none" /><text fill="#e1ed5e" style="font-size:6.75px; font-family:Arial;" text-anchor="middle"><textPath startOffset="22.145653131862474" xlink:href="#id147">March</textPath></text><path d="M 118.00360718960297 89.18935116829356 l 6.596129778614605 -3.960786409855935 a28.693942880008002,28.693942880008002 0 0,0 0.24994650060896342,0.42446380155837665 l -6.663149989353337 3.846971440004002" fill="#ff2303" stroke="none" /><path d="M 118.18653347947321 89.5 l 5.270483418199761 -3.042915020257092 a27.085830040514182,27.085830040514182 0 0,0 0.2290256998046205,0.40466646673605977 l -5.321942483025757 2.9519917834219136" fill="#ff0a01" stroke="none" /><path d="M 118.36410011445183 89.81374322990088 l 9.665194990962808 -5.361120735425798 a32.05249337268044,32.05249337268044 0 0,0 0.2627612281204948,0.4834510643278019 l -9.755801568698644 5.194414837623393" fill="#ff5608" stroke="none" /><path d="M 118.53625476483649 90.13048839642627 l 4.906410254364764 -2.6123871057926347 a26.558545490921823,26.558545490921823 0 0,0 0.21081405871897796,0.4042637544692024 l -4.950532382058687 2.527777108218934" fill="#ff0200" stroke="none" /><path d="M 118.70294669586156 90.45014215332178 l 9.996483188714878 -5.104275543920547 a32.22422847996799,32.22422847996799 0 0,0 0.24732875919457417,0.4948231973566899 l -10.082631861121188 4.931920490400107" fill="#ff5908" stroke="none" /><path d="M 118.8641267826498 90.77261029715802 l 5.581490620855545 -2.730186754722236 a27.213449707397587,27.213449707397587 0 0,0 0.20166558271122995,0.421403505739322 l -5.627535461526687 2.6339707469178104" fill="#ff0c01" stroke="none" /><path d="M 119.0197475246899 91.09779779509293 l 10.35084094144893 -4.844716205196391 a32.42852498374431,32.42852498374431 0 0,0 0.2316563109237018,0.506210846676084 l -10.432481717227683 4.666316376305622" fill="#ff5c08" stroke="none" /><path d="M 119.16976305983485 91.42560881287824 l 6.614924991236962 -2.9587718101311964 a28.246486270194566,28.246486270194566 0 0,0 0.19418264616613984,0.44432789574290293 l -6.6647415194200725 2.844781844612444" fill="#ff1c02" stroke="none" /><path d="M 119.4528033332814 92.08871423366111 l 5.026418347408177 -2.044200583649612 a26.4261991697094,26.4261991697094 0 0,0 0.16729209205858428,0.4216853552705402 l -5.060769114432887 1.9576142111655066" fill="#ff0000" stroke="none" /><path d="M 119.58574465831526 92.42381321644754 l 10.46832728548777 -4.049373879309835 a32.22422847996799,32.22422847996799 0 0,0 0.19513967144784555,0.5176311625030479 l -10.536297640750057 3.869074436612629" fill="#ff5908" stroke="none" /><path d="M 119.83427380445688 93.10060997987247 l 13.929527258959594 -4.8454126580608525 a35.748211874155956,35.748211874155956 0 0,0 0.19663998210404293,0.5813311664555786 l -14.010652662636002 4.605579817131112" fill="#ff8c0c" stroke="none" /><path d="M 119.94978838288452 93.4421083053983 l 12.300856114140402 -4.0435357307658855 a33.948406942429855,33.948406942429855 0 0,0 0.17723539257345872,0.5551873428988909 l -12.368456222491117 3.8317793541756076" fill="#ff720a" stroke="none" /><path d="M 120.05942366710727 93.78553927170692 l 6.617914195380361 -2.050246734548149 a27.92822487870755,27.92822487870755 0 0,0 0.13794372667551408,0.45916980233713073 l -6.652134242059502 1.9363393286202946" fill="#ff1702" stroke="none" /><path d="M 120.16314734710363 94.1308016681162 l 5.305772930181176 -1.544433172812518 a26.525984094433053,26.525984094433053 0 0,0 0.12351193923615791,0.4383002995925227 l -5.331503361491916 1.4531249493169822" fill="#ff0200" stroke="none" /><path d="M 120.26092885502905 94.47779374421319 l 10.321490541112938 -2.813168144610048 a31.697994298004303,31.697994298004303 0 0,0 0.1385813959023083,0.5262161325982937 l -10.368261417819976 2.635571507638956" fill="#ff5107" stroke="none" /><path d="M 120.35273937422433 94.82641323984039 l 5.879420109830069 -1.4945256006253103 a27.066398239383783,27.066398239383783 0 0,0 0.11060164672460111,0.45129246154085456 l -5.904209283070961 1.3933773144763608" fill="#ff0a01" stroke="none" /><path d="M 120.43855184770803 95.1765574152323 l 12.597111746280314 -2.972884071965191 a33.943155104286504,33.943155104286504 0 0,0 0.128966433418358,0.5682499015452107 l -12.646289041256338 2.7561998364809543" fill="#ff720a" stroke="none" /><path d="M 120.51834098615036 95.52812308129327 l 10.642997809076794 -2.3195918364151535 a31.89283749312259,31.89283749312259 0 0,0 0.11199289738330107,0.5359265558643336 l -10.681248417284463 2.1365488292654153" fill="#ff5407" stroke="none" /><path d="M 120.592083275326 95.88100663000786 l 13.679475517493238 -2.7362782195543724 a34.950457660181065,34.950457660181065 0 0,0 0.11262985982380684,0.5893270194467551 l -13.724431669599202 2.501048635074303" fill="#ff810b" stroke="none" /><path d="M 120.65975698304385 96.23510406497455 l 5.357917268898231 -0.9763910080081512 a26.44615615465413,26.44615615465413 0 0,0 0.07755673111491644,0.44732661517157596 l -5.3738888175053825 0.8842713599159826" fill="#ff0000" stroke="none" /><path d="M 120.7213421655516 96.59031103205396 l 10.552928821569877 -1.7364804217289367 a31.694843195118295,31.694843195118295 0 0,0 0.083732505113182,0.5376227484729036 l -10.581182818821325 1.555069491324592" fill="#ff5107" stroke="none" /><path d="M 120.77682067341334 96.94652285012252 l 13.532004721595156 -1.988738693899349 a34.67736207672686,34.67736207672686 0 0,0 0.08150085570889491,0.58969959230372 l -13.564150093859263 1.7561507933955434" fill="#ff7d0b" stroke="none" /><path d="M 120.82617615685814 97.30363454192243 l 5.977642768775591 -0.7739255329954554 a27.027534637122994,27.027534637122994 0 0,0 0.055622555264815916,0.4606345497046566 l -5.990047410300071 0.6711973063673858" fill="#ff0901" stroke="none" /><path d="M 120.86939407059847 97.66154086499901 l 10.757242064450182 -1.2053714107814053 a31.82456359725904,31.82456359725904 0 0,0 0.05617430632692646,0.5434354564903018 l -10.776348763258774 1.0205314320081722" fill="#ff5307" stroke="none" /><path d="M 120.9064616781168 98.02013634271609 l 12.037449787807818 -1.139959010194758 a33.09130695743511,33.09130695743511 0 0,0 0.04870154372625545,0.5659857606639053 l -12.055244954231814 0.9331522021551909" fill="#ff6609" stroke="none" /><path d="M 120.93736805541906 98.37931529534042 l 10.74777213788655 -0.8319455371340588 a31.779922973040563,31.779922973040563 0 0,0 0.037433781372968565,0.5442789655772753 l -10.760469880424585 0.6473231474024493" fill="#ff5207" stroke="none" /><path d="M 120.96210409425399 98.7389718711861 l 10.890480429501139 -0.6551442591902215 a31.91016855899565,31.91016855899565 0 0,0 0.028200095648943244,0.5470743218734019 l -10.900122114606654 0.468098143940089" fill="#ff5407" stroke="none" /><path d="M 120.98066250479742 99.09900007780936 l 10.719100542952699 -0.46032429876538355 a31.72898014305007,31.72898014305007 0 0,0 0.018697907644811187,0.5443691798719226 l -10.725423137594358 0.27624885432934104" fill="#ff5107" stroke="none" /><path d="M 120.99303781780057 99.45929381324524 l 18.34751394534779 -0.4725668761196084 a39.35359875956585,39.35359875956585 0 0,0 0.011597258941058333,0.6754821924095921 l -18.352922635887513 0.15753776774094988" fill="#ffbf11" stroke="none" /><line stroke="#e1ed5e" stroke-width="0.3" x1="184.99686870605535" x2="189.99668451229388" y1="99.2704041080226" y2="99.22748670261217" /><path d="M 185.99683186730306 99.26182062694052 a86.0,86.0 0 0,1 -10.086455211305974,41.156179273409016" fill="none" id="id148" stroke="none" /><text fill="#e1ed5e" style="font-size:6.75px; font-family:Arial;" text-anchor="middle"><textPath startOffset="21.40746469413373" xlink:href="#id148">April</textPath></text><path d="M 120.99922638620191 99.81974689727618 l 13.547142596370337 -0.116285926020704 a34.5476416745861,34.5476416745861 0 0,0 0.0,0.5930780574890601 l -13.547142596370337 -0.11628592602070235" fill="#ff7b0b" stroke="none" /><path d="M 120.99922638620191 100.18025310272382 l 16.15353384717612 0.13865866019812312 a37.15412894513079,37.15412894513079 0 0,0 -0.010949088969944652,0.6377295410835809 l -16.148773326607508 -0.41593511725077514" fill="#ffa00e" stroke="none" /><path d="M 120.99303781780057 100.54070618675476 l 10.950652298396552 0.2820499585687659 a31.95428399939979,31.95428399939979 0 0,0 -0.018830679346869255,0.54823468311062 l -10.944196932052837 -0.46999090624349654" fill="#ff5507" stroke="none" /><path d="M 120.98066250479742 100.90099992219065 l 16.48975342715622 0.7081409632042557 a37.50495173310659,37.50495173310659 0 0,0 -0.03314439484163897,0.6429924053315544 l -16.47516744285801 -0.9911051619125407" fill="#ffa50f" stroke="none" /><path d="M 120.96210409425399 101.26102812881392 l 10.67239821814692 0.6420249749010565 a31.69169209223228,31.69169209223228 0 0,0 -0.037329853635153606,0.5427678790784348 l -10.659804403346701 -0.8251362781338348" fill="#ff5107" stroke="none" /><path d="M 120.93736805541906 101.62068470465957 l 11.3012358010331 0.874787125010441 a32.335042264792676,32.335042264792676 0 0,0 -0.04758852458667526,0.5530507911300994 l -11.284553653748684 -1.0686589635161976" fill="#ff5a08" stroke="none" /><path d="M 120.9064616781168 101.97986365728391 l 21.405255366930973 2.0270999382084574 a42.50102535887561,42.50102535887561 0 0,0 -0.07501958700616947,0.7257464520014879 l -21.36730338744314 -2.394250912492877" fill="#ffea15" stroke="none" /><path d="M 120.86939407059847 102.33845913500097 l 16.041135066269298 1.7974426427813528 a37.14152453358676,37.14152453358676 0 0,0 -0.07643710492748279,0.6330088799654785 l -16.00791587508215 -2.07254519967024" fill="#ffa00e" stroke="none" /><path d="M 120.82617615685814 102.69636545807757 l 11.070383989746901 1.4332828442814685 a32.16278197369079,32.16278197369079 0 0,0 -0.0755909358686133,0.5469383563626917 l -11.044148537323077 -1.6231095088442453" fill="#ff5808" stroke="none" /><path d="M 120.77682067341334 103.0534771498775 l 15.839039278438932 2.327793326657217 a37.00917821237434,37.00917821237434 0 0,0 -0.09777209449578418,0.6277669836310862 l -15.79674569180488 -2.599348492219754" fill="#ff9e0e" stroke="none" /><path d="M 120.7213421655516 103.40968896794604 l 15.867222922198394 2.610945493661275 a37.0806032111239,37.0806032111239 0 0,0 -0.1087436055359575,0.6272042192427821 l -15.820064499170202 -2.8829427458246455" fill="#ff9f0e" stroke="none" /><path d="M 120.65975698304385 103.76489593502545 l 18.747027018775636 3.416332819148286 a40.05576951933176,40.05576951933176 0 0,0 -0.12908202089830725,0.675411678210101 l -18.68561870559517 -3.737647062391701" fill="#ffc912" stroke="none" /><path d="M 120.592083275326 104.11899336999214 l 30.03428421698314 6.007698002583686 a51.62924523583254,51.62924523583254 0 0,0 -0.18129803486193172,0.8675767274417369 l -29.926728471296844 -6.522391181310832" fill="#a1ff22" stroke="none" /><path d="M 120.51834098615036 104.47187691870673 l 7.470264794587532 1.6281094428683165 a28.64562596908918,28.64562596908918 0 0,0 -0.10883856267690618,0.4795627892169824 l -7.441215370352961 -1.756106566024316" fill="#ff2303" stroke="none" /><path d="M 120.43855184770803 104.8234425847677 l 16.043746946327705 3.786280594475287 a37.48446956434752,37.48446956434752 0 0,0 -0.15317309764482315,0.624998508838631 l -15.976386322166586 -4.0611349279220175" fill="#ffa50f" stroke="none" /><path d="M 120.35273937422433 105.17358676015961 l 15.789584557790546 4.013650649900245 a37.29172710448657,37.29172710448657 0 0,0 -0.16303680129291545,0.6190772902015795 l -15.7183582756929 -4.284108444474628" fill="#ffa20f" stroke="none" /><path d="M 120.26092885502905 105.52220625578681 l 18.019285548505565 4.911236404448817 a39.67658680538189,39.67658680538189 0 0,0 -0.18474459462686071,0.655593391811522 l -17.932322461804123 -5.219837720163348" fill="#ffc312" stroke="none" /><path d="M 120.16314734710363 105.8691983318838 l 18.454730821019826 5.371903179870034 a40.22067723703296,40.22067723703296 0 0,0 -0.19865888833196682,0.6612708289553352 l -18.35979561268423 -5.687911612416093" fill="#ffcb12" stroke="none" /><path d="M 120.05942366710727 106.21446072829308 l 16.218705725943533 5.024596492415223 a37.97919271745111,37.97919271745111 0 0,0 -0.19827902800610314,0.6211062311702574 l -16.130061982160175 -5.3022717572768645" fill="#ffac0f" stroke="none" /><path d="M 119.94978838288452 106.5578916946017 l 33.65909376939232 11.064412676552003 a56.4310008502976,56.4310008502976 0 0,0 -0.31040967968912575,0.9176710618154218 l -33.46419866813083 -11.640585412841585" fill="#6aff28" stroke="none" /><path d="M 119.83427380445688 106.89939002012753 l 16.57088943593986 5.764215535497434 a38.54481568548992,38.54481568548992 0 0,0 -0.22275201320374316,0.6230770256173419 l -16.469497252692175 -6.047827517495697" fill="#ffb410" stroke="none" /><path d="M 119.71291397450082 107.23885506374661 l 13.12896043752642 4.821136127710595 a34.98617015955584,34.98617015955584 0 0,0 -0.21186511119725424,0.5619973785401319 l -13.044264642514726 -5.045801786444886" fill="#ff810b" stroke="none" /><path d="M 119.58574465831526 107.57618678355244 l 12.609798691633783 4.877741023252496 a34.52033211624069,34.52033211624069 0 0,0 -0.21853231867345177,0.5508441989334375 l -12.524207697994207 -5.093486239399498" fill="#ff7a0b" stroke="none" /><path d="M 119.4528033332814 107.91128576633889 l 20.07599747798038 8.164733399677559 a42.67276046616316,42.67276046616316 0 0,0 -0.2817909056639059,0.676195591216122 l -19.932880727779988 -8.508161500334959" fill="#ffec16" stroke="none" /><path d="M 119.31412917781788 108.2440532568976 l 13.904279560662868 5.93491014487707 a36.117941279447805,36.117941279447805 0 0,0 -0.24829557009776515,0.568148855533827 l -13.800350108548137 -6.172721070186741" fill="#ff910d" stroke="none" /><path d="M 119.16976305983485 108.57439118712176 l 17.89836277886946 8.005710013004649 a40.607212524383534,40.607212524383534 0 0,0 -0.29008155798046975,0.6338805555734571 l -17.758296756033932 -8.311779550792794" fill="#ffd013" stroke="none" /><path d="M 119.0197475246899 108.90220220490707 l 29.642190422738594 13.874041839778899 a53.72840494172961,53.72840494172961 0 0,0 -0.39815496407915685,0.8319907414778085 l -29.399656200699525 -14.38084508332181" fill="#88ff25" stroke="none" /><path d="M 118.8641267826498 109.22738970284198 l 28.748615962614778 14.062388678832193 a53.003651277947284,53.003651277947284 0 0,0 -0.4068158625273628,0.8139042401973221 l -28.502980186875682 -14.55382477519326" fill="#91ff24" stroke="none" /><path d="M 118.70294669586154 109.54985784667822 l 22.018269213249297 11.2426851466646 a45.7225028760066,45.7225028760066 0 0,0 -0.36293201408095127,0.6959699913800325 l -21.822029130193396 -11.619001381149136" fill="#eaff1a" stroke="none" /><path d="M 118.5362547648365 109.86951160357373 l 26.897178361560126 14.321232487934639 a51.47221527534637,51.47221527534637 0 0,0 -0.4219610107262507,0.776360733277174 l -26.647372001218535 -14.780848054686416" fill="#a3ff21" stroke="none" /><line stroke="#e1ed5e" stroke-width="0.3" x1="174.33088141563837" x2="178.70328620479359" y1="141.23008692659167" y2="143.65538615756765" /><path d="M 175.20536237346943 141.71514677278685 a86.0,86.0 0 0,1 -30.301960400862466,31.631185727798858" fill="none" id="id149" stroke="none" /><text fill="#e1ed5e" style="font-size:6.75px; font-family:Arial;" text-anchor="middle"><textPath startOffset="22.145653131862474" xlink:href="#id149">May</textPath></text><path d="M 118.36410011445183 110.18625677009912 l 14.978411472333622 8.308272352823806 a38.128344920722256,38.128344920722256 0 0,0 -0.322396281184613,0.5696433374381956 l -14.83358182612763 -8.564172460361124" fill="#ffae10" stroke="none" /><path d="M 118.18653347947321 110.5 l 4.750621272272738 2.7427724703646263 a26.485544940729255,26.485544940729255 0 0,0 -0.23070964148566506,0.39179540918791594 l -4.702837920657307 -2.823919047846092" fill="#ff0100" stroke="none" /><path d="M 118.00360718960297 110.81064883170644 l 23.385868989845918 14.042542397810056 a48.2780473165608,48.2780473165608 0 0,0 -0.4327369104054537,0.7068432217059464 l -23.14136411498506 -14.44192273564056" fill="#caff1d" stroke="none" /><path d="M 117.81537515405839 111.11811171558189 l 27.26394867709435 17.014720407432666 a53.13757315060271,53.13757315060271 0 0,0 -0.48958001497984505,0.7697011006273858 l -26.967850970488616 -17.480235182738724" fill="#8fff24" stroke="none" /><path d="M 117.62189284568427 111.42229804090321 l 10.627958982306856 6.888914608973691 a33.66533286650328,33.66533286650328 0 0,0 -0.318498995055859,0.4822480727932154 l -10.508135548330271 -7.070342560105967" fill="#ff6e0a" stroke="none" /><path d="M 117.423217284605 111.72311816256416 l 18.29991195715603 12.312997463896602 a43.05666983444206,43.05666983444206 0 0,0 -0.41787577194349973,0.6096932396343099 l -18.08584644839721 -12.625325438600957" fill="#fff116" stroke="none" /><path d="M 117.21940702142032 112.02048342749411 l 17.03164976984879 11.889414283934181 a41.771019856949934,41.771019856949934 0 0,0 -0.415492160339145,0.5844417570257813 l -16.825042510979685 -12.180033267669467" fill="#ffe015" stroke="none" /><path d="M 117.01052211995028 112.31430620078461 l 22.420060440294595 16.230394773014314 a48.67823738308408,48.67823738308408 0 0,0 -0.49581793649812794,0.6726722554515655 l -22.13814048421264 -16.612873337734758" fill="#c5ff1e" stroke="none" /><path d="M 116.79662413953412 112.60449989151573 l 14.180054045872376 10.640976912866915 a38.728630020507175,38.728630020507175 0 0,0 -0.40360400475070096,0.528330598081278 l -13.99529806376737 -10.88282842418907" fill="#ffb610" stroke="none" /><path d="M 116.57777611688842 112.89097897827486 l 17.45587669748086 13.573795300887419 a43.11233931876156,43.11233931876156 0 0,0 -0.45931797900850807,0.580333261742702 l -17.22029228783079 -13.871448506544803" fill="#fff216" stroke="none" /><path d="M 116.35404254752997 113.17365903436017 l 16.8607863757796 13.58185599188461 a42.650702745961084,42.650702745961084 0 0,0 -0.4641882749665337,0.5662342195014178 l -16.62515128157444 -13.869292493084519" fill="#ffec16" stroke="none" /><path d="M 116.1254893667686 113.45245675266167 l 28.17423757391474 23.503951035642544 a57.69091682088731,57.69091682088731 0 0,0 -0.6409335490748507,0.7550181092056882 l -27.766609461332777 -23.98413592729779" fill="#5cff2a" stroke="none" /><path d="M 115.89218393027572 113.72728997021213 l 17.791567389556157 15.3679321641711 a44.50985344870705,44.50985344870705 0 0,0 -0.5044215555055749,0.5739391347775494 l -17.525134770091995 -15.671083576759942" fill="#faff18" stroke="none" /><path d="M 115.6541949942343 113.99807769240083 l 12.113933769484122 10.832354274895186 a37.25076276696844,37.25076276696844 0 0,0 -0.43033908060286863,0.4730180338936103 l -11.926196988039374 -11.038709884346467" fill="#ffa20e" stroke="none" /><path d="M 115.41159269507618 114.26474011684316 l 16.150066450984898 14.948260400539235 a43.00625218826589,43.00625218826589 0 0,0 -0.5061306829141485,0.5374932458376686 l -15.891079934334488 -15.2232951063214" fill="#fff016" stroke="none" /><path d="M 115.16444852881244 114.52719865689866 l 22.107267495875153 21.17826217442589 a51.614540089031166,51.614540089031166 0 0,0 -0.6184237875681445,0.6345572862070437 l -21.7404569071562 -21.554642152700673" fill="#a1ff22" stroke="none" /><path d="M 114.91283532996324 114.78537596483092 l 16.482960792353722 16.34208163211293 a44.21102385835043,44.21102385835043 0 0,0 -0.5389704441459336,0.5343638868336618 l -16.199998428077823 -16.622625529175252" fill="#feff18" stroke="none" /><path d="M 114.65682725009322 115.03919595460226 l 19.762487900484558 20.27805356605764 a49.315285349872454,49.315285349872454 0 0,0 -0.6113393163797661,0.5856492360370059 l -19.411476098239483 -20.614314932400227" fill="#bdff1f" stroke="none" /><path d="M 114.39649973595853 115.28858382429668 l 29.53503883458925 31.365187737171247 a64.08240384134447,64.08240384134447 0 0,0 -0.80734743995501,0.7472687374249282 l -28.992261623320275 -31.867574220728557" fill="#32ff4c" stroke="none" /><path d="M 114.13192950727249 115.5334660781643 l 20.09168360323448 22.08427982487776 a50.85617466113139,50.85617466113139 0 0,0 -0.6508015587345121,0.5819507668619572 l -19.70961701767659 -22.425926121623103" fill="#aaff21" stroke="none" /><path d="M 113.86319453409587 115.77377054828091 l 21.389384374193735 24.33719302269901 a53.400690241584556,53.400690241584556 0 0,0 -0.6937525758443667,0.5992469517077854 l -20.968452318586515 -24.700784106871513" fill="#8cff24" stroke="none" /><path d="M 113.59037401385872 116.0094264158162 l 23.25753272131093 27.397315065470078 a56.9378032311309,56.9378032311309 0 0,0 -0.7505640614674675,0.626147234812049 l -22.78379432568157 -27.792524484193997" fill="#64ff29" stroke="none" /><path d="M 113.31354834802062 116.24036423190432 l 19.130276443852175 23.335826722060098 a51.17496123643276,51.17496123643276 0 0,0 -0.6841586163918243,0.5511097523178905 l -18.726867057105096 -23.660784768171393" fill="#a7ff21" stroke="none" /><path d="M 113.03279911837588 116.46651593811092 l 17.055151289632732 21.54862650661557 a48.48129345270845,48.48129345270845 0 0,0 -0.6570139994219965,0.5108980598641955 l -16.682727345575504 -21.83822561810056" fill="#c8ff1d" stroke="none" /><path d="M 112.7482090630111 116.68781488649013 l 38.24462718903332 50.063444659470385 a84.0,84.0 0 0,0 -1.1533880443569346,0.8655238909439404 l -37.379586155765615 -50.71258757767834" fill="#4dd2ff" stroke="none" /><path d="M 112.45986205192187 116.90419585922612 l 16.02681150693987 21.74344784743602 a48.01177912269294,48.01177912269294 0 0,0 -0.6676357728360484,0.48331681293064244 l -15.651194723729853 -22.01536543173974" fill="#cdff1d" stroke="none" /><path d="M 112.16784306229584 117.11559508785304 l 15.742181195885768 22.143349299375114 a48.16880908317911,48.16880908317911 0 0,0 -0.6780445913000857,0.4733277843241589 l -15.359741513411926 -22.410321899504396" fill="#cbff1d" stroke="none" /><path d="M 111.8722381534696 117.32195027204791 l 18.39000367002451 26.831564946483862 a53.5288350922823,53.5288350922823 0 0,0 -0.7624130128545249,0.5129855004602106 l -17.92669436907298 -27.143300121001197" fill="#8bff24" stroke="none" /><path d="M 111.5731344415666 117.5232005979908 l 16.785183784429886 25.41490760465858 a51.45751012854499,51.45751012854499 0 0,0 -0.7412683877221575,0.4804812131709198 l -16.34642976445072 -25.699302659533394" fill="#a3ff21" stroke="none" /><path d="M 111.27062007382361 117.71928675628689 l 10.47125333222996 16.462549467214984 a40.51057870254589,40.51057870254589 0 0,0 -0.589980387177426,0.3681913963594853 l -10.18710881626282 -16.639876660416014" fill="#ffcf13" stroke="none" /><path d="M 110.96478420261333 117.91015095944535 l 17.310406951392274 28.275248827512296 a54.15327864752663,54.15327864752663 0 0,0 -0.7970002169032422,0.47857573057418423 l -16.822473977931594 -28.568238558622404" fill="#84ff25" stroke="none" /><line stroke="#e1ed5e" stroke-width="0.3" x1="143.1302829299769" x2="145.66735839644613" y1="173.24464959558577" y2="177.55315839532614" /><path d="M 143.63769802327073 174.10635135553383 a86.0,86.0 0 0,1 -40.68552437913181,11.842963189579606" fill="none" id="id150" stroke="none" /><text fill="#e1ed5e" style="font-size:6.75px; font-family:Arial;" text-anchor="middle"><textPath startOffset="21.407464694133747" xlink:href="#id150">June</textPath></text><path d="M 110.65571695917076 118.09573695890943 l 14.95254035360055 25.392682457970494 a50.468063822337825,50.468063822337825 0 0,0 -0.750309983706476,0.43319167106859924 l -14.514437902033675 -25.645621026315265" fill="#afff20" stroke="none" /><path d="M 110.34350942703117 118.27599006163325 l 19.85019464067649 35.07339192116119 a61.30103036062622,61.30103036062622 0 0,0 -0.9202621949146248,0.5104539266717643 l -19.245188257605772 -35.40897876326609" fill="#35ff2f" stroke="none" /><path d="M 110.02825361518725 118.45085714620011 l 10.709912028783988 19.70503185043089 a43.427449607362576,43.427449607362576 0 0,0 -0.6580523889013623,0.3503758321417699 l -10.370070824096072 -19.885978150295227" fill="#fff617" stroke="none" /><path d="M 109.71004243097381 118.62028667847754 l 15.17142527178312 29.0932083860492 a53.811383984394546,53.811383984394546 0 0,0 -0.8227319313955618,0.42009278636767505 l -14.669766118673977 -29.34935912408971" fill="#88ff25" stroke="none" /><path d="M 109.3889696526874 118.78422872680471 l 19.580272854697863 39.17366201419291 a64.79455309358275,64.79455309358275 0 0,0 -0.9991929487143546,0.48875534141337096 l -18.90491965672144 -39.5040111057035" fill="#33ff55" stroke="none" /><path d="M 109.06512990194946 118.94263497670748 l 5.903239071596609 12.335499228692196 a34.675261341469515,34.675261341469515 0 0,0 -0.5391363894021358,0.25234305283237934 l -5.6906139683229675 -12.435018513095109" fill="#ff7d0b" stroke="none" /><line stroke="#e1ed5e" stroke-width="0.3" x1="101.45913802915013" x2="101.54496967792366" y1="184.9874750549273" y2="189.98673829345242" /><path d="M 101.47630435890484 185.9873277026323 a86.0,86.0 0 0,1 -42.54439059252881,-10.42667462771756" fill="none" id="id151" stroke="none" /><text fill="#e1ed5e" style="font-size:6.75px; font-family:Arial;" text-anchor="middle"><textPath startOffset="22.145653131862474" xlink:href="#id151">July</textPath></text><line stroke="#e1ed5e" stroke-width="0.3" x1="58.13341422392154" x2="55.67067388415222" y1="173.97424548756322" y2="178.32567169271397" /><path d="M 57.64086615596768 174.84453072859336 a86.0,86.0 0 0,1 -31.369924170532247,-30.572349798747897" fill="none" id="id152" stroke="none" /><text fill="#e1ed5e" style="font-size:6.75px; font-family:Arial;" text-anchor="middle"><textPath startOffset="22.145653131862474" xlink:href="#id152">August</textPath></text><line stroke="#e1ed5e" stroke-width="0.3" x1="26.387840678322732" x2="22.057713659400548" y1="142.50000000000003" y2="145.00000000000006" /><path d="M 25.521815274538298 143.00000000000003 a86.0,86.0 0 0,1 -11.493303480769221,-40.785679425670985" fill="none" id="id153" stroke="none" /><text fill="#e1ed5e" style="font-size:6.75px; font-family:Arial;" text-anchor="middle"><textPath startOffset="21.40746469413373" xlink:href="#id153">September</textPath></text><line stroke="#e1ed5e" stroke-width="0.3" x1="15.003131293944662" x2="10.003315487706104" y1="100.72959589197737" y2="100.7725132973878" /><path d="M 14.003168132696942 100.73817937305945 a86.0,86.0 0 0,1 10.791469493833604,-42.45332614584628" fill="none" id="id154" stroke="none" /><text fill="#e1ed5e" style="font-size:6.75px; font-family:Arial;" text-anchor="middle"><textPath startOffset="22.145653131862435" xlink:href="#id154">October</textPath></text><line stroke="#e1ed5e" stroke-width="0.3" x1="26.387840678322718" x2="22.05771365940052" y1="57.49999999999999" y2="54.99999999999999" /><path d="M 25.521815274538284 56.99999999999999 a86.0,86.0 0 0,1 29.574782752854787,-30.34633250058573" fill="none" id="id155" stroke="none" /><text fill="#e1ed5e" style="font-size:6.75px; font-family:Arial;" text-anchor="middle"><textPath startOffset="21.40746469413373" xlink:href="#id155">November</textPath></text><line stroke="#e1ed5e" stroke-width="0.3" x1="56.869717070023135" x2="54.33264160355391" y1="26.7553504044142" y2="22.446841604673864" /><path d="M 56.362301976729285 25.89364864446614 a86.0,86.0 0 0,1 42.16139366436587,-11.88097634709845" fill="none" id="id156" stroke="none" /><text fill="#e1ed5e" style="font-size:6.75px; font-family:Arial;" text-anchor="middle"><textPath startOffset="22.145653131862474" xlink:href="#id156">December</textPath></text></svg>