<?xml version="1.0" encoding="utf-8" ?>
<svg baseProfile="full" height="200mm" version="1.1" viewBox="0,0,200,200" width="200mm" xmlns="http://www.w3.org/2000/svg" xmlns:ev="http://www.w3.org/2001/xml-events" xmlns:xlink="http://www.w3.org/1999/xlink"><defs /><rect fill="#1a1a1a" height="200" width="200" x="0" y="0" /><text alignment-baseline="middle" fill="#e1ed5e" style="dominant-baseline: central; font-size:9.0px; font-family:Arial;" text-anchor="middle" x="100.0" y="100.0">2016</text><line stroke="#e1ed5e" stroke-width="0.3" x1="100.0" x2="100.0" y1="15.0" y2="10.0" /><path d="M 100.0 14.0 a86.0,86.0 0 0,1 42.35913384403234,11.155469271406648" fill="none" id="id1" stroke="none" /><text fill="#e1ed5e" style="font-size:6.75px; font-family:Arial;" text-anchor="middle"><textPath startOffset="22.145653131862478" xlink:href="#id1">January</textPath></text><line stroke="#e1ed5e" stroke-width="0.3" x1="143.13028292997686" x2="145.6673583964461" y1="26.7553504044142" y2="22.446841604673864" /><path d="M 143.63769802327073 25.89364864446614 a86.0,86.0 0 0,1 29.32050498858742,28.57503671076992" fill="none" id="id2" stroke="none" /><text fill="#e1ed5e" style="font-size:6.75px; font-family:Arial;" text-anchor="middle"><textPath startOffset="20.669276256404974" xlink:href="#id2">February</textPath></text><line stroke="#e1ed5e" stroke-width="0.3" x1="172.87174338648825" x2="177.1583165268699" y1="56.24261187166439" y2="53.66864786411523" /><path d="M 173.72905801456457 55.72781907015455 a86.0,86.0 0 0,1 12.242430191666344,42.057860355516425" fill="none" id="id3" stroke="none" /><text fill="#e1ed5e" style="font-size:6.75px; font-family:Arial;" text-anchor="middle"><textPath startOffset="22.145653131862474" xlink:href="#id3">March</textPath></text><line stroke="#e1ed5e" stroke-width="0.3" x1="184.99686870605535" x2="189.99668451229388" y1="99.2704041080226" y2="99.22748670261217" /><path d="M 185.99683186730306 99.26182062694052 a86.0,86.0 0 0,1 -10.086455211305974,41.156179273409016" fill="none" id="id4" stroke="none" /><text fill="#e1ed5e" style="font-size:6.75px; font-family:Arial;" text-anchor="middle"><textPath startOffset="21.40746469413373" xlink:href="#id4">April</textPath></text><line stroke="#e1ed5e" stroke-width="0.3" x1="174.33088141563837" x2="178.70328620479359" y1="141.23008692659167" y2="143.65538615756765" /><path d="M 175.20536237346943 141.71514677278685 a86.0,86.0 0 0,1 -30.301960400862466,31.63118572779886" fill="none" id="id5" stroke="none" /><text fill="#e1ed5e" style="font-size:6.75px; font-family:Arial;" text-anchor="middle"><textPath startOffset="22.145653131862474" xlink:href="#id5">May</textPath></text><line stroke="#e1ed5e" stroke-width="0.3" x1="143.1302829299769" x2="145.6673583964461" y1="173.24464959558577" y2="177.55315839532614" /><path d="M 143.63769802327073 174.10635135553383 a86.0,86.0 0 0,1 -40.685524379131806,11.842963189579606" fill="none" id="id6" stroke="none" /><text fill="#e1ed5e" style="font-size:6.75px; font-family:Arial;" text-anchor="middle"><textPath startOffset="21.407464694133747" xlink:href="#id6">June</textPath></text><line stroke="#e1ed5e" stroke-width="0.3" x1="101.45913802915013" x2="101.54496967792366" y1="184.9874750549273" y2="189.98673829345242" /><path d="M 101.47630435890484 185.9873277026323 a86.0,86.0 0 0,1 -42.54439059252881,-10.42667462771756" fill="none" id="id7" stroke="none" /><text fill="#e1ed5e" style="font-size:6.75px; font-family:Arial;" text-anchor="middle"><textPath startOffset="22.145653131862474" xlink:href="#id7">July</textPath></text><path d="M 92.25597844496254 119.51999308798841 l -7.018039470052485 17.690043987227984 a40.03130406129006,40.03130406129006 0 0,0 -0.6365845430474667,-0.2588933917748743 l 7.320678474290393 -17.566963338873816" fill="#ffb710" stroke="none" /><path d="M 91.92203290615298 119.3841803445677 l -8.029388825632934 19.267610185151486 a41.87371282642722,41.87371282642722 0 0,0 -0.6611359259823474,-0.2821996132296012 l 8.35895982678571 -19.126935922262483" fill="#ffd113" stroke="none" /><path d="M 91.59046798132341 119.24265499422711 l -6.25155424141507 14.304779526147568 a36.61117060713403,36.61117060713403 0 0,0 -0.5737259786939776,-0.2566203327699761 l 6.496193622964682 -14.195355442467738" fill="#ff850c" stroke="none" /><path d="M 91.26138138417905 119.09545874513695 l -10.891058657117982 23.798928688951065 a47.1725842326386,47.1725842326386 0 0,0 -0.7334467213240146,-0.34329009947564715 l 11.297994092313488 -23.60846235790489" fill="#e6ff1a" stroke="none" /><path d="M 90.93487009805054 118.94263497670748 l -9.702877734247414 20.27528266351102 a43.47738693467336,43.47738693467336 0 0,0 -0.6704621975076753,-0.32795665809017527 l 10.049500181017159 -20.105732255323623" fill="#ffe715" stroke="none" /><line stroke="#e1ed5e" stroke-width="0.3" x1="58.13341422392154" x2="55.670673884152215" y1="173.97424548756322" y2="178.32567169271397" /><path d="M 57.64086615596767 174.84453072859336 a86.0,86.0 0 0,1 -31.369924170532244,-30.572349798747886" fill="none" id="id8" stroke="none" /><text fill="#e1ed5e" style="font-size:6.75px; font-family:Arial;" text-anchor="middle"><textPath startOffset="22.145653131862474" xlink:href="#id8">August</textPath></text><path d="M 89.65649057296885 118.27599006163327 l -12.781336304923572 22.58339656680937 a46.94941922728396,46.94941922728396 0 0,0 -0.6979982053494176,-0.4029894517523665 l 13.16712697813339 -22.360660217780833" fill="#e8ff1a" stroke="none" /><path d="M 87.2517909369889 116.68781488649013 l -22.403620062708292 29.32705782795073 a57.90526402504325,57.90526402504325 0 0,0 -0.784726775942799,-0.61020828735059 l 22.903756783286322 -28.938148488979344" fill="#62ff29" stroke="none" /><path d="M 85.86807049272751 115.53346607816431 l -35.009093347285464 38.48112627914629 a73.02339566685887,73.02339566685887 0 0,0 -0.9199912614767384,-0.8515301769508299 l 35.66451438007617 -37.87447835606308" fill="#3effb5" stroke="none" /><path d="M 83.87451063323141 113.45245675266167 l -23.975025297919075 20.000818804847025 a52.22234121426806,52.22234121426806 0 0,0 -0.5683610567298418,-0.6933080749952711 l 24.314833173887546 -19.58630844815326" fill="#a5ff21" stroke="none" /><path d="M 83.64595745247003 113.17365903436017 l -7.638802310280495 6.153278418718362 a30.808880467913337,30.808880467913337 0 0,0 -0.32823718071541547,-0.41471695517121776 l 7.743305921637472 -6.0212415196324605" fill="#ff2c04" stroke="none" /><path d="M 83.4222238831116 112.89097897827486 l -26.81068463026223 20.84815053146816 a54.962599884669245,54.962599884669245 0 0,0 -0.5727836335346088,-0.7497921628984582 l 27.164620241151137 -20.384837455328835" fill="#84ff25" stroke="none" /><path d="M 82.98947788004972 112.3143062007846 l -25.22360970089011 18.25994823413155 a52.13930307274075,52.13930307274075 0 0,0 -0.5186244373840939,-0.7295102202983984 l 25.533349236804163 -17.82426078712365" fill="#a6ff21" stroke="none" /><path d="M 82.576782715395 111.72311816256416 l -43.580290502715336 29.322764376796734 a73.52681439986819,73.52681439986819 0 0,0 -0.6956181478697729,-1.0532545358623633 l 44.07723308950584 -28.57032996259531" fill="#3fffba" stroke="none" /><path d="M 82.18462484594161 111.1181117155819 l -26.491913411805566 16.532913302411135 a52.227531098113516,52.227531098113516 0 0,0 -0.46813783286031824,-0.7646679680533506 l 26.771819209121286 -16.075708218233228" fill="#a5ff21" stroke="none" /><line stroke="#e1ed5e" stroke-width="0.3" x1="26.387840678322732" x2="22.057713659400548" y1="142.50000000000003" y2="145.00000000000006" /><path d="M 25.521815274538298 143.00000000000003 a86.0,86.0 0 0,1 -11.493303480769221,-40.785679425670985" fill="none" id="id9" stroke="none" /><text fill="#e1ed5e" style="font-size:6.75px; font-family:Arial;" text-anchor="middle"><textPath startOffset="21.40746469413373" xlink:href="#id9">September</textPath></text><path d="M 81.81346652052679 110.50000000000001 l -22.72904682569306 13.122621303237514 a47.245242606475,47.245242606475 0 0,0 -0.3994847023038272,-0.705851191086003 l 22.950964893018266 -12.730513342052388" fill="#e5ff1a" stroke="none" /><path d="M 80.68587082218212 108.24405325689762 l -16.792266195130566 7.167619908830832 a39.258011368317,39.258011368317 0 0,0 -0.25924150341325763,-0.6220852346362142 l 16.912833543080307 -6.878302164753336" fill="#ffab0f" stroke="none" /><path d="M 80.41425534168474 107.57618678355246 l -16.53953937658702 6.39784914063731 a38.73383309992586,38.73383309992586 0 0,0 -0.23455976516968274,-0.6221976444890926 l 16.646929825571135 -6.112983215954072" fill="#ffa40f" stroke="none" /><path d="M 79.06263194458094 101.62068470465958 l -20.801108719693044 1.6101373703101138 a41.8633330587363,41.8633330587363 0 0,0 -0.04931109677622257,-0.7169725248281609 l 20.82568377763433 -1.2528214213276097" fill="#ffd013" stroke="none" /><path d="M 79.03789590574601 101.26102812881392 l -38.42908513992325 2.3117983341811468 a59.498558365598484,59.498558365598484 0 0,0 -0.052580889185278534,-1.0200552030969687 l 38.463107618565104 -1.6517713377074472" fill="#50ff2b" stroke="none" /><line stroke="#e1ed5e" stroke-width="0.3" x1="15.003131293944662" x2="10.003315487706104" y1="100.72959589197737" y2="100.7725132973878" /><path d="M 14.003168132696942 100.73817937305945 a86.0,86.0 0 0,1 10.791469493833604,-42.453326145846276" fill="none" id="id10" stroke="none" /><text fill="#e1ed5e" style="font-size:6.75px; font-family:Arial;" text-anchor="middle"><textPath startOffset="22.145653131862435" xlink:href="#id10">October</textPath></text><path d="M 81.63589988554816 89.8137432299009 l -27.03557402960449 -14.996177175915738 a51.916138067386115,51.916138067386115 0 0,0 0.4389797113196076,-0.7756350876782122 l 26.774160953263515 15.458069033693057" fill="#a9ff21" stroke="none" /><line stroke="#e1ed5e" stroke-width="0.3" x1="26.387840678322718" x2="22.05771365940052" y1="57.5" y2="55.0" /><path d="M 25.521815274538284 57.0 a86.0,86.0 0 0,1 29.574782752854787,-30.346332500585742" fill="none" id="id11" stroke="none" /><text fill="#e1ed5e" style="font-size:6.75px; font-family:Arial;" text-anchor="middle"><textPath startOffset="21.40746469413373" xlink:href="#id11">November</textPath></text><path d="M 81.81346652052679 89.5 l -27.264069219824822 -15.740917703270451 a52.4818354065409,52.4818354065409 0 0,0 0.4571574969761005,-0.7763533740405208 l 26.98983801271894 16.206622245604546" fill="#a2ff22" stroke="none" /><path d="M 81.99639281039701 89.18935116829357 l -29.441437212357602 -17.678737124821176 a55.34146140538759,55.34146140538759 0 0,0 0.4960493300166387,-0.810259301027757 l 29.133619917885568 18.181533541973476" fill="#7fff26" stroke="none" /><path d="M 82.18462484594161 88.88188828441811 l -22.894789719359977 -14.288042076207054 a47.98739599637532,47.98739599637532 0 0,0 0.44212915001148156,-0.6951004595179384 l 22.646142877722603 14.678956210403667" fill="#dbff1b" stroke="none" /><path d="M 82.98947788004972 87.6856937992154 l -5.717351532201761 -4.1389215997364825 a28.058242029821237,28.058242029821237 0 0,0 0.2857905382955798,-0.38772975286006306 l 5.645458974322362 4.236457661865408" fill="#ff0000" stroke="none" /><path d="M 83.2033758604659 87.39550010848427 l -26.13100312011711 -19.60919189811967 a53.67031880715051,53.67031880715051 0 0,0 0.5593163402718501,-0.7321630437115688 l 25.790534802490953 20.054875855072126" fill="#93ff23" stroke="none" /><path d="M 83.42222388311158 87.10902102172516 l -15.462029919714194 -12.023367986821635 a40.58662163275393,40.58662163275393 0 0,0 0.43240903457601676,-0.54633468949812 l 15.253354454496613 12.287022620234435" fill="#ffbe11" stroke="none" /><path d="M 85.08716467003674 85.21462403516908 l -30.79987598298943 -30.536630761535214 a64.37185929648241,64.37185929648241 0 0,0 0.7847483855312278,-0.7780411746759257 l 30.271135677328225 31.060851946439815" fill="#32ff49" stroke="none" /><path d="M 85.60350026404147 84.71141617570332 l -7.151404020745524 -7.594543245778808 a31.43166652936815,31.43166652936815 0 0,0 0.3959944381742139,-0.36652654012035996 l 7.019979811257357 7.716187532031534" fill="#ff3605" stroke="none" /><path d="M 86.13680546590413 84.22622945171909 l -41.58958360228762 -47.32131164484273 a84.0,84.0 0 0,0 1.0912820809486057,-0.9426234701411573 l 40.77112204157617 48.0282792474486" fill="#4dd2ff" stroke="none" /><path d="M 86.68645165197937 83.75963576809568 l -20.25164101212628 -24.70370916402613 a52.94373506878655,52.94373506878655 0 0,0 0.7078053730989426,-0.5701579056550637 l 19.824584868672094 25.047715363474595" fill="#9cff22" stroke="none" /><path d="M 86.96720088162412 83.53348406188908 l -13.176665588584493 -16.64828652347272 a42.23181481176374,42.23181481176374 0 0,0 0.5723216435920923,-0.44504077171373013 l 12.888934000357157 16.87202834680725" fill="#ffd614" stroke="none" /><line stroke="#e1ed5e" stroke-width="0.3" x1="56.869717070023135" x2="54.33264160355391" y1="26.7553504044142" y2="22.446841604673864" /><path d="M 56.362301976729285 25.89364864446614 a86.0,86.0 0 0,1 42.16139366436587,-11.88097634709845" fill="none" id="id12" stroke="none" /><text fill="#e1ed5e" style="font-size:6.75px; font-family:Arial;" text-anchor="middle"><textPath startOffset="22.145653131862474" xlink:href="#id12">December</textPath></text></svg>