<?xml version="1.0" encoding="utf-8" ?>
<svg baseProfile="full" height="200mm" version="1.1" viewBox="0,0,200,200" width="200mm" xmlns="http://www.w3.org/2000/svg" xmlns:ev="http://www.w3.org/2001/xml-events" xmlns:xlink="http://www.w3.org/1999/xlink"><defs /><rect fill="#1a1a1a" height="200" width="200" x="0" y="0" /><text alignment-baseline="middle" fill="#e1ed5e" style="dominant-baseline: central; font-size:9.0px; font-family:Arial;" text-anchor="middle" x="100.0" y="100.0">2014</text><line stroke="#e1ed5e" stroke-width="0.3" x1="100.0" x2="100.0" y1="15.0" y2="10.0" /><path d="M 100.0 14.0 a86.0,86.0 0 0,1 42.46469731375804,11.215312516191453" fill="none" id="id1" stroke="none" /><text fill="#e1ed5e" style="font-size:6.75px; font-family:Arial;" text-anchor="middle"><textPath startOffset="22.20632615414155" xlink:href="#id1">January</textPath></text><line stroke="#e1ed5e" stroke-width="0.3" x1="143.23703022742887" x2="145.7803849466894" y1="26.81831364943548" y2="22.513508569990506" /><path d="M 143.74570117128098 25.957352633546492 a86.0,86.0 0 0,1 28.547481713284135,27.462654790039103" fill="none" id="id2" stroke="none" /><text fill="#e1ed5e" style="font-size:6.75px; font-family:Arial;" text-anchor="middle"><textPath startOffset="19.985693538727396" xlink:href="#id2">February</textPath></text><line stroke="#e1ed5e" stroke-width="0.3" x1="172.23445277983987" x2="176.4835382374775" y1="55.19839476539836" y2="52.563006222186495" /><path d="M 173.08426987136738 54.67131705675599 a86.0,86.0 0 0,1 12.851231095245387,41.99856678651699" fill="none" id="id3" stroke="none" /><text fill="#e1ed5e" style="font-size:6.75px; font-family:Arial;" text-anchor="middle"><textPath startOffset="22.20632615414155" xlink:href="#id3">March</textPath></text><line stroke="#e1ed5e" stroke-width="0.3" x1="184.98032266829074" x2="189.97916517819016" y1="98.17113171792111" y2="98.06355123074" /><path d="M 185.9800911702706 98.14961562048488 a86.0,86.0 0 0,1 -9.607161424134198,41.387399972396054" fill="none" id="id4" stroke="none" /><text fill="#e1ed5e" style="font-size:6.75px; font-family:Arial;" text-anchor="middle"><textPath startOffset="21.466115282336823" xlink:href="#id4">April</textPath></text><line stroke="#e1ed5e" stroke-width="0.3" x1="174.80103733775053" x2="179.2010983576182" y1="140.37084112569926" y2="142.7455964860345" /><path d="M 175.68104954172406 140.8457921977663 a86.0,86.0 0 0,1 -30.038265399797805,32.042727171017184" fill="none" id="id5" stroke="none" /><text fill="#e1ed5e" style="font-size:6.75px; font-family:Arial;" text-anchor="middle"><textPath startOffset="22.206326154141568" xlink:href="#id5">May</textPath></text><line stroke="#e1ed5e" stroke-width="0.3" x1="143.8653032363475" x2="146.44561519142675" y1="172.8068346515853" y2="177.08958963109032" /><path d="M 144.38136562736335 173.6633856474863 a86.0,86.0 0 0,1 -40.68145358897372,12.25698825130547" fill="none" id="id6" stroke="none" /><text fill="#e1ed5e" style="font-size:6.75px; font-family:Arial;" text-anchor="middle"><textPath startOffset="21.466115282336833" xlink:href="#id6">June</textPath></text><line stroke="#e1ed5e" stroke-width="0.3" x1="102.19456741930631" x2="102.32365962044197" y1="184.97166512339345" y2="189.96999836594603" /><path d="M 102.22038585953345 185.97133177190398 a86.0,86.0 0 0,1 -42.740103519485714,-10.115201625700543" fill="none" id="id7" stroke="none" /><text fill="#e1ed5e" style="font-size:6.75px; font-family:Arial;" text-anchor="middle"><textPath startOffset="22.20632615414155" xlink:href="#id7">July</textPath></text><line stroke="#e1ed5e" stroke-width="0.3" x1="58.666819895761336" x2="56.23545636021788" y1="174.27360380694188" y2="178.64263932499728" /><path d="M 58.180547188652646 175.14741091055294 a86.0,86.0 0 0,1 -31.652253787137756,-30.449443065178592" fill="none" id="id8" stroke="none" /><text fill="#e1ed5e" style="font-size:6.75px; font-family:Arial;" text-anchor="middle"><textPath startOffset="22.20632615414155" xlink:href="#id8">August</textPath></text><line stroke="#e1ed5e" stroke-width="0.3" x1="26.63291911575756" x2="22.317208475507996" y1="142.92168965132927" y2="145.44649492493687" /><path d="M 25.769776987707644 143.4266507060508 a86.0,86.0 0 0,1 -11.730757126820373,-40.83630448921669" fill="none" id="id9" stroke="none" /><text fill="#e1ed5e" style="font-size:6.75px; font-family:Arial;" text-anchor="middle"><textPath startOffset="21.46611528233685" xlink:href="#id9">September</textPath></text><line stroke="#e1ed5e" stroke-width="0.3" x1="15.007084014347285" x2="10.007500721073583" y1="101.09737516637583" y2="101.16192664675087" /><path d="M 14.007167355692545 101.11028546245083 a86.0,86.0 0 0,1 10.666146001902534,-42.60595125391555" fill="none" id="id10" stroke="none" /><text fill="#e1ed5e" style="font-size:6.75px; font-family:Arial;" text-anchor="middle"><textPath startOffset="22.20632615414155" xlink:href="#id10">October</textPath></text><line stroke="#e1ed5e" stroke-width="0.3" x1="26.266209847984243" x2="21.928928074336255" y1="57.711370442889674" y2="55.22380399835377" /><path d="M 25.398753493254645 57.213857153982495 a86.0,86.0 0 0,1 29.58750427330803,-30.492523968695096" fill="none" id="id11" stroke="none" /><text fill="#e1ed5e" style="font-size:6.75px; font-family:Arial;" text-anchor="middle"><textPath startOffset="21.46611528233685" xlink:href="#id11">November</textPath></text><path d="M 82.54541684631803 88.32363383020206 l -14.75985128510656 -9.87370633255783 a38.75790772304143,38.75790772304143 0 0,0 0.37572198925141964,-0.5513256575680835 l 14.5877048301864 10.12631001339633" fill="#ff0f01" stroke="none" /><path d="M 83.17141714833178 87.43820079747576 l -41.64548946767212 -31.08653182474459 a72.9684447900151,72.9684447900151 0 0,0 0.7599978323811941,-1.0000680614691015 l 41.10421569506682 31.798784662094718" fill="#3bff97" stroke="none" /><path d="M 83.6137871275137 86.86637796730984 l -17.494459533833925 -14.021886629421354 a43.42029034221676,43.42029034221676 0 0,0 0.47245722941320856,-0.5791766992889626 l 17.250503812344327 14.320947498318398" fill="#ff6709" stroke="none" /><path d="M 84.07557802195018 86.31012108654704 l -21.557991333482367 -18.532935850321184 a49.42915231881916,49.42915231881916 0 0,0 0.5602162108728125,-0.6404239721917103 l 21.23578325903171 18.901275378715837" fill="#ffd213" stroke="none" /><path d="M 84.5562425177563 85.77008943001954 l -22.542101331408148 -20.770339496342118 a51.65213426873865,51.65213426873865 0 0,0 0.6080997848191354,-0.6486784519136997 l 22.181234224618557 21.155287365133866" fill="#fff717" stroke="none" /><path d="M 85.31137513191541 84.99185889309783 l -15.030117837145351 -15.357062446558341 a42.488224896113856,42.488224896113856 0 0,0 0.5270902159333944,-0.5070603701148892 l 14.76354437759953 15.613505903435545" fill="#ff5608" stroke="none" /><path d="M 85.57189188830299 84.74124197986013 l -19.342751410669777 -20.45634541508952 a49.15322539028915,49.15322539028915 0 0,0 0.6197803128287177,-0.5760182546756836 l 18.987763214046204 20.78626825583985" fill="#ffcd13" stroke="none" /><path d="M 85.83668400450813 84.49514656593479 l -19.06268520444497 -20.868286794470993 a49.26431249721206,49.26431249721206 0 0,0 0.6310266078756437,-0.5665419190655581 l 18.70064760897336 21.19332772230583" fill="#ffcf13" stroke="none" /><path d="M 86.10567301691215 84.25364557470407 l -20.361943619935236 -23.07606416760305 a51.77520894240614,51.77520894240614 0 0,0 0.6733395542157211,-0.5839134262177224 l 19.96171026707274 23.423142587240456" fill="#fff917" stroke="none" /><path d="M 86.37877921826538 84.01681056812374 l -11.030455341593198 -12.943175950935872 a38.00578574308658,38.00578574308658 0 0,0 0.5015722414592068,-0.42005232777662577 l 10.806025563174881 13.131129436106312" fill="#ff0000" stroke="none" /><path d="M 86.65592168130627 83.78471172551755 l -36.06466977462622 -43.82460916017951 a77.75611662187018,77.75611662187018 0 0,0 1.0408085772966695,-0.8415948194557138 l 35.304957798765045 44.43891007689936" fill="#43ffdb" stroke="none" /><path d="M 87.80319425747018 82.90503203632743 l -18.376593976068747 -25.75652116905438 a52.640126246480634,52.640126246480634 0 0,0 0.7421477233317989,-0.5199219077304615 l 17.930515113153287 26.069027919548788" fill="#f7ff18" stroke="none" /><path d="M 88.09926311788651 82.69761687909137 l -19.102446262489533 -27.77288894412271 a54.708111983821844,54.708111983821844 0 0,0 0.7804901680111601,-0.5269904454741803 l 18.621551400071834 28.09759130189555" fill="#d6ff1c" stroke="none" /><path d="M 88.39885842347998 82.49532879139004 l -18.16657890780516 -27.411094733126074 a53.88453593532868,53.88453593532868 0 0,0 0.7775614851769576,-0.5057476192389275 l 17.692050396843918 27.719741276524534" fill="#e3ff1b" stroke="none" /><path d="M 89.00827224532344 82.1063720568725 l -32.97518326402967 -53.68088382938249 a84.0,84.0 0 0,0 1.2385517351294033,-0.746213562165523 l 32.046269462682616 54.240544001006626" fill="#4dd2ff" stroke="none" /><line stroke="#e1ed5e" stroke-width="0.3" x1="56.762969772571076" x2="54.21961505331055" y1="26.818313649435495" y2="22.513508569990535" /><path d="M 56.25429882871897 25.957352633546506 a86.0,86.0 0 0,1 42.265352541879196,-11.944610805530505" fill="none" id="id12" stroke="none" /><text fill="#e1ed5e" style="font-size:6.75px; font-family:Arial;" text-anchor="middle"><textPath startOffset="22.20632615414155" xlink:href="#id12">December</textPath></text><path d="M 89.3179101791058 81.91981866633112 l -16.570852517514965 -28.04732251774624 a53.57676247836343,53.57676247836343 0 0,0 0.7980469698648339,-0.4622803153133507 l 16.08560881518481 28.32840699044964" fill="#e8ff1a" stroke="none" /><path d="M 89.63071344664047 81.73862282372117 l -16.022947912324664 -28.218054713516512 a53.44986088746885,53.44986088746885 0 0,0 0.8039773093715079,-0.4474125022174834 l 15.53484651388111 28.48968261329418" fill="#eaff1a" stroke="none" /><path d="M 89.94658935756843 81.56283822128135 l -15.401273701425565 -28.24472061581173 a53.17084820596875,53.17084820596875 0 0,0 0.8073232538459384,-0.43124412282965563 l 14.91280540105132 28.505643465143137" fill="#eeff19" stroke="none" /><path d="M 90.26544431104013 81.39251694778311 l -15.071886496084753 -28.809725014866025 a53.51402801842705,53.51402801842705 0 0,0 0.8198846324671407,-0.41997675324156203 l 14.573741376028849 29.064894293420092" fill="#e9ff1a" stroke="none" /><path d="M 90.91171255644093 81.06846463323043 l -13.128028863280012 -27.3465979442909 a51.33449457238093,51.33449457238093 0 0,0 0.7998935779050014,-0.3755607602282943 l 12.655357074075402 27.568523687159203" fill="#fff216" stroke="none" /><path d="M 91.23893434514133 80.91482961587045 l -25.222564717623833 -54.945022001247686 a81.45769772040873,81.45769772040873 0 0,0 1.2793431093675747,-0.5740039612166943 l 24.273039489789483 55.371046292980914" fill="#49f2ff" stroke="none" /><path d="M 91.90106846888425 80.62456947434976 l -12.546473036097698 -30.015479908541096 a53.53218436849208,53.53218436849208 0 0,0 0.8532421716334788,-0.34805890544434676 l 12.027946994875839 30.226999700169017" fill="#e9ff1a" stroke="none" /><path d="M 92.23578459929587 80.48803036053334 l -12.5326635411863 -31.495384645704284 a54.89729944136325,54.89729944136325 0 0,0 0.8810149575139656,-0.3418201161268285 l 11.988665418672658 31.706447465721663" fill="#d3ff1c" stroke="none" /><path d="M 92.57280143429618 80.3572730644239 l -11.461939432571073 -30.31341419438283 a53.40801036281213,53.40801036281213 0 0,0 0.862711479066078,-0.31774391846170563 l 10.938445627732426 30.50622138065086" fill="#ebff1a" stroke="none" /><path d="M 93.94186890950719 79.89281104454417 l -9.972621256879927 -33.09954456217756 a55.569249701964196,55.569249701964196 0 0,0 0.9182415828738777,-0.26805989788300333 l 9.401389456282628 33.26630278897927" fill="#c8ff1d" stroke="none" /><path d="M 94.63758080256005 79.69619591428918 l -7.741870022960634 -29.31315259319402 a51.318269515331735,51.318269515331735 0 0,0 0.8560158885375367,-0.21821750997704237 l 7.236145245738098 29.442073099339922" fill="#fff116" stroke="none" /><path d="M 95.692805502759 79.44645832069477 l -12.34525857402557 -58.91045477643704 a81.19009130435163,81.19009130435163 0 0,0 1.3703093131758273,-0.27487115702235526 l 11.329382851382606 59.11422988953661" fill="#48f5ff" stroke="none" /><path d="M 96.75951476605007 79.25152402106235 l -4.695658917203391 -30.065795464255654 a51.43026896964875,51.43026896964875 0 0,0 0.8758599775449671,-0.12907899313264043 l 4.177429959229776 30.142168941549265" fill="#fff316" stroke="none" /><path d="M 97.47563105711357 79.15227682838746 l -3.6623208903141036 -30.245599519846856 a51.46652071731512,51.46652071731512 0 0,0 0.8804041855317383,-0.09892366842571973 l 3.1411500012726474 30.304159141743174" fill="#fff417" stroke="none" /><path d="M 98.19473922651362 79.07773832637324 l -3.0312789977602566 -35.13133023681004 a56.26186348691835,56.26186348691835 0 0,0 0.9655870269258309,-0.07494813713500349 l 2.4261017814720915 35.1783036361335" fill="#beff1f" stroke="none" /><path d="M 98.55514903715128 79.0497635885617 l -4.165027410803024 -60.39260183929476 a81.53605380475614,81.53605380475614 0 0,0 1.4010144095528794,-0.08451301518861758 l 3.124850952410522 60.455348123863686" fill="#49f1ff" stroke="none" /></svg>