<?xml version="1.0" encoding="utf-8" ?>
<svg baseProfile="full" height="200mm" version="1.1" viewBox="0,0,200,200" width="200mm" xmlns="http://www.w3.org/2000/svg" xmlns:ev="http://www.w3.org/2001/xml-events" xmlns:xlink="http://www.w3.org/1999/xlink"><defs /><rect fill="#1a1a1a" height="200" width="200" x="0" y="0" /><text alignment-baseline="middle" fill="#e1ed5e" style="dominant-baseline: central; font-size:9.0px; font-family:Arial;" text-anchor="middle" x="100.0" y="100.0">2013</text><line stroke="#e1ed5e" stroke-width="0.3" x1="100.0" x2="100.0" y1="15.0" y2="10.0" /><path d="M 100.0 14.0 a86.0,86.0 0 0,1 42.46469731375804,11.215312516191453" fill="none" id="id1" stroke="none" /><text fill="#e1ed5e" style="font-size:6.75px; font-family:Arial;" text-anchor="middle"><textPath startOffset="22.20632615414155" xlink:href="#id1">January</textPath></text><line stroke="#e1ed5e" stroke-width="0.3" x1="143.23703022742887" x2="145.7803849466894" y1="26.81831364943548" y2="22.513508569990506" /><path d="M 143.74570117128098 25.957352633546492 a86.0,86.0 0 0,1 28.547481713284135,27.462654790039103" fill="none" id="id2" stroke="none" /><text fill="#e1ed5e" style="font-size:6.75px; font-family:Arial;" text-anchor="middle"><textPath startOffset="19.985693538727396" xlink:href="#id2">February</textPath></text><line stroke="#e1ed5e" stroke-width="0.3" x1="172.23445277983987" x2="176.4835382374775" y1="55.19839476539836" y2="52.563006222186495" /><path d="M 173.08426987136738 54.67131705675599 a86.0,86.0 0 0,1 12.851231095245387,41.99856678651699" fill="none" id="id3" stroke="none" /><text fill="#e1ed5e" style="font-size:6.75px; font-family:Arial;" text-anchor="middle"><textPath startOffset="22.20632615414155" xlink:href="#id3">March</textPath></text><line stroke="#e1ed5e" stroke-width="0.3" x1="184.98032266829074" x2="189.97916517819016" y1="98.17113171792111" y2="98.06355123074" /><path d="M 185.9800911702706 98.14961562048488 a86.0,86.0 0 0,1 -9.607161424134198,41.387399972396054" fill="none" id="id4" stroke="none" /><text fill="#e1ed5e" style="font-size:6.75px; font-family:Arial;" text-anchor="middle"><textPath startOffset="21.466115282336823" xlink:href="#id4">April</textPath></text><line stroke="#e1ed5e" stroke-width="0.3" x1="174.80103733775053" x2="179.2010983576182" y1="140.37084112569926" y2="142.7455964860345" /><path d="M 175.68104954172406 140.8457921977663 a86.0,86.0 0 0,1 -30.038265399797805,32.042727171017184" fill="none" id="id5" stroke="none" /><text fill="#e1ed5e" style="font-size:6.75px; font-family:Arial;" text-anchor="middle"><textPath startOffset="22.206326154141568" xlink:href="#id5">May</textPath></text><path d="M 114.29624159901734 115.38237550388516 l 15.937687463300927 17.14852757111414 a44.41114861631358,44.41114861631358 0 0,0 -0.5644455035422932,0.5156075846121676 l -15.64014241029177 -17.42032792231289" fill="#ffd513" stroke="none" /><path d="M 114.0293411484842 115.62618273729858 l 24.810081082414477 27.63400338032913 a58.1372894290903,58.1372894290903 0 0,0 -0.7504074705256156,0.6621473443583306 l -24.330731258982272 -28.05697386645975" fill="#70ff27" stroke="none" /><path d="M 113.20401910651253 116.32954008644616 l 23.141531846953963 28.619359674375264 a57.804867129156186,57.804867129156186 0 0,0 -0.779106405970321,0.6189692487041477 l -22.64546794826629 -29.01346283708454" fill="#74ff27" stroke="none" /><path d="M 112.34349029814194 116.9893568818739 l 21.276756905326828 29.28494353075203 a57.19818092125222,57.19818092125222 0 0,0 -0.8015172162799923,0.5718612522137811 l -20.76951236119795 -29.646849044810033" fill="#7bff26" stroke="none" /><line stroke="#e1ed5e" stroke-width="0.3" x1="143.8653032363475" x2="146.44561519142675" y1="172.8068346515853" y2="177.08958963109032" /><path d="M 144.38136562736335 173.6633856474863 a86.0,86.0 0 0,1 -40.68145358897372,12.25698825130547" fill="none" id="id6" stroke="none" /><text fill="#e1ed5e" style="font-size:6.75px; font-family:Arial;" text-anchor="middle"><textPath startOffset="21.466115282336833" xlink:href="#id6">June</textPath></text><path d="M 109.2508944713604 118.85261126421891 l 9.36209581497933 19.079231047829772 a42.252432694289965,42.252432694289965 0 0,0 -0.6556920267258045,0.3147720191672303 l -9.032291120253294 -19.23755734349656" fill="#ffb510" stroke="none" /><path d="M 108.92500713936063 119.00905698771935 l 12.573816084841402 26.780526085604354 a50.58542594517023,50.58542594517023 0 0,0 -0.7913776843202646,0.3632826802471356 l -12.110970404753719 -26.992995836185564" fill="#d2ff1c" stroke="none" /><path d="M 106.2309692047433 120.05430185196036 l 7.521361030391331 24.207412921607148 a46.34895879728953,46.34895879728953 0 0,0 -0.7639302165895158,0.23016590764329864 l -7.103555839361569 -24.33329419835617" fill="#fff116" stroke="none" /><path d="M 105.88484417918355 120.15858648285463 l 8.13986175066016 27.88316938613122 a50.047004739482965,50.047004739482965 0 0,0 -0.8290377656470095,0.23429435360625844 l -7.658692816908545 -28.019152533076" fill="#d9ff1c" stroke="none" /><path d="M 105.18746579009965 120.34920634021253 l 7.532569618684237 29.548496249394425 a51.493494972875794,51.493494972875794 0 0,0 -0.8607915365390485,0.2115616167272642 l -7.022824797401977 -29.673779124435722" fill="#c5ff1e" stroke="none" /><path d="M 103.41894727170886 120.7198165907248 l 5.429836050712398 32.906388472096545 a54.35136461697098,54.35136461697098 0 0,0 -0.9243980097675734,0.14437195792044122 l -4.862602177336307 -32.994978737364086" fill="#a0ff22" stroke="none" /><line stroke="#e1ed5e" stroke-width="0.3" x1="102.19456741930631" x2="102.32365962044197" y1="184.97166512339345" y2="189.96999836594603" /><path d="M 102.22038585953345 185.97133177190398 a86.0,86.0 0 0,1 -42.740103519485714,-10.115201625700543" fill="none" id="id7" stroke="none" /><text fill="#e1ed5e" style="font-size:6.75px; font-family:Arial;" text-anchor="middle"><textPath startOffset="22.20632615414155" xlink:href="#id7">July</textPath></text><line stroke="#e1ed5e" stroke-width="0.3" x1="58.666819895761336" x2="56.23545636021788" y1="174.27360380694188" y2="178.64263932499728" /><path d="M 58.180547188652646 175.14741091055294 a86.0,86.0 0 0,1 -31.652253787137756,-30.449443065178592" fill="none" id="id8" stroke="none" /><text fill="#e1ed5e" style="font-size:6.75px; font-family:Arial;" text-anchor="middle"><textPath startOffset="22.20632615414155" xlink:href="#id8">August</textPath></text><path d="M 82.6465618267979 111.8261652097733 l -8.303219457379683 5.658546974720751 a31.048015088689404,31.048015088689404 0 0,0 -0.29716926742796934,-0.4442277343491358 l 8.399391830218383 -5.514782326165794" fill="#ff0000" stroke="none" /><path d="M 82.44556493220864 111.52570212397912 l -17.73661703429466 11.645317199609226 a42.217940439654974,42.217940439654974 0 0,0 -0.393622257920095,-0.610910485495902 l 17.934444155591798 -11.338285114191875" fill="#ffb410" stroke="none" /><path d="M 82.24976979558568 111.22182372390057 l -21.201867275066302 13.403973607010496 a46.08357399588347,46.08357399588347 0 0,0 -0.41812144650924166,-0.6741449045397958 l 21.4294533612435 -13.037032371105436" fill="#ffed16" stroke="none" /><line stroke="#e1ed5e" stroke-width="0.3" x1="26.63291911575756" x2="22.317208475507996" y1="142.92168965132927" y2="145.44649492493687" /><path d="M 25.769776987707644 143.4266507060508 a86.0,86.0 0 0,1 -11.730757126820373,-40.83630448921669" fill="none" id="id9" stroke="none" /><text fill="#e1ed5e" style="font-size:6.75px; font-family:Arial;" text-anchor="middle"><textPath startOffset="21.46611528233685" xlink:href="#id9">September</textPath></text><path d="M 81.87401531095188 110.60418214915194 l -24.578379374874878 14.37900430201783 a49.47547185583976,49.47547185583976 0 0,0 -0.4237173739377153,-0.7387869567041536 l 24.82224874496497 -13.95379749945537" fill="#e1ff1b" stroke="none" /><path d="M 81.51974371655577 109.97397251340807 l -25.339786315034672 13.676127014981306 a49.79481239080262,49.79481239080262 0 0,0 -0.40060517413516505,-0.7577940174620873 l 25.571443997394724 -13.237917982433093" fill="#dcff1b" stroke="none" /><path d="M 80.58989483394504 108.01547362559985 l -31.312596588362712 12.930650810795225 a54.87743253991163,54.87743253991163 0 0,0 -0.3530379844004105,-0.8762113248474368 l 31.53053718702051 -12.389740118104983" fill="#99ff23" stroke="none" /><path d="M 80.45479744820244 107.68017299344265 l -36.33758977394916 14.27864330845809 a60.04228586174214,60.04228586174214 0 0,0 -0.3697052870573824,-0.9651838428757537 l 36.577989340600055 -13.651035898749178" fill="#59ff2a" stroke="none" /><path d="M 80.20201598880116 107.00284435728193 l -37.042267689875885 13.102406544335139 a60.29125415231053,60.29125415231053 0 0,0 -0.3376573477258985,-0.9813903063924054 l 37.26231586854501 -12.462843534853436" fill="#56ff2b" stroke="none" /><path d="M 79.97269907076064 106.31721596034903 l -32.30344766141088 10.18948363845826 a54.87238266836156,54.87238266836156 0 0,0 -0.27638233405291796,-0.9032334590597658 l 32.47405676796993 -9.631923206846446" fill="#99ff23" stroke="none" /><path d="M 79.86692584326677 105.97154293290107 l -32.38136885025955 9.604431633743408 a54.77570362884851,54.77570362884851 0 0,0 -0.26033421628112524,-0.9062575595151995 l 32.54189570342678 -9.045616598723612" fill="#9aff23" stroke="none" /><path d="M 79.76711848015287 105.62410040840567 l -51.754944320741984 14.386235752222067 a74.71720432749284,74.71720432749284 0 0,0 -0.33377926992032214,-1.2421168323096956 l 51.994911667004075 -13.493227986736832" fill="#40ffc2" stroke="none" /><path d="M 79.35854240842038 103.8639653848113 l -41.81088184728675 7.82676317549664 a63.53713745250241,63.53713745250241 0 0,0 -0.19198368642596447,-1.076746469115813 l 41.93941197605191 -7.105897955647613" fill="#30ff2f" stroke="none" /><path d="M 79.18660465613746 102.79330883721812 l -44.371170718617115 5.954933408910399 a65.76898505489288,65.76898505489288 0 0,0 -0.14092881265889434,-1.1233412979869923 l 44.467101040522856 -5.190274356635999" fill="#32ff4e" stroke="none" /><path d="M 79.0235259727143 100.99374915477108 l -44.90778898282752 2.1274823064292385 a65.9581549030911,65.9581549030911 0 0,0 -0.04396540427206588,-1.1345517283796103 l 44.93775651995078 -1.3541533310356317" fill="#33ff50" stroke="none" /><path d="M 79.0095281055655 100.63252640178507 l -42.748946601241705 1.288195782818737 a63.7683514282546,63.7683514282546 0 0,0 -0.02361839238520855,-1.097453887449776 l 42.764787056311924 -0.5521520795788322" fill="#30ff32" stroke="none" /><line stroke="#e1ed5e" stroke-width="0.3" x1="15.007084014347285" x2="10.007500721073583" y1="101.09737516637583" y2="101.16192664675087" /><path d="M 14.007167355692545 101.11028546245083 a86.0,86.0 0 0,1 10.666146001902534,-42.60595125391555" fill="none" id="id10" stroke="none" /><text fill="#e1ed5e" style="font-size:6.75px; font-family:Arial;" text-anchor="middle"><textPath startOffset="22.20632615414155" xlink:href="#id10">October</textPath></text><path d="M 79.16333360222342 97.38593545837743 l -45.91169108358125 -5.75985243591197 a67.27158175638343,67.27158175638343 0 0,0 0.1540327047883308,-1.1477225639814221 l 45.80574237973509 6.549293341958052" fill="#35ff62" stroke="none" /><path d="M 79.26566170972629 96.67025291283419 l -46.707836682100904 -7.500855873128942 a68.30628759849228,68.30628759849228 0 0,0 0.1964233121208202,-1.159301507023284 l 46.57180150845986 8.303743168468054" fill="#36ff70" stroke="none" /><path d="M 79.32604984820605 96.31383870115002 l -45.27160397463918 -8.071918200581395 a66.98558458771012,66.98558458771012 0 0,0 0.2121665555869652,-1.13340222371422 l 45.12595169514235 8.849998501758188" fill="#34ff5e" stroke="none" /><path d="M 79.91906864156998 93.8553929516997 l -43.60464098439442 -13.342677167154166 a66.60034812767142,66.60034812767142 0 0,0 0.3448772684768019,-1.0933551872836944 l 43.368508232149416 14.091282520864276" fill="#34ff59" stroke="none" /><path d="M 80.2630227832202 92.82701384747504 l -40.870118069900926 -14.853378394652175 a64.48550793979946,64.48550793979946 0 0,0 0.38812725293964356,-1.0399880731486084 l 40.60838622845966 15.554689604830125" fill="#31ff3c" stroke="none" /><path d="M 80.38941819471856 92.48833698450439 l -40.34883723447095 -15.455271617224628 a64.20756978743445,64.20756978743445 0 0,0 0.40422166058668046,-1.0287000356289067 l 40.07682202400258 16.147520657749297" fill="#30ff38" stroke="none" /><path d="M 80.65960295795068 91.81776055985345 l -19.258629990528938 -8.147646686316307 a41.91121650304309,41.91121650304309 0 0,0 0.28681100825152606,-0.6619993507369348 l 19.11552827243473 8.477945181639841" fill="#ffaf10" stroke="none" /><line stroke="#e1ed5e" stroke-width="0.3" x1="26.266209847984243" x2="21.928928074336255" y1="57.711370442889674" y2="55.22380399835377" /><path d="M 25.398753493254645 57.213857153982495 a86.0,86.0 0 0,1 29.58750427330803,-30.492523968695096" fill="none" id="id11" stroke="none" /><text fill="#e1ed5e" style="font-size:6.75px; font-family:Arial;" text-anchor="middle"><textPath startOffset="21.46611528233685" xlink:href="#id11">November</textPath></text><path d="M 82.15384107792192 88.93136811851018 l -41.188575195585656 -25.546179351736555 a69.46757685415587,69.46757685415587 0 0,0 0.6390104192326483,-1.0107610245419447 l 40.74273718010705 26.251388023992714" fill="#38ff80" stroke="none" /><path d="M 84.31358615837235 86.03803664274999 l -28.409278327055294 -25.286168464818847 a59.03258353958212,59.03258353958212 0 0,0 0.6821253241306755,-0.7532198199861008 l 27.969809362308574 25.771441072074502" fill="#65ff29" stroke="none" /><path d="M 85.31137513191541 84.99185889309783 l -44.06587460425377 -45.02442332070654 a84.0,84.0 0 0,0 1.0420670255502897,-1.0024676529507457 l 43.28432433509105 45.776274060419595" fill="#4dd2ff" stroke="none" /><path d="M 86.10567301691215 84.25364557470407 l -37.25660255272556 -42.22267614629183 a77.30993531097685,77.30993531097685 0 0,0 1.0054201314116458,-0.8718904303856796 l 36.524288622667136 42.857731570097194" fill="#43ffe1" stroke="none" /><path d="M 87.22198572758235 83.33499621200491 l -37.910795087501846 -49.4430144050534 a83.30441443128144,83.30441443128144 0 0,0 1.1454509559970287,-0.8627299123682293 l 37.05409797774643 50.088260906927474" fill="#4cd9ff" stroke="none" /><path d="M 88.39885842347998 82.49532879139004 l -26.133493161242487 -39.432171592998486 a68.30597870616762,68.30597870616762 0 0,0 0.9856649468592916,-0.6411038994915015 l 25.450861188598907 39.876174416649526" fill="#36ff70" stroke="none" /><line stroke="#e1ed5e" stroke-width="0.3" x1="56.762969772571076" x2="54.21961505331055" y1="26.818313649435495" y2="22.513508569990535" /><path d="M 56.25429882871897 25.957352633546506 a86.0,86.0 0 0,1 42.265352541879196,-11.944610805530505" fill="none" id="id12" stroke="none" /><text fill="#e1ed5e" style="font-size:6.75px; font-family:Arial;" text-anchor="middle"><textPath startOffset="22.20632615414155" xlink:href="#id12">December</textPath></text><path d="M 89.94658935756843 81.56283822128135 l -24.68156568358502 -45.26404378029711 a72.55592443102708,72.55592443102708 0 0,0 1.1016579004071874,-0.5884674975683506 l 23.89876273664953 45.68219000436721" fill="#3cffa7" stroke="none" /><path d="M 91.23893434514133 80.91482961587045 l -19.244410709599887 -41.92216698332756 a67.1282497840289,67.1282497840289 0 0,0 1.0542903397524581,-0.47302934362116594 l 18.519938251380655 42.24721665746525" fill="#34ff60" stroke="none" /></svg>