<?xml version="1.0" encoding="utf-8" ?>
<svg baseProfile="full" height="200mm" version="1.1" viewBox="0,0,200,200" width="200mm" xmlns="http://www.w3.org/2000/svg" xmlns:ev="http://www.w3.org/2001/xml-events" xmlns:xlink="http://www.w3.org/1999/xlink"><defs /><rect fill="#1a1a1a" height="200" width="200" x="0" y="0" /><text alignment-baseline="middle" fill="#e1ed5e" style="dominant-baseline: central; font-size:9.0px; font-family:Arial;" text-anchor="middle" x="100.0" y="100.0">2019</text><line stroke="#e1ed5e" stroke-width="0.3" x1="100.0" x2="100.0" y1="15.0" y2="10.0" /><path d="M 100.0 14.0 a86.0,86.0 0 0,1 42.46469731375804,11.215312516191453" fill="none" id="id1" stroke="none" /><text fill="#e1ed5e" style="font-size:6.75px; font-family:Arial;" text-anchor="middle"><textPath startOffset="22.20632615414155" xlink:href="#id1">January</textPath></text><line stroke="#e1ed5e" stroke-width="0.3" x1="143.23703022742887" x2="145.7803849466894" y1="26.81831364943548" y2="22.513508569990506" /><path d="M 143.74570117128098 25.957352633546492 a86.0,86.0 0 0,1 28.547481713284135,27.462654790039103" fill="none" id="id2" stroke="none" /><text fill="#e1ed5e" style="font-size:6.75px; font-family:Arial;" text-anchor="middle"><textPath startOffset="19.985693538727396" xlink:href="#id2">February</textPath></text><line stroke="#e1ed5e" stroke-width="0.3" x1="172.23445277983987" x2="176.4835382374775" y1="55.19839476539836" y2="52.563006222186495" /><path d="M 173.08426987136738 54.67131705675599 a86.0,86.0 0 0,1 12.851231095245387,41.99856678651699" fill="none" id="id3" stroke="none" /><text fill="#e1ed5e" style="font-size:6.75px; font-family:Arial;" text-anchor="middle"><textPath startOffset="22.20632615414155" xlink:href="#id3">March</textPath></text><line stroke="#e1ed5e" stroke-width="0.3" x1="184.98032266829074" x2="189.97916517819016" y1="98.17113171792111" y2="98.06355123074" /><path d="M 185.9800911702706 98.14961562048488 a86.0,86.0 0 0,1 -9.607161424134198,41.387399972396054" fill="none" id="id4" stroke="none" /><text fill="#e1ed5e" style="font-size:6.75px; font-family:Arial;" text-anchor="middle"><textPath startOffset="21.466115282336823" xlink:href="#id4">April</textPath></text><line stroke="#e1ed5e" stroke-width="0.3" x1="174.80103733775053" x2="179.2010983576182" y1="140.37084112569926" y2="142.7455964860345" /><path d="M 175.68104954172406 140.8457921977663 a86.0,86.0 0 0,1 -30.038265399797805,32.042727171017184" fill="none" id="id5" stroke="none" /><text fill="#e1ed5e" style="font-size:6.75px; font-family:Arial;" text-anchor="middle"><textPath startOffset="22.206326154141568" xlink:href="#id5">May</textPath></text><line stroke="#e1ed5e" stroke-width="0.3" x1="143.8653032363475" x2="146.44561519142675" y1="172.8068346515853" y2="177.08958963109032" /><path d="M 144.38136562736335 173.6633856474863 a86.0,86.0 0 0,1 -40.68145358897372,12.25698825130547" fill="none" id="id6" stroke="none" /><text fill="#e1ed5e" style="font-size:6.75px; font-family:Arial;" text-anchor="middle"><textPath startOffset="21.466115282336833" xlink:href="#id6">June</textPath></text><path d="M 107.59598834532513 119.57807347666477 l 3.192422598730064 8.22822276247543 a29.82582641330551,29.82582641330551 0 0,0 -0.48023810003682654,0.18158495709318945 l -3.050314277932962 -8.28195596967525" fill="#ff2103" stroke="none" /><path d="M 106.91757812671514 119.82793768551818 l 15.837616645092456 45.3955517630181 a69.07895819239187,69.07895819239187 0 0,0 -1.126086581258078,0.3820297082216107 l -15.053860330897152 -45.66144445813783" fill="#39ff86" stroke="none" /><path d="M 105.53697534728816 120.25689768951611 l 9.096480435117929 33.27926565523125 a55.50007940364685,55.50007940364685 0 0,0 -0.9237051512521591,0.243958925871171 l -8.522284841054272 -33.43091593040601" fill="#7cff26" stroke="none" /><line stroke="#e1ed5e" stroke-width="0.3" x1="102.19456741930631" x2="102.32365962044197" y1="184.97166512339345" y2="189.96999836594603" /><path d="M 102.22038585953345 185.97133177190398 a86.0,86.0 0 0,1 -42.740103519485714,-10.115201625700543" fill="none" id="id7" stroke="none" /><text fill="#e1ed5e" style="font-size:6.75px; font-family:Arial;" text-anchor="middle"><textPath startOffset="22.20632615414155" xlink:href="#id7">July</textPath></text><path d="M 98.01472825383883 120.90594882070398 l -2.9423382222962795 30.984358895688025 a52.123750583616804,52.123750583616804 0 0,0 -0.8924762691680374,-0.0925088144145623 l 3.47524708806991 -30.929120712817703" fill="#a4ff21" stroke="none" /><path d="M 97.65516085044442 120.86867818915974 l -0.7564091402086481 6.731915461811128 a27.774277863533715,27.774277863533715 0 0,0 -0.47463936522729033,-0.05747221712357677 l 0.8721759284873277 -6.717897715962203" fill="#ff0000" stroke="none" /><path d="M 95.86986931433489 120.58985236759428 l -5.7688310172394575 28.759230159670203 a50.33211091419007,50.33211091419007 0 0,0 -0.8479966955106476,-0.17770595246169407 l 6.263019174179492 -28.655668226481968" fill="#bbff1f" stroke="none" /><path d="M 95.16358092515715 120.4354850818985 l -6.6748678802094785 28.203544994515685 a49.98264672999902,49.98264672999902 0 0,0 -0.8355354264003173,-0.20535427933327052 l 7.159356591353006 -28.084469456868383" fill="#bfff1e" stroke="none" /><path d="M 93.76903079525671 120.05430185196036 l -13.736066000028746 44.209368522208116 a67.29414406044842,67.29414406044842 0 0,0 -1.1032351143041745,-0.353221044583564 l 14.49502245942386 -43.96637463096484" fill="#36ff70" stroke="none" /><path d="M 93.08242187328487 119.8279376855182 l -3.431140778846957 9.834720231128584 a31.416066871369267,31.416066871369267 0 0,0 -0.5090606208702583,-0.18253102713470876 l 3.5999209603469415 -9.774201662953917" fill="#ff3a05" stroke="none" /><path d="M 92.7421414339146 119.70592522655815 l -4.350055462455959 11.810903573555434 a33.58651761808116,33.58651761808116 0 0,0 -0.5407905613158405,-0.20448071668076523 l 4.552716244532083 -11.734274606768036" fill="#ff5b08" stroke="none" /><path d="M 92.40401165467489 119.57807347666478 l -4.489755512541042 11.571998181235628 a33.412455295746824,33.412455295746824 0 0,0 -0.5344066443588078,-0.21265143268656167 l 4.688283232941708 -11.492999904143" fill="#ff5808" stroke="none" /><path d="M 91.7346041902142 119.30500536409082 l -5.880546501649916 13.73485122439396 a35.940781951233454,35.940781951233454 0 0,0 -0.5666309447946443,-0.24839435444947414 l 6.116098121102303 -13.631592316650034" fill="#ff7e0b" stroke="none" /><path d="M 91.40352486487194 119.15986991738527 l -6.386727438813871 14.234772392399433 a36.60189195069351,36.60189195069351 0 0,0 -0.5726139486316999,-0.2628589788761786 l 6.63080938321299 -14.12272634318918" fill="#ff880c" stroke="none" /><line stroke="#e1ed5e" stroke-width="0.3" x1="58.666819895761336" x2="56.23545636021788" y1="174.27360380694188" y2="178.64263932499728" /><path d="M 58.180547188652646 175.14741091055294 a86.0,86.0 0 0,1 -31.652253787137756,-30.449443065178592" fill="none" id="id8" stroke="none" /><text fill="#e1ed5e" style="font-size:6.75px; font-family:Arial;" text-anchor="middle"><textPath startOffset="22.20632615414155" xlink:href="#id8">August</textPath></text><path d="M 87.65650970185807 116.9893568818739 l -16.976791368107627 23.366548706674426 a49.88264260100938,49.88264260100938 0 0,0 -0.6903164597663107,-0.5106796137993763 l 17.376492798292503 -23.070859144135284" fill="#c0ff1e" stroke="none" /><path d="M 84.67929136418377 114.36230785411682 l -21.192022080814773 19.866335977721413 a50.04777280710948,50.04777280710948 0 0,0 -0.5837800819483403,-0.6335779809884508 l 21.53084857075884 -19.498606741931617" fill="#beff1f" stroke="none" /><path d="M 84.19399662182784 113.82643327865904 l -9.396876100651589 8.21999573990409 a33.484775144752845,33.484775144752845 0 0,0 -0.3757589561047247,-0.43709255698112087 l 9.536977566327094 -8.05702608376144" fill="#ff5908" stroke="none" /><path d="M 83.95833913139862 113.55231037782056 l -22.205034224938082 18.759249321590104 a50.06841894634537,50.06841894634537 0 0,0 -0.5505237244627331,-0.6631412906684783 l 22.52465394929435 -18.374246773807865" fill="#beff1f" stroke="none" /><path d="M 83.06392112726016 112.41649034213515 l -23.323975769881862 17.099703069585544 a49.92071387054665,49.92071387054665 0 0,0 -0.5021077880235598,-0.6973838019765537 l 23.614863350281027 -16.69568566215785" fill="#c0ff1e" stroke="none" /><path d="M 82.85270091963577 112.12312394758628 l -20.14847944061983 14.244955574008669 a45.67549357306882,45.67549357306882 0 0,0 -0.44835737190829483,-0.6458922343068446 l 20.39069771969026 -13.896022077514811" fill="#f7ff19" stroke="none" /><line stroke="#e1ed5e" stroke-width="0.3" x1="26.63291911575756" x2="22.317208475507996" y1="142.92168965132927" y2="145.44649492493687" /><path d="M 25.769776987707644 143.4266507060508 a86.0,86.0 0 0,1 -11.730757126820373,-40.83630448921669" fill="none" id="id9" stroke="none" /><text fill="#e1ed5e" style="font-size:6.75px; font-family:Arial;" text-anchor="middle"><textPath startOffset="21.46611528233685" xlink:href="#id9">September</textPath></text><path d="M 81.87401531095188 110.60418214915194 l -49.793032218946315 29.130245471702764 a78.68810326920695,78.68810326920695 0 0,0 -0.6738999190248796,-1.175001312013113 l 50.287084134123575 -28.26882431383134" fill="#46fff5" stroke="none" /><path d="M 81.35079622478065 109.6543875284942 l -11.059176504817385 5.725154650591466 a33.45322370865849,33.45322370865849 0 0,0 -0.2603319199241224,-0.5136595757059436 l 11.156087094527773 -5.5339408631828375" fill="#ff5908" stroke="none" /><path d="M 80.87730276802145 108.67885076344099 l -20.095270617245138 9.120253938151514 a43.06805231724549,43.06805231724549 0 0,0 -0.3005717633500946,-0.6777099777263513 l 20.249283465326513 -8.772995623932466" fill="#ffe415" stroke="none" /><path d="M 80.73074385275274 108.34839909993369 l -57.80776844174178 25.045197299801067 a84.0,84.0 0 0,0 -0.5633960752307736,-1.3317018973353647 l 58.23031549816486 -24.046420876799544" fill="#4dd2ff" stroke="none" /><path d="M 79.86692584326677 105.97154293290107 l -28.82708862588348 8.550219207454562 a51.068376862412535,51.068376862412535 0 0,0 -0.2427142872925757,-0.8449202751885377 l 28.96999555006216 -8.052741456761428" fill="#b1ff20" stroke="none" /><path d="M 79.76711848015287 105.62410040840567 l -28.06123694075034 7.800135338312147 a50.125163174494276,50.125163174494276 0 0,0 -0.2239208562419873,-0.833292806679597 l 28.1913458733341 -7.315951598457011" fill="#bdff1f" stroke="none" /><path d="M 79.29508885075956 103.50808413554451 l -57.51216792046727 9.744428383599443 a79.33183816266313,79.33183816266313 0 0,0 -0.21653151365608825,-1.348341942231954 l 57.671381188484645 -8.753007211674277" fill="#47fffc" stroke="none" /><line stroke="#e1ed5e" stroke-width="0.3" x1="15.007084014347285" x2="10.007500721073583" y1="101.09737516637583" y2="101.16192664675087" /><path d="M 14.007167355692545 101.11028546245083 a86.0,86.0 0 0,1 10.666146001902534,-42.60595125391555" fill="none" id="id10" stroke="none" /><text fill="#e1ed5e" style="font-size:6.75px; font-family:Arial;" text-anchor="middle"><textPath startOffset="22.20632615414155" xlink:href="#id10">October</textPath></text><path d="M 79.08570108090925 98.10471618934814 l -10.217692377122631 -0.9259419605456842 a31.2595616878992,31.2595616878992 0 0,0 0.05317530444787823,-0.5354680589805554 l 10.200239946992523 1.10168555023067" fill="#ff3705" stroke="none" /><path d="M 79.3925641242962 95.95851677861259 l -28.916685510113297 -5.671074267179688 a50.467537804076265,50.467537804076265 0 0,0 0.17452324422707843,-0.851037319519866 l 28.814782969971223 6.1679872428629565" fill="#b9ff1f" stroke="none" /><path d="M 79.91906864156998 93.8553929516997 l -28.02243551941775 -8.574644857339782 a50.304972732787675,50.304972732787675 0 0,0 0.26049475828003293,-0.8258395703596337 l 27.870685277369514 9.05573459412583" fill="#bbff1f" stroke="none" /><line stroke="#e1ed5e" stroke-width="0.3" x1="26.266209847984243" x2="21.928928074336255" y1="57.711370442889674" y2="55.22380399835377" /><path d="M 25.398753493254645 57.213857153982495 a86.0,86.0 0 0,1 29.58750427330803,-30.492523968695096" fill="none" id="id11" stroke="none" /><text fill="#e1ed5e" style="font-size:6.75px; font-family:Arial;" text-anchor="middle"><textPath startOffset="21.46611528233685" xlink:href="#id11">November</textPath></text><path d="M 81.96595687620814 89.24020034530311 l -18.810465136712004 -11.223042713902833 a42.9041157415118,42.9041157415118 0 0,0 0.38385740649189043,-0.6309606477634524 l 18.614491931933895 11.54517113487336" fill="#ffe215" stroke="none" /><path d="M 85.31137513191541 84.99185889309783 l -40.19916281625329 -41.073600377428484 a78.47184823104556,78.47184823104556 0 0,0 0.9734872080423739,-0.9364939228438496 l 39.48619236459849 41.75947738703464" fill="#45fff3" stroke="none" /><line stroke="#e1ed5e" stroke-width="0.3" x1="56.762969772571076" x2="54.21961505331055" y1="26.818313649435495" y2="22.513508569990535" /><path d="M 56.25429882871897 25.957352633546506 a86.0,86.0 0 0,1 42.265352541879196,-11.944610805530505" fill="none" id="id12" stroke="none" /><text fill="#e1ed5e" style="font-size:6.75px; font-family:Arial;" text-anchor="middle"><textPath startOffset="22.20632615414155" xlink:href="#id12">December</textPath></text><path d="M 89.3179101791058 81.91981866633112 l -6.517511664546569 -11.031342622565568 a33.81282476091562,33.81282476091562 0 0,0 0.5036553366567588,-0.29174967969413246 l 6.3266595954244895 11.141896459649749" fill="#ff5e08" stroke="none" /><path d="M 96.04723909329186 79.375362276772 l -10.861679901921228 -56.67385868510687 a78.70530606929715,78.70530606929715 0 0,0 1.332761468253911,-0.2435536395264884 l 9.884523312564424 56.85242780598409" fill="#46fff5" stroke="none" /><path d="M 98.55514903715128 79.0497635885617 l -1.8237269855867813 -26.4439118500026 a47.50672469485178,47.50672469485178 0 0,0 0.8162966288204955,-0.049241241859846845 l 1.3682683079266627 26.471386361242754" fill="#dfff1b" stroke="none" /></svg>