<?xml version="1.0" encoding="utf-8" ?>
<svg baseProfile="full" height="200mm" version="1.1" viewBox="0,0,200,200" width="200mm" xmlns="http://www.w3.org/2000/svg" xmlns:ev="http://www.w3.org/2001/xml-events" xmlns:xlink="http://www.w3.org/1999/xlink"><defs /><rect fill="#1a1a1a" height="200" width="200" x="0" y="0" /><text alignment-baseline="middle" fill="#e1ed5e" style="dominant-baseline: central; font-size:9.0px; font-family:Arial;" text-anchor="middle" x="100.0" y="100.0">2023</text><line stroke="#e1ed5e" stroke-width="0.3" x1="100.0" x2="100.0" y1="15.0" y2="10.0" /><path d="M 100.0 14.0 a86.0,86.0 0 0,1 42.46469731375804,11.215312516191453" fill="none" id="id25" stroke="none" /><text fill="#e1ed5e" style="font-size:6.75px; font-family:Arial;" text-anchor="middle"><textPath startOffset="22.20632615414155" xlink:href="#id25">January</textPath></text><line stroke="#e1ed5e" stroke-width="0.3" x1="143.23703022742887" x2="145.7803849466894" y1="26.81831364943548" y2="22.513508569990506" /><path d="M 143.74570117128098 25.957352633546492 a86.0,86.0 0 0,1 28.547481713284135,27.462654790039103" fill="none" id="id26" stroke="none" /><text fill="#e1ed5e" style="font-size:6.75px; font-family:Arial;" text-anchor="middle"><textPath startOffset="19.985693538727396" xlink:href="#id26">February</textPath></text><path d="M 112.19680574252982 82.90503203632743 l 5.847783575185528 -8.196217516829314 a31.06849315068493,31.06849315068493 0 0,0 0.43267268265466874,0.3143551046547824 l -5.988001574193986 8.094343177357857" fill="red" stroke="none" /><path d="M 112.77801427241765 83.33499621200491 l 15.782889774835498 -20.583943034943715 a46.93835616438356,46.93835616438356 0 0,0 0.6369477819609994,0.4971478469188667 l -16.134870111955927 20.309216798801625" fill="red" stroke="none" /><path d="M 113.06298171725822 83.55741782278167 l 14.94190374508303 -18.807611120516846 a45.02054794520548,45.02054794520548 0 0,0 0.6026249058172211,0.4872807640844344 l -15.263432049464742 18.54762425916828" fill="red" stroke="none" /><path d="M 113.34407831869373 83.78471172551755 l 6.245516108064414 -7.589347251755482 a30.82876712328767,30.82876712328767 0 0,0 0.40685525966960623,0.3407295794424067 l -6.375228904693137 7.480716514919257" fill="red" stroke="none" /><path d="M 113.89432698308785 84.25364557470407 l 31.753929931668797 -35.986531460550765 a68.9931506849315,68.9931506849315 0 0,0 0.8837333078752747,0.7934244894542946 l -32.36867422714006 35.43460796232718" fill="red" stroke="none" /><path d="M 114.16331599549186 84.49514656593476 l 10.379964462449513 -11.363146009897129 a36.39041095890411,36.39041095890411 0 0,0 0.4588520917801628,0.4264530118021641 l -10.574024438024521 11.182788412020324" fill="red" stroke="none" /><path d="M 114.94478906791727 85.2469230424477 l 17.810912998750716 -17.582434182288356 a46.02739726027397,46.02739726027397 0 0,0 0.5517495590068843,0.5686264207120781 l -18.11092682146071 17.273243566026164" fill="red" stroke="none" /><path d="M 115.9244219780498 86.31012108654704 l 19.414706247211413 -16.690400319141283 a46.602739726027394,46.602739726027394 0 0,0 0.5177106933573563,0.6128061665765032 l -19.699127554055885 16.353735202935674" fill="red" stroke="none" /><path d="M 116.15771136456269 86.58626213691792 l 19.588458298134224 -16.26186028606525 a46.45890410958904,46.45890410958904 0 0,0 0.5055204593104106,0.6197083097026261 l -19.865477249521046 15.922267806754524" fill="red" stroke="none" /><path d="M 116.38621287248628 86.86637796730983 l 19.229482685977054 -15.41251535343093 a45.64383561643835,45.64383561643835 0 0,0 0.4860979800788726,0.6172950706774143 l -19.49193474664989 15.079227888800476" fill="red" stroke="none" /><path d="M 116.60985879189232 87.15038557335679 l 11.414537662921436 -8.830442790912345 a35.43150684931507,35.43150684931507 0 0,0 0.36903442962187244,0.4856060516527767 l -11.564848032767422 8.632651963378533" fill="red" stroke="none" /><path d="M 117.65298651832404 88.62581576622439 l 10.478941768868152 -6.751798860232098 a33.465753424657535,33.465753424657535 0 0,0 0.30784095392767796,0.48693046094859377 l -10.593610319041787 6.570420751569299" fill="red" stroke="none" /><line stroke="#e1ed5e" stroke-width="0.3" x1="172.23445277983987" x2="176.4835382374775" y1="55.19839476539836" y2="52.563006222186495" /><path d="M 173.08426987136738 54.67131705675599 a86.0,86.0 0 0,1 12.851231095245387,41.99856678651699" fill="none" id="id27" stroke="none" /><text fill="#e1ed5e" style="font-size:6.75px; font-family:Arial;" text-anchor="middle"><textPath startOffset="22.20632615414155" xlink:href="#id27">March</textPath></text><path d="M 117.84615892207809 88.93136811851018 l 14.382863240852886 -8.920609712707547 a37.92465753424658,37.92465753424658 0 0,0 0.3393068574328696,0.5577312588885812 l -14.53428589657198 8.671710680611886" fill="red" stroke="none" /><path d="M 118.03404312379186 89.2402003453031 l 22.110230953142075 -13.191809165690033 a46.74657534246575,46.74657534246575 0 0,0 0.40633976573386044,0.6945663766094796 l -22.334030393346264 12.809263376726658" fill="red" stroke="none" /><path d="M 118.3937258080291 89.86733742301442 l 21.039398698225067 -11.590100344908173 a45.02054794520548,45.02054794520548 0 0,0 0.36807921194945553,0.681994878198222 l -21.235786009392985 11.226224483377491" fill="red" stroke="none" /><path d="M 118.73160827565052 90.50648371742162 l 29.979126486828797 -15.193960991067241 a54.60958904109589,54.60958904109589 0 0,0 0.4177373179133976,0.8421329422367491 l -30.236223817695603 14.675668460331542" fill="red" stroke="none" /><path d="M 118.89224826269711 90.83032412892265 l 31.40081446402625 -15.240922452384257 a55.9041095890411,55.9041095890411 0 0,0 0.41273686296920614,0.8693290944363697 l -31.658509520837214 14.698150942307347" fill="red" stroke="none" /><path d="M 119.196687751892 91.48605970444005 l 24.105429825435174 -10.691020919082124 a47.369863013698634,47.369863013698634 0 0,0 0.3241661613594325,0.7482201944028231 l -24.285886696637284 10.274501580092698" fill="red" stroke="none" /><line stroke="#e1ed5e" stroke-width="0.3" x1="184.98032266829074" x2="189.97916517819016" y1="98.17113171792111" y2="98.06355123074" /><path d="M 185.9800911702706 98.14961562048488 a86.0,86.0 0 0,1 -9.607161424134198,41.387399972396054" fill="none" id="id28" stroke="none" /><text fill="#e1ed5e" style="font-size:6.75px; font-family:Arial;" text-anchor="middle"><textPath startOffset="21.466115282336823" xlink:href="#id28">April</textPath></text><path d="M 120.8583938346157 102.4346265915055 l 18.14394532189174 2.1177916241178054 a39.26712328767123,39.26712328767123 0 0,0 -0.0841410135315785,0.6706866649283643 l -18.104802799113312 -2.429796043333565" fill="red" stroke="none" /><path d="M 120.76222939487914 103.15116336523771 l 9.52787239354043 1.446081818294015 a30.636986301369863,30.636986301369863 0 0,0 -0.08362182411675044,0.5207131785982695 l -9.501568815062393 -1.6098742265854895" fill="red" stroke="none" /><path d="M 120.5718875245553 104.21870165774334 l 14.466076158819702 2.9665755949428023 a35.76712328767123,35.76712328767123 0 0,0 -0.12887398883919055,0.6020563714966619 l -14.412868131256069 -3.2151457858556336" fill="red" stroke="none" /><path d="M 120.49622156327973 104.57218783832717 l 14.78722834245752 3.298656066007727 a36.150684931506845,36.150684931506845 0 0,0 -0.140711263215441,0.6061804391762147 l -14.728256513311527 -3.5527051625325066" fill="red" stroke="none" /><path d="M 120.13307415673323 105.97154293290107 l 23.028927288866086 6.830463491743012 a45.02054794520548,45.02054794520548 0 0,0 -0.2267604123669895,0.7410661478849734 l -22.907940103992964 -7.225856612180042" fill="red" stroke="none" /><path d="M 119.67450827220406 107.3425965602758 l 13.565528534716043 5.062703564391072 a35.47945205479452,35.47945205479452 0 0,0 -0.2184617194082306,0.5703346131129533 l -13.476372535714306 -5.295461744337168" fill="red" stroke="none" /><path d="M 119.12269723197855 108.67885076344098 l 13.185056082323106 5.984047786664788 a35.47945205479452,35.47945205479452 0 0,0 -0.257184437302568,0.5539523977480945 l -13.080097028180706 -6.210120251691713" fill="red" stroke="none" /><line stroke="#e1ed5e" stroke-width="0.3" x1="174.80103733775053" x2="179.2010983576182" y1="140.37084112569926" y2="142.7455964860345" /><path d="M 175.68104954172406 140.8457921977663 a86.0,86.0 0 0,1 -30.038265399797805,32.042727171017184" fill="none" id="id29" stroke="none" /><text fill="#e1ed5e" style="font-size:6.75px; font-family:Arial;" text-anchor="middle"><textPath startOffset="22.206326154141568" xlink:href="#id29">May</textPath></text><path d="M 118.48025628344425 109.97397251340804 l 17.256677671070086 9.313595337862766 a40.60958904109589,40.60958904109589 0 0,0 -0.3372985872022178,0.6122949107695413 l -17.09380267441636 -9.609260767030111" fill="red" stroke="none" /><path d="M 118.30583269289576 110.29060199501025 l 9.320092900720903 5.239279097916175 a31.69178082191781,31.69178082191781 0 0,0 -0.27141445329515324,0.4732339769124514 l -9.22852645127337 -5.398932920686942" fill="red" stroke="none" /><path d="M 118.12598468904814 110.60418214915192 l 21.560817404096074 12.613650455954692 a45.97945205479452,45.97945205479452 0 0,0 -0.4055368497840185,0.6797030866740323 l -21.34049967861383 -12.982915636514829" fill="red" stroke="none" /><path d="M 117.35343817320211 111.8261652097733 l 13.549944874966027 9.234128999412023 a37.397260273972606,37.397260273972606 0 0,0 -0.36709701464277117,0.52883062898202 l -13.388986953161119 -9.466000890581062" fill="red" stroke="none" /><path d="M 117.14729908036423 112.12312394758627 l 23.528599879677873 16.634697471459706 a49.81506849315069,49.81506849315069 0 0,0 -0.501045195711755,0.695907954192408 l -23.238774891590516 -17.037239031103244" fill="red" stroke="none" /><path d="M 116.93607887273984 112.41649034213515 l 25.790786776523912 18.90821702786333 a52.97945205479452,52.97945205479452 0 0,0 -0.5455337906436605,0.73083166242513 l -25.461491719185158 -19.349361569797775" fill="red" stroke="none" /><path d="M 115.07121518719521 114.62390073753431 l 5.746330904706846 5.575779504950298 a29.006849315068493,29.006849315068493 0 0,0 -0.3507886343410981,0.3553470345700865 l -5.649501645310212 -5.6738670335010495" fill="red" stroke="none" /><path d="M 114.0293411484842 115.62618273729858 l 6.085787256191778 6.778481096088423 a30.10958904109589,30.10958904109589 0 0,0 -0.3886397314490021,0.3429293766369923 l -5.968205171836188 -6.8822336144977045" fill="red" stroke="none" /><path d="M 112.92097659922987 116.55440617244103 l 12.183477934890274 15.609519975383897 a40.8013698630137,40.8013698630137 0 0,0 -0.5573686119909517,0.4273664842577783 l -11.912980594405829 -15.816925801469047" fill="red" stroke="none" /><line stroke="#e1ed5e" stroke-width="0.3" x1="143.8653032363475" x2="146.44561519142675" y1="172.8068346515853" y2="177.08958963109032" /><path d="M 144.38136562736335 173.6633856474863 a86.0,86.0 0 0,1 -40.68145358897372,12.25698825130547" fill="none" id="id30" stroke="none" /><text fill="#e1ed5e" style="font-size:6.75px; font-family:Arial;" text-anchor="middle"><textPath startOffset="21.466115282336833" xlink:href="#id30">June</textPath></text><path d="M 106.57524785965236 119.94407469862006 l 5.509397179206433 16.711131083090326 a38.5958904109589,38.5958904109589 0 0,0 -0.6327495826524954,0.2025864347920918 l -5.2209262514629975 -16.80349036454212" fill="red" stroke="none" /><path d="M 106.2309692047433 120.05430185196036 l 7.4117236430850735 23.85454626682956 a45.97945205479452,45.97945205479452 0 0,0 -0.7578399532232973,0.22833096125024924 l -7.00000871542153 -23.978592597185532" fill="red" stroke="none" /><path d="M 101.98527174616119 120.90594882070398 l 1.382438088080281 14.557795411677425 a35.62328767123287,35.62328767123287 0 0,0 -0.6109490226439144,0.05271525241313489 l -1.1316447476948248 -14.579434916369223" fill="red" stroke="none" /><line stroke="#e1ed5e" stroke-width="0.3" x1="102.19456741930631" x2="102.32365962044197" y1="184.97166512339345" y2="189.96999836594603" /><path d="M 102.22038585953345 185.97133177190398 a86.0,86.0 0 0,1 -42.740103519485714,-10.115201625700543" fill="none" id="id31" stroke="none" /><text fill="#e1ed5e" style="font-size:6.75px; font-family:Arial;" text-anchor="middle"><textPath startOffset="22.20632615414155" xlink:href="#id31">July</textPath></text><path d="M 98.01472825383883 120.90594882070398 l -1.364307752498891 14.366873504639038 a35.43150684931507,35.43150684931507 0 0,0 -0.6066673769599693,-0.06288355413514342 l 1.6114077260644535 -14.341260582048134" fill="red" stroke="none" /><path d="M 93.42475214034765 119.94407469862007 l -5.344265383644376 16.21025249476882 a38.06849315068493,38.06849315068493 0 0,0 -0.620571306045303,-0.21053148037189567 l 5.622506422626905 -16.115858027498803" fill="red" stroke="none" /><line stroke="#e1ed5e" stroke-width="0.3" x1="58.666819895761336" x2="56.23545636021788" y1="174.27360380694188" y2="178.64263932499728" /><path d="M 58.180547188652646 175.14741091055294 a86.0,86.0 0 0,1 -31.652253787137756,-30.449443065178592" fill="none" id="id32" stroke="none" /><text fill="#e1ed5e" style="font-size:6.75px; font-family:Arial;" text-anchor="middle"><textPath startOffset="22.20632615414155" xlink:href="#id32">August</textPath></text><path d="M 89.7882731507175 118.34994917583269 l -8.649659043570331 15.54299347998614 a38.78767123287671,38.78767123287671 0 0,0 -0.5806167752528386,-0.3296893581555749 l 8.915924585744378 -15.391800956035933" fill="red" stroke="none" /><path d="M 82.6465618267979 111.8261652097733 l -4.080831351232458 2.781038850700114 a25.938356164383563,25.938356164383563 0 0,0 -0.2482632876091207,-0.3711199301704359 l 4.128097744252309 -2.710382006323857" fill="red" stroke="none" /><path d="M 82.44556493220864 111.52570212397912 l -20.84088181564272 13.683481973673839 a45.93150684931507,45.93150684931507 0 0,0 -0.42824598375522893,-0.6646472768841383 l 21.073332662774995 -13.322713096868252" fill="red" stroke="none" /><path d="M 82.24976979558568 111.22182372390057 l -16.250781534178408 10.273861445854171 a40.226027397260275,40.226027397260275 0 0,0 -0.3649752678506507,-0.5884563424304643 l 16.425221441697015 -9.992608772058443" fill="red" stroke="none" /><line stroke="#e1ed5e" stroke-width="0.3" x1="26.63291911575756" x2="22.317208475507996" y1="142.92168965132927" y2="145.44649492493687" /><path d="M 25.769776987707644 143.4266507060508 a86.0,86.0 0 0,1 -11.730757126820373,-40.83630448921669" fill="none" id="id33" stroke="none" /><text fill="#e1ed5e" style="font-size:6.75px; font-family:Arial;" text-anchor="middle"><textPath startOffset="21.46611528233685" xlink:href="#id33">September</textPath></text><path d="M 81.69416730710424 110.29060199501025 l -21.732952055492678 12.217153053436824 a45.93150684931507,45.93150684931507 0 0,0 -0.38150182590284737,-0.6925366287097855 l 21.940030290847044 -11.841245906329217" fill="red" stroke="none" /><path d="M 81.35079622478065 109.6543875284942 l -15.413268873583121 7.979196998435844 a38.35616438356165,38.35616438356165 0 0,0 -0.29848644787896494,-0.5889420790818539 l 15.548333991248354 -7.712700707651305" fill="red" stroke="none" /><line stroke="#e1ed5e" stroke-width="0.3" x1="15.007084014347285" x2="10.007500721073583" y1="101.09737516637583" y2="101.16192664675087" /><path d="M 14.007167355692545 101.11028546245083 a86.0,86.0 0 0,1 10.666146001902534,-42.60595125391555" fill="none" id="id34" stroke="none" /><text fill="#e1ed5e" style="font-size:6.75px; font-family:Arial;" text-anchor="middle"><textPath startOffset="22.20632615414155" xlink:href="#id34">October</textPath></text><path d="M 79.3925641242962 95.95851677861259 l -24.70069368663126 -4.844243587279429 a46.171232876712324,46.171232876712324 0 0,0 0.15966606857045712,-0.7785884545996424 l 24.61364832214581 5.2687076980424745" fill="red" stroke="none" /><path d="M 79.54389044137918 95.25157060432595 l -10.134647886348677 -2.3525323718293802 a31.404109589041095,31.404109589041095 0 0,0 0.1267637347697861,-0.5255175188655139 l 10.092651351318075 2.526635122354291" fill="red" stroke="none" /><path d="M 79.62865764111835 94.90015583598534 l -13.999484132473462 -3.504687427781759 a35.43150684931507,35.43150684931507 0 0,0 0.15320527568000655,-0.5903624235602504 l 13.937082524923149 3.745146276890873" fill="red" stroke="none" /><path d="M 79.81627453868168 94.20196356495316 l -23.08686405506958 -6.632000579813857 a45.02054794520548,45.02054794520548 0 0,0 0.22037365893175154,-0.7429904243036523 l 22.96928449902612 7.028420390864049" fill="red" stroke="none" /><path d="M 80.02781315780177 93.51064311812611 l -27.40475865790214 -8.904345858461665 a49.81506849315069,49.81506849315069 0 0,0 0.2719966935413893,-0.8132354932961354 l 27.247424670588977 9.374754454680124" fill="red" stroke="none" /><path d="M 80.2630227832202 92.82701384747504 l -33.796193864348986 -12.282510535145477 a56.95890410958904,56.95890410958904 0 0,0 0.3428259106394211,-0.9186029981943891 l 33.57976336520794 12.862436670369208" fill="red" stroke="none" /><path d="M 80.38941819471856 92.48833698450439 l -35.86318727404208 -13.737082363954315 a59.4041095890411,59.4041095890411 0 0,0 0.3739812595812437,-0.9517415135482857 l 35.621412464579144 14.352372882398363" fill="red" stroke="none" /><path d="M 80.52162464483688 92.15188598940014 l -22.23558830498074 -8.959034258675633 a44.97260273972603,44.97260273972603 0 0,0 0.29548780296973665,-0.7155471527735023 l 22.078078815124805 9.340455981902446" fill="red" stroke="none" /><path d="M 80.65960295795068 91.81776055985345 l -31.969058124300716 -13.524980261794742 a55.71232876712329,55.71232876712329 0 0,0 0.3812561533397374,-0.8799917671013051 l 31.731511261118296 14.073271173482647" fill="red" stroke="none" /><path d="M 80.803312248108 91.48605970444005 l -35.06244338245115 -15.550575882301265 a59.35616438356164,59.35616438356164 0 0,0 0.4222701634688828,-0.9304163311724113 l 34.789570902018916 16.151814222315746" fill="red" stroke="none" /><path d="M 81.26839172434947 90.50648371742162 l -34.255749380812944 -17.36143046197553 a59.4041095890411,59.4041095890411 0 0,0 0.47011441167721174,-0.9081114089485031 l 33.95182553597562 17.948514593184367" fill="red" stroke="none" /><path d="M 81.43458229118936 90.18545643968196 l -21.61726719519047 -11.427893186671694 a45.45205479452055,45.45205479452055 0 0,0 0.371607127718924,-0.6885315703214975 l 21.417351968253072 11.798305740325665" fill="red" stroke="none" /><path d="M 81.6062741919709 89.86733742301443 l -21.753310430500182 -11.98337720291901 a45.83561643835617,45.83561643835617 0 0,0 0.38663948612885,-0.6877885034300136 l 21.543813303078903 12.35604921628381" fill="red" stroke="none" /><line stroke="#e1ed5e" stroke-width="0.3" x1="26.266209847984243" x2="21.928928074336255" y1="57.711370442889674" y2="55.22380399835377" /><path d="M 25.398753493254645 57.213857153982495 a86.0,86.0 0 0,1 29.58750427330803,-30.492523968695096" fill="none" id="id35" stroke="none" /><text fill="#e1ed5e" style="font-size:6.75px; font-family:Arial;" text-anchor="middle"><textPath startOffset="21.46611528233685" xlink:href="#id35">November</textPath></text><path d="M 81.78341655067845 89.55222093294921 l -29.570755325268525 -16.959750951308465 a55.08904109589041,55.08904109589041 0 0,0 0.47885578546483243,-0.8185197607428728 l 29.274439865333367 17.46625012440523" fill="red" stroke="none" /><path d="M 81.96595687620814 89.24020034530311 l -20.627980833378366 -12.307442070783432 a45.02054794520548,45.02054794520548 0 0,0 0.4027928434000966,-0.6620855273026417 l 20.413072191692052 12.66069537129315" fill="red" stroke="none" /><path d="M 82.34701348167596 88.62581576622439 l -20.192114716165175 -13.010197034524149 a45.02054794520548,45.02054794520548 0 0,0 0.425344199540897,-0.6478283970889742 l 19.965173881266356 13.35584349559079" fill="red" stroke="none" /><path d="M 82.95767976084542 87.72973835380427 l -27.27549426403507 -19.63802149311235 a54.60958904109589,54.60958904109589 0 0,0 0.5558148044451405,-0.7581307686259376 l 26.9334168470763 20.104614705409787" fill="red" stroke="none" /><path d="M 83.17141714833178 87.43820079747576 l -27.932373820006376 -20.85029228364182 a55.85616438356164,55.85616438356164 0 0,0 0.5817660494039114,-0.7655359271657626 l 27.569331830378356 21.32801298668861" fill="red" stroke="none" /><path d="M 83.39014120810768 87.1503855733568 l -10.618174570159479 -8.214365386895203 a34.42465753424658,34.42465753424658 0 0,0 0.3666159135468694,-0.46556497977559763 l 10.475204576018639 8.395922760623847" fill="red" stroke="none" /><path d="M 83.6137871275137 86.86637796730984 l -18.743133902090488 -15.022704653830525 a45.02054794520548,45.02054794520548 0 0,0 0.4898696710965009,-0.6005222939223991 l 18.481765738917595 15.343111117361007" fill="red" stroke="none" /><path d="M 84.07557802195018 86.31012108654704 l -18.542135179921015 -15.940269967719203 a45.45205479452055,45.45205479452055 0 0,0 0.515140898009599,-0.588895097533356 l 18.265002418333573 16.2570806214555" fill="red" stroke="none" /><path d="M 84.31358615837235 86.03803664274999 l -17.942678846245332 -15.970190963429816 a45.02054794520548,45.02054794520548 0 0,0 0.5202153458025885,-0.5744347779769107 l 17.6651198598267 16.276678528676282" fill="red" stroke="none" /><path d="M 84.5562425177563 85.77008943001954 l -17.6651198598267 -16.276678528676282 a45.02054794520548,45.02054794520548 0 0,0 0.5300262207071732,-0.5653950172408925 l 17.382326317149072 16.578342962795226" fill="red" stroke="none" /><path d="M 85.31137513191541 84.99185889309783 l -17.4385500716986 -17.817884419153273 a45.93150684931507,45.93150684931507 0 0,0 0.5698060562084347,-0.5481529746157616 l 17.12926077187774 18.11542048053135" fill="red" stroke="none" /><path d="M 85.57189188830299 84.74124197986013 l -19.797472545958698 -20.93724559384489 a49.81506849315069,49.81506849315069 0 0,0 0.6281255907240743,-0.5837742809781764 l 19.434139071439766 21.27492446089771" fill="red" stroke="none" /><path d="M 85.83668400450813 84.49514656593479 l -32.368674227140104 -35.434607962327135 a68.9931506849315,68.9931506849315 0 0,0 0.883733307875336,-0.7934244894543557 l 31.753929931668797 35.986531460550765" fill="red" stroke="none" /><path d="M 86.10567301691215 84.25364557470407 l -21.126990344147274 -23.943086865860952 a52.93150684931507,52.93150684931507 0 0,0 0.688377274643749,-0.5969539891887503 l 20.71171927085675 24.303205848469382" fill="red" stroke="none" /><path d="M 86.93701828274178 83.55741782278169 l -4.89116210417888 -6.156583280967587 a28.863013698630137,28.863013698630137 0 0,0 0.39166758400462504,-0.30570276184388245 l 4.78446196501483 6.239864432034691" fill="red" stroke="none" /><path d="M 87.22198572758235 83.33499621200491 l -17.533302688865323 -22.866820266175917 a49.81506849315069,49.81506849315069 0 0,0 0.684966315627929,-0.515902428089994 l 17.137090219479006 23.165239283771765" fill="red" stroke="none" /><path d="M 87.80319425747018 82.90503203632743 l -27.874435041717707 -39.06863683021973 a68.9931506849315,68.9931506849315 0 0,0 0.9727011190390705,-0.6814392951202891 l 27.19780278309498 39.54266096810396" fill="red" stroke="none" /><path d="M 88.09926311788651 82.69761687909137 l -17.280522048000407 -25.12400836734677 a51.49315068493151,51.49315068493151 0 0,0 0.7346241054962935,-0.4960214753224505 l 16.845493248097572 25.41774175496789" fill="red" stroke="none" /><path d="M 88.39885842347998 82.49532879139004 l -15.25629577186195 -23.019841589404876 a48.61643835616438,48.61643835616438 0 0,0 0.7015420909925406,-0.4563024906443641 l 14.857786655085123 23.279043004208777" fill="red" stroke="none" /><path d="M 88.70189139769569 82.29822771554957 l -12.923179017704248 -20.24791761303576 a45.02054794520548,45.02054794520548 0 0,0 0.6568301733389601,-0.41130699428714274 l 12.572729691993047 20.467368948645834" fill="red" stroke="none" /><line stroke="#e1ed5e" stroke-width="0.3" x1="56.762969772571076" x2="54.21961505331055" y1="26.818313649435495" y2="22.513508569990535" /><path d="M 56.25429882871897 25.957352633546506 a86.0,86.0 0 0,1 42.265352541879196,-11.944610805530505" fill="none" id="id36" stroke="none" /><text fill="#e1ed5e" style="font-size:6.75px; font-family:Arial;" text-anchor="middle"><textPath startOffset="22.20632615414155" xlink:href="#id36">December</textPath></text><path d="M 89.3179101791058 81.91981866633112 l -5.389821576295935 -9.12264857246763 a31.595890410958905,31.595890410958905 0 0,0 0.4706332267245526,-0.272621142191687 l 5.231991617106062 9.214073872049363" fill="red" stroke="none" /><path d="M 89.63071344664047 81.73862282372117 l -31.107859660078574 -54.78413152883649 a84.0,84.0 0 0,0 1.2635036437118177,-0.7031384097592617 l 30.16023192729471 55.31148533615593" fill="red" stroke="none" /><path d="M 89.94658935756843 81.56283822128135 l -12.325756883529117 -22.604465468429023 a46.74657534246575,46.74657534246575 0 0,0 0.7097798621801422,-0.3791398211433659 l 11.93483197482067 22.81328401607414" fill="red" stroke="none" /><path d="M 90.91171255644093 81.06846463323043 l -10.83124667931012 -22.56224077957468 a46.02739726027397,46.02739726027397 0 0,0 0.7171984409871596,-0.3367342846246409 l 10.44127002702335 22.745340046839328" fill="red" stroke="none" /><path d="M 91.23893434514133 80.91482961587045 l -10.48127489302727 -22.832486943570512 a46.12328767123287,46.12328767123287 0 0,0 0.7243945251939795,-0.325014707860957 l 10.086698249366517 23.009521981947998" fill="red" stroke="none" /><path d="M 91.56875222667455 80.76684994638697 l -12.55062453928811 -28.630168572958198 a52.26027397260274,52.26027397260274 0 0,0 0.8269970411154429,-0.3540769737912399 l 12.055943740382359 28.841965074712224" fill="red" stroke="none" /><path d="M 92.23578459929587 80.48803036053334 l -10.972715372227992 -27.57513517541064 a50.67808219178082,50.67808219178082 0 0,0 0.8133031840076302,-0.3155489999718883 l 10.496429023220685 27.75992687927308" fill="red" stroke="none" /><path d="M 92.57280143429618 80.3572730644239 l -10.191201684904092 -26.952691525756265 a49.81506849315069,49.81506849315069 0 0,0 0.8046738893203205,-0.29636818435897505 l 9.725745469811203 27.124122977921562" fill="red" stroke="none" /><path d="M 92.91201910852362 80.23233633223022 l -9.725745469811203 -27.124122977921562 a49.81506849315069,49.81506849315069 0 0,0 0.8096561593110653,-0.28247313596820556 l 9.257407306436852 27.287516967061975" fill="red" stroke="none" /><path d="M 93.25333710446033 80.11325718540243 l -3.6813982466529245 -10.85144185545393 a32.45890410958904,32.45890410958904 0 0,0 0.5306523500956367,-0.17494773670433486 l 3.4940630743148784 10.9132033164175" fill="red" stroke="none" /><path d="M 93.59665428221793 80.00007090966166 l -14.677988814276723 -45.84458631666597 a69.13698630136986,69.13698630136986 0 0,0 1.1365285218062309,-0.3531249440625539 l 13.886674919759765 46.09045139561105" fill="red" stroke="none" /><path d="M 94.28887869178378 79.79150937346287 l -13.352027898660769 -47.24542100815984 a70.0958904109589,70.0958904109589 0 0,0 1.1639326163354284,-0.3181467518537792 l 12.536797393101617 47.46825430083991" fill="red" stroke="none" /><path d="M 98.19473922651362 79.07773832637324 l -1.7681663740311808 -20.492352187182373 a41.56849315068493,41.56849315068493 0 0,0 0.7134139402348316,-0.05537465224338648 l 1.415162244434015 20.519752101614223" fill="red" stroke="none" /><path d="M 99.63851952072746 79.00311137660856 l -0.14030064264002728 -8.149477319581152 a29.15068493150685,29.15068493150685 0 0,0 0.501781121912561,-0.004318988534255234 l 1.996342042445685e-15 8.150684931506849" fill="red" stroke="none" /></svg>