<?xml version="1.0" encoding="utf-8" ?>
<svg baseProfile="full" height="200mm" version="1.1" viewBox="0,0,200,200" width="200mm" xmlns="http://www.w3.org/2000/svg" xmlns:ev="http://www.w3.org/2001/xml-events" xmlns:xlink="http://www.w3.org/1999/xlink"><defs /><rect fill="#1a1a1a" height="200" width="200" x="0" y="0" /><text alignment-baseline="middle" fill="#e1ed5e" style="dominant-baseline: central; font-size:9.0px; font-family:Arial;" text-anchor="middle" x="100.0" y="100.0">2022</text><line stroke="#e1ed5e" stroke-width="0.3" x1="100.0" x2="100.0" y1="15.0" y2="10.0" /><path d="M 100.0 14.0 a86.0,86.0 0 0,1 42.46469731375804,11.215312516191453" fill="none" id="id37" stroke="none" /><text fill="#e1ed5e" style="font-size:6.75px; font-family:Arial;" text-anchor="middle"><textPath startOffset="22.20632615414155" xlink:href="#id37">January</textPath></text><path d="M 100.0 79.0 l 0.0 -18.730580918336138 a39.73058091833614,39.73058091833614 0 0,0 0.6838966396255294,0.005886514291131734 l -0.322416160353001 18.727805780653565" fill="#fff216" stroke="none" /><path d="M 100.36148047927253 79.00311137660856 l 0.13619781783264898 -7.911161392549419 a28.91233369016669,28.91233369016669 0 0,0 0.4975308242849677,0.012849753332370657 l -0.27235527731248443 7.907644847074689" fill="#ff6609" stroke="none" /><path d="M 101.08401301168833 79.027996857942 l 0.38543053252414206 -7.456783499814167 a28.46673803333843,28.46673803333843 0 0,0 0.48913711562711115,0.029506086590149045 l -0.5137296969908651 7.449044143843714" fill="#ff6008" stroke="none" /><path d="M 101.44485096284872 79.0497635885617 l 0.4934290879968713 -7.1546867542885995 a28.17168144976296,28.17168144976296 0 0,0 0.4834928750787388,0.03752835248891507 l -0.6165121524379512 7.14513313961122" fill="#ff5c08" stroke="none" /><path d="M 101.80526077348638 79.07773832637324 l 0.18893949256074918 -2.1897343374963025 a23.19787046949075,23.19787046949075 0 0,0 0.39753955652309336,0.03775117103344159 l -0.22660417617408674 2.1861576219476824" fill="#ff1602" stroke="none" /><path d="M 102.88285421437855 79.19881850522331 l 0.8787106294591327 -6.340320365006388 a27.40092139470867,27.40092139470867 0 0,0 0.46663902169447247,0.06877046174156488 l -0.9877186315822609 6.324255419103855" fill="#ff5107" stroke="none" /><path d="M 103.2404852339499 79.25152402106235 l 3.1043912964405767 -19.87708123727749 a41.11804174950298,41.11804174950298 0 0,0 0.6983621234671477,0.11523573416965636 l -3.4460826260465995 19.82069924016821" fill="#fcff18" stroke="none" /><path d="M 103.59715602781102 79.31037775812273 l 1.047955686340421 -6.027485910808414 a27.117907936993426,27.117907936993426 0 0,0 0.4592028746608205,0.08391639019335738 l -1.1515536821041423 6.008554039264317" fill="#ff4d07" stroke="none" /><path d="M 104.66035177308747 79.52364482259891 l 1.3403232991684715 -5.8890266792322885 a27.039627618901974,27.039627618901974 0 0,0 0.4529476433182693,0.10719807302201237 l -1.4414946294492643 5.865082694069408" fill="#ff4c07" stroke="none" /><path d="M 105.01212808612495 79.60689891045804 l 3.0367678484808525 -12.355852176040534 a33.72356247132589,33.72356247132589 0 0,0 0.5625268655038442,0.14340062320006727 l -3.2490036026697218 12.3017485566716" fill="#ffa60f" stroke="none" /><path d="M 105.36241919743992 79.69619591428918 l 3.431981089048187 -12.994558816133939 a34.44012846000918,34.44012846000918 0 0,0 0.5718735947338928,0.15631465609096606 l -3.6551525730057906 12.933557619216678" fill="#ffaf10" stroke="none" /><path d="M 106.0581310904928 79.89281104454417 l 1.104805218750979 -3.6668944531856664 a24.829714023551002,24.829714023551002 0 0,0 0.40817049868283867,0.12682056081293655 l -1.1677610901445359 3.6473337574902094" fill="#ff2d04" stroke="none" /><path d="M 107.76421540070413 80.48803036053334 l 2.248582797841177 -5.65083231453433 a27.081778559412754,27.081778559412754 0 0,0 0.4316527678128958,0.17608200214641714 l -2.34551943524246 5.611289426204334" fill="#ff4d07" stroke="none" /><path d="M 109.08828744355905 81.06846463323043 l 1.3082047035097046 -2.7250814595460846 a24.02282459091604,24.02282459091604 0 0,0 0.3712427060628869,0.18216718357568787 l -1.3549186765830232 2.7021591158355647" fill="#ff2203" stroke="none" /><path d="M 110.05341064243156 81.56283822128135 l 1.153090378012489 -2.1146767600610166 a23.408625172044655,23.408625172044655 0 0,0 0.352105752370995,0.19594646997764928 l -1.1893202194555192 2.094514892523187" fill="#ff1902" stroke="none" /><line stroke="#e1ed5e" stroke-width="0.3" x1="143.23703022742887" x2="145.7803849466894" y1="26.81831364943548" y2="22.513508569990506" /><path d="M 143.74570117128098 25.957352633546492 a86.0,86.0 0 0,1 28.547481713284135,27.462654790039103" fill="none" id="id38" stroke="none" /><text fill="#e1ed5e" style="font-size:6.75px; font-family:Arial;" text-anchor="middle"><textPath startOffset="19.985693538727396" xlink:href="#id38">February</textPath></text><path d="M 110.68208982089419 81.91981866633111 l 4.9069165467978175 -8.305298161952576 a30.646543814038843,30.646543814038843 0 0,0 0.4518729763880776,0.2722484122325747 l -5.049151589403532 8.219603140261388" fill="#ff7d0b" stroke="none" /><path d="M 110.99172775467656 82.1063720568725 l 3.161235358409329 -5.146230929888998 a27.039627618901974,27.039627618901974 0 0,0 0.3944963823532166,0.24703359843841657 l -3.249350893134809 5.091052990127637" fill="#ff4c07" stroke="none" /><path d="M 111.2981086023043 82.29822771554956 l 3.2461112611376635 -5.085977164614047 a27.03360605597186,27.03360605597186 0 0,0 0.3900987641389166,0.2537310874990263 l -3.33317705106086 5.029347152955492" fill="#ff4c07" stroke="none" /><path d="M 111.60114157652 82.49532879139004 l 1.66658852553043 -2.514673576477746 a24.01680302798593,24.01680302798593 0 0,0 0.342634354407016,0.23134824558241823 l -1.709627574343988 2.4856134185966576" fill="#ff2203" stroke="none" /><path d="M 111.90073688211348 82.69761687909136 l 5.4121144369452425 -7.868628506775053 a30.55019880715706,30.55019880715706 0 0,0 0.4307125022060903,0.30174163281807187 l -5.5467580787349835 7.774302031193045" fill="#ff7c0b" stroke="none" /><path d="M 112.19680574252982 82.90503203632743 l 4.224769078885157 -5.921410374326102 a28.27404801957486,28.27404801957486 0 0,0 0.39375608423631203,0.28608054085854023 l -4.326070479475258 5.847810598650887" fill="#ff5d08" stroke="none" /><path d="M 112.48926042617603 83.11751280151076 l 4.308164558616502 -5.823606084583623 a28.2439402049243,28.2439402049243 0 0,0 0.388359350818578,0.29250421150285016 l -4.407770063193463 5.748585283574925" fill="#ff5d08" stroke="none" /><path d="M 113.06298171725822 83.55741782278167 l 3.753185028490422 -4.7241934952514 a27.03360605597186,27.03360605597186 0 0,0 0.3618597517561943,0.29259875359456683 l -3.833948178811107 4.658888644392704" fill="#ff4c07" stroke="none" /><path d="M 113.34407831869373 83.78471172551755 l 2.6822332069327217 -3.2593622152887094 a25.22111561400826,25.22111561400826 0 0,0 0.3328496239002434,0.2787519877737137 l -2.7379403677920826 3.2127090701211762" fill="#ff3304" stroke="none" /><path d="M 113.89432698308785 84.25364557470407 l 7.1872703808372265 -8.14528885816845 a31.862899525921392,31.862899525921392 0 0,0 0.40813189884789486,0.36642484852353807 l -7.3264132672811115 8.020365000875616" fill="#ff8d0d" stroke="none" /><path d="M 114.16331599549186 84.49514656593476 l 2.465151249024188 -2.69864831237888 a24.655088698577764,24.655088698577764 0 0,0 0.31087967198676963,0.28892877422109275 l -2.5112388048058043 2.655814952083147" fill="#ff2b04" stroke="none" /><path d="M 114.42810811169701 84.74124197986012 l 4.149542868567089 -4.388438874694229 a27.039627618901974,27.039627618901974 0 0,0 0.3354417181525911,0.32269466709266764 l -4.224467830332098 4.31636112083926" fill="#ff4c07" stroke="none" /><path d="M 114.68862486808459 84.99185889309783 l 4.2160441656654335 -4.307754219302192 a27.02758449304175,27.02758449304175 0 0,0 0.3296904550033391,0.3282746594142732 l -4.289570420836095 4.2345437092378" fill="#ff4c07" stroke="none" /><path d="M 114.94478906791727 85.2469230424477 l 2.288342262464011 -2.258987353379606 a24.215514604679615,24.215514604679615 0 0,0 0.2902814475627209,0.29916054817300053 l -2.326887973729841 2.219262609656491" fill="#ff2403" stroke="none" /><path d="M 115.68641384162765 86.03803664274999 l 4.6418734949609295 -4.131579614050891 a27.21425294387521,27.21425294387521 0 0,0 0.30843874415679984,0.3525988035993608 l -4.712304102695577 4.0510652542485825" fill="#ff4f07" stroke="none" /><path d="M 115.9244219780498 86.31012108654704 l 4.269384046531362 -3.670296523955839 a26.630161339654382,26.630161339654382 0 0,0 0.29583495246033614,0.3501752725656438 l -4.331929612478816 3.5962623017610884" fill="#ff4606" stroke="none" /><path d="M 116.15771136456269 86.58626213691792 l 4.739640634829763 -3.9347340478091906 a27.160058877504206,27.160058877504206 0 0,0 0.29552925756205856,0.36228392599833154 l -4.80666838446823 3.852565952202758" fill="#ff4e07" stroke="none" /><path d="M 116.60985879189232 87.15038557335679 l 4.77225450455233 -3.691881496261802 a27.03360605597186,27.03360605597186 0 0,0 0.28156666985448364,0.37050873265444706 l -4.835097114630927 3.609187987726321" fill="#ff4c07" stroke="none" /><path d="M 116.82858285166822 87.43820079747576 l 2.904918625756308 -2.168394379851544 a24.624980883927208,24.624980883927208 0 0,0 0.25063233719202344,0.3418622262636343 l -2.941813575461958 2.118069709916416" fill="#ff2a04" stroke="none" /><path d="M 117.2510076193507 88.02491185347247 l 3.937471918012067 -2.733264881280369 a25.793164092368862,25.793164092368862 0 0,0 0.2500408172475253,0.36690404589443804 l -3.9839372009283256 2.6650828121155246" fill="#ff3b05" stroke="none" /><path d="M 117.45458315368197 88.32363383020206 l 9.12401698152304 -6.103575334782164 a31.977309221593515,31.977309221593515 0 0,0 0.302114559131629,0.46014120044598605 l -9.227728176012594 5.945616070358504" fill="#ff8f0d" stroke="none" /><line stroke="#e1ed5e" stroke-width="0.3" x1="172.23445277983987" x2="176.4835382374775" y1="55.19839476539836" y2="52.563006222186495" /><path d="M 173.08426987136738 54.67131705675599 a86.0,86.0 0 0,1 12.851231095245387,41.99856678651699" fill="none" id="id39" stroke="none" /><text fill="#e1ed5e" style="font-size:6.75px; font-family:Arial;" text-anchor="middle"><textPath startOffset="22.20632615414155" xlink:href="#id39">March</textPath></text><path d="M 118.03404312379186 89.2402003453031 l 2.699314835205886 -1.6105144382986074 a24.143255849518276,24.143255849518276 0 0,0 0.2098627515293924,0.3587234703741403 l -2.726637261205606 1.5638115555705716" fill="#ff2303" stroke="none" /><path d="M 118.21658344932153 89.55222093294921 l 5.2286664721586416 -2.9988033852991225 a27.02758449304175,27.02758449304175 0 0,0 0.22798714606026083,0.4055636933518147 l -5.279511259511335 2.908356182012514" fill="#ff4c07" stroke="none" /><path d="M 118.3937258080291 89.86733742301442 l 5.859677331985107 -3.2279557624534485 a27.68995641535403,27.68995641535403 0 0,0 0.2263876785480951,0.4194619860199762 l -5.914373109751667 3.1266127931010135" fill="#ff5507" stroke="none" /><path d="M 118.56541770881063 90.18545643968196 l 3.7157807656225597 -1.9643345900850653 a25.203050925217923,25.203050925217923 0 0,0 0.1994528247312581,0.3852793728217432 l -3.749043023513934 1.9000824950029773" fill="#ff3204" stroke="none" /><path d="M 118.73160827565052 90.50648371742162 l 5.414090784673418 -2.7439586747320934 a27.06973543355253,27.06973543355253 0 0,0 0.2070705690190737,0.4174416315250576 l -5.460521366645899 2.650357454708086" fill="#ff4d07" stroke="none" /><path d="M 119.04729006885535 91.15688171328212 l 2.741743657640327 -1.2729140674985784 a24.02282459091604,24.02282459091604 0 0,0 0.17090258732756136,0.37656119717986847 l -2.7632485619312352 1.2255308614766471" fill="#ff2203" stroke="none" /><path d="M 119.61058180528143 92.48833698450437 l 3.7956327568908566 -1.4538841572085432 a25.064554977825356,25.064554977825356 0 0,0 0.15085927335456537,0.4042278500783667 l -3.8200966187470473 1.3883331701008432" fill="#ff3004" stroke="none" /><path d="M 119.85752413597 93.16781622104841 l 6.690412580220047 -2.301904708365607 a28.075336442881174,28.075336442881174 0 0,0 0.15329495499089535,0.4583324036726205 l -6.729044828982713 2.1863992017706724" fill="#ff5a08" stroke="none" /><path d="M 119.97218684219823 93.5106431181261 l 6.769132755623462 -2.199424558717392 a28.117487383391957,28.117487383391957 0 0,0 0.14560107443621545,0.46159519504436364 l -6.805989313827884 2.0825791972466092" fill="#ff5b08" stroke="none" /><path d="M 120.08093135843002 93.85539295169968 l 7.088132694857973 -2.1689128526316206 a28.412543966967426,28.412543966967426 0 0,0 0.1390781889456539,0.4689025136534802 l -7.12441678091533 2.0465809522316105" fill="#ff5f08" stroke="none" /><path d="M 120.28053869075195 94.5502522615342 l 1.732948614995818 -0.46567465191432394 a22.794425753173268,22.794425753173268 0 0,0 0.09856273672848434,0.37980243088555543 l -1.740707683594605 0.4357757954799181" fill="#ff1001" stroke="none" /><path d="M 120.37134235888165 94.90015583598534 l 6.413748444922403 -1.605643702808557 a27.611676097262578,27.611676097262578 0 0,0 0.11145545061286737,0.46205479805785915 l -6.440436695796089 1.495003673091292" fill="#ff5407" stroke="none" /><path d="M 120.45610955862082 95.25157060432595 l 3.8830319604890824 -0.9013592273100505 a24.986274659733905,24.986274659733905 0 0,0 0.09364571731570533,0.41979538864641286 l -3.897972064806825 0.8343856691136737" fill="#ff2f04" stroke="none" /><path d="M 120.53481517161879 95.60439243477599 l 5.905839850455055 -1.264182516799116 a27.039627618901974,27.039627618901974 0 0,0 0.09350651408956939,0.45597097086330235 l -5.9267256604596215 1.162335889772402" fill="#ff4c07" stroke="none" /><path d="M 120.6074358757038 95.95851677861258 l 1.920424565951522 -0.37662927634698967 a22.957007952286283,22.957007952286283 0 0,0 0.0727127983400917,0.3884346762530284 l -1.926623088201473 0.3435165226313985" fill="#ff1202" stroke="none" /><path d="M 120.67395015179393 96.31383870115 l 2.975891662391197 -0.5306009057260368 a24.02282459091604,24.02282459091604 0 0,0 0.06908065038436331,0.40771790899991645 l -2.9845841742957835 0.47929720841028245" fill="#ff2203" stroke="none" /><path d="M 120.73433829027371 96.67025291283417 l 6.516143934319081 -1.0464337458519315 a27.599632971402354,27.599632971402354 0 0,0 0.07129130628271245,0.4697206343634265 l -6.533191134041094 0.9341139990964228" fill="#ff5407" stroke="none" /><path d="M 120.78858239683441 97.02765380044208 l 5.972862697362386 -0.8539983823855981 a27.03360605597186,27.03360605597186 0 0,0 0.061899235193592195,0.4612211998906823 l -5.986677931613814 0.7510588404302515" fill="#ff4c07" stroke="none" /><path d="M 120.83666639777658 97.38593545837742 l 3.142707177673519 -0.3942684132398326 a24.16734210123872,24.16734210123872 0 0,0 0.04823070363354374,0.41321121473786543 l -3.1490282343106517 0.34011346017711447" fill="#ff2403" stroke="none" /><path d="M 120.87857604477298 97.74499172005257 l 5.040839873174087 -0.5444401776979667 a26.070155987154,26.070155987154 0 0,0 0.04434766217970457,0.44657490604436045 l -5.04946466103602 0.4575897409491713" fill="#ff3f05" stroke="none" /><path d="M 120.91429891909075 98.10471618934814 l 4.209886213832882 -0.38150593604075805 a25.22713717693837,25.22713717693837 0 0,0 0.035468773662167594,0.43280887778768534 l -4.215829471314545 0.30898314104530394" fill="#ff3304" stroke="none" /><path d="M 120.96714384426684 98.82574320788733 l 1.9840067676464446 -0.11111353266855986 a22.98711576693684,22.98711576693684 0 0,0 0.018725076566247226,0.3952567711529627 l -1.9856254524461883 0.07694565489259739" fill="#ff1302" stroke="none" /><line stroke="#e1ed5e" stroke-width="0.3" x1="184.98032266829074" x2="189.97916517819016" y1="98.17113171792111" y2="98.06355123074" /><path d="M 185.9800911702706 98.14961562048488 a86.0,86.0 0 0,1 -9.607161424134198,41.387399972396054" fill="none" id="id40" stroke="none" /><text fill="#e1ed5e" style="font-size:6.75px; font-family:Arial;" text-anchor="middle"><textPath startOffset="21.466115282336823" xlink:href="#id40">April</textPath></text><path d="M 120.99980553446 99.90962569577887 l 8.123013170779133 -0.034958021981850565 a29.1230883927206,29.1230883927206 0 0,0 -0.0021574698833618463,0.5013200199716563 l -8.122411403606268 -0.10487147619349046" fill="#ff6909" stroke="none" /><path d="M 120.99824983174949 100.27111621757518 l 7.965261709288902 0.10284245801065123 a28.965925600244685,28.965925600244685 0 0,0 -0.010728340647116235,0.49850383366639334 l -7.962311305956779 -0.2399361074671594" fill="#ff6709" stroke="none" /><path d="M 120.9904718944345 100.63252640178507 l 3.033490738681848 0.0914111407993411 a24.034867716776265,24.034867716776265 0 0,0 -0.01602080405896854,0.4134257659194338 l -3.0314678017716763 -0.1436141537327811" fill="#ff2203" stroke="none" /><path d="M 120.9764740272857 100.99374915477107 l 9.034255234644956 0.4279929740211056 a30.04438752102768,30.04438752102768 0 0,0 -0.028919367007102233,0.5163747248437117 l -9.025549516750324 -0.5834394152002407" fill="#ff750a" stroke="none" /><path d="M 120.92983693683757 101.71520430193887 l 7.7358616985348405 0.6339554056046045 a28.761794616913903,28.761794616913903 0 0,0 -0.04468405529393606,0.4930848267063115 l -7.7238030469638295 -0.7670216208594866" fill="#ff6409" stroke="none" /><path d="M 120.89721153311464 102.0752229133903 l 1.8335793113816365 0.18208581534755833 a22.84259825661416,22.84259825661416 0 0,0 -0.04222367105037363,0.39093875386358 l -1.830173338830211 -0.21362089109592974" fill="#ff1101" stroke="none" /><path d="M 120.8583938346157 102.4346265915055 l 3.4330702499625563 0.4007136976766791 a24.45637712188408,24.45637712188408 0 0,0 -0.052404764751175996,0.41771753657484567 l -3.425663975964532 -0.4597489885389197" fill="#ff2803" stroke="none" /><path d="M 120.81339534386255 102.79330883721812 l 7.269091851436932 0.9755649268996586 a28.334263648875975,28.334263648875975 0 0,0 -0.06903568992097882,0.4828354545167218 l -7.251222110499351 -1.1005458533967896" fill="#ff5e08" stroke="none" /><path d="M 120.76222939487914 103.15116336523771 l 2.988598932241932 0.4535911481159181 a24.02282459091604,24.02282459091604 0 0,0 -0.06556886480180031,0.40829738371117963 l -2.9803483130788435 -0.5049677615203026" fill="#ff2203" stroke="none" /><path d="M 120.64145759157962 103.86396538481128 l 5.924672842513537 1.1090656111970751 a27.02758449304175,27.02758449304175 0 0,0 -0.08953861260413408,0.45655545663894465 l -5.904704296933739 -1.2108847949039647" fill="#ff4c07" stroke="none" /><path d="M 120.41448212921028 104.9243191809786 l 5.865378238301546 1.41482866818528 a27.03360605597186,27.03360605597186 0 0,0 -0.1130116545485168,0.4514253830727283 l -5.840155269457969 -1.5155818906554042" fill="#ff4c07" stroke="none" /><path d="M 120.32669344350535 105.2749913415812 l 7.600361747877439 1.9723740373399676 a28.852118060865575,28.852118060865575 0 0,0 -0.1288891760430453,0.47964457200655675 l -7.565284495492616 -2.1029095425220725" fill="#ff6509" stroke="none" /><path d="M 120.23288151984713 105.62410040840565 l 2.9066008682835887 0.8079430067511949 a24.01680302798593,24.01680302798593 0 0,0 -0.11414541812615328,0.3973551749691729 l -2.892262813271336 -0.8578556572249497" fill="#ff2203" stroke="none" /><path d="M 120.02730092923936 106.31721596034902 l 6.535135855293543 2.06137934781996 a27.852538614467043,27.852538614467043 0 0,0 -0.148159256766913,0.4559873054316526 l -6.498684347510383 -2.173565553229408" fill="#ff5708" stroke="none" /><path d="M 119.9155931802556 106.66101706037122 l 5.813410075365178 1.9443670766147083 a27.12995106285365,27.12995106285365 0 0,0 -0.15193957147871573,0.4416075160540393 l -5.779079672943231 -2.044147295758048" fill="#ff4d07" stroke="none" /><path d="M 119.67450827220406 107.3425965602758 l 5.652772964735184 2.10963500345896 a27.03360605597186,27.03360605597186 0 0,0 -0.1664571383929895,0.4345670622863287 l -5.615621546748688 -2.2066256325784326" fill="#ff4c07" stroke="none" /><path d="M 119.54520255179757 107.68017299344265 l 2.090445945047166 0.8214285039438677 a23.24604297293164,23.24604297293164 0 0,0 -0.1495466492620656,0.37116251923700483 l -2.0759966815277084 -0.857290391023686" fill="#ff1702" stroke="none" /><path d="M 119.26925614724726 108.34839909993367 l 3.9726817469808435 1.7211631039299717 a25.32950374675027,25.32950374675027 0 0,0 -0.17677450444851803,0.3985798404251584 l -3.9424661578010527 -1.7892912808478179" fill="#ff3405" stroke="none" /><path d="M 118.97047184881838 109.00673069616215 l 5.455932653415517 2.590347593740626 a27.039627618901974,27.039627618901974 0 0,0 -0.20324367438069066,0.41874216801206116 l -5.410535722420112 -2.683878717717963" fill="#ff4c07" stroke="none" /><path d="M 118.64920377521936 109.65438752849418 l 12.684253523518592 6.566430422538289 a35.2831472702248,35.2831472702248 0 0,0 -0.28385710634458056,0.5369506708604045 l -12.569343908949119 -6.783796108484828" fill="#ffba11" stroke="none" /><line stroke="#e1ed5e" stroke-width="0.3" x1="174.80103733775053" x2="179.2010983576182" y1="140.37084112569926" y2="142.7455964860345" /><path d="M 175.68104954172406 140.8457921977663 a86.0,86.0 0 0,1 -30.038265399797805,32.042727171017184" fill="none" id="id41" stroke="none" /><text fill="#e1ed5e" style="font-size:6.75px; font-family:Arial;" text-anchor="middle"><textPath startOffset="22.206326154141568" xlink:href="#id41">May</textPath></text><path d="M 118.30583269289576 110.29060199501025 l 2.7609921231638532 1.5520884259946244 a24.16734210123872,24.16734210123872 0 0,0 -0.2069737254862067,0.36087613625244136 l -2.7338664015252667 -1.5993844081053807" fill="#ff2403" stroke="none" /><path d="M 117.94076556474637 110.91462005526583 l 3.096901534058338 1.884061383603197 a24.624980883927208,24.624980883927208 0 0,0 -0.2234252193280284,0.36023259369535465 l -3.0640116750623467 -1.9370903086638251" fill="#ff2a04" stroke="none" /><path d="M 117.75023020441432 111.22182372390056 l 3.420292102395176 2.1623333678107803 a25.04649028903502,25.04649028903502 0 0,0 -0.2335229041936664,0.36243273317213465 l -3.3825643348244587 -2.220887700904368" fill="#ff3004" stroke="none" /><path d="M 117.55443506779139 111.5257021239791 l 3.533571671200552 2.320034473266171 a25.22713717693837,25.22713717693837 0 0,0 -0.24145601104487435,0.3609439753303006 l -3.493112554744956 -2.3805153628022784" fill="#ff3304" stroke="none" /><path d="M 117.35343817320211 111.8261652097733 l 5.005799473039067 3.411393810511526 a27.057692307692307,27.057692307692307 0 0,0 -0.2656022926949399,0.3826199121821094 l -4.94633627318199 -3.4970549848806547" fill="#ff4c07" stroke="none" /><path d="M 117.14729908036423 112.12312394758627 l 6.6377276031766295 4.692867027424339 a29.129109955650712,29.129109955650712 0 0,0 -0.2929836501307828,0.4069286649574671 l -6.555964160670244 -4.8064292978329375" fill="#ff6909" stroke="none" /><path d="M 116.27256486870786 113.27417163493432 l 7.39563063452992 6.032906993052521 a30.544177244226944,30.544177244226944 0 0,0 -0.3358463193167909,0.40454852672397434 l -7.290688315319586 -6.1593167768902655" fill="#ff7c0b" stroke="none" /><path d="M 115.56566222782051 114.09645910891815 l 4.481168243442745 4.058202213264784 a27.045649181832083,27.045649181832083 0 0,0 -0.31547280548463486,0.3423834237177793 l -4.410649029962388 -4.1347368917838985" fill="#ff4c07" stroke="none" /><path d="M 114.81725581225074 114.88116024355365 l 1.1259097693396685 1.1307656363382363 a22.595714176479586,22.595714176479586 0 0,0 -0.2779811349331639,0.2720630478054211 l -1.1062786820307104 -1.1499787870662295" fill="#ff0d01" stroke="none" /><path d="M 114.0293411484842 115.62618273729858 l 4.919870457427409 5.479857820686311 a28.36437146352653,28.36437146352653 0 0,0 -0.36611332334223945,0.3230524405833344 l -4.824814781178582 -5.563733403041934" fill="#ff5e08" stroke="none" /><path d="M 113.75828350139079 115.86535959552629 l 1.9962030084025866 2.301920770187424 a24.04691084263649,24.04691084263649 0 0,0 -0.3150540644991917,0.26849590871817247 l -1.9562834673263476 -2.3359410691285434" fill="#ff2203" stroke="none" /><path d="M 112.04921762599082 117.19931262002967 l 3.4619158303762427 4.941613180131632 a27.03360605597186,27.03360605597186 0 0,0 -0.38341778321849274,0.26371824748768596 l -3.3763411625348665 -5.000472216984412" fill="#ff4c07" stroke="none" /><line stroke="#e1ed5e" stroke-width="0.3" x1="143.8653032363475" x2="146.44561519142675" y1="172.8068346515853" y2="177.08958963109032" /><path d="M 144.38136562736335 173.6633856474863 a86.0,86.0 0 0,1 -40.68145358897372,12.25698825130547" fill="none" id="id42" stroke="none" /><text fill="#e1ed5e" style="font-size:6.75px; font-family:Arial;" text-anchor="middle"><textPath startOffset="21.466115282336833" xlink:href="#id42">June</textPath></text><path d="M 110.8373102113329 117.98757091392108 l 2.737709405925302 4.544000413432234 a26.304996941428353,26.304996941428353 0 0,0 -0.38985524765107826,0.2303333520665904 l -2.6590862872458416 -4.5904523377925734" fill="#ff4206" stroke="none" /><path d="M 110.21172684928248 118.3499491758327 l 3.4727523445621555 6.240357773322825 a28.1415736351124,28.1415736351124 0 0,0 -0.4253092147573021,0.2319124948450942 l -3.3648203179362044 -6.29921091992769" fill="#ff5b08" stroke="none" /><path d="M 109.89434966115114 118.52300852407294 l 2.6073101789067223 4.8810917667905125 a26.533816332772595,26.533816332772595 0 0,0 -0.4047153696227676,0.2117279533569937 l -2.522903906757459 -4.925249139092223" fill="#ff4506" stroke="none" /><path d="M 108.92500713936063 119.00905698771935 l 1.4843164496183945 3.161393098966935 a24.49250649946475,24.49250649946475 0 0,0 -0.3831701070927933,0.1758946028593335 l -1.4296783467581817 -3.186474772160343" fill="#ff2803" stroke="none" /><path d="M 107.59598834532513 119.57807347666477 l 1.1391368819596968 2.9360373609197743 a24.149277412448388,24.149277412448388 0 0,0 -0.38883761144143125,0.14702511313533045 l -1.088429049757991 -2.955210724161736" fill="#ff2403" stroke="none" /><path d="M 107.2578585660854 119.70592522655815 l 4.058196265828072 11.018472107295189 a32.742047713717696,32.742047713717696 0 0,0 -0.5305465896145736,0.19023513109226894 l -3.8679301155837633 -11.086694779427416" fill="#ff990e" stroke="none" /><path d="M 106.57524785965236 119.94407469862006 l 1.387649800630106 4.209026316576798 a25.431870316562165,25.431870316562165 0 0,0 -0.4169357192575077,0.13348965091019782 l -1.3149927362816578 -4.2322888141467025" fill="#ff3605" stroke="none" /><path d="M 106.2309692047433 120.05430185196036 l 0.6503496684871245 2.0931428374312504 a23.191848906560637,23.191848906560637 0 0,0 -0.3822513950267265,0.11516920966554561 l -0.6142232990201522 -2.1040274162025216" fill="#ff1602" stroke="none" /><path d="M 105.88484417918355 120.15858648285463 l 1.5001222879915248 5.1386823434176945 a26.353169444869245,26.353169444869245 0 0,0 -0.4365450605489552,0.12337199464188409 l -1.4114460593379639 -5.163743131398098" fill="#ff4306" stroke="none" /><path d="M 105.53697534728816 120.25689768951611 l 3.5135322039537846 12.854177221354322 a34.325718764337054,34.325718764337054 0 0,0 -0.5712936555000246,0.15088384682479059 l -3.2917481056422626 -12.912752417482697" fill="#ffae10" stroke="none" /><path d="M 104.83641907484287 120.43548508189849 l 1.5559896970027034 6.574575889439357 a27.756193607585256,27.756193607585256 0 0,0 -0.4658809036297356,0.10603297688812785 l -1.4425886439801057 -6.600385599905169" fill="#ff5608" stroke="none" /><path d="M 103.7750983002368 120.6578951692458 l 2.4020138194559992 13.144174199196105 a34.361848141917726,34.361848141917726 0 0,0 -0.5827622646602489,0.1013206895996604 l -2.1754025833237005 -13.183573467316771" fill="#ffae10" stroke="none" /><path d="M 103.41894727170886 120.7198165907248 l 0.7852624917720973 4.758919489554183 a25.82327190701942,25.82327190701942 0 0,0 -0.43919745759395395,0.06859361032426073 l -0.7032291705696262 -4.771731407225549" fill="#ff3b05" stroke="none" /><path d="M 103.06178313531738 120.77559828337769 l 0.9780240899058223 6.636340558863 a27.708021104144365,27.708021104144365 0 0,0 -0.4724500072469527,0.06547726603015723 l -0.8636454914720392 -6.65219239038576" fill="#ff5507" stroke="none" /><path d="M 102.70371172650421 120.8252237178851 l 0.8582186347033641 6.610392258668795 a27.665870163633585,27.665870163633585 0 0,0 -0.47278676757852933,0.05724789334827555 l -0.7443044440734545 -6.624185680742421" fill="#ff5507" stroke="none" /><path d="M 102.34483914955558 120.86867818915974 l 0.6185727990493026 5.505194965025318 a26.539837895702707,26.539837895702707 0 0,0 -0.45442193326981184,0.047102691402601704 l -0.5237182691738881 -5.515027024883677" fill="#ff4506" stroke="none" /><path d="M 101.98527174616119 120.90594882070398 l 0.42125165129204045 4.435999998276002 a25.455956568282613,25.455956568282613 0 0,0 -0.43657654311388133,0.03766966115815484 l -0.34483079043661746 -4.44259391171282" fill="#ff3605" stroke="none" /><path d="M 101.62511606390274 120.93702456842531 l 0.3648682552863126 4.700744639015049 a25.71488377427741,25.71488377427741 0 0,0 -0.4416068900593374,0.030455796668456974 l -0.2838986044480449 -4.706328780199791" fill="#ff3a05" stroke="none" /><path d="M 101.26447882468166 120.96189622390904 l 0.5163111273742224 8.559147104731169 a29.574705612478972,29.574705612478972 0 0,0 -0.5084200761554162,0.026279510556183324 l -0.3689029828053265 -8.566766422049554" fill="#ff6f0a" stroke="none" /><path d="M 100.90346689309514 120.98055641714683 l 0.10362443337228272 2.40639506237347 a23.408625172044655,23.408625172044655 0 0,0 -0.40271713666362735,0.013870392456369843 l -0.06218694503400305 -2.4078222532559335" fill="#ff1902" stroke="none" /><line stroke="#e1ed5e" stroke-width="0.3" x1="102.19456741930631" x2="102.32365962044197" y1="184.97166512339345" y2="189.96999836594603" /><path d="M 102.22038585953345 185.97133177190398 a86.0,86.0 0 0,1 -42.740103519485714,-10.115201625700543" fill="none" id="id43" stroke="none" /><text fill="#e1ed5e" style="font-size:6.75px; font-family:Arial;" text-anchor="middle"><textPath startOffset="22.20632615414155" xlink:href="#id43">July</textPath></text><path d="M 100.54218724476979 120.99299961872073 l 0.06389708602243813 2.4740373652204712 a23.474862364275882,23.474862364275882 0 0,0 -0.4040362634605149,0.00695585068715745 l -0.021301132669255273 -2.4747706931867883" fill="#ff1a02" stroke="none" /><path d="M 100.18074693466247 120.99922214144158 l 0.06955260350885786 8.080638127145184 a29.080937452209817,29.080937452209817 0 0,0 -0.500599076342621,0.0 l 0.0695526035088523 -8.080638127145184" fill="#ff6809" stroke="none" /><path d="M 99.81925306533755 120.99922214144158 l -0.06742767299926739 7.833763191815114 a28.83405337207524,28.83405337207524 0 0,0 -0.4962756758311542,-0.008543835821031485 l 0.2022630387230895 -7.831441878714923" fill="#ff6509" stroke="none" /><path d="M 99.45781275523022 120.99299961872073 l -0.10338579611902736 4.003004496037992 a25.00433934852424,25.00433934852424 0 0,0 -0.4301694726877487,-0.014815906416001997 l 0.1722756204814191 -4.000631791195896" fill="#ff3004" stroke="none" /><path d="M 99.09653310690486 120.98055641714683 l -0.4611287285066554 10.70845802756194 a31.718382015598714,31.718382015598714 0 0,0 -0.545272112297626,-0.028184339885779626 l 0.6453889092177704 -10.698933880913959" fill="#ff8c0c" stroke="none" /><path d="M 98.73552117531835 120.96189622390904 l -0.5097847226742616 8.450955638519682 a29.466317479736965,29.466317479736965 0 0,0 -0.506031018376376,-0.03489886174903725 l 0.6551785018295675 -8.44092843225436" fill="#ff6d0a" stroke="none" /><path d="M 98.37488393609728 120.93702456842531 l -0.2530312421717319 3.2599033703514335 a24.26970867105062,24.26970867105062 0 0,0 -0.41623207069696466,-0.03591425447294781 l 0.3091076306102382 -3.2550648635998223" fill="#ff2503" stroke="none" /><path d="M 98.01472825383883 120.90594882070398 l -0.12409845943468123 1.3068216211137405 a22.312700718764336,22.312700718764336 0 0,0 -0.3820438028648859,-0.03960040224980706 l 0.14657485890516045 -1.3044918504081726" fill="#ff0901" stroke="none" /><path d="M 97.65516085044442 120.86867818915974 l -0.20507033011960513 1.825091809057305 a22.836576693684048,22.836576693684048 0 0,0 -0.3902581488927132,-0.04725482694986034 l 0.23645590206370767 -1.8212914533820959" fill="#ff1101" stroke="none" /><path d="M 97.2962882734958 120.8252237178851 l -1.290041380439377 9.936488453861674 a31.019880715705767,31.019880715705767 0 0,0 -0.5289205899566293,-0.07330357423259355 l 1.4608905615828374 -9.912810314136475" fill="#ff820c" stroke="none" /><path d="M 96.93821686468263 120.77559828337769 l -0.7585393300526269 5.147036124647784 a26.202630371616454,26.202630371616454 0 0,0 -0.4456495165649348,-0.06960128924223337 l 0.8470247102260787 -5.133216528058445" fill="#ff4006" stroke="none" /><path d="M 96.58105272829116 120.7198165907248 l -0.4411587032427493 2.6735502750304394 a23.709703318550236,23.709703318550236 0 0,0 -0.40210643919020084,-0.06991135868237369 l 0.48711411390500003 -2.66556033782706" fill="#ff1d03" stroke="none" /><path d="M 96.22490169976321 120.6578951692458 l -0.7447433563703115 4.0753455831667065 a25.142835295916807,25.142835295916807 0 0,0 -0.4250724186447774,-0.08146614071415248 l 0.814783389586784 -4.061922244104085" fill="#ff3204" stroke="none" /><path d="M 95.86986931433489 120.58985236759428 l -0.6122718203726268 3.052345639828215 a24.113148034867717,24.113148034867717 0 0,0 -0.4062589365025429,-0.08513551012576179 l 0.6647222183045565 -3.041354148975912" fill="#ff2303" stroke="none" /><path d="M 95.16358092515715 120.4354850818985 l -1.225931276426369 5.179968882588588 a26.32306163021869,26.32306163021869 0 0,0 -0.4400297295614429,-0.1081486016560718 l 1.3149142907310225 -5.158099022618486" fill="#ff4206" stroke="none" /><path d="M 94.81253420990036 120.34920634021253 l -0.9787484200237698 3.839399498736383 a24.962188408013457,24.962188408013457 0 0,0 -0.4154534960448076,-0.10972504430349989 l 1.0446923588800667 -3.821983105129301" fill="#ff2f04" stroke="none" /><path d="M 94.46302465271185 120.25689768951611 l -1.8607590343578095 6.807544375701434 a28.05727175409084,28.05727175409084 0 0,0 -0.4647738262508091,-0.13134972579874724 l 1.9776640287132325 -6.774505856564165" fill="#ff5a08" stroke="none" /><path d="M 94.11515582081647 120.15858648285463 l -0.6547215385159846 2.242754498589501 a23.336366416883315,23.336366416883315 0 0,0 -0.3846333534531203,-0.11588687419991514 l 0.6932298664093507 -2.23115225528386" fill="#ff1802" stroke="none" /><path d="M 93.76903079525671 120.05430185196036 l -1.936755606153959 6.233425373009547 a27.527374216241014,27.527374216241014 0 0,0 -0.45128987468313264,-0.14448876660901133 l 2.043766825928032 -6.199163759740829" fill="#ff5307" stroke="none" /><path d="M 93.42475214034765 119.94407469862007 l -0.7503867128407349 2.276076730974953 a23.39658204618443,23.39658204618443 0 0,0 -0.3813980085822107,-0.12939091217318383 l 0.7894544543601714 -2.2628228319036463" fill="#ff1902" stroke="none" /><path d="M 92.40401165467489 119.57807347666478 l -2.6855750964747673 6.921862458917938 a28.42458709282765,28.42458709282765 0 0,0 -0.4546295107949257,-0.1809064648290955 l 2.8043256833115513 -6.874609149682776" fill="#ff5f08" stroke="none" /><path d="M 92.06813273071674 119.44442032107085 l -2.1447519216243247 5.257709998500289 a26.678333843095274,26.678333843095274 0 0,0 -0.42371360712985834,-0.17711232214447242 l 2.234936988251645 -5.220012633335843" fill="#ff4706" stroke="none" /><path d="M 91.7346041902142 119.30500536409082 l -0.8413601599462722 1.9651161026874082 a23.137654840189633,23.137654840189633 0 0,0 -0.3647809121186659,-0.15990923194998583 l 0.8750617467226814 -1.9503423174429702" fill="#ff1502" stroke="none" /><path d="M 91.40352486487194 119.15986991738527 l -4.054863586926225 9.03750172448925 a30.905471020033644,30.905471020033644 0 0,0 -0.4834969683792185,-0.22194974415412558 l 4.209828551072863 -8.96636491000105" fill="#ff810b" stroke="none" /><path d="M 91.07499286063937 119.00905698771935 l -0.9520098607897292 2.0276521255443094 a23.24002141000153,23.24002141000153 0 0,0 -0.36064897966298337,-0.17313342684063568 l 0.9867715084529546 -2.010964422204111" fill="#ff1702" stroke="none" /><path d="M 90.7491055286396 118.85261126421891 l -5.854313761171159 11.930641074743212 a34.28958938675638,34.28958938675638 0 0,0 -0.5276450865472864,-0.2645722001271246 l 6.058812755401206 -11.828101033706785" fill="#ffad10" stroke="none" /><path d="M 90.42595943632237 118.69057910512821 l -1.8393314662976021 3.590769230894221 a25.034447163174796,25.034447163174796 0 0,0 -0.3818457703135548,-0.19976365988242797 l 1.9008681391376525 -3.5585761520670762" fill="#ff3004" stroke="none" /><line stroke="#e1ed5e" stroke-width="0.3" x1="58.666819895761336" x2="56.23545636021788" y1="174.27360380694188" y2="178.64263932499728" /><path d="M 58.180547188652646 175.14741091055294 a86.0,86.0 0 0,1 -31.652253787137756,-30.449443065178592" fill="none" id="id44" stroke="none" /><text fill="#e1ed5e" style="font-size:6.75px; font-family:Arial;" text-anchor="middle"><textPath startOffset="22.20632615414155" xlink:href="#id44">August</textPath></text><path d="M 89.4739219176387 118.17145234162733 l -3.099752119184425 5.351185642352979 a27.184145129224653,27.184145129224653 0 0,0 -0.402884731563906,-0.23803140082551164 l 3.1914047217767134 -5.2970356692337175" fill="#ff4e07" stroke="none" /><path d="M 89.1626897886671 117.98757091392108 l -8.688576048770875 14.421140926170859 a37.83628995259214,37.83628995259214 0 0,0 -0.5549697287043133,-0.34090773483123765 l 8.935524977407496 -14.269444724511244" fill="#ffda14" stroke="none" /><path d="M 88.8546689885994 117.79835938074946 l -7.059576064053347 11.273677895724369 a34.30163251261661,34.30163251261661 0 0,0 -0.49773007838539013,-0.31767488530915283 l 7.252587944485661 -11.15048858159141" fill="#ffad10" stroke="none" /><path d="M 88.54995079064634 117.60387380957326 l -7.531659911566367 11.579547671421771 a34.813465361676094,34.813465361676094 0 0,0 -0.4995322827625216,-0.33106275835216936 l 7.72986689306885 -11.448186891978285" fill="#ffb410" stroke="none" /><path d="M 88.24862548938628 117.40417183066458 l -3.709931756438015 5.4945308492014355 a27.629740786052913,27.629740786052913 0 0,0 -0.39187276537047583,-0.26953366130846046 l 3.803961406431381 -5.429856398527875" fill="#ff5407" stroke="none" /><path d="M 87.95078237400918 117.19931262002967 l -6.2397405086422095 8.90673992347079 a31.874942651781616,31.874942651781616 0 0,0 -0.44666307375253633,-0.31868224348228513 l 6.392130910243633 -8.798013418144285" fill="#ff8e0d" stroke="none" /><path d="M 87.65650970185807 116.9893568818739 l -4.810025419170043 6.620432023952428 a29.183304022021716,29.183304022021716 0 0,0 -0.4038622267449463,-0.2987676203636867 l 4.923272616333554 -6.536654454848975" fill="#ff6a09" stroke="none" /><path d="M 87.36589467227662 116.77436683061367 l -4.814591101624203 6.392357447015663 a29.002657134118365,29.002657134118365 0 0,0 -0.3961918632919992,-0.30378302628456627 l 4.923911693409689 -6.30853507890373" fill="#ff6709" stroke="none" /><path d="M 87.07902340077011 116.55440617244103 l -5.635266881622377 7.2199261512509985 a30.158797216699803,30.158797216699803 0 0,0 -0.40648674194492734,-0.32293765183010686 l 5.758711116284664 -7.121854585415761" fill="#ff770a" stroke="none" /><path d="M 86.79598089348748 116.32954008644616 l -8.685393360129527 10.74131125505835 a34.813465361676094,34.813465361676094 0 0,0 -0.4627370529199323,-0.3808010915749268 l 8.869000541594149 -10.590215044626241" fill="#ffb410" stroke="none" /><path d="M 86.51685102203217 116.09983520530335 l -1.5348706255505127 1.8327442775573743 a23.39056048325432,23.39056048325432 0 0,0 -0.30645479576931955,-0.26116742534942816 l 1.5661908978968888 -1.8060524619849947" fill="#ff1902" stroke="none" /><path d="M 86.24171649860922 115.8653595955263 l -6.903864159495106 7.961188434442676 a31.537735127695367,31.537735127695367 0 0,0 -0.40707353706516014,-0.3591950668314239 l 7.039880049466854 -7.8411702258389635" fill="#ff890c" stroke="none" /><path d="M 85.97065885151581 115.62618273729859 l -2.8320431741855234 3.154390765137504 a25.239180302798594,25.239180302798594 0 0,0 -0.32077850447163014,-0.2930235582499005 l 2.8859212281240083 -3.105174440301027" fill="#ff3304" stroke="none" /><path d="M 85.70375840098266 115.38237550388516 l -3.033496745471258 3.263961769634602 a25.455956568282613,25.455956568282613 0 0,0 -0.3183984567519788,-0.3010656142886343 l 3.089231036614054 -3.211261518600037" fill="#ff3605" stroke="none" /><path d="M 85.44109423537348 115.13401014063109 l -2.5590521965465074 2.6601396093267877 a24.691218076158435,24.691218076158435 0 0,0 -0.30376082694643725,-0.2972939023463356 l 2.604462975868739 -2.6156956040578825" fill="#ff2b04" stroke="none" /><path d="M 84.9287848128048 114.62390073753433 l -11.923119753059968 11.569240939418451 a37.61349212417801,37.61349212417801 0 0,0 -0.4468723745115044,-0.46854389810310226 l 12.12049867895043 -11.362289924732849" fill="#ffd714" stroke="none" /><path d="M 84.67929136418377 114.36230785411682 l -9.704306481261868 9.097244814691868 a34.30163251261661,34.30163251261661 0 0,0 -0.40010990931313933,-0.4342402838925972 l 9.859462798570737 -8.928853275997925" fill="#ffad10" stroke="none" /><path d="M 84.43433777217949 114.09645910891817 l -4.4677782984922185 4.046076111033918 a27.02758449304175,27.02758449304175 0 0,0 -0.3093257499183042,-0.34753075917297827 l 4.5367628980588615 -3.968571182120076" fill="#ff4c07" stroke="none" /><path d="M 84.19399662182784 113.82643327865904 l -2.7284028617696654 2.386693158477809 a24.624980883927208,24.624980883927208 0 0,0 -0.2763362474749444,-0.3214414853806662 l 2.7690816188153886 -2.339374573935612" fill="#ff2a04" stroke="none" /><path d="M 83.95833913139862 113.55231037782056 l -1.7341258642747528 1.4650236119164877 a23.270129224652088,23.270129224652088 0 0,0 -0.25586504385554704,-0.30820592806405045 l 1.7590869080238363 -1.434956426738676" fill="#ff1702" stroke="none" /><path d="M 83.50135304334701 112.99209946851258 l -2.847965706120519 2.242672010258998 a24.624980883927208,24.624980883927208 0 0,0 -0.2593751379838134,-0.3352773299645369 l 2.8861476613224006 -2.193316686181208" fill="#ff2a04" stroke="none" /><path d="M 83.28015986056508 112.70617746262583 l -4.808648013797952 3.6543133492354674 a27.039627618901974,27.039627618901974 0 0,0 -0.2784292773975217,-0.37300151733620474 l 4.8708385578905595 -3.570998952389955" fill="#ff4c07" stroke="none" /><path d="M 83.06392112726016 112.41649034213515 l -3.9238659569048573 2.8767369427029745 a25.865422847530205,25.865422847530205 0 0,0 -0.2601571421022874,-0.3613355163934139 l 3.972802891382752 -2.8087678208584226" fill="#ff3c05" stroke="none" /><path d="M 82.85270091963577 112.12312394758628 l -5.895285478673165 4.167961159912434 a28.219853953203852,28.219853953203852 0 0,0 -0.2770102425681196,-0.39905391481953617 l 5.966156628403419 -4.065865982905885" fill="#ff5c08" stroke="none" /><path d="M 82.6465618267979 111.8261652097733 l -1.6569892887892725 1.12921882594467 a23.005180455727174,23.005180455727174 0 0,0 -0.22018903957461525,-0.32915273852284416 l 1.6761814337746181 -1.1005291732160052" fill="#ff1302" stroke="none" /><path d="M 82.44556493220864 111.52570212397912 l -3.5033702039253294 2.300205118793813 a25.1910077993577,25.1910077993577 0 0,0 -0.2348703244640547,-0.3645239593540541 l 3.54244539176643 -2.2395595595183106" fill="#ff3204" stroke="none" /><path d="M 82.05923443525364 110.91462005526583 l -0.5813120819744044 0.35365271818465277 a21.680436611102614,21.680436611102614 0 0,0 -0.19122054683754378,-0.3204966354850282 l 0.58731350451018 -0.3435939888135134" fill="#ff0000" stroke="none" /><line stroke="#e1ed5e" stroke-width="0.3" x1="26.63291911575756" x2="22.317208475507996" y1="142.92168965132927" y2="145.44649492493687" /><path d="M 25.769776987707644 143.4266507060508 a86.0,86.0 0 0,1 -11.730757126820373,-40.83630448921669" fill="none" id="id45" stroke="none" /><text fill="#e1ed5e" style="font-size:6.75px; font-family:Arial;" text-anchor="middle"><textPath startOffset="21.46611528233685" xlink:href="#id45">September</textPath></text><path d="M 81.87401531095188 110.60418214915194 l -8.794110173727667 5.144787867897926 a31.188484477748894,31.188484477748894 0 0,0 -0.2671041274455098,-0.4657185604751571 l 8.881366297325554 -4.992649461564462" fill="#ff840c" stroke="none" /><path d="M 81.69416730710424 110.29060199501025 l -1.9788859894159183 1.1124283965778972 a23.270129224652088,23.270129224652088 0 0,0 -0.19327902342338163,-0.3508575692008224 l 1.9977414222908165 -1.0782003089792522" fill="#ff1702" stroke="none" /><path d="M 81.51974371655577 109.97397251340807 l -5.267254572299922 2.84278808256068 a26.985433552530967,26.985433552530967 0 0,0 -0.2171010149125766,-0.41067330356095016 l 5.315408095437386 -2.751699763913604" fill="#ff4b07" stroke="none" /><path d="M 81.35079622478065 109.6543875284942 l -6.160311997931458 3.189092684133272 a27.936840495488607,27.936840495488607 0 0,0 -0.21740360170198283,-0.42895793124305603 l 6.214294269419708 -3.0825805411875304" fill="#ff5808" stroke="none" /><path d="M 81.18737489456691 109.33194174019688 l -1.510418746039511 0.7492383259830798 a22.686037620431257,22.686037620431257 0 0,0 -0.17051986470004973,-0.3513214275976798 l 1.5230918673542797 -0.7231279424201152" fill="#ff0f01" stroke="none" /><path d="M 81.02952815118164 109.00673069616217 l -3.7152562335820485 1.7639156595462107 a25.112727481266248,25.112727481266248 0 0,0 -0.18203783633489373,-0.39209330461917746 l 3.745068686756769 -1.699702287648206" fill="#ff3104" stroke="none" /><path d="M 80.87730276802145 108.67885076344099 l -7.166624851524301 3.2525781697748255 a28.87018274965591,28.87018274965591 0 0,0 -0.2014848889237755,-0.4542952340658891 l 7.221550825179357 -3.1287345992162403" fill="#ff6509" stroke="none" /><path d="M 80.58989483394504 108.01547362559985 l -12.355797943676974 5.102371764269669 a34.367869704847834,34.367869704847834 0 0,0 -0.22109568336512686,-0.5487413541872179 l 12.441796241299489 -4.888931042239645" fill="#ffae10" stroke="none" /><path d="M 80.20201598880116 107.00284435728193 l -2.844124672047698 1.0060096219791572 a24.01680302798593,24.01680302798593 0 0,0 -0.13450458321531333,-0.3909332790234867 l 2.86102008620624 -0.9569036398663736" fill="#ff2203" stroke="none" /><path d="M 79.97269907076064 106.31721596034903 l -5.748392786598275 1.813216807704555 a27.02758449304175,27.02758449304175 0 0,0 -0.13613308777106134,-0.4448908074435747 l 5.778752646875467 -1.7139990277089325" fill="#ff4c07" stroke="none" /><path d="M 79.76711848015287 105.62410040840567 l -6.892299064911983 1.9158409022363714 a28.153616760972625,28.153616760972625 0 0,0 -0.12576880696587098,-0.4680325178646028 l 6.924255948219629 -1.7969174511962296" fill="#ff5b08" stroke="none" /><path d="M 79.67330655649465 105.27499134158121 l -6.661973525938584 1.728852396226676 a27.882646429117603,27.882646429117603 0 0,0 -0.11656099447561019,-0.46560323174367935 l 6.6907458347092525 -1.6139213250856048" fill="#ff5808" stroke="none" /><path d="M 79.58551787078972 104.9243191809786 l -19.322967629374663 4.6610273789217675 a40.877179232298516,40.877179232298516 0 0,0 -0.15910845222873068,-0.6854350479462978 l 19.400336647533948 -4.327723673626895" fill="#ffff18" stroke="none" /><path d="M 79.50377843672027 104.57218783832718 l -3.7554726197437738 0.8377508111019653 a24.847778712341338,24.847778712341338 0 0,0 -0.08953005056341358,-0.41825459014370914 l 3.769336709031628 -0.7729824015420923" fill="#ff2d04" stroke="none" /><path d="M 79.35854240842038 103.8639653848113 l -6.5520607758865985 1.2265091224726943 a27.665870163633585,27.665870163633585 0 0,0 -0.0835951375078401,-0.468845925518411 l 6.572202355733627 -1.1135444462210695" fill="#ff5507" stroke="none" /><path d="M 79.23777060512086 103.15116336523772 l -5.893850483903414 0.8945323438939479 a26.961347300810523,26.961347300810523 0 0,0 -0.06569061526271558,-0.45944001014781194 l 5.908375150182729 -0.7929468617657354" fill="#ff4b07" stroke="none" /><path d="M 79.18660465613746 102.79330883721812 l -62.440186031587636 8.379926511654372 a84.0,84.0 0 0,0 -0.1799939630126075,-1.4347289828503655 l 62.5751815038471 -7.303879774516597" fill="#4dd2ff" stroke="none" /><path d="M 79.1416061653843 102.43462659150553 l -6.040768209864425 0.7050885621140238 a27.081778559412754,27.081778559412754 0 0,0 -0.05005963404450294,-0.4634900392454663 l 6.05201014540998 -0.6010022009837754" fill="#ff4d07" stroke="none" /><path d="M 79.10278846688536 102.07522291339032 l -3.2956490890846446 0.32727842627829373 a24.311859611561403,24.311859611561403 0 0,0 -0.037770677861059865,-0.41679628281697767 l 3.3007943632227796 -0.2705007549127499" fill="#ff2603" stroke="none" /><path d="M 79.07016306316243 101.71520430193888 l -3.9309460143834887 0.32214180812336546 a24.94412371922312,24.94412371922312 0 0,0 -0.03138617094116445,-0.4282393660632509 l 3.9359087439889886 -0.2544293055633539" fill="#ff2f04" stroke="none" /><line stroke="#e1ed5e" stroke-width="0.3" x1="15.007084014347285" x2="10.007500721073583" y1="101.09737516637583" y2="101.16192664675087" /><path d="M 14.007167355692545 101.11028546245083 a86.0,86.0 0 0,1 10.666146001902534,-42.60595125391555" fill="none" id="id46" stroke="none" /><text fill="#e1ed5e" style="font-size:6.75px; font-family:Arial;" text-anchor="middle"><textPath startOffset="22.20632615414155" xlink:href="#id46">October</textPath></text><path d="M 79.00175016825051 100.2711162175752 l -21.188113957961786 0.2735676239621341 a42.18987995106285,42.18987995106285 0 0,0 -0.003125471933114807,-0.7262496056206669 l 21.189683727184402 0.09119145986220811" fill="#efff19" stroke="none" /><path d="M 79.00486145842228 99.54816195383935 l -3.347213936319737 -0.07203565730577699 a24.34798898914207,24.34798898914207 0 0,0 0.01262420683354136,-0.4189359653306935 l 3.3454780350305504 0.1296417700614649" fill="#ff2603" stroke="none" /><path d="M 79.01574976396665 99.18683210126434 l -1.81113109450395 -0.07018376400809526 a22.812490441963604,22.812490441963604 0 0,0 0.0185828285080854,-0.39225413946961046 l 1.8096546577623658 0.10134901010071481" fill="#ff1001" stroke="none" /><path d="M 79.03285615573316 98.82574320788736 l -8.11639132219001 -0.4545553609168271 a29.129109955650712,29.129109955650712 0 0,0 0.03234636327301137,-0.5003839229942071 l 8.107364367912586 0.5941983481640459" fill="#ff6909" stroke="none" /><path d="M 79.05617556472873 98.46500227214037 l -5.2367568361627965 -0.3838081182215171 a26.25080287505735,26.25080287505735 0 0,0 0.03690802404946183,-0.4503713780002477 l 5.229374328293837 0.4738934134295432" fill="#ff4106" stroke="none" /><path d="M 79.08570108090925 98.10471618934814 l -1.8110906503953437 -0.1641236363024336 a22.818512004893716,22.818512004893716 0 0,0 0.038816325546160685,-0.39087510100357037 l 1.8079971991669541 0.1952742680104343" fill="#ff1001" stroke="none" /><path d="M 79.21141760316559 97.0276538004421 l -6.258987856517472 -0.894908484535804 a27.32264107661722,27.32264107661722 0 0,0 0.07057582162284394,-0.4650064844083467 l 6.242656141455327 1.0025140813362428" fill="#ff5007" stroke="none" /><path d="M 79.26566170972629 96.67025291283419 l -5.969168348591568 -0.9585944168205593 a27.045649181832083,27.045649181832083 0 0,0 0.07777316228894965,-0.4590216063156835 l 5.951783324782395 1.061201811452071" fill="#ff4c07" stroke="none" /><path d="M 79.32604984820605 96.31383870115002 l -6.538662357803769 -1.165842229115174 a27.641783911913137,27.641783911913137 0 0,0 0.08755110698766361,-0.4677015143783383 l 6.517625526906244 1.278221820956085" fill="#ff5407" stroke="none" /><path d="M 79.54389044137918 95.25157060432595 l -13.983607543513553 -3.2459824741799967 a35.355406025386145,35.355406025386145 0 0,0 0.14271327449590002,-0.5916386579999542 l 13.92566146875684 3.4862063638393477" fill="#ffbb11" stroke="none" /><path d="M 79.62865764111835 94.90015583598534 l -1.2558797046068444 -0.3144020000945717 a22.294636029974,22.294636029974 0 0,0 0.09640165386371656,-0.37147489704642817 l 1.2502817188728204 0.33597332268986363" fill="#ff0901" stroke="none" /><path d="M 79.81627453868168 94.20196356495316 l -3.8122285406896252 -1.0951120010032187 a24.966403502064537,24.966403502064537 0 0,0 0.12220947858770771,-0.4120296082116123 l 3.7928131649902106 1.1605709959613701" fill="#ff2f04" stroke="none" /><path d="M 80.02781315780177 93.51064311812611 l -5.947330259488125 -1.9324047413096523 a27.253393102920935,27.253393102920935 0 0,0 0.14880703843250606,-0.4449141043958367 l 5.913185927283847 2.034491948627811" fill="#ff4f07" stroke="none" /><path d="M 80.14247586403 93.16781622104843 l -2.283281229504885 -0.7855862025996653 a23.414646734974767,23.414646734974767 0 0,0 0.1344077870394219,-0.37998891350770486 l 2.2694203616556536 0.8247727425339811" fill="#ff1902" stroke="none" /><path d="M 80.2630227832202 92.82701384747504 l -4.625429580002906 -1.6810143702569145 a25.92142338278024,25.92142338278024 0 0,0 0.15601661786143053,-0.4180469692863947 l 4.595808373639848 1.7603844765726504" fill="#ff3d05" stroke="none" /><path d="M 80.38941819471856 92.48833698450439 l -7.889292974693143 -3.021925144538638 a29.448252790946626,29.448252790946626 0 0,0 0.18539280779417314,-0.4718044740759574 l 7.836106617017279 3.1572786235103587" fill="#ff6d0a" stroke="none" /><path d="M 80.52162464483688 92.15188598940014 l -3.9431869362895244 -1.5887660072689342 a25.251223428658818,25.251223428658818 0 0,0 0.16591053394028646,-0.40176551784190656 l 3.915254715463038 1.656406095564152" fill="#ff3304" stroke="none" /><path d="M 80.65960295795068 91.81776055985345 l -5.556777938943288 -2.3508766398799987 a27.03360605597186,27.03360605597186 0 0,0 0.18499906365220586,-0.4270033454130836 l 5.515488165448401 2.4461791298796816" fill="#ff4c07" stroke="none" /><path d="M 80.95270993114464 91.15688171328213 l -7.154749385475758 -3.321747865384734 a28.888247438446246,28.888247438446246 0 0,0 0.21328028855252862,-0.4492226809465519 l 7.0965109030814775 3.444412961971818" fill="#ff6509" stroke="none" /><path d="M 81.10775173730289 90.83032412892265 l -2.026026776910284 -0.9833667540285951 a23.252064535861752,23.252064535861752 0 0,0 0.17786720694510677,-0.35856943559724636 l 2.0087995570117645 1.018095778124803" fill="#ff1702" stroke="none" /><path d="M 81.26839172434947 90.50648371742162 l -7.401405854444418 -3.7511657279571633 a29.29771371769384,29.29771371769384 0 0,0 0.23185731665982107,-0.4478745370851085 l 7.335739104624483 3.8780129873026072" fill="#ff6b09" stroke="none" /><path d="M 81.43458229118936 90.18545643968196 l -9.986826241128833 -5.279500989970749 a32.296452056889436,32.296452056889436 0 0,0 0.26404948772127823,-0.4892435985803622 l 9.894468654189083 5.450625571883584" fill="#ff930d" stroke="none" /><line stroke="#e1ed5e" stroke-width="0.3" x1="26.266209847984243" x2="21.928928074336255" y1="57.711370442889674" y2="55.22380399835377" /><path d="M 25.398753493254645 57.213857153982495 a86.0,86.0 0 0,1 29.58750427330803,-30.492523968695096" fill="none" id="id47" stroke="none" /><text fill="#e1ed5e" style="font-size:6.75px; font-family:Arial;" text-anchor="middle"><textPath startOffset="21.46611528233685" xlink:href="#id47">November</textPath></text><path d="M 81.78341655067845 89.55222093294921 l -5.051069409168238 -2.8969459276565916 a26.822851353417953,26.822851353417953 0 0,0 0.2331548579850951,-0.3985372305541751 l 5.000454876712818 2.9834625705646585" fill="#ff4906" stroke="none" /><path d="M 81.96595687620814 89.24020034530311 l -1.597870276012679 -0.9533505008319332 a22.860662945404496,22.860662945404496 0 0,0 0.2045313051497707,-0.33619568778056147 l 1.5812231725766916 0.9807139618195692" fill="#ff1101" stroke="none" /><path d="M 82.54541684631803 88.32363383020206 l -6.511435048250946 -4.355870274575751 a28.83405337207524,28.83405337207524 0 0,0 0.27951942010267977,-0.41016025811584045 l 6.435491162479526 4.467308555962007" fill="#ff6509" stroke="none" /><path d="M 82.7489923806493 88.02491185347247 l -11.970706082398502 -8.309674639068453 a35.57218229087016,35.57218229087016 0 0,0 0.3534983585781224,-0.49999835893484784 l 11.825895104016501 8.514499498335088" fill="#ffbe11" stroke="none" /><path d="M 83.17141714833178 87.43820079747576 l -4.063025719081082 -3.0328705445764084 a26.070155987154,26.070155987154 0 0,0 0.27153192173814655,-0.3573041803933012 l 4.010217857118827 3.1023595008507363" fill="#ff3f05" stroke="none" /><path d="M 83.39014120810768 87.1503855733568 l -1.5764633143780649 -1.2195736280066425 a22.99313732986695,22.99313732986695 0 0,0 0.24487244467462763,-0.31096313755068217 l 1.5552367891094663 1.2465291595103722" fill="#ff1302" stroke="none" /><path d="M 83.6137871275137 86.86637796730984 l -3.5967787373513533 -2.8828340531878887 a25.60950642300046,25.60950642300046 0 0,0 0.27865765880166266,-0.34160134083837745 l 3.546622586473298 2.944319563634348" fill="#ff3805" stroke="none" /><path d="M 84.07557802195018 86.31012108654704 l -3.4063748649330434 -2.928386317509149 a25.49208594586328,25.49208594586328 0 0,0 0.2889201842613507,-0.33028571551461816 l 3.355462817093849 2.98658758922671" fill="#ff3705" stroke="none" /><path d="M 84.31358615837235 86.03803664274999 l -13.507312117604329 -12.022416260653904 a39.082753479125245,39.082753479125245 0 0,0 0.4516037463783397,-0.4986721362172701 l 13.298364730609944 12.253141184140729" fill="#ffea16" stroke="none" /><path d="M 85.31137513191541 84.99185889309783 l -3.5084563336656407 -3.5847744901885377 a26.015961920782996,26.015961920782996 0 0,0 0.32274257209071355,-0.31047809864265835 l 3.4462305179624995 3.6446356755935096" fill="#ff3e05" stroke="none" /><path d="M 85.57189188830299 84.74124197986013 l -4.75356406379221 -5.027234563333662 a27.91877580669827,27.91877580669827 0 0,0 0.3520319870339337,-0.3271753661161204 l 4.66632419296342 5.10831451552443" fill="#ff5808" stroke="none" /><path d="M 85.83668400450813 84.49514656593479 l -3.996225418516976 -4.37474454593215 a26.92521792322985,26.92521792322985 0 0,0 0.3448851322825166,-0.3096412770268186 l 3.920329298638488 4.442884831728247" fill="#ff4b06" stroke="none" /><path d="M 86.10567301691215 84.25364557470407 l -7.840658597276976 -8.885769663456495 a32.8504358464597,32.8504358464597 0 0,0 0.42722179746783207,-0.3704825328506021 l 7.68654300116237 9.019417189726777" fill="#ff9a0e" stroke="none" /><path d="M 86.93701828274178 83.55741782278169 l -4.037857745222236 -5.082515556767475 a27.491244838660347,27.491244838660347 0 0,0 0.37305284748379364,-0.2911736647273155 l 3.9497723425790165 5.151267610718012" fill="#ff5207" stroke="none" /><path d="M 87.80319425747018 82.90503203632743 l -2.6579673012853644 -3.725390632854168 a25.576387826884844,25.576387826884844 0 0,0 0.36058914273676856,-0.2526157382211288 l 2.5934470189649357 3.7705912138392392" fill="#ff3805" stroke="none" /><path d="M 88.09926311788651 82.69761687909137 l -14.594964342253988 -21.219498186303195 a46.75422465208747,46.75422465208747 0 0,0 0.6670164867822596,-0.4503725093728271 l 14.22754316106519 21.467582607974688" fill="#baff1f" stroke="none" /><path d="M 88.39885842347998 82.49532879139004 l -0.6639741910097301 -1.0018539837623928 a22.201903960850284,22.201903960850284 0 0,0 0.3203766185956227,-0.20838186459001296 l 0.6466305466298202 1.0131347725119406" fill="#ff0801" stroke="none" /><line stroke="#e1ed5e" stroke-width="0.3" x1="56.762969772571076" x2="54.21961505331055" y1="26.818313649435495" y2="22.513508569990535" /><path d="M 56.25429882871897 25.957352633546506 a86.0,86.0 0 0,1 42.265352541879196,-11.944610805530505" fill="none" id="id48" stroke="none" /><text fill="#e1ed5e" style="font-size:6.75px; font-family:Arial;" text-anchor="middle"><textPath startOffset="22.20632615414155" xlink:href="#id48">December</textPath></text><path d="M 89.63071344664047 81.73862282372117 l -1.7988468319264732 -3.16795377494132 a24.64304557271754,24.64304557271754 0 0,0 0.3706735461105356,-0.20627942709078126 l 1.744049196743892 3.1984485995922856" fill="#ff2b04" stroke="none" /><path d="M 89.94658935756843 81.56283822128135 l -2.311946207915044 -4.239926903922337 a25.829293469949533,25.829293469949533 0 0,0 0.3921808651222622,-0.20948943606485007 l 2.2386202962644766 4.279095066488936" fill="#ff3b05" stroke="none" /><path d="M 90.26544431104013 81.39251694778311 l -2.408889421042697 -4.604562396982483 a26.196608808686342,26.196608808686342 0 0,0 0.4013563878540305,-0.2055903306255132 l 2.3292725455999026 4.645345252920501" fill="#ff4006" stroke="none" /><path d="M 90.91171255644093 81.06846463323043 l -1.7851000436337625 -3.718487648982207 a25.12477060712647,25.12477060712647 0 0,0 0.3914939227976641,-0.1838116461138906 l 1.72082790953649 3.748664277736105" fill="#ff3104" stroke="none" /><path d="M 91.23893434514133 80.91482961587045 l -0.9269861293707509 -2.0193534576417838 a23.221956721211193,23.221956721211193 0 0,0 0.36471507480219645,-0.16363702287449058 l 0.8920889361017801 2.0350108110328033" fill="#ff1602" stroke="none" /><path d="M 91.56875222667455 80.76684994638697 l -2.601321667332022 -5.93406946523387 a27.479201712800123,27.479201712800123 0 0,0 0.4348469072438029,-0.18617875194776268 l 2.498791002297911 5.977967745144419" fill="#ff5207" stroke="none" /><path d="M 92.23578459929587 80.48803036053334 l -2.2329985606284173 -5.611668130176174 a27.039627618901974,27.039627618901974 0 0,0 0.4339433199861753,-0.1683632664406661 l 2.136072075642566 5.649274100507391" fill="#ff4c07" stroke="none" /><path d="M 92.57280143429618 80.3572730644239 l -4.91530842530712 -12.999526045833555 a34.89776724269766,34.89776724269766 0 0,0 0.5637114018951482,-0.20761966667420062 l 4.690814697639402 13.082208980314078" fill="#ffb510" stroke="none" /><path d="M 92.91201910852362 80.23233633223022 l -2.0385126264004856 -5.6852060690013095 a27.039627618901974,27.039627618901974 0 0,0 0.4394815004646982,-0.15332646606666664 l 1.9403491218725022 5.719453388240186" fill="#ff4c07" stroke="none" /><path d="M 93.25333710446033 80.11325718540243 l -2.133803670414127 -6.289688023159446 a27.641783911913137,27.641783911913137 0 0,0 0.4518999638487235,-0.14898431313430824 l 2.0252208843229944 6.325486060552988" fill="#ff5407" stroke="none" /><path d="M 93.94186890950719 79.89281104454417 l -0.9727844693404876 -3.2287120971446113 a24.372075240862518,24.372075240862518 0 0,0 0.4027308820457189,-0.11756818807707518 l 0.9170633695713474 3.2449786141403854" fill="#ff2703" stroke="none" /><path d="M 97.47563105711357 79.15227682838746 l -0.6775145274148462 -5.595313376078914 a26.636182902584494,26.636182902584494 0 0,0 0.45564779952445317,-0.05119733933550331 l 0.581100024380675 5.606146668885016" fill="#ff4606" stroke="none" /><path d="M 98.55514903715128 79.0497635885617 l -0.16944794037843822 -2.456983108735546 a23.46281923841566,23.46281923841566 0 0,0 0.40315598202077063,-0.024319469806721804 l 0.1271299095180446 2.459535847922574" fill="#ff1a02" stroke="none" /><path d="M 99.63851952072746 79.00311137660856 l -0.04508831868889219 -2.6189917852047153 a23.61937987459856,23.61937987459856 0 0,0 0.40656879796142725,-0.0034994660024043845 l 6.415630358356246e-16 2.619379874598561" fill="#ff1c02" stroke="none" /></svg>