<?xml version="1.0" encoding="utf-8" ?>
<svg baseProfile="full" height="200mm" version="1.1" viewBox="0,0,200,200" width="200mm" xmlns="http://www.w3.org/2000/svg" xmlns:ev="http://www.w3.org/2001/xml-events" xmlns:xlink="http://www.w3.org/1999/xlink"><defs /><rect fill="#1a1a1a" height="200" width="200" x="0" y="0" /><text alignment-baseline="middle" fill="#e1ed5e" style="dominant-baseline: central; font-size:9.0px; font-family:Arial;" text-anchor="middle" x="100.0" y="100.0">2018</text><line stroke="#e1ed5e" stroke-width="0.3" x1="100.0" x2="100.0" y1="15.0" y2="10.0" /><path d="M 100.0 14.0 a86.0,86.0 0 0,1 42.46469731375804,11.215312516191453" fill="none" id="id37" stroke="none" /><text fill="#e1ed5e" style="font-size:6.75px; font-family:Arial;" text-anchor="middle"><textPath startOffset="22.20632615414155" xlink:href="#id37">January</textPath></text><path d="M 100.0 79.0 l 0.0 -11.25436917929268 a32.25436917929268,32.25436917929268 0 0,0 0.5552059442649422,0.004778832847060637 l -0.1937254649924138 11.252701723054178" fill="#ff810b" stroke="none" /><path d="M 100.36148047927253 79.00311137660856 l 0.057647411498624734 -3.348496939860695 a24.3489931293314,24.3489931293314 0 0,0 0.4190036941315968,0.010821629238109852 l -0.11527774082508938 3.347008518480225" fill="#ff1001" stroke="none" /><path d="M 103.59715602781102 79.31037775812273 l 0.506786408585227 -2.9148636505841443 a23.958591314362874,23.958591314362874 0 0,0 0.40570437918519525,0.07413988209896419 l -0.5568859088733231 2.9057082871344413" fill="#ff0a01" stroke="none" /><path d="M 104.307194497241 79.44645832069477 l 0.6540710777975368 -3.1211678895278707 a24.18896503107687,24.18896503107687 0 0,0 0.4067861426628902,0.08890769502048265 l -0.7076999446139544 3.1094466964115175" fill="#ff0e01" stroke="none" /><path d="M 106.0581310904928 79.89281104454417 l 1.8259650803370624 -6.060454015929006 a27.32955380368951,27.32955380368951 0 0,0 0.4492648443010975,0.139588774033554 l -1.9300152973488782 6.028125107012931" fill="#ff3b05" stroke="none" /><path d="M 107.08798089147638 80.2323363322302 l 10.35413373814907 -28.876634466237377 a51.6768333366429,51.6768333366429 0 0,0 0.8347473912330567,0.3074445089141593 l -10.849663455154703 28.694126689516892" fill="#8dff24" stroke="none" /><path d="M 108.76106565485865 80.91482961587045 l 1.1303941394162558 -2.462458974955463 a23.709519351059395,23.709519351059395 0 0,0 0.3694414919657357,0.17345773414748555 l -1.1726138426815895 2.4426362581679744" fill="#ff0701" stroke="none" /><path d="M 110.36928655335952 81.73862282372117 l 1.390048157675181 -2.448017379968521 a23.815141732361642,23.815141732361642 0 0,0 0.3547359119373354,0.2054859368128861 l -1.4319808020778448 2.423727285765583" fill="#ff0801" stroke="none" /><line stroke="#e1ed5e" stroke-width="0.3" x1="143.23703022742887" x2="145.7803849466894" y1="26.818313649435467" y2="22.513508569990506" /><path d="M 143.74570117128098 25.957352633546478 a86.0,86.0 0 0,1 28.547481713284135,27.462654790039114" fill="none" id="id38" stroke="none" /><text fill="#e1ed5e" style="font-size:6.75px; font-family:Arial;" text-anchor="middle"><textPath startOffset="19.985693538727396" xlink:href="#id38">February</textPath></text><path d="M 110.99172775467656 82.1063720568725 l 1.5001274080055942 -2.442083929409531 a23.866034919279574,23.866034919279574 0 0,0 0.34819504800390666,0.21803970711657128 l -1.541941608381764 2.415899880970015" fill="#ff0901" stroke="none" /><path d="M 111.2981086023043 82.29822771554956 l 2.5239524568780807 -3.954505415120781 a25.69131634861693,25.69131634861693 0 0,0 0.37072933355420645,0.2411326710509668 l -2.5916488162165674 3.910473819910286" fill="#ff2403" stroke="none" /><path d="M 111.60114157652 82.49532879139004 l 3.4226219287177537 -5.164308282802158 a27.195516193729027,27.195516193729027 0 0,0 0.3879832849920042,0.2619680459466664 l -3.5110099081163 5.104628324556821" fill="#ff3a05" stroke="none" /><path d="M 111.90073688211348 82.69761687909136 l 1.697742342325335 -2.468333577868753 a23.995830387815484,23.995830387815484 0 0,0 0.3383056265554538,0.23700471109041338 l -1.7399791084644398 2.438744024014404" fill="#ff0b01" stroke="none" /><path d="M 113.6212207817346 84.01681056812373 l 6.854779579400179 -8.04342300054533 a31.56809616950297,31.56809616950297 0 0,0 0.4105448966098376,0.35602048876346126 l -6.99221827465678 7.924237518362197" fill="#ff770b" stroke="none" /><path d="M 115.19652480421416 85.50635884689758 l 2.403333374471124 -2.292172187367443 a24.32115411346532,24.32115411346532 0 0,0 0.2863325744876725,0.3054396265020404 l -2.4424332709292593 2.2504631439873455" fill="#ff1001" stroke="none" /><path d="M 115.9244219780498 86.31012108654704 l 10.542936060707701 -9.063532620669779 a34.90327746778133,34.90327746778133 0 0,0 0.38774115179750623,0.45896322387332733 l -10.697387825992324 8.880710447167344" fill="#ffa40f" stroke="none" /><path d="M 116.15771136456269 86.58626213691792 l 17.71196766414475 -14.70404353226011 a44.02004984213348,44.02004984213348 0 0,0 0.4789832270380543,0.5871768007343765 l -17.962449383259216 14.396982561917632" fill="#e6ff1a" stroke="none" /><path d="M 116.38621287248628 86.86637796730983 l 4.485027758538589 -3.5947695690976222 a26.74785544788419,26.74785544788419 0 0,0 0.2848594630372289,0.36174259012589377 l -4.546241302169782 3.51703458501869" fill="#ff3304" stroke="none" /><path d="M 116.60985879189232 87.15038557335679 l 4.634749737322984 -3.5855059236058278 a26.85975749121309,26.85975749121309 0 0,0 0.27975596205113845,0.36812605343403076 l -4.695781639598236 3.5051950942907655" fill="#ff3505" stroke="none" /><path d="M 117.04232023915458 87.72973835380427 l 8.537934341372173 -6.147208057150874 a31.520669641970652,31.520669641970652 0 0,0 0.3132364747433398,0.4430507795288515 l -8.642483435919395 5.99933077729023" fill="#ff770a" stroke="none" /><path d="M 117.2510076193507 88.02491185347247 l 6.324397240913173 -4.390190770574903 a28.698816497547607,28.698816497547607 0 0,0 0.27820842396015355,0.4082365330451123 l -6.39903013054206 4.280676214259387" fill="#ff4f07" stroke="none" /><path d="M 117.45458315368197 88.32363383020206 l 6.546410205067264 -4.379267151730465 a28.876132766734845,28.876132766734845 0 0,0 0.27281532851292695,0.4155164621090315 l -6.6208221689381155 4.265932625643759" fill="#ff5207" stroke="none" /><line stroke="#e1ed5e" stroke-width="0.3" x1="172.23445277983987" x2="176.4835382374775" y1="55.19839476539836" y2="52.563006222186495" /><path d="M 173.08426987136738 54.67131705675599 a86.0,86.0 0 0,1 12.851231095245387,41.99856678651699" fill="none" id="id39" stroke="none" /><text fill="#e1ed5e" style="font-size:6.75px; font-family:Arial;" text-anchor="middle"><textPath startOffset="22.20632615414155" xlink:href="#id39">March</textPath></text><path d="M 117.84615892207809 88.93136811851018 l 7.645668771979931 -4.742034041854976 a29.996840435671878,29.996840435671878 0 0,0 0.2683777342472252,0.4411424299285908 l -7.72616230451338 4.609723838719304" fill="#ff6109" stroke="none" /><path d="M 118.3937258080291 89.86733742301442 l 9.287338043688516 -5.116171873890765 a31.603294892670625,31.603294892670625 0 0,0 0.2583823700515239,0.47874329022431944 l -9.374028512958505 4.955547600333986" fill="#ff780b" stroke="none" /><path d="M 118.73160827565052 90.50648371742162 l 6.880448778028419 -3.4871353033027774 a28.713668907245975,28.713668907245975 0 0,0 0.21964587625333912,0.44279268355368784 l -6.939454667235166 3.3681830312501395" fill="#ff4f07" stroke="none" /><path d="M 119.34039704204932 91.81776055985345 l 9.730805798209975 -4.116760520138927 a31.565807998570264,31.565807998570264 0 0,0 0.20739985427223345,0.5022351979290881 l -9.800227339368405 3.948650751756536" fill="#ff770b" stroke="none" /><path d="M 119.7369772167798 92.82701384747503 l 5.219067496856199 -1.8967594922395417 a26.553049802418634,26.553049802418634 0 0,0 0.15242325470406007,0.4309210665845992 l -5.250943832370068 1.8066407992283278" fill="#ff3004" stroke="none" /><path d="M 120.08093135843002 93.85539295169968 l 5.675251512161548 -1.736582323800706 a26.934997716396275,26.934997716396275 0 0,0 0.13184566316930013,0.44451803221677494 l -5.70430307244255 1.6386349048374012" fill="#ff3605" stroke="none" /><path d="M 120.18372546131832 94.20196356495316 l 10.03713106638444 -2.8832958384104224 a31.44305486606168,31.44305486606168 0 0,0 0.14495731832583156,0.5214885998012859 l -10.085275155276635 2.7100959351901848" fill="#ff750a" stroke="none" /><path d="M 120.6074358757038 95.95851677861258 l 5.882996983523246 -1.1537599216025727 a26.995065926646678,26.995065926646678 0 0,0 0.08550272705316797,0.4567589868609974 l -5.901985434486273 1.052322857279012" fill="#ff3705" stroke="none" /><path d="M 120.73433829027371 96.67025291283417 l 15.907197669434646 -2.5545519882646746 a37.111010941440455,37.111010941440455 0 0,0 0.0958596967658478,0.6315956309760927 l -15.948813259639794 2.280357244896499" fill="#ffc212" stroke="none" /><path d="M 120.78858239683441 97.02765380044208 l 16.772316536049864 -2.3981015329501996 a37.942889155860925,37.942889155860925 0 0,0 0.08687837704375398,0.6473448206485015 l -16.811110912151452 2.109038370237034" fill="#ffcc13" stroke="none" /><path d="M 120.83666639777658 97.38593545837742 l 10.28028842946033 -1.2897138605613359 a31.360873130919998,31.360873130919998 0 0,0 0.06258681535314717,0.536205612821748 l -10.300965597817067 1.1125645094147352" fill="#ff740a" stroke="none" /><path d="M 120.94382443527127 98.46500227214037 l 7.687620485194175 -0.5634348212710938 a28.708240235111898,28.708240235111898 0 0,0 0.03187900931362233,0.49315416409823476 l -7.696180085512213 0.4310215929198238" fill="#ff4f07" stroke="none" /><path d="M 120.98425023603335 99.18683210126433 l 10.867081089687908 -0.42111399719764503 a31.875237395500307,31.875237395500307 0 0,0 0.016527015431478848,0.5484511823290134 l -10.872719799575032 0.23399266744363256" fill="#ff7b0b" stroke="none" /><line stroke="#e1ed5e" stroke-width="0.3" x1="184.98032266829074" x2="189.97916517819016" y1="98.17113171792111" y2="98.06355123074" /><path d="M 185.9800911702706 98.14961562048488 a86.0,86.0 0 0,1 -9.607161424134198,41.387399972396054" fill="none" id="id40" stroke="none" /><text fill="#e1ed5e" style="font-size:6.75px; font-family:Arial;" text-anchor="middle"><textPath startOffset="21.466115282336823" xlink:href="#id40">April</textPath></text><path d="M 120.99513854157772 99.54816195383933 l 8.590274009039161 -0.18487197007738077 a29.592263100935284,29.592263100935284 0 0,0 0.0065765181553692235,0.5093585787106364 l -8.592183534312246 0.036977133306281704" fill="#ff5c08" stroke="none" /><path d="M 120.99980553446 99.90962569577887 l 11.13645935387715 -0.047926623127151916 a32.13656248138366,32.13656248138366 0 0,0 -0.0023807113027783018,0.5531934638159652 l -11.135634345284869 -0.143776318892498" fill="#ff7f0b" stroke="none" /><path d="M 120.9904718944345 100.63252640178507 l 7.535582863726025 0.22707708231226834 a28.539003455191725,28.539003455191725 0 0,0 -0.019023103758325083,0.4909017807410069 l -7.5305576271164965 -0.3567561100672814" fill="#ff4d07" stroke="none" /><path d="M 120.95626037817324 101.35467743843564 l 15.559309803873521 1.0058018734531156 a36.591784983816204,36.591784983816204 0 0,0 -0.04604194685176367,0.6282057842952308 l -15.53969129835742 -1.2734807942451163" fill="#ffbb11" stroke="none" /><path d="M 120.92983693683757 101.71520430193887 l 15.80939273075753 1.295582880299956 a36.86239053595187,36.86239053595187 0 0,0 -0.057269065401311756,0.6319593645492235 l -15.784749069079144 -1.5675236333977502" fill="#ffbe11" stroke="none" /><path d="M 120.89721153311464 102.0752229133903 l 7.755258610332416 0.7701453536959298 a28.79340490279791,28.79340490279791 0 0,0 -0.05322351001309256,0.49278360131076465 l -7.740852798818271 -0.9035252768914857" fill="#ff5007" stroke="none" /><path d="M 120.8583938346157 102.4346265915055 l 7.740579578728427 0.9034933861859336 a28.793129827836136,28.793129827836136 0 0,0 -0.06169749458629457,0.4917897365591834 l -7.723880574895285 -1.0366008770325121" fill="#ff5007" stroke="none" /><path d="M 120.81339534386255 102.79330883721812 l 14.741001507216318 1.978349476347928 a35.873163486169304,35.873163486169304 0 0,0 -0.08740402156221627,0.6113035232339395 l -14.704763434637503 -2.2317984715622767" fill="#ffb110" stroke="none" /><path d="M 120.70491114924044 103.5080841355445 l 12.591689897557048 2.1334410590279838 a33.77114815623821,33.77114815623821 0 0,0 -0.10204283318112677,0.5723103997626489 l -12.553100622036734 -2.349870209523851" fill="#ff950d" stroke="none" /><path d="M 120.64145759157962 103.86396538481128 l 10.322643549751355 1.9323411236353634 a31.50194801326476,31.50194801326476 0 0,0 -0.1043615540323797,0.5321373156345189 l -10.28785206274331 -2.1097421663378273" fill="#ff760a" stroke="none" /><path d="M 120.5718875245553 104.21870165774334 l 2.222031773368726 0.4556747218591285 a23.26827349629659,23.26827349629659 0 0,0 -0.08383887053904024,0.39166729176123166 l -2.213858864105242 -0.4938558330365292" fill="#ff0000" stroke="none" /><path d="M 120.41448212921028 104.9243191809786 l 10.329685797962199 2.491695336008763 a31.625956631386643,31.625956631386643 0 0,0 -0.13220957937289704,0.528111549669171 l -10.285264904294241 -2.6691347250753306" fill="#ff780b" stroke="none" /><path d="M 120.32669344350535 105.2749913415812 l 7.299359248588868 1.8942607139922967 a28.541145078337536,28.541145078337536 0 0,0 -0.1274999868193934,0.47447488211427197 l -7.2656711854276965 -2.019626529282117" fill="#ff4d07" stroke="none" /><path d="M 120.23288151984713 105.62410040840565 l 6.780018577531077 1.884630481994667 a28.037079221191842,28.037079221191842 0 0,0 -0.13325271173727102,0.463870170670901 l -6.746573228907707 -2.00105812817015" fill="#ff4606" stroke="none" /><path d="M 120.13307415673323 105.97154293290107 l 12.558004505523623 3.724749756172725 a34.09874947874263,34.09874947874263 0 0,0 -0.17174927551768732,0.5612865697383776 l -12.492028457499805 -3.9403632984631596" fill="#ff9a0e" stroke="none" /><path d="M 119.9155931802556 106.66101706037122 l 22.399474641750682 7.491782011292268 a44.619129152683726,44.619129152683726 0 0,0 -0.24988660493732381,0.7262874432748225 l -22.26719720587013 -7.876242157656391" fill="#deff1b" stroke="none" /><path d="M 119.79798401119884 107.00284435728193 l 16.218222096084762 5.736628791419805 a38.20289620524633,38.20289620524633 0 0,0 -0.22462527812778144,0.6180722926894572 l -16.117072556951754 -6.014948881115392" fill="#ffd013" stroke="none" /><path d="M 119.54520255179757 107.68017299344265 l 9.213859888714977 3.620532337546182 a30.89967011854882,30.89967011854882 0 0,0 -0.19878403111071016,0.49336566305704493 l -9.150173243346874 -3.7785973684460403" fill="#ff6e0a" stroke="none" /><path d="M 119.12269723197855 108.67885076344098 l 10.36581190536466 4.704531660843098 a32.38343861077464,32.38343861077464 0 0,0 -0.23474196907471281,0.5056133177609956 l -10.283295319450117 -4.8822650458829235" fill="#ff820c" stroke="none" /><path d="M 118.97047184881838 109.00673069616215 l 6.427895220031606 3.051812398307781 a28.115574177406224,28.115574177406224 0 0,0 -0.21133103915767004,0.4354045348509533 l -6.374410924259224 -3.1620058891240097" fill="#ff4706" stroke="none" /><path d="M 118.81262510543309 109.33194174019688 l 17.500558269817404 8.681095236820063 a40.535376993188905,40.535376993188905 0 0,0 -0.31544501090199534,0.622402932785584 l -17.348534589129137 -8.981052381308341" fill="#ffed16" stroke="none" /><line stroke="#e1ed5e" stroke-width="0.3" x1="174.80103733775053" x2="179.2010983576182" y1="140.37084112569926" y2="142.7455964860345" /><path d="M 175.68104954172406 140.8457921977663 a86.0,86.0 0 0,1 -30.038265399797805,32.042727171017184" fill="none" id="id41" stroke="none" /><text fill="#e1ed5e" style="font-size:6.75px; font-family:Arial;" text-anchor="middle"><textPath startOffset="22.206326154141568" xlink:href="#id41">May</textPath></text><path d="M 118.30583269289576 110.29060199501023 l 15.003072052635282 8.433959043887029 a38.211154411326675,38.211154411326675 0 0,0 -0.3272476116947761,0.5705837947731188 l -14.855672444788127 -8.690962684518464" fill="#ffd013" stroke="none" /><path d="M 118.12598468904814 110.60418214915192 l 7.322548574239602 4.2838852735082575 a29.483595385134734,29.483595385134734 0 0,0 -0.26004408183344646,0.4358488388605024 l -7.247723616707926 -4.409296206254864" fill="#ff5a08" stroke="none" /><path d="M 117.94076556474637 110.91462005526583 l 10.280305936670628 6.254227722095525 a33.03328943187911,33.03328943187911 0 0,0 -0.2997147478502684,0.48323560478790856 l -10.171126549152397 -6.430259658248705" fill="#ff8b0c" stroke="none" /><path d="M 117.75023020441432 111.22182372390056 l 14.146914036503508 8.943781220106992 a37.736977005103356,37.736977005103356 0 0,0 -0.3518436461167296,0.5460691521957923 l -13.990865527009728 -9.18597197222424" fill="#ffca12" stroke="none" /><path d="M 117.55443506779139 111.5257021239791 l 7.162540838513984 4.702704008231814 a29.568396364105723,29.568396364105723 0 0,0 -0.28300742129381795,0.4230576958830955 l -7.080530311809445 -4.8252986183207165" fill="#ff5b08" stroke="none" /><path d="M 117.35343817320211 111.8261652097733 l 6.774721948922016 4.616893794680531 a29.198327012053454,29.198327012053454 0 0,0 -0.28661507822132976,0.41289039694048163 l -6.694245963538548 -4.73282545380803" fill="#ff5608" stroke="none" /><path d="M 117.14729908036423 112.12312394758627 l 7.835531748716882 5.539713405577596 a30.59603993327906,30.59603993327906 0 0,0 -0.30773818605674047,0.427421424890439 l -7.739013770284539 -5.673768435919169" fill="#ff6a09" stroke="none" /><path d="M 116.93607887273984 112.41649034213513 l 6.170514449754357 4.523841300402829 a28.651169105820212,28.651169105820212 0 0,0 -0.29502345310225436,0.3952321274741301 l -6.091729729957013 -4.629386307386274" fill="#ff4e07" stroke="none" /><path d="M 116.71984013943494 112.70617746262582 l 7.565813393580991 5.7496104523879925 a30.502607676880004,30.502607676880004 0 0,0 -0.32128423215226987,0.4153031796071442 l -7.465722344210653 -5.878991626108389" fill="#ff6809" stroke="none" /><path d="M 116.498646956653 112.99209946851258 l 7.294353824906924 5.744044993550259 a30.284484401993687,30.284484401993687 0 0,0 -0.32603711742594954,0.40678143448743076 l -7.19439879542612 -5.86875426161594" fill="#ff6509" stroke="none" /><path d="M 116.27256486870786 113.27417163493432 l 12.889983453962689 10.51486683997782 a37.63472566969161,37.63472566969161 0 0,0 -0.4138099380971875,0.49846072793505836 l -12.707077515971958 -10.735188825026645" fill="#ffc812" stroke="none" /><path d="M 116.0416608686014 113.55231037782055 l 11.436802304413161 9.66203536084938 a35.9718193371592,35.9718193371592 0 0,0 -0.40366803196038975,0.4695571173875922 l -11.26879176288199 -9.857469577398504" fill="#ffb310" stroke="none" /><path d="M 115.80600337817218 113.82643327865902 l 7.350877997341719 6.430241835210924 a30.766443436128597,30.766443436128597 0 0,0 -0.3521163051270738,0.3956064015695888 l -7.23910284256631 -6.555822406521377" fill="#ff6c0a" stroke="none" /><path d="M 115.56566222782051 114.09645910891815 l 7.07886081153992 6.410705211709308 a30.550257153636885,30.550257153636885 0 0,0 -0.35635215363988926,0.38674988237099234 l -6.967462249904306 -6.531606348881637" fill="#ff6909" stroke="none" /><path d="M 115.32070863581623 114.36230785411682 l 6.506621029320864 6.099593467544459 a29.918584959987292,29.918584959987292 0 0,0 -0.3554519495013688,0.37268994797401817 l -6.400662528440533 -6.2106905321009815" fill="#ff6008" stroke="none" /><path d="M 115.07121518719521 114.62390073753431 l 6.8974460797090265 6.692729521761394 a30.610795538036896,30.610795538036896 0 0,0 -0.37018564292345957,0.3749961018559165 l -6.781219811730031 -6.810466117597976" fill="#ff6a09" stroke="none" /><path d="M 114.81725581225074 114.88116024355365 l 7.034255896622183 7.064593506258452 a30.96941509958498,30.96941509958498 0 0,0 -0.3809976126605513,0.37288635335610854 l -6.911608331585837 -7.18462996253713" fill="#ff6f0a" stroke="none" /><path d="M 114.55890576462653 115.13401014063108 l 5.998084521218543 6.235020229956983 a29.65173365237594,29.65173365237594 0 0,0 -0.3708784704127303,0.35068874284216506 l -5.889870216415005 -6.337343609545071" fill="#ff5d08" stroke="none" /><path d="M 114.29624159901734 115.38237550388516 l 7.58734090872347 8.163776900776206 a32.14517812109057,32.14517812109057 0 0,0 -0.40855059633271334,0.3732012831087902 l -7.445690762923892 -8.29317095047158" fill="#ff7f0b" stroke="none" /><path d="M 114.0293411484842 115.62618273729858 l 2.8607090907216417 3.1863194812036792 a25.28208924919081,25.28208924919081 0 0,0 -0.32632874407101503,0.2879471750501929 l -2.805437993744039 -3.235089798026161" fill="#ff1e03" stroke="none" /><path d="M 113.75828350139079 115.86535959552629 l 5.486272980021944 6.326493683493942 a29.373990299648526,29.373990299648526 0 0,0 -0.38484756295829686,0.3279754422426349 l -5.3765599404866 -6.419993515959523" fill="#ff5908" stroke="none" /><path d="M 113.48314897796784 116.09983520530334 l 5.329091348556715 6.36331265388882 a29.3000579836772,29.3000579836772 0 0,0 -0.3894534008865197,0.3204936350770644 l -5.218767819125504 -6.454101407823063" fill="#ff5808" stroke="none" /><path d="M 113.20401910651253 116.32954008644616 l 5.528861574439599 6.837597399998703 a29.79323879544868,29.79323879544868 0 0,0 -0.40155966708259433,0.31902328557348475 l -5.4103444146396535 -6.931754599577314" fill="#ff5e08" stroke="none" /><path d="M 112.34349029814194 116.9893568818739 l 11.37862614076049 15.661335299943417 a40.358475049147124,40.358475049147124 0 0,0 -0.5655426807931735,0.4034996866564449 l -11.107356132118433 -15.854879248444082" fill="#ffeb16" stroke="none" /><path d="M 112.04921762599082 117.19931262002967 l 5.13431213793057 7.328827670818935 a29.948344883734784,29.948344883734784 0 0,0 -0.424757540026662,0.29215210917637285 l -5.007397713281024 -7.416120569360402" fill="#ff6108" stroke="none" /><path d="M 111.7513745106137 117.40417183066458 l 5.4257767216009976 8.035753629694517 a30.695998629837767,30.695998629837767 0 0,0 -0.4404514778387387,0.29190722242651335 l -5.286650545022295 -8.127958873212348" fill="#ff6b09" stroke="none" /><path d="M 111.45004920935366 117.60387380957326 l 4.57765220945897 7.0379096513925585 a29.39565792609067,29.39565792609067 0 0,0 -0.4265424719468197,0.2722395867550321 l -4.455827935465219 -7.1156636669713995" fill="#ff5908" stroke="none" /><line stroke="#e1ed5e" stroke-width="0.3" x1="143.8653032363475" x2="146.44561519142675" y1="172.8068346515853" y2="177.08958963109032" /><path d="M 144.38136562736335 173.6633856474863 a86.0,86.0 0 0,1 -40.68145358897372,12.25698825130547" fill="none" id="id42" stroke="none" /><text fill="#e1ed5e" style="font-size:6.75px; font-family:Arial;" text-anchor="middle"><textPath startOffset="21.466115282336833" xlink:href="#id42">June</textPath></text><path d="M 110.8373102113329 117.98757091392108 l 8.463654041416667 14.047819458159863 a37.4004472884688,37.4004472884688 0 0,0 -0.5542962301943294,0.32748798305980986 l -8.220589940193957 -14.191426013513421" fill="#ffc512" stroke="none" /><path d="M 110.5260780823613 118.17145234162733 l 7.870798123199663 13.58757097061247 a36.70259685458409,36.70259685458409 0 0,0 -0.5494050751634605,0.31196654026948983 l -7.635744281115004 -13.721040676676589" fill="#ffbc11" stroke="none" /><path d="M 110.21172684928248 118.3499491758327 l 4.642184114543872 8.341766659448325 a30.546462399968227,30.546462399968227 0 0,0 -0.4616547782791395,0.25173099399919896 l -4.497906524396082 -8.420438305207293" fill="#ff6909" stroke="none" /><path d="M 109.89434966115114 118.52300852407294 l 4.006681126773934 7.500825340332799 a29.503874084076333,29.503874084076333 0 0,0 -0.45001710856392413,0.2354276820785992 l -3.8769731156835148 -7.568682441356114" fill="#ff5a08" stroke="none" /><path d="M 109.57404056367764 118.69057910512821 l 1.3364493617459103 2.6090355842523154 a23.931409827438987,23.931409827438987 0 0,0 -0.36825436044663296,0.1846503811630612 l -1.291341093616517 -2.6316538063246786" fill="#ff0a01" stroke="none" /><path d="M 108.92500713936063 119.00905698771935 l 3.638561156132909 7.749642693864262 a29.561313518934053,29.561313518934053 0 0,0 -0.4624684561010992,0.21229658555063377 l -3.50462470426439 -7.811126349748973" fill="#ff5b08" stroke="none" /><path d="M 108.59647513512805 119.15986991738527 l 3.951098121905131 8.806228699153907 a30.651986338092495,30.651986338092495 0 0,0 -0.48324947415311653,0.21184236807577767 l -3.798927973094262 -8.872935620524139" fill="#ff6b09" stroke="none" /><path d="M 108.2653958097858 119.30500536409082 l 4.031039337236827 9.415064664669066 a31.24171473817987,31.24171473817987 0 0,0 -0.4961906437819883,0.20740772934312457 l -3.8683772339573763 -9.483057437032164" fill="#ff730a" stroke="none" /><path d="M 107.59598834532513 119.57807347666477 l 3.135790633401531 8.082258244373936 a29.66926070811573,29.66926070811573 0 0,0 -0.4777171701638583,0.1806317571226274 l -2.996203242477398 -8.135038251603195" fill="#ff5d08" stroke="none" /><path d="M 107.2578585660854 119.70592522655815 l 3.201014002132944 8.691123146151313 a30.26186332135269,30.26186332135269 0 0,0 -0.4903581022453717,0.17582496935956576 l -3.050936339257837 -8.744935656550838" fill="#ff6509" stroke="none" /><path d="M 106.91757812671514 119.82793768551818 l 3.0952687266060948 8.872006113535893 a30.39644512400961,30.39644512400961 0 0,0 -0.49550586557433973,0.1681024926484566 l -2.942093128094528 -8.923971593082472" fill="#ff6709" stroke="none" /><path d="M 106.57524785965236 119.94407469862006 l 3.835149808455998 11.632795583205409 a33.248685934986796,33.248685934986796 0 0,0 -0.5450863271995725,0.1745194287104308 l -3.6343421361654853 -11.697087858575546" fill="#ff8e0d" stroke="none" /><path d="M 106.2309692047433 120.05430185196036 l 2.6638145899868397 8.573456248922811 a29.97775362894418,29.97775362894418 0 0,0 -0.4940976543353484,0.14886757010637805 l -2.5158419612112453 -8.618039188134915" fill="#ff6109" stroke="none" /><path d="M 105.88484417918355 120.15858648285463 l 3.349974672540589 11.475368267295588 a32.95434679004746,32.95434679004746 0 0,0 -0.5458947677966468,0.15427531417478418 l -3.1519487366393375 -11.531332374808892" fill="#ff8a0c" stroke="none" /><path d="M 105.53697534728816 120.25689768951611 l 2.456829893586496 8.988255983350395 a30.31798040072281,30.31798040072281 0 0,0 -0.5045916145098235,0.13326723155386233 l -2.3017478362651738 -9.029214564207841" fill="#ff6609" stroke="none" /><path d="M 105.18746579009965 120.34920634021253 l 7.890768270081893 30.95362518190479 a52.94356172680156,52.94356172680156 0 0,0 -0.8850315922947031,0.21751923267437726 l -7.35678339304398 -31.084865672893198" fill="#7fff26" stroke="none" /><path d="M 104.48393922423573 120.51570834832081 l 2.9505340360724217 13.499802902920303 a34.81847782918644,34.81847782918644 0 0,0 -0.5866226074284789,0.12293247101141419 l -2.717719967214565 -13.548591354658258" fill="#ffa30f" stroke="none" /><path d="M 104.13013068566511 120.58985236759428 l 2.6554571747983173 13.238193984353677 a34.50189737683433,34.50189737683433 0 0,0 -0.5832995679761794,0.11179075046730695 l -2.427189992250434 -13.28194193316945" fill="#ff9f0e" stroke="none" /><path d="M 103.41894727170886 120.7198165907248 l 1.7476372093619885 10.591190669930295 a31.73440988701126,31.73440988701126 0 0,0 -0.5397330048184625,0.08429519518277286 l -1.5650683409350088 -10.619704172460175" fill="#ff790b" stroke="none" /><path d="M 103.06178313531737 120.77559828337769 l 2.612507132652772 17.727055216412886 a38.91852896205246,38.91852896205246 0 0,0 -0.6636005949703926,0.09196899572050402 l -2.3069779464955484 -17.76939877762599" fill="#ffd914" stroke="none" /><path d="M 102.70371172650421 120.8252237178851 l 0.9634008883870524 7.420554060550798 a28.48283127147084,28.48283127147084 0 0,0 -0.48674795510407,0.05893839872889552 l -0.835525510231602 -7.436037988005045" fill="#ff4c07" stroke="none" /><path d="M 102.34483914955558 120.86867818915974 l 0.8942091321146906 7.958312456291968 a29.008392293333863,29.008392293333863 0 0,0 -0.4966891568361954,0.0514838619455078 l -0.7570873786728924 -7.972525686693234" fill="#ff5307" stroke="none" /><path d="M 101.62511606390274 120.93702456842531 l 0.634345617265692 8.172529992516052 a29.197111737723148,29.197111737723148 0 0,0 -0.5014078938248367,0.034580024012389375 l -0.4935749626619252 -8.182238361044726" fill="#ff5608" stroke="none" /><path d="M 101.26447882468166 120.96189622390904 l 0.6336655394054216 10.504589731684742 a31.523684594610696,31.523684594610696 0 0,0 -0.5419250602964116,0.02801133552870642 l -0.4527524106955304 -10.51394087397565" fill="#ff770a" stroke="none" /><path d="M 100.90346689309514 120.98055641714683 l 0.6197612054391711 14.392264990839175 a35.405602921027025,35.405602921027025 0 0,0 -0.6091106558121689,0.020979002571048667 l -0.37193019795235 -14.400800791836318" fill="#ffab0f" stroke="none" /><line stroke="#e1ed5e" stroke-width="0.3" x1="102.19456741930631" x2="102.32365962044197" y1="184.97166512339345" y2="189.96999836594603" /><path d="M 102.22038585953345 185.97133177190398 a86.0,86.0 0 0,1 -42.740103519485714,-10.115201625700543" fill="none" id="id43" stroke="none" /><text fill="#e1ed5e" style="font-size:6.75px; font-family:Arial;" text-anchor="middle"><textPath startOffset="22.20632615414155" xlink:href="#id43">July</textPath></text><path d="M 100.18074693466247 120.99922214144158 l 0.06836526314259135 7.942692639132935 a28.942986854385513,28.942986854385513 0 0,0 -0.4982243956100881,0.0 l 0.06836526314258587 -7.942692639132935" fill="#ff5307" stroke="none" /><path d="M 99.81925306533755 120.99922214144158 l -0.08733831265683094 10.146986074007865 a31.147361941261742,31.147361941261742 0 0,0 -0.5360910551940455,-0.009229293684463756 l 0.2619890577435444 -10.143979303044242" fill="#ff710a" stroke="none" /><path d="M 99.45781275523022 120.99299961872073 l -0.2368686802808088 9.17134101325701 a30.17439931293314,30.17439931293314 0 0,0 -0.5191141129621607,-0.01787933966773163 l 0.3947031449176126 -9.165904875163184" fill="#ff6409" stroke="none" /><path d="M 98.37488393609728 120.93702456842531 l -0.46982211070651875 6.052907415750374 a27.071113653964535,27.071113653964535 0 0,0 -0.4642769241685649,-0.04005976659267772 l 0.5739433526166253 -6.043923396879033" fill="#ff3805" stroke="none" /><path d="M 98.01472825383883 120.90594882070398 l -1.1907937444518482 12.53968033628767 a33.59609354832304,33.59609354832304 0 0,0 -0.5752409581602898,-0.059626077331682945 l 1.4064672992177316 -12.517324890500227" fill="#ff930d" stroke="none" /><path d="M 97.65516085044442 120.86867818915974 l -0.8767665502137985 7.803076380270836 a28.85217935225084,28.85217935225084 0 0,0 -0.4930598073678935,-0.059702676136832125 l 1.010953780633081 -7.7868281754086555" fill="#ff5107" stroke="none" /><path d="M 97.2962882734958 120.8252237178851 l -1.1529666584151952 8.880676281196576 a29.955207609364763,29.955207609364763 0 0,0 -0.5107668280941056,-0.07078762825590258 l 1.3056620776961312 -8.859514087448067" fill="#ff6108" stroke="none" /><path d="M 96.93821686468263 120.77559828337769 l -1.3457221868718705 9.131340241894877 a30.22996981671598,30.22996981671598 0 0,0 -0.5141457648918066,-0.08029899453439619 l 1.5027038153721948 -9.106822940013375" fill="#ff6509" stroke="none" /><path d="M 95.86986931433489 120.58985236759428 l -3.2397044190805118 16.1508293030608 a37.47255207609365,37.47255207609365 0 0,0 -0.6313385184073271,-0.13230312492169413 l 3.5172343989172266 -16.092670197412566" fill="#ffc612" stroke="none" /><path d="M 95.51606077576429 120.51570834832081 l -7.465990629001238 34.15971506660942 a55.966085704640676,55.966085704640676 0 0,0 -0.9393770251541916,-0.21379915257606696 l 8.052887803548291 -34.026139180455665" fill="#5fff29" stroke="none" /><path d="M 94.46302465271185 120.25689768951611 l -4.477623744297717 16.381284075033935 a37.982213705593836,37.982213705593836 0 0,0 -0.6291823006936099,-0.17781320290814676 l 4.758937213095941 -16.30178207878727" fill="#ffcd13" stroke="none" /><path d="M 94.11515582081647 120.15858648285463 l -2.1099217988768784 7.2275560337131655 a28.529232113425607,28.529232113425607 0 0,0 -0.4702229140218856,-0.14167430669741285 l 2.23401968733901 -7.1901663579100275" fill="#ff4d07" stroke="none" /><path d="M 93.76903079525671 120.05430185196036 l -2.241269439885229 7.213499602087068 a28.553665680414625,28.553665680414625 0 0,0 -0.46811512443695835,-0.14987568025631126 l 2.3651059094131277 -7.17385107517105" fill="#ff4d07" stroke="none" /><path d="M 93.42475214034765 119.94407469862007 l -5.368932089412743 16.28507167009329 a38.14727357572629,38.14727357572629 0 0,0 -0.6218555405188138,-0.21096716243166708 l 5.648457362868783 -16.1902415207635" fill="#ffcf13" stroke="none" /><path d="M 93.08242187328487 119.8279376855182 l -2.530125202016162 7.252128407251963 a28.680813757223138,28.680813757223138 0 0,0 -0.4647390431811843,-0.1666388862616096 l 2.6545838058270728 -7.207501979950396" fill="#ff4f07" stroke="none" /><path d="M 92.40401165467489 119.57807347666478 l -2.93082788118451 7.553982575631792 a29.102617158799816,29.102617158799816 0 0,0 -0.46547408265063994,-0.1852217437769404 l 3.060423039877008 -7.502413987448786" fill="#ff5507" stroke="none" /><path d="M 91.7346041902142 119.30500536409082 l -3.057555524053574 7.1413550120583364 a28.76837159196966,28.76837159196966 0 0,0 -0.45355300275545835,-0.19882430771389084 l 3.180029201466777 -7.087666151049993" fill="#ff5007" stroke="none" /><path d="M 91.40352486487194 119.15986991738527 l -3.2403876438701915 7.222193371414971 a28.9158189201533,28.9158189201533 0 0,0 -0.4523700925649684,-0.2076609221446534 l 3.3642257322025797 -7.165345378936243" fill="#ff5207" stroke="none" /><path d="M 91.07499286063937 119.00905698771935 l -9.594768144947674 20.435557261002977 a43.5759069878274,43.5759069878274 0 0,0 -0.6762302889396514,-0.3246316331380206 l 9.945111101887568 -20.267371351365394" fill="#ebff1a" stroke="none" /><path d="M 90.7491055286396 118.85261126421891 l -5.947676714100648 12.120907590430791 a34.501528028753555,34.501528028753555 0 0,0 -0.530906379117403,-0.2662074799251033 l 6.15543700090081 -12.016732269596385" fill="#ff9f0e" stroke="none" /><path d="M 90.42595943632237 118.69057910512821 l -3.4479710189032775 6.7311784039743445 a28.562887467979905,28.562887467979905 0 0,0 -0.43566441457647204,-0.22791903093457427 l 3.563326336006245 -6.670829954095053" fill="#ff4d07" stroke="none" /><path d="M 90.10565033884886 118.52300852407294 l -3.677933484091325 6.885383639137618 a28.806132369586372,28.806132369586372 0 0,0 -0.43535282344757253,-0.23738907110488236 l 3.79590911940754 -6.82105391627297" fill="#ff5107" stroke="none" /><line stroke="#e1ed5e" stroke-width="0.3" x1="58.666819895761336" x2="56.23545636021788" y1="174.27360380694188" y2="178.64263932499728" /><path d="M 58.180547188652646 175.14741091055294 a86.0,86.0 0 0,1 -31.652253787137756,-30.449443065178592" fill="none" id="id44" stroke="none" /><text fill="#e1ed5e" style="font-size:6.75px; font-family:Arial;" text-anchor="middle"><textPath startOffset="22.20632615414155" xlink:href="#id44">August</textPath></text><path d="M 89.7882731507175 118.34994917583269 l -3.929077003835688 7.060349771633749 a29.079986695526124,29.079986695526124 0 0,0 -0.43530141312635834,-0.24717550304217148 l 4.050027183883254 -6.9916711027969445" fill="#ff5407" stroke="none" /><path d="M 89.4739219176387 118.17145234162733 l -3.7980623232323594 6.556697371720897 a28.577305446891323,28.577305446891323 0 0,0 -0.42353217211943806,-0.250230272646285 l 3.9103623663801796 -6.4903485267808625" fill="#ff4d07" stroke="none" /><path d="M 89.1626897886671 117.98757091392108 l -11.613128480642443 19.275260004976865 a43.50334200440835,43.50334200440835 0 0,0 -0.6380921052293458,-0.3919682875592153 l 11.943199785804099 -19.07250325058927" fill="#ecff1a" stroke="none" /><path d="M 88.54995079064634 117.60387380957326 l -8.176669885891018 12.57121801155022 a35.99644800333605,35.99644800333605 0 0,0 -0.5165066923284064,-0.3423124714261747 l 8.391851276959386 -12.428607519032727" fill="#ffb310" stroke="none" /><path d="M 88.24862548938628 117.40417183066458 l -4.700695899279691 6.96188510381255 a29.40026107547807,29.40026107547807 0 0,0 -0.4169840643628935,-0.28680544173249106 l 4.819836848265475 -6.8799388727149555" fill="#ff5908" stroke="none" /><path d="M 87.95078237400918 117.19931262002967 l -4.812890516842241 6.87002352970938 a29.38815464961576,29.38815464961576 0 0,0 -0.4118157523015518,-0.29381960488078024 l 4.93043359699268 -6.786159662984383" fill="#ff5908" stroke="none" /><path d="M 87.65650970185807 116.9893568818739 l -4.958465417544482 6.824742153989775 a29.4358452312397,29.4358452312397 0 0,0 -0.40735709679196613,-0.3013530416739261 l 5.075207484755013 -6.738379163576081" fill="#ff5908" stroke="none" /><path d="M 87.36589467227662 116.77436683061367 l -5.0661386820680185 6.726338467457117 a29.420771361623544,29.420771361623544 0 0,0 -0.4019035280576837,-0.308162487269013 l 5.181170938619188 -6.638136638360737" fill="#ff5908" stroke="none" /><path d="M 87.07902340077011 116.55440617244103 l -9.198896660743154 11.785662677334313 a35.95063692686511,35.95063692686511 0 0,0 -0.48455040067561106,-0.3849561435603186 l 9.400404554136124 -11.625572619768862" fill="#ffb210" stroke="none" /><path d="M 86.79598089348748 116.32954008644617 l -9.791086770351544 12.10873315288296 a36.571987628825035,36.571987628825035 0 0,0 -0.4861111526523411,-0.40003638435409916 l 9.998068051548573 -11.938401649671686" fill="#ffbb11" stroke="none" /><path d="M 85.97065885151581 115.62618273729859 l -5.597005199479541 6.234065099922905 a29.377949323854722,29.377949323854722 0 0,0 -0.3733803766798447,-0.3410741213337519 l 5.70348512562624 -6.136798212002577" fill="#ff5908" stroke="none" /><path d="M 85.70375840098266 115.38237550388516 l -5.898103027077887 6.346201894723854 a29.663826972338608,29.663826972338608 0 0,0 -0.3710297314506904,-0.3508317695947969 l 6.006468592919394 -6.243735488383127" fill="#ff5d08" stroke="none" /><path d="M 84.9287848128048 114.62390073753433 l -16.19991031095396 15.719096131387571 a43.5727064675629,43.5727064675629 0 0,0 -0.5176716572545081,-0.5427766630073393 l 16.468088519587425 -15.437912351797733" fill="#ebff1a" stroke="none" /><path d="M 84.67929136418377 114.36230785411684 l -6.168550007174182 5.782670783872012 a29.45519311344546,29.45519311344546 0 0,0 -0.34357882649132687,-0.37288695851398257 l 6.26717524166124 -5.6756325705566875" fill="#ff5a08" stroke="none" /><path d="M 84.4343377721795 114.09645910891817 l -5.728734022331965 5.188013443291716 a28.728769435453444,28.728769435453444 0 0,0 -0.32879549972879396,-0.369405229482454 l 5.817188371709093 -5.088634044068395" fill="#ff4f07" stroke="none" /><path d="M 84.19399662182784 113.82643327865904 l -2.442375308435341 2.136488170701041 a24.24496207232074,24.24496207232074 0 0,0 -0.27207175797688776,-0.3164809206658711 l 2.4787895759830123 -2.0941301508736414" fill="#ff0f01" stroke="none" /><path d="M 83.95833913139862 113.55231037782056 l -7.453334490928077 6.2967234626235555 a30.757095951071307,30.757095951071307 0 0,0 -0.338187451750512,-0.407368571555349 l 7.560617942572122 -6.167493633954443" fill="#ff6c09" stroke="none" /><path d="M 83.72743513129214 113.27417163493433 l -13.126166521812253 10.707530664346985 a37.939523620405495,37.939523620405495 0 0,0 -0.4084498436069141,-0.5096039819341266 l 13.308534277474028 -10.479998848834601" fill="#ffcc13" stroke="none" /><path d="M 83.50135304334701 112.99209946851258 l -6.21097794857379 4.890924905334109 a28.905529299628668,28.905529299628668 0 0,0 -0.3044621917038687,-0.3935584246937131 l 6.2942469574957265 -4.783288486527143" fill="#ff5207" stroke="none" /><path d="M 83.28015986056508 112.70617746262583 l -13.34280717902856 10.139814403277224 a37.75847068051391,37.75847068051391 0 0,0 -0.38880208911833797,-0.5208639355033473 l 13.515370534841983 -9.908637588264568" fill="#ffca12" stroke="none" /><path d="M 83.06392112726016 112.41649034213515 l -6.113462747715601 4.48201450491555 a28.580427480688655,28.580427480688655 0 0,0 -0.28746494411737866,-0.3992636649845162 l 6.189707484208586 -4.376117234479895" fill="#ff4d07" stroke="none" /><path d="M 82.85270091963577 112.12312394758628 l -12.725459875613481 8.996887885320609 a36.584650161838006,36.584650161838006 0 0,0 -0.3591203141024752,-0.5173395969232915 l 12.87844109687809 -8.776507026210304" fill="#ffbb11" stroke="none" /><path d="M 82.6465618267979 111.8261652097733 l -6.618008335992842 4.510095299844921 a29.008682410294092,29.008682410294092 0 0,0 -0.27765024193311816,-0.41504943961048996 l 6.69466168333669 -4.3955089460286105" fill="#ff5307" stroke="none" /><path d="M 82.44556493220864 111.52570212397912 l -6.321577463525459 4.150553322672146 a28.562369636013422,28.562369636013422 0 0,0 -0.26630347929326526,-0.4133089136878078 l 6.39208580619577 -4.04112280906289" fill="#ff4d07" stroke="none" /><path d="M 82.24976979558568 111.22182372390057 l -13.679538128062594 8.648302795493816 a37.184032397386765,37.184032397386765 0 0,0 -0.33737490530640424,-0.543955769862385 l 13.826377673036953 -8.411550694266166" fill="#ffc312" stroke="none" /><path d="M 82.05923443525364 110.91462005526583 l -6.608151404256178 4.020199783829415 a28.734964206993784,28.734964206993784 0 0,0 -0.25344118606009713,-0.4247820057465092 l 6.676373466014508 -3.905855684196794" fill="#ff5007" stroke="none" /><line stroke="#e1ed5e" stroke-width="0.3" x1="26.63291911575756" x2="22.317208475507996" y1="142.92168965132927" y2="145.44649492493687" /><path d="M 25.769776987707644 143.4266507060508 a86.0,86.0 0 0,1 -11.730757126820373,-40.83630448921669" fill="none" id="id45" stroke="none" /><text fill="#e1ed5e" style="font-size:6.75px; font-family:Arial;" text-anchor="middle"><textPath startOffset="21.46611528233685" xlink:href="#id45">September</textPath></text><path d="M 81.87401531095188 110.60418214915194 l -3.8849635710975323 2.2728068051182624 a25.500954645644274,25.500954645644274 0 0,0 -0.21839503758228027,-0.3807901565972107 l 3.92351060483219 -2.2055968026627437" fill="#ff2103" stroke="none" /><path d="M 81.69416730710424 110.29060199501025 l -3.8958960412526884 2.1900733087124884 a25.46927589904486,25.46927589904486 0 0,0 -0.21154488338006466,-0.3840154106998779 l 3.93301733408427 -2.122687379614789" fill="#ff2103" stroke="none" /><path d="M 81.35079622478065 109.6543875284942 l -7.7307019806381 4.002057872709367 a29.70518353223853,29.70518353223853 0 0,0 -0.231164790813405,-0.45611006288424155 l 7.798445441237773 -3.86839359812244" fill="#ff5d08" stroke="none" /><path d="M 81.18737489456691 109.33194174019688 l -14.011566735376375 6.950392288721623 a36.64071466867888,36.64071466867888 0 0,0 -0.2754103564647742,-0.5674269081704364 l 14.129130348455869 -6.708176424585902" fill="#ffbb11" stroke="none" /><path d="M 81.02952815118164 109.00673069616217 l -7.348617602203291 3.488949576984014 a29.134798695367266,29.134798695367266 0 0,0 -0.21119313784270474,-0.45489123028961753 l 7.407585356885822 -3.3619382794155706" fill="#ff5507" stroke="none" /><path d="M 80.87730276802145 108.67885076344099 l -7.132268949982164 3.236985717585127 a28.8324540797077,28.8324540797077 0 0,0 -0.20122158068843862,-0.4537015435065413 l 7.18693161540188 -3.11373583758589" fill="#ff5107" stroke="none" /><path d="M 80.73074385275274 108.34839909993369 l -15.034074935421538 6.51350818631049 a37.38441936893108,37.38441936893108 0 0,0 -0.25074089460996113,-0.592677407195075 l 15.143966811223807 -6.253756253449255" fill="#ffc512" stroke="none" /><path d="M 80.58989483394504 108.01547362559985 l -13.834968685265979 5.713200709581116 a35.96820032169026,35.96820032169026 0 0,0 -0.2313909444441399,-0.5742933478771122 l 13.931262243967508 -5.4742079938611985" fill="#ffb310" stroke="none" /><path d="M 80.45479744820244 107.68017299344265 l -7.381546010688361 2.900535319135344 a28.93097261661272,28.93097261661272 0 0,0 -0.17814001220245568,-0.4650673592363669 l 7.430380302484325 -2.7730443930658195" fill="#ff5207" stroke="none" /><path d="M 80.32549172779594 107.34259656027581 l -7.265556420572483 2.711531533296561 a28.755044381341968,28.755044381341968 0 0,0 -0.1690738264197033,-0.46521855598799083 l 7.3111545079974105 -2.586065180302453" fill="#ff5007" stroke="none" /><path d="M 80.20201598880116 107.00284435728193 l -7.217609815606225 2.552977017341278 a28.65582021088584,28.65582021088584 0 0,0 -0.16048510493535825,-0.4664448363545826 l 7.260485751484811 -2.4283594778974" fill="#ff4e07" stroke="none" /><path d="M 80.0844068197444 106.66101706037122 l -8.576740119370449 2.868597070668003 a30.043744812248057,30.043744812248057 0 0,0 -0.15981519542945086,-0.4918605959636671 l 8.624847565816149 -2.720537574726531" fill="#ff6209" stroke="none" /><path d="M 79.97269907076064 106.31721596034903 l -14.906024603198288 4.701810636459834 a36.62999017057527,36.62999017057527 0 0,0 -0.18449868016240317,-0.6029523617929278 l 14.984750055866822 -4.444531302114859" fill="#ffbb11" stroke="none" /><path d="M 79.86692584326677 105.97154293290107 l -7.38488336888265 2.190383234494844 a28.702874858515855,28.702874858515855 0 0,0 -0.13641705968650505,-0.47488568100563866 l 7.42149306545526 -2.0629400779846097" fill="#ff4f07" stroke="none" /><path d="M 79.76711848015287 105.62410040840567 l -7.794170433877081 2.166532585946894 a29.089682082646597,29.089682082646597 0 0,0 -0.12995043022758804,-0.48359389362347616 l 7.830308940446441 -2.0320477591478787" fill="#ff5507" stroke="none" /><path d="M 79.58551787078972 104.9243191809786 l -8.932196638058466 2.154597258684681 a30.188385392879127,30.188385392879127 0 0,0 -0.11750388273734452,-0.5062036514701531 l 8.967961086726365 -2.0005249498659534" fill="#ff6409" stroke="none" /><path d="M 79.50377843672027 104.57218783832718 l -8.105608552992596 1.808155943953566 a29.304837020195,29.304837020195 0 0,0 -0.10558946015031666,-0.4932788052809772 l 8.135532051867354 -1.6683633192564244" fill="#ff5808" stroke="none" /><path d="M 79.35854240842038 103.8639653848113 l -10.577480028258169 1.980045086757589 a31.76121100498421,31.76121100498421 0 0,0 -0.09596961113723618,-0.5382485452704658 l 10.609996081734595 -1.7976777907539094" fill="#ff7a0b" stroke="none" /><path d="M 79.29508885075956 103.50808413554451 l -8.583244607748634 1.4542802923858746 a29.705574028475546,29.705574028475546 0 0,0 -0.0810795899525249,-0.5048826840308924 l 8.60700595206245 -1.306318378661768" fill="#ff5d08" stroke="none" /><path d="M 79.18660465613746 102.79330883721812 l -14.971901818521573 2.0093379753136063 a36.106133958180266,36.106133958180266 0 0,0 -0.0773676921452018,-0.6166966291485597 l 15.004271019913624 -1.7513235918776378" fill="#ffb410" stroke="none" /><path d="M 79.07016306316243 101.71520430193888 l -26.601459204407035 2.1799948753993803 a47.69063523898409,47.69063523898409 0 0,0 -0.06000717630942275,-0.8187502448184752 l 26.635042939380796 -1.7217714940841442" fill="#baff1f" stroke="none" /><path d="M 79.0095281055655 100.63252640178507 l -15.370087308203543 0.4631618607277796 a36.37706417919339,36.37706417919339 0 0,0 -0.013473263089963185,-0.6260495936198376 l 15.375782633978513 -0.19852245131781315" fill="#ffb811" stroke="none" /><line stroke="#e1ed5e" stroke-width="0.3" x1="15.007084014347285" x2="10.007500721073583" y1="101.09737516637583" y2="101.16192664675087" /><path d="M 14.007167355692545 101.11028546245083 a86.0,86.0 0 0,1 10.666146001902526,-42.60595125391555" fill="none" id="id46" stroke="none" /><text fill="#e1ed5e" style="font-size:6.75px; font-family:Arial;" text-anchor="middle"><textPath startOffset="22.20632615414155" xlink:href="#id46">October</textPath></text><path d="M 79.00175016825051 100.2711162175752 l -15.136246114496487 0.19542970617698224 a36.13750769475168,36.13750769475168 0 0,0 -0.0026771056510157573,-0.6220650720473563 l 15.137367517437006 0.06514484407404939" fill="#ffb510" stroke="none" /><path d="M 79.00486145842228 99.54816195383935 l -14.958237382758025 -0.32191741624604986 a35.96170098691396,35.96170098691396 0 0,0 0.018645808963821415,-0.618763624568955 l 14.950479879338559 0.5793511882399992" fill="#ffb310" stroke="none" /><path d="M 79.01574976396665 99.18683210126434 l -9.095227564066258 -0.35245229177139337 a30.10205400226375,30.10205400226375 0 0,0 0.024520834701861855,-0.5175960651453257 l 9.087813121130896 0.5089594635397281" fill="#ff6309" stroke="none" /><path d="M 79.03285615573316 98.82574320788736 l -12.651451521548129 -0.7085396556443193 a33.67127673305666,33.67127673305666 0 0,0 0.037390203501987365,-0.5784098988799355 l 12.637380727041728 0.9262086187772668" fill="#ff940d" stroke="none" /><path d="M 79.05617556472873 98.46500227214037 l -10.0675653054996 -0.7378637992684358 a31.094568547826604,31.094568547826604 0 0,0 0.04371824698974341,-0.5334733475338417 l 10.05337257469036 0.9110510640100556" fill="#ff710a" stroke="none" /><path d="M 79.08570108090925 98.10471618934814 l -15.006285206702106 -1.3598911213956864 a36.067776862129904,36.067776862129904 0 0,0 0.061354507607966055,-0.6178315185905094 l 14.980653573411912 1.6179981706906263" fill="#ffb410" stroke="none" /><path d="M 79.12142395522702 97.74499172005258 l -7.595103759333936 -0.8203156109703005 a28.639274757242998,28.639274757242998 0 0,0 0.057155328348060995,-0.48967194911537254 l 7.579858077982286 0.9509312984105347" fill="#ff4e07" stroke="none" /><path d="M 79.21141760316559 97.0276538004421 l -7.652829440297987 -1.0941995980542827 a28.73065787644711,28.73065787644711 0 0,0 0.07421280320994991,-0.4889696488857784 l 7.632860743648735 1.2257683593321524" fill="#ff5007" stroke="none" /><path d="M 79.26566170972629 96.67025291283419 l -7.921375626242908 -1.2721012384659216 a29.022869397724342,29.022869397724342 0 0,0 0.08345890744144091,-0.49257919605726597 l 7.898304857281244 1.4082662228390161" fill="#ff5407" stroke="none" /><path d="M 79.32604984820605 96.31383870115002 l -10.381963891106816 -1.8511021464437047 a31.545698335947897,31.545698335947897 0 0,0 0.09991615659873607,-0.5337561038340356 l 10.348562010598217 2.0295363277403125" fill="#ff770a" stroke="none" /><path d="M 79.46518482838121 95.60439243477599 l -8.082612952933026 -1.7301346199498921 a29.265712186500924,29.265712186500924 0 0,0 0.109684562736214,-0.4916943877650153 l 8.051634003194774 1.8690071772648666" fill="#ff5708" stroke="none" /><path d="M 79.71946130924805 94.55025226153421 l -7.763777028412225 -2.086267379171543 a29.039200540121925,29.039200540121925 0 0,0 0.1338751802123945,-0.4816202526607145 l 7.726715077633469 2.2195989352512" fill="#ff5407" stroke="none" /><path d="M 79.81627453868168 94.20196356495316 l -8.380441836253619 -2.407390409739336 a29.719365456025734,29.719365456025734 0 0,0 0.14547502430769008,-0.4904694624570741 l 8.337760914834222 2.5512892589429494" fill="#ff5d08" stroke="none" /><path d="M 79.91906864156998 93.8553929516997 l -7.476022231961999 -2.287604000024577 a28.818186520780795,28.818186520780795 0 0,0 0.14922951199428458,-0.47309833366341547 l 7.435537236199511 2.415952500114407" fill="#ff5107" stroke="none" /><path d="M 80.14247586403 93.16781622104843 l -14.616709802342186 -5.029028137113556 a36.457662483369404,36.457662483369404 0 0,0 0.20927899491647475,-0.5916599004414184 l 14.527977726615902 5.279885663981585" fill="#ffb911" stroke="none" /><path d="M 80.38941819471856 92.48833698450439 l -11.213517962926533 -4.295240650791195 a33.008000556007865,33.008000556007865 0 0,0 0.20780336090537932,-0.5288368873080972 l 11.137921052139463 4.487626542995055" fill="#ff8b0c" stroke="none" /><path d="M 80.52162464483688 92.15188598940014 l -12.27331374086051 -4.9450923791035235 a34.232088603824536,34.232088603824536 0 0,0 0.2249183733294179,-0.5446576813825325 l 12.186373680644891 5.155624630939368" fill="#ff9b0e" stroke="none" /><path d="M 80.65960295795067 91.81776055985345 l -14.054079641005796 -5.945785108939693 a36.26006274945888,36.26006274945888 0 0,0 0.24813847041831782,-0.57273780149234 l 13.9496504607448 6.186822055018631" fill="#ffb610" stroke="none" /><path d="M 80.803312248108 91.48605970444005 l -8.170673100659405 -3.623782594822672 a29.938215661550068,29.938215661550068 0 0,0 0.21298571686128945,-0.46928579477723176 l 8.107085066834763 3.7638903984419754" fill="#ff6108" stroke="none" /><path d="M 80.95270993114464 91.15688171328213 l -14.332093868352299 -6.653985995699163 a36.8014064020334,36.8014064020334 0 0,0 0.2717026913207137,-0.5722751607466249 l 14.215432983189833 6.899703572086319" fill="#ffbe11" stroke="none" /><path d="M 81.10775173730289 90.83032412892265 l -13.553864246067484 -6.578599868519813 a36.066028415973314,36.066028415973314 0 0,0 0.2758879208363714,-0.5561732134969953 l 13.438616312277698 6.810932670515771" fill="#ffb410" stroke="none" /><path d="M 81.26839172434947 90.50648371742162 l -8.741926428284984 -4.430565686978822 a30.800570900931312,30.800570900931312 0 0,0 0.24375068271513678,-0.47084873472159544 l 8.664366312409733 4.580387143960753" fill="#ff6d0a" stroke="none" /><path d="M 81.43458229118936 90.18545643968196 l -6.765540399545364 -3.5765794231991648 a28.65274181377708,28.65274181377708 0 0,0 0.23425922402903293,-0.43404676431558603 l 6.702973076297857 3.6925071708472235" fill="#ff4e07" stroke="none" /><path d="M 81.6062741919709 89.86733742301443 l -10.597062994256001 -5.837667949849788 a33.09859955519371,33.09859955519371 0 0,0 0.27919828548211406,-0.4966625960907954 l 10.49500706748146 6.019214055875369" fill="#ff8c0c" stroke="none" /><line stroke="#e1ed5e" stroke-width="0.3" x1="26.266209847984243" x2="21.928928074336255" y1="57.71137044288968" y2="55.22380399835378" /><path d="M 25.398753493254645 57.2138571539825 a86.0,86.0 0 0,1 29.58750427330803,-30.4925239686951" fill="none" id="id47" stroke="none" /><text fill="#e1ed5e" style="font-size:6.75px; font-family:Arial;" text-anchor="middle"><textPath startOffset="21.46611528233685" xlink:href="#id47">November</textPath></text><path d="M 82.34701348167596 88.62581576622439 l -6.419088274074632 -4.135951305826137 a28.636150042693462,28.636150042693462 0 0,0 0.27054802470789613,-0.4120632028631932 l 6.346943614008815 4.245832572666999" fill="#ff4e07" stroke="none" /><path d="M 82.54541684631803 88.32363383020207 l -6.969559799787065 -4.662336049397478 a29.385233523302688,29.385233523302688 0 0,0 0.2848626007597708,-0.4180007164162615 l 6.888272733358554 4.781614789084153" fill="#ff5908" stroke="none" /><path d="M 82.7489923806493 88.02491185347247 l -8.749536427157361 -6.073643480334075 a31.650987410393377,31.650987410393377 0 0,0 0.3145315068235917,-0.4448825105657328 l 8.64369230052989 6.223352491231594" fill="#ff780b" stroke="none" /><path d="M 83.17141714833178 87.43820079747577 l -4.904282836812533 -3.660832095693542 a27.11994132131297,27.11994132131297 0 0,0 0.2824658888895961,-0.37169199949938575 l 4.840541007698828 3.7447088710739544" fill="#ff3805" stroke="none" /><path d="M 83.39014120810768 87.1503855733568 l -6.9990539134743175 -5.414564040925664 a29.848969399710082,29.848969399710082 0 0,0 0.3178857240343136,-0.4036825877228793 l 6.904814108846033 5.5342390226015885" fill="#ff5f08" stroke="none" /><path d="M 83.6137871275137 86.86637796730984 l -7.477697517677977 -5.9934076065171125 a30.583156833932364,30.583156833932364 0 0,0 0.3327760692198917,-0.40794411297824856 l 7.3734229563816935 6.121235889103444" fill="#ff6a09" stroke="none" /><path d="M 84.07557802195018 86.31012108654704 l -6.638222735143092 -5.706735576958672 a29.75401805039814,29.75401805039814 0 0,0 0.33722373272602224,-0.38550502152238897 l 6.539007138839226 5.820156154684004" fill="#ff5e08" stroke="none" /><path d="M 84.31358615837235 86.03803664274999 l -5.665252043388008 -5.0424553526353835 a28.58428880637026,28.58428880637026 0 0,0 0.33029330749206404,-0.3647181196928067 l 5.577615095279898 5.139226259597747" fill="#ff4d07" stroke="none" /><path d="M 84.5562425177563 85.77008943001954 l -5.581167028507533 -5.142499018331358 a28.58911862824917,28.58911862824917 0 0,0 0.3365792552841096,-0.3590392822271755 l 5.491820451252965 5.237807717436586" fill="#ff4d07" stroke="none" /><path d="M 84.80347519578584 85.50635884689758 l -6.046918468527359 -5.767230830340836 a29.356205742766935,29.356205742766935 0 0,0 0.35190505083515466,-0.36266908821289945 l 5.946749153989089 5.870464114103856" fill="#ff5808" stroke="none" /><path d="M 85.05521093208273 85.24692304244772 l -5.420949178782832 -5.351409113511732 a28.617366309894955,28.617366309894955 0 0,0 0.3490830829568157,-0.34758400926035754 l 5.328030295658704 5.443928973422201" fill="#ff4e07" stroke="none" /><path d="M 85.57189188830299 84.74124197986013 l -43.28432433509105 -45.776274060419595 a84.0,84.0 0 0,0 1.0591684648205755,-0.9843816557014193 l 42.48994798647562 46.51456030219566" fill="#4dd2ff" stroke="none" /><path d="M 86.10567301691215 84.25364557470407 l -5.002449219919854 -5.6692446138112595 a28.560742866220536,28.560742866220536 0 0,0 0.3714340948580835,-0.32210398688858183 l 4.904121326414997 5.75451359411952" fill="#ff4d07" stroke="none" /><path d="M 86.65592168130627 83.78471172551755 l -6.7828519647390255 -8.242300240197455 a31.674389632439087,31.674389632439087 0 0,0 0.4239792037248785,-0.34282836363492614 l 6.639969362449647 8.357834701096518" fill="#ff790b" stroke="none" /><path d="M 86.93701828274178 83.55741782278169 l -4.815127461477663 -6.060877270809241 a28.74078069461268,28.74078069461268 0 0,0 0.39000889701271824,-0.3044081303370421 l 4.710086009305519 6.142863790369505" fill="#ff5007" stroke="none" /><path d="M 87.22198572758235 83.33499621200491 l -9.369527637720944 -12.219677505869718 a36.39832999066701,36.39832999066701 0 0,0 0.5004837038845926,-0.3769539496505527 l 9.157797780077962 12.379148045026126" fill="#ffb811" stroke="none" /><path d="M 87.51073957382395 83.11751280151077 l -9.822457022282219 -13.277608063071133 a37.5159177108362,37.5159177108362 0 0,0 0.5224621831342933,-0.37959099532159035 l 9.592449522794144 13.444718293209391" fill="#ffc712" stroke="none" /><path d="M 87.80319425747018 82.90503203632743 l -6.840676554209735 -9.58785021362535 a32.778018824837666,32.778018824837666 0 0,0 0.4621214609607152,-0.32374561564000737 l 6.6746239536653595 9.704180672029299" fill="#ff880c" stroke="none" /><path d="M 88.09926311788651 82.69761687909137 l -5.07056227642925 -7.372048639867479 a29.947497021386447,29.947497021386447 0 0,0 0.4272442629467424,-0.288477233518937 l 4.94291331907597 7.458237785685082" fill="#ff6108" stroke="none" /><path d="M 89.00827224532344 82.1063720568725 l -8.311238882070164 -13.530012716967498 a36.87885184376179,36.87885184376179 0 0,0 0.5437662611984726,-0.32761308812985773 l 8.077110554654043 13.671072414555974" fill="#ffbf11" stroke="none" /><line stroke="#e1ed5e" stroke-width="0.3" x1="56.76296977257108" x2="54.21961505331056" y1="26.818313649435495" y2="22.513508569990535" /><path d="M 56.25429882871898 25.957352633546506 a86.0,86.0 0 0,1 42.26535254187918,-11.944610805530505" fill="none" id="id48" stroke="none" /><text fill="#e1ed5e" style="font-size:6.75px; font-family:Arial;" text-anchor="middle"><textPath startOffset="22.20632615414155" xlink:href="#id48">December</textPath></text><path d="M 89.3179101791058 81.91981866633112 l -9.733221896699462 -16.47415625629251 a40.13461347524772,40.13461347524772 0 0,0 0.5978208683951802,-0.346296433641537 l 9.44820429583896 16.639256847324095" fill="#ffe815" stroke="none" /><path d="M 89.63071344664047 81.73862282372117 l -12.77642103427449 -22.500587891867802 a46.87495681010346,46.87495681010346 0 0,0 0.7050795086714263,-0.3923759832022645 l 12.387217436531019 22.71717927263025" fill="#c3ff1e" stroke="none" /><path d="M 89.94658935756843 81.56283822128135 l -5.863560288794828 -10.75330686160384 a33.24805893683354,33.24805893683354 0 0,0 0.5048242040632505,-0.2696596066412561 l 5.677591038203274 10.852645194746843" fill="#ff8e0d" stroke="none" /><path d="M 90.26544431104013 81.39251694778311 l -3.5912972496027997 -6.864720367591571 a28.74737385571596,28.74737385571596 0 0,0 0.44043647844959716,-0.22560867090751702 l 3.4726002835644376 6.925521563811593" fill="#ff5007" stroke="none" /><path d="M 90.58718382345135 81.22770947309562 l -8.352398067658257 -16.657463630605665 a39.63420639806192,39.63420639806192 0 0,0 0.6124970850195405,-0.3005496595734515 l 8.064429715628291 16.798768450313947" fill="#ffe215" stroke="none" /><path d="M 90.91171255644093 81.06846463323043 l -3.2362133633447603 -6.741257703726526 a28.477809329017653,28.477809329017653 0 0,0 0.44374093842427875,-0.20834232050658005 l 3.119694213620873 6.7959650068731134" fill="#ff4c07" stroke="none" /><path d="M 91.23893434514133 80.91482961587045 l -3.1159662380618767 -6.7878439572731875 a28.468873488353623,28.468873488353623 0 0,0 0.4471211211222001,-0.20061021377968197 l 2.998662998472902 6.840474501569399" fill="#ff4c07" stroke="none" /><path d="M 91.56875222667455 80.76684994638697 l -14.092221245864275 -32.146820150147065 a56.09998212831867,56.09998212831867 0 0,0 0.8877588213768441,-0.38009199707125907 l 13.536778666697124 32.38463167518111" fill="#5dff2a" stroke="none" /><path d="M 91.90106846888425 80.62456947434976 l -2.989027332887468 -7.150781705602619 a28.750352469270638,28.750352469270638 0 0,0 0.45824793935640085,-0.18693084038400107 l 2.8654955239426863 7.201173432170197" fill="#ff5007" stroke="none" /><path d="M 92.23578459929587 80.48803036053334 l -2.864394257407735 -7.1984058789679795 a28.74737385571596,28.74737385571596 0 0,0 0.46134995006782903,-0.17899661312480336 l 2.7400611423402284 7.2466451959833345" fill="#ff5007" stroke="none" /><path d="M 92.57280143429618 80.3572730644239 l -3.7392722125092814 -9.889260716317894 a31.57258881232749,31.57258881232749 0 0,0 0.5099990545836552,-0.1878369558622315 l 3.5684908321530577 9.952160939986449" fill="#ff770b" stroke="none" /><path d="M 92.91201910852362 80.23233633223022 l -5.157446955612111 -14.383599273737284 a36.28028753549515,36.28028753549515 0 0,0 0.5896721444582348,-0.205725032685413 l 4.90909280709059 14.470245159594906" fill="#ffb710" stroke="none" /><path d="M 93.25333710446033 80.11325718540243 l -2.493302399390747 -7.349361357373202 a28.76077761671201,28.76077761671201 0 0,0 0.470193761975393,-0.15501549075448032 l 2.3664258151729447 7.391190572386914" fill="#ff5007" stroke="none" /><path d="M 93.59665428221793 80.00007090966166 l -2.3668799364193793 -7.392608954765033 a28.762266923489346,28.762266923489346 0 0,0 0.4728169169517576,-0.1469065176517241 l 2.239277646756893 7.432255607299285" fill="#ff5007" stroke="none" /><path d="M 93.94186890950719 79.89281104454417 l -4.315081151079054 -14.32193373943884 a35.957864532655535,35.957864532655535 0 0,0 0.5941776544098814,-0.173456750746336 l 4.067913278945752 14.394088819103876" fill="#ffb210" stroke="none" /><path d="M 94.28887869178378 79.79150937346287 l -3.7376087855071547 -13.22532442077913 a34.7433229412816,34.7433229412816 0 0,0 0.5769080973812761,-0.15769077584393612 l 3.509402798902157 13.28770173744936" fill="#ffa20f" stroke="none" /><path d="M 94.63758080256005 79.69619591428918 l -1.9840219334495621 -7.512130468603526 a28.769713457376042,28.769713457376042 0 0,0 0.4798940428189682,-0.12233567680114366 l 1.8544190019455928 7.545169141573533" fill="#ff5007" stroke="none" /><path d="M 94.98787191387505 79.60689891045804 l -1.8497980613618676 -7.52636768501987 a28.750352469270638,28.750352469270638 0 0,0 0.4816044281032213,-0.11398020811702785 l 1.7199699462961129 7.557093805277768" fill="#ff5007" stroke="none" /><path d="M 95.33964822691252 79.52364482259891 l -1.6571731957587834 -7.281181464193452 a28.467384181576282,28.467384181576282 0 0,0 0.47873637371622046,-0.10463322873032804 l 1.531594097889042 7.308628191019649" fill="#ff4c07" stroke="none" /><path d="M 95.692805502759 79.44645832069477 l -1.914339890600444 -9.135056416657386 a30.333485573581683,30.333485573581683 0 0,0 0.5119622002486369,-0.10269480107955525 l 1.7568112808846708 9.166655173814153" fill="#ff6609" stroke="none" /><path d="M 96.04723909329186 79.375362276772 l -1.4585430181016348 -7.610356928251963 a28.7488631624933,28.7488631624933 0 0,0 0.4868207620632344,-0.08896338258705615 l 1.3273271349355071 7.634335792189756" fill="#ff5007" stroke="none" /><path d="M 96.40284397218896 79.31037775812273 l -2.5551621340599717 -14.696426541336258 a35.9168966818245,35.9168966818245 0 0,0 0.610024192977808,-0.10065921873031822 l 2.301808734943278 14.738232023006203" fill="#ffb210" stroke="none" /><path d="M 96.75951476605007 79.25152402106235 l -5.987484139678305 -38.337212447333556 a59.801956452669835,59.801956452669835 0 0,0 1.0184302218347534,-0.15009014109624927 l 5.326684937414902 38.434597072590776" fill="#37ff2e" stroke="none" /><path d="M 97.11714578562143 79.19881850522333 l -1.0271578334017424 -7.411438431331472 a28.48227724934967,28.48227724934967 0 0,0 0.48621318535464764,-0.06312442587089018 l 0.8994299195392375 7.4280211803665" fill="#ff4c07" stroke="none" /><path d="M 97.47563105711357 79.15227682838746 l -0.9314756909559421 -7.692674005065068 a28.7488631624933,28.7488631624933 0 0,0 0.491788042105262,-0.05525811668372746 l 0.798920945340962 7.707568075219394" fill="#ff5007" stroke="none" /><path d="M 97.83486435360386 79.11191278185805 l -0.4621856708584079 -4.458923679878989 a25.482813399789514,25.482813399789514 0 0,0 0.4366963920777365,-0.04146958438852702 l 0.38536415169043475 4.466218808782696" fill="#ff2103" stroke="none" /><path d="M 98.19473922651362 79.07773832637324 l -0.900164568284201 -10.432552971611667 a31.471315951468455,31.471315951468455 0 0,0 0.5401224296469955,-0.04192389582506655 l 0.7204519492748716 10.446502129625195" fill="#ff760a" stroke="none" /><path d="M 98.55514903715128 79.0497635885617 l -0.686740003419171 -9.957681307459548 a30.981334021724024,30.981334021724024 0 0,0 0.5323448139340088,-0.032112492947124524 l 0.5152331406455394 9.968027069786979" fill="#ff6f0a" stroke="none" /><path d="M 98.91598698831166 79.02799685794201 l -0.40045500292787434 -7.747456431889043 a28.75779900315733,28.75779900315733 0 0,0 0.49457822620454395,-0.02129757879330519 l 0.2670359443340062 7.753201737206541" fill="#ff5007" stroke="none" /><path d="M 99.27714615592234 79.0124445844662 l -0.2667283582971462 -7.744271191915078 a28.7488631624933,28.7488631624933 0 0,0 0.4947177816834378,-0.012777100741257614 l 0.13338394141882934 7.7477150847986955" fill="#ff5007" stroke="none" /><path d="M 99.63851952072746 79.00311137660856 l -0.13343521335479655 -7.75069325703963 a28.751841776047975,28.751841776047975 0 0,0 0.49491569262733043,-0.004259895616903874 l 1.8986536437067773e-15 7.751841776047975" fill="#ff5007" stroke="none" /></svg>