<?xml version="1.0" encoding="utf-8" ?>
<svg baseProfile="full" height="200mm" version="1.1" viewBox="0,0,200,200" width="200mm" xmlns="http://www.w3.org/2000/svg" xmlns:ev="http://www.w3.org/2001/xml-events" xmlns:xlink="http://www.w3.org/1999/xlink"><defs /><rect fill="#1a1a1a" height="200" width="200" x="0" y="0" /><text alignment-baseline="middle" fill="#e1ed5e" style="dominant-baseline: central; font-size:9.0px; font-family:Arial;" text-anchor="middle" x="100.0" y="100.0">2023</text><line stroke="#e1ed5e" stroke-width="0.3" x1="100.0" x2="100.0" y1="15.0" y2="10.0" /><path d="M 100.0 14.0 a86.0,86.0 0 0,1 42.46469731375804,11.215312516191453" fill="none" id="id25" stroke="none" /><text fill="#e1ed5e" style="font-size:6.75px; font-family:Arial;" text-anchor="middle"><textPath startOffset="22.20632615414155" xlink:href="#id25">January</textPath></text><path d="M 100.0 79.0 l 0.0 -30.564764098095353 a51.56476409809535,51.56476409809535 0 0,0 0.887602649512113,0.007639876230508097 l -0.5261221702395846 30.560235598473405" fill="#dbff1b" stroke="none" /><path d="M 100.72285384407766 79.0124445844662 l 0.8688148894886115 -25.22543220649192 a46.24038964272376,46.24038964272376 0 0,0 0.7952447920647185,0.03424491358816342 l -1.3029005139426615 25.206739566379564" fill="#ffd413" stroke="none" /><path d="M 101.08401301168833 79.027996857942 l 1.2238969763237233 -23.678287028159993 a44.70989667621063,44.70989667621063 0 0,0 0.7682394053922138,0.04634229890407213 l -1.6312984305555491 23.653711459875616" fill="#ffbc11" stroke="none" /><path d="M 101.80526077348638 79.07773832637324 l 2.3656714283902693 -27.417200542732086 a48.51907133076061,48.51907133076061 0 0,0 0.8314664108979453,0.07895775444561769 l -2.8372629663784585 27.372417243771288" fill="#fff617" stroke="none" /><path d="M 102.52436894288641 79.15227682838746 l 4.985259418641847 -41.17120383349451 a62.47192829577991,62.47192829577991 0 0,0 1.066441246464335,0.13845468085978158 l -5.693215393614028 41.079290829470594" fill="#49ff2c" stroke="none" /><path d="M 103.59715602781102 79.31037775812273 l 3.5557571637787713 -20.451510007810107 a41.758315697746795,41.758315697746795 0 0,0 0.7071171807925754,0.12922114501057022 l -3.9072694656742475 20.387273381448797" fill="#ff8c0c" stroke="none" /><path d="M 106.40334571778207 80.00007090966166 l 6.12363278209556 -19.126285978449914 a41.0826714801444,41.0826714801444 0 0,0 0.6716374679669096,0.2214283134437541 l -6.451953072304886 19.018043940746924" fill="#ff810b" stroke="none" /><path d="M 106.74666289553966 80.11325718540242 l 7.688827272013745 -22.663905529575242 a44.932627909871776,44.932627909871776 0 0,0 0.7303006909699072,0.2547875712494376 l -8.077809967046925 22.5281971051536" fill="#ffbf11" stroke="none" /><path d="M 107.76421540070413 80.48803036053334 l 10.62043760045775 -26.68983861514049 a49.72527075812274,49.72527075812274 0 0,0 0.7925642958013597,0.3233068763616979 l -11.078285765847497 26.503070852595215" fill="#f6ff19" stroke="none" /><path d="M 108.76106565485865 80.91482961587045 l 8.532305102000866 -18.586836699569474 a41.451668119009085,41.451668119009085 0 0,0 0.6458994755484563,0.30325846433641895 l -8.850982788848919 18.43721325259305" fill="#ff870c" stroke="none" /><path d="M 109.08828744355905 81.06846463323043 l 10.368488073057279 -21.598282390828828 a44.958116519357645,44.958116519357645 0 0,0 0.6947714567440244,0.34092133646498446 l -10.738730796811735 21.41660589422901" fill="#ffc011" stroke="none" /><path d="M 110.36928655335952 81.73862282372117 l 9.761819075205533 -17.191564640593928 a40.76974978214864,40.76974978214864 0 0,0 0.607281473734622,0.3517766268939651 l -10.056297281405483 17.020983856309915" fill="#ff7c0b" stroke="none" /><line stroke="#e1ed5e" stroke-width="0.3" x1="143.23703022742887" x2="145.7803849466894" y1="26.81831364943548" y2="22.513508569990506" /><path d="M 143.74570117128098 25.957352633546492 a86.0,86.0 0 0,1 28.547481713284135,27.462654790039103" fill="none" id="id26" stroke="none" /><text fill="#e1ed5e" style="font-size:6.75px; font-family:Arial;" text-anchor="middle"><textPath startOffset="19.985693538727396" xlink:href="#id26">February</textPath></text><path d="M 110.99172775467656 82.1063720568725 l 11.933543541249922 -19.426826513182842 a43.799365118884594,43.799365118884594 0 0,0 0.6390136481276472,0.4001502878343079 l -12.266176341749832 19.21853188402559" fill="#ffad10" stroke="none" /><path d="M 111.2981086023043 82.29822771554956 l 14.804347845440667 -23.19531557046074 a48.51711066849247,48.51711066849247 0 0,0 0.7001087783917384,0.4553702242586241 l -15.201423649616686 22.937046422042588" fill="#fff617" stroke="none" /><path d="M 112.19680574252982 82.90503203632743 l 15.961447843652138 -22.371467194038313 a48.48181874766588,48.48181874766588 0 0,0 0.6751778554495992,0.49054542595158696 l -16.344171015455526 22.09340253327005" fill="#fff617" stroke="none" /><path d="M 112.48926042617603 83.11751280151076 l 14.175069598353634 -19.161297215832942 a44.834594796464586,44.834594796464586 0 0,0 0.6164838901030256,0.46432288497421464 l -14.502799642215042 18.91445774135288" fill="#ffbe11" stroke="none" /><path d="M 113.34407831869373 83.78471172551755 l 12.76092897302244 -15.50666423007101 a41.08227934769077,41.08227934769077 0 0,0 0.5421735278929812,0.45405473753442027 l -13.025960037874537 15.28470833514277" fill="#ff810b" stroke="none" /><path d="M 113.6212207817346 84.01681056812373 l 13.195864970319432 -15.484075393660639 a41.3442238267148,41.3442238267148 0 0,0 0.5376839960577153,0.4662742629551707 l -13.460442765023911 15.254636137285797" fill="#ff850c" stroke="none" /><path d="M 114.94478906791727 85.2469230424477 l 13.814488234080205 -13.637275649751864 a40.41173285198556,40.41173285198556 0 0,0 0.48443225354894487,0.4992500200794641 l -14.047184751332258 13.397461434122286" fill="#ff760a" stroke="none" /><path d="M 115.4437574822437 85.77008943001954 l 15.548343615323997 -14.32627645259057 a42.14221336984937,42.14221336984937 0 0,0 0.48695600346237505,0.5377089814639564 l -15.792643259402407 14.056514683857063" fill="#ff930d" stroke="none" /><path d="M 115.9244219780498 86.31012108654704 l 16.905003993665694 -14.532863925844293 a43.29312212124985,43.29312212124985 0 0,0 0.4809440904711282,0.5692861055427284 l -17.152658697623938 14.239718870672458" fill="#ffa50f" stroke="none" /><path d="M 116.15771136456269 86.58626213691792 l 18.936684851588687 -15.720773868513936 a45.611801319556825,45.611801319556825 0 0,0 0.4963031133633323,0.608408933442761 l -19.204486457028427 15.392480765463075" fill="#ffca12" stroke="none" /><path d="M 117.2510076193507 88.02491185347247 l 40.1854201515125 -27.895411047167485 a69.91852359019046,69.91852359019046 0 0,0 0.6777952761679188,0.9945809322322101 l -40.65963989334915 27.199552091664867" fill="#37ff7c" stroke="none" /><line stroke="#e1ed5e" stroke-width="0.3" x1="172.23445277983987" x2="176.4835382374775" y1="55.19839476539836" y2="52.563006222186495" /><path d="M 173.08426987136738 54.67131705675599 a86.0,86.0 0 0,1 12.851231095245387,41.99856678651699" fill="none" id="id27" stroke="none" /><text fill="#e1ed5e" style="font-size:6.75px; font-family:Arial;" text-anchor="middle"><textPath startOffset="22.20632615414155" xlink:href="#id27">March</textPath></text><path d="M 119.04729006885535 91.15688171328212 l 11.420904980723535 -5.302403298359229 a33.591765218473796,33.591765218473796 0 0,0 0.2389777091786292,0.5265557044793462 l -11.51048500686551 5.10502558503782" fill="#ff0000" stroke="none" /><path d="M 119.196687751892 91.48605970444005 l 18.266366509291295 -8.101332682331828 a40.98228557201544,40.98228557201544 0 0,0 0.28045405564661363,0.647326627668269 l -18.403111274780592 7.785706910076955" fill="#ff800b" stroke="none" /><path d="M 119.34039704204932 91.81776055985345 l 23.3095964150759 -9.861467616547092 a46.30979708701605,46.30979708701605 0 0,0 0.30427369917661734,0.7368228973295052 l -23.475891801138715 9.458770148764284" fill="#ffd513" stroke="none" /><path d="M 119.61058180528143 92.48833698450437 l 54.10279508408646 -20.72360569937915 a78.93600149383792,78.93600149383792 0 0,0 0.47510230432618894,1.2730379695895662 l -54.45150197691427 19.78924459276025" fill="#45fff1" stroke="none" /><path d="M 119.85752413597 93.16781622104841 l 22.157466928962215 -7.623502562461674 a44.43226689904146,44.43226689904146 0 0,0 0.24260590316662362,0.725360771005998 l -22.285410125900608 7.2409686885333615" fill="#ffb711" stroke="none" /><path d="M 119.97218684219823 93.5106431181261 l 26.752486946438076 -8.692409932111453 a49.12922942860699,49.12922942860699 0 0,0 0.2544063946216512,0.8065377937671682 l -26.898148824827935 8.230621971917865" fill="#feff18" stroke="none" /><path d="M 120.08093135843002 93.85539295169968 l 22.744598283486045 -6.95966817618733 a44.78557823976098,44.78557823976098 0 0,0 0.21922349226142368,0.7391126340697728 l -22.86102767285917 6.567126155371027" fill="#ffbd11" stroke="none" /><path d="M 120.28053869075195 94.5502522615342 l 60.84161607225586 -16.349243215397394 a84.0,84.0 0 0,0 0.36321467251878925,1.3996142978045985 l -61.11402707664495 15.299532492043943" fill="#4dd2ff" stroke="none" /><path d="M 120.37134235888165 94.90015583598534 l 23.500713262760645 -5.8832635214644275 a45.22594298518611,45.22594298518611 0 0,0 0.18255602582943156,0.7568125846249564 l -23.598502088850896 5.477865705180065" fill="#ffc412" stroke="none" /><path d="M 120.45610955862082 95.25157060432595 l 23.080160111923558 -5.357544181030997 a44.69381924561185,44.69381924561185 0 0,0 0.16750735433076241,0.750902624573325 l -23.16896185325636 4.959463386907708" fill="#ffbb11" stroke="none" /><path d="M 120.67395015179393 96.31383870115 l 23.08659730351798 -4.116335817660764 a44.45069712436201,44.45069712436201 0 0,0 0.12782356445088558,0.7544219130662351 l -23.15403272948909 3.718328116278691" fill="#ffb811" stroke="none" /><path d="M 120.73433829027371 96.67025291283417 l 23.810676033490783 -3.8237790883906024 a45.11575376571642,45.11575376571642 0 0,0 0.11653636927780137,0.767829068617491 l -23.872968296207887 3.4133509073810293" fill="#ffc212" stroke="none" /><path d="M 120.83666639777658 97.38593545837742 l 56.173790200031 -7.047284355721888 a77.6141229926553,77.6141229926553 0 0,0 0.15489430935991508,1.3270398502351384 l -56.2867748623945 6.0793007671618975" fill="#43ffe1" stroke="none" /><path d="M 120.87857604477298 97.74499172005257 l 23.471049053096007 -2.5350105218039665 a44.607550105813516,44.607550105813516 0 0,0 0.07588142409779348,0.7641155851613853 l -23.511207602876027 2.130619405938146" fill="#ffba11" stroke="none" /><path d="M 120.94382443527127 98.46500227214037 l 23.540097356053423 -1.7252816488608307 a44.6032366488236,44.6032366488236 0 0,0 0.04952957704479813,0.7662006345733303 l -23.566307524102637 1.3198219500344652" fill="#ffba11" stroke="none" /><path d="M 120.96714384426684 98.82574320788733 l 23.42301159517818 -1.3117967168853328 a44.459716170795474,44.459716170795474 0 0,0 0.03621644393548473,0.7644718910460981 l -23.44212164734716 0.9084137192162349" fill="#ffb811" stroke="none" /><path d="M 120.98425023603335 99.18683210126433 l 23.60003250590164 -0.914532977211824 a44.61774554960786,44.61774554960786 0 0,0 0.023133887916400624,0.7677011153175577 l -23.612278088273687 0.5081617144692673" fill="#ffba11" stroke="none" /><line stroke="#e1ed5e" stroke-width="0.3" x1="184.98032266829074" x2="189.97916517819016" y1="98.17113171792111" y2="98.06355123074" /><path d="M 185.9800911702706 98.14961562048488 a86.0,86.0 0 0,1 -9.607161424134198,41.387399972396054" fill="none" id="id28" stroke="none" /><text fill="#e1ed5e" style="font-size:6.75px; font-family:Arial;" text-anchor="middle"><textPath startOffset="21.466115282336823" xlink:href="#id28">April</textPath></text><path d="M 120.99980553446 99.90962569577887 l 61.84969489616529 -0.2661749954473497 a82.8502676459604,82.8502676459604 0 0,0 -0.006137637425820066,1.4261707848715526 l -61.84511296144996 -0.7985052676278875" fill="#4bdfff" stroke="none" /><path d="M 120.99824983174949 100.27111621757518 l 22.987633378924016 0.29680188885435793 a43.98954935889456,43.98954935889456 0 0,0 -0.016292759877535826,0.7570605303384723 l -22.979118556361474 -0.6924522349829451" fill="#ffb010" stroke="none" /><path d="M 120.9904718944345 100.63252640178507 l 19.858768498756728 0.5984236774463285 a40.867782895555834,40.867782895555834 0 0,0 -0.02724103788751719,0.7029701450460281 l -19.845525328018006 -0.9401710695063626" fill="#ff7e0b" stroke="none" /><path d="M 120.95626037817324 101.35467743843564 l 31.134642737376613 2.0126395315267023 a52.199626540520356,52.199626540520356 0 0,0 -0.06568065569699627,0.8961603634616072 l -31.095385523015278 -2.54827303148508" fill="#d2ff1c" stroke="none" /><path d="M 120.92983693683757 101.71520430193887 l 29.377721511984504 2.4075101239719214 a50.47620440682186,50.47620440682186 0 0,0 -0.07841935938921105,0.8653510962801204 l -29.331927556318217 -2.912842608800612" fill="#eaff1a" stroke="none" /><path d="M 120.89721153311464 102.0752229133903 l 39.08023090227123 3.8809096850296023 a60.27245736337608,60.27245736337608 0 0,0 -0.11141133703439228,1.0315306126399737 l -39.00763726373579 -4.5530366195543674" fill="#64ff29" stroke="none" /><line stroke="#e1ed5e" stroke-width="0.3" x1="174.80103733775053" x2="179.2010983576182" y1="140.37084112569926" y2="142.7455964860345" /><path d="M 175.68104954172406 140.8457921977663 a86.0,86.0 0 0,1 -30.038265399797805,32.042727171017184" fill="none" id="id29" stroke="none" /><text fill="#e1ed5e" style="font-size:6.75px; font-family:Arial;" text-anchor="middle"><textPath startOffset="22.206326154141568" xlink:href="#id29">May</textPath></text><line stroke="#e1ed5e" stroke-width="0.3" x1="143.8653032363475" x2="146.44561519142675" y1="172.8068346515853" y2="177.08958963109032" /><path d="M 144.38136562736335 173.6633856474863 a86.0,86.0 0 0,1 -40.68145358897372,12.25698825130547" fill="none" id="id30" stroke="none" /><text fill="#e1ed5e" style="font-size:6.75px; font-family:Arial;" text-anchor="middle"><textPath startOffset="21.466115282336833" xlink:href="#id30">June</textPath></text><line stroke="#e1ed5e" stroke-width="0.3" x1="102.19456741930631" x2="102.32365962044197" y1="184.97166512339345" y2="189.96999836594603" /><path d="M 102.22038585953345 185.97133177190398 a86.0,86.0 0 0,1 -42.740103519485714,-10.115201625700543" fill="none" id="id31" stroke="none" /><text fill="#e1ed5e" style="font-size:6.75px; font-family:Arial;" text-anchor="middle"><textPath startOffset="22.20632615414155" xlink:href="#id31">July</textPath></text><line stroke="#e1ed5e" stroke-width="0.3" x1="58.666819895761336" x2="56.23545636021788" y1="174.27360380694188" y2="178.64263932499728" /><path d="M 58.180547188652646 175.14741091055294 a86.0,86.0 0 0,1 -31.652253787137756,-30.449443065178592" fill="none" id="id32" stroke="none" /><text fill="#e1ed5e" style="font-size:6.75px; font-family:Arial;" text-anchor="middle"><textPath startOffset="22.20632615414155" xlink:href="#id32">August</textPath></text><line stroke="#e1ed5e" stroke-width="0.3" x1="26.63291911575756" x2="22.317208475507996" y1="142.92168965132927" y2="145.44649492493687" /><path d="M 25.769776987707644 143.4266507060508 a86.0,86.0 0 0,1 -11.730757126820373,-40.83630448921669" fill="none" id="id33" stroke="none" /><text fill="#e1ed5e" style="font-size:6.75px; font-family:Arial;" text-anchor="middle"><textPath startOffset="21.46611528233685" xlink:href="#id33">September</textPath></text><line stroke="#e1ed5e" stroke-width="0.3" x1="15.007084014347285" x2="10.007500721073583" y1="101.09737516637583" y2="101.16192664675087" /><path d="M 14.007167355692545 101.11028546245083 a86.0,86.0 0 0,1 10.666146001902534,-42.60595125391555" fill="none" id="id34" stroke="none" /><text fill="#e1ed5e" style="font-size:6.75px; font-family:Arial;" text-anchor="middle"><textPath startOffset="22.20632615414155" xlink:href="#id34">October</textPath></text><line stroke="#e1ed5e" stroke-width="0.3" x1="26.266209847984243" x2="21.928928074336255" y1="57.711370442889674" y2="55.22380399835377" /><path d="M 25.398753493254645 57.213857153982495 a86.0,86.0 0 0,1 29.58750427330803,-30.492523968695096" fill="none" id="id35" stroke="none" /><text fill="#e1ed5e" style="font-size:6.75px; font-family:Arial;" text-anchor="middle"><textPath startOffset="21.46611528233685" xlink:href="#id35">November</textPath></text><line stroke="#e1ed5e" stroke-width="0.3" x1="56.762969772571076" x2="54.21961505331055" y1="26.818313649435495" y2="22.513508569990535" /><path d="M 56.25429882871897 25.957352633546506 a86.0,86.0 0 0,1 42.265352541879196,-11.944610805530505" fill="none" id="id36" stroke="none" /><text fill="#e1ed5e" style="font-size:6.75px; font-family:Arial;" text-anchor="middle"><textPath startOffset="22.20632615414155" xlink:href="#id36">December</textPath></text></svg>