<?xml version="1.0" encoding="utf-8" ?>
<svg baseProfile="full" height="200mm" version="1.1" viewBox="0,0,200,200" width="200mm" xmlns="http://www.w3.org/2000/svg" xmlns:ev="http://www.w3.org/2001/xml-events" xmlns:xlink="http://www.w3.org/1999/xlink"><defs /><rect fill="#1a1a1a" height="200" width="200" x="0" y="0" /><text alignment-baseline="middle" fill="#e1ed5e" style="dominant-baseline: central; font-size:9.0px; font-family:Arial;" text-anchor="middle" x="100.0" y="100.0">2014</text><line stroke="#e1ed5e" stroke-width="0.3" x1="100.0" x2="100.0" y1="15.0" y2="10.0" /><path d="M 100.0 14.0 a86.0,86.0 0 0,1 42.46469731375804,11.215312516191453" fill="none" id="id13" stroke="none" /><text fill="#e1ed5e" style="font-size:6.75px; font-family:Arial;" text-anchor="middle"><textPath startOffset="22.20632615414155" xlink:href="#id13">January</textPath></text><line stroke="#e1ed5e" stroke-width="0.3" x1="143.23703022742887" x2="145.7803849466894" y1="26.81831364943548" y2="22.513508569990506" /><path d="M 143.74570117128098 25.957352633546492 a86.0,86.0 0 0,1 28.547481713284135,27.462654790039103" fill="none" id="id14" stroke="none" /><text fill="#e1ed5e" style="font-size:6.75px; font-family:Arial;" text-anchor="middle"><textPath startOffset="19.985693538727396" xlink:href="#id14">February</textPath></text><path d="M 117.04232023915458 87.72973835380427 l 11.80476707589507 -8.499287577101352 a35.54614777301556,35.54614777301556 0 0,0 0.35323964070546,0.49963242085163045 l -11.949319336404413 8.294828655917929" fill="#ff2e04" stroke="none" /><line stroke="#e1ed5e" stroke-width="0.3" x1="172.23445277983987" x2="176.4835382374775" y1="55.19839476539836" y2="52.563006222186495" /><path d="M 173.08426987136738 54.67131705675599 a86.0,86.0 0 0,1 12.851231095245387,41.99856678651699" fill="none" id="id15" stroke="none" /><text fill="#e1ed5e" style="font-size:6.75px; font-family:Arial;" text-anchor="middle"><textPath startOffset="22.20632615414155" xlink:href="#id15">March</textPath></text><path d="M 119.34039704204932 91.81776055985345 l 14.40551386011005 -6.0944645244615225 a36.64165360228076,36.64165360228076 0 0,0 0.24075016922585657,0.5829956309125397 l -14.508285716222105 5.845594323095679" fill="#ff4006" stroke="none" /><path d="M 120.37134235888165 94.90015583598534 l 11.582530509322948 -2.8996174911732737 a32.939966272754496,32.939966272754496 0 0,0 0.1329632714497358,0.5512186008041428 l -11.630726581033503 2.699813658709725" fill="#ff0000" stroke="none" /><path d="M 120.98425023603335 99.18683210126433 l 16.132475795937445 -0.6251551185688801 a37.14458405251682,37.14458405251682 0 0,0 0.019259122880084613,0.6391165276026491 l -16.140846613273176 0.3473684435412318" fill="#ff4906" stroke="none" /><line stroke="#e1ed5e" stroke-width="0.3" x1="184.98032266829074" x2="189.97916517819016" y1="98.17113171792111" y2="98.06355123074" /><path d="M 185.9800911702706 98.14961562048488 a86.0,86.0 0 0,1 -9.607161424134198,41.387399972396054" fill="none" id="id16" stroke="none" /><text fill="#e1ed5e" style="font-size:6.75px; font-family:Arial;" text-anchor="middle"><textPath startOffset="21.466115282336823" xlink:href="#id16">April</textPath></text><path d="M 120.92983693683757 101.71520430193887 l 19.255353815954418 1.5779800769661567 a40.31990351168692,40.31990351168692 0 0,0 -0.06264062524467398,0.6912340798158637 l -19.225338594432667 -1.909195545330591" fill="#ff7e0b" stroke="none" /><path d="M 120.8583938346157 102.4346265915055 l 18.130408495833873 2.116211583154614 a39.253494561055504,39.253494561055504 0 0,0 -0.08411181009688351,0.6704538848203294 l -18.091295176490142 -2.4279832222623385" fill="#ff6c0a" stroke="none" /><path d="M 120.5718875245553 104.21870165774334 l 17.527017093785286 3.5942864251318225 a38.89176411401985,38.89176411401985 0 0,0 -0.1401325103518819,0.6546524358491513 l -17.46255054470896 -3.8954526803971428" fill="#ff6609" stroke="none" /><path d="M 120.32669344350535 105.2749913415812 l 18.71722421907677 4.857317102187646 a40.33721830818483,40.33721830818483 0 0,0 -0.18019581164345244,0.6705756496125999 l -18.63084033109154 -5.1787836849757936" fill="#ff7e0b" stroke="none" /><path d="M 119.79798401119884 107.00284435728193 l 17.122542654718526 6.056500558041107 a39.16212173652097,39.16212173652097 0 0,0 -0.23026532962000953,0.633591292090337 l -17.01575306409329 -6.350339647137576" fill="#ff6b09" stroke="none" /><path d="M 119.54520255179757 107.68017299344265 l 16.956192053814142 6.662836465276401 a39.21828308949136,39.21828308949136 0 0,0 -0.25229940565256176,0.6261864339059976 l -16.83899003390419 -6.953722267025213" fill="#ff6c09" stroke="none" /><path d="M 119.26925614724726 108.34839909993367 l 16.93287036469465 7.336160702399757 a39.453762560491256,39.453762560491256 0 0,0 -0.27534764972073883,0.6208362604636597 l -16.80408163024264 -7.626545299356104" fill="#ff700a" stroke="none" /><path d="M 118.81262510543309 109.33194174019688 l 16.612332963179046 8.240493950861099 a39.5438762677522,39.5438762677522 0 0,0 -0.30772918388015486,0.6071788740707846 l -16.46802510951262 -8.525227036634577" fill="#ff710a" stroke="none" /><line stroke="#e1ed5e" stroke-width="0.3" x1="174.80103733775053" x2="179.2010983576182" y1="140.37084112569926" y2="142.7455964860345" /><path d="M 175.68104954172406 140.8457921977663 a86.0,86.0 0 0,1 -30.038265399797805,32.042727171017184" fill="none" id="id17" stroke="none" /><text fill="#e1ed5e" style="font-size:6.75px; font-family:Arial;" text-anchor="middle"><textPath startOffset="22.206326154141568" xlink:href="#id17">May</textPath></text><path d="M 117.94076556474637 110.91462005526583 l 15.827470022852074 9.62895485770103 a39.52634823638823,39.52634823638823 0 0,0 -0.3586270001823719,0.5782209136167722 l -15.659378383001739 -9.899972102683074" fill="#ff710a" stroke="none" /><path d="M 117.55443506779139 111.5257021239791 l 15.30690203189918 10.05004106251749 a39.31132368706443,39.31132368706443 0 0,0 -0.3762597134901864,0.5624572200795113 l -15.131639212998273 -10.312035196802807" fill="#ff6d0a" stroke="none" /><path d="M 116.27256486870786 113.27417163493432 l 12.010013247106134 9.797040507516558 a36.499110326131145,36.499110326131145 0 0,0 -0.4013233606966932,0.4834198410750436 l -11.839593886515898 -10.002321605705372" fill="#ff3e05" stroke="none" /><path d="M 115.56566222782051 114.09645910891815 l 13.593737946633478 12.310659726354528 a39.339630701293586,39.339630701293586 0 0,0 -0.4588754213525542,0.4980186408817993 l -13.379816117285202 -12.542829622037662" fill="#ff6e0a" stroke="none" /><path d="M 115.07121518719521 114.62390073753431 l 18.48900930666482 17.940254549993806 a46.762301885905146,46.762301885905146 0 0,0 -0.5655107122813724,0.5728593658807138 l -18.17745796932791 -18.255854409855186" fill="#ffe315" stroke="none" /><path d="M 114.55890576462653 115.13401014063108 l 8.876400016602632 9.22703464363059 a33.803462249309845,33.803462249309845 0 0,0 -0.4228075336388954,0.39979091337120815 l -8.71625664857293 -9.37846019374772" fill="#ff0f01" stroke="none" /><path d="M 114.0293411484842 115.62618273729858 l 14.91076715533566 16.607934033150155 a43.31937387137246,43.31937387137246 0 0,0 -0.5591451216730506,0.493380559187927 l -14.622679680756022 -16.86213773411037" fill="#ffae10" stroke="none" /><path d="M 112.92097659922987 116.55440617244103 l 22.739212937281387 29.133569286691408 a57.95722749868386,57.95722749868386 0 0,0 -0.7917268355018708,0.6070623764986318 l -22.234357373286024 -29.520671005017412" fill="#7eff26" stroke="none" /><path d="M 112.34349029814194 116.9893568818739 l 13.364855639976176 18.395145672570397 a43.7376505073081,43.7376505073081 0 0,0 -0.6128950137331973,0.43728431892673475 l -13.046233298394094 -18.622474253341352" fill="#ffb410" stroke="none" /><path d="M 112.04921762599082 117.19931262002967 l 13.27341199353326 18.94675401320565 a44.13358929321166,44.13358929321166 0 0,0 -0.6259469394221105,0.4305320126234511 l -12.945308169488266 -19.172426815194193" fill="#ffbb11" stroke="none" /><path d="M 111.45004920935366 117.60387380957326 l 17.861181394763005 27.46066655385618 a53.758357840384846,53.758357840384846 0 0,0 -0.7800547583827779,0.4978678538133962 l -17.385844834333298 -27.764048836493384" fill="#b6ff1f" stroke="none" /><path d="M 111.1453310114006 117.79835938074945 l 9.136238569535456 14.589971108307319 a38.21447391414299,38.21447391414299 0 0,0 -0.5605168013904878,0.3443151999353307 l -8.883742568212659 -14.745074775071027" fill="#ff5b08" stroke="none" /><line stroke="#e1ed5e" stroke-width="0.3" x1="143.8653032363475" x2="146.44561519142675" y1="172.8068346515853" y2="177.08958963109032" /><path d="M 144.38136562736335 173.6633856474863 a86.0,86.0 0 0,1 -40.68145358897372,12.25698825130547" fill="none" id="id18" stroke="none" /><text fill="#e1ed5e" style="font-size:6.75px; font-family:Arial;" text-anchor="middle"><textPath startOffset="21.466115282336833" xlink:href="#id18">June</textPath></text><path d="M 110.8373102113329 117.98757091392108 l 23.607434716580794 39.18319193412031 a66.74531127934026,66.74531127934026 0 0,0 -0.9892040632544005,0.5844391967020567 l -22.92946278229801 -39.58374970311611" fill="#33ff52" stroke="none" /><path d="M 110.5260780823613 118.17145234162733 l 9.179833740644288 15.847394444252485 a39.314181886658105,39.314181886658105 0 0,0 -0.588498169216916,0.33416461934012537 l -8.905686804506173 -16.00306222938724" fill="#ff6d0a" stroke="none" /><path d="M 109.89434966115114 118.52300852407294 l 10.77599658744835 20.17352160379018 a43.871228133864776,43.871228133864776 0 0,0 -0.6691596899339257,0.3500727233333623 l -10.427145994987928 -20.35602374606826" fill="#ffb710" stroke="none" /><path d="M 109.57404056367764 118.69057910512821 l 17.11438042229163 33.41093856774157 a58.53921726962777,58.53921726962777 0 0,0 -0.900796157523337,0.4516778936036789 l -16.536730357085535 -33.70058430225455" fill="#76ff27" stroke="none" /><path d="M 108.59647513512805 119.15986991738527 l 15.01502704731705 33.46557286684119 a57.679634738332936,57.679634738332936 0 0,0 -0.9093587883406884,0.3986361692171737 l -14.436747584318608 -33.719073589352824" fill="#82ff25" stroke="none" /><path d="M 107.93186726928326 119.44442032107085 l 9.915225945842007 24.306486016975498 a47.251037466175006,47.251037466175006 0 0,0 -0.755744172383063,0.3007262029733979 l -9.495360697417079 -24.473559064354962" fill="#ffea16" stroke="none" /><path d="M 107.59598834532513 119.57807347666477 l 9.439433967146226 24.329412235163705 a47.0964214659529,47.0964214659529 0 0,0 -0.7583191711077957,0.28673142372084337 l -9.019244575278156 -24.48829190899118" fill="#ffe815" stroke="none" /><path d="M 106.91757812671514 119.82793768551818 l 7.512198751012654 21.532305958507056 a43.805116311158656,43.805116311158656 0 0,0 -0.7140865316911799,0.24225692223610842 l -7.140442486384248 -21.658425867641288" fill="#ffb610" stroke="none" /><path d="M 106.2309692047433 120.05430185196036 l 18.692907614229917 60.16290555588107 a84.0,84.0 0 0,0 -1.3845001022390167,0.4171385235770977 l -17.654532537550654 -60.47575944856389" fill="#4dd2ff" stroke="none" /><path d="M 105.53697534728816 120.25689768951611 l 6.921104100416884 25.32070108083487 a47.249563523872155,47.249563523872155 0 0,0 -0.7863892392656466,0.20769254547063024 l -6.48422441833974 -25.436084975609084" fill="#ffea16" stroke="none" /><path d="M 104.83641907484287 120.43548508189849 l 5.283783840332739 22.325750555146872 a43.94248263641061,43.94248263641061 0 0,0 -0.737563795951846,0.1678671186570831 l -4.898699894988031 -22.41339440738164" fill="#ffb811" stroke="none" /><path d="M 104.48393922423573 120.51570834832081 l 5.558517022715286 25.432305922175058 a47.03265825863575,47.03265825863575 0 0,0 -0.7924074325514004,0.16605668192429957 l -5.119918128734507 -25.5242185848259" fill="#ffe715" stroke="none" /><path d="M 103.41894727170886 120.7198165907248 l 6.073424005610395 36.806718990742134 a58.30443729659224,58.30443729659224 0 0,0 -0.991631142610892,0.15487239055135485 l -5.438956999390986 -36.905809688640595" fill="#7aff26" stroke="none" /><path d="M 102.70371172650421 120.8252237178851 l 3.3225996895097345 25.59218173325035 a46.80696484603416,46.80696484603416 0 0,0 -0.7998921949257015,0.09685580520740479 l -2.8815800715326527 -25.645583067183107" fill="#ffe415" stroke="none" /><path d="M 102.34483914955558 120.86867818915974 l 2.7406556050928934 24.39137876934555 a45.544868127887916,45.544868127887916 0 0,0 -0.7798309509849954,0.08083266660598014 l -2.3203920575022954 -24.43494080440729" fill="#ffd113" stroke="none" /><path d="M 101.62511606390274 120.93702456842531 l 3.291835937108853 42.41004776296307 a63.53761082963699,63.53761082963699 0 0,0 -1.0911442169668104,0.07525169365776573 l -2.561328959363112 -42.46042780113712" fill="#39ff2e" stroke="none" /><line stroke="#e1ed5e" stroke-width="0.3" x1="102.19456741930631" x2="102.32365962044197" y1="184.97166512339345" y2="189.96999836594603" /><path d="M 102.22038585953345 185.97133177190398 a86.0,86.0 0 0,1 -42.740103519485714,-10.115201625700543" fill="none" id="id19" stroke="none" /><text fill="#e1ed5e" style="font-size:6.75px; font-family:Arial;" text-anchor="middle"><textPath startOffset="22.20632615414155" xlink:href="#id19">July</textPath></text><path d="M 98.73552117531835 120.96189622390904 l -1.5292911852406492 25.351822818562525 a46.39790644429265,46.39790644429265 0 0,0 -0.7968006136051043,-0.05495203544038473 l 1.9654545596246835 -25.321742438605852" fill="#ffde14" stroke="none" /><path d="M 98.37488393609728 120.93702456842531 l -1.2608711028907984 16.24431008050293 a37.29317053030607,37.29317053030607 0 0,0 -0.6395879655201626,-0.055186340910884556 l 1.5403033861525026 -16.220199487313383" fill="#ff4b07" stroke="none" /><path d="M 95.16358092515715 120.4354850818985 l -3.3747110898940287 14.259280898954707 a35.65318281792554,35.65318281792554 0 0,0 -0.5959967960325031,-0.14648151193478398 l 3.6196611706697426 -14.199078128705892" fill="#ff2f04" stroke="none" /><path d="M 94.46302465271185 120.25689768951611 l -4.041937638778935 14.787336421183499 a36.32979381169355,36.32979381169355 0 0,0 -0.6018096636320981,-0.17007742225668152 l 4.295878470515647 -14.715570205588296" fill="#ff3b05" stroke="none" /><path d="M 92.40401165467489 119.57807347666478 l -8.094950679918632 20.86411036938489 a43.37943985036688,43.37943985036688 0 0,0 -0.6938209323261032,-0.2760856678047029 l 8.452892688286592 -20.721677857174118" fill="#ffaf10" stroke="none" /><line stroke="#e1ed5e" stroke-width="0.3" x1="58.666819895761336" x2="56.23545636021788" y1="174.27360380694188" y2="178.64263932499728" /><path d="M 58.180547188652646 175.14741091055294 a86.0,86.0 0 0,1 -31.652253787137756,-30.449443065178592" fill="none" id="id20" stroke="none" /><text fill="#e1ed5e" style="font-size:6.75px; font-family:Arial;" text-anchor="middle"><textPath startOffset="22.20632615414155" xlink:href="#id20">August</textPath></text><line stroke="#e1ed5e" stroke-width="0.3" x1="26.63291911575756" x2="22.317208475507996" y1="142.92168965132927" y2="145.44649492493687" /><path d="M 25.769776987707644 143.4266507060508 a86.0,86.0 0 0,1 -11.730757126820373,-40.83630448921669" fill="none" id="id21" stroke="none" /><text fill="#e1ed5e" style="font-size:6.75px; font-family:Arial;" text-anchor="middle"><textPath startOffset="21.46611528233685" xlink:href="#id21">September</textPath></text><path d="M 80.32549172779594 107.34259656027581 l -21.43238218647686 7.998641365958373 a43.87630367625922,43.87630367625922 0 0,0 -0.25798376289453795,-0.7098605158684606 l 21.566890210376624 -7.628533053083795" fill="#ffb710" stroke="none" /><path d="M 79.86692584326677 105.97154293290107 l -24.533847376050208 7.276828256569536 a46.59026956768792,46.59026956768792 0 0,0 -0.22143104534840588,-0.7708305178818518 l 24.655471058284718 -6.853440263183089" fill="#ffe015" stroke="none" /><path d="M 79.1416061653843 102.43462659150553 l -25.835756309065438 3.0155926587847186 a47.011153437422394,47.011153437422394 0 0,0 -0.08689832286769766,-0.8045705456118323 l 25.883836933434186 -2.570425791288104" fill="#ffe715" stroke="none" /><line stroke="#e1ed5e" stroke-width="0.3" x1="15.007084014347285" x2="10.007500721073583" y1="101.09737516637583" y2="101.16192664675087" /><path d="M 14.007167355692545 101.11028546245083 a86.0,86.0 0 0,1 10.666146001902534,-42.60595125391555" fill="none" id="id22" stroke="none" /><text fill="#e1ed5e" style="font-size:6.75px; font-family:Arial;" text-anchor="middle"><textPath startOffset="22.20632615414155" xlink:href="#id22">October</textPath></text><path d="M 79.32604984820605 96.31383870115002 l -22.720366721342963 -4.051036975951409 a44.07869070230879,44.07869070230879 0 0,0 0.1396124858602468,-0.7458154820608086 l 22.647268511572854 4.441530535474791" fill="#ffba11" stroke="none" /><line stroke="#e1ed5e" stroke-width="0.3" x1="26.266209847984243" x2="21.928928074336255" y1="57.711370442889674" y2="55.22380399835377" /><path d="M 25.398753493254645 57.213857153982495 a86.0,86.0 0 0,1 29.58750427330803,-30.492523968695096" fill="none" id="id23" stroke="none" /><text fill="#e1ed5e" style="font-size:6.75px; font-family:Arial;" text-anchor="middle"><textPath startOffset="21.46611528233685" xlink:href="#id23">November</textPath></text><line stroke="#e1ed5e" stroke-width="0.3" x1="56.762969772571076" x2="54.21961505331055" y1="26.818313649435495" y2="22.513508569990535" /><path d="M 56.25429882871897 25.957352633546506 a86.0,86.0 0 0,1 42.265352541879196,-11.944610805530505" fill="none" id="id24" stroke="none" /><text fill="#e1ed5e" style="font-size:6.75px; font-family:Arial;" text-anchor="middle"><textPath startOffset="22.20632615414155" xlink:href="#id24">December</textPath></text></svg>