<?xml version="1.0" encoding="utf-8" ?>
<svg baseProfile="full" height="200mm" version="1.1" viewBox="0,0,200,200" width="200mm" xmlns="http://www.w3.org/2000/svg" xmlns:ev="http://www.w3.org/2001/xml-events" xmlns:xlink="http://www.w3.org/1999/xlink"><defs /><rect fill="#1a1a1a" height="200" width="200" x="0" y="0" /><text alignment-baseline="middle" fill="#e1ed5e" style="dominant-baseline: central; font-size:9.0px; font-family:Arial;" text-anchor="middle" x="100.0" y="100.0">2017</text><line stroke="#e1ed5e" stroke-width="0.3" x1="100.0" x2="100.0" y1="15.0" y2="10.0" /><path d="M 100.0 14.0 a86.0,86.0 0 0,1 42.46469731375804,11.215312516191453" fill="none" id="id25" stroke="none" /><text fill="#e1ed5e" style="font-size:6.75px; font-family:Arial;" text-anchor="middle"><textPath startOffset="22.20632615414155" xlink:href="#id25">January</textPath></text><line stroke="#e1ed5e" stroke-width="0.3" x1="143.23703022742887" x2="145.7803849466894" y1="26.818313649435467" y2="22.513508569990506" /><path d="M 143.74570117128098 25.957352633546478 a86.0,86.0 0 0,1 28.547481713284135,27.462654790039114" fill="none" id="id26" stroke="none" /><text fill="#e1ed5e" style="font-size:6.75px; font-family:Arial;" text-anchor="middle"><textPath startOffset="19.985693538727396" xlink:href="#id26">February</textPath></text><line stroke="#e1ed5e" stroke-width="0.3" x1="172.23445277983987" x2="176.4835382374775" y1="55.19839476539836" y2="52.563006222186495" /><path d="M 173.08426987136738 54.67131705675599 a86.0,86.0 0 0,1 12.851231095245387,41.99856678651699" fill="none" id="id27" stroke="none" /><text fill="#e1ed5e" style="font-size:6.75px; font-family:Arial;" text-anchor="middle"><textPath startOffset="22.20632615414155" xlink:href="#id27">March</textPath></text><line stroke="#e1ed5e" stroke-width="0.3" x1="184.98032266829074" x2="189.97916517819016" y1="98.17113171792111" y2="98.06355123074" /><path d="M 185.9800911702706 98.14961562048488 a86.0,86.0 0 0,1 -9.607161424134198,41.387399972396054" fill="none" id="id28" stroke="none" /><text fill="#e1ed5e" style="font-size:6.75px; font-family:Arial;" text-anchor="middle"><textPath startOffset="21.466115282336823" xlink:href="#id28">April</textPath></text><path d="M 120.64145759157962 103.86396538481128 l 7.393148162669318 1.3839559759088327 a28.521567250143715,28.521567250143715 0 0,0 -0.09448796882055245,0.48179211735699734 l -7.368230260873101 -1.511011820333775" fill="#ff4d07" stroke="none" /><line stroke="#e1ed5e" stroke-width="0.3" x1="174.80103733775053" x2="179.2010983576182" y1="140.37084112569926" y2="142.7455964860345" /><path d="M 175.68104954172406 140.8457921977663 a86.0,86.0 0 0,1 -30.038265399797805,32.042727171017184" fill="none" id="id29" stroke="none" /><text fill="#e1ed5e" style="font-size:6.75px; font-family:Arial;" text-anchor="middle"><textPath startOffset="22.206326154141568" xlink:href="#id29">May</textPath></text><path d="M 115.80600337817218 113.82643327865902 l 6.391642169882372 5.591142295020918 a29.491993982039226,29.491993982039226 0 0,0 -0.33753046475274573,0.379219055285599 l -6.294452855481291 -5.700335520047382" fill="#ff5b08" stroke="none" /><path d="M 115.07121518719521 114.62390073753431 l 3.666067395462764 3.5572583247241005 a26.10824205934821,26.10824205934821 0 0,0 -0.31573489687099277,0.31983778358195974 l -3.6042918735362357 -3.6198366022867248" fill="#ff2a04" stroke="none" /><path d="M 113.75828350139079 115.86535959552629 l 5.879361506404454 6.779783574148078 a29.973982228379914,29.973982228379914 0 0,0 -0.392708443594922,0.33467465525933027 l -5.761787586232485 -6.879982619630354" fill="#ff6109" stroke="none" /><path d="M 113.48314897796784 116.09983520530334 l 4.001537918194544 4.77811979649391 a27.23239396222637,27.23239396222637 0 0,0 -0.36197022029031317,0.2978768484917953 l -3.91869756935954 -4.846291763842883" fill="#ff3b05" stroke="none" /><path d="M 113.20401910651253 116.32954008644616 l 12.954535649075348 16.021001444820275 a41.60321531164729,41.60321531164729 0 0,0 -0.5607370653727876,0.4454834377110542 l -12.67684109098521 -16.241618796536454" fill="#fffb17" stroke="none" /><path d="M 112.92097659922987 116.55440617244103 l 3.1600735768680144 4.048698728344548 a26.135954283686544,26.135954283686544 0 0,0 -0.35703116368557514,0.27375627172425826 l -3.0899136846889457 -4.102494341896177" fill="#ff2b04" stroke="none" /><path d="M 112.63410532772338 116.77436683061366 l 11.103441650712673 14.742096769026313 a39.455780493875544,39.455780493875544 0 0,0 -0.5460210864469655,0.4039333462328916 l -10.848035593847143 -14.931040063998974" fill="#ffe015" stroke="none" /><path d="M 112.34349029814194 116.9893568818739 l 3.722668435256448 5.123813530195687 a27.33338182735504,27.33338182735504 0 0,0 -0.38302225282202407,0.2732762075169586 l -3.633918854585539 -5.187133999556864" fill="#ff3c05" stroke="none" /><path d="M 111.1453310114006 117.79835938074945 l 8.03514560308087 12.831598179901002 a36.139797776494525,36.139797776494525 0 0,0 -0.5300861631143055,0.3256222164668048 l -7.813080240034257 -12.968008863196186" fill="#ffb510" stroke="none" /><line stroke="#e1ed5e" stroke-width="0.3" x1="143.8653032363475" x2="146.44561519142675" y1="172.8068346515853" y2="177.08958963109032" /><path d="M 144.38136562736335 173.6633856474863 a86.0,86.0 0 0,1 -40.68145358897372,12.25698825130547" fill="none" id="id30" stroke="none" /><text fill="#e1ed5e" style="font-size:6.75px; font-family:Arial;" text-anchor="middle"><textPath startOffset="21.466115282336833" xlink:href="#id30">June</textPath></text><path d="M 110.8373102113329 117.98757091392108 l 7.963991910062575 13.218489315765861 a36.432226894863824,36.432226894863824 0 0,0 -0.5399466447459764,0.31900999504502936 l -7.735277394288216 -13.35361788310464" fill="#ffb911" stroke="none" /><path d="M 110.5260780823613 118.17145234162733 l 2.812989073437168 4.856138866301774 a26.61203993357884,26.61203993357884 0 0,0 -0.3983584556125157,0.22619832761384517 l -2.7289818509034545 -4.903840359710247" fill="#ff3204" stroke="none" /><path d="M 109.57404056367764 118.69057910512821 l 2.1705063446922073 4.237293571489649 a25.760856498922923,25.760856498922923 0 0,0 -0.39640571963676696,0.19876605707362466 l -2.0972467173726796 -4.274027469472576" fill="#ff2503" stroke="none" /><path d="M 109.2508944713604 118.85261126421891 l 2.700999560252693 5.504429316744983 a27.131406097097702,27.131406097097702 0 0,0 -0.42103721649454234,0.20212345030689338 l -2.605849675757918 -5.550107043551434" fill="#ff3905" stroke="none" /><path d="M 107.59598834532513 119.57807347666477 l 3.175082732129121 8.183530595116096 a29.77788831992443,29.77788831992443 0 0,0 -0.4794662287543447,0.18129310142055502 l -3.0337462826145014 -8.236971946643282" fill="#ff5f08" stroke="none" /><line stroke="#e1ed5e" stroke-width="0.3" x1="102.19456741930631" x2="102.32365962044197" y1="184.97166512339345" y2="189.96999836594603" /><path d="M 102.22038585953345 185.97133177190398 a86.0,86.0 0 0,1 -42.740103519485714,-10.115201625700543" fill="none" id="id31" stroke="none" /><text fill="#e1ed5e" style="font-size:6.75px; font-family:Arial;" text-anchor="middle"><textPath startOffset="22.20632615414155" xlink:href="#id31">July</textPath></text><path d="M 94.81253420990036 120.34920634021253 l -2.340043446563072 9.179439222530158 a30.47300943586186,30.47300943586186 0 0,0 -0.5071718111490193,-0.13394868493731588 l 2.49770570052358 -9.13779918828926" fill="#ff6809" stroke="none" /><path d="M 93.76903079525671 120.05430185196036 l -2.715253970600839 8.739013296633122 a30.15111782918317,30.15111782918317 0 0,0 -0.49430410905884514,-0.15826056611136327 l 2.8652794247506246 -8.69097988386205" fill="#ff6409" stroke="none" /><path d="M 93.08242187328487 119.8279376855182 l -11.481611807187747 32.90988251553487 a55.855240307266,55.855240307266 0 0,0 -0.9050688434708893,-0.32452548646159946 l 12.046400211288363 -32.70736948803331" fill="#60ff29" stroke="none" /><path d="M 90.7491055286396 118.85261126421891 l -4.083804883942932 8.322480187645345 a30.270444369277314,30.270444369277314 0 0,0 -0.4657988481256374,-0.2335612122756601 l 4.226457639751328 -8.250951134460383" fill="#ff6609" stroke="none" /><path d="M 90.10565033884886 118.52300852407294 l -4.767594383992313 8.92531540104654 a31.11885424435166,31.11885424435166 0 0,0 -0.4703054503781864,-0.25644803016715917 l 4.920522646239141 -8.841926719119614" fill="#ff710a" stroke="none" /><line stroke="#e1ed5e" stroke-width="0.3" x1="58.666819895761336" x2="56.23545636021788" y1="174.27360380694188" y2="178.64263932499728" /><path d="M 58.180547188652646 175.14741091055294 a86.0,86.0 0 0,1 -31.652253787137756,-30.449443065178592" fill="none" id="id32" stroke="none" /><text fill="#e1ed5e" style="font-size:6.75px; font-family:Arial;" text-anchor="middle"><textPath startOffset="22.20632615414155" xlink:href="#id32">August</textPath></text><path d="M 87.95078237400918 117.19931262002967 l -2.8637017239682305 4.087709487029649 a25.9910075550144,25.9910075550144 0 0,0 -0.36421158310065976,-0.2598552941250277 l 2.933640634917777 -4.037809931060404" fill="#ff2903" stroke="none" /><path d="M 87.36589467227662 116.77436683061367 l -2.8034891015576666 3.722206945035017 a25.659868633794254,25.659868633794254 0 0,0 -0.3505275781746026,-0.2687695996815567 l 2.867145408225756 -3.6733980035260934" fill="#ff2403" stroke="none" /><path d="M 85.44109423537348 115.13401014063109 l -6.265758322787892 6.513267654098879 a30.037830651960483,30.037830651960483 0 0,0 -0.36953690378389614,-0.36166963756082954 l 6.376945178947583 -6.404447913615478" fill="#ff6209" stroke="none" /><path d="M 83.95833913139862 113.55231037782056 l -7.028189825278016 5.937552893468723 a30.200542733060928,30.200542733060928 0 0,0 -0.33206791059285856,-0.399997190012173 l 7.129353735764409 -5.815694446342786" fill="#ff6509" stroke="none" /><path d="M 83.50135304334701 112.99209946851258 l -7.328074943530612 5.770599178781306 a30.327405708992863,30.327405708992863 0 0,0 -0.319438828299574,-0.412917746364592 l 7.426320589048254 -5.643603438303462" fill="#ff6609" stroke="none" /><path d="M 83.06392112726016 112.41649034213515 l -12.7070130277054 9.315999631404955 a36.75614258689645,36.75614258689645 0 0,0 -0.3696971461274307,-0.5134770013448422 l 12.86548996620844 -9.095889024608974" fill="#ffbd11" stroke="none" /><path d="M 82.44556493220864 111.52570212397912 l -7.778011834668483 5.106803333572175 a30.3046713207951,30.3046713207951 0 0,0 -0.28254796483660966,-0.43852071599378983 l 7.864764662882138 -4.972161017656937" fill="#ff6609" stroke="none" /><path d="M 82.24976979558568 111.22182372390057 l -10.599461658520253 6.701056207742951 a33.540045524230415,33.540045524230415 0 0,0 -0.30431260283392403,-0.49064881101045876 l 10.713238901022134 -6.517611065367228" fill="#ff930d" stroke="none" /><line stroke="#e1ed5e" stroke-width="0.3" x1="26.63291911575756" x2="22.317208475507996" y1="142.92168965132927" y2="145.44649492493687" /><path d="M 25.769776987707644 143.4266507060508 a86.0,86.0 0 0,1 -11.730757126820373,-40.83630448921669" fill="none" id="id33" stroke="none" /><text fill="#e1ed5e" style="font-size:6.75px; font-family:Arial;" text-anchor="middle"><textPath startOffset="21.46611528233685" xlink:href="#id33">September</textPath></text><path d="M 81.87401531095188 110.60418214915194 l -10.018116509205166 5.8608640621452786 a32.60656650120763,32.60656650120763 0 0,0 -0.2792488522650933,-0.48689391188000075 l 10.117517357622637 -5.68755030440697" fill="#ff860c" stroke="none" /><path d="M 80.73074385275274 108.34839909993369 l -3.3888845338609457 1.4682331469399028 a24.693270496134147,24.693270496134147 0 0,0 -0.16562013907301912,-0.3914770853704418 l 3.413655654126274 -1.409681535903301" fill="#ff1602" stroke="none" /><path d="M 80.0844068197444 106.66101706037122 l -4.741597286304866 1.5858860005635667 a25.99977791829569,25.99977791829569 0 0,0 -0.13830365073001136,-0.4256548689829926 l 4.768193188051126 -1.5040322316027697" fill="#ff2904" stroke="none" /><path d="M 79.67330655649465 105.27499134158121 l -32.360457219884026 8.397879966012807 a54.43237322421942,54.43237322421942 0 0,0 -0.22754983357880681,-0.9089484726316466 l 32.500218367757896 -7.839603653983769" fill="#6fff28" stroke="none" /><path d="M 79.35854240842038 103.8639653848113 l -12.792862070057206 2.3947522112746116 a34.01507426397994,34.01507426397994 0 0,0 -0.1027798798164871,-0.5764441487127473 l 12.832188392212883 -2.1741893118286506" fill="#ff990e" stroke="none" /><path d="M 79.23777060512086 103.15116336523772 l -10.97689250398805 1.6660051704876693 a32.102600698584126,32.102600698584126 0 0,0 -0.07821714426563087,-0.5470505248187383 l 11.003943699270282 -1.4768091736885312" fill="#ff7f0b" stroke="none" /><path d="M 79.10278846688536 102.07522291339032 l -9.592597068279812 0.9526044756483352 a30.639780796335344,30.639780796335344 0 0,0 -0.04760167706963594,-0.525280539879665 l 9.607573341626523 -0.7873425472201041" fill="#ff6b09" stroke="none" /><path d="M 79.04373962182676 101.35467743843564 l -10.732572177046979 0.693786635700077 a31.754973055819292,31.754973055819292 0 0,0 -0.03056589918696279,-0.5457746629929183 l 10.742924427121473 -0.5089402563717212" fill="#ff7a0b" stroke="none" /><path d="M 79.0095281055655 100.63252640178507 l -3.134165417026982 0.09444486926265486 a24.135588093901678,24.135588093901678 0 0,0 -0.00893929005975465,-0.4153736828109799 l 3.135326769771744 -0.04048137066154608" fill="#ff0d01" stroke="none" /><line stroke="#e1ed5e" stroke-width="0.3" x1="15.007084014347285" x2="10.007500721073583" y1="101.09737516637583" y2="101.16192664675087" /><path d="M 14.007167355692545 101.11028546245083 a86.0,86.0 0 0,1 10.666146001902526,-42.60595125391555" fill="none" id="id34" stroke="none" /><text fill="#e1ed5e" style="font-size:6.75px; font-family:Arial;" text-anchor="middle"><textPath startOffset="22.20632615414155" xlink:href="#id34">October</textPath></text><path d="M 79.46518482838121 95.60439243477599 l -12.277673488540755 -2.6281139624849907 a33.55580540192564,33.55580540192564 0 0,0 0.1257633444666141,-0.563772413530132 l 12.230615757072103 2.8390645455650816" fill="#ff930d" stroke="none" /><path d="M 79.62865764111835 94.90015583598534 l -6.409689357686582 -1.6046275345077101 a27.607491746989997,27.607491746989997 0 0,0 0.11937435802318612,-0.45999809732866864 l 6.381118667793088 1.7147220573852424" fill="#ff4006" stroke="none" /><path d="M 80.02781315780177 93.51064311812611 l -5.968521104407116 -1.9392900642036495 a27.275674475852945,27.275674475852945 0 0,0 0.14892869760007105,-0.44527784982178487 l 5.934255113035273 2.0417410169477566" fill="#ff3b05" stroke="none" /><path d="M 80.14247586403 93.16781622104843 l -14.70801310015374 -5.060441968263984 a36.554218793255465,36.554218793255465 0 0,0 0.20983325994910038,-0.593226882326783 l 14.61872675939483 5.312866477017377" fill="#ffbb11" stroke="none" /><path d="M 81.10775173730289 90.83032412892265 l -6.813885069752032 -3.3072356790784294 a28.574089884650103,28.574089884650103 0 0,0 0.21857816328277196,-0.44064023935774843 l 6.755946893515847 3.4240355069351405" fill="#ff4e07" stroke="none" /><path d="M 81.6062741919709 89.86733742301443 l -1.9585121941003576 -1.0788974144144308 a23.23602094025748,23.23602094025748 0 0,0 0.19600397887313034,-0.34866920770360743 l 1.939650573934799 1.112450132052824" fill="#ff0000" stroke="none" /><line stroke="#e1ed5e" stroke-width="0.3" x1="26.266209847984243" x2="21.928928074336255" y1="57.71137044288968" y2="55.22380399835378" /><path d="M 25.398753493254645 57.2138571539825 a86.0,86.0 0 0,1 29.58750427330803,-30.4925239686951" fill="none" id="id35" stroke="none" /><text fill="#e1ed5e" style="font-size:6.75px; font-family:Arial;" text-anchor="middle"><textPath startOffset="21.46611528233685" xlink:href="#id35">November</textPath></text><path d="M 81.96595687620814 89.24020034530311 l -3.0900548498121574 -1.8436448708575819 a24.598258660058654,24.598258660058654 0 0,0 0.22007734247115576,-0.36174928558163233 l 3.0578617090547846 1.8965619296462886" fill="#ff1402" stroke="none" /><path d="M 82.54541684631803 88.32363383020207 l -52.36374946104589 -35.029098509393805 a84.0,84.0 0 0,0 0.8143021373250385,-1.1948879069183462 l 51.75302285805211 35.92526443958256" fill="#4dd2ff" stroke="none" /><path d="M 83.17141714833178 87.43820079747577 l -4.654504251102394 -3.474383333701071 a26.808248391127055,26.808248391127055 0 0,0 0.2792194725518006,-0.3674200961394925 l 4.594008838326484 3.5539882057215904" fill="#ff3405" stroke="none" /><path d="M 87.51073957382395 83.11751280151077 l -4.767900089217374 -6.4450583519887115 a29.016960048628064,29.016960048628064 0 0,0 0.4041021843522131,-0.2935974225917462 l 4.6562525885113795 6.526175009397125" fill="#ff5407" stroke="none" /><path d="M 88.39885842347998 82.49532879139004 l -1.5086332428651374 -2.2763388168783005 a23.730877637446373,23.730877637446373 0 0,0 0.3424399252964032,-0.22273245299900535 l 1.4692262917844447 2.3019701940368407" fill="#ff0701" stroke="none" /><line stroke="#e1ed5e" stroke-width="0.3" x1="56.76296977257108" x2="54.21961505331056" y1="26.818313649435495" y2="22.513508569990535" /><path d="M 56.25429882871898 25.957352633546506 a86.0,86.0 0 0,1 42.26535254187918,-11.944610805530505" fill="none" id="id36" stroke="none" /><text fill="#e1ed5e" style="font-size:6.75px; font-family:Arial;" text-anchor="middle"><textPath startOffset="22.20632615414155" xlink:href="#id36">December</textPath></text><path d="M 91.90106846888425 80.62456947434976 l -3.649920654277664 -8.731865899766424 a30.46400564634375,30.46400564634375 0 0,0 0.4855616231800909,-0.19807277782144206 l 3.4990751615091926 8.793399563771443" fill="#ff6809" stroke="none" /><path d="M 94.63758080256005 79.69619591428918 l -3.0162091169111194 -11.420315483827675 a32.81190599298402,32.81190599298402 0 0,0 0.547319953078364,-0.13952404262678073 l 2.819180275147754 11.470542522623319" fill="#ff890c" stroke="none" /><path d="M 96.40284397218896 79.31037775812273 l -0.9242356891903071 -5.315890421201677 a26.395637365445978,26.395637365445978 0 0,0 0.4483120444573195,-0.07397532862128163 l 0.8325944385941019 5.331012012762585" fill="#ff2e04" stroke="none" /><path d="M 96.75951476605007 79.25152402106235 l -1.814058321140666 -11.61521895123709 a32.75602479062021,32.75602479062021 0 0,0 0.5578366925225687,-0.08221062778217748 l 1.613852648189448 11.644724063180236" fill="#ff880c" stroke="none" /></svg>