<?xml version="1.0" encoding="utf-8" ?>
<svg baseProfile="full" height="200mm" version="1.1" viewBox="0,0,200,200" width="200mm" xmlns="http://www.w3.org/2000/svg" xmlns:ev="http://www.w3.org/2001/xml-events" xmlns:xlink="http://www.w3.org/1999/xlink"><defs /><rect fill="#1a1a1a" height="200" width="200" x="0" y="0" /><text alignment-baseline="middle" fill="#e1ed5e" style="dominant-baseline: central; font-size:9.0px; font-family:Arial;" text-anchor="middle" x="100.0" y="100.0">2020</text><line stroke="#e1ed5e" stroke-width="0.3" x1="100.0" x2="100.0" y1="15.0" y2="10.0" /><path d="M 100.0 14.0 a86.0,86.0 0 0,1 42.35913384403234,11.155469271406648" fill="none" id="id1" stroke="none" /><text fill="#e1ed5e" style="font-size:6.75px; font-family:Arial;" text-anchor="middle"><textPath startOffset="22.145653131862478" xlink:href="#id1">January</textPath></text><line stroke="#e1ed5e" stroke-width="0.3" x1="143.13028292997686" x2="145.6673583964461" y1="26.7553504044142" y2="22.446841604673864" /><path d="M 143.63769802327073 25.89364864446614 a86.0,86.0 0 0,1 29.32050498858742,28.57503671076993" fill="none" id="id2" stroke="none" /><text fill="#e1ed5e" style="font-size:6.75px; font-family:Arial;" text-anchor="middle"><textPath startOffset="20.669276256404974" xlink:href="#id2">February</textPath></text><line stroke="#e1ed5e" stroke-width="0.3" x1="172.87174338648825" x2="177.1583165268699" y1="56.24261187166439" y2="53.66864786411523" /><path d="M 173.72905801456457 55.72781907015455 a86.0,86.0 0 0,1 12.242430191666344,42.057860355516425" fill="none" id="id3" stroke="none" /><text fill="#e1ed5e" style="font-size:6.75px; font-family:Arial;" text-anchor="middle"><textPath startOffset="22.145653131862474" xlink:href="#id3">March</textPath></text><line stroke="#e1ed5e" stroke-width="0.3" x1="184.99686870605535" x2="189.99668451229388" y1="99.2704041080226" y2="99.22748670261217" /><path d="M 185.99683186730306 99.26182062694052 a86.0,86.0 0 0,1 -10.086455211305974,41.156179273409016" fill="none" id="id4" stroke="none" /><text fill="#e1ed5e" style="font-size:6.75px; font-family:Arial;" text-anchor="middle"><textPath startOffset="21.40746469413373" xlink:href="#id4">April</textPath></text><line stroke="#e1ed5e" stroke-width="0.3" x1="174.33088141563837" x2="178.70328620479359" y1="141.23008692659167" y2="143.65538615756765" /><path d="M 175.20536237346943 141.71514677278685 a86.0,86.0 0 0,1 -30.301960400862466,31.631185727798858" fill="none" id="id5" stroke="none" /><text fill="#e1ed5e" style="font-size:6.75px; font-family:Arial;" text-anchor="middle"><textPath startOffset="22.145653131862474" xlink:href="#id5">May</textPath></text><line stroke="#e1ed5e" stroke-width="0.3" x1="143.1302829299769" x2="145.66735839644613" y1="173.24464959558577" y2="177.55315839532614" /><path d="M 143.63769802327073 174.10635135553383 a86.0,86.0 0 0,1 -40.68552437913181,11.842963189579606" fill="none" id="id6" stroke="none" /><text fill="#e1ed5e" style="font-size:6.75px; font-family:Arial;" text-anchor="middle"><textPath startOffset="21.407464694133747" xlink:href="#id6">June</textPath></text><line stroke="#e1ed5e" stroke-width="0.3" x1="101.45913802915013" x2="101.54496967792366" y1="184.9874750549273" y2="189.98673829345242" /><path d="M 101.47630435890484 185.9873277026323 a86.0,86.0 0 0,1 -42.54439059252881,-10.42667462771756" fill="none" id="id7" stroke="none" /><text fill="#e1ed5e" style="font-size:6.75px; font-family:Arial;" text-anchor="middle"><textPath startOffset="22.145653131862474" xlink:href="#id7">July</textPath></text><line stroke="#e1ed5e" stroke-width="0.3" x1="58.13341422392154" x2="55.67067388415222" y1="173.97424548756322" y2="178.32567169271397" /><path d="M 57.64086615596768 174.84453072859336 a86.0,86.0 0 0,1 -31.369924170532247,-30.572349798747897" fill="none" id="id8" stroke="none" /><text fill="#e1ed5e" style="font-size:6.75px; font-family:Arial;" text-anchor="middle"><textPath startOffset="22.145653131862474" xlink:href="#id8">August</textPath></text><line stroke="#e1ed5e" stroke-width="0.3" x1="26.387840678322732" x2="22.057713659400548" y1="142.50000000000003" y2="145.00000000000006" /><path d="M 25.521815274538298 143.00000000000003 a86.0,86.0 0 0,1 -11.493303480769221,-40.785679425670985" fill="none" id="id9" stroke="none" /><text fill="#e1ed5e" style="font-size:6.75px; font-family:Arial;" text-anchor="middle"><textPath startOffset="21.40746469413373" xlink:href="#id9">September</textPath></text><line stroke="#e1ed5e" stroke-width="0.3" x1="15.003131293944662" x2="10.003315487706104" y1="100.72959589197737" y2="100.7725132973878" /><path d="M 14.003168132696942 100.73817937305945 a86.0,86.0 0 0,1 10.791469493833604,-42.45332614584628" fill="none" id="id10" stroke="none" /><text fill="#e1ed5e" style="font-size:6.75px; font-family:Arial;" text-anchor="middle"><textPath startOffset="22.145653131862435" xlink:href="#id10">October</textPath></text><line stroke="#e1ed5e" stroke-width="0.3" x1="26.387840678322718" x2="22.05771365940052" y1="57.49999999999999" y2="54.99999999999999" /><path d="M 25.521815274538284 56.99999999999999 a86.0,86.0 0 0,1 29.574782752854787,-30.34633250058573" fill="none" id="id11" stroke="none" /><text fill="#e1ed5e" style="font-size:6.75px; font-family:Arial;" text-anchor="middle"><textPath startOffset="21.40746469413373" xlink:href="#id11">November</textPath></text><line stroke="#e1ed5e" stroke-width="0.3" x1="56.869717070023135" x2="54.33264160355391" y1="26.7553504044142" y2="22.446841604673864" /><path d="M 56.362301976729285 25.89364864446614 a86.0,86.0 0 0,1 42.16139366436587,-11.88097634709845" fill="none" id="id12" stroke="none" /><text fill="#e1ed5e" style="font-size:6.75px; font-family:Arial;" text-anchor="middle"><textPath startOffset="22.145653131862474" xlink:href="#id12">December</textPath></text><path d="M 94.6519064749342 79.69241777938228 l -7.993216961847677 -30.35154675197281 a52.38642871746259,52.38642871746259 0 0,0 0.871597185747975,-0.22155659626285526 l 7.471014482874325 30.484288580070924" fill="#ff920d" stroke="none" /><path d="M 95.00130118170881 79.60360301121753 l -9.924264191895986 -40.494384566395276 a62.692759577193506,62.692759577193506 0 0,0 1.0474701680453224,-0.24720010754529692 l 9.227661870110758 40.6587808175868" fill="#a0ff22" stroke="none" /><path d="M 95.35216902796891 79.52079915486377 l -9.600732338130737 -42.30259813580382 a64.37838021950269,64.37838021950269 0 0,0 1.079832622404437,-0.23534449415069353 l 8.873137299107182 42.46117408808823" fill="#82ff25" stroke="none" /><path d="M 95.70440661134978 79.44403061299748 l -9.301586695247778 -44.51145954904831 a66.47295400824291,66.47295400824291 0 0,0 1.1189725170976959,-0.2238258420725908 l 8.536117692619104 44.66457478778377" fill="#5eff2a" stroke="none" /><path d="M 96.05791012581881 79.37332000966035 l -11.826269622543562 -61.88003997101895 a84.0,84.0 0 0,0 1.4186610657958458,-0.25852730427455484 l 10.762273823196677 62.07393544922487" fill="#4dd2ff" stroke="none" /><path d="M 96.41257539226777 79.30868818359171 l -10.616082372130792 -61.230742008343164 a83.1442271801987,83.1442271801987 0 0,0 1.408393909488707,-0.23175068184963055 l 9.563410959589012 61.40395868868846" fill="#4bdfff" stroke="none" /><path d="M 96.76829788921471 79.25015418208739 l -6.368035458588411 -40.887355764545156 a62.38028198331088,62.38028198331088 0 0,0 1.0594990708838212,-0.15570987756562255 l 5.665211282096905 40.99064671540966" fill="#a6ff21" stroke="none" /><path d="M 97.12497278360702 79.19773525538626 l -4.821445905734245 -34.88558077330155 a56.217184534151336,56.217184534151336 0 0,0 0.9570900124674739,-0.12391446372351063 l 4.221878071375977 34.96320683322545" fill="#ffe215" stroke="none" /><path d="M 97.84075906011542 79.11130261209362 l -2.6987717770449264 -26.10816881451279 a47.24728267748249,47.24728267748249 0 0,0 0.8074795419914312,-0.0764691521599035 l 2.2501926716684797 26.150649722177874" fill="#ff1e03" stroke="none" /><path d="M 98.1996594967304 79.07731436759882 l -3.4981789935802436 -40.65414250005848 a61.80436935778063,61.80436935778063 0 0,0 1.0578288859786122,-0.08188264595218758 l 2.799781112826414 40.70820291300572" fill="#b0ff20" stroke="none" /><path d="M 98.5590905019552 79.04949213459386 l -1.7134437420530406 -24.913095960241076 a45.97194905852086,45.97194905852086 0 0,0 0.7877745481993561,-0.047390560602899715 l 1.2855248417212006 24.93883849866867" fill="#ff0000" stroke="none" /></svg>