<?xml version="1.0" encoding="utf-8" ?>
<svg baseProfile="full" height="300mm" version="1.1" viewBox="0,0,200,300" width="200mm" xmlns="http://www.w3.org/2000/svg" xmlns:ev="http://www.w3.org/2001/xml-events" xmlns:xlink="http://www.w3.org/1999/xlink"><defs /><rect fill="#222222" height="300" width="200" x="0" y="0" /><text fill="#555555" style="font-size:6px; font-family:Arial;" x="11" y="19">Running for 4804 Days</text><text fill="#555555" style="font-size:6px; font-family:Arial;" x="11" y="39">Races</text><text fill="#555555" style="font-size:8px; font-family:Arial;" x="11" y="59">1</text><text fill="#FFFFFF" style="font-size:10px; font-family:Arial; font-weight:bold;" x="23" y="59">10K</text><text fill="#555555" style="font-size:6px; font-family:Arial;" x="49" y="59">21x</text><text fill="#555555" style="font-size:6px; font-family:Arial;" x="11" y="97">Stats</text><text fill="#555555" style="font-size:5px; font-family:Arial;" x="11" y="103">Distance</text><text fill="#FFFFFF" style="font-size:10px; font-family:Arial; font-weight:bold;" x="11" y="114">1280</text><text fill="#555555" style="font-size:6px; font-family:Arial;" x="35" y="114">km</text><text fill="#555555" style="font-size:5px; font-family:Arial;" x="53" y="103">Runs</text><text fill="#FFFFFF" style="font-size:10px; font-family:Arial; font-weight:bold;" x="53" y="114">354</text><text fill="#555555" style="font-size:5px; font-family:Arial;" x="11" y="131">Avg Pace</text><text fill="#FFFFFF" style="font-size:10px; font-family:Arial; font-weight:bold;" x="11" y="142">5'37"</text><text fill="#555555" style="font-size:5px; font-family:Arial;" x="53" y="131">Streak</text><text fill="#FFFFFF" style="font-size:10px; font-family:Arial; font-weight:bold;" x="53" y="142">123</text><text fill="#555555" style="font-size:6px; font-family:Arial;" x="71" y="142">d</text><text fill="#555555" style="font-size:5px; font-family:Arial;" x="11" y="159">Time</text><text fill="#FFFFFF" style="font-size:10px; font-family:Arial; font-weight:bold;" x="11" y="170">120</text><text fill="#555555" style="font-size:6px; font-family:Arial;" x="29" y="170">h</text><text fill="#555555" style="font-size:5px; font-family:Arial;" x="53" y="159">Longest</text><text fill="#FFFFFF" style="font-size:10px; font-family:Arial; font-weight:bold;" x="53" y="170">20.7</text><text fill="#555555" style="font-size:5px; font-family:Arial;" x="11" y="252.0645161290322">Runner</text><text fill="#FFFFFF" style="font-size:8px; font-family:Arial; font-weight:bold;" x="11" y="262.0645161290322">yihong0618</text><text fill="#555555" style="font-size:7px; font-family:Arial;" x="11" y="285.5806451612903">running_page/2020</text><circle cx="85.41666666666667" cy="17.419354838709676" fill="#FFFF00" r="3.3125"><title>2020-01-01: 10 km</title></circle><circle cx="85.41666666666667" cy="26.25806451612903" fill="#5094ab" r="3.3125"><title>2020-01-02: 5 km</title></circle><circle cx="85.41666666666667" cy="35.096774193548384" fill="#5093aa" r="3.3125"><title>2020-01-03: 5 km</title></circle><circle cx="85.41666666666667" cy="43.935483870967744" fill="#4dc9f3" r="3.3125"><title>2020-01-04: 9 km</title></circle><circle cx="85.41666666666667" cy="52.774193548387096" fill="#FFFF00" r="3.3125"><title>2020-01-05: 10 km</title></circle><circle cx="85.41666666666667" cy="61.61290322580645" fill="#518799" r="3.3125"><title>2020-01-06: 4 km</title></circle><circle cx="85.41666666666667" cy="70.45161290322581" fill="#555555" r="3.3125"><title>2020-01-07</title></circle><circle cx="85.41666666666667" cy="79.29032258064517" fill="#536e77" r="3.3125"><title>2020-01-08: 2 km</title></circle><circle cx="85.41666666666667" cy="88.12903225806451" fill="#555555" r="3.3125"><title>2020-01-09</title></circle><circle cx="85.41666666666667" cy="96.96774193548387" fill="#555555" r="3.3125"><title>2020-01-10</title></circle><circle cx="85.41666666666667" cy="105.80645161290322" fill="#546267" r="3.3125"><title>2020-01-11: 1 km</title></circle><circle cx="85.41666666666667" cy="114.64516129032258" fill="#5093aa" r="3.3125"><title>2020-01-12: 5 km</title></circle><circle cx="85.41666666666667" cy="123.48387096774194" fill="#536e77" r="3.3125"><title>2020-01-13: 2 km</title></circle><circle cx="85.41666666666667" cy="132.32258064516128" fill="#518799" r="3.3125"><title>2020-01-14: 4 km</title></circle><circle cx="85.41666666666667" cy="141.16129032258064" fill="#518799" r="3.3125"><title>2020-01-15: 4 km</title></circle><circle cx="85.41666666666667" cy="149.99999999999997" fill="#51889a" r="3.3125"><title>2020-01-16: 4 km</title></circle><circle cx="85.41666666666667" cy="158.83870967741933" fill="#5093aa" r="3.3125"><title>2020-01-17: 5 km</title></circle><circle cx="85.41666666666667" cy="167.6774193548387" fill="#527a88" r="3.3125"><title>2020-01-18: 3 km</title></circle><circle cx="85.41666666666667" cy="176.51612903225805" fill="#527b89" r="3.3125"><title>2020-01-19: 3 km</title></circle><circle cx="85.41666666666667" cy="185.35483870967738" fill="#518495" r="3.3125"><title>2020-01-20: 3 km</title></circle><circle cx="85.41666666666667" cy="194.19354838709674" fill="#555555" r="3.3125"><title>2020-01-21</title></circle><circle cx="85.41666666666667" cy="203.0322580645161" fill="#527a88" r="3.3125"><title>2020-01-22: 3 km</title></circle><circle cx="85.41666666666667" cy="211.87096774193546" fill="#53676d" r="3.3125"><title>2020-01-23: 1 km</title></circle><circle cx="85.41666666666667" cy="220.70967741935482" fill="#527a87" r="3.3125"><title>2020-01-24: 2 km</title></circle><circle cx="85.41666666666667" cy="229.54838709677418" fill="#536e77" r="3.3125"><title>2020-01-25: 2 km</title></circle><circle cx="85.41666666666667" cy="238.3870967741935" fill="#536e77" r="3.3125"><title>2020-01-26: 2 km</title></circle><circle cx="85.41666666666667" cy="247.22580645161287" fill="#527a88" r="3.3125"><title>2020-01-27: 3 km</title></circle><circle cx="85.41666666666667" cy="256.06451612903226" fill="#555555" r="3.3125"><title>2020-01-28</title></circle><circle cx="85.41666666666667" cy="264.90322580645164" fill="#555555" r="3.3125"><title>2020-01-29</title></circle><circle cx="85.41666666666667" cy="273.741935483871" fill="#555555" r="3.3125"><title>2020-01-30</title></circle><circle cx="85.41666666666667" cy="282.5806451612903" fill="#5093aa" r="3.3125"><title>2020-01-31: 5 km</title></circle><circle cx="94.25" cy="17.419354838709676" fill="#518799" r="3.3125"><title>2020-02-01: 4 km</title></circle><circle cx="94.25" cy="26.25806451612903" fill="#5093aa" r="3.3125"><title>2020-02-02: 5 km</title></circle><circle cx="94.25" cy="35.096774193548384" fill="#518799" r="3.3125"><title>2020-02-03: 4 km</title></circle><circle cx="94.25" cy="43.935483870967744" fill="#555555" r="3.3125"><title>2020-02-04</title></circle><circle cx="94.25" cy="52.774193548387096" fill="#527b88" r="3.3125"><title>2020-02-05: 3 km</title></circle><circle cx="94.25" cy="61.61290322580645" fill="#527a88" r="3.3125"><title>2020-02-06: 3 km</title></circle><circle cx="94.25" cy="70.45161290322581" fill="#518799" r="3.3125"><title>2020-02-07: 4 km</title></circle><circle cx="94.25" cy="79.29032258064517" fill="#528394" r="3.3125"><title>2020-02-08: 3 km</title></circle><circle cx="94.25" cy="88.12903225806451" fill="#555555" r="3.3125"><title>2020-02-09</title></circle><circle cx="94.25" cy="96.96774193548387" fill="#5093aa" r="3.3125"><title>2020-02-10: 5 km</title></circle><circle cx="94.25" cy="105.80645161290322" fill="#527b89" r="3.3125"><title>2020-02-11: 3 km</title></circle><circle cx="94.25" cy="114.64516129032258" fill="#51879a" r="3.3125"><title>2020-02-12: 4 km</title></circle><circle cx="94.25" cy="123.48387096774194" fill="#555555" r="3.3125"><title>2020-02-13</title></circle><circle cx="94.25" cy="132.32258064516128" fill="#555555" r="3.3125"><title>2020-02-14</title></circle><circle cx="94.25" cy="141.16129032258064" fill="#555555" r="3.3125"><title>2020-02-15</title></circle><circle cx="94.25" cy="149.99999999999997" fill="#555555" r="3.3125"><title>2020-02-16</title></circle><circle cx="94.25" cy="158.83870967741933" fill="#555555" r="3.3125"><title>2020-02-17</title></circle><circle cx="94.25" cy="167.6774193548387" fill="#555555" r="3.3125"><title>2020-02-18</title></circle><circle cx="94.25" cy="176.51612903225805" fill="#555555" r="3.3125"><title>2020-02-19</title></circle><circle cx="94.25" cy="185.35483870967738" fill="#546469" r="3.3125"><title>2020-02-20: 1 km</title></circle><circle cx="94.25" cy="194.19354838709674" fill="#527a88" r="3.3125"><title>2020-02-21: 3 km</title></circle><circle cx="94.25" cy="203.0322580645161" fill="#518a9e" r="3.3125"><title>2020-02-22: 4 km</title></circle><circle cx="94.25" cy="211.87096774193546" fill="#5093aa" r="3.3125"><title>2020-02-23: 5 km</title></circle><circle cx="94.25" cy="220.70967741935482" fill="#555555" r="3.3125"><title>2020-02-24</title></circle><circle cx="94.25" cy="229.54838709677418" fill="#546166" r="3.3125"><title>2020-02-25: 1 km</title></circle><circle cx="94.25" cy="238.3870967741935" fill="#555555" r="3.3125"><title>2020-02-26</title></circle><circle cx="94.25" cy="247.22580645161287" fill="#546266" r="3.3125"><title>2020-02-27: 1 km</title></circle><circle cx="94.25" cy="256.06451612903226" fill="#555555" r="3.3125"><title>2020-02-28</title></circle><circle cx="94.25" cy="264.90322580645164" fill="#536e77" r="3.3125"><title>2020-02-29: 2 km</title></circle><circle cx="103.08333333333334" cy="17.419354838709676" fill="#555555" r="3.3125"><title>2020-03-01</title></circle><circle cx="103.08333333333334" cy="26.25806451612903" fill="#546166" r="3.3125"><title>2020-03-02: 1 km</title></circle><circle cx="103.08333333333334" cy="35.096774193548384" fill="#555555" r="3.3125"><title>2020-03-03</title></circle><circle cx="103.08333333333334" cy="43.935483870967744" fill="#527a88" r="3.3125"><title>2020-03-04: 3 km</title></circle><circle cx="103.08333333333334" cy="52.774193548387096" fill="#555555" r="3.3125"><title>2020-03-05</title></circle><circle cx="103.08333333333334" cy="61.61290322580645" fill="#555555" r="3.3125"><title>2020-03-06</title></circle><circle cx="103.08333333333334" cy="70.45161290322581" fill="#555555" r="3.3125"><title>2020-03-07</title></circle><circle cx="103.08333333333334" cy="79.29032258064517" fill="#555555" r="3.3125"><title>2020-03-08</title></circle><circle cx="103.08333333333334" cy="88.12903225806451" fill="#555555" r="3.3125"><title>2020-03-09</title></circle><circle cx="103.08333333333334" cy="96.96774193548387" fill="#536e77" r="3.3125"><title>2020-03-10: 2 km</title></circle><circle cx="103.08333333333334" cy="105.80645161290322" fill="#555555" r="3.3125"><title>2020-03-11</title></circle><circle cx="103.08333333333334" cy="114.64516129032258" fill="#53666c" r="3.3125"><title>2020-03-12: 1 km</title></circle><circle cx="103.08333333333334" cy="123.48387096774194" fill="#555555" r="3.3125"><title>2020-03-13</title></circle><circle cx="103.08333333333334" cy="132.32258064516128" fill="#555555" r="3.3125"><title>2020-03-14</title></circle><circle cx="103.08333333333334" cy="141.16129032258064" fill="#555555" r="3.3125"><title>2020-03-15</title></circle><circle cx="103.08333333333334" cy="149.99999999999997" fill="#555555" r="3.3125"><title>2020-03-16</title></circle><circle cx="103.08333333333334" cy="158.83870967741933" fill="#54646a" r="3.3125"><title>2020-03-17: 1 km</title></circle><circle cx="103.08333333333334" cy="167.6774193548387" fill="#536e77" r="3.3125"><title>2020-03-18: 2 km</title></circle><circle cx="103.08333333333334" cy="176.51612903225805" fill="#555555" r="3.3125"><title>2020-03-19</title></circle><circle cx="103.08333333333334" cy="185.35483870967738" fill="#546368" r="3.3125"><title>2020-03-20: 1 km</title></circle><circle cx="103.08333333333334" cy="194.19354838709674" fill="#555555" r="3.3125"><title>2020-03-21</title></circle><circle cx="103.08333333333334" cy="203.0322580645161" fill="#555555" r="3.3125"><title>2020-03-22</title></circle><circle cx="103.08333333333334" cy="211.87096774193546" fill="#527a88" r="3.3125"><title>2020-03-23: 3 km</title></circle><circle cx="103.08333333333334" cy="220.70967741935482" fill="#555555" r="3.3125"><title>2020-03-24</title></circle><circle cx="103.08333333333334" cy="229.54838709677418" fill="#53717b" r="3.3125"><title>2020-03-25: 2 km</title></circle><circle cx="103.08333333333334" cy="238.3870967741935" fill="#555555" r="3.3125"><title>2020-03-26</title></circle><circle cx="103.08333333333334" cy="247.22580645161287" fill="#555555" r="3.3125"><title>2020-03-27</title></circle><circle cx="103.08333333333334" cy="256.06451612903226" fill="#555555" r="3.3125"><title>2020-03-28</title></circle><circle cx="103.08333333333334" cy="264.90322580645164" fill="#555555" r="3.3125"><title>2020-03-29</title></circle><circle cx="103.08333333333334" cy="273.741935483871" fill="#546166" r="3.3125"><title>2020-03-30: 1 km</title></circle><circle cx="103.08333333333334" cy="282.5806451612903" fill="#555555" r="3.3125"><title>2020-03-31</title></circle><circle cx="111.91666666666667" cy="17.419354838709676" fill="#53666d" r="3.3125"><title>2020-04-01: 1 km</title></circle><circle cx="111.91666666666667" cy="26.25806451612903" fill="#555555" r="3.3125"><title>2020-04-02</title></circle><circle cx="111.91666666666667" cy="35.096774193548384" fill="#555555" r="3.3125"><title>2020-04-03</title></circle><circle cx="111.91666666666667" cy="43.935483870967744" fill="#555555" r="3.3125"><title>2020-04-04</title></circle><circle cx="111.91666666666667" cy="52.774193548387096" fill="#555555" r="3.3125"><title>2020-04-05</title></circle><circle cx="111.91666666666667" cy="61.61290322580645" fill="#53666c" r="3.3125"><title>2020-04-06: 1 km</title></circle><circle cx="111.91666666666667" cy="70.45161290322581" fill="#536e77" r="3.3125"><title>2020-04-07: 2 km</title></circle><circle cx="111.91666666666667" cy="79.29032258064517" fill="#536e77" r="3.3125"><title>2020-04-08: 2 km</title></circle><circle cx="111.91666666666667" cy="88.12903225806451" fill="#53656b" r="3.3125"><title>2020-04-09: 1 km</title></circle><circle cx="111.91666666666667" cy="96.96774193548387" fill="#536e78" r="3.3125"><title>2020-04-10: 2 km</title></circle><circle cx="111.91666666666667" cy="105.80645161290322" fill="#555555" r="3.3125"><title>2020-04-11</title></circle><circle cx="111.91666666666667" cy="114.64516129032258" fill="#555555" r="3.3125"><title>2020-04-12</title></circle><circle cx="111.91666666666667" cy="123.48387096774194" fill="#536f79" r="3.3125"><title>2020-04-13: 2 km</title></circle><circle cx="111.91666666666667" cy="132.32258064516128" fill="#527a88" r="3.3125"><title>2020-04-14: 3 km</title></circle><circle cx="111.91666666666667" cy="141.16129032258064" fill="#536970" r="3.3125"><title>2020-04-15: 1 km</title></circle><circle cx="111.91666666666667" cy="149.99999999999997" fill="#555555" r="3.3125"><title>2020-04-16</title></circle><circle cx="111.91666666666667" cy="158.83870967741933" fill="#555555" r="3.3125"><title>2020-04-17</title></circle><circle cx="111.91666666666667" cy="167.6774193548387" fill="#536e77" r="3.3125"><title>2020-04-18: 2 km</title></circle><circle cx="111.91666666666667" cy="176.51612903225805" fill="#555555" r="3.3125"><title>2020-04-19</title></circle><circle cx="111.91666666666667" cy="185.35483870967738" fill="#555555" r="3.3125"><title>2020-04-20</title></circle><circle cx="111.91666666666667" cy="194.19354838709674" fill="#555555" r="3.3125"><title>2020-04-21</title></circle><circle cx="111.91666666666667" cy="203.0322580645161" fill="#555555" r="3.3125"><title>2020-04-22</title></circle><circle cx="111.91666666666667" cy="211.87096774193546" fill="#555555" r="3.3125"><title>2020-04-23</title></circle><circle cx="111.91666666666667" cy="220.70967741935482" fill="#555555" r="3.3125"><title>2020-04-24</title></circle><circle cx="111.91666666666667" cy="229.54838709677418" fill="#546166" r="3.3125"><title>2020-04-25: 1 km</title></circle><circle cx="111.91666666666667" cy="238.3870967741935" fill="#555555" r="3.3125"><title>2020-04-26</title></circle><circle cx="111.91666666666667" cy="247.22580645161287" fill="#546267" r="3.3125"><title>2020-04-27: 1 km</title></circle><circle cx="111.91666666666667" cy="256.06451612903226" fill="#536e77" r="3.3125"><title>2020-04-28: 2 km</title></circle><circle cx="111.91666666666667" cy="264.90322580645164" fill="#546166" r="3.3125"><title>2020-04-29: 1 km</title></circle><circle cx="111.91666666666667" cy="273.741935483871" fill="#555555" r="3.3125"><title>2020-04-30</title></circle><circle cx="120.75000000000001" cy="17.419354838709676" fill="#555555" r="3.3125"><title>2020-05-01</title></circle><circle cx="120.75000000000001" cy="26.25806451612903" fill="#555555" r="3.3125"><title>2020-05-02</title></circle><circle cx="120.75000000000001" cy="35.096774193548384" fill="#555555" r="3.3125"><title>2020-05-03</title></circle><circle cx="120.75000000000001" cy="43.935483870967744" fill="#555555" r="3.3125"><title>2020-05-04</title></circle><circle cx="120.75000000000001" cy="52.774193548387096" fill="#555555" r="3.3125"><title>2020-05-05</title></circle><circle cx="120.75000000000001" cy="61.61290322580645" fill="#546166" r="3.3125"><title>2020-05-06: 1 km</title></circle><circle cx="120.75000000000001" cy="70.45161290322581" fill="#555555" r="3.3125"><title>2020-05-07</title></circle><circle cx="120.75000000000001" cy="79.29032258064517" fill="#555555" r="3.3125"><title>2020-05-08</title></circle><circle cx="120.75000000000001" cy="88.12903225806451" fill="#527783" r="3.3125"><title>2020-05-09: 2 km</title></circle><circle cx="120.75000000000001" cy="96.96774193548387" fill="#555555" r="3.3125"><title>2020-05-10</title></circle><circle cx="120.75000000000001" cy="105.80645161290322" fill="#555555" r="3.3125"><title>2020-05-11</title></circle><circle cx="120.75000000000001" cy="114.64516129032258" fill="#53666c" r="3.3125"><title>2020-05-12: 1 km</title></circle><circle cx="120.75000000000001" cy="123.48387096774194" fill="#555555" r="3.3125"><title>2020-05-13</title></circle><circle cx="120.75000000000001" cy="132.32258064516128" fill="#555555" r="3.3125"><title>2020-05-14</title></circle><circle cx="120.75000000000001" cy="141.16129032258064" fill="#546166" r="3.3125"><title>2020-05-15: 1 km</title></circle><circle cx="120.75000000000001" cy="149.99999999999997" fill="#4fa6c3" r="3.3125"><title>2020-05-16: 6 km</title></circle><circle cx="120.75000000000001" cy="158.83870967741933" fill="#518a9d" r="3.3125"><title>2020-05-17: 4 km</title></circle><circle cx="120.75000000000001" cy="167.6774193548387" fill="#546369" r="3.3125"><title>2020-05-18: 1 km</title></circle><circle cx="120.75000000000001" cy="176.51612903225805" fill="#5093aa" r="3.3125"><title>2020-05-19: 5 km</title></circle><circle cx="120.75000000000001" cy="185.35483870967738" fill="#518799" r="3.3125"><title>2020-05-20: 4 km</title></circle><circle cx="120.75000000000001" cy="194.19354838709674" fill="#527d8c" r="3.3125"><title>2020-05-21: 3 km</title></circle><circle cx="120.75000000000001" cy="203.0322580645161" fill="#4eb2d4" r="3.3125"><title>2020-05-22: 7 km</title></circle><circle cx="120.75000000000001" cy="211.87096774193546" fill="#527b89" r="3.3125"><title>2020-05-23: 3 km</title></circle><circle cx="120.75000000000001" cy="220.70967741935482" fill="#4fadcd" r="3.3125"><title>2020-05-24: 7 km</title></circle><circle cx="120.75000000000001" cy="229.54838709677418" fill="#51899c" r="3.3125"><title>2020-05-25: 4 km</title></circle><circle cx="120.75000000000001" cy="238.3870967741935" fill="#51889b" r="3.3125"><title>2020-05-26: 4 km</title></circle><circle cx="120.75000000000001" cy="247.22580645161287" fill="#4fa6c3" r="3.3125"><title>2020-05-27: 6 km</title></circle><circle cx="120.75000000000001" cy="256.06451612903226" fill="#5094aa" r="3.3125"><title>2020-05-28: 5 km</title></circle><circle cx="120.75000000000001" cy="264.90322580645164" fill="#518799" r="3.3125"><title>2020-05-29: 4 km</title></circle><circle cx="120.75000000000001" cy="273.741935483871" fill="#4dc5ee" r="3.3125"><title>2020-05-30: 9 km</title></circle><circle cx="120.75000000000001" cy="282.5806451612903" fill="#52808f" r="3.3125"><title>2020-05-31: 3 km</title></circle><circle cx="129.58333333333334" cy="17.419354838709676" fill="#518799" r="3.3125"><title>2020-06-01: 4 km</title></circle><circle cx="129.58333333333334" cy="26.25806451612903" fill="#5099b2" r="3.3125"><title>2020-06-02: 5 km</title></circle><circle cx="129.58333333333334" cy="35.096774193548384" fill="#51879a" r="3.3125"><title>2020-06-03: 4 km</title></circle><circle cx="129.58333333333334" cy="43.935483870967744" fill="#4eb9dd" r="3.3125"><title>2020-06-04: 8 km</title></circle><circle cx="129.58333333333334" cy="52.774193548387096" fill="#527d8c" r="3.3125"><title>2020-06-05: 3 km</title></circle><circle cx="129.58333333333334" cy="61.61290322580645" fill="#FFFF00" r="3.3125"><title>2020-06-06: 11 km</title></circle><circle cx="129.58333333333334" cy="70.45161290322581" fill="#50a0bb" r="3.3125"><title>2020-06-07: 6 km</title></circle><circle cx="129.58333333333334" cy="79.29032258064517" fill="#518799" r="3.3125"><title>2020-06-08: 4 km</title></circle><circle cx="129.58333333333334" cy="88.12903225806451" fill="#5190a5" r="3.3125"><title>2020-06-09: 4 km</title></circle><circle cx="129.58333333333334" cy="96.96774193548387" fill="#4fa7c4" r="3.3125"><title>2020-06-10: 6 km</title></circle><circle cx="129.58333333333334" cy="105.80645161290322" fill="#509cb6" r="3.3125"><title>2020-06-11: 5 km</title></circle><circle cx="129.58333333333334" cy="114.64516129032258" fill="#FFFF00" r="3.3125"><title>2020-06-12: 13 km</title></circle><circle cx="129.58333333333334" cy="123.48387096774194" fill="#53676e" r="3.3125"><title>2020-06-13: 1 km</title></circle><circle cx="129.58333333333334" cy="132.32258064516128" fill="#FFFF00" r="3.3125"><title>2020-06-14: 10 km</title></circle><circle cx="129.58333333333334" cy="141.16129032258064" fill="#509ab3" r="3.3125"><title>2020-06-15: 5 km</title></circle><circle cx="129.58333333333334" cy="149.99999999999997" fill="#518799" r="3.3125"><title>2020-06-16: 4 km</title></circle><circle cx="129.58333333333334" cy="158.83870967741933" fill="#509ab2" r="3.3125"><title>2020-06-17: 5 km</title></circle><circle cx="129.58333333333334" cy="167.6774193548387" fill="#FFFF00" r="3.3125"><title>2020-06-18: 11 km</title></circle><circle cx="129.58333333333334" cy="176.51612903225805" fill="#50a0bb" r="3.3125"><title>2020-06-19: 6 km</title></circle><circle cx="129.58333333333334" cy="185.35483870967738" fill="#4ec2e9" r="3.3125"><title>2020-06-20: 8 km</title></circle><circle cx="129.58333333333334" cy="194.19354838709674" fill="#53737d" r="3.3125"><title>2020-06-21: 2 km</title></circle><circle cx="129.58333333333334" cy="203.0322580645161" fill="#FFFF00" r="3.3125"><title>2020-06-22: 12 km</title></circle><circle cx="129.58333333333334" cy="211.87096774193546" fill="#51899b" r="3.3125"><title>2020-06-23: 4 km</title></circle><circle cx="129.58333333333334" cy="220.70967741935482" fill="#4faccc" r="3.3125"><title>2020-06-24: 7 km</title></circle><circle cx="129.58333333333334" cy="229.54838709677418" fill="#4eb3d5" r="3.3125"><title>2020-06-25: 7 km</title></circle><circle cx="129.58333333333334" cy="238.3870967741935" fill="#5096ae" r="3.3125"><title>2020-06-26: 5 km</title></circle><circle cx="129.58333333333334" cy="247.22580645161287" fill="#FFFF00" r="3.3125"><title>2020-06-27: 13 km</title></circle><circle cx="129.58333333333334" cy="256.06451612903226" fill="#518ea3" r="3.3125"><title>2020-06-28: 4 km</title></circle><circle cx="129.58333333333334" cy="264.90322580645164" fill="#50a0bb" r="3.3125"><title>2020-06-29: 6 km</title></circle><circle cx="129.58333333333334" cy="273.741935483871" fill="#4ebbdf" r="3.3125"><title>2020-06-30: 8 km</title></circle><circle cx="138.41666666666666" cy="17.419354838709676" fill="#527a88" r="3.3125"><title>2020-07-01: 3 km</title></circle><circle cx="138.41666666666666" cy="26.25806451612903" fill="#50a0bc" r="3.3125"><title>2020-07-02: 6 km</title></circle><circle cx="138.41666666666666" cy="35.096774193548384" fill="#4fa8c6" r="3.3125"><title>2020-07-03: 6 km</title></circle><circle cx="138.41666666666666" cy="43.935483870967744" fill="#FFFF00" r="3.3125"><title>2020-07-04: 15 km</title></circle><circle cx="138.41666666666666" cy="52.774193548387096" fill="#51889b" r="3.3125"><title>2020-07-05: 4 km</title></circle><circle cx="138.41666666666666" cy="61.61290322580645" fill="#4faac9" r="3.3125"><title>2020-07-06: 6 km</title></circle><circle cx="138.41666666666666" cy="70.45161290322581" fill="#509db7" r="3.3125"><title>2020-07-07: 5 km</title></circle><circle cx="138.41666666666666" cy="79.29032258064517" fill="#518597" r="3.3125"><title>2020-07-08: 3 km</title></circle><circle cx="138.41666666666666" cy="88.12903225806451" fill="#4fa4c0" r="3.3125"><title>2020-07-09: 6 km</title></circle><circle cx="138.41666666666666" cy="96.96774193548387" fill="#4ebbe0" r="3.3125"><title>2020-07-10: 8 km</title></circle><circle cx="138.41666666666666" cy="105.80645161290322" fill="#4dccf6" r="3.3125"><title>2020-07-11: 9 km</title></circle><circle cx="138.41666666666666" cy="114.64516129032258" fill="#5095ad" r="3.3125"><title>2020-07-12: 5 km</title></circle><circle cx="138.41666666666666" cy="123.48387096774194" fill="#FFFF00" r="3.3125"><title>2020-07-13: 10 km</title></circle><circle cx="138.41666666666666" cy="132.32258064516128" fill="#4ec0e7" r="3.3125"><title>2020-07-14: 8 km</title></circle><circle cx="138.41666666666666" cy="141.16129032258064" fill="#4fa4c0" r="3.3125"><title>2020-07-15: 6 km</title></circle><circle cx="138.41666666666666" cy="149.99999999999997" fill="#509cb5" r="3.3125"><title>2020-07-16: 5 km</title></circle><circle cx="138.41666666666666" cy="158.83870967741933" fill="#FFFF00" r="3.3125"><title>2020-07-17: 11 km</title></circle><circle cx="138.41666666666666" cy="167.6774193548387" fill="#4fb0d1" r="3.3125"><title>2020-07-18: 7 km</title></circle><circle cx="138.41666666666666" cy="176.51612903225805" fill="#FFFF00" r="3.3125"><title>2020-07-19: 14 km</title></circle><circle cx="138.41666666666666" cy="185.35483870967738" fill="#5093aa" r="3.3125"><title>2020-07-20: 5 km</title></circle><circle cx="138.41666666666666" cy="194.19354838709674" fill="#50a2be" r="3.3125"><title>2020-07-21: 6 km</title></circle><circle cx="138.41666666666666" cy="203.0322580645161" fill="#50a1bd" r="3.3125"><title>2020-07-22: 6 km</title></circle><circle cx="138.41666666666666" cy="211.87096774193546" fill="#5191a6" r="3.3125"><title>2020-07-23: 4 km</title></circle><circle cx="138.41666666666666" cy="220.70967741935482" fill="#537079" r="3.3125"><title>2020-07-24: 2 km</title></circle><circle cx="138.41666666666666" cy="229.54838709677418" fill="#FFFF00" r="3.3125"><title>2020-07-25: 10 km</title></circle><circle cx="138.41666666666666" cy="238.3870967741935" fill="#51889b" r="3.3125"><title>2020-07-26: 4 km</title></circle><circle cx="138.41666666666666" cy="247.22580645161287" fill="#FFFF00" r="3.3125"><title>2020-07-27: 10 km</title></circle><circle cx="138.41666666666666" cy="256.06451612903226" fill="#51889a" r="3.3125"><title>2020-07-28: 4 km</title></circle><circle cx="138.41666666666666" cy="264.90322580645164" fill="#527480" r="3.3125"><title>2020-07-29: 2 km</title></circle><circle cx="138.41666666666666" cy="273.741935483871" fill="#5095ad" r="3.3125"><title>2020-07-30: 5 km</title></circle><circle cx="138.41666666666666" cy="282.5806451612903" fill="#4fadcc" r="3.3125"><title>2020-07-31: 7 km</title></circle><circle cx="147.25" cy="17.419354838709676" fill="#FFFF00" r="3.3125"><title>2020-08-01: 10 km</title></circle><circle cx="147.25" cy="26.25806451612903" fill="#5098b0" r="3.3125"><title>2020-08-02: 5 km</title></circle><circle cx="147.25" cy="35.096774193548384" fill="#546267" r="3.3125"><title>2020-08-03: 1 km</title></circle><circle cx="147.25" cy="43.935483870967744" fill="#5098b0" r="3.3125"><title>2020-08-04: 5 km</title></circle><circle cx="147.25" cy="52.774193548387096" fill="#509db6" r="3.3125"><title>2020-08-05: 5 km</title></circle><circle cx="147.25" cy="61.61290322580645" fill="#53717b" r="3.3125"><title>2020-08-06: 2 km</title></circle><circle cx="147.25" cy="70.45161290322581" fill="#5094ab" r="3.3125"><title>2020-08-07: 5 km</title></circle><circle cx="147.25" cy="79.29032258064517" fill="#4dc9f3" r="3.3125"><title>2020-08-08: 9 km</title></circle><circle cx="147.25" cy="88.12903225806451" fill="#5095ac" r="3.3125"><title>2020-08-09: 5 km</title></circle><circle cx="147.25" cy="96.96774193548387" fill="#4ebde2" r="3.3125"><title>2020-08-10: 8 km</title></circle><circle cx="147.25" cy="105.80645161290322" fill="#5094ab" r="3.3125"><title>2020-08-11: 5 km</title></circle><circle cx="147.25" cy="114.64516129032258" fill="#546166" r="3.3125"><title>2020-08-12: 1 km</title></circle><circle cx="147.25" cy="123.48387096774194" fill="#50a2be" r="3.3125"><title>2020-08-13: 6 km</title></circle><circle cx="147.25" cy="132.32258064516128" fill="#536e78" r="3.3125"><title>2020-08-14: 2 km</title></circle><circle cx="147.25" cy="141.16129032258064" fill="#5094aa" r="3.3125"><title>2020-08-15: 5 km</title></circle><circle cx="147.25" cy="149.99999999999997" fill="#FFFF00" r="3.3125"><title>2020-08-16: 20 km</title></circle><circle cx="147.25" cy="158.83870967741933" fill="#527b89" r="3.3125"><title>2020-08-17: 3 km</title></circle><circle cx="147.25" cy="167.6774193548387" fill="#536f78" r="3.3125"><title>2020-08-18: 2 km</title></circle><circle cx="147.25" cy="176.51612903225805" fill="#527b88" r="3.3125"><title>2020-08-19: 3 km</title></circle><circle cx="147.25" cy="185.35483870967738" fill="#536e77" r="3.3125"><title>2020-08-20: 2 km</title></circle><circle cx="147.25" cy="194.19354838709674" fill="#51889a" r="3.3125"><title>2020-08-21: 4 km</title></circle><circle cx="147.25" cy="203.0322580645161" fill="#536e77" r="3.3125"><title>2020-08-22: 2 km</title></circle><circle cx="147.25" cy="211.87096774193546" fill="#5094ab" r="3.3125"><title>2020-08-23: 5 km</title></circle><circle cx="147.25" cy="220.70967741935482" fill="#527783" r="3.3125"><title>2020-08-24: 2 km</title></circle><circle cx="147.25" cy="229.54838709677418" fill="#53707a" r="3.3125"><title>2020-08-25: 2 km</title></circle><circle cx="147.25" cy="238.3870967741935" fill="#518a9e" r="3.3125"><title>2020-08-26: 4 km</title></circle><circle cx="147.25" cy="247.22580645161287" fill="#5096ad" r="3.3125"><title>2020-08-27: 5 km</title></circle><circle cx="147.25" cy="256.06451612903226" fill="#5094ab" r="3.3125"><title>2020-08-28: 5 km</title></circle><circle cx="147.25" cy="264.90322580645164" fill="#4fa8c6" r="3.3125"><title>2020-08-29: 6 km</title></circle><circle cx="147.25" cy="273.741935483871" fill="#527b89" r="3.3125"><title>2020-08-30: 3 km</title></circle><circle cx="147.25" cy="282.5806451612903" fill="#509bb5" r="3.3125"><title>2020-08-31: 5 km</title></circle><circle cx="156.08333333333334" cy="17.419354838709676" fill="#FFFF00" r="3.3125"><title>2020-09-01: 10 km</title></circle><circle cx="156.08333333333334" cy="26.25806451612903" fill="#4fa8c6" r="3.3125"><title>2020-09-02: 6 km</title></circle><circle cx="156.08333333333334" cy="35.096774193548384" fill="#5095ac" r="3.3125"><title>2020-09-03: 5 km</title></circle><circle cx="156.08333333333334" cy="43.935483870967744" fill="#509bb4" r="3.3125"><title>2020-09-04: 5 km</title></circle><circle cx="156.08333333333334" cy="52.774193548387096" fill="#5093aa" r="3.3125"><title>2020-09-05: 5 km</title></circle><circle cx="156.08333333333334" cy="61.61290322580645" fill="#518b9f" r="3.3125"><title>2020-09-06: 4 km</title></circle><circle cx="156.08333333333334" cy="70.45161290322581" fill="#4fa3bf" r="3.3125"><title>2020-09-07: 6 km</title></circle><circle cx="156.08333333333334" cy="79.29032258064517" fill="#FFFF00" r="3.3125"><title>2020-09-08: 10 km</title></circle><circle cx="156.08333333333334" cy="88.12903225806451" fill="#518a9d" r="3.3125"><title>2020-09-09: 4 km</title></circle><circle cx="156.08333333333334" cy="96.96774193548387" fill="#5191a6" r="3.3125"><title>2020-09-10: 4 km</title></circle><circle cx="156.08333333333334" cy="105.80645161290322" fill="#536e77" r="3.3125"><title>2020-09-11: 2 km</title></circle><circle cx="156.08333333333334" cy="114.64516129032258" fill="#53676e" r="3.3125"><title>2020-09-12: 1 km</title></circle><circle cx="156.08333333333334" cy="123.48387096774194" fill="#FFFF00" r="3.3125"><title>2020-09-13: 10 km</title></circle><circle cx="156.08333333333334" cy="132.32258064516128" fill="#5094ab" r="3.3125"><title>2020-09-14: 5 km</title></circle><circle cx="156.08333333333334" cy="141.16129032258064" fill="#555555" r="3.3125"><title>2020-09-15</title></circle><circle cx="156.08333333333334" cy="149.99999999999997" fill="#FFFF00" r="3.3125"><title>2020-09-16: 10 km</title></circle><circle cx="156.08333333333334" cy="158.83870967741933" fill="#FFFF00" r="3.3125"><title>2020-09-17: 10 km</title></circle><circle cx="156.08333333333334" cy="167.6774193548387" fill="#4fa6c3" r="3.3125"><title>2020-09-18: 6 km</title></circle><circle cx="156.08333333333334" cy="176.51612903225805" fill="#4fb0d1" r="3.3125"><title>2020-09-19: 7 km</title></circle><circle cx="156.08333333333334" cy="185.35483870967738" fill="#FFFF00" r="3.3125"><title>2020-09-20: 20 km</title></circle><circle cx="156.08333333333334" cy="194.19354838709674" fill="#53666d" r="3.3125"><title>2020-09-21: 1 km</title></circle><circle cx="156.08333333333334" cy="203.0322580645161" fill="#527682" r="3.3125"><title>2020-09-22: 2 km</title></circle><circle cx="156.08333333333334" cy="211.87096774193546" fill="#527b89" r="3.3125"><title>2020-09-23: 3 km</title></circle><circle cx="156.08333333333334" cy="220.70967741935482" fill="#527480" r="3.3125"><title>2020-09-24: 2 km</title></circle><circle cx="156.08333333333334" cy="229.54838709677418" fill="#527784" r="3.3125"><title>2020-09-25: 2 km</title></circle><circle cx="156.08333333333334" cy="238.3870967741935" fill="#509ab4" r="3.3125"><title>2020-09-26: 5 km</title></circle><circle cx="156.08333333333334" cy="247.22580645161287" fill="#546267" r="3.3125"><title>2020-09-27: 1 km</title></circle><circle cx="156.08333333333334" cy="256.06451612903226" fill="#53686f" r="3.3125"><title>2020-09-28: 1 km</title></circle><circle cx="156.08333333333334" cy="264.90322580645164" fill="#51889b" r="3.3125"><title>2020-09-29: 4 km</title></circle><circle cx="156.08333333333334" cy="273.741935483871" fill="#555555" r="3.3125"><title>2020-09-30</title></circle><circle cx="164.91666666666666" cy="17.419354838709676" fill="#518b9e" r="3.3125"><title>2020-10-01: 4 km</title></circle><circle cx="164.91666666666666" cy="26.25806451612903" fill="#527d8b" r="3.3125"><title>2020-10-02: 3 km</title></circle><circle cx="164.91666666666666" cy="35.096774193548384" fill="#53666c" r="3.3125"><title>2020-10-03: 1 km</title></circle><circle cx="164.91666666666666" cy="43.935483870967744" fill="#546166" r="3.3125"><title>2020-10-04: 1 km</title></circle><circle cx="164.91666666666666" cy="52.774193548387096" fill="#527b89" r="3.3125"><title>2020-10-05: 3 km</title></circle><circle cx="164.91666666666666" cy="61.61290322580645" fill="#5096ad" r="3.3125"><title>2020-10-06: 5 km</title></circle><circle cx="164.91666666666666" cy="70.45161290322581" fill="#5094ab" r="3.3125"><title>2020-10-07: 5 km</title></circle><circle cx="164.91666666666666" cy="79.29032258064517" fill="#5095ad" r="3.3125"><title>2020-10-08: 5 km</title></circle><circle cx="164.91666666666666" cy="88.12903225806451" fill="#527b89" r="3.3125"><title>2020-10-09: 3 km</title></circle><circle cx="164.91666666666666" cy="96.96774193548387" fill="#527783" r="3.3125"><title>2020-10-10: 2 km</title></circle><circle cx="164.91666666666666" cy="105.80645161290322" fill="#527d8b" r="3.3125"><title>2020-10-11: 3 km</title></circle><circle cx="164.91666666666666" cy="114.64516129032258" fill="#518b9e" r="3.3125"><title>2020-10-12: 4 km</title></circle><circle cx="164.91666666666666" cy="123.48387096774194" fill="#546166" r="3.3125"><title>2020-10-13: 1 km</title></circle><circle cx="164.91666666666666" cy="132.32258064516128" fill="#518c9f" r="3.3125"><title>2020-10-14: 4 km</title></circle><circle cx="164.91666666666666" cy="141.16129032258064" fill="#53686f" r="3.3125"><title>2020-10-15: 1 km</title></circle><circle cx="164.91666666666666" cy="149.99999999999997" fill="#555555" r="3.3125"><title>2020-10-16</title></circle><circle cx="164.91666666666666" cy="158.83870967741933" fill="#53666c" r="3.3125"><title>2020-10-17: 1 km</title></circle><circle cx="164.91666666666666" cy="167.6774193548387" fill="#555555" r="3.3125"><title>2020-10-18</title></circle><circle cx="164.91666666666666" cy="176.51612903225805" fill="#53717b" r="3.3125"><title>2020-10-19: 2 km</title></circle><circle cx="164.91666666666666" cy="185.35483870967738" fill="#527a88" r="3.3125"><title>2020-10-20: 3 km</title></circle><circle cx="164.91666666666666" cy="194.19354838709674" fill="#509ab4" r="3.3125"><title>2020-10-21: 5 km</title></circle><circle cx="164.91666666666666" cy="203.0322580645161" fill="#527a88" r="3.3125"><title>2020-10-22: 3 km</title></circle><circle cx="164.91666666666666" cy="211.87096774193546" fill="#527e8c" r="3.3125"><title>2020-10-23: 3 km</title></circle><circle cx="164.91666666666666" cy="220.70967741935482" fill="#5093aa" r="3.3125"><title>2020-10-24: 5 km</title></circle><circle cx="164.91666666666666" cy="229.54838709677418" fill="#527a87" r="3.3125"><title>2020-10-25: 2 km</title></circle><circle cx="164.91666666666666" cy="238.3870967741935" fill="#527d8b" r="3.3125"><title>2020-10-26: 3 km</title></circle><circle cx="164.91666666666666" cy="247.22580645161287" fill="#518799" r="3.3125"><title>2020-10-27: 4 km</title></circle><circle cx="164.91666666666666" cy="256.06451612903226" fill="#527783" r="3.3125"><title>2020-10-28: 2 km</title></circle><circle cx="164.91666666666666" cy="264.90322580645164" fill="#536a71" r="3.3125"><title>2020-10-29: 1 km</title></circle><circle cx="164.91666666666666" cy="273.741935483871" fill="#5097af" r="3.3125"><title>2020-10-30: 5 km</title></circle><circle cx="164.91666666666666" cy="282.5806451612903" fill="#FFFF00" r="3.3125"><title>2020-10-31: 11 km</title></circle><circle cx="173.75" cy="17.419354838709676" fill="#546368" r="3.3125"><title>2020-11-01: 1 km</title></circle><circle cx="173.75" cy="26.25806451612903" fill="#527c8a" r="3.3125"><title>2020-11-02: 3 km</title></circle><circle cx="173.75" cy="35.096774193548384" fill="#555555" r="3.3125"><title>2020-11-03</title></circle><circle cx="173.75" cy="43.935483870967744" fill="#536d76" r="3.3125"><title>2020-11-04: 1 km</title></circle><circle cx="173.75" cy="52.774193548387096" fill="#5094ab" r="3.3125"><title>2020-11-05: 5 km</title></circle><circle cx="173.75" cy="61.61290322580645" fill="#536e78" r="3.3125"><title>2020-11-06: 2 km</title></circle><circle cx="173.75" cy="70.45161290322581" fill="#527a87" r="3.3125"><title>2020-11-07: 2 km</title></circle><circle cx="173.75" cy="79.29032258064517" fill="#536970" r="3.3125"><title>2020-11-08: 1 km</title></circle><circle cx="173.75" cy="88.12903225806451" fill="#5095ac" r="3.3125"><title>2020-11-09: 5 km</title></circle><circle cx="173.75" cy="96.96774193548387" fill="#4fa5c2" r="3.3125"><title>2020-11-10: 6 km</title></circle><circle cx="173.75" cy="105.80645161290322" fill="#527f8e" r="3.3125"><title>2020-11-11: 3 km</title></circle><circle cx="173.75" cy="114.64516129032258" fill="#518a9d" r="3.3125"><title>2020-11-12: 4 km</title></circle><circle cx="173.75" cy="123.48387096774194" fill="#555555" r="3.3125"><title>2020-11-13</title></circle><circle cx="173.75" cy="132.32258064516128" fill="#4faccb" r="3.3125"><title>2020-11-14: 6 km</title></circle><circle cx="173.75" cy="141.16129032258064" fill="#50a2be" r="3.3125"><title>2020-11-15: 6 km</title></circle><circle cx="173.75" cy="149.99999999999997" fill="#53686f" r="3.3125"><title>2020-11-16: 1 km</title></circle><circle cx="173.75" cy="158.83870967741933" fill="#555555" r="3.3125"><title>2020-11-17</title></circle><circle cx="173.75" cy="167.6774193548387" fill="#546266" r="3.3125"><title>2020-11-18: 1 km</title></circle><circle cx="173.75" cy="176.51612903225805" fill="#53717b" r="3.3125"><title>2020-11-19: 2 km</title></circle><circle cx="173.75" cy="185.35483870967738" fill="#555555" r="3.3125"><title>2020-11-20</title></circle><circle cx="173.75" cy="194.19354838709674" fill="#518da2" r="3.3125"><title>2020-11-21: 4 km</title></circle><circle cx="173.75" cy="203.0322580645161" fill="#509ab4" r="3.3125"><title>2020-11-22: 5 km</title></circle><circle cx="173.75" cy="211.87096774193546" fill="#51899b" r="3.3125"><title>2020-11-23: 4 km</title></circle><circle cx="173.75" cy="220.70967741935482" fill="#546369" r="3.3125"><title>2020-11-24: 1 km</title></circle><circle cx="173.75" cy="229.54838709677418" fill="#536f78" r="3.3125"><title>2020-11-25: 2 km</title></circle><circle cx="173.75" cy="238.3870967741935" fill="#546267" r="3.3125"><title>2020-11-26: 1 km</title></circle><circle cx="173.75" cy="247.22580645161287" fill="#527d8c" r="3.3125"><title>2020-11-27: 3 km</title></circle><circle cx="173.75" cy="256.06451612903226" fill="#4fabcb" r="3.3125"><title>2020-11-28: 6 km</title></circle><circle cx="173.75" cy="264.90322580645164" fill="#555555" r="3.3125"><title>2020-11-29</title></circle><circle cx="173.75" cy="273.741935483871" fill="#555555" r="3.3125"><title>2020-11-30</title></circle><circle cx="182.58333333333334" cy="17.419354838709676" fill="#555555" r="3.3125"><title>2020-12-01</title></circle><circle cx="182.58333333333334" cy="26.25806451612903" fill="#53737e" r="3.3125"><title>2020-12-02: 2 km</title></circle><circle cx="182.58333333333334" cy="35.096774193548384" fill="#546368" r="3.3125"><title>2020-12-03: 1 km</title></circle><circle cx="182.58333333333334" cy="43.935483870967744" fill="#51889a" r="3.3125"><title>2020-12-04: 4 km</title></circle><circle cx="182.58333333333334" cy="52.774193548387096" fill="#FFFF00" r="3.3125"><title>2020-12-05: 10 km</title></circle><circle cx="182.58333333333334" cy="61.61290322580645" fill="#5094ab" r="3.3125"><title>2020-12-06: 5 km</title></circle><circle cx="182.58333333333334" cy="70.45161290322581" fill="#53717b" r="3.3125"><title>2020-12-07: 2 km</title></circle><circle cx="182.58333333333334" cy="79.29032258064517" fill="#546368" r="3.3125"><title>2020-12-08: 1 km</title></circle><circle cx="182.58333333333334" cy="88.12903225806451" fill="#527581" r="3.3125"><title>2020-12-09: 2 km</title></circle><circle cx="182.58333333333334" cy="96.96774193548387" fill="#54646a" r="3.3125"><title>2020-12-10: 1 km</title></circle><circle cx="182.58333333333334" cy="105.80645161290322" fill="#555555" r="3.3125"><title>2020-12-11</title></circle><circle cx="182.58333333333334" cy="114.64516129032258" fill="#527580" r="3.3125"><title>2020-12-12: 2 km</title></circle><circle cx="182.58333333333334" cy="123.48387096774194" fill="#5094ab" r="3.3125"><title>2020-12-13: 5 km</title></circle><circle cx="182.58333333333334" cy="132.32258064516128" fill="#546166" r="3.3125"><title>2020-12-14: 1 km</title></circle><circle cx="182.58333333333334" cy="141.16129032258064" fill="#53707a" r="3.3125"><title>2020-12-15: 2 km</title></circle><circle cx="182.58333333333334" cy="149.99999999999997" fill="#527b89" r="3.3125"><title>2020-12-16: 3 km</title></circle><circle cx="182.58333333333334" cy="158.83870967741933" fill="#53747f" r="3.3125"><title>2020-12-17: 2 km</title></circle><circle cx="182.58333333333334" cy="167.6774193548387" fill="#555555" r="3.3125"><title>2020-12-18</title></circle><circle cx="182.58333333333334" cy="176.51612903225805" fill="#527c8b" r="3.3125"><title>2020-12-19: 3 km</title></circle><circle cx="182.58333333333334" cy="185.35483870967738" fill="#FFFF00" r="3.3125"><title>2020-12-20: 10 km</title></circle><circle cx="182.58333333333334" cy="194.19354838709674" fill="#527580" r="3.3125"><title>2020-12-21: 2 km</title></circle><circle cx="182.58333333333334" cy="203.0322580645161" fill="#555555" r="3.3125"><title>2020-12-22</title></circle><circle cx="182.58333333333334" cy="211.87096774193546" fill="#53737e" r="3.3125"><title>2020-12-23: 2 km</title></circle><circle cx="182.58333333333334" cy="220.70967741935482" fill="#51879a" r="3.3125"><title>2020-12-24: 4 km</title></circle><circle cx="182.58333333333334" cy="229.54838709677418" fill="#555555" r="3.3125"><title>2020-12-25</title></circle><circle cx="182.58333333333334" cy="238.3870967741935" fill="#518ea3" r="3.3125"><title>2020-12-26: 4 km</title></circle><circle cx="182.58333333333334" cy="247.22580645161287" fill="#536970" r="3.3125"><title>2020-12-27: 1 km</title></circle><circle cx="182.58333333333334" cy="256.06451612903226" fill="#555555" r="3.3125"><title>2020-12-28</title></circle><circle cx="182.58333333333334" cy="264.90322580645164" fill="#555555" r="3.3125"><title>2020-12-29</title></circle><circle cx="182.58333333333334" cy="273.741935483871" fill="#555555" r="3.3125"><title>2020-12-30</title></circle><circle cx="182.58333333333334" cy="282.5806451612903" fill="#527a88" r="3.3125"><title>2020-12-31: 3 km</title></circle></svg>