<?xml version="1.0" encoding="utf-8" ?>
<svg baseProfile="full" height="200mm" version="1.1" viewBox="0,0,200,200" width="200mm" xmlns="http://www.w3.org/2000/svg" xmlns:ev="http://www.w3.org/2001/xml-events" xmlns:xlink="http://www.w3.org/1999/xlink"><defs /><rect fill="#1a1a1a" height="200" width="200" x="0" y="0" /><text alignment-baseline="middle" fill="#e1ed5e" style="dominant-baseline: central; font-size:9.0px; font-family:Arial;" text-anchor="middle" x="100.0" y="100.0">2023</text><line stroke="#e1ed5e" stroke-width="0.3" x1="100.0" x2="100.0" y1="15.0" y2="10.0" /><path d="M 100.0 14.0 a86.0,86.0 0 0,1 42.46469731375804,11.215312516191453" fill="none" id="id49" stroke="none" /><text fill="#e1ed5e" style="font-size:6.75px; font-family:Arial;" text-anchor="middle"><textPath startOffset="22.20632615414155" xlink:href="#id49">January</textPath></text><path d="M 106.0581310904928 79.89281104454417 l 7.296811644660848 -24.218421212742605 a46.29378157206785,46.29378157206785 0 0,0 0.7610138357720392,0.23645070319990724 l -7.712610853143605 24.08923037466018" fill="#fffe18" stroke="none" /><path d="M 109.41281617654863 81.2277094730956 l 15.133944929979448 -30.182126763673388 a54.76384257044953,54.76384257044953 0 0,0 0.839032952684885,0.4297852665818841 l -15.651238370253088 29.917148971779003" fill="#91ff24" stroke="none" /><path d="M 109.73455568895987 81.39251694778311 l 9.683914339676754 -18.510682738095152 a41.89075327432237,41.89075327432237 0 0,0 0.6360511517227646,0.3397564974039714 l -10.00111053792783 18.341247514189426" fill="#ffbf11" stroke="none" /><path d="M 110.05341064243156 81.56283822128135 l 11.605683013634176 -21.28390681385191 a45.2424538253389,45.2424538253389 0 0,0 0.6805238721283483,0.37871079805186264 l -11.970330974834559 21.080980618239867" fill="#ffef16" stroke="none" /><path d="M 110.36928655335952 81.73862282372117 l 12.485986035472578 -21.98910206967347 a46.28676446500292,46.28676446500292 0 0,0 0.689459579440983,0.3993794899487865 l -12.86264234737889 21.770918422334635" fill="#fffe18" stroke="none" /><line stroke="#e1ed5e" stroke-width="0.3" x1="143.23703022742887" x2="145.7803849466894" y1="26.81831364943548" y2="22.513508569990506" /><path d="M 143.74570117128098 25.957352633546492 a86.0,86.0 0 0,1 28.547481713284135,27.462654790039103" fill="none" id="id50" stroke="none" /><text fill="#e1ed5e" style="font-size:6.75px; font-family:Arial;" text-anchor="middle"><textPath startOffset="19.985693538727396" xlink:href="#id50">February</textPath></text><path d="M 110.99172775467656 82.1063720568725 l 11.892731547837391 -19.360387947559666 a43.72139267626305,43.72139267626305 0 0,0 0.6378760641723141,0.3994379328658405 l -12.224226764381967 19.152805673370878" fill="#ffda14" stroke="none" /><path d="M 111.2981086023043 82.29822771554956 l 19.017215764412484 -29.795998144081587 a56.347644912105984,56.347644912105984 0 0,0 0.8131044965603215,0.5288657825358565 l -19.527287286757087 29.464233437386202" fill="#7dff26" stroke="none" /><path d="M 111.60114157652 82.49532879139004 l 11.723213250417102 -17.68886209201217 a42.22097007737818,42.22097007737818 0 0,0 0.6023430682278271,0.4067047284689478 l -12.025961013051472 17.48444545124455" fill="#ffc412" stroke="none" /><path d="M 113.06298171725822 83.55741782278167 l 14.134025197178346 -17.79072158483106 a43.72180544726687,43.72180544726687 0 0,0 0.5852405199929159,0.4732237997508439 l -14.438169115735752 17.54479168781609" fill="#ffda14" stroke="none" /><path d="M 113.34407831869373 83.78471172551755 l 13.705860939611092 -16.654914702832667 a42.56934880460207,42.56934880460207 0 0,0 0.561798770369232,0.47049031371652095 l -13.990517246939442 16.416523231722326" fill="#ffc912" stroke="none" /><path d="M 114.16331599549186 84.49514656593476 l 14.060125816906242 -15.391889168118322 a41.84699954791748,41.84699954791748 0 0,0 0.5276550270061504,0.49039784167995637 l -14.322988727707239 15.147586740363725" fill="#ffbf11" stroke="none" /><path d="M 114.42810811169701 84.74124197986012 l 19.983270521911944 -21.13374026478545 a50.08549601315626,50.08549601315626 0 0,0 0.621338617305268,0.5977272575617264 l -20.34409238282963 20.786629920461426" fill="#cdff1d" stroke="none" /><line stroke="#e1ed5e" stroke-width="0.3" x1="172.23445277983987" x2="176.4835382374775" y1="55.19839476539836" y2="52.563006222186495" /><path d="M 173.08426987136738 54.67131705675599 a86.0,86.0 0 0,1 12.851231095245387,41.99856678651699" fill="none" id="id51" stroke="none" /><text fill="#e1ed5e" style="font-size:6.75px; font-family:Arial;" text-anchor="middle"><textPath startOffset="22.20632615414155" xlink:href="#id51">March</textPath></text><path d="M 120.73433829027371 96.67025291283417 l 26.997690560010195 -4.335584779407574 a48.34360237703683,48.34360237703683 0 0,0 0.12487407232705243,0.8227641142722482 l -27.068320525776546 3.870221552743244" fill="#e4ff1a" stroke="none" /><path d="M 120.91429891909075 98.10471618934814 l 34.06591473645973 -3.087102127823361 a55.20550754453668,55.20550754453668 0 0,0 0.07761767172662964,0.9471321934180041 l -34.114006892005854 2.500256017197588" fill="#8bff24" stroke="none" /><path d="M 120.98425023603335 99.18683210126433 l 27.615530136603773 -1.0701389070881797 a48.63625701874505,48.63625701874505 0 0,0 0.0252174489025654,0.836844360875381 l -27.62985927996198 0.5946243987877996" fill="#e0ff1b" stroke="none" /><line stroke="#e1ed5e" stroke-width="0.3" x1="184.98032266829074" x2="189.97916517819016" y1="98.17113171792111" y2="98.06355123074" /><path d="M 185.9800911702706 98.14961562048488 a86.0,86.0 0 0,1 -9.607161424134198,41.387399972396054" fill="none" id="id52" stroke="none" /><text fill="#e1ed5e" style="font-size:6.75px; font-family:Arial;" text-anchor="middle"><textPath startOffset="21.466115282336823" xlink:href="#id52">April</textPath></text><path d="M 120.99513854157772 99.54816195383933 l 42.24352224983657 -0.9091262016924275 a63.253303806010734,63.253303806010734 0 0,0 0.014057272316363235,1.088751232559953 l -42.25291252927065 0.18183871107201174" fill="#30ff32" stroke="none" /><path d="M 120.99824983174949 100.27111621757518 l 37.44800472035348 0.4835051243255937 a58.45112594757153,58.45112594757153 0 0,0 -0.02164900921956884,1.0059443902850964 l -37.434133648448906 -1.1280393304008052" fill="#64ff29" stroke="none" /><path d="M 120.9904718944345 100.63252640178507 l 28.956363336115437 0.8725703929805657 a49.969507361082904,49.969507361082904 0 0,0 -0.033307929787202976,0.8595296673487738 l -28.93705327347703 -1.3708773073433456" fill="#ceff1d" stroke="none" /><path d="M 120.95626037817324 101.35467743843564 l 35.37040869073016 2.2864525338445367 a56.44423332699981,56.44423332699981 0 0,0 -0.07102147085963884,0.9690315430584624 l -35.325810661206184 -2.8949572133997696" fill="#7cff26" stroke="none" /><path d="M 120.92983693683757 101.71520430193887 l 27.941737531695075 2.289830951031366 a49.035406579438764,49.035406579438764 0 0,0 -0.07618094935104504,0.8406504280326587 l -27.898181986066955 -2.770462767612595" fill="#dbff1b" stroke="none" /><path d="M 120.89721153311464 102.0752229133903 l 41.27386511613592 4.098751188763016 a62.47688154782575,62.47688154782575 0 0,0 -0.11548613100371403,1.0692581440693705 l -41.197196683631155 -4.808605654717177" fill="#36ff2e" stroke="none" /><path d="M 120.81339534386255 102.79330883721812 l 29.731162111943494 3.990137913396499 a50.99771993159794,50.99771993159794 0 0,0 -0.12425460648999015,0.8690364283903453 l -29.658073454436902 -4.501319813767254" fill="#c1ff1e" stroke="none" /><path d="M 120.76222939487914 103.15116336523771 l 35.433876542207585 5.377935650576127 a56.839667948659155,56.839667948659155 0 0,0 -0.15514047854781174,0.966059908010375 l -35.33605430929848 -5.987074788279707" fill="#77ff27" stroke="none" /><path d="M 120.64145759157962 103.86396538481128 l 40.975241468673325 7.670335971517078 a62.68698198877001,62.68698198877001 0 0,0 -0.20767321611962217,1.0589212548597684 l -40.83713831957804 -8.374520953444792" fill="#34ff2f" stroke="none" /><path d="M 120.5718875245553 104.21870165774334 l 29.274170516001025 6.003289272192554 a50.88338236353987,50.88338236353987 0 0,0 -0.18334000188042684,0.8565034517559227 l -29.166496475396155 -6.506306543364646" fill="#c2ff1e" stroke="none" /><path d="M 120.49622156327973 104.57218783832717 l 61.488664689839204 13.716563514981502 a84.0,84.0 0 0,0 -0.3269577362777887,1.4085253706057403 l -61.24344638763086 -14.772957542935806" fill="#4dd2ff" stroke="none" /><path d="M 120.32669344350535 105.2749913415812 l 32.101970781030246 8.330800008780232 a54.165324614910865,54.165324614910865 0 0,0 -0.24196920465223204,0.9004574252645257 l -31.95381350003624 -8.882148367220307" fill="#98ff23" stroke="none" /><path d="M 120.23288151984713 105.62410040840565 l 35.82376121707776 9.957871294504377 a58.18199925308104,58.18199925308104 0 0,0 -0.27652342505452154,0.9626143190800477 l -35.647045155137135 -10.573043089089008" fill="#67ff28" stroke="none" /><path d="M 120.13307415673323 105.97154293290107 l 19.900516288608188 5.902565424395344 a41.757428240088586,41.757428240088586 0 0,0 -0.21032466460941568,0.6873531732472212 l -19.795964851492638 -6.2442455701946225" fill="#ffbd11" stroke="none" /><path d="M 120.02730092923936 106.31721596034902 l 39.68286328317727 12.51717433969554 a62.61020658205954,62.61020658205954 0 0,0 -0.33304977336617275,1.0250218045490265 l -39.461521258794846 -13.19839504422236" fill="#34ff2f" stroke="none" /><path d="M 119.9155931802556 106.66101706037122 l 25.894042162020114 8.660583445447445 a48.303976360670134,48.303976360670134 0 0,0 -0.2705233581864875,0.7862675080669622 l -25.741127972890393 -9.105023656603707" fill="#e5ff1a" stroke="none" /><path d="M 119.79798401119884 107.00284435728193 l 48.12238264775309 17.02160965445558 a72.04408787436037,72.04408787436037 0 0,0 -0.42360461859481097,1.1655779794284673 l -47.822253768153054 -17.84743543089018" fill="#3cffa5" stroke="none" /><path d="M 119.67450827220406 107.3425965602758 l 19.52536424086662 7.286935476586543 a41.84080798286018,41.84080798286018 0 0,0 -0.25763122945778516,0.6725938437939648 l -19.39703873181533 -7.621952887213652" fill="#ffbf11" stroke="none" /><path d="M 119.54520255179757 107.68017299344265 l 35.837460112074886 14.08212028383518 a59.5049303203234,59.5049303203234 0 0,0 -0.382807644051034,0.9500971787082747 l -35.589749853766456 -14.696916830386268" fill="#58ff2a" stroke="none" /><path d="M 119.26925614724726 108.34839909993367 l 41.72141713261788 18.075790709111633 a66.46878992576674,66.46878992576674 0 0,0 -0.4638854167021557,1.0459391524898907 l -41.40409063118445 -18.791278198094208" fill="#34ff5d" stroke="none" /><path d="M 119.12269723197855 108.67885076344098 l 36.08175461976807 16.375731928882516 a60.6239525116788,60.6239525116788 0 0,0 -0.4394525904654369,0.9465417843247911 l -35.7945274124628 -16.99439378048614" fill="#4bff2c" stroke="none" /><path d="M 118.97047184881838 109.00673069616215 l 20.052691235870878 9.520542827511681 a43.197999043419586,43.197999043419586 0 0,0 -0.3246982604649747,0.6689745890057864 l -19.88583971879119 -9.864306372482742" fill="#ffd213" stroke="none" /><path d="M 118.81262510543309 109.33194174019688 l 44.55141026069023 22.099582735867184 a70.7314760822135,70.7314760822135 0 0,0 -0.5504300909207631,1.0860507887029218 l -44.16440149998321 -22.863187736272803" fill="#3aff94" stroke="none" /><line stroke="#e1ed5e" stroke-width="0.3" x1="174.80103733775053" x2="179.2010983576182" y1="140.37084112569926" y2="142.7455964860345" /><path d="M 175.68104954172406 140.8457921977663 a86.0,86.0 0 0,1 -30.038265399797805,32.042727171017184" fill="none" id="id53" stroke="none" /><text fill="#e1ed5e" style="font-size:6.75px; font-family:Arial;" text-anchor="middle"><textPath startOffset="22.206326154141568" xlink:href="#id53">May</textPath></text><path d="M 117.55443506779139 111.5257021239791 l 17.324059489153356 11.37444460496654 a41.724406559783006,41.724406559783006 0 0,0 -0.39935600700461543,0.5969830451373274 l -17.12570037673802 -11.670964564309674" fill="#ffbd11" stroke="none" /><path d="M 116.93607887273984 112.41649034213515 l 17.118947290400385 12.550558207479014 a42.22674887143167,42.22674887143167 0 0,0 -0.4348123184544207,0.5825021565832534 l -16.900373705250875 -12.843373243571582" fill="#ffc412" stroke="none" /><path d="M 116.71984013943494 112.70617746262583 l 22.395911850106582 17.019686075443314 a49.12910559730585,49.12910559730585 0 0,0 -0.5174772968713186,0.6689091628477865 l -22.099627736017194 -17.402673232404354" fill="#d9ff1c" stroke="none" /><path d="M 115.56566222782051 114.09645910891815 l 15.774425491072423 14.28551774071958 a42.28164741493969,42.28164741493969 0 0,0 -0.4931924481022797,0.5352629957235288 l -15.52618663497442 -14.554931991244443" fill="#ffc512" stroke="none" /><path d="M 115.32070863581623 114.36230785411682 l 18.808012577562405 17.631460344566566 a46.780025814567544,46.780025814567544 0 0,0 -0.5557766650979773,0.5827296113894036 l -18.501729361085463 -17.952597072538477" fill="#f9ff18" stroke="none" /><path d="M 113.75828350139079 115.86535959552629 l 10.909127935020102 12.579856894590018 a37.65118229408951,37.65118229408951 0 0,0 -0.49329238556166827,0.42039447272541075 l -10.690970072881386 -12.765775757538375" fill="#ff800b" stroke="none" /><path d="M 112.92097659922987 116.55440617244103 l 15.704336480702228 20.120457828684795 a46.523695021195465,46.523695021195465 0 0,0 -0.6355386450433932,0.4873039322611808 l -15.355669107165342 -20.38780110277335" fill="#fdff18" stroke="none" /><path d="M 111.7513745106137 117.40417183066458 l 12.30257508535791 18.220517995731885 a42.98500920544858,42.98500920544858 0 0,0 -0.6167843261189146,0.4087710191302845 l -11.98711606049903 -18.42958703595349" fill="#ffcf13" stroke="none" /><line stroke="#e1ed5e" stroke-width="0.3" x1="143.8653032363475" x2="146.44561519142675" y1="172.8068346515853" y2="177.08958963109032" /><path d="M 144.38136562736335 173.6633856474863 a86.0,86.0 0 0,1 -40.68145358897372,12.25698825130547" fill="none" id="id54" stroke="none" /><text fill="#e1ed5e" style="font-size:6.75px; font-family:Arial;" text-anchor="middle"><textPath startOffset="21.466115282336833" xlink:href="#id54">June</textPath></text><path d="M 110.5260780823613 118.17145234162733 l 12.470782163332704 21.528647419360674 a45.879772255236624,45.879772255236624 0 0,0 -0.6867791896099139,0.3899711476963418 l -12.098354206801591 -21.74012173285164" fill="#fff817" stroke="none" /><path d="M 109.2508944713604 118.85261126421891 l 10.923276685868814 22.26079756154722 a45.79639251246503,45.79639251246503 0 0,0 -0.7106887700524451,0.34117379811060583 l -10.538475247816136 -22.445525636157388" fill="#fff717" stroke="none" /><path d="M 108.59647513512805 119.15986991738527 l 10.681962531384192 23.808015418712206 a47.09455731947821,47.09455731947821 0 0,0 -0.7424778221249805,0.32548045780773266 l -10.270564034601458 -23.988360429814392" fill="#f5ff19" stroke="none" /><path d="M 105.88484417918355 120.15858648285463 l 3.7892694699995544 12.980176533480346 a34.52196531413184,34.52196531413184 0 0,0 -0.5718626546933505,0.16161409839800442 l -3.5652756472015983 -13.043479425216871" fill="#ff4f07" stroke="none" /><line stroke="#e1ed5e" stroke-width="0.3" x1="102.19456741930631" x2="102.32365962044197" y1="184.97166512339345" y2="189.96999836594603" /><path d="M 102.22038585953345 185.97133177190398 a86.0,86.0 0 0,1 -42.740103519485714,-10.115201625700543" fill="none" id="id55" stroke="none" /><text fill="#e1ed5e" style="font-size:6.75px; font-family:Arial;" text-anchor="middle"><textPath startOffset="22.20632615414155" xlink:href="#id55">July</textPath></text><path d="M 92.40401165467489 119.57807347666478 l -7.481073310047244 19.281888845782834 a41.682303917393384,41.682303917393384 0 0,0 -0.6666765422795397,-0.26528435480880946 l 7.811870928368642 -19.150257646567958" fill="#ffbc11" stroke="none" /><line stroke="#e1ed5e" stroke-width="0.3" x1="58.666819895761336" x2="56.23545636021788" y1="174.27360380694188" y2="178.64263932499728" /><path d="M 58.180547188652646 175.14741091055294 a86.0,86.0 0 0,1 -31.652253787137756,-30.449443065178592" fill="none" id="id56" stroke="none" /><text fill="#e1ed5e" style="font-size:6.75px; font-family:Arial;" text-anchor="middle"><textPath startOffset="22.20632615414155" xlink:href="#id56">August</textPath></text><path d="M 87.95078237400918 117.19931262002967 l -11.87166915526904 16.945876110876995 a41.69055933746978,41.69055933746978 0 0,0 -0.5842091571291319,-0.41681772189646876 l 12.161605640247057 -16.739014127136308" fill="#ffbc11" stroke="none" /><path d="M 83.28015986056508 112.70617746262583 l -16.5884932065385 12.606360871998437 a41.8350291888067,41.8350291888067 0 0,0 -0.43077874855055737,-0.5770985305404507 l 16.803033221784144 -12.318949461948678" fill="#ffbe11" stroke="none" /><path d="M 83.06392112726016 112.41649034213515 l -17.04870717609266 12.499062480074482 a42.13965418962569,42.13965418962569 0 0,0 -0.42384507176918285,-0.5886837341498251 l 17.26133204023745 -12.203745140473519" fill="#ffc312" stroke="none" /><line stroke="#e1ed5e" stroke-width="0.3" x1="26.63291911575756" x2="22.317208475507996" y1="142.92168965132927" y2="145.44649492493687" /><path d="M 25.769776987707644 143.4266507060508 a86.0,86.0 0 0,1 -11.730757126820373,-40.83630448921669" fill="none" id="id57" stroke="none" /><text fill="#e1ed5e" style="font-size:6.75px; font-family:Arial;" text-anchor="middle"><textPath startOffset="21.46611528233685" xlink:href="#id57">September</textPath></text><path d="M 80.20201598880116 107.00284435728193 l -8.168920578202139 2.889469925007939 a29.664888912184608,29.664888912184608 0 0,0 -0.16613633024397464,-0.48286994238135017 l 8.217447739389343 -2.7484272795372924" fill="#ff0000" stroke="none" /><path d="M 79.50377843672027 104.57218783832718 l -20.214347654591734 4.509308909483338 a41.711197887660774,41.711197887660774 0 0,0 -0.1502913278154728,-0.7021110489945611 l 20.288973021131646 -4.160684041072614" fill="#ffbd11" stroke="none" /><path d="M 79.35854240842038 103.8639653848113 l -10.427095994226377 1.951894036893544 a31.608214798168085,31.608214798168085 0 0,0 -0.09550731810718416,-0.5356557604507134 l 10.459149754672751 -1.772119525709617" fill="#ff2003" stroke="none" /><path d="M 79.1416061653843 102.43462659150553 l -20.56825925743808 2.400761598720729 a41.707895719630216,41.707895719630216 0 0,0 -0.07709545338429402,-0.7138081489562406 l 20.606537012323425 -2.0463571278797064" fill="#ffbd11" stroke="none" /><line stroke="#e1ed5e" stroke-width="0.3" x1="15.007084014347285" x2="10.007500721073583" y1="101.09737516637583" y2="101.16192664675087" /><path d="M 14.007167355692545 101.11028546245083 a86.0,86.0 0 0,1 10.666146001902534,-42.60595125391555" fill="none" id="id58" stroke="none" /><text fill="#e1ed5e" style="font-size:6.75px; font-family:Arial;" text-anchor="middle"><textPath startOffset="22.20632615414155" xlink:href="#id58">October</textPath></text><path d="M 79.12142395522702 97.74499172005258 l -24.675178215729826 -2.6650635113393846 a45.81868214667129,45.81868214667129 0 0,0 0.09144022831465509,-0.7834040345935805 l 24.625647634411582 3.089411284257827" fill="#fff717" stroke="none" /><path d="M 79.21141760316559 97.0276538004421 l -25.147419390705064 -3.595571599246373 a46.403165888080096,46.403165888080096 0 0,0 0.11986182262794062,-0.7897396512484202 l 25.08180167463782 4.027910362886885" fill="#ffff18" stroke="none" /><path d="M 79.3925641242962 95.95851677861259 l -24.41832698665887 -4.78886647548832 a45.883487194271,45.883487194271 0 0,0 0.1586710069487281,-0.7737361807431496 l 24.332276683795147 5.208478312394872" fill="#fff817" stroke="none" /><path d="M 79.71946130924805 94.55025226153421 l -32.12036466846731 -8.631323229619094 a54.259849174785586,54.259849174785586 0 0,0 0.2501462489139608,-0.8999091497986113 l 31.96703164898699 9.182943682836648" fill="#97ff23" stroke="none" /><path d="M 79.81627453868168 94.20196356495316 l -19.94542507356716 -5.729581563654796 a41.752062217038926,41.752062217038926 0 0,0 0.2043745609207958,-0.6890494193883728 l 19.843844615534657 6.072060369789708" fill="#ffbd11" stroke="none" /><path d="M 80.02781315780177 93.51064311812611 l -32.05479262016918 -10.415233480954171 a54.70440354589948,54.70440354589948 0 0,0 0.29869309300828023,-0.8930543297202779 l 31.870762233389133 10.965460913596772" fill="#91ff23" stroke="none" /><path d="M 80.2630227832202 92.82701384747504 l -38.909752610836186 -14.140925107742325 a62.39969337011146,62.39969337011146 0 0,0 0.37557309147083323,-1.006349161948588 l 38.660574930863724 14.808597406720255" fill="#37ff2e" stroke="none" /><path d="M 80.38941819471856 92.48833698450439 l -23.389383792435265 -8.959100292554893 a46.04653174077981,46.04653174077981 0 0,0 0.28988802389088253,-0.7377334012040088 l 23.23170221866269 9.360382698654666" fill="#fffb17" stroke="none" /><path d="M 80.52162464483688 92.15188598940014 l -23.052522656732965 -9.2881887089223 a45.85335491099217,45.85335491099217 0 0,0 0.3012746933917661,-0.7295605669424775 l 22.889226276455002 9.683623846318088" fill="#fff817" stroke="none" /><path d="M 80.65960295795068 91.81776055985345 l -30.50667684408558 -12.906298351516833 a54.124460285532706,54.124460285532706 0 0,0 0.3703898937039011,-0.8549109416904682 l 30.279996240538996 13.429508437793901" fill="#99ff23" stroke="none" /><line stroke="#e1ed5e" stroke-width="0.3" x1="26.266209847984243" x2="21.928928074336255" y1="57.711370442889674" y2="55.22380399835377" /><path d="M 25.398753493254645 57.213857153982495 a86.0,86.0 0 0,1 29.58750427330803,-30.492523968695096" fill="none" id="id59" stroke="none" /><text fill="#e1ed5e" style="font-size:6.75px; font-family:Arial;" text-anchor="middle"><textPath startOffset="21.46611528233685" xlink:href="#id59">November</textPath></text><line stroke="#e1ed5e" stroke-width="0.3" x1="56.762969772571076" x2="54.21961505331055" y1="26.818313649435495" y2="22.513508569990535" /><path d="M 56.25429882871897 25.957352633546506 a86.0,86.0 0 0,1 42.265352541879196,-11.944610805530505" fill="none" id="id60" stroke="none" /><text fill="#e1ed5e" style="font-size:6.75px; font-family:Arial;" text-anchor="middle"><textPath startOffset="22.20632615414155" xlink:href="#id60">December</textPath></text></svg>