<?xml version="1.0" encoding="utf-8" ?>
<svg baseProfile="full" height="200mm" version="1.1" viewBox="0,0,200,200" width="200mm" xmlns="http://www.w3.org/2000/svg" xmlns:ev="http://www.w3.org/2001/xml-events" xmlns:xlink="http://www.w3.org/1999/xlink"><defs /><rect fill="#1a1a1a" height="200" width="200" x="0" y="0" /><text alignment-baseline="middle" fill="#e1ed5e" style="dominant-baseline: central; font-size:9.0px; font-family:Arial;" text-anchor="middle" x="100.0" y="100.0">2019</text><line stroke="#e1ed5e" stroke-width="0.3" x1="100.0" x2="100.0" y1="15.0" y2="10.0" /><path d="M 100.0 14.0 a86.0,86.0 0 0,1 42.46469731375804,11.215312516191453" fill="none" id="id49" stroke="none" /><text fill="#e1ed5e" style="font-size:6.75px; font-family:Arial;" text-anchor="middle"><textPath startOffset="22.20632615414155" xlink:href="#id49">January</textPath></text><path d="M 100.0 79.0 l 0.0 -45.94508104879276 a66.94508104879276,66.94508104879276 0 0,0 1.1523495229740888,0.009918636153966258 l -0.7908690437015603 45.938273789247354" fill="#37ff79" stroke="none" /><path d="M 106.74666289553966 80.11325718540242 l 9.986628469792247 -29.43699945272141 a52.084878718971794,52.084878718971794 0 0,0 0.8465479249031856,0.2953439485944861 l -10.491858398758707 29.260734650954717" fill="#8dff24" stroke="none" /><line stroke="#e1ed5e" stroke-width="0.3" x1="143.23703022742887" x2="145.7803849466894" y1="26.81831364943548" y2="22.513508569990506" /><path d="M 143.74570117128098 25.957352633546492 a86.0,86.0 0 0,1 28.547481713284135,27.462654790039103" fill="none" id="id50" stroke="none" /><text fill="#e1ed5e" style="font-size:6.75px; font-family:Arial;" text-anchor="middle"><textPath startOffset="19.985693538727396" xlink:href="#id50">February</textPath></text><line stroke="#e1ed5e" stroke-width="0.3" x1="172.23445277983987" x2="176.4835382374775" y1="55.19839476539836" y2="52.563006222186495" /><path d="M 173.08426987136738 54.67131705675599 a86.0,86.0 0 0,1 12.851231095245387,41.99856678651699" fill="none" id="id51" stroke="none" /><text fill="#e1ed5e" style="font-size:6.75px; font-family:Arial;" text-anchor="middle"><textPath startOffset="22.20632615414155" xlink:href="#id51">March</textPath></text><path d="M 120.98425023603335 99.18683210126433 l 19.797604047597098 -0.7671837641232989 a40.8124631722905,40.8124631722905 0 0,0 0.021160884239887254,0.7022267286317324 l -19.80787662629263 0.42628688806656745" fill="#ffea16" stroke="none" /><line stroke="#e1ed5e" stroke-width="0.3" x1="184.98032266829074" x2="189.97916517819016" y1="98.17113171792111" y2="98.06355123074" /><path d="M 185.9800911702706 98.14961562048488 a86.0,86.0 0 0,1 -9.607161424134198,41.387399972396054" fill="none" id="id52" stroke="none" /><text fill="#e1ed5e" style="font-size:6.75px; font-family:Arial;" text-anchor="middle"><textPath startOffset="21.466115282336823" xlink:href="#id52">April</textPath></text><path d="M 120.99824983174949 100.27111621757518 l 18.923678967528744 0.24433066114520194 a39.92525622384187,39.92525622384187 0 0,0 -0.014787435247336096,0.6871140098326455 l -18.916669469596403 -0.5700344867679622" fill="#ffdf14" stroke="none" /><path d="M 120.9764740272857 100.99374915477107 l 23.82665266010705 1.1287748318047015 a44.85337522461553,44.85337522461553 0 0,0 -0.0431738280143031,0.7708977017325586 l -23.803692481205218 -1.5387442498726833" fill="#e1ff1b" stroke="none" /><path d="M 120.92983693683757 101.71520430193887 l 23.367999269814412 1.9150121903121788 a44.446335781163995,44.446335781163995 0 0,0 -0.0690514118507213,0.7619765758113641 l -23.331573261686614 -2.3169701546721133" fill="#e6ff1a" stroke="none" /><path d="M 120.5718875245553 104.21870165774334 l 28.95500448335208 5.937837510927368 a50.557574307393956,50.557574307393956 0 0,0 -0.182166069510922,0.8510192305478054 l -28.84850437511672 -6.435370560891342" fill="#9eff22" stroke="none" /><path d="M 120.32669344350535 105.2749913415812 l 17.06858689068704 4.4294783266960005 a38.63397109818441,38.63397109818441 0 0,0 -0.17258700701318386,0.6422604570385714 l -16.98981180733208 -4.72262971691012" fill="#ffce13" stroke="none" /><path d="M 120.13307415673323 105.97154293290107 l 27.560940099840522 8.17467495505502 a49.74770825314256,49.74770825314256 0 0,0 -0.2505702696361042,0.8188781390695621 l -27.416143057698285 -8.647880066676638" fill="#a7ff21" stroke="none" /><path d="M 119.9155931802556 106.66101706037122 l 13.785421033750888 4.610704981725101 a35.53603912715861,35.53603912715861 0 0,0 -0.1990173349197125,0.578437533226166 l -13.704012867887943 -4.847315218040568" fill="#ffa50f" stroke="none" /><path d="M 118.64920377521936 109.65438752849418 l 15.797554784350549 8.178135524123395 a38.78889085399891,38.78889085399891 0 0,0 -0.3120612294534048,0.5903022427809915 l -15.65444104667225 -8.44885278199052" fill="#ffd013" stroke="none" /><line stroke="#e1ed5e" stroke-width="0.3" x1="174.80103733775053" x2="179.2010983576182" y1="140.37084112569926" y2="142.7455964860345" /><path d="M 175.68104954172406 140.8457921977663 a86.0,86.0 0 0,1 -30.038265399797805,32.042727171017184" fill="none" id="id53" stroke="none" /><text fill="#e1ed5e" style="font-size:6.75px; font-family:Arial;" text-anchor="middle"><textPath startOffset="22.206326154141568" xlink:href="#id53">May</textPath></text><path d="M 117.94076556474637 110.91462005526583 l 17.501384229714944 10.647313717978472 a41.48569596975332,41.48569596975332 0 0,0 -0.37640438239153756,0.6068837141796718 l -17.315515207655444 -10.946993763523416" fill="#fff316" stroke="none" /><path d="M 116.71984013943494 112.70617746262583 l 18.836470491370232 14.314702463474248 a44.65847263011831,44.65847263011831 0 0,0 -0.4703880809159832,0.6080400035353253 l -18.587275593236182 -14.636820461122827" fill="#e4ff1b" stroke="none" /><path d="M 116.27256486870786 113.27417163493432 l 27.36683976106685 22.324208323957507 a56.31733562713024,56.31733562713024 0 0,0 -0.6192332415067731,0.7459063301919939 l -26.978510519666532 -22.791975911263272" fill="#5eff29" stroke="none" /><path d="M 115.56566222782051 114.09645910891815 l 13.316924071012695 12.059973605754061 a38.96617460909812,38.96617460909812 0 0,0 -0.4545192589125942,0.49329088690575346 l -13.107358404104378 -12.28741574746115" fill="#ffd313" stroke="none" /><path d="M 115.07121518719521 114.62390073753431 l 10.520791821275154 10.208534173495774 a35.65950990033573,35.65950990033573 0 0,0 -0.43124127833881915,0.436845138183427 l -10.3435099178808 -10.388119805659866" fill="#ffa70f" stroke="none" /><path d="M 114.29624159901734 115.38237550388516 l 20.11202949358727 21.64000850662998 a50.54291283062559,50.54291283062559 0 0,0 -0.6423774383690949,0.5867965593281107 l -19.73655250575131 -21.982997832544672" fill="#9eff22" stroke="none" /><path d="M 113.48314897796784 116.09983520530334 l 11.227214681431157 13.406089814847332 a38.486383091614364,38.486383091614364 0 0,0 -0.5115571031020043,0.4209766692226846 l -10.99478744978446 -13.597361602927196" fill="#ffcc13" stroke="none" /><path d="M 112.63410532772338 116.77436683061366 l 37.750712349395585 50.12181556506364 a83.74800935826622,83.74800935826622 0 0,0 -1.1589728674780424,0.8573804202321884 l -36.88235451149898 -50.7642059340356" fill="#4dd4ff" stroke="none" /><path d="M 112.04921762599082 117.19931262002967 l 10.148847317944847 14.486683133497591 a38.687936287009855,38.687936287009855 0 0,0 -0.5487112129159246,0.3774085756595414 l -9.89797922040604 -14.659232498522227" fill="#ffcf13" stroke="none" /><path d="M 111.45004920935366 117.60387380957326 l 19.949537529370268 30.671408900102357 a57.58851420258864,57.58851420258864 0 0,0 -0.8356318224098839,0.5333397656132689 l -19.418623904913453 -31.010263094539436" fill="#51ff2b" stroke="none" /><line stroke="#e1ed5e" stroke-width="0.3" x1="143.8653032363475" x2="146.44561519142675" y1="172.8068346515853" y2="177.08958963109032" /><path d="M 144.38136562736335 173.6633856474863 a86.0,86.0 0 0,1 -40.68145358897372,12.25698825130547" fill="none" id="id54" stroke="none" /><text fill="#e1ed5e" style="font-size:6.75px; font-family:Arial;" text-anchor="middle"><textPath startOffset="21.466115282336833" xlink:href="#id54">June</textPath></text><path d="M 110.21172684928248 118.3499491758327 l 8.527836039215154 15.324083792001122 a38.53714719035021,38.53714719035021 0 0,0 -0.5824195911370169,0.3175815988476095 l -8.262793636209489 -15.468606042608503" fill="#ffcd13" stroke="none" /><path d="M 109.57404056367764 118.69057910512821 l 8.052166141594515 15.719554062480023 a38.66187304605809,38.66187304605809 0 0,0 -0.5949253903094706,0.29830794114967857 l -7.780386843602285 -15.855829844539004" fill="#ffcf13" stroke="none" /><path d="M 108.2653958097858 119.30500536409082 l 17.353676235934937 40.531974575831136 a65.09071378326138,65.09071378326138 0 0,0 -1.0337909889714123,0.43212471723298207 l -16.653413787466064 -40.8246843360841" fill="#35ff63" stroke="none" /><path d="M 107.59598834532513 119.57807347666477 l 1.0832725829090046 2.7920514433781896 a23.994834010651104,23.994834010651104 0 0,0 -0.3863508536626337,0.1460848341267939 l -1.0350515084860963 -2.810284527611614" fill="#ff0000" stroke="none" /><path d="M 107.2578585660854 119.70592522655815 l 8.07633478894945 21.928182811301067 a44.36819173639746,44.36819173639746 0 0,0 -0.7189346561012142,0.2577843892080179 l -7.697680572218502 -22.063954741549043" fill="#e7ff1a" stroke="none" /><path d="M 106.57524785965236 119.94407469862006 l 2.4996195827300096 7.581858621940457 a28.983274905792747,28.983274905792747 0 0,0 -0.47515823330599183,0.15213066130212838 l -2.3687400043330773 -7.623762129902292" fill="#ff4a06" stroke="none" /><path d="M 105.88484417918355 120.15858648285463 l 17.654532537550654 60.47575944856389 a84.0,84.0 0 0,0 -1.391475327581577,0.39324482664592386 l -16.61092604186447 -60.77069306854833" fill="#4dd2ff" stroke="none" /><path d="M 105.18746579009965 120.34920634021253 l 7.454788203554197 29.24337807995306 a51.17861873391375,51.17861873391375 0 0,0 -0.8555279046628562,0.21026794407562344 l -6.950307014148129 -29.367367282342713" fill="#97ff23" stroke="none" /><path d="M 104.48393922423573 120.51570834832081 l 1.1029184281163205 5.046266613276763 a26.16538825175323,26.16538825175323 0 0,0 -0.4408351323088444,0.09238128813502498 l -1.015891834378098 -5.06450388213833" fill="#ff2003" stroke="none" /><path d="M 103.7750983002368 120.6578951692458 l 8.231149719848519 45.042066328267865 a66.78798493961756,66.78798493961756 0 0,0 -1.1326956918835254,0.19693366500851192 l -7.4546050564929445 -45.17707857179739" fill="#37ff77" stroke="none" /><path d="M 102.34483914955558 120.86867818915974 l 0.7079866204487522 6.300963094707802 a27.340613611915188,27.340613611915188 0 0,0 -0.4681330211259933,0.04852390172015082 l -0.5994210027171563 -6.312216364883711" fill="#ff3204" stroke="none" /><path d="M 101.26447882468166 120.96189622390904 l 3.752006975953102 62.1988912160011 a83.3119541087225,83.3119541087225 0 0,0 -1.4322194989065455,0.07402938869939665 l -2.6807994086330766 -62.254260411462695" fill="#4cd8ff" stroke="none" /><line stroke="#e1ed5e" stroke-width="0.3" x1="102.19456741930631" x2="102.32365962044197" y1="184.97166512339345" y2="189.96999836594603" /><path d="M 102.22038585953345 185.97133177190398 a86.0,86.0 0 0,1 -42.740103519485714,-10.115201625700543" fill="none" id="id55" stroke="none" /><text fill="#e1ed5e" style="font-size:6.75px; font-family:Arial;" text-anchor="middle"><textPath startOffset="22.20632615414155" xlink:href="#id55">July</textPath></text><path d="M 98.37488393609728 120.93702456842531 l -2.3455096464996448 30.218145143620536 a51.30903679470432,51.30903679470432 0 0,0 -0.8799638644200513,-0.07592698491700038 l 2.8653178286612375 -30.17329390642487" fill="#95ff23" stroke="none" /><path d="M 97.65516085044442 120.86867818915974 l -4.815343677393107 42.85575733105941 a64.1254387937104,64.1254387937104 0 0,0 -1.0958505460885362,-0.13269223990646217 l 5.5523216465330325 -42.7665195624276" fill="#33ff57" stroke="none" /><path d="M 96.93821686468263 120.77559828337769 l -3.6660157027444433 24.87559248146376 a46.14427911944634,46.14427911944634 0 0,0 -0.7848134095764089,-0.1225717140728724 l 4.093664975929369 -24.808802460043783" fill="#d2ff1c" stroke="none" /><path d="M 95.86986931433489 120.58985236759428 l -12.193407033220177 60.78753186754412 a82.99841292827966,82.99841292827966 0 0,0 -1.3983593896111866,-0.29303980608670765 l 13.237957884260751 -60.56863608073087" fill="#4cdbff" stroke="none" /><path d="M 95.16358092515715 120.4354850818985 l -6.992003068854707 29.54354703243156 a51.35966531719955,51.35966531719955 0 0,0 -0.8585543717281408,-0.21101177604669213 l 7.499510725326058 -29.41881399807084" fill="#95ff23" stroke="none" /><path d="M 94.46302465271185 120.25689768951611 l -6.255934301420633 22.887192582188185 a44.72678440661231,44.72678440661231 0 0,0 -0.7409073450459521,-0.20938781643342205 l 6.648972814571199 -22.776115972416243" fill="#e3ff1b" stroke="none" /><path d="M 91.7346041902142 119.30500536409082 l -7.077112272239673 16.529600459799468 a38.98091236490763,38.98091236490763 0 0,0 -0.614560674619012,-0.2694053394795562 l 7.360593621516428 -16.40533056702546" fill="#ffd313" stroke="none" /><path d="M 90.42595943632237 118.69057910512821 l -8.696185137512856 16.97681716977078 a40.07448445336658,40.07448445336658 0 0,0 -0.611248664141611,-0.319776411682931 l 8.987124704180962 -16.82461133914313" fill="#ffe115" stroke="none" /><line stroke="#e1ed5e" stroke-width="0.3" x1="58.666819895761336" x2="56.23545636021788" y1="174.27360380694188" y2="178.64263932499728" /><path d="M 58.180547188652646 175.14741091055294 a86.0,86.0 0 0,1 -31.652253787137756,-30.449443065178592" fill="none" id="id56" stroke="none" /><text fill="#e1ed5e" style="font-size:6.75px; font-family:Arial;" text-anchor="middle"><textPath startOffset="22.20632615414155" xlink:href="#id56">August</textPath></text><path d="M 89.7882731507175 118.34994917583269 l -7.5551008712578644 13.57612860704476 a36.536756969519104,36.536756969519104 0 0,0 -0.5469226002889764,-0.3105569262471445 l 7.787672238468048 -13.444068515002982" fill="#ffb310" stroke="none" /><path d="M 87.95078237400918 117.19931262002967 l -10.34007736646715 14.759649021322872 a39.02122191132342,39.02122191132342 0 0,0 -0.5468037734498432,-0.3901299738158302 l 10.592608467765881 -14.579474785662823" fill="#ffd313" stroke="none" /><path d="M 87.36589467227662 116.77436683061367 l -10.82277365124385 14.369452417995499 a38.98926325059186,38.98926325059186 0 0,0 -0.5326142630380694,-0.4083859050602975 l 11.068516642775407 -14.181027171107836" fill="#ffd313" stroke="none" /><path d="M 86.79598089348748 116.32954008644616 l -19.01862782345736 23.520523783487207 a51.24769814939269,51.24769814939269 0 0,0 -0.6811792093724082,-0.5605641148690156 l 19.42067716137446 -23.189664549761012" fill="#96ff23" stroke="none" /><path d="M 86.24171649860922 115.8653595955263 l -15.965818458644478 18.410977725359448 a45.369478038277194,45.369478038277194 0 0,0 -0.5856068555672218,-0.5167299626964895 l 16.280367667118288 -18.13342462089067" fill="#dbff1b" stroke="none" /><path d="M 84.19399662182784 113.82643327865904 l -8.854418477269373 7.7454764097012445 a32.76406100731579,32.76406100731579 0 0,0 -0.3676712568216163,-0.4276847355511427 l 8.986432243661767 -7.5919145749885715" fill="#ff7f0b" stroke="none" /><path d="M 83.28015986056508 112.70617746262583 l -49.66778690050558 37.74484141419761 a83.38238620778273,83.38238620778273 0 0,0 -0.858595313024388,-1.1502287314369224 l 50.31014348022506 -36.88429980325138" fill="#4cd8ff" stroke="none" /><path d="M 82.85270091963577 112.12312394758628 l -19.829758016994056 14.019619834236622 a45.285160969387476,45.285160969387476 0 0,0 -0.444525809583156,-0.6403725830060604 l 20.068144733739345 -13.676205989043547" fill="#dcff1b" stroke="none" /><line stroke="#e1ed5e" stroke-width="0.3" x1="26.63291911575756" x2="22.317208475507996" y1="142.92168965132927" y2="145.44649492493687" /><path d="M 25.769776987707644 143.4266507060508 a86.0,86.0 0 0,1 -11.730757126820373,-40.83630448921669" fill="none" id="id57" stroke="none" /><text fill="#e1ed5e" style="font-size:6.75px; font-family:Arial;" text-anchor="middle"><textPath startOffset="21.46611528233685" xlink:href="#id57">September</textPath></text><path d="M 81.18737489456691 109.33194174019688 l -16.851973550535096 8.359366887905248 a39.81138026075017,39.81138026075017 0 0,0 -0.2992427011348798,-0.6165285970981722 l 16.993369508284697 -8.06804933484179" fill="#ffde14" stroke="none" /><path d="M 80.73074385275274 108.34839909993369 l -27.427354880197388 11.882892782455034 a50.890850382744375,50.890850382744375 0 0,0 -0.341329825842794,-0.8068028810917959 l 27.62783568723249 -11.409015375697079" fill="#9aff23" stroke="none" /><path d="M 80.45479744820244 107.68017299344265 l -16.32532047875066 6.414939170771899 a38.54045419305382,38.54045419305382 0 0,0 -0.2373095806774375,-0.6195404313867225 l 16.433324339021606 -6.132975172552019" fill="#ffcd13" stroke="none" /><path d="M 80.0844068197444 106.66101706037122 l -28.190800138505065 9.428762626777441 a50.72579312854835,50.72579312854835 0 0,0 -0.26983162694312113,-0.830456356052062 l 28.348924016464434 -8.942107370747575" fill="#9cff22" stroke="none" /><path d="M 79.86692584326677 105.97154293290107 l -22.474282897362546 6.665953950349976 a44.442020685488465,44.442020685488465 0 0,0 -0.2112209950510391,-0.7352879933639561 l 22.58569652929969 -6.278108481481423" fill="#e6ff1a" stroke="none" /><path d="M 79.67330655649465 105.27499134158121 l -23.325881767383148 6.053312345152099 a45.098534199695806,45.098534199695806 0 0,0 -0.18853052593384043,-0.7530857346579973 l 23.426623607612047 -5.65089877109671" fill="#deff1b" stroke="none" /><path d="M 79.35854240842038 103.8639653848113 l -60.93563820692083 11.406810574703618 a82.99409109884522,82.99409109884522 0 0,0 -0.25077477833558093,-1.4064781343818338 l 61.1229594275956 -10.356213689588571" fill="#4cdbff" stroke="none" /><path d="M 79.18660465613746 102.79330883721812 l -26.195581527202215 3.5156373175594746 a47.430440732173096,47.430440732173096 0 0,0 -0.10163324993831473,-0.8101169998549435 l 26.252216286387377 -3.064202563417122" fill="#c2ff1e" stroke="none" /><line stroke="#e1ed5e" stroke-width="0.3" x1="15.007084014347285" x2="10.007500721073583" y1="101.09737516637583" y2="101.16192664675087" /><path d="M 14.007167355692545 101.11028546245083 a86.0,86.0 0 0,1 10.666146001902534,-42.60595125391555" fill="none" id="id58" stroke="none" /><text fill="#e1ed5e" style="font-size:6.75px; font-family:Arial;" text-anchor="middle"><textPath startOffset="22.20632615414155" xlink:href="#id58">October</textPath></text><path d="M 79.00019446554 99.90962569577889 l -17.57004689620442 -0.07561406989085052 a38.57020960098052,38.57020960098052 0 0,0 0.008571756841714066,-0.6638920137982061 l 17.56614213224499 0.3780423417495286" fill="#ffcd13" stroke="none" /><path d="M 79.08570108090925 98.10471618934814 l -26.619902887068783 -2.4123338381155457 a47.728983973647225,47.728983973647225 0 0,0 0.08119126170502483,-0.8175849252350952 l 26.57443449968153 2.870194294055071" fill="#bfff1e" stroke="none" /><path d="M 79.46518482838121 95.60439243477599 l -21.693096366524507 -4.643545009044832 a43.18452028371008,43.18452028371008 0 0,0 0.16185067337868303,-0.7255448330288335 l 21.609951306143785 5.016268011623625" fill="#f6ff19" stroke="none" /><path d="M 79.71946130924805 94.55025226153421 l -17.024593156677277 -4.574816254570704 a38.628548321216556,38.628548321216556 0 0,0 0.1780835481576361,-0.6406612736007099 l 16.94332283795328 4.867188831590357" fill="#ffce13" stroke="none" /><path d="M 80.38941819471856 92.48833698450439 l -16.4433859676008 -6.298496161347004 a38.60840696866113,38.60840696866113 0 0,0 0.24306097285950795,-0.61856366399978 l 16.3325314448596 6.580608830242547" fill="#ffce13" stroke="none" /><path d="M 80.95270993114464 91.15688171328213 l -40.128747251105594 -18.630642855572198 a65.24270797719097,65.24270797719097 0 0,0 0.4816832039732788,-1.0145476721000792 l 39.80210585329056 19.31863294331281" fill="#35ff65" stroke="none" /><path d="M 81.43458229118936 90.18545643968196 l -23.525575643271505 -12.43671381672549 a47.61060991233422,47.61060991233422 0 0,0 0.3892550530103109,-0.7212304956310948 l 23.30801249104272 12.839825295689058" fill="#c0ff1e" stroke="none" /><line stroke="#e1ed5e" stroke-width="0.3" x1="26.266209847984243" x2="21.928928074336255" y1="57.711370442889674" y2="55.22380399835377" /><path d="M 25.398753493254645 57.213857153982495 a86.0,86.0 0 0,1 29.58750427330803,-30.492523968695096" fill="none" id="id59" stroke="none" /><text fill="#e1ed5e" style="font-size:6.75px; font-family:Arial;" text-anchor="middle"><textPath startOffset="21.46611528233685" xlink:href="#id59">November</textPath></text><path d="M 82.15384107792192 88.93136811851018 l -39.82441869990515 -24.70009554483115 a67.86234143434515,67.86234143434515 0 0,0 0.6242443628214123,-0.9874046693754867 l 39.39334674083778 25.38194786192085" fill="#38ff83" stroke="none" /><path d="M 82.7489923806493 88.02491185347247 l -14.613957979531042 -10.144534095401452 a38.7898662119832,38.7898662119832 0 0,0 0.3854740741874684,-0.5452257410215658 l 14.437171285539696 10.394586336754804" fill="#ffd013" stroke="none" /><path d="M 83.6137871275137 86.86637796730984 l -48.7215482148231 -39.05053620872957 a83.43984015545388,83.43984015545388 0 0,0 0.9079109188774278,-1.1129914339482785 l 48.04213880386928 39.88341181228593" fill="#4cd7ff" stroke="none" /><path d="M 84.07557802195018 86.31012108654704 l -11.175946072864557 -9.607717548033273 a35.73804624454555,35.73804624454555 0 0,0 0.40504503743014925,-0.4630364968971749 l 11.008909171856564 9.798669601133392" fill="#ffa80f" stroke="none" /><path d="M 85.31137513191541 84.99185889309783 l -32.01674877765238 -32.71319730435079 a66.77363302344145,66.77363302344145 0 0,0 0.8283642994038599,-0.7968857997143304 l 31.448901234636097 33.25946619082744" fill="#37ff77" stroke="none" /><path d="M 87.22198572758235 83.33499621200491 l -11.029017943104723 -14.3839740574128 a39.12561575433095,39.12561575433095 0 0,0 0.537984382649257,-0.40519868342549387 l 10.779787406697077 14.571689330344148" fill="#ffd513" stroke="none" /><path d="M 88.09926311788651 82.69761687909137 l -18.31403255948506 -26.62662076911075 a53.316879833485146,53.316879833485146 0 0,0 0.7606422336667996,-0.513589031605598 l 17.85298563141172 26.937921713015015" fill="#7fff26" stroke="none" /><line stroke="#e1ed5e" stroke-width="0.3" x1="56.762969772571076" x2="54.21961505331055" y1="26.818313649435495" y2="22.513508569990535" /><path d="M 56.25429882871897 25.957352633546506 a86.0,86.0 0 0,1 42.265352541879196,-11.944610805530505" fill="none" id="id60" stroke="none" /><text fill="#e1ed5e" style="font-size:6.75px; font-family:Arial;" text-anchor="middle"><textPath startOffset="22.20632615414155" xlink:href="#id60">December</textPath></text><path d="M 89.3179101791058 81.91981866633112 l -23.918542676131104 -40.48380008710198 a68.02164132867273,68.02164132867273 0 0,0 1.0132091271752786,-0.5869161245838498 l 23.218136816490507 40.88952036907588" fill="#38ff85" stroke="none" /><path d="M 90.26544431104013 81.39251694778311 l -9.503614476015485 -18.166041774029466 a41.50179899044264,41.50179899044264 0 0,0 0.6358461224463882,-0.32570508031442247 l 9.189507865980334 18.326939379656395" fill="#fff316" stroke="none" /><path d="M 92.23578459929587 80.48803036053334 l -11.243493223073317 -28.255617224408777 a51.410459460350175,51.410459460350175 0 0,0 0.825056682535222,-0.32010917479903844 l 10.755453375538417 28.444969103098366" fill="#94ff23" stroke="none" /><path d="M 93.59665428221793 80.00007090966166 l -19.009998440764885 -59.37499513214309 a83.34396592822677,83.34396592822677 0 0,0 1.3700741016534537,-0.425688692562715 l 17.985138966400704 59.69342395958834" fill="#4cd8ff" stroke="none" /><path d="M 94.63758080256005 79.69619591428918 l -6.685661674716432 -25.314015900061094 a47.182006665214146,47.182006665214146 0 0,0 0.7870208356585537,-0.20062913475925478 l 6.248931950372879 25.425348030989213" fill="#c5ff1e" stroke="none" /><path d="M 95.33964822691252 79.52364482259891 l -4.321892713799586 -18.98925543720344 a40.47487044087725,40.47487044087725 0 0,0 0.6806664278637803,-0.14876731735020282 l 3.9943835617822843 19.060836252649512" fill="#ffe615" stroke="none" /><path d="M 96.40284397218896 79.31037775812273 l -10.390330364574309 -59.76165852949272 a81.65817995357827,81.65817995357827 0 0,0 1.386908946156976,-0.22885185961031035 l 9.360092212278449 59.931656652042655" fill="#4ae8ff" stroke="none" /></svg>