<?xml version="1.0" encoding="utf-8" ?>
<svg baseProfile="full" height="200mm" version="1.1" viewBox="0,0,200,200" width="200mm" xmlns="http://www.w3.org/2000/svg" xmlns:ev="http://www.w3.org/2001/xml-events" xmlns:xlink="http://www.w3.org/1999/xlink"><defs /><rect fill="#1a1a1a" height="200" width="200" x="0" y="0" /><text alignment-baseline="middle" fill="#e1ed5e" style="dominant-baseline: central; font-size:9.0px; font-family:Arial;" text-anchor="middle" x="100.0" y="100.0">2017</text><line stroke="#e1ed5e" stroke-width="0.3" x1="100.0" x2="100.0" y1="15.0" y2="10.0" /><path d="M 100.0 14.0 a86.0,86.0 0 0,1 42.46469731375804,11.215312516191453" fill="none" id="id1" stroke="none" /><text fill="#e1ed5e" style="font-size:6.75px; font-family:Arial;" text-anchor="middle"><textPath startOffset="22.20632615414155" xlink:href="#id1">January</textPath></text><line stroke="#e1ed5e" stroke-width="0.3" x1="143.23703022742887" x2="145.7803849466894" y1="26.81831364943548" y2="22.513508569990506" /><path d="M 143.74570117128098 25.957352633546492 a86.0,86.0 0 0,1 28.547481713284135,27.462654790039103" fill="none" id="id2" stroke="none" /><text fill="#e1ed5e" style="font-size:6.75px; font-family:Arial;" text-anchor="middle"><textPath startOffset="19.985693538727396" xlink:href="#id2">February</textPath></text><line stroke="#e1ed5e" stroke-width="0.3" x1="172.23445277983987" x2="176.4835382374775" y1="55.19839476539836" y2="52.563006222186495" /><path d="M 173.08426987136738 54.67131705675599 a86.0,86.0 0 0,1 12.851231095245387,41.99856678651699" fill="none" id="id3" stroke="none" /><text fill="#e1ed5e" style="font-size:6.75px; font-family:Arial;" text-anchor="middle"><textPath startOffset="22.20632615414155" xlink:href="#id3">March</textPath></text><path d="M 119.196687751892 91.48605970444005 l 21.946979699807414 -9.733724757470734 a45.00865084918262,45.00865084918262 0 0,0 0.30800767926069805,0.7109241898893716 l -22.111278088910794 9.35450142299476" fill="#ffe515" stroke="none" /><path d="M 119.85752413597 93.16781622104841 l 23.829618419597853 -8.198823343242005 a46.200623370014625,46.200623370014625 0 0,0 0.25226135738271815,0.7542293501427113 l -23.96721707075234 7.787420890176978" fill="#fff617" stroke="none" /><path d="M 120.28053869075195 94.5502522615342 l 27.36494542760369 -7.353456026556548 a49.335729279307934,49.335729279307934 0 0,0 0.21332691373404136,0.8220356201420992 l -27.487468673208035 6.881323980865598" fill="#ddff1b" stroke="none" /><path d="M 120.87857604477298 97.74499172005257 l 31.150748691612932 -3.3644629823179346 a52.33191272819795,52.33191272819795 0 0,0 0.08902125434276156,0.8964318825415635 l -31.204047071637923 2.8277555690719365" fill="#b5ff20" stroke="none" /><line stroke="#e1ed5e" stroke-width="0.3" x1="184.98032266829074" x2="189.97916517819016" y1="98.17113171792111" y2="98.06355123074" /><path d="M 185.9800911702706 98.14961562048488 a86.0,86.0 0 0,1 -9.607161424134198,41.387399972396054" fill="none" id="id4" stroke="none" /><text fill="#e1ed5e" style="font-size:6.75px; font-family:Arial;" text-anchor="middle"><textPath startOffset="21.466115282336823" xlink:href="#id4">April</textPath></text><path d="M 120.99980553446 99.90962569577887 l 28.740653640318126 -0.12368764898046146 a49.74091978881751,49.74091978881751 0 0,0 -0.0036848611303846,0.8562319547184908 l -28.738524481898235 -0.371053783941714" fill="#d7ff1c" stroke="none" /><path d="M 120.99824983174949 100.27111621757518 l 30.791912269444165 0.39756583778597226 a51.79447872272756,51.79447872272756 0 0,0 -0.01918353375086143,0.8913834331540926 l -30.780506673008293 -0.9275390867301797" fill="#bcff1f" stroke="none" /><path d="M 118.97047184881838 109.00673069616215 l 8.459342990320787 4.016295682441453 a30.364353412632784,30.364353412632784 0 0,0 -0.22823401434209387,0.47022967022674567 l -8.388955719363977 -4.161314308633474" fill="#ff0000" stroke="none" /><path d="M 118.81262510543309 109.33194174019688 l 19.80186052857144 9.822648767224171 a43.10425545448763,43.10425545448763 0 0,0 -0.335435941154516,0.6618469347138429 l -19.629845917630654 -10.16204991364071" fill="#ffc912" stroke="none" /><line stroke="#e1ed5e" stroke-width="0.3" x1="174.80103733775053" x2="179.2010983576182" y1="140.37084112569926" y2="142.7455964860345" /><path d="M 175.68104954172406 140.8457921977663 a86.0,86.0 0 0,1 -30.038265399797805,32.042727171017184" fill="none" id="id5" stroke="none" /><text fill="#e1ed5e" style="font-size:6.75px; font-family:Arial;" text-anchor="middle"><textPath startOffset="22.206326154141568" xlink:href="#id5">May</textPath></text><path d="M 117.75023020441432 111.22182372390056 l 29.097084527355783 18.39538697161333 a55.424273265059476,55.424273265059476 0 0,0 -0.5167525312457151,0.802011404062022 l -28.776127132733016 -18.893519975596803" fill="#8dff24" stroke="none" /><path d="M 116.93607887273984 112.41649034213515 l 24.94285856498758 18.286568266749505 a51.92805801157687,51.92805801157687 0 0,0 -0.5347074994003409,0.7163280760974738 l -24.62438979889215 -18.713209222356294" fill="#baff1f" stroke="none" /><path d="M 116.71984013943494 112.70617746262583 l 24.019947175697347 18.25386540254464 a51.16888238661663,51.16888238661663 0 0,0 -0.5389622835471453,0.6966814043316419 l -23.70217807493213 -18.664624800989536" fill="#c4ff1e" stroke="none" /><path d="M 116.498646956653 112.99209946851258 l 8.31106703127795 6.544670592899555 a31.57858914827301,31.57858914827301 0 0,0 -0.3399692080477854,0.42416385969503445 l -8.197179911175311 -6.68676228617284" fill="#ff1402" stroke="none" /><path d="M 116.27256486870786 113.27417163493432 l 21.555981653783515 17.58406265640771 a48.81833216716494,48.81833216716494 0 0,0 -0.5367784845678137,0.6465842637513161 l -21.25010716932216 -17.952508177272794" fill="#e4ff1a" stroke="none" /><path d="M 115.80600337817218 113.82643327865902 l 18.076547509951677 15.812610694491669 a45.016665606513584,45.016665606513584 0 0,0 -0.5152074855650266,0.5788410717093624 l -17.801681174738313 -16.121425935941897" fill="#ffe515" stroke="none" /><path d="M 115.56566222782051 114.09645910891815 l 21.0192381804212 19.03528595020823 a49.357547229819986,49.357547229819986 0 0,0 -0.5757289755459623,0.6248400951014998 l -20.688462796879517 -19.394277300111064" fill="#dcff1b" stroke="none" /><path d="M 114.81725581225074 114.88116024355365 l 21.412337423063608 21.50468537623559 a51.346988105082374,51.346988105082374 0 0,0 -0.6316903248717886,0.6182419360764762 l -21.038997145816026 -21.870077415234636" fill="#c2ff1e" stroke="none" /><path d="M 114.0293411484842 115.62618273729858 l 20.113392513112142 22.4027303599258 a51.106990649449784,51.106990649449784 0 0,0 -0.659663839784042,0.5820766408099244 l -19.72478632042151 -22.745630142508013" fill="#c5ff1e" stroke="none" /><path d="M 113.75828350139079 115.86535959552629 l 23.543663179754184 27.149366598310962 a56.9359455505375,56.9359455505375 0 0,0 -0.7459544878420153,0.6357185976759704 l -23.07284321533512 -27.55060958620988" fill="#7aff26" stroke="none" /><path d="M 113.48314897796784 116.09983520530334 l 19.755158931270984 23.58905948215489 a51.768653393550025,51.768653393550025 0 0,0 -0.688103693674098,0.5662624940328256 l -19.346185109052197 -23.925617095044895" fill="#bcff1f" stroke="none" /><path d="M 113.20401910651253 116.32954008644616 l 19.389019850762786 23.978591240735938 a51.83677883086318,51.83677883086318 0 0,0 -0.6986672309401739,0.5550635031561021 l -18.973395127105263 -24.308788657897168" fill="#bbff1f" stroke="none" /><path d="M 112.92097659922987 116.55440617244103 l 24.89485873662447 31.895391185538333 a61.460721328159785,61.460721328159785 0 0,0 -0.8395864416722022,0.6437590816717398 l -24.342143566458777 -32.319189609037444" fill="#45ff2d" stroke="none" /><path d="M 112.63410532772338 116.77436683061366 l 24.690925559476522 32.782269260744485 a62.04045544176579,62.04045544176579 0 0,0 -0.8585661330216433,0.6351466997920621 l -24.122974456036314 -33.202425909276315" fill="#3eff2d" stroke="none" /><path d="M 112.34349029814194 116.9893568818739 l 20.39058857850939 28.06523746722632 a55.69054131416576,55.69054131416576 0 0,0 -0.7803906860029357,0.5567880338052703 l -19.90447056465757 -28.41206976287581" fill="#8aff24" stroke="none" /><path d="M 112.04921762599082 117.19931262002967 l 22.50040594403744 32.117563805496545 a60.21487182749189,60.21487182749189 0 0,0 -0.8540278579587601,0.5874081481458104 l -21.944221201455797 -32.50011274300745" fill="#53ff2b" stroke="none" /><path d="M 111.7513745106137 117.40417183066458 l 23.392618038599263 34.64523605686902 a62.803193181095345,62.803193181095345 0 0,0 -0.9011519573993231,0.5972343790499504 l -22.792791382459978 -35.04276845701028" fill="#35ff2f" stroke="none" /><path d="M 111.1453310114006 117.79835938074945 l 21.085454801925877 33.6720822277368 a60.72915208956174,60.72915208956174 0 0,0 -0.890754381621872,0.547174094051361 l -20.502721220371697 -34.03004478861654" fill="#4dff2c" stroke="none" /><line stroke="#e1ed5e" stroke-width="0.3" x1="143.8653032363475" x2="146.44561519142675" y1="172.8068346515853" y2="177.08958963109032" /><path d="M 144.38136562736335 173.6633856474863 a86.0,86.0 0 0,1 -40.68145358897372,12.25698825130547" fill="none" id="id6" stroke="none" /><text fill="#e1ed5e" style="font-size:6.75px; font-family:Arial;" text-anchor="middle"><textPath startOffset="21.466115282336833" xlink:href="#id6">June</textPath></text><path d="M 110.8373102113329 117.98757091392108 l 22.630752301243437 37.562112176904456 a64.85274473633993,64.85274473633993 0 0,0 -0.9611551339973315,0.5678673948946289 l -21.980829296217724 -37.946098144092836" fill="#32ff44" stroke="none" /><path d="M 110.5260780823613 118.17145234162733 l 22.208924451321792 38.339864959035545 a65.30780484701991,65.30780484701991 0 0,0 -0.9775994753966857,0.5551064959092987 l -21.545676209003908 -38.716474620739476" fill="#32ff4b" stroke="none" /><path d="M 110.21172684928248 118.3499491758327 l 14.36371196604438 25.810853388791326 a50.538388143247886,50.538388143247886 0 0,0 -0.7637967391235637,0.41648288158010577 l -13.917292415052168 -26.0542769221312" fill="#ccff1d" stroke="none" /><path d="M 109.89434966115114 118.52300852407294 l 29.0643767795916 54.41082206231714 a82.68691559061128,82.68691559061128 0 0,0 -1.2612081574141207,0.6598044995803757 l -28.123477719650985 -54.903055980842225" fill="#4be0ff" stroke="none" /><path d="M 109.57404056367764 118.69057910512821 l 19.996819833475243 39.03807806774091 a64.86165002226322,64.86165002226322 0 0,0 -0.9980851783782262,0.500460628347263 l -19.321880747414255 -39.37650653699748" fill="#32ff44" stroke="none" /><path d="M 109.2508944713604 118.85261126421891 l 19.274805398663617 39.280570597735505 a64.75478659118377,64.75478659118377 0 0,0 -1.0048935541150088,0.4824099732559206 l -18.595799176548375 -39.606534847490984" fill="#31ff43" stroke="none" /><path d="M 108.59647513512805 119.15986991738527 l 18.015359697342955 40.15273037963076 a65.00903250429361,65.00903250429361 0 0,0 -1.024911743936842,0.44929118916218946 l -17.32152727874836 -40.456886122087404" fill="#32ff46" stroke="none" /><path d="M 108.2653958097858 119.30500536409082 l 17.984329198740937 42.00495410518838 a66.69302207238725,66.69302207238725 0 0,0 -1.0592393482622349,0.44276213348046894 l -17.258618390981244 -42.30830128168883" fill="#34ff5d" stroke="none" /><path d="M 107.93186726928326 119.44442032107085 l 16.587748884436476 40.66371139850176 a64.9168627949876,64.9168627949876 0 0,0 -1.0382955248722971,0.4131592173242073 l -15.885332283522311 -40.943217460232034" fill="#32ff45" stroke="none" /><path d="M 107.59598834532513 119.57807347666477 l 15.8639115416287 40.8880071518887 a64.85764264359773,64.85764264359773 0 0,0 -1.0443000185280327,0.3948649098067985 l -15.157741302340392 -41.15502031180213" fill="#32ff44" stroke="none" /><path d="M 107.2578585660854 119.70592522655815 l 11.954237670887778 32.45713753417432 a55.58857579034413,55.58857579034413 0 0,0 -0.900747856852647,0.3229761343936395 l -11.393770253405396 -32.65810120960792" fill="#8bff24" stroke="none" /><path d="M 106.57524785965236 119.94407469862006 l 10.739864276409897 32.576210046184435 a55.300935055021945,55.300935055021945 0 0,0 -0.9066157874264866,0.2902697451510244 l -10.177527143892469 -32.75625263799517" fill="#8fff24" stroke="none" /><path d="M 105.88484417918355 120.15858648285463 l 9.88206622358584 33.85110642387298 a56.264041727625475,56.264041727625475 0 0,0 -0.9320241177858474,0.2633993254235608 l -9.297910937695388 -34.016194542635056" fill="#83ff25" stroke="none" /><path d="M 105.53697534728816 120.25689768951611 l 11.56116413925214 42.29625462487096 a64.84784682908213,64.84784682908213 0 0,0 -1.0792829633266827,0.28504844006478247 l -10.83139073311396 -42.48899441423933" fill="#32ff44" stroke="none" /><path d="M 104.83641907484287 120.43548508189849 l 8.098230620601235 34.217727718817855 a56.162966732396164,56.162966732396164 0 0,0 -0.9426816249280313,0.21455126872574593 l -7.508028846280341 -34.35205572112129" fill="#84ff25" stroke="none" /><path d="M 104.48393922423573 120.51570834832081 l 6.603882332647158 30.215245374185532 a51.92850327587304,51.92850327587304 0 0,0 -0.8748927549617331,0.1833422832251524 l -6.082798116256048 -30.324443638137225" fill="#baff1f" stroke="none" /><path d="M 104.13013068566511 120.58985236759428 l 6.919280280441384 34.49454032018163 a56.18166783283506,56.18166783283506 0 0,0 -0.949824359430075,0.18203609908580212 l -6.324488306439605 -34.6085336176159" fill="#84ff25" stroke="none" /><path d="M 103.7750983002368 120.6578951692458 l 5.215643730115357 28.540772411170973 a50.0134215380701,50.0134215380701 0 0,0 -0.848206262904076,0.1474715311745441 l -4.7235884957392305 -28.626322520866523" fill="#d4ff1c" stroke="none" /><path d="M 103.41894727170886 120.7198165907248 l 5.604078149963429 33.96234635970086 a55.421601679282496,55.421601679282496 0 0,0 -0.9426004048196995,0.14721479767642204 l -5.0186418815352125 -34.053779464724386" fill="#8dff24" stroke="none" /><path d="M 103.06178313531738 120.77559828337769 l 4.240845224320075 28.776073571690688 a50.08689014693722,50.08689014693722 0 0,0 -0.854032538951632,0.11836112793647821 l -3.7448840941816126 -28.844809265119768" fill="#d3ff1c" stroke="none" /><path d="M 102.70371172650421 120.8252237178851 l 3.862404375744143 29.750004198047368 a50.99968195407417,50.99968195407417 0 0,0 -0.8715422517342197,0.10553162926140737 l -3.349734700958543 -29.812081356034124" fill="#c6ff1e" stroke="none" /><path d="M 101.98527174616119 120.90594882070398 l 3.2683761578077233 34.4177087162301 a55.57254627568221,55.57254627568221 0 0,0 -0.9530842056551463,0.08223611563311445 l -2.6754476344110354 -34.468869084141886" fill="#8bff24" stroke="none" /><path d="M 101.62511606390274 120.93702456842531 l 3.1578861987666142 40.68431935199005 a61.8066916862795,61.8066916862795 0 0,0 -1.061418793101318,0.07320165439092027 l -2.457104644886366 -40.732649350897255" fill="#41ff2d" stroke="none" /><path d="M 101.26447882468166 120.96189622390904 l 1.9172151108742241 31.782631237951595 a52.84040455441766,52.84040455441766 0 0,0 -0.908381738762071,0.046952959988040985 l -1.3698453036986735 -31.810924004701835" fill="#aeff20" stroke="none" /><path d="M 100.90346689309514 120.98055641714683 l 1.0397637135767053 24.145678629643914 a45.16805546720947,45.16805546720947 0 0,0 -0.7770618664158684,0.0267635818514221 l -0.6239814954861845 -24.159999009921428" fill="#ffe715" stroke="none" /><line stroke="#e1ed5e" stroke-width="0.3" x1="102.19456741930631" x2="102.32365962044197" y1="184.97166512339345" y2="189.96999836594603" /><path d="M 102.22038585953345 185.97133177190398 a86.0,86.0 0 0,1 -42.740103519485714,-10.115201625700543" fill="none" id="id7" stroke="none" /><text fill="#e1ed5e" style="font-size:6.75px; font-family:Arial;" text-anchor="middle"><textPath startOffset="22.20632615414155" xlink:href="#id7">July</textPath></text><path d="M 100.54218724476979 120.99299961872073 l 1.1293354613669684 43.7268473919019 a64.74142866229884,64.74142866229884 0 0,0 -1.1142934310710957,0.019183571944324695 l -0.3764823404032048 -43.73980844112538" fill="#31ff43" stroke="none" /><path d="M 99.81925306533755 120.99922214144158 l -0.29495210933201876 34.267606676245535 a55.26887602569811,55.26887602569811 0 0,0 -0.9512571280958103,-0.016376754134534023 l 0.884768927320497 -34.25745244483184" fill="#8fff24" stroke="none" /><path d="M 99.45781275523022 120.99299961872073 l -0.7900876274048021 30.591478167118716 a51.60167928248839,51.60167928248839 0 0,0 -0.8877445973416792,-0.030575718898288726 l 1.3165525764211243 -30.573345649794334" fill="#beff1e" stroke="none" /><path d="M 99.09653310690486 120.98055641714683 l -1.3633513301015818 31.66011916562432 a52.689459958017935,52.689459958017935 0 0,0 -0.9057868435092469,-0.04681883354342097 l 1.9081262420243177 -31.631960525318696" fill="#b0ff20" stroke="none" /><path d="M 98.73552117531835 120.96189622390904 l -1.9372427953310263 32.1146401533993 a53.173016983652445,53.173016983652445 0 0,0 -0.9131509545733086,-0.06297623616414864 l 2.489756510683265 -32.07653557271887" fill="#aaff21" stroke="none" /><path d="M 98.37488393609728 120.93702456842531 l -2.6566683316773654 34.226927765951956 a55.32987723427263,55.32987723427263 0 0,0 -0.9489223659326762,-0.08187701458975147 l 3.245435015351583 -34.17612649908354" fill="#8eff24" stroke="none" /><path d="M 98.01472825383883 120.90594882070398 l -2.8983292159146288 30.520921063137454 a51.65822784810126,51.65822784810126 0 0,0 -0.8845054691094476,-0.09168260839785439 l 3.4232672816296694 -30.46650908628384" fill="#beff1f" stroke="none" /><path d="M 97.65516085044442 120.86867818915974 l -3.40477227148115 30.301906574010083 a51.492589529928125,51.492589529928125 0 0,0 -0.8799656332553503,-0.10655158345646083 l 3.925865327787889 -30.238809461828275" fill="#c0ff1e" stroke="none" /><path d="M 97.2962882734958 120.8252237178851 l -4.422947455314082 34.06756324886009 a55.35347624196934,55.35347624196934 0 0,0 -0.9438332009842019,-0.13080668142869045 l 5.008709247485115 -33.98638200193879" fill="#8eff24" stroke="none" /><path d="M 96.93821686468263 120.77559828337769 l -5.038052715397747 34.185490846246545 a55.55473570383563,55.55473570383563 0 0,0 -0.9448647238151207,-0.1475684377354347 l 5.625753302821384 -34.09370410116401" fill="#8cff24" stroke="none" /><path d="M 96.58105272829116 120.7198165907248 l -5.58160558345513 33.82615605918722 a55.28356974747154,55.28356974747154 0 0,0 -0.9375857250599359,-0.16301129634269224 l 6.163040279987116 -33.72506618432352" fill="#8fff24" stroke="none" /><path d="M 96.22490169976321 120.6578951692458 l -5.570957458138386 30.485101581416334 a51.98994974874371,51.98994974874371 0 0,0 -0.8789578989330563,-0.16845437326794654 l 6.094882971643137 -30.384690009799918" fill="#b9ff1f" stroke="none" /><path d="M 95.86986931433489 120.58985236759428 l -6.06580926158142 30.239749463480962 a51.84212200241715,51.84212200241715 0 0,0 -0.8734374010511735,-0.18303729966305812 l 6.585438124061981 -30.130856183091364" fill="#bbff1f" stroke="none" /><path d="M 95.51606077576429 120.51570834832081 l -5.123782130308405 23.44323028679375 a44.99662871318618,44.99662871318618 0 0,0 -0.7552573793642234,-0.1718941206363736 l 5.526559659065492 -23.35155943257969" fill="#ffe515" stroke="none" /><path d="M 95.16358092515715 120.4354850818985 l -5.497436341692648 23.22850369475005 a44.8701736530755,44.8701736530755 0 0,0 -0.7500727178054234,-0.18434962485801523 l 5.896462344241281 -23.130432811578004" fill="#ffe315" stroke="none" /><path d="M 94.46302465271185 120.25689768951611 l -8.124841843912046 29.724548088557814 a51.81496088035112,51.81496088035112 0 0,0 -0.8583242817215653,-0.24257101558403002 l 8.635297293738224 -29.580288279635262" fill="#bcff1f" stroke="none" /><path d="M 94.11515582081647 120.15858648285463 l -9.076757309130615 31.092513519258265 a53.39030596018065,53.39030596018065 0 0,0 -0.8799867150052677,-0.26513277858999135 l 9.610618998576129 -30.931665371562545" fill="#a7ff21" stroke="none" /><path d="M 93.76903079525671 120.05430185196036 l -9.290899186955182 29.902650879656942 a52.312766363462885,52.312766363462885 0 0,0 -0.8576270875326143,-0.27458511045716033 l 9.804247619578737 -29.738292922540076" fill="#b5ff20" stroke="none" /><path d="M 93.42475214034765 119.94407469862007 l -10.879697908774894 33.00035411935019 a55.74753514407481,55.74753514407481 0 0,0 -0.9087651711410724,-0.3083024866392744 l 11.446132812853191 -32.80818864581279" fill="#89ff24" stroke="none" /><path d="M 93.08242187328487 119.8279376855182 l -9.854868366216367 28.247128154533886 a50.916862794987594,50.916862794987594 0 0,0 -0.8250482115825859,-0.2958329348641678 l 10.33963613842868 -28.07330767862976" fill="#c7ff1e" stroke="none" /><path d="M 92.7421414339146 119.70592522655815 l -13.603771966201245 36.935813880112384 a60.36136378092997,60.36136378092997 0 0,0 -0.9719035528501954,-0.3674907612067613 l 14.237545739811724 -36.69617486879899" fill="#51ff2b" stroke="none" /><path d="M 92.40401165467489 119.57807347666478 l -8.620318559184874 22.218205514736745 a44.83188092360537,44.83188092360537 0 0,0 -0.7170516154114343,-0.2853296360310154 l 9.001491250638166 -22.066529034299663" fill="#ffe215" stroke="none" /><path d="M 92.06813273071674 119.44442032107085 l -11.65755595779824 28.57768672424034 a51.86393995292921,51.86393995292921 0 0,0 -0.823719247486273,-0.34431471225487237 l 12.147746664781975 -28.372786968965492" fill="#bbff1f" stroke="none" /><path d="M 91.7346041902142 119.30500536409082 l -9.472354250554933 22.12402815616286 a45.06653520768399,45.06653520768399 0 0,0 -0.7105046700987179,-0.3114643675637387 l 9.851779595311394 -21.95769923530467" fill="#ffe615" stroke="none" /><path d="M 91.40352486487194 119.15986991738527 l -12.516043468478214 27.89582485459141 a51.57496342471853,51.57496342471853 0 0,0 -0.8068583858164198,-0.37038911102356015 l 12.994369850062053 -27.676248673233776" fill="#bfff1e" stroke="none" /><path d="M 90.42595943632237 118.69057910512821 l -10.899014860459513 21.2772129032151 a44.90624006106482,44.90624006106482 0 0,0 -0.6849465345184856,-0.3583316542876509 l 11.263652297504494 -21.086451829982735" fill="#ffe315" stroke="none" /><path d="M 90.10565033884886 118.52300852407294 l -14.640859872196751 27.408852678540416 a52.074104700718784,52.074104700718784 0 0,0 -0.7870063297320065,-0.42913860093810036 l 15.110489013797398 -27.15277342584255" fill="#b8ff1f" stroke="none" /><line stroke="#e1ed5e" stroke-width="0.3" x1="58.666819895761336" x2="56.23545636021788" y1="174.27360380694188" y2="178.64263932499728" /><path d="M 58.180547188652646 175.14741091055294 a86.0,86.0 0 0,1 -31.652253787137756,-30.449443065178592" fill="none" id="id8" stroke="none" /><text fill="#e1ed5e" style="font-size:6.75px; font-family:Arial;" text-anchor="middle"><textPath startOffset="22.20632615414155" xlink:href="#id8">August</textPath></text><path d="M 89.7882731507175 118.34994917583269 l -16.61075522541834 29.848674828199158 a55.15934100884168,55.15934100884168 0 0,0 -0.8256860410449048,-0.4688460831872623 l 17.122090033384453 -29.558325579217264" fill="#90ff24" stroke="none" /><path d="M 89.1626897886671 117.98757091392108 l -16.80848132325744 27.898412416140044 a53.57063800012722,53.57063800012722 0 0,0 -0.7857557512826596,-0.4826753594755247 l 17.28621627447241 -27.60494858983614" fill="#a5ff21" stroke="none" /><path d="M 88.8546689885994 117.79835938074946 l -12.694376762937413 20.272083396202518 a44.91870746135742,44.91870746135742 0 0,0 -0.651787980571726,-0.4160019274818355 l 13.041446545556063 -20.050567039896876" fill="#ffe415" stroke="none" /><path d="M 88.54995079064634 117.60387380957326 l -13.083689586974709 20.11551358788716 a44.99618344889002,44.99618344889002 0 0,0 -0.6456423111089872,-0.4278965180038763 l 13.428006596823657 -19.887319048791966" fill="#ffe515" stroke="none" /><path d="M 88.24862548938628 117.40417183066458 l -13.407325891940994 19.856690245239495 a44.959226512308376,44.959226512308376 0 0,0 -0.6376569566367178,-0.438586269241291 l 13.747139733200603 -19.6229631866331" fill="#ffe415" stroke="none" /><path d="M 87.95078237400918 117.19931262002967 l -18.08289598981469 25.811915002135166 a52.515806882513836,52.515806882513836 0 0,0 -0.7359031819756744,-0.5250473808983154 l 18.524526499639254 -25.49682335939263" fill="#b2ff20" stroke="none" /><path d="M 87.65650970185807 116.9893568818739 l -18.414604189242976 25.345528278706773 a52.3287958781248,52.3287958781248 0 0,0 -0.7241683124801024,-0.5357224051535397 l 18.84815747214164 -25.024795924813464" fill="#b5ff20" stroke="none" /><path d="M 87.07902340077011 116.55440617244103 l -19.274755817883054 24.69489316332907 a52.32656955664398,52.32656955664398 0 0,0 -0.7052687354672416,-0.5603081376067056 l 19.696982046067653 -24.359451111717235" fill="#b5ff20" stroke="none" /><path d="M 86.79598089348748 116.32954008644616 l -19.496246687855294 24.1111997230867 a52.00731505629413,52.00731505629413 0 0,0 -0.6912759603047263,-0.5688730535030095 l 19.90839277670471 -23.77203155072651" fill="#b9ff1f" stroke="none" /><path d="M 86.51685102203217 116.09983520530335 l -15.247053504695602 18.20606218867424 a44.74728070733414,44.74728070733414 0 0,0 -0.5862629405659547,-0.4996259966531872 l 15.558181921838612 -17.940911801798105" fill="#ffe115" stroke="none" /><path d="M 86.24171649860922 115.8653595955263 l -15.67866134609225 18.079842605880803 a44.93117486165002,44.93117486165002 0 0,0 -0.5799494542448347,-0.5117379638042556 l 15.987553153243672 -17.807281500304256" fill="#ffe415" stroke="none" /><path d="M 85.97065885151581 115.62618273729859 l -20.699398536107143 23.055436506533926 a51.98416131289359,51.98416131289359 0 0,0 -0.6606950511904288,-0.6035292643339873 l 21.093193136764427 -22.695714475613364" fill="#b9ff1f" stroke="none" /><path d="M 85.70375840098266 115.38237550388516 l -21.58334479517485 23.223104615973007 a52.70415367979136,52.70415367979136 0 0,0 -0.6592139309733596,-0.62332791779427 l 21.979894560539027 -22.848142061432807" fill="#b0ff20" stroke="none" /><path d="M 85.44109423537348 115.13401014063109 l -22.807501505707133 23.7084410497718 a53.89790725780802,53.89790725780802 0 0,0 -0.663072709852368,-0.6489562048964592 l 23.212224167935297 -23.31233474195277" fill="#a0ff22" stroke="none" /><path d="M 85.18274418774928 114.88116024355367 l -22.1858268917098 22.281510780040048 a52.44322880223904,52.44322880223904 0 0,0 -0.6342118860326801,-0.6424532921772854 l 22.566079402798017 -21.8963169938821" fill="#b3ff20" stroke="none" /><path d="M 84.67929136418377 114.36230785411682 l -17.23892385737752 16.160527388042993 a44.629285668850585,44.629285668850585 0 0,0 -0.5205763730080802,-0.5649828378179182 l 17.51454663838133 -15.861393295423733" fill="#ffdf14" stroke="none" /><path d="M 84.19399662182784 113.82643327865904 l -23.333820690058676 20.411454254959086 a52.001526620444,52.001526620444 0 0,0 -0.5835499648505797,-0.6788004440583338 l 23.681713164480033 -20.00677671173922" fill="#b9ff1f" stroke="none" /><path d="M 83.72743513129214 113.27417163493432 l -24.03638936408906 19.607428852017463 a52.019337192290564,52.019337192290564 0 0,0 -0.560030493616918,-0.6987241494120197 l 24.37033776976084 -19.190776869027186" fill="#b9ff1f" stroke="none" /><path d="M 83.50135304334701 112.99209946851258 l -25.157786708535433 19.810864986908193 a53.02162712295656,53.02162712295656 0 0,0 -0.5584772599811214,-0.7219071420178527 l 25.495070785734626 -19.374879850777088" fill="#acff21" stroke="none" /><path d="M 82.85270091963577 112.12312394758628 l -19.608703460366904 13.863334475439883 a45.014439285032765,45.014439285032765 0 0,0 -0.4418683656581837,-0.6365443368306041 l 19.844432733187222 -13.523748876422266" fill="#ffe515" stroke="none" /><path d="M 82.6465618267979 111.8261652097733 l -26.67351087695735 18.177685782331395 a53.278544621843395,53.278544621843395 0 0,0 -0.5099439055822074,-0.7622969487477111 l 26.98245788795029 -17.71585191937786" fill="#a8ff21" stroke="none" /><path d="M 82.44556493220864 111.52570212397912 l -25.91236054851259 17.013258920492294 a51.99840977037084,51.99840977037084 0 0,0 -0.4848112259602915,-0.7524377889356773 l 26.20137663784993 -16.56469953163517" fill="#b9ff1f" stroke="none" /><path d="M 82.24976979558568 111.22182372390057 l -25.581512991630007 16.172817257961654 a51.265059474588135,51.265059474588135 0 0,0 -0.4651336466397296,-0.7499435401605427 l 25.856111277937693 -15.730077386435847" fill="#c3ff1e" stroke="none" /><path d="M 82.05923443525364 110.91462005526583 l -26.385246508956964 16.05198728395879 a51.88442211055276,51.88442211055276 0 0,0 -0.45761843943904185,-0.7669948266632933 l 26.65764582409424 -15.595430363409386" fill="#bbff1f" stroke="none" /><line stroke="#e1ed5e" stroke-width="0.3" x1="26.63291911575756" x2="22.317208475507996" y1="142.92168965132927" y2="145.44649492493687" /><path d="M 25.769776987707644 143.4266507060508 a86.0,86.0 0 0,1 -11.730757126820373,-40.83630448921669" fill="none" id="id9" stroke="none" /><text fill="#e1ed5e" style="font-size:6.75px; font-family:Arial;" text-anchor="middle"><textPath startOffset="21.46611528233685" xlink:href="#id9">September</textPath></text><path d="M 81.87401531095188 110.60418214915194 l -18.14251072304998 10.613850317682646 a42.01914636473507,42.01914636473507 0 0,0 -0.35985998081327136,-0.6274462092359993 l 18.322522700015632 -10.299984262588339" fill="#ffb911" stroke="none" /><path d="M 81.69416730710424 110.29060199501025 l -20.89161937737451 11.744198892806365 a44.96635074104701,44.96635074104701 0 0,0 -0.373485350005518,-0.6779843964133049 l 21.090681136831545 -11.382843977995238" fill="#ffe415" stroke="none" /><path d="M 81.51974371655577 109.97397251340807 l -21.247416342678875 11.467435479921816 a45.14445645951275,45.14445645951275 0 0,0 -0.3631925088755009,-0.6870233541218294 l 21.441661359779264 -11.09999711071386" fill="#ffe715" stroke="none" /><path d="M 81.35079622478065 109.6543875284942 l -21.167239727991586 10.957933523902696 a44.835443037974684,44.835443037974684 0 0,0 -0.34890798771370907,-0.6884285606685291 l 21.352726385491565 -10.591950751531481" fill="#ffe215" stroke="none" /><path d="M 81.02952815118164 109.00673069616217 l -27.92295137597208 13.257155925780328 a51.9102474397303,51.9102474397303 0 0,0 -0.37628844316439763,-0.8104918303846765 l 28.147014435976303 -12.774544028116823" fill="#baff1f" stroke="none" /><path d="M 80.87730276802145 108.67885076344099 l -28.183100351919858 12.790921648665691 a51.949875962088925,51.949875962088925 0 0,0 -0.3625579747308719,-0.8174725205081141 l 28.39909941138201 -12.30390079166488" fill="#baff1f" stroke="none" /><path d="M 80.73074385275274 108.34839909993369 l -27.94313838557094 12.10635582218614 a51.4529610075695,51.4529610075695 0 0,0 -0.34509995584127007,-0.8157143547297957 l 28.147389322604514 -11.623566941790186" fill="#c0ff1e" stroke="none" /><path d="M 80.58989483394504 108.01547362559985 l -27.06541475606806 11.176761603671276 a50.28236117295337,50.28236117295337 0 0,0 -0.32347693063961086,-0.8028432136975069 l 27.25379430096506 -10.709219022130963" fill="#d0ff1d" stroke="none" /><path d="M 80.45479744820244 107.68017299344265 l -22.286992940082722 8.757543485663602 a44.94586858342345,44.94586858342345 0 0,0 -0.2767503769750017,-0.7225079048560817 l 22.434437596651232 -8.372612013974361" fill="#ffe415" stroke="none" /><path d="M 80.32549172779594 107.34259656027581 l -28.85744724122698 10.769702089638901 a51.801602951466194,51.801602951466194 0 0,0 -0.3045829145498208,-0.8380813676845269 l 29.038554416782024 -10.271372924948258" fill="#bcff1f" stroke="none" /><path d="M 80.0844068197444 106.66101706037122 l -30.787818815012532 10.297367721978372 a53.46421983334393,53.46421983334393 0 0,0 -0.2843984594645357,-0.8752884566920088 l 30.960509525493315 -9.76588036530856" fill="#a6ff21" stroke="none" /><path d="M 79.86692584326677 105.97154293290107 l -27.218475103523257 8.073098593064596 a49.390496787736154,49.390496787736154 0 0,0 -0.23473977367949014,-0.8171599471434854 l 27.35340751408885 -7.603381170416515" fill="#dcff1b" stroke="none" /><path d="M 79.76711848015287 105.62410040840567 l -23.33368654975309 6.486026022805865 a45.218370332676045,45.218370332676045 0 0,0 -0.20200106217135028,-0.751721098579211 l 23.441875688266215 -6.083413991051115" fill="#ffe815" stroke="none" /><path d="M 79.67330655649465 105.27499134158121 l -23.02898905427605 5.976265554665923 a44.79180713695058,44.79180713695058 0 0,0 -0.18724827994771948,-0.7479637993337992 l 23.12844864851883 -5.578973915934731" fill="#ffe215" stroke="none" /><path d="M 79.58551787078972 104.9243191809786 l -30.004263346958396 7.237536988467121 a51.86483048152154,51.86483048152154 0 0,0 -0.20187628055558393,-0.8696777330403225 l 30.124400193444536 -6.719990598078224" fill="#bbff1f" stroke="none" /><path d="M 79.50377843672027 104.57218783832718 l -30.68240431716972 6.844467183206652 a52.436549837796576,52.436549837796576 0 0,0 -0.1889362833071737,-0.8826474154836518 l 30.795674639201337 -6.315305948306837" fill="#b3ff20" stroke="none" /><path d="M 79.4281124754447 104.21870165774334 l -30.31674131218733 6.217090516290168 a51.947649640608105,51.947649640608105 0 0,0 -0.172095307964462,-0.8775102676709055 l 30.419266553127457 -5.694316521551308" fill="#baff1f" stroke="none" /><path d="M 79.35854240842038 103.8639653848113 l -30.57770023309166 5.723974420101054 a52.108835315819604,52.108835315819604 0 0,0 -0.15745195173095614,-0.8830741623824341 l 30.671698627161806 -5.196781506985405" fill="#b8ff1f" stroke="none" /><path d="M 79.29508885075956 103.50808413554451 l -33.83035765476364 5.731960892419809 a55.31251192672222,55.31251192672222 0 0,0 -0.1509721974052333,-0.9401040173566191 l 33.924011606530165 -5.148777645369977" fill="#8fff24" stroke="none" /><path d="M 79.23777060512086 103.15116336523772 l -23.7249290498531 3.600823680485902 a44.99662871318618,44.99662871318618 0 0,0 -0.10963310519828191,-0.7667736824109712 l 23.78339620606798 -3.1919045260945302" fill="#ffe515" stroke="none" /><path d="M 79.18660465613746 102.79330883721812 l -18.983292286571924 2.5476957136266747 a40.15348896380638,40.15348896380638 0 0,0 -0.08604030484974416,-0.6858258854635155 l 19.024334100668515 -2.2205520738757505" fill="#ff9d0e" stroke="none" /><path d="M 79.1416061653843 102.43462659150553 l -30.853510783544206 3.6012733478192755 a52.06297309331468,52.06297309331468 0 0,0 -0.09623641869024464,-0.8910297153976628 l 30.9109295037355 -3.0696473105368303" fill="#b8ff1f" stroke="none" /><path d="M 79.10278846688536 102.07522291339032 l -30.837820500852647 3.0623871324160703 a51.98950448444756,51.98950448444756 0 0,0 -0.0807704082457097,-0.8912947245018524 l 30.88596550537543 -2.5311110193656514" fill="#b9ff1f" stroke="none" /><path d="M 79.07016306316243 101.71520430193888 l -36.32444803746509 2.9767957451095817 a57.446218433941866,57.446218433941866 0 0,0 -0.07228222774976382,-0.9862335691481443 l 36.37030682387918 -2.351089039464677" fill="#74ff27" stroke="none" /><path d="M 79.04373962182676 101.35467743843564 l -30.905407508925663 1.9978210578833528 a51.96991285541632,51.96991285541632 0 0,0 -0.05002388489833069,-0.8932100690048709 l 30.935217744711526 -1.4655392725430445" fill="#b9ff1f" stroke="none" /><path d="M 79.0235259727143 100.99374915477108 l -31.63527860002073 1.4987042783656108 a52.67075885757904,52.67075885757904 0 0,0 -0.03510848976737271,-0.9059941198284102 l 31.656389222639305 -0.9539329115232038" fill="#b0ff20" stroke="none" /><path d="M 79.0095281055655 100.63252640178507 l -27.46212237928432 0.8275429700346945 a48.474588130526044,48.474588130526044 0 0,0 -0.01795391942139587,-0.8342480869405263 l 27.472298361390724 -0.35470506730403933" fill="#e8ff1a" stroke="none" /><line stroke="#e1ed5e" stroke-width="0.3" x1="15.007084014347285" x2="10.007500721073583" y1="101.09737516637583" y2="101.16192664675087" /><path d="M 14.007167355692545 101.11028546245083 a86.0,86.0 0 0,1 10.666146001902534,-42.60595125391555" fill="none" id="id10" stroke="none" /><text fill="#e1ed5e" style="font-size:6.75px; font-family:Arial;" text-anchor="middle"><textPath startOffset="22.20632615414155" xlink:href="#id10">October</textPath></text><path d="M 79.00175016825051 100.2711162175752 l -24.320535102926364 0.31401147902053594 a45.3225621779785,45.3225621779785 0 0,0 -0.003357544420330922,-0.7801750786125625 l 24.3223369446362 0.10467307779570198" fill="#ffe915" stroke="none" /><path d="M 79.00019446554 99.90962569577889 l -30.959385081876427 -0.13323613312975663 a51.959671776604544,51.959671776604544 0 0,0 0.01154740087367855,-0.8943589233486268 l 30.95250467388503 0.6661313145388553" fill="#baff1f" stroke="none" /><path d="M 79.03285615573316 98.82574320788736 l -31.21887373949815 -1.7484009650049033 a52.267794669550284,52.267794669550284 0 0,0 0.058040670533171225,-0.8978634837392863 l 31.184152477960563 2.2855235129972016" fill="#b6ff1f" stroke="none" /><path d="M 79.05617556472873 98.46500227214037 l -34.359275873677326 -2.5182320717020414 a55.4514343871255,55.4514343871255 0 0,0 0.07796343920138905,-0.9513514324070164 l 34.31083795065644 3.1092974213168363" fill="#8dff24" stroke="none" /><path d="M 79.08570108090925 98.10471618934814 l -25.36074370126584 -2.298227023963267 a46.4646650976401,46.4646650976401 0 0,0 0.07904054245239682,-0.7959274758688079 l 25.317426033131213 2.7344300305365055" fill="#fffa17" stroke="none" /><path d="M 79.12142395522702 97.74499172005258 l -23.932249847475195 -2.58482290401878 a45.0714331149418,45.0714331149418 0 0,0 0.08994894530807446,-0.7706276325043825 l 23.884210549163534 2.996394274848024" fill="#ffe615" stroke="none" /><path d="M 79.21141760316559 97.0276538004421 l -18.91746452319274 -2.704814244060515 a40.109853062782264,40.109853062782264 0 0,0 0.10360586398435673,-0.6826331945933879 l 18.868102765769084 3.030046551045995" fill="#ff9c0e" stroke="none" /><path d="M 79.26566170972629 96.67025291283419 l -34.27938340452288 -5.504958752148503 a55.718592964824126,55.718592964824126 0 0,0 0.1602258146599108,-0.945661827986145 l 34.179545728342745 6.094206368450475" fill="#89ff24" stroke="none" /><path d="M 79.32604984820605 96.31383870115002 l -31.189114925901464 -5.561013136875839 a52.68099993639082,52.68099993639082 0 0,0 0.16685897973684102,-0.8913673418377367 l 31.088770222254762 6.097058556176148" fill="#b0ff20" stroke="none" /><path d="M 79.46518482838121 95.60439243477599 l -26.767144420533224 -5.72967721067948 a48.37351313529673,48.37351313529673 0 0,0 0.18129842877040553,-0.8127253071283088 l 26.66455160476078 6.189580687357748" fill="#eaff1a" stroke="none" /><path d="M 79.54389044137918 95.25157060432595 l -19.85495679377872 -4.6088851948724825 a41.382863685516185,41.382863685516185 0 0,0 0.16704330818141072,-0.6925023550150682 l 19.772680685336493 4.949972781546947" fill="#ffb010" stroke="none" /><path d="M 79.62865764111835 94.90015583598534 l -23.336574962696552 -5.84217247616529 a45.05673939316837,45.05673939316837 0 0,0 0.19482462908872905,-0.7507387698468062 l 23.232554001737515 6.24300767156096" fill="#ffe615" stroke="none" /><path d="M 79.71946130924805 94.55025226153421 l -29.463821863571724 -7.917462105717137 a51.5090643088862,51.5090643088862 0 0,0 0.2374647076594418,-0.854286898583421 l 29.32317038534592 8.4234603077195" fill="#c0ff1e" stroke="none" /><path d="M 80.02781315780177 93.51064311812611 l -29.596847329221557 -9.616598643662366 a52.119966923223714,52.119966923223714 0 0,0 0.28458173599726383,-0.8508631683847614 l 29.42692829945252 10.12463491496945" fill="#b8ff1f" stroke="none" /><path d="M 80.14247586403 93.16781622104843 l -21.71431190264361 -7.471030554287668 a43.96361554608485,43.96361554608485 0 0,0 0.25236563859726147,-0.713471644236841 l 21.58249318323654 7.84369982495112" fill="#ffd614" stroke="none" /><path d="M 80.38941819471856 92.48833698450439 l -42.897705906903184 -16.431593621751198 a66.93702690668532,66.93702690668532 0 0,0 0.42140508137174254,-1.0724299672415873 l 42.60850727564975 17.167572593888547" fill="#35ff61" stroke="none" /><path d="M 80.803312248108 91.48605970444005 l -27.11827749443006 -12.027251705609933 a50.665733731950894,50.665733731950894 0 0,0 0.3604449156621534,-0.7941925928774343 l 26.907230261804557 12.492266307329437" fill="#cbff1d" stroke="none" /><path d="M 80.95270993114464 91.15688171328213 l -14.328579699190453 -6.6523544663075596 a36.79753196361555,36.79753196361555 0 0,0 0.27167408656213493,-0.5722149118299332 l 14.211947418786567 6.898011793778025" fill="#ff6909" stroke="none" /><path d="M 81.10775173730289 90.83032412892265 l -17.304775458484723 -8.399168789740708 a40.235417594300614,40.235417594300614 0 0,0 0.3077817600553561,-0.6204692471740207 l 17.157633685475954 8.695797625413691" fill="#ff9e0e" stroke="none" /><path d="M 81.43458229118936 90.18545643968196 l -25.995836144268722 -13.742608446872405 a50.404808854398574,50.404808854398574 0 0,0 0.4120998781305378,-0.7635584870512355 l 25.75542816691971 14.188047917256114" fill="#ceff1d" stroke="none" /><path d="M 81.6062741919709 89.86733742301443 l -20.812526297001323 -11.465121778106461 a44.7615291648114,44.7615291648114 0 0,0 0.37757918360058795,-0.6716712362079591 l 20.612089472108305 11.821676524249204" fill="#ffe115" stroke="none" /><line stroke="#e1ed5e" stroke-width="0.3" x1="26.266209847984243" x2="21.928928074336255" y1="57.711370442889674" y2="55.22380399835377" /><path d="M 25.398753493254645 57.213857153982495 a86.0,86.0 0 0,1 29.58750427330803,-30.492523968695096" fill="none" id="id11" stroke="none" /><text fill="#e1ed5e" style="font-size:6.75px; font-family:Arial;" text-anchor="middle"><textPath startOffset="21.46611528233685" xlink:href="#id11">November</textPath></text><path d="M 81.78341655067845 89.55222093294921 l -25.99946741564746 -14.91150589106693 a50.97207556771198,50.97207556771198 0 0,0 0.4430694889073019,-0.757349379627587 l 25.73893825226983 15.35683468304841" fill="#c7ff1e" stroke="none" /><path d="M 81.96595687620814 89.24020034530311 l -29.303838365560157 -17.483790393684696 a55.12327460085237,55.12327460085237 0 0,0 0.4931805925824191,-0.8106592210999596 l 28.99854197469152 17.98561738799173" fill="#91ff24" stroke="none" /><path d="M 82.15384107792192 88.93136811851018 l -15.969706998015038 -9.904809700960419 a39.791934355320905,39.791934355320905 0 0,0 0.366033505211438,-0.5789771021080868 l 15.796845896557636 10.178234450782721" fill="#ff980e" stroke="none" /><path d="M 82.54541684631803 88.32363383020206 l -20.049288377914188 -13.412112479753906 a45.12174798040837,45.12174798040837 0 0,0 0.43741352167009856,-0.6418503690572245 l 19.81545039057535 13.755240872081547" fill="#ffe615" stroke="none" /><path d="M 82.7489923806493 88.02491185347247 l -24.590632301620516 -17.07001677168328 a50.93467336683417,50.93467336683417 0 0,0 0.5061630260033237,-0.7159317043878954 l 24.293156655813316 17.490774976402964" fill="#c7ff1e" stroke="none" /><path d="M 82.95767976084542 87.72973835380427 l -24.48033562839526 -17.625541541988902 a51.165320272247314,51.165320272247314 0 0,0 0.5207591373758749,-0.71031487813981 l 24.173313878505752 18.04431886380021" fill="#c4ff1e" stroke="none" /><path d="M 83.17141714833178 87.43820079747576 l -23.977777898972757 -17.898359828900322 a50.92131543794923,50.92131543794923 0 0,0 0.5303674686531913,-0.6979014197717286 l 23.66613449009546 18.308446024553074" fill="#c7ff1e" stroke="none" /><path d="M 83.39014120810768 87.1503855733568 l -24.290549383932262 -18.791501945050893 a51.710769035048656,51.710769035048656 0 0,0 0.5507096420969653,-0.6993453200233828 l 23.963485661241325 19.20683965902732" fill="#bdff1f" stroke="none" /><path d="M 84.31358615837235 86.03803664274999 l -25.7039932682117 -22.8782828101477 a55.41091533617454,55.41091533617454 0 0,0 0.640276713600413,-0.7070095390081228 l 25.306372913995244 23.317345136425377" fill="#8dff24" stroke="none" /><path d="M 84.80347519578584 85.50635884689758 l -21.53122950177051 -20.535347258947958 a50.75389606259144,50.75389606259144 0 0,0 0.6084080664405646,-0.6270179930458962 l 21.17455717162683 20.902929447543976" fill="#caff1d" stroke="none" /><path d="M 85.05521093208273 85.24692304244772 l -15.587095270675121 -15.387143641032102 a42.90255072832517,42.90255072832517 0 0,0 0.5233379799096509,-0.5210906003076566 l 15.319921490598157 15.653170091989868" fill="#ffc612" stroke="none" /><path d="M 85.31137513191541 84.99185889309783 l -24.22752617757921 -24.75453861813344 a55.63755486292221,55.63755486292221 0 0,0 0.690215015534481,-0.6639862980875235 l 23.797827918432304 25.16790800298328" fill="#8aff24" stroke="none" /><path d="M 85.83668400450813 84.49514656593479 l -42.48994798647562 -46.514560302195655 a84.0,84.0 0 0,0 1.0759560496161145,-0.9660039649228849 l 41.68298094926353 47.23906327588782" fill="#4dd2ff" stroke="none" /><path d="M 86.37877921826538 84.01681056812374 l -22.168888450377782 -26.013053402060716 a55.178042109280575,55.178042109280575 0 0,0 0.7281989759971401,-0.6098457005161669 l 21.717831937421533 26.390800259970696" fill="#90ff24" stroke="none" /><path d="M 86.65592168130627 83.78471172551755 l -21.706231589456685 -26.37670389588755 a55.15978627313785,55.15978627313785 0 0,0 0.7383442122517889,-0.5970230045760826 l 21.248983978640396 26.74643299772777" fill="#90ff24" stroke="none" /><path d="M 86.93701828274178 83.55741782278169 l -15.0037469970926 -18.88545420223302 a45.119966923223714,45.119966923223714 0 0,0 0.612272461209633,-0.4778883676789702 l 14.676441980723542 19.140920959135215" fill="#ffe615" stroke="none" /><path d="M 87.51073957382395 83.11751280151077 l -14.140619076338961 -19.11472836571309 a44.77666815088098,44.77666815088098 0 0,0 0.6235783961332189,-0.4530562243361585 l 13.80949536385196 19.355303824865917" fill="#ffe115" stroke="none" /><path d="M 87.80319425747018 82.90503203632743 l -13.960006165585364 -19.566258839493013 a45.03581197124865,45.03581197124865 0 0,0 0.6349381680120065,-0.4448147629176217 l 13.621136857989699 19.803658445174577" fill="#ffe515" stroke="none" /><path d="M 88.09926311788651 82.69761687909137 l -16.82524933872835 -24.462091133283852 a50.68977800394377,50.68977800394377 0 0,0 0.7231628348360097,-0.488282774210617 l 16.4016818094858 24.748085819793136" fill="#caff1d" stroke="none" /><path d="M 88.39885842347998 82.49532879139004 l -19.522426528466987 -29.4568991612607 a56.33884612938109,56.33884612938109 0 0,0 0.8129775288794168,-0.5287831992243538 l 19.012481973803283 29.78858128464459" fill="#82ff25" stroke="none" /><path d="M 88.70189139769569 82.29822771554957 l -18.62991344682493 -29.18917644741482 a55.62775904840659,55.62775904840659 0 0,0 0.811584760423023,-0.5082143025219702 l 18.124709534029662 29.50553509125972" fill="#8bff24" stroke="none" /><path d="M 89.00827224532344 82.1063720568725 l -15.218472757301788 -24.77442086080788 a50.07531327523694,50.07531327523694 0 0,0 0.738343644573728,-0.4448437844722507 l 14.789767046510411 25.03271125473875" fill="#d3ff1c" stroke="none" /><line stroke="#e1ed5e" stroke-width="0.3" x1="56.762969772571076" x2="54.21961505331055" y1="26.818313649435495" y2="22.513508569990535" /><path d="M 56.25429882871897 25.957352633546506 a86.0,86.0 0 0,1 42.265352541879196,-11.944610805530505" fill="none" id="id12" stroke="none" /><text fill="#e1ed5e" style="font-size:6.75px; font-family:Arial;" text-anchor="middle"><textPath startOffset="22.20632615414155" xlink:href="#id12">December</textPath></text><path d="M 89.3179101791058 81.91981866633112 l -15.603556430698713 -26.410106491086573 a51.67514789135551,51.67514789135551 0 0,0 0.7697216719406583,-0.44587247448419465 l 15.146638026292736 26.674783122960815" fill="#bdff1f" stroke="none" /><path d="M 89.63071344664047 81.73862282372117 l -11.889183038811565 -20.93807077973102 a45.07811207938427,45.07811207938427 0 0,0 0.6780518912375205,-0.3773351433624764 l 11.527007058501997 21.13962132065368" fill="#ffe615" stroke="none" /><path d="M 90.26544431104013 81.39251694778311 l -13.86012656254574 -26.493460857863514 a50.899942751733356,50.899942751733356 0 0,0 0.779834417271549,-0.3994614774595823 l 13.402031657685427 26.728114860635603" fill="#c8ff1d" stroke="none" /><path d="M 90.58718382345135 81.22770947309562 l -10.611297213382063 -21.16246088532224 a44.673812098467025,44.673812098467025 0 0,0 0.6903778875299907,-0.3387654311327186 l 10.245448058841646 21.34198147658979" fill="#ffe015" stroke="none" /><path d="M 90.91171255644093 81.06846463323043 l -12.97041196570441 -27.018270975168928 a50.97029451052732,50.97029451052732 0 0,0 0.794218616205738,-0.37289628961756144 l 12.503415138199063 27.237532247426497" fill="#c7ff1e" stroke="none" /><path d="M 91.23893434514133 80.91482961587045 l -12.359450040929689 -26.9239176120619 a50.62521468099993,50.62521468099993 0 0,0 0.7951000503929595,-0.3567382160011494 l 11.894167872069955 27.132676158579578" fill="#cbff1d" stroke="none" /><path d="M 91.56875222667455 80.76684994638697 l -9.25161535027752 -21.10455190667645 a44.04331785509828,44.04331785509828 0 0,0 0.6969671373358706,-0.298404954976592 l 8.886964455151341 21.260676389615828" fill="#ffd714" stroke="none" /><path d="M 91.90106846888425 80.62456947434976 l -9.15227516938864 -21.895390893827376 a44.73125119267222,44.73125119267222 0 0,0 0.7129653003657802,-0.29083644751177523 l 8.774025999434478 22.04968822752273" fill="#ffe115" stroke="none" /><path d="M 92.57280143429618 80.3572730644239 l -12.386695723003186 -32.759119009492075 a56.02270847910439,56.02270847910439 0 0,0 0.9049472797239592,-0.3332997202865875 l 11.820966117506657 32.96748199758498" fill="#86ff25" stroke="none" /><path d="M 93.94186890950719 79.89281104454417 l -8.54314273259941 -28.355045909683664 a50.61408307359582,50.61408307359582 0 0,0 0.8363610451189121,-0.24415672360014556 l 8.053791469757076 28.49790096220251" fill="#cbff1d" stroke="none" /><path d="M 94.63758080256005 79.69619591428918 l -5.993566261133718 -22.69352519080975 a44.471662108008395,44.471662108008395 0 0,0 0.7418108543733077,-0.1891041038874213 l 5.60204651807541 22.793332290866037" fill="#ffdd14" stroke="none" /><path d="M 94.98787191387505 79.60689891045804 l -8.169164090079615 -33.238294441682896 a55.22746644615483,55.22746644615483 0 0,0 0.9251292630870814,-0.21894820684501307 l 7.59581114003 33.373988560668785" fill="#90ff24" stroke="none" /><path d="M 95.33964822691252 79.52364482259891 l -6.597693690759242 -28.988524030275705 a50.72985179059856,50.72985179059856 0 0,0 0.8531245839268292,-0.18645999056339804 l 6.097726382678892 29.09779751893497" fill="#caff1d" stroke="none" /><path d="M 95.692805502759 79.44645832069477 l -7.093359281538623 -33.848867454854776 a55.584123147382485,55.584123147382485 0 0,0 0.9381371592260775,-0.18818148860457318 l 6.509655712845409 33.96595289953656" fill="#8bff24" stroke="none" /><path d="M 96.04723909329186 79.375362276772 l -5.5462524810194 -28.93912656048888 a50.4658100629731,50.4658100629731 0 0,0 0.8545661083756161,-0.15616649405654667 l 5.047291251540891 29.03030853589616" fill="#cdff1d" stroke="none" /><path d="M 97.11714578562143 79.19881850522333 l -3.2167207987547903 -23.210189686038266 a44.43203358564977,44.43203358564977 0 0,0 0.7584871248999828,-0.09847339753826362 l 2.81671894534695 23.262121406740665" fill="#ffdd14" stroke="none" /><path d="M 97.47563105711357 79.15227682838746 l -2.858896133545209 -23.610445428945162 a44.78290185102729,44.78290185102729 0 0,0 0.7660718789688231,-0.08607710162078508 l 2.4520575510666682 23.656158484036546" fill="#ffe215" stroke="none" /><path d="M 97.83486435360386 79.11191278185805 l -3.5410753786817337 -34.16242833516483 a55.345461484638385,55.345461484638385 0 0,0 0.9484495675198313,-0.09006671475207448 l 2.952500684071666 34.218320594432086" fill="#8eff24" stroke="none" /><path d="M 98.19473922651362 79.07773832637324 l -2.927352658539351 -33.92686487873179 a55.05292284205839,55.05292284205839 0 0,0 0.9448387379312521,-0.07333767058406689 l 2.3429237312457647 33.97222781150432" fill="#92ff23" stroke="none" /><path d="M 99.63851952072746 79.00311137660856 l -0.2603091728162608 -15.120270727397402 a36.12251129063037,36.12251129063037 0 0,0 0.6217896520887929,-0.005351939841527189 l 3.703947009428038e-15 15.12251129063037" fill="#ff5e08" stroke="none" /></svg>