<?xml version="1.0" encoding="utf-8" ?>
<svg baseProfile="full" height="200mm" version="1.1" viewBox="0,0,200,200" width="200mm" xmlns="http://www.w3.org/2000/svg" xmlns:ev="http://www.w3.org/2001/xml-events" xmlns:xlink="http://www.w3.org/1999/xlink"><defs /><rect fill="#1a1a1a" height="200" width="200" x="0" y="0" /><text alignment-baseline="middle" fill="#e1ed5e" style="dominant-baseline: central; font-size:9.0px; font-family:Arial;" text-anchor="middle" x="100.0" y="100.0">2019</text><line stroke="#e1ed5e" stroke-width="0.3" x1="100.0" x2="100.0" y1="15.0" y2="10.0" /><path d="M 100.0 14.0 a86.0,86.0 0 0,1 42.46469731375804,11.215312516191453" fill="none" id="id121" stroke="none" /><text fill="#e1ed5e" style="font-size:6.75px; font-family:Arial;" text-anchor="middle"><textPath startOffset="22.20632615414155" xlink:href="#id121">January</textPath></text><path d="M 100.0 79.0 l 0.0 -2.7255999014001446 a23.725599901400145,23.725599901400145 0 0,0 0.408397201113637,0.003515203645583001 l -0.04691672184110859 2.7251960743631205" fill="#ff0701" stroke="none" /><path d="M 101.08401301168833 79.027996857942 l 0.6531275075659586 -12.635818936808121 a33.65268729341471,33.65268729341471 0 0,0 0.5782460349522376,0.03488137994974389 l -0.8705355913578081 12.622704287478072" fill="#ff940d" stroke="none" /><path d="M 101.44485096284872 79.0497635885617 l 1.285108147833792 -18.63397693164187 a39.678238654664156,39.678238654664156 0 0,0 0.6809726895220639,0.052856586818464855 l -1.6056710267181973 18.609095082634944" fill="#ffe315" stroke="none" /><path d="M 103.59715602781102 79.31037775812273 l 2.1190675560703642 -12.18815833985201 a33.37100040516102,33.37100040516102 0 0,0 0.5650900265596348,0.10326659038922373 l -2.3285527037329 12.149876268112047" fill="#ff900d" stroke="none" /><path d="M 104.307194497241 79.44645832069477 l 3.489809751668393 -16.653055772082695 a38.01478882181429,38.01478882181429 0 0,0 0.6392952029614691,0.1397251699895261 l -3.77594767878339 16.5905171039973" fill="#ffce13" stroke="none" /><path d="M 104.66035177308747 79.52364482259891 l 2.1903252090490626 -9.623710637789673 a30.86981919597831,30.86981919597831 0 0,0 0.5171081514711793,0.12238279235892752 l -2.355657047482765 9.584581933289876" fill="#ff6e0a" stroke="none" /><path d="M 110.36928655335952 81.73862282372117 l 5.514322323107507 -9.711287203381897 a32.167669847810274,32.167669847810274 0 0,0 0.47915010654150425,0.2775546687082229 l -5.68066916211434 9.614928377283624" fill="#ff800b" stroke="none" /><line stroke="#e1ed5e" stroke-width="0.3" x1="143.23703022742887" x2="145.7803849466894" y1="26.81831364943548" y2="22.513508569990506" /><path d="M 143.74570117128098 25.957352633546492 a86.0,86.0 0 0,1 28.547481713284135,27.462654790039103" fill="none" id="id122" stroke="none" /><text fill="#e1ed5e" style="font-size:6.75px; font-family:Arial;" text-anchor="middle"><textPath startOffset="19.985693538727396" xlink:href="#id122">February</textPath></text><path d="M 110.68208982089419 81.91981866633111 l 5.652805581287917 -9.567767325242883 a32.11289262657681,32.11289262657681 0 0,0 0.47349379622229076,0.2852747142656838 l -5.816661443727845 9.469046001518585" fill="#ff7f0b" stroke="none" /><path d="M 110.99172775467656 82.1063720568725 l 2.4117126150876294 -3.9260696046410546 a25.607643679610998,25.607643679610998 0 0,0 0.37360436077658443,0.23395101644376726 l -2.478936128236477 3.883974246874343" fill="#ff2303" stroke="none" /><path d="M 111.2981086023043 82.29822771554956 l 6.525195943951617 -10.223616781988886 a33.12850041068258,33.12850041068258 0 0,0 0.4780489528931351,0.31093633675843113 l -6.700211922629032 10.109781521070927" fill="#ff8d0d" stroke="none" /><path d="M 111.60114157652 82.49532879139004 l 5.170002549165268 -7.80088702253045 a30.35856638041636,30.35856638041636 0 0,0 0.43310876057714875,0.29243696849753853 l -5.303516004148959 7.710738141734241" fill="#ff6709" stroke="none" /><path d="M 111.90073688211348 82.69761687909136 l 5.440232687997848 -7.909509399884563 a30.599816177741246,30.599816177741246 0 0,0 0.4314120335568387,0.3022316992333747 l -5.575575861138338 7.814692857887252" fill="#ff6a09" stroke="none" /><path d="M 112.19680574252982 82.90503203632743 l 7.126871280392155 -9.988978982807978 a33.27077810761233,33.27077810761233 0 0,0 0.4633426136250027,0.33663811383571857 l -7.2977592103709465 9.864821634155584" fill="#ff8f0d" stroke="none" /><path d="M 112.48926042617603 83.11751280151076 l 8.217335572986261 -11.107868511242746 a34.8169948535173,34.8169948535173 0 0,0 0.47874005612036696,0.3605770849476335 l -8.407321782865012 10.964774836789264" fill="#ffa40f" stroke="none" /><path d="M 112.77801427241765 83.33499621200491 l 7.822718349706613 -10.202338810317652 a33.85622960200036,33.85622960200036 0 0,0 0.45942491626750953,0.35858843442406113 l -7.997175821133553 10.066171986670367" fill="#ff970d" stroke="none" /><path d="M 113.06298171725822 83.55741782278167 l 10.805965109092549 -13.601639591646071 a38.37162863752157,38.37162863752157 0 0,0 0.5136254476929885,0.41531605844541736 l -11.038493955350027 13.413617435936523" fill="#ffd213" stroke="none" /><path d="M 113.34407831869373 83.78471172551755 l 11.398596567996544 -13.851202373090066 a38.93833355973287,38.93833355973287 0 0,0 0.5138793175929441,0.4303591501060667 l -11.635333422548605 13.65294206559018" fill="#ffd914" stroke="none" /><path d="M 113.6212207817346 84.01681056812373 l 13.321898266628134 -15.631963316623242 a41.53853087634664,41.53853087634664 0 0,0 0.5402109703539585,0.46846563016365456 l -13.589003035628856 15.400332693039916" fill="#fffa17" stroke="none" /><path d="M 113.89432698308785 84.25364557470407 l 14.797349061504114 -16.769743735042116 a43.3648349912755,43.3648349912755 0 0,0 0.555460197017431,0.4986976492832804 l -15.083820246117535 16.512547076989538" fill="#edff1a" stroke="none" /><path d="M 114.16331599549186 84.49514656593476 l 17.577415998999253 -19.242334132827654 a47.06209845889734,47.06209845889734 0 0,0 0.593412983046986,0.5515126952589697 l -17.906036865841084 18.936916851494043" fill="#c1ff1e" stroke="none" /><path d="M 114.42810811169701 84.74124197986012 l 17.775343656703132 -18.79869941940433 a46.87187550169119,46.87187550169119 0 0,0 0.5814718557858641,0.5593754645664537 l -18.096298756101415 18.489940868075575" fill="#c3ff1e" stroke="none" /><path d="M 114.68862486808459 84.99185889309783 l 19.21207091216618 -19.629984004295725 a48.467070115740555,48.467070115740555 0 0,0 0.591215630211093,0.588676762407258 l -19.547122342544597 19.29637139123835" fill="#b1ff20" stroke="none" /><path d="M 114.94478906791727 85.2469230424477 l 21.024766603987896 -20.755060396876925 a50.54341454250293,50.54341454250293 0 0,0 0.6058849368959981,0.6244176862608714 l -21.378915804587002 20.39007851506594" fill="#99ff23" stroke="none" /><path d="M 115.19652480421416 85.50635884689758 l 45.58957441264248 -43.480923459307235 a84.0,84.0 0 0,0 0.9889307121181483,1.0549223324877808 l -46.331272446731084 42.689731709941405" fill="#4dd2ff" stroke="none" /><path d="M 115.4437574822437 85.77008943001954 l 25.029505040639993 -23.062238496601786 a55.03443795706878,55.03443795706878 0 0,0 0.6359264931145224,0.7022059168944531 l -25.42277517437055 22.627979792437785" fill="#68ff28" stroke="none" /><path d="M 115.68641384162765 86.03803664274999 l 26.267958611384113 -23.380249896801775 a56.16591723311491,56.16591723311491 0 0,0 0.6365688233854524,0.7277082071773019 l -26.666519298347414 22.924626133421526" fill="#5cff2a" stroke="none" /><path d="M 115.9244219780498 86.31012108654704 l 28.31163074429241 -24.338892630828205 a58.335373707733886,58.335373707733886 0 0,0 0.6480487402036662,0.7670853033062969 l -28.72639009798319 23.847948377892802" fill="#46ff2c" stroke="none" /><path d="M 116.15771136456269 86.58626213691792 l 29.863841862115983 -24.792233088253482 a59.813707272917924,59.813707272917924 0 0,0 0.6508343955410484,0.797846013408161 l -30.28617474973344 24.27450290523722" fill="#37ff2e" stroke="none" /><path d="M 116.38621287248628 86.86637796730983 l 31.568712060185916 -25.30246222746651 a61.45736244382841,61.45736244382841 0 0,0 0.6545089680009518,0.8311599229348644 l -31.99957510878083 24.755309910578607" fill="#30ff3a" stroke="none" /><path d="M 116.60985879189232 87.15038557335679 l 33.78895382382294 -26.13959781089217 a63.7196907084267,63.7196907084267 0 0,0 0.6636680685433771,0.8733093839065263 l -34.233897832590436 25.55410365110461" fill="#33ff55" stroke="none" /><path d="M 116.82858285166822 87.43820079747576 l 35.384377056080105 -26.412885945462843 a65.15534716899955,65.15534716899955 0 0,0 0.6631492230795073,0.9045347950183615 l -35.833788891673244 25.79988870677299" fill="#35ff66" stroke="none" /><path d="M 117.04232023915458 87.72973835380427 l 37.46178140924233 -26.972023361462035 a67.16140282275992,67.16140282275992 0 0,0 0.6674160573989463,0.9440126816104872 l -37.920510086445155 26.323184179519757" fill="#38ff7e" stroke="none" /><path d="M 117.2510076193507 88.02491185347247 l 38.856589223583285 -26.972979856775183 a68.3009108627338,68.3009108627338 0 0,0 0.6621140201996785,0.9715706240641719 l -39.3151277094517 26.300131209440604" fill="#39ff8b" stroke="none" /><path d="M 117.45458315368197 88.32363383020206 l 40.88755094091271 -27.35201478997531 a70.19272847704994,70.19272847704994 0 0,0 0.6631654049168718,1.0100464088516383 l -41.35231298118751 26.644150317145996" fill="#3cffa0" stroke="none" /><path d="M 117.65298651832404 88.62581576622439 l 41.88183964874696 -26.98533529835394 a70.82265361788691,70.82265361788691 0 0,0 0.6514753447432038,1.0304775432413016 l -42.34014258973612 26.26041010739843" fill="#3cffa7" stroke="none" /><line stroke="#e1ed5e" stroke-width="0.3" x1="172.23445277983987" x2="176.4835382374775" y1="55.19839476539836" y2="52.563006222186495" /><path d="M 173.08426987136738 54.67131705675599 a86.0,86.0 0 0,1 12.851231095245387,41.99856678651699" fill="none" id="id123" stroke="none" /><text fill="#e1ed5e" style="font-size:6.75px; font-family:Arial;" text-anchor="middle"><textPath startOffset="22.20632615414155" xlink:href="#id123">March</textPath></text><path d="M 117.84615892207809 88.93136811851018 l 9.323913566097737 -5.782923227826294 a31.971671032572672,31.971671032572672 0 0,0 0.2860462804481131,0.4701848742514318 l -9.422075644832073 5.621570580367782" fill="#ff7d0b" stroke="none" /><path d="M 118.21658344932153 89.55222093294921 l 13.875647082740945 -7.958116599424388 a36.99578700079528,36.99578700079528 0 0,0 0.3120724272173154,0.5551420260424089 l -14.010577151250693 7.7180910634471855" fill="#ffc011" stroke="none" /><path d="M 119.04729006885535 91.15688171328212 l 11.296650218183869 -5.244715324959644 a33.45477197671078,33.45477197671078 0 0,0 0.23800311523048281,0.5244083159019289 l -11.385255650377697 5.049485000215652" fill="#ff910d" stroke="none" /><path d="M 119.47837535516314 92.15188598940014 l 8.31407353388033 -3.3498582811275313 a29.963557844428074,29.963557844428074 0 0,0 0.18863693407267448,0.4800604216009786 l -8.370504017834705 3.2062488546307684" fill="#ff6109" stroke="none" /><path d="M 119.97218684219823 93.5106431181261 l 12.156083427731646 -3.949750934720434 a33.78166251894866,33.78166251894866 0 0,0 0.17493193086327585,0.5545820252974487 l -12.222270842363129 3.739918742996566" fill="#ff960d" stroke="none" /><path d="M 120.08093135843002 93.85539295169968 l 22.86281087348466 -6.99584029892099 a44.909201210511725,44.909201210511725 0 0,0 0.21982862142212412,0.7411528287738348 l -22.979845392018486 6.601258083400625" fill="#dbff1b" stroke="none" /><path d="M 120.28053869075195 94.5502522615342 l 6.056931054932704 -1.6276069793804318 a27.27180343151283,27.27180343151283 0 0,0 0.11792284705206815,0.4544048334483555 l -6.084050233855075 1.523105720383226" fill="#ff3b05" stroke="none" /><path d="M 120.45610955862082 95.25157060432595 l 12.516235497297025 -2.9053647952084614 a33.84901924728245,33.84901924728245 0 0,0 0.12686227663034255,0.5686987109411761 l -12.564392160929405 2.689487914717321" fill="#ff970d" stroke="none" /><path d="M 120.6074358757038 95.95851677861258 l 12.349578318418155 -2.421971072293456 a33.58483327334018,33.58483327334018 0 0,0 0.10637480346591871,0.5682584536563107 l -12.389438845793933 2.209034541174583" fill="#ff930d" stroke="none" /><path d="M 120.73433829027371 96.67025291283417 l 23.50371474725033 -3.774483883768071 a44.804859493576885,44.804859493576885 0 0,0 0.11573331299079907,0.7625379310548773 l -23.565203953680427 3.3693468403211115" fill="#dcff1b" stroke="none" /><path d="M 120.78858239683441 97.02765380044208 l 5.868920822556292 -0.8391367996832652 a26.928607103697924,26.928607103697924 0 0,0 0.06165881758787476,0.4594298094762928 l -5.882495639202003 0.737988648142308" fill="#ff3605" stroke="none" /><path d="M 120.87857604477298 97.74499172005257 l 12.78018309213815 -1.380334493607896 a33.85450906035768,33.85450906035768 0 0,0 0.05758954153585752,0.5799188240475744 l -12.802049759356237 1.1601401388558865" fill="#ff970d" stroke="none" /><path d="M 120.94382443527127 98.46500227214037 l 11.540496299023703 -0.8458166583721388 a32.57145023959225,32.57145023959225 0 0,0 0.036168903319827625,0.5595169256222003 l -11.553345793347946 0.6470406684969032" fill="#ff850c" stroke="none" /><path d="M 120.98425023603335 99.18683210126433 l 15.654582532756901 -0.6066361123490079 a36.6663321057516,36.6663321057516 0 0,0 0.019011153674200695,0.6308876368684404 l -15.662705380886747 0.33707832805556837" fill="#ffbc11" stroke="none" /><line stroke="#e1ed5e" stroke-width="0.3" x1="184.98032266829074" x2="189.97916517819016" y1="98.17113171792111" y2="98.06355123074" /><path d="M 185.9800911702706 98.14961562048488 a86.0,86.0 0 0,1 -9.607161424134198,41.387399972396054" fill="none" id="id124" stroke="none" /><text fill="#e1ed5e" style="font-size:6.75px; font-family:Arial;" text-anchor="middle"><textPath startOffset="21.466115282336823" xlink:href="#id124">April</textPath></text><path d="M 120.99513854157772 99.54816195383933 l 9.757188405320004 -0.2099852275968841 a30.759447698139482,30.759447698139482 0 0,0 0.00683591064143894,0.5294488126172849 l -9.759357323079158 0.04200015691913643" fill="#ff6c0a" stroke="none" /><path d="M 120.89721153311464 102.0752229133903 l 4.534052335866755 0.45025956132909484 a25.556354272545875,25.556354272545875 0 0,0 -0.047239945470666206,0.4373832249889673 l -4.525630088895037 -0.5282391082028535" fill="#ff2203" stroke="none" /><path d="M 120.81339534386255 102.79330883721812 l 9.05803392186705 1.2156539470737386 a30.139244665109373,30.139244665109373 0 0,0 -0.07343347880634078,0.5135935797380801 l -9.03576639204411 -1.3713929987922282" fill="#ff6409" stroke="none" /><path d="M 120.70491114924044 103.5080841355445 l 12.656060497872334 2.1443475285189098 a33.836436173988076,33.836436173988076 0 0,0 -0.1022401073239292,0.5734168179206952 l -12.617273948209215 -2.3618830971728233" fill="#ff960d" stroke="none" /><path d="M 120.49622156327973 104.57218783832717 l 5.342415284380384 1.1917575205324096 a26.473726980634556,26.473726980634556 0 0,0 -0.10304511719552967,0.44391566793706516 l -5.321109601254301 -1.2835418458180397" fill="#ff3004" stroke="none" /><path d="M 120.32669344350535 105.2749913415812 l 12.678304800574363 3.2901538184178016 a34.09826418901055,34.09826418901055 0 0,0 -0.15232494080844616,0.5668577710170998 l -12.61979178342414 -3.5079025226104497" fill="#ff9a0e" stroke="none" /><path d="M 120.02730092923936 106.31721596034902 l 26.169080656193756 8.25451889763194 a48.440077708012,48.440077708012 0 0,0 -0.2576729543504807,0.7930358095797907 l -26.023115450827028 -8.703753607189524" fill="#b1ff20" stroke="none" /><path d="M 119.79798401119884 107.00284435728193 l 12.421156065792292 4.3935494955975845 a34.175294880230744,34.175294880230744 0 0,0 -0.20094379955718011,0.5529110344534992 l -12.343688005229886 -4.606708327057215" fill="#ff9b0e" stroke="none" /><path d="M 119.54520255179757 107.68017299344265 l 16.232096686371417 6.378307426962643 a38.440291524758315,38.440291524758315 0 0,0 -0.24729442343707436,0.613764478502762 l -16.11989964867695 -6.65677127330822" fill="#ffd313" stroke="none" /><path d="M 119.26925614724726 108.34839909993367 l 11.616687961446223 5.032926366252195 a33.660086374181105,33.660086374181105 0 0,0 -0.23491360699293545,0.5296681683879982 l -11.528333269722014 -5.23214287113288" fill="#ff940d" stroke="none" /><path d="M 118.81262510543309 109.33194174019688 l 7.227141279694413 3.585000019524258 a29.067452895223617,29.067452895223617 0 0,0 -0.22620199133630517,0.44631798869500855 l -7.164360618571839 -3.708872219921961" fill="#ff5507" stroke="none" /><line stroke="#e1ed5e" stroke-width="0.3" x1="174.80103733775053" x2="179.2010983576182" y1="140.37084112569926" y2="142.7455964860345" /><path d="M 175.68104954172406 140.8457921977663 a86.0,86.0 0 0,1 -30.038265399797805,32.042727171017184" fill="none" id="id125" stroke="none" /><text fill="#e1ed5e" style="font-size:6.75px; font-family:Arial;" text-anchor="middle"><textPath startOffset="22.206326154141568" xlink:href="#id125">May</textPath></text><path d="M 118.48025628344425 109.97397251340804 l 17.29812132297479 9.335962876419204 a40.65668344696614,40.65668344696614 0 0,0 -0.33768974793396245,0.6130049811179729 l -17.134855165589318 -9.632338375934982" fill="#ffef16" stroke="none" /><path d="M 118.12598468904814 110.60418214915192 l 10.001294188067051 5.851022557775696 a32.58707687071523,32.58707687071523 0 0,0 -0.2874166591213538,0.4817268528627334 l -9.89909665324747 -6.022311504524534" fill="#ff860c" stroke="none" /><path d="M 117.55443506779139 111.5257021239791 l 10.207020482239637 6.70161569981237 a33.210443076024355,33.210443076024355 0 0,0 -0.31786647267690077,0.47516724796260346 l -10.090150904152015 -6.876319861980781" fill="#ff8e0d" stroke="none" /><path d="M 117.14729908036423 112.12312394758627 l 15.489364857163789 10.950966047347604 a39.96955669087975,39.96955669087975 0 0,0 -0.40201800299536833,0.5583678446723813 l -15.298567061792818 -11.215967497471116" fill="#ffe715" stroke="none" /><path d="M 116.71984013943494 112.70617746262583 l 10.076678974479817 7.657732981649076 a33.65623694361636,33.65623694361636 0 0,0 -0.35450143666768247,0.45824089416754477 l -9.943370720594066 -7.830051869929874" fill="#ff940d" stroke="none" /><path d="M 116.0416608686014 113.55231037782055 l 12.141539302598988 10.257411027520021 a36.89438446823422,36.89438446823422 0 0,0 -0.41402085974832925,0.4815997950039158 l -11.96317593327988 -10.464887921685465" fill="#ffbf11" stroke="none" /><path d="M 114.81725581225074 114.88116024355365 l 30.997135310820017 31.13082094931859 a64.93120087655035,64.93120087655035 0 0,0 -0.7988085161311264,0.7818022599404552 l -30.456676842313097 -31.659773312181617" fill="#35ff64" stroke="none" /><path d="M 114.55890576462653 115.13401014063108 l 15.878289677789853 16.505512219428375 a43.90310059178685,43.90310059178685 0 0,0 -0.5491319659332444,0.5192385488790234 l -15.591821877465803 -16.776385405053322" fill="#e7ff1a" stroke="none" /><path d="M 113.75828350139079 115.86535959552629 l 7.533406862645512 8.687145372690898 a32.49863964495015,32.49863964495015 0 0,0 -0.42578560621941136,0.3628637308416382 l -7.382755779849053 -8.815533493755483" fill="#ff840c" stroke="none" /><path d="M 113.20401910651253 116.32954008644616 l 8.176607216202875 10.112090434817269 a34.00427923915754,34.00427923915754 0 0,0 -0.45831697400907023,0.36411472283743374 l -8.001332749476454 -10.251339071659828" fill="#ff990e" stroke="none" /><path d="M 112.34349029814194 116.9893568818739 l 3.950056545640943 5.436786414259009 a27.720237587171468,27.720237587171468 0 0,0 -0.38844325654479694,0.27714394973658113 l -3.8558859612472616 -5.50397462583981" fill="#ff4106" stroke="none" /><path d="M 111.7513745106137 117.40417183066458 l 7.279642659577016 10.781390006648499 a34.00890340215476,34.00890340215476 0 0,0 -0.48798776491322576,0.3234116814249761 l -7.092980195923826 -10.905099709164793" fill="#ff990e" stroke="none" /><path d="M 111.1453310114006 117.79835938074945 l 6.730462300029392 10.74810489629907 a33.68151732380495,33.68151732380495 0 0,0 -0.49402894826534305,0.3034729301135084 l -6.54445415183174 -10.862366293240957" fill="#ff940d" stroke="none" /><line stroke="#e1ed5e" stroke-width="0.3" x1="143.8653032363475" x2="146.44561519142675" y1="172.8068346515853" y2="177.08958963109032" /><path d="M 144.38136562736335 173.6633856474863 a86.0,86.0 0 0,1 -40.68145358897372,12.25698825130547" fill="none" id="id126" stroke="none" /><text fill="#e1ed5e" style="font-size:6.75px; font-family:Arial;" text-anchor="middle"><textPath startOffset="21.466115282336833" xlink:href="#id126">June</textPath></text><path d="M 110.5260780823613 118.17145234162733 l 14.500550239635153 25.032690765276314 a49.92925101350073,49.92925101350073 0 0,0 -0.7473962677521393,0.42439110667405805 l -14.067505204961815 -25.278585037745" fill="#a0ff22" stroke="none" /><path d="M 110.21172684928248 118.3499491758327 l 7.163252581329351 12.87199733610988 a35.73093693438206,35.73093693438206 0 0,0 -0.5400087758825154,0.29445584085128107 l -6.940620993578187 -12.993393828720931" fill="#ffb010" stroke="none" /><path d="M 109.57404056367764 118.69057910512821 l 5.774980242583639 11.273999137214888 a33.667022276294986,33.667022276294986 0 0,0 -0.5180650804067705,0.2597685861706047 l -5.580061254494107 -11.371735564294795" fill="#ff940d" stroke="none" /><path d="M 108.92500713936063 119.00905698771935 l 5.361454443982771 11.419172161024258 a33.615176835780545,33.615176835780545 0 0,0 -0.5258886389757904,0.2414096809448678 l -5.164097809239561 -11.509768912303201" fill="#ff930d" stroke="none" /><path d="M 107.93186726928326 119.44442032107085 l 2.222610715978486 5.448575411613903 a26.884468744995253,26.884468744995253 0 0,0 -0.4299964968216706,0.171104480201668 l -2.128493143114949 -5.48602673622164" fill="#ff3505" stroke="none" /><path d="M 107.2578585660854 119.70592522655815 l 4.415568697567435 11.988779582119339 a33.77607462374805,33.77607462374805 0 0,0 -0.5473017863415167,0.19624294851720492 l -4.208547350596184 -12.063010071676503" fill="#ff960d" stroke="none" /><path d="M 106.91757812671514 119.82793768551818 l 6.376154546461561 18.27604874200497 a40.35637632462502,40.35637632462502 0 0,0 -0.6578670992806978,0.2231842383789168 l -6.060617714243636 -18.38309596728201" fill="#ffeb16" stroke="none" /><path d="M 106.57524785965236 119.94407469862006 l 3.8833684908667747 11.7790527318934 a33.40268656769904,33.40268656769904 0 0,0 -0.5476110477083972,0.17532776448931056 l -3.680036098067437 -11.844153343042416" fill="#ff910d" stroke="none" /><path d="M 105.88484417918355 120.15858648285463 l 1.6939498809932996 5.802640500561613 a27.04484102173706,27.04484102173706 0 0,0 -0.4480027264299196,0.12661004546737573 l -1.5938159864587742 -5.830939339367508" fill="#ff3805" stroke="none" /><path d="M 105.53697534728816 120.25689768951611 l 4.107670449835239 15.02781840726709 a36.57909761848372,36.57909761848372 0 0,0 -0.6087973433805359,0.16078891165974843 l -3.8483826636432052 -15.096298668230421" fill="#ffbb11" stroke="none" /><path d="M 104.83641907484287 120.43548508189849 l 2.921240688531403 12.343217075963983 a33.684189171748436,33.684189171748436 0 0,0 -0.5653808555752601,0.12867884200689775 l -2.708339683563281 -12.391672651548564" fill="#ff940d" stroke="none" /><path d="M 104.48393922423573 120.51570834832081 l 5.163748519255998 23.626091547479945 a45.1838065775432,45.1838065775432 0 0,0 -0.7612579320122961,0.15952900122540944 l -4.756299125814324 -23.711476529431895" fill="#d7ff1c" stroke="none" /><path d="M 104.13013068566511 120.58985236759428 l 2.4739890842352423 12.333524985115645 a33.579207468969855,33.579207468969855 0 0,0 -0.5677002918333337,0.10880111206794063 l -2.261321177830204 -12.374283295532052" fill="#ff930d" stroke="none" /><path d="M 103.41894727170886 120.7198165907248 l 2.5436662742729554 15.415358729590826 a36.62381268694827,36.62381268694827 0 0,0 -0.6228910680808244,0.09728277443240557 l -2.277939342583614 -15.456859811370338" fill="#ffbc11" stroke="none" /><path d="M 103.06178313531738 120.77559828337769 l 1.203768737524399 8.16812119330694 a29.25634683149824,29.25634683149824 0 0,0 -0.49885053936577545,0.06913613921962954 l -1.0629896069717932 -8.187631898019172" fill="#ff5708" stroke="none" /><path d="M 102.34483914955558 120.86867818915974 l 1.4180117496372469 12.62006857793873 a33.699483778248066,33.699483778248066 0 0,0 -0.5770112322798224,0.059809573482391916 l -1.2005679207518216 -12.64260751987688" fill="#ff950d" stroke="none" /><path d="M 101.62511606390274 120.93702456842531 l 0.9892383060455597 12.744755391786576 a33.7830897056471,33.7830897056471 0 0,0 -0.5801638192286813,0.04001149373020419 l -0.769711726037948 -12.759895230033065" fill="#ff960d" stroke="none" /><path d="M 101.26447882468166 120.96189622390904 l 1.4899303165446816 24.69931806420583 a45.744215590415536,45.744215590415536 0 0,0 -0.7863908394860063,0.04064742392517384 l -1.0645514086451957 -24.721305294893206" fill="#d1ff1d" stroke="none" /><path d="M 100.90346689309514 120.98055641714683 l 0.4921476072562353 11.428786952258474 a32.439378500051546,32.439378500051546 0 0,0 -0.5580803455424509,0.01922141550516099 l -0.29534691003913216 -11.435565166189729" fill="#ff840c" stroke="none" /><line stroke="#e1ed5e" stroke-width="0.3" x1="102.19456741930631" x2="102.32365962044197" y1="184.97166512339345" y2="189.96999836594603" /><path d="M 102.22038585953345 185.97133177190398 a86.0,86.0 0 0,1 -42.740103519485714,-10.115201625700543" fill="none" id="id127" stroke="none" /><text fill="#e1ed5e" style="font-size:6.75px; font-family:Arial;" text-anchor="middle"><textPath startOffset="22.20632615414155" xlink:href="#id127">July</textPath></text><path d="M 100.54218724476979 120.99299961872073 l 0.17224942007314878 6.669341716911466 a27.67156569327254,27.67156569327254 0 0,0 -0.4762675850158018,0.008199378392743546 l -0.057422145164679014 -6.6713185725833695" fill="#ff4106" stroke="none" /><path d="M 99.81925306533755 120.99922214144158 l -0.11011589069349882 12.793290543454468 a33.79376443579546,33.79376443579546 0 0,0 -0.5816394617794305,-0.010013450810688737 l 0.3303150423655972 -12.789499615364619" fill="#ff960d" stroke="none" /><path d="M 99.09653310690486 120.98055641714683 l -0.5115690669529809 11.879797425342922 a32.89080694391459,32.89080694391459 0 0,0 -0.5654273212505542,-0.02922613396764562 l 0.7159844566170239 -11.869231484613074" fill="#ff8a0c" stroke="none" /><path d="M 98.37488393609728 120.93702456842531 l -2.475351384122842 31.890948527334206 a52.98687172025359,52.98687172025359 0 0,0 -0.9087391873880639,-0.07840984086292498 l 3.0239348892524474 -31.84361443419262" fill="#7eff26" stroke="none" /><path d="M 98.01472825383883 120.90594882070398 l -0.6833351356505136 7.195876031038142 a28.228248664903813,28.228248664903813 0 0,0 -0.48333133689576624,-0.050099269291847326 l 0.8070990691518731 -7.183047393290534" fill="#ff4906" stroke="none" /><path d="M 97.2962882734958 120.8252237178851 l -1.6316192505832368 12.56747736184781 a33.672950272901375,33.672950272901375 0 0,0 -0.5741581306244561,-0.07957308516374471 l 1.8477059723945237 -12.53752971119146" fill="#ff940d" stroke="none" /><path d="M 96.58105272829116 120.7198165907248 l -2.030165820849919 12.303396371405276 a33.46976886441989,33.46976886441989 0 0,0 -0.5676329812217097,-0.09869026974563087 l 2.2416477735436784 -12.26662752313864" fill="#ff920d" stroke="none" /><path d="M 95.51606077576429 120.51570834832081 l -0.9185029698836111 4.202496533705935 a25.301700224503726,25.301700224503726 0 0,0 -0.4246828340590308,-0.0966564303832317 l 0.9907059533355046 -4.186063369745016" fill="#ff1e03" stroke="none" /><path d="M 94.81253420990036 120.34920634021253 l -3.3259241477321164 13.046816980126312 a34.464070883257406,34.464070883257406 0 0,0 -0.5735962930152735,-0.15149199432091479 l 3.5500108835588793 -12.987633636501815" fill="#ff9f0e" stroke="none" /><path d="M 94.11515582081647 120.15858648285463 l -3.1146064439308687 10.669112290539472 a32.11443792410197,32.11443792410197 0 0,0 -0.5293147927293778,-0.15947820501390775 l 3.297796211100492 -10.613918716419839" fill="#ff7f0b" stroke="none" /><path d="M 93.42475214034765 119.94407469862007 l -3.6903940705657634 11.193721754939235 a32.786365645230376,32.786365645230376 0 0,0 -0.5344650146356895,-0.18131955126204996 l 3.882528818138679 -11.128539216779062" fill="#ff880c" stroke="none" /><path d="M 93.08242187328487 119.8279376855182 l -4.485592579311913 12.857108154910481 a34.61711316302555,34.61711316302555 0 0,0 -0.5609298322307051,-0.20112948091041866 l 4.706241972172344 -12.777991132960105" fill="#ffa10e" stroke="none" /><path d="M 92.40401165467489 119.57807347666478 l -6.152132654884029 15.856646914109113 a38.00829172968339,38.00829172968339 0 0,0 -0.6079135298882477,-0.24190133944795178 l 6.4241672608141345 -15.748398730255095" fill="#ffce13" stroke="none" /><path d="M 91.7346041902142 119.30500536409082 l -4.896473754119401 11.436409612288694 a33.440535360057034,33.440535360057034 0 0,0 -0.5272128517186458,-0.23111462083593065 l 5.09260728049579 -11.35043043815831" fill="#ff910d" stroke="none" /><path d="M 91.07499286063937 119.00905698771935 l -5.349580778196275 11.393882860291571 a33.587238820984254,33.587238820984254 0 0,0 -0.5212216975528217,-0.2502180894157556 l 5.544915143749339 -11.300110494376252" fill="#ff930d" stroke="none" /><path d="M 90.7491055286396 118.85261126421891 l -1.3342970895294093 2.7191948214038466 a24.028922118489703,24.028922118489703 0 0,0 -0.36975487072310625,-0.18540276816576728 l 1.3809058679352761 -2.6958242123287772" fill="#ff0c01" stroke="none" /><path d="M 90.10565033884886 118.52300852407294 l -6.504988439718771 12.177855083391938 a34.806340175186534,34.806340175186534 0 0,0 -0.5260351606640129,-0.2868363116831266 l 6.713646412251424 -12.064078119949047" fill="#ffa30f" stroke="none" /><line stroke="#e1ed5e" stroke-width="0.3" x1="58.666819895761336" x2="56.23545636021788" y1="174.27360380694188" y2="178.64263932499728" /><path d="M 58.180547188652646 175.14741091055294 a86.0,86.0 0 0,1 -31.652253787137756,-30.449443065178592" fill="none" id="id128" stroke="none" /><text fill="#e1ed5e" style="font-size:6.75px; font-family:Arial;" text-anchor="middle"><textPath startOffset="22.20632615414155" xlink:href="#id128">August</textPath></text><path d="M 89.4739219176387 118.17145234162733 l -6.598983043789199 11.392002315122719 a34.16526847276495,34.16526847276495 0 0,0 -0.5063490116031205,-0.2991599211780651 l 6.794099926420702 -11.276723821650904" fill="#ff9b0e" stroke="none" /><path d="M 88.54995079064634 117.60387380957326 l -2.6270829777256637 4.039007726655095 a25.818210081330566,25.818210081330566 0 0,0 -0.37046094908342325,-0.2455213164343708 l 2.696218625549049 -3.993188389129406" fill="#ff2603" stroke="none" /><path d="M 87.95078237400918 117.19931262002967 l -7.1594450050079015 10.219545919846817 a33.47785124080225,33.47785124080225 0 0,0 -0.46912460678611123,-0.3347079509110503 l 7.3342969396429 -10.094793707091547" fill="#ff920d" stroke="none" /><path d="M 87.36589467227662 116.77436683061367 l -7.6146776521678685 10.11004680751357 a33.65687015800273,33.65687015800273 0 0,0 -0.45977091129313646,-0.35253272914214945 l 7.787577291954492 -9.977474736544053" fill="#ff940d" stroke="none" /><path d="M 86.79598089348748 116.32954008644616 l -10.540603930239438 13.03566838443166 a37.76403833934563,37.76403833934563 0 0,0 -0.5019557698711901,-0.41307542562915517 l 10.763429828655317 -12.852297839945324" fill="#ffca12" stroke="none" /><path d="M 86.51685102203217 116.09983520530335 l -9.356865475597358 11.172760342666972 a35.57331483236047,35.57331483236047 0 0,0 -0.4660689058559915,-0.39719403271945924 l 9.547799858030407 -11.010041919724562" fill="#ffae10" stroke="none" /><path d="M 85.97065885151581 115.62618273729859 l -8.51697395688506 9.48638927591254 a33.74874216840261,33.74874216840261 0 0,0 -0.42893116617493415,-0.39181845044100955 l 8.67900467252685 -9.338378058884954" fill="#ff950d" stroke="none" /><path d="M 85.70375840098266 115.38237550388516 l -3.6785881810154684 3.958062986877841 a26.40354269101291,26.40354269101291 0 0,0 -0.33025069095530235,-0.3122726415070355 l 3.7461747063615873 -3.8941557086248753" fill="#ff2f04" stroke="none" /><path d="M 85.44109423537348 115.13401014063109 l -8.569653780462927 8.908171349685944 a33.361006541231504,33.361006541231504 0 0,0 -0.4104198870818381,-0.4016822414452317 l 8.721723619920558 -8.759339005318143" fill="#ff900d" stroke="none" /><path d="M 84.67929136418377 114.36230785411682 l -7.189742142032207 6.739981321371985 a30.854934818726967,30.854934818726967 0 0,0 -0.3599060530907058,-0.3906069383211848 l 7.304694603118642 -6.615223128249457" fill="#ff6e0a" stroke="none" /><path d="M 84.19399662182784 113.82643327865904 l -9.613130640299751 8.409166202045178 a33.772092895100975,33.772092895100975 0 0,0 -0.3789831742000966,-0.4408430510376834 l 9.756456324070626 -8.242446051845963" fill="#ff960d" stroke="none" /><path d="M 83.72743513129214 113.27417163493432 l -9.805057936754528 7.998371676074303 a33.653580940261165,33.653580940261165 0 0,0 -0.3623081831335705,-0.45203516588899323 l 9.94128403194296 -7.82840867660705" fill="#ff940d" stroke="none" /><path d="M 83.06392112726016 112.41649034213515 l -8.13489925116223 5.964007297396215 a31.08692068323902,31.08692068323902 0 0,0 -0.31267551624365564,-0.4342789446889653 l 8.236354559781493 -5.823094747256111" fill="#ff710a" stroke="none" /><path d="M 82.6465618267979 111.8261652097733 l -11.08346490684786 7.55325174048326 a34.41248695046677,34.41248695046677 0 0,0 -0.3293715720065517,-0.4923658104280556 l 11.211839584265142 -7.361349015849384" fill="#ff9e0e" stroke="none" /><path d="M 82.24976979558568 111.22182372390057 l -9.971244616066185 6.303892856643623 a32.79681246530059,32.79681246530059 0 0,0 -0.29756916575326303,-0.4797762432793226 l 10.078278421487404 -6.131320281999036" fill="#ff880c" stroke="none" /><line stroke="#e1ed5e" stroke-width="0.3" x1="26.63291911575756" x2="22.317208475507996" y1="142.92168965132927" y2="145.44649492493687" /><path d="M 25.769776987707644 143.4266507060508 a86.0,86.0 0 0,1 -11.730757126820373,-40.83630448921669" fill="none" id="id129" stroke="none" /><text fill="#e1ed5e" style="font-size:6.75px; font-family:Arial;" text-anchor="middle"><textPath startOffset="21.46611528233685" xlink:href="#id129">September</textPath></text><path d="M 81.18737489456691 109.33194174019688 l -2.4011859309331918 1.1911005024161996 a23.680375772493033,23.680375772493033 0 0,0 -0.17799381894417782,-0.3667199870527065 l 2.421333006492089 -1.1495915593982085" fill="#ff0701" stroke="none" /><path d="M 80.87730276802145 108.67885076344099 l -18.833394590884108 8.547550538526638 a41.68229610136674,41.68229610136674 0 0,0 -0.29090057631075766,-0.6559040040714599 l 18.977736251926146 -8.222098197962481" fill="#fffc17" stroke="none" /><path d="M 80.58989483394504 108.01547362559985 l -2.182276676701987 0.9011791021337189 a23.36102843434805,23.36102843434805 0 0,0 -0.15028637474948814,-0.3729984572323381 l 2.197465665708863 -0.8634812770585755" fill="#ff0200" stroke="none" /><path d="M 80.0844068197444 106.66101706037122 l -11.636582084142358 3.8919991528912914 a33.27019559775187,33.27019559775187 0 0,0 -0.17697803135590254,-0.5446823735457493 l 11.70185236651451 -3.691117879367739" fill="#ff8f0d" stroke="none" /><path d="M 79.76711848015287 105.62410040840567 l -10.556022127271918 2.9342399054179746 a31.956247851066607,31.956247851066607 0 0,0 -0.14275605160988478,-0.5312483745950978 l 10.604966255223578 -2.7521005976473383" fill="#ff7d0b" stroke="none" /><path d="M 79.67330655649465 105.27499134158121 l -9.739753729021363 2.5275688213882463 a31.06237580538709,31.06237580538709 0 0,0 -0.12985357842037645,-0.5187004970059653 l 9.781818621736798 -2.359540484984889" fill="#ff710a" stroke="none" /><path d="M 79.58551787078972 104.9243191809786 l -2.176334937276452 0.5249688827780651 a23.23875547728986,23.23875547728986 0 0,0 -0.09045346291389927,-0.38967115084601206 l 2.185048966120907 -0.4874290745834788" fill="#ff0000" stroke="none" /><path d="M 79.4281124754447 104.21870165774334 l -12.78133498339175 2.6210837006689958 a34.047321706909294,34.047321706909294 0 0,0 -0.11279402157851076,-0.5751342859822534 l 12.824558937945927 -2.400685687618788" fill="#ff990e" stroke="none" /><path d="M 79.35854240842038 103.8639653848113 l -27.448314668207832 5.138170949353332 a48.925092279699484,48.925092279699484 0 0,0 -0.14783196019192496,-0.8291201409996312 l 27.532693070738947 -4.6649320576204865" fill="#acff21" stroke="none" /><path d="M 79.29508885075956 103.50808413554451 l -17.394428952415073 2.9471809762903516 a38.642336418049155,38.642336418049155 0 0,0 -0.10547194908873245,-0.6567739276563851 l 17.442582655865095 -2.6473278189407528" fill="#ffd614" stroke="none" /><path d="M 79.23777060512086 103.15116336523772 l -15.049607598559138 2.2841367959010968 a36.221956831268386,36.221956831268386 0 0,0 -0.08825384739560148,-0.6172472031333264 l 15.086695496971338 -2.02474412078737" fill="#ffb610" stroke="none" /><path d="M 79.1416061653843 102.43462659150553 l -12.65575960334323 1.4772014139874268 a33.74167866315506,33.74167866315506 0 0,0 -0.0623702051997497,-0.5774706389199855 l 12.679312110044032 -1.2591344531826592" fill="#ff950d" stroke="none" /><path d="M 79.07016306316243 101.71520430193888 l -11.79468547983882 0.9665768221743406 a32.83422478751715,32.83422478751715 0 0,0 -0.041313962498808844,-0.5636961942001845 l 11.809576001001965 -0.7634074914773954" fill="#ff890c" stroke="none" /><path d="M 79.0095281055655 100.63252640178507 l -4.055278245717002 0.12220166225423361 a25.057119038978676,25.057119038978676 0 0,0 -0.00928060481807059,-0.43123323845933115 l 4.05678091322008 -0.05237860800477366" fill="#ff1b02" stroke="none" /><line stroke="#e1ed5e" stroke-width="0.3" x1="15.007084014347285" x2="10.007500721073583" y1="101.09737516637583" y2="101.16192664675087" /><path d="M 14.007167355692545 101.11028546245083 a86.0,86.0 0 0,1 10.666146001902534,-42.60595125391555" fill="none" id="id130" stroke="none" /><text fill="#e1ed5e" style="font-size:6.75px; font-family:Arial;" text-anchor="middle"><textPath startOffset="22.20632615414155" xlink:href="#id130">October</textPath></text><path d="M 79.00175016825051 100.2711162175752 l -13.369681056893045 0.17262092733324258 a34.37079539696865,34.37079539696865 0 0,0 -0.0025462256933810232,-0.5916531791716624 l 13.370671579875928 0.0575417300420952" fill="#ff9e0e" stroke="none" /><path d="M 79.00019446554 99.90962569577889 l -12.76888531997818 -0.054951895843924 a33.769003564319775,33.769003564319775 0 0,0 0.007504747584596122,-0.5812509709489659 l 12.766047565275867 0.27473912485336194" fill="#ff960d" stroke="none" /><path d="M 79.01574976396665 99.18683210126434 l -12.668660521849349 -0.4909276214528646 a33.67816900610532,33.67816900610532 0 0,0 0.02743390252366075,-0.5790863227322783 l 12.65833301109219 0.708925050808152" fill="#ff940d" stroke="none" /><path d="M 79.03285615573316 98.82574320788736 l -25.343969764695323 -1.419379237169134 a46.38368454052125,46.38368454052125 0 0,0 0.05150667192965203,-0.7967854173590831 l 25.31578250176126 1.8554237187812292" fill="#c9ff1d" stroke="none" /><path d="M 79.05617556472873 98.46500227214037 l -23.959945216479777 -1.7560527964032937 a45.024210625959554,45.024210625959554 0 0,0 0.06330300282624478,-0.7724569751066137 l 23.926167729834035 2.168223688717686" fill="#d9ff1c" stroke="none" /><path d="M 79.08570108090925 98.10471618934814 l -6.429831882500372 -0.582680601403869 a27.456179576225452,27.456179576225452 0 0,0 0.046705412011793415,-0.47031712509245527 l 6.41884934480635 0.6932732572007546" fill="#ff3e05" stroke="none" /><path d="M 79.26566170972629 96.67025291283419 l -11.560705987543155 -1.8565447591669446 a32.70882920591151,32.70882920591151 0 0,0 0.09405834798085515,-0.5551376941208178 l 11.527035778042078 2.0552682416035903" fill="#ff870c" stroke="none" /><path d="M 79.46518482838121 95.60439243477599 l -10.23936260360222 -2.1918005761099644 a31.47131970161754,31.47131970161754 0 0,0 0.11795092899860285,-0.5287508868477682 l 10.20011728760158 2.3677296325076918" fill="#ff760a" stroke="none" /><path d="M 79.81627453868168 94.20196356495316 l -10.806334616388847 -3.1042595161734883 a32.24336671042609,32.24336671042609 0 0,0 0.15782990262364296,-0.5321239701994568 l 10.751298816653497 3.2898128731194842" fill="#ff810b" stroke="none" /><path d="M 79.91906864156998 93.8553929516997 l -37.22537602411434 -11.390672265675496 a59.92911551526358,59.92911551526358 0 0,0 0.3103315559479413,-0.9838358380999668 l 37.023788984398195 12.029758270201878" fill="#36ff2e" stroke="none" /><path d="M 80.14247586403 93.16781622104843 l -8.766221715031515 -3.016108020014536 a30.270574456067223,30.270574456067223 0 0,0 0.17376307108553232,-0.49125160114560507 l 8.713005563136173 3.166557247586752" fill="#ff6609" stroke="none" /><path d="M 80.38941819471856 92.48833698450439 l -7.960257208675512 -3.049107377943094 a29.524244871570588,29.524244871570588 0 0,0 0.1858712193759064,-0.4730219793686228 l 7.906592439417914 3.18567836220748" fill="#ff5b08" stroke="none" /><path d="M 80.803312248108 91.48605970444005 l -30.156830230077226 -13.374882969428377 a53.989724217877374,53.989724217877374 0 0,0 0.3840923669494524,-0.846296617200546 l 29.92213554616442 13.892001595470994" fill="#73ff27" stroke="none" /><path d="M 80.95270993114464 91.15688171328213 l -20.931319741082884 -9.717819999505696 a44.07717858938217,44.07717858938217 0 0,0 0.32541930375511857,-0.6854160459775951 l 20.760942243486014 10.076678461123825" fill="#e5ff1a" stroke="none" /><path d="M 81.10775173730289 90.83032412892265 l -5.416944972788802 -2.62920690651796 a27.021297351526798,27.021297351526798 0 0,0 0.2067000407872022,-0.4166946692195409 l 5.370884919048188 2.7220611642364627" fill="#ff3705" stroke="none" /><line stroke="#e1ed5e" stroke-width="0.3" x1="26.266209847984243" x2="21.928928074336255" y1="57.711370442889674" y2="55.22380399835377" /><path d="M 25.398753493254645 57.213857153982495 a86.0,86.0 0 0,1 29.58750427330803,-30.492523968695096" fill="none" id="id131" stroke="none" /><text fill="#e1ed5e" style="font-size:6.75px; font-family:Arial;" text-anchor="middle"><textPath startOffset="21.46611528233685" xlink:href="#id131">November</textPath></text><path d="M 81.78341655067845 89.55222093294921 l -11.29634413019447 -6.478805867520861 a34.022377516291016,34.022377516291016 0 0,0 0.2957359936722504,-0.5055086774167077 l 11.183148462051895 6.67229395729146" fill="#ff990e" stroke="none" /><path d="M 82.7489923806493 88.02491185347247 l -10.45541703928285 -7.257810292407162 a33.72759033383372,33.72759033383372 0 0,0 0.33516773652837134,-0.47407099401016756 l 10.3289366829506 7.436707786749116" fill="#ff950d" stroke="none" /><path d="M 83.17141714833178 87.43820079747576 l -10.085943061146232 -7.52871424878489 a33.58601548038697,33.58601548038697 0 0,0 0.34981284083648406,-0.4603126939405184 l 9.95485428008564 7.7012117186064355" fill="#ff930d" stroke="none" /><path d="M 83.6137871275137 86.86637796730984 l -21.411213977713224 -17.16118262545616 a48.439866492089216,48.439866492089216 0 0,0 0.5270753589076481,-0.6461320679288193 l 21.112640126729183 17.527198862993064" fill="#b1ff20" stroke="none" /><path d="M 83.84228863543731 86.58626213691792 l -3.6921168655520504 -3.065105365293166 a25.798603739552043,25.798603739552043 0 0,0 0.2865971637756609,-0.3392406445115295 l 3.6388090882892654 3.1282049594338113" fill="#ff2603" stroke="none" /><path d="M 84.31358615837235 86.03803664274999 l -8.42758727893597 -7.501119501659225 a32.28233225544505,32.28233225544505 0 0,0 0.373024438929977,-0.411902902299267 l 8.297219199389948 7.645075191228048" fill="#ff810b" stroke="none" /><path d="M 84.80347519578584 85.50635884689758 l -8.061550342732245 -7.688680096967276 a32.140215238580765,32.140215238580765 0 0,0 0.38527813084878015,-0.39706298074349405 l 7.928007948180347 7.826307273260894" fill="#ff7f0b" stroke="none" /><path d="M 85.57189188830299 84.74124197986013 l -4.157256027843803 -4.3965960932334145 a27.050854062698832,27.050854062698832 0 0,0 0.3410882329723113,-0.3170043394092463 l 4.080959911076636 4.467505018717308" fill="#ff3805" stroke="none" /><path d="M 86.65592168130627 83.78471172551755 l -6.405393514373014 -7.783625055733799 a31.08037127700259,31.08037127700259 0 0,0 0.4160279398723307,-0.33639899457283906 l 6.270462175936182 7.892730147570772" fill="#ff710a" stroke="none" /><path d="M 87.22198572758235 83.33499621200491 l -29.428864329393203 -38.38093502402541 a69.36480361829553,69.36480361829553 0 0,0 0.953778754217942,-0.7183663837696936 l 28.763839421416872 38.881817997300956" fill="#3aff97" stroke="none" /><path d="M 87.51073957382395 83.11751280151077 l -6.558824566513191 -8.865959072261791 a32.02830041145589,32.02830041145589 0 0,0 0.4460393554551607,-0.3240665609022752 l 6.405239894704248 8.977544867980734" fill="#ff7e0b" stroke="none" /><path d="M 88.70189139769569 82.29822771554957 l -5.707702539433975 -8.942775660682948 a31.609010547452783,31.609010547452783 0 0,0 0.46116168781920563,-0.2887794066053333 l 5.552921699242527 9.039699408611211" fill="#ff780b" stroke="none" /><line stroke="#e1ed5e" stroke-width="0.3" x1="56.762969772571076" x2="54.21961505331055" y1="26.818313649435495" y2="22.513508569990535" /><path d="M 56.25429882871897 25.957352633546506 a86.0,86.0 0 0,1 42.265352541879196,-11.944610805530505" fill="none" id="id132" stroke="none" /><text fill="#e1ed5e" style="font-size:6.75px; font-family:Arial;" text-anchor="middle"><textPath startOffset="22.20632615414155" xlink:href="#id132">December</textPath></text><path d="M 89.63071344664047 81.73862282372117 l -3.856348477119091 -6.79142520572201 a28.809921888335055,28.809921888335055 0 0,0 0.4333504914400499,-0.24115907930776734 l 3.738873896606995 6.856799682589962" fill="#ff5107" stroke="none" /><path d="M 90.26544431104013 81.39251694778311 l -4.19381610690581 -8.016427726831587 a30.047165690870088,30.047165690870088 0 0,0 0.46035049708191284,-0.23580940471566827 l 4.055205122235134 8.08742965685976" fill="#ff6209" stroke="none" /><path d="M 90.91171255644093 81.06846463323043 l -5.097733090020085 -10.61893287194196 a32.77916032643648,32.77916032643648 0 0,0 0.510764546386355,-0.23981080313324016 l 4.914190332334122 10.705108657715208" fill="#ff880c" stroke="none" /><path d="M 91.90106846888425 80.62456947434976 l -1.8969700711623307 -4.538205031346894 a25.91871938185417,25.91871938185417 0 0,0 0.4131149265104224,-0.1685199512216627 l 1.818571275063528 4.570185868752134" fill="#ff2703" stroke="none" /><path d="M 94.28887869178378 79.79150937346287 l -3.531802942752795 -12.49709169383552 a33.986567399839345,33.986567399839345 0 0,0 0.5643422757316287,-0.15425606211042514 l 3.3161627777974436 12.556034296772241" fill="#ff990e" stroke="none" /><path d="M 96.75951476605007 79.25152402106235 l -1.6827997503025767 -10.77478453865866 a31.90540218672086,31.90540218672086 0 0,0 0.5433505482795714,-0.08007574668108915 l 1.4970802215943566 10.802154769500717" fill="#ff7c0b" stroke="none" /><path d="M 97.11714578562143 79.19881850522333 l -1.652882377906157 -11.926342359200925 a33.0403348053143,33.0403348053143 0 0,0 0.5640225425178274,-0.0732263135741745 l 1.447345106880472 11.953026995939236" fill="#ff8c0c" stroke="none" /><path d="M 98.19473922651362 79.07773832637324 l -0.9299353481755022 -10.777584590456872 a31.817629562720278,31.817629562720278 0 0,0 0.5460659926494958,-0.042385230704844484 l 0.7442791661636722 10.791995083350178" fill="#ff7b0b" stroke="none" /><path d="M 98.55514903715128 79.0497635885617 l -0.5212348220227544 -7.55786792412171 a28.575820305297434,28.575820305297434 0 0,0 0.49101145008050595,-0.029619151562960924 l 0.3910613231026254 7.565720345064977" fill="#ff4e07" stroke="none" /><path d="M 98.91598698831166 79.02799685794201 l -0.5291353761549819 -10.236988533940957 a31.25065453960562,31.25065453960562 0 0,0 0.5374504943244169,-0.02314374884275875 l 0.3528440494412408 10.244580009307908" fill="#ff730a" stroke="none" /><path d="M 99.27714615592234 79.0124445844662 l -0.5195851057453752 -15.08578987199169 a36.09473500078751,36.09473500078751 0 0,0 0.6211274209039882,-0.016041888777561734 l 0.25983104964650794 15.09249855291161" fill="#ffb510" stroke="none" /></svg>