<?xml version="1.0" encoding="utf-8" ?>
<svg baseProfile="full" height="200mm" version="1.1" viewBox="0,0,200,200" width="200mm" xmlns="http://www.w3.org/2000/svg" xmlns:ev="http://www.w3.org/2001/xml-events" xmlns:xlink="http://www.w3.org/1999/xlink"><defs /><rect fill="#1a1a1a" height="200" width="200" x="0" y="0" /><text alignment-baseline="middle" fill="#e1ed5e" style="dominant-baseline: central; font-size:9.0px; font-family:Arial;" text-anchor="middle" x="100.0" y="100.0">2014</text><line stroke="#e1ed5e" stroke-width="0.3" x1="100.0" x2="100.0" y1="15.0" y2="10.0" /><path d="M 100.0 14.0 a86.0,86.0 0 0,1 42.46469731375804,11.215312516191453" fill="none" id="id1" stroke="none" /><text fill="#e1ed5e" style="font-size:6.75px; font-family:Arial;" text-anchor="middle"><textPath startOffset="22.20632615414155" xlink:href="#id1">January</textPath></text><line stroke="#e1ed5e" stroke-width="0.3" x1="143.23703022742887" x2="145.7803849466894" y1="26.81831364943548" y2="22.513508569990506" /><path d="M 143.74570117128098 25.957352633546492 a86.0,86.0 0 0,1 28.547481713284135,27.462654790039103" fill="none" id="id2" stroke="none" /><text fill="#e1ed5e" style="font-size:6.75px; font-family:Arial;" text-anchor="middle"><textPath startOffset="19.985693538727396" xlink:href="#id2">February</textPath></text><line stroke="#e1ed5e" stroke-width="0.3" x1="172.23445277983987" x2="176.4835382374775" y1="55.19839476539836" y2="52.563006222186495" /><path d="M 173.08426987136738 54.67131705675599 a86.0,86.0 0 0,1 12.851231095245387,41.99856678651699" fill="none" id="id3" stroke="none" /><text fill="#e1ed5e" style="font-size:6.75px; font-family:Arial;" text-anchor="middle"><textPath startOffset="22.20632615414155" xlink:href="#id3">March</textPath></text><line stroke="#e1ed5e" stroke-width="0.3" x1="184.98032266829074" x2="189.97916517819016" y1="98.17113171792111" y2="98.06355123074" /><path d="M 185.9800911702706 98.14961562048488 a86.0,86.0 0 0,1 -9.607161424134198,41.387399972396054" fill="none" id="id4" stroke="none" /><text fill="#e1ed5e" style="font-size:6.75px; font-family:Arial;" text-anchor="middle"><textPath startOffset="21.466115282336823" xlink:href="#id4">April</textPath></text><line stroke="#e1ed5e" stroke-width="0.3" x1="174.80103733775053" x2="179.2010983576182" y1="140.37084112569926" y2="142.7455964860345" /><path d="M 175.68104954172406 140.8457921977663 a86.0,86.0 0 0,1 -30.038265399797805,32.042727171017184" fill="none" id="id5" stroke="none" /><text fill="#e1ed5e" style="font-size:6.75px; font-family:Arial;" text-anchor="middle"><textPath startOffset="22.206326154141568" xlink:href="#id5">May</textPath></text><line stroke="#e1ed5e" stroke-width="0.3" x1="143.8653032363475" x2="146.44561519142675" y1="172.8068346515853" y2="177.08958963109032" /><path d="M 144.38136562736335 173.6633856474863 a86.0,86.0 0 0,1 -40.68145358897372,12.25698825130547" fill="none" id="id6" stroke="none" /><text fill="#e1ed5e" style="font-size:6.75px; font-family:Arial;" text-anchor="middle"><textPath startOffset="21.466115282336833" xlink:href="#id6">June</textPath></text><line stroke="#e1ed5e" stroke-width="0.3" x1="102.19456741930631" x2="102.32365962044197" y1="184.97166512339345" y2="189.96999836594603" /><path d="M 102.22038585953345 185.97133177190398 a86.0,86.0 0 0,1 -42.740103519485714,-10.115201625700543" fill="none" id="id7" stroke="none" /><text fill="#e1ed5e" style="font-size:6.75px; font-family:Arial;" text-anchor="middle"><textPath startOffset="22.20632615414155" xlink:href="#id7">July</textPath></text><line stroke="#e1ed5e" stroke-width="0.3" x1="58.666819895761336" x2="56.23545636021788" y1="174.27360380694188" y2="178.64263932499728" /><path d="M 58.180547188652646 175.14741091055294 a86.0,86.0 0 0,1 -31.652253787137756,-30.449443065178592" fill="none" id="id8" stroke="none" /><text fill="#e1ed5e" style="font-size:6.75px; font-family:Arial;" text-anchor="middle"><textPath startOffset="22.20632615414155" xlink:href="#id8">August</textPath></text><line stroke="#e1ed5e" stroke-width="0.3" x1="26.63291911575756" x2="22.317208475507996" y1="142.92168965132927" y2="145.44649492493687" /><path d="M 25.769776987707644 143.4266507060508 a86.0,86.0 0 0,1 -11.730757126820373,-40.83630448921669" fill="none" id="id9" stroke="none" /><text fill="#e1ed5e" style="font-size:6.75px; font-family:Arial;" text-anchor="middle"><textPath startOffset="21.46611528233685" xlink:href="#id9">September</textPath></text><line stroke="#e1ed5e" stroke-width="0.3" x1="15.007084014347285" x2="10.007500721073583" y1="101.09737516637583" y2="101.16192664675087" /><path d="M 14.007167355692545 101.11028546245083 a86.0,86.0 0 0,1 10.666146001902534,-42.60595125391555" fill="none" id="id10" stroke="none" /><text fill="#e1ed5e" style="font-size:6.75px; font-family:Arial;" text-anchor="middle"><textPath startOffset="22.20632615414155" xlink:href="#id10">October</textPath></text><line stroke="#e1ed5e" stroke-width="0.3" x1="26.266209847984243" x2="21.928928074336255" y1="57.711370442889674" y2="55.22380399835377" /><path d="M 25.398753493254645 57.213857153982495 a86.0,86.0 0 0,1 29.58750427330803,-30.492523968695096" fill="none" id="id11" stroke="none" /><text fill="#e1ed5e" style="font-size:6.75px; font-family:Arial;" text-anchor="middle"><textPath startOffset="21.46611528233685" xlink:href="#id11">November</textPath></text><line stroke="#e1ed5e" stroke-width="0.3" x1="56.76296977257108" x2="54.21961505331056" y1="26.818313649435495" y2="22.513508569990535" /><path d="M 56.25429882871898 25.957352633546506 a86.0,86.0 0 0,1 42.26535254187918,-11.944610805530505" fill="none" id="id12" stroke="none" /><text fill="#e1ed5e" style="font-size:6.75px; font-family:Arial;" text-anchor="middle"><textPath startOffset="22.20632615414155" xlink:href="#id12">December</textPath></text><path d="M 89.63071344664047 81.73862282372117 l -1.4028320616855148 -2.470531146148741 a23.841031843782087,23.841031843782087 0 0,0 0.35860988814843026,-0.19956601449591493 l 1.360098084465039 2.4943125582048404" fill="#ff0400" stroke="none" /><path d="M 89.94658935756843 81.56283822128135 l -9.089397723329073 -16.669238157728593 a39.986328021287704,39.986328021287704 0 0,0 0.6071351790824577,-0.3243105862430716 l 8.80111749771831 16.823227470473412" fill="#ffe415" stroke="none" /><path d="M 90.26544431104013 81.39251694778311 l -14.186700441142083 -27.11770279611344 a51.60444860383927,51.60444860383927 0 0,0 0.7906281015261881,-0.40499042176377936 l 13.71781185202713 27.357885743189726" fill="#8fff24" stroke="none" /><path d="M 90.58718382345135 81.22770947309562 l -1.1570938021368957 -2.3076304278321405 a23.58147714659657,23.58147714659657 0 0,0 0.3644222333527419,-0.1788204072378069 l 1.1172003017737278 2.327205995204777" fill="#ff0000" stroke="none" /><path d="M 90.91171255644093 81.06846463323043 l -1.802962878538011 -3.755697177492466 a25.16604565870454,25.16604565870454 0 0,0 0.3921370702360487,-0.18411361245987778 l 1.7380475970023537 3.7861757725923515" fill="#ff1802" stroke="none" /><path d="M 91.23893434514133 80.91482961587045 l -1.328228074683092 -2.893421886440603 a24.183721098229217,24.183721098229217 0 0,0 0.37982017429563486,-0.17041424071411457 l 1.2782257819206826 2.9158564576712465" fill="#ff0901" stroke="none" /><path d="M 91.56875222667455 80.76684994638697 l -2.3594283032679595 -5.382268415959004 a26.876709557200506,26.876709557200506 0 0,0 0.4253127201433419,-0.18209671060026592 l 2.266431825334309 5.422084654522056" fill="#ff3104" stroke="none" /><path d="M 91.90106846888425 80.62456947434976 l -10.866298790219231 -25.995925076285317 a49.175602388771736,49.175602388771736 0 0,0 0.7838032067728604,-0.3197330081691271 l 10.41721171385799 26.17911897063802" fill="#abff21" stroke="none" /><path d="M 92.23578459929587 80.48803036053334 l -1.4068880377972985 -3.535599576119458 a24.80523301698506,24.80523301698506 0 0,0 0.39808481537284784,-0.15445072374598975 l 1.3458200574247732 3.559293003755999" fill="#ff1202" stroke="none" /><path d="M 92.91201910852362 80.23233633223022 l -12.905968049509465 -35.993442930479716 a59.237310905510334,59.237310905510334 0 0,0 0.9627981068070895,-0.3359013544286058 l 12.28448793863909 36.21026513808053" fill="#3eff2d" stroke="none" /><path d="M 93.94186890950719 79.89281104454417 l -15.014476044947116 -49.83367021831121 a73.04641369327659,73.04641369327659 0 0,0 1.207039052942324,-0.35236779874404567 l 14.15444677428137 50.08473634597396" fill="#3fffbe" stroke="none" /><path d="M 94.28887869178378 79.79150937346287 l -16.881017068833344 -59.73255632149775 a83.07211146706018,83.07211146706018 0 0,0 1.3794009816764805,-0.3770423954661444 l 15.850318197933142 60.0142852577902" fill="#4cdbff" stroke="none" /><path d="M 94.63758080256005 79.69619591428918 l -13.955633644749946 -52.84041418288064 a75.65225595933667,75.65225595933667 0 0,0 1.261919657784901,-0.32169141858262046 l 13.044005098280046 53.07280859763213" fill="#42ffda" stroke="none" /><path d="M 94.98787191387505 79.60689891045804 l -0.6696124090508369 -2.7244861491843793 a23.8055668866474,23.8055668866474 0 0,0 0.3987730737691243,-0.09437670271987215 l 0.6226156483191785 2.7356087640451223" fill="#ff0300" stroke="none" /><path d="M 95.33964822691252 79.52364482259891 l -13.98105531926245 -61.42906553220327 a84.0,84.0 0 0,0 1.4126291033859162,-0.30874600761652715 l 12.921583491723013 61.66062503791566" fill="#4dd2ff" stroke="none" /><path d="M 95.692805502759 79.44645832069477 l -4.833827449226142 -23.066586385146934 a44.5676323645872,44.5676323645872 0 0,0 0.7522031409775856,-0.1508848737203533 l 4.43605789878142 23.1463752149445" fill="#e1ff1b" stroke="none" /><path d="M 96.04723909329186 79.375362276772 l -6.5266772719519865 -34.054767654170945 a55.67455430415483,55.67455430415483 0 0,0 0.9427687209990177,-0.1722849577365619 l 5.939513429850075 34.16206809325825" fill="#63ff29" stroke="none" /><path d="M 99.63851952072746 79.00311137660856 l -0.41180587100474564 -23.9200800700116 a44.92362461315509,44.92362461315509 0 0,0 0.7732863502772754,-0.0066559197520500105 l 5.8595980613006434e-15 23.92362461315509" fill="#ddff1b" stroke="none" /></svg>