<?xml version="1.0" encoding="utf-8" ?>
<svg baseProfile="full" height="200mm" version="1.1" viewBox="0,0,200,200" width="200mm" xmlns="http://www.w3.org/2000/svg" xmlns:ev="http://www.w3.org/2001/xml-events" xmlns:xlink="http://www.w3.org/1999/xlink"><defs /><rect fill="#1a1a1a" height="200" width="200" x="0" y="0" /><text alignment-baseline="middle" fill="#e1ed5e" style="dominant-baseline: central; font-size:9.0px; font-family:Arial;" text-anchor="middle" x="100.0" y="100.0">2017</text><line stroke="#e1ed5e" stroke-width="0.3" x1="100.0" x2="100.0" y1="15.0" y2="10.0" /><path d="M 100.0 14.0 a86.0,86.0 0 0,1 42.46469731375804,11.215312516191453" fill="none" id="id61" stroke="none" /><text fill="#e1ed5e" style="font-size:6.75px; font-family:Arial;" text-anchor="middle"><textPath startOffset="22.20632615414155" xlink:href="#id61">January</textPath></text><path d="M 100.0 79.0 l 0.0 -3.3463337325742515 a24.34633373257425,24.34633373257425 0 0,0 0.4190821136276126,0.0036071720609380602 l -0.057601634355084246 3.3458379371218725" fill="#ff2e04" stroke="none" /><path d="M 101.08401301168833 79.027996857942 l 0.02452742693916484 -0.47452315543114354 a21.475156626506024,21.475156626506024 0 0,0 0.3690024532360412,0.022259235681187352 l -0.03269192901481796 0.47403065036965214" fill="#ff0500" stroke="none" /><path d="M 101.44485096284872 79.0497635885617 l 0.03958021246059186 -0.5739102714299664 a21.575273493975903,21.575273493975903 0 0,0 0.37028286830569307,0.02874107710505461 l -0.049453270128626124 0.5731439321364472" fill="#ff0701" stroke="none" /><path d="M 102.52436894288641 79.15227682838746 l 0.16337837454695434 -1.3492746907622692 a22.35913012048193,22.35913012048193 0 0,0 0.3816866110271124,0.04955387659040415 l -0.18657971408191282 1.3462624910077285" fill="#ff1202" stroke="none" /><path d="M 105.36241919743992 79.69619591428918 l 0.19463643462900604 -0.7369547010676187 a21.76222409638554,21.76222409638554 0 0,0 0.36135873702839333,0.09877299323523296 l -0.2072930608811102 0.7334951670060921" fill="#ff0901" stroke="none" /><path d="M 106.0581310904928 79.89281104454417 l 0.12899439850877006 -0.4281377715780375 a21.447148192771085,21.447148192771085 0 0,0 0.3525652033231173,0.10954372487196282 l -0.13634497454260558 0.4258539118235541" fill="#ff0500" stroke="none" /><path d="M 107.4271985657038 80.35727306442388 l 0.16026641724307855 -0.42385691495923905 a21.453144578313253,21.453144578313253 0 0,0 0.34428908983750883,0.13357881800501983 l -0.1675386720802544 0.4210353930636724" fill="#ff0500" stroke="none" /><path d="M 108.43124777332544 80.76684994638697 l 0.14487524788333364 -0.3304857663429254 a21.36084578313253,21.36084578313253 0 0,0 0.33548518590240867,0.1505224237559666 l -0.15054255225252253 0.3279430120704276" fill="#ff0400" stroke="none" /><path d="M 109.08828744355905 81.06846463323043 l 0.253136179662889 -0.5273002826614193 a21.584913253012047,21.584913253012047 0 0,0 0.3335678356995114,0.16368028830854506 l -0.2621752823728321 0.5228648342180422" fill="#ff0701" stroke="none" /><path d="M 110.05341064243156 81.56283822128135 l 0.3671554016787772 -0.6733340335379749 a21.766930120481927,21.766930120481927 0 0,0 0.3274118514244088,0.18220434083639336 l -0.3786913421752211 0.6669142951414017" fill="#ff0901" stroke="none" /><line stroke="#e1ed5e" stroke-width="0.3" x1="143.23703022742887" x2="145.7803849466894" y1="26.81831364943548" y2="22.513508569990506" /><path d="M 143.74570117128098 25.957352633546492 a86.0,86.0 0 0,1 28.547481713284135,27.462654790039103" fill="none" id="id62" stroke="none" /><text fill="#e1ed5e" style="font-size:6.75px; font-family:Arial;" text-anchor="middle"><textPath startOffset="19.985693538727396" xlink:href="#id62">February</textPath></text><path d="M 112.19680574252982 82.90503203632743 l 0.07029948818545587 -0.09853133055997004 a21.121039006692286,21.121039006692286 0 0,0 0.29414032290388004,0.2137054537908969 l -0.07198512744312463 0.09730664195239831" fill="#ff0000" stroke="none" /><path d="M 113.06298171725822 83.55741782278167 l 0.28499334088688183 -0.3587256362229753 a21.45815421686747,21.45815421686747 0 0,0 0.2872292487352609,0.23225274368857052 l -0.2911259881866339 0.35376679527027516" fill="#ff0500" stroke="none" /><path d="M 113.89432698308785 84.25364557470407 l 1.1899550808517108 -1.3485686982953493 a22.798507889464712,22.798507889464712 0 0,0 0.292026101022483,0.26218391685174863 l -1.2129921694701837 1.3278857726743032" fill="#ff1802" stroke="none" /><path d="M 114.68862486808459 84.99185889309783 l 0.5191809491024065 -0.5304745007869748 a21.742261445783132,21.742261445783132 0 0,0 0.2652185240862814,0.2640795914576855 l -0.5282352733560105 0.5214590586791706" fill="#ff0901" stroke="none" /><path d="M 115.68641384162765 86.03803664274999 l 0.8029553957534858 -0.7146843074652105 a22.074946987951808,22.074946987951808 0 0,0 0.2501912854390573,0.2860118891936324 l -0.8151385447703914 0.7007568620686303" fill="#ff0e01" stroke="none" /><path d="M 116.82858285166822 87.43820079747576 l 1.3022281817037265 -0.9720562378078601 a22.62502048192771,22.62502048192771 0 0,0 0.23027679855394867,0.3140972944373147 l -1.3187675927713016 0.9494964996990517" fill="#ff1602" stroke="none" /><line stroke="#e1ed5e" stroke-width="0.3" x1="172.23445277983987" x2="176.4835382374775" y1="55.19839476539836" y2="52.563006222186495" /><path d="M 173.08426987136738 54.67131705675599 a86.0,86.0 0 0,1 12.851231095245387,41.99856678651699" fill="none" id="id63" stroke="none" /><text fill="#e1ed5e" style="font-size:6.75px; font-family:Arial;" text-anchor="middle"><textPath startOffset="22.20632615414155" xlink:href="#id63">March</textPath></text><path d="M 117.84615892207809 88.93136811851018 l 0.4007645254802581 -0.2485641320952882 a21.471589156626507,21.471589156626507 0 0,0 0.19210344705804483,0.31576755676303087 l -0.40498377082452686 0.24162880212517587" fill="#ff0500" stroke="none" /><path d="M 118.56541770881063 90.18545643968196 l 1.131908912935728 -0.5983797136461867 a22.2803421686747,22.2803421686747 0 0,0 0.1763229854475529,0.340599885405604 l -1.1420413315433973 0.5788071059802379" fill="#ff1101" stroke="none" /><path d="M 119.85752413597 93.16781622104841 l 0.4306451017439272 -0.1481678409893113 a21.455421686746988,21.455421686746988 0 0,0 0.1171493673271554,0.35026169725527434 l -0.4331317628428527 0.14073304081172294" fill="#ff0500" stroke="none" /><path d="M 119.97218684219823 93.5106431181261 l 0.28204096623783825 -0.0916406650752338 a21.296555421686747,21.296555421686747 0 0,0 0.11028017222547196,0.3496182827293832 l -0.28357662223151636 0.08677221591943145" fill="#ff0300" stroke="none" /><path d="M 120.37134235888165 94.90015583598534 l 3.094652342173868 -0.7747277724194154 a24.190153012048192,24.190153012048192 0 0,0 0.09764435867112521,0.4047989055644016 l -3.1075295011058124 0.7213436351956076" fill="#ff2c04" stroke="none" /><path d="M 120.6074358757038 95.95851677861258 l 0.9288988641279334 -0.18217352204235218 a21.946594048106938,21.946594048106938 0 0,0 0.06951246741685828,0.37133838049152545 l -0.931897055454651 0.16615706408826397" fill="#ff0c01" stroke="none" /><path d="M 120.83666639777658 97.38593545837742 l 1.6235203589719966 -0.20367879016597001 a22.6362467434834,22.6362467434834 0 0,0 0.04517510049252616,0.3870326730510179 l -1.6267858124681118 0.17570237879009937" fill="#ff1602" stroke="none" /><path d="M 120.91429891909075 98.10471618934814 l 1.2831787402288832 -0.11628350067754442 a22.288436856002345,22.288436856002345 0 0,0 0.03133702871571747,0.3823911241148133 l -1.2849902527640955 0.09417845935496236" fill="#ff1101" stroke="none" /><line stroke="#e1ed5e" stroke-width="0.3" x1="184.98032266829074" x2="189.97916517819016" y1="98.17113171792111" y2="98.06355123074" /><path d="M 185.9800911702706 98.14961562048488 a86.0,86.0 0 0,1 -9.607161424134198,41.387399972396054" fill="none" id="id64" stroke="none" /><text fill="#e1ed5e" style="font-size:6.75px; font-family:Arial;" text-anchor="middle"><textPath startOffset="21.466115282336823" xlink:href="#id64">April</textPath></text><path d="M 120.9904718944345 100.63252640178507 l 0.1638704663231788 0.004938068898285448 a21.163944851268408,21.163944851268408 0 0,0 -0.014107147065357968,0.36404278205804397 l -0.16376118640661766 -0.007758097970335615" fill="#ff0100" stroke="none" /><path d="M 120.23288151984713 105.62410040840565 l 0.8113249261158497 0.2255226396616747 a21.842085860667936,21.842085860667936 0 0,0 -0.10380957117431804,0.36137473579410206 l -0.8073227180554322 -0.23945485096035873" fill="#ff0b01" stroke="none" /><path d="M 119.79798401119884 107.00284435728193 l 1.0974628022888584 0.3881890796551848 a22.16409422469629,22.16409422469629 0 0,0 -0.1303203768354362,0.3585857066763929 l -1.0906181644481954 -0.4070225833377088" fill="#ff0f01" stroke="none" /><line stroke="#e1ed5e" stroke-width="0.3" x1="174.80103733775053" x2="179.2010983576182" y1="140.37084112569926" y2="142.7455964860345" /><path d="M 175.68104954172406 140.8457921977663 a86.0,86.0 0 0,1 -30.038265399797805,32.042727171017184" fill="none" id="id65" stroke="none" /><text fill="#e1ed5e" style="font-size:6.75px; font-family:Arial;" text-anchor="middle"><textPath startOffset="22.206326154141568" xlink:href="#id65">May</textPath></text><path d="M 118.30583269289576 110.29060199501025 l 0.4618361791562042 0.2596206567777248 a21.52980707979726,21.52980707979726 0 0,0 -0.18438537269170968,0.32149143917731254 l -0.45729881031211495 -0.2675319418133524" fill="#ff0601" stroke="none" /><line stroke="#e1ed5e" stroke-width="0.3" x1="143.8653032363475" x2="146.44561519142675" y1="172.8068346515853" y2="177.08958963109032" /><path d="M 144.38136562736335 173.6633856474863 a86.0,86.0 0 0,1 -40.68145358897372,12.25698825130547" fill="none" id="id66" stroke="none" /><text fill="#e1ed5e" style="font-size:6.75px; font-family:Arial;" text-anchor="middle"><textPath startOffset="21.466115282336833" xlink:href="#id66">June</textPath></text><path d="M 109.57404056367764 118.69057910512821 l 0.23379114957182887 0.4564104304852264 a21.512804819277108,21.512804819277108 0 0,0 -0.33103708629204165,0.16598886728401147 l -0.2259001555970267 -0.46036713867853996" fill="#ff0600" stroke="none" /><path d="M 103.41894727170886 120.7198165907248 l 0.10889420953217842 0.6599306365350769 a21.66885453867581,21.66885453867581 0 0,0 -0.3685398913285147,0.0575583516198422 l -0.09751845459514655 -0.6617072955020249" fill="#ff0801" stroke="none" /><path d="M 103.06178313531738 120.77559828337769 l 0.03938932928234522 0.2672746062195757 a21.27016149687019,21.27016149687019 0 0,0 -0.3626779377556164,0.05026385744403324 l -0.034782800339898355 -0.2679130291562115" fill="#ff0200" stroke="none" /><line stroke="#e1ed5e" stroke-width="0.3" x1="102.19456741930631" x2="102.32365962044197" y1="184.97166512339345" y2="189.96999836594603" /><path d="M 102.22038585953345 185.97133177190398 a86.0,86.0 0 0,1 -42.740103519485714,-10.115201625700543" fill="none" id="id67" stroke="none" /><text fill="#e1ed5e" style="font-size:6.75px; font-family:Arial;" text-anchor="middle"><textPath startOffset="22.20632615414155" xlink:href="#id67">July</textPath></text><path d="M 97.2962882734958 120.8252237178851 l -0.18347560296839077 1.4132129698349603 a22.425073399862043,22.425073399862043 0 0,0 -0.38237036309653916,-0.052993048158494364 l 0.207774557251761 -1.409845356183861" fill="#ff1302" stroke="none" /><line stroke="#e1ed5e" stroke-width="0.3" x1="58.666819895761336" x2="56.23545636021788" y1="174.27360380694188" y2="178.64263932499728" /><path d="M 58.180547188652646 175.14741091055294 a86.0,86.0 0 0,1 -31.652253787137756,-30.449443065178592" fill="none" id="id68" stroke="none" /><text fill="#e1ed5e" style="font-size:6.75px; font-family:Arial;" text-anchor="middle"><textPath startOffset="22.20632615414155" xlink:href="#id68">August</textPath></text><path d="M 86.51685102203217 116.09983520530335 l -0.8954530600675276 1.0692343995256106 a22.39466783999388,22.39466783999388 0 0,0 -0.29340696492246826,-0.2500477808350963 l 0.9137255015670523 -1.0536622284675627" fill="#ff1202" stroke="none" /><path d="M 84.67929136418377 114.36230785411682 l -1.5712177156206195 1.4729287707247924 a23.153658346513886,23.153658346513886 0 0,0 -0.27007484666753556,-0.2931129056275763 l 1.596338970283884 -1.4456646102958721" fill="#ff1d03" stroke="none" /><line stroke="#e1ed5e" stroke-width="0.3" x1="26.63291911575756" x2="22.317208475507996" y1="142.92168965132927" y2="145.44649492493687" /><path d="M 25.769776987707644 143.4266507060508 a86.0,86.0 0 0,1 -11.730757126820373,-40.83630448921669" fill="none" id="id69" stroke="none" /><text fill="#e1ed5e" style="font-size:6.75px; font-family:Arial;" text-anchor="middle"><textPath startOffset="21.46611528233685" xlink:href="#id69">September</textPath></text><line stroke="#e1ed5e" stroke-width="0.3" x1="15.007084014347285" x2="10.007500721073583" y1="101.09737516637583" y2="101.16192664675087" /><path d="M 14.007167355692545 101.11028546245083 a86.0,86.0 0 0,1 10.666146001902534,-42.60595125391555" fill="none" id="id70" stroke="none" /><text fill="#e1ed5e" style="font-size:6.75px; font-family:Arial;" text-anchor="middle"><textPath startOffset="22.20632615414155" xlink:href="#id70">October</textPath></text><path d="M 79.00019446554 99.90962569577889 l -62.99941660337998 -0.27112291266336075 a84.0,84.0 0 0,0 0.018667971529137795,-1.445854967758112 l 62.98541562473312 1.3555141384819447" fill="#4dd2ff" stroke="none" /><path d="M 79.03285615573316 98.82574320788736 l -1.593678746434235 -0.08925336261083879 a22.596176089776293,22.596176089776293 0 0,0 0.025091879617799673,-0.3881602717585534 l 1.5919062758120222 0.11667269862240395" fill="#ff1502" stroke="none" /><path d="M 80.14247586403 93.16781622104843 l -1.7290157665678572 -0.5948855150828394 a22.82849235631315,22.82849235631315 0 0,0 0.13104306777668387,-0.3704763990539756 l 1.7185196179813638 0.624559540563426" fill="#ff1902" stroke="none" /><line stroke="#e1ed5e" stroke-width="0.3" x1="26.266209847984243" x2="21.928928074336255" y1="57.711370442889674" y2="55.22380399835377" /><path d="M 25.398753493254645 57.213857153982495 a86.0,86.0 0 0,1 29.58750427330803,-30.492523968695096" fill="none" id="id71" stroke="none" /><text fill="#e1ed5e" style="font-size:6.75px; font-family:Arial;" text-anchor="middle"><textPath startOffset="21.46611528233685" xlink:href="#id71">November</textPath></text><path d="M 82.54541684631803 88.32363383020206 l -0.3854729026590243 -0.2578648095089109 a21.46377108433735,21.46377108433735 0 0,0 0.20807136510751503,-0.3053190536373593 l 0.3809770718827689 0.2644618864166859" fill="#ff0500" stroke="none" /><path d="M 83.84228863543731 86.58626213691792 l -0.586116112968981 -0.4865793007008143 a21.761768674698796,21.761768674698796 0 0,0 0.24175188874074285,-0.2861579837980728 l 0.5776536107411139 0.4965962341280029" fill="#ff0901" stroke="none" /><path d="M 85.05521093208273 85.24692304244772 l -0.5732395854996626 -0.5658860544339874 a21.805500247663954,21.805500247663954 0 0,0 0.2659899296616329,-0.26484768437234457 l 0.5634138556707164 0.5756695894564414" fill="#ff0a01" stroke="none" /><path d="M 85.83668400450813 84.49514656593479 l -1.094713900940345 -1.198404285530055 a22.62313627169404,22.62313627169404 0 0,0 0.2897797658668923,-0.2601671349696092 l 1.0739231474774813 1.2170704292689432" fill="#ff1602" stroke="none" /><line stroke="#e1ed5e" stroke-width="0.3" x1="56.762969772571076" x2="54.21961505331055" y1="26.818313649435495" y2="22.513508569990535" /><path d="M 56.25429882871897 25.957352633546506 a86.0,86.0 0 0,1 42.265352541879196,-11.944610805530505" fill="none" id="id72" stroke="none" /><text fill="#e1ed5e" style="font-size:6.75px; font-family:Arial;" text-anchor="middle"><textPath startOffset="22.20632615414155" xlink:href="#id72">December</textPath></text><path d="M 89.3179101791058 81.91981866633112 l -0.47817726044062026 -0.8093483319614795 a21.940052240490562,21.940052240490562 0 0,0 0.3268057157479534,-0.1893069644105748 l 0.46417481222734674 0.8174594537621014" fill="#ff0c01" stroke="none" /><path d="M 89.63071344664047 81.73862282372117 l -0.052912403605934744 -0.09318416986349132 a21.10715881656917,21.10715881656917 0 0,0 0.31748776277546625,-0.1766815962478408 l 0.05130055175842291 0.0940811636715167" fill="#ff0000" stroke="none" /><path d="M 89.94658935756843 81.56283822128135 l -0.12903463221281128 -0.23663933303630147 a21.26953313386328,21.26953313386328 0 0,0 0.32294742846488783,-0.17250733190823 l 0.12494215721961813 0.23882539144628093" fill="#ff0200" stroke="none" /><path d="M 92.23578459929587 80.48803036053334 l -0.6916423820050108 -1.738141520111135 a22.870696428745138,22.870696428745138 0 0,0 0.36703855831756627,-0.1424052583410826 l 0.6616206586877682 1.749789482342769" fill="#ff1902" stroke="none" /><path d="M 99.27714615592234 79.0124445844662 l -0.10509424890333872 -3.051337958266085 a24.05314725106864,24.05314725106864 0 0,0 0.4139127026796057,-0.010690143948793068 l 0.05255491102885395 3.052694894357238" fill="#ff2a04" stroke="none" /></svg>