<?xml version="1.0" encoding="utf-8" ?>
<svg baseProfile="full" height="200mm" version="1.1" viewBox="0,0,200,200" width="200mm" xmlns="http://www.w3.org/2000/svg" xmlns:ev="http://www.w3.org/2001/xml-events" xmlns:xlink="http://www.w3.org/1999/xlink"><defs /><rect fill="#1a1a1a" height="200" width="200" x="0" y="0" /><text alignment-baseline="middle" fill="#e1ed5e" style="dominant-baseline: central; font-size:9.0px; font-family:Arial;" text-anchor="middle" x="100.0" y="100.0">2026</text><line stroke="#e1ed5e" stroke-width="0.3" x1="100.0" x2="100.0" y1="15.0" y2="10.0" /><path d="M 100.0 14.0 a86.0,86.0 0 0,1 42.46469731375804,11.215312516191453" fill="none" id="id49" stroke="none" /><text fill="#e1ed5e" style="font-size:6.75px; font-family:Arial;" text-anchor="middle"><textPath startOffset="22.20632615414155" xlink:href="#id49">January</textPath></text><path d="M 100.0 79.0 l 0.0 -17.39323075180839 a38.39323075180839,38.39323075180839 0 0,0 0.6608763549040224,0.00568837143277046 l -0.29939587563149406 17.39065375698418" fill="#ffb711" stroke="none" /><path d="M 100.72285384407766 79.0124445844662 l 1.095807666946771 -31.816008620881473 a52.83487394363206,52.83487394363206 0 0,0 0.9086570997284167,0.039128686125288664 l -1.6433055990645191 31.79243220823199" fill="#90ff24" stroke="none" /><path d="M 101.44485096284872 79.0497635885617 l 1.1014066390210817 -15.970318092271903 a37.008252763897346,37.008252763897346 0 0,0 0.6351493986031836,0.04929981752062197 l -1.3761462269866065 15.948993012562816" fill="#ffa40f" stroke="none" /><path d="M 102.16513564639614 79.11191278185805 l 1.786559488754398 -17.23578404134468 a38.328128760103624,38.328128760103624 0 0,0 0.6556542877521777,0.07367039869798217 l -2.082980480016301 17.2024776891761" fill="#ffb610" stroke="none" /><path d="M 102.88285421437855 79.19881850522331 l 3.0696359725033666 -22.148901830855174 a43.360601899692824,43.360601899692824 0 0,0 0.7384331555530623,0.10882585191496094 l -3.450438108485085 22.092781494779246" fill="#fffa17" stroke="none" /><path d="M 103.59715602781102 79.31037775812273 l 6.113785309728622 -35.16442087812291 a56.691944000113246,56.691944000113246 0 0,0 0.9599967562191141,0.1754332710542022 l -6.718177187050637 35.05397212571797" fill="#64ff29" stroke="none" /><path d="M 104.66035177308747 79.52364482259891 l 3.4601510482063054 -15.202990091795181 a36.59177837860793,36.59177837860793 0 0,0 0.6129581374052926,0.14506738724068988 l -3.7213328725741217 15.141176792413622" fill="#ff9e0e" stroke="none" /><path d="M 105.71112130821622 79.79150937346287 l 6.890323994988319 -24.381034888228587 a46.335971009158726,46.335971009158726 0 0,0 0.765668343402941,0.223519585447728 l -7.308982556114687 24.258816973862157" fill="#deff1b" stroke="none" /><path d="M 108.76106565485865 80.91482961587045 l 10.019485218012125 -21.82652089143761 a45.016392282320965,45.016392282320965 0 0,0 0.7014449715933352,0.3293378195132771 l -10.393708400905059 21.650818089284332" fill="#efff19" stroke="none" /><path d="M 109.41281617654863 81.2277094730956 l 7.094488972780812 -14.148773931097175 a36.82781025720878,36.82781025720878 0 0,0 0.5642362721584847,0.2890237336552842 l -7.336985732528052 14.02455767212939" fill="#ffa20e" stroke="none" /><path d="M 110.05341064243156 81.56283822128135 l 11.741668650318617 -21.533293740568226 a45.526506518692585,45.526506518692585 0 0,0 0.6847965103790453,0.38108851661248827 l -12.1105892497697 21.32798982639556" fill="#e8ff1a" stroke="none" /><path d="M 110.36928655335952 81.73862282372117 l 12.13290047035929 -21.367282174268585 a45.57169146270685,45.57169146270685 0 0,0 0.6788082855531716,0.3932095730355169 l -12.49890548837779 21.15526844384302" fill="#e8ff1a" stroke="none" /><line stroke="#e1ed5e" stroke-width="0.3" x1="143.23703022742887" x2="145.7803849466894" y1="26.81831364943548" y2="22.513508569990506" /><path d="M 143.74570117128098 25.957352633546492 a86.0,86.0 0 0,1 28.547481713284135,27.462654790039103" fill="none" id="id50" stroke="none" /><text fill="#e1ed5e" style="font-size:6.75px; font-family:Arial;" text-anchor="middle"><textPath startOffset="19.985693538727396" xlink:href="#id50">February</textPath></text><path d="M 110.68208982089419 81.91981866633111 l 8.126148478615773 -13.754072517749329 a36.97525586399219,36.97525586399219 0 0,0 0.5451877060381297,0.3284694927410946 l -8.36169825087154 13.612156415549618" fill="#ffa40f" stroke="none" /><path d="M 110.99172775467656 82.1063720568725 l 8.355474433788642 -13.602024553684675 a36.96336508925159,36.96336508925159 0 0,0 0.5392793870103998,0.3376967026723263 l -8.588372973171305 13.456183509689405" fill="#ffa30f" stroke="none" /><path d="M 111.60114157652 82.49532879139004 l 9.495321630655367 -14.327252371527658 a38.18811488753309,38.18811488753309 0 0,0 0.5448085690365984,0.36785717778655974 l -9.740534894098507 14.161683281442428" fill="#ffb410" stroke="none" /><path d="M 111.90073688211348 82.69761687909136 l 19.014764001499252 -27.645408428622794 a54.55338816301686,54.55338816301686 0 0,0 0.7691218792988166,0.5388190277901046 l -19.48781702038172 27.314004558068753" fill="#7cff26" stroke="none" /><path d="M 112.19680574252982 82.90503203632743 l 10.136524002999954 -14.207289740628466 a38.452684625511374,38.452684625511374 0 0,0 0.5355079865476886,0.3890693263134162 l -10.37957730590143 14.030701179498376" fill="#ffb811" stroke="none" /><path d="M 112.48926042617603 83.11751280151076 l 14.131146551877045 -19.101923782614634 a44.76074062539813,44.76074062539813 0 0,0 0.6154683817241482,0.4635580251169408 l -14.457861087359577 18.855849167991845" fill="#f2ff19" stroke="none" /><path d="M 112.77801427241765 83.33499621200491 l 16.391484695815397 -21.3776686050722 a47.938550174822694,47.938550174822694 0 0,0 0.6505202929847937,0.5077414070565408 l -16.75703754395962 21.092348808792433" fill="#caff1d" stroke="none" /><path d="M 113.34407831869373 83.78471172551755 l 10.149115750818838 -12.332874080937495 a36.97198590093852,36.97198590093852 0 0,0 0.48792891600470895,0.4086264350695171 l -10.359902203782664 12.156346488474158" fill="#ffa40f" stroke="none" /><path d="M 113.6212207817346 84.01681056812373 l 15.493673466521843 -18.180332143439344 a44.886782837648454,44.886782837648454 0 0,0 0.5837551786551328,0.506226738510679 l -15.80432244382374 17.910940411508992" fill="#f1ff19" stroke="none" /><path d="M 114.16331599549186 84.49514656593476 l 10.654114519491486 -11.663263330920637 a36.796894242883226,36.796894242883226 0 0,0 0.46397749982620323,0.4312165199938107 l -10.853299903112536 11.478142224852185" fill="#ffa10e" stroke="none" /><path d="M 114.42810811169701 84.74124197986012 l 25.190929808993232 -26.64121306009162 a57.665203912631114,57.665203912631114 0 0,0 0.7153691371308165,0.688184543133621 l -25.645782189736465 26.2036454301957" fill="#59ff2a" stroke="none" /><path d="M 114.68862486808459 84.99185889309783 l 16.717373828886103 -17.08102069553863 a44.900457228600146,44.900457228600146 0 0,0 0.5477090332421769,0.5453569965920774 l -17.008918662295603 16.79072784829643" fill="#f0ff19" stroke="none" /><path d="M 114.94478906791727 85.2469230424477 l 13.336346175013862 -13.165267208415507 a39.739860991181004,39.739860991181004 0 0,0 0.47637824604528783,0.4909496573796988 l -13.56098868476226 12.933753355485694" fill="#ffca12" stroke="none" /><path d="M 115.4437574822437 85.77008943001954 l 11.745851705136943 -10.822652422800708 a36.971688631570004,36.971688631570004 0 0,0 0.4272102554102038,0.4717362342270135 l -11.930405601163182 10.618863401304145" fill="#ffa40f" stroke="none" /><path d="M 115.68641384162765 86.03803664274999 l 15.568060167837084 -13.856620627334607 a41.84155542658154,41.84155542658154 0 0,0 0.47422050628975454,0.5421160159926176 l -15.804272537704687 13.586589055139042" fill="#ffe615" stroke="none" /><path d="M 115.9244219780498 86.31012108654704 l 13.058643675784232 -11.226231692543212 a38.22081451806973,38.22081451806973 0 0,0 0.4245957319496748,0.5025874222405176 l -13.249950021221025 10.999785320673588" fill="#ffb510" stroke="none" /><path d="M 116.15771136456269 86.58626213691792 l 20.07048358988684 -16.662025925929697 a47.085387087184856,47.085387087184856 0 0,0 0.5123372357422726,0.628064871583371 l -20.354319317705524 16.314076884738224" fill="#d5ff1c" stroke="none" /><path d="M 116.60985879189232 87.15038557335679 l 15.442938797212571 -11.946869124215082 a40.52465212406042,40.52465212406042 0 0,0 0.42208173493238077,0.5554100873061714 l -15.646296472369066 11.679274261027878" fill="#ffd413" stroke="none" /><path d="M 116.82858285166822 87.43820079747576 l 26.774510440247386 -19.985998040407537 a54.41129340486672,54.41129340486672 0 0,0 0.5537965572433696,0.7553778817108674 l -27.114569610004384 19.522157715025177" fill="#7eff26" stroke="none" /><path d="M 117.2510076193507 88.02491185347247 l 12.810722360476447 -8.892786605422112 a36.59475107229308,36.59475107229308 0 0,0 0.3547521906315122,0.5205550656306096 l -12.961899016776691 8.670953516521095" fill="#ff9e0e" stroke="none" /><path d="M 117.45458315368197 88.32363383020206 l 21.009345661390046 -14.05434955222624 a46.27681440482425,46.27681440482425 0 0,0 0.437213127753999,0.6659055890378884 l -21.24815542450197 13.690625899210678" fill="#dfff1b" stroke="none" /><line stroke="#e1ed5e" stroke-width="0.3" x1="172.23445277983987" x2="176.4835382374775" y1="55.19839476539836" y2="52.563006222186495" /><path d="M 173.08426987136738 54.67131705675599 a86.0,86.0 0 0,1 12.851231095245387,41.99856678651699" fill="none" id="id51" stroke="none" /><text fill="#e1ed5e" style="font-size:6.75px; font-family:Arial;" text-anchor="middle"><textPath startOffset="22.20632615414155" xlink:href="#id51">March</textPath></text><path d="M 117.84615892207809 88.93136811851018 l 31.689228588614224 -19.654448186148414 a58.28946958651246,58.28946958651246 0 0,0 0.5215081172181582,0.8572222233800354 l -32.02285250411861 19.1060581895613" fill="#53ff2b" stroke="none" /><path d="M 118.21658344932153 89.55222093294921 l 14.948619715430672 -8.573499886994243 a38.23270529281032,38.23270529281032 0 0,0 0.3225062664447477,0.5737026617889437 l -15.093983623167853 8.314913715270507" fill="#ffb510" stroke="none" /><path d="M 118.3937258080291 89.86733742301442 l 13.761120035674388 -7.580671118953969 a36.710983395382414,36.710983395382414 0 0,0 0.3001418342244087,0.5561172351732138 l -13.889569969117263 7.342672900448297" fill="#ffa00e" stroke="none" /><path d="M 118.73160827565052 90.50648371742162 l 27.18672474983293 -13.7787215216336 a51.47902835383548,51.47902835383548 0 0,0 0.39379002133006036,0.7938566536085861 l -27.4198747841164 13.308705279526064" fill="#a0ff22" stroke="none" /><path d="M 118.89224826269711 90.83032412892265 l 18.50661030855007 -8.982499893187194 a41.57133757060147,41.57133757060147 0 0,0 0.30691882196952913,0.6464493131260602 l -18.658487324361353 8.662608164420593" fill="#ffe215" stroke="none" /><path d="M 119.04729006885535 91.15688171328212 l 32.26361747999422 -14.979085460536242 a56.57125263649618,56.57125263649618 0 0,0 0.40245781287493704,0.8867624428652369 l -32.516677609832506 14.42150100882894" fill="#65ff29" stroke="none" /><path d="M 119.196687751892 91.48605970444005 l 17.133620591488796 -7.598947518867404 a39.74313095423467,39.74313095423467 0 0,0 0.2719741494315451,0.6277538349679194 l -17.26188545076302 7.302894539312882" fill="#ffca12" stroke="none" /><path d="M 119.47837535516314 92.15188598940014 l 14.404121123872457 -5.803624929769917 a36.5293518112198,36.5293518112198 0 0,0 0.2299721870516117,0.5852541317808039 l -14.501886860805769 5.554821793093328" fill="#ff9d0e" stroke="none" /><path d="M 119.61058180528143 92.48833698450437 l 34.57245385996841 -13.242678141497759 a58.021927154849024,58.021927154849024 0 0,0 0.3492240646983746,0.9357468701103243 l -34.79528251316842 12.6456081343581" fill="#55ff2b" stroke="none" /><path d="M 119.7369772167798 92.82701384747503 l 13.984328534058285 -5.082307884607565 a35.87922370227765,35.87922370227765 0 0,0 0.2059585657259633,0.582272599986033 l -14.069740180594058 4.840837658194918" fill="#ff940d" stroke="none" /><path d="M 119.85752413597 93.16781622104841 l 41.9424596397107 -14.43073116455085 a65.35556247611228,65.35556247611228 0 0,0 0.3568497933609138,1.0669354614501154 l -42.18464672684338 13.70662260017842" fill="#34ff5f" stroke="none" /><path d="M 119.97218684219823 93.5106431181261 l 15.007624168628292 -4.8762726860483285 a36.77994988887788,36.77994988887788 0 0,0 0.1904579932236021,0.6038038858588235 l -15.0893376456201 4.617218633763086" fill="#ffa10e" stroke="none" /><path d="M 120.18372546131832 94.20196356495316 l 29.711730736915943 -8.535079298967435 a51.91333890123579,51.91333890123579 0 0,0 0.23932847570054708,0.8609918638610301 l -29.854245983182853 8.022376131687453" fill="#9aff22" stroke="none" /><path d="M 120.37134235888165 94.90015583598534 l 15.203170031037747 -3.8060230195633857 a36.67233837747548,36.67233837747548 0 0,0 0.14802911581648956,0.6136762521632578 l -15.266431947115056 3.543761535740722" fill="#ff9f0e" stroke="none" /><path d="M 120.45610955862082 95.25157060432595 l 31.331498580790363 -7.272908293984296 a53.16454567331512,53.16454567331512 0 0,0 0.1992546741417351,0.8932196342620756 l -31.452047641934136 6.732510490172256" fill="#8cff24" stroke="none" /><path d="M 120.53481517161879 95.60439243477599 l 18.624146880025137 -3.9866168863709457 a40.04604844075138,40.04604844075138 0 0,0 0.13848439207569074,0.6752990774918718 l -18.690010568015822 3.6654421527156624" fill="#ffce13" stroke="none" /><path d="M 120.67395015179393 96.31383870115 l 18.51035979645494 -3.300393558487918 a39.80228755856914,39.80228755856914 0 0,0 0.1144564787094656,0.675528616353036 l -18.56442813668463 2.981279153819044" fill="#ffca12" stroke="none" /><path d="M 120.73433829027371 96.67025291283417 l 14.223433794525489 -2.2841547477323463 a35.40567359823337,35.40567359823337 0 0,0 0.09145472054837797,0.6025723414459443 l -14.260644408513167 2.03898329389432" fill="#ff8d0d" stroke="none" /><path d="M 120.78858239683441 97.02765380044208 l 28.671369886946714 -4.099425140819719 a49.96295457440935,49.96295457440935 0 0,0 0.11440089308710413,0.8524195333460592 l -28.737686779091657 3.605287265408995" fill="#b2ff20" stroke="none" /><path d="M 120.87857604477298 97.74499172005257 l 15.632849699364726 -1.6884391653743376 a36.723765978228556,36.723765978228556 0 0,0 0.06247040364359549,0.6290684393834663 l -15.65959722869055 1.4190951952864361" fill="#ffa00e" stroke="none" /><path d="M 120.91429891909075 98.10471618934814 l 36.74057579461749 -3.3294837549636394 a57.89112863270246,57.89112863270246 0 0,0 0.08139359310250321,0.993207998261788 l -36.79244387153949 2.6965618394940827" fill="#57ff2a" stroke="none" /><path d="M 120.94382443527127 98.46500227214037 l 19.770676164524435 -1.4490162999879324 a40.823705108786434,40.823705108786434 0 0,0 0.045332603626043945,0.7012753134096078 l -19.792689359154895 1.1084819223252893" fill="#ffd814" stroke="none" /><line stroke="#e1ed5e" stroke-width="0.3" x1="184.98032266829074" x2="189.97916517819016" y1="98.17113171792111" y2="98.06355123074" /><path d="M 185.9800911702706 98.14961562048488 a86.0,86.0 0 0,1 -9.607161424134198,41.387399972396054" fill="none" id="id52" stroke="none" /><text fill="#e1ed5e" style="font-size:6.75px; font-family:Arial;" text-anchor="middle"><textPath startOffset="21.466115282336823" xlink:href="#id52">April</textPath></text><path d="M 120.99513854157772 99.54816195383933 l 15.665441056106914 -0.3371372027395322 a36.66906841442181,36.66906841442181 0 0,0 0.008149251490005146,0.6311685086911334 l -15.668923314714636 0.06743243598793602" fill="#ff9f0e" stroke="none" /><path d="M 120.99980553446 99.90962569577887 l 19.004254743117187 -0.0817862954412588 a40.004430729159296,40.004430729159296 0 0,0 -0.002963571491297241,0.6886296446880164 l -19.002846874336388 -0.24535282745044226" fill="#ffcd13" stroke="none" /><path d="M 120.99824983174949 100.27111621757518 l 36.75429400925534 0.47454836718672266 a57.75735741687074,57.75735741687074 0 0,0 -0.021392052641335254,0.9940046277860681 l -36.74067989392899 -1.1071428107629055" fill="#58ff2a" stroke="none" /><path d="M 120.9904718944345 100.63252640178507 l 62.97141568330351 1.8975792053552112 a84.0,84.0 0 0,0 -0.05599146859518722,1.4448910119439753 l -62.92942208185712 -2.9812474643131925" fill="#4dd2ff" stroke="none" /><path d="M 120.9764740272857 100.99374915477107 l 12.079370403719865 0.57225366442658 a33.092917911187236,33.092917911187236 0 0,0 -0.03185374432212074,0.5687700030065493 l -12.067730308510216 -0.7800953837685527" fill="#ff6c0a" stroke="none" /><path d="M 120.92983693683757 101.71520430193887 l 15.521019316989792 1.2719506216563794 a36.57305040839149,36.57305040839149 0 0,0 -0.05681954928345938,0.626998991646297 l -15.496825171429256 -1.538931001851247" fill="#ff9e0e" stroke="none" /><path d="M 120.89721153311464 102.0752229133903 l 14.912000246086793 1.4808542539813572 a35.98534886683748,35.98534886683748 0 0,0 -0.0665175439377315,0.6158698448095401 l -14.884300400648009 -1.7373204206756887" fill="#ff960d" stroke="none" /><path d="M 120.81339534386255 102.79330883721812 l 15.515102682612598 2.0822394769178243 a36.654204945996064,36.654204945996064 0 0,0 -0.08930700858542254,0.6246130100420365 l -15.476961623010574 -2.34899795894027" fill="#ff9f0e" stroke="none" /><path d="M 120.76222939487914 103.15116336523771 l 39.64759063699443 6.017467236252231 a61.101637812663675,61.101637812663675 0 0,0 -0.1667732707178021,1.0384973159572721 l -39.53813561191534 -6.6990437819027076" fill="#35ff2f" stroke="none" /><path d="M 120.70491114924044 103.5080841355445 l 26.866001947595304 4.551972937170716 a48.24889939555228,48.24889939555228 0 0,0 -0.1457887771364933,0.8176608853636387 l -26.783666728119623 -5.013752573267574" fill="#c6ff1e" stroke="none" /><path d="M 120.64145759157962 103.86396538481128 l 17.29262266869846 3.2370822219314186 a38.59299576745042,38.59299576745042 0 0,0 -0.12785320486721127,0.6519207371346637 l -17.234339530855586 -3.5342666861340275" fill="#ffba11" stroke="none" /><path d="M 120.49622156327973 104.57218783832717 l 36.06705975866404 8.045647412800278 a57.95355520009059,57.95355520009059 0 0,0 -0.2255757525889463,0.9717744382872361 l -35.92322344014453 -8.66529050843608" fill="#56ff2a" stroke="none" /><path d="M 120.32669344350535 105.2749913415812 l 36.32695450706439 9.427227848118388 a58.53025777500955,58.53025777500955 0 0,0 -0.26146838448025217,0.9730211272775332 l -36.15929804624236 -10.05113990857147" fill="#50ff2b" stroke="none" /><path d="M 120.23288151984713 105.62410040840565 l 4.730925030715495 1.3150473584933344 a25.910295429129565,25.910295429129565 0 0,0 -0.12314467925159873,0.42868278353899364 l -4.707587714577796 -1.39628761753691" fill="#ff0000" stroke="none" /><path d="M 120.13307415673323 105.97154293290107 l 28.941775033484078 8.584235612573606 a51.18800164205937,51.18800164205937 0 0,0 -0.257824768697238,0.842586261743854 l -28.789723492280707 -9.081148846869516" fill="#a3ff22" stroke="none" /><path d="M 120.02730092923936 106.31721596034902 l 17.945559345170103 5.660571752191908 a39.81715102699489,39.81715102699489 0 0,0 -0.21180401486532044,0.651865729658624 l -17.845463079288535 -5.968636381828327" fill="#ffcb12" stroke="none" /><path d="M 119.79798401119884 107.00284435728193 l 23.148981205852294 8.188142404930238 a45.55444983933298,45.55444983933298 0 0,0 -0.26785092182914144,0.737010699480337 l -23.004606023017924 -8.585400901416707" fill="#e8ff1a" stroke="none" /><path d="M 119.67450827220406 107.3425965602758 l 22.431161909199595 8.37138951575064 a44.942372209560745,44.942372209560745 0 0,0 -0.2767288483492387,0.722451700407655 l -22.28373878125685 -8.756264782991439" fill="#f0ff19" stroke="none" /><path d="M 119.41010516605496 108.01547362559984 l 22.197579040460454 9.166571114830335 a45.01579774358393,45.01579774358393 0 0,0 -0.3019252830013938,0.7136621817285108 l -22.03650277626675 -9.54730782222501" fill="#efff19" stroke="none" /><path d="M 119.26925614724726 108.34839909993367 l 35.024695530075704 15.174438203755262 a59.1705759947907,59.1705759947907 0 0,0 -0.4129512111248718,0.931095965150687 l -34.75830323421956 -15.775082505398636" fill="#49ff2c" stroke="none" /><path d="M 119.12269723197855 108.67885076344098 l 21.403030760880018 9.713781879492492 a44.50419716036974,44.50419716036974 0 0,0 -0.32260326023680824,0.6948587224167471 l -21.23265288380338 -10.08076066918807" fill="#f6ff19" stroke="none" /><path d="M 118.81262510543309 109.33194174019688 l 14.157603562704574 7.022833383832603 a36.80373143835907,36.80373143835907 0 0,0 -0.2864054642135976,0.5651051521868583 l -14.034619428704708 -7.265492747722155" fill="#ffa10e" stroke="none" /><path d="M 118.64920377521936 109.65438752849418 l 23.85090686238896 12.347224070847274 a47.857395637218126,47.857395637218126 0 0,0 -0.3850184264665213,0.7283097648922503 l -23.634835927697548 -12.755948850825659" fill="#cbff1d" stroke="none" /><line stroke="#e1ed5e" stroke-width="0.3" x1="174.80103733775053" x2="179.2010983576182" y1="140.37084112569926" y2="142.7455964860345" /><path d="M 175.68104954172406 140.8457921977663 a86.0,86.0 0 0,1 -30.038265399797805,32.042727171017184" fill="none" id="id53" stroke="none" /><text fill="#e1ed5e" style="font-size:6.75px; font-family:Arial;" text-anchor="middle"><textPath startOffset="22.206326154141568" xlink:href="#id53">May</textPath></text><path d="M 118.30583269289576 110.29060199501025 l 42.13479602883301 23.686025287553832 a69.33599932052715,69.33599932052715 0 0,0 -0.5938067177417512,1.0353520644999363 l -41.720837314938876 -24.407797197912085" fill="#3aff8f" stroke="none" /><path d="M 118.12598468904814 110.60418214915192 l 30.148821552923238 17.63786082874951 a55.92915080050394,55.92915080050394 0 0,0 -0.4932927778195778,0.8267870697731794 l -29.840747899405432 -18.15420999240879" fill="#6cff28" stroke="none" /><path d="M 117.94076556474637 110.91462005526583 l 12.588986156370444 7.658759058074074 a35.73564259728494,35.73564259728494 0 0,0 -0.3242335018557419,0.5227676431859685 l -12.455288014846738 -7.874323032625316" fill="#ff920d" stroke="none" /><path d="M 117.55443506779139 111.5257021239791 l 21.03510508455955 13.81100299810074 a46.163852044788584,46.163852044788584 0 0,0 -0.4418471858705448,0.6605015922630357 l -20.794254793278284 -14.171041504569583" fill="#e0ff1b" stroke="none" /><path d="M 117.14729908036423 112.12312394758627 l 31.362641341344823 22.173357245527225 a59.4092832977082,59.4092832977082 0 0,0 -0.5975448168075504,0.8299374877990946 l -30.97631673216167 -22.70992833877745" fill="#47ff2c" stroke="none" /><line stroke="#e1ed5e" stroke-width="0.3" x1="143.8653032363475" x2="146.44561519142675" y1="172.8068346515853" y2="177.08958963109032" /><path d="M 144.38136562736335 173.6633856474863 a86.0,86.0 0 0,1 -40.68145358897372,12.25698825130547" fill="none" id="id54" stroke="none" /><text fill="#e1ed5e" style="font-size:6.75px; font-family:Arial;" text-anchor="middle"><textPath startOffset="21.466115282336833" xlink:href="#id54">June</textPath></text><line stroke="#e1ed5e" stroke-width="0.3" x1="102.19456741930631" x2="102.32365962044197" y1="184.97166512339345" y2="189.96999836594603" /><path d="M 102.22038585953345 185.97133177190398 a86.0,86.0 0 0,1 -42.740103519485714,-10.115201625700543" fill="none" id="id55" stroke="none" /><text fill="#e1ed5e" style="font-size:6.75px; font-family:Arial;" text-anchor="middle"><textPath startOffset="22.20632615414155" xlink:href="#id55">July</textPath></text><line stroke="#e1ed5e" stroke-width="0.3" x1="58.666819895761336" x2="56.23545636021788" y1="174.27360380694188" y2="178.64263932499728" /><path d="M 58.180547188652646 175.14741091055294 a86.0,86.0 0 0,1 -31.652253787137756,-30.449443065178592" fill="none" id="id56" stroke="none" /><text fill="#e1ed5e" style="font-size:6.75px; font-family:Arial;" text-anchor="middle"><textPath startOffset="22.20632615414155" xlink:href="#id56">August</textPath></text><line stroke="#e1ed5e" stroke-width="0.3" x1="26.63291911575756" x2="22.317208475507996" y1="142.92168965132927" y2="145.44649492493687" /><path d="M 25.769776987707644 143.4266507060508 a86.0,86.0 0 0,1 -11.730757126820373,-40.83630448921669" fill="none" id="id57" stroke="none" /><text fill="#e1ed5e" style="font-size:6.75px; font-family:Arial;" text-anchor="middle"><textPath startOffset="21.46611528233685" xlink:href="#id57">September</textPath></text><line stroke="#e1ed5e" stroke-width="0.3" x1="15.007084014347285" x2="10.007500721073583" y1="101.09737516637583" y2="101.16192664675087" /><path d="M 14.007167355692545 101.11028546245083 a86.0,86.0 0 0,1 10.666146001902534,-42.60595125391555" fill="none" id="id58" stroke="none" /><text fill="#e1ed5e" style="font-size:6.75px; font-family:Arial;" text-anchor="middle"><textPath startOffset="22.20632615414155" xlink:href="#id58">October</textPath></text><line stroke="#e1ed5e" stroke-width="0.3" x1="26.266209847984243" x2="21.928928074336255" y1="57.711370442889674" y2="55.22380399835377" /><path d="M 25.398753493254645 57.213857153982495 a86.0,86.0 0 0,1 29.58750427330803,-30.492523968695096" fill="none" id="id59" stroke="none" /><text fill="#e1ed5e" style="font-size:6.75px; font-family:Arial;" text-anchor="middle"><textPath startOffset="21.46611528233685" xlink:href="#id59">November</textPath></text><line stroke="#e1ed5e" stroke-width="0.3" x1="56.762969772571076" x2="54.21961505331055" y1="26.818313649435495" y2="22.513508569990535" /><path d="M 56.25429882871897 25.957352633546506 a86.0,86.0 0 0,1 42.265352541879196,-11.944610805530505" fill="none" id="id60" stroke="none" /><text fill="#e1ed5e" style="font-size:6.75px; font-family:Arial;" text-anchor="middle"><textPath startOffset="22.20632615414155" xlink:href="#id60">December</textPath></text></svg>