<?xml version="1.0" encoding="utf-8" ?>
<svg baseProfile="full" height="200mm" version="1.1" viewBox="0,0,200,200" width="200mm" xmlns="http://www.w3.org/2000/svg" xmlns:ev="http://www.w3.org/2001/xml-events" xmlns:xlink="http://www.w3.org/1999/xlink"><defs /><rect fill="#1a1a1a" height="200" width="200" x="0" y="0" /><text alignment-baseline="middle" fill="#e1ed5e" style="dominant-baseline: central; font-size:9.0px; font-family:Arial;" text-anchor="middle" x="100.0" y="100.0">2023</text><line stroke="#e1ed5e" stroke-width="0.3" x1="100.0" x2="100.0" y1="15.0" y2="10.0" /><path d="M 100.0 14.0 a86.0,86.0 0 0,1 42.46469731375804,11.215312516191453" fill="none" id="id1" stroke="none" /><text fill="#e1ed5e" style="font-size:6.75px; font-family:Arial;" text-anchor="middle"><textPath startOffset="22.20632615414155" xlink:href="#id1">January</textPath></text><line stroke="#e1ed5e" stroke-width="0.3" x1="143.23703022742887" x2="145.7803849466894" y1="26.81831364943548" y2="22.513508569990506" /><path d="M 143.74570117128098 25.957352633546492 a86.0,86.0 0 0,1 28.547481713284135,27.462654790039103" fill="none" id="id2" stroke="none" /><text fill="#e1ed5e" style="font-size:6.75px; font-family:Arial;" text-anchor="middle"><textPath startOffset="19.985693538727396" xlink:href="#id2">February</textPath></text><line stroke="#e1ed5e" stroke-width="0.3" x1="172.23445277983987" x2="176.4835382374775" y1="55.19839476539836" y2="52.563006222186495" /><path d="M 173.08426987136738 54.67131705675599 a86.0,86.0 0 0,1 12.851231095245387,41.99856678651699" fill="none" id="id3" stroke="none" /><text fill="#e1ed5e" style="font-size:6.75px; font-family:Arial;" text-anchor="middle"><textPath startOffset="22.20632615414155" xlink:href="#id3">March</textPath></text><path d="M 120.78858239683441 97.02765380044208 l 12.608486461960066 -1.8027581728271755 a33.736713386550136,33.736713386550136 0 0,0 0.07724743610782796,0.575583124067734 l -12.63764989712573 1.5854567066947771" fill="#ff4d07" stroke="none" /><path d="M 120.83666639777658 97.38593545837742 l 21.758331459355926 -2.7296920566354412 a42.928889771697435,42.928889771697435 0 0,0 0.08567307696569915,0.7339946037757213 l -21.802094889325215 2.3547537145348674" fill="#ffd614" stroke="none" /><path d="M 120.87857604477298 97.74499172005257 l 17.760177162143805 -1.9182029688271767 a38.86346538218024,38.86346538218024 0 0,0 0.06611022330479435,0.6657209266472072 l -17.790564511130825 1.6122065114755346" fill="#ff9b0e" stroke="none" /><line stroke="#e1ed5e" stroke-width="0.3" x1="184.98032266829074" x2="189.97916517819016" y1="98.17113171792111" y2="98.06355123074" /><path d="M 185.9800911702706 98.14961562048488 a86.0,86.0 0 0,1 -9.607161424134198,41.387399972396054" fill="none" id="id4" stroke="none" /><text fill="#e1ed5e" style="font-size:6.75px; font-family:Arial;" text-anchor="middle"><textPath startOffset="21.466115282336823" xlink:href="#id4">April</textPath></text><path d="M 120.13307415673323 105.97154293290107 l 31.49643505183967 9.341957054406885 a53.85266477138707,53.85266477138707 0 0,0 -0.2712461981911856,0.886448269888788 l -31.33096208114235 -9.882732296847731" fill="#97ff23" stroke="none" /><line stroke="#e1ed5e" stroke-width="0.3" x1="174.80103733775053" x2="179.2010983576182" y1="140.37084112569926" y2="142.7455964860345" /><path d="M 175.68104954172406 140.8457921977663 a86.0,86.0 0 0,1 -30.038265399797805,32.042727171017184" fill="none" id="id5" stroke="none" /><text fill="#e1ed5e" style="font-size:6.75px; font-family:Arial;" text-anchor="middle"><textPath startOffset="22.206326154141568" xlink:href="#id5">May</textPath></text><path d="M 116.71984013943494 112.70617746262583 l 17.029117017533995 12.941211222843727 a42.38844955369889,42.38844955369889 0 0,0 -0.4464779080940002,0.5771328820391803 l -16.803832292221927 -13.232422098996159" fill="#ffce13" stroke="none" /><path d="M 114.55890576462653 115.13401014063108 l 15.427368504990156 16.036778805523287 a43.25268463457933,43.25268463457933 0 0,0 -0.5409966818999674,0.5115461300467332 l -15.149035988699382 -16.29995957231594" fill="#ffdb14" stroke="none" /><path d="M 112.04921762599082 117.19931262002967 l 4.723144921114079 6.7419187344345435 a29.23174138123673,29.23174138123673 0 0,0 -0.41459394861360616,0.28516149832589854 l -4.6063940878775895 -6.822221022125536" fill="#ff0500" stroke="none" /><path d="M 111.7513745106137 117.40417183066458 l 5.565311850019137 8.242409740365636 a30.94535139228563,30.94535139228563 0 0,0 -0.44402939670848274,0.2942784719554269 l -5.4226077545706906 -8.33698623341238" fill="#ff2103" stroke="none" /><path d="M 111.45004920935366 117.60387380957326 l 5.383801738082337 8.277323938096204 a30.874179091507244,30.874179091507244 0 0,0 -0.44799639124021073,0.2859324931051335 l -5.240523544795195 -8.368770860025146" fill="#ff1f03" stroke="none" /><line stroke="#e1ed5e" stroke-width="0.3" x1="143.8653032363475" x2="146.44561519142675" y1="172.8068346515853" y2="177.08958963109032" /><path d="M 144.38136562736335 173.6633856474863 a86.0,86.0 0 0,1 -40.68145358897372,12.25698825130547" fill="none" id="id6" stroke="none" /><text fill="#e1ed5e" style="font-size:6.75px; font-family:Arial;" text-anchor="middle"><textPath startOffset="21.466115282336833" xlink:href="#id6">June</textPath></text><path d="M 110.8373102113329 117.98757091392108 l 15.465073483535837 25.66864845145808 a50.96744919367854,50.96744919367854 0 0,0 -0.7553670343238734,0.4462841582990188 l -15.020938578183582 -25.931051182050847" fill="#bcff1f" stroke="none" /><path d="M 109.89434966115114 118.52300852407294 l 29.683048983453418 55.56902557221878 a84.0,84.0 0 0,0 -1.2812363898940176,0.6702823242211329 l -28.722121691032903 -56.07173731538463" fill="#4dd2ff" stroke="none" /><path d="M 109.2508944713604 118.85261126421891 l 8.821143790278468 17.976812436759204 a41.024444140979014,41.024444140979014 0 0,0 -0.636635554660816,0.30562375451613555 l -8.510395567617419 -18.125990467774898" fill="#ffbb11" stroke="none" /><path d="M 108.59647513512805 119.15986991738527 l 14.937510790848066 33.29280421840303 a57.49027324303857,57.49027324303857 0 0,0 -0.9063733751926952,0.3973274518262986 l -14.362216740997617 -33.544996223523775" fill="#6bff28" stroke="none" /><path d="M 107.93186726928326 119.44442032107085 l 4.964371496082179 12.169811057426804 a34.143412248140926,34.143412248140926 0 0,0 -0.5460977412459304,0.21730356141469104 l -4.754152678794382 -12.253461463247563" fill="#ff5307" stroke="none" /><path d="M 107.59598834532513 119.57807347666477 l 4.467856784064247 11.515555899379278 a33.35191369442961,33.35191369442961 0 0,0 -0.5370131054628501,0.20305240610121178 l -4.268973457841122 -11.59075655558712" fill="#ff4706" stroke="none" /><path d="M 105.88484417918355 120.15858648285463 l 2.2274461419365035 7.630136724258604 a28.94861640451391,28.94861640451391 0 0,0 -0.47953911302981433,0.13552254332895738 l -2.095775860802083 -7.66734806092608" fill="#ff0000" stroke="none" /><path d="M 105.18746579009965 120.34920634021253 l 7.609541100966658 29.850437243061567 a51.8050924259165,51.8050924259165 0 0,0 -0.866000358556778,0.21284181844921204 l -7.094587457666669 -29.97700031982481" fill="#b1ff20" stroke="none" /><path d="M 104.48393922423573 120.51570834832081 l 2.1838266403395594 9.991828210859875 a31.227694255813088,31.227694255813088 0 0,0 -0.5261249936942588,0.11025460784612784 l -2.0115101852159225 -10.027938799432544" fill="#ff2503" stroke="none" /><path d="M 104.13013068566511 120.58985236759428 l 9.747295053663882 48.592982017468955 a70.56094896401038,70.56094896401038 0 0,0 -1.1929248585131824,0.22862688831914388 l -8.909402580578995 -48.75356610413657" fill="#3aff94" stroke="none" /><path d="M 103.7750983002368 120.6578951692458 l 5.9993089274287605 32.829104053520815 a54.372770046306066,54.372770046306066 0 0,0 -0.9221389512336009,0.16032567671512993 l -5.433321004723109 -32.927508308756956" fill="#91ff24" stroke="none" /><path d="M 103.41894727170886 120.7198165907248 l 7.683049514482844 46.561518545436535 a68.19114598204864,68.19114598204864 0 0,0 -1.1597824649630446,0.18113416889615622 l -6.8804311859112826 -46.6868710216798" fill="#37ff77" stroke="none" /><path d="M 102.70371172650421 120.8252237178851 l 3.995502635446877 30.775187840075077 a52.03346947896364,52.03346947896364 0 0,0 -0.8892088228330015,0.10767080499018833 l -3.465166389562495 -30.839404173790616" fill="#aeff20" stroke="none" /><line stroke="#e1ed5e" stroke-width="0.3" x1="102.19456741930631" x2="102.32365962044197" y1="184.97166512339345" y2="189.96999836594603" /><path d="M 102.22038585953345 185.97133177190398 a86.0,86.0 0 0,1 -42.740103519485714,-10.115201625700543" fill="none" id="id7" stroke="none" /><text fill="#e1ed5e" style="font-size:6.75px; font-family:Arial;" text-anchor="middle"><textPath startOffset="22.20632615414155" xlink:href="#id7">July</textPath></text><line stroke="#e1ed5e" stroke-width="0.3" x1="58.666819895761336" x2="56.23545636021788" y1="174.27360380694188" y2="178.64263932499728" /><path d="M 58.180547188652646 175.14741091055294 a86.0,86.0 0 0,1 -31.652253787137756,-30.449443065178592" fill="none" id="id8" stroke="none" /><text fill="#e1ed5e" style="font-size:6.75px; font-family:Arial;" text-anchor="middle"><textPath startOffset="22.20632615414155" xlink:href="#id8">August</textPath></text><line stroke="#e1ed5e" stroke-width="0.3" x1="26.63291911575756" x2="22.317208475507996" y1="142.92168965132927" y2="145.44649492493687" /><path d="M 25.769776987707644 143.4266507060508 a86.0,86.0 0 0,1 -11.730757126820373,-40.83630448921669" fill="none" id="id9" stroke="none" /><text fill="#e1ed5e" style="font-size:6.75px; font-family:Arial;" text-anchor="middle"><textPath startOffset="21.46611528233685" xlink:href="#id9">September</textPath></text><line stroke="#e1ed5e" stroke-width="0.3" x1="15.007084014347285" x2="10.007500721073583" y1="101.09737516637583" y2="101.16192664675087" /><path d="M 14.007167355692545 101.11028546245083 a86.0,86.0 0 0,1 10.666146001902534,-42.60595125391555" fill="none" id="id10" stroke="none" /><text fill="#e1ed5e" style="font-size:6.75px; font-family:Arial;" text-anchor="middle"><textPath startOffset="22.20632615414155" xlink:href="#id10">October</textPath></text><line stroke="#e1ed5e" stroke-width="0.3" x1="26.266209847984243" x2="21.928928074336255" y1="57.711370442889674" y2="55.22380399835377" /><path d="M 25.398753493254645 57.213857153982495 a86.0,86.0 0 0,1 29.58750427330803,-30.492523968695096" fill="none" id="id11" stroke="none" /><text fill="#e1ed5e" style="font-size:6.75px; font-family:Arial;" text-anchor="middle"><textPath startOffset="21.46611528233685" xlink:href="#id11">November</textPath></text><line stroke="#e1ed5e" stroke-width="0.3" x1="56.762969772571076" x2="54.21961505331055" y1="26.818313649435495" y2="22.513508569990535" /><path d="M 56.25429882871897 25.957352633546506 a86.0,86.0 0 0,1 42.265352541879196,-11.944610805530505" fill="none" id="id12" stroke="none" /><text fill="#e1ed5e" style="font-size:6.75px; font-family:Arial;" text-anchor="middle"><textPath startOffset="22.20632615414155" xlink:href="#id12">December</textPath></text></svg>