<?xml version="1.0" encoding="utf-8" ?>
<svg baseProfile="full" height="200mm" version="1.1" viewBox="0,0,200,200" width="200mm" xmlns="http://www.w3.org/2000/svg" xmlns:ev="http://www.w3.org/2001/xml-events" xmlns:xlink="http://www.w3.org/1999/xlink"><defs /><rect fill="#1a1a1a" height="200" width="200" x="0" y="0" /><text alignment-baseline="middle" fill="#e1ed5e" style="dominant-baseline: central; font-size:9.0px; font-family:Arial;" text-anchor="middle" x="100.0" y="100.0">2018</text><line stroke="#e1ed5e" stroke-width="0.3" x1="100.0" x2="100.0" y1="15.0" y2="10.0" /><path d="M 100.0 14.0 a86.0,86.0 0 0,1 42.46469731375804,11.215312516191453" fill="none" id="id25" stroke="none" /><text fill="#e1ed5e" style="font-size:6.75px; font-family:Arial;" text-anchor="middle"><textPath startOffset="22.20632615414155" xlink:href="#id25">January</textPath></text><path d="M 100.36148047927253 79.00311137660856 l 0.5034604766003096 -29.24391263044242 a50.248246073712664,50.248246073712664 0 0,0 0.8646846552006581,0.022332253575610538 l -1.0067717669958354 29.23091358472445" fill="#98ff23" stroke="none" /><path d="M 100.72285384407766 79.0124445844662 l 1.0677908627106885 -31.002560319695196 a52.02094330775303,52.02094330775303 0 0,0 0.8946590753976122,0.03852590175197787 l -1.6012907704976322 30.979586691419023" fill="#85ff25" stroke="none" /><path d="M 101.08401301168833 79.027996857942 l 1.0497309762120317 -20.30876114406271 a41.33587259817022,41.33587259817022 0 0,0 0.7102643608452652,0.04284508589402101 l -1.3991573858969089 20.287682788788388" fill="#fffe18" stroke="none" /><path d="M 101.44485096284872 79.0497635885617 l 1.157378460418343 -16.78190552987131 a37.82176798419731,37.82176798419731 0 0,0 0.649111249388858,0.05038352585364983 l -1.4460798991695423 16.759496741829196" fill="#ffd213" stroke="none" /><path d="M 101.80526077348638 79.07773832637324 l 2.657247487944429 -30.79645228594466 a51.91087895244412,51.91087895244412 0 0,0 0.8895914745545022,0.08447742961610828 l -3.1869640895891758 30.746149311813376" fill="#86ff25" stroke="none" /><path d="M 102.16513564639614 79.11191278185805 l 1.8073712374059099 -17.436564820007863 a38.529985268451824,38.529985268451824 0 0,0 0.6591073153194129,0.07405838657870735 l -2.107245256235048 17.402870479958555" fill="#ffdb14" stroke="none" /><path d="M 102.52436894288641 79.15227682838746 l 1.7621070685750926 -14.552516369651867 a35.658811480133984,35.658811480133984 0 0,0 0.6087218435496841,0.07902956572663658 l -2.012343640632623 14.520028480761095" fill="#ffb610" stroke="none" /><path d="M 102.88285421437855 79.19881850522331 l 2.0119080988447524 -14.516885837011417 a35.655638798872594,35.655638798872594 0 0,0 0.607217259862304,0.08948803978403569 l -2.2614943391357123 14.480103313066412" fill="#ffb610" stroke="none" /><path d="M 105.36241919743992 79.69619591428918 l 3.822453100607822 -14.47300854782317 a35.96927266542062,35.96927266542062 0 0,0 0.5972648238819072,0.16325503817635623 l -4.07101581371344 14.40506696882052" fill="#ffba11" stroke="none" /><path d="M 106.40334571778207 80.00007090966166 l 4.465754981671878 -13.948143190244421 a35.64560227549175,35.64560227549175 0 0,0 0.5827498844138613,0.19212347467140029 l -4.705187688328156 13.869205991313786" fill="#ffb610" stroke="none" /><path d="M 108.09893153111575 80.62456947434976 l 11.919291546558101 -28.515046014161214 a51.905943767527674,51.905943767527674 0 0,0 0.821389913389143,0.35167629432288916 l -12.40836521773756 28.305650191875532" fill="#86ff25" stroke="none" /><path d="M 108.43124777332544 80.76684994638697 l 6.072095302427095 -13.851510859507908 a36.1239774680083,36.1239774680083 0 0,0 0.5673492248120124,0.2545530593401972 l -6.309626645705888 13.74493746965118" fill="#ffbc11" stroke="none" /><path d="M 110.36928655335952 81.73862282372117 l 7.51188901031371 -13.229207025746508 a36.21316518786714,36.21316518786714 0 0,0 0.5394093523113174,0.3124607133232815 l -7.738495095090356 13.097942155033177" fill="#ffbe11" stroke="none" /><line stroke="#e1ed5e" stroke-width="0.3" x1="143.23703022742887" x2="145.7803849466894" y1="26.81831364943548" y2="22.513508569990506" /><path d="M 143.74570117128098 25.957352633546492 a86.0,86.0 0 0,1 28.547481713284135,27.462654790039103" fill="none" id="id26" stroke="none" /><text fill="#e1ed5e" style="font-size:6.75px; font-family:Arial;" text-anchor="middle"><textPath startOffset="19.985693538727396" xlink:href="#id26">February</textPath></text><path d="M 110.68208982089419 81.91981866633111 l 7.494071106175159 -12.684237522701645 a35.73265024619541,35.73265024619541 0 0,0 0.5268659043237988,0.3174308122122488 l -7.711299076716595 12.553360101030782" fill="#ffb711" stroke="none" /><path d="M 110.99172775467656 82.1063720568725 l 7.919553253636066 -12.892380757525283 a36.1305256132821,36.1305256132821 0 0,0 0.527128622030144,0.3300878947564035 l -8.140301028038474 12.754148521445934" fill="#ffbc11" stroke="none" /><path d="M 111.2981086023043 82.29822771554956 l 16.731212266476007 -26.21430896172805 a52.09860862236143,52.09860862236143 0 0,0 0.7517903011111872,0.48898532425043467 l -17.179969593371474 25.922424713318087" fill="#84ff25" stroke="none" /><path d="M 111.60114157652 82.49532879139004 l 8.425523489747393 -12.713060820406733 a36.251601932244554,36.251601932244554 0 0,0 0.5171814171020573,0.3492032014754089 l -8.643109601255992 12.566145706632655" fill="#ffbe11" stroke="none" /><path d="M 111.90073688211348 82.69761687909136 l 8.643880219000156 -12.567266101410002 a36.25296176170619,36.25296176170619 0 0,0 0.5111130035955157,0.35806732209892 l -8.858924362179323 12.416613936547146" fill="#ffbe11" stroke="none" /><path d="M 112.48926042617603 83.11751280151076 l 9.146979755876648 -12.364524668712459 a36.38014008185934,36.38014008185934 0 0,0 0.5002335893069381,0.3767655685360853 l -9.358459498941968 12.205242510670526" fill="#ffc011" stroke="none" /><path d="M 112.77801427241765 83.33499621200491 l 9.466414335787778 -12.346036512509391 a36.557558225667144,36.557558225667144 0 0,0 0.4960816170085103,0.38719957079136474 l -9.677528507955719 12.181258552494802" fill="#ffc212" stroke="none" /><path d="M 114.42810811169701 84.74124197986012 l 13.14158876977592 -13.898171644252612 a40.12748102722907,40.12748102722907 0 0,0 0.4978038666294259,0.47888692528802107 l -13.378875880017764 13.66990163220229" fill="#ffef16" stroke="none" /><path d="M 114.94478906791727 85.2469230424477 l 22.98783448498995 -22.692945996312726 a53.30186267540711,53.30186267540711 0 0,0 0.6389516022185417,0.6584957915176942 l -23.3750503509116 22.29388600924492" fill="#77ff27" stroke="none" /><path d="M 115.4437574822437 85.77008943001954 l 14.101441981447456 -12.99309824921007 a40.17475601069684,40.17475601069684 0 0,0 0.46422190631879684,0.5126054235805786 l -14.323007528382288 12.748440038359941" fill="#fff016" stroke="none" /><path d="M 115.68641384162765 86.03803664274999 l 18.648209156158853 -16.59816039187246 a45.96506825799142,45.96506825799142 0 0,0 0.5209552493619781,0.5955419062413874 l -18.93115626909868 16.274702929428127" fill="#c9ff1d" stroke="none" /><path d="M 115.9244219780498 86.31012108654704 l 14.535389597370909 -12.49575801383283 a40.16824246214623,40.16824246214623 0 0,0 0.446229744823563,0.5281952697642753 l -14.748329955681589 12.243703794439448" fill="#fff016" stroke="none" /><path d="M 116.15771136456269 86.58626213691792 l 23.636148185146567 -19.622153700794247 a51.71964219986621,51.71964219986621 0 0,0 0.5627626777113346,0.6898805010660681 l -23.97040935493431 19.212389030120075" fill="#88ff25" stroke="none" /><path d="M 117.04232023915458 87.72973835380427 l 14.635924103264491 -10.537685928956984 a39.03477471702534,39.03477471702534 0 0,0 0.38790785105912606,0.5486681458087813 l -14.815144574127501 10.284191282816408" fill="#ffe115" stroke="none" /><line stroke="#e1ed5e" stroke-width="0.3" x1="172.23445277983987" x2="176.4835382374775" y1="55.19839476539836" y2="52.563006222186495" /><path d="M 173.08426987136738 54.67131705675599 a86.0,86.0 0 0,1 12.851231095245387,41.99856678651699" fill="none" id="id27" stroke="none" /><text fill="#e1ed5e" style="font-size:6.75px; font-family:Arial;" text-anchor="middle"><textPath startOffset="22.20632615414155" xlink:href="#id27">March</textPath></text><path d="M 118.56541770881063 90.18545643968196 l 12.9114685056478 -6.825602960509582 a35.60461826775531,35.60461826775531 0 0,0 0.28176912819218725,0.5442882703550993 l -13.027047067000103 6.602341967894137" fill="#ffb610" stroke="none" /><path d="M 118.73160827565052 90.50648371742162 l 27.302123048893602 -13.837207457010459 a51.60840134971562,51.60840134971562 0 0,0 0.3947796630625539,0.7958517109525362 l -27.536262724909562 13.365196157558973" fill="#89ff24" stroke="none" /><path d="M 119.04729006885535 91.15688171328212 l 17.41781168474757 -8.086597540500202 a40.20346905294335,40.20346905294335 0 0,0 0.2860145298355009,0.6301951038299137 l -17.554428531546417 7.785580427828225" fill="#fff016" stroke="none" /><path d="M 119.196687751892 91.48605970444005 l 13.743424776477683 -6.095358715824181 a36.03446448867649,36.03446448867649 0 0,0 0.24659463394603937,0.5691744140598894 l -13.846310120266402 5.857885157177689" fill="#ffbb11" stroke="none" /><path d="M 119.34039704204932 91.81776055985345 l 29.832597033660747 -12.621118972899485 a53.39253756501437,53.39253756501437 0 0,0 0.35081010790885814,0.849514502309456 l -30.0454288284558 12.105729900136726" fill="#76ff27" stroke="none" /><path d="M 119.47837535516314 92.15188598940014 l 15.208718116873493 -6.127808482993422 a37.39680284576119,37.39680284576119 0 0,0 0.23543326428628616,0.5991519776748816 l -15.31194493104148 5.865107500422756" fill="#ffcd13" stroke="none" /><path d="M 119.61058180528143 92.48833698450437 l 14.486727292869194 -5.549015052277031 a36.5131181813444,36.5131181813444 0 0,0 0.21976621893427686,0.5888642058540446 l -14.580098100305097 5.298827709393653" fill="#ffc112" stroke="none" /><path d="M 119.7369772167798 92.82701384747503 l 15.802487902416674 -5.743079381127845 a37.81373202724372,37.81373202724372 0 0,0 0.21706328090322213,0.6136671251691715 l -15.899004264129704 5.470214629532059" fill="#ffd213" stroke="none" /><path d="M 119.97218684219823 93.5106431181261 l 11.406949128789002 -3.7063424458703387 a32.99397610272925,32.99397610272925 0 0,0 0.17085304618355515,0.5416508462069816 l -11.469057658740763 3.5094414332369377" fill="#ff930d" stroke="none" /><path d="M 120.37134235888165 94.90015583598534 l 14.097404229242086 -3.5292011404889347 a35.532448750732996,35.532448750732996 0 0,0 0.14342791335598004,0.5946012974434696 l -14.156064942858885 3.2860146113860593" fill="#ffb510" stroke="none" /><path d="M 120.45610955862082 95.25157060432595 l 19.164331546632198 -4.448571953708644 a40.67387597949538,40.67387597949538 0 0,0 0.15244106390329917,0.6833633987896817 l -19.238066997537533 4.118030385368998" fill="#fff617" stroke="none" /><path d="M 120.67395015179393 96.31383870115 l 14.670121575797886 -2.615679829209517 a35.901484758829376,35.901484758829376 0 0,0 0.10323923015456148,0.6093237804099587 l -14.712972667472672 2.3627702604837206" fill="#ffb911" stroke="none" /><path d="M 120.73433829027371 96.67025291283417 l 32.48252730649526 -5.216399924048859 a53.89871438802476,53.89871438802476 0 0,0 0.13922321936898835,0.9173070649145572 l -32.56750641930355 4.656493746742219" fill="#71ff27" stroke="none" /><path d="M 120.78858239683441 97.02765380044208 l 30.713453846465953 -4.391401783593564 a52.02580630384878,52.02580630384878 0 0,0 0.11912423425386175,0.8876139113316942 l -30.784494079777648 3.8620695301972057" fill="#85ff25" stroke="none" /><path d="M 120.83666639777658 97.38593545837742 l 14.415691017139922 -1.808520903080431 a35.52869214205214,35.52869214205214 0 0,0 0.07090452123416997,0.6074666372729725 l -14.44468589137768 1.560110527482606" fill="#ffb510" stroke="none" /><path d="M 120.87857604477298 97.74499172005257 l 23.36427650548947 -2.5234784624141167 a44.50015659895132,44.50015659895132 0 0,0 0.07569873815740383,0.7622759626727286 l -23.404252369329104 2.120926969036953" fill="#daff1c" stroke="none" /><path d="M 120.94382443527127 98.46500227214037 l 15.103998509709418 -1.1069899609621587 a36.144510482513965,36.144510482513965 0 0,0 0.040136601089854,0.6208954539799079 l -15.12081570180369 0.8468354427292157" fill="#ffbd11" stroke="none" /><path d="M 120.96714384426684 98.82574320788733 l 2.4923510678142655 -0.1395831588435644 a23.496256658171923,23.496256658171923 0 0,0 0.019139817687666944,0.40401130072387015 l -2.4943844937354287 0.09666075149669448" fill="#ff0e01" stroke="none" /><path d="M 120.98425023603335 99.18683210126433 l 32.33304744530515 -1.2529490429765986 a53.357315067920105,53.357315067920105 0 0,0 0.027665273785044176,0.9180757517756879 l -32.34982441354583 0.6962031437759115" fill="#76ff27" stroke="none" /><line stroke="#e1ed5e" stroke-width="0.3" x1="184.98032266829074" x2="189.97916517819016" y1="98.17113171792111" y2="98.06355123074" /><path d="M 185.9800911702706 98.14961562048488 a86.0,86.0 0 0,1 -9.607161424134198,41.387399972396054" fill="none" id="id28" stroke="none" /><text fill="#e1ed5e" style="font-size:6.75px; font-family:Arial;" text-anchor="middle"><textPath startOffset="21.466115282336823" xlink:href="#id28">April</textPath></text><path d="M 120.99513854157772 99.54816195383933 l 14.7325870559911 -0.3170611776192036 a35.73599841044745,35.73599841044745 0 0,0 0.007941888105851743,0.6151079860659853 l -14.735861951214668 0.06341693349275557" fill="#ffb711" stroke="none" /><path d="M 120.99980553446 99.90962569577887 l 9.747950178770148 -0.04195106538215124 a30.748040448196328,30.748040448196328 0 0,0 -0.0022778480889395244,0.5292916755158428 l -9.747228033391705 -0.12585008833737626" fill="#ff750a" stroke="none" /><path d="M 120.8583938346157 102.4346265915055 l 1.5043914954785278 0.17559508982174915 a22.514604703293116,22.514604703293116 0 0,0 -0.048243963407238334,0.38455185601470265 l -1.5011460228244413 -0.20146470012384673" fill="#ff0000" stroke="none" /><path d="M 120.81339534386255 102.79330883721812 l 20.913402466247565 2.8067305194630143 a42.100903746620304,42.100903746620304 0 0,0 -0.10257774729783581,0.7174285256878583 l -20.861990667933128 -3.166304517131282" fill="#f7ff19" stroke="none" /><path d="M 120.76222939487914 103.15116336523771 l 15.144181897978964 2.298490700867487 a36.31761420264422,36.31761420264422 0 0,0 -0.09912675866091056,0.6172624208053703 l -15.102373384956763 -2.5588323513660622" fill="#ffbf11" stroke="none" /><path d="M 120.70491114924044 103.5080841355445 l 15.07863292441606 2.554809946614211 a36.2935353902426,36.2935353902426 0 0,0 -0.10966447336187876,0.6150566054756043 l -15.032422008714994 -2.8139853028230335" fill="#ffbf11" stroke="none" /><path d="M 120.5718875245553 104.21870165774334 l 3.8463219791398657 0.7887698632536032 a24.926366088941723,24.926366088941723 0 0,0 -0.08981321196315331,0.4195774259340159 l -3.8321747284522694 -0.8548611086037882" fill="#ff2303" stroke="none" /><line stroke="#e1ed5e" stroke-width="0.3" x1="174.80103733775053" x2="179.2010983576182" y1="140.37084112569926" y2="142.7455964860345" /><path d="M 175.68104954172406 140.8457921977663 a86.0,86.0 0 0,1 -30.038265399797805,32.042727171017184" fill="none" id="id29" stroke="none" /><text fill="#e1ed5e" style="font-size:6.75px; font-family:Arial;" text-anchor="middle"><textPath startOffset="22.206326154141568" xlink:href="#id29">May</textPath></text><path d="M 118.30583269289576 110.29060199501025 l 16.71869165711068 9.39839255645512 a40.1792709290727,40.1792709290727 0 0,0 -0.34410293679268816,0.5999724748209112 l -16.554436724165612 -9.684784877134346" fill="#fff016" stroke="none" /><path d="M 118.12598468904814 110.60418214915192 l 13.9771745603998 8.177018104761258 a37.19336388084578,37.19336388084578 0 0,0 -0.3280439184689258,0.5498204764048557 l -13.834349766232647 -8.416400675052218" fill="#ffca12" stroke="none" /><path d="M 117.75023020441432 111.22182372390056 l 26.02312634267359 16.452008407736102 a51.78752483222663,51.78752483222663 0 0,0 -0.4828450238042958,0.749386199525955 l -25.736076455492242 -16.89751620718351" fill="#87ff25" stroke="none" /><path d="M 117.55443506779139 111.5257021239791 l 16.00122425279969 10.50591167671013 a40.14192669893026,40.14192669893026 0 0,0 -0.38420964806264035,0.5743412936040426 l -15.818011499326328 -10.77978988451998" fill="#ffef16" stroke="none" /><path d="M 116.27256486870786 113.27417163493432 l 23.86966343281747 19.471423947716893 a51.80417476491955,51.80417476491955 0 0,0 -0.5696091035920896,0.6861308593034885 l -23.53095832933184 -19.87941606413415" fill="#87ff25" stroke="none" /><path d="M 116.0416608686014 113.55231037782055 l 13.028778545146572 11.006968177049488 a38.05586171464379,38.05586171464379 0 0,0 -0.4270547079902112,0.4967611051012335 l -12.837381327585582 -11.22960638131225" fill="#ffd513" stroke="none" /><path d="M 113.75828350139079 115.86535959552629 l 9.625437663549956 11.099569926808474 a35.69181754498051,35.69181754498051 0 0,0 -0.46762148620653315,0.3985171753766967 l -9.432950700766376 -11.263611492408117" fill="#ffb711" stroke="none" /><path d="M 113.20401910651253 116.32954008644616 l 9.688827700784069 11.982268357411614 a36.409352264274716,36.409352264274716 0 0,0 -0.49073306444845266,0.38986802558457423 l -9.481137143618266 -12.147270297001313" fill="#ffc011" stroke="none" /><path d="M 112.92097659922987 116.55440617244103 l 11.789174871095963 15.104337335127585 a40.16052323071084,40.16052323071084 0 0,0 -0.5486143030266952,0.4206540534468712 l -11.527431839575774 -15.305030730401828" fill="#fff016" stroke="none" /><path d="M 112.63410532772338 116.77436683061366 l 18.605732786830718 24.702927419310477 a51.92584543094447,51.92584543094447 0 0,0 -0.7185919574264279,0.5315971509966467 l -18.177755858985726 -25.019534519046893" fill="#86ff25" stroke="none" /><path d="M 112.34349029814194 116.9893568818739 l 11.26814200593311 15.509266934268108 a40.17050821194515,40.17050821194515 0 0,0 -0.5629087044379726,0.4016204144634188 l -10.99950597364625 -15.700931610575747" fill="#fff016" stroke="none" /><path d="M 112.04921762599082 117.19931262002967 l 10.995819244725379 15.695669094350743 a40.16408279000146,40.16408279000146 0 0,0 -0.5696474068780225,0.39180868077308123 l -10.724014953224474 -15.882618564488917" fill="#fff016" stroke="none" /><path d="M 111.7513745106137 117.40417183066458 l 13.45461613729109 19.92672865268231 a45.04373536286498,45.04373536286498 0 0,0 -0.6463246251472676,0.4283487185430046 l -13.109616813403859 -20.155375392316632" fill="#d3ff1c" stroke="none" /><path d="M 111.45004920935366 117.60387380957326 l 12.991336382229045 19.973525188315556 a44.82680275329663,44.82680275329663 0 0,0 -0.650454407380107,0.4151507779751121 l -12.645600172802009 -20.19419039511448" fill="#d6ff1c" stroke="none" /><line stroke="#e1ed5e" stroke-width="0.3" x1="143.8653032363475" x2="146.44561519142675" y1="172.8068346515853" y2="177.08958963109032" /><path d="M 144.38136562736335 173.6633856474863 a86.0,86.0 0 0,1 -40.68145358897372,12.25698825130547" fill="none" id="id30" stroke="none" /><text fill="#e1ed5e" style="font-size:6.75px; font-family:Arial;" text-anchor="middle"><textPath startOffset="21.466115282336833" xlink:href="#id30">June</textPath></text><path d="M 109.89434966115114 118.52300852407294 l 11.436268121860424 21.40960236492781 a45.27260393899681,45.27260393899681 0 0,0 -0.6905346146654994,0.36125507371159044 l -11.066042604668429 -21.603286857584116" fill="#d1ff1d" stroke="none" /><path d="M 109.2508944713604 118.85261126421891 l 6.533760299034216 13.315300849298813 a35.83196751454686,35.83196751454686 0 0,0 -0.5560563949341909,0.26694086105988307 l -6.303591236099792 -13.425795986858256" fill="#ffb911" stroke="none" /><path d="M 108.92500713936063 119.00905698771935 l 6.547167182539079 13.944579778781785 a36.40508693006718,36.40508693006718 0 0,0 -0.5695350558760139,0.26144561022219664 l -6.306164130895646 -14.055212459338057" fill="#ffc011" stroke="none" /><path d="M 106.91757812671514 119.82793768551818 l 4.9084675203618255 14.069199702893652 a35.90085345469681,35.90085345469681 0 0,0 -0.5852356548060874,0.198543708954128 l -4.665562132618511 -14.151606398745903" fill="#ffb911" stroke="none" /><path d="M 106.57524785965236 119.94407469862006 l 4.6065328767970755 13.972558564712022 a35.71232605638278,35.71232605638278 0 0,0 -0.5854757894459631,0.18745085906454576 l -4.365335742260172 -14.049782270436275" fill="#ffb711" stroke="none" /><path d="M 106.2309692047433 120.05430185196036 l 4.515950939147604 14.53453552833613 a36.21993876167882,36.21993876167882 0 0,0 -0.596982249031372,0.1798658545130904 l -4.265093715675986 -14.610116751954946" fill="#ffbe11" stroke="none" /><path d="M 105.53697534728816 120.25689768951611 l 5.038286145224093 18.43245464769802 a40.10862924494066,40.10862924494066 0 0,0 -0.667540440325573,0.17630349747063256 l -4.720255262087022 -18.516449494472237" fill="#ffef16" stroke="none" /><path d="M 105.18746579009965 120.34920634021253 l 3.6363378288435837 14.264496730384604 a35.7206935902026,35.7206935902026 0 0,0 -0.5971253405492789,0.146758880719656 l -3.3902592035510937 -14.32497686941829" fill="#ffb711" stroke="none" /><path d="M 104.83641907484287 120.43548508189849 l 3.3945913068967783 14.343281452194102 a35.739503823321684,35.739503823321684 0 0,0 -0.5998788080198887,0.13653046366760485 l -3.1471923494840275 -14.39958864943939" fill="#ffb711" stroke="none" /><path d="M 104.48393922423573 120.51570834832081 l 3.1466584620874296 14.397145913806346 a35.73700342472842,35.73700342472842 0 0,0 -0.6020979502188798,0.12617547955708228 l -2.8983690504391717 -14.44917737408997" fill="#ffb711" stroke="none" /><path d="M 104.13013068566511 120.58985236759428 l 2.8924509789460187 14.419674138570615 a35.706912487948244,35.706912487948244 0 0,0 -0.603671919851222,0.11569516019076517 l -2.643811444523092 -14.467326497109848" fill="#ffb711" stroke="none" /><path d="M 103.7750983002368 120.6578951692458 l 2.6472289645425513 14.486027671141889 a35.72592336255359,35.72592336255359 0 0,0 -0.6058963976516276,0.10534285515518632 l -2.397483595418874 -14.529449104818081" fill="#ffb711" stroke="none" /><path d="M 103.41894727170886 120.7198165907248 l 2.3702648495933594 14.364495574823355 a35.558739250922024,35.558739250922024 0 0,0 -0.6047764950345471,0.09445365066758757 l -2.122652490950295 -14.403167532838049" fill="#ffb510" stroke="none" /><path d="M 103.06178313531738 120.77559828337769 l 2.1463774571309155 14.564152274366515 a35.72146282335472,35.72146282335472 0 0,0 -0.6090873580012326,0.08441395780232484 l -1.8953615079428523 -14.598940797661443" fill="#ffb711" stroke="none" /><path d="M 102.70371172650421 120.8252237178851 l 0.28275053350026147 2.1778738682720817 a23.19615173662866,23.19615173662866 0 0,0 -0.3964029880483394,0.047998881396272924 l -0.24522012240054175 -2.1824182783937056" fill="#ff0a01" stroke="none" /><path d="M 102.34483914955558 120.86867818915974 l 1.645378662100506 14.643596259126536 a35.73574505554437,35.73574505554437 0 0,0 -0.6118766218088697,0.06342351366305465 l -1.3930694436860336 -14.66974914124535" fill="#ffb711" stroke="none" /><path d="M 101.98527174616119 120.90594882070398 l 1.3924277915851178 14.662992209350064 a35.72895772572653,35.72895772572653 0 0,0 -0.6127612926710787,0.052871622696713215 l -1.1398221811724973 -14.68478808432544" fill="#ffb711" stroke="none" /><path d="M 101.62511606390274 120.93702456842531 l 1.1400459981308428 14.687671608314773 a35.7318499229238,35.7318499229238 0 0,0 -0.6136302718316585,0.042319536241845875 l -0.8870529655202539 -14.705119489072903" fill="#ffb711" stroke="none" /><path d="M 101.26447882468166 120.96189622390904 l 0.8862257316874526 14.691406021185882 a35.71811152719131,35.71811152719131 0 0,0 -0.6140316397644807,0.03173842205650542 l -0.6332060235094922 -14.70448425000459" fill="#ffb711" stroke="none" /><path d="M 100.90346689309514 120.98055641714683 l 0.6308609943903755 14.65002733950848 a35.66360414913704,35.66360414913704 0 0,0 -0.6135492554768878,0.02113187691808144 l -0.3785913872388354 -14.658716014852654" fill="#ffb610" stroke="none" /><line stroke="#e1ed5e" stroke-width="0.3" x1="102.19456741930631" x2="102.32365962044197" y1="184.97166512339345" y2="189.96999836594603" /><path d="M 102.22038585953345 185.97133177190398 a86.0,86.0 0 0,1 -42.740103519485714,-10.115201625700543" fill="none" id="id31" stroke="none" /><text fill="#e1ed5e" style="font-size:6.75px; font-family:Arial;" text-anchor="middle"><textPath startOffset="22.20632615414155" xlink:href="#id31">July</textPath></text><path d="M 100.54218724476979 120.99299961872073 l 0.303728157979544 11.760079504206248 a32.764001051479106,32.764001051479106 0 0,0 -0.5639157476382648,0.009708320998498358 l -0.10125272044861124 -11.763565302483906" fill="#ff900d" stroke="none" /><path d="M 99.81925306533755 120.99922214144158 l -0.10141729909973465 11.7826860895739 a32.78312254684619,32.78312254684619 0 0,0 -0.5642448561723217,-0.009713986900373506 l 0.3042218451647243 -11.779194625394366" fill="#ff900d" stroke="none" /><path d="M 99.45781275523022 120.99299961872073 l -0.3041812735910172 11.777623730764182 a32.78155112838132,32.78155112838132 0 0,0 -0.5639670125343481,-0.019424164218845782 l 0.5068686378000083 -11.770642768119243" fill="#ff900d" stroke="none" /><path d="M 99.09653310690486 120.98055641714683 l -0.5087516687220021 11.814371029548697 a32.82531991466899,32.82531991466899 0 0,0 -0.5643015308257058,-0.029167943461917416 l 0.7120412679611967 -11.803863279324577" fill="#ff910d" stroke="none" /><path d="M 98.73552117531835 120.96189622390904 l -0.7089766088437041 11.753058896421043 a32.77442318139744,32.77442318139744 0 0,0 -0.5628417853905814,-0.03881686485929497 l 0.9111811550132155 -11.739113687045464" fill="#ff900d" stroke="none" /><path d="M 93.42475214034765 119.94407469862007 l -5.5194000830336964 16.74147194101577 a38.62783764471442,38.62783764471442 0 0,0 -0.6296894274748842,-0.21362484222101782 l 5.806759243445806 -16.64398411189663" fill="#ffdc14" stroke="none" /><path d="M 93.08242187328487 119.8279376855182 l -3.8854294254776436 11.136853262607476 a32.7951711481105,32.7951711481105 0 0,0 -0.5314073927382073,-0.19054378446649486 l 4.076556378845577 -11.068321937101024" fill="#ff910d" stroke="none" /><path d="M 91.7346041902142 119.30500536409082 l -4.639668265897191 10.83660393549483 a32.78806627366658,32.78806627366658 0 0,0 -0.5169262314839396,-0.22660526882093832 l 4.825515172038874 -10.75513411337944" fill="#ff900d" stroke="none" /><path d="M 90.10565033884886 118.52300852407294 l -7.612642311708988 14.251471118324968 a37.15725075631596,37.15725075631596 0 0,0 -0.5615649411300662,-0.306209980870809 l 7.856830064707694 -14.118320485694392" fill="#ffca12" stroke="none" /><line stroke="#e1ed5e" stroke-width="0.3" x1="58.666819895761336" x2="56.23545636021788" y1="174.27360380694188" y2="178.64263932499728" /><path d="M 58.180547188652646 175.14741091055294 a86.0,86.0 0 0,1 -31.652253787137756,-30.449443065178592" fill="none" id="id32" stroke="none" /><text fill="#e1ed5e" style="font-size:6.75px; font-family:Arial;" text-anchor="middle"><textPath startOffset="22.20632615414155" xlink:href="#id32">August</textPath></text><path d="M 89.4739219176387 118.17145234162733 l -5.853374703205203 10.104838537652187 a32.67774624181153,32.67774624181153 0 0,0 -0.4843030729920614,-0.2861347920555651 l 6.026445647225647 -10.002585173302872" fill="#ff8f0d" stroke="none" /><path d="M 88.54995079064634 117.60387380957326 l -6.434391535786301 9.892552823688883 a32.80101672760755,32.80101672760755 0 0,0 -0.4706560117658047,-0.311925140510476 l 6.603722246292068 -9.78032966208709" fill="#ff910d" stroke="none" /><path d="M 88.24862548938628 117.40417183066458 l -6.602512103409594 9.778537400709732 a32.79885417202659,32.79885417202659 0 0,0 -0.46518632892361483,-0.31995939882907265 l 6.769855316956099 -9.663437212515557" fill="#ff910d" stroke="none" /><path d="M 87.95078237400918 117.19931262002967 l -6.771119802105094 9.665242165837508 a32.801057982178676,32.801057982178676 0 0,0 -0.4596407134190151,-0.3279414448066137 l 6.936487843372996 -9.547256459186675" fill="#ff910d" stroke="none" /><path d="M 87.65650970185807 116.9893568818739 l -7.34639535122623 10.111445742061262 a33.49843428798852,33.49843428798852 0 0,0 -0.4635784986445507,-0.3429442907005814 l 7.519358820289344 -9.983491502620915" fill="#ff9a0e" stroke="none" /><path d="M 87.36589467227662 116.77436683061367 l -7.1076614544716135 9.436878785828851 a32.814124282815385,32.814124282815385 0 0,0 -0.4482585503040001,-0.3437055416479361 l 7.2690487332691 -9.313133902353547" fill="#ff910d" stroke="none" /><path d="M 86.79598089348748 116.32954008644616 l -8.157408203380129 10.088346827133869 a33.97374465222418,33.97374465222418 0 0,0 -0.45157557036337626,-0.3716159513007451 l 8.329853902288194 -9.946435756975943" fill="#ffa00e" stroke="none" /><path d="M 86.51685102203217 116.09983520530335 l -7.572604861295643 9.042226748436782 a32.79432952547384,32.79432952547384 0 0,0 -0.4296596297602956,-0.3661652577483307 l 7.727129967632995 -8.9105371004655" fill="#ff910d" stroke="none" /><path d="M 86.24171649860922 115.8653595955263 l -8.512788944957924 9.816519463269218 a33.993522616832635,33.993522616832635 0 0,0 -0.4387716312826357,-0.3871649495041273 l 8.680502929147147 -9.668531371992803" fill="#ffa10e" stroke="none" /><path d="M 85.97065885151581 115.62618273729859 l -8.862891294916826 9.871679467296065 a34.26653299134884,34.26653299134884 0 0,0 -0.4355120520761855,-0.3978299336805039 l 9.031502896459866 -9.717656767028986" fill="#ffa40f" stroke="none" /><path d="M 85.70375840098266 115.38237550388516 l -9.022113467138505 9.707553990954029 a34.25274069395495,34.25274069395495 0 0,0 -0.42842702639073266,-0.4051044945191219 l 9.187876327920055 -9.550814859688977" fill="#ffa40f" stroke="none" /><path d="M 85.44109423537348 115.13401014063109 l -10.213426043361546 10.616875732953444 a35.73201010969622,35.73201010969622 0 0,0 -0.4395888815975533,-0.4302302418383995 l 10.394664877334893 -10.439495388192475" fill="#ffb711" stroke="none" /><path d="M 85.18274418774928 114.88116024355367 l -13.515111150998091 13.57339964267591 a40.15451401846644,40.15451401846644 0 0,0 -0.48560072768231266,-0.4919109733731978 l 13.746752503735937 -13.338748175322047" fill="#ffef16" stroke="none" /><path d="M 84.67929136418377 114.36230785411682 l -9.665056682315448 9.060450322408212 a34.24783305741726,34.24783305741726 0 0,0 -0.3994823678941416,-0.4335592116232107 l 9.819585458205319 -8.892739855983656" fill="#ffa40f" stroke="none" /><path d="M 84.43433777217949 114.09645910891817 l -9.072727179067055 8.216375623101053 a33.2402290356705,33.2402290356705 0 0,0 -0.3804283278278931,-0.42741525920765533 l 9.212814356543287 -8.058986194152533" fill="#ff970d" stroke="none" /><path d="M 83.95833913139862 113.55231037782056 l -11.24243487936788 9.497829940155876 a35.71737461604307,35.71737461604307 0 0,0 -0.39272784153073376,-0.4730659845191941 l 11.404258720792148 -9.30290269852292" fill="#ffb711" stroke="none" /><path d="M 83.72743513129214 113.27417163493432 l -9.276417631614756 7.567138972429434 a32.97136234119549,32.97136234119549 0 0,0 -0.35496354478539066,-0.4428716002598665 l 9.405299088455008 -7.406339538591308" fill="#ff930d" stroke="none" /><path d="M 83.50135304334701 112.99209946851258 l -10.192884409929068 8.026535053012282 a33.97382586407764,33.97382586407764 0 0,0 -0.35784660353116376,-0.4625649732716255 l 10.3295378306783 -7.8498920856274035" fill="#ffa00e" stroke="none" /><path d="M 83.06392112726016 112.41649034213515 l -11.833184041989586 8.675362017270903 a35.67263271203582,35.67263271203582 0 0,0 -0.3587990899021382,-0.4983405544188445 l 11.980762924267331 -8.47038785740092" fill="#ffb710" stroke="none" /><path d="M 82.85270091963577 112.12312394758628 l -6.532096193373797 4.618185722351383 a28.99974499878706,28.99974499878706 0 0,0 -0.2846657679323529,-0.4100822700827762 l 6.610622868468283 -4.505062190081594" fill="#ff5d08" stroke="none" /><path d="M 82.6465618267979 111.8261652097733 l -10.303803404290386 7.021921542690911 a33.468991408529114,33.468991408529114 0 0,0 -0.3203411113404427,-0.4788664970012156 l 10.423147621041558 -6.843518131483875" fill="#ff9a0e" stroke="none" /><path d="M 82.44556493220864 111.52570212397912 l -12.195754075406553 8.007357007366549 a35.58952308032095,35.58952308032095 0 0,0 -0.33182169208843937,-0.514994634914601 l 12.33178063087204 -7.7962407725305" fill="#ffb510" stroke="none" /><path d="M 82.24976979558568 111.22182372390057 l -13.676320098267784 8.64626833381756 a37.1802252002455,37.1802252002455 0 0,0 -0.3373403621788249,-0.5439000753419558 l 13.823125100114565 -8.40957192711034" fill="#ffca12" stroke="none" /><path d="M 82.05923443525364 110.91462005526583 l -13.270194615009702 8.073185715490016 a36.53300977650579,36.53300977650579 0 0,0 -0.3222196228053494,-0.5400586218598424 l 13.407195113513284 -7.8435649997440615" fill="#ffc212" stroke="none" /><line stroke="#e1ed5e" stroke-width="0.3" x1="26.63291911575756" x2="22.317208475507996" y1="142.92168965132927" y2="145.44649492493687" /><path d="M 25.769776987707644 143.4266507060508 a86.0,86.0 0 0,1 -11.730757126820373,-40.83630448921669" fill="none" id="id33" stroke="none" /><text fill="#e1ed5e" style="font-size:6.75px; font-family:Arial;" text-anchor="middle"><textPath startOffset="21.46611528233685" xlink:href="#id33">September</textPath></text><path d="M 81.69416730710424 110.29060199501025 l -11.295899770654843 6.3499765711531015 a33.95837775660493,33.95837775660493 0 0,0 -0.2820543894051803,-0.5120106450059397 l 11.40353056951154 -6.154595407749339" fill="#ffa00e" stroke="none" /><path d="M 81.51974371655577 109.97397251340807 l -12.831184332848736 6.925113910079054 a35.580689080119406,35.580689080119406 0 0,0 -0.2862508655103028,-0.5414787610902474 l 12.948487706583924 -6.703220133902681" fill="#ffb510" stroke="none" /><path d="M 81.35079622478065 109.6543875284942 l -11.802113168298396 6.109760800260061 a34.289810091709995,34.289810091709995 0 0,0 -0.26684220847445445,-0.5265049926469837 l 11.905534046559117 -5.905701595910393" fill="#ffa40f" stroke="none" /><path d="M 81.18737489456691 109.33194174019688 l -11.839828997147983 5.873108819000998 a34.216465408025456,34.216465408025456 0 0,0 -0.25718845880056856,-0.5298844018343656 l 11.93917071256327 -5.668435461201348" fill="#ffa30f" stroke="none" /><path d="M 80.73074385275274 108.34839909993369 l -15.15190655552348 6.5645586982599795 a37.51283449835964,37.51283449835964 0 0,0 -0.2516021872280641,-0.5947132485225364 l 15.262659723943852 -6.302770924071284" fill="#ffce13" stroke="none" /><path d="M 80.58989483394504 108.01547362559985 l -9.058032502801378 3.740547514034271 a30.799982067664928,30.799982067664928 0 0,0 -0.1981427170600413,-0.4917739741770623 l 9.121077834118806 -3.5840741720144034" fill="#ff760a" stroke="none" /><path d="M 80.45479744820244 107.68017299344265 l -29.164631526323525 11.460071330474694 a52.33542670789393,52.33542670789393 0 0,0 -0.3222509549164443,-0.8412955560150248 l 29.35757676083348 -10.956352207626512" fill="#81ff25" stroke="none" /><path d="M 80.20201598880116 107.00284435728193 l -18.130322248554414 6.4129673396126865 a40.2310877210668,40.2310877210668 0 0,0 -0.22531165700594052,-0.6548611413080783 l 18.238024736503583 -6.0999334952153115" fill="#fff016" stroke="none" /><path d="M 80.0844068197444 106.66101706037122 l -14.329185707762319 4.792573818753177 a36.10941186333003,36.10941186333003 0 0,0 -0.1920810055418924,-0.5911645485603534 l 14.40955896432046 -4.54521037021502" fill="#ffbc11" stroke="none" /><path d="M 79.76711848015287 105.62410040840567 l -14.185059306106428 3.9429973312735855 a35.72287796160069,35.72287796160069 0 0,0 -0.15958247143741788,-0.5938657423551678 l 14.250829853885621 -3.698240655742879" fill="#ffb711" stroke="none" /><path d="M 79.67330655649465 105.27499134158121 l -12.739669810396236 3.306078685705546 a34.16166186900415,34.16166186900415 0 0,0 -0.14280987604649947,-0.5704544655894961 l 12.794691000737794 -3.086296380718658" fill="#ffa30f" stroke="none" /><path d="M 79.50377843672027 104.57218783832718 l -14.52915123263052 3.2410856001899937 a35.886264521645714,35.886264521645714 0 0,0 -0.1293032715056819,-0.6040618371989415 l 14.582788542860643 -2.9905099435748883" fill="#ffb911" stroke="none" /><path d="M 79.35854240842038 103.8639653848113 l -14.23678523907107 2.6650465506468746 a35.48407839872964,35.48407839872964 0 0,0 -0.10721861974831141,-0.6013389595057377 l 14.28055030115857 -2.419588840407923" fill="#ffb410" stroke="none" /><path d="M 79.23777060512086 103.15116336523772 l -31.137665878581757 4.7258832435306815 a52.4942567589343,52.4942567589343 0 0,0 -0.12790087920234214,-0.8945384512480048 l 31.214400808800697 -4.189199320302276" fill="#80ff26" stroke="none" /><path d="M 79.1416061653843 102.43462659150553 l -14.641692352472074 1.7090028037927532 a35.74109376972451,35.74109376972451 0 0,0 -0.06606604771313328,-0.6116895505095185 l 14.668940701686259 -1.4567169313984525" fill="#ffb711" stroke="none" /><path d="M 79.10278846688536 102.07522291339032 l -14.66677023311324 1.4565013903867543 a35.73891262512724,35.73891262512724 0 0,0 -0.05552364061967169,-0.6126987475277347 l 14.689668470009988 -1.2038212543104534" fill="#ffb711" stroke="none" /><path d="M 79.0235259727143 100.99374915477108 l -14.945258445641626 0.7080235662520198 a35.962020163647374,35.962020163647374 0 0,0 -0.023971027650151036,-0.6185857107833744 l 14.955231606142977 -0.4506606084546486" fill="#ffba11" stroke="none" /><line stroke="#e1ed5e" stroke-width="0.3" x1="15.007084014347285" x2="10.007500721073583" y1="101.09737516637583" y2="101.16192664675087" /><path d="M 14.007167355692545 101.11028546245083 a86.0,86.0 0 0,1 10.666146001902534,-42.60595125391555" fill="none" id="id34" stroke="none" /><text fill="#e1ed5e" style="font-size:6.75px; font-family:Arial;" text-anchor="middle"><textPath startOffset="22.20632615414155" xlink:href="#id34">October</textPath></text><path d="M 79.00175016825051 100.2711162175752 l -20.587632070884993 0.26581457886308374 a41.58934801484662,41.58934801484662 0 0,0 -0.003080983877833303,-0.7159121483359925 l 20.58915735205233 0.08860704767658413" fill="#fdff18" stroke="none" /><path d="M 79.00019446554 99.90962569577889 l -14.824214846910332 -0.06379716708402236 a35.82435212432181,35.82435212432181 0 0,0 0.007961523636983889,-0.6166287795912687 l 14.82092031615563 0.318962204735763" fill="#ffb811" stroke="none" /><path d="M 79.00486145842228 99.54816195383935 l -20.560220550707815 -0.442478141492927 a41.56498130316308,41.56498130316308 0 0,0 0.02155105792258285,-0.7151746936454657 l 20.549557798329587 0.7963229825633872" fill="#fdff18" stroke="none" /><path d="M 79.01574976396665 99.18683210126434 l -17.379834914084622 -0.6734919608035635 a38.39287937812776,38.39287937812776 0 0,0 0.03127445884220372,-0.6601543965811641 l 17.36566684700892 0.9725574640077368" fill="#ffd914" stroke="none" /><path d="M 79.05617556472873 98.46500227214037 l -14.659000028351162 -1.074375494588216 a35.69831842540401,35.69831842540401 0 0,0 0.05019101325171484,-0.6124574908456286 l 14.63833453127995 1.326546902641623" fill="#ffb711" stroke="none" /><path d="M 79.08570108090925 98.10471618934814 l -21.913611392579885 -1.9858429424742248 a43.003407382884625,43.003407382884625 0 0,0 0.07315263415117652,-0.7366370427956835 l 21.87618163274648 2.3627555159743387" fill="#ecff1a" stroke="none" /><path d="M 79.16333360222342 97.38593545837743 l -14.777452037536753 -1.8539056415941335 a35.893288919833445,35.893288919833445 0 0,0 0.08218537801136727,-0.6123765268071485 l 14.74335066046755 2.108000510465941" fill="#ffb911" stroke="none" /><path d="M 79.21141760316559 97.0276538004421 l -14.571108805307823 -2.0833734140234834 a35.7192953838959,35.7192953838959 0 0,0 0.09226482214652806,-0.6079098988063544 l 14.533088089721993 2.33388242522193" fill="#ffb711" stroke="none" /><path d="M 79.26566170972629 96.67025291283419 l -14.318210880598953 -2.2993750900391436 a35.50166502943696,35.50166502943696 0 0,0 0.10208949828858545,-0.6025379978543958 l 14.276509520790144 2.545498876209367" fill="#ffb410" stroke="none" /><path d="M 79.32604984820605 96.31383870115002 l -14.28482213916273 -2.5469810144515583 a35.51010874650808,35.51010874650808 0 0,0 0.11247281795981315,-0.6008342909201125 l 14.238863597293054 2.7924933828342438" fill="#ffb410" stroke="none" /><path d="M 79.3925641242962 95.95851677861259 l -10.501990580076953 -2.0596263880937626 a31.702049663618517,31.702049663618517 0 0,0 0.10962976988141838,-0.5345936921621016 l 10.46498151428054 2.2400957364192666" fill="#ff820c" stroke="none" /><path d="M 79.46518482838121 95.60439243477599 l -16.06313215478587 -3.4384154242769203 a37.42701784414996,37.42701784414996 0 0,0 0.14027220867188095,-0.628812806859968 l 16.00156555911195 3.7144064006868476" fill="#ffcd13" stroke="none" /><path d="M 79.54389044137918 95.25157060432595 l -14.354091521790727 -3.3319820631065338 a35.735740493263584,35.735740493263584 0 0,0 0.14424850724857924,-0.5980031889009588 l 14.294610214281333 3.5785704836668897" fill="#ffb711" stroke="none" /><path d="M 79.62865764111835 94.90015583598534 l -14.374710894517989 -3.5986232116335573 a35.8183130726909,35.8183130726909 0 0,0 0.1548778196770503,-0.5968074178544954 l 14.310636742970631 3.8455270550369165" fill="#ffb811" stroke="none" /><path d="M 79.81627453868168 94.20196356495316 l -13.90655623836794 -3.994838312214086 a35.468968157806685,35.468968157806685 0 0,0 0.17361908391215097,-0.585357240281835 l 13.835731257344083 4.23362493924246" fill="#ffb410" stroke="none" /><path d="M 80.02781315780177 93.51064311812611 l -16.03782388203067 -5.211004863986251 a37.863165970941566,37.863165970941566 0 0,0 0.20673776555222367,-0.6181196049216675 l 15.94574882270667 5.486297571830241" fill="#ffd313" stroke="none" /><path d="M 80.14247586403 93.16781622104843 l -21.371209343580798 -7.352982618276373 a43.60077304412019,43.60077304412019 0 0,0 0.2502828030847329,-0.707583187765276 l 21.241473459686258 7.719763432468261" fill="#e5ff1a" stroke="none" /><path d="M 80.2630227832202 92.82701384747504 l -13.939848597529819 -5.06614259418443 a35.831897373790845,35.831897373790845 0 0,0 0.21566606730132112,-0.5778778379448601 l 13.85057794172687 5.305343569158632" fill="#ffb911" stroke="none" /><path d="M 80.38941819471856 92.48833698450439 l -13.895002491332928 -5.322360006996596 a35.87946942193253,35.87946942193253 0 0,0 0.22588082306676724,-0.5748420567057727 l 13.80132811838447 5.560751068598131" fill="#ffb911" stroke="none" /><path d="M 80.52162464483688 92.15188598940014 l -13.820423278330535 -5.568444779679002 a35.90005627024794,35.90005627024794 0 0,0 0.23587758118377708,-0.5711962724784232 l 13.722524010260559 5.805515622610736" fill="#ffb911" stroke="none" /><path d="M 80.65960295795068 91.81776055985345 l -13.779125482913814 -5.829461708149049 a35.96151472547686,35.96151472547686 0 0,0 0.24609541686572683,-0.5680221522096324 l 13.676739356205408 6.065783004945281" fill="#ffba11" stroke="none" /><path d="M 80.95270993114464 91.15688171328213 l -57.141870206566075 -26.529354860153617 a84.0,84.0 0 0,0 0.6201672246329939,-1.3062303374378712 l 56.676744788091334 27.50902761323202" fill="#4dd2ff" stroke="none" /><path d="M 81.10775173730289 90.83032412892265 l -13.445192222063637 -6.525854042691513 a35.9452321786834,35.9452321786834 0 0,0 0.27496388721763193,-0.5543104181069144 l 13.330868321892591 6.7563240492973895" fill="#ffba11" stroke="none" /><path d="M 81.26839172434947 90.50648371742162 l -13.381555354459177 -6.782013149875687 a36.00205739455565,36.00205739455565 0 0,0 0.28491439646682437,-0.5503639275429218 l 13.26283152483224 7.0113497996789444" fill="#ffbb11" stroke="none" /><path d="M 81.43458229118936 90.18545643968196 l -13.30311377746917 -7.032644872561967 a36.04762207393122,36.04762207393122 0 0,0 0.29471832154892497,-0.5460682898743643 l 13.180087356701772 7.260594145768804" fill="#ffbb11" stroke="none" /><line stroke="#e1ed5e" stroke-width="0.3" x1="26.266209847984243" x2="21.928928074336255" y1="57.711370442889674" y2="55.22380399835377" /><path d="M 25.398753493254645 57.213857153982495 a86.0,86.0 0 0,1 29.58750427330803,-30.492523968695096" fill="none" id="id35" stroke="none" /><text fill="#e1ed5e" style="font-size:6.75px; font-family:Arial;" text-anchor="middle"><textPath startOffset="21.46611528233685" xlink:href="#id35">November</textPath></text><path d="M 81.78341655067845 89.55222093294921 l -12.9959750899271 -7.453597260879936 a35.981704865114736,35.981704865114736 0 0,0 0.3127672437709874,-0.5346206045962824 l 12.865748171685787 7.67619727783011" fill="#ffbb11" stroke="none" /><path d="M 81.96595687620814 89.24020034530311 l -12.29204814754667 -7.333905908154502 a35.31365164908204,35.31365164908204 0 0,0 0.31594653569935227,-0.5193330321416988 l 12.1639858135611 7.544406713503276" fill="#ffb210" stroke="none" /><path d="M 82.34701348167596 88.62581576622439 l -13.62729004595993 -8.780344755203503 a37.21102982592248,37.21102982592248 0 0,0 0.35156159615522875,-0.5354524301991443 l 13.474131814446782 9.013615249380313" fill="#ffca12" stroke="none" /><path d="M 82.54541684631803 88.32363383020206 l -13.424032222391254 -8.980100774892595 a37.15075388441745,37.15075388441745 0 0,0 0.3601421225156858,-0.5284641255879743 l 13.267465634206829 9.209842923750985" fill="#ffca12" stroke="none" /><path d="M 82.7489923806493 88.02491185347247 l -12.076588522767212 -8.38317478378826 a35.7010751240777,35.7010751240777 0 0,0 0.3547792303727956,-0.5018100612519917 l 11.93049667259054 8.589811345372036" fill="#ffb711" stroke="none" /><path d="M 82.95767976084542 87.72973835380427 l -11.821947629366587 -8.511657364980211 a35.56731810767885,35.56731810767885 0 0,0 0.36200312629675324,-0.49377185744147983 l 11.6736818905562 8.713891666093192" fill="#ffb510" stroke="none" /><path d="M 83.39014120810768 87.1503855733568 l -11.61405931565344 -8.984795476235847 a35.68376394312114,35.68376394312114 0 0,0 0.38002515213938254,-0.48259335105859 l 11.457680082920087 9.183381221247485" fill="#ffb710" stroke="none" /><path d="M 83.6137871275137 86.86637796730984 l -12.77499278164741 -10.239213170861513 a37.37198604108516,37.37198604108516 0 0,0 0.4066454840232366,-0.4984992811092252 l 12.59684880554778 10.457596621578821" fill="#ffcc13" stroke="none" /><path d="M 85.31137513191541 84.99185889309783 l -14.895825477077082 -15.219848874315598 a42.296230098318915,42.296230098318915 0 0,0 0.5247084129826884,-0.5047690775634102 l 14.631633820481968 15.474001038641322" fill="#f4ff19" stroke="none" /><path d="M 85.57189188830299 84.74124197986013 l -11.342058618501627 -11.995039583162812 a37.50827878087748,37.50827878087748 0 0,0 0.47294745302862107,-0.43955311391464574 l 11.13390328167815 12.188497283152106" fill="#ffce13" stroke="none" /><path d="M 86.10567301691215 84.25364557470407 l -9.467203391641277 -10.729122770940972 a35.30880901726724,35.30880901726724 0 0,0 0.45919308119106694,-0.39820771504512986 l 9.281116511803438 10.890495479405782" fill="#ffb210" stroke="none" /><path d="M 86.37877921826538 84.01681056812374 l -9.282032706316205 -10.891570545340668 a35.31022152537326,35.31022152537326 0 0,0 0.4659981792410183,-0.3902600737241536 l 9.093176990116076 11.049731776458634" fill="#ffb210" stroke="none" /><path d="M 86.93701828274178 83.55741782278169 l -9.14049195190357 -11.505282125658667 a35.694220289413614,35.694220289413614 0 0,0 0.48436622625956116,-0.37805552248535884 l 8.941093170484583 11.660916037367247" fill="#ffb711" stroke="none" /><path d="M 87.22198572758235 83.33499621200491 l -26.83319379205238 -34.995678252905236 a65.09895447131035,65.09895447131035 0 0,0 0.8951225471380153,-0.6741877446677946 l 26.226825091155977 35.45238258707889" fill="#35ff68" stroke="none" /><path d="M 87.80319425747018 82.90503203632743 l -8.516967513442689 -11.937329319122483 a35.66419335995742,35.66419335995742 0 0,0 0.5028122421785992,-0.35225210825965353 l 8.310224131680428 12.082166270146079" fill="#ffb610" stroke="none" /><path d="M 88.09926311788651 82.69761687909137 l -8.299378060416043 -12.066397256661283 a35.64505441933481,35.64505441933481 0 0,0 0.5085281415074353,-0.3433604711665354 l 8.09044522450207 12.207469640126483" fill="#ffb610" stroke="none" /><path d="M 88.39885842347998 82.49532879139004 l -5.829586671687138 -8.796116942190482 a31.552523585541174,31.552523585541174 0 0,0 0.4553073841018081,-0.29614458781865766 l 5.677312261801043 8.895160454168675" fill="#ff800b" stroke="none" /><path d="M 89.00827224532344 82.1063720568725 l -5.956910220371948 -9.697359464584538 a32.38084179482955,32.38084179482955 0 0,0 0.47744461654686715,-0.28765503930521436 l 5.789103537607431 9.798461113348372" fill="#ff8b0c" stroke="none" /><line stroke="#e1ed5e" stroke-width="0.3" x1="56.762969772571076" x2="54.21961505331055" y1="26.818313649435495" y2="22.513508569990535" /><path d="M 56.25429882871897 25.957352633546506 a86.0,86.0 0 0,1 42.265352541879196,-11.944610805530505" fill="none" id="id36" stroke="none" /><text fill="#e1ed5e" style="font-size:6.75px; font-family:Arial;" text-anchor="middle"><textPath startOffset="22.20632615414155" xlink:href="#id36">December</textPath></text><path d="M 89.3179101791058 81.91981866633112 l -7.502217909450202 -12.698026554901524 a35.74866610747764,35.74866610747764 0 0,0 0.5324904556392985,-0.30845284178696536 l 7.282530721345584 12.825283554078537" fill="#ffb811" stroke="none" /><path d="M 89.63071344664047 81.73862282372117 l -5.428417147306207 -9.559999377683427 a31.99369368440269,31.99369368440269 0 0,0 0.4812398636433639,-0.2678094630901886 l 5.263053194590797 9.652024238333802" fill="#ff860c" stroke="none" /><path d="M 89.94658935756843 81.56283822128135 l -7.1658858065232325 -13.141669091389833 a35.96841293857575,35.96841293857575 0 0,0 0.546128887332394,-0.29172313797186544 l 6.938611872662533 13.263070955863448" fill="#ffba11" stroke="none" /><path d="M 90.26544431104013 81.39251694778311 l -6.967495721201099 -13.318282075850536 a36.03072300579308,36.03072300579308 0 0,0 0.5520241548432466,-0.28276821284520853 l 6.737211078769089 13.436242814008251" fill="#ffbb11" stroke="none" /><path d="M 90.58718382345135 81.22770947309562 l -6.900112358031966 -13.761122221421516 a36.39415588287862,36.39415588287862 0 0,0 0.562426156995031,-0.27598007264747876 l 6.662214934026509 13.877857454203824" fill="#ffc011" stroke="none" /><path d="M 90.91171255644093 81.06846463323043 l -6.477415188807751 -13.49290672128457 a35.967145329603895,35.967145329603895 0 0,0 0.5604396966285676,-0.26313395224300307 l 6.244197280879575 13.602405656167582" fill="#ffba11" stroke="none" /><path d="M 91.56875222667455 80.76684994638697 l -5.963662126596469 -13.604155830025965 a35.85389921225503,35.85389921225503 0 0,0 0.5673730026086485,-0.24291950972830167 l 5.728605366197512 13.704794867717053" fill="#ffb911" stroke="none" /><path d="M 91.90106846888425 80.62456947434976 l -5.725412754851182 -13.69715704301159 a35.84562097974802,35.84562097974802 0 0,0 0.5713384545972773,-0.2330633010844846 l 5.488790430665524 13.79368123027965" fill="#ffb911" stroke="none" /><path d="M 93.25333710446033 80.11325718540243 l -4.799030931659036 -14.145822219796534 a35.93770344320403,35.93770344320403 0 0,0 0.5875252819623836,-0.19369784816249386 l 4.5548228274542435 14.226333792218261" fill="#ffba11" stroke="none" /><path d="M 93.59665428221793 80.00007090966166 l -4.513459520501589 -14.097141453953954 a35.80205100707309,35.80205100707309 0 0,0 0.5885424616475341,-0.182863007711791 l 4.270131686143325 14.17274459654827" fill="#ffb811" stroke="none" /><path d="M 93.94186890950719 79.89281104454417 l -4.233042679671784 -14.049644642098002 a35.67348509717974,35.67348509717974 0 0,0 0.5894784903151961,-0.1720849358875334 l 3.9905739716331663 14.120427906904235" fill="#ffb710" stroke="none" /><path d="M 94.28887869178378 79.79150937346287 l -4.055073461314526 -14.348655826133866 a35.91065205795852,35.91065205795852 0 0,0 0.5962914367601243,-0.16298897470606288 l 3.80748413533068 14.416331341666226" fill="#ffba11" stroke="none" /><path d="M 95.33964822691252 79.52364482259891 l -3.276522795309121 -14.396176033542774 a35.76433154656626,35.76433154656626 0 0,0 0.6014492334026492,-0.13145350690566845 l 3.0282308377529508 14.450443038544313" fill="#ffb811" stroke="none" /><path d="M 95.692805502759 79.44645832069477 l -3.106582097837212 -14.824328148863684 a36.14633808535234,36.14633808535234 0 0,0 0.6100703043907726,-0.12237436381734301 l 2.850945383979303 14.875606468758237" fill="#ffbd11" stroke="none" /><path d="M 96.04723909329186 79.375362276772 l -2.2510260596089795 -11.74535927690216 a32.959121324936476,32.959121324936476 0 0,0 0.5581154451099564,-0.10199203020969917 l 2.04851549339613 11.782366788462596" fill="#ff930d" stroke="none" /><path d="M 96.40284397218896 79.31037775812273 l -2.533786415845507 -14.57348065531218 a35.79210640888854,35.79210640888854 0 0,0 0.6079047146104645,-0.10030948663931513 l 2.282552495096157 14.614936404891122" fill="#ffb811" stroke="none" /><path d="M 96.75951476605007 79.25152402106235 l -2.2620527778494686 -14.483678935666529 a35.6592577670647,35.6592577670647 0 0,0 0.6072788910663321,-0.08949712262143426 l 2.0124049063544875 14.520470542448932" fill="#ffb610" stroke="none" /><path d="M 97.83486435360386 79.11191278185805 l -1.3145097184321868 -12.681696730368708 a33.74964186794661,33.74964186794661 0 0,0 0.5783641941893964,-0.05492264922117811 l 1.096020397152554 12.702444924105068" fill="#ff9d0e" stroke="none" /><path d="M 98.19473922651362 79.07773832637324 l -1.2937247143593338 -14.99376012873202 a36.04947063635456,36.04947063635456 0 0,0 0.6186944231255544,-0.04802259472841666 l 1.0354401018714452 15.0138079856489" fill="#ffbb11" stroke="none" /><path d="M 98.55514903715128 79.0497635885617 l -1.0589862416972076 -15.355225341909577 a36.39169896927971,36.39169896927971 0 0,0 0.6253098140628616,-0.03772039563129963 l 0.794514378794723 15.371179006921182" fill="#ffc011" stroke="none" /><path d="M 98.91598698831166 79.02799685794201 l -0.7584519645248912 -14.67349267177362 a35.69308124836604,35.69308124836604 0 0,0 0.6138515958628621,-0.026433740988990838 l 0.505759536272705 14.684374139286803" fill="#ffb711" stroke="none" /><path d="M 99.27714615592234 79.0124445844662 l -0.39132982292918744 -11.361987505173948 a32.368724602964164,32.368724602964164 0 0,0 0.5570092821058792,-0.014385906419341996 l 0.1956939056284292 11.36704020373565" fill="#ff8b0c" stroke="none" /><path d="M 99.63851952072746 79.00311137660856 l -0.2967355987556442 -17.236129403740453 a38.23868350072171,38.23868350072171 0 0,0 0.6582160780281757,-0.005665473589820548 l 4.222259714134627e-15 17.238683500721713" fill="#ffd714" stroke="none" /></svg>