<?xml version="1.0" encoding="utf-8" ?>
<svg baseProfile="full" height="200mm" version="1.1" viewBox="0,0,200,200" width="200mm" xmlns="http://www.w3.org/2000/svg" xmlns:ev="http://www.w3.org/2001/xml-events" xmlns:xlink="http://www.w3.org/1999/xlink"><defs /><rect fill="#1a1a1a" height="200" width="200" x="0" y="0" /><text alignment-baseline="middle" fill="#e1ed5e" style="dominant-baseline: central; font-size:9.0px; font-family:Arial;" text-anchor="middle" x="100.0" y="100.0">2019</text><line stroke="#e1ed5e" stroke-width="0.3" x1="100.0" x2="100.0" y1="15.0" y2="10.0" /><path d="M 100.0 14.0 a86.0,86.0 0 0,1 42.46469731375804,11.215312516191453" fill="none" id="id61" stroke="none" /><text fill="#e1ed5e" style="font-size:6.75px; font-family:Arial;" text-anchor="middle"><textPath startOffset="22.20632615414155" xlink:href="#id61">January</textPath></text><path d="M 100.0 79.0 l 0.0 -3.8312011884582233 a24.831201188458223,24.831201188458223 0 0,0 0.4274283098341169,0.003679010406675624 l -0.06594783056158852 3.8306335546601065" fill="#ff0d01" stroke="none" /><path d="M 100.36148047927253 79.00311137660856 l 0.14029511159316987 -8.14915604421113 a29.15036360852936,29.15036360852936 0 0,0 0.5016269039289205,0.012955542984961894 l -0.28054865071695817 8.145533709083809" fill="#ff4c07" stroke="none" /><path d="M 100.72285384407766 79.0124445844662 l 0.2801862142554621 -8.135010620104508 a29.13983427987769,29.13983427987769 0 0,0 0.5011484901349261,0.021580508179061996 l -0.42017553677971975 8.128982385401251" fill="#ff4c07" stroke="none" /><path d="M 101.08401301168833 79.027996857942 l 0.41868466791906483 -8.100139091000795 a29.110952480733054,29.110952480733054 0 0,0 0.5002064975940539,0.030173821939565953 l -0.5580532143527307 8.091731999680926" fill="#ff4c07" stroke="none" /><path d="M 101.44485096284872 79.0497635885617 l 0.5683545143397347 -8.241100118346516 a29.260675396998803,29.260675396998803 0 0,0 0.502182594236302,0.038979034400928016 l -0.7101272979383778 8.230095821757123" fill="#ff4e07" stroke="none" /><path d="M 101.80526077348638 79.07773832637324 l 1.3854862794567147 -16.05724054372011 a37.11690249736132,37.11690249736132 0 0,0 0.6360685985257954,0.06040237772050215 l -1.6616800050727543 16.03101262148443" fill="#ffba11" stroke="none" /><path d="M 102.16513564639614 79.11191278185805 l 0.8443065389093076 -8.145424353869101 a29.18906535791777,29.18906535791777 0 0,0 0.49931829380928006,0.056104228202698406 l -0.9843915362283129 8.129684172195802" fill="#ff4d07" stroke="none" /><path d="M 102.52436894288641 79.15227682838746 l 0.981704432439657 -8.107492488972495 a29.16671158125577,29.16671158125577 0 0,0 0.49789697713046777,0.06464131737045893 l -1.1211161380779708 8.0893928484379" fill="#ff4d07" stroke="none" /><path d="M 102.88285421437855 79.19881850522331 l 1.1210533143968895 -8.088939545323983 a29.166253945452983,29.166253945452983 0 0,0 0.4967027207423377,0.0732010694898702 l -1.260125015567883 8.068443991673144" fill="#ff4d07" stroke="none" /><path d="M 103.2404852339499 79.25152402106235 l 1.2952743983765609 -8.293501682799043 a29.394039905175596,29.394039905175596 0 0,0 0.4992378832268839,0.08237852836768497 l -1.4378414877423198 8.269976891491734" fill="#ff5007" stroke="none" /><path d="M 103.59715602781102 79.31037775812273 l 1.3890093549696616 -7.989111015082614 a29.108960586875952,29.108960586875952 0 0,0 0.4929184954436407,0.09007770438659321 l -1.5263229715162032 7.9640178293452815" fill="#ff4c07" stroke="none" /><path d="M 103.95276090670814 79.375362276772 l 1.6442671705832783 -8.579424739787672 a29.73556772018503,29.73556772018503 0 0,0 0.5018706682666012,0.10067053470016292 l -1.791704248317005 8.549850249010301" fill="#ff5507" stroke="none" /><path d="M 104.66035177308747 79.52364482259891 l 1.8512455895921094 -8.133884320061135 a29.34189333215911,29.34189333215911 0 0,0 0.4915134787583728,0.11632536025851595 l -1.9909827553130064 8.10081304766175" fill="#ff4f07" stroke="none" /><path d="M 105.01212808612495 79.60689891045804 l 1.9402717561549296 -7.894482619864986 a29.129422508584657,29.129422508584657 0 0,0 0.48589418011883645,0.12386524539751197 l -2.075874824958791 7.859914378298606" fill="#ff4c07" stroke="none" /><path d="M 105.36241919743992 79.69619591428918 l 2.1004130397668344 -7.952823770073396 a29.22551766489301,29.22551766489301 0 0,0 0.48528569991799614,0.13264691356110545 l -2.2369966289085412 7.915490315685997" fill="#ff4d07" stroke="none" /><path d="M 105.71112130821622 79.79150937346287 l 2.0153722282276876 -7.1312844860308395 a28.410596712749626,28.410596712749626 0 0,0 0.46946452283994117,0.13704956778182506 l -2.137826968791056 7.095536589330311" fill="#ff4206" stroke="none" /><path d="M 106.40334571778207 80.00007090966166 l 4.736777273830873 -14.79464232741085 a36.53442952083846,36.53442952083846 0 0,0 0.5972808206703604,0.19691409589414868 l -4.9907409167436505 14.710914507257465" fill="#ffb310" stroke="none" /><path d="M 107.08798089147638 80.2323363322302 l 2.744756970442162 -7.654850298300668 a29.132061480103594,29.132061480103594 0 0,0 0.4705766733681455,0.17331736016139937 l -2.8761159695828837 7.606469670332944" fill="#ff4c07" stroke="none" /><path d="M 107.4271985657038 80.35727306442388 l 2.60918953566506 -6.9005287954590715 a28.377341505582066,28.377341505582066 0 0,0 0.45541151523499296,0.17669259266878432 l -2.7275842158997197 6.85459349889974" fill="#ff4106" stroke="none" /><path d="M 107.76421540070413 80.48803036053334 l 2.9240876352428864 -7.348419153443988 a28.908827508125512,28.908827508125512 0 0,0 0.46077385134555,0.1879612233062487 l -3.0501453561768237 7.2969970439541605" fill="#ff4906" stroke="none" /><path d="M 108.09893153111575 80.62456947434976 l 2.3005053559333857 -5.503600262148772 a26.965059994518263,26.965059994518263 0 0,0 0.42671082896842916,0.18269530783484397 l -2.39489994269213 5.463185426351137" fill="#ff2d04" stroke="none" /><path d="M 108.43124777332544 80.76684994638697 l 3.310209352618086 -7.5511661973926305 a29.24485275179644,29.24485275179644 0 0,0 0.4593083514451645,0.20607826877635946 l -3.439699822530031 7.49306759809974" fill="#ff4e07" stroke="none" /><path d="M 108.76106565485865 80.91482961587045 l 6.785146950182739 -14.780814426813452 a37.26378474573095,37.26378474573095 0 0,0 0.5806439189640399,0.27262010553855087 l -7.0385690804463765 14.661829338634899" fill="#ffbc11" stroke="none" /><path d="M 109.08828744355905 81.06846463323043 l 3.159097396023738 -6.580619775871905 a28.2996200580688,28.2996200580688 0 0,0 0.43733523054910656,0.21459849830439348 l -3.2719038935832763 6.525266117432679" fill="#ff4006" stroke="none" /><path d="M 109.41281617654863 81.2277094730956 l 3.2607460504763504 -6.50301366200083 a28.274726901668995,28.274726901668995 0 0,0 0.43319508794781325,0.22189934943537012 l -3.3722016260129193 6.44592178725296" fill="#ff4006" stroke="none" /><path d="M 109.73455568895987 81.39251694778311 l 3.877011879377272 -7.410860356017383 a29.36373554873793,29.36373554873793 0 0,0 0.44584631105465755,0.23815565872984565 l -4.004003236960241 7.343025970785784" fill="#ff4f07" stroke="none" /><path d="M 110.05341064243156 81.56283822128135 l 4.050595118325917 -7.4284718045298295 a29.4610586904536,29.4610586904536 0 0,0 0.44314470241663184,0.24660954711226632 l -4.177863909814583 7.357646859857383" fill="#ff5107" stroke="none" /><path d="M 110.36928655335952 81.73862282372117 l 3.9947090021908163 -7.035092281720039 a29.09013123654377,29.09013123654377 0 0,0 0.4333089573239672,0.25100051623998043 l -4.115214691980111 6.9652876080900095" fill="#ff4b07" stroke="none" /><line stroke="#e1ed5e" stroke-width="0.3" x1="143.23703022742887" x2="145.7803849466894" y1="26.81831364943548" y2="22.513508569990506" /><path d="M 143.74570117128098 25.957352633546492 a86.0,86.0 0 0,1 28.547481713284135,27.462654790039103" fill="none" id="id62" stroke="none" /><text fill="#e1ed5e" style="font-size:6.75px; font-family:Arial;" text-anchor="middle"><textPath startOffset="19.985693538727396" xlink:href="#id62">February</textPath></text><path d="M 110.68208982089419 81.91981866633111 l 4.1251540699418 -6.9821106978509375 a29.109671133763804,29.109671133763804 0 0,0 0.42921230585441456,0.2585956117880158 l -4.2447284420138525 6.910068476604307" fill="#ff4c07" stroke="none" /><path d="M 110.99172775467656 82.1063720568725 l 3.8678304862247606 -6.296509630903641 a28.38959716102522,28.38959716102522 0 0,0 0.41419184961928074,0.2593668982335603 l -3.9756414882163047 6.228998391347136" fill="#ff4106" stroke="none" /><path d="M 111.2981086023043 82.29822771554956 l 4.376280434423949 -6.856715794648027 a29.13427205896739,29.13427205896739 0 0,0 0.42041167207803964,0.27344744603102267 l -4.493659132286268 6.780369424457476" fill="#ff4c07" stroke="none" /><path d="M 111.60114157652 82.49532879139004 l 4.640329867218781 -7.001677213349141 a29.399770537135836,29.399770537135836 0 0,0 0.41943015421194085,0.2832011124197671 l -4.760164715837263 6.920764188630704" fill="#ff5007" stroke="none" /><path d="M 111.90073688211348 82.69761687909136 l 9.900642455776481 -14.394462343793636 a38.47064014866132,38.47064014866132 0 0,0 0.5423789803953144,0.3799711369241257 l -10.146952575755446 14.221906364105575" fill="#ffcc13" stroke="none" /><path d="M 112.19680574252982 82.90503203632743 l 5.223906082878042 -7.32179465814068 a29.9943244203613,29.9943244203613 0 0,0 0.41771336473993304,0.3034865239997745 l -5.349164763971763 7.230788899324231" fill="#ff5808" stroke="none" /><path d="M 112.48926042617603 83.11751280151076 l 5.074667486412015 -6.859734359960966 a29.532772444339315,29.532772444339315 0 0,0 0.40608103016578184,0.3058518129782213 l -5.191994670336181 6.771365957476898" fill="#ff5207" stroke="none" /><path d="M 112.77801427241765 83.33499621200491 l 5.213618834225611 -6.799568052532266 a29.568310629850522,29.568310629850522 0 0,0 0.401238377544798,0.3131729180113976 l -5.329889766929838 6.708816745297643" fill="#ff5207" stroke="none" /><path d="M 113.06298171725822 83.55741782278167 l 7.751182225749347 -9.756535948381313 a33.46077122849262,33.46077122849262 0 0,0 0.4478909082733491,0.36216329909887085 l -7.917976532587187 9.621666552018315" fill="#ff890c" stroke="none" /><path d="M 113.34407831869373 83.78471172551755 l 10.326916188271168 -12.548931367155586 a37.251796098190454,37.251796098190454 0 0,0 0.4916216439690116,0.41171898854244954 l -10.541395369199297 12.369311221219316" fill="#ffbc11" stroke="none" /><path d="M 113.6212207817346 84.01681056812373 l 5.229995116221101 -6.136895070553616 a29.06314640960226,29.06314640960226 0 0,0 0.3779678816809242,0.32777002243634007 l -5.334856796548789 6.045960054697603" fill="#ff4b07" stroke="none" /><path d="M 114.16331599549186 84.49514656593476 l 5.5372652175332275 -6.061750345097667 a29.21012322292394,29.21012322292394 0 0,0 0.36831477822911046,0.34230844596934396 l -5.640787879557185 5.965537313053683" fill="#ff4d07" stroke="none" /><path d="M 114.42810811169701 84.74124197986012 l 5.551185098792977 -5.870775952865075 a29.07970706707861,29.07970706707861 0 0,0 0.3607500458007789,0.34704125823846266 l -5.6514183882061735 5.77435160786431" fill="#ff4b07" stroke="none" /><path d="M 114.94478906791727 85.2469230424477 l 8.387521686294813 -8.27992635819055 a32.785911103309935,32.785911103309935 0 0,0 0.3930183557979114,0.4050399629385512 l -8.528804305795832 8.134322199701883" fill="#ff800b" stroke="none" /><path d="M 115.19652480421416 85.50635884689758 l 12.712698440304871 -12.124699012124676 a38.567613035604666,38.567613035604666 0 0,0 0.4540559169523536,0.4843551940715025 l -12.919521679227687 11.904074401175118" fill="#ffce13" stroke="none" /><path d="M 115.68641384162765 86.03803664274999 l 6.044683777887002 -5.380175116192448 a29.092248529027437,29.092248529027437 0 0,0 0.3297234217487607,0.37693086951552573 l -6.1363990632136085 5.275328690473975" fill="#ff4b07" stroke="none" /><path d="M 115.92442197804982 86.31012108654704 l 3.4715792402560157 -2.984441099530704 a25.578072858522958,25.578072858522958 0 0,0 0.2841472821593609,0.33634075741027475 l -3.5224371359024964 2.9242413924913224" fill="#ff1802" stroke="none" /><path d="M 116.15771136456269 86.58626213691792 l 6.248647914248664 -5.187475084141944 a29.12129906510268,29.12129906510268 0 0,0 0.31686955947951556,0.38844461284343207 l -6.337015965804588 5.079146301690412" fill="#ff4c07" stroke="none" /><path d="M 116.38621287248628 86.86637796730983 l 7.508191994416117 -6.017849064386613 a30.622237493782468,30.622237493782468 0 0,0 0.32612087897937936,0.41414039821003185 l -7.610666953989459 5.8877162722235425" fill="#ff6109" stroke="none" /><path d="M 116.60985879189232 87.15038557335679 l 7.009149118493243 -5.422373829899576 a29.861732861943786,29.861732861943786 0 0,0 0.3110228306432103,0.40926958744005026 l -7.101447889360564 5.300919466578492" fill="#ff5708" stroke="none" /><path d="M 116.82858285166822 87.43820079747576 l 5.931716682441117 -4.427766410746947 a28.402052295741306,28.402052295741306 0 0,0 0.2890752598544305,0.39429832957213634 l -6.0070545548091765 4.325005637503317" fill="#ff4206" stroke="none" /><path d="M 117.04232023915458 87.72973835380427 l 12.728486654661376 -9.164354349707576 a36.68437959132898,36.68437959132898 0 0,0 0.36455081290639757,0.5156312717680722 l -12.884350087371656 8.943896577607712" fill="#ffb510" stroke="none" /><path d="M 117.2510076193507 88.02491185347247 l 6.243549717273228 -4.334069050419217 a28.600399174113445,28.600399174113445 0 0,0 0.2772543592360791,0.4068365607879335 l -6.31722854217804 4.225954466360877" fill="#ff4406" stroke="none" /><path d="M 117.45458315368197 88.32363383020206 l 5.913104886821397 -3.9556131046523326 a28.114188951401864,28.114188951401864 0 0,0 0.2656166515305325,0.4045523831920049 l -5.980318173709855 3.853242657482654" fill="#ff3d05" stroke="none" /><path d="M 117.65298651832404 88.62581576622439 l 6.464455657891726 -4.165182449304578 a28.690119101083106,28.690119101083106 0 0,0 0.26391139384504975,0.4174444466045489 l -6.535194647982731 4.053290354985823" fill="#ff4606" stroke="none" /><line stroke="#e1ed5e" stroke-width="0.3" x1="172.23445277983987" x2="176.4835382374775" y1="55.19839476539836" y2="52.563006222186495" /><path d="M 173.08426987136738 54.67131705675599 a86.0,86.0 0 0,1 12.851231095245387,41.99856678651699" fill="none" id="id63" stroke="none" /><text fill="#e1ed5e" style="font-size:6.75px; font-family:Arial;" text-anchor="middle"><textPath startOffset="22.20632615414155" xlink:href="#id63">March</textPath></text><path d="M 117.84615892207809 88.93136811851018 l 6.998540933116409 -4.340669251822593 a29.23534970394239,29.23534970394239 0 0,0 0.261564778140395,0.42994372143515336 l -7.072221509543028 4.219557757180358" fill="#ff4e07" stroke="none" /><path d="M 118.03404312379186 89.2402003453031 l 7.277566620071839 -4.342074501439814 a29.474466761138288,29.474466761138288 0 0,0 0.2562037503519857,0.43793525901742614 l -7.3512300448941525 4.216159830068492" fill="#ff5107" stroke="none" /><path d="M 118.21658344932153 89.55222093294921 l 14.067284415711608 -8.068026590035219 a37.216705703996666,37.216705703996666 0 0,0 0.3139359538919682,0.5584570320587221 l -14.20407801089601 7.824686048041702" fill="#ffbc11" stroke="none" /><path d="M 118.73160827565052 90.50648371742162 l 8.160765628506383 -4.1360229315302 a30.149031715627334,30.149031715627334 0 0,0 0.23062571734598394,0.4649273731974746 l -8.230751358805774 3.994935969833776" fill="#ff5b08" stroke="none" /><path d="M 118.89224826269711 90.83032412892265 l 7.2695581417860025 -3.5284043994778864 a29.080601040953702,29.080601040953702 0 0,0 0.21470042426460795,0.45221384893595373 l -7.3292167598923665 3.402748134901392" fill="#ff4b07" stroke="none" /><path d="M 119.04729006885535 91.15688171328212 l 7.325232414558011 -3.4008983160053985 a29.07620822435255,29.07620822435255 0 0,0 0.20685324477188313,0.45577370541820306 l -7.382687976293242 3.274302601745133" fill="#ff4b07" stroke="none" /><path d="M 119.196687751892 91.48605970444005 l 10.019146415080193 -4.443600661372371 a31.960332190429416,31.960332190429416 0 0,0 0.21871412629898723,0.5048223584219892 l -10.094151251221861 4.270479158363779" fill="#ff740a" stroke="none" /><path d="M 119.34039704204932 91.81776055985345 l 10.197667263835305 -4.314273130082712 a32.0727309307529,32.0727309307529 0 0,0 0.21073053860848404,0.5103007142368307 l -10.270419489329987 4.138097845392577" fill="#ff760a" stroke="none" /><path d="M 119.47837535516314 92.15188598940014 l 7.555638361846782 -3.0442739810390527 a29.145874730600887,29.145874730600887 0 0,0 0.18348917303454257,0.4669599312520705 l -7.606921084763025 2.9137650448911976" fill="#ff4c07" stroke="none" /><path d="M 119.61058180528143 92.48833698450437 l 7.539327849631999 -2.8878740433149623 a29.07349248555351,29.07349248555351 0 0,0 0.17498838316221152,0.468881868124215 l -7.587920821295835 2.7576690381614144" fill="#ff4b07" stroke="none" /><path d="M 119.7369772167798 92.82701384747503 l 7.9624981646190305 -2.893801236481155 a29.47204005053218,29.47204005053218 0 0,0 0.16917922049245518,0.4782924382510117 l -8.011130465921296 2.7563111718035285" fill="#ff5107" stroke="none" /><path d="M 119.85752413597 93.16781622104841 l 7.6824137651947755 -2.6432128371271495 a29.124411077857147,29.124411077857147 0 0,0 0.1590230376900257,0.47545864185889286 l -7.7267740966565714 2.5105810923459426" fill="#ff4c07" stroke="none" /><path d="M 119.97218684219823 93.5106431181261 l 8.01670284755733 -2.604784654017803 a29.42926020714988,29.42926020714988 0 0,0 0.15239384115648066,0.4831301218385013 l -8.060352172482016 2.4664043657528825" fill="#ff5007" stroke="none" /><path d="M 120.08093135843002 93.85539295169968 l 17.45800470817172 -5.342012124057124 a39.25702664521579,39.25702664521579 0 0,0 0.1921614683836646,0.6478729428066786 l -17.547372073667088 5.040709794503915" fill="#ffd714" stroke="none" /><path d="M 120.18372546131832 94.20196356495316 l 7.993108072661955 -2.2961237717674576 a29.316367057587666,29.316367057587666 0 0,0 0.1351529604812833,0.4862171081418469 l -8.031447803709602 2.1581953602066593" fill="#ff4f07" stroke="none" /><path d="M 120.28053869075195 94.5502522615342 l 6.694631151268707 -1.7989685349495306 a27.93212622802527,27.93212622802527 0 0,0 0.12077807238887406,0.4654071813907975 l -6.724605555527886 1.6834649280098828" fill="#ff3b05" stroke="none" /><path d="M 120.37134235888165 94.90015583598534 l 8.249265156369518 -2.065154373431778 a29.503836675653915,29.503836675653915 0 0,0 0.11909321983606597,0.49371828240636373 l -8.283591176466402 1.9228508593660083" fill="#ff5107" stroke="none" /><path d="M 120.45610955862082 95.25157060432595 l 6.743249607553988 -1.5652949338738138 a27.922540249055114,27.922540249055114 0 0,0 0.10465050698867433,0.4691277029279254 l -6.7691945015447 1.4489890613959246" fill="#ff3b05" stroke="none" /><path d="M 120.53481517161879 95.60439243477599 l 6.7886594967552725 -1.4531556672060852 a27.94244619395921,27.94244619395921 0 0,0 0.09662857697441109,0.471195258267856 l -6.8126673696446804 1.3360847527748174" fill="#ff3b05" stroke="none" /><path d="M 120.6074358757038 95.95851677861258 l 10.799735239703088 -2.118019390182668 a32.0054662502265,32.0054662502265 0 0,0 0.10137240088386885,0.541535419035121 l -10.834593364496817 1.9318058936849838" fill="#ff750a" stroke="none" /><path d="M 120.67395015179393 96.31383870115 l 7.930227977354556 -1.4139581089511946 a29.05529597883813,29.05529597883813 0 0,0 0.08355215414957068,0.49312954340702847 l -7.95339199302435 1.2772427772283284" fill="#ff4b07" stroke="none" /><path d="M 120.73433829027371 96.67025291283417 l 30.65907462964477 -4.923569926084766 a52.05189845988767,52.05189845988767 0 0,0 0.13445279651166137,0.8858759386305269 l -30.73928331959573 4.395094875062157" fill="#8dff24" stroke="none" /><path d="M 120.78858239683441 97.02765380044208 l 8.02144918677641 -1.1469047552223857 a29.103026445321998,29.103026445321998 0 0,0 0.06663761671508005,0.4965276459888516 l -8.040002802549326 1.0086587671688698" fill="#ff4c07" stroke="none" /><path d="M 120.83666639777658 97.38593545837742 l 7.988909214273253 -1.0022488196817325 a29.05153234673087,29.05153234673087 0 0,0 0.057978069778871856,0.49672069525484785 l -8.004977637055713 0.8645843861020318" fill="#ff4b07" stroke="none" /><path d="M 120.87857604477298 97.74499172005257 l 8.45399942961308 -0.9130813649152587 a29.503165524371134,29.503165524371134 0 0,0 0.05018751780969114,0.5053814552758865 l -8.468464073105002 0.7674243789349373" fill="#ff5107" stroke="none" /><path d="M 120.91429891909075 98.10471618934814 l 7.839921461788618 -0.7104649446196235 a28.87204731721978,28.87204731721978 0 0,0 0.04059343334423266,0.4953427061958602 l -7.850989378952346 0.5754083212159946" fill="#ff4806" stroke="none" /><path d="M 120.94382443527127 98.46500227214037 l 4.450040339098756 -0.3261487332703488 a25.461976245546364,25.461976245546364 0 0,0 0.028274201805035832,0.43738938746597067 l -4.454995131908207 0.24950028155134293" fill="#ff1602" stroke="none" /><path d="M 120.96714384426684 98.82574320788733 l 10.283609981561328 -0.5759296048130044 a31.299724712950724,31.299724712950724 0 0,0 0.02549644538683082,0.5381896647430535 l -10.292000035181657 0.39882883344695114" fill="#ff6b09" stroke="none" /><path d="M 120.98425023603335 99.18683210126433 l 16.235368122817697 -0.6291423345191343 a37.24755360540439,37.24755360540439 0 0,0 0.019312511639780112,0.6408882406200102 l -16.243792328913123 0.34958394647412505" fill="#ffbc11" stroke="none" /><line stroke="#e1ed5e" stroke-width="0.3" x1="184.98032266829074" x2="189.97916517819016" y1="98.17113171792111" y2="98.06355123074" /><path d="M 185.9800911702706 98.14961562048488 a86.0,86.0 0 0,1 -9.607161424134198,41.387399972396054" fill="none" id="id64" stroke="none" /><text fill="#e1ed5e" style="font-size:6.75px; font-family:Arial;" text-anchor="middle"><textPath startOffset="21.466115282336823" xlink:href="#id64">April</textPath></text><path d="M 120.99513854157772 99.54816195383933 l 8.525545759593783 -0.18347894827364836 a29.527519863558638,29.527519863558638 0 0,0 0.006562129763559087,0.5082441819083772 l -8.527440896475058 0.03669850830480847" fill="#ff5207" stroke="none" /><path d="M 120.99980553446 99.90962569577887 l 7.775847214418846 -0.033463966158150726 a28.7759192214822,28.7759192214822 0 0,0 -0.0021317512157096284,0.49534390735915335 l -7.775271165913634 -0.1003894194046873" fill="#ff4706" stroke="none" /><path d="M 120.99824983174949 100.27111621757518 l 5.809697292803742 0.07501116368756493 a26.810181521147932,26.810181521147932 0 0,0 -0.009929900536907623,0.4614034591551682 l -5.807545329581828 -0.175004438632848" fill="#ff2a04" stroke="none" /><path d="M 120.9904718944345 100.63252640178507 l 13.809623810626166 0.4161388892479745 a34.81589234780576,34.81589234780576 0 0,0 -0.023207058845304586,0.5988710705494472 l -13.800414618929658 -0.6537872068114279" fill="#ff9c0e" stroke="none" /><path d="M 120.9764740272857 100.99374915477107 l 8.19096791302552 0.38804269152851906 a29.20015441822057,29.20015441822057 0 0,0 -0.028106746449517696,0.5018648389004264 l -8.183074815688473 -0.5289792467643688" fill="#ff4d07" stroke="none" /><path d="M 120.95626037817324 101.35467743843564 l 8.233038756210728 0.5322090702986926 a29.25022264280038,29.25022264280038 0 0,0 -0.03680435914557608,0.5021662393419034 l -8.222657838400815 -0.6738484461373663" fill="#ff4e07" stroke="none" /><path d="M 120.92983693683757 101.71520430193887 l 10.891438710622163 0.8925555696940523 a31.92795006541624,31.92795006541624 0 0,0 -0.04960296480617065,0.5473645832877014 l -10.874461149538917 -1.0799015415303244" fill="#ff740a" stroke="none" /><path d="M 120.89721153311464 102.0752229133903 l 7.69709359067792 0.7643692059379606 a28.73495378309666,28.73495378309666 0 0,0 -0.05311546534921213,0.49178324191026035 l -7.6827958238276555 -0.8967487697330124" fill="#ff4606" stroke="none" /><path d="M 120.8583938346157 102.4346265915055 l 7.81185806702655 0.9118131304763557 a28.86489222076672,28.86489222076672 0 0,0 -0.061851265985090324,0.4930154459046148 l -7.79500529179461 -1.0461463306683654" fill="#ff4806" stroke="none" /><path d="M 120.81339534386255 102.79330883721812 l 8.077328795130024 1.084036195526659 a29.149746924773098,29.149746924773098 0 0,0 -0.07102259352532962,0.49673185369786627 l -8.057472150588094 -1.2229135212049347" fill="#ff4c07" stroke="none" /><path d="M 120.70491114924044 103.5080841355445 l 7.3996103912680935 1.2537342293193137 a28.50507051667935,28.50507051667935 0 0,0 -0.08613086360264785,0.48306762409112153 l -7.376933085326257 -1.3809206041436535" fill="#ff4306" stroke="none" /><path d="M 120.64145759157962 103.86396538481128 l 7.596731170513942 1.422065576054914 a28.728686497695357,28.728686497695357 0 0,0 -0.09517412596027615,0.485290817829805 l -7.571127111578002 -1.5526201209526638" fill="#ff4606" stroke="none" /><path d="M 120.5718875245553 104.21870165774334 l 32.00199114444732 6.562686721430825 a53.667970463635,53.667970463635 0 0,0 -0.1933732654685304,0.9033755189941042 l -31.88428384025434 -7.112576059841098" fill="#7bff26" stroke="none" /><path d="M 120.49622156327973 104.57218783832717 l 7.203802158238213 1.6069857810583343 a28.380865046562036,28.380865046562036 0 0,0 -0.11046837368130168,0.4758948625930987 l -7.175073218626359 -1.730749300999998" fill="#ff4106" stroke="none" /><path d="M 120.41448212921028 104.9243191809786 l 5.70282952478279 1.3756191627588117 a26.86639520230981,26.86639520230981 0 0,0 -0.1123126440209648,0.4486331834855913 l -5.678305566466764 -1.473580185641799" fill="#ff2b04" stroke="none" /><path d="M 120.32669344350535 105.2749913415812 l 7.230221282617464 1.8763186825995708 a28.46971696882062,28.46971696882062 0 0,0 -0.12718090070715282,0.4732874439876774 l -7.196852305568534 -2.0004970597627962" fill="#ff4306" stroke="none" /><path d="M 120.23288151984713 105.62410040840565 l 7.254730562545869 2.0165853825449336 a28.529789647807632,28.529789647807632 0 0,0 -0.1355944321400923,0.47202200659797744 l -7.218943493519677 -2.141164864647493" fill="#ff4306" stroke="none" /><path d="M 120.13307415673323 105.97154293290107 l 11.021597621508487 3.2690458930231028 a32.49618524472935,32.49618524472935 0 0,0 -0.16367744736064815,0.5349073682883221 l -10.963693401641706 -3.458280233863482" fill="#ff7c0b" stroke="none" /><path d="M 120.02730092923936 106.31721596034902 l 19.565829069330157 6.171653789541758 a41.51611507250362,41.51611507250362 0 0,0 -0.2208415124428495,0.6796802871702466 l -19.456695305871058 -6.5075329766898" fill="#fff417" stroke="none" /><path d="M 119.9155931802556 106.66101706037122 l 30.555923370293623 10.219807415362629 a53.21969764939387,53.21969764939387 0 0,0 -0.2980535437141765,0.8662831138046201 l -30.375478995636218 -10.744263232256548" fill="#80ff26" stroke="none" /><path d="M 119.79798401119884 107.00284435728193 l 11.135143589002269 3.938667563609509 a32.811203364785825,32.811203364785825 0 0,0 -0.19292321822736766,0.530841839336468 l -11.065696109769675 -4.129757199952108" fill="#ff800b" stroke="none" /><path d="M 119.67450827220406 107.3425965602758 l 6.798348920854627 2.5371680303870563 a28.256360634925983,28.256360634925983 0 0,0 -0.173986146093561,0.45422292559117505 l -6.75366849516756 -2.653814522811375" fill="#ff3f05" stroke="none" /><path d="M 119.54520255179757 107.68017299344265 l 7.0258917233582725 2.7607830476858237 a28.548846106839356,28.548846106839356 0 0,0 -0.18366068928581028,0.4558307689038794 l -6.97732841981507 -2.881313184432517" fill="#ff4406" stroke="none" /><path d="M 119.41010516605496 108.01547362559984 l 5.417706781627068 2.2372617483448294 a26.86147480607866,26.86147480607866 0 0,0 -0.18016249381731872,0.42585091624381605 l -5.37839330661744 -2.330187190254809" fill="#ff2b04" stroke="none" /><path d="M 119.26925614724726 108.34839909993367 l 6.32816695087915 2.7416763196900362 a27.896556097078324,27.896556097078324 0 0,0 -0.1946899524438569,0.4389744461145042 l -6.28003591370402 -2.850199102297228" fill="#ff3a05" stroke="none" /><path d="M 119.12269723197855 108.67885076344098 l 29.203587577750966 13.254070556560073 a53.0705458907335,53.0705458907335 0 0,0 -0.3846992467969629,0.8286079531490206 l -28.97111371411417 -13.754798576987923" fill="#81ff25" stroke="none" /><path d="M 118.97047184881838 109.00673069616215 l 6.780993121515259 3.219454918398357 a28.50644774081833,28.50644774081833 0 0,0 -0.2142690448271909,0.4414576967387069 l -6.724570820073353 -3.33570157110234" fill="#ff4306" stroke="none" /><path d="M 118.81262510543309 109.33194174019688 l 6.722066180890723 3.334459152949555 a28.503651883114237,28.503651883114237 0 0,0 -0.22181450984226886,0.4376610714667977 l -6.663673001262184 -3.449674436119047" fill="#ff4306" stroke="none" /><path d="M 118.64920377521936 109.65438752849418 l 6.639965198159265 3.437401294522034 a28.476955629957153,28.476955629957153 0 0,0 -0.2291004870034415,0.4333717826377466 l -6.579812202930931 -3.5511880922459147" fill="#ff4306" stroke="none" /><line stroke="#e1ed5e" stroke-width="0.3" x1="174.80103733775053" x2="179.2010983576182" y1="140.37084112569926" y2="142.7455964860345" /><path d="M 175.68104954172406 140.8457921977663 a86.0,86.0 0 0,1 -30.038265399797805,32.042727171017184" fill="none" id="id65" stroke="none" /><text fill="#e1ed5e" style="font-size:6.75px; font-family:Arial;" text-anchor="middle"><textPath startOffset="22.206326154141568" xlink:href="#id65">May</textPath></text><path d="M 118.48025628344425 109.97397251340804 l 9.638731307701313 5.202116228943396 a31.952951861553018,31.952951861553018 0 0,0 -0.26539755201501064,0.48177364683730584 l -9.547757346234794 -5.3672603941785075" fill="#ff740a" stroke="none" /><path d="M 118.30583269289576 110.29060199501025 l 9.576735517074297 5.383550438322113 a31.986194904786213,31.986194904786213 0 0,0 -0.2739358716336502,0.47763028231661125 l -9.482647649288266 -5.54760056649704" fill="#ff750a" stroke="none" /><path d="M 118.12598468904814 110.60418214915192 l 8.849990399327698 5.1774792830659155 a31.25322494607278,31.25322494607278 0 0,0 -0.27565214076752004,0.4620088434078767 l -8.759557382861951 -5.329050220359896" fill="#ff6a09" stroke="none" /><path d="M 117.94076556474637 110.91462005526583 l 25.929431995825166 15.774683497308478 a51.35088273949175,51.35088273949175 0 0,0 -0.4659123307684403,0.7511990269144591 l -25.654055025388764 -16.21867885558821" fill="#95ff23" stroke="none" /><path d="M 117.75023020441432 111.22182372390056 l 6.3232995395475236 3.99763563452698 a28.48098975626099,28.48098975626099 0 0,0 -0.265544727642096,0.4121313142755243 l -6.25354994852838 -4.10588854872396" fill="#ff4306" stroke="none" /><path d="M 117.55443506779137 111.5257021239791 l 6.19735679971015 4.068993855605885 a28.413767078879136,28.413767078879136 0 0,0 -0.27195614030655846,0.406537530264642 l -6.126397553992868 -4.175068300076333" fill="#ff4206" stroke="none" /><path d="M 117.35343817320211 111.8261652097733 l 6.198125813785869 4.223950270441808 a28.500567944541544,28.500567944541544 0 0,0 -0.27976577245008066,0.40302346113162607 l -6.124499134173652 -4.330014993760454" fill="#ff4306" stroke="none" /><path d="M 117.14729908036423 112.12312394758627 l 5.729697534689082 4.0508906428743385 a28.017061268048685,28.017061268048685 0 0,0 -0.28179854752679523,0.39139353571724766 l -5.659119194786684 -4.148917784042718" fill="#ff3c05" stroke="none" /><path d="M 116.93607887273984 112.41649034213515 l 6.029507515249079 4.420463697262534 a28.47632664985025,28.47632664985025 0 0,0 -0.29322308590192436,0.3928202413974892 l -5.952523162652063 -4.523596818169338" fill="#ff4306" stroke="none" /><path d="M 116.71984013943494 112.70617746262583 l 5.97231897527711 4.538640568954819 a28.501190049360005,28.501190049360005 0 0,0 -0.30020328286145986,0.38805321090821027 l -5.893308875197582 -4.640771773976282" fill="#ff4306" stroke="none" /><path d="M 116.498646956653 112.99209946851258 l 19.4221001118577 15.2942151682876 a45.721063698168436,45.721063698168436 0 0,0 -0.49222445447404484,0.6141256899261517 l -19.1559577453288 -15.626268691792001" fill="#d6ff1c" stroke="none" /><path d="M 116.27256486870786 113.27417163493432 l 6.486421355179417 5.291229198337921 a29.370828419354403,29.370828419354403 0 0,0 -0.32294484611758706,0.3890078711469704 l -6.394380509168287 -5.4020983265986615" fill="#ff4f07" stroke="none" /><path d="M 116.0416608686014 113.55231037782055 l 5.661630350549313 4.783056591435277 a28.411591501366868,28.411591501366868 0 0,0 -0.31882877868153836,0.3708698990377316 l -5.578459062296996 -4.879803589634536" fill="#ff4206" stroke="none" /><path d="M 115.80600337817218 113.82643327865902 l 5.583606262566116 4.884306145998099 a28.41843011850906,28.41843011850906 0 0,0 -0.3252437231367037,0.3654147708291226 l -5.498703689781074 -4.979695086568088" fill="#ff4206" stroke="none" /><path d="M 115.56566222782051 114.09645910891815 l 5.511394004291864 4.991187594690289 a28.435550919463502,28.435550919463502 0 0,0 -0.331685254206816,0.3599788348081963 l -5.424662342089325 -5.08531768429982" fill="#ff4206" stroke="none" /><path d="M 115.32070863581623 114.36230785411682 l 4.274132865167752 4.0067606191159175 a26.85852732416648,26.85852732416648 0 0,0 -0.3190965050946956,0.33457140986077283 l -4.204529808694092 -4.079739145559197" fill="#ff2b04" stroke="none" /><path d="M 115.07121518719521 114.62390073753431 l 5.419379145160672 5.258531690611629 a28.55127974982845,28.55127974982845 0 0,0 -0.3452792932919513,0.34976610117431994 l -5.328059226813185 -5.351038285766613" fill="#ff4406" stroke="none" /><path d="M 114.81725581225074 114.88116024355365 l 5.260270222751747 5.282956918678713 a28.455204666606008,28.455204666606008 0 0,0 -0.35006683241781833,0.3426140748223085 l -5.168553437958135 -5.372721096423594" fill="#ff4206" stroke="none" /><path d="M 114.55890576462653 115.13401014063108 l 20.956901426551372 21.784738759435903 a51.22857191828717,51.22857191828717 0 0,0 -0.6407576237270192,0.6058763273082419 l -20.578807968433544 -22.142249723490064" fill="#96ff23" stroke="none" /><path d="M 114.29624159901734 115.38237550388516 l 5.040928127828422 5.423904514574197 a28.404707730434072,28.404707730434072 0 0,0 -0.3610109185959479,0.32977491465113484 l -4.9468176597656095 -5.509872195811915" fill="#ff4206" stroke="none" /><path d="M 114.0293411484842 115.62618273729858 l 4.519132397697019 5.033507127174654 a27.764521537199276,27.764521537199276 0 0,0 -0.3583707562165527,0.3162205253077593 l -4.431819288573879 -5.110550794254702" fill="#ff3805" stroke="none" /><path d="M 113.75828350139079 115.86535959552629 l 3.788691666136004 4.368928411290919 a26.78288163496655,26.78288163496655 0 0,0 -0.35089977973951786,0.2990444049021629 l -3.712926409819439 -4.433497206416028" fill="#ff2a04" stroke="none" /><path d="M 113.48314897796784 116.09983520530334 l 4.351694575442862 5.196231655003351 a27.777762838164058,27.777762838164058 0 0,0 -0.3692192081110852,0.3038422719597125 l -4.261605238787086 -5.270369045820242" fill="#ff3805" stroke="none" /><path d="M 113.20401910651253 116.32954008644616 l 4.339012823322549 5.3660997657222875 a27.900873783561202,27.900873783561202 0 0,0 -0.37605396528932805,0.2987600135022095 l -4.24600136531587 -5.439993693229623" fill="#ff3a05" stroke="none" /><path d="M 112.92097659922987 116.55440617244103 l 9.113363714739283 11.676077529617391 a35.81162329641025,35.81162329641025 0 0,0 -0.4892059957025347,0.3751022966908874 l -8.911028990543254 -11.83121916813565" fill="#ffa90f" stroke="none" /><path d="M 112.63410532772338 116.77436683061366 l 5.482489142836801 7.2791291224238215 a30.112815590268575,30.112815590268575 0 0,0 -0.41672556159743906,0.30828360796865345 l -5.356378610820798 -7.372422679132244" fill="#ff5a08" stroke="none" /><path d="M 112.34349029814194 116.9893568818739 l 4.417759846864392 6.080524782207648 a28.515941969680757,28.515941969680757 0 0,0 -0.39959344963448085,0.2850993164500824 l -4.312439069381027 -6.1556683605019495" fill="#ff4306" stroke="none" /><path d="M 112.04921762599082 117.19931262002967 l 4.251156805109981 6.0681927372724855 a28.409136068282148,28.409136068282148 0 0,0 -0.4029269329404556,0.2771368185603737 l -4.146072987546642 -6.140470345197956" fill="#ff4206" stroke="none" /><path d="M 111.7513745106137 117.40417183066458 l 3.7936871109242363 5.618575281612289 a27.779413698155416,27.779413698155416 0 0,0 -0.39860191435351655,0.26417161373545583 l -3.6964104978307555 -5.683044916439063" fill="#ff3805" stroke="none" /><path d="M 111.45004920935366 117.60387380957326 l 6.243669716485063 9.599327635017337 a32.451222754490466,32.451222754490466 0 0,0 -0.47087991043438,0.30053783775109355 l -6.077508004003752 -9.705379901592238" fill="#ff7b0b" stroke="none" /><path d="M 111.1453310114006 117.79835938074945 l 3.873219684809725 6.185276672386019 a28.29790916912236,28.29790916912236 0 0,0 -0.41506402964361555,0.2549662275924256 l -3.7661764552338006 -6.2510313668068225" fill="#ff4006" stroke="none" /><line stroke="#e1ed5e" stroke-width="0.3" x1="143.8653032363475" x2="146.44561519142675" y1="172.8068346515853" y2="177.08958963109032" /><path d="M 144.38136562736335 173.6633856474863 a86.0,86.0 0 0,1 -40.68145358897372,12.25698825130547" fill="none" id="id66" stroke="none" /><text fill="#e1ed5e" style="font-size:6.75px; font-family:Arial;" text-anchor="middle"><textPath startOffset="21.466115282336833" xlink:href="#id66">June</textPath></text><path d="M 110.8373102113329 117.98757091392108 l 16.217532133449364 26.91756566995377 a52.42552609099387,52.42552609099387 0 0,0 -0.7769765760836725,0.459051456469678 l -15.751787686337309 -27.1927356987172" fill="#89ff24" stroke="none" /><path d="M 110.5260780823613 118.17145234162733 l 4.260705606329408 7.355370942655123 a29.500299639886947,29.500299639886947 0 0,0 -0.4415931222853604,0.25074809970617534 l -4.133463717122849 -7.427622208155927" fill="#ff5107" stroke="none" /><path d="M 109.57404056367764 118.69057910512821 l 3.4153557723270405 6.66750645250182 a28.491348166099414,28.491348166099414 0 0,0 -0.4384222773678559,0.21983403136942306 l -3.300079587276424 -6.725308324780546" fill="#ff4306" stroke="none" /><path d="M 108.92500713936063 119.00905698771935 l 3.480451704727622 7.412890966372035 a29.18929157792428,29.18929157792428 0 0,0 -0.45664840305831655,0.20962488465427095 l -3.352335305901886 -7.4717029213603805" fill="#ff4d07" stroke="none" /><path d="M 108.2653958097858 119.30500536409082 l 12.443088845132968 29.062600561336666 a52.61431972058989,52.61431972058989 0 0,0 -0.8356370126639189,0.34929633906568647 l -11.940980372971588 -29.272481943422324" fill="#87ff25" stroke="none" /><path d="M 107.93186726928326 119.44442032107085 l 2.7959059102198904 6.853968662210634 a28.402295338701904,28.402295338701904 0 0,0 -0.45427297125258637,0.18076459038706236 l -2.6775118629254377 -6.901080097003765" fill="#ff4206" stroke="none" /><path d="M 107.59598834532513 119.57807347666477 l 2.6767886144208832 6.899215979825022 a28.400295833449242,28.400295833449242 0 0,0 -0.45728503621462285,0.17290607237123073 l -2.5576333574459857 -6.944270302302884" fill="#ff4206" stroke="none" /><path d="M 107.2578585660854 119.70592522655815 l 2.5570471913663693 6.94267879361887 a28.39859981146702,28.39859981146702 0 0,0 -0.46016609625458704,0.16499919019139123 l -2.437161534482047 -6.985665524850221" fill="#ff4106" stroke="none" /><path d="M 106.91757812671514 119.82793768551818 l 2.4431021907898325 7.002693299733882 a28.416634126393177,28.416634126393177 0 0,0 -0.463232092833966,0.1571534766594366 l -2.3222003650186394 -7.043709763291441" fill="#ff4206" stroke="none" /><path d="M 106.57524785965236 119.94407469862006 l 1.8455396691832082 5.597900156329998 a26.894277125379183,26.894277125379183 0 0,0 -0.4409107406417636,0.1411656956512151 l -1.7489075834505041 -5.62883869864092" fill="#ff2c04" stroke="none" /><path d="M 105.88484417918355 120.15858648285463 l 9.606790340553584 32.90814641919197 a55.28172284752228,55.28172284752228 0 0,0 -0.915751826292024,0.25880061330787985 l -9.038907346156954 -33.06863582583837" fill="#69ff28" stroke="none" /><path d="M 105.53697534728816 120.25689768951611 l 1.543351056384432 5.646314546713301 a26.85344346890522,26.85344346890522 0 0,0 -0.4469302445620738,0.11803833967462506 l -1.4459303690108607 -5.6720442356915095" fill="#ff2b04" stroke="none" /><path d="M 104.83641907484287 120.43548508189849 l 2.4094763678844244 10.180841984353659 a31.46208009325926,31.46208009325926 0 0,0 -0.5280832995743729,0.12019003969151282 l -2.2338729189171893 -10.220808757622857" fill="#ff6d0a" stroke="none" /><path d="M 104.48393922423573 120.51570834832081 l 1.7153859186153806 7.8485357296804015 a29.03380743793712,29.03380743793712 0 0,0 -0.4891623323217803,0.10250872277430009 l -1.5800321248642224 -7.876900433181243" fill="#ff4b06" stroke="none" /><path d="M 104.13013068566511 120.58985236759428 l 1.5459212464690057 7.70684819906571 a28.86036778170886,28.86036778170886 0 0,0 -0.4879221532322869,0.09351144193147985 l -1.4130314786650144 -7.732316839345658" fill="#ff4806" stroke="none" /><path d="M 103.7750983002368 120.6578951692458 l 2.8641054384540556 15.672807751135696 a36.93235710014815,36.93235710014815 0 0,0 -0.6263569984371097,0.1089001928671897 l -2.5938994685448957 -15.719786522523892" fill="#ffb811" stroke="none" /><path d="M 103.41894727170886 120.7198165907248 l 0.9756856656014022 5.912939403524616 a26.992897037978718,26.992897037978718 0 0,0 -0.45909022663208976,0.07170045173255943 l -0.8737595753607954 -5.928858162604281" fill="#ff2d04" stroke="none" /><path d="M 103.06178313531738 120.77559828337769 l 1.0718651046146959 7.273094743575695 a28.351653008100904,28.351653008100904 0 0,0 -0.48342458737108696,0.06699824283476041 l -0.9465119260567785 -7.290467551903057" fill="#ff4106" stroke="none" /><path d="M 102.70371172650421 120.8252237178851 l 0.9689673819530255 7.463429738715439 a28.526066784983435,28.526066784983435 0 0,0 -0.4874868141588301,0.05902786427079923 l -0.8403531447428151 -7.479003131711589" fill="#ff4306" stroke="none" /><path d="M 102.34483914955558 120.86867818915974 l 0.8240806928129307 7.334181017692514 a28.380333338579515,28.380333338579515 0 0,0 -0.48593536981049923,0.05036918795071205 l -0.6977127263968288 -7.347279574098985" fill="#ff4106" stroke="none" /><path d="M 101.98527174616119 120.90594882070398 l 0.708289453675216 7.458658038835647 a28.492212870072176,28.492212870072176 0 0,0 -0.48864916025114624,0.042162705674903926 l -0.579795975682528 -7.469744996789215" fill="#ff4306" stroke="none" /><path d="M 101.62511606390274 120.93702456842531 l 0.45533513132106784 5.866265827464593 a26.88391067575758,26.88391067575758 0 0,0 -0.4616828250271931,0.03184035068487647 l -0.3542895455149444 -5.873234522665755" fill="#ff2b04" stroke="none" /><path d="M 101.26447882468166 120.96189622390904 l 0.3952518324731909 6.552286786375203 a27.564197296088874,27.564197296088874 0 0,0 -0.47385733849966605,0.02449301180903859 l -0.28240642556004525 -6.558119604946443" fill="#ff3505" stroke="none" /><path d="M 100.90346689309514 120.98055641714683 l 0.8353786690118795 19.399392970384206 a40.417371221152266,40.417371221152266 0 0,0 -0.6953320790958534,0.02394864272343779 l -0.5013262382413739 -19.410898411533736" fill="#ffe615" stroke="none" /><line stroke="#e1ed5e" stroke-width="0.3" x1="102.19456741930631" x2="102.32365962044197" y1="184.97166512339345" y2="189.96999836594603" /><path d="M 102.22038585953345 185.97133177190398 a86.0,86.0 0 0,1 -42.740103519485714,-10.115201625700543" fill="none" id="id67" stroke="none" /><text fill="#e1ed5e" style="font-size:6.75px; font-family:Arial;" text-anchor="middle"><textPath startOffset="22.20632615414155" xlink:href="#id67">July</textPath></text><path d="M 100.54218724476979 120.99299961872073 l 0.1261811869820974 4.88562140802408 a25.887250580284523,25.887250580284523 0 0,0 -0.44555694655067857,0.007670666900757511 l -0.04206455053875092 -4.887069552203997" fill="#ff1d02" stroke="none" /><path d="M 100.18074693466247 120.99922214144158 l 0.05114567392460916 5.942116641271345 a26.942336750676038,26.942336750676038 0 0,0 -0.46378521717412513,0.0 l 0.05114567392460507 -5.942116641271345" fill="#ff2c04" stroke="none" /><path d="M 99.81925306533755 120.99922214144158 l -0.06326353908785232 7.349973117057723 a28.35024537664214,28.35024537664214 0 0,0 -0.487948641931071,-0.00840047838083593 l 0.18977187091159128 -7.347795161397728" fill="#ff4106" stroke="none" /><path d="M 99.45781275523022 120.99299961872073 l -0.15169006784324923 5.873302197932015 a26.875260724845777,26.875260724845777 0 0,0 -0.4623564163487886,-0.01592448983574004 l 0.25276683586668086 -5.869820909670181" fill="#ff2b04" stroke="none" /><path d="M 99.09653310690486 120.98055641714683 l -0.34689220713738333 8.055626142072773 a29.063091636848668,29.063091636848668 0 0,0 -0.49962489760450063,-0.02582490028721096 l 0.4855051731553729 -8.048461435023361" fill="#ff4b07" stroke="none" /><path d="M 98.73552117531835 120.96189622390904 l -0.9241353076930543 15.31985197268064 a36.34769984498563,36.34769984498563 0 0,0 -0.6242063868634157,-0.043048927055712276 l 1.1877044553354 -15.301674701108643" fill="#ffb010" stroke="none" /><path d="M 98.37488393609728 120.93702456842531 l -0.5802813127106257 7.47599778913252 a28.498484469877596,28.498484469877596 0 0,0 -0.4887567198848021,-0.04217198637268309 l 0.7088823503369694 -7.464901550481173" fill="#ff4306" stroke="none" /><path d="M 98.01472825383883 120.90594882070398 l -0.5549206977607596 5.8436049016303935 a26.86989397069164,26.86989397069164 0 0,0 -0.460073238310696,-0.04768847227687734 l 0.6554265326770489 -5.833187060897755" fill="#ff2b04" stroke="none" /><path d="M 97.65516085044442 120.86867818915974 l -0.7858280506830491 6.993738868965658 a28.037748865405852,28.037748865405852 0 0,0 -0.47914186605553255,-0.058017407270365175 l 0.9060973397899709 -6.9791759329699445" fill="#ff3c05" stroke="none" /><path d="M 97.2962882734958 120.8252237178851 l -0.7600752011247279 5.854446667028728 a26.903580277124092,26.903580277124092 0 0,0 -0.45873347104514334,-0.0635762790979461 l 0.8607372633567023 -5.840495822438177" fill="#ff2c04" stroke="none" /><path d="M 96.93821686468263 120.77559828337769 l -1.0944413820823626 7.426285107057727 a28.50649801372929,28.50649801372929 0 0,0 -0.48483327355329253,-0.07572098622915177 l 1.2221105192441724 -7.40634581348147" fill="#ff4306" stroke="none" /><path d="M 96.58105272829116 120.7198165907248 l -0.9577449402325944 5.8042133806864875 a26.882700769126473,26.882700769126473 0 0,0 -0.45591912040635746,-0.07926738308660722 l 1.0575130321110018 -5.786867419078874" fill="#ff2b04" stroke="none" /><path d="M 95.86986931433489 120.58985236759428 l -3.301673684368538 16.45976335883712 a37.78764006485035,37.78764006485035 0 0,0 -0.6366471289227169,-0.13341559586984708 l 3.5845122747206415 -16.40049178224073" fill="#ffc312" stroke="none" /><path d="M 95.51606077576429 120.51570834832081 l -1.2631809317645488 5.779527841762581 a26.915958767611755,26.915958767611755 0 0,0 -0.4517777678740791,-0.10282314910600553 l 1.3624788490314905 -5.756927959078889" fill="#ff2c04" stroke="none" /><path d="M 95.16358092515715 120.4354850818985 l -1.729276580977089 7.3067708207610185 a28.50861487363951,28.50861487363951 0 0,0 -0.47656455275771437,-0.11712797230988319 l 1.8547944184780139 -7.275921590137106" fill="#ff4306" stroke="none" /><path d="M 94.46302465271185 120.25689768951611 l -1.6785848466344393 6.1410642758414244 a27.366342554981355,27.366342554981355 0 0,0 -0.45332845799287425,-0.1281151504043614 l 1.7840444727319273 -6.111260332098542" fill="#ff3204" stroke="none" /><path d="M 94.11515582081647 120.15858648285463 l -2.476478837925132 8.483200456498636 a29.83728676799784,29.83728676799784 0 0,0 -0.49178245929556985,-0.14817002083272726 l 2.6221362716609478 -8.439315066560184" fill="#ff5608" stroke="none" /><path d="M 93.76903079525671 120.05430185196036 l -2.3738346611549104 7.640159223577467 a29.000445235117624,29.000445235117624 0 0,0 -0.4754397274909592,-0.15222078685086154 l 2.50499573373681 -7.598165590066899" fill="#ff4a06" stroke="none" /><path d="M 93.42475214034765 119.94407469862007 l -1.590701203040843 4.824922846073328 a26.080375063705034,26.080375063705034 0 0,0 -0.4251477028883553,-0.1442331838321608 l 1.673518638866424 -4.796826675343044" fill="#ff2003" stroke="none" /><path d="M 93.08242187328487 119.8279376855182 l -2.6745651248831352 7.666138301675428 a29.119296463835777,29.119296463835777 0 0,0 -0.4718441426127279,-0.16918652213043164 l 2.8061288281255896 -7.618964238505039" fill="#ff4c07" stroke="none" /><path d="M 92.7421414339146 119.70592522655815 l -2.0265572606261544 5.502337291587231 a26.863672057762788,26.863672057762788 0 0,0 -0.4325432144028327,-0.16355083243554827 l 2.1209706957892704 -5.466638209045049" fill="#ff2b04" stroke="none" /><path d="M 92.40401165467489 119.57807347666478 l -1.9257571915047411 4.963490474113112 a26.323981446928965,26.323981446928965 0 0,0 -0.4210319315565996,-0.16753729467515302 l 2.010910199103199 -4.929606335031893" fill="#ff2303" stroke="none" /><path d="M 92.06813273071674 119.44442032107085 l -1.4058333834305354 3.446302652425322 a24.722011482260843,24.722011482260843 0 0,0 -0.39264268609359226,-0.16412467463138689 l 1.4649475290215899 -3.421592934773962" fill="#ff0b01" stroke="none" /><path d="M 91.7346041902142 119.30500536409082 l -2.9300100481318143 6.843454445225241 a28.44431512135445,28.44431512135445 0 0,0 -0.44844403143812295,-0.19658468482719743 l 3.047374754227681 -6.792005207103592" fill="#ff4206" stroke="none" /><path d="M 91.40352486487194 119.15986991738527 l -6.294153415556798 14.02844291253081 a36.375746413384334,36.375746413384334 0 0,0 -0.5690760416497742,-0.2612348993041561 l 6.534697452973992 -13.91802094289258" fill="#ffb110" stroke="none" /><path d="M 91.07499286063937 119.00905698771935 l -8.524722199567075 18.15650425436583 a41.058153836248145,41.058153836248145 0 0,0 -0.6371586766919303,-0.30587488488114806 l 8.835993544259246 -18.007075092985122" fill="#ffee16" stroke="none" /><path d="M 90.7491055286396 118.85261126421891 l -2.3243312581968056 4.736808294129562 a26.27634993278169,26.27634993278169 0 0,0 -0.4043380857685125,-0.20274351012530153 l 2.405523251648079 -4.696096943094958" fill="#ff2203" stroke="none" /><path d="M 90.42595943632237 118.69057910512821 l -2.058384078951465 4.0184068785270135 a25.51492401462905,25.51492401462905 0 0,0 -0.3891743944395654,-0.20359764965298996 l 2.127249375917526 -3.9823798099293066" fill="#ff1702" stroke="none" /><path d="M 90.10565033884886 118.52300852407294 l -2.776487121444454 5.197804441804108 a26.89288144720267,26.89288144720267 0 0,0 -0.4064374806887232,-0.22162212074070378 l 2.8655474140018176 -5.149241669303637" fill="#ff2c04" stroke="none" /><line stroke="#e1ed5e" stroke-width="0.3" x1="58.666819895761336" x2="56.23545636021788" y1="174.27360380694188" y2="178.64263932499728" /><path d="M 58.180547188652646 175.14741091055294 a86.0,86.0 0 0,1 -31.652253787137756,-30.449443065178592" fill="none" id="id68" stroke="none" /><text fill="#e1ed5e" style="font-size:6.75px; font-family:Arial;" text-anchor="middle"><textPath startOffset="22.20632615414155" xlink:href="#id68">August</textPath></text><path d="M 89.7882731507175 118.34994917583269 l -3.6450498555977395 6.549967559922979 a28.49589644311049,28.49589644311049 0 0,0 -0.42655810402749367,-0.24221082394948557 l 3.7572567265464403 -6.486253570178859" fill="#ff4306" stroke="none" /><path d="M 89.4739219176387 118.17145234162733 l -2.629188727045002 4.5388393736791075 a26.24534996186911,26.24534996186911 0 0,0 -0.38897124496369967,-0.22981106769707993 l 2.706927843037084 -4.492909733688277" fill="#ff2203" stroke="none" /><path d="M 89.1626897886671 117.98757091392108 l -8.007031498347366 13.289925643718268 a36.51562686555356,36.51562686555356 0 0,0 -0.5355986953381471,-0.3290084639978216 l 8.234609393617824 -13.150128712892068" fill="#ffb210" stroke="none" /><path d="M 88.8546689885994 117.79835938074946 l -5.539531662568596 8.846267125721406 a31.43756930996002,31.43756930996002 0 0,0 -0.4561714032455219,-0.2911501725542294 l 5.690984867861041 -8.749602524343372" fill="#ff6d0a" stroke="none" /><path d="M 88.54995079064634 117.60387380957326 l -4.0915066670233395 6.290485371754333 a28.504041112530746,28.504041112530746 0 0,0 -0.40899946549342103,-0.27106254366985116 l 4.199180831256722 -6.2191248069931655" fill="#ff4306" stroke="none" /><path d="M 88.24862548938628 117.40417183066458 l -3.3255478468063258 4.925245647191208 a26.942837131082605,26.942837131082605 0 0,0 -0.38213040705807855,-0.2628327784256268 l 3.409835138487297 -4.867272079400477" fill="#ff2c04" stroke="none" /><path d="M 87.95078237400918 117.19931262002967 l -2.9397455012378333 4.196256011680893 a26.123540585143843,26.123540585143843 0 0,0 -0.3660687663827806,-0.2611803450855444 l 3.0115415954694984 -4.145031404751132" fill="#ff2003" stroke="none" /><path d="M 87.65650970185807 116.9893568818739 l -4.808061547707426 6.617728986777152 a29.179962884327367,29.179962884327367 0 0,0 -0.40381598937209495,-0.2987334150606275 l 4.921262507498086 -6.533985622976756" fill="#ff4d07" stroke="none" /><path d="M 87.36589467227662 116.77436683061367 l -4.556240426942234 6.049343923252933 a28.573235024076563,28.573235024076563 0 0,0 -0.3903257267814896,-0.29928512295320076 l 4.659694882217211 -5.970019458472366" fill="#ff4406" stroke="none" /><path d="M 87.07902340077011 116.55440617244103 l -3.8120910161044876 4.884066042706744 a27.19565485034356,27.19565485034356 0 0,0 -0.3665488731445039,-0.2912085934411495 l 3.8955973819663496 -4.8177235352604635" fill="#ff3004" stroke="none" /><path d="M 86.79598089348748 116.32954008644616 l -18.219055573109593 22.531684930048712 a49.976038579540855,49.976038579540855 0 0,0 -0.6642764392644244,-0.5466542858048754 l 18.60420214091871 -22.214735525386654" fill="#a4ff21" stroke="none" /><path d="M 86.51685102203217 116.09983520530335 l -2.745410043594944 3.2782141134158955 a25.27597521986168,25.27597521986168 0 0,0 -0.3311568283888939,-0.2822190334469826 l 2.8014323485608945 -3.2304706897459616" fill="#ff1402" stroke="none" /><path d="M 86.24171649860922 115.8653595955263 l -3.349472623330436 3.8624431324689863 a26.112478245038986,26.112478245038986 0 0,0 -0.33704699585134207,-0.2974047860565658 l 3.4154619720883663 -3.8042152046401316" fill="#ff2003" stroke="none" /><path d="M 85.97065885151581 115.62618273729859 l -4.981214883082618 5.548184564975838 a28.45619565720213,28.45619565720213 0 0,0 -0.3616653067317389,-0.3303726826977846 l 5.075979739281213 -5.461619115691475" fill="#ff4206" stroke="none" /><path d="M 85.70375840098266 115.38237550388516 l -5.623638734392154 6.050885619935216 a29.26066155949356,29.26066155949356 0 0,0 -0.36598701208081624,-0.34606356367990787 l 5.726961580863785 -5.95318741950938" fill="#ff4e07" stroke="none" /><path d="M 85.44109423537348 115.13401014063109 l -5.733381739711403 5.959861186801726 a29.269922099947607,29.269922099947607 0 0,0 -0.3600897984989646,-0.35242365668743275 l 5.835121490586162 -5.860287427191722" fill="#ff4e07" stroke="none" /><path d="M 85.18274418774928 114.88116024355367 l -5.285970729047993 5.308768267107942 a28.491629132719027,28.491629132719027 0 0,0 -0.3445579202711849,-0.34903535411283176 l 5.376569274374711 -5.216992419014448" fill="#ff4306" stroke="none" /><path d="M 84.9287848128048 114.62390073753433 l -10.68459403512144 10.367474729126076 a35.88774939184632,35.88774939184632 0 0,0 -0.42636944566759327,-0.4470466591798908 l 10.861470032167992 -10.182020953363685" fill="#ffaa0f" stroke="none" /><path d="M 84.67929136418377 114.36230785411682 l -5.594864970188811 5.244873133101314 a28.668846602780228,28.668846602780228 0 0,0 -0.3344065216176409,-0.3629322331258066 l 5.684317899802181 -5.147789645174166" fill="#ff4506" stroke="none" /><path d="M 84.43433777217949 114.09645910891817 l -4.4305306216232845 4.012344147292171 a26.977332778543566,26.977332778543566 0 0,0 -0.30875062825784527,-0.34688460389062686 l 4.498940099529468 -3.9354853736606774" fill="#ff2d04" stroke="none" /><path d="M 84.19399662182784 113.82643327865904 l -5.538716936405137 4.84503883355745 a28.35878975105967,28.35878975105967 0 0,0 -0.3182362487783163,-0.3701806528966067 l 5.621295694754233 -4.748981081499314" fill="#ff4106" stroke="none" /><path d="M 83.95833913139862 113.55231037782056 l -6.273712460720082 5.300155587710776 a29.212862917018413,29.212862917018413 0 0,0 -0.32120794771911076,-0.38691566513559644 l 6.364016408332729 -5.191378665461419" fill="#ff4d07" stroke="none" /><path d="M 83.72743513129214 113.27417163493432 l -6.400680589429476 5.221287081046747 a29.260178617354768,29.260178617354768 0 0,0 -0.31500963216472755,-0.393022951070683 l 6.489608133649065 -5.110336296397804" fill="#ff4e07" stroke="none" /><path d="M 83.50135304334701 112.99209946851258 l -19.330838070217766 15.222349546470229 a45.60490248328375,45.60490248328375 0 0,0 -0.480356834797007,-0.620925961728095 l 19.59000172223284 -14.88734559062888" fill="#d8ff1c" stroke="none" /><path d="M 83.28015986056508 112.70617746262583 l -5.897798475837621 4.4820090053402675 a28.407592833407072,28.407592833407072 0 0,0 -0.292515328120844,-0.39187208418960856 l 5.97407507065355 -4.379824041641353" fill="#ff4206" stroke="none" /><path d="M 83.06392112726016 112.41649034213515 l -3.689907189221015 2.705212778152699 a25.57532416776621,25.57532416776621 0 0,0 -0.25723929908460585,-0.35728288764361354 l 3.7359262806812286 -2.641296285057945" fill="#ff1802" stroke="none" /><path d="M 82.85270091963577 112.12312394758628 l -6.095051467296154 4.309195521617938 a28.464503897280856,28.464503897280856 0 0,0 -0.27941176245073557,-0.40251348332425957 l 6.168324136909021 -4.203640776106668" fill="#ff4206" stroke="none" /><path d="M 82.64656182679789 111.8261652097733 l -6.108049162499137 4.162564085812123 a28.391563051209083,28.391563051209083 0 0,0 -0.2717436193251623,-0.4062198402326769 l 6.178795887235032 -4.056807331373623" fill="#ff4106" stroke="none" /><path d="M 82.44556493220864 111.52570212397912 l -8.451307446127421 5.548868522744592 a31.11012064377446,31.11012064377446 0 0,0 -0.29005763437163873,-0.45017588988004315 l 8.545569943876105 -5.402571032943101" fill="#ff6809" stroke="none" /><path d="M 82.24976979558568 111.22182372390057 l -6.3236090140270225 3.997831286527889 a28.48135589033332,28.48135589033332 0 0,0 -0.2584145432052307,-0.4166465246286637 l 6.391488196900209 -3.8883884305339613" fill="#ff4306" stroke="none" /><path d="M 82.05923443525364 110.91462005526583 l -25.72788536821184 15.652068614689307 a51.114968660763886,51.114968660763886 0 0,0 -0.450831892098048,-0.7556201829583139 l 25.99349813600812 -15.206886337844882" fill="#97ff23" stroke="none" /><line stroke="#e1ed5e" stroke-width="0.3" x1="26.63291911575756" x2="22.317208475507996" y1="142.92168965132927" y2="145.44649492493687" /><path d="M 25.769776987707644 143.4266507060508 a86.0,86.0 0 0,1 -11.730757126820373,-40.83630448921669" fill="none" id="id69" stroke="none" /><text fill="#e1ed5e" style="font-size:6.75px; font-family:Arial;" text-anchor="middle"><textPath startOffset="21.46611528233685" xlink:href="#id69">September</textPath></text><path d="M 81.69416730710424 110.29060199501025 l -6.552127224696056 3.6832704975056956 a28.516438832745138,28.516438832745138 0 0,0 -0.23685426908874022,-0.42995929736915695 l 6.614557903236315 -3.569940681738716" fill="#ff4306" stroke="none" /><path d="M 81.51974371655577 109.97397251340807 l -7.255829048998491 3.9160409026108476 a29.245145938017806,29.245145938017806 0 0,0 -0.2352806691821557,-0.4450623582574028 l 7.322162226405533 -3.7905635292673185" fill="#ff4e07" stroke="none" /><path d="M 81.35079622478065 109.6543875284942 l -6.545159544376204 3.3883219594176555 a28.370199397710405,28.370199397710405 0 0,0 -0.2207759868572709,-0.4356119670927005 l 6.6025142010197415 -3.275155780622269" fill="#ff4106" stroke="none" /><path d="M 81.18737489456691 109.33194174019688 l -7.429204919266984 3.6852330333506402 a29.293010806851726,29.293010806851726 0 0,0 -0.22018125522911375,-0.4536386013055467 l 7.491539431110817 -3.55680547607981" fill="#ff4e07" stroke="none" /><path d="M 81.02952815118164 109.00673069616217 l -7.50485634257013 3.5631280302141786 a29.307752408582786,29.307752408582786 0 0,0 -0.2124468495219051,-0.4575916137111865 l 7.5650778089318615 -3.433416349224165" fill="#ff4f07" stroke="none" /><path d="M 80.87730276802145 108.67885076344099 l -14.182087803445452 6.436551395808758 a36.57436381800309,36.57436381800309 0 0,0 -0.25525233751476467,-0.5755266364466894 l 14.290781225691497 -6.191476422869373" fill="#ffb310" stroke="none" /><path d="M 80.73074385275274 108.34839909993369 l -7.450621154051204 3.227979246376553 a29.119827928979348,29.119827928979348 0 0,0 -0.1953094853164575,-0.4616539297988231 l 7.505081620559968 -3.099250790911571" fill="#ff4c07" stroke="none" /><path d="M 80.58989483394504 108.01547362559985 l -7.533161245886767 3.110846374464477 a29.15020757539641,29.15020757539641 0 0,0 -0.1875293732043117,-0.4654325251211362 l 7.585593233348466 -2.9807144815005353" fill="#ff4c07" stroke="none" /><path d="M 80.45479744820244 107.68017299344265 l -6.927203428443395 2.7220040595752915 a28.44281219965829,28.44281219965829 0 0,0 -0.1751342058030132,-0.45722014721880905 l 6.97303191383992 -2.6023603455233246" fill="#ff4206" stroke="none" /><path d="M 80.32549172779595 107.34259656027581 l -6.918608250122142 2.5820492403875317 a28.38472195809998,28.38472195809998 0 0,0 -0.1668964057113188,-0.4592272293634909 l 6.962028916838683 -2.462574214017924" fill="#ff4106" stroke="none" /><path d="M 80.20201598880116 107.00284435728193 l -6.993342068533794 2.473650146170045 a28.41793625836537,28.41793625836537 0 0,0 -0.15915285093593573,-0.46257268261798545 l 7.0348857504129585 -2.3529047604627626" fill="#ff4206" stroke="none" /><path d="M 80.0844068197444 106.66101706037122 l -7.899664246023643 2.642140650178351 a29.32980206338837,29.32980206338837 0 0,0 -0.15601743650667052,-0.48017229584886734 l 7.9439739335465624 -2.50576945435168" fill="#ff4f07" stroke="none" /><path d="M 79.97269907076064 106.31721596034903 l -15.40150615677744 4.858100492461295 a37.1495365968224,37.1495365968224 0 0,0 -0.1871155421784539,-0.6115044182720045 l 15.482848471462024 -4.592269101637243" fill="#ffbb11" stroke="none" /><path d="M 79.86692584326677 105.97154293290107 l -7.993799265433988 2.3709899014387594 a29.338010542616118,29.338010542616118 0 0,0 -0.13943568910791398,-0.48539392602853915 l 8.033427591428005 -2.233038499905624" fill="#ff4f07" stroke="none" /><path d="M 79.76711848015287 105.62410040840567 l -7.172069422158493 1.993608202900216 a28.443994456132533,28.443994456132533 0 0,0 -0.1270659922120833,-0.4728598267305035 l 7.205323490712348 -1.8698574429941737" fill="#ff4206" stroke="none" /><path d="M 79.67330655649465 105.27499134158121 l -7.3721833679750635 1.913159341075357 a28.61638144235122,28.61638144235122 0 0,0 -0.11962831030739163,-0.47785563376274676 l 7.404022992577516 -1.7859758679152185" fill="#ff4506" stroke="none" /><path d="M 79.58551787078972 104.9243191809786 l -7.993949499950311 1.9282761426533632 a29.22322792400174,29.22322792400174 0 0,0 -0.11374714819953807,-0.4900197374041605 l 8.025957214080405 -1.7903877479006285" fill="#ff4d07" stroke="none" /><path d="M 79.50377843672027 104.57218783832718 l -7.271097396537662 1.621997644058556 a28.449814340456296,28.449814340456296 0 0,0 -0.10250869286580078,-0.4788864861679594 l 7.2979401281279035 -1.4965973384744329" fill="#ff4206" stroke="none" /><path d="M 79.4281124754447 104.21870165774334 l -8.048772734432614 1.6505714819323218 a29.216272192881277,29.216272192881277 0 0,0 -0.09678942926952014,-0.493527214603374 l 8.075992096677801 -1.511780540260993" fill="#ff4d07" stroke="none" /><path d="M 79.29508885075956 103.50808413554451 l -13.614088003606687 2.3066684904422545 a34.80811760142369,34.80811760142369 0 0,0 -0.09500667785235628,-0.5916066736775881 l 13.651776435820334 -2.0719825870714526" fill="#ff9b0e" stroke="none" /><path d="M 79.23777060512086 103.15116336523772 l -7.327555439092972 1.1121312561026444 a28.41147115246234,28.41147115246234 0 0,0 -0.06922380397763128,-0.48415112379080355 l 7.345613294087203 -0.9858346603314403" fill="#ff4206" stroke="none" /><path d="M 79.18660465613746 102.79330883721812 l -7.403479794313817 0.9936007649862271 a28.46985646080259,28.46985646080259 0 0,0 -0.061004789175951736,-0.48626819287980005 l 7.4194860927366175 -0.8660148178190183" fill="#ff4306" stroke="none" /><path d="M 79.10278846688536 102.07522291339032 l -13.345857639084162 1.3253265646272898 a34.411502772829294,34.411502772829294 0 0,0 -0.05346138907981415,-0.5899419736300556 l 13.366693624441051 -1.0954032024486682" fill="#ff960d" stroke="none" /><path d="M 79.07016306316243 101.71520430193888 l -5.842004310933382 0.4787534158196097 a26.861588453834266,26.861588453834266 0 0,0 -0.033798838413936036,-0.46115829685598553 l 5.8493797080116545 -0.3781219824668635" fill="#ff2b04" stroke="none" /><path d="M 79.04373962182676 101.35467743843564 l -21.592442286406904 1.3958022031728987 a42.63750973846564,42.63750973846564 0 0,0 -0.04104093623251416,-0.7328134861731175 l 21.61326957352695 -1.0239170006643434" fill="#fcff18" stroke="none" /><path d="M 79.0235259727143 100.99374915477108 l -5.408496883104851 0.25622462570097293 a26.41456273334888,26.41456273334888 0 0,0 -0.017607025711192298,-0.45435909854579853 l 5.412106041667244 -0.16308828014117766" fill="#ff2403" stroke="none" /><path d="M 79.0095281055655 100.63252640178507 l -8.226568232237423 0.24789921966243306 a29.230302479421226,29.230302479421226 0 0,0 -0.010826260018248069,-0.5030537620760895 l 8.229616554940677 -0.10625564179621472" fill="#ff4d07" stroke="none" /><line stroke="#e1ed5e" stroke-width="0.3" x1="15.007084014347285" x2="10.007500721073583" y1="101.09737516637583" y2="101.16192664675087" /><path d="M 14.007167355692545 101.11028546245083 a86.0,86.0 0 0,1 10.666146001902534,-42.60595125391555" fill="none" id="id70" stroke="none" /><text fill="#e1ed5e" style="font-size:6.75px; font-family:Arial;" text-anchor="middle"><textPath startOffset="22.20632615414155" xlink:href="#id70">October</textPath></text><path d="M 79.00175016825051 100.2711162175752 l -10.289107288331643 0.13284649304534576 a31.28996486784643,31.28996486784643 0 0,0 -0.00231799443601258,-0.5386202727174509 l 10.28986958005716 0.04428325787578059" fill="#ff6b09" stroke="none" /><path d="M 79.00019446554 99.90962569577889 l -11.102202307924216 -0.04777919525275106 a32.10230511819851,32.10230511819851 0 0,0 0.007134344261502669,-0.552562825376595 l 11.099734956544998 0.23887827868981804" fill="#ff760a" stroke="none" /><path d="M 79.00486145842228 99.54816195383935 l -5.455698481719283 -0.11741252088143703 a26.45696175756197,26.45696175756197 0 0,0 0.013717689685316597,-0.45522333768773465 l 5.452869097578322 0.21130600599416607" fill="#ff2503" stroke="none" /><path d="M 79.03285615573316 98.82574320788736 l -7.663953827218079 -0.42921677377194567 a28.6759634772853,28.6759634772853 0 0,0 0.03184316765092028,-0.4925997094401123 l 7.655430068562746 0.5610755474650697" fill="#ff4506" stroke="none" /><path d="M 79.05617556472873 98.46500227214037 l -8.202444146925494 -0.6011668579126486 a29.22444475782316,29.22444475782316 0 0,0 0.041088896026824834,-0.5013886058844659 l 8.190880767079172 0.7422693810048928" fill="#ff4d07" stroke="none" /><path d="M 79.12142395522702 97.74499172005258 l -8.095840460394124 -0.874398102254325 a29.14292360282107,29.14292360282107 0 0,0 0.05816045907798133,-0.49828329538633737 l 8.079589648312552 1.0136251359655242" fill="#ff4c07" stroke="none" /><path d="M 79.16333360222342 97.38593545837743 l -8.125387058681435 -1.0193706513113092 a29.189080008043796,29.189080008043796 0 0,0 0.0668346547908448,-0.49799580851853503 l 8.106636404832756 1.1590848018945037" fill="#ff4d07" stroke="none" /><path d="M 79.21141760316559 97.0276538004421 l -7.697962749252844 -1.1006527470369605 a28.77625018620443,28.77625018620443 0 0,0 0.07433057054846536,-0.48974558850365185 l 7.677876285265076 1.2329974479327044" fill="#ff4706" stroke="none" /><path d="M 79.26566170972629 96.67025291283419 l -7.861937623941157 -1.262556033200121 a28.962669837417067,28.962669837417067 0 0,0 0.08328579604219055,-0.4915574827796167 l 7.839039966378743 1.3976993042955657" fill="#ff4a06" stroke="none" /><path d="M 79.32604984820605 96.31383870115002 l -7.4126501951302535 -1.3216740908524882 a28.529555452866745,28.529555452866745 0 0,0 0.0903629870533758,-0.48272269012622643 l 7.388801484167017 1.4490748584412874" fill="#ff4306" stroke="none" /><path d="M 79.3925641242962 95.95851677861259 l -30.81297023326406 -6.0429692927331935 a52.39994605837617,52.39994605837617 0 0,0 0.18120576079883727,-0.8836236435712175 l 30.70438517655023 6.572468592467813" fill="#89ff24" stroke="none" /><path d="M 79.46518482838121 95.60439243477599 l -15.979473627835402 -3.420507785426233 a37.34146416123257,37.34146416123257 0 0,0 0.13995156319291685,-0.627375416050032 l 15.918227677640447 3.6950613710262243" fill="#ffbd11" stroke="none" /><path d="M 79.54389044137918 95.25157060432595 l -13.619605204169986 -3.1614874531067105 a34.98172553133573,34.98172553133573 0 0,0 0.14120490073029004,-0.5853854749404243 l 13.56316750317888 3.3954581597065316" fill="#ff9e0e" stroke="none" /><path d="M 79.62865764111835 94.90015583598534 l -7.164561037626615 -1.793605161200223 a28.385658693451887,28.385658693451887 0 0,0 0.1227391396020443,-0.4729639733327992 l 7.132625566154263 1.9166655600818863" fill="#ff4106" stroke="none" /><path d="M 79.71946130924805 94.55025226153421 l -15.629434555391823 -4.1999118919157015 a37.1838958357106,37.1838958357106 0 0,0 0.17142347803710442,-0.6167014578297836 l 15.554824306788358 4.468324653164427" fill="#ffbb11" stroke="none" /><path d="M 79.81627453868168 94.20196356495316 l -3.6045020492905318 -1.0354398771445879 a24.75027609150591,24.75027609150591 0 0,0 0.12115154414590086,-0.4084627792012225 l 3.586144608032924 1.0973320430923494" fill="#ff0c01" stroke="none" /><path d="M 79.91906864156998 93.8553929516997 l -8.261164821582533 -2.527851456877608 a29.63926369532676,29.63926369532676 0 0,0 0.15348130438166416,-0.48657767743845315 l 8.216428033432665 2.6696793007424757" fill="#ff5307" stroke="none" /><path d="M 80.14247586403 93.16781622104843 l -7.250248566642802 -2.494521991321963 a28.66738183758282,28.66738183758282 0 0,0 0.1645602172271157,-0.4652338940182326 l 7.206235268605877 2.6189535117668066" fill="#ff4506" stroke="none" /><path d="M 80.2630227832202 92.82701384747504 l -7.137253950446803 -2.5938837133623536 a28.593986217502305,28.593986217502305 0 0,0 0.172102316873333,-0.46114864533190136 l 7.0915470450718425 2.7163554957235965" fill="#ff4406" stroke="none" /><path d="M 80.38941819471856 92.48833698450439 l -7.461030819309884 -2.857883045968034 a28.989648076800595,28.989648076800595 0 0,0 0.1825056410672794,-0.46445694967434187 l 7.410731628360914 2.9858890005381395" fill="#ff4a06" stroke="none" /><path d="M 80.52162464483688 92.15188598940014 l -18.45061272274068 -7.434013852449469 a40.89194992460445,40.89194992460445 0 0,0 0.26867629859671016,-0.6506209682647689 l 18.31991473725777 7.75050939116755" fill="#ffec16" stroke="none" /><path d="M 80.65960295795068 91.81776055985345 l -6.864319797512879 -2.9040514553488843 a28.45334831722235,28.45334831722235 0 0,0 0.19471478520318944,-0.4494285702951476 l 6.813314302467009 3.0217791702306314" fill="#ff4206" stroke="none" /><path d="M 80.803312248108 91.48605970444005 l -33.875952143702925 -15.024354083079066 a58.05821567825663,58.05821567825663 0 0,0 0.41303632874159774,-0.9100708003420143 l 33.612313497997974 15.60524689226315" fill="#4cff2c" stroke="none" /><path d="M 80.95270993114464 91.15688171328213 l -14.62314784614324 -6.789114129104007 a37.122298954806766,37.122298954806766 0 0,0 0.27407182279522385,-0.577265155835795 l 14.504117829506265 7.039821700580334" fill="#ffbb11" stroke="none" /><path d="M 81.10775173730289 90.83032412892265 l -5.306514720016006 -2.5756076942798334 a26.898546725133237,26.898546725133237 0 0,0 0.20576105702368686,-0.4148017352498599 l 5.261393650038906 2.666569018028655" fill="#ff2c04" stroke="none" /><path d="M 81.26839172434947 90.50648371742162 l -6.714167699253879 -3.4028610591695103 a28.52725124342986,28.52725124342986 0 0,0 0.2257600025966405,-0.4360964670511308 l 6.654598263497124 3.5179302484809765" fill="#ff4306" stroke="none" /><line stroke="#e1ed5e" stroke-width="0.3" x1="26.266209847984257" x2="21.92892807433627" y1="57.711370442889674" y2="55.22380399835377" /><path d="M 25.39875349325466 57.213857153982495 a86.0,86.0 0 0,1 29.58750427330802,-30.492523968695096" fill="none" id="id71" stroke="none" /><text fill="#e1ed5e" style="font-size:6.75px; font-family:Arial;" text-anchor="middle"><textPath startOffset="21.46611528233685" xlink:href="#id71">November</textPath></text><path d="M 81.78341655067847 89.55222093294921 l -6.5454126348655945 -3.7539983994257407 a28.545523874692147,28.545523874692147 0 0,0 0.2481290105000674,-0.4241329111451169 l 6.479823949895202 3.8661107229247493" fill="#ff4406" stroke="none" /><path d="M 82.15384107792192 88.93136811851018 l -52.813997167529436 -32.75655536801409 a83.14748761124282,83.14748761124282 0 0,0 0.7648476213320388,-1.2098052583937318 l 52.24232194995144 33.66080827412204" fill="#4cdaff" stroke="none" /><path d="M 82.34701348167596 88.62581576622439 l -4.954553398255756 -3.192321202383728 a26.89393875395362,26.89393875395362 0 0,0 0.2540879970124962,-0.38699345142551217 l 4.898868765885339 3.277132717786907" fill="#ff2c04" stroke="none" /><path d="M 82.54541684631803 88.32363383020206 l -6.208653464245367 -4.153322404300499 a28.4697700656145,28.4697700656145 0 0,0 0.2759880311140749,-0.4049783805255766 l 6.136240967462551 4.259578808096491" fill="#ff4306" stroke="none" /><path d="M 82.7489923806493 88.02491185347247 l -5.983111540110004 -4.153281342415872 a28.283362520886715,28.283362520886715 0 0,0 0.2810657536962394,-0.3975475760797584 l 5.910733166609886 4.255655418827416" fill="#ff4006" stroke="none" /><path d="M 82.95767976084542 87.72973835380427 l -4.77620546905253 -3.4388093850402144 a26.88536733511579,26.88536733511579 0 0,0 0.27363848456281004,-0.3732425854225579 l 4.716304371976089 3.520514414134273" fill="#ff2b04" stroke="none" /><path d="M 83.17141714833178 87.43820079747576 l -4.778385222751596 -3.566855047129789 a26.96283659546747,26.96283659546747 0 0,0 0.2808295753921214,-0.36953880274322515 l 4.716279707135364 3.6485786257540407" fill="#ff2d04" stroke="none" /><path d="M 83.39014120810768 87.1503855733568 l -12.35033924552856 -9.554391721905874 a36.61464955275226,36.61464955275226 0 0,0 0.3899389029978489,-0.4951828078916801 l 12.18404626193674 9.765566923750603" fill="#ffb410" stroke="none" /><path d="M 83.6137871275137 86.86637796730984 l -7.13084175100054 -5.715401176669652 a30.138638557689504,30.138638557689504 0 0,0 0.3279392551046014,-0.40201475078424126 l 7.031404003819547 5.837300097061975" fill="#ff5a08" stroke="none" /><path d="M 83.84228863543731 86.58626213691792 l -4.732606454979167 -3.9288944432718456 a27.15091663120895,27.15091663120895 0 0,0 0.30162003257890346,-0.357022982717826 l 4.66427580891314 4.009776375618787" fill="#ff2f04" stroke="none" /><path d="M 84.07557802195018 86.31012108654704 l -4.645125552664182 -3.9933133172062947 a27.125662629413316,27.125662629413316 0 0,0 0.30743468626870457,-0.3514509918643141 l 4.575699002817634 4.07267986527355" fill="#ff2f04" stroke="none" /><path d="M 84.5562425177563 85.77008943001954 l -6.13072158284953 -5.6488597385513675 a29.336387915173074,29.336387915173074 0 0,0 0.34537684514199013,-0.36842393769334847 l 6.032577415737084 5.753553093122766" fill="#ff4f07" stroke="none" /><path d="M 84.80347519578584 85.50635884689758 l -5.439912319085711 -5.188300487971113 a28.517387045564554,28.517387045564554 0 0,0 0.3418497821513498,-0.35230624995116777 l 5.349798273231243 5.281170933472405" fill="#ff4306" stroke="none" /><path d="M 85.05521093208273 85.24692304244772 l -5.281836375953771 -5.214080853033047 a28.42188888655134,28.42188888655134 0 0,0 0.3466985916360456,-0.3452097577031077 l 5.191301984150412 5.304226461386267" fill="#ff4206" stroke="none" /><path d="M 85.31137513191541 84.99185889309783 l -44.06587460425377 -45.02442332070653 a84.0,84.0 0 0,0 1.0420670255502897,-1.002467652950755 l 43.28432433509105 45.776274060419595" fill="#4dd2ff" stroke="none" /><path d="M 85.83668400450813 84.49514656593479 l -5.076449556106632 -5.557286609852644 a28.526870170246244,28.526870170246244 0 0,0 0.36540069686059434,-0.32806035346783624 l 4.980037871650066 5.64384597208976" fill="#ff4306" stroke="none" /><path d="M 86.10567301691215 84.25364557470407 l -3.9122036624318133 -4.433676098711019 a26.91293676988231,26.91293676988231 0 0,0 0.3500042823086729,-0.3035202646186094 l 3.8353055814763666 4.500361356749309" fill="#ff2c04" stroke="none" /><path d="M 86.37877921826538 84.01681056812374 l -4.127627612161909 -4.8433730784169455 a27.36361316245853,27.36361316245853 0 0,0 0.36112472140675544,-0.30243156878714605 l 4.043645353796044 4.913705804597904" fill="#ff3204" stroke="none" /><path d="M 86.65592168130627 83.78471172551755 l -3.816004972416216 -4.637084645846464 a27.005368262001117,27.005368262001117 0 0,0 0.3614817732839341,-0.292293121289977 l 3.7356198005677816 4.702083864400575" fill="#ff2d04" stroke="none" /><path d="M 86.93701828274178 83.55741782278169 l -4.462434104881935 -5.616936551553501 a28.173792188556284,28.173792188556284 0 0,0 0.3823149319734389,-0.29840286858423337 l 4.36508661774907 5.692917809360956" fill="#ff3e05" stroke="none" /><path d="M 87.22198572758235 83.33499621200491 l -9.866846627325268 -12.86827772409673 a37.21564781165539,37.21564781165539 0 0,0 0.5117219736185072,-0.38541838142037155 l 9.643878499948372 13.036212695022956" fill="#ffbc11" stroke="none" /><path d="M 87.51073957382395 83.11751280151077 l -3.5069928648403645 -4.740613945543967 a26.896814354778957,26.896814354778957 0 0,0 0.374576158724661,-0.27214550929035547 l 3.4248713897619196 4.800278689650991" fill="#ff2c04" stroke="none" /><path d="M 87.80319425747017 82.90503203632743 l -4.016890974562633 -5.630049700985944 a27.9161313418048,27.9161313418048 0 0,0 0.3935760568381465,-0.2757251796039463 l 3.9193837781408294 5.698359723353833" fill="#ff3a05" stroke="none" /><path d="M 88.09926311788651 82.69761687909137 l -2.5535399972807697 -3.7125707244163 a25.505968031567207,25.505968031567207 0 0,0 0.3638794422321148,-0.24569302371795726 l 2.4892558606421153 3.755975660432923" fill="#ff1702" stroke="none" /><path d="M 88.39885842347998 82.49532879139004 l -4.1517253392878315 -6.264434110499684 a28.515314898104844,28.515314898104844 0 0,0 0.41148003258430177,-0.2676380592545764 l 4.0432782809192425 6.334971093913795" fill="#ff4306" stroke="none" /><path d="M 89.00827224532344 82.1063720568725 l -3.878592584322667 -6.314029440668711 a28.41015844721245,28.41015844721245 0 0,0 0.41889822666781257,-0.25238149448311104 l 3.7693322914372054 6.3798575446104415" fill="#ff4206" stroke="none" /><line stroke="#e1ed5e" stroke-width="0.3" x1="56.762969772571076" x2="54.21961505331055" y1="26.818313649435495" y2="22.513508569990535" /><path d="M 56.25429882871897 25.957352633546506 a86.0,86.0 0 0,1 42.265352541879196,-11.944610805530505" fill="none" id="id72" stroke="none" /><text fill="#e1ed5e" style="font-size:6.75px; font-family:Arial;" text-anchor="middle"><textPath startOffset="22.20632615414155" xlink:href="#id72">December</textPath></text><path d="M 89.3179101791058 81.91981866633112 l -4.289276455742426 -7.2598992716172255 a29.432320555328445,29.432320555328445 0 0,0 0.43840600194451557,-0.2539530534756653 l 4.163673721332589 7.332656482482937" fill="#ff5007" stroke="none" /><path d="M 89.63071344664047 81.73862282372117 l -1.467535354753331 -2.5844802817212247 a23.97206970713286,23.97206970713286 0 0,0 0.3605809216937639,-0.20066289252989963 l 1.4228303439875227 2.609358571811309" fill="#ff0000" stroke="none" /><path d="M 89.94658935756843 81.56283822128135 l -3.5646035603898247 -6.537201638070959 a28.445898454823396,28.445898454823396 0 0,0 0.43191026801301263,-0.230711507172732 l 3.4515482458485067 6.5975918717454425" fill="#ff4206" stroke="none" /><path d="M 90.58718382345135 81.22770947309562 l -2.654710462226437 -5.29437685035087 a26.92266104650483,26.92266104650483 0 0,0 0.4160560513395225,-0.20415689748071353 l 2.5631831438764885 5.339288907966411" fill="#ff2c04" stroke="none" /><path d="M 90.91171255644093 81.06846463323043 l -2.760870988306778 -5.751086448664227 a27.379451696978617,27.379451696978617 0 0,0 0.42662634085339585,-0.20030678746535158 l 2.6614664361537734 5.797758218769586" fill="#ff3304" stroke="none" /><path d="M 91.23893434514133 80.91482961587045 l -6.749498892632052 -14.703158433921631 a37.17833746819005,37.17833746819005 0 0,0 0.5839085953659899,-0.2619827662137006 l 6.495408178799288 14.81716153065186" fill="#ffbb11" stroke="none" /><path d="M 91.56875222667455 80.76684994638697 l -3.394316572498385 -7.743029468884632 a29.454341508973542,29.454341508973542 0 0,0 0.46610267081062046,-0.19956083873533603 l 3.2605301438974563 7.8003098355827545" fill="#ff5107" stroke="none" /><path d="M 92.23578459929587 80.48803036053334 l -2.5393825438245257 -6.381630665939822 a27.868309374245182,27.868309374245182 0 0,0 0.4472423534341871,-0.17352308480561418 l 2.429157025390661 6.424396454635987" fill="#ff3a05" stroke="none" /><path d="M 93.25333710446033 80.11325718540243 l -2.366050252926233 -6.97426766312351 a28.364686227957208,28.364686227957208 0 0,0 0.4637182868458033,-0.1528806284141877 l 2.2456491438380204 7.013962015796929" fill="#ff4106" stroke="none" /><path d="M 93.59665428221793 80.00007090966166 l -1.4175152127252009 -4.427404826862843 a25.648791550417783,25.648791550417783 0 0,0 0.4216351435951279,-0.1310040915297161 l 1.3410946964193442 4.451149053275085" fill="#ff1902" stroke="none" /><path d="M 93.94186890950719 79.89281104454417 l -4.668532158379722 -15.495052327355133 a37.18307261125956,37.18307261125956 0 0,0 0.614423330057495,-0.17936701864085497 l 4.401118610598805 15.573117674914686" fill="#ffbb11" stroke="none" /><path d="M 94.28887869178378 79.79150937346287 l -1.4278671897967823 -5.052430015702215 a26.250319397452582,26.250319397452582 0 0,0 0.4358829420211036,-0.11914327362789466 l 1.3406863585519562 5.076259830156406" fill="#ff2203" stroke="none" /><path d="M 94.98787191387505 79.60689891045804 l -1.7662066129711278 -7.186254897006197 a28.400117920982645,28.400117920982645 0 0,0 0.47573756057488276,-0.1125917101239578 l 1.642245365433711 7.215592519271026" fill="#ff4206" stroke="none" /><path d="M 95.33964822691252 79.52364482259891 l -1.6426464608119247 -7.217354826458167 a28.40192529590896,28.40192529590896 0 0,0 0.47763555077611486,-0.10439263147303265 l 1.5181681858822889 7.244560956027068" fill="#ff4206" stroke="none" /><path d="M 95.692805502759 79.44645832069477 l -1.561168072955351 -7.44975251905672 a28.611573973049666,28.611573973049666 0 0,0 0.48290013781260105,-0.09686522475657502 l 1.4327015256756135 7.475521699890506" fill="#ff4506" stroke="none" /><path d="M 96.40284397218896 79.31037775812273 l -2.665413330057965 -15.330554051868999 a36.56053712946078,36.56053712946078 0 0,0 0.6209559905692155,-0.10246305900015663 l 2.401128133349864 15.374163373808782" fill="#ffb310" stroke="none" /><path d="M 96.75951476605007 79.25152402106235 l -0.9546737902895847 -6.112672879363883 a27.18677393929798,27.18677393929798 0 0,0 0.4629920801317608,-0.06823299735570601 l 0.849312729729175 6.128200360880558" fill="#ff3004" stroke="none" /><path d="M 97.11714578562143 79.19881850522333 l -1.0360565339716732 -7.4756468414201915 a28.547099365930006,28.547099365930006 0 0,0 0.48731974602421807,-0.0632680892043044 l 0.9072220594395974 7.492373253788633" fill="#ff4406" stroke="none" /><path d="M 97.47563105711357 79.15227682838746 l -0.560052655238765 -4.625244162841706 a25.659028068443167,25.659028068443167 0 0,0 0.4389322494173101,-0.04931915251685044 l 0.4803537023117369 4.634199268829155" fill="#ff1902" stroke="none" /><path d="M 97.83486435360386 79.11191278185805 l -0.5451898582529145 -5.259704318567079 a26.287884406858286,26.287884406858286 0 0,0 0.45049281238022304,-0.042779720735821807 l 0.45457191878245523 5.2683095838180805" fill="#ff2303" stroke="none" /><path d="M 98.19473922651362 79.07773832637324 l -0.6329473325105772 -7.335610406487486 a28.362866450065475,28.362866450065475 0 0,0 0.4867740631623573,-0.0377830358344878 l 0.5065830799858857 7.345418704510436" fill="#ff4106" stroke="none" /><path d="M 98.55514903715128 79.0497635885617 l -1.1175234962392602 -16.204011378024052 a37.2425011467994,37.2425011467994 0 0,0 0.6399289433285279,-0.03860226143171486 l 0.8384325040711094 16.220846908836073" fill="#ffbc11" stroke="none" /><path d="M 98.91598698831166 79.02799685794201 l -0.418315143931043 -8.092990045597862 a29.103793891615712,29.103793891615712 0 0,0 0.5005286655337431,-0.021553817227902155 l 0.27894564600797583 8.098991589349955" fill="#ff4c07" stroke="none" /><path d="M 99.27714615592234 79.0124445844662 l -0.20389049998496814 -5.919817957937937 a26.92332811779903,26.92332811779903 0 0,0 0.46330350827054095,-0.011965762740136738 l 0.10196035651954816 5.922450512820434" fill="#ff2c04" stroke="none" /><path d="M 99.63851952072746 79.00311137660856 l -0.15671909113421492 -9.103156298581926 a30.1045052292773,30.1045052292773 0 0,0 0.5181995704067485,-0.004460307303933883 l 2.2299606373709573e-15 9.1045052292773" fill="#ff5a08" stroke="none" /></svg>