<?xml version="1.0" encoding="utf-8" ?>
<svg baseProfile="full" height="200mm" version="1.1" viewBox="0,0,200,200" width="200mm" xmlns="http://www.w3.org/2000/svg" xmlns:ev="http://www.w3.org/2001/xml-events" xmlns:xlink="http://www.w3.org/1999/xlink"><defs /><rect fill="#1a1a1a" height="200" width="200" x="0" y="0" /><text alignment-baseline="middle" fill="#e1ed5e" style="dominant-baseline: central; font-size:9.0px; font-family:Arial;" text-anchor="middle" x="100.0" y="100.0">2019</text><line stroke="#e1ed5e" stroke-width="0.3" x1="100.0" x2="100.0" y1="15.0" y2="10.0" /><path d="M 100.0 14.0 a86.0,86.0 0 0,1 42.46469731375804,11.215312516191453" fill="none" id="id1" stroke="none" /><text fill="#e1ed5e" style="font-size:6.75px; font-family:Arial;" text-anchor="middle"><textPath startOffset="22.20632615414155" xlink:href="#id1">January</textPath></text><line stroke="#e1ed5e" stroke-width="0.3" x1="143.23703022742887" x2="145.7803849466894" y1="26.81831364943548" y2="22.513508569990506" /><path d="M 143.74570117128098 25.957352633546492 a86.0,86.0 0 0,1 28.547481713284135,27.462654790039103" fill="none" id="id2" stroke="none" /><text fill="#e1ed5e" style="font-size:6.75px; font-family:Arial;" text-anchor="middle"><textPath startOffset="19.985693538727396" xlink:href="#id2">February</textPath></text><line stroke="#e1ed5e" stroke-width="0.3" x1="172.23445277983987" x2="176.4835382374775" y1="55.19839476539836" y2="52.563006222186495" /><path d="M 173.08426987136738 54.67131705675599 a86.0,86.0 0 0,1 12.851231095245387,41.99856678651699" fill="none" id="id3" stroke="none" /><text fill="#e1ed5e" style="font-size:6.75px; font-family:Arial;" text-anchor="middle"><textPath startOffset="22.20632615414155" xlink:href="#id3">March</textPath></text><line stroke="#e1ed5e" stroke-width="0.3" x1="184.98032266829074" x2="189.97916517819016" y1="98.17113171792111" y2="98.06355123074" /><path d="M 185.9800911702706 98.14961562048488 a86.0,86.0 0 0,1 -9.607161424134198,41.387399972396054" fill="none" id="id4" stroke="none" /><text fill="#e1ed5e" style="font-size:6.75px; font-family:Arial;" text-anchor="middle"><textPath startOffset="21.466115282336823" xlink:href="#id4">April</textPath></text><line stroke="#e1ed5e" stroke-width="0.3" x1="174.80103733775053" x2="179.2010983576182" y1="140.37084112569926" y2="142.7455964860345" /><path d="M 175.68104954172406 140.8457921977663 a86.0,86.0 0 0,1 -30.038265399797805,32.042727171017184" fill="none" id="id5" stroke="none" /><text fill="#e1ed5e" style="font-size:6.75px; font-family:Arial;" text-anchor="middle"><textPath startOffset="22.206326154141568" xlink:href="#id5">May</textPath></text><line stroke="#e1ed5e" stroke-width="0.3" x1="143.8653032363475" x2="146.44561519142675" y1="172.8068346515853" y2="177.08958963109032" /><path d="M 144.38136562736335 173.6633856474863 a86.0,86.0 0 0,1 -40.68145358897372,12.25698825130547" fill="none" id="id6" stroke="none" /><text fill="#e1ed5e" style="font-size:6.75px; font-family:Arial;" text-anchor="middle"><textPath startOffset="21.466115282336833" xlink:href="#id6">June</textPath></text><path d="M 109.57404056367764 118.69057910512821 l 4.775440364218445 9.322683071541292 a31.474600246530144,31.474600246530144 0 0,0 -0.4843282893768304,0.2428522587838996 l -4.614258167158854 -9.403503171234492" fill="#ff750a" stroke="none" /><path d="M 109.2508944713604 118.85261126421891 l 4.654901236957847 9.486330620826212 a31.566862077904524,31.566862077904524 0 0,0 -0.48986859343680644,0.23516669411506544 l -4.490919975520808 -9.565051591440838" fill="#ff770a" stroke="none" /><path d="M 107.59598834532513 119.57807347666477 l 3.746822329959041 9.657145264722836 a31.358529443711515,31.358529443711515 0 0,0 -0.5049167922897427,0.19091632683148838 l -3.580035316909023 -9.720209841660955" fill="#ff740a" stroke="none" /><path d="M 107.2578585660854 119.70592522655815 l 1.9005121936315754 5.160110360219595 a26.498971315417812,26.498971315417812 0 0,0 -0.4293848381938299,0.15396212619550903 l -1.8114077948080107 -5.192060027455064" fill="#ff2f04" stroke="none" /><path d="M 106.91757812671514 119.82793768551818 l 3.14859725145252 9.024862308022797 a30.55833690192101,30.55833690192101 0 0,0 -0.4981449348870863,0.1689978082452367 l -2.9927825836282067 -9.077723103166157" fill="#ff6909" stroke="none" /><path d="M 106.57524785965236 119.94407469862006 l 3.4030035314573603 10.322007334129873 a31.868498904675942,31.868498904675942 0 0,0 -0.5224592350891749,0.16727494835669943 l -3.224822951277245 -10.379055129146279" fill="#ff7b0b" stroke="none" /><path d="M 106.2309692047433 120.05430185196036 l 3.1022001822064853 9.984395174319948 a31.455228020826013,31.455228020826013 0 0,0 -0.5184496001283951,0.15620461161176566 l -2.929875607637844 -10.036315155037439" fill="#ff750a" stroke="none" /><path d="M 105.88484417918355 120.15858648285463 l 3.3063484777721786 11.325926346085897 a32.7986672066564,32.7986672066564 0 0,0 -0.5433159070907302,0.15354650237974932 l -3.1109014025768427 -11.381161641804166" fill="#ff870c" stroke="none" /><path d="M 105.53697534728816 120.25689768951611 l 2.7540333959283556 10.075568200272857 a31.445179486453945,31.445179486453945 0 0,0 -0.5233519408582621,0.13822200425243733 l -2.580191012258596 -10.121481553828879" fill="#ff750a" stroke="none" /><path d="M 105.18746579009965 120.34920634021253 l 2.6866271685262193 10.539005522870294 a31.876056406333767,31.876056406333767 0 0,0 -0.5328564236563614,0.13096314460235628 l -2.5048174601266466 -10.58368992578668" fill="#ff7b0b" stroke="none" /><path d="M 104.83641907484287 120.43548508189849 l 3.09366609061014 13.071771958697104 a34.43286983560739,34.43286983560739 0 0,0 -0.5779472769347581,0.13153891859556407 l -2.8681986642825197 -13.123087610870352" fill="#ff9e0e" stroke="none" /><path d="M 104.48393922423573 120.51570834832081 l 2.1795964136954105 9.97247333298607 a31.207882488729588,31.207882488729588 0 0,0 -0.525791204534339,0.11018465908229545 l -2.0076137477316935 -10.008513972794905" fill="#ff720a" stroke="none" /><path d="M 104.13013068566511 120.58985236759428 l 2.0121028814733295 10.030893555436075 a31.230707870236657,31.230707870236657 0 0,0 -0.5279958435135412,0.10119166005006897 l -1.8391394233880838 -10.064042413834612" fill="#ff720a" stroke="none" /><path d="M 103.7750983002368 120.6578951692458 l 3.474373302888408 19.012283591500843 a40.32713629101518,40.32713629101518 0 0,0 -0.6839310032205655,0.11891017158651326 l -3.146593328195793 -19.069272341608364" fill="#ffea16" stroke="none" /><path d="M 103.41894727170886 120.7198165907248 l 1.31063854105483 7.942851418652615 a29.050258507904587,29.050258507904587 0 0,0 -0.4940814519964319,0.07716536150357427 l -1.173721225449881 -7.964235087503296" fill="#ff5307" stroke="none" /><path d="M 103.06178313531738 120.77559828337769 l 1.5783887877394696 10.710089493540691 a31.825771479433342,31.825771479433342 0 0,0 -0.5426618490574613,0.0752079875333341 l -1.3937983474951778 -10.735672046566629" fill="#ff7a0b" stroke="none" /><path d="M 102.70371172650421 120.8252237178851 l 1.3381368303529675 10.306941595904945 a31.393442896275644,31.393442896275644 0 0,0 -0.536487892927418,0.06496121250231172 l -1.1605215143741692 -10.328448337132608" fill="#ff740a" stroke="none" /><path d="M 102.34483914955558 120.86867818915974 l 1.6717667364113653 14.878445728835077 a35.97207237916189,35.97207237916189 0 0,0 -0.6159230790519314,0.06384294550126347 l -1.415411060753831 -14.905018042792099" fill="#ffb210" stroke="none" /><path d="M 101.98527174616119 120.90594882070398 l 0.9879301521786251 10.403420710446001 a31.450223369101757,31.450223369101757 0 0,0 -0.5393798406990359,0.0465399622475186 l -0.8087059937380475 -10.418884924972184" fill="#ff750a" stroke="none" /><path d="M 101.62511606390274 120.93702456842531 l 0.8058652862187555 10.38228694625287 a31.41351530914826,31.41351530914826 0 0,0 -0.5394706397771445,0.03720505382388273 l -0.6270318856626806 -10.394620344593038" fill="#ff740a" stroke="none" /><path d="M 101.26447882468166 120.96189622390904 l 0.6339266463153778 10.5089182311764 a31.52802096229203,31.52802096229203 0 0,0 -0.5419996069855881,0.02801518874103422 l -0.45293897091631 -10.518273226679636" fill="#ff760a" stroke="none" /><path d="M 100.90346689309514 120.98055641714683 l 1.0464244634267745 24.300356392689697 a45.32287657678246,45.32287657678246 0 0,0 -0.779725376702529,0.026855318531151272 l -0.6279787350495933 -24.314768509646942" fill="#d6ff1c" stroke="none" /><line stroke="#e1ed5e" stroke-width="0.3" x1="102.19456741930631" x2="102.32365962044197" y1="184.97166512339345" y2="189.96999836594603" /><path d="M 102.22038585953345 185.97133177190398 a86.0,86.0 0 0,1 -42.740103519485714,-10.115201625700543" fill="none" id="id7" stroke="none" /><text fill="#e1ed5e" style="font-size:6.75px; font-family:Arial;" text-anchor="middle"><textPath startOffset="22.20632615414155" xlink:href="#id7">July</textPath></text><path d="M 100.54218724476979 120.99299961872073 l 0.26662951156702286 10.323653477024836 a31.327096029868486,31.327096029868486 0 0,0 -0.5391845382760875,0.009282550801133518 l -0.08888528339826746 -10.326713505105129" fill="#ff730a" stroke="none" /><path d="M 100.18074693466247 120.99922214144158 l 0.09065568801906543 10.532399537799392 a31.53278968163739,31.53278968163739 0 0,0 -0.5428052453630345,0.0 l 0.09065568801905817 -10.532399537799392" fill="#ff760a" stroke="none" /><path d="M 99.81925306533755 120.99922214144158 l -0.0959568417612024 11.148288848703144 a32.14870180647055,32.14870180647055 0 0,0 -0.5533255595466124,-0.009526001306489708 l 0.28784209120048276 -11.144985370117496" fill="#ff7f0b" stroke="none" /><path d="M 98.73552117531835 120.96189622390904 l -1.9164517846825115 31.76997719890967 a52.82772751332167,52.82772751332167 0 0,0 -0.9072212287965374,-0.06256728755709048 l 2.463035774257979 -31.732281566836296" fill="#80ff25" stroke="none" /><path d="M 98.01472825383883 120.90594882070398 l -0.969229604904452 10.2064941763386 a31.252410906643227,31.252410906643227 0 0,0 -0.5351118209293686,-0.05546652817955544 l 1.1447740224394138 -10.188298279703284" fill="#ff720a" stroke="none" /><path d="M 97.65516085044442 120.86867818915974 l -1.1852802525271224 10.54879698619949 a31.615178148909333,31.615178148909333 0 0,0 -0.5402771644280238,-0.06542004051022703 l 1.3666848400065355 -10.526831416963914" fill="#ff770b" stroke="none" /><path d="M 92.7421414339146 119.70592522655815 l -2.7579357940180835 7.488114578386116 a28.97985399509069,28.97985399509069 0 0,0 -0.46661674446472606,-0.17643452594888673 l 2.8864227592430924 -7.439531802330596" fill="#ff5207" stroke="none" /><path d="M 92.40401165467489 119.57807347666478 l -3.7961628707369393 9.784316699013244 a31.49493715120539,31.49493715120539 0 0,0 -0.5037374095464845,-0.20044751121386709 l 3.964021356325282 -9.717522343393311" fill="#ff760a" stroke="none" /><path d="M 92.06813273071674 119.44442032107085 l -3.962151755196937 9.712939146406004 a31.489987292318155,31.489987292318155 0 0,0 -0.5001337858119207,-0.20905596303143462 l 4.12875700050632 -9.643298140354597" fill="#ff750a" stroke="none" /><path d="M 91.7346041902142 119.30500536409082 l -4.090882317134864 9.554836440216349 a31.39375858541716,31.39375858541716 0 0,0 -0.494944019638933,-0.21696891314574504 l 4.254747011431539 -9.48300297377615" fill="#ff740a" stroke="none" /><path d="M 91.40352486487194 119.15986991738527 l -4.226836056962014 9.420794888659854 a31.325575983287024,31.325575983287024 0 0,0 -0.4900692505490132,-0.22496675654819406 l 4.388373303278446 -9.346641061777584" fill="#ff730a" stroke="none" /><path d="M 91.07499286063937 119.00905698771935 l -18.361648700653618 39.10782603185814 a64.2038447356748,64.2038447356748 0 0,0 -0.9963437935731317,-0.4783055686277337 l 19.03210516222699 -38.785966186730846" fill="#34ff5b" stroke="none" /><path d="M 90.7491055286396 118.85261126421891 l -4.634603494656569 9.444965383515171 a31.520785172622944,31.520785172622944 0 0,0 -0.4850389788240137,-0.2432086132263882 l 4.796496381163344 -9.363788929379481" fill="#ff760a" stroke="none" /><path d="M 90.42595943632237 118.69057910512821 l -4.599410720470705 8.9790354799699 a31.08849132061574,31.08849132061574 0 0,0 -0.4741869807961573,-0.24807221689179565 l 4.753288603793358 -8.898533844133388" fill="#ff700a" stroke="none" /><path d="M 90.10565033884886 118.52300852407294 l -4.916791448629833 9.204624157527855 a31.43551359687988,31.43551359687988 0 0,0 -0.4750911863258502,-0.259057594984431 l 5.074505446824324 -9.118625910783658" fill="#ff750a" stroke="none" /><line stroke="#e1ed5e" stroke-width="0.3" x1="58.666819895761336" x2="56.23545636021788" y1="174.27360380694188" y2="178.64263932499728" /><path d="M 58.180547188652646 175.14741091055294 a86.0,86.0 0 0,1 -31.652253787137756,-30.449443065178592" fill="none" id="id8" stroke="none" /><text fill="#e1ed5e" style="font-size:6.75px; font-family:Arial;" text-anchor="middle"><textPath startOffset="22.20632615414155" xlink:href="#id8">August</textPath></text><path d="M 89.7882731507175 118.34994917583269 l -5.09424956503929 9.154105078128573 a31.476116571149937,31.476116571149937 0 0,0 -0.4711693360320383,-0.26754224576330243 l 5.251067667992535 -9.065059666570637" fill="#ff750a" stroke="none" /><path d="M 89.4739219176387 118.17145234162733 l -5.06346850448195 8.74120217355297 a31.101847788142912,31.101847788142912 0 0,0 -0.4609473477169011,-0.2723358178850575 l 5.213183723227234 -8.652747783374164" fill="#ff700a" stroke="none" /><path d="M 89.1626897886671 117.98757091392108 l -15.210483095059685 25.24608394260712 a50.474116618183174,50.474116618183174 0 0,0 -0.7403370373067968,-0.4547754757528417 l 15.64279933229879 -24.9805200000259" fill="#9bff22" stroke="none" /><path d="M 88.54995079064634 117.60387380957326 l -5.615570429412756 8.633656624584363 a31.299255213796986,31.299255213796986 0 0,0 -0.44910750031010466,-0.2976439621220537 l 5.7633526284628225 -8.53571464137099" fill="#ff730a" stroke="none" /><path d="M 88.24862548938628 117.40417183066458 l -5.852204825820055 8.6673076655692 a31.45803631151595,31.45803631151595 0 0,0 -0.4461695018413406,-0.3068794517571973 l 6.000531212284287 -8.565287424446902" fill="#ff750a" stroke="none" /><path d="M 87.95078237400918 117.19931262002967 l -5.863834354544451 8.370163387067768 a31.21979395407488,31.21979395407488 0 0,0 -0.43748248527965616,-0.3121321373666272 l 6.007044167672994 -8.26798698785692" fill="#ff720a" stroke="none" /><path d="M 87.65650970185807 116.9893568818739 l -6.04124786435278 8.315064337580258 a31.277984758533456,31.277984758533456 0 0,0 -0.43285011742137597,-0.3202121688835192 l 6.183482952192721 -8.209842219956972" fill="#ff730a" stroke="none" /><path d="M 87.36589467227662 116.77436683061367 l -6.212133462054181 8.247881649725352 a31.325606706545116,31.325606706545116 0 0,0 -0.42792460126759796,-0.3281143366108913 l 6.353186791815266 -8.139727971287094" fill="#ff730a" stroke="none" /><path d="M 86.79598089348748 116.32954008644616 l -18.704875674486637 23.132503419952663 a50.748698937468234,50.748698937468234 0 0,0 -0.6745465624257045,-0.5551058979801838 l 19.10029236545703 -22.807102403115298" fill="#97ff23" stroke="none" /><path d="M 86.51685102203217 116.09983520530335 l -6.548237653361837 7.819059722365944 a31.198877943520607,31.198877943520607 0 0,0 -0.4087565911581487,-0.34835123476984303 l 6.681859721097042 -7.70518409737315" fill="#ff710a" stroke="none" /><path d="M 86.24171649860922 115.8653595955263 l -6.6843765803563455 7.708086412708936 a31.202719559696057,31.202719559696057 0 0,0 -0.40274932127460983,-0.3553794491642121 l 6.816068254537543 -7.591883821772435" fill="#ff710a" stroke="none" /><path d="M 85.97065885151581 115.62618273729859 l -6.865168734387111 7.646572995162541 a31.276216245386983,31.276216245386983 0 0,0 -0.39750648604123173,-0.3631127502108471 l 6.995774769895197 -7.5272674783651174" fill="#ff720a" stroke="none" /><path d="M 85.70375840098266 115.38237550388516 l -7.055309465323476 7.591325226287492 a31.363667803569925,31.363667803569925 0 0,0 -0.39229103019372824,-0.37093565461969524 l 7.184936329908021 -7.468754934921866" fill="#ff740a" stroke="none" /><path d="M 85.44109423537348 115.13401014063109 l -7.156937861555099 7.439650473994261 a31.323282362183257,31.323282362183257 0 0,0 -0.3853510233341185,-0.3771470819716822 l 7.283938837265012 -7.31535328910001" fill="#ff730a" stroke="none" /><path d="M 84.9287848128048 114.62390073753433 l -22.633105209626333 21.96135347128196 a52.53662153307806,52.53662153307806 0 0,0 -0.6241687088183889,-0.6544383958024668 l 23.00778046982368 -21.568507958896994" fill="#84ff25" stroke="none" /><path d="M 84.67929136418377 114.36230785411682 l -7.820900157569668 7.331656676554375 a31.720059183490434,31.720059183490434 0 0,0 -0.36999725883733553,-0.40155894912181106 l 7.9459438244027325 -7.19594647263122" fill="#ff790b" stroke="none" /><path d="M 84.19399662182784 113.82643327865904 l -8.002218484432937 7.000007358536884 a31.631820337654823,31.631820337654823 0 0,0 -0.35496549516570175,-0.4129050642742496 l 8.121526489169417 -6.861225195101104" fill="#ff770b" stroke="none" /><path d="M 83.95833913139862 113.55231037782056 l -8.156356365094682 6.890650158814435 a31.677415828073286,31.677415828073286 0 0,0 -0.34830676322561555,-0.41955793410975945 l 8.273759128213834 -6.749230967590915" fill="#ff780b" stroke="none" /><path d="M 83.72743513129214 113.27417163493432 l -8.284102836745607 6.757668737758083 a31.69076454604859,31.69076454604859 0 0,0 -0.34117686748325965,-0.42567060052691463 l 8.399197616283727 -6.614070303652909" fill="#ff780b" stroke="none" /><path d="M 83.50135304334701 112.99209946851258 l -8.37051424529327 6.5914831660543305 a31.654255443672973,31.654255443672973 0 0,0 -0.33341454810372895,-0.4309832481574508 l 8.482735610615068 -6.446421923783627" fill="#ff780b" stroke="none" /><path d="M 83.28015986056508 112.70617746262583 l -39.92307757143921 30.339387472996975 a71.14310077180906,71.14310077180906 0 0,0 -0.7325663806799956,-0.9813923812078331 l 40.43940521881429 -29.647682212279836" fill="#3dffaa" stroke="none" /><path d="M 83.06392112726016 112.41649034213515 l -8.543540836969225 6.263598149664518 a31.593618447605216,31.593618447605216 0 0,0 -0.31777193562423867,-0.4413574254631596 l 8.65009256496907 -6.11560711875022" fill="#ff770a" stroke="none" /><path d="M 82.85270091963577 112.12312394758628 l -8.747512993156006 6.184483267722835 a31.712927557590262,31.712927557590262 0 0,0 -0.3112987675216487,-0.44844909237412905 l 8.852672667839789 -6.032992913161694" fill="#ff790b" stroke="none" /><path d="M 82.6465618267979 111.8261652097733 l -8.709412201028439 5.93536258010432 a31.539563076557094,31.539563076557094 0 0,0 -0.30187401119477936,-0.4512606879324999 l 8.810289317633949 -5.7845649779659984" fill="#ff760a" stroke="none" /><path d="M 82.44556493220864 111.52570212397912 l -8.937974676264396 5.868399257080351 a31.69231037493978,31.69231037493978 0 0,0 -0.2954857257027813,-0.4586004081680755 l 9.037665265344224 -5.713677248990827" fill="#ff780b" stroke="none" /><path d="M 82.24976979558568 111.22182372390057 l -8.911686347170184 5.634032467126241 a31.543266827268106,31.543266827268106 0 0,0 -0.28619560528492105,-0.4614384423838631 l 9.007346592123062 -5.479797693377114" fill="#ff760a" stroke="none" /><path d="M 82.05923443525364 110.91462005526583 l -23.543682080792433 14.323265285778383 a48.55831806130793,48.55831806130793 0 0,0 -0.4282823404229612,-0.7178258373030794 l 23.786745296913626 -13.915877354589194" fill="#b0ff20" stroke="none" /><line stroke="#e1ed5e" stroke-width="0.3" x1="26.63291911575756" x2="22.317208475507996" y1="142.92168965132927" y2="145.44649492493687" /><path d="M 25.769776987707644 143.4266507060508 a86.0,86.0 0 0,1 -11.730757126820373,-40.83630448921669" fill="none" id="id9" stroke="none" /><text fill="#e1ed5e" style="font-size:6.75px; font-family:Arial;" text-anchor="middle"><textPath startOffset="21.46611528233685" xlink:href="#id9">September</textPath></text><path d="M 81.69416730710424 110.29060199501025 l -9.160294709420375 5.149448735441905 a31.508464276114715,31.508464276114715 0 0,0 -0.2617056891289786,-0.4750718433250919 l 9.24757680800087 -4.9910063737189905" fill="#ff760a" stroke="none" /><path d="M 81.51974371655577 109.97397251340807 l -9.40230650467792 5.074515483008097 a31.684291038491867,31.684291038491867 0 0,0 -0.2549038809345677,-0.48218207969253385 l 9.488262893837373 -4.911918388229438" fill="#ff780b" stroke="none" /><path d="M 81.35079622478065 109.6543875284942 l -13.076971763243769 6.769734226899799 a35.72536899366306,35.72536899366306 0 0,0 -0.278013682062899,-0.5485473698749591 l 13.191564115092936 -6.543632645322155" fill="#ffaf10" stroke="none" /><path d="M 81.18737489456691 109.33194174019688 l -9.387499184923307 4.656638559950364 a31.478999170958662,31.478999170958662 0 0,0 -0.23661226210303746,-0.48749134216930484 l 9.466264703641063 -4.4943582618157745" fill="#ff750a" stroke="none" /><path d="M 81.02952815118164 109.00673069616217 l -9.638978489593814 4.5763586764595425 a31.670190488386737,31.670190488386737 0 0,0 -0.22957175627858797,-0.49447713936185583 l 9.716324862712229 -4.40976146981886" fill="#ff780b" stroke="none" /><path d="M 80.87730276802145 108.67885076344099 l -9.458468455076636 4.292733142009333 a31.387019945306022,31.387019945306022 0 0,0 -0.2190498855572254,-0.49389966445063377 l 9.530959425365142 -4.129285141066004" fill="#ff740a" stroke="none" /><path d="M 80.73074385275274 108.34839909993369 l -33.51149415262891 14.518844188036125 a57.52146049787922,57.52146049787922 0 0,0 -0.3858019653100849,-0.9119218819348451 l 33.7564470991313 -13.939847780435121" fill="#4fff2b" stroke="none" /><path d="M 80.58989483394504 108.01547362559985 l -9.931782864032488 4.10136590815891 a31.74530191157501,31.74530191157501 0 0,0 -0.20422415704113017,-0.5068676094748619 l 10.000909635331006 -3.9297989308412427" fill="#ff790b" stroke="none" /><path d="M 80.45479744820244 107.68017299344265 l -10.043437837724825 3.946510139160475 a31.790995592564162,31.790995592564162 0 0,0 -0.1957503613112422,-0.5110424237600291 l 10.109882478629578 -3.7730441485672883" fill="#ff7a0b" stroke="none" /><path d="M 80.32549172779594 107.34259656027581 l -9.960380465861574 3.7172494649331607 a31.63142147641898,31.63142147641898 0 0,0 -0.18598634010743093,-0.5117545300210175 l 10.02289106697423 -3.545247137906026" fill="#ff770b" stroke="none" /><path d="M 80.20201598880116 107.00284435728193 l -10.088339586969717 3.568397262619916 a31.70084364178328,31.70084364178328 0 0,0 -0.17753856567184625,-0.5160101758028395 l 10.148268983584792 -3.3942143837277796" fill="#ff780b" stroke="none" /><path d="M 79.76711848015287 105.62410040840567 l -10.306862610544966 2.864981449156684 a31.69764158946549,31.69764158946549 0 0,0 -0.14160079680651036,-0.5269492417064059 l 10.354651483693251 -2.6871412742747394" fill="#ff780b" stroke="none" /><path d="M 79.67330655649465 105.27499134158121 l -10.281100595433081 2.66805404300339 a31.621654382901056,31.621654382901056 0 0,0 -0.1321915941947993,-0.5280397078228974 l 10.32550350392294 -2.4906864957831005" fill="#ff770b" stroke="none" /><path d="M 79.58551787078972 104.9243191809786 l -10.424672251112847 2.514607678835897 a31.72366743803549,31.72366743803549 0 0,0 -0.1234797439520141,-0.5319475051801311 l 10.466412560995417 -2.3347915163071917" fill="#ff790b" stroke="none" /><path d="M 79.50377843672027 104.57218783832718 l -10.429655459280706 2.32659193801354 a31.686006880277283,31.686006880277283 0 0,0 -0.1141691509323888,-0.5333602642886844 l 10.468158648937536 -2.1467178543086916" fill="#ff780b" stroke="none" /><path d="M 79.35854240842038 103.8639653848113 l -10.271845445507589 1.922832002705267 a31.450267545236464,31.450267545236464 0 0,0 -0.09503006500617162,-0.532979071608258 l 10.30342195285295 -1.7457341803637954" fill="#ff750a" stroke="none" /><path d="M 79.29508885075956 103.50808413554451 l -48.04178811132227 8.13983858717033 a69.72648537662421,69.72648537662421 0 0,0 -0.19031427696862926,-1.1850871843528374 l 48.17478414265219 -7.311672173124278" fill="#3bff9b" stroke="none" /><path d="M 79.23777060512086 103.15116336523772 l -10.495594947180233 1.5929567901839001 a31.615791286129745,31.615791286129745 0 0,0 -0.07703104590552229,-0.5387549556506726 l 10.521460044102355 -1.412056362552827" fill="#ff770b" stroke="none" /><path d="M 79.18660465613746 102.79330883721812 l -10.595389057485725 1.4219781731463823 a31.690383117755555,31.690383117755555 0 0,0 -0.06790568627086493,-0.5412751325794741 l 10.61829625300344 -1.2393852862794996" fill="#ff780b" stroke="none" /><path d="M 79.1416061653843 102.43462659150553 l -10.54437222250623 1.2307567498817886 a31.615957222226385,31.615957222226385 0 0,0 -0.05844089024800119,-0.5410900625143595 l 10.563995414255283 -1.049070365482647" fill="#ff770b" stroke="none" /><path d="M 79.10278846688536 102.07522291339032 l -10.514800625219536 1.044185017345906 a31.566520455597804,31.566520455597804 0 0,0 -0.04904145114246848,-0.5411683267989335 l 10.53121667263908 -0.8630353019984063" fill="#ff770a" stroke="none" /><path d="M 79.07016306316243 101.71520430193888 l -10.537571631852495 0.8635560921705606 a31.572896718532125,31.572896718532125 0 0,0 -0.03972688496376822,-0.5420417821735288 l 10.550875075480599 -0.6820411735002712" fill="#ff770a" stroke="none" /><path d="M 79.04373962182676 101.35467743843564 l -10.571549749917102 0.6833776483531654 a31.593614544868103,31.593614544868103 0 0,0 -0.030410582790692423,-0.5430013844018571 l 10.581746683595325 -0.5013045476158706" fill="#ff770a" stroke="none" /><path d="M 79.0235259727143 100.99374915477108 l -10.557416407048073 0.5001519138737686 a31.569256980921576,31.569256980921576 0 0,0 -0.02104296500977333,-0.5430254245890996 l 10.564461504909048 -0.3183492422706722" fill="#ff770a" stroke="none" /><line stroke="#e1ed5e" stroke-width="0.3" x1="15.007084014347285" x2="10.007500721073583" y1="101.09737516637583" y2="101.16192664675087" /><path d="M 14.007167355692545 101.11028546245083 a86.0,86.0 0 0,1 10.666146001902534,-42.60595125391555" fill="none" id="id10" stroke="none" /><text fill="#e1ed5e" style="font-size:6.75px; font-family:Arial;" text-anchor="middle"><textPath startOffset="22.20632615414155" xlink:href="#id10">October</textPath></text><path d="M 79.00019446554 99.90962569577889 l -29.05947522854356 -0.12505972260080914 a50.059744329442296,50.059744329442296 0 0,0 0.011125165260689832,-0.86165630980268 l 29.053017056165153 0.6252522904639611" fill="#9fff22" stroke="none" /><path d="M 79.00486145842228 99.54816195383935 l -23.7558718878356 -0.5112520080487024 a44.76137259854724,44.76137259854724 0 0,0 0.023208357211319003,-0.7701723886708557 l 23.74355183616864 0.9200945441445525" fill="#ddff1b" stroke="none" /><path d="M 79.03285615573316 98.82574320788736 l -11.763837258759711 -0.6588291617116726 a32.78227155156869,32.78227155156869 0 0,0 0.03640300943406766,-0.5631384435916553 l 11.75075365832123 0.8612266695563396" fill="#ff870c" stroke="none" /><path d="M 79.05617556472873 98.46500227214037 l -11.381102340366184 -0.8341344861342069 a32.41162875416332,32.41162875416332 0 0,0 0.04557000329607156,-0.5560694647977731 l 11.365057853250615 1.0299178681397585" fill="#ff820c" stroke="none" /><path d="M 79.08570108090925 98.10471618934814 l -40.47516152433537 -3.6679172783826064 a61.64101767404571,61.64101767404571 0 0,0 0.10485687272330743,-1.055894398554044 l 40.40602752592984 4.364087207641081" fill="#31ff3c" stroke="none" /><path d="M 79.12142395522702 97.74499172005258 l -10.587211457586303 -1.1434807358133188 a31.64878371650128,31.64878371650128 0 0,0 0.06316139778211105,-0.5411282841815208 l 10.565959706800603 1.3255527583197013" fill="#ff780b" stroke="none" /><path d="M 79.16333360222342 97.38593545837743 l -10.54624248381248 -1.3230791335810523 a31.62891193495782,31.62891193495782 0 0,0 0.07242117291810483,-0.53962185746417 l 10.52190531183654 1.5044193331098816" fill="#ff770b" stroke="none" /><path d="M 79.21141760316559 97.0276538004421 l -10.50220384723403 -1.5016024227347946 a31.609010108620893,31.609010108620893 0 0,0 0.08164773869572405,-0.5379565842489734 l 10.474800215099005 1.6821581193758601" fill="#ff770b" stroke="none" /><path d="M 79.26566170972629 96.67025291283419 l -10.548669039759465 -1.6940207841159698 a31.683825388286575,31.683825388286575 0 0,0 0.09111082071985349,-0.5377412213764341 l 10.517946357519389 1.8753477938082317" fill="#ff780b" stroke="none" /><path d="M 79.32604984820605 96.31383870115002 l -10.381318606172 -1.85098709226509 a31.545042874193776,31.545042874193776 0 0,0 0.09991408052425606,-0.5337450133611478 l 10.347918801737883 2.0294101830888103" fill="#ff760a" stroke="none" /><path d="M 79.3925641242962 95.95851677861259 l -5.815365026638746 -1.1404960968052005 a26.92614560569355,26.92614560569355 0 0,0 0.09311407867527811,-0.4540573164126148 l 5.7948716520484735 1.2404290693812177" fill="#ff3505" stroke="none" /><path d="M 79.46518482838121 95.60439243477599 l -10.422045871326452 -2.2309050894419524 a31.658141379346155,31.658141379346155 0 0,0 0.11865111541131422,-0.5318896852431947 l 10.3821003689131 2.4099729442351063" fill="#ff780b" stroke="none" /><path d="M 79.54389044137918 95.25157060432595 l -10.319381981724074 -2.3954142700881875 a31.593755425252823,31.593755425252823 0 0,0 0.1275292465068273,-0.528691059227376 l 10.276619934956432 2.5726905609749604" fill="#ff770a" stroke="none" /><path d="M 79.62865764111835 94.90015583598534 l -10.333657353600756 -2.586969538839023 a31.652553013081324,31.652553013081324 0 0,0 0.13686513901225428,-0.5273972114181541 l 10.287595882718195 2.764463175806041" fill="#ff780b" stroke="none" /><path d="M 79.81627453868168 94.20196356495316 l -10.162306548900894 -2.919254116271261 a31.573292722194005,31.573292722194005 0 0,0 0.15454991907654309,-0.5210654962458003 l 10.110550732712644 3.0937489992636005" fill="#ff770a" stroke="none" /><path d="M 79.91906864156998 93.8553929516997 l -7.352848254772295 -2.2499137318344364 a28.689375088939617,28.689375088939617 0 0,0 0.148562486430442,-0.47098368034486204 l 7.313030284573649 2.3761475786057127" fill="#ff4e07" stroke="none" /><path d="M 80.38941819471856 92.48833698450439 l -9.948203175554672 -3.8105728124968117 a31.6530376692029,31.6530376692029 0 0,0 0.19927313074792502,-0.5071283819940572 l 9.881136494925057 3.9812501993866323" fill="#ff780b" stroke="none" /><path d="M 80.52162464483688 92.15188598940014 l -9.82289471466674 -3.957783759125925 a31.59024611892607,31.59024611892607 0 0,0 0.20756042239710454,-0.502624026379609 l 9.753312605383435 4.126282355958845" fill="#ff770a" stroke="none" /><path d="M 80.65960295795068 91.81776055985345 l -9.80093452954019 -4.146429511428502 a31.64195448898267,31.64195448898267 0 0,0 0.21653537232390005,-0.4997934938546403 l 9.728108447373609 4.314522149869742" fill="#ff780b" stroke="none" /><path d="M 80.803312248108 91.48605970444005 l -9.804547878429927 -4.3484238708672045 a31.725574542240267,31.725574542240267 0 0,0 0.2257013014103415,-0.49730289981646597 l 9.728244260056233 4.516548779525742" fill="#ff790b" stroke="none" /><path d="M 80.95270993114464 91.15688171328213 l -21.435661435607983 -9.951971589862467 a44.63322491128625,44.63322491128625 0 0,0 0.3295245621387214,-0.694062767104879 l 21.26117867962751 10.319476772607878" fill="#dfff1b" stroke="none" /><path d="M 81.10775173730289 90.83032412892265 l -9.50230783745466 -4.6121076583935245 a31.562451954464194,31.562451954464194 0 0,0 0.24143770824398378,-0.4867236870912115 l 9.421510116257265 4.774990933983697" fill="#ff760a" stroke="none" /><path d="M 81.26839172434947 90.50648371742162 l -9.510428671546885 -4.820056458526119 a31.662138518137926,31.662138518137926 0 0,0 0.250568987985349,-0.48401953028066635 l 9.426050250401422 4.983048711067121" fill="#ff780b" stroke="none" /><path d="M 81.43458229118936 90.18545643968196 l -9.488176963719084 -5.015891782183491 a31.732412238887648,31.732412238887648 0 0,0 0.25943800827036423,-0.48069922752016886 l 9.400430856230248 5.1784719930361325" fill="#ff790b" stroke="none" /><path d="M 81.6062741919709 89.86733742301443 l -9.367984580747367 -5.160598117738696 a31.69536853212308,31.69536853212308 0 0,0 0.2673615400898072,-0.4756063468174335 l 9.27776539936513 5.321087974490914" fill="#ff780b" stroke="none" /><line stroke="#e1ed5e" stroke-width="0.3" x1="26.266209847984243" x2="21.928928074336255" y1="57.711370442889674" y2="55.22380399835377" /><path d="M 25.398753493254645 57.213857153982495 a86.0,86.0 0 0,1 29.58750427330803,-30.492523968695096" fill="none" id="id11" stroke="none" /><text fill="#e1ed5e" style="font-size:6.75px; font-family:Arial;" text-anchor="middle"><textPath startOffset="21.46611528233685" xlink:href="#id11">November</textPath></text><path d="M 81.78341655067845 89.55222093294921 l -9.248888516111897 -5.304526180825593 a31.662079383803643,31.662079383803643 0 0,0 0.27521934655552044,-0.47043907692534 l 9.156209495086053 5.462944670104824" fill="#ff780b" stroke="none" /><path d="M 81.96595687620814 89.24020034530311 l -43.61012863042328 -26.0194701630642 a71.7824393538618,71.7824393538618 0 0,0 0.6422279197651605,-1.0556538376324416 l 43.1557849123719 26.766291773903717" fill="#3dffb1" stroke="none" /><path d="M 82.34701348167596 88.62581576622439 l -8.943108526353969 -5.762229744854341 a31.63872556966431,31.63872556966431 0 0,0 0.2989156955242286,-0.4552691117104977 l 8.84259619547182 5.915316920542506" fill="#ff770b" stroke="none" /><path d="M 82.54541684631803 88.32363383020206 l -8.867166459315811 -5.931753371359177 a31.668286604504317,31.668286604504317 0 0,0 0.3069946841365447,-0.45047681781602583 l 8.763747309510526 6.083508212445619" fill="#ff780b" stroke="none" /><path d="M 82.7489923806493 88.02491185347247 l -8.685044170994578 -6.028875054665336 a31.572479684392533,31.572479684392533 0 0,0 0.3137513367443407,-0.4437790153164632 l 8.579980214446358 6.177480570313585" fill="#ff770a" stroke="none" /><path d="M 82.95767976084542 87.72973835380427 l -8.669009508452424 -6.241580570565939 a31.682183946951334,31.682183946951334 0 0,0 0.3224603441278039,-0.4398355470021048 l 8.560286551810986 6.389878561239545" fill="#ff780b" stroke="none" /><path d="M 83.17141714833178 87.43820079747576 l -8.594102360446522 -6.415120579637336 a31.724381913803654,31.724381913803654 0 0,0 0.33042312409847574,-0.43479809955034787 l 8.482403296123938 6.562103455068711" fill="#ff790b" stroke="none" /><path d="M 83.39014120810768 87.1503855733568 l -8.232733384282733 -6.368955389134554 a31.40872190643354,31.40872190643354 0 0,0 0.334496785149172,-0.42477694845907893 l 8.121882518539591 6.50972473154668" fill="#ff740a" stroke="none" /><path d="M 83.6137871275137 86.86637796730984 l -16.089197893201927 -12.895563214199031 a41.61935594188181,41.61935594188181 0 0,0 0.45286121864425455,-0.55515430714462 l 15.86483818248128 13.170601690951734" fill="#fffb17" stroke="none" /><path d="M 83.84228863543731 86.58626213691792 l -8.702235680656079 -7.224383800981433 a32.31020013729053,32.31020013729053 0 0,0 0.35893460800651156,-0.42486536207642334 l 8.576590459162444 7.373108112686972" fill="#ff810b" stroke="none" /><path d="M 84.07557802195018 86.31012108654704 l -8.047461519190263 -6.918227481678349 a31.612422362076323,31.612422362076323 0 0,0 0.3582863682946615,-0.40958325502205617 l 7.9271832873177575 7.055726292903349" fill="#ff770b" stroke="none" /><path d="M 84.31358615837235 86.03803664274999 l -7.938095315752872 -7.065438732132768 a31.627030710386585,31.627030710386585 0 0,0 0.3654523871574738,-0.40354165360896377 l 7.815299287979354 7.201033173011288" fill="#ff770b" stroke="none" /><path d="M 84.5562425177563 85.77008943001954 l -7.8565602779693675 -7.239051135820003 a31.6831362786582,31.6831362786582 0 0,0 0.37300507764512714,-0.397895809804892 l 7.730787878353784 7.373216362502945" fill="#ff780b" stroke="none" /><path d="M 84.80347519578584 85.50635884689758 l -7.734459733932247 -7.376718384037862 a31.68821039712549,31.68821039712549 0 0,0 0.3798597607738517,-0.39147887409310417 l 7.606335709455277 7.50876145368109" fill="#ff780b" stroke="none" /><path d="M 85.31137513191541 84.99185889309783 l -31.028242720283913 -31.703188639329444 a65.36038791771054,65.36038791771054 0 0,0 0.8108322026931157,-0.7800199365692567 l 30.47792727397837 32.232591662661015" fill="#35ff68" stroke="none" /><path d="M 85.57189188830299 84.74124197986013 l -6.452893340452899 -6.824397020695854 a30.392136453403126,30.392136453403126 0 0,0 0.3832189584520052,-0.3561602571702875 l 6.334466498206038 6.934461863940789" fill="#ff6609" stroke="none" /><path d="M 85.83668400450813 84.49514656593479 l -6.616091784996944 -7.24276246221943 a30.809703287645295,30.809703287645295 0 0,0 0.3946415076097553,-0.35431304207098807 l 6.490439289791217 7.355574513059696" fill="#ff6c09" stroke="none" /><path d="M 86.10567301691215 84.25364557470407 l -6.1547221623691355 -6.97510837882629 a30.302297661993542,30.302297661993542 0 0,0 0.394083114606753,-0.341744993627478 l 6.033745249115609 7.080018365873448" fill="#ff6509" stroke="none" /><path d="M 86.37877921826538 84.01681056812374 l -5.813303079130672 -6.821350731151033 a29.962439315677674,29.962439315677674 0 0,0 0.39542210622190943,-0.33115464222985336 l 5.695023435949652 6.920406530774699" fill="#ff6008" stroke="none" /><path d="M 86.65592168130627 83.78471172551755 l -5.677531368564073 -6.899150741622405 a29.93491149349886,29.93491149349886 0 0,0 0.4006953278616668,-0.32400108863857513 l 5.557932642137906 6.9958579275251145" fill="#ff6008" stroke="none" /><path d="M 86.93701828274178 83.55741782278169 l -5.921552460703915 -7.453551957681938 a30.519465338491067,30.519465338491067 0 0,0 0.414145431210013,-0.3232470781253921 l 5.792374474334476 7.554377425030552" fill="#ff6809" stroke="none" /><path d="M 87.22198572758235 83.33499621200491 l -25.52212284455414 -33.28578798039621 a62.94427774999113,62.94427774999113 0 0,0 0.865495347581435,-0.65187315219804 l 24.945381343214315 33.720177722100104" fill="#32ff4c" stroke="none" /><path d="M 87.51073957382395 83.11751280151077 l -5.6210175891381935 -7.598268772762218 a30.451429896081038,30.451429896081038 0 0,0 0.42407920461111304,-0.3081115773926617 l 5.489393068173299 7.693899584971548" fill="#ff6709" stroke="none" /><path d="M 87.80319425747018 82.90503203632743 l -5.124598853846794 -7.182606256301116 a29.82334097980486,29.82334097980486 0 0,0 0.4204648846523214,-0.29456252183956094 l 5.000202829610813 7.26975362090462" fill="#ff5e08" stroke="none" /><path d="M 88.09926311788651 82.69761687909137 l -5.2248042788741555 -7.596299814065689 a30.219671936555883,30.219671936555883 0 0,0 0.43112723089364674,-0.29109903080988453 l 5.09327235357397 7.685110757174239" fill="#ff6409" stroke="none" /><path d="M 88.39885842347998 82.49532879139004 l -5.128788168800193 -7.73869967893165 a30.28396148210028,30.28396148210028 0 0,0 0.43700185328356833,-0.284238161373008 l 4.994819289732337 7.825836764464193" fill="#ff6509" stroke="none" /><path d="M 88.70189139769569 82.29822771554957 l -5.065410615719602 -7.936438602512476 a30.41517086394586,30.41517086394586 0 0,0 0.4437440871447054,-0.27787250666085495 l 4.928047376202655 8.022455450496262" fill="#ff6709" stroke="none" /><path d="M 89.00827224532344 82.1063720568725 l -4.756230357911891 -7.742751488734252 a30.086909696581074,30.086909696581074 0 0,0 0.44362135963550187,-0.2672769054671212 l 4.62224693205874 7.8234750036599925" fill="#ff6209" stroke="none" /><line stroke="#e1ed5e" stroke-width="0.3" x1="56.762969772571076" x2="54.21961505331055" y1="26.818313649435495" y2="22.513508569990535" /><path d="M 56.25429882871897 25.957352633546506 a86.0,86.0 0 0,1 42.265352541879196,-11.944610805530505" fill="none" id="id12" stroke="none" /><text fill="#e1ed5e" style="font-size:6.75px; font-family:Arial;" text-anchor="middle"><textPath startOffset="22.20632615414155" xlink:href="#id12">December</textPath></text><path d="M 89.63071344664047 81.73862282372117 l -4.584826624194473 -8.074349941186115 a30.285244323476615,30.285244323476615 0 0,0 0.4555418637311351,-0.2535085539616673 l 4.4451606713912915 8.152073892707966" fill="#ff6509" stroke="none" /><path d="M 89.94658935756843 81.56283822128135 l -4.344023344175563 -7.966596015590972 a30.073984289735805,30.073984289735805 0 0,0 0.45663042197200887,-0.24391615730448488 l 4.206247875675248 8.040190899397206" fill="#ff6209" stroke="none" /><path d="M 90.26544431104013 81.39251694778311 l -4.307963086389822 -8.234618269274048 a30.293410783687506,30.293410783687506 0 0,0 0.4641232007055669,-0.23774193004430763 l 4.165579398095492 8.30755272463086" fill="#ff6509" stroke="none" /><path d="M 90.58718382345135 81.22770947309562 l -4.389085886919892 -8.753299105327564 a30.792053929083913,30.792053929083913 0 0,0 0.4758526784643922,-0.23349884271698368 l 4.237761941445073 8.827553108179378" fill="#ff6c09" stroke="none" /><path d="M 90.91171255644093 81.06846463323043 l -4.002888479832417 -8.33829533845656 a30.249339724180395,30.249339724180395 0 0,0 0.4713449072167675,-0.2213027539834649 l 3.8587653613160406 8.405963075080033" fill="#ff6409" stroke="none" /><path d="M 91.23893434514133 80.91482961587045 l -8.343804474011664 -18.176205533862518 a40.999838017087825,40.999838017087825 0 0,0 0.6439276056191101,-0.28891154660211943 l 8.02969474992578 18.317137410981164" fill="#fff316" stroke="none" /><path d="M 91.56875222667455 80.76684994638697 l -8.438123819141994 -19.248835516135372 a42.01712640477775,42.01712640477775 0 0,0 0.6649035026326361,-0.28467697992947905 l 8.10553655871905 19.391232024027637" fill="#ffff18" stroke="none" /><path d="M 91.90106846888425 80.62456947434976 l -3.7441064946048304 -8.957190832907028 a30.7082233729996,30.7082233729996 0 0,0 0.48945417615362274,-0.1996606479155302 l 3.5893684488628272 9.020312367006134" fill="#ff6b09" stroke="none" /><path d="M 92.23578459929587 80.48803036053334 l -3.6196336571073884 -9.096370770067242 a30.790082175252582,30.790082175252582 0 0,0 0.49413219257635743,-0.19171561391541692 l 3.4625182995313546 9.157329087873212" fill="#ff6c09" stroke="none" /><path d="M 92.57280143429618 80.3572730644239 l -4.972312516304618 -13.15028487956732 a35.05894320970024,35.05894320970024 0 0,0 0.5663149131650516,-0.20857856184684148 l 4.745215277366997 13.233926709220484" fill="#ffa60f" stroke="none" /><path d="M 92.91201910852362 80.23233633223022 l -3.3504788092691924 -9.34414740130989 a30.926671088978836,30.926671088978836 0 0,0 0.5026585427182948,-0.17536769559520404 l 3.1891382624876123 9.400435950077302" fill="#ff6e0a" stroke="none" /><path d="M 93.25333710446033 80.11325718540243 l -2.9669037339317703 -8.745368254782315 a30.234932792293215,30.234932792293215 0 0,0 0.4942938950447875,-0.16296092571581103 l 2.815927016644573 8.79514290475736" fill="#ff6409" stroke="none" /><path d="M 93.59665428221793 80.00007090966166 l -19.21003715334623 -59.99978727101503 a84.0,84.0 0 0,0 1.380858509157085,-0.42903946046989905 l 18.17439327147842 60.321566866367455" fill="#4dd2ff" stroke="none" /><path d="M 93.94186890950719 79.89281104454417 l -1.294526804238941 -4.296588283073512 a25.487367883418706,25.487367883418706 0 0,0 0.42116028476324713,-0.12294823609781909 l 1.2203763017522726 4.31823484809003" fill="#ff2003" stroke="none" /><path d="M 94.98787191387505 79.60689891045804 l -2.1965722872035833 -8.937305658136438 a30.203279971828977,30.203279971828977 0 0,0 0.5059427842918256,-0.11974031068612008 l 2.0424058159492238 8.973791880963429" fill="#ff6409" stroke="none" /><path d="M 95.33964822691252 79.52364482259891 l -1.9716261201952061 -8.662804586404013 a29.884339753749764,29.884339753749764 0 0,0 0.5025653341859478,-0.10984131653840606 l 1.8222180618557373 8.695459401038288" fill="#ff5f08" stroke="none" /><path d="M 95.692805502759 79.44645832069477 l -1.932700160605932 -9.22266996070394 a30.42300223468492,30.42300223468492 0 0,0 0.5134730436585099,-0.10299786205429892 l 1.7736607074802855 9.254571778835448" fill="#ff6709" stroke="none" /><path d="M 96.04723909329186 79.375362276772 l -0.4376912823563791 -2.283776921061813 a23.325340982270202,23.325340982270202 0 0,0 0.3949811931063769,-0.07218028838394168 l 0.3983149681471089 2.290972690796491" fill="#ff0000" stroke="none" /><path d="M 98.19473922651362 79.07773832637324 l -0.7536921884486617 -8.734995752241264 a29.767451323309498,29.767451323309498 0 0,0 0.5108800711714243,-0.03965412600415702 l 0.6032219279149031 8.746675140433883" fill="#ff5d08" stroke="none" /></svg>