<?xml version="1.0" encoding="utf-8" ?>
<svg baseProfile="full" height="300mm" version="1.1" viewBox="0,0,200,300" width="200mm" xmlns="http://www.w3.org/2000/svg" xmlns:ev="http://www.w3.org/2001/xml-events" xmlns:xlink="http://www.w3.org/1999/xlink"><defs /><rect fill="#222222" height="300" width="200" x="0" y="0" /><text fill="#555555" style="font-size:6px; font-family:Arial;" x="11" y="19">Running for 4804 Days</text><text fill="#555555" style="font-size:6px; font-family:Arial;" x="11" y="39">Races</text><text fill="#555555" style="font-size:8px; font-family:Arial;" x="11" y="59">1</text><text fill="#FFFFFF" style="font-size:10px; font-family:Arial; font-weight:bold;" x="23" y="59">10K</text><text fill="#555555" style="font-size:6px; font-family:Arial;" x="49" y="59">8x</text><text fill="#555555" style="font-size:6px; font-family:Arial;" x="11" y="97">Stats</text><text fill="#555555" style="font-size:5px; font-family:Arial;" x="11" y="103">Distance</text><text fill="#FFFFFF" style="font-size:10px; font-family:Arial; font-weight:bold;" x="11" y="114">427</text><text fill="#555555" style="font-size:6px; font-family:Arial;" x="29" y="114">km</text><text fill="#555555" style="font-size:5px; font-family:Arial;" x="53" y="103">Runs</text><text fill="#FFFFFF" style="font-size:10px; font-family:Arial; font-weight:bold;" x="53" y="114">122</text><text fill="#555555" style="font-size:5px; font-family:Arial;" x="11" y="131">Avg Pace</text><text fill="#FFFFFF" style="font-size:10px; font-family:Arial; font-weight:bold;" x="11" y="142">5'35"</text><text fill="#555555" style="font-size:5px; font-family:Arial;" x="53" y="131">Streak</text><text fill="#FFFFFF" style="font-size:10px; font-family:Arial; font-weight:bold;" x="53" y="142">8</text><text fill="#555555" style="font-size:6px; font-family:Arial;" x="59" y="142">d</text><text fill="#555555" style="font-size:5px; font-family:Arial;" x="11" y="159">Time</text><text fill="#FFFFFF" style="font-size:10px; font-family:Arial; font-weight:bold;" x="11" y="170">39</text><text fill="#555555" style="font-size:6px; font-family:Arial;" x="23" y="170">h</text><text fill="#555555" style="font-size:5px; font-family:Arial;" x="53" y="159">Longest</text><text fill="#FFFFFF" style="font-size:10px; font-family:Arial; font-weight:bold;" x="53" y="170">17.2</text><text fill="#555555" style="font-size:5px; font-family:Arial;" x="11" y="252.0645161290322">Runner</text><text fill="#FFFFFF" style="font-size:8px; font-family:Arial; font-weight:bold;" x="11" y="262.0645161290322">yihong0618</text><text fill="#555555" style="font-size:7px; font-family:Arial;" x="11" y="285.5806451612903">running_page/2015</text><circle cx="85.41666666666667" cy="17.419354838709676" fill="#555555" r="3.3125"><title>2015-01-01</title></circle><circle cx="85.41666666666667" cy="26.25806451612903" fill="#527e8c" r="3.3125"><title>2015-01-02: 3 km</title></circle><circle cx="85.41666666666667" cy="35.096774193548384" fill="#555555" r="3.3125"><title>2015-01-03</title></circle><circle cx="85.41666666666667" cy="43.935483870967744" fill="#555555" r="3.3125"><title>2015-01-04</title></circle><circle cx="85.41666666666667" cy="52.774193548387096" fill="#555555" r="3.3125"><title>2015-01-05</title></circle><circle cx="85.41666666666667" cy="61.61290322580645" fill="#555555" r="3.3125"><title>2015-01-06</title></circle><circle cx="85.41666666666667" cy="70.45161290322581" fill="#555555" r="3.3125"><title>2015-01-07</title></circle><circle cx="85.41666666666667" cy="79.29032258064517" fill="#555555" r="3.3125"><title>2015-01-08</title></circle><circle cx="85.41666666666667" cy="88.12903225806451" fill="#555555" r="3.3125"><title>2015-01-09</title></circle><circle cx="85.41666666666667" cy="96.96774193548387" fill="#555555" r="3.3125"><title>2015-01-10</title></circle><circle cx="85.41666666666667" cy="105.80645161290322" fill="#555555" r="3.3125"><title>2015-01-11</title></circle><circle cx="85.41666666666667" cy="114.64516129032258" fill="#555555" r="3.3125"><title>2015-01-12</title></circle><circle cx="85.41666666666667" cy="123.48387096774194" fill="#555555" r="3.3125"><title>2015-01-13</title></circle><circle cx="85.41666666666667" cy="132.32258064516128" fill="#53727d" r="3.3125"><title>2015-01-14: 2 km</title></circle><circle cx="85.41666666666667" cy="141.16129032258064" fill="#5096ad" r="3.3125"><title>2015-01-15: 5 km</title></circle><circle cx="85.41666666666667" cy="149.99999999999997" fill="#555555" r="3.3125"><title>2015-01-16</title></circle><circle cx="85.41666666666667" cy="158.83870967741933" fill="#555555" r="3.3125"><title>2015-01-17</title></circle><circle cx="85.41666666666667" cy="167.6774193548387" fill="#555555" r="3.3125"><title>2015-01-18</title></circle><circle cx="85.41666666666667" cy="176.51612903225805" fill="#53676e" r="3.3125"><title>2015-01-19: 1 km</title></circle><circle cx="85.41666666666667" cy="185.35483870967738" fill="#527b88" r="3.3125"><title>2015-01-20: 3 km</title></circle><circle cx="85.41666666666667" cy="194.19354838709674" fill="#FFFF00" r="3.3125"><title>2015-01-21: 12 km</title></circle><circle cx="85.41666666666667" cy="203.0322580645161" fill="#555555" r="3.3125"><title>2015-01-22</title></circle><circle cx="85.41666666666667" cy="211.87096774193546" fill="#555555" r="3.3125"><title>2015-01-23</title></circle><circle cx="85.41666666666667" cy="220.70967741935482" fill="#555555" r="3.3125"><title>2015-01-24</title></circle><circle cx="85.41666666666667" cy="229.54838709677418" fill="#555555" r="3.3125"><title>2015-01-25</title></circle><circle cx="85.41666666666667" cy="238.3870967741935" fill="#536b73" r="3.3125"><title>2015-01-26: 1 km</title></circle><circle cx="85.41666666666667" cy="247.22580645161287" fill="#555555" r="3.3125"><title>2015-01-27</title></circle><circle cx="85.41666666666667" cy="256.06451612903226" fill="#527581" r="3.3125"><title>2015-01-28: 2 km</title></circle><circle cx="85.41666666666667" cy="264.90322580645164" fill="#536a72" r="3.3125"><title>2015-01-29: 1 km</title></circle><circle cx="85.41666666666667" cy="273.741935483871" fill="#555555" r="3.3125"><title>2015-01-30</title></circle><circle cx="85.41666666666667" cy="282.5806451612903" fill="#555555" r="3.3125"><title>2015-01-31</title></circle><circle cx="94.25" cy="17.419354838709676" fill="#5093aa" r="3.3125"><title>2015-02-01: 5 km</title></circle><circle cx="94.25" cy="26.25806451612903" fill="#53646a" r="3.3125"><title>2015-02-02: 1 km</title></circle><circle cx="94.25" cy="35.096774193548384" fill="#536971" r="3.3125"><title>2015-02-03: 1 km</title></circle><circle cx="94.25" cy="43.935483870967744" fill="#555555" r="3.3125"><title>2015-02-04</title></circle><circle cx="94.25" cy="52.774193548387096" fill="#555555" r="3.3125"><title>2015-02-05</title></circle><circle cx="94.25" cy="61.61290322580645" fill="#555555" r="3.3125"><title>2015-02-06</title></circle><circle cx="94.25" cy="70.45161290322581" fill="#555555" r="3.3125"><title>2015-02-07</title></circle><circle cx="94.25" cy="79.29032258064517" fill="#555555" r="3.3125"><title>2015-02-08</title></circle><circle cx="94.25" cy="88.12903225806451" fill="#555555" r="3.3125"><title>2015-02-09</title></circle><circle cx="94.25" cy="96.96774193548387" fill="#555555" r="3.3125"><title>2015-02-10</title></circle><circle cx="94.25" cy="105.80645161290322" fill="#FFFF00" r="3.3125"><title>2015-02-11: 11 km</title></circle><circle cx="94.25" cy="114.64516129032258" fill="#555555" r="3.3125"><title>2015-02-12</title></circle><circle cx="94.25" cy="123.48387096774194" fill="#555555" r="3.3125"><title>2015-02-13</title></circle><circle cx="94.25" cy="132.32258064516128" fill="#555555" r="3.3125"><title>2015-02-14</title></circle><circle cx="94.25" cy="141.16129032258064" fill="#555555" r="3.3125"><title>2015-02-15</title></circle><circle cx="94.25" cy="149.99999999999997" fill="#555555" r="3.3125"><title>2015-02-16</title></circle><circle cx="94.25" cy="158.83870967741933" fill="#555555" r="3.3125"><title>2015-02-17</title></circle><circle cx="94.25" cy="167.6774193548387" fill="#555555" r="3.3125"><title>2015-02-18</title></circle><circle cx="94.25" cy="176.51612903225805" fill="#555555" r="3.3125"><title>2015-02-19</title></circle><circle cx="94.25" cy="185.35483870967738" fill="#555555" r="3.3125"><title>2015-02-20</title></circle><circle cx="94.25" cy="194.19354838709674" fill="#555555" r="3.3125"><title>2015-02-21</title></circle><circle cx="94.25" cy="203.0322580645161" fill="#555555" r="3.3125"><title>2015-02-22</title></circle><circle cx="94.25" cy="211.87096774193546" fill="#555555" r="3.3125"><title>2015-02-23</title></circle><circle cx="94.25" cy="220.70967741935482" fill="#555555" r="3.3125"><title>2015-02-24</title></circle><circle cx="94.25" cy="229.54838709677418" fill="#555555" r="3.3125"><title>2015-02-25</title></circle><circle cx="94.25" cy="238.3870967741935" fill="#555555" r="3.3125"><title>2015-02-26</title></circle><circle cx="94.25" cy="247.22580645161287" fill="#555555" r="3.3125"><title>2015-02-27</title></circle><circle cx="94.25" cy="256.06451612903226" fill="#555555" r="3.3125"><title>2015-02-28</title></circle><circle cx="103.08333333333334" cy="17.419354838709676" fill="#555555" r="3.3125"><title>2015-03-01</title></circle><circle cx="103.08333333333334" cy="26.25806451612903" fill="#555555" r="3.3125"><title>2015-03-02</title></circle><circle cx="103.08333333333334" cy="35.096774193548384" fill="#555555" r="3.3125"><title>2015-03-03</title></circle><circle cx="103.08333333333334" cy="43.935483870967744" fill="#555555" r="3.3125"><title>2015-03-04</title></circle><circle cx="103.08333333333334" cy="52.774193548387096" fill="#536e77" r="3.3125"><title>2015-03-05: 2 km</title></circle><circle cx="103.08333333333334" cy="61.61290322580645" fill="#527b89" r="3.3125"><title>2015-03-06: 3 km</title></circle><circle cx="103.08333333333334" cy="70.45161290322581" fill="#5094aa" r="3.3125"><title>2015-03-07: 5 km</title></circle><circle cx="103.08333333333334" cy="79.29032258064517" fill="#4fa4c0" r="3.3125"><title>2015-03-08: 6 km</title></circle><circle cx="103.08333333333334" cy="88.12903225806451" fill="#555555" r="3.3125"><title>2015-03-09</title></circle><circle cx="103.08333333333334" cy="96.96774193548387" fill="#555555" r="3.3125"><title>2015-03-10</title></circle><circle cx="103.08333333333334" cy="105.80645161290322" fill="#555555" r="3.3125"><title>2015-03-11</title></circle><circle cx="103.08333333333334" cy="114.64516129032258" fill="#555555" r="3.3125"><title>2015-03-12</title></circle><circle cx="103.08333333333334" cy="123.48387096774194" fill="#555555" r="3.3125"><title>2015-03-13</title></circle><circle cx="103.08333333333334" cy="132.32258064516128" fill="#555555" r="3.3125"><title>2015-03-14</title></circle><circle cx="103.08333333333334" cy="141.16129032258064" fill="#555555" r="3.3125"><title>2015-03-15</title></circle><circle cx="103.08333333333334" cy="149.99999999999997" fill="#555555" r="3.3125"><title>2015-03-16</title></circle><circle cx="103.08333333333334" cy="158.83870967741933" fill="#555555" r="3.3125"><title>2015-03-17</title></circle><circle cx="103.08333333333334" cy="167.6774193548387" fill="#555555" r="3.3125"><title>2015-03-18</title></circle><circle cx="103.08333333333334" cy="176.51612903225805" fill="#555555" r="3.3125"><title>2015-03-19</title></circle><circle cx="103.08333333333334" cy="185.35483870967738" fill="#555555" r="3.3125"><title>2015-03-20</title></circle><circle cx="103.08333333333334" cy="194.19354838709674" fill="#555555" r="3.3125"><title>2015-03-21</title></circle><circle cx="103.08333333333334" cy="203.0322580645161" fill="#555555" r="3.3125"><title>2015-03-22</title></circle><circle cx="103.08333333333334" cy="211.87096774193546" fill="#555555" r="3.3125"><title>2015-03-23</title></circle><circle cx="103.08333333333334" cy="220.70967741935482" fill="#555555" r="3.3125"><title>2015-03-24</title></circle><circle cx="103.08333333333334" cy="229.54838709677418" fill="#555555" r="3.3125"><title>2015-03-25</title></circle><circle cx="103.08333333333334" cy="238.3870967741935" fill="#555555" r="3.3125"><title>2015-03-26</title></circle><circle cx="103.08333333333334" cy="247.22580645161287" fill="#555555" r="3.3125"><title>2015-03-27</title></circle><circle cx="103.08333333333334" cy="256.06451612903226" fill="#555555" r="3.3125"><title>2015-03-28</title></circle><circle cx="103.08333333333334" cy="264.90322580645164" fill="#555555" r="3.3125"><title>2015-03-29</title></circle><circle cx="103.08333333333334" cy="273.741935483871" fill="#555555" r="3.3125"><title>2015-03-30</title></circle><circle cx="103.08333333333334" cy="282.5806451612903" fill="#555555" r="3.3125"><title>2015-03-31</title></circle><circle cx="111.91666666666667" cy="17.419354838709676" fill="#555555" r="3.3125"><title>2015-04-01</title></circle><circle cx="111.91666666666667" cy="26.25806451612903" fill="#555555" r="3.3125"><title>2015-04-02</title></circle><circle cx="111.91666666666667" cy="35.096774193548384" fill="#555555" r="3.3125"><title>2015-04-03</title></circle><circle cx="111.91666666666667" cy="43.935483870967744" fill="#555555" r="3.3125"><title>2015-04-04</title></circle><circle cx="111.91666666666667" cy="52.774193548387096" fill="#555555" r="3.3125"><title>2015-04-05</title></circle><circle cx="111.91666666666667" cy="61.61290322580645" fill="#555555" r="3.3125"><title>2015-04-06</title></circle><circle cx="111.91666666666667" cy="70.45161290322581" fill="#555555" r="3.3125"><title>2015-04-07</title></circle><circle cx="111.91666666666667" cy="79.29032258064517" fill="#536e77" r="3.3125"><title>2015-04-08: 2 km</title></circle><circle cx="111.91666666666667" cy="88.12903225806451" fill="#527580" r="3.3125"><title>2015-04-09: 2 km</title></circle><circle cx="111.91666666666667" cy="96.96774193548387" fill="#536970" r="3.3125"><title>2015-04-10: 1 km</title></circle><circle cx="111.91666666666667" cy="105.80645161290322" fill="#555555" r="3.3125"><title>2015-04-11</title></circle><circle cx="111.91666666666667" cy="114.64516129032258" fill="#555555" r="3.3125"><title>2015-04-12</title></circle><circle cx="111.91666666666667" cy="123.48387096774194" fill="#555555" r="3.3125"><title>2015-04-13</title></circle><circle cx="111.91666666666667" cy="132.32258064516128" fill="#536e77" r="3.3125"><title>2015-04-14: 2 km</title></circle><circle cx="111.91666666666667" cy="141.16129032258064" fill="#527a88" r="3.3125"><title>2015-04-15: 3 km</title></circle><circle cx="111.91666666666667" cy="149.99999999999997" fill="#546166" r="3.3125"><title>2015-04-16: 1 km</title></circle><circle cx="111.91666666666667" cy="158.83870967741933" fill="#527a88" r="3.3125"><title>2015-04-17: 3 km</title></circle><circle cx="111.91666666666667" cy="167.6774193548387" fill="#555555" r="3.3125"><title>2015-04-18</title></circle><circle cx="111.91666666666667" cy="176.51612903225805" fill="#555555" r="3.3125"><title>2015-04-19</title></circle><circle cx="111.91666666666667" cy="185.35483870967738" fill="#5093aa" r="3.3125"><title>2015-04-20: 5 km</title></circle><circle cx="111.91666666666667" cy="194.19354838709674" fill="#53747f" r="3.3125"><title>2015-04-21: 2 km</title></circle><circle cx="111.91666666666667" cy="203.0322580645161" fill="#555555" r="3.3125"><title>2015-04-22</title></circle><circle cx="111.91666666666667" cy="211.87096774193546" fill="#53676e" r="3.3125"><title>2015-04-23: 1 km</title></circle><circle cx="111.91666666666667" cy="220.70967741935482" fill="#536c74" r="3.3125"><title>2015-04-24: 1 km</title></circle><circle cx="111.91666666666667" cy="229.54838709677418" fill="#555555" r="3.3125"><title>2015-04-25</title></circle><circle cx="111.91666666666667" cy="238.3870967741935" fill="#4fa3bf" r="3.3125"><title>2015-04-26: 6 km</title></circle><circle cx="111.91666666666667" cy="247.22580645161287" fill="#555555" r="3.3125"><title>2015-04-27</title></circle><circle cx="111.91666666666667" cy="256.06451612903226" fill="#527e8d" r="3.3125"><title>2015-04-28: 3 km</title></circle><circle cx="111.91666666666667" cy="264.90322580645164" fill="#5093aa" r="3.3125"><title>2015-04-29: 5 km</title></circle><circle cx="111.91666666666667" cy="273.741935483871" fill="#FFFF00" r="3.3125"><title>2015-04-30: 11 km</title></circle><circle cx="120.75000000000001" cy="17.419354838709676" fill="#555555" r="3.3125"><title>2015-05-01</title></circle><circle cx="120.75000000000001" cy="26.25806451612903" fill="#546368" r="3.3125"><title>2015-05-02: 1 km</title></circle><circle cx="120.75000000000001" cy="35.096774193548384" fill="#555555" r="3.3125"><title>2015-05-03</title></circle><circle cx="120.75000000000001" cy="43.935483870967744" fill="#5093aa" r="3.3125"><title>2015-05-04: 5 km</title></circle><circle cx="120.75000000000001" cy="52.774193548387096" fill="#536f79" r="3.3125"><title>2015-05-05: 2 km</title></circle><circle cx="120.75000000000001" cy="61.61290322580645" fill="#5093aa" r="3.3125"><title>2015-05-06: 5 km</title></circle><circle cx="120.75000000000001" cy="70.45161290322581" fill="#509cb6" r="3.3125"><title>2015-05-07: 5 km</title></circle><circle cx="120.75000000000001" cy="79.29032258064517" fill="#555555" r="3.3125"><title>2015-05-08</title></circle><circle cx="120.75000000000001" cy="88.12903225806451" fill="#546166" r="3.3125"><title>2015-05-09: 1 km</title></circle><circle cx="120.75000000000001" cy="96.96774193548387" fill="#555555" r="3.3125"><title>2015-05-10</title></circle><circle cx="120.75000000000001" cy="105.80645161290322" fill="#555555" r="3.3125"><title>2015-05-11</title></circle><circle cx="120.75000000000001" cy="114.64516129032258" fill="#53646a" r="3.3125"><title>2015-05-12: 1 km</title></circle><circle cx="120.75000000000001" cy="123.48387096774194" fill="#555555" r="3.3125"><title>2015-05-13</title></circle><circle cx="120.75000000000001" cy="132.32258064516128" fill="#518a9d" r="3.3125"><title>2015-05-14: 4 km</title></circle><circle cx="120.75000000000001" cy="141.16129032258064" fill="#555555" r="3.3125"><title>2015-05-15</title></circle><circle cx="120.75000000000001" cy="149.99999999999997" fill="#555555" r="3.3125"><title>2015-05-16</title></circle><circle cx="120.75000000000001" cy="158.83870967741933" fill="#555555" r="3.3125"><title>2015-05-17</title></circle><circle cx="120.75000000000001" cy="167.6774193548387" fill="#555555" r="3.3125"><title>2015-05-18</title></circle><circle cx="120.75000000000001" cy="176.51612903225805" fill="#536e77" r="3.3125"><title>2015-05-19: 2 km</title></circle><circle cx="120.75000000000001" cy="185.35483870967738" fill="#555555" r="3.3125"><title>2015-05-20</title></circle><circle cx="120.75000000000001" cy="194.19354838709674" fill="#536f78" r="3.3125"><title>2015-05-21: 2 km</title></circle><circle cx="120.75000000000001" cy="203.0322580645161" fill="#555555" r="3.3125"><title>2015-05-22</title></circle><circle cx="120.75000000000001" cy="211.87096774193546" fill="#50a0bb" r="3.3125"><title>2015-05-23: 6 km</title></circle><circle cx="120.75000000000001" cy="220.70967741935482" fill="#555555" r="3.3125"><title>2015-05-24</title></circle><circle cx="120.75000000000001" cy="229.54838709677418" fill="#518a9d" r="3.3125"><title>2015-05-25: 4 km</title></circle><circle cx="120.75000000000001" cy="238.3870967741935" fill="#536e77" r="3.3125"><title>2015-05-26: 2 km</title></circle><circle cx="120.75000000000001" cy="247.22580645161287" fill="#555555" r="3.3125"><title>2015-05-27</title></circle><circle cx="120.75000000000001" cy="256.06451612903226" fill="#536a72" r="3.3125"><title>2015-05-28: 1 km</title></circle><circle cx="120.75000000000001" cy="264.90322580645164" fill="#555555" r="3.3125"><title>2015-05-29</title></circle><circle cx="120.75000000000001" cy="273.741935483871" fill="#555555" r="3.3125"><title>2015-05-30</title></circle><circle cx="120.75000000000001" cy="282.5806451612903" fill="#555555" r="3.3125"><title>2015-05-31</title></circle><circle cx="129.58333333333334" cy="17.419354838709676" fill="#527a88" r="3.3125"><title>2015-06-01: 3 km</title></circle><circle cx="129.58333333333334" cy="26.25806451612903" fill="#52747f" r="3.3125"><title>2015-06-02: 2 km</title></circle><circle cx="129.58333333333334" cy="35.096774193548384" fill="#555555" r="3.3125"><title>2015-06-03</title></circle><circle cx="129.58333333333334" cy="43.935483870967744" fill="#527a88" r="3.3125"><title>2015-06-04: 3 km</title></circle><circle cx="129.58333333333334" cy="52.774193548387096" fill="#555555" r="3.3125"><title>2015-06-05</title></circle><circle cx="129.58333333333334" cy="61.61290322580645" fill="#555555" r="3.3125"><title>2015-06-06</title></circle><circle cx="129.58333333333334" cy="70.45161290322581" fill="#555555" r="3.3125"><title>2015-06-07</title></circle><circle cx="129.58333333333334" cy="79.29032258064517" fill="#536e77" r="3.3125"><title>2015-06-08: 2 km</title></circle><circle cx="129.58333333333334" cy="88.12903225806451" fill="#527a88" r="3.3125"><title>2015-06-09: 3 km</title></circle><circle cx="129.58333333333334" cy="96.96774193548387" fill="#5093aa" r="3.3125"><title>2015-06-10: 5 km</title></circle><circle cx="129.58333333333334" cy="105.80645161290322" fill="#5096ad" r="3.3125"><title>2015-06-11: 5 km</title></circle><circle cx="129.58333333333334" cy="114.64516129032258" fill="#536e77" r="3.3125"><title>2015-06-12: 2 km</title></circle><circle cx="129.58333333333334" cy="123.48387096774194" fill="#555555" r="3.3125"><title>2015-06-13</title></circle><circle cx="129.58333333333334" cy="132.32258064516128" fill="#5093aa" r="3.3125"><title>2015-06-14: 5 km</title></circle><circle cx="129.58333333333334" cy="141.16129032258064" fill="#53656a" r="3.3125"><title>2015-06-15: 1 km</title></circle><circle cx="129.58333333333334" cy="149.99999999999997" fill="#527a88" r="3.3125"><title>2015-06-16: 3 km</title></circle><circle cx="129.58333333333334" cy="158.83870967741933" fill="#518a9e" r="3.3125"><title>2015-06-17: 4 km</title></circle><circle cx="129.58333333333334" cy="167.6774193548387" fill="#536e77" r="3.3125"><title>2015-06-18: 2 km</title></circle><circle cx="129.58333333333334" cy="176.51612903225805" fill="#546166" r="3.3125"><title>2015-06-19: 1 km</title></circle><circle cx="129.58333333333334" cy="185.35483870967738" fill="#555555" r="3.3125"><title>2015-06-20</title></circle><circle cx="129.58333333333334" cy="194.19354838709674" fill="#4eb9dd" r="3.3125"><title>2015-06-21: 8 km</title></circle><circle cx="129.58333333333334" cy="203.0322580645161" fill="#555555" r="3.3125"><title>2015-06-22</title></circle><circle cx="129.58333333333334" cy="211.87096774193546" fill="#536e77" r="3.3125"><title>2015-06-23: 2 km</title></circle><circle cx="129.58333333333334" cy="220.70967741935482" fill="#51889b" r="3.3125"><title>2015-06-24: 4 km</title></circle><circle cx="129.58333333333334" cy="229.54838709677418" fill="#546166" r="3.3125"><title>2015-06-25: 1 km</title></circle><circle cx="129.58333333333334" cy="238.3870967741935" fill="#555555" r="3.3125"><title>2015-06-26</title></circle><circle cx="129.58333333333334" cy="247.22580645161287" fill="#555555" r="3.3125"><title>2015-06-27</title></circle><circle cx="129.58333333333334" cy="256.06451612903226" fill="#FFFF00" r="3.3125"><title>2015-06-28: 12 km</title></circle><circle cx="129.58333333333334" cy="264.90322580645164" fill="#555555" r="3.3125"><title>2015-06-29</title></circle><circle cx="129.58333333333334" cy="273.741935483871" fill="#546166" r="3.3125"><title>2015-06-30: 1 km</title></circle><circle cx="138.41666666666666" cy="17.419354838709676" fill="#518a9d" r="3.3125"><title>2015-07-01: 4 km</title></circle><circle cx="138.41666666666666" cy="26.25806451612903" fill="#546166" r="3.3125"><title>2015-07-02: 1 km</title></circle><circle cx="138.41666666666666" cy="35.096774193548384" fill="#5192a9" r="3.3125"><title>2015-07-03: 4 km</title></circle><circle cx="138.41666666666666" cy="43.935483870967744" fill="#555555" r="3.3125"><title>2015-07-04</title></circle><circle cx="138.41666666666666" cy="52.774193548387096" fill="#FFFF00" r="3.3125"><title>2015-07-05: 14 km</title></circle><circle cx="138.41666666666666" cy="61.61290322580645" fill="#555555" r="3.3125"><title>2015-07-06</title></circle><circle cx="138.41666666666666" cy="70.45161290322581" fill="#5093aa" r="3.3125"><title>2015-07-07: 5 km</title></circle><circle cx="138.41666666666666" cy="79.29032258064517" fill="#53646a" r="3.3125"><title>2015-07-08: 1 km</title></circle><circle cx="138.41666666666666" cy="88.12903225806451" fill="#518b9e" r="3.3125"><title>2015-07-09: 4 km</title></circle><circle cx="138.41666666666666" cy="96.96774193548387" fill="#555555" r="3.3125"><title>2015-07-10</title></circle><circle cx="138.41666666666666" cy="105.80645161290322" fill="#555555" r="3.3125"><title>2015-07-11</title></circle><circle cx="138.41666666666666" cy="114.64516129032258" fill="#FFFF00" r="3.3125"><title>2015-07-12: 15 km</title></circle><circle cx="138.41666666666666" cy="123.48387096774194" fill="#555555" r="3.3125"><title>2015-07-13</title></circle><circle cx="138.41666666666666" cy="132.32258064516128" fill="#53676d" r="3.3125"><title>2015-07-14: 1 km</title></circle><circle cx="138.41666666666666" cy="141.16129032258064" fill="#518a9d" r="3.3125"><title>2015-07-15: 4 km</title></circle><circle cx="138.41666666666666" cy="149.99999999999997" fill="#546369" r="3.3125"><title>2015-07-16: 1 km</title></circle><circle cx="138.41666666666666" cy="158.83870967741933" fill="#518a9d" r="3.3125"><title>2015-07-17: 4 km</title></circle><circle cx="138.41666666666666" cy="167.6774193548387" fill="#555555" r="3.3125"><title>2015-07-18</title></circle><circle cx="138.41666666666666" cy="176.51612903225805" fill="#FFFF00" r="3.3125"><title>2015-07-19: 17 km</title></circle><circle cx="138.41666666666666" cy="185.35483870967738" fill="#555555" r="3.3125"><title>2015-07-20</title></circle><circle cx="138.41666666666666" cy="194.19354838709674" fill="#527a88" r="3.3125"><title>2015-07-21: 3 km</title></circle><circle cx="138.41666666666666" cy="203.0322580645161" fill="#518799" r="3.3125"><title>2015-07-22: 4 km</title></circle><circle cx="138.41666666666666" cy="211.87096774193546" fill="#518fa4" r="3.3125"><title>2015-07-23: 4 km</title></circle><circle cx="138.41666666666666" cy="220.70967741935482" fill="#555555" r="3.3125"><title>2015-07-24</title></circle><circle cx="138.41666666666666" cy="229.54838709677418" fill="#555555" r="3.3125"><title>2015-07-25</title></circle><circle cx="138.41666666666666" cy="238.3870967741935" fill="#FFFF00" r="3.3125"><title>2015-07-26: 15 km</title></circle><circle cx="138.41666666666666" cy="247.22580645161287" fill="#555555" r="3.3125"><title>2015-07-27</title></circle><circle cx="138.41666666666666" cy="256.06451612903226" fill="#53676d" r="3.3125"><title>2015-07-28: 1 km</title></circle><circle cx="138.41666666666666" cy="264.90322580645164" fill="#555555" r="3.3125"><title>2015-07-29</title></circle><circle cx="138.41666666666666" cy="273.741935483871" fill="#518ca0" r="3.3125"><title>2015-07-30: 4 km</title></circle><circle cx="138.41666666666666" cy="282.5806451612903" fill="#555555" r="3.3125"><title>2015-07-31</title></circle><circle cx="147.25" cy="17.419354838709676" fill="#527986" r="3.3125"><title>2015-08-01: 2 km</title></circle><circle cx="147.25" cy="26.25806451612903" fill="#555555" r="3.3125"><title>2015-08-02</title></circle><circle cx="147.25" cy="35.096774193548384" fill="#527b88" r="3.3125"><title>2015-08-03: 3 km</title></circle><circle cx="147.25" cy="43.935483870967744" fill="#536e77" r="3.3125"><title>2015-08-04: 2 km</title></circle><circle cx="147.25" cy="52.774193548387096" fill="#537079" r="3.3125"><title>2015-08-05: 2 km</title></circle><circle cx="147.25" cy="61.61290322580645" fill="#555555" r="3.3125"><title>2015-08-06</title></circle><circle cx="147.25" cy="70.45161290322581" fill="#555555" r="3.3125"><title>2015-08-07</title></circle><circle cx="147.25" cy="79.29032258064517" fill="#555555" r="3.3125"><title>2015-08-08</title></circle><circle cx="147.25" cy="88.12903225806451" fill="#555555" r="3.3125"><title>2015-08-09</title></circle><circle cx="147.25" cy="96.96774193548387" fill="#555555" r="3.3125"><title>2015-08-10</title></circle><circle cx="147.25" cy="105.80645161290322" fill="#546166" r="3.3125"><title>2015-08-11: 1 km</title></circle><circle cx="147.25" cy="114.64516129032258" fill="#555555" r="3.3125"><title>2015-08-12</title></circle><circle cx="147.25" cy="123.48387096774194" fill="#528191" r="3.3125"><title>2015-08-13: 3 km</title></circle><circle cx="147.25" cy="132.32258064516128" fill="#555555" r="3.3125"><title>2015-08-14</title></circle><circle cx="147.25" cy="141.16129032258064" fill="#555555" r="3.3125"><title>2015-08-15</title></circle><circle cx="147.25" cy="149.99999999999997" fill="#555555" r="3.3125"><title>2015-08-16</title></circle><circle cx="147.25" cy="158.83870967741933" fill="#555555" r="3.3125"><title>2015-08-17</title></circle><circle cx="147.25" cy="167.6774193548387" fill="#555555" r="3.3125"><title>2015-08-18</title></circle><circle cx="147.25" cy="176.51612903225805" fill="#555555" r="3.3125"><title>2015-08-19</title></circle><circle cx="147.25" cy="185.35483870967738" fill="#555555" r="3.3125"><title>2015-08-20</title></circle><circle cx="147.25" cy="194.19354838709674" fill="#53676e" r="3.3125"><title>2015-08-21: 1 km</title></circle><circle cx="147.25" cy="203.0322580645161" fill="#555555" r="3.3125"><title>2015-08-22</title></circle><circle cx="147.25" cy="211.87096774193546" fill="#555555" r="3.3125"><title>2015-08-23</title></circle><circle cx="147.25" cy="220.70967741935482" fill="#555555" r="3.3125"><title>2015-08-24</title></circle><circle cx="147.25" cy="229.54838709677418" fill="#527a88" r="3.3125"><title>2015-08-25: 3 km</title></circle><circle cx="147.25" cy="238.3870967741935" fill="#555555" r="3.3125"><title>2015-08-26</title></circle><circle cx="147.25" cy="247.22580645161287" fill="#555555" r="3.3125"><title>2015-08-27</title></circle><circle cx="147.25" cy="256.06451612903226" fill="#555555" r="3.3125"><title>2015-08-28</title></circle><circle cx="147.25" cy="264.90322580645164" fill="#555555" r="3.3125"><title>2015-08-29</title></circle><circle cx="147.25" cy="273.741935483871" fill="#555555" r="3.3125"><title>2015-08-30</title></circle><circle cx="147.25" cy="282.5806451612903" fill="#555555" r="3.3125"><title>2015-08-31</title></circle><circle cx="156.08333333333334" cy="17.419354838709676" fill="#555555" r="3.3125"><title>2015-09-01</title></circle><circle cx="156.08333333333334" cy="26.25806451612903" fill="#555555" r="3.3125"><title>2015-09-02</title></circle><circle cx="156.08333333333334" cy="35.096774193548384" fill="#555555" r="3.3125"><title>2015-09-03</title></circle><circle cx="156.08333333333334" cy="43.935483870967744" fill="#555555" r="3.3125"><title>2015-09-04</title></circle><circle cx="156.08333333333334" cy="52.774193548387096" fill="#53676e" r="3.3125"><title>2015-09-05: 1 km</title></circle><circle cx="156.08333333333334" cy="61.61290322580645" fill="#555555" r="3.3125"><title>2015-09-06</title></circle><circle cx="156.08333333333334" cy="70.45161290322581" fill="#555555" r="3.3125"><title>2015-09-07</title></circle><circle cx="156.08333333333334" cy="79.29032258064517" fill="#555555" r="3.3125"><title>2015-09-08</title></circle><circle cx="156.08333333333334" cy="88.12903225806451" fill="#555555" r="3.3125"><title>2015-09-09</title></circle><circle cx="156.08333333333334" cy="96.96774193548387" fill="#555555" r="3.3125"><title>2015-09-10</title></circle><circle cx="156.08333333333334" cy="105.80645161290322" fill="#555555" r="3.3125"><title>2015-09-11</title></circle><circle cx="156.08333333333334" cy="114.64516129032258" fill="#555555" r="3.3125"><title>2015-09-12</title></circle><circle cx="156.08333333333334" cy="123.48387096774194" fill="#555555" r="3.3125"><title>2015-09-13</title></circle><circle cx="156.08333333333334" cy="132.32258064516128" fill="#555555" r="3.3125"><title>2015-09-14</title></circle><circle cx="156.08333333333334" cy="141.16129032258064" fill="#53656a" r="3.3125"><title>2015-09-15: 1 km</title></circle><circle cx="156.08333333333334" cy="149.99999999999997" fill="#555555" r="3.3125"><title>2015-09-16</title></circle><circle cx="156.08333333333334" cy="158.83870967741933" fill="#555555" r="3.3125"><title>2015-09-17</title></circle><circle cx="156.08333333333334" cy="167.6774193548387" fill="#555555" r="3.3125"><title>2015-09-18</title></circle><circle cx="156.08333333333334" cy="176.51612903225805" fill="#555555" r="3.3125"><title>2015-09-19</title></circle><circle cx="156.08333333333334" cy="185.35483870967738" fill="#555555" r="3.3125"><title>2015-09-20</title></circle><circle cx="156.08333333333334" cy="194.19354838709674" fill="#518a9d" r="3.3125"><title>2015-09-21: 4 km</title></circle><circle cx="156.08333333333334" cy="203.0322580645161" fill="#555555" r="3.3125"><title>2015-09-22</title></circle><circle cx="156.08333333333334" cy="211.87096774193546" fill="#546368" r="3.3125"><title>2015-09-23: 1 km</title></circle><circle cx="156.08333333333334" cy="220.70967741935482" fill="#555555" r="3.3125"><title>2015-09-24</title></circle><circle cx="156.08333333333334" cy="229.54838709677418" fill="#555555" r="3.3125"><title>2015-09-25</title></circle><circle cx="156.08333333333334" cy="238.3870967741935" fill="#555555" r="3.3125"><title>2015-09-26</title></circle><circle cx="156.08333333333334" cy="247.22580645161287" fill="#555555" r="3.3125"><title>2015-09-27</title></circle><circle cx="156.08333333333334" cy="256.06451612903226" fill="#527a88" r="3.3125"><title>2015-09-28: 3 km</title></circle><circle cx="156.08333333333334" cy="264.90322580645164" fill="#555555" r="3.3125"><title>2015-09-29</title></circle><circle cx="156.08333333333334" cy="273.741935483871" fill="#555555" r="3.3125"><title>2015-09-30</title></circle><circle cx="164.91666666666666" cy="17.419354838709676" fill="#518da1" r="3.3125"><title>2015-10-01: 4 km</title></circle><circle cx="164.91666666666666" cy="26.25806451612903" fill="#555555" r="3.3125"><title>2015-10-02</title></circle><circle cx="164.91666666666666" cy="35.096774193548384" fill="#555555" r="3.3125"><title>2015-10-03</title></circle><circle cx="164.91666666666666" cy="43.935483870967744" fill="#555555" r="3.3125"><title>2015-10-04</title></circle><circle cx="164.91666666666666" cy="52.774193548387096" fill="#546267" r="3.3125"><title>2015-10-05: 1 km</title></circle><circle cx="164.91666666666666" cy="61.61290322580645" fill="#527a88" r="3.3125"><title>2015-10-06: 3 km</title></circle><circle cx="164.91666666666666" cy="70.45161290322581" fill="#555555" r="3.3125"><title>2015-10-07</title></circle><circle cx="164.91666666666666" cy="79.29032258064517" fill="#518799" r="3.3125"><title>2015-10-08: 4 km</title></circle><circle cx="164.91666666666666" cy="88.12903225806451" fill="#53737e" r="3.3125"><title>2015-10-09: 2 km</title></circle><circle cx="164.91666666666666" cy="96.96774193548387" fill="#536e77" r="3.3125"><title>2015-10-10: 2 km</title></circle><circle cx="164.91666666666666" cy="105.80645161290322" fill="#527a88" r="3.3125"><title>2015-10-11: 3 km</title></circle><circle cx="164.91666666666666" cy="114.64516129032258" fill="#5093aa" r="3.3125"><title>2015-10-12: 5 km</title></circle><circle cx="164.91666666666666" cy="123.48387096774194" fill="#536e77" r="3.3125"><title>2015-10-13: 2 km</title></circle><circle cx="164.91666666666666" cy="132.32258064516128" fill="#527a88" r="3.3125"><title>2015-10-14: 3 km</title></circle><circle cx="164.91666666666666" cy="141.16129032258064" fill="#518a9d" r="3.3125"><title>2015-10-15: 4 km</title></circle><circle cx="164.91666666666666" cy="149.99999999999997" fill="#555555" r="3.3125"><title>2015-10-16</title></circle><circle cx="164.91666666666666" cy="158.83870967741933" fill="#555555" r="3.3125"><title>2015-10-17</title></circle><circle cx="164.91666666666666" cy="167.6774193548387" fill="#555555" r="3.3125"><title>2015-10-18</title></circle><circle cx="164.91666666666666" cy="176.51612903225805" fill="#546166" r="3.3125"><title>2015-10-19: 1 km</title></circle><circle cx="164.91666666666666" cy="185.35483870967738" fill="#546166" r="3.3125"><title>2015-10-20: 1 km</title></circle><circle cx="164.91666666666666" cy="194.19354838709674" fill="#555555" r="3.3125"><title>2015-10-21</title></circle><circle cx="164.91666666666666" cy="203.0322580645161" fill="#555555" r="3.3125"><title>2015-10-22</title></circle><circle cx="164.91666666666666" cy="211.87096774193546" fill="#555555" r="3.3125"><title>2015-10-23</title></circle><circle cx="164.91666666666666" cy="220.70967741935482" fill="#555555" r="3.3125"><title>2015-10-24</title></circle><circle cx="164.91666666666666" cy="229.54838709677418" fill="#555555" r="3.3125"><title>2015-10-25</title></circle><circle cx="164.91666666666666" cy="238.3870967741935" fill="#536970" r="3.3125"><title>2015-10-26: 1 km</title></circle><circle cx="164.91666666666666" cy="247.22580645161287" fill="#536e77" r="3.3125"><title>2015-10-27: 2 km</title></circle><circle cx="164.91666666666666" cy="256.06451612903226" fill="#53686f" r="3.3125"><title>2015-10-28: 1 km</title></circle><circle cx="164.91666666666666" cy="264.90322580645164" fill="#527a88" r="3.3125"><title>2015-10-29: 3 km</title></circle><circle cx="164.91666666666666" cy="273.741935483871" fill="#555555" r="3.3125"><title>2015-10-30</title></circle><circle cx="164.91666666666666" cy="282.5806451612903" fill="#555555" r="3.3125"><title>2015-10-31</title></circle><circle cx="173.75" cy="17.419354838709676" fill="#555555" r="3.3125"><title>2015-11-01</title></circle><circle cx="173.75" cy="26.25806451612903" fill="#555555" r="3.3125"><title>2015-11-02</title></circle><circle cx="173.75" cy="35.096774193548384" fill="#555555" r="3.3125"><title>2015-11-03</title></circle><circle cx="173.75" cy="43.935483870967744" fill="#555555" r="3.3125"><title>2015-11-04</title></circle><circle cx="173.75" cy="52.774193548387096" fill="#555555" r="3.3125"><title>2015-11-05</title></circle><circle cx="173.75" cy="61.61290322580645" fill="#555555" r="3.3125"><title>2015-11-06</title></circle><circle cx="173.75" cy="70.45161290322581" fill="#555555" r="3.3125"><title>2015-11-07</title></circle><circle cx="173.75" cy="79.29032258064517" fill="#555555" r="3.3125"><title>2015-11-08</title></circle><circle cx="173.75" cy="88.12903225806451" fill="#555555" r="3.3125"><title>2015-11-09</title></circle><circle cx="173.75" cy="96.96774193548387" fill="#555555" r="3.3125"><title>2015-11-10</title></circle><circle cx="173.75" cy="105.80645161290322" fill="#555555" r="3.3125"><title>2015-11-11</title></circle><circle cx="173.75" cy="114.64516129032258" fill="#53676e" r="3.3125"><title>2015-11-12: 1 km</title></circle><circle cx="173.75" cy="123.48387096774194" fill="#555555" r="3.3125"><title>2015-11-13</title></circle><circle cx="173.75" cy="132.32258064516128" fill="#555555" r="3.3125"><title>2015-11-14</title></circle><circle cx="173.75" cy="141.16129032258064" fill="#555555" r="3.3125"><title>2015-11-15</title></circle><circle cx="173.75" cy="149.99999999999997" fill="#555555" r="3.3125"><title>2015-11-16</title></circle><circle cx="173.75" cy="158.83870967741933" fill="#555555" r="3.3125"><title>2015-11-17</title></circle><circle cx="173.75" cy="167.6774193548387" fill="#53676e" r="3.3125"><title>2015-11-18: 1 km</title></circle><circle cx="173.75" cy="176.51612903225805" fill="#555555" r="3.3125"><title>2015-11-19</title></circle><circle cx="173.75" cy="185.35483870967738" fill="#555555" r="3.3125"><title>2015-11-20</title></circle><circle cx="173.75" cy="194.19354838709674" fill="#555555" r="3.3125"><title>2015-11-21</title></circle><circle cx="173.75" cy="203.0322580645161" fill="#555555" r="3.3125"><title>2015-11-22</title></circle><circle cx="173.75" cy="211.87096774193546" fill="#555555" r="3.3125"><title>2015-11-23</title></circle><circle cx="173.75" cy="220.70967741935482" fill="#555555" r="3.3125"><title>2015-11-24</title></circle><circle cx="173.75" cy="229.54838709677418" fill="#555555" r="3.3125"><title>2015-11-25</title></circle><circle cx="173.75" cy="238.3870967741935" fill="#555555" r="3.3125"><title>2015-11-26</title></circle><circle cx="173.75" cy="247.22580645161287" fill="#555555" r="3.3125"><title>2015-11-27</title></circle><circle cx="173.75" cy="256.06451612903226" fill="#555555" r="3.3125"><title>2015-11-28</title></circle><circle cx="173.75" cy="264.90322580645164" fill="#555555" r="3.3125"><title>2015-11-29</title></circle><circle cx="173.75" cy="273.741935483871" fill="#555555" r="3.3125"><title>2015-11-30</title></circle><circle cx="182.58333333333334" cy="17.419354838709676" fill="#555555" r="3.3125"><title>2015-12-01</title></circle><circle cx="182.58333333333334" cy="26.25806451612903" fill="#555555" r="3.3125"><title>2015-12-02</title></circle><circle cx="182.58333333333334" cy="35.096774193548384" fill="#555555" r="3.3125"><title>2015-12-03</title></circle><circle cx="182.58333333333334" cy="43.935483870967744" fill="#555555" r="3.3125"><title>2015-12-04</title></circle><circle cx="182.58333333333334" cy="52.774193548387096" fill="#555555" r="3.3125"><title>2015-12-05</title></circle><circle cx="182.58333333333334" cy="61.61290322580645" fill="#555555" r="3.3125"><title>2015-12-06</title></circle><circle cx="182.58333333333334" cy="70.45161290322581" fill="#555555" r="3.3125"><title>2015-12-07</title></circle><circle cx="182.58333333333334" cy="79.29032258064517" fill="#555555" r="3.3125"><title>2015-12-08</title></circle><circle cx="182.58333333333334" cy="88.12903225806451" fill="#555555" r="3.3125"><title>2015-12-09</title></circle><circle cx="182.58333333333334" cy="96.96774193548387" fill="#555555" r="3.3125"><title>2015-12-10</title></circle><circle cx="182.58333333333334" cy="105.80645161290322" fill="#555555" r="3.3125"><title>2015-12-11</title></circle><circle cx="182.58333333333334" cy="114.64516129032258" fill="#555555" r="3.3125"><title>2015-12-12</title></circle><circle cx="182.58333333333334" cy="123.48387096774194" fill="#555555" r="3.3125"><title>2015-12-13</title></circle><circle cx="182.58333333333334" cy="132.32258064516128" fill="#555555" r="3.3125"><title>2015-12-14</title></circle><circle cx="182.58333333333334" cy="141.16129032258064" fill="#555555" r="3.3125"><title>2015-12-15</title></circle><circle cx="182.58333333333334" cy="149.99999999999997" fill="#555555" r="3.3125"><title>2015-12-16</title></circle><circle cx="182.58333333333334" cy="158.83870967741933" fill="#555555" r="3.3125"><title>2015-12-17</title></circle><circle cx="182.58333333333334" cy="167.6774193548387" fill="#555555" r="3.3125"><title>2015-12-18</title></circle><circle cx="182.58333333333334" cy="176.51612903225805" fill="#555555" r="3.3125"><title>2015-12-19</title></circle><circle cx="182.58333333333334" cy="185.35483870967738" fill="#555555" r="3.3125"><title>2015-12-20</title></circle><circle cx="182.58333333333334" cy="194.19354838709674" fill="#555555" r="3.3125"><title>2015-12-21</title></circle><circle cx="182.58333333333334" cy="203.0322580645161" fill="#555555" r="3.3125"><title>2015-12-22</title></circle><circle cx="182.58333333333334" cy="211.87096774193546" fill="#555555" r="3.3125"><title>2015-12-23</title></circle><circle cx="182.58333333333334" cy="220.70967741935482" fill="#536e77" r="3.3125"><title>2015-12-24: 2 km</title></circle><circle cx="182.58333333333334" cy="229.54838709677418" fill="#555555" r="3.3125"><title>2015-12-25</title></circle><circle cx="182.58333333333334" cy="238.3870967741935" fill="#555555" r="3.3125"><title>2015-12-26</title></circle><circle cx="182.58333333333334" cy="247.22580645161287" fill="#555555" r="3.3125"><title>2015-12-27</title></circle><circle cx="182.58333333333334" cy="256.06451612903226" fill="#555555" r="3.3125"><title>2015-12-28</title></circle><circle cx="182.58333333333334" cy="264.90322580645164" fill="#555555" r="3.3125"><title>2015-12-29</title></circle><circle cx="182.58333333333334" cy="273.741935483871" fill="#555555" r="3.3125"><title>2015-12-30</title></circle><circle cx="182.58333333333334" cy="282.5806451612903" fill="#555555" r="3.3125"><title>2015-12-31</title></circle></svg>