<?xml version="1.0" encoding="utf-8" ?>
<svg baseProfile="full" height="200mm" version="1.1" viewBox="0,0,200,200" width="200mm" xmlns="http://www.w3.org/2000/svg" xmlns:ev="http://www.w3.org/2001/xml-events" xmlns:xlink="http://www.w3.org/1999/xlink"><defs /><rect fill="#1a1a1a" height="200" width="200" x="0" y="0" /><text alignment-baseline="middle" fill="#e1ed5e" style="dominant-baseline: central; font-size:9.0px; font-family:Arial;" text-anchor="middle" x="100.0" y="100.0">2020</text><line stroke="#e1ed5e" stroke-width="0.3" x1="100.0" x2="100.0" y1="15.0" y2="10.0" /><path d="M 100.0 14.0 a86.0,86.0 0 0,1 42.35913384403234,11.155469271406648" fill="none" id="id61" stroke="none" /><text fill="#e1ed5e" style="font-size:6.75px; font-family:Arial;" text-anchor="middle"><textPath startOffset="22.145653131862478" xlink:href="#id61">January</textPath></text><line stroke="#e1ed5e" stroke-width="0.3" x1="143.13028292997686" x2="145.6673583964461" y1="26.7553504044142" y2="22.446841604673864" /><path d="M 143.63769802327073 25.89364864446614 a86.0,86.0 0 0,1 29.32050498858742,28.57503671076993" fill="none" id="id62" stroke="none" /><text fill="#e1ed5e" style="font-size:6.75px; font-family:Arial;" text-anchor="middle"><textPath startOffset="20.669276256404974" xlink:href="#id62">February</textPath></text><line stroke="#e1ed5e" stroke-width="0.3" x1="172.87174338648825" x2="177.1583165268699" y1="56.24261187166439" y2="53.66864786411523" /><path d="M 173.72905801456457 55.72781907015455 a86.0,86.0 0 0,1 12.242430191666344,42.057860355516425" fill="none" id="id63" stroke="none" /><text fill="#e1ed5e" style="font-size:6.75px; font-family:Arial;" text-anchor="middle"><textPath startOffset="22.145653131862474" xlink:href="#id63">March</textPath></text><line stroke="#e1ed5e" stroke-width="0.3" x1="184.99686870605535" x2="189.99668451229388" y1="99.2704041080226" y2="99.22748670261217" /><path d="M 185.99683186730306 99.26182062694052 a86.0,86.0 0 0,1 -10.086455211305974,41.156179273409016" fill="none" id="id64" stroke="none" /><text fill="#e1ed5e" style="font-size:6.75px; font-family:Arial;" text-anchor="middle"><textPath startOffset="21.40746469413373" xlink:href="#id64">April</textPath></text><line stroke="#e1ed5e" stroke-width="0.3" x1="174.33088141563837" x2="178.70328620479359" y1="141.23008692659167" y2="143.65538615756765" /><path d="M 175.20536237346943 141.71514677278685 a86.0,86.0 0 0,1 -30.301960400862466,31.631185727798858" fill="none" id="id65" stroke="none" /><text fill="#e1ed5e" style="font-size:6.75px; font-family:Arial;" text-anchor="middle"><textPath startOffset="22.145653131862474" xlink:href="#id65">May</textPath></text><path d="M 112.7482090630111 116.68781488649013 l 28.710516745729525 37.5829880401289 a68.29455319411832,68.29455319411832 0 0,0 -0.9377395374856521,0.703697231081562 l -28.061124219333106 -38.07030429847448" fill="#74ff27" stroke="none" /><line stroke="#e1ed5e" stroke-width="0.3" x1="143.1302829299769" x2="145.66735839644613" y1="173.24464959558577" y2="177.55315839532614" /><path d="M 143.63769802327073 174.10635135553383 a86.0,86.0 0 0,1 -40.68552437913181,11.842963189579606" fill="none" id="id66" stroke="none" /><text fill="#e1ed5e" style="font-size:6.75px; font-family:Arial;" text-anchor="middle"><textPath startOffset="21.407464694133747" xlink:href="#id66">June</textPath></text><line stroke="#e1ed5e" stroke-width="0.3" x1="101.45913802915013" x2="101.54496967792366" y1="184.9874750549273" y2="189.98673829345242" /><path d="M 101.47630435890484 185.9873277026323 a86.0,86.0 0 0,1 -42.54439059252881,-10.42667462771756" fill="none" id="id67" stroke="none" /><text fill="#e1ed5e" style="font-size:6.75px; font-family:Arial;" text-anchor="middle"><textPath startOffset="22.145653131862474" xlink:href="#id67">July</textPath></text><path d="M 90.28995756902619 118.62028667847754 l -14.45056230184872 27.710858591854606 a52.25236686616509,52.25236686616509 0 0,0 -0.7917755970684481,-0.42157590850108895 l 14.924126714703728 -27.458712215630943" fill="#ff0000" stroke="none" /><line stroke="#e1ed5e" stroke-width="0.3" x1="58.13341422392154" x2="55.67067388415222" y1="173.97424548756322" y2="178.32567169271397" /><path d="M 57.64086615596768 174.84453072859336 a86.0,86.0 0 0,1 -31.369924170532247,-30.572349798747897" fill="none" id="id68" stroke="none" /><text fill="#e1ed5e" style="font-size:6.75px; font-family:Arial;" text-anchor="middle"><textPath startOffset="22.145653131862474" xlink:href="#id68">August</textPath></text><line stroke="#e1ed5e" stroke-width="0.3" x1="26.387840678322732" x2="22.057713659400548" y1="142.50000000000003" y2="145.00000000000006" /><path d="M 25.521815274538298 143.00000000000003 a86.0,86.0 0 0,1 -11.493303480769221,-40.785679425670985" fill="none" id="id69" stroke="none" /><text fill="#e1ed5e" style="font-size:6.75px; font-family:Arial;" text-anchor="middle"><textPath startOffset="21.40746469413373" xlink:href="#id69">September</textPath></text><line stroke="#e1ed5e" stroke-width="0.3" x1="15.003131293944662" x2="10.003315487706104" y1="100.72959589197737" y2="100.7725132973878" /><path d="M 14.003168132696942 100.73817937305945 a86.0,86.0 0 0,1 10.791469493833604,-42.45332614584628" fill="none" id="id70" stroke="none" /><text fill="#e1ed5e" style="font-size:6.75px; font-family:Arial;" text-anchor="middle"><textPath startOffset="22.145653131862435" xlink:href="#id70">October</textPath></text><line stroke="#e1ed5e" stroke-width="0.3" x1="26.387840678322718" x2="22.05771365940052" y1="57.49999999999999" y2="54.99999999999999" /><path d="M 25.521815274538284 56.99999999999999 a86.0,86.0 0 0,1 29.574782752854787,-30.34633250058573" fill="none" id="id71" stroke="none" /><text fill="#e1ed5e" style="font-size:6.75px; font-family:Arial;" text-anchor="middle"><textPath startOffset="21.40746469413373" xlink:href="#id71">November</textPath></text><path d="M 85.86807049272753 84.46653392183569 l -36.05793325213284 -39.63398506428163 a74.58196825883654,74.58196825883654 0 0,0 0.9544182494998606,-0.8534466839377488 l 35.37224997580959 40.24712727810278" fill="#36ff70" stroke="none" /><path d="M 86.13680546590413 84.22622945171909 l -33.38885033923617 -37.990382579331715 a71.57750977954433,71.57750977954433 0 0,0 0.9298958788254799,-0.8032219125292465 l 32.73177498064784 38.557948624325675" fill="#33ff2f" stroke="none" /><path d="M 86.68645165197937 83.75963576809568 l -30.87600005584241 -37.6636997007435 a69.70196766657551,69.70196766657551 0 0,0 0.9318463679578409,-0.750629472083495 l 30.224902917529324 38.188177466620395" fill="#57ff2a" stroke="none" /><path d="M 86.96720088162412 83.53348406188908 l -39.09839735512763 -49.399547814332756 a84.0,84.0 0 0,0 1.1383602214590214,-0.8851957935167807 l 38.244627189033366 50.06344465947034" fill="#4dd2ff" stroke="none" /><path d="M 87.25179093698888 83.31218511350988 l -31.415679737531633 -41.12413323329642 a72.7507417102506,72.7507417102506 0 0,0 0.9989266155560295,-0.7496131551680689 l 30.70510013306485 41.657365415728485" fill="#32ff46" stroke="none" /><path d="M 87.83215693770416 82.88440491214696 l -35.687403980834425 -50.19880295508578 a82.59148172446257,82.59148172446257 0 0,0 1.162592734523018,-0.8115800201989993 l 34.82041615513764 50.80402779108991" fill="#4aebff" stroke="none" /><path d="M 88.4268655584334 82.4767994020092 l -34.15703483206027 -51.718104219458944 a82.97955576295618,82.97955576295618 0 0,0 1.1953575165344545,-0.774816300317836 l 33.264191683268784 52.296834361480684" fill="#4be4ff" stroke="none" /><path d="M 89.03521579738668 82.08984904055464 l -26.597161322644112 -43.44446416626631 a71.93947837499667,71.93947837499667 0 0,0 1.0587683940979185,-0.6357599997689564 l 25.847460171988757 43.89463816657119" fill="#30ff33" stroke="none" /><line stroke="#e1ed5e" stroke-width="0.3" x1="56.869717070023135" x2="54.33264160355391" y1="26.7553504044142" y2="22.446841604673864" /><path d="M 56.362301976729285 25.89364864446614 a86.0,86.0 0 0,1 42.16139366436587,-11.88097634709845" fill="none" id="id72" stroke="none" /><text fill="#e1ed5e" style="font-size:6.75px; font-family:Arial;" text-anchor="middle"><textPath startOffset="22.145653131862474" xlink:href="#id72">December</textPath></text><path d="M 89.65649057296885 81.72400993836675 l -30.302006214800443 -53.54074149939614 a82.52091173696115,82.52091173696115 0 0,0 1.238818905892109,-0.6871519643448132 l 29.37844312075223 54.0530263791741" fill="#49edff" stroke="none" /><path d="M 89.97174638481275 81.54914285379989 l -24.39575949152579 -44.88544971275068 a72.08675637662114,72.08675637662114 0 0,0 1.0923243863195347,-0.581601210299408 l 23.621646289419694 45.29762139077266" fill="#30ff37" stroke="none" /><path d="M 90.28995756902619 81.37971332152246 l -23.145654796159388 -44.38484494061511 a71.05732510178129,71.05732510178129 0 0,0 1.0864082280014344,-0.5547277821826371 l 22.380319346444374 44.775630674470584" fill="#3dff2e" stroke="none" /><path d="M 91.26138138417902 80.90454125486306 l -21.251683823981494 -46.43876447369223 a72.07047005068131,72.07047005068131 0 0,0 1.1294012258845119,-0.5051668029345047 l 20.451369195241362 46.796735027536585" fill="#30ff36" stroke="none" /></svg>