<?xml version="1.0" encoding="utf-8" ?>
<svg baseProfile="full" height="200mm" version="1.1" viewBox="0,0,200,200" width="200mm" xmlns="http://www.w3.org/2000/svg" xmlns:ev="http://www.w3.org/2001/xml-events" xmlns:xlink="http://www.w3.org/1999/xlink"><defs /><rect fill="#1a1a1a" height="200" width="200" x="0" y="0" /><text alignment-baseline="middle" fill="#e1ed5e" style="dominant-baseline: central; font-size:9.0px; font-family:Arial;" text-anchor="middle" x="100.0" y="100.0">2018</text><line stroke="#e1ed5e" stroke-width="0.3" x1="100.0" x2="100.0" y1="15.0" y2="10.0" /><path d="M 100.0 14.0 a86.0,86.0 0 0,1 42.46469731375804,11.215312516191453" fill="none" id="id73" stroke="none" /><text fill="#e1ed5e" style="font-size:6.75px; font-family:Arial;" text-anchor="middle"><textPath startOffset="22.20632615414155" xlink:href="#id73">January</textPath></text><path d="M 106.74666289553966 80.11325718540242 l 2.3043302637598293 -6.792339268289472 a28.172573506073437,28.172573506073437 0 0,0 0.4578955394987189,0.15975076271649982 l -2.420907807321822 6.751667652400765" fill="#ff6109" stroke="none" /><line stroke="#e1ed5e" stroke-width="0.3" x1="143.23703022742887" x2="145.7803849466894" y1="26.81831364943548" y2="22.513508569990506" /><path d="M 143.74570117128098 25.957352633546492 a86.0,86.0 0 0,1 28.547481713284135,27.462654790039103" fill="none" id="id74" stroke="none" /><text fill="#e1ed5e" style="font-size:6.75px; font-family:Arial;" text-anchor="middle"><textPath startOffset="19.985693538727396" xlink:href="#id74">February</textPath></text><path d="M 114.16331599549186 84.49514656593476 l 0.3336785532479545 -0.36528430657391403 a21.494746401226763,21.494746401226763 0 0,0 0.2710304469939969,0.2518932625157396 l -0.3399168840367982 0.35948645798353396" fill="#ff0400" stroke="none" /><path d="M 114.68862486808459 84.99185889309783 l 0.14994521872152425 -0.15320692175668588 a21.21437334137342,21.21437334137342 0 0,0 0.25877918914021936,0.25766790906229575 l -0.15256020802906614 0.15060316204427146" fill="#ff0000" stroke="none" /><path d="M 114.94478906791727 85.2469230424477 l 0.29141559755482366 -0.2876773113236424 a21.409489054736063,21.409489054736063 0 0,0 0.2566444519492481,0.26449466741792726 l -0.29632431320718083 0.28261844835560074" fill="#ff0300" stroke="none" /><path d="M 115.4437574822437 85.77008943001954 l 0.2963287703358565 -0.2730379511617988 a21.402939775777217,21.402939775777217 0 0,0 0.24731235457639722,0.273088478912248 l -0.30098476552828934 0.26789668498000174" fill="#ff0300" stroke="none" /><path d="M 115.68641384162765 86.03803664274999 l 0.27955603179573874 -0.24882367070237416 a21.37425231330639,21.37425231330639 0 0,0 0.2422498076431867,0.276933407249706 l -0.28379770301677365 0.2439747072497204" fill="#ff0200" stroke="none" /><line stroke="#e1ed5e" stroke-width="0.3" x1="172.23445277983987" x2="176.4835382374775" y1="55.19839476539836" y2="52.563006222186495" /><path d="M 173.08426987136738 54.67131705675599 a86.0,86.0 0 0,1 12.851231095245387,41.99856678651699" fill="none" id="id75" stroke="none" /><text fill="#e1ed5e" style="font-size:6.75px; font-family:Arial;" text-anchor="middle"><textPath startOffset="22.20632615414155" xlink:href="#id75">March</textPath></text><path d="M 119.47837535516314 92.15188598940014 l 8.579855708896558 -3.456945693372087 a30.25010256766965,30.25010256766965 0 0,0 0.1904408893421935,0.48465129099509724 l -8.638090148120451 3.3087453974812053" fill="#ff7d0b" stroke="none" /><path d="M 120.28053869075195 94.5502522615342 l 1.3226008277895758 -0.3554067759268175 a22.369520692083317,22.369520692083317 0 0,0 0.09672545395925383,0.3727226309009003 l -1.3285226136191324 0.33258771947706683" fill="#ff1101" stroke="none" /><line stroke="#e1ed5e" stroke-width="0.3" x1="184.98032266829074" x2="189.97916517819016" y1="98.17113171792111" y2="98.06355123074" /><path d="M 185.9800911702706 98.14961562048488 a86.0,86.0 0 0,1 -9.607161424134198,41.387399972396054" fill="none" id="id76" stroke="none" /><text fill="#e1ed5e" style="font-size:6.75px; font-family:Arial;" text-anchor="middle"><textPath startOffset="21.466115282336823" xlink:href="#id76">April</textPath></text><path d="M 120.95626037817324 101.35467743843564 l 62.86878113451971 4.064032315306923 a84.0,84.0 0 0,0 -0.10569376534264929,1.4421074540129188 l -62.789510810512716 -5.145612905816612" fill="#4dd2ff" stroke="none" /><path d="M 119.79798401119884 107.00284435728193 l 1.8933307059509725 0.6696995129977635 a23.0082825,23.0082825 0 0,0 -0.13528403260419092,0.37224355554668004 l -1.8815224123415548 -0.7021908655505746" fill="#ff1a02" stroke="none" /><path d="M 118.81262510543309 109.33194174019688 l 2.531048172248366 1.255518246532867 a23.825337310414238,23.825337310414238 0 0,0 -0.1854080150504157,0.3658276033574156 l -2.5090614874116812 -1.2989000615929769" fill="#ff2503" stroke="none" /><line stroke="#e1ed5e" stroke-width="0.3" x1="174.80103733775053" x2="179.2010983576182" y1="140.37084112569926" y2="142.7455964860345" /><path d="M 175.68104954172406 140.8457921977663 a86.0,86.0 0 0,1 -30.038265399797805,32.042727171017184" fill="none" id="id77" stroke="none" /><text fill="#e1ed5e" style="font-size:6.75px; font-family:Arial;" text-anchor="middle"><textPath startOffset="22.206326154141568" xlink:href="#id77">May</textPath></text><path d="M 117.55443506779139 111.5257021239791 l 4.145789874942738 2.7219981151583945 a25.959520886749402,25.959520886749402 0 0,0 -0.24846586110772165,0.3714227500653111 l -4.098320908424296 -2.7929577794295124" fill="#ff4306" stroke="none" /><path d="M 116.27256486870786 113.27417163493432 l 6.533650854441498 5.329756159790842 a29.43177882837142,29.43177882837142 0 0,0 -0.323615021986642,0.38981514115375104 l -6.4409398325613125 -5.441432558058363" fill="#ff720a" stroke="none" /><path d="M 116.0416608686014 113.55231037782055 l 2.836723397393837 2.396519677881624 a24.71353015334405,24.71353015334405 0 0,0 -0.2773299283611403,0.322597360742558 l -2.795050959461918 -2.44499413778571" fill="#ff3204" stroke="none" /><path d="M 114.29624159901734 115.38237550388516 l 3.121703283049992 3.3588696566856213 a25.585524698222493,25.585524698222493 0 0,0 -0.3251803842420125,0.29704457105258464 l -3.0634233493411154 -3.4121069943247893" fill="#ff3e05" stroke="none" /><path d="M 112.34349029814194 116.9893568818739 l 1.040326845559714 1.4318870616091968 a22.769909744251397,22.769909744251397 0 0,0 -0.3190743897657419,0.22765110514737172 l -1.0155251279450876 -1.4495824286007877" fill="#ff1602" stroke="none" /><line stroke="#e1ed5e" stroke-width="0.3" x1="143.8653032363475" x2="146.44561519142675" y1="172.8068346515853" y2="177.08958963109032" /><path d="M 144.38136562736335 173.6633856474863 a86.0,86.0 0 0,1 -40.68145358897372,12.25698825130547" fill="none" id="id78" stroke="none" /><text fill="#e1ed5e" style="font-size:6.75px; font-family:Arial;" text-anchor="middle"><textPath startOffset="21.466115282336833" xlink:href="#id78">June</textPath></text><path d="M 110.5260780823613 118.17145234162733 l 2.314483414990692 3.9955551100714946 a25.61749868607295,25.61749868607295 0 0,0 -0.38347106192198066,0.21774487693925174 l -2.245363586147512 -4.034803152805375" fill="#ff3e05" stroke="none" /><path d="M 107.93186726928326 119.44442032107085 l 1.6987184727673756 4.164290055579951 a25.497438839686783,25.497438839686783 0 0,0 -0.40781201529344396,0.16227681716606665 l -1.6267853814320654 -4.192913717152087" fill="#ff3d05" stroke="none" /><path d="M 105.18746579009965 120.34920634021253 l 1.143166546649285 4.484373079315787 a25.627789069077178,25.627789069077178 0 0,0 -0.4284071986663516,0.10529206633683032 l -1.0658060632397224 -4.503386403966648" fill="#ff3e05" stroke="none" /><path d="M 103.06178313531738 120.77559828337769 l 0.08014753939927921 0.543837694692903 a21.549711802893707,21.549711802893707 0 0,0 -0.3674445554657113,0.050924467225132906 l -0.07077439274673744 -0.5451367274106385" fill="#ff0500" stroke="none" /><line stroke="#e1ed5e" stroke-width="0.3" x1="102.19456741930631" x2="102.32365962044197" y1="184.97166512339345" y2="189.96999836594603" /><path d="M 102.22038585953345 185.97133177190398 a86.0,86.0 0 0,1 -42.740103519485714,-10.115201625700543" fill="none" id="id79" stroke="none" /><text fill="#e1ed5e" style="font-size:6.75px; font-family:Arial;" text-anchor="middle"><textPath startOffset="22.20632615414155" xlink:href="#id79">July</textPath></text><path d="M 100.54218724476979 120.99299961872073 l 0.0295174600664454 1.1428893503084752 a22.14327046121961,22.14327046121961 0 0,0 -0.3811176448711306,0.0065612858837453235 l -0.009840125302646887 -1.1432281134713802" fill="#ff0d01" stroke="none" /><path d="M 98.01472825383883 120.90594882070398 l -0.4762042865141675 5.0146799607235195 a26.037239882214912,26.037239882214912 0 0,0 -0.44581632076215727,-0.04621068447995256 l 0.5624532038819181 -5.005739907787806" fill="#ff4406" stroke="none" /><path d="M 96.58105272829116 120.7198165907248 l -0.15398995047447947 0.9332239654726452 a21.945843472557495,21.945843472557495 0 0,0 -0.3721921297459405,-0.06471037254172657 l 0.17003105169246996 -0.9304350144099125" fill="#ff0b01" stroke="none" /><path d="M 93.08242187328487 119.8279376855182 l -0.33238071705861694 0.9527068614164872 a22.009022945657062,22.009022945657062 0 0,0 -0.35663047609802917,-0.12787500042417188 l 0.34873075378637275 -0.9468443199523575" fill="#ff0b01" stroke="none" /><path d="M 91.07499286063937 119.00905698771935 l -0.22638084676428769 0.4821605573952273 a21.532660389825818,21.532660389825818 0 0,0 -0.33415339263320015,-0.16041393493216738 l 0.2346469073977299 -0.4781923459634975" fill="#ff0500" stroke="none" /><path d="M 90.7491055286396 118.85261126421891 l -2.681339565929168 5.464363760750846 a27.086776912095953,27.086776912095953 0 0,0 -0.41680886250536336,-0.20899661647023687 l 2.7750023361172915 -5.417399303371306" fill="#ff5307" stroke="none" /><line stroke="#e1ed5e" stroke-width="0.3" x1="58.666819895761336" x2="56.23545636021788" y1="174.27360380694188" y2="178.64263932499728" /><path d="M 58.180547188652646 175.14741091055294 a86.0,86.0 0 0,1 -31.652253787137756,-30.449443065178592" fill="none" id="id80" stroke="none" /><text fill="#e1ed5e" style="font-size:6.75px; font-family:Arial;" text-anchor="middle"><textPath startOffset="22.20632615414155" xlink:href="#id80">August</textPath></text><path d="M 86.51685102203217 116.09983520530335 l -2.7614465479150168 3.2973628358133262 a25.300952069948544,25.300952069948544 0 0,0 -0.33148406618628695,-0.2824979125971934 l 2.8177960906783603 -3.2493405329931813" fill="#ff3a05" stroke="none" /><path d="M 83.06392112726016 112.41649034213515 l -1.027648916678939 0.7534089174317522 a22.27423988825381,22.27423988825381 0 0,0 -0.22403664637488074,-0.3111673070158792 l 1.0404653554294272 -0.7356080049647348" fill="#ff0f01" stroke="none" /><line stroke="#e1ed5e" stroke-width="0.3" x1="26.63291911575756" x2="22.317208475507996" y1="142.92168965132927" y2="145.44649492493687" /><path d="M 25.769776987707644 143.4266507060508 a86.0,86.0 0 0,1 -11.730757126820373,-40.83630448921669" fill="none" id="id81" stroke="none" /><text fill="#e1ed5e" style="font-size:6.75px; font-family:Arial;" text-anchor="middle"><textPath startOffset="21.46611528233685" xlink:href="#id81">September</textPath></text><path d="M 81.02952815118164 109.00673069616217 l -0.5748511799361986 0.27292572421591604 a21.63635079163369,21.63635079163369 0 0,0 -0.1568381804497313,-0.337815487709169 l 0.5794639772257566 -0.2629901692279199" fill="#ff0601" stroke="none" /><path d="M 80.58989483394504 108.01547362559985 l -4.555579990898415 1.8812433499956265 a25.92873062718757,25.92873062718757 0 0,0 -0.16680493920749725,-0.413996179539505 l 4.5872875443633 -1.8025478026133162" fill="#ff4306" stroke="none" /><path d="M 79.58551787078972 104.9243191809786 l -0.591411423745615 0.14265846174139787 a21.60837398764513,21.60837398764513 0 0,0 -0.08410744099576314,-0.3623326545135058 l 0.5937794306719333 -0.13245714987931778" fill="#ff0600" stroke="none" /><path d="M 79.50377843672027 104.57218783832718 l -0.5765471528811474 0.12861306521725197 a21.590718156179353,21.590718156179353 0 0,0 -0.0777944020912848,-0.3634295474804727 l 0.578675593696873 -0.11866969832061551" fill="#ff0500" stroke="none" /><line stroke="#e1ed5e" stroke-width="0.3" x1="15.007084014347285" x2="10.007500721073583" y1="101.09737516637583" y2="101.16192664675087" /><path d="M 14.007167355692545 101.11028546245083 a86.0,86.0 0 0,1 10.666146001902534,-42.60595125391555" fill="none" id="id82" stroke="none" /><text fill="#e1ed5e" style="font-size:6.75px; font-family:Arial;" text-anchor="middle"><textPath startOffset="22.20632615414155" xlink:href="#id82">October</textPath></text><path d="M 79.00175016825051 100.2711162175752 l -0.2935604703030172 0.0037902684736045487 a21.293584938066704,21.293584938066704 0 0,0 -0.0015774518002070563,-0.3665442442940996 l 0.2935822193927273 0.0012634540241704328" fill="#ff0100" stroke="none" /><path d="M 79.00019446554 99.90962569577889 l -0.7272335282598154 -0.0031297063210848092 a21.7272402626965,21.7272402626965 0 0,0 0.004828613126556603,-0.3739814079701643 l 0.7270719080155432 0.015647372351721124" fill="#ff0701" stroke="none" /><path d="M 79.01574976396665 99.18683210126434 l -1.0535742826991845 -0.04082741942112712 a22.05436504463193,22.05436504463193 0 0,0 0.01796526707690016,-0.37921839371896826 l 1.0527154073887854 0.0589569197631045" fill="#ff0c01" stroke="none" /><line stroke="#e1ed5e" stroke-width="0.3" x1="26.266209847984243" x2="21.928928074336255" y1="57.711370442889674" y2="55.22380399835377" /><path d="M 25.398753493254645 57.213857153982495 a86.0,86.0 0 0,1 29.58750427330803,-30.492523968695096" fill="none" id="id83" stroke="none" /><text fill="#e1ed5e" style="font-size:6.75px; font-family:Arial;" text-anchor="middle"><textPath startOffset="21.46611528233685" xlink:href="#id83">November</textPath></text><path d="M 82.34701348167596 88.62581576622439 l -1.7551861137815683 -1.1309027060091772 a23.08797012058854,23.08797012058854 0 0,0 0.21813004546097953,-0.3322270242792963 l 1.7354594329626685 1.1609477942661406" fill="#ff1b02" stroke="none" /><path d="M 83.84228863543731 86.58626213691792 l -4.3102851634631945 -3.5782936081301884 a26.60203028699027,26.60203028699027 0 0,0 0.29552244407851913,-0.3498053612117888 l 4.248052105897551 3.651957918971093" fill="#ff4c07" stroke="none" /><path d="M 85.57189188830299 84.74124197986013 l -1.8586381673461592 -1.9656430228395023 a23.705233507546716,23.705233507546716 0 0,0 0.2989028069333514,-0.2777975834398497 l 1.8245274766179516 1.9973451923539995" fill="#ff2403" stroke="none" /><line stroke="#e1ed5e" stroke-width="0.3" x1="56.762969772571076" x2="54.21961505331055" y1="26.818313649435495" y2="22.513508569990535" /><path d="M 56.25429882871897 25.957352633546506 a86.0,86.0 0 0,1 42.265352541879196,-11.944610805530505" fill="none" id="id84" stroke="none" /><text fill="#e1ed5e" style="font-size:6.75px; font-family:Arial;" text-anchor="middle"><textPath startOffset="22.20632615414155" xlink:href="#id84">December</textPath></text><path d="M 96.40284397218896 79.31037775812273 l -0.22433241010476812 -1.2902839870701777 a22.30964033135557,22.30964033135557 0 0,0 0.378914148940025,-0.06252408123681398 l 0.20208905502585744 1.2939543312466186" fill="#ff1001" stroke="none" /></svg>