<?xml version="1.0" encoding="utf-8" ?>
<svg baseProfile="full" height="300mm" version="1.1" viewBox="0,0,200,300" width="200mm" xmlns="http://www.w3.org/2000/svg" xmlns:ev="http://www.w3.org/2001/xml-events" xmlns:xlink="http://www.w3.org/1999/xlink"><defs /><rect fill="#222222" height="300" width="200" x="0" y="0" /><text fill="#555555" style="font-size:6px; font-family:Arial;" x="11" y="19">Running for 4839 Days</text><text fill="#555555" style="font-size:6px; font-family:Arial;" x="11" y="39">Races</text><text fill="#555555" style="font-size:8px; font-family:Arial;" x="11" y="59">1</text><text fill="#FFFFFF" style="font-size:10px; font-family:Arial; font-weight:bold;" x="23" y="59">Half</text><text fill="#555555" style="font-size:6px; font-family:Arial;" x="49" y="59">1x</text><text fill="#555555" style="font-size:8px; font-family:Arial;" x="11" y="77">2</text><text fill="#FFFFFF" style="font-size:10px; font-family:Arial; font-weight:bold;" x="23" y="77">10K</text><text fill="#555555" style="font-size:6px; font-family:Arial;" x="49" y="77">17x</text><text fill="#555555" style="font-size:6px; font-family:Arial;" x="11" y="115">Stats</text><text fill="#555555" style="font-size:5px; font-family:Arial;" x="11" y="121">Distance</text><text fill="#FFFFFF" style="font-size:10px; font-family:Arial; font-weight:bold;" x="11" y="132">819</text><text fill="#555555" style="font-size:6px; font-family:Arial;" x="29" y="132">km</text><text fill="#555555" style="font-size:5px; font-family:Arial;" x="53" y="121">Runs</text><text fill="#FFFFFF" style="font-size:10px; font-family:Arial; font-weight:bold;" x="53" y="132">151</text><text fill="#555555" style="font-size:5px; font-family:Arial;" x="11" y="149">Avg Pace</text><text fill="#FFFFFF" style="font-size:10px; font-family:Arial; font-weight:bold;" x="11" y="160">5'29"</text><text fill="#555555" style="font-size:5px; font-family:Arial;" x="53" y="149">Streak</text><text fill="#FFFFFF" style="font-size:10px; font-family:Arial; font-weight:bold;" x="53" y="160">31</text><text fill="#555555" style="font-size:6px; font-family:Arial;" x="65" y="160">d</text><text fill="#555555" style="font-size:5px; font-family:Arial;" x="11" y="177">Time</text><text fill="#FFFFFF" style="font-size:10px; font-family:Arial; font-weight:bold;" x="11" y="188">74</text><text fill="#555555" style="font-size:6px; font-family:Arial;" x="23" y="188">h</text><text fill="#555555" style="font-size:5px; font-family:Arial;" x="53" y="177">Longest</text><text fill="#FFFFFF" style="font-size:10px; font-family:Arial; font-weight:bold;" x="53" y="188">41.4</text><text fill="#555555" style="font-size:5px; font-family:Arial;" x="11" y="252.0645161290322">Runner</text><text fill="#FFFFFF" style="font-size:8px; font-family:Arial; font-weight:bold;" x="11" y="262.0645161290322">yihong0618</text><text fill="#555555" style="font-size:7px; font-family:Arial;" x="11" y="285.5806451612903">running_page/2014</text><circle cx="85.41666666666667" cy="17.419354838709676" fill="#5193a9" r="3.3125"><title>2014-01-01: 4 km</title></circle><circle cx="85.41666666666667" cy="26.25806451612903" fill="#5093aa" r="3.3125"><title>2014-01-02: 5 km</title></circle><circle cx="85.41666666666667" cy="35.096774193548384" fill="#555555" r="3.3125"><title>2014-01-03</title></circle><circle cx="85.41666666666667" cy="43.935483870967744" fill="#518799" r="3.3125"><title>2014-01-04: 4 km</title></circle><circle cx="85.41666666666667" cy="52.774193548387096" fill="#4fafd0" r="3.3125"><title>2014-01-05: 7 km</title></circle><circle cx="85.41666666666667" cy="61.61290322580645" fill="#53747f" r="3.3125"><title>2014-01-06: 2 km</title></circle><circle cx="85.41666666666667" cy="70.45161290322581" fill="#555555" r="3.3125"><title>2014-01-07</title></circle><circle cx="85.41666666666667" cy="79.29032258064517" fill="#555555" r="3.3125"><title>2014-01-08</title></circle><circle cx="85.41666666666667" cy="88.12903225806451" fill="#555555" r="3.3125"><title>2014-01-09</title></circle><circle cx="85.41666666666667" cy="96.96774193548387" fill="#555555" r="3.3125"><title>2014-01-10</title></circle><circle cx="85.41666666666667" cy="105.80645161290322" fill="#555555" r="3.3125"><title>2014-01-11</title></circle><circle cx="85.41666666666667" cy="114.64516129032258" fill="#555555" r="3.3125"><title>2014-01-12</title></circle><circle cx="85.41666666666667" cy="123.48387096774194" fill="#555555" r="3.3125"><title>2014-01-13</title></circle><circle cx="85.41666666666667" cy="132.32258064516128" fill="#5093aa" r="3.3125"><title>2014-01-14: 5 km</title></circle><circle cx="85.41666666666667" cy="141.16129032258064" fill="#555555" r="3.3125"><title>2014-01-15</title></circle><circle cx="85.41666666666667" cy="149.99999999999997" fill="#527a88" r="3.3125"><title>2014-01-16: 3 km</title></circle><circle cx="85.41666666666667" cy="158.83870967741933" fill="#555555" r="3.3125"><title>2014-01-17</title></circle><circle cx="85.41666666666667" cy="167.6774193548387" fill="#555555" r="3.3125"><title>2014-01-18</title></circle><circle cx="85.41666666666667" cy="176.51612903225805" fill="#555555" r="3.3125"><title>2014-01-19</title></circle><circle cx="85.41666666666667" cy="185.35483870967738" fill="#5093aa" r="3.3125"><title>2014-01-20: 5 km</title></circle><circle cx="85.41666666666667" cy="194.19354838709674" fill="#4fadcc" r="3.3125"><title>2014-01-21: 7 km</title></circle><circle cx="85.41666666666667" cy="203.0322580645161" fill="#555555" r="3.3125"><title>2014-01-22</title></circle><circle cx="85.41666666666667" cy="211.87096774193546" fill="#555555" r="3.3125"><title>2014-01-23</title></circle><circle cx="85.41666666666667" cy="220.70967741935482" fill="#555555" r="3.3125"><title>2014-01-24</title></circle><circle cx="85.41666666666667" cy="229.54838709677418" fill="#555555" r="3.3125"><title>2014-01-25</title></circle><circle cx="85.41666666666667" cy="238.3870967741935" fill="#555555" r="3.3125"><title>2014-01-26</title></circle><circle cx="85.41666666666667" cy="247.22580645161287" fill="#555555" r="3.3125"><title>2014-01-27</title></circle><circle cx="85.41666666666667" cy="256.06451612903226" fill="#555555" r="3.3125"><title>2014-01-28</title></circle><circle cx="85.41666666666667" cy="264.90322580645164" fill="#555555" r="3.3125"><title>2014-01-29</title></circle><circle cx="85.41666666666667" cy="273.741935483871" fill="#555555" r="3.3125"><title>2014-01-30</title></circle><circle cx="85.41666666666667" cy="282.5806451612903" fill="#555555" r="3.3125"><title>2014-01-31</title></circle><circle cx="94.25" cy="17.419354838709676" fill="#555555" r="3.3125"><title>2014-02-01</title></circle><circle cx="94.25" cy="26.25806451612903" fill="#536e77" r="3.3125"><title>2014-02-02: 2 km</title></circle><circle cx="94.25" cy="35.096774193548384" fill="#555555" r="3.3125"><title>2014-02-03</title></circle><circle cx="94.25" cy="43.935483870967744" fill="#555555" r="3.3125"><title>2014-02-04</title></circle><circle cx="94.25" cy="52.774193548387096" fill="#555555" r="3.3125"><title>2014-02-05</title></circle><circle cx="94.25" cy="61.61290322580645" fill="#555555" r="3.3125"><title>2014-02-06</title></circle><circle cx="94.25" cy="70.45161290322581" fill="#555555" r="3.3125"><title>2014-02-07</title></circle><circle cx="94.25" cy="79.29032258064517" fill="#555555" r="3.3125"><title>2014-02-08</title></circle><circle cx="94.25" cy="88.12903225806451" fill="#555555" r="3.3125"><title>2014-02-09</title></circle><circle cx="94.25" cy="96.96774193548387" fill="#555555" r="3.3125"><title>2014-02-10</title></circle><circle cx="94.25" cy="105.80645161290322" fill="#518799" r="3.3125"><title>2014-02-11: 4 km</title></circle><circle cx="94.25" cy="114.64516129032258" fill="#5095ad" r="3.3125"><title>2014-02-12: 5 km</title></circle><circle cx="94.25" cy="123.48387096774194" fill="#4eb3d5" r="3.3125"><title>2014-02-13: 7 km</title></circle><circle cx="94.25" cy="132.32258064516128" fill="#518698" r="3.3125"><title>2014-02-14: 3 km</title></circle><circle cx="94.25" cy="141.16129032258064" fill="#FFFF00" r="3.3125"><title>2014-02-15: 10 km</title></circle><circle cx="94.25" cy="149.99999999999997" fill="#4dc5ed" r="3.3125"><title>2014-02-16: 8 km</title></circle><circle cx="94.25" cy="158.83870967741933" fill="#509db6" r="3.3125"><title>2014-02-17: 5 km</title></circle><circle cx="94.25" cy="167.6774193548387" fill="#4fa8c5" r="3.3125"><title>2014-02-18: 6 km</title></circle><circle cx="94.25" cy="176.51612903225805" fill="#FFFF00" r="3.3125"><title>2014-02-19: 11 km</title></circle><circle cx="94.25" cy="185.35483870967738" fill="#50a0bb" r="3.3125"><title>2014-02-20: 6 km</title></circle><circle cx="94.25" cy="194.19354838709674" fill="#5094aa" r="3.3125"><title>2014-02-21: 5 km</title></circle><circle cx="94.25" cy="203.0322580645161" fill="#4dc5ee" r="3.3125"><title>2014-02-22: 9 km</title></circle><circle cx="94.25" cy="211.87096774193546" fill="#4fa4c0" r="3.3125"><title>2014-02-23: 6 km</title></circle><circle cx="94.25" cy="220.70967741935482" fill="#518495" r="3.3125"><title>2014-02-24: 3 km</title></circle><circle cx="94.25" cy="229.54838709677418" fill="#50a0bb" r="3.3125"><title>2014-02-25: 6 km</title></circle><circle cx="94.25" cy="238.3870967741935" fill="#4dc5ee" r="3.3125"><title>2014-02-26: 9 km</title></circle><circle cx="94.25" cy="247.22580645161287" fill="#5096ae" r="3.3125"><title>2014-02-27: 5 km</title></circle><circle cx="94.25" cy="256.06451612903226" fill="#FFFF00" r="3.3125"><title>2014-02-28: 11 km</title></circle><circle cx="103.08333333333334" cy="17.419354838709676" fill="#527e8c" r="3.3125"><title>2014-03-01: 3 km</title></circle><circle cx="103.08333333333334" cy="26.25806451612903" fill="#509cb6" r="3.3125"><title>2014-03-02: 5 km</title></circle><circle cx="103.08333333333334" cy="35.096774193548384" fill="#518799" r="3.3125"><title>2014-03-03: 4 km</title></circle><circle cx="103.08333333333334" cy="43.935483870967744" fill="#50a1bd" r="3.3125"><title>2014-03-04: 6 km</title></circle><circle cx="103.08333333333334" cy="52.774193548387096" fill="#50a1bc" r="3.3125"><title>2014-03-05: 6 km</title></circle><circle cx="103.08333333333334" cy="61.61290322580645" fill="#528090" r="3.3125"><title>2014-03-06: 3 km</title></circle><circle cx="103.08333333333334" cy="70.45161290322581" fill="#FFFF00" r="3.3125"><title>2014-03-07: 12 km</title></circle><circle cx="103.08333333333334" cy="79.29032258064517" fill="#5097af" r="3.3125"><title>2014-03-08: 5 km</title></circle><circle cx="103.08333333333334" cy="88.12903225806451" fill="#518799" r="3.3125"><title>2014-03-09: 4 km</title></circle><circle cx="103.08333333333334" cy="96.96774193548387" fill="#50a1bc" r="3.3125"><title>2014-03-10: 6 km</title></circle><circle cx="103.08333333333334" cy="105.80645161290322" fill="#FFFF00" r="3.3125"><title>2014-03-11: 11 km</title></circle><circle cx="103.08333333333334" cy="114.64516129032258" fill="#4eb9dd" r="3.3125"><title>2014-03-12: 8 km</title></circle><circle cx="103.08333333333334" cy="123.48387096774194" fill="#FFFF00" r="3.3125"><title>2014-03-13: 15 km</title></circle><circle cx="103.08333333333334" cy="132.32258064516128" fill="#555555" r="3.3125"><title>2014-03-14</title></circle><circle cx="103.08333333333334" cy="141.16129032258064" fill="#555555" r="3.3125"><title>2014-03-15</title></circle><circle cx="103.08333333333334" cy="149.99999999999997" fill="#555555" r="3.3125"><title>2014-03-16</title></circle><circle cx="103.08333333333334" cy="158.83870967741933" fill="#FFFF00" r="3.3125"><title>2014-03-17: 13 km</title></circle><circle cx="103.08333333333334" cy="167.6774193548387" fill="#527a88" r="3.3125"><title>2014-03-18: 3 km</title></circle><circle cx="103.08333333333334" cy="176.51612903225805" fill="#FFFF00" r="3.3125"><title>2014-03-19: 12 km</title></circle><circle cx="103.08333333333334" cy="185.35483870967738" fill="#53717b" r="3.3125"><title>2014-03-20: 2 km</title></circle><circle cx="103.08333333333334" cy="194.19354838709674" fill="#50a0bb" r="3.3125"><title>2014-03-21: 6 km</title></circle><circle cx="103.08333333333334" cy="203.0322580645161" fill="#FFFF00" r="3.3125"><title>2014-03-22: 10 km</title></circle><circle cx="103.08333333333334" cy="211.87096774193546" fill="#50a0bb" r="3.3125"><title>2014-03-23: 6 km</title></circle><circle cx="103.08333333333334" cy="220.70967741935482" fill="#536e77" r="3.3125"><title>2014-03-24: 2 km</title></circle><circle cx="103.08333333333334" cy="229.54838709677418" fill="#FFFF00" r="3.3125"><title>2014-03-25: 21 km</title></circle><circle cx="103.08333333333334" cy="238.3870967741935" fill="#555555" r="3.3125"><title>2014-03-26</title></circle><circle cx="103.08333333333334" cy="247.22580645161287" fill="#4fadcd" r="3.3125"><title>2014-03-27: 7 km</title></circle><circle cx="103.08333333333334" cy="256.06451612903226" fill="#5097b0" r="3.3125"><title>2014-03-28: 5 km</title></circle><circle cx="103.08333333333334" cy="264.90322580645164" fill="#527a88" r="3.3125"><title>2014-03-29: 3 km</title></circle><circle cx="103.08333333333334" cy="273.741935483871" fill="#5093aa" r="3.3125"><title>2014-03-30: 5 km</title></circle><circle cx="103.08333333333334" cy="282.5806451612903" fill="#FFFF00" r="3.3125"><title>2014-03-31: 11 km</title></circle><circle cx="111.91666666666667" cy="17.419354838709676" fill="#50a0bb" r="3.3125"><title>2014-04-01: 6 km</title></circle><circle cx="111.91666666666667" cy="26.25806451612903" fill="#5097ae" r="3.3125"><title>2014-04-02: 5 km</title></circle><circle cx="111.91666666666667" cy="35.096774193548384" fill="#527b89" r="3.3125"><title>2014-04-03: 3 km</title></circle><circle cx="111.91666666666667" cy="43.935483870967744" fill="#555555" r="3.3125"><title>2014-04-04</title></circle><circle cx="111.91666666666667" cy="52.774193548387096" fill="#555555" r="3.3125"><title>2014-04-05</title></circle><circle cx="111.91666666666667" cy="61.61290322580645" fill="#555555" r="3.3125"><title>2014-04-06</title></circle><circle cx="111.91666666666667" cy="70.45161290322581" fill="#555555" r="3.3125"><title>2014-04-07</title></circle><circle cx="111.91666666666667" cy="79.29032258064517" fill="#555555" r="3.3125"><title>2014-04-08</title></circle><circle cx="111.91666666666667" cy="88.12903225806451" fill="#5093aa" r="3.3125"><title>2014-04-09: 5 km</title></circle><circle cx="111.91666666666667" cy="96.96774193548387" fill="#527b88" r="3.3125"><title>2014-04-10: 3 km</title></circle><circle cx="111.91666666666667" cy="105.80645161290322" fill="#50a0bb" r="3.3125"><title>2014-04-11: 6 km</title></circle><circle cx="111.91666666666667" cy="114.64516129032258" fill="#555555" r="3.3125"><title>2014-04-12</title></circle><circle cx="111.91666666666667" cy="123.48387096774194" fill="#4ebee4" r="3.3125"><title>2014-04-13: 8 km</title></circle><circle cx="111.91666666666667" cy="132.32258064516128" fill="#5093aa" r="3.3125"><title>2014-04-14: 5 km</title></circle><circle cx="111.91666666666667" cy="141.16129032258064" fill="#555555" r="3.3125"><title>2014-04-15</title></circle><circle cx="111.91666666666667" cy="149.99999999999997" fill="#527a88" r="3.3125"><title>2014-04-16: 3 km</title></circle><circle cx="111.91666666666667" cy="158.83870967741933" fill="#52747f" r="3.3125"><title>2014-04-17: 2 km</title></circle><circle cx="111.91666666666667" cy="167.6774193548387" fill="#509bb4" r="3.3125"><title>2014-04-18: 5 km</title></circle><circle cx="111.91666666666667" cy="176.51612903225805" fill="#555555" r="3.3125"><title>2014-04-19</title></circle><circle cx="111.91666666666667" cy="185.35483870967738" fill="#555555" r="3.3125"><title>2014-04-20</title></circle><circle cx="111.91666666666667" cy="194.19354838709674" fill="#FFFF00" r="3.3125"><title>2014-04-21: 14 km</title></circle><circle cx="111.91666666666667" cy="203.0322580645161" fill="#5093aa" r="3.3125"><title>2014-04-22: 5 km</title></circle><circle cx="111.91666666666667" cy="211.87096774193546" fill="#555555" r="3.3125"><title>2014-04-23</title></circle><circle cx="111.91666666666667" cy="220.70967741935482" fill="#555555" r="3.3125"><title>2014-04-24</title></circle><circle cx="111.91666666666667" cy="229.54838709677418" fill="#518799" r="3.3125"><title>2014-04-25: 4 km</title></circle><circle cx="111.91666666666667" cy="238.3870967741935" fill="#FFFF00" r="3.3125"><title>2014-04-26: 20 km</title></circle><circle cx="111.91666666666667" cy="247.22580645161287" fill="#555555" r="3.3125"><title>2014-04-27</title></circle><circle cx="111.91666666666667" cy="256.06451612903226" fill="#518a9e" r="3.3125"><title>2014-04-28: 4 km</title></circle><circle cx="111.91666666666667" cy="264.90322580645164" fill="#5093aa" r="3.3125"><title>2014-04-29: 5 km</title></circle><circle cx="111.91666666666667" cy="273.741935483871" fill="#555555" r="3.3125"><title>2014-04-30</title></circle><circle cx="120.75000000000001" cy="17.419354838709676" fill="#555555" r="3.3125"><title>2014-05-01</title></circle><circle cx="120.75000000000001" cy="26.25806451612903" fill="#555555" r="3.3125"><title>2014-05-02</title></circle><circle cx="120.75000000000001" cy="35.096774193548384" fill="#4eb6da" r="3.3125"><title>2014-05-03: 7 km</title></circle><circle cx="120.75000000000001" cy="43.935483870967744" fill="#555555" r="3.3125"><title>2014-05-04</title></circle><circle cx="120.75000000000001" cy="52.774193548387096" fill="#FFFF00" r="3.3125"><title>2014-05-05: 12 km</title></circle><circle cx="120.75000000000001" cy="61.61290322580645" fill="#555555" r="3.3125"><title>2014-05-06</title></circle><circle cx="120.75000000000001" cy="70.45161290322581" fill="#555555" r="3.3125"><title>2014-05-07</title></circle><circle cx="120.75000000000001" cy="79.29032258064517" fill="#555555" r="3.3125"><title>2014-05-08</title></circle><circle cx="120.75000000000001" cy="88.12903225806451" fill="#555555" r="3.3125"><title>2014-05-09</title></circle><circle cx="120.75000000000001" cy="96.96774193548387" fill="#FFFF00" r="3.3125"><title>2014-05-10: 41 km</title></circle><circle cx="120.75000000000001" cy="105.80645161290322" fill="#555555" r="3.3125"><title>2014-05-11</title></circle><circle cx="120.75000000000001" cy="114.64516129032258" fill="#555555" r="3.3125"><title>2014-05-12</title></circle><circle cx="120.75000000000001" cy="123.48387096774194" fill="#555555" r="3.3125"><title>2014-05-13</title></circle><circle cx="120.75000000000001" cy="132.32258064516128" fill="#509cb6" r="3.3125"><title>2014-05-14: 5 km</title></circle><circle cx="120.75000000000001" cy="141.16129032258064" fill="#546166" r="3.3125"><title>2014-05-15: 1 km</title></circle><circle cx="120.75000000000001" cy="149.99999999999997" fill="#5098b1" r="3.3125"><title>2014-05-16: 5 km</title></circle><circle cx="120.75000000000001" cy="158.83870967741933" fill="#555555" r="3.3125"><title>2014-05-17</title></circle><circle cx="120.75000000000001" cy="167.6774193548387" fill="#555555" r="3.3125"><title>2014-05-18</title></circle><circle cx="120.75000000000001" cy="176.51612903225805" fill="#4ebade" r="3.3125"><title>2014-05-19: 8 km</title></circle><circle cx="120.75000000000001" cy="185.35483870967738" fill="#53707a" r="3.3125"><title>2014-05-20: 2 km</title></circle><circle cx="120.75000000000001" cy="194.19354838709674" fill="#518799" r="3.3125"><title>2014-05-21: 4 km</title></circle><circle cx="120.75000000000001" cy="203.0322580645161" fill="#518799" r="3.3125"><title>2014-05-22: 4 km</title></circle><circle cx="120.75000000000001" cy="211.87096774193546" fill="#FFFF00" r="3.3125"><title>2014-05-23: 10 km</title></circle><circle cx="120.75000000000001" cy="220.70967741935482" fill="#527a88" r="3.3125"><title>2014-05-24: 3 km</title></circle><circle cx="120.75000000000001" cy="229.54838709677418" fill="#4eb3d5" r="3.3125"><title>2014-05-25: 7 km</title></circle><circle cx="120.75000000000001" cy="238.3870967741935" fill="#518799" r="3.3125"><title>2014-05-26: 4 km</title></circle><circle cx="120.75000000000001" cy="247.22580645161287" fill="#518799" r="3.3125"><title>2014-05-27: 4 km</title></circle><circle cx="120.75000000000001" cy="256.06451612903226" fill="#5093aa" r="3.3125"><title>2014-05-28: 5 km</title></circle><circle cx="120.75000000000001" cy="264.90322580645164" fill="#555555" r="3.3125"><title>2014-05-29</title></circle><circle cx="120.75000000000001" cy="273.741935483871" fill="#555555" r="3.3125"><title>2014-05-30</title></circle><circle cx="120.75000000000001" cy="282.5806451612903" fill="#555555" r="3.3125"><title>2014-05-31</title></circle><circle cx="129.58333333333334" cy="17.419354838709676" fill="#555555" r="3.3125"><title>2014-06-01</title></circle><circle cx="129.58333333333334" cy="26.25806451612903" fill="#555555" r="3.3125"><title>2014-06-02</title></circle><circle cx="129.58333333333334" cy="35.096774193548384" fill="#527a88" r="3.3125"><title>2014-06-03: 3 km</title></circle><circle cx="129.58333333333334" cy="43.935483870967744" fill="#4fa4c0" r="3.3125"><title>2014-06-04: 6 km</title></circle><circle cx="129.58333333333334" cy="52.774193548387096" fill="#518799" r="3.3125"><title>2014-06-05: 4 km</title></circle><circle cx="129.58333333333334" cy="61.61290322580645" fill="#555555" r="3.3125"><title>2014-06-06</title></circle><circle cx="129.58333333333334" cy="70.45161290322581" fill="#53666c" r="3.3125"><title>2014-06-07: 1 km</title></circle><circle cx="129.58333333333334" cy="79.29032258064517" fill="#555555" r="3.3125"><title>2014-06-08</title></circle><circle cx="129.58333333333334" cy="88.12903225806451" fill="#555555" r="3.3125"><title>2014-06-09</title></circle><circle cx="129.58333333333334" cy="96.96774193548387" fill="#5093aa" r="3.3125"><title>2014-06-10: 5 km</title></circle><circle cx="129.58333333333334" cy="105.80645161290322" fill="#555555" r="3.3125"><title>2014-06-11</title></circle><circle cx="129.58333333333334" cy="114.64516129032258" fill="#555555" r="3.3125"><title>2014-06-12</title></circle><circle cx="129.58333333333334" cy="123.48387096774194" fill="#555555" r="3.3125"><title>2014-06-13</title></circle><circle cx="129.58333333333334" cy="132.32258064516128" fill="#555555" r="3.3125"><title>2014-06-14</title></circle><circle cx="129.58333333333334" cy="141.16129032258064" fill="#555555" r="3.3125"><title>2014-06-15</title></circle><circle cx="129.58333333333334" cy="149.99999999999997" fill="#555555" r="3.3125"><title>2014-06-16</title></circle><circle cx="129.58333333333334" cy="158.83870967741933" fill="#555555" r="3.3125"><title>2014-06-17</title></circle><circle cx="129.58333333333334" cy="167.6774193548387" fill="#5193a9" r="3.3125"><title>2014-06-18: 4 km</title></circle><circle cx="129.58333333333334" cy="176.51612903225805" fill="#509eb8" r="3.3125"><title>2014-06-19: 5 km</title></circle><circle cx="129.58333333333334" cy="185.35483870967738" fill="#FFFF00" r="3.3125"><title>2014-06-20: 10 km</title></circle><circle cx="129.58333333333334" cy="194.19354838709674" fill="#555555" r="3.3125"><title>2014-06-21</title></circle><circle cx="129.58333333333334" cy="203.0322580645161" fill="#555555" r="3.3125"><title>2014-06-22</title></circle><circle cx="129.58333333333334" cy="211.87096774193546" fill="#536e77" r="3.3125"><title>2014-06-23: 2 km</title></circle><circle cx="129.58333333333334" cy="220.70967741935482" fill="#50a3bf" r="3.3125"><title>2014-06-24: 6 km</title></circle><circle cx="129.58333333333334" cy="229.54838709677418" fill="#555555" r="3.3125"><title>2014-06-25</title></circle><circle cx="129.58333333333334" cy="238.3870967741935" fill="#53707a" r="3.3125"><title>2014-06-26: 2 km</title></circle><circle cx="129.58333333333334" cy="247.22580645161287" fill="#555555" r="3.3125"><title>2014-06-27</title></circle><circle cx="129.58333333333334" cy="256.06451612903226" fill="#555555" r="3.3125"><title>2014-06-28</title></circle><circle cx="129.58333333333334" cy="264.90322580645164" fill="#555555" r="3.3125"><title>2014-06-29</title></circle><circle cx="129.58333333333334" cy="273.741935483871" fill="#555555" r="3.3125"><title>2014-06-30</title></circle><circle cx="138.41666666666666" cy="17.419354838709676" fill="#555555" r="3.3125"><title>2014-07-01</title></circle><circle cx="138.41666666666666" cy="26.25806451612903" fill="#52747f" r="3.3125"><title>2014-07-02: 2 km</title></circle><circle cx="138.41666666666666" cy="35.096774193548384" fill="#555555" r="3.3125"><title>2014-07-03</title></circle><circle cx="138.41666666666666" cy="43.935483870967744" fill="#555555" r="3.3125"><title>2014-07-04</title></circle><circle cx="138.41666666666666" cy="52.774193548387096" fill="#555555" r="3.3125"><title>2014-07-05</title></circle><circle cx="138.41666666666666" cy="61.61290322580645" fill="#536e77" r="3.3125"><title>2014-07-06: 2 km</title></circle><circle cx="138.41666666666666" cy="70.45161290322581" fill="#527a88" r="3.3125"><title>2014-07-07: 3 km</title></circle><circle cx="138.41666666666666" cy="79.29032258064517" fill="#555555" r="3.3125"><title>2014-07-08</title></circle><circle cx="138.41666666666666" cy="88.12903225806451" fill="#4fa4c1" r="3.3125"><title>2014-07-09: 6 km</title></circle><circle cx="138.41666666666666" cy="96.96774193548387" fill="#53717c" r="3.3125"><title>2014-07-10: 2 km</title></circle><circle cx="138.41666666666666" cy="105.80645161290322" fill="#555555" r="3.3125"><title>2014-07-11</title></circle><circle cx="138.41666666666666" cy="114.64516129032258" fill="#555555" r="3.3125"><title>2014-07-12</title></circle><circle cx="138.41666666666666" cy="123.48387096774194" fill="#555555" r="3.3125"><title>2014-07-13</title></circle><circle cx="138.41666666666666" cy="132.32258064516128" fill="#536f79" r="3.3125"><title>2014-07-14: 2 km</title></circle><circle cx="138.41666666666666" cy="141.16129032258064" fill="#518799" r="3.3125"><title>2014-07-15: 4 km</title></circle><circle cx="138.41666666666666" cy="149.99999999999997" fill="#518799" r="3.3125"><title>2014-07-16: 4 km</title></circle><circle cx="138.41666666666666" cy="158.83870967741933" fill="#50a0bb" r="3.3125"><title>2014-07-17: 6 km</title></circle><circle cx="138.41666666666666" cy="167.6774193548387" fill="#518799" r="3.3125"><title>2014-07-18: 4 km</title></circle><circle cx="138.41666666666666" cy="176.51612903225805" fill="#555555" r="3.3125"><title>2014-07-19</title></circle><circle cx="138.41666666666666" cy="185.35483870967738" fill="#555555" r="3.3125"><title>2014-07-20</title></circle><circle cx="138.41666666666666" cy="194.19354838709674" fill="#536e77" r="3.3125"><title>2014-07-21: 2 km</title></circle><circle cx="138.41666666666666" cy="203.0322580645161" fill="#555555" r="3.3125"><title>2014-07-22</title></circle><circle cx="138.41666666666666" cy="211.87096774193546" fill="#4eb9dd" r="3.3125"><title>2014-07-23: 8 km</title></circle><circle cx="138.41666666666666" cy="220.70967741935482" fill="#536e77" r="3.3125"><title>2014-07-24: 2 km</title></circle><circle cx="138.41666666666666" cy="229.54838709677418" fill="#555555" r="3.3125"><title>2014-07-25</title></circle><circle cx="138.41666666666666" cy="238.3870967741935" fill="#555555" r="3.3125"><title>2014-07-26</title></circle><circle cx="138.41666666666666" cy="247.22580645161287" fill="#546267" r="3.3125"><title>2014-07-27: 1 km</title></circle><circle cx="138.41666666666666" cy="256.06451612903226" fill="#5093aa" r="3.3125"><title>2014-07-28: 5 km</title></circle><circle cx="138.41666666666666" cy="264.90322580645164" fill="#FFFF00" r="3.3125"><title>2014-07-29: 10 km</title></circle><circle cx="138.41666666666666" cy="273.741935483871" fill="#4dc6ee" r="3.3125"><title>2014-07-30: 9 km</title></circle><circle cx="138.41666666666666" cy="282.5806451612903" fill="#536e77" r="3.3125"><title>2014-07-31: 2 km</title></circle><circle cx="147.25" cy="17.419354838709676" fill="#4fa3bf" r="3.3125"><title>2014-08-01: 6 km</title></circle><circle cx="147.25" cy="26.25806451612903" fill="#555555" r="3.3125"><title>2014-08-02</title></circle><circle cx="147.25" cy="35.096774193548384" fill="#555555" r="3.3125"><title>2014-08-03</title></circle><circle cx="147.25" cy="43.935483870967744" fill="#536e77" r="3.3125"><title>2014-08-04: 2 km</title></circle><circle cx="147.25" cy="52.774193548387096" fill="#4fb0d1" r="3.3125"><title>2014-08-05: 7 km</title></circle><circle cx="147.25" cy="61.61290322580645" fill="#FFFF00" r="3.3125"><title>2014-08-06: 14 km</title></circle><circle cx="147.25" cy="70.45161290322581" fill="#53707a" r="3.3125"><title>2014-08-07: 2 km</title></circle><circle cx="147.25" cy="79.29032258064517" fill="#555555" r="3.3125"><title>2014-08-08</title></circle><circle cx="147.25" cy="88.12903225806451" fill="#555555" r="3.3125"><title>2014-08-09</title></circle><circle cx="147.25" cy="96.96774193548387" fill="#53666c" r="3.3125"><title>2014-08-10: 1 km</title></circle><circle cx="147.25" cy="105.80645161290322" fill="#50a0bb" r="3.3125"><title>2014-08-11: 6 km</title></circle><circle cx="147.25" cy="114.64516129032258" fill="#FFFF00" r="3.3125"><title>2014-08-12: 10 km</title></circle><circle cx="147.25" cy="123.48387096774194" fill="#5093aa" r="3.3125"><title>2014-08-13: 5 km</title></circle><circle cx="147.25" cy="132.32258064516128" fill="#555555" r="3.3125"><title>2014-08-14</title></circle><circle cx="147.25" cy="141.16129032258064" fill="#555555" r="3.3125"><title>2014-08-15</title></circle><circle cx="147.25" cy="149.99999999999997" fill="#555555" r="3.3125"><title>2014-08-16</title></circle><circle cx="147.25" cy="158.83870967741933" fill="#555555" r="3.3125"><title>2014-08-17</title></circle><circle cx="147.25" cy="167.6774193548387" fill="#555555" r="3.3125"><title>2014-08-18</title></circle><circle cx="147.25" cy="176.51612903225805" fill="#555555" r="3.3125"><title>2014-08-19</title></circle><circle cx="147.25" cy="185.35483870967738" fill="#555555" r="3.3125"><title>2014-08-20</title></circle><circle cx="147.25" cy="194.19354838709674" fill="#555555" r="3.3125"><title>2014-08-21</title></circle><circle cx="147.25" cy="203.0322580645161" fill="#555555" r="3.3125"><title>2014-08-22</title></circle><circle cx="147.25" cy="211.87096774193546" fill="#555555" r="3.3125"><title>2014-08-23</title></circle><circle cx="147.25" cy="220.70967741935482" fill="#555555" r="3.3125"><title>2014-08-24</title></circle><circle cx="147.25" cy="229.54838709677418" fill="#555555" r="3.3125"><title>2014-08-25</title></circle><circle cx="147.25" cy="238.3870967741935" fill="#555555" r="3.3125"><title>2014-08-26</title></circle><circle cx="147.25" cy="247.22580645161287" fill="#555555" r="3.3125"><title>2014-08-27</title></circle><circle cx="147.25" cy="256.06451612903226" fill="#555555" r="3.3125"><title>2014-08-28</title></circle><circle cx="147.25" cy="264.90322580645164" fill="#555555" r="3.3125"><title>2014-08-29</title></circle><circle cx="147.25" cy="273.741935483871" fill="#555555" r="3.3125"><title>2014-08-30</title></circle><circle cx="147.25" cy="282.5806451612903" fill="#555555" r="3.3125"><title>2014-08-31</title></circle><circle cx="156.08333333333334" cy="17.419354838709676" fill="#555555" r="3.3125"><title>2014-09-01</title></circle><circle cx="156.08333333333334" cy="26.25806451612903" fill="#555555" r="3.3125"><title>2014-09-02</title></circle><circle cx="156.08333333333334" cy="35.096774193548384" fill="#555555" r="3.3125"><title>2014-09-03</title></circle><circle cx="156.08333333333334" cy="43.935483870967744" fill="#555555" r="3.3125"><title>2014-09-04</title></circle><circle cx="156.08333333333334" cy="52.774193548387096" fill="#555555" r="3.3125"><title>2014-09-05</title></circle><circle cx="156.08333333333334" cy="61.61290322580645" fill="#555555" r="3.3125"><title>2014-09-06</title></circle><circle cx="156.08333333333334" cy="70.45161290322581" fill="#555555" r="3.3125"><title>2014-09-07</title></circle><circle cx="156.08333333333334" cy="79.29032258064517" fill="#555555" r="3.3125"><title>2014-09-08</title></circle><circle cx="156.08333333333334" cy="88.12903225806451" fill="#555555" r="3.3125"><title>2014-09-09</title></circle><circle cx="156.08333333333334" cy="96.96774193548387" fill="#555555" r="3.3125"><title>2014-09-10</title></circle><circle cx="156.08333333333334" cy="105.80645161290322" fill="#555555" r="3.3125"><title>2014-09-11</title></circle><circle cx="156.08333333333334" cy="114.64516129032258" fill="#555555" r="3.3125"><title>2014-09-12</title></circle><circle cx="156.08333333333334" cy="123.48387096774194" fill="#555555" r="3.3125"><title>2014-09-13</title></circle><circle cx="156.08333333333334" cy="132.32258064516128" fill="#555555" r="3.3125"><title>2014-09-14</title></circle><circle cx="156.08333333333334" cy="141.16129032258064" fill="#555555" r="3.3125"><title>2014-09-15</title></circle><circle cx="156.08333333333334" cy="149.99999999999997" fill="#555555" r="3.3125"><title>2014-09-16</title></circle><circle cx="156.08333333333334" cy="158.83870967741933" fill="#555555" r="3.3125"><title>2014-09-17</title></circle><circle cx="156.08333333333334" cy="167.6774193548387" fill="#555555" r="3.3125"><title>2014-09-18</title></circle><circle cx="156.08333333333334" cy="176.51612903225805" fill="#555555" r="3.3125"><title>2014-09-19</title></circle><circle cx="156.08333333333334" cy="185.35483870967738" fill="#555555" r="3.3125"><title>2014-09-20</title></circle><circle cx="156.08333333333334" cy="194.19354838709674" fill="#555555" r="3.3125"><title>2014-09-21</title></circle><circle cx="156.08333333333334" cy="203.0322580645161" fill="#555555" r="3.3125"><title>2014-09-22</title></circle><circle cx="156.08333333333334" cy="211.87096774193546" fill="#555555" r="3.3125"><title>2014-09-23</title></circle><circle cx="156.08333333333334" cy="220.70967741935482" fill="#555555" r="3.3125"><title>2014-09-24</title></circle><circle cx="156.08333333333334" cy="229.54838709677418" fill="#555555" r="3.3125"><title>2014-09-25</title></circle><circle cx="156.08333333333334" cy="238.3870967741935" fill="#555555" r="3.3125"><title>2014-09-26</title></circle><circle cx="156.08333333333334" cy="247.22580645161287" fill="#555555" r="3.3125"><title>2014-09-27</title></circle><circle cx="156.08333333333334" cy="256.06451612903226" fill="#555555" r="3.3125"><title>2014-09-28</title></circle><circle cx="156.08333333333334" cy="264.90322580645164" fill="#555555" r="3.3125"><title>2014-09-29</title></circle><circle cx="156.08333333333334" cy="273.741935483871" fill="#555555" r="3.3125"><title>2014-09-30</title></circle><circle cx="164.91666666666666" cy="17.419354838709676" fill="#555555" r="3.3125"><title>2014-10-01</title></circle><circle cx="164.91666666666666" cy="26.25806451612903" fill="#555555" r="3.3125"><title>2014-10-02</title></circle><circle cx="164.91666666666666" cy="35.096774193548384" fill="#555555" r="3.3125"><title>2014-10-03</title></circle><circle cx="164.91666666666666" cy="43.935483870967744" fill="#555555" r="3.3125"><title>2014-10-04</title></circle><circle cx="164.91666666666666" cy="52.774193548387096" fill="#555555" r="3.3125"><title>2014-10-05</title></circle><circle cx="164.91666666666666" cy="61.61290322580645" fill="#555555" r="3.3125"><title>2014-10-06</title></circle><circle cx="164.91666666666666" cy="70.45161290322581" fill="#555555" r="3.3125"><title>2014-10-07</title></circle><circle cx="164.91666666666666" cy="79.29032258064517" fill="#555555" r="3.3125"><title>2014-10-08</title></circle><circle cx="164.91666666666666" cy="88.12903225806451" fill="#555555" r="3.3125"><title>2014-10-09</title></circle><circle cx="164.91666666666666" cy="96.96774193548387" fill="#555555" r="3.3125"><title>2014-10-10</title></circle><circle cx="164.91666666666666" cy="105.80645161290322" fill="#555555" r="3.3125"><title>2014-10-11</title></circle><circle cx="164.91666666666666" cy="114.64516129032258" fill="#555555" r="3.3125"><title>2014-10-12</title></circle><circle cx="164.91666666666666" cy="123.48387096774194" fill="#555555" r="3.3125"><title>2014-10-13</title></circle><circle cx="164.91666666666666" cy="132.32258064516128" fill="#555555" r="3.3125"><title>2014-10-14</title></circle><circle cx="164.91666666666666" cy="141.16129032258064" fill="#555555" r="3.3125"><title>2014-10-15</title></circle><circle cx="164.91666666666666" cy="149.99999999999997" fill="#555555" r="3.3125"><title>2014-10-16</title></circle><circle cx="164.91666666666666" cy="158.83870967741933" fill="#555555" r="3.3125"><title>2014-10-17</title></circle><circle cx="164.91666666666666" cy="167.6774193548387" fill="#555555" r="3.3125"><title>2014-10-18</title></circle><circle cx="164.91666666666666" cy="176.51612903225805" fill="#555555" r="3.3125"><title>2014-10-19</title></circle><circle cx="164.91666666666666" cy="185.35483870967738" fill="#555555" r="3.3125"><title>2014-10-20</title></circle><circle cx="164.91666666666666" cy="194.19354838709674" fill="#555555" r="3.3125"><title>2014-10-21</title></circle><circle cx="164.91666666666666" cy="203.0322580645161" fill="#555555" r="3.3125"><title>2014-10-22</title></circle><circle cx="164.91666666666666" cy="211.87096774193546" fill="#555555" r="3.3125"><title>2014-10-23</title></circle><circle cx="164.91666666666666" cy="220.70967741935482" fill="#555555" r="3.3125"><title>2014-10-24</title></circle><circle cx="164.91666666666666" cy="229.54838709677418" fill="#555555" r="3.3125"><title>2014-10-25</title></circle><circle cx="164.91666666666666" cy="238.3870967741935" fill="#555555" r="3.3125"><title>2014-10-26</title></circle><circle cx="164.91666666666666" cy="247.22580645161287" fill="#555555" r="3.3125"><title>2014-10-27</title></circle><circle cx="164.91666666666666" cy="256.06451612903226" fill="#555555" r="3.3125"><title>2014-10-28</title></circle><circle cx="164.91666666666666" cy="264.90322580645164" fill="#555555" r="3.3125"><title>2014-10-29</title></circle><circle cx="164.91666666666666" cy="273.741935483871" fill="#555555" r="3.3125"><title>2014-10-30</title></circle><circle cx="164.91666666666666" cy="282.5806451612903" fill="#555555" r="3.3125"><title>2014-10-31</title></circle><circle cx="173.75" cy="17.419354838709676" fill="#555555" r="3.3125"><title>2014-11-01</title></circle><circle cx="173.75" cy="26.25806451612903" fill="#555555" r="3.3125"><title>2014-11-02</title></circle><circle cx="173.75" cy="35.096774193548384" fill="#555555" r="3.3125"><title>2014-11-03</title></circle><circle cx="173.75" cy="43.935483870967744" fill="#555555" r="3.3125"><title>2014-11-04</title></circle><circle cx="173.75" cy="52.774193548387096" fill="#555555" r="3.3125"><title>2014-11-05</title></circle><circle cx="173.75" cy="61.61290322580645" fill="#555555" r="3.3125"><title>2014-11-06</title></circle><circle cx="173.75" cy="70.45161290322581" fill="#555555" r="3.3125"><title>2014-11-07</title></circle><circle cx="173.75" cy="79.29032258064517" fill="#555555" r="3.3125"><title>2014-11-08</title></circle><circle cx="173.75" cy="88.12903225806451" fill="#555555" r="3.3125"><title>2014-11-09</title></circle><circle cx="173.75" cy="96.96774193548387" fill="#555555" r="3.3125"><title>2014-11-10</title></circle><circle cx="173.75" cy="105.80645161290322" fill="#555555" r="3.3125"><title>2014-11-11</title></circle><circle cx="173.75" cy="114.64516129032258" fill="#555555" r="3.3125"><title>2014-11-12</title></circle><circle cx="173.75" cy="123.48387096774194" fill="#555555" r="3.3125"><title>2014-11-13</title></circle><circle cx="173.75" cy="132.32258064516128" fill="#555555" r="3.3125"><title>2014-11-14</title></circle><circle cx="173.75" cy="141.16129032258064" fill="#555555" r="3.3125"><title>2014-11-15</title></circle><circle cx="173.75" cy="149.99999999999997" fill="#555555" r="3.3125"><title>2014-11-16</title></circle><circle cx="173.75" cy="158.83870967741933" fill="#555555" r="3.3125"><title>2014-11-17</title></circle><circle cx="173.75" cy="167.6774193548387" fill="#555555" r="3.3125"><title>2014-11-18</title></circle><circle cx="173.75" cy="176.51612903225805" fill="#555555" r="3.3125"><title>2014-11-19</title></circle><circle cx="173.75" cy="185.35483870967738" fill="#555555" r="3.3125"><title>2014-11-20</title></circle><circle cx="173.75" cy="194.19354838709674" fill="#555555" r="3.3125"><title>2014-11-21</title></circle><circle cx="173.75" cy="203.0322580645161" fill="#555555" r="3.3125"><title>2014-11-22</title></circle><circle cx="173.75" cy="211.87096774193546" fill="#555555" r="3.3125"><title>2014-11-23</title></circle><circle cx="173.75" cy="220.70967741935482" fill="#555555" r="3.3125"><title>2014-11-24</title></circle><circle cx="173.75" cy="229.54838709677418" fill="#555555" r="3.3125"><title>2014-11-25</title></circle><circle cx="173.75" cy="238.3870967741935" fill="#555555" r="3.3125"><title>2014-11-26</title></circle><circle cx="173.75" cy="247.22580645161287" fill="#555555" r="3.3125"><title>2014-11-27</title></circle><circle cx="173.75" cy="256.06451612903226" fill="#555555" r="3.3125"><title>2014-11-28</title></circle><circle cx="173.75" cy="264.90322580645164" fill="#555555" r="3.3125"><title>2014-11-29</title></circle><circle cx="173.75" cy="273.741935483871" fill="#555555" r="3.3125"><title>2014-11-30</title></circle><circle cx="182.58333333333334" cy="17.419354838709676" fill="#555555" r="3.3125"><title>2014-12-01</title></circle><circle cx="182.58333333333334" cy="26.25806451612903" fill="#51879a" r="3.3125"><title>2014-12-02: 4 km</title></circle><circle cx="182.58333333333334" cy="35.096774193548384" fill="#527b89" r="3.3125"><title>2014-12-03: 3 km</title></circle><circle cx="182.58333333333334" cy="43.935483870967744" fill="#555555" r="3.3125"><title>2014-12-04</title></circle><circle cx="182.58333333333334" cy="52.774193548387096" fill="#555555" r="3.3125"><title>2014-12-05</title></circle><circle cx="182.58333333333334" cy="61.61290322580645" fill="#555555" r="3.3125"><title>2014-12-06</title></circle><circle cx="182.58333333333334" cy="70.45161290322581" fill="#555555" r="3.3125"><title>2014-12-07</title></circle><circle cx="182.58333333333334" cy="79.29032258064517" fill="#555555" r="3.3125"><title>2014-12-08</title></circle><circle cx="182.58333333333334" cy="88.12903225806451" fill="#555555" r="3.3125"><title>2014-12-09</title></circle><circle cx="182.58333333333334" cy="96.96774193548387" fill="#555555" r="3.3125"><title>2014-12-10</title></circle><circle cx="182.58333333333334" cy="105.80645161290322" fill="#555555" r="3.3125"><title>2014-12-11</title></circle><circle cx="182.58333333333334" cy="114.64516129032258" fill="#555555" r="3.3125"><title>2014-12-12</title></circle><circle cx="182.58333333333334" cy="123.48387096774194" fill="#555555" r="3.3125"><title>2014-12-13</title></circle><circle cx="182.58333333333334" cy="132.32258064516128" fill="#536f79" r="3.3125"><title>2014-12-14: 2 km</title></circle><circle cx="182.58333333333334" cy="141.16129032258064" fill="#555555" r="3.3125"><title>2014-12-15</title></circle><circle cx="182.58333333333334" cy="149.99999999999997" fill="#555555" r="3.3125"><title>2014-12-16</title></circle><circle cx="182.58333333333334" cy="158.83870967741933" fill="#555555" r="3.3125"><title>2014-12-17</title></circle><circle cx="182.58333333333334" cy="167.6774193548387" fill="#555555" r="3.3125"><title>2014-12-18</title></circle><circle cx="182.58333333333334" cy="176.51612903225805" fill="#555555" r="3.3125"><title>2014-12-19</title></circle><circle cx="182.58333333333334" cy="185.35483870967738" fill="#53727d" r="3.3125"><title>2014-12-20: 2 km</title></circle><circle cx="182.58333333333334" cy="194.19354838709674" fill="#537079" r="3.3125"><title>2014-12-21: 2 km</title></circle><circle cx="182.58333333333334" cy="203.0322580645161" fill="#555555" r="3.3125"><title>2014-12-22</title></circle><circle cx="182.58333333333334" cy="211.87096774193546" fill="#5093aa" r="3.3125"><title>2014-12-23: 5 km</title></circle><circle cx="182.58333333333334" cy="220.70967741935482" fill="#555555" r="3.3125"><title>2014-12-24</title></circle><circle cx="182.58333333333334" cy="229.54838709677418" fill="#53717b" r="3.3125"><title>2014-12-25: 2 km</title></circle><circle cx="182.58333333333334" cy="238.3870967741935" fill="#527a88" r="3.3125"><title>2014-12-26: 3 km</title></circle><circle cx="182.58333333333334" cy="247.22580645161287" fill="#518799" r="3.3125"><title>2014-12-27: 4 km</title></circle><circle cx="182.58333333333334" cy="256.06451612903226" fill="#536e77" r="3.3125"><title>2014-12-28: 2 km</title></circle><circle cx="182.58333333333334" cy="264.90322580645164" fill="#527a88" r="3.3125"><title>2014-12-29: 3 km</title></circle><circle cx="182.58333333333334" cy="273.741935483871" fill="#53737e" r="3.3125"><title>2014-12-30: 2 km</title></circle><circle cx="182.58333333333334" cy="282.5806451612903" fill="#555555" r="3.3125"><title>2014-12-31</title></circle></svg>