<?xml version="1.0" encoding="utf-8" ?>
<svg baseProfile="full" height="200mm" version="1.1" viewBox="0,0,200,200" width="200mm" xmlns="http://www.w3.org/2000/svg" xmlns:ev="http://www.w3.org/2001/xml-events" xmlns:xlink="http://www.w3.org/1999/xlink"><defs /><rect fill="#1a1a1a" height="200" width="200" x="0" y="0" /><text alignment-baseline="middle" fill="#e1ed5e" style="dominant-baseline: central; font-size:9.0px; font-family:Arial;" text-anchor="middle" x="100.0" y="100.0">2026</text><line stroke="#e1ed5e" stroke-width="0.3" x1="100.0" x2="100.0" y1="15.0" y2="10.0" /><path d="M 100.0 14.0 a86.0,86.0 0 0,1 42.46469731375804,11.215312516191453" fill="none" id="id49" stroke="none" /><text fill="#e1ed5e" style="font-size:6.75px; font-family:Arial;" text-anchor="middle"><textPath startOffset="22.20632615414155" xlink:href="#id49">January</textPath></text><path d="M 100.0 79.0 l 0.0 -24.704309362643258 a45.70430936264326,45.70430936264326 0 0,0 0.7867245549156281,0.006771586621965064 l -0.42524407564309974 24.70064915262985" fill="red" stroke="none" /><path d="M 100.72285384407766 79.0124445844662 l 1.556419965473911 -45.189564312142565 a66.21635949333155,66.21635949333155 0 0,0 1.1387926322295432,0.04903880625773926 l -2.3340534300927858 45.15607777936063" fill="red" stroke="none" /><path d="M 101.44485096284872 79.0497635885617 l 1.564372412044091 -22.683288941606406 a43.73716909054353,43.73716909054353 0 0,0 0.7506335633214314,0.058263611329845186 l -1.9545961647278636 22.653000068088097" fill="red" stroke="none" /><path d="M 102.16513564639614 79.11191278185805 l 2.5375227256365576 -24.48068142951636 a45.611842369814354,45.611842369814354 0 0,0 0.7802520235001521,0.08767040608127655 l -2.958541452646435 24.43337506996448" fill="red" stroke="none" /><path d="M 102.88285421437855 79.19881850522331 l 4.3599281684650215 -31.45898140949873 a52.7596675826017,52.7596675826017 0 0,0 0.8984997004671925,0.13241549978270603 l -4.90079684936087 31.379271425555054" fill="red" stroke="none" /><path d="M 103.59715602781102 79.31037775812273 l 8.683656637661532 -49.94544971704114 a71.69471215066014,71.69471215066014 0 0,0 1.2140471158046608,0.2218593504194289 l -9.542098874569092 49.788574885270975" fill="red" stroke="none" /><path d="M 104.66035177308747 79.52364482259891 l 4.914592530630079 -21.593421936626644 a43.145633670665504,43.145633670665504 0 0,0 0.722743425539634,0.1710500179216896 l -5.285559643132237 21.505626006564086" fill="red" stroke="none" /><path d="M 105.71112130821622 79.79150937346287 l 9.786605950900606 -34.62937030244217 a56.98570471148046,56.98570471148046 0 0,0 0.9416474754670432,0.27489271976277535 l -10.381243644091075 34.45577925376069" fill="red" stroke="none" /><path d="M 108.76106565485865 80.91482961587045 l 14.231080241056842 -31.001090717790238 a55.11145365592118,55.11145365592118 0 0,0 0.858746116341421,0.4031928161505774 l -14.762604568697862 30.751532918999658" fill="red" stroke="none" /><path d="M 109.41281617654863 81.2277094730956 l 10.076589729324203 -20.096076070259986 a43.4808792976342,43.4808792976342 0 0,0 0.6661674716396667,0.34123685305881274 l -10.421017688552626 19.919646691888673" fill="red" stroke="none" /><path d="M 110.05341064243156 81.56283822128135 l 16.677167049080985 -30.58460833151185 a55.835989544936666,55.835989544936666 0 0,0 0.8398687647652949,0.4673860582852687 l -17.201159902918317 30.2930068756664" fill="red" stroke="none" /><path d="M 110.36928655335952 81.73862282372117 l 17.232849432228228 -30.34881538710922 a55.90016754909188,55.90016754909188 0 0,0 0.8326550030995982,0.4823275219569102 l -17.752701167793155 30.04768370776226" fill="red" stroke="none" /><line stroke="#e1ed5e" stroke-width="0.3" x1="143.23703022742887" x2="145.7803849466894" y1="26.81831364943548" y2="22.513508569990506" /><path d="M 143.74570117128098 25.957352633546492 a86.0,86.0 0 0,1 28.547481713284135,27.462654790039103" fill="none" id="id50" stroke="none" /><text fill="#e1ed5e" style="font-size:6.75px; font-family:Arial;" text-anchor="middle"><textPath startOffset="19.985693538727396" xlink:href="#id50">February</textPath></text><path d="M 110.68208982089419 81.91981866633111 l 11.541897466152147 -19.535465683359675 a43.69030225856176,43.69030225856176 0 0,0 0.6441988056032356,0.3881225723863164 l -11.87645833797302 19.333896501514744" fill="red" stroke="none" /><path d="M 110.99172775467656 82.1063720568725 l 11.86761839875607 -19.31950580817532 a43.67341331009986,43.67341331009986 0 0,0 0.6371760661307084,0.39899959415640496 l -12.19841361725904 19.11236187269597" fill="red" stroke="none" /><path d="M 111.60114157652 82.49532879139004 l 13.486589490403869 -20.349576220397324 a45.41297500167549,45.41297500167549 0 0,0 0.6478816249302403,0.437452565234154 l -13.834875809740652 20.1144117428645" fill="red" stroke="none" /><path d="M 111.90073688211348 82.69761687909136 l 27.007438644016723 -39.26589211761678 a68.65723476978755,68.65723476978755 0 0,0 0.9679652027442256,0.6781214831032797 l -27.6793349863446 38.79518579174956" fill="red" stroke="none" /><path d="M 112.19680574252982 82.90503203632743 l 14.397315162735588 -20.179188442072583 a45.78875410495275,45.78875410495275 0 0,0 0.637673123634196,0.463296643286261 l -14.742533602723572 19.92837256396965" fill="red" stroke="none" /><path d="M 112.48926042617603 83.11751280151076 l 20.0710391903542 -27.131235207598262 a54.74834126399035,54.74834126399035 0 0,0 0.7527997197774212,0.5669931417614461 l -20.535085063890005 26.78172547633097" fill="red" stroke="none" /><path d="M 112.77801427241765 83.33499621200491 l 23.281488908916707 -30.36356765501204 a59.26191274043295,59.26191274043295 0 0,0 0.80417694523838,0.6276728614018969 l -23.800698409314517 29.95831640438692" fill="red" stroke="none" /><path d="M 113.34407831869373 83.78471172551755 l 14.415199731621778 -17.516880042215686 a43.685657797734734,43.685657797734734 0 0,0 0.5765309905535878,0.4828281244449477 l -14.714588259134484 17.266150760376917" fill="red" stroke="none" /><path d="M 113.6212207817346 84.01681056812373 l 22.00629129472896 -25.822261315105937 a54.92736411768648,54.92736411768648 0 0,0 0.7143335125965421,0.6194629829643995 l -22.447518605972267 25.439633338721865" fill="red" stroke="none" /><path d="M 114.16331599549186 84.49514656593476 l 15.132469914893852 -16.565804801680052 a43.43696803163327,43.43696803163327 0 0,0 0.5477031755538934,0.5090304108289238 l -15.415380974242591 16.302869804776485" fill="red" stroke="none" /><path d="M 114.42810811169701 84.74124197986012 l 35.77969682655402 -37.839592806193664 a73.0770725822666,73.0770725822666 0 0,0 0.9065619959729513,0.872111921857851 l -36.42574206613939 37.21809779757351" fill="red" stroke="none" /><path d="M 114.68862486808459 84.99185889309783 l 23.744362430011414 -24.260864787781017 a54.946786408417665,54.946786408417665 0 0,0 0.6702571225566356,0.6673788254653653 l -24.15845535273537 23.848550111665535" fill="red" stroke="none" /><path d="M 114.94478906791727 85.2469230424477 l 18.942152057667137 -18.699161679594468 a47.61698277595335,47.61698277595335 0 0,0 0.5708045818733806,0.5882642967598004 l -19.261220903243625 18.370333187284555" fill="red" stroke="none" /><path d="M 115.4437574822437 85.77008943001954 l 16.683108411084838 -15.371851117966171 a43.685235574023196,43.685235574023196 0 0,0 0.5047857249153961,0.5573970052158408 l -16.945237776616267 15.082401325480781" fill="red" stroke="none" /><path d="M 115.68641384162765 86.03803664274999 l 22.11194573627468 -19.681118912475007 a50.60210441659406,50.60210441659406 0 0,0 0.5735101224396518,0.6556212111975883 l -22.447447722292182 19.297582145074472" fill="red" stroke="none" /><path d="M 115.9244219780498 86.31012108654704 l 18.547719962236286 -15.945071083499702 a45.45941960994571,45.45941960994571 0 0,0 0.505009529144569,0.5977719943019809 l -18.819440104867972 15.623440139568615" fill="red" stroke="none" /><path d="M 116.15771136456269 86.58626213691792 l 28.506919889559203 -23.665749564079853 a58.05013068829167,58.05013068829167 0 0,0 0.6316448760683895,0.7743219315290042 l -28.910063257704003 23.171543462942747" fill="red" stroke="none" /><path d="M 116.60985879189232 87.15038557335679 l 21.93423079119672 -16.968621584516974 a48.73165337443871,48.73165337443871 0 0,0 0.5075611936023101,0.6678910351262792 l -22.223067925023145 16.58854577350966" fill="red" stroke="none" /><path d="M 116.82858285166822 87.43820079747576 l 38.02892046840821 -28.38692164536914 a68.45541183566785,68.45541183566785 0 0,0 0.6967371850028298,0.9503487373348625 l -38.511920265924665 27.728110464362782" fill="red" stroke="none" /><path d="M 117.2510076193507 88.02491185347247 l 18.19558728726904 -12.630784615645753 a43.14985590778098,43.14985590778098 0 0,0 0.4182978558449369,0.6138004882080698 l -18.410309608782708 12.315706104167278" fill="red" stroke="none" /><path d="M 117.45458315368197 88.32363383020206 l 29.84042367584433 -19.9619613045624 a56.90168219288252,56.90168219288252 0 0,0 0.5375945333743781,0.818793356570112 l -30.179614844576637 19.445349884014615" fill="red" stroke="none" /><line stroke="#e1ed5e" stroke-width="0.3" x1="172.23445277983987" x2="176.4835382374775" y1="55.19839476539836" y2="52.563006222186495" /><path d="M 173.08426987136738 54.67131705675599 a86.0,86.0 0 0,1 12.851231095245387,41.99856678651699" fill="none" id="id51" stroke="none" /><text fill="#e1ed5e" style="font-size:6.75px; font-family:Arial;" text-anchor="middle"><textPath startOffset="22.20632615414155" xlink:href="#id51">March</textPath></text><path d="M 117.84615892207809 88.93136811851018 l 45.00949350282438 -27.916007972939134 a73.96374237651632,73.96374237651632 0 0,0 0.6617437472464361,1.0877327266703471 l -45.48335304835704 27.137107473061704" fill="red" stroke="none" /><path d="M 118.21658344932153 89.55222093294921 l 21.2321293993131 -12.177288771200343 a45.47630855840761,45.47630855840761 0 0,0 0.38360859825473526,0.6823968920975094 l -21.438595638860267 11.81000836916804" fill="red" stroke="none" /><path d="M 118.3937258080291 89.86733742301442 l 19.545475558209493 -10.767133902344321 a43.31494537899605,43.31494537899605 0 0,0 0.35413453830324787,0.6561575157606897 l -19.727918195731206 10.429095403251173" fill="red" stroke="none" /><path d="M 118.73160827565052 90.50648371742162 l 38.6144051304024 -19.570475660869157 a64.29059714496347,64.29059714496347 0 0,0 0.4917924139325995,0.991423496908248 l -38.94555755728841 18.902892575461962" fill="red" stroke="none" /><path d="M 118.89224826269711 90.83032412892265 l 26.285687394147235 -12.75820802803612 a50.2183030627974,50.2183030627974 0 0,0 0.37075887662181795,0.7809127494675416 l -26.501404464610808 12.30385286292804" fill="red" stroke="none" /><path d="M 119.04729006885535 91.15688171328212 l 45.82532128488503 -21.275401129723107 a71.52328932377186,71.52328932377186 0 0,0 0.5088292241967475,1.12113774764796 l -46.18475282604512 20.483441373233084" fill="red" stroke="none" /><path d="M 119.196687751892 91.48605970444005 l 24.335574548177938 -10.79309261260003 a47.621627236780384,47.621627236780384 0 0,0 0.32588905934924617,0.7521968805056185 l -24.517754317369864 10.37259658750781" fill="red" stroke="none" /><path d="M 119.47837535516314 92.15188598940014 l 20.458756019443506 -8.243123300993288 a43.05696669124053,43.05696669124053 0 0,0 0.27106708186241796,0.6898361566398544 l -20.597616651187625 7.889738139457649" fill="red" stroke="none" /><path d="M 119.61058180528143 92.48833698450437 l 49.10465501031598 -18.809111559878552 a73.58374103612358,73.58374103612358 0 0,0 0.44288796323098495,1.186719551417155 l -49.42114756204859 17.961068871432065" fill="red" stroke="none" /><path d="M 119.7369772167798 92.82701384747503 l 19.862507619425227 -7.218607517438486 a42.133563434086184,42.133563434086184 0 0,0 0.24186053649921668,0.6837723059733987 l -19.983821236734254 6.875637585038473" fill="red" stroke="none" /><path d="M 119.85752413597 93.16781622104841 l 59.57257240790998 -20.496551336854747 a84.0,84.0 0 0,0 0.45865082491291975,1.371307588310744 l -59.91656052659467 19.46807064562169" fill="red" stroke="none" /><path d="M 119.97218684219823 93.5106431181261 l 21.315935811495375 -6.925967388791208 a43.41290128007506,43.41290128007506 0 0,0 0.22480547371049453,0.7126947852977226 l -21.431996768974077 6.558022437067066" fill="red" stroke="none" /><path d="M 120.18372546131832 94.20196356495316 l 42.200773294979285 -12.1227184555383 a64.90746598753435,64.90746598753435 0 0,0 0.29923339983843555,1.076501748913193 l -42.403193465384085 11.394505403206155" fill="red" stroke="none" /><line stroke="#e1ed5e" stroke-width="0.3" x1="184.98032266829074" x2="189.97916517819016" y1="98.17113171792111" y2="98.06355123074" /><path d="M 185.9800911702706 98.14961562048488 a86.0,86.0 0 0,1 -9.607161424134198,41.387399972396054" fill="none" id="id52" stroke="none" /><text fill="#e1ed5e" style="font-size:6.75px; font-family:Arial;" text-anchor="middle"><textPath startOffset="21.466115282336823" xlink:href="#id52">April</textPath></text><line stroke="#e1ed5e" stroke-width="0.3" x1="174.80103733775053" x2="179.2010983576182" y1="140.37084112569926" y2="142.7455964860345" /><path d="M 175.68104954172406 140.8457921977663 a86.0,86.0 0 0,1 -30.038265399797805,32.042727171017184" fill="none" id="id53" stroke="none" /><text fill="#e1ed5e" style="font-size:6.75px; font-family:Arial;" text-anchor="middle"><textPath startOffset="22.206326154141568" xlink:href="#id53">May</textPath></text><line stroke="#e1ed5e" stroke-width="0.3" x1="143.8653032363475" x2="146.44561519142675" y1="172.8068346515853" y2="177.08958963109032" /><path d="M 144.38136562736335 173.6633856474863 a86.0,86.0 0 0,1 -40.68145358897372,12.25698825130547" fill="none" id="id54" stroke="none" /><text fill="#e1ed5e" style="font-size:6.75px; font-family:Arial;" text-anchor="middle"><textPath startOffset="21.466115282336833" xlink:href="#id54">June</textPath></text><line stroke="#e1ed5e" stroke-width="0.3" x1="102.19456741930631" x2="102.32365962044197" y1="184.97166512339345" y2="189.96999836594603" /><path d="M 102.22038585953345 185.97133177190398 a86.0,86.0 0 0,1 -42.740103519485714,-10.115201625700543" fill="none" id="id55" stroke="none" /><text fill="#e1ed5e" style="font-size:6.75px; font-family:Arial;" text-anchor="middle"><textPath startOffset="22.20632615414155" xlink:href="#id55">July</textPath></text><line stroke="#e1ed5e" stroke-width="0.3" x1="58.666819895761336" x2="56.23545636021788" y1="174.27360380694188" y2="178.64263932499728" /><path d="M 58.180547188652646 175.14741091055294 a86.0,86.0 0 0,1 -31.652253787137756,-30.449443065178592" fill="none" id="id56" stroke="none" /><text fill="#e1ed5e" style="font-size:6.75px; font-family:Arial;" text-anchor="middle"><textPath startOffset="22.20632615414155" xlink:href="#id56">August</textPath></text><line stroke="#e1ed5e" stroke-width="0.3" x1="26.63291911575756" x2="22.317208475507996" y1="142.92168965132927" y2="145.44649492493687" /><path d="M 25.769776987707644 143.4266507060508 a86.0,86.0 0 0,1 -11.730757126820373,-40.83630448921669" fill="none" id="id57" stroke="none" /><text fill="#e1ed5e" style="font-size:6.75px; font-family:Arial;" text-anchor="middle"><textPath startOffset="21.46611528233685" xlink:href="#id57">September</textPath></text><line stroke="#e1ed5e" stroke-width="0.3" x1="15.007084014347285" x2="10.007500721073583" y1="101.09737516637583" y2="101.16192664675087" /><path d="M 14.007167355692545 101.11028546245083 a86.0,86.0 0 0,1 10.666146001902534,-42.60595125391555" fill="none" id="id58" stroke="none" /><text fill="#e1ed5e" style="font-size:6.75px; font-family:Arial;" text-anchor="middle"><textPath startOffset="22.20632615414155" xlink:href="#id58">October</textPath></text><line stroke="#e1ed5e" stroke-width="0.3" x1="26.266209847984243" x2="21.928928074336255" y1="57.711370442889674" y2="55.22380399835377" /><path d="M 25.398753493254645 57.213857153982495 a86.0,86.0 0 0,1 29.58750427330803,-30.492523968695096" fill="none" id="id59" stroke="none" /><text fill="#e1ed5e" style="font-size:6.75px; font-family:Arial;" text-anchor="middle"><textPath startOffset="21.46611528233685" xlink:href="#id59">November</textPath></text><line stroke="#e1ed5e" stroke-width="0.3" x1="56.762969772571076" x2="54.21961505331055" y1="26.818313649435495" y2="22.513508569990535" /><path d="M 56.25429882871897 25.957352633546506 a86.0,86.0 0 0,1 42.265352541879196,-11.944610805530505" fill="none" id="id60" stroke="none" /><text fill="#e1ed5e" style="font-size:6.75px; font-family:Arial;" text-anchor="middle"><textPath startOffset="22.20632615414155" xlink:href="#id60">December</textPath></text></svg>