<?xml version="1.0" encoding="utf-8" ?>
<svg baseProfile="full" height="200mm" version="1.1" viewBox="0,0,200,200" width="200mm" xmlns="http://www.w3.org/2000/svg" xmlns:ev="http://www.w3.org/2001/xml-events" xmlns:xlink="http://www.w3.org/1999/xlink"><defs /><rect fill="#1a1a1a" height="200" width="200" x="0" y="0" /><text alignment-baseline="middle" fill="#e1ed5e" style="dominant-baseline: central; font-size:9.0px; font-family:Arial;" text-anchor="middle" x="100.0" y="100.0">2019</text><line stroke="#e1ed5e" stroke-width="0.3" x1="100.0" x2="100.0" y1="15.0" y2="10.0" /><path d="M 100.0 14.0 a86.0,86.0 0 0,1 42.46469731375804,11.215312516191453" fill="none" id="id49" stroke="none" /><text fill="#e1ed5e" style="font-size:6.75px; font-family:Arial;" text-anchor="middle"><textPath startOffset="22.20632615414155" xlink:href="#id49">January</textPath></text><line stroke="#e1ed5e" stroke-width="0.3" x1="143.23703022742887" x2="145.7803849466894" y1="26.81831364943548" y2="22.513508569990506" /><path d="M 143.74570117128098 25.957352633546492 a86.0,86.0 0 0,1 28.547481713284135,27.462654790039103" fill="none" id="id50" stroke="none" /><text fill="#e1ed5e" style="font-size:6.75px; font-family:Arial;" text-anchor="middle"><textPath startOffset="19.985693538727396" xlink:href="#id50">February</textPath></text><line stroke="#e1ed5e" stroke-width="0.3" x1="172.23445277983987" x2="176.4835382374775" y1="55.19839476539836" y2="52.563006222186495" /><path d="M 173.08426987136738 54.67131705675599 a86.0,86.0 0 0,1 12.851231095245387,41.99856678651699" fill="none" id="id51" stroke="none" /><text fill="#e1ed5e" style="font-size:6.75px; font-family:Arial;" text-anchor="middle"><textPath startOffset="22.20632615414155" xlink:href="#id51">March</textPath></text><path d="M 120.98425023603335 99.18683210126433 l 38.123957426406946 -1.4773545875222824 a59.152571426153735,59.152571426153735 0 0,0 0.030670060543916244,1.0177899958497305 l -38.14373918140651 0.8208944442475528" fill="#b6ff1f" stroke="none" /><line stroke="#e1ed5e" stroke-width="0.3" x1="184.98032266829074" x2="189.97916517819016" y1="98.17113171792111" y2="98.06355123074" /><path d="M 185.9800911702706 98.14961562048488 a86.0,86.0 0 0,1 -9.607161424134198,41.387399972396054" fill="none" id="id52" stroke="none" /><text fill="#e1ed5e" style="font-size:6.75px; font-family:Arial;" text-anchor="middle"><textPath startOffset="21.466115282336823" xlink:href="#id52">April</textPath></text><path d="M 120.99513854157772 99.54816195383933 l 46.91716811118878 -1.0097081059393707 a67.92803185765145,67.92803185765145 0 0,0 0.015096173389869075,1.1692152656121328 l -46.927597291696365 0.20195658226677501" fill="#2fff31" stroke="none" /><path d="M 120.99824983174949 100.27111621757518 l 50.30738387759261 0.6495373539357209 a71.31157691209472,71.31157691209472 0 0,0 -0.02641223690740678,1.2272728641951214 l -50.28874957800019 -1.515400033920957" fill="#36ff6c" stroke="none" /><path d="M 120.9904718944345 100.63252640178507 l 48.51005800220681 1.461800982504666 a69.53207794325235,69.53207794325235 0 0,0 -0.04634765664902052,1.196027076928491 l -48.47770821270659 -2.296605306447163" fill="#32ff4d" stroke="none" /><path d="M 120.95626037817324 101.35467743843564 l 52.073838633634324 3.3662138691116956 a73.18252644185011,73.18252644185011 0 0,0 -0.09208258067770396,1.2563936533963047 l -52.00817949429228 -4.262080659004771" fill="#39ff8b" stroke="none" /><path d="M 120.92983693683757 101.71520430193887 l 52.33884871936909 4.289179067801846 a73.51430416890881,73.51430416890881 0 0,0 -0.11421113585335874,1.260310367081361 l -52.257262987238654 -5.189470823431777" fill="#3aff90" stroke="none" /><path d="M 120.8583938346157 102.4346265915055 l 22.328490236926438 2.6062187007312207 a43.480076783155354,43.480076783155354 0 0,0 -0.09316846824157857,0.742644361158984 l -22.28032025943801 -2.9901808161776" fill="#ff1e03" stroke="none" /><path d="M 120.49622156327973 104.57218783832717 l 50.421708689494295 11.247805969799014 a72.66102831247623,72.66102831247623 0 0,0 -0.2828224444364707,1.2183916884812473 l -50.220625679127274 -12.114066315628826" fill="#38ff82" stroke="none" /><path d="M 120.32669344350535 105.2749913415812 l 51.181922062666615 13.282248609515685 a73.87728504900626,73.87728504900626 0 0,0 -0.33002715357591134,1.2281538115705999 l -50.945706832748925 -14.161293354261833" fill="#3aff96" stroke="none" /><line stroke="#e1ed5e" stroke-width="0.3" x1="174.80103733775053" x2="179.2010983576182" y1="140.37084112569926" y2="142.7455964860345" /><path d="M 175.68104954172406 140.8457921977663 a86.0,86.0 0 0,1 -30.038265399797805,32.042727171017184" fill="none" id="id53" stroke="none" /><text fill="#e1ed5e" style="font-size:6.75px; font-family:Arial;" text-anchor="middle"><textPath startOffset="22.206326154141568" xlink:href="#id53">May</textPath></text><path d="M 115.80600337817218 113.82643327865902 l 36.14408687616043 31.617341440115414 a69.02136291123225,69.02136291123225 0 0,0 -0.7899368457583369,0.8875024202724977 l -35.59449118075375 -32.23481803012878" fill="#31ff44" stroke="none" /><path d="M 111.45004920935366 117.60387380957326 l 28.291270396222636 43.49640292906061 a72.88769650311502,72.88769650311502 0 0,0 -1.0576289300656885,0.6750288231488188 l -27.53835966411002 -43.976946181033234" fill="#39ff86" stroke="none" /><line stroke="#e1ed5e" stroke-width="0.3" x1="143.8653032363475" x2="146.44561519142675" y1="172.8068346515853" y2="177.08958963109032" /><path d="M 144.38136562736335 173.6633856474863 a86.0,86.0 0 0,1 -40.68145358897372,12.25698825130547" fill="none" id="id54" stroke="none" /><text fill="#e1ed5e" style="font-size:6.75px; font-family:Arial;" text-anchor="middle"><textPath startOffset="21.466115282336833" xlink:href="#id54">June</textPath></text><path d="M 105.53697534728816 120.25689768951611 l 12.029271838773901 44.00881593897023 a66.62323159664689,66.62323159664689 0 0,0 -1.1088312463719574,0.292852410177205 l -11.269950149590446 -44.20935969845102" fill="#41ff2d" stroke="none" /><line stroke="#e1ed5e" stroke-width="0.3" x1="102.19456741930631" x2="102.32365962044197" y1="184.97166512339345" y2="189.96999836594603" /><path d="M 102.22038585953345 185.97133177190398 a86.0,86.0 0 0,1 -42.740103519485714,-10.115201625700543" fill="none" id="id55" stroke="none" /><text fill="#e1ed5e" style="font-size:6.75px; font-family:Arial;" text-anchor="middle"><textPath startOffset="22.20632615414155" xlink:href="#id55">July</textPath></text><line stroke="#e1ed5e" stroke-width="0.3" x1="58.666819895761336" x2="56.23545636021788" y1="174.27360380694188" y2="178.64263932499728" /><path d="M 58.180547188652646 175.14741091055294 a86.0,86.0 0 0,1 -31.652253787137756,-30.449443065178592" fill="none" id="id56" stroke="none" /><text fill="#e1ed5e" style="font-size:6.75px; font-family:Arial;" text-anchor="middle"><textPath startOffset="22.20632615414155" xlink:href="#id56">August</textPath></text><path d="M 86.24171649860922 115.8653595955263 l -34.66355211396493 39.97226246215429 a73.90882356942849,73.90882356942849 0 0,0 -0.9539786579129248,-0.8417752484115294 l 35.346473124784445 -39.369664071970476" fill="#3aff97" stroke="none" /><path d="M 83.95833913139862 113.55231037782056 l -45.383913939286906 38.341222452182265 a80.41169063051754,80.41169063051754 0 0,0 -0.8841610010433305,-1.0650288831109191 l 46.037170940223774 -37.55433231195759" fill="#46fffa" stroke="none" /><path d="M 83.72743513129214 113.27417163493432 l -44.226742720684804 36.07749475667445 a78.07530463869219,78.07530463869219 0 0,0 -0.8405441852223015,-1.0487081106415839 l 44.841204817961966 -35.310858812454605" fill="#42ffd8" stroke="none" /><path d="M 82.85270091963577 112.12312394758628 l -51.44189724109269 36.36937184275885 a84.0,84.0 0 0,0 -0.8245563713514645,-1.1878349512519497 l 52.06031451960629 -35.47849562931989" fill="#4dd2ff" stroke="none" /><path d="M 82.6465618267979 111.8261652097733 l -45.424383281592014 30.956186081311085 a75.96962846166721,75.96962846166721 0 0,0 -0.7271266382807476,-1.0869556663918967 l 45.95051302528349 -30.169693500713368" fill="#3effb8" stroke="none" /><path d="M 82.44556493220864 111.52570212397912 l -49.133298345531145 32.259412445474794 a79.77712733400831,79.77712733400831 0 0,0 -0.7438082640832848,-1.154406943672445 l 49.681311472991474 -31.4088839018809" fill="#45fff1" stroke="none" /><path d="M 82.24976979558568 111.22182372390057 l -52.60056871069105 33.25445940985592 a83.23085166804232,83.23085166804232 0 0,0 -0.7551628720625408,-1.2175629988579104 l 53.16519622242155 -32.344100079632746" fill="#4cdcff" stroke="none" /><line stroke="#e1ed5e" stroke-width="0.3" x1="26.63291911575756" x2="22.317208475507996" y1="142.92168965132927" y2="145.44649492493687" /><path d="M 25.769776987707644 143.4266507060508 a86.0,86.0 0 0,1 -11.730757126820373,-40.83630448921669" fill="none" id="id57" stroke="none" /><text fill="#e1ed5e" style="font-size:6.75px; font-family:Arial;" text-anchor="middle"><textPath startOffset="21.46611528233685" xlink:href="#id57">September</textPath></text><path d="M 81.87401531095188 110.60418214915194 l -53.81047169587216 31.480554197951193 a83.34253890196004,83.34253890196004 0 0,0 -0.7137613931957315,-1.2445031521636514 l 54.34438508522027 -30.549631199929237" fill="#4cdbff" stroke="none" /><path d="M 81.69416730710424 110.29060199501025 l -53.71690714344481 30.196895224036407 a82.62271167539534,82.62271167539534 0 0,0 -0.6862547633940266,-1.2457517317307905 l 54.22873831629035 -29.267772973907793" fill="#4ae5ff" stroke="none" /><path d="M 81.51974371655577 109.97397251340807 l -54.13459744817665 29.21696423962657 a82.51573489974538,82.51573489974538 0 0,0 -0.6638488782520102,-1.2557518996710637 l 54.629498834653546 -28.28079732486938" fill="#4ae6ff" stroke="none" /><path d="M 81.18737489456691 109.33194174019688 l -56.209094987382855 27.882339479563765 a83.74461900557105,83.74461900557105 0 0,0 -0.6294673993366906,-1.2968892847186295 l 56.68071564333427 -26.91066123887985" fill="#4dd5ff" stroke="none" /><path d="M 80.73074385275274 108.34839909993369 l -56.02028681463621 24.27077145311326 a82.0519686965405,82.0519686965405 0 0,0 -0.5503304420070144,-1.3008185999200588 l 56.429768237835525 -23.302878327527043" fill="#49edff" stroke="none" /><path d="M 79.58551787078972 104.9243191809786 l -57.18646987034154 13.794346028109183 a79.82666333028496,79.82666333028496 0 0,0 -0.31071363258426654,-1.3385461970417418 l 57.41544406885637 -12.807931173718867" fill="#45fff2" stroke="none" /><line stroke="#e1ed5e" stroke-width="0.3" x1="15.007084014347285" x2="10.007500721073583" y1="101.09737516637583" y2="101.16192664675087" /><path d="M 14.007167355692545 101.11028546245083 a86.0,86.0 0 0,1 10.666146001902534,-42.60595125391555" fill="none" id="id58" stroke="none" /><text fill="#e1ed5e" style="font-size:6.75px; font-family:Arial;" text-anchor="middle"><textPath startOffset="22.20632615414155" xlink:href="#id58">October</textPath></text><path d="M 79.46518482838121 95.60439243477599 l -41.07934332981367 -8.793294256893416 a63.00993301943031,63.00993301943031 0 0,0 0.23615406682165788,-1.0586323764023746 l 40.92189487598997 9.49910480284575" fill="#78ff26" stroke="none" /><path d="M 81.10775173730289 90.83032412892265 l -18.975618241749657 -9.210140916563738 a42.092671318720726,42.092671318720726 0 0,0 0.3219888654950262,-0.6491099048110704 l 18.814269363301218 9.53541040987377" fill="#ff0000" stroke="none" /><line stroke="#e1ed5e" stroke-width="0.3" x1="26.266209847984243" x2="21.928928074336255" y1="57.711370442889674" y2="55.22380399835377" /><path d="M 25.398753493254645 57.213857153982495 a86.0,86.0 0 0,1 29.58750427330803,-30.492523968695096" fill="none" id="id59" stroke="none" /><text fill="#e1ed5e" style="font-size:6.75px; font-family:Arial;" text-anchor="middle"><textPath startOffset="21.46611528233685" xlink:href="#id59">November</textPath></text><line stroke="#e1ed5e" stroke-width="0.3" x1="56.762969772571076" x2="54.21961505331055" y1="26.818313649435495" y2="22.513508569990535" /><path d="M 56.25429882871897 25.957352633546506 a86.0,86.0 0 0,1 42.265352541879196,-11.944610805530505" fill="none" id="id60" stroke="none" /><text fill="#e1ed5e" style="font-size:6.75px; font-family:Arial;" text-anchor="middle"><textPath startOffset="22.20632615414155" xlink:href="#id60">December</textPath></text></svg>