<?xml version="1.0" encoding="utf-8" ?>
<svg baseProfile="full" height="200mm" version="1.1" viewBox="0,0,200,200" width="200mm" xmlns="http://www.w3.org/2000/svg" xmlns:ev="http://www.w3.org/2001/xml-events" xmlns:xlink="http://www.w3.org/1999/xlink"><defs /><rect fill="#1a1a1a" height="200" width="200" x="0" y="0" /><text alignment-baseline="middle" fill="#e1ed5e" style="dominant-baseline: central; font-size:9.0px; font-family:Arial;" text-anchor="middle" x="100.0" y="100.0">2024</text><line stroke="#e1ed5e" stroke-width="0.3" x1="100.0" x2="100.0" y1="15.0" y2="10.0" /><path d="M 100.0 14.0 a86.0,86.0 0 0,1 42.35913384403234,11.155469271406648" fill="none" id="id61" stroke="none" /><text fill="#e1ed5e" style="font-size:6.75px; font-family:Arial;" text-anchor="middle"><textPath startOffset="22.145653131862478" xlink:href="#id61">January</textPath></text><path d="M 100.36049292484886 79.00309439819443 l 0.9828422994905346 -57.24563663077902 a78.25407314985421,78.25407314985421 0 0,0 1.34293933728294,0.034589353594628246 l -1.965394950844216 57.22032955983435" fill="#43ffdf" stroke="none" /><path d="M 101.44090949804482 79.04949213459386 l 3.2098267503669393 -46.670176490197626 a67.7804271185457,67.7804271185457 0 0,0 1.1601136692277574,0.08980013506985537 l -4.01050941436993 46.608198588132716" fill="#31ff3e" stroke="none" /><path d="M 102.51750503828377 79.15144685158666 l 4.722581883007989 -39.10975266716736 a60.393851466043785,60.393851466043785 0 0,0 1.0281972057401894,0.13312071350826088 l -5.3932569106389705 39.02292035745871" fill="#8dff24" stroke="none" /><path d="M 103.23170211078529 79.25015418208739 l 7.858680718659686 -50.45836765096099 a72.06667924035574,72.06667924035574 0 0,0 1.2207494802882282,0.2008738624317699 l -8.723707702000985 50.31602779003355" fill="#38ff83" stroke="none" /><path d="M 104.29559338865022 79.4440306129975 l 11.439314701839491 -54.741261926839215 a76.92373090370972,76.92373090370972 0 0,0 1.2902585275315592,0.28120584078057104 l -12.377335645990184 54.53682462792493" fill="#41ffcc" stroke="none" /><path d="M 104.9986988182912 79.60360301121754 l 12.038410304950066 -49.1208221617859 a71.57448459964891,71.57448459964891 0 0,0 1.1908450504398977,0.30270815505847726 l -12.87986064861536 48.90692877489216" fill="#37ff7c" stroke="none" /><path d="M 106.04205211174951 79.88797359093562 l 11.47088769662647 -38.18285443803664 a60.86867990772846,60.86867990772846 0 0,0 0.9981285757602235,0.30922278420292754 l -12.124656905258323 37.98031506602707" fill="#85ff25" stroke="none" /><path d="M 106.38641147887787 79.99465700312896 l 16.547622337610147 -51.83519128722682 a75.4124145835449,75.4124145835449 0 0,0 1.2298589187593298,0.404279054698297 l -17.43500399401722 51.5434913111265" fill="#3effb6" stroke="none" /><path d="M 106.72888874123014 80.10723608172694 l 14.883079260021455 -43.999179282377014 a67.44818431093766,67.44818431093766 0 0,0 1.0936055925675252,0.3804127938185744 l -15.636190624633999 43.737208055989846" fill="#30ff38" stroke="none" /><path d="M 109.06512990194946 81.05736502329252 l 24.26267347442134 -50.69965595155672 a77.20616014043843,77.20616014043843 0 0,0 1.1905916026339292,0.5823780141542978 l -25.12942532631734 50.2756841873052" fill="#41ffd0" stroke="none" /><path d="M 110.02825361518725 81.54914285379988 l 27.020721773270154 -49.71508465549685 a77.58364646655157,77.58364646655157 0 0,0 1.1646997834582293,0.6460393365557797 l -27.87016574488448 49.24391240350793" fill="#42ffd6" stroke="none" /><line stroke="#e1ed5e" stroke-width="0.3" x1="143.13028292997686" x2="145.6673583964461" y1="26.7553504044142" y2="22.446841604673864" /><path d="M 143.63769802327073 25.89364864446614 a86.0,86.0 0 0,1 29.32050498858742,28.57503671076993" fill="none" id="id62" stroke="none" /><text fill="#e1ed5e" style="font-size:6.75px; font-family:Arial;" text-anchor="middle"><textPath startOffset="20.669276256404974" xlink:href="#id62">February</textPath></text><path d="M 110.96478420261332 82.08984904055464 l 29.012525978040753 -47.38978080915584 a76.56543879756845,76.56543879756845 0 0,0 1.1150694132977281,0.6958857840750157 l -29.821759520128193 46.884759228239275" fill="#40ffc7" stroke="none" /><path d="M 111.5731344415666 82.4767994020092 l 15.174344236026256 -22.975891218875308 a48.5345655548624,48.5345655548624 0 0,0 0.6912794625266087,0.46512367321010434 l -15.566519986649867 22.712017871608083" fill="#ffac0f" stroke="none" /><path d="M 113.31354834802062 83.75963576809568 l 39.94064504406186 -48.72109269571298 a84.0,84.0 0 0,0 1.1073026633524292,0.9237512643525192 l -40.77112204157618 48.028279247448594" fill="#4dd2ff" stroke="none" /><path d="M 114.65682725009322 84.96080404539774 l 36.61931535032974 -37.5746435350448 a73.46740029306369,73.46740029306369 0 0,0 0.895630861050984,0.8879759424244005 l -37.25893813151069 36.94048758239174" fill="#3bff99" stroke="none" /><path d="M 115.16444852881244 85.47280134310134 l 40.238579371653266 -38.5476488045536 a76.72310560448011,76.72310560448011 0 0,0 0.9029365698944818,0.9588873469274379 l -40.89437177528401 37.851219997681675" fill="#40ffca" stroke="none" /><path d="M 115.6541949942343 86.00192230759917 l 27.832657689198918 -24.88813413036577 a58.33732789763083,58.33732789763083 0 0,0 0.6611256475169531,0.7522396257130896 l -28.25579440067446 24.406682226841383" fill="#acff20" stroke="none" /><path d="M 116.35404254752997 86.82634096563983 l 40.603115573233374 -32.70699576205293 a73.13789951688018,73.13789951688018 0 0,0 0.7792096816328846,0.984505977971158 l -41.15859168550782 32.00516984016709" fill="#3aff94" stroke="none" /><path d="M 116.57777611688842 87.10902102172516 l 41.26321444017356 -32.08652512700025 a73.27043103573345,73.27043103573345 0 0,0 0.7635756643127571,0.999545055693517 l -41.80794208184063 31.373459158065852" fill="#3aff96" stroke="none" /><path d="M 117.21940702142032 87.97951657250589 l 41.281534138307045 -28.81771691404748 a71.3450679704615,71.3450679704615 0 0,0 0.6924217657137278,1.010264049451508 l -41.7701456408361 28.104818129525924" fill="#37ff78" stroke="none" /><path d="M 117.81537515405839 88.88188828441811 l 47.30843187191519 -29.523960404568214 a76.7651500863232,76.7651500863232 0 0,0 0.6880790695064364,1.1239254488891581 l -47.808278905877025 28.707497839554502" fill="#40ffca" stroke="none" /><line stroke="#e1ed5e" stroke-width="0.3" x1="172.87174338648825" x2="177.1583165268699" y1="56.24261187166439" y2="53.66864786411523" /><path d="M 173.72905801456457 55.72781907015455 a86.0,86.0 0 0,1 12.242430191666344,42.057860355516425" fill="none" id="id63" stroke="none" /><text fill="#e1ed5e" style="font-size:6.75px; font-family:Arial;" text-anchor="middle"><textPath startOffset="22.145653131862474" xlink:href="#id63">March</textPath></text><path d="M 118.70294669586156 90.45014215332178 l 25.169080718267587 -12.851511951547753 a49.260289871893455,49.260289871893455 0 0,0 0.3780846569888943,0.7564225828488136 l -25.385985288468216 12.417557512535188" fill="#ffb911" stroke="none" /><path d="M 118.8641267826498 90.77261029715802 l 47.36215794059603 -23.167204796746084 a73.724694241734,73.724694241734 0 0,0 0.5463376964084404,1.1416356598326072 l -47.752874894964386 22.350756634848373" fill="#3bff9d" stroke="none" /><path d="M 119.0197475246899 91.09779779509293 l 45.561217856142896 -21.32495047742858 a71.3048515095681,71.3048515095681 0 0,0 0.5093731170304263,1.1130721879229681 l -45.92057543802837 20.539689307290924" fill="#37ff77" stroke="none" /><path d="M 119.71291397450082 92.76114493625339 l 49.68411069588434 -18.244693644170216 a73.92806157238817,73.92806157238817 0 0,0 0.42723318959075823,1.1950472688735723 l -49.989984055519045 17.389111418915725" fill="#3cffa0" stroke="none" /><path d="M 119.83427380445688 93.10060997987247 l 49.043836794372396 -17.059992287281105 a72.92630609195234,72.92630609195234 0 0,0 0.4011453097379308,1.1859148293898318 l -49.329467525682695 16.215575783417112" fill="#3aff91" stroke="none" /><path d="M 119.94978838288452 93.4421083053983 l 50.3106473625823 -16.538109084513923 a73.95913792853308,73.95913792853308 0 0,0 0.38612052893636967,1.209517057435624 l -50.58713260729593 15.672022993386912" fill="#3cffa1" stroke="none" /><path d="M 120.16314734710363 94.1308016681162 l 43.95833493187377 -12.795630643030721 a66.78278468524671,66.78278468524671 0 0,0 0.31095816142771104,1.103480814546277 l -44.17151158537607 12.039141904581431" fill="#31ff2f" stroke="none" /><path d="M 120.35273937422433 94.82641323984039 l 29.474074926902905 -7.4921945889452894 a51.41141352445341,51.41141352445341 0 0,0 0.21008288380129267,0.8572098568691416 l -29.59834533722049 6.985128907468053" fill="#ffdf14" stroke="none" /><path d="M 120.51834098615036 95.52812308129327 l 49.18677407973785 -10.720028478973555 a71.34141192856211,71.34141192856211 0 0,0 0.2505180489825712,1.1988195529362276 l -49.363549839544795 9.874092474751924" fill="#37ff78" stroke="none" /><path d="M 120.592083275326 95.88100663000786 l 50.33733218080328 -10.06887621536865 a72.33448430948684,72.33448430948684 0 0,0 0.2331020356705295,1.219688350172726 l -50.50276050875597 9.20328530016261" fill="#39ff88" stroke="none" /><path d="M 120.65975698304385 96.23510406497455 l 47.58125440354716 -8.670889567304762 a69.36486427669854,69.36486427669854 0 0,0 0.20342132505270835,1.173280145790515 l -47.7230905460921 7.852816388593654" fill="#34ff58" stroke="none" /><path d="M 120.77682067341334 96.94652285012252 l 51.0990963973146 -7.509807476379084 a72.64798990236046,72.64798990236046 0 0,0 0.17074174585347804,1.23540221809024 l -51.22048265972329 6.631516950088758" fill="#39ff8c" stroke="none" /><path d="M 120.82617615685814 97.30363454192243 l 36.45766759543775 -4.720174978162793 a57.761958303712625,57.761958303712625 0 0,0 0.11887387292584556,0.9844461957230914 l -36.53332355462325 4.093635105516288" fill="#b5ff1f" stroke="none" /><path d="M 120.86939407059847 97.66154086499901 l 51.58019694864152 -5.779668654090525 a72.90299882484368,72.90299882484368 0 0,0 0.12868284511185074,1.2448897947905575 l -51.67181218623504 4.893374337017035" fill="#3aff90" stroke="none" /><path d="M 120.93736805541906 98.37931529534042 l 51.33584328419705 -3.9737189407608184 a72.48940908497397,72.48940908497397 0 0,0 0.0853857542022537,1.2414901265036877 l -51.396492999564366 3.0918853901027967" fill="#39ff8a" stroke="none" /><path d="M 120.96210409425399 98.7389718711861 l 52.07574582493781 -3.132747553343701 a73.16988988349993,73.16988988349993 0 0,0 0.06466270742263627,1.2544392492180276 l -52.12185012181702 2.2383365107489426" fill="#3aff95" stroke="none" /><line stroke="#e1ed5e" stroke-width="0.3" x1="184.99686870605535" x2="189.99668451229388" y1="99.2704041080226" y2="99.22748670261217" /><path d="M 185.99683186730306 99.26182062694052 a86.0,86.0 0 0,1 -10.086455211305974,41.156179273409016" fill="none" id="id64" stroke="none" /><text fill="#e1ed5e" style="font-size:6.75px; font-family:Arial;" text-anchor="middle"><textPath startOffset="21.40746469413373" xlink:href="#id64">April</textPath></text><path d="M 120.99303781780057 100.54070618675476 l 52.743762590822385 1.3584922293332746 a73.76125466072801,73.76125466072801 0 0,0 -0.04346755304437503,1.2655103796262663 l -52.71267035078117 -2.263708873523652" fill="#3bff9e" stroke="none" /><path d="M 120.82617615685814 102.69636545807757 l 52.18267393413702 6.756091874302033 a73.61821202141397,73.61821202141397 0 0,0 -0.17302202117418677,1.2519011543929512 l -52.05900739640762 -7.65088133689507" fill="#3bff9b" stroke="none" /><path d="M 120.7213421655516 103.40968896794604 l 47.1954895261646 7.765999841540301 a68.83016814891117,68.83016814891117 0 0,0 -0.20185326035670925,1.1642359653209848 l -47.055221448315656 -8.575028839781874" fill="#33ff4f" stroke="none" /><path d="M 120.65975698304385 103.76489593502545 l 50.97843817254653 9.289969616161931 a72.81799585068262,72.81799585068262 0 0,0 -0.23466017941895415,1.227841216673403 l -50.81145170084542 -10.16371339786865" fill="#3aff8f" stroke="none" /><path d="M 120.35273937422433 105.17358676015961 l 28.015541171785454 7.121441011946311 a49.90649527761255,49.90649527761255 0 0,0 -0.21818767822161356,0.8284941529620173 l -27.88916401275911 -7.6013156692811314" fill="#ffc512" stroke="none" /><path d="M 120.16314734710363 105.8691983318838 l 29.183718286923465 8.494955065255839 a51.3949613359061,51.3949613359061 0 0,0 -0.25385116776339767,0.8449879768665264 l -29.03359079915644 -8.994680645713089" fill="#ffdf14" stroke="none" /><path d="M 120.05942366710727 106.21446072829308 l 35.31403811948096 10.940379279730653 a57.96989568674105,57.96989568674105 0 0,0 -0.3026450471418449,0.9480312996431989 l -35.121028356561865 -11.544979613065236" fill="#b2ff20" stroke="none" /><path d="M 119.4528033332814 107.91128576633889 l 43.58021179968633 17.723692744840697 a68.04640416672711,68.04640416672711 0 0,0 -0.4493465538166597,1.078268150290779 l -43.26953940133318 -18.469193404572753" fill="#31ff42" stroke="none" /><path d="M 119.31412917781788 108.2440532568976 l 35.573113776214804 15.184046962966734 a59.67818126423607,59.67818126423607 0 0,0 -0.41026225511455305,0.9387603275414147 l -35.307217639083284 -15.792469360283993" fill="#98ff23" stroke="none" /><line stroke="#e1ed5e" stroke-width="0.3" x1="174.33088141563837" x2="178.70328620479359" y1="141.23008692659167" y2="143.65538615756765" /><path d="M 175.20536237346943 141.71514677278685 a86.0,86.0 0 0,1 -30.301960400862466,31.631185727798858" fill="none" id="id65" stroke="none" /><text fill="#e1ed5e" style="font-size:6.75px; font-family:Arial;" text-anchor="middle"><textPath startOffset="22.145653131862474" xlink:href="#id65">May</textPath></text><path d="M 115.89218393027572 113.72728997021213 l 18.401542872419665 15.894814458305374 a45.3158776676774,45.3158776676774 0 0,0 -0.513556071995878,0.5843325377434501 l -18.1259757364652 -16.20835927386012" fill="#ff700a" stroke="none" /><path d="M 115.41159269507618 114.26474011684316 l 28.567132315256917 26.44131118847983 a59.925878102920485,59.925878102920485 0 0,0 -0.7052538657794666,0.7489551656398351 l -28.109022615741193 -26.92780781406416" fill="#94ff23" stroke="none" /><path d="M 111.27062007382361 117.71928675628689 l 16.059983631824014 25.2489617616062 a50.92378893612083,50.92378893612083 0 0,0 -0.7416343502193901,0.46283468557628155 l -15.624185152814908 -25.52093224402403" fill="#ffd714" stroke="none" /><path d="M 110.96478420261333 117.91015095944535 l 9.724849047053537 15.884810067582992 a39.62524845126003,39.62524845126003 0 0,0 -0.5831841099789353,0.3501853018018784 l -9.450732180517164 -16.04940936992079" fill="#ff0000" stroke="none" /><line stroke="#e1ed5e" stroke-width="0.3" x1="143.1302829299769" x2="145.66735839644613" y1="173.24464959558577" y2="177.55315839532614" /><path d="M 143.63769802327073 174.10635135553383 a86.0,86.0 0 0,1 -40.68552437913181,11.842963189579606" fill="none" id="id66" stroke="none" /><text fill="#e1ed5e" style="font-size:6.75px; font-family:Arial;" text-anchor="middle"><textPath startOffset="21.407464694133747" xlink:href="#id66">June</textPath></text><path d="M 109.71004243097381 118.62028667847754 l 16.948022758871485 32.500068320700436 a57.65364806244287,57.65364806244287 0 0,0 -0.8814769981788511,0.45008843604239523 l -16.38761853897905 -32.78621470841567" fill="#b7ff1f" stroke="none" /><path d="M 108.73861861582097 119.09545874513695 l 19.029477674760074 41.58284299328556 a66.73022908294283,66.73022908294283 0 0,0 -1.0457154293128634,0.46773521056836215 l -18.312848842591585 -41.90338195476377" fill="#32ff2f" stroke="none" /><path d="M 108.07796709384702 119.3841803445677 l 13.655499424382526 32.7682275085019 a56.499709837944486,56.499709837944486 0 0,0 -0.8984679068769581,0.36539907597929744 l -13.090977056315127 -32.99781384106049" fill="#caff1d" stroke="none" /><path d="M 107.74402155503746 119.51999308798841 l 13.537066942488565 34.12225176169912 a57.70940270140874,57.70940270140874 0 0,0 -0.9239762811021174,0.3574138748015278 l -12.949318398892919 -34.34960552463869" fill="#b6ff1f" stroke="none" /><path d="M 105.3480935250658 120.30758222061773 l 6.093972832977909 23.13980744276287 a44.92879423157834,44.92879423157834 0 0,0 -0.7475182326799416,0.19001621159992801 l -5.69584930707257 -23.241008886198067" fill="#ff6909" stroke="none" /><path d="M 104.9986988182912 120.39639698878246 l 6.539130892795001 26.681885526492323 a48.47149883209772,48.47149883209772 0 0,0 -0.8098614476294329,0.19112509650215168 l -6.080137291425689 -26.7902067666407" fill="#ffab0f" stroke="none" /><line stroke="#e1ed5e" stroke-width="0.3" x1="101.45913802915013" x2="101.54496967792366" y1="184.9874750549273" y2="189.98673829345242" /><path d="M 101.47630435890484 185.9873277026323 a86.0,86.0 0 0,1 -42.54439059252881,-10.42667462771756" fill="none" id="id67" stroke="none" /><text fill="#e1ed5e" style="font-size:6.75px; font-family:Arial;" text-anchor="middle"><textPath startOffset="22.145653131862474" xlink:href="#id67">July</textPath></text><line stroke="#e1ed5e" stroke-width="0.3" x1="58.13341422392154" x2="55.67067388415222" y1="173.97424548756322" y2="178.32567169271397" /><path d="M 57.64086615596768 174.84453072859336 a86.0,86.0 0 0,1 -31.369924170532247,-30.572349798747897" fill="none" id="id68" stroke="none" /><text fill="#e1ed5e" style="font-size:6.75px; font-family:Arial;" text-anchor="middle"><textPath startOffset="22.145653131862474" xlink:href="#id68">August</textPath></text><line stroke="#e1ed5e" stroke-width="0.3" x1="26.387840678322732" x2="22.057713659400548" y1="142.50000000000003" y2="145.00000000000006" /><path d="M 25.521815274538298 143.00000000000003 a86.0,86.0 0 0,1 -11.493303480769221,-40.785679425670985" fill="none" id="id69" stroke="none" /><text fill="#e1ed5e" style="font-size:6.75px; font-family:Arial;" text-anchor="middle"><textPath startOffset="21.40746469413373" xlink:href="#id69">September</textPath></text><line stroke="#e1ed5e" stroke-width="0.3" x1="15.003131293944662" x2="10.003315487706104" y1="100.72959589197737" y2="100.7725132973878" /><path d="M 14.003168132696942 100.73817937305945 a86.0,86.0 0 0,1 10.791469493833604,-42.45332614584628" fill="none" id="id70" stroke="none" /><text fill="#e1ed5e" style="font-size:6.75px; font-family:Arial;" text-anchor="middle"><textPath startOffset="22.145653131862435" xlink:href="#id70">October</textPath></text><line stroke="#e1ed5e" stroke-width="0.3" x1="26.387840678322718" x2="22.05771365940052" y1="57.49999999999999" y2="54.99999999999999" /><path d="M 25.521815274538284 56.99999999999999 a86.0,86.0 0 0,1 29.574782752854787,-30.34633250058573" fill="none" id="id71" stroke="none" /><text fill="#e1ed5e" style="font-size:6.75px; font-family:Arial;" text-anchor="middle"><textPath startOffset="21.40746469413373" xlink:href="#id71">November</textPath></text><line stroke="#e1ed5e" stroke-width="0.3" x1="56.869717070023135" x2="54.33264160355391" y1="26.7553504044142" y2="22.446841604673864" /><path d="M 56.362301976729285 25.89364864446614 a86.0,86.0 0 0,1 42.16139366436587,-11.88097634709845" fill="none" id="id72" stroke="none" /><text fill="#e1ed5e" style="font-size:6.75px; font-family:Arial;" text-anchor="middle"><textPath startOffset="22.145653131862474" xlink:href="#id72">December</textPath></text></svg>