<?xml version="1.0" encoding="utf-8" ?>
<svg baseProfile="full" height="200mm" version="1.1" viewBox="0,0,200,200" width="200mm" xmlns="http://www.w3.org/2000/svg" xmlns:ev="http://www.w3.org/2001/xml-events" xmlns:xlink="http://www.w3.org/1999/xlink"><defs /><rect fill="#1a1a1a" height="200" width="200" x="0" y="0" /><text alignment-baseline="middle" fill="#e1ed5e" style="dominant-baseline: central; font-size:9.0px; font-family:Arial;" text-anchor="middle" x="100.0" y="100.0">2019</text><line stroke="#e1ed5e" stroke-width="0.3" x1="100.0" x2="100.0" y1="15.0" y2="10.0" /><path d="M 100.0 14.0 a86.0,86.0 0 0,1 42.46469731375804,11.215312516191453" fill="none" id="id85" stroke="none" /><text fill="#e1ed5e" style="font-size:6.75px; font-family:Arial;" text-anchor="middle"><textPath startOffset="22.20632615414155" xlink:href="#id85">January</textPath></text><path d="M 103.95276090670814 79.375362276772 l 0.1976251880338433 -1.0311647995874598 a22.049931692470352,22.049931692470352 0 0,0 0.37215411717937585,0.07465061486202039 l -0.21534571468034447 1.0276102286482311" fill="#ff0e01" stroke="none" /><path d="M 109.08828744355905 81.06846463323043 l 0.11451900581336902 -0.23855106060268585 a21.264615213483935,21.264615213483935 0 0,0 0.3286180301306018,0.16125144021265073 l -0.11860830295440263 0.23654446025520315" fill="#ff0300" stroke="none" /><line stroke="#e1ed5e" stroke-width="0.3" x1="143.23703022742887" x2="145.7803849466894" y1="26.81831364943548" y2="22.513508569990506" /><path d="M 143.74570117128098 25.957352633546492 a86.0,86.0 0 0,1 28.547481713284135,27.462654790039103" fill="none" id="id86" stroke="none" /><text fill="#e1ed5e" style="font-size:6.75px; font-family:Arial;" text-anchor="middle"><textPath startOffset="19.985693538727396" xlink:href="#id86">February</textPath></text><path d="M 113.34407831869373 83.78471172551755 l 0.10528373446915718 -0.12793735650066007 a21.16568835786545,21.16568835786545 0 0,0 0.2793290954025983,0.23393008432493725 l -0.10747036683087287 0.12610611478190345" fill="#ff0200" stroke="none" /><path d="M 114.94478906791727 85.2469230424477 l 2.0807373834869627 -2.0540456347382356 a23.923794029788585,23.923794029788585 0 0,0 0.28678447167161875,0.29555660712436066 l -2.1157861188616907 2.017924832063761" fill="#ff2904" stroke="none" /><line stroke="#e1ed5e" stroke-width="0.3" x1="172.23445277983987" x2="176.4835382374775" y1="55.19839476539836" y2="52.563006222186495" /><path d="M 173.08426987136738 54.67131705675599 a86.0,86.0 0 0,1 12.851231095245387,41.99856678651699" fill="none" id="id87" stroke="none" /><text fill="#e1ed5e" style="font-size:6.75px; font-family:Arial;" text-anchor="middle"><textPath startOffset="22.20632615414155" xlink:href="#id87">March</textPath></text><line stroke="#e1ed5e" stroke-width="0.3" x1="184.98032266829074" x2="189.97916517819016" y1="98.17113171792111" y2="98.06355123074" /><path d="M 185.9800911702706 98.14961562048488 a86.0,86.0 0 0,1 -9.607161424134198,41.387399972396054" fill="none" id="id88" stroke="none" /><text fill="#e1ed5e" style="font-size:6.75px; font-family:Arial;" text-anchor="middle"><textPath startOffset="21.466115282336823" xlink:href="#id88">April</textPath></text><path d="M 120.95626037817324 101.35467743843564 l 0.4919317776460927 0.03179999047543764 a21.492958530966128,21.492958530966128 0 0,0 -0.027043710898705074,0.36898994888448583 l -0.49131150808304996 -0.040263075856693725" fill="#ff0601" stroke="none" /><line stroke="#e1ed5e" stroke-width="0.3" x1="174.80103733775053" x2="179.2010983576182" y1="140.37084112569926" y2="142.7455964860345" /><path d="M 175.68104954172406 140.8457921977663 a86.0,86.0 0 0,1 -30.038265399797805,32.042727171017184" fill="none" id="id89" stroke="none" /><text fill="#e1ed5e" style="font-size:6.75px; font-family:Arial;" text-anchor="middle"><textPath startOffset="22.206326154141568" xlink:href="#id89">May</textPath></text><path d="M 118.12598468904814 110.60418214915192 l 0.19530926489145195 0.11426110392652444 a21.226277062078655,21.226277062078655 0 0,0 -0.18721487855357213,0.3137829050354817 l -0.1933135106396526 -0.11760610284811022" fill="#ff0200" stroke="none" /><path d="M 117.94076556474637 110.91462005526583 l 0.2905178216412392 0.1767422706157209 a21.340056517234373,21.340056517234373 0 0,0 -0.19362073133415658,0.3121782690936573 l -0.2874324506391197 -0.18171687107465173" fill="#ff0400" stroke="none" /><path d="M 116.27256486870786 113.27417163493432 l 1.2714618915970741 1.0371815084168725 a22.640841498495668,22.640841498495668 0 0,0 -0.2489457556085196,0.2998711996322839 l -1.2534201360950112 -1.058913965162927" fill="#ff1702" stroke="none" /><path d="M 114.55890576462653 115.13401014063108 l 0.12260629357855098 0.12744947459109954 a21.176849291201908,21.176849291201908 0 0,0 -0.26487616425262694,0.2504569460374399 l -0.1203942949351164 -0.12954105737446087" fill="#ff0200" stroke="none" /><path d="M 114.29624159901734 115.38237550388516 l 0.0716563369546754 0.07710031161934917 a21.10525725,21.10525725 0 0,0 -0.2682382223163208,0.24502925621909344 l -0.07031856517149067 -0.07832233442502558" fill="#ff0100" stroke="none" /><path d="M 112.04921762599082 117.19931262002967 l 0.12591131188719815 0.1797285170511559 a21.21944475,21.21944475 0 0,0 -0.30095550147202876,0.206999938171238 l -0.12279892579228611 -0.18186924458748802" fill="#ff0200" stroke="none" /><path d="M 111.45004920935366 117.60387380957326 l 0.03898169253324458 0.059932388384692184 a21.0714945,21.0714945 0 0,0 -0.30575561105800075,0.19514769730326048 l -0.037944279428313354 -0.06059451451176153" fill="#ff0000" stroke="none" /><line stroke="#e1ed5e" stroke-width="0.3" x1="143.8653032363475" x2="146.44561519142675" y1="172.8068346515853" y2="177.08958963109032" /><path d="M 144.38136562736335 173.6633856474863 a86.0,86.0 0 0,1 -40.68145358897372,12.25698825130547" fill="none" id="id90" stroke="none" /><text fill="#e1ed5e" style="font-size:6.75px; font-family:Arial;" text-anchor="middle"><textPath startOffset="21.466115282336833" xlink:href="#id90">June</textPath></text><path d="M 104.48393922423573 120.51570834832081 l 0.02813223469285513 0.12871555417736558 a21.131754,21.131754 0 0,0 -0.35602833334161404,0.0746091988503805 l -0.025912439921863036 -0.12918073375428726" fill="#ff0100" stroke="none" /><line stroke="#e1ed5e" stroke-width="0.3" x1="102.19456741930631" x2="102.32365962044197" y1="184.97166512339345" y2="189.96999836594603" /><path d="M 102.22038585953345 185.97133177190398 a86.0,86.0 0 0,1 -42.740103519485714,-10.115201625700543" fill="none" id="id91" stroke="none" /><text fill="#e1ed5e" style="font-size:6.75px; font-family:Arial;" text-anchor="middle"><textPath startOffset="22.20632615414155" xlink:href="#id91">July</textPath></text><path d="M 94.81253420990036 120.34920634021253 l -15.562397370298923 61.0476190206376 a84.0,84.0 0 0,0 -1.398038228754043,-0.36923460278567344 l 16.610926041864456 -60.77069306854834" fill="#4dd2ff" stroke="none" /><path d="M 92.06813273071674 119.44442032107085 l -0.02097384002680199 0.05141590843399095 a21.05552925,21.05552925 0 0,0 -0.3344104733457615,-0.13978360498002124 l 0.021855772870025818 -0.051047260433996516" fill="#ff0000" stroke="none" /><line stroke="#e1ed5e" stroke-width="0.3" x1="58.666819895761336" x2="56.23545636021788" y1="174.27360380694188" y2="178.64263932499728" /><path d="M 58.180547188652646 175.14741091055294 a86.0,86.0 0 0,1 -31.652253787137756,-30.449443065178592" fill="none" id="id92" stroke="none" /><text fill="#e1ed5e" style="font-size:6.75px; font-family:Arial;" text-anchor="middle"><textPath startOffset="22.20632615414155" xlink:href="#id92">August</textPath></text><path d="M 87.65650970185807 116.9893568818739 l -0.5001127857774339 0.6883461965405332 a21.85084269097753,21.85084269097753 0 0,0 -0.3023896807151301,-0.22370065667678823 l 0.5118874369111283 -0.6796355911239783" fill="#ff0b01" stroke="none" /><path d="M 82.24976979558568 111.22182372390057 l -0.9160312557397738 0.5791215752761669 a22.083741233156022,22.083741233156022 0 0,0 -0.20036826634947633,-0.32305744400027214 l 0.925864161757206 -0.5632677999106306" fill="#ff0f01" stroke="none" /><line stroke="#e1ed5e" stroke-width="0.3" x1="26.63291911575756" x2="22.317208475507996" y1="142.92168965132927" y2="145.44649492493687" /><path d="M 25.769776987707644 143.4266507060508 a86.0,86.0 0 0,1 -11.730757126820373,-40.83630448921669" fill="none" id="id93" stroke="none" /><text fill="#e1ed5e" style="font-size:6.75px; font-family:Arial;" text-anchor="middle"><textPath startOffset="21.46611528233685" xlink:href="#id93">September</textPath></text><path d="M 80.87730276802145 108.67885076344099 l -0.965865031118556 0.4383585830499983 a22.06068539429524,22.06068539429524 0 0,0 -0.15396143435582893,-0.34714238984076906 l 0.9732675502056648 -0.4216678567165334" fill="#ff0e01" stroke="none" /><path d="M 79.04373962182676 101.35467743843564 l -0.25895089407632677 0.016739386108854802 a21.25949137286282,21.25949137286282 0 0,0 -0.020463423758123687,-0.36538817775185467 l 0.25920066872198205 -0.012279492021562513" fill="#ff0300" stroke="none" /><line stroke="#e1ed5e" stroke-width="0.3" x1="15.007084014347285" x2="10.007500721073583" y1="101.09737516637583" y2="101.16192664675087" /><path d="M 14.007167355692545 101.11028546245083 a86.0,86.0 0 0,1 10.666146001902534,-42.60595125391555" fill="none" id="id94" stroke="none" /><text fill="#e1ed5e" style="font-size:6.75px; font-family:Arial;" text-anchor="middle"><textPath startOffset="22.20632615414155" xlink:href="#id94">October</textPath></text><path d="M 79.46518482838121 95.60439243477599 l -0.13344850554869336 -0.02856549989154019 a21.136471577323753,21.136471577323753 0 0,0 0.07921709295748931,-0.35511469481745844 l 0.13293702558916645 0.030858364258957854" fill="#ff0100" stroke="none" /><path d="M 79.54389044137918 95.25157060432595 l -0.05467040248276397 -0.01269051407251019 a21.056123988231878,21.056123988231878 0 0,0 0.08499374608778576,-0.3523539492131202 l 0.05444385613416343 0.013629694945027152" fill="#ff0000" stroke="none" /><path d="M 81.10775173730289 90.83032412892265 l -0.10948102348379066 -0.053138487564891146 a21.121695494426632,21.121695494426632 0 0,0 0.16157089955365017,-0.32571707431022623 l 0.10855011097672769 0.0550151503740789" fill="#ff0100" stroke="none" /><path d="M 81.26839172434947 90.50648371742162 l -0.0976831613328425 -0.04950758466653153 a21.109512560683658,21.109512560683658 0 0,0 0.16705723134160524,-0.32270139770321565 l 0.09681649683112324 0.0511817046300827" fill="#ff0100" stroke="none" /><path d="M 81.43458229118936 90.18545643968196 l -0.09420839832993298 -0.04980294242009568 a21.106562448308917,21.106562448308917 0 0,0 0.17256313455781824,-0.3197332805375138 l 0.09333716455364292 0.0514172062900822" fill="#ff0100" stroke="none" /><line stroke="#e1ed5e" stroke-width="0.3" x1="26.266209847984243" x2="21.928928074336255" y1="57.711370442889674" y2="55.22380399835377" /><path d="M 25.398753493254645 57.213857153982495 a86.0,86.0 0 0,1 29.58750427330803,-30.492523968695096" fill="none" id="id95" stroke="none" /><text fill="#e1ed5e" style="font-size:6.75px; font-family:Arial;" text-anchor="middle"><textPath startOffset="21.46611528233685" xlink:href="#id95">November</textPath></text><path d="M 81.78341655067845 89.55222093294921 l -0.10052732576179275 -0.05765555833686094 a21.11588747400799,21.11588747400799 0 0,0 0.18354766539778125,-0.31374245801471756 l 0.09951998589368655 0.05937742870547029" fill="#ff0100" stroke="none" /><path d="M 82.7489923806493 88.02491185347247 l -0.05756747867691211 -0.03996147046831533 a21.070078054505007,21.070078054505007 0 0,0 0.2093837804629737,-0.2961585084586035 l 0.05687107841006016 0.04094647925870499" fill="#ff0000" stroke="none" /><path d="M 83.17141714833178 87.43820079747576 l -0.09964147750991792 -0.07437799390210358 a21.12434029924872,21.12434029924872 0 0,0 0.2200191176351973,-0.2895193684568444 l 0.09834641965061179 0.07608213823997453" fill="#ff0100" stroke="none" /><path d="M 83.6137871275137 86.86637796730984 l -0.18377513795469688 -0.14729658522593436 a21.23551981944093,21.23551981944093 0 0,0 0.23106420477542405,-0.2832573937155583 l 0.18121244110288026 0.15043814854957488" fill="#ff0300" stroke="none" /><path d="M 86.10567301691215 84.25364557470407 l -0.06899352615046586 -0.07818993443428526 a21.104277382483033,21.104277382483033 0 0,0 0.2744623346778455,-0.23801103203586932 l 0.06763739282584687 0.07936595988983516" fill="#ff0100" stroke="none" /><path d="M 86.37877921826538 84.01681056812374 l -0.17268371121375503 -0.20262768751461202 a21.266228555692425,21.266228555692425 0 0,0 0.2806559505483381,-0.23504128735118424 l 0.1691702237063066 0.20557013225960863" fill="#ff0300" stroke="none" /><path d="M 86.65592168130627 83.78471172551755 l -0.21120911763888275 -0.2566544235517361 a21.33238649867657,21.33238649867657 0 0,0 0.2855457783469771,-0.23089149437876605 l 0.2067599407274052 0.2602520151946365" fill="#ff0400" stroke="none" /><path d="M 87.22198572758235 83.33499621200491 l -0.25849520640862317 -0.33712778074423133 a21.42482338952295,21.42482338952295 0 0,0 0.29459524565580764,-0.22188303142800916 l 0.2526538069944256 0.34152740167809487" fill="#ff0500" stroke="none" /><path d="M 87.80319425747018 82.90503203632743 l -0.4596784026480925 -0.6442824238366035 a21.79145693219901,21.79145693219901 0 0,0 0.3072272295584718,-0.21523230790451578 l 0.4485200335059604 0.6520995745050618" fill="#ff0b01" stroke="none" /><line stroke="#e1ed5e" stroke-width="0.3" x1="56.762969772571076" x2="54.21961505331055" y1="26.818313649435495" y2="22.513508569990535" /><path d="M 56.25429882871897 25.957352633546506 a86.0,86.0 0 0,1 42.265352541879196,-11.944610805530505" fill="none" id="id96" stroke="none" /><text fill="#e1ed5e" style="font-size:6.75px; font-family:Arial;" text-anchor="middle"><textPath startOffset="22.20632615414155" xlink:href="#id96">December</textPath></text><path d="M 89.3179101791058 81.91981866633112 l -0.5647348053777994 -0.9558530079660092 a22.110216363256626,22.110216363256626 0 0,0 0.3293403773488295,-0.19077520401088813 l 0.5481976955636498 0.9654323693669445" fill="#ff0f01" stroke="none" /><path d="M 90.26544431104013 81.39251694778311 l -0.04120401849707695 -0.07876097280301368 a21.088887918060806,21.088887918060806 0 0,0 0.32310135790724265,-0.16550506484491528 l 0.03984217300107059 0.07945856296043417" fill="#ff0000" stroke="none" /><path d="M 91.90106846888425 80.62456947434976 l -0.14929218094610114 -0.35715825832466136 a21.38710486535453,21.38710486535453 0 0,0 0.3408861419637614,-0.13905601644830556 l 0.14312216939395925 0.3596751609565439" fill="#ff0500" stroke="none" /><path d="M 92.23578459929587 80.48803036053334 l -0.14450964622045895 -0.36316197891778573 a21.390857596551793,21.390857596551793 0 0,0 0.3432894821491674,-0.13319098575177948 l 0.13823699907161519 0.36559566856011666" fill="#ff0500" stroke="none" /><path d="M 92.91201910852362 80.23233633223022 l -0.25321731448580775 -0.7061975454294319 a21.750222621310474,21.750222621310474 0 0,0 0.35351154268014706,-0.12333323586000731 l 0.24102376774237538 0.710451634461649" fill="#ff0a01" stroke="none" /><path d="M 93.94186890950719 79.89281104454417 l -0.3234349927062309 -1.0734941875649697 a22.1211600979533,22.1211600979533 0 0,0 0.36553614044267213,-0.10671002305617472 l 0.30490863454013745 1.0789025395398433" fill="#ff0f01" stroke="none" /></svg>