<?xml version="1.0" encoding="utf-8" ?>
<svg baseProfile="full" height="200mm" version="1.1" viewBox="0,0,200,200" width="200mm" xmlns="http://www.w3.org/2000/svg" xmlns:ev="http://www.w3.org/2001/xml-events" xmlns:xlink="http://www.w3.org/1999/xlink"><defs /><rect fill="#1a1a1a" height="200" width="200" x="0" y="0" /><text alignment-baseline="middle" fill="#e1ed5e" style="dominant-baseline: central; font-size:9.0px; font-family:Arial;" text-anchor="middle" x="100.0" y="100.0">2025</text><line stroke="#e1ed5e" stroke-width="0.3" x1="100.0" x2="100.0" y1="15.0" y2="10.0" /><path d="M 100.0 14.0 a86.0,86.0 0 0,1 42.46469731375804,11.215312516191453" fill="none" id="id13" stroke="none" /><text fill="#e1ed5e" style="font-size:6.75px; font-family:Arial;" text-anchor="middle"><textPath startOffset="22.20632615414155" xlink:href="#id13">January</textPath></text><path d="M 100.72285384407766 79.0124445844662 l 1.162333677604706 -33.747544776768336 a54.76755540512339,54.76755540512339 0 0,0 0.9418954629612157,0.04055999996484733 l -1.7430699729552532 33.72253705027929" fill="#81ff25" stroke="none" /><path d="M 101.08401301168833 79.027996857942 l 2.3611572311630495 -45.680445102518476 a66.74142682770704,66.74142682770704 0 0,0 1.1468018911443223,0.06917822185394502 l -3.147121171146984 45.633033611284226" fill="#36ff6b" stroke="none" /><path d="M 101.80526077348638 79.07773832637324 l 2.933800846743983 -34.00159684151505 a55.12793247738987,55.12793247738987 0 0,0 0.9447217949561085,0.08971271782946769 l -3.518647768790336 33.94605857917041" fill="#7dff26" stroke="none" /><path d="M 102.16513564639614 79.11191278185805 l 2.8788597140809546 -27.77372073505463 a48.92252489876519,48.92252489876519 0 0,0 0.8368857091433792,0.0940338605404499 l -3.356512126734059 27.720050921043583" fill="#c8ff1d" stroke="none" /><path d="M 102.52436894288641 79.15227682838746 l 4.083692227994224 -33.725531811504396 a54.97187127877673,54.97187127877673 0 0,0 0.9384098190382864,0.12183252705330962 l -4.663616775540356 33.65024096128695" fill="#7eff26" stroke="none" /><path d="M 103.2404852339499 79.25152402106235 l 5.376649909955142 -34.426107033322815 a55.843438546217264,55.843438546217264 0 0,0 0.948463026581631,0.15650452613077617 l -5.968442142675648 34.328456244252415" fill="#74ff27" stroke="none" /><path d="M 103.59715602781102 79.31037775812273 l 4.494768554360303 -25.852385255296692 a47.24021279916663,47.24021279916663 0 0,0 0.7999452453105163,0.1461848804591678 l -4.9391089207737195 25.771184893486787" fill="#ddff1b" stroke="none" /><path d="M 103.95276090670814 79.375362276772 l 9.360247618104001 -48.83971499401338 a70.72858329138964,70.72858329138964 0 0,0 1.1937421775843198,0.23945345068006987 l -10.199556205155446 48.671357587256104" fill="#3bff9c" stroke="none" /><path d="M 104.66035177308747 79.52364482259891 l 7.597144354783712 -33.379846354276275 a55.23347404197408,55.23347404197408 0 0,0 0.9252298978446097,0.218972023840741 l -8.170597939590845 33.244128418294665" fill="#7bff26" stroke="none" /><path d="M 105.01212808612495 79.60689891045804 l 5.374974237853871 -21.869431726949905 a43.520266253251,43.520266253251 0 0,0 0.725941068122614,0.18505854201659266 l -5.750624194661509 21.773670188764445" fill="#fff016" stroke="none" /><path d="M 105.36241919743992 79.69619591428918 l 8.475328702771117 -32.09025762574098 a54.19059853492316,54.19059853492316 0 0,0 0.8998274330170566,0.24595682862176718 l -9.026454025011885 31.939614256292923" fill="#88ff25" stroke="none" /><path d="M 106.40334571778207 80.00007090966166 l 19.21003715334621 -59.99978727101504 a84.0,84.0 0 0,0 1.37326871103033,0.45274510296305515 l -20.239988686618958 59.66022844379275" fill="#4dd2ff" stroke="none" /><path d="M 106.74666289553966 80.11325718540242 l 8.98106925269178 -26.47297148141938 a48.95492486088434,48.95492486088434 0 0,0 0.7956760402261935,0.27759574692632366 l -9.435427296981247 26.314454881320845" fill="#c7ff1e" stroke="none" /><path d="M 107.76421540070413 80.48803036053334 l 12.772947167414783 -32.0992327588576 a55.54719848336311,55.54719848336311 0 0,0 0.8853592062646235,0.36116025028110604 l -13.323590243267793 31.87461162239292" fill="#78ff26" stroke="none" /><path d="M 108.43124777332544 80.76684994638697 l 11.60451928749204 -26.471937103130625 a49.90377694845223,49.90377694845223 0 0,0 0.783769428268802,0.351654496133748 l -12.058470834227624 26.268262276480346" fill="#bbff1f" stroke="none" /><path d="M 108.76106565485865 80.91482961587045 l 24.2040938436415 -52.726377497602726 a79.01645493143744,79.01645493143744 0 0,0 1.2312336056871267,0.5780806869103247 l -25.108105660628222 52.301931828052396" fill="#46fff9" stroke="none" /><path d="M 109.08828744355905 81.06846463323043 l 9.61790851839657 -20.034772931771847 a43.22377759733712,43.22377759733712 0 0,0 0.6679694180326998,0.32776969246931364 l -9.9613492034397 19.8662480791677" fill="#ffec16" stroke="none" /><path d="M 109.41281617654863 81.2277094730956 l 14.870525003729414 -29.65677969501805 a54.176152516007285,54.176152516007285 0 0,0 0.8300289949913047,0.4251730897356181 l -15.378814486309473 29.39641407996993" fill="#88ff25" stroke="none" /><path d="M 110.36928655335952 81.73862282372117 l 12.291365873224011 -21.64635600217491 a45.892617443779386,45.892617443779386 0 0,0 0.6835886043872792,0.3959786422524627 l -12.662151210076619 21.4315732025324" fill="#eeff19" stroke="none" /><line stroke="#e1ed5e" stroke-width="0.3" x1="143.23703022742887" x2="145.7803849466894" y1="26.81831364943548" y2="22.513508569990506" /><path d="M 143.74570117128098 25.957352633546492 a86.0,86.0 0 0,1 28.547481713284135,27.462654790039103" fill="none" id="id14" stroke="none" /><text fill="#e1ed5e" style="font-size:6.75px; font-family:Arial;" text-anchor="middle"><textPath startOffset="19.985693538727396" xlink:href="#id14">February</textPath></text><path d="M 110.68208982089419 81.91981866633111 l 3.128789427020152 -5.2956941145300105 a27.150910455639952,27.150910455639952 0 0,0 0.40033103875210935,0.24119497151358024 l -3.219482531989899 5.2410525335578155" fill="#ff0000" stroke="none" /><path d="M 111.90073688211348 82.69761687909136 l 15.654486661323585 -22.759928940406265 a48.62385414821583,48.62385414821583 0 0,0 0.6855242422244299,0.4802535406464594 l -16.043942043131665 22.48709055699587" fill="#cbff1d" stroke="none" /><path d="M 112.19680574252982 82.90503203632743 l 20.994206610305504 -29.425350948604574 a57.14703293003092,57.14703293003092 0 0,0 0.7958532112796101,0.578221204044269 l -21.4976051379389 29.05961050974363" fill="#65ff29" stroke="none" /><path d="M 112.77801427241765 83.33499621200491 l 20.169963168172863 -26.30553585519863 a54.14828247186558,54.14828247186558 0 0,0 0.7347856046910924,0.5735118194375335 l -20.619781328023386 25.954445646537874" fill="#88ff25" stroke="none" /><path d="M 113.06298171725822 83.55741782278167 l 30.951510102836515 -38.95915644607592 a70.75753057212356,70.75753057212356 0 0,0 0.9471286366568118,0.765845489128125 l -31.617542138057818 38.42060485968367" fill="#3bff9c" stroke="none" /><path d="M 113.6212207817346 84.01681056812373 l 21.959070322174504 -25.766852056157038 a54.854562976031595,54.854562976031595 0 0,0 0.7133867295845638,0.6186419420661666 l -22.399350850405835 25.3850451206712" fill="#80ff26" stroke="none" /><line stroke="#e1ed5e" stroke-width="0.3" x1="172.23445277983987" x2="176.4835382374775" y1="55.19839476539836" y2="52.563006222186495" /><path d="M 173.08426987136738 54.67131705675599 a86.0,86.0 0 0,1 12.851231095245387,41.99856678651699" fill="none" id="id15" stroke="none" /><text fill="#e1ed5e" style="font-size:6.75px; font-family:Arial;" text-anchor="middle"><textPath startOffset="22.20632615414155" xlink:href="#id15">March</textPath></text><line stroke="#e1ed5e" stroke-width="0.3" x1="184.98032266829074" x2="189.97916517819016" y1="98.17113171792111" y2="98.06355123074" /><path d="M 185.9800911702706 98.14961562048488 a86.0,86.0 0 0,1 -9.607161424134198,41.387399972396054" fill="none" id="id16" stroke="none" /><text fill="#e1ed5e" style="font-size:6.75px; font-family:Arial;" text-anchor="middle"><textPath startOffset="21.466115282336823" xlink:href="#id16">April</textPath></text><line stroke="#e1ed5e" stroke-width="0.3" x1="174.80103733775053" x2="179.2010983576182" y1="140.37084112569926" y2="142.7455964860345" /><path d="M 175.68104954172406 140.8457921977663 a86.0,86.0 0 0,1 -30.038265399797805,32.042727171017184" fill="none" id="id17" stroke="none" /><text fill="#e1ed5e" style="font-size:6.75px; font-family:Arial;" text-anchor="middle"><textPath startOffset="22.206326154141568" xlink:href="#id17">May</textPath></text><line stroke="#e1ed5e" stroke-width="0.3" x1="143.8653032363475" x2="146.44561519142675" y1="172.8068346515853" y2="177.08958963109032" /><path d="M 144.38136562736335 173.6633856474863 a86.0,86.0 0 0,1 -40.68145358897372,12.25698825130547" fill="none" id="id18" stroke="none" /><text fill="#e1ed5e" style="font-size:6.75px; font-family:Arial;" text-anchor="middle"><textPath startOffset="21.466115282336833" xlink:href="#id18">June</textPath></text><line stroke="#e1ed5e" stroke-width="0.3" x1="102.19456741930631" x2="102.32365962044197" y1="184.97166512339345" y2="189.96999836594603" /><path d="M 102.22038585953345 185.97133177190398 a86.0,86.0 0 0,1 -42.740103519485714,-10.115201625700543" fill="none" id="id19" stroke="none" /><text fill="#e1ed5e" style="font-size:6.75px; font-family:Arial;" text-anchor="middle"><textPath startOffset="22.20632615414155" xlink:href="#id19">July</textPath></text><line stroke="#e1ed5e" stroke-width="0.3" x1="58.666819895761336" x2="56.23545636021788" y1="174.27360380694188" y2="178.64263932499728" /><path d="M 58.180547188652646 175.14741091055294 a86.0,86.0 0 0,1 -31.652253787137756,-30.449443065178592" fill="none" id="id20" stroke="none" /><text fill="#e1ed5e" style="font-size:6.75px; font-family:Arial;" text-anchor="middle"><textPath startOffset="22.20632615414155" xlink:href="#id20">August</textPath></text><line stroke="#e1ed5e" stroke-width="0.3" x1="26.63291911575756" x2="22.317208475507996" y1="142.92168965132927" y2="145.44649492493687" /><path d="M 25.769776987707644 143.4266507060508 a86.0,86.0 0 0,1 -11.730757126820373,-40.83630448921669" fill="none" id="id21" stroke="none" /><text fill="#e1ed5e" style="font-size:6.75px; font-family:Arial;" text-anchor="middle"><textPath startOffset="21.46611528233685" xlink:href="#id21">September</textPath></text><line stroke="#e1ed5e" stroke-width="0.3" x1="15.007084014347285" x2="10.007500721073583" y1="101.09737516637583" y2="101.16192664675087" /><path d="M 14.007167355692545 101.11028546245083 a86.0,86.0 0 0,1 10.666146001902534,-42.60595125391555" fill="none" id="id22" stroke="none" /><text fill="#e1ed5e" style="font-size:6.75px; font-family:Arial;" text-anchor="middle"><textPath startOffset="22.20632615414155" xlink:href="#id22">October</textPath></text><line stroke="#e1ed5e" stroke-width="0.3" x1="26.266209847984243" x2="21.928928074336255" y1="57.711370442889674" y2="55.22380399835377" /><path d="M 25.398753493254645 57.213857153982495 a86.0,86.0 0 0,1 29.58750427330803,-30.492523968695096" fill="none" id="id23" stroke="none" /><text fill="#e1ed5e" style="font-size:6.75px; font-family:Arial;" text-anchor="middle"><textPath startOffset="21.46611528233685" xlink:href="#id23">November</textPath></text><line stroke="#e1ed5e" stroke-width="0.3" x1="56.762969772571076" x2="54.21961505331055" y1="26.818313649435495" y2="22.513508569990535" /><path d="M 56.25429882871897 25.957352633546506 a86.0,86.0 0 0,1 42.265352541879196,-11.944610805530505" fill="none" id="id24" stroke="none" /><text fill="#e1ed5e" style="font-size:6.75px; font-family:Arial;" text-anchor="middle"><textPath startOffset="22.20632615414155" xlink:href="#id24">December</textPath></text></svg>