<?xml version="1.0" encoding="utf-8" ?>
<svg baseProfile="full" height="200mm" version="1.1" viewBox="0,0,200,200" width="200mm" xmlns="http://www.w3.org/2000/svg" xmlns:ev="http://www.w3.org/2001/xml-events" xmlns:xlink="http://www.w3.org/1999/xlink"><defs /><rect fill="#1a1a1a" height="200" width="200" x="0" y="0" /><text alignment-baseline="middle" fill="#e1ed5e" style="dominant-baseline: central; font-size:9.0px; font-family:Arial;" text-anchor="middle" x="100.0" y="100.0">2021</text><line stroke="#e1ed5e" stroke-width="0.3" x1="100.0" x2="100.0" y1="15.0" y2="10.0" /><path d="M 100.0 14.0 a86.0,86.0 0 0,1 42.46469731375804,11.215312516191453" fill="none" id="id61" stroke="none" /><text fill="#e1ed5e" style="font-size:6.75px; font-family:Arial;" text-anchor="middle"><textPath startOffset="22.20632615414155" xlink:href="#id61">January</textPath></text><path d="M 100.0 79.0 l 0.0 -13.384206308000557 a34.38420630800056,34.38420630800056 0 0,0 0.5918675893153111,0.005094391200503583 l -0.2303871100427828 13.382223293408613" fill="#ff2a04" stroke="none" /><path d="M 100.36148047927253 79.00311137660856 l 0.22737603161701617 -13.207322345868224 a34.20927944315753,34.20927944315753 0 0,0 0.5886820199968036,0.015203919795385362 l -0.4546846868086875 13.20145163393048" fill="#ff2703" stroke="none" /><path d="M 100.72285384407766 79.0124445844662 l 0.4513945191464154 -13.105923918744232 a34.11369508475119,34.11369508475119 0 0,0 0.5866892248063282,0.02526407215372778 l -0.6769245763420751 13.09621212006631" fill="#ff2603" stroke="none" /><path d="M 101.08401301168833 79.027996857942 l 0.6892484800489072 -13.334638176280857 a34.35243943103943,34.35243943103943 0 0,0 0.5902697076979807,0.03560668072499311 l -0.9186802365864998 13.320798226175558" fill="#ff2a04" stroke="none" /><path d="M 101.44485096284872 79.0497635885617 l 0.830303458262198 -12.039341213111117 a33.067938543037,33.067938543037 0 0,0 0.5675242604035098,0.044050805271877554 l -1.037417908028049 12.023265145650775" fill="#ff1402" stroke="none" /><path d="M 101.80526077348638 79.07773832637324 l 1.141676861835146 -13.231585375840009 a34.280748383091705,34.280748383091705 0 0,0 0.5874657127436402,0.05578694807639733 l -1.3692677016690304 13.209972883248433" fill="#ff2904" stroke="none" /><path d="M 102.16513564639614 79.11191278185805 l 1.3762138682857306 -13.276985836622917 a34.34812037393833,34.34812037393833 0 0,0 0.5875708814368873,0.06602043471290717 l -1.604551453232343 13.251329448439408" fill="#ff2a04" stroke="none" /><path d="M 102.52436894288641 79.15227682838746 l 1.608139554205519 -13.280962096238916 a34.37796946578722,34.37796946578722 0 0,0 0.5868569389186528,0.07619087357856404 l -1.8365112216320179 13.251312899496215" fill="#ff2a04" stroke="none" /><path d="M 102.88285421437855 79.19881850522331 l 1.8306145033536725 -13.208765237349564 a34.33501513142385,34.33501513142385 0 0,0 0.5847269746880306,0.0861735563734586 l -2.0577104584703587 13.175297196815135" fill="#ff2a04" stroke="none" /><path d="M 103.2404852339499 79.25152402106235 l 2.021455424747622 -12.943160142638574 a34.10006398886011,34.10006398886011 0 0,0 0.5791665187438995,0.09556743808296887 l -2.243951149630397 12.90644644161598" fill="#ff2603" stroke="none" /><path d="M 103.59715602781102 79.31037775812273 l 2.286865400893634 -13.153274669406166 a34.35059503882304,34.35059503882304 0 0,0 0.5816780566106647,0.10629794685302972 l -2.5129385786071996 13.111961241202398" fill="#ff2a04" stroke="none" /><path d="M 103.95276090670814 79.375362276772 l 2.462188826509537 -12.847160187897707 a34.08097468504898,34.08097468504898 0 0,0 0.575211534594377,0.11538202253046635 l -2.6829667705710394 12.802874209290032" fill="#ff2503" stroke="none" /><path d="M 104.307194497241 79.44645832069477 l 2.7375113112336003 -13.06315581268747 a34.34691005310526,34.34691005310526 0 0,0 0.577612437528498,0.12624370658166537 l -2.9619664729156265 13.014098608009933" fill="#ff2a04" stroke="none" /><path d="M 104.66035177308747 79.52364482259891 l 2.8798611169412602 -12.653349352855688 a33.97693530454258,33.97693530454258 0 0,0 0.5691562395116598,0.13470089319182904 l -3.0972410434154436 12.60190254752299" fill="#ff2403" stroke="none" /><path d="M 105.01212808612495 79.60689891045804 l 3.1914429061234926 -12.985186469246075 a34.37162575994921,34.37162575994921 0 0,0 0.5733369040550014,0.14615634272230596 l -3.414488698863519 12.928327130354901" fill="#ff2a04" stroke="none" /><path d="M 105.36241919743992 79.69619591428918 l 3.4056744465855955 -12.894953601575498 a34.3371078882534,34.3371078882534 0 0,0 0.5701629523136728,0.15584707289762817 l -3.6271352881229793 12.834419987851577" fill="#ff2a04" stroke="none" /><path d="M 105.71112130821622 79.79150937346287 l 3.6344925014937957 -12.860453085279866 a34.3641606284158,34.3641606284158 0 0,0 0.5678428522754164,0.16576889985545795 l -3.855325571492639 12.795985856505705" fill="#ff2a04" stroke="none" /><path d="M 106.0581310904928 79.89281104454417 l 3.8500825106663195 -12.778583919643493 a34.34598600067863,34.34598600067863 0 0,0 0.5646065121955791,0.17542599170283935 l -4.069474395572617 12.710417793058134" fill="#ff2a04" stroke="none" /><path d="M 106.40334571778207 80.00007090966166 l 3.9697782763605676 -12.399031308132635 a34.019029032286454,34.019029032286454 0 0,0 0.5561579541627547,0.18335653335625826 l -4.18261905276574 12.32886105051714" fill="#ff2403" stroke="none" /><path d="M 106.74666289553966 80.11325718540242 l 4.239226030242326 -12.495718120452091 a34.19522673853234,34.19522673853234 0 0,0 0.5557831552856104,0.19390182979082618 l -4.45369118959121 12.420895437489058" fill="#ff2703" stroke="none" /><path d="M 107.08798089147638 80.2323363322302 l 4.5165407355047185 -12.596176480752634 a34.381434980962965,34.381434980962965 0 0,0 0.5553709719449352,0.20454781593575377 l -4.73269403322223 12.516565397010556" fill="#ff2a04" stroke="none" /><path d="M 107.4271985657038 80.35727306442388 l 4.7370770959070985 -12.528157291679689 a34.39382785232193,34.39382785232193 0 0,0 0.5519666193493254,0.21415447299160079 l -4.95202688025609 12.444760114797543" fill="#ff2b04" stroke="none" /><path d="M 107.76421540070413 80.48803036053334 l 4.942455469034682 -12.420706546533317 a34.36793990031697,34.36793990031697 0 0,0 0.5477858977929979,0.22345562179453737 l -5.155525236416067 12.3337900385552" fill="#ff2a04" stroke="none" /><path d="M 108.09893153111575 80.62456947434976 l 4.931488193815957 -11.797816356422768 a33.78702649507002,33.78702649507002 0 0,0 0.5346656038228917,0.22891590849772647 l -5.133837555429165 11.711180919962251" fill="#ff2003" stroke="none" /><path d="M 108.43124777332544 80.76684994638697 l 5.3322598621722275 -12.163816888228684 a34.28124378693842,34.28124378693842 0 0,0 0.53840796200628,0.24156795833682684 l -5.540849942645288 12.070228599375326" fill="#ff2904" stroke="none" /><path d="M 108.76106565485865 80.91482961587045 l 5.5864455329122915 -12.169554371295336 a34.39053498886841,34.39053498886841 0 0,0 0.5358729701629181,0.2515995447635421 l -5.795096714374807 12.07158984389179" fill="#ff2b04" stroke="none" /><path d="M 109.08828744355905 81.06846463323043 l 5.753860753991244 -11.98569246804048 a34.29525244268656,34.29525244268656 0 0,0 0.5299902296563078,0.26006390397005397 l -5.9593222506579835 11.884873403935593" fill="#ff2904" stroke="none" /><path d="M 109.41281617654863 81.2277094730956 l 5.988920054847684 -11.943901283454984 a34.36128516619095,34.36128516619095 0 0,0 0.5264468159616192,0.2696665064408079 l -6.193627358398059 11.839042251701676" fill="#ff2a04" stroke="none" /><path d="M 109.73455568895987 81.39251694778311 l 6.174078316967614 -11.801674500288364 a34.319112736019854,34.319112736019854 0 0,0 0.5210866235539645,0.27834642792994146 l -6.37630998704989 11.693649345856668" fill="#ff2904" stroke="none" /><path d="M 110.05341064243156 81.56283822128135 l 6.332214110305014 -11.61278098762127 a34.227003356966534,34.227003356966534 0 0,0 0.5148326601769675,0.28650381799098806 l -6.531170859554016 11.502061772070103" fill="#ff2803" stroke="none" /><path d="M 110.36928655335952 81.73862282372117 l 6.578691867303794 -11.58575114084682 a34.32324345580169,34.32324345580169 0 0,0 0.5112582240648954,0.29615376281335504 l -6.777146823834018 11.470793220643417" fill="#ff2904" stroke="none" /><line stroke="#e1ed5e" stroke-width="0.3" x1="143.23703022742887" x2="145.7803849466894" y1="26.81831364943548" y2="22.513508569990506" /><path d="M 143.74570117128098 25.957352633546492 a86.0,86.0 0 0,1 28.547481713284135,27.462654790039103" fill="none" id="id62" stroke="none" /><text fill="#e1ed5e" style="font-size:6.75px; font-family:Arial;" text-anchor="middle"><textPath startOffset="19.985693538727396" xlink:href="#id62">February</textPath></text><path d="M 110.68208982089419 81.91981866633111 l 6.8162098684239325 -11.536910145465503 a34.40003778632526,34.40003778632526 0 0,0 0.507216982009188,0.30559255637098814 l -7.013788916650758 11.4178709796359" fill="#ff2b04" stroke="none" /><path d="M 110.99172775467656 82.1063720568725 l 6.758065830073782 -11.001574845870238 a33.91147175394407,33.91147175394407 0 0,0 0.4947535933465446,0.3098146547648244 l -6.94643857579259 10.883615849782469" fill="#ff2203" stroke="none" /><path d="M 111.60114157652 82.49532879139004 l 7.044817659981175 -10.629748464768836 a33.75229423620072,33.75229423620072 0 0,0 0.48152518600832717,0.3251279550749363 l -7.226747540396044 10.50690859739523" fill="#ff2003" stroke="none" /><path d="M 111.90073688211348 82.69761687909136 l 7.514623104213151 -10.925448503423857 a34.26027848121376,34.26027848121376 0 0,0 0.48301912416570114,0.33838576419677646 l -7.701573367962504 10.794477896463144" fill="#ff2803" stroke="none" /><path d="M 112.19680574252982 82.90503203632743 l 7.771588868015974 -10.892611191002796 a34.380828527853915,34.380828527853915 0 0,0 0.47880163479086446,0.3478697501540521 l -7.957935819160627 10.757222206032068" fill="#ff2a04" stroke="none" /><path d="M 112.48926042617603 83.11751280151076 l 7.9465300838996455 -10.741804385203439 a34.361650415435136,34.361650415435136 0 0,0 0.4724789866984168,0.35586137726460243 l -8.130255224356446 10.60342641843299" fill="#ff2a04" stroke="none" /><path d="M 112.77801427241765 83.33499621200491 l 8.135733894162634 -10.610571664253413 a34.37065432351327,34.37065432351327 0 0,0 0.4664055971461931,0.36403696657559903 l -8.317172046468258 10.46895630845459" fill="#ff2a04" stroke="none" /><path d="M 113.06298171725822 83.55741782278167 l 8.311097331262484 -10.461309968121574 a34.36088863432512,34.36088863432512 0 0,0 0.4599394770196569,0.3719057371032556 l -8.489940206846633 10.316698133754189" fill="#ff2a04" stroke="none" /><path d="M 113.6212207817346 84.01681056812373 l 8.619556872907514 -10.114219020900975 a34.2888745606256,34.2888745606256 0 0,0 0.4459287752347648,0.38670503962846814 l -8.792379446789043 9.964348987852837" fill="#ff2904" stroke="none" /><path d="M 113.89432698308785 84.25364557470407 l 8.319132697213082 -9.428021387493867 a33.57360553369166,33.57360553369166 0 0,0 0.4300443331118821,0.3860980483607208 l -8.480188017920954 9.28342433036385" fill="#ff1d02" stroke="none" /><path d="M 114.16331599549186 84.49514656593476 l 8.992830566791831 -9.844623952460719 a34.333702500370585,34.333702500370585 0 0,0 0.4329187496300613,0.4023507965913738 l -9.160957200216739 9.688368569794704" fill="#ff2a04" stroke="none" /><path d="M 114.42810811169701 84.74124197986012 l 9.164495682985628 -9.692110768835004 a34.33885273473059,34.33885273473059 0 0,0 0.4259926920248978,0.4098046322143841 l -9.329971618622944 9.532923049858319" fill="#ff2a04" stroke="none" /><path d="M 114.68862486808459 84.99185889309783 l 9.372580360009188 -9.57645864347959 a34.39976950380509,34.39976950380509 0 0,0 0.419618544255751,0.41781656887238255 l -9.53603470443226 9.413706223957089" fill="#ff2b04" stroke="none" /><path d="M 114.94478906791727 85.2469230424477 l 9.503097758019207 -9.381191793477656 a34.353487427053736,34.353487427053736 0 0,0 0.41180954532454084,0.42440593553793904 l -9.663171567046858 9.216221662389604" fill="#ff2a04" stroke="none" /><path d="M 115.4437574822437 85.77008943001954 l 9.858689776600784 -9.083817459546674 a34.40557733742258,34.40557733742258 0 0,0 0.397558673295352,0.43899421666401667 l -10.013592090512171 8.912770455613108" fill="#ff2b04" stroke="none" /><path d="M 115.9244219780498 86.31012108654704 l 10.148233044360405 -8.724215029863831 a34.382771081130784,34.382771081130784 0 0,0 0.3819588367680899,0.4521187867145445 l -10.296902494615612 8.54823729352018" fill="#ff2a04" stroke="none" /><path d="M 116.15771136456269 86.58626213691792 l 10.035682750684913 -8.331379033665836 a34.04326664892662,34.04326664892662 0 0,0 0.37042560780593486,0.4540979955531869 l -10.177606850567257 8.157396868504549" fill="#ff2503" stroke="none" /><path d="M 116.38621287248628 86.86637796730983 l 10.444083267857414 -8.370978894598618 a34.38477354906517,34.38477354906517 0 0,0 0.36619115685471554,0.4650255819112804 l -10.586628505306093 8.189960918734299" fill="#ff2a04" stroke="none" /><path d="M 116.60985879189232 87.15038557335679 l 10.598897270005958 -8.199452203269567 a34.400285063156005,34.400285063156005 0 0,0 0.358293809831489,0.47147265500993235 l -10.738467020061561 8.015794772378602" fill="#ff2b04" stroke="none" /><path d="M 117.45458315368197 88.32363383020206 l 11.109251579717677 -7.431611982657222 a34.36578943879613,34.36578943879613 0 0,0 0.3246803930113448,0.49451051359766757 l -11.235528608086947 7.23928340508188" fill="#ff2a04" stroke="none" /><path d="M 117.65298651832404 88.62581576622439 l 10.766586387353087 -6.937134235699906 a33.807935580742765,33.807935580742765 0 0,0 0.3109885800997125,0.4919092496486922 l -10.884402563698755 6.7507773383370075" fill="#ff2103" stroke="none" /><line stroke="#e1ed5e" stroke-width="0.3" x1="172.23445277983987" x2="176.4835382374775" y1="55.19839476539836" y2="52.563006222186495" /><path d="M 173.08426987136738 54.67131705675599 a86.0,86.0 0 0,1 12.851231095245387,41.99856678651699" fill="none" id="id63" stroke="none" /><text fill="#e1ed5e" style="font-size:6.75px; font-family:Arial;" text-anchor="middle"><textPath startOffset="22.20632615414155" xlink:href="#id63">March</textPath></text><line stroke="#e1ed5e" stroke-width="0.3" x1="184.98032266829074" x2="189.97916517819016" y1="98.17113171792111" y2="98.06355123074" /><path d="M 185.9800911702706 98.14961562048488 a86.0,86.0 0 0,1 -9.607161424134198,41.387399972396054" fill="none" id="id64" stroke="none" /><text fill="#e1ed5e" style="font-size:6.75px; font-family:Arial;" text-anchor="middle"><textPath startOffset="21.466115282336823" xlink:href="#id64">April</textPath></text><path d="M 120.99980553446 99.90962569577887 l 18.438737143370496 -0.07935254625638927 a39.43890789252195,39.43890789252195 0 0,0 -0.0029216769479732093,0.6788948282449798 l -18.43737116913302 -0.23805176019227525" fill="#ff7e0b" stroke="none" /><path d="M 120.99824983174949 100.27111621757518 l 12.909017806623515 0.1666731326841675 a33.9100937512042,33.9100937512042 0 0,0 -0.012559551597256509,0.5835930109141517 l -12.904236192341251 -0.38885595938843404" fill="#ff2203" stroke="none" /><path d="M 120.9764740272857 100.99374915477107 l 13.329373926311055 0.6314719077986565 a34.344323363803795,34.344323363803795 0 0,0 -0.03305829054672187,0.5902779850151869 l -13.316529284876804 -0.8608216091492666" fill="#ff2a04" stroke="none" /><path d="M 120.92983693683757 101.71520430193887 l 13.412979449405032 1.0991963350151788 a34.457943761699724,34.457943761699724 0 0,0 -0.05353353936606128,0.590738146026599 l -13.392071313761896 -1.3299158695903484" fill="#ff2c04" stroke="none" /><path d="M 120.70491114924044 103.5080841355445 l 20.327661557935766 3.4441658073344743 a41.617373802751686,41.617373802751686 0 0,0 -0.12575097277544958,0.7052782371488525 l -20.26536414282113 -3.793562795216545" fill="#ffa00e" stroke="none" /><path d="M 120.64145759157962 103.86396538481128 l 34.13044841970214 6.389029005181008 a55.72329478835487,55.72329478835487 0 0,0 -0.18460349301155593,0.9412892337483436 l -34.01541499371492 -6.975581965997297" fill="#94ff23" stroke="none" /><path d="M 120.49622156327973 104.57218783832717 l 13.163576157714239 2.936460392535086 a34.487124856575996,34.487124856575996 0 0,0 -0.13423609849804222,0.578285599044466 l -13.111079493285644 -3.162614648928117" fill="#ff2c04" stroke="none" /><line stroke="#e1ed5e" stroke-width="0.3" x1="174.80103733775053" x2="179.2010983576182" y1="140.37084112569926" y2="142.7455964860345" /><path d="M 175.68104954172406 140.8457921977663 a86.0,86.0 0 0,1 -30.038265399797805,32.042727171017184" fill="none" id="id65" stroke="none" /><text fill="#e1ed5e" style="font-size:6.75px; font-family:Arial;" text-anchor="middle"><textPath startOffset="22.206326154141568" xlink:href="#id65">May</textPath></text><path d="M 116.27256486870786 113.27417163493432 l 12.1471875476307 9.908938983494778 a36.67613591086582,36.67613591086582 0 0,0 -0.40326983286985607,0.4857644921987008 l -11.9748217148673 -10.11656473280725" fill="#ff5107" stroke="none" /><path d="M 116.0416608686014 113.55231037782055 l 19.836823698187906 16.758538524782264 a46.968214954432284,46.968214954432284 0 0,0 -0.5270672221953205,0.6130982538339943 l -19.545413966421805 -17.097513877777786" fill="#fff116" stroke="none" /><path d="M 115.80600337817218 113.82643327865902 l 9.6375736977707 8.430547970425353 a33.80456816380797,33.80456816380797 0 0,0 -0.38688708569670327,0.43467174214208193 l -9.49102776242566 -8.595193882308301" fill="#ff2103" stroke="none" /><path d="M 115.07121518719521 114.62390073753431 l 9.651119674251413 9.364673940972587 a34.447722074293985,34.447722074293985 0 0,0 -0.4165867602975395,0.422000188777344 l -9.488492288898337 -9.529414623730595" fill="#ff2c04" stroke="none" /><path d="M 114.55890576462653 115.13401014063108 l 9.281790282771853 9.648438593783537 a34.38820369397514,34.38820369397514 0 0,0 -0.4301213728608061,0.4067066048623515 l -9.114333075520241 -9.80677983539181" fill="#ff2b04" stroke="none" /><path d="M 114.29624159901734 115.38237550388516 l 9.16320749685831 9.85936741208812 a34.45999618859625,34.45999618859625 0 0,0 -0.4379708813384043,0.40007601591326414 l -8.992137066053044 -10.015636194587968" fill="#ff2c04" stroke="none" /><path d="M 112.63410532772338 116.77436683061366 l 8.034400205209318 10.667314606789358 a34.354519369025944,34.354519369025944 0 0,0 -0.47542569822311814,0.3517085657222612 l -7.849589536567635 -10.804033121251388" fill="#ff2a04" stroke="none" /><path d="M 112.34349029814194 116.9893568818739 l 7.9281556879825414 10.912170151619867 a34.48818408944634,34.48818408944634 0 0,0 -0.48328238522099803,0.34480914991200756 l -7.73914597491266 -11.047023563376092" fill="#ff2c04" stroke="none" /><path d="M 112.04921762599082 117.19931262002967 l 7.59433286352691 10.840314210826087 a34.235796305152284,34.235796305152284 0 0,0 -0.48556648709252087,0.33397705745385353 l -7.406609491811506 -10.969432057645035" fill="#ff2803" stroke="none" /><line stroke="#e1ed5e" stroke-width="0.3" x1="143.8653032363475" x2="146.44561519142675" y1="172.8068346515853" y2="177.08958963109032" /><path d="M 144.38136562736335 173.6633856474863 a86.0,86.0 0 0,1 -40.68145358897372,12.25698825130547" fill="none" id="id66" stroke="none" /><text fill="#e1ed5e" style="font-size:6.75px; font-family:Arial;" text-anchor="middle"><textPath startOffset="21.466115282336833" xlink:href="#id66">June</textPath></text><path d="M 110.8373102113329 117.98757091392108 l 13.847115308996269 22.983190821034736 a47.83225042177294,47.83225042177294 0 0,0 -0.7089015777272362,0.4188315475218338 l -13.449445860240651 -23.21814094085032" fill="#fffe18" stroke="none" /><path d="M 110.21172684928248 118.3499491758327 l 6.545666496255215 11.762226830095205 a34.46089632538671,34.46089632538671 0 0,0 -0.5208143988684405,0.2839895360878831 l -6.342229285518126 -11.873157017942859" fill="#ff2c04" stroke="none" /><path d="M 109.89434966115114 118.52300852407294 l 6.266042609843246 11.73052950918526 a34.299195936380414,34.299195936380414 0 0,0 -0.5231592616404238,0.27369219965658453 l -6.063192445676326 -11.83665112778656" fill="#ff2904" stroke="none" /><path d="M 108.92500713936063 119.00905698771935 l 5.738832712572943 12.222936785695623 a34.503124992756625,34.503124992756625 0 0,0 -0.539780038388456,0.24778654108510695 l -5.5275846784170675 -12.319910397114805" fill="#ff2c04" stroke="none" /><path d="M 108.59647513512805 119.15986991738527 l 5.53094791388694 12.327406394380121 a34.51134091192781,34.51134091192781 0 0,0 -0.5440948317036819,0.23851518474571473 l -5.317932407525505 -12.420786132420291" fill="#ff2d04" stroke="none" /><path d="M 108.2653958097858 119.30500536409082 l 5.285571957970114 12.345203708223307 a34.42912229151297,34.42912229151297 0 0,0 -0.5468140432700832,0.2285683144348268 l -5.072286455202569 -12.434357065678107" fill="#ff2b04" stroke="none" /><path d="M 107.93186726928326 119.44442032107085 l 5.073925678517912 12.438375507497861 a34.433462214062544,34.433462214062544 0 0,0 -0.5507368684101136,0.21914956585399278 l -4.859067734065933 -12.523871917757923" fill="#ff2b04" stroke="none" /><path d="M 107.59598834532513 119.57807347666477 l 4.755270939058629 12.256343692738204 a34.14650380969705,34.14650380969705 0 0,0 -0.5498071330943476,0.2078900126100173 l -4.543593585204007 -12.336381955454852" fill="#ff2603" stroke="none" /><path d="M 106.2309692047433 120.05430185196036 l 3.9991493171986794 12.871215524081128 a34.47818178867601,34.47818178867601 0 0,0 -0.5682743596599683,0.1712164029398939 l -3.7769999830984653 -12.938147296126747" fill="#ff2c04" stroke="none" /><path d="M 105.88484417918355 120.15858648285463 l 3.7304298411744132 12.778620857548205 a34.31199676310397,34.31199676310397 0 0,0 -0.5683844873323584,0.16063113355931335 l -3.509914185737449 -12.840940784446037" fill="#ff2904" stroke="none" /><path d="M 105.53697534728816 120.25689768951611 l 3.5534867593825408 13.000350048716976 a34.47725378325579,34.47725378325579 0 0,0 -0.573815700136255,0.15154994173572603 l -3.3291806164347886 -13.059591339756286" fill="#ff2c04" stroke="none" /><path d="M 105.18746579009965 120.34920634021253 l 3.3160355072418093 13.008026172841243 a34.424039496314485,34.424039496314485 0 0,0 -0.5754498090976745,0.14143156245191182 l -3.0916324134009234 -13.063178993607185" fill="#ff2b04" stroke="none" /><path d="M 104.13013068566511 120.58985236759428 l 2.653483227064246 13.228353304840327 a34.49186067204933,34.49186067204933 0 0,0 -0.5831298843932423,0.11175823020478691 l -2.4253857280992994 -13.272068733393583" fill="#ff2c04" stroke="none" /><path d="M 103.7750983002368 120.6578951692458 l 2.4172893613727586 13.227764219501017 a34.446822453773876,34.446822453773876 0 0,0 -0.5842033926872023,0.10157124817962859 l -2.1892369972135066 -13.267414046201653" fill="#ff2c04" stroke="none" /><path d="M 103.06178313531738 120.77559828337769 l 1.9621685354542373 13.314210528713733 a34.45802018739897,34.45802018739897 0 0,0 -0.5875443730197422,0.08142829638401648 l -1.7326955712476646 -13.346013390590352" fill="#ff2c04" stroke="none" /><path d="M 102.70371172650421 120.8252237178851 l 1.720081994850002 13.248857858885945 a34.360049275132596,34.360049275132596 0 0,0 -0.5871847346403993,0.07109989401056077 l -1.4917698371582222 -13.276503281621856" fill="#ff2a04" stroke="none" /><path d="M 101.62511606390274 120.93702456842531 l 2.098444414753311 27.03510428766188 a48.11642182896857,48.11642182896857 0 0,0 -0.8263130252188398,0.05698738413520012 l -1.632768628755541 -27.067220016313367" fill="#fcff18" stroke="none" /><path d="M 101.26447882468166 120.96189622390904 l 1.6375305879583073 27.146161389377486 a48.1955066988028,48.1955066988028 0 0,0 -0.8285310936726611,0.04282559372348826 l -1.1700114258721668 -27.17032678986318" fill="#fbff18" stroke="none" /><line stroke="#e1ed5e" stroke-width="0.3" x1="102.19456741930631" x2="102.32365962044197" y1="184.97166512339345" y2="189.96999836594603" /><path d="M 102.22038585953345 185.97133177190398 a86.0,86.0 0 0,1 -42.740103519485714,-10.115201625700543" fill="none" id="id67" stroke="none" /><text fill="#e1ed5e" style="font-size:6.75px; font-family:Arial;" text-anchor="middle"><textPath startOffset="22.20632615414155" xlink:href="#id67">July</textPath></text><path d="M 100.54218724476979 120.99299961872073 l 0.7368400008157586 28.529778236946747 a49.5392918523947,49.5392918523947 0 0,0 -0.8526427147441509,0.014679017577422225 l -0.24563759617893985 -28.53823473180333" fill="#e8ff1a" stroke="none" /><path d="M 100.18074693466247 120.99922214144158 l 0.23065590336405445 26.79765807382499 a47.798650719530535,47.798650719530535 0 0,0 -0.8228056760530014,0.0 l 0.230655903364036 -26.79765807382499" fill="#fffd17" stroke="none" /><path d="M 98.73552117531835 120.96189622390904 l -0.6570909713475811 10.892924802060927 a31.91272556641926,31.91272556641926 0 0,0 -0.5480436782996714,-0.03779630075401516 l 0.8444974104261824 -10.880000156790627" fill="#ff0000" stroke="none" /><path d="M 98.37488393609728 120.93702456842531 l -1.6288933423900405 20.985688768015425 a42.04881057420802,42.04881057420802 0 0,0 -0.7211484790719317,-0.062223725208874224 l 1.9898861392035139 -20.954540790527886" fill="#ffa70f" stroke="none" /><path d="M 96.58105272829116 120.7198165907248 l -2.175172225343994 13.182177430844076 a34.36043322756275,34.36043322756275 0 0,0 -0.5827382683172583,-0.10131651752784462 l 2.4017594651333023 -13.142782334795225" fill="#ff2a04" stroke="none" /><path d="M 96.22490169976321 120.6578951692458 l -4.998063167503642 27.350139453873954 a48.80307111764291,48.80307111764291 0 0,0 -0.8250795597678083,-0.15812846133539907 l 5.468110341843146 -27.260053794190085" fill="#f2ff19" stroke="none" /><path d="M 95.86986931433489 120.58985236759428 l -5.748423084380114 28.657490927504966 a50.22834504752302,50.22834504752302 0 0,0 -0.846248445527839,-0.1773395896798803 l 6.24086299133734 -28.554295357098542" fill="#deff1b" stroke="none" /><path d="M 95.16358092515715 120.4354850818985 l -6.140205026755864 25.944415957822013 a47.66111095140425,47.66111095140425 0 0,0 -0.7967274497609456,-0.19581622286869357 l 6.58588576126002 -25.83487847663929" fill="#fffb17" stroke="none" /><path d="M 94.11515582081647 120.15858648285463 l -7.791916127960024 26.691278536864232 a48.805364713983394,48.805364713983394 0 0,0 -0.8044170528133632,-0.24236425927896207 l 8.250208155213633 -26.553198908479544" fill="#f2ff19" stroke="none" /><path d="M 93.76903079525671 120.05430185196036 l -8.30940880988137 26.743735526384302 a49.004886442814296,49.004886442814296 0 0,0 -0.8033969708811104,-0.25722233963598845 l 8.76852712585342 -26.59674034008861" fill="#f0ff19" stroke="none" /><path d="M 93.08242187328487 119.8279376855182 l -9.171588291081637 26.28863422741708 a48.842599040391875,48.842599040391875 0 0,0 -0.7914371934024114,-0.28378121956750524 l 9.622745045113774 -26.126865466809615" fill="#f2ff19" stroke="none" /><path d="M 92.7421414339146 119.70592522655815 l -9.54564414201753 25.917527599795463 a48.619514097322444,48.619514097322444 0 0,0 -0.7828431223080928,-0.296004283633709 l 9.990357485085905 -25.749375066055123" fill="#f5ff19" stroke="none" /><path d="M 92.06813273071674 119.44442032107085 l -5.075783532074658 12.442929906131374 a34.438380970689096,34.438380970689096 0 0,0 -0.5469610924963954,-0.2286297810233521 l 5.289216084068515 -12.353715082088048" fill="#ff2b04" stroke="none" /><path d="M 91.7346041902142 119.30500536409082 l -5.321614045325004 12.429385120188536 a34.520694897576995,34.520694897576995 0 0,0 -0.5442423036683655,-0.23857983212122674 l 5.534777023651112 -12.335940734772858" fill="#ff2d04" stroke="none" /><path d="M 91.07499286063937 119.00905698771935 l -11.332676294449984 24.137066350852056 a47.66509936265423,47.66509936265423 0 0,0 -0.739688193371369,-0.3550952835957471 l 11.746477155821596 -23.938416790756744" fill="#fffb17" stroke="none" /><path d="M 90.7491055286396 118.85261126421891 l -11.37632018389946 23.184065358039323 a46.82482424823908,46.82482424823908 0 0,0 -0.720536141869523,-0.3612917796183164 l 11.773710233451745 -22.984805737511703" fill="#ffef16" stroke="none" /><path d="M 90.42595943632237 118.69057910512821 l -12.1171711544902 23.655315066513705 a47.57818217416759,47.57818217416759 0 0,0 -0.7257011710303617,-0.37965255392758956 l 12.522563228047057 -23.4432330936414" fill="#fffa17" stroke="none" /><line stroke="#e1ed5e" stroke-width="0.3" x1="58.666819895761336" x2="56.23545636021788" y1="174.27360380694188" y2="178.64263932499728" /><path d="M 58.180547188652646 175.14741091055294 a86.0,86.0 0 0,1 -31.652253787137756,-30.449443065178592" fill="none" id="id68" stroke="none" /><text fill="#e1ed5e" style="font-size:6.75px; font-family:Arial;" text-anchor="middle"><textPath startOffset="22.20632615414155" xlink:href="#id68">August</textPath></text><path d="M 89.7882731507175 118.34994917583269 l -7.761679201905332 13.947339267509667 a36.96157688564344,36.96157688564344 0 0,0 -0.5532817747875534,-0.3141678314916961 l 8.000609743614092 -13.811668270223338" fill="#ff5607" stroke="none" /><path d="M 89.4739219176387 118.17145234162733 l -13.711572474270382 23.67065718071133 a48.355204826210496,48.355204826210496 0 0,0 -0.7166520640438164,-0.42341067145103617 l 14.11699240934258 -23.431127936966544" fill="#f9ff18" stroke="none" /><path d="M 89.1626897886671 117.98757091392108 l -14.336571210659528 23.79558084851577 a48.780693691781025,48.780693691781025 0 0,0 -0.7154984904190177,-0.4395176115522453 l 14.744048901010856 -23.545274770135144" fill="#f3ff19" stroke="none" /><path d="M 88.54995079064634 117.60387380957326 l -7.298924066525975 11.221728034829423 a34.38661542797838,34.38661542797838 0 0,0 -0.4934074882451744,-0.32700357852090867 l 7.491006253511112 -11.094426435217196" fill="#ff2a04" stroke="none" /><path d="M 88.24862548938628 117.40417183066458 l -15.033575125879219 22.265218803442117 a47.86537454476685,47.86537454476685 0 0,0 -0.6788748701478841,-0.4669363259992723 l 15.414606880649993 -22.003141688077744" fill="#fffe18" stroke="none" /><path d="M 87.65650970185807 116.9893568818739 l -17.029149505786286 23.438613500764873 a49.9717195852897,49.9717195852897 0 0,0 -0.6915491793101989,-0.5115915502477827 l 17.430083655515052 -23.142012001777324" fill="#e2ff1b" stroke="none" /><path d="M 87.36589467227662 116.77436683061367 l -16.69427978948179 22.165081412387522 a48.748690270123866,48.748690270123866 0 0,0 -0.6659332743841726,-0.5106092379462042 l 17.073341792359447 -21.874432832613948" fill="#f3ff19" stroke="none" /><path d="M 87.07902340077011 116.55440617244103 l -16.514954832669883 21.159025257876415 a47.84116396486148,47.84116396486148 0 0,0 -0.644813476187351,-0.5122788233436755 l 16.876725801574594 -20.871612520527606" fill="#fffe18" stroke="none" /><path d="M 86.51685102203217 116.09983520530335 l -17.259891220606196 20.60953303766756 a47.882274773126426,47.882274773126426 0 0,0 -0.6273365166719317,-0.534629789282905 l 17.612093213855182 -20.309378858161704" fill="#fffe18" stroke="none" /><path d="M 86.24171649860922 115.8653595955263 l -17.356270668943434 20.014377183915258 a47.49179921397665,47.49179921397665 0 0,0 -0.6130007310082514,-0.5409018727419151 l 17.698213752858273 -19.712652169401053" fill="#fff917" stroke="none" /><path d="M 85.44109423537348 115.13401014063109 l -9.312798586215514 9.680671783993514 a34.4329305699399,34.4329305699399 0 0,0 -0.4236071072659497,-0.41458871193731467 l 9.478055645857259 -9.51893296913363" fill="#ff2b04" stroke="none" /><path d="M 85.18274418774928 114.88116024355367 l -9.468334046647426 9.509169442236463 a34.419152473240125,34.419152473240125 0 0,0 -0.41624125943915996,-0.42165019823190186 l 9.630615931142119 -9.344778750023897" fill="#ff2b04" stroke="none" /><path d="M 84.43433777217949 114.09645910891817 l -9.799830976836299 8.874849949678318 a34.221181823266235,34.221181823266235 0 0,0 -0.39165515265700873,-0.4400287159179197 l 9.951144979141647 -8.704847064019534" fill="#ff2803" stroke="none" /><path d="M 83.72743513129214 113.27417163493432 l -10.341533993272467 8.43599631052551 a34.34591169928866,34.34591169928866 0 0,0 -0.36976168711212193,-0.4613345581308644 l 10.48521359243945 -8.256733918816387" fill="#ff2a04" stroke="none" /><path d="M 83.50135304334701 112.99209946851258 l -17.53798453841994 13.81054096126993 a43.32290176730551,43.32290176730551 0 0,0 -0.4563205013932987,-0.5898557606734525 l 17.773111857031306 -13.506607206483226" fill="#ffbb11" stroke="none" /><path d="M 82.44556493220864 111.52570212397912 l -11.216570175974288 7.364454976861472 a34.418146057439365,34.418146057439365 0 0,0 -0.3209002671250066,-0.49804434083831367 l 11.341675306476342 -7.1702890361017095" fill="#ff2b04" stroke="none" /><path d="M 82.24976979558568 111.22182372390057 l -11.31876666704623 7.155806028812307 a34.39104322989898,34.39104322989898 0 0,0 -0.3120338006668433,-0.5030978404000362 l 11.440265107381029 -6.9599118570470075" fill="#ff2b04" stroke="none" /><path d="M 82.05923443525364 110.91462005526583 l -11.425862882273627 6.951149978161159 a34.37418515736223,34.37418515736223 0 0,0 -0.30317887968730795,-0.508145241172507 l 11.543822637659167 -6.753442643102541" fill="#ff2a04" stroke="none" /><line stroke="#e1ed5e" stroke-width="0.3" x1="26.63291911575756" x2="22.317208475507996" y1="142.92168965132927" y2="145.44649492493687" /><path d="M 25.769776987707644 143.4266507060508 a86.0,86.0 0 0,1 -11.730757126820373,-40.83630448921669" fill="none" id="id69" stroke="none" /><text fill="#e1ed5e" style="font-size:6.75px; font-family:Arial;" text-anchor="middle"><textPath startOffset="21.46611528233685" xlink:href="#id69">September</textPath></text><path d="M 81.69416730710424 110.29060199501025 l -12.514735639789954 7.035143699954591 a35.3565962196072,35.3565962196072 0 0,0 -0.29366783153318204,-0.5330924158205588 l 12.633979880774653 -6.818680765736209" fill="#ff3b05" stroke="none" /><path d="M 81.51974371655577 109.97397251340807 l -11.832510963762688 6.386120263001751 a34.44584871702362,34.44584871702362 0 0,0 -0.277120940133627,-0.5242083829797892 l 11.940684412121202 -6.181496864935836" fill="#ff2b04" stroke="none" /><path d="M 81.02952815118164 109.00673069616217 l -12.067881211524771 5.729544157450625 a34.35894581124009,34.35894581124009 0 0,0 -0.2490620805283645,-0.5364575638552298 l 12.164717908892962 -5.520966526316568" fill="#ff2a04" stroke="none" /><path d="M 80.73074385275274 108.34839909993369 l -12.276058980092056 5.318598650460833 a34.378681388215455,34.378681388215455 0 0,0 -0.23058112102059322,-0.5450256575306489 l 12.365791082304955 -5.106498467264025" fill="#ff2a04" stroke="none" /><path d="M 80.58989483394504 108.01547362559985 l -12.328429600420225 5.091069907238287 a34.33825960209595,34.33825960209595 0 0,0 -0.22090519539020545,-0.5482685786552681 l 12.41423741006782 -4.878101960740214" fill="#ff2a04" stroke="none" /><path d="M 80.45479744820244 107.68017299344265 l -12.474812835300133 4.901904719688481 a34.403343805061226,34.403343805061226 0 0,0 -0.21183567405264894,-0.5530360995583402 l 12.55734278894629 -4.686445053296984" fill="#ff2b04" stroke="none" /><path d="M 80.32549172779594 107.34259656027581 l -12.543085026495138 4.681124005569505 a34.388125482583646,34.388125482583646 0 0,0 -0.20219520031462332,-0.556354351882756 l 12.621804487814986 -4.464521856680633" fill="#ff2b04" stroke="none" /><path d="M 80.0844068197444 106.66101706037122 l -20.024372191191954 6.69739954926318 a42.11470204321748,42.11470204321748 0 0,0 -0.2240256459223424,-0.6894800423602485 l 20.136690088130546 -6.351720606925128" fill="#ffa80f" stroke="none" /><path d="M 79.97269907076064 106.31721596034903 l -31.490689520275026 9.93311515829072 a54.02014995741576,54.02014995741576 0 0,0 -0.2720897909856519,-0.8892051799510605 l 31.657006083766806 -9.389583005787612" fill="#aaff21" stroke="none" /><path d="M 79.76711848015287 105.62410040840567 l -19.624878030827663 5.455094690285288 a41.36894439593866,41.36894439593866 0 0,0 -0.18480477397586462,-0.6877273130275793 l 19.715870881145303 -5.11647644408217" fill="#ff9c0e" stroke="none" /><path d="M 79.67330655649465 105.27499134158121 l -19.760521169722114 5.128063664910604 a41.41507369201523,41.41507369201523 0 0,0 -0.17313213751406262,-0.6915768272902483 l 19.845864621531234 -4.787158998222964" fill="#ff9d0e" stroke="none" /><path d="M 79.58551787078972 104.9243191809786 l -19.601575541546477 4.728232330641655 a41.16377803596038,41.16377803596038 0 0,0 -0.1602239962295069,-0.6902407823051427 l 19.680060103706538 -4.3901228909879375" fill="#ff990e" stroke="none" /><path d="M 79.35854240842038 103.8639653848113 l -14.766499713942862 2.764206136914322 a36.02299402147353,36.02299402147353 0 0,0 -0.10884700610745862,-0.6104718149853321 l 14.81189316238951 -2.509615571195776" fill="#ff4606" stroke="none" /><path d="M 79.29508885075956 103.50808413554451 l -13.167945464103386 2.23107746019142 a34.35561658550346,34.35561658550346 0 0,0 -0.09377160335796193,-0.5839158636220237 l 13.20439882182264 -2.0040823668761827" fill="#ff2a04" stroke="none" /><path d="M 79.18660465613746 102.79330883721812 l -15.420160465016885 2.0694975416855588 a36.55841151409463,36.55841151409463 0 0,0 -0.07833682583175754,-0.6244215781695486 l 15.453498800095492 -1.8037582092286017" fill="#ff4f07" stroke="none" /><path d="M 79.10278846688536 102.07522291339032 l -13.337273958732647 1.3244741518487497 a34.40287687137368,34.40287687137368 0 0,0 -0.05344798795993493,-0.5897940933888857 l 13.358096542969657 -1.094698669911298" fill="#ff2b04" stroke="none" /><path d="M 79.07016306316243 101.71520430193888 l -13.227427606158148 1.0839903245369291 a34.2717698932676,34.2717698932676 0 0,0 -0.04312276672591212,-0.588375890777358 l 13.244126931548395 -0.8561412972628104" fill="#ff2903" stroke="none" /><path d="M 79.04373962182676 101.35467743843564 l -42.67997928312159 2.758965767955655 a63.769060355781015,63.769060355781015 0 0,0 -0.061381210012551174,-1.0960027383387585 l 42.721146844021675 -2.023891313281459" fill="#31ff2f" stroke="none" /><path d="M 79.0235259727143 100.99374915477108 l -13.308780029690691 0.6304962830424123 a34.323706370286914,34.323706370286914 0 0,0 -0.02287898484884128,-0.5904049384646788 l 13.317661147390734 -0.4013140975637367" fill="#ff2904" stroke="none" /><path d="M 79.0095281055655 100.63252640178507 l -13.386941193163631 0.40340178088446543 a34.39301786402311,34.39301786402311 0 0,0 -0.012738416048561452,-0.5919041391319039 l 13.3919016718972 -0.17290782596243273" fill="#ff2b04" stroke="none" /><line stroke="#e1ed5e" stroke-width="0.3" x1="15.007084014347285" x2="10.007500721073583" y1="101.09737516637583" y2="101.16192664675087" /><path d="M 14.007167355692545 101.11028546245083 a86.0,86.0 0 0,1 10.666146001902534,-42.60595125391555" fill="none" id="id70" stroke="none" /><text fill="#e1ed5e" style="font-size:6.75px; font-family:Arial;" text-anchor="middle"><textPath startOffset="22.20632615414155" xlink:href="#id70">October</textPath></text><path d="M 79.08570108090925 98.10471618934814 l -13.218188263300604 -1.1978512078506298 a34.27235278615691,34.27235278615691 0 0,0 0.058300331007343005,-0.5870763770243254 l 13.195610806611032 1.4252031155793854" fill="#ff2903" stroke="none" /><path d="M 79.12142395522702 97.74499172005258 l -13.406312382963444 -1.4479601176974304 a34.48427974391073,34.48427974391073 0 0,0 0.06882019004727563,-0.5896093605432515 l 13.379401839912578 1.6785132165655436" fill="#ff2c04" stroke="none" /><path d="M 79.26566170972629 96.67025291283419 l -13.223083787201524 -2.1235075895543565 a34.392506461683965,34.392506461683965 0 0,0 0.09889997347022837,-0.5837132418278039 l 13.184571952211073 2.3508066196979884" fill="#ff2b04" stroke="none" /><path d="M 79.32604984820605 96.31383870115002 l -25.729354405534266 -4.587538895939824 a47.13513327395417,47.13513327395417 0 0,0 0.14929329848234552,-0.7975307701885359 l 25.64657538314206 5.029747743590932" fill="#fff417" stroke="none" /><path d="M 79.3925641242962 95.95851677861259 l -13.085320182278846 -2.566263084943646 a34.33459075089665,34.33459075089665 0 0,0 0.11873343594288714,-0.5789864009790184 l 13.039207450420964 2.791125142086067" fill="#ff2a04" stroke="none" /><path d="M 79.46518482838121 95.60439243477599 l -12.93208905049016 -2.7681957684746945 a34.22504574745996,34.22504574745996 0 0,0 0.1282715812112925,-0.5750163470407241 l 12.882523082276832 2.990390285065378" fill="#ff2803" stroke="none" /><path d="M 79.54389044137918 95.25157060432595 l -13.015550977684242 -3.0212697427250577 a34.36161061066379,34.36161061066379 0 0,0 0.1387017861902021,-0.5750084491693537 l 12.961616391233225 3.244863423553808" fill="#ff2a04" stroke="none" /><path d="M 79.81627453868168 94.20196356495316 l -14.177155404718333 -4.072571425895191 a35.75051095347386,35.75051095347386 0 0,0 0.17499722386954472,-0.5900036431080953 l 14.10495228373708 4.316004455749825" fill="#ff4106" stroke="none" /><path d="M 79.91906864156998 93.8553929516997 l -19.83764873156497 -6.070164478028959 a41.745582758440065,41.745582758440065 0 0,0 0.2161715810419512,-0.6853229861145026 l 19.73022166675481 6.4107376305698756" fill="#ffa20f" stroke="none" /><path d="M 80.2630227832202 92.82701384747504 l -12.537835017319054 -4.556610466440274 a34.34016513632365,34.34016513632365 0 0,0 0.2066875858727471,-0.5538199715364034 l 12.45754284294468 4.771753575006019" fill="#ff2a04" stroke="none" /><path d="M 80.38941819471856 92.48833698450439 l -12.409491960612455 -4.75334810191701 a34.2887098282152,34.2887098282152 0 0,0 0.21586612407262382,-0.5493557401211152 l 12.32583228665814 4.966252846933888" fill="#ff2904" stroke="none" /><path d="M 80.65960295795068 91.81776055985345 l -14.365905322997886 -6.077707550247337 a36.59864624945615,36.59864624945615 0 0,0 0.2504554987251513,-0.5780858222817645 l 14.259159114430053 6.324092517115701" fill="#ff5007" stroke="none" /><path d="M 80.803312248108 91.48605970444005 l -21.89819905473113 -9.712090009584735 a44.95528781281709,44.95528781281709 0 0,0 0.3198198018800261,-0.7046805397214124 l 21.72777693588775 10.087592558148218" fill="#ffd313" stroke="none" /><path d="M 80.95270993114464 91.15688171328213 l -12.573059683245278 -5.8373161537925355 a34.86203771736952,34.86203771736952 0 0,0 0.2573844425741882,-0.5421172772777545 l 12.470717046829337 6.052875846710823" fill="#ff3304" stroke="none" /><path d="M 81.10775173730289 90.83032412892265 l -12.620541060949673 -6.125595494901125 a35.02857714945709,35.02857714945709 0 0,0 0.2679519133118652,-0.5401747065893361 l 12.513229134684396 6.341929789989423" fill="#ff3505" stroke="none" /><path d="M 81.26839172434947 90.50648371742162 l -19.702228583429857 -9.985444127774807 a43.08816211418761,43.08816211418761 0 0,0 0.34099267075455897,-0.6586893041106189 l 19.527426479515185 10.323106154145762" fill="#ffb711" stroke="none" /><line stroke="#e1ed5e" stroke-width="0.3" x1="26.266209847984243" x2="21.928928074336255" y1="57.711370442889674" y2="55.22380399835377" /><path d="M 25.398753493254645 57.213857153982495 a86.0,86.0 0 0,1 29.58750427330803,-30.492523968695096" fill="none" id="id71" stroke="none" /><text fill="#e1ed5e" style="font-size:6.75px; font-family:Arial;" text-anchor="middle"><textPath startOffset="21.46611528233685" xlink:href="#id71">November</textPath></text><path d="M 85.31137513191541 84.99185889309783 l -10.560352375165245 -10.79006782516851 a36.097900713655356,36.097900713655356 0 0,0 0.44781466696772043,-0.4307973548198468 l 10.373054464585097 10.97024826675067" fill="#ff4706" stroke="none" /><path d="M 85.57189188830299 84.74124197986013 l -9.86788245758309 -10.435992676640222 a35.36262675639677,35.36262675639677 0 0,0 0.44589260825709254,-0.41440858424300997 l 9.686781965531141 10.60430584695788" fill="#ff3b05" stroke="none" /><path d="M 85.83668400450813 84.49514656593479 l -9.086088772073827 -9.946715496904211 a34.47197677961035,34.47197677961035 0 0,0 0.4415515709315236,-0.39642936009325264 l 8.913526213546334 10.101643865766743" fill="#ff2c04" stroke="none" /><path d="M 86.37877921826538 84.01681056812374 l -13.243787696959128 -15.540308093375861 a41.41810687108796,41.41810687108796 0 0,0 0.5466055310830529,-0.45776641274851915 l 12.974324628916964 15.765975663518192" fill="#ff9d0e" stroke="none" /><path d="M 86.65592168130627 83.78471172551755 l -12.96348435459637 -15.752802916110326 a41.40104718698721,41.40104718698721 0 0,0 0.5541758885777549,-0.44810502821343134 l 12.690405067454114 15.973614041587892" fill="#ff9d0e" stroke="none" /><path d="M 86.93701828274178 83.55741782278169 l -12.623192890124333 -15.889013008456642 a41.2929971449313,41.2929971449313 0 0,0 0.5603409469619145,-0.4373549970845964 l 12.347819388002993 16.10394639476446" fill="#ff9b0e" stroke="none" /><path d="M 87.22198572758235 83.33499621200491 l -23.398586133866225 -30.516285100441685 a59.45435592225406,59.45435592225406 0 0,0 0.8175082832556432,-0.6157302902240295 l 22.86983169685219 30.914531980171567" fill="#65ff29" stroke="none" /><path d="M 87.80319425747018 82.90503203632743 l -23.4695408218696 -32.894764165420604 a61.408969992911764,61.408969992911764 0 0,0 0.8657754173877423,-0.6065310079421012 l 22.8998342648982 33.29388001612665" fill="#4dff2c" stroke="none" /><path d="M 88.09926311788651 82.69761687909137 l -33.892872231873646 -49.27656717671569 a80.80724756120688,80.80724756120688 0 0,0 1.15283200129839,-0.7783973134078509 l 33.03963553616872 49.852676402422205" fill="#48f5ff" stroke="none" /><path d="M 88.39885842347998 82.49532879139004 l -17.201534408099445 -25.954963320747137 a52.13764453156915,52.13764453156915 0 0,0 0.7523535948096665,-0.48935170614095314 l 16.75221378750549 26.247213951047627" fill="#c4ff1e" stroke="none" /><path d="M 88.70189139769569 82.29822771554957 l -17.775126284384875 -27.849903810391375 a54.03895059885956,54.03895059885956 0 0,0 0.7884047375901485,-0.49369897435056354 l 17.293102394422487 28.15174712606487" fill="#aaff21" stroke="none" /><path d="M 89.00827224532344 82.1063720568725 l -21.113321039508037 -34.370748599011286 a61.337584020039785,61.337584020039785 0 0,0 0.9044020371031647,-0.5448921079312018 l 20.518556936187224 34.729087316401106" fill="#4eff2b" stroke="none" /><line stroke="#e1ed5e" stroke-width="0.3" x1="56.762969772571076" x2="54.21961505331055" y1="26.818313649435495" y2="22.513508569990535" /><path d="M 56.25429882871897 25.957352633546506 a86.0,86.0 0 0,1 42.265352541879196,-11.944610805530505" fill="none" id="id72" stroke="none" /><text fill="#e1ed5e" style="font-size:6.75px; font-family:Arial;" text-anchor="middle"><textPath startOffset="22.20632615414155" xlink:href="#id72">December</textPath></text><path d="M 89.3179101791058 81.91981866633112 l -14.766392711958805 -24.993148564822 a50.02936149671663,50.02936149671663 0 0,0 0.745207035659365,-0.4316720148397857 l 14.33398894383412 25.243624737051835" fill="#e1ff1b" stroke="none" /><path d="M 89.63071344664047 81.73862282372117 l -19.847901088675666 -34.954189574436256 a61.19620064672134,61.19620064672134 0 0,0 0.9204955059339512,-0.5122547524529089 l 19.24328149366967 35.29065972444935" fill="#50ff2b" stroke="none" /><path d="M 90.26544431104013 81.39251694778311 l -9.240020691746318 -17.66218550876398 a40.933157786208696,40.933157786208696 0 0,0 0.6271340108374754,-0.32124239836808666 l 8.93462619332008 17.818620432444572" fill="#ff950d" stroke="none" /><path d="M 91.23893434514133 80.91482961587045 l -26.28319696457602 -57.25551115238866 a84.0,84.0 0 0,0 1.3192715261329024,-0.5919186779338843 l 25.293743319976343 57.69945016083907" fill="#4dd2ff" stroke="none" /><path d="M 91.56875222667455 80.76684994638697 l -17.174484556923304 -39.178001579057025 a63.77708180234589,63.77708180234589 0 0,0 1.0092457220788429,-0.4321063478092273 l 16.49755507705415 39.46782745482904" fill="#31ff2f" stroke="none" /><path d="M 91.90106846888425 80.62456947434976 l -15.693181161772435 -37.54348831795538 a61.69139282522363,61.69139282522363 0 0,0 0.9832906802934286,-0.40110895745032726 l 15.044606611890625 37.80805816158929" fill="#4aff2c" stroke="none" /><path d="M 92.23578459929587 80.48803036053334 l -14.957510586875967 -37.58918028300156 a61.455822786151565,61.455822786151565 0 0,0 0.986268899415694,-0.38265701036660066 l 14.308258522460598 37.84107999725872" fill="#4cff2c" stroke="none" /><path d="M 92.57280143429618 80.3572730644239 l -7.119067130234545 -18.827811110497937 a41.12877512461639,41.12877512461639 0 0,0 0.6643622591235891,-0.24469022681896133 l 6.793922545338386 18.947564605123222" fill="#ff990e" stroke="none" /><path d="M 93.25333710446033 80.11325718540243 l -12.996708027286978 -38.30963455220886 a61.45420273680277,61.45420273680277 0 0,0 1.004680164044854,-0.3312272541141287 l 12.335345040999716 38.52767553058222" fill="#4cff2c" stroke="none" /><path d="M 93.59665428221793 80.00007090966166 l -12.254095704327845 -38.27390491695412 a61.18774264776353,61.18774264776353 0 0,0 1.005852560610454,-0.31252328682104163 l 11.593457771006662 38.47916833865769" fill="#50ff2b" stroke="none" /><path d="M 94.28887869178378 79.79150937346287 l -7.307324911847537 -25.856569842718745 a47.869298491004564,47.869298491004564 0 0,0 0.7948631154853794,-0.217266115590296 l 6.861163907138436 25.978522499135337" fill="#fffe18" stroke="none" /><path d="M 95.33964822691252 79.52364482259891 l -3.7864966799824287 -16.636866629920554 a38.06232365093577,38.06232365093577 0 0,0 0.6400945968072136,-0.1398998865218397 l 3.4995593590216942 16.699580014538263" fill="#ff6809" stroke="none" /><path d="M 95.692805502759 79.44645832069477 l -3.300880182254968 -15.751500993936638 a37.09365072131213,37.09365072131213 0 0,0 0.6260588481488859,-0.12558151528281017 l 3.0292549246389457 15.805986465296659" fill="#ff5808" stroke="none" /><path d="M 96.04723909329186 79.375362276772 l -2.9708724320204363 -15.501359449381704 a36.783479584244866,36.783479584244866 0 0,0 0.6228754668080758,-0.11382651023938928 l 2.703601844109467 15.550201440971831" fill="#ff5307" stroke="none" /><path d="M 97.11714578562143 79.19881850522333 l -2.3832480939216993 -17.196282733094137 a38.36064547514559,38.36064547514559 0 0,0 0.6548441146557802,-0.08501756023425465 l 2.086889250758061 17.234758616492527" fill="#ff6c0a" stroke="none" /><path d="M 97.83486435360386 79.11191278185805 l -1.836465587050954 -17.717251766320967 a38.81217606031407,38.81217606031407 0 0,0 0.6651203298598524,-0.06316118966867518 l 1.5312201301008654 17.746238500504823" fill="#ff740a" stroke="none" /><path d="M 98.19473922651362 79.07773832637324 l -1.739414335566296 -20.15912738041346 a41.2340302206582,41.2340302206582 0 0,0 0.7076737630312006,-0.05492910401599713 l 1.3921503831727615 20.18608174661792" fill="#ff9a0e" stroke="none" /><path d="M 98.55514903715128 79.0497635885617 l -1.1053520217538892 -16.027525861869808 a37.06559642045389,37.06559642045389 0 0,0 0.6368892319473327,-0.03841889774010947 l 0.8293007409669335 16.044178028990224" fill="#ff5708" stroke="none" /><path d="M 98.91598698831166 79.02799685794201 l -1.32975445636795 -25.726272965745704 a46.7606166001959,46.7606166001959 0 0,0 0.804191684204224,-0.03463018558398256 l 0.8867219397744017 25.745350877853877" fill="#ffee16" stroke="none" /></svg>