<?xml version="1.0" encoding="utf-8" ?>
<svg baseProfile="full" height="200mm" version="1.1" viewBox="0,0,200,200" width="200mm" xmlns="http://www.w3.org/2000/svg" xmlns:ev="http://www.w3.org/2001/xml-events" xmlns:xlink="http://www.w3.org/1999/xlink"><defs /><rect fill="#1a1a1a" height="200" width="200" x="0" y="0" /><text alignment-baseline="middle" fill="#e1ed5e" style="dominant-baseline: central; font-size:9.0px; font-family:Arial;" text-anchor="middle" x="100.0" y="100.0">2023</text><line stroke="#e1ed5e" stroke-width="0.3" x1="100.0" x2="100.0" y1="15.0" y2="10.0" /><path d="M 100.0 14.0 a86.0,86.0 0 0,1 42.46469731375804,11.215312516191453" fill="none" id="id25" stroke="none" /><text fill="#e1ed5e" style="font-size:6.75px; font-family:Arial;" text-anchor="middle"><textPath startOffset="22.20632615414155" xlink:href="#id25">January</textPath></text><path d="M 101.08401301168833 79.027996857942 l 0.18832581978764715 -3.6434707348814994 a24.648334635191326,24.648334635191326 0 0,0 0.42352640806086045,0.0255482695346824 l -0.2510142766881195 3.639689195966513" fill="#ff0000" stroke="none" /><path d="M 103.95276090670814 79.375362276772 l 4.04817945345818 -21.122510730284144 a42.50693414781311,42.50693414781311 0 0,0 0.7174231091692315,0.14390832653314925 l -4.411168972094536 21.049698447673787" fill="#fffa17" stroke="none" /><path d="M 104.66035177308747 79.52364482259891 l 6.365785441580569 -27.969580416153303 a49.684850582561964,49.684850582561964 0 0,0 0.8322835024643601,0.19697461503182986 l -6.846292631007453 27.855859888980604" fill="#acff20" stroke="none" /><path d="M 105.36241919743992 79.69619591428918 l 7.912664040623411 -29.959832411752913 a51.987123299204384,51.987123299204384 0 0,0 0.8632390298866557,0.23595583591129315 l -8.427200959733778 29.819190035015325" fill="#92ff23" stroke="none" /><path d="M 106.0581310904928 79.89281104454417 l 9.359093794627398 -31.063221407627143 a53.44250854782808,53.44250854782808 0 0,0 0.8785302699877489,0.27296363135141816 l -9.892409437325865 30.897517641393204" fill="#81ff25" stroke="none" /><path d="M 106.74666289553966 80.11325718540242 l 11.371568361801065 -33.51930560503627 a56.395711820091016,56.395711820091016 0 0,0 0.9166129208504102,0.3197882499182139 l -11.94686328671475 33.31859650194585" fill="#61ff29" stroke="none" /><path d="M 107.4271985657038 80.35727306442388 l 13.038042940245784 -34.481738300650306 a57.86435731090707,57.86435731090707 0 0,0 0.9286315504881085,0.3602946144326418 l -13.62965765573356 34.25220098232712" fill="#51ff2b" stroke="none" /><path d="M 108.09893153111575 80.62456947434976 l 14.21814276331411 -34.01468900631852 a57.86671468729683,57.86671468729683 0 0,0 0.9157166273286883,0.39206207052148084 l -14.801543148433115 33.76490740783425" fill="#51ff2b" stroke="none" /><path d="M 108.76106565485865 80.91482961587045 l 16.89634968689123 -36.807133441046666 a61.50002104800348,61.50002104800348 0 0,0 0.958292709163813,0.4499312762547715 l -17.527420607354642 36.51083718215189" fill="#30ff34" stroke="none" /><path d="M 109.41281617654863 81.2277094730956 l 15.534138318218591 -30.98024566986094 a55.65667432190349,55.65667432190349 0 0,0 0.8527119647028885,0.4367921878332148 l -16.065110770510238 30.708260956715222" fill="#69ff28" stroke="none" /><path d="M 109.73455568895987 81.39251694778311 l 16.398403322057668 -31.345345555386988 a56.37567412077812,56.37567412077812 0 0,0 0.8559839499388476,0.4572369814558587 l -16.935532318524828 31.058429847429377" fill="#61ff29" stroke="none" /><path d="M 110.36928655335952 81.73862282372117 l 18.193988201308734 -32.04147934143277 a57.846676987983926,57.846676987983926 0 0,0 0.8616490275173367,0.49912273233444665 l -18.7428339612914 31.72355245170827" fill="#51ff2b" stroke="none" /><line stroke="#e1ed5e" stroke-width="0.3" x1="143.23703022742887" x2="145.7803849466894" y1="26.81831364943548" y2="22.513508569990506" /><path d="M 143.74570117128098 25.957352633546492 a86.0,86.0 0 0,1 28.547481713284135,27.462654790039103" fill="none" id="id26" stroke="none" /><text fill="#e1ed5e" style="font-size:6.75px; font-family:Arial;" text-anchor="middle"><textPath startOffset="19.985693538727396" xlink:href="#id26">February</textPath></text><path d="M 110.99172775467656 82.1063720568725 l 19.28334956797948 -31.391705687023418 a57.841372891106985,57.841372891106985 0 0,0 0.8438804216347311,0.52843784260993 l -19.820849141986475 31.05512350309054" fill="#51ff2b" stroke="none" /><path d="M 111.60114157652 82.49532879139004 l 17.91262013483163 -27.02790271774368 a53.424828224904935,53.424828224904935 0 0,0 0.7621822732532573,0.5146288732089549 l -18.37520710249143 26.715561932236053" fill="#81ff25" stroke="none" /><path d="M 111.90073688211348 82.69761687909136 l 23.38510911982964 -33.999417122117755 a62.265284358527005,62.265284358527005 0 0,0 0.8778481801680483,0.6149887497891495 l -23.96688843958134 33.59184352956467" fill="#31ff3e" stroke="none" /><path d="M 112.48926042617603 83.11751280151076 l 17.538427325973966 -23.70775087625002 a50.48989461966258,50.48989461966258 0 0,0 0.6942452984648332,0.522891165589266 l -17.943918778197183 23.402343121154907" fill="#a3ff22" stroke="none" /><path d="M 113.06298171725822 83.55741782278167 l 24.403617509981515 -30.71722023457711 a60.23116320621898,60.23116320621898 0 0,0 0.8062273941797915,0.651913150069651 l -24.928748302725797 30.29260098724333" fill="#39ff2e" stroke="none" /><path d="M 113.6212207817346 84.01681056812373 l 30.847337395834067 -36.1963765926001 a68.55771128687493,68.55771128687493 0 0,0 0.8915969572871559,0.7731840954171096 l -31.465828151767987 35.660027503763324" fill="#39ff89" stroke="none" /><path d="M 113.89432698308785 84.25364557470407 l 20.734941977277863 -23.49878088802566 a52.33896172537501,52.33896172537501 0 0,0 0.6704097916552334,0.601900530317327 l -21.13636275652909 23.138381348939035" fill="#8eff24" stroke="none" /><path d="M 114.42810811169701 84.74124197986012 l 25.35630489213665 -26.816109058701457 a57.905906069776464,57.905906069776464 0 0,0 0.718355182142007,0.6910571160685458 l -25.814143317891073 26.37566885587061" fill="#51ff2b" stroke="none" /><path d="M 114.94478906791727 85.2469230424477 l 26.219455518482896 -25.88311171816392 a57.84284625135058,57.84284625135058 0 0,0 0.6933862614567426,0.7145954928042948 l -26.661106043642746 25.42795202980951" fill="#51ff2b" stroke="none" /><path d="M 115.4437574822437 85.77008943001954 l 14.159624979159712 -13.046708185463647 a40.25387166330678,40.25387166330678 0 0,0 0.46513609280606427,0.5136148911329683 l -14.382104712581812 12.80104050706113" fill="#ffdd14" stroke="none" /><path d="M 115.68641384162765 86.03803664274999 l 40.550535734386436 -36.092704155101785 a75.28654751937586,75.28654751937586 0 0,0 0.8532767082259249,0.9754427812957011 l -41.16580430619021 35.389345817603136" fill="#42ffd4" stroke="none" /><path d="M 116.15771136456269 86.58626213691792 l 28.352420121348207 -23.53748762500137 a57.849329036422404,57.849329036422404 0 0,0 0.6294599484376431,0.7716434686024601 l -28.75337856186226 23.04595998679081" fill="#51ff2b" stroke="none" /><path d="M 116.60985879189232 87.15038557335679 l 29.143252990411575 -22.545619969249714 a57.84608764388649,57.84608764388649 0 0,0 0.6024919586486951,0.7928087942681221 l -29.527020889284383 22.040626399100557" fill="#51ff2b" stroke="none" /><path d="M 117.04232023915458 87.72973835380427 l 9.334029620266161 -6.720386898426712 a32.50163940560438,32.50163940560438 0 0,0 0.32298485617306966,0.45683917372887345 l -9.448327096243114 6.558721224366045" fill="#ff740a" stroke="none" /><path d="M 117.2510076193507 88.02491185347247 l 51.10404343232376 -35.47476403984582 a83.20998423738405,83.20998423738405 0 0,0 0.8066436668010348,1.183650046429985 l -51.707111564793536 34.58983597014543" fill="#4cd9ff" stroke="none" /><path d="M 117.65298651832404 88.62581576622439 l 30.98390313247883 -19.963569458598872 a57.858463869932685,57.858463869932685 0 0,0 0.5322218353938772,0.841847130242883 l -31.322952564118662 19.427274680641784" fill="#51ff2b" stroke="none" /><line stroke="#e1ed5e" stroke-width="0.3" x1="172.23445277983987" x2="176.4835382374775" y1="55.19839476539836" y2="52.563006222186495" /><path d="M 173.08426987136738 54.67131705675599 a86.0,86.0 0 0,1 12.851231095245387,41.99856678651699" fill="none" id="id27" stroke="none" /><text fill="#e1ed5e" style="font-size:6.75px; font-family:Arial;" text-anchor="middle"><textPath startOffset="22.20632615414155" xlink:href="#id27">March</textPath></text><path d="M 118.03404312379186 89.2402003453031 l 31.63905542722169 -18.877070179101178 a57.842551579301855,57.842551579301855 0 0,0 0.5027903902263164,0.8594317587963755 l -31.959305491918336 18.32965900795091" fill="#51ff2b" stroke="none" /><path d="M 118.3937258080291 89.86733742301442 l 32.27602164313328 -17.78008653878027 a57.849329036422404,57.849329036422404 0 0,0 0.47296482196189604,0.876331984187797 l -32.57729456431364 17.221873571260016" fill="#51ff2b" stroke="none" /><path d="M 118.56541770881063 90.18545643968196 l 32.57625252437619 -17.22132270046798 a57.84815034822752,57.84815034822752 0 0,0 0.45780080461955924,0.8843254394555127 l -32.867862762155866 16.658024538752123" fill="#51ff2b" stroke="none" /><path d="M 118.89224826269711 90.83032412892265 l 26.522596852639413 -12.873196086363468 a50.481643802298436,50.481643802298436 0 0,0 0.3727031063307364,0.7850077930749173 l -26.740258152811904 12.41474587764801" fill="#a3ff22" stroke="none" /><path d="M 119.196687751892 91.48605970444005 l 26.94191469837958 -11.949032882897468 a50.472803640836865,50.472803640836865 0 0,0 0.34540051349878215,0.7972320067989532 l -27.143605921721043 11.483501731511911" fill="#a3ff22" stroke="none" /><path d="M 119.47837535516314 92.15188598940014 l 10.670709863668675 -4.299380521071327 a32.50429145404286,32.50429145404286 0 0,0 0.2046322374642661,0.5207667240414366 l -10.743135651014642 4.115064792134106" fill="#ff740a" stroke="none" /><path d="M 119.61058180528143 92.48833698450437 l 44.350347481101416 -16.988015358547315 a68.492588764108,68.492588764108 0 0,0 0.4122451876870662,1.104612147588954 l -44.63619725729011 16.22208007392903" fill="#39ff89" stroke="none" /><path d="M 119.85752413597 93.16781622104841 l 22.31355724554335 -7.677207028421017 a44.597337661426494,44.597337661426494 0 0,0 0.24350721080158672,0.7280555661139366 l -22.442401750116705 7.291978359384767" fill="#eaff1a" stroke="none" /><path d="M 120.08093135843002 93.85539295169968 l 22.54289935969836 -6.897949891979357 a44.57464791367512,44.57464791367512 0 0,0 0.2181909973260936,0.7356315744285666 l -22.658296254136154 6.50888893080426" fill="#eaff1a" stroke="none" /><path d="M 120.28053869075195 94.5502522615342 l 22.78746851913679 -6.123405148215112 a44.5958643011829,44.5958643011829 0 0,0 0.19283181247436323,0.7430596345105864 l -22.889496663481456 5.730249088155675" fill="#eaff1a" stroke="none" /><path d="M 120.37134235888165 94.90015583598534 l 34.316951026466135 -8.591044190212491 a56.375968792826846,56.375968792826846 0 0,0 0.2275634765310173,0.9433975244432283 l -34.45974730325798 7.999061434109856" fill="#61ff29" stroke="none" /><path d="M 120.53481517161879 95.60439243477599 l 28.827423918641546 -6.170693118184589 a50.480465114103566,50.480465114103566 0 0,0 0.17456794852974464,0.8512553135760813 l -28.929371163086287 5.673562148445096" fill="#a3ff22" stroke="none" /><path d="M 120.67395015179393 96.31383870115 l 17.415678284720506 -3.1052120574445903 a38.690341772803166,38.690341772803166 0 0,0 0.11125893889552083,0.6566565553687832 l -17.46654908513625 2.804969713759969" fill="#ffc812" stroke="none" /><path d="M 120.83666639777658 97.38593545837742 l 62.50999919332973 -7.84219362486773 a84.0,84.0 0 0,0 0.16763858798564435,1.436225046700589 l -62.63572813431897 6.7650248398422885" fill="#4dd2ff" stroke="none" /><line stroke="#e1ed5e" stroke-width="0.3" x1="184.98032266829074" x2="189.97916517819016" y1="98.17113171792111" y2="98.06355123074" /><path d="M 185.9800911702706 98.14961562048488 a86.0,86.0 0 0,1 -9.607161424134198,41.387399972396054" fill="none" id="id28" stroke="none" /><text fill="#e1ed5e" style="font-size:6.75px; font-family:Arial;" text-anchor="middle"><textPath startOffset="21.466115282336823" xlink:href="#id28">April</textPath></text><path d="M 120.99513854157772 99.54816195383933 l 29.498092562913776 -0.6348307958386967 a50.50492289414724,50.50492289414724 0 0,0 0.011224100746062384,0.8693189721755366 l -29.504649670777553 0.12697556560269752" fill="#a3ff22" stroke="none" /><path d="M 120.99980553446 99.90962569577887 l 36.37103416490966 -0.1565255878709348 a57.3713709734,57.3713709734 0 0,0 -0.0042501332061069775,0.9875812775878258 l -36.36833973441405 -0.46956516792057573" fill="#56ff2a" stroke="none" /><path d="M 120.9904718944345 100.63252640178507 l 36.836144244384485 1.1100195313243129 a57.852865101007026,57.852865101007026 0 0,0 -0.038562700945769496,0.995131961900623 l -36.81157941058751 -1.743928740238942" fill="#51ff2b" stroke="none" /><path d="M 120.95626037817324 101.35467743843564 l 38.24522174939608 2.472289334877563 a59.325046656407714,59.325046656407714 0 0,0 -0.07464628047909616,1.0184891903913067 l -38.196998910252645 -3.13025166176564" fill="#42ff2d" stroke="none" /><line stroke="#e1ed5e" stroke-width="0.3" x1="174.80103733775053" x2="179.2010983576182" y1="140.37084112569926" y2="142.7455964860345" /><path d="M 175.68104954172406 140.8457921977663 a86.0,86.0 0 0,1 -30.038265399797805,32.042727171017184" fill="none" id="id29" stroke="none" /><text fill="#e1ed5e" style="font-size:6.75px; font-family:Arial;" text-anchor="middle"><textPath startOffset="22.206326154141568" xlink:href="#id29">May</textPath></text><line stroke="#e1ed5e" stroke-width="0.3" x1="143.8653032363475" x2="146.44561519142675" y1="172.8068346515853" y2="177.08958963109032" /><path d="M 144.38136562736335 173.6633856474863 a86.0,86.0 0 0,1 -40.68145358897372,12.25698825130547" fill="none" id="id30" stroke="none" /><text fill="#e1ed5e" style="font-size:6.75px; font-family:Arial;" text-anchor="middle"><textPath startOffset="21.466115282336833" xlink:href="#id30">June</textPath></text><line stroke="#e1ed5e" stroke-width="0.3" x1="102.19456741930631" x2="102.32365962044197" y1="184.97166512339345" y2="189.96999836594603" /><path d="M 102.22038585953345 185.97133177190398 a86.0,86.0 0 0,1 -42.740103519485714,-10.115201625700543" fill="none" id="id31" stroke="none" /><text fill="#e1ed5e" style="font-size:6.75px; font-family:Arial;" text-anchor="middle"><textPath startOffset="22.20632615414155" xlink:href="#id31">July</textPath></text><line stroke="#e1ed5e" stroke-width="0.3" x1="58.666819895761336" x2="56.23545636021788" y1="174.27360380694188" y2="178.64263932499728" /><path d="M 58.180547188652646 175.14741091055294 a86.0,86.0 0 0,1 -31.652253787137756,-30.449443065178592" fill="none" id="id32" stroke="none" /><text fill="#e1ed5e" style="font-size:6.75px; font-family:Arial;" text-anchor="middle"><textPath startOffset="22.20632615414155" xlink:href="#id32">August</textPath></text><line stroke="#e1ed5e" stroke-width="0.3" x1="26.63291911575756" x2="22.317208475507996" y1="142.92168965132927" y2="145.44649492493687" /><path d="M 25.769776987707644 143.4266507060508 a86.0,86.0 0 0,1 -11.730757126820373,-40.83630448921669" fill="none" id="id33" stroke="none" /><text fill="#e1ed5e" style="font-size:6.75px; font-family:Arial;" text-anchor="middle"><textPath startOffset="21.46611528233685" xlink:href="#id33">September</textPath></text><line stroke="#e1ed5e" stroke-width="0.3" x1="15.007084014347285" x2="10.007500721073583" y1="101.09737516637583" y2="101.16192664675087" /><path d="M 14.007167355692545 101.11028546245083 a86.0,86.0 0 0,1 10.666146001902534,-42.60595125391555" fill="none" id="id34" stroke="none" /><text fill="#e1ed5e" style="font-size:6.75px; font-family:Arial;" text-anchor="middle"><textPath startOffset="22.20632615414155" xlink:href="#id34">October</textPath></text><line stroke="#e1ed5e" stroke-width="0.3" x1="26.266209847984243" x2="21.928928074336255" y1="57.711370442889674" y2="55.22380399835377" /><path d="M 25.398753493254645 57.213857153982495 a86.0,86.0 0 0,1 29.58750427330803,-30.492523968695096" fill="none" id="id35" stroke="none" /><text fill="#e1ed5e" style="font-size:6.75px; font-family:Arial;" text-anchor="middle"><textPath startOffset="21.46611528233685" xlink:href="#id35">November</textPath></text><line stroke="#e1ed5e" stroke-width="0.3" x1="56.762969772571076" x2="54.21961505331055" y1="26.818313649435495" y2="22.513508569990535" /><path d="M 56.25429882871897 25.957352633546506 a86.0,86.0 0 0,1 42.265352541879196,-11.944610805530505" fill="none" id="id36" stroke="none" /><text fill="#e1ed5e" style="font-size:6.75px; font-family:Arial;" text-anchor="middle"><textPath startOffset="22.20632615414155" xlink:href="#id36">December</textPath></text></svg>