<?xml version="1.0" encoding="utf-8" ?>
<svg baseProfile="full" height="200mm" version="1.1" viewBox="0,0,200,200" width="200mm" xmlns="http://www.w3.org/2000/svg" xmlns:ev="http://www.w3.org/2001/xml-events" xmlns:xlink="http://www.w3.org/1999/xlink"><defs /><rect fill="#1a1a1a" height="200" width="200" x="0" y="0" /><text alignment-baseline="middle" fill="#e1ed5e" style="dominant-baseline: central; font-size:9.0px; font-family:Arial;" text-anchor="middle" x="100.0" y="100.0">2022</text><line stroke="#e1ed5e" stroke-width="0.3" x1="100.0" x2="100.0" y1="15.0" y2="10.0" /><path d="M 100.0 14.0 a86.0,86.0 0 0,1 42.46469731375804,11.215312516191453" fill="none" id="id13" stroke="none" /><text fill="#e1ed5e" style="font-size:6.75px; font-family:Arial;" text-anchor="middle"><textPath startOffset="22.20632615414155" xlink:href="#id13">January</textPath></text><path d="M 100.0 79.0 l 0.0 -33.28395024523284 a54.28395024523284,54.28395024523284 0 0,0 0.9344089691168024,0.00804275300062814 l -0.572928489844274 33.279018868840765" fill="#c3ff1e" stroke="none" /><path d="M 100.36148047927253 79.00311137660856 l 0.2458991038566413 -14.283250112593414 a35.285366643813425,35.285366643813425 0 0,0 0.6071996034503634,0.015682174343798115 l -0.49172534250187255 14.276901146107257" fill="#ff0000" stroke="none" /><path d="M 100.72285384407766 79.0124445844662 l 0.8187307825847703 -23.771275217919616 a44.78537041083092,44.78537041083092 0 0,0 0.770221290414817,0.033167348968784684 l -1.227792905388919 23.753660142426636" fill="#ffa70f" stroke="none" /><path d="M 101.80526077348638 79.07773832637324 l 4.080922200262487 -47.2962817325897 a68.47201482698088,68.47201482698088 0 0,0 1.1733979825587932,0.11142827726955788 l -4.894445309911524 47.21902791080496" fill="#34ff60" stroke="none" /><path d="M 102.16513564639614 79.11191278185805 l 4.255528756897958 -41.0550978555791 a62.27506008392915,62.27506008392915 0 0,0 1.065298815384752,0.1196987344213736 l -4.961594275792435 40.97576316768713" fill="#55ff2b" stroke="none" /><path d="M 102.88285421437855 79.19881850522331 l 6.517486332353756 -47.02680260862279 a68.47628662482765,68.47628662482765 0 0,0 1.1661544858141293,0.1718608575858516 l -7.326009798596541 46.90764726687597" fill="#34ff60" stroke="none" /><path d="M 103.2404852339499 79.25152402106235 l 9.08271407272139 -58.15563446703614 a79.86062788647716,79.86062788647716 0 0,0 1.3563787403103662,0.22381411405272403 l -10.082422019170632 57.99067409004379" fill="#46fffb" stroke="none" /><path d="M 103.95276090670814 79.375362276772 l 8.937109293419944 -46.63187220782011 a68.48055842267442,68.48055842267442 0 0,0 1.155800485878323,0.23184270426075057 l -9.738476188765391 46.47112554748215" fill="#34ff60" stroke="none" /><path d="M 105.01212808612495 79.60689891045804 l 11.327558255143247 -46.089013813174304 a68.46062336605615,68.46062336605615 0 0,0 1.1419594209624644,0.2911108831904958 l -12.119226564790736 45.88719993381494" fill="#34ff60" stroke="none" /><path d="M 105.36241919743992 79.69619591428918 l 16.08725759231978 -60.91141225713248 a84.0,84.0 0 0,0 1.3948084431051566,0.3812538366948255 l -17.13336392464865 60.62547187961136" fill="#4dd2ff" stroke="none" /><path d="M 106.0581310904928 79.89281104454417 l 13.701688656785183 -45.47647429801574 a68.49574703724073,68.49574703724073 0 0,0 1.1259873230648565,0.34984974230168725 l -14.482461352560758 45.23388442083154" fill="#34ff61" stroke="none" /><path d="M 106.74666289553966 80.11325718540242 l 19.965051410459097 -58.84981194814244 a83.14421649802983,83.14421649802983 0 0,0 1.3513627308969924,0.47146392210717447 l -20.975096145419364 58.49742717286306" fill="#4cdcff" stroke="none" /><path d="M 107.4271985657038 80.35727306442388 l 17.671708787208097 -46.7364036549434 a70.9657954810858,70.9657954810858 0 0,0 1.1388889422055462,0.4418712158744396 l -18.47358089441331 46.42528973517842" fill="#38ff84" stroke="none" /><path d="M 107.76421540070413 80.48803036053334 l 17.57789212377509 -44.1743665965031 a68.54321145776044,68.54321145776044 0 0,0 1.092500881196499,0.44565854050353065 l -18.335676874559976 43.86524716981599" fill="#35ff61" stroke="none" /><path d="M 108.43124777332544 80.76684994638697 l 17.633834884947802 -40.22585997719632 a64.9212015279023,64.9212015279023 0 0,0 1.0196272930725698,0.45747704497945946 l -18.323644296487153 39.916362601700335" fill="#33ff2f" stroke="none" /><path d="M 108.76106565485865 80.91482961587045 l 18.542454767634485 -40.393020954484456 a65.44568337464496,65.44568337464496 0 0,0 1.0197739798367373,0.47879755720954525 l -19.23500695877082 40.067858414634905" fill="#30ff33" stroke="none" /><path d="M 109.08828744355905 81.06846463323043 l 19.238088175178135 -40.074276802890125 a65.4528030377229,65.4528030377229 0 0,0 1.011491201926094,0.4963343399270746 l -19.925050644114663 39.73718730282822" fill="#30ff33" stroke="none" /><path d="M 109.73455568895987 81.39251694778311 l 17.74516997745797 -33.91967339492802 a59.28100443754661,59.28100443754661 0 0,0 0.9000972338899479,0.4808007700027669 l -18.32641225787623 33.6091938984235" fill="#7cff26" stroke="none" /><path d="M 110.05341064243156 81.56283822128135 l 25.001241897254225 -45.85030472972577 a73.22367796520783,73.22367796520783 0 0,0 1.1014093323217131,0.612933100966451 l -25.786775318647972 45.41315623119914" fill="#3cffa4" stroke="none" /><path d="M 110.36928655335952 81.73862282372117 l 7.062670746520915 -12.438087587839222 a35.30340312361091,35.30340312361091 0 0,0 0.5258580881980585,0.3046109464753065 l -7.275725567184302 12.314672483973867" fill="#ff0000" stroke="none" /><line stroke="#e1ed5e" stroke-width="0.3" x1="143.23703022742887" x2="145.7803849466894" y1="26.81831364943548" y2="22.513508569990506" /><path d="M 143.74570117128098 25.957352633546492 a86.0,86.0 0 0,1 28.547481713284135,27.462654790039103" fill="none" id="id14" stroke="none" /><text fill="#e1ed5e" style="font-size:6.75px; font-family:Arial;" text-anchor="middle"><textPath startOffset="19.985693538727396" xlink:href="#id14">February</textPath></text><path d="M 110.68208982089419 81.91981866633111 l 22.925718308677126 -38.80337566669116 a66.06984050447898,66.06984050447898 0 0,0 0.9741775666255768,0.5869310837447196 l -23.590257941520342 38.40299797348783" fill="#31ff3c" stroke="none" /><path d="M 110.99172775467656 82.1063720568725 l 19.425970609460276 -31.623881001958132 a58.11385433696725,58.11385433696725 0 0,0 0.847855807174993,0.5309272286705393 l -19.96744556900753 31.28480943196465" fill="#8cff24" stroke="none" /><path d="M 111.2981086023043 82.29822771554956 l 24.547856490334098 -38.461354989510085 a66.62754744558544,66.62754744558544 0 0,0 0.9614449460540353,0.6253505372446181 l -25.206268462172414 38.033105528105935" fill="#32ff45" stroke="none" /><path d="M 111.90073688211348 82.69761687909136 l 21.156755983062773 -30.759632890019713 a58.33313995976825,58.33313995976825 0 0,0 0.8224107748759991,0.5761513046108897 l -21.683097897522423 30.390896742644887" fill="#89ff24" stroke="none" /><path d="M 112.19680574252982 82.90503203632743 l 15.646124267647101 -21.929511607978558 a47.93890651015965,47.93890651015965 0 0,0 0.6676170351320971,0.4850521684443147 l -16.021286619132987 21.656940204717568" fill="#ffdb14" stroke="none" /><path d="M 114.16331599549186 84.49514656593476 l 23.230522978675353 -25.43089867483661 a55.44398068273425,55.44398068273425 0 0,0 0.6991013798008969,0.6497385417041486 l -23.6648322422711 25.02725554705782" fill="#b2ff20" stroke="none" /><path d="M 114.94478906791727 85.2469230424477 l 33.83005009046383 -33.39607740158068 a68.53704108309287,68.53704108309287 0 0,0 0.8215820238410785,0.846712494667003 l -34.399896378008016 32.80880071136357" fill="#35ff61" stroke="none" /><path d="M 115.19652480421416 85.50635884689758 l 34.39714859041279 -32.80618001696908 a68.53324392945129,68.53324392945129 0 0,0 0.8068408300347504,0.860681542131081 l -34.956756742418 32.209229057959945" fill="#35ff61" stroke="none" /><path d="M 115.68641384162765 86.03803664274999 l 36.39201683917162 -32.391342644331104 a69.71937979823853,69.71937979823853 0 0,0 0.790179983727951,0.9033123178228176 l -36.94418868647742 31.760114770305336" fill="#36ff72" stroke="none" /><path d="M 115.9244219780498 86.31012108654704 l 43.23028680628303 -37.164136480910756 a78.00904084200374,78.00904084200374 0 0,0 0.8666038704994986,1.0257856417398494 l -43.86360129026965 36.4144918895418" fill="#44ffe3" stroke="none" /><path d="M 116.38621287248628 86.86637796730983 l 37.62664887405439 -30.157925355549004 a69.2210033827817,69.2210033827817 0 0,0 0.7371902354166924,0.9361567361386888 l -38.14019319006505 29.505776225457275" fill="#36ff6b" stroke="none" /><path d="M 117.04232023915458 87.72973835380427 l 39.48105636707236 -28.42587657631129 a69.64960710007459,69.64960710007459 0 0,0 0.6921425732096878,0.9789865846783145 l -39.96451156008593 27.74206349130118" fill="#36ff71" stroke="none" /><path d="M 117.2510076193507 88.02491185347247 l 39.96880056002895 -27.7450407754988 a69.65482818633174,69.65482818633174 0 0,0 0.6752389936564313,0.9908299030752965 l -40.44046401935412 27.0529328491531" fill="#36ff72" stroke="none" /><path d="M 117.45458315368197 88.32363383020206 l 41.82203916466746 -27.97714726010381 a71.31703219293158,71.31703219293158 0 0,0 0.6737875782554672,1.0262247075917437 l -42.29742337828085 27.25310448853439" fill="#39ff89" stroke="none" /><line stroke="#e1ed5e" stroke-width="0.3" x1="172.23445277983987" x2="176.4835382374775" y1="55.19839476539836" y2="52.563006222186495" /><path d="M 173.08426987136738 54.67131705675599 a86.0,86.0 0 0,1 12.851231095245387,41.99856678651699" fill="none" id="id15" stroke="none" /><text fill="#e1ed5e" style="font-size:6.75px; font-family:Arial;" text-anchor="middle"><textPath startOffset="22.20632615414155" xlink:href="#id15">March</textPath></text><path d="M 117.84615892207809 88.93136811851018 l 42.7905260093419 -26.53974911244202 a71.35263050832134,71.35263050832134 0 0,0 0.6383824772968562,1.0493329413055816 l -43.24102428492499 25.799248397929357" fill="#39ff8a" stroke="none" /><path d="M 118.03404312379186 89.2402003453031 l 43.25162207567211 -25.805571445092916 a71.36497125765646,71.36497125765646 0 0,0 0.6203326230851594,1.0603495366267306 l -43.68941437322759 25.05724249611229" fill="#39ff8a" stroke="none" /><path d="M 118.21658344932153 89.55222093294921 l 38.66174109796413 -22.17371498133977 a65.56909086799618,65.56909086799618 0 0,0 0.5530982578413159,0.9839000843375959 l -39.037696997097875 21.50493138706738" fill="#30ff34" stroke="none" /><path d="M 118.56541770881063 90.18545643968196 l 39.58042263036283 -20.92405288878257 a65.77081465520489,65.77081465520489 0 0,0 0.5204994747175917,1.00543931349904 l -39.93473153824054 20.239640853023182" fill="#30ff38" stroke="none" /><path d="M 118.73160827565052 90.50648371742162 l 46.579582972035254 -23.607371181018934 a73.22035545577145,73.22035545577145 0 0,0 0.5601008072362847,1.1291290495738184 l -46.97904379222494 22.802082542946167" fill="#3cffa4" stroke="none" /><path d="M 119.04729006885535 91.15688171328212 l 40.66801854173678 -18.88101126989486 a65.83726484393247,65.83726484393247 0 0,0 0.4683778488168573,1.0320085040313702 l -40.98699870751698 18.178180757021426" fill="#30ff39" stroke="none" /><path d="M 119.196687751892 91.48605970444005 l 41.310243444055374 -18.32154332161128 a66.19087477680421,66.19087477680421 0 0,0 0.4529639823365019,1.0455033230489055 l -41.619498136234554 17.60774085397577" fill="#31ff3e" stroke="none" /><path d="M 119.34039704204932 91.81776055985345 l 41.38956581799425 -17.510464604745742 a65.9412119248706,65.9412119248706 0 0,0 0.4332598660034957,1.0491731313917696 l -41.68484737088394 16.79541690290067" fill="#30ff3a" stroke="none" /><path d="M 119.61058180528143 92.48833698450437 l 41.80200488332247 -16.011894862347 a65.76369499212693,65.76369499212693 0 0,0 0.39582044238969,1.0606019960615853 l -42.07142991421378 15.289969729256082" fill="#30ff37" stroke="none" /><path d="M 119.7369772167798 92.82701384747503 l 37.06398848926362 -13.47012124859762 a60.43581378879086,60.43581378879086 0 0,0 0.3469214838567033,0.9807937518123363 l -37.290363053930136 12.83012987035867" fill="#6dff28" stroke="none" /><path d="M 120.45610955862082 95.25157060432595 l 17.15507656228915 -3.9821682417164803 a38.61119858962864,38.61119858962864 0 0,0 0.1447103835039421,0.6487082743934586 l -17.22108133279513 3.686281797773058" fill="#ff3d05" stroke="none" /><line stroke="#e1ed5e" stroke-width="0.3" x1="184.98032266829074" x2="189.97916517819016" y1="98.17113171792111" y2="98.06355123074" /><path d="M 185.9800911702706 98.14961562048488 a86.0,86.0 0 0,1 -9.607161424134198,41.387399972396054" fill="none" id="id16" stroke="none" /><text fill="#e1ed5e" style="font-size:6.75px; font-family:Arial;" text-anchor="middle"><textPath startOffset="21.466115282336823" xlink:href="#id16">April</textPath></text><path d="M 120.32669344350535 105.2749913415812 l 25.421881587637962 6.597246405776821 a47.26396245036954,47.26396245036954 0 0,0 -0.2111392017704369,0.7857275154987827 l -25.30455430952575 -7.033864854451152" fill="#ffd013" stroke="none" /><path d="M 120.02730092923936 106.31721596034902 l 25.731409873863935 8.1164643059882 a47.98114984442218,47.98114984442218 0 0,0 -0.25523172584631204,0.7855224808020278 l -25.587885897001375 -8.558185686768024" fill="#ffdb14" stroke="none" /><path d="M 119.67450827220406 107.3425965602758 l 25.12783235877304 9.377796532042344 a47.8207201030656,47.8207201030656 0 0,0 -0.2944520315849605,0.7687213392315932 l -24.962686047594573 -9.808941438107082" fill="#ffd914" stroke="none" /><path d="M 119.12269723197855 108.67885076344098 l 25.30867677744617 11.486362311081443 a48.79326607951421,48.79326607951421 0 0,0 -0.3536939821233386,0.7618253713998684 l -25.107208178483 -11.920307749760143" fill="#ffe815" stroke="none" /><path d="M 118.81262510543309 109.33194174019688 l 25.76826905484301 12.782266388547011 a49.76438812334722,49.76438812334722 0 0,0 -0.3872648811614189,0.7641103503602747 l -25.544425503895322 -13.22393095060998" fill="#fff717" stroke="none" /><line stroke="#e1ed5e" stroke-width="0.3" x1="174.80103733775053" x2="179.2010983576182" y1="140.37084112569926" y2="142.7455964860345" /><path d="M 175.68104954172406 140.8457921977663 a86.0,86.0 0 0,1 -30.038265399797805,32.042727171017184" fill="none" id="id17" stroke="none" /><text fill="#e1ed5e" style="font-size:6.75px; font-family:Arial;" text-anchor="middle"><textPath startOffset="22.206326154141568" xlink:href="#id17">May</textPath></text><path d="M 118.48025628344425 109.97397251340804 l 32.255482840702214 17.40859511499747 a57.65344945792618,57.65344945792618 0 0,0 -0.47886293628368587,0.8692753244972149 l -31.95104349496702 -17.96124095789249" fill="#93ff23" stroke="none" /><path d="M 118.12598468904814 110.60418214915192 l 31.843617811791773 18.6293616240471 a57.892670137345455,57.892670137345455 0 0,0 -0.5106109364919293,0.8558132998466663 l -31.51822599960162 -19.174737017779872" fill="#8fff24" stroke="none" /><path d="M 117.75023020441432 111.22182372390056 l 30.339385495816913 19.180778615527604 a56.89401872961102,56.89401872961102 0 0,0 -0.5304558176282308,0.8232792088377661 l -30.004724814811635 -19.700179424286823" fill="#9dff22" stroke="none" /><path d="M 117.35343817320211 111.8261652097733 l 24.947030043509343 17.001109281232424 a51.18927002734854,51.18927002734854 0 0,0 -0.5024814136414324,0.7238619531852025 l -24.650687722705776 -17.428012496604644" fill="#f1ff19" stroke="none" /><path d="M 116.71984013943494 112.70617746262583 l 29.22592936533619 22.210131312815243 a57.707558897318634,57.707558897318634 0 0,0 -0.6078342201463658,0.7857076664166169 l -28.839288327971754 -22.709916973345113" fill="#92ff23" stroke="none" /><path d="M 116.0416608686014 113.55231037782055 l 28.185878941694153 23.81198448330113 a57.89789122360263,57.89789122360263 0 0,0 -0.649717702233249,0.7557684711735363 l -27.771818729890125 -24.293630053636196" fill="#8fff24" stroke="none" /><path d="M 115.80600337817218 113.82643327865902 l 29.507691368863807 25.812099121924785 a60.20418741665474,60.20418741665474 0 0,0 -0.6890258885574208,0.7741278901075559 l -29.05900663065805 -26.316201181773206" fill="#70ff27" stroke="none" /><path d="M 115.07121518719521 114.62390073753431 l 28.078031226351165 27.244673800982614 a60.12349790177125,60.12349790177125 0 0,0 -0.7270917117432688,0.7365400652554389 l -27.604898889552363 -27.723954360218716" fill="#71ff27" stroke="none" /><path d="M 114.55890576462653 115.13401014063108 l 28.608313994564927 29.738396628134918 a62.26509255562001,62.26509255562001 0 0,0 -0.7788004087000507,0.7364043966964469 l -28.092177751474072 -30.226435661577284" fill="#55ff2b" stroke="none" /><path d="M 114.0293411484842 115.62618273729858 l 29.083737110523643 32.39409363294992 a64.53436650066676,64.53436650066676 0 0,0 -0.8329777876349838,0.7350060489211966 l -28.52181696998207 -32.8899228236434" fill="#38ff2e" stroke="none" /><path d="M 113.20401910651253 116.32954008644616 l 27.690627949712535 34.245271494697704 a65.03986257920154,65.03986257920154 0 0,0 -0.8766212275112446,0.6964409205633105 l -27.09704922948394 -34.71684632926614" fill="#32ff2f" stroke="none" /><path d="M 112.63410532772338 116.77436683061366 l 26.94062501688529 35.769206837907085 a65.77983289510362,65.77983289510362 0 0,0 -0.9103146706034494,0.673429030762274 l -26.320925375863276 -36.22764581740913" fill="#30ff38" stroke="none" /><path d="M 112.04921762599082 117.19931262002967 l 27.263453013696463 38.91643972572836 a68.5161567380642,68.5161567380642 0 0,0 -0.9717650274538985,0.6683888469093962 l -26.58953110161968 -39.37996936200285" fill="#35ff61" stroke="none" /><path d="M 111.1453310114006 117.79835938074945 l 25.940976039327907 41.42602976646338 a69.87791096277432,69.87791096277432 0 0,0 -1.0249452400863164,0.629605079433172 l -25.22405159930928 -41.866423312724926" fill="#37ff75" stroke="none" /><line stroke="#e1ed5e" stroke-width="0.3" x1="143.8653032363475" x2="146.44561519142675" y1="172.8068346515853" y2="177.08958963109032" /><path d="M 144.38136562736335 173.6633856474863 a86.0,86.0 0 0,1 -40.68145358897372,12.25698825130547" fill="none" id="id18" stroke="none" /><text fill="#e1ed5e" style="font-size:6.75px; font-family:Arial;" text-anchor="middle"><textPath startOffset="21.466115282336833" xlink:href="#id18">June</textPath></text><path d="M 110.5260780823613 118.17145234162733 l 24.27934665890714 41.914090627684985 a69.43839042876193,69.43839042876193 0 0,0 -1.0394306502042152,0.5902158506595513 l -23.554267241781726 -42.32580964413916" fill="#36ff6e" stroke="none" /><path d="M 109.89434966115114 118.52300852407294 l 24.752162099182495 46.33801363949883 a73.53456991961185,73.53456991961185 0 0,0 -1.121609129716818,0.5867728861466528 l -23.95086206693918 -46.75721594459021" fill="#3cffa8" stroke="none" /><path d="M 108.92500713936063 119.00905698771935 l 22.19649295731383 47.27552515810272 a73.2270004746442,73.2270004746442 0 0,0 -1.1455911061845232,0.5258846891537723 l -21.379433855361885 -47.65059691759056" fill="#3cffa4" stroke="none" /><path d="M 108.2653958097858 119.30500536409082 l 14.94859019914203 34.91455468331782 a58.98008001145173,58.98008001145173 0 0,0 -0.9367400002353554,0.39155739607024204 l -14.345378739409213 -35.16669712240803" fill="#80ff25" stroke="none" /><path d="M 107.59598834532513 119.57807347666477 l 13.741006770229456 35.41638401228821 a58.98862360714528,58.98862360714528 0 0,0 -0.9498004894256797,0.3591332739035632 l -13.129336060043501 -35.647665536298405" fill="#80ff25" stroke="none" /><path d="M 107.2578585660854 119.70592522655815 l 12.219718282381686 33.17794809166381 a56.356721489328045,56.356721489328045 0 0,0 -0.9131947595169626,0.3274391508494779 l -11.646803962234989 -33.38337478355325" fill="#a5ff21" stroke="none" /><path d="M 106.57524785965236 119.94407469862006 l 14.874819558489092 45.11837709167147 a68.50713849816546,68.50713849816546 0 0,0 -1.1231212139912885,0.3595879457210478 l -14.095976999406863 -45.367737884052225" fill="#35ff61" stroke="none" /><path d="M 106.2309692047433 120.05430185196036 l 14.087386185170038 45.340088448435004 a68.47818520164844,68.47818520164844 0 0,0 -1.1286673144383879,0.3400582032411273 l -13.304843896291404 -45.57586202078186" fill="#34ff60" stroke="none" /><path d="M 105.18746579009965 120.34920634021253 l 11.729102814961069 46.01050744714892 a68.48198235529003,68.48198235529003 0 0,0 -1.1447797600046639,0.2813590126559632 l -10.935369770213194 -46.205587718118906" fill="#34ff60" stroke="none" /><path d="M 104.83641907484287 120.43548508189849 l 7.941279803439505 33.5545581230763 a55.48147757494481,55.48147757494481 0 0,0 -0.9312429965276106,0.21194787414278693 l -7.362516657519032 -33.68628273079677" fill="#b1ff20" stroke="none" /><path d="M 104.13013068566511 120.58985236759428 l 9.352047731471636 46.62256397697667 a68.55128040924878,68.55128040924878 0 0,0 -1.1589487908504563,0.22211529408785985 l -8.548131326049475 -46.776636469413" fill="#35ff61" stroke="none" /><path d="M 103.7750983002368 120.6578951692458 l 8.54028141057483 46.7336805731513 a68.50761314237066,68.50761314237066 0 0,0 -1.1618598515547722,0.20200422799564713 l -7.734572587548008 -46.873763379667956" fill="#35ff61" stroke="none" /><path d="M 102.70371172650421 120.8252237178851 l 6.124218413823574 47.171529906396174 a68.56741831222548,68.56741831222548 0 0,0 -1.171760290686778,0.1418838528297833 l -5.311330700085415 -47.26995928795131" fill="#35ff62" stroke="none" /><path d="M 102.34483914955558 120.86867818915974 l 5.305765878513136 47.220433302088274 a68.51758067067979,68.51758067067979 0 0,0 -1.1731756461248801,0.12160445254665507 l -4.492157635782653 -47.304767123090684" fill="#35ff61" stroke="none" /><path d="M 101.62511606390274 120.93702456842531 l 3.6756755659509786 47.3552082459031 a68.49764561406153,68.49764561406153 0 0,0 -1.176323895590398,0.081126183007549 l -2.8599889095816504 -47.41146277342693" fill="#34ff61" stroke="none" /><path d="M 101.26447882468166 120.96189622390904 l 2.861703702572305 47.439889752205836 a68.52612426637333,68.52612426637333 0 0,0 -1.1780356421686364,0.06089098669751868 l -2.044679991990189 -47.48212054566555" fill="#35ff61" stroke="none" /><line stroke="#e1ed5e" stroke-width="0.3" x1="102.19456741930631" x2="102.32365962044197" y1="184.97166512339345" y2="189.96999836594603" /><path d="M 102.22038585953345 185.97133177190398 a86.0,86.0 0 0,1 -42.740103519485714,-10.115201625700543" fill="none" id="id19" stroke="none" /><text fill="#e1ed5e" style="font-size:6.75px; font-family:Arial;" text-anchor="middle"><textPath startOffset="22.20632615414155" xlink:href="#id19">July</textPath></text><path d="M 100.18074693466247 120.99922214144158 l 0.40879574697547644 47.49398775279685 a68.49574703724073,68.49574703724073 0 0,0 -1.1790853632758311,0.0 l 0.4087957469754437 -47.49398775279685" fill="#34ff61" stroke="none" /><path d="M 99.81925306533755 120.99922214144158 l -0.4088284290650226 47.49778476578849 a68.4995441908823,68.4995441908823 0 0,0 -1.178976023550638,-0.02029714143309391 l 1.2263641425083283 -47.48371014707624" fill="#34ff61" stroke="none" /><path d="M 99.09653310690486 120.98055641714683 l -2.043720240071436 47.459832922918665 a68.50381598872907,68.50381598872907 0 0,0 -1.1776521395780002,-0.06087116399410705 l 2.860360448062925 -47.41762195216236" fill="#35ff61" stroke="none" /><path d="M 98.73552117531835 120.96189622390904 l -2.86018896876386 47.41477925428447 a68.5009681234979,68.5009681234979 0 0,0 -1.176380953715657,-0.08113011806993199 l 3.675932683258447 -47.358520791698254" fill="#35ff61" stroke="none" /><path d="M 97.65516085044442 120.86867818915974 l -5.30428192609385 47.2072263725248 a68.50429063293427,68.50429063293427 0 0,0 -1.1706814910227472,-0.14175322521424827 l 6.1160908401679865 -47.108927618585206" fill="#35ff61" stroke="none" /><path d="M 97.2962882734958 120.8252237178851 l -6.114746429488123 47.09857235293228 a68.49384846041995,68.49384846041995 0 0,0 -1.1678899434884893,-0.16185890433009595 l 6.9245649641634435 -46.98633888310958" fill="#34ff61" stroke="none" /><path d="M 96.58105272829116 120.7198165907248 l -5.261991445549468 31.889201262602132 a53.320422508682974,53.320422508682974 0 0,0 -0.9042915865720142,-0.15722268359991368 l 5.810132003593532 -31.793900000481212" fill="#d1ff1d" stroke="none" /><path d="M 96.22490169976321 120.6578951692458 l -8.537892305865121 46.72060703950643 a68.49432310462514,68.49432310462514 0 0,0 -1.157985853339625,-0.2219307448220926 l 9.34084577377644 -46.56671909633587" fill="#34ff61" stroke="none" /><path d="M 95.16358092515715 120.4354850818985 l -10.939523673781519 46.223139347348976 a68.5000188350875,68.5000188350875 0 0,0 -1.14508126700408,-0.2814331157407904 l 11.73355822552881 -46.02798497329416" fill="#35ff61" stroke="none" /><path d="M 94.81253420990036 120.34920634021253 l -11.73648941669182 46.039483345758136 a68.51188494021743,68.51188494021743 0 0,0 -1.1402646936955043,-0.3011542693095112 l 12.527244553198814 -45.83063772714504" fill="#35ff61" stroke="none" /><path d="M 94.11515582081647 120.15858648285463 l -13.309765261337137 45.59272020085734 a68.49574703724073,68.49574703724073 0 0,0 -1.1289567711428288,-0.3401454141717257 l 14.092597006920212 -45.35685941757989" fill="#34ff61" stroke="none" /><path d="M 93.76903079525671 120.05430185196036 l -14.097526162629865 45.37272384785206 a68.51235958442263,68.51235958442263 0 0,0 -1.1232068096367067,-0.3596153507436893 l 14.876454317357512 -45.12333565044867" fill="#35ff61" stroke="none" /><path d="M 92.7421414339146 119.70592522655815 l -16.424465419807767 44.59432276089266 a68.52280175693696,68.52280175693696 0 0,0 -1.1033142776647613,-0.4171790529628885 l 17.189649918232814 -44.30499545782314" fill="#35ff61" stroke="none" /><path d="M 92.40401165467489 119.57807347666478 l -17.175400036155636 44.26826748699726 a68.48340628790561,68.48340628790561 0 0,0 -1.0953396577604755,-0.4358582550571432 l 17.934860769957968 -43.96606238753405" fill="#34ff60" stroke="none" /><path d="M 91.7346041902142 119.30500536409082 l -18.690875170888543 43.65519253250454 a68.48815272995759,68.48815272995759 0 0,0 -1.0797624476081809,-0.4733361257381037 l 19.439558293154466 -43.32699185347199" fill="#34ff60" stroke="none" /><path d="M 91.40352486487194 119.15986991738527 l -19.449273214840193 43.34864452306392 a68.51188494021743,68.51188494021743 0 0,0 -1.071826041579123,-0.492022765941381 l 20.192567252186738 -43.007434686788464" fill="#35ff61" stroke="none" /><path d="M 90.42595943632237 118.69057910512821 l -21.661419152389232 42.28773269804819 a68.51283422862784,68.51283422862784 0 0,0 -1.0450135284344573,-0.546701687687403 l 22.386123583350184 -41.90860159141607" fill="#35ff61" stroke="none" /><path d="M 90.10565033884886 118.52300852407294 l -22.372929228677762 41.88390071137475 a68.48483022052119,68.48483022052119 0 0,0 -1.0350248973829792,-0.5643780991574519 l 23.09057693792938 -41.492581960457535" fill="#34ff60" stroke="none" /><line stroke="#e1ed5e" stroke-width="0.3" x1="58.666819895761336" x2="56.23545636021788" y1="174.27360380694188" y2="178.64263932499728" /><path d="M 58.180547188652646 175.14741091055294 a86.0,86.0 0 0,1 -31.652253787137756,-30.449443065178592" fill="none" id="id20" stroke="none" /><text fill="#e1ed5e" style="font-size:6.75px; font-family:Arial;" text-anchor="middle"><textPath startOffset="22.20632615414155" xlink:href="#id20">August</textPath></text><path d="M 89.4739219176387 118.17145234162733 l -23.793769242189875 41.07582524365425 a68.4696416059549,68.4696416059549 0 0,0 -1.0147596346164292,-0.5995378787161084 l 24.497296747834685 -40.66016879264439" fill="#34ff60" stroke="none" /><line stroke="#e1ed5e" stroke-width="0.3" x1="26.63291911575756" x2="22.317208475507996" y1="142.92168965132927" y2="145.44649492493687" /><path d="M 25.769776987707644 143.4266507060508 a86.0,86.0 0 0,1 -11.730757126820373,-40.83630448921669" fill="none" id="id21" stroke="none" /><text fill="#e1ed5e" style="font-size:6.75px; font-family:Arial;" text-anchor="middle"><textPath startOffset="21.46611528233685" xlink:href="#id21">September</textPath></text><line stroke="#e1ed5e" stroke-width="0.3" x1="15.007084014347285" x2="10.007500721073583" y1="101.09737516637583" y2="101.16192664675087" /><path d="M 14.007167355692545 101.11028546245083 a86.0,86.0 0 0,1 10.666146001902534,-42.60595125391555" fill="none" id="id22" stroke="none" /><text fill="#e1ed5e" style="font-size:6.75px; font-family:Arial;" text-anchor="middle"><textPath startOffset="22.20632615414155" xlink:href="#id22">October</textPath></text><path d="M 79.3925641242962 95.95851677861259 l -25.920645830713074 -5.083497813323883 a47.41442466341699,47.41442466341699 0 0,0 0.16396518584965658,-0.7995524772534441 l 25.82930134894842 5.52892594674073" fill="#ffd213" stroke="none" /><path d="M 79.54389044137918 95.25157060432595 l -25.74972183547785 -5.97722336906845 a47.43435972003526,47.43435972003526 0 0,0 0.1914703735661234,-0.7937683110667157 l 25.64301866165091 6.419576911794563" fill="#ffd213" stroke="none" /><path d="M 79.71946130924805 94.55025226153421 l -25.454917266686095 -6.8401968962597 a47.35794200299854,47.35794200299854 0 0,0 0.21832739545910848,-0.7854398044278893 l 25.333403100660625 7.277348004106532" fill="#ffd113" stroke="none" /><path d="M 79.91906864156998 93.8553929516997 l -24.381059527438445 -7.460412445184528 a46.49693741477123,46.49693741477123 0 0,0 0.24077556978235237,-0.7633243540678002 l 24.24902847388789 7.8789869656787435" fill="#ffc312" stroke="none" /><path d="M 80.14247586403 93.16781622104843 l -26.284802574355954 -9.043554501145618 a48.797063233155775,48.797063233155775 0 0,0 0.2801112208707544,-0.791912141584297 l 26.125238272675393 9.494664269156525" fill="#ffe815" stroke="none" /><path d="M 80.38941819471856 92.48833698450439 l -25.37684429630858 -9.72037977472114 a48.17480468014254,48.17480468014254 0 0,0 0.3032866624716447,-0.7718314749326759 l 25.205764083955245 10.155760254549579" fill="#ffde14" stroke="none" /><path d="M 80.65960295795068 91.81776055985345 l -27.196272204031438 -11.505782976894256 a50.529989226329945,50.529989226329945 0 0,0 0.34579185158918413,-0.7981352690668364 l 26.994189642599572 11.97221739054769" fill="#fbff18" stroke="none" /><path d="M 80.803312248108 91.48605970444005 l -26.999396269228377 -11.974526586218937 a50.53568495679231,50.53568495679231 0 0,0 0.3595197258673703,-0.7921540598031842 l 26.789274226397655 12.437502654864192" fill="#fbff18" stroke="none" /><path d="M 81.26839172434947 90.50648371742162 l -25.410894109994153 -12.878698584664194 a49.488145195922584,49.488145195922584 0 0,0 0.3916410905697597,-0.7565259301253467 l 25.185443586264277 13.314197237049877" fill="#fff316" stroke="none" /><path d="M 81.43458229118936 90.18545643968196 l -26.298269250888946 -13.902488657787233 a50.746901628104965,50.746901628104965 0 0,0 0.4148967618715509,-0.7687406878503091 l 26.055064389798925 14.353110328970015" fill="#f8ff18" stroke="none" /><line stroke="#e1ed5e" stroke-width="0.3" x1="26.266209847984243" x2="21.928928074336255" y1="57.711370442889674" y2="55.22380399835377" /><path d="M 25.398753493254645 57.213857153982495 a86.0,86.0 0 0,1 29.58750427330803,-30.492523968695096" fill="none" id="id23" stroke="none" /><text fill="#e1ed5e" style="font-size:6.75px; font-family:Arial;" text-anchor="middle"><textPath startOffset="21.46611528233685" xlink:href="#id23">November</textPath></text><path d="M 81.78341655067845 89.55222093294921 l -28.386940788063228 -16.28079637261415 a53.7243447273056,53.7243447273056 0 0,0 0.4669933035900402,-0.7982429339388565 l 28.102487810002863 16.7670187189069" fill="#cbff1d" stroke="none" /><path d="M 81.96595687620814 89.24020034530311 l -27.994471865849547 -16.702572276662938 a53.598564012928406,53.598564012928406 0 0,0 0.4795392101225788,-0.7882363750959925 l 27.70281685744075 17.181976424966003" fill="#cdff1d" stroke="none" /><path d="M 82.54541684631803 88.32363383020206 l -27.469359164197996 -18.37582102229759 a54.04900136366033,54.04900136366033 0 0,0 0.5239549682227682,-0.768839263219648 l 27.148979730306486 18.84593830878765" fill="#c6ff1e" stroke="none" /><path d="M 82.7489923806493 88.02491185347247 l -26.499391193480015 -18.395015083946852 a53.25824411780217,53.25824411780217 0 0,0 0.5292534970852213,-0.7485915382112253 l 26.178825076590915 18.848433122489865" fill="#d2ff1c" stroke="none" /><path d="M 83.17141714833178 87.43820079747576 l -28.202656486487175 -21.052046442870868 a56.193443882740276,56.193443882740276 0 0,0 0.58527896089627,-0.77015850691085 l 27.836101585366798 21.53438972566274" fill="#a7ff21" stroke="none" /><path d="M 83.39014120810768 87.1503855733568 l -28.12705035913592 -21.759471684978543 a56.56129314176793,56.56129314176793 0 0,0 0.602366781308791,-0.7649446409577816 l 27.74832949723316 22.240408719889373" fill="#a2ff22" stroke="none" /><path d="M 84.07557802195018 86.31012108654704 l -27.65487254710936 -23.774291905775403 a57.469287506309755,57.469287506309755 0 0,0 0.651340858137424,-0.7445951965032114 l 27.241539825394092 24.246802658481556" fill="#95ff23" stroke="none" /><path d="M 84.31358615837235 86.03803664274999 l -27.467031064138812 -24.44750502707392 a57.77116122081503,57.77116122081503 0 0,0 0.6675495075822142,-0.737124839300881 l 27.042137915940554 24.916682653644358" fill="#91ff24" stroke="none" /><path d="M 84.80347519578584 85.50635884689758 l -28.621986012159258 -27.29813557335914 a60.55257626326932,60.55257626326932 0 0,0 0.72586892239558,-0.7480717302082746 l 28.147852826060557 27.786771499117535" fill="#6bff28" stroke="none" /><path d="M 85.05521093208273 85.24692304244772 l -28.13434147838631 -27.77343347533329 a60.53359049506144,60.53359049506144 0 0,0 0.7384066081984261,-0.7352356555579748 l 27.652099070020572 28.253604981541375" fill="#6bff28" stroke="none" /><path d="M 85.83668400450813 84.49514656593479 l -26.664778442726067 -29.190443942497907 a60.53596371608743,60.53596371608743 0 0,0 0.7754051949960222,-0.6961664401210518 l 26.158362260134073 29.64510939138824" fill="#6bff28" stroke="none" /><path d="M 86.10567301691215 84.25364557470407 l -26.4588995330277 -29.985706415105557 a60.990198220460925,60.990198220460925 0 0,0 0.7931810169414475,-0.687838761756088 l 25.93882471743948 30.436710170281327" fill="#65ff29" stroke="none" /><path d="M 86.65592168130627 83.78471172551755 l -27.794642130418804 -33.77514159216471 a64.74131137413265,64.74131137413265 0 0,0 0.8665982190355304,-0.7007288252602144 l 27.209140512818774 34.248576514689056" fill="#35ff2f" stroke="none" /><path d="M 86.93701828274178 83.55741782278169 l -27.008369911352602 -33.995863375772565 a64.41855331459871,64.41855331459871 0 0,0 0.8741519303994051,-0.6822894472448958 l 26.41918542579377 34.45573121224068" fill="#39ff2e" stroke="none" /><line stroke="#e1ed5e" stroke-width="0.3" x1="56.762969772571076" x2="54.21961505331055" y1="26.818313649435495" y2="22.513508569990535" /><path d="M 56.25429882871897 25.957352633546506 a86.0,86.0 0 0,1 42.265352541879196,-11.944610805530505" fill="none" id="id24" stroke="none" /><text fill="#e1ed5e" style="font-size:6.75px; font-family:Arial;" text-anchor="middle"><textPath startOffset="22.20632615414155" xlink:href="#id24">December</textPath></text><path d="M 89.3179101791058 81.91981866633112 l -22.205026726860492 -37.5835549477709 a64.653027551966,64.653027551966 0 0,0 0.9630322987745071,-0.5578504668839511 l 21.554797695620664 37.960209572044896" fill="#37ff2e" stroke="none" /><path d="M 89.94658935756843 81.56283822128135 l -21.228344149774006 -38.931107989540465 a65.34268558211721,65.34268558211721 0 0,0 0.9921351890953123,-0.529964258197237 l 20.555063914150388 39.29075097423945" fill="#30ff31" stroke="none" /><path d="M 90.91171255644093 81.06846463323043 l -20.76739858534528 -43.259936840234815 a68.98652914541441,68.98652914541441 0 0,0 1.0749474030092474,-0.5047022191838745 l 20.019672971036425 43.611004042058696" fill="#35ff68" stroke="none" /><path d="M 91.23893434514133 80.91482961587045 l -20.104226881606483 -43.795196907795194 a69.18920222103353,69.18920222103353 0 0,0 1.0866588619769155,-0.487552156023504 l 19.34738590116279 44.13476939433523" fill="#36ff6b" stroke="none" /><path d="M 92.23578459929587 80.48803036053334 l -17.792162497785533 -44.71284174390173 a69.12275203230595,69.12275203230595 0 0,0 1.109311005544759,-0.4303954359708674 l 17.0198683272411 45.01247988376315" fill="#35ff6a" stroke="none" /><path d="M 92.57280143429618 80.3572730644239 l -16.855019671127877 -44.576504312478306 a68.65665142280251,68.65665142280251 0 0,0 1.1090261721850705,-0.4084636986726359 l 16.085211173170237 44.860031278957265" fill="#35ff63" stroke="none" /><path d="M 93.25333710446033 80.11325718540243 l -16.902161710544064 -49.821511486893606 a73.61051299244338,73.61051299244338 0 0,0 1.2034168368501963,-0.39674761052294966 l 16.04206205145146 50.10507282167579" fill="#3dffa9" stroke="none" /></svg>