<?xml version="1.0" encoding="utf-8" ?>
<svg baseProfile="full" height="200mm" version="1.1" viewBox="0,0,200,200" width="200mm" xmlns="http://www.w3.org/2000/svg" xmlns:ev="http://www.w3.org/2001/xml-events" xmlns:xlink="http://www.w3.org/1999/xlink"><defs /><rect fill="#1a1a1a" height="200" width="200" x="0" y="0" /><text alignment-baseline="middle" fill="#e1ed5e" style="dominant-baseline: central; font-size:9.0px; font-family:Arial;" text-anchor="middle" x="100.0" y="100.0">2014</text><line stroke="#e1ed5e" stroke-width="0.3" x1="100.0" x2="100.0" y1="15.0" y2="10.0" /><path d="M 100.0 14.0 a86.0,86.0 0 0,1 42.46469731375804,11.215312516191453" fill="none" id="id25" stroke="none" /><text fill="#e1ed5e" style="font-size:6.75px; font-family:Arial;" text-anchor="middle"><textPath startOffset="22.20632615414155" xlink:href="#id25">January</textPath></text><path d="M 100.0 79.0 l 0.0 -7.667189562444985 a28.667189562444985,28.667189562444985 0 0,0 0.49345854392519223,0.004247353477986395 l -0.13197806465266382 7.666053585575558" fill="#ff5207" stroke="none" /><path d="M 100.36148047927253 79.00311137660856 l 0.12745628690407346 -7.403402435068197 a28.404499491568966,28.404499491568966 0 0,0 0.488791883660664,0.012624052278431096 l -0.25487480575960525 7.400111590647406" fill="#ff4f07" stroke="none" /><path d="M 101.08401301168833 79.027996857942 l 0.30989912440126927 -5.995504980647839 a27.00350876073965,27.00350876073965 0 0,0 0.46399479882699457,0.02798943338007708 l -0.41305597206787575 5.989282277887458" fill="#ff3b05" stroke="none" /><path d="M 101.44485096284872 79.0497635885617 l 0.7657921049282155 -11.103931168531819 a32.13030659701083,32.13030659701083 0 0,0 0.5514322722075521,0.042801757278839364 l -0.9568145664981087 11.089104149064514" fill="#ff820c" stroke="none" /><path d="M 101.80526077348638 79.07773832637324 l 0.32496465735150715 -3.766212447334276 a24.780206109061147,24.780206109061147 0 0,0 0.42465588210361593,0.04032619288470567 l -0.3897456665453673 3.7600607099343923" fill="#ff1b02" stroke="none" /><path d="M 104.66035177308747 79.52364482259891 l 1.7036507351982728 -7.485391500618283 a28.676816511098206,28.676816511098206 0 0,0 0.48037260866315984,0.11368867625405518 l -1.8322470308239562 7.454956912223358" fill="#ff5307" stroke="none" /><path d="M 105.36241919743992 79.69619591428918 l 1.1788748050910742 -4.46359044357756 a25.616642227211834,25.616642227211834 0 0,0 0.42536081979189466,0.11626718014718085 l -1.2555335141066797 4.442636722604086" fill="#ff2703" stroke="none" /><path d="M 106.74666289553966 80.11325718540242 l 2.4564389698759084 -7.240701186652329 a28.646034664263134,28.646034664263134 0 0,0 0.46559081634001365,0.1624354937057059 l -2.5807117902791954 7.1973448397744155" fill="#ff5207" stroke="none" /><path d="M 107.08798089147638 80.2323363322302 l 3.6643863899002898 -10.219603976558414 a31.85670452080994,31.85670452080994 0 0,0 0.5145884388618761,0.18952726482330842 l -3.8397571545347424 10.15501344392878" fill="#ff7f0b" stroke="none" /><line stroke="#e1ed5e" stroke-width="0.3" x1="143.23703022742887" x2="145.7803849466894" y1="26.81831364943548" y2="22.513508569990506" /><path d="M 143.74570117128098 25.957352633546492 a86.0,86.0 0 0,1 28.547481713284135,27.462654790039103" fill="none" id="id26" stroke="none" /><text fill="#e1ed5e" style="font-size:6.75px; font-family:Arial;" text-anchor="middle"><textPath startOffset="19.985693538727396" xlink:href="#id26">February</textPath></text><path d="M 110.99172775467656 82.1063720568725 l 1.5778397337542585 -2.5685931984323283 a24.014506467806385,24.014506467806385 0 0,0 0.35036118318896603,0.21939614077073383 l -1.6218200693154876 2.54105271633865" fill="#ff0f01" stroke="none" /><path d="M 113.6212207817346 84.01681056812373 l 3.9153942768677026 -4.594337719830374 a27.036410475372307,27.036410475372307 0 0,0 0.3516100649121792,0.30491278346872713 l -3.993898140426646 4.526259942941976" fill="#ff3b05" stroke="none" /><path d="M 113.89432698308785 84.25364557470407 l 5.193045306918247 -5.8852459747698935 a28.84881135862309,28.84881135862309 0 0,0 0.3695244417326481,0.3317626923302394 l -5.293580736246885 5.794984273670356" fill="#ff5507" stroke="none" /><path d="M 114.16331599549186 84.49514656593476 l 7.34315305813915 -8.038690370715095 a31.887719674545536,31.887719674545536 0 0,0 0.4020769892180767,0.37368674154491016 l -7.480437931152074 7.911099043095545" fill="#ff7f0b" stroke="none" /><path d="M 114.42810811169701 84.74124197986012 l 4.186609580294124 -4.4276395779649915 a27.093577931738672,27.093577931738672 0 0,0 0.336111001986225,0.3233385176103506 l -4.262203825892767 4.35491797359234" fill="#ff3c05" stroke="none" /><path d="M 114.68862486808459 84.99185889309783 l 10.860192368366816 -11.096430127145426 a36.526575277393064,36.526575277393064 0 0,0 0.44556194897911683,0.44364856437107936 l -11.049590117513256 10.907845712124228" fill="#ffbd11" stroke="none" /><path d="M 114.94478906791727 85.2469230424477 l 8.891752761923549 -8.777689145563023 a33.49444252118957,33.49444252118957 0 0,0 0.40151181666312136,0.41379322095644155 l -9.041528842289779 8.623331729056467" fill="#ff950d" stroke="none" /><path d="M 115.19652480421416 85.50635884689758 l 6.354592120415097 -6.060673677319168 a29.78137839065093,29.78137839065093 0 0,0 0.35061571118721974,0.37401239472103176 l -6.45797515357278 5.950391865720082" fill="#ff6209" stroke="none" /><path d="M 115.4437574822437 85.77008943001954 l 7.385814818038229 -6.805305280658391 a31.04302944779662,31.04302944779662 0 0,0 0.3587042147643583,0.39609015310697215 l -7.501862673418623 6.67716234028187" fill="#ff740a" stroke="none" /><path d="M 115.68641384162765 86.03803664274999 l 13.402931429922138 -11.929510428171278 a38.94301507470364,38.94301507470364 0 0,0 0.4413692592661894,0.5045613617324266 l -13.606292552766176 11.697033510235904" fill="#ffdc14" stroke="none" /><path d="M 115.9244219780498 86.31012108654704 l 6.944141523886931 -5.969727300050795 a30.157442085033487,30.157442085033487 0 0,0 0.3350195791816788,0.3965575111362159 l -7.045871716555728 5.849310839285472" fill="#ff6709" stroke="none" /><path d="M 116.15771136456269 86.58626213691792 l 5.873409118158575 -4.8759609882873685 a28.63360532308087,28.63360532308087 0 0,0 0.3115629520768069,0.3819393396280334 l -5.95647056231179 4.774137479051234" fill="#ff5207" stroke="none" /><path d="M 116.38621287248628 86.86637796730983 l 10.638464908102106 -8.526776638283172 a34.633886292620005,34.633886292620005 0 0,0 0.3688441591674813,0.46839462543188987 l -10.783663147863551 8.342389618898244" fill="#ffa40f" stroke="none" /><path d="M 116.60985879189232 87.15038557335679 l 7.039635229160722 -5.445958302973863 a29.90027673712288,29.90027673712288 0 0,0 0.31142428173171494,0.40979785001495905 l -7.132335451116551 5.32397567707787" fill="#ff6409" stroke="none" /><path d="M 116.82858285166822 87.43820079747576 l 4.359832207452666 -3.2544235738358296 a26.440533951284557,26.440533951284557 0 0,0 0.26911098335677736,0.36706707886563833 l -4.415205803323069 3.178894051298698" fill="#ff3304" stroke="none" /><path d="M 117.04232023915458 87.72973835380427 l 7.374353301073825 -5.309443972762232 a30.0868741550084,30.0868741550084 0 0,0 0.2989881402713794,0.4228975208767025 l -7.464654061149087 5.1817199515537355" fill="#ff6609" stroke="none" /><path d="M 117.2510076193507 88.02491185347247 l 10.602975962555803 -7.360240895418336 a33.90721679143589,33.90721679143589 0 0,0 0.3286990369525075,0.4823252773969808 l -10.728099465177044 7.176637594750949" fill="#ff9a0e" stroke="none" /><path d="M 117.45458315368197 88.32363383020206 l 6.332919835918338 -4.236451267675259 a28.61927772111998,28.61927772111998 0 0,0 0.2703886187379135,0.411820416634698 l -6.404905090014176 4.126812787062887" fill="#ff5207" stroke="none" /><path d="M 117.65298651832404 88.62581576622439 l 13.769361698387986 -8.871884458552643 a37.3800383219009,37.3800383219009 0 0,0 0.34384723119332805,0.5438837446566636 l -13.92003652582727 8.633553066181774" fill="#ffc812" stroke="none" /><line stroke="#e1ed5e" stroke-width="0.3" x1="172.23445277983987" x2="176.4835382374775" y1="55.19839476539836" y2="52.563006222186495" /><path d="M 173.08426987136738 54.67131705675599 a86.0,86.0 0 0,1 12.851231095245387,41.99856678651699" fill="none" id="id27" stroke="none" /><text fill="#e1ed5e" style="font-size:6.75px; font-family:Arial;" text-anchor="middle"><textPath startOffset="22.20632615414155" xlink:href="#id27">March</textPath></text><path d="M 117.84615892207809 88.93136811851018 l 4.104299583542455 -2.5455887409688858 a25.829627015579394,25.829627015579394 0 0,0 0.23109423106603422,0.3798581537358053 l -4.147509612894713 2.4745628140259988" fill="#ff2a04" stroke="none" /><path d="M 118.03404312379186 89.2402003453031 l 7.259062703215029 -4.331034357150497 a29.45291960993511,29.45291960993511 0 0,0 0.25601645397127787,0.4376151087897825 l -7.332538831656635 4.205439836006819" fill="#ff5d08" stroke="none" /><path d="M 118.21658344932153 89.55222093294921 l 5.353703984178368 -3.0705163003092344 a27.17172720562664,27.17172720562664 0 0,0 0.229203040350632,0.40772663362125416 l -5.405764665821432 2.977906156753186" fill="#ff3d05" stroke="none" /><path d="M 118.3937258080291 89.86733742301442 l 8.141553879619892 -4.484986846902213 a30.295160385471547,30.295160385471547 0 0,0 0.24768731766967028,0.4589269824576981 l -8.217549296508027 4.3441788811120565" fill="#ff6909" stroke="none" /><path d="M 118.56541770881063 90.18545643968196 l 8.051087260468275 -4.2561793041848945 a30.10686929438687,30.10686929438687 0 0,0 0.23826084160992578,0.460244109087649 l -8.123157535238317 4.116962472836901" fill="#ff6709" stroke="none" /><path d="M 118.73160827565052 90.50648371742162 l 4.550443136162376 -2.3062464989864484 a26.10150033318969,26.10150033318969 0 0,0 0.19966403216286693,0.40251050517594983 l -4.589467181278651 2.2275764053115488" fill="#ff2e04" stroke="none" /><path d="M 118.89224826269711 90.83032412892265 l 16.81668151066755 -8.162264042678112 a39.69286846189273,39.69286846189273 0 0,0 0.2930501913301639,0.6172384400577843 l -16.95468989583947 7.871583186979788" fill="#ffe615" stroke="none" /><path d="M 119.04729006885535 91.15688171328212 l 7.430564796602045 -3.4498011631017538 a29.192339181298575,29.192339181298575 0 0,0 0.2076794207669577,0.45759407470957175 l -7.48884653433235 3.321385079550119" fill="#ff5a08" stroke="none" /><path d="M 119.196687751892 91.48605970444005 l 5.237637976181176 -2.322949541884845 a26.729654975971787,26.729654975971787 0 0,0 0.18291903536890294,0.4222023533540386 l -5.27684772139276 2.2324480439442036" fill="#ff3705" stroke="none" /><path d="M 119.34039704204932 91.81776055985345 l 8.551793859676213 -3.61796217784531 a30.285624832972466,30.285624832972466 0 0,0 0.1989885440976681,0.48186654316223976 l -8.612804090660077 3.470221064229767" fill="#ff6909" stroke="none" /><path d="M 119.47837535516314 92.15188598940014 l 14.640235515651925 -5.898758770885547 a36.78391114365686,36.78391114365686 0 0,0 0.23157477684618258,0.5893325480051617 l -14.73960384237981 5.6458772179846015" fill="#ffc011" stroke="none" /><path d="M 119.61058180528143 92.48833698450437 l 11.063691478618534 -4.237850917427199 a32.847558800546,32.847558800546 0 0,0 0.19770384339581296,0.529748008133973 l -11.13499991051597 4.046779772263893" fill="#ff8c0c" stroke="none" /><path d="M 119.7369772167798 92.82701384747503 l 21.903322052357627 -7.960298279226049 a44.30497512600142,44.30497512600142 0 0,0 0.25432515505892817,0.7190114611452898 l -22.037100288226362 7.582089191654145" fill="#e0ff1b" stroke="none" /><path d="M 120.18372546131832 94.20196356495316 l 17.593643494220082 -5.05400185908247 a39.30516938444771,39.30516938444771 0 0,0 0.18120287531164272,0.6518831530384099 l -17.678033140098087 4.7504074026251075" fill="#ffe115" stroke="none" /><path d="M 120.28053869075195 94.5502522615342 l 4.482069263248222 -1.2044131175949746 a25.641072703415592,25.641072703415592 0 0,0 0.11087159315478048,0.42723347579461507 l -4.502137188273306 1.127083216251509" fill="#ff2703" stroke="none" /><path d="M 120.37134235888165 94.90015583598534 l 17.330847517308094 -4.338674399138791 a38.86567578374595,38.86567578374595 0 0,0 0.156882595340906,0.6503796405688435 l -17.40296291290982 4.039709526910541" fill="#ffdb14" stroke="none" /><path d="M 120.45610955862082 95.25157060432595 l 3.3788738949962696 -0.7843301817140687 a24.468711955789193,24.468711955789193 0 0,0 0.09170595113099811,0.4110997971902965 l -3.3918742331293052 0.7260522149738082" fill="#ff1602" stroke="none" /><path d="M 120.53481517161879 95.60439243477599 l 8.076185330083447 -1.7287587464692789 a29.259138955687156,29.259138955687156 0 0,0 0.10118187008966398,0.49339873256696526 l -8.10474649608811 1.589484357738902" fill="#ff5b08" stroke="none" /><path d="M 120.6074358757038 95.95851677861258 l 14.458788724486785 -2.835624596095141 a35.73422336702298,35.73422336702298 0 0,0 0.11318266661432971,0.6046263308168008 l -14.505457115010975 2.5863201878157773" fill="#ffb310" stroke="none" /><path d="M 120.67395015179393 96.31383870115 l 8.817515135294997 -1.5721612369723215 a29.956576584621754,29.956576584621754 0 0,0 0.08614389977010395,0.5084261727697235 l -8.843270896585324 1.4201492758867602" fill="#ff6509" stroke="none" /><path d="M 120.73433829027371 96.67025291283417 l 2.971027346315737 -0.4771201045236856 a24.009094064115747,24.009094064115747 0 0,0 0.062016755087607955,0.4086129299608076 l -2.9787999948426447 0.42590806217079585" fill="#ff0f01" stroke="none" /><path d="M 120.78858239683441 97.02765380044208 l 30.10916918436944 -4.305001317003441 a51.41537613300851,51.41537613300851 0 0,0 0.11772652354387084,0.8771993430620559 l -30.178811706971146 3.7860836318767213" fill="#8eff24" stroke="none" /><path d="M 120.87857604477298 97.74499172005257 l 10.662286840371072 -1.1515893160841615 a31.724295716701835,31.724295716701835 0 0,0 0.05396585850988337,0.5434288304983874 l -10.680529824563184 0.9678849548813392" fill="#ff7d0b" stroke="none" /><path d="M 120.91429891909075 98.10471618934814 l 7.680591698803735 -0.6960262526267208 a28.712064664412406,28.712064664412406 0 0,0 0.040368501420229595,0.49259796699135167 l -7.691434684043458 0.5637143684276004" fill="#ff5307" stroke="none" /><path d="M 120.94382443527127 98.46500227214037 l 4.520081187409299 -0.33128211009683634 a25.532204957550096,25.532204957550096 0 0,0 0.02835218714115241,0.43859578609856736 l -4.5251139655548664 0.2534272597452338" fill="#ff2603" stroke="none" /><path d="M 120.96714384426684 98.82574320788733 l 7.1075101988285745 -0.39805336329900826 a28.11864788470998,28.11864788470998 0 0,0 0.022905171745724505,0.48349197371178354 l -7.113308978807796 0.27565028296422495" fill="#ff4b06" stroke="none" /><path d="M 120.98425023603335 99.18683210126433 l 15.817569056581531 -0.6129520591953299 a36.82944095938316,36.82944095938316 0 0,0 0.0190957241044545,0.6336941177273152 l -15.825776475141632 0.3405877940430156" fill="#ffc111" stroke="none" /><line stroke="#e1ed5e" stroke-width="0.3" x1="184.98032266829074" x2="189.97916517819016" y1="98.17113171792111" y2="98.06355123074" /><path d="M 185.9800911702706 98.14961562048488 a86.0,86.0 0 0,1 -9.607161424134198,41.387399972396054" fill="none" id="id28" stroke="none" /><text fill="#e1ed5e" style="font-size:6.75px; font-family:Arial;" text-anchor="middle"><textPath startOffset="21.466115282336823" xlink:href="#id28">April</textPath></text><path d="M 120.99513854157772 99.54816195383933 l 9.226053339433069 -0.19855462760619993 a30.228189647065555,30.228189647065555 0 0,0 0.006717845044152353,0.5203045019945856 l -9.228104191594936 0.03971386755115168" fill="#ff6809" stroke="none" /><path d="M 120.99980553446 99.90962569577887 l 6.597757927901195 -0.028393966847695774 a27.59781902544594,27.59781902544594 0 0,0 -0.0020444762791281693,0.4750642857118443 l -6.5972691543325634 -0.08517979706783324" fill="#ff4306" stroke="none" /><path d="M 120.99824983174949 100.27111621757518 l 4.709419308457807 0.060805065189485225 a25.709811830511693,25.709811830511693 0 0,0 -0.009522347847522556,0.4424660871269865 l -4.707674897925277 -0.14186096810658652" fill="#ff2803" stroke="none" /><path d="M 120.8583938346157 102.4346265915055 l 7.245814217688346 0.8457435462847923 a28.295005539637167,28.295005539637167 0 0,0 -0.060630121196940195,0.48328172044798384 l -7.230182587244557 -0.9703430210201711" fill="#ff4d07" stroke="none" /><path d="M 120.81339534386255 102.79330883721812 l 4.618315613676216 0.6198115013727556 a25.659721601636676,25.659721601636676 0 0,0 -0.06251923839988355,0.43725940775560895 l -4.60696232425973 -0.6992163811087739" fill="#ff2803" stroke="none" /><path d="M 120.76222939487914 103.15116336523771 l 8.563938499965536 1.2997818659057936 a29.66201336469354,29.66201336469354 0 0,0 -0.08096069372267857,0.5041423170941366 l -8.540296051881569 -1.447003412693135" fill="#ff6008" stroke="none" /><path d="M 120.64145759157962 103.86396538481128 l 12.379800809180114 2.3174294540635674 a33.59483812319706,33.59483812319706 0 0,0 -0.11129500666202541,0.5674908412180305 l -12.338075869542426 -2.5301840223495424" fill="#ff960d" stroke="none" /><path d="M 120.5718875245553 104.21870165774334 l 7.544551879687132 1.5471703062626359 a28.70155822037797,28.70155822037797 0 0,0 -0.10341576156434579,0.48312400914885073 l -7.516802079398344 -1.6768081348276556" fill="#ff5307" stroke="none" /><path d="M 120.41448212921028 104.9243191809786 l 4.420717495570449 1.066352005372539 a25.547510283111485,25.547510283111485 0 0,0 -0.10679915956132262,0.4266095537617119 l -4.401707021714065 -1.142289398531647" fill="#ff2603" stroke="none" /><path d="M 120.32669344350535 105.2749913415812 l 3.651961604425191 0.9477225549089501 a24.772930108188987,24.772930108188987 0 0,0 -0.11066648705237685,0.411831167265582 l -3.635107041031037 -1.0104446553500803" fill="#ff1b02" stroke="none" /><path d="M 120.23288151984713 105.62410040840565 l 6.3021164090664685 1.751788811459344 a27.54105765709025,27.54105765709025 0 0,0 -0.13089525438676566,0.4556635523644428 l -6.271028517793604 -1.860009839328369" fill="#ff4306" stroke="none" /><path d="M 119.9155931802556 106.66101706037122 l 18.643757098413477 6.23563571408298 a40.658912266536774,40.658912266536774 0 0,0 -0.22770766125807004,0.6618250512095025 l -18.533658606212175 -6.5556334683817825" fill="#fff216" stroke="none" /><path d="M 119.79798401119884 107.00284435728193 l 7.1867609431484905 2.5420653077299864 a28.623098378135293,28.623098378135293 0 0,0 -0.16829801069335007,0.4630838443086524 l -7.141938671449913 -2.6653969490447698" fill="#ff5207" stroke="none" /><path d="M 119.41010516605496 108.01547362559984 l 5.47275766944271 2.259995212979726 a26.921034949325605,26.921034949325605 0 0,0 -0.1805619694238129,0.42679515857438177 l -5.433044718826588 -2.353864897220271" fill="#ff3a05" stroke="none" /><path d="M 119.26925614724726 108.34839909993367 l 28.48880043159227 12.342763730154223 a52.04763383141302,52.04763383141302 0 0,0 -0.3632402265064665,0.8190108181528524 l -28.27211912035453 -12.831322884799762" fill="#87ff25" stroke="none" /><path d="M 118.97047184881838 109.00673069616215 l 5.863236652563483 2.783725885067844 a27.490506439959873,27.490506439959873 0 0,0 -0.20663271026475666,0.42572458573250804 l -5.814450685684012 -2.8842394267656273" fill="#ff4206" stroke="none" /><path d="M 118.81262510543309 109.33194174019688 l 6.803260265349727 3.3747352155178367 a28.594286537453183,28.594286537453183 0 0,0 -0.22251982583157992,0.43905272682705365 l -6.744161769731878 -3.491342154047585" fill="#ff5107" stroke="none" /><line stroke="#e1ed5e" stroke-width="0.3" x1="174.80103733775053" x2="179.2010983576182" y1="140.37084112569926" y2="142.7455964860345" /><path d="M 175.68104954172406 140.8457921977663 a86.0,86.0 0 0,1 -30.038265399797805,32.042727171017184" fill="none" id="id29" stroke="none" /><text fill="#e1ed5e" style="font-size:6.75px; font-family:Arial;" text-anchor="middle"><textPath startOffset="22.206326154141568" xlink:href="#id29">May</textPath></text><path d="M 118.12598468904814 110.60418214915192 l 9.634642304704846 5.6365214742096486 a32.16228949046005,32.16228949046005 0 0,0 -0.28367005214110097,0.4754473240593989 l -9.536191376865519 -5.801530892155151" fill="#ff830c" stroke="none" /><path d="M 117.75023020441432 111.22182372390056 l 13.871016816928512 8.769357005416248 a37.410567626500814,37.410567626500814 0 0,0 -0.34880034283680117,0.5413458779224455 l -13.71801161071466 -9.006824483260147" fill="#ffc812" stroke="none" /><path d="M 116.71984013943494 112.70617746262583 l 50.159520418304794 38.11853238787748 a84.0,84.0 0 0,0 -0.8847727311277263,1.1436880235469893 l -49.495940869959 -38.97629840553772" fill="#4dd2ff" stroke="none" /><path d="M 115.80600337817218 113.82643327865902 l 6.662579609584663 5.828147080045054 a29.851963931280505,29.851963931280505 0 0,0 -0.3416502548333462,0.3838476831147488 l -6.5612705051029785 -5.94196893290067" fill="#ff6309" stroke="none" /><path d="M 115.32070863581623 114.36230785411682 l 5.81219116338894 5.448604289779446 a28.966734263572462,28.966734263572462 0 0,0 -0.3441433536527526,0.36083293043791465 l -5.7175412583572225 -5.547844336799868" fill="#ff5708" stroke="none" /><path d="M 114.55890576462653 115.13401014063108 l 7.447217077925965 7.74139626967382 a31.74198577591089,31.74198577591089 0 0,0 -0.39702296231468986,0.37540999179237633 l -7.312858281220468 -7.868440898212119" fill="#ff7d0b" stroke="none" /><path d="M 114.29624159901734 115.38237550388516 l 2.294340735156313 2.4686495732179137 a24.37019734204788,24.37019734204788 0 0,0 -0.30973412619876256,0.2829347805573192 l -2.2515070594906867 -2.507777120361816" fill="#ff1502" stroke="none" /><path d="M 114.0293411484842 115.62618273729858 l 4.031344234674698 4.490198151235928 a27.034369542529483,27.034369542529483 0 0,0 -0.3489463142310405,0.3079045510166251 l -3.95345556753707 -4.558925844024842" fill="#ff3b05" stroke="none" /><path d="M 113.75828350139079 115.86535959552629 l 3.9902884738689024 4.601399696511149 a27.090589566843583,27.090589566843583 0 0,0 -0.35493125951049165,0.30248011942407255 l -3.9104917377813635 -4.669404206158168" fill="#ff3c05" stroke="none" /><path d="M 113.48314897796784 116.09983520530334 l 9.017653357272524 10.767717039088875 a35.04499207211643,35.04499207211643 0 0,0 -0.4658144824877227,0.38333360659888716 l -8.83096874624011 -10.92134576454494" fill="#ffaa0f" stroke="none" /><path d="M 112.92097659922987 116.55440617244103 l 6.399641568884393 8.199246014861169 a31.401107990133063,31.401107990133063 0 0,0 -0.4289559893258374,0.32890516099330735 l -6.257556851065061 -8.308190517681847" fill="#ff780b" stroke="none" /><path d="M 112.63410532772338 116.77436683061366 l 3.620915876980258 4.807508692363016 a27.018568900935975,27.018568900935975 0 0,0 -0.37390486668540796,0.276605881570967 l -3.5376260398762853 -4.8691245226737525" fill="#ff3b05" stroke="none" /><path d="M 112.34349029814194 116.9893568818739 l 3.488247537296865 4.8011608444634994 a26.93456117466718,26.93456117466718 0 0,0 -0.37743358524223797,0.2692888415871086 l -3.4050866242057425 -4.8604939478948275" fill="#ff3a05" stroke="none" /><path d="M 112.04921762599082 117.19931262002967 l 4.279397229431654 6.108503726874252 a28.458354941171944,28.458354941171944 0 0,0 -0.4036250044850674,0.277616958534117 l -4.173615340323703 -6.181261474773463" fill="#ff5007" stroke="none" /><line stroke="#e1ed5e" stroke-width="0.3" x1="143.8653032363475" x2="146.44561519142675" y1="172.8068346515853" y2="177.08958963109032" /><path d="M 144.38136562736335 173.6633856474863 a86.0,86.0 0 0,1 -40.68145358897372,12.25698825130547" fill="none" id="id30" stroke="none" /><text fill="#e1ed5e" style="font-size:6.75px; font-family:Arial;" text-anchor="middle"><textPath startOffset="21.466115282336833" xlink:href="#id30">June</textPath></text><path d="M 110.21172684928248 118.3499491758327 l 2.145296064577073 3.8549869510923296 a25.411713907064012,25.411713907064012 0 0,0 -0.38405230025820625,0.20941593554398447 l -2.078620952450218 -3.8913435383960846" fill="#ff2403" stroke="none" /><path d="M 109.89434966115114 118.52300852407294 l 4.551229395848832 8.520262956273084 a30.65963611414415,30.65963611414415 0 0,0 -0.4676457320279797,0.24465014469479432 l -4.403892761294356 -8.597342519912594" fill="#ff6e0a" stroke="none" /><path d="M 109.57404056367764 118.69057910512821 l 2.5671706256824773 5.011667261753145 a26.630912338502103,26.630912338502103 0 0,0 -0.4097940598585673,0.20547924879821916 l -2.4805226581411497 -5.055114351460666" fill="#ff3605" stroke="none" /><path d="M 108.92500713936063 119.00905698771935 l 0.8360645293103139 1.7807042655440435 a22.9672090835744,22.9672090835744 0 0,0 -0.35930777294549654,0.16494057562589115 l -0.805288760597398 -1.794831911504009" fill="#ff0000" stroke="none" /><path d="M 107.93186726928326 119.44442032107085 l 2.7774769928856298 6.808791454556475 a28.35350389390325,28.35350389390325 0 0,0 -0.45349258944414184,0.18045406036023726 l -2.6598633273996217 -6.855592359322782" fill="#ff4e07" stroke="none" /><path d="M 105.18746579009965 120.34920634021253 l 1.858704621434772 7.291260395252878 a28.524444233372066,28.524444233372066 0 0,0 -0.4768291644119389,0.11719300741652221 l -1.732922172279622 -7.32217466098343" fill="#ff5007" stroke="none" /><path d="M 104.83641907484287 120.43548508189849 l 1.9998908272059932 8.450206347373141 a29.683636947381437,29.683636947381437 0 0,0 -0.49823256746140615,0.1133961102482415 l -1.854138110351725 -8.483379191199067" fill="#ff6108" stroke="none" /><path d="M 104.48393922423573 120.51570834832081 l 2.9079080834941466 13.304773138368954 a34.61884421254295,34.61884421254295 0 0,0 -0.5832591751354217,0.12222763107236442 l -2.678457446929347 -13.352856750167861" fill="#ffa40f" stroke="none" /><path d="M 103.41894727170886 120.7198165907248 l 0.5046314768596718 3.0582137761992816 a24.099568426147847,24.099568426147847 0 0,0 -0.40988102592059733,0.06401498661975111 l -0.4519145873305574 -3.066447070166139" fill="#ff1101" stroke="none" /><path d="M 103.06178313531738 120.77559828337769 l 1.3517072967964188 9.171951948857346 a30.27102017948191,30.27102017948191 0 0,0 -0.5161517543751891,0.07153392997090406 l -1.193626951234399 -9.193860444320853" fill="#ff6909" stroke="none" /><path d="M 102.34483914955558 120.86867818915974 l 0.3649502847945098 3.2479967975041144 a24.268435697236306,24.268435697236306 0 0,0 -0.41553040038567424,0.04307142500127687 l -0.30898728780323287 -3.25379759096115" fill="#ff1302" stroke="none" /><line stroke="#e1ed5e" stroke-width="0.3" x1="102.19456741930631" x2="102.32365962044197" y1="184.97166512339345" y2="189.96999836594603" /><path d="M 102.22038585953345 185.97133177190398 a86.0,86.0 0 0,1 -42.740103519485714,-10.115201625700543" fill="none" id="id31" stroke="none" /><text fill="#e1ed5e" style="font-size:6.75px; font-family:Arial;" text-anchor="middle"><textPath startOffset="22.20632615414155" xlink:href="#id31">July</textPath></text><path d="M 100.18074693466247 120.99922214144158 l 0.030924960951990862 3.592869367101524 a24.59300245508772,24.59300245508772 0 0,0 -0.42334379122889015,0.0 l 0.03092496095198839 -3.592869367101524" fill="#ff1802" stroke="none" /><path d="M 98.73552117531835 120.96189622390904 l -0.17693846263230437 2.9331971554764142 a23.938529015077716,23.938529015077716 0 0,0 -0.4111011911910051,-0.02835194506904402 l 0.22740241460223948 -2.929716865891085" fill="#ff0e01" stroke="none" /><path d="M 98.37488393609728 120.93702456842531 l -0.32852164125148603 4.232476576241335 a25.245207231361285,25.245207231361285 0 0,0 -0.4329621349603376,-0.03735779481403073 l 0.4013280939533653 -4.226194529148641" fill="#ff2103" stroke="none" /><path d="M 97.65516085044442 120.86867818915974 l -1.0782747466190667 9.596465792101728 a30.656854152785733,30.656854152785733 0 0,0 -0.523900202426092,-0.06343701848349549 l 1.2433023720965481 -9.576483244892884" fill="#ff6e0a" stroke="none" /><path d="M 97.2962882734958 120.8252237178851 l -0.4421938458203261 3.405979149185006 a24.434563926026765,24.434563926026765 0 0,0 -0.4166342251775162,-0.05774170722989524 l 0.5007566621846733 -3.3978628764625056" fill="#ff1602" stroke="none" /><path d="M 95.86986931433489 120.58985236759428 l -0.6328900046550138 3.1551330339258516 a24.2179829427395,24.2179829427395 0 0,0 -0.40802519771898577,-0.08550564733670354 l 0.6871066638033864 -3.1437714058626067" fill="#ff1202" stroke="none" /><path d="M 95.51606077576429 120.51570834832081 l -1.3223430611941789 6.050216834620371 a27.1930376163408,27.1930376163408 0 0,0 -0.45642846840771767,-0.10388163340608067 l 1.4262916789947593 -6.026558467636603" fill="#ff3e05" stroke="none" /><path d="M 95.16358092515715 120.4354850818985 l -1.359382532222858 5.743844986951687 a26.902514388211404,26.902514388211404 0 0,0 -0.4497161575300062,-0.11052928998112306 l 1.4580519744960747 -5.719594438656534" fill="#ff3905" stroke="none" /><path d="M 94.81253420990036 120.34920634021253 l -2.177604284865542 8.542228655200194 a29.815420059145683,29.815420059145683 0 0,0 -0.49622734582197375,-0.1310581521717459 l 2.324322073499005 -8.503479153724866" fill="#ff6309" stroke="none" /><path d="M 94.46302465271185 120.25689768951611 l -1.56771683101529 5.735456176008232 a26.94585516214107,26.94585516214107 0 0,0 -0.446363007603632,-0.12614664454835817 l 1.666211006723536 -5.707620738121352" fill="#ff3a05" stroke="none" /><path d="M 93.42475214034765 119.94407469862007 l -1.254153911055176 3.8041059165446325 a25.00551168477947,25.00551168477947 0 0,0 -0.4076258806234227,-0.13828883038830336 l 1.3194495246158247 -3.781954099258206" fill="#ff1e03" stroke="none" /><path d="M 92.7421414339146 119.70592522655815 l -3.941164960333688 10.700718580653701 a32.40342752802461,32.40342752802461 0 0,0 -0.5217411331743396,-0.19727785295242087 l 4.124776314268311 -10.631292477594648" fill="#ff860c" stroke="none" /><path d="M 92.40401165467489 119.57807347666478 l -0.955725197813397 2.463307906180023 a23.64221431651266,23.64221431651266 0 0,0 -0.3781391192675262,-0.15046935945857082 l 0.9979853931227812 -2.446491702315386" fill="#ff0a01" stroke="none" /><path d="M 91.07499286063937 119.00905698771935 l -2.5024372852786483 5.329852651239813 a26.8880830200228,26.8880830200228 0 0,0 -0.41726122085634404,-0.2003107429336809 l 2.5938111741352343 -5.285987631806569" fill="#ff3905" stroke="none" /><path d="M 90.7491055286396 118.85261126421891 l -6.1535613094814305 12.540484557179402 a34.96889651040489,34.96889651040489 0 0,0 -0.5380982028563472,-0.26981360964762263 l 6.368513420020538 -12.432703106622476" fill="#ffa90f" stroke="none" /><path d="M 90.42595943632237 118.69057910512821 l -5.852276748622636 11.424898483323048 a33.836566850085205,33.836566850085205 0 0,0 -0.5161028661596518,-0.27000062704689104 l 6.0480705173087825 -11.322468437331441" fill="#ff990e" stroke="none" /><path d="M 90.10565033884886 118.52300852407294 l -1.3192718802765184 2.469781756337144 a23.800053609848234,23.800053609848234 0 0,0 -0.3596949567652021,-0.19613436980014132 l 1.3615896489103612 -2.4467067347772367" fill="#ff0c01" stroke="none" /><line stroke="#e1ed5e" stroke-width="0.3" x1="58.666819895761336" x2="56.23545636021788" y1="174.27360380694188" y2="178.64263932499728" /><path d="M 58.180547188652646 175.14741091055294 a86.0,86.0 0 0,1 -31.652253787137756,-30.449443065178592" fill="none" id="id32" stroke="none" /><text fill="#e1ed5e" style="font-size:6.75px; font-family:Arial;" text-anchor="middle"><textPath startOffset="22.20632615414155" xlink:href="#id32">August</textPath></text><path d="M 89.7882731507175 118.34994917583269 l -4.401807245726149 7.909821760122997 a30.05213716784288,30.05213716784288 0 0,0 -0.4498536369221156,-0.255438635503114 l 4.537309649569472 -7.8328799588252505" fill="#ff6609" stroke="none" /><path d="M 88.8546689885994 117.79835938074946 l -1.6323167804630176 2.6067023628271553 a24.07560648980812,24.07560648980812 0 0,0 -0.3493464487715107,-0.2229694323611266 l 1.6769450312814518 -2.5782185016422243" fill="#ff1001" stroke="none" /><path d="M 88.54995079064634 117.60387380957326 l -5.877049864487875 9.035668082762255 a31.778822422302238,31.778822422302238 0 0,0 -0.4559887257185466,-0.3022044631010161 l 6.031713288946383 -8.933165598569921" fill="#ff7e0b" stroke="none" /><path d="M 88.24862548938628 117.40417183066458 l -12.196623520245256 18.063600245958607 a42.795671110117155,42.795671110117155 0 0,0 -0.606971238480546,-0.41748035248615933 l 12.505751643348692 -17.850979104107346" fill="#f2ff19" stroke="none" /><path d="M 87.95078237400918 117.19931262002967 l -1.9100212885255177 2.7264055038229844 a24.328883941187637,24.328883941187637 0 0,0 -0.34092027084893284,-0.24323756125611287 l 1.9566688872233373 -2.693123680722652" fill="#ff1402" stroke="none" /><path d="M 87.07902340077011 116.55440617244103 l -1.276654375803588 1.6356546207301712 a23.074900584021897,23.074900584021897 0 0,0 -0.31100846269520266,-0.24708393233570136 l 1.3046203312161488 -1.6134367743893392" fill="#ff0200" stroke="none" /><path d="M 86.79598089348748 116.32954008644616 l -5.2650548136938 6.5113449885227705 a29.37367396969579,29.37367396969579 0 0,0 -0.3904318971110194,-0.32129887085413794 l 5.376356839349508 -6.419750998811452" fill="#ff5c08" stroke="none" /><path d="M 86.51685102203217 116.09983520530335 l -9.565621555529901 11.422029893163746 a35.89845235666928,35.89845235666928 0 0,0 -0.4703287419415925,-0.40082435744677875 l 9.76081577404855 -11.255681145494016" fill="#ffb510" stroke="none" /><path d="M 86.24171649860922 115.8653595955263 l -2.9748793625971217 3.4304810506443157 a25.54071662415042,25.54071662415042 0 0,0 -0.32966697872484824,-0.2908927790023129 l 3.033488694228558 -3.378765129869714" fill="#ff2603" stroke="none" /><line stroke="#e1ed5e" stroke-width="0.3" x1="26.63291911575756" x2="22.317208475507996" y1="142.92168965132927" y2="145.44649492493687" /><path d="M 25.769776987707644 143.4266507060508 a86.0,86.0 0 0,1 -11.730757126820373,-40.83630448921669" fill="none" id="id33" stroke="none" /><text fill="#e1ed5e" style="font-size:6.75px; font-family:Arial;" text-anchor="middle"><textPath startOffset="21.46611528233685" xlink:href="#id33">September</textPath></text><line stroke="#e1ed5e" stroke-width="0.3" x1="15.007084014347285" x2="10.007500721073583" y1="101.09737516637583" y2="101.16192664675087" /><path d="M 14.007167355692545 101.11028546245083 a86.0,86.0 0 0,1 10.666146001902534,-42.60595125391555" fill="none" id="id34" stroke="none" /><text fill="#e1ed5e" style="font-size:6.75px; font-family:Arial;" text-anchor="middle"><textPath startOffset="22.20632615414155" xlink:href="#id34">October</textPath></text><line stroke="#e1ed5e" stroke-width="0.3" x1="26.266209847984243" x2="21.928928074336255" y1="57.711370442889674" y2="55.22380399835377" /><path d="M 25.398753493254645 57.213857153982495 a86.0,86.0 0 0,1 29.58750427330803,-30.492523968695096" fill="none" id="id35" stroke="none" /><text fill="#e1ed5e" style="font-size:6.75px; font-family:Arial;" text-anchor="middle"><textPath startOffset="21.46611528233685" xlink:href="#id35">November</textPath></text><line stroke="#e1ed5e" stroke-width="0.3" x1="56.762969772571076" x2="54.21961505331055" y1="26.818313649435495" y2="22.513508569990535" /><path d="M 56.25429882871897 25.957352633546506 a86.0,86.0 0 0,1 42.265352541879196,-11.944610805530505" fill="none" id="id36" stroke="none" /><text fill="#e1ed5e" style="font-size:6.75px; font-family:Arial;" text-anchor="middle"><textPath startOffset="22.20632615414155" xlink:href="#id36">December</textPath></text><path d="M 89.63071344664047 81.73862282372117 l -2.99089422284281 -5.267271496127221 a27.057193844194586,27.057193844194586 0 0,0 0.4069864644137717,-0.22648752681136983 l 2.8997836693569927 5.317974420498775" fill="#ff3c05" stroke="none" /><path d="M 89.94658935756843 81.56283822128135 l -2.190546550345816 -4.017289511887633 a25.5757086021243,25.5757086021243 0 0,0 0.3883305417302841,-0.20743272665399867 l 2.1210709620872263 4.0544009650433805" fill="#ff2603" stroke="none" /><path d="M 93.59665428221793 80.00007090966166 l -0.9543430142953162 -2.9807531023605507 a24.129801854138105,24.129801854138105 0 0,0 0.3966647882685835,-0.1232456805802974 l 0.902892853316004 2.9967389178233734" fill="#ff1101" stroke="none" /><path d="M 95.692805502759 79.44645832069477 l -0.7241798512297751 -3.4557206007526604 a24.53078480332539,24.53078480332539 0 0,0 0.4140254350681725,-0.08304960732560548 l 0.6645880066944662 3.4676741641554765" fill="#ff1702" stroke="none" /><path d="M 96.04723909329186 79.375362276772 l -0.6223268425179376 -3.2471646971083916 a24.306262129515048,24.306262129515048 0 0,0 0.4115916857622633,-0.07521574974520787 l 0.566340035652781 3.257395928204336" fill="#ff1402" stroke="none" /><path d="M 96.75951476605007 79.25152402106235 l -1.1656277376384203 -7.46338815600601 a28.553863302308486,28.553863302308486 0 0,0 0.48627367835740826,-0.07166409974025463 l 1.0369850788523634 7.482346739907234" fill="#ff5107" stroke="none" /><path d="M 97.47563105711357 79.15227682838746 l -0.39515658073631116 -3.2634354133718304 a24.287272337447657,24.287272337447657 0 0,0 0.4154665192637409,-0.046682504319094445 l 0.3389233579628522 3.2697538711615235" fill="#ff1302" stroke="none" /><path d="M 97.83486435360386 79.11191278185805 l -0.4496504385887399 -4.3379903677401765 a25.361232159324885,25.361232159324885 0 0,0 0.4346128666748597,-0.041271728546143804 l 0.37491244482364383 4.345087640801501" fill="#ff2303" stroke="none" /><path d="M 98.19473922651362 79.07773832637324 l -0.5209383631276827 -6.0374705467838075 a27.059903248523042,27.059903248523042 0 0,0 0.4644121240797023,-0.03604731898014345 l 0.4169360496856463 6.045543127952413" fill="#ff3c05" stroke="none" /><path d="M 98.55514903715128 79.0497635885617 l -0.20564749339020388 -2.981874058103514 a23.988956973582656,23.988956973582656 0 0,0 0.41219648022961924,-0.024864817347209217 l 0.15428896432096165 2.9849721448310294" fill="#ff0f01" stroke="none" /><path d="M 98.91598698831166 79.02799685794201 l -0.23485318360996393 -4.543618620333093 a25.549684185181356,25.549684185181356 0 0,0 0.4394048891921785,-0.01892169884135505 l 0.15660746202846132 4.54698804569864" fill="#ff2603" stroke="none" /><path d="M 99.27714615592234 79.0124445844662 l -0.11897200374422166 -3.4542688566109114 a24.456317067548486,24.456317067548486 0 0,0 0.42085055187813836,-0.010869328124942262 l 0.059494816671204286 3.455804976878213" fill="#ff1602" stroke="none" /></svg>