<?xml version="1.0" encoding="utf-8" ?>
<svg baseProfile="full" height="200mm" version="1.1" viewBox="0,0,200,200" width="200mm" xmlns="http://www.w3.org/2000/svg" xmlns:ev="http://www.w3.org/2001/xml-events" xmlns:xlink="http://www.w3.org/1999/xlink"><defs /><rect fill="#1a1a1a" height="200" width="200" x="0" y="0" /><text alignment-baseline="middle" fill="#e1ed5e" style="dominant-baseline: central; font-size:9.0px; font-family:Arial;" text-anchor="middle" x="100.0" y="100.0">2023</text><line stroke="#e1ed5e" stroke-width="0.3" x1="100.0" x2="100.0" y1="15.0" y2="10.0" /><path d="M 100.0 14.0 a86.0,86.0 0 0,1 42.46469731375804,11.215312516191453" fill="none" id="id97" stroke="none" /><text fill="#e1ed5e" style="font-size:6.75px; font-family:Arial;" text-anchor="middle"><textPath startOffset="22.20632615414155" xlink:href="#id97">January</textPath></text><path d="M 101.44485096284872 79.0497635885617 l 1.9852675860787303 -28.786239091616054 a49.854615721371495,49.854615721371495 0 0,0 0.8556234576929881,0.06641284778572487 l -2.4804812331340593 28.747800981641863" fill="#ff850c" stroke="none" /><path d="M 102.52436894288641 79.15227682838746 l 3.4506402191060372 -28.497416059357782 a49.70556810066394,49.70556810066394 0 0,0 0.8485101940589646,0.11016097559448079 l -3.9406651416728478 28.433796760599165" fill="#ff820c" stroke="none" /><path d="M 103.2404852339499 79.25152402106235 l 4.310024552950453 -27.59662039765567 a48.931161254400806,48.931161254400806 0 0,0 0.8310626728168499,0.13713246183453953 l -4.784416431906178 27.518341672881505" fill="#ff720a" stroke="none" /><path d="M 104.66035177308747 79.52364482259891 l 13.649655592424505 -59.972982634853366 a82.50668048197878,82.50668048197878 0 0,0 1.3820902790910294,0.32709611551485424 l -14.679969558478058 59.72914060719764" fill="#4ae7ff" stroke="none" /><path d="M 106.0581310904928 79.89281104454417 l 8.104429932288651 -26.898939886017633 a49.09332218729153,49.09332218729153 0 0,0 0.8070349010132606,0.2507496721894214 l -8.56625020601263 26.75545007894569" fill="#ff760a" stroke="none" /><path d="M 109.73455568895987 81.39251694778311 l 10.50140975088568 -20.07331512681186 a43.6543061455497,43.6543061455497 0 0,0 0.6628281788037195,0.3540598579234441 l -10.845382976217712 19.889576542386664" fill="#ff0000" stroke="none" /><line stroke="#e1ed5e" stroke-width="0.3" x1="143.23703022742887" x2="145.7803849466894" y1="26.81831364943548" y2="22.513508569990506" /><path d="M 143.74570117128098 25.957352633546492 a86.0,86.0 0 0,1 28.547481713284135,27.462654790039103" fill="none" id="id98" stroke="none" /><text fill="#e1ed5e" style="font-size:6.75px; font-family:Arial;" text-anchor="middle"><textPath startOffset="19.985693538727396" xlink:href="#id98">February</textPath></text><path d="M 110.99172775467656 82.1063720568725 l 14.723238260733766 -23.968219868209605 a49.12915406714486,49.12915406714486 0 0,0 0.7167729460155007,0.4488431530380301 l -15.133630359121529 23.71123237384863" fill="#ff760a" stroke="none" /><path d="M 111.60114157652 82.49532879139004 l 25.378819376154148 -38.29346326928794 a66.93989336169341,66.93989336169341 0 0,0 0.9549941813376208,0.6448163342413289 l -26.03421825189831 37.85093502274794" fill="#46ff2c" stroke="none" /><path d="M 112.48926042617603 83.11751280151076 l 16.58648971192697 -22.420959342203236 a48.88926422099711,48.88926422099711 0 0,0 0.6722363373207424,0.5063144723491526 l -16.969972203006094 22.132128280348237" fill="#ff710a" stroke="none" /><path d="M 113.06298171725822 83.55741782278167 l 17.45296125428475 -21.968319015577453 a49.0573144993199,49.0573144993199 0 0,0 0.6566592562529397,0.5309727842995914 l -17.82852390910218 21.664640134013734" fill="#ff750a" stroke="none" /><path d="M 114.16331599549186 84.49514656593476 l 19.186569608641584 -21.003905425760948 a49.447996352670586,49.447996352670586 0 0,0 0.6234971236346829,0.5794726252471493 l -19.54527461607111 20.670528214439155" fill="#ff7d0b" stroke="none" /><path d="M 114.68862486808459 84.99185889309783 l 19.492077363301682 -19.916081332481664 a48.86738910588795,48.86738910588795 0 0,0 0.5960988394391374,0.5935390015829984 l -19.832012002908144 19.577606480248548" fill="#ff710a" stroke="none" /><path d="M 115.68641384162765 86.03803664274999 l 34.26976937499661 -30.5023996629088 a66.87824624166964,66.87824624166964 0 0,0 0.757979369293408,0.8665014490850944 l -34.78974060786787 29.90798265762076" fill="#47ff2c" stroke="none" /><path d="M 116.15771136456269 86.58626213691792 l 21.868039397567323 -18.154312912276623 a49.42165062782966,49.42165062782966 0 0,0 0.5377581758348559,0.6592279383310871 l -22.177296065478586 17.775200804337434" fill="#ff7c0b" stroke="none" /><path d="M 116.60985879189232 87.15038557335679 l 22.034604365816836 -17.04627195762683 a48.858556624697,48.858556624697 0 0,0 0.5088829457020839,0.6696303059555418 l -22.324763251743033 16.66445687579025" fill="#ff710a" stroke="none" /><path d="M 117.04232023915458 87.72973835380427 l 27.673072189863404 -19.924272725703172 a55.0994951293064,55.0994951293064 0 0,0 0.5475509185077937,0.7744719432032707 l -28.011935728175082 19.44497428216811" fill="#ffed16" stroke="none" /><path d="M 117.65298651832404 88.62581576622439 l 23.545659905749194 -15.170955543178023 a49.009926677702836,49.009926677702836 0 0,0 0.45082692114958667,0.7130999229393514 l -23.803314423144734 14.763407972524465" fill="#ff740a" stroke="none" /><line stroke="#e1ed5e" stroke-width="0.3" x1="172.23445277983987" x2="176.4835382374775" y1="55.19839476539836" y2="52.563006222186495" /><path d="M 173.08426987136738 54.67131705675599 a86.0,86.0 0 0,1 12.851231095245387,41.99856678651699" fill="none" id="id99" stroke="none" /><text fill="#e1ed5e" style="font-size:6.75px; font-family:Arial;" text-anchor="middle"><textPath startOffset="22.20632615414155" xlink:href="#id99">March</textPath></text><path d="M 118.03404312379186 89.2402003453031 l 25.27964046918638 -15.082800064527154 a50.43723968102013,50.43723968102013 0 0,0 0.43842048334245426,0.7494027221199682 l -25.535520626999162 14.645417930053291" fill="#ff910d" stroke="none" /><path d="M 118.73160827565052 90.50648371742162 l 27.621138602490614 -13.998890282526617 a51.966049584023715,51.966049584023715 0 0,0 0.39751550152572007,0.8013669943511531 l -27.858014116969745 13.521363699676513" fill="#ffb010" stroke="none" /><path d="M 119.04729006885535 91.15688171328212 l 26.577778166325576 -12.339311013447967 a50.302506523248326,50.302506523248326 0 0,0 0.35786085359568687,0.788498954644377 l -26.786241336884608 11.879990049961526" fill="#ff8f0d" stroke="none" /><path d="M 119.34039704204932 91.81776055985345 l 27.190778206888382 -11.503458660593504 a50.52402378830128,50.52402378830128 0 0,0 0.3319628368586402,0.8038743405092236 l -27.38476273063322 11.033709749630978" fill="#ff930d" stroke="none" /><path d="M 119.61058180528143 92.48833698450437 l 58.83174541584429 -22.534989046486903 a84.0,84.0 0 0,0 0.505581645993499,1.354707451882667 l -59.21093165033941 21.518958457574904" fill="#4dd2ff" stroke="none" /><path d="M 119.97218684219823 93.5106431181261 l 41.28149352008829 -13.41317033458778 a64.40593099650965,64.40593099650965 0 0,0 0.3335138956511303,1.0573301901046779 l -41.50626289950763 12.700589978056684" fill="#6eff28" stroke="none" /><path d="M 120.37134235888165 94.90015583598534 l 44.25460341351151 -11.078876245520496 a66.62029616465398,66.62029616465398 0 0,0 0.2689150453177423,1.1148264734992206 l -44.43875125909007 10.31546454036187" fill="#4bff2c" stroke="none" /><path d="M 120.53481517161879 95.60439243477599 l 28.66634342314242 -6.136212815405698 a50.315735586361974,50.315735586361974 0 0,0 0.17399829261125965,0.8484774690083668 l -28.767721011668677 5.641859690233919" fill="#ff8f0d" stroke="none" /><path d="M 120.67395015179393 96.31383870115 l 28.40694488299229 -5.064952758298336 a49.854952157803964,49.854952157803964 0 0,0 0.14336417880038674,0.8461434986607294 l -28.489920923312898 4.5752234713217685" fill="#ff850c" stroke="none" /><path d="M 120.73433829027371 96.67025291283417 l 29.0402253262464 -4.663597378271184 a50.412307415532375,50.412307415532375 0 0,0 0.13021764644851955,0.8579715912702138 l -29.11619886613422 4.163026674608888" fill="#ff910d" stroke="none" /><path d="M 120.83666639777658 97.38593545837742 l 43.35575346912277 -5.43919721395825 a64.69560876344077,64.69560876344077 0 0,0 0.1291128631187487,1.1061601633047116 l -43.44295668524511 4.692093312328686" fill="#69ff28" stroke="none" /><path d="M 120.87857604477298 97.74499172005257 l 29.485763839081734 -3.1846348838693883 a50.657244789724786,50.657244789724786 0 0,0 0.08617249470990071,0.8677452618075846 l -29.536213459473863 2.6766140913573686" fill="#ff960d" stroke="none" /><path d="M 120.94382443527127 98.46500227214037 l 47.157818435945664 -3.456252432487322 a68.284305223982,68.284305223982 0 0,0 0.07582617340463632,1.172997341110982 l -47.21032520035472 2.6439960271233045" fill="#32ff2f" stroke="none" /><line stroke="#e1ed5e" stroke-width="0.3" x1="184.98032266829074" x2="189.97916517819016" y1="98.17113171792111" y2="98.06355123074" /><path d="M 185.9800911702706 98.14961562048488 a86.0,86.0 0 0,1 -9.607161424134198,41.387399972396054" fill="none" id="id100" stroke="none" /><text fill="#e1ed5e" style="font-size:6.75px; font-family:Arial;" text-anchor="middle"><textPath startOffset="21.466115282336823" xlink:href="#id100">April</textPath></text><line stroke="#e1ed5e" stroke-width="0.3" x1="174.80103733775053" x2="179.2010983576182" y1="140.37084112569926" y2="142.7455964860345" /><path d="M 175.68104954172406 140.8457921977663 a86.0,86.0 0 0,1 -30.038265399797805,32.042727171017184" fill="none" id="id101" stroke="none" /><text fill="#e1ed5e" style="font-size:6.75px; font-family:Arial;" text-anchor="middle"><textPath startOffset="22.206326154141568" xlink:href="#id101">May</textPath></text><line stroke="#e1ed5e" stroke-width="0.3" x1="143.8653032363475" x2="146.44561519142675" y1="172.8068346515853" y2="177.08958963109032" /><path d="M 144.38136562736335 173.6633856474863 a86.0,86.0 0 0,1 -40.68145358897372,12.25698825130547" fill="none" id="id102" stroke="none" /><text fill="#e1ed5e" style="font-size:6.75px; font-family:Arial;" text-anchor="middle"><textPath startOffset="21.466115282336833" xlink:href="#id102">June</textPath></text><line stroke="#e1ed5e" stroke-width="0.3" x1="102.19456741930631" x2="102.32365962044197" y1="184.97166512339345" y2="189.96999836594603" /><path d="M 102.22038585953345 185.97133177190398 a86.0,86.0 0 0,1 -42.740103519485714,-10.115201625700543" fill="none" id="id103" stroke="none" /><text fill="#e1ed5e" style="font-size:6.75px; font-family:Arial;" text-anchor="middle"><textPath startOffset="22.20632615414155" xlink:href="#id103">July</textPath></text><line stroke="#e1ed5e" stroke-width="0.3" x1="58.666819895761336" x2="56.23545636021788" y1="174.27360380694188" y2="178.64263932499728" /><path d="M 58.180547188652646 175.14741091055294 a86.0,86.0 0 0,1 -31.652253787137756,-30.449443065178592" fill="none" id="id104" stroke="none" /><text fill="#e1ed5e" style="font-size:6.75px; font-family:Arial;" text-anchor="middle"><textPath startOffset="22.20632615414155" xlink:href="#id104">August</textPath></text><line stroke="#e1ed5e" stroke-width="0.3" x1="26.63291911575756" x2="22.317208475507996" y1="142.92168965132927" y2="145.44649492493687" /><path d="M 25.769776987707644 143.4266507060508 a86.0,86.0 0 0,1 -11.730757126820373,-40.83630448921669" fill="none" id="id105" stroke="none" /><text fill="#e1ed5e" style="font-size:6.75px; font-family:Arial;" text-anchor="middle"><textPath startOffset="21.46611528233685" xlink:href="#id105">September</textPath></text><line stroke="#e1ed5e" stroke-width="0.3" x1="15.007084014347285" x2="10.007500721073583" y1="101.09737516637583" y2="101.16192664675087" /><path d="M 14.007167355692545 101.11028546245083 a86.0,86.0 0 0,1 10.666146001902534,-42.60595125391555" fill="none" id="id106" stroke="none" /><text fill="#e1ed5e" style="font-size:6.75px; font-family:Arial;" text-anchor="middle"><textPath startOffset="22.20632615414155" xlink:href="#id106">October</textPath></text><line stroke="#e1ed5e" stroke-width="0.3" x1="26.266209847984243" x2="21.928928074336255" y1="57.711370442889674" y2="55.22380399835377" /><path d="M 25.398753493254645 57.213857153982495 a86.0,86.0 0 0,1 29.58750427330803,-30.492523968695096" fill="none" id="id107" stroke="none" /><text fill="#e1ed5e" style="font-size:6.75px; font-family:Arial;" text-anchor="middle"><textPath startOffset="21.46611528233685" xlink:href="#id107">November</textPath></text><line stroke="#e1ed5e" stroke-width="0.3" x1="56.762969772571076" x2="54.21961505331055" y1="26.818313649435495" y2="22.513508569990535" /><path d="M 56.25429882871897 25.957352633546506 a86.0,86.0 0 0,1 42.265352541879196,-11.944610805530505" fill="none" id="id108" stroke="none" /><text fill="#e1ed5e" style="font-size:6.75px; font-family:Arial;" text-anchor="middle"><textPath startOffset="22.20632615414155" xlink:href="#id108">December</textPath></text></svg>