<?xml version="1.0" encoding="utf-8" ?>
<svg baseProfile="full" height="200mm" version="1.1" viewBox="0,0,200,200" width="200mm" xmlns="http://www.w3.org/2000/svg" xmlns:ev="http://www.w3.org/2001/xml-events" xmlns:xlink="http://www.w3.org/1999/xlink"><defs /><rect fill="#1a1a1a" height="200" width="200" x="0" y="0" /><text alignment-baseline="middle" fill="#e1ed5e" style="dominant-baseline: central; font-size:9.0px; font-family:Arial;" text-anchor="middle" x="100.0" y="100.0">2019</text><line stroke="#e1ed5e" stroke-width="0.3" x1="100.0" x2="100.0" y1="15.0" y2="10.0" /><path d="M 100.0 14.0 a86.0,86.0 0 0,1 42.46469731375804,11.215312516191453" fill="none" id="id13" stroke="none" /><text fill="#e1ed5e" style="font-size:6.75px; font-family:Arial;" text-anchor="middle"><textPath startOffset="22.20632615414155" xlink:href="#id13">January</textPath></text><line stroke="#e1ed5e" stroke-width="0.3" x1="143.23703022742887" x2="145.7803849466894" y1="26.81831364943548" y2="22.513508569990506" /><path d="M 143.74570117128098 25.957352633546492 a86.0,86.0 0 0,1 28.547481713284135,27.462654790039103" fill="none" id="id14" stroke="none" /><text fill="#e1ed5e" style="font-size:6.75px; font-family:Arial;" text-anchor="middle"><textPath startOffset="19.985693538727396" xlink:href="#id14">February</textPath></text><line stroke="#e1ed5e" stroke-width="0.3" x1="172.23445277983987" x2="176.4835382374775" y1="55.19839476539836" y2="52.563006222186495" /><path d="M 173.08426987136738 54.67131705675599 a86.0,86.0 0 0,1 12.851231095245387,41.99856678651699" fill="none" id="id15" stroke="none" /><text fill="#e1ed5e" style="font-size:6.75px; font-family:Arial;" text-anchor="middle"><textPath startOffset="22.20632615414155" xlink:href="#id15">March</textPath></text><path d="M 120.87857604477298 97.74499172005257 l 21.142656244917973 -2.283530485514518 a42.26561601668391,42.26561601668391 0 0,0 0.07189758518700866,0.7239988710024644 l -21.17883095578721 1.919256083807619" fill="#ffef16" stroke="none" /><line stroke="#e1ed5e" stroke-width="0.3" x1="184.98032266829074" x2="189.97916517819016" y1="98.17113171792111" y2="98.06355123074" /><path d="M 185.9800911702706 98.14961562048488 a86.0,86.0 0 0,1 -9.607161424134198,41.387399972396054" fill="none" id="id16" stroke="none" /><text fill="#e1ed5e" style="font-size:6.75px; font-family:Arial;" text-anchor="middle"><textPath startOffset="21.466115282336823" xlink:href="#id16">April</textPath></text><path d="M 120.99513854157772 99.54816195383933 l 12.019194449250755 -0.2586660395510064 a33.02197751324287,33.02197751324287 0 0,0 0.007338730191107694,0.5683927408657153 l -12.021866186559578 0.051737040624828354" fill="#ff700a" stroke="none" /><path d="M 120.99980553446 99.90962569577887 l 11.555851035307187 -0.04973150800302246 a32.55595804652727,32.55595804652727 0 0,0 -0.0024117805798004126,0.5604128696103854 l -11.554994957437883 -0.14919083981104764" fill="#ff6a09" stroke="none" /><path d="M 120.32669344350535 105.2749913415812 l 12.87781506514091 3.341928836379779 a34.30438308225514,34.30438308225514 0 0,0 -0.15324572223118801,0.5702843412302192 l -12.818381266567943 -3.5631041107855466" fill="#ff830c" stroke="none" /><line stroke="#e1ed5e" stroke-width="0.3" x1="174.80103733775053" x2="179.2010983576182" y1="140.37084112569926" y2="142.7455964860345" /><path d="M 175.68104954172406 140.8457921977663 a86.0,86.0 0 0,1 -30.038265399797805,32.042727171017184" fill="none" id="id17" stroke="none" /><text fill="#e1ed5e" style="font-size:6.75px; font-family:Arial;" text-anchor="middle"><textPath startOffset="22.206326154141568" xlink:href="#id17">May</textPath></text><path d="M 116.93607887273984 112.41649034213515 l 13.93682153908209 10.21761951750282 a38.28105156570852,38.28105156570852 0 0,0 -0.39418314762612733,0.5280727427345491 l -13.758877124760868 -10.456005139746685" fill="#ffba11" stroke="none" /><path d="M 115.80600337817218 113.82643327865902 l 13.749160600549919 12.027192904665473 a39.267259958344866,39.267259958344866 0 0,0 -0.44940659188315946,0.5049130701073 l -13.54009515901842 -12.26208014451364" fill="#ffc712" stroke="none" /><line stroke="#e1ed5e" stroke-width="0.3" x1="143.8653032363475" x2="146.44561519142675" y1="172.8068346515853" y2="177.08958963109032" /><path d="M 144.38136562736335 173.6633856474863 a86.0,86.0 0 0,1 -40.68145358897372,12.25698825130547" fill="none" id="id18" stroke="none" /><text fill="#e1ed5e" style="font-size:6.75px; font-family:Arial;" text-anchor="middle"><textPath startOffset="21.466115282336833" xlink:href="#id18">June</textPath></text><line stroke="#e1ed5e" stroke-width="0.3" x1="102.19456741930631" x2="102.32365962044197" y1="184.97166512339345" y2="189.96999836594603" /><path d="M 102.22038585953345 185.97133177190398 a86.0,86.0 0 0,1 -42.740103519485714,-10.115201625700543" fill="none" id="id19" stroke="none" /><text fill="#e1ed5e" style="font-size:6.75px; font-family:Arial;" text-anchor="middle"><textPath startOffset="22.20632615414155" xlink:href="#id19">July</textPath></text><path d="M 100.18074693466247 120.99922214144158 l 0.06438771629136296 7.4805802936986066 a28.48085739126747,28.48085739126747 0 0,0 -0.4902693019076317,0.0 l 0.06438771629135781 -7.4805802936986066" fill="#ff2e04" stroke="none" /><path d="M 96.93821686468263 120.77559828337769 l -2.1113060235942234 14.326176564729995 a35.4809166867669,35.4809166867669 0 0,0 -0.6034529031812979,-0.09424693284115132 l 2.357594790384038 -14.287711324541737" fill="#ff930d" stroke="none" /><path d="M 96.58105272829116 120.7198165907248 l -1.3781092137921718 8.351743353295388 a29.464679677604614,29.464679677604614 0 0,0 -0.49970837963930814,-0.086880707098119 l 1.52166656490353 -8.326784067676263" fill="#ff3c05" stroke="none" /><path d="M 96.22490169976321 120.6578951692458 l -3.645801238111757 19.950362558796176 a41.28075030405023,41.28075030405023 0 0,0 -0.6979049167960562,-0.13375513833166208 l 3.9886737694795085 -19.884650222116043" fill="#ffe215" stroke="none" /><path d="M 95.86986931433489 120.58985236759428 l -3.9828064459974257 19.855399979573285 a41.25091739983938,41.25091739983938 0 0,0 -0.6949965142825835,-0.1456432768924547 l 4.323994421709396 -19.78390072195429" fill="#ffe215" stroke="none" /><path d="M 93.76903079525671 120.05430185196036 l -3.451890798634642 11.109870352613246 a32.633777088184786,32.633777088184786 0 0,0 -0.5350053752629689,-0.17129182624629993 l 3.6426175189885512 -11.04880567970724" fill="#ff6b09" stroke="none" /><path d="M 90.7491055286396 118.85261126421891 l -4.468551232316101 9.106563647213816 a31.143838108753016,31.143838108753016 0 0,0 -0.4792385516478221,-0.2403001586253528 l 4.624643691646684 -9.028295647679162" fill="#ff5507" stroke="none" /><path d="M 90.42595943632237 118.69057910512821 l -2.8520180132473967 5.567750411261569 a27.255705506974493,27.255705506974493 0 0,0 -0.41572621104488683,-0.2174883051845428 l 2.9474351268187795 -5.51783268713231" fill="#ff1b02" stroke="none" /><line stroke="#e1ed5e" stroke-width="0.3" x1="58.666819895761336" x2="56.23545636021788" y1="174.27360380694188" y2="178.64263932499728" /><path d="M 58.180547188652646 175.14741091055294 a86.0,86.0 0 0,1 -31.652253787137756,-30.449443065178592" fill="none" id="id20" stroke="none" /><text fill="#e1ed5e" style="font-size:6.75px; font-family:Arial;" text-anchor="middle"><textPath startOffset="22.20632615414155" xlink:href="#id20">August</textPath></text><path d="M 89.1626897886671 117.98757091392108 l -9.853660816813031 16.354927491030114 a40.0939331917143,40.0939331917143 0 0,0 -0.5880840656939239,-0.3612492652421353 l 10.133724082439263 -16.1828897589596" fill="#ffd313" stroke="none" /><path d="M 86.79598089348748 116.32954008644616 l -7.642956344293101 9.452119161319226 a33.1555476355674,33.1555476355674 0 0,0 -0.44070017854982746,-0.36266624423109967 l 7.804526651387617 -9.319157798230947" fill="#ff720a" stroke="none" /><path d="M 85.97065885151581 115.62618273729859 l -8.045666017742278 8.96143632875433 a33.04325880911686,33.04325880911686 0 0,0 -0.41996479348745414,-0.3836278815816408 l 8.198730360696588 -8.821615680586111" fill="#ff710a" stroke="none" /><path d="M 84.9287848128048 114.62390073753433 l -7.713786808948203 7.484841215750282 a31.74827218481638,31.74827218481638 0 0,0 -0.3771898054833028,-0.3954820030642726 l 7.841483165810463 -7.350952096103509" fill="#ff5e08" stroke="none" /><path d="M 84.19399662182784 113.82643327865904 l -9.19028545016323 8.039278845403313 a33.210296925530976,33.210296925530976 0 0,0 -0.37267882047047196,-0.4335096633777839 l 9.32730678020448 -7.879892082863998" fill="#ff730a" stroke="none" /><path d="M 83.50135304334701 112.99209946851258 l -17.27325724699576 13.602077605986972 a42.985948492621006,42.985948492621006 0 0,0 -0.4527713696182388,-0.5852680294264095 l 17.504835433832067 -13.302731582447311" fill="#fff917" stroke="none" /><path d="M 83.28015986056508 112.70617746262583 l -16.525480570188783 12.558474664165683 a41.755885766841615,41.755885766841615 0 0,0 -0.429963802202217,-0.5760067767302246 l 16.739205639086084 -12.272155007926152" fill="#ffe915" stroke="none" /><path d="M 83.06392112726016 112.41649034213515 l -16.634057516243026 12.19506687781146 a41.62550667518195,41.62550667518195 0 0,0 -0.4186737220191652,-0.5815011816460768 l 16.8415110306378 -11.90693209071424" fill="#ffe715" stroke="none" /><path d="M 82.05923443525364 110.91462005526583 l -12.385085854285382 7.534712270974565 a35.49697349878224,35.49697349878224 0 0,0 -0.3130818260384532,-0.5247431488734363 l 12.512948556022067 -7.320407028215017" fill="#ff940d" stroke="none" /><line stroke="#e1ed5e" stroke-width="0.3" x1="26.63291911575756" x2="22.317208475507996" y1="142.92168965132927" y2="145.44649492493687" /><path d="M 25.769776987707644 143.4266507060508 a86.0,86.0 0 0,1 -11.730757126820373,-40.83630448921669" fill="none" id="id21" stroke="none" /><text fill="#e1ed5e" style="font-size:6.75px; font-family:Arial;" text-anchor="middle"><textPath startOffset="21.46611528233685" xlink:href="#id21">September</textPath></text><path d="M 79.97269907076064 106.31721596034903 l -24.48841910176082 7.724387451905881 a46.67778868225699,46.67778868225699 0 0,0 -0.2351076362475782,-0.7683453584938825 l 24.617753510514525 -7.30171512085995" fill="#d7ff1c" stroke="none" /><path d="M 79.76711848015287 105.62410040840567 l -21.28165402655428 5.9156259569297625 a43.08853613457114,43.08853613457114 0 0,0 -0.1924865934476744,-0.7163142209891525 l 21.380328696343724 -5.5484208027650705" fill="#fffa17" stroke="none" /><path d="M 79.58551787078972 104.9243191809786 l -23.547836627260153 5.680137406388048 a45.2232237899827,45.2232237899827 0 0,0 -0.17602479616138286,-0.7583102148663098 l 23.64212198935209 -5.273958534173164" fill="#e9ff1a" stroke="none" /><path d="M 79.29508885075956 103.50808413554451 l -9.410728286973498 1.5944828919810552 a30.54485110329456,30.54485110329456 0 0,0 -0.08337034659697318,-0.5191472278425708 l 9.436780387931762 -1.4322564344452706" fill="#ff4c07" stroke="none" /><path d="M 79.1416061653843 102.43462659150553 l -25.203241767192146 2.941764504260038 a46.374344798911814,46.374344798911814 0 0,0 -0.08572120640430579,-0.7936719090910587 l 25.250145275097506 -2.507496273284197" fill="#daff1b" stroke="none" /><path d="M 79.04373962182676 101.35467743843564 l -24.853976298152286 1.606637841815937 a45.90585117967002,45.90585117967002 0 0,0 -0.044186893712144855,-0.7889866703066252 l 24.877949542751963 -1.1785794551738744" fill="#e0ff1b" stroke="none" /><path d="M 79.0235259727143 100.99374915477108 l -26.554394415677624 1.2580001277484516 a47.584176254019724,47.584176254019724 0 0,0 -0.031717951313752886,-0.8184993878594384 l 26.572114499842577 -0.8007234928750164" fill="#ccff1d" stroke="none" /><line stroke="#e1ed5e" stroke-width="0.3" x1="15.007084014347285" x2="10.007500721073583" y1="101.09737516637583" y2="101.16192664675087" /><path d="M 14.007167355692545 101.11028546245083 a86.0,86.0 0 0,1 10.666146001902534,-42.60595125391555" fill="none" id="id22" stroke="none" /><text fill="#e1ed5e" style="font-size:6.75px; font-family:Arial;" text-anchor="middle"><textPath startOffset="22.20632615414155" xlink:href="#id22">October</textPath></text><path d="M 79.3925641242962 95.95851677861259 l -12.033787000893243 -2.3600388009068096 a33.26302624659398,33.26302624659398 0 0,0 0.1150278279059843,-0.5609165401711721 l 11.991379877072266 2.5668309972413845" fill="#ff740a" stroke="none" /><path d="M 79.46518482838121 95.60439243477599 l -9.151951496210998 -1.9590333244833862 a30.359274958854193,30.359274958854193 0 0,0 0.11378311170525283,-0.510067379148525 l 9.116873997503708 2.1162788731818702" fill="#ff4a06" stroke="none" /><path d="M 79.62865764111835 94.90015583598534 l -4.367452478951039 -1.0933657018767293 a25.502231637081323,25.502231637081323 0 0,0 0.11027124657809909,-0.42492009553788596 l 4.347984900502633 1.168382222963479" fill="#ff0000" stroke="none" /><path d="M 79.91906864156998 93.8553929516997 l -27.977114373144694 -8.56077694305554 a50.25757731796621,50.25757731796621 0 0,0 0.2602493301154441,-0.8250614960085932 l 27.825609559261046 9.041088605490549" fill="#abff21" stroke="none" /><path d="M 80.02781315780177 93.51064311812611 l -19.559515679621857 -6.355271893085497 a41.56609186151846,41.56609186151846 0 0,0 0.2269562181034673,-0.678570204596671 l 19.447222167746617 6.6910152006044905" fill="#ffe615" stroke="none" /><path d="M 80.803312248108 91.48605970444005 l -19.457701625895208 -8.629702794189793 a42.285533182854785,42.285533182854785 0 0,0 0.3008266992137055,-0.6628317556273375 l 19.30627260971815 8.963356558659202" fill="#ffef16" stroke="none" /><path d="M 80.95270993114464 91.15688171328213 l -10.725366615115838 -4.979484499003273 a32.824920925928225,32.824920925928225 0 0,0 0.24234452511226656,-0.5104393754457937 l 10.638063896161821 5.1633662900895985" fill="#ff6e0a" stroke="none" /><line stroke="#e1ed5e" stroke-width="0.3" x1="26.266209847984257" x2="21.92892807433627" y1="57.711370442889674" y2="55.22380399835377" /><path d="M 25.39875349325466 57.213857153982495 a86.0,86.0 0 0,1 29.58750427330802,-30.492523968695096" fill="none" id="id23" stroke="none" /><text fill="#e1ed5e" style="font-size:6.75px; font-family:Arial;" text-anchor="middle"><textPath startOffset="21.46611528233685" xlink:href="#id23">November</textPath></text><path d="M 81.78341655067847 89.55222093294921 l -30.003300804486667 -17.20782928146818 a55.58767768649211,55.58767768649211 0 0,0 0.4831901323967106,-0.8259285646486535 l 29.702650997619628 17.721737258470725" fill="#6eff28" stroke="none" /><path d="M 84.31358615837235 86.03803664274997 l -8.643684528394123 -7.693460587964786 a32.571629878498854,32.571629878498854 0 0,0 0.37636729169134214,-0.41559416381101627 l 8.509973596086736 7.841107539045361" fill="#ff6a09" stroke="none" /><path d="M 86.93701828274178 83.55741782278169 l -15.013679754469571 -18.897956721409134 a45.13593478641385,45.13593478641385 0 0,0 0.6124891431702452,-0.4780574913861803 l 14.6861580561399 19.153592602018538" fill="#eaff1a" stroke="none" /><path d="M 89.00827224532344 82.1063720568725 l -5.336550720008306 -8.68746526612528 a31.195627804963966,31.195627804963966 0 0,0 0.4599690350748712,-0.27712619700395236 l 5.186219618715786 8.77803807258785" fill="#ff5607" stroke="none" /><line stroke="#e1ed5e" stroke-width="0.3" x1="56.762969772571076" x2="54.21961505331055" y1="26.818313649435495" y2="22.513508569990535" /><path d="M 56.25429882871897 25.957352633546506 a86.0,86.0 0 0,1 42.265352541879196,-11.944610805530505" fill="none" id="id24" stroke="none" /><text fill="#e1ed5e" style="font-size:6.75px; font-family:Arial;" text-anchor="middle"><textPath startOffset="22.20632615414155" xlink:href="#id24">December</textPath></text><path d="M 90.58718382345135 81.22770947309562 l -15.085203837568205 -30.084920791498686 a54.655101156462635,54.655101156462635 0 0,0 0.8446262252249438,-0.4144544205464622 l 14.565106345332836 30.340130372179974" fill="#78ff26" stroke="none" /><path d="M 91.23893434514133 80.91482961587045 l -24.40814854047972 -53.170891762220556 a79.50556764927502,79.50556764927502 0 0,0 1.2486837091514498,-0.5602479820397842 l 23.489282712861495 53.58316007477687" fill="#47feff" stroke="none" /><path d="M 91.90106846888425 80.62456947434976 l -24.29679459334727 -58.12629157695071 a84.0,84.0 0 0,0 1.338864521646478,-0.5461564552656921 l 23.29264620211241 58.53590891839998" fill="#4dd2ff" stroke="none" /><path d="M 92.57280143429618 80.3572730644239 l -9.033017732435287 -23.889640104920147 a46.540366357926416,46.540366357926416 0 0,0 0.7517768968394479,-0.2768857756121855 l 8.62045850982327 24.041589148338655" fill="#d8ff1c" stroke="none" /><path d="M 94.28887869178378 79.79150937346287 l -7.374826679840686 -26.095421159674974 a48.11750493792713,48.11750493792713 0 0,0 0.7989845493877689,-0.21839265916388667 l 6.924544241229194 26.218500359665157" fill="#c5ff1e" stroke="none" /><path d="M 95.33964822691252 79.52364482259891 l -1.1762011465333972 -5.1679172751649105 a26.300077178688475,26.300077178688475 0 0,0 0.442288743379894,-0.09666718843960243 l 1.0870696789999823 5.187397961700381" fill="#ff0c01" stroke="none" /><path d="M 96.04723909329186 79.375362276772 l -4.505979117697835 -23.511208768846085 a44.939105780738636,44.939105780738636 0 0,0 0.7609792985192301,-0.13906410274712613 l 4.1006046980757125 23.585288352943948" fill="#ecff1a" stroke="none" /><path d="M 98.55514903715128 79.0497635885617 l -1.4630942284168171 -21.214762467340172 a42.26515439085482,42.26515439085482 0 0,0 0.726231986470146,-0.04380829667740459 l 1.0977001931070482 21.236804033397885" fill="#ffef16" stroke="none" /><path d="M 99.27714615592234 79.0124445844662 l -0.30548791117142504 -8.869627680636805 a29.87488693206795,29.87488693206795 0 0,0 0.5140946863720921,-0.013277549021928278 l 0.15276658960445397 8.873572021801092" fill="#ff4206" stroke="none" /></svg>