<?xml version="1.0" encoding="utf-8" ?>
<svg baseProfile="full" height="200mm" version="1.1" viewBox="0,0,200,200" width="200mm" xmlns="http://www.w3.org/2000/svg" xmlns:ev="http://www.w3.org/2001/xml-events" xmlns:xlink="http://www.w3.org/1999/xlink"><defs /><rect fill="#1a1a1a" height="200" width="200" x="0" y="0" /><text alignment-baseline="middle" fill="#e1ed5e" style="dominant-baseline: central; font-size:9.0px; font-family:Arial;" text-anchor="middle" x="100.0" y="100.0">2018</text><line stroke="#e1ed5e" stroke-width="0.3" x1="100.0" x2="100.0" y1="15.0" y2="10.0" /><path d="M 100.0 14.0 a86.0,86.0 0 0,1 42.46469731375804,11.215312516191453" fill="none" id="id1" stroke="none" /><text fill="#e1ed5e" style="font-size:6.75px; font-family:Arial;" text-anchor="middle"><textPath startOffset="22.20632615414155" xlink:href="#id1">January</textPath></text><line stroke="#e1ed5e" stroke-width="0.3" x1="143.23703022742887" x2="145.7803849466894" y1="26.81831364943548" y2="22.513508569990506" /><path d="M 143.74570117128098 25.957352633546492 a86.0,86.0 0 0,1 28.547481713284135,27.462654790039103" fill="none" id="id2" stroke="none" /><text fill="#e1ed5e" style="font-size:6.75px; font-family:Arial;" text-anchor="middle"><textPath startOffset="19.985693538727396" xlink:href="#id2">February</textPath></text><line stroke="#e1ed5e" stroke-width="0.3" x1="172.23445277983987" x2="176.4835382374775" y1="55.19839476539836" y2="52.563006222186495" /><path d="M 173.08426987136738 54.67131705675599 a86.0,86.0 0 0,1 12.851231095245387,41.99856678651699" fill="none" id="id3" stroke="none" /><text fill="#e1ed5e" style="font-size:6.75px; font-family:Arial;" text-anchor="middle"><textPath startOffset="22.20632615414155" xlink:href="#id3">March</textPath></text><line stroke="#e1ed5e" stroke-width="0.3" x1="184.98032266829074" x2="189.97916517819016" y1="98.17113171792111" y2="98.06355123074" /><path d="M 185.9800911702706 98.14961562048488 a86.0,86.0 0 0,1 -9.607161424134198,41.387399972396054" fill="none" id="id4" stroke="none" /><text fill="#e1ed5e" style="font-size:6.75px; font-family:Arial;" text-anchor="middle"><textPath startOffset="21.466115282336823" xlink:href="#id4">April</textPath></text><line stroke="#e1ed5e" stroke-width="0.3" x1="174.80103733775053" x2="179.2010983576182" y1="140.37084112569926" y2="142.7455964860345" /><path d="M 175.68104954172406 140.8457921977663 a86.0,86.0 0 0,1 -30.038265399797805,32.042727171017184" fill="none" id="id5" stroke="none" /><text fill="#e1ed5e" style="font-size:6.75px; font-family:Arial;" text-anchor="middle"><textPath startOffset="22.206326154141568" xlink:href="#id5">May</textPath></text><line stroke="#e1ed5e" stroke-width="0.3" x1="143.8653032363475" x2="146.44561519142675" y1="172.8068346515853" y2="177.08958963109032" /><path d="M 144.38136562736335 173.6633856474863 a86.0,86.0 0 0,1 -40.68145358897372,12.25698825130547" fill="none" id="id6" stroke="none" /><text fill="#e1ed5e" style="font-size:6.75px; font-family:Arial;" text-anchor="middle"><textPath startOffset="21.466115282336833" xlink:href="#id6">June</textPath></text><line stroke="#e1ed5e" stroke-width="0.3" x1="102.19456741930631" x2="102.32365962044197" y1="184.97166512339345" y2="189.96999836594603" /><path d="M 102.22038585953345 185.97133177190398 a86.0,86.0 0 0,1 -42.740103519485714,-10.115201625700543" fill="none" id="id7" stroke="none" /><text fill="#e1ed5e" style="font-size:6.75px; font-family:Arial;" text-anchor="middle"><textPath startOffset="22.20632615414155" xlink:href="#id7">July</textPath></text><line stroke="#e1ed5e" stroke-width="0.3" x1="58.666819895761336" x2="56.23545636021788" y1="174.27360380694188" y2="178.64263932499728" /><path d="M 58.180547188652646 175.14741091055294 a86.0,86.0 0 0,1 -31.652253787137756,-30.449443065178592" fill="none" id="id8" stroke="none" /><text fill="#e1ed5e" style="font-size:6.75px; font-family:Arial;" text-anchor="middle"><textPath startOffset="22.20632615414155" xlink:href="#id8">August</textPath></text><line stroke="#e1ed5e" stroke-width="0.3" x1="26.63291911575756" x2="22.317208475507996" y1="142.92168965132927" y2="145.44649492493687" /><path d="M 25.769776987707644 143.4266507060508 a86.0,86.0 0 0,1 -11.730757126820373,-40.83630448921669" fill="none" id="id9" stroke="none" /><text fill="#e1ed5e" style="font-size:6.75px; font-family:Arial;" text-anchor="middle"><textPath startOffset="21.46611528233685" xlink:href="#id9">September</textPath></text><line stroke="#e1ed5e" stroke-width="0.3" x1="15.007084014347285" x2="10.007500721073583" y1="101.09737516637583" y2="101.16192664675087" /><path d="M 14.007167355692545 101.11028546245083 a86.0,86.0 0 0,1 10.666146001902534,-42.60595125391555" fill="none" id="id10" stroke="none" /><text fill="#e1ed5e" style="font-size:6.75px; font-family:Arial;" text-anchor="middle"><textPath startOffset="22.20632615414155" xlink:href="#id10">October</textPath></text><path d="M 79.81627453868168 94.20196356495316 l -36.40053701898893 -10.45652549604112 a58.872655316469974,58.872655316469974 0 0,0 0.28817913275753465,-0.9715967741375532 l 36.21515198911968 11.081551656925212" fill="#82ff25" stroke="none" /><path d="M 79.91906864156998 93.8553929516997 l -48.411623480601335 -14.81357600147788 a71.62733769396799,71.62733769396799 0 0,0 0.37090858030962126,-1.1758815594911654 l 48.14945941652351 15.64470772739546" fill="#39ff8e" stroke="none" /><path d="M 80.02781315780177 93.51064311812611 l -45.07773697648641 -14.646644605266804 a68.39753758492398,68.39753758492398 0 0,0 0.3734593694682998,-1.1165959799044445 l 44.81894031324634 15.42041368809357" fill="#34ff5f" stroke="none" /><path d="M 80.14247586403 93.16781622104843 l -45.00316494808419 -15.483798053294594 a68.59236133561438,68.59236133561438 0 0,0 0.39374275423755484,-1.1131637881990921 l 44.72996911303683 16.256159467920295" fill="#35ff62" stroke="none" /><path d="M 80.2630227832202 92.82701384747504 l -44.520306838262385 -16.17996215679479 a68.36928220237608,68.36928220237608 0 0,0 0.4115030265627464,-1.1026235247550673 l 44.23519922319801 16.9439088185792" fill="#34ff5f" stroke="none" /><path d="M 80.38941819471856 92.48833698450439 l -41.92918409049335 -16.06060975292651 a65.89988490108053,65.89988490108053 0 0,0 0.4148757069512857,-1.0558134215344381 l 41.646514833660376 16.779972179356708" fill="#30ff3a" stroke="none" /><path d="M 80.52162464483688 92.15188598940014 l -27.356363760537448 -11.022267401332869 a50.49340632862423,50.49340632862423 0 0,0 0.3317616680282504,-0.8033871942298602 l 27.162580405623 11.49152916601604" fill="#fbff18" stroke="none" /><path d="M 80.803312248108 91.48605970444005 l -27.44150629287981 -12.170607201483719 a51.019326229530364,51.019326229530364 0 0,0 0.36296043470393985,-0.7997352056413259 l 27.227943541212518 12.641164415967117" fill="#f3ff19" stroke="none" /><path d="M 81.10775173730289 90.83032412892265 l -37.542410551698545 -18.22185117362221 a62.73090521694831,62.73090521694831 0 0,0 0.4798615143557746,-0.967371531394723 l 37.223189024389356 18.865382293515893" fill="#4fff2b" stroke="none" /><path d="M 81.26839172434947 90.50648371742162 l -41.421483171502835 -20.993153345427405 a67.43761143202482,67.43761143202482 0 0,0 0.5336902319150562,-1.030919657870867 l 41.05398350642766 21.703045725558606" fill="#33ff51" stroke="none" /><path d="M 81.43458229118936 90.18545643968196 l -41.108202044615545 -21.731708167372087 a67.49893993644113,67.49893993644113 0 0,0 0.5518581570678943,-1.0225093523181494 l 40.72803578832917 22.43609850302271" fill="#33ff52" stroke="none" /><path d="M 81.6062741919709 89.86733742301443 l -12.499406097117253 -6.885623158496787 a35.27049260051941,35.27049260051941 0 0,0 0.2975189643825657,-0.5292530395784204 l 12.379029491442257 7.099759708009992" fill="#ff0000" stroke="none" /><line stroke="#e1ed5e" stroke-width="0.3" x1="26.266209847984243" x2="21.928928074336255" y1="57.711370442889674" y2="55.22380399835377" /><path d="M 25.398753493254645 57.213857153982495 a86.0,86.0 0 0,1 29.58750427330803,-30.492523968695096" fill="none" id="id11" stroke="none" /><text fill="#e1ed5e" style="font-size:6.75px; font-family:Arial;" text-anchor="middle"><textPath startOffset="21.46611528233685" xlink:href="#id11">November</textPath></text><path d="M 81.96595687620814 89.24020034530311 l -23.63506098198202 -14.101581062383467 a48.522185525153716,48.522185525153716 0 0,0 0.4341215282286469,-0.7135816478377468 l 23.388823655467153 14.506330483428288" fill="#ffe415" stroke="none" /><path d="M 82.15384107792192 88.93136811851018 l -45.600502139408235 -28.282566237139907 a74.65919630710454,74.65919630710454 0 0,0 0.6867664958565681,-1.0862996691143783 l 45.1069080473057 29.063313553968502" fill="#3effb8" stroke="none" /><path d="M 82.54541684631803 88.32363383020206 l -38.924277415034794 -26.038669155892656 a67.83067011791123,67.83067011791123 0 0,0 0.6575554720619611,-0.9648815171673706 l 38.47029747730409 26.704828696330445" fill="#33ff57" stroke="none" /><path d="M 82.7489923806493 88.02491185347247 l -35.52739147944857 -24.661959113933793 a64.24821120776369,64.24821120776369 0 0,0 0.6384662323445387,-0.9030652071246746 l 35.09761262730015 25.269850821390254" fill="#3cff2e" stroke="none" /><path d="M 83.17141714833178 87.43820079747576 l -37.425748220605385 -27.93668001015719 a67.7027271137571,67.7027271137571 0 0,0 0.7051531110581074,-0.9278988370338905 l 36.93931916932317 28.576763623072104" fill="#33ff55" stroke="none" /><path d="M 83.39014120810768 87.1503855733568 l -41.5938119501837 -32.177543035769226 a73.58744591978227,73.58744591978227 0 0,0 0.7836919999748162,-0.9952092547993776 l 41.03376586961492 32.88874468452165" fill="#3dffa9" stroke="none" /><path d="M 83.6137871275137 86.86637796730984 l -34.617286274121696 -27.74590793246315 a65.36430903306413,65.36430903306413 0 0,0 0.7112306275447539,-0.8718846525138425 l 34.13455715450055 28.337676754585075" fill="#30ff31" stroke="none" /><path d="M 83.84228863543731 86.58626213691792 l -31.52212240883974 -26.168897150094967 a61.96895628656074,61.96895628656074 0 0,0 0.6884142759492844,-0.8148653656837278 l 31.06699751940333 26.70762146540781" fill="#59ff2a" stroke="none" /><path d="M 84.31358615837235 86.03803664274999 l -27.708169324451944 -24.662134297250923 a58.093982199382964,58.093982199382964 0 0,0 0.671279724886598,-0.741243838416033 l 27.279545958949303 25.135430922936514" fill="#8cff24" stroke="none" /><path d="M 84.5562425177563 85.77008943001954 l -34.09121751832931 -31.41171939959127 a67.35630731109524,67.35630731109524 0 0,0 0.792984773271573,-0.8459008668617334 l 33.54546542308728 31.993889683331055" fill="#33ff50" stroke="none" /><path d="M 84.80347519578584 85.50635884689758 l -33.31725621231102 -31.77623581500015 a67.04094616846265,67.04094616846265 0 0,0 0.8036477117027405,-0.828229609537903 l 32.765344236905165 32.34502962008818" fill="#32ff4b" stroke="none" /><path d="M 85.05521093208273 85.24692304244772 l -33.11558510357293 -32.69077758857051 a67.53309484761749,67.53309484761749 0 0,0 0.8237886287554703,-0.8202510185844304 l 32.54796067465015 33.25596445780505" fill="#33ff52" stroke="none" /><path d="M 85.57189188830299 84.74124197986013 l -32.26574605098702 -34.12333810641141 a67.9625443492072,67.9625443492072 0 0,0 0.8569498067101199,-0.7964414515732512 l 31.673588360482043 34.67368414405931" fill="#34ff59" stroke="none" /><path d="M 85.83668400450813 84.49514656593479 l -31.560560738430432 -34.549950640233725 a67.79495788401506,67.79495788401506 0 0,0 0.868385655580663,-0.7796452156873636 l 30.961164095253796 35.08809486469037" fill="#33ff56" stroke="none" /><path d="M 86.37877921826538 84.01681056812374 l -30.468695254187452 -35.752076542420674 a67.97395414043459,67.97395414043459 0 0,0 0.8970699558623104,-0.7512702896838545 l 29.84876776136603 36.27124798949834" fill="#34ff59" stroke="none" /><path d="M 86.65592168130627 83.78471172551755 l -31.247636369972177 -37.97110744812397 a70.1753981127452,70.1753981127452 0 0,0 0.9393364720893258,-0.7595447672899505 l 30.58939649931835 38.50335831267806" fill="#37ff79" stroke="none" /><line stroke="#e1ed5e" stroke-width="0.3" x1="56.762969772571076" x2="54.21961505331055" y1="26.818313649435495" y2="22.513508569990535" /><path d="M 56.25429882871897 25.957352633546506 a86.0,86.0 0 0,1 42.265352541879196,-11.944610805530505" fill="none" id="id12" stroke="none" /><text fill="#e1ed5e" style="font-size:6.75px; font-family:Arial;" text-anchor="middle"><textPath startOffset="22.20632615414155" xlink:href="#id12">December</textPath></text><path d="M 92.91201910852362 80.23233633223022 l -8.353292123201165 -23.29648904790948 a45.748815956625094,45.748815956625094 0 0,0 0.7435663894663272,-0.25941571297602434 l 7.951043729671553 23.43682561405771" fill="#ffb711" stroke="none" /><path d="M 93.59665428221793 80.00007090966166 l -19.21003715334623 -59.99978727101503 a84.0,84.0 0 0,0 1.380858509157085,-0.42903946046989905 l 18.17439327147842 60.321566866367455" fill="#4dd2ff" stroke="none" /></svg>