<?xml version="1.0" encoding="utf-8" ?>
<svg baseProfile="full" height="200mm" version="1.1" viewBox="0,0,200,200" width="200mm" xmlns="http://www.w3.org/2000/svg" xmlns:ev="http://www.w3.org/2001/xml-events" xmlns:xlink="http://www.w3.org/1999/xlink"><defs /><rect fill="#1a1a1a" height="200" width="200" x="0" y="0" /><text alignment-baseline="middle" fill="#e1ed5e" style="dominant-baseline: central; font-size:9.0px; font-family:Arial;" text-anchor="middle" x="100.0" y="100.0">2024</text><line stroke="#e1ed5e" stroke-width="0.3" x1="100.0" x2="100.0" y1="15.0" y2="10.0" /><path d="M 100.0 14.0 a86.0,86.0 0 0,1 42.35913384403234,11.155469271406648" fill="none" id="id61" stroke="none" /><text fill="#e1ed5e" style="font-size:6.75px; font-family:Arial;" text-anchor="middle"><textPath startOffset="22.145653131862478" xlink:href="#id61">January</textPath></text><path d="M 100.36049292484886 79.00309439819443 l 0.9828422994905346 -57.24563663077902 a78.25407314985421,78.25407314985421 0 0,0 1.34293933728294,0.034589353594628246 l -1.965394950844216 57.22032955983435" fill="#41ffcb" stroke="none" /><path d="M 101.44090949804482 79.04949213459386 l 3.2098267503669393 -46.670176490197626 a67.7804271185457,67.7804271185457 0 0,0 1.1601136692277574,0.08980013506985537 l -4.01050941436993 46.608198588132716" fill="#5cff2a" stroke="none" /><path d="M 102.51750503828377 79.15144685158666 l 4.722581883007989 -39.10975266716736 a60.393851466043785,60.393851466043785 0 0,0 1.0281972057401894,0.13312071350826088 l -5.3932569106389705 39.02292035745871" fill="#ebff1a" stroke="none" /><path d="M 103.23170211078529 79.25015418208739 l 7.858680718659686 -50.45836765096099 a72.06667924035574,72.06667924035574 0 0,0 1.2207494802882282,0.2008738624317699 l -8.723707702000985 50.31602779003355" fill="#33ff53" stroke="none" /><path d="M 104.29559338865022 79.4440306129975 l 11.439314701839491 -54.741261926839215 a76.92373090370972,76.92373090370972 0 0,0 1.2902585275315592,0.28120584078057104 l -12.377335645990184 54.53682462792493" fill="#3effb2" stroke="none" /><path d="M 104.9986988182912 79.60360301121754 l 12.038410304950066 -49.1208221617859 a71.57448459964891,71.57448459964891 0 0,0 1.1908450504398977,0.30270815505847726 l -12.87986064861536 48.90692877489216" fill="#32ff49" stroke="none" /><path d="M 106.04205211174951 79.88797359093562 l 11.47088769662647 -38.18285443803664 a60.86867990772846,60.86867990772846 0 0,0 0.9981285757602235,0.30922278420292754 l -12.124656905258323 37.98031506602707" fill="#e1ff1b" stroke="none" /><path d="M 106.38641147887787 79.99465700312896 l 16.547622337610147 -51.83519128722682 a75.4124145835449,75.4124145835449 0 0,0 1.2298589187593298,0.404279054698297 l -17.43500399401722 51.5434913111265" fill="#3aff96" stroke="none" /><path d="M 106.72888874123014 80.10723608172694 l 14.883079260021455 -43.999179282377014 a67.44818431093766,67.44818431093766 0 0,0 1.0936055925675252,0.3804127938185744 l -15.636190624633999 43.737208055989846" fill="#62ff29" stroke="none" /><path d="M 109.06512990194946 81.05736502329252 l 24.26267347442134 -50.69965595155672 a77.20616014043843,77.20616014043843 0 0,0 1.1905916026339292,0.5823780141542978 l -25.12942532631734 50.2756841873052" fill="#3effb8" stroke="none" /><path d="M 110.02825361518725 81.54914285379988 l 27.020721773270154 -49.71508465549685 a77.58364646655157,77.58364646655157 0 0,0 1.1646997834582293,0.6460393365557797 l -27.87016574488448 49.24391240350793" fill="#3fffbf" stroke="none" /><line stroke="#e1ed5e" stroke-width="0.3" x1="143.13028292997686" x2="145.6673583964461" y1="26.7553504044142" y2="22.446841604673864" /><path d="M 143.63769802327073 25.89364864446614 a86.0,86.0 0 0,1 29.32050498858742,28.57503671076993" fill="none" id="id62" stroke="none" /><text fill="#e1ed5e" style="font-size:6.75px; font-family:Arial;" text-anchor="middle"><textPath startOffset="20.669276256404974" xlink:href="#id62">February</textPath></text><path d="M 110.96478420261332 82.08984904055464 l 29.012525978040753 -47.38978080915584 a76.56543879756845,76.56543879756845 0 0,0 1.1150694132977281,0.6958857840750157 l -29.821759520128193 46.884759228239275" fill="#3dffac" stroke="none" /><path d="M 111.5731344415666 82.4767994020092 l 15.174344236026256 -22.975891218875308 a48.5345655548624,48.5345655548624 0 0,0 0.6912794625266087,0.46512367321010434 l -15.566519986649867 22.712017871608083" fill="#ff0000" stroke="none" /><path d="M 113.31354834802062 83.75963576809568 l 39.94064504406186 -48.72109269571298 a84.0,84.0 0 0,0 1.1073026633524292,0.9237512643525192 l -40.77112204157618 48.028279247448594" fill="#4dd2ff" stroke="none" /><path d="M 114.65682725009322 84.96080404539774 l 36.61931535032974 -37.5746435350448 a73.46740029306369,73.46740029306369 0 0,0 0.895630861050984,0.8879759424244005 l -37.25893813151069 36.94048758239174" fill="#36ff70" stroke="none" /><path d="M 115.16444852881244 85.47280134310134 l 40.238579371653266 -38.5476488045536 a76.72310560448011,76.72310560448011 0 0,0 0.9029365698944818,0.9588873469274379 l -40.89437177528401 37.851219997681675" fill="#3dffaf" stroke="none" /><path d="M 115.6541949942343 86.00192230759917 l 27.832657689198918 -24.88813413036577 a58.33732789763083,58.33732789763083 0 0,0 0.6611256475169531,0.7522396257130896 l -28.25579440067446 24.406682226841383" fill="#ffe715" stroke="none" /><path d="M 116.35404254752997 86.82634096563983 l 40.603115573233374 -32.70699576205293 a73.13789951688018,73.13789951688018 0 0,0 0.7792096816328846,0.984505977971158 l -41.15859168550782 32.00516984016709" fill="#35ff69" stroke="none" /><path d="M 116.57777611688842 87.10902102172516 l 41.26321444017356 -32.08652512700025 a73.27043103573345,73.27043103573345 0 0,0 0.7635756643127571,0.999545055693517 l -41.80794208184063 31.373459158065852" fill="#36ff6c" stroke="none" /><path d="M 117.21940702142032 87.97951657250589 l 41.281534138307045 -28.81771691404748 a71.3450679704615,71.3450679704615 0 0,0 0.6924217657137278,1.010264049451508 l -41.7701456408361 28.104818129525924" fill="#32ff44" stroke="none" /><path d="M 117.81537515405839 88.88188828441811 l 47.30843187191519 -29.523960404568214 a76.7651500863232,76.7651500863232 0 0,0 0.6880790695064364,1.1239254488891581 l -47.808278905877025 28.707497839554502" fill="#3dffaf" stroke="none" /><line stroke="#e1ed5e" stroke-width="0.3" x1="172.87174338648825" x2="177.1583165268699" y1="56.24261187166439" y2="53.66864786411523" /><path d="M 173.72905801456457 55.72781907015455 a86.0,86.0 0 0,1 12.242430191666344,42.057860355516425" fill="none" id="id63" stroke="none" /><text fill="#e1ed5e" style="font-size:6.75px; font-family:Arial;" text-anchor="middle"><textPath startOffset="22.145653131862474" xlink:href="#id63">March</textPath></text><line stroke="#e1ed5e" stroke-width="0.3" x1="184.99686870605535" x2="189.99668451229388" y1="99.2704041080226" y2="99.22748670261217" /><path d="M 185.99683186730306 99.26182062694052 a86.0,86.0 0 0,1 -10.086455211305974,41.156179273409016" fill="none" id="id64" stroke="none" /><text fill="#e1ed5e" style="font-size:6.75px; font-family:Arial;" text-anchor="middle"><textPath startOffset="21.40746469413373" xlink:href="#id64">April</textPath></text><line stroke="#e1ed5e" stroke-width="0.3" x1="174.33088141563837" x2="178.70328620479359" y1="141.23008692659167" y2="143.65538615756765" /><path d="M 175.20536237346943 141.71514677278685 a86.0,86.0 0 0,1 -30.301960400862466,31.631185727798858" fill="none" id="id65" stroke="none" /><text fill="#e1ed5e" style="font-size:6.75px; font-family:Arial;" text-anchor="middle"><textPath startOffset="22.145653131862474" xlink:href="#id65">May</textPath></text><line stroke="#e1ed5e" stroke-width="0.3" x1="143.1302829299769" x2="145.66735839644613" y1="173.24464959558577" y2="177.55315839532614" /><path d="M 143.63769802327073 174.10635135553383 a86.0,86.0 0 0,1 -40.68552437913181,11.842963189579606" fill="none" id="id66" stroke="none" /><text fill="#e1ed5e" style="font-size:6.75px; font-family:Arial;" text-anchor="middle"><textPath startOffset="21.407464694133747" xlink:href="#id66">June</textPath></text><line stroke="#e1ed5e" stroke-width="0.3" x1="101.45913802915013" x2="101.54496967792366" y1="184.9874750549273" y2="189.98673829345242" /><path d="M 101.47630435890484 185.9873277026323 a86.0,86.0 0 0,1 -42.54439059252881,-10.42667462771756" fill="none" id="id67" stroke="none" /><text fill="#e1ed5e" style="font-size:6.75px; font-family:Arial;" text-anchor="middle"><textPath startOffset="22.145653131862474" xlink:href="#id67">July</textPath></text><line stroke="#e1ed5e" stroke-width="0.3" x1="58.13341422392154" x2="55.67067388415222" y1="173.97424548756322" y2="178.32567169271397" /><path d="M 57.64086615596768 174.84453072859336 a86.0,86.0 0 0,1 -31.369924170532247,-30.572349798747897" fill="none" id="id68" stroke="none" /><text fill="#e1ed5e" style="font-size:6.75px; font-family:Arial;" text-anchor="middle"><textPath startOffset="22.145653131862474" xlink:href="#id68">August</textPath></text><line stroke="#e1ed5e" stroke-width="0.3" x1="26.387840678322732" x2="22.057713659400548" y1="142.50000000000003" y2="145.00000000000006" /><path d="M 25.521815274538298 143.00000000000003 a86.0,86.0 0 0,1 -11.493303480769221,-40.785679425670985" fill="none" id="id69" stroke="none" /><text fill="#e1ed5e" style="font-size:6.75px; font-family:Arial;" text-anchor="middle"><textPath startOffset="21.40746469413373" xlink:href="#id69">September</textPath></text><line stroke="#e1ed5e" stroke-width="0.3" x1="15.003131293944662" x2="10.003315487706104" y1="100.72959589197737" y2="100.7725132973878" /><path d="M 14.003168132696942 100.73817937305945 a86.0,86.0 0 0,1 10.791469493833604,-42.45332614584628" fill="none" id="id70" stroke="none" /><text fill="#e1ed5e" style="font-size:6.75px; font-family:Arial;" text-anchor="middle"><textPath startOffset="22.145653131862435" xlink:href="#id70">October</textPath></text><line stroke="#e1ed5e" stroke-width="0.3" x1="26.387840678322718" x2="22.05771365940052" y1="57.49999999999999" y2="54.99999999999999" /><path d="M 25.521815274538284 56.99999999999999 a86.0,86.0 0 0,1 29.574782752854787,-30.34633250058573" fill="none" id="id71" stroke="none" /><text fill="#e1ed5e" style="font-size:6.75px; font-family:Arial;" text-anchor="middle"><textPath startOffset="21.40746469413373" xlink:href="#id71">November</textPath></text><line stroke="#e1ed5e" stroke-width="0.3" x1="56.869717070023135" x2="54.33264160355391" y1="26.7553504044142" y2="22.446841604673864" /><path d="M 56.362301976729285 25.89364864446614 a86.0,86.0 0 0,1 42.16139366436587,-11.88097634709845" fill="none" id="id72" stroke="none" /><text fill="#e1ed5e" style="font-size:6.75px; font-family:Arial;" text-anchor="middle"><textPath startOffset="22.145653131862474" xlink:href="#id72">December</textPath></text></svg>