<?xml version="1.0" encoding="utf-8" ?>
<svg baseProfile="full" height="200mm" version="1.1" viewBox="0,0,200,200" width="200mm" xmlns="http://www.w3.org/2000/svg" xmlns:ev="http://www.w3.org/2001/xml-events" xmlns:xlink="http://www.w3.org/1999/xlink"><defs /><rect fill="#1a1a1a" height="200" width="200" x="0" y="0" /><text alignment-baseline="middle" fill="#e1ed5e" style="dominant-baseline: central; font-size:9.0px; font-family:Arial;" text-anchor="middle" x="100.0" y="100.0">2023</text><line stroke="#e1ed5e" stroke-width="0.3" x1="100.0" x2="100.0" y1="15.0" y2="10.0" /><path d="M 100.0 14.0 a86.0,86.0 0 0,1 42.46469731375804,11.215312516191453" fill="none" id="id13" stroke="none" /><text fill="#e1ed5e" style="font-size:6.75px; font-family:Arial;" text-anchor="middle"><textPath startOffset="22.20632615414155" xlink:href="#id13">January</textPath></text><line stroke="#e1ed5e" stroke-width="0.3" x1="143.23703022742887" x2="145.7803849466894" y1="26.81831364943548" y2="22.513508569990506" /><path d="M 143.74570117128098 25.957352633546492 a86.0,86.0 0 0,1 28.547481713284135,27.462654790039103" fill="none" id="id14" stroke="none" /><text fill="#e1ed5e" style="font-size:6.75px; font-family:Arial;" text-anchor="middle"><textPath startOffset="19.985693538727396" xlink:href="#id14">February</textPath></text><line stroke="#e1ed5e" stroke-width="0.3" x1="172.23445277983987" x2="176.4835382374775" y1="55.19839476539836" y2="52.563006222186495" /><path d="M 173.08426987136738 54.67131705675599 a86.0,86.0 0 0,1 12.851231095245387,41.99856678651699" fill="none" id="id15" stroke="none" /><text fill="#e1ed5e" style="font-size:6.75px; font-family:Arial;" text-anchor="middle"><textPath startOffset="22.20632615414155" xlink:href="#id15">March</textPath></text><path d="M 119.61058180528143 92.48833698450437 l 39.436664509522 -15.105871778414299 a63.23076923076923,63.23076923076923 0 0,0 0.3805751950610404,1.0197523126809087 l -39.690844293084666 14.424796328704057" fill="#40ff2d" stroke="none" /><path d="M 119.97218684219823 93.5106431181261 l 20.012091311413403 -6.502322629889628 a42.04195804195804,42.04195804195804 0 0,0 0.21770630422429052,0.6901884780034525 l -20.1210530994059 6.156883985459756" fill="#ff8f0d" stroke="none" /><path d="M 120.78858239683441 97.02765380044208 l 53.14483751598329 -7.598635289379319 a74.6853146853147,74.6853146853147 0 0,0 0.1710080353187844,1.274208493756039 l -53.26776155035991 6.682708453558616" fill="#3fffbc" stroke="none" /><path d="M 120.87857604477298 97.74499172005257 l 31.28657748966981 -3.3791332866345094 a52.46853146853147,52.46853146853147 0 0,0 0.08925365501373235,0.8987721255826255 l -31.34010827036577 2.840085630347449" fill="#cfff1d" stroke="none" /><path d="M 120.91429891909075 98.10471618934814 l 31.413235189663293 -2.84671249681826 a52.54195804195804,52.54195804195804 0 0,0 0.07387278249158381,0.9014350592938493 l -31.45758245597437 2.3055635203166416" fill="#ceff1d" stroke="none" /><path d="M 120.94382443527127 98.46500227214037 l 62.58039848740894 -4.586591612415747 a83.74825174825175,83.74825174825175 0 0,0 0.09299808262774553,1.4386391763255577 l -62.650077161041104 3.508693371837154" fill="#4dd5ff" stroke="none" /><path d="M 120.96714384426684 98.82574320788733 l 21.270863710142837 -1.19126650588453 a42.3041958041958,42.3041958041958 0 0,0 0.03446057841873562,0.7274083451495713 l -21.28821789679507 0.824947054111959" fill="#ff930d" stroke="none" /><path d="M 120.98425023603335 99.18683210126433 l 41.95801882859216 -1.6259296196997401 a62.98951048951049,62.98951048951049 0 0,0 0.03265947791900669,1.0838090732831571 l -41.979790000966815 0.9034503989915841" fill="#43ff2d" stroke="none" /><line stroke="#e1ed5e" stroke-width="0.3" x1="184.98032266829074" x2="189.97916517819016" y1="98.17113171792111" y2="98.06355123074" /><path d="M 185.9800911702706 98.14961562048488 a86.0,86.0 0 0,1 -9.607161424134198,41.387399972396054" fill="none" id="id16" stroke="none" /><text fill="#e1ed5e" style="font-size:6.75px; font-family:Arial;" text-anchor="middle"><textPath startOffset="21.466115282336823" xlink:href="#id16">April</textPath></text><path d="M 120.99513854157772 99.54816195383933 l 52.55076884707588 -1.130949275380172 a73.56293706293707,73.56293706293707 0 0,0 0.01634846207965077,1.2662064047062813 l -52.56245031627324 0.22620661261342795" fill="#3dffad" stroke="none" /><path d="M 120.99980553446 99.90962569577887 l 32.9892049979404 -0.14197162176596104 a53.98951048951049,53.98951048951049 0 0,0 -0.003999601324139855,0.9293664913514659 l -32.98676109932675 -0.42590434778918956" fill="#baff1f" stroke="none" /><path d="M 120.9764740272857 100.99374915477107 l 42.06820340636968 1.9929584697331781 a63.11538461538461,63.11538461538461 0 0,0 -0.06075201134352457,1.0847679734314475 l -42.02766504413863 -2.716798159500049" fill="#42ff2d" stroke="none" /><path d="M 120.95626037817324 101.35467743843564 l 54.50511877579822 3.5233793316355557 a75.61888111888112,75.61888111888112 0 0,0 -0.0951481461482466,1.298220858638753 l -54.436394070985635 -4.4610733267710785" fill="#40ffc8" stroke="none" /><path d="M 120.92983693683757 101.71520430193887 l 52.29322895008069 4.285440518630485 a73.46853146853147,73.46853146853147 0 0,0 -0.1141400238138683,1.2595256516512547 l -52.211714329989746 -5.18494755883031" fill="#3dffac" stroke="none" /><path d="M 120.89721153311464 102.0752229133903 l 32.82803709872406 3.2600280033029434 a53.98951048951049,53.98951048951049 0 0,0 -0.09979754953750547,0.9240013642652241 l -32.7670572476855 -3.824625689452959" fill="#baff1f" stroke="none" /><path d="M 120.8583938346157 102.4346265915055 l 12.679652995368286 1.4799902906404616 a33.76573426573427,33.76573426573427 0 0,0 -0.0723527181490489,0.5767223521223156 l -12.65229876797239 -1.6980303970501722" fill="#ff0000" stroke="none" /><path d="M 120.81339534386255 102.79330883721812 l 31.272074522646626 4.196939551624419 a52.55244755244755,52.55244755244755 0 0,0 -0.12804265954386976,0.8955300626264482 l -31.195197812086157 -4.734615086231276" fill="#ceff1d" stroke="none" /><path d="M 120.76222939487914 103.15116336523771 l 32.2011599755743 4.887293830700835 a53.56993006993007,53.56993006993007 0 0,0 -0.14621592431413585,0.910486700278123 l -32.11226229689888 -5.440859760672162" fill="#c0ff1e" stroke="none" /><path d="M 120.70491114924044 103.5080841355445 l 62.114733447721314 10.524252406633499 a84.0,84.0 0 0,0 -0.25381423064324515,1.4235249970671267 l -61.924372774738885 -11.591896154433844" fill="#4dd2ff" stroke="none" /><path d="M 120.5718875245553 104.21870165774334 l 30.878382623021302 6.332266973785577 a52.52097902097902,52.52097902097902 0 0,0 -0.18924049355979694,0.8840685845071137 l -30.764808090737063 -6.8628493777088595" fill="#ceff1d" stroke="none" /><line stroke="#e1ed5e" stroke-width="0.3" x1="174.80103733775053" x2="179.2010983576182" y1="140.37084112569926" y2="142.7455964860345" /><path d="M 175.68104954172406 140.8457921977663 a86.0,86.0 0 0,1 -30.038265399797805,32.042727171017184" fill="none" id="id17" stroke="none" /><text fill="#e1ed5e" style="font-size:6.75px; font-family:Arial;" text-anchor="middle"><textPath startOffset="22.206326154141568" xlink:href="#id17">May</textPath></text><line stroke="#e1ed5e" stroke-width="0.3" x1="143.8653032363475" x2="146.44561519142675" y1="172.8068346515853" y2="177.08958963109032" /><path d="M 144.38136562736335 173.6633856474863 a86.0,86.0 0 0,1 -40.68145358897372,12.25698825130547" fill="none" id="id18" stroke="none" /><text fill="#e1ed5e" style="font-size:6.75px; font-family:Arial;" text-anchor="middle"><textPath startOffset="21.466115282336833" xlink:href="#id18">June</textPath></text><line stroke="#e1ed5e" stroke-width="0.3" x1="102.19456741930631" x2="102.32365962044197" y1="184.97166512339345" y2="189.96999836594603" /><path d="M 102.22038585953345 185.97133177190398 a86.0,86.0 0 0,1 -42.740103519485714,-10.115201625700543" fill="none" id="id19" stroke="none" /><text fill="#e1ed5e" style="font-size:6.75px; font-family:Arial;" text-anchor="middle"><textPath startOffset="22.20632615414155" xlink:href="#id19">July</textPath></text><line stroke="#e1ed5e" stroke-width="0.3" x1="58.666819895761336" x2="56.23545636021788" y1="174.27360380694188" y2="178.64263932499728" /><path d="M 58.180547188652646 175.14741091055294 a86.0,86.0 0 0,1 -31.652253787137756,-30.449443065178592" fill="none" id="id20" stroke="none" /><text fill="#e1ed5e" style="font-size:6.75px; font-family:Arial;" text-anchor="middle"><textPath startOffset="22.20632615414155" xlink:href="#id20">August</textPath></text><line stroke="#e1ed5e" stroke-width="0.3" x1="26.63291911575756" x2="22.317208475507996" y1="142.92168965132927" y2="145.44649492493687" /><path d="M 25.769776987707644 143.4266507060508 a86.0,86.0 0 0,1 -11.730757126820373,-40.83630448921669" fill="none" id="id21" stroke="none" /><text fill="#e1ed5e" style="font-size:6.75px; font-family:Arial;" text-anchor="middle"><textPath startOffset="21.46611528233685" xlink:href="#id21">September</textPath></text><line stroke="#e1ed5e" stroke-width="0.3" x1="15.007084014347285" x2="10.007500721073583" y1="101.09737516637583" y2="101.16192664675087" /><path d="M 14.007167355692545 101.11028546245083 a86.0,86.0 0 0,1 10.666146001902534,-42.60595125391555" fill="none" id="id22" stroke="none" /><text fill="#e1ed5e" style="font-size:6.75px; font-family:Arial;" text-anchor="middle"><textPath startOffset="22.20632615414155" xlink:href="#id22">October</textPath></text><line stroke="#e1ed5e" stroke-width="0.3" x1="26.266209847984257" x2="21.92892807433627" y1="57.711370442889674" y2="55.22380399835377" /><path d="M 25.39875349325466 57.213857153982495 a86.0,86.0 0 0,1 29.58750427330802,-30.492523968695096" fill="none" id="id23" stroke="none" /><text fill="#e1ed5e" style="font-size:6.75px; font-family:Arial;" text-anchor="middle"><textPath startOffset="21.46611528233685" xlink:href="#id23">November</textPath></text><line stroke="#e1ed5e" stroke-width="0.3" x1="56.762969772571076" x2="54.21961505331055" y1="26.818313649435495" y2="22.513508569990535" /><path d="M 56.25429882871897 25.957352633546506 a86.0,86.0 0 0,1 42.265352541879196,-11.944610805530505" fill="none" id="id24" stroke="none" /><text fill="#e1ed5e" style="font-size:6.75px; font-family:Arial;" text-anchor="middle"><textPath startOffset="22.20632615414155" xlink:href="#id24">December</textPath></text></svg>