<?xml version="1.0" encoding="utf-8" ?>
<svg baseProfile="full" height="200mm" version="1.1" viewBox="0,0,200,200" width="200mm" xmlns="http://www.w3.org/2000/svg" xmlns:ev="http://www.w3.org/2001/xml-events" xmlns:xlink="http://www.w3.org/1999/xlink"><defs /><rect fill="#1a1a1a" height="200" width="200" x="0" y="0" /><text alignment-baseline="middle" fill="#e1ed5e" style="dominant-baseline: central; font-size:9.0px; font-family:Arial;" text-anchor="middle" x="100.0" y="100.0">2024</text><line stroke="#e1ed5e" stroke-width="0.3" x1="100.0" x2="100.0" y1="15.0" y2="10.0" /><path d="M 100.0 14.0 a86.0,86.0 0 0,1 42.35913384403234,11.155469271406648" fill="none" id="id145" stroke="none" /><text fill="#e1ed5e" style="font-size:6.75px; font-family:Arial;" text-anchor="middle"><textPath startOffset="22.145653131862478" xlink:href="#id145">January</textPath></text><path d="M 101.08105385017728 79.02784411241856 l 1.303287079881446 -25.283421173757738 a46.31698922585794,46.31698922585794 0 0,0 0.7936871507211842,0.04774624808832792 l -1.7371185827350926 25.257322947844717" fill="#c1ff1e" stroke="none" /><path d="M 102.87502721639298 79.19773525538626 l 1.6669241284419625 -12.061032616080276 a33.17567837190742,33.17567837190742 0 0,0 0.5634729323663614,0.08281111680175558 l -1.8737221664160058 12.030640425979637" fill="#ff9b0e" stroke="none" /><path d="M 104.29559338865022 79.4440306129975 l 1.2212395022161877 -5.844073111780809 a26.97031125299282,26.97031125299282 0 0,0 0.45237891708495065,0.09859387945581025 l -1.3213808359202726 5.82224777419128" fill="#ff4706" stroke="none" /><path d="M 107.74402155503746 80.48000691201159 l 0.785548920083879 -1.980096437146331 a23.130227454110134,23.130227454110134 0 0,0 0.3678207747595473,0.1495895069756018 l -0.819424156033866 1.9663196735914357" fill="#ff1001" stroke="none" /><line stroke="#e1ed5e" stroke-width="0.3" x1="143.13028292997686" x2="145.6673583964461" y1="26.7553504044142" y2="22.446841604673864" /><path d="M 143.63769802327073 25.89364864446614 a86.0,86.0 0 0,1 29.32050498858742,28.57503671076993" fill="none" id="id146" stroke="none" /><text fill="#e1ed5e" style="font-size:6.75px; font-family:Arial;" text-anchor="middle"><textPath startOffset="20.669276256404974" xlink:href="#id146">February</textPath></text><path d="M 110.65571695917076 81.90426304109057 l 0.6193612703508432 -1.0518108423627892 a22.220620510774143,22.220620510774143 0 0,0 0.3270317108975382,0.1963731460097158 l -0.6373257378058157 1.0410236958171524" fill="#ff0300" stroke="none" /><path d="M 110.96478420261332 82.08984904055464 l 3.839799671364377 -6.272024191025468 a28.354070231444535,28.354070231444535 0 0,0 0.4129377034091198,0.2577036676677867 l -3.94690150356321 6.205184726516137" fill="#ff5a08" stroke="none" /><path d="M 111.5731344415666 82.4767994020092 l 0.5673422051661847 -0.8590284092031811 a22.029469273743018,22.029469273743018 0 0,0 0.3137664776680762,0.21111608912806992 l -0.5820049709312619 0.8491626460179924" fill="#ff0000" stroke="none" /><path d="M 116.35404254752997 86.82634096563983 l 13.897696495017813 -11.195000530070107 a38.84583998403831,38.84583998403831 0 0,0 0.4138627825883678,0.5229021059699707 l -14.08782570824774 10.954778480185457" fill="#ffe415" stroke="none" /><path d="M 117.62189284568427 88.57770195909679 l 14.716847162574412 -9.539282526877626 a38.53805865921788,38.53805865921788 0 0,0 0.3550682166496351,0.5582262118364416 l -14.878433070849937 9.285242640362512" fill="#ffe015" stroke="none" /><line stroke="#e1ed5e" stroke-width="0.3" x1="172.87174338648825" x2="177.1583165268699" y1="56.24261187166439" y2="53.66864786411523" /><path d="M 173.72905801456457 55.72781907015455 a86.0,86.0 0 0,1 12.242430191666344,42.057860355516425" fill="none" id="id147" stroke="none" /><text fill="#e1ed5e" style="font-size:6.75px; font-family:Arial;" text-anchor="middle"><textPath startOffset="22.145653131862474" xlink:href="#id147">March</textPath></text><path d="M 119.16976305983485 91.42560881287824 l 1.9310460072373534 -0.8637323171236563 a23.11541300877893,23.11541300877893 0 0,0 0.15890868769770658,0.3636141756950685 l -1.9455885769520302 0.8304560716527385" fill="#ff1001" stroke="none" /><path d="M 120.51834098615036 95.52812308129327 l 17.773302305079397 -3.8736085144958734 a39.190522745411016,39.190522745411016 0 0,0 0.13761899339220615,0.6585567020181292 l -17.83717900929597 3.56793536119234" fill="#ffe815" stroke="none" /><path d="M 120.7213421655516 96.59031103205396 l 30.16117626935376 -4.963010077448518 a51.566779728651234,51.566779728651234 0 0,0 0.13623085688477735,0.874699826623036 l -30.241928618376804 4.444522068894041" fill="#87ff25" stroke="none" /><path d="M 120.77682067341334 96.94652285012252 l 3.5815498492105498 -0.5263644903912482 a24.620021947326418,24.620021947326418 0 0,0 0.05786348026817014,0.41867131856003614 l -3.5900578460339325 0.46480486363112644" fill="#ff2503" stroke="none" /><path d="M 120.99303781780057 99.45929381324524 l 47.66803004531129 -1.227759363823794 a68.68383878691141,68.68383878691141 0 0,0 0.020240696876142692,1.1789191197059845 l -47.6820821737861 0.40929332814874303" fill="#3aff92" stroke="none" /><line stroke="#e1ed5e" stroke-width="0.3" x1="184.99686870605535" x2="189.99668451229388" y1="99.2704041080226" y2="99.22748670261217" /><path d="M 185.99683186730306 99.26182062694052 a86.0,86.0 0 0,1 -10.086455211305974,41.156179273409016" fill="none" id="id148" stroke="none" /><text fill="#e1ed5e" style="font-size:6.75px; font-family:Arial;" text-anchor="middle"><textPath startOffset="21.40746469413373" xlink:href="#id148">April</textPath></text><path d="M 120.93736805541906 101.62068470465957 l 26.14121470079725 2.0234953464381857 a47.21941340782122,47.21941340782122 0 0,0 -0.06949433365587998,0.80762949768367 l -26.10262674444363 -2.471945891497513" fill="#b7ff1f" stroke="none" /><path d="M 120.77682067341334 103.0534771498775 l 22.705119745233397 3.336870708809581 a43.94901237031125,43.94901237031125 0 0,0 -0.1161059823000805,0.7454836951783685 l -22.64449227079505 -3.7261425859194004" fill="#ddff1b" stroke="none" /><path d="M 120.592083275326 104.11899336999214 l 34.23524819694185 6.848008453433481 a55.91342777334398,55.91342777334398 0 0,0 -0.1963421028410925,0.939568038735933 l -34.1126483832764 -7.434692943454824" fill="#59ff2a" stroke="none" /><path d="M 119.94978838288452 106.5578916946017 l 9.236785001771663 3.0363146959447365 a30.72303471667997,30.72303471667997 0 0,0 -0.16899801920547056,0.4996126148008783 l -9.183301560993828 -3.1944289852197754" fill="#ff7a0b" stroke="none" /><path d="M 119.16976305983485 108.57439118712176 l 16.54908313269182 7.40219438941363 a39.12911013567438,39.12911013567438 0 0,0 -0.2795225903213639,0.6108073056480453 l -16.4195760775154 -7.685190677276364" fill="#ffe715" stroke="none" /><path d="M 119.0197475246899 108.90220220490707 l 6.263196788133372 2.931492344191717 a27.915293296089388,27.915293296089388 0 0,0 -0.20686660271448215,0.43227163719400463 l -6.211950927458978 -3.038576483450825" fill="#ff5407" stroke="none" /><path d="M 118.70294669586154 109.54985784667822 l 28.005962118394596 14.300043808032871 a52.44559058260176,52.44559058260176 0 0,0 -0.4162979413315764,0.7983061934443694 l -27.75635610808807 -14.778696244581743" fill="#7dff26" stroke="none" /><line stroke="#e1ed5e" stroke-width="0.3" x1="174.33088141563837" x2="178.70328620479359" y1="141.23008692659167" y2="143.65538615756765" /><path d="M 175.20536237346943 141.71514677278685 a86.0,86.0 0 0,1 -30.301960400862466,31.631185727798858" fill="none" id="id149" stroke="none" /><text fill="#e1ed5e" style="font-size:6.75px; font-family:Arial;" text-anchor="middle"><textPath startOffset="22.145653131862474" xlink:href="#id149">May</textPath></text><path d="M 117.81537515405839 111.11811171558189 l 15.386174309492702 9.60211072565524 a39.13656225059856,39.13656225059856 0 0,0 -0.3605824955272793,0.5668955741294752 l -15.219074122339533 -9.864819974463389" fill="#ffe715" stroke="none" /><path d="M 117.21940702142032 112.02048342749411 l 4.108407003892207 2.867987163684197 a26.010424980047887,26.010424980047887 0 0,0 -0.2587230980548168,0.3639264381953364 l -4.05856880730743 -2.9380908285890377" fill="#ff3905" stroke="none" /><path d="M 116.79662413953412 112.60449989151573 l 24.780286905708337 18.59558926960623 a51.981584197924974,51.981584197924974 0 0,0 -0.5417174721765056,0.7091255604435234 l -24.457417456177527 -19.018235743290628" fill="#82ff25" stroke="none" /><path d="M 115.16444852881244 114.52719865689866 l 17.252758722762128 16.527752583214728 a44.891929369513164,44.891929369513164 0 0,0 -0.537876283389297,0.5519084510717231 l -16.966495638222025 -16.821483726354188" fill="#d2ff1c" stroke="none" /><path d="M 114.91283532996324 114.78537596483092 l 1.9176833380713618 1.9012929806787395 a23.700448922585792,23.700448922585792 0 0,0 -0.288928877177573,0.2864594144336595 l -1.884762540763824 -1.933932405341061" fill="#ff1802" stroke="none" /><path d="M 114.65682725009322 115.03919595460226 l 5.9771981975668 6.133131913124707 a29.564006384676773,29.564006384676773 0 0,0 -0.366491632856426,0.35109069390032227 l -5.871034078845062 -6.234834737330609" fill="#ff6b09" stroke="none" /><path d="M 113.31354834802062 116.24036423190432 l 11.097691057199182 13.537378630457873 a38.504838387869114,38.504838387869114 0 0,0 -0.5147716054757026,0.414663566601231 l -10.863668681368226 -13.725890490852507" fill="#ffdf14" stroke="none" /><path d="M 112.7482090630111 116.68781488649013 l 38.24462718903332 50.063444659470385 a84.0,84.0 0 0,0 -1.1533880443569346,0.8655238909439404 l -37.379586155765615 -50.71258757767834" fill="#4dd2ff" stroke="none" /><path d="M 111.27062007382361 117.71928675628689 l 14.421841628411505 22.67353044408712 a47.87151835594573,47.87151835594573 0 0,0 -0.6971822629785628,0.43509329547584785 l -14.030495236643226 -22.917759536404514" fill="#b0ff20" stroke="none" /><line stroke="#e1ed5e" stroke-width="0.3" x1="143.1302829299769" x2="145.66735839644613" y1="173.24464959558577" y2="177.55315839532614" /><path d="M 143.63769802327073 174.10635135553383 a86.0,86.0 0 0,1 -40.68552437913181,11.842963189579606" fill="none" id="id150" stroke="none" /><text fill="#e1ed5e" style="font-size:6.75px; font-family:Arial;" text-anchor="middle"><textPath startOffset="21.407464694133747" xlink:href="#id150">June</textPath></text><path d="M 110.34350942703117 118.27599006163325 l 4.874987623410418 8.61363601827416 a30.897486033519556,30.897486033519556 0 0,0 -0.4638386687349019,0.25728349062508216 l -4.726404766519422 -8.696052424332386" fill="#ff7d0b" stroke="none" /><path d="M 109.3889696526874 118.78422872680471 l 5.208397375441241 10.420283717966244 a32.64945131683959,32.64945131683959 0 0,0 -0.5034852464845492,0.24627986402303942 l -5.028751879694623 -10.508157332086506" fill="#ff940d" stroke="none" /><path d="M 108.4095320186766 119.2426549942271 l 14.375136677040093 32.89312591435661 a56.897106943336,56.897106943336 0 0,0 -0.8983373803184352,0.38344680921533286 l -13.808364221551226 -33.135047373231345" fill="#4fff2b" stroke="none" /><path d="M 108.07796709384702 119.3841803445677 l 3.847418485297679 9.232403761193883 a31.001995211492417,31.001995211492417 0 0,0 -0.4929989521463432,0.20049838196135522 l -3.688365071960895 -9.29708939973453" fill="#ff7e0b" stroke="none" /><path d="M 107.74402155503746 119.51999308798841 l 1.037476835995463 2.615119356738611 a23.813397845171586,23.813397845171586 0 0,0 -0.3812726133249288,0.1474844375026838 l -0.9924319601770047 -2.6325436823793353" fill="#ff1a02" stroke="none" /><path d="M 106.72888874123015 119.89276391827305 l 3.7334457813347646 11.037269062675499 a32.65160614525139,32.65160614525139 0 0,0 -0.5324967944776245,0.1750422730750747 l -3.5434262492094057 -11.099732257152592" fill="#ff940d" stroke="none" /><path d="M 104.29559338865022 120.5559693870025 l 3.751946889839229 17.95442408794401 a39.34225857940942,39.34225857940942 0 0,0 -0.662267936903382,0.1324721352759883 l -3.4431824674048883 -18.016185619882858" fill="#ffea16" stroke="none" /><path d="M 101.80034050326958 120.92268563240118 l 2.7263966791682623 31.68486212683873 a52.80194533120512,52.80194533120512 0 0,0 -0.9037455375341952,0.06995562029139181 l -2.182082146858831 -31.726995514125175" fill="#7aff26" stroke="none" /><path d="M 101.08105385017728 120.97215588758144 l 0.4969615395546893 9.640921103018373 a30.65372106943336,30.65372106943336 0 0,0 -0.5257466986160707,0.022577825387386924 l -0.331389080337789 -9.64803149683159" fill="#ff790b" stroke="none" /><line stroke="#e1ed5e" stroke-width="0.3" x1="101.45913802915013" x2="101.54496967792366" y1="184.9874750549273" y2="189.98673829345242" /><path d="M 101.47630435890484 185.9873277026323 a86.0,86.0 0 0,1 -42.54439059252881,-10.42667462771756" fill="none" id="id151" stroke="none" /><text fill="#e1ed5e" style="font-size:6.75px; font-family:Arial;" text-anchor="middle"><textPath startOffset="22.145653131862474" xlink:href="#id151">July</textPath></text><path d="M 99.27912038922189 120.98762331915562 l -0.901112869183127 26.234917985883218 a47.25038906624102,47.25038906624102 0 0,0 -0.8103987115832288,-0.03480200760643142 l 1.3513373413671945 -26.215583409850957" fill="#b7ff1f" stroke="none" /><path d="M 98.19965949673042 120.92268563240118 l -1.102772702182306 12.815890399539047 a33.863248204309656,33.863248204309656 0 0,0 -0.5787397412251587,-0.05480725520746312 l 1.32261200679248 -12.7950713888264" fill="#ffa40f" stroke="none" /><path d="M 95.70440661134978 120.55596938700252 l -0.9311179848841797 4.4557366261756375 a25.551985235434955,25.551985235434955 0 0,0 -0.4285890252339578,-0.09340898325300422 l 1.007469426737274 -4.439096184788914" fill="#ff3304" stroke="none" /><path d="M 94.6519064749342 120.30758222061772 l -3.1748779470216655 12.055528693989157 a33.46658020750199,33.46658020750199 0 0,0 -0.5542999544419049,-0.15107691744554985 l 3.3813593023982653 -11.999251282399461" fill="#ff9f0e" stroke="none" /><path d="M 92.59220618246901 119.65005319985036 l -1.4645933025200335 3.8850077390862543 a25.15190542697526,25.15190542697526 0 0,0 -0.40270325027088766,-0.15577426825589652 l 1.5310688152844494 -3.859293582692317" fill="#ff2d04" stroke="none" /><path d="M 91.59046798132341 119.24265499422711 l -7.2318284025734165 16.547838645374746 a39.0590782122905,39.0590782122905 0 0,0 -0.612086625546585,-0.27377856217941765 l 7.514828430975637 -16.421256332285473" fill="#ffe615" stroke="none" /><line stroke="#e1ed5e" stroke-width="0.3" x1="58.13341422392154" x2="55.67067388415222" y1="173.97424548756322" y2="178.32567169271397" /><path d="M 57.64086615596768 174.84453072859336 a86.0,86.0 0 0,1 -31.369924170532247,-30.572349798747897" fill="none" id="id152" stroke="none" /><text fill="#e1ed5e" style="font-size:6.75px; font-family:Arial;" text-anchor="middle"><textPath startOffset="22.145653131862474" xlink:href="#id152">August</textPath></text><path d="M 89.03521579738668 117.91015095944536 l -3.863801935267031 6.311230085270292 a28.40003990422985,28.40003990422985 0 0,0 -0.413607187929384,-0.25812147552328946 l 3.9715732519861273 -6.243972812905455" fill="#ff5b08" stroke="none" /><line stroke="#e1ed5e" stroke-width="0.3" x1="26.387840678322732" x2="22.057713659400548" y1="142.50000000000003" y2="145.00000000000006" /><path d="M 25.521815274538298 143.00000000000003 a86.0,86.0 0 0,1 -11.493303480769221,-40.785679425670985" fill="none" id="id153" stroke="none" /><text fill="#e1ed5e" style="font-size:6.75px; font-family:Arial;" text-anchor="middle"><textPath startOffset="21.40746469413373" xlink:href="#id153">September</textPath></text><line stroke="#e1ed5e" stroke-width="0.3" x1="15.003131293944662" x2="10.003315487706104" y1="100.72959589197737" y2="100.7725132973878" /><path d="M 14.003168132696942 100.73817937305945 a86.0,86.0 0 0,1 10.791469493833604,-42.45332614584628" fill="none" id="id154" stroke="none" /><text fill="#e1ed5e" style="font-size:6.75px; font-family:Arial;" text-anchor="middle"><textPath startOffset="22.145653131862435" xlink:href="#id154">October</textPath></text><line stroke="#e1ed5e" stroke-width="0.3" x1="26.387840678322718" x2="22.05771365940052" y1="57.49999999999999" y2="54.99999999999999" /><path d="M 25.521815274538284 56.99999999999999 a86.0,86.0 0 0,1 29.574782752854787,-30.34633250058573" fill="none" id="id155" stroke="none" /><text fill="#e1ed5e" style="font-size:6.75px; font-family:Arial;" text-anchor="middle"><textPath startOffset="21.40746469413373" xlink:href="#id155">November</textPath></text><line stroke="#e1ed5e" stroke-width="0.3" x1="56.869717070023135" x2="54.33264160355391" y1="26.7553504044142" y2="22.446841604673864" /><path d="M 56.362301976729285 25.89364864446614 a86.0,86.0 0 0,1 42.16139366436587,-11.88097634709845" fill="none" id="id156" stroke="none" /><text fill="#e1ed5e" style="font-size:6.75px; font-family:Arial;" text-anchor="middle"><textPath startOffset="22.145653131862474" xlink:href="#id156">December</textPath></text></svg>