<?xml version="1.0" encoding="utf-8" ?>
<svg baseProfile="full" height="200mm" version="1.1" viewBox="0,0,200,200" width="200mm" xmlns="http://www.w3.org/2000/svg" xmlns:ev="http://www.w3.org/2001/xml-events" xmlns:xlink="http://www.w3.org/1999/xlink"><defs /><rect fill="#1a1a1a" height="200" width="200" x="0" y="0" /><text alignment-baseline="middle" fill="#e1ed5e" style="dominant-baseline: central; font-size:9.0px; font-family:Arial;" text-anchor="middle" x="100.0" y="100.0">2014</text><line stroke="#e1ed5e" stroke-width="0.3" x1="100.0" x2="100.0" y1="15.0" y2="10.0" /><path d="M 100.0 14.0 a86.0,86.0 0 0,1 42.46469731375804,11.215312516191453" fill="none" id="id25" stroke="none" /><text fill="#e1ed5e" style="font-size:6.75px; font-family:Arial;" text-anchor="middle"><textPath startOffset="22.20632615414155" xlink:href="#id25">January</textPath></text><line stroke="#e1ed5e" stroke-width="0.3" x1="143.23703022742887" x2="145.7803849466894" y1="26.81831364943548" y2="22.513508569990506" /><path d="M 143.74570117128098 25.957352633546492 a86.0,86.0 0 0,1 28.547481713284135,27.462654790039103" fill="none" id="id26" stroke="none" /><text fill="#e1ed5e" style="font-size:6.75px; font-family:Arial;" text-anchor="middle"><textPath startOffset="19.985693538727396" xlink:href="#id26">February</textPath></text><path d="M 110.99172775467656 82.1063720568725 l 29.834689619836364 -48.56841870277463 a78.0,78.0 0 0,0 1.1379860054744508,0.7126067322290643 l -30.666294777683078 48.04766762922262" fill="#46fff4" stroke="none" /><path d="M 111.2981086023043 82.29822771554956 l 4.842046543844697 -7.586473836193045 a30.0,30.0 0 0,0 0.4329042488795998,0.28157296548638855 l -4.971917818508577 7.502001946547129" fill="#ff780b" stroke="none" /><path d="M 111.60114157652 82.49532879139004 l 34.803424729560035 -52.514013625829904 a84.0,84.0 0 0,0 1.1983812223738326,0.8091523508053196 l -35.70221064634041 51.90714936272591" fill="#4dd2ff" stroke="none" /><line stroke="#e1ed5e" stroke-width="0.3" x1="172.23445277983987" x2="176.4835382374775" y1="55.19839476539836" y2="52.563006222186495" /><path d="M 173.08426987136738 54.67131705675599 a86.0,86.0 0 0,1 12.851231095245387,41.99856678651699" fill="none" id="id27" stroke="none" /><text fill="#e1ed5e" style="font-size:6.75px; font-family:Arial;" text-anchor="middle"><textPath startOffset="22.20632615414155" xlink:href="#id27">March</textPath></text><line stroke="#e1ed5e" stroke-width="0.3" x1="184.98032266829074" x2="189.97916517819016" y1="98.17113171792111" y2="98.06355123074" /><path d="M 185.9800911702706 98.14961562048488 a86.0,86.0 0 0,1 -9.607161424134198,41.387399972396054" fill="none" id="id28" stroke="none" /><text fill="#e1ed5e" style="font-size:6.75px; font-family:Arial;" text-anchor="middle"><textPath startOffset="21.466115282336823" xlink:href="#id28">April</textPath></text><line stroke="#e1ed5e" stroke-width="0.3" x1="174.80103733775053" x2="179.2010983576182" y1="140.37084112569926" y2="142.7455964860345" /><path d="M 175.68104954172406 140.8457921977663 a86.0,86.0 0 0,1 -30.038265399797805,32.042727171017184" fill="none" id="id29" stroke="none" /><text fill="#e1ed5e" style="font-size:6.75px; font-family:Arial;" text-anchor="middle"><textPath startOffset="22.206326154141568" xlink:href="#id29">May</textPath></text><line stroke="#e1ed5e" stroke-width="0.3" x1="143.8653032363475" x2="146.44561519142675" y1="172.8068346515853" y2="177.08958963109032" /><path d="M 144.38136562736335 173.6633856474863 a86.0,86.0 0 0,1 -40.68145358897372,12.25698825130547" fill="none" id="id30" stroke="none" /><text fill="#e1ed5e" style="font-size:6.75px; font-family:Arial;" text-anchor="middle"><textPath startOffset="21.466115282336833" xlink:href="#id30">June</textPath></text><line stroke="#e1ed5e" stroke-width="0.3" x1="102.19456741930631" x2="102.32365962044197" y1="184.97166512339345" y2="189.96999836594603" /><path d="M 102.22038585953345 185.97133177190398 a86.0,86.0 0 0,1 -42.740103519485714,-10.115201625700543" fill="none" id="id31" stroke="none" /><text fill="#e1ed5e" style="font-size:6.75px; font-family:Arial;" text-anchor="middle"><textPath startOffset="22.20632615414155" xlink:href="#id31">July</textPath></text><path d="M 96.58105272829116 120.7198165907248 l -0.7379028162978843 4.471906057746734 a25.53237734038245,25.53237734038245 0 0,0 -0.43301821193052076,-0.07528576660259681 l 0.8147699997004549 -4.4585417126231315" fill="#ff3b05" stroke="none" /><line stroke="#e1ed5e" stroke-width="0.3" x1="58.666819895761336" x2="56.23545636021788" y1="174.27360380694188" y2="178.64263932499728" /><path d="M 58.180547188652646 175.14741091055294 a86.0,86.0 0 0,1 -31.652253787137756,-30.449443065178592" fill="none" id="id32" stroke="none" /><text fill="#e1ed5e" style="font-size:6.75px; font-family:Arial;" text-anchor="middle"><textPath startOffset="22.20632615414155" xlink:href="#id32">August</textPath></text><path d="M 86.24171649860922 115.8653595955263 l -10.405115491856783 11.998655129806117 a36.8818812904171,36.8818812904171 0 0,0 -0.4760531410932859,-0.4200615472652078 l 10.610110985856657 -11.81777044076862" fill="#ffd113" stroke="none" /><path d="M 85.44109423537348 115.13401014063109 l -21.755638055102995 22.615026998924645 a52.38068248694945,52.38068248694945 0 0,0 -0.6444072292900853,-0.6306881036033679 l 22.141695236768875 -22.237188792398705" fill="#7aff26" stroke="none" /><line stroke="#e1ed5e" stroke-width="0.3" x1="26.63291911575756" x2="22.317208475507996" y1="142.92168965132927" y2="145.44649492493687" /><path d="M 25.769776987707644 143.4266507060508 a86.0,86.0 0 0,1 -11.730757126820373,-40.83630448921669" fill="none" id="id33" stroke="none" /><text fill="#e1ed5e" style="font-size:6.75px; font-family:Arial;" text-anchor="middle"><textPath startOffset="21.46611528233685" xlink:href="#id33">September</textPath></text><line stroke="#e1ed5e" stroke-width="0.3" x1="15.007084014347285" x2="10.007500721073583" y1="101.09737516637583" y2="101.16192664675087" /><path d="M 14.007167355692545 101.11028546245083 a86.0,86.0 0 0,1 10.666146001902534,-42.60595125391555" fill="none" id="id34" stroke="none" /><text fill="#e1ed5e" style="font-size:6.75px; font-family:Arial;" text-anchor="middle"><textPath startOffset="22.20632615414155" xlink:href="#id34">October</textPath></text><path d="M 80.14247586403 93.16781622104843 l -5.370592115339337 -1.8478070117170848 a26.679581887947023,26.679581887947023 0 0,0 0.1531495905654485,-0.4329745158741877 l 5.337989443964078 1.9399791540178837" fill="#ff4b07" stroke="none" /><path d="M 80.52162464483688 92.15188598940014 l -6.649736554220018 -2.679273279541699 a28.16920508473541,28.16920508473541 0 0,0 0.18508282854040367,-0.4481927499488565 l 6.6026320387934145 2.7933405999438667" fill="#ff6008" stroke="none" /><path d="M 80.803312248108 91.48605970444005 l -11.018120354587388 -4.886656494113428 a33.053148461693894,33.053148461693894 0 0,0 0.2351458951068298,-0.5181128100983423 l 10.932372142517208 5.075591313053841" fill="#ffa10e" stroke="none" /><line stroke="#e1ed5e" stroke-width="0.3" x1="26.266209847984243" x2="21.928928074336255" y1="57.711370442889674" y2="55.22380399835377" /><path d="M 25.398753493254645 57.213857153982495 a86.0,86.0 0 0,1 29.58750427330803,-30.492523968695096" fill="none" id="id35" stroke="none" /><text fill="#e1ed5e" style="font-size:6.75px; font-family:Arial;" text-anchor="middle"><textPath startOffset="21.46611528233685" xlink:href="#id35">November</textPath></text><path d="M 82.7489923806493 88.02491185347247 l -12.952359804477632 -8.991106710206038 a36.76716919357942,36.76716919357942 0 0,0 0.36537353410645923,-0.5167949525601037 l 12.795673650567295 9.212728163097928" fill="#ffd013" stroke="none" /><path d="M 82.95767976084542 87.72973835380427 l -0.2874572075068161 -0.20696566539629738 a21.354212411979802,21.354212411979802 0 0,0 0.21734255108407172,-0.2964549954242048 l 0.28385204390911095 0.21188310449200284" fill="#ff0000" stroke="none" /><path d="M 83.39014120810768 87.1503855733568 l -6.18835879948233 -4.787399188841224 a28.823999976,28.823999976 0 0,0 0.3069699988377084,-0.38982072523243666 l 6.105034720050651 4.893212308026708" fill="#ff6909" stroke="none" /><path d="M 83.84228863543731 86.58626213691792 l -4.858854456345486 -4.033702454620528 a27.314999772,27.314999772 0 0,0 0.30344283520996296,-0.3591806060914543 l 4.788701007648398 4.116742010341098" fill="#ff5407" stroke="none" /><path d="M 84.31358615837235 86.03803664274999 l -4.17482680989908 -3.715876651678837 a26.588999748,26.588999748 0 0,0 0.30723761326240845,-0.33925944627462273 l 4.110245556020626 3.7871888852230158" fill="#ff4a06" stroke="none" /><path d="M 85.31137513191541 84.99185889309783 l -2.2284742069044237 -2.276949384348652 a24.185999967,24.185999967 0 0,0 0.3000408695901321,-0.28863907882363454 l 2.1889500937018638 2.3149715499346004" fill="#ff2803" stroke="none" /><path d="M 88.09926311788651 82.69761687909137 l -7.189745338475103 -10.453111401448831 a33.687000276,33.687000276 0 0,0 0.48059367343881937,-0.3244989936298271 l 7.008746970629745 10.575322307377323" fill="#ffa90f" stroke="none" /><line stroke="#e1ed5e" stroke-width="0.3" x1="56.762969772571076" x2="54.21961505331055" y1="26.818313649435495" y2="22.513508569990535" /><path d="M 56.25429882871897 25.957352633546506 a86.0,86.0 0 0,1 42.265352541879196,-11.944610805530505" fill="none" id="id36" stroke="none" /><text fill="#e1ed5e" style="font-size:6.75px; font-family:Arial;" text-anchor="middle"><textPath startOffset="22.20632615414155" xlink:href="#id36">December</textPath></text><path d="M 90.91171255644093 81.06846463323043 l -0.7413445952321959 -1.5442723957359357 a22.713000012,22.713000012 0 0,0 0.35391373765136447,-0.16616724529243465 l 0.7146526462812229 1.556804623668378" fill="#ff1402" stroke="none" /><path d="M 91.90106846888425 80.62456947434976 l -1.5492099422182388 -3.706243161801473 a25.017000102,25.017000102 0 0,0 0.39874254612612053,-0.16265709639392595 l 1.4851835265037379 3.732361144378976" fill="#ff3405" stroke="none" /><path d="M 93.25333710446033 80.11325718540243 l -0.5455158710965013 -1.6079851621087269 a22.697999955,22.697999955 0 0,0 0.3710768231091676,-0.12233819436526319 l 0.5177562257449244 1.617137080733224" fill="#ff1302" stroke="none" /><path d="M 97.83486435360386 79.11191278185805 l -0.17073641035434273 -1.6471748718054522 a22.655999994,22.655999994 0 0,0 0.3882535770706836,-0.0368693553932868 l 0.14235770619342278 1.6498697717139197" fill="#ff1302" stroke="none" /></svg>