<?xml version="1.0" encoding="utf-8" ?>
<svg baseProfile="full" height="200mm" version="1.1" viewBox="0,0,200,200" width="200mm" xmlns="http://www.w3.org/2000/svg" xmlns:ev="http://www.w3.org/2001/xml-events" xmlns:xlink="http://www.w3.org/1999/xlink"><defs /><rect fill="#1a1a1a" height="200" width="200" x="0" y="0" /><text alignment-baseline="middle" fill="#e1ed5e" style="dominant-baseline: central; font-size:9.0px; font-family:Arial;" text-anchor="middle" x="100.0" y="100.0">2022</text><line stroke="#e1ed5e" stroke-width="0.3" x1="100.0" x2="100.0" y1="15.0" y2="10.0" /><path d="M 100.0 14.0 a86.0,86.0 0 0,1 42.46469731375804,11.215312516191453" fill="none" id="id85" stroke="none" /><text fill="#e1ed5e" style="font-size:6.75px; font-family:Arial;" text-anchor="middle"><textPath startOffset="22.20632615414155" xlink:href="#id85">January</textPath></text><line stroke="#e1ed5e" stroke-width="0.3" x1="143.23703022742887" x2="145.7803849466894" y1="26.81831364943548" y2="22.513508569990506" /><path d="M 143.74570117128098 25.957352633546492 a86.0,86.0 0 0,1 28.547481713284135,27.462654790039103" fill="none" id="id86" stroke="none" /><text fill="#e1ed5e" style="font-size:6.75px; font-family:Arial;" text-anchor="middle"><textPath startOffset="19.985693538727396" xlink:href="#id86">February</textPath></text><line stroke="#e1ed5e" stroke-width="0.3" x1="172.23445277983987" x2="176.4835382374775" y1="55.19839476539836" y2="52.563006222186495" /><path d="M 173.08426987136738 54.67131705675599 a86.0,86.0 0 0,1 12.851231095245387,41.99856678651699" fill="none" id="id87" stroke="none" /><text fill="#e1ed5e" style="font-size:6.75px; font-family:Arial;" text-anchor="middle"><textPath startOffset="22.20632615414155" xlink:href="#id87">March</textPath></text><path d="M 119.34039704204932 91.81776055985345 l 3.7316257856581716 -1.5787191758729697 a25.051837267272465,25.051837267272465 0 0,0 0.16460048793046422,0.39859313751720765 l -3.758247960474833 1.514251467902459" fill="#ff0000" stroke="none" /><line stroke="#e1ed5e" stroke-width="0.3" x1="184.98032266829074" x2="189.97916517819016" y1="98.17113171792111" y2="98.06355123074" /><path d="M 185.9800911702706 98.14961562048488 a86.0,86.0 0 0,1 -9.607161424134198,41.387399972396054" fill="none" id="id88" stroke="none" /><text fill="#e1ed5e" style="font-size:6.75px; font-family:Arial;" text-anchor="middle"><textPath startOffset="21.466115282336823" xlink:href="#id88">April</textPath></text><line stroke="#e1ed5e" stroke-width="0.3" x1="174.80103733775053" x2="179.2010983576182" y1="140.37084112569926" y2="142.7455964860345" /><path d="M 175.68104954172406 140.8457921977663 a86.0,86.0 0 0,1 -30.038265399797805,32.042727171017184" fill="none" id="id89" stroke="none" /><text fill="#e1ed5e" style="font-size:6.75px; font-family:Arial;" text-anchor="middle"><textPath startOffset="22.206326154141568" xlink:href="#id89">May</textPath></text><path d="M 116.93607887273984 112.41649034213513 l 5.425774004388792 3.9778434565829737 a27.72772339738943,27.72772339738943 0 0,0 -0.2855146564228768,0.3824935404167589 l -5.356498081270825 -4.070649876509048" fill="#ff2903" stroke="none" /><path d="M 116.71984013943494 112.70617746262582 l 5.633307564318018 4.281010166177118 a28.075394134400884,28.075394134400884 0 0,0 -0.2957183707831097,0.38225585747471363 l -5.55878237631684 -4.377344017765081" fill="#ff2e04" stroke="none" /><path d="M 112.04921762599082 117.19931262002967 l 4.399463661516094 6.2798891366735905 a28.66761293219158,28.66761293219158 0 0,0 -0.40659291172139334,0.27965831219408505 l -4.290713865171817 -6.35468823823277" fill="#ff3705" stroke="none" /><path d="M 111.1453310114006 117.79835938074945 l 5.02033250100807 8.017140269086502 a30.459295772671787,30.459295772671787 0 0,0 -0.44676650730461004,0.2744404786892919 l -4.8815867937711515 -8.102369214604172" fill="#ff5107" stroke="none" /><line stroke="#e1ed5e" stroke-width="0.3" x1="143.8653032363475" x2="146.44561519142675" y1="172.8068346515853" y2="177.08958963109032" /><path d="M 144.38136562736335 173.6633856474863 a86.0,86.0 0 0,1 -40.68145358897372,12.25698825130547" fill="none" id="id90" stroke="none" /><text fill="#e1ed5e" style="font-size:6.75px; font-family:Arial;" text-anchor="middle"><textPath startOffset="21.466115282336833" xlink:href="#id90">June</textPath></text><path d="M 108.92500713936063 119.00905698771935 l 4.399121130274266 9.36953247829609 a31.3508649677537,31.3508649677537 0 0,0 -0.4904648810610057,0.22514837111180208 l -4.237188253445841 -9.443867919741963" fill="#ff5e08" stroke="none" /><path d="M 105.18746579009965 120.34920634021253 l 2.156084517090007 8.457811675392113 a29.72830331629432,29.72830331629432 0 0,0 -0.49695348711155435,0.12213907631374878 l -2.010177745235242 -8.493672010019893" fill="#ff4606" stroke="none" /><line stroke="#e1ed5e" stroke-width="0.3" x1="102.19456741930631" x2="102.32365962044197" y1="184.97166512339345" y2="189.96999836594603" /><path d="M 102.22038585953345 185.97133177190398 a86.0,86.0 0 0,1 -42.740103519485714,-10.115201625700543" fill="none" id="id91" stroke="none" /><text fill="#e1ed5e" style="font-size:6.75px; font-family:Arial;" text-anchor="middle"><textPath startOffset="22.20632615414155" xlink:href="#id91">July</textPath></text><path d="M 97.2962882734958 120.8252237178851 l -1.7211737582019915 13.25726711932206 a34.368529110526,34.368529110526 0 0,0 -0.586018458925832,-0.0812168185947576 l 1.9491208083146538 -13.225675735234699" fill="#ff890c" stroke="none" /><path d="M 96.22490169976321 120.6578951692458 l -0.8239351588718277 4.508694816546225 a25.58336100419506,25.58336100419506 0 0,0 -0.43252008021870697,-0.08289350278037998 l 0.9014228536622297 -4.493844115417376" fill="#ff0801" stroke="none" /><path d="M 95.16358092515715 120.4354850818985 l -1.8034193199809903 7.620048643339814 a28.83054676063847,28.83054676063847 0 0,0 -0.4819461304466384,-0.11845063317268606 l 1.9343187351708393 -7.587876751853098" fill="#ff3905" stroke="none" /><path d="M 92.40401165467489 119.57807347666478 l -22.787965035975347 58.734220429994345 a84.0,84.0 0 0,0 -1.3435156958325676,-0.5346126223757337 l 23.795601807849774 -58.333260963212545" fill="#4dd2ff" stroke="none" /><line stroke="#e1ed5e" stroke-width="0.3" x1="58.666819895761336" x2="56.23545636021788" y1="174.27360380694188" y2="178.64263932499728" /><path d="M 58.180547188652646 175.14741091055294 a86.0,86.0 0 0,1 -31.652253787137756,-30.449443065178592" fill="none" id="id92" stroke="none" /><text fill="#e1ed5e" style="font-size:6.75px; font-family:Arial;" text-anchor="middle"><textPath startOffset="22.20632615414155" xlink:href="#id92">August</textPath></text><line stroke="#e1ed5e" stroke-width="0.3" x1="26.63291911575756" x2="22.317208475507996" y1="142.92168965132927" y2="145.44649492493687" /><path d="M 25.769776987707644 143.4266507060508 a86.0,86.0 0 0,1 -11.730757126820373,-40.83630448921669" fill="none" id="id93" stroke="none" /><text fill="#e1ed5e" style="font-size:6.75px; font-family:Arial;" text-anchor="middle"><textPath startOffset="21.46611528233685" xlink:href="#id93">September</textPath></text><path d="M 79.86692584326677 105.97154293290107 l -16.47664959656701 4.887034125554124 a38.18613058464244,38.18613058464244 0 0,0 -0.1814884286274312,-0.6317850290971109 l 16.558330662080547 -4.602691620952418" fill="#ffbe11" stroke="none" /><path d="M 79.50377843672027 104.57218783832718 l -17.126978349370475 3.820595024039837 a38.547943860108596,38.547943860108596 0 0,0 -0.1388936774938766,-0.6488650211652336 l 17.190206065588793 -3.525216183458439" fill="#ffc212" stroke="none" /><path d="M 79.35854240842038 103.8639653848113 l -17.968879087756925 3.3636736403380603 a39.28099877001071,39.28099877001071 0 0,0 -0.11869138668700628,-0.6656843292723099 l 18.024116916783118 -3.0538705603325367" fill="#ffcc13" stroke="none" /><path d="M 79.1416061653843 102.43462659150553 l -29.663825326435663 3.4624112728019236 a50.86521094550165,50.86521094550165 0 0,0 -0.0940224010746609,-0.8705306619961778 l 29.719030029011375 -2.951284288920964" fill="#a1ff22" stroke="none" /><line stroke="#e1ed5e" stroke-width="0.3" x1="15.007084014347285" x2="10.007500721073583" y1="101.09737516637583" y2="101.16192664675087" /><path d="M 14.007167355692545 101.11028546245083 a86.0,86.0 0 0,1 10.666146001902534,-42.60595125391555" fill="none" id="id94" stroke="none" /><text fill="#e1ed5e" style="font-size:6.75px; font-family:Arial;" text-anchor="middle"><textPath startOffset="22.20632615414155" xlink:href="#id94">October</textPath></text><path d="M 80.65960295795068 91.81776055985345 l -6.312992575868043 -2.670804364942162 a27.85471160726395,27.85471160726395 0 0,0 0.1906181348865116,-0.4399729365439556 l 6.266083731138851 2.7790764460727155" fill="#ff2b04" stroke="none" /><path d="M 80.95270993114464 91.15688171328213 l -12.849658573410327 -5.965733198677253 a35.16699326078111,35.16699326078111 0 0,0 0.25963591201459313,-0.546859446115543 l 12.745064467553982 6.186035060433327" fill="#ff940d" stroke="none" /><line stroke="#e1ed5e" stroke-width="0.3" x1="26.266209847984243" x2="21.928928074336255" y1="57.71137044288968" y2="55.22380399835378" /><path d="M 25.398753493254645 57.2138571539825 a86.0,86.0 0 0,1 29.58750427330803,-30.4925239686951" fill="none" id="id95" stroke="none" /><text fill="#e1ed5e" style="font-size:6.75px; font-family:Arial;" text-anchor="middle"><textPath startOffset="21.46611528233685" xlink:href="#id95">November</textPath></text><path d="M 85.05521093208273 85.24692304244772 l -10.27829487922586 -10.146444667537015 a35.44277276064783,35.44277276064783 0 0,0 0.43234140590871895,-0.43048479451409666 l 10.102117673149829 10.321865312701224" fill="#ff980e" stroke="none" /><line stroke="#e1ed5e" stroke-width="0.3" x1="56.76296977257108" x2="54.21961505331056" y1="26.818313649435495" y2="22.513508569990535" /><path d="M 56.25429882871898 25.957352633546506 a86.0,86.0 0 0,1 42.26535254187918,-11.944610805530505" fill="none" id="id96" stroke="none" /><text fill="#e1ed5e" style="font-size:6.75px; font-family:Arial;" text-anchor="middle"><textPath startOffset="22.20632615414155" xlink:href="#id96">December</textPath></text></svg>