<?xml version="1.0" encoding="utf-8" ?>
<svg baseProfile="full" height="200mm" version="1.1" viewBox="0,0,200,200" width="200mm" xmlns="http://www.w3.org/2000/svg" xmlns:ev="http://www.w3.org/2001/xml-events" xmlns:xlink="http://www.w3.org/1999/xlink"><defs /><rect fill="#1a1a1a" height="200" width="200" x="0" y="0" /><text alignment-baseline="middle" fill="#e1ed5e" style="dominant-baseline: central; font-size:9.0px; font-family:Arial;" text-anchor="middle" x="100.0" y="100.0">2018</text><line stroke="#e1ed5e" stroke-width="0.3" x1="100.0" x2="100.0" y1="15.0" y2="10.0" /><path d="M 100.0 14.0 a86.0,86.0 0 0,1 42.46469731375804,11.215312516191453" fill="none" id="id13" stroke="none" /><text fill="#e1ed5e" style="font-size:6.75px; font-family:Arial;" text-anchor="middle"><textPath startOffset="22.20632615414155" xlink:href="#id13">January</textPath></text><path d="M 100.0 79.0 l 0.0 -15.795763345048016 a36.795763345048016,36.795763345048016 0 0,0 0.6333785794841185,0.005451689398373821 l -0.2718981002115901 15.7934230322582" fill="#ffa60f" stroke="none" /><path d="M 100.72285384407766 79.0124445844662 l 0.6668050168062876 -19.360216945978337 a40.3716965990536,40.3716965990536 0 0,0 0.6943146827973644,0.029898650770986555 l -0.9999605319929835 19.345870568683157" fill="#ffd614" stroke="none" /><path d="M 101.80526077348638 79.07773832637324 l 1.3591534954269537 -15.752053943447528 a36.81058195201594,36.81058195201594 0 0,0 0.6308192143674232,0.05990388544235966 l -1.630097836884621 15.72632451348999" fill="#ffa60f" stroke="none" /><path d="M 102.88285421437855 79.19881850522331 l 3.0814558018566425 -22.234187591886197 a43.446702825359054,43.446702825359054 0 0,0 0.7398994584974458,0.10904194685312556 l -3.4637242407827435 22.177851160872105" fill="#ffff18" stroke="none" /><path d="M 103.95276090670814 79.375362276772 l 2.9389477937263013 -15.334783702757614 a36.613872208539725,36.613872208539725 0 0,0 0.6179612471516461,0.12395721270103913 l -3.202475450345073 15.281922533979365" fill="#ffa30f" stroke="none" /><path d="M 105.01212808612495 79.60689891045804 l 5.340980943091559 -21.731121475387603 a43.37783988709633,43.37783988709633 0 0,0 0.7235653209759058,0.18445291117067988 l -5.714255152752489 21.635965568048054" fill="#fffe18" stroke="none" /><path d="M 105.36241919743992 79.69619591428918 l 5.0930888478438465 -19.284034751909864 a40.945263856988674,40.945263856988674 0 0,0 0.6798904730106692,0.185839749285225 l -5.424277210078227 19.193508461798345" fill="#ffde14" stroke="none" /><path d="M 106.0581310904928 79.89281104454417 l 4.4807739377007305 -14.871874986894968 a36.53222458975566,36.53222458975566 0 0,0 0.6005456331333731,0.18659245152088844 l -4.736104943544822 14.792542400491559" fill="#ffa20f" stroke="none" /><path d="M 106.74666289553966 80.11325718540242 l 9.195285006020608 -27.104402702935143 a49.621703517170765,49.621703517170765 0 0,0 0.8065133523546253,0.28137667233173175 l -9.660480362438507 26.942105177431205" fill="#b3ff20" stroke="none" /><path d="M 107.08798089147638 80.2323363322302 l 5.29043818234349 -14.754498388879009 a36.6743088800952,36.6743088800952 0 0,0 0.5924082743906686,0.21818896699717052 l -5.543628782506735 14.661246154075513" fill="#ffa40f" stroke="none" /><path d="M 107.4271985657038 80.35727306442388 l 6.797971778507794 -17.97860959010565 a40.22089548108587,40.22089548108587 0 0,0 0.6454818521864168,0.25043693048608157 l -7.106436795693877 17.858929955729018" fill="#ffd413" stroke="none" /><path d="M 107.76421540070413 80.48803036053334 l 7.217624261998894 -18.13835116635591 a40.52162603425852,40.52162603425852 0 0,0 0.6458686601987366,0.26346604329133616 l -7.528776791786019 18.011424236880995" fill="#ffd814" stroke="none" /><path d="M 108.76106565485865 80.91482961587045 l 3.6463023341471112 -7.943132041323537 a29.740072501867893,29.740072501867893 0 0,0 0.46340951048289775,0.2175769788148593 l -3.782490055929607 7.879190079868675" fill="#ff4006" stroke="none" /><path d="M 109.73455568895987 81.39251694778311 l 9.012754156774905 -17.227768332167773 a40.44288402468384,40.44288402468384 0 0,0 0.614067328759594,0.32801350052504835 l -9.30796653206281 17.07007610514097" fill="#ffd714" stroke="none" /><line stroke="#e1ed5e" stroke-width="0.3" x1="143.23703022742887" x2="145.7803849466894" y1="26.81831364943548" y2="22.513508569990506" /><path d="M 143.74570117128098 25.957352633546492 a86.0,86.0 0 0,1 28.547481713284135,27.462654790039103" fill="none" id="id14" stroke="none" /><text fill="#e1ed5e" style="font-size:6.75px; font-family:Arial;" text-anchor="middle"><textPath startOffset="19.985693538727396" xlink:href="#id14">February</textPath></text><path d="M 110.68208982089419 81.91981866633111 l 9.96466911648292 -16.86589680266702 a40.58961728975842,40.58961728975842 0 0,0 0.5984802490770311,0.3605776536276987 l -10.25351143177759 16.691872539580704" fill="#ffd914" stroke="none" /><path d="M 111.60114157652 82.49532879139004 l 25.88932289057973 -39.063749202953815 a67.86398981653153,67.86398981653153 0 0,0 0.9681777508511951,0.6537179392270804 l -26.557905335837468 38.61231935142807" fill="#38ff7f" stroke="none" /><path d="M 111.90073688211348 82.69761687909136 l 10.978139146406555 -15.961025888342972 a40.371987159974545,40.371987159974545 0 0,0 0.5691851538665305,0.39875057451040447 l -11.251255439856736 15.769690471068632" fill="#ffd614" stroke="none" /><path d="M 112.48926042617603 83.11751280151076 l 11.42564975120144 -15.444740447144348 a40.211597531615794,40.211597531615794 0 0,0 0.5529168309892368,0.41644549393305014 l -11.68981273594906 15.24577836370545" fill="#ffd413" stroke="none" /><path d="M 112.77801427241765 83.33499621200491 l 13.670852251161168 -17.82943732051544 a43.467332650745774,43.467332650745774 0 0,0 0.5898464152151471,0.4603844830642295 l -13.975731221535746 17.591474448227984" fill="#ffff18" stroke="none" /><path d="M 113.34407831869373 83.78471172551755 l 11.109110445768641 -13.499428289389469 a38.48276005202424,38.48276005202424 0 0,0 0.5078669954966325,0.4253240032555328 l -11.33983497822439 13.306203128740115" fill="#ffbd11" stroke="none" /><path d="M 114.42810811169701 84.74124197986012 l 15.783999722714054 -16.692710540725287 a43.97348977502283,43.97348977502283 0 0,0 0.5455157582491161,0.5247857272240809 l -16.068998724575586 16.418541726738905" fill="#f9ff18" stroke="none" /><path d="M 114.68862486808459 84.99185889309783 l 8.901704198219344 -9.09533968622624 a33.72656833716135,33.72656833716135 0 0,0 0.41140663767576446,0.4096399268289858 l -9.05694663606243 8.940763908747135" fill="#ff7b0b" stroke="none" /><path d="M 114.94478906791727 85.2469230424477 l 10.989095251755751 -10.848126875946527 a36.441569582422446,36.441569582422446 0 0,0 0.4368402547926428,0.4502022819062977 l -11.174199770251503 10.657360398490114" fill="#ffa10e" stroke="none" /><path d="M 115.19652480421416 85.50635884689758 l 10.971927073823272 -10.464443404975372 a36.1620499764784,36.1620499764784 0 0,0 0.4257352599391768,0.4541446917705511 l -11.15042965573291 10.274029296326766" fill="#ff9d0e" stroke="none" /><path d="M 115.68641384162765 86.03803664274999 l 14.39610570469769 -12.81350233172422 a40.27261532501314,40.27261532501314 0 0,0 0.45643857725488424,0.5217881971885163 l -14.614536145530423 12.563798578332754" fill="#ffd513" stroke="none" /><path d="M 116.15771136456269 86.58626213691792 l 17.143619258379577 -14.232214548697808 a43.281373661344325,43.281373661344325 0 0,0 0.47094567364864665,0.577323710649978 l -17.38606342410463 13.93500666843973" fill="#fffc17" stroke="none" /><path d="M 116.38621287248628 86.86637796730983 l 17.396946151197074 -13.943729222298227 a43.29532058554943,43.29532058554943 0 0,0 0.4610867513492513,0.5855333501208396 l -17.634386983140292 13.64220347822435" fill="#fffd17" stroke="none" /><path d="M 117.04232023915458 87.72973835380427 l 9.61292123294151 -6.921185440552087 a32.84529706395107,32.84529706395107 0 0,0 0.32639995219234125,0.4616695848575389 l -9.730633804937733 6.754689355362754" fill="#ff6e0a" stroke="none" /><path d="M 117.2510076193507 88.02491185347247 l 15.981659603194036 -11.093948057930897 a40.45479702244238,40.45479702244238 0 0,0 0.39217175810031624,0.5754636635589744 l -16.170255826963086 10.817206371101515" fill="#ffd714" stroke="none" /><path d="M 117.45458315368197 88.32363383020206 l 15.803891676035555 -10.572124495467346 a40.014016105376754,40.014016105376754 0 0,0 0.3780435918166157,0.5757863264167277 l -15.983531903210096 10.298520105072944" fill="#ffd113" stroke="none" /><line stroke="#e1ed5e" stroke-width="0.3" x1="172.23445277983987" x2="176.4835382374775" y1="55.19839476539836" y2="52.563006222186495" /><path d="M 173.08426987136738 54.67131705675599 a86.0,86.0 0 0,1 12.851231095245387,41.99856678651699" fill="none" id="id15" stroke="none" /><text fill="#e1ed5e" style="font-size:6.75px; font-family:Arial;" text-anchor="middle"><textPath startOffset="22.20632615414155" xlink:href="#id15">March</textPath></text><path d="M 118.03404312379186 89.2402003453031 l 19.073806492317757 -11.380162235446848 a43.210767357555966,43.210767357555966 0 0,0 0.37560512094453435,0.6420309058830348 l -19.266871287732616 11.050151917209918" fill="#fffb17" stroke="none" /><path d="M 118.21658344932153 89.55222093294921 l 13.27466032771698 -7.613431941284059 a36.30297202313418,36.30297202313418 0 0,0 0.3062282901082288,0.5447459582316865 l -13.403746259117641 7.383802473117578" fill="#ff9f0e" stroke="none" /><path d="M 118.3937258080291 89.86733742301442 l 55.1811774240873 -30.397987730956764 a84.0,84.0 0 0,0 0.6867676031261407,1.272476066670165 l -55.696253126431905 29.44363068095414" fill="#4dd2ff" stroke="none" /><path d="M 118.56541770881063 90.18545643968196 l 19.431088042245783 -10.272177174041817 a42.97919030356698,42.97919030356698 0 0,0 0.34013028566042985,0.6570234506004139 l -19.605027761066328 9.936181001181058" fill="#fff817" stroke="none" /><path d="M 118.89224826269711 90.83032412892265 l 20.012859662400775 -9.71358378345674 a43.24563466806874,43.24563466806874 0 0,0 0.31928006225699723,0.6724852376807728 l -20.177097918499527 9.367656130135426" fill="#fffc17" stroke="none" /><path d="M 119.04729006885535 91.15688171328212 l 17.53218269129427 -8.139696765419195 a40.32956526551733,40.32956526551733 0 0,0 0.28691160040684616,0.6321716799226627 l -17.669696608664463 7.836703076654469" fill="#ffd614" stroke="none" /><path d="M 119.34039704204932 91.81776055985345 l 10.87278512626264 -4.59989167186809 a32.805780778703266,32.805780778703266 0 0,0 0.21554696629650885,0.5219640759190001 l -10.950353779445347 4.412053025495786" fill="#ff6d0a" stroke="none" /><path d="M 119.47837535516314 92.15188598940014 l 43.150285322030854 -17.38586266166423 a67.52112792982261,67.52112792982261 0 0,0 0.42508231578978173,1.0817881277403745 l -43.44316118770234 16.64052552902807" fill="#37ff7b" stroke="none" /><path d="M 119.85752413597 93.16781622104841 l 14.404219502896796 -4.95591868161878 a36.232946841187704,36.232946841187704 0 0,0 0.19783655902067512,0.5915061303592917 l -14.48739335568924 4.707239448337174" fill="#ff9e0e" stroke="none" /><path d="M 120.18372546131832 94.20196356495316 l 12.001488802337697 -3.4475830284215374 a33.48685557738606,33.48685557738606 0 0,0 0.15437955390593047,0.5553853943640757 l -12.059055126809989 3.2404863306385097" fill="#ff770b" stroke="none" /><path d="M 120.37134235888165 94.90015583598534 l 20.270153661606855 -5.074512176648772 a41.895688629382626,41.895688629382626 0 0,0 0.16911334315511395,0.701083986388769 l -20.354499805022787 4.724842958600597" fill="#ffea16" stroke="none" /><path d="M 120.45610955862082 95.25157060432595 l 22.386694876983626 -5.1965717000697245 a43.98191604173008,43.98191604173008 0 0,0 0.1648392220423468,0.7389419106925245 l -22.472828486028007 4.810451619827236" fill="#f9ff18" stroke="none" /><path d="M 120.53481517161879 95.60439243477599 l 18.98235882358596 -4.063294427216104 a40.41237512798517,40.41237512798517 0 0,0 0.13975119693055002,0.6814764678607527 l -19.049489316431508 3.7359423031919397" fill="#ffd714" stroke="none" /><path d="M 120.6074358757038 95.95851677861258 l 22.649532006287284 -4.441974446884522 a44.080997315770546,44.080997315770546 0 0,0 0.1396197917042816,0.7458545101717714 l -22.722637521901426 4.051441859250188" fill="#f7ff18" stroke="none" /><path d="M 120.73433829027371 96.67025291283417 l 12.519094754835274 -2.010453321937938 a33.67949746796912,33.67949746796912 0 0,0 0.08699591664587365,0.5731943947257517 l -12.551846564920448 1.7946598148201043" fill="#ff7a0b" stroke="none" /><path d="M 120.78858239683441 97.02765380044208 l 15.1779604825547 -2.1701409117839323 a36.3323186761491,36.3323186761491 0 0,0 0.08319063073594996,0.6198668272345552 l -15.213067112348487 1.9085557424847128" fill="#ff9f0e" stroke="none" /><path d="M 120.98425023603335 99.18683210126433 l 12.450488676724436 -0.48247316923904743 a33.45983341173866,33.45983341173866 0 0,0 0.017348613792867933,0.5757160320879818 l -12.45694898497295 0.2680869897260665" fill="#ff770a" stroke="none" /><line stroke="#e1ed5e" stroke-width="0.3" x1="184.98032266829074" x2="189.97916517819016" y1="98.17113171792111" y2="98.06355123074" /><path d="M 185.9800911702706 98.14961562048488 a86.0,86.0 0 0,1 -9.607161424134198,41.387399972396054" fill="none" id="id16" stroke="none" /><text fill="#e1ed5e" style="font-size:6.75px; font-family:Arial;" text-anchor="middle"><textPath startOffset="21.466115282336823" xlink:href="#id16">April</textPath></text><path d="M 120.99513854157772 99.54816195383933 l 15.320054465032035 -0.3297041104466513 a36.32360184852091,36.32360184852091 0 0,0 0.00807247577552292,0.6252221449946791 l -15.323459947925274 0.0659457073915095" fill="#ff9f0e" stroke="none" /><path d="M 120.99980553446 99.90962569577887 l 19.260233409839632 -0.08288791963785107 a40.260411766333675,40.260411766333675 0 0,0 -0.0029825348433623845,0.6930360598641178 l -19.258806577706768 -0.24865761842995135" fill="#ffd513" stroke="none" /><path d="M 120.9904718944345 100.63252640178507 l 19.023976540680508 0.5732680756029479 a40.0326120043169,40.0326120043169 0 0,0 -0.026684342116940773,0.6886043008294997 l -19.011290065712366 -0.9006496234464539" fill="#ffd213" stroke="none" /><path d="M 120.95626037817324 101.35467743843564 l 18.954406023205916 1.2252713859830346 a39.99396740183192,39.99396740183192 0 0,0 -0.050322773877271285,0.686614267925375 l -18.930506690664306 -1.5513587904051798" fill="#ffd113" stroke="none" /><path d="M 120.92983693683757 101.71520430193887 l 15.15106592548364 1.2416328676030073 a36.201856822647144,36.201856822647144 0 0,0 -0.05624286639801799,0.620635344059661 l -15.127448462808548 -1.5022496002112389" fill="#ff9d0e" stroke="none" /><path d="M 120.8583938346157 102.4346265915055 l 18.837605257395964 2.1987567711866998 a39.96549243157982,39.96549243157982 0 0,0 -0.08563746864893361,0.6826148845890081 l -18.796966279500182 -2.5226894100631028" fill="#ffd113" stroke="none" /><path d="M 120.64145759157962 103.86396538481128 l 20.007139893501503 3.745224660350675 a41.3546641945928,41.3546641945928 0 0,0 -0.13700222665651068,0.6985714021307884 l -19.93970773386933 -4.089059789549409" fill="#ffe315" stroke="none" /><path d="M 120.41448212921028 104.9243191809786 l 18.546859528574668 4.473816947469587 a40.07881119074632,40.07881119074632 0 0,0 -0.16754600757390603,0.6692630149829923 l -18.4671022067057 -4.792407801849975" fill="#ffd213" stroke="none" /><path d="M 120.32669344350535 105.2749913415812 l 22.121035864978687 5.740642125532393 a43.85377867559565,43.85377867559565 0 0,0 -0.1959051112971227,0.7290357976268209 l -22.018942677339787 -6.120568856334763" fill="#faff18" stroke="none" /><path d="M 120.23288151984713 105.62410040840565 l 11.900542289187 3.307973937533892 a33.35174474914907,33.35174474914907 0 0,0 -0.15851189041240232,0.5518006853319598 l -11.841837761888497 -3.5123320983704334" fill="#ff750a" stroke="none" /><path d="M 120.13307415673323 105.97154293290107 l 19.546971436173035 5.797702736830235 a41.388659822342746,41.388659822342746 0 0,0 -0.20846724433594976,0.6812830163239169 l -19.44427741933095 -6.133312725706209" fill="#ffe415" stroke="none" /><path d="M 120.02730092923936 106.31721596034902 l 21.81128636497618 6.87993888080073 a43.870631209010156,43.870631209010156 0 0,0 -0.23336616470737656,0.7182272032536267 l -21.689627949252554 -7.2543649840321525" fill="#faff18" stroke="none" /><path d="M 119.9155931802556 106.66101706037122 l 14.546093101244336 4.865121185805079 a36.3381298945679,36.3381298945679 0 0,0 -0.20350939342747978,0.5914935579357158 l -14.460192876873625 -5.114787446830095" fill="#ff9f0e" stroke="none" /><path d="M 119.67450827220406 107.3425965602758 l 18.140814556544242 6.770216603159902 a40.36297977142541,40.36297977142541 0 0,0 -0.24853162748080362,0.6488376544392265 l -18.021588649469933 -7.081477824432272" fill="#ffd614" stroke="none" /><path d="M 119.26925614724726 108.34839909993367 l 17.289914231244786 7.490849844075306 a39.84287572294325,39.84287572294325 0 0,0 -0.27806326891148875,0.6269592648362716 l -17.158409877602026 -7.7873574454042656" fill="#ffcf13" stroke="none" /><path d="M 119.12269723197855 108.67885076344098 l 13.88256912672167 6.300614615310968 a36.24544096078811,36.24544096078811 0 0,0 -0.26273695895548765,0.5659120354129678 l -13.77205755092635 -6.5386467180027665" fill="#ff9e0e" stroke="none" /><path d="M 118.97047184881838 109.00673069616215 l 14.079683986529963 6.684700463137976 a36.58597836012951,36.58597836012951 0 0,0 -0.2749989303671895,0.5665792485490265 l -13.96253179954806 -6.926068667652278" fill="#ffa30f" stroke="none" /><path d="M 118.64920377521936 109.65438752849418 l 12.968568676685248 6.713615723421826 a35.60330132551125,35.60330132551125 0 0,0 -0.28643278370754593,0.5418228817617774 l -12.851083384752808 -6.9358536202697385" fill="#ff950d" stroke="none" /><line stroke="#e1ed5e" stroke-width="0.3" x1="174.80103733775053" x2="179.2010983576182" y1="140.37084112569926" y2="142.7455964860345" /><path d="M 175.68104954172406 140.8457921977663 a86.0,86.0 0 0,1 -30.038265399797805,32.042727171017184" fill="none" id="id17" stroke="none" /><text fill="#e1ed5e" style="font-size:6.75px; font-family:Arial;" text-anchor="middle"><textPath startOffset="22.206326154141568" xlink:href="#id17">May</textPath></text><path d="M 118.30583269289576 110.29060199501025 l 13.243196283321083 7.44464698108733 a36.19226831225614,36.19226831225614 0 0,0 -0.3099574862227026,0.5404370036235475 l -13.113086800946 -7.671503830569193" fill="#ff9d0e" stroke="none" /><path d="M 118.12598468904814 110.60418214915192 l 15.397581841106213 9.007994064908303 a38.83898774109638,38.83898774109638 0 0,0 -0.34255825229396003,0.5741473347585349 l -15.240242713114027 -9.271703493552941" fill="#ffc212" stroke="none" /><path d="M 117.94076556474637 110.91462005526583 l 15.404572718425236 9.371676906904716 a39.031339070758506,39.031339070758506 0 0,0 -0.35413572638518526,0.5709795502029976 l -15.240972352372088 -9.635452788472987" fill="#ffc412" stroke="none" /><path d="M 117.75023020441432 111.22182372390056 l 11.177089639467802 7.0662367888135975 a34.22342751196834,34.22342751196834 0 0,0 -0.3190847935910217,0.49522668559719374 l -11.05379998249973 -7.257585074332244" fill="#ff820b" stroke="none" /><path d="M 117.55443506779139 111.5257021239791 l 14.84308439311231 9.745512667051592 a38.756468439549494,38.756468439549494 0 0,0 -0.3709490381712784,0.5545184810396332 l -14.673132249530312 -9.999568062297032" fill="#ffc111" stroke="none" /><path d="M 116.93607887273984 112.41649034213515 l 7.243657056675066 5.310603390653365 a29.981819188089766,29.981819188089766 0 0,0 -0.30872526682901497,0.4135879460795282 l -7.1511705231509595 -5.434504216242209" fill="#ff4406" stroke="none" /><path d="M 116.27256486870786 113.27417163493432 l 7.18231755972799 5.85889912215188 a30.26889337797825,30.26889337797825 0 0,0 -0.33281945522719114,0.40090247393848516 l -7.080402104607255 -5.981662853204136" fill="#ff4806" stroke="none" /><path d="M 116.0416608686014 113.55231037782055 l 11.688434333251491 9.874619044281598 a36.30122865760855,36.30122865760855 0 0,0 -0.4073645926166361,0.4738570525535393 l -11.516727231064078 -10.074353195996665" fill="#ff9f0e" stroke="none" /><path d="M 115.80600337817218 113.82643327865902 l 16.744426054317636 14.647326341153502 a43.2467969117525,43.2467969117525 0 0,0 -0.49495166279977554,0.5560834401021 l -16.489815541869522 -14.933383950996468" fill="#fffc17" stroke="none" /><path d="M 115.56566222782051 114.09645910891815 l 16.42994264014367 14.879162299610364 a43.16602097573124,43.16602097573124 0 0,0 -0.5035081852636847,0.5464586910294006 l -16.171388046884264 -15.159772245441099" fill="#fffb17" stroke="none" /><path d="M 115.32070863581623 114.36230785411682 l 16.46858528942535 15.438378045749257 a43.57338738688878,43.57338738688878 0 0,0 -0.517679747012153,0.5427851450858882 l -16.20039899103423 -15.719570307417651" fill="#feff18" stroke="none" /><path d="M 115.07121518719521 114.62390073753431 l 10.98279826049751 10.656828237602145 a36.303262584055126,36.303262584055126 0 0,0 -0.43902637496625724,0.44473139996496386 l -10.797731260475716 -10.844300131547774" fill="#ff9f0e" stroke="none" /><path d="M 114.81725581225074 114.88116024355365 l 15.630345395660902 15.697756551021532 a43.15236461244707,43.15236461244707 0 0,0 -0.5308769263201331,0.5195748071859471 l -15.357818516964974 -15.96448146113005" fill="#fffb17" stroke="none" /><path d="M 114.55890576462653 115.13401014063108 l 7.882565534986314 8.193941816047747 a32.369939397293635,32.369939397293635 0 0,0 -0.40487729155286933,0.3828367503295877 l -7.740352409042638 -8.328413203123256" fill="#ff6709" stroke="none" /><path d="M 113.75828350139079 115.86535959552629 l 2.947387766721554 3.398779126899486 a25.498754738910257,25.498754738910257 0 0,0 -0.33407560633184913,0.28470647933150034 l -2.8884466838126572 -3.449009996453933" fill="#ff0000" stroke="none" /><path d="M 113.48314897796784 116.09983520530334 l 14.210157744151262 16.96793518309711 a43.132315908902235,43.132315908902235 0 0,0 -0.5733103712010312,0.4717954047270963 l -13.91597724440554 -17.21002570668139" fill="#fffa17" stroke="none" /><path d="M 112.92097659922987 116.55440617244103 l 13.64878045311184 17.486871340108625 a43.18287350914575,43.18287350914575 0 0,0 -0.5899012300415841,0.4523111085170031 l -13.345750494576762 -17.719221790453" fill="#fffb17" stroke="none" /><path d="M 112.04921762599082 117.19931262002967 l 7.477036850154444 10.672883356334376 a34.03136674322716,34.03136674322716 0 0,0 -0.4826670614925705,0.3319828060878335 l -7.2922129040389905 -10.800006951787303" fill="#ff7f0b" stroke="none" /><path d="M 111.1453310114006 117.79835938074945 l 11.881218323385598 18.973522938390325 a43.38655671472452,43.38655671472452 0 0,0 -0.6363791386405576,0.39091604357288345 l -11.55285998481273 -19.17522744879159" fill="#fffe18" stroke="none" /><line stroke="#e1ed5e" stroke-width="0.3" x1="143.8653032363475" x2="146.44561519142675" y1="172.8068346515853" y2="177.08958963109032" /><path d="M 144.38136562736335 173.6633856474863 a86.0,86.0 0 0,1 -40.68145358897372,12.25698825130547" fill="none" id="id18" stroke="none" /><text fill="#e1ed5e" style="font-size:6.75px; font-family:Arial;" text-anchor="middle"><textPath startOffset="21.466115282336833" xlink:href="#id18">June</textPath></text><path d="M 109.89434966115114 118.52300852407294 l 10.664278300693907 19.96437609663548 a43.63411461936519,43.63411461936519 0 0,0 -0.6655430415611575,0.34818066383808827 l -10.319044356606254 -20.144986179418286" fill="#fdff18" stroke="none" /><path d="M 109.57404056367764 118.69057910512821 l 10.044701743669698 19.609410601385786 a43.03236295209895,43.03236295209895 0 0,0 -0.662178091959425,0.33202984190015006 l -9.705669744027514 -19.779408284195238" fill="#fff917" stroke="none" /><path d="M 109.2508944713604 118.85261126421891 l 9.907649867942157 20.191028238465627 a43.490868085341894,43.490868085341894 0 0,0 -0.6749106174612332,0.32399811063207173 l -9.558626582480692 -20.35858062559726" fill="#ffff18" stroke="none" /><path d="M 107.59598834532513 119.57807347666477 l 4.485872852687925 11.561990925242908 a33.40172122755071,33.40172122755071 0 0,0 -0.5378150773761221,0.20335564325680244 l -4.286187554551528 -11.637494818606342" fill="#ff760a" stroke="none" /><path d="M 106.91757812671514 119.82793768551818 l 6.240024157666566 17.885856565394995 a39.94311924066746,39.94311924066746 0 0,0 -0.6511304131894228,0.22089878869443955 l -5.931224011539916 -17.99061834098756" fill="#ffd113" stroke="none" /><path d="M 106.57524785965236 119.94407469862006 l 4.730786848685875 14.349446333788679 a36.10916788886736,36.10916788886736 0 0,0 -0.5919817024126031,0.1895338469465039 l -4.483083801182331 -14.428753027394889" fill="#ff9c0e" stroke="none" /><path d="M 106.2309692047433 120.05430185196036 l 4.488429016483741 14.44595654061986 a36.12718266596563,36.12718266596563 0 0,0 -0.59545342969806,0.17940523378905973 l -4.239100612345435 -14.521077143514646" fill="#ff9c0e" stroke="none" /><path d="M 105.88484417918355 120.15858648285463 l 3.3318734788747117 11.413362466148428 a32.88975288485486,32.88975288485486 0 0,0 -0.5448247579706016,0.15397291870990504 l -3.1349175527995046 -11.469024178196852" fill="#ff6f0a" stroke="none" /><path d="M 105.18746579009965 120.34920634021253 l 2.343884147016829 9.194505385698594 a30.488557434208705,30.488557434208705 0 0,0 -0.5096622828665198,0.12526258910685498 l -2.185268579407098 -9.23348923311948" fill="#ff4b07" stroke="none" /><path d="M 104.83641907484287 120.43548508189849 l 5.166591636417909 21.830574372571313 a43.43362758391676,43.43362758391676 0 0,0 -0.7290227886716688,0.16592321320724712 l -4.790048698353378 -21.916274319356244" fill="#fffe18" stroke="none" /><path d="M 104.48393922423573 120.51570834832081 l 4.037183179825271 18.471631421400236 a39.907670808312815,39.907670808312815 0 0,0 -0.6723654612593633,0.14090071969382834 l -3.7186262571365294 -18.538388121820606" fill="#ffd013" stroke="none" /><path d="M 104.13013068566511 120.58985236759428 l 3.970237699826617 19.792741277513073 a41.18701054321056,41.18701054321056 0 0,0 -0.6963201238960194,0.13345140900053468 l -3.6289499613588934 -19.858149884862076" fill="#ffe115" stroke="none" /><path d="M 103.7750983002368 120.6578951692458 l 4.104741676455014 22.461752385023402 a43.833729972050804,43.833729972050804 0 0,0 -0.7434013339886821,0.12924985088551247 l -3.7174913709942823 -22.52908081442992" fill="#fbff18" stroke="none" /><path d="M 103.06178313531738 120.77559828337769 l 1.4093505457804816 9.563087745128389 a30.666380717823838,30.666380717823838 0 0,0 -0.5228930546110571,0.07246821275672773 l -1.2445288999825939 -9.58593052337772" fill="#ff4e07" stroke="none" /><path d="M 102.70371172650421 120.8252237178851 l 2.432121014292063 18.733307894880333 a39.89052771397736,39.89052771397736 0 0,0 -0.6816960226931137,0.08254389479417248 l -2.109297568547569 -18.772397318399857" fill="#ffd013" stroke="none" /><path d="M 102.34483914955558 120.86867818915974 l 1.8241819467984683 16.234915735446986 a37.33707834075878,37.33707834075878 0 0,0 -0.6392950623485633,0.06626554713223351 l -1.5444542878443024 -16.26391065103498" fill="#ffad10" stroke="none" /><path d="M 101.62511606390274 120.93702456842531 l 1.1843555541119177 15.258529458285116 a36.304424827738885,36.304424827738885 0 0,0 -0.6234632162564099,0.04299767365952119 l -0.9215295770765773 -15.276655476460922" fill="#ff9f0e" stroke="none" /><path d="M 101.26447882468166 120.96189622390904 l 0.9286153053328806 15.394119128267699 a36.422102000719484,36.422102000719484 0 0,0 -0.62613397122481,0.0323639743552485 l -0.663493265694591 -15.40782290938515" fill="#ffa10e" stroke="none" /><path d="M 100.90346689309514 120.98055641714683 l 0.6565054416743323 15.245549740096264 a36.25967844591416,36.25967844591416 0 0,0 -0.6238039941585742,0.021485070852739638 l -0.3939810958411058 -15.254591609375096" fill="#ff9e0e" stroke="none" /><line stroke="#e1ed5e" stroke-width="0.3" x1="102.19456741930631" x2="102.32365962044197" y1="184.97166512339345" y2="189.96999836594603" /><path d="M 102.22038585953345 185.97133177190398 a86.0,86.0 0 0,1 -42.740103519485714,-10.115201625700543" fill="none" id="id19" stroke="none" /><text fill="#e1ed5e" style="font-size:6.75px; font-family:Arial;" text-anchor="middle"><textPath startOffset="22.20632615414155" xlink:href="#id19">July</textPath></text><path d="M 100.54218724476979 120.99299961872073 l 0.3182126151679048 12.32090458293295 a33.32501314442261,33.32501314442261 0 0,0 -0.5735715754881441,0.009874554831593938 l -0.10608134978709273 -12.324556615043704" fill="#ff750a" stroke="none" /><path d="M 100.18074693466247 120.99922214144158 l 0.162765773245866 18.91016650321808 a39.910866978443146,39.910866978443146 0 0,0 -0.6870254158166299,0.0 l 0.16276577324585295 -18.91016650321808" fill="#ffd013" stroke="none" /><path d="M 99.45781275523022 120.99299961872073 l -0.3970718497061802 15.374262802928973 a36.37938954534134,36.37938954534134 0 0,0 -0.6258634791062898,-0.02155600367849232 l 0.6616556804871131 -15.365150000824386" fill="#ffa00e" stroke="none" /><path d="M 98.37488393609728 120.93702456842531 l -0.7019968939735294 9.044108628638769 a30.071311951739215,30.071311951739215 0 0,0 -0.5157311367802652,-0.04449945256485056 l 0.8575723484953363 -9.030684923795256" fill="#ff4506" stroke="none" /><path d="M 98.01472825383883 120.90594882070398 l -1.4348267656519504 15.109475560360194 a36.17744970528821,36.17744970528821 0 0,0 -0.6194396024743917,-0.06420744753219258 l 1.6946989647319355 -15.08253874437224" fill="#ff9d0e" stroke="none" /><path d="M 95.86986931433489 120.58985236759428 l -3.0544817677101768 15.227442771955081 a36.530771785150954,36.530771785150954 0 0,0 -0.6154713799124215,-0.12897801177678847 l 3.316144609051985 -15.172608779451751" fill="#ffa20f" stroke="none" /><path d="M 95.16358092515715 120.4354850818985 l -5.277541394644773 22.29937413826559 a43.91537759083488,43.91537759083488 0 0,0 -0.7341118596440097,-0.18042683424768954 l 5.660606539031993 -22.20522604570387" fill="#f9ff18" stroke="none" /><path d="M 93.76903079525671 120.05430185196036 l -1.767369575466108 5.688258405030681 a26.95649887926502,26.95649887926502 0 0,0 -0.44193081786718735,-0.14149229216581874 l 1.8650217384242358 -5.656993266205156" fill="#ff1602" stroke="none" /><path d="M 92.06813273071674 119.44442032107085 l -7.39070395322443 18.117796132521715 a40.56724409884606,40.56724409884606 0 0,0 -0.6443016055475387,-0.26931812337327954 l 7.701477018269432 -17.98789296612846" fill="#ffd914" stroke="none" /><path d="M 91.7346041902142 119.30500536409082 l -7.61707789676485 17.790766835587746 a40.35281013919251,40.35281013919251 0 0,0 -0.6361895788832397,-0.2788868154940887 l 7.922188150305834 -17.65701546679921" fill="#ffd614" stroke="none" /><path d="M 91.07499286063937 119.00905698771935 l -6.5101897138660245 13.86582277631757 a36.31808119102305,36.31808119102305 0 0,0 -0.5636001229853853,-0.2705623089560589 l 6.747902504851652 -13.751706190861949" fill="#ff9f0e" stroke="none" /><path d="M 90.42595943632237 118.69057910512821 l -6.918971036353964 13.507314348727784 a36.17628746160445,36.17628746160445 0 0,0 -0.5517901898461226,-0.28867054811257215 l 7.150452128726583 -13.386214381670495" fill="#ff9d0e" stroke="none" /><line stroke="#e1ed5e" stroke-width="0.3" x1="58.666819895761336" x2="56.23545636021788" y1="174.27360380694188" y2="178.64263932499728" /><path d="M 58.180547188652646 175.14741091055294 a86.0,86.0 0 0,1 -31.652253787137756,-30.449443065178592" fill="none" id="id20" stroke="none" /><text fill="#e1ed5e" style="font-size:6.75px; font-family:Arial;" text-anchor="middle"><textPath startOffset="22.20632615414155" xlink:href="#id20">August</textPath></text><path d="M 88.8546689885994 117.79835938074946 l -8.135009088253254 12.991073586804053 a36.327960262335004,36.327960262335004 0 0,0 -0.5271328850690331,-0.3364411476803032 l 8.357423775369211 -12.849118010299946" fill="#ff9f0e" stroke="none" /><path d="M 88.54995079064634 117.60387380957326 l -8.350928327247013 12.83913158605066 a36.31604726457647,36.31604726457647 0 0,0 -0.5210925658367758,-0.3453517383274825 l 8.57069559182375 -12.69348182663186" fill="#ff9f0e" stroke="none" /><path d="M 87.65650970185807 116.9893568818739 l -9.878856979210006 13.59708014110513 a37.80691534991837,37.80691534991837 0 0,0 -0.5232027534666364,-0.3870528890033453 l 10.111444703095207 -13.425017303362017" fill="#ffb410" stroke="none" /><path d="M 87.36589467227662 116.77436683061367 l -9.60100405283436 12.747302618338466 a36.958477460774276,36.958477460774276 0 0,0 -0.5048726391484347,-0.3871148108252543 l 9.819005420476282 -12.580148465685847" fill="#ffa80f" stroke="none" /><path d="M 86.51685102203217 116.09983520530335 l -9.956680744155873 11.888982272217465 a36.50752691147578,36.50752691147578 0 0,0 -0.47830861991138907,-0.4076249825723948 l 10.15985484064432 -11.71583289942212" fill="#ffa20e" stroke="none" /><path d="M 85.97065885151581 115.62618273729859 l -12.61134384530909 14.046786759547713 a39.87745247253507,39.87745247253507 0 0,0 -0.5068242871920811,-0.4629719696620991 l 12.851267681968025 -13.827622023299037" fill="#ffd013" stroke="none" /><path d="M 85.70375840098266 115.38237550388516 l -15.11476344278873 16.263083224989245 a43.20234109084871,43.20234109084871 0 0,0 -0.5403669940471952,-0.510950720878802 l 15.392466271226741 -16.000497867364512" fill="#fffb17" stroke="none" /><path d="M 85.18274418774928 114.88116024355367 l -10.764108796613057 10.810532659428583 a36.255610593021004,36.255610593021004 0 0,0 -0.4384501049730286,-0.44414764150428404 l 10.948599526641619 -10.623644523943634" fill="#ff9e0e" stroke="none" /><path d="M 84.9287848128048 114.62390073753433 l -11.190493010012492 10.858358596162411 a36.59266126131112,36.59266126131112 0 0,0 -0.4347442501098161,-0.45582760815553447 l 11.375743811501264 -10.664123871424376" fill="#ffa30f" stroke="none" /><path d="M 84.67929136418377 114.36230785411682 l -11.17520986610621 10.476134508306316 a36.31779063010211,36.31779063010211 0 0,0 -0.4236272985001224,-0.45976376511429273 l 11.353883572602061 -10.282219488390679" fill="#ff9f0e" stroke="none" /><path d="M 83.50135304334701 112.99209946851258 l -12.033278592938666 9.475780215343054 a36.31633782549741,36.31633782549741 0 0,0 -0.3825203024097916,-0.49445905512033217 l 12.194605712566526 -9.26724316610947" fill="#ff9f0e" stroke="none" /><path d="M 83.28015986056508 112.70617746262583 l -4.078748948423734 3.099629394298863 a26.122879597088854,26.122879597088854 0 0,0 -0.2689894473500619,-0.3603553223526533 l 4.131499662468881 -3.0289611924369018" fill="#ff0a01" stroke="none" /><path d="M 83.06392112726016 112.41649034213515 l -12.241246149833357 8.974528031972737 a36.17861194897196,36.17861194897196 0 0,0 -0.3638882822582946,-0.5054089974882036 l 12.39391422446726 -8.762485429033395" fill="#ff9d0e" stroke="none" /><path d="M 82.85270091963577 112.12312394758628 l -12.392490700178 8.761478998730862 a36.17686858344633,36.17686858344633 0 0,0 -0.3551174700717298,-0.5115732015507877 l 12.541469077411865 -8.54686453499306" fill="#ff9d0e" stroke="none" /><path d="M 82.44556493220864 111.52570212397912 l -9.874339364723005 6.483187510698828 a32.812463679884885,32.812463679884885 0 0,0 -0.3059295623399423,-0.47480947455614314 l 9.984473790439992 -6.312256436221237" fill="#ff6d0a" stroke="none" /><path d="M 82.24976979558568 111.22182372390057 l -17.426043029637402 11.01687025079061 a41.61645958435952,41.61645958435952 0 0,0 -0.3775908153642805,-0.6087966219002122 l 17.61309848466964 -10.715277297525134" fill="#ffe715" stroke="none" /><path d="M 82.05923443525364 110.91462005526583 l -17.463662437543736 10.624364918616122 a41.441541909953784,41.441541909953784 0 0,0 -0.36551267153698397,-0.6126202617455726 l 17.64395598477895 -10.322182562984437" fill="#ffe415" stroke="none" /><line stroke="#e1ed5e" stroke-width="0.3" x1="26.63291911575756" x2="22.317208475507996" y1="142.92168965132927" y2="145.44649492493687" /><path d="M 25.769776987707644 143.4266507060508 a86.0,86.0 0 0,1 -11.730757126820373,-40.83630448921669" fill="none" id="id21" stroke="none" /><text fill="#e1ed5e" style="font-size:6.75px; font-family:Arial;" text-anchor="middle"><textPath startOffset="21.46611528233685" xlink:href="#id21">September</textPath></text><path d="M 81.87401531095188 110.60418214915194 l -12.874580402527682 7.531971256976433 a35.915944876442424,35.915944876442424 0 0,0 -0.3075909996347345,-0.5363108347856841 l 13.002323398314793 -7.309240576332442" fill="#ff990e" stroke="none" /><path d="M 81.69416730710424 110.29060199501025 l -13.188233700727633 7.413749830896152 a36.129216592412206,36.129216592412206 0 0,0 -0.30008512770249435,-0.5447416723975365 l 13.313895237881644 -7.185637640100793" fill="#ff9c0e" stroke="none" /><path d="M 81.51974371655577 109.97397251340807 l -10.197969689689332 5.503942576199659 a32.58844120984033,32.58844120984033 0 0,0 -0.26217787634587064,-0.4959417377339756 l 10.29120007426009 -5.327585823379557" fill="#ff6a09" stroke="none" /><path d="M 81.35079622478065 109.6543875284942 l -18.218543771610292 9.431441894032885 a41.51505382295154,41.51505382295154 0 0,0 -0.3230688247448321,-0.6374454407689082 l 18.378191266141393 -9.116442241561291" fill="#ffe515" stroke="none" /><path d="M 81.18737489456691 109.33194174019688 l -18.463308021952287 9.158664132546214 a41.61006724409884,41.61006724409884 0 0,0 -0.31276255269159803,-0.6443834957527662 l 18.618223831258604 -8.839491680828163" fill="#ffe715" stroke="none" /><path d="M 81.02952815118164 109.00673069616217 l -15.559020668323413 7.3870544798462054 a38.22357971054598,38.22357971054598 0 0,0 -0.277076146056728,-0.5967973687550573 l 15.683871431219966 -7.118137043812322" fill="#ffb911" stroke="none" /><path d="M 80.87730276802145 108.67885076344099 l -18.315180393945518 8.312358628924818 a41.11320806929186,41.11320806929186 0 0,0 -0.28692891323107644,-0.6469489523152102 l 18.455550391907874 -7.995861340116912" fill="#ffe015" stroke="none" /><path d="M 80.73074385275274 108.34839909993369 l -10.820793507930615 4.688105347288218 a32.79270553726098,32.79270553726098 0 0,0 -0.2199438285225154,-0.5198822402705996 l 10.899888317645438 -4.50114858135146" fill="#ff6d0a" stroke="none" /><path d="M 80.58989483394504 108.01547362559985 l -8.84216042404175 3.651402352841263 a30.566427761020563,30.566427761020563 0 0,0 -0.1966402134287755,-0.48804488338368657 l 8.903703251727913 -3.498658101614771" fill="#ff4d07" stroke="none" /><path d="M 80.45479744820244 107.68017299344265 l -18.294724972038427 7.188805144400413 a40.65644630157456,40.65644630157456 0 0,0 -0.25033862277109104,-0.6535551489392758 l 18.415757874403027 -6.872826428627979" fill="#ffda14" stroke="none" /><path d="M 80.32549172779594 107.34259656027581 l -18.949855685926728 7.07215363414118 a41.22652682845836,41.22652682845836 0 0,0 -0.2424036126824685,-0.6669906338931021 l 19.068783559614424 -6.74491520324196" fill="#ffe215" stroke="none" /><path d="M 80.20201598880116 107.00284435728193 l -18.864158188715273 6.672536135598139 a41.009477820516366,41.009477820516366 0 0,0 -0.2296709814249063,-0.667531378624121 l 18.976220001083405 -6.346832053884722" fill="#ffdf14" stroke="none" /><path d="M 80.0844068197444 106.66101706037122 l -19.424275380764843 6.496689730783244 a41.48192987796442,41.48192987796442 0 0,0 -0.22065966715091415,-0.6791206249089424 l 19.533227298932005 -6.161370205896498" fill="#ffe515" stroke="none" /><path d="M 79.97269907076064 106.31721596034903 l -19.3126537657157 6.091794647543037 a41.250643384896364,41.250643384896364 0 0,0 -0.20777208033424438,-0.6790111801444271 l 19.414652618556076 -5.758456494846563" fill="#ffe215" stroke="none" /><path d="M 79.86692584326677 105.97154293290107 l -11.223142827304768 3.3288249332215103 a32.70640894374187,32.70640894374187 0 0,0 -0.15544478255236277,-0.541123680504416 l 11.278780246743235 -3.135143777212498" fill="#ff6c09" stroke="none" /><path d="M 79.76711848015287 105.62410040840567 l -14.487811445542354 4.027152839690765 a36.037108780474306,36.037108780474306 0 0,0 -0.1609862141798576,-0.5990895913049037 l 14.554985736063987 -3.777172315210322" fill="#ff9b0e" stroke="none" /><path d="M 79.67330655649465 105.27499134158121 l -11.412074049549169 2.9615535831328117 a32.790090488972524,32.790090488972524 0 0,0 -0.13707614038919044,-0.5475510418153822 l 11.461361504233418 -2.764674701920038" fill="#ff6d0a" stroke="none" /><path d="M 79.58551787078972 104.9243191809786 l -20.240204581631307 4.882280481935186 a41.82072391178016,41.82072391178016 0 0,0 -0.16278106213921,-0.7012565553195113 l 20.321246209701073 -4.533155269267101" fill="#ffe915" stroke="none" /><path d="M 79.50377843672027 104.57218783832718 l -19.413756531497366 4.330717309798317 a40.89092896477295,40.89092896477295 0 0,0 -0.14733578321762636,-0.6883037285848833 l 19.485426353439433 -3.99589976179727" fill="#ffdd14" stroke="none" /><path d="M 79.4281124754447 104.21870165774334 l -19.85830142133615 4.072365699363252 a41.27156377120403,41.27156377120403 0 0,0 -0.13672692656008192,-0.6971676528701971 l 19.9254582808719 -3.7299343194251" fill="#ffe215" stroke="none" /><path d="M 79.35854240842038 103.8639653848113 l -15.077111931221184 2.8223510063034163 a36.33900157733071,36.33900157733071 0 0,0 -0.10980185390111746,-0.6158271084975321 l 15.123460227461491 -2.5624051470726705" fill="#ff9f0e" stroke="none" /><path d="M 79.29508885075956 103.50808413554451 l -8.333358613336125 1.411941492360382 a29.452126629216593,29.452126629216593 0 0,0 -0.08038782041503839,-0.500575034460619 l 8.356428188112455 -1.2682872282065492" fill="#ff3c05" stroke="none" /><path d="M 79.18660465613746 102.79330883721812 l -9.329656155119613 1.2521076237561992 a30.413302155685308,30.413302155685308 0 0,0 -0.06516917599168663,-0.519462453177943 l 9.349826840358148 -1.0913274162908477" fill="#ff4a06" stroke="none" /><path d="M 79.1416061653843 102.43462659150553 l -19.63558875011412 2.2918987382220695 a40.768893377978245,40.768893377978245 0 0,0 -0.07535974339438675,-0.6977376301301206 l 19.672130795009558 -1.953564786207167" fill="#ffdc14" stroke="none" /><path d="M 79.10278846688536 102.07522291339032 l -11.497601026846496 1.1417832021330745 a32.554155021169436,32.554155021169436 0 0,0 -0.05057583097258704,-0.558100080366483 l 11.515551454096158 -0.9437017332180254" fill="#ff6a09" stroke="none" /><path d="M 79.0235259727143 100.99374915477108 l -12.899222565081299 0.6110937188289817 a33.91368957024656,33.91368957024656 0 0,0 -0.022605681958567915,-0.5833522052608174 l 12.907830379891067 -0.38896426655416744" fill="#ff7d0b" stroke="none" /><path d="M 79.0095281055655 100.63252640178507 l -11.742628879483297 0.3538521110907681 a32.747959155436256,32.747959155436256 0 0,0 -0.012129122547853304,-0.563592664326836 l 11.746980064716157 -0.15166963097380332" fill="#ff6c0a" stroke="none" /><line stroke="#e1ed5e" stroke-width="0.3" x1="15.007084014347285" x2="10.007500721073583" y1="101.09737516637583" y2="101.16192664675087" /><path d="M 14.007167355692545 101.11028546245083 a86.0,86.0 0 0,1 10.666146001902534,-42.60595125391555" fill="none" id="id22" stroke="none" /><text fill="#e1ed5e" style="font-size:6.75px; font-family:Arial;" text-anchor="middle"><textPath startOffset="22.20632615414155" xlink:href="#id22">October</textPath></text><path d="M 79.00175016825051 100.2711162175752 l -8.409875468769142 0.10858303171170636 a29.410576417522208,29.410576417522208 0 0,0 -0.002178767307143717,-0.506268791214323 l 8.410498533365788 0.03619523770629198" fill="#ff3b05" stroke="none" /><path d="M 79.00019446554 99.90962569577889 l -11.110946725485654 -0.04781682753708994 a32.11104961673631,32.11104961673631 0 0,0 0.007136287619237673,-0.5527133405748264 l 11.108477430748701 0.23906642617238827" fill="#ff6309" stroke="none" /><path d="M 79.00486145842228 99.54816195383935 l -11.342615318018145 -0.24410532626378334 a32.34524171901376,32.34524171901376 0 0,0 0.016770708321078003,-0.5565381629444839 l 11.336732915241422 0.4393136366332616" fill="#ff6709" stroke="none" /><path d="M 79.01574976396665 99.18683210126434 l -11.727244254968912 -0.45444647588111625 a32.73604615767773,32.73604615767773 0 0,0 0.026666458593309586,-0.5628867943149498 l 11.717684188142105 0.6562443768190751" fill="#ff6c0a" stroke="none" /><path d="M 79.03285615573316 98.82574320788736 l -11.367525865370013 -0.6366338952063241 a32.38533912610344,32.38533912610344 0 0,0 0.035962236597256496,-0.5563198828968621 l 11.354883037768342 0.832212842356198" fill="#ff6709" stroke="none" /><path d="M 79.08570108090925 98.10471618934814 l -11.707828817659095 -1.0609802653120541 a32.755804300301634,32.755804300301634 0 0,0 0.05572054667605661,-0.561098300870264 l 11.687831145300809 1.2623540968867486" fill="#ff6d0a" stroke="none" /><path d="M 79.12142395522702 97.74499172005258 l -12.129241115641637 -1.3100289543978818 a33.19978138749758,33.19978138749758 0 0,0 0.0662567199194306,-0.5676471139727007 l 12.104894042718618 1.5186198066954444" fill="#ff730a" stroke="none" /><path d="M 79.16333360222342 97.38593545837743 l -11.718570704131835 -1.4701536018946268 a32.8104297534383,32.8104297534383 0 0,0 0.07512651119891443,-0.5597797699825192 l 11.691528193875087 1.6716517139418052" fill="#ff6d0a" stroke="none" /><path d="M 80.38941819471856 92.48833698450439 l -18.61206309809163 -7.129189098222131 a40.93073581094169,40.93073581094169 0 0,0 0.257681299156902,-0.6557707997114259 l 18.48658824905304 7.44850890282932" fill="#ffde14" stroke="none" /><path d="M 80.52162464483688 92.15188598940014 l -18.553965090500736 -7.475655988955036 a41.00337604117663,41.00337604117663 0 0,0 0.2694084122920174,-0.6523938396486927 l 18.422534991322518 7.7939243990570395" fill="#ffdf14" stroke="none" /><path d="M 80.65960295795068 91.81776055985345 l -14.149793485796303 -5.986278258801624 a36.36398981653153,36.36398981653153 0 0,0 0.24884967446770154,-0.5743793584946524 l 14.04465310148592 6.228956761882876" fill="#ffa00e" stroke="none" /><path d="M 80.803312248108 91.48605970444005 l -18.374890813790422 -8.149464394482619 a41.10100451061239,41.10100451061239 0 0,0 0.2923997544935393,-0.6442640999703032 l 18.23188874233353 8.464550503294994" fill="#ffe015" stroke="none" /><path d="M 80.95270993114464 91.15688171328213 l -9.813805622824749 -4.556272501325513 a31.819907573954673,31.819907573954673 0 0,0 0.23492456866926015,-0.49481105485200816 l 9.733922860313736 4.7245259718180534" fill="#ff5f08" stroke="none" /><path d="M 81.10775173730289 90.83032412892265 l -14.091681816334203 -6.839638826326316 a36.66384868694136,36.66384868694136 0 0,0 0.28046096086420447,-0.5653921831424238 l 13.971860842516586 7.0811905979677014" fill="#ffa40f" stroke="none" /><path d="M 81.26839172434947 90.50648371742162 l -18.120214635859455 -9.18365097955651 a41.31456678750311,41.31456678750311 0 0,0 0.32695672729330805,-0.6315763288945562 l 17.95944847540603 9.494200030711403" fill="#ffe315" stroke="none" /><path d="M 81.43458229118936 90.18545643968196 l -18.222232081074925 -9.6331196707231 a41.611810609624484,41.611810609624484 0 0,0 0.3402100408822566,-0.6303575368042438 l 18.053713940974195 9.945358190859817" fill="#ffe715" stroke="none" /><path d="M 81.6062741919709 89.86733742301443 l -18.06516643649626 -9.95166709608112 a41.62488585106678,41.62488585106678 0 0,0 0.3511204981233952,-0.6246041870834957 l 17.891188297080433 10.2611547930994" fill="#ffe715" stroke="none" /><line stroke="#e1ed5e" stroke-width="0.3" x1="26.266209847984243" x2="21.928928074336255" y1="57.711370442889674" y2="55.22380399835377" /><path d="M 25.398753493254645 57.213857153982495 a86.0,86.0 0 0,1 29.58750427330803,-30.492523968695096" fill="none" id="id23" stroke="none" /><text fill="#e1ed5e" style="font-size:6.75px; font-family:Arial;" text-anchor="middle"><textPath startOffset="21.46611528233685" xlink:href="#id23">November</textPath></text><path d="M 81.78341655067845 89.55222093294921 l -13.526709245022266 -7.757989860688693 a36.59353294407394,36.59353294407394 0 0,0 0.318085495994864,-0.5437112215836748 l 13.391164074557077 7.989680494626259" fill="#ffa30f" stroke="none" /><path d="M 81.96595687620814 89.24020034530311 l -17.7176476471202 -10.571026016014166 a41.63156875224839,41.63156875224839 0 0,0 0.37247209814803167,-0.6122461944114118 l 17.53305975068595 10.874439983632652" fill="#ffe715" stroke="none" /><path d="M 82.34701348167596 88.62581576622439 l -6.663163408969753 -4.293213962108068 a28.92650192323657,28.92650192323657 0 0,0 0.2732912051855108,-0.4162412549293984 l 6.5882755684263214 4.407273281015133" fill="#ff3405" stroke="none" /><path d="M 82.54541684631803 88.32363383020206 l -16.797687642460566 -11.236931297204048 a41.209674295043854,41.209674295043854 0 0,0 0.39948959353479657,-0.5862016840856112 l 16.601773583257028 11.524411004560076" fill="#ffe115" stroke="none" /><path d="M 82.7489923806493 88.02491185347247 l -11.139376187667459 -7.732592477381808 a34.56018761933752,34.56018761933752 0 0,0 0.34344166730314235,-0.48577388232333 l 11.004621900560439 7.923192860036925" fill="#ff860c" stroke="none" /><path d="M 82.95767976084542 87.72973835380427 l -16.265825779908713 -11.711195154775272 a41.04318288734538,41.04318288734538 0 0,0 0.41773631830792146,-0.569791868710493 l 16.061826849087158 11.989449467157266" fill="#ffdf14" stroke="none" /><path d="M 83.17141714833178 87.43820079747576 l -6.804406517894407 -5.079191107388075 a29.49106179262252,29.49106179262252 0 0,0 0.3071621315420985,-0.40418935996905453 l 6.715968446128199 5.195565243238156" fill="#ff3d05" stroke="none" /><path d="M 83.39014120810768 87.1503855733568 l -8.50395169599568 -6.578773592565495 a31.75162575753383,31.75162575753383 0 0,0 0.33814864453237164,-0.42941443902361576 l 8.389448970869337 6.724180425542159" fill="#ff5e08" stroke="none" /><path d="M 83.6137871275137 86.86637796730984 l -12.392025306078027 -9.93226304674912 a36.8811882558043,36.8811882558043 0 0,0 0.40130510145074877,-0.4919526035292984 l 12.219221712550885 10.1440998198865" fill="#ffa70f" stroke="none" /><path d="M 83.84228863543731 86.58626213691792 l -11.888350129138418 -9.869418301811379 a36.45115809281346,36.45115809281346 0 0,0 0.4049365861502999,-0.479317194427841 l 11.716702929500993 10.072594445868335" fill="#ffa10e" stroke="none" /><path d="M 84.07557802195018 86.31012108654704 l -16.090553839735204 -13.83269885839504 a42.21908293438858,42.21908293438858 0 0,0 0.4784992976507759,-0.5470074141821396 l 15.850062678506582 14.107621828780122" fill="#ffef16" stroke="none" /><path d="M 84.31358615837235 86.03803664274999 l -15.824885934371363 -14.085212833160105 a42.185377867559566,42.185377867559566 0 0,0 0.4874547720275465,-0.5382597341711022 l 15.580087521727771 14.355525354600763" fill="#ffee16" stroke="none" /><path d="M 84.5562425177563 85.77008943001954 l -15.461706891830946 -14.24644919366088 a42.02440711735894,42.02440711735894 0 0,0 0.49475270067754684,-0.5277676854483473 l 15.214186869182944 14.510486295987276" fill="#ffec16" stroke="none" /><path d="M 84.80347519578584 85.50635884689758 l -11.109438865365961 -10.595594874578953 a36.35207681877301,36.35207681877301 0 0,0 0.4357674678045059,-0.4490966806143846 l 10.925407133858338 10.785255750743461" fill="#ffa00e" stroke="none" /><path d="M 85.05521093208273 85.24692304244772 l -15.193131371796522 -14.998233520438253 a42.34896366604865,42.34896366604865 0 0,0 0.5165851614884227,-0.5143667806347678 l 14.932710410140785 15.257536151723132" fill="#fff016" stroke="none" /><path d="M 85.31137513191541 84.99185889309783 l -10.798092368849135 -11.032979289243984 a36.43779229045023,36.43779229045023 0 0,0 0.45203121225867565,-0.4348536680489812 l 10.606577912978032 11.21721604405528" fill="#ffa10e" stroke="none" /><path d="M 85.57189188830299 84.74124197986013 l -8.100414296266015 -8.566768466989727 a32.790090488972524,32.790090488972524 0 0,0 0.41345511672062835,-0.38426147102540276 l 7.9517512957505305 8.704934524089778" fill="#ff6d0a" stroke="none" /><path d="M 85.83668400450813 84.49514656593479 l -14.087084848436966 -15.42140173655503 a41.886971801754434,41.886971801754434 0 0,0 0.5365302465499676,-0.4817021528465221 l 13.819543614291026 15.66160289817083" fill="#ffea16" stroke="none" /><path d="M 86.10567301691215 84.25364557470407 l -13.402948343898476 -15.189478067116562 a41.25732628607798,41.25732628607798 0 0,0 0.5365538885705418,-0.4652942448785555 l 13.139500656681161 15.4179373054148" fill="#ffe215" stroke="none" /><path d="M 86.37877921826538 84.01681056812374 l -13.217525747358831 -15.50949222730644 a41.37761850734704,41.37761850734704 0 0,0 0.5460711956139265,-0.45731892215979125 l 12.948597014785793 15.734712306860043" fill="#ffe415" stroke="none" /><path d="M 86.65592168130627 83.78471172551755 l -7.222980434258757 -8.777129985693719 a32.367033788084235,32.367033788084235 0 0,0 0.4332506283989743,-0.35032521093701413 l 7.070826407295281 8.900161293894866" fill="#ff6709" stroke="none" /><path d="M 86.93701828274178 83.55741782278169 l -12.785542016453077 -16.09336442751537 a41.55398898635747,41.55398898635747 0 0,0 0.5638825744940789,-0.4401192935498157 l 12.506626886799571 16.311062110288407" fill="#ffe615" stroke="none" /><path d="M 87.22198572758235 83.33499621200491 l -9.80512900260136 -12.787785996048644 a37.114218114397985,37.114218114397985 0 0,0 0.5103272967039264,-0.384367939682994 l 9.583555552139044 12.954670525237493" fill="#ffaa0f" stroke="none" /><path d="M 87.51073957382395 83.11751280151077 l -9.50423836289236 -12.847452692765144 a36.98085065168664,36.98085065168664 0 0,0 0.515010618014622,-0.3741771163619478 l 9.281682428523958 13.00914904394376" fill="#ffa80f" stroke="none" /><path d="M 87.80319425747018 82.90503203632743 l -11.814231668612301 -16.558754493079466 a41.34129839222957,41.34129839222957 0 0,0 0.5828510049104413,-0.4083243764936697 l 11.5274495241182 16.75966371233708" fill="#ffe315" stroke="none" /><path d="M 88.09926311788651 82.69761687909137 l -7.517121511778023 -10.92908091755985 a34.26468716274179,34.26468716274179 0 0,0 0.4888352105517118,-0.33006371627788106 l 7.327881606819772 11.056856546136395" fill="#ff820c" stroke="none" /><path d="M 88.39885842347998 82.49532879139004 l -9.641079316358887 -14.547182483365248 a38.451960594404625,38.451960594404625 0 0,0 0.5548672373022773,-0.3609010857777294 l 9.389245053272322 14.710982493302513" fill="#ffbc11" stroke="none" /><path d="M 88.70189139769569 82.29822771554957 l -10.846646975115357 -16.994426373645815 a41.16086006032599,41.16086006032599 0 0,0 0.6005190092557237,-0.376044948504216 l 10.55250881348739 17.17861566347296" fill="#ffe115" stroke="none" /><path d="M 89.00827224532344 82.1063720568725 l -10.634938407020812 -17.312804256122803 a41.31834407947533,41.31834407947533 0 0,0 0.6092250803846176,-0.36705129426578614 l 10.335351260418546 17.49330215984721" fill="#ffe315" stroke="none" /><line stroke="#e1ed5e" stroke-width="0.3" x1="56.762969772571076" x2="54.21961505331055" y1="26.818313649435495" y2="22.513508569990535" /><path d="M 56.25429882871897 25.957352633546506 a86.0,86.0 0 0,1 42.265352541879196,-11.944610805530505" fill="none" id="id24" stroke="none" /><text fill="#e1ed5e" style="font-size:6.75px; font-family:Arial;" text-anchor="middle"><textPath startOffset="22.20632615414155" xlink:href="#id24">December</textPath></text><path d="M 89.3179101791058 81.91981866633112 l -7.9866630828743395 -13.51798376632627 a36.70104048482165,36.70104048482165 0 0,0 0.5466764469321325,-0.31667028358615473 l 7.752789903476886 13.65345820730247" fill="#ffa40f" stroke="none" /><path d="M 89.63071344664047 81.73862282372117 l -8.928398476659886 -15.723825484365163 a39.08189667100202,39.08189667100202 0 0,0 0.5878585577021406,-0.32714265090028743 l 8.6564158298857 15.875183532825636" fill="#ffc512" stroke="none" /><path d="M 89.94658935756843 81.56283822128135 l -7.607591685048912 -13.951722816502498 a36.891067327116254,36.891067327116254 0 0,0 0.5601380741004195,-0.29920636037448295 l 7.366308564420187 14.080607903378729" fill="#ffa70f" stroke="none" /><path d="M 90.26544431104013 81.39251694778311 l -9.843923638975589 -18.816538538815124 a42.23593546780309,42.23593546780309 0 0,0 0.6470937754115907,-0.3314665650244105 l 9.518569375975234 18.98319762915204" fill="#ffef16" stroke="none" /><path d="M 90.58718382345135 81.22770947309562 l -9.552952189581905 -19.051768411163586 a42.31264355093118,42.31264355093118 0 0,0 0.6538889810011032,-0.3208604831685747 l 9.223591941570376 19.21338405446699" fill="#fff016" stroke="none" /><path d="M 90.91171255644093 81.06846463323043 l -9.240442129984423 -19.24848416984938 a42.3515787143371,42.3515787143371 0 0,0 0.6599218733900388,-0.3098421681428698 l 8.907742045294777 19.404691320632256" fill="#fff016" stroke="none" /><path d="M 91.56875222667455 80.76684994638697 l -11.12928439093996 -25.387843227367934 a48.72009297949471,48.72009297949471 0 0,0 0.7709751532882126,-0.3300913250866407 l 10.690625479861438 25.57565408041736" fill="#beff1f" stroke="none" /><path d="M 91.90106846888425 80.62456947434976 l -4.77202035659524 -11.416314427523245 a33.37353681821955,33.37353681821955 0 0,0 0.5319362429497219,-0.21699014962283159 l 4.574800244057138 11.496765463329654" fill="#ff750a" stroke="none" /><path d="M 92.23578459929587 80.48803036053334 l -4.42343489137717 -11.116374655819234 a32.96413648061544,32.96413648061544 0 0,0 0.5290223307245582,-0.20525244546610033 l 4.231429395652936 11.190869805175886" fill="#ff700a" stroke="none" /><path d="M 92.57280143429618 80.3572730644239 l -5.703530281915038 -15.08413797010557 a37.12642167307746,37.12642167307746 0 0,0 0.5997113529680098,-0.22087875247042035 l 5.443036603174459 15.180079990382312" fill="#ffaa0f" stroke="none" /><path d="M 92.91201910852362 80.23233633223022 l -6.88713155608961 -19.20751513314333 a41.40493123391538,41.40493123391538 0 0,0 0.6729641976503562,-0.23478399456180787 l 6.555485354375969 19.323219980877347" fill="#ffe415" stroke="none" /><path d="M 93.25333710446033 80.11325718540243 l -4.1066765470774635 -12.105009777272478 a33.78264659490273,33.78264659490273 0 0,0 0.552293470768766,-0.18208247394016733 l 3.897700254066288 12.173905975471879" fill="#ff7b0b" stroke="none" /><path d="M 93.59665428221793 80.00007090966166 l -6.255386737392224 -19.537800502175717 a41.5147632620306,41.5147632620306 0 0,0 0.6824525488811536,-0.21204132894615707 l 5.918148815800342 19.6425819660044" fill="#ffe515" stroke="none" /><path d="M 93.94186890950719 79.89281104454417 l -4.5701278926840745 -15.16844447836514 a36.841962531477435,36.841962531477435 0 0,0 0.6087867331757074,-0.17772154144539756 l 4.308350941784946 15.244864348729237" fill="#ffa60f" stroke="none" /><path d="M 94.28887869178378 79.79150937346287 l -3.178517080854657 -11.247008979187935 a32.687522483880784,32.687522483880784 0 0,0 0.5427718136274409,-0.148360039988424 l 2.9844473780034937 11.300055560002656" fill="#ff6c09" stroke="none" /><path d="M 94.63758080256005 79.69619591428918 l -5.127812430105844 -19.41550914535858 a41.081246367988484,41.081246367988484 0 0,0 0.6852569259260961,-0.174687248300483 l 4.792846615494748 19.50089938982793" fill="#ffe015" stroke="none" /><path d="M 94.98787191387505 79.60689891045804 l -4.860184473806553 -19.774880367191095 a41.36338102222099,41.36338102222099 0 0,0 0.6928884605124186,-0.16398431227498173 l 4.5190723263316 19.855610591606947" fill="#ffe315" stroke="none" /><path d="M 95.33964822691252 79.52364482259891 l -4.5153323866183 -19.839178283995782 a41.346528488806484,41.346528488806484 0 0,0 0.6953251127055112,-0.1519711380919286 l 4.173164549759267 19.91396292018358" fill="#ffe315" stroke="none" /><path d="M 95.692805502759 79.44645832069477 l -4.189314890251733 -19.991030880931458 a41.42527049838117,41.42527049838117 0 0,0 0.6991670172160164,-0.14024632623173033 l 3.8445814635685798 20.0601811632404" fill="#ffe415" stroke="none" /><path d="M 96.04723909329186 79.375362276772 l -3.8251113514565036 -19.958590397135442 a41.321830810526606,41.321830810526606 0 0,0 0.6997259352944784,-0.12787044213944712 l 3.480990295059132 20.021476320625624" fill="#ffe315" stroke="none" /><path d="M 96.40284397218896 79.31037775812273 l -0.7758815800640093 -4.4626078690625235 a25.529554196529872,25.529554196529872 0 0,0 0.4336022077236501,-0.07154807952148148 l 0.6989501662014735 4.475302211523632" fill="#ff0000" stroke="none" /><path d="M 96.75951476605007 79.25152402106235 l -2.4496658721267375 -15.684945258118235 a36.87508647646457,36.87508647646457 0 0,0 0.6279845130171318,-0.09254859306433061 l 2.179312378680957 15.724788335343534" fill="#ffa70f" stroke="none" /><path d="M 97.11714578562143 79.19881850522333 l -2.1379087940651207 -15.426041533013814 a36.5734842405291,36.5734842405291 0 0,0 0.6243359727323647,-0.08105672782305927 l 1.872058092824898 15.46055658400101" fill="#ffa30f" stroke="none" /><path d="M 97.47563105711357 79.15227682838746 l -1.8381083098810238 -15.180179312467581 a36.29105902537566,36.29105902537566 0 0,0 0.6208074650861476,-0.06975495214769141 l 1.5765341412851583 15.209570218085872" fill="#ff9f0e" stroke="none" /><path d="M 97.83486435360386 79.11191278185805 l -1.9951577891078838 -19.24823046639529 a40.35135733458782,40.35135733458782 0 0,0 0.6914971234533929,-0.06566598404680545 l 1.6635355385642547 19.279721994957278" fill="#ffd614" stroke="none" /><path d="M 98.19473922651362 79.07773832637324 l -1.4914869981794112 -17.285747143586924 a38.349973711154774,38.349973711154774 0 0,0 0.6581765125331788,-0.051087164745186785 l 1.1937202962838984 17.308859570520575" fill="#ffbb11" stroke="none" /><path d="M 98.55514903715128 79.0497635885617 l -1.4572255753788552 -21.129667414823757 a42.17985721006171,42.17985721006171 0 0,0 0.7247663455198059,-0.043719885212788266 l 1.0932971810194263 21.151620569416853" fill="#ffee16" stroke="none" /><path d="M 98.91598698831166 79.02799685794201 l -0.8044980203245852 -15.564328867002057 a36.58510667736669,36.58510667736669 0 0,0 0.6291926987878825,-0.027094361151809535 l 0.5364644891473784 15.57587095467806" fill="#ffa30f" stroke="none" /><path d="M 99.27714615592234 79.0124445844662 l -0.5341541252823379 -15.50879115695013 a36.517987104629604,36.517987104629604 0 0,0 0.6284108512338104,-0.01622999829476849 l 0.2671166388536485 15.515687947387258" fill="#ffa20f" stroke="none" /><path d="M 99.63851952072746 79.00311137660856 l -0.3455556121556832 -20.071879721478187 a41.07485402772781,41.07485402772781 0 0,0 0.707036091428214,-0.006085682858182969 l 4.9169211456814425e-15 20.07485402772781" fill="#ffe015" stroke="none" /></svg>